  0
SECTION
  2
HEADER
  9
$ACADVER
  1
AC1006
  9
$EXTMIN
 10
0.000000
 20
0.000000
  9
$EXTMAX
 10
4.045000
 20
1.673333
  9
$LTSCALE
 40
0.166667
  9
$PDMODE
 70
    35
  9
$PDSIZE
 40
0.133333
  0
ENDSEC
  0
SECTION
  2
TABLES
  0
TABLE
  2
LTYPE
 70
     9
  0
LTYPE
  2
CONTINUOUS
 70
    64
  3
Solid line
 72
    65
 73
     0
 40
0.000000
  0
LTYPE
  2
DASHED
 70
    64
  3
__ __ __ __ __ __ __ __ __ __ __ __ __ __ __
 72
    65
 73
     2
 40
0.001250
 49
0.000833
 49
-0.000417
  0
LTYPE
  2
HIDDEN
 70
    64
  3
 _ _ _ _ _ _ _ _ _ _ _ _ _ _ _ _ _ _ _ _ _ _
 72
    65
 73
     2
 40
0.000625
 49
0.000417
 49
-0.000208
  0
LTYPE
  2
CENTER
 70
    64
  3
____ _ ____ _ ____ _ ____ _ ____ _ ____ _ ____
 72
    65
 73
     4
 40
0.003333
 49
0.002083
 49
-0.000417
 49
0.000417
 49
-0.000417
  0
LTYPE
  2
PHANTOM
 70
    64
  3
_____ _ _ _____ _ _ _____ _ _ _____ _ _ ____
 72
    65
 73
     6
 40
0.004167
 49
0.002083
 49
-0.000417
 49
0.000417
 49
-0.000417
 49
0.000417
 49
-0.000417
  0
LTYPE
  2
DOT
 70
    64
  3
...............................................
 72
    65
 73
     2
 40
0.000417
 49
0.000000
 49
-0.000417
  0
LTYPE
  2
DASHDOT
 70
    64
  3
__ . __ . __ . __ . __ . __ . __ . __ . __ . __
 72
    65
 73
     4
 40
0.001667
 49
0.000833
 49
-0.000417
 49
0.000000
 49
-0.000417
  0
LTYPE
  2
BORDER
 70
    64
  3
__ __ . __ __ . __ __ . __ __ . __ __ . __ __
 72
    65
 73
     6
 40
0.002917
 49
0.000833
 49
-0.000417
 49
0.000833
 49
-0.000417
 49
0.000000
 49
-0.000417
  0
LTYPE
  2
DIVIDE
 70
    64
  3
__ . . __ . . __ . . __ . . __ . . __ . . __
 72
    65
 73
     6
 40
0.002083
 49
0.000833
 49
-0.000417
 49
0.000000
 49
-0.000417
 49
0.000000
 49
-0.000417
  0
LTYPE
  2
DOTDOT
 70
    64
  3
 . .  . .  . .  . .  . .  . . 
 72
    65
 73
     5
 40
0.000917
 49
-0.000417
 49
0.000000
 49
-0.000417
 49
0.000000
 49
-0.000417
  0
ENDTAB
  0
TABLE
  2
STYLE
 70
     2
  0
STYLE
 70
     0
  2
SN0
 40
0.000000
 41
0.001667
 50
0.000000
 71
     0
 42
0.000000
  3
ROMAND
  0
STYLE
 70
    68
  2
SV0
 40
0.000000
 41
0.001667
 50
0.000000
 71
     0
 42
0.000000
  3
ROMAND
  0
ENDTAB
  0
TABLE
  2
LAYER
 70
     2
  0
LAYER
  2
FOREGROUND
 70
    64
 62
     7
  6
CONTINUOUS
  0
LAYER
  2
BACKGROUND
 70
    65
 62
    -7
  6
CONTINUOUS
  0
ENDTAB
  0
ENDSEC
  0
SECTION
  2
ENTITIES
  0
POLYLINE
  8
FOREGROUND
  6
CONTINUOUS
 66
     1
 40
0.010000
 41
0.010000
 70
     1
  0
VERTEX
  8
FOREGROUND
  6
CONTINUOUS
 10
3.208333
 20
0.050000
  0
VERTEX
  8
FOREGROUND
  6
CONTINUOUS
 10
3.229633
 20
0.050299
  0
VERTEX
  8
FOREGROUND
  6
CONTINUOUS
 10
3.250792
 20
0.051158
  0
VERTEX
  8
FOREGROUND
  6
CONTINUOUS
 10
3.271803
 20
0.052570
  0
VERTEX
  8
FOREGROUND
  6
CONTINUOUS
 10
3.292660
 20
0.054527
  0
VERTEX
  8
FOREGROUND
  6
CONTINUOUS
 10
3.313356
 20
0.057022
  0
VERTEX
  8
FOREGROUND
  6
CONTINUOUS
 10
3.333882
 20
0.060049
  0
VERTEX
  8
FOREGROUND
  6
CONTINUOUS
 10
3.354233
 20
0.063599
  0
VERTEX
  8
FOREGROUND
  6
CONTINUOUS
 10
3.374401
 20
0.067667
  0
VERTEX
  8
FOREGROUND
  6
CONTINUOUS
 10
3.394379
 20
0.072245
  0
VERTEX
  8
FOREGROUND
  6
CONTINUOUS
 10
3.414159
 20
0.077325
  0
VERTEX
  8
FOREGROUND
  6
CONTINUOUS
 10
3.433736
 20
0.082902
  0
VERTEX
  8
FOREGROUND
  6
CONTINUOUS
 10
3.453101
 20
0.088967
  0
VERTEX
  8
FOREGROUND
  6
CONTINUOUS
 10
3.472247
 20
0.095513
  0
VERTEX
  8
FOREGROUND
  6
CONTINUOUS
 10
3.491168
 20
0.102534
  0
VERTEX
  8
FOREGROUND
  6
CONTINUOUS
 10
3.509856
 20
0.110022
  0
VERTEX
  8
FOREGROUND
  6
CONTINUOUS
 10
3.528304
 20
0.117970
  0
VERTEX
  8
FOREGROUND
  6
CONTINUOUS
 10
3.546506
 20
0.126372
  0
VERTEX
  8
FOREGROUND
  6
CONTINUOUS
 10
3.564453
 20
0.135219
  0
VERTEX
  8
FOREGROUND
  6
CONTINUOUS
 10
3.582139
 20
0.144505
  0
VERTEX
  8
FOREGROUND
  6
CONTINUOUS
 10
3.599557
 20
0.154223
  0
VERTEX
  8
FOREGROUND
  6
CONTINUOUS
 10
3.616700
 20
0.164365
  0
VERTEX
  8
FOREGROUND
  6
CONTINUOUS
 10
3.633560
 20
0.174925
  0
VERTEX
  8
FOREGROUND
  6
CONTINUOUS
 10
3.650130
 20
0.185896
  0
VERTEX
  8
FOREGROUND
  6
CONTINUOUS
 10
3.666404
 20
0.197270
  0
VERTEX
  8
FOREGROUND
  6
CONTINUOUS
 10
3.682374
 20
0.209040
  0
VERTEX
  8
FOREGROUND
  6
CONTINUOUS
 10
3.698033
 20
0.221199
  0
VERTEX
  8
FOREGROUND
  6
CONTINUOUS
 10
3.713374
 20
0.233740
  0
VERTEX
  8
FOREGROUND
  6
CONTINUOUS
 10
3.728390
 20
0.246656
  0
VERTEX
  8
FOREGROUND
  6
CONTINUOUS
 10
3.743074
 20
0.259940
  0
VERTEX
  8
FOREGROUND
  6
CONTINUOUS
 10
3.757418
 20
0.273584
  0
VERTEX
  8
FOREGROUND
  6
CONTINUOUS
 10
3.771416
 20
0.287582
  0
VERTEX
  8
FOREGROUND
  6
CONTINUOUS
 10
3.785060
 20
0.301926
  0
VERTEX
  8
FOREGROUND
  6
CONTINUOUS
 10
3.798344
 20
0.316610
  0
VERTEX
  8
FOREGROUND
  6
CONTINUOUS
 10
3.811260
 20
0.331626
  0
VERTEX
  8
FOREGROUND
  6
CONTINUOUS
 10
3.823801
 20
0.346967
  0
VERTEX
  8
FOREGROUND
  6
CONTINUOUS
 10
3.835960
 20
0.362626
  0
VERTEX
  8
FOREGROUND
  6
CONTINUOUS
 10
3.847730
 20
0.378596
  0
VERTEX
  8
FOREGROUND
  6
CONTINUOUS
 10
3.859104
 20
0.394870
  0
VERTEX
  8
FOREGROUND
  6
CONTINUOUS
 10
3.870075
 20
0.411440
  0
VERTEX
  8
FOREGROUND
  6
CONTINUOUS
 10
3.880635
 20
0.428300
  0
VERTEX
  8
FOREGROUND
  6
CONTINUOUS
 10
3.890777
 20
0.445443
  0
VERTEX
  8
FOREGROUND
  6
CONTINUOUS
 10
3.900495
 20
0.462861
  0
VERTEX
  8
FOREGROUND
  6
CONTINUOUS
 10
3.909781
 20
0.480547
  0
VERTEX
  8
FOREGROUND
  6
CONTINUOUS
 10
3.918628
 20
0.498494
  0
VERTEX
  8
FOREGROUND
  6
CONTINUOUS
 10
3.927030
 20
0.516696
  0
VERTEX
  8
FOREGROUND
  6
CONTINUOUS
 10
3.934978
 20
0.535144
  0
VERTEX
  8
FOREGROUND
  6
CONTINUOUS
 10
3.942466
 20
0.553832
  0
VERTEX
  8
FOREGROUND
  6
CONTINUOUS
 10
3.949487
 20
0.572753
  0
VERTEX
  8
FOREGROUND
  6
CONTINUOUS
 10
3.956033
 20
0.591899
  0
VERTEX
  8
FOREGROUND
  6
CONTINUOUS
 10
3.962098
 20
0.611264
  0
VERTEX
  8
FOREGROUND
  6
CONTINUOUS
 10
3.967675
 20
0.630841
  0
VERTEX
  8
FOREGROUND
  6
CONTINUOUS
 10
3.972755
 20
0.650621
  0
VERTEX
  8
FOREGROUND
  6
CONTINUOUS
 10
3.977333
 20
0.670599
  0
VERTEX
  8
FOREGROUND
  6
CONTINUOUS
 10
3.981401
 20
0.690767
  0
VERTEX
  8
FOREGROUND
  6
CONTINUOUS
 10
3.984951
 20
0.711118
  0
VERTEX
  8
FOREGROUND
  6
CONTINUOUS
 10
3.987978
 20
0.731644
  0
VERTEX
  8
FOREGROUND
  6
CONTINUOUS
 10
3.990473
 20
0.752340
  0
VERTEX
  8
FOREGROUND
  6
CONTINUOUS
 10
3.992430
 20
0.773197
  0
VERTEX
  8
FOREGROUND
  6
CONTINUOUS
 10
3.993842
 20
0.794208
  0
VERTEX
  8
FOREGROUND
  6
CONTINUOUS
 10
3.994701
 20
0.815367
  0
VERTEX
  8
FOREGROUND
  6
CONTINUOUS
 10
3.995000
 20
0.836667
  0
VERTEX
  8
FOREGROUND
  6
CONTINUOUS
 10
3.995000
 20
0.836667
  0
VERTEX
  8
FOREGROUND
  6
CONTINUOUS
 10
3.994701
 20
0.857969
  0
VERTEX
  8
FOREGROUND
  6
CONTINUOUS
 10
3.993842
 20
0.879130
  0
VERTEX
  8
FOREGROUND
  6
CONTINUOUS
 10
3.992430
 20
0.900145
  0
VERTEX
  8
FOREGROUND
  6
CONTINUOUS
 10
3.990472
 20
0.921004
  0
VERTEX
  8
FOREGROUND
  6
CONTINUOUS
 10
3.987976
 20
0.941702
  0
VERTEX
  8
FOREGROUND
  6
CONTINUOUS
 10
3.984949
 20
0.962231
  0
VERTEX
  8
FOREGROUND
  6
CONTINUOUS
 10
3.981397
 20
0.982585
  0
VERTEX
  8
FOREGROUND
  6
CONTINUOUS
 10
3.977329
 20
1.002755
  0
VERTEX
  8
FOREGROUND
  6
CONTINUOUS
 10
3.972750
 20
1.022735
  0
VERTEX
  8
FOREGROUND
  6
CONTINUOUS
 10
3.967668
 20
1.042518
  0
VERTEX
  8
FOREGROUND
  6
CONTINUOUS
 10
3.962090
 20
1.062096
  0
VERTEX
  8
FOREGROUND
  6
CONTINUOUS
 10
3.956024
 20
1.081463
  0
VERTEX
  8
FOREGROUND
  6
CONTINUOUS
 10
3.949476
 20
1.100612
  0
VERTEX
  8
FOREGROUND
  6
CONTINUOUS
 10
3.942454
 20
1.119534
  0
VERTEX
  8
FOREGROUND
  6
CONTINUOUS
 10
3.934964
 20
1.138224
  0
VERTEX
  8
FOREGROUND
  6
CONTINUOUS
 10
3.927014
 20
1.156674
  0
VERTEX
  8
FOREGROUND
  6
CONTINUOUS
 10
3.918610
 20
1.174877
  0
VERTEX
  8
FOREGROUND
  6
CONTINUOUS
 10
3.909761
 20
1.192826
  0
VERTEX
  8
FOREGROUND
  6
CONTINUOUS
 10
3.900473
 20
1.210514
  0
VERTEX
  8
FOREGROUND
  6
CONTINUOUS
 10
3.890753
 20
1.227933
  0
VERTEX
  8
FOREGROUND
  6
CONTINUOUS
 10
3.880608
 20
1.245077
  0
VERTEX
  8
FOREGROUND
  6
CONTINUOUS
 10
3.870046
 20
1.261938
  0
VERTEX
  8
FOREGROUND
  6
CONTINUOUS
 10
3.859073
 20
1.278510
  0
VERTEX
  8
FOREGROUND
  6
CONTINUOUS
 10
3.847696
 20
1.294785
  0
VERTEX
  8
FOREGROUND
  6
CONTINUOUS
 10
3.835924
 20
1.310756
  0
VERTEX
  8
FOREGROUND
  6
CONTINUOUS
 10
3.823762
 20
1.326415
  0
VERTEX
  8
FOREGROUND
  6
CONTINUOUS
 10
3.811218
 20
1.341757
  0
VERTEX
  8
FOREGROUND
  6
CONTINUOUS
 10
3.798300
 20
1.356774
  0
VERTEX
  8
FOREGROUND
  6
CONTINUOUS
 10
3.785013
 20
1.371458
  0
VERTEX
  8
FOREGROUND
  6
CONTINUOUS
 10
3.771366
 20
1.385803
  0
VERTEX
  8
FOREGROUND
  6
CONTINUOUS
 10
3.757365
 20
1.399801
  0
VERTEX
  8
FOREGROUND
  6
CONTINUOUS
 10
3.743018
 20
1.413446
  0
VERTEX
  8
FOREGROUND
  6
CONTINUOUS
 10
3.728331
 20
1.426729
  0
VERTEX
  8
FOREGROUND
  6
CONTINUOUS
 10
3.713312
 20
1.439645
  0
VERTEX
  8
FOREGROUND
  6
CONTINUOUS
 10
3.697968
 20
1.452186
  0
VERTEX
  8
FOREGROUND
  6
CONTINUOUS
 10
3.682306
 20
1.464345
  0
VERTEX
  8
FOREGROUND
  6
CONTINUOUS
 10
3.666333
 20
1.476115
  0
VERTEX
  8
FOREGROUND
  6
CONTINUOUS
 10
3.650056
 20
1.487488
  0
VERTEX
  8
FOREGROUND
  6
CONTINUOUS
 10
3.633482
 20
1.498458
  0
VERTEX
  8
FOREGROUND
  6
CONTINUOUS
 10
3.616619
 20
1.509017
  0
VERTEX
  8
FOREGROUND
  6
CONTINUOUS
 10
3.599473
 20
1.519159
  0
VERTEX
  8
FOREGROUND
  6
CONTINUOUS
 10
3.582052
 20
1.528875
  0
VERTEX
  8
FOREGROUND
  6
CONTINUOUS
 10
3.564363
 20
1.538160
  0
VERTEX
  8
FOREGROUND
  6
CONTINUOUS
 10
3.546412
 20
1.547006
  0
VERTEX
  8
FOREGROUND
  6
CONTINUOUS
 10
3.528208
 20
1.555406
  0
VERTEX
  8
FOREGROUND
  6
CONTINUOUS
 10
3.509756
 20
1.563353
  0
VERTEX
  8
FOREGROUND
  6
CONTINUOUS
 10
3.491065
 20
1.570839
  0
VERTEX
  8
FOREGROUND
  6
CONTINUOUS
 10
3.472141
 20
1.577858
  0
VERTEX
  8
FOREGROUND
  6
CONTINUOUS
 10
3.452991
 20
1.584403
  0
VERTEX
  8
FOREGROUND
  6
CONTINUOUS
 10
3.433623
 20
1.590465
  0
VERTEX
  8
FOREGROUND
  6
CONTINUOUS
 10
3.414044
 20
1.596039
  0
VERTEX
  8
FOREGROUND
  6
CONTINUOUS
 10
3.394260
 20
1.601117
  0
VERTEX
  8
FOREGROUND
  6
CONTINUOUS
 10
3.374279
 20
1.605693
  0
VERTEX
  8
FOREGROUND
  6
CONTINUOUS
 10
3.354108
 20
1.609758
  0
VERTEX
  8
FOREGROUND
  6
CONTINUOUS
 10
3.333754
 20
1.613306
  0
VERTEX
  8
FOREGROUND
  6
CONTINUOUS
 10
3.313224
 20
1.616329
  0
VERTEX
  8
FOREGROUND
  6
CONTINUOUS
 10
3.292526
 20
1.618821
  0
VERTEX
  8
FOREGROUND
  6
CONTINUOUS
 10
3.271666
 20
1.620775
  0
VERTEX
  8
FOREGROUND
  6
CONTINUOUS
 10
3.250652
 20
1.622183
  0
VERTEX
  8
FOREGROUND
  6
CONTINUOUS
 10
3.229490
 20
1.623038
  0
VERTEX
  8
FOREGROUND
  6
CONTINUOUS
 10
3.208188
 20
1.623333
  0
VERTEX
  8
FOREGROUND
  6
CONTINUOUS
 10
0.836521
 20
1.623333
  0
VERTEX
  8
FOREGROUND
  6
CONTINUOUS
 10
0.815224
 20
1.623030
  0
VERTEX
  8
FOREGROUND
  6
CONTINUOUS
 10
0.794068
 20
1.622168
  0
VERTEX
  8
FOREGROUND
  6
CONTINUOUS
 10
0.773060
 20
1.620753
  0
VERTEX
  8
FOREGROUND
  6
CONTINUOUS
 10
0.752206
 20
1.618792
  0
VERTEX
  8
FOREGROUND
  6
CONTINUOUS
 10
0.731513
 20
1.616294
  0
VERTEX
  8
FOREGROUND
  6
CONTINUOUS
 10
0.710990
 20
1.613264
  0
VERTEX
  8
FOREGROUND
  6
CONTINUOUS
 10
0.690642
 20
1.609710
  0
VERTEX
  8
FOREGROUND
  6
CONTINUOUS
 10
0.670477
 20
1.605640
  0
VERTEX
  8
FOREGROUND
  6
CONTINUOUS
 10
0.650502
 20
1.601059
  0
VERTEX
  8
FOREGROUND
  6
CONTINUOUS
 10
0.630725
 20
1.595976
  0
VERTEX
  8
FOREGROUND
  6
CONTINUOUS
 10
0.611152
 20
1.590398
  0
VERTEX
  8
FOREGROUND
  6
CONTINUOUS
 10
0.591790
 20
1.584331
  0
VERTEX
  8
FOREGROUND
  6
CONTINUOUS
 10
0.572647
 20
1.577782
  0
VERTEX
  8
FOREGROUND
  6
CONTINUOUS
 10
0.553729
 20
1.570760
  0
VERTEX
  8
FOREGROUND
  6
CONTINUOUS
 10
0.535044
 20
1.563270
  0
VERTEX
  8
FOREGROUND
  6
CONTINUOUS
 10
0.516599
 20
1.555320
  0
VERTEX
  8
FOREGROUND
  6
CONTINUOUS
 10
0.498401
 20
1.546917
  0
VERTEX
  8
FOREGROUND
  6
CONTINUOUS
 10
0.480457
 20
1.538069
  0
VERTEX
  8
FOREGROUND
  6
CONTINUOUS
 10
0.462774
 20
1.528781
  0
VERTEX
  8
FOREGROUND
  6
CONTINUOUS
 10
0.445359
 20
1.519062
  0
VERTEX
  8
FOREGROUND
  6
CONTINUOUS
 10
0.428220
 20
1.508919
  0
VERTEX
  8
FOREGROUND
  6
CONTINUOUS
 10
0.411363
 20
1.498358
  0
VERTEX
  8
FOREGROUND
  6
CONTINUOUS
 10
0.394796
 20
1.487387
  0
VERTEX
  8
FOREGROUND
  6
CONTINUOUS
 10
0.378525
 20
1.476013
  0
VERTEX
  8
FOREGROUND
  6
CONTINUOUS
 10
0.362558
 20
1.464242
  0
VERTEX
  8
FOREGROUND
  6
CONTINUOUS
 10
0.346902
 20
1.452083
  0
VERTEX
  8
FOREGROUND
  6
CONTINUOUS
 10
0.331564
 20
1.439542
  0
VERTEX
  8
FOREGROUND
  6
CONTINUOUS
 10
0.316551
 20
1.426626
  0
VERTEX
  8
FOREGROUND
  6
CONTINUOUS
 10
0.301870
 20
1.413342
  0
VERTEX
  8
FOREGROUND
  6
CONTINUOUS
 10
0.287529
 20
1.399698
  0
VERTEX
  8
FOREGROUND
  6
CONTINUOUS
 10
0.273534
 20
1.385700
  0
VERTEX
  8
FOREGROUND
  6
CONTINUOUS
 10
0.259892
 20
1.371356
  0
VERTEX
  8
FOREGROUND
  6
CONTINUOUS
 10
0.246611
 20
1.356673
  0
VERTEX
  8
FOREGROUND
  6
CONTINUOUS
 10
0.233698
 20
1.341658
  0
VERTEX
  8
FOREGROUND
  6
CONTINUOUS
 10
0.221160
 20
1.326317
  0
VERTEX
  8
FOREGROUND
  6
CONTINUOUS
 10
0.209003
 20
1.310659
  0
VERTEX
  8
FOREGROUND
  6
CONTINUOUS
 10
0.197236
 20
1.294690
  0
VERTEX
  8
FOREGROUND
  6
CONTINUOUS
 10
0.185864
 20
1.278417
  0
VERTEX
  8
FOREGROUND
  6
CONTINUOUS
 10
0.174896
 20
1.261848
  0
VERTEX
  8
FOREGROUND
  6
CONTINUOUS
 10
0.164339
 20
1.244989
  0
VERTEX
  8
FOREGROUND
  6
CONTINUOUS
 10
0.154198
 20
1.227848
  0
VERTEX
  8
FOREGROUND
  6
CONTINUOUS
 10
0.144483
 20
1.210431
  0
VERTEX
  8
FOREGROUND
  6
CONTINUOUS
 10
0.135199
 20
1.192746
  0
VERTEX
  8
FOREGROUND
  6
CONTINUOUS
 10
0.126353
 20
1.174801
  0
VERTEX
  8
FOREGROUND
  6
CONTINUOUS
 10
0.117954
 20
1.156601
  0
VERTEX
  8
FOREGROUND
  6
CONTINUOUS
 10
0.110008
 20
1.138154
  0
VERTEX
  8
FOREGROUND
  6
CONTINUOUS
 10
0.102521
 20
1.119468
  0
VERTEX
  8
FOREGROUND
  6
CONTINUOUS
 10
0.095502
 20
1.100549
  0
VERTEX
  8
FOREGROUND
  6
CONTINUOUS
 10
0.088957
 20
1.081405
  0
VERTEX
  8
FOREGROUND
  6
CONTINUOUS
 10
0.082894
 20
1.062042
  0
VERTEX
  8
FOREGROUND
  6
CONTINUOUS
 10
0.077319
 20
1.042468
  0
VERTEX
  8
FOREGROUND
  6
CONTINUOUS
 10
0.072239
 20
1.022689
  0
VERTEX
  8
FOREGROUND
  6
CONTINUOUS
 10
0.067663
 20
1.002714
  0
VERTEX
  8
FOREGROUND
  6
CONTINUOUS
 10
0.063596
 20
0.982548
  0
VERTEX
  8
FOREGROUND
  6
CONTINUOUS
 10
0.060046
 20
0.962200
  0
VERTEX
  8
FOREGROUND
  6
CONTINUOUS
 10
0.057020
 20
0.941676
  0
VERTEX
  8
FOREGROUND
  6
CONTINUOUS
 10
0.054526
 20
0.920983
  0
VERTEX
  8
FOREGROUND
  6
CONTINUOUS
 10
0.052569
 20
0.900128
  0
VERTEX
  8
FOREGROUND
  6
CONTINUOUS
 10
0.051158
 20
0.879119
  0
VERTEX
  8
FOREGROUND
  6
CONTINUOUS
 10
0.050299
 20
0.857963
  0
VERTEX
  8
FOREGROUND
  6
CONTINUOUS
 10
0.050000
 20
0.836667
  0
VERTEX
  8
FOREGROUND
  6
CONTINUOUS
 10
0.050000
 20
0.836667
  0
VERTEX
  8
FOREGROUND
  6
CONTINUOUS
 10
0.050299
 20
0.815367
  0
VERTEX
  8
FOREGROUND
  6
CONTINUOUS
 10
0.051158
 20
0.794208
  0
VERTEX
  8
FOREGROUND
  6
CONTINUOUS
 10
0.052570
 20
0.773197
  0
VERTEX
  8
FOREGROUND
  6
CONTINUOUS
 10
0.054527
 20
0.752340
  0
VERTEX
  8
FOREGROUND
  6
CONTINUOUS
 10
0.057022
 20
0.731644
  0
VERTEX
  8
FOREGROUND
  6
CONTINUOUS
 10
0.060049
 20
0.711118
  0
VERTEX
  8
FOREGROUND
  6
CONTINUOUS
 10
0.063599
 20
0.690767
  0
VERTEX
  8
FOREGROUND
  6
CONTINUOUS
 10
0.067667
 20
0.670599
  0
VERTEX
  8
FOREGROUND
  6
CONTINUOUS
 10
0.072245
 20
0.650621
  0
VERTEX
  8
FOREGROUND
  6
CONTINUOUS
 10
0.077325
 20
0.630841
  0
VERTEX
  8
FOREGROUND
  6
CONTINUOUS
 10
0.082902
 20
0.611264
  0
VERTEX
  8
FOREGROUND
  6
CONTINUOUS
 10
0.088967
 20
0.591899
  0
VERTEX
  8
FOREGROUND
  6
CONTINUOUS
 10
0.095513
 20
0.572753
  0
VERTEX
  8
FOREGROUND
  6
CONTINUOUS
 10
0.102534
 20
0.553832
  0
VERTEX
  8
FOREGROUND
  6
CONTINUOUS
 10
0.110022
 20
0.535144
  0
VERTEX
  8
FOREGROUND
  6
CONTINUOUS
 10
0.117970
 20
0.516696
  0
VERTEX
  8
FOREGROUND
  6
CONTINUOUS
 10
0.126372
 20
0.498494
  0
VERTEX
  8
FOREGROUND
  6
CONTINUOUS
 10
0.135219
 20
0.480547
  0
VERTEX
  8
FOREGROUND
  6
CONTINUOUS
 10
0.144505
 20
0.462861
  0
VERTEX
  8
FOREGROUND
  6
CONTINUOUS
 10
0.154223
 20
0.445443
  0
VERTEX
  8
FOREGROUND
  6
CONTINUOUS
 10
0.164365
 20
0.428300
  0
VERTEX
  8
FOREGROUND
  6
CONTINUOUS
 10
0.174925
 20
0.411440
  0
VERTEX
  8
FOREGROUND
  6
CONTINUOUS
 10
0.185896
 20
0.394870
  0
VERTEX
  8
FOREGROUND
  6
CONTINUOUS
 10
0.197270
 20
0.378596
  0
VERTEX
  8
FOREGROUND
  6
CONTINUOUS
 10
0.209040
 20
0.362626
  0
VERTEX
  8
FOREGROUND
  6
CONTINUOUS
 10
0.221199
 20
0.346967
  0
VERTEX
  8
FOREGROUND
  6
CONTINUOUS
 10
0.233740
 20
0.331626
  0
VERTEX
  8
FOREGROUND
  6
CONTINUOUS
 10
0.246656
 20
0.316610
  0
VERTEX
  8
FOREGROUND
  6
CONTINUOUS
 10
0.259940
 20
0.301926
  0
VERTEX
  8
FOREGROUND
  6
CONTINUOUS
 10
0.273584
 20
0.287582
  0
VERTEX
  8
FOREGROUND
  6
CONTINUOUS
 10
0.287582
 20
0.273584
  0
VERTEX
  8
FOREGROUND
  6
CONTINUOUS
 10
0.301926
 20
0.259940
  0
VERTEX
  8
FOREGROUND
  6
CONTINUOUS
 10
0.316610
 20
0.246656
  0
VERTEX
  8
FOREGROUND
  6
CONTINUOUS
 10
0.331626
 20
0.233740
  0
VERTEX
  8
FOREGROUND
  6
CONTINUOUS
 10
0.346967
 20
0.221199
  0
VERTEX
  8
FOREGROUND
  6
CONTINUOUS
 10
0.362626
 20
0.209040
  0
VERTEX
  8
FOREGROUND
  6
CONTINUOUS
 10
0.378596
 20
0.197270
  0
VERTEX
  8
FOREGROUND
  6
CONTINUOUS
 10
0.394870
 20
0.185896
  0
VERTEX
  8
FOREGROUND
  6
CONTINUOUS
 10
0.411440
 20
0.174925
  0
VERTEX
  8
FOREGROUND
  6
CONTINUOUS
 10
0.428300
 20
0.164365
  0
VERTEX
  8
FOREGROUND
  6
CONTINUOUS
 10
0.445443
 20
0.154223
  0
VERTEX
  8
FOREGROUND
  6
CONTINUOUS
 10
0.462861
 20
0.144505
  0
VERTEX
  8
FOREGROUND
  6
CONTINUOUS
 10
0.480547
 20
0.135219
  0
VERTEX
  8
FOREGROUND
  6
CONTINUOUS
 10
0.498494
 20
0.126372
  0
VERTEX
  8
FOREGROUND
  6
CONTINUOUS
 10
0.516696
 20
0.117970
  0
VERTEX
  8
FOREGROUND
  6
CONTINUOUS
 10
0.535144
 20
0.110022
  0
VERTEX
  8
FOREGROUND
  6
CONTINUOUS
 10
0.553832
 20
0.102534
  0
VERTEX
  8
FOREGROUND
  6
CONTINUOUS
 10
0.572753
 20
0.095513
  0
VERTEX
  8
FOREGROUND
  6
CONTINUOUS
 10
0.591899
 20
0.088967
  0
VERTEX
  8
FOREGROUND
  6
CONTINUOUS
 10
0.611264
 20
0.082902
  0
VERTEX
  8
FOREGROUND
  6
CONTINUOUS
 10
0.630841
 20
0.077325
  0
VERTEX
  8
FOREGROUND
  6
CONTINUOUS
 10
0.650621
 20
0.072245
  0
VERTEX
  8
FOREGROUND
  6
CONTINUOUS
 10
0.670599
 20
0.067667
  0
VERTEX
  8
FOREGROUND
  6
CONTINUOUS
 10
0.690767
 20
0.063599
  0
VERTEX
  8
FOREGROUND
  6
CONTINUOUS
 10
0.711118
 20
0.060049
  0
VERTEX
  8
FOREGROUND
  6
CONTINUOUS
 10
0.731644
 20
0.057022
  0
VERTEX
  8
FOREGROUND
  6
CONTINUOUS
 10
0.752340
 20
0.054527
  0
VERTEX
  8
FOREGROUND
  6
CONTINUOUS
 10
0.773197
 20
0.052570
  0
VERTEX
  8
FOREGROUND
  6
CONTINUOUS
 10
0.794208
 20
0.051158
  0
VERTEX
  8
FOREGROUND
  6
CONTINUOUS
 10
0.815367
 20
0.050299
  0
VERTEX
  8
FOREGROUND
  6
CONTINUOUS
 10
0.836667
 20
0.050000
  0
SEQEND
  8
0
  0
ENDSEC
  0
EOF
