  0
SECTION
  2
HEADER
  9
$ACADVER
  1
AC1006
  9
$EXTMIN
 10
0.000000
 20
0.000000
  9
$EXTMAX
 10
4.045000
 20
2.066667
  9
$LTSCALE
 40
0.166667
  9
$PDMODE
 70
    35
  9
$PDSIZE
 40
0.133333
  0
ENDSEC
  0
SECTION
  2
TABLES
  0
TABLE
  2
LTYPE
 70
     9
  0
LTYPE
  2
CONTINUOUS
 70
    64
  3
Solid line
 72
    65
 73
     0
 40
0.000000
  0
LTYPE
  2
DASHED
 70
    64
  3
__ __ __ __ __ __ __ __ __ __ __ __ __ __ __
 72
    65
 73
     2
 40
0.001250
 49
0.000833
 49
-0.000417
  0
LTYPE
  2
HIDDEN
 70
    64
  3
 _ _ _ _ _ _ _ _ _ _ _ _ _ _ _ _ _ _ _ _ _ _
 72
    65
 73
     2
 40
0.000625
 49
0.000417
 49
-0.000208
  0
LTYPE
  2
CENTER
 70
    64
  3
____ _ ____ _ ____ _ ____ _ ____ _ ____ _ ____
 72
    65
 73
     4
 40
0.003333
 49
0.002083
 49
-0.000417
 49
0.000417
 49
-0.000417
  0
LTYPE
  2
PHANTOM
 70
    64
  3
_____ _ _ _____ _ _ _____ _ _ _____ _ _ ____
 72
    65
 73
     6
 40
0.004167
 49
0.002083
 49
-0.000417
 49
0.000417
 49
-0.000417
 49
0.000417
 49
-0.000417
  0
LTYPE
  2
DOT
 70
    64
  3
...............................................
 72
    65
 73
     2
 40
0.000417
 49
0.000000
 49
-0.000417
  0
LTYPE
  2
DASHDOT
 70
    64
  3
__ . __ . __ . __ . __ . __ . __ . __ . __ . __
 72
    65
 73
     4
 40
0.001667
 49
0.000833
 49
-0.000417
 49
0.000000
 49
-0.000417
  0
LTYPE
  2
BORDER
 70
    64
  3
__ __ . __ __ . __ __ . __ __ . __ __ . __ __
 72
    65
 73
     6
 40
0.002917
 49
0.000833
 49
-0.000417
 49
0.000833
 49
-0.000417
 49
0.000000
 49
-0.000417
  0
LTYPE
  2
DIVIDE
 70
    64
  3
__ . . __ . . __ . . __ . . __ . . __ . . __
 72
    65
 73
     6
 40
0.002083
 49
0.000833
 49
-0.000417
 49
0.000000
 49
-0.000417
 49
0.000000
 49
-0.000417
  0
LTYPE
  2
DOTDOT
 70
    64
  3
 . .  . .  . .  . .  . .  . . 
 72
    65
 73
     5
 40
0.000917
 49
-0.000417
 49
0.000000
 49
-0.000417
 49
0.000000
 49
-0.000417
  0
ENDTAB
  0
TABLE
  2
STYLE
 70
     2
  0
STYLE
 70
     0
  2
SN0
 40
0.000000
 41
0.001667
 50
0.000000
 71
     0
 42
0.000000
  3
ROMAND
  0
STYLE
 70
    68
  2
SV0
 40
0.000000
 41
0.001667
 50
0.000000
 71
     0
 42
0.000000
  3
ROMAND
  0
ENDTAB
  0
TABLE
  2
LAYER
 70
     2
  0
LAYER
  2
FOREGROUND
 70
    64
 62
     7
  6
CONTINUOUS
  0
LAYER
  2
BACKGROUND
 70
    65
 62
    -7
  6
CONTINUOUS
  0
ENDTAB
  0
ENDSEC
  0
SECTION
  2
ENTITIES
  0
POLYLINE
  8
FOREGROUND
  6
CONTINUOUS
 66
     1
 40
0.010000
 41
0.010000
 70
     1
  0
VERTEX
  8
FOREGROUND
  6
CONTINUOUS
 10
3.011667
 20
0.050000
  0
VERTEX
  8
FOREGROUND
  6
CONTINUOUS
 10
3.033626
 20
0.050257
  0
VERTEX
  8
FOREGROUND
  6
CONTINUOUS
 10
3.055467
 20
0.050991
  0
VERTEX
  8
FOREGROUND
  6
CONTINUOUS
 10
3.077185
 20
0.052197
  0
VERTEX
  8
FOREGROUND
  6
CONTINUOUS
 10
3.098775
 20
0.053869
  0
VERTEX
  8
FOREGROUND
  6
CONTINUOUS
 10
3.120232
 20
0.056002
  0
VERTEX
  8
FOREGROUND
  6
CONTINUOUS
 10
3.141551
 20
0.058592
  0
VERTEX
  8
FOREGROUND
  6
CONTINUOUS
 10
3.162727
 20
0.061633
  0
VERTEX
  8
FOREGROUND
  6
CONTINUOUS
 10
3.183755
 20
0.065121
  0
VERTEX
  8
FOREGROUND
  6
CONTINUOUS
 10
3.204631
 20
0.069051
  0
VERTEX
  8
FOREGROUND
  6
CONTINUOUS
 10
3.225348
 20
0.073418
  0
VERTEX
  8
FOREGROUND
  6
CONTINUOUS
 10
3.245902
 20
0.078216
  0
VERTEX
  8
FOREGROUND
  6
CONTINUOUS
 10
3.266288
 20
0.083440
  0
VERTEX
  8
FOREGROUND
  6
CONTINUOUS
 10
3.286502
 20
0.089087
  0
VERTEX
  8
FOREGROUND
  6
CONTINUOUS
 10
3.306537
 20
0.095150
  0
VERTEX
  8
FOREGROUND
  6
CONTINUOUS
 10
3.326390
 20
0.101625
  0
VERTEX
  8
FOREGROUND
  6
CONTINUOUS
 10
3.346055
 20
0.108506
  0
VERTEX
  8
FOREGROUND
  6
CONTINUOUS
 10
3.365527
 20
0.115790
  0
VERTEX
  8
FOREGROUND
  6
CONTINUOUS
 10
3.384802
 20
0.123470
  0
VERTEX
  8
FOREGROUND
  6
CONTINUOUS
 10
3.403874
 20
0.131542
  0
VERTEX
  8
FOREGROUND
  6
CONTINUOUS
 10
3.422738
 20
0.140001
  0
VERTEX
  8
FOREGROUND
  6
CONTINUOUS
 10
3.441389
 20
0.148842
  0
VERTEX
  8
FOREGROUND
  6
CONTINUOUS
 10
3.459823
 20
0.158060
  0
VERTEX
  8
FOREGROUND
  6
CONTINUOUS
 10
3.478034
 20
0.167650
  0
VERTEX
  8
FOREGROUND
  6
CONTINUOUS
 10
3.496018
 20
0.177607
  0
VERTEX
  8
FOREGROUND
  6
CONTINUOUS
 10
3.513768
 20
0.187926
  0
VERTEX
  8
FOREGROUND
  6
CONTINUOUS
 10
3.531282
 20
0.198601
  0
VERTEX
  8
FOREGROUND
  6
CONTINUOUS
 10
3.548553
 20
0.209629
  0
VERTEX
  8
FOREGROUND
  6
CONTINUOUS
 10
3.565576
 20
0.221004
  0
VERTEX
  8
FOREGROUND
  6
CONTINUOUS
 10
3.582347
 20
0.232721
  0
VERTEX
  8
FOREGROUND
  6
CONTINUOUS
 10
3.598860
 20
0.244775
  0
VERTEX
  8
FOREGROUND
  6
CONTINUOUS
 10
3.615111
 20
0.257161
  0
VERTEX
  8
FOREGROUND
  6
CONTINUOUS
 10
3.631094
 20
0.269874
  0
VERTEX
  8
FOREGROUND
  6
CONTINUOUS
 10
3.646805
 20
0.282910
  0
VERTEX
  8
FOREGROUND
  6
CONTINUOUS
 10
3.662239
 20
0.296263
  0
VERTEX
  8
FOREGROUND
  6
CONTINUOUS
 10
3.677390
 20
0.309927
  0
VERTEX
  8
FOREGROUND
  6
CONTINUOUS
 10
3.692254
 20
0.323900
  0
VERTEX
  8
FOREGROUND
  6
CONTINUOUS
 10
3.706826
 20
0.338174
  0
VERTEX
  8
FOREGROUND
  6
CONTINUOUS
 10
3.721100
 20
0.352746
  0
VERTEX
  8
FOREGROUND
  6
CONTINUOUS
 10
3.735073
 20
0.367610
  0
VERTEX
  8
FOREGROUND
  6
CONTINUOUS
 10
3.748737
 20
0.382761
  0
VERTEX
  8
FOREGROUND
  6
CONTINUOUS
 10
3.762090
 20
0.398195
  0
VERTEX
  8
FOREGROUND
  6
CONTINUOUS
 10
3.775126
 20
0.413906
  0
VERTEX
  8
FOREGROUND
  6
CONTINUOUS
 10
3.787839
 20
0.429889
  0
VERTEX
  8
FOREGROUND
  6
CONTINUOUS
 10
3.800225
 20
0.446140
  0
VERTEX
  8
FOREGROUND
  6
CONTINUOUS
 10
3.812279
 20
0.462653
  0
VERTEX
  8
FOREGROUND
  6
CONTINUOUS
 10
3.823996
 20
0.479424
  0
VERTEX
  8
FOREGROUND
  6
CONTINUOUS
 10
3.835371
 20
0.496447
  0
VERTEX
  8
FOREGROUND
  6
CONTINUOUS
 10
3.846399
 20
0.513718
  0
VERTEX
  8
FOREGROUND
  6
CONTINUOUS
 10
3.857074
 20
0.531232
  0
VERTEX
  8
FOREGROUND
  6
CONTINUOUS
 10
3.867393
 20
0.548982
  0
VERTEX
  8
FOREGROUND
  6
CONTINUOUS
 10
3.877350
 20
0.566966
  0
VERTEX
  8
FOREGROUND
  6
CONTINUOUS
 10
3.886940
 20
0.585177
  0
VERTEX
  8
FOREGROUND
  6
CONTINUOUS
 10
3.896158
 20
0.603611
  0
VERTEX
  8
FOREGROUND
  6
CONTINUOUS
 10
3.904999
 20
0.622262
  0
VERTEX
  8
FOREGROUND
  6
CONTINUOUS
 10
3.913458
 20
0.641126
  0
VERTEX
  8
FOREGROUND
  6
CONTINUOUS
 10
3.921530
 20
0.660198
  0
VERTEX
  8
FOREGROUND
  6
CONTINUOUS
 10
3.929210
 20
0.679473
  0
VERTEX
  8
FOREGROUND
  6
CONTINUOUS
 10
3.936494
 20
0.698945
  0
VERTEX
  8
FOREGROUND
  6
CONTINUOUS
 10
3.943375
 20
0.718610
  0
VERTEX
  8
FOREGROUND
  6
CONTINUOUS
 10
3.949850
 20
0.738463
  0
VERTEX
  8
FOREGROUND
  6
CONTINUOUS
 10
3.955913
 20
0.758498
  0
VERTEX
  8
FOREGROUND
  6
CONTINUOUS
 10
3.961560
 20
0.778712
  0
VERTEX
  8
FOREGROUND
  6
CONTINUOUS
 10
3.966784
 20
0.799098
  0
VERTEX
  8
FOREGROUND
  6
CONTINUOUS
 10
3.971582
 20
0.819652
  0
VERTEX
  8
FOREGROUND
  6
CONTINUOUS
 10
3.975949
 20
0.840369
  0
VERTEX
  8
FOREGROUND
  6
CONTINUOUS
 10
3.979879
 20
0.861245
  0
VERTEX
  8
FOREGROUND
  6
CONTINUOUS
 10
3.983367
 20
0.882273
  0
VERTEX
  8
FOREGROUND
  6
CONTINUOUS
 10
3.986408
 20
0.903449
  0
VERTEX
  8
FOREGROUND
  6
CONTINUOUS
 10
3.988998
 20
0.924768
  0
VERTEX
  8
FOREGROUND
  6
CONTINUOUS
 10
3.991131
 20
0.946225
  0
VERTEX
  8
FOREGROUND
  6
CONTINUOUS
 10
3.992803
 20
0.967815
  0
VERTEX
  8
FOREGROUND
  6
CONTINUOUS
 10
3.994009
 20
0.989533
  0
VERTEX
  8
FOREGROUND
  6
CONTINUOUS
 10
3.994743
 20
1.011374
  0
VERTEX
  8
FOREGROUND
  6
CONTINUOUS
 10
3.995000
 20
1.033333
  0
VERTEX
  8
FOREGROUND
  6
CONTINUOUS
 10
3.995000
 20
1.033333
  0
VERTEX
  8
FOREGROUND
  6
CONTINUOUS
 10
3.994743
 20
1.055296
  0
VERTEX
  8
FOREGROUND
  6
CONTINUOUS
 10
3.994008
 20
1.077140
  0
VERTEX
  8
FOREGROUND
  6
CONTINUOUS
 10
3.992803
 20
1.098861
  0
VERTEX
  8
FOREGROUND
  6
CONTINUOUS
 10
3.991131
 20
1.120453
  0
VERTEX
  8
FOREGROUND
  6
CONTINUOUS
 10
3.988997
 20
1.141913
  0
VERTEX
  8
FOREGROUND
  6
CONTINUOUS
 10
3.986406
 20
1.163235
  0
VERTEX
  8
FOREGROUND
  6
CONTINUOUS
 10
3.983364
 20
1.184413
  0
VERTEX
  8
FOREGROUND
  6
CONTINUOUS
 10
3.979875
 20
1.205444
  0
VERTEX
  8
FOREGROUND
  6
CONTINUOUS
 10
3.975944
 20
1.226321
  0
VERTEX
  8
FOREGROUND
  6
CONTINUOUS
 10
3.971577
 20
1.247041
  0
VERTEX
  8
FOREGROUND
  6
CONTINUOUS
 10
3.966778
 20
1.267597
  0
VERTEX
  8
FOREGROUND
  6
CONTINUOUS
 10
3.961552
 20
1.287986
  0
VERTEX
  8
FOREGROUND
  6
CONTINUOUS
 10
3.955904
 20
1.308202
  0
VERTEX
  8
FOREGROUND
  6
CONTINUOUS
 10
3.949839
 20
1.328239
  0
VERTEX
  8
FOREGROUND
  6
CONTINUOUS
 10
3.943363
 20
1.348094
  0
VERTEX
  8
FOREGROUND
  6
CONTINUOUS
 10
3.936479
 20
1.367761
  0
VERTEX
  8
FOREGROUND
  6
CONTINUOUS
 10
3.929194
 20
1.387235
  0
VERTEX
  8
FOREGROUND
  6
CONTINUOUS
 10
3.921512
 20
1.406512
  0
VERTEX
  8
FOREGROUND
  6
CONTINUOUS
 10
3.913438
 20
1.425585
  0
VERTEX
  8
FOREGROUND
  6
CONTINUOUS
 10
3.904977
 20
1.444451
  0
VERTEX
  8
FOREGROUND
  6
CONTINUOUS
 10
3.896134
 20
1.463104
  0
VERTEX
  8
FOREGROUND
  6
CONTINUOUS
 10
3.886914
 20
1.481540
  0
VERTEX
  8
FOREGROUND
  6
CONTINUOUS
 10
3.877322
 20
1.499752
  0
VERTEX
  8
FOREGROUND
  6
CONTINUOUS
 10
3.867363
 20
1.517737
  0
VERTEX
  8
FOREGROUND
  6
CONTINUOUS
 10
3.857042
 20
1.535490
  0
VERTEX
  8
FOREGROUND
  6
CONTINUOUS
 10
3.846364
 20
1.553004
  0
VERTEX
  8
FOREGROUND
  6
CONTINUOUS
 10
3.835334
 20
1.570276
  0
VERTEX
  8
FOREGROUND
  6
CONTINUOUS
 10
3.823957
 20
1.587301
  0
VERTEX
  8
FOREGROUND
  6
CONTINUOUS
 10
3.812237
 20
1.604073
  0
VERTEX
  8
FOREGROUND
  6
CONTINUOUS
 10
3.800180
 20
1.620587
  0
VERTEX
  8
FOREGROUND
  6
CONTINUOUS
 10
3.787792
 20
1.636839
  0
VERTEX
  8
FOREGROUND
  6
CONTINUOUS
 10
3.775076
 20
1.652823
  0
VERTEX
  8
FOREGROUND
  6
CONTINUOUS
 10
3.762037
 20
1.668535
  0
VERTEX
  8
FOREGROUND
  6
CONTINUOUS
 10
3.748682
 20
1.683969
  0
VERTEX
  8
FOREGROUND
  6
CONTINUOUS
 10
3.735014
 20
1.699121
  0
VERTEX
  8
FOREGROUND
  6
CONTINUOUS
 10
3.721039
 20
1.713985
  0
VERTEX
  8
FOREGROUND
  6
CONTINUOUS
 10
3.706762
 20
1.728557
  0
VERTEX
  8
FOREGROUND
  6
CONTINUOUS
 10
3.692187
 20
1.742832
  0
VERTEX
  8
FOREGROUND
  6
CONTINUOUS
 10
3.677320
 20
1.756804
  0
VERTEX
  8
FOREGROUND
  6
CONTINUOUS
 10
3.662166
 20
1.770469
  0
VERTEX
  8
FOREGROUND
  6
CONTINUOUS
 10
3.646729
 20
1.783822
  0
VERTEX
  8
FOREGROUND
  6
CONTINUOUS
 10
3.631015
 20
1.796857
  0
VERTEX
  8
FOREGROUND
  6
CONTINUOUS
 10
3.615028
 20
1.809570
  0
VERTEX
  8
FOREGROUND
  6
CONTINUOUS
 10
3.598774
 20
1.821956
  0
VERTEX
  8
FOREGROUND
  6
CONTINUOUS
 10
3.582257
 20
1.834009
  0
VERTEX
  8
FOREGROUND
  6
CONTINUOUS
 10
3.565483
 20
1.845726
  0
VERTEX
  8
FOREGROUND
  6
CONTINUOUS
 10
3.548457
 20
1.857100
  0
VERTEX
  8
FOREGROUND
  6
CONTINUOUS
 10
3.531183
 20
1.868127
  0
VERTEX
  8
FOREGROUND
  6
CONTINUOUS
 10
3.513666
 20
1.878802
  0
VERTEX
  8
FOREGROUND
  6
CONTINUOUS
 10
3.495912
 20
1.889120
  0
VERTEX
  8
FOREGROUND
  6
CONTINUOUS
 10
3.477925
 20
1.899075
  0
VERTEX
  8
FOREGROUND
  6
CONTINUOUS
 10
3.459711
 20
1.908664
  0
VERTEX
  8
FOREGROUND
  6
CONTINUOUS
 10
3.441274
 20
1.917880
  0
VERTEX
  8
FOREGROUND
  6
CONTINUOUS
 10
3.422619
 20
1.926720
  0
VERTEX
  8
FOREGROUND
  6
CONTINUOUS
 10
3.403752
 20
1.935177
  0
VERTEX
  8
FOREGROUND
  6
CONTINUOUS
 10
3.384677
 20
1.943248
  0
VERTEX
  8
FOREGROUND
  6
CONTINUOUS
 10
3.365399
 20
1.950927
  0
VERTEX
  8
FOREGROUND
  6
CONTINUOUS
 10
3.345923
 20
1.958208
  0
VERTEX
  8
FOREGROUND
  6
CONTINUOUS
 10
3.326255
 20
1.965088
  0
VERTEX
  8
FOREGROUND
  6
CONTINUOUS
 10
3.306399
 20
1.971561
  0
VERTEX
  8
FOREGROUND
  6
CONTINUOUS
 10
3.286360
 20
1.977621
  0
VERTEX
  8
FOREGROUND
  6
CONTINUOUS
 10
3.266143
 20
1.983265
  0
VERTEX
  8
FOREGROUND
  6
CONTINUOUS
 10
3.245754
 20
1.988488
  0
VERTEX
  8
FOREGROUND
  6
CONTINUOUS
 10
3.225196
 20
1.993283
  0
VERTEX
  8
FOREGROUND
  6
CONTINUOUS
 10
3.204476
 20
1.997647
  0
VERTEX
  8
FOREGROUND
  6
CONTINUOUS
 10
3.183598
 20
2.001573
  0
VERTEX
  8
FOREGROUND
  6
CONTINUOUS
 10
3.162566
 20
2.005058
  0
VERTEX
  8
FOREGROUND
  6
CONTINUOUS
 10
3.141387
 20
2.008097
  0
VERTEX
  8
FOREGROUND
  6
CONTINUOUS
 10
3.120065
 20
2.010683
  0
VERTEX
  8
FOREGROUND
  6
CONTINUOUS
 10
3.098605
 20
2.012813
  0
VERTEX
  8
FOREGROUND
  6
CONTINUOUS
 10
3.077012
 20
2.014482
  0
VERTEX
  8
FOREGROUND
  6
CONTINUOUS
 10
3.055291
 20
2.015683
  0
VERTEX
  8
FOREGROUND
  6
CONTINUOUS
 10
3.033447
 20
2.016413
  0
VERTEX
  8
FOREGROUND
  6
CONTINUOUS
 10
3.011484
 20
2.016667
  0
VERTEX
  8
FOREGROUND
  6
CONTINUOUS
 10
1.033151
 20
2.016667
  0
VERTEX
  8
FOREGROUND
  6
CONTINUOUS
 10
1.011195
 20
2.016405
  0
VERTEX
  8
FOREGROUND
  6
CONTINUOUS
 10
0.989356
 20
2.015667
  0
VERTEX
  8
FOREGROUND
  6
CONTINUOUS
 10
0.967641
 20
2.014458
  0
VERTEX
  8
FOREGROUND
  6
CONTINUOUS
 10
0.946054
 20
2.012783
  0
VERTEX
  8
FOREGROUND
  6
CONTINUOUS
 10
0.924600
 20
2.010646
  0
VERTEX
  8
FOREGROUND
  6
CONTINUOUS
 10
0.903284
 20
2.008053
  0
VERTEX
  8
FOREGROUND
  6
CONTINUOUS
 10
0.882111
 20
2.005008
  0
VERTEX
  8
FOREGROUND
  6
CONTINUOUS
 10
0.861087
 20
2.001517
  0
VERTEX
  8
FOREGROUND
  6
CONTINUOUS
 10
0.840215
 20
1.997584
  0
VERTEX
  8
FOREGROUND
  6
CONTINUOUS
 10
0.819501
 20
1.993215
  0
VERTEX
  8
FOREGROUND
  6
CONTINUOUS
 10
0.798950
 20
1.988415
  0
VERTEX
  8
FOREGROUND
  6
CONTINUOUS
 10
0.778567
 20
1.983187
  0
VERTEX
  8
FOREGROUND
  6
CONTINUOUS
 10
0.758356
 20
1.977539
  0
VERTEX
  8
FOREGROUND
  6
CONTINUOUS
 10
0.738324
 20
1.971473
  0
VERTEX
  8
FOREGROUND
  6
CONTINUOUS
 10
0.718475
 20
1.964996
  0
VERTEX
  8
FOREGROUND
  6
CONTINUOUS
 10
0.698813
 20
1.958112
  0
VERTEX
  8
FOREGROUND
  6
CONTINUOUS
 10
0.679344
 20
1.950827
  0
VERTEX
  8
FOREGROUND
  6
CONTINUOUS
 10
0.660073
 20
1.943145
  0
VERTEX
  8
FOREGROUND
  6
CONTINUOUS
 10
0.641004
 20
1.935071
  0
VERTEX
  8
FOREGROUND
  6
CONTINUOUS
 10
0.622143
 20
1.926610
  0
VERTEX
  8
FOREGROUND
  6
CONTINUOUS
 10
0.603495
 20
1.917768
  0
VERTEX
  8
FOREGROUND
  6
CONTINUOUS
 10
0.585065
 20
1.908549
  0
VERTEX
  8
FOREGROUND
  6
CONTINUOUS
 10
0.566857
 20
1.898958
  0
VERTEX
  8
FOREGROUND
  6
CONTINUOUS
 10
0.548877
 20
1.889000
  0
VERTEX
  8
FOREGROUND
  6
CONTINUOUS
 10
0.531129
 20
1.878680
  0
VERTEX
  8
FOREGROUND
  6
CONTINUOUS
 10
0.513619
 20
1.868004
  0
VERTEX
  8
FOREGROUND
  6
CONTINUOUS
 10
0.496352
 20
1.856975
  0
VERTEX
  8
FOREGROUND
  6
CONTINUOUS
 10
0.479332
 20
1.845600
  0
VERTEX
  8
FOREGROUND
  6
CONTINUOUS
 10
0.462564
 20
1.833882
  0
VERTEX
  8
FOREGROUND
  6
CONTINUOUS
 10
0.446054
 20
1.821828
  0
VERTEX
  8
FOREGROUND
  6
CONTINUOUS
 10
0.429806
 20
1.809441
  0
VERTEX
  8
FOREGROUND
  6
CONTINUOUS
 10
0.413826
 20
1.796728
  0
VERTEX
  8
FOREGROUND
  6
CONTINUOUS
 10
0.398118
 20
1.783692
  0
VERTEX
  8
FOREGROUND
  6
CONTINUOUS
 10
0.382687
 20
1.770339
  0
VERTEX
  8
FOREGROUND
  6
CONTINUOUS
 10
0.367539
 20
1.756674
  0
VERTEX
  8
FOREGROUND
  6
CONTINUOUS
 10
0.352678
 20
1.742702
  0
VERTEX
  8
FOREGROUND
  6
CONTINUOUS
 10
0.338109
 20
1.728428
  0
VERTEX
  8
FOREGROUND
  6
CONTINUOUS
 10
0.323838
 20
1.713857
  0
VERTEX
  8
FOREGROUND
  6
CONTINUOUS
 10
0.309869
 20
1.698993
  0
VERTEX
  8
FOREGROUND
  6
CONTINUOUS
 10
0.296207
 20
1.683843
  0
VERTEX
  8
FOREGROUND
  6
CONTINUOUS
 10
0.282857
 20
1.668410
  0
VERTEX
  8
FOREGROUND
  6
CONTINUOUS
 10
0.269824
 20
1.652699
  0
VERTEX
  8
FOREGROUND
  6
CONTINUOUS
 10
0.257114
 20
1.636717
  0
VERTEX
  8
FOREGROUND
  6
CONTINUOUS
 10
0.244730
 20
1.620467
  0
VERTEX
  8
FOREGROUND
  6
CONTINUOUS
 10
0.232679
 20
1.603954
  0
VERTEX
  8
FOREGROUND
  6
CONTINUOUS
 10
0.220964
 20
1.587185
  0
VERTEX
  8
FOREGROUND
  6
CONTINUOUS
 10
0.209592
 20
1.570162
  0
VERTEX
  8
FOREGROUND
  6
CONTINUOUS
 10
0.198567
 20
1.552893
  0
VERTEX
  8
FOREGROUND
  6
CONTINUOUS
 10
0.187893
 20
1.535381
  0
VERTEX
  8
FOREGROUND
  6
CONTINUOUS
 10
0.177577
 20
1.517631
  0
VERTEX
  8
FOREGROUND
  6
CONTINUOUS
 10
0.167622
 20
1.499649
  0
VERTEX
  8
FOREGROUND
  6
CONTINUOUS
 10
0.158035
 20
1.481440
  0
VERTEX
  8
FOREGROUND
  6
CONTINUOUS
 10
0.148819
 20
1.463007
  0
VERTEX
  8
FOREGROUND
  6
CONTINUOUS
 10
0.139980
 20
1.444358
  0
VERTEX
  8
FOREGROUND
  6
CONTINUOUS
 10
0.131523
 20
1.425495
  0
VERTEX
  8
FOREGROUND
  6
CONTINUOUS
 10
0.123453
 20
1.406425
  0
VERTEX
  8
FOREGROUND
  6
CONTINUOUS
 10
0.115774
 20
1.387153
  0
VERTEX
  8
FOREGROUND
  6
CONTINUOUS
 10
0.108492
 20
1.367682
  0
VERTEX
  8
FOREGROUND
  6
CONTINUOUS
 10
0.101612
 20
1.348019
  0
VERTEX
  8
FOREGROUND
  6
CONTINUOUS
 10
0.095139
 20
1.328169
  0
VERTEX
  8
FOREGROUND
  6
CONTINUOUS
 10
0.089077
 20
1.308135
  0
VERTEX
  8
FOREGROUND
  6
CONTINUOUS
 10
0.083432
 20
1.287924
  0
VERTEX
  8
FOREGROUND
  6
CONTINUOUS
 10
0.078209
 20
1.267540
  0
VERTEX
  8
FOREGROUND
  6
CONTINUOUS
 10
0.073412
 20
1.246988
  0
VERTEX
  8
FOREGROUND
  6
CONTINUOUS
 10
0.069046
 20
1.226273
  0
VERTEX
  8
FOREGROUND
  6
CONTINUOUS
 10
0.065118
 20
1.205401
  0
VERTEX
  8
FOREGROUND
  6
CONTINUOUS
 10
0.061630
 20
1.184375
  0
VERTEX
  8
FOREGROUND
  6
CONTINUOUS
 10
0.058590
 20
1.163202
  0
VERTEX
  8
FOREGROUND
  6
CONTINUOUS
 10
0.056000
 20
1.141885
  0
VERTEX
  8
FOREGROUND
  6
CONTINUOUS
 10
0.053868
 20
1.120431
  0
VERTEX
  8
FOREGROUND
  6
CONTINUOUS
 10
0.052196
 20
1.098844
  0
VERTEX
  8
FOREGROUND
  6
CONTINUOUS
 10
0.050991
 20
1.077128
  0
VERTEX
  8
FOREGROUND
  6
CONTINUOUS
 10
0.050257
 20
1.055290
  0
VERTEX
  8
FOREGROUND
  6
CONTINUOUS
 10
0.050000
 20
1.033333
  0
VERTEX
  8
FOREGROUND
  6
CONTINUOUS
 10
0.050000
 20
1.033333
  0
VERTEX
  8
FOREGROUND
  6
CONTINUOUS
 10
0.050257
 20
1.011374
  0
VERTEX
  8
FOREGROUND
  6
CONTINUOUS
 10
0.050991
 20
0.989533
  0
VERTEX
  8
FOREGROUND
  6
CONTINUOUS
 10
0.052197
 20
0.967815
  0
VERTEX
  8
FOREGROUND
  6
CONTINUOUS
 10
0.053869
 20
0.946225
  0
VERTEX
  8
FOREGROUND
  6
CONTINUOUS
 10
0.056002
 20
0.924768
  0
VERTEX
  8
FOREGROUND
  6
CONTINUOUS
 10
0.058592
 20
0.903449
  0
VERTEX
  8
FOREGROUND
  6
CONTINUOUS
 10
0.061633
 20
0.882273
  0
VERTEX
  8
FOREGROUND
  6
CONTINUOUS
 10
0.065121
 20
0.861245
  0
VERTEX
  8
FOREGROUND
  6
CONTINUOUS
 10
0.069051
 20
0.840369
  0
VERTEX
  8
FOREGROUND
  6
CONTINUOUS
 10
0.073418
 20
0.819652
  0
VERTEX
  8
FOREGROUND
  6
CONTINUOUS
 10
0.078216
 20
0.799098
  0
VERTEX
  8
FOREGROUND
  6
CONTINUOUS
 10
0.083440
 20
0.778712
  0
VERTEX
  8
FOREGROUND
  6
CONTINUOUS
 10
0.089087
 20
0.758498
  0
VERTEX
  8
FOREGROUND
  6
CONTINUOUS
 10
0.095150
 20
0.738463
  0
VERTEX
  8
FOREGROUND
  6
CONTINUOUS
 10
0.101625
 20
0.718610
  0
VERTEX
  8
FOREGROUND
  6
CONTINUOUS
 10
0.108506
 20
0.698945
  0
VERTEX
  8
FOREGROUND
  6
CONTINUOUS
 10
0.115790
 20
0.679473
  0
VERTEX
  8
FOREGROUND
  6
CONTINUOUS
 10
0.123470
 20
0.660198
  0
VERTEX
  8
FOREGROUND
  6
CONTINUOUS
 10
0.131542
 20
0.641126
  0
VERTEX
  8
FOREGROUND
  6
CONTINUOUS
 10
0.140001
 20
0.622262
  0
VERTEX
  8
FOREGROUND
  6
CONTINUOUS
 10
0.148842
 20
0.603611
  0
VERTEX
  8
FOREGROUND
  6
CONTINUOUS
 10
0.158060
 20
0.585177
  0
VERTEX
  8
FOREGROUND
  6
CONTINUOUS
 10
0.167650
 20
0.566966
  0
VERTEX
  8
FOREGROUND
  6
CONTINUOUS
 10
0.177607
 20
0.548982
  0
VERTEX
  8
FOREGROUND
  6
CONTINUOUS
 10
0.187926
 20
0.531232
  0
VERTEX
  8
FOREGROUND
  6
CONTINUOUS
 10
0.198601
 20
0.513718
  0
VERTEX
  8
FOREGROUND
  6
CONTINUOUS
 10
0.209629
 20
0.496447
  0
VERTEX
  8
FOREGROUND
  6
CONTINUOUS
 10
0.221004
 20
0.479424
  0
VERTEX
  8
FOREGROUND
  6
CONTINUOUS
 10
0.232721
 20
0.462653
  0
VERTEX
  8
FOREGROUND
  6
CONTINUOUS
 10
0.244775
 20
0.446140
  0
VERTEX
  8
FOREGROUND
  6
CONTINUOUS
 10
0.257161
 20
0.429889
  0
VERTEX
  8
FOREGROUND
  6
CONTINUOUS
 10
0.269874
 20
0.413906
  0
VERTEX
  8
FOREGROUND
  6
CONTINUOUS
 10
0.282910
 20
0.398195
  0
VERTEX
  8
FOREGROUND
  6
CONTINUOUS
 10
0.296263
 20
0.382761
  0
VERTEX
  8
FOREGROUND
  6
CONTINUOUS
 10
0.309927
 20
0.367610
  0
VERTEX
  8
FOREGROUND
  6
CONTINUOUS
 10
0.323900
 20
0.352746
  0
VERTEX
  8
FOREGROUND
  6
CONTINUOUS
 10
0.338174
 20
0.338174
  0
VERTEX
  8
FOREGROUND
  6
CONTINUOUS
 10
0.352746
 20
0.323900
  0
VERTEX
  8
FOREGROUND
  6
CONTINUOUS
 10
0.367610
 20
0.309927
  0
VERTEX
  8
FOREGROUND
  6
CONTINUOUS
 10
0.382761
 20
0.296263
  0
VERTEX
  8
FOREGROUND
  6
CONTINUOUS
 10
0.398195
 20
0.282910
  0
VERTEX
  8
FOREGROUND
  6
CONTINUOUS
 10
0.413906
 20
0.269874
  0
VERTEX
  8
FOREGROUND
  6
CONTINUOUS
 10
0.429889
 20
0.257161
  0
VERTEX
  8
FOREGROUND
  6
CONTINUOUS
 10
0.446140
 20
0.244775
  0
VERTEX
  8
FOREGROUND
  6
CONTINUOUS
 10
0.462653
 20
0.232721
  0
VERTEX
  8
FOREGROUND
  6
CONTINUOUS
 10
0.479424
 20
0.221004
  0
VERTEX
  8
FOREGROUND
  6
CONTINUOUS
 10
0.496447
 20
0.209629
  0
VERTEX
  8
FOREGROUND
  6
CONTINUOUS
 10
0.513718
 20
0.198601
  0
VERTEX
  8
FOREGROUND
  6
CONTINUOUS
 10
0.531232
 20
0.187926
  0
VERTEX
  8
FOREGROUND
  6
CONTINUOUS
 10
0.548982
 20
0.177607
  0
VERTEX
  8
FOREGROUND
  6
CONTINUOUS
 10
0.566966
 20
0.167650
  0
VERTEX
  8
FOREGROUND
  6
CONTINUOUS
 10
0.585177
 20
0.158060
  0
VERTEX
  8
FOREGROUND
  6
CONTINUOUS
 10
0.603611
 20
0.148842
  0
VERTEX
  8
FOREGROUND
  6
CONTINUOUS
 10
0.622262
 20
0.140001
  0
VERTEX
  8
FOREGROUND
  6
CONTINUOUS
 10
0.641126
 20
0.131542
  0
VERTEX
  8
FOREGROUND
  6
CONTINUOUS
 10
0.660198
 20
0.123470
  0
VERTEX
  8
FOREGROUND
  6
CONTINUOUS
 10
0.679473
 20
0.115790
  0
VERTEX
  8
FOREGROUND
  6
CONTINUOUS
 10
0.698945
 20
0.108506
  0
VERTEX
  8
FOREGROUND
  6
CONTINUOUS
 10
0.718610
 20
0.101625
  0
VERTEX
  8
FOREGROUND
  6
CONTINUOUS
 10
0.738463
 20
0.095150
  0
VERTEX
  8
FOREGROUND
  6
CONTINUOUS
 10
0.758498
 20
0.089087
  0
VERTEX
  8
FOREGROUND
  6
CONTINUOUS
 10
0.778712
 20
0.083440
  0
VERTEX
  8
FOREGROUND
  6
CONTINUOUS
 10
0.799098
 20
0.078216
  0
VERTEX
  8
FOREGROUND
  6
CONTINUOUS
 10
0.819652
 20
0.073418
  0
VERTEX
  8
FOREGROUND
  6
CONTINUOUS
 10
0.840369
 20
0.069051
  0
VERTEX
  8
FOREGROUND
  6
CONTINUOUS
 10
0.861245
 20
0.065121
  0
VERTEX
  8
FOREGROUND
  6
CONTINUOUS
 10
0.882273
 20
0.061633
  0
VERTEX
  8
FOREGROUND
  6
CONTINUOUS
 10
0.903449
 20
0.058592
  0
VERTEX
  8
FOREGROUND
  6
CONTINUOUS
 10
0.924768
 20
0.056002
  0
VERTEX
  8
FOREGROUND
  6
CONTINUOUS
 10
0.946225
 20
0.053869
  0
VERTEX
  8
FOREGROUND
  6
CONTINUOUS
 10
0.967815
 20
0.052197
  0
VERTEX
  8
FOREGROUND
  6
CONTINUOUS
 10
0.989533
 20
0.050991
  0
VERTEX
  8
FOREGROUND
  6
CONTINUOUS
 10
1.011374
 20
0.050257
  0
VERTEX
  8
FOREGROUND
  6
CONTINUOUS
 10
1.033333
 20
0.050000
  0
SEQEND
  8
0
  0
ENDSEC
  0
EOF
