  0
SECTION
  2
HEADER
  9
$ACADVER
  1
AC1006
  9
$EXTMIN
 10
0.000000
 20
0.000000
  9
$EXTMAX
 10
4.045000
 20
2.460000
  9
$LTSCALE
 40
0.166667
  9
$PDMODE
 70
    35
  9
$PDSIZE
 40
0.133333
  0
ENDSEC
  0
SECTION
  2
TABLES
  0
TABLE
  2
LTYPE
 70
     9
  0
LTYPE
  2
CONTINUOUS
 70
    64
  3
Solid line
 72
    65
 73
     0
 40
0.000000
  0
LTYPE
  2
DASHED
 70
    64
  3
__ __ __ __ __ __ __ __ __ __ __ __ __ __ __
 72
    65
 73
     2
 40
0.001250
 49
0.000833
 49
-0.000417
  0
LTYPE
  2
HIDDEN
 70
    64
  3
 _ _ _ _ _ _ _ _ _ _ _ _ _ _ _ _ _ _ _ _ _ _
 72
    65
 73
     2
 40
0.000625
 49
0.000417
 49
-0.000208
  0
LTYPE
  2
CENTER
 70
    64
  3
____ _ ____ _ ____ _ ____ _ ____ _ ____ _ ____
 72
    65
 73
     4
 40
0.003333
 49
0.002083
 49
-0.000417
 49
0.000417
 49
-0.000417
  0
LTYPE
  2
PHANTOM
 70
    64
  3
_____ _ _ _____ _ _ _____ _ _ _____ _ _ ____
 72
    65
 73
     6
 40
0.004167
 49
0.002083
 49
-0.000417
 49
0.000417
 49
-0.000417
 49
0.000417
 49
-0.000417
  0
LTYPE
  2
DOT
 70
    64
  3
...............................................
 72
    65
 73
     2
 40
0.000417
 49
0.000000
 49
-0.000417
  0
LTYPE
  2
DASHDOT
 70
    64
  3
__ . __ . __ . __ . __ . __ . __ . __ . __ . __
 72
    65
 73
     4
 40
0.001667
 49
0.000833
 49
-0.000417
 49
0.000000
 49
-0.000417
  0
LTYPE
  2
BORDER
 70
    64
  3
__ __ . __ __ . __ __ . __ __ . __ __ . __ __
 72
    65
 73
     6
 40
0.002917
 49
0.000833
 49
-0.000417
 49
0.000833
 49
-0.000417
 49
0.000000
 49
-0.000417
  0
LTYPE
  2
DIVIDE
 70
    64
  3
__ . . __ . . __ . . __ . . __ . . __ . . __
 72
    65
 73
     6
 40
0.002083
 49
0.000833
 49
-0.000417
 49
0.000000
 49
-0.000417
 49
0.000000
 49
-0.000417
  0
LTYPE
  2
DOTDOT
 70
    64
  3
 . .  . .  . .  . .  . .  . . 
 72
    65
 73
     5
 40
0.000917
 49
-0.000417
 49
0.000000
 49
-0.000417
 49
0.000000
 49
-0.000417
  0
ENDTAB
  0
TABLE
  2
STYLE
 70
     2
  0
STYLE
 70
     0
  2
SN0
 40
0.000000
 41
0.001667
 50
0.000000
 71
     0
 42
0.000000
  3
ROMAND
  0
STYLE
 70
    68
  2
SV0
 40
0.000000
 41
0.001667
 50
0.000000
 71
     0
 42
0.000000
  3
ROMAND
  0
ENDTAB
  0
TABLE
  2
LAYER
 70
     2
  0
LAYER
  2
FOREGROUND
 70
    64
 62
     7
  6
CONTINUOUS
  0
LAYER
  2
BACKGROUND
 70
    65
 62
    -7
  6
CONTINUOUS
  0
ENDTAB
  0
ENDSEC
  0
SECTION
  2
ENTITIES
  0
POLYLINE
  8
FOREGROUND
  6
CONTINUOUS
 66
     1
 40
0.010000
 41
0.010000
 70
     1
  0
VERTEX
  8
FOREGROUND
  6
CONTINUOUS
 10
2.815000
 20
0.050000
  0
VERTEX
  8
FOREGROUND
  6
CONTINUOUS
 10
2.837949
 20
0.050237
  0
VERTEX
  8
FOREGROUND
  6
CONTINUOUS
 10
2.860791
 20
0.050907
  0
VERTEX
  8
FOREGROUND
  6
CONTINUOUS
 10
2.883522
 20
0.052008
  0
VERTEX
  8
FOREGROUND
  6
CONTINUOUS
 10
2.906139
 20
0.053534
  0
VERTEX
  8
FOREGROUND
  6
CONTINUOUS
 10
2.928637
 20
0.055483
  0
VERTEX
  8
FOREGROUND
  6
CONTINUOUS
 10
2.951012
 20
0.057850
  0
VERTEX
  8
FOREGROUND
  6
CONTINUOUS
 10
2.973261
 20
0.060631
  0
VERTEX
  8
FOREGROUND
  6
CONTINUOUS
 10
2.995379
 20
0.063822
  0
VERTEX
  8
FOREGROUND
  6
CONTINUOUS
 10
3.017363
 20
0.067420
  0
VERTEX
  8
FOREGROUND
  6
CONTINUOUS
 10
3.039208
 20
0.071420
  0
VERTEX
  8
FOREGROUND
  6
CONTINUOUS
 10
3.060912
 20
0.075818
  0
VERTEX
  8
FOREGROUND
  6
CONTINUOUS
 10
3.082468
 20
0.080611
  0
VERTEX
  8
FOREGROUND
  6
CONTINUOUS
 10
3.103875
 20
0.085795
  0
VERTEX
  8
FOREGROUND
  6
CONTINUOUS
 10
3.125128
 20
0.091365
  0
VERTEX
  8
FOREGROUND
  6
CONTINUOUS
 10
3.146222
 20
0.097318
  0
VERTEX
  8
FOREGROUND
  6
CONTINUOUS
 10
3.167155
 20
0.103650
  0
VERTEX
  8
FOREGROUND
  6
CONTINUOUS
 10
3.187921
 20
0.110356
  0
VERTEX
  8
FOREGROUND
  6
CONTINUOUS
 10
3.208518
 20
0.117434
  0
VERTEX
  8
FOREGROUND
  6
CONTINUOUS
 10
3.228941
 20
0.124878
  0
VERTEX
  8
FOREGROUND
  6
CONTINUOUS
 10
3.249186
 20
0.132686
  0
VERTEX
  8
FOREGROUND
  6
CONTINUOUS
 10
3.269249
 20
0.140852
  0
VERTEX
  8
FOREGROUND
  6
CONTINUOUS
 10
3.289127
 20
0.149373
  0
VERTEX
  8
FOREGROUND
  6
CONTINUOUS
 10
3.308815
 20
0.158246
  0
VERTEX
  8
FOREGROUND
  6
CONTINUOUS
 10
3.328309
 20
0.167466
  0
VERTEX
  8
FOREGROUND
  6
CONTINUOUS
 10
3.347607
 20
0.177029
  0
VERTEX
  8
FOREGROUND
  6
CONTINUOUS
 10
3.366702
 20
0.186932
  0
VERTEX
  8
FOREGROUND
  6
CONTINUOUS
 10
3.385592
 20
0.197170
  0
VERTEX
  8
FOREGROUND
  6
CONTINUOUS
 10
3.404273
 20
0.207739
  0
VERTEX
  8
FOREGROUND
  6
CONTINUOUS
 10
3.422741
 20
0.218636
  0
VERTEX
  8
FOREGROUND
  6
CONTINUOUS
 10
3.440992
 20
0.229857
  0
VERTEX
  8
FOREGROUND
  6
CONTINUOUS
 10
3.459021
 20
0.241397
  0
VERTEX
  8
FOREGROUND
  6
CONTINUOUS
 10
3.476825
 20
0.253253
  0
VERTEX
  8
FOREGROUND
  6
CONTINUOUS
 10
3.494401
 20
0.265420
  0
VERTEX
  8
FOREGROUND
  6
CONTINUOUS
 10
3.511743
 20
0.277896
  0
VERTEX
  8
FOREGROUND
  6
CONTINUOUS
 10
3.528849
 20
0.290675
  0
VERTEX
  8
FOREGROUND
  6
CONTINUOUS
 10
3.545713
 20
0.303754
  0
VERTEX
  8
FOREGROUND
  6
CONTINUOUS
 10
3.562333
 20
0.317130
  0
VERTEX
  8
FOREGROUND
  6
CONTINUOUS
 10
3.578704
 20
0.330797
  0
VERTEX
  8
FOREGROUND
  6
CONTINUOUS
 10
3.594823
 20
0.344753
  0
VERTEX
  8
FOREGROUND
  6
CONTINUOUS
 10
3.610685
 20
0.358992
  0
VERTEX
  8
FOREGROUND
  6
CONTINUOUS
 10
3.626286
 20
0.373512
  0
VERTEX
  8
FOREGROUND
  6
CONTINUOUS
 10
3.641623
 20
0.388308
  0
VERTEX
  8
FOREGROUND
  6
CONTINUOUS
 10
3.656692
 20
0.403377
  0
VERTEX
  8
FOREGROUND
  6
CONTINUOUS
 10
3.671488
 20
0.418714
  0
VERTEX
  8
FOREGROUND
  6
CONTINUOUS
 10
3.686008
 20
0.434315
  0
VERTEX
  8
FOREGROUND
  6
CONTINUOUS
 10
3.700247
 20
0.450177
  0
VERTEX
  8
FOREGROUND
  6
CONTINUOUS
 10
3.714203
 20
0.466296
  0
VERTEX
  8
FOREGROUND
  6
CONTINUOUS
 10
3.727870
 20
0.482667
  0
VERTEX
  8
FOREGROUND
  6
CONTINUOUS
 10
3.741246
 20
0.499287
  0
VERTEX
  8
FOREGROUND
  6
CONTINUOUS
 10
3.754325
 20
0.516151
  0
VERTEX
  8
FOREGROUND
  6
CONTINUOUS
 10
3.767104
 20
0.533257
  0
VERTEX
  8
FOREGROUND
  6
CONTINUOUS
 10
3.779580
 20
0.550599
  0
VERTEX
  8
FOREGROUND
  6
CONTINUOUS
 10
3.791747
 20
0.568175
  0
VERTEX
  8
FOREGROUND
  6
CONTINUOUS
 10
3.803603
 20
0.585979
  0
VERTEX
  8
FOREGROUND
  6
CONTINUOUS
 10
3.815143
 20
0.604008
  0
VERTEX
  8
FOREGROUND
  6
CONTINUOUS
 10
3.826364
 20
0.622259
  0
VERTEX
  8
FOREGROUND
  6
CONTINUOUS
 10
3.837261
 20
0.640727
  0
VERTEX
  8
FOREGROUND
  6
CONTINUOUS
 10
3.847830
 20
0.659408
  0
VERTEX
  8
FOREGROUND
  6
CONTINUOUS
 10
3.858068
 20
0.678298
  0
VERTEX
  8
FOREGROUND
  6
CONTINUOUS
 10
3.867971
 20
0.697393
  0
VERTEX
  8
FOREGROUND
  6
CONTINUOUS
 10
3.877534
 20
0.716691
  0
VERTEX
  8
FOREGROUND
  6
CONTINUOUS
 10
3.886754
 20
0.736185
  0
VERTEX
  8
FOREGROUND
  6
CONTINUOUS
 10
3.895627
 20
0.755873
  0
VERTEX
  8
FOREGROUND
  6
CONTINUOUS
 10
3.904148
 20
0.775751
  0
VERTEX
  8
FOREGROUND
  6
CONTINUOUS
 10
3.912314
 20
0.795814
  0
VERTEX
  8
FOREGROUND
  6
CONTINUOUS
 10
3.920122
 20
0.816059
  0
VERTEX
  8
FOREGROUND
  6
CONTINUOUS
 10
3.927566
 20
0.836482
  0
VERTEX
  8
FOREGROUND
  6
CONTINUOUS
 10
3.934644
 20
0.857079
  0
VERTEX
  8
FOREGROUND
  6
CONTINUOUS
 10
3.941350
 20
0.877845
  0
VERTEX
  8
FOREGROUND
  6
CONTINUOUS
 10
3.947682
 20
0.898778
  0
VERTEX
  8
FOREGROUND
  6
CONTINUOUS
 10
3.953635
 20
0.919872
  0
VERTEX
  8
FOREGROUND
  6
CONTINUOUS
 10
3.959205
 20
0.941125
  0
VERTEX
  8
FOREGROUND
  6
CONTINUOUS
 10
3.964389
 20
0.962532
  0
VERTEX
  8
FOREGROUND
  6
CONTINUOUS
 10
3.969182
 20
0.984088
  0
VERTEX
  8
FOREGROUND
  6
CONTINUOUS
 10
3.973580
 20
1.005792
  0
VERTEX
  8
FOREGROUND
  6
CONTINUOUS
 10
3.977580
 20
1.027637
  0
VERTEX
  8
FOREGROUND
  6
CONTINUOUS
 10
3.981178
 20
1.049621
  0
VERTEX
  8
FOREGROUND
  6
CONTINUOUS
 10
3.984369
 20
1.071739
  0
VERTEX
  8
FOREGROUND
  6
CONTINUOUS
 10
3.987150
 20
1.093988
  0
VERTEX
  8
FOREGROUND
  6
CONTINUOUS
 10
3.989517
 20
1.116363
  0
VERTEX
  8
FOREGROUND
  6
CONTINUOUS
 10
3.991466
 20
1.138861
  0
VERTEX
  8
FOREGROUND
  6
CONTINUOUS
 10
3.992992
 20
1.161478
  0
VERTEX
  8
FOREGROUND
  6
CONTINUOUS
 10
3.994093
 20
1.184209
  0
VERTEX
  8
FOREGROUND
  6
CONTINUOUS
 10
3.994763
 20
1.207051
  0
VERTEX
  8
FOREGROUND
  6
CONTINUOUS
 10
3.995000
 20
1.230000
  0
VERTEX
  8
FOREGROUND
  6
CONTINUOUS
 10
3.995000
 20
1.230000
  0
VERTEX
  8
FOREGROUND
  6
CONTINUOUS
 10
3.994763
 20
1.252952
  0
VERTEX
  8
FOREGROUND
  6
CONTINUOUS
 10
3.994093
 20
1.275797
  0
VERTEX
  8
FOREGROUND
  6
CONTINUOUS
 10
3.992992
 20
1.298531
  0
VERTEX
  8
FOREGROUND
  6
CONTINUOUS
 10
3.991465
 20
1.321151
  0
VERTEX
  8
FOREGROUND
  6
CONTINUOUS
 10
3.989516
 20
1.343651
  0
VERTEX
  8
FOREGROUND
  6
CONTINUOUS
 10
3.987148
 20
1.366029
  0
VERTEX
  8
FOREGROUND
  6
CONTINUOUS
 10
3.984367
 20
1.388281
  0
VERTEX
  8
FOREGROUND
  6
CONTINUOUS
 10
3.981175
 20
1.410402
  0
VERTEX
  8
FOREGROUND
  6
CONTINUOUS
 10
3.977576
 20
1.432388
  0
VERTEX
  8
FOREGROUND
  6
CONTINUOUS
 10
3.973575
 20
1.454236
  0
VERTEX
  8
FOREGROUND
  6
CONTINUOUS
 10
3.969175
 20
1.475942
  0
VERTEX
  8
FOREGROUND
  6
CONTINUOUS
 10
3.964381
 20
1.497501
  0
VERTEX
  8
FOREGROUND
  6
CONTINUOUS
 10
3.959196
 20
1.518910
  0
VERTEX
  8
FOREGROUND
  6
CONTINUOUS
 10
3.953625
 20
1.540165
  0
VERTEX
  8
FOREGROUND
  6
CONTINUOUS
 10
3.947670
 20
1.561262
  0
VERTEX
  8
FOREGROUND
  6
CONTINUOUS
 10
3.941337
 20
1.582197
  0
VERTEX
  8
FOREGROUND
  6
CONTINUOUS
 10
3.934629
 20
1.602966
  0
VERTEX
  8
FOREGROUND
  6
CONTINUOUS
 10
3.927550
 20
1.623565
  0
VERTEX
  8
FOREGROUND
  6
CONTINUOUS
 10
3.920104
 20
1.643989
  0
VERTEX
  8
FOREGROUND
  6
CONTINUOUS
 10
3.912295
 20
1.664236
  0
VERTEX
  8
FOREGROUND
  6
CONTINUOUS
 10
3.904126
 20
1.684302
  0
VERTEX
  8
FOREGROUND
  6
CONTINUOUS
 10
3.895603
 20
1.704181
  0
VERTEX
  8
FOREGROUND
  6
CONTINUOUS
 10
3.886728
 20
1.723871
  0
VERTEX
  8
FOREGROUND
  6
CONTINUOUS
 10
3.877506
 20
1.743367
  0
VERTEX
  8
FOREGROUND
  6
CONTINUOUS
 10
3.867941
 20
1.762666
  0
VERTEX
  8
FOREGROUND
  6
CONTINUOUS
 10
3.858036
 20
1.781763
  0
VERTEX
  8
FOREGROUND
  6
CONTINUOUS
 10
3.847796
 20
1.800655
  0
VERTEX
  8
FOREGROUND
  6
CONTINUOUS
 10
3.837224
 20
1.819338
  0
VERTEX
  8
FOREGROUND
  6
CONTINUOUS
 10
3.826325
 20
1.837807
  0
VERTEX
  8
FOREGROUND
  6
CONTINUOUS
 10
3.815102
 20
1.856059
  0
VERTEX
  8
FOREGROUND
  6
CONTINUOUS
 10
3.803559
 20
1.874089
  0
VERTEX
  8
FOREGROUND
  6
CONTINUOUS
 10
3.791700
 20
1.891895
  0
VERTEX
  8
FOREGROUND
  6
CONTINUOUS
 10
3.779530
 20
1.909471
  0
VERTEX
  8
FOREGROUND
  6
CONTINUOUS
 10
3.767052
 20
1.926815
  0
VERTEX
  8
FOREGROUND
  6
CONTINUOUS
 10
3.754270
 20
1.943921
  0
VERTEX
  8
FOREGROUND
  6
CONTINUOUS
 10
3.741188
 20
1.960787
  0
VERTEX
  8
FOREGROUND
  6
CONTINUOUS
 10
3.727809
 20
1.977408
  0
VERTEX
  8
FOREGROUND
  6
CONTINUOUS
 10
3.714139
 20
1.993779
  0
VERTEX
  8
FOREGROUND
  6
CONTINUOUS
 10
3.700181
 20
2.009899
  0
VERTEX
  8
FOREGROUND
  6
CONTINUOUS
 10
3.685938
 20
2.025761
  0
VERTEX
  8
FOREGROUND
  6
CONTINUOUS
 10
3.671415
 20
2.041363
  0
VERTEX
  8
FOREGROUND
  6
CONTINUOUS
 10
3.656616
 20
2.056700
  0
VERTEX
  8
FOREGROUND
  6
CONTINUOUS
 10
3.641544
 20
2.071769
  0
VERTEX
  8
FOREGROUND
  6
CONTINUOUS
 10
3.626204
 20
2.086566
  0
VERTEX
  8
FOREGROUND
  6
CONTINUOUS
 10
3.610600
 20
2.101086
  0
VERTEX
  8
FOREGROUND
  6
CONTINUOUS
 10
3.594735
 20
2.115325
  0
VERTEX
  8
FOREGROUND
  6
CONTINUOUS
 10
3.578613
 20
2.129281
  0
VERTEX
  8
FOREGROUND
  6
CONTINUOUS
 10
3.562238
 20
2.142948
  0
VERTEX
  8
FOREGROUND
  6
CONTINUOUS
 10
3.545615
 20
2.156323
  0
VERTEX
  8
FOREGROUND
  6
CONTINUOUS
 10
3.528747
 20
2.169402
  0
VERTEX
  8
FOREGROUND
  6
CONTINUOUS
 10
3.511638
 20
2.182181
  0
VERTEX
  8
FOREGROUND
  6
CONTINUOUS
 10
3.494293
 20
2.194656
  0
VERTEX
  8
FOREGROUND
  6
CONTINUOUS
 10
3.476714
 20
2.206823
  0
VERTEX
  8
FOREGROUND
  6
CONTINUOUS
 10
3.458906
 20
2.218678
  0
VERTEX
  8
FOREGROUND
  6
CONTINUOUS
 10
3.440873
 20
2.230218
  0
VERTEX
  8
FOREGROUND
  6
CONTINUOUS
 10
3.422619
 20
2.241437
  0
VERTEX
  8
FOREGROUND
  6
CONTINUOUS
 10
3.404148
 20
2.252333
  0
VERTEX
  8
FOREGROUND
  6
CONTINUOUS
 10
3.385464
 20
2.262901
  0
VERTEX
  8
FOREGROUND
  6
CONTINUOUS
 10
3.366570
 20
2.273138
  0
VERTEX
  8
FOREGROUND
  6
CONTINUOUS
 10
3.347471
 20
2.283039
  0
VERTEX
  8
FOREGROUND
  6
CONTINUOUS
 10
3.328171
 20
2.292601
  0
VERTEX
  8
FOREGROUND
  6
CONTINUOUS
 10
3.308673
 20
2.301820
  0
VERTEX
  8
FOREGROUND
  6
CONTINUOUS
 10
3.288981
 20
2.310691
  0
VERTEX
  8
FOREGROUND
  6
CONTINUOUS
 10
3.269100
 20
2.319211
  0
VERTEX
  8
FOREGROUND
  6
CONTINUOUS
 10
3.249033
 20
2.327375
  0
VERTEX
  8
FOREGROUND
  6
CONTINUOUS
 10
3.228785
 20
2.335180
  0
VERTEX
  8
FOREGROUND
  6
CONTINUOUS
 10
3.208358
 20
2.342623
  0
VERTEX
  8
FOREGROUND
  6
CONTINUOUS
 10
3.187758
 20
2.349698
  0
VERTEX
  8
FOREGROUND
  6
CONTINUOUS
 10
3.166988
 20
2.356402
  0
VERTEX
  8
FOREGROUND
  6
CONTINUOUS
 10
3.146052
 20
2.362732
  0
VERTEX
  8
FOREGROUND
  6
CONTINUOUS
 10
3.124954
 20
2.368682
  0
VERTEX
  8
FOREGROUND
  6
CONTINUOUS
 10
3.103698
 20
2.374250
  0
VERTEX
  8
FOREGROUND
  6
CONTINUOUS
 10
3.082288
 20
2.379431
  0
VERTEX
  8
FOREGROUND
  6
CONTINUOUS
 10
3.060728
 20
2.384221
  0
VERTEX
  8
FOREGROUND
  6
CONTINUOUS
 10
3.039022
 20
2.388617
  0
VERTEX
  8
FOREGROUND
  6
CONTINUOUS
 10
3.017173
 20
2.392613
  0
VERTEX
  8
FOREGROUND
  6
CONTINUOUS
 10
2.995186
 20
2.396208
  0
VERTEX
  8
FOREGROUND
  6
CONTINUOUS
 10
2.973064
 20
2.399396
  0
VERTEX
  8
FOREGROUND
  6
CONTINUOUS
 10
2.950812
 20
2.402174
  0
VERTEX
  8
FOREGROUND
  6
CONTINUOUS
 10
2.928434
 20
2.404537
  0
VERTEX
  8
FOREGROUND
  6
CONTINUOUS
 10
2.905933
 20
2.406482
  0
VERTEX
  8
FOREGROUND
  6
CONTINUOUS
 10
2.883313
 20
2.408005
  0
VERTEX
  8
FOREGROUND
  6
CONTINUOUS
 10
2.860578
 20
2.409101
  0
VERTEX
  8
FOREGROUND
  6
CONTINUOUS
 10
2.837733
 20
2.409768
  0
VERTEX
  8
FOREGROUND
  6
CONTINUOUS
 10
2.814781
 20
2.410000
  0
VERTEX
  8
FOREGROUND
  6
CONTINUOUS
 10
1.229781
 20
2.410000
  0
VERTEX
  8
FOREGROUND
  6
CONTINUOUS
 10
1.206835
 20
2.409759
  0
VERTEX
  8
FOREGROUND
  6
CONTINUOUS
 10
1.183996
 20
2.409085
  0
VERTEX
  8
FOREGROUND
  6
CONTINUOUS
 10
1.161268
 20
2.407980
  0
VERTEX
  8
FOREGROUND
  6
CONTINUOUS
 10
1.138655
 20
2.406450
  0
VERTEX
  8
FOREGROUND
  6
CONTINUOUS
 10
1.116160
 20
2.404497
  0
VERTEX
  8
FOREGROUND
  6
CONTINUOUS
 10
1.093788
 20
2.402127
  0
VERTEX
  8
FOREGROUND
  6
CONTINUOUS
 10
1.071542
 20
2.399343
  0
VERTEX
  8
FOREGROUND
  6
CONTINUOUS
 10
1.049427
 20
2.396148
  0
VERTEX
  8
FOREGROUND
  6
CONTINUOUS
 10
1.027447
 20
2.392547
  0
VERTEX
  8
FOREGROUND
  6
CONTINUOUS
 10
1.005605
 20
2.388544
  0
VERTEX
  8
FOREGROUND
  6
CONTINUOUS
 10
0.983905
 20
2.384142
  0
VERTEX
  8
FOREGROUND
  6
CONTINUOUS
 10
0.962351
 20
2.379347
  0
VERTEX
  8
FOREGROUND
  6
CONTINUOUS
 10
0.940948
 20
2.374160
  0
VERTEX
  8
FOREGROUND
  6
CONTINUOUS
 10
0.919699
 20
2.368587
  0
VERTEX
  8
FOREGROUND
  6
CONTINUOUS
 10
0.898608
 20
2.362632
  0
VERTEX
  8
FOREGROUND
  6
CONTINUOUS
 10
0.877679
 20
2.356298
  0
VERTEX
  8
FOREGROUND
  6
CONTINUOUS
 10
0.856916
 20
2.349589
  0
VERTEX
  8
FOREGROUND
  6
CONTINUOUS
 10
0.836322
 20
2.342509
  0
VERTEX
  8
FOREGROUND
  6
CONTINUOUS
 10
0.815903
 20
2.335063
  0
VERTEX
  8
FOREGROUND
  6
CONTINUOUS
 10
0.795661
 20
2.327254
  0
VERTEX
  8
FOREGROUND
  6
CONTINUOUS
 10
0.775601
 20
2.319086
  0
VERTEX
  8
FOREGROUND
  6
CONTINUOUS
 10
0.755727
 20
2.310562
  0
VERTEX
  8
FOREGROUND
  6
CONTINUOUS
 10
0.736043
 20
2.301688
  0
VERTEX
  8
FOREGROUND
  6
CONTINUOUS
 10
0.716552
 20
2.292467
  0
VERTEX
  8
FOREGROUND
  6
CONTINUOUS
 10
0.697258
 20
2.282902
  0
VERTEX
  8
FOREGROUND
  6
CONTINUOUS
 10
0.678166
 20
2.272998
  0
VERTEX
  8
FOREGROUND
  6
CONTINUOUS
 10
0.659279
 20
2.262759
  0
VERTEX
  8
FOREGROUND
  6
CONTINUOUS
 10
0.640601
 20
2.252189
  0
VERTEX
  8
FOREGROUND
  6
CONTINUOUS
 10
0.622137
 20
2.241291
  0
VERTEX
  8
FOREGROUND
  6
CONTINUOUS
 10
0.603890
 20
2.230069
  0
VERTEX
  8
FOREGROUND
  6
CONTINUOUS
 10
0.585864
 20
2.218528
  0
VERTEX
  8
FOREGROUND
  6
CONTINUOUS
 10
0.568063
 20
2.206672
  0
VERTEX
  8
FOREGROUND
  6
CONTINUOUS
 10
0.550491
 20
2.194503
  0
VERTEX
  8
FOREGROUND
  6
CONTINUOUS
 10
0.533152
 20
2.182027
  0
VERTEX
  8
FOREGROUND
  6
CONTINUOUS
 10
0.516050
 20
2.169248
  0
VERTEX
  8
FOREGROUND
  6
CONTINUOUS
 10
0.499189
 20
2.156168
  0
VERTEX
  8
FOREGROUND
  6
CONTINUOUS
 10
0.482572
 20
2.142793
  0
VERTEX
  8
FOREGROUND
  6
CONTINUOUS
 10
0.466204
 20
2.129125
  0
VERTEX
  8
FOREGROUND
  6
CONTINUOUS
 10
0.450089
 20
2.115170
  0
VERTEX
  8
FOREGROUND
  6
CONTINUOUS
 10
0.434230
 20
2.100930
  0
VERTEX
  8
FOREGROUND
  6
CONTINUOUS
 10
0.418632
 20
2.086410
  0
VERTEX
  8
FOREGROUND
  6
CONTINUOUS
 10
0.403298
 20
2.071614
  0
VERTEX
  8
FOREGROUND
  6
CONTINUOUS
 10
0.388232
 20
2.056546
  0
VERTEX
  8
FOREGROUND
  6
CONTINUOUS
 10
0.373439
 20
2.041210
  0
VERTEX
  8
FOREGROUND
  6
CONTINUOUS
 10
0.358923
 20
2.025609
  0
VERTEX
  8
FOREGROUND
  6
CONTINUOUS
 10
0.344686
 20
2.009747
  0
VERTEX
  8
FOREGROUND
  6
CONTINUOUS
 10
0.330733
 20
1.993629
  0
VERTEX
  8
FOREGROUND
  6
CONTINUOUS
 10
0.317069
 20
1.977259
  0
VERTEX
  8
FOREGROUND
  6
CONTINUOUS
 10
0.303696
 20
1.960640
  0
VERTEX
  8
FOREGROUND
  6
CONTINUOUS
 10
0.290620
 20
1.943776
  0
VERTEX
  8
FOREGROUND
  6
CONTINUOUS
 10
0.277843
 20
1.926671
  0
VERTEX
  8
FOREGROUND
  6
CONTINUOUS
 10
0.265371
 20
1.909330
  0
VERTEX
  8
FOREGROUND
  6
CONTINUOUS
 10
0.253206
 20
1.891756
  0
VERTEX
  8
FOREGROUND
  6
CONTINUOUS
 10
0.241352
 20
1.873953
  0
VERTEX
  8
FOREGROUND
  6
CONTINUOUS
 10
0.229815
 20
1.855925
  0
VERTEX
  8
FOREGROUND
  6
CONTINUOUS
 10
0.218597
 20
1.837675
  0
VERTEX
  8
FOREGROUND
  6
CONTINUOUS
 10
0.207702
 20
1.819209
  0
VERTEX
  8
FOREGROUND
  6
CONTINUOUS
 10
0.197135
 20
1.800530
  0
VERTEX
  8
FOREGROUND
  6
CONTINUOUS
 10
0.186900
 20
1.781641
  0
VERTEX
  8
FOREGROUND
  6
CONTINUOUS
 10
0.176999
 20
1.762547
  0
VERTEX
  8
FOREGROUND
  6
CONTINUOUS
 10
0.167438
 20
1.743252
  0
VERTEX
  8
FOREGROUND
  6
CONTINUOUS
 10
0.158220
 20
1.723759
  0
VERTEX
  8
FOREGROUND
  6
CONTINUOUS
 10
0.149350
 20
1.704072
  0
VERTEX
  8
FOREGROUND
  6
CONTINUOUS
 10
0.140830
 20
1.684197
  0
VERTEX
  8
FOREGROUND
  6
CONTINUOUS
 10
0.132666
 20
1.664135
  0
VERTEX
  8
FOREGROUND
  6
CONTINUOUS
 10
0.124860
 20
1.643892
  0
VERTEX
  8
FOREGROUND
  6
CONTINUOUS
 10
0.117418
 20
1.623472
  0
VERTEX
  8
FOREGROUND
  6
CONTINUOUS
 10
0.110342
 20
1.602877
  0
VERTEX
  8
FOREGROUND
  6
CONTINUOUS
 10
0.103637
 20
1.582113
  0
VERTEX
  8
FOREGROUND
  6
CONTINUOUS
 10
0.097307
 20
1.561182
  0
VERTEX
  8
FOREGROUND
  6
CONTINUOUS
 10
0.091355
 20
1.540090
  0
VERTEX
  8
FOREGROUND
  6
CONTINUOUS
 10
0.085786
 20
1.518840
  0
VERTEX
  8
FOREGROUND
  6
CONTINUOUS
 10
0.080604
 20
1.497436
  0
VERTEX
  8
FOREGROUND
  6
CONTINUOUS
 10
0.075812
 20
1.475881
  0
VERTEX
  8
FOREGROUND
  6
CONTINUOUS
 10
0.071415
 20
1.454181
  0
VERTEX
  8
FOREGROUND
  6
CONTINUOUS
 10
0.067415
 20
1.432338
  0
VERTEX
  8
FOREGROUND
  6
CONTINUOUS
 10
0.063819
 20
1.410356
  0
VERTEX
  8
FOREGROUND
  6
CONTINUOUS
 10
0.060628
 20
1.388241
  0
VERTEX
  8
FOREGROUND
  6
CONTINUOUS
 10
0.057848
 20
1.365995
  0
VERTEX
  8
FOREGROUND
  6
CONTINUOUS
 10
0.055481
 20
1.343622
  0
VERTEX
  8
FOREGROUND
  6
CONTINUOUS
 10
0.053533
 20
1.321127
  0
VERTEX
  8
FOREGROUND
  6
CONTINUOUS
 10
0.052007
 20
1.298513
  0
VERTEX
  8
FOREGROUND
  6
CONTINUOUS
 10
0.050907
 20
1.275785
  0
VERTEX
  8
FOREGROUND
  6
CONTINUOUS
 10
0.050237
 20
1.252946
  0
VERTEX
  8
FOREGROUND
  6
CONTINUOUS
 10
0.050000
 20
1.230000
  0
VERTEX
  8
FOREGROUND
  6
CONTINUOUS
 10
0.050000
 20
1.230000
  0
VERTEX
  8
FOREGROUND
  6
CONTINUOUS
 10
0.050237
 20
1.207051
  0
VERTEX
  8
FOREGROUND
  6
CONTINUOUS
 10
0.050907
 20
1.184209
  0
VERTEX
  8
FOREGROUND
  6
CONTINUOUS
 10
0.052008
 20
1.161478
  0
VERTEX
  8
FOREGROUND
  6
CONTINUOUS
 10
0.053534
 20
1.138861
  0
VERTEX
  8
FOREGROUND
  6
CONTINUOUS
 10
0.055483
 20
1.116363
  0
VERTEX
  8
FOREGROUND
  6
CONTINUOUS
 10
0.057850
 20
1.093988
  0
VERTEX
  8
FOREGROUND
  6
CONTINUOUS
 10
0.060631
 20
1.071739
  0
VERTEX
  8
FOREGROUND
  6
CONTINUOUS
 10
0.063822
 20
1.049621
  0
VERTEX
  8
FOREGROUND
  6
CONTINUOUS
 10
0.067420
 20
1.027637
  0
VERTEX
  8
FOREGROUND
  6
CONTINUOUS
 10
0.071420
 20
1.005792
  0
VERTEX
  8
FOREGROUND
  6
CONTINUOUS
 10
0.075818
 20
0.984088
  0
VERTEX
  8
FOREGROUND
  6
CONTINUOUS
 10
0.080611
 20
0.962532
  0
VERTEX
  8
FOREGROUND
  6
CONTINUOUS
 10
0.085795
 20
0.941125
  0
VERTEX
  8
FOREGROUND
  6
CONTINUOUS
 10
0.091365
 20
0.919872
  0
VERTEX
  8
FOREGROUND
  6
CONTINUOUS
 10
0.097318
 20
0.898778
  0
VERTEX
  8
FOREGROUND
  6
CONTINUOUS
 10
0.103650
 20
0.877845
  0
VERTEX
  8
FOREGROUND
  6
CONTINUOUS
 10
0.110356
 20
0.857079
  0
VERTEX
  8
FOREGROUND
  6
CONTINUOUS
 10
0.117434
 20
0.836482
  0
VERTEX
  8
FOREGROUND
  6
CONTINUOUS
 10
0.124878
 20
0.816059
  0
VERTEX
  8
FOREGROUND
  6
CONTINUOUS
 10
0.132686
 20
0.795814
  0
VERTEX
  8
FOREGROUND
  6
CONTINUOUS
 10
0.140852
 20
0.775751
  0
VERTEX
  8
FOREGROUND
  6
CONTINUOUS
 10
0.149373
 20
0.755873
  0
VERTEX
  8
FOREGROUND
  6
CONTINUOUS
 10
0.158246
 20
0.736185
  0
VERTEX
  8
FOREGROUND
  6
CONTINUOUS
 10
0.167466
 20
0.716691
  0
VERTEX
  8
FOREGROUND
  6
CONTINUOUS
 10
0.177029
 20
0.697393
  0
VERTEX
  8
FOREGROUND
  6
CONTINUOUS
 10
0.186932
 20
0.678298
  0
VERTEX
  8
FOREGROUND
  6
CONTINUOUS
 10
0.197170
 20
0.659408
  0
VERTEX
  8
FOREGROUND
  6
CONTINUOUS
 10
0.207739
 20
0.640727
  0
VERTEX
  8
FOREGROUND
  6
CONTINUOUS
 10
0.218636
 20
0.622259
  0
VERTEX
  8
FOREGROUND
  6
CONTINUOUS
 10
0.229857
 20
0.604008
  0
VERTEX
  8
FOREGROUND
  6
CONTINUOUS
 10
0.241397
 20
0.585979
  0
VERTEX
  8
FOREGROUND
  6
CONTINUOUS
 10
0.253253
 20
0.568175
  0
VERTEX
  8
FOREGROUND
  6
CONTINUOUS
 10
0.265420
 20
0.550599
  0
VERTEX
  8
FOREGROUND
  6
CONTINUOUS
 10
0.277896
 20
0.533257
  0
VERTEX
  8
FOREGROUND
  6
CONTINUOUS
 10
0.290675
 20
0.516151
  0
VERTEX
  8
FOREGROUND
  6
CONTINUOUS
 10
0.303754
 20
0.499287
  0
VERTEX
  8
FOREGROUND
  6
CONTINUOUS
 10
0.317130
 20
0.482667
  0
VERTEX
  8
FOREGROUND
  6
CONTINUOUS
 10
0.330797
 20
0.466296
  0
VERTEX
  8
FOREGROUND
  6
CONTINUOUS
 10
0.344753
 20
0.450177
  0
VERTEX
  8
FOREGROUND
  6
CONTINUOUS
 10
0.358992
 20
0.434315
  0
VERTEX
  8
FOREGROUND
  6
CONTINUOUS
 10
0.373512
 20
0.418714
  0
VERTEX
  8
FOREGROUND
  6
CONTINUOUS
 10
0.388308
 20
0.403377
  0
VERTEX
  8
FOREGROUND
  6
CONTINUOUS
 10
0.403377
 20
0.388308
  0
VERTEX
  8
FOREGROUND
  6
CONTINUOUS
 10
0.418714
 20
0.373512
  0
VERTEX
  8
FOREGROUND
  6
CONTINUOUS
 10
0.434315
 20
0.358992
  0
VERTEX
  8
FOREGROUND
  6
CONTINUOUS
 10
0.450177
 20
0.344753
  0
VERTEX
  8
FOREGROUND
  6
CONTINUOUS
 10
0.466296
 20
0.330797
  0
VERTEX
  8
FOREGROUND
  6
CONTINUOUS
 10
0.482667
 20
0.317130
  0
VERTEX
  8
FOREGROUND
  6
CONTINUOUS
 10
0.499287
 20
0.303754
  0
VERTEX
  8
FOREGROUND
  6
CONTINUOUS
 10
0.516151
 20
0.290675
  0
VERTEX
  8
FOREGROUND
  6
CONTINUOUS
 10
0.533257
 20
0.277896
  0
VERTEX
  8
FOREGROUND
  6
CONTINUOUS
 10
0.550599
 20
0.265420
  0
VERTEX
  8
FOREGROUND
  6
CONTINUOUS
 10
0.568175
 20
0.253253
  0
VERTEX
  8
FOREGROUND
  6
CONTINUOUS
 10
0.585979
 20
0.241397
  0
VERTEX
  8
FOREGROUND
  6
CONTINUOUS
 10
0.604008
 20
0.229857
  0
VERTEX
  8
FOREGROUND
  6
CONTINUOUS
 10
0.622259
 20
0.218636
  0
VERTEX
  8
FOREGROUND
  6
CONTINUOUS
 10
0.640727
 20
0.207739
  0
VERTEX
  8
FOREGROUND
  6
CONTINUOUS
 10
0.659408
 20
0.197170
  0
VERTEX
  8
FOREGROUND
  6
CONTINUOUS
 10
0.678298
 20
0.186932
  0
VERTEX
  8
FOREGROUND
  6
CONTINUOUS
 10
0.697393
 20
0.177029
  0
VERTEX
  8
FOREGROUND
  6
CONTINUOUS
 10
0.716691
 20
0.167466
  0
VERTEX
  8
FOREGROUND
  6
CONTINUOUS
 10
0.736185
 20
0.158246
  0
VERTEX
  8
FOREGROUND
  6
CONTINUOUS
 10
0.755873
 20
0.149373
  0
VERTEX
  8
FOREGROUND
  6
CONTINUOUS
 10
0.775751
 20
0.140852
  0
VERTEX
  8
FOREGROUND
  6
CONTINUOUS
 10
0.795814
 20
0.132686
  0
VERTEX
  8
FOREGROUND
  6
CONTINUOUS
 10
0.816059
 20
0.124878
  0
VERTEX
  8
FOREGROUND
  6
CONTINUOUS
 10
0.836482
 20
0.117434
  0
VERTEX
  8
FOREGROUND
  6
CONTINUOUS
 10
0.857079
 20
0.110356
  0
VERTEX
  8
FOREGROUND
  6
CONTINUOUS
 10
0.877845
 20
0.103650
  0
VERTEX
  8
FOREGROUND
  6
CONTINUOUS
 10
0.898778
 20
0.097318
  0
VERTEX
  8
FOREGROUND
  6
CONTINUOUS
 10
0.919872
 20
0.091365
  0
VERTEX
  8
FOREGROUND
  6
CONTINUOUS
 10
0.941125
 20
0.085795
  0
VERTEX
  8
FOREGROUND
  6
CONTINUOUS
 10
0.962532
 20
0.080611
  0
VERTEX
  8
FOREGROUND
  6
CONTINUOUS
 10
0.984088
 20
0.075818
  0
VERTEX
  8
FOREGROUND
  6
CONTINUOUS
 10
1.005792
 20
0.071420
  0
VERTEX
  8
FOREGROUND
  6
CONTINUOUS
 10
1.027637
 20
0.067420
  0
VERTEX
  8
FOREGROUND
  6
CONTINUOUS
 10
1.049621
 20
0.063822
  0
VERTEX
  8
FOREGROUND
  6
CONTINUOUS
 10
1.071739
 20
0.060631
  0
VERTEX
  8
FOREGROUND
  6
CONTINUOUS
 10
1.093988
 20
0.057850
  0
VERTEX
  8
FOREGROUND
  6
CONTINUOUS
 10
1.116363
 20
0.055483
  0
VERTEX
  8
FOREGROUND
  6
CONTINUOUS
 10
1.138861
 20
0.053534
  0
VERTEX
  8
FOREGROUND
  6
CONTINUOUS
 10
1.161478
 20
0.052008
  0
VERTEX
  8
FOREGROUND
  6
CONTINUOUS
 10
1.184209
 20
0.050907
  0
VERTEX
  8
FOREGROUND
  6
CONTINUOUS
 10
1.207051
 20
0.050237
  0
VERTEX
  8
FOREGROUND
  6
CONTINUOUS
 10
1.230000
 20
0.050000
  0
SEQEND
  8
0
  0
ENDSEC
  0
EOF
