  0
SECTION
  2
HEADER
  9
$ACADVER
  1
AC1006
  9
$EXTMIN
 10
0.000000
 20
0.000000
  9
$EXTMAX
 10
4.833333
 20
2.066667
  9
$LTSCALE
 40
0.166667
  9
$PDMODE
 70
    35
  9
$PDSIZE
 40
0.133333
  0
ENDSEC
  0
SECTION
  2
TABLES
  0
TABLE
  2
LTYPE
 70
     9
  0
LTYPE
  2
CONTINUOUS
 70
    64
  3
Solid line
 72
    65
 73
     0
 40
0.000000
  0
LTYPE
  2
DASHED
 70
    64
  3
__ __ __ __ __ __ __ __ __ __ __ __ __ __ __
 72
    65
 73
     2
 40
0.001250
 49
0.000833
 49
-0.000417
  0
LTYPE
  2
HIDDEN
 70
    64
  3
 _ _ _ _ _ _ _ _ _ _ _ _ _ _ _ _ _ _ _ _ _ _
 72
    65
 73
     2
 40
0.000625
 49
0.000417
 49
-0.000208
  0
LTYPE
  2
CENTER
 70
    64
  3
____ _ ____ _ ____ _ ____ _ ____ _ ____ _ ____
 72
    65
 73
     4
 40
0.003333
 49
0.002083
 49
-0.000417
 49
0.000417
 49
-0.000417
  0
LTYPE
  2
PHANTOM
 70
    64
  3
_____ _ _ _____ _ _ _____ _ _ _____ _ _ ____
 72
    65
 73
     6
 40
0.004167
 49
0.002083
 49
-0.000417
 49
0.000417
 49
-0.000417
 49
0.000417
 49
-0.000417
  0
LTYPE
  2
DOT
 70
    64
  3
...............................................
 72
    65
 73
     2
 40
0.000417
 49
0.000000
 49
-0.000417
  0
LTYPE
  2
DASHDOT
 70
    64
  3
__ . __ . __ . __ . __ . __ . __ . __ . __ . __
 72
    65
 73
     4
 40
0.001667
 49
0.000833
 49
-0.000417
 49
0.000000
 49
-0.000417
  0
LTYPE
  2
BORDER
 70
    64
  3
__ __ . __ __ . __ __ . __ __ . __ __ . __ __
 72
    65
 73
     6
 40
0.002917
 49
0.000833
 49
-0.000417
 49
0.000833
 49
-0.000417
 49
0.000000
 49
-0.000417
  0
LTYPE
  2
DIVIDE
 70
    64
  3
__ . . __ . . __ . . __ . . __ . . __ . . __
 72
    65
 73
     6
 40
0.002083
 49
0.000833
 49
-0.000417
 49
0.000000
 49
-0.000417
 49
0.000000
 49
-0.000417
  0
LTYPE
  2
DOTDOT
 70
    64
  3
 . .  . .  . .  . .  . .  . . 
 72
    65
 73
     5
 40
0.000917
 49
-0.000417
 49
0.000000
 49
-0.000417
 49
0.000000
 49
-0.000417
  0
ENDTAB
  0
TABLE
  2
STYLE
 70
     2
  0
STYLE
 70
     0
  2
SN0
 40
0.000000
 41
0.001667
 50
0.000000
 71
     0
 42
0.000000
  3
ROMAND
  0
STYLE
 70
    68
  2
SV0
 40
0.000000
 41
0.001667
 50
0.000000
 71
     0
 42
0.000000
  3
ROMAND
  0
ENDTAB
  0
TABLE
  2
LAYER
 70
     2
  0
LAYER
  2
FOREGROUND
 70
    64
 62
     7
  6
CONTINUOUS
  0
LAYER
  2
BACKGROUND
 70
    65
 62
    -7
  6
CONTINUOUS
  0
ENDTAB
  0
ENDSEC
  0
SECTION
  2
ENTITIES
  0
POLYLINE
  8
FOREGROUND
  6
CONTINUOUS
 66
     1
 40
0.010000
 41
0.010000
 70
     1
  0
VERTEX
  8
FOREGROUND
  6
CONTINUOUS
 10
3.800000
 20
0.050000
  0
VERTEX
  8
FOREGROUND
  6
CONTINUOUS
 10
3.825782
 20
0.050351
  0
VERTEX
  8
FOREGROUND
  6
CONTINUOUS
 10
3.851399
 20
0.051359
  0
VERTEX
  8
FOREGROUND
  6
CONTINUOUS
 10
3.876844
 20
0.053015
  0
VERTEX
  8
FOREGROUND
  6
CONTINUOUS
 10
3.902109
 20
0.055310
  0
VERTEX
  8
FOREGROUND
  6
CONTINUOUS
 10
3.927185
 20
0.058238
  0
VERTEX
  8
FOREGROUND
  6
CONTINUOUS
 10
3.952066
 20
0.061789
  0
VERTEX
  8
FOREGROUND
  6
CONTINUOUS
 10
3.976741
 20
0.065957
  0
VERTEX
  8
FOREGROUND
  6
CONTINUOUS
 10
4.001204
 20
0.070732
  0
VERTEX
  8
FOREGROUND
  6
CONTINUOUS
 10
4.025447
 20
0.076107
  0
VERTEX
  8
FOREGROUND
  6
CONTINUOUS
 10
4.049460
 20
0.082073
  0
VERTEX
  8
FOREGROUND
  6
CONTINUOUS
 10
4.073237
 20
0.088623
  0
VERTEX
  8
FOREGROUND
  6
CONTINUOUS
 10
4.096769
 20
0.095749
  0
VERTEX
  8
FOREGROUND
  6
CONTINUOUS
 10
4.120049
 20
0.103442
  0
VERTEX
  8
FOREGROUND
  6
CONTINUOUS
 10
4.143067
 20
0.111694
  0
VERTEX
  8
FOREGROUND
  6
CONTINUOUS
 10
4.165816
 20
0.120498
  0
VERTEX
  8
FOREGROUND
  6
CONTINUOUS
 10
4.188288
 20
0.129845
  0
VERTEX
  8
FOREGROUND
  6
CONTINUOUS
 10
4.210476
 20
0.139727
  0
VERTEX
  8
FOREGROUND
  6
CONTINUOUS
 10
4.232369
 20
0.150136
  0
VERTEX
  8
FOREGROUND
  6
CONTINUOUS
 10
4.253962
 20
0.161065
  0
VERTEX
  8
FOREGROUND
  6
CONTINUOUS
 10
4.275245
 20
0.172504
  0
VERTEX
  8
FOREGROUND
  6
CONTINUOUS
 10
4.296211
 20
0.184446
  0
VERTEX
  8
FOREGROUND
  6
CONTINUOUS
 10
4.316851
 20
0.196883
  0
VERTEX
  8
FOREGROUND
  6
CONTINUOUS
 10
4.337158
 20
0.209807
  0
VERTEX
  8
FOREGROUND
  6
CONTINUOUS
 10
4.357123
 20
0.223210
  0
VERTEX
  8
FOREGROUND
  6
CONTINUOUS
 10
4.376739
 20
0.237083
  0
VERTEX
  8
FOREGROUND
  6
CONTINUOUS
 10
4.395997
 20
0.251419
  0
VERTEX
  8
FOREGROUND
  6
CONTINUOUS
 10
4.414889
 20
0.266209
  0
VERTEX
  8
FOREGROUND
  6
CONTINUOUS
 10
4.433407
 20
0.281446
  0
VERTEX
  8
FOREGROUND
  6
CONTINUOUS
 10
4.451543
 20
0.297121
  0
VERTEX
  8
FOREGROUND
  6
CONTINUOUS
 10
4.469289
 20
0.313226
  0
VERTEX
  8
FOREGROUND
  6
CONTINUOUS
 10
4.486637
 20
0.329754
  0
VERTEX
  8
FOREGROUND
  6
CONTINUOUS
 10
4.503579
 20
0.346696
  0
VERTEX
  8
FOREGROUND
  6
CONTINUOUS
 10
4.520107
 20
0.364044
  0
VERTEX
  8
FOREGROUND
  6
CONTINUOUS
 10
4.536212
 20
0.381790
  0
VERTEX
  8
FOREGROUND
  6
CONTINUOUS
 10
4.551888
 20
0.399927
  0
VERTEX
  8
FOREGROUND
  6
CONTINUOUS
 10
4.567124
 20
0.418445
  0
VERTEX
  8
FOREGROUND
  6
CONTINUOUS
 10
4.581915
 20
0.437337
  0
VERTEX
  8
FOREGROUND
  6
CONTINUOUS
 10
4.596251
 20
0.456594
  0
VERTEX
  8
FOREGROUND
  6
CONTINUOUS
 10
4.610124
 20
0.476210
  0
VERTEX
  8
FOREGROUND
  6
CONTINUOUS
 10
4.623526
 20
0.496175
  0
VERTEX
  8
FOREGROUND
  6
CONTINUOUS
 10
4.636450
 20
0.516482
  0
VERTEX
  8
FOREGROUND
  6
CONTINUOUS
 10
4.648887
 20
0.537122
  0
VERTEX
  8
FOREGROUND
  6
CONTINUOUS
 10
4.660829
 20
0.558088
  0
VERTEX
  8
FOREGROUND
  6
CONTINUOUS
 10
4.672269
 20
0.579371
  0
VERTEX
  8
FOREGROUND
  6
CONTINUOUS
 10
4.683197
 20
0.600964
  0
VERTEX
  8
FOREGROUND
  6
CONTINUOUS
 10
4.693606
 20
0.622858
  0
VERTEX
  8
FOREGROUND
  6
CONTINUOUS
 10
4.703488
 20
0.645045
  0
VERTEX
  8
FOREGROUND
  6
CONTINUOUS
 10
4.712835
 20
0.667517
  0
VERTEX
  8
FOREGROUND
  6
CONTINUOUS
 10
4.721639
 20
0.690266
  0
VERTEX
  8
FOREGROUND
  6
CONTINUOUS
 10
4.729891
 20
0.713285
  0
VERTEX
  8
FOREGROUND
  6
CONTINUOUS
 10
4.737584
 20
0.736564
  0
VERTEX
  8
FOREGROUND
  6
CONTINUOUS
 10
4.744710
 20
0.760096
  0
VERTEX
  8
FOREGROUND
  6
CONTINUOUS
 10
4.751260
 20
0.783873
  0
VERTEX
  8
FOREGROUND
  6
CONTINUOUS
 10
4.757227
 20
0.807887
  0
VERTEX
  8
FOREGROUND
  6
CONTINUOUS
 10
4.762601
 20
0.832129
  0
VERTEX
  8
FOREGROUND
  6
CONTINUOUS
 10
4.767377
 20
0.856592
  0
VERTEX
  8
FOREGROUND
  6
CONTINUOUS
 10
4.771544
 20
0.881268
  0
VERTEX
  8
FOREGROUND
  6
CONTINUOUS
 10
4.775096
 20
0.906148
  0
VERTEX
  8
FOREGROUND
  6
CONTINUOUS
 10
4.778023
 20
0.931224
  0
VERTEX
  8
FOREGROUND
  6
CONTINUOUS
 10
4.780319
 20
0.956489
  0
VERTEX
  8
FOREGROUND
  6
CONTINUOUS
 10
4.781974
 20
0.981934
  0
VERTEX
  8
FOREGROUND
  6
CONTINUOUS
 10
4.782982
 20
1.007552
  0
VERTEX
  8
FOREGROUND
  6
CONTINUOUS
 10
4.783333
 20
1.033333
  0
VERTEX
  8
FOREGROUND
  6
CONTINUOUS
 10
4.783333
 20
1.033333
  0
VERTEX
  8
FOREGROUND
  6
CONTINUOUS
 10
4.782982
 20
1.059118
  0
VERTEX
  8
FOREGROUND
  6
CONTINUOUS
 10
4.781974
 20
1.084739
  0
VERTEX
  8
FOREGROUND
  6
CONTINUOUS
 10
4.780318
 20
1.110187
  0
VERTEX
  8
FOREGROUND
  6
CONTINUOUS
 10
4.778022
 20
1.135455
  0
VERTEX
  8
FOREGROUND
  6
CONTINUOUS
 10
4.775093
 20
1.160535
  0
VERTEX
  8
FOREGROUND
  6
CONTINUOUS
 10
4.771541
 20
1.185418
  0
VERTEX
  8
FOREGROUND
  6
CONTINUOUS
 10
4.767373
 20
1.210097
  0
VERTEX
  8
FOREGROUND
  6
CONTINUOUS
 10
4.762596
 20
1.234562
  0
VERTEX
  8
FOREGROUND
  6
CONTINUOUS
 10
4.757220
 20
1.258808
  0
VERTEX
  8
FOREGROUND
  6
CONTINUOUS
 10
4.751252
 20
1.282824
  0
VERTEX
  8
FOREGROUND
  6
CONTINUOUS
 10
4.744701
 20
1.306604
  0
VERTEX
  8
FOREGROUND
  6
CONTINUOUS
 10
4.737573
 20
1.330138
  0
VERTEX
  8
FOREGROUND
  6
CONTINUOUS
 10
4.729879
 20
1.353420
  0
VERTEX
  8
FOREGROUND
  6
CONTINUOUS
 10
4.721624
 20
1.376441
  0
VERTEX
  8
FOREGROUND
  6
CONTINUOUS
 10
4.712819
 20
1.399192
  0
VERTEX
  8
FOREGROUND
  6
CONTINUOUS
 10
4.703469
 20
1.421666
  0
VERTEX
  8
FOREGROUND
  6
CONTINUOUS
 10
4.693585
 20
1.443856
  0
VERTEX
  8
FOREGROUND
  6
CONTINUOUS
 10
4.683173
 20
1.465751
  0
VERTEX
  8
FOREGROUND
  6
CONTINUOUS
 10
4.672243
 20
1.487346
  0
VERTEX
  8
FOREGROUND
  6
CONTINUOUS
 10
4.660801
 20
1.508631
  0
VERTEX
  8
FOREGROUND
  6
CONTINUOUS
 10
4.648856
 20
1.529598
  0
VERTEX
  8
FOREGROUND
  6
CONTINUOUS
 10
4.636416
 20
1.550240
  0
VERTEX
  8
FOREGROUND
  6
CONTINUOUS
 10
4.623489
 20
1.570548
  0
VERTEX
  8
FOREGROUND
  6
CONTINUOUS
 10
4.610084
 20
1.590515
  0
VERTEX
  8
FOREGROUND
  6
CONTINUOUS
 10
4.596208
 20
1.610132
  0
VERTEX
  8
FOREGROUND
  6
CONTINUOUS
 10
4.581869
 20
1.629391
  0
VERTEX
  8
FOREGROUND
  6
CONTINUOUS
 10
4.567075
 20
1.648283
  0
VERTEX
  8
FOREGROUND
  6
CONTINUOUS
 10
4.551835
 20
1.666802
  0
VERTEX
  8
FOREGROUND
  6
CONTINUOUS
 10
4.536157
 20
1.684939
  0
VERTEX
  8
FOREGROUND
  6
CONTINUOUS
 10
4.520048
 20
1.702686
  0
VERTEX
  8
FOREGROUND
  6
CONTINUOUS
 10
4.503516
 20
1.720035
  0
VERTEX
  8
FOREGROUND
  6
CONTINUOUS
 10
4.486571
 20
1.736977
  0
VERTEX
  8
FOREGROUND
  6
CONTINUOUS
 10
4.469219
 20
1.753505
  0
VERTEX
  8
FOREGROUND
  6
CONTINUOUS
 10
4.451470
 20
1.769611
  0
VERTEX
  8
FOREGROUND
  6
CONTINUOUS
 10
4.433330
 20
1.785286
  0
VERTEX
  8
FOREGROUND
  6
CONTINUOUS
 10
4.414808
 20
1.800522
  0
VERTEX
  8
FOREGROUND
  6
CONTINUOUS
 10
4.395912
 20
1.815312
  0
VERTEX
  8
FOREGROUND
  6
CONTINUOUS
 10
4.376651
 20
1.829648
  0
VERTEX
  8
FOREGROUND
  6
CONTINUOUS
 10
4.357031
 20
1.843520
  0
VERTEX
  8
FOREGROUND
  6
CONTINUOUS
 10
4.337062
 20
1.856922
  0
VERTEX
  8
FOREGROUND
  6
CONTINUOUS
 10
4.316752
 20
1.869845
  0
VERTEX
  8
FOREGROUND
  6
CONTINUOUS
 10
4.296108
 20
1.882281
  0
VERTEX
  8
FOREGROUND
  6
CONTINUOUS
 10
4.275138
 20
1.894222
  0
VERTEX
  8
FOREGROUND
  6
CONTINUOUS
 10
4.253851
 20
1.905660
  0
VERTEX
  8
FOREGROUND
  6
CONTINUOUS
 10
4.232254
 20
1.916587
  0
VERTEX
  8
FOREGROUND
  6
CONTINUOUS
 10
4.210357
 20
1.926994
  0
VERTEX
  8
FOREGROUND
  6
CONTINUOUS
 10
4.188166
 20
1.936875
  0
VERTEX
  8
FOREGROUND
  6
CONTINUOUS
 10
4.165690
 20
1.946220
  0
VERTEX
  8
FOREGROUND
  6
CONTINUOUS
 10
4.142936
 20
1.955021
  0
VERTEX
  8
FOREGROUND
  6
CONTINUOUS
 10
4.119914
 20
1.963271
  0
VERTEX
  8
FOREGROUND
  6
CONTINUOUS
 10
4.096631
 20
1.970962
  0
VERTEX
  8
FOREGROUND
  6
CONTINUOUS
 10
4.073095
 20
1.978085
  0
VERTEX
  8
FOREGROUND
  6
CONTINUOUS
 10
4.049314
 20
1.984632
  0
VERTEX
  8
FOREGROUND
  6
CONTINUOUS
 10
4.025297
 20
1.990595
  0
VERTEX
  8
FOREGROUND
  6
CONTINUOUS
 10
4.001051
 20
1.995967
  0
VERTEX
  8
FOREGROUND
  6
CONTINUOUS
 10
3.976584
 20
2.000739
  0
VERTEX
  8
FOREGROUND
  6
CONTINUOUS
 10
3.951905
 20
2.004903
  0
VERTEX
  8
FOREGROUND
  6
CONTINUOUS
 10
3.927021
 20
2.008450
  0
VERTEX
  8
FOREGROUND
  6
CONTINUOUS
 10
3.901941
 20
2.011374
  0
VERTEX
  8
FOREGROUND
  6
CONTINUOUS
 10
3.876672
 20
2.013666
  0
VERTEX
  8
FOREGROUND
  6
CONTINUOUS
 10
3.851224
 20
2.015317
  0
VERTEX
  8
FOREGROUND
  6
CONTINUOUS
 10
3.825603
 20
2.016320
  0
VERTEX
  8
FOREGROUND
  6
CONTINUOUS
 10
3.799818
 20
2.016667
  0
VERTEX
  8
FOREGROUND
  6
CONTINUOUS
 10
1.033151
 20
2.016667
  0
VERTEX
  8
FOREGROUND
  6
CONTINUOUS
 10
1.007373
 20
2.016311
  0
VERTEX
  8
FOREGROUND
  6
CONTINUOUS
 10
0.981759
 20
2.015299
  0
VERTEX
  8
FOREGROUND
  6
CONTINUOUS
 10
0.956317
 20
2.013639
  0
VERTEX
  8
FOREGROUND
  6
CONTINUOUS
 10
0.931056
 20
2.011339
  0
VERTEX
  8
FOREGROUND
  6
CONTINUOUS
 10
0.905983
 20
2.008407
  0
VERTEX
  8
FOREGROUND
  6
CONTINUOUS
 10
0.881107
 20
2.004852
  0
VERTEX
  8
FOREGROUND
  6
CONTINUOUS
 10
0.856435
 20
2.000681
  0
VERTEX
  8
FOREGROUND
  6
CONTINUOUS
 10
0.831976
 20
1.995903
  0
VERTEX
  8
FOREGROUND
  6
CONTINUOUS
 10
0.807737
 20
1.990525
  0
VERTEX
  8
FOREGROUND
  6
CONTINUOUS
 10
0.783727
 20
1.984555
  0
VERTEX
  8
FOREGROUND
  6
CONTINUOUS
 10
0.759954
 20
1.978002
  0
VERTEX
  8
FOREGROUND
  6
CONTINUOUS
 10
0.736426
 20
1.970874
  0
VERTEX
  8
FOREGROUND
  6
CONTINUOUS
 10
0.713150
 20
1.963178
  0
VERTEX
  8
FOREGROUND
  6
CONTINUOUS
 10
0.690136
 20
1.954924
  0
VERTEX
  8
FOREGROUND
  6
CONTINUOUS
 10
0.667390
 20
1.946118
  0
VERTEX
  8
FOREGROUND
  6
CONTINUOUS
 10
0.644922
 20
1.936769
  0
VERTEX
  8
FOREGROUND
  6
CONTINUOUS
 10
0.622739
 20
1.926885
  0
VERTEX
  8
FOREGROUND
  6
CONTINUOUS
 10
0.600849
 20
1.916474
  0
VERTEX
  8
FOREGROUND
  6
CONTINUOUS
 10
0.579260
 20
1.905544
  0
VERTEX
  8
FOREGROUND
  6
CONTINUOUS
 10
0.557981
 20
1.894103
  0
VERTEX
  8
FOREGROUND
  6
CONTINUOUS
 10
0.537019
 20
1.882160
  0
VERTEX
  8
FOREGROUND
  6
CONTINUOUS
 10
0.516383
 20
1.869722
  0
VERTEX
  8
FOREGROUND
  6
CONTINUOUS
 10
0.496080
 20
1.856797
  0
VERTEX
  8
FOREGROUND
  6
CONTINUOUS
 10
0.476118
 20
1.843394
  0
VERTEX
  8
FOREGROUND
  6
CONTINUOUS
 10
0.456506
 20
1.829520
  0
VERTEX
  8
FOREGROUND
  6
CONTINUOUS
 10
0.437252
 20
1.815184
  0
VERTEX
  8
FOREGROUND
  6
CONTINUOUS
 10
0.418364
 20
1.800393
  0
VERTEX
  8
FOREGROUND
  6
CONTINUOUS
 10
0.399850
 20
1.785156
  0
VERTEX
  8
FOREGROUND
  6
CONTINUOUS
 10
0.381717
 20
1.769481
  0
VERTEX
  8
FOREGROUND
  6
CONTINUOUS
 10
0.363975
 20
1.753375
  0
VERTEX
  8
FOREGROUND
  6
CONTINUOUS
 10
0.346630
 20
1.736848
  0
VERTEX
  8
FOREGROUND
  6
CONTINUOUS
 10
0.329692
 20
1.719906
  0
VERTEX
  8
FOREGROUND
  6
CONTINUOUS
 10
0.313167
 20
1.702559
  0
VERTEX
  8
FOREGROUND
  6
CONTINUOUS
 10
0.297065
 20
1.684813
  0
VERTEX
  8
FOREGROUND
  6
CONTINUOUS
 10
0.281393
 20
1.666678
  0
VERTEX
  8
FOREGROUND
  6
CONTINUOUS
 10
0.266160
 20
1.648160
  0
VERTEX
  8
FOREGROUND
  6
CONTINUOUS
 10
0.251372
 20
1.629269
  0
VERTEX
  8
FOREGROUND
  6
CONTINUOUS
 10
0.237040
 20
1.610013
  0
VERTEX
  8
FOREGROUND
  6
CONTINUOUS
 10
0.223170
 20
1.590398
  0
VERTEX
  8
FOREGROUND
  6
CONTINUOUS
 10
0.209770
 20
1.570435
  0
VERTEX
  8
FOREGROUND
  6
CONTINUOUS
 10
0.196849
 20
1.550129
  0
VERTEX
  8
FOREGROUND
  6
CONTINUOUS
 10
0.184415
 20
1.529490
  0
VERTEX
  8
FOREGROUND
  6
CONTINUOUS
 10
0.172475
 20
1.508526
  0
VERTEX
  8
FOREGROUND
  6
CONTINUOUS
 10
0.161038
 20
1.487245
  0
VERTEX
  8
FOREGROUND
  6
CONTINUOUS
 10
0.150113
 20
1.465654
  0
VERTEX
  8
FOREGROUND
  6
CONTINUOUS
 10
0.139706
 20
1.443762
  0
VERTEX
  8
FOREGROUND
  6
CONTINUOUS
 10
0.129826
 20
1.421577
  0
VERTEX
  8
FOREGROUND
  6
CONTINUOUS
 10
0.120481
 20
1.399107
  0
VERTEX
  8
FOREGROUND
  6
CONTINUOUS
 10
0.111679
 20
1.376360
  0
VERTEX
  8
FOREGROUND
  6
CONTINUOUS
 10
0.103429
 20
1.353344
  0
VERTEX
  8
FOREGROUND
  6
CONTINUOUS
 10
0.095738
 20
1.330067
  0
VERTEX
  8
FOREGROUND
  6
CONTINUOUS
 10
0.088614
 20
1.306538
  0
VERTEX
  8
FOREGROUND
  6
CONTINUOUS
 10
0.082065
 20
1.282763
  0
VERTEX
  8
FOREGROUND
  6
CONTINUOUS
 10
0.076100
 20
1.258752
  0
VERTEX
  8
FOREGROUND
  6
CONTINUOUS
 10
0.070727
 20
1.234513
  0
VERTEX
  8
FOREGROUND
  6
CONTINUOUS
 10
0.065953
 20
1.210052
  0
VERTEX
  8
FOREGROUND
  6
CONTINUOUS
 10
0.061786
 20
1.185380
  0
VERTEX
  8
FOREGROUND
  6
CONTINUOUS
 10
0.058236
 20
1.160503
  0
VERTEX
  8
FOREGROUND
  6
CONTINUOUS
 10
0.055309
 20
1.135429
  0
VERTEX
  8
FOREGROUND
  6
CONTINUOUS
 10
0.053014
 20
1.110168
  0
VERTEX
  8
FOREGROUND
  6
CONTINUOUS
 10
0.051359
 20
1.084726
  0
VERTEX
  8
FOREGROUND
  6
CONTINUOUS
 10
0.050351
 20
1.059112
  0
VERTEX
  8
FOREGROUND
  6
CONTINUOUS
 10
0.050000
 20
1.033333
  0
VERTEX
  8
FOREGROUND
  6
CONTINUOUS
 10
0.050000
 20
1.033333
  0
VERTEX
  8
FOREGROUND
  6
CONTINUOUS
 10
0.050351
 20
1.007552
  0
VERTEX
  8
FOREGROUND
  6
CONTINUOUS
 10
0.051359
 20
0.981934
  0
VERTEX
  8
FOREGROUND
  6
CONTINUOUS
 10
0.053015
 20
0.956489
  0
VERTEX
  8
FOREGROUND
  6
CONTINUOUS
 10
0.055310
 20
0.931224
  0
VERTEX
  8
FOREGROUND
  6
CONTINUOUS
 10
0.058238
 20
0.906148
  0
VERTEX
  8
FOREGROUND
  6
CONTINUOUS
 10
0.061789
 20
0.881268
  0
VERTEX
  8
FOREGROUND
  6
CONTINUOUS
 10
0.065957
 20
0.856592
  0
VERTEX
  8
FOREGROUND
  6
CONTINUOUS
 10
0.070732
 20
0.832129
  0
VERTEX
  8
FOREGROUND
  6
CONTINUOUS
 10
0.076107
 20
0.807887
  0
VERTEX
  8
FOREGROUND
  6
CONTINUOUS
 10
0.082073
 20
0.783873
  0
VERTEX
  8
FOREGROUND
  6
CONTINUOUS
 10
0.088623
 20
0.760096
  0
VERTEX
  8
FOREGROUND
  6
CONTINUOUS
 10
0.095749
 20
0.736564
  0
VERTEX
  8
FOREGROUND
  6
CONTINUOUS
 10
0.103442
 20
0.713285
  0
VERTEX
  8
FOREGROUND
  6
CONTINUOUS
 10
0.111694
 20
0.690266
  0
VERTEX
  8
FOREGROUND
  6
CONTINUOUS
 10
0.120498
 20
0.667517
  0
VERTEX
  8
FOREGROUND
  6
CONTINUOUS
 10
0.129845
 20
0.645045
  0
VERTEX
  8
FOREGROUND
  6
CONTINUOUS
 10
0.139727
 20
0.622858
  0
VERTEX
  8
FOREGROUND
  6
CONTINUOUS
 10
0.150136
 20
0.600964
  0
VERTEX
  8
FOREGROUND
  6
CONTINUOUS
 10
0.161065
 20
0.579371
  0
VERTEX
  8
FOREGROUND
  6
CONTINUOUS
 10
0.172504
 20
0.558088
  0
VERTEX
  8
FOREGROUND
  6
CONTINUOUS
 10
0.184446
 20
0.537122
  0
VERTEX
  8
FOREGROUND
  6
CONTINUOUS
 10
0.196883
 20
0.516482
  0
VERTEX
  8
FOREGROUND
  6
CONTINUOUS
 10
0.209807
 20
0.496175
  0
VERTEX
  8
FOREGROUND
  6
CONTINUOUS
 10
0.223210
 20
0.476210
  0
VERTEX
  8
FOREGROUND
  6
CONTINUOUS
 10
0.237083
 20
0.456594
  0
VERTEX
  8
FOREGROUND
  6
CONTINUOUS
 10
0.251419
 20
0.437337
  0
VERTEX
  8
FOREGROUND
  6
CONTINUOUS
 10
0.266209
 20
0.418445
  0
VERTEX
  8
FOREGROUND
  6
CONTINUOUS
 10
0.281446
 20
0.399927
  0
VERTEX
  8
FOREGROUND
  6
CONTINUOUS
 10
0.297121
 20
0.381790
  0
VERTEX
  8
FOREGROUND
  6
CONTINUOUS
 10
0.313226
 20
0.364044
  0
VERTEX
  8
FOREGROUND
  6
CONTINUOUS
 10
0.329754
 20
0.346696
  0
VERTEX
  8
FOREGROUND
  6
CONTINUOUS
 10
0.346696
 20
0.329754
  0
VERTEX
  8
FOREGROUND
  6
CONTINUOUS
 10
0.364044
 20
0.313226
  0
VERTEX
  8
FOREGROUND
  6
CONTINUOUS
 10
0.381790
 20
0.297121
  0
VERTEX
  8
FOREGROUND
  6
CONTINUOUS
 10
0.399927
 20
0.281446
  0
VERTEX
  8
FOREGROUND
  6
CONTINUOUS
 10
0.418445
 20
0.266209
  0
VERTEX
  8
FOREGROUND
  6
CONTINUOUS
 10
0.437337
 20
0.251419
  0
VERTEX
  8
FOREGROUND
  6
CONTINUOUS
 10
0.456594
 20
0.237083
  0
VERTEX
  8
FOREGROUND
  6
CONTINUOUS
 10
0.476210
 20
0.223210
  0
VERTEX
  8
FOREGROUND
  6
CONTINUOUS
 10
0.496175
 20
0.209807
  0
VERTEX
  8
FOREGROUND
  6
CONTINUOUS
 10
0.516482
 20
0.196883
  0
VERTEX
  8
FOREGROUND
  6
CONTINUOUS
 10
0.537122
 20
0.184446
  0
VERTEX
  8
FOREGROUND
  6
CONTINUOUS
 10
0.558088
 20
0.172504
  0
VERTEX
  8
FOREGROUND
  6
CONTINUOUS
 10
0.579371
 20
0.161065
  0
VERTEX
  8
FOREGROUND
  6
CONTINUOUS
 10
0.600964
 20
0.150136
  0
VERTEX
  8
FOREGROUND
  6
CONTINUOUS
 10
0.622858
 20
0.139727
  0
VERTEX
  8
FOREGROUND
  6
CONTINUOUS
 10
0.645045
 20
0.129845
  0
VERTEX
  8
FOREGROUND
  6
CONTINUOUS
 10
0.667517
 20
0.120498
  0
VERTEX
  8
FOREGROUND
  6
CONTINUOUS
 10
0.690266
 20
0.111694
  0
VERTEX
  8
FOREGROUND
  6
CONTINUOUS
 10
0.713285
 20
0.103442
  0
VERTEX
  8
FOREGROUND
  6
CONTINUOUS
 10
0.736564
 20
0.095749
  0
VERTEX
  8
FOREGROUND
  6
CONTINUOUS
 10
0.760096
 20
0.088623
  0
VERTEX
  8
FOREGROUND
  6
CONTINUOUS
 10
0.783873
 20
0.082073
  0
VERTEX
  8
FOREGROUND
  6
CONTINUOUS
 10
0.807887
 20
0.076107
  0
VERTEX
  8
FOREGROUND
  6
CONTINUOUS
 10
0.832129
 20
0.070732
  0
VERTEX
  8
FOREGROUND
  6
CONTINUOUS
 10
0.856592
 20
0.065957
  0
VERTEX
  8
FOREGROUND
  6
CONTINUOUS
 10
0.881268
 20
0.061789
  0
VERTEX
  8
FOREGROUND
  6
CONTINUOUS
 10
0.906148
 20
0.058238
  0
VERTEX
  8
FOREGROUND
  6
CONTINUOUS
 10
0.931224
 20
0.055310
  0
VERTEX
  8
FOREGROUND
  6
CONTINUOUS
 10
0.956489
 20
0.053015
  0
VERTEX
  8
FOREGROUND
  6
CONTINUOUS
 10
0.981934
 20
0.051359
  0
VERTEX
  8
FOREGROUND
  6
CONTINUOUS
 10
1.007552
 20
0.050351
  0
VERTEX
  8
FOREGROUND
  6
CONTINUOUS
 10
1.033333
 20
0.050000
  0
SEQEND
  8
0
  0
ENDSEC
  0
EOF
