  0
SECTION
  2
HEADER
  9
$ACADVER
  1
AC1006
  9
$EXTMIN
 10
0.000000
 20
0.000000
  9
$EXTMAX
 10
4.833333
 20
2.460000
  9
$LTSCALE
 40
0.166667
  9
$PDMODE
 70
    35
  9
$PDSIZE
 40
0.133333
  0
ENDSEC
  0
SECTION
  2
TABLES
  0
TABLE
  2
LTYPE
 70
     9
  0
LTYPE
  2
CONTINUOUS
 70
    64
  3
Solid line
 72
    65
 73
     0
 40
0.000000
  0
LTYPE
  2
DASHED
 70
    64
  3
__ __ __ __ __ __ __ __ __ __ __ __ __ __ __
 72
    65
 73
     2
 40
0.001250
 49
0.000833
 49
-0.000417
  0
LTYPE
  2
HIDDEN
 70
    64
  3
 _ _ _ _ _ _ _ _ _ _ _ _ _ _ _ _ _ _ _ _ _ _
 72
    65
 73
     2
 40
0.000625
 49
0.000417
 49
-0.000208
  0
LTYPE
  2
CENTER
 70
    64
  3
____ _ ____ _ ____ _ ____ _ ____ _ ____ _ ____
 72
    65
 73
     4
 40
0.003333
 49
0.002083
 49
-0.000417
 49
0.000417
 49
-0.000417
  0
LTYPE
  2
PHANTOM
 70
    64
  3
_____ _ _ _____ _ _ _____ _ _ _____ _ _ ____
 72
    65
 73
     6
 40
0.004167
 49
0.002083
 49
-0.000417
 49
0.000417
 49
-0.000417
 49
0.000417
 49
-0.000417
  0
LTYPE
  2
DOT
 70
    64
  3
...............................................
 72
    65
 73
     2
 40
0.000417
 49
0.000000
 49
-0.000417
  0
LTYPE
  2
DASHDOT
 70
    64
  3
__ . __ . __ . __ . __ . __ . __ . __ . __ . __
 72
    65
 73
     4
 40
0.001667
 49
0.000833
 49
-0.000417
 49
0.000000
 49
-0.000417
  0
LTYPE
  2
BORDER
 70
    64
  3
__ __ . __ __ . __ __ . __ __ . __ __ . __ __
 72
    65
 73
     6
 40
0.002917
 49
0.000833
 49
-0.000417
 49
0.000833
 49
-0.000417
 49
0.000000
 49
-0.000417
  0
LTYPE
  2
DIVIDE
 70
    64
  3
__ . . __ . . __ . . __ . . __ . . __ . . __
 72
    65
 73
     6
 40
0.002083
 49
0.000833
 49
-0.000417
 49
0.000000
 49
-0.000417
 49
0.000000
 49
-0.000417
  0
LTYPE
  2
DOTDOT
 70
    64
  3
 . .  . .  . .  . .  . .  . . 
 72
    65
 73
     5
 40
0.000917
 49
-0.000417
 49
0.000000
 49
-0.000417
 49
0.000000
 49
-0.000417
  0
ENDTAB
  0
TABLE
  2
STYLE
 70
     2
  0
STYLE
 70
     0
  2
SN0
 40
0.000000
 41
0.001667
 50
0.000000
 71
     0
 42
0.000000
  3
ROMAND
  0
STYLE
 70
    68
  2
SV0
 40
0.000000
 41
0.001667
 50
0.000000
 71
     0
 42
0.000000
  3
ROMAND
  0
ENDTAB
  0
TABLE
  2
LAYER
 70
     2
  0
LAYER
  2
FOREGROUND
 70
    64
 62
     7
  6
CONTINUOUS
  0
LAYER
  2
BACKGROUND
 70
    65
 62
    -7
  6
CONTINUOUS
  0
ENDTAB
  0
ENDSEC
  0
SECTION
  2
ENTITIES
  0
POLYLINE
  8
FOREGROUND
  6
CONTINUOUS
 66
     1
 40
0.010000
 41
0.010000
 70
     1
  0
VERTEX
  8
FOREGROUND
  6
CONTINUOUS
 10
3.603333
 20
0.050000
  0
VERTEX
  8
FOREGROUND
  6
CONTINUOUS
 10
3.629685
 20
0.050309
  0
VERTEX
  8
FOREGROUND
  6
CONTINUOUS
 10
3.655894
 20
0.051190
  0
VERTEX
  8
FOREGROUND
  6
CONTINUOUS
 10
3.681956
 20
0.052636
  0
VERTEX
  8
FOREGROUND
  6
CONTINUOUS
 10
3.707864
 20
0.054642
  0
VERTEX
  8
FOREGROUND
  6
CONTINUOUS
 10
3.733612
 20
0.057202
  0
VERTEX
  8
FOREGROUND
  6
CONTINUOUS
 10
3.759195
 20
0.060310
  0
VERTEX
  8
FOREGROUND
  6
CONTINUOUS
 10
3.784606
 20
0.063960
  0
VERTEX
  8
FOREGROUND
  6
CONTINUOUS
 10
3.809840
 20
0.068146
  0
VERTEX
  8
FOREGROUND
  6
CONTINUOUS
 10
3.834890
 20
0.072861
  0
VERTEX
  8
FOREGROUND
  6
CONTINUOUS
 10
3.859751
 20
0.078101
  0
VERTEX
  8
FOREGROUND
  6
CONTINUOUS
 10
3.884416
 20
0.083859
  0
VERTEX
  8
FOREGROUND
  6
CONTINUOUS
 10
3.908879
 20
0.090128
  0
VERTEX
  8
FOREGROUND
  6
CONTINUOUS
 10
3.933135
 20
0.096904
  0
VERTEX
  8
FOREGROUND
  6
CONTINUOUS
 10
3.957178
 20
0.104180
  0
VERTEX
  8
FOREGROUND
  6
CONTINUOUS
 10
3.981002
 20
0.111950
  0
VERTEX
  8
FOREGROUND
  6
CONTINUOUS
 10
4.004600
 20
0.120208
  0
VERTEX
  8
FOREGROUND
  6
CONTINUOUS
 10
4.027966
 20
0.128948
  0
VERTEX
  8
FOREGROUND
  6
CONTINUOUS
 10
4.051096
 20
0.138164
  0
VERTEX
  8
FOREGROUND
  6
CONTINUOUS
 10
4.073982
 20
0.147851
  0
VERTEX
  8
FOREGROUND
  6
CONTINUOUS
 10
4.096619
 20
0.158002
  0
VERTEX
  8
FOREGROUND
  6
CONTINUOUS
 10
4.119000
 20
0.168611
  0
VERTEX
  8
FOREGROUND
  6
CONTINUOUS
 10
4.141121
 20
0.179672
  0
VERTEX
  8
FOREGROUND
  6
CONTINUOUS
 10
4.162974
 20
0.191180
  0
VERTEX
  8
FOREGROUND
  6
CONTINUOUS
 10
4.184554
 20
0.203128
  0
VERTEX
  8
FOREGROUND
  6
CONTINUOUS
 10
4.205855
 20
0.215511
  0
VERTEX
  8
FOREGROUND
  6
CONTINUOUS
 10
4.226872
 20
0.228322
  0
VERTEX
  8
FOREGROUND
  6
CONTINUOUS
 10
4.247596
 20
0.241555
  0
VERTEX
  8
FOREGROUND
  6
CONTINUOUS
 10
4.268024
 20
0.255205
  0
VERTEX
  8
FOREGROUND
  6
CONTINUOUS
 10
4.288149
 20
0.269265
  0
VERTEX
  8
FOREGROUND
  6
CONTINUOUS
 10
4.307965
 20
0.283730
  0
VERTEX
  8
FOREGROUND
  6
CONTINUOUS
 10
4.327466
 20
0.298593
  0
VERTEX
  8
FOREGROUND
  6
CONTINUOUS
 10
4.346647
 20
0.313849
  0
VERTEX
  8
FOREGROUND
  6
CONTINUOUS
 10
4.365500
 20
0.329492
  0
VERTEX
  8
FOREGROUND
  6
CONTINUOUS
 10
4.384020
 20
0.345515
  0
VERTEX
  8
FOREGROUND
  6
CONTINUOUS
 10
4.402202
 20
0.361913
  0
VERTEX
  8
FOREGROUND
  6
CONTINUOUS
 10
4.420039
 20
0.378679
  0
VERTEX
  8
FOREGROUND
  6
CONTINUOUS
 10
4.437525
 20
0.395809
  0
VERTEX
  8
FOREGROUND
  6
CONTINUOUS
 10
4.454654
 20
0.413295
  0
VERTEX
  8
FOREGROUND
  6
CONTINUOUS
 10
4.471420
 20
0.431131
  0
VERTEX
  8
FOREGROUND
  6
CONTINUOUS
 10
4.487818
 20
0.449313
  0
VERTEX
  8
FOREGROUND
  6
CONTINUOUS
 10
4.503842
 20
0.467833
  0
VERTEX
  8
FOREGROUND
  6
CONTINUOUS
 10
4.519484
 20
0.486687
  0
VERTEX
  8
FOREGROUND
  6
CONTINUOUS
 10
4.534740
 20
0.505867
  0
VERTEX
  8
FOREGROUND
  6
CONTINUOUS
 10
4.549603
 20
0.525368
  0
VERTEX
  8
FOREGROUND
  6
CONTINUOUS
 10
4.564068
 20
0.545184
  0
VERTEX
  8
FOREGROUND
  6
CONTINUOUS
 10
4.578129
 20
0.565309
  0
VERTEX
  8
FOREGROUND
  6
CONTINUOUS
 10
4.591778
 20
0.585737
  0
VERTEX
  8
FOREGROUND
  6
CONTINUOUS
 10
4.605012
 20
0.606462
  0
VERTEX
  8
FOREGROUND
  6
CONTINUOUS
 10
4.617823
 20
0.627478
  0
VERTEX
  8
FOREGROUND
  6
CONTINUOUS
 10
4.630205
 20
0.648779
  0
VERTEX
  8
FOREGROUND
  6
CONTINUOUS
 10
4.642153
 20
0.670359
  0
VERTEX
  8
FOREGROUND
  6
CONTINUOUS
 10
4.653661
 20
0.692212
  0
VERTEX
  8
FOREGROUND
  6
CONTINUOUS
 10
4.664722
 20
0.714333
  0
VERTEX
  8
FOREGROUND
  6
CONTINUOUS
 10
4.675332
 20
0.736715
  0
VERTEX
  8
FOREGROUND
  6
CONTINUOUS
 10
4.685482
 20
0.759352
  0
VERTEX
  8
FOREGROUND
  6
CONTINUOUS
 10
4.695169
 20
0.782238
  0
VERTEX
  8
FOREGROUND
  6
CONTINUOUS
 10
4.704385
 20
0.805367
  0
VERTEX
  8
FOREGROUND
  6
CONTINUOUS
 10
4.713126
 20
0.828734
  0
VERTEX
  8
FOREGROUND
  6
CONTINUOUS
 10
4.721384
 20
0.852332
  0
VERTEX
  8
FOREGROUND
  6
CONTINUOUS
 10
4.729154
 20
0.876155
  0
VERTEX
  8
FOREGROUND
  6
CONTINUOUS
 10
4.736429
 20
0.900198
  0
VERTEX
  8
FOREGROUND
  6
CONTINUOUS
 10
4.743205
 20
0.924454
  0
VERTEX
  8
FOREGROUND
  6
CONTINUOUS
 10
4.749475
 20
0.948918
  0
VERTEX
  8
FOREGROUND
  6
CONTINUOUS
 10
4.755232
 20
0.973583
  0
VERTEX
  8
FOREGROUND
  6
CONTINUOUS
 10
4.760472
 20
0.998443
  0
VERTEX
  8
FOREGROUND
  6
CONTINUOUS
 10
4.765188
 20
1.023493
  0
VERTEX
  8
FOREGROUND
  6
CONTINUOUS
 10
4.769373
 20
1.048727
  0
VERTEX
  8
FOREGROUND
  6
CONTINUOUS
 10
4.773023
 20
1.074138
  0
VERTEX
  8
FOREGROUND
  6
CONTINUOUS
 10
4.776131
 20
1.099721
  0
VERTEX
  8
FOREGROUND
  6
CONTINUOUS
 10
4.778691
 20
1.125469
  0
VERTEX
  8
FOREGROUND
  6
CONTINUOUS
 10
4.780697
 20
1.151378
  0
VERTEX
  8
FOREGROUND
  6
CONTINUOUS
 10
4.782144
 20
1.177439
  0
VERTEX
  8
FOREGROUND
  6
CONTINUOUS
 10
4.783024
 20
1.203649
  0
VERTEX
  8
FOREGROUND
  6
CONTINUOUS
 10
4.783333
 20
1.230000
  0
VERTEX
  8
FOREGROUND
  6
CONTINUOUS
 10
4.783333
 20
1.230000
  0
VERTEX
  8
FOREGROUND
  6
CONTINUOUS
 10
4.783024
 20
1.256355
  0
VERTEX
  8
FOREGROUND
  6
CONTINUOUS
 10
4.782143
 20
1.282568
  0
VERTEX
  8
FOREGROUND
  6
CONTINUOUS
 10
4.780697
 20
1.308633
  0
VERTEX
  8
FOREGROUND
  6
CONTINUOUS
 10
4.778690
 20
1.334544
  0
VERTEX
  8
FOREGROUND
  6
CONTINUOUS
 10
4.776129
 20
1.360296
  0
VERTEX
  8
FOREGROUND
  6
CONTINUOUS
 10
4.773021
 20
1.385882
  0
VERTEX
  8
FOREGROUND
  6
CONTINUOUS
 10
4.769370
 20
1.411296
  0
VERTEX
  8
FOREGROUND
  6
CONTINUOUS
 10
4.765183
 20
1.436532
  0
VERTEX
  8
FOREGROUND
  6
CONTINUOUS
 10
4.760466
 20
1.461585
  0
VERTEX
  8
FOREGROUND
  6
CONTINUOUS
 10
4.755225
 20
1.486449
  0
VERTEX
  8
FOREGROUND
  6
CONTINUOUS
 10
4.749466
 20
1.511117
  0
VERTEX
  8
FOREGROUND
  6
CONTINUOUS
 10
4.743195
 20
1.535583
  0
VERTEX
  8
FOREGROUND
  6
CONTINUOUS
 10
4.736418
 20
1.559842
  0
VERTEX
  8
FOREGROUND
  6
CONTINUOUS
 10
4.729140
 20
1.583887
  0
VERTEX
  8
FOREGROUND
  6
CONTINUOUS
 10
4.721369
 20
1.607713
  0
VERTEX
  8
FOREGROUND
  6
CONTINUOUS
 10
4.713109
 20
1.631314
  0
VERTEX
  8
FOREGROUND
  6
CONTINUOUS
 10
4.704366
 20
1.654683
  0
VERTEX
  8
FOREGROUND
  6
CONTINUOUS
 10
4.695148
 20
1.677814
  0
VERTEX
  8
FOREGROUND
  6
CONTINUOUS
 10
4.685459
 20
1.700703
  0
VERTEX
  8
FOREGROUND
  6
CONTINUOUS
 10
4.675306
 20
1.723342
  0
VERTEX
  8
FOREGROUND
  6
CONTINUOUS
 10
4.664694
 20
1.745725
  0
VERTEX
  8
FOREGROUND
  6
CONTINUOUS
 10
4.653630
 20
1.767848
  0
VERTEX
  8
FOREGROUND
  6
CONTINUOUS
 10
4.642120
 20
1.789703
  0
VERTEX
  8
FOREGROUND
  6
CONTINUOUS
 10
4.630169
 20
1.811285
  0
VERTEX
  8
FOREGROUND
  6
CONTINUOUS
 10
4.617784
 20
1.832587
  0
VERTEX
  8
FOREGROUND
  6
CONTINUOUS
 10
4.604970
 20
1.853605
  0
VERTEX
  8
FOREGROUND
  6
CONTINUOUS
 10
4.591734
 20
1.874331
  0
VERTEX
  8
FOREGROUND
  6
CONTINUOUS
 10
4.578081
 20
1.894761
  0
VERTEX
  8
FOREGROUND
  6
CONTINUOUS
 10
4.564018
 20
1.914887
  0
VERTEX
  8
FOREGROUND
  6
CONTINUOUS
 10
4.549550
 20
1.934704
  0
VERTEX
  8
FOREGROUND
  6
CONTINUOUS
 10
4.534683
 20
1.954206
  0
VERTEX
  8
FOREGROUND
  6
CONTINUOUS
 10
4.519424
 20
1.973387
  0
VERTEX
  8
FOREGROUND
  6
CONTINUOUS
 10
4.503778
 20
1.992241
  0
VERTEX
  8
FOREGROUND
  6
CONTINUOUS
 10
4.487751
 20
2.010763
  0
VERTEX
  8
FOREGROUND
  6
CONTINUOUS
 10
4.471350
 20
2.028945
  0
VERTEX
  8
FOREGROUND
  6
CONTINUOUS
 10
4.454580
 20
2.046782
  0
VERTEX
  8
FOREGROUND
  6
CONTINUOUS
 10
4.437447
 20
2.064269
  0
VERTEX
  8
FOREGROUND
  6
CONTINUOUS
 10
4.419958
 20
2.081398
  0
VERTEX
  8
FOREGROUND
  6
CONTINUOUS
 10
4.402117
 20
2.098165
  0
VERTEX
  8
FOREGROUND
  6
CONTINUOUS
 10
4.383932
 20
2.114563
  0
VERTEX
  8
FOREGROUND
  6
CONTINUOUS
 10
4.365408
 20
2.130586
  0
VERTEX
  8
FOREGROUND
  6
CONTINUOUS
 10
4.346551
 20
2.146228
  0
VERTEX
  8
FOREGROUND
  6
CONTINUOUS
 10
4.327367
 20
2.161484
  0
VERTEX
  8
FOREGROUND
  6
CONTINUOUS
 10
4.307862
 20
2.176347
  0
VERTEX
  8
FOREGROUND
  6
CONTINUOUS
 10
4.288042
 20
2.190811
  0
VERTEX
  8
FOREGROUND
  6
CONTINUOUS
 10
4.267913
 20
2.204871
  0
VERTEX
  8
FOREGROUND
  6
CONTINUOUS
 10
4.247482
 20
2.218520
  0
VERTEX
  8
FOREGROUND
  6
CONTINUOUS
 10
4.226753
 20
2.231752
  0
VERTEX
  8
FOREGROUND
  6
CONTINUOUS
 10
4.205733
 20
2.244562
  0
VERTEX
  8
FOREGROUND
  6
CONTINUOUS
 10
4.184428
 20
2.256944
  0
VERTEX
  8
FOREGROUND
  6
CONTINUOUS
 10
4.162844
 20
2.268890
  0
VERTEX
  8
FOREGROUND
  6
CONTINUOUS
 10
4.140986
 20
2.280397
  0
VERTEX
  8
FOREGROUND
  6
CONTINUOUS
 10
4.118862
 20
2.291457
  0
VERTEX
  8
FOREGROUND
  6
CONTINUOUS
 10
4.096476
 20
2.302064
  0
VERTEX
  8
FOREGROUND
  6
CONTINUOUS
 10
4.073835
 20
2.312213
  0
VERTEX
  8
FOREGROUND
  6
CONTINUOUS
 10
4.050945
 20
2.321898
  0
VERTEX
  8
FOREGROUND
  6
CONTINUOUS
 10
4.027812
 20
2.331112
  0
VERTEX
  8
FOREGROUND
  6
CONTINUOUS
 10
4.004441
 20
2.339850
  0
VERTEX
  8
FOREGROUND
  6
CONTINUOUS
 10
3.980839
 20
2.348105
  0
VERTEX
  8
FOREGROUND
  6
CONTINUOUS
 10
3.957012
 20
2.355873
  0
VERTEX
  8
FOREGROUND
  6
CONTINUOUS
 10
3.932965
 20
2.363146
  0
VERTEX
  8
FOREGROUND
  6
CONTINUOUS
 10
3.908705
 20
2.369919
  0
VERTEX
  8
FOREGROUND
  6
CONTINUOUS
 10
3.884238
 20
2.376185
  0
VERTEX
  8
FOREGROUND
  6
CONTINUOUS
 10
3.859569
 20
2.381940
  0
VERTEX
  8
FOREGROUND
  6
CONTINUOUS
 10
3.834704
 20
2.387176
  0
VERTEX
  8
FOREGROUND
  6
CONTINUOUS
 10
3.809650
 20
2.391888
  0
VERTEX
  8
FOREGROUND
  6
CONTINUOUS
 10
3.784413
 20
2.396070
  0
VERTEX
  8
FOREGROUND
  6
CONTINUOUS
 10
3.758998
 20
2.399716
  0
VERTEX
  8
FOREGROUND
  6
CONTINUOUS
 10
3.733412
 20
2.402820
  0
VERTEX
  8
FOREGROUND
  6
CONTINUOUS
 10
3.707659
 20
2.405376
  0
VERTEX
  8
FOREGROUND
  6
CONTINUOUS
 10
3.681748
 20
2.407378
  0
VERTEX
  8
FOREGROUND
  6
CONTINUOUS
 10
3.655682
 20
2.408820
  0
VERTEX
  8
FOREGROUND
  6
CONTINUOUS
 10
3.629469
 20
2.409696
  0
VERTEX
  8
FOREGROUND
  6
CONTINUOUS
 10
3.603115
 20
2.410000
  0
VERTEX
  8
FOREGROUND
  6
CONTINUOUS
 10
1.229781
 20
2.410000
  0
VERTEX
  8
FOREGROUND
  6
CONTINUOUS
 10
1.203434
 20
2.409686
  0
VERTEX
  8
FOREGROUND
  6
CONTINUOUS
 10
1.177228
 20
2.408801
  0
VERTEX
  8
FOREGROUND
  6
CONTINUOUS
 10
1.151169
 20
2.407350
  0
VERTEX
  8
FOREGROUND
  6
CONTINUOUS
 10
1.125265
 20
2.405340
  0
VERTEX
  8
FOREGROUND
  6
CONTINUOUS
 10
1.099520
 20
2.402775
  0
VERTEX
  8
FOREGROUND
  6
CONTINUOUS
 10
1.073941
 20
2.399663
  0
VERTEX
  8
FOREGROUND
  6
CONTINUOUS
 10
1.048534
 20
2.396010
  0
VERTEX
  8
FOREGROUND
  6
CONTINUOUS
 10
1.023304
 20
2.391820
  0
VERTEX
  8
FOREGROUND
  6
CONTINUOUS
 10
0.998258
 20
2.387101
  0
VERTEX
  8
FOREGROUND
  6
CONTINUOUS
 10
0.973401
 20
2.381858
  0
VERTEX
  8
FOREGROUND
  6
CONTINUOUS
 10
0.948740
 20
2.376097
  0
VERTEX
  8
FOREGROUND
  6
CONTINUOUS
 10
0.924280
 20
2.369825
  0
VERTEX
  8
FOREGROUND
  6
CONTINUOUS
 10
0.900028
 20
2.363046
  0
VERTEX
  8
FOREGROUND
  6
CONTINUOUS
 10
0.875989
 20
2.355768
  0
VERTEX
  8
FOREGROUND
  6
CONTINUOUS
 10
0.852169
 20
2.347995
  0
VERTEX
  8
FOREGROUND
  6
CONTINUOUS
 10
0.828575
 20
2.339735
  0
VERTEX
  8
FOREGROUND
  6
CONTINUOUS
 10
0.805213
 20
2.330992
  0
VERTEX
  8
FOREGROUND
  6
CONTINUOUS
 10
0.782087
 20
2.321774
  0
VERTEX
  8
FOREGROUND
  6
CONTINUOUS
 10
0.759205
 20
2.312085
  0
VERTEX
  8
FOREGROUND
  6
CONTINUOUS
 10
0.736572
 20
2.301932
  0
VERTEX
  8
FOREGROUND
  6
CONTINUOUS
 10
0.714194
 20
2.291322
  0
VERTEX
  8
FOREGROUND
  6
CONTINUOUS
 10
0.692078
 20
2.280259
  0
VERTEX
  8
FOREGROUND
  6
CONTINUOUS
 10
0.670229
 20
2.268749
  0
VERTEX
  8
FOREGROUND
  6
CONTINUOUS
 10
0.648652
 20
2.256800
  0
VERTEX
  8
FOREGROUND
  6
CONTINUOUS
 10
0.627355
 20
2.244416
  0
VERTEX
  8
FOREGROUND
  6
CONTINUOUS
 10
0.606343
 20
2.231604
  0
VERTEX
  8
FOREGROUND
  6
CONTINUOUS
 10
0.585622
 20
2.218370
  0
VERTEX
  8
FOREGROUND
  6
CONTINUOUS
 10
0.565198
 20
2.204720
  0
VERTEX
  8
FOREGROUND
  6
CONTINUOUS
 10
0.545077
 20
2.190659
  0
VERTEX
  8
FOREGROUND
  6
CONTINUOUS
 10
0.525265
 20
2.176193
  0
VERTEX
  8
FOREGROUND
  6
CONTINUOUS
 10
0.505767
 20
2.161329
  0
VERTEX
  8
FOREGROUND
  6
CONTINUOUS
 10
0.486591
 20
2.146073
  0
VERTEX
  8
FOREGROUND
  6
CONTINUOUS
 10
0.467742
 20
2.130430
  0
VERTEX
  8
FOREGROUND
  6
CONTINUOUS
 10
0.449225
 20
2.114407
  0
VERTEX
  8
FOREGROUND
  6
CONTINUOUS
 10
0.431047
 20
2.098009
  0
VERTEX
  8
FOREGROUND
  6
CONTINUOUS
 10
0.413214
 20
2.081243
  0
VERTEX
  8
FOREGROUND
  6
CONTINUOUS
 10
0.395731
 20
2.064114
  0
VERTEX
  8
FOREGROUND
  6
CONTINUOUS
 10
0.378606
 20
2.046628
  0
VERTEX
  8
FOREGROUND
  6
CONTINUOUS
 10
0.361843
 20
2.028792
  0
VERTEX
  8
FOREGROUND
  6
CONTINUOUS
 10
0.345448
 20
2.010611
  0
VERTEX
  8
FOREGROUND
  6
CONTINUOUS
 10
0.329428
 20
1.992092
  0
VERTEX
  8
FOREGROUND
  6
CONTINUOUS
 10
0.313789
 20
1.973239
  0
VERTEX
  8
FOREGROUND
  6
CONTINUOUS
 10
0.298536
 20
1.954060
  0
VERTEX
  8
FOREGROUND
  6
CONTINUOUS
 10
0.283676
 20
1.934560
  0
VERTEX
  8
FOREGROUND
  6
CONTINUOUS
 10
0.269215
 20
1.914745
  0
VERTEX
  8
FOREGROUND
  6
CONTINUOUS
 10
0.255157
 20
1.894621
  0
VERTEX
  8
FOREGROUND
  6
CONTINUOUS
 10
0.241511
 20
1.874195
  0
VERTEX
  8
FOREGROUND
  6
CONTINUOUS
 10
0.228280
 20
1.853471
  0
VERTEX
  8
FOREGROUND
  6
CONTINUOUS
 10
0.215472
 20
1.832457
  0
VERTEX
  8
FOREGROUND
  6
CONTINUOUS
 10
0.203092
 20
1.811157
  0
VERTEX
  8
FOREGROUND
  6
CONTINUOUS
 10
0.191147
 20
1.789579
  0
VERTEX
  8
FOREGROUND
  6
CONTINUOUS
 10
0.179642
 20
1.767727
  0
VERTEX
  8
FOREGROUND
  6
CONTINUOUS
 10
0.168583
 20
1.745609
  0
VERTEX
  8
FOREGROUND
  6
CONTINUOUS
 10
0.157976
 20
1.723229
  0
VERTEX
  8
FOREGROUND
  6
CONTINUOUS
 10
0.147828
 20
1.700594
  0
VERTEX
  8
FOREGROUND
  6
CONTINUOUS
 10
0.138143
 20
1.677710
  0
VERTEX
  8
FOREGROUND
  6
CONTINUOUS
 10
0.128929
 20
1.654583
  0
VERTEX
  8
FOREGROUND
  6
CONTINUOUS
 10
0.120191
 20
1.631219
  0
VERTEX
  8
FOREGROUND
  6
CONTINUOUS
 10
0.111935
 20
1.607623
  0
VERTEX
  8
FOREGROUND
  6
CONTINUOUS
 10
0.104167
 20
1.583802
  0
VERTEX
  8
FOREGROUND
  6
CONTINUOUS
 10
0.096893
 20
1.559762
  0
VERTEX
  8
FOREGROUND
  6
CONTINUOUS
 10
0.090119
 20
1.535509
  0
VERTEX
  8
FOREGROUND
  6
CONTINUOUS
 10
0.083850
 20
1.511048
  0
VERTEX
  8
FOREGROUND
  6
CONTINUOUS
 10
0.078094
 20
1.486386
  0
VERTEX
  8
FOREGROUND
  6
CONTINUOUS
 10
0.072856
 20
1.461528
  0
VERTEX
  8
FOREGROUND
  6
CONTINUOUS
 10
0.068141
 20
1.436481
  0
VERTEX
  8
FOREGROUND
  6
CONTINUOUS
 10
0.063957
 20
1.411250
  0
VERTEX
  8
FOREGROUND
  6
CONTINUOUS
 10
0.060308
 20
1.385842
  0
VERTEX
  8
FOREGROUND
  6
CONTINUOUS
 10
0.057200
 20
1.360262
  0
VERTEX
  8
FOREGROUND
  6
CONTINUOUS
 10
0.054641
 20
1.334517
  0
VERTEX
  8
FOREGROUND
  6
CONTINUOUS
 10
0.052635
 20
1.308612
  0
VERTEX
  8
FOREGROUND
  6
CONTINUOUS
 10
0.051189
 20
1.282554
  0
VERTEX
  8
FOREGROUND
  6
CONTINUOUS
 10
0.050309
 20
1.256348
  0
VERTEX
  8
FOREGROUND
  6
CONTINUOUS
 10
0.050000
 20
1.230000
  0
VERTEX
  8
FOREGROUND
  6
CONTINUOUS
 10
0.050000
 20
1.230000
  0
VERTEX
  8
FOREGROUND
  6
CONTINUOUS
 10
0.050309
 20
1.203649
  0
VERTEX
  8
FOREGROUND
  6
CONTINUOUS
 10
0.051190
 20
1.177439
  0
VERTEX
  8
FOREGROUND
  6
CONTINUOUS
 10
0.052636
 20
1.151378
  0
VERTEX
  8
FOREGROUND
  6
CONTINUOUS
 10
0.054642
 20
1.125469
  0
VERTEX
  8
FOREGROUND
  6
CONTINUOUS
 10
0.057202
 20
1.099721
  0
VERTEX
  8
FOREGROUND
  6
CONTINUOUS
 10
0.060310
 20
1.074138
  0
VERTEX
  8
FOREGROUND
  6
CONTINUOUS
 10
0.063960
 20
1.048727
  0
VERTEX
  8
FOREGROUND
  6
CONTINUOUS
 10
0.068146
 20
1.023493
  0
VERTEX
  8
FOREGROUND
  6
CONTINUOUS
 10
0.072861
 20
0.998443
  0
VERTEX
  8
FOREGROUND
  6
CONTINUOUS
 10
0.078101
 20
0.973583
  0
VERTEX
  8
FOREGROUND
  6
CONTINUOUS
 10
0.083859
 20
0.948918
  0
VERTEX
  8
FOREGROUND
  6
CONTINUOUS
 10
0.090128
 20
0.924454
  0
VERTEX
  8
FOREGROUND
  6
CONTINUOUS
 10
0.096904
 20
0.900198
  0
VERTEX
  8
FOREGROUND
  6
CONTINUOUS
 10
0.104180
 20
0.876155
  0
VERTEX
  8
FOREGROUND
  6
CONTINUOUS
 10
0.111950
 20
0.852332
  0
VERTEX
  8
FOREGROUND
  6
CONTINUOUS
 10
0.120208
 20
0.828734
  0
VERTEX
  8
FOREGROUND
  6
CONTINUOUS
 10
0.128948
 20
0.805367
  0
VERTEX
  8
FOREGROUND
  6
CONTINUOUS
 10
0.138164
 20
0.782238
  0
VERTEX
  8
FOREGROUND
  6
CONTINUOUS
 10
0.147851
 20
0.759352
  0
VERTEX
  8
FOREGROUND
  6
CONTINUOUS
 10
0.158002
 20
0.736715
  0
VERTEX
  8
FOREGROUND
  6
CONTINUOUS
 10
0.168611
 20
0.714333
  0
VERTEX
  8
FOREGROUND
  6
CONTINUOUS
 10
0.179672
 20
0.692212
  0
VERTEX
  8
FOREGROUND
  6
CONTINUOUS
 10
0.191180
 20
0.670359
  0
VERTEX
  8
FOREGROUND
  6
CONTINUOUS
 10
0.203128
 20
0.648779
  0
VERTEX
  8
FOREGROUND
  6
CONTINUOUS
 10
0.215511
 20
0.627478
  0
VERTEX
  8
FOREGROUND
  6
CONTINUOUS
 10
0.228322
 20
0.606462
  0
VERTEX
  8
FOREGROUND
  6
CONTINUOUS
 10
0.241555
 20
0.585737
  0
VERTEX
  8
FOREGROUND
  6
CONTINUOUS
 10
0.255205
 20
0.565309
  0
VERTEX
  8
FOREGROUND
  6
CONTINUOUS
 10
0.269265
 20
0.545184
  0
VERTEX
  8
FOREGROUND
  6
CONTINUOUS
 10
0.283730
 20
0.525368
  0
VERTEX
  8
FOREGROUND
  6
CONTINUOUS
 10
0.298593
 20
0.505867
  0
VERTEX
  8
FOREGROUND
  6
CONTINUOUS
 10
0.313849
 20
0.486687
  0
VERTEX
  8
FOREGROUND
  6
CONTINUOUS
 10
0.329492
 20
0.467833
  0
VERTEX
  8
FOREGROUND
  6
CONTINUOUS
 10
0.345515
 20
0.449313
  0
VERTEX
  8
FOREGROUND
  6
CONTINUOUS
 10
0.361913
 20
0.431131
  0
VERTEX
  8
FOREGROUND
  6
CONTINUOUS
 10
0.378679
 20
0.413295
  0
VERTEX
  8
FOREGROUND
  6
CONTINUOUS
 10
0.395809
 20
0.395809
  0
VERTEX
  8
FOREGROUND
  6
CONTINUOUS
 10
0.413295
 20
0.378679
  0
VERTEX
  8
FOREGROUND
  6
CONTINUOUS
 10
0.431131
 20
0.361913
  0
VERTEX
  8
FOREGROUND
  6
CONTINUOUS
 10
0.449313
 20
0.345515
  0
VERTEX
  8
FOREGROUND
  6
CONTINUOUS
 10
0.467833
 20
0.329492
  0
VERTEX
  8
FOREGROUND
  6
CONTINUOUS
 10
0.486687
 20
0.313849
  0
VERTEX
  8
FOREGROUND
  6
CONTINUOUS
 10
0.505867
 20
0.298593
  0
VERTEX
  8
FOREGROUND
  6
CONTINUOUS
 10
0.525368
 20
0.283730
  0
VERTEX
  8
FOREGROUND
  6
CONTINUOUS
 10
0.545184
 20
0.269265
  0
VERTEX
  8
FOREGROUND
  6
CONTINUOUS
 10
0.565309
 20
0.255205
  0
VERTEX
  8
FOREGROUND
  6
CONTINUOUS
 10
0.585737
 20
0.241555
  0
VERTEX
  8
FOREGROUND
  6
CONTINUOUS
 10
0.606462
 20
0.228322
  0
VERTEX
  8
FOREGROUND
  6
CONTINUOUS
 10
0.627478
 20
0.215511
  0
VERTEX
  8
FOREGROUND
  6
CONTINUOUS
 10
0.648779
 20
0.203128
  0
VERTEX
  8
FOREGROUND
  6
CONTINUOUS
 10
0.670359
 20
0.191180
  0
VERTEX
  8
FOREGROUND
  6
CONTINUOUS
 10
0.692212
 20
0.179672
  0
VERTEX
  8
FOREGROUND
  6
CONTINUOUS
 10
0.714333
 20
0.168611
  0
VERTEX
  8
FOREGROUND
  6
CONTINUOUS
 10
0.736715
 20
0.158002
  0
VERTEX
  8
FOREGROUND
  6
CONTINUOUS
 10
0.759352
 20
0.147851
  0
VERTEX
  8
FOREGROUND
  6
CONTINUOUS
 10
0.782238
 20
0.138164
  0
VERTEX
  8
FOREGROUND
  6
CONTINUOUS
 10
0.805367
 20
0.128948
  0
VERTEX
  8
FOREGROUND
  6
CONTINUOUS
 10
0.828734
 20
0.120208
  0
VERTEX
  8
FOREGROUND
  6
CONTINUOUS
 10
0.852332
 20
0.111950
  0
VERTEX
  8
FOREGROUND
  6
CONTINUOUS
 10
0.876155
 20
0.104180
  0
VERTEX
  8
FOREGROUND
  6
CONTINUOUS
 10
0.900198
 20
0.096904
  0
VERTEX
  8
FOREGROUND
  6
CONTINUOUS
 10
0.924454
 20
0.090128
  0
VERTEX
  8
FOREGROUND
  6
CONTINUOUS
 10
0.948918
 20
0.083859
  0
VERTEX
  8
FOREGROUND
  6
CONTINUOUS
 10
0.973583
 20
0.078101
  0
VERTEX
  8
FOREGROUND
  6
CONTINUOUS
 10
0.998443
 20
0.072861
  0
VERTEX
  8
FOREGROUND
  6
CONTINUOUS
 10
1.023493
 20
0.068146
  0
VERTEX
  8
FOREGROUND
  6
CONTINUOUS
 10
1.048727
 20
0.063960
  0
VERTEX
  8
FOREGROUND
  6
CONTINUOUS
 10
1.074138
 20
0.060310
  0
VERTEX
  8
FOREGROUND
  6
CONTINUOUS
 10
1.099721
 20
0.057202
  0
VERTEX
  8
FOREGROUND
  6
CONTINUOUS
 10
1.125469
 20
0.054642
  0
VERTEX
  8
FOREGROUND
  6
CONTINUOUS
 10
1.151378
 20
0.052636
  0
VERTEX
  8
FOREGROUND
  6
CONTINUOUS
 10
1.177439
 20
0.051190
  0
VERTEX
  8
FOREGROUND
  6
CONTINUOUS
 10
1.203649
 20
0.050309
  0
VERTEX
  8
FOREGROUND
  6
CONTINUOUS
 10
1.230000
 20
0.050000
  0
SEQEND
  8
0
  0
ENDSEC
  0
EOF
