  0
SECTION
  2
HEADER
  9
$ACADVER
  1
AC1006
  9
$EXTMIN
 10
0.000000
 20
0.000000
  9
$EXTMAX
 10
4.833333
 20
3.248333
  9
$LTSCALE
 40
0.166667
  9
$PDMODE
 70
    35
  9
$PDSIZE
 40
0.133333
  0
ENDSEC
  0
SECTION
  2
TABLES
  0
TABLE
  2
LTYPE
 70
     9
  0
LTYPE
  2
CONTINUOUS
 70
    64
  3
Solid line
 72
    65
 73
     0
 40
0.000000
  0
LTYPE
  2
DASHED
 70
    64
  3
__ __ __ __ __ __ __ __ __ __ __ __ __ __ __
 72
    65
 73
     2
 40
0.001250
 49
0.000833
 49
-0.000417
  0
LTYPE
  2
HIDDEN
 70
    64
  3
 _ _ _ _ _ _ _ _ _ _ _ _ _ _ _ _ _ _ _ _ _ _
 72
    65
 73
     2
 40
0.000625
 49
0.000417
 49
-0.000208
  0
LTYPE
  2
CENTER
 70
    64
  3
____ _ ____ _ ____ _ ____ _ ____ _ ____ _ ____
 72
    65
 73
     4
 40
0.003333
 49
0.002083
 49
-0.000417
 49
0.000417
 49
-0.000417
  0
LTYPE
  2
PHANTOM
 70
    64
  3
_____ _ _ _____ _ _ _____ _ _ _____ _ _ ____
 72
    65
 73
     6
 40
0.004167
 49
0.002083
 49
-0.000417
 49
0.000417
 49
-0.000417
 49
0.000417
 49
-0.000417
  0
LTYPE
  2
DOT
 70
    64
  3
...............................................
 72
    65
 73
     2
 40
0.000417
 49
0.000000
 49
-0.000417
  0
LTYPE
  2
DASHDOT
 70
    64
  3
__ . __ . __ . __ . __ . __ . __ . __ . __ . __
 72
    65
 73
     4
 40
0.001667
 49
0.000833
 49
-0.000417
 49
0.000000
 49
-0.000417
  0
LTYPE
  2
BORDER
 70
    64
  3
__ __ . __ __ . __ __ . __ __ . __ __ . __ __
 72
    65
 73
     6
 40
0.002917
 49
0.000833
 49
-0.000417
 49
0.000833
 49
-0.000417
 49
0.000000
 49
-0.000417
  0
LTYPE
  2
DIVIDE
 70
    64
  3
__ . . __ . . __ . . __ . . __ . . __ . . __
 72
    65
 73
     6
 40
0.002083
 49
0.000833
 49
-0.000417
 49
0.000000
 49
-0.000417
 49
0.000000
 49
-0.000417
  0
LTYPE
  2
DOTDOT
 70
    64
  3
 . .  . .  . .  . .  . .  . . 
 72
    65
 73
     5
 40
0.000917
 49
-0.000417
 49
0.000000
 49
-0.000417
 49
0.000000
 49
-0.000417
  0
ENDTAB
  0
TABLE
  2
STYLE
 70
     2
  0
STYLE
 70
     0
  2
SN0
 40
0.000000
 41
0.001667
 50
0.000000
 71
     0
 42
0.000000
  3
ROMAND
  0
STYLE
 70
    68
  2
SV0
 40
0.000000
 41
0.001667
 50
0.000000
 71
     0
 42
0.000000
  3
ROMAND
  0
ENDTAB
  0
TABLE
  2
LAYER
 70
     2
  0
LAYER
  2
FOREGROUND
 70
    64
 62
     7
  6
CONTINUOUS
  0
LAYER
  2
BACKGROUND
 70
    65
 62
    -7
  6
CONTINUOUS
  0
ENDTAB
  0
ENDSEC
  0
SECTION
  2
ENTITIES
  0
POLYLINE
  8
FOREGROUND
  6
CONTINUOUS
 66
     1
 40
0.010000
 41
0.010000
 70
     1
  0
VERTEX
  8
FOREGROUND
  6
CONTINUOUS
 10
3.208333
 20
0.050000
  0
VERTEX
  8
FOREGROUND
  6
CONTINUOUS
 10
3.236639
 20
0.050271
  0
VERTEX
  8
FOREGROUND
  6
CONTINUOUS
 10
3.264823
 20
0.051037
  0
VERTEX
  8
FOREGROUND
  6
CONTINUOUS
 10
3.292881
 20
0.052293
  0
VERTEX
  8
FOREGROUND
  6
CONTINUOUS
 10
3.320810
 20
0.054035
  0
VERTEX
  8
FOREGROUND
  6
CONTINUOUS
 10
3.348604
 20
0.056259
  0
VERTEX
  8
FOREGROUND
  6
CONTINUOUS
 10
3.376261
 20
0.058961
  0
VERTEX
  8
FOREGROUND
  6
CONTINUOUS
 10
3.403776
 20
0.062137
  0
VERTEX
  8
FOREGROUND
  6
CONTINUOUS
 10
3.431144
 20
0.065783
  0
VERTEX
  8
FOREGROUND
  6
CONTINUOUS
 10
3.458363
 20
0.069894
  0
VERTEX
  8
FOREGROUND
  6
CONTINUOUS
 10
3.485426
 20
0.074466
  0
VERTEX
  8
FOREGROUND
  6
CONTINUOUS
 10
3.512331
 20
0.079495
  0
VERTEX
  8
FOREGROUND
  6
CONTINUOUS
 10
3.539073
 20
0.084978
  0
VERTEX
  8
FOREGROUND
  6
CONTINUOUS
 10
3.565647
 20
0.090909
  0
VERTEX
  8
FOREGROUND
  6
CONTINUOUS
 10
3.592051
 20
0.097285
  0
VERTEX
  8
FOREGROUND
  6
CONTINUOUS
 10
3.618279
 20
0.104102
  0
VERTEX
  8
FOREGROUND
  6
CONTINUOUS
 10
3.644328
 20
0.111355
  0
VERTEX
  8
FOREGROUND
  6
CONTINUOUS
 10
3.670193
 20
0.119040
  0
VERTEX
  8
FOREGROUND
  6
CONTINUOUS
 10
3.695871
 20
0.127154
  0
VERTEX
  8
FOREGROUND
  6
CONTINUOUS
 10
3.721357
 20
0.135691
  0
VERTEX
  8
FOREGROUND
  6
CONTINUOUS
 10
3.746646
 20
0.144649
  0
VERTEX
  8
FOREGROUND
  6
CONTINUOUS
 10
3.771735
 20
0.154022
  0
VERTEX
  8
FOREGROUND
  6
CONTINUOUS
 10
3.796620
 20
0.163806
  0
VERTEX
  8
FOREGROUND
  6
CONTINUOUS
 10
3.821297
 20
0.173998
  0
VERTEX
  8
FOREGROUND
  6
CONTINUOUS
 10
3.845761
 20
0.184593
  0
VERTEX
  8
FOREGROUND
  6
CONTINUOUS
 10
3.870008
 20
0.195588
  0
VERTEX
  8
FOREGROUND
  6
CONTINUOUS
 10
3.894034
 20
0.206977
  0
VERTEX
  8
FOREGROUND
  6
CONTINUOUS
 10
3.917835
 20
0.218757
  0
VERTEX
  8
FOREGROUND
  6
CONTINUOUS
 10
3.941406
 20
0.230924
  0
VERTEX
  8
FOREGROUND
  6
CONTINUOUS
 10
3.964745
 20
0.243473
  0
VERTEX
  8
FOREGROUND
  6
CONTINUOUS
 10
3.987845
 20
0.256401
  0
VERTEX
  8
FOREGROUND
  6
CONTINUOUS
 10
4.010704
 20
0.269703
  0
VERTEX
  8
FOREGROUND
  6
CONTINUOUS
 10
4.033318
 20
0.283375
  0
VERTEX
  8
FOREGROUND
  6
CONTINUOUS
 10
4.055681
 20
0.297413
  0
VERTEX
  8
FOREGROUND
  6
CONTINUOUS
 10
4.077790
 20
0.311813
  0
VERTEX
  8
FOREGROUND
  6
CONTINUOUS
 10
4.099641
 20
0.326571
  0
VERTEX
  8
FOREGROUND
  6
CONTINUOUS
 10
4.121229
 20
0.341682
  0
VERTEX
  8
FOREGROUND
  6
CONTINUOUS
 10
4.142551
 20
0.357142
  0
VERTEX
  8
FOREGROUND
  6
CONTINUOUS
 10
4.163602
 20
0.372948
  0
VERTEX
  8
FOREGROUND
  6
CONTINUOUS
 10
4.184378
 20
0.389094
  0
VERTEX
  8
FOREGROUND
  6
CONTINUOUS
 10
4.204875
 20
0.405578
  0
VERTEX
  8
FOREGROUND
  6
CONTINUOUS
 10
4.225089
 20
0.422394
  0
VERTEX
  8
FOREGROUND
  6
CONTINUOUS
 10
4.245016
 20
0.439539
  0
VERTEX
  8
FOREGROUND
  6
CONTINUOUS
 10
4.264651
 20
0.457009
  0
VERTEX
  8
FOREGROUND
  6
CONTINUOUS
 10
4.283991
 20
0.474799
  0
VERTEX
  8
FOREGROUND
  6
CONTINUOUS
 10
4.303031
 20
0.492905
  0
VERTEX
  8
FOREGROUND
  6
CONTINUOUS
 10
4.321766
 20
0.511323
  0
VERTEX
  8
FOREGROUND
  6
CONTINUOUS
 10
4.340194
 20
0.530049
  0
VERTEX
  8
FOREGROUND
  6
CONTINUOUS
 10
4.358310
 20
0.549078
  0
VERTEX
  8
FOREGROUND
  6
CONTINUOUS
 10
4.376109
 20
0.568408
  0
VERTEX
  8
FOREGROUND
  6
CONTINUOUS
 10
4.393588
 20
0.588032
  0
VERTEX
  8
FOREGROUND
  6
CONTINUOUS
 10
4.410742
 20
0.607949
  0
VERTEX
  8
FOREGROUND
  6
CONTINUOUS
 10
4.427567
 20
0.628152
  0
VERTEX
  8
FOREGROUND
  6
CONTINUOUS
 10
4.444060
 20
0.648638
  0
VERTEX
  8
FOREGROUND
  6
CONTINUOUS
 10
4.460215
 20
0.669403
  0
VERTEX
  8
FOREGROUND
  6
CONTINUOUS
 10
4.476029
 20
0.690443
  0
VERTEX
  8
FOREGROUND
  6
CONTINUOUS
 10
4.491497
 20
0.711754
  0
VERTEX
  8
FOREGROUND
  6
CONTINUOUS
 10
4.506616
 20
0.733331
  0
VERTEX
  8
FOREGROUND
  6
CONTINUOUS
 10
4.521382
 20
0.755170
  0
VERTEX
  8
FOREGROUND
  6
CONTINUOUS
 10
4.535789
 20
0.777267
  0
VERTEX
  8
FOREGROUND
  6
CONTINUOUS
 10
4.549835
 20
0.799619
  0
VERTEX
  8
FOREGROUND
  6
CONTINUOUS
 10
4.563514
 20
0.822220
  0
VERTEX
  8
FOREGROUND
  6
CONTINUOUS
 10
4.576823
 20
0.845067
  0
VERTEX
  8
FOREGROUND
  6
CONTINUOUS
 10
4.589758
 20
0.868156
  0
VERTEX
  8
FOREGROUND
  6
CONTINUOUS
 10
4.602314
 20
0.891482
  0
VERTEX
  8
FOREGROUND
  6
CONTINUOUS
 10
4.614487
 20
0.915041
  0
VERTEX
  8
FOREGROUND
  6
CONTINUOUS
 10
4.626273
 20
0.938829
  0
VERTEX
  8
FOREGROUND
  6
CONTINUOUS
 10
4.637669
 20
0.962843
  0
VERTEX
  8
FOREGROUND
  6
CONTINUOUS
 10
4.648669
 20
0.987077
  0
VERTEX
  8
FOREGROUND
  6
CONTINUOUS
 10
4.659270
 20
1.011528
  0
VERTEX
  8
FOREGROUND
  6
CONTINUOUS
 10
4.669467
 20
1.036191
  0
VERTEX
  8
FOREGROUND
  6
CONTINUOUS
 10
4.679257
 20
1.061063
  0
VERTEX
  8
FOREGROUND
  6
CONTINUOUS
 10
4.688635
 20
1.086139
  0
VERTEX
  8
FOREGROUND
  6
CONTINUOUS
 10
4.697597
 20
1.111415
  0
VERTEX
  8
FOREGROUND
  6
CONTINUOUS
 10
4.706139
 20
1.136887
  0
VERTEX
  8
FOREGROUND
  6
CONTINUOUS
 10
4.714257
 20
1.162551
  0
VERTEX
  8
FOREGROUND
  6
CONTINUOUS
 10
4.721946
 20
1.188402
  0
VERTEX
  8
FOREGROUND
  6
CONTINUOUS
 10
4.729203
 20
1.214438
  0
VERTEX
  8
FOREGROUND
  6
CONTINUOUS
 10
4.736023
 20
1.240652
  0
VERTEX
  8
FOREGROUND
  6
CONTINUOUS
 10
4.742402
 20
1.267042
  0
VERTEX
  8
FOREGROUND
  6
CONTINUOUS
 10
4.748337
 20
1.293602
  0
VERTEX
  8
FOREGROUND
  6
CONTINUOUS
 10
4.753822
 20
1.320330
  0
VERTEX
  8
FOREGROUND
  6
CONTINUOUS
 10
4.758854
 20
1.347221
  0
VERTEX
  8
FOREGROUND
  6
CONTINUOUS
 10
4.763429
 20
1.374270
  0
VERTEX
  8
FOREGROUND
  6
CONTINUOUS
 10
4.767542
 20
1.401473
  0
VERTEX
  8
FOREGROUND
  6
CONTINUOUS
 10
4.771190
 20
1.428827
  0
VERTEX
  8
FOREGROUND
  6
CONTINUOUS
 10
4.774367
 20
1.456328
  0
VERTEX
  8
FOREGROUND
  6
CONTINUOUS
 10
4.777071
 20
1.483970
  0
VERTEX
  8
FOREGROUND
  6
CONTINUOUS
 10
4.779296
 20
1.511750
  0
VERTEX
  8
FOREGROUND
  6
CONTINUOUS
 10
4.781039
 20
1.539664
  0
VERTEX
  8
FOREGROUND
  6
CONTINUOUS
 10
4.782296
 20
1.567707
  0
VERTEX
  8
FOREGROUND
  6
CONTINUOUS
 10
4.783062
 20
1.595876
  0
VERTEX
  8
FOREGROUND
  6
CONTINUOUS
 10
4.783333
 20
1.624167
  0
VERTEX
  8
FOREGROUND
  6
CONTINUOUS
 10
4.783333
 20
1.624167
  0
VERTEX
  8
FOREGROUND
  6
CONTINUOUS
 10
4.783062
 20
1.652461
  0
VERTEX
  8
FOREGROUND
  6
CONTINUOUS
 10
4.782296
 20
1.680633
  0
VERTEX
  8
FOREGROUND
  6
CONTINUOUS
 10
4.781039
 20
1.708680
  0
VERTEX
  8
FOREGROUND
  6
CONTINUOUS
 10
4.779295
 20
1.736598
  0
VERTEX
  8
FOREGROUND
  6
CONTINUOUS
 10
4.777069
 20
1.764382
  0
VERTEX
  8
FOREGROUND
  6
CONTINUOUS
 10
4.774365
 20
1.792027
  0
VERTEX
  8
FOREGROUND
  6
CONTINUOUS
 10
4.771187
 20
1.819531
  0
VERTEX
  8
FOREGROUND
  6
CONTINUOUS
 10
4.767538
 20
1.846888
  0
VERTEX
  8
FOREGROUND
  6
CONTINUOUS
 10
4.763424
 20
1.874095
  0
VERTEX
  8
FOREGROUND
  6
CONTINUOUS
 10
4.758848
 20
1.901147
  0
VERTEX
  8
FOREGROUND
  6
CONTINUOUS
 10
4.753815
 20
1.928041
  0
VERTEX
  8
FOREGROUND
  6
CONTINUOUS
 10
4.748328
 20
1.954772
  0
VERTEX
  8
FOREGROUND
  6
CONTINUOUS
 10
4.742393
 20
1.981336
  0
VERTEX
  8
FOREGROUND
  6
CONTINUOUS
 10
4.736012
 20
2.007728
  0
VERTEX
  8
FOREGROUND
  6
CONTINUOUS
 10
4.729190
 20
2.033946
  0
VERTEX
  8
FOREGROUND
  6
CONTINUOUS
 10
4.721931
 20
2.059984
  0
VERTEX
  8
FOREGROUND
  6
CONTINUOUS
 10
4.714240
 20
2.085838
  0
VERTEX
  8
FOREGROUND
  6
CONTINUOUS
 10
4.706120
 20
2.111505
  0
VERTEX
  8
FOREGROUND
  6
CONTINUOUS
 10
4.697576
 20
2.136979
  0
VERTEX
  8
FOREGROUND
  6
CONTINUOUS
 10
4.688612
 20
2.162258
  0
VERTEX
  8
FOREGROUND
  6
CONTINUOUS
 10
4.679232
 20
2.187337
  0
VERTEX
  8
FOREGROUND
  6
CONTINUOUS
 10
4.669440
 20
2.212211
  0
VERTEX
  8
FOREGROUND
  6
CONTINUOUS
 10
4.659240
 20
2.236877
  0
VERTEX
  8
FOREGROUND
  6
CONTINUOUS
 10
4.648637
 20
2.261330
  0
VERTEX
  8
FOREGROUND
  6
CONTINUOUS
 10
4.637634
 20
2.285566
  0
VERTEX
  8
FOREGROUND
  6
CONTINUOUS
 10
4.626236
 20
2.309582
  0
VERTEX
  8
FOREGROUND
  6
CONTINUOUS
 10
4.614447
 20
2.333372
  0
VERTEX
  8
FOREGROUND
  6
CONTINUOUS
 10
4.602271
 20
2.356933
  0
VERTEX
  8
FOREGROUND
  6
CONTINUOUS
 10
4.589712
 20
2.380261
  0
VERTEX
  8
FOREGROUND
  6
CONTINUOUS
 10
4.576775
 20
2.403352
  0
VERTEX
  8
FOREGROUND
  6
CONTINUOUS
 10
4.563463
 20
2.426200
  0
VERTEX
  8
FOREGROUND
  6
CONTINUOUS
 10
4.549780
 20
2.448803
  0
VERTEX
  8
FOREGROUND
  6
CONTINUOUS
 10
4.535732
 20
2.471156
  0
VERTEX
  8
FOREGROUND
  6
CONTINUOUS
 10
4.521321
 20
2.493255
  0
VERTEX
  8
FOREGROUND
  6
CONTINUOUS
 10
4.506553
 20
2.515096
  0
VERTEX
  8
FOREGROUND
  6
CONTINUOUS
 10
4.491430
 20
2.536674
  0
VERTEX
  8
FOREGROUND
  6
CONTINUOUS
 10
4.475958
 20
2.557986
  0
VERTEX
  8
FOREGROUND
  6
CONTINUOUS
 10
4.460141
 20
2.579027
  0
VERTEX
  8
FOREGROUND
  6
CONTINUOUS
 10
4.443982
 20
2.599793
  0
VERTEX
  8
FOREGROUND
  6
CONTINUOUS
 10
4.427486
 20
2.620281
  0
VERTEX
  8
FOREGROUND
  6
CONTINUOUS
 10
4.410658
 20
2.640485
  0
VERTEX
  8
FOREGROUND
  6
CONTINUOUS
 10
4.393500
 20
2.660402
  0
VERTEX
  8
FOREGROUND
  6
CONTINUOUS
 10
4.376017
 20
2.680027
  0
VERTEX
  8
FOREGROUND
  6
CONTINUOUS
 10
4.358215
 20
2.699357
  0
VERTEX
  8
FOREGROUND
  6
CONTINUOUS
 10
4.340095
 20
2.718388
  0
VERTEX
  8
FOREGROUND
  6
CONTINUOUS
 10
4.321664
 20
2.737114
  0
VERTEX
  8
FOREGROUND
  6
CONTINUOUS
 10
4.302924
 20
2.755532
  0
VERTEX
  8
FOREGROUND
  6
CONTINUOUS
 10
4.283880
 20
2.773639
  0
VERTEX
  8
FOREGROUND
  6
CONTINUOUS
 10
4.264537
 20
2.791429
  0
VERTEX
  8
FOREGROUND
  6
CONTINUOUS
 10
4.244897
 20
2.808898
  0
VERTEX
  8
FOREGROUND
  6
CONTINUOUS
 10
4.224967
 20
2.826043
  0
VERTEX
  8
FOREGROUND
  6
CONTINUOUS
 10
4.204749
 20
2.842859
  0
VERTEX
  8
FOREGROUND
  6
CONTINUOUS
 10
4.184248
 20
2.859343
  0
VERTEX
  8
FOREGROUND
  6
CONTINUOUS
 10
4.163467
 20
2.875489
  0
VERTEX
  8
FOREGROUND
  6
CONTINUOUS
 10
4.142412
 20
2.891294
  0
VERTEX
  8
FOREGROUND
  6
CONTINUOUS
 10
4.121086
 20
2.906754
  0
VERTEX
  8
FOREGROUND
  6
CONTINUOUS
 10
4.099494
 20
2.921864
  0
VERTEX
  8
FOREGROUND
  6
CONTINUOUS
 10
4.077639
 20
2.936621
  0
VERTEX
  8
FOREGROUND
  6
CONTINUOUS
 10
4.055525
 20
2.951020
  0
VERTEX
  8
FOREGROUND
  6
CONTINUOUS
 10
4.033158
 20
2.965057
  0
VERTEX
  8
FOREGROUND
  6
CONTINUOUS
 10
4.010541
 20
2.978728
  0
VERTEX
  8
FOREGROUND
  6
CONTINUOUS
 10
3.987677
 20
2.992028
  0
VERTEX
  8
FOREGROUND
  6
CONTINUOUS
 10
3.964572
 20
3.004955
  0
VERTEX
  8
FOREGROUND
  6
CONTINUOUS
 10
3.941230
 20
3.017503
  0
VERTEX
  8
FOREGROUND
  6
CONTINUOUS
 10
3.917654
 20
3.029668
  0
VERTEX
  8
FOREGROUND
  6
CONTINUOUS
 10
3.893848
 20
3.041446
  0
VERTEX
  8
FOREGROUND
  6
CONTINUOUS
 10
3.869818
 20
3.052834
  0
VERTEX
  8
FOREGROUND
  6
CONTINUOUS
 10
3.845567
 20
3.063826
  0
VERTEX
  8
FOREGROUND
  6
CONTINUOUS
 10
3.821099
 20
3.074419
  0
VERTEX
  8
FOREGROUND
  6
CONTINUOUS
 10
3.796418
 20
3.084609
  0
VERTEX
  8
FOREGROUND
  6
CONTINUOUS
 10
3.771529
 20
3.094391
  0
VERTEX
  8
FOREGROUND
  6
CONTINUOUS
 10
3.746435
 20
3.103762
  0
VERTEX
  8
FOREGROUND
  6
CONTINUOUS
 10
3.721142
 20
3.112717
  0
VERTEX
  8
FOREGROUND
  6
CONTINUOUS
 10
3.695652
 20
3.121251
  0
VERTEX
  8
FOREGROUND
  6
CONTINUOUS
 10
3.669970
 20
3.129362
  0
VERTEX
  8
FOREGROUND
  6
CONTINUOUS
 10
3.644101
 20
3.137044
  0
VERTEX
  8
FOREGROUND
  6
CONTINUOUS
 10
3.618048
 20
3.144294
  0
VERTEX
  8
FOREGROUND
  6
CONTINUOUS
 10
3.591815
 20
3.151108
  0
VERTEX
  8
FOREGROUND
  6
CONTINUOUS
 10
3.565407
 20
3.157480
  0
VERTEX
  8
FOREGROUND
  6
CONTINUOUS
 10
3.538828
 20
3.163408
  0
VERTEX
  8
FOREGROUND
  6
CONTINUOUS
 10
3.512082
 20
3.168887
  0
VERTEX
  8
FOREGROUND
  6
CONTINUOUS
 10
3.485173
 20
3.173913
  0
VERTEX
  8
FOREGROUND
  6
CONTINUOUS
 10
3.458106
 20
3.178481
  0
VERTEX
  8
FOREGROUND
  6
CONTINUOUS
 10
3.430884
 20
3.182588
  0
VERTEX
  8
FOREGROUND
  6
CONTINUOUS
 10
3.403511
 20
3.186229
  0
VERTEX
  8
FOREGROUND
  6
CONTINUOUS
 10
3.375993
 20
3.189401
  0
VERTEX
  8
FOREGROUND
  6
CONTINUOUS
 10
3.348332
 20
3.192098
  0
VERTEX
  8
FOREGROUND
  6
CONTINUOUS
 10
3.320533
 20
3.194318
  0
VERTEX
  8
FOREGROUND
  6
CONTINUOUS
 10
3.292601
 20
3.196056
  0
VERTEX
  8
FOREGROUND
  6
CONTINUOUS
 10
3.264538
 20
3.197307
  0
VERTEX
  8
FOREGROUND
  6
CONTINUOUS
 10
3.236351
 20
3.198067
  0
VERTEX
  8
FOREGROUND
  6
CONTINUOUS
 10
3.208042
 20
3.198333
  0
VERTEX
  8
FOREGROUND
  6
CONTINUOUS
 10
1.624708
 20
3.198333
  0
VERTEX
  8
FOREGROUND
  6
CONTINUOUS
 10
1.596407
 20
3.198057
  0
VERTEX
  8
FOREGROUND
  6
CONTINUOUS
 10
1.568227
 20
3.197286
  0
VERTEX
  8
FOREGROUND
  6
CONTINUOUS
 10
1.540172
 20
3.196025
  0
VERTEX
  8
FOREGROUND
  6
CONTINUOUS
 10
1.512247
 20
3.194278
  0
VERTEX
  8
FOREGROUND
  6
CONTINUOUS
 10
1.484456
 20
3.192049
  0
VERTEX
  8
FOREGROUND
  6
CONTINUOUS
 10
1.456803
 20
3.189343
  0
VERTEX
  8
FOREGROUND
  6
CONTINUOUS
 10
1.429293
 20
3.186163
  0
VERTEX
  8
FOREGROUND
  6
CONTINUOUS
 10
1.401928
 20
3.182513
  0
VERTEX
  8
FOREGROUND
  6
CONTINUOUS
 10
1.374714
 20
3.178398
  0
VERTEX
  8
FOREGROUND
  6
CONTINUOUS
 10
1.347655
 20
3.173822
  0
VERTEX
  8
FOREGROUND
  6
CONTINUOUS
 10
1.320754
 20
3.168789
  0
VERTEX
  8
FOREGROUND
  6
CONTINUOUS
 10
1.294017
 20
3.163303
  0
VERTEX
  8
FOREGROUND
  6
CONTINUOUS
 10
1.267446
 20
3.157368
  0
VERTEX
  8
FOREGROUND
  6
CONTINUOUS
 10
1.241046
 20
3.150988
  0
VERTEX
  8
FOREGROUND
  6
CONTINUOUS
 10
1.214822
 20
3.144168
  0
VERTEX
  8
FOREGROUND
  6
CONTINUOUS
 10
1.188778
 20
3.136912
  0
VERTEX
  8
FOREGROUND
  6
CONTINUOUS
 10
1.162917
 20
3.129224
  0
VERTEX
  8
FOREGROUND
  6
CONTINUOUS
 10
1.137243
 20
3.121108
  0
VERTEX
  8
FOREGROUND
  6
CONTINUOUS
 10
1.111762
 20
3.112568
  0
VERTEX
  8
FOREGROUND
  6
CONTINUOUS
 10
1.086477
 20
3.103608
  0
VERTEX
  8
FOREGROUND
  6
CONTINUOUS
 10
1.061392
 20
3.094232
  0
VERTEX
  8
FOREGROUND
  6
CONTINUOUS
 10
1.036511
 20
3.084445
  0
VERTEX
  8
FOREGROUND
  6
CONTINUOUS
 10
1.011839
 20
3.074251
  0
VERTEX
  8
FOREGROUND
  6
CONTINUOUS
 10
0.987379
 20
3.063654
  0
VERTEX
  8
FOREGROUND
  6
CONTINUOUS
 10
0.963137
 20
3.052657
  0
VERTEX
  8
FOREGROUND
  6
CONTINUOUS
 10
0.939115
 20
3.041266
  0
VERTEX
  8
FOREGROUND
  6
CONTINUOUS
 10
0.915318
 20
3.029484
  0
VERTEX
  8
FOREGROUND
  6
CONTINUOUS
 10
0.891751
 20
3.017316
  0
VERTEX
  8
FOREGROUND
  6
CONTINUOUS
 10
0.868417
 20
3.004765
  0
VERTEX
  8
FOREGROUND
  6
CONTINUOUS
 10
0.845320
 20
2.991836
  0
VERTEX
  8
FOREGROUND
  6
CONTINUOUS
 10
0.822465
 20
2.978533
  0
VERTEX
  8
FOREGROUND
  6
CONTINUOUS
 10
0.799856
 20
2.964859
  0
VERTEX
  8
FOREGROUND
  6
CONTINUOUS
 10
0.777497
 20
2.950820
  0
VERTEX
  8
FOREGROUND
  6
CONTINUOUS
 10
0.755392
 20
2.936420
  0
VERTEX
  8
FOREGROUND
  6
CONTINUOUS
 10
0.733546
 20
2.921661
  0
VERTEX
  8
FOREGROUND
  6
CONTINUOUS
 10
0.711961
 20
2.906550
  0
VERTEX
  8
FOREGROUND
  6
CONTINUOUS
 10
0.690644
 20
2.891089
  0
VERTEX
  8
FOREGROUND
  6
CONTINUOUS
 10
0.669597
 20
2.875282
  0
VERTEX
  8
FOREGROUND
  6
CONTINUOUS
 10
0.648825
 20
2.859135
  0
VERTEX
  8
FOREGROUND
  6
CONTINUOUS
 10
0.628332
 20
2.842652
  0
VERTEX
  8
FOREGROUND
  6
CONTINUOUS
 10
0.608122
 20
2.825835
  0
VERTEX
  8
FOREGROUND
  6
CONTINUOUS
 10
0.588199
 20
2.808690
  0
VERTEX
  8
FOREGROUND
  6
CONTINUOUS
 10
0.568568
 20
2.791221
  0
VERTEX
  8
FOREGROUND
  6
CONTINUOUS
 10
0.549232
 20
2.773431
  0
VERTEX
  8
FOREGROUND
  6
CONTINUOUS
 10
0.530196
 20
2.755325
  0
VERTEX
  8
FOREGROUND
  6
CONTINUOUS
 10
0.511464
 20
2.736907
  0
VERTEX
  8
FOREGROUND
  6
CONTINUOUS
 10
0.493040
 20
2.718182
  0
VERTEX
  8
FOREGROUND
  6
CONTINUOUS
 10
0.474928
 20
2.699153
  0
VERTEX
  8
FOREGROUND
  6
CONTINUOUS
 10
0.457133
 20
2.679824
  0
VERTEX
  8
FOREGROUND
  6
CONTINUOUS
 10
0.439658
 20
2.660200
  0
VERTEX
  8
FOREGROUND
  6
CONTINUOUS
 10
0.422507
 20
2.640284
  0
VERTEX
  8
FOREGROUND
  6
CONTINUOUS
 10
0.405685
 20
2.620082
  0
VERTEX
  8
FOREGROUND
  6
CONTINUOUS
 10
0.389197
 20
2.599597
  0
VERTEX
  8
FOREGROUND
  6
CONTINUOUS
 10
0.373045
 20
2.578833
  0
VERTEX
  8
FOREGROUND
  6
CONTINUOUS
 10
0.357234
 20
2.557794
  0
VERTEX
  8
FOREGROUND
  6
CONTINUOUS
 10
0.341769
 20
2.536485
  0
VERTEX
  8
FOREGROUND
  6
CONTINUOUS
 10
0.326653
 20
2.514909
  0
VERTEX
  8
FOREGROUND
  6
CONTINUOUS
 10
0.311891
 20
2.493071
  0
VERTEX
  8
FOREGROUND
  6
CONTINUOUS
 10
0.297487
 20
2.470975
  0
VERTEX
  8
FOREGROUND
  6
CONTINUOUS
 10
0.283445
 20
2.448626
  0
VERTEX
  8
FOREGROUND
  6
CONTINUOUS
 10
0.269768
 20
2.426026
  0
VERTEX
  8
FOREGROUND
  6
CONTINUOUS
 10
0.256462
 20
2.403181
  0
VERTEX
  8
FOREGROUND
  6
CONTINUOUS
 10
0.243531
 20
2.380094
  0
VERTEX
  8
FOREGROUND
  6
CONTINUOUS
 10
0.230978
 20
2.356770
  0
VERTEX
  8
FOREGROUND
  6
CONTINUOUS
 10
0.218807
 20
2.333213
  0
VERTEX
  8
FOREGROUND
  6
CONTINUOUS
 10
0.207023
 20
2.309427
  0
VERTEX
  8
FOREGROUND
  6
CONTINUOUS
 10
0.195630
 20
2.285415
  0
VERTEX
  8
FOREGROUND
  6
CONTINUOUS
 10
0.184633
 20
2.261183
  0
VERTEX
  8
FOREGROUND
  6
CONTINUOUS
 10
0.174034
 20
2.236735
  0
VERTEX
  8
FOREGROUND
  6
CONTINUOUS
 10
0.163839
 20
2.212074
  0
VERTEX
  8
FOREGROUND
  6
CONTINUOUS
 10
0.154052
 20
2.187205
  0
VERTEX
  8
FOREGROUND
  6
CONTINUOUS
 10
0.144676
 20
2.162131
  0
VERTEX
  8
FOREGROUND
  6
CONTINUOUS
 10
0.135716
 20
2.136857
  0
VERTEX
  8
FOREGROUND
  6
CONTINUOUS
 10
0.127176
 20
2.111388
  0
VERTEX
  8
FOREGROUND
  6
CONTINUOUS
 10
0.119060
 20
2.085727
  0
VERTEX
  8
FOREGROUND
  6
CONTINUOUS
 10
0.111373
 20
2.059878
  0
VERTEX
  8
FOREGROUND
  6
CONTINUOUS
 10
0.104118
 20
2.033846
  0
VERTEX
  8
FOREGROUND
  6
CONTINUOUS
 10
0.097299
 20
2.007634
  0
VERTEX
  8
FOREGROUND
  6
CONTINUOUS
 10
0.090921
 20
1.981248
  0
VERTEX
  8
FOREGROUND
  6
CONTINUOUS
 10
0.084988
 20
1.954690
  0
VERTEX
  8
FOREGROUND
  6
CONTINUOUS
 10
0.079504
 20
1.927965
  0
VERTEX
  8
FOREGROUND
  6
CONTINUOUS
 10
0.074473
 20
1.901078
  0
VERTEX
  8
FOREGROUND
  6
CONTINUOUS
 10
0.069900
 20
1.874032
  0
VERTEX
  8
FOREGROUND
  6
CONTINUOUS
 10
0.065787
 20
1.846832
  0
VERTEX
  8
FOREGROUND
  6
CONTINUOUS
 10
0.062141
 20
1.819481
  0
VERTEX
  8
FOREGROUND
  6
CONTINUOUS
 10
0.058964
 20
1.791984
  0
VERTEX
  8
FOREGROUND
  6
CONTINUOUS
 10
0.056261
 20
1.764346
  0
VERTEX
  8
FOREGROUND
  6
CONTINUOUS
 10
0.054036
 20
1.736569
  0
VERTEX
  8
FOREGROUND
  6
CONTINUOUS
 10
0.052294
 20
1.708659
  0
VERTEX
  8
FOREGROUND
  6
CONTINUOUS
 10
0.051037
 20
1.680619
  0
VERTEX
  8
FOREGROUND
  6
CONTINUOUS
 10
0.050271
 20
1.652453
  0
VERTEX
  8
FOREGROUND
  6
CONTINUOUS
 10
0.050000
 20
1.624167
  0
VERTEX
  8
FOREGROUND
  6
CONTINUOUS
 10
0.050000
 20
1.624167
  0
VERTEX
  8
FOREGROUND
  6
CONTINUOUS
 10
0.050271
 20
1.595876
  0
VERTEX
  8
FOREGROUND
  6
CONTINUOUS
 10
0.051037
 20
1.567707
  0
VERTEX
  8
FOREGROUND
  6
CONTINUOUS
 10
0.052294
 20
1.539664
  0
VERTEX
  8
FOREGROUND
  6
CONTINUOUS
 10
0.054037
 20
1.511750
  0
VERTEX
  8
FOREGROUND
  6
CONTINUOUS
 10
0.056263
 20
1.483970
  0
VERTEX
  8
FOREGROUND
  6
CONTINUOUS
 10
0.058966
 20
1.456328
  0
VERTEX
  8
FOREGROUND
  6
CONTINUOUS
 10
0.062144
 20
1.428827
  0
VERTEX
  8
FOREGROUND
  6
CONTINUOUS
 10
0.065791
 20
1.401473
  0
VERTEX
  8
FOREGROUND
  6
CONTINUOUS
 10
0.069904
 20
1.374270
  0
VERTEX
  8
FOREGROUND
  6
CONTINUOUS
 10
0.074479
 20
1.347221
  0
VERTEX
  8
FOREGROUND
  6
CONTINUOUS
 10
0.079511
 20
1.320330
  0
VERTEX
  8
FOREGROUND
  6
CONTINUOUS
 10
0.084996
 20
1.293602
  0
VERTEX
  8
FOREGROUND
  6
CONTINUOUS
 10
0.090931
 20
1.267042
  0
VERTEX
  8
FOREGROUND
  6
CONTINUOUS
 10
0.097310
 20
1.240652
  0
VERTEX
  8
FOREGROUND
  6
CONTINUOUS
 10
0.104130
 20
1.214437
  0
VERTEX
  8
FOREGROUND
  6
CONTINUOUS
 10
0.111387
 20
1.188402
  0
VERTEX
  8
FOREGROUND
  6
CONTINUOUS
 10
0.119077
 20
1.162551
  0
VERTEX
  8
FOREGROUND
  6
CONTINUOUS
 10
0.127194
 20
1.136887
  0
VERTEX
  8
FOREGROUND
  6
CONTINUOUS
 10
0.135736
 20
1.111415
  0
VERTEX
  8
FOREGROUND
  6
CONTINUOUS
 10
0.144698
 20
1.086139
  0
VERTEX
  8
FOREGROUND
  6
CONTINUOUS
 10
0.154076
 20
1.061063
  0
VERTEX
  8
FOREGROUND
  6
CONTINUOUS
 10
0.163866
 20
1.036191
  0
VERTEX
  8
FOREGROUND
  6
CONTINUOUS
 10
0.174064
 20
1.011527
  0
VERTEX
  8
FOREGROUND
  6
CONTINUOUS
 10
0.184664
 20
0.987077
  0
VERTEX
  8
FOREGROUND
  6
CONTINUOUS
 10
0.195665
 20
0.962842
  0
VERTEX
  8
FOREGROUND
  6
CONTINUOUS
 10
0.207060
 20
0.938829
  0
VERTEX
  8
FOREGROUND
  6
CONTINUOUS
 10
0.218846
 20
0.915041
  0
VERTEX
  8
FOREGROUND
  6
CONTINUOUS
 10
0.231020
 20
0.891481
  0
VERTEX
  8
FOREGROUND
  6
CONTINUOUS
 10
0.243576
 20
0.868156
  0
VERTEX
  8
FOREGROUND
  6
CONTINUOUS
 10
0.256510
 20
0.845067
  0
VERTEX
  8
FOREGROUND
  6
CONTINUOUS
 10
0.269819
 20
0.822220
  0
VERTEX
  8
FOREGROUND
  6
CONTINUOUS
 10
0.283499
 20
0.799619
  0
VERTEX
  8
FOREGROUND
  6
CONTINUOUS
 10
0.297544
 20
0.777267
  0
VERTEX
  8
FOREGROUND
  6
CONTINUOUS
 10
0.311952
 20
0.755170
  0
VERTEX
  8
FOREGROUND
  6
CONTINUOUS
 10
0.326717
 20
0.733331
  0
VERTEX
  8
FOREGROUND
  6
CONTINUOUS
 10
0.341836
 20
0.711754
  0
VERTEX
  8
FOREGROUND
  6
CONTINUOUS
 10
0.357304
 20
0.690443
  0
VERTEX
  8
FOREGROUND
  6
CONTINUOUS
 10
0.373118
 20
0.669403
  0
VERTEX
  8
FOREGROUND
  6
CONTINUOUS
 10
0.389274
 20
0.648638
  0
VERTEX
  8
FOREGROUND
  6
CONTINUOUS
 10
0.405766
 20
0.628152
  0
VERTEX
  8
FOREGROUND
  6
CONTINUOUS
 10
0.422591
 20
0.607948
  0
VERTEX
  8
FOREGROUND
  6
CONTINUOUS
 10
0.439745
 20
0.588032
  0
VERTEX
  8
FOREGROUND
  6
CONTINUOUS
 10
0.457224
 20
0.568408
  0
VERTEX
  8
FOREGROUND
  6
CONTINUOUS
 10
0.475023
 20
0.549078
  0
VERTEX
  8
FOREGROUND
  6
CONTINUOUS
 10
0.493139
 20
0.530048
  0
VERTEX
  8
FOREGROUND
  6
CONTINUOUS
 10
0.511567
 20
0.511322
  0
VERTEX
  8
FOREGROUND
  6
CONTINUOUS
 10
0.530303
 20
0.492904
  0
VERTEX
  8
FOREGROUND
  6
CONTINUOUS
 10
0.549342
 20
0.474798
  0
VERTEX
  8
FOREGROUND
  6
CONTINUOUS
 10
0.568682
 20
0.457009
  0
VERTEX
  8
FOREGROUND
  6
CONTINUOUS
 10
0.588317
 20
0.439539
  0
VERTEX
  8
FOREGROUND
  6
CONTINUOUS
 10
0.608244
 20
0.422394
  0
VERTEX
  8
FOREGROUND
  6
CONTINUOUS
 10
0.628458
 20
0.405578
  0
VERTEX
  8
FOREGROUND
  6
CONTINUOUS
 10
0.648955
 20
0.389094
  0
VERTEX
  8
FOREGROUND
  6
CONTINUOUS
 10
0.669731
 20
0.372947
  0
VERTEX
  8
FOREGROUND
  6
CONTINUOUS
 10
0.690782
 20
0.357142
  0
VERTEX
  8
FOREGROUND
  6
CONTINUOUS
 10
0.712104
 20
0.341681
  0
VERTEX
  8
FOREGROUND
  6
CONTINUOUS
 10
0.733692
 20
0.326570
  0
VERTEX
  8
FOREGROUND
  6
CONTINUOUS
 10
0.755543
 20
0.311813
  0
VERTEX
  8
FOREGROUND
  6
CONTINUOUS
 10
0.777652
 20
0.297413
  0
VERTEX
  8
FOREGROUND
  6
CONTINUOUS
 10
0.800016
 20
0.283375
  0
VERTEX
  8
FOREGROUND
  6
CONTINUOUS
 10
0.822629
 20
0.269703
  0
VERTEX
  8
FOREGROUND
  6
CONTINUOUS
 10
0.845488
 20
0.256401
  0
VERTEX
  8
FOREGROUND
  6
CONTINUOUS
 10
0.868589
 20
0.243473
  0
VERTEX
  8
FOREGROUND
  6
CONTINUOUS
 10
0.891927
 20
0.230924
  0
VERTEX
  8
FOREGROUND
  6
CONTINUOUS
 10
0.915499
 20
0.218757
  0
VERTEX
  8
FOREGROUND
  6
CONTINUOUS
 10
0.939300
 20
0.206977
  0
VERTEX
  8
FOREGROUND
  6
CONTINUOUS
 10
0.963326
 20
0.195588
  0
VERTEX
  8
FOREGROUND
  6
CONTINUOUS
 10
0.987573
 20
0.184593
  0
VERTEX
  8
FOREGROUND
  6
CONTINUOUS
 10
1.012036
 20
0.173998
  0
VERTEX
  8
FOREGROUND
  6
CONTINUOUS
 10
1.036713
 20
0.163806
  0
VERTEX
  8
FOREGROUND
  6
CONTINUOUS
 10
1.061598
 20
0.154021
  0
VERTEX
  8
FOREGROUND
  6
CONTINUOUS
 10
1.086687
 20
0.144648
  0
VERTEX
  8
FOREGROUND
  6
CONTINUOUS
 10
1.111977
 20
0.135691
  0
VERTEX
  8
FOREGROUND
  6
CONTINUOUS
 10
1.137462
 20
0.127154
  0
VERTEX
  8
FOREGROUND
  6
CONTINUOUS
 10
1.163140
 20
0.119040
  0
VERTEX
  8
FOREGROUND
  6
CONTINUOUS
 10
1.189005
 20
0.111355
  0
VERTEX
  8
FOREGROUND
  6
CONTINUOUS
 10
1.215054
 20
0.104102
  0
VERTEX
  8
FOREGROUND
  6
CONTINUOUS
 10
1.241282
 20
0.097285
  0
VERTEX
  8
FOREGROUND
  6
CONTINUOUS
 10
1.267686
 20
0.090909
  0
VERTEX
  8
FOREGROUND
  6
CONTINUOUS
 10
1.294261
 20
0.084978
  0
VERTEX
  8
FOREGROUND
  6
CONTINUOUS
 10
1.321003
 20
0.079495
  0
VERTEX
  8
FOREGROUND
  6
CONTINUOUS
 10
1.347907
 20
0.074466
  0
VERTEX
  8
FOREGROUND
  6
CONTINUOUS
 10
1.374971
 20
0.069894
  0
VERTEX
  8
FOREGROUND
  6
CONTINUOUS
 10
1.402189
 20
0.065783
  0
VERTEX
  8
FOREGROUND
  6
CONTINUOUS
 10
1.429557
 20
0.062137
  0
VERTEX
  8
FOREGROUND
  6
CONTINUOUS
 10
1.457072
 20
0.058961
  0
VERTEX
  8
FOREGROUND
  6
CONTINUOUS
 10
1.484729
 20
0.056259
  0
VERTEX
  8
FOREGROUND
  6
CONTINUOUS
 10
1.512524
 20
0.054035
  0
VERTEX
  8
FOREGROUND
  6
CONTINUOUS
 10
1.540452
 20
0.052293
  0
VERTEX
  8
FOREGROUND
  6
CONTINUOUS
 10
1.568511
 20
0.051037
  0
VERTEX
  8
FOREGROUND
  6
CONTINUOUS
 10
1.596695
 20
0.050271
  0
VERTEX
  8
FOREGROUND
  6
CONTINUOUS
 10
1.625000
 20
0.050000
  0
SEQEND
  8
0
  0
ENDSEC
  0
EOF
