  0
SECTION
  2
HEADER
  9
$ACADVER
  1
AC1006
  9
$EXTMIN
 10
0.000000
 20
0.000000
  9
$EXTMAX
 10
5.620000
 20
4.035000
  9
$LTSCALE
 40
0.166667
  9
$PDMODE
 70
    35
  9
$PDSIZE
 40
0.133333
  0
ENDSEC
  0
SECTION
  2
TABLES
  0
TABLE
  2
LTYPE
 70
     9
  0
LTYPE
  2
CONTINUOUS
 70
    64
  3
Solid line
 72
    65
 73
     0
 40
0.000000
  0
LTYPE
  2
DASHED
 70
    64
  3
__ __ __ __ __ __ __ __ __ __ __ __ __ __ __
 72
    65
 73
     2
 40
0.001250
 49
0.000833
 49
-0.000417
  0
LTYPE
  2
HIDDEN
 70
    64
  3
 _ _ _ _ _ _ _ _ _ _ _ _ _ _ _ _ _ _ _ _ _ _
 72
    65
 73
     2
 40
0.000625
 49
0.000417
 49
-0.000208
  0
LTYPE
  2
CENTER
 70
    64
  3
____ _ ____ _ ____ _ ____ _ ____ _ ____ _ ____
 72
    65
 73
     4
 40
0.003333
 49
0.002083
 49
-0.000417
 49
0.000417
 49
-0.000417
  0
LTYPE
  2
PHANTOM
 70
    64
  3
_____ _ _ _____ _ _ _____ _ _ _____ _ _ ____
 72
    65
 73
     6
 40
0.004167
 49
0.002083
 49
-0.000417
 49
0.000417
 49
-0.000417
 49
0.000417
 49
-0.000417
  0
LTYPE
  2
DOT
 70
    64
  3
...............................................
 72
    65
 73
     2
 40
0.000417
 49
0.000000
 49
-0.000417
  0
LTYPE
  2
DASHDOT
 70
    64
  3
__ . __ . __ . __ . __ . __ . __ . __ . __ . __
 72
    65
 73
     4
 40
0.001667
 49
0.000833
 49
-0.000417
 49
0.000000
 49
-0.000417
  0
LTYPE
  2
BORDER
 70
    64
  3
__ __ . __ __ . __ __ . __ __ . __ __ . __ __
 72
    65
 73
     6
 40
0.002917
 49
0.000833
 49
-0.000417
 49
0.000833
 49
-0.000417
 49
0.000000
 49
-0.000417
  0
LTYPE
  2
DIVIDE
 70
    64
  3
__ . . __ . . __ . . __ . . __ . . __ . . __
 72
    65
 73
     6
 40
0.002083
 49
0.000833
 49
-0.000417
 49
0.000000
 49
-0.000417
 49
0.000000
 49
-0.000417
  0
LTYPE
  2
DOTDOT
 70
    64
  3
 . .  . .  . .  . .  . .  . . 
 72
    65
 73
     5
 40
0.000917
 49
-0.000417
 49
0.000000
 49
-0.000417
 49
0.000000
 49
-0.000417
  0
ENDTAB
  0
TABLE
  2
STYLE
 70
     2
  0
STYLE
 70
     0
  2
SN0
 40
0.000000
 41
0.001667
 50
0.000000
 71
     0
 42
0.000000
  3
ROMAND
  0
STYLE
 70
    68
  2
SV0
 40
0.000000
 41
0.001667
 50
0.000000
 71
     0
 42
0.000000
  3
ROMAND
  0
ENDTAB
  0
TABLE
  2
LAYER
 70
     2
  0
LAYER
  2
FOREGROUND
 70
    64
 62
     7
  6
CONTINUOUS
  0
LAYER
  2
BACKGROUND
 70
    65
 62
    -7
  6
CONTINUOUS
  0
ENDTAB
  0
ENDSEC
  0
SECTION
  2
ENTITIES
  0
POLYLINE
  8
FOREGROUND
  6
CONTINUOUS
 66
     1
 40
0.010000
 41
0.010000
 70
     1
  0
VERTEX
  8
FOREGROUND
  6
CONTINUOUS
 10
3.601667
 20
0.050000
  0
VERTEX
  8
FOREGROUND
  6
CONTINUOUS
 10
3.635221
 20
0.050306
  0
VERTEX
  8
FOREGROUND
  6
CONTINUOUS
 10
3.668639
 20
0.051169
  0
VERTEX
  8
FOREGROUND
  6
CONTINUOUS
 10
3.701917
 20
0.052583
  0
VERTEX
  8
FOREGROUND
  6
CONTINUOUS
 10
3.735049
 20
0.054545
  0
VERTEX
  8
FOREGROUND
  6
CONTINUOUS
 10
3.768032
 20
0.057050
  0
VERTEX
  8
FOREGROUND
  6
CONTINUOUS
 10
3.800861
 20
0.060093
  0
VERTEX
  8
FOREGROUND
  6
CONTINUOUS
 10
3.833532
 20
0.063670
  0
VERTEX
  8
FOREGROUND
  6
CONTINUOUS
 10
3.866040
 20
0.067777
  0
VERTEX
  8
FOREGROUND
  6
CONTINUOUS
 10
3.898380
 20
0.072409
  0
VERTEX
  8
FOREGROUND
  6
CONTINUOUS
 10
3.930549
 20
0.077562
  0
VERTEX
  8
FOREGROUND
  6
CONTINUOUS
 10
3.962543
 20
0.083231
  0
VERTEX
  8
FOREGROUND
  6
CONTINUOUS
 10
3.994355
 20
0.089413
  0
VERTEX
  8
FOREGROUND
  6
CONTINUOUS
 10
4.025983
 20
0.096102
  0
VERTEX
  8
FOREGROUND
  6
CONTINUOUS
 10
4.057421
 20
0.103294
  0
VERTEX
  8
FOREGROUND
  6
CONTINUOUS
 10
4.088666
 20
0.110985
  0
VERTEX
  8
FOREGROUND
  6
CONTINUOUS
 10
4.119712
 20
0.119170
  0
VERTEX
  8
FOREGROUND
  6
CONTINUOUS
 10
4.150556
 20
0.127845
  0
VERTEX
  8
FOREGROUND
  6
CONTINUOUS
 10
4.181193
 20
0.137005
  0
VERTEX
  8
FOREGROUND
  6
CONTINUOUS
 10
4.211619
 20
0.146647
  0
VERTEX
  8
FOREGROUND
  6
CONTINUOUS
 10
4.241829
 20
0.156765
  0
VERTEX
  8
FOREGROUND
  6
CONTINUOUS
 10
4.271818
 20
0.167355
  0
VERTEX
  8
FOREGROUND
  6
CONTINUOUS
 10
4.301583
 20
0.178413
  0
VERTEX
  8
FOREGROUND
  6
CONTINUOUS
 10
4.331118
 20
0.189935
  0
VERTEX
  8
FOREGROUND
  6
CONTINUOUS
 10
4.360420
 20
0.201915
  0
VERTEX
  8
FOREGROUND
  6
CONTINUOUS
 10
4.389484
 20
0.214350
  0
VERTEX
  8
FOREGROUND
  6
CONTINUOUS
 10
4.418306
 20
0.227235
  0
VERTEX
  8
FOREGROUND
  6
CONTINUOUS
 10
4.446881
 20
0.240565
  0
VERTEX
  8
FOREGROUND
  6
CONTINUOUS
 10
4.475205
 20
0.254337
  0
VERTEX
  8
FOREGROUND
  6
CONTINUOUS
 10
4.503273
 20
0.268546
  0
VERTEX
  8
FOREGROUND
  6
CONTINUOUS
 10
4.531081
 20
0.283187
  0
VERTEX
  8
FOREGROUND
  6
CONTINUOUS
 10
4.558624
 20
0.298256
  0
VERTEX
  8
FOREGROUND
  6
CONTINUOUS
 10
4.585899
 20
0.313749
  0
VERTEX
  8
FOREGROUND
  6
CONTINUOUS
 10
4.612900
 20
0.329660
  0
VERTEX
  8
FOREGROUND
  6
CONTINUOUS
 10
4.639623
 20
0.345987
  0
VERTEX
  8
FOREGROUND
  6
CONTINUOUS
 10
4.666064
 20
0.362724
  0
VERTEX
  8
FOREGROUND
  6
CONTINUOUS
 10
4.692219
 20
0.379866
  0
VERTEX
  8
FOREGROUND
  6
CONTINUOUS
 10
4.718082
 20
0.397411
  0
VERTEX
  8
FOREGROUND
  6
CONTINUOUS
 10
4.743650
 20
0.415352
  0
VERTEX
  8
FOREGROUND
  6
CONTINUOUS
 10
4.768919
 20
0.433685
  0
VERTEX
  8
FOREGROUND
  6
CONTINUOUS
 10
4.793882
 20
0.452407
  0
VERTEX
  8
FOREGROUND
  6
CONTINUOUS
 10
4.818538
 20
0.471513
  0
VERTEX
  8
FOREGROUND
  6
CONTINUOUS
 10
4.842880
 20
0.490998
  0
VERTEX
  8
FOREGROUND
  6
CONTINUOUS
 10
4.866904
 20
0.510858
  0
VERTEX
  8
FOREGROUND
  6
CONTINUOUS
 10
4.890606
 20
0.531089
  0
VERTEX
  8
FOREGROUND
  6
CONTINUOUS
 10
4.913982
 20
0.551685
  0
VERTEX
  8
FOREGROUND
  6
CONTINUOUS
 10
4.937027
 20
0.572643
  0
VERTEX
  8
FOREGROUND
  6
CONTINUOUS
 10
4.959737
 20
0.593959
  0
VERTEX
  8
FOREGROUND
  6
CONTINUOUS
 10
4.982107
 20
0.615627
  0
VERTEX
  8
FOREGROUND
  6
CONTINUOUS
 10
5.004133
 20
0.637644
  0
VERTEX
  8
FOREGROUND
  6
CONTINUOUS
 10
5.025811
 20
0.660004
  0
VERTEX
  8
FOREGROUND
  6
CONTINUOUS
 10
5.047135
 20
0.682705
  0
VERTEX
  8
FOREGROUND
  6
CONTINUOUS
 10
5.068102
 20
0.705740
  0
VERTEX
  8
FOREGROUND
  6
CONTINUOUS
 10
5.088708
 20
0.729106
  0
VERTEX
  8
FOREGROUND
  6
CONTINUOUS
 10
5.108947
 20
0.752798
  0
VERTEX
  8
FOREGROUND
  6
CONTINUOUS
 10
5.128815
 20
0.776813
  0
VERTEX
  8
FOREGROUND
  6
CONTINUOUS
 10
5.148308
 20
0.801144
  0
VERTEX
  8
FOREGROUND
  6
CONTINUOUS
 10
5.167422
 20
0.825789
  0
VERTEX
  8
FOREGROUND
  6
CONTINUOUS
 10
5.186152
 20
0.850742
  0
VERTEX
  8
FOREGROUND
  6
CONTINUOUS
 10
5.204494
 20
0.876000
  0
VERTEX
  8
FOREGROUND
  6
CONTINUOUS
 10
5.222442
 20
0.901557
  0
VERTEX
  8
FOREGROUND
  6
CONTINUOUS
 10
5.239994
 20
0.927410
  0
VERTEX
  8
FOREGROUND
  6
CONTINUOUS
 10
5.257144
 20
0.953553
  0
VERTEX
  8
FOREGROUND
  6
CONTINUOUS
 10
5.273888
 20
0.979983
  0
VERTEX
  8
FOREGROUND
  6
CONTINUOUS
 10
5.290221
 20
1.006695
  0
VERTEX
  8
FOREGROUND
  6
CONTINUOUS
 10
5.306140
 20
1.033685
  0
VERTEX
  8
FOREGROUND
  6
CONTINUOUS
 10
5.321639
 20
1.060948
  0
VERTEX
  8
FOREGROUND
  6
CONTINUOUS
 10
5.336714
 20
1.088480
  0
VERTEX
  8
FOREGROUND
  6
CONTINUOUS
 10
5.351362
 20
1.116276
  0
VERTEX
  8
FOREGROUND
  6
CONTINUOUS
 10
5.365576
 20
1.144332
  0
VERTEX
  8
FOREGROUND
  6
CONTINUOUS
 10
5.379354
 20
1.172643
  0
VERTEX
  8
FOREGROUND
  6
CONTINUOUS
 10
5.392690
 20
1.201206
  0
VERTEX
  8
FOREGROUND
  6
CONTINUOUS
 10
5.405581
 20
1.230016
  0
VERTEX
  8
FOREGROUND
  6
CONTINUOUS
 10
5.418021
 20
1.259068
  0
VERTEX
  8
FOREGROUND
  6
CONTINUOUS
 10
5.430006
 20
1.288357
  0
VERTEX
  8
FOREGROUND
  6
CONTINUOUS
 10
5.441533
 20
1.317880
  0
VERTEX
  8
FOREGROUND
  6
CONTINUOUS
 10
5.452595
 20
1.347632
  0
VERTEX
  8
FOREGROUND
  6
CONTINUOUS
 10
5.463190
 20
1.377609
  0
VERTEX
  8
FOREGROUND
  6
CONTINUOUS
 10
5.473312
 20
1.407806
  0
VERTEX
  8
FOREGROUND
  6
CONTINUOUS
 10
5.482958
 20
1.438219
  0
VERTEX
  8
FOREGROUND
  6
CONTINUOUS
 10
5.492122
 20
1.468843
  0
VERTEX
  8
FOREGROUND
  6
CONTINUOUS
 10
5.500801
 20
1.499674
  0
VERTEX
  8
FOREGROUND
  6
CONTINUOUS
 10
5.508990
 20
1.530707
  0
VERTEX
  8
FOREGROUND
  6
CONTINUOUS
 10
5.516684
 20
1.561938
  0
VERTEX
  8
FOREGROUND
  6
CONTINUOUS
 10
5.523879
 20
1.593363
  0
VERTEX
  8
FOREGROUND
  6
CONTINUOUS
 10
5.530571
 20
1.624978
  0
VERTEX
  8
FOREGROUND
  6
CONTINUOUS
 10
5.536755
 20
1.656777
  0
VERTEX
  8
FOREGROUND
  6
CONTINUOUS
 10
5.542426
 20
1.688756
  0
VERTEX
  8
FOREGROUND
  6
CONTINUOUS
 10
5.547582
 20
1.720912
  0
VERTEX
  8
FOREGROUND
  6
CONTINUOUS
 10
5.552216
 20
1.753239
  0
VERTEX
  8
FOREGROUND
  6
CONTINUOUS
 10
5.556324
 20
1.785733
  0
VERTEX
  8
FOREGROUND
  6
CONTINUOUS
 10
5.559903
 20
1.818390
  0
VERTEX
  8
FOREGROUND
  6
CONTINUOUS
 10
5.562947
 20
1.851205
  0
VERTEX
  8
FOREGROUND
  6
CONTINUOUS
 10
5.565453
 20
1.884174
  0
VERTEX
  8
FOREGROUND
  6
CONTINUOUS
 10
5.567416
 20
1.917292
  0
VERTEX
  8
FOREGROUND
  6
CONTINUOUS
 10
5.568831
 20
1.950556
  0
VERTEX
  8
FOREGROUND
  6
CONTINUOUS
 10
5.569694
 20
1.983960
  0
VERTEX
  8
FOREGROUND
  6
CONTINUOUS
 10
5.570000
 20
2.017500
  0
VERTEX
  8
FOREGROUND
  6
CONTINUOUS
 10
5.570000
 20
2.017500
  0
VERTEX
  8
FOREGROUND
  6
CONTINUOUS
 10
5.569693
 20
2.051045
  0
VERTEX
  8
FOREGROUND
  6
CONTINUOUS
 10
5.568830
 20
2.084453
  0
VERTEX
  8
FOREGROUND
  6
CONTINUOUS
 10
5.567415
 20
2.117721
  0
VERTEX
  8
FOREGROUND
  6
CONTINUOUS
 10
5.565452
 20
2.150843
  0
VERTEX
  8
FOREGROUND
  6
CONTINUOUS
 10
5.562946
 20
2.183816
  0
VERTEX
  8
FOREGROUND
  6
CONTINUOUS
 10
5.559901
 20
2.216636
  0
VERTEX
  8
FOREGROUND
  6
CONTINUOUS
 10
5.556321
 20
2.249296
  0
VERTEX
  8
FOREGROUND
  6
CONTINUOUS
 10
5.552211
 20
2.281795
  0
VERTEX
  8
FOREGROUND
  6
CONTINUOUS
 10
5.547576
 20
2.314125
  0
VERTEX
  8
FOREGROUND
  6
CONTINUOUS
 10
5.542420
 20
2.346285
  0
VERTEX
  8
FOREGROUND
  6
CONTINUOUS
 10
5.536747
 20
2.378268
  0
VERTEX
  8
FOREGROUND
  6
CONTINUOUS
 10
5.530561
 20
2.410071
  0
VERTEX
  8
FOREGROUND
  6
CONTINUOUS
 10
5.523868
 20
2.441689
  0
VERTEX
  8
FOREGROUND
  6
CONTINUOUS
 10
5.516671
 20
2.473118
  0
VERTEX
  8
FOREGROUND
  6
CONTINUOUS
 10
5.508975
 20
2.504353
  0
VERTEX
  8
FOREGROUND
  6
CONTINUOUS
 10
5.500784
 20
2.535389
  0
VERTEX
  8
FOREGROUND
  6
CONTINUOUS
 10
5.492104
 20
2.566224
  0
VERTEX
  8
FOREGROUND
  6
CONTINUOUS
 10
5.482937
 20
2.596851
  0
VERTEX
  8
FOREGROUND
  6
CONTINUOUS
 10
5.473289
 20
2.627267
  0
VERTEX
  8
FOREGROUND
  6
CONTINUOUS
 10
5.463164
 20
2.657467
  0
VERTEX
  8
FOREGROUND
  6
CONTINUOUS
 10
5.452567
 20
2.687447
  0
VERTEX
  8
FOREGROUND
  6
CONTINUOUS
 10
5.441502
 20
2.717202
  0
VERTEX
  8
FOREGROUND
  6
CONTINUOUS
 10
5.429973
 20
2.746728
  0
VERTEX
  8
FOREGROUND
  6
CONTINUOUS
 10
5.417985
 20
2.776020
  0
VERTEX
  8
FOREGROUND
  6
CONTINUOUS
 10
5.405542
 20
2.805075
  0
VERTEX
  8
FOREGROUND
  6
CONTINUOUS
 10
5.392648
 20
2.833887
  0
VERTEX
  8
FOREGROUND
  6
CONTINUOUS
 10
5.379309
 20
2.862452
  0
VERTEX
  8
FOREGROUND
  6
CONTINUOUS
 10
5.365528
 20
2.890766
  0
VERTEX
  8
FOREGROUND
  6
CONTINUOUS
 10
5.351310
 20
2.918825
  0
VERTEX
  8
FOREGROUND
  6
CONTINUOUS
 10
5.336660
 20
2.946623
  0
VERTEX
  8
FOREGROUND
  6
CONTINUOUS
 10
5.321581
 20
2.974157
  0
VERTEX
  8
FOREGROUND
  6
CONTINUOUS
 10
5.306078
 20
3.001423
  0
VERTEX
  8
FOREGROUND
  6
CONTINUOUS
 10
5.290156
 20
3.028414
  0
VERTEX
  8
FOREGROUND
  6
CONTINUOUS
 10
5.273819
 20
3.055128
  0
VERTEX
  8
FOREGROUND
  6
CONTINUOUS
 10
5.257071
 20
3.081560
  0
VERTEX
  8
FOREGROUND
  6
CONTINUOUS
 10
5.239918
 20
3.107706
  0
VERTEX
  8
FOREGROUND
  6
CONTINUOUS
 10
5.222362
 20
3.133560
  0
VERTEX
  8
FOREGROUND
  6
CONTINUOUS
 10
5.204410
 20
3.159119
  0
VERTEX
  8
FOREGROUND
  6
CONTINUOUS
 10
5.186064
 20
3.184378
  0
VERTEX
  8
FOREGROUND
  6
CONTINUOUS
 10
5.167330
 20
3.209332
  0
VERTEX
  8
FOREGROUND
  6
CONTINUOUS
 10
5.148212
 20
3.233978
  0
VERTEX
  8
FOREGROUND
  6
CONTINUOUS
 10
5.128715
 20
3.258311
  0
VERTEX
  8
FOREGROUND
  6
CONTINUOUS
 10
5.108842
 20
3.282326
  0
VERTEX
  8
FOREGROUND
  6
CONTINUOUS
 10
5.088599
 20
3.306020
  0
VERTEX
  8
FOREGROUND
  6
CONTINUOUS
 10
5.067989
 20
3.329387
  0
VERTEX
  8
FOREGROUND
  6
CONTINUOUS
 10
5.047018
 20
3.352423
  0
VERTEX
  8
FOREGROUND
  6
CONTINUOUS
 10
5.025689
 20
3.375124
  0
VERTEX
  8
FOREGROUND
  6
CONTINUOUS
 10
5.004007
 20
3.397485
  0
VERTEX
  8
FOREGROUND
  6
CONTINUOUS
 10
4.981976
 20
3.419502
  0
VERTEX
  8
FOREGROUND
  6
CONTINUOUS
 10
4.959602
 20
3.441171
  0
VERTEX
  8
FOREGROUND
  6
CONTINUOUS
 10
4.936887
 20
3.462486
  0
VERTEX
  8
FOREGROUND
  6
CONTINUOUS
 10
4.913837
 20
3.483445
  0
VERTEX
  8
FOREGROUND
  6
CONTINUOUS
 10
4.890457
 20
3.504041
  0
VERTEX
  8
FOREGROUND
  6
CONTINUOUS
 10
4.866750
 20
3.524272
  0
VERTEX
  8
FOREGROUND
  6
CONTINUOUS
 10
4.842720
 20
3.544131
  0
VERTEX
  8
FOREGROUND
  6
CONTINUOUS
 10
4.818374
 20
3.563616
  0
VERTEX
  8
FOREGROUND
  6
CONTINUOUS
 10
4.793714
 20
3.582721
  0
VERTEX
  8
FOREGROUND
  6
CONTINUOUS
 10
4.768745
 20
3.601443
  0
VERTEX
  8
FOREGROUND
  6
CONTINUOUS
 10
4.743472
 20
3.619776
  0
VERTEX
  8
FOREGROUND
  6
CONTINUOUS
 10
4.717899
 20
3.637716
  0
VERTEX
  8
FOREGROUND
  6
CONTINUOUS
 10
4.692030
 20
3.655259
  0
VERTEX
  8
FOREGROUND
  6
CONTINUOUS
 10
4.665871
 20
3.672401
  0
VERTEX
  8
FOREGROUND
  6
CONTINUOUS
 10
4.639425
 20
3.689137
  0
VERTEX
  8
FOREGROUND
  6
CONTINUOUS
 10
4.612696
 20
3.705462
  0
VERTEX
  8
FOREGROUND
  6
CONTINUOUS
 10
4.585690
 20
3.721372
  0
VERTEX
  8
FOREGROUND
  6
CONTINUOUS
 10
4.558411
 20
3.736863
  0
VERTEX
  8
FOREGROUND
  6
CONTINUOUS
 10
4.530862
 20
3.751930
  0
VERTEX
  8
FOREGROUND
  6
CONTINUOUS
 10
4.503049
 20
3.766570
  0
VERTEX
  8
FOREGROUND
  6
CONTINUOUS
 10
4.474976
 20
3.780776
  0
VERTEX
  8
FOREGROUND
  6
CONTINUOUS
 10
4.446648
 20
3.794546
  0
VERTEX
  8
FOREGROUND
  6
CONTINUOUS
 10
4.418068
 20
3.807875
  0
VERTEX
  8
FOREGROUND
  6
CONTINUOUS
 10
4.389241
 20
3.820757
  0
VERTEX
  8
FOREGROUND
  6
CONTINUOUS
 10
4.360172
 20
3.833189
  0
VERTEX
  8
FOREGROUND
  6
CONTINUOUS
 10
4.330865
 20
3.845167
  0
VERTEX
  8
FOREGROUND
  6
CONTINUOUS
 10
4.301324
 20
3.856686
  0
VERTEX
  8
FOREGROUND
  6
CONTINUOUS
 10
4.271554
 20
3.867741
  0
VERTEX
  8
FOREGROUND
  6
CONTINUOUS
 10
4.241560
 20
3.878328
  0
VERTEX
  8
FOREGROUND
  6
CONTINUOUS
 10
4.211345
 20
3.888443
  0
VERTEX
  8
FOREGROUND
  6
CONTINUOUS
 10
4.180914
 20
3.898081
  0
VERTEX
  8
FOREGROUND
  6
CONTINUOUS
 10
4.150273
 20
3.907238
  0
VERTEX
  8
FOREGROUND
  6
CONTINUOUS
 10
4.119424
 20
3.915910
  0
VERTEX
  8
FOREGROUND
  6
CONTINUOUS
 10
4.088372
 20
3.924091
  0
VERTEX
  8
FOREGROUND
  6
CONTINUOUS
 10
4.057123
 20
3.931778
  0
VERTEX
  8
FOREGROUND
  6
CONTINUOUS
 10
4.025679
 20
3.938966
  0
VERTEX
  8
FOREGROUND
  6
CONTINUOUS
 10
3.994047
 20
3.945650
  0
VERTEX
  8
FOREGROUND
  6
CONTINUOUS
 10
3.962229
 20
3.951827
  0
VERTEX
  8
FOREGROUND
  6
CONTINUOUS
 10
3.930231
 20
3.957492
  0
VERTEX
  8
FOREGROUND
  6
CONTINUOUS
 10
3.898057
 20
3.962641
  0
VERTEX
  8
FOREGROUND
  6
CONTINUOUS
 10
3.865712
 20
3.967268
  0
VERTEX
  8
FOREGROUND
  6
CONTINUOUS
 10
3.833199
 20
3.971370
  0
VERTEX
  8
FOREGROUND
  6
CONTINUOUS
 10
3.800524
 20
3.974942
  0
VERTEX
  8
FOREGROUND
  6
CONTINUOUS
 10
3.767690
 20
3.977980
  0
VERTEX
  8
FOREGROUND
  6
CONTINUOUS
 10
3.734703
 20
3.980479
  0
VERTEX
  8
FOREGROUND
  6
CONTINUOUS
 10
3.701566
 20
3.982435
  0
VERTEX
  8
FOREGROUND
  6
CONTINUOUS
 10
3.668284
 20
3.983843
  0
VERTEX
  8
FOREGROUND
  6
CONTINUOUS
 10
3.634861
 20
3.984700
  0
VERTEX
  8
FOREGROUND
  6
CONTINUOUS
 10
3.601302
 20
3.985000
  0
VERTEX
  8
FOREGROUND
  6
CONTINUOUS
 10
2.017969
 20
3.985000
  0
VERTEX
  8
FOREGROUND
  6
CONTINUOUS
 10
1.984419
 20
3.984687
  0
VERTEX
  8
FOREGROUND
  6
CONTINUOUS
 10
1.951005
 20
3.983819
  0
VERTEX
  8
FOREGROUND
  6
CONTINUOUS
 10
1.917732
 20
3.982399
  0
VERTEX
  8
FOREGROUND
  6
CONTINUOUS
 10
1.884604
 20
3.980431
  0
VERTEX
  8
FOREGROUND
  6
CONTINUOUS
 10
1.851626
 20
3.977921
  0
VERTEX
  8
FOREGROUND
  6
CONTINUOUS
 10
1.818802
 20
3.974873
  0
VERTEX
  8
FOREGROUND
  6
CONTINUOUS
 10
1.786136
 20
3.971290
  0
VERTEX
  8
FOREGROUND
  6
CONTINUOUS
 10
1.753633
 20
3.967179
  0
VERTEX
  8
FOREGROUND
  6
CONTINUOUS
 10
1.721297
 20
3.962541
  0
VERTEX
  8
FOREGROUND
  6
CONTINUOUS
 10
1.689132
 20
3.957384
  0
VERTEX
  8
FOREGROUND
  6
CONTINUOUS
 10
1.657144
 20
3.951710
  0
VERTEX
  8
FOREGROUND
  6
CONTINUOUS
 10
1.625336
 20
3.945524
  0
VERTEX
  8
FOREGROUND
  6
CONTINUOUS
 10
1.593714
 20
3.938831
  0
VERTEX
  8
FOREGROUND
  6
CONTINUOUS
 10
1.562280
 20
3.931635
  0
VERTEX
  8
FOREGROUND
  6
CONTINUOUS
 10
1.531040
 20
3.923940
  0
VERTEX
  8
FOREGROUND
  6
CONTINUOUS
 10
1.499999
 20
3.915751
  0
VERTEX
  8
FOREGROUND
  6
CONTINUOUS
 10
1.469160
 20
3.907072
  0
VERTEX
  8
FOREGROUND
  6
CONTINUOUS
 10
1.438528
 20
3.897908
  0
VERTEX
  8
FOREGROUND
  6
CONTINUOUS
 10
1.408107
 20
3.888264
  0
VERTEX
  8
FOREGROUND
  6
CONTINUOUS
 10
1.377903
 20
3.878142
  0
VERTEX
  8
FOREGROUND
  6
CONTINUOUS
 10
1.347918
 20
3.867549
  0
VERTEX
  8
FOREGROUND
  6
CONTINUOUS
 10
1.318159
 20
3.856488
  0
VERTEX
  8
FOREGROUND
  6
CONTINUOUS
 10
1.288628
 20
3.844964
  0
VERTEX
  8
FOREGROUND
  6
CONTINUOUS
 10
1.259331
 20
3.832981
  0
VERTEX
  8
FOREGROUND
  6
CONTINUOUS
 10
1.230272
 20
3.820543
  0
VERTEX
  8
FOREGROUND
  6
CONTINUOUS
 10
1.201455
 20
3.807656
  0
VERTEX
  8
FOREGROUND
  6
CONTINUOUS
 10
1.172886
 20
3.794323
  0
VERTEX
  8
FOREGROUND
  6
CONTINUOUS
 10
1.144567
 20
3.780549
  0
VERTEX
  8
FOREGROUND
  6
CONTINUOUS
 10
1.116504
 20
3.766338
  0
VERTEX
  8
FOREGROUND
  6
CONTINUOUS
 10
1.088701
 20
3.751695
  0
VERTEX
  8
FOREGROUND
  6
CONTINUOUS
 10
1.061163
 20
3.736625
  0
VERTEX
  8
FOREGROUND
  6
CONTINUOUS
 10
1.033893
 20
3.721130
  0
VERTEX
  8
FOREGROUND
  6
CONTINUOUS
 10
1.006897
 20
3.705217
  0
VERTEX
  8
FOREGROUND
  6
CONTINUOUS
 10
0.980179
 20
3.688889
  0
VERTEX
  8
FOREGROUND
  6
CONTINUOUS
 10
0.953743
 20
3.672151
  0
VERTEX
  8
FOREGROUND
  6
CONTINUOUS
 10
0.927593
 20
3.655008
  0
VERTEX
  8
FOREGROUND
  6
CONTINUOUS
 10
0.901734
 20
3.637463
  0
VERTEX
  8
FOREGROUND
  6
CONTINUOUS
 10
0.876171
 20
3.619521
  0
VERTEX
  8
FOREGROUND
  6
CONTINUOUS
 10
0.850908
 20
3.601186
  0
VERTEX
  8
FOREGROUND
  6
CONTINUOUS
 10
0.825949
 20
3.582464
  0
VERTEX
  8
FOREGROUND
  6
CONTINUOUS
 10
0.801299
 20
3.563358
  0
VERTEX
  8
FOREGROUND
  6
CONTINUOUS
 10
0.776962
 20
3.543872
  0
VERTEX
  8
FOREGROUND
  6
CONTINUOUS
 10
0.752942
 20
3.524012
  0
VERTEX
  8
FOREGROUND
  6
CONTINUOUS
 10
0.729244
 20
3.503781
  0
VERTEX
  8
FOREGROUND
  6
CONTINUOUS
 10
0.705873
 20
3.483185
  0
VERTEX
  8
FOREGROUND
  6
CONTINUOUS
 10
0.682833
 20
3.462227
  0
VERTEX
  8
FOREGROUND
  6
CONTINUOUS
 10
0.660127
 20
3.440911
  0
VERTEX
  8
FOREGROUND
  6
CONTINUOUS
 10
0.637762
 20
3.419243
  0
VERTEX
  8
FOREGROUND
  6
CONTINUOUS
 10
0.615740
 20
3.397227
  0
VERTEX
  8
FOREGROUND
  6
CONTINUOUS
 10
0.594067
 20
3.374867
  0
VERTEX
  8
FOREGROUND
  6
CONTINUOUS
 10
0.572747
 20
3.352168
  0
VERTEX
  8
FOREGROUND
  6
CONTINUOUS
 10
0.551785
 20
3.329133
  0
VERTEX
  8
FOREGROUND
  6
CONTINUOUS
 10
0.531184
 20
3.305768
  0
VERTEX
  8
FOREGROUND
  6
CONTINUOUS
 10
0.510949
 20
3.282077
  0
VERTEX
  8
FOREGROUND
  6
CONTINUOUS
 10
0.491085
 20
3.258063
  0
VERTEX
  8
FOREGROUND
  6
CONTINUOUS
 10
0.471596
 20
3.233733
  0
VERTEX
  8
FOREGROUND
  6
CONTINUOUS
 10
0.452486
 20
3.209090
  0
VERTEX
  8
FOREGROUND
  6
CONTINUOUS
 10
0.433760
 20
3.184138
  0
VERTEX
  8
FOREGROUND
  6
CONTINUOUS
 10
0.415423
 20
3.158882
  0
VERTEX
  8
FOREGROUND
  6
CONTINUOUS
 10
0.397478
 20
3.133326
  0
VERTEX
  8
FOREGROUND
  6
CONTINUOUS
 10
0.379930
 20
3.107475
  0
VERTEX
  8
FOREGROUND
  6
CONTINUOUS
 10
0.362784
 20
3.081333
  0
VERTEX
  8
FOREGROUND
  6
CONTINUOUS
 10
0.346044
 20
3.054905
  0
VERTEX
  8
FOREGROUND
  6
CONTINUOUS
 10
0.329714
 20
3.028195
  0
VERTEX
  8
FOREGROUND
  6
CONTINUOUS
 10
0.313799
 20
3.001208
  0
VERTEX
  8
FOREGROUND
  6
CONTINUOUS
 10
0.298303
 20
2.973947
  0
VERTEX
  8
FOREGROUND
  6
CONTINUOUS
 10
0.283231
 20
2.946417
  0
VERTEX
  8
FOREGROUND
  6
CONTINUOUS
 10
0.268587
 20
2.918623
  0
VERTEX
  8
FOREGROUND
  6
CONTINUOUS
 10
0.254376
 20
2.890570
  0
VERTEX
  8
FOREGROUND
  6
CONTINUOUS
 10
0.240601
 20
2.862261
  0
VERTEX
  8
FOREGROUND
  6
CONTINUOUS
 10
0.227268
 20
2.833700
  0
VERTEX
  8
FOREGROUND
  6
CONTINUOUS
 10
0.214380
 20
2.804894
  0
VERTEX
  8
FOREGROUND
  6
CONTINUOUS
 10
0.201943
 20
2.775845
  0
VERTEX
  8
FOREGROUND
  6
CONTINUOUS
 10
0.189961
 20
2.746558
  0
VERTEX
  8
FOREGROUND
  6
CONTINUOUS
 10
0.178437
 20
2.717038
  0
VERTEX
  8
FOREGROUND
  6
CONTINUOUS
 10
0.167377
 20
2.687288
  0
VERTEX
  8
FOREGROUND
  6
CONTINUOUS
 10
0.156784
 20
2.657315
  0
VERTEX
  8
FOREGROUND
  6
CONTINUOUS
 10
0.146664
 20
2.627121
  0
VERTEX
  8
FOREGROUND
  6
CONTINUOUS
 10
0.137021
 20
2.596712
  0
VERTEX
  8
FOREGROUND
  6
CONTINUOUS
 10
0.127859
 20
2.566091
  0
VERTEX
  8
FOREGROUND
  6
CONTINUOUS
 10
0.119182
 20
2.535263
  0
VERTEX
  8
FOREGROUND
  6
CONTINUOUS
 10
0.110996
 20
2.504234
  0
VERTEX
  8
FOREGROUND
  6
CONTINUOUS
 10
0.103303
 20
2.473006
  0
VERTEX
  8
FOREGROUND
  6
CONTINUOUS
 10
0.096110
 20
2.441584
  0
VERTEX
  8
FOREGROUND
  6
CONTINUOUS
 10
0.089420
 20
2.409973
  0
VERTEX
  8
FOREGROUND
  6
CONTINUOUS
 10
0.083237
 20
2.378178
  0
VERTEX
  8
FOREGROUND
  6
CONTINUOUS
 10
0.077567
 20
2.346202
  0
VERTEX
  8
FOREGROUND
  6
CONTINUOUS
 10
0.072413
 20
2.314051
  0
VERTEX
  8
FOREGROUND
  6
CONTINUOUS
 10
0.067780
 20
2.281728
  0
VERTEX
  8
FOREGROUND
  6
CONTINUOUS
 10
0.063672
 20
2.249237
  0
VERTEX
  8
FOREGROUND
  6
CONTINUOUS
 10
0.060095
 20
2.216585
  0
VERTEX
  8
FOREGROUND
  6
CONTINUOUS
 10
0.057051
 20
2.183774
  0
VERTEX
  8
FOREGROUND
  6
CONTINUOUS
 10
0.054546
 20
2.150809
  0
VERTEX
  8
FOREGROUND
  6
CONTINUOUS
 10
0.052584
 20
2.117695
  0
VERTEX
  8
FOREGROUND
  6
CONTINUOUS
 10
0.051169
 20
2.084435
  0
VERTEX
  8
FOREGROUND
  6
CONTINUOUS
 10
0.050306
 20
2.051036
  0
VERTEX
  8
FOREGROUND
  6
CONTINUOUS
 10
0.050000
 20
2.017500
  0
VERTEX
  8
FOREGROUND
  6
CONTINUOUS
 10
0.050000
 20
2.017500
  0
VERTEX
  8
FOREGROUND
  6
CONTINUOUS
 10
0.050306
 20
1.983960
  0
VERTEX
  8
FOREGROUND
  6
CONTINUOUS
 10
0.051169
 20
1.950556
  0
VERTEX
  8
FOREGROUND
  6
CONTINUOUS
 10
0.052584
 20
1.917292
  0
VERTEX
  8
FOREGROUND
  6
CONTINUOUS
 10
0.054547
 20
1.884174
  0
VERTEX
  8
FOREGROUND
  6
CONTINUOUS
 10
0.057052
 20
1.851205
  0
VERTEX
  8
FOREGROUND
  6
CONTINUOUS
 10
0.060097
 20
1.818390
  0
VERTEX
  8
FOREGROUND
  6
CONTINUOUS
 10
0.063676
 20
1.785733
  0
VERTEX
  8
FOREGROUND
  6
CONTINUOUS
 10
0.067784
 20
1.753239
  0
VERTEX
  8
FOREGROUND
  6
CONTINUOUS
 10
0.072418
 20
1.720912
  0
VERTEX
  8
FOREGROUND
  6
CONTINUOUS
 10
0.077574
 20
1.688756
  0
VERTEX
  8
FOREGROUND
  6
CONTINUOUS
 10
0.083245
 20
1.656777
  0
VERTEX
  8
FOREGROUND
  6
CONTINUOUS
 10
0.089429
 20
1.624978
  0
VERTEX
  8
FOREGROUND
  6
CONTINUOUS
 10
0.096121
 20
1.593363
  0
VERTEX
  8
FOREGROUND
  6
CONTINUOUS
 10
0.103316
 20
1.561938
  0
VERTEX
  8
FOREGROUND
  6
CONTINUOUS
 10
0.111010
 20
1.530707
  0
VERTEX
  8
FOREGROUND
  6
CONTINUOUS
 10
0.119199
 20
1.499673
  0
VERTEX
  8
FOREGROUND
  6
CONTINUOUS
 10
0.127878
 20
1.468843
  0
VERTEX
  8
FOREGROUND
  6
CONTINUOUS
 10
0.137042
 20
1.438219
  0
VERTEX
  8
FOREGROUND
  6
CONTINUOUS
 10
0.146687
 20
1.407806
  0
VERTEX
  8
FOREGROUND
  6
CONTINUOUS
 10
0.156810
 20
1.377609
  0
VERTEX
  8
FOREGROUND
  6
CONTINUOUS
 10
0.167405
 20
1.347632
  0
VERTEX
  8
FOREGROUND
  6
CONTINUOUS
 10
0.178467
 20
1.317880
  0
VERTEX
  8
FOREGROUND
  6
CONTINUOUS
 10
0.189994
 20
1.288357
  0
VERTEX
  8
FOREGROUND
  6
CONTINUOUS
 10
0.201979
 20
1.259067
  0
VERTEX
  8
FOREGROUND
  6
CONTINUOUS
 10
0.214419
 20
1.230016
  0
VERTEX
  8
FOREGROUND
  6
CONTINUOUS
 10
0.227310
 20
1.201206
  0
VERTEX
  8
FOREGROUND
  6
CONTINUOUS
 10
0.240646
 20
1.172643
  0
VERTEX
  8
FOREGROUND
  6
CONTINUOUS
 10
0.254424
 20
1.144332
  0
VERTEX
  8
FOREGROUND
  6
CONTINUOUS
 10
0.268638
 20
1.116276
  0
VERTEX
  8
FOREGROUND
  6
CONTINUOUS
 10
0.283286
 20
1.088479
  0
VERTEX
  8
FOREGROUND
  6
CONTINUOUS
 10
0.298361
 20
1.060948
  0
VERTEX
  8
FOREGROUND
  6
CONTINUOUS
 10
0.313860
 20
1.033685
  0
VERTEX
  8
FOREGROUND
  6
CONTINUOUS
 10
0.329779
 20
1.006695
  0
VERTEX
  8
FOREGROUND
  6
CONTINUOUS
 10
0.346112
 20
0.979983
  0
VERTEX
  8
FOREGROUND
  6
CONTINUOUS
 10
0.362856
 20
0.953553
  0
VERTEX
  8
FOREGROUND
  6
CONTINUOUS
 10
0.380006
 20
0.927409
  0
VERTEX
  8
FOREGROUND
  6
CONTINUOUS
 10
0.397557
 20
0.901557
  0
VERTEX
  8
FOREGROUND
  6
CONTINUOUS
 10
0.415506
 20
0.876000
  0
VERTEX
  8
FOREGROUND
  6
CONTINUOUS
 10
0.433848
 20
0.850742
  0
VERTEX
  8
FOREGROUND
  6
CONTINUOUS
 10
0.452578
 20
0.825789
  0
VERTEX
  8
FOREGROUND
  6
CONTINUOUS
 10
0.471691
 20
0.801144
  0
VERTEX
  8
FOREGROUND
  6
CONTINUOUS
 10
0.491185
 20
0.776812
  0
VERTEX
  8
FOREGROUND
  6
CONTINUOUS
 10
0.511053
 20
0.752798
  0
VERTEX
  8
FOREGROUND
  6
CONTINUOUS
 10
0.531292
 20
0.729106
  0
VERTEX
  8
FOREGROUND
  6
CONTINUOUS
 10
0.551897
 20
0.705740
  0
VERTEX
  8
FOREGROUND
  6
CONTINUOUS
 10
0.572865
 20
0.682705
  0
VERTEX
  8
FOREGROUND
  6
CONTINUOUS
 10
0.594189
 20
0.660004
  0
VERTEX
  8
FOREGROUND
  6
CONTINUOUS
 10
0.615867
 20
0.637644
  0
VERTEX
  8
FOREGROUND
  6
CONTINUOUS
 10
0.637893
 20
0.615627
  0
VERTEX
  8
FOREGROUND
  6
CONTINUOUS
 10
0.660263
 20
0.593959
  0
VERTEX
  8
FOREGROUND
  6
CONTINUOUS
 10
0.682972
 20
0.572643
  0
VERTEX
  8
FOREGROUND
  6
CONTINUOUS
 10
0.706018
 20
0.551685
  0
VERTEX
  8
FOREGROUND
  6
CONTINUOUS
 10
0.729394
 20
0.531088
  0
VERTEX
  8
FOREGROUND
  6
CONTINUOUS
 10
0.753096
 20
0.510858
  0
VERTEX
  8
FOREGROUND
  6
CONTINUOUS
 10
0.777120
 20
0.490998
  0
VERTEX
  8
FOREGROUND
  6
CONTINUOUS
 10
0.801462
 20
0.471513
  0
VERTEX
  8
FOREGROUND
  6
CONTINUOUS
 10
0.826117
 20
0.452407
  0
VERTEX
  8
FOREGROUND
  6
CONTINUOUS
 10
0.851081
 20
0.433685
  0
VERTEX
  8
FOREGROUND
  6
CONTINUOUS
 10
0.876349
 20
0.415351
  0
VERTEX
  8
FOREGROUND
  6
CONTINUOUS
 10
0.901917
 20
0.397410
  0
VERTEX
  8
FOREGROUND
  6
CONTINUOUS
 10
0.927781
 20
0.379866
  0
VERTEX
  8
FOREGROUND
  6
CONTINUOUS
 10
0.953936
 20
0.362724
  0
VERTEX
  8
FOREGROUND
  6
CONTINUOUS
 10
0.980377
 20
0.345987
  0
VERTEX
  8
FOREGROUND
  6
CONTINUOUS
 10
1.007100
 20
0.329660
  0
VERTEX
  8
FOREGROUND
  6
CONTINUOUS
 10
1.034101
 20
0.313749
  0
VERTEX
  8
FOREGROUND
  6
CONTINUOUS
 10
1.061376
 20
0.298256
  0
VERTEX
  8
FOREGROUND
  6
CONTINUOUS
 10
1.088919
 20
0.283187
  0
VERTEX
  8
FOREGROUND
  6
CONTINUOUS
 10
1.116727
 20
0.268546
  0
VERTEX
  8
FOREGROUND
  6
CONTINUOUS
 10
1.144795
 20
0.254337
  0
VERTEX
  8
FOREGROUND
  6
CONTINUOUS
 10
1.173119
 20
0.240565
  0
VERTEX
  8
FOREGROUND
  6
CONTINUOUS
 10
1.201694
 20
0.227235
  0
VERTEX
  8
FOREGROUND
  6
CONTINUOUS
 10
1.230515
 20
0.214350
  0
VERTEX
  8
FOREGROUND
  6
CONTINUOUS
 10
1.259580
 20
0.201915
  0
VERTEX
  8
FOREGROUND
  6
CONTINUOUS
 10
1.288882
 20
0.189934
  0
VERTEX
  8
FOREGROUND
  6
CONTINUOUS
 10
1.318417
 20
0.178413
  0
VERTEX
  8
FOREGROUND
  6
CONTINUOUS
 10
1.348182
 20
0.167355
  0
VERTEX
  8
FOREGROUND
  6
CONTINUOUS
 10
1.378171
 20
0.156765
  0
VERTEX
  8
FOREGROUND
  6
CONTINUOUS
 10
1.408381
 20
0.146646
  0
VERTEX
  8
FOREGROUND
  6
CONTINUOUS
 10
1.438807
 20
0.137005
  0
VERTEX
  8
FOREGROUND
  6
CONTINUOUS
 10
1.469443
 20
0.127845
  0
VERTEX
  8
FOREGROUND
  6
CONTINUOUS
 10
1.500287
 20
0.119170
  0
VERTEX
  8
FOREGROUND
  6
CONTINUOUS
 10
1.531334
 20
0.110984
  0
VERTEX
  8
FOREGROUND
  6
CONTINUOUS
 10
1.562579
 20
0.103294
  0
VERTEX
  8
FOREGROUND
  6
CONTINUOUS
 10
1.594017
 20
0.096102
  0
VERTEX
  8
FOREGROUND
  6
CONTINUOUS
 10
1.625645
 20
0.089413
  0
VERTEX
  8
FOREGROUND
  6
CONTINUOUS
 10
1.657457
 20
0.083231
  0
VERTEX
  8
FOREGROUND
  6
CONTINUOUS
 10
1.689450
 20
0.077562
  0
VERTEX
  8
FOREGROUND
  6
CONTINUOUS
 10
1.721620
 20
0.072409
  0
VERTEX
  8
FOREGROUND
  6
CONTINUOUS
 10
1.753960
 20
0.067777
  0
VERTEX
  8
FOREGROUND
  6
CONTINUOUS
 10
1.786468
 20
0.063670
  0
VERTEX
  8
FOREGROUND
  6
CONTINUOUS
 10
1.819139
 20
0.060093
  0
VERTEX
  8
FOREGROUND
  6
CONTINUOUS
 10
1.851968
 20
0.057049
  0
VERTEX
  8
FOREGROUND
  6
CONTINUOUS
 10
1.884951
 20
0.054545
  0
VERTEX
  8
FOREGROUND
  6
CONTINUOUS
 10
1.918083
 20
0.052583
  0
VERTEX
  8
FOREGROUND
  6
CONTINUOUS
 10
1.951361
 20
0.051169
  0
VERTEX
  8
FOREGROUND
  6
CONTINUOUS
 10
1.984779
 20
0.050306
  0
VERTEX
  8
FOREGROUND
  6
CONTINUOUS
 10
2.018333
 20
0.050000
  0
SEQEND
  8
0
  0
ENDSEC
  0
EOF
