  0
SECTION
  2
HEADER
  9
$ACADVER
  1
AC1006
  9
$EXTMIN
 10
0.000000
 20
0.000000
  9
$EXTMAX
 10
5.620000
 20
2.460000
  9
$LTSCALE
 40
0.166667
  9
$PDMODE
 70
    35
  9
$PDSIZE
 40
0.133333
  0
ENDSEC
  0
SECTION
  2
TABLES
  0
TABLE
  2
LTYPE
 70
     9
  0
LTYPE
  2
CONTINUOUS
 70
    64
  3
Solid line
 72
    65
 73
     0
 40
0.000000
  0
LTYPE
  2
DASHED
 70
    64
  3
__ __ __ __ __ __ __ __ __ __ __ __ __ __ __
 72
    65
 73
     2
 40
0.001250
 49
0.000833
 49
-0.000417
  0
LTYPE
  2
HIDDEN
 70
    64
  3
 _ _ _ _ _ _ _ _ _ _ _ _ _ _ _ _ _ _ _ _ _ _
 72
    65
 73
     2
 40
0.000625
 49
0.000417
 49
-0.000208
  0
LTYPE
  2
CENTER
 70
    64
  3
____ _ ____ _ ____ _ ____ _ ____ _ ____ _ ____
 72
    65
 73
     4
 40
0.003333
 49
0.002083
 49
-0.000417
 49
0.000417
 49
-0.000417
  0
LTYPE
  2
PHANTOM
 70
    64
  3
_____ _ _ _____ _ _ _____ _ _ _____ _ _ ____
 72
    65
 73
     6
 40
0.004167
 49
0.002083
 49
-0.000417
 49
0.000417
 49
-0.000417
 49
0.000417
 49
-0.000417
  0
LTYPE
  2
DOT
 70
    64
  3
...............................................
 72
    65
 73
     2
 40
0.000417
 49
0.000000
 49
-0.000417
  0
LTYPE
  2
DASHDOT
 70
    64
  3
__ . __ . __ . __ . __ . __ . __ . __ . __ . __
 72
    65
 73
     4
 40
0.001667
 49
0.000833
 49
-0.000417
 49
0.000000
 49
-0.000417
  0
LTYPE
  2
BORDER
 70
    64
  3
__ __ . __ __ . __ __ . __ __ . __ __ . __ __
 72
    65
 73
     6
 40
0.002917
 49
0.000833
 49
-0.000417
 49
0.000833
 49
-0.000417
 49
0.000000
 49
-0.000417
  0
LTYPE
  2
DIVIDE
 70
    64
  3
__ . . __ . . __ . . __ . . __ . . __ . . __
 72
    65
 73
     6
 40
0.002083
 49
0.000833
 49
-0.000417
 49
0.000000
 49
-0.000417
 49
0.000000
 49
-0.000417
  0
LTYPE
  2
DOTDOT
 70
    64
  3
 . .  . .  . .  . .  . .  . . 
 72
    65
 73
     5
 40
0.000917
 49
-0.000417
 49
0.000000
 49
-0.000417
 49
0.000000
 49
-0.000417
  0
ENDTAB
  0
TABLE
  2
STYLE
 70
     2
  0
STYLE
 70
     0
  2
SN0
 40
0.000000
 41
0.001667
 50
0.000000
 71
     0
 42
0.000000
  3
ROMAND
  0
STYLE
 70
    68
  2
SV0
 40
0.000000
 41
0.001667
 50
0.000000
 71
     0
 42
0.000000
  3
ROMAND
  0
ENDTAB
  0
TABLE
  2
LAYER
 70
     2
  0
LAYER
  2
FOREGROUND
 70
    64
 62
     7
  6
CONTINUOUS
  0
LAYER
  2
BACKGROUND
 70
    65
 62
    -7
  6
CONTINUOUS
  0
ENDTAB
  0
ENDSEC
  0
SECTION
  2
ENTITIES
  0
POLYLINE
  8
FOREGROUND
  6
CONTINUOUS
 66
     1
 40
0.010000
 41
0.010000
 70
     1
  0
VERTEX
  8
FOREGROUND
  6
CONTINUOUS
 10
4.390000
 20
0.050000
  0
VERTEX
  8
FOREGROUND
  6
CONTINUOUS
 10
4.419989
 20
0.050397
  0
VERTEX
  8
FOREGROUND
  6
CONTINUOUS
 10
4.449793
 20
0.051534
  0
VERTEX
  8
FOREGROUND
  6
CONTINUOUS
 10
4.479403
 20
0.053402
  0
VERTEX
  8
FOREGROUND
  6
CONTINUOUS
 10
4.508811
 20
0.055992
  0
VERTEX
  8
FOREGROUND
  6
CONTINUOUS
 10
4.538008
 20
0.059296
  0
VERTEX
  8
FOREGROUND
  6
CONTINUOUS
 10
4.566985
 20
0.063305
  0
VERTEX
  8
FOREGROUND
  6
CONTINUOUS
 10
4.595733
 20
0.068009
  0
VERTEX
  8
FOREGROUND
  6
CONTINUOUS
 10
4.624243
 20
0.073401
  0
VERTEX
  8
FOREGROUND
  6
CONTINUOUS
 10
4.652507
 20
0.079470
  0
VERTEX
  8
FOREGROUND
  6
CONTINUOUS
 10
4.680516
 20
0.086210
  0
VERTEX
  8
FOREGROUND
  6
CONTINUOUS
 10
4.708260
 20
0.093610
  0
VERTEX
  8
FOREGROUND
  6
CONTINUOUS
 10
4.735732
 20
0.101662
  0
VERTEX
  8
FOREGROUND
  6
CONTINUOUS
 10
4.762921
 20
0.110356
  0
VERTEX
  8
FOREGROUND
  6
CONTINUOUS
 10
4.789821
 20
0.119686
  0
VERTEX
  8
FOREGROUND
  6
CONTINUOUS
 10
4.816421
 20
0.129640
  0
VERTEX
  8
FOREGROUND
  6
CONTINUOUS
 10
4.842712
 20
0.140211
  0
VERTEX
  8
FOREGROUND
  6
CONTINUOUS
 10
4.868687
 20
0.151390
  0
VERTEX
  8
FOREGROUND
  6
CONTINUOUS
 10
4.894336
 20
0.163168
  0
VERTEX
  8
FOREGROUND
  6
CONTINUOUS
 10
4.919651
 20
0.175536
  0
VERTEX
  8
FOREGROUND
  6
CONTINUOUS
 10
4.944622
 20
0.188485
  0
VERTEX
  8
FOREGROUND
  6
CONTINUOUS
 10
4.969241
 20
0.202007
  0
VERTEX
  8
FOREGROUND
  6
CONTINUOUS
 10
4.993498
 20
0.216093
  0
VERTEX
  8
FOREGROUND
  6
CONTINUOUS
 10
5.017386
 20
0.230733
  0
VERTEX
  8
FOREGROUND
  6
CONTINUOUS
 10
5.040896
 20
0.245920
  0
VERTEX
  8
FOREGROUND
  6
CONTINUOUS
 10
5.064018
 20
0.261643
  0
VERTEX
  8
FOREGROUND
  6
CONTINUOUS
 10
5.086743
 20
0.277896
  0
VERTEX
  8
FOREGROUND
  6
CONTINUOUS
 10
5.109064
 20
0.294668
  0
VERTEX
  8
FOREGROUND
  6
CONTINUOUS
 10
5.130970
 20
0.311951
  0
VERTEX
  8
FOREGROUND
  6
CONTINUOUS
 10
5.152454
 20
0.329735
  0
VERTEX
  8
FOREGROUND
  6
CONTINUOUS
 10
5.173506
 20
0.348014
  0
VERTEX
  8
FOREGROUND
  6
CONTINUOUS
 10
5.194118
 20
0.366776
  0
VERTEX
  8
FOREGROUND
  6
CONTINUOUS
 10
5.214281
 20
0.386014
  0
VERTEX
  8
FOREGROUND
  6
CONTINUOUS
 10
5.233986
 20
0.405719
  0
VERTEX
  8
FOREGROUND
  6
CONTINUOUS
 10
5.253224
 20
0.425882
  0
VERTEX
  8
FOREGROUND
  6
CONTINUOUS
 10
5.271986
 20
0.446494
  0
VERTEX
  8
FOREGROUND
  6
CONTINUOUS
 10
5.290265
 20
0.467546
  0
VERTEX
  8
FOREGROUND
  6
CONTINUOUS
 10
5.308049
 20
0.489030
  0
VERTEX
  8
FOREGROUND
  6
CONTINUOUS
 10
5.325332
 20
0.510936
  0
VERTEX
  8
FOREGROUND
  6
CONTINUOUS
 10
5.342104
 20
0.533257
  0
VERTEX
  8
FOREGROUND
  6
CONTINUOUS
 10
5.358357
 20
0.555982
  0
VERTEX
  8
FOREGROUND
  6
CONTINUOUS
 10
5.374080
 20
0.579104
  0
VERTEX
  8
FOREGROUND
  6
CONTINUOUS
 10
5.389267
 20
0.602614
  0
VERTEX
  8
FOREGROUND
  6
CONTINUOUS
 10
5.403907
 20
0.626502
  0
VERTEX
  8
FOREGROUND
  6
CONTINUOUS
 10
5.417993
 20
0.650759
  0
VERTEX
  8
FOREGROUND
  6
CONTINUOUS
 10
5.431515
 20
0.675378
  0
VERTEX
  8
FOREGROUND
  6
CONTINUOUS
 10
5.444464
 20
0.700349
  0
VERTEX
  8
FOREGROUND
  6
CONTINUOUS
 10
5.456832
 20
0.725664
  0
VERTEX
  8
FOREGROUND
  6
CONTINUOUS
 10
5.468610
 20
0.751313
  0
VERTEX
  8
FOREGROUND
  6
CONTINUOUS
 10
5.479789
 20
0.777288
  0
VERTEX
  8
FOREGROUND
  6
CONTINUOUS
 10
5.490360
 20
0.803579
  0
VERTEX
  8
FOREGROUND
  6
CONTINUOUS
 10
5.500314
 20
0.830179
  0
VERTEX
  8
FOREGROUND
  6
CONTINUOUS
 10
5.509644
 20
0.857079
  0
VERTEX
  8
FOREGROUND
  6
CONTINUOUS
 10
5.518338
 20
0.884268
  0
VERTEX
  8
FOREGROUND
  6
CONTINUOUS
 10
5.526390
 20
0.911740
  0
VERTEX
  8
FOREGROUND
  6
CONTINUOUS
 10
5.533790
 20
0.939484
  0
VERTEX
  8
FOREGROUND
  6
CONTINUOUS
 10
5.540530
 20
0.967493
  0
VERTEX
  8
FOREGROUND
  6
CONTINUOUS
 10
5.546599
 20
0.995757
  0
VERTEX
  8
FOREGROUND
  6
CONTINUOUS
 10
5.551991
 20
1.024267
  0
VERTEX
  8
FOREGROUND
  6
CONTINUOUS
 10
5.556695
 20
1.053015
  0
VERTEX
  8
FOREGROUND
  6
CONTINUOUS
 10
5.560704
 20
1.081992
  0
VERTEX
  8
FOREGROUND
  6
CONTINUOUS
 10
5.564008
 20
1.111189
  0
VERTEX
  8
FOREGROUND
  6
CONTINUOUS
 10
5.566598
 20
1.140597
  0
VERTEX
  8
FOREGROUND
  6
CONTINUOUS
 10
5.568466
 20
1.170207
  0
VERTEX
  8
FOREGROUND
  6
CONTINUOUS
 10
5.569603
 20
1.200011
  0
VERTEX
  8
FOREGROUND
  6
CONTINUOUS
 10
5.570000
 20
1.230000
  0
VERTEX
  8
FOREGROUND
  6
CONTINUOUS
 10
5.570000
 20
1.230000
  0
VERTEX
  8
FOREGROUND
  6
CONTINUOUS
 10
5.569603
 20
1.259993
  0
VERTEX
  8
FOREGROUND
  6
CONTINUOUS
 10
5.568466
 20
1.289801
  0
VERTEX
  8
FOREGROUND
  6
CONTINUOUS
 10
5.566597
 20
1.319415
  0
VERTEX
  8
FOREGROUND
  6
CONTINUOUS
 10
5.564006
 20
1.348827
  0
VERTEX
  8
FOREGROUND
  6
CONTINUOUS
 10
5.560702
 20
1.378027
  0
VERTEX
  8
FOREGROUND
  6
CONTINUOUS
 10
5.556692
 20
1.407007
  0
VERTEX
  8
FOREGROUND
  6
CONTINUOUS
 10
5.551987
 20
1.435759
  0
VERTEX
  8
FOREGROUND
  6
CONTINUOUS
 10
5.546594
 20
1.464272
  0
VERTEX
  8
FOREGROUND
  6
CONTINUOUS
 10
5.540522
 20
1.492539
  0
VERTEX
  8
FOREGROUND
  6
CONTINUOUS
 10
5.533781
 20
1.520551
  0
VERTEX
  8
FOREGROUND
  6
CONTINUOUS
 10
5.526380
 20
1.548299
  0
VERTEX
  8
FOREGROUND
  6
CONTINUOUS
 10
5.518326
 20
1.575773
  0
VERTEX
  8
FOREGROUND
  6
CONTINUOUS
 10
5.509629
 20
1.602966
  0
VERTEX
  8
FOREGROUND
  6
CONTINUOUS
 10
5.500298
 20
1.629868
  0
VERTEX
  8
FOREGROUND
  6
CONTINUOUS
 10
5.490341
 20
1.656470
  0
VERTEX
  8
FOREGROUND
  6
CONTINUOUS
 10
5.479767
 20
1.682765
  0
VERTEX
  8
FOREGROUND
  6
CONTINUOUS
 10
5.468586
 20
1.708742
  0
VERTEX
  8
FOREGROUND
  6
CONTINUOUS
 10
5.456805
 20
1.734393
  0
VERTEX
  8
FOREGROUND
  6
CONTINUOUS
 10
5.444435
 20
1.759710
  0
VERTEX
  8
FOREGROUND
  6
CONTINUOUS
 10
5.431482
 20
1.784683
  0
VERTEX
  8
FOREGROUND
  6
CONTINUOUS
 10
5.417957
 20
1.809304
  0
VERTEX
  8
FOREGROUND
  6
CONTINUOUS
 10
5.403869
 20
1.833564
  0
VERTEX
  8
FOREGROUND
  6
CONTINUOUS
 10
5.389225
 20
1.857454
  0
VERTEX
  8
FOREGROUND
  6
CONTINUOUS
 10
5.374035
 20
1.880964
  0
VERTEX
  8
FOREGROUND
  6
CONTINUOUS
 10
5.358308
 20
1.904088
  0
VERTEX
  8
FOREGROUND
  6
CONTINUOUS
 10
5.342052
 20
1.926815
  0
VERTEX
  8
FOREGROUND
  6
CONTINUOUS
 10
5.325276
 20
1.949136
  0
VERTEX
  8
FOREGROUND
  6
CONTINUOUS
 10
5.307990
 20
1.971044
  0
VERTEX
  8
FOREGROUND
  6
CONTINUOUS
 10
5.290201
 20
1.992529
  0
VERTEX
  8
FOREGROUND
  6
CONTINUOUS
 10
5.271919
 20
2.013582
  0
VERTEX
  8
FOREGROUND
  6
CONTINUOUS
 10
5.253153
 20
2.034195
  0
VERTEX
  8
FOREGROUND
  6
CONTINUOUS
 10
5.233911
 20
2.054358
  0
VERTEX
  8
FOREGROUND
  6
CONTINUOUS
 10
5.214202
 20
2.074063
  0
VERTEX
  8
FOREGROUND
  6
CONTINUOUS
 10
5.194035
 20
2.093302
  0
VERTEX
  8
FOREGROUND
  6
CONTINUOUS
 10
5.173419
 20
2.112064
  0
VERTEX
  8
FOREGROUND
  6
CONTINUOUS
 10
5.152362
 20
2.130342
  0
VERTEX
  8
FOREGROUND
  6
CONTINUOUS
 10
5.130874
 20
2.148127
  0
VERTEX
  8
FOREGROUND
  6
CONTINUOUS
 10
5.108963
 20
2.165409
  0
VERTEX
  8
FOREGROUND
  6
CONTINUOUS
 10
5.086638
 20
2.182181
  0
VERTEX
  8
FOREGROUND
  6
CONTINUOUS
 10
5.063908
 20
2.198433
  0
VERTEX
  8
FOREGROUND
  6
CONTINUOUS
 10
5.040782
 20
2.214156
  0
VERTEX
  8
FOREGROUND
  6
CONTINUOUS
 10
5.017268
 20
2.229341
  0
VERTEX
  8
FOREGROUND
  6
CONTINUOUS
 10
4.993376
 20
2.243980
  0
VERTEX
  8
FOREGROUND
  6
CONTINUOUS
 10
4.969114
 20
2.258065
  0
VERTEX
  8
FOREGROUND
  6
CONTINUOUS
 10
4.944490
 20
2.271585
  0
VERTEX
  8
FOREGROUND
  6
CONTINUOUS
 10
4.919515
 20
2.284533
  0
VERTEX
  8
FOREGROUND
  6
CONTINUOUS
 10
4.894196
 20
2.296899
  0
VERTEX
  8
FOREGROUND
  6
CONTINUOUS
 10
4.868542
 20
2.308675
  0
VERTEX
  8
FOREGROUND
  6
CONTINUOUS
 10
4.842563
 20
2.319851
  0
VERTEX
  8
FOREGROUND
  6
CONTINUOUS
 10
4.816267
 20
2.330420
  0
VERTEX
  8
FOREGROUND
  6
CONTINUOUS
 10
4.789662
 20
2.340372
  0
VERTEX
  8
FOREGROUND
  6
CONTINUOUS
 10
4.762758
 20
2.349698
  0
VERTEX
  8
FOREGROUND
  6
CONTINUOUS
 10
4.735564
 20
2.358390
  0
VERTEX
  8
FOREGROUND
  6
CONTINUOUS
 10
4.708088
 20
2.366439
  0
VERTEX
  8
FOREGROUND
  6
CONTINUOUS
 10
4.680339
 20
2.373835
  0
VERTEX
  8
FOREGROUND
  6
CONTINUOUS
 10
4.652326
 20
2.380571
  0
VERTEX
  8
FOREGROUND
  6
CONTINUOUS
 10
4.624058
 20
2.386637
  0
VERTEX
  8
FOREGROUND
  6
CONTINUOUS
 10
4.595543
 20
2.392025
  0
VERTEX
  8
FOREGROUND
  6
CONTINUOUS
 10
4.566791
 20
2.396725
  0
VERTEX
  8
FOREGROUND
  6
CONTINUOUS
 10
4.537810
 20
2.400729
  0
VERTEX
  8
FOREGROUND
  6
CONTINUOUS
 10
4.508609
 20
2.404028
  0
VERTEX
  8
FOREGROUND
  6
CONTINUOUS
 10
4.479197
 20
2.406614
  0
VERTEX
  8
FOREGROUND
  6
CONTINUOUS
 10
4.449582
 20
2.408477
  0
VERTEX
  8
FOREGROUND
  6
CONTINUOUS
 10
4.419774
 20
2.409609
  0
VERTEX
  8
FOREGROUND
  6
CONTINUOUS
 10
4.389781
 20
2.410000
  0
VERTEX
  8
FOREGROUND
  6
CONTINUOUS
 10
1.229781
 20
2.410000
  0
VERTEX
  8
FOREGROUND
  6
CONTINUOUS
 10
1.199797
 20
2.409598
  0
VERTEX
  8
FOREGROUND
  6
CONTINUOUS
 10
1.169997
 20
2.408456
  0
VERTEX
  8
FOREGROUND
  6
CONTINUOUS
 10
1.140390
 20
2.406583
  0
VERTEX
  8
FOREGROUND
  6
CONTINUOUS
 10
1.110986
 20
2.403987
  0
VERTEX
  8
FOREGROUND
  6
CONTINUOUS
 10
1.081794
 20
2.400679
  0
VERTEX
  8
FOREGROUND
  6
CONTINUOUS
 10
1.052821
 20
2.396666
  0
VERTEX
  8
FOREGROUND
  6
CONTINUOUS
 10
1.024078
 20
2.391957
  0
VERTEX
  8
FOREGROUND
  6
CONTINUOUS
 10
0.995572
 20
2.386562
  0
VERTEX
  8
FOREGROUND
  6
CONTINUOUS
 10
0.967312
 20
2.380488
  0
VERTEX
  8
FOREGROUND
  6
CONTINUOUS
 10
0.939308
 20
2.373745
  0
VERTEX
  8
FOREGROUND
  6
CONTINUOUS
 10
0.911568
 20
2.366342
  0
VERTEX
  8
FOREGROUND
  6
CONTINUOUS
 10
0.884101
 20
2.358287
  0
VERTEX
  8
FOREGROUND
  6
CONTINUOUS
 10
0.856916
 20
2.349589
  0
VERTEX
  8
FOREGROUND
  6
CONTINUOUS
 10
0.830021
 20
2.340257
  0
VERTEX
  8
FOREGROUND
  6
CONTINUOUS
 10
0.803425
 20
2.330300
  0
VERTEX
  8
FOREGROUND
  6
CONTINUOUS
 10
0.777138
 20
2.319727
  0
VERTEX
  8
FOREGROUND
  6
CONTINUOUS
 10
0.751168
 20
2.308545
  0
VERTEX
  8
FOREGROUND
  6
CONTINUOUS
 10
0.725523
 20
2.296766
  0
VERTEX
  8
FOREGROUND
  6
CONTINUOUS
 10
0.700213
 20
2.284396
  0
VERTEX
  8
FOREGROUND
  6
CONTINUOUS
 10
0.675247
 20
2.271445
  0
VERTEX
  8
FOREGROUND
  6
CONTINUOUS
 10
0.650632
 20
2.257921
  0
VERTEX
  8
FOREGROUND
  6
CONTINUOUS
 10
0.626379
 20
2.243834
  0
VERTEX
  8
FOREGROUND
  6
CONTINUOUS
 10
0.602496
 20
2.229193
  0
VERTEX
  8
FOREGROUND
  6
CONTINUOUS
 10
0.578991
 20
2.214005
  0
VERTEX
  8
FOREGROUND
  6
CONTINUOUS
 10
0.555873
 20
2.198280
  0
VERTEX
  8
FOREGROUND
  6
CONTINUOUS
 10
0.533152
 20
2.182027
  0
VERTEX
  8
FOREGROUND
  6
CONTINUOUS
 10
0.510836
 20
2.165255
  0
VERTEX
  8
FOREGROUND
  6
CONTINUOUS
 10
0.488934
 20
2.147972
  0
VERTEX
  8
FOREGROUND
  6
CONTINUOUS
 10
0.467454
 20
2.130187
  0
VERTEX
  8
FOREGROUND
  6
CONTINUOUS
 10
0.446406
 20
2.111909
  0
VERTEX
  8
FOREGROUND
  6
CONTINUOUS
 10
0.425798
 20
2.093146
  0
VERTEX
  8
FOREGROUND
  6
CONTINUOUS
 10
0.405640
 20
2.073908
  0
VERTEX
  8
FOREGROUND
  6
CONTINUOUS
 10
0.385939
 20
2.054204
  0
VERTEX
  8
FOREGROUND
  6
CONTINUOUS
 10
0.366705
 20
2.034042
  0
VERTEX
  8
FOREGROUND
  6
CONTINUOUS
 10
0.347946
 20
2.013430
  0
VERTEX
  8
FOREGROUND
  6
CONTINUOUS
 10
0.329672
 20
1.992379
  0
VERTEX
  8
FOREGROUND
  6
CONTINUOUS
 10
0.311891
 20
1.970896
  0
VERTEX
  8
FOREGROUND
  6
CONTINUOUS
 10
0.294612
 20
1.948991
  0
VERTEX
  8
FOREGROUND
  6
CONTINUOUS
 10
0.277843
 20
1.926671
  0
VERTEX
  8
FOREGROUND
  6
CONTINUOUS
 10
0.261595
 20
1.903947
  0
VERTEX
  8
FOREGROUND
  6
CONTINUOUS
 10
0.245874
 20
1.880827
  0
VERTEX
  8
FOREGROUND
  6
CONTINUOUS
 10
0.230691
 20
1.857319
  0
VERTEX
  8
FOREGROUND
  6
CONTINUOUS
 10
0.216054
 20
1.833433
  0
VERTEX
  8
FOREGROUND
  6
CONTINUOUS
 10
0.201971
 20
1.809177
  0
VERTEX
  8
FOREGROUND
  6
CONTINUOUS
 10
0.188453
 20
1.784560
  0
VERTEX
  8
FOREGROUND
  6
CONTINUOUS
 10
0.175506
 20
1.759591
  0
VERTEX
  8
FOREGROUND
  6
CONTINUOUS
 10
0.163141
 20
1.734279
  0
VERTEX
  8
FOREGROUND
  6
CONTINUOUS
 10
0.151366
 20
1.708632
  0
VERTEX
  8
FOREGROUND
  6
CONTINUOUS
 10
0.140190
 20
1.682660
  0
VERTEX
  8
FOREGROUND
  6
CONTINUOUS
 10
0.129621
 20
1.656371
  0
VERTEX
  8
FOREGROUND
  6
CONTINUOUS
 10
0.119669
 20
1.629774
  0
VERTEX
  8
FOREGROUND
  6
CONTINUOUS
 10
0.110342
 20
1.602877
  0
VERTEX
  8
FOREGROUND
  6
CONTINUOUS
 10
0.101649
 20
1.575690
  0
VERTEX
  8
FOREGROUND
  6
CONTINUOUS
 10
0.093599
 20
1.548221
  0
VERTEX
  8
FOREGROUND
  6
CONTINUOUS
 10
0.086201
 20
1.520480
  0
VERTEX
  8
FOREGROUND
  6
CONTINUOUS
 10
0.079463
 20
1.492475
  0
VERTEX
  8
FOREGROUND
  6
CONTINUOUS
 10
0.073395
 20
1.464214
  0
VERTEX
  8
FOREGROUND
  6
CONTINUOUS
 10
0.068005
 20
1.435707
  0
VERTEX
  8
FOREGROUND
  6
CONTINUOUS
 10
0.063301
 20
1.406963
  0
VERTEX
  8
FOREGROUND
  6
CONTINUOUS
 10
0.059294
 20
1.377989
  0
VERTEX
  8
FOREGROUND
  6
CONTINUOUS
 10
0.055991
 20
1.348796
  0
VERTEX
  8
FOREGROUND
  6
CONTINUOUS
 10
0.053401
 20
1.319392
  0
VERTEX
  8
FOREGROUND
  6
CONTINUOUS
 10
0.051533
 20
1.289785
  0
VERTEX
  8
FOREGROUND
  6
CONTINUOUS
 10
0.050397
 20
1.259985
  0
VERTEX
  8
FOREGROUND
  6
CONTINUOUS
 10
0.050000
 20
1.230000
  0
VERTEX
  8
FOREGROUND
  6
CONTINUOUS
 10
0.050000
 20
1.230000
  0
VERTEX
  8
FOREGROUND
  6
CONTINUOUS
 10
0.050397
 20
1.200011
  0
VERTEX
  8
FOREGROUND
  6
CONTINUOUS
 10
0.051534
 20
1.170207
  0
VERTEX
  8
FOREGROUND
  6
CONTINUOUS
 10
0.053402
 20
1.140597
  0
VERTEX
  8
FOREGROUND
  6
CONTINUOUS
 10
0.055992
 20
1.111189
  0
VERTEX
  8
FOREGROUND
  6
CONTINUOUS
 10
0.059296
 20
1.081992
  0
VERTEX
  8
FOREGROUND
  6
CONTINUOUS
 10
0.063305
 20
1.053015
  0
VERTEX
  8
FOREGROUND
  6
CONTINUOUS
 10
0.068009
 20
1.024267
  0
VERTEX
  8
FOREGROUND
  6
CONTINUOUS
 10
0.073401
 20
0.995757
  0
VERTEX
  8
FOREGROUND
  6
CONTINUOUS
 10
0.079470
 20
0.967493
  0
VERTEX
  8
FOREGROUND
  6
CONTINUOUS
 10
0.086210
 20
0.939484
  0
VERTEX
  8
FOREGROUND
  6
CONTINUOUS
 10
0.093610
 20
0.911740
  0
VERTEX
  8
FOREGROUND
  6
CONTINUOUS
 10
0.101662
 20
0.884268
  0
VERTEX
  8
FOREGROUND
  6
CONTINUOUS
 10
0.110356
 20
0.857079
  0
VERTEX
  8
FOREGROUND
  6
CONTINUOUS
 10
0.119686
 20
0.830179
  0
VERTEX
  8
FOREGROUND
  6
CONTINUOUS
 10
0.129640
 20
0.803579
  0
VERTEX
  8
FOREGROUND
  6
CONTINUOUS
 10
0.140211
 20
0.777288
  0
VERTEX
  8
FOREGROUND
  6
CONTINUOUS
 10
0.151390
 20
0.751313
  0
VERTEX
  8
FOREGROUND
  6
CONTINUOUS
 10
0.163168
 20
0.725664
  0
VERTEX
  8
FOREGROUND
  6
CONTINUOUS
 10
0.175536
 20
0.700349
  0
VERTEX
  8
FOREGROUND
  6
CONTINUOUS
 10
0.188485
 20
0.675378
  0
VERTEX
  8
FOREGROUND
  6
CONTINUOUS
 10
0.202007
 20
0.650759
  0
VERTEX
  8
FOREGROUND
  6
CONTINUOUS
 10
0.216093
 20
0.626502
  0
VERTEX
  8
FOREGROUND
  6
CONTINUOUS
 10
0.230733
 20
0.602614
  0
VERTEX
  8
FOREGROUND
  6
CONTINUOUS
 10
0.245920
 20
0.579104
  0
VERTEX
  8
FOREGROUND
  6
CONTINUOUS
 10
0.261643
 20
0.555982
  0
VERTEX
  8
FOREGROUND
  6
CONTINUOUS
 10
0.277896
 20
0.533257
  0
VERTEX
  8
FOREGROUND
  6
CONTINUOUS
 10
0.294668
 20
0.510936
  0
VERTEX
  8
FOREGROUND
  6
CONTINUOUS
 10
0.311951
 20
0.489030
  0
VERTEX
  8
FOREGROUND
  6
CONTINUOUS
 10
0.329735
 20
0.467546
  0
VERTEX
  8
FOREGROUND
  6
CONTINUOUS
 10
0.348014
 20
0.446494
  0
VERTEX
  8
FOREGROUND
  6
CONTINUOUS
 10
0.366776
 20
0.425882
  0
VERTEX
  8
FOREGROUND
  6
CONTINUOUS
 10
0.386014
 20
0.405719
  0
VERTEX
  8
FOREGROUND
  6
CONTINUOUS
 10
0.405719
 20
0.386014
  0
VERTEX
  8
FOREGROUND
  6
CONTINUOUS
 10
0.425882
 20
0.366776
  0
VERTEX
  8
FOREGROUND
  6
CONTINUOUS
 10
0.446494
 20
0.348014
  0
VERTEX
  8
FOREGROUND
  6
CONTINUOUS
 10
0.467546
 20
0.329735
  0
VERTEX
  8
FOREGROUND
  6
CONTINUOUS
 10
0.489030
 20
0.311951
  0
VERTEX
  8
FOREGROUND
  6
CONTINUOUS
 10
0.510936
 20
0.294668
  0
VERTEX
  8
FOREGROUND
  6
CONTINUOUS
 10
0.533257
 20
0.277896
  0
VERTEX
  8
FOREGROUND
  6
CONTINUOUS
 10
0.555982
 20
0.261643
  0
VERTEX
  8
FOREGROUND
  6
CONTINUOUS
 10
0.579104
 20
0.245920
  0
VERTEX
  8
FOREGROUND
  6
CONTINUOUS
 10
0.602614
 20
0.230733
  0
VERTEX
  8
FOREGROUND
  6
CONTINUOUS
 10
0.626502
 20
0.216093
  0
VERTEX
  8
FOREGROUND
  6
CONTINUOUS
 10
0.650759
 20
0.202007
  0
VERTEX
  8
FOREGROUND
  6
CONTINUOUS
 10
0.675378
 20
0.188485
  0
VERTEX
  8
FOREGROUND
  6
CONTINUOUS
 10
0.700349
 20
0.175536
  0
VERTEX
  8
FOREGROUND
  6
CONTINUOUS
 10
0.725664
 20
0.163168
  0
VERTEX
  8
FOREGROUND
  6
CONTINUOUS
 10
0.751313
 20
0.151390
  0
VERTEX
  8
FOREGROUND
  6
CONTINUOUS
 10
0.777288
 20
0.140211
  0
VERTEX
  8
FOREGROUND
  6
CONTINUOUS
 10
0.803579
 20
0.129640
  0
VERTEX
  8
FOREGROUND
  6
CONTINUOUS
 10
0.830179
 20
0.119686
  0
VERTEX
  8
FOREGROUND
  6
CONTINUOUS
 10
0.857079
 20
0.110356
  0
VERTEX
  8
FOREGROUND
  6
CONTINUOUS
 10
0.884268
 20
0.101662
  0
VERTEX
  8
FOREGROUND
  6
CONTINUOUS
 10
0.911740
 20
0.093610
  0
VERTEX
  8
FOREGROUND
  6
CONTINUOUS
 10
0.939484
 20
0.086210
  0
VERTEX
  8
FOREGROUND
  6
CONTINUOUS
 10
0.967493
 20
0.079470
  0
VERTEX
  8
FOREGROUND
  6
CONTINUOUS
 10
0.995757
 20
0.073401
  0
VERTEX
  8
FOREGROUND
  6
CONTINUOUS
 10
1.024267
 20
0.068009
  0
VERTEX
  8
FOREGROUND
  6
CONTINUOUS
 10
1.053015
 20
0.063305
  0
VERTEX
  8
FOREGROUND
  6
CONTINUOUS
 10
1.081992
 20
0.059296
  0
VERTEX
  8
FOREGROUND
  6
CONTINUOUS
 10
1.111189
 20
0.055992
  0
VERTEX
  8
FOREGROUND
  6
CONTINUOUS
 10
1.140597
 20
0.053402
  0
VERTEX
  8
FOREGROUND
  6
CONTINUOUS
 10
1.170207
 20
0.051534
  0
VERTEX
  8
FOREGROUND
  6
CONTINUOUS
 10
1.200011
 20
0.050397
  0
VERTEX
  8
FOREGROUND
  6
CONTINUOUS
 10
1.230000
 20
0.050000
  0
SEQEND
  8
0
  0
ENDSEC
  0
EOF
