  0
SECTION
  2
HEADER
  9
$ACADVER
  1
AC1006
  9
$EXTMIN
 10
0.000000
 20
0.000000
  9
$EXTMAX
 10
5.620000
 20
3.248333
  9
$LTSCALE
 40
0.166667
  9
$PDMODE
 70
    35
  9
$PDSIZE
 40
0.133333
  0
ENDSEC
  0
SECTION
  2
TABLES
  0
TABLE
  2
LTYPE
 70
     9
  0
LTYPE
  2
CONTINUOUS
 70
    64
  3
Solid line
 72
    65
 73
     0
 40
0.000000
  0
LTYPE
  2
DASHED
 70
    64
  3
__ __ __ __ __ __ __ __ __ __ __ __ __ __ __
 72
    65
 73
     2
 40
0.001250
 49
0.000833
 49
-0.000417
  0
LTYPE
  2
HIDDEN
 70
    64
  3
 _ _ _ _ _ _ _ _ _ _ _ _ _ _ _ _ _ _ _ _ _ _
 72
    65
 73
     2
 40
0.000625
 49
0.000417
 49
-0.000208
  0
LTYPE
  2
CENTER
 70
    64
  3
____ _ ____ _ ____ _ ____ _ ____ _ ____ _ ____
 72
    65
 73
     4
 40
0.003333
 49
0.002083
 49
-0.000417
 49
0.000417
 49
-0.000417
  0
LTYPE
  2
PHANTOM
 70
    64
  3
_____ _ _ _____ _ _ _____ _ _ _____ _ _ ____
 72
    65
 73
     6
 40
0.004167
 49
0.002083
 49
-0.000417
 49
0.000417
 49
-0.000417
 49
0.000417
 49
-0.000417
  0
LTYPE
  2
DOT
 70
    64
  3
...............................................
 72
    65
 73
     2
 40
0.000417
 49
0.000000
 49
-0.000417
  0
LTYPE
  2
DASHDOT
 70
    64
  3
__ . __ . __ . __ . __ . __ . __ . __ . __ . __
 72
    65
 73
     4
 40
0.001667
 49
0.000833
 49
-0.000417
 49
0.000000
 49
-0.000417
  0
LTYPE
  2
BORDER
 70
    64
  3
__ __ . __ __ . __ __ . __ __ . __ __ . __ __
 72
    65
 73
     6
 40
0.002917
 49
0.000833
 49
-0.000417
 49
0.000833
 49
-0.000417
 49
0.000000
 49
-0.000417
  0
LTYPE
  2
DIVIDE
 70
    64
  3
__ . . __ . . __ . . __ . . __ . . __ . . __
 72
    65
 73
     6
 40
0.002083
 49
0.000833
 49
-0.000417
 49
0.000000
 49
-0.000417
 49
0.000000
 49
-0.000417
  0
LTYPE
  2
DOTDOT
 70
    64
  3
 . .  . .  . .  . .  . .  . . 
 72
    65
 73
     5
 40
0.000917
 49
-0.000417
 49
0.000000
 49
-0.000417
 49
0.000000
 49
-0.000417
  0
ENDTAB
  0
TABLE
  2
STYLE
 70
     2
  0
STYLE
 70
     0
  2
SN0
 40
0.000000
 41
0.001667
 50
0.000000
 71
     0
 42
0.000000
  3
ROMAND
  0
STYLE
 70
    68
  2
SV0
 40
0.000000
 41
0.001667
 50
0.000000
 71
     0
 42
0.000000
  3
ROMAND
  0
ENDTAB
  0
TABLE
  2
LAYER
 70
     2
  0
LAYER
  2
FOREGROUND
 70
    64
 62
     7
  6
CONTINUOUS
  0
LAYER
  2
BACKGROUND
 70
    65
 62
    -7
  6
CONTINUOUS
  0
ENDTAB
  0
ENDSEC
  0
SECTION
  2
ENTITIES
  0
POLYLINE
  8
FOREGROUND
  6
CONTINUOUS
 66
     1
 40
0.010000
 41
0.010000
 70
     1
  0
VERTEX
  8
FOREGROUND
  6
CONTINUOUS
 10
3.995000
 20
0.050000
  0
VERTEX
  8
FOREGROUND
  6
CONTINUOUS
 10
4.026367
 20
0.050330
  0
VERTEX
  8
FOREGROUND
  6
CONTINUOUS
 10
4.057585
 20
0.051268
  0
VERTEX
  8
FOREGROUND
  6
CONTINUOUS
 10
4.088647
 20
0.052806
  0
VERTEX
  8
FOREGROUND
  6
CONTINUOUS
 10
4.119549
 20
0.054941
  0
VERTEX
  8
FOREGROUND
  6
CONTINUOUS
 10
4.150283
 20
0.057665
  0
VERTEX
  8
FOREGROUND
  6
CONTINUOUS
 10
4.180846
 20
0.060974
  0
VERTEX
  8
FOREGROUND
  6
CONTINUOUS
 10
4.211230
 20
0.064862
  0
VERTEX
  8
FOREGROUND
  6
CONTINUOUS
 10
4.241431
 20
0.069322
  0
VERTEX
  8
FOREGROUND
  6
CONTINUOUS
 10
4.271442
 20
0.074351
  0
VERTEX
  8
FOREGROUND
  6
CONTINUOUS
 10
4.301259
 20
0.079940
  0
VERTEX
  8
FOREGROUND
  6
CONTINUOUS
 10
4.330875
 20
0.086087
  0
VERTEX
  8
FOREGROUND
  6
CONTINUOUS
 10
4.360285
 20
0.092783
  0
VERTEX
  8
FOREGROUND
  6
CONTINUOUS
 10
4.389483
 20
0.100025
  0
VERTEX
  8
FOREGROUND
  6
CONTINUOUS
 10
4.418464
 20
0.107805
  0
VERTEX
  8
FOREGROUND
  6
CONTINUOUS
 10
4.447221
 20
0.116120
  0
VERTEX
  8
FOREGROUND
  6
CONTINUOUS
 10
4.475750
 20
0.124962
  0
VERTEX
  8
FOREGROUND
  6
CONTINUOUS
 10
4.504044
 20
0.134326
  0
VERTEX
  8
FOREGROUND
  6
CONTINUOUS
 10
4.532099
 20
0.144207
  0
VERTEX
  8
FOREGROUND
  6
CONTINUOUS
 10
4.559907
 20
0.154599
  0
VERTEX
  8
FOREGROUND
  6
CONTINUOUS
 10
4.587464
 20
0.165497
  0
VERTEX
  8
FOREGROUND
  6
CONTINUOUS
 10
4.614764
 20
0.176894
  0
VERTEX
  8
FOREGROUND
  6
CONTINUOUS
 10
4.641801
 20
0.188785
  0
VERTEX
  8
FOREGROUND
  6
CONTINUOUS
 10
4.668570
 20
0.201165
  0
VERTEX
  8
FOREGROUND
  6
CONTINUOUS
 10
4.695065
 20
0.214027
  0
VERTEX
  8
FOREGROUND
  6
CONTINUOUS
 10
4.721281
 20
0.227366
  0
VERTEX
  8
FOREGROUND
  6
CONTINUOUS
 10
4.747211
 20
0.241177
  0
VERTEX
  8
FOREGROUND
  6
CONTINUOUS
 10
4.772850
 20
0.255454
  0
VERTEX
  8
FOREGROUND
  6
CONTINUOUS
 10
4.798193
 20
0.270191
  0
VERTEX
  8
FOREGROUND
  6
CONTINUOUS
 10
4.823233
 20
0.285382
  0
VERTEX
  8
FOREGROUND
  6
CONTINUOUS
 10
4.847966
 20
0.301023
  0
VERTEX
  8
FOREGROUND
  6
CONTINUOUS
 10
4.872385
 20
0.317106
  0
VERTEX
  8
FOREGROUND
  6
CONTINUOUS
 10
4.896484
 20
0.333627
  0
VERTEX
  8
FOREGROUND
  6
CONTINUOUS
 10
4.920259
 20
0.350580
  0
VERTEX
  8
FOREGROUND
  6
CONTINUOUS
 10
4.943704
 20
0.367960
  0
VERTEX
  8
FOREGROUND
  6
CONTINUOUS
 10
4.966812
 20
0.385760
  0
VERTEX
  8
FOREGROUND
  6
CONTINUOUS
 10
4.989579
 20
0.403975
  0
VERTEX
  8
FOREGROUND
  6
CONTINUOUS
 10
5.011998
 20
0.422599
  0
VERTEX
  8
FOREGROUND
  6
CONTINUOUS
 10
5.034064
 20
0.441627
  0
VERTEX
  8
FOREGROUND
  6
CONTINUOUS
 10
5.055771
 20
0.461053
  0
VERTEX
  8
FOREGROUND
  6
CONTINUOUS
 10
5.077114
 20
0.480871
  0
VERTEX
  8
FOREGROUND
  6
CONTINUOUS
 10
5.098087
 20
0.501077
  0
VERTEX
  8
FOREGROUND
  6
CONTINUOUS
 10
5.118684
 20
0.521663
  0
VERTEX
  8
FOREGROUND
  6
CONTINUOUS
 10
5.138900
 20
0.542625
  0
VERTEX
  8
FOREGROUND
  6
CONTINUOUS
 10
5.158729
 20
0.563957
  0
VERTEX
  8
FOREGROUND
  6
CONTINUOUS
 10
5.178166
 20
0.585653
  0
VERTEX
  8
FOREGROUND
  6
CONTINUOUS
 10
5.197204
 20
0.607707
  0
VERTEX
  8
FOREGROUND
  6
CONTINUOUS
 10
5.215838
 20
0.630114
  0
VERTEX
  8
FOREGROUND
  6
CONTINUOUS
 10
5.234063
 20
0.652869
  0
VERTEX
  8
FOREGROUND
  6
CONTINUOUS
 10
5.251872
 20
0.675965
  0
VERTEX
  8
FOREGROUND
  6
CONTINUOUS
 10
5.269261
 20
0.699397
  0
VERTEX
  8
FOREGROUND
  6
CONTINUOUS
 10
5.286223
 20
0.723159
  0
VERTEX
  8
FOREGROUND
  6
CONTINUOUS
 10
5.302752
 20
0.747246
  0
VERTEX
  8
FOREGROUND
  6
CONTINUOUS
 10
5.318845
 20
0.771652
  0
VERTEX
  8
FOREGROUND
  6
CONTINUOUS
 10
5.334493
 20
0.796372
  0
VERTEX
  8
FOREGROUND
  6
CONTINUOUS
 10
5.349693
 20
0.821399
  0
VERTEX
  8
FOREGROUND
  6
CONTINUOUS
 10
5.364437
 20
0.846728
  0
VERTEX
  8
FOREGROUND
  6
CONTINUOUS
 10
5.378722
 20
0.872354
  0
VERTEX
  8
FOREGROUND
  6
CONTINUOUS
 10
5.392540
 20
0.898270
  0
VERTEX
  8
FOREGROUND
  6
CONTINUOUS
 10
5.405886
 20
0.924472
  0
VERTEX
  8
FOREGROUND
  6
CONTINUOUS
 10
5.418755
 20
0.950953
  0
VERTEX
  8
FOREGROUND
  6
CONTINUOUS
 10
5.431141
 20
0.977708
  0
VERTEX
  8
FOREGROUND
  6
CONTINUOUS
 10
5.443039
 20
1.004731
  0
VERTEX
  8
FOREGROUND
  6
CONTINUOUS
 10
5.454442
 20
1.032016
  0
VERTEX
  8
FOREGROUND
  6
CONTINUOUS
 10
5.465345
 20
1.059559
  0
VERTEX
  8
FOREGROUND
  6
CONTINUOUS
 10
5.475743
 20
1.087352
  0
VERTEX
  8
FOREGROUND
  6
CONTINUOUS
 10
5.485629
 20
1.115392
  0
VERTEX
  8
FOREGROUND
  6
CONTINUOUS
 10
5.494999
 20
1.143671
  0
VERTEX
  8
FOREGROUND
  6
CONTINUOUS
 10
5.503845
 20
1.172185
  0
VERTEX
  8
FOREGROUND
  6
CONTINUOUS
 10
5.512164
 20
1.200927
  0
VERTEX
  8
FOREGROUND
  6
CONTINUOUS
 10
5.519949
 20
1.229892
  0
VERTEX
  8
FOREGROUND
  6
CONTINUOUS
 10
5.527194
 20
1.259075
  0
VERTEX
  8
FOREGROUND
  6
CONTINUOUS
 10
5.533894
 20
1.288469
  0
VERTEX
  8
FOREGROUND
  6
CONTINUOUS
 10
5.540044
 20
1.318070
  0
VERTEX
  8
FOREGROUND
  6
CONTINUOUS
 10
5.545637
 20
1.347871
  0
VERTEX
  8
FOREGROUND
  6
CONTINUOUS
 10
5.550667
 20
1.377866
  0
VERTEX
  8
FOREGROUND
  6
CONTINUOUS
 10
5.555130
 20
1.408051
  0
VERTEX
  8
FOREGROUND
  6
CONTINUOUS
 10
5.559020
 20
1.438419
  0
VERTEX
  8
FOREGROUND
  6
CONTINUOUS
 10
5.562331
 20
1.468966
  0
VERTEX
  8
FOREGROUND
  6
CONTINUOUS
 10
5.565056
 20
1.499684
  0
VERTEX
  8
FOREGROUND
  6
CONTINUOUS
 10
5.567192
 20
1.530569
  0
VERTEX
  8
FOREGROUND
  6
CONTINUOUS
 10
5.568732
 20
1.561615
  0
VERTEX
  8
FOREGROUND
  6
CONTINUOUS
 10
5.569669
 20
1.592816
  0
VERTEX
  8
FOREGROUND
  6
CONTINUOUS
 10
5.570000
 20
1.624167
  0
VERTEX
  8
FOREGROUND
  6
CONTINUOUS
 10
5.570000
 20
1.624167
  0
VERTEX
  8
FOREGROUND
  6
CONTINUOUS
 10
5.569669
 20
1.655521
  0
VERTEX
  8
FOREGROUND
  6
CONTINUOUS
 10
5.568731
 20
1.686727
  0
VERTEX
  8
FOREGROUND
  6
CONTINUOUS
 10
5.567191
 20
1.717776
  0
VERTEX
  8
FOREGROUND
  6
CONTINUOUS
 10
5.565055
 20
1.748665
  0
VERTEX
  8
FOREGROUND
  6
CONTINUOUS
 10
5.562329
 20
1.779388
  0
VERTEX
  8
FOREGROUND
  6
CONTINUOUS
 10
5.559017
 20
1.809937
  0
VERTEX
  8
FOREGROUND
  6
CONTINUOUS
 10
5.555127
 20
1.840310
  0
VERTEX
  8
FOREGROUND
  6
CONTINUOUS
 10
5.550663
 20
1.870498
  0
VERTEX
  8
FOREGROUND
  6
CONTINUOUS
 10
5.545631
 20
1.900497
  0
VERTEX
  8
FOREGROUND
  6
CONTINUOUS
 10
5.540036
 20
1.930302
  0
VERTEX
  8
FOREGROUND
  6
CONTINUOUS
 10
5.533886
 20
1.959906
  0
VERTEX
  8
FOREGROUND
  6
CONTINUOUS
 10
5.527184
 20
1.989303
  0
VERTEX
  8
FOREGROUND
  6
CONTINUOUS
 10
5.519937
 20
2.018489
  0
VERTEX
  8
FOREGROUND
  6
CONTINUOUS
 10
5.512150
 20
2.047458
  0
VERTEX
  8
FOREGROUND
  6
CONTINUOUS
 10
5.503830
 20
2.076203
  0
VERTEX
  8
FOREGROUND
  6
CONTINUOUS
 10
5.494981
 20
2.104720
  0
VERTEX
  8
FOREGROUND
  6
CONTINUOUS
 10
5.485609
 20
2.133002
  0
VERTEX
  8
FOREGROUND
  6
CONTINUOUS
 10
5.475720
 20
2.161044
  0
VERTEX
  8
FOREGROUND
  6
CONTINUOUS
 10
5.465320
 20
2.188841
  0
VERTEX
  8
FOREGROUND
  6
CONTINUOUS
 10
5.454415
 20
2.216386
  0
VERTEX
  8
FOREGROUND
  6
CONTINUOUS
 10
5.443009
 20
2.243674
  0
VERTEX
  8
FOREGROUND
  6
CONTINUOUS
 10
5.431109
 20
2.270700
  0
VERTEX
  8
FOREGROUND
  6
CONTINUOUS
 10
5.418720
 20
2.297457
  0
VERTEX
  8
FOREGROUND
  6
CONTINUOUS
 10
5.405848
 20
2.323940
  0
VERTEX
  8
FOREGROUND
  6
CONTINUOUS
 10
5.392498
 20
2.350144
  0
VERTEX
  8
FOREGROUND
  6
CONTINUOUS
 10
5.378677
 20
2.376063
  0
VERTEX
  8
FOREGROUND
  6
CONTINUOUS
 10
5.364389
 20
2.401690
  0
VERTEX
  8
FOREGROUND
  6
CONTINUOUS
 10
5.349641
 20
2.427022
  0
VERTEX
  8
FOREGROUND
  6
CONTINUOUS
 10
5.334438
 20
2.452051
  0
VERTEX
  8
FOREGROUND
  6
CONTINUOUS
 10
5.318786
 20
2.476772
  0
VERTEX
  8
FOREGROUND
  6
CONTINUOUS
 10
5.302691
 20
2.501179
  0
VERTEX
  8
FOREGROUND
  6
CONTINUOUS
 10
5.286157
 20
2.525268
  0
VERTEX
  8
FOREGROUND
  6
CONTINUOUS
 10
5.269192
 20
2.549032
  0
VERTEX
  8
FOREGROUND
  6
CONTINUOUS
 10
5.251799
 20
2.572465
  0
VERTEX
  8
FOREGROUND
  6
CONTINUOUS
 10
5.233986
 20
2.595563
  0
VERTEX
  8
FOREGROUND
  6
CONTINUOUS
 10
5.215758
 20
2.618318
  0
VERTEX
  8
FOREGROUND
  6
CONTINUOUS
 10
5.197120
 20
2.640726
  0
VERTEX
  8
FOREGROUND
  6
CONTINUOUS
 10
5.178077
 20
2.662782
  0
VERTEX
  8
FOREGROUND
  6
CONTINUOUS
 10
5.158637
 20
2.684478
  0
VERTEX
  8
FOREGROUND
  6
CONTINUOUS
 10
5.138804
 20
2.705811
  0
VERTEX
  8
FOREGROUND
  6
CONTINUOUS
 10
5.118584
 20
2.726773
  0
VERTEX
  8
FOREGROUND
  6
CONTINUOUS
 10
5.097982
 20
2.747360
  0
VERTEX
  8
FOREGROUND
  6
CONTINUOUS
 10
5.077005
 20
2.767566
  0
VERTEX
  8
FOREGROUND
  6
CONTINUOUS
 10
5.055658
 20
2.787384
  0
VERTEX
  8
FOREGROUND
  6
CONTINUOUS
 10
5.033946
 20
2.806810
  0
VERTEX
  8
FOREGROUND
  6
CONTINUOUS
 10
5.011875
 20
2.825838
  0
VERTEX
  8
FOREGROUND
  6
CONTINUOUS
 10
4.989452
 20
2.844463
  0
VERTEX
  8
FOREGROUND
  6
CONTINUOUS
 10
4.966681
 20
2.862677
  0
VERTEX
  8
FOREGROUND
  6
CONTINUOUS
 10
4.943568
 20
2.880477
  0
VERTEX
  8
FOREGROUND
  6
CONTINUOUS
 10
4.920119
 20
2.897855
  0
VERTEX
  8
FOREGROUND
  6
CONTINUOUS
 10
4.896339
 20
2.914808
  0
VERTEX
  8
FOREGROUND
  6
CONTINUOUS
 10
4.872235
 20
2.931328
  0
VERTEX
  8
FOREGROUND
  6
CONTINUOUS
 10
4.847811
 20
2.947411
  0
VERTEX
  8
FOREGROUND
  6
CONTINUOUS
 10
4.823074
 20
2.963050
  0
VERTEX
  8
FOREGROUND
  6
CONTINUOUS
 10
4.798029
 20
2.978240
  0
VERTEX
  8
FOREGROUND
  6
CONTINUOUS
 10
4.772682
 20
2.992975
  0
VERTEX
  8
FOREGROUND
  6
CONTINUOUS
 10
4.747038
 20
3.007251
  0
VERTEX
  8
FOREGROUND
  6
CONTINUOUS
 10
4.721103
 20
3.021060
  0
VERTEX
  8
FOREGROUND
  6
CONTINUOUS
 10
4.694883
 20
3.034397
  0
VERTEX
  8
FOREGROUND
  6
CONTINUOUS
 10
4.668383
 20
3.047258
  0
VERTEX
  8
FOREGROUND
  6
CONTINUOUS
 10
4.641609
 20
3.059635
  0
VERTEX
  8
FOREGROUND
  6
CONTINUOUS
 10
4.614567
 20
3.071524
  0
VERTEX
  8
FOREGROUND
  6
CONTINUOUS
 10
4.587263
 20
3.082919
  0
VERTEX
  8
FOREGROUND
  6
CONTINUOUS
 10
4.559701
 20
3.093814
  0
VERTEX
  8
FOREGROUND
  6
CONTINUOUS
 10
4.531888
 20
3.104203
  0
VERTEX
  8
FOREGROUND
  6
CONTINUOUS
 10
4.503829
 20
3.114081
  0
VERTEX
  8
FOREGROUND
  6
CONTINUOUS
 10
4.475530
 20
3.123443
  0
VERTEX
  8
FOREGROUND
  6
CONTINUOUS
 10
4.446996
 20
3.132282
  0
VERTEX
  8
FOREGROUND
  6
CONTINUOUS
 10
4.418234
 20
3.140593
  0
VERTEX
  8
FOREGROUND
  6
CONTINUOUS
 10
4.389249
 20
3.148370
  0
VERTEX
  8
FOREGROUND
  6
CONTINUOUS
 10
4.360046
 20
3.155607
  0
VERTEX
  8
FOREGROUND
  6
CONTINUOUS
 10
4.330632
 20
3.162300
  0
VERTEX
  8
FOREGROUND
  6
CONTINUOUS
 10
4.301011
 20
3.168442
  0
VERTEX
  8
FOREGROUND
  6
CONTINUOUS
 10
4.271190
 20
3.174028
  0
VERTEX
  8
FOREGROUND
  6
CONTINUOUS
 10
4.241174
 20
3.179052
  0
VERTEX
  8
FOREGROUND
  6
CONTINUOUS
 10
4.210968
 20
3.183508
  0
VERTEX
  8
FOREGROUND
  6
CONTINUOUS
 10
4.180579
 20
3.187391
  0
VERTEX
  8
FOREGROUND
  6
CONTINUOUS
 10
4.150013
 20
3.190695
  0
VERTEX
  8
FOREGROUND
  6
CONTINUOUS
 10
4.119274
 20
3.193414
  0
VERTEX
  8
FOREGROUND
  6
CONTINUOUS
 10
4.088368
 20
3.195543
  0
VERTEX
  8
FOREGROUND
  6
CONTINUOUS
 10
4.057302
 20
3.197077
  0
VERTEX
  8
FOREGROUND
  6
CONTINUOUS
 10
4.026080
 20
3.198009
  0
VERTEX
  8
FOREGROUND
  6
CONTINUOUS
 10
3.994708
 20
3.198333
  0
VERTEX
  8
FOREGROUND
  6
CONTINUOUS
 10
1.624708
 20
3.198333
  0
VERTEX
  8
FOREGROUND
  6
CONTINUOUS
 10
1.593345
 20
3.197997
  0
VERTEX
  8
FOREGROUND
  6
CONTINUOUS
 10
1.562132
 20
3.197054
  0
VERTEX
  8
FOREGROUND
  6
CONTINUOUS
 10
1.531074
 20
3.195510
  0
VERTEX
  8
FOREGROUND
  6
CONTINUOUS
 10
1.500177
 20
3.193371
  0
VERTEX
  8
FOREGROUND
  6
CONTINUOUS
 10
1.469446
 20
3.190641
  0
VERTEX
  8
FOREGROUND
  6
CONTINUOUS
 10
1.438888
 20
3.187327
  0
VERTEX
  8
FOREGROUND
  6
CONTINUOUS
 10
1.408509
 20
3.183435
  0
VERTEX
  8
FOREGROUND
  6
CONTINUOUS
 10
1.378312
 20
3.178970
  0
VERTEX
  8
FOREGROUND
  6
CONTINUOUS
 10
1.348305
 20
3.173937
  0
VERTEX
  8
FOREGROUND
  6
CONTINUOUS
 10
1.318493
 20
3.168343
  0
VERTEX
  8
FOREGROUND
  6
CONTINUOUS
 10
1.288881
 20
3.162193
  0
VERTEX
  8
FOREGROUND
  6
CONTINUOUS
 10
1.259476
 20
3.155493
  0
VERTEX
  8
FOREGROUND
  6
CONTINUOUS
 10
1.230283
 20
3.148248
  0
VERTEX
  8
FOREGROUND
  6
CONTINUOUS
 10
1.201307
 20
3.140463
  0
VERTEX
  8
FOREGROUND
  6
CONTINUOUS
 10
1.172554
 20
3.132146
  0
VERTEX
  8
FOREGROUND
  6
CONTINUOUS
 10
1.144030
 20
3.123300
  0
VERTEX
  8
FOREGROUND
  6
CONTINUOUS
 10
1.115740
 20
3.113933
  0
VERTEX
  8
FOREGROUND
  6
CONTINUOUS
 10
1.087691
 20
3.104049
  0
VERTEX
  8
FOREGROUND
  6
CONTINUOUS
 10
1.059887
 20
3.093654
  0
VERTEX
  8
FOREGROUND
  6
CONTINUOUS
 10
1.032335
 20
3.082754
  0
VERTEX
  8
FOREGROUND
  6
CONTINUOUS
 10
1.005039
 20
3.071355
  0
VERTEX
  8
FOREGROUND
  6
CONTINUOUS
 10
0.978007
 20
3.059461
  0
VERTEX
  8
FOREGROUND
  6
CONTINUOUS
 10
0.951242
 20
3.047080
  0
VERTEX
  8
FOREGROUND
  6
CONTINUOUS
 10
0.924752
 20
3.034215
  0
VERTEX
  8
FOREGROUND
  6
CONTINUOUS
 10
0.898542
 20
3.020874
  0
VERTEX
  8
FOREGROUND
  6
CONTINUOUS
 10
0.872616
 20
3.007061
  0
VERTEX
  8
FOREGROUND
  6
CONTINUOUS
 10
0.846982
 20
2.992783
  0
VERTEX
  8
FOREGROUND
  6
CONTINUOUS
 10
0.821644
 20
2.978045
  0
VERTEX
  8
FOREGROUND
  6
CONTINUOUS
 10
0.796608
 20
2.962852
  0
VERTEX
  8
FOREGROUND
  6
CONTINUOUS
 10
0.771880
 20
2.947211
  0
VERTEX
  8
FOREGROUND
  6
CONTINUOUS
 10
0.747466
 20
2.931126
  0
VERTEX
  8
FOREGROUND
  6
CONTINUOUS
 10
0.723371
 20
2.914604
  0
VERTEX
  8
FOREGROUND
  6
CONTINUOUS
 10
0.699600
 20
2.897651
  0
VERTEX
  8
FOREGROUND
  6
CONTINUOUS
 10
0.676160
 20
2.880271
  0
VERTEX
  8
FOREGROUND
  6
CONTINUOUS
 10
0.653057
 20
2.862470
  0
VERTEX
  8
FOREGROUND
  6
CONTINUOUS
 10
0.630295
 20
2.844255
  0
VERTEX
  8
FOREGROUND
  6
CONTINUOUS
 10
0.607880
 20
2.825630
  0
VERTEX
  8
FOREGROUND
  6
CONTINUOUS
 10
0.585818
 20
2.806602
  0
VERTEX
  8
FOREGROUND
  6
CONTINUOUS
 10
0.564115
 20
2.787176
  0
VERTEX
  8
FOREGROUND
  6
CONTINUOUS
 10
0.542777
 20
2.767358
  0
VERTEX
  8
FOREGROUND
  6
CONTINUOUS
 10
0.521808
 20
2.747153
  0
VERTEX
  8
FOREGROUND
  6
CONTINUOUS
 10
0.501215
 20
2.726567
  0
VERTEX
  8
FOREGROUND
  6
CONTINUOUS
 10
0.481003
 20
2.705606
  0
VERTEX
  8
FOREGROUND
  6
CONTINUOUS
 10
0.461178
 20
2.684275
  0
VERTEX
  8
FOREGROUND
  6
CONTINUOUS
 10
0.441746
 20
2.662580
  0
VERTEX
  8
FOREGROUND
  6
CONTINUOUS
 10
0.422712
 20
2.640526
  0
VERTEX
  8
FOREGROUND
  6
CONTINUOUS
 10
0.404082
 20
2.618120
  0
VERTEX
  8
FOREGROUND
  6
CONTINUOUS
 10
0.385861
 20
2.595366
  0
VERTEX
  8
FOREGROUND
  6
CONTINUOUS
 10
0.368055
 20
2.572272
  0
VERTEX
  8
FOREGROUND
  6
CONTINUOUS
 10
0.350671
 20
2.548841
  0
VERTEX
  8
FOREGROUND
  6
CONTINUOUS
 10
0.333712
 20
2.525080
  0
VERTEX
  8
FOREGROUND
  6
CONTINUOUS
 10
0.317186
 20
2.500994
  0
VERTEX
  8
FOREGROUND
  6
CONTINUOUS
 10
0.301098
 20
2.476590
  0
VERTEX
  8
FOREGROUND
  6
CONTINUOUS
 10
0.285452
 20
2.451872
  0
VERTEX
  8
FOREGROUND
  6
CONTINUOUS
 10
0.270256
 20
2.426847
  0
VERTEX
  8
FOREGROUND
  6
CONTINUOUS
 10
0.255515
 20
2.401520
  0
VERTEX
  8
FOREGROUND
  6
CONTINUOUS
 10
0.241234
 20
2.375896
  0
VERTEX
  8
FOREGROUND
  6
CONTINUOUS
 10
0.227419
 20
2.349982
  0
VERTEX
  8
FOREGROUND
  6
CONTINUOUS
 10
0.214075
 20
2.323783
  0
VERTEX
  8
FOREGROUND
  6
CONTINUOUS
 10
0.201209
 20
2.297304
  0
VERTEX
  8
FOREGROUND
  6
CONTINUOUS
 10
0.188826
 20
2.270552
  0
VERTEX
  8
FOREGROUND
  6
CONTINUOUS
 10
0.176931
 20
2.243531
  0
VERTEX
  8
FOREGROUND
  6
CONTINUOUS
 10
0.165531
 20
2.216248
  0
VERTEX
  8
FOREGROUND
  6
CONTINUOUS
 10
0.154630
 20
2.188709
  0
VERTEX
  8
FOREGROUND
  6
CONTINUOUS
 10
0.144235
 20
2.160918
  0
VERTEX
  8
FOREGROUND
  6
CONTINUOUS
 10
0.134351
 20
2.132881
  0
VERTEX
  8
FOREGROUND
  6
CONTINUOUS
 10
0.124984
 20
2.104605
  0
VERTEX
  8
FOREGROUND
  6
CONTINUOUS
 10
0.116139
 20
2.076094
  0
VERTEX
  8
FOREGROUND
  6
CONTINUOUS
 10
0.107822
 20
2.047355
  0
VERTEX
  8
FOREGROUND
  6
CONTINUOUS
 10
0.100039
 20
2.018393
  0
VERTEX
  8
FOREGROUND
  6
CONTINUOUS
 10
0.092796
 20
1.989214
  0
VERTEX
  8
FOREGROUND
  6
CONTINUOUS
 10
0.086097
 20
1.959823
  0
VERTEX
  8
FOREGROUND
  6
CONTINUOUS
 10
0.079949
 20
1.930226
  0
VERTEX
  8
FOREGROUND
  6
CONTINUOUS
 10
0.074358
 20
1.900428
  0
VERTEX
  8
FOREGROUND
  6
CONTINUOUS
 10
0.069328
 20
1.870436
  0
VERTEX
  8
FOREGROUND
  6
CONTINUOUS
 10
0.064866
 20
1.840255
  0
VERTEX
  8
FOREGROUND
  6
CONTINUOUS
 10
0.060977
 20
1.809890
  0
VERTEX
  8
FOREGROUND
  6
CONTINUOUS
 10
0.057668
 20
1.779348
  0
VERTEX
  8
FOREGROUND
  6
CONTINUOUS
 10
0.054942
 20
1.748633
  0
VERTEX
  8
FOREGROUND
  6
CONTINUOUS
 10
0.052807
 20
1.717752
  0
VERTEX
  8
FOREGROUND
  6
CONTINUOUS
 10
0.051268
 20
1.686710
  0
VERTEX
  8
FOREGROUND
  6
CONTINUOUS
 10
0.050331
 20
1.655513
  0
VERTEX
  8
FOREGROUND
  6
CONTINUOUS
 10
0.050000
 20
1.624167
  0
VERTEX
  8
FOREGROUND
  6
CONTINUOUS
 10
0.050000
 20
1.624167
  0
VERTEX
  8
FOREGROUND
  6
CONTINUOUS
 10
0.050331
 20
1.592816
  0
VERTEX
  8
FOREGROUND
  6
CONTINUOUS
 10
0.051268
 20
1.561615
  0
VERTEX
  8
FOREGROUND
  6
CONTINUOUS
 10
0.052808
 20
1.530569
  0
VERTEX
  8
FOREGROUND
  6
CONTINUOUS
 10
0.054943
 20
1.499684
  0
VERTEX
  8
FOREGROUND
  6
CONTINUOUS
 10
0.057669
 20
1.468966
  0
VERTEX
  8
FOREGROUND
  6
CONTINUOUS
 10
0.060980
 20
1.438419
  0
VERTEX
  8
FOREGROUND
  6
CONTINUOUS
 10
0.064870
 20
1.408051
  0
VERTEX
  8
FOREGROUND
  6
CONTINUOUS
 10
0.069333
 20
1.377866
  0
VERTEX
  8
FOREGROUND
  6
CONTINUOUS
 10
0.074363
 20
1.347871
  0
VERTEX
  8
FOREGROUND
  6
CONTINUOUS
 10
0.079956
 20
1.318070
  0
VERTEX
  8
FOREGROUND
  6
CONTINUOUS
 10
0.086106
 20
1.288469
  0
VERTEX
  8
FOREGROUND
  6
CONTINUOUS
 10
0.092806
 20
1.259075
  0
VERTEX
  8
FOREGROUND
  6
CONTINUOUS
 10
0.100051
 20
1.229892
  0
VERTEX
  8
FOREGROUND
  6
CONTINUOUS
 10
0.107836
 20
1.200927
  0
VERTEX
  8
FOREGROUND
  6
CONTINUOUS
 10
0.116154
 20
1.172184
  0
VERTEX
  8
FOREGROUND
  6
CONTINUOUS
 10
0.125001
 20
1.143671
  0
VERTEX
  8
FOREGROUND
  6
CONTINUOUS
 10
0.134371
 20
1.115392
  0
VERTEX
  8
FOREGROUND
  6
CONTINUOUS
 10
0.144257
 20
1.087352
  0
VERTEX
  8
FOREGROUND
  6
CONTINUOUS
 10
0.154655
 20
1.059558
  0
VERTEX
  8
FOREGROUND
  6
CONTINUOUS
 10
0.165558
 20
1.032016
  0
VERTEX
  8
FOREGROUND
  6
CONTINUOUS
 10
0.176961
 20
1.004730
  0
VERTEX
  8
FOREGROUND
  6
CONTINUOUS
 10
0.188858
 20
0.977707
  0
VERTEX
  8
FOREGROUND
  6
CONTINUOUS
 10
0.201245
 20
0.950953
  0
VERTEX
  8
FOREGROUND
  6
CONTINUOUS
 10
0.214114
 20
0.924472
  0
VERTEX
  8
FOREGROUND
  6
CONTINUOUS
 10
0.227460
 20
0.898270
  0
VERTEX
  8
FOREGROUND
  6
CONTINUOUS
 10
0.241278
 20
0.872354
  0
VERTEX
  8
FOREGROUND
  6
CONTINUOUS
 10
0.255563
 20
0.846728
  0
VERTEX
  8
FOREGROUND
  6
CONTINUOUS
 10
0.270307
 20
0.821399
  0
VERTEX
  8
FOREGROUND
  6
CONTINUOUS
 10
0.285507
 20
0.796372
  0
VERTEX
  8
FOREGROUND
  6
CONTINUOUS
 10
0.301155
 20
0.771652
  0
VERTEX
  8
FOREGROUND
  6
CONTINUOUS
 10
0.317247
 20
0.747246
  0
VERTEX
  8
FOREGROUND
  6
CONTINUOUS
 10
0.333777
 20
0.723159
  0
VERTEX
  8
FOREGROUND
  6
CONTINUOUS
 10
0.350739
 20
0.699397
  0
VERTEX
  8
FOREGROUND
  6
CONTINUOUS
 10
0.368128
 20
0.675965
  0
VERTEX
  8
FOREGROUND
  6
CONTINUOUS
 10
0.385937
 20
0.652869
  0
VERTEX
  8
FOREGROUND
  6
CONTINUOUS
 10
0.404162
 20
0.630114
  0
VERTEX
  8
FOREGROUND
  6
CONTINUOUS
 10
0.422796
 20
0.607707
  0
VERTEX
  8
FOREGROUND
  6
CONTINUOUS
 10
0.441834
 20
0.585652
  0
VERTEX
  8
FOREGROUND
  6
CONTINUOUS
 10
0.461270
 20
0.563956
  0
VERTEX
  8
FOREGROUND
  6
CONTINUOUS
 10
0.481099
 20
0.542625
  0
VERTEX
  8
FOREGROUND
  6
CONTINUOUS
 10
0.501315
 20
0.521663
  0
VERTEX
  8
FOREGROUND
  6
CONTINUOUS
 10
0.521913
 20
0.501077
  0
VERTEX
  8
FOREGROUND
  6
CONTINUOUS
 10
0.542886
 20
0.480871
  0
VERTEX
  8
FOREGROUND
  6
CONTINUOUS
 10
0.564229
 20
0.461053
  0
VERTEX
  8
FOREGROUND
  6
CONTINUOUS
 10
0.585936
 20
0.441627
  0
VERTEX
  8
FOREGROUND
  6
CONTINUOUS
 10
0.608002
 20
0.422599
  0
VERTEX
  8
FOREGROUND
  6
CONTINUOUS
 10
0.630421
 20
0.403974
  0
VERTEX
  8
FOREGROUND
  6
CONTINUOUS
 10
0.653188
 20
0.385759
  0
VERTEX
  8
FOREGROUND
  6
CONTINUOUS
 10
0.676296
 20
0.367959
  0
VERTEX
  8
FOREGROUND
  6
CONTINUOUS
 10
0.699741
 20
0.350580
  0
VERTEX
  8
FOREGROUND
  6
CONTINUOUS
 10
0.723516
 20
0.333627
  0
VERTEX
  8
FOREGROUND
  6
CONTINUOUS
 10
0.747615
 20
0.317106
  0
VERTEX
  8
FOREGROUND
  6
CONTINUOUS
 10
0.772034
 20
0.301022
  0
VERTEX
  8
FOREGROUND
  6
CONTINUOUS
 10
0.796767
 20
0.285382
  0
VERTEX
  8
FOREGROUND
  6
CONTINUOUS
 10
0.821807
 20
0.270191
  0
VERTEX
  8
FOREGROUND
  6
CONTINUOUS
 10
0.847150
 20
0.255454
  0
VERTEX
  8
FOREGROUND
  6
CONTINUOUS
 10
0.872789
 20
0.241177
  0
VERTEX
  8
FOREGROUND
  6
CONTINUOUS
 10
0.898719
 20
0.227366
  0
VERTEX
  8
FOREGROUND
  6
CONTINUOUS
 10
0.924934
 20
0.214027
  0
VERTEX
  8
FOREGROUND
  6
CONTINUOUS
 10
0.951429
 20
0.201164
  0
VERTEX
  8
FOREGROUND
  6
CONTINUOUS
 10
0.978199
 20
0.188785
  0
VERTEX
  8
FOREGROUND
  6
CONTINUOUS
 10
1.005236
 20
0.176894
  0
VERTEX
  8
FOREGROUND
  6
CONTINUOUS
 10
1.032536
 20
0.165497
  0
VERTEX
  8
FOREGROUND
  6
CONTINUOUS
 10
1.060093
 20
0.154599
  0
VERTEX
  8
FOREGROUND
  6
CONTINUOUS
 10
1.087901
 20
0.144207
  0
VERTEX
  8
FOREGROUND
  6
CONTINUOUS
 10
1.115956
 20
0.134326
  0
VERTEX
  8
FOREGROUND
  6
CONTINUOUS
 10
1.144250
 20
0.124962
  0
VERTEX
  8
FOREGROUND
  6
CONTINUOUS
 10
1.172779
 20
0.116119
  0
VERTEX
  8
FOREGROUND
  6
CONTINUOUS
 10
1.201536
 20
0.107805
  0
VERTEX
  8
FOREGROUND
  6
CONTINUOUS
 10
1.230517
 20
0.100024
  0
VERTEX
  8
FOREGROUND
  6
CONTINUOUS
 10
1.259715
 20
0.092783
  0
VERTEX
  8
FOREGROUND
  6
CONTINUOUS
 10
1.289125
 20
0.086086
  0
VERTEX
  8
FOREGROUND
  6
CONTINUOUS
 10
1.318741
 20
0.079940
  0
VERTEX
  8
FOREGROUND
  6
CONTINUOUS
 10
1.348558
 20
0.074350
  0
VERTEX
  8
FOREGROUND
  6
CONTINUOUS
 10
1.378569
 20
0.069322
  0
VERTEX
  8
FOREGROUND
  6
CONTINUOUS
 10
1.408770
 20
0.064862
  0
VERTEX
  8
FOREGROUND
  6
CONTINUOUS
 10
1.439154
 20
0.060974
  0
VERTEX
  8
FOREGROUND
  6
CONTINUOUS
 10
1.469717
 20
0.057665
  0
VERTEX
  8
FOREGROUND
  6
CONTINUOUS
 10
1.500451
 20
0.054941
  0
VERTEX
  8
FOREGROUND
  6
CONTINUOUS
 10
1.531353
 20
0.052806
  0
VERTEX
  8
FOREGROUND
  6
CONTINUOUS
 10
1.562415
 20
0.051268
  0
VERTEX
  8
FOREGROUND
  6
CONTINUOUS
 10
1.593633
 20
0.050330
  0
VERTEX
  8
FOREGROUND
  6
CONTINUOUS
 10
1.625000
 20
0.050000
  0
SEQEND
  8
0
  0
ENDSEC
  0
EOF
