  0
SECTION
  2
HEADER
  9
$ACADVER
  1
AC1006
  9
$EXTMIN
 10
0.000000
 20
0.000000
  9
$EXTMAX
 10
6.408333
 20
4.035000
  9
$LTSCALE
 40
0.166667
  9
$PDMODE
 70
    35
  9
$PDSIZE
 40
0.133333
  0
ENDSEC
  0
SECTION
  2
TABLES
  0
TABLE
  2
LTYPE
 70
     9
  0
LTYPE
  2
CONTINUOUS
 70
    64
  3
Solid line
 72
    65
 73
     0
 40
0.000000
  0
LTYPE
  2
DASHED
 70
    64
  3
__ __ __ __ __ __ __ __ __ __ __ __ __ __ __
 72
    65
 73
     2
 40
0.001250
 49
0.000833
 49
-0.000417
  0
LTYPE
  2
HIDDEN
 70
    64
  3
 _ _ _ _ _ _ _ _ _ _ _ _ _ _ _ _ _ _ _ _ _ _
 72
    65
 73
     2
 40
0.000625
 49
0.000417
 49
-0.000208
  0
LTYPE
  2
CENTER
 70
    64
  3
____ _ ____ _ ____ _ ____ _ ____ _ ____ _ ____
 72
    65
 73
     4
 40
0.003333
 49
0.002083
 49
-0.000417
 49
0.000417
 49
-0.000417
  0
LTYPE
  2
PHANTOM
 70
    64
  3
_____ _ _ _____ _ _ _____ _ _ _____ _ _ ____
 72
    65
 73
     6
 40
0.004167
 49
0.002083
 49
-0.000417
 49
0.000417
 49
-0.000417
 49
0.000417
 49
-0.000417
  0
LTYPE
  2
DOT
 70
    64
  3
...............................................
 72
    65
 73
     2
 40
0.000417
 49
0.000000
 49
-0.000417
  0
LTYPE
  2
DASHDOT
 70
    64
  3
__ . __ . __ . __ . __ . __ . __ . __ . __ . __
 72
    65
 73
     4
 40
0.001667
 49
0.000833
 49
-0.000417
 49
0.000000
 49
-0.000417
  0
LTYPE
  2
BORDER
 70
    64
  3
__ __ . __ __ . __ __ . __ __ . __ __ . __ __
 72
    65
 73
     6
 40
0.002917
 49
0.000833
 49
-0.000417
 49
0.000833
 49
-0.000417
 49
0.000000
 49
-0.000417
  0
LTYPE
  2
DIVIDE
 70
    64
  3
__ . . __ . . __ . . __ . . __ . . __ . . __
 72
    65
 73
     6
 40
0.002083
 49
0.000833
 49
-0.000417
 49
0.000000
 49
-0.000417
 49
0.000000
 49
-0.000417
  0
LTYPE
  2
DOTDOT
 70
    64
  3
 . .  . .  . .  . .  . .  . . 
 72
    65
 73
     5
 40
0.000917
 49
-0.000417
 49
0.000000
 49
-0.000417
 49
0.000000
 49
-0.000417
  0
ENDTAB
  0
TABLE
  2
STYLE
 70
     2
  0
STYLE
 70
     0
  2
SN0
 40
0.000000
 41
0.001667
 50
0.000000
 71
     0
 42
0.000000
  3
ROMAND
  0
STYLE
 70
    68
  2
SV0
 40
0.000000
 41
0.001667
 50
0.000000
 71
     0
 42
0.000000
  3
ROMAND
  0
ENDTAB
  0
TABLE
  2
LAYER
 70
     2
  0
LAYER
  2
FOREGROUND
 70
    64
 62
     7
  6
CONTINUOUS
  0
LAYER
  2
BACKGROUND
 70
    65
 62
    -7
  6
CONTINUOUS
  0
ENDTAB
  0
ENDSEC
  0
SECTION
  2
ENTITIES
  0
POLYLINE
  8
FOREGROUND
  6
CONTINUOUS
 66
     1
 40
0.010000
 41
0.010000
 70
     1
  0
VERTEX
  8
FOREGROUND
  6
CONTINUOUS
 10
4.390000
 20
0.050000
  0
VERTEX
  8
FOREGROUND
  6
CONTINUOUS
 10
4.426564
 20
0.050361
  0
VERTEX
  8
FOREGROUND
  6
CONTINUOUS
 10
4.462966
 20
0.051383
  0
VERTEX
  8
FOREGROUND
  6
CONTINUOUS
 10
4.499199
 20
0.053058
  0
VERTEX
  8
FOREGROUND
  6
CONTINUOUS
 10
4.535259
 20
0.055383
  0
VERTEX
  8
FOREGROUND
  6
CONTINUOUS
 10
4.571139
 20
0.058351
  0
VERTEX
  8
FOREGROUND
  6
CONTINUOUS
 10
4.606835
 20
0.061956
  0
VERTEX
  8
FOREGROUND
  6
CONTINUOUS
 10
4.642339
 20
0.066192
  0
VERTEX
  8
FOREGROUND
  6
CONTINUOUS
 10
4.677646
 20
0.071055
  0
VERTEX
  8
FOREGROUND
  6
CONTINUOUS
 10
4.712752
 20
0.076538
  0
VERTEX
  8
FOREGROUND
  6
CONTINUOUS
 10
4.747649
 20
0.082635
  0
VERTEX
  8
FOREGROUND
  6
CONTINUOUS
 10
4.782332
 20
0.089340
  0
VERTEX
  8
FOREGROUND
  6
CONTINUOUS
 10
4.816796
 20
0.096649
  0
VERTEX
  8
FOREGROUND
  6
CONTINUOUS
 10
4.851034
 20
0.104555
  0
VERTEX
  8
FOREGROUND
  6
CONTINUOUS
 10
4.885042
 20
0.113053
  0
VERTEX
  8
FOREGROUND
  6
CONTINUOUS
 10
4.918812
 20
0.122136
  0
VERTEX
  8
FOREGROUND
  6
CONTINUOUS
 10
4.952341
 20
0.131799
  0
VERTEX
  8
FOREGROUND
  6
CONTINUOUS
 10
4.985621
 20
0.142037
  0
VERTEX
  8
FOREGROUND
  6
CONTINUOUS
 10
5.018647
 20
0.152843
  0
VERTEX
  8
FOREGROUND
  6
CONTINUOUS
 10
5.051413
 20
0.164213
  0
VERTEX
  8
FOREGROUND
  6
CONTINUOUS
 10
5.083915
 20
0.176139
  0
VERTEX
  8
FOREGROUND
  6
CONTINUOUS
 10
5.116145
 20
0.188617
  0
VERTEX
  8
FOREGROUND
  6
CONTINUOUS
 10
5.148098
 20
0.201641
  0
VERTEX
  8
FOREGROUND
  6
CONTINUOUS
 10
5.179768
 20
0.215204
  0
VERTEX
  8
FOREGROUND
  6
CONTINUOUS
 10
5.211151
 20
0.229302
  0
VERTEX
  8
FOREGROUND
  6
CONTINUOUS
 10
5.242239
 20
0.243929
  0
VERTEX
  8
FOREGROUND
  6
CONTINUOUS
 10
5.273028
 20
0.259078
  0
VERTEX
  8
FOREGROUND
  6
CONTINUOUS
 10
5.303511
 20
0.274744
  0
VERTEX
  8
FOREGROUND
  6
CONTINUOUS
 10
5.333683
 20
0.290922
  0
VERTEX
  8
FOREGROUND
  6
CONTINUOUS
 10
5.363538
 20
0.307606
  0
VERTEX
  8
FOREGROUND
  6
CONTINUOUS
 10
5.393071
 20
0.324789
  0
VERTEX
  8
FOREGROUND
  6
CONTINUOUS
 10
5.422275
 20
0.342467
  0
VERTEX
  8
FOREGROUND
  6
CONTINUOUS
 10
5.451145
 20
0.360633
  0
VERTEX
  8
FOREGROUND
  6
CONTINUOUS
 10
5.479675
 20
0.379282
  0
VERTEX
  8
FOREGROUND
  6
CONTINUOUS
 10
5.507860
 20
0.398408
  0
VERTEX
  8
FOREGROUND
  6
CONTINUOUS
 10
5.535693
 20
0.418005
  0
VERTEX
  8
FOREGROUND
  6
CONTINUOUS
 10
5.563170
 20
0.438068
  0
VERTEX
  8
FOREGROUND
  6
CONTINUOUS
 10
5.590284
 20
0.458591
  0
VERTEX
  8
FOREGROUND
  6
CONTINUOUS
 10
5.617029
 20
0.479568
  0
VERTEX
  8
FOREGROUND
  6
CONTINUOUS
 10
5.643400
 20
0.500993
  0
VERTEX
  8
FOREGROUND
  6
CONTINUOUS
 10
5.669391
 20
0.522861
  0
VERTEX
  8
FOREGROUND
  6
CONTINUOUS
 10
5.694997
 20
0.545166
  0
VERTEX
  8
FOREGROUND
  6
CONTINUOUS
 10
5.720211
 20
0.567902
  0
VERTEX
  8
FOREGROUND
  6
CONTINUOUS
 10
5.745028
 20
0.591064
  0
VERTEX
  8
FOREGROUND
  6
CONTINUOUS
 10
5.769443
 20
0.614646
  0
VERTEX
  8
FOREGROUND
  6
CONTINUOUS
 10
5.793448
 20
0.638641
  0
VERTEX
  8
FOREGROUND
  6
CONTINUOUS
 10
5.817040
 20
0.663045
  0
VERTEX
  8
FOREGROUND
  6
CONTINUOUS
 10
5.840212
 20
0.687852
  0
VERTEX
  8
FOREGROUND
  6
CONTINUOUS
 10
5.862957
 20
0.713056
  0
VERTEX
  8
FOREGROUND
  6
CONTINUOUS
 10
5.885272
 20
0.738650
  0
VERTEX
  8
FOREGROUND
  6
CONTINUOUS
 10
5.907149
 20
0.764631
  0
VERTEX
  8
FOREGROUND
  6
CONTINUOUS
 10
5.928584
 20
0.790991
  0
VERTEX
  8
FOREGROUND
  6
CONTINUOUS
 10
5.949569
 20
0.817725
  0
VERTEX
  8
FOREGROUND
  6
CONTINUOUS
 10
5.970101
 20
0.844827
  0
VERTEX
  8
FOREGROUND
  6
CONTINUOUS
 10
5.990172
 20
0.872292
  0
VERTEX
  8
FOREGROUND
  6
CONTINUOUS
 10
6.009778
 20
0.900113
  0
VERTEX
  8
FOREGROUND
  6
CONTINUOUS
 10
6.028912
 20
0.928286
  0
VERTEX
  8
FOREGROUND
  6
CONTINUOUS
 10
6.047569
 20
0.956804
  0
VERTEX
  8
FOREGROUND
  6
CONTINUOUS
 10
6.065743
 20
0.985662
  0
VERTEX
  8
FOREGROUND
  6
CONTINUOUS
 10
6.083428
 20
1.014854
  0
VERTEX
  8
FOREGROUND
  6
CONTINUOUS
 10
6.100618
 20
1.044374
  0
VERTEX
  8
FOREGROUND
  6
CONTINUOUS
 10
6.117309
 20
1.074216
  0
VERTEX
  8
FOREGROUND
  6
CONTINUOUS
 10
6.133494
 20
1.104376
  0
VERTEX
  8
FOREGROUND
  6
CONTINUOUS
 10
6.149167
 20
1.134846
  0
VERTEX
  8
FOREGROUND
  6
CONTINUOUS
 10
6.164322
 20
1.165622
  0
VERTEX
  8
FOREGROUND
  6
CONTINUOUS
 10
6.178955
 20
1.196697
  0
VERTEX
  8
FOREGROUND
  6
CONTINUOUS
 10
6.193059
 20
1.228066
  0
VERTEX
  8
FOREGROUND
  6
CONTINUOUS
 10
6.206628
 20
1.259723
  0
VERTEX
  8
FOREGROUND
  6
CONTINUOUS
 10
6.219658
 20
1.291663
  0
VERTEX
  8
FOREGROUND
  6
CONTINUOUS
 10
6.232141
 20
1.323879
  0
VERTEX
  8
FOREGROUND
  6
CONTINUOUS
 10
6.244072
 20
1.356367
  0
VERTEX
  8
FOREGROUND
  6
CONTINUOUS
 10
6.255446
 20
1.389119
  0
VERTEX
  8
FOREGROUND
  6
CONTINUOUS
 10
6.266257
 20
1.422131
  0
VERTEX
  8
FOREGROUND
  6
CONTINUOUS
 10
6.276499
 20
1.455397
  0
VERTEX
  8
FOREGROUND
  6
CONTINUOUS
 10
6.286167
 20
1.488911
  0
VERTEX
  8
FOREGROUND
  6
CONTINUOUS
 10
6.295254
 20
1.522668
  0
VERTEX
  8
FOREGROUND
  6
CONTINUOUS
 10
6.303755
 20
1.556661
  0
VERTEX
  8
FOREGROUND
  6
CONTINUOUS
 10
6.311664
 20
1.590885
  0
VERTEX
  8
FOREGROUND
  6
CONTINUOUS
 10
6.318976
 20
1.625334
  0
VERTEX
  8
FOREGROUND
  6
CONTINUOUS
 10
6.325685
 20
1.660003
  0
VERTEX
  8
FOREGROUND
  6
CONTINUOUS
 10
6.331784
 20
1.694885
  0
VERTEX
  8
FOREGROUND
  6
CONTINUOUS
 10
6.337269
 20
1.729975
  0
VERTEX
  8
FOREGROUND
  6
CONTINUOUS
 10
6.342134
 20
1.765268
  0
VERTEX
  8
FOREGROUND
  6
CONTINUOUS
 10
6.346372
 20
1.800757
  0
VERTEX
  8
FOREGROUND
  6
CONTINUOUS
 10
6.349979
 20
1.836437
  0
VERTEX
  8
FOREGROUND
  6
CONTINUOUS
 10
6.352948
 20
1.872303
  0
VERTEX
  8
FOREGROUND
  6
CONTINUOUS
 10
6.355274
 20
1.908347
  0
VERTEX
  8
FOREGROUND
  6
CONTINUOUS
 10
6.356950
 20
1.944565
  0
VERTEX
  8
FOREGROUND
  6
CONTINUOUS
 10
6.357972
 20
1.980952
  0
VERTEX
  8
FOREGROUND
  6
CONTINUOUS
 10
6.358333
 20
2.017500
  0
VERTEX
  8
FOREGROUND
  6
CONTINUOUS
 10
6.358333
 20
2.017500
  0
VERTEX
  8
FOREGROUND
  6
CONTINUOUS
 10
6.357972
 20
2.054053
  0
VERTEX
  8
FOREGROUND
  6
CONTINUOUS
 10
6.356950
 20
2.090444
  0
VERTEX
  8
FOREGROUND
  6
CONTINUOUS
 10
6.355273
 20
2.126667
  0
VERTEX
  8
FOREGROUND
  6
CONTINUOUS
 10
6.352947
 20
2.162716
  0
VERTEX
  8
FOREGROUND
  6
CONTINUOUS
 10
6.349977
 20
2.198586
  0
VERTEX
  8
FOREGROUND
  6
CONTINUOUS
 10
6.346369
 20
2.234270
  0
VERTEX
  8
FOREGROUND
  6
CONTINUOUS
 10
6.342130
 20
2.269764
  0
VERTEX
  8
FOREGROUND
  6
CONTINUOUS
 10
6.337264
 20
2.305061
  0
VERTEX
  8
FOREGROUND
  6
CONTINUOUS
 10
6.331778
 20
2.340155
  0
VERTEX
  8
FOREGROUND
  6
CONTINUOUS
 10
6.325677
 20
2.375042
  0
VERTEX
  8
FOREGROUND
  6
CONTINUOUS
 10
6.318967
 20
2.409715
  0
VERTEX
  8
FOREGROUND
  6
CONTINUOUS
 10
6.311653
 20
2.444168
  0
VERTEX
  8
FOREGROUND
  6
CONTINUOUS
 10
6.303742
 20
2.478396
  0
VERTEX
  8
FOREGROUND
  6
CONTINUOUS
 10
6.295239
 20
2.512392
  0
VERTEX
  8
FOREGROUND
  6
CONTINUOUS
 10
6.286149
 20
2.546153
  0
VERTEX
  8
FOREGROUND
  6
CONTINUOUS
 10
6.276480
 20
2.579670
  0
VERTEX
  8
FOREGROUND
  6
CONTINUOUS
 10
6.266235
 20
2.612940
  0
VERTEX
  8
FOREGROUND
  6
CONTINUOUS
 10
6.255422
 20
2.645955
  0
VERTEX
  8
FOREGROUND
  6
CONTINUOUS
 10
6.244045
 20
2.678711
  0
VERTEX
  8
FOREGROUND
  6
CONTINUOUS
 10
6.232111
 20
2.711202
  0
VERTEX
  8
FOREGROUND
  6
CONTINUOUS
 10
6.219625
 20
2.743422
  0
VERTEX
  8
FOREGROUND
  6
CONTINUOUS
 10
6.206592
 20
2.775365
  0
VERTEX
  8
FOREGROUND
  6
CONTINUOUS
 10
6.193020
 20
2.807025
  0
VERTEX
  8
FOREGROUND
  6
CONTINUOUS
 10
6.178913
 20
2.838397
  0
VERTEX
  8
FOREGROUND
  6
CONTINUOUS
 10
6.164277
 20
2.869475
  0
VERTEX
  8
FOREGROUND
  6
CONTINUOUS
 10
6.149118
 20
2.900253
  0
VERTEX
  8
FOREGROUND
  6
CONTINUOUS
 10
6.133441
 20
2.930726
  0
VERTEX
  8
FOREGROUND
  6
CONTINUOUS
 10
6.117253
 20
2.960888
  0
VERTEX
  8
FOREGROUND
  6
CONTINUOUS
 10
6.100558
 20
2.990733
  0
VERTEX
  8
FOREGROUND
  6
CONTINUOUS
 10
6.083364
 20
3.020255
  0
VERTEX
  8
FOREGROUND
  6
CONTINUOUS
 10
6.065675
 20
3.049449
  0
VERTEX
  8
FOREGROUND
  6
CONTINUOUS
 10
6.047497
 20
3.078309
  0
VERTEX
  8
FOREGROUND
  6
CONTINUOUS
 10
6.028836
 20
3.106829
  0
VERTEX
  8
FOREGROUND
  6
CONTINUOUS
 10
6.009698
 20
3.135004
  0
VERTEX
  8
FOREGROUND
  6
CONTINUOUS
 10
5.990088
 20
3.162827
  0
VERTEX
  8
FOREGROUND
  6
CONTINUOUS
 10
5.970012
 20
3.190293
  0
VERTEX
  8
FOREGROUND
  6
CONTINUOUS
 10
5.949476
 20
3.217397
  0
VERTEX
  8
FOREGROUND
  6
CONTINUOUS
 10
5.928486
 20
3.244132
  0
VERTEX
  8
FOREGROUND
  6
CONTINUOUS
 10
5.907047
 20
3.270494
  0
VERTEX
  8
FOREGROUND
  6
CONTINUOUS
 10
5.885165
 20
3.296475
  0
VERTEX
  8
FOREGROUND
  6
CONTINUOUS
 10
5.862846
 20
3.322071
  0
VERTEX
  8
FOREGROUND
  6
CONTINUOUS
 10
5.840095
 20
3.347275
  0
VERTEX
  8
FOREGROUND
  6
CONTINUOUS
 10
5.816919
 20
3.372083
  0
VERTEX
  8
FOREGROUND
  6
CONTINUOUS
 10
5.793322
 20
3.396487
  0
VERTEX
  8
FOREGROUND
  6
CONTINUOUS
 10
5.769311
 20
3.420483
  0
VERTEX
  8
FOREGROUND
  6
CONTINUOUS
 10
5.744892
 20
3.444065
  0
VERTEX
  8
FOREGROUND
  6
CONTINUOUS
 10
5.720070
 20
3.467227
  0
VERTEX
  8
FOREGROUND
  6
CONTINUOUS
 10
5.694850
 20
3.489964
  0
VERTEX
  8
FOREGROUND
  6
CONTINUOUS
 10
5.669240
 20
3.512269
  0
VERTEX
  8
FOREGROUND
  6
CONTINUOUS
 10
5.643243
 20
3.534137
  0
VERTEX
  8
FOREGROUND
  6
CONTINUOUS
 10
5.616867
 20
3.555562
  0
VERTEX
  8
FOREGROUND
  6
CONTINUOUS
 10
5.590116
 20
3.576538
  0
VERTEX
  8
FOREGROUND
  6
CONTINUOUS
 10
5.562997
 20
3.597060
  0
VERTEX
  8
FOREGROUND
  6
CONTINUOUS
 10
5.535516
 20
3.617122
  0
VERTEX
  8
FOREGROUND
  6
CONTINUOUS
 10
5.507677
 20
3.636719
  0
VERTEX
  8
FOREGROUND
  6
CONTINUOUS
 10
5.479487
 20
3.655844
  0
VERTEX
  8
FOREGROUND
  6
CONTINUOUS
 10
5.450951
 20
3.674491
  0
VERTEX
  8
FOREGROUND
  6
CONTINUOUS
 10
5.422076
 20
3.692656
  0
VERTEX
  8
FOREGROUND
  6
CONTINUOUS
 10
5.392866
 20
3.710332
  0
VERTEX
  8
FOREGROUND
  6
CONTINUOUS
 10
5.363328
 20
3.727514
  0
VERTEX
  8
FOREGROUND
  6
CONTINUOUS
 10
5.333467
 20
3.744196
  0
VERTEX
  8
FOREGROUND
  6
CONTINUOUS
 10
5.303290
 20
3.760372
  0
VERTEX
  8
FOREGROUND
  6
CONTINUOUS
 10
5.272801
 20
3.776036
  0
VERTEX
  8
FOREGROUND
  6
CONTINUOUS
 10
5.242007
 20
3.791183
  0
VERTEX
  8
FOREGROUND
  6
CONTINUOUS
 10
5.210913
 20
3.805807
  0
VERTEX
  8
FOREGROUND
  6
CONTINUOUS
 10
5.179525
 20
3.819903
  0
VERTEX
  8
FOREGROUND
  6
CONTINUOUS
 10
5.147849
 20
3.833464
  0
VERTEX
  8
FOREGROUND
  6
CONTINUOUS
 10
5.115890
 20
3.846484
  0
VERTEX
  8
FOREGROUND
  6
CONTINUOUS
 10
5.083655
 20
3.858959
  0
VERTEX
  8
FOREGROUND
  6
CONTINUOUS
 10
5.051148
 20
3.870882
  0
VERTEX
  8
FOREGROUND
  6
CONTINUOUS
 10
5.018376
 20
3.882248
  0
VERTEX
  8
FOREGROUND
  6
CONTINUOUS
 10
4.985345
 20
3.893051
  0
VERTEX
  8
FOREGROUND
  6
CONTINUOUS
 10
4.952059
 20
3.903285
  0
VERTEX
  8
FOREGROUND
  6
CONTINUOUS
 10
4.918525
 20
3.912945
  0
VERTEX
  8
FOREGROUND
  6
CONTINUOUS
 10
4.884749
 20
3.922024
  0
VERTEX
  8
FOREGROUND
  6
CONTINUOUS
 10
4.850736
 20
3.930517
  0
VERTEX
  8
FOREGROUND
  6
CONTINUOUS
 10
4.816493
 20
3.938419
  0
VERTEX
  8
FOREGROUND
  6
CONTINUOUS
 10
4.782023
 20
3.945723
  0
VERTEX
  8
FOREGROUND
  6
CONTINUOUS
 10
4.747335
 20
3.952424
  0
VERTEX
  8
FOREGROUND
  6
CONTINUOUS
 10
4.712432
 20
3.958516
  0
VERTEX
  8
FOREGROUND
  6
CONTINUOUS
 10
4.677322
 20
3.963993
  0
VERTEX
  8
FOREGROUND
  6
CONTINUOUS
 10
4.642009
 20
3.968850
  0
VERTEX
  8
FOREGROUND
  6
CONTINUOUS
 10
4.606500
 20
3.973081
  0
VERTEX
  8
FOREGROUND
  6
CONTINUOUS
 10
4.570800
 20
3.976681
  0
VERTEX
  8
FOREGROUND
  6
CONTINUOUS
 10
4.534914
 20
3.979642
  0
VERTEX
  8
FOREGROUND
  6
CONTINUOUS
 10
4.498849
 20
3.981961
  0
VERTEX
  8
FOREGROUND
  6
CONTINUOUS
 10
4.462611
 20
3.983631
  0
VERTEX
  8
FOREGROUND
  6
CONTINUOUS
 10
4.426204
 20
3.984645
  0
VERTEX
  8
FOREGROUND
  6
CONTINUOUS
 10
4.389635
 20
3.985000
  0
VERTEX
  8
FOREGROUND
  6
CONTINUOUS
 10
2.017969
 20
3.985000
  0
VERTEX
  8
FOREGROUND
  6
CONTINUOUS
 10
1.981410
 20
3.984632
  0
VERTEX
  8
FOREGROUND
  6
CONTINUOUS
 10
1.945013
 20
3.983604
  0
VERTEX
  8
FOREGROUND
  6
CONTINUOUS
 10
1.908784
 20
3.981922
  0
VERTEX
  8
FOREGROUND
  6
CONTINUOUS
 10
1.872729
 20
3.979591
  0
VERTEX
  8
FOREGROUND
  6
CONTINUOUS
 10
1.836854
 20
3.976618
  0
VERTEX
  8
FOREGROUND
  6
CONTINUOUS
 10
1.801164
 20
3.973007
  0
VERTEX
  8
FOREGROUND
  6
CONTINUOUS
 10
1.765665
 20
3.968765
  0
VERTEX
  8
FOREGROUND
  6
CONTINUOUS
 10
1.730363
 20
3.963897
  0
VERTEX
  8
FOREGROUND
  6
CONTINUOUS
 10
1.695263
 20
3.958409
  0
VERTEX
  8
FOREGROUND
  6
CONTINUOUS
 10
1.660371
 20
3.952307
  0
VERTEX
  8
FOREGROUND
  6
CONTINUOUS
 10
1.625693
 20
3.945596
  0
VERTEX
  8
FOREGROUND
  6
CONTINUOUS
 10
1.591234
 20
3.938283
  0
VERTEX
  8
FOREGROUND
  6
CONTINUOUS
 10
1.557001
 20
3.930373
  0
VERTEX
  8
FOREGROUND
  6
CONTINUOUS
 10
1.522999
 20
3.921871
  0
VERTEX
  8
FOREGROUND
  6
CONTINUOUS
 10
1.489234
 20
3.912783
  0
VERTEX
  8
FOREGROUND
  6
CONTINUOUS
 10
1.455711
 20
3.903116
  0
VERTEX
  8
FOREGROUND
  6
CONTINUOUS
 10
1.422436
 20
3.892875
  0
VERTEX
  8
FOREGROUND
  6
CONTINUOUS
 10
1.389416
 20
3.882065
  0
VERTEX
  8
FOREGROUND
  6
CONTINUOUS
 10
1.356655
 20
3.870692
  0
VERTEX
  8
FOREGROUND
  6
CONTINUOUS
 10
1.324159
 20
3.858762
  0
VERTEX
  8
FOREGROUND
  6
CONTINUOUS
 10
1.291935
 20
3.846281
  0
VERTEX
  8
FOREGROUND
  6
CONTINUOUS
 10
1.259987
 20
3.833255
  0
VERTEX
  8
FOREGROUND
  6
CONTINUOUS
 10
1.228322
 20
3.819689
  0
VERTEX
  8
FOREGROUND
  6
CONTINUOUS
 10
1.196945
 20
3.805588
  0
VERTEX
  8
FOREGROUND
  6
CONTINUOUS
 10
1.165862
 20
3.790959
  0
VERTEX
  8
FOREGROUND
  6
CONTINUOUS
 10
1.135079
 20
3.775808
  0
VERTEX
  8
FOREGROUND
  6
CONTINUOUS
 10
1.104601
 20
3.760139
  0
VERTEX
  8
FOREGROUND
  6
CONTINUOUS
 10
1.074435
 20
3.743959
  0
VERTEX
  8
FOREGROUND
  6
CONTINUOUS
 10
1.044585
 20
3.727274
  0
VERTEX
  8
FOREGROUND
  6
CONTINUOUS
 10
1.015058
 20
3.710089
  0
VERTEX
  8
FOREGROUND
  6
CONTINUOUS
 10
0.985859
 20
3.692410
  0
VERTEX
  8
FOREGROUND
  6
CONTINUOUS
 10
0.956995
 20
3.674242
  0
VERTEX
  8
FOREGROUND
  6
CONTINUOUS
 10
0.928470
 20
3.655592
  0
VERTEX
  8
FOREGROUND
  6
CONTINUOUS
 10
0.900290
 20
3.636465
  0
VERTEX
  8
FOREGROUND
  6
CONTINUOUS
 10
0.872462
 20
3.616867
  0
VERTEX
  8
FOREGROUND
  6
CONTINUOUS
 10
0.844991
 20
3.596803
  0
VERTEX
  8
FOREGROUND
  6
CONTINUOUS
 10
0.817883
 20
3.576280
  0
VERTEX
  8
FOREGROUND
  6
CONTINUOUS
 10
0.791143
 20
3.555303
  0
VERTEX
  8
FOREGROUND
  6
CONTINUOUS
 10
0.764777
 20
3.533877
  0
VERTEX
  8
FOREGROUND
  6
CONTINUOUS
 10
0.738791
 20
3.512009
  0
VERTEX
  8
FOREGROUND
  6
CONTINUOUS
 10
0.713190
 20
3.489704
  0
VERTEX
  8
FOREGROUND
  6
CONTINUOUS
 10
0.687981
 20
3.466968
  0
VERTEX
  8
FOREGROUND
  6
CONTINUOUS
 10
0.663169
 20
3.443806
  0
VERTEX
  8
FOREGROUND
  6
CONTINUOUS
 10
0.638760
 20
3.420225
  0
VERTEX
  8
FOREGROUND
  6
CONTINUOUS
 10
0.614759
 20
3.396230
  0
VERTEX
  8
FOREGROUND
  6
CONTINUOUS
 10
0.591172
 20
3.371826
  0
VERTEX
  8
FOREGROUND
  6
CONTINUOUS
 10
0.568005
 20
3.347020
  0
VERTEX
  8
FOREGROUND
  6
CONTINUOUS
 10
0.545264
 20
3.321818
  0
VERTEX
  8
FOREGROUND
  6
CONTINUOUS
 10
0.522955
 20
3.296224
  0
VERTEX
  8
FOREGROUND
  6
CONTINUOUS
 10
0.501082
 20
3.270245
  0
VERTEX
  8
FOREGROUND
  6
CONTINUOUS
 10
0.479652
 20
3.243886
  0
VERTEX
  8
FOREGROUND
  6
CONTINUOUS
 10
0.458671
 20
3.217154
  0
VERTEX
  8
FOREGROUND
  6
CONTINUOUS
 10
0.438144
 20
3.190053
  0
VERTEX
  8
FOREGROUND
  6
CONTINUOUS
 10
0.418077
 20
3.162590
  0
VERTEX
  8
FOREGROUND
  6
CONTINUOUS
 10
0.398475
 20
3.134770
  0
VERTEX
  8
FOREGROUND
  6
CONTINUOUS
 10
0.379346
 20
3.106599
  0
VERTEX
  8
FOREGROUND
  6
CONTINUOUS
 10
0.360693
 20
3.078083
  0
VERTEX
  8
FOREGROUND
  6
CONTINUOUS
 10
0.342523
 20
3.049227
  0
VERTEX
  8
FOREGROUND
  6
CONTINUOUS
 10
0.324842
 20
3.020037
  0
VERTEX
  8
FOREGROUND
  6
CONTINUOUS
 10
0.307655
 20
2.990519
  0
VERTEX
  8
FOREGROUND
  6
CONTINUOUS
 10
0.290968
 20
2.960679
  0
VERTEX
  8
FOREGROUND
  6
CONTINUOUS
 10
0.274787
 20
2.930523
  0
VERTEX
  8
FOREGROUND
  6
CONTINUOUS
 10
0.259118
 20
2.900055
  0
VERTEX
  8
FOREGROUND
  6
CONTINUOUS
 10
0.243965
 20
2.869282
  0
VERTEX
  8
FOREGROUND
  6
CONTINUOUS
 10
0.229336
 20
2.838209
  0
VERTEX
  8
FOREGROUND
  6
CONTINUOUS
 10
0.215235
 20
2.806843
  0
VERTEX
  8
FOREGROUND
  6
CONTINUOUS
 10
0.201669
 20
2.775189
  0
VERTEX
  8
FOREGROUND
  6
CONTINUOUS
 10
0.188643
 20
2.743252
  0
VERTEX
  8
FOREGROUND
  6
CONTINUOUS
 10
0.176163
 20
2.711039
  0
VERTEX
  8
FOREGROUND
  6
CONTINUOUS
 10
0.164234
 20
2.678555
  0
VERTEX
  8
FOREGROUND
  6
CONTINUOUS
 10
0.152862
 20
2.645806
  0
VERTEX
  8
FOREGROUND
  6
CONTINUOUS
 10
0.142054
 20
2.612797
  0
VERTEX
  8
FOREGROUND
  6
CONTINUOUS
 10
0.131814
 20
2.579535
  0
VERTEX
  8
FOREGROUND
  6
CONTINUOUS
 10
0.122149
 20
2.546024
  0
VERTEX
  8
FOREGROUND
  6
CONTINUOUS
 10
0.113064
 20
2.512272
  0
VERTEX
  8
FOREGROUND
  6
CONTINUOUS
 10
0.104565
 20
2.478282
  0
VERTEX
  8
FOREGROUND
  6
CONTINUOUS
 10
0.096658
 20
2.444062
  0
VERTEX
  8
FOREGROUND
  6
CONTINUOUS
 10
0.089348
 20
2.409617
  0
VERTEX
  8
FOREGROUND
  6
CONTINUOUS
 10
0.082641
 20
2.374953
  0
VERTEX
  8
FOREGROUND
  6
CONTINUOUS
 10
0.076542
 20
2.340074
  0
VERTEX
  8
FOREGROUND
  6
CONTINUOUS
 10
0.071059
 20
2.304988
  0
VERTEX
  8
FOREGROUND
  6
CONTINUOUS
 10
0.066195
 20
2.269700
  0
VERTEX
  8
FOREGROUND
  6
CONTINUOUS
 10
0.061958
 20
2.234215
  0
VERTEX
  8
FOREGROUND
  6
CONTINUOUS
 10
0.058352
 20
2.198539
  0
VERTEX
  8
FOREGROUND
  6
CONTINUOUS
 10
0.055384
 20
2.162679
  0
VERTEX
  8
FOREGROUND
  6
CONTINUOUS
 10
0.053059
 20
2.126639
  0
VERTEX
  8
FOREGROUND
  6
CONTINUOUS
 10
0.051383
 20
2.090425
  0
VERTEX
  8
FOREGROUND
  6
CONTINUOUS
 10
0.050361
 20
2.054044
  0
VERTEX
  8
FOREGROUND
  6
CONTINUOUS
 10
0.050000
 20
2.017500
  0
VERTEX
  8
FOREGROUND
  6
CONTINUOUS
 10
0.050000
 20
2.017500
  0
VERTEX
  8
FOREGROUND
  6
CONTINUOUS
 10
0.050361
 20
1.980952
  0
VERTEX
  8
FOREGROUND
  6
CONTINUOUS
 10
0.051383
 20
1.944565
  0
VERTEX
  8
FOREGROUND
  6
CONTINUOUS
 10
0.053060
 20
1.908347
  0
VERTEX
  8
FOREGROUND
  6
CONTINUOUS
 10
0.055385
 20
1.872303
  0
VERTEX
  8
FOREGROUND
  6
CONTINUOUS
 10
0.058354
 20
1.836437
  0
VERTEX
  8
FOREGROUND
  6
CONTINUOUS
 10
0.061961
 20
1.800757
  0
VERTEX
  8
FOREGROUND
  6
CONTINUOUS
 10
0.066199
 20
1.765268
  0
VERTEX
  8
FOREGROUND
  6
CONTINUOUS
 10
0.071064
 20
1.729975
  0
VERTEX
  8
FOREGROUND
  6
CONTINUOUS
 10
0.076549
 20
1.694885
  0
VERTEX
  8
FOREGROUND
  6
CONTINUOUS
 10
0.082648
 20
1.660003
  0
VERTEX
  8
FOREGROUND
  6
CONTINUOUS
 10
0.089357
 20
1.625334
  0
VERTEX
  8
FOREGROUND
  6
CONTINUOUS
 10
0.096669
 20
1.590885
  0
VERTEX
  8
FOREGROUND
  6
CONTINUOUS
 10
0.104578
 20
1.556661
  0
VERTEX
  8
FOREGROUND
  6
CONTINUOUS
 10
0.113079
 20
1.522668
  0
VERTEX
  8
FOREGROUND
  6
CONTINUOUS
 10
0.122166
 20
1.488911
  0
VERTEX
  8
FOREGROUND
  6
CONTINUOUS
 10
0.131834
 20
1.455397
  0
VERTEX
  8
FOREGROUND
  6
CONTINUOUS
 10
0.142076
 20
1.422131
  0
VERTEX
  8
FOREGROUND
  6
CONTINUOUS
 10
0.152887
 20
1.389119
  0
VERTEX
  8
FOREGROUND
  6
CONTINUOUS
 10
0.164261
 20
1.356367
  0
VERTEX
  8
FOREGROUND
  6
CONTINUOUS
 10
0.176192
 20
1.323879
  0
VERTEX
  8
FOREGROUND
  6
CONTINUOUS
 10
0.188676
 20
1.291663
  0
VERTEX
  8
FOREGROUND
  6
CONTINUOUS
 10
0.201705
 20
1.259723
  0
VERTEX
  8
FOREGROUND
  6
CONTINUOUS
 10
0.215274
 20
1.228066
  0
VERTEX
  8
FOREGROUND
  6
CONTINUOUS
 10
0.229378
 20
1.196697
  0
VERTEX
  8
FOREGROUND
  6
CONTINUOUS
 10
0.244011
 20
1.165621
  0
VERTEX
  8
FOREGROUND
  6
CONTINUOUS
 10
0.259166
 20
1.134846
  0
VERTEX
  8
FOREGROUND
  6
CONTINUOUS
 10
0.274840
 20
1.104375
  0
VERTEX
  8
FOREGROUND
  6
CONTINUOUS
 10
0.291024
 20
1.074216
  0
VERTEX
  8
FOREGROUND
  6
CONTINUOUS
 10
0.307715
 20
1.044374
  0
VERTEX
  8
FOREGROUND
  6
CONTINUOUS
 10
0.324905
 20
1.014854
  0
VERTEX
  8
FOREGROUND
  6
CONTINUOUS
 10
0.342591
 20
0.985662
  0
VERTEX
  8
FOREGROUND
  6
CONTINUOUS
 10
0.360764
 20
0.956804
  0
VERTEX
  8
FOREGROUND
  6
CONTINUOUS
 10
0.379421
 20
0.928286
  0
VERTEX
  8
FOREGROUND
  6
CONTINUOUS
 10
0.398555
 20
0.900113
  0
VERTEX
  8
FOREGROUND
  6
CONTINUOUS
 10
0.418161
 20
0.872291
  0
VERTEX
  8
FOREGROUND
  6
CONTINUOUS
 10
0.438232
 20
0.844827
  0
VERTEX
  8
FOREGROUND
  6
CONTINUOUS
 10
0.458764
 20
0.817724
  0
VERTEX
  8
FOREGROUND
  6
CONTINUOUS
 10
0.479750
 20
0.790990
  0
VERTEX
  8
FOREGROUND
  6
CONTINUOUS
 10
0.501184
 20
0.764630
  0
VERTEX
  8
FOREGROUND
  6
CONTINUOUS
 10
0.523061
 20
0.738650
  0
VERTEX
  8
FOREGROUND
  6
CONTINUOUS
 10
0.545376
 20
0.713056
  0
VERTEX
  8
FOREGROUND
  6
CONTINUOUS
 10
0.568122
 20
0.687852
  0
VERTEX
  8
FOREGROUND
  6
CONTINUOUS
 10
0.591293
 20
0.663045
  0
VERTEX
  8
FOREGROUND
  6
CONTINUOUS
 10
0.614885
 20
0.638641
  0
VERTEX
  8
FOREGROUND
  6
CONTINUOUS
 10
0.638891
 20
0.614646
  0
VERTEX
  8
FOREGROUND
  6
CONTINUOUS
 10
0.663305
 20
0.591064
  0
VERTEX
  8
FOREGROUND
  6
CONTINUOUS
 10
0.688122
 20
0.567902
  0
VERTEX
  8
FOREGROUND
  6
CONTINUOUS
 10
0.713336
 20
0.545166
  0
VERTEX
  8
FOREGROUND
  6
CONTINUOUS
 10
0.738942
 20
0.522861
  0
VERTEX
  8
FOREGROUND
  6
CONTINUOUS
 10
0.764933
 20
0.500993
  0
VERTEX
  8
FOREGROUND
  6
CONTINUOUS
 10
0.791304
 20
0.479568
  0
VERTEX
  8
FOREGROUND
  6
CONTINUOUS
 10
0.818050
 20
0.458591
  0
VERTEX
  8
FOREGROUND
  6
CONTINUOUS
 10
0.845163
 20
0.438068
  0
VERTEX
  8
FOREGROUND
  6
CONTINUOUS
 10
0.872640
 20
0.418005
  0
VERTEX
  8
FOREGROUND
  6
CONTINUOUS
 10
0.900473
 20
0.398408
  0
VERTEX
  8
FOREGROUND
  6
CONTINUOUS
 10
0.928658
 20
0.379282
  0
VERTEX
  8
FOREGROUND
  6
CONTINUOUS
 10
0.957188
 20
0.360633
  0
VERTEX
  8
FOREGROUND
  6
CONTINUOUS
 10
0.986058
 20
0.342467
  0
VERTEX
  8
FOREGROUND
  6
CONTINUOUS
 10
1.015262
 20
0.324789
  0
VERTEX
  8
FOREGROUND
  6
CONTINUOUS
 10
1.044795
 20
0.307606
  0
VERTEX
  8
FOREGROUND
  6
CONTINUOUS
 10
1.074650
 20
0.290922
  0
VERTEX
  8
FOREGROUND
  6
CONTINUOUS
 10
1.104822
 20
0.274744
  0
VERTEX
  8
FOREGROUND
  6
CONTINUOUS
 10
1.135305
 20
0.259078
  0
VERTEX
  8
FOREGROUND
  6
CONTINUOUS
 10
1.166094
 20
0.243929
  0
VERTEX
  8
FOREGROUND
  6
CONTINUOUS
 10
1.197182
 20
0.229302
  0
VERTEX
  8
FOREGROUND
  6
CONTINUOUS
 10
1.228565
 20
0.215204
  0
VERTEX
  8
FOREGROUND
  6
CONTINUOUS
 10
1.260235
 20
0.201640
  0
VERTEX
  8
FOREGROUND
  6
CONTINUOUS
 10
1.292189
 20
0.188617
  0
VERTEX
  8
FOREGROUND
  6
CONTINUOUS
 10
1.324419
 20
0.176139
  0
VERTEX
  8
FOREGROUND
  6
CONTINUOUS
 10
1.356920
 20
0.164213
  0
VERTEX
  8
FOREGROUND
  6
CONTINUOUS
 10
1.389686
 20
0.152843
  0
VERTEX
  8
FOREGROUND
  6
CONTINUOUS
 10
1.422713
 20
0.142037
  0
VERTEX
  8
FOREGROUND
  6
CONTINUOUS
 10
1.455993
 20
0.131799
  0
VERTEX
  8
FOREGROUND
  6
CONTINUOUS
 10
1.489521
 20
0.122136
  0
VERTEX
  8
FOREGROUND
  6
CONTINUOUS
 10
1.523292
 20
0.113053
  0
VERTEX
  8
FOREGROUND
  6
CONTINUOUS
 10
1.557299
 20
0.104555
  0
VERTEX
  8
FOREGROUND
  6
CONTINUOUS
 10
1.591537
 20
0.096649
  0
VERTEX
  8
FOREGROUND
  6
CONTINUOUS
 10
1.626001
 20
0.089340
  0
VERTEX
  8
FOREGROUND
  6
CONTINUOUS
 10
1.660685
 20
0.082635
  0
VERTEX
  8
FOREGROUND
  6
CONTINUOUS
 10
1.695582
 20
0.076538
  0
VERTEX
  8
FOREGROUND
  6
CONTINUOUS
 10
1.730687
 20
0.071055
  0
VERTEX
  8
FOREGROUND
  6
CONTINUOUS
 10
1.765994
 20
0.066192
  0
VERTEX
  8
FOREGROUND
  6
CONTINUOUS
 10
1.801499
 20
0.061956
  0
VERTEX
  8
FOREGROUND
  6
CONTINUOUS
 10
1.837194
 20
0.058351
  0
VERTEX
  8
FOREGROUND
  6
CONTINUOUS
 10
1.873074
 20
0.055383
  0
VERTEX
  8
FOREGROUND
  6
CONTINUOUS
 10
1.909134
 20
0.053058
  0
VERTEX
  8
FOREGROUND
  6
CONTINUOUS
 10
1.945368
 20
0.051383
  0
VERTEX
  8
FOREGROUND
  6
CONTINUOUS
 10
1.981769
 20
0.050361
  0
VERTEX
  8
FOREGROUND
  6
CONTINUOUS
 10
2.018333
 20
0.050000
  0
SEQEND
  8
0
  0
ENDSEC
  0
EOF
