  0
SECTION
  2
HEADER
  9
$ACADVER
  1
AC1006
  9
$EXTMIN
 10
0.000000
 20
0.000000
  9
$EXTMAX
 10
6.408333
 20
2.460000
  9
$LTSCALE
 40
0.166667
  9
$PDMODE
 70
    35
  9
$PDSIZE
 40
0.133333
  0
ENDSEC
  0
SECTION
  2
TABLES
  0
TABLE
  2
LTYPE
 70
     9
  0
LTYPE
  2
CONTINUOUS
 70
    64
  3
Solid line
 72
    65
 73
     0
 40
0.000000
  0
LTYPE
  2
DASHED
 70
    64
  3
__ __ __ __ __ __ __ __ __ __ __ __ __ __ __
 72
    65
 73
     2
 40
0.001250
 49
0.000833
 49
-0.000417
  0
LTYPE
  2
HIDDEN
 70
    64
  3
 _ _ _ _ _ _ _ _ _ _ _ _ _ _ _ _ _ _ _ _ _ _
 72
    65
 73
     2
 40
0.000625
 49
0.000417
 49
-0.000208
  0
LTYPE
  2
CENTER
 70
    64
  3
____ _ ____ _ ____ _ ____ _ ____ _ ____ _ ____
 72
    65
 73
     4
 40
0.003333
 49
0.002083
 49
-0.000417
 49
0.000417
 49
-0.000417
  0
LTYPE
  2
PHANTOM
 70
    64
  3
_____ _ _ _____ _ _ _____ _ _ _____ _ _ ____
 72
    65
 73
     6
 40
0.004167
 49
0.002083
 49
-0.000417
 49
0.000417
 49
-0.000417
 49
0.000417
 49
-0.000417
  0
LTYPE
  2
DOT
 70
    64
  3
...............................................
 72
    65
 73
     2
 40
0.000417
 49
0.000000
 49
-0.000417
  0
LTYPE
  2
DASHDOT
 70
    64
  3
__ . __ . __ . __ . __ . __ . __ . __ . __ . __
 72
    65
 73
     4
 40
0.001667
 49
0.000833
 49
-0.000417
 49
0.000000
 49
-0.000417
  0
LTYPE
  2
BORDER
 70
    64
  3
__ __ . __ __ . __ __ . __ __ . __ __ . __ __
 72
    65
 73
     6
 40
0.002917
 49
0.000833
 49
-0.000417
 49
0.000833
 49
-0.000417
 49
0.000000
 49
-0.000417
  0
LTYPE
  2
DIVIDE
 70
    64
  3
__ . . __ . . __ . . __ . . __ . . __ . . __
 72
    65
 73
     6
 40
0.002083
 49
0.000833
 49
-0.000417
 49
0.000000
 49
-0.000417
 49
0.000000
 49
-0.000417
  0
LTYPE
  2
DOTDOT
 70
    64
  3
 . .  . .  . .  . .  . .  . . 
 72
    65
 73
     5
 40
0.000917
 49
-0.000417
 49
0.000000
 49
-0.000417
 49
0.000000
 49
-0.000417
  0
ENDTAB
  0
TABLE
  2
STYLE
 70
     2
  0
STYLE
 70
     0
  2
SN0
 40
0.000000
 41
0.001667
 50
0.000000
 71
     0
 42
0.000000
  3
ROMAND
  0
STYLE
 70
    68
  2
SV0
 40
0.000000
 41
0.001667
 50
0.000000
 71
     0
 42
0.000000
  3
ROMAND
  0
ENDTAB
  0
TABLE
  2
LAYER
 70
     2
  0
LAYER
  2
FOREGROUND
 70
    64
 62
     7
  6
CONTINUOUS
  0
LAYER
  2
BACKGROUND
 70
    65
 62
    -7
  6
CONTINUOUS
  0
ENDTAB
  0
ENDSEC
  0
SECTION
  2
ENTITIES
  0
POLYLINE
  8
FOREGROUND
  6
CONTINUOUS
 66
     1
 40
0.010000
 41
0.010000
 70
     1
  0
VERTEX
  8
FOREGROUND
  6
CONTINUOUS
 10
5.178333
 20
0.050000
  0
VERTEX
  8
FOREGROUND
  6
CONTINUOUS
 10
5.211929
 20
0.050495
  0
VERTEX
  8
FOREGROUND
  6
CONTINUOUS
 10
5.245292
 20
0.051918
  0
VERTEX
  8
FOREGROUND
  6
CONTINUOUS
 10
5.278408
 20
0.054257
  0
VERTEX
  8
FOREGROUND
  6
CONTINUOUS
 10
5.311267
 20
0.057498
  0
VERTEX
  8
FOREGROUND
  6
CONTINUOUS
 10
5.343854
 20
0.061631
  0
VERTEX
  8
FOREGROUND
  6
CONTINUOUS
 10
5.376159
 20
0.066642
  0
VERTEX
  8
FOREGROUND
  6
CONTINUOUS
 10
5.408168
 20
0.072519
  0
VERTEX
  8
FOREGROUND
  6
CONTINUOUS
 10
5.439870
 20
0.079250
  0
VERTEX
  8
FOREGROUND
  6
CONTINUOUS
 10
5.471251
 20
0.086822
  0
VERTEX
  8
FOREGROUND
  6
CONTINUOUS
 10
5.502300
 20
0.095222
  0
VERTEX
  8
FOREGROUND
  6
CONTINUOUS
 10
5.533003
 20
0.104440
  0
VERTEX
  8
FOREGROUND
  6
CONTINUOUS
 10
5.563349
 20
0.114461
  0
VERTEX
  8
FOREGROUND
  6
CONTINUOUS
 10
5.593326
 20
0.125273
  0
VERTEX
  8
FOREGROUND
  6
CONTINUOUS
 10
5.622920
 20
0.136865
  0
VERTEX
  8
FOREGROUND
  6
CONTINUOUS
 10
5.652119
 20
0.149224
  0
VERTEX
  8
FOREGROUND
  6
CONTINUOUS
 10
5.680911
 20
0.162337
  0
VERTEX
  8
FOREGROUND
  6
CONTINUOUS
 10
5.709284
 20
0.176191
  0
VERTEX
  8
FOREGROUND
  6
CONTINUOUS
 10
5.737225
 20
0.190776
  0
VERTEX
  8
FOREGROUND
  6
CONTINUOUS
 10
5.764722
 20
0.206078
  0
VERTEX
  8
FOREGROUND
  6
CONTINUOUS
 10
5.791762
 20
0.222084
  0
VERTEX
  8
FOREGROUND
  6
CONTINUOUS
 10
5.818333
 20
0.238783
  0
VERTEX
  8
FOREGROUND
  6
CONTINUOUS
 10
5.844422
 20
0.256161
  0
VERTEX
  8
FOREGROUND
  6
CONTINUOUS
 10
5.870018
 20
0.274208
  0
VERTEX
  8
FOREGROUND
  6
CONTINUOUS
 10
5.895107
 20
0.292909
  0
VERTEX
  8
FOREGROUND
  6
CONTINUOUS
 10
5.919678
 20
0.312253
  0
VERTEX
  8
FOREGROUND
  6
CONTINUOUS
 10
5.943717
 20
0.332227
  0
VERTEX
  8
FOREGROUND
  6
CONTINUOUS
 10
5.967213
 20
0.352820
  0
VERTEX
  8
FOREGROUND
  6
CONTINUOUS
 10
5.990153
 20
0.374018
  0
VERTEX
  8
FOREGROUND
  6
CONTINUOUS
 10
6.012525
 20
0.395809
  0
VERTEX
  8
FOREGROUND
  6
CONTINUOUS
 10
6.034316
 20
0.418180
  0
VERTEX
  8
FOREGROUND
  6
CONTINUOUS
 10
6.055514
 20
0.441120
  0
VERTEX
  8
FOREGROUND
  6
CONTINUOUS
 10
6.076106
 20
0.464616
  0
VERTEX
  8
FOREGROUND
  6
CONTINUOUS
 10
6.096080
 20
0.488656
  0
VERTEX
  8
FOREGROUND
  6
CONTINUOUS
 10
6.115424
 20
0.513226
  0
VERTEX
  8
FOREGROUND
  6
CONTINUOUS
 10
6.134126
 20
0.538316
  0
VERTEX
  8
FOREGROUND
  6
CONTINUOUS
 10
6.152172
 20
0.563911
  0
VERTEX
  8
FOREGROUND
  6
CONTINUOUS
 10
6.169551
 20
0.590001
  0
VERTEX
  8
FOREGROUND
  6
CONTINUOUS
 10
6.186249
 20
0.616572
  0
VERTEX
  8
FOREGROUND
  6
CONTINUOUS
 10
6.202256
 20
0.643612
  0
VERTEX
  8
FOREGROUND
  6
CONTINUOUS
 10
6.217557
 20
0.671108
  0
VERTEX
  8
FOREGROUND
  6
CONTINUOUS
 10
6.232142
 20
0.699049
  0
VERTEX
  8
FOREGROUND
  6
CONTINUOUS
 10
6.245997
 20
0.727422
  0
VERTEX
  8
FOREGROUND
  6
CONTINUOUS
 10
6.259110
 20
0.756214
  0
VERTEX
  8
FOREGROUND
  6
CONTINUOUS
 10
6.271468
 20
0.785414
  0
VERTEX
  8
FOREGROUND
  6
CONTINUOUS
 10
6.283060
 20
0.815008
  0
VERTEX
  8
FOREGROUND
  6
CONTINUOUS
 10
6.293873
 20
0.844984
  0
VERTEX
  8
FOREGROUND
  6
CONTINUOUS
 10
6.303894
 20
0.875330
  0
VERTEX
  8
FOREGROUND
  6
CONTINUOUS
 10
6.313111
 20
0.906034
  0
VERTEX
  8
FOREGROUND
  6
CONTINUOUS
 10
6.321512
 20
0.937082
  0
VERTEX
  8
FOREGROUND
  6
CONTINUOUS
 10
6.329083
 20
0.968463
  0
VERTEX
  8
FOREGROUND
  6
CONTINUOUS
 10
6.335814
 20
1.000165
  0
VERTEX
  8
FOREGROUND
  6
CONTINUOUS
 10
6.341691
 20
1.032174
  0
VERTEX
  8
FOREGROUND
  6
CONTINUOUS
 10
6.346702
 20
1.064479
  0
VERTEX
  8
FOREGROUND
  6
CONTINUOUS
 10
6.350835
 20
1.097067
  0
VERTEX
  8
FOREGROUND
  6
CONTINUOUS
 10
6.354077
 20
1.129925
  0
VERTEX
  8
FOREGROUND
  6
CONTINUOUS
 10
6.356415
 20
1.163042
  0
VERTEX
  8
FOREGROUND
  6
CONTINUOUS
 10
6.357838
 20
1.196404
  0
VERTEX
  8
FOREGROUND
  6
CONTINUOUS
 10
6.358333
 20
1.230000
  0
VERTEX
  8
FOREGROUND
  6
CONTINUOUS
 10
6.358333
 20
1.230000
  0
VERTEX
  8
FOREGROUND
  6
CONTINUOUS
 10
6.357838
 20
1.263600
  0
VERTEX
  8
FOREGROUND
  6
CONTINUOUS
 10
6.356415
 20
1.296967
  0
VERTEX
  8
FOREGROUND
  6
CONTINUOUS
 10
6.354076
 20
1.330088
  0
VERTEX
  8
FOREGROUND
  6
CONTINUOUS
 10
6.350833
 20
1.362950
  0
VERTEX
  8
FOREGROUND
  6
CONTINUOUS
 10
6.346699
 20
1.395542
  0
VERTEX
  8
FOREGROUND
  6
CONTINUOUS
 10
6.341687
 20
1.427851
  0
VERTEX
  8
FOREGROUND
  6
CONTINUOUS
 10
6.335809
 20
1.459864
  0
VERTEX
  8
FOREGROUND
  6
CONTINUOUS
 10
6.329076
 20
1.491569
  0
VERTEX
  8
FOREGROUND
  6
CONTINUOUS
 10
6.321503
 20
1.522954
  0
VERTEX
  8
FOREGROUND
  6
CONTINUOUS
 10
6.313100
 20
1.554006
  0
VERTEX
  8
FOREGROUND
  6
CONTINUOUS
 10
6.303881
 20
1.584712
  0
VERTEX
  8
FOREGROUND
  6
CONTINUOUS
 10
6.293857
 20
1.615062
  0
VERTEX
  8
FOREGROUND
  6
CONTINUOUS
 10
6.283042
 20
1.645041
  0
VERTEX
  8
FOREGROUND
  6
CONTINUOUS
 10
6.271448
 20
1.674638
  0
VERTEX
  8
FOREGROUND
  6
CONTINUOUS
 10
6.259086
 20
1.703840
  0
VERTEX
  8
FOREGROUND
  6
CONTINUOUS
 10
6.245970
 20
1.732635
  0
VERTEX
  8
FOREGROUND
  6
CONTINUOUS
 10
6.232112
 20
1.761010
  0
VERTEX
  8
FOREGROUND
  6
CONTINUOUS
 10
6.217524
 20
1.788954
  0
VERTEX
  8
FOREGROUND
  6
CONTINUOUS
 10
6.202219
 20
1.816453
  0
VERTEX
  8
FOREGROUND
  6
CONTINUOUS
 10
6.186209
 20
1.843495
  0
VERTEX
  8
FOREGROUND
  6
CONTINUOUS
 10
6.169507
 20
1.870067
  0
VERTEX
  8
FOREGROUND
  6
CONTINUOUS
 10
6.152124
 20
1.896159
  0
VERTEX
  8
FOREGROUND
  6
CONTINUOUS
 10
6.134074
 20
1.921756
  0
VERTEX
  8
FOREGROUND
  6
CONTINUOUS
 10
6.115369
 20
1.946846
  0
VERTEX
  8
FOREGROUND
  6
CONTINUOUS
 10
6.096021
 20
1.971418
  0
VERTEX
  8
FOREGROUND
  6
CONTINUOUS
 10
6.076042
 20
1.995459
  0
VERTEX
  8
FOREGROUND
  6
CONTINUOUS
 10
6.055445
 20
2.018956
  0
VERTEX
  8
FOREGROUND
  6
CONTINUOUS
 10
6.034243
 20
2.041896
  0
VERTEX
  8
FOREGROUND
  6
CONTINUOUS
 10
6.012447
 20
2.064269
  0
VERTEX
  8
FOREGROUND
  6
CONTINUOUS
 10
5.990071
 20
2.086060
  0
VERTEX
  8
FOREGROUND
  6
CONTINUOUS
 10
5.967126
 20
2.107258
  0
VERTEX
  8
FOREGROUND
  6
CONTINUOUS
 10
5.943626
 20
2.127850
  0
VERTEX
  8
FOREGROUND
  6
CONTINUOUS
 10
5.919581
 20
2.147825
  0
VERTEX
  8
FOREGROUND
  6
CONTINUOUS
 10
5.895006
 20
2.167168
  0
VERTEX
  8
FOREGROUND
  6
CONTINUOUS
 10
5.869912
 20
2.185869
  0
VERTEX
  8
FOREGROUND
  6
CONTINUOUS
 10
5.844311
 20
2.203914
  0
VERTEX
  8
FOREGROUND
  6
CONTINUOUS
 10
5.818217
 20
2.221292
  0
VERTEX
  8
FOREGROUND
  6
CONTINUOUS
 10
5.791641
 20
2.237990
  0
VERTEX
  8
FOREGROUND
  6
CONTINUOUS
 10
5.764596
 20
2.253995
  0
VERTEX
  8
FOREGROUND
  6
CONTINUOUS
 10
5.737094
 20
2.269295
  0
VERTEX
  8
FOREGROUND
  6
CONTINUOUS
 10
5.709148
 20
2.283877
  0
VERTEX
  8
FOREGROUND
  6
CONTINUOUS
 10
5.680771
 20
2.297730
  0
VERTEX
  8
FOREGROUND
  6
CONTINUOUS
 10
5.651973
 20
2.310841
  0
VERTEX
  8
FOREGROUND
  6
CONTINUOUS
 10
5.622769
 20
2.323197
  0
VERTEX
  8
FOREGROUND
  6
CONTINUOUS
 10
5.593170
 20
2.334786
  0
VERTEX
  8
FOREGROUND
  6
CONTINUOUS
 10
5.563188
 20
2.345595
  0
VERTEX
  8
FOREGROUND
  6
CONTINUOUS
 10
5.532837
 20
2.355613
  0
VERTEX
  8
FOREGROUND
  6
CONTINUOUS
 10
5.502129
 20
2.364827
  0
VERTEX
  8
FOREGROUND
  6
CONTINUOUS
 10
5.471075
 20
2.373223
  0
VERTEX
  8
FOREGROUND
  6
CONTINUOUS
 10
5.439689
 20
2.380791
  0
VERTEX
  8
FOREGROUND
  6
CONTINUOUS
 10
5.407982
 20
2.387518
  0
VERTEX
  8
FOREGROUND
  6
CONTINUOUS
 10
5.375968
 20
2.393390
  0
VERTEX
  8
FOREGROUND
  6
CONTINUOUS
 10
5.343659
 20
2.398397
  0
VERTEX
  8
FOREGROUND
  6
CONTINUOUS
 10
5.311066
 20
2.402524
  0
VERTEX
  8
FOREGROUND
  6
CONTINUOUS
 10
5.278203
 20
2.405761
  0
VERTEX
  8
FOREGROUND
  6
CONTINUOUS
 10
5.245082
 20
2.408094
  0
VERTEX
  8
FOREGROUND
  6
CONTINUOUS
 10
5.211715
 20
2.409511
  0
VERTEX
  8
FOREGROUND
  6
CONTINUOUS
 10
5.178115
 20
2.410000
  0
VERTEX
  8
FOREGROUND
  6
CONTINUOUS
 10
1.229781
 20
2.410000
  0
VERTEX
  8
FOREGROUND
  6
CONTINUOUS
 10
1.196190
 20
2.409499
  0
VERTEX
  8
FOREGROUND
  6
CONTINUOUS
 10
1.162832
 20
2.408070
  0
VERTEX
  8
FOREGROUND
  6
CONTINUOUS
 10
1.129720
 20
2.405726
  0
VERTEX
  8
FOREGROUND
  6
CONTINUOUS
 10
1.096866
 20
2.402479
  0
VERTEX
  8
FOREGROUND
  6
CONTINUOUS
 10
1.064283
 20
2.398341
  0
VERTEX
  8
FOREGROUND
  6
CONTINUOUS
 10
1.031983
 20
2.393325
  0
VERTEX
  8
FOREGROUND
  6
CONTINUOUS
 10
0.999979
 20
2.387444
  0
VERTEX
  8
FOREGROUND
  6
CONTINUOUS
 10
0.968282
 20
2.380709
  0
VERTEX
  8
FOREGROUND
  6
CONTINUOUS
 10
0.936906
 20
2.373133
  0
VERTEX
  8
FOREGROUND
  6
CONTINUOUS
 10
0.905862
 20
2.364728
  0
VERTEX
  8
FOREGROUND
  6
CONTINUOUS
 10
0.875164
 20
2.355508
  0
VERTEX
  8
FOREGROUND
  6
CONTINUOUS
 10
0.844823
 20
2.345484
  0
VERTEX
  8
FOREGROUND
  6
CONTINUOUS
 10
0.814852
 20
2.334668
  0
VERTEX
  8
FOREGROUND
  6
CONTINUOUS
 10
0.785263
 20
2.323073
  0
VERTEX
  8
FOREGROUND
  6
CONTINUOUS
 10
0.756068
 20
2.310712
  0
VERTEX
  8
FOREGROUND
  6
CONTINUOUS
 10
0.727281
 20
2.297597
  0
VERTEX
  8
FOREGROUND
  6
CONTINUOUS
 10
0.698913
 20
2.283740
  0
VERTEX
  8
FOREGROUND
  6
CONTINUOUS
 10
0.670977
 20
2.269154
  0
VERTEX
  8
FOREGROUND
  6
CONTINUOUS
 10
0.643486
 20
2.253850
  0
VERTEX
  8
FOREGROUND
  6
CONTINUOUS
 10
0.616451
 20
2.237843
  0
VERTEX
  8
FOREGROUND
  6
CONTINUOUS
 10
0.589885
 20
2.221143
  0
VERTEX
  8
FOREGROUND
  6
CONTINUOUS
 10
0.563800
 20
2.203763
  0
VERTEX
  8
FOREGROUND
  6
CONTINUOUS
 10
0.538210
 20
2.185716
  0
VERTEX
  8
FOREGROUND
  6
CONTINUOUS
 10
0.513126
 20
2.167014
  0
VERTEX
  8
FOREGROUND
  6
CONTINUOUS
 10
0.488560
 20
2.147669
  0
VERTEX
  8
FOREGROUND
  6
CONTINUOUS
 10
0.464525
 20
2.127695
  0
VERTEX
  8
FOREGROUND
  6
CONTINUOUS
 10
0.441034
 20
2.107102
  0
VERTEX
  8
FOREGROUND
  6
CONTINUOUS
 10
0.418099
 20
2.085905
  0
VERTEX
  8
FOREGROUND
  6
CONTINUOUS
 10
0.395731
 20
2.064114
  0
VERTEX
  8
FOREGROUND
  6
CONTINUOUS
 10
0.373945
 20
2.041743
  0
VERTEX
  8
FOREGROUND
  6
CONTINUOUS
 10
0.352751
 20
2.018804
  0
VERTEX
  8
FOREGROUND
  6
CONTINUOUS
 10
0.332163
 20
1.995309
  0
VERTEX
  8
FOREGROUND
  6
CONTINUOUS
 10
0.312193
 20
1.971270
  0
VERTEX
  8
FOREGROUND
  6
CONTINUOUS
 10
0.292853
 20
1.946701
  0
VERTEX
  8
FOREGROUND
  6
CONTINUOUS
 10
0.274156
 20
1.921613
  0
VERTEX
  8
FOREGROUND
  6
CONTINUOUS
 10
0.256114
 20
1.896019
  0
VERTEX
  8
FOREGROUND
  6
CONTINUOUS
 10
0.238739
 20
1.869931
  0
VERTEX
  8
FOREGROUND
  6
CONTINUOUS
 10
0.222044
 20
1.843362
  0
VERTEX
  8
FOREGROUND
  6
CONTINUOUS
 10
0.206041
 20
1.816324
  0
VERTEX
  8
FOREGROUND
  6
CONTINUOUS
 10
0.190743
 20
1.788830
  0
VERTEX
  8
FOREGROUND
  6
CONTINUOUS
 10
0.176162
 20
1.760891
  0
VERTEX
  8
FOREGROUND
  6
CONTINUOUS
 10
0.162310
 20
1.732521
  0
VERTEX
  8
FOREGROUND
  6
CONTINUOUS
 10
0.149200
 20
1.703731
  0
VERTEX
  8
FOREGROUND
  6
CONTINUOUS
 10
0.136844
 20
1.674535
  0
VERTEX
  8
FOREGROUND
  6
CONTINUOUS
 10
0.125255
 20
1.644944
  0
VERTEX
  8
FOREGROUND
  6
CONTINUOUS
 10
0.114445
 20
1.614970
  0
VERTEX
  8
FOREGROUND
  6
CONTINUOUS
 10
0.104426
 20
1.584628
  0
VERTEX
  8
FOREGROUND
  6
CONTINUOUS
 10
0.095212
 20
1.553927
  0
VERTEX
  8
FOREGROUND
  6
CONTINUOUS
 10
0.086813
 20
1.522882
  0
VERTEX
  8
FOREGROUND
  6
CONTINUOUS
 10
0.079243
 20
1.491504
  0
VERTEX
  8
FOREGROUND
  6
CONTINUOUS
 10
0.072514
 20
1.459807
  0
VERTEX
  8
FOREGROUND
  6
CONTINUOUS
 10
0.066638
 20
1.427801
  0
VERTEX
  8
FOREGROUND
  6
CONTINUOUS
 10
0.061628
 20
1.395500
  0
VERTEX
  8
FOREGROUND
  6
CONTINUOUS
 10
0.057497
 20
1.362916
  0
VERTEX
  8
FOREGROUND
  6
CONTINUOUS
 10
0.054256
 20
1.330062
  0
VERTEX
  8
FOREGROUND
  6
CONTINUOUS
 10
0.051918
 20
1.296950
  0
VERTEX
  8
FOREGROUND
  6
CONTINUOUS
 10
0.050495
 20
1.263591
  0
VERTEX
  8
FOREGROUND
  6
CONTINUOUS
 10
0.050000
 20
1.230000
  0
VERTEX
  8
FOREGROUND
  6
CONTINUOUS
 10
0.050000
 20
1.230000
  0
VERTEX
  8
FOREGROUND
  6
CONTINUOUS
 10
0.050495
 20
1.196404
  0
VERTEX
  8
FOREGROUND
  6
CONTINUOUS
 10
0.051918
 20
1.163042
  0
VERTEX
  8
FOREGROUND
  6
CONTINUOUS
 10
0.054257
 20
1.129925
  0
VERTEX
  8
FOREGROUND
  6
CONTINUOUS
 10
0.057498
 20
1.097067
  0
VERTEX
  8
FOREGROUND
  6
CONTINUOUS
 10
0.061631
 20
1.064479
  0
VERTEX
  8
FOREGROUND
  6
CONTINUOUS
 10
0.066642
 20
1.032174
  0
VERTEX
  8
FOREGROUND
  6
CONTINUOUS
 10
0.072519
 20
1.000165
  0
VERTEX
  8
FOREGROUND
  6
CONTINUOUS
 10
0.079250
 20
0.968463
  0
VERTEX
  8
FOREGROUND
  6
CONTINUOUS
 10
0.086822
 20
0.937082
  0
VERTEX
  8
FOREGROUND
  6
CONTINUOUS
 10
0.095222
 20
0.906034
  0
VERTEX
  8
FOREGROUND
  6
CONTINUOUS
 10
0.104440
 20
0.875330
  0
VERTEX
  8
FOREGROUND
  6
CONTINUOUS
 10
0.114461
 20
0.844984
  0
VERTEX
  8
FOREGROUND
  6
CONTINUOUS
 10
0.125273
 20
0.815008
  0
VERTEX
  8
FOREGROUND
  6
CONTINUOUS
 10
0.136865
 20
0.785414
  0
VERTEX
  8
FOREGROUND
  6
CONTINUOUS
 10
0.149224
 20
0.756214
  0
VERTEX
  8
FOREGROUND
  6
CONTINUOUS
 10
0.162337
 20
0.727422
  0
VERTEX
  8
FOREGROUND
  6
CONTINUOUS
 10
0.176191
 20
0.699049
  0
VERTEX
  8
FOREGROUND
  6
CONTINUOUS
 10
0.190776
 20
0.671108
  0
VERTEX
  8
FOREGROUND
  6
CONTINUOUS
 10
0.206078
 20
0.643612
  0
VERTEX
  8
FOREGROUND
  6
CONTINUOUS
 10
0.222084
 20
0.616572
  0
VERTEX
  8
FOREGROUND
  6
CONTINUOUS
 10
0.238783
 20
0.590001
  0
VERTEX
  8
FOREGROUND
  6
CONTINUOUS
 10
0.256161
 20
0.563911
  0
VERTEX
  8
FOREGROUND
  6
CONTINUOUS
 10
0.274208
 20
0.538316
  0
VERTEX
  8
FOREGROUND
  6
CONTINUOUS
 10
0.292909
 20
0.513226
  0
VERTEX
  8
FOREGROUND
  6
CONTINUOUS
 10
0.312253
 20
0.488656
  0
VERTEX
  8
FOREGROUND
  6
CONTINUOUS
 10
0.332227
 20
0.464616
  0
VERTEX
  8
FOREGROUND
  6
CONTINUOUS
 10
0.352820
 20
0.441120
  0
VERTEX
  8
FOREGROUND
  6
CONTINUOUS
 10
0.374018
 20
0.418180
  0
VERTEX
  8
FOREGROUND
  6
CONTINUOUS
 10
0.395809
 20
0.395809
  0
VERTEX
  8
FOREGROUND
  6
CONTINUOUS
 10
0.418180
 20
0.374018
  0
VERTEX
  8
FOREGROUND
  6
CONTINUOUS
 10
0.441120
 20
0.352820
  0
VERTEX
  8
FOREGROUND
  6
CONTINUOUS
 10
0.464616
 20
0.332227
  0
VERTEX
  8
FOREGROUND
  6
CONTINUOUS
 10
0.488656
 20
0.312253
  0
VERTEX
  8
FOREGROUND
  6
CONTINUOUS
 10
0.513226
 20
0.292909
  0
VERTEX
  8
FOREGROUND
  6
CONTINUOUS
 10
0.538316
 20
0.274208
  0
VERTEX
  8
FOREGROUND
  6
CONTINUOUS
 10
0.563911
 20
0.256161
  0
VERTEX
  8
FOREGROUND
  6
CONTINUOUS
 10
0.590001
 20
0.238783
  0
VERTEX
  8
FOREGROUND
  6
CONTINUOUS
 10
0.616572
 20
0.222084
  0
VERTEX
  8
FOREGROUND
  6
CONTINUOUS
 10
0.643612
 20
0.206078
  0
VERTEX
  8
FOREGROUND
  6
CONTINUOUS
 10
0.671108
 20
0.190776
  0
VERTEX
  8
FOREGROUND
  6
CONTINUOUS
 10
0.699049
 20
0.176191
  0
VERTEX
  8
FOREGROUND
  6
CONTINUOUS
 10
0.727422
 20
0.162337
  0
VERTEX
  8
FOREGROUND
  6
CONTINUOUS
 10
0.756214
 20
0.149224
  0
VERTEX
  8
FOREGROUND
  6
CONTINUOUS
 10
0.785414
 20
0.136865
  0
VERTEX
  8
FOREGROUND
  6
CONTINUOUS
 10
0.815008
 20
0.125273
  0
VERTEX
  8
FOREGROUND
  6
CONTINUOUS
 10
0.844984
 20
0.114461
  0
VERTEX
  8
FOREGROUND
  6
CONTINUOUS
 10
0.875330
 20
0.104440
  0
VERTEX
  8
FOREGROUND
  6
CONTINUOUS
 10
0.906034
 20
0.095222
  0
VERTEX
  8
FOREGROUND
  6
CONTINUOUS
 10
0.937082
 20
0.086822
  0
VERTEX
  8
FOREGROUND
  6
CONTINUOUS
 10
0.968463
 20
0.079250
  0
VERTEX
  8
FOREGROUND
  6
CONTINUOUS
 10
1.000165
 20
0.072519
  0
VERTEX
  8
FOREGROUND
  6
CONTINUOUS
 10
1.032174
 20
0.066642
  0
VERTEX
  8
FOREGROUND
  6
CONTINUOUS
 10
1.064479
 20
0.061631
  0
VERTEX
  8
FOREGROUND
  6
CONTINUOUS
 10
1.097067
 20
0.057498
  0
VERTEX
  8
FOREGROUND
  6
CONTINUOUS
 10
1.129925
 20
0.054257
  0
VERTEX
  8
FOREGROUND
  6
CONTINUOUS
 10
1.163042
 20
0.051918
  0
VERTEX
  8
FOREGROUND
  6
CONTINUOUS
 10
1.196404
 20
0.050495
  0
VERTEX
  8
FOREGROUND
  6
CONTINUOUS
 10
1.230000
 20
0.050000
  0
SEQEND
  8
0
  0
ENDSEC
  0
EOF
