  0
SECTION
  2
HEADER
  9
$ACADVER
  1
AC1006
  9
$EXTMIN
 10
0.000000
 20
0.000000
  9
$EXTMAX
 10
6.408333
 20
3.248333
  9
$LTSCALE
 40
0.166667
  9
$PDMODE
 70
    35
  9
$PDSIZE
 40
0.133333
  0
ENDSEC
  0
SECTION
  2
TABLES
  0
TABLE
  2
LTYPE
 70
     9
  0
LTYPE
  2
CONTINUOUS
 70
    64
  3
Solid line
 72
    65
 73
     0
 40
0.000000
  0
LTYPE
  2
DASHED
 70
    64
  3
__ __ __ __ __ __ __ __ __ __ __ __ __ __ __
 72
    65
 73
     2
 40
0.001250
 49
0.000833
 49
-0.000417
  0
LTYPE
  2
HIDDEN
 70
    64
  3
 _ _ _ _ _ _ _ _ _ _ _ _ _ _ _ _ _ _ _ _ _ _
 72
    65
 73
     2
 40
0.000625
 49
0.000417
 49
-0.000208
  0
LTYPE
  2
CENTER
 70
    64
  3
____ _ ____ _ ____ _ ____ _ ____ _ ____ _ ____
 72
    65
 73
     4
 40
0.003333
 49
0.002083
 49
-0.000417
 49
0.000417
 49
-0.000417
  0
LTYPE
  2
PHANTOM
 70
    64
  3
_____ _ _ _____ _ _ _____ _ _ _____ _ _ ____
 72
    65
 73
     6
 40
0.004167
 49
0.002083
 49
-0.000417
 49
0.000417
 49
-0.000417
 49
0.000417
 49
-0.000417
  0
LTYPE
  2
DOT
 70
    64
  3
...............................................
 72
    65
 73
     2
 40
0.000417
 49
0.000000
 49
-0.000417
  0
LTYPE
  2
DASHDOT
 70
    64
  3
__ . __ . __ . __ . __ . __ . __ . __ . __ . __
 72
    65
 73
     4
 40
0.001667
 49
0.000833
 49
-0.000417
 49
0.000000
 49
-0.000417
  0
LTYPE
  2
BORDER
 70
    64
  3
__ __ . __ __ . __ __ . __ __ . __ __ . __ __
 72
    65
 73
     6
 40
0.002917
 49
0.000833
 49
-0.000417
 49
0.000833
 49
-0.000417
 49
0.000000
 49
-0.000417
  0
LTYPE
  2
DIVIDE
 70
    64
  3
__ . . __ . . __ . . __ . . __ . . __ . . __
 72
    65
 73
     6
 40
0.002083
 49
0.000833
 49
-0.000417
 49
0.000000
 49
-0.000417
 49
0.000000
 49
-0.000417
  0
LTYPE
  2
DOTDOT
 70
    64
  3
 . .  . .  . .  . .  . .  . . 
 72
    65
 73
     5
 40
0.000917
 49
-0.000417
 49
0.000000
 49
-0.000417
 49
0.000000
 49
-0.000417
  0
ENDTAB
  0
TABLE
  2
STYLE
 70
     2
  0
STYLE
 70
     0
  2
SN0
 40
0.000000
 41
0.001667
 50
0.000000
 71
     0
 42
0.000000
  3
ROMAND
  0
STYLE
 70
    68
  2
SV0
 40
0.000000
 41
0.001667
 50
0.000000
 71
     0
 42
0.000000
  3
ROMAND
  0
ENDTAB
  0
TABLE
  2
LAYER
 70
     2
  0
LAYER
  2
FOREGROUND
 70
    64
 62
     7
  6
CONTINUOUS
  0
LAYER
  2
BACKGROUND
 70
    65
 62
    -7
  6
CONTINUOUS
  0
ENDTAB
  0
ENDSEC
  0
SECTION
  2
ENTITIES
  0
POLYLINE
  8
FOREGROUND
  6
CONTINUOUS
 66
     1
 40
0.010000
 41
0.010000
 70
     1
  0
VERTEX
  8
FOREGROUND
  6
CONTINUOUS
 10
4.783333
 20
0.050000
  0
VERTEX
  8
FOREGROUND
  6
CONTINUOUS
 10
4.818038
 20
0.050402
  0
VERTEX
  8
FOREGROUND
  6
CONTINUOUS
 10
4.852558
 20
0.051546
  0
VERTEX
  8
FOREGROUND
  6
CONTINUOUS
 10
4.886887
 20
0.053425
  0
VERTEX
  8
FOREGROUND
  6
CONTINUOUS
 10
4.921016
 20
0.056031
  0
VERTEX
  8
FOREGROUND
  6
CONTINUOUS
 10
4.954938
 20
0.059358
  0
VERTEX
  8
FOREGROUND
  6
CONTINUOUS
 10
4.988646
 20
0.063396
  0
VERTEX
  8
FOREGROUND
  6
CONTINUOUS
 10
5.022131
 20
0.068138
  0
VERTEX
  8
FOREGROUND
  6
CONTINUOUS
 10
5.055386
 20
0.073578
  0
VERTEX
  8
FOREGROUND
  6
CONTINUOUS
 10
5.088403
 20
0.079706
  0
VERTEX
  8
FOREGROUND
  6
CONTINUOUS
 10
5.121176
 20
0.086516
  0
VERTEX
  8
FOREGROUND
  6
CONTINUOUS
 10
5.153695
 20
0.093999
  0
VERTEX
  8
FOREGROUND
  6
CONTINUOUS
 10
5.185953
 20
0.102149
  0
VERTEX
  8
FOREGROUND
  6
CONTINUOUS
 10
5.217944
 20
0.110957
  0
VERTEX
  8
FOREGROUND
  6
CONTINUOUS
 10
5.249658
 20
0.120416
  0
VERTEX
  8
FOREGROUND
  6
CONTINUOUS
 10
5.281088
 20
0.130518
  0
VERTEX
  8
FOREGROUND
  6
CONTINUOUS
 10
5.312228
 20
0.141256
  0
VERTEX
  8
FOREGROUND
  6
CONTINUOUS
 10
5.343068
 20
0.152621
  0
VERTEX
  8
FOREGROUND
  6
CONTINUOUS
 10
5.373602
 20
0.164607
  0
VERTEX
  8
FOREGROUND
  6
CONTINUOUS
 10
5.403822
 20
0.177205
  0
VERTEX
  8
FOREGROUND
  6
CONTINUOUS
 10
5.433720
 20
0.190408
  0
VERTEX
  8
FOREGROUND
  6
CONTINUOUS
 10
5.463288
 20
0.204208
  0
VERTEX
  8
FOREGROUND
  6
CONTINUOUS
 10
5.492519
 20
0.218598
  0
VERTEX
  8
FOREGROUND
  6
CONTINUOUS
 10
5.521405
 20
0.233569
  0
VERTEX
  8
FOREGROUND
  6
CONTINUOUS
 10
5.549938
 20
0.249115
  0
VERTEX
  8
FOREGROUND
  6
CONTINUOUS
 10
5.578112
 20
0.265228
  0
VERTEX
  8
FOREGROUND
  6
CONTINUOUS
 10
5.605917
 20
0.281899
  0
VERTEX
  8
FOREGROUND
  6
CONTINUOUS
 10
5.633347
 20
0.299122
  0
VERTEX
  8
FOREGROUND
  6
CONTINUOUS
 10
5.660394
 20
0.316889
  0
VERTEX
  8
FOREGROUND
  6
CONTINUOUS
 10
5.687050
 20
0.335191
  0
VERTEX
  8
FOREGROUND
  6
CONTINUOUS
 10
5.713308
 20
0.354022
  0
VERTEX
  8
FOREGROUND
  6
CONTINUOUS
 10
5.739160
 20
0.373374
  0
VERTEX
  8
FOREGROUND
  6
CONTINUOUS
 10
5.764597
 20
0.393238
  0
VERTEX
  8
FOREGROUND
  6
CONTINUOUS
 10
5.789614
 20
0.413608
  0
VERTEX
  8
FOREGROUND
  6
CONTINUOUS
 10
5.814201
 20
0.434476
  0
VERTEX
  8
FOREGROUND
  6
CONTINUOUS
 10
5.838351
 20
0.455834
  0
VERTEX
  8
FOREGROUND
  6
CONTINUOUS
 10
5.862057
 20
0.477674
  0
VERTEX
  8
FOREGROUND
  6
CONTINUOUS
 10
5.885311
 20
0.499989
  0
VERTEX
  8
FOREGROUND
  6
CONTINUOUS
 10
5.908106
 20
0.522772
  0
VERTEX
  8
FOREGROUND
  6
CONTINUOUS
 10
5.930433
 20
0.546013
  0
VERTEX
  8
FOREGROUND
  6
CONTINUOUS
 10
5.952284
 20
0.569707
  0
VERTEX
  8
FOREGROUND
  6
CONTINUOUS
 10
5.973654
 20
0.593845
  0
VERTEX
  8
FOREGROUND
  6
CONTINUOUS
 10
5.994532
 20
0.618419
  0
VERTEX
  8
FOREGROUND
  6
CONTINUOUS
 10
6.014913
 20
0.643422
  0
VERTEX
  8
FOREGROUND
  6
CONTINUOUS
 10
6.034788
 20
0.668846
  0
VERTEX
  8
FOREGROUND
  6
CONTINUOUS
 10
6.054150
 20
0.694684
  0
VERTEX
  8
FOREGROUND
  6
CONTINUOUS
 10
6.072991
 20
0.720928
  0
VERTEX
  8
FOREGROUND
  6
CONTINUOUS
 10
6.091303
 20
0.747570
  0
VERTEX
  8
FOREGROUND
  6
CONTINUOUS
 10
6.109079
 20
0.774602
  0
VERTEX
  8
FOREGROUND
  6
CONTINUOUS
 10
6.126311
 20
0.802018
  0
VERTEX
  8
FOREGROUND
  6
CONTINUOUS
 10
6.142992
 20
0.829809
  0
VERTEX
  8
FOREGROUND
  6
CONTINUOUS
 10
6.159113
 20
0.857967
  0
VERTEX
  8
FOREGROUND
  6
CONTINUOUS
 10
6.174667
 20
0.886486
  0
VERTEX
  8
FOREGROUND
  6
CONTINUOUS
 10
6.189647
 20
0.915357
  0
VERTEX
  8
FOREGROUND
  6
CONTINUOUS
 10
6.204044
 20
0.944572
  0
VERTEX
  8
FOREGROUND
  6
CONTINUOUS
 10
6.217851
 20
0.974125
  0
VERTEX
  8
FOREGROUND
  6
CONTINUOUS
 10
6.231061
 20
1.004007
  0
VERTEX
  8
FOREGROUND
  6
CONTINUOUS
 10
6.243666
 20
1.034210
  0
VERTEX
  8
FOREGROUND
  6
CONTINUOUS
 10
6.255658
 20
1.064728
  0
VERTEX
  8
FOREGROUND
  6
CONTINUOUS
 10
6.267029
 20
1.095552
  0
VERTEX
  8
FOREGROUND
  6
CONTINUOUS
 10
6.277773
 20
1.126675
  0
VERTEX
  8
FOREGROUND
  6
CONTINUOUS
 10
6.287880
 20
1.158089
  0
VERTEX
  8
FOREGROUND
  6
CONTINUOUS
 10
6.297344
 20
1.189786
  0
VERTEX
  8
FOREGROUND
  6
CONTINUOUS
 10
6.306157
 20
1.221760
  0
VERTEX
  8
FOREGROUND
  6
CONTINUOUS
 10
6.314311
 20
1.254001
  0
VERTEX
  8
FOREGROUND
  6
CONTINUOUS
 10
6.321798
 20
1.286503
  0
VERTEX
  8
FOREGROUND
  6
CONTINUOUS
 10
6.328611
 20
1.319258
  0
VERTEX
  8
FOREGROUND
  6
CONTINUOUS
 10
6.334743
 20
1.352258
  0
VERTEX
  8
FOREGROUND
  6
CONTINUOUS
 10
6.340185
 20
1.385495
  0
VERTEX
  8
FOREGROUND
  6
CONTINUOUS
 10
6.344930
 20
1.418963
  0
VERTEX
  8
FOREGROUND
  6
CONTINUOUS
 10
6.348971
 20
1.452653
  0
VERTEX
  8
FOREGROUND
  6
CONTINUOUS
 10
6.352299
 20
1.486557
  0
VERTEX
  8
FOREGROUND
  6
CONTINUOUS
 10
6.354907
 20
1.520668
  0
VERTEX
  8
FOREGROUND
  6
CONTINUOUS
 10
6.356787
 20
1.554978
  0
VERTEX
  8
FOREGROUND
  6
CONTINUOUS
 10
6.357932
 20
1.589481
  0
VERTEX
  8
FOREGROUND
  6
CONTINUOUS
 10
6.358333
 20
1.624167
  0
VERTEX
  8
FOREGROUND
  6
CONTINUOUS
 10
6.358333
 20
1.624167
  0
VERTEX
  8
FOREGROUND
  6
CONTINUOUS
 10
6.357931
 20
1.658857
  0
VERTEX
  8
FOREGROUND
  6
CONTINUOUS
 10
6.356786
 20
1.693364
  0
VERTEX
  8
FOREGROUND
  6
CONTINUOUS
 10
6.354906
 20
1.727679
  0
VERTEX
  8
FOREGROUND
  6
CONTINUOUS
 10
6.352297
 20
1.761794
  0
VERTEX
  8
FOREGROUND
  6
CONTINUOUS
 10
6.348968
 20
1.795703
  0
VERTEX
  8
FOREGROUND
  6
CONTINUOUS
 10
6.344927
 20
1.829396
  0
VERTEX
  8
FOREGROUND
  6
CONTINUOUS
 10
6.340181
 20
1.862868
  0
VERTEX
  8
FOREGROUND
  6
CONTINUOUS
 10
6.334737
 20
1.896109
  0
VERTEX
  8
FOREGROUND
  6
CONTINUOUS
 10
6.328604
 20
1.929113
  0
VERTEX
  8
FOREGROUND
  6
CONTINUOUS
 10
6.321789
 20
1.961872
  0
VERTEX
  8
FOREGROUND
  6
CONTINUOUS
 10
6.314300
 20
1.994378
  0
VERTEX
  8
FOREGROUND
  6
CONTINUOUS
 10
6.306144
 20
2.026623
  0
VERTEX
  8
FOREGROUND
  6
CONTINUOUS
 10
6.297329
 20
2.058599
  0
VERTEX
  8
FOREGROUND
  6
CONTINUOUS
 10
6.287863
 20
2.090300
  0
VERTEX
  8
FOREGROUND
  6
CONTINUOUS
 10
6.277753
 20
2.121718
  0
VERTEX
  8
FOREGROUND
  6
CONTINUOUS
 10
6.267008
 20
2.152844
  0
VERTEX
  8
FOREGROUND
  6
CONTINUOUS
 10
6.255634
 20
2.183671
  0
VERTEX
  8
FOREGROUND
  6
CONTINUOUS
 10
6.243639
 20
2.214192
  0
VERTEX
  8
FOREGROUND
  6
CONTINUOUS
 10
6.231031
 20
2.244398
  0
VERTEX
  8
FOREGROUND
  6
CONTINUOUS
 10
6.217818
 20
2.274283
  0
VERTEX
  8
FOREGROUND
  6
CONTINUOUS
 10
6.204008
 20
2.303838
  0
VERTEX
  8
FOREGROUND
  6
CONTINUOUS
 10
6.189607
 20
2.333056
  0
VERTEX
  8
FOREGROUND
  6
CONTINUOUS
 10
6.174624
 20
2.361930
  0
VERTEX
  8
FOREGROUND
  6
CONTINUOUS
 10
6.159066
 20
2.390450
  0
VERTEX
  8
FOREGROUND
  6
CONTINUOUS
 10
6.142941
 20
2.418611
  0
VERTEX
  8
FOREGROUND
  6
CONTINUOUS
 10
6.126257
 20
2.446404
  0
VERTEX
  8
FOREGROUND
  6
CONTINUOUS
 10
6.109022
 20
2.473822
  0
VERTEX
  8
FOREGROUND
  6
CONTINUOUS
 10
6.091242
 20
2.500856
  0
VERTEX
  8
FOREGROUND
  6
CONTINUOUS
 10
6.072925
 20
2.527500
  0
VERTEX
  8
FOREGROUND
  6
CONTINUOUS
 10
6.054080
 20
2.553745
  0
VERTEX
  8
FOREGROUND
  6
CONTINUOUS
 10
6.034714
 20
2.579584
  0
VERTEX
  8
FOREGROUND
  6
CONTINUOUS
 10
6.014835
 20
2.605010
  0
VERTEX
  8
FOREGROUND
  6
CONTINUOUS
 10
5.994450
 20
2.630014
  0
VERTEX
  8
FOREGROUND
  6
CONTINUOUS
 10
5.973567
 20
2.654589
  0
VERTEX
  8
FOREGROUND
  6
CONTINUOUS
 10
5.952193
 20
2.678728
  0
VERTEX
  8
FOREGROUND
  6
CONTINUOUS
 10
5.930337
 20
2.702422
  0
VERTEX
  8
FOREGROUND
  6
CONTINUOUS
 10
5.908005
 20
2.725665
  0
VERTEX
  8
FOREGROUND
  6
CONTINUOUS
 10
5.885206
 20
2.748447
  0
VERTEX
  8
FOREGROUND
  6
CONTINUOUS
 10
5.861947
 20
2.770763
  0
VERTEX
  8
FOREGROUND
  6
CONTINUOUS
 10
5.838236
 20
2.792603
  0
VERTEX
  8
FOREGROUND
  6
CONTINUOUS
 10
5.814081
 20
2.813961
  0
VERTEX
  8
FOREGROUND
  6
CONTINUOUS
 10
5.789489
 20
2.834829
  0
VERTEX
  8
FOREGROUND
  6
CONTINUOUS
 10
5.764468
 20
2.855198
  0
VERTEX
  8
FOREGROUND
  6
CONTINUOUS
 10
5.739025
 20
2.875063
  0
VERTEX
  8
FOREGROUND
  6
CONTINUOUS
 10
5.713168
 20
2.894414
  0
VERTEX
  8
FOREGROUND
  6
CONTINUOUS
 10
5.686906
 20
2.913244
  0
VERTEX
  8
FOREGROUND
  6
CONTINUOUS
 10
5.660245
 20
2.931545
  0
VERTEX
  8
FOREGROUND
  6
CONTINUOUS
 10
5.633192
 20
2.949311
  0
VERTEX
  8
FOREGROUND
  6
CONTINUOUS
 10
5.605757
 20
2.966532
  0
VERTEX
  8
FOREGROUND
  6
CONTINUOUS
 10
5.577947
 20
2.983202
  0
VERTEX
  8
FOREGROUND
  6
CONTINUOUS
 10
5.549768
 20
2.999313
  0
VERTEX
  8
FOREGROUND
  6
CONTINUOUS
 10
5.521229
 20
3.014858
  0
VERTEX
  8
FOREGROUND
  6
CONTINUOUS
 10
5.492338
 20
3.029827
  0
VERTEX
  8
FOREGROUND
  6
CONTINUOUS
 10
5.463102
 20
3.044215
  0
VERTEX
  8
FOREGROUND
  6
CONTINUOUS
 10
5.433528
 20
3.058013
  0
VERTEX
  8
FOREGROUND
  6
CONTINUOUS
 10
5.403625
 20
3.071213
  0
VERTEX
  8
FOREGROUND
  6
CONTINUOUS
 10
5.373400
 20
3.083809
  0
VERTEX
  8
FOREGROUND
  6
CONTINUOUS
 10
5.342861
 20
3.095792
  0
VERTEX
  8
FOREGROUND
  6
CONTINUOUS
 10
5.312016
 20
3.107154
  0
VERTEX
  8
FOREGROUND
  6
CONTINUOUS
 10
5.280871
 20
3.117888
  0
VERTEX
  8
FOREGROUND
  6
CONTINUOUS
 10
5.249435
 20
3.127987
  0
VERTEX
  8
FOREGROUND
  6
CONTINUOUS
 10
5.217716
 20
3.137442
  0
VERTEX
  8
FOREGROUND
  6
CONTINUOUS
 10
5.185720
 20
3.146246
  0
VERTEX
  8
FOREGROUND
  6
CONTINUOUS
 10
5.153457
 20
3.154392
  0
VERTEX
  8
FOREGROUND
  6
CONTINUOUS
 10
5.120932
 20
3.161871
  0
VERTEX
  8
FOREGROUND
  6
CONTINUOUS
 10
5.088155
 20
3.168676
  0
VERTEX
  8
FOREGROUND
  6
CONTINUOUS
 10
5.055133
 20
3.174800
  0
VERTEX
  8
FOREGROUND
  6
CONTINUOUS
 10
5.021873
 20
3.180235
  0
VERTEX
  8
FOREGROUND
  6
CONTINUOUS
 10
4.988383
 20
3.184972
  0
VERTEX
  8
FOREGROUND
  6
CONTINUOUS
 10
4.954670
 20
3.189005
  0
VERTEX
  8
FOREGROUND
  6
CONTINUOUS
 10
4.920743
 20
3.192326
  0
VERTEX
  8
FOREGROUND
  6
CONTINUOUS
 10
4.886609
 20
3.194927
  0
VERTEX
  8
FOREGROUND
  6
CONTINUOUS
 10
4.852276
 20
3.196800
  0
VERTEX
  8
FOREGROUND
  6
CONTINUOUS
 10
4.817751
 20
3.197938
  0
VERTEX
  8
FOREGROUND
  6
CONTINUOUS
 10
4.783042
 20
3.198333
  0
VERTEX
  8
FOREGROUND
  6
CONTINUOUS
 10
1.624708
 20
3.198333
  0
VERTEX
  8
FOREGROUND
  6
CONTINUOUS
 10
1.590008
 20
3.197925
  0
VERTEX
  8
FOREGROUND
  6
CONTINUOUS
 10
1.555493
 20
3.196775
  0
VERTEX
  8
FOREGROUND
  6
CONTINUOUS
 10
1.521169
 20
3.194890
  0
VERTEX
  8
FOREGROUND
  6
CONTINUOUS
 10
1.487044
 20
3.192278
  0
VERTEX
  8
FOREGROUND
  6
CONTINUOUS
 10
1.453127
 20
3.188946
  0
VERTEX
  8
FOREGROUND
  6
CONTINUOUS
 10
1.419424
 20
3.184903
  0
VERTEX
  8
FOREGROUND
  6
CONTINUOUS
 10
1.385944
 20
3.180155
  0
VERTEX
  8
FOREGROUND
  6
CONTINUOUS
 10
1.352694
 20
3.174711
  0
VERTEX
  8
FOREGROUND
  6
CONTINUOUS
 10
1.319682
 20
3.168578
  0
VERTEX
  8
FOREGROUND
  6
CONTINUOUS
 10
1.286915
 20
3.161764
  0
VERTEX
  8
FOREGROUND
  6
CONTINUOUS
 10
1.254401
 20
3.154276
  0
VERTEX
  8
FOREGROUND
  6
CONTINUOUS
 10
1.222147
 20
3.146122
  0
VERTEX
  8
FOREGROUND
  6
CONTINUOUS
 10
1.190162
 20
3.137310
  0
VERTEX
  8
FOREGROUND
  6
CONTINUOUS
 10
1.158453
 20
3.127848
  0
VERTEX
  8
FOREGROUND
  6
CONTINUOUS
 10
1.127028
 20
3.117742
  0
VERTEX
  8
FOREGROUND
  6
CONTINUOUS
 10
1.095893
 20
3.107002
  0
VERTEX
  8
FOREGROUND
  6
CONTINUOUS
 10
1.065058
 20
3.095633
  0
VERTEX
  8
FOREGROUND
  6
CONTINUOUS
 10
1.034529
 20
3.083645
  0
VERTEX
  8
FOREGROUND
  6
CONTINUOUS
 10
1.004315
 20
3.071044
  0
VERTEX
  8
FOREGROUND
  6
CONTINUOUS
 10
0.974423
 20
3.057838
  0
VERTEX
  8
FOREGROUND
  6
CONTINUOUS
 10
0.944860
 20
3.044036
  0
VERTEX
  8
FOREGROUND
  6
CONTINUOUS
 10
0.915634
 20
3.029644
  0
VERTEX
  8
FOREGROUND
  6
CONTINUOUS
 10
0.886753
 20
3.014670
  0
VERTEX
  8
FOREGROUND
  6
CONTINUOUS
 10
0.858225
 20
2.999123
  0
VERTEX
  8
FOREGROUND
  6
CONTINUOUS
 10
0.830056
 20
2.983008
  0
VERTEX
  8
FOREGROUND
  6
CONTINUOUS
 10
0.802256
 20
2.966335
  0
VERTEX
  8
FOREGROUND
  6
CONTINUOUS
 10
0.774831
 20
2.949111
  0
VERTEX
  8
FOREGROUND
  6
CONTINUOUS
 10
0.747789
 20
2.931344
  0
VERTEX
  8
FOREGROUND
  6
CONTINUOUS
 10
0.721138
 20
2.913040
  0
VERTEX
  8
FOREGROUND
  6
CONTINUOUS
 10
0.694886
 20
2.894208
  0
VERTEX
  8
FOREGROUND
  6
CONTINUOUS
 10
0.669039
 20
2.874856
  0
VERTEX
  8
FOREGROUND
  6
CONTINUOUS
 10
0.643607
 20
2.854991
  0
VERTEX
  8
FOREGROUND
  6
CONTINUOUS
 10
0.618595
 20
2.834621
  0
VERTEX
  8
FOREGROUND
  6
CONTINUOUS
 10
0.594013
 20
2.813753
  0
VERTEX
  8
FOREGROUND
  6
CONTINUOUS
 10
0.569867
 20
2.792395
  0
VERTEX
  8
FOREGROUND
  6
CONTINUOUS
 10
0.546166
 20
2.770555
  0
VERTEX
  8
FOREGROUND
  6
CONTINUOUS
 10
0.522917
 20
2.748240
  0
VERTEX
  8
FOREGROUND
  6
CONTINUOUS
 10
0.500127
 20
2.725459
  0
VERTEX
  8
FOREGROUND
  6
CONTINUOUS
 10
0.477805
 20
2.702217
  0
VERTEX
  8
FOREGROUND
  6
CONTINUOUS
 10
0.455958
 20
2.678525
  0
VERTEX
  8
FOREGROUND
  6
CONTINUOUS
 10
0.434593
 20
2.654388
  0
VERTEX
  8
FOREGROUND
  6
CONTINUOUS
 10
0.413719
 20
2.629815
  0
VERTEX
  8
FOREGROUND
  6
CONTINUOUS
 10
0.393342
 20
2.604813
  0
VERTEX
  8
FOREGROUND
  6
CONTINUOUS
 10
0.373471
 20
2.579390
  0
VERTEX
  8
FOREGROUND
  6
CONTINUOUS
 10
0.354114
 20
2.553554
  0
VERTEX
  8
FOREGROUND
  6
CONTINUOUS
 10
0.335277
 20
2.527311
  0
VERTEX
  8
FOREGROUND
  6
CONTINUOUS
 10
0.316969
 20
2.500671
  0
VERTEX
  8
FOREGROUND
  6
CONTINUOUS
 10
0.299197
 20
2.473640
  0
VERTEX
  8
FOREGROUND
  6
CONTINUOUS
 10
0.281968
 20
2.446227
  0
VERTEX
  8
FOREGROUND
  6
CONTINUOUS
 10
0.265292
 20
2.418438
  0
VERTEX
  8
FOREGROUND
  6
CONTINUOUS
 10
0.249174
 20
2.390282
  0
VERTEX
  8
FOREGROUND
  6
CONTINUOUS
 10
0.233624
 20
2.361766
  0
VERTEX
  8
FOREGROUND
  6
CONTINUOUS
 10
0.218647
 20
2.332897
  0
VERTEX
  8
FOREGROUND
  6
CONTINUOUS
 10
0.204253
 20
2.303684
  0
VERTEX
  8
FOREGROUND
  6
CONTINUOUS
 10
0.190449
 20
2.274134
  0
VERTEX
  8
FOREGROUND
  6
CONTINUOUS
 10
0.177242
 20
2.244255
  0
VERTEX
  8
FOREGROUND
  6
CONTINUOUS
 10
0.164640
 20
2.214054
  0
VERTEX
  8
FOREGROUND
  6
CONTINUOUS
 10
0.152651
 20
2.183540
  0
VERTEX
  8
FOREGROUND
  6
CONTINUOUS
 10
0.141282
 20
2.152719
  0
VERTEX
  8
FOREGROUND
  6
CONTINUOUS
 10
0.130542
 20
2.121599
  0
VERTEX
  8
FOREGROUND
  6
CONTINUOUS
 10
0.120437
 20
2.090188
  0
VERTEX
  8
FOREGROUND
  6
CONTINUOUS
 10
0.110975
 20
2.058494
  0
VERTEX
  8
FOREGROUND
  6
CONTINUOUS
 10
0.102164
 20
2.026525
  0
VERTEX
  8
FOREGROUND
  6
CONTINUOUS
 10
0.094012
 20
1.994287
  0
VERTEX
  8
FOREGROUND
  6
CONTINUOUS
 10
0.086526
 20
1.961788
  0
VERTEX
  8
FOREGROUND
  6
CONTINUOUS
 10
0.079715
 20
1.929037
  0
VERTEX
  8
FOREGROUND
  6
CONTINUOUS
 10
0.073585
 20
1.896041
  0
VERTEX
  8
FOREGROUND
  6
CONTINUOUS
 10
0.068144
 20
1.862808
  0
VERTEX
  8
FOREGROUND
  6
CONTINUOUS
 10
0.063400
 20
1.829344
  0
VERTEX
  8
FOREGROUND
  6
CONTINUOUS
 10
0.059360
 20
1.795659
  0
VERTEX
  8
FOREGROUND
  6
CONTINUOUS
 10
0.056033
 20
1.761759
  0
VERTEX
  8
FOREGROUND
  6
CONTINUOUS
 10
0.053426
 20
1.727652
  0
VERTEX
  8
FOREGROUND
  6
CONTINUOUS
 10
0.051546
 20
1.693346
  0
VERTEX
  8
FOREGROUND
  6
CONTINUOUS
 10
0.050402
 20
1.658848
  0
VERTEX
  8
FOREGROUND
  6
CONTINUOUS
 10
0.050000
 20
1.624167
  0
VERTEX
  8
FOREGROUND
  6
CONTINUOUS
 10
0.050000
 20
1.624167
  0
VERTEX
  8
FOREGROUND
  6
CONTINUOUS
 10
0.050402
 20
1.589481
  0
VERTEX
  8
FOREGROUND
  6
CONTINUOUS
 10
0.051547
 20
1.554978
  0
VERTEX
  8
FOREGROUND
  6
CONTINUOUS
 10
0.053427
 20
1.520668
  0
VERTEX
  8
FOREGROUND
  6
CONTINUOUS
 10
0.056035
 20
1.486557
  0
VERTEX
  8
FOREGROUND
  6
CONTINUOUS
 10
0.059363
 20
1.452653
  0
VERTEX
  8
FOREGROUND
  6
CONTINUOUS
 10
0.063403
 20
1.418963
  0
VERTEX
  8
FOREGROUND
  6
CONTINUOUS
 10
0.068148
 20
1.385495
  0
VERTEX
  8
FOREGROUND
  6
CONTINUOUS
 10
0.073590
 20
1.352258
  0
VERTEX
  8
FOREGROUND
  6
CONTINUOUS
 10
0.079722
 20
1.319258
  0
VERTEX
  8
FOREGROUND
  6
CONTINUOUS
 10
0.086535
 20
1.286503
  0
VERTEX
  8
FOREGROUND
  6
CONTINUOUS
 10
0.094023
 20
1.254001
  0
VERTEX
  8
FOREGROUND
  6
CONTINUOUS
 10
0.102177
 20
1.221760
  0
VERTEX
  8
FOREGROUND
  6
CONTINUOUS
 10
0.110989
 20
1.189786
  0
VERTEX
  8
FOREGROUND
  6
CONTINUOUS
 10
0.120453
 20
1.158089
  0
VERTEX
  8
FOREGROUND
  6
CONTINUOUS
 10
0.130561
 20
1.126675
  0
VERTEX
  8
FOREGROUND
  6
CONTINUOUS
 10
0.141304
 20
1.095552
  0
VERTEX
  8
FOREGROUND
  6
CONTINUOUS
 10
0.152675
 20
1.064728
  0
VERTEX
  8
FOREGROUND
  6
CONTINUOUS
 10
0.164667
 20
1.034210
  0
VERTEX
  8
FOREGROUND
  6
CONTINUOUS
 10
0.177272
 20
1.004006
  0
VERTEX
  8
FOREGROUND
  6
CONTINUOUS
 10
0.190482
 20
0.974124
  0
VERTEX
  8
FOREGROUND
  6
CONTINUOUS
 10
0.204289
 20
0.944572
  0
VERTEX
  8
FOREGROUND
  6
CONTINUOUS
 10
0.218687
 20
0.915356
  0
VERTEX
  8
FOREGROUND
  6
CONTINUOUS
 10
0.233666
 20
0.886486
  0
VERTEX
  8
FOREGROUND
  6
CONTINUOUS
 10
0.249220
 20
0.857967
  0
VERTEX
  8
FOREGROUND
  6
CONTINUOUS
 10
0.265342
 20
0.829809
  0
VERTEX
  8
FOREGROUND
  6
CONTINUOUS
 10
0.282022
 20
0.802018
  0
VERTEX
  8
FOREGROUND
  6
CONTINUOUS
 10
0.299254
 20
0.774602
  0
VERTEX
  8
FOREGROUND
  6
CONTINUOUS
 10
0.317030
 20
0.747570
  0
VERTEX
  8
FOREGROUND
  6
CONTINUOUS
 10
0.335342
 20
0.720928
  0
VERTEX
  8
FOREGROUND
  6
CONTINUOUS
 10
0.354183
 20
0.694684
  0
VERTEX
  8
FOREGROUND
  6
CONTINUOUS
 10
0.373545
 20
0.668846
  0
VERTEX
  8
FOREGROUND
  6
CONTINUOUS
 10
0.393420
 20
0.643422
  0
VERTEX
  8
FOREGROUND
  6
CONTINUOUS
 10
0.413801
 20
0.618419
  0
VERTEX
  8
FOREGROUND
  6
CONTINUOUS
 10
0.434680
 20
0.593844
  0
VERTEX
  8
FOREGROUND
  6
CONTINUOUS
 10
0.456049
 20
0.569707
  0
VERTEX
  8
FOREGROUND
  6
CONTINUOUS
 10
0.477901
 20
0.546013
  0
VERTEX
  8
FOREGROUND
  6
CONTINUOUS
 10
0.500227
 20
0.522771
  0
VERTEX
  8
FOREGROUND
  6
CONTINUOUS
 10
0.523022
 20
0.499989
  0
VERTEX
  8
FOREGROUND
  6
CONTINUOUS
 10
0.546276
 20
0.477674
  0
VERTEX
  8
FOREGROUND
  6
CONTINUOUS
 10
0.569982
 20
0.455834
  0
VERTEX
  8
FOREGROUND
  6
CONTINUOUS
 10
0.594132
 20
0.434476
  0
VERTEX
  8
FOREGROUND
  6
CONTINUOUS
 10
0.618719
 20
0.413608
  0
VERTEX
  8
FOREGROUND
  6
CONTINUOUS
 10
0.643736
 20
0.393238
  0
VERTEX
  8
FOREGROUND
  6
CONTINUOUS
 10
0.669174
 20
0.373374
  0
VERTEX
  8
FOREGROUND
  6
CONTINUOUS
 10
0.695025
 20
0.354022
  0
VERTEX
  8
FOREGROUND
  6
CONTINUOUS
 10
0.721283
 20
0.335191
  0
VERTEX
  8
FOREGROUND
  6
CONTINUOUS
 10
0.747939
 20
0.316889
  0
VERTEX
  8
FOREGROUND
  6
CONTINUOUS
 10
0.774986
 20
0.299122
  0
VERTEX
  8
FOREGROUND
  6
CONTINUOUS
 10
0.802416
 20
0.281899
  0
VERTEX
  8
FOREGROUND
  6
CONTINUOUS
 10
0.830221
 20
0.265228
  0
VERTEX
  8
FOREGROUND
  6
CONTINUOUS
 10
0.858395
 20
0.249115
  0
VERTEX
  8
FOREGROUND
  6
CONTINUOUS
 10
0.886928
 20
0.233569
  0
VERTEX
  8
FOREGROUND
  6
CONTINUOUS
 10
0.915815
 20
0.218597
  0
VERTEX
  8
FOREGROUND
  6
CONTINUOUS
 10
0.945045
 20
0.204208
  0
VERTEX
  8
FOREGROUND
  6
CONTINUOUS
 10
0.974614
 20
0.190407
  0
VERTEX
  8
FOREGROUND
  6
CONTINUOUS
 10
1.004511
 20
0.177204
  0
VERTEX
  8
FOREGROUND
  6
CONTINUOUS
 10
1.034731
 20
0.164606
  0
VERTEX
  8
FOREGROUND
  6
CONTINUOUS
 10
1.065265
 20
0.152621
  0
VERTEX
  8
FOREGROUND
  6
CONTINUOUS
 10
1.096105
 20
0.141255
  0
VERTEX
  8
FOREGROUND
  6
CONTINUOUS
 10
1.127245
 20
0.130518
  0
VERTEX
  8
FOREGROUND
  6
CONTINUOUS
 10
1.158675
 20
0.120416
  0
VERTEX
  8
FOREGROUND
  6
CONTINUOUS
 10
1.190390
 20
0.110957
  0
VERTEX
  8
FOREGROUND
  6
CONTINUOUS
 10
1.222380
 20
0.102149
  0
VERTEX
  8
FOREGROUND
  6
CONTINUOUS
 10
1.254638
 20
0.093999
  0
VERTEX
  8
FOREGROUND
  6
CONTINUOUS
 10
1.287158
 20
0.086516
  0
VERTEX
  8
FOREGROUND
  6
CONTINUOUS
 10
1.319930
 20
0.079706
  0
VERTEX
  8
FOREGROUND
  6
CONTINUOUS
 10
1.352947
 20
0.073578
  0
VERTEX
  8
FOREGROUND
  6
CONTINUOUS
 10
1.386202
 20
0.068138
  0
VERTEX
  8
FOREGROUND
  6
CONTINUOUS
 10
1.419688
 20
0.063396
  0
VERTEX
  8
FOREGROUND
  6
CONTINUOUS
 10
1.453395
 20
0.059358
  0
VERTEX
  8
FOREGROUND
  6
CONTINUOUS
 10
1.487317
 20
0.056031
  0
VERTEX
  8
FOREGROUND
  6
CONTINUOUS
 10
1.521447
 20
0.053425
  0
VERTEX
  8
FOREGROUND
  6
CONTINUOUS
 10
1.555775
 20
0.051546
  0
VERTEX
  8
FOREGROUND
  6
CONTINUOUS
 10
1.590296
 20
0.050402
  0
VERTEX
  8
FOREGROUND
  6
CONTINUOUS
 10
1.625000
 20
0.050000
  0
SEQEND
  8
0
  0
ENDSEC
  0
EOF
