  0
SECTION
  2
HEADER
  9
$ACADVER
  1
AC1006
  9
$EXTMIN
 10
0.000000
 20
0.000000
  9
$EXTMAX
 10
7.975000
 20
4.828333
  9
$LTSCALE
 40
0.166667
  9
$PDMODE
 70
    35
  9
$PDSIZE
 40
0.133333
  0
ENDSEC
  0
SECTION
  2
TABLES
  0
TABLE
  2
LTYPE
 70
     9
  0
LTYPE
  2
CONTINUOUS
 70
    64
  3
Solid line
 72
    65
 73
     0
 40
0.000000
  0
LTYPE
  2
DASHED
 70
    64
  3
__ __ __ __ __ __ __ __ __ __ __ __ __ __ __
 72
    65
 73
     2
 40
0.001250
 49
0.000833
 49
-0.000417
  0
LTYPE
  2
HIDDEN
 70
    64
  3
 _ _ _ _ _ _ _ _ _ _ _ _ _ _ _ _ _ _ _ _ _ _
 72
    65
 73
     2
 40
0.000625
 49
0.000417
 49
-0.000208
  0
LTYPE
  2
CENTER
 70
    64
  3
____ _ ____ _ ____ _ ____ _ ____ _ ____ _ ____
 72
    65
 73
     4
 40
0.003333
 49
0.002083
 49
-0.000417
 49
0.000417
 49
-0.000417
  0
LTYPE
  2
PHANTOM
 70
    64
  3
_____ _ _ _____ _ _ _____ _ _ _____ _ _ ____
 72
    65
 73
     6
 40
0.004167
 49
0.002083
 49
-0.000417
 49
0.000417
 49
-0.000417
 49
0.000417
 49
-0.000417
  0
LTYPE
  2
DOT
 70
    64
  3
...............................................
 72
    65
 73
     2
 40
0.000417
 49
0.000000
 49
-0.000417
  0
LTYPE
  2
DASHDOT
 70
    64
  3
__ . __ . __ . __ . __ . __ . __ . __ . __ . __
 72
    65
 73
     4
 40
0.001667
 49
0.000833
 49
-0.000417
 49
0.000000
 49
-0.000417
  0
LTYPE
  2
BORDER
 70
    64
  3
__ __ . __ __ . __ __ . __ __ . __ __ . __ __
 72
    65
 73
     6
 40
0.002917
 49
0.000833
 49
-0.000417
 49
0.000833
 49
-0.000417
 49
0.000000
 49
-0.000417
  0
LTYPE
  2
DIVIDE
 70
    64
  3
__ . . __ . . __ . . __ . . __ . . __ . . __
 72
    65
 73
     6
 40
0.002083
 49
0.000833
 49
-0.000417
 49
0.000000
 49
-0.000417
 49
0.000000
 49
-0.000417
  0
LTYPE
  2
DOTDOT
 70
    64
  3
 . .  . .  . .  . .  . .  . . 
 72
    65
 73
     5
 40
0.000917
 49
-0.000417
 49
0.000000
 49
-0.000417
 49
0.000000
 49
-0.000417
  0
ENDTAB
  0
TABLE
  2
STYLE
 70
     2
  0
STYLE
 70
     0
  2
SN0
 40
0.000000
 41
0.001667
 50
0.000000
 71
     0
 42
0.000000
  3
ROMAND
  0
STYLE
 70
    68
  2
SV0
 40
0.000000
 41
0.001667
 50
0.000000
 71
     0
 42
0.000000
  3
ROMAND
  0
ENDTAB
  0
TABLE
  2
LAYER
 70
     2
  0
LAYER
  2
FOREGROUND
 70
    64
 62
     7
  6
CONTINUOUS
  0
LAYER
  2
BACKGROUND
 70
    65
 62
    -7
  6
CONTINUOUS
  0
ENDTAB
  0
ENDSEC
  0
SECTION
  2
ENTITIES
  0
POLYLINE
  8
FOREGROUND
  6
CONTINUOUS
 66
     1
 40
0.010000
 41
0.010000
 70
     1
  0
VERTEX
  8
FOREGROUND
  6
CONTINUOUS
 10
5.560000
 20
0.050000
  0
VERTEX
  8
FOREGROUND
  6
CONTINUOUS
 10
5.604940
 20
0.050453
  0
VERTEX
  8
FOREGROUND
  6
CONTINUOUS
 10
5.649676
 20
0.051737
  0
VERTEX
  8
FOREGROUND
  6
CONTINUOUS
 10
5.694200
 20
0.053843
  0
VERTEX
  8
FOREGROUND
  6
CONTINUOUS
 10
5.738506
 20
0.056764
  0
VERTEX
  8
FOREGROUND
  6
CONTINUOUS
 10
5.782584
 20
0.060494
  0
VERTEX
  8
FOREGROUND
  6
CONTINUOUS
 10
5.826430
 20
0.065023
  0
VERTEX
  8
FOREGROUND
  6
CONTINUOUS
 10
5.870034
 20
0.070347
  0
VERTEX
  8
FOREGROUND
  6
CONTINUOUS
 10
5.913390
 20
0.076456
  0
VERTEX
  8
FOREGROUND
  6
CONTINUOUS
 10
5.956490
 20
0.083343
  0
VERTEX
  8
FOREGROUND
  6
CONTINUOUS
 10
5.999327
 20
0.091002
  0
VERTEX
  8
FOREGROUND
  6
CONTINUOUS
 10
6.041893
 20
0.099424
  0
VERTEX
  8
FOREGROUND
  6
CONTINUOUS
 10
6.084181
 20
0.108603
  0
VERTEX
  8
FOREGROUND
  6
CONTINUOUS
 10
6.126184
 20
0.118531
  0
VERTEX
  8
FOREGROUND
  6
CONTINUOUS
 10
6.167895
 20
0.129201
  0
VERTEX
  8
FOREGROUND
  6
CONTINUOUS
 10
6.209306
 20
0.140605
  0
VERTEX
  8
FOREGROUND
  6
CONTINUOUS
 10
6.250409
 20
0.152736
  0
VERTEX
  8
FOREGROUND
  6
CONTINUOUS
 10
6.291197
 20
0.165586
  0
VERTEX
  8
FOREGROUND
  6
CONTINUOUS
 10
6.331664
 20
0.179149
  0
VERTEX
  8
FOREGROUND
  6
CONTINUOUS
 10
6.371800
 20
0.193417
  0
VERTEX
  8
FOREGROUND
  6
CONTINUOUS
 10
6.411601
 20
0.208382
  0
VERTEX
  8
FOREGROUND
  6
CONTINUOUS
 10
6.451057
 20
0.224037
  0
VERTEX
  8
FOREGROUND
  6
CONTINUOUS
 10
6.490161
 20
0.240375
  0
VERTEX
  8
FOREGROUND
  6
CONTINUOUS
 10
6.528906
 20
0.257388
  0
VERTEX
  8
FOREGROUND
  6
CONTINUOUS
 10
6.567286
 20
0.275070
  0
VERTEX
  8
FOREGROUND
  6
CONTINUOUS
 10
6.605291
 20
0.293412
  0
VERTEX
  8
FOREGROUND
  6
CONTINUOUS
 10
6.642916
 20
0.312408
  0
VERTEX
  8
FOREGROUND
  6
CONTINUOUS
 10
6.680152
 20
0.332049
  0
VERTEX
  8
FOREGROUND
  6
CONTINUOUS
 10
6.716992
 20
0.352329
  0
VERTEX
  8
FOREGROUND
  6
CONTINUOUS
 10
6.753429
 20
0.373240
  0
VERTEX
  8
FOREGROUND
  6
CONTINUOUS
 10
6.789456
 20
0.394776
  0
VERTEX
  8
FOREGROUND
  6
CONTINUOUS
 10
6.825065
 20
0.416927
  0
VERTEX
  8
FOREGROUND
  6
CONTINUOUS
 10
6.860249
 20
0.439688
  0
VERTEX
  8
FOREGROUND
  6
CONTINUOUS
 10
6.895000
 20
0.463051
  0
VERTEX
  8
FOREGROUND
  6
CONTINUOUS
 10
6.929311
 20
0.487008
  0
VERTEX
  8
FOREGROUND
  6
CONTINUOUS
 10
6.963175
 20
0.511552
  0
VERTEX
  8
FOREGROUND
  6
CONTINUOUS
 10
6.996584
 20
0.536676
  0
VERTEX
  8
FOREGROUND
  6
CONTINUOUS
 10
7.029531
 20
0.562372
  0
VERTEX
  8
FOREGROUND
  6
CONTINUOUS
 10
7.062009
 20
0.588633
  0
VERTEX
  8
FOREGROUND
  6
CONTINUOUS
 10
7.094010
 20
0.615452
  0
VERTEX
  8
FOREGROUND
  6
CONTINUOUS
 10
7.125527
 20
0.642821
  0
VERTEX
  8
FOREGROUND
  6
CONTINUOUS
 10
7.156552
 20
0.670732
  0
VERTEX
  8
FOREGROUND
  6
CONTINUOUS
 10
7.187079
 20
0.699180
  0
VERTEX
  8
FOREGROUND
  6
CONTINUOUS
 10
7.217099
 20
0.728155
  0
VERTEX
  8
FOREGROUND
  6
CONTINUOUS
 10
7.246606
 20
0.757651
  0
VERTEX
  8
FOREGROUND
  6
CONTINUOUS
 10
7.275592
 20
0.787661
  0
VERTEX
  8
FOREGROUND
  6
CONTINUOUS
 10
7.304049
 20
0.818177
  0
VERTEX
  8
FOREGROUND
  6
CONTINUOUS
 10
7.331970
 20
0.849191
  0
VERTEX
  8
FOREGROUND
  6
CONTINUOUS
 10
7.359349
 20
0.880697
  0
VERTEX
  8
FOREGROUND
  6
CONTINUOUS
 10
7.386177
 20
0.912687
  0
VERTEX
  8
FOREGROUND
  6
CONTINUOUS
 10
7.412448
 20
0.945153
  0
VERTEX
  8
FOREGROUND
  6
CONTINUOUS
 10
7.438153
 20
0.978089
  0
VERTEX
  8
FOREGROUND
  6
CONTINUOUS
 10
7.463285
 20
1.011486
  0
VERTEX
  8
FOREGROUND
  6
CONTINUOUS
 10
7.487838
 20
1.045338
  0
VERTEX
  8
FOREGROUND
  6
CONTINUOUS
 10
7.511804
 20
1.079637
  0
VERTEX
  8
FOREGROUND
  6
CONTINUOUS
 10
7.535174
 20
1.114376
  0
VERTEX
  8
FOREGROUND
  6
CONTINUOUS
 10
7.557943
 20
1.149547
  0
VERTEX
  8
FOREGROUND
  6
CONTINUOUS
 10
7.580103
 20
1.185144
  0
VERTEX
  8
FOREGROUND
  6
CONTINUOUS
 10
7.601646
 20
1.221158
  0
VERTEX
  8
FOREGROUND
  6
CONTINUOUS
 10
7.622564
 20
1.257582
  0
VERTEX
  8
FOREGROUND
  6
CONTINUOUS
 10
7.642852
 20
1.294410
  0
VERTEX
  8
FOREGROUND
  6
CONTINUOUS
 10
7.662500
 20
1.331633
  0
VERTEX
  8
FOREGROUND
  6
CONTINUOUS
 10
7.681502
 20
1.369244
  0
VERTEX
  8
FOREGROUND
  6
CONTINUOUS
 10
7.699851
 20
1.407236
  0
VERTEX
  8
FOREGROUND
  6
CONTINUOUS
 10
7.717539
 20
1.445602
  0
VERTEX
  8
FOREGROUND
  6
CONTINUOUS
 10
7.734558
 20
1.484334
  0
VERTEX
  8
FOREGROUND
  6
CONTINUOUS
 10
7.750902
 20
1.523424
  0
VERTEX
  8
FOREGROUND
  6
CONTINUOUS
 10
7.766563
 20
1.562866
  0
VERTEX
  8
FOREGROUND
  6
CONTINUOUS
 10
7.781533
 20
1.602652
  0
VERTEX
  8
FOREGROUND
  6
CONTINUOUS
 10
7.795806
 20
1.642775
  0
VERTEX
  8
FOREGROUND
  6
CONTINUOUS
 10
7.809373
 20
1.683227
  0
VERTEX
  8
FOREGROUND
  6
CONTINUOUS
 10
7.822228
 20
1.724001
  0
VERTEX
  8
FOREGROUND
  6
CONTINUOUS
 10
7.834363
 20
1.765090
  0
VERTEX
  8
FOREGROUND
  6
CONTINUOUS
 10
7.845771
 20
1.806486
  0
VERTEX
  8
FOREGROUND
  6
CONTINUOUS
 10
7.856445
 20
1.848182
  0
VERTEX
  8
FOREGROUND
  6
CONTINUOUS
 10
7.866376
 20
1.890170
  0
VERTEX
  8
FOREGROUND
  6
CONTINUOUS
 10
7.875558
 20
1.932444
  0
VERTEX
  8
FOREGROUND
  6
CONTINUOUS
 10
7.883984
 20
1.974995
  0
VERTEX
  8
FOREGROUND
  6
CONTINUOUS
 10
7.891645
 20
2.017817
  0
VERTEX
  8
FOREGROUND
  6
CONTINUOUS
 10
7.898535
 20
2.060901
  0
VERTEX
  8
FOREGROUND
  6
CONTINUOUS
 10
7.904646
 20
2.104242
  0
VERTEX
  8
FOREGROUND
  6
CONTINUOUS
 10
7.909971
 20
2.147831
  0
VERTEX
  8
FOREGROUND
  6
CONTINUOUS
 10
7.914503
 20
2.191661
  0
VERTEX
  8
FOREGROUND
  6
CONTINUOUS
 10
7.918233
 20
2.235724
  0
VERTEX
  8
FOREGROUND
  6
CONTINUOUS
 10
7.921156
 20
2.280014
  0
VERTEX
  8
FOREGROUND
  6
CONTINUOUS
 10
7.923263
 20
2.324522
  0
VERTEX
  8
FOREGROUND
  6
CONTINUOUS
 10
7.924546
 20
2.369242
  0
VERTEX
  8
FOREGROUND
  6
CONTINUOUS
 10
7.925000
 20
2.414167
  0
VERTEX
  8
FOREGROUND
  6
CONTINUOUS
 10
7.925000
 20
2.414167
  0
VERTEX
  8
FOREGROUND
  6
CONTINUOUS
 10
7.924546
 20
2.459097
  0
VERTEX
  8
FOREGROUND
  6
CONTINUOUS
 10
7.923262
 20
2.503823
  0
VERTEX
  8
FOREGROUND
  6
CONTINUOUS
 10
7.921155
 20
2.548337
  0
VERTEX
  8
FOREGROUND
  6
CONTINUOUS
 10
7.918232
 20
2.592632
  0
VERTEX
  8
FOREGROUND
  6
CONTINUOUS
 10
7.914500
 20
2.636701
  0
VERTEX
  8
FOREGROUND
  6
CONTINUOUS
 10
7.909968
 20
2.680536
  0
VERTEX
  8
FOREGROUND
  6
CONTINUOUS
 10
7.904641
 20
2.724131
  0
VERTEX
  8
FOREGROUND
  6
CONTINUOUS
 10
7.898529
 20
2.767476
  0
VERTEX
  8
FOREGROUND
  6
CONTINUOUS
 10
7.891637
 20
2.810566
  0
VERTEX
  8
FOREGROUND
  6
CONTINUOUS
 10
7.883974
 20
2.853393
  0
VERTEX
  8
FOREGROUND
  6
CONTINUOUS
 10
7.875546
 20
2.895949
  0
VERTEX
  8
FOREGROUND
  6
CONTINUOUS
 10
7.866362
 20
2.938228
  0
VERTEX
  8
FOREGROUND
  6
CONTINUOUS
 10
7.856428
 20
2.980221
  0
VERTEX
  8
FOREGROUND
  6
CONTINUOUS
 10
7.845752
 20
3.021921
  0
VERTEX
  8
FOREGROUND
  6
CONTINUOUS
 10
7.834341
 20
3.063322
  0
VERTEX
  8
FOREGROUND
  6
CONTINUOUS
 10
7.822203
 20
3.104415
  0
VERTEX
  8
FOREGROUND
  6
CONTINUOUS
 10
7.809345
 20
3.145193
  0
VERTEX
  8
FOREGROUND
  6
CONTINUOUS
 10
7.795775
 20
3.185650
  0
VERTEX
  8
FOREGROUND
  6
CONTINUOUS
 10
7.781499
 20
3.225777
  0
VERTEX
  8
FOREGROUND
  6
CONTINUOUS
 10
7.766525
 20
3.265567
  0
VERTEX
  8
FOREGROUND
  6
CONTINUOUS
 10
7.750860
 20
3.305013
  0
VERTEX
  8
FOREGROUND
  6
CONTINUOUS
 10
7.734513
 20
3.344107
  0
VERTEX
  8
FOREGROUND
  6
CONTINUOUS
 10
7.717489
 20
3.382842
  0
VERTEX
  8
FOREGROUND
  6
CONTINUOUS
 10
7.699798
 20
3.421212
  0
VERTEX
  8
FOREGROUND
  6
CONTINUOUS
 10
7.681445
 20
3.459207
  0
VERTEX
  8
FOREGROUND
  6
CONTINUOUS
 10
7.662438
 20
3.496822
  0
VERTEX
  8
FOREGROUND
  6
CONTINUOUS
 10
7.642785
 20
3.534048
  0
VERTEX
  8
FOREGROUND
  6
CONTINUOUS
 10
7.622494
 20
3.570878
  0
VERTEX
  8
FOREGROUND
  6
CONTINUOUS
 10
7.601570
 20
3.607305
  0
VERTEX
  8
FOREGROUND
  6
CONTINUOUS
 10
7.580023
 20
3.643322
  0
VERTEX
  8
FOREGROUND
  6
CONTINUOUS
 10
7.557858
 20
3.678921
  0
VERTEX
  8
FOREGROUND
  6
CONTINUOUS
 10
7.535084
 20
3.714095
  0
VERTEX
  8
FOREGROUND
  6
CONTINUOUS
 10
7.511708
 20
3.748836
  0
VERTEX
  8
FOREGROUND
  6
CONTINUOUS
 10
7.487738
 20
3.783137
  0
VERTEX
  8
FOREGROUND
  6
CONTINUOUS
 10
7.463180
 20
3.816991
  0
VERTEX
  8
FOREGROUND
  6
CONTINUOUS
 10
7.438041
 20
3.850391
  0
VERTEX
  8
FOREGROUND
  6
CONTINUOUS
 10
7.412331
 20
3.883328
  0
VERTEX
  8
FOREGROUND
  6
CONTINUOUS
 10
7.386055
 20
3.915796
  0
VERTEX
  8
FOREGROUND
  6
CONTINUOUS
 10
7.359221
 20
3.947787
  0
VERTEX
  8
FOREGROUND
  6
CONTINUOUS
 10
7.331837
 20
3.979294
  0
VERTEX
  8
FOREGROUND
  6
CONTINUOUS
 10
7.303909
 20
4.010309
  0
VERTEX
  8
FOREGROUND
  6
CONTINUOUS
 10
7.275446
 20
4.040826
  0
VERTEX
  8
FOREGROUND
  6
CONTINUOUS
 10
7.246454
 20
4.070837
  0
VERTEX
  8
FOREGROUND
  6
CONTINUOUS
 10
7.216941
 20
4.100333
  0
VERTEX
  8
FOREGROUND
  6
CONTINUOUS
 10
7.186915
 20
4.129309
  0
VERTEX
  8
FOREGROUND
  6
CONTINUOUS
 10
7.156382
 20
4.157757
  0
VERTEX
  8
FOREGROUND
  6
CONTINUOUS
 10
7.125351
 20
4.185669
  0
VERTEX
  8
FOREGROUND
  6
CONTINUOUS
 10
7.093828
 20
4.213038
  0
VERTEX
  8
FOREGROUND
  6
CONTINUOUS
 10
7.061820
 20
4.239856
  0
VERTEX
  8
FOREGROUND
  6
CONTINUOUS
 10
7.029336
 20
4.266117
  0
VERTEX
  8
FOREGROUND
  6
CONTINUOUS
 10
6.996382
 20
4.291812
  0
VERTEX
  8
FOREGROUND
  6
CONTINUOUS
 10
6.962967
 20
4.316935
  0
VERTEX
  8
FOREGROUND
  6
CONTINUOUS
 10
6.929096
 20
4.341479
  0
VERTEX
  8
FOREGROUND
  6
CONTINUOUS
 10
6.894778
 20
4.365435
  0
VERTEX
  8
FOREGROUND
  6
CONTINUOUS
 10
6.860021
 20
4.388796
  0
VERTEX
  8
FOREGROUND
  6
CONTINUOUS
 10
6.824830
 20
4.411555
  0
VERTEX
  8
FOREGROUND
  6
CONTINUOUS
 10
6.789215
 20
4.433705
  0
VERTEX
  8
FOREGROUND
  6
CONTINUOUS
 10
6.753181
 20
4.455238
  0
VERTEX
  8
FOREGROUND
  6
CONTINUOUS
 10
6.716737
 20
4.476148
  0
VERTEX
  8
FOREGROUND
  6
CONTINUOUS
 10
6.679890
 20
4.496426
  0
VERTEX
  8
FOREGROUND
  6
CONTINUOUS
 10
6.642647
 20
4.516065
  0
VERTEX
  8
FOREGROUND
  6
CONTINUOUS
 10
6.605016
 20
4.535057
  0
VERTEX
  8
FOREGROUND
  6
CONTINUOUS
 10
6.567003
 20
4.553397
  0
VERTEX
  8
FOREGROUND
  6
CONTINUOUS
 10
6.528618
 20
4.571075
  0
VERTEX
  8
FOREGROUND
  6
CONTINUOUS
 10
6.489865
 20
4.588085
  0
VERTEX
  8
FOREGROUND
  6
CONTINUOUS
 10
6.450754
 20
4.604420
  0
VERTEX
  8
FOREGROUND
  6
CONTINUOUS
 10
6.411291
 20
4.620072
  0
VERTEX
  8
FOREGROUND
  6
CONTINUOUS
 10
6.371485
 20
4.635033
  0
VERTEX
  8
FOREGROUND
  6
CONTINUOUS
 10
6.331341
 20
4.649296
  0
VERTEX
  8
FOREGROUND
  6
CONTINUOUS
 10
6.290868
 20
4.662855
  0
VERTEX
  8
FOREGROUND
  6
CONTINUOUS
 10
6.250073
 20
4.675701
  0
VERTEX
  8
FOREGROUND
  6
CONTINUOUS
 10
6.208963
 20
4.687827
  0
VERTEX
  8
FOREGROUND
  6
CONTINUOUS
 10
6.167546
 20
4.699226
  0
VERTEX
  8
FOREGROUND
  6
CONTINUOUS
 10
6.125828
 20
4.709890
  0
VERTEX
  8
FOREGROUND
  6
CONTINUOUS
 10
6.083819
 20
4.719813
  0
VERTEX
  8
FOREGROUND
  6
CONTINUOUS
 10
6.041524
 20
4.728986
  0
VERTEX
  8
FOREGROUND
  6
CONTINUOUS
 10
5.998951
 20
4.737403
  0
VERTEX
  8
FOREGROUND
  6
CONTINUOUS
 10
5.956108
 20
4.745055
  0
VERTEX
  8
FOREGROUND
  6
CONTINUOUS
 10
5.913001
 20
4.751937
  0
VERTEX
  8
FOREGROUND
  6
CONTINUOUS
 10
5.869639
 20
4.758039
  0
VERTEX
  8
FOREGROUND
  6
CONTINUOUS
 10
5.826028
 20
4.763355
  0
VERTEX
  8
FOREGROUND
  6
CONTINUOUS
 10
5.782177
 20
4.767878
  0
VERTEX
  8
FOREGROUND
  6
CONTINUOUS
 10
5.738092
 20
4.771601
  0
VERTEX
  8
FOREGROUND
  6
CONTINUOUS
 10
5.693780
 20
4.774514
  0
VERTEX
  8
FOREGROUND
  6
CONTINUOUS
 10
5.649250
 20
4.776613
  0
VERTEX
  8
FOREGROUND
  6
CONTINUOUS
 10
5.604508
 20
4.777888
  0
VERTEX
  8
FOREGROUND
  6
CONTINUOUS
 10
5.559562
 20
4.778333
  0
VERTEX
  8
FOREGROUND
  6
CONTINUOUS
 10
2.414562
 20
4.778333
  0
VERTEX
  8
FOREGROUND
  6
CONTINUOUS
 10
2.369628
 20
4.777872
  0
VERTEX
  8
FOREGROUND
  6
CONTINUOUS
 10
2.324898
 20
4.776580
  0
VERTEX
  8
FOREGROUND
  6
CONTINUOUS
 10
2.280380
 20
4.774467
  0
VERTEX
  8
FOREGROUND
  6
CONTINUOUS
 10
2.236081
 20
4.771538
  0
VERTEX
  8
FOREGROUND
  6
CONTINUOUS
 10
2.192008
 20
4.767801
  0
VERTEX
  8
FOREGROUND
  6
CONTINUOUS
 10
2.148169
 20
4.763264
  0
VERTEX
  8
FOREGROUND
  6
CONTINUOUS
 10
2.104571
 20
4.757934
  0
VERTEX
  8
FOREGROUND
  6
CONTINUOUS
 10
2.061222
 20
4.751819
  0
VERTEX
  8
FOREGROUND
  6
CONTINUOUS
 10
2.018128
 20
4.744925
  0
VERTEX
  8
FOREGROUND
  6
CONTINUOUS
 10
1.975298
 20
4.737260
  0
VERTEX
  8
FOREGROUND
  6
CONTINUOUS
 10
1.932738
 20
4.728832
  0
VERTEX
  8
FOREGROUND
  6
CONTINUOUS
 10
1.890456
 20
4.719647
  0
VERTEX
  8
FOREGROUND
  6
CONTINUOUS
 10
1.848460
 20
4.709714
  0
VERTEX
  8
FOREGROUND
  6
CONTINUOUS
 10
1.806756
 20
4.699039
  0
VERTEX
  8
FOREGROUND
  6
CONTINUOUS
 10
1.765352
 20
4.687630
  0
VERTEX
  8
FOREGROUND
  6
CONTINUOUS
 10
1.724255
 20
4.675494
  0
VERTEX
  8
FOREGROUND
  6
CONTINUOUS
 10
1.683474
 20
4.662639
  0
VERTEX
  8
FOREGROUND
  6
CONTINUOUS
 10
1.643014
 20
4.649072
  0
VERTEX
  8
FOREGROUND
  6
CONTINUOUS
 10
1.602884
 20
4.634801
  0
VERTEX
  8
FOREGROUND
  6
CONTINUOUS
 10
1.563090
 20
4.619832
  0
VERTEX
  8
FOREGROUND
  6
CONTINUOUS
 10
1.523641
 20
4.604173
  0
VERTEX
  8
FOREGROUND
  6
CONTINUOUS
 10
1.484544
 20
4.587831
  0
VERTEX
  8
FOREGROUND
  6
CONTINUOUS
 10
1.445805
 20
4.570815
  0
VERTEX
  8
FOREGROUND
  6
CONTINUOUS
 10
1.407433
 20
4.553130
  0
VERTEX
  8
FOREGROUND
  6
CONTINUOUS
 10
1.369434
 20
4.534785
  0
VERTEX
  8
FOREGROUND
  6
CONTINUOUS
 10
1.331816
 20
4.515787
  0
VERTEX
  8
FOREGROUND
  6
CONTINUOUS
 10
1.294587
 20
4.496143
  0
VERTEX
  8
FOREGROUND
  6
CONTINUOUS
 10
1.257753
 20
4.475861
  0
VERTEX
  8
FOREGROUND
  6
CONTINUOUS
 10
1.221323
 20
4.454947
  0
VERTEX
  8
FOREGROUND
  6
CONTINUOUS
 10
1.185302
 20
4.433410
  0
VERTEX
  8
FOREGROUND
  6
CONTINUOUS
 10
1.149700
 20
4.411257
  0
VERTEX
  8
FOREGROUND
  6
CONTINUOUS
 10
1.114523
 20
4.388494
  0
VERTEX
  8
FOREGROUND
  6
CONTINUOUS
 10
1.079779
 20
4.365130
  0
VERTEX
  8
FOREGROUND
  6
CONTINUOUS
 10
1.045474
 20
4.341172
  0
VERTEX
  8
FOREGROUND
  6
CONTINUOUS
 10
1.011617
 20
4.316627
  0
VERTEX
  8
FOREGROUND
  6
CONTINUOUS
 10
0.978214
 20
4.291503
  0
VERTEX
  8
FOREGROUND
  6
CONTINUOUS
 10
0.945273
 20
4.265806
  0
VERTEX
  8
FOREGROUND
  6
CONTINUOUS
 10
0.912802
 20
4.239544
  0
VERTEX
  8
FOREGROUND
  6
CONTINUOUS
 10
0.880807
 20
4.212726
  0
VERTEX
  8
FOREGROUND
  6
CONTINUOUS
 10
0.849297
 20
4.185357
  0
VERTEX
  8
FOREGROUND
  6
CONTINUOUS
 10
0.818278
 20
4.157445
  0
VERTEX
  8
FOREGROUND
  6
CONTINUOUS
 10
0.787757
 20
4.128998
  0
VERTEX
  8
FOREGROUND
  6
CONTINUOUS
 10
0.757743
 20
4.100023
  0
VERTEX
  8
FOREGROUND
  6
CONTINUOUS
 10
0.728243
 20
4.070527
  0
VERTEX
  8
FOREGROUND
  6
CONTINUOUS
 10
0.699263
 20
4.040518
  0
VERTEX
  8
FOREGROUND
  6
CONTINUOUS
 10
0.670812
 20
4.010003
  0
VERTEX
  8
FOREGROUND
  6
CONTINUOUS
 10
0.642896
 20
3.978990
  0
VERTEX
  8
FOREGROUND
  6
CONTINUOUS
 10
0.615523
 20
3.947486
  0
VERTEX
  8
FOREGROUND
  6
CONTINUOUS
 10
0.588701
 20
3.915497
  0
VERTEX
  8
FOREGROUND
  6
CONTINUOUS
 10
0.562436
 20
3.883033
  0
VERTEX
  8
FOREGROUND
  6
CONTINUOUS
 10
0.536736
 20
3.850099
  0
VERTEX
  8
FOREGROUND
  6
CONTINUOUS
 10
0.511609
 20
3.816703
  0
VERTEX
  8
FOREGROUND
  6
CONTINUOUS
 10
0.487062
 20
3.782853
  0
VERTEX
  8
FOREGROUND
  6
CONTINUOUS
 10
0.463101
 20
3.748556
  0
VERTEX
  8
FOREGROUND
  6
CONTINUOUS
 10
0.439736
 20
3.713820
  0
VERTEX
  8
FOREGROUND
  6
CONTINUOUS
 10
0.416972
 20
3.678651
  0
VERTEX
  8
FOREGROUND
  6
CONTINUOUS
 10
0.394817
 20
3.643057
  0
VERTEX
  8
FOREGROUND
  6
CONTINUOUS
 10
0.373279
 20
3.607045
  0
VERTEX
  8
FOREGROUND
  6
CONTINUOUS
 10
0.352365
 20
3.570624
  0
VERTEX
  8
FOREGROUND
  6
CONTINUOUS
 10
0.332082
 20
3.533799
  0
VERTEX
  8
FOREGROUND
  6
CONTINUOUS
 10
0.312438
 20
3.496580
  0
VERTEX
  8
FOREGROUND
  6
CONTINUOUS
 10
0.293441
 20
3.458972
  0
VERTEX
  8
FOREGROUND
  6
CONTINUOUS
 10
0.275096
 20
3.420983
  0
VERTEX
  8
FOREGROUND
  6
CONTINUOUS
 10
0.257412
 20
3.382621
  0
VERTEX
  8
FOREGROUND
  6
CONTINUOUS
 10
0.240397
 20
3.343893
  0
VERTEX
  8
FOREGROUND
  6
CONTINUOUS
 10
0.224057
 20
3.304806
  0
VERTEX
  8
FOREGROUND
  6
CONTINUOUS
 10
0.208400
 20
3.265368
  0
VERTEX
  8
FOREGROUND
  6
CONTINUOUS
 10
0.193433
 20
3.225585
  0
VERTEX
  8
FOREGROUND
  6
CONTINUOUS
 10
0.179164
 20
3.185467
  0
VERTEX
  8
FOREGROUND
  6
CONTINUOUS
 10
0.165599
 20
3.145019
  0
VERTEX
  8
FOREGROUND
  6
CONTINUOUS
 10
0.152747
 20
3.104249
  0
VERTEX
  8
FOREGROUND
  6
CONTINUOUS
 10
0.140615
 20
3.063165
  0
VERTEX
  8
FOREGROUND
  6
CONTINUOUS
 10
0.129210
 20
3.021773
  0
VERTEX
  8
FOREGROUND
  6
CONTINUOUS
 10
0.118539
 20
2.980082
  0
VERTEX
  8
FOREGROUND
  6
CONTINUOUS
 10
0.108610
 20
2.938099
  0
VERTEX
  8
FOREGROUND
  6
CONTINUOUS
 10
0.099430
 20
2.895830
  0
VERTEX
  8
FOREGROUND
  6
CONTINUOUS
 10
0.091007
 20
2.853284
  0
VERTEX
  8
FOREGROUND
  6
CONTINUOUS
 10
0.083347
 20
2.810467
  0
VERTEX
  8
FOREGROUND
  6
CONTINUOUS
 10
0.076459
 20
2.767387
  0
VERTEX
  8
FOREGROUND
  6
CONTINUOUS
 10
0.070349
 20
2.724052
  0
VERTEX
  8
FOREGROUND
  6
CONTINUOUS
 10
0.065025
 20
2.680469
  0
VERTEX
  8
FOREGROUND
  6
CONTINUOUS
 10
0.060495
 20
2.636644
  0
VERTEX
  8
FOREGROUND
  6
CONTINUOUS
 10
0.056765
 20
2.592586
  0
VERTEX
  8
FOREGROUND
  6
CONTINUOUS
 10
0.053843
 20
2.548302
  0
VERTEX
  8
FOREGROUND
  6
CONTINUOUS
 10
0.051737
 20
2.503799
  0
VERTEX
  8
FOREGROUND
  6
CONTINUOUS
 10
0.050453
 20
2.459085
  0
VERTEX
  8
FOREGROUND
  6
CONTINUOUS
 10
0.050000
 20
2.414167
  0
VERTEX
  8
FOREGROUND
  6
CONTINUOUS
 10
0.050000
 20
2.414167
  0
VERTEX
  8
FOREGROUND
  6
CONTINUOUS
 10
0.050453
 20
2.369242
  0
VERTEX
  8
FOREGROUND
  6
CONTINUOUS
 10
0.051737
 20
2.324522
  0
VERTEX
  8
FOREGROUND
  6
CONTINUOUS
 10
0.053844
 20
2.280014
  0
VERTEX
  8
FOREGROUND
  6
CONTINUOUS
 10
0.056767
 20
2.235724
  0
VERTEX
  8
FOREGROUND
  6
CONTINUOUS
 10
0.060497
 20
2.191661
  0
VERTEX
  8
FOREGROUND
  6
CONTINUOUS
 10
0.065029
 20
2.147831
  0
VERTEX
  8
FOREGROUND
  6
CONTINUOUS
 10
0.070354
 20
2.104242
  0
VERTEX
  8
FOREGROUND
  6
CONTINUOUS
 10
0.076465
 20
2.060901
  0
VERTEX
  8
FOREGROUND
  6
CONTINUOUS
 10
0.083355
 20
2.017817
  0
VERTEX
  8
FOREGROUND
  6
CONTINUOUS
 10
0.091016
 20
1.974995
  0
VERTEX
  8
FOREGROUND
  6
CONTINUOUS
 10
0.099442
 20
1.932444
  0
VERTEX
  8
FOREGROUND
  6
CONTINUOUS
 10
0.108624
 20
1.890170
  0
VERTEX
  8
FOREGROUND
  6
CONTINUOUS
 10
0.118555
 20
1.848182
  0
VERTEX
  8
FOREGROUND
  6
CONTINUOUS
 10
0.129229
 20
1.806486
  0
VERTEX
  8
FOREGROUND
  6
CONTINUOUS
 10
0.140637
 20
1.765090
  0
VERTEX
  8
FOREGROUND
  6
CONTINUOUS
 10
0.152772
 20
1.724001
  0
VERTEX
  8
FOREGROUND
  6
CONTINUOUS
 10
0.165627
 20
1.683227
  0
VERTEX
  8
FOREGROUND
  6
CONTINUOUS
 10
0.179194
 20
1.642775
  0
VERTEX
  8
FOREGROUND
  6
CONTINUOUS
 10
0.193467
 20
1.602652
  0
VERTEX
  8
FOREGROUND
  6
CONTINUOUS
 10
0.208437
 20
1.562866
  0
VERTEX
  8
FOREGROUND
  6
CONTINUOUS
 10
0.224098
 20
1.523424
  0
VERTEX
  8
FOREGROUND
  6
CONTINUOUS
 10
0.240442
 20
1.484333
  0
VERTEX
  8
FOREGROUND
  6
CONTINUOUS
 10
0.257461
 20
1.445602
  0
VERTEX
  8
FOREGROUND
  6
CONTINUOUS
 10
0.275149
 20
1.407236
  0
VERTEX
  8
FOREGROUND
  6
CONTINUOUS
 10
0.293498
 20
1.369244
  0
VERTEX
  8
FOREGROUND
  6
CONTINUOUS
 10
0.312500
 20
1.331633
  0
VERTEX
  8
FOREGROUND
  6
CONTINUOUS
 10
0.332148
 20
1.294410
  0
VERTEX
  8
FOREGROUND
  6
CONTINUOUS
 10
0.352436
 20
1.257582
  0
VERTEX
  8
FOREGROUND
  6
CONTINUOUS
 10
0.373354
 20
1.221158
  0
VERTEX
  8
FOREGROUND
  6
CONTINUOUS
 10
0.394897
 20
1.185144
  0
VERTEX
  8
FOREGROUND
  6
CONTINUOUS
 10
0.417056
 20
1.149547
  0
VERTEX
  8
FOREGROUND
  6
CONTINUOUS
 10
0.439825
 20
1.114376
  0
VERTEX
  8
FOREGROUND
  6
CONTINUOUS
 10
0.463196
 20
1.079637
  0
VERTEX
  8
FOREGROUND
  6
CONTINUOUS
 10
0.487162
 20
1.045338
  0
VERTEX
  8
FOREGROUND
  6
CONTINUOUS
 10
0.511714
 20
1.011486
  0
VERTEX
  8
FOREGROUND
  6
CONTINUOUS
 10
0.536847
 20
0.978088
  0
VERTEX
  8
FOREGROUND
  6
CONTINUOUS
 10
0.562552
 20
0.945153
  0
VERTEX
  8
FOREGROUND
  6
CONTINUOUS
 10
0.588823
 20
0.912687
  0
VERTEX
  8
FOREGROUND
  6
CONTINUOUS
 10
0.615651
 20
0.880697
  0
VERTEX
  8
FOREGROUND
  6
CONTINUOUS
 10
0.643029
 20
0.849191
  0
VERTEX
  8
FOREGROUND
  6
CONTINUOUS
 10
0.670951
 20
0.818177
  0
VERTEX
  8
FOREGROUND
  6
CONTINUOUS
 10
0.699408
 20
0.787661
  0
VERTEX
  8
FOREGROUND
  6
CONTINUOUS
 10
0.728394
 20
0.757651
  0
VERTEX
  8
FOREGROUND
  6
CONTINUOUS
 10
0.757901
 20
0.728155
  0
VERTEX
  8
FOREGROUND
  6
CONTINUOUS
 10
0.787921
 20
0.699179
  0
VERTEX
  8
FOREGROUND
  6
CONTINUOUS
 10
0.818447
 20
0.670732
  0
VERTEX
  8
FOREGROUND
  6
CONTINUOUS
 10
0.849473
 20
0.642820
  0
VERTEX
  8
FOREGROUND
  6
CONTINUOUS
 10
0.880990
 20
0.615451
  0
VERTEX
  8
FOREGROUND
  6
CONTINUOUS
 10
0.912991
 20
0.588633
  0
VERTEX
  8
FOREGROUND
  6
CONTINUOUS
 10
0.945468
 20
0.562372
  0
VERTEX
  8
FOREGROUND
  6
CONTINUOUS
 10
0.978416
 20
0.536676
  0
VERTEX
  8
FOREGROUND
  6
CONTINUOUS
 10
1.011825
 20
0.511552
  0
VERTEX
  8
FOREGROUND
  6
CONTINUOUS
 10
1.045689
 20
0.487008
  0
VERTEX
  8
FOREGROUND
  6
CONTINUOUS
 10
1.080000
 20
0.463051
  0
VERTEX
  8
FOREGROUND
  6
CONTINUOUS
 10
1.114751
 20
0.439688
  0
VERTEX
  8
FOREGROUND
  6
CONTINUOUS
 10
1.149935
 20
0.416927
  0
VERTEX
  8
FOREGROUND
  6
CONTINUOUS
 10
1.185544
 20
0.394775
  0
VERTEX
  8
FOREGROUND
  6
CONTINUOUS
 10
1.221571
 20
0.373240
  0
VERTEX
  8
FOREGROUND
  6
CONTINUOUS
 10
1.258008
 20
0.352329
  0
VERTEX
  8
FOREGROUND
  6
CONTINUOUS
 10
1.294848
 20
0.332049
  0
VERTEX
  8
FOREGROUND
  6
CONTINUOUS
 10
1.332084
 20
0.312407
  0
VERTEX
  8
FOREGROUND
  6
CONTINUOUS
 10
1.369709
 20
0.293412
  0
VERTEX
  8
FOREGROUND
  6
CONTINUOUS
 10
1.407714
 20
0.275070
  0
VERTEX
  8
FOREGROUND
  6
CONTINUOUS
 10
1.446094
 20
0.257388
  0
VERTEX
  8
FOREGROUND
  6
CONTINUOUS
 10
1.484839
 20
0.240375
  0
VERTEX
  8
FOREGROUND
  6
CONTINUOUS
 10
1.523943
 20
0.224037
  0
VERTEX
  8
FOREGROUND
  6
CONTINUOUS
 10
1.563399
 20
0.208381
  0
VERTEX
  8
FOREGROUND
  6
CONTINUOUS
 10
1.603199
 20
0.193416
  0
VERTEX
  8
FOREGROUND
  6
CONTINUOUS
 10
1.643336
 20
0.179149
  0
VERTEX
  8
FOREGROUND
  6
CONTINUOUS
 10
1.683803
 20
0.165586
  0
VERTEX
  8
FOREGROUND
  6
CONTINUOUS
 10
1.724591
 20
0.152736
  0
VERTEX
  8
FOREGROUND
  6
CONTINUOUS
 10
1.765694
 20
0.140605
  0
VERTEX
  8
FOREGROUND
  6
CONTINUOUS
 10
1.807105
 20
0.129201
  0
VERTEX
  8
FOREGROUND
  6
CONTINUOUS
 10
1.848815
 20
0.118531
  0
VERTEX
  8
FOREGROUND
  6
CONTINUOUS
 10
1.890819
 20
0.108603
  0
VERTEX
  8
FOREGROUND
  6
CONTINUOUS
 10
1.933107
 20
0.099424
  0
VERTEX
  8
FOREGROUND
  6
CONTINUOUS
 10
1.975673
 20
0.091002
  0
VERTEX
  8
FOREGROUND
  6
CONTINUOUS
 10
2.018510
 20
0.083343
  0
VERTEX
  8
FOREGROUND
  6
CONTINUOUS
 10
2.061610
 20
0.076456
  0
VERTEX
  8
FOREGROUND
  6
CONTINUOUS
 10
2.104966
 20
0.070347
  0
VERTEX
  8
FOREGROUND
  6
CONTINUOUS
 10
2.148570
 20
0.065023
  0
VERTEX
  8
FOREGROUND
  6
CONTINUOUS
 10
2.192415
 20
0.060494
  0
VERTEX
  8
FOREGROUND
  6
CONTINUOUS
 10
2.236494
 20
0.056764
  0
VERTEX
  8
FOREGROUND
  6
CONTINUOUS
 10
2.280800
 20
0.053843
  0
VERTEX
  8
FOREGROUND
  6
CONTINUOUS
 10
2.325324
 20
0.051737
  0
VERTEX
  8
FOREGROUND
  6
CONTINUOUS
 10
2.370060
 20
0.050453
  0
VERTEX
  8
FOREGROUND
  6
CONTINUOUS
 10
2.415000
 20
0.050000
  0
SEQEND
  8
0
  0
ENDSEC
  0
EOF
