  0
SECTION
  2
HEADER
  9
$ACADVER
  1
AC1006
  9
$EXTMIN
 10
0.000000
 20
0.000000
  9
$EXTMAX
 10
7.983333
 20
2.460000
  9
$LTSCALE
 40
0.166667
  9
$PDMODE
 70
    35
  9
$PDSIZE
 40
0.133333
  0
ENDSEC
  0
SECTION
  2
TABLES
  0
TABLE
  2
LTYPE
 70
     9
  0
LTYPE
  2
CONTINUOUS
 70
    64
  3
Solid line
 72
    65
 73
     0
 40
0.000000
  0
LTYPE
  2
DASHED
 70
    64
  3
__ __ __ __ __ __ __ __ __ __ __ __ __ __ __
 72
    65
 73
     2
 40
0.001250
 49
0.000833
 49
-0.000417
  0
LTYPE
  2
HIDDEN
 70
    64
  3
 _ _ _ _ _ _ _ _ _ _ _ _ _ _ _ _ _ _ _ _ _ _
 72
    65
 73
     2
 40
0.000625
 49
0.000417
 49
-0.000208
  0
LTYPE
  2
CENTER
 70
    64
  3
____ _ ____ _ ____ _ ____ _ ____ _ ____ _ ____
 72
    65
 73
     4
 40
0.003333
 49
0.002083
 49
-0.000417
 49
0.000417
 49
-0.000417
  0
LTYPE
  2
PHANTOM
 70
    64
  3
_____ _ _ _____ _ _ _____ _ _ _____ _ _ ____
 72
    65
 73
     6
 40
0.004167
 49
0.002083
 49
-0.000417
 49
0.000417
 49
-0.000417
 49
0.000417
 49
-0.000417
  0
LTYPE
  2
DOT
 70
    64
  3
...............................................
 72
    65
 73
     2
 40
0.000417
 49
0.000000
 49
-0.000417
  0
LTYPE
  2
DASHDOT
 70
    64
  3
__ . __ . __ . __ . __ . __ . __ . __ . __ . __
 72
    65
 73
     4
 40
0.001667
 49
0.000833
 49
-0.000417
 49
0.000000
 49
-0.000417
  0
LTYPE
  2
BORDER
 70
    64
  3
__ __ . __ __ . __ __ . __ __ . __ __ . __ __
 72
    65
 73
     6
 40
0.002917
 49
0.000833
 49
-0.000417
 49
0.000833
 49
-0.000417
 49
0.000000
 49
-0.000417
  0
LTYPE
  2
DIVIDE
 70
    64
  3
__ . . __ . . __ . . __ . . __ . . __ . . __
 72
    65
 73
     6
 40
0.002083
 49
0.000833
 49
-0.000417
 49
0.000000
 49
-0.000417
 49
0.000000
 49
-0.000417
  0
LTYPE
  2
DOTDOT
 70
    64
  3
 . .  . .  . .  . .  . .  . . 
 72
    65
 73
     5
 40
0.000917
 49
-0.000417
 49
0.000000
 49
-0.000417
 49
0.000000
 49
-0.000417
  0
ENDTAB
  0
TABLE
  2
STYLE
 70
     2
  0
STYLE
 70
     0
  2
SN0
 40
0.000000
 41
0.001667
 50
0.000000
 71
     0
 42
0.000000
  3
ROMAND
  0
STYLE
 70
    68
  2
SV0
 40
0.000000
 41
0.001667
 50
0.000000
 71
     0
 42
0.000000
  3
ROMAND
  0
ENDTAB
  0
TABLE
  2
LAYER
 70
     2
  0
LAYER
  2
FOREGROUND
 70
    64
 62
     7
  6
CONTINUOUS
  0
LAYER
  2
BACKGROUND
 70
    65
 62
    -7
  6
CONTINUOUS
  0
ENDTAB
  0
ENDSEC
  0
SECTION
  2
ENTITIES
  0
POLYLINE
  8
FOREGROUND
  6
CONTINUOUS
 66
     1
 40
0.010000
 41
0.010000
 70
     1
  0
VERTEX
  8
FOREGROUND
  6
CONTINUOUS
 10
6.753333
 20
0.050000
  0
VERTEX
  8
FOREGROUND
  6
CONTINUOUS
 10
6.793899
 20
0.050715
  0
VERTEX
  8
FOREGROUND
  6
CONTINUOUS
 10
6.834121
 20
0.052782
  0
VERTEX
  8
FOREGROUND
  6
CONTINUOUS
 10
6.873976
 20
0.056178
  0
VERTEX
  8
FOREGROUND
  6
CONTINUOUS
 10
6.913442
 20
0.060881
  0
VERTEX
  8
FOREGROUND
  6
CONTINUOUS
 10
6.952499
 20
0.066870
  0
VERTEX
  8
FOREGROUND
  6
CONTINUOUS
 10
6.991123
 20
0.074122
  0
VERTEX
  8
FOREGROUND
  6
CONTINUOUS
 10
7.029293
 20
0.082617
  0
VERTEX
  8
FOREGROUND
  6
CONTINUOUS
 10
7.066988
 20
0.092331
  0
VERTEX
  8
FOREGROUND
  6
CONTINUOUS
 10
7.104185
 20
0.103243
  0
VERTEX
  8
FOREGROUND
  6
CONTINUOUS
 10
7.140862
 20
0.115332
  0
VERTEX
  8
FOREGROUND
  6
CONTINUOUS
 10
7.176997
 20
0.128574
  0
VERTEX
  8
FOREGROUND
  6
CONTINUOUS
 10
7.212570
 20
0.142949
  0
VERTEX
  8
FOREGROUND
  6
CONTINUOUS
 10
7.247556
 20
0.158435
  0
VERTEX
  8
FOREGROUND
  6
CONTINUOUS
 10
7.281936
 20
0.175009
  0
VERTEX
  8
FOREGROUND
  6
CONTINUOUS
 10
7.315687
 20
0.192650
  0
VERTEX
  8
FOREGROUND
  6
CONTINUOUS
 10
7.348787
 20
0.211335
  0
VERTEX
  8
FOREGROUND
  6
CONTINUOUS
 10
7.381213
 20
0.231044
  0
VERTEX
  8
FOREGROUND
  6
CONTINUOUS
 10
7.412946
 20
0.251754
  0
VERTEX
  8
FOREGROUND
  6
CONTINUOUS
 10
7.443961
 20
0.273442
  0
VERTEX
  8
FOREGROUND
  6
CONTINUOUS
 10
7.474238
 20
0.296089
  0
VERTEX
  8
FOREGROUND
  6
CONTINUOUS
 10
7.503755
 20
0.319670
  0
VERTEX
  8
FOREGROUND
  6
CONTINUOUS
 10
7.532490
 20
0.344165
  0
VERTEX
  8
FOREGROUND
  6
CONTINUOUS
 10
7.560420
 20
0.369552
  0
VERTEX
  8
FOREGROUND
  6
CONTINUOUS
 10
7.587525
 20
0.395809
  0
VERTEX
  8
FOREGROUND
  6
CONTINUOUS
 10
7.613781
 20
0.422913
  0
VERTEX
  8
FOREGROUND
  6
CONTINUOUS
 10
7.639168
 20
0.450844
  0
VERTEX
  8
FOREGROUND
  6
CONTINUOUS
 10
7.663663
 20
0.479578
  0
VERTEX
  8
FOREGROUND
  6
CONTINUOUS
 10
7.687245
 20
0.509095
  0
VERTEX
  8
FOREGROUND
  6
CONTINUOUS
 10
7.709891
 20
0.539372
  0
VERTEX
  8
FOREGROUND
  6
CONTINUOUS
 10
7.731580
 20
0.570388
  0
VERTEX
  8
FOREGROUND
  6
CONTINUOUS
 10
7.752289
 20
0.602120
  0
VERTEX
  8
FOREGROUND
  6
CONTINUOUS
 10
7.771998
 20
0.634547
  0
VERTEX
  8
FOREGROUND
  6
CONTINUOUS
 10
7.790684
 20
0.667647
  0
VERTEX
  8
FOREGROUND
  6
CONTINUOUS
 10
7.808325
 20
0.701397
  0
VERTEX
  8
FOREGROUND
  6
CONTINUOUS
 10
7.824899
 20
0.735777
  0
VERTEX
  8
FOREGROUND
  6
CONTINUOUS
 10
7.840384
 20
0.770764
  0
VERTEX
  8
FOREGROUND
  6
CONTINUOUS
 10
7.854759
 20
0.806336
  0
VERTEX
  8
FOREGROUND
  6
CONTINUOUS
 10
7.868002
 20
0.842472
  0
VERTEX
  8
FOREGROUND
  6
CONTINUOUS
 10
7.880090
 20
0.879149
  0
VERTEX
  8
FOREGROUND
  6
CONTINUOUS
 10
7.891002
 20
0.916345
  0
VERTEX
  8
FOREGROUND
  6
CONTINUOUS
 10
7.900717
 20
0.954040
  0
VERTEX
  8
FOREGROUND
  6
CONTINUOUS
 10
7.909211
 20
0.992210
  0
VERTEX
  8
FOREGROUND
  6
CONTINUOUS
 10
7.916463
 20
1.030835
  0
VERTEX
  8
FOREGROUND
  6
CONTINUOUS
 10
7.922452
 20
1.069891
  0
VERTEX
  8
FOREGROUND
  6
CONTINUOUS
 10
7.927156
 20
1.109358
  0
VERTEX
  8
FOREGROUND
  6
CONTINUOUS
 10
7.930551
 20
1.149213
  0
VERTEX
  8
FOREGROUND
  6
CONTINUOUS
 10
7.932618
 20
1.189434
  0
VERTEX
  8
FOREGROUND
  6
CONTINUOUS
 10
7.933333
 20
1.230000
  0
VERTEX
  8
FOREGROUND
  6
CONTINUOUS
 10
7.933333
 20
1.230000
  0
VERTEX
  8
FOREGROUND
  6
CONTINUOUS
 10
7.932618
 20
1.270571
  0
VERTEX
  8
FOREGROUND
  6
CONTINUOUS
 10
7.930551
 20
1.310798
  0
VERTEX
  8
FOREGROUND
  6
CONTINUOUS
 10
7.927154
 20
1.350658
  0
VERTEX
  8
FOREGROUND
  6
CONTINUOUS
 10
7.922450
 20
1.390129
  0
VERTEX
  8
FOREGROUND
  6
CONTINUOUS
 10
7.916459
 20
1.429190
  0
VERTEX
  8
FOREGROUND
  6
CONTINUOUS
 10
7.909205
 20
1.467819
  0
VERTEX
  8
FOREGROUND
  6
CONTINUOUS
 10
7.900709
 20
1.505994
  0
VERTEX
  8
FOREGROUND
  6
CONTINUOUS
 10
7.890992
 20
1.543693
  0
VERTEX
  8
FOREGROUND
  6
CONTINUOUS
 10
7.880077
 20
1.580893
  0
VERTEX
  8
FOREGROUND
  6
CONTINUOUS
 10
7.867986
 20
1.617574
  0
VERTEX
  8
FOREGROUND
  6
CONTINUOUS
 10
7.854740
 20
1.653714
  0
VERTEX
  8
FOREGROUND
  6
CONTINUOUS
 10
7.840362
 20
1.689289
  0
VERTEX
  8
FOREGROUND
  6
CONTINUOUS
 10
7.824873
 20
1.724279
  0
VERTEX
  8
FOREGROUND
  6
CONTINUOUS
 10
7.808295
 20
1.758662
  0
VERTEX
  8
FOREGROUND
  6
CONTINUOUS
 10
7.790650
 20
1.792416
  0
VERTEX
  8
FOREGROUND
  6
CONTINUOUS
 10
7.771960
 20
1.825518
  0
VERTEX
  8
FOREGROUND
  6
CONTINUOUS
 10
7.752247
 20
1.857947
  0
VERTEX
  8
FOREGROUND
  6
CONTINUOUS
 10
7.731533
 20
1.889682
  0
VERTEX
  8
FOREGROUND
  6
CONTINUOUS
 10
7.709839
 20
1.920699
  0
VERTEX
  8
FOREGROUND
  6
CONTINUOUS
 10
7.687188
 20
1.950978
  0
VERTEX
  8
FOREGROUND
  6
CONTINUOUS
 10
7.663602
 20
1.980496
  0
VERTEX
  8
FOREGROUND
  6
CONTINUOUS
 10
7.639101
 20
2.009232
  0
VERTEX
  8
FOREGROUND
  6
CONTINUOUS
 10
7.613709
 20
2.037163
  0
VERTEX
  8
FOREGROUND
  6
CONTINUOUS
 10
7.587447
 20
2.064269
  0
VERTEX
  8
FOREGROUND
  6
CONTINUOUS
 10
7.560337
 20
2.090526
  0
VERTEX
  8
FOREGROUND
  6
CONTINUOUS
 10
7.532401
 20
2.115912
  0
VERTEX
  8
FOREGROUND
  6
CONTINUOUS
 10
7.503661
 20
2.140407
  0
VERTEX
  8
FOREGROUND
  6
CONTINUOUS
 10
7.474138
 20
2.163989
  0
VERTEX
  8
FOREGROUND
  6
CONTINUOUS
 10
7.443855
 20
2.186634
  0
VERTEX
  8
FOREGROUND
  6
CONTINUOUS
 10
7.412834
 20
2.208322
  0
VERTEX
  8
FOREGROUND
  6
CONTINUOUS
 10
7.381095
 20
2.229030
  0
VERTEX
  8
FOREGROUND
  6
CONTINUOUS
 10
7.348663
 20
2.248737
  0
VERTEX
  8
FOREGROUND
  6
CONTINUOUS
 10
7.315557
 20
2.267421
  0
VERTEX
  8
FOREGROUND
  6
CONTINUOUS
 10
7.281800
 20
2.285060
  0
VERTEX
  8
FOREGROUND
  6
CONTINUOUS
 10
7.247414
 20
2.301631
  0
VERTEX
  8
FOREGROUND
  6
CONTINUOUS
 10
7.212421
 20
2.317114
  0
VERTEX
  8
FOREGROUND
  6
CONTINUOUS
 10
7.176843
 20
2.331485
  0
VERTEX
  8
FOREGROUND
  6
CONTINUOUS
 10
7.140701
 20
2.344724
  0
VERTEX
  8
FOREGROUND
  6
CONTINUOUS
 10
7.104018
 20
2.356809
  0
VERTEX
  8
FOREGROUND
  6
CONTINUOUS
 10
7.066815
 20
2.367717
  0
VERTEX
  8
FOREGROUND
  6
CONTINUOUS
 10
7.029115
 20
2.377426
  0
VERTEX
  8
FOREGROUND
  6
CONTINUOUS
 10
6.990938
 20
2.385916
  0
VERTEX
  8
FOREGROUND
  6
CONTINUOUS
 10
6.952308
 20
2.393163
  0
VERTEX
  8
FOREGROUND
  6
CONTINUOUS
 10
6.913246
 20
2.399146
  0
VERTEX
  8
FOREGROUND
  6
CONTINUOUS
 10
6.873774
 20
2.403843
  0
VERTEX
  8
FOREGROUND
  6
CONTINUOUS
 10
6.833913
 20
2.407232
  0
VERTEX
  8
FOREGROUND
  6
CONTINUOUS
 10
6.793686
 20
2.409292
  0
VERTEX
  8
FOREGROUND
  6
CONTINUOUS
 10
6.753115
 20
2.410000
  0
VERTEX
  8
FOREGROUND
  6
CONTINUOUS
 10
1.229781
 20
2.410000
  0
VERTEX
  8
FOREGROUND
  6
CONTINUOUS
 10
1.189221
 20
2.409277
  0
VERTEX
  8
FOREGROUND
  6
CONTINUOUS
 10
1.149005
 20
2.407204
  0
VERTEX
  8
FOREGROUND
  6
CONTINUOUS
 10
1.109155
 20
2.403801
  0
VERTEX
  8
FOREGROUND
  6
CONTINUOUS
 10
1.069695
 20
2.399092
  0
VERTEX
  8
FOREGROUND
  6
CONTINUOUS
 10
1.030644
 20
2.393097
  0
VERTEX
  8
FOREGROUND
  6
CONTINUOUS
 10
0.992025
 20
2.385839
  0
VERTEX
  8
FOREGROUND
  6
CONTINUOUS
 10
0.953861
 20
2.377340
  0
VERTEX
  8
FOREGROUND
  6
CONTINUOUS
 10
0.916173
 20
2.367621
  0
VERTEX
  8
FOREGROUND
  6
CONTINUOUS
 10
0.878982
 20
2.356705
  0
VERTEX
  8
FOREGROUND
  6
CONTINUOUS
 10
0.842311
 20
2.344612
  0
VERTEX
  8
FOREGROUND
  6
CONTINUOUS
 10
0.806181
 20
2.331366
  0
VERTEX
  8
FOREGROUND
  6
CONTINUOUS
 10
0.770615
 20
2.316988
  0
VERTEX
  8
FOREGROUND
  6
CONTINUOUS
 10
0.735635
 20
2.301499
  0
VERTEX
  8
FOREGROUND
  6
CONTINUOUS
 10
0.701261
 20
2.284923
  0
VERTEX
  8
FOREGROUND
  6
CONTINUOUS
 10
0.667516
 20
2.267280
  0
VERTEX
  8
FOREGROUND
  6
CONTINUOUS
 10
0.634423
 20
2.248592
  0
VERTEX
  8
FOREGROUND
  6
CONTINUOUS
 10
0.602002
 20
2.228882
  0
VERTEX
  8
FOREGROUND
  6
CONTINUOUS
 10
0.570276
 20
2.208171
  0
VERTEX
  8
FOREGROUND
  6
CONTINUOUS
 10
0.539266
 20
2.186481
  0
VERTEX
  8
FOREGROUND
  6
CONTINUOUS
 10
0.508995
 20
2.163834
  0
VERTEX
  8
FOREGROUND
  6
CONTINUOUS
 10
0.479484
 20
2.140252
  0
VERTEX
  8
FOREGROUND
  6
CONTINUOUS
 10
0.450755
 20
2.115757
  0
VERTEX
  8
FOREGROUND
  6
CONTINUOUS
 10
0.422830
 20
2.090370
  0
VERTEX
  8
FOREGROUND
  6
CONTINUOUS
 10
0.395731
 20
2.064114
  0
VERTEX
  8
FOREGROUND
  6
CONTINUOUS
 10
0.369480
 20
2.037010
  0
VERTEX
  8
FOREGROUND
  6
CONTINUOUS
 10
0.344099
 20
2.009081
  0
VERTEX
  8
FOREGROUND
  6
CONTINUOUS
 10
0.319609
 20
1.980347
  0
VERTEX
  8
FOREGROUND
  6
CONTINUOUS
 10
0.296032
 20
1.950832
  0
VERTEX
  8
FOREGROUND
  6
CONTINUOUS
 10
0.273391
 20
1.920557
  0
VERTEX
  8
FOREGROUND
  6
CONTINUOUS
 10
0.251707
 20
1.889543
  0
VERTEX
  8
FOREGROUND
  6
CONTINUOUS
 10
0.231002
 20
1.857813
  0
VERTEX
  8
FOREGROUND
  6
CONTINUOUS
 10
0.211298
 20
1.825388
  0
VERTEX
  8
FOREGROUND
  6
CONTINUOUS
 10
0.192616
 20
1.792291
  0
VERTEX
  8
FOREGROUND
  6
CONTINUOUS
 10
0.174979
 20
1.758543
  0
VERTEX
  8
FOREGROUND
  6
CONTINUOUS
 10
0.158409
 20
1.724167
  0
VERTEX
  8
FOREGROUND
  6
CONTINUOUS
 10
0.142927
 20
1.689183
  0
VERTEX
  8
FOREGROUND
  6
CONTINUOUS
 10
0.128555
 20
1.653614
  0
VERTEX
  8
FOREGROUND
  6
CONTINUOUS
 10
0.115316
 20
1.617483
  0
VERTEX
  8
FOREGROUND
  6
CONTINUOUS
 10
0.103230
 20
1.580809
  0
VERTEX
  8
FOREGROUND
  6
CONTINUOUS
 10
0.092321
 20
1.543617
  0
VERTEX
  8
FOREGROUND
  6
CONTINUOUS
 10
0.082609
 20
1.505926
  0
VERTEX
  8
FOREGROUND
  6
CONTINUOUS
 10
0.074117
 20
1.467760
  0
VERTEX
  8
FOREGROUND
  6
CONTINUOUS
 10
0.066866
 20
1.429141
  0
VERTEX
  8
FOREGROUND
  6
CONTINUOUS
 10
0.060878
 20
1.390089
  0
VERTEX
  8
FOREGROUND
  6
CONTINUOUS
 10
0.056176
 20
1.350627
  0
VERTEX
  8
FOREGROUND
  6
CONTINUOUS
 10
0.052781
 20
1.310777
  0
VERTEX
  8
FOREGROUND
  6
CONTINUOUS
 10
0.050715
 20
1.270561
  0
VERTEX
  8
FOREGROUND
  6
CONTINUOUS
 10
0.050000
 20
1.230000
  0
VERTEX
  8
FOREGROUND
  6
CONTINUOUS
 10
0.050000
 20
1.230000
  0
VERTEX
  8
FOREGROUND
  6
CONTINUOUS
 10
0.050715
 20
1.189434
  0
VERTEX
  8
FOREGROUND
  6
CONTINUOUS
 10
0.052782
 20
1.149213
  0
VERTEX
  8
FOREGROUND
  6
CONTINUOUS
 10
0.056178
 20
1.109358
  0
VERTEX
  8
FOREGROUND
  6
CONTINUOUS
 10
0.060881
 20
1.069891
  0
VERTEX
  8
FOREGROUND
  6
CONTINUOUS
 10
0.066870
 20
1.030835
  0
VERTEX
  8
FOREGROUND
  6
CONTINUOUS
 10
0.074122
 20
0.992210
  0
VERTEX
  8
FOREGROUND
  6
CONTINUOUS
 10
0.082617
 20
0.954040
  0
VERTEX
  8
FOREGROUND
  6
CONTINUOUS
 10
0.092331
 20
0.916345
  0
VERTEX
  8
FOREGROUND
  6
CONTINUOUS
 10
0.103243
 20
0.879149
  0
VERTEX
  8
FOREGROUND
  6
CONTINUOUS
 10
0.115332
 20
0.842472
  0
VERTEX
  8
FOREGROUND
  6
CONTINUOUS
 10
0.128574
 20
0.806336
  0
VERTEX
  8
FOREGROUND
  6
CONTINUOUS
 10
0.142949
 20
0.770764
  0
VERTEX
  8
FOREGROUND
  6
CONTINUOUS
 10
0.158435
 20
0.735777
  0
VERTEX
  8
FOREGROUND
  6
CONTINUOUS
 10
0.175009
 20
0.701397
  0
VERTEX
  8
FOREGROUND
  6
CONTINUOUS
 10
0.192650
 20
0.667647
  0
VERTEX
  8
FOREGROUND
  6
CONTINUOUS
 10
0.211335
 20
0.634547
  0
VERTEX
  8
FOREGROUND
  6
CONTINUOUS
 10
0.231044
 20
0.602120
  0
VERTEX
  8
FOREGROUND
  6
CONTINUOUS
 10
0.251754
 20
0.570388
  0
VERTEX
  8
FOREGROUND
  6
CONTINUOUS
 10
0.273442
 20
0.539372
  0
VERTEX
  8
FOREGROUND
  6
CONTINUOUS
 10
0.296089
 20
0.509095
  0
VERTEX
  8
FOREGROUND
  6
CONTINUOUS
 10
0.319670
 20
0.479578
  0
VERTEX
  8
FOREGROUND
  6
CONTINUOUS
 10
0.344165
 20
0.450844
  0
VERTEX
  8
FOREGROUND
  6
CONTINUOUS
 10
0.369552
 20
0.422913
  0
VERTEX
  8
FOREGROUND
  6
CONTINUOUS
 10
0.395809
 20
0.395809
  0
VERTEX
  8
FOREGROUND
  6
CONTINUOUS
 10
0.422913
 20
0.369552
  0
VERTEX
  8
FOREGROUND
  6
CONTINUOUS
 10
0.450844
 20
0.344165
  0
VERTEX
  8
FOREGROUND
  6
CONTINUOUS
 10
0.479578
 20
0.319670
  0
VERTEX
  8
FOREGROUND
  6
CONTINUOUS
 10
0.509095
 20
0.296089
  0
VERTEX
  8
FOREGROUND
  6
CONTINUOUS
 10
0.539372
 20
0.273442
  0
VERTEX
  8
FOREGROUND
  6
CONTINUOUS
 10
0.570388
 20
0.251754
  0
VERTEX
  8
FOREGROUND
  6
CONTINUOUS
 10
0.602120
 20
0.231044
  0
VERTEX
  8
FOREGROUND
  6
CONTINUOUS
 10
0.634547
 20
0.211335
  0
VERTEX
  8
FOREGROUND
  6
CONTINUOUS
 10
0.667647
 20
0.192650
  0
VERTEX
  8
FOREGROUND
  6
CONTINUOUS
 10
0.701397
 20
0.175009
  0
VERTEX
  8
FOREGROUND
  6
CONTINUOUS
 10
0.735777
 20
0.158435
  0
VERTEX
  8
FOREGROUND
  6
CONTINUOUS
 10
0.770764
 20
0.142949
  0
VERTEX
  8
FOREGROUND
  6
CONTINUOUS
 10
0.806336
 20
0.128574
  0
VERTEX
  8
FOREGROUND
  6
CONTINUOUS
 10
0.842472
 20
0.115332
  0
VERTEX
  8
FOREGROUND
  6
CONTINUOUS
 10
0.879149
 20
0.103243
  0
VERTEX
  8
FOREGROUND
  6
CONTINUOUS
 10
0.916345
 20
0.092331
  0
VERTEX
  8
FOREGROUND
  6
CONTINUOUS
 10
0.954040
 20
0.082617
  0
VERTEX
  8
FOREGROUND
  6
CONTINUOUS
 10
0.992210
 20
0.074122
  0
VERTEX
  8
FOREGROUND
  6
CONTINUOUS
 10
1.030835
 20
0.066870
  0
VERTEX
  8
FOREGROUND
  6
CONTINUOUS
 10
1.069891
 20
0.060881
  0
VERTEX
  8
FOREGROUND
  6
CONTINUOUS
 10
1.109358
 20
0.056178
  0
VERTEX
  8
FOREGROUND
  6
CONTINUOUS
 10
1.149213
 20
0.052782
  0
VERTEX
  8
FOREGROUND
  6
CONTINUOUS
 10
1.189434
 20
0.050715
  0
VERTEX
  8
FOREGROUND
  6
CONTINUOUS
 10
1.230000
 20
0.050000
  0
SEQEND
  8
0
  0
ENDSEC
  0
EOF
