  0
SECTION
  2
HEADER
  9
$ACADVER
  1
AC1006
  9
$EXTMIN
 10
0.000000
 20
0.000000
  9
$EXTMAX
 10
7.975000
 20
3.253333
  9
$LTSCALE
 40
0.166667
  9
$PDMODE
 70
    35
  9
$PDSIZE
 40
0.133333
  0
ENDSEC
  0
SECTION
  2
TABLES
  0
TABLE
  2
LTYPE
 70
     9
  0
LTYPE
  2
CONTINUOUS
 70
    64
  3
Solid line
 72
    65
 73
     0
 40
0.000000
  0
LTYPE
  2
DASHED
 70
    64
  3
__ __ __ __ __ __ __ __ __ __ __ __ __ __ __
 72
    65
 73
     2
 40
0.001250
 49
0.000833
 49
-0.000417
  0
LTYPE
  2
HIDDEN
 70
    64
  3
 _ _ _ _ _ _ _ _ _ _ _ _ _ _ _ _ _ _ _ _ _ _
 72
    65
 73
     2
 40
0.000625
 49
0.000417
 49
-0.000208
  0
LTYPE
  2
CENTER
 70
    64
  3
____ _ ____ _ ____ _ ____ _ ____ _ ____ _ ____
 72
    65
 73
     4
 40
0.003333
 49
0.002083
 49
-0.000417
 49
0.000417
 49
-0.000417
  0
LTYPE
  2
PHANTOM
 70
    64
  3
_____ _ _ _____ _ _ _____ _ _ _____ _ _ ____
 72
    65
 73
     6
 40
0.004167
 49
0.002083
 49
-0.000417
 49
0.000417
 49
-0.000417
 49
0.000417
 49
-0.000417
  0
LTYPE
  2
DOT
 70
    64
  3
...............................................
 72
    65
 73
     2
 40
0.000417
 49
0.000000
 49
-0.000417
  0
LTYPE
  2
DASHDOT
 70
    64
  3
__ . __ . __ . __ . __ . __ . __ . __ . __ . __
 72
    65
 73
     4
 40
0.001667
 49
0.000833
 49
-0.000417
 49
0.000000
 49
-0.000417
  0
LTYPE
  2
BORDER
 70
    64
  3
__ __ . __ __ . __ __ . __ __ . __ __ . __ __
 72
    65
 73
     6
 40
0.002917
 49
0.000833
 49
-0.000417
 49
0.000833
 49
-0.000417
 49
0.000000
 49
-0.000417
  0
LTYPE
  2
DIVIDE
 70
    64
  3
__ . . __ . . __ . . __ . . __ . . __ . . __
 72
    65
 73
     6
 40
0.002083
 49
0.000833
 49
-0.000417
 49
0.000000
 49
-0.000417
 49
0.000000
 49
-0.000417
  0
LTYPE
  2
DOTDOT
 70
    64
  3
 . .  . .  . .  . .  . .  . . 
 72
    65
 73
     5
 40
0.000917
 49
-0.000417
 49
0.000000
 49
-0.000417
 49
0.000000
 49
-0.000417
  0
ENDTAB
  0
TABLE
  2
STYLE
 70
     2
  0
STYLE
 70
     0
  2
SN0
 40
0.000000
 41
0.001667
 50
0.000000
 71
     0
 42
0.000000
  3
ROMAND
  0
STYLE
 70
    68
  2
SV0
 40
0.000000
 41
0.001667
 50
0.000000
 71
     0
 42
0.000000
  3
ROMAND
  0
ENDTAB
  0
TABLE
  2
LAYER
 70
     2
  0
LAYER
  2
FOREGROUND
 70
    64
 62
     7
  6
CONTINUOUS
  0
LAYER
  2
BACKGROUND
 70
    65
 62
    -7
  6
CONTINUOUS
  0
ENDTAB
  0
ENDSEC
  0
SECTION
  2
ENTITIES
  0
POLYLINE
  8
FOREGROUND
  6
CONTINUOUS
 66
     1
 40
0.010000
 41
0.010000
 70
     1
  0
VERTEX
  8
FOREGROUND
  6
CONTINUOUS
 10
6.348333
 20
0.050000
  0
VERTEX
  8
FOREGROUND
  6
CONTINUOUS
 10
6.390336
 20
0.050581
  0
VERTEX
  8
FOREGROUND
  6
CONTINUOUS
 10
6.432066
 20
0.052248
  0
VERTEX
  8
FOREGROUND
  6
CONTINUOUS
 10
6.473511
 20
0.054988
  0
VERTEX
  8
FOREGROUND
  6
CONTINUOUS
 10
6.514657
 20
0.058787
  0
VERTEX
  8
FOREGROUND
  6
CONTINUOUS
 10
6.555490
 20
0.063631
  0
VERTEX
  8
FOREGROUND
  6
CONTINUOUS
 10
6.595997
 20
0.069507
  0
VERTEX
  8
FOREGROUND
  6
CONTINUOUS
 10
6.636164
 20
0.076401
  0
VERTEX
  8
FOREGROUND
  6
CONTINUOUS
 10
6.675978
 20
0.084300
  0
VERTEX
  8
FOREGROUND
  6
CONTINUOUS
 10
6.715424
 20
0.093189
  0
VERTEX
  8
FOREGROUND
  6
CONTINUOUS
 10
6.754490
 20
0.103057
  0
VERTEX
  8
FOREGROUND
  6
CONTINUOUS
 10
6.793162
 20
0.113888
  0
VERTEX
  8
FOREGROUND
  6
CONTINUOUS
 10
6.831427
 20
0.125670
  0
VERTEX
  8
FOREGROUND
  6
CONTINUOUS
 10
6.869270
 20
0.138389
  0
VERTEX
  8
FOREGROUND
  6
CONTINUOUS
 10
6.906678
 20
0.152031
  0
VERTEX
  8
FOREGROUND
  6
CONTINUOUS
 10
6.943638
 20
0.166582
  0
VERTEX
  8
FOREGROUND
  6
CONTINUOUS
 10
6.980136
 20
0.182030
  0
VERTEX
  8
FOREGROUND
  6
CONTINUOUS
 10
7.016158
 20
0.198360
  0
VERTEX
  8
FOREGROUND
  6
CONTINUOUS
 10
7.051692
 20
0.215559
  0
VERTEX
  8
FOREGROUND
  6
CONTINUOUS
 10
7.086722
 20
0.233614
  0
VERTEX
  8
FOREGROUND
  6
CONTINUOUS
 10
7.121237
 20
0.252511
  0
VERTEX
  8
FOREGROUND
  6
CONTINUOUS
 10
7.155221
 20
0.272236
  0
VERTEX
  8
FOREGROUND
  6
CONTINUOUS
 10
7.188663
 20
0.292775
  0
VERTEX
  8
FOREGROUND
  6
CONTINUOUS
 10
7.221547
 20
0.314116
  0
VERTEX
  8
FOREGROUND
  6
CONTINUOUS
 10
7.253861
 20
0.336244
  0
VERTEX
  8
FOREGROUND
  6
CONTINUOUS
 10
7.285591
 20
0.359147
  0
VERTEX
  8
FOREGROUND
  6
CONTINUOUS
 10
7.316723
 20
0.382809
  0
VERTEX
  8
FOREGROUND
  6
CONTINUOUS
 10
7.347244
 20
0.407219
  0
VERTEX
  8
FOREGROUND
  6
CONTINUOUS
 10
7.377140
 20
0.432362
  0
VERTEX
  8
FOREGROUND
  6
CONTINUOUS
 10
7.406398
 20
0.458225
  0
VERTEX
  8
FOREGROUND
  6
CONTINUOUS
 10
7.435004
 20
0.484794
  0
VERTEX
  8
FOREGROUND
  6
CONTINUOUS
 10
7.462945
 20
0.512055
  0
VERTEX
  8
FOREGROUND
  6
CONTINUOUS
 10
7.490206
 20
0.539996
  0
VERTEX
  8
FOREGROUND
  6
CONTINUOUS
 10
7.516775
 20
0.568602
  0
VERTEX
  8
FOREGROUND
  6
CONTINUOUS
 10
7.542638
 20
0.597860
  0
VERTEX
  8
FOREGROUND
  6
CONTINUOUS
 10
7.567781
 20
0.627756
  0
VERTEX
  8
FOREGROUND
  6
CONTINUOUS
 10
7.592191
 20
0.658277
  0
VERTEX
  8
FOREGROUND
  6
CONTINUOUS
 10
7.615853
 20
0.689409
  0
VERTEX
  8
FOREGROUND
  6
CONTINUOUS
 10
7.638756
 20
0.721139
  0
VERTEX
  8
FOREGROUND
  6
CONTINUOUS
 10
7.660884
 20
0.753453
  0
VERTEX
  8
FOREGROUND
  6
CONTINUOUS
 10
7.682225
 20
0.786337
  0
VERTEX
  8
FOREGROUND
  6
CONTINUOUS
 10
7.702764
 20
0.819779
  0
VERTEX
  8
FOREGROUND
  6
CONTINUOUS
 10
7.722489
 20
0.853763
  0
VERTEX
  8
FOREGROUND
  6
CONTINUOUS
 10
7.741386
 20
0.888278
  0
VERTEX
  8
FOREGROUND
  6
CONTINUOUS
 10
7.759441
 20
0.923308
  0
VERTEX
  8
FOREGROUND
  6
CONTINUOUS
 10
7.776640
 20
0.958842
  0
VERTEX
  8
FOREGROUND
  6
CONTINUOUS
 10
7.792970
 20
0.994864
  0
VERTEX
  8
FOREGROUND
  6
CONTINUOUS
 10
7.808418
 20
1.031362
  0
VERTEX
  8
FOREGROUND
  6
CONTINUOUS
 10
7.822969
 20
1.068322
  0
VERTEX
  8
FOREGROUND
  6
CONTINUOUS
 10
7.836611
 20
1.105730
  0
VERTEX
  8
FOREGROUND
  6
CONTINUOUS
 10
7.849330
 20
1.143573
  0
VERTEX
  8
FOREGROUND
  6
CONTINUOUS
 10
7.861112
 20
1.181838
  0
VERTEX
  8
FOREGROUND
  6
CONTINUOUS
 10
7.871943
 20
1.220510
  0
VERTEX
  8
FOREGROUND
  6
CONTINUOUS
 10
7.881811
 20
1.259576
  0
VERTEX
  8
FOREGROUND
  6
CONTINUOUS
 10
7.890700
 20
1.299022
  0
VERTEX
  8
FOREGROUND
  6
CONTINUOUS
 10
7.898599
 20
1.338836
  0
VERTEX
  8
FOREGROUND
  6
CONTINUOUS
 10
7.905493
 20
1.379003
  0
VERTEX
  8
FOREGROUND
  6
CONTINUOUS
 10
7.911369
 20
1.419510
  0
VERTEX
  8
FOREGROUND
  6
CONTINUOUS
 10
7.916213
 20
1.460343
  0
VERTEX
  8
FOREGROUND
  6
CONTINUOUS
 10
7.920012
 20
1.501489
  0
VERTEX
  8
FOREGROUND
  6
CONTINUOUS
 10
7.922752
 20
1.542934
  0
VERTEX
  8
FOREGROUND
  6
CONTINUOUS
 10
7.924419
 20
1.584664
  0
VERTEX
  8
FOREGROUND
  6
CONTINUOUS
 10
7.925000
 20
1.626667
  0
VERTEX
  8
FOREGROUND
  6
CONTINUOUS
 10
7.925000
 20
1.626667
  0
VERTEX
  8
FOREGROUND
  6
CONTINUOUS
 10
7.924419
 20
1.668675
  0
VERTEX
  8
FOREGROUND
  6
CONTINUOUS
 10
7.922751
 20
1.710410
  0
VERTEX
  8
FOREGROUND
  6
CONTINUOUS
 10
7.920011
 20
1.751861
  0
VERTEX
  8
FOREGROUND
  6
CONTINUOUS
 10
7.916211
 20
1.793012
  0
VERTEX
  8
FOREGROUND
  6
CONTINUOUS
 10
7.911366
 20
1.833850
  0
VERTEX
  8
FOREGROUND
  6
CONTINUOUS
 10
7.905489
 20
1.874361
  0
VERTEX
  8
FOREGROUND
  6
CONTINUOUS
 10
7.898593
 20
1.914533
  0
VERTEX
  8
FOREGROUND
  6
CONTINUOUS
 10
7.890692
 20
1.954352
  0
VERTEX
  8
FOREGROUND
  6
CONTINUOUS
 10
7.881800
 20
1.993803
  0
VERTEX
  8
FOREGROUND
  6
CONTINUOUS
 10
7.871930
 20
2.032873
  0
VERTEX
  8
FOREGROUND
  6
CONTINUOUS
 10
7.861096
 20
2.071549
  0
VERTEX
  8
FOREGROUND
  6
CONTINUOUS
 10
7.849312
 20
2.109818
  0
VERTEX
  8
FOREGROUND
  6
CONTINUOUS
 10
7.836590
 20
2.147665
  0
VERTEX
  8
FOREGROUND
  6
CONTINUOUS
 10
7.822945
 20
2.185077
  0
VERTEX
  8
FOREGROUND
  6
CONTINUOUS
 10
7.808390
 20
2.222040
  0
VERTEX
  8
FOREGROUND
  6
CONTINUOUS
 10
7.792939
 20
2.258542
  0
VERTEX
  8
FOREGROUND
  6
CONTINUOUS
 10
7.776605
 20
2.294568
  0
VERTEX
  8
FOREGROUND
  6
CONTINUOUS
 10
7.759401
 20
2.330104
  0
VERTEX
  8
FOREGROUND
  6
CONTINUOUS
 10
7.741343
 20
2.365138
  0
VERTEX
  8
FOREGROUND
  6
CONTINUOUS
 10
7.722442
 20
2.399655
  0
VERTEX
  8
FOREGROUND
  6
CONTINUOUS
 10
7.702712
 20
2.433642
  0
VERTEX
  8
FOREGROUND
  6
CONTINUOUS
 10
7.682168
 20
2.467086
  0
VERTEX
  8
FOREGROUND
  6
CONTINUOUS
 10
7.660823
 20
2.499973
  0
VERTEX
  8
FOREGROUND
  6
CONTINUOUS
 10
7.638690
 20
2.532289
  0
VERTEX
  8
FOREGROUND
  6
CONTINUOUS
 10
7.615782
 20
2.564020
  0
VERTEX
  8
FOREGROUND
  6
CONTINUOUS
 10
7.592115
 20
2.595154
  0
VERTEX
  8
FOREGROUND
  6
CONTINUOUS
 10
7.567700
 20
2.625677
  0
VERTEX
  8
FOREGROUND
  6
CONTINUOUS
 10
7.542551
 20
2.655574
  0
VERTEX
  8
FOREGROUND
  6
CONTINUOUS
 10
7.516683
 20
2.684833
  0
VERTEX
  8
FOREGROUND
  6
CONTINUOUS
 10
7.490109
 20
2.713440
  0
VERTEX
  8
FOREGROUND
  6
CONTINUOUS
 10
7.462842
 20
2.741381
  0
VERTEX
  8
FOREGROUND
  6
CONTINUOUS
 10
7.434895
 20
2.768643
  0
VERTEX
  8
FOREGROUND
  6
CONTINUOUS
 10
7.406284
 20
2.795213
  0
VERTEX
  8
FOREGROUND
  6
CONTINUOUS
 10
7.377020
 20
2.821075
  0
VERTEX
  8
FOREGROUND
  6
CONTINUOUS
 10
7.347118
 20
2.846218
  0
VERTEX
  8
FOREGROUND
  6
CONTINUOUS
 10
7.316590
 20
2.870627
  0
VERTEX
  8
FOREGROUND
  6
CONTINUOUS
 10
7.285452
 20
2.894289
  0
VERTEX
  8
FOREGROUND
  6
CONTINUOUS
 10
7.253716
 20
2.917191
  0
VERTEX
  8
FOREGROUND
  6
CONTINUOUS
 10
7.221396
 20
2.939318
  0
VERTEX
  8
FOREGROUND
  6
CONTINUOUS
 10
7.188505
 20
2.960657
  0
VERTEX
  8
FOREGROUND
  6
CONTINUOUS
 10
7.155058
 20
2.981195
  0
VERTEX
  8
FOREGROUND
  6
CONTINUOUS
 10
7.121067
 20
3.000918
  0
VERTEX
  8
FOREGROUND
  6
CONTINUOUS
 10
7.086546
 20
3.019813
  0
VERTEX
  8
FOREGROUND
  6
CONTINUOUS
 10
7.051509
 20
3.037865
  0
VERTEX
  8
FOREGROUND
  6
CONTINUOUS
 10
7.015969
 20
3.055062
  0
VERTEX
  8
FOREGROUND
  6
CONTINUOUS
 10
6.979941
 20
3.071389
  0
VERTEX
  8
FOREGROUND
  6
CONTINUOUS
 10
6.943436
 20
3.086834
  0
VERTEX
  8
FOREGROUND
  6
CONTINUOUS
 10
6.906470
 20
3.101382
  0
VERTEX
  8
FOREGROUND
  6
CONTINUOUS
 10
6.869056
 20
3.115020
  0
VERTEX
  8
FOREGROUND
  6
CONTINUOUS
 10
6.831206
 20
3.127735
  0
VERTEX
  8
FOREGROUND
  6
CONTINUOUS
 10
6.792936
 20
3.139512
  0
VERTEX
  8
FOREGROUND
  6
CONTINUOUS
 10
6.754257
 20
3.150339
  0
VERTEX
  8
FOREGROUND
  6
CONTINUOUS
 10
6.715185
 20
3.160201
  0
VERTEX
  8
FOREGROUND
  6
CONTINUOUS
 10
6.675732
 20
3.169086
  0
VERTEX
  8
FOREGROUND
  6
CONTINUOUS
 10
6.635913
 20
3.176979
  0
VERTEX
  8
FOREGROUND
  6
CONTINUOUS
 10
6.595740
 20
3.183868
  0
VERTEX
  8
FOREGROUND
  6
CONTINUOUS
 10
6.555227
 20
3.189738
  0
VERTEX
  8
FOREGROUND
  6
CONTINUOUS
 10
6.514388
 20
3.194575
  0
VERTEX
  8
FOREGROUND
  6
CONTINUOUS
 10
6.473236
 20
3.198367
  0
VERTEX
  8
FOREGROUND
  6
CONTINUOUS
 10
6.431785
 20
3.201100
  0
VERTEX
  8
FOREGROUND
  6
CONTINUOUS
 10
6.390049
 20
3.202760
  0
VERTEX
  8
FOREGROUND
  6
CONTINUOUS
 10
6.348041
 20
3.203333
  0
VERTEX
  8
FOREGROUND
  6
CONTINUOUS
 10
1.626374
 20
3.203333
  0
VERTEX
  8
FOREGROUND
  6
CONTINUOUS
 10
1.584378
 20
3.202745
  0
VERTEX
  8
FOREGROUND
  6
CONTINUOUS
 10
1.542653
 20
3.201070
  0
VERTEX
  8
FOREGROUND
  6
CONTINUOUS
 10
1.501214
 20
3.198323
  0
VERTEX
  8
FOREGROUND
  6
CONTINUOUS
 10
1.460074
 20
3.194518
  0
VERTEX
  8
FOREGROUND
  6
CONTINUOUS
 10
1.419246
 20
3.189668
  0
VERTEX
  8
FOREGROUND
  6
CONTINUOUS
 10
1.378746
 20
3.183786
  0
VERTEX
  8
FOREGROUND
  6
CONTINUOUS
 10
1.338585
 20
3.176886
  0
VERTEX
  8
FOREGROUND
  6
CONTINUOUS
 10
1.298777
 20
3.168981
  0
VERTEX
  8
FOREGROUND
  6
CONTINUOUS
 10
1.259337
 20
3.160086
  0
VERTEX
  8
FOREGROUND
  6
CONTINUOUS
 10
1.220277
 20
3.150214
  0
VERTEX
  8
FOREGROUND
  6
CONTINUOUS
 10
1.181611
 20
3.139378
  0
VERTEX
  8
FOREGROUND
  6
CONTINUOUS
 10
1.143353
 20
3.127592
  0
VERTEX
  8
FOREGROUND
  6
CONTINUOUS
 10
1.105516
 20
3.114869
  0
VERTEX
  8
FOREGROUND
  6
CONTINUOUS
 10
1.068114
 20
3.101224
  0
VERTEX
  8
FOREGROUND
  6
CONTINUOUS
 10
1.031161
 20
3.086669
  0
VERTEX
  8
FOREGROUND
  6
CONTINUOUS
 10
0.994669
 20
3.071218
  0
VERTEX
  8
FOREGROUND
  6
CONTINUOUS
 10
0.958653
 20
3.054885
  0
VERTEX
  8
FOREGROUND
  6
CONTINUOUS
 10
0.923126
 20
3.037683
  0
VERTEX
  8
FOREGROUND
  6
CONTINUOUS
 10
0.888101
 20
3.019626
  0
VERTEX
  8
FOREGROUND
  6
CONTINUOUS
 10
0.853593
 20
3.000727
  0
VERTEX
  8
FOREGROUND
  6
CONTINUOUS
 10
0.819615
 20
2.981000
  0
VERTEX
  8
FOREGROUND
  6
CONTINUOUS
 10
0.786180
 20
2.960459
  0
VERTEX
  8
FOREGROUND
  6
CONTINUOUS
 10
0.753302
 20
2.939117
  0
VERTEX
  8
FOREGROUND
  6
CONTINUOUS
 10
0.720994
 20
2.916987
  0
VERTEX
  8
FOREGROUND
  6
CONTINUOUS
 10
0.689270
 20
2.894084
  0
VERTEX
  8
FOREGROUND
  6
CONTINUOUS
 10
0.658144
 20
2.870421
  0
VERTEX
  8
FOREGROUND
  6
CONTINUOUS
 10
0.627629
 20
2.846011
  0
VERTEX
  8
FOREGROUND
  6
CONTINUOUS
 10
0.597739
 20
2.820867
  0
VERTEX
  8
FOREGROUND
  6
CONTINUOUS
 10
0.568487
 20
2.795005
  0
VERTEX
  8
FOREGROUND
  6
CONTINUOUS
 10
0.539887
 20
2.768436
  0
VERTEX
  8
FOREGROUND
  6
CONTINUOUS
 10
0.511952
 20
2.741175
  0
VERTEX
  8
FOREGROUND
  6
CONTINUOUS
 10
0.484696
 20
2.713235
  0
VERTEX
  8
FOREGROUND
  6
CONTINUOUS
 10
0.458133
 20
2.684630
  0
VERTEX
  8
FOREGROUND
  6
CONTINUOUS
 10
0.432275
 20
2.655373
  0
VERTEX
  8
FOREGROUND
  6
CONTINUOUS
 10
0.407138
 20
2.625478
  0
VERTEX
  8
FOREGROUND
  6
CONTINUOUS
 10
0.382733
 20
2.594959
  0
VERTEX
  8
FOREGROUND
  6
CONTINUOUS
 10
0.359076
 20
2.563828
  0
VERTEX
  8
FOREGROUND
  6
CONTINUOUS
 10
0.336178
 20
2.532100
  0
VERTEX
  8
FOREGROUND
  6
CONTINUOUS
 10
0.314055
 20
2.499788
  0
VERTEX
  8
FOREGROUND
  6
CONTINUOUS
 10
0.292719
 20
2.466906
  0
VERTEX
  8
FOREGROUND
  6
CONTINUOUS
 10
0.272184
 20
2.433467
  0
VERTEX
  8
FOREGROUND
  6
CONTINUOUS
 10
0.252463
 20
2.399485
  0
VERTEX
  8
FOREGROUND
  6
CONTINUOUS
 10
0.233571
 20
2.364974
  0
VERTEX
  8
FOREGROUND
  6
CONTINUOUS
 10
0.215520
 20
2.329946
  0
VERTEX
  8
FOREGROUND
  6
CONTINUOUS
 10
0.198325
 20
2.294416
  0
VERTEX
  8
FOREGROUND
  6
CONTINUOUS
 10
0.181998
 20
2.258397
  0
VERTEX
  8
FOREGROUND
  6
CONTINUOUS
 10
0.166554
 20
2.221902
  0
VERTEX
  8
FOREGROUND
  6
CONTINUOUS
 10
0.152006
 20
2.184946
  0
VERTEX
  8
FOREGROUND
  6
CONTINUOUS
 10
0.138367
 20
2.147542
  0
VERTEX
  8
FOREGROUND
  6
CONTINUOUS
 10
0.125652
 20
2.109702
  0
VERTEX
  8
FOREGROUND
  6
CONTINUOUS
 10
0.113873
 20
2.071442
  0
VERTEX
  8
FOREGROUND
  6
CONTINUOUS
 10
0.103044
 20
2.032774
  0
VERTEX
  8
FOREGROUND
  6
CONTINUOUS
 10
0.093179
 20
1.993713
  0
VERTEX
  8
FOREGROUND
  6
CONTINUOUS
 10
0.084291
 20
1.954270
  0
VERTEX
  8
FOREGROUND
  6
CONTINUOUS
 10
0.076394
 20
1.914462
  0
VERTEX
  8
FOREGROUND
  6
CONTINUOUS
 10
0.069502
 20
1.874299
  0
VERTEX
  8
FOREGROUND
  6
CONTINUOUS
 10
0.063627
 20
1.833797
  0
VERTEX
  8
FOREGROUND
  6
CONTINUOUS
 10
0.058785
 20
1.792969
  0
VERTEX
  8
FOREGROUND
  6
CONTINUOUS
 10
0.054987
 20
1.751829
  0
VERTEX
  8
FOREGROUND
  6
CONTINUOUS
 10
0.052248
 20
1.710389
  0
VERTEX
  8
FOREGROUND
  6
CONTINUOUS
 10
0.050581
 20
1.668664
  0
VERTEX
  8
FOREGROUND
  6
CONTINUOUS
 10
0.050000
 20
1.626667
  0
VERTEX
  8
FOREGROUND
  6
CONTINUOUS
 10
0.050000
 20
1.626667
  0
VERTEX
  8
FOREGROUND
  6
CONTINUOUS
 10
0.050581
 20
1.584664
  0
VERTEX
  8
FOREGROUND
  6
CONTINUOUS
 10
0.052248
 20
1.542934
  0
VERTEX
  8
FOREGROUND
  6
CONTINUOUS
 10
0.054988
 20
1.501489
  0
VERTEX
  8
FOREGROUND
  6
CONTINUOUS
 10
0.058787
 20
1.460343
  0
VERTEX
  8
FOREGROUND
  6
CONTINUOUS
 10
0.063631
 20
1.419510
  0
VERTEX
  8
FOREGROUND
  6
CONTINUOUS
 10
0.069507
 20
1.379003
  0
VERTEX
  8
FOREGROUND
  6
CONTINUOUS
 10
0.076401
 20
1.338836
  0
VERTEX
  8
FOREGROUND
  6
CONTINUOUS
 10
0.084300
 20
1.299022
  0
VERTEX
  8
FOREGROUND
  6
CONTINUOUS
 10
0.093189
 20
1.259576
  0
VERTEX
  8
FOREGROUND
  6
CONTINUOUS
 10
0.103057
 20
1.220510
  0
VERTEX
  8
FOREGROUND
  6
CONTINUOUS
 10
0.113888
 20
1.181838
  0
VERTEX
  8
FOREGROUND
  6
CONTINUOUS
 10
0.125670
 20
1.143573
  0
VERTEX
  8
FOREGROUND
  6
CONTINUOUS
 10
0.138389
 20
1.105730
  0
VERTEX
  8
FOREGROUND
  6
CONTINUOUS
 10
0.152031
 20
1.068322
  0
VERTEX
  8
FOREGROUND
  6
CONTINUOUS
 10
0.166582
 20
1.031362
  0
VERTEX
  8
FOREGROUND
  6
CONTINUOUS
 10
0.182030
 20
0.994864
  0
VERTEX
  8
FOREGROUND
  6
CONTINUOUS
 10
0.198360
 20
0.958842
  0
VERTEX
  8
FOREGROUND
  6
CONTINUOUS
 10
0.215559
 20
0.923308
  0
VERTEX
  8
FOREGROUND
  6
CONTINUOUS
 10
0.233614
 20
0.888278
  0
VERTEX
  8
FOREGROUND
  6
CONTINUOUS
 10
0.252511
 20
0.853763
  0
VERTEX
  8
FOREGROUND
  6
CONTINUOUS
 10
0.272236
 20
0.819779
  0
VERTEX
  8
FOREGROUND
  6
CONTINUOUS
 10
0.292775
 20
0.786337
  0
VERTEX
  8
FOREGROUND
  6
CONTINUOUS
 10
0.314116
 20
0.753453
  0
VERTEX
  8
FOREGROUND
  6
CONTINUOUS
 10
0.336244
 20
0.721139
  0
VERTEX
  8
FOREGROUND
  6
CONTINUOUS
 10
0.359147
 20
0.689409
  0
VERTEX
  8
FOREGROUND
  6
CONTINUOUS
 10
0.382809
 20
0.658277
  0
VERTEX
  8
FOREGROUND
  6
CONTINUOUS
 10
0.407219
 20
0.627756
  0
VERTEX
  8
FOREGROUND
  6
CONTINUOUS
 10
0.432362
 20
0.597860
  0
VERTEX
  8
FOREGROUND
  6
CONTINUOUS
 10
0.458225
 20
0.568602
  0
VERTEX
  8
FOREGROUND
  6
CONTINUOUS
 10
0.484794
 20
0.539996
  0
VERTEX
  8
FOREGROUND
  6
CONTINUOUS
 10
0.512055
 20
0.512055
  0
VERTEX
  8
FOREGROUND
  6
CONTINUOUS
 10
0.539996
 20
0.484794
  0
VERTEX
  8
FOREGROUND
  6
CONTINUOUS
 10
0.568602
 20
0.458225
  0
VERTEX
  8
FOREGROUND
  6
CONTINUOUS
 10
0.597860
 20
0.432362
  0
VERTEX
  8
FOREGROUND
  6
CONTINUOUS
 10
0.627756
 20
0.407219
  0
VERTEX
  8
FOREGROUND
  6
CONTINUOUS
 10
0.658277
 20
0.382809
  0
VERTEX
  8
FOREGROUND
  6
CONTINUOUS
 10
0.689409
 20
0.359147
  0
VERTEX
  8
FOREGROUND
  6
CONTINUOUS
 10
0.721139
 20
0.336244
  0
VERTEX
  8
FOREGROUND
  6
CONTINUOUS
 10
0.753453
 20
0.314116
  0
VERTEX
  8
FOREGROUND
  6
CONTINUOUS
 10
0.786337
 20
0.292775
  0
VERTEX
  8
FOREGROUND
  6
CONTINUOUS
 10
0.819779
 20
0.272236
  0
VERTEX
  8
FOREGROUND
  6
CONTINUOUS
 10
0.853763
 20
0.252511
  0
VERTEX
  8
FOREGROUND
  6
CONTINUOUS
 10
0.888278
 20
0.233614
  0
VERTEX
  8
FOREGROUND
  6
CONTINUOUS
 10
0.923308
 20
0.215559
  0
VERTEX
  8
FOREGROUND
  6
CONTINUOUS
 10
0.958842
 20
0.198360
  0
VERTEX
  8
FOREGROUND
  6
CONTINUOUS
 10
0.994864
 20
0.182030
  0
VERTEX
  8
FOREGROUND
  6
CONTINUOUS
 10
1.031362
 20
0.166582
  0
VERTEX
  8
FOREGROUND
  6
CONTINUOUS
 10
1.068322
 20
0.152031
  0
VERTEX
  8
FOREGROUND
  6
CONTINUOUS
 10
1.105730
 20
0.138389
  0
VERTEX
  8
FOREGROUND
  6
CONTINUOUS
 10
1.143573
 20
0.125670
  0
VERTEX
  8
FOREGROUND
  6
CONTINUOUS
 10
1.181838
 20
0.113888
  0
VERTEX
  8
FOREGROUND
  6
CONTINUOUS
 10
1.220510
 20
0.103057
  0
VERTEX
  8
FOREGROUND
  6
CONTINUOUS
 10
1.259576
 20
0.093189
  0
VERTEX
  8
FOREGROUND
  6
CONTINUOUS
 10
1.299022
 20
0.084300
  0
VERTEX
  8
FOREGROUND
  6
CONTINUOUS
 10
1.338836
 20
0.076401
  0
VERTEX
  8
FOREGROUND
  6
CONTINUOUS
 10
1.379003
 20
0.069507
  0
VERTEX
  8
FOREGROUND
  6
CONTINUOUS
 10
1.419510
 20
0.063631
  0
VERTEX
  8
FOREGROUND
  6
CONTINUOUS
 10
1.460343
 20
0.058787
  0
VERTEX
  8
FOREGROUND
  6
CONTINUOUS
 10
1.501489
 20
0.054988
  0
VERTEX
  8
FOREGROUND
  6
CONTINUOUS
 10
1.542934
 20
0.052248
  0
VERTEX
  8
FOREGROUND
  6
CONTINUOUS
 10
1.584664
 20
0.050581
  0
VERTEX
  8
FOREGROUND
  6
CONTINUOUS
 10
1.626667
 20
0.050000
  0
SEQEND
  8
0
  0
ENDSEC
  0
EOF
