  0
SECTION
  2
HEADER
  9
$ACADVER
  1
AC1006
  9
$EXTMIN
 10
0.000000
 20
0.000000
  9
$EXTMAX
 10
1.280000
 20
0.885000
  9
$LTSCALE
 40
0.166667
  9
$PDMODE
 70
    35
  9
$PDSIZE
 40
0.133333
  0
ENDSEC
  0
SECTION
  2
TABLES
  0
TABLE
  2
LTYPE
 70
     9
  0
LTYPE
  2
CONTINUOUS
 70
    64
  3
Solid line
 72
    65
 73
     0
 40
0.000000
  0
LTYPE
  2
DASHED
 70
    64
  3
__ __ __ __ __ __ __ __ __ __ __ __ __ __ __
 72
    65
 73
     2
 40
0.001250
 49
0.000833
 49
-0.000417
  0
LTYPE
  2
HIDDEN
 70
    64
  3
 _ _ _ _ _ _ _ _ _ _ _ _ _ _ _ _ _ _ _ _ _ _
 72
    65
 73
     2
 40
0.000625
 49
0.000417
 49
-0.000208
  0
LTYPE
  2
CENTER
 70
    64
  3
____ _ ____ _ ____ _ ____ _ ____ _ ____ _ ____
 72
    65
 73
     4
 40
0.003333
 49
0.002083
 49
-0.000417
 49
0.000417
 49
-0.000417
  0
LTYPE
  2
PHANTOM
 70
    64
  3
_____ _ _ _____ _ _ _____ _ _ _____ _ _ ____
 72
    65
 73
     6
 40
0.004167
 49
0.002083
 49
-0.000417
 49
0.000417
 49
-0.000417
 49
0.000417
 49
-0.000417
  0
LTYPE
  2
DOT
 70
    64
  3
...............................................
 72
    65
 73
     2
 40
0.000417
 49
0.000000
 49
-0.000417
  0
LTYPE
  2
DASHDOT
 70
    64
  3
__ . __ . __ . __ . __ . __ . __ . __ . __ . __
 72
    65
 73
     4
 40
0.001667
 49
0.000833
 49
-0.000417
 49
0.000000
 49
-0.000417
  0
LTYPE
  2
BORDER
 70
    64
  3
__ __ . __ __ . __ __ . __ __ . __ __ . __ __
 72
    65
 73
     6
 40
0.002917
 49
0.000833
 49
-0.000417
 49
0.000833
 49
-0.000417
 49
0.000000
 49
-0.000417
  0
LTYPE
  2
DIVIDE
 70
    64
  3
__ . . __ . . __ . . __ . . __ . . __ . . __
 72
    65
 73
     6
 40
0.002083
 49
0.000833
 49
-0.000417
 49
0.000000
 49
-0.000417
 49
0.000000
 49
-0.000417
  0
LTYPE
  2
DOTDOT
 70
    64
  3
 . .  . .  . .  . .  . .  . . 
 72
    65
 73
     5
 40
0.000917
 49
-0.000417
 49
0.000000
 49
-0.000417
 49
0.000000
 49
-0.000417
  0
ENDTAB
  0
TABLE
  2
STYLE
 70
     2
  0
STYLE
 70
     0
  2
SN0
 40
0.000000
 41
0.001667
 50
0.000000
 71
     0
 42
0.000000
  3
ROMAND
  0
STYLE
 70
    68
  2
SV0
 40
0.000000
 41
0.001667
 50
0.000000
 71
     0
 42
0.000000
  3
ROMAND
  0
ENDTAB
  0
TABLE
  2
LAYER
 70
     2
  0
LAYER
  2
FOREGROUND
 70
    64
 62
     7
  6
CONTINUOUS
  0
LAYER
  2
BACKGROUND
 70
    65
 62
    -7
  6
CONTINUOUS
  0
ENDTAB
  0
ENDSEC
  0
SECTION
  2
ENTITIES
  0
POLYLINE
  8
FOREGROUND
  6
CONTINUOUS
 66
     1
 40
0.010000
 41
0.010000
 70
     1
  0
VERTEX
  8
FOREGROUND
  6
CONTINUOUS
 10
0.836667
 20
0.050000
  0
VERTEX
  8
FOREGROUND
  6
CONTINUOUS
 10
0.844228
 20
0.050077
  0
VERTEX
  8
FOREGROUND
  6
CONTINUOUS
 10
0.851754
 20
0.050295
  0
VERTEX
  8
FOREGROUND
  6
CONTINUOUS
 10
0.859244
 20
0.050653
  0
VERTEX
  8
FOREGROUND
  6
CONTINUOUS
 10
0.866696
 20
0.051149
  0
VERTEX
  8
FOREGROUND
  6
CONTINUOUS
 10
0.874111
 20
0.051782
  0
VERTEX
  8
FOREGROUND
  6
CONTINUOUS
 10
0.881485
 20
0.052552
  0
VERTEX
  8
FOREGROUND
  6
CONTINUOUS
 10
0.888818
 20
0.053456
  0
VERTEX
  8
FOREGROUND
  6
CONTINUOUS
 10
0.896109
 20
0.054493
  0
VERTEX
  8
FOREGROUND
  6
CONTINUOUS
 10
0.903356
 20
0.055663
  0
VERTEX
  8
FOREGROUND
  6
CONTINUOUS
 10
0.910558
 20
0.056963
  0
VERTEX
  8
FOREGROUND
  6
CONTINUOUS
 10
0.917714
 20
0.058393
  0
VERTEX
  8
FOREGROUND
  6
CONTINUOUS
 10
0.924823
 20
0.059952
  0
VERTEX
  8
FOREGROUND
  6
CONTINUOUS
 10
0.931883
 20
0.061638
  0
VERTEX
  8
FOREGROUND
  6
CONTINUOUS
 10
0.938893
 20
0.063449
  0
VERTEX
  8
FOREGROUND
  6
CONTINUOUS
 10
0.945851
 20
0.065385
  0
VERTEX
  8
FOREGROUND
  6
CONTINUOUS
 10
0.952758
 20
0.067444
  0
VERTEX
  8
FOREGROUND
  6
CONTINUOUS
 10
0.959610
 20
0.069626
  0
VERTEX
  8
FOREGROUND
  6
CONTINUOUS
 10
0.966407
 20
0.071928
  0
VERTEX
  8
FOREGROUND
  6
CONTINUOUS
 10
0.973148
 20
0.074349
  0
VERTEX
  8
FOREGROUND
  6
CONTINUOUS
 10
0.979831
 20
0.076889
  0
VERTEX
  8
FOREGROUND
  6
CONTINUOUS
 10
0.986456
 20
0.079546
  0
VERTEX
  8
FOREGROUND
  6
CONTINUOUS
 10
0.993020
 20
0.082318
  0
VERTEX
  8
FOREGROUND
  6
CONTINUOUS
 10
0.999523
 20
0.085205
  0
VERTEX
  8
FOREGROUND
  6
CONTINUOUS
 10
1.005963
 20
0.088205
  0
VERTEX
  8
FOREGROUND
  6
CONTINUOUS
 10
1.012339
 20
0.091317
  0
VERTEX
  8
FOREGROUND
  6
CONTINUOUS
 10
1.018650
 20
0.094540
  0
VERTEX
  8
FOREGROUND
  6
CONTINUOUS
 10
1.024895
 20
0.097872
  0
VERTEX
  8
FOREGROUND
  6
CONTINUOUS
 10
1.031071
 20
0.101312
  0
VERTEX
  8
FOREGROUND
  6
CONTINUOUS
 10
1.037179
 20
0.104859
  0
VERTEX
  8
FOREGROUND
  6
CONTINUOUS
 10
1.043217
 20
0.108511
  0
VERTEX
  8
FOREGROUND
  6
CONTINUOUS
 10
1.049182
 20
0.112268
  0
VERTEX
  8
FOREGROUND
  6
CONTINUOUS
 10
1.055076
 20
0.116128
  0
VERTEX
  8
FOREGROUND
  6
CONTINUOUS
 10
1.060895
 20
0.120090
  0
VERTEX
  8
FOREGROUND
  6
CONTINUOUS
 10
1.066638
 20
0.124152
  0
VERTEX
  8
FOREGROUND
  6
CONTINUOUS
 10
1.072305
 20
0.128313
  0
VERTEX
  8
FOREGROUND
  6
CONTINUOUS
 10
1.077894
 20
0.132573
  0
VERTEX
  8
FOREGROUND
  6
CONTINUOUS
 10
1.083404
 20
0.136929
  0
VERTEX
  8
FOREGROUND
  6
CONTINUOUS
 10
1.088834
 20
0.141380
  0
VERTEX
  8
FOREGROUND
  6
CONTINUOUS
 10
1.094181
 20
0.145926
  0
VERTEX
  8
FOREGROUND
  6
CONTINUOUS
 10
1.099446
 20
0.150565
  0
VERTEX
  8
FOREGROUND
  6
CONTINUOUS
 10
1.104627
 20
0.155295
  0
VERTEX
  8
FOREGROUND
  6
CONTINUOUS
 10
1.109722
 20
0.160116
  0
VERTEX
  8
FOREGROUND
  6
CONTINUOUS
 10
1.114730
 20
0.165026
  0
VERTEX
  8
FOREGROUND
  6
CONTINUOUS
 10
1.119651
 20
0.170023
  0
VERTEX
  8
FOREGROUND
  6
CONTINUOUS
 10
1.124481
 20
0.175107
  0
VERTEX
  8
FOREGROUND
  6
CONTINUOUS
 10
1.129222
 20
0.180277
  0
VERTEX
  8
FOREGROUND
  6
CONTINUOUS
 10
1.133870
 20
0.185531
  0
VERTEX
  8
FOREGROUND
  6
CONTINUOUS
 10
1.138426
 20
0.190867
  0
VERTEX
  8
FOREGROUND
  6
CONTINUOUS
 10
1.142887
 20
0.196285
  0
VERTEX
  8
FOREGROUND
  6
CONTINUOUS
 10
1.147252
 20
0.201783
  0
VERTEX
  8
FOREGROUND
  6
CONTINUOUS
 10
1.151521
 20
0.207361
  0
VERTEX
  8
FOREGROUND
  6
CONTINUOUS
 10
1.155691
 20
0.213016
  0
VERTEX
  8
FOREGROUND
  6
CONTINUOUS
 10
1.159762
 20
0.218747
  0
VERTEX
  8
FOREGROUND
  6
CONTINUOUS
 10
1.163732
 20
0.224554
  0
VERTEX
  8
FOREGROUND
  6
CONTINUOUS
 10
1.167600
 20
0.230434
  0
VERTEX
  8
FOREGROUND
  6
CONTINUOUS
 10
1.171364
 20
0.236388
  0
VERTEX
  8
FOREGROUND
  6
CONTINUOUS
 10
1.175025
 20
0.242412
  0
VERTEX
  8
FOREGROUND
  6
CONTINUOUS
 10
1.178579
 20
0.248507
  0
VERTEX
  8
FOREGROUND
  6
CONTINUOUS
 10
1.182027
 20
0.254671
  0
VERTEX
  8
FOREGROUND
  6
CONTINUOUS
 10
1.185366
 20
0.260902
  0
VERTEX
  8
FOREGROUND
  6
CONTINUOUS
 10
1.188595
 20
0.267200
  0
VERTEX
  8
FOREGROUND
  6
CONTINUOUS
 10
1.191714
 20
0.273563
  0
VERTEX
  8
FOREGROUND
  6
CONTINUOUS
 10
1.194720
 20
0.279989
  0
VERTEX
  8
FOREGROUND
  6
CONTINUOUS
 10
1.197613
 20
0.286478
  0
VERTEX
  8
FOREGROUND
  6
CONTINUOUS
 10
1.200392
 20
0.293028
  0
VERTEX
  8
FOREGROUND
  6
CONTINUOUS
 10
1.203054
 20
0.299639
  0
VERTEX
  8
FOREGROUND
  6
CONTINUOUS
 10
1.205599
 20
0.306308
  0
VERTEX
  8
FOREGROUND
  6
CONTINUOUS
 10
1.208026
 20
0.313035
  0
VERTEX
  8
FOREGROUND
  6
CONTINUOUS
 10
1.210333
 20
0.319817
  0
VERTEX
  8
FOREGROUND
  6
CONTINUOUS
 10
1.212519
 20
0.326655
  0
VERTEX
  8
FOREGROUND
  6
CONTINUOUS
 10
1.214582
 20
0.333547
  0
VERTEX
  8
FOREGROUND
  6
CONTINUOUS
 10
1.216522
 20
0.340490
  0
VERTEX
  8
FOREGROUND
  6
CONTINUOUS
 10
1.218338
 20
0.347485
  0
VERTEX
  8
FOREGROUND
  6
CONTINUOUS
 10
1.220027
 20
0.354530
  0
VERTEX
  8
FOREGROUND
  6
CONTINUOUS
 10
1.221589
 20
0.361624
  0
VERTEX
  8
FOREGROUND
  6
CONTINUOUS
 10
1.223022
 20
0.368765
  0
VERTEX
  8
FOREGROUND
  6
CONTINUOUS
 10
1.224325
 20
0.375952
  0
VERTEX
  8
FOREGROUND
  6
CONTINUOUS
 10
1.225497
 20
0.383184
  0
VERTEX
  8
FOREGROUND
  6
CONTINUOUS
 10
1.226537
 20
0.390459
  0
VERTEX
  8
FOREGROUND
  6
CONTINUOUS
 10
1.227443
 20
0.397777
  0
VERTEX
  8
FOREGROUND
  6
CONTINUOUS
 10
1.228214
 20
0.405135
  0
VERTEX
  8
FOREGROUND
  6
CONTINUOUS
 10
1.228849
 20
0.412534
  0
VERTEX
  8
FOREGROUND
  6
CONTINUOUS
 10
1.229346
 20
0.419971
  0
VERTEX
  8
FOREGROUND
  6
CONTINUOUS
 10
1.229704
 20
0.427445
  0
VERTEX
  8
FOREGROUND
  6
CONTINUOUS
 10
1.229923
 20
0.434955
  0
VERTEX
  8
FOREGROUND
  6
CONTINUOUS
 10
1.230000
 20
0.442500
  0
VERTEX
  8
FOREGROUND
  6
CONTINUOUS
 10
1.230000
 20
0.442500
  0
VERTEX
  8
FOREGROUND
  6
CONTINUOUS
 10
1.229923
 20
0.450046
  0
VERTEX
  8
FOREGROUND
  6
CONTINUOUS
 10
1.229704
 20
0.457557
  0
VERTEX
  8
FOREGROUND
  6
CONTINUOUS
 10
1.229346
 20
0.465032
  0
VERTEX
  8
FOREGROUND
  6
CONTINUOUS
 10
1.228848
 20
0.472470
  0
VERTEX
  8
FOREGROUND
  6
CONTINUOUS
 10
1.228214
 20
0.479869
  0
VERTEX
  8
FOREGROUND
  6
CONTINUOUS
 10
1.227442
 20
0.487229
  0
VERTEX
  8
FOREGROUND
  6
CONTINUOUS
 10
1.226536
 20
0.494548
  0
VERTEX
  8
FOREGROUND
  6
CONTINUOUS
 10
1.225496
 20
0.501824
  0
VERTEX
  8
FOREGROUND
  6
CONTINUOUS
 10
1.224324
 20
0.509057
  0
VERTEX
  8
FOREGROUND
  6
CONTINUOUS
 10
1.223020
 20
0.516244
  0
VERTEX
  8
FOREGROUND
  6
CONTINUOUS
 10
1.221587
 20
0.523386
  0
VERTEX
  8
FOREGROUND
  6
CONTINUOUS
 10
1.220025
 20
0.530481
  0
VERTEX
  8
FOREGROUND
  6
CONTINUOUS
 10
1.218335
 20
0.537526
  0
VERTEX
  8
FOREGROUND
  6
CONTINUOUS
 10
1.216519
 20
0.544522
  0
VERTEX
  8
FOREGROUND
  6
CONTINUOUS
 10
1.214579
 20
0.551467
  0
VERTEX
  8
FOREGROUND
  6
CONTINUOUS
 10
1.212515
 20
0.558359
  0
VERTEX
  8
FOREGROUND
  6
CONTINUOUS
 10
1.210328
 20
0.565197
  0
VERTEX
  8
FOREGROUND
  6
CONTINUOUS
 10
1.208021
 20
0.571981
  0
VERTEX
  8
FOREGROUND
  6
CONTINUOUS
 10
1.205593
 20
0.578708
  0
VERTEX
  8
FOREGROUND
  6
CONTINUOUS
 10
1.203048
 20
0.585378
  0
VERTEX
  8
FOREGROUND
  6
CONTINUOUS
 10
1.200385
 20
0.591989
  0
VERTEX
  8
FOREGROUND
  6
CONTINUOUS
 10
1.197606
 20
0.598540
  0
VERTEX
  8
FOREGROUND
  6
CONTINUOUS
 10
1.194712
 20
0.605030
  0
VERTEX
  8
FOREGROUND
  6
CONTINUOUS
 10
1.191705
 20
0.611457
  0
VERTEX
  8
FOREGROUND
  6
CONTINUOUS
 10
1.188586
 20
0.617820
  0
VERTEX
  8
FOREGROUND
  6
CONTINUOUS
 10
1.185355
 20
0.624118
  0
VERTEX
  8
FOREGROUND
  6
CONTINUOUS
 10
1.182016
 20
0.630350
  0
VERTEX
  8
FOREGROUND
  6
CONTINUOUS
 10
1.178567
 20
0.636514
  0
VERTEX
  8
FOREGROUND
  6
CONTINUOUS
 10
1.175012
 20
0.642609
  0
VERTEX
  8
FOREGROUND
  6
CONTINUOUS
 10
1.171351
 20
0.648635
  0
VERTEX
  8
FOREGROUND
  6
CONTINUOUS
 10
1.167585
 20
0.654588
  0
VERTEX
  8
FOREGROUND
  6
CONTINUOUS
 10
1.163716
 20
0.660469
  0
VERTEX
  8
FOREGROUND
  6
CONTINUOUS
 10
1.159746
 20
0.666276
  0
VERTEX
  8
FOREGROUND
  6
CONTINUOUS
 10
1.155674
 20
0.672008
  0
VERTEX
  8
FOREGROUND
  6
CONTINUOUS
 10
1.151503
 20
0.677663
  0
VERTEX
  8
FOREGROUND
  6
CONTINUOUS
 10
1.147233
 20
0.683241
  0
VERTEX
  8
FOREGROUND
  6
CONTINUOUS
 10
1.142867
 20
0.688739
  0
VERTEX
  8
FOREGROUND
  6
CONTINUOUS
 10
1.138405
 20
0.694158
  0
VERTEX
  8
FOREGROUND
  6
CONTINUOUS
 10
1.133849
 20
0.699494
  0
VERTEX
  8
FOREGROUND
  6
CONTINUOUS
 10
1.129199
 20
0.704748
  0
VERTEX
  8
FOREGROUND
  6
CONTINUOUS
 10
1.124458
 20
0.709918
  0
VERTEX
  8
FOREGROUND
  6
CONTINUOUS
 10
1.119626
 20
0.715002
  0
VERTEX
  8
FOREGROUND
  6
CONTINUOUS
 10
1.114705
 20
0.720000
  0
VERTEX
  8
FOREGROUND
  6
CONTINUOUS
 10
1.109695
 20
0.724910
  0
VERTEX
  8
FOREGROUND
  6
CONTINUOUS
 10
1.104599
 20
0.729731
  0
VERTEX
  8
FOREGROUND
  6
CONTINUOUS
 10
1.099418
 20
0.734461
  0
VERTEX
  8
FOREGROUND
  6
CONTINUOUS
 10
1.094152
 20
0.739100
  0
VERTEX
  8
FOREGROUND
  6
CONTINUOUS
 10
1.088803
 20
0.743646
  0
VERTEX
  8
FOREGROUND
  6
CONTINUOUS
 10
1.083372
 20
0.748097
  0
VERTEX
  8
FOREGROUND
  6
CONTINUOUS
 10
1.077861
 20
0.752453
  0
VERTEX
  8
FOREGROUND
  6
CONTINUOUS
 10
1.072271
 20
0.756713
  0
VERTEX
  8
FOREGROUND
  6
CONTINUOUS
 10
1.066603
 20
0.760874
  0
VERTEX
  8
FOREGROUND
  6
CONTINUOUS
 10
1.060858
 20
0.764936
  0
VERTEX
  8
FOREGROUND
  6
CONTINUOUS
 10
1.055038
 20
0.768897
  0
VERTEX
  8
FOREGROUND
  6
CONTINUOUS
 10
1.049144
 20
0.772757
  0
VERTEX
  8
FOREGROUND
  6
CONTINUOUS
 10
1.043177
 20
0.776513
  0
VERTEX
  8
FOREGROUND
  6
CONTINUOUS
 10
1.037138
 20
0.780166
  0
VERTEX
  8
FOREGROUND
  6
CONTINUOUS
 10
1.031029
 20
0.783712
  0
VERTEX
  8
FOREGROUND
  6
CONTINUOUS
 10
1.024852
 20
0.787152
  0
VERTEX
  8
FOREGROUND
  6
CONTINUOUS
 10
1.018606
 20
0.790484
  0
VERTEX
  8
FOREGROUND
  6
CONTINUOUS
 10
1.012294
 20
0.793706
  0
VERTEX
  8
FOREGROUND
  6
CONTINUOUS
 10
1.005916
 20
0.796817
  0
VERTEX
  8
FOREGROUND
  6
CONTINUOUS
 10
0.999475
 20
0.799817
  0
VERTEX
  8
FOREGROUND
  6
CONTINUOUS
 10
0.992971
 20
0.802703
  0
VERTEX
  8
FOREGROUND
  6
CONTINUOUS
 10
0.986406
 20
0.805475
  0
VERTEX
  8
FOREGROUND
  6
CONTINUOUS
 10
0.979780
 20
0.808131
  0
VERTEX
  8
FOREGROUND
  6
CONTINUOUS
 10
0.973096
 20
0.810670
  0
VERTEX
  8
FOREGROUND
  6
CONTINUOUS
 10
0.966354
 20
0.813091
  0
VERTEX
  8
FOREGROUND
  6
CONTINUOUS
 10
0.959555
 20
0.815393
  0
VERTEX
  8
FOREGROUND
  6
CONTINUOUS
 10
0.952702
 20
0.817573
  0
VERTEX
  8
FOREGROUND
  6
CONTINUOUS
 10
0.945795
 20
0.819632
  0
VERTEX
  8
FOREGROUND
  6
CONTINUOUS
 10
0.938835
 20
0.821567
  0
VERTEX
  8
FOREGROUND
  6
CONTINUOUS
 10
0.931824
 20
0.823377
  0
VERTEX
  8
FOREGROUND
  6
CONTINUOUS
 10
0.924763
 20
0.825062
  0
VERTEX
  8
FOREGROUND
  6
CONTINUOUS
 10
0.917653
 20
0.826620
  0
VERTEX
  8
FOREGROUND
  6
CONTINUOUS
 10
0.910496
 20
0.828049
  0
VERTEX
  8
FOREGROUND
  6
CONTINUOUS
 10
0.903293
 20
0.829348
  0
VERTEX
  8
FOREGROUND
  6
CONTINUOUS
 10
0.896045
 20
0.830517
  0
VERTEX
  8
FOREGROUND
  6
CONTINUOUS
 10
0.888753
 20
0.831553
  0
VERTEX
  8
FOREGROUND
  6
CONTINUOUS
 10
0.881418
 20
0.832456
  0
VERTEX
  8
FOREGROUND
  6
CONTINUOUS
 10
0.874043
 20
0.833224
  0
VERTEX
  8
FOREGROUND
  6
CONTINUOUS
 10
0.866628
 20
0.833856
  0
VERTEX
  8
FOREGROUND
  6
CONTINUOUS
 10
0.859174
 20
0.834351
  0
VERTEX
  8
FOREGROUND
  6
CONTINUOUS
 10
0.851683
 20
0.834708
  0
VERTEX
  8
FOREGROUND
  6
CONTINUOUS
 10
0.844156
 20
0.834924
  0
VERTEX
  8
FOREGROUND
  6
CONTINUOUS
 10
0.836594
 20
0.835000
  0
VERTEX
  8
FOREGROUND
  6
CONTINUOUS
 10
0.443261
 20
0.835000
  0
VERTEX
  8
FOREGROUND
  6
CONTINUOUS
 10
0.435701
 20
0.834922
  0
VERTEX
  8
FOREGROUND
  6
CONTINUOUS
 10
0.428176
 20
0.834702
  0
VERTEX
  8
FOREGROUND
  6
CONTINUOUS
 10
0.420687
 20
0.834343
  0
VERTEX
  8
FOREGROUND
  6
CONTINUOUS
 10
0.413235
 20
0.833846
  0
VERTEX
  8
FOREGROUND
  6
CONTINUOUS
 10
0.405822
 20
0.833211
  0
VERTEX
  8
FOREGROUND
  6
CONTINUOUS
 10
0.398449
 20
0.832441
  0
VERTEX
  8
FOREGROUND
  6
CONTINUOUS
 10
0.391116
 20
0.831535
  0
VERTEX
  8
FOREGROUND
  6
CONTINUOUS
 10
0.383827
 20
0.830497
  0
VERTEX
  8
FOREGROUND
  6
CONTINUOUS
 10
0.376581
 20
0.829326
  0
VERTEX
  8
FOREGROUND
  6
CONTINUOUS
 10
0.369379
 20
0.828025
  0
VERTEX
  8
FOREGROUND
  6
CONTINUOUS
 10
0.362224
 20
0.826593
  0
VERTEX
  8
FOREGROUND
  6
CONTINUOUS
 10
0.355117
 20
0.825034
  0
VERTEX
  8
FOREGROUND
  6
CONTINUOUS
 10
0.348058
 20
0.823347
  0
VERTEX
  8
FOREGROUND
  6
CONTINUOUS
 10
0.341049
 20
0.821535
  0
VERTEX
  8
FOREGROUND
  6
CONTINUOUS
 10
0.334092
 20
0.819598
  0
VERTEX
  8
FOREGROUND
  6
CONTINUOUS
 10
0.327187
 20
0.817538
  0
VERTEX
  8
FOREGROUND
  6
CONTINUOUS
 10
0.320336
 20
0.815356
  0
VERTEX
  8
FOREGROUND
  6
CONTINUOUS
 10
0.313540
 20
0.813053
  0
VERTEX
  8
FOREGROUND
  6
CONTINUOUS
 10
0.306800
 20
0.810631
  0
VERTEX
  8
FOREGROUND
  6
CONTINUOUS
 10
0.300118
 20
0.808091
  0
VERTEX
  8
FOREGROUND
  6
CONTINUOUS
 10
0.293495
 20
0.805433
  0
VERTEX
  8
FOREGROUND
  6
CONTINUOUS
 10
0.286932
 20
0.802660
  0
VERTEX
  8
FOREGROUND
  6
CONTINUOUS
 10
0.280430
 20
0.799773
  0
VERTEX
  8
FOREGROUND
  6
CONTINUOUS
 10
0.273991
 20
0.796772
  0
VERTEX
  8
FOREGROUND
  6
CONTINUOUS
 10
0.267616
 20
0.793660
  0
VERTEX
  8
FOREGROUND
  6
CONTINUOUS
 10
0.261306
 20
0.790437
  0
VERTEX
  8
FOREGROUND
  6
CONTINUOUS
 10
0.255063
 20
0.787104
  0
VERTEX
  8
FOREGROUND
  6
CONTINUOUS
 10
0.248887
 20
0.783664
  0
VERTEX
  8
FOREGROUND
  6
CONTINUOUS
 10
0.242780
 20
0.780117
  0
VERTEX
  8
FOREGROUND
  6
CONTINUOUS
 10
0.236744
 20
0.776464
  0
VERTEX
  8
FOREGROUND
  6
CONTINUOUS
 10
0.230779
 20
0.772707
  0
VERTEX
  8
FOREGROUND
  6
CONTINUOUS
 10
0.224887
 20
0.768847
  0
VERTEX
  8
FOREGROUND
  6
CONTINUOUS
 10
0.219069
 20
0.764885
  0
VERTEX
  8
FOREGROUND
  6
CONTINUOUS
 10
0.213327
 20
0.760822
  0
VERTEX
  8
FOREGROUND
  6
CONTINUOUS
 10
0.207661
 20
0.756661
  0
VERTEX
  8
FOREGROUND
  6
CONTINUOUS
 10
0.202073
 20
0.752401
  0
VERTEX
  8
FOREGROUND
  6
CONTINUOUS
 10
0.196564
 20
0.748045
  0
VERTEX
  8
FOREGROUND
  6
CONTINUOUS
 10
0.191136
 20
0.743594
  0
VERTEX
  8
FOREGROUND
  6
CONTINUOUS
 10
0.185789
 20
0.739048
  0
VERTEX
  8
FOREGROUND
  6
CONTINUOUS
 10
0.180525
 20
0.734409
  0
VERTEX
  8
FOREGROUND
  6
CONTINUOUS
 10
0.175346
 20
0.729679
  0
VERTEX
  8
FOREGROUND
  6
CONTINUOUS
 10
0.170252
 20
0.724858
  0
VERTEX
  8
FOREGROUND
  6
CONTINUOUS
 10
0.165244
 20
0.719948
  0
VERTEX
  8
FOREGROUND
  6
CONTINUOUS
 10
0.160325
 20
0.714951
  0
VERTEX
  8
FOREGROUND
  6
CONTINUOUS
 10
0.155495
 20
0.709867
  0
VERTEX
  8
FOREGROUND
  6
CONTINUOUS
 10
0.150756
 20
0.704697
  0
VERTEX
  8
FOREGROUND
  6
CONTINUOUS
 10
0.146108
 20
0.699444
  0
VERTEX
  8
FOREGROUND
  6
CONTINUOUS
 10
0.141554
 20
0.694108
  0
VERTEX
  8
FOREGROUND
  6
CONTINUOUS
 10
0.137094
 20
0.688690
  0
VERTEX
  8
FOREGROUND
  6
CONTINUOUS
 10
0.132729
 20
0.683192
  0
VERTEX
  8
FOREGROUND
  6
CONTINUOUS
 10
0.128462
 20
0.677615
  0
VERTEX
  8
FOREGROUND
  6
CONTINUOUS
 10
0.124292
 20
0.671960
  0
VERTEX
  8
FOREGROUND
  6
CONTINUOUS
 10
0.120223
 20
0.666229
  0
VERTEX
  8
FOREGROUND
  6
CONTINUOUS
 10
0.116253
 20
0.660423
  0
VERTEX
  8
FOREGROUND
  6
CONTINUOUS
 10
0.112386
 20
0.654543
  0
VERTEX
  8
FOREGROUND
  6
CONTINUOUS
 10
0.108622
 20
0.648590
  0
VERTEX
  8
FOREGROUND
  6
CONTINUOUS
 10
0.104963
 20
0.642566
  0
VERTEX
  8
FOREGROUND
  6
CONTINUOUS
 10
0.101409
 20
0.636471
  0
VERTEX
  8
FOREGROUND
  6
CONTINUOUS
 10
0.097962
 20
0.630308
  0
VERTEX
  8
FOREGROUND
  6
CONTINUOUS
 10
0.094624
 20
0.624077
  0
VERTEX
  8
FOREGROUND
  6
CONTINUOUS
 10
0.091395
 20
0.617780
  0
VERTEX
  8
FOREGROUND
  6
CONTINUOUS
 10
0.088278
 20
0.611418
  0
VERTEX
  8
FOREGROUND
  6
CONTINUOUS
 10
0.085272
 20
0.604992
  0
VERTEX
  8
FOREGROUND
  6
CONTINUOUS
 10
0.082379
 20
0.598504
  0
VERTEX
  8
FOREGROUND
  6
CONTINUOUS
 10
0.079602
 20
0.591954
  0
VERTEX
  8
FOREGROUND
  6
CONTINUOUS
 10
0.076940
 20
0.585344
  0
VERTEX
  8
FOREGROUND
  6
CONTINUOUS
 10
0.074395
 20
0.578676
  0
VERTEX
  8
FOREGROUND
  6
CONTINUOUS
 10
0.071969
 20
0.571950
  0
VERTEX
  8
FOREGROUND
  6
CONTINUOUS
 10
0.069663
 20
0.565168
  0
VERTEX
  8
FOREGROUND
  6
CONTINUOUS
 10
0.067477
 20
0.558331
  0
VERTEX
  8
FOREGROUND
  6
CONTINUOUS
 10
0.065414
 20
0.551440
  0
VERTEX
  8
FOREGROUND
  6
CONTINUOUS
 10
0.063474
 20
0.544497
  0
VERTEX
  8
FOREGROUND
  6
CONTINUOUS
 10
0.061660
 20
0.537503
  0
VERTEX
  8
FOREGROUND
  6
CONTINUOUS
 10
0.059971
 20
0.530459
  0
VERTEX
  8
FOREGROUND
  6
CONTINUOUS
 10
0.058409
 20
0.523366
  0
VERTEX
  8
FOREGROUND
  6
CONTINUOUS
 10
0.056977
 20
0.516226
  0
VERTEX
  8
FOREGROUND
  6
CONTINUOUS
 10
0.055674
 20
0.509040
  0
VERTEX
  8
FOREGROUND
  6
CONTINUOUS
 10
0.054502
 20
0.501809
  0
VERTEX
  8
FOREGROUND
  6
CONTINUOUS
 10
0.053462
 20
0.494534
  0
VERTEX
  8
FOREGROUND
  6
CONTINUOUS
 10
0.052557
 20
0.487218
  0
VERTEX
  8
FOREGROUND
  6
CONTINUOUS
 10
0.051786
 20
0.479860
  0
VERTEX
  8
FOREGROUND
  6
CONTINUOUS
 10
0.051151
 20
0.472462
  0
VERTEX
  8
FOREGROUND
  6
CONTINUOUS
 10
0.050654
 20
0.465026
  0
VERTEX
  8
FOREGROUND
  6
CONTINUOUS
 10
0.050296
 20
0.457553
  0
VERTEX
  8
FOREGROUND
  6
CONTINUOUS
 10
0.050077
 20
0.450044
  0
VERTEX
  8
FOREGROUND
  6
CONTINUOUS
 10
0.050000
 20
0.442500
  0
VERTEX
  8
FOREGROUND
  6
CONTINUOUS
 10
0.050000
 20
0.442500
  0
VERTEX
  8
FOREGROUND
  6
CONTINUOUS
 10
0.050077
 20
0.434955
  0
VERTEX
  8
FOREGROUND
  6
CONTINUOUS
 10
0.050296
 20
0.427445
  0
VERTEX
  8
FOREGROUND
  6
CONTINUOUS
 10
0.050654
 20
0.419971
  0
VERTEX
  8
FOREGROUND
  6
CONTINUOUS
 10
0.051151
 20
0.412534
  0
VERTEX
  8
FOREGROUND
  6
CONTINUOUS
 10
0.051786
 20
0.405135
  0
VERTEX
  8
FOREGROUND
  6
CONTINUOUS
 10
0.052557
 20
0.397777
  0
VERTEX
  8
FOREGROUND
  6
CONTINUOUS
 10
0.053463
 20
0.390459
  0
VERTEX
  8
FOREGROUND
  6
CONTINUOUS
 10
0.054503
 20
0.383184
  0
VERTEX
  8
FOREGROUND
  6
CONTINUOUS
 10
0.055675
 20
0.375952
  0
VERTEX
  8
FOREGROUND
  6
CONTINUOUS
 10
0.056978
 20
0.368765
  0
VERTEX
  8
FOREGROUND
  6
CONTINUOUS
 10
0.058411
 20
0.361624
  0
VERTEX
  8
FOREGROUND
  6
CONTINUOUS
 10
0.059973
 20
0.354530
  0
VERTEX
  8
FOREGROUND
  6
CONTINUOUS
 10
0.061662
 20
0.347485
  0
VERTEX
  8
FOREGROUND
  6
CONTINUOUS
 10
0.063477
 20
0.340490
  0
VERTEX
  8
FOREGROUND
  6
CONTINUOUS
 10
0.065418
 20
0.333546
  0
VERTEX
  8
FOREGROUND
  6
CONTINUOUS
 10
0.067481
 20
0.326655
  0
VERTEX
  8
FOREGROUND
  6
CONTINUOUS
 10
0.069667
 20
0.319817
  0
VERTEX
  8
FOREGROUND
  6
CONTINUOUS
 10
0.071974
 20
0.313034
  0
VERTEX
  8
FOREGROUND
  6
CONTINUOUS
 10
0.074401
 20
0.306308
  0
VERTEX
  8
FOREGROUND
  6
CONTINUOUS
 10
0.076946
 20
0.299639
  0
VERTEX
  8
FOREGROUND
  6
CONTINUOUS
 10
0.079608
 20
0.293028
  0
VERTEX
  8
FOREGROUND
  6
CONTINUOUS
 10
0.082387
 20
0.286478
  0
VERTEX
  8
FOREGROUND
  6
CONTINUOUS
 10
0.085280
 20
0.279989
  0
VERTEX
  8
FOREGROUND
  6
CONTINUOUS
 10
0.088286
 20
0.273562
  0
VERTEX
  8
FOREGROUND
  6
CONTINUOUS
 10
0.091405
 20
0.267200
  0
VERTEX
  8
FOREGROUND
  6
CONTINUOUS
 10
0.094634
 20
0.260902
  0
VERTEX
  8
FOREGROUND
  6
CONTINUOUS
 10
0.097973
 20
0.254671
  0
VERTEX
  8
FOREGROUND
  6
CONTINUOUS
 10
0.101421
 20
0.248507
  0
VERTEX
  8
FOREGROUND
  6
CONTINUOUS
 10
0.104975
 20
0.242412
  0
VERTEX
  8
FOREGROUND
  6
CONTINUOUS
 10
0.108635
 20
0.236388
  0
VERTEX
  8
FOREGROUND
  6
CONTINUOUS
 10
0.112400
 20
0.230434
  0
VERTEX
  8
FOREGROUND
  6
CONTINUOUS
 10
0.116268
 20
0.224554
  0
VERTEX
  8
FOREGROUND
  6
CONTINUOUS
 10
0.120238
 20
0.218747
  0
VERTEX
  8
FOREGROUND
  6
CONTINUOUS
 10
0.124309
 20
0.213016
  0
VERTEX
  8
FOREGROUND
  6
CONTINUOUS
 10
0.128479
 20
0.207361
  0
VERTEX
  8
FOREGROUND
  6
CONTINUOUS
 10
0.132748
 20
0.201783
  0
VERTEX
  8
FOREGROUND
  6
CONTINUOUS
 10
0.137113
 20
0.196285
  0
VERTEX
  8
FOREGROUND
  6
CONTINUOUS
 10
0.141574
 20
0.190867
  0
VERTEX
  8
FOREGROUND
  6
CONTINUOUS
 10
0.146129
 20
0.185531
  0
VERTEX
  8
FOREGROUND
  6
CONTINUOUS
 10
0.150778
 20
0.180277
  0
VERTEX
  8
FOREGROUND
  6
CONTINUOUS
 10
0.155518
 20
0.175107
  0
VERTEX
  8
FOREGROUND
  6
CONTINUOUS
 10
0.160349
 20
0.170023
  0
VERTEX
  8
FOREGROUND
  6
CONTINUOUS
 10
0.165270
 20
0.165025
  0
VERTEX
  8
FOREGROUND
  6
CONTINUOUS
 10
0.170278
 20
0.160116
  0
VERTEX
  8
FOREGROUND
  6
CONTINUOUS
 10
0.175373
 20
0.155295
  0
VERTEX
  8
FOREGROUND
  6
CONTINUOUS
 10
0.180554
 20
0.150564
  0
VERTEX
  8
FOREGROUND
  6
CONTINUOUS
 10
0.185818
 20
0.145926
  0
VERTEX
  8
FOREGROUND
  6
CONTINUOUS
 10
0.191166
 20
0.141380
  0
VERTEX
  8
FOREGROUND
  6
CONTINUOUS
 10
0.196596
 20
0.136929
  0
VERTEX
  8
FOREGROUND
  6
CONTINUOUS
 10
0.202106
 20
0.132572
  0
VERTEX
  8
FOREGROUND
  6
CONTINUOUS
 10
0.207695
 20
0.128313
  0
VERTEX
  8
FOREGROUND
  6
CONTINUOUS
 10
0.213362
 20
0.124152
  0
VERTEX
  8
FOREGROUND
  6
CONTINUOUS
 10
0.219105
 20
0.120089
  0
VERTEX
  8
FOREGROUND
  6
CONTINUOUS
 10
0.224924
 20
0.116128
  0
VERTEX
  8
FOREGROUND
  6
CONTINUOUS
 10
0.230817
 20
0.112268
  0
VERTEX
  8
FOREGROUND
  6
CONTINUOUS
 10
0.236783
 20
0.108511
  0
VERTEX
  8
FOREGROUND
  6
CONTINUOUS
 10
0.242821
 20
0.104859
  0
VERTEX
  8
FOREGROUND
  6
CONTINUOUS
 10
0.248929
 20
0.101312
  0
VERTEX
  8
FOREGROUND
  6
CONTINUOUS
 10
0.255105
 20
0.097872
  0
VERTEX
  8
FOREGROUND
  6
CONTINUOUS
 10
0.261350
 20
0.094540
  0
VERTEX
  8
FOREGROUND
  6
CONTINUOUS
 10
0.267661
 20
0.091317
  0
VERTEX
  8
FOREGROUND
  6
CONTINUOUS
 10
0.274037
 20
0.088205
  0
VERTEX
  8
FOREGROUND
  6
CONTINUOUS
 10
0.280477
 20
0.085205
  0
VERTEX
  8
FOREGROUND
  6
CONTINUOUS
 10
0.286980
 20
0.082318
  0
VERTEX
  8
FOREGROUND
  6
CONTINUOUS
 10
0.293544
 20
0.079546
  0
VERTEX
  8
FOREGROUND
  6
CONTINUOUS
 10
0.300169
 20
0.076889
  0
VERTEX
  8
FOREGROUND
  6
CONTINUOUS
 10
0.306852
 20
0.074349
  0
VERTEX
  8
FOREGROUND
  6
CONTINUOUS
 10
0.313593
 20
0.071927
  0
VERTEX
  8
FOREGROUND
  6
CONTINUOUS
 10
0.320390
 20
0.069625
  0
VERTEX
  8
FOREGROUND
  6
CONTINUOUS
 10
0.327242
 20
0.067444
  0
VERTEX
  8
FOREGROUND
  6
CONTINUOUS
 10
0.334148
 20
0.065385
  0
VERTEX
  8
FOREGROUND
  6
CONTINUOUS
 10
0.341107
 20
0.063449
  0
VERTEX
  8
FOREGROUND
  6
CONTINUOUS
 10
0.348117
 20
0.061637
  0
VERTEX
  8
FOREGROUND
  6
CONTINUOUS
 10
0.355177
 20
0.059952
  0
VERTEX
  8
FOREGROUND
  6
CONTINUOUS
 10
0.362285
 20
0.058393
  0
VERTEX
  8
FOREGROUND
  6
CONTINUOUS
 10
0.369442
 20
0.056963
  0
VERTEX
  8
FOREGROUND
  6
CONTINUOUS
 10
0.376644
 20
0.055663
  0
VERTEX
  8
FOREGROUND
  6
CONTINUOUS
 10
0.383891
 20
0.054493
  0
VERTEX
  8
FOREGROUND
  6
CONTINUOUS
 10
0.391182
 20
0.053456
  0
VERTEX
  8
FOREGROUND
  6
CONTINUOUS
 10
0.398515
 20
0.052552
  0
VERTEX
  8
FOREGROUND
  6
CONTINUOUS
 10
0.405889
 20
0.051782
  0
VERTEX
  8
FOREGROUND
  6
CONTINUOUS
 10
0.413303
 20
0.051149
  0
VERTEX
  8
FOREGROUND
  6
CONTINUOUS
 10
0.420756
 20
0.050653
  0
VERTEX
  8
FOREGROUND
  6
CONTINUOUS
 10
0.428246
 20
0.050295
  0
VERTEX
  8
FOREGROUND
  6
CONTINUOUS
 10
0.435772
 20
0.050077
  0
VERTEX
  8
FOREGROUND
  6
CONTINUOUS
 10
0.443333
 20
0.050000
  0
SEQEND
  8
0
  0
ENDSEC
  0
EOF
