  0
SECTION
  2
HEADER
  9
$ACADVER
  1
AC1006
  9
$EXTMIN
 10
0.000000
 20
0.000000
  9
$EXTMAX
 10
1.880000
 20
1.280000
  9
$LTSCALE
 40
0.166667
  9
$PDMODE
 70
    35
  9
$PDSIZE
 40
0.133333
  0
ENDSEC
  0
SECTION
  2
TABLES
  0
TABLE
  2
LTYPE
 70
     9
  0
LTYPE
  2
CONTINUOUS
 70
    64
  3
Solid line
 72
    65
 73
     0
 40
0.000000
  0
LTYPE
  2
DASHED
 70
    64
  3
__ __ __ __ __ __ __ __ __ __ __ __ __ __ __
 72
    65
 73
     2
 40
0.001250
 49
0.000833
 49
-0.000417
  0
LTYPE
  2
HIDDEN
 70
    64
  3
 _ _ _ _ _ _ _ _ _ _ _ _ _ _ _ _ _ _ _ _ _ _
 72
    65
 73
     2
 40
0.000625
 49
0.000417
 49
-0.000208
  0
LTYPE
  2
CENTER
 70
    64
  3
____ _ ____ _ ____ _ ____ _ ____ _ ____ _ ____
 72
    65
 73
     4
 40
0.003333
 49
0.002083
 49
-0.000417
 49
0.000417
 49
-0.000417
  0
LTYPE
  2
PHANTOM
 70
    64
  3
_____ _ _ _____ _ _ _____ _ _ _____ _ _ ____
 72
    65
 73
     6
 40
0.004167
 49
0.002083
 49
-0.000417
 49
0.000417
 49
-0.000417
 49
0.000417
 49
-0.000417
  0
LTYPE
  2
DOT
 70
    64
  3
...............................................
 72
    65
 73
     2
 40
0.000417
 49
0.000000
 49
-0.000417
  0
LTYPE
  2
DASHDOT
 70
    64
  3
__ . __ . __ . __ . __ . __ . __ . __ . __ . __
 72
    65
 73
     4
 40
0.001667
 49
0.000833
 49
-0.000417
 49
0.000000
 49
-0.000417
  0
LTYPE
  2
BORDER
 70
    64
  3
__ __ . __ __ . __ __ . __ __ . __ __ . __ __
 72
    65
 73
     6
 40
0.002917
 49
0.000833
 49
-0.000417
 49
0.000833
 49
-0.000417
 49
0.000000
 49
-0.000417
  0
LTYPE
  2
DIVIDE
 70
    64
  3
__ . . __ . . __ . . __ . . __ . . __ . . __
 72
    65
 73
     6
 40
0.002083
 49
0.000833
 49
-0.000417
 49
0.000000
 49
-0.000417
 49
0.000000
 49
-0.000417
  0
LTYPE
  2
DOTDOT
 70
    64
  3
 . .  . .  . .  . .  . .  . . 
 72
    65
 73
     5
 40
0.000917
 49
-0.000417
 49
0.000000
 49
-0.000417
 49
0.000000
 49
-0.000417
  0
ENDTAB
  0
TABLE
  2
STYLE
 70
     2
  0
STYLE
 70
     0
  2
SN0
 40
0.000000
 41
0.001667
 50
0.000000
 71
     0
 42
0.000000
  3
ROMAND
  0
STYLE
 70
    68
  2
SV0
 40
0.000000
 41
0.001667
 50
0.000000
 71
     0
 42
0.000000
  3
ROMAND
  0
ENDTAB
  0
TABLE
  2
LAYER
 70
     2
  0
LAYER
  2
FOREGROUND
 70
    64
 62
     7
  6
CONTINUOUS
  0
LAYER
  2
BACKGROUND
 70
    65
 62
    -7
  6
CONTINUOUS
  0
ENDTAB
  0
ENDSEC
  0
SECTION
  2
ENTITIES
  0
POLYLINE
  8
FOREGROUND
  6
CONTINUOUS
 66
     1
 40
0.010000
 41
0.010000
 70
     1
  0
VERTEX
  8
FOREGROUND
  6
CONTINUOUS
 10
1.240000
 20
0.050000
  0
VERTEX
  8
FOREGROUND
  6
CONTINUOUS
 10
1.250960
 20
0.050108
  0
VERTEX
  8
FOREGROUND
  6
CONTINUOUS
 10
1.261871
 20
0.050415
  0
VERTEX
  8
FOREGROUND
  6
CONTINUOUS
 10
1.272732
 20
0.050917
  0
VERTEX
  8
FOREGROUND
  6
CONTINUOUS
 10
1.283541
 20
0.051614
  0
VERTEX
  8
FOREGROUND
  6
CONTINUOUS
 10
1.294296
 20
0.052504
  0
VERTEX
  8
FOREGROUND
  6
CONTINUOUS
 10
1.304995
 20
0.053585
  0
VERTEX
  8
FOREGROUND
  6
CONTINUOUS
 10
1.315638
 20
0.054856
  0
VERTEX
  8
FOREGROUND
  6
CONTINUOUS
 10
1.326221
 20
0.056314
  0
VERTEX
  8
FOREGROUND
  6
CONTINUOUS
 10
1.336744
 20
0.057958
  0
VERTEX
  8
FOREGROUND
  6
CONTINUOUS
 10
1.347204
 20
0.059786
  0
VERTEX
  8
FOREGROUND
  6
CONTINUOUS
 10
1.357600
 20
0.061797
  0
VERTEX
  8
FOREGROUND
  6
CONTINUOUS
 10
1.367930
 20
0.063989
  0
VERTEX
  8
FOREGROUND
  6
CONTINUOUS
 10
1.378193
 20
0.066360
  0
VERTEX
  8
FOREGROUND
  6
CONTINUOUS
 10
1.388387
 20
0.068908
  0
VERTEX
  8
FOREGROUND
  6
CONTINUOUS
 10
1.398509
 20
0.071632
  0
VERTEX
  8
FOREGROUND
  6
CONTINUOUS
 10
1.408559
 20
0.074529
  0
VERTEX
  8
FOREGROUND
  6
CONTINUOUS
 10
1.418535
 20
0.077599
  0
VERTEX
  8
FOREGROUND
  6
CONTINUOUS
 10
1.428434
 20
0.080840
  0
VERTEX
  8
FOREGROUND
  6
CONTINUOUS
 10
1.438256
 20
0.084249
  0
VERTEX
  8
FOREGROUND
  6
CONTINUOUS
 10
1.447998
 20
0.087826
  0
VERTEX
  8
FOREGROUND
  6
CONTINUOUS
 10
1.457659
 20
0.091567
  0
VERTEX
  8
FOREGROUND
  6
CONTINUOUS
 10
1.467237
 20
0.095473
  0
VERTEX
  8
FOREGROUND
  6
CONTINUOUS
 10
1.476730
 20
0.099540
  0
VERTEX
  8
FOREGROUND
  6
CONTINUOUS
 10
1.486137
 20
0.103768
  0
VERTEX
  8
FOREGROUND
  6
CONTINUOUS
 10
1.495455
 20
0.108154
  0
VERTEX
  8
FOREGROUND
  6
CONTINUOUS
 10
1.504684
 20
0.112697
  0
VERTEX
  8
FOREGROUND
  6
CONTINUOUS
 10
1.513821
 20
0.117395
  0
VERTEX
  8
FOREGROUND
  6
CONTINUOUS
 10
1.522865
 20
0.122246
  0
VERTEX
  8
FOREGROUND
  6
CONTINUOUS
 10
1.531814
 20
0.127249
  0
VERTEX
  8
FOREGROUND
  6
CONTINUOUS
 10
1.540666
 20
0.132402
  0
VERTEX
  8
FOREGROUND
  6
CONTINUOUS
 10
1.549420
 20
0.137703
  0
VERTEX
  8
FOREGROUND
  6
CONTINUOUS
 10
1.558074
 20
0.143150
  0
VERTEX
  8
FOREGROUND
  6
CONTINUOUS
 10
1.566626
 20
0.148743
  0
VERTEX
  8
FOREGROUND
  6
CONTINUOUS
 10
1.575074
 20
0.154478
  0
VERTEX
  8
FOREGROUND
  6
CONTINUOUS
 10
1.583417
 20
0.160355
  0
VERTEX
  8
FOREGROUND
  6
CONTINUOUS
 10
1.591653
 20
0.166371
  0
VERTEX
  8
FOREGROUND
  6
CONTINUOUS
 10
1.599780
 20
0.172525
  0
VERTEX
  8
FOREGROUND
  6
CONTINUOUS
 10
1.607797
 20
0.178816
  0
VERTEX
  8
FOREGROUND
  6
CONTINUOUS
 10
1.615702
 20
0.185241
  0
VERTEX
  8
FOREGROUND
  6
CONTINUOUS
 10
1.623492
 20
0.191798
  0
VERTEX
  8
FOREGROUND
  6
CONTINUOUS
 10
1.631168
 20
0.198487
  0
VERTEX
  8
FOREGROUND
  6
CONTINUOUS
 10
1.638725
 20
0.205305
  0
VERTEX
  8
FOREGROUND
  6
CONTINUOUS
 10
1.646164
 20
0.212250
  0
VERTEX
  8
FOREGROUND
  6
CONTINUOUS
 10
1.653482
 20
0.219322
  0
VERTEX
  8
FOREGROUND
  6
CONTINUOUS
 10
1.660678
 20
0.226518
  0
VERTEX
  8
FOREGROUND
  6
CONTINUOUS
 10
1.667750
 20
0.233836
  0
VERTEX
  8
FOREGROUND
  6
CONTINUOUS
 10
1.674695
 20
0.241275
  0
VERTEX
  8
FOREGROUND
  6
CONTINUOUS
 10
1.681513
 20
0.248832
  0
VERTEX
  8
FOREGROUND
  6
CONTINUOUS
 10
1.688202
 20
0.256508
  0
VERTEX
  8
FOREGROUND
  6
CONTINUOUS
 10
1.694759
 20
0.264298
  0
VERTEX
  8
FOREGROUND
  6
CONTINUOUS
 10
1.701184
 20
0.272203
  0
VERTEX
  8
FOREGROUND
  6
CONTINUOUS
 10
1.707475
 20
0.280220
  0
VERTEX
  8
FOREGROUND
  6
CONTINUOUS
 10
1.713629
 20
0.288347
  0
VERTEX
  8
FOREGROUND
  6
CONTINUOUS
 10
1.719645
 20
0.296583
  0
VERTEX
  8
FOREGROUND
  6
CONTINUOUS
 10
1.725522
 20
0.304926
  0
VERTEX
  8
FOREGROUND
  6
CONTINUOUS
 10
1.731257
 20
0.313374
  0
VERTEX
  8
FOREGROUND
  6
CONTINUOUS
 10
1.736850
 20
0.321926
  0
VERTEX
  8
FOREGROUND
  6
CONTINUOUS
 10
1.742297
 20
0.330580
  0
VERTEX
  8
FOREGROUND
  6
CONTINUOUS
 10
1.747598
 20
0.339334
  0
VERTEX
  8
FOREGROUND
  6
CONTINUOUS
 10
1.752751
 20
0.348186
  0
VERTEX
  8
FOREGROUND
  6
CONTINUOUS
 10
1.757754
 20
0.357135
  0
VERTEX
  8
FOREGROUND
  6
CONTINUOUS
 10
1.762605
 20
0.366179
  0
VERTEX
  8
FOREGROUND
  6
CONTINUOUS
 10
1.767303
 20
0.375316
  0
VERTEX
  8
FOREGROUND
  6
CONTINUOUS
 10
1.771846
 20
0.384545
  0
VERTEX
  8
FOREGROUND
  6
CONTINUOUS
 10
1.776232
 20
0.393863
  0
VERTEX
  8
FOREGROUND
  6
CONTINUOUS
 10
1.780460
 20
0.403270
  0
VERTEX
  8
FOREGROUND
  6
CONTINUOUS
 10
1.784527
 20
0.412763
  0
VERTEX
  8
FOREGROUND
  6
CONTINUOUS
 10
1.788433
 20
0.422341
  0
VERTEX
  8
FOREGROUND
  6
CONTINUOUS
 10
1.792174
 20
0.432002
  0
VERTEX
  8
FOREGROUND
  6
CONTINUOUS
 10
1.795751
 20
0.441744
  0
VERTEX
  8
FOREGROUND
  6
CONTINUOUS
 10
1.799160
 20
0.451566
  0
VERTEX
  8
FOREGROUND
  6
CONTINUOUS
 10
1.802401
 20
0.461465
  0
VERTEX
  8
FOREGROUND
  6
CONTINUOUS
 10
1.805471
 20
0.471441
  0
VERTEX
  8
FOREGROUND
  6
CONTINUOUS
 10
1.808368
 20
0.481491
  0
VERTEX
  8
FOREGROUND
  6
CONTINUOUS
 10
1.811092
 20
0.491613
  0
VERTEX
  8
FOREGROUND
  6
CONTINUOUS
 10
1.813640
 20
0.501807
  0
VERTEX
  8
FOREGROUND
  6
CONTINUOUS
 10
1.816011
 20
0.512070
  0
VERTEX
  8
FOREGROUND
  6
CONTINUOUS
 10
1.818203
 20
0.522400
  0
VERTEX
  8
FOREGROUND
  6
CONTINUOUS
 10
1.820214
 20
0.532796
  0
VERTEX
  8
FOREGROUND
  6
CONTINUOUS
 10
1.822042
 20
0.543256
  0
VERTEX
  8
FOREGROUND
  6
CONTINUOUS
 10
1.823686
 20
0.553779
  0
VERTEX
  8
FOREGROUND
  6
CONTINUOUS
 10
1.825144
 20
0.564362
  0
VERTEX
  8
FOREGROUND
  6
CONTINUOUS
 10
1.826415
 20
0.575005
  0
VERTEX
  8
FOREGROUND
  6
CONTINUOUS
 10
1.827496
 20
0.585704
  0
VERTEX
  8
FOREGROUND
  6
CONTINUOUS
 10
1.828386
 20
0.596459
  0
VERTEX
  8
FOREGROUND
  6
CONTINUOUS
 10
1.829083
 20
0.607268
  0
VERTEX
  8
FOREGROUND
  6
CONTINUOUS
 10
1.829585
 20
0.618129
  0
VERTEX
  8
FOREGROUND
  6
CONTINUOUS
 10
1.829892
 20
0.629040
  0
VERTEX
  8
FOREGROUND
  6
CONTINUOUS
 10
1.830000
 20
0.640000
  0
VERTEX
  8
FOREGROUND
  6
CONTINUOUS
 10
1.830000
 20
0.640000
  0
VERTEX
  8
FOREGROUND
  6
CONTINUOUS
 10
1.829892
 20
0.650961
  0
VERTEX
  8
FOREGROUND
  6
CONTINUOUS
 10
1.829585
 20
0.661874
  0
VERTEX
  8
FOREGROUND
  6
CONTINUOUS
 10
1.829083
 20
0.672736
  0
VERTEX
  8
FOREGROUND
  6
CONTINUOUS
 10
1.828385
 20
0.683546
  0
VERTEX
  8
FOREGROUND
  6
CONTINUOUS
 10
1.827495
 20
0.694303
  0
VERTEX
  8
FOREGROUND
  6
CONTINUOUS
 10
1.826414
 20
0.705004
  0
VERTEX
  8
FOREGROUND
  6
CONTINUOUS
 10
1.825143
 20
0.715647
  0
VERTEX
  8
FOREGROUND
  6
CONTINUOUS
 10
1.823685
 20
0.726232
  0
VERTEX
  8
FOREGROUND
  6
CONTINUOUS
 10
1.822040
 20
0.736756
  0
VERTEX
  8
FOREGROUND
  6
CONTINUOUS
 10
1.820211
 20
0.747217
  0
VERTEX
  8
FOREGROUND
  6
CONTINUOUS
 10
1.818200
 20
0.757615
  0
VERTEX
  8
FOREGROUND
  6
CONTINUOUS
 10
1.816008
 20
0.767946
  0
VERTEX
  8
FOREGROUND
  6
CONTINUOUS
 10
1.813636
 20
0.778210
  0
VERTEX
  8
FOREGROUND
  6
CONTINUOUS
 10
1.811088
 20
0.788405
  0
VERTEX
  8
FOREGROUND
  6
CONTINUOUS
 10
1.808363
 20
0.798529
  0
VERTEX
  8
FOREGROUND
  6
CONTINUOUS
 10
1.805465
 20
0.808580
  0
VERTEX
  8
FOREGROUND
  6
CONTINUOUS
 10
1.802394
 20
0.818556
  0
VERTEX
  8
FOREGROUND
  6
CONTINUOUS
 10
1.799153
 20
0.828457
  0
VERTEX
  8
FOREGROUND
  6
CONTINUOUS
 10
1.795743
 20
0.838279
  0
VERTEX
  8
FOREGROUND
  6
CONTINUOUS
 10
1.792165
 20
0.848023
  0
VERTEX
  8
FOREGROUND
  6
CONTINUOUS
 10
1.788423
 20
0.857684
  0
VERTEX
  8
FOREGROUND
  6
CONTINUOUS
 10
1.784516
 20
0.867263
  0
VERTEX
  8
FOREGROUND
  6
CONTINUOUS
 10
1.780448
 20
0.876757
  0
VERTEX
  8
FOREGROUND
  6
CONTINUOUS
 10
1.776219
 20
0.886165
  0
VERTEX
  8
FOREGROUND
  6
CONTINUOUS
 10
1.771832
 20
0.895484
  0
VERTEX
  8
FOREGROUND
  6
CONTINUOUS
 10
1.767288
 20
0.904714
  0
VERTEX
  8
FOREGROUND
  6
CONTINUOUS
 10
1.762589
 20
0.913852
  0
VERTEX
  8
FOREGROUND
  6
CONTINUOUS
 10
1.757737
 20
0.922896
  0
VERTEX
  8
FOREGROUND
  6
CONTINUOUS
 10
1.752733
 20
0.931846
  0
VERTEX
  8
FOREGROUND
  6
CONTINUOUS
 10
1.747579
 20
0.940699
  0
VERTEX
  8
FOREGROUND
  6
CONTINUOUS
 10
1.742277
 20
0.949454
  0
VERTEX
  8
FOREGROUND
  6
CONTINUOUS
 10
1.736828
 20
0.958108
  0
VERTEX
  8
FOREGROUND
  6
CONTINUOUS
 10
1.731234
 20
0.966660
  0
VERTEX
  8
FOREGROUND
  6
CONTINUOUS
 10
1.725498
 20
0.975109
  0
VERTEX
  8
FOREGROUND
  6
CONTINUOUS
 10
1.719620
 20
0.983453
  0
VERTEX
  8
FOREGROUND
  6
CONTINUOUS
 10
1.713602
 20
0.991689
  0
VERTEX
  8
FOREGROUND
  6
CONTINUOUS
 10
1.707447
 20
0.999817
  0
VERTEX
  8
FOREGROUND
  6
CONTINUOUS
 10
1.701155
 20
1.007834
  0
VERTEX
  8
FOREGROUND
  6
CONTINUOUS
 10
1.694729
 20
1.015739
  0
VERTEX
  8
FOREGROUND
  6
CONTINUOUS
 10
1.688170
 20
1.023530
  0
VERTEX
  8
FOREGROUND
  6
CONTINUOUS
 10
1.681480
 20
1.031205
  0
VERTEX
  8
FOREGROUND
  6
CONTINUOUS
 10
1.674660
 20
1.038764
  0
VERTEX
  8
FOREGROUND
  6
CONTINUOUS
 10
1.667713
 20
1.046203
  0
VERTEX
  8
FOREGROUND
  6
CONTINUOUS
 10
1.660640
 20
1.053521
  0
VERTEX
  8
FOREGROUND
  6
CONTINUOUS
 10
1.653443
 20
1.060717
  0
VERTEX
  8
FOREGROUND
  6
CONTINUOUS
 10
1.646123
 20
1.067788
  0
VERTEX
  8
FOREGROUND
  6
CONTINUOUS
 10
1.638683
 20
1.074734
  0
VERTEX
  8
FOREGROUND
  6
CONTINUOUS
 10
1.631124
 20
1.081552
  0
VERTEX
  8
FOREGROUND
  6
CONTINUOUS
 10
1.623447
 20
1.088241
  0
VERTEX
  8
FOREGROUND
  6
CONTINUOUS
 10
1.615655
 20
1.094798
  0
VERTEX
  8
FOREGROUND
  6
CONTINUOUS
 10
1.607748
 20
1.101223
  0
VERTEX
  8
FOREGROUND
  6
CONTINUOUS
 10
1.599730
 20
1.107513
  0
VERTEX
  8
FOREGROUND
  6
CONTINUOUS
 10
1.591601
 20
1.113667
  0
VERTEX
  8
FOREGROUND
  6
CONTINUOUS
 10
1.583364
 20
1.119683
  0
VERTEX
  8
FOREGROUND
  6
CONTINUOUS
 10
1.575019
 20
1.125560
  0
VERTEX
  8
FOREGROUND
  6
CONTINUOUS
 10
1.566569
 20
1.131295
  0
VERTEX
  8
FOREGROUND
  6
CONTINUOUS
 10
1.558016
 20
1.136887
  0
VERTEX
  8
FOREGROUND
  6
CONTINUOUS
 10
1.549360
 20
1.142334
  0
VERTEX
  8
FOREGROUND
  6
CONTINUOUS
 10
1.540605
 20
1.147635
  0
VERTEX
  8
FOREGROUND
  6
CONTINUOUS
 10
1.531751
 20
1.152787
  0
VERTEX
  8
FOREGROUND
  6
CONTINUOUS
 10
1.522801
 20
1.157789
  0
VERTEX
  8
FOREGROUND
  6
CONTINUOUS
 10
1.513755
 20
1.162640
  0
VERTEX
  8
FOREGROUND
  6
CONTINUOUS
 10
1.504616
 20
1.167337
  0
VERTEX
  8
FOREGROUND
  6
CONTINUOUS
 10
1.495386
 20
1.171880
  0
VERTEX
  8
FOREGROUND
  6
CONTINUOUS
 10
1.486065
 20
1.176265
  0
VERTEX
  8
FOREGROUND
  6
CONTINUOUS
 10
1.476657
 20
1.180492
  0
VERTEX
  8
FOREGROUND
  6
CONTINUOUS
 10
1.467162
 20
1.184558
  0
VERTEX
  8
FOREGROUND
  6
CONTINUOUS
 10
1.457583
 20
1.188463
  0
VERTEX
  8
FOREGROUND
  6
CONTINUOUS
 10
1.447920
 20
1.192204
  0
VERTEX
  8
FOREGROUND
  6
CONTINUOUS
 10
1.438176
 20
1.195779
  0
VERTEX
  8
FOREGROUND
  6
CONTINUOUS
 10
1.428353
 20
1.199188
  0
VERTEX
  8
FOREGROUND
  6
CONTINUOUS
 10
1.418452
 20
1.202427
  0
VERTEX
  8
FOREGROUND
  6
CONTINUOUS
 10
1.408475
 20
1.205496
  0
VERTEX
  8
FOREGROUND
  6
CONTINUOUS
 10
1.398423
 20
1.208393
  0
VERTEX
  8
FOREGROUND
  6
CONTINUOUS
 10
1.388299
 20
1.211115
  0
VERTEX
  8
FOREGROUND
  6
CONTINUOUS
 10
1.378104
 20
1.213662
  0
VERTEX
  8
FOREGROUND
  6
CONTINUOUS
 10
1.367839
 20
1.216031
  0
VERTEX
  8
FOREGROUND
  6
CONTINUOUS
 10
1.357507
 20
1.218222
  0
VERTEX
  8
FOREGROUND
  6
CONTINUOUS
 10
1.347110
 20
1.220231
  0
VERTEX
  8
FOREGROUND
  6
CONTINUOUS
 10
1.336648
 20
1.222058
  0
VERTEX
  8
FOREGROUND
  6
CONTINUOUS
 10
1.326124
 20
1.223701
  0
VERTEX
  8
FOREGROUND
  6
CONTINUOUS
 10
1.315539
 20
1.225157
  0
VERTEX
  8
FOREGROUND
  6
CONTINUOUS
 10
1.304895
 20
1.226426
  0
VERTEX
  8
FOREGROUND
  6
CONTINUOUS
 10
1.294194
 20
1.227505
  0
VERTEX
  8
FOREGROUND
  6
CONTINUOUS
 10
1.283437
 20
1.228393
  0
VERTEX
  8
FOREGROUND
  6
CONTINUOUS
 10
1.272627
 20
1.229089
  0
VERTEX
  8
FOREGROUND
  6
CONTINUOUS
 10
1.261765
 20
1.229589
  0
VERTEX
  8
FOREGROUND
  6
CONTINUOUS
 10
1.250852
 20
1.229894
  0
VERTEX
  8
FOREGROUND
  6
CONTINUOUS
 10
1.239891
 20
1.230000
  0
VERTEX
  8
FOREGROUND
  6
CONTINUOUS
 10
0.639891
 20
1.230000
  0
VERTEX
  8
FOREGROUND
  6
CONTINUOUS
 10
0.628932
 20
1.229890
  0
VERTEX
  8
FOREGROUND
  6
CONTINUOUS
 10
0.618022
 20
1.229581
  0
VERTEX
  8
FOREGROUND
  6
CONTINUOUS
 10
0.607163
 20
1.229077
  0
VERTEX
  8
FOREGROUND
  6
CONTINUOUS
 10
0.596356
 20
1.228378
  0
VERTEX
  8
FOREGROUND
  6
CONTINUOUS
 10
0.585602
 20
1.227486
  0
VERTEX
  8
FOREGROUND
  6
CONTINUOUS
 10
0.574904
 20
1.226404
  0
VERTEX
  8
FOREGROUND
  6
CONTINUOUS
 10
0.564264
 20
1.225132
  0
VERTEX
  8
FOREGROUND
  6
CONTINUOUS
 10
0.553682
 20
1.223672
  0
VERTEX
  8
FOREGROUND
  6
CONTINUOUS
 10
0.543161
 20
1.222026
  0
VERTEX
  8
FOREGROUND
  6
CONTINUOUS
 10
0.532702
 20
1.220196
  0
VERTEX
  8
FOREGROUND
  6
CONTINUOUS
 10
0.522307
 20
1.218184
  0
VERTEX
  8
FOREGROUND
  6
CONTINUOUS
 10
0.511979
 20
1.215991
  0
VERTEX
  8
FOREGROUND
  6
CONTINUOUS
 10
0.501717
 20
1.213619
  0
VERTEX
  8
FOREGROUND
  6
CONTINUOUS
 10
0.491525
 20
1.211069
  0
VERTEX
  8
FOREGROUND
  6
CONTINUOUS
 10
0.481404
 20
1.208344
  0
VERTEX
  8
FOREGROUND
  6
CONTINUOUS
 10
0.471356
 20
1.205445
  0
VERTEX
  8
FOREGROUND
  6
CONTINUOUS
 10
0.461382
 20
1.202374
  0
VERTEX
  8
FOREGROUND
  6
CONTINUOUS
 10
0.451484
 20
1.199133
  0
VERTEX
  8
FOREGROUND
  6
CONTINUOUS
 10
0.441664
 20
1.195722
  0
VERTEX
  8
FOREGROUND
  6
CONTINUOUS
 10
0.431924
 20
1.192145
  0
VERTEX
  8
FOREGROUND
  6
CONTINUOUS
 10
0.422265
 20
1.188402
  0
VERTEX
  8
FOREGROUND
  6
CONTINUOUS
 10
0.412689
 20
1.184496
  0
VERTEX
  8
FOREGROUND
  6
CONTINUOUS
 10
0.403197
 20
1.180428
  0
VERTEX
  8
FOREGROUND
  6
CONTINUOUS
 10
0.393792
 20
1.176199
  0
VERTEX
  8
FOREGROUND
  6
CONTINUOUS
 10
0.384475
 20
1.171813
  0
VERTEX
  8
FOREGROUND
  6
CONTINUOUS
 10
0.375248
 20
1.167269
  0
VERTEX
  8
FOREGROUND
  6
CONTINUOUS
 10
0.366112
 20
1.162570
  0
VERTEX
  8
FOREGROUND
  6
CONTINUOUS
 10
0.357070
 20
1.157719
  0
VERTEX
  8
FOREGROUND
  6
CONTINUOUS
 10
0.348123
 20
1.152715
  0
VERTEX
  8
FOREGROUND
  6
CONTINUOUS
 10
0.339272
 20
1.147562
  0
VERTEX
  8
FOREGROUND
  6
CONTINUOUS
 10
0.330520
 20
1.142260
  0
VERTEX
  8
FOREGROUND
  6
CONTINUOUS
 10
0.321868
 20
1.136812
  0
VERTEX
  8
FOREGROUND
  6
CONTINUOUS
 10
0.313318
 20
1.131220
  0
VERTEX
  8
FOREGROUND
  6
CONTINUOUS
 10
0.304871
 20
1.125484
  0
VERTEX
  8
FOREGROUND
  6
CONTINUOUS
 10
0.296530
 20
1.119607
  0
VERTEX
  8
FOREGROUND
  6
CONTINUOUS
 10
0.288295
 20
1.113590
  0
VERTEX
  8
FOREGROUND
  6
CONTINUOUS
 10
0.280170
 20
1.107436
  0
VERTEX
  8
FOREGROUND
  6
CONTINUOUS
 10
0.272154
 20
1.101146
  0
VERTEX
  8
FOREGROUND
  6
CONTINUOUS
 10
0.264251
 20
1.094721
  0
VERTEX
  8
FOREGROUND
  6
CONTINUOUS
 10
0.256462
 20
1.088163
  0
VERTEX
  8
FOREGROUND
  6
CONTINUOUS
 10
0.248788
 20
1.081474
  0
VERTEX
  8
FOREGROUND
  6
CONTINUOUS
 10
0.241232
 20
1.074656
  0
VERTEX
  8
FOREGROUND
  6
CONTINUOUS
 10
0.233795
 20
1.067711
  0
VERTEX
  8
FOREGROUND
  6
CONTINUOUS
 10
0.226478
 20
1.060639
  0
VERTEX
  8
FOREGROUND
  6
CONTINUOUS
 10
0.219284
 20
1.053444
  0
VERTEX
  8
FOREGROUND
  6
CONTINUOUS
 10
0.212214
 20
1.046126
  0
VERTEX
  8
FOREGROUND
  6
CONTINUOUS
 10
0.205270
 20
1.038687
  0
VERTEX
  8
FOREGROUND
  6
CONTINUOUS
 10
0.198453
 20
1.031130
  0
VERTEX
  8
FOREGROUND
  6
CONTINUOUS
 10
0.191766
 20
1.023455
  0
VERTEX
  8
FOREGROUND
  6
CONTINUOUS
 10
0.185210
 20
1.015664
  0
VERTEX
  8
FOREGROUND
  6
CONTINUOUS
 10
0.178786
 20
1.007760
  0
VERTEX
  8
FOREGROUND
  6
CONTINUOUS
 10
0.172497
 20
0.999744
  0
VERTEX
  8
FOREGROUND
  6
CONTINUOUS
 10
0.166344
 20
0.991617
  0
VERTEX
  8
FOREGROUND
  6
CONTINUOUS
 10
0.160329
 20
0.983382
  0
VERTEX
  8
FOREGROUND
  6
CONTINUOUS
 10
0.154454
 20
0.975039
  0
VERTEX
  8
FOREGROUND
  6
CONTINUOUS
 10
0.148720
 20
0.966591
  0
VERTEX
  8
FOREGROUND
  6
CONTINUOUS
 10
0.143129
 20
0.958040
  0
VERTEX
  8
FOREGROUND
  6
CONTINUOUS
 10
0.137682
 20
0.949387
  0
VERTEX
  8
FOREGROUND
  6
CONTINUOUS
 10
0.132383
 20
0.940634
  0
VERTEX
  8
FOREGROUND
  6
CONTINUOUS
 10
0.127231
 20
0.931782
  0
VERTEX
  8
FOREGROUND
  6
CONTINUOUS
 10
0.122229
 20
0.922834
  0
VERTEX
  8
FOREGROUND
  6
CONTINUOUS
 10
0.117379
 20
0.913791
  0
VERTEX
  8
FOREGROUND
  6
CONTINUOUS
 10
0.112682
 20
0.904654
  0
VERTEX
  8
FOREGROUND
  6
CONTINUOUS
 10
0.108140
 20
0.895426
  0
VERTEX
  8
FOREGROUND
  6
CONTINUOUS
 10
0.103755
 20
0.886109
  0
VERTEX
  8
FOREGROUND
  6
CONTINUOUS
 10
0.099528
 20
0.876703
  0
VERTEX
  8
FOREGROUND
  6
CONTINUOUS
 10
0.095462
 20
0.867211
  0
VERTEX
  8
FOREGROUND
  6
CONTINUOUS
 10
0.091557
 20
0.857634
  0
VERTEX
  8
FOREGROUND
  6
CONTINUOUS
 10
0.087817
 20
0.847974
  0
VERTEX
  8
FOREGROUND
  6
CONTINUOUS
 10
0.084241
 20
0.838233
  0
VERTEX
  8
FOREGROUND
  6
CONTINUOUS
 10
0.080832
 20
0.828412
  0
VERTEX
  8
FOREGROUND
  6
CONTINUOUS
 10
0.077593
 20
0.818514
  0
VERTEX
  8
FOREGROUND
  6
CONTINUOUS
 10
0.074523
 20
0.808539
  0
VERTEX
  8
FOREGROUND
  6
CONTINUOUS
 10
0.071626
 20
0.798490
  0
VERTEX
  8
FOREGROUND
  6
CONTINUOUS
 10
0.068903
 20
0.788369
  0
VERTEX
  8
FOREGROUND
  6
CONTINUOUS
 10
0.066356
 20
0.778176
  0
VERTEX
  8
FOREGROUND
  6
CONTINUOUS
 10
0.063985
 20
0.767915
  0
VERTEX
  8
FOREGROUND
  6
CONTINUOUS
 10
0.061794
 20
0.757585
  0
VERTEX
  8
FOREGROUND
  6
CONTINUOUS
 10
0.059784
 20
0.747190
  0
VERTEX
  8
FOREGROUND
  6
CONTINUOUS
 10
0.057956
 20
0.736731
  0
VERTEX
  8
FOREGROUND
  6
CONTINUOUS
 10
0.056312
 20
0.726210
  0
VERTEX
  8
FOREGROUND
  6
CONTINUOUS
 10
0.054854
 20
0.715628
  0
VERTEX
  8
FOREGROUND
  6
CONTINUOUS
 10
0.053584
 20
0.704987
  0
VERTEX
  8
FOREGROUND
  6
CONTINUOUS
 10
0.052504
 20
0.694289
  0
VERTEX
  8
FOREGROUND
  6
CONTINUOUS
 10
0.051614
 20
0.683535
  0
VERTEX
  8
FOREGROUND
  6
CONTINUOUS
 10
0.050917
 20
0.672728
  0
VERTEX
  8
FOREGROUND
  6
CONTINUOUS
 10
0.050414
 20
0.661868
  0
VERTEX
  8
FOREGROUND
  6
CONTINUOUS
 10
0.050108
 20
0.650958
  0
VERTEX
  8
FOREGROUND
  6
CONTINUOUS
 10
0.050000
 20
0.640000
  0
VERTEX
  8
FOREGROUND
  6
CONTINUOUS
 10
0.050000
 20
0.640000
  0
VERTEX
  8
FOREGROUND
  6
CONTINUOUS
 10
0.050108
 20
0.629040
  0
VERTEX
  8
FOREGROUND
  6
CONTINUOUS
 10
0.050415
 20
0.618129
  0
VERTEX
  8
FOREGROUND
  6
CONTINUOUS
 10
0.050917
 20
0.607268
  0
VERTEX
  8
FOREGROUND
  6
CONTINUOUS
 10
0.051614
 20
0.596459
  0
VERTEX
  8
FOREGROUND
  6
CONTINUOUS
 10
0.052504
 20
0.585704
  0
VERTEX
  8
FOREGROUND
  6
CONTINUOUS
 10
0.053585
 20
0.575005
  0
VERTEX
  8
FOREGROUND
  6
CONTINUOUS
 10
0.054856
 20
0.564362
  0
VERTEX
  8
FOREGROUND
  6
CONTINUOUS
 10
0.056314
 20
0.553779
  0
VERTEX
  8
FOREGROUND
  6
CONTINUOUS
 10
0.057958
 20
0.543256
  0
VERTEX
  8
FOREGROUND
  6
CONTINUOUS
 10
0.059786
 20
0.532796
  0
VERTEX
  8
FOREGROUND
  6
CONTINUOUS
 10
0.061797
 20
0.522400
  0
VERTEX
  8
FOREGROUND
  6
CONTINUOUS
 10
0.063989
 20
0.512070
  0
VERTEX
  8
FOREGROUND
  6
CONTINUOUS
 10
0.066360
 20
0.501807
  0
VERTEX
  8
FOREGROUND
  6
CONTINUOUS
 10
0.068908
 20
0.491613
  0
VERTEX
  8
FOREGROUND
  6
CONTINUOUS
 10
0.071632
 20
0.481491
  0
VERTEX
  8
FOREGROUND
  6
CONTINUOUS
 10
0.074529
 20
0.471441
  0
VERTEX
  8
FOREGROUND
  6
CONTINUOUS
 10
0.077599
 20
0.461465
  0
VERTEX
  8
FOREGROUND
  6
CONTINUOUS
 10
0.080840
 20
0.451566
  0
VERTEX
  8
FOREGROUND
  6
CONTINUOUS
 10
0.084249
 20
0.441744
  0
VERTEX
  8
FOREGROUND
  6
CONTINUOUS
 10
0.087826
 20
0.432002
  0
VERTEX
  8
FOREGROUND
  6
CONTINUOUS
 10
0.091567
 20
0.422341
  0
VERTEX
  8
FOREGROUND
  6
CONTINUOUS
 10
0.095473
 20
0.412763
  0
VERTEX
  8
FOREGROUND
  6
CONTINUOUS
 10
0.099540
 20
0.403270
  0
VERTEX
  8
FOREGROUND
  6
CONTINUOUS
 10
0.103768
 20
0.393863
  0
VERTEX
  8
FOREGROUND
  6
CONTINUOUS
 10
0.108154
 20
0.384545
  0
VERTEX
  8
FOREGROUND
  6
CONTINUOUS
 10
0.112697
 20
0.375316
  0
VERTEX
  8
FOREGROUND
  6
CONTINUOUS
 10
0.117395
 20
0.366179
  0
VERTEX
  8
FOREGROUND
  6
CONTINUOUS
 10
0.122246
 20
0.357135
  0
VERTEX
  8
FOREGROUND
  6
CONTINUOUS
 10
0.127249
 20
0.348186
  0
VERTEX
  8
FOREGROUND
  6
CONTINUOUS
 10
0.132402
 20
0.339334
  0
VERTEX
  8
FOREGROUND
  6
CONTINUOUS
 10
0.137703
 20
0.330580
  0
VERTEX
  8
FOREGROUND
  6
CONTINUOUS
 10
0.143150
 20
0.321926
  0
VERTEX
  8
FOREGROUND
  6
CONTINUOUS
 10
0.148743
 20
0.313374
  0
VERTEX
  8
FOREGROUND
  6
CONTINUOUS
 10
0.154478
 20
0.304926
  0
VERTEX
  8
FOREGROUND
  6
CONTINUOUS
 10
0.160355
 20
0.296583
  0
VERTEX
  8
FOREGROUND
  6
CONTINUOUS
 10
0.166371
 20
0.288347
  0
VERTEX
  8
FOREGROUND
  6
CONTINUOUS
 10
0.172525
 20
0.280220
  0
VERTEX
  8
FOREGROUND
  6
CONTINUOUS
 10
0.178816
 20
0.272203
  0
VERTEX
  8
FOREGROUND
  6
CONTINUOUS
 10
0.185241
 20
0.264298
  0
VERTEX
  8
FOREGROUND
  6
CONTINUOUS
 10
0.191798
 20
0.256508
  0
VERTEX
  8
FOREGROUND
  6
CONTINUOUS
 10
0.198487
 20
0.248832
  0
VERTEX
  8
FOREGROUND
  6
CONTINUOUS
 10
0.205305
 20
0.241275
  0
VERTEX
  8
FOREGROUND
  6
CONTINUOUS
 10
0.212250
 20
0.233836
  0
VERTEX
  8
FOREGROUND
  6
CONTINUOUS
 10
0.219322
 20
0.226518
  0
VERTEX
  8
FOREGROUND
  6
CONTINUOUS
 10
0.226518
 20
0.219322
  0
VERTEX
  8
FOREGROUND
  6
CONTINUOUS
 10
0.233836
 20
0.212250
  0
VERTEX
  8
FOREGROUND
  6
CONTINUOUS
 10
0.241275
 20
0.205305
  0
VERTEX
  8
FOREGROUND
  6
CONTINUOUS
 10
0.248832
 20
0.198487
  0
VERTEX
  8
FOREGROUND
  6
CONTINUOUS
 10
0.256508
 20
0.191798
  0
VERTEX
  8
FOREGROUND
  6
CONTINUOUS
 10
0.264298
 20
0.185241
  0
VERTEX
  8
FOREGROUND
  6
CONTINUOUS
 10
0.272203
 20
0.178816
  0
VERTEX
  8
FOREGROUND
  6
CONTINUOUS
 10
0.280220
 20
0.172525
  0
VERTEX
  8
FOREGROUND
  6
CONTINUOUS
 10
0.288347
 20
0.166371
  0
VERTEX
  8
FOREGROUND
  6
CONTINUOUS
 10
0.296583
 20
0.160355
  0
VERTEX
  8
FOREGROUND
  6
CONTINUOUS
 10
0.304926
 20
0.154478
  0
VERTEX
  8
FOREGROUND
  6
CONTINUOUS
 10
0.313374
 20
0.148743
  0
VERTEX
  8
FOREGROUND
  6
CONTINUOUS
 10
0.321926
 20
0.143150
  0
VERTEX
  8
FOREGROUND
  6
CONTINUOUS
 10
0.330580
 20
0.137703
  0
VERTEX
  8
FOREGROUND
  6
CONTINUOUS
 10
0.339334
 20
0.132402
  0
VERTEX
  8
FOREGROUND
  6
CONTINUOUS
 10
0.348186
 20
0.127249
  0
VERTEX
  8
FOREGROUND
  6
CONTINUOUS
 10
0.357135
 20
0.122246
  0
VERTEX
  8
FOREGROUND
  6
CONTINUOUS
 10
0.366179
 20
0.117395
  0
VERTEX
  8
FOREGROUND
  6
CONTINUOUS
 10
0.375316
 20
0.112697
  0
VERTEX
  8
FOREGROUND
  6
CONTINUOUS
 10
0.384545
 20
0.108154
  0
VERTEX
  8
FOREGROUND
  6
CONTINUOUS
 10
0.393863
 20
0.103768
  0
VERTEX
  8
FOREGROUND
  6
CONTINUOUS
 10
0.403270
 20
0.099540
  0
VERTEX
  8
FOREGROUND
  6
CONTINUOUS
 10
0.412763
 20
0.095473
  0
VERTEX
  8
FOREGROUND
  6
CONTINUOUS
 10
0.422341
 20
0.091567
  0
VERTEX
  8
FOREGROUND
  6
CONTINUOUS
 10
0.432002
 20
0.087826
  0
VERTEX
  8
FOREGROUND
  6
CONTINUOUS
 10
0.441744
 20
0.084249
  0
VERTEX
  8
FOREGROUND
  6
CONTINUOUS
 10
0.451566
 20
0.080840
  0
VERTEX
  8
FOREGROUND
  6
CONTINUOUS
 10
0.461465
 20
0.077599
  0
VERTEX
  8
FOREGROUND
  6
CONTINUOUS
 10
0.471441
 20
0.074529
  0
VERTEX
  8
FOREGROUND
  6
CONTINUOUS
 10
0.481491
 20
0.071632
  0
VERTEX
  8
FOREGROUND
  6
CONTINUOUS
 10
0.491613
 20
0.068908
  0
VERTEX
  8
FOREGROUND
  6
CONTINUOUS
 10
0.501807
 20
0.066360
  0
VERTEX
  8
FOREGROUND
  6
CONTINUOUS
 10
0.512070
 20
0.063989
  0
VERTEX
  8
FOREGROUND
  6
CONTINUOUS
 10
0.522400
 20
0.061797
  0
VERTEX
  8
FOREGROUND
  6
CONTINUOUS
 10
0.532796
 20
0.059786
  0
VERTEX
  8
FOREGROUND
  6
CONTINUOUS
 10
0.543256
 20
0.057958
  0
VERTEX
  8
FOREGROUND
  6
CONTINUOUS
 10
0.553779
 20
0.056314
  0
VERTEX
  8
FOREGROUND
  6
CONTINUOUS
 10
0.564362
 20
0.054856
  0
VERTEX
  8
FOREGROUND
  6
CONTINUOUS
 10
0.575005
 20
0.053585
  0
VERTEX
  8
FOREGROUND
  6
CONTINUOUS
 10
0.585704
 20
0.052504
  0
VERTEX
  8
FOREGROUND
  6
CONTINUOUS
 10
0.596459
 20
0.051614
  0
VERTEX
  8
FOREGROUND
  6
CONTINUOUS
 10
0.607268
 20
0.050917
  0
VERTEX
  8
FOREGROUND
  6
CONTINUOUS
 10
0.618129
 20
0.050415
  0
VERTEX
  8
FOREGROUND
  6
CONTINUOUS
 10
0.629040
 20
0.050108
  0
VERTEX
  8
FOREGROUND
  6
CONTINUOUS
 10
0.640000
 20
0.050000
  0
SEQEND
  8
0
  0
ENDSEC
  0
EOF
