  0
SECTION
  2
HEADER
  9
$ACADVER
  1
AC1006
  9
$EXTMIN
 10
0.000000
 20
0.000000
  9
$EXTMAX
 10
1.683333
 20
0.885000
  9
$LTSCALE
 40
0.166667
  9
$PDMODE
 70
    35
  9
$PDSIZE
 40
0.133333
  0
ENDSEC
  0
SECTION
  2
TABLES
  0
TABLE
  2
LTYPE
 70
     9
  0
LTYPE
  2
CONTINUOUS
 70
    64
  3
Solid line
 72
    65
 73
     0
 40
0.000000
  0
LTYPE
  2
DASHED
 70
    64
  3
__ __ __ __ __ __ __ __ __ __ __ __ __ __ __
 72
    65
 73
     2
 40
0.001250
 49
0.000833
 49
-0.000417
  0
LTYPE
  2
HIDDEN
 70
    64
  3
 _ _ _ _ _ _ _ _ _ _ _ _ _ _ _ _ _ _ _ _ _ _
 72
    65
 73
     2
 40
0.000625
 49
0.000417
 49
-0.000208
  0
LTYPE
  2
CENTER
 70
    64
  3
____ _ ____ _ ____ _ ____ _ ____ _ ____ _ ____
 72
    65
 73
     4
 40
0.003333
 49
0.002083
 49
-0.000417
 49
0.000417
 49
-0.000417
  0
LTYPE
  2
PHANTOM
 70
    64
  3
_____ _ _ _____ _ _ _____ _ _ _____ _ _ ____
 72
    65
 73
     6
 40
0.004167
 49
0.002083
 49
-0.000417
 49
0.000417
 49
-0.000417
 49
0.000417
 49
-0.000417
  0
LTYPE
  2
DOT
 70
    64
  3
...............................................
 72
    65
 73
     2
 40
0.000417
 49
0.000000
 49
-0.000417
  0
LTYPE
  2
DASHDOT
 70
    64
  3
__ . __ . __ . __ . __ . __ . __ . __ . __ . __
 72
    65
 73
     4
 40
0.001667
 49
0.000833
 49
-0.000417
 49
0.000000
 49
-0.000417
  0
LTYPE
  2
BORDER
 70
    64
  3
__ __ . __ __ . __ __ . __ __ . __ __ . __ __
 72
    65
 73
     6
 40
0.002917
 49
0.000833
 49
-0.000417
 49
0.000833
 49
-0.000417
 49
0.000000
 49
-0.000417
  0
LTYPE
  2
DIVIDE
 70
    64
  3
__ . . __ . . __ . . __ . . __ . . __ . . __
 72
    65
 73
     6
 40
0.002083
 49
0.000833
 49
-0.000417
 49
0.000000
 49
-0.000417
 49
0.000000
 49
-0.000417
  0
LTYPE
  2
DOTDOT
 70
    64
  3
 . .  . .  . .  . .  . .  . . 
 72
    65
 73
     5
 40
0.000917
 49
-0.000417
 49
0.000000
 49
-0.000417
 49
0.000000
 49
-0.000417
  0
ENDTAB
  0
TABLE
  2
STYLE
 70
     2
  0
STYLE
 70
     0
  2
SN0
 40
0.000000
 41
0.001667
 50
0.000000
 71
     0
 42
0.000000
  3
ROMAND
  0
STYLE
 70
    68
  2
SV0
 40
0.000000
 41
0.001667
 50
0.000000
 71
     0
 42
0.000000
  3
ROMAND
  0
ENDTAB
  0
TABLE
  2
LAYER
 70
     2
  0
LAYER
  2
FOREGROUND
 70
    64
 62
     7
  6
CONTINUOUS
  0
LAYER
  2
BACKGROUND
 70
    65
 62
    -7
  6
CONTINUOUS
  0
ENDTAB
  0
ENDSEC
  0
SECTION
  2
ENTITIES
  0
POLYLINE
  8
FOREGROUND
  6
CONTINUOUS
 66
     1
 40
0.010000
 41
0.010000
 70
     1
  0
VERTEX
  8
FOREGROUND
  6
CONTINUOUS
 10
1.240000
 20
0.050000
  0
VERTEX
  8
FOREGROUND
  6
CONTINUOUS
 10
1.249284
 20
0.050114
  0
VERTEX
  8
FOREGROUND
  6
CONTINUOUS
 10
1.258516
 20
0.050441
  0
VERTEX
  8
FOREGROUND
  6
CONTINUOUS
 10
1.267692
 20
0.050978
  0
VERTEX
  8
FOREGROUND
  6
CONTINUOUS
 10
1.276810
 20
0.051723
  0
VERTEX
  8
FOREGROUND
  6
CONTINUOUS
 10
1.285868
 20
0.052673
  0
VERTEX
  8
FOREGROUND
  6
CONTINUOUS
 10
1.294865
 20
0.053826
  0
VERTEX
  8
FOREGROUND
  6
CONTINUOUS
 10
1.303796
 20
0.055179
  0
VERTEX
  8
FOREGROUND
  6
CONTINUOUS
 10
1.312660
 20
0.056731
  0
VERTEX
  8
FOREGROUND
  6
CONTINUOUS
 10
1.321455
 20
0.058479
  0
VERTEX
  8
FOREGROUND
  6
CONTINUOUS
 10
1.330179
 20
0.060421
  0
VERTEX
  8
FOREGROUND
  6
CONTINUOUS
 10
1.338828
 20
0.062554
  0
VERTEX
  8
FOREGROUND
  6
CONTINUOUS
 10
1.347400
 20
0.064875
  0
VERTEX
  8
FOREGROUND
  6
CONTINUOUS
 10
1.355894
 20
0.067384
  0
VERTEX
  8
FOREGROUND
  6
CONTINUOUS
 10
1.364307
 20
0.070076
  0
VERTEX
  8
FOREGROUND
  6
CONTINUOUS
 10
1.372636
 20
0.072951
  0
VERTEX
  8
FOREGROUND
  6
CONTINUOUS
 10
1.380880
 20
0.076005
  0
VERTEX
  8
FOREGROUND
  6
CONTINUOUS
 10
1.389035
 20
0.079236
  0
VERTEX
  8
FOREGROUND
  6
CONTINUOUS
 10
1.397099
 20
0.082642
  0
VERTEX
  8
FOREGROUND
  6
CONTINUOUS
 10
1.405071
 20
0.086221
  0
VERTEX
  8
FOREGROUND
  6
CONTINUOUS
 10
1.412948
 20
0.089970
  0
VERTEX
  8
FOREGROUND
  6
CONTINUOUS
 10
1.420726
 20
0.093886
  0
VERTEX
  8
FOREGROUND
  6
CONTINUOUS
 10
1.428405
 20
0.097969
  0
VERTEX
  8
FOREGROUND
  6
CONTINUOUS
 10
1.435982
 20
0.102214
  0
VERTEX
  8
FOREGROUND
  6
CONTINUOUS
 10
1.443454
 20
0.106620
  0
VERTEX
  8
FOREGROUND
  6
CONTINUOUS
 10
1.450819
 20
0.111184
  0
VERTEX
  8
FOREGROUND
  6
CONTINUOUS
 10
1.458074
 20
0.115905
  0
VERTEX
  8
FOREGROUND
  6
CONTINUOUS
 10
1.465218
 20
0.120779
  0
VERTEX
  8
FOREGROUND
  6
CONTINUOUS
 10
1.472248
 20
0.125804
  0
VERTEX
  8
FOREGROUND
  6
CONTINUOUS
 10
1.479161
 20
0.130979
  0
VERTEX
  8
FOREGROUND
  6
CONTINUOUS
 10
1.485955
 20
0.136301
  0
VERTEX
  8
FOREGROUND
  6
CONTINUOUS
 10
1.492629
 20
0.141766
  0
VERTEX
  8
FOREGROUND
  6
CONTINUOUS
 10
1.499178
 20
0.147374
  0
VERTEX
  8
FOREGROUND
  6
CONTINUOUS
 10
1.505602
 20
0.153121
  0
VERTEX
  8
FOREGROUND
  6
CONTINUOUS
 10
1.511898
 20
0.159006
  0
VERTEX
  8
FOREGROUND
  6
CONTINUOUS
 10
1.518064
 20
0.165026
  0
VERTEX
  8
FOREGROUND
  6
CONTINUOUS
 10
1.524096
 20
0.171178
  0
VERTEX
  8
FOREGROUND
  6
CONTINUOUS
 10
1.529993
 20
0.177460
  0
VERTEX
  8
FOREGROUND
  6
CONTINUOUS
 10
1.535753
 20
0.183871
  0
VERTEX
  8
FOREGROUND
  6
CONTINUOUS
 10
1.541372
 20
0.190407
  0
VERTEX
  8
FOREGROUND
  6
CONTINUOUS
 10
1.546850
 20
0.197066
  0
VERTEX
  8
FOREGROUND
  6
CONTINUOUS
 10
1.552182
 20
0.203846
  0
VERTEX
  8
FOREGROUND
  6
CONTINUOUS
 10
1.557368
 20
0.210745
  0
VERTEX
  8
FOREGROUND
  6
CONTINUOUS
 10
1.562404
 20
0.217759
  0
VERTEX
  8
FOREGROUND
  6
CONTINUOUS
 10
1.567289
 20
0.224888
  0
VERTEX
  8
FOREGROUND
  6
CONTINUOUS
 10
1.572019
 20
0.232128
  0
VERTEX
  8
FOREGROUND
  6
CONTINUOUS
 10
1.576593
 20
0.239477
  0
VERTEX
  8
FOREGROUND
  6
CONTINUOUS
 10
1.581009
 20
0.246933
  0
VERTEX
  8
FOREGROUND
  6
CONTINUOUS
 10
1.585263
 20
0.254494
  0
VERTEX
  8
FOREGROUND
  6
CONTINUOUS
 10
1.589354
 20
0.262156
  0
VERTEX
  8
FOREGROUND
  6
CONTINUOUS
 10
1.593279
 20
0.269919
  0
VERTEX
  8
FOREGROUND
  6
CONTINUOUS
 10
1.597035
 20
0.277779
  0
VERTEX
  8
FOREGROUND
  6
CONTINUOUS
 10
1.600622
 20
0.285733
  0
VERTEX
  8
FOREGROUND
  6
CONTINUOUS
 10
1.604035
 20
0.293781
  0
VERTEX
  8
FOREGROUND
  6
CONTINUOUS
 10
1.607273
 20
0.301919
  0
VERTEX
  8
FOREGROUND
  6
CONTINUOUS
 10
1.610334
 20
0.310145
  0
VERTEX
  8
FOREGROUND
  6
CONTINUOUS
 10
1.613214
 20
0.318456
  0
VERTEX
  8
FOREGROUND
  6
CONTINUOUS
 10
1.615913
 20
0.326851
  0
VERTEX
  8
FOREGROUND
  6
CONTINUOUS
 10
1.618426
 20
0.335327
  0
VERTEX
  8
FOREGROUND
  6
CONTINUOUS
 10
1.620753
 20
0.343882
  0
VERTEX
  8
FOREGROUND
  6
CONTINUOUS
 10
1.622891
 20
0.352513
  0
VERTEX
  8
FOREGROUND
  6
CONTINUOUS
 10
1.624836
 20
0.361217
  0
VERTEX
  8
FOREGROUND
  6
CONTINUOUS
 10
1.626588
 20
0.369994
  0
VERTEX
  8
FOREGROUND
  6
CONTINUOUS
 10
1.628143
 20
0.378839
  0
VERTEX
  8
FOREGROUND
  6
CONTINUOUS
 10
1.629500
 20
0.387752
  0
VERTEX
  8
FOREGROUND
  6
CONTINUOUS
 10
1.630655
 20
0.396729
  0
VERTEX
  8
FOREGROUND
  6
CONTINUOUS
 10
1.631607
 20
0.405768
  0
VERTEX
  8
FOREGROUND
  6
CONTINUOUS
 10
1.632353
 20
0.414867
  0
VERTEX
  8
FOREGROUND
  6
CONTINUOUS
 10
1.632891
 20
0.424024
  0
VERTEX
  8
FOREGROUND
  6
CONTINUOUS
 10
1.633219
 20
0.433235
  0
VERTEX
  8
FOREGROUND
  6
CONTINUOUS
 10
1.633333
 20
0.442500
  0
VERTEX
  8
FOREGROUND
  6
CONTINUOUS
 10
1.633333
 20
0.442500
  0
VERTEX
  8
FOREGROUND
  6
CONTINUOUS
 10
1.633219
 20
0.451766
  0
VERTEX
  8
FOREGROUND
  6
CONTINUOUS
 10
1.632891
 20
0.460979
  0
VERTEX
  8
FOREGROUND
  6
CONTINUOUS
 10
1.632353
 20
0.470137
  0
VERTEX
  8
FOREGROUND
  6
CONTINUOUS
 10
1.631607
 20
0.479237
  0
VERTEX
  8
FOREGROUND
  6
CONTINUOUS
 10
1.630654
 20
0.488277
  0
VERTEX
  8
FOREGROUND
  6
CONTINUOUS
 10
1.629499
 20
0.497255
  0
VERTEX
  8
FOREGROUND
  6
CONTINUOUS
 10
1.628142
 20
0.506169
  0
VERTEX
  8
FOREGROUND
  6
CONTINUOUS
 10
1.626586
 20
0.515015
  0
VERTEX
  8
FOREGROUND
  6
CONTINUOUS
 10
1.624834
 20
0.523793
  0
VERTEX
  8
FOREGROUND
  6
CONTINUOUS
 10
1.622888
 20
0.532499
  0
VERTEX
  8
FOREGROUND
  6
CONTINUOUS
 10
1.620750
 20
0.541130
  0
VERTEX
  8
FOREGROUND
  6
CONTINUOUS
 10
1.618423
 20
0.549686
  0
VERTEX
  8
FOREGROUND
  6
CONTINUOUS
 10
1.615909
 20
0.558163
  0
VERTEX
  8
FOREGROUND
  6
CONTINUOUS
 10
1.613210
 20
0.566558
  0
VERTEX
  8
FOREGROUND
  6
CONTINUOUS
 10
1.610328
 20
0.574871
  0
VERTEX
  8
FOREGROUND
  6
CONTINUOUS
 10
1.607267
 20
0.583098
  0
VERTEX
  8
FOREGROUND
  6
CONTINUOUS
 10
1.604028
 20
0.591236
  0
VERTEX
  8
FOREGROUND
  6
CONTINUOUS
 10
1.600614
 20
0.599285
  0
VERTEX
  8
FOREGROUND
  6
CONTINUOUS
 10
1.597027
 20
0.607240
  0
VERTEX
  8
FOREGROUND
  6
CONTINUOUS
 10
1.593269
 20
0.615101
  0
VERTEX
  8
FOREGROUND
  6
CONTINUOUS
 10
1.589344
 20
0.622864
  0
VERTEX
  8
FOREGROUND
  6
CONTINUOUS
 10
1.585252
 20
0.630527
  0
VERTEX
  8
FOREGROUND
  6
CONTINUOUS
 10
1.580997
 20
0.638088
  0
VERTEX
  8
FOREGROUND
  6
CONTINUOUS
 10
1.576580
 20
0.645545
  0
VERTEX
  8
FOREGROUND
  6
CONTINUOUS
 10
1.572005
 20
0.652895
  0
VERTEX
  8
FOREGROUND
  6
CONTINUOUS
 10
1.567274
 20
0.660135
  0
VERTEX
  8
FOREGROUND
  6
CONTINUOUS
 10
1.562388
 20
0.667264
  0
VERTEX
  8
FOREGROUND
  6
CONTINUOUS
 10
1.557351
 20
0.674279
  0
VERTEX
  8
FOREGROUND
  6
CONTINUOUS
 10
1.552164
 20
0.681178
  0
VERTEX
  8
FOREGROUND
  6
CONTINUOUS
 10
1.546830
 20
0.687959
  0
VERTEX
  8
FOREGROUND
  6
CONTINUOUS
 10
1.541352
 20
0.694618
  0
VERTEX
  8
FOREGROUND
  6
CONTINUOUS
 10
1.535731
 20
0.701155
  0
VERTEX
  8
FOREGROUND
  6
CONTINUOUS
 10
1.529970
 20
0.707565
  0
VERTEX
  8
FOREGROUND
  6
CONTINUOUS
 10
1.524072
 20
0.713848
  0
VERTEX
  8
FOREGROUND
  6
CONTINUOUS
 10
1.518038
 20
0.720000
  0
VERTEX
  8
FOREGROUND
  6
CONTINUOUS
 10
1.511872
 20
0.726020
  0
VERTEX
  8
FOREGROUND
  6
CONTINUOUS
 10
1.505574
 20
0.731905
  0
VERTEX
  8
FOREGROUND
  6
CONTINUOUS
 10
1.499149
 20
0.737652
  0
VERTEX
  8
FOREGROUND
  6
CONTINUOUS
 10
1.492598
 20
0.743260
  0
VERTEX
  8
FOREGROUND
  6
CONTINUOUS
 10
1.485923
 20
0.748725
  0
VERTEX
  8
FOREGROUND
  6
CONTINUOUS
 10
1.479127
 20
0.754047
  0
VERTEX
  8
FOREGROUND
  6
CONTINUOUS
 10
1.472213
 20
0.759221
  0
VERTEX
  8
FOREGROUND
  6
CONTINUOUS
 10
1.465182
 20
0.764247
  0
VERTEX
  8
FOREGROUND
  6
CONTINUOUS
 10
1.458037
 20
0.769121
  0
VERTEX
  8
FOREGROUND
  6
CONTINUOUS
 10
1.450780
 20
0.773841
  0
VERTEX
  8
FOREGROUND
  6
CONTINUOUS
 10
1.443414
 20
0.778405
  0
VERTEX
  8
FOREGROUND
  6
CONTINUOUS
 10
1.435940
 20
0.782810
  0
VERTEX
  8
FOREGROUND
  6
CONTINUOUS
 10
1.428362
 20
0.787055
  0
VERTEX
  8
FOREGROUND
  6
CONTINUOUS
 10
1.420682
 20
0.791137
  0
VERTEX
  8
FOREGROUND
  6
CONTINUOUS
 10
1.412902
 20
0.795053
  0
VERTEX
  8
FOREGROUND
  6
CONTINUOUS
 10
1.405024
 20
0.798801
  0
VERTEX
  8
FOREGROUND
  6
CONTINUOUS
 10
1.397051
 20
0.802379
  0
VERTEX
  8
FOREGROUND
  6
CONTINUOUS
 10
1.388985
 20
0.805784
  0
VERTEX
  8
FOREGROUND
  6
CONTINUOUS
 10
1.380828
 20
0.809015
  0
VERTEX
  8
FOREGROUND
  6
CONTINUOUS
 10
1.372584
 20
0.812068
  0
VERTEX
  8
FOREGROUND
  6
CONTINUOUS
 10
1.364253
 20
0.814942
  0
VERTEX
  8
FOREGROUND
  6
CONTINUOUS
 10
1.355839
 20
0.817634
  0
VERTEX
  8
FOREGROUND
  6
CONTINUOUS
 10
1.347343
 20
0.820141
  0
VERTEX
  8
FOREGROUND
  6
CONTINUOUS
 10
1.338769
 20
0.822462
  0
VERTEX
  8
FOREGROUND
  6
CONTINUOUS
 10
1.330119
 20
0.824594
  0
VERTEX
  8
FOREGROUND
  6
CONTINUOUS
 10
1.321394
 20
0.826534
  0
VERTEX
  8
FOREGROUND
  6
CONTINUOUS
 10
1.312598
 20
0.828281
  0
VERTEX
  8
FOREGROUND
  6
CONTINUOUS
 10
1.303732
 20
0.829831
  0
VERTEX
  8
FOREGROUND
  6
CONTINUOUS
 10
1.294799
 20
0.831184
  0
VERTEX
  8
FOREGROUND
  6
CONTINUOUS
 10
1.285802
 20
0.832335
  0
VERTEX
  8
FOREGROUND
  6
CONTINUOUS
 10
1.276742
 20
0.833284
  0
VERTEX
  8
FOREGROUND
  6
CONTINUOUS
 10
1.267623
 20
0.834027
  0
VERTEX
  8
FOREGROUND
  6
CONTINUOUS
 10
1.258445
 20
0.834562
  0
VERTEX
  8
FOREGROUND
  6
CONTINUOUS
 10
1.249213
 20
0.834887
  0
VERTEX
  8
FOREGROUND
  6
CONTINUOUS
 10
1.239927
 20
0.835000
  0
VERTEX
  8
FOREGROUND
  6
CONTINUOUS
 10
0.443261
 20
0.835000
  0
VERTEX
  8
FOREGROUND
  6
CONTINUOUS
 10
0.433978
 20
0.834884
  0
VERTEX
  8
FOREGROUND
  6
CONTINUOUS
 10
0.424748
 20
0.834555
  0
VERTEX
  8
FOREGROUND
  6
CONTINUOUS
 10
0.415573
 20
0.834017
  0
VERTEX
  8
FOREGROUND
  6
CONTINUOUS
 10
0.406456
 20
0.833271
  0
VERTEX
  8
FOREGROUND
  6
CONTINUOUS
 10
0.397399
 20
0.832320
  0
VERTEX
  8
FOREGROUND
  6
CONTINUOUS
 10
0.388404
 20
0.831165
  0
VERTEX
  8
FOREGROUND
  6
CONTINUOUS
 10
0.379474
 20
0.829810
  0
VERTEX
  8
FOREGROUND
  6
CONTINUOUS
 10
0.370611
 20
0.828257
  0
VERTEX
  8
FOREGROUND
  6
CONTINUOUS
 10
0.361817
 20
0.826508
  0
VERTEX
  8
FOREGROUND
  6
CONTINUOUS
 10
0.353095
 20
0.824565
  0
VERTEX
  8
FOREGROUND
  6
CONTINUOUS
 10
0.344447
 20
0.822431
  0
VERTEX
  8
FOREGROUND
  6
CONTINUOUS
 10
0.335876
 20
0.820108
  0
VERTEX
  8
FOREGROUND
  6
CONTINUOUS
 10
0.327384
 20
0.817599
  0
VERTEX
  8
FOREGROUND
  6
CONTINUOUS
 10
0.318972
 20
0.814905
  0
VERTEX
  8
FOREGROUND
  6
CONTINUOUS
 10
0.310644
 20
0.812030
  0
VERTEX
  8
FOREGROUND
  6
CONTINUOUS
 10
0.302402
 20
0.808975
  0
VERTEX
  8
FOREGROUND
  6
CONTINUOUS
 10
0.294249
 20
0.805743
  0
VERTEX
  8
FOREGROUND
  6
CONTINUOUS
 10
0.286185
 20
0.802336
  0
VERTEX
  8
FOREGROUND
  6
CONTINUOUS
 10
0.278215
 20
0.798757
  0
VERTEX
  8
FOREGROUND
  6
CONTINUOUS
 10
0.270340
 20
0.795007
  0
VERTEX
  8
FOREGROUND
  6
CONTINUOUS
 10
0.262563
 20
0.791090
  0
VERTEX
  8
FOREGROUND
  6
CONTINUOUS
 10
0.254885
 20
0.787008
  0
VERTEX
  8
FOREGROUND
  6
CONTINUOUS
 10
0.247310
 20
0.782762
  0
VERTEX
  8
FOREGROUND
  6
CONTINUOUS
 10
0.239840
 20
0.778356
  0
VERTEX
  8
FOREGROUND
  6
CONTINUOUS
 10
0.232476
 20
0.773791
  0
VERTEX
  8
FOREGROUND
  6
CONTINUOUS
 10
0.225222
 20
0.769070
  0
VERTEX
  8
FOREGROUND
  6
CONTINUOUS
 10
0.218080
 20
0.764196
  0
VERTEX
  8
FOREGROUND
  6
CONTINUOUS
 10
0.211051
 20
0.759170
  0
VERTEX
  8
FOREGROUND
  6
CONTINUOUS
 10
0.204139
 20
0.753995
  0
VERTEX
  8
FOREGROUND
  6
CONTINUOUS
 10
0.197346
 20
0.748673
  0
VERTEX
  8
FOREGROUND
  6
CONTINUOUS
 10
0.190674
 20
0.743208
  0
VERTEX
  8
FOREGROUND
  6
CONTINUOUS
 10
0.184126
 20
0.737600
  0
VERTEX
  8
FOREGROUND
  6
CONTINUOUS
 10
0.177703
 20
0.731853
  0
VERTEX
  8
FOREGROUND
  6
CONTINUOUS
 10
0.171408
 20
0.725968
  0
VERTEX
  8
FOREGROUND
  6
CONTINUOUS
 10
0.165244
 20
0.719948
  0
VERTEX
  8
FOREGROUND
  6
CONTINUOUS
 10
0.159213
 20
0.713796
  0
VERTEX
  8
FOREGROUND
  6
CONTINUOUS
 10
0.153317
 20
0.707514
  0
VERTEX
  8
FOREGROUND
  6
CONTINUOUS
 10
0.147559
 20
0.701104
  0
VERTEX
  8
FOREGROUND
  6
CONTINUOUS
 10
0.141941
 20
0.694568
  0
VERTEX
  8
FOREGROUND
  6
CONTINUOUS
 10
0.136464
 20
0.687909
  0
VERTEX
  8
FOREGROUND
  6
CONTINUOUS
 10
0.131133
 20
0.681130
  0
VERTEX
  8
FOREGROUND
  6
CONTINUOUS
 10
0.125948
 20
0.674231
  0
VERTEX
  8
FOREGROUND
  6
CONTINUOUS
 10
0.120913
 20
0.667217
  0
VERTEX
  8
FOREGROUND
  6
CONTINUOUS
 10
0.116030
 20
0.660089
  0
VERTEX
  8
FOREGROUND
  6
CONTINUOUS
 10
0.111300
 20
0.652849
  0
VERTEX
  8
FOREGROUND
  6
CONTINUOUS
 10
0.106727
 20
0.645501
  0
VERTEX
  8
FOREGROUND
  6
CONTINUOUS
 10
0.102313
 20
0.638045
  0
VERTEX
  8
FOREGROUND
  6
CONTINUOUS
 10
0.098059
 20
0.630485
  0
VERTEX
  8
FOREGROUND
  6
CONTINUOUS
 10
0.093970
 20
0.622823
  0
VERTEX
  8
FOREGROUND
  6
CONTINUOUS
 10
0.090046
 20
0.615062
  0
VERTEX
  8
FOREGROUND
  6
CONTINUOUS
 10
0.086290
 20
0.607202
  0
VERTEX
  8
FOREGROUND
  6
CONTINUOUS
 10
0.082704
 20
0.599248
  0
VERTEX
  8
FOREGROUND
  6
CONTINUOUS
 10
0.079292
 20
0.591202
  0
VERTEX
  8
FOREGROUND
  6
CONTINUOUS
 10
0.076054
 20
0.583065
  0
VERTEX
  8
FOREGROUND
  6
CONTINUOUS
 10
0.072994
 20
0.574839
  0
VERTEX
  8
FOREGROUND
  6
CONTINUOUS
 10
0.070114
 20
0.566529
  0
VERTEX
  8
FOREGROUND
  6
CONTINUOUS
 10
0.067417
 20
0.558135
  0
VERTEX
  8
FOREGROUND
  6
CONTINUOUS
 10
0.064904
 20
0.549660
  0
VERTEX
  8
FOREGROUND
  6
CONTINUOUS
 10
0.062577
 20
0.541106
  0
VERTEX
  8
FOREGROUND
  6
CONTINUOUS
 10
0.060440
 20
0.532476
  0
VERTEX
  8
FOREGROUND
  6
CONTINUOUS
 10
0.058495
 20
0.523773
  0
VERTEX
  8
FOREGROUND
  6
CONTINUOUS
 10
0.056744
 20
0.514997
  0
VERTEX
  8
FOREGROUND
  6
CONTINUOUS
 10
0.055189
 20
0.506153
  0
VERTEX
  8
FOREGROUND
  6
CONTINUOUS
 10
0.053833
 20
0.497241
  0
VERTEX
  8
FOREGROUND
  6
CONTINUOUS
 10
0.052678
 20
0.488265
  0
VERTEX
  8
FOREGROUND
  6
CONTINUOUS
 10
0.051726
 20
0.479227
  0
VERTEX
  8
FOREGROUND
  6
CONTINUOUS
 10
0.050980
 20
0.470129
  0
VERTEX
  8
FOREGROUND
  6
CONTINUOUS
 10
0.050442
 20
0.460974
  0
VERTEX
  8
FOREGROUND
  6
CONTINUOUS
 10
0.050115
 20
0.451763
  0
VERTEX
  8
FOREGROUND
  6
CONTINUOUS
 10
0.050000
 20
0.442500
  0
VERTEX
  8
FOREGROUND
  6
CONTINUOUS
 10
0.050000
 20
0.442500
  0
VERTEX
  8
FOREGROUND
  6
CONTINUOUS
 10
0.050115
 20
0.433235
  0
VERTEX
  8
FOREGROUND
  6
CONTINUOUS
 10
0.050442
 20
0.424024
  0
VERTEX
  8
FOREGROUND
  6
CONTINUOUS
 10
0.050980
 20
0.414867
  0
VERTEX
  8
FOREGROUND
  6
CONTINUOUS
 10
0.051726
 20
0.405768
  0
VERTEX
  8
FOREGROUND
  6
CONTINUOUS
 10
0.052678
 20
0.396729
  0
VERTEX
  8
FOREGROUND
  6
CONTINUOUS
 10
0.053834
 20
0.387752
  0
VERTEX
  8
FOREGROUND
  6
CONTINUOUS
 10
0.055190
 20
0.378839
  0
VERTEX
  8
FOREGROUND
  6
CONTINUOUS
 10
0.056745
 20
0.369994
  0
VERTEX
  8
FOREGROUND
  6
CONTINUOUS
 10
0.058497
 20
0.361217
  0
VERTEX
  8
FOREGROUND
  6
CONTINUOUS
 10
0.060443
 20
0.352512
  0
VERTEX
  8
FOREGROUND
  6
CONTINUOUS
 10
0.062580
 20
0.343882
  0
VERTEX
  8
FOREGROUND
  6
CONTINUOUS
 10
0.064907
 20
0.335327
  0
VERTEX
  8
FOREGROUND
  6
CONTINUOUS
 10
0.067420
 20
0.326851
  0
VERTEX
  8
FOREGROUND
  6
CONTINUOUS
 10
0.070119
 20
0.318456
  0
VERTEX
  8
FOREGROUND
  6
CONTINUOUS
 10
0.072999
 20
0.310145
  0
VERTEX
  8
FOREGROUND
  6
CONTINUOUS
 10
0.076060
 20
0.301919
  0
VERTEX
  8
FOREGROUND
  6
CONTINUOUS
 10
0.079298
 20
0.293781
  0
VERTEX
  8
FOREGROUND
  6
CONTINUOUS
 10
0.082712
 20
0.285733
  0
VERTEX
  8
FOREGROUND
  6
CONTINUOUS
 10
0.086298
 20
0.277778
  0
VERTEX
  8
FOREGROUND
  6
CONTINUOUS
 10
0.090055
 20
0.269919
  0
VERTEX
  8
FOREGROUND
  6
CONTINUOUS
 10
0.093979
 20
0.262156
  0
VERTEX
  8
FOREGROUND
  6
CONTINUOUS
 10
0.098070
 20
0.254494
  0
VERTEX
  8
FOREGROUND
  6
CONTINUOUS
 10
0.102324
 20
0.246933
  0
VERTEX
  8
FOREGROUND
  6
CONTINUOUS
 10
0.106740
 20
0.239477
  0
VERTEX
  8
FOREGROUND
  6
CONTINUOUS
 10
0.111314
 20
0.232128
  0
VERTEX
  8
FOREGROUND
  6
CONTINUOUS
 10
0.116044
 20
0.224888
  0
VERTEX
  8
FOREGROUND
  6
CONTINUOUS
 10
0.120929
 20
0.217759
  0
VERTEX
  8
FOREGROUND
  6
CONTINUOUS
 10
0.125965
 20
0.210744
  0
VERTEX
  8
FOREGROUND
  6
CONTINUOUS
 10
0.131151
 20
0.203846
  0
VERTEX
  8
FOREGROUND
  6
CONTINUOUS
 10
0.136484
 20
0.197066
  0
VERTEX
  8
FOREGROUND
  6
CONTINUOUS
 10
0.141961
 20
0.190406
  0
VERTEX
  8
FOREGROUND
  6
CONTINUOUS
 10
0.147580
 20
0.183870
  0
VERTEX
  8
FOREGROUND
  6
CONTINUOUS
 10
0.153340
 20
0.177460
  0
VERTEX
  8
FOREGROUND
  6
CONTINUOUS
 10
0.159237
 20
0.171178
  0
VERTEX
  8
FOREGROUND
  6
CONTINUOUS
 10
0.165270
 20
0.165025
  0
VERTEX
  8
FOREGROUND
  6
CONTINUOUS
 10
0.171435
 20
0.159006
  0
VERTEX
  8
FOREGROUND
  6
CONTINUOUS
 10
0.177731
 20
0.153121
  0
VERTEX
  8
FOREGROUND
  6
CONTINUOUS
 10
0.184155
 20
0.147374
  0
VERTEX
  8
FOREGROUND
  6
CONTINUOUS
 10
0.190705
 20
0.141766
  0
VERTEX
  8
FOREGROUND
  6
CONTINUOUS
 10
0.197378
 20
0.136300
  0
VERTEX
  8
FOREGROUND
  6
CONTINUOUS
 10
0.204172
 20
0.130979
  0
VERTEX
  8
FOREGROUND
  6
CONTINUOUS
 10
0.211086
 20
0.125804
  0
VERTEX
  8
FOREGROUND
  6
CONTINUOUS
 10
0.218115
 20
0.120779
  0
VERTEX
  8
FOREGROUND
  6
CONTINUOUS
 10
0.225259
 20
0.115904
  0
VERTEX
  8
FOREGROUND
  6
CONTINUOUS
 10
0.232515
 20
0.111184
  0
VERTEX
  8
FOREGROUND
  6
CONTINUOUS
 10
0.239879
 20
0.106620
  0
VERTEX
  8
FOREGROUND
  6
CONTINUOUS
 10
0.247351
 20
0.102214
  0
VERTEX
  8
FOREGROUND
  6
CONTINUOUS
 10
0.254928
 20
0.097968
  0
VERTEX
  8
FOREGROUND
  6
CONTINUOUS
 10
0.262607
 20
0.093886
  0
VERTEX
  8
FOREGROUND
  6
CONTINUOUS
 10
0.270386
 20
0.089970
  0
VERTEX
  8
FOREGROUND
  6
CONTINUOUS
 10
0.278262
 20
0.086221
  0
VERTEX
  8
FOREGROUND
  6
CONTINUOUS
 10
0.286234
 20
0.082642
  0
VERTEX
  8
FOREGROUND
  6
CONTINUOUS
 10
0.294298
 20
0.079236
  0
VERTEX
  8
FOREGROUND
  6
CONTINUOUS
 10
0.302454
 20
0.076005
  0
VERTEX
  8
FOREGROUND
  6
CONTINUOUS
 10
0.310697
 20
0.072951
  0
VERTEX
  8
FOREGROUND
  6
CONTINUOUS
 10
0.319026
 20
0.070076
  0
VERTEX
  8
FOREGROUND
  6
CONTINUOUS
 10
0.327439
 20
0.067384
  0
VERTEX
  8
FOREGROUND
  6
CONTINUOUS
 10
0.335933
 20
0.064875
  0
VERTEX
  8
FOREGROUND
  6
CONTINUOUS
 10
0.344506
 20
0.062553
  0
VERTEX
  8
FOREGROUND
  6
CONTINUOUS
 10
0.353155
 20
0.060421
  0
VERTEX
  8
FOREGROUND
  6
CONTINUOUS
 10
0.361878
 20
0.058479
  0
VERTEX
  8
FOREGROUND
  6
CONTINUOUS
 10
0.370673
 20
0.056731
  0
VERTEX
  8
FOREGROUND
  6
CONTINUOUS
 10
0.379537
 20
0.055179
  0
VERTEX
  8
FOREGROUND
  6
CONTINUOUS
 10
0.388469
 20
0.053825
  0
VERTEX
  8
FOREGROUND
  6
CONTINUOUS
 10
0.397465
 20
0.052673
  0
VERTEX
  8
FOREGROUND
  6
CONTINUOUS
 10
0.406523
 20
0.051723
  0
VERTEX
  8
FOREGROUND
  6
CONTINUOUS
 10
0.415642
 20
0.050978
  0
VERTEX
  8
FOREGROUND
  6
CONTINUOUS
 10
0.424818
 20
0.050441
  0
VERTEX
  8
FOREGROUND
  6
CONTINUOUS
 10
0.434049
 20
0.050114
  0
VERTEX
  8
FOREGROUND
  6
CONTINUOUS
 10
0.443333
 20
0.050000
  0
SEQEND
  8
0
  0
ENDSEC
  0
EOF
