  0
SECTION
  2
HEADER
  9
$ACADVER
  1
AC1006
  9
$EXTMIN
 10
0.000000
 20
0.000000
  9
$EXTMAX
 10
1.683333
 20
1.083333
  9
$LTSCALE
 40
0.166667
  9
$PDMODE
 70
    35
  9
$PDSIZE
 40
0.133333
  0
ENDSEC
  0
SECTION
  2
TABLES
  0
TABLE
  2
LTYPE
 70
     9
  0
LTYPE
  2
CONTINUOUS
 70
    64
  3
Solid line
 72
    65
 73
     0
 40
0.000000
  0
LTYPE
  2
DASHED
 70
    64
  3
__ __ __ __ __ __ __ __ __ __ __ __ __ __ __
 72
    65
 73
     2
 40
0.001250
 49
0.000833
 49
-0.000417
  0
LTYPE
  2
HIDDEN
 70
    64
  3
 _ _ _ _ _ _ _ _ _ _ _ _ _ _ _ _ _ _ _ _ _ _
 72
    65
 73
     2
 40
0.000625
 49
0.000417
 49
-0.000208
  0
LTYPE
  2
CENTER
 70
    64
  3
____ _ ____ _ ____ _ ____ _ ____ _ ____ _ ____
 72
    65
 73
     4
 40
0.003333
 49
0.002083
 49
-0.000417
 49
0.000417
 49
-0.000417
  0
LTYPE
  2
PHANTOM
 70
    64
  3
_____ _ _ _____ _ _ _____ _ _ _____ _ _ ____
 72
    65
 73
     6
 40
0.004167
 49
0.002083
 49
-0.000417
 49
0.000417
 49
-0.000417
 49
0.000417
 49
-0.000417
  0
LTYPE
  2
DOT
 70
    64
  3
...............................................
 72
    65
 73
     2
 40
0.000417
 49
0.000000
 49
-0.000417
  0
LTYPE
  2
DASHDOT
 70
    64
  3
__ . __ . __ . __ . __ . __ . __ . __ . __ . __
 72
    65
 73
     4
 40
0.001667
 49
0.000833
 49
-0.000417
 49
0.000000
 49
-0.000417
  0
LTYPE
  2
BORDER
 70
    64
  3
__ __ . __ __ . __ __ . __ __ . __ __ . __ __
 72
    65
 73
     6
 40
0.002917
 49
0.000833
 49
-0.000417
 49
0.000833
 49
-0.000417
 49
0.000000
 49
-0.000417
  0
LTYPE
  2
DIVIDE
 70
    64
  3
__ . . __ . . __ . . __ . . __ . . __ . . __
 72
    65
 73
     6
 40
0.002083
 49
0.000833
 49
-0.000417
 49
0.000000
 49
-0.000417
 49
0.000000
 49
-0.000417
  0
LTYPE
  2
DOTDOT
 70
    64
  3
 . .  . .  . .  . .  . .  . . 
 72
    65
 73
     5
 40
0.000917
 49
-0.000417
 49
0.000000
 49
-0.000417
 49
0.000000
 49
-0.000417
  0
ENDTAB
  0
TABLE
  2
STYLE
 70
     2
  0
STYLE
 70
     0
  2
SN0
 40
0.000000
 41
0.001667
 50
0.000000
 71
     0
 42
0.000000
  3
ROMAND
  0
STYLE
 70
    68
  2
SV0
 40
0.000000
 41
0.001667
 50
0.000000
 71
     0
 42
0.000000
  3
ROMAND
  0
ENDTAB
  0
TABLE
  2
LAYER
 70
     2
  0
LAYER
  2
FOREGROUND
 70
    64
 62
     7
  6
CONTINUOUS
  0
LAYER
  2
BACKGROUND
 70
    65
 62
    -7
  6
CONTINUOUS
  0
ENDTAB
  0
ENDSEC
  0
SECTION
  2
ENTITIES
  0
POLYLINE
  8
FOREGROUND
  6
CONTINUOUS
 66
     1
 40
0.010000
 41
0.010000
 70
     1
  0
VERTEX
  8
FOREGROUND
  6
CONTINUOUS
 10
1.141667
 20
0.050000
  0
VERTEX
  8
FOREGROUND
  6
CONTINUOUS
 10
1.151342
 20
0.050101
  0
VERTEX
  8
FOREGROUND
  6
CONTINUOUS
 10
1.160972
 20
0.050387
  0
VERTEX
  8
FOREGROUND
  6
CONTINUOUS
 10
1.170555
 20
0.050856
  0
VERTEX
  8
FOREGROUND
  6
CONTINUOUS
 10
1.180089
 20
0.051507
  0
VERTEX
  8
FOREGROUND
  6
CONTINUOUS
 10
1.189572
 20
0.052338
  0
VERTEX
  8
FOREGROUND
  6
CONTINUOUS
 10
1.199002
 20
0.053348
  0
VERTEX
  8
FOREGROUND
  6
CONTINUOUS
 10
1.208379
 20
0.054534
  0
VERTEX
  8
FOREGROUND
  6
CONTINUOUS
 10
1.217699
 20
0.055895
  0
VERTEX
  8
FOREGROUND
  6
CONTINUOUS
 10
1.226963
 20
0.057429
  0
VERTEX
  8
FOREGROUND
  6
CONTINUOUS
 10
1.236167
 20
0.059134
  0
VERTEX
  8
FOREGROUND
  6
CONTINUOUS
 10
1.245310
 20
0.061010
  0
VERTEX
  8
FOREGROUND
  6
CONTINUOUS
 10
1.254390
 20
0.063053
  0
VERTEX
  8
FOREGROUND
  6
CONTINUOUS
 10
1.263406
 20
0.065263
  0
VERTEX
  8
FOREGROUND
  6
CONTINUOUS
 10
1.272356
 20
0.067638
  0
VERTEX
  8
FOREGROUND
  6
CONTINUOUS
 10
1.281238
 20
0.070176
  0
VERTEX
  8
FOREGROUND
  6
CONTINUOUS
 10
1.290051
 20
0.072874
  0
VERTEX
  8
FOREGROUND
  6
CONTINUOUS
 10
1.298793
 20
0.075733
  0
VERTEX
  8
FOREGROUND
  6
CONTINUOUS
 10
1.307462
 20
0.078749
  0
VERTEX
  8
FOREGROUND
  6
CONTINUOUS
 10
1.316057
 20
0.081922
  0
VERTEX
  8
FOREGROUND
  6
CONTINUOUS
 10
1.324575
 20
0.085249
  0
VERTEX
  8
FOREGROUND
  6
CONTINUOUS
 10
1.333015
 20
0.088729
  0
VERTEX
  8
FOREGROUND
  6
CONTINUOUS
 10
1.341376
 20
0.092360
  0
VERTEX
  8
FOREGROUND
  6
CONTINUOUS
 10
1.349655
 20
0.096140
  0
VERTEX
  8
FOREGROUND
  6
CONTINUOUS
 10
1.357851
 20
0.100068
  0
VERTEX
  8
FOREGROUND
  6
CONTINUOUS
 10
1.365963
 20
0.104142
  0
VERTEX
  8
FOREGROUND
  6
CONTINUOUS
 10
1.373988
 20
0.108360
  0
VERTEX
  8
FOREGROUND
  6
CONTINUOUS
 10
1.381925
 20
0.112721
  0
VERTEX
  8
FOREGROUND
  6
CONTINUOUS
 10
1.389772
 20
0.117223
  0
VERTEX
  8
FOREGROUND
  6
CONTINUOUS
 10
1.397528
 20
0.121864
  0
VERTEX
  8
FOREGROUND
  6
CONTINUOUS
 10
1.405190
 20
0.126642
  0
VERTEX
  8
FOREGROUND
  6
CONTINUOUS
 10
1.412758
 20
0.131557
  0
VERTEX
  8
FOREGROUND
  6
CONTINUOUS
 10
1.420228
 20
0.136605
  0
VERTEX
  8
FOREGROUND
  6
CONTINUOUS
 10
1.427601
 20
0.141785
  0
VERTEX
  8
FOREGROUND
  6
CONTINUOUS
 10
1.434873
 20
0.147097
  0
VERTEX
  8
FOREGROUND
  6
CONTINUOUS
 10
1.442044
 20
0.152537
  0
VERTEX
  8
FOREGROUND
  6
CONTINUOUS
 10
1.449111
 20
0.158104
  0
VERTEX
  8
FOREGROUND
  6
CONTINUOUS
 10
1.456073
 20
0.163798
  0
VERTEX
  8
FOREGROUND
  6
CONTINUOUS
 10
1.462928
 20
0.169614
  0
VERTEX
  8
FOREGROUND
  6
CONTINUOUS
 10
1.469675
 20
0.175554
  0
VERTEX
  8
FOREGROUND
  6
CONTINUOUS
 10
1.476311
 20
0.181613
  0
VERTEX
  8
FOREGROUND
  6
CONTINUOUS
 10
1.482836
 20
0.187792
  0
VERTEX
  8
FOREGROUND
  6
CONTINUOUS
 10
1.489246
 20
0.194087
  0
VERTEX
  8
FOREGROUND
  6
CONTINUOUS
 10
1.495542
 20
0.200498
  0
VERTEX
  8
FOREGROUND
  6
CONTINUOUS
 10
1.501720
 20
0.207022
  0
VERTEX
  8
FOREGROUND
  6
CONTINUOUS
 10
1.507780
 20
0.213659
  0
VERTEX
  8
FOREGROUND
  6
CONTINUOUS
 10
1.513719
 20
0.220405
  0
VERTEX
  8
FOREGROUND
  6
CONTINUOUS
 10
1.519536
 20
0.227260
  0
VERTEX
  8
FOREGROUND
  6
CONTINUOUS
 10
1.525229
 20
0.234222
  0
VERTEX
  8
FOREGROUND
  6
CONTINUOUS
 10
1.530796
 20
0.241290
  0
VERTEX
  8
FOREGROUND
  6
CONTINUOUS
 10
1.536237
 20
0.248460
  0
VERTEX
  8
FOREGROUND
  6
CONTINUOUS
 10
1.541548
 20
0.255733
  0
VERTEX
  8
FOREGROUND
  6
CONTINUOUS
 10
1.546729
 20
0.263105
  0
VERTEX
  8
FOREGROUND
  6
CONTINUOUS
 10
1.551777
 20
0.270576
  0
VERTEX
  8
FOREGROUND
  6
CONTINUOUS
 10
1.556691
 20
0.278143
  0
VERTEX
  8
FOREGROUND
  6
CONTINUOUS
 10
1.561469
 20
0.285806
  0
VERTEX
  8
FOREGROUND
  6
CONTINUOUS
 10
1.566110
 20
0.293561
  0
VERTEX
  8
FOREGROUND
  6
CONTINUOUS
 10
1.570612
 20
0.301408
  0
VERTEX
  8
FOREGROUND
  6
CONTINUOUS
 10
1.574973
 20
0.309345
  0
VERTEX
  8
FOREGROUND
  6
CONTINUOUS
 10
1.579191
 20
0.317370
  0
VERTEX
  8
FOREGROUND
  6
CONTINUOUS
 10
1.583265
 20
0.325482
  0
VERTEX
  8
FOREGROUND
  6
CONTINUOUS
 10
1.587193
 20
0.333678
  0
VERTEX
  8
FOREGROUND
  6
CONTINUOUS
 10
1.590974
 20
0.341958
  0
VERTEX
  8
FOREGROUND
  6
CONTINUOUS
 10
1.594604
 20
0.350318
  0
VERTEX
  8
FOREGROUND
  6
CONTINUOUS
 10
1.598084
 20
0.358759
  0
VERTEX
  8
FOREGROUND
  6
CONTINUOUS
 10
1.601411
 20
0.367277
  0
VERTEX
  8
FOREGROUND
  6
CONTINUOUS
 10
1.604584
 20
0.375871
  0
VERTEX
  8
FOREGROUND
  6
CONTINUOUS
 10
1.607600
 20
0.384540
  0
VERTEX
  8
FOREGROUND
  6
CONTINUOUS
 10
1.610459
 20
0.393282
  0
VERTEX
  8
FOREGROUND
  6
CONTINUOUS
 10
1.613158
 20
0.402095
  0
VERTEX
  8
FOREGROUND
  6
CONTINUOUS
 10
1.615695
 20
0.410977
  0
VERTEX
  8
FOREGROUND
  6
CONTINUOUS
 10
1.618070
 20
0.419927
  0
VERTEX
  8
FOREGROUND
  6
CONTINUOUS
 10
1.620280
 20
0.428943
  0
VERTEX
  8
FOREGROUND
  6
CONTINUOUS
 10
1.622323
 20
0.438024
  0
VERTEX
  8
FOREGROUND
  6
CONTINUOUS
 10
1.624199
 20
0.447167
  0
VERTEX
  8
FOREGROUND
  6
CONTINUOUS
 10
1.625905
 20
0.456371
  0
VERTEX
  8
FOREGROUND
  6
CONTINUOUS
 10
1.627439
 20
0.465634
  0
VERTEX
  8
FOREGROUND
  6
CONTINUOUS
 10
1.628800
 20
0.474955
  0
VERTEX
  8
FOREGROUND
  6
CONTINUOUS
 10
1.629986
 20
0.484331
  0
VERTEX
  8
FOREGROUND
  6
CONTINUOUS
 10
1.630995
 20
0.493762
  0
VERTEX
  8
FOREGROUND
  6
CONTINUOUS
 10
1.631826
 20
0.503245
  0
VERTEX
  8
FOREGROUND
  6
CONTINUOUS
 10
1.632477
 20
0.512778
  0
VERTEX
  8
FOREGROUND
  6
CONTINUOUS
 10
1.632947
 20
0.522361
  0
VERTEX
  8
FOREGROUND
  6
CONTINUOUS
 10
1.633232
 20
0.531991
  0
VERTEX
  8
FOREGROUND
  6
CONTINUOUS
 10
1.633333
 20
0.541667
  0
VERTEX
  8
FOREGROUND
  6
CONTINUOUS
 10
1.633333
 20
0.541667
  0
VERTEX
  8
FOREGROUND
  6
CONTINUOUS
 10
1.633232
 20
0.551344
  0
VERTEX
  8
FOREGROUND
  6
CONTINUOUS
 10
1.632946
 20
0.560975
  0
VERTEX
  8
FOREGROUND
  6
CONTINUOUS
 10
1.632477
 20
0.570559
  0
VERTEX
  8
FOREGROUND
  6
CONTINUOUS
 10
1.631826
 20
0.580094
  0
VERTEX
  8
FOREGROUND
  6
CONTINUOUS
 10
1.630994
 20
0.589578
  0
VERTEX
  8
FOREGROUND
  6
CONTINUOUS
 10
1.629985
 20
0.599010
  0
VERTEX
  8
FOREGROUND
  6
CONTINUOUS
 10
1.628798
 20
0.608387
  0
VERTEX
  8
FOREGROUND
  6
CONTINUOUS
 10
1.627437
 20
0.617709
  0
VERTEX
  8
FOREGROUND
  6
CONTINUOUS
 10
1.625903
 20
0.626973
  0
VERTEX
  8
FOREGROUND
  6
CONTINUOUS
 10
1.624197
 20
0.636178
  0
VERTEX
  8
FOREGROUND
  6
CONTINUOUS
 10
1.622321
 20
0.645322
  0
VERTEX
  8
FOREGROUND
  6
CONTINUOUS
 10
1.620277
 20
0.654404
  0
VERTEX
  8
FOREGROUND
  6
CONTINUOUS
 10
1.618066
 20
0.663421
  0
VERTEX
  8
FOREGROUND
  6
CONTINUOUS
 10
1.615691
 20
0.672372
  0
VERTEX
  8
FOREGROUND
  6
CONTINUOUS
 10
1.613153
 20
0.681255
  0
VERTEX
  8
FOREGROUND
  6
CONTINUOUS
 10
1.610453
 20
0.690069
  0
VERTEX
  8
FOREGROUND
  6
CONTINUOUS
 10
1.607594
 20
0.698812
  0
VERTEX
  8
FOREGROUND
  6
CONTINUOUS
 10
1.604577
 20
0.707482
  0
VERTEX
  8
FOREGROUND
  6
CONTINUOUS
 10
1.601404
 20
0.716077
  0
VERTEX
  8
FOREGROUND
  6
CONTINUOUS
 10
1.598076
 20
0.724596
  0
VERTEX
  8
FOREGROUND
  6
CONTINUOUS
 10
1.594595
 20
0.733037
  0
VERTEX
  8
FOREGROUND
  6
CONTINUOUS
 10
1.590963
 20
0.741399
  0
VERTEX
  8
FOREGROUND
  6
CONTINUOUS
 10
1.587182
 20
0.749679
  0
VERTEX
  8
FOREGROUND
  6
CONTINUOUS
 10
1.583253
 20
0.757876
  0
VERTEX
  8
FOREGROUND
  6
CONTINUOUS
 10
1.579178
 20
0.765988
  0
VERTEX
  8
FOREGROUND
  6
CONTINUOUS
 10
1.574959
 20
0.774014
  0
VERTEX
  8
FOREGROUND
  6
CONTINUOUS
 10
1.570597
 20
0.781951
  0
VERTEX
  8
FOREGROUND
  6
CONTINUOUS
 10
1.566095
 20
0.789799
  0
VERTEX
  8
FOREGROUND
  6
CONTINUOUS
 10
1.561453
 20
0.797555
  0
VERTEX
  8
FOREGROUND
  6
CONTINUOUS
 10
1.556673
 20
0.805218
  0
VERTEX
  8
FOREGROUND
  6
CONTINUOUS
 10
1.551758
 20
0.812786
  0
VERTEX
  8
FOREGROUND
  6
CONTINUOUS
 10
1.546709
 20
0.820257
  0
VERTEX
  8
FOREGROUND
  6
CONTINUOUS
 10
1.541527
 20
0.827630
  0
VERTEX
  8
FOREGROUND
  6
CONTINUOUS
 10
1.536214
 20
0.834903
  0
VERTEX
  8
FOREGROUND
  6
CONTINUOUS
 10
1.530773
 20
0.842074
  0
VERTEX
  8
FOREGROUND
  6
CONTINUOUS
 10
1.525204
 20
0.849142
  0
VERTEX
  8
FOREGROUND
  6
CONTINUOUS
 10
1.519510
 20
0.856104
  0
VERTEX
  8
FOREGROUND
  6
CONTINUOUS
 10
1.513692
 20
0.862960
  0
VERTEX
  8
FOREGROUND
  6
CONTINUOUS
 10
1.507751
 20
0.869706
  0
VERTEX
  8
FOREGROUND
  6
CONTINUOUS
 10
1.501691
 20
0.876343
  0
VERTEX
  8
FOREGROUND
  6
CONTINUOUS
 10
1.495511
 20
0.882868
  0
VERTEX
  8
FOREGROUND
  6
CONTINUOUS
 10
1.489214
 20
0.889279
  0
VERTEX
  8
FOREGROUND
  6
CONTINUOUS
 10
1.482802
 20
0.895574
  0
VERTEX
  8
FOREGROUND
  6
CONTINUOUS
 10
1.476276
 20
0.901753
  0
VERTEX
  8
FOREGROUND
  6
CONTINUOUS
 10
1.469639
 20
0.907812
  0
VERTEX
  8
FOREGROUND
  6
CONTINUOUS
 10
1.462891
 20
0.913751
  0
VERTEX
  8
FOREGROUND
  6
CONTINUOUS
 10
1.456034
 20
0.919568
  0
VERTEX
  8
FOREGROUND
  6
CONTINUOUS
 10
1.449071
 20
0.925261
  0
VERTEX
  8
FOREGROUND
  6
CONTINUOUS
 10
1.442002
 20
0.930829
  0
VERTEX
  8
FOREGROUND
  6
CONTINUOUS
 10
1.434830
 20
0.936269
  0
VERTEX
  8
FOREGROUND
  6
CONTINUOUS
 10
1.427556
 20
0.941580
  0
VERTEX
  8
FOREGROUND
  6
CONTINUOUS
 10
1.420182
 20
0.946760
  0
VERTEX
  8
FOREGROUND
  6
CONTINUOUS
 10
1.412710
 20
0.951808
  0
VERTEX
  8
FOREGROUND
  6
CONTINUOUS
 10
1.405141
 20
0.956722
  0
VERTEX
  8
FOREGROUND
  6
CONTINUOUS
 10
1.397478
 20
0.961500
  0
VERTEX
  8
FOREGROUND
  6
CONTINUOUS
 10
1.389720
 20
0.966141
  0
VERTEX
  8
FOREGROUND
  6
CONTINUOUS
 10
1.381872
 20
0.970642
  0
VERTEX
  8
FOREGROUND
  6
CONTINUOUS
 10
1.373933
 20
0.975002
  0
VERTEX
  8
FOREGROUND
  6
CONTINUOUS
 10
1.365907
 20
0.979220
  0
VERTEX
  8
FOREGROUND
  6
CONTINUOUS
 10
1.357794
 20
0.983293
  0
VERTEX
  8
FOREGROUND
  6
CONTINUOUS
 10
1.349596
 20
0.987221
  0
VERTEX
  8
FOREGROUND
  6
CONTINUOUS
 10
1.341315
 20
0.991000
  0
VERTEX
  8
FOREGROUND
  6
CONTINUOUS
 10
1.332953
 20
0.994631
  0
VERTEX
  8
FOREGROUND
  6
CONTINUOUS
 10
1.324511
 20
0.998110
  0
VERTEX
  8
FOREGROUND
  6
CONTINUOUS
 10
1.315992
 20
1.001436
  0
VERTEX
  8
FOREGROUND
  6
CONTINUOUS
 10
1.307396
 20
1.004608
  0
VERTEX
  8
FOREGROUND
  6
CONTINUOUS
 10
1.298725
 20
1.007623
  0
VERTEX
  8
FOREGROUND
  6
CONTINUOUS
 10
1.289982
 20
1.010481
  0
VERTEX
  8
FOREGROUND
  6
CONTINUOUS
 10
1.281168
 20
1.013179
  0
VERTEX
  8
FOREGROUND
  6
CONTINUOUS
 10
1.272284
 20
1.015715
  0
VERTEX
  8
FOREGROUND
  6
CONTINUOUS
 10
1.263333
 20
1.018089
  0
VERTEX
  8
FOREGROUND
  6
CONTINUOUS
 10
1.254315
 20
1.020298
  0
VERTEX
  8
FOREGROUND
  6
CONTINUOUS
 10
1.245233
 20
1.022340
  0
VERTEX
  8
FOREGROUND
  6
CONTINUOUS
 10
1.236089
 20
1.024214
  0
VERTEX
  8
FOREGROUND
  6
CONTINUOUS
 10
1.226884
 20
1.025919
  0
VERTEX
  8
FOREGROUND
  6
CONTINUOUS
 10
1.217619
 20
1.027451
  0
VERTEX
  8
FOREGROUND
  6
CONTINUOUS
 10
1.208297
 20
1.028811
  0
VERTEX
  8
FOREGROUND
  6
CONTINUOUS
 10
1.198919
 20
1.029995
  0
VERTEX
  8
FOREGROUND
  6
CONTINUOUS
 10
1.189487
 20
1.031003
  0
VERTEX
  8
FOREGROUND
  6
CONTINUOUS
 10
1.180003
 20
1.031833
  0
VERTEX
  8
FOREGROUND
  6
CONTINUOUS
 10
1.170468
 20
1.032482
  0
VERTEX
  8
FOREGROUND
  6
CONTINUOUS
 10
1.160884
 20
1.032950
  0
VERTEX
  8
FOREGROUND
  6
CONTINUOUS
 10
1.151252
 20
1.033234
  0
VERTEX
  8
FOREGROUND
  6
CONTINUOUS
 10
1.141576
 20
1.033333
  0
VERTEX
  8
FOREGROUND
  6
CONTINUOUS
 10
0.541576
 20
1.033333
  0
VERTEX
  8
FOREGROUND
  6
CONTINUOUS
 10
0.531901
 20
1.033231
  0
VERTEX
  8
FOREGROUND
  6
CONTINUOUS
 10
0.522272
 20
1.032943
  0
VERTEX
  8
FOREGROUND
  6
CONTINUOUS
 10
0.512691
 20
1.032472
  0
VERTEX
  8
FOREGROUND
  6
CONTINUOUS
 10
0.503159
 20
1.031819
  0
VERTEX
  8
FOREGROUND
  6
CONTINUOUS
 10
0.493677
 20
1.030987
  0
VERTEX
  8
FOREGROUND
  6
CONTINUOUS
 10
0.484248
 20
1.029976
  0
VERTEX
  8
FOREGROUND
  6
CONTINUOUS
 10
0.474873
 20
1.028788
  0
VERTEX
  8
FOREGROUND
  6
CONTINUOUS
 10
0.465553
 20
1.027426
  0
VERTEX
  8
FOREGROUND
  6
CONTINUOUS
 10
0.456292
 20
1.025891
  0
VERTEX
  8
FOREGROUND
  6
CONTINUOUS
 10
0.447089
 20
1.024184
  0
VERTEX
  8
FOREGROUND
  6
CONTINUOUS
 10
0.437948
 20
1.022307
  0
VERTEX
  8
FOREGROUND
  6
CONTINUOUS
 10
0.428869
 20
1.020262
  0
VERTEX
  8
FOREGROUND
  6
CONTINUOUS
 10
0.419854
 20
1.018051
  0
VERTEX
  8
FOREGROUND
  6
CONTINUOUS
 10
0.410905
 20
1.015675
  0
VERTEX
  8
FOREGROUND
  6
CONTINUOUS
 10
0.402024
 20
1.013137
  0
VERTEX
  8
FOREGROUND
  6
CONTINUOUS
 10
0.393213
 20
1.010437
  0
VERTEX
  8
FOREGROUND
  6
CONTINUOUS
 10
0.384473
 20
1.007577
  0
VERTEX
  8
FOREGROUND
  6
CONTINUOUS
 10
0.375805
 20
1.004560
  0
VERTEX
  8
FOREGROUND
  6
CONTINUOUS
 10
0.367212
 20
1.001387
  0
VERTEX
  8
FOREGROUND
  6
CONTINUOUS
 10
0.358695
 20
0.998059
  0
VERTEX
  8
FOREGROUND
  6
CONTINUOUS
 10
0.350256
 20
0.994578
  0
VERTEX
  8
FOREGROUND
  6
CONTINUOUS
 10
0.341897
 20
0.990947
  0
VERTEX
  8
FOREGROUND
  6
CONTINUOUS
 10
0.333619
 20
0.987166
  0
VERTEX
  8
FOREGROUND
  6
CONTINUOUS
 10
0.325425
 20
0.983237
  0
VERTEX
  8
FOREGROUND
  6
CONTINUOUS
 10
0.317314
 20
0.979162
  0
VERTEX
  8
FOREGROUND
  6
CONTINUOUS
 10
0.309291
 20
0.974944
  0
VERTEX
  8
FOREGROUND
  6
CONTINUOUS
 10
0.301355
 20
0.970582
  0
VERTEX
  8
FOREGROUND
  6
CONTINUOUS
 10
0.293510
 20
0.966080
  0
VERTEX
  8
FOREGROUND
  6
CONTINUOUS
 10
0.285755
 20
0.961439
  0
VERTEX
  8
FOREGROUND
  6
CONTINUOUS
 10
0.278094
 20
0.956660
  0
VERTEX
  8
FOREGROUND
  6
CONTINUOUS
 10
0.270528
 20
0.951745
  0
VERTEX
  8
FOREGROUND
  6
CONTINUOUS
 10
0.263059
 20
0.946697
  0
VERTEX
  8
FOREGROUND
  6
CONTINUOUS
 10
0.255688
 20
0.941516
  0
VERTEX
  8
FOREGROUND
  6
CONTINUOUS
 10
0.248417
 20
0.936205
  0
VERTEX
  8
FOREGROUND
  6
CONTINUOUS
 10
0.241248
 20
0.930764
  0
VERTEX
  8
FOREGROUND
  6
CONTINUOUS
 10
0.234182
 20
0.925197
  0
VERTEX
  8
FOREGROUND
  6
CONTINUOUS
 10
0.227221
 20
0.919503
  0
VERTEX
  8
FOREGROUND
  6
CONTINUOUS
 10
0.220368
 20
0.913686
  0
VERTEX
  8
FOREGROUND
  6
CONTINUOUS
 10
0.213622
 20
0.907747
  0
VERTEX
  8
FOREGROUND
  6
CONTINUOUS
 10
0.206987
 20
0.901688
  0
VERTEX
  8
FOREGROUND
  6
CONTINUOUS
 10
0.200464
 20
0.895509
  0
VERTEX
  8
FOREGROUND
  6
CONTINUOUS
 10
0.194055
 20
0.889214
  0
VERTEX
  8
FOREGROUND
  6
CONTINUOUS
 10
0.187761
 20
0.882804
  0
VERTEX
  8
FOREGROUND
  6
CONTINUOUS
 10
0.181584
 20
0.876279
  0
VERTEX
  8
FOREGROUND
  6
CONTINUOUS
 10
0.175525
 20
0.869643
  0
VERTEX
  8
FOREGROUND
  6
CONTINUOUS
 10
0.169587
 20
0.862897
  0
VERTEX
  8
FOREGROUND
  6
CONTINUOUS
 10
0.163772
 20
0.856042
  0
VERTEX
  8
FOREGROUND
  6
CONTINUOUS
 10
0.158080
 20
0.849080
  0
VERTEX
  8
FOREGROUND
  6
CONTINUOUS
 10
0.152513
 20
0.842013
  0
VERTEX
  8
FOREGROUND
  6
CONTINUOUS
 10
0.147074
 20
0.834843
  0
VERTEX
  8
FOREGROUND
  6
CONTINUOUS
 10
0.141764
 20
0.827571
  0
VERTEX
  8
FOREGROUND
  6
CONTINUOUS
 10
0.136585
 20
0.820199
  0
VERTEX
  8
FOREGROUND
  6
CONTINUOUS
 10
0.131538
 20
0.812729
  0
VERTEX
  8
FOREGROUND
  6
CONTINUOUS
 10
0.126625
 20
0.805162
  0
VERTEX
  8
FOREGROUND
  6
CONTINUOUS
 10
0.121847
 20
0.797500
  0
VERTEX
  8
FOREGROUND
  6
CONTINUOUS
 10
0.117207
 20
0.789745
  0
VERTEX
  8
FOREGROUND
  6
CONTINUOUS
 10
0.112707
 20
0.781899
  0
VERTEX
  8
FOREGROUND
  6
CONTINUOUS
 10
0.108347
 20
0.773962
  0
VERTEX
  8
FOREGROUND
  6
CONTINUOUS
 10
0.104129
 20
0.765938
  0
VERTEX
  8
FOREGROUND
  6
CONTINUOUS
 10
0.100056
 20
0.757827
  0
VERTEX
  8
FOREGROUND
  6
CONTINUOUS
 10
0.096129
 20
0.749631
  0
VERTEX
  8
FOREGROUND
  6
CONTINUOUS
 10
0.092350
 20
0.741353
  0
VERTEX
  8
FOREGROUND
  6
CONTINUOUS
 10
0.088720
 20
0.732993
  0
VERTEX
  8
FOREGROUND
  6
CONTINUOUS
 10
0.085241
 20
0.724554
  0
VERTEX
  8
FOREGROUND
  6
CONTINUOUS
 10
0.081914
 20
0.716036
  0
VERTEX
  8
FOREGROUND
  6
CONTINUOUS
 10
0.078742
 20
0.707443
  0
VERTEX
  8
FOREGROUND
  6
CONTINUOUS
 10
0.075727
 20
0.698774
  0
VERTEX
  8
FOREGROUND
  6
CONTINUOUS
 10
0.072869
 20
0.690034
  0
VERTEX
  8
FOREGROUND
  6
CONTINUOUS
 10
0.070171
 20
0.681222
  0
VERTEX
  8
FOREGROUND
  6
CONTINUOUS
 10
0.067634
 20
0.672340
  0
VERTEX
  8
FOREGROUND
  6
CONTINUOUS
 10
0.065260
 20
0.663391
  0
VERTEX
  8
FOREGROUND
  6
CONTINUOUS
 10
0.063050
 20
0.654376
  0
VERTEX
  8
FOREGROUND
  6
CONTINUOUS
 10
0.061007
 20
0.645297
  0
VERTEX
  8
FOREGROUND
  6
CONTINUOUS
 10
0.059132
 20
0.636155
  0
VERTEX
  8
FOREGROUND
  6
CONTINUOUS
 10
0.057427
 20
0.626952
  0
VERTEX
  8
FOREGROUND
  6
CONTINUOUS
 10
0.055893
 20
0.617690
  0
VERTEX
  8
FOREGROUND
  6
CONTINUOUS
 10
0.054533
 20
0.608370
  0
VERTEX
  8
FOREGROUND
  6
CONTINUOUS
 10
0.053347
 20
0.598995
  0
VERTEX
  8
FOREGROUND
  6
CONTINUOUS
 10
0.052338
 20
0.589566
  0
VERTEX
  8
FOREGROUND
  6
CONTINUOUS
 10
0.051507
 20
0.580084
  0
VERTEX
  8
FOREGROUND
  6
CONTINUOUS
 10
0.050856
 20
0.570551
  0
VERTEX
  8
FOREGROUND
  6
CONTINUOUS
 10
0.050387
 20
0.560970
  0
VERTEX
  8
FOREGROUND
  6
CONTINUOUS
 10
0.050101
 20
0.551341
  0
VERTEX
  8
FOREGROUND
  6
CONTINUOUS
 10
0.050000
 20
0.541667
  0
VERTEX
  8
FOREGROUND
  6
CONTINUOUS
 10
0.050000
 20
0.541667
  0
VERTEX
  8
FOREGROUND
  6
CONTINUOUS
 10
0.050101
 20
0.531991
  0
VERTEX
  8
FOREGROUND
  6
CONTINUOUS
 10
0.050387
 20
0.522361
  0
VERTEX
  8
FOREGROUND
  6
CONTINUOUS
 10
0.050856
 20
0.512778
  0
VERTEX
  8
FOREGROUND
  6
CONTINUOUS
 10
0.051507
 20
0.503245
  0
VERTEX
  8
FOREGROUND
  6
CONTINUOUS
 10
0.052338
 20
0.493762
  0
VERTEX
  8
FOREGROUND
  6
CONTINUOUS
 10
0.053348
 20
0.484331
  0
VERTEX
  8
FOREGROUND
  6
CONTINUOUS
 10
0.054534
 20
0.474955
  0
VERTEX
  8
FOREGROUND
  6
CONTINUOUS
 10
0.055895
 20
0.465634
  0
VERTEX
  8
FOREGROUND
  6
CONTINUOUS
 10
0.057429
 20
0.456371
  0
VERTEX
  8
FOREGROUND
  6
CONTINUOUS
 10
0.059134
 20
0.447167
  0
VERTEX
  8
FOREGROUND
  6
CONTINUOUS
 10
0.061010
 20
0.438024
  0
VERTEX
  8
FOREGROUND
  6
CONTINUOUS
 10
0.063053
 20
0.428943
  0
VERTEX
  8
FOREGROUND
  6
CONTINUOUS
 10
0.065263
 20
0.419927
  0
VERTEX
  8
FOREGROUND
  6
CONTINUOUS
 10
0.067638
 20
0.410977
  0
VERTEX
  8
FOREGROUND
  6
CONTINUOUS
 10
0.070176
 20
0.402095
  0
VERTEX
  8
FOREGROUND
  6
CONTINUOUS
 10
0.072874
 20
0.393282
  0
VERTEX
  8
FOREGROUND
  6
CONTINUOUS
 10
0.075733
 20
0.384540
  0
VERTEX
  8
FOREGROUND
  6
CONTINUOUS
 10
0.078749
 20
0.375871
  0
VERTEX
  8
FOREGROUND
  6
CONTINUOUS
 10
0.081922
 20
0.367277
  0
VERTEX
  8
FOREGROUND
  6
CONTINUOUS
 10
0.085249
 20
0.358759
  0
VERTEX
  8
FOREGROUND
  6
CONTINUOUS
 10
0.088729
 20
0.350318
  0
VERTEX
  8
FOREGROUND
  6
CONTINUOUS
 10
0.092360
 20
0.341958
  0
VERTEX
  8
FOREGROUND
  6
CONTINUOUS
 10
0.096140
 20
0.333678
  0
VERTEX
  8
FOREGROUND
  6
CONTINUOUS
 10
0.100068
 20
0.325482
  0
VERTEX
  8
FOREGROUND
  6
CONTINUOUS
 10
0.104142
 20
0.317370
  0
VERTEX
  8
FOREGROUND
  6
CONTINUOUS
 10
0.108360
 20
0.309345
  0
VERTEX
  8
FOREGROUND
  6
CONTINUOUS
 10
0.112721
 20
0.301408
  0
VERTEX
  8
FOREGROUND
  6
CONTINUOUS
 10
0.117223
 20
0.293561
  0
VERTEX
  8
FOREGROUND
  6
CONTINUOUS
 10
0.121864
 20
0.285806
  0
VERTEX
  8
FOREGROUND
  6
CONTINUOUS
 10
0.126642
 20
0.278143
  0
VERTEX
  8
FOREGROUND
  6
CONTINUOUS
 10
0.131557
 20
0.270576
  0
VERTEX
  8
FOREGROUND
  6
CONTINUOUS
 10
0.136605
 20
0.263105
  0
VERTEX
  8
FOREGROUND
  6
CONTINUOUS
 10
0.141785
 20
0.255733
  0
VERTEX
  8
FOREGROUND
  6
CONTINUOUS
 10
0.147097
 20
0.248460
  0
VERTEX
  8
FOREGROUND
  6
CONTINUOUS
 10
0.152537
 20
0.241290
  0
VERTEX
  8
FOREGROUND
  6
CONTINUOUS
 10
0.158104
 20
0.234222
  0
VERTEX
  8
FOREGROUND
  6
CONTINUOUS
 10
0.163798
 20
0.227260
  0
VERTEX
  8
FOREGROUND
  6
CONTINUOUS
 10
0.169614
 20
0.220405
  0
VERTEX
  8
FOREGROUND
  6
CONTINUOUS
 10
0.175554
 20
0.213659
  0
VERTEX
  8
FOREGROUND
  6
CONTINUOUS
 10
0.181613
 20
0.207022
  0
VERTEX
  8
FOREGROUND
  6
CONTINUOUS
 10
0.187792
 20
0.200498
  0
VERTEX
  8
FOREGROUND
  6
CONTINUOUS
 10
0.194087
 20
0.194087
  0
VERTEX
  8
FOREGROUND
  6
CONTINUOUS
 10
0.200498
 20
0.187792
  0
VERTEX
  8
FOREGROUND
  6
CONTINUOUS
 10
0.207022
 20
0.181613
  0
VERTEX
  8
FOREGROUND
  6
CONTINUOUS
 10
0.213659
 20
0.175554
  0
VERTEX
  8
FOREGROUND
  6
CONTINUOUS
 10
0.220405
 20
0.169614
  0
VERTEX
  8
FOREGROUND
  6
CONTINUOUS
 10
0.227260
 20
0.163798
  0
VERTEX
  8
FOREGROUND
  6
CONTINUOUS
 10
0.234222
 20
0.158104
  0
VERTEX
  8
FOREGROUND
  6
CONTINUOUS
 10
0.241290
 20
0.152537
  0
VERTEX
  8
FOREGROUND
  6
CONTINUOUS
 10
0.248460
 20
0.147097
  0
VERTEX
  8
FOREGROUND
  6
CONTINUOUS
 10
0.255733
 20
0.141785
  0
VERTEX
  8
FOREGROUND
  6
CONTINUOUS
 10
0.263105
 20
0.136605
  0
VERTEX
  8
FOREGROUND
  6
CONTINUOUS
 10
0.270576
 20
0.131557
  0
VERTEX
  8
FOREGROUND
  6
CONTINUOUS
 10
0.278143
 20
0.126642
  0
VERTEX
  8
FOREGROUND
  6
CONTINUOUS
 10
0.285806
 20
0.121864
  0
VERTEX
  8
FOREGROUND
  6
CONTINUOUS
 10
0.293561
 20
0.117223
  0
VERTEX
  8
FOREGROUND
  6
CONTINUOUS
 10
0.301408
 20
0.112721
  0
VERTEX
  8
FOREGROUND
  6
CONTINUOUS
 10
0.309345
 20
0.108360
  0
VERTEX
  8
FOREGROUND
  6
CONTINUOUS
 10
0.317370
 20
0.104142
  0
VERTEX
  8
FOREGROUND
  6
CONTINUOUS
 10
0.325482
 20
0.100068
  0
VERTEX
  8
FOREGROUND
  6
CONTINUOUS
 10
0.333678
 20
0.096140
  0
VERTEX
  8
FOREGROUND
  6
CONTINUOUS
 10
0.341958
 20
0.092360
  0
VERTEX
  8
FOREGROUND
  6
CONTINUOUS
 10
0.350318
 20
0.088729
  0
VERTEX
  8
FOREGROUND
  6
CONTINUOUS
 10
0.358759
 20
0.085249
  0
VERTEX
  8
FOREGROUND
  6
CONTINUOUS
 10
0.367277
 20
0.081922
  0
VERTEX
  8
FOREGROUND
  6
CONTINUOUS
 10
0.375871
 20
0.078749
  0
VERTEX
  8
FOREGROUND
  6
CONTINUOUS
 10
0.384540
 20
0.075733
  0
VERTEX
  8
FOREGROUND
  6
CONTINUOUS
 10
0.393282
 20
0.072874
  0
VERTEX
  8
FOREGROUND
  6
CONTINUOUS
 10
0.402095
 20
0.070176
  0
VERTEX
  8
FOREGROUND
  6
CONTINUOUS
 10
0.410977
 20
0.067638
  0
VERTEX
  8
FOREGROUND
  6
CONTINUOUS
 10
0.419927
 20
0.065263
  0
VERTEX
  8
FOREGROUND
  6
CONTINUOUS
 10
0.428943
 20
0.063053
  0
VERTEX
  8
FOREGROUND
  6
CONTINUOUS
 10
0.438024
 20
0.061010
  0
VERTEX
  8
FOREGROUND
  6
CONTINUOUS
 10
0.447167
 20
0.059134
  0
VERTEX
  8
FOREGROUND
  6
CONTINUOUS
 10
0.456371
 20
0.057429
  0
VERTEX
  8
FOREGROUND
  6
CONTINUOUS
 10
0.465634
 20
0.055895
  0
VERTEX
  8
FOREGROUND
  6
CONTINUOUS
 10
0.474955
 20
0.054534
  0
VERTEX
  8
FOREGROUND
  6
CONTINUOUS
 10
0.484331
 20
0.053348
  0
VERTEX
  8
FOREGROUND
  6
CONTINUOUS
 10
0.493762
 20
0.052338
  0
VERTEX
  8
FOREGROUND
  6
CONTINUOUS
 10
0.503245
 20
0.051507
  0
VERTEX
  8
FOREGROUND
  6
CONTINUOUS
 10
0.512778
 20
0.050856
  0
VERTEX
  8
FOREGROUND
  6
CONTINUOUS
 10
0.522361
 20
0.050387
  0
VERTEX
  8
FOREGROUND
  6
CONTINUOUS
 10
0.531991
 20
0.050101
  0
VERTEX
  8
FOREGROUND
  6
CONTINUOUS
 10
0.541667
 20
0.050000
  0
SEQEND
  8
0
  0
ENDSEC
  0
EOF
