  0
SECTION
  2
HEADER
  9
$ACADVER
  1
AC1006
  9
$EXTMIN
 10
0.000000
 20
0.000000
  9
$EXTMAX
 10
2.076667
 20
1.280000
  9
$LTSCALE
 40
0.166667
  9
$PDMODE
 70
    35
  9
$PDSIZE
 40
0.133333
  0
ENDSEC
  0
SECTION
  2
TABLES
  0
TABLE
  2
LTYPE
 70
     9
  0
LTYPE
  2
CONTINUOUS
 70
    64
  3
Solid line
 72
    65
 73
     0
 40
0.000000
  0
LTYPE
  2
DASHED
 70
    64
  3
__ __ __ __ __ __ __ __ __ __ __ __ __ __ __
 72
    65
 73
     2
 40
0.001250
 49
0.000833
 49
-0.000417
  0
LTYPE
  2
HIDDEN
 70
    64
  3
 _ _ _ _ _ _ _ _ _ _ _ _ _ _ _ _ _ _ _ _ _ _
 72
    65
 73
     2
 40
0.000625
 49
0.000417
 49
-0.000208
  0
LTYPE
  2
CENTER
 70
    64
  3
____ _ ____ _ ____ _ ____ _ ____ _ ____ _ ____
 72
    65
 73
     4
 40
0.003333
 49
0.002083
 49
-0.000417
 49
0.000417
 49
-0.000417
  0
LTYPE
  2
PHANTOM
 70
    64
  3
_____ _ _ _____ _ _ _____ _ _ _____ _ _ ____
 72
    65
 73
     6
 40
0.004167
 49
0.002083
 49
-0.000417
 49
0.000417
 49
-0.000417
 49
0.000417
 49
-0.000417
  0
LTYPE
  2
DOT
 70
    64
  3
...............................................
 72
    65
 73
     2
 40
0.000417
 49
0.000000
 49
-0.000417
  0
LTYPE
  2
DASHDOT
 70
    64
  3
__ . __ . __ . __ . __ . __ . __ . __ . __ . __
 72
    65
 73
     4
 40
0.001667
 49
0.000833
 49
-0.000417
 49
0.000000
 49
-0.000417
  0
LTYPE
  2
BORDER
 70
    64
  3
__ __ . __ __ . __ __ . __ __ . __ __ . __ __
 72
    65
 73
     6
 40
0.002917
 49
0.000833
 49
-0.000417
 49
0.000833
 49
-0.000417
 49
0.000000
 49
-0.000417
  0
LTYPE
  2
DIVIDE
 70
    64
  3
__ . . __ . . __ . . __ . . __ . . __ . . __
 72
    65
 73
     6
 40
0.002083
 49
0.000833
 49
-0.000417
 49
0.000000
 49
-0.000417
 49
0.000000
 49
-0.000417
  0
LTYPE
  2
DOTDOT
 70
    64
  3
 . .  . .  . .  . .  . .  . . 
 72
    65
 73
     5
 40
0.000917
 49
-0.000417
 49
0.000000
 49
-0.000417
 49
0.000000
 49
-0.000417
  0
ENDTAB
  0
TABLE
  2
STYLE
 70
     2
  0
STYLE
 70
     0
  2
SN0
 40
0.000000
 41
0.001667
 50
0.000000
 71
     0
 42
0.000000
  3
ROMAND
  0
STYLE
 70
    68
  2
SV0
 40
0.000000
 41
0.001667
 50
0.000000
 71
     0
 42
0.000000
  3
ROMAND
  0
ENDTAB
  0
TABLE
  2
LAYER
 70
     2
  0
LAYER
  2
FOREGROUND
 70
    64
 62
     7
  6
CONTINUOUS
  0
LAYER
  2
BACKGROUND
 70
    65
 62
    -7
  6
CONTINUOUS
  0
ENDTAB
  0
ENDSEC
  0
SECTION
  2
ENTITIES
  0
POLYLINE
  8
FOREGROUND
  6
CONTINUOUS
 66
     1
 40
0.010000
 41
0.010000
 70
     1
  0
VERTEX
  8
FOREGROUND
  6
CONTINUOUS
 10
1.436667
 20
0.050000
  0
VERTEX
  8
FOREGROUND
  6
CONTINUOUS
 10
1.448417
 20
0.050124
  0
VERTEX
  8
FOREGROUND
  6
CONTINUOUS
 10
1.460111
 20
0.050475
  0
VERTEX
  8
FOREGROUND
  6
CONTINUOUS
 10
1.471747
 20
0.051052
  0
VERTEX
  8
FOREGROUND
  6
CONTINUOUS
 10
1.483323
 20
0.051852
  0
VERTEX
  8
FOREGROUND
  6
CONTINUOUS
 10
1.494836
 20
0.052873
  0
VERTEX
  8
FOREGROUND
  6
CONTINUOUS
 10
1.506285
 20
0.054113
  0
VERTEX
  8
FOREGROUND
  6
CONTINUOUS
 10
1.517667
 20
0.055570
  0
VERTEX
  8
FOREGROUND
  6
CONTINUOUS
 10
1.528980
 20
0.057242
  0
VERTEX
  8
FOREGROUND
  6
CONTINUOUS
 10
1.540223
 20
0.059127
  0
VERTEX
  8
FOREGROUND
  6
CONTINUOUS
 10
1.551392
 20
0.061222
  0
VERTEX
  8
FOREGROUND
  6
CONTINUOUS
 10
1.562487
 20
0.063525
  0
VERTEX
  8
FOREGROUND
  6
CONTINUOUS
 10
1.573504
 20
0.066035
  0
VERTEX
  8
FOREGROUND
  6
CONTINUOUS
 10
1.584441
 20
0.068749
  0
VERTEX
  8
FOREGROUND
  6
CONTINUOUS
 10
1.595298
 20
0.071665
  0
VERTEX
  8
FOREGROUND
  6
CONTINUOUS
 10
1.606070
 20
0.074782
  0
VERTEX
  8
FOREGROUND
  6
CONTINUOUS
 10
1.616757
 20
0.078096
  0
VERTEX
  8
FOREGROUND
  6
CONTINUOUS
 10
1.627356
 20
0.081606
  0
VERTEX
  8
FOREGROUND
  6
CONTINUOUS
 10
1.637866
 20
0.085309
  0
VERTEX
  8
FOREGROUND
  6
CONTINUOUS
 10
1.648283
 20
0.089204
  0
VERTEX
  8
FOREGROUND
  6
CONTINUOUS
 10
1.658606
 20
0.093288
  0
VERTEX
  8
FOREGROUND
  6
CONTINUOUS
 10
1.668832
 20
0.097560
  0
VERTEX
  8
FOREGROUND
  6
CONTINUOUS
 10
1.678961
 20
0.102017
  0
VERTEX
  8
FOREGROUND
  6
CONTINUOUS
 10
1.688988
 20
0.106657
  0
VERTEX
  8
FOREGROUND
  6
CONTINUOUS
 10
1.698913
 20
0.111477
  0
VERTEX
  8
FOREGROUND
  6
CONTINUOUS
 10
1.708734
 20
0.116477
  0
VERTEX
  8
FOREGROUND
  6
CONTINUOUS
 10
1.718447
 20
0.121653
  0
VERTEX
  8
FOREGROUND
  6
CONTINUOUS
 10
1.728052
 20
0.127004
  0
VERTEX
  8
FOREGROUND
  6
CONTINUOUS
 10
1.737545
 20
0.132528
  0
VERTEX
  8
FOREGROUND
  6
CONTINUOUS
 10
1.746925
 20
0.138222
  0
VERTEX
  8
FOREGROUND
  6
CONTINUOUS
 10
1.756190
 20
0.144084
  0
VERTEX
  8
FOREGROUND
  6
CONTINUOUS
 10
1.765338
 20
0.150112
  0
VERTEX
  8
FOREGROUND
  6
CONTINUOUS
 10
1.774366
 20
0.156304
  0
VERTEX
  8
FOREGROUND
  6
CONTINUOUS
 10
1.783272
 20
0.162658
  0
VERTEX
  8
FOREGROUND
  6
CONTINUOUS
 10
1.792054
 20
0.169172
  0
VERTEX
  8
FOREGROUND
  6
CONTINUOUS
 10
1.800711
 20
0.175843
  0
VERTEX
  8
FOREGROUND
  6
CONTINUOUS
 10
1.809239
 20
0.182670
  0
VERTEX
  8
FOREGROUND
  6
CONTINUOUS
 10
1.817637
 20
0.189651
  0
VERTEX
  8
FOREGROUND
  6
CONTINUOUS
 10
1.825903
 20
0.196782
  0
VERTEX
  8
FOREGROUND
  6
CONTINUOUS
 10
1.834035
 20
0.204063
  0
VERTEX
  8
FOREGROUND
  6
CONTINUOUS
 10
1.842030
 20
0.211491
  0
VERTEX
  8
FOREGROUND
  6
CONTINUOUS
 10
1.849887
 20
0.219064
  0
VERTEX
  8
FOREGROUND
  6
CONTINUOUS
 10
1.857603
 20
0.226780
  0
VERTEX
  8
FOREGROUND
  6
CONTINUOUS
 10
1.865175
 20
0.234637
  0
VERTEX
  8
FOREGROUND
  6
CONTINUOUS
 10
1.872603
 20
0.242632
  0
VERTEX
  8
FOREGROUND
  6
CONTINUOUS
 10
1.879884
 20
0.250763
  0
VERTEX
  8
FOREGROUND
  6
CONTINUOUS
 10
1.887016
 20
0.259029
  0
VERTEX
  8
FOREGROUND
  6
CONTINUOUS
 10
1.893997
 20
0.267428
  0
VERTEX
  8
FOREGROUND
  6
CONTINUOUS
 10
1.900824
 20
0.275956
  0
VERTEX
  8
FOREGROUND
  6
CONTINUOUS
 10
1.907495
 20
0.284613
  0
VERTEX
  8
FOREGROUND
  6
CONTINUOUS
 10
1.914009
 20
0.293395
  0
VERTEX
  8
FOREGROUND
  6
CONTINUOUS
 10
1.920363
 20
0.302301
  0
VERTEX
  8
FOREGROUND
  6
CONTINUOUS
 10
1.926555
 20
0.311329
  0
VERTEX
  8
FOREGROUND
  6
CONTINUOUS
 10
1.932583
 20
0.320476
  0
VERTEX
  8
FOREGROUND
  6
CONTINUOUS
 10
1.938445
 20
0.329741
  0
VERTEX
  8
FOREGROUND
  6
CONTINUOUS
 10
1.944139
 20
0.339121
  0
VERTEX
  8
FOREGROUND
  6
CONTINUOUS
 10
1.949662
 20
0.348615
  0
VERTEX
  8
FOREGROUND
  6
CONTINUOUS
 10
1.955013
 20
0.358219
  0
VERTEX
  8
FOREGROUND
  6
CONTINUOUS
 10
1.960190
 20
0.367933
  0
VERTEX
  8
FOREGROUND
  6
CONTINUOUS
 10
1.965189
 20
0.377753
  0
VERTEX
  8
FOREGROUND
  6
CONTINUOUS
 10
1.970010
 20
0.387678
  0
VERTEX
  8
FOREGROUND
  6
CONTINUOUS
 10
1.974650
 20
0.397706
  0
VERTEX
  8
FOREGROUND
  6
CONTINUOUS
 10
1.979107
 20
0.407834
  0
VERTEX
  8
FOREGROUND
  6
CONTINUOUS
 10
1.983378
 20
0.418061
  0
VERTEX
  8
FOREGROUND
  6
CONTINUOUS
 10
1.987463
 20
0.428384
  0
VERTEX
  8
FOREGROUND
  6
CONTINUOUS
 10
1.991358
 20
0.438801
  0
VERTEX
  8
FOREGROUND
  6
CONTINUOUS
 10
1.995061
 20
0.449310
  0
VERTEX
  8
FOREGROUND
  6
CONTINUOUS
 10
1.998571
 20
0.459909
  0
VERTEX
  8
FOREGROUND
  6
CONTINUOUS
 10
2.001885
 20
0.470596
  0
VERTEX
  8
FOREGROUND
  6
CONTINUOUS
 10
2.005001
 20
0.481369
  0
VERTEX
  8
FOREGROUND
  6
CONTINUOUS
 10
2.007917
 20
0.492225
  0
VERTEX
  8
FOREGROUND
  6
CONTINUOUS
 10
2.010632
 20
0.503163
  0
VERTEX
  8
FOREGROUND
  6
CONTINUOUS
 10
2.013141
 20
0.514180
  0
VERTEX
  8
FOREGROUND
  6
CONTINUOUS
 10
2.015445
 20
0.525274
  0
VERTEX
  8
FOREGROUND
  6
CONTINUOUS
 10
2.017540
 20
0.536444
  0
VERTEX
  8
FOREGROUND
  6
CONTINUOUS
 10
2.019425
 20
0.547686
  0
VERTEX
  8
FOREGROUND
  6
CONTINUOUS
 10
2.021096
 20
0.559000
  0
VERTEX
  8
FOREGROUND
  6
CONTINUOUS
 10
2.022554
 20
0.570382
  0
VERTEX
  8
FOREGROUND
  6
CONTINUOUS
 10
2.023794
 20
0.581830
  0
VERTEX
  8
FOREGROUND
  6
CONTINUOUS
 10
2.024815
 20
0.593344
  0
VERTEX
  8
FOREGROUND
  6
CONTINUOUS
 10
2.025615
 20
0.604919
  0
VERTEX
  8
FOREGROUND
  6
CONTINUOUS
 10
2.026192
 20
0.616555
  0
VERTEX
  8
FOREGROUND
  6
CONTINUOUS
 10
2.026543
 20
0.628250
  0
VERTEX
  8
FOREGROUND
  6
CONTINUOUS
 10
2.026667
 20
0.640000
  0
VERTEX
  8
FOREGROUND
  6
CONTINUOUS
 10
2.026667
 20
0.640000
  0
VERTEX
  8
FOREGROUND
  6
CONTINUOUS
 10
2.026543
 20
0.651752
  0
VERTEX
  8
FOREGROUND
  6
CONTINUOUS
 10
2.026191
 20
0.663448
  0
VERTEX
  8
FOREGROUND
  6
CONTINUOUS
 10
2.025615
 20
0.675085
  0
VERTEX
  8
FOREGROUND
  6
CONTINUOUS
 10
2.024814
 20
0.686662
  0
VERTEX
  8
FOREGROUND
  6
CONTINUOUS
 10
2.023793
 20
0.698177
  0
VERTEX
  8
FOREGROUND
  6
CONTINUOUS
 10
2.022553
 20
0.709627
  0
VERTEX
  8
FOREGROUND
  6
CONTINUOUS
 10
2.021095
 20
0.721011
  0
VERTEX
  8
FOREGROUND
  6
CONTINUOUS
 10
2.019423
 20
0.732325
  0
VERTEX
  8
FOREGROUND
  6
CONTINUOUS
 10
2.017538
 20
0.743569
  0
VERTEX
  8
FOREGROUND
  6
CONTINUOUS
 10
2.015442
 20
0.754740
  0
VERTEX
  8
FOREGROUND
  6
CONTINUOUS
 10
2.013138
 20
0.765835
  0
VERTEX
  8
FOREGROUND
  6
CONTINUOUS
 10
2.010628
 20
0.776854
  0
VERTEX
  8
FOREGROUND
  6
CONTINUOUS
 10
2.007913
 20
0.787793
  0
VERTEX
  8
FOREGROUND
  6
CONTINUOUS
 10
2.004996
 20
0.798650
  0
VERTEX
  8
FOREGROUND
  6
CONTINUOUS
 10
2.001879
 20
0.809424
  0
VERTEX
  8
FOREGROUND
  6
CONTINUOUS
 10
1.998564
 20
0.820112
  0
VERTEX
  8
FOREGROUND
  6
CONTINUOUS
 10
1.995054
 20
0.830712
  0
VERTEX
  8
FOREGROUND
  6
CONTINUOUS
 10
1.991349
 20
0.841223
  0
VERTEX
  8
FOREGROUND
  6
CONTINUOUS
 10
1.987453
 20
0.851641
  0
VERTEX
  8
FOREGROUND
  6
CONTINUOUS
 10
1.983368
 20
0.861965
  0
VERTEX
  8
FOREGROUND
  6
CONTINUOUS
 10
1.979095
 20
0.872192
  0
VERTEX
  8
FOREGROUND
  6
CONTINUOUS
 10
1.974638
 20
0.882322
  0
VERTEX
  8
FOREGROUND
  6
CONTINUOUS
 10
1.969997
 20
0.892350
  0
VERTEX
  8
FOREGROUND
  6
CONTINUOUS
 10
1.965175
 20
0.902276
  0
VERTEX
  8
FOREGROUND
  6
CONTINUOUS
 10
1.960174
 20
0.912097
  0
VERTEX
  8
FOREGROUND
  6
CONTINUOUS
 10
1.954996
 20
0.921812
  0
VERTEX
  8
FOREGROUND
  6
CONTINUOUS
 10
1.949644
 20
0.931417
  0
VERTEX
  8
FOREGROUND
  6
CONTINUOUS
 10
1.944120
 20
0.940911
  0
VERTEX
  8
FOREGROUND
  6
CONTINUOUS
 10
1.938425
 20
0.950292
  0
VERTEX
  8
FOREGROUND
  6
CONTINUOUS
 10
1.932561
 20
0.959558
  0
VERTEX
  8
FOREGROUND
  6
CONTINUOUS
 10
1.926532
 20
0.968706
  0
VERTEX
  8
FOREGROUND
  6
CONTINUOUS
 10
1.920338
 20
0.977734
  0
VERTEX
  8
FOREGROUND
  6
CONTINUOUS
 10
1.913983
 20
0.986641
  0
VERTEX
  8
FOREGROUND
  6
CONTINUOUS
 10
1.907468
 20
0.995424
  0
VERTEX
  8
FOREGROUND
  6
CONTINUOUS
 10
1.900795
 20
1.004081
  0
VERTEX
  8
FOREGROUND
  6
CONTINUOUS
 10
1.893966
 20
1.012609
  0
VERTEX
  8
FOREGROUND
  6
CONTINUOUS
 10
1.886984
 20
1.021008
  0
VERTEX
  8
FOREGROUND
  6
CONTINUOUS
 10
1.879851
 20
1.029275
  0
VERTEX
  8
FOREGROUND
  6
CONTINUOUS
 10
1.872569
 20
1.037406
  0
VERTEX
  8
FOREGROUND
  6
CONTINUOUS
 10
1.865139
 20
1.045402
  0
VERTEX
  8
FOREGROUND
  6
CONTINUOUS
 10
1.857565
 20
1.053259
  0
VERTEX
  8
FOREGROUND
  6
CONTINUOUS
 10
1.849847
 20
1.060975
  0
VERTEX
  8
FOREGROUND
  6
CONTINUOUS
 10
1.841989
 20
1.068548
  0
VERTEX
  8
FOREGROUND
  6
CONTINUOUS
 10
1.833992
 20
1.075976
  0
VERTEX
  8
FOREGROUND
  6
CONTINUOUS
 10
1.825859
 20
1.083257
  0
VERTEX
  8
FOREGROUND
  6
CONTINUOUS
 10
1.817591
 20
1.090388
  0
VERTEX
  8
FOREGROUND
  6
CONTINUOUS
 10
1.809191
 20
1.097369
  0
VERTEX
  8
FOREGROUND
  6
CONTINUOUS
 10
1.800661
 20
1.104196
  0
VERTEX
  8
FOREGROUND
  6
CONTINUOUS
 10
1.792003
 20
1.110867
  0
VERTEX
  8
FOREGROUND
  6
CONTINUOUS
 10
1.783219
 20
1.117380
  0
VERTEX
  8
FOREGROUND
  6
CONTINUOUS
 10
1.774311
 20
1.123734
  0
VERTEX
  8
FOREGROUND
  6
CONTINUOUS
 10
1.765282
 20
1.129926
  0
VERTEX
  8
FOREGROUND
  6
CONTINUOUS
 10
1.756132
 20
1.135954
  0
VERTEX
  8
FOREGROUND
  6
CONTINUOUS
 10
1.746866
 20
1.141815
  0
VERTEX
  8
FOREGROUND
  6
CONTINUOUS
 10
1.737484
 20
1.147509
  0
VERTEX
  8
FOREGROUND
  6
CONTINUOUS
 10
1.727989
 20
1.153032
  0
VERTEX
  8
FOREGROUND
  6
CONTINUOUS
 10
1.718382
 20
1.158382
  0
VERTEX
  8
FOREGROUND
  6
CONTINUOUS
 10
1.708667
 20
1.163558
  0
VERTEX
  8
FOREGROUND
  6
CONTINUOUS
 10
1.698845
 20
1.168557
  0
VERTEX
  8
FOREGROUND
  6
CONTINUOUS
 10
1.688918
 20
1.173377
  0
VERTEX
  8
FOREGROUND
  6
CONTINUOUS
 10
1.678889
 20
1.178016
  0
VERTEX
  8
FOREGROUND
  6
CONTINUOUS
 10
1.668759
 20
1.182472
  0
VERTEX
  8
FOREGROUND
  6
CONTINUOUS
 10
1.658530
 20
1.186742
  0
VERTEX
  8
FOREGROUND
  6
CONTINUOUS
 10
1.648205
 20
1.190826
  0
VERTEX
  8
FOREGROUND
  6
CONTINUOUS
 10
1.637786
 20
1.194720
  0
VERTEX
  8
FOREGROUND
  6
CONTINUOUS
 10
1.627275
 20
1.198422
  0
VERTEX
  8
FOREGROUND
  6
CONTINUOUS
 10
1.616675
 20
1.201931
  0
VERTEX
  8
FOREGROUND
  6
CONTINUOUS
 10
1.605986
 20
1.205244
  0
VERTEX
  8
FOREGROUND
  6
CONTINUOUS
 10
1.595212
 20
1.208359
  0
VERTEX
  8
FOREGROUND
  6
CONTINUOUS
 10
1.584354
 20
1.211274
  0
VERTEX
  8
FOREGROUND
  6
CONTINUOUS
 10
1.573414
 20
1.213986
  0
VERTEX
  8
FOREGROUND
  6
CONTINUOUS
 10
1.562395
 20
1.216495
  0
VERTEX
  8
FOREGROUND
  6
CONTINUOUS
 10
1.551299
 20
1.218797
  0
VERTEX
  8
FOREGROUND
  6
CONTINUOUS
 10
1.540128
 20
1.220890
  0
VERTEX
  8
FOREGROUND
  6
CONTINUOUS
 10
1.528884
 20
1.222773
  0
VERTEX
  8
FOREGROUND
  6
CONTINUOUS
 10
1.517569
 20
1.224443
  0
VERTEX
  8
FOREGROUND
  6
CONTINUOUS
 10
1.506185
 20
1.225899
  0
VERTEX
  8
FOREGROUND
  6
CONTINUOUS
 10
1.494735
 20
1.227137
  0
VERTEX
  8
FOREGROUND
  6
CONTINUOUS
 10
1.483220
 20
1.228156
  0
VERTEX
  8
FOREGROUND
  6
CONTINUOUS
 10
1.471643
 20
1.228954
  0
VERTEX
  8
FOREGROUND
  6
CONTINUOUS
 10
1.460005
 20
1.229529
  0
VERTEX
  8
FOREGROUND
  6
CONTINUOUS
 10
1.448309
 20
1.229878
  0
VERTEX
  8
FOREGROUND
  6
CONTINUOUS
 10
1.436557
 20
1.230000
  0
VERTEX
  8
FOREGROUND
  6
CONTINUOUS
 10
0.639891
 20
1.230000
  0
VERTEX
  8
FOREGROUND
  6
CONTINUOUS
 10
0.628142
 20
1.229874
  0
VERTEX
  8
FOREGROUND
  6
CONTINUOUS
 10
0.616449
 20
1.229521
  0
VERTEX
  8
FOREGROUND
  6
CONTINUOUS
 10
0.604815
 20
1.228942
  0
VERTEX
  8
FOREGROUND
  6
CONTINUOUS
 10
0.593241
 20
1.228140
  0
VERTEX
  8
FOREGROUND
  6
CONTINUOUS
 10
0.581729
 20
1.227117
  0
VERTEX
  8
FOREGROUND
  6
CONTINUOUS
 10
0.570282
 20
1.225875
  0
VERTEX
  8
FOREGROUND
  6
CONTINUOUS
 10
0.558901
 20
1.224416
  0
VERTEX
  8
FOREGROUND
  6
CONTINUOUS
 10
0.547590
 20
1.222743
  0
VERTEX
  8
FOREGROUND
  6
CONTINUOUS
 10
0.536349
 20
1.220856
  0
VERTEX
  8
FOREGROUND
  6
CONTINUOUS
 10
0.525181
 20
1.218760
  0
VERTEX
  8
FOREGROUND
  6
CONTINUOUS
 10
0.514089
 20
1.216455
  0
VERTEX
  8
FOREGROUND
  6
CONTINUOUS
 10
0.503073
 20
1.213943
  0
VERTEX
  8
FOREGROUND
  6
CONTINUOUS
 10
0.492137
 20
1.211228
  0
VERTEX
  8
FOREGROUND
  6
CONTINUOUS
 10
0.481283
 20
1.208310
  0
VERTEX
  8
FOREGROUND
  6
CONTINUOUS
 10
0.470512
 20
1.205193
  0
VERTEX
  8
FOREGROUND
  6
CONTINUOUS
 10
0.459827
 20
1.201878
  0
VERTEX
  8
FOREGROUND
  6
CONTINUOUS
 10
0.449229
 20
1.198367
  0
VERTEX
  8
FOREGROUND
  6
CONTINUOUS
 10
0.438722
 20
1.194662
  0
VERTEX
  8
FOREGROUND
  6
CONTINUOUS
 10
0.428307
 20
1.190766
  0
VERTEX
  8
FOREGROUND
  6
CONTINUOUS
 10
0.417986
 20
1.186681
  0
VERTEX
  8
FOREGROUND
  6
CONTINUOUS
 10
0.407761
 20
1.182408
  0
VERTEX
  8
FOREGROUND
  6
CONTINUOUS
 10
0.397634
 20
1.177951
  0
VERTEX
  8
FOREGROUND
  6
CONTINUOUS
 10
0.387608
 20
1.173310
  0
VERTEX
  8
FOREGROUND
  6
CONTINUOUS
 10
0.377685
 20
1.168488
  0
VERTEX
  8
FOREGROUND
  6
CONTINUOUS
 10
0.367866
 20
1.163488
  0
VERTEX
  8
FOREGROUND
  6
CONTINUOUS
 10
0.358154
 20
1.158311
  0
VERTEX
  8
FOREGROUND
  6
CONTINUOUS
 10
0.348552
 20
1.152960
  0
VERTEX
  8
FOREGROUND
  6
CONTINUOUS
 10
0.339060
 20
1.147436
  0
VERTEX
  8
FOREGROUND
  6
CONTINUOUS
 10
0.329682
 20
1.141741
  0
VERTEX
  8
FOREGROUND
  6
CONTINUOUS
 10
0.320418
 20
1.135879
  0
VERTEX
  8
FOREGROUND
  6
CONTINUOUS
 10
0.311273
 20
1.129851
  0
VERTEX
  8
FOREGROUND
  6
CONTINUOUS
 10
0.302247
 20
1.123658
  0
VERTEX
  8
FOREGROUND
  6
CONTINUOUS
 10
0.293342
 20
1.117304
  0
VERTEX
  8
FOREGROUND
  6
CONTINUOUS
 10
0.284561
 20
1.110790
  0
VERTEX
  8
FOREGROUND
  6
CONTINUOUS
 10
0.275907
 20
1.104118
  0
VERTEX
  8
FOREGROUND
  6
CONTINUOUS
 10
0.267380
 20
1.097291
  0
VERTEX
  8
FOREGROUND
  6
CONTINUOUS
 10
0.258983
 20
1.090311
  0
VERTEX
  8
FOREGROUND
  6
CONTINUOUS
 10
0.250719
 20
1.083179
  0
VERTEX
  8
FOREGROUND
  6
CONTINUOUS
 10
0.242589
 20
1.075898
  0
VERTEX
  8
FOREGROUND
  6
CONTINUOUS
 10
0.234595
 20
1.068470
  0
VERTEX
  8
FOREGROUND
  6
CONTINUOUS
 10
0.226741
 20
1.060897
  0
VERTEX
  8
FOREGROUND
  6
CONTINUOUS
 10
0.219026
 20
1.053181
  0
VERTEX
  8
FOREGROUND
  6
CONTINUOUS
 10
0.211455
 20
1.045325
  0
VERTEX
  8
FOREGROUND
  6
CONTINUOUS
 10
0.204028
 20
1.037330
  0
VERTEX
  8
FOREGROUND
  6
CONTINUOUS
 10
0.196749
 20
1.029199
  0
VERTEX
  8
FOREGROUND
  6
CONTINUOUS
 10
0.189619
 20
1.020933
  0
VERTEX
  8
FOREGROUND
  6
CONTINUOUS
 10
0.182640
 20
1.012535
  0
VERTEX
  8
FOREGROUND
  6
CONTINUOUS
 10
0.175814
 20
1.004007
  0
VERTEX
  8
FOREGROUND
  6
CONTINUOUS
 10
0.169144
 20
0.995351
  0
VERTEX
  8
FOREGROUND
  6
CONTINUOUS
 10
0.162632
 20
0.986569
  0
VERTEX
  8
FOREGROUND
  6
CONTINUOUS
 10
0.156279
 20
0.977664
  0
VERTEX
  8
FOREGROUND
  6
CONTINUOUS
 10
0.150089
 20
0.968636
  0
VERTEX
  8
FOREGROUND
  6
CONTINUOUS
 10
0.144062
 20
0.959490
  0
VERTEX
  8
FOREGROUND
  6
CONTINUOUS
 10
0.138201
 20
0.950225
  0
VERTEX
  8
FOREGROUND
  6
CONTINUOUS
 10
0.132509
 20
0.940846
  0
VERTEX
  8
FOREGROUND
  6
CONTINUOUS
 10
0.126986
 20
0.931353
  0
VERTEX
  8
FOREGROUND
  6
CONTINUOUS
 10
0.121637
 20
0.921750
  0
VERTEX
  8
FOREGROUND
  6
CONTINUOUS
 10
0.116461
 20
0.912037
  0
VERTEX
  8
FOREGROUND
  6
CONTINUOUS
 10
0.111463
 20
0.902217
  0
VERTEX
  8
FOREGROUND
  6
CONTINUOUS
 10
0.106643
 20
0.892293
  0
VERTEX
  8
FOREGROUND
  6
CONTINUOUS
 10
0.102004
 20
0.882266
  0
VERTEX
  8
FOREGROUND
  6
CONTINUOUS
 10
0.097549
 20
0.872139
  0
VERTEX
  8
FOREGROUND
  6
CONTINUOUS
 10
0.093278
 20
0.861913
  0
VERTEX
  8
FOREGROUND
  6
CONTINUOUS
 10
0.089195
 20
0.851591
  0
VERTEX
  8
FOREGROUND
  6
CONTINUOUS
 10
0.085300
 20
0.841175
  0
VERTEX
  8
FOREGROUND
  6
CONTINUOUS
 10
0.081598
 20
0.830667
  0
VERTEX
  8
FOREGROUND
  6
CONTINUOUS
 10
0.078089
 20
0.820069
  0
VERTEX
  8
FOREGROUND
  6
CONTINUOUS
 10
0.074776
 20
0.809383
  0
VERTEX
  8
FOREGROUND
  6
CONTINUOUS
 10
0.071660
 20
0.798612
  0
VERTEX
  8
FOREGROUND
  6
CONTINUOUS
 10
0.068745
 20
0.787757
  0
VERTEX
  8
FOREGROUND
  6
CONTINUOUS
 10
0.066031
 20
0.776820
  0
VERTEX
  8
FOREGROUND
  6
CONTINUOUS
 10
0.063522
 20
0.765804
  0
VERTEX
  8
FOREGROUND
  6
CONTINUOUS
 10
0.061219
 20
0.754711
  0
VERTEX
  8
FOREGROUND
  6
CONTINUOUS
 10
0.059124
 20
0.743543
  0
VERTEX
  8
FOREGROUND
  6
CONTINUOUS
 10
0.057240
 20
0.732302
  0
VERTEX
  8
FOREGROUND
  6
CONTINUOUS
 10
0.055569
 20
0.720990
  0
VERTEX
  8
FOREGROUND
  6
CONTINUOUS
 10
0.054112
 20
0.709609
  0
VERTEX
  8
FOREGROUND
  6
CONTINUOUS
 10
0.052872
 20
0.698162
  0
VERTEX
  8
FOREGROUND
  6
CONTINUOUS
 10
0.051851
 20
0.686650
  0
VERTEX
  8
FOREGROUND
  6
CONTINUOUS
 10
0.051052
 20
0.675076
  0
VERTEX
  8
FOREGROUND
  6
CONTINUOUS
 10
0.050475
 20
0.663441
  0
VERTEX
  8
FOREGROUND
  6
CONTINUOUS
 10
0.050124
 20
0.651749
  0
VERTEX
  8
FOREGROUND
  6
CONTINUOUS
 10
0.050000
 20
0.640000
  0
VERTEX
  8
FOREGROUND
  6
CONTINUOUS
 10
0.050000
 20
0.640000
  0
VERTEX
  8
FOREGROUND
  6
CONTINUOUS
 10
0.050124
 20
0.628250
  0
VERTEX
  8
FOREGROUND
  6
CONTINUOUS
 10
0.050475
 20
0.616555
  0
VERTEX
  8
FOREGROUND
  6
CONTINUOUS
 10
0.051052
 20
0.604919
  0
VERTEX
  8
FOREGROUND
  6
CONTINUOUS
 10
0.051852
 20
0.593344
  0
VERTEX
  8
FOREGROUND
  6
CONTINUOUS
 10
0.052873
 20
0.581830
  0
VERTEX
  8
FOREGROUND
  6
CONTINUOUS
 10
0.054113
 20
0.570382
  0
VERTEX
  8
FOREGROUND
  6
CONTINUOUS
 10
0.055570
 20
0.559000
  0
VERTEX
  8
FOREGROUND
  6
CONTINUOUS
 10
0.057242
 20
0.547686
  0
VERTEX
  8
FOREGROUND
  6
CONTINUOUS
 10
0.059127
 20
0.536444
  0
VERTEX
  8
FOREGROUND
  6
CONTINUOUS
 10
0.061222
 20
0.525274
  0
VERTEX
  8
FOREGROUND
  6
CONTINUOUS
 10
0.063525
 20
0.514180
  0
VERTEX
  8
FOREGROUND
  6
CONTINUOUS
 10
0.066035
 20
0.503163
  0
VERTEX
  8
FOREGROUND
  6
CONTINUOUS
 10
0.068749
 20
0.492225
  0
VERTEX
  8
FOREGROUND
  6
CONTINUOUS
 10
0.071665
 20
0.481369
  0
VERTEX
  8
FOREGROUND
  6
CONTINUOUS
 10
0.074782
 20
0.470596
  0
VERTEX
  8
FOREGROUND
  6
CONTINUOUS
 10
0.078096
 20
0.459909
  0
VERTEX
  8
FOREGROUND
  6
CONTINUOUS
 10
0.081606
 20
0.449310
  0
VERTEX
  8
FOREGROUND
  6
CONTINUOUS
 10
0.085309
 20
0.438801
  0
VERTEX
  8
FOREGROUND
  6
CONTINUOUS
 10
0.089204
 20
0.428384
  0
VERTEX
  8
FOREGROUND
  6
CONTINUOUS
 10
0.093288
 20
0.418061
  0
VERTEX
  8
FOREGROUND
  6
CONTINUOUS
 10
0.097560
 20
0.407834
  0
VERTEX
  8
FOREGROUND
  6
CONTINUOUS
 10
0.102017
 20
0.397706
  0
VERTEX
  8
FOREGROUND
  6
CONTINUOUS
 10
0.106657
 20
0.387678
  0
VERTEX
  8
FOREGROUND
  6
CONTINUOUS
 10
0.111477
 20
0.377753
  0
VERTEX
  8
FOREGROUND
  6
CONTINUOUS
 10
0.116477
 20
0.367933
  0
VERTEX
  8
FOREGROUND
  6
CONTINUOUS
 10
0.121653
 20
0.358219
  0
VERTEX
  8
FOREGROUND
  6
CONTINUOUS
 10
0.127004
 20
0.348615
  0
VERTEX
  8
FOREGROUND
  6
CONTINUOUS
 10
0.132528
 20
0.339121
  0
VERTEX
  8
FOREGROUND
  6
CONTINUOUS
 10
0.138222
 20
0.329741
  0
VERTEX
  8
FOREGROUND
  6
CONTINUOUS
 10
0.144084
 20
0.320476
  0
VERTEX
  8
FOREGROUND
  6
CONTINUOUS
 10
0.150112
 20
0.311329
  0
VERTEX
  8
FOREGROUND
  6
CONTINUOUS
 10
0.156304
 20
0.302301
  0
VERTEX
  8
FOREGROUND
  6
CONTINUOUS
 10
0.162658
 20
0.293395
  0
VERTEX
  8
FOREGROUND
  6
CONTINUOUS
 10
0.169172
 20
0.284613
  0
VERTEX
  8
FOREGROUND
  6
CONTINUOUS
 10
0.175843
 20
0.275956
  0
VERTEX
  8
FOREGROUND
  6
CONTINUOUS
 10
0.182670
 20
0.267428
  0
VERTEX
  8
FOREGROUND
  6
CONTINUOUS
 10
0.189651
 20
0.259029
  0
VERTEX
  8
FOREGROUND
  6
CONTINUOUS
 10
0.196782
 20
0.250763
  0
VERTEX
  8
FOREGROUND
  6
CONTINUOUS
 10
0.204063
 20
0.242632
  0
VERTEX
  8
FOREGROUND
  6
CONTINUOUS
 10
0.211491
 20
0.234637
  0
VERTEX
  8
FOREGROUND
  6
CONTINUOUS
 10
0.219064
 20
0.226780
  0
VERTEX
  8
FOREGROUND
  6
CONTINUOUS
 10
0.226780
 20
0.219064
  0
VERTEX
  8
FOREGROUND
  6
CONTINUOUS
 10
0.234637
 20
0.211491
  0
VERTEX
  8
FOREGROUND
  6
CONTINUOUS
 10
0.242632
 20
0.204063
  0
VERTEX
  8
FOREGROUND
  6
CONTINUOUS
 10
0.250763
 20
0.196782
  0
VERTEX
  8
FOREGROUND
  6
CONTINUOUS
 10
0.259029
 20
0.189651
  0
VERTEX
  8
FOREGROUND
  6
CONTINUOUS
 10
0.267428
 20
0.182670
  0
VERTEX
  8
FOREGROUND
  6
CONTINUOUS
 10
0.275956
 20
0.175843
  0
VERTEX
  8
FOREGROUND
  6
CONTINUOUS
 10
0.284613
 20
0.169172
  0
VERTEX
  8
FOREGROUND
  6
CONTINUOUS
 10
0.293395
 20
0.162658
  0
VERTEX
  8
FOREGROUND
  6
CONTINUOUS
 10
0.302301
 20
0.156304
  0
VERTEX
  8
FOREGROUND
  6
CONTINUOUS
 10
0.311329
 20
0.150112
  0
VERTEX
  8
FOREGROUND
  6
CONTINUOUS
 10
0.320476
 20
0.144084
  0
VERTEX
  8
FOREGROUND
  6
CONTINUOUS
 10
0.329741
 20
0.138222
  0
VERTEX
  8
FOREGROUND
  6
CONTINUOUS
 10
0.339121
 20
0.132528
  0
VERTEX
  8
FOREGROUND
  6
CONTINUOUS
 10
0.348615
 20
0.127004
  0
VERTEX
  8
FOREGROUND
  6
CONTINUOUS
 10
0.358219
 20
0.121653
  0
VERTEX
  8
FOREGROUND
  6
CONTINUOUS
 10
0.367933
 20
0.116477
  0
VERTEX
  8
FOREGROUND
  6
CONTINUOUS
 10
0.377753
 20
0.111477
  0
VERTEX
  8
FOREGROUND
  6
CONTINUOUS
 10
0.387678
 20
0.106657
  0
VERTEX
  8
FOREGROUND
  6
CONTINUOUS
 10
0.397706
 20
0.102017
  0
VERTEX
  8
FOREGROUND
  6
CONTINUOUS
 10
0.407834
 20
0.097560
  0
VERTEX
  8
FOREGROUND
  6
CONTINUOUS
 10
0.418061
 20
0.093288
  0
VERTEX
  8
FOREGROUND
  6
CONTINUOUS
 10
0.428384
 20
0.089204
  0
VERTEX
  8
FOREGROUND
  6
CONTINUOUS
 10
0.438801
 20
0.085309
  0
VERTEX
  8
FOREGROUND
  6
CONTINUOUS
 10
0.449310
 20
0.081606
  0
VERTEX
  8
FOREGROUND
  6
CONTINUOUS
 10
0.459909
 20
0.078096
  0
VERTEX
  8
FOREGROUND
  6
CONTINUOUS
 10
0.470596
 20
0.074782
  0
VERTEX
  8
FOREGROUND
  6
CONTINUOUS
 10
0.481369
 20
0.071665
  0
VERTEX
  8
FOREGROUND
  6
CONTINUOUS
 10
0.492225
 20
0.068749
  0
VERTEX
  8
FOREGROUND
  6
CONTINUOUS
 10
0.503163
 20
0.066035
  0
VERTEX
  8
FOREGROUND
  6
CONTINUOUS
 10
0.514180
 20
0.063525
  0
VERTEX
  8
FOREGROUND
  6
CONTINUOUS
 10
0.525274
 20
0.061222
  0
VERTEX
  8
FOREGROUND
  6
CONTINUOUS
 10
0.536444
 20
0.059127
  0
VERTEX
  8
FOREGROUND
  6
CONTINUOUS
 10
0.547686
 20
0.057242
  0
VERTEX
  8
FOREGROUND
  6
CONTINUOUS
 10
0.559000
 20
0.055570
  0
VERTEX
  8
FOREGROUND
  6
CONTINUOUS
 10
0.570382
 20
0.054113
  0
VERTEX
  8
FOREGROUND
  6
CONTINUOUS
 10
0.581830
 20
0.052873
  0
VERTEX
  8
FOREGROUND
  6
CONTINUOUS
 10
0.593344
 20
0.051852
  0
VERTEX
  8
FOREGROUND
  6
CONTINUOUS
 10
0.604919
 20
0.051052
  0
VERTEX
  8
FOREGROUND
  6
CONTINUOUS
 10
0.616555
 20
0.050475
  0
VERTEX
  8
FOREGROUND
  6
CONTINUOUS
 10
0.628250
 20
0.050124
  0
VERTEX
  8
FOREGROUND
  6
CONTINUOUS
 10
0.640000
 20
0.050000
  0
SEQEND
  8
0
  0
ENDSEC
  0
EOF
