  0
SECTION
  2
HEADER
  9
$ACADVER
  1
AC1006
  9
$EXTMIN
 10
0.000000
 20
0.000000
  9
$EXTMAX
 10
2.076667
 20
1.476667
  9
$LTSCALE
 40
0.166667
  9
$PDMODE
 70
    35
  9
$PDSIZE
 40
0.133333
  0
ENDSEC
  0
SECTION
  2
TABLES
  0
TABLE
  2
LTYPE
 70
     9
  0
LTYPE
  2
CONTINUOUS
 70
    64
  3
Solid line
 72
    65
 73
     0
 40
0.000000
  0
LTYPE
  2
DASHED
 70
    64
  3
__ __ __ __ __ __ __ __ __ __ __ __ __ __ __
 72
    65
 73
     2
 40
0.001250
 49
0.000833
 49
-0.000417
  0
LTYPE
  2
HIDDEN
 70
    64
  3
 _ _ _ _ _ _ _ _ _ _ _ _ _ _ _ _ _ _ _ _ _ _
 72
    65
 73
     2
 40
0.000625
 49
0.000417
 49
-0.000208
  0
LTYPE
  2
CENTER
 70
    64
  3
____ _ ____ _ ____ _ ____ _ ____ _ ____ _ ____
 72
    65
 73
     4
 40
0.003333
 49
0.002083
 49
-0.000417
 49
0.000417
 49
-0.000417
  0
LTYPE
  2
PHANTOM
 70
    64
  3
_____ _ _ _____ _ _ _____ _ _ _____ _ _ ____
 72
    65
 73
     6
 40
0.004167
 49
0.002083
 49
-0.000417
 49
0.000417
 49
-0.000417
 49
0.000417
 49
-0.000417
  0
LTYPE
  2
DOT
 70
    64
  3
...............................................
 72
    65
 73
     2
 40
0.000417
 49
0.000000
 49
-0.000417
  0
LTYPE
  2
DASHDOT
 70
    64
  3
__ . __ . __ . __ . __ . __ . __ . __ . __ . __
 72
    65
 73
     4
 40
0.001667
 49
0.000833
 49
-0.000417
 49
0.000000
 49
-0.000417
  0
LTYPE
  2
BORDER
 70
    64
  3
__ __ . __ __ . __ __ . __ __ . __ __ . __ __
 72
    65
 73
     6
 40
0.002917
 49
0.000833
 49
-0.000417
 49
0.000833
 49
-0.000417
 49
0.000000
 49
-0.000417
  0
LTYPE
  2
DIVIDE
 70
    64
  3
__ . . __ . . __ . . __ . . __ . . __ . . __
 72
    65
 73
     6
 40
0.002083
 49
0.000833
 49
-0.000417
 49
0.000000
 49
-0.000417
 49
0.000000
 49
-0.000417
  0
LTYPE
  2
DOTDOT
 70
    64
  3
 . .  . .  . .  . .  . .  . . 
 72
    65
 73
     5
 40
0.000917
 49
-0.000417
 49
0.000000
 49
-0.000417
 49
0.000000
 49
-0.000417
  0
ENDTAB
  0
TABLE
  2
STYLE
 70
     2
  0
STYLE
 70
     0
  2
SN0
 40
0.000000
 41
0.001667
 50
0.000000
 71
     0
 42
0.000000
  3
ROMAND
  0
STYLE
 70
    68
  2
SV0
 40
0.000000
 41
0.001667
 50
0.000000
 71
     0
 42
0.000000
  3
ROMAND
  0
ENDTAB
  0
TABLE
  2
LAYER
 70
     2
  0
LAYER
  2
FOREGROUND
 70
    64
 62
     7
  6
CONTINUOUS
  0
LAYER
  2
BACKGROUND
 70
    65
 62
    -7
  6
CONTINUOUS
  0
ENDTAB
  0
ENDSEC
  0
SECTION
  2
ENTITIES
  0
POLYLINE
  8
FOREGROUND
  6
CONTINUOUS
 66
     1
 40
0.010000
 41
0.010000
 70
     1
  0
VERTEX
  8
FOREGROUND
  6
CONTINUOUS
 10
1.338333
 20
0.050000
  0
VERTEX
  8
FOREGROUND
  6
CONTINUOUS
 10
1.350704
 20
0.050119
  0
VERTEX
  8
FOREGROUND
  6
CONTINUOUS
 10
1.363021
 20
0.050453
  0
VERTEX
  8
FOREGROUND
  6
CONTINUOUS
 10
1.375284
 20
0.051003
  0
VERTEX
  8
FOREGROUND
  6
CONTINUOUS
 10
1.387490
 20
0.051764
  0
VERTEX
  8
FOREGROUND
  6
CONTINUOUS
 10
1.399637
 20
0.052737
  0
VERTEX
  8
FOREGROUND
  6
CONTINUOUS
 10
1.411724
 20
0.053919
  0
VERTEX
  8
FOREGROUND
  6
CONTINUOUS
 10
1.423749
 20
0.055307
  0
VERTEX
  8
FOREGROUND
  6
CONTINUOUS
 10
1.435710
 20
0.056901
  0
VERTEX
  8
FOREGROUND
  6
CONTINUOUS
 10
1.447605
 20
0.058699
  0
VERTEX
  8
FOREGROUND
  6
CONTINUOUS
 10
1.459433
 20
0.060698
  0
VERTEX
  8
FOREGROUND
  6
CONTINUOUS
 10
1.471191
 20
0.062897
  0
VERTEX
  8
FOREGROUND
  6
CONTINUOUS
 10
1.482879
 20
0.065295
  0
VERTEX
  8
FOREGROUND
  6
CONTINUOUS
 10
1.494493
 20
0.067888
  0
VERTEX
  8
FOREGROUND
  6
CONTINUOUS
 10
1.506032
 20
0.070676
  0
VERTEX
  8
FOREGROUND
  6
CONTINUOUS
 10
1.517495
 20
0.073657
  0
VERTEX
  8
FOREGROUND
  6
CONTINUOUS
 10
1.528879
 20
0.076829
  0
VERTEX
  8
FOREGROUND
  6
CONTINUOUS
 10
1.540183
 20
0.080189
  0
VERTEX
  8
FOREGROUND
  6
CONTINUOUS
 10
1.551405
 20
0.083737
  0
VERTEX
  8
FOREGROUND
  6
CONTINUOUS
 10
1.562544
 20
0.087470
  0
VERTEX
  8
FOREGROUND
  6
CONTINUOUS
 10
1.573596
 20
0.091387
  0
VERTEX
  8
FOREGROUND
  6
CONTINUOUS
 10
1.584561
 20
0.095485
  0
VERTEX
  8
FOREGROUND
  6
CONTINUOUS
 10
1.595437
 20
0.099764
  0
VERTEX
  8
FOREGROUND
  6
CONTINUOUS
 10
1.606221
 20
0.104220
  0
VERTEX
  8
FOREGROUND
  6
CONTINUOUS
 10
1.616913
 20
0.108853
  0
VERTEX
  8
FOREGROUND
  6
CONTINUOUS
 10
1.627510
 20
0.113661
  0
VERTEX
  8
FOREGROUND
  6
CONTINUOUS
 10
1.638010
 20
0.118641
  0
VERTEX
  8
FOREGROUND
  6
CONTINUOUS
 10
1.648412
 20
0.123792
  0
VERTEX
  8
FOREGROUND
  6
CONTINUOUS
 10
1.658713
 20
0.129112
  0
VERTEX
  8
FOREGROUND
  6
CONTINUOUS
 10
1.668913
 20
0.134600
  0
VERTEX
  8
FOREGROUND
  6
CONTINUOUS
 10
1.679009
 20
0.140253
  0
VERTEX
  8
FOREGROUND
  6
CONTINUOUS
 10
1.688999
 20
0.146069
  0
VERTEX
  8
FOREGROUND
  6
CONTINUOUS
 10
1.698882
 20
0.152048
  0
VERTEX
  8
FOREGROUND
  6
CONTINUOUS
 10
1.708656
 20
0.158186
  0
VERTEX
  8
FOREGROUND
  6
CONTINUOUS
 10
1.718318
 20
0.164483
  0
VERTEX
  8
FOREGROUND
  6
CONTINUOUS
 10
1.727868
 20
0.170936
  0
VERTEX
  8
FOREGROUND
  6
CONTINUOUS
 10
1.737303
 20
0.177543
  0
VERTEX
  8
FOREGROUND
  6
CONTINUOUS
 10
1.746621
 20
0.184303
  0
VERTEX
  8
FOREGROUND
  6
CONTINUOUS
 10
1.755821
 20
0.191215
  0
VERTEX
  8
FOREGROUND
  6
CONTINUOUS
 10
1.764901
 20
0.198275
  0
VERTEX
  8
FOREGROUND
  6
CONTINUOUS
 10
1.773859
 20
0.205483
  0
VERTEX
  8
FOREGROUND
  6
CONTINUOUS
 10
1.782693
 20
0.212836
  0
VERTEX
  8
FOREGROUND
  6
CONTINUOUS
 10
1.791402
 20
0.220333
  0
VERTEX
  8
FOREGROUND
  6
CONTINUOUS
 10
1.799983
 20
0.227972
  0
VERTEX
  8
FOREGROUND
  6
CONTINUOUS
 10
1.808436
 20
0.235751
  0
VERTEX
  8
FOREGROUND
  6
CONTINUOUS
 10
1.816757
 20
0.243668
  0
VERTEX
  8
FOREGROUND
  6
CONTINUOUS
 10
1.824945
 20
0.251722
  0
VERTEX
  8
FOREGROUND
  6
CONTINUOUS
 10
1.832999
 20
0.259910
  0
VERTEX
  8
FOREGROUND
  6
CONTINUOUS
 10
1.840916
 20
0.268231
  0
VERTEX
  8
FOREGROUND
  6
CONTINUOUS
 10
1.848695
 20
0.276683
  0
VERTEX
  8
FOREGROUND
  6
CONTINUOUS
 10
1.856334
 20
0.285265
  0
VERTEX
  8
FOREGROUND
  6
CONTINUOUS
 10
1.863831
 20
0.293973
  0
VERTEX
  8
FOREGROUND
  6
CONTINUOUS
 10
1.871184
 20
0.302807
  0
VERTEX
  8
FOREGROUND
  6
CONTINUOUS
 10
1.878392
 20
0.311766
  0
VERTEX
  8
FOREGROUND
  6
CONTINUOUS
 10
1.885452
 20
0.320845
  0
VERTEX
  8
FOREGROUND
  6
CONTINUOUS
 10
1.892363
 20
0.330046
  0
VERTEX
  8
FOREGROUND
  6
CONTINUOUS
 10
1.899124
 20
0.339364
  0
VERTEX
  8
FOREGROUND
  6
CONTINUOUS
 10
1.905731
 20
0.348799
  0
VERTEX
  8
FOREGROUND
  6
CONTINUOUS
 10
1.912184
 20
0.358349
  0
VERTEX
  8
FOREGROUND
  6
CONTINUOUS
 10
1.918481
 20
0.368011
  0
VERTEX
  8
FOREGROUND
  6
CONTINUOUS
 10
1.924619
 20
0.377785
  0
VERTEX
  8
FOREGROUND
  6
CONTINUOUS
 10
1.930597
 20
0.387667
  0
VERTEX
  8
FOREGROUND
  6
CONTINUOUS
 10
1.936414
 20
0.397658
  0
VERTEX
  8
FOREGROUND
  6
CONTINUOUS
 10
1.942067
 20
0.407754
  0
VERTEX
  8
FOREGROUND
  6
CONTINUOUS
 10
1.947554
 20
0.417953
  0
VERTEX
  8
FOREGROUND
  6
CONTINUOUS
 10
1.952875
 20
0.428255
  0
VERTEX
  8
FOREGROUND
  6
CONTINUOUS
 10
1.958026
 20
0.438657
  0
VERTEX
  8
FOREGROUND
  6
CONTINUOUS
 10
1.963006
 20
0.449157
  0
VERTEX
  8
FOREGROUND
  6
CONTINUOUS
 10
1.967813
 20
0.459754
  0
VERTEX
  8
FOREGROUND
  6
CONTINUOUS
 10
1.972446
 20
0.470446
  0
VERTEX
  8
FOREGROUND
  6
CONTINUOUS
 10
1.976903
 20
0.481230
  0
VERTEX
  8
FOREGROUND
  6
CONTINUOUS
 10
1.981181
 20
0.492106
  0
VERTEX
  8
FOREGROUND
  6
CONTINUOUS
 10
1.985280
 20
0.503071
  0
VERTEX
  8
FOREGROUND
  6
CONTINUOUS
 10
1.989197
 20
0.514123
  0
VERTEX
  8
FOREGROUND
  6
CONTINUOUS
 10
1.992930
 20
0.525261
  0
VERTEX
  8
FOREGROUND
  6
CONTINUOUS
 10
1.996478
 20
0.536483
  0
VERTEX
  8
FOREGROUND
  6
CONTINUOUS
 10
1.999838
 20
0.547787
  0
VERTEX
  8
FOREGROUND
  6
CONTINUOUS
 10
2.003010
 20
0.559172
  0
VERTEX
  8
FOREGROUND
  6
CONTINUOUS
 10
2.005990
 20
0.570634
  0
VERTEX
  8
FOREGROUND
  6
CONTINUOUS
 10
2.008778
 20
0.582174
  0
VERTEX
  8
FOREGROUND
  6
CONTINUOUS
 10
2.011372
 20
0.593788
  0
VERTEX
  8
FOREGROUND
  6
CONTINUOUS
 10
2.013769
 20
0.605475
  0
VERTEX
  8
FOREGROUND
  6
CONTINUOUS
 10
2.015968
 20
0.617234
  0
VERTEX
  8
FOREGROUND
  6
CONTINUOUS
 10
2.017968
 20
0.629061
  0
VERTEX
  8
FOREGROUND
  6
CONTINUOUS
 10
2.019765
 20
0.640957
  0
VERTEX
  8
FOREGROUND
  6
CONTINUOUS
 10
2.021359
 20
0.652918
  0
VERTEX
  8
FOREGROUND
  6
CONTINUOUS
 10
2.022748
 20
0.664943
  0
VERTEX
  8
FOREGROUND
  6
CONTINUOUS
 10
2.023930
 20
0.677030
  0
VERTEX
  8
FOREGROUND
  6
CONTINUOUS
 10
2.024902
 20
0.689177
  0
VERTEX
  8
FOREGROUND
  6
CONTINUOUS
 10
2.025664
 20
0.701383
  0
VERTEX
  8
FOREGROUND
  6
CONTINUOUS
 10
2.026213
 20
0.713645
  0
VERTEX
  8
FOREGROUND
  6
CONTINUOUS
 10
2.026548
 20
0.725963
  0
VERTEX
  8
FOREGROUND
  6
CONTINUOUS
 10
2.026667
 20
0.738333
  0
VERTEX
  8
FOREGROUND
  6
CONTINUOUS
 10
2.026667
 20
0.738333
  0
VERTEX
  8
FOREGROUND
  6
CONTINUOUS
 10
2.026548
 20
0.750705
  0
VERTEX
  8
FOREGROUND
  6
CONTINUOUS
 10
2.026213
 20
0.763024
  0
VERTEX
  8
FOREGROUND
  6
CONTINUOUS
 10
2.025664
 20
0.775289
  0
VERTEX
  8
FOREGROUND
  6
CONTINUOUS
 10
2.024902
 20
0.787496
  0
VERTEX
  8
FOREGROUND
  6
CONTINUOUS
 10
2.023929
 20
0.799645
  0
VERTEX
  8
FOREGROUND
  6
CONTINUOUS
 10
2.022747
 20
0.811733
  0
VERTEX
  8
FOREGROUND
  6
CONTINUOUS
 10
2.021358
 20
0.823760
  0
VERTEX
  8
FOREGROUND
  6
CONTINUOUS
 10
2.019764
 20
0.835722
  0
VERTEX
  8
FOREGROUND
  6
CONTINUOUS
 10
2.017966
 20
0.847619
  0
VERTEX
  8
FOREGROUND
  6
CONTINUOUS
 10
2.015966
 20
0.859448
  0
VERTEX
  8
FOREGROUND
  6
CONTINUOUS
 10
2.013766
 20
0.871208
  0
VERTEX
  8
FOREGROUND
  6
CONTINUOUS
 10
2.011368
 20
0.882897
  0
VERTEX
  8
FOREGROUND
  6
CONTINUOUS
 10
2.008774
 20
0.894512
  0
VERTEX
  8
FOREGROUND
  6
CONTINUOUS
 10
2.005985
 20
0.906053
  0
VERTEX
  8
FOREGROUND
  6
CONTINUOUS
 10
2.003004
 20
0.917517
  0
VERTEX
  8
FOREGROUND
  6
CONTINUOUS
 10
1.999832
 20
0.928902
  0
VERTEX
  8
FOREGROUND
  6
CONTINUOUS
 10
1.996470
 20
0.940208
  0
VERTEX
  8
FOREGROUND
  6
CONTINUOUS
 10
1.992922
 20
0.951431
  0
VERTEX
  8
FOREGROUND
  6
CONTINUOUS
 10
1.989188
 20
0.962570
  0
VERTEX
  8
FOREGROUND
  6
CONTINUOUS
 10
1.985270
 20
0.973624
  0
VERTEX
  8
FOREGROUND
  6
CONTINUOUS
 10
1.981170
 20
0.984590
  0
VERTEX
  8
FOREGROUND
  6
CONTINUOUS
 10
1.976891
 20
0.995466
  0
VERTEX
  8
FOREGROUND
  6
CONTINUOUS
 10
1.972433
 20
1.006252
  0
VERTEX
  8
FOREGROUND
  6
CONTINUOUS
 10
1.967799
 20
1.016945
  0
VERTEX
  8
FOREGROUND
  6
CONTINUOUS
 10
1.962991
 20
1.027542
  0
VERTEX
  8
FOREGROUND
  6
CONTINUOUS
 10
1.958009
 20
1.038044
  0
VERTEX
  8
FOREGROUND
  6
CONTINUOUS
 10
1.952857
 20
1.048446
  0
VERTEX
  8
FOREGROUND
  6
CONTINUOUS
 10
1.947536
 20
1.058749
  0
VERTEX
  8
FOREGROUND
  6
CONTINUOUS
 10
1.942047
 20
1.068950
  0
VERTEX
  8
FOREGROUND
  6
CONTINUOUS
 10
1.936393
 20
1.079046
  0
VERTEX
  8
FOREGROUND
  6
CONTINUOUS
 10
1.930575
 20
1.089037
  0
VERTEX
  8
FOREGROUND
  6
CONTINUOUS
 10
1.924595
 20
1.098921
  0
VERTEX
  8
FOREGROUND
  6
CONTINUOUS
 10
1.918456
 20
1.108695
  0
VERTEX
  8
FOREGROUND
  6
CONTINUOUS
 10
1.912158
 20
1.118358
  0
VERTEX
  8
FOREGROUND
  6
CONTINUOUS
 10
1.905703
 20
1.127909
  0
VERTEX
  8
FOREGROUND
  6
CONTINUOUS
 10
1.899094
 20
1.137344
  0
VERTEX
  8
FOREGROUND
  6
CONTINUOUS
 10
1.892332
 20
1.146663
  0
VERTEX
  8
FOREGROUND
  6
CONTINUOUS
 10
1.885420
 20
1.155864
  0
VERTEX
  8
FOREGROUND
  6
CONTINUOUS
 10
1.878358
 20
1.164944
  0
VERTEX
  8
FOREGROUND
  6
CONTINUOUS
 10
1.871148
 20
1.173903
  0
VERTEX
  8
FOREGROUND
  6
CONTINUOUS
 10
1.863794
 20
1.182737
  0
VERTEX
  8
FOREGROUND
  6
CONTINUOUS
 10
1.856295
 20
1.191446
  0
VERTEX
  8
FOREGROUND
  6
CONTINUOUS
 10
1.848655
 20
1.200028
  0
VERTEX
  8
FOREGROUND
  6
CONTINUOUS
 10
1.840874
 20
1.208480
  0
VERTEX
  8
FOREGROUND
  6
CONTINUOUS
 10
1.832955
 20
1.216802
  0
VERTEX
  8
FOREGROUND
  6
CONTINUOUS
 10
1.824900
 20
1.224990
  0
VERTEX
  8
FOREGROUND
  6
CONTINUOUS
 10
1.816710
 20
1.233044
  0
VERTEX
  8
FOREGROUND
  6
CONTINUOUS
 10
1.808387
 20
1.240961
  0
VERTEX
  8
FOREGROUND
  6
CONTINUOUS
 10
1.799933
 20
1.248740
  0
VERTEX
  8
FOREGROUND
  6
CONTINUOUS
 10
1.791350
 20
1.256379
  0
VERTEX
  8
FOREGROUND
  6
CONTINUOUS
 10
1.782640
 20
1.263876
  0
VERTEX
  8
FOREGROUND
  6
CONTINUOUS
 10
1.773804
 20
1.271229
  0
VERTEX
  8
FOREGROUND
  6
CONTINUOUS
 10
1.764844
 20
1.278437
  0
VERTEX
  8
FOREGROUND
  6
CONTINUOUS
 10
1.755762
 20
1.285497
  0
VERTEX
  8
FOREGROUND
  6
CONTINUOUS
 10
1.746560
 20
1.292408
  0
VERTEX
  8
FOREGROUND
  6
CONTINUOUS
 10
1.737240
 20
1.299168
  0
VERTEX
  8
FOREGROUND
  6
CONTINUOUS
 10
1.727803
 20
1.305775
  0
VERTEX
  8
FOREGROUND
  6
CONTINUOUS
 10
1.718252
 20
1.312228
  0
VERTEX
  8
FOREGROUND
  6
CONTINUOUS
 10
1.708588
 20
1.318524
  0
VERTEX
  8
FOREGROUND
  6
CONTINUOUS
 10
1.698812
 20
1.324662
  0
VERTEX
  8
FOREGROUND
  6
CONTINUOUS
 10
1.688928
 20
1.330640
  0
VERTEX
  8
FOREGROUND
  6
CONTINUOUS
 10
1.678935
 20
1.336456
  0
VERTEX
  8
FOREGROUND
  6
CONTINUOUS
 10
1.668838
 20
1.342108
  0
VERTEX
  8
FOREGROUND
  6
CONTINUOUS
 10
1.658636
 20
1.347595
  0
VERTEX
  8
FOREGROUND
  6
CONTINUOUS
 10
1.648333
 20
1.352915
  0
VERTEX
  8
FOREGROUND
  6
CONTINUOUS
 10
1.637929
 20
1.358065
  0
VERTEX
  8
FOREGROUND
  6
CONTINUOUS
 10
1.627427
 20
1.363044
  0
VERTEX
  8
FOREGROUND
  6
CONTINUOUS
 10
1.616828
 20
1.367851
  0
VERTEX
  8
FOREGROUND
  6
CONTINUOUS
 10
1.606135
 20
1.372483
  0
VERTEX
  8
FOREGROUND
  6
CONTINUOUS
 10
1.595348
 20
1.376939
  0
VERTEX
  8
FOREGROUND
  6
CONTINUOUS
 10
1.584471
 20
1.381216
  0
VERTEX
  8
FOREGROUND
  6
CONTINUOUS
 10
1.573504
 20
1.385314
  0
VERTEX
  8
FOREGROUND
  6
CONTINUOUS
 10
1.562449
 20
1.389229
  0
VERTEX
  8
FOREGROUND
  6
CONTINUOUS
 10
1.551309
 20
1.392961
  0
VERTEX
  8
FOREGROUND
  6
CONTINUOUS
 10
1.540086
 20
1.396508
  0
VERTEX
  8
FOREGROUND
  6
CONTINUOUS
 10
1.528780
 20
1.399867
  0
VERTEX
  8
FOREGROUND
  6
CONTINUOUS
 10
1.517394
 20
1.403037
  0
VERTEX
  8
FOREGROUND
  6
CONTINUOUS
 10
1.505929
 20
1.406016
  0
VERTEX
  8
FOREGROUND
  6
CONTINUOUS
 10
1.494388
 20
1.408803
  0
VERTEX
  8
FOREGROUND
  6
CONTINUOUS
 10
1.482772
 20
1.411395
  0
VERTEX
  8
FOREGROUND
  6
CONTINUOUS
 10
1.471083
 20
1.413791
  0
VERTEX
  8
FOREGROUND
  6
CONTINUOUS
 10
1.459323
 20
1.415988
  0
VERTEX
  8
FOREGROUND
  6
CONTINUOUS
 10
1.447493
 20
1.417986
  0
VERTEX
  8
FOREGROUND
  6
CONTINUOUS
 10
1.435596
 20
1.419782
  0
VERTEX
  8
FOREGROUND
  6
CONTINUOUS
 10
1.423633
 20
1.421374
  0
VERTEX
  8
FOREGROUND
  6
CONTINUOUS
 10
1.411607
 20
1.422761
  0
VERTEX
  8
FOREGROUND
  6
CONTINUOUS
 10
1.399518
 20
1.423940
  0
VERTEX
  8
FOREGROUND
  6
CONTINUOUS
 10
1.387369
 20
1.424911
  0
VERTEX
  8
FOREGROUND
  6
CONTINUOUS
 10
1.375161
 20
1.425671
  0
VERTEX
  8
FOREGROUND
  6
CONTINUOUS
 10
1.362897
 20
1.426218
  0
VERTEX
  8
FOREGROUND
  6
CONTINUOUS
 10
1.350578
 20
1.426550
  0
VERTEX
  8
FOREGROUND
  6
CONTINUOUS
 10
1.338206
 20
1.426667
  0
VERTEX
  8
FOREGROUND
  6
CONTINUOUS
 10
0.738206
 20
1.426667
  0
VERTEX
  8
FOREGROUND
  6
CONTINUOUS
 10
0.725837
 20
1.426546
  0
VERTEX
  8
FOREGROUND
  6
CONTINUOUS
 10
0.713521
 20
1.426209
  0
VERTEX
  8
FOREGROUND
  6
CONTINUOUS
 10
0.701260
 20
1.425657
  0
VERTEX
  8
FOREGROUND
  6
CONTINUOUS
 10
0.689056
 20
1.424894
  0
VERTEX
  8
FOREGROUND
  6
CONTINUOUS
 10
0.676910
 20
1.423919
  0
VERTEX
  8
FOREGROUND
  6
CONTINUOUS
 10
0.664825
 20
1.422735
  0
VERTEX
  8
FOREGROUND
  6
CONTINUOUS
 10
0.652802
 20
1.421345
  0
VERTEX
  8
FOREGROUND
  6
CONTINUOUS
 10
0.640843
 20
1.419749
  0
VERTEX
  8
FOREGROUND
  6
CONTINUOUS
 10
0.628949
 20
1.417950
  0
VERTEX
  8
FOREGROUND
  6
CONTINUOUS
 10
0.617123
 20
1.415949
  0
VERTEX
  8
FOREGROUND
  6
CONTINUOUS
 10
0.605367
 20
1.413748
  0
VERTEX
  8
FOREGROUND
  6
CONTINUOUS
 10
0.593681
 20
1.411349
  0
VERTEX
  8
FOREGROUND
  6
CONTINUOUS
 10
0.582069
 20
1.408754
  0
VERTEX
  8
FOREGROUND
  6
CONTINUOUS
 10
0.570531
 20
1.405964
  0
VERTEX
  8
FOREGROUND
  6
CONTINUOUS
 10
0.559070
 20
1.402982
  0
VERTEX
  8
FOREGROUND
  6
CONTINUOUS
 10
0.547688
 20
1.399809
  0
VERTEX
  8
FOREGROUND
  6
CONTINUOUS
 10
0.536386
 20
1.396447
  0
VERTEX
  8
FOREGROUND
  6
CONTINUOUS
 10
0.525165
 20
1.392898
  0
VERTEX
  8
FOREGROUND
  6
CONTINUOUS
 10
0.514029
 20
1.389164
  0
VERTEX
  8
FOREGROUND
  6
CONTINUOUS
 10
0.502979
 20
1.385246
  0
VERTEX
  8
FOREGROUND
  6
CONTINUOUS
 10
0.492015
 20
1.381147
  0
VERTEX
  8
FOREGROUND
  6
CONTINUOUS
 10
0.481142
 20
1.376867
  0
VERTEX
  8
FOREGROUND
  6
CONTINUOUS
 10
0.470359
 20
1.372410
  0
VERTEX
  8
FOREGROUND
  6
CONTINUOUS
 10
0.459669
 20
1.367776
  0
VERTEX
  8
FOREGROUND
  6
CONTINUOUS
 10
0.449074
 20
1.362967
  0
VERTEX
  8
FOREGROUND
  6
CONTINUOUS
 10
0.438576
 20
1.357986
  0
VERTEX
  8
FOREGROUND
  6
CONTINUOUS
 10
0.428176
 20
1.352835
  0
VERTEX
  8
FOREGROUND
  6
CONTINUOUS
 10
0.417876
 20
1.347514
  0
VERTEX
  8
FOREGROUND
  6
CONTINUOUS
 10
0.407678
 20
1.342026
  0
VERTEX
  8
FOREGROUND
  6
CONTINUOUS
 10
0.397584
 20
1.336372
  0
VERTEX
  8
FOREGROUND
  6
CONTINUOUS
 10
0.387596
 20
1.330555
  0
VERTEX
  8
FOREGROUND
  6
CONTINUOUS
 10
0.377715
 20
1.324576
  0
VERTEX
  8
FOREGROUND
  6
CONTINUOUS
 10
0.367943
 20
1.318437
  0
VERTEX
  8
FOREGROUND
  6
CONTINUOUS
 10
0.358282
 20
1.312140
  0
VERTEX
  8
FOREGROUND
  6
CONTINUOUS
 10
0.348735
 20
1.305687
  0
VERTEX
  8
FOREGROUND
  6
CONTINUOUS
 10
0.339301
 20
1.299079
  0
VERTEX
  8
FOREGROUND
  6
CONTINUOUS
 10
0.329985
 20
1.292318
  0
VERTEX
  8
FOREGROUND
  6
CONTINUOUS
 10
0.320787
 20
1.285407
  0
VERTEX
  8
FOREGROUND
  6
CONTINUOUS
 10
0.311708
 20
1.278346
  0
VERTEX
  8
FOREGROUND
  6
CONTINUOUS
 10
0.302752
 20
1.271138
  0
VERTEX
  8
FOREGROUND
  6
CONTINUOUS
 10
0.293920
 20
1.263785
  0
VERTEX
  8
FOREGROUND
  6
CONTINUOUS
 10
0.285213
 20
1.256288
  0
VERTEX
  8
FOREGROUND
  6
CONTINUOUS
 10
0.276633
 20
1.248649
  0
VERTEX
  8
FOREGROUND
  6
CONTINUOUS
 10
0.268183
 20
1.240870
  0
VERTEX
  8
FOREGROUND
  6
CONTINUOUS
 10
0.259863
 20
1.232953
  0
VERTEX
  8
FOREGROUND
  6
CONTINUOUS
 10
0.251677
 20
1.224900
  0
VERTEX
  8
FOREGROUND
  6
CONTINUOUS
 10
0.243625
 20
1.216712
  0
VERTEX
  8
FOREGROUND
  6
CONTINUOUS
 10
0.235709
 20
1.208391
  0
VERTEX
  8
FOREGROUND
  6
CONTINUOUS
 10
0.227932
 20
1.199939
  0
VERTEX
  8
FOREGROUND
  6
CONTINUOUS
 10
0.220295
 20
1.191358
  0
VERTEX
  8
FOREGROUND
  6
CONTINUOUS
 10
0.212799
 20
1.182650
  0
VERTEX
  8
FOREGROUND
  6
CONTINUOUS
 10
0.205447
 20
1.173816
  0
VERTEX
  8
FOREGROUND
  6
CONTINUOUS
 10
0.198241
 20
1.164858
  0
VERTEX
  8
FOREGROUND
  6
CONTINUOUS
 10
0.191182
 20
1.155779
  0
VERTEX
  8
FOREGROUND
  6
CONTINUOUS
 10
0.184273
 20
1.146579
  0
VERTEX
  8
FOREGROUND
  6
CONTINUOUS
 10
0.177514
 20
1.137261
  0
VERTEX
  8
FOREGROUND
  6
CONTINUOUS
 10
0.170908
 20
1.127827
  0
VERTEX
  8
FOREGROUND
  6
CONTINUOUS
 10
0.164456
 20
1.118278
  0
VERTEX
  8
FOREGROUND
  6
CONTINUOUS
 10
0.158161
 20
1.108616
  0
VERTEX
  8
FOREGROUND
  6
CONTINUOUS
 10
0.152024
 20
1.098843
  0
VERTEX
  8
FOREGROUND
  6
CONTINUOUS
 10
0.146047
 20
1.088961
  0
VERTEX
  8
FOREGROUND
  6
CONTINUOUS
 10
0.140231
 20
1.078972
  0
VERTEX
  8
FOREGROUND
  6
CONTINUOUS
 10
0.134580
 20
1.068877
  0
VERTEX
  8
FOREGROUND
  6
CONTINUOUS
 10
0.129094
 20
1.058678
  0
VERTEX
  8
FOREGROUND
  6
CONTINUOUS
 10
0.123775
 20
1.048377
  0
VERTEX
  8
FOREGROUND
  6
CONTINUOUS
 10
0.118625
 20
1.037976
  0
VERTEX
  8
FOREGROUND
  6
CONTINUOUS
 10
0.113646
 20
1.027477
  0
VERTEX
  8
FOREGROUND
  6
CONTINUOUS
 10
0.108839
 20
1.016881
  0
VERTEX
  8
FOREGROUND
  6
CONTINUOUS
 10
0.104207
 20
1.006190
  0
VERTEX
  8
FOREGROUND
  6
CONTINUOUS
 10
0.099752
 20
0.995407
  0
VERTEX
  8
FOREGROUND
  6
CONTINUOUS
 10
0.095474
 20
0.984532
  0
VERTEX
  8
FOREGROUND
  6
CONTINUOUS
 10
0.091377
 20
0.973568
  0
VERTEX
  8
FOREGROUND
  6
CONTINUOUS
 10
0.087461
 20
0.962517
  0
VERTEX
  8
FOREGROUND
  6
CONTINUOUS
 10
0.083729
 20
0.951380
  0
VERTEX
  8
FOREGROUND
  6
CONTINUOUS
 10
0.080182
 20
0.940159
  0
VERTEX
  8
FOREGROUND
  6
CONTINUOUS
 10
0.076822
 20
0.928856
  0
VERTEX
  8
FOREGROUND
  6
CONTINUOUS
 10
0.073651
 20
0.917473
  0
VERTEX
  8
FOREGROUND
  6
CONTINUOUS
 10
0.070671
 20
0.906012
  0
VERTEX
  8
FOREGROUND
  6
CONTINUOUS
 10
0.067884
 20
0.894474
  0
VERTEX
  8
FOREGROUND
  6
CONTINUOUS
 10
0.065291
 20
0.882861
  0
VERTEX
  8
FOREGROUND
  6
CONTINUOUS
 10
0.062894
 20
0.871175
  0
VERTEX
  8
FOREGROUND
  6
CONTINUOUS
 10
0.060696
 20
0.859418
  0
VERTEX
  8
FOREGROUND
  6
CONTINUOUS
 10
0.058697
 20
0.847592
  0
VERTEX
  8
FOREGROUND
  6
CONTINUOUS
 10
0.056900
 20
0.835698
  0
VERTEX
  8
FOREGROUND
  6
CONTINUOUS
 10
0.055306
 20
0.823738
  0
VERTEX
  8
FOREGROUND
  6
CONTINUOUS
 10
0.053918
 20
0.811715
  0
VERTEX
  8
FOREGROUND
  6
CONTINUOUS
 10
0.052736
 20
0.799629
  0
VERTEX
  8
FOREGROUND
  6
CONTINUOUS
 10
0.051764
 20
0.787483
  0
VERTEX
  8
FOREGROUND
  6
CONTINUOUS
 10
0.051002
 20
0.775279
  0
VERTEX
  8
FOREGROUND
  6
CONTINUOUS
 10
0.050453
 20
0.763018
  0
VERTEX
  8
FOREGROUND
  6
CONTINUOUS
 10
0.050119
 20
0.750702
  0
VERTEX
  8
FOREGROUND
  6
CONTINUOUS
 10
0.050000
 20
0.738333
  0
VERTEX
  8
FOREGROUND
  6
CONTINUOUS
 10
0.050000
 20
0.738333
  0
VERTEX
  8
FOREGROUND
  6
CONTINUOUS
 10
0.050119
 20
0.725963
  0
VERTEX
  8
FOREGROUND
  6
CONTINUOUS
 10
0.050453
 20
0.713645
  0
VERTEX
  8
FOREGROUND
  6
CONTINUOUS
 10
0.051003
 20
0.701383
  0
VERTEX
  8
FOREGROUND
  6
CONTINUOUS
 10
0.051764
 20
0.689177
  0
VERTEX
  8
FOREGROUND
  6
CONTINUOUS
 10
0.052737
 20
0.677030
  0
VERTEX
  8
FOREGROUND
  6
CONTINUOUS
 10
0.053919
 20
0.664943
  0
VERTEX
  8
FOREGROUND
  6
CONTINUOUS
 10
0.055307
 20
0.652918
  0
VERTEX
  8
FOREGROUND
  6
CONTINUOUS
 10
0.056901
 20
0.640957
  0
VERTEX
  8
FOREGROUND
  6
CONTINUOUS
 10
0.058699
 20
0.629061
  0
VERTEX
  8
FOREGROUND
  6
CONTINUOUS
 10
0.060698
 20
0.617234
  0
VERTEX
  8
FOREGROUND
  6
CONTINUOUS
 10
0.062897
 20
0.605475
  0
VERTEX
  8
FOREGROUND
  6
CONTINUOUS
 10
0.065295
 20
0.593788
  0
VERTEX
  8
FOREGROUND
  6
CONTINUOUS
 10
0.067888
 20
0.582174
  0
VERTEX
  8
FOREGROUND
  6
CONTINUOUS
 10
0.070676
 20
0.570634
  0
VERTEX
  8
FOREGROUND
  6
CONTINUOUS
 10
0.073657
 20
0.559172
  0
VERTEX
  8
FOREGROUND
  6
CONTINUOUS
 10
0.076829
 20
0.547787
  0
VERTEX
  8
FOREGROUND
  6
CONTINUOUS
 10
0.080189
 20
0.536483
  0
VERTEX
  8
FOREGROUND
  6
CONTINUOUS
 10
0.083737
 20
0.525261
  0
VERTEX
  8
FOREGROUND
  6
CONTINUOUS
 10
0.087470
 20
0.514123
  0
VERTEX
  8
FOREGROUND
  6
CONTINUOUS
 10
0.091387
 20
0.503071
  0
VERTEX
  8
FOREGROUND
  6
CONTINUOUS
 10
0.095485
 20
0.492106
  0
VERTEX
  8
FOREGROUND
  6
CONTINUOUS
 10
0.099764
 20
0.481230
  0
VERTEX
  8
FOREGROUND
  6
CONTINUOUS
 10
0.104220
 20
0.470446
  0
VERTEX
  8
FOREGROUND
  6
CONTINUOUS
 10
0.108853
 20
0.459754
  0
VERTEX
  8
FOREGROUND
  6
CONTINUOUS
 10
0.113661
 20
0.449157
  0
VERTEX
  8
FOREGROUND
  6
CONTINUOUS
 10
0.118641
 20
0.438657
  0
VERTEX
  8
FOREGROUND
  6
CONTINUOUS
 10
0.123792
 20
0.428255
  0
VERTEX
  8
FOREGROUND
  6
CONTINUOUS
 10
0.129112
 20
0.417953
  0
VERTEX
  8
FOREGROUND
  6
CONTINUOUS
 10
0.134600
 20
0.407754
  0
VERTEX
  8
FOREGROUND
  6
CONTINUOUS
 10
0.140253
 20
0.397658
  0
VERTEX
  8
FOREGROUND
  6
CONTINUOUS
 10
0.146069
 20
0.387667
  0
VERTEX
  8
FOREGROUND
  6
CONTINUOUS
 10
0.152048
 20
0.377785
  0
VERTEX
  8
FOREGROUND
  6
CONTINUOUS
 10
0.158186
 20
0.368011
  0
VERTEX
  8
FOREGROUND
  6
CONTINUOUS
 10
0.164483
 20
0.358349
  0
VERTEX
  8
FOREGROUND
  6
CONTINUOUS
 10
0.170936
 20
0.348799
  0
VERTEX
  8
FOREGROUND
  6
CONTINUOUS
 10
0.177543
 20
0.339364
  0
VERTEX
  8
FOREGROUND
  6
CONTINUOUS
 10
0.184303
 20
0.330046
  0
VERTEX
  8
FOREGROUND
  6
CONTINUOUS
 10
0.191215
 20
0.320845
  0
VERTEX
  8
FOREGROUND
  6
CONTINUOUS
 10
0.198275
 20
0.311766
  0
VERTEX
  8
FOREGROUND
  6
CONTINUOUS
 10
0.205483
 20
0.302807
  0
VERTEX
  8
FOREGROUND
  6
CONTINUOUS
 10
0.212836
 20
0.293973
  0
VERTEX
  8
FOREGROUND
  6
CONTINUOUS
 10
0.220333
 20
0.285265
  0
VERTEX
  8
FOREGROUND
  6
CONTINUOUS
 10
0.227972
 20
0.276683
  0
VERTEX
  8
FOREGROUND
  6
CONTINUOUS
 10
0.235751
 20
0.268231
  0
VERTEX
  8
FOREGROUND
  6
CONTINUOUS
 10
0.243668
 20
0.259910
  0
VERTEX
  8
FOREGROUND
  6
CONTINUOUS
 10
0.251722
 20
0.251722
  0
VERTEX
  8
FOREGROUND
  6
CONTINUOUS
 10
0.259910
 20
0.243668
  0
VERTEX
  8
FOREGROUND
  6
CONTINUOUS
 10
0.268231
 20
0.235751
  0
VERTEX
  8
FOREGROUND
  6
CONTINUOUS
 10
0.276683
 20
0.227972
  0
VERTEX
  8
FOREGROUND
  6
CONTINUOUS
 10
0.285265
 20
0.220333
  0
VERTEX
  8
FOREGROUND
  6
CONTINUOUS
 10
0.293973
 20
0.212836
  0
VERTEX
  8
FOREGROUND
  6
CONTINUOUS
 10
0.302807
 20
0.205483
  0
VERTEX
  8
FOREGROUND
  6
CONTINUOUS
 10
0.311766
 20
0.198275
  0
VERTEX
  8
FOREGROUND
  6
CONTINUOUS
 10
0.320845
 20
0.191215
  0
VERTEX
  8
FOREGROUND
  6
CONTINUOUS
 10
0.330046
 20
0.184303
  0
VERTEX
  8
FOREGROUND
  6
CONTINUOUS
 10
0.339364
 20
0.177543
  0
VERTEX
  8
FOREGROUND
  6
CONTINUOUS
 10
0.348799
 20
0.170936
  0
VERTEX
  8
FOREGROUND
  6
CONTINUOUS
 10
0.358349
 20
0.164483
  0
VERTEX
  8
FOREGROUND
  6
CONTINUOUS
 10
0.368011
 20
0.158186
  0
VERTEX
  8
FOREGROUND
  6
CONTINUOUS
 10
0.377785
 20
0.152048
  0
VERTEX
  8
FOREGROUND
  6
CONTINUOUS
 10
0.387667
 20
0.146069
  0
VERTEX
  8
FOREGROUND
  6
CONTINUOUS
 10
0.397658
 20
0.140253
  0
VERTEX
  8
FOREGROUND
  6
CONTINUOUS
 10
0.407754
 20
0.134600
  0
VERTEX
  8
FOREGROUND
  6
CONTINUOUS
 10
0.417953
 20
0.129112
  0
VERTEX
  8
FOREGROUND
  6
CONTINUOUS
 10
0.428255
 20
0.123792
  0
VERTEX
  8
FOREGROUND
  6
CONTINUOUS
 10
0.438657
 20
0.118641
  0
VERTEX
  8
FOREGROUND
  6
CONTINUOUS
 10
0.449157
 20
0.113661
  0
VERTEX
  8
FOREGROUND
  6
CONTINUOUS
 10
0.459754
 20
0.108853
  0
VERTEX
  8
FOREGROUND
  6
CONTINUOUS
 10
0.470446
 20
0.104220
  0
VERTEX
  8
FOREGROUND
  6
CONTINUOUS
 10
0.481230
 20
0.099764
  0
VERTEX
  8
FOREGROUND
  6
CONTINUOUS
 10
0.492106
 20
0.095485
  0
VERTEX
  8
FOREGROUND
  6
CONTINUOUS
 10
0.503071
 20
0.091387
  0
VERTEX
  8
FOREGROUND
  6
CONTINUOUS
 10
0.514123
 20
0.087470
  0
VERTEX
  8
FOREGROUND
  6
CONTINUOUS
 10
0.525261
 20
0.083737
  0
VERTEX
  8
FOREGROUND
  6
CONTINUOUS
 10
0.536483
 20
0.080189
  0
VERTEX
  8
FOREGROUND
  6
CONTINUOUS
 10
0.547787
 20
0.076829
  0
VERTEX
  8
FOREGROUND
  6
CONTINUOUS
 10
0.559172
 20
0.073657
  0
VERTEX
  8
FOREGROUND
  6
CONTINUOUS
 10
0.570634
 20
0.070676
  0
VERTEX
  8
FOREGROUND
  6
CONTINUOUS
 10
0.582174
 20
0.067888
  0
VERTEX
  8
FOREGROUND
  6
CONTINUOUS
 10
0.593788
 20
0.065295
  0
VERTEX
  8
FOREGROUND
  6
CONTINUOUS
 10
0.605475
 20
0.062897
  0
VERTEX
  8
FOREGROUND
  6
CONTINUOUS
 10
0.617234
 20
0.060698
  0
VERTEX
  8
FOREGROUND
  6
CONTINUOUS
 10
0.629061
 20
0.058699
  0
VERTEX
  8
FOREGROUND
  6
CONTINUOUS
 10
0.640957
 20
0.056901
  0
VERTEX
  8
FOREGROUND
  6
CONTINUOUS
 10
0.652918
 20
0.055307
  0
VERTEX
  8
FOREGROUND
  6
CONTINUOUS
 10
0.664943
 20
0.053919
  0
VERTEX
  8
FOREGROUND
  6
CONTINUOUS
 10
0.677030
 20
0.052737
  0
VERTEX
  8
FOREGROUND
  6
CONTINUOUS
 10
0.689177
 20
0.051764
  0
VERTEX
  8
FOREGROUND
  6
CONTINUOUS
 10
0.701383
 20
0.051003
  0
VERTEX
  8
FOREGROUND
  6
CONTINUOUS
 10
0.713645
 20
0.050453
  0
VERTEX
  8
FOREGROUND
  6
CONTINUOUS
 10
0.725963
 20
0.050119
  0
VERTEX
  8
FOREGROUND
  6
CONTINUOUS
 10
0.738333
 20
0.050000
  0
SEQEND
  8
0
  0
ENDSEC
  0
EOF
