  0
SECTION
  2
HEADER
  9
$ACADVER
  1
AC1006
  9
$EXTMIN
 10
0.000000
 20
0.000000
  9
$EXTMAX
 10
2.466667
 20
0.893333
  9
$LTSCALE
 40
0.166667
  9
$PDMODE
 70
    35
  9
$PDSIZE
 40
0.133333
  0
ENDSEC
  0
SECTION
  2
TABLES
  0
TABLE
  2
LTYPE
 70
     9
  0
LTYPE
  2
CONTINUOUS
 70
    64
  3
Solid line
 72
    65
 73
     0
 40
0.000000
  0
LTYPE
  2
DASHED
 70
    64
  3
__ __ __ __ __ __ __ __ __ __ __ __ __ __ __
 72
    65
 73
     2
 40
0.001250
 49
0.000833
 49
-0.000417
  0
LTYPE
  2
HIDDEN
 70
    64
  3
 _ _ _ _ _ _ _ _ _ _ _ _ _ _ _ _ _ _ _ _ _ _
 72
    65
 73
     2
 40
0.000625
 49
0.000417
 49
-0.000208
  0
LTYPE
  2
CENTER
 70
    64
  3
____ _ ____ _ ____ _ ____ _ ____ _ ____ _ ____
 72
    65
 73
     4
 40
0.003333
 49
0.002083
 49
-0.000417
 49
0.000417
 49
-0.000417
  0
LTYPE
  2
PHANTOM
 70
    64
  3
_____ _ _ _____ _ _ _____ _ _ _____ _ _ ____
 72
    65
 73
     6
 40
0.004167
 49
0.002083
 49
-0.000417
 49
0.000417
 49
-0.000417
 49
0.000417
 49
-0.000417
  0
LTYPE
  2
DOT
 70
    64
  3
...............................................
 72
    65
 73
     2
 40
0.000417
 49
0.000000
 49
-0.000417
  0
LTYPE
  2
DASHDOT
 70
    64
  3
__ . __ . __ . __ . __ . __ . __ . __ . __ . __
 72
    65
 73
     4
 40
0.001667
 49
0.000833
 49
-0.000417
 49
0.000000
 49
-0.000417
  0
LTYPE
  2
BORDER
 70
    64
  3
__ __ . __ __ . __ __ . __ __ . __ __ . __ __
 72
    65
 73
     6
 40
0.002917
 49
0.000833
 49
-0.000417
 49
0.000833
 49
-0.000417
 49
0.000000
 49
-0.000417
  0
LTYPE
  2
DIVIDE
 70
    64
  3
__ . . __ . . __ . . __ . . __ . . __ . . __
 72
    65
 73
     6
 40
0.002083
 49
0.000833
 49
-0.000417
 49
0.000000
 49
-0.000417
 49
0.000000
 49
-0.000417
  0
LTYPE
  2
DOTDOT
 70
    64
  3
 . .  . .  . .  . .  . .  . . 
 72
    65
 73
     5
 40
0.000917
 49
-0.000417
 49
0.000000
 49
-0.000417
 49
0.000000
 49
-0.000417
  0
ENDTAB
  0
TABLE
  2
STYLE
 70
     2
  0
STYLE
 70
     0
  2
SN0
 40
0.000000
 41
0.001667
 50
0.000000
 71
     0
 42
0.000000
  3
ROMAND
  0
STYLE
 70
    68
  2
SV0
 40
0.000000
 41
0.001667
 50
0.000000
 71
     0
 42
0.000000
  3
ROMAND
  0
ENDTAB
  0
TABLE
  2
LAYER
 70
     2
  0
LAYER
  2
FOREGROUND
 70
    64
 62
     7
  6
CONTINUOUS
  0
LAYER
  2
BACKGROUND
 70
    65
 62
    -7
  6
CONTINUOUS
  0
ENDTAB
  0
ENDSEC
  0
SECTION
  2
ENTITIES
  0
POLYLINE
  8
FOREGROUND
  6
CONTINUOUS
 66
     1
 40
0.010000
 41
0.010000
 70
     1
  0
VERTEX
  8
FOREGROUND
  6
CONTINUOUS
 10
2.020000
 20
0.050000
  0
VERTEX
  8
FOREGROUND
  6
CONTINUOUS
 10
2.032838
 20
0.050214
  0
VERTEX
  8
FOREGROUND
  6
CONTINUOUS
 10
2.045573
 20
0.050830
  0
VERTEX
  8
FOREGROUND
  6
CONTINUOUS
 10
2.058200
 20
0.051843
  0
VERTEX
  8
FOREGROUND
  6
CONTINUOUS
 10
2.070712
 20
0.053247
  0
VERTEX
  8
FOREGROUND
  6
CONTINUOUS
 10
2.083104
 20
0.055034
  0
VERTEX
  8
FOREGROUND
  6
CONTINUOUS
 10
2.095369
 20
0.057200
  0
VERTEX
  8
FOREGROUND
  6
CONTINUOUS
 10
2.107502
 20
0.059739
  0
VERTEX
  8
FOREGROUND
  6
CONTINUOUS
 10
2.119495
 20
0.062643
  0
VERTEX
  8
FOREGROUND
  6
CONTINUOUS
 10
2.131343
 20
0.065906
  0
VERTEX
  8
FOREGROUND
  6
CONTINUOUS
 10
2.143040
 20
0.069524
  0
VERTEX
  8
FOREGROUND
  6
CONTINUOUS
 10
2.154579
 20
0.073489
  0
VERTEX
  8
FOREGROUND
  6
CONTINUOUS
 10
2.165955
 20
0.077795
  0
VERTEX
  8
FOREGROUND
  6
CONTINUOUS
 10
2.177161
 20
0.082437
  0
VERTEX
  8
FOREGROUND
  6
CONTINUOUS
 10
2.188192
 20
0.087408
  0
VERTEX
  8
FOREGROUND
  6
CONTINUOUS
 10
2.199040
 20
0.092702
  0
VERTEX
  8
FOREGROUND
  6
CONTINUOUS
 10
2.209700
 20
0.098313
  0
VERTEX
  8
FOREGROUND
  6
CONTINUOUS
 10
2.220166
 20
0.104234
  0
VERTEX
  8
FOREGROUND
  6
CONTINUOUS
 10
2.230432
 20
0.110460
  0
VERTEX
  8
FOREGROUND
  6
CONTINUOUS
 10
2.240491
 20
0.116985
  0
VERTEX
  8
FOREGROUND
  6
CONTINUOUS
 10
2.250338
 20
0.123802
  0
VERTEX
  8
FOREGROUND
  6
CONTINUOUS
 10
2.259966
 20
0.130905
  0
VERTEX
  8
FOREGROUND
  6
CONTINUOUS
 10
2.269369
 20
0.138288
  0
VERTEX
  8
FOREGROUND
  6
CONTINUOUS
 10
2.278541
 20
0.145945
  0
VERTEX
  8
FOREGROUND
  6
CONTINUOUS
 10
2.287476
 20
0.153870
  0
VERTEX
  8
FOREGROUND
  6
CONTINUOUS
 10
2.296168
 20
0.162057
  0
VERTEX
  8
FOREGROUND
  6
CONTINUOUS
 10
2.304610
 20
0.170499
  0
VERTEX
  8
FOREGROUND
  6
CONTINUOUS
 10
2.312796
 20
0.179191
  0
VERTEX
  8
FOREGROUND
  6
CONTINUOUS
 10
2.320721
 20
0.188126
  0
VERTEX
  8
FOREGROUND
  6
CONTINUOUS
 10
2.328379
 20
0.197298
  0
VERTEX
  8
FOREGROUND
  6
CONTINUOUS
 10
2.335762
 20
0.206701
  0
VERTEX
  8
FOREGROUND
  6
CONTINUOUS
 10
2.342865
 20
0.216329
  0
VERTEX
  8
FOREGROUND
  6
CONTINUOUS
 10
2.349682
 20
0.226175
  0
VERTEX
  8
FOREGROUND
  6
CONTINUOUS
 10
2.356206
 20
0.236234
  0
VERTEX
  8
FOREGROUND
  6
CONTINUOUS
 10
2.362432
 20
0.246500
  0
VERTEX
  8
FOREGROUND
  6
CONTINUOUS
 10
2.368354
 20
0.256966
  0
VERTEX
  8
FOREGROUND
  6
CONTINUOUS
 10
2.373965
 20
0.267627
  0
VERTEX
  8
FOREGROUND
  6
CONTINUOUS
 10
2.379259
 20
0.278475
  0
VERTEX
  8
FOREGROUND
  6
CONTINUOUS
 10
2.384229
 20
0.289505
  0
VERTEX
  8
FOREGROUND
  6
CONTINUOUS
 10
2.388871
 20
0.300712
  0
VERTEX
  8
FOREGROUND
  6
CONTINUOUS
 10
2.393178
 20
0.312087
  0
VERTEX
  8
FOREGROUND
  6
CONTINUOUS
 10
2.397143
 20
0.323627
  0
VERTEX
  8
FOREGROUND
  6
CONTINUOUS
 10
2.400760
 20
0.335324
  0
VERTEX
  8
FOREGROUND
  6
CONTINUOUS
 10
2.404024
 20
0.347172
  0
VERTEX
  8
FOREGROUND
  6
CONTINUOUS
 10
2.406928
 20
0.359165
  0
VERTEX
  8
FOREGROUND
  6
CONTINUOUS
 10
2.409466
 20
0.371297
  0
VERTEX
  8
FOREGROUND
  6
CONTINUOUS
 10
2.411632
 20
0.383562
  0
VERTEX
  8
FOREGROUND
  6
CONTINUOUS
 10
2.413420
 20
0.395954
  0
VERTEX
  8
FOREGROUND
  6
CONTINUOUS
 10
2.414824
 20
0.408467
  0
VERTEX
  8
FOREGROUND
  6
CONTINUOUS
 10
2.415837
 20
0.421094
  0
VERTEX
  8
FOREGROUND
  6
CONTINUOUS
 10
2.416453
 20
0.433829
  0
VERTEX
  8
FOREGROUND
  6
CONTINUOUS
 10
2.416667
 20
0.446667
  0
VERTEX
  8
FOREGROUND
  6
CONTINUOUS
 10
2.416667
 20
0.446667
  0
VERTEX
  8
FOREGROUND
  6
CONTINUOUS
 10
2.416453
 20
0.459506
  0
VERTEX
  8
FOREGROUND
  6
CONTINUOUS
 10
2.415836
 20
0.472243
  0
VERTEX
  8
FOREGROUND
  6
CONTINUOUS
 10
2.414823
 20
0.484871
  0
VERTEX
  8
FOREGROUND
  6
CONTINUOUS
 10
2.413419
 20
0.497386
  0
VERTEX
  8
FOREGROUND
  6
CONTINUOUS
 10
2.411631
 20
0.509779
  0
VERTEX
  8
FOREGROUND
  6
CONTINUOUS
 10
2.409464
 20
0.522046
  0
VERTEX
  8
FOREGROUND
  6
CONTINUOUS
 10
2.406926
 20
0.534179
  0
VERTEX
  8
FOREGROUND
  6
CONTINUOUS
 10
2.404021
 20
0.546174
  0
VERTEX
  8
FOREGROUND
  6
CONTINUOUS
 10
2.400756
 20
0.558023
  0
VERTEX
  8
FOREGROUND
  6
CONTINUOUS
 10
2.397138
 20
0.569721
  0
VERTEX
  8
FOREGROUND
  6
CONTINUOUS
 10
2.393172
 20
0.581262
  0
VERTEX
  8
FOREGROUND
  6
CONTINUOUS
 10
2.388865
 20
0.592639
  0
VERTEX
  8
FOREGROUND
  6
CONTINUOUS
 10
2.384222
 20
0.603846
  0
VERTEX
  8
FOREGROUND
  6
CONTINUOUS
 10
2.379250
 20
0.614877
  0
VERTEX
  8
FOREGROUND
  6
CONTINUOUS
 10
2.373955
 20
0.625727
  0
VERTEX
  8
FOREGROUND
  6
CONTINUOUS
 10
2.368343
 20
0.636388
  0
VERTEX
  8
FOREGROUND
  6
CONTINUOUS
 10
2.362420
 20
0.646855
  0
VERTEX
  8
FOREGROUND
  6
CONTINUOUS
 10
2.356192
 20
0.657121
  0
VERTEX
  8
FOREGROUND
  6
CONTINUOUS
 10
2.349666
 20
0.667181
  0
VERTEX
  8
FOREGROUND
  6
CONTINUOUS
 10
2.342848
 20
0.677029
  0
VERTEX
  8
FOREGROUND
  6
CONTINUOUS
 10
2.335743
 20
0.686657
  0
VERTEX
  8
FOREGROUND
  6
CONTINUOUS
 10
2.328358
 20
0.696061
  0
VERTEX
  8
FOREGROUND
  6
CONTINUOUS
 10
2.320700
 20
0.705233
  0
VERTEX
  8
FOREGROUND
  6
CONTINUOUS
 10
2.312773
 20
0.714168
  0
VERTEX
  8
FOREGROUND
  6
CONTINUOUS
 10
2.304585
 20
0.722860
  0
VERTEX
  8
FOREGROUND
  6
CONTINUOUS
 10
2.296141
 20
0.731302
  0
VERTEX
  8
FOREGROUND
  6
CONTINUOUS
 10
2.287447
 20
0.739489
  0
VERTEX
  8
FOREGROUND
  6
CONTINUOUS
 10
2.278511
 20
0.747414
  0
VERTEX
  8
FOREGROUND
  6
CONTINUOUS
 10
2.269337
 20
0.755071
  0
VERTEX
  8
FOREGROUND
  6
CONTINUOUS
 10
2.259932
 20
0.762454
  0
VERTEX
  8
FOREGROUND
  6
CONTINUOUS
 10
2.250302
 20
0.769557
  0
VERTEX
  8
FOREGROUND
  6
CONTINUOUS
 10
2.240454
 20
0.776374
  0
VERTEX
  8
FOREGROUND
  6
CONTINUOUS
 10
2.230392
 20
0.782898
  0
VERTEX
  8
FOREGROUND
  6
CONTINUOUS
 10
2.220125
 20
0.789124
  0
VERTEX
  8
FOREGROUND
  6
CONTINUOUS
 10
2.209657
 20
0.795044
  0
VERTEX
  8
FOREGROUND
  6
CONTINUOUS
 10
2.198995
 20
0.800655
  0
VERTEX
  8
FOREGROUND
  6
CONTINUOUS
 10
2.188144
 20
0.805948
  0
VERTEX
  8
FOREGROUND
  6
CONTINUOUS
 10
2.177112
 20
0.810918
  0
VERTEX
  8
FOREGROUND
  6
CONTINUOUS
 10
2.165904
 20
0.815558
  0
VERTEX
  8
FOREGROUND
  6
CONTINUOUS
 10
2.154526
 20
0.819864
  0
VERTEX
  8
FOREGROUND
  6
CONTINUOUS
 10
2.142985
 20
0.823827
  0
VERTEX
  8
FOREGROUND
  6
CONTINUOUS
 10
2.131286
 20
0.827444
  0
VERTEX
  8
FOREGROUND
  6
CONTINUOUS
 10
2.119436
 20
0.830706
  0
VERTEX
  8
FOREGROUND
  6
CONTINUOUS
 10
2.107441
 20
0.833609
  0
VERTEX
  8
FOREGROUND
  6
CONTINUOUS
 10
2.095307
 20
0.836145
  0
VERTEX
  8
FOREGROUND
  6
CONTINUOUS
 10
2.083040
 20
0.838309
  0
VERTEX
  8
FOREGROUND
  6
CONTINUOUS
 10
2.070646
 20
0.840095
  0
VERTEX
  8
FOREGROUND
  6
CONTINUOUS
 10
2.058132
 20
0.841497
  0
VERTEX
  8
FOREGROUND
  6
CONTINUOUS
 10
2.045503
 20
0.842508
  0
VERTEX
  8
FOREGROUND
  6
CONTINUOUS
 10
2.032766
 20
0.843122
  0
VERTEX
  8
FOREGROUND
  6
CONTINUOUS
 10
2.019926
 20
0.843333
  0
VERTEX
  8
FOREGROUND
  6
CONTINUOUS
 10
0.446593
 20
0.843333
  0
VERTEX
  8
FOREGROUND
  6
CONTINUOUS
 10
0.433757
 20
0.843117
  0
VERTEX
  8
FOREGROUND
  6
CONTINUOUS
 10
0.421024
 20
0.842499
  0
VERTEX
  8
FOREGROUND
  6
CONTINUOUS
 10
0.408398
 20
0.841484
  0
VERTEX
  8
FOREGROUND
  6
CONTINUOUS
 10
0.395888
 20
0.840078
  0
VERTEX
  8
FOREGROUND
  6
CONTINUOUS
 10
0.383498
 20
0.838288
  0
VERTEX
  8
FOREGROUND
  6
CONTINUOUS
 10
0.371234
 20
0.836121
  0
VERTEX
  8
FOREGROUND
  6
CONTINUOUS
 10
0.359104
 20
0.833581
  0
VERTEX
  8
FOREGROUND
  6
CONTINUOUS
 10
0.347113
 20
0.830675
  0
VERTEX
  8
FOREGROUND
  6
CONTINUOUS
 10
0.335266
 20
0.827410
  0
VERTEX
  8
FOREGROUND
  6
CONTINUOUS
 10
0.323572
 20
0.823791
  0
VERTEX
  8
FOREGROUND
  6
CONTINUOUS
 10
0.312034
 20
0.819825
  0
VERTEX
  8
FOREGROUND
  6
CONTINUOUS
 10
0.300660
 20
0.815517
  0
VERTEX
  8
FOREGROUND
  6
CONTINUOUS
 10
0.289456
 20
0.810875
  0
VERTEX
  8
FOREGROUND
  6
CONTINUOUS
 10
0.278428
 20
0.805903
  0
VERTEX
  8
FOREGROUND
  6
CONTINUOUS
 10
0.267581
 20
0.800608
  0
VERTEX
  8
FOREGROUND
  6
CONTINUOUS
 10
0.256923
 20
0.794997
  0
VERTEX
  8
FOREGROUND
  6
CONTINUOUS
 10
0.246459
 20
0.789075
  0
VERTEX
  8
FOREGROUND
  6
CONTINUOUS
 10
0.236195
 20
0.782848
  0
VERTEX
  8
FOREGROUND
  6
CONTINUOUS
 10
0.226137
 20
0.776323
  0
VERTEX
  8
FOREGROUND
  6
CONTINUOUS
 10
0.216293
 20
0.769506
  0
VERTEX
  8
FOREGROUND
  6
CONTINUOUS
 10
0.206667
 20
0.762402
  0
VERTEX
  8
FOREGROUND
  6
CONTINUOUS
 10
0.197265
 20
0.755019
  0
VERTEX
  8
FOREGROUND
  6
CONTINUOUS
 10
0.188095
 20
0.747362
  0
VERTEX
  8
FOREGROUND
  6
CONTINUOUS
 10
0.179162
 20
0.739437
  0
VERTEX
  8
FOREGROUND
  6
CONTINUOUS
 10
0.170472
 20
0.731250
  0
VERTEX
  8
FOREGROUND
  6
CONTINUOUS
 10
0.162032
 20
0.722808
  0
VERTEX
  8
FOREGROUND
  6
CONTINUOUS
 10
0.153847
 20
0.714117
  0
VERTEX
  8
FOREGROUND
  6
CONTINUOUS
 10
0.145924
 20
0.705182
  0
VERTEX
  8
FOREGROUND
  6
CONTINUOUS
 10
0.138268
 20
0.696011
  0
VERTEX
  8
FOREGROUND
  6
CONTINUOUS
 10
0.130886
 20
0.686608
  0
VERTEX
  8
FOREGROUND
  6
CONTINUOUS
 10
0.123785
 20
0.676981
  0
VERTEX
  8
FOREGROUND
  6
CONTINUOUS
 10
0.116969
 20
0.667135
  0
VERTEX
  8
FOREGROUND
  6
CONTINUOUS
 10
0.110446
 20
0.657076
  0
VERTEX
  8
FOREGROUND
  6
CONTINUOUS
 10
0.104221
 20
0.646811
  0
VERTEX
  8
FOREGROUND
  6
CONTINUOUS
 10
0.098301
 20
0.636346
  0
VERTEX
  8
FOREGROUND
  6
CONTINUOUS
 10
0.092692
 20
0.625687
  0
VERTEX
  8
FOREGROUND
  6
CONTINUOUS
 10
0.087399
 20
0.614839
  0
VERTEX
  8
FOREGROUND
  6
CONTINUOUS
 10
0.082429
 20
0.603810
  0
VERTEX
  8
FOREGROUND
  6
CONTINUOUS
 10
0.077789
 20
0.592605
  0
VERTEX
  8
FOREGROUND
  6
CONTINUOUS
 10
0.073483
 20
0.581230
  0
VERTEX
  8
FOREGROUND
  6
CONTINUOUS
 10
0.069519
 20
0.569692
  0
VERTEX
  8
FOREGROUND
  6
CONTINUOUS
 10
0.065903
 20
0.557996
  0
VERTEX
  8
FOREGROUND
  6
CONTINUOUS
 10
0.062639
 20
0.546150
  0
VERTEX
  8
FOREGROUND
  6
CONTINUOUS
 10
0.059736
 20
0.534158
  0
VERTEX
  8
FOREGROUND
  6
CONTINUOUS
 10
0.057199
 20
0.522027
  0
VERTEX
  8
FOREGROUND
  6
CONTINUOUS
 10
0.055033
 20
0.509763
  0
VERTEX
  8
FOREGROUND
  6
CONTINUOUS
 10
0.053246
 20
0.497373
  0
VERTEX
  8
FOREGROUND
  6
CONTINUOUS
 10
0.051843
 20
0.484862
  0
VERTEX
  8
FOREGROUND
  6
CONTINUOUS
 10
0.050830
 20
0.472236
  0
VERTEX
  8
FOREGROUND
  6
CONTINUOUS
 10
0.050214
 20
0.459503
  0
VERTEX
  8
FOREGROUND
  6
CONTINUOUS
 10
0.050000
 20
0.446667
  0
VERTEX
  8
FOREGROUND
  6
CONTINUOUS
 10
0.050000
 20
0.446667
  0
VERTEX
  8
FOREGROUND
  6
CONTINUOUS
 10
0.050214
 20
0.433829
  0
VERTEX
  8
FOREGROUND
  6
CONTINUOUS
 10
0.050830
 20
0.421094
  0
VERTEX
  8
FOREGROUND
  6
CONTINUOUS
 10
0.051843
 20
0.408467
  0
VERTEX
  8
FOREGROUND
  6
CONTINUOUS
 10
0.053247
 20
0.395954
  0
VERTEX
  8
FOREGROUND
  6
CONTINUOUS
 10
0.055034
 20
0.383562
  0
VERTEX
  8
FOREGROUND
  6
CONTINUOUS
 10
0.057200
 20
0.371297
  0
VERTEX
  8
FOREGROUND
  6
CONTINUOUS
 10
0.059739
 20
0.359165
  0
VERTEX
  8
FOREGROUND
  6
CONTINUOUS
 10
0.062643
 20
0.347172
  0
VERTEX
  8
FOREGROUND
  6
CONTINUOUS
 10
0.065906
 20
0.335324
  0
VERTEX
  8
FOREGROUND
  6
CONTINUOUS
 10
0.069524
 20
0.323627
  0
VERTEX
  8
FOREGROUND
  6
CONTINUOUS
 10
0.073489
 20
0.312087
  0
VERTEX
  8
FOREGROUND
  6
CONTINUOUS
 10
0.077795
 20
0.300712
  0
VERTEX
  8
FOREGROUND
  6
CONTINUOUS
 10
0.082437
 20
0.289505
  0
VERTEX
  8
FOREGROUND
  6
CONTINUOUS
 10
0.087408
 20
0.278475
  0
VERTEX
  8
FOREGROUND
  6
CONTINUOUS
 10
0.092702
 20
0.267627
  0
VERTEX
  8
FOREGROUND
  6
CONTINUOUS
 10
0.098313
 20
0.256966
  0
VERTEX
  8
FOREGROUND
  6
CONTINUOUS
 10
0.104234
 20
0.246500
  0
VERTEX
  8
FOREGROUND
  6
CONTINUOUS
 10
0.110460
 20
0.236234
  0
VERTEX
  8
FOREGROUND
  6
CONTINUOUS
 10
0.116985
 20
0.226175
  0
VERTEX
  8
FOREGROUND
  6
CONTINUOUS
 10
0.123802
 20
0.216329
  0
VERTEX
  8
FOREGROUND
  6
CONTINUOUS
 10
0.130905
 20
0.206701
  0
VERTEX
  8
FOREGROUND
  6
CONTINUOUS
 10
0.138288
 20
0.197298
  0
VERTEX
  8
FOREGROUND
  6
CONTINUOUS
 10
0.145945
 20
0.188126
  0
VERTEX
  8
FOREGROUND
  6
CONTINUOUS
 10
0.153870
 20
0.179191
  0
VERTEX
  8
FOREGROUND
  6
CONTINUOUS
 10
0.162057
 20
0.170499
  0
VERTEX
  8
FOREGROUND
  6
CONTINUOUS
 10
0.170499
 20
0.162057
  0
VERTEX
  8
FOREGROUND
  6
CONTINUOUS
 10
0.179191
 20
0.153870
  0
VERTEX
  8
FOREGROUND
  6
CONTINUOUS
 10
0.188126
 20
0.145945
  0
VERTEX
  8
FOREGROUND
  6
CONTINUOUS
 10
0.197298
 20
0.138288
  0
VERTEX
  8
FOREGROUND
  6
CONTINUOUS
 10
0.206701
 20
0.130905
  0
VERTEX
  8
FOREGROUND
  6
CONTINUOUS
 10
0.216329
 20
0.123802
  0
VERTEX
  8
FOREGROUND
  6
CONTINUOUS
 10
0.226175
 20
0.116985
  0
VERTEX
  8
FOREGROUND
  6
CONTINUOUS
 10
0.236234
 20
0.110460
  0
VERTEX
  8
FOREGROUND
  6
CONTINUOUS
 10
0.246500
 20
0.104234
  0
VERTEX
  8
FOREGROUND
  6
CONTINUOUS
 10
0.256966
 20
0.098313
  0
VERTEX
  8
FOREGROUND
  6
CONTINUOUS
 10
0.267627
 20
0.092702
  0
VERTEX
  8
FOREGROUND
  6
CONTINUOUS
 10
0.278475
 20
0.087408
  0
VERTEX
  8
FOREGROUND
  6
CONTINUOUS
 10
0.289505
 20
0.082437
  0
VERTEX
  8
FOREGROUND
  6
CONTINUOUS
 10
0.300712
 20
0.077795
  0
VERTEX
  8
FOREGROUND
  6
CONTINUOUS
 10
0.312087
 20
0.073489
  0
VERTEX
  8
FOREGROUND
  6
CONTINUOUS
 10
0.323627
 20
0.069524
  0
VERTEX
  8
FOREGROUND
  6
CONTINUOUS
 10
0.335324
 20
0.065906
  0
VERTEX
  8
FOREGROUND
  6
CONTINUOUS
 10
0.347172
 20
0.062643
  0
VERTEX
  8
FOREGROUND
  6
CONTINUOUS
 10
0.359165
 20
0.059739
  0
VERTEX
  8
FOREGROUND
  6
CONTINUOUS
 10
0.371297
 20
0.057200
  0
VERTEX
  8
FOREGROUND
  6
CONTINUOUS
 10
0.383562
 20
0.055034
  0
VERTEX
  8
FOREGROUND
  6
CONTINUOUS
 10
0.395954
 20
0.053247
  0
VERTEX
  8
FOREGROUND
  6
CONTINUOUS
 10
0.408467
 20
0.051843
  0
VERTEX
  8
FOREGROUND
  6
CONTINUOUS
 10
0.421094
 20
0.050830
  0
VERTEX
  8
FOREGROUND
  6
CONTINUOUS
 10
0.433829
 20
0.050214
  0
VERTEX
  8
FOREGROUND
  6
CONTINUOUS
 10
0.446667
 20
0.050000
  0
SEQEND
  8
0
  0
ENDSEC
  0
EOF
