  0
SECTION
  2
HEADER
  9
$ACADVER
  1
AC1006
  9
$EXTMIN
 10
0.000000
 20
0.000000
  9
$EXTMAX
 10
2.470000
 20
1.280000
  9
$LTSCALE
 40
0.166667
  9
$PDMODE
 70
    35
  9
$PDSIZE
 40
0.133333
  0
ENDSEC
  0
SECTION
  2
TABLES
  0
TABLE
  2
LTYPE
 70
     9
  0
LTYPE
  2
CONTINUOUS
 70
    64
  3
Solid line
 72
    65
 73
     0
 40
0.000000
  0
LTYPE
  2
DASHED
 70
    64
  3
__ __ __ __ __ __ __ __ __ __ __ __ __ __ __
 72
    65
 73
     2
 40
0.001250
 49
0.000833
 49
-0.000417
  0
LTYPE
  2
HIDDEN
 70
    64
  3
 _ _ _ _ _ _ _ _ _ _ _ _ _ _ _ _ _ _ _ _ _ _
 72
    65
 73
     2
 40
0.000625
 49
0.000417
 49
-0.000208
  0
LTYPE
  2
CENTER
 70
    64
  3
____ _ ____ _ ____ _ ____ _ ____ _ ____ _ ____
 72
    65
 73
     4
 40
0.003333
 49
0.002083
 49
-0.000417
 49
0.000417
 49
-0.000417
  0
LTYPE
  2
PHANTOM
 70
    64
  3
_____ _ _ _____ _ _ _____ _ _ _____ _ _ ____
 72
    65
 73
     6
 40
0.004167
 49
0.002083
 49
-0.000417
 49
0.000417
 49
-0.000417
 49
0.000417
 49
-0.000417
  0
LTYPE
  2
DOT
 70
    64
  3
...............................................
 72
    65
 73
     2
 40
0.000417
 49
0.000000
 49
-0.000417
  0
LTYPE
  2
DASHDOT
 70
    64
  3
__ . __ . __ . __ . __ . __ . __ . __ . __ . __
 72
    65
 73
     4
 40
0.001667
 49
0.000833
 49
-0.000417
 49
0.000000
 49
-0.000417
  0
LTYPE
  2
BORDER
 70
    64
  3
__ __ . __ __ . __ __ . __ __ . __ __ . __ __
 72
    65
 73
     6
 40
0.002917
 49
0.000833
 49
-0.000417
 49
0.000833
 49
-0.000417
 49
0.000000
 49
-0.000417
  0
LTYPE
  2
DIVIDE
 70
    64
  3
__ . . __ . . __ . . __ . . __ . . __ . . __
 72
    65
 73
     6
 40
0.002083
 49
0.000833
 49
-0.000417
 49
0.000000
 49
-0.000417
 49
0.000000
 49
-0.000417
  0
LTYPE
  2
DOTDOT
 70
    64
  3
 . .  . .  . .  . .  . .  . . 
 72
    65
 73
     5
 40
0.000917
 49
-0.000417
 49
0.000000
 49
-0.000417
 49
0.000000
 49
-0.000417
  0
ENDTAB
  0
TABLE
  2
STYLE
 70
     2
  0
STYLE
 70
     0
  2
SN0
 40
0.000000
 41
0.001667
 50
0.000000
 71
     0
 42
0.000000
  3
ROMAND
  0
STYLE
 70
    68
  2
SV0
 40
0.000000
 41
0.001667
 50
0.000000
 71
     0
 42
0.000000
  3
ROMAND
  0
ENDTAB
  0
TABLE
  2
LAYER
 70
     2
  0
LAYER
  2
FOREGROUND
 70
    64
 62
     7
  6
CONTINUOUS
  0
LAYER
  2
BACKGROUND
 70
    65
 62
    -7
  6
CONTINUOUS
  0
ENDTAB
  0
ENDSEC
  0
SECTION
  2
ENTITIES
  0
POLYLINE
  8
FOREGROUND
  6
CONTINUOUS
 66
     1
 40
0.010000
 41
0.010000
 70
     1
  0
VERTEX
  8
FOREGROUND
  6
CONTINUOUS
 10
1.830000
 20
0.050000
  0
VERTEX
  8
FOREGROUND
  6
CONTINUOUS
 10
1.843541
 20
0.050163
  0
VERTEX
  8
FOREGROUND
  6
CONTINUOUS
 10
1.857006
 20
0.050628
  0
VERTEX
  8
FOREGROUND
  6
CONTINUOUS
 10
1.870394
 20
0.051391
  0
VERTEX
  8
FOREGROUND
  6
CONTINUOUS
 10
1.883700
 20
0.052450
  0
VERTEX
  8
FOREGROUND
  6
CONTINUOUS
 10
1.896921
 20
0.053801
  0
VERTEX
  8
FOREGROUND
  6
CONTINUOUS
 10
1.910055
 20
0.055441
  0
VERTEX
  8
FOREGROUND
  6
CONTINUOUS
 10
1.923097
 20
0.057366
  0
VERTEX
  8
FOREGROUND
  6
CONTINUOUS
 10
1.936045
 20
0.059574
  0
VERTEX
  8
FOREGROUND
  6
CONTINUOUS
 10
1.948895
 20
0.062061
  0
VERTEX
  8
FOREGROUND
  6
CONTINUOUS
 10
1.961644
 20
0.064824
  0
VERTEX
  8
FOREGROUND
  6
CONTINUOUS
 10
1.974289
 20
0.067860
  0
VERTEX
  8
FOREGROUND
  6
CONTINUOUS
 10
1.986827
 20
0.071165
  0
VERTEX
  8
FOREGROUND
  6
CONTINUOUS
 10
1.999255
 20
0.074737
  0
VERTEX
  8
FOREGROUND
  6
CONTINUOUS
 10
2.011568
 20
0.078572
  0
VERTEX
  8
FOREGROUND
  6
CONTINUOUS
 10
2.023764
 20
0.082666
  0
VERTEX
  8
FOREGROUND
  6
CONTINUOUS
 10
2.035840
 20
0.087017
  0
VERTEX
  8
FOREGROUND
  6
CONTINUOUS
 10
2.047793
 20
0.091621
  0
VERTEX
  8
FOREGROUND
  6
CONTINUOUS
 10
2.059618
 20
0.096475
  0
VERTEX
  8
FOREGROUND
  6
CONTINUOUS
 10
2.071314
 20
0.101575
  0
VERTEX
  8
FOREGROUND
  6
CONTINUOUS
 10
2.082876
 20
0.106920
  0
VERTEX
  8
FOREGROUND
  6
CONTINUOUS
 10
2.094301
 20
0.112504
  0
VERTEX
  8
FOREGROUND
  6
CONTINUOUS
 10
2.105587
 20
0.118326
  0
VERTEX
  8
FOREGROUND
  6
CONTINUOUS
 10
2.116730
 20
0.124382
  0
VERTEX
  8
FOREGROUND
  6
CONTINUOUS
 10
2.127727
 20
0.130668
  0
VERTEX
  8
FOREGROUND
  6
CONTINUOUS
 10
2.138574
 20
0.137181
  0
VERTEX
  8
FOREGROUND
  6
CONTINUOUS
 10
2.149268
 20
0.143918
  0
VERTEX
  8
FOREGROUND
  6
CONTINUOUS
 10
2.159806
 20
0.150877
  0
VERTEX
  8
FOREGROUND
  6
CONTINUOUS
 10
2.170185
 20
0.158053
  0
VERTEX
  8
FOREGROUND
  6
CONTINUOUS
 10
2.180402
 20
0.165443
  0
VERTEX
  8
FOREGROUND
  6
CONTINUOUS
 10
2.190453
 20
0.173044
  0
VERTEX
  8
FOREGROUND
  6
CONTINUOUS
 10
2.200334
 20
0.180854
  0
VERTEX
  8
FOREGROUND
  6
CONTINUOUS
 10
2.210044
 20
0.188867
  0
VERTEX
  8
FOREGROUND
  6
CONTINUOUS
 10
2.219578
 20
0.197083
  0
VERTEX
  8
FOREGROUND
  6
CONTINUOUS
 10
2.228934
 20
0.205496
  0
VERTEX
  8
FOREGROUND
  6
CONTINUOUS
 10
2.238107
 20
0.214104
  0
VERTEX
  8
FOREGROUND
  6
CONTINUOUS
 10
2.247096
 20
0.222904
  0
VERTEX
  8
FOREGROUND
  6
CONTINUOUS
 10
2.255896
 20
0.231893
  0
VERTEX
  8
FOREGROUND
  6
CONTINUOUS
 10
2.264504
 20
0.241066
  0
VERTEX
  8
FOREGROUND
  6
CONTINUOUS
 10
2.272917
 20
0.250422
  0
VERTEX
  8
FOREGROUND
  6
CONTINUOUS
 10
2.281133
 20
0.259956
  0
VERTEX
  8
FOREGROUND
  6
CONTINUOUS
 10
2.289146
 20
0.269666
  0
VERTEX
  8
FOREGROUND
  6
CONTINUOUS
 10
2.296956
 20
0.279547
  0
VERTEX
  8
FOREGROUND
  6
CONTINUOUS
 10
2.304557
 20
0.289598
  0
VERTEX
  8
FOREGROUND
  6
CONTINUOUS
 10
2.311947
 20
0.299815
  0
VERTEX
  8
FOREGROUND
  6
CONTINUOUS
 10
2.319123
 20
0.310194
  0
VERTEX
  8
FOREGROUND
  6
CONTINUOUS
 10
2.326082
 20
0.320732
  0
VERTEX
  8
FOREGROUND
  6
CONTINUOUS
 10
2.332819
 20
0.331426
  0
VERTEX
  8
FOREGROUND
  6
CONTINUOUS
 10
2.339332
 20
0.342273
  0
VERTEX
  8
FOREGROUND
  6
CONTINUOUS
 10
2.345618
 20
0.353270
  0
VERTEX
  8
FOREGROUND
  6
CONTINUOUS
 10
2.351674
 20
0.364413
  0
VERTEX
  8
FOREGROUND
  6
CONTINUOUS
 10
2.357496
 20
0.375699
  0
VERTEX
  8
FOREGROUND
  6
CONTINUOUS
 10
2.363080
 20
0.387124
  0
VERTEX
  8
FOREGROUND
  6
CONTINUOUS
 10
2.368425
 20
0.398686
  0
VERTEX
  8
FOREGROUND
  6
CONTINUOUS
 10
2.373525
 20
0.410382
  0
VERTEX
  8
FOREGROUND
  6
CONTINUOUS
 10
2.378379
 20
0.422207
  0
VERTEX
  8
FOREGROUND
  6
CONTINUOUS
 10
2.382983
 20
0.434160
  0
VERTEX
  8
FOREGROUND
  6
CONTINUOUS
 10
2.387334
 20
0.446236
  0
VERTEX
  8
FOREGROUND
  6
CONTINUOUS
 10
2.391428
 20
0.458432
  0
VERTEX
  8
FOREGROUND
  6
CONTINUOUS
 10
2.395263
 20
0.470745
  0
VERTEX
  8
FOREGROUND
  6
CONTINUOUS
 10
2.398835
 20
0.483173
  0
VERTEX
  8
FOREGROUND
  6
CONTINUOUS
 10
2.402140
 20
0.495711
  0
VERTEX
  8
FOREGROUND
  6
CONTINUOUS
 10
2.405176
 20
0.508356
  0
VERTEX
  8
FOREGROUND
  6
CONTINUOUS
 10
2.407939
 20
0.521105
  0
VERTEX
  8
FOREGROUND
  6
CONTINUOUS
 10
2.410426
 20
0.533955
  0
VERTEX
  8
FOREGROUND
  6
CONTINUOUS
 10
2.412634
 20
0.546903
  0
VERTEX
  8
FOREGROUND
  6
CONTINUOUS
 10
2.414559
 20
0.559945
  0
VERTEX
  8
FOREGROUND
  6
CONTINUOUS
 10
2.416199
 20
0.573079
  0
VERTEX
  8
FOREGROUND
  6
CONTINUOUS
 10
2.417550
 20
0.586300
  0
VERTEX
  8
FOREGROUND
  6
CONTINUOUS
 10
2.418609
 20
0.599606
  0
VERTEX
  8
FOREGROUND
  6
CONTINUOUS
 10
2.419372
 20
0.612994
  0
VERTEX
  8
FOREGROUND
  6
CONTINUOUS
 10
2.419837
 20
0.626459
  0
VERTEX
  8
FOREGROUND
  6
CONTINUOUS
 10
2.420000
 20
0.640000
  0
VERTEX
  8
FOREGROUND
  6
CONTINUOUS
 10
2.420000
 20
0.640000
  0
VERTEX
  8
FOREGROUND
  6
CONTINUOUS
 10
2.419837
 20
0.653542
  0
VERTEX
  8
FOREGROUND
  6
CONTINUOUS
 10
2.419372
 20
0.667010
  0
VERTEX
  8
FOREGROUND
  6
CONTINUOUS
 10
2.418609
 20
0.680399
  0
VERTEX
  8
FOREGROUND
  6
CONTINUOUS
 10
2.417550
 20
0.693707
  0
VERTEX
  8
FOREGROUND
  6
CONTINUOUS
 10
2.416198
 20
0.706930
  0
VERTEX
  8
FOREGROUND
  6
CONTINUOUS
 10
2.414558
 20
0.720065
  0
VERTEX
  8
FOREGROUND
  6
CONTINUOUS
 10
2.412632
 20
0.733108
  0
VERTEX
  8
FOREGROUND
  6
CONTINUOUS
 10
2.410424
 20
0.746058
  0
VERTEX
  8
FOREGROUND
  6
CONTINUOUS
 10
2.407936
 20
0.758910
  0
VERTEX
  8
FOREGROUND
  6
CONTINUOUS
 10
2.405172
 20
0.771660
  0
VERTEX
  8
FOREGROUND
  6
CONTINUOUS
 10
2.402135
 20
0.784307
  0
VERTEX
  8
FOREGROUND
  6
CONTINUOUS
 10
2.398829
 20
0.796846
  0
VERTEX
  8
FOREGROUND
  6
CONTINUOUS
 10
2.395257
 20
0.809275
  0
VERTEX
  8
FOREGROUND
  6
CONTINUOUS
 10
2.391422
 20
0.821590
  0
VERTEX
  8
FOREGROUND
  6
CONTINUOUS
 10
2.387326
 20
0.833787
  0
VERTEX
  8
FOREGROUND
  6
CONTINUOUS
 10
2.382975
 20
0.845864
  0
VERTEX
  8
FOREGROUND
  6
CONTINUOUS
 10
2.378369
 20
0.857818
  0
VERTEX
  8
FOREGROUND
  6
CONTINUOUS
 10
2.373514
 20
0.869645
  0
VERTEX
  8
FOREGROUND
  6
CONTINUOUS
 10
2.368412
 20
0.881341
  0
VERTEX
  8
FOREGROUND
  6
CONTINUOUS
 10
2.363067
 20
0.892904
  0
VERTEX
  8
FOREGROUND
  6
CONTINUOUS
 10
2.357481
 20
0.904331
  0
VERTEX
  8
FOREGROUND
  6
CONTINUOUS
 10
2.351658
 20
0.915618
  0
VERTEX
  8
FOREGROUND
  6
CONTINUOUS
 10
2.345601
 20
0.926762
  0
VERTEX
  8
FOREGROUND
  6
CONTINUOUS
 10
2.339313
 20
0.937759
  0
VERTEX
  8
FOREGROUND
  6
CONTINUOUS
 10
2.332799
 20
0.948607
  0
VERTEX
  8
FOREGROUND
  6
CONTINUOUS
 10
2.326060
 20
0.959302
  0
VERTEX
  8
FOREGROUND
  6
CONTINUOUS
 10
2.319100
 20
0.969841
  0
VERTEX
  8
FOREGROUND
  6
CONTINUOUS
 10
2.311922
 20
0.980221
  0
VERTEX
  8
FOREGROUND
  6
CONTINUOUS
 10
2.304531
 20
0.990438
  0
VERTEX
  8
FOREGROUND
  6
CONTINUOUS
 10
2.296928
 20
1.000489
  0
VERTEX
  8
FOREGROUND
  6
CONTINUOUS
 10
2.289117
 20
1.010371
  0
VERTEX
  8
FOREGROUND
  6
CONTINUOUS
 10
2.281101
 20
1.020081
  0
VERTEX
  8
FOREGROUND
  6
CONTINUOUS
 10
2.272884
 20
1.029616
  0
VERTEX
  8
FOREGROUND
  6
CONTINUOUS
 10
2.264469
 20
1.038972
  0
VERTEX
  8
FOREGROUND
  6
CONTINUOUS
 10
2.255859
 20
1.048146
  0
VERTEX
  8
FOREGROUND
  6
CONTINUOUS
 10
2.247057
 20
1.057134
  0
VERTEX
  8
FOREGROUND
  6
CONTINUOUS
 10
2.238067
 20
1.065934
  0
VERTEX
  8
FOREGROUND
  6
CONTINUOUS
 10
2.228891
 20
1.074543
  0
VERTEX
  8
FOREGROUND
  6
CONTINUOUS
 10
2.219534
 20
1.082956
  0
VERTEX
  8
FOREGROUND
  6
CONTINUOUS
 10
2.209998
 20
1.091171
  0
VERTEX
  8
FOREGROUND
  6
CONTINUOUS
 10
2.200286
 20
1.099185
  0
VERTEX
  8
FOREGROUND
  6
CONTINUOUS
 10
2.190402
 20
1.106994
  0
VERTEX
  8
FOREGROUND
  6
CONTINUOUS
 10
2.180350
 20
1.114595
  0
VERTEX
  8
FOREGROUND
  6
CONTINUOUS
 10
2.170131
 20
1.121985
  0
VERTEX
  8
FOREGROUND
  6
CONTINUOUS
 10
2.159750
 20
1.129161
  0
VERTEX
  8
FOREGROUND
  6
CONTINUOUS
 10
2.149210
 20
1.136119
  0
VERTEX
  8
FOREGROUND
  6
CONTINUOUS
 10
2.138514
 20
1.142856
  0
VERTEX
  8
FOREGROUND
  6
CONTINUOUS
 10
2.127665
 20
1.149369
  0
VERTEX
  8
FOREGROUND
  6
CONTINUOUS
 10
2.116666
 20
1.155654
  0
VERTEX
  8
FOREGROUND
  6
CONTINUOUS
 10
2.105521
 20
1.161709
  0
VERTEX
  8
FOREGROUND
  6
CONTINUOUS
 10
2.094233
 20
1.167530
  0
VERTEX
  8
FOREGROUND
  6
CONTINUOUS
 10
2.082806
 20
1.173114
  0
VERTEX
  8
FOREGROUND
  6
CONTINUOUS
 10
2.071241
 20
1.178457
  0
VERTEX
  8
FOREGROUND
  6
CONTINUOUS
 10
2.059544
 20
1.183557
  0
VERTEX
  8
FOREGROUND
  6
CONTINUOUS
 10
2.047716
 20
1.188410
  0
VERTEX
  8
FOREGROUND
  6
CONTINUOUS
 10
2.035762
 20
1.193013
  0
VERTEX
  8
FOREGROUND
  6
CONTINUOUS
 10
2.023684
 20
1.197362
  0
VERTEX
  8
FOREGROUND
  6
CONTINUOUS
 10
2.011486
 20
1.201455
  0
VERTEX
  8
FOREGROUND
  6
CONTINUOUS
 10
1.999170
 20
1.205288
  0
VERTEX
  8
FOREGROUND
  6
CONTINUOUS
 10
1.986741
 20
1.208858
  0
VERTEX
  8
FOREGROUND
  6
CONTINUOUS
 10
1.974201
 20
1.212162
  0
VERTEX
  8
FOREGROUND
  6
CONTINUOUS
 10
1.961554
 20
1.215196
  0
VERTEX
  8
FOREGROUND
  6
CONTINUOUS
 10
1.948803
 20
1.217958
  0
VERTEX
  8
FOREGROUND
  6
CONTINUOUS
 10
1.935950
 20
1.220443
  0
VERTEX
  8
FOREGROUND
  6
CONTINUOUS
 10
1.923001
 20
1.222649
  0
VERTEX
  8
FOREGROUND
  6
CONTINUOUS
 10
1.909956
 20
1.224573
  0
VERTEX
  8
FOREGROUND
  6
CONTINUOUS
 10
1.896821
 20
1.226211
  0
VERTEX
  8
FOREGROUND
  6
CONTINUOUS
 10
1.883598
 20
1.227560
  0
VERTEX
  8
FOREGROUND
  6
CONTINUOUS
 10
1.870290
 20
1.228616
  0
VERTEX
  8
FOREGROUND
  6
CONTINUOUS
 10
1.856901
 20
1.229377
  0
VERTEX
  8
FOREGROUND
  6
CONTINUOUS
 10
1.843433
 20
1.229840
  0
VERTEX
  8
FOREGROUND
  6
CONTINUOUS
 10
1.829891
 20
1.230000
  0
VERTEX
  8
FOREGROUND
  6
CONTINUOUS
 10
0.639891
 20
1.230000
  0
VERTEX
  8
FOREGROUND
  6
CONTINUOUS
 10
0.626352
 20
1.229835
  0
VERTEX
  8
FOREGROUND
  6
CONTINUOUS
 10
0.612888
 20
1.229368
  0
VERTEX
  8
FOREGROUND
  6
CONTINUOUS
 10
0.599502
 20
1.228602
  0
VERTEX
  8
FOREGROUND
  6
CONTINUOUS
 10
0.586198
 20
1.227541
  0
VERTEX
  8
FOREGROUND
  6
CONTINUOUS
 10
0.572979
 20
1.226188
  0
VERTEX
  8
FOREGROUND
  6
CONTINUOUS
 10
0.559847
 20
1.224546
  0
VERTEX
  8
FOREGROUND
  6
CONTINUOUS
 10
0.546807
 20
1.222618
  0
VERTEX
  8
FOREGROUND
  6
CONTINUOUS
 10
0.533861
 20
1.220409
  0
VERTEX
  8
FOREGROUND
  6
CONTINUOUS
 10
0.521013
 20
1.217920
  0
VERTEX
  8
FOREGROUND
  6
CONTINUOUS
 10
0.508265
 20
1.215155
  0
VERTEX
  8
FOREGROUND
  6
CONTINUOUS
 10
0.495622
 20
1.212117
  0
VERTEX
  8
FOREGROUND
  6
CONTINUOUS
 10
0.483086
 20
1.208811
  0
VERTEX
  8
FOREGROUND
  6
CONTINUOUS
 10
0.470661
 20
1.205238
  0
VERTEX
  8
FOREGROUND
  6
CONTINUOUS
 10
0.458350
 20
1.201402
  0
VERTEX
  8
FOREGROUND
  6
CONTINUOUS
 10
0.446155
 20
1.197306
  0
VERTEX
  8
FOREGROUND
  6
CONTINUOUS
 10
0.434082
 20
1.192954
  0
VERTEX
  8
FOREGROUND
  6
CONTINUOUS
 10
0.422131
 20
1.188349
  0
VERTEX
  8
FOREGROUND
  6
CONTINUOUS
 10
0.410308
 20
1.183494
  0
VERTEX
  8
FOREGROUND
  6
CONTINUOUS
 10
0.398614
 20
1.178392
  0
VERTEX
  8
FOREGROUND
  6
CONTINUOUS
 10
0.387054
 20
1.173047
  0
VERTEX
  8
FOREGROUND
  6
CONTINUOUS
 10
0.375631
 20
1.167461
  0
VERTEX
  8
FOREGROUND
  6
CONTINUOUS
 10
0.364347
 20
1.161639
  0
VERTEX
  8
FOREGROUND
  6
CONTINUOUS
 10
0.353206
 20
1.155583
  0
VERTEX
  8
FOREGROUND
  6
CONTINUOUS
 10
0.342211
 20
1.149296
  0
VERTEX
  8
FOREGROUND
  6
CONTINUOUS
 10
0.331366
 20
1.142782
  0
VERTEX
  8
FOREGROUND
  6
CONTINUOUS
 10
0.320674
 20
1.136044
  0
VERTEX
  8
FOREGROUND
  6
CONTINUOUS
 10
0.310138
 20
1.129085
  0
VERTEX
  8
FOREGROUND
  6
CONTINUOUS
 10
0.299761
 20
1.121909
  0
VERTEX
  8
FOREGROUND
  6
CONTINUOUS
 10
0.289546
 20
1.114519
  0
VERTEX
  8
FOREGROUND
  6
CONTINUOUS
 10
0.279497
 20
1.106917
  0
VERTEX
  8
FOREGROUND
  6
CONTINUOUS
 10
0.269618
 20
1.099108
  0
VERTEX
  8
FOREGROUND
  6
CONTINUOUS
 10
0.259910
 20
1.091094
  0
VERTEX
  8
FOREGROUND
  6
CONTINUOUS
 10
0.250378
 20
1.082878
  0
VERTEX
  8
FOREGROUND
  6
CONTINUOUS
 10
0.241024
 20
1.074465
  0
VERTEX
  8
FOREGROUND
  6
CONTINUOUS
 10
0.231852
 20
1.065857
  0
VERTEX
  8
FOREGROUND
  6
CONTINUOUS
 10
0.222866
 20
1.057057
  0
VERTEX
  8
FOREGROUND
  6
CONTINUOUS
 10
0.214068
 20
1.048069
  0
VERTEX
  8
FOREGROUND
  6
CONTINUOUS
 10
0.205461
 20
1.038896
  0
VERTEX
  8
FOREGROUND
  6
CONTINUOUS
 10
0.197049
 20
1.029540
  0
VERTEX
  8
FOREGROUND
  6
CONTINUOUS
 10
0.188836
 20
1.020007
  0
VERTEX
  8
FOREGROUND
  6
CONTINUOUS
 10
0.180824
 20
1.010297
  0
VERTEX
  8
FOREGROUND
  6
CONTINUOUS
 10
0.173016
 20
1.000416
  0
VERTEX
  8
FOREGROUND
  6
CONTINUOUS
 10
0.165416
 20
0.990366
  0
VERTEX
  8
FOREGROUND
  6
CONTINUOUS
 10
0.158028
 20
0.980150
  0
VERTEX
  8
FOREGROUND
  6
CONTINUOUS
 10
0.150853
 20
0.969771
  0
VERTEX
  8
FOREGROUND
  6
CONTINUOUS
 10
0.143897
 20
0.959234
  0
VERTEX
  8
FOREGROUND
  6
CONTINUOUS
 10
0.137161
 20
0.948540
  0
VERTEX
  8
FOREGROUND
  6
CONTINUOUS
 10
0.130649
 20
0.937694
  0
VERTEX
  8
FOREGROUND
  6
CONTINUOUS
 10
0.124364
 20
0.926699
  0
VERTEX
  8
FOREGROUND
  6
CONTINUOUS
 10
0.118310
 20
0.915557
  0
VERTEX
  8
FOREGROUND
  6
CONTINUOUS
 10
0.112490
 20
0.904272
  0
VERTEX
  8
FOREGROUND
  6
CONTINUOUS
 10
0.106906
 20
0.892847
  0
VERTEX
  8
FOREGROUND
  6
CONTINUOUS
 10
0.101563
 20
0.881286
  0
VERTEX
  8
FOREGROUND
  6
CONTINUOUS
 10
0.096464
 20
0.869592
  0
VERTEX
  8
FOREGROUND
  6
CONTINUOUS
 10
0.091611
 20
0.857767
  0
VERTEX
  8
FOREGROUND
  6
CONTINUOUS
 10
0.087008
 20
0.845816
  0
VERTEX
  8
FOREGROUND
  6
CONTINUOUS
 10
0.082658
 20
0.833741
  0
VERTEX
  8
FOREGROUND
  6
CONTINUOUS
 10
0.078565
 20
0.821546
  0
VERTEX
  8
FOREGROUND
  6
CONTINUOUS
 10
0.074731
 20
0.809234
  0
VERTEX
  8
FOREGROUND
  6
CONTINUOUS
 10
0.071160
 20
0.796808
  0
VERTEX
  8
FOREGROUND
  6
CONTINUOUS
 10
0.067856
 20
0.784272
  0
VERTEX
  8
FOREGROUND
  6
CONTINUOUS
 10
0.064821
 20
0.771628
  0
VERTEX
  8
FOREGROUND
  6
CONTINUOUS
 10
0.062058
 20
0.758880
  0
VERTEX
  8
FOREGROUND
  6
CONTINUOUS
 10
0.059572
 20
0.746031
  0
VERTEX
  8
FOREGROUND
  6
CONTINUOUS
 10
0.057364
 20
0.733085
  0
VERTEX
  8
FOREGROUND
  6
CONTINUOUS
 10
0.055439
 20
0.720044
  0
VERTEX
  8
FOREGROUND
  6
CONTINUOUS
 10
0.053800
 20
0.706913
  0
VERTEX
  8
FOREGROUND
  6
CONTINUOUS
 10
0.052449
 20
0.693693
  0
VERTEX
  8
FOREGROUND
  6
CONTINUOUS
 10
0.051391
 20
0.680389
  0
VERTEX
  8
FOREGROUND
  6
CONTINUOUS
 10
0.050627
 20
0.667003
  0
VERTEX
  8
FOREGROUND
  6
CONTINUOUS
 10
0.050163
 20
0.653539
  0
VERTEX
  8
FOREGROUND
  6
CONTINUOUS
 10
0.050000
 20
0.640000
  0
VERTEX
  8
FOREGROUND
  6
CONTINUOUS
 10
0.050000
 20
0.640000
  0
VERTEX
  8
FOREGROUND
  6
CONTINUOUS
 10
0.050163
 20
0.626459
  0
VERTEX
  8
FOREGROUND
  6
CONTINUOUS
 10
0.050628
 20
0.612994
  0
VERTEX
  8
FOREGROUND
  6
CONTINUOUS
 10
0.051391
 20
0.599606
  0
VERTEX
  8
FOREGROUND
  6
CONTINUOUS
 10
0.052450
 20
0.586300
  0
VERTEX
  8
FOREGROUND
  6
CONTINUOUS
 10
0.053801
 20
0.573079
  0
VERTEX
  8
FOREGROUND
  6
CONTINUOUS
 10
0.055441
 20
0.559945
  0
VERTEX
  8
FOREGROUND
  6
CONTINUOUS
 10
0.057366
 20
0.546903
  0
VERTEX
  8
FOREGROUND
  6
CONTINUOUS
 10
0.059574
 20
0.533955
  0
VERTEX
  8
FOREGROUND
  6
CONTINUOUS
 10
0.062061
 20
0.521105
  0
VERTEX
  8
FOREGROUND
  6
CONTINUOUS
 10
0.064824
 20
0.508356
  0
VERTEX
  8
FOREGROUND
  6
CONTINUOUS
 10
0.067860
 20
0.495711
  0
VERTEX
  8
FOREGROUND
  6
CONTINUOUS
 10
0.071165
 20
0.483173
  0
VERTEX
  8
FOREGROUND
  6
CONTINUOUS
 10
0.074737
 20
0.470745
  0
VERTEX
  8
FOREGROUND
  6
CONTINUOUS
 10
0.078572
 20
0.458432
  0
VERTEX
  8
FOREGROUND
  6
CONTINUOUS
 10
0.082666
 20
0.446236
  0
VERTEX
  8
FOREGROUND
  6
CONTINUOUS
 10
0.087017
 20
0.434160
  0
VERTEX
  8
FOREGROUND
  6
CONTINUOUS
 10
0.091621
 20
0.422207
  0
VERTEX
  8
FOREGROUND
  6
CONTINUOUS
 10
0.096475
 20
0.410382
  0
VERTEX
  8
FOREGROUND
  6
CONTINUOUS
 10
0.101575
 20
0.398686
  0
VERTEX
  8
FOREGROUND
  6
CONTINUOUS
 10
0.106920
 20
0.387124
  0
VERTEX
  8
FOREGROUND
  6
CONTINUOUS
 10
0.112504
 20
0.375699
  0
VERTEX
  8
FOREGROUND
  6
CONTINUOUS
 10
0.118326
 20
0.364413
  0
VERTEX
  8
FOREGROUND
  6
CONTINUOUS
 10
0.124382
 20
0.353270
  0
VERTEX
  8
FOREGROUND
  6
CONTINUOUS
 10
0.130668
 20
0.342273
  0
VERTEX
  8
FOREGROUND
  6
CONTINUOUS
 10
0.137181
 20
0.331426
  0
VERTEX
  8
FOREGROUND
  6
CONTINUOUS
 10
0.143918
 20
0.320732
  0
VERTEX
  8
FOREGROUND
  6
CONTINUOUS
 10
0.150877
 20
0.310194
  0
VERTEX
  8
FOREGROUND
  6
CONTINUOUS
 10
0.158053
 20
0.299815
  0
VERTEX
  8
FOREGROUND
  6
CONTINUOUS
 10
0.165443
 20
0.289598
  0
VERTEX
  8
FOREGROUND
  6
CONTINUOUS
 10
0.173044
 20
0.279547
  0
VERTEX
  8
FOREGROUND
  6
CONTINUOUS
 10
0.180854
 20
0.269666
  0
VERTEX
  8
FOREGROUND
  6
CONTINUOUS
 10
0.188867
 20
0.259956
  0
VERTEX
  8
FOREGROUND
  6
CONTINUOUS
 10
0.197083
 20
0.250422
  0
VERTEX
  8
FOREGROUND
  6
CONTINUOUS
 10
0.205496
 20
0.241066
  0
VERTEX
  8
FOREGROUND
  6
CONTINUOUS
 10
0.214104
 20
0.231893
  0
VERTEX
  8
FOREGROUND
  6
CONTINUOUS
 10
0.222904
 20
0.222904
  0
VERTEX
  8
FOREGROUND
  6
CONTINUOUS
 10
0.231893
 20
0.214104
  0
VERTEX
  8
FOREGROUND
  6
CONTINUOUS
 10
0.241066
 20
0.205496
  0
VERTEX
  8
FOREGROUND
  6
CONTINUOUS
 10
0.250422
 20
0.197083
  0
VERTEX
  8
FOREGROUND
  6
CONTINUOUS
 10
0.259956
 20
0.188867
  0
VERTEX
  8
FOREGROUND
  6
CONTINUOUS
 10
0.269666
 20
0.180854
  0
VERTEX
  8
FOREGROUND
  6
CONTINUOUS
 10
0.279547
 20
0.173044
  0
VERTEX
  8
FOREGROUND
  6
CONTINUOUS
 10
0.289598
 20
0.165443
  0
VERTEX
  8
FOREGROUND
  6
CONTINUOUS
 10
0.299815
 20
0.158053
  0
VERTEX
  8
FOREGROUND
  6
CONTINUOUS
 10
0.310194
 20
0.150877
  0
VERTEX
  8
FOREGROUND
  6
CONTINUOUS
 10
0.320732
 20
0.143918
  0
VERTEX
  8
FOREGROUND
  6
CONTINUOUS
 10
0.331426
 20
0.137181
  0
VERTEX
  8
FOREGROUND
  6
CONTINUOUS
 10
0.342273
 20
0.130668
  0
VERTEX
  8
FOREGROUND
  6
CONTINUOUS
 10
0.353270
 20
0.124382
  0
VERTEX
  8
FOREGROUND
  6
CONTINUOUS
 10
0.364413
 20
0.118326
  0
VERTEX
  8
FOREGROUND
  6
CONTINUOUS
 10
0.375699
 20
0.112504
  0
VERTEX
  8
FOREGROUND
  6
CONTINUOUS
 10
0.387124
 20
0.106920
  0
VERTEX
  8
FOREGROUND
  6
CONTINUOUS
 10
0.398686
 20
0.101575
  0
VERTEX
  8
FOREGROUND
  6
CONTINUOUS
 10
0.410382
 20
0.096475
  0
VERTEX
  8
FOREGROUND
  6
CONTINUOUS
 10
0.422207
 20
0.091621
  0
VERTEX
  8
FOREGROUND
  6
CONTINUOUS
 10
0.434160
 20
0.087017
  0
VERTEX
  8
FOREGROUND
  6
CONTINUOUS
 10
0.446236
 20
0.082666
  0
VERTEX
  8
FOREGROUND
  6
CONTINUOUS
 10
0.458432
 20
0.078572
  0
VERTEX
  8
FOREGROUND
  6
CONTINUOUS
 10
0.470745
 20
0.074737
  0
VERTEX
  8
FOREGROUND
  6
CONTINUOUS
 10
0.483173
 20
0.071165
  0
VERTEX
  8
FOREGROUND
  6
CONTINUOUS
 10
0.495711
 20
0.067860
  0
VERTEX
  8
FOREGROUND
  6
CONTINUOUS
 10
0.508356
 20
0.064824
  0
VERTEX
  8
FOREGROUND
  6
CONTINUOUS
 10
0.521105
 20
0.062061
  0
VERTEX
  8
FOREGROUND
  6
CONTINUOUS
 10
0.533955
 20
0.059574
  0
VERTEX
  8
FOREGROUND
  6
CONTINUOUS
 10
0.546903
 20
0.057366
  0
VERTEX
  8
FOREGROUND
  6
CONTINUOUS
 10
0.559945
 20
0.055441
  0
VERTEX
  8
FOREGROUND
  6
CONTINUOUS
 10
0.573079
 20
0.053801
  0
VERTEX
  8
FOREGROUND
  6
CONTINUOUS
 10
0.586300
 20
0.052450
  0
VERTEX
  8
FOREGROUND
  6
CONTINUOUS
 10
0.599606
 20
0.051391
  0
VERTEX
  8
FOREGROUND
  6
CONTINUOUS
 10
0.612994
 20
0.050628
  0
VERTEX
  8
FOREGROUND
  6
CONTINUOUS
 10
0.626459
 20
0.050163
  0
VERTEX
  8
FOREGROUND
  6
CONTINUOUS
 10
0.640000
 20
0.050000
  0
SEQEND
  8
0
  0
ENDSEC
  0
EOF
