  0
SECTION
  2
HEADER
  9
$ACADVER
  1
AC1006
  9
$EXTMIN
 10
0.000000
 20
0.000000
  9
$EXTMAX
 10
2.470000
 20
1.476667
  9
$LTSCALE
 40
0.166667
  9
$PDMODE
 70
    35
  9
$PDSIZE
 40
0.133333
  0
ENDSEC
  0
SECTION
  2
TABLES
  0
TABLE
  2
LTYPE
 70
     9
  0
LTYPE
  2
CONTINUOUS
 70
    64
  3
Solid line
 72
    65
 73
     0
 40
0.000000
  0
LTYPE
  2
DASHED
 70
    64
  3
__ __ __ __ __ __ __ __ __ __ __ __ __ __ __
 72
    65
 73
     2
 40
0.001250
 49
0.000833
 49
-0.000417
  0
LTYPE
  2
HIDDEN
 70
    64
  3
 _ _ _ _ _ _ _ _ _ _ _ _ _ _ _ _ _ _ _ _ _ _
 72
    65
 73
     2
 40
0.000625
 49
0.000417
 49
-0.000208
  0
LTYPE
  2
CENTER
 70
    64
  3
____ _ ____ _ ____ _ ____ _ ____ _ ____ _ ____
 72
    65
 73
     4
 40
0.003333
 49
0.002083
 49
-0.000417
 49
0.000417
 49
-0.000417
  0
LTYPE
  2
PHANTOM
 70
    64
  3
_____ _ _ _____ _ _ _____ _ _ _____ _ _ ____
 72
    65
 73
     6
 40
0.004167
 49
0.002083
 49
-0.000417
 49
0.000417
 49
-0.000417
 49
0.000417
 49
-0.000417
  0
LTYPE
  2
DOT
 70
    64
  3
...............................................
 72
    65
 73
     2
 40
0.000417
 49
0.000000
 49
-0.000417
  0
LTYPE
  2
DASHDOT
 70
    64
  3
__ . __ . __ . __ . __ . __ . __ . __ . __ . __
 72
    65
 73
     4
 40
0.001667
 49
0.000833
 49
-0.000417
 49
0.000000
 49
-0.000417
  0
LTYPE
  2
BORDER
 70
    64
  3
__ __ . __ __ . __ __ . __ __ . __ __ . __ __
 72
    65
 73
     6
 40
0.002917
 49
0.000833
 49
-0.000417
 49
0.000833
 49
-0.000417
 49
0.000000
 49
-0.000417
  0
LTYPE
  2
DIVIDE
 70
    64
  3
__ . . __ . . __ . . __ . . __ . . __ . . __
 72
    65
 73
     6
 40
0.002083
 49
0.000833
 49
-0.000417
 49
0.000000
 49
-0.000417
 49
0.000000
 49
-0.000417
  0
LTYPE
  2
DOTDOT
 70
    64
  3
 . .  . .  . .  . .  . .  . . 
 72
    65
 73
     5
 40
0.000917
 49
-0.000417
 49
0.000000
 49
-0.000417
 49
0.000000
 49
-0.000417
  0
ENDTAB
  0
TABLE
  2
STYLE
 70
     2
  0
STYLE
 70
     0
  2
SN0
 40
0.000000
 41
0.001667
 50
0.000000
 71
     0
 42
0.000000
  3
ROMAND
  0
STYLE
 70
    68
  2
SV0
 40
0.000000
 41
0.001667
 50
0.000000
 71
     0
 42
0.000000
  3
ROMAND
  0
ENDTAB
  0
TABLE
  2
LAYER
 70
     2
  0
LAYER
  2
FOREGROUND
 70
    64
 62
     7
  6
CONTINUOUS
  0
LAYER
  2
BACKGROUND
 70
    65
 62
    -7
  6
CONTINUOUS
  0
ENDTAB
  0
ENDSEC
  0
SECTION
  2
ENTITIES
  0
POLYLINE
  8
FOREGROUND
  6
CONTINUOUS
 66
     1
 40
0.010000
 41
0.010000
 70
     1
  0
VERTEX
  8
FOREGROUND
  6
CONTINUOUS
 10
1.731667
 20
0.050000
  0
VERTEX
  8
FOREGROUND
  6
CONTINUOUS
 10
1.745542
 20
0.050148
  0
VERTEX
  8
FOREGROUND
  6
CONTINUOUS
 10
1.759351
 20
0.050568
  0
VERTEX
  8
FOREGROUND
  6
CONTINUOUS
 10
1.773089
 20
0.051257
  0
VERTEX
  8
FOREGROUND
  6
CONTINUOUS
 10
1.786756
 20
0.052213
  0
VERTEX
  8
FOREGROUND
  6
CONTINUOUS
 10
1.800348
 20
0.053433
  0
VERTEX
  8
FOREGROUND
  6
CONTINUOUS
 10
1.813862
 20
0.054914
  0
VERTEX
  8
FOREGROUND
  6
CONTINUOUS
 10
1.827297
 20
0.056655
  0
VERTEX
  8
FOREGROUND
  6
CONTINUOUS
 10
1.840649
 20
0.058653
  0
VERTEX
  8
FOREGROUND
  6
CONTINUOUS
 10
1.853917
 20
0.060904
  0
VERTEX
  8
FOREGROUND
  6
CONTINUOUS
 10
1.867096
 20
0.063407
  0
VERTEX
  8
FOREGROUND
  6
CONTINUOUS
 10
1.880186
 20
0.066158
  0
VERTEX
  8
FOREGROUND
  6
CONTINUOUS
 10
1.893183
 20
0.069156
  0
VERTEX
  8
FOREGROUND
  6
CONTINUOUS
 10
1.906085
 20
0.072398
  0
VERTEX
  8
FOREGROUND
  6
CONTINUOUS
 10
1.918889
 20
0.075881
  0
VERTEX
  8
FOREGROUND
  6
CONTINUOUS
 10
1.931592
 20
0.079602
  0
VERTEX
  8
FOREGROUND
  6
CONTINUOUS
 10
1.944193
 20
0.083559
  0
VERTEX
  8
FOREGROUND
  6
CONTINUOUS
 10
1.956688
 20
0.087750
  0
VERTEX
  8
FOREGROUND
  6
CONTINUOUS
 10
1.969076
 20
0.092172
  0
VERTEX
  8
FOREGROUND
  6
CONTINUOUS
 10
1.981352
 20
0.096822
  0
VERTEX
  8
FOREGROUND
  6
CONTINUOUS
 10
1.993516
 20
0.101698
  0
VERTEX
  8
FOREGROUND
  6
CONTINUOUS
 10
2.005564
 20
0.106798
  0
VERTEX
  8
FOREGROUND
  6
CONTINUOUS
 10
2.017493
 20
0.112118
  0
VERTEX
  8
FOREGROUND
  6
CONTINUOUS
 10
2.029302
 20
0.117656
  0
VERTEX
  8
FOREGROUND
  6
CONTINUOUS
 10
2.040987
 20
0.123409
  0
VERTEX
  8
FOREGROUND
  6
CONTINUOUS
 10
2.052547
 20
0.129376
  0
VERTEX
  8
FOREGROUND
  6
CONTINUOUS
 10
2.063978
 20
0.135553
  0
VERTEX
  8
FOREGROUND
  6
CONTINUOUS
 10
2.075277
 20
0.141938
  0
VERTEX
  8
FOREGROUND
  6
CONTINUOUS
 10
2.086443
 20
0.148528
  0
VERTEX
  8
FOREGROUND
  6
CONTINUOUS
 10
2.097473
 20
0.155322
  0
VERTEX
  8
FOREGROUND
  6
CONTINUOUS
 10
2.108365
 20
0.162315
  0
VERTEX
  8
FOREGROUND
  6
CONTINUOUS
 10
2.119115
 20
0.169506
  0
VERTEX
  8
FOREGROUND
  6
CONTINUOUS
 10
2.129721
 20
0.176892
  0
VERTEX
  8
FOREGROUND
  6
CONTINUOUS
 10
2.140180
 20
0.184470
  0
VERTEX
  8
FOREGROUND
  6
CONTINUOUS
 10
2.150491
 20
0.192239
  0
VERTEX
  8
FOREGROUND
  6
CONTINUOUS
 10
2.160650
 20
0.200195
  0
VERTEX
  8
FOREGROUND
  6
CONTINUOUS
 10
2.170655
 20
0.208335
  0
VERTEX
  8
FOREGROUND
  6
CONTINUOUS
 10
2.180503
 20
0.216658
  0
VERTEX
  8
FOREGROUND
  6
CONTINUOUS
 10
2.190192
 20
0.225161
  0
VERTEX
  8
FOREGROUND
  6
CONTINUOUS
 10
2.199719
 20
0.233841
  0
VERTEX
  8
FOREGROUND
  6
CONTINUOUS
 10
2.209082
 20
0.242695
  0
VERTEX
  8
FOREGROUND
  6
CONTINUOUS
 10
2.218278
 20
0.251722
  0
VERTEX
  8
FOREGROUND
  6
CONTINUOUS
 10
2.227305
 20
0.260918
  0
VERTEX
  8
FOREGROUND
  6
CONTINUOUS
 10
2.236159
 20
0.270281
  0
VERTEX
  8
FOREGROUND
  6
CONTINUOUS
 10
2.244839
 20
0.279808
  0
VERTEX
  8
FOREGROUND
  6
CONTINUOUS
 10
2.253342
 20
0.289497
  0
VERTEX
  8
FOREGROUND
  6
CONTINUOUS
 10
2.261665
 20
0.299345
  0
VERTEX
  8
FOREGROUND
  6
CONTINUOUS
 10
2.269805
 20
0.309350
  0
VERTEX
  8
FOREGROUND
  6
CONTINUOUS
 10
2.277761
 20
0.319509
  0
VERTEX
  8
FOREGROUND
  6
CONTINUOUS
 10
2.285530
 20
0.329820
  0
VERTEX
  8
FOREGROUND
  6
CONTINUOUS
 10
2.293108
 20
0.340279
  0
VERTEX
  8
FOREGROUND
  6
CONTINUOUS
 10
2.300494
 20
0.350885
  0
VERTEX
  8
FOREGROUND
  6
CONTINUOUS
 10
2.307685
 20
0.361635
  0
VERTEX
  8
FOREGROUND
  6
CONTINUOUS
 10
2.314678
 20
0.372527
  0
VERTEX
  8
FOREGROUND
  6
CONTINUOUS
 10
2.321472
 20
0.383557
  0
VERTEX
  8
FOREGROUND
  6
CONTINUOUS
 10
2.328062
 20
0.394723
  0
VERTEX
  8
FOREGROUND
  6
CONTINUOUS
 10
2.334447
 20
0.406022
  0
VERTEX
  8
FOREGROUND
  6
CONTINUOUS
 10
2.340624
 20
0.417453
  0
VERTEX
  8
FOREGROUND
  6
CONTINUOUS
 10
2.346591
 20
0.429013
  0
VERTEX
  8
FOREGROUND
  6
CONTINUOUS
 10
2.352344
 20
0.440698
  0
VERTEX
  8
FOREGROUND
  6
CONTINUOUS
 10
2.357882
 20
0.452507
  0
VERTEX
  8
FOREGROUND
  6
CONTINUOUS
 10
2.363202
 20
0.464436
  0
VERTEX
  8
FOREGROUND
  6
CONTINUOUS
 10
2.368302
 20
0.476484
  0
VERTEX
  8
FOREGROUND
  6
CONTINUOUS
 10
2.373178
 20
0.488648
  0
VERTEX
  8
FOREGROUND
  6
CONTINUOUS
 10
2.377828
 20
0.500924
  0
VERTEX
  8
FOREGROUND
  6
CONTINUOUS
 10
2.382250
 20
0.513312
  0
VERTEX
  8
FOREGROUND
  6
CONTINUOUS
 10
2.386441
 20
0.525807
  0
VERTEX
  8
FOREGROUND
  6
CONTINUOUS
 10
2.390398
 20
0.538408
  0
VERTEX
  8
FOREGROUND
  6
CONTINUOUS
 10
2.394119
 20
0.551111
  0
VERTEX
  8
FOREGROUND
  6
CONTINUOUS
 10
2.397602
 20
0.563915
  0
VERTEX
  8
FOREGROUND
  6
CONTINUOUS
 10
2.400844
 20
0.576817
  0
VERTEX
  8
FOREGROUND
  6
CONTINUOUS
 10
2.403842
 20
0.589814
  0
VERTEX
  8
FOREGROUND
  6
CONTINUOUS
 10
2.406593
 20
0.602904
  0
VERTEX
  8
FOREGROUND
  6
CONTINUOUS
 10
2.409096
 20
0.616083
  0
VERTEX
  8
FOREGROUND
  6
CONTINUOUS
 10
2.411347
 20
0.629351
  0
VERTEX
  8
FOREGROUND
  6
CONTINUOUS
 10
2.413345
 20
0.642703
  0
VERTEX
  8
FOREGROUND
  6
CONTINUOUS
 10
2.415086
 20
0.656138
  0
VERTEX
  8
FOREGROUND
  6
CONTINUOUS
 10
2.416567
 20
0.669652
  0
VERTEX
  8
FOREGROUND
  6
CONTINUOUS
 10
2.417787
 20
0.683244
  0
VERTEX
  8
FOREGROUND
  6
CONTINUOUS
 10
2.418743
 20
0.696911
  0
VERTEX
  8
FOREGROUND
  6
CONTINUOUS
 10
2.419432
 20
0.710649
  0
VERTEX
  8
FOREGROUND
  6
CONTINUOUS
 10
2.419852
 20
0.724458
  0
VERTEX
  8
FOREGROUND
  6
CONTINUOUS
 10
2.420000
 20
0.738333
  0
VERTEX
  8
FOREGROUND
  6
CONTINUOUS
 10
2.420000
 20
0.738333
  0
VERTEX
  8
FOREGROUND
  6
CONTINUOUS
 10
2.419852
 20
0.752211
  0
VERTEX
  8
FOREGROUND
  6
CONTINUOUS
 10
2.419432
 20
0.766021
  0
VERTEX
  8
FOREGROUND
  6
CONTINUOUS
 10
2.418743
 20
0.779761
  0
VERTEX
  8
FOREGROUND
  6
CONTINUOUS
 10
2.417787
 20
0.793430
  0
VERTEX
  8
FOREGROUND
  6
CONTINUOUS
 10
2.416566
 20
0.807023
  0
VERTEX
  8
FOREGROUND
  6
CONTINUOUS
 10
2.415084
 20
0.820539
  0
VERTEX
  8
FOREGROUND
  6
CONTINUOUS
 10
2.413343
 20
0.833976
  0
VERTEX
  8
FOREGROUND
  6
CONTINUOUS
 10
2.411345
 20
0.847330
  0
VERTEX
  8
FOREGROUND
  6
CONTINUOUS
 10
2.409093
 20
0.860599
  0
VERTEX
  8
FOREGROUND
  6
CONTINUOUS
 10
2.406590
 20
0.873780
  0
VERTEX
  8
FOREGROUND
  6
CONTINUOUS
 10
2.403838
 20
0.886871
  0
VERTEX
  8
FOREGROUND
  6
CONTINUOUS
 10
2.400839
 20
0.899870
  0
VERTEX
  8
FOREGROUND
  6
CONTINUOUS
 10
2.397597
 20
0.912773
  0
VERTEX
  8
FOREGROUND
  6
CONTINUOUS
 10
2.394113
 20
0.925578
  0
VERTEX
  8
FOREGROUND
  6
CONTINUOUS
 10
2.390391
 20
0.938283
  0
VERTEX
  8
FOREGROUND
  6
CONTINUOUS
 10
2.386432
 20
0.950885
  0
VERTEX
  8
FOREGROUND
  6
CONTINUOUS
 10
2.382241
 20
0.963382
  0
VERTEX
  8
FOREGROUND
  6
CONTINUOUS
 10
2.377818
 20
0.975770
  0
VERTEX
  8
FOREGROUND
  6
CONTINUOUS
 10
2.373166
 20
0.988048
  0
VERTEX
  8
FOREGROUND
  6
CONTINUOUS
 10
2.368289
 20
1.000213
  0
VERTEX
  8
FOREGROUND
  6
CONTINUOUS
 10
2.363189
 20
1.012262
  0
VERTEX
  8
FOREGROUND
  6
CONTINUOUS
 10
2.357868
 20
1.024193
  0
VERTEX
  8
FOREGROUND
  6
CONTINUOUS
 10
2.352328
 20
1.036002
  0
VERTEX
  8
FOREGROUND
  6
CONTINUOUS
 10
2.346573
 20
1.047689
  0
VERTEX
  8
FOREGROUND
  6
CONTINUOUS
 10
2.340605
 20
1.059249
  0
VERTEX
  8
FOREGROUND
  6
CONTINUOUS
 10
2.334427
 20
1.070681
  0
VERTEX
  8
FOREGROUND
  6
CONTINUOUS
 10
2.328040
 20
1.081981
  0
VERTEX
  8
FOREGROUND
  6
CONTINUOUS
 10
2.321449
 20
1.093149
  0
VERTEX
  8
FOREGROUND
  6
CONTINUOUS
 10
2.314654
 20
1.104179
  0
VERTEX
  8
FOREGROUND
  6
CONTINUOUS
 10
2.307659
 20
1.115071
  0
VERTEX
  8
FOREGROUND
  6
CONTINUOUS
 10
2.300467
 20
1.125822
  0
VERTEX
  8
FOREGROUND
  6
CONTINUOUS
 10
2.293079
 20
1.136429
  0
VERTEX
  8
FOREGROUND
  6
CONTINUOUS
 10
2.285499
 20
1.146889
  0
VERTEX
  8
FOREGROUND
  6
CONTINUOUS
 10
2.277729
 20
1.157200
  0
VERTEX
  8
FOREGROUND
  6
CONTINUOUS
 10
2.269771
 20
1.167360
  0
VERTEX
  8
FOREGROUND
  6
CONTINUOUS
 10
2.261629
 20
1.177365
  0
VERTEX
  8
FOREGROUND
  6
CONTINUOUS
 10
2.253304
 20
1.187214
  0
VERTEX
  8
FOREGROUND
  6
CONTINUOUS
 10
2.244800
 20
1.196903
  0
VERTEX
  8
FOREGROUND
  6
CONTINUOUS
 10
2.236118
 20
1.206431
  0
VERTEX
  8
FOREGROUND
  6
CONTINUOUS
 10
2.227262
 20
1.215794
  0
VERTEX
  8
FOREGROUND
  6
CONTINUOUS
 10
2.218233
 20
1.224990
  0
VERTEX
  8
FOREGROUND
  6
CONTINUOUS
 10
2.209035
 20
1.234017
  0
VERTEX
  8
FOREGROUND
  6
CONTINUOUS
 10
2.199671
 20
1.242871
  0
VERTEX
  8
FOREGROUND
  6
CONTINUOUS
 10
2.190141
 20
1.251551
  0
VERTEX
  8
FOREGROUND
  6
CONTINUOUS
 10
2.180450
 20
1.260054
  0
VERTEX
  8
FOREGROUND
  6
CONTINUOUS
 10
2.170600
 20
1.268377
  0
VERTEX
  8
FOREGROUND
  6
CONTINUOUS
 10
2.160593
 20
1.276517
  0
VERTEX
  8
FOREGROUND
  6
CONTINUOUS
 10
2.150432
 20
1.284473
  0
VERTEX
  8
FOREGROUND
  6
CONTINUOUS
 10
2.140120
 20
1.292241
  0
VERTEX
  8
FOREGROUND
  6
CONTINUOUS
 10
2.129658
 20
1.299819
  0
VERTEX
  8
FOREGROUND
  6
CONTINUOUS
 10
2.119050
 20
1.307205
  0
VERTEX
  8
FOREGROUND
  6
CONTINUOUS
 10
2.108298
 20
1.314396
  0
VERTEX
  8
FOREGROUND
  6
CONTINUOUS
 10
2.097405
 20
1.321388
  0
VERTEX
  8
FOREGROUND
  6
CONTINUOUS
 10
2.086373
 20
1.328181
  0
VERTEX
  8
FOREGROUND
  6
CONTINUOUS
 10
2.075204
 20
1.334771
  0
VERTEX
  8
FOREGROUND
  6
CONTINUOUS
 10
2.063902
 20
1.341155
  0
VERTEX
  8
FOREGROUND
  6
CONTINUOUS
 10
2.052469
 20
1.347331
  0
VERTEX
  8
FOREGROUND
  6
CONTINUOUS
 10
2.040908
 20
1.353297
  0
VERTEX
  8
FOREGROUND
  6
CONTINUOUS
 10
2.029221
 20
1.359050
  0
VERTEX
  8
FOREGROUND
  6
CONTINUOUS
 10
2.017410
 20
1.364587
  0
VERTEX
  8
FOREGROUND
  6
CONTINUOUS
 10
2.005478
 20
1.369906
  0
VERTEX
  8
FOREGROUND
  6
CONTINUOUS
 10
1.993428
 20
1.375004
  0
VERTEX
  8
FOREGROUND
  6
CONTINUOUS
 10
1.981263
 20
1.379879
  0
VERTEX
  8
FOREGROUND
  6
CONTINUOUS
 10
1.968984
 20
1.384528
  0
VERTEX
  8
FOREGROUND
  6
CONTINUOUS
 10
1.956595
 20
1.388949
  0
VERTEX
  8
FOREGROUND
  6
CONTINUOUS
 10
1.944097
 20
1.393138
  0
VERTEX
  8
FOREGROUND
  6
CONTINUOUS
 10
1.931494
 20
1.397095
  0
VERTEX
  8
FOREGROUND
  6
CONTINUOUS
 10
1.918789
 20
1.400814
  0
VERTEX
  8
FOREGROUND
  6
CONTINUOUS
 10
1.905983
 20
1.404296
  0
VERTEX
  8
FOREGROUND
  6
CONTINUOUS
 10
1.893079
 20
1.407536
  0
VERTEX
  8
FOREGROUND
  6
CONTINUOUS
 10
1.880080
 20
1.410532
  0
VERTEX
  8
FOREGROUND
  6
CONTINUOUS
 10
1.866988
 20
1.413282
  0
VERTEX
  8
FOREGROUND
  6
CONTINUOUS
 10
1.853806
 20
1.415783
  0
VERTEX
  8
FOREGROUND
  6
CONTINUOUS
 10
1.840537
 20
1.418032
  0
VERTEX
  8
FOREGROUND
  6
CONTINUOUS
 10
1.827183
 20
1.420027
  0
VERTEX
  8
FOREGROUND
  6
CONTINUOUS
 10
1.813746
 20
1.421766
  0
VERTEX
  8
FOREGROUND
  6
CONTINUOUS
 10
1.800230
 20
1.423246
  0
VERTEX
  8
FOREGROUND
  6
CONTINUOUS
 10
1.786636
 20
1.424464
  0
VERTEX
  8
FOREGROUND
  6
CONTINUOUS
 10
1.772967
 20
1.425417
  0
VERTEX
  8
FOREGROUND
  6
CONTINUOUS
 10
1.759227
 20
1.426104
  0
VERTEX
  8
FOREGROUND
  6
CONTINUOUS
 10
1.745416
 20
1.426521
  0
VERTEX
  8
FOREGROUND
  6
CONTINUOUS
 10
1.731539
 20
1.426667
  0
VERTEX
  8
FOREGROUND
  6
CONTINUOUS
 10
0.738206
 20
1.426667
  0
VERTEX
  8
FOREGROUND
  6
CONTINUOUS
 10
0.724332
 20
1.426516
  0
VERTEX
  8
FOREGROUND
  6
CONTINUOUS
 10
0.710526
 20
1.426094
  0
VERTEX
  8
FOREGROUND
  6
CONTINUOUS
 10
0.696789
 20
1.425403
  0
VERTEX
  8
FOREGROUND
  6
CONTINUOUS
 10
0.683124
 20
1.424444
  0
VERTEX
  8
FOREGROUND
  6
CONTINUOUS
 10
0.669534
 20
1.423222
  0
VERTEX
  8
FOREGROUND
  6
CONTINUOUS
 10
0.656021
 20
1.421738
  0
VERTEX
  8
FOREGROUND
  6
CONTINUOUS
 10
0.642589
 20
1.419995
  0
VERTEX
  8
FOREGROUND
  6
CONTINUOUS
 10
0.629238
 20
1.417996
  0
VERTEX
  8
FOREGROUND
  6
CONTINUOUS
 10
0.615973
 20
1.415743
  0
VERTEX
  8
FOREGROUND
  6
CONTINUOUS
 10
0.602795
 20
1.413238
  0
VERTEX
  8
FOREGROUND
  6
CONTINUOUS
 10
0.589708
 20
1.410485
  0
VERTEX
  8
FOREGROUND
  6
CONTINUOUS
 10
0.576713
 20
1.407485
  0
VERTEX
  8
FOREGROUND
  6
CONTINUOUS
 10
0.563813
 20
1.404242
  0
VERTEX
  8
FOREGROUND
  6
CONTINUOUS
 10
0.551011
 20
1.400758
  0
VERTEX
  8
FOREGROUND
  6
CONTINUOUS
 10
0.538309
 20
1.397035
  0
VERTEX
  8
FOREGROUND
  6
CONTINUOUS
 10
0.525711
 20
1.393076
  0
VERTEX
  8
FOREGROUND
  6
CONTINUOUS
 10
0.513218
 20
1.388884
  0
VERTEX
  8
FOREGROUND
  6
CONTINUOUS
 10
0.500832
 20
1.384461
  0
VERTEX
  8
FOREGROUND
  6
CONTINUOUS
 10
0.488558
 20
1.379809
  0
VERTEX
  8
FOREGROUND
  6
CONTINUOUS
 10
0.476396
 20
1.374932
  0
VERTEX
  8
FOREGROUND
  6
CONTINUOUS
 10
0.464351
 20
1.369832
  0
VERTEX
  8
FOREGROUND
  6
CONTINUOUS
 10
0.452423
 20
1.364511
  0
VERTEX
  8
FOREGROUND
  6
CONTINUOUS
 10
0.440617
 20
1.358972
  0
VERTEX
  8
FOREGROUND
  6
CONTINUOUS
 10
0.428933
 20
1.353217
  0
VERTEX
  8
FOREGROUND
  6
CONTINUOUS
 10
0.417376
 20
1.347250
  0
VERTEX
  8
FOREGROUND
  6
CONTINUOUS
 10
0.405947
 20
1.341072
  0
VERTEX
  8
FOREGROUND
  6
CONTINUOUS
 10
0.394650
 20
1.334686
  0
VERTEX
  8
FOREGROUND
  6
CONTINUOUS
 10
0.383486
 20
1.328095
  0
VERTEX
  8
FOREGROUND
  6
CONTINUOUS
 10
0.372458
 20
1.321302
  0
VERTEX
  8
FOREGROUND
  6
CONTINUOUS
 10
0.361568
 20
1.314308
  0
VERTEX
  8
FOREGROUND
  6
CONTINUOUS
 10
0.350821
 20
1.307117
  0
VERTEX
  8
FOREGROUND
  6
CONTINUOUS
 10
0.340217
 20
1.299730
  0
VERTEX
  8
FOREGROUND
  6
CONTINUOUS
 10
0.329759
 20
1.292152
  0
VERTEX
  8
FOREGROUND
  6
CONTINUOUS
 10
0.319450
 20
1.284383
  0
VERTEX
  8
FOREGROUND
  6
CONTINUOUS
 10
0.309293
 20
1.276427
  0
VERTEX
  8
FOREGROUND
  6
CONTINUOUS
 10
0.299290
 20
1.268286
  0
VERTEX
  8
FOREGROUND
  6
CONTINUOUS
 10
0.289444
 20
1.259963
  0
VERTEX
  8
FOREGROUND
  6
CONTINUOUS
 10
0.279757
 20
1.251460
  0
VERTEX
  8
FOREGROUND
  6
CONTINUOUS
 10
0.270232
 20
1.242781
  0
VERTEX
  8
FOREGROUND
  6
CONTINUOUS
 10
0.260871
 20
1.233926
  0
VERTEX
  8
FOREGROUND
  6
CONTINUOUS
 10
0.251677
 20
1.224900
  0
VERTEX
  8
FOREGROUND
  6
CONTINUOUS
 10
0.242652
 20
1.215704
  0
VERTEX
  8
FOREGROUND
  6
CONTINUOUS
 10
0.233799
 20
1.206341
  0
VERTEX
  8
FOREGROUND
  6
CONTINUOUS
 10
0.225121
 20
1.196815
  0
VERTEX
  8
FOREGROUND
  6
CONTINUOUS
 10
0.216620
 20
1.187126
  0
VERTEX
  8
FOREGROUND
  6
CONTINUOUS
 10
0.208299
 20
1.177278
  0
VERTEX
  8
FOREGROUND
  6
CONTINUOUS
 10
0.200160
 20
1.167274
  0
VERTEX
  8
FOREGROUND
  6
CONTINUOUS
 10
0.192206
 20
1.157115
  0
VERTEX
  8
FOREGROUND
  6
CONTINUOUS
 10
0.184439
 20
1.146805
  0
VERTEX
  8
FOREGROUND
  6
CONTINUOUS
 10
0.176862
 20
1.136346
  0
VERTEX
  8
FOREGROUND
  6
CONTINUOUS
 10
0.169478
 20
1.125741
  0
VERTEX
  8
FOREGROUND
  6
CONTINUOUS
 10
0.162289
 20
1.114991
  0
VERTEX
  8
FOREGROUND
  6
CONTINUOUS
 10
0.155297
 20
1.104101
  0
VERTEX
  8
FOREGROUND
  6
CONTINUOUS
 10
0.148505
 20
1.093072
  0
VERTEX
  8
FOREGROUND
  6
CONTINUOUS
 10
0.141917
 20
1.081906
  0
VERTEX
  8
FOREGROUND
  6
CONTINUOUS
 10
0.135533
 20
1.070608
  0
VERTEX
  8
FOREGROUND
  6
CONTINUOUS
 10
0.129357
 20
1.059178
  0
VERTEX
  8
FOREGROUND
  6
CONTINUOUS
 10
0.123392
 20
1.047619
  0
VERTEX
  8
FOREGROUND
  6
CONTINUOUS
 10
0.117640
 20
1.035935
  0
VERTEX
  8
FOREGROUND
  6
CONTINUOUS
 10
0.112103
 20
1.024127
  0
VERTEX
  8
FOREGROUND
  6
CONTINUOUS
 10
0.106784
 20
1.012199
  0
VERTEX
  8
FOREGROUND
  6
CONTINUOUS
 10
0.101686
 20
1.000152
  0
VERTEX
  8
FOREGROUND
  6
CONTINUOUS
 10
0.096811
 20
0.987990
  0
VERTEX
  8
FOREGROUND
  6
CONTINUOUS
 10
0.092162
 20
0.975714
  0
VERTEX
  8
FOREGROUND
  6
CONTINUOUS
 10
0.087741
 20
0.963328
  0
VERTEX
  8
FOREGROUND
  6
CONTINUOUS
 10
0.083551
 20
0.950835
  0
VERTEX
  8
FOREGROUND
  6
CONTINUOUS
 10
0.079595
 20
0.938235
  0
VERTEX
  8
FOREGROUND
  6
CONTINUOUS
 10
0.075874
 20
0.925533
  0
VERTEX
  8
FOREGROUND
  6
CONTINUOUS
 10
0.072392
 20
0.912730
  0
VERTEX
  8
FOREGROUND
  6
CONTINUOUS
 10
0.069152
 20
0.899830
  0
VERTEX
  8
FOREGROUND
  6
CONTINUOUS
 10
0.066154
 20
0.886834
  0
VERTEX
  8
FOREGROUND
  6
CONTINUOUS
 10
0.063403
 20
0.873746
  0
VERTEX
  8
FOREGROUND
  6
CONTINUOUS
 10
0.060901
 20
0.860568
  0
VERTEX
  8
FOREGROUND
  6
CONTINUOUS
 10
0.058651
 20
0.847302
  0
VERTEX
  8
FOREGROUND
  6
CONTINUOUS
 10
0.056654
 20
0.833952
  0
VERTEX
  8
FOREGROUND
  6
CONTINUOUS
 10
0.054913
 20
0.820519
  0
VERTEX
  8
FOREGROUND
  6
CONTINUOUS
 10
0.053432
 20
0.807006
  0
VERTEX
  8
FOREGROUND
  6
CONTINUOUS
 10
0.052212
 20
0.793416
  0
VERTEX
  8
FOREGROUND
  6
CONTINUOUS
 10
0.051256
 20
0.779751
  0
VERTEX
  8
FOREGROUND
  6
CONTINUOUS
 10
0.050568
 20
0.766014
  0
VERTEX
  8
FOREGROUND
  6
CONTINUOUS
 10
0.050148
 20
0.752207
  0
VERTEX
  8
FOREGROUND
  6
CONTINUOUS
 10
0.050000
 20
0.738333
  0
VERTEX
  8
FOREGROUND
  6
CONTINUOUS
 10
0.050000
 20
0.738333
  0
VERTEX
  8
FOREGROUND
  6
CONTINUOUS
 10
0.050148
 20
0.724458
  0
VERTEX
  8
FOREGROUND
  6
CONTINUOUS
 10
0.050568
 20
0.710649
  0
VERTEX
  8
FOREGROUND
  6
CONTINUOUS
 10
0.051257
 20
0.696911
  0
VERTEX
  8
FOREGROUND
  6
CONTINUOUS
 10
0.052213
 20
0.683244
  0
VERTEX
  8
FOREGROUND
  6
CONTINUOUS
 10
0.053433
 20
0.669652
  0
VERTEX
  8
FOREGROUND
  6
CONTINUOUS
 10
0.054914
 20
0.656138
  0
VERTEX
  8
FOREGROUND
  6
CONTINUOUS
 10
0.056655
 20
0.642703
  0
VERTEX
  8
FOREGROUND
  6
CONTINUOUS
 10
0.058653
 20
0.629351
  0
VERTEX
  8
FOREGROUND
  6
CONTINUOUS
 10
0.060904
 20
0.616083
  0
VERTEX
  8
FOREGROUND
  6
CONTINUOUS
 10
0.063407
 20
0.602904
  0
VERTEX
  8
FOREGROUND
  6
CONTINUOUS
 10
0.066158
 20
0.589814
  0
VERTEX
  8
FOREGROUND
  6
CONTINUOUS
 10
0.069156
 20
0.576817
  0
VERTEX
  8
FOREGROUND
  6
CONTINUOUS
 10
0.072398
 20
0.563915
  0
VERTEX
  8
FOREGROUND
  6
CONTINUOUS
 10
0.075881
 20
0.551111
  0
VERTEX
  8
FOREGROUND
  6
CONTINUOUS
 10
0.079602
 20
0.538408
  0
VERTEX
  8
FOREGROUND
  6
CONTINUOUS
 10
0.083559
 20
0.525807
  0
VERTEX
  8
FOREGROUND
  6
CONTINUOUS
 10
0.087750
 20
0.513312
  0
VERTEX
  8
FOREGROUND
  6
CONTINUOUS
 10
0.092172
 20
0.500924
  0
VERTEX
  8
FOREGROUND
  6
CONTINUOUS
 10
0.096822
 20
0.488648
  0
VERTEX
  8
FOREGROUND
  6
CONTINUOUS
 10
0.101698
 20
0.476484
  0
VERTEX
  8
FOREGROUND
  6
CONTINUOUS
 10
0.106798
 20
0.464436
  0
VERTEX
  8
FOREGROUND
  6
CONTINUOUS
 10
0.112118
 20
0.452507
  0
VERTEX
  8
FOREGROUND
  6
CONTINUOUS
 10
0.117656
 20
0.440698
  0
VERTEX
  8
FOREGROUND
  6
CONTINUOUS
 10
0.123409
 20
0.429013
  0
VERTEX
  8
FOREGROUND
  6
CONTINUOUS
 10
0.129376
 20
0.417453
  0
VERTEX
  8
FOREGROUND
  6
CONTINUOUS
 10
0.135553
 20
0.406022
  0
VERTEX
  8
FOREGROUND
  6
CONTINUOUS
 10
0.141938
 20
0.394723
  0
VERTEX
  8
FOREGROUND
  6
CONTINUOUS
 10
0.148528
 20
0.383557
  0
VERTEX
  8
FOREGROUND
  6
CONTINUOUS
 10
0.155322
 20
0.372527
  0
VERTEX
  8
FOREGROUND
  6
CONTINUOUS
 10
0.162315
 20
0.361635
  0
VERTEX
  8
FOREGROUND
  6
CONTINUOUS
 10
0.169506
 20
0.350885
  0
VERTEX
  8
FOREGROUND
  6
CONTINUOUS
 10
0.176892
 20
0.340279
  0
VERTEX
  8
FOREGROUND
  6
CONTINUOUS
 10
0.184470
 20
0.329820
  0
VERTEX
  8
FOREGROUND
  6
CONTINUOUS
 10
0.192239
 20
0.319509
  0
VERTEX
  8
FOREGROUND
  6
CONTINUOUS
 10
0.200195
 20
0.309350
  0
VERTEX
  8
FOREGROUND
  6
CONTINUOUS
 10
0.208335
 20
0.299345
  0
VERTEX
  8
FOREGROUND
  6
CONTINUOUS
 10
0.216658
 20
0.289497
  0
VERTEX
  8
FOREGROUND
  6
CONTINUOUS
 10
0.225161
 20
0.279808
  0
VERTEX
  8
FOREGROUND
  6
CONTINUOUS
 10
0.233841
 20
0.270281
  0
VERTEX
  8
FOREGROUND
  6
CONTINUOUS
 10
0.242695
 20
0.260918
  0
VERTEX
  8
FOREGROUND
  6
CONTINUOUS
 10
0.251722
 20
0.251722
  0
VERTEX
  8
FOREGROUND
  6
CONTINUOUS
 10
0.260918
 20
0.242695
  0
VERTEX
  8
FOREGROUND
  6
CONTINUOUS
 10
0.270281
 20
0.233841
  0
VERTEX
  8
FOREGROUND
  6
CONTINUOUS
 10
0.279808
 20
0.225161
  0
VERTEX
  8
FOREGROUND
  6
CONTINUOUS
 10
0.289497
 20
0.216658
  0
VERTEX
  8
FOREGROUND
  6
CONTINUOUS
 10
0.299345
 20
0.208335
  0
VERTEX
  8
FOREGROUND
  6
CONTINUOUS
 10
0.309350
 20
0.200195
  0
VERTEX
  8
FOREGROUND
  6
CONTINUOUS
 10
0.319509
 20
0.192239
  0
VERTEX
  8
FOREGROUND
  6
CONTINUOUS
 10
0.329820
 20
0.184470
  0
VERTEX
  8
FOREGROUND
  6
CONTINUOUS
 10
0.340279
 20
0.176892
  0
VERTEX
  8
FOREGROUND
  6
CONTINUOUS
 10
0.350885
 20
0.169506
  0
VERTEX
  8
FOREGROUND
  6
CONTINUOUS
 10
0.361635
 20
0.162315
  0
VERTEX
  8
FOREGROUND
  6
CONTINUOUS
 10
0.372527
 20
0.155322
  0
VERTEX
  8
FOREGROUND
  6
CONTINUOUS
 10
0.383557
 20
0.148528
  0
VERTEX
  8
FOREGROUND
  6
CONTINUOUS
 10
0.394723
 20
0.141938
  0
VERTEX
  8
FOREGROUND
  6
CONTINUOUS
 10
0.406022
 20
0.135553
  0
VERTEX
  8
FOREGROUND
  6
CONTINUOUS
 10
0.417453
 20
0.129376
  0
VERTEX
  8
FOREGROUND
  6
CONTINUOUS
 10
0.429013
 20
0.123409
  0
VERTEX
  8
FOREGROUND
  6
CONTINUOUS
 10
0.440698
 20
0.117656
  0
VERTEX
  8
FOREGROUND
  6
CONTINUOUS
 10
0.452507
 20
0.112118
  0
VERTEX
  8
FOREGROUND
  6
CONTINUOUS
 10
0.464436
 20
0.106798
  0
VERTEX
  8
FOREGROUND
  6
CONTINUOUS
 10
0.476484
 20
0.101698
  0
VERTEX
  8
FOREGROUND
  6
CONTINUOUS
 10
0.488648
 20
0.096822
  0
VERTEX
  8
FOREGROUND
  6
CONTINUOUS
 10
0.500924
 20
0.092172
  0
VERTEX
  8
FOREGROUND
  6
CONTINUOUS
 10
0.513312
 20
0.087750
  0
VERTEX
  8
FOREGROUND
  6
CONTINUOUS
 10
0.525807
 20
0.083559
  0
VERTEX
  8
FOREGROUND
  6
CONTINUOUS
 10
0.538408
 20
0.079602
  0
VERTEX
  8
FOREGROUND
  6
CONTINUOUS
 10
0.551111
 20
0.075881
  0
VERTEX
  8
FOREGROUND
  6
CONTINUOUS
 10
0.563915
 20
0.072398
  0
VERTEX
  8
FOREGROUND
  6
CONTINUOUS
 10
0.576817
 20
0.069156
  0
VERTEX
  8
FOREGROUND
  6
CONTINUOUS
 10
0.589814
 20
0.066158
  0
VERTEX
  8
FOREGROUND
  6
CONTINUOUS
 10
0.602904
 20
0.063407
  0
VERTEX
  8
FOREGROUND
  6
CONTINUOUS
 10
0.616083
 20
0.060904
  0
VERTEX
  8
FOREGROUND
  6
CONTINUOUS
 10
0.629351
 20
0.058653
  0
VERTEX
  8
FOREGROUND
  6
CONTINUOUS
 10
0.642703
 20
0.056655
  0
VERTEX
  8
FOREGROUND
  6
CONTINUOUS
 10
0.656138
 20
0.054914
  0
VERTEX
  8
FOREGROUND
  6
CONTINUOUS
 10
0.669652
 20
0.053433
  0
VERTEX
  8
FOREGROUND
  6
CONTINUOUS
 10
0.683244
 20
0.052213
  0
VERTEX
  8
FOREGROUND
  6
CONTINUOUS
 10
0.696911
 20
0.051257
  0
VERTEX
  8
FOREGROUND
  6
CONTINUOUS
 10
0.710649
 20
0.050568
  0
VERTEX
  8
FOREGROUND
  6
CONTINUOUS
 10
0.724458
 20
0.050148
  0
VERTEX
  8
FOREGROUND
  6
CONTINUOUS
 10
0.738333
 20
0.050000
  0
SEQEND
  8
0
  0
ENDSEC
  0
EOF
