  0
SECTION
  2
HEADER
  9
$ACADVER
  1
AC1006
  9
$EXTMIN
 10
0.000000
 20
0.000000
  9
$EXTMAX
 10
2.470000
 20
1.673333
  9
$LTSCALE
 40
0.166667
  9
$PDMODE
 70
    35
  9
$PDSIZE
 40
0.133333
  0
ENDSEC
  0
SECTION
  2
TABLES
  0
TABLE
  2
LTYPE
 70
     9
  0
LTYPE
  2
CONTINUOUS
 70
    64
  3
Solid line
 72
    65
 73
     0
 40
0.000000
  0
LTYPE
  2
DASHED
 70
    64
  3
__ __ __ __ __ __ __ __ __ __ __ __ __ __ __
 72
    65
 73
     2
 40
0.001250
 49
0.000833
 49
-0.000417
  0
LTYPE
  2
HIDDEN
 70
    64
  3
 _ _ _ _ _ _ _ _ _ _ _ _ _ _ _ _ _ _ _ _ _ _
 72
    65
 73
     2
 40
0.000625
 49
0.000417
 49
-0.000208
  0
LTYPE
  2
CENTER
 70
    64
  3
____ _ ____ _ ____ _ ____ _ ____ _ ____ _ ____
 72
    65
 73
     4
 40
0.003333
 49
0.002083
 49
-0.000417
 49
0.000417
 49
-0.000417
  0
LTYPE
  2
PHANTOM
 70
    64
  3
_____ _ _ _____ _ _ _____ _ _ _____ _ _ ____
 72
    65
 73
     6
 40
0.004167
 49
0.002083
 49
-0.000417
 49
0.000417
 49
-0.000417
 49
0.000417
 49
-0.000417
  0
LTYPE
  2
DOT
 70
    64
  3
...............................................
 72
    65
 73
     2
 40
0.000417
 49
0.000000
 49
-0.000417
  0
LTYPE
  2
DASHDOT
 70
    64
  3
__ . __ . __ . __ . __ . __ . __ . __ . __ . __
 72
    65
 73
     4
 40
0.001667
 49
0.000833
 49
-0.000417
 49
0.000000
 49
-0.000417
  0
LTYPE
  2
BORDER
 70
    64
  3
__ __ . __ __ . __ __ . __ __ . __ __ . __ __
 72
    65
 73
     6
 40
0.002917
 49
0.000833
 49
-0.000417
 49
0.000833
 49
-0.000417
 49
0.000000
 49
-0.000417
  0
LTYPE
  2
DIVIDE
 70
    64
  3
__ . . __ . . __ . . __ . . __ . . __ . . __
 72
    65
 73
     6
 40
0.002083
 49
0.000833
 49
-0.000417
 49
0.000000
 49
-0.000417
 49
0.000000
 49
-0.000417
  0
LTYPE
  2
DOTDOT
 70
    64
  3
 . .  . .  . .  . .  . .  . . 
 72
    65
 73
     5
 40
0.000917
 49
-0.000417
 49
0.000000
 49
-0.000417
 49
0.000000
 49
-0.000417
  0
ENDTAB
  0
TABLE
  2
STYLE
 70
     2
  0
STYLE
 70
     0
  2
SN0
 40
0.000000
 41
0.001667
 50
0.000000
 71
     0
 42
0.000000
  3
ROMAND
  0
STYLE
 70
    68
  2
SV0
 40
0.000000
 41
0.001667
 50
0.000000
 71
     0
 42
0.000000
  3
ROMAND
  0
ENDTAB
  0
TABLE
  2
LAYER
 70
     2
  0
LAYER
  2
FOREGROUND
 70
    64
 62
     7
  6
CONTINUOUS
  0
LAYER
  2
BACKGROUND
 70
    65
 62
    -7
  6
CONTINUOUS
  0
ENDTAB
  0
ENDSEC
  0
SECTION
  2
ENTITIES
  0
POLYLINE
  8
FOREGROUND
  6
CONTINUOUS
 66
     1
 40
0.010000
 41
0.010000
 70
     1
  0
VERTEX
  8
FOREGROUND
  6
CONTINUOUS
 10
1.633333
 20
0.050000
  0
VERTEX
  8
FOREGROUND
  6
CONTINUOUS
 10
1.647784
 20
0.050141
  0
VERTEX
  8
FOREGROUND
  6
CONTINUOUS
 10
1.662172
 20
0.050541
  0
VERTEX
  8
FOREGROUND
  6
CONTINUOUS
 10
1.676494
 20
0.051196
  0
VERTEX
  8
FOREGROUND
  6
CONTINUOUS
 10
1.690749
 20
0.052106
  0
VERTEX
  8
FOREGROUND
  6
CONTINUOUS
 10
1.704933
 20
0.053266
  0
VERTEX
  8
FOREGROUND
  6
CONTINUOUS
 10
1.719045
 20
0.054676
  0
VERTEX
  8
FOREGROUND
  6
CONTINUOUS
 10
1.733083
 20
0.056333
  0
VERTEX
  8
FOREGROUND
  6
CONTINUOUS
 10
1.747043
 20
0.058236
  0
VERTEX
  8
FOREGROUND
  6
CONTINUOUS
 10
1.760925
 20
0.060380
  0
VERTEX
  8
FOREGROUND
  6
CONTINUOUS
 10
1.774726
 20
0.062765
  0
VERTEX
  8
FOREGROUND
  6
CONTINUOUS
 10
1.788444
 20
0.065389
  0
VERTEX
  8
FOREGROUND
  6
CONTINUOUS
 10
1.802076
 20
0.068248
  0
VERTEX
  8
FOREGROUND
  6
CONTINUOUS
 10
1.815620
 20
0.071341
  0
VERTEX
  8
FOREGROUND
  6
CONTINUOUS
 10
1.829074
 20
0.074666
  0
VERTEX
  8
FOREGROUND
  6
CONTINUOUS
 10
1.842436
 20
0.078221
  0
VERTEX
  8
FOREGROUND
  6
CONTINUOUS
 10
1.855704
 20
0.082002
  0
VERTEX
  8
FOREGROUND
  6
CONTINUOUS
 10
1.868875
 20
0.086008
  0
VERTEX
  8
FOREGROUND
  6
CONTINUOUS
 10
1.881948
 20
0.090238
  0
VERTEX
  8
FOREGROUND
  6
CONTINUOUS
 10
1.894919
 20
0.094687
  0
VERTEX
  8
FOREGROUND
  6
CONTINUOUS
 10
1.907787
 20
0.099355
  0
VERTEX
  8
FOREGROUND
  6
CONTINUOUS
 10
1.920549
 20
0.104240
  0
VERTEX
  8
FOREGROUND
  6
CONTINUOUS
 10
1.933204
 20
0.109338
  0
VERTEX
  8
FOREGROUND
  6
CONTINUOUS
 10
1.945749
 20
0.114647
  0
VERTEX
  8
FOREGROUND
  6
CONTINUOUS
 10
1.958182
 20
0.120167
  0
VERTEX
  8
FOREGROUND
  6
CONTINUOUS
 10
1.970501
 20
0.125893
  0
VERTEX
  8
FOREGROUND
  6
CONTINUOUS
 10
1.982703
 20
0.131825
  0
VERTEX
  8
FOREGROUND
  6
CONTINUOUS
 10
1.994787
 20
0.137959
  0
VERTEX
  8
FOREGROUND
  6
CONTINUOUS
 10
2.006749
 20
0.144294
  0
VERTEX
  8
FOREGROUND
  6
CONTINUOUS
 10
2.018588
 20
0.150827
  0
VERTEX
  8
FOREGROUND
  6
CONTINUOUS
 10
2.030302
 20
0.157557
  0
VERTEX
  8
FOREGROUND
  6
CONTINUOUS
 10
2.041888
 20
0.164480
  0
VERTEX
  8
FOREGROUND
  6
CONTINUOUS
 10
2.053345
 20
0.171596
  0
VERTEX
  8
FOREGROUND
  6
CONTINUOUS
 10
2.064669
 20
0.178901
  0
VERTEX
  8
FOREGROUND
  6
CONTINUOUS
 10
2.075860
 20
0.186393
  0
VERTEX
  8
FOREGROUND
  6
CONTINUOUS
 10
2.086914
 20
0.194070
  0
VERTEX
  8
FOREGROUND
  6
CONTINUOUS
 10
2.097829
 20
0.201931
  0
VERTEX
  8
FOREGROUND
  6
CONTINUOUS
 10
2.108603
 20
0.209972
  0
VERTEX
  8
FOREGROUND
  6
CONTINUOUS
 10
2.119234
 20
0.218191
  0
VERTEX
  8
FOREGROUND
  6
CONTINUOUS
 10
2.129720
 20
0.226587
  0
VERTEX
  8
FOREGROUND
  6
CONTINUOUS
 10
2.140059
 20
0.235157
  0
VERTEX
  8
FOREGROUND
  6
CONTINUOUS
 10
2.150247
 20
0.243898
  0
VERTEX
  8
FOREGROUND
  6
CONTINUOUS
 10
2.160284
 20
0.252810
  0
VERTEX
  8
FOREGROUND
  6
CONTINUOUS
 10
2.170167
 20
0.261888
  0
VERTEX
  8
FOREGROUND
  6
CONTINUOUS
 10
2.179893
 20
0.271132
  0
VERTEX
  8
FOREGROUND
  6
CONTINUOUS
 10
2.189461
 20
0.280539
  0
VERTEX
  8
FOREGROUND
  6
CONTINUOUS
 10
2.198868
 20
0.290107
  0
VERTEX
  8
FOREGROUND
  6
CONTINUOUS
 10
2.208112
 20
0.299833
  0
VERTEX
  8
FOREGROUND
  6
CONTINUOUS
 10
2.217190
 20
0.309716
  0
VERTEX
  8
FOREGROUND
  6
CONTINUOUS
 10
2.226102
 20
0.319753
  0
VERTEX
  8
FOREGROUND
  6
CONTINUOUS
 10
2.234843
 20
0.329941
  0
VERTEX
  8
FOREGROUND
  6
CONTINUOUS
 10
2.243413
 20
0.340280
  0
VERTEX
  8
FOREGROUND
  6
CONTINUOUS
 10
2.251809
 20
0.350766
  0
VERTEX
  8
FOREGROUND
  6
CONTINUOUS
 10
2.260028
 20
0.361397
  0
VERTEX
  8
FOREGROUND
  6
CONTINUOUS
 10
2.268069
 20
0.372171
  0
VERTEX
  8
FOREGROUND
  6
CONTINUOUS
 10
2.275930
 20
0.383086
  0
VERTEX
  8
FOREGROUND
  6
CONTINUOUS
 10
2.283607
 20
0.394140
  0
VERTEX
  8
FOREGROUND
  6
CONTINUOUS
 10
2.291099
 20
0.405331
  0
VERTEX
  8
FOREGROUND
  6
CONTINUOUS
 10
2.298404
 20
0.416655
  0
VERTEX
  8
FOREGROUND
  6
CONTINUOUS
 10
2.305520
 20
0.428112
  0
VERTEX
  8
FOREGROUND
  6
CONTINUOUS
 10
2.312443
 20
0.439698
  0
VERTEX
  8
FOREGROUND
  6
CONTINUOUS
 10
2.319173
 20
0.451412
  0
VERTEX
  8
FOREGROUND
  6
CONTINUOUS
 10
2.325706
 20
0.463251
  0
VERTEX
  8
FOREGROUND
  6
CONTINUOUS
 10
2.332041
 20
0.475213
  0
VERTEX
  8
FOREGROUND
  6
CONTINUOUS
 10
2.338175
 20
0.487297
  0
VERTEX
  8
FOREGROUND
  6
CONTINUOUS
 10
2.344107
 20
0.499499
  0
VERTEX
  8
FOREGROUND
  6
CONTINUOUS
 10
2.349833
 20
0.511818
  0
VERTEX
  8
FOREGROUND
  6
CONTINUOUS
 10
2.355353
 20
0.524251
  0
VERTEX
  8
FOREGROUND
  6
CONTINUOUS
 10
2.360662
 20
0.536796
  0
VERTEX
  8
FOREGROUND
  6
CONTINUOUS
 10
2.365760
 20
0.549451
  0
VERTEX
  8
FOREGROUND
  6
CONTINUOUS
 10
2.370645
 20
0.562213
  0
VERTEX
  8
FOREGROUND
  6
CONTINUOUS
 10
2.375313
 20
0.575081
  0
VERTEX
  8
FOREGROUND
  6
CONTINUOUS
 10
2.379762
 20
0.588052
  0
VERTEX
  8
FOREGROUND
  6
CONTINUOUS
 10
2.383992
 20
0.601125
  0
VERTEX
  8
FOREGROUND
  6
CONTINUOUS
 10
2.387998
 20
0.614296
  0
VERTEX
  8
FOREGROUND
  6
CONTINUOUS
 10
2.391779
 20
0.627564
  0
VERTEX
  8
FOREGROUND
  6
CONTINUOUS
 10
2.395334
 20
0.640926
  0
VERTEX
  8
FOREGROUND
  6
CONTINUOUS
 10
2.398659
 20
0.654380
  0
VERTEX
  8
FOREGROUND
  6
CONTINUOUS
 10
2.401752
 20
0.667924
  0
VERTEX
  8
FOREGROUND
  6
CONTINUOUS
 10
2.404611
 20
0.681556
  0
VERTEX
  8
FOREGROUND
  6
CONTINUOUS
 10
2.407235
 20
0.695274
  0
VERTEX
  8
FOREGROUND
  6
CONTINUOUS
 10
2.409620
 20
0.709075
  0
VERTEX
  8
FOREGROUND
  6
CONTINUOUS
 10
2.411764
 20
0.722957
  0
VERTEX
  8
FOREGROUND
  6
CONTINUOUS
 10
2.413667
 20
0.736917
  0
VERTEX
  8
FOREGROUND
  6
CONTINUOUS
 10
2.415324
 20
0.750955
  0
VERTEX
  8
FOREGROUND
  6
CONTINUOUS
 10
2.416734
 20
0.765067
  0
VERTEX
  8
FOREGROUND
  6
CONTINUOUS
 10
2.417894
 20
0.779251
  0
VERTEX
  8
FOREGROUND
  6
CONTINUOUS
 10
2.418804
 20
0.793506
  0
VERTEX
  8
FOREGROUND
  6
CONTINUOUS
 10
2.419459
 20
0.807828
  0
VERTEX
  8
FOREGROUND
  6
CONTINUOUS
 10
2.419859
 20
0.822216
  0
VERTEX
  8
FOREGROUND
  6
CONTINUOUS
 10
2.420000
 20
0.836667
  0
VERTEX
  8
FOREGROUND
  6
CONTINUOUS
 10
2.420000
 20
0.836667
  0
VERTEX
  8
FOREGROUND
  6
CONTINUOUS
 10
2.419859
 20
0.851120
  0
VERTEX
  8
FOREGROUND
  6
CONTINUOUS
 10
2.419459
 20
0.865509
  0
VERTEX
  8
FOREGROUND
  6
CONTINUOUS
 10
2.418803
 20
0.879833
  0
VERTEX
  8
FOREGROUND
  6
CONTINUOUS
 10
2.417894
 20
0.894089
  0
VERTEX
  8
FOREGROUND
  6
CONTINUOUS
 10
2.416733
 20
0.908275
  0
VERTEX
  8
FOREGROUND
  6
CONTINUOUS
 10
2.415323
 20
0.922389
  0
VERTEX
  8
FOREGROUND
  6
CONTINUOUS
 10
2.413665
 20
0.936429
  0
VERTEX
  8
FOREGROUND
  6
CONTINUOUS
 10
2.411762
 20
0.950391
  0
VERTEX
  8
FOREGROUND
  6
CONTINUOUS
 10
2.409617
 20
0.964275
  0
VERTEX
  8
FOREGROUND
  6
CONTINUOUS
 10
2.407231
 20
0.978077
  0
VERTEX
  8
FOREGROUND
  6
CONTINUOUS
 10
2.404607
 20
0.991796
  0
VERTEX
  8
FOREGROUND
  6
CONTINUOUS
 10
2.401747
 20
1.005430
  0
VERTEX
  8
FOREGROUND
  6
CONTINUOUS
 10
2.398653
 20
1.018976
  0
VERTEX
  8
FOREGROUND
  6
CONTINUOUS
 10
2.395328
 20
1.032432
  0
VERTEX
  8
FOREGROUND
  6
CONTINUOUS
 10
2.391773
 20
1.045795
  0
VERTEX
  8
FOREGROUND
  6
CONTINUOUS
 10
2.387990
 20
1.059064
  0
VERTEX
  8
FOREGROUND
  6
CONTINUOUS
 10
2.383983
 20
1.072237
  0
VERTEX
  8
FOREGROUND
  6
CONTINUOUS
 10
2.379753
 20
1.085310
  0
VERTEX
  8
FOREGROUND
  6
CONTINUOUS
 10
2.375302
 20
1.098283
  0
VERTEX
  8
FOREGROUND
  6
CONTINUOUS
 10
2.370633
 20
1.111152
  0
VERTEX
  8
FOREGROUND
  6
CONTINUOUS
 10
2.365747
 20
1.123916
  0
VERTEX
  8
FOREGROUND
  6
CONTINUOUS
 10
2.360648
 20
1.136572
  0
VERTEX
  8
FOREGROUND
  6
CONTINUOUS
 10
2.355337
 20
1.149119
  0
VERTEX
  8
FOREGROUND
  6
CONTINUOUS
 10
2.349817
 20
1.161553
  0
VERTEX
  8
FOREGROUND
  6
CONTINUOUS
 10
2.344089
 20
1.173873
  0
VERTEX
  8
FOREGROUND
  6
CONTINUOUS
 10
2.338156
 20
1.186076
  0
VERTEX
  8
FOREGROUND
  6
CONTINUOUS
 10
2.332020
 20
1.198160
  0
VERTEX
  8
FOREGROUND
  6
CONTINUOUS
 10
2.325684
 20
1.210124
  0
VERTEX
  8
FOREGROUND
  6
CONTINUOUS
 10
2.319149
 20
1.221964
  0
VERTEX
  8
FOREGROUND
  6
CONTINUOUS
 10
2.312418
 20
1.233679
  0
VERTEX
  8
FOREGROUND
  6
CONTINUOUS
 10
2.305493
 20
1.245266
  0
VERTEX
  8
FOREGROUND
  6
CONTINUOUS
 10
2.298376
 20
1.256723
  0
VERTEX
  8
FOREGROUND
  6
CONTINUOUS
 10
2.291069
 20
1.268048
  0
VERTEX
  8
FOREGROUND
  6
CONTINUOUS
 10
2.283576
 20
1.279239
  0
VERTEX
  8
FOREGROUND
  6
CONTINUOUS
 10
2.275897
 20
1.290294
  0
VERTEX
  8
FOREGROUND
  6
CONTINUOUS
 10
2.268035
 20
1.301210
  0
VERTEX
  8
FOREGROUND
  6
CONTINUOUS
 10
2.259992
 20
1.311985
  0
VERTEX
  8
FOREGROUND
  6
CONTINUOUS
 10
2.251771
 20
1.322617
  0
VERTEX
  8
FOREGROUND
  6
CONTINUOUS
 10
2.243373
 20
1.333103
  0
VERTEX
  8
FOREGROUND
  6
CONTINUOUS
 10
2.234801
 20
1.343442
  0
VERTEX
  8
FOREGROUND
  6
CONTINUOUS
 10
2.226058
 20
1.353631
  0
VERTEX
  8
FOREGROUND
  6
CONTINUOUS
 10
2.217145
 20
1.363668
  0
VERTEX
  8
FOREGROUND
  6
CONTINUOUS
 10
2.208064
 20
1.373551
  0
VERTEX
  8
FOREGROUND
  6
CONTINUOUS
 10
2.198818
 20
1.383278
  0
VERTEX
  8
FOREGROUND
  6
CONTINUOUS
 10
2.189409
 20
1.392846
  0
VERTEX
  8
FOREGROUND
  6
CONTINUOUS
 10
2.179840
 20
1.402253
  0
VERTEX
  8
FOREGROUND
  6
CONTINUOUS
 10
2.170111
 20
1.411497
  0
VERTEX
  8
FOREGROUND
  6
CONTINUOUS
 10
2.160227
 20
1.420576
  0
VERTEX
  8
FOREGROUND
  6
CONTINUOUS
 10
2.150188
 20
1.429487
  0
VERTEX
  8
FOREGROUND
  6
CONTINUOUS
 10
2.139997
 20
1.438229
  0
VERTEX
  8
FOREGROUND
  6
CONTINUOUS
 10
2.129657
 20
1.446798
  0
VERTEX
  8
FOREGROUND
  6
CONTINUOUS
 10
2.119169
 20
1.455194
  0
VERTEX
  8
FOREGROUND
  6
CONTINUOUS
 10
2.108535
 20
1.463413
  0
VERTEX
  8
FOREGROUND
  6
CONTINUOUS
 10
2.097759
 20
1.471454
  0
VERTEX
  8
FOREGROUND
  6
CONTINUOUS
 10
2.086842
 20
1.479314
  0
VERTEX
  8
FOREGROUND
  6
CONTINUOUS
 10
2.075786
 20
1.486991
  0
VERTEX
  8
FOREGROUND
  6
CONTINUOUS
 10
2.064593
 20
1.494483
  0
VERTEX
  8
FOREGROUND
  6
CONTINUOUS
 10
2.053267
 20
1.501787
  0
VERTEX
  8
FOREGROUND
  6
CONTINUOUS
 10
2.041808
 20
1.508902
  0
VERTEX
  8
FOREGROUND
  6
CONTINUOUS
 10
2.030219
 20
1.515825
  0
VERTEX
  8
FOREGROUND
  6
CONTINUOUS
 10
2.018503
 20
1.522554
  0
VERTEX
  8
FOREGROUND
  6
CONTINUOUS
 10
2.006662
 20
1.529086
  0
VERTEX
  8
FOREGROUND
  6
CONTINUOUS
 10
1.994697
 20
1.535421
  0
VERTEX
  8
FOREGROUND
  6
CONTINUOUS
 10
1.982612
 20
1.541554
  0
VERTEX
  8
FOREGROUND
  6
CONTINUOUS
 10
1.970407
 20
1.547485
  0
VERTEX
  8
FOREGROUND
  6
CONTINUOUS
 10
1.958087
 20
1.553210
  0
VERTEX
  8
FOREGROUND
  6
CONTINUOUS
 10
1.945652
 20
1.558728
  0
VERTEX
  8
FOREGROUND
  6
CONTINUOUS
 10
1.933104
 20
1.564037
  0
VERTEX
  8
FOREGROUND
  6
CONTINUOUS
 10
1.920447
 20
1.569134
  0
VERTEX
  8
FOREGROUND
  6
CONTINUOUS
 10
1.907682
 20
1.574017
  0
VERTEX
  8
FOREGROUND
  6
CONTINUOUS
 10
1.894812
 20
1.578684
  0
VERTEX
  8
FOREGROUND
  6
CONTINUOUS
 10
1.881839
 20
1.583132
  0
VERTEX
  8
FOREGROUND
  6
CONTINUOUS
 10
1.868764
 20
1.587360
  0
VERTEX
  8
FOREGROUND
  6
CONTINUOUS
 10
1.855591
 20
1.591365
  0
VERTEX
  8
FOREGROUND
  6
CONTINUOUS
 10
1.842321
 20
1.595145
  0
VERTEX
  8
FOREGROUND
  6
CONTINUOUS
 10
1.828957
 20
1.598697
  0
VERTEX
  8
FOREGROUND
  6
CONTINUOUS
 10
1.815501
 20
1.602020
  0
VERTEX
  8
FOREGROUND
  6
CONTINUOUS
 10
1.801954
 20
1.605112
  0
VERTEX
  8
FOREGROUND
  6
CONTINUOUS
 10
1.788320
 20
1.607970
  0
VERTEX
  8
FOREGROUND
  6
CONTINUOUS
 10
1.774600
 20
1.610591
  0
VERTEX
  8
FOREGROUND
  6
CONTINUOUS
 10
1.760798
 20
1.612974
  0
VERTEX
  8
FOREGROUND
  6
CONTINUOUS
 10
1.746914
 20
1.615117
  0
VERTEX
  8
FOREGROUND
  6
CONTINUOUS
 10
1.732951
 20
1.617017
  0
VERTEX
  8
FOREGROUND
  6
CONTINUOUS
 10
1.718911
 20
1.618672
  0
VERTEX
  8
FOREGROUND
  6
CONTINUOUS
 10
1.704797
 20
1.620079
  0
VERTEX
  8
FOREGROUND
  6
CONTINUOUS
 10
1.690611
 20
1.621238
  0
VERTEX
  8
FOREGROUND
  6
CONTINUOUS
 10
1.676354
 20
1.622145
  0
VERTEX
  8
FOREGROUND
  6
CONTINUOUS
 10
1.662030
 20
1.622798
  0
VERTEX
  8
FOREGROUND
  6
CONTINUOUS
 10
1.647641
 20
1.623195
  0
VERTEX
  8
FOREGROUND
  6
CONTINUOUS
 10
1.633188
 20
1.623333
  0
VERTEX
  8
FOREGROUND
  6
CONTINUOUS
 10
0.836521
 20
1.623333
  0
VERTEX
  8
FOREGROUND
  6
CONTINUOUS
 10
0.822072
 20
1.623189
  0
VERTEX
  8
FOREGROUND
  6
CONTINUOUS
 10
0.807686
 20
1.622787
  0
VERTEX
  8
FOREGROUND
  6
CONTINUOUS
 10
0.793366
 20
1.622129
  0
VERTEX
  8
FOREGROUND
  6
CONTINUOUS
 10
0.779113
 20
1.621218
  0
VERTEX
  8
FOREGROUND
  6
CONTINUOUS
 10
0.764931
 20
1.620055
  0
VERTEX
  8
FOREGROUND
  6
CONTINUOUS
 10
0.750821
 20
1.618642
  0
VERTEX
  8
FOREGROUND
  6
CONTINUOUS
 10
0.736785
 20
1.616983
  0
VERTEX
  8
FOREGROUND
  6
CONTINUOUS
 10
0.722827
 20
1.615079
  0
VERTEX
  8
FOREGROUND
  6
CONTINUOUS
 10
0.708947
 20
1.612932
  0
VERTEX
  8
FOREGROUND
  6
CONTINUOUS
 10
0.695148
 20
1.610545
  0
VERTEX
  8
FOREGROUND
  6
CONTINUOUS
 10
0.681433
 20
1.607920
  0
VERTEX
  8
FOREGROUND
  6
CONTINUOUS
 10
0.667803
 20
1.605058
  0
VERTEX
  8
FOREGROUND
  6
CONTINUOUS
 10
0.654261
 20
1.601963
  0
VERTEX
  8
FOREGROUND
  6
CONTINUOUS
 10
0.640808
 20
1.598637
  0
VERTEX
  8
FOREGROUND
  6
CONTINUOUS
 10
0.627448
 20
1.595081
  0
VERTEX
  8
FOREGROUND
  6
CONTINUOUS
 10
0.614183
 20
1.591298
  0
VERTEX
  8
FOREGROUND
  6
CONTINUOUS
 10
0.601014
 20
1.587290
  0
VERTEX
  8
FOREGROUND
  6
CONTINUOUS
 10
0.587944
 20
1.583059
  0
VERTEX
  8
FOREGROUND
  6
CONTINUOUS
 10
0.574975
 20
1.578608
  0
VERTEX
  8
FOREGROUND
  6
CONTINUOUS
 10
0.562109
 20
1.573939
  0
VERTEX
  8
FOREGROUND
  6
CONTINUOUS
 10
0.549348
 20
1.569054
  0
VERTEX
  8
FOREGROUND
  6
CONTINUOUS
 10
0.536696
 20
1.563954
  0
VERTEX
  8
FOREGROUND
  6
CONTINUOUS
 10
0.524153
 20
1.558643
  0
VERTEX
  8
FOREGROUND
  6
CONTINUOUS
 10
0.511722
 20
1.553123
  0
VERTEX
  8
FOREGROUND
  6
CONTINUOUS
 10
0.499405
 20
1.547396
  0
VERTEX
  8
FOREGROUND
  6
CONTINUOUS
 10
0.487206
 20
1.541463
  0
VERTEX
  8
FOREGROUND
  6
CONTINUOUS
 10
0.475124
 20
1.535328
  0
VERTEX
  8
FOREGROUND
  6
CONTINUOUS
 10
0.463164
 20
1.528992
  0
VERTEX
  8
FOREGROUND
  6
CONTINUOUS
 10
0.451327
 20
1.522458
  0
VERTEX
  8
FOREGROUND
  6
CONTINUOUS
 10
0.439615
 20
1.515728
  0
VERTEX
  8
FOREGROUND
  6
CONTINUOUS
 10
0.428031
 20
1.508804
  0
VERTEX
  8
FOREGROUND
  6
CONTINUOUS
 10
0.416577
 20
1.501688
  0
VERTEX
  8
FOREGROUND
  6
CONTINUOUS
 10
0.405254
 20
1.494383
  0
VERTEX
  8
FOREGROUND
  6
CONTINUOUS
 10
0.394066
 20
1.486890
  0
VERTEX
  8
FOREGROUND
  6
CONTINUOUS
 10
0.383014
 20
1.479212
  0
VERTEX
  8
FOREGROUND
  6
CONTINUOUS
 10
0.372101
 20
1.471352
  0
VERTEX
  8
FOREGROUND
  6
CONTINUOUS
 10
0.361329
 20
1.463310
  0
VERTEX
  8
FOREGROUND
  6
CONTINUOUS
 10
0.350700
 20
1.455091
  0
VERTEX
  8
FOREGROUND
  6
CONTINUOUS
 10
0.340216
 20
1.446695
  0
VERTEX
  8
FOREGROUND
  6
CONTINUOUS
 10
0.329880
 20
1.438125
  0
VERTEX
  8
FOREGROUND
  6
CONTINUOUS
 10
0.319693
 20
1.429383
  0
VERTEX
  8
FOREGROUND
  6
CONTINUOUS
 10
0.309658
 20
1.420472
  0
VERTEX
  8
FOREGROUND
  6
CONTINUOUS
 10
0.299778
 20
1.411393
  0
VERTEX
  8
FOREGROUND
  6
CONTINUOUS
 10
0.290053
 20
1.402149
  0
VERTEX
  8
FOREGROUND
  6
CONTINUOUS
 10
0.280488
 20
1.392743
  0
VERTEX
  8
FOREGROUND
  6
CONTINUOUS
 10
0.271083
 20
1.383175
  0
VERTEX
  8
FOREGROUND
  6
CONTINUOUS
 10
0.261841
 20
1.373449
  0
VERTEX
  8
FOREGROUND
  6
CONTINUOUS
 10
0.252764
 20
1.363567
  0
VERTEX
  8
FOREGROUND
  6
CONTINUOUS
 10
0.243854
 20
1.353530
  0
VERTEX
  8
FOREGROUND
  6
CONTINUOUS
 10
0.235115
 20
1.343342
  0
VERTEX
  8
FOREGROUND
  6
CONTINUOUS
 10
0.226547
 20
1.333004
  0
VERTEX
  8
FOREGROUND
  6
CONTINUOUS
 10
0.218153
 20
1.322519
  0
VERTEX
  8
FOREGROUND
  6
CONTINUOUS
 10
0.209935
 20
1.311888
  0
VERTEX
  8
FOREGROUND
  6
CONTINUOUS
 10
0.201896
 20
1.301114
  0
VERTEX
  8
FOREGROUND
  6
CONTINUOUS
 10
0.194037
 20
1.290200
  0
VERTEX
  8
FOREGROUND
  6
CONTINUOUS
 10
0.186361
 20
1.279147
  0
VERTEX
  8
FOREGROUND
  6
CONTINUOUS
 10
0.178871
 20
1.267957
  0
VERTEX
  8
FOREGROUND
  6
CONTINUOUS
 10
0.171567
 20
1.256633
  0
VERTEX
  8
FOREGROUND
  6
CONTINUOUS
 10
0.164454
 20
1.245178
  0
VERTEX
  8
FOREGROUND
  6
CONTINUOUS
 10
0.157532
 20
1.233592
  0
VERTEX
  8
FOREGROUND
  6
CONTINUOUS
 10
0.150804
 20
1.221879
  0
VERTEX
  8
FOREGROUND
  6
CONTINUOUS
 10
0.144272
 20
1.210041
  0
VERTEX
  8
FOREGROUND
  6
CONTINUOUS
 10
0.137938
 20
1.198080
  0
VERTEX
  8
FOREGROUND
  6
CONTINUOUS
 10
0.131805
 20
1.185997
  0
VERTEX
  8
FOREGROUND
  6
CONTINUOUS
 10
0.125875
 20
1.173796
  0
VERTEX
  8
FOREGROUND
  6
CONTINUOUS
 10
0.120150
 20
1.161479
  0
VERTEX
  8
FOREGROUND
  6
CONTINUOUS
 10
0.114632
 20
1.149047
  0
VERTEX
  8
FOREGROUND
  6
CONTINUOUS
 10
0.109323
 20
1.136503
  0
VERTEX
  8
FOREGROUND
  6
CONTINUOUS
 10
0.104227
 20
1.123849
  0
VERTEX
  8
FOREGROUND
  6
CONTINUOUS
 10
0.099344
 20
1.111088
  0
VERTEX
  8
FOREGROUND
  6
CONTINUOUS
 10
0.094677
 20
1.098221
  0
VERTEX
  8
FOREGROUND
  6
CONTINUOUS
 10
0.090228
 20
1.085251
  0
VERTEX
  8
FOREGROUND
  6
CONTINUOUS
 10
0.086000
 20
1.072180
  0
VERTEX
  8
FOREGROUND
  6
CONTINUOUS
 10
0.081994
 20
1.059011
  0
VERTEX
  8
FOREGROUND
  6
CONTINUOUS
 10
0.078214
 20
1.045744
  0
VERTEX
  8
FOREGROUND
  6
CONTINUOUS
 10
0.074660
 20
1.032384
  0
VERTEX
  8
FOREGROUND
  6
CONTINUOUS
 10
0.071336
 20
1.018931
  0
VERTEX
  8
FOREGROUND
  6
CONTINUOUS
 10
0.068244
 20
1.005388
  0
VERTEX
  8
FOREGROUND
  6
CONTINUOUS
 10
0.065385
 20
0.991758
  0
VERTEX
  8
FOREGROUND
  6
CONTINUOUS
 10
0.062762
 20
0.978042
  0
VERTEX
  8
FOREGROUND
  6
CONTINUOUS
 10
0.060378
 20
0.964243
  0
VERTEX
  8
FOREGROUND
  6
CONTINUOUS
 10
0.058233
 20
0.950362
  0
VERTEX
  8
FOREGROUND
  6
CONTINUOUS
 10
0.056332
 20
0.936403
  0
VERTEX
  8
FOREGROUND
  6
CONTINUOUS
 10
0.054675
 20
0.922367
  0
VERTEX
  8
FOREGROUND
  6
CONTINUOUS
 10
0.053265
 20
0.908257
  0
VERTEX
  8
FOREGROUND
  6
CONTINUOUS
 10
0.052105
 20
0.894075
  0
VERTEX
  8
FOREGROUND
  6
CONTINUOUS
 10
0.051196
 20
0.879822
  0
VERTEX
  8
FOREGROUND
  6
CONTINUOUS
 10
0.050541
 20
0.865502
  0
VERTEX
  8
FOREGROUND
  6
CONTINUOUS
 10
0.050141
 20
0.851116
  0
VERTEX
  8
FOREGROUND
  6
CONTINUOUS
 10
0.050000
 20
0.836667
  0
VERTEX
  8
FOREGROUND
  6
CONTINUOUS
 10
0.050000
 20
0.836667
  0
VERTEX
  8
FOREGROUND
  6
CONTINUOUS
 10
0.050141
 20
0.822216
  0
VERTEX
  8
FOREGROUND
  6
CONTINUOUS
 10
0.050541
 20
0.807828
  0
VERTEX
  8
FOREGROUND
  6
CONTINUOUS
 10
0.051196
 20
0.793506
  0
VERTEX
  8
FOREGROUND
  6
CONTINUOUS
 10
0.052106
 20
0.779251
  0
VERTEX
  8
FOREGROUND
  6
CONTINUOUS
 10
0.053266
 20
0.765067
  0
VERTEX
  8
FOREGROUND
  6
CONTINUOUS
 10
0.054676
 20
0.750955
  0
VERTEX
  8
FOREGROUND
  6
CONTINUOUS
 10
0.056333
 20
0.736917
  0
VERTEX
  8
FOREGROUND
  6
CONTINUOUS
 10
0.058236
 20
0.722957
  0
VERTEX
  8
FOREGROUND
  6
CONTINUOUS
 10
0.060380
 20
0.709075
  0
VERTEX
  8
FOREGROUND
  6
CONTINUOUS
 10
0.062765
 20
0.695274
  0
VERTEX
  8
FOREGROUND
  6
CONTINUOUS
 10
0.065389
 20
0.681556
  0
VERTEX
  8
FOREGROUND
  6
CONTINUOUS
 10
0.068248
 20
0.667924
  0
VERTEX
  8
FOREGROUND
  6
CONTINUOUS
 10
0.071341
 20
0.654380
  0
VERTEX
  8
FOREGROUND
  6
CONTINUOUS
 10
0.074666
 20
0.640926
  0
VERTEX
  8
FOREGROUND
  6
CONTINUOUS
 10
0.078221
 20
0.627564
  0
VERTEX
  8
FOREGROUND
  6
CONTINUOUS
 10
0.082002
 20
0.614296
  0
VERTEX
  8
FOREGROUND
  6
CONTINUOUS
 10
0.086008
 20
0.601125
  0
VERTEX
  8
FOREGROUND
  6
CONTINUOUS
 10
0.090238
 20
0.588052
  0
VERTEX
  8
FOREGROUND
  6
CONTINUOUS
 10
0.094687
 20
0.575081
  0
VERTEX
  8
FOREGROUND
  6
CONTINUOUS
 10
0.099355
 20
0.562213
  0
VERTEX
  8
FOREGROUND
  6
CONTINUOUS
 10
0.104240
 20
0.549451
  0
VERTEX
  8
FOREGROUND
  6
CONTINUOUS
 10
0.109338
 20
0.536796
  0
VERTEX
  8
FOREGROUND
  6
CONTINUOUS
 10
0.114647
 20
0.524251
  0
VERTEX
  8
FOREGROUND
  6
CONTINUOUS
 10
0.120167
 20
0.511818
  0
VERTEX
  8
FOREGROUND
  6
CONTINUOUS
 10
0.125893
 20
0.499499
  0
VERTEX
  8
FOREGROUND
  6
CONTINUOUS
 10
0.131825
 20
0.487297
  0
VERTEX
  8
FOREGROUND
  6
CONTINUOUS
 10
0.137959
 20
0.475213
  0
VERTEX
  8
FOREGROUND
  6
CONTINUOUS
 10
0.144294
 20
0.463251
  0
VERTEX
  8
FOREGROUND
  6
CONTINUOUS
 10
0.150827
 20
0.451412
  0
VERTEX
  8
FOREGROUND
  6
CONTINUOUS
 10
0.157557
 20
0.439698
  0
VERTEX
  8
FOREGROUND
  6
CONTINUOUS
 10
0.164480
 20
0.428112
  0
VERTEX
  8
FOREGROUND
  6
CONTINUOUS
 10
0.171596
 20
0.416655
  0
VERTEX
  8
FOREGROUND
  6
CONTINUOUS
 10
0.178901
 20
0.405331
  0
VERTEX
  8
FOREGROUND
  6
CONTINUOUS
 10
0.186393
 20
0.394140
  0
VERTEX
  8
FOREGROUND
  6
CONTINUOUS
 10
0.194070
 20
0.383086
  0
VERTEX
  8
FOREGROUND
  6
CONTINUOUS
 10
0.201931
 20
0.372171
  0
VERTEX
  8
FOREGROUND
  6
CONTINUOUS
 10
0.209972
 20
0.361397
  0
VERTEX
  8
FOREGROUND
  6
CONTINUOUS
 10
0.218191
 20
0.350766
  0
VERTEX
  8
FOREGROUND
  6
CONTINUOUS
 10
0.226587
 20
0.340280
  0
VERTEX
  8
FOREGROUND
  6
CONTINUOUS
 10
0.235157
 20
0.329941
  0
VERTEX
  8
FOREGROUND
  6
CONTINUOUS
 10
0.243898
 20
0.319753
  0
VERTEX
  8
FOREGROUND
  6
CONTINUOUS
 10
0.252810
 20
0.309716
  0
VERTEX
  8
FOREGROUND
  6
CONTINUOUS
 10
0.261888
 20
0.299833
  0
VERTEX
  8
FOREGROUND
  6
CONTINUOUS
 10
0.271132
 20
0.290107
  0
VERTEX
  8
FOREGROUND
  6
CONTINUOUS
 10
0.280539
 20
0.280539
  0
VERTEX
  8
FOREGROUND
  6
CONTINUOUS
 10
0.290107
 20
0.271132
  0
VERTEX
  8
FOREGROUND
  6
CONTINUOUS
 10
0.299833
 20
0.261888
  0
VERTEX
  8
FOREGROUND
  6
CONTINUOUS
 10
0.309716
 20
0.252810
  0
VERTEX
  8
FOREGROUND
  6
CONTINUOUS
 10
0.319753
 20
0.243898
  0
VERTEX
  8
FOREGROUND
  6
CONTINUOUS
 10
0.329941
 20
0.235157
  0
VERTEX
  8
FOREGROUND
  6
CONTINUOUS
 10
0.340280
 20
0.226587
  0
VERTEX
  8
FOREGROUND
  6
CONTINUOUS
 10
0.350766
 20
0.218191
  0
VERTEX
  8
FOREGROUND
  6
CONTINUOUS
 10
0.361397
 20
0.209972
  0
VERTEX
  8
FOREGROUND
  6
CONTINUOUS
 10
0.372171
 20
0.201931
  0
VERTEX
  8
FOREGROUND
  6
CONTINUOUS
 10
0.383086
 20
0.194070
  0
VERTEX
  8
FOREGROUND
  6
CONTINUOUS
 10
0.394140
 20
0.186393
  0
VERTEX
  8
FOREGROUND
  6
CONTINUOUS
 10
0.405331
 20
0.178901
  0
VERTEX
  8
FOREGROUND
  6
CONTINUOUS
 10
0.416655
 20
0.171596
  0
VERTEX
  8
FOREGROUND
  6
CONTINUOUS
 10
0.428112
 20
0.164480
  0
VERTEX
  8
FOREGROUND
  6
CONTINUOUS
 10
0.439698
 20
0.157557
  0
VERTEX
  8
FOREGROUND
  6
CONTINUOUS
 10
0.451412
 20
0.150827
  0
VERTEX
  8
FOREGROUND
  6
CONTINUOUS
 10
0.463251
 20
0.144294
  0
VERTEX
  8
FOREGROUND
  6
CONTINUOUS
 10
0.475213
 20
0.137959
  0
VERTEX
  8
FOREGROUND
  6
CONTINUOUS
 10
0.487297
 20
0.131825
  0
VERTEX
  8
FOREGROUND
  6
CONTINUOUS
 10
0.499499
 20
0.125893
  0
VERTEX
  8
FOREGROUND
  6
CONTINUOUS
 10
0.511818
 20
0.120167
  0
VERTEX
  8
FOREGROUND
  6
CONTINUOUS
 10
0.524251
 20
0.114647
  0
VERTEX
  8
FOREGROUND
  6
CONTINUOUS
 10
0.536796
 20
0.109338
  0
VERTEX
  8
FOREGROUND
  6
CONTINUOUS
 10
0.549451
 20
0.104240
  0
VERTEX
  8
FOREGROUND
  6
CONTINUOUS
 10
0.562213
 20
0.099355
  0
VERTEX
  8
FOREGROUND
  6
CONTINUOUS
 10
0.575081
 20
0.094687
  0
VERTEX
  8
FOREGROUND
  6
CONTINUOUS
 10
0.588052
 20
0.090238
  0
VERTEX
  8
FOREGROUND
  6
CONTINUOUS
 10
0.601125
 20
0.086008
  0
VERTEX
  8
FOREGROUND
  6
CONTINUOUS
 10
0.614296
 20
0.082002
  0
VERTEX
  8
FOREGROUND
  6
CONTINUOUS
 10
0.627564
 20
0.078221
  0
VERTEX
  8
FOREGROUND
  6
CONTINUOUS
 10
0.640926
 20
0.074666
  0
VERTEX
  8
FOREGROUND
  6
CONTINUOUS
 10
0.654380
 20
0.071341
  0
VERTEX
  8
FOREGROUND
  6
CONTINUOUS
 10
0.667924
 20
0.068248
  0
VERTEX
  8
FOREGROUND
  6
CONTINUOUS
 10
0.681556
 20
0.065389
  0
VERTEX
  8
FOREGROUND
  6
CONTINUOUS
 10
0.695274
 20
0.062765
  0
VERTEX
  8
FOREGROUND
  6
CONTINUOUS
 10
0.709075
 20
0.060380
  0
VERTEX
  8
FOREGROUND
  6
CONTINUOUS
 10
0.722957
 20
0.058236
  0
VERTEX
  8
FOREGROUND
  6
CONTINUOUS
 10
0.736917
 20
0.056333
  0
VERTEX
  8
FOREGROUND
  6
CONTINUOUS
 10
0.750955
 20
0.054676
  0
VERTEX
  8
FOREGROUND
  6
CONTINUOUS
 10
0.765067
 20
0.053266
  0
VERTEX
  8
FOREGROUND
  6
CONTINUOUS
 10
0.779251
 20
0.052106
  0
VERTEX
  8
FOREGROUND
  6
CONTINUOUS
 10
0.793506
 20
0.051196
  0
VERTEX
  8
FOREGROUND
  6
CONTINUOUS
 10
0.807828
 20
0.050541
  0
VERTEX
  8
FOREGROUND
  6
CONTINUOUS
 10
0.822216
 20
0.050141
  0
VERTEX
  8
FOREGROUND
  6
CONTINUOUS
 10
0.836667
 20
0.050000
  0
SEQEND
  8
0
  0
ENDSEC
  0
EOF
