  0
SECTION
  2
HEADER
  9
$ACADVER
  1
AC1006
  9
$EXTMIN
 10
0.000000
 20
0.000000
  9
$EXTMAX
 10
2.865000
 20
1.280000
  9
$LTSCALE
 40
0.166667
  9
$PDMODE
 70
    35
  9
$PDSIZE
 40
0.133333
  0
ENDSEC
  0
SECTION
  2
TABLES
  0
TABLE
  2
LTYPE
 70
     9
  0
LTYPE
  2
CONTINUOUS
 70
    64
  3
Solid line
 72
    65
 73
     0
 40
0.000000
  0
LTYPE
  2
DASHED
 70
    64
  3
__ __ __ __ __ __ __ __ __ __ __ __ __ __ __
 72
    65
 73
     2
 40
0.001250
 49
0.000833
 49
-0.000417
  0
LTYPE
  2
HIDDEN
 70
    64
  3
 _ _ _ _ _ _ _ _ _ _ _ _ _ _ _ _ _ _ _ _ _ _
 72
    65
 73
     2
 40
0.000625
 49
0.000417
 49
-0.000208
  0
LTYPE
  2
CENTER
 70
    64
  3
____ _ ____ _ ____ _ ____ _ ____ _ ____ _ ____
 72
    65
 73
     4
 40
0.003333
 49
0.002083
 49
-0.000417
 49
0.000417
 49
-0.000417
  0
LTYPE
  2
PHANTOM
 70
    64
  3
_____ _ _ _____ _ _ _____ _ _ _____ _ _ ____
 72
    65
 73
     6
 40
0.004167
 49
0.002083
 49
-0.000417
 49
0.000417
 49
-0.000417
 49
0.000417
 49
-0.000417
  0
LTYPE
  2
DOT
 70
    64
  3
...............................................
 72
    65
 73
     2
 40
0.000417
 49
0.000000
 49
-0.000417
  0
LTYPE
  2
DASHDOT
 70
    64
  3
__ . __ . __ . __ . __ . __ . __ . __ . __ . __
 72
    65
 73
     4
 40
0.001667
 49
0.000833
 49
-0.000417
 49
0.000000
 49
-0.000417
  0
LTYPE
  2
BORDER
 70
    64
  3
__ __ . __ __ . __ __ . __ __ . __ __ . __ __
 72
    65
 73
     6
 40
0.002917
 49
0.000833
 49
-0.000417
 49
0.000833
 49
-0.000417
 49
0.000000
 49
-0.000417
  0
LTYPE
  2
DIVIDE
 70
    64
  3
__ . . __ . . __ . . __ . . __ . . __ . . __
 72
    65
 73
     6
 40
0.002083
 49
0.000833
 49
-0.000417
 49
0.000000
 49
-0.000417
 49
0.000000
 49
-0.000417
  0
LTYPE
  2
DOTDOT
 70
    64
  3
 . .  . .  . .  . .  . .  . . 
 72
    65
 73
     5
 40
0.000917
 49
-0.000417
 49
0.000000
 49
-0.000417
 49
0.000000
 49
-0.000417
  0
ENDTAB
  0
TABLE
  2
STYLE
 70
     2
  0
STYLE
 70
     0
  2
SN0
 40
0.000000
 41
0.001667
 50
0.000000
 71
     0
 42
0.000000
  3
ROMAND
  0
STYLE
 70
    68
  2
SV0
 40
0.000000
 41
0.001667
 50
0.000000
 71
     0
 42
0.000000
  3
ROMAND
  0
ENDTAB
  0
TABLE
  2
LAYER
 70
     2
  0
LAYER
  2
FOREGROUND
 70
    64
 62
     7
  6
CONTINUOUS
  0
LAYER
  2
BACKGROUND
 70
    65
 62
    -7
  6
CONTINUOUS
  0
ENDTAB
  0
ENDSEC
  0
SECTION
  2
ENTITIES
  0
POLYLINE
  8
FOREGROUND
  6
CONTINUOUS
 66
     1
 40
0.010000
 41
0.010000
 70
     1
  0
VERTEX
  8
FOREGROUND
  6
CONTINUOUS
 10
2.225000
 20
0.050000
  0
VERTEX
  8
FOREGROUND
  6
CONTINUOUS
 10
2.240228
 20
0.050204
  0
VERTEX
  8
FOREGROUND
  6
CONTINUOUS
 10
2.255361
 20
0.050791
  0
VERTEX
  8
FOREGROUND
  6
CONTINUOUS
 10
2.270393
 20
0.051754
  0
VERTEX
  8
FOREGROUND
  6
CONTINUOUS
 10
2.285321
 20
0.053089
  0
VERTEX
  8
FOREGROUND
  6
CONTINUOUS
 10
2.300140
 20
0.054792
  0
VERTEX
  8
FOREGROUND
  6
CONTINUOUS
 10
2.314845
 20
0.056858
  0
VERTEX
  8
FOREGROUND
  6
CONTINUOUS
 10
2.329431
 20
0.059283
  0
VERTEX
  8
FOREGROUND
  6
CONTINUOUS
 10
2.343895
 20
0.062061
  0
VERTEX
  8
FOREGROUND
  6
CONTINUOUS
 10
2.358231
 20
0.065189
  0
VERTEX
  8
FOREGROUND
  6
CONTINUOUS
 10
2.372434
 20
0.068661
  0
VERTEX
  8
FOREGROUND
  6
CONTINUOUS
 10
2.386501
 20
0.072474
  0
VERTEX
  8
FOREGROUND
  6
CONTINUOUS
 10
2.400426
 20
0.076622
  0
VERTEX
  8
FOREGROUND
  6
CONTINUOUS
 10
2.414205
 20
0.081100
  0
VERTEX
  8
FOREGROUND
  6
CONTINUOUS
 10
2.427833
 20
0.085905
  0
VERTEX
  8
FOREGROUND
  6
CONTINUOUS
 10
2.441305
 20
0.091031
  0
VERTEX
  8
FOREGROUND
  6
CONTINUOUS
 10
2.454618
 20
0.096475
  0
VERTEX
  8
FOREGROUND
  6
CONTINUOUS
 10
2.467766
 20
0.102230
  0
VERTEX
  8
FOREGROUND
  6
CONTINUOUS
 10
2.480745
 20
0.108294
  0
VERTEX
  8
FOREGROUND
  6
CONTINUOUS
 10
2.493550
 20
0.114660
  0
VERTEX
  8
FOREGROUND
  6
CONTINUOUS
 10
2.506177
 20
0.121325
  0
VERTEX
  8
FOREGROUND
  6
CONTINUOUS
 10
2.518620
 20
0.128284
  0
VERTEX
  8
FOREGROUND
  6
CONTINUOUS
 10
2.530876
 20
0.135532
  0
VERTEX
  8
FOREGROUND
  6
CONTINUOUS
 10
2.542940
 20
0.143064
  0
VERTEX
  8
FOREGROUND
  6
CONTINUOUS
 10
2.554806
 20
0.150877
  0
VERTEX
  8
FOREGROUND
  6
CONTINUOUS
 10
2.566471
 20
0.158965
  0
VERTEX
  8
FOREGROUND
  6
CONTINUOUS
 10
2.577930
 20
0.167324
  0
VERTEX
  8
FOREGROUND
  6
CONTINUOUS
 10
2.589178
 20
0.175949
  0
VERTEX
  8
FOREGROUND
  6
CONTINUOUS
 10
2.600211
 20
0.184835
  0
VERTEX
  8
FOREGROUND
  6
CONTINUOUS
 10
2.611024
 20
0.193979
  0
VERTEX
  8
FOREGROUND
  6
CONTINUOUS
 10
2.621612
 20
0.203374
  0
VERTEX
  8
FOREGROUND
  6
CONTINUOUS
 10
2.631971
 20
0.213018
  0
VERTEX
  8
FOREGROUND
  6
CONTINUOUS
 10
2.642096
 20
0.222904
  0
VERTEX
  8
FOREGROUND
  6
CONTINUOUS
 10
2.651982
 20
0.233029
  0
VERTEX
  8
FOREGROUND
  6
CONTINUOUS
 10
2.661626
 20
0.243388
  0
VERTEX
  8
FOREGROUND
  6
CONTINUOUS
 10
2.671021
 20
0.253976
  0
VERTEX
  8
FOREGROUND
  6
CONTINUOUS
 10
2.680165
 20
0.264789
  0
VERTEX
  8
FOREGROUND
  6
CONTINUOUS
 10
2.689051
 20
0.275822
  0
VERTEX
  8
FOREGROUND
  6
CONTINUOUS
 10
2.697676
 20
0.287070
  0
VERTEX
  8
FOREGROUND
  6
CONTINUOUS
 10
2.706035
 20
0.298529
  0
VERTEX
  8
FOREGROUND
  6
CONTINUOUS
 10
2.714123
 20
0.310194
  0
VERTEX
  8
FOREGROUND
  6
CONTINUOUS
 10
2.721936
 20
0.322060
  0
VERTEX
  8
FOREGROUND
  6
CONTINUOUS
 10
2.729468
 20
0.334124
  0
VERTEX
  8
FOREGROUND
  6
CONTINUOUS
 10
2.736716
 20
0.346380
  0
VERTEX
  8
FOREGROUND
  6
CONTINUOUS
 10
2.743675
 20
0.358823
  0
VERTEX
  8
FOREGROUND
  6
CONTINUOUS
 10
2.750340
 20
0.371450
  0
VERTEX
  8
FOREGROUND
  6
CONTINUOUS
 10
2.756706
 20
0.384255
  0
VERTEX
  8
FOREGROUND
  6
CONTINUOUS
 10
2.762770
 20
0.397234
  0
VERTEX
  8
FOREGROUND
  6
CONTINUOUS
 10
2.768525
 20
0.410382
  0
VERTEX
  8
FOREGROUND
  6
CONTINUOUS
 10
2.773969
 20
0.423695
  0
VERTEX
  8
FOREGROUND
  6
CONTINUOUS
 10
2.779095
 20
0.437167
  0
VERTEX
  8
FOREGROUND
  6
CONTINUOUS
 10
2.783900
 20
0.450795
  0
VERTEX
  8
FOREGROUND
  6
CONTINUOUS
 10
2.788378
 20
0.464574
  0
VERTEX
  8
FOREGROUND
  6
CONTINUOUS
 10
2.792526
 20
0.478499
  0
VERTEX
  8
FOREGROUND
  6
CONTINUOUS
 10
2.796339
 20
0.492566
  0
VERTEX
  8
FOREGROUND
  6
CONTINUOUS
 10
2.799811
 20
0.506769
  0
VERTEX
  8
FOREGROUND
  6
CONTINUOUS
 10
2.802939
 20
0.521105
  0
VERTEX
  8
FOREGROUND
  6
CONTINUOUS
 10
2.805717
 20
0.535569
  0
VERTEX
  8
FOREGROUND
  6
CONTINUOUS
 10
2.808142
 20
0.550155
  0
VERTEX
  8
FOREGROUND
  6
CONTINUOUS
 10
2.810208
 20
0.564860
  0
VERTEX
  8
FOREGROUND
  6
CONTINUOUS
 10
2.811911
 20
0.579679
  0
VERTEX
  8
FOREGROUND
  6
CONTINUOUS
 10
2.813246
 20
0.594607
  0
VERTEX
  8
FOREGROUND
  6
CONTINUOUS
 10
2.814209
 20
0.609639
  0
VERTEX
  8
FOREGROUND
  6
CONTINUOUS
 10
2.814796
 20
0.624772
  0
VERTEX
  8
FOREGROUND
  6
CONTINUOUS
 10
2.815000
 20
0.640000
  0
VERTEX
  8
FOREGROUND
  6
CONTINUOUS
 10
2.815000
 20
0.640000
  0
VERTEX
  8
FOREGROUND
  6
CONTINUOUS
 10
2.814795
 20
0.655230
  0
VERTEX
  8
FOREGROUND
  6
CONTINUOUS
 10
2.814209
 20
0.670365
  0
VERTEX
  8
FOREGROUND
  6
CONTINUOUS
 10
2.813246
 20
0.685399
  0
VERTEX
  8
FOREGROUND
  6
CONTINUOUS
 10
2.811910
 20
0.700329
  0
VERTEX
  8
FOREGROUND
  6
CONTINUOUS
 10
2.810207
 20
0.715150
  0
VERTEX
  8
FOREGROUND
  6
CONTINUOUS
 10
2.808140
 20
0.729856
  0
VERTEX
  8
FOREGROUND
  6
CONTINUOUS
 10
2.805715
 20
0.744445
  0
VERTEX
  8
FOREGROUND
  6
CONTINUOUS
 10
2.802936
 20
0.758910
  0
VERTEX
  8
FOREGROUND
  6
CONTINUOUS
 10
2.799807
 20
0.773247
  0
VERTEX
  8
FOREGROUND
  6
CONTINUOUS
 10
2.796334
 20
0.787452
  0
VERTEX
  8
FOREGROUND
  6
CONTINUOUS
 10
2.792521
 20
0.801520
  0
VERTEX
  8
FOREGROUND
  6
CONTINUOUS
 10
2.788372
 20
0.815447
  0
VERTEX
  8
FOREGROUND
  6
CONTINUOUS
 10
2.783892
 20
0.829227
  0
VERTEX
  8
FOREGROUND
  6
CONTINUOUS
 10
2.779086
 20
0.842857
  0
VERTEX
  8
FOREGROUND
  6
CONTINUOUS
 10
2.773959
 20
0.856331
  0
VERTEX
  8
FOREGROUND
  6
CONTINUOUS
 10
2.768514
 20
0.869645
  0
VERTEX
  8
FOREGROUND
  6
CONTINUOUS
 10
2.762757
 20
0.882794
  0
VERTEX
  8
FOREGROUND
  6
CONTINUOUS
 10
2.756693
 20
0.895774
  0
VERTEX
  8
FOREGROUND
  6
CONTINUOUS
 10
2.750325
 20
0.908580
  0
VERTEX
  8
FOREGROUND
  6
CONTINUOUS
 10
2.743658
 20
0.921208
  0
VERTEX
  8
FOREGROUND
  6
CONTINUOUS
 10
2.736698
 20
0.933652
  0
VERTEX
  8
FOREGROUND
  6
CONTINUOUS
 10
2.729449
 20
0.945909
  0
VERTEX
  8
FOREGROUND
  6
CONTINUOUS
 10
2.721914
 20
0.957973
  0
VERTEX
  8
FOREGROUND
  6
CONTINUOUS
 10
2.714100
 20
0.969841
  0
VERTEX
  8
FOREGROUND
  6
CONTINUOUS
 10
2.706010
 20
0.981507
  0
VERTEX
  8
FOREGROUND
  6
CONTINUOUS
 10
2.697649
 20
0.992966
  0
VERTEX
  8
FOREGROUND
  6
CONTINUOUS
 10
2.689023
 20
1.004215
  0
VERTEX
  8
FOREGROUND
  6
CONTINUOUS
 10
2.680134
 20
1.015248
  0
VERTEX
  8
FOREGROUND
  6
CONTINUOUS
 10
2.670989
 20
1.026061
  0
VERTEX
  8
FOREGROUND
  6
CONTINUOUS
 10
2.661591
 20
1.036650
  0
VERTEX
  8
FOREGROUND
  6
CONTINUOUS
 10
2.651946
 20
1.047009
  0
VERTEX
  8
FOREGROUND
  6
CONTINUOUS
 10
2.642057
 20
1.057134
  0
VERTEX
  8
FOREGROUND
  6
CONTINUOUS
 10
2.631930
 20
1.067021
  0
VERTEX
  8
FOREGROUND
  6
CONTINUOUS
 10
2.621569
 20
1.076665
  0
VERTEX
  8
FOREGROUND
  6
CONTINUOUS
 10
2.610979
 20
1.086060
  0
VERTEX
  8
FOREGROUND
  6
CONTINUOUS
 10
2.600164
 20
1.095204
  0
VERTEX
  8
FOREGROUND
  6
CONTINUOUS
 10
2.589129
 20
1.104090
  0
VERTEX
  8
FOREGROUND
  6
CONTINUOUS
 10
2.577879
 20
1.112715
  0
VERTEX
  8
FOREGROUND
  6
CONTINUOUS
 10
2.566417
 20
1.121073
  0
VERTEX
  8
FOREGROUND
  6
CONTINUOUS
 10
2.554750
 20
1.129161
  0
VERTEX
  8
FOREGROUND
  6
CONTINUOUS
 10
2.542881
 20
1.136973
  0
VERTEX
  8
FOREGROUND
  6
CONTINUOUS
 10
2.530816
 20
1.144505
  0
VERTEX
  8
FOREGROUND
  6
CONTINUOUS
 10
2.518557
 20
1.151753
  0
VERTEX
  8
FOREGROUND
  6
CONTINUOUS
 10
2.506112
 20
1.158711
  0
VERTEX
  8
FOREGROUND
  6
CONTINUOUS
 10
2.493483
 20
1.165375
  0
VERTEX
  8
FOREGROUND
  6
CONTINUOUS
 10
2.480675
 20
1.171740
  0
VERTEX
  8
FOREGROUND
  6
CONTINUOUS
 10
2.467694
 20
1.177802
  0
VERTEX
  8
FOREGROUND
  6
CONTINUOUS
 10
2.454544
 20
1.183557
  0
VERTEX
  8
FOREGROUND
  6
CONTINUOUS
 10
2.441229
 20
1.188999
  0
VERTEX
  8
FOREGROUND
  6
CONTINUOUS
 10
2.427754
 20
1.194124
  0
VERTEX
  8
FOREGROUND
  6
CONTINUOUS
 10
2.414123
 20
1.198927
  0
VERTEX
  8
FOREGROUND
  6
CONTINUOUS
 10
2.400342
 20
1.203404
  0
VERTEX
  8
FOREGROUND
  6
CONTINUOUS
 10
2.386415
 20
1.207551
  0
VERTEX
  8
FOREGROUND
  6
CONTINUOUS
 10
2.372346
 20
1.211361
  0
VERTEX
  8
FOREGROUND
  6
CONTINUOUS
 10
2.358141
 20
1.214832
  0
VERTEX
  8
FOREGROUND
  6
CONTINUOUS
 10
2.343803
 20
1.217958
  0
VERTEX
  8
FOREGROUND
  6
CONTINUOUS
 10
2.329337
 20
1.220734
  0
VERTEX
  8
FOREGROUND
  6
CONTINUOUS
 10
2.314748
 20
1.223157
  0
VERTEX
  8
FOREGROUND
  6
CONTINUOUS
 10
2.300041
 20
1.225221
  0
VERTEX
  8
FOREGROUND
  6
CONTINUOUS
 10
2.285220
 20
1.226922
  0
VERTEX
  8
FOREGROUND
  6
CONTINUOUS
 10
2.270290
 20
1.228254
  0
VERTEX
  8
FOREGROUND
  6
CONTINUOUS
 10
2.255255
 20
1.229215
  0
VERTEX
  8
FOREGROUND
  6
CONTINUOUS
 10
2.240121
 20
1.229798
  0
VERTEX
  8
FOREGROUND
  6
CONTINUOUS
 10
2.224891
 20
1.230000
  0
VERTEX
  8
FOREGROUND
  6
CONTINUOUS
 10
0.639891
 20
1.230000
  0
VERTEX
  8
FOREGROUND
  6
CONTINUOUS
 10
0.624665
 20
1.229793
  0
VERTEX
  8
FOREGROUND
  6
CONTINUOUS
 10
0.609534
 20
1.229204
  0
VERTEX
  8
FOREGROUND
  6
CONTINUOUS
 10
0.594504
 20
1.228238
  0
VERTEX
  8
FOREGROUND
  6
CONTINUOUS
 10
0.579578
 20
1.226901
  0
VERTEX
  8
FOREGROUND
  6
CONTINUOUS
 10
0.564761
 20
1.225195
  0
VERTEX
  8
FOREGROUND
  6
CONTINUOUS
 10
0.550058
 20
1.223127
  0
VERTEX
  8
FOREGROUND
  6
CONTINUOUS
 10
0.535474
 20
1.220700
  0
VERTEX
  8
FOREGROUND
  6
CONTINUOUS
 10
0.521013
 20
1.217920
  0
VERTEX
  8
FOREGROUND
  6
CONTINUOUS
 10
0.506679
 20
1.214790
  0
VERTEX
  8
FOREGROUND
  6
CONTINUOUS
 10
0.492478
 20
1.211316
  0
VERTEX
  8
FOREGROUND
  6
CONTINUOUS
 10
0.478414
 20
1.207502
  0
VERTEX
  8
FOREGROUND
  6
CONTINUOUS
 10
0.464491
 20
1.203352
  0
VERTEX
  8
FOREGROUND
  6
CONTINUOUS
 10
0.450714
 20
1.198872
  0
VERTEX
  8
FOREGROUND
  6
CONTINUOUS
 10
0.437089
 20
1.194066
  0
VERTEX
  8
FOREGROUND
  6
CONTINUOUS
 10
0.423618
 20
1.188938
  0
VERTEX
  8
FOREGROUND
  6
CONTINUOUS
 10
0.410308
 20
1.183494
  0
VERTEX
  8
FOREGROUND
  6
CONTINUOUS
 10
0.397162
 20
1.177737
  0
VERTEX
  8
FOREGROUND
  6
CONTINUOUS
 10
0.384185
 20
1.171673
  0
VERTEX
  8
FOREGROUND
  6
CONTINUOUS
 10
0.371383
 20
1.165306
  0
VERTEX
  8
FOREGROUND
  6
CONTINUOUS
 10
0.358758
 20
1.158640
  0
VERTEX
  8
FOREGROUND
  6
CONTINUOUS
 10
0.346317
 20
1.151680
  0
VERTEX
  8
FOREGROUND
  6
CONTINUOUS
 10
0.334063
 20
1.144432
  0
VERTEX
  8
FOREGROUND
  6
CONTINUOUS
 10
0.322002
 20
1.136899
  0
VERTEX
  8
FOREGROUND
  6
CONTINUOUS
 10
0.310138
 20
1.129085
  0
VERTEX
  8
FOREGROUND
  6
CONTINUOUS
 10
0.298475
 20
1.120997
  0
VERTEX
  8
FOREGROUND
  6
CONTINUOUS
 10
0.287018
 20
1.112638
  0
VERTEX
  8
FOREGROUND
  6
CONTINUOUS
 10
0.275772
 20
1.104013
  0
VERTEX
  8
FOREGROUND
  6
CONTINUOUS
 10
0.264742
 20
1.095126
  0
VERTEX
  8
FOREGROUND
  6
CONTINUOUS
 10
0.253931
 20
1.085983
  0
VERTEX
  8
FOREGROUND
  6
CONTINUOUS
 10
0.243345
 20
1.076587
  0
VERTEX
  8
FOREGROUND
  6
CONTINUOUS
 10
0.232989
 20
1.066943
  0
VERTEX
  8
FOREGROUND
  6
CONTINUOUS
 10
0.222866
 20
1.057057
  0
VERTEX
  8
FOREGROUND
  6
CONTINUOUS
 10
0.212981
 20
1.046932
  0
VERTEX
  8
FOREGROUND
  6
CONTINUOUS
 10
0.203340
 20
1.036574
  0
VERTEX
  8
FOREGROUND
  6
CONTINUOUS
 10
0.193946
 20
1.025986
  0
VERTEX
  8
FOREGROUND
  6
CONTINUOUS
 10
0.184804
 20
1.015174
  0
VERTEX
  8
FOREGROUND
  6
CONTINUOUS
 10
0.175920
 20
1.004142
  0
VERTEX
  8
FOREGROUND
  6
CONTINUOUS
 10
0.167297
 20
0.992894
  0
VERTEX
  8
FOREGROUND
  6
CONTINUOUS
 10
0.158940
 20
0.981436
  0
VERTEX
  8
FOREGROUND
  6
CONTINUOUS
 10
0.150853
 20
0.969771
  0
VERTEX
  8
FOREGROUND
  6
CONTINUOUS
 10
0.143043
 20
0.957906
  0
VERTEX
  8
FOREGROUND
  6
CONTINUOUS
 10
0.135512
 20
0.945843
  0
VERTEX
  8
FOREGROUND
  6
CONTINUOUS
 10
0.128265
 20
0.933588
  0
VERTEX
  8
FOREGROUND
  6
CONTINUOUS
 10
0.121308
 20
0.921146
  0
VERTEX
  8
FOREGROUND
  6
CONTINUOUS
 10
0.114645
 20
0.908520
  0
VERTEX
  8
FOREGROUND
  6
CONTINUOUS
 10
0.108280
 20
0.895716
  0
VERTEX
  8
FOREGROUND
  6
CONTINUOUS
 10
0.102218
 20
0.882738
  0
VERTEX
  8
FOREGROUND
  6
CONTINUOUS
 10
0.096464
 20
0.869592
  0
VERTEX
  8
FOREGROUND
  6
CONTINUOUS
 10
0.091022
 20
0.856280
  0
VERTEX
  8
FOREGROUND
  6
CONTINUOUS
 10
0.085896
 20
0.842809
  0
VERTEX
  8
FOREGROUND
  6
CONTINUOUS
 10
0.081093
 20
0.829182
  0
VERTEX
  8
FOREGROUND
  6
CONTINUOUS
 10
0.076615
 20
0.815405
  0
VERTEX
  8
FOREGROUND
  6
CONTINUOUS
 10
0.072468
 20
0.801481
  0
VERTEX
  8
FOREGROUND
  6
CONTINUOUS
 10
0.068657
 20
0.787416
  0
VERTEX
  8
FOREGROUND
  6
CONTINUOUS
 10
0.065185
 20
0.773214
  0
VERTEX
  8
FOREGROUND
  6
CONTINUOUS
 10
0.062058
 20
0.758880
  0
VERTEX
  8
FOREGROUND
  6
CONTINUOUS
 10
0.059280
 20
0.744418
  0
VERTEX
  8
FOREGROUND
  6
CONTINUOUS
 10
0.056856
 20
0.729834
  0
VERTEX
  8
FOREGROUND
  6
CONTINUOUS
 10
0.054791
 20
0.715130
  0
VERTEX
  8
FOREGROUND
  6
CONTINUOUS
 10
0.053088
 20
0.700314
  0
VERTEX
  8
FOREGROUND
  6
CONTINUOUS
 10
0.051753
 20
0.685387
  0
VERTEX
  8
FOREGROUND
  6
CONTINUOUS
 10
0.050790
 20
0.670357
  0
VERTEX
  8
FOREGROUND
  6
CONTINUOUS
 10
0.050204
 20
0.655226
  0
VERTEX
  8
FOREGROUND
  6
CONTINUOUS
 10
0.050000
 20
0.640000
  0
VERTEX
  8
FOREGROUND
  6
CONTINUOUS
 10
0.050000
 20
0.640000
  0
VERTEX
  8
FOREGROUND
  6
CONTINUOUS
 10
0.050204
 20
0.624772
  0
VERTEX
  8
FOREGROUND
  6
CONTINUOUS
 10
0.050791
 20
0.609639
  0
VERTEX
  8
FOREGROUND
  6
CONTINUOUS
 10
0.051754
 20
0.594607
  0
VERTEX
  8
FOREGROUND
  6
CONTINUOUS
 10
0.053089
 20
0.579679
  0
VERTEX
  8
FOREGROUND
  6
CONTINUOUS
 10
0.054792
 20
0.564860
  0
VERTEX
  8
FOREGROUND
  6
CONTINUOUS
 10
0.056858
 20
0.550155
  0
VERTEX
  8
FOREGROUND
  6
CONTINUOUS
 10
0.059283
 20
0.535569
  0
VERTEX
  8
FOREGROUND
  6
CONTINUOUS
 10
0.062061
 20
0.521105
  0
VERTEX
  8
FOREGROUND
  6
CONTINUOUS
 10
0.065189
 20
0.506769
  0
VERTEX
  8
FOREGROUND
  6
CONTINUOUS
 10
0.068661
 20
0.492566
  0
VERTEX
  8
FOREGROUND
  6
CONTINUOUS
 10
0.072474
 20
0.478499
  0
VERTEX
  8
FOREGROUND
  6
CONTINUOUS
 10
0.076622
 20
0.464574
  0
VERTEX
  8
FOREGROUND
  6
CONTINUOUS
 10
0.081100
 20
0.450795
  0
VERTEX
  8
FOREGROUND
  6
CONTINUOUS
 10
0.085905
 20
0.437167
  0
VERTEX
  8
FOREGROUND
  6
CONTINUOUS
 10
0.091031
 20
0.423695
  0
VERTEX
  8
FOREGROUND
  6
CONTINUOUS
 10
0.096475
 20
0.410382
  0
VERTEX
  8
FOREGROUND
  6
CONTINUOUS
 10
0.102230
 20
0.397234
  0
VERTEX
  8
FOREGROUND
  6
CONTINUOUS
 10
0.108294
 20
0.384255
  0
VERTEX
  8
FOREGROUND
  6
CONTINUOUS
 10
0.114660
 20
0.371450
  0
VERTEX
  8
FOREGROUND
  6
CONTINUOUS
 10
0.121325
 20
0.358823
  0
VERTEX
  8
FOREGROUND
  6
CONTINUOUS
 10
0.128284
 20
0.346380
  0
VERTEX
  8
FOREGROUND
  6
CONTINUOUS
 10
0.135532
 20
0.334124
  0
VERTEX
  8
FOREGROUND
  6
CONTINUOUS
 10
0.143064
 20
0.322060
  0
VERTEX
  8
FOREGROUND
  6
CONTINUOUS
 10
0.150877
 20
0.310194
  0
VERTEX
  8
FOREGROUND
  6
CONTINUOUS
 10
0.158965
 20
0.298529
  0
VERTEX
  8
FOREGROUND
  6
CONTINUOUS
 10
0.167324
 20
0.287070
  0
VERTEX
  8
FOREGROUND
  6
CONTINUOUS
 10
0.175949
 20
0.275822
  0
VERTEX
  8
FOREGROUND
  6
CONTINUOUS
 10
0.184835
 20
0.264789
  0
VERTEX
  8
FOREGROUND
  6
CONTINUOUS
 10
0.193979
 20
0.253976
  0
VERTEX
  8
FOREGROUND
  6
CONTINUOUS
 10
0.203374
 20
0.243388
  0
VERTEX
  8
FOREGROUND
  6
CONTINUOUS
 10
0.213018
 20
0.233029
  0
VERTEX
  8
FOREGROUND
  6
CONTINUOUS
 10
0.222904
 20
0.222904
  0
VERTEX
  8
FOREGROUND
  6
CONTINUOUS
 10
0.233029
 20
0.213018
  0
VERTEX
  8
FOREGROUND
  6
CONTINUOUS
 10
0.243388
 20
0.203374
  0
VERTEX
  8
FOREGROUND
  6
CONTINUOUS
 10
0.253976
 20
0.193979
  0
VERTEX
  8
FOREGROUND
  6
CONTINUOUS
 10
0.264789
 20
0.184835
  0
VERTEX
  8
FOREGROUND
  6
CONTINUOUS
 10
0.275822
 20
0.175949
  0
VERTEX
  8
FOREGROUND
  6
CONTINUOUS
 10
0.287070
 20
0.167324
  0
VERTEX
  8
FOREGROUND
  6
CONTINUOUS
 10
0.298529
 20
0.158965
  0
VERTEX
  8
FOREGROUND
  6
CONTINUOUS
 10
0.310194
 20
0.150877
  0
VERTEX
  8
FOREGROUND
  6
CONTINUOUS
 10
0.322060
 20
0.143064
  0
VERTEX
  8
FOREGROUND
  6
CONTINUOUS
 10
0.334124
 20
0.135532
  0
VERTEX
  8
FOREGROUND
  6
CONTINUOUS
 10
0.346380
 20
0.128284
  0
VERTEX
  8
FOREGROUND
  6
CONTINUOUS
 10
0.358823
 20
0.121325
  0
VERTEX
  8
FOREGROUND
  6
CONTINUOUS
 10
0.371450
 20
0.114660
  0
VERTEX
  8
FOREGROUND
  6
CONTINUOUS
 10
0.384255
 20
0.108294
  0
VERTEX
  8
FOREGROUND
  6
CONTINUOUS
 10
0.397234
 20
0.102230
  0
VERTEX
  8
FOREGROUND
  6
CONTINUOUS
 10
0.410382
 20
0.096475
  0
VERTEX
  8
FOREGROUND
  6
CONTINUOUS
 10
0.423695
 20
0.091031
  0
VERTEX
  8
FOREGROUND
  6
CONTINUOUS
 10
0.437167
 20
0.085905
  0
VERTEX
  8
FOREGROUND
  6
CONTINUOUS
 10
0.450795
 20
0.081100
  0
VERTEX
  8
FOREGROUND
  6
CONTINUOUS
 10
0.464574
 20
0.076622
  0
VERTEX
  8
FOREGROUND
  6
CONTINUOUS
 10
0.478499
 20
0.072474
  0
VERTEX
  8
FOREGROUND
  6
CONTINUOUS
 10
0.492566
 20
0.068661
  0
VERTEX
  8
FOREGROUND
  6
CONTINUOUS
 10
0.506769
 20
0.065189
  0
VERTEX
  8
FOREGROUND
  6
CONTINUOUS
 10
0.521105
 20
0.062061
  0
VERTEX
  8
FOREGROUND
  6
CONTINUOUS
 10
0.535569
 20
0.059283
  0
VERTEX
  8
FOREGROUND
  6
CONTINUOUS
 10
0.550155
 20
0.056858
  0
VERTEX
  8
FOREGROUND
  6
CONTINUOUS
 10
0.564860
 20
0.054792
  0
VERTEX
  8
FOREGROUND
  6
CONTINUOUS
 10
0.579679
 20
0.053089
  0
VERTEX
  8
FOREGROUND
  6
CONTINUOUS
 10
0.594607
 20
0.051754
  0
VERTEX
  8
FOREGROUND
  6
CONTINUOUS
 10
0.609639
 20
0.050791
  0
VERTEX
  8
FOREGROUND
  6
CONTINUOUS
 10
0.624772
 20
0.050204
  0
VERTEX
  8
FOREGROUND
  6
CONTINUOUS
 10
0.640000
 20
0.050000
  0
SEQEND
  8
0
  0
ENDSEC
  0
EOF
