  0
SECTION
  2
HEADER
  9
$ACADVER
  1
AC1006
  9
$EXTMIN
 10
0.000000
 20
0.000000
  9
$EXTMAX
 10
2.865000
 20
1.673333
  9
$LTSCALE
 40
0.166667
  9
$PDMODE
 70
    35
  9
$PDSIZE
 40
0.133333
  0
ENDSEC
  0
SECTION
  2
TABLES
  0
TABLE
  2
LTYPE
 70
     9
  0
LTYPE
  2
CONTINUOUS
 70
    64
  3
Solid line
 72
    65
 73
     0
 40
0.000000
  0
LTYPE
  2
DASHED
 70
    64
  3
__ __ __ __ __ __ __ __ __ __ __ __ __ __ __
 72
    65
 73
     2
 40
0.001250
 49
0.000833
 49
-0.000417
  0
LTYPE
  2
HIDDEN
 70
    64
  3
 _ _ _ _ _ _ _ _ _ _ _ _ _ _ _ _ _ _ _ _ _ _
 72
    65
 73
     2
 40
0.000625
 49
0.000417
 49
-0.000208
  0
LTYPE
  2
CENTER
 70
    64
  3
____ _ ____ _ ____ _ ____ _ ____ _ ____ _ ____
 72
    65
 73
     4
 40
0.003333
 49
0.002083
 49
-0.000417
 49
0.000417
 49
-0.000417
  0
LTYPE
  2
PHANTOM
 70
    64
  3
_____ _ _ _____ _ _ _____ _ _ _____ _ _ ____
 72
    65
 73
     6
 40
0.004167
 49
0.002083
 49
-0.000417
 49
0.000417
 49
-0.000417
 49
0.000417
 49
-0.000417
  0
LTYPE
  2
DOT
 70
    64
  3
...............................................
 72
    65
 73
     2
 40
0.000417
 49
0.000000
 49
-0.000417
  0
LTYPE
  2
DASHDOT
 70
    64
  3
__ . __ . __ . __ . __ . __ . __ . __ . __ . __
 72
    65
 73
     4
 40
0.001667
 49
0.000833
 49
-0.000417
 49
0.000000
 49
-0.000417
  0
LTYPE
  2
BORDER
 70
    64
  3
__ __ . __ __ . __ __ . __ __ . __ __ . __ __
 72
    65
 73
     6
 40
0.002917
 49
0.000833
 49
-0.000417
 49
0.000833
 49
-0.000417
 49
0.000000
 49
-0.000417
  0
LTYPE
  2
DIVIDE
 70
    64
  3
__ . . __ . . __ . . __ . . __ . . __ . . __
 72
    65
 73
     6
 40
0.002083
 49
0.000833
 49
-0.000417
 49
0.000000
 49
-0.000417
 49
0.000000
 49
-0.000417
  0
LTYPE
  2
DOTDOT
 70
    64
  3
 . .  . .  . .  . .  . .  . . 
 72
    65
 73
     5
 40
0.000917
 49
-0.000417
 49
0.000000
 49
-0.000417
 49
0.000000
 49
-0.000417
  0
ENDTAB
  0
TABLE
  2
STYLE
 70
     2
  0
STYLE
 70
     0
  2
SN0
 40
0.000000
 41
0.001667
 50
0.000000
 71
     0
 42
0.000000
  3
ROMAND
  0
STYLE
 70
    68
  2
SV0
 40
0.000000
 41
0.001667
 50
0.000000
 71
     0
 42
0.000000
  3
ROMAND
  0
ENDTAB
  0
TABLE
  2
LAYER
 70
     2
  0
LAYER
  2
FOREGROUND
 70
    64
 62
     7
  6
CONTINUOUS
  0
LAYER
  2
BACKGROUND
 70
    65
 62
    -7
  6
CONTINUOUS
  0
ENDTAB
  0
ENDSEC
  0
SECTION
  2
ENTITIES
  0
POLYLINE
  8
FOREGROUND
  6
CONTINUOUS
 66
     1
 40
0.010000
 41
0.010000
 70
     1
  0
VERTEX
  8
FOREGROUND
  6
CONTINUOUS
 10
2.028333
 20
0.050000
  0
VERTEX
  8
FOREGROUND
  6
CONTINUOUS
 10
2.044386
 20
0.050173
  0
VERTEX
  8
FOREGROUND
  6
CONTINUOUS
 10
2.060361
 20
0.050664
  0
VERTEX
  8
FOREGROUND
  6
CONTINUOUS
 10
2.076253
 20
0.051471
  0
VERTEX
  8
FOREGROUND
  6
CONTINUOUS
 10
2.092062
 20
0.052591
  0
VERTEX
  8
FOREGROUND
  6
CONTINUOUS
 10
2.107782
 20
0.054019
  0
VERTEX
  8
FOREGROUND
  6
CONTINUOUS
 10
2.123412
 20
0.055754
  0
VERTEX
  8
FOREGROUND
  6
CONTINUOUS
 10
2.138948
 20
0.057792
  0
VERTEX
  8
FOREGROUND
  6
CONTINUOUS
 10
2.154387
 20
0.060130
  0
VERTEX
  8
FOREGROUND
  6
CONTINUOUS
 10
2.169726
 20
0.062765
  0
VERTEX
  8
FOREGROUND
  6
CONTINUOUS
 10
2.184963
 20
0.065695
  0
VERTEX
  8
FOREGROUND
  6
CONTINUOUS
 10
2.200093
 20
0.068915
  0
VERTEX
  8
FOREGROUND
  6
CONTINUOUS
 10
2.215115
 20
0.072424
  0
VERTEX
  8
FOREGROUND
  6
CONTINUOUS
 10
2.230025
 20
0.076218
  0
VERTEX
  8
FOREGROUND
  6
CONTINUOUS
 10
2.244819
 20
0.080294
  0
VERTEX
  8
FOREGROUND
  6
CONTINUOUS
 10
2.259496
 20
0.084648
  0
VERTEX
  8
FOREGROUND
  6
CONTINUOUS
 10
2.274051
 20
0.089279
  0
VERTEX
  8
FOREGROUND
  6
CONTINUOUS
 10
2.288483
 20
0.094182
  0
VERTEX
  8
FOREGROUND
  6
CONTINUOUS
 10
2.302787
 20
0.099355
  0
VERTEX
  8
FOREGROUND
  6
CONTINUOUS
 10
2.316961
 20
0.104795
  0
VERTEX
  8
FOREGROUND
  6
CONTINUOUS
 10
2.331002
 20
0.110499
  0
VERTEX
  8
FOREGROUND
  6
CONTINUOUS
 10
2.344906
 20
0.116464
  0
VERTEX
  8
FOREGROUND
  6
CONTINUOUS
 10
2.358672
 20
0.122686
  0
VERTEX
  8
FOREGROUND
  6
CONTINUOUS
 10
2.372294
 20
0.129163
  0
VERTEX
  8
FOREGROUND
  6
CONTINUOUS
 10
2.385772
 20
0.135892
  0
VERTEX
  8
FOREGROUND
  6
CONTINUOUS
 10
2.399101
 20
0.142869
  0
VERTEX
  8
FOREGROUND
  6
CONTINUOUS
 10
2.412279
 20
0.150092
  0
VERTEX
  8
FOREGROUND
  6
CONTINUOUS
 10
2.425302
 20
0.157557
  0
VERTEX
  8
FOREGROUND
  6
CONTINUOUS
 10
2.438168
 20
0.165262
  0
VERTEX
  8
FOREGROUND
  6
CONTINUOUS
 10
2.450873
 20
0.173203
  0
VERTEX
  8
FOREGROUND
  6
CONTINUOUS
 10
2.463415
 20
0.181377
  0
VERTEX
  8
FOREGROUND
  6
CONTINUOUS
 10
2.475790
 20
0.189782
  0
VERTEX
  8
FOREGROUND
  6
CONTINUOUS
 10
2.487995
 20
0.198415
  0
VERTEX
  8
FOREGROUND
  6
CONTINUOUS
 10
2.500027
 20
0.207271
  0
VERTEX
  8
FOREGROUND
  6
CONTINUOUS
 10
2.511884
 20
0.216349
  0
VERTEX
  8
FOREGROUND
  6
CONTINUOUS
 10
2.523562
 20
0.225645
  0
VERTEX
  8
FOREGROUND
  6
CONTINUOUS
 10
2.535059
 20
0.235157
  0
VERTEX
  8
FOREGROUND
  6
CONTINUOUS
 10
2.546370
 20
0.244880
  0
VERTEX
  8
FOREGROUND
  6
CONTINUOUS
 10
2.557494
 20
0.254813
  0
VERTEX
  8
FOREGROUND
  6
CONTINUOUS
 10
2.568426
 20
0.264951
  0
VERTEX
  8
FOREGROUND
  6
CONTINUOUS
 10
2.579165
 20
0.275293
  0
VERTEX
  8
FOREGROUND
  6
CONTINUOUS
 10
2.589707
 20
0.285835
  0
VERTEX
  8
FOREGROUND
  6
CONTINUOUS
 10
2.600049
 20
0.296574
  0
VERTEX
  8
FOREGROUND
  6
CONTINUOUS
 10
2.610187
 20
0.307506
  0
VERTEX
  8
FOREGROUND
  6
CONTINUOUS
 10
2.620120
 20
0.318630
  0
VERTEX
  8
FOREGROUND
  6
CONTINUOUS
 10
2.629843
 20
0.329941
  0
VERTEX
  8
FOREGROUND
  6
CONTINUOUS
 10
2.639355
 20
0.341438
  0
VERTEX
  8
FOREGROUND
  6
CONTINUOUS
 10
2.648651
 20
0.353116
  0
VERTEX
  8
FOREGROUND
  6
CONTINUOUS
 10
2.657729
 20
0.364973
  0
VERTEX
  8
FOREGROUND
  6
CONTINUOUS
 10
2.666585
 20
0.377005
  0
VERTEX
  8
FOREGROUND
  6
CONTINUOUS
 10
2.675218
 20
0.389210
  0
VERTEX
  8
FOREGROUND
  6
CONTINUOUS
 10
2.683623
 20
0.401585
  0
VERTEX
  8
FOREGROUND
  6
CONTINUOUS
 10
2.691797
 20
0.414127
  0
VERTEX
  8
FOREGROUND
  6
CONTINUOUS
 10
2.699738
 20
0.426832
  0
VERTEX
  8
FOREGROUND
  6
CONTINUOUS
 10
2.707443
 20
0.439698
  0
VERTEX
  8
FOREGROUND
  6
CONTINUOUS
 10
2.714908
 20
0.452721
  0
VERTEX
  8
FOREGROUND
  6
CONTINUOUS
 10
2.722131
 20
0.465899
  0
VERTEX
  8
FOREGROUND
  6
CONTINUOUS
 10
2.729108
 20
0.479228
  0
VERTEX
  8
FOREGROUND
  6
CONTINUOUS
 10
2.735837
 20
0.492706
  0
VERTEX
  8
FOREGROUND
  6
CONTINUOUS
 10
2.742314
 20
0.506328
  0
VERTEX
  8
FOREGROUND
  6
CONTINUOUS
 10
2.748536
 20
0.520094
  0
VERTEX
  8
FOREGROUND
  6
CONTINUOUS
 10
2.754501
 20
0.533998
  0
VERTEX
  8
FOREGROUND
  6
CONTINUOUS
 10
2.760205
 20
0.548039
  0
VERTEX
  8
FOREGROUND
  6
CONTINUOUS
 10
2.765645
 20
0.562213
  0
VERTEX
  8
FOREGROUND
  6
CONTINUOUS
 10
2.770818
 20
0.576517
  0
VERTEX
  8
FOREGROUND
  6
CONTINUOUS
 10
2.775721
 20
0.590949
  0
VERTEX
  8
FOREGROUND
  6
CONTINUOUS
 10
2.780352
 20
0.605504
  0
VERTEX
  8
FOREGROUND
  6
CONTINUOUS
 10
2.784706
 20
0.620181
  0
VERTEX
  8
FOREGROUND
  6
CONTINUOUS
 10
2.788782
 20
0.634975
  0
VERTEX
  8
FOREGROUND
  6
CONTINUOUS
 10
2.792576
 20
0.649885
  0
VERTEX
  8
FOREGROUND
  6
CONTINUOUS
 10
2.796085
 20
0.664907
  0
VERTEX
  8
FOREGROUND
  6
CONTINUOUS
 10
2.799305
 20
0.680037
  0
VERTEX
  8
FOREGROUND
  6
CONTINUOUS
 10
2.802235
 20
0.695274
  0
VERTEX
  8
FOREGROUND
  6
CONTINUOUS
 10
2.804870
 20
0.710613
  0
VERTEX
  8
FOREGROUND
  6
CONTINUOUS
 10
2.807208
 20
0.726052
  0
VERTEX
  8
FOREGROUND
  6
CONTINUOUS
 10
2.809246
 20
0.741588
  0
VERTEX
  8
FOREGROUND
  6
CONTINUOUS
 10
2.810981
 20
0.757218
  0
VERTEX
  8
FOREGROUND
  6
CONTINUOUS
 10
2.812409
 20
0.772938
  0
VERTEX
  8
FOREGROUND
  6
CONTINUOUS
 10
2.813529
 20
0.788747
  0
VERTEX
  8
FOREGROUND
  6
CONTINUOUS
 10
2.814336
 20
0.804639
  0
VERTEX
  8
FOREGROUND
  6
CONTINUOUS
 10
2.814827
 20
0.820614
  0
VERTEX
  8
FOREGROUND
  6
CONTINUOUS
 10
2.815000
 20
0.836667
  0
VERTEX
  8
FOREGROUND
  6
CONTINUOUS
 10
2.815000
 20
0.836667
  0
VERTEX
  8
FOREGROUND
  6
CONTINUOUS
 10
2.814827
 20
0.852722
  0
VERTEX
  8
FOREGROUND
  6
CONTINUOUS
 10
2.814335
 20
0.868698
  0
VERTEX
  8
FOREGROUND
  6
CONTINUOUS
 10
2.813528
 20
0.884593
  0
VERTEX
  8
FOREGROUND
  6
CONTINUOUS
 10
2.812409
 20
0.900403
  0
VERTEX
  8
FOREGROUND
  6
CONTINUOUS
 10
2.810980
 20
0.916126
  0
VERTEX
  8
FOREGROUND
  6
CONTINUOUS
 10
2.809245
 20
0.931757
  0
VERTEX
  8
FOREGROUND
  6
CONTINUOUS
 10
2.807206
 20
0.947295
  0
VERTEX
  8
FOREGROUND
  6
CONTINUOUS
 10
2.804868
 20
0.962736
  0
VERTEX
  8
FOREGROUND
  6
CONTINUOUS
 10
2.802231
 20
0.978077
  0
VERTEX
  8
FOREGROUND
  6
CONTINUOUS
 10
2.799301
 20
0.993315
  0
VERTEX
  8
FOREGROUND
  6
CONTINUOUS
 10
2.796080
 20
1.008448
  0
VERTEX
  8
FOREGROUND
  6
CONTINUOUS
 10
2.792570
 20
1.023471
  0
VERTEX
  8
FOREGROUND
  6
CONTINUOUS
 10
2.788776
 20
1.038382
  0
VERTEX
  8
FOREGROUND
  6
CONTINUOUS
 10
2.784699
 20
1.053179
  0
VERTEX
  8
FOREGROUND
  6
CONTINUOUS
 10
2.780343
 20
1.067857
  0
VERTEX
  8
FOREGROUND
  6
CONTINUOUS
 10
2.775712
 20
1.082414
  0
VERTEX
  8
FOREGROUND
  6
CONTINUOUS
 10
2.770807
 20
1.096847
  0
VERTEX
  8
FOREGROUND
  6
CONTINUOUS
 10
2.765633
 20
1.111152
  0
VERTEX
  8
FOREGROUND
  6
CONTINUOUS
 10
2.760191
 20
1.125328
  0
VERTEX
  8
FOREGROUND
  6
CONTINUOUS
 10
2.754486
 20
1.139370
  0
VERTEX
  8
FOREGROUND
  6
CONTINUOUS
 10
2.748520
 20
1.153276
  0
VERTEX
  8
FOREGROUND
  6
CONTINUOUS
 10
2.742297
 20
1.167042
  0
VERTEX
  8
FOREGROUND
  6
CONTINUOUS
 10
2.735818
 20
1.180667
  0
VERTEX
  8
FOREGROUND
  6
CONTINUOUS
 10
2.729088
 20
1.194145
  0
VERTEX
  8
FOREGROUND
  6
CONTINUOUS
 10
2.722109
 20
1.207476
  0
VERTEX
  8
FOREGROUND
  6
CONTINUOUS
 10
2.714885
 20
1.220654
  0
VERTEX
  8
FOREGROUND
  6
CONTINUOUS
 10
2.707418
 20
1.233679
  0
VERTEX
  8
FOREGROUND
  6
CONTINUOUS
 10
2.699712
 20
1.246545
  0
VERTEX
  8
FOREGROUND
  6
CONTINUOUS
 10
2.691769
 20
1.259251
  0
VERTEX
  8
FOREGROUND
  6
CONTINUOUS
 10
2.683592
 20
1.271794
  0
VERTEX
  8
FOREGROUND
  6
CONTINUOUS
 10
2.675185
 20
1.284170
  0
VERTEX
  8
FOREGROUND
  6
CONTINUOUS
 10
2.666551
 20
1.296376
  0
VERTEX
  8
FOREGROUND
  6
CONTINUOUS
 10
2.657693
 20
1.308409
  0
VERTEX
  8
FOREGROUND
  6
CONTINUOUS
 10
2.648613
 20
1.320266
  0
VERTEX
  8
FOREGROUND
  6
CONTINUOUS
 10
2.639315
 20
1.331945
  0
VERTEX
  8
FOREGROUND
  6
CONTINUOUS
 10
2.629801
 20
1.343442
  0
VERTEX
  8
FOREGROUND
  6
CONTINUOUS
 10
2.620076
 20
1.354754
  0
VERTEX
  8
FOREGROUND
  6
CONTINUOUS
 10
2.610141
 20
1.365878
  0
VERTEX
  8
FOREGROUND
  6
CONTINUOUS
 10
2.600000
 20
1.376811
  0
VERTEX
  8
FOREGROUND
  6
CONTINUOUS
 10
2.589656
 20
1.387550
  0
VERTEX
  8
FOREGROUND
  6
CONTINUOUS
 10
2.579113
 20
1.398092
  0
VERTEX
  8
FOREGROUND
  6
CONTINUOUS
 10
2.568372
 20
1.408434
  0
VERTEX
  8
FOREGROUND
  6
CONTINUOUS
 10
2.557437
 20
1.418573
  0
VERTEX
  8
FOREGROUND
  6
CONTINUOUS
 10
2.546311
 20
1.428505
  0
VERTEX
  8
FOREGROUND
  6
CONTINUOUS
 10
2.534997
 20
1.438229
  0
VERTEX
  8
FOREGROUND
  6
CONTINUOUS
 10
2.523499
 20
1.447740
  0
VERTEX
  8
FOREGROUND
  6
CONTINUOUS
 10
2.511818
 20
1.457036
  0
VERTEX
  8
FOREGROUND
  6
CONTINUOUS
 10
2.499959
 20
1.466113
  0
VERTEX
  8
FOREGROUND
  6
CONTINUOUS
 10
2.487924
 20
1.474970
  0
VERTEX
  8
FOREGROUND
  6
CONTINUOUS
 10
2.475716
 20
1.483602
  0
VERTEX
  8
FOREGROUND
  6
CONTINUOUS
 10
2.463339
 20
1.492006
  0
VERTEX
  8
FOREGROUND
  6
CONTINUOUS
 10
2.450795
 20
1.500180
  0
VERTEX
  8
FOREGROUND
  6
CONTINUOUS
 10
2.438088
 20
1.508121
  0
VERTEX
  8
FOREGROUND
  6
CONTINUOUS
 10
2.425219
 20
1.515825
  0
VERTEX
  8
FOREGROUND
  6
CONTINUOUS
 10
2.412194
 20
1.523289
  0
VERTEX
  8
FOREGROUND
  6
CONTINUOUS
 10
2.399014
 20
1.530511
  0
VERTEX
  8
FOREGROUND
  6
CONTINUOUS
 10
2.385682
 20
1.537488
  0
VERTEX
  8
FOREGROUND
  6
CONTINUOUS
 10
2.372202
 20
1.544215
  0
VERTEX
  8
FOREGROUND
  6
CONTINUOUS
 10
2.358577
 20
1.550691
  0
VERTEX
  8
FOREGROUND
  6
CONTINUOUS
 10
2.344809
 20
1.556912
  0
VERTEX
  8
FOREGROUND
  6
CONTINUOUS
 10
2.330902
 20
1.562876
  0
VERTEX
  8
FOREGROUND
  6
CONTINUOUS
 10
2.316859
 20
1.568578
  0
VERTEX
  8
FOREGROUND
  6
CONTINUOUS
 10
2.302682
 20
1.574017
  0
VERTEX
  8
FOREGROUND
  6
CONTINUOUS
 10
2.288376
 20
1.579189
  0
VERTEX
  8
FOREGROUND
  6
CONTINUOUS
 10
2.273942
 20
1.584091
  0
VERTEX
  8
FOREGROUND
  6
CONTINUOUS
 10
2.259384
 20
1.588720
  0
VERTEX
  8
FOREGROUND
  6
CONTINUOUS
 10
2.244705
 20
1.593073
  0
VERTEX
  8
FOREGROUND
  6
CONTINUOUS
 10
2.229908
 20
1.597146
  0
VERTEX
  8
FOREGROUND
  6
CONTINUOUS
 10
2.214996
 20
1.600938
  0
VERTEX
  8
FOREGROUND
  6
CONTINUOUS
 10
2.199972
 20
1.604445
  0
VERTEX
  8
FOREGROUND
  6
CONTINUOUS
 10
2.184839
 20
1.607664
  0
VERTEX
  8
FOREGROUND
  6
CONTINUOUS
 10
2.169600
 20
1.610591
  0
VERTEX
  8
FOREGROUND
  6
CONTINUOUS
 10
2.154259
 20
1.613224
  0
VERTEX
  8
FOREGROUND
  6
CONTINUOUS
 10
2.138817
 20
1.615560
  0
VERTEX
  8
FOREGROUND
  6
CONTINUOUS
 10
2.123279
 20
1.617596
  0
VERTEX
  8
FOREGROUND
  6
CONTINUOUS
 10
2.107647
 20
1.619328
  0
VERTEX
  8
FOREGROUND
  6
CONTINUOUS
 10
2.091925
 20
1.620754
  0
VERTEX
  8
FOREGROUND
  6
CONTINUOUS
 10
2.076114
 20
1.621871
  0
VERTEX
  8
FOREGROUND
  6
CONTINUOUS
 10
2.060219
 20
1.622675
  0
VERTEX
  8
FOREGROUND
  6
CONTINUOUS
 10
2.044243
 20
1.623163
  0
VERTEX
  8
FOREGROUND
  6
CONTINUOUS
 10
2.028188
 20
1.623333
  0
VERTEX
  8
FOREGROUND
  6
CONTINUOUS
 10
0.836521
 20
1.623333
  0
VERTEX
  8
FOREGROUND
  6
CONTINUOUS
 10
0.820470
 20
1.623157
  0
VERTEX
  8
FOREGROUND
  6
CONTINUOUS
 10
0.804498
 20
1.622663
  0
VERTEX
  8
FOREGROUND
  6
CONTINUOUS
 10
0.788607
 20
1.621853
  0
VERTEX
  8
FOREGROUND
  6
CONTINUOUS
 10
0.772801
 20
1.620732
  0
VERTEX
  8
FOREGROUND
  6
CONTINUOUS
 10
0.757083
 20
1.619301
  0
VERTEX
  8
FOREGROUND
  6
CONTINUOUS
 10
0.741456
 20
1.617563
  0
VERTEX
  8
FOREGROUND
  6
CONTINUOUS
 10
0.725922
 20
1.615523
  0
VERTEX
  8
FOREGROUND
  6
CONTINUOUS
 10
0.710485
 20
1.613182
  0
VERTEX
  8
FOREGROUND
  6
CONTINUOUS
 10
0.695148
 20
1.610545
  0
VERTEX
  8
FOREGROUND
  6
CONTINUOUS
 10
0.679914
 20
1.607613
  0
VERTEX
  8
FOREGROUND
  6
CONTINUOUS
 10
0.664786
 20
1.604391
  0
VERTEX
  8
FOREGROUND
  6
CONTINUOUS
 10
0.649766
 20
1.600880
  0
VERTEX
  8
FOREGROUND
  6
CONTINUOUS
 10
0.634859
 20
1.597084
  0
VERTEX
  8
FOREGROUND
  6
CONTINUOUS
 10
0.620067
 20
1.593007
  0
VERTEX
  8
FOREGROUND
  6
CONTINUOUS
 10
0.605393
 20
1.588651
  0
VERTEX
  8
FOREGROUND
  6
CONTINUOUS
 10
0.590840
 20
1.584019
  0
VERTEX
  8
FOREGROUND
  6
CONTINUOUS
 10
0.576411
 20
1.579114
  0
VERTEX
  8
FOREGROUND
  6
CONTINUOUS
 10
0.562109
 20
1.573939
  0
VERTEX
  8
FOREGROUND
  6
CONTINUOUS
 10
0.547937
 20
1.568497
  0
VERTEX
  8
FOREGROUND
  6
CONTINUOUS
 10
0.533899
 20
1.562792
  0
VERTEX
  8
FOREGROUND
  6
CONTINUOUS
 10
0.519997
 20
1.556827
  0
VERTEX
  8
FOREGROUND
  6
CONTINUOUS
 10
0.506234
 20
1.550603
  0
VERTEX
  8
FOREGROUND
  6
CONTINUOUS
 10
0.492613
 20
1.544125
  0
VERTEX
  8
FOREGROUND
  6
CONTINUOUS
 10
0.479138
 20
1.537396
  0
VERTEX
  8
FOREGROUND
  6
CONTINUOUS
 10
0.465811
 20
1.530418
  0
VERTEX
  8
FOREGROUND
  6
CONTINUOUS
 10
0.452636
 20
1.523194
  0
VERTEX
  8
FOREGROUND
  6
CONTINUOUS
 10
0.439615
 20
1.515728
  0
VERTEX
  8
FOREGROUND
  6
CONTINUOUS
 10
0.426752
 20
1.508023
  0
VERTEX
  8
FOREGROUND
  6
CONTINUOUS
 10
0.414049
 20
1.500081
  0
VERTEX
  8
FOREGROUND
  6
CONTINUOUS
 10
0.401510
 20
1.491906
  0
VERTEX
  8
FOREGROUND
  6
CONTINUOUS
 10
0.389137
 20
1.483500
  0
VERTEX
  8
FOREGROUND
  6
CONTINUOUS
 10
0.376934
 20
1.474868
  0
VERTEX
  8
FOREGROUND
  6
CONTINUOUS
 10
0.364904
 20
1.466011
  0
VERTEX
  8
FOREGROUND
  6
CONTINUOUS
 10
0.353050
 20
1.456933
  0
VERTEX
  8
FOREGROUND
  6
CONTINUOUS
 10
0.341374
 20
1.447636
  0
VERTEX
  8
FOREGROUND
  6
CONTINUOUS
 10
0.329880
 20
1.438125
  0
VERTEX
  8
FOREGROUND
  6
CONTINUOUS
 10
0.318571
 20
1.428401
  0
VERTEX
  8
FOREGROUND
  6
CONTINUOUS
 10
0.307449
 20
1.418469
  0
VERTEX
  8
FOREGROUND
  6
CONTINUOUS
 10
0.296519
 20
1.408330
  0
VERTEX
  8
FOREGROUND
  6
CONTINUOUS
 10
0.285782
 20
1.397989
  0
VERTEX
  8
FOREGROUND
  6
CONTINUOUS
 10
0.275243
 20
1.387447
  0
VERTEX
  8
FOREGROUND
  6
CONTINUOUS
 10
0.264903
 20
1.376709
  0
VERTEX
  8
FOREGROUND
  6
CONTINUOUS
 10
0.254766
 20
1.365776
  0
VERTEX
  8
FOREGROUND
  6
CONTINUOUS
 10
0.244836
 20
1.354653
  0
VERTEX
  8
FOREGROUND
  6
CONTINUOUS
 10
0.235115
 20
1.343342
  0
VERTEX
  8
FOREGROUND
  6
CONTINUOUS
 10
0.225605
 20
1.331846
  0
VERTEX
  8
FOREGROUND
  6
CONTINUOUS
 10
0.216311
 20
1.320169
  0
VERTEX
  8
FOREGROUND
  6
CONTINUOUS
 10
0.207235
 20
1.308313
  0
VERTEX
  8
FOREGROUND
  6
CONTINUOUS
 10
0.198380
 20
1.296281
  0
VERTEX
  8
FOREGROUND
  6
CONTINUOUS
 10
0.189750
 20
1.284076
  0
VERTEX
  8
FOREGROUND
  6
CONTINUOUS
 10
0.181347
 20
1.271702
  0
VERTEX
  8
FOREGROUND
  6
CONTINUOUS
 10
0.173174
 20
1.259161
  0
VERTEX
  8
FOREGROUND
  6
CONTINUOUS
 10
0.165235
 20
1.246457
  0
VERTEX
  8
FOREGROUND
  6
CONTINUOUS
 10
0.157532
 20
1.233592
  0
VERTEX
  8
FOREGROUND
  6
CONTINUOUS
 10
0.150068
 20
1.220570
  0
VERTEX
  8
FOREGROUND
  6
CONTINUOUS
 10
0.142847
 20
1.207393
  0
VERTEX
  8
FOREGROUND
  6
CONTINUOUS
 10
0.135871
 20
1.194065
  0
VERTEX
  8
FOREGROUND
  6
CONTINUOUS
 10
0.129144
 20
1.180589
  0
VERTEX
  8
FOREGROUND
  6
CONTINUOUS
 10
0.122669
 20
1.166967
  0
VERTEX
  8
FOREGROUND
  6
CONTINUOUS
 10
0.116448
 20
1.153203
  0
VERTEX
  8
FOREGROUND
  6
CONTINUOUS
 10
0.110485
 20
1.139300
  0
VERTEX
  8
FOREGROUND
  6
CONTINUOUS
 10
0.104782
 20
1.125261
  0
VERTEX
  8
FOREGROUND
  6
CONTINUOUS
 10
0.099344
 20
1.111088
  0
VERTEX
  8
FOREGROUND
  6
CONTINUOUS
 10
0.094171
 20
1.096785
  0
VERTEX
  8
FOREGROUND
  6
CONTINUOUS
 10
0.089269
 20
1.082355
  0
VERTEX
  8
FOREGROUND
  6
CONTINUOUS
 10
0.084640
 20
1.067801
  0
VERTEX
  8
FOREGROUND
  6
CONTINUOUS
 10
0.080286
 20
1.053126
  0
VERTEX
  8
FOREGROUND
  6
CONTINUOUS
 10
0.076211
 20
1.038333
  0
VERTEX
  8
FOREGROUND
  6
CONTINUOUS
 10
0.072419
 20
1.023425
  0
VERTEX
  8
FOREGROUND
  6
CONTINUOUS
 10
0.068911
 20
1.008405
  0
VERTEX
  8
FOREGROUND
  6
CONTINUOUS
 10
0.065691
 20
0.993277
  0
VERTEX
  8
FOREGROUND
  6
CONTINUOUS
 10
0.062762
 20
0.978042
  0
VERTEX
  8
FOREGROUND
  6
CONTINUOUS
 10
0.060128
 20
0.962704
  0
VERTEX
  8
FOREGROUND
  6
CONTINUOUS
 10
0.057790
 20
0.947267
  0
VERTEX
  8
FOREGROUND
  6
CONTINUOUS
 10
0.055752
 20
0.931733
  0
VERTEX
  8
FOREGROUND
  6
CONTINUOUS
 10
0.054018
 20
0.916105
  0
VERTEX
  8
FOREGROUND
  6
CONTINUOUS
 10
0.052590
 20
0.900387
  0
VERTEX
  8
FOREGROUND
  6
CONTINUOUS
 10
0.051471
 20
0.884581
  0
VERTEX
  8
FOREGROUND
  6
CONTINUOUS
 10
0.050664
 20
0.868690
  0
VERTEX
  8
FOREGROUND
  6
CONTINUOUS
 10
0.050173
 20
0.852718
  0
VERTEX
  8
FOREGROUND
  6
CONTINUOUS
 10
0.050000
 20
0.836667
  0
VERTEX
  8
FOREGROUND
  6
CONTINUOUS
 10
0.050000
 20
0.836667
  0
VERTEX
  8
FOREGROUND
  6
CONTINUOUS
 10
0.050173
 20
0.820614
  0
VERTEX
  8
FOREGROUND
  6
CONTINUOUS
 10
0.050664
 20
0.804639
  0
VERTEX
  8
FOREGROUND
  6
CONTINUOUS
 10
0.051471
 20
0.788747
  0
VERTEX
  8
FOREGROUND
  6
CONTINUOUS
 10
0.052591
 20
0.772938
  0
VERTEX
  8
FOREGROUND
  6
CONTINUOUS
 10
0.054019
 20
0.757218
  0
VERTEX
  8
FOREGROUND
  6
CONTINUOUS
 10
0.055754
 20
0.741588
  0
VERTEX
  8
FOREGROUND
  6
CONTINUOUS
 10
0.057792
 20
0.726052
  0
VERTEX
  8
FOREGROUND
  6
CONTINUOUS
 10
0.060130
 20
0.710613
  0
VERTEX
  8
FOREGROUND
  6
CONTINUOUS
 10
0.062765
 20
0.695274
  0
VERTEX
  8
FOREGROUND
  6
CONTINUOUS
 10
0.065695
 20
0.680037
  0
VERTEX
  8
FOREGROUND
  6
CONTINUOUS
 10
0.068915
 20
0.664907
  0
VERTEX
  8
FOREGROUND
  6
CONTINUOUS
 10
0.072424
 20
0.649885
  0
VERTEX
  8
FOREGROUND
  6
CONTINUOUS
 10
0.076218
 20
0.634975
  0
VERTEX
  8
FOREGROUND
  6
CONTINUOUS
 10
0.080294
 20
0.620181
  0
VERTEX
  8
FOREGROUND
  6
CONTINUOUS
 10
0.084648
 20
0.605504
  0
VERTEX
  8
FOREGROUND
  6
CONTINUOUS
 10
0.089279
 20
0.590949
  0
VERTEX
  8
FOREGROUND
  6
CONTINUOUS
 10
0.094182
 20
0.576517
  0
VERTEX
  8
FOREGROUND
  6
CONTINUOUS
 10
0.099355
 20
0.562213
  0
VERTEX
  8
FOREGROUND
  6
CONTINUOUS
 10
0.104795
 20
0.548039
  0
VERTEX
  8
FOREGROUND
  6
CONTINUOUS
 10
0.110499
 20
0.533998
  0
VERTEX
  8
FOREGROUND
  6
CONTINUOUS
 10
0.116464
 20
0.520094
  0
VERTEX
  8
FOREGROUND
  6
CONTINUOUS
 10
0.122686
 20
0.506328
  0
VERTEX
  8
FOREGROUND
  6
CONTINUOUS
 10
0.129163
 20
0.492706
  0
VERTEX
  8
FOREGROUND
  6
CONTINUOUS
 10
0.135892
 20
0.479228
  0
VERTEX
  8
FOREGROUND
  6
CONTINUOUS
 10
0.142869
 20
0.465899
  0
VERTEX
  8
FOREGROUND
  6
CONTINUOUS
 10
0.150092
 20
0.452721
  0
VERTEX
  8
FOREGROUND
  6
CONTINUOUS
 10
0.157557
 20
0.439698
  0
VERTEX
  8
FOREGROUND
  6
CONTINUOUS
 10
0.165262
 20
0.426832
  0
VERTEX
  8
FOREGROUND
  6
CONTINUOUS
 10
0.173203
 20
0.414127
  0
VERTEX
  8
FOREGROUND
  6
CONTINUOUS
 10
0.181377
 20
0.401585
  0
VERTEX
  8
FOREGROUND
  6
CONTINUOUS
 10
0.189782
 20
0.389210
  0
VERTEX
  8
FOREGROUND
  6
CONTINUOUS
 10
0.198415
 20
0.377005
  0
VERTEX
  8
FOREGROUND
  6
CONTINUOUS
 10
0.207271
 20
0.364973
  0
VERTEX
  8
FOREGROUND
  6
CONTINUOUS
 10
0.216349
 20
0.353116
  0
VERTEX
  8
FOREGROUND
  6
CONTINUOUS
 10
0.225645
 20
0.341438
  0
VERTEX
  8
FOREGROUND
  6
CONTINUOUS
 10
0.235157
 20
0.329941
  0
VERTEX
  8
FOREGROUND
  6
CONTINUOUS
 10
0.244880
 20
0.318630
  0
VERTEX
  8
FOREGROUND
  6
CONTINUOUS
 10
0.254813
 20
0.307506
  0
VERTEX
  8
FOREGROUND
  6
CONTINUOUS
 10
0.264951
 20
0.296574
  0
VERTEX
  8
FOREGROUND
  6
CONTINUOUS
 10
0.275293
 20
0.285835
  0
VERTEX
  8
FOREGROUND
  6
CONTINUOUS
 10
0.285835
 20
0.275293
  0
VERTEX
  8
FOREGROUND
  6
CONTINUOUS
 10
0.296574
 20
0.264951
  0
VERTEX
  8
FOREGROUND
  6
CONTINUOUS
 10
0.307506
 20
0.254813
  0
VERTEX
  8
FOREGROUND
  6
CONTINUOUS
 10
0.318630
 20
0.244880
  0
VERTEX
  8
FOREGROUND
  6
CONTINUOUS
 10
0.329941
 20
0.235157
  0
VERTEX
  8
FOREGROUND
  6
CONTINUOUS
 10
0.341438
 20
0.225645
  0
VERTEX
  8
FOREGROUND
  6
CONTINUOUS
 10
0.353116
 20
0.216349
  0
VERTEX
  8
FOREGROUND
  6
CONTINUOUS
 10
0.364973
 20
0.207271
  0
VERTEX
  8
FOREGROUND
  6
CONTINUOUS
 10
0.377005
 20
0.198415
  0
VERTEX
  8
FOREGROUND
  6
CONTINUOUS
 10
0.389210
 20
0.189782
  0
VERTEX
  8
FOREGROUND
  6
CONTINUOUS
 10
0.401585
 20
0.181377
  0
VERTEX
  8
FOREGROUND
  6
CONTINUOUS
 10
0.414127
 20
0.173203
  0
VERTEX
  8
FOREGROUND
  6
CONTINUOUS
 10
0.426832
 20
0.165262
  0
VERTEX
  8
FOREGROUND
  6
CONTINUOUS
 10
0.439698
 20
0.157557
  0
VERTEX
  8
FOREGROUND
  6
CONTINUOUS
 10
0.452721
 20
0.150092
  0
VERTEX
  8
FOREGROUND
  6
CONTINUOUS
 10
0.465899
 20
0.142869
  0
VERTEX
  8
FOREGROUND
  6
CONTINUOUS
 10
0.479228
 20
0.135892
  0
VERTEX
  8
FOREGROUND
  6
CONTINUOUS
 10
0.492706
 20
0.129163
  0
VERTEX
  8
FOREGROUND
  6
CONTINUOUS
 10
0.506328
 20
0.122686
  0
VERTEX
  8
FOREGROUND
  6
CONTINUOUS
 10
0.520094
 20
0.116464
  0
VERTEX
  8
FOREGROUND
  6
CONTINUOUS
 10
0.533998
 20
0.110499
  0
VERTEX
  8
FOREGROUND
  6
CONTINUOUS
 10
0.548039
 20
0.104795
  0
VERTEX
  8
FOREGROUND
  6
CONTINUOUS
 10
0.562213
 20
0.099355
  0
VERTEX
  8
FOREGROUND
  6
CONTINUOUS
 10
0.576517
 20
0.094182
  0
VERTEX
  8
FOREGROUND
  6
CONTINUOUS
 10
0.590949
 20
0.089279
  0
VERTEX
  8
FOREGROUND
  6
CONTINUOUS
 10
0.605504
 20
0.084648
  0
VERTEX
  8
FOREGROUND
  6
CONTINUOUS
 10
0.620181
 20
0.080294
  0
VERTEX
  8
FOREGROUND
  6
CONTINUOUS
 10
0.634975
 20
0.076218
  0
VERTEX
  8
FOREGROUND
  6
CONTINUOUS
 10
0.649885
 20
0.072424
  0
VERTEX
  8
FOREGROUND
  6
CONTINUOUS
 10
0.664907
 20
0.068915
  0
VERTEX
  8
FOREGROUND
  6
CONTINUOUS
 10
0.680037
 20
0.065695
  0
VERTEX
  8
FOREGROUND
  6
CONTINUOUS
 10
0.695274
 20
0.062765
  0
VERTEX
  8
FOREGROUND
  6
CONTINUOUS
 10
0.710613
 20
0.060130
  0
VERTEX
  8
FOREGROUND
  6
CONTINUOUS
 10
0.726052
 20
0.057792
  0
VERTEX
  8
FOREGROUND
  6
CONTINUOUS
 10
0.741588
 20
0.055754
  0
VERTEX
  8
FOREGROUND
  6
CONTINUOUS
 10
0.757218
 20
0.054019
  0
VERTEX
  8
FOREGROUND
  6
CONTINUOUS
 10
0.772938
 20
0.052591
  0
VERTEX
  8
FOREGROUND
  6
CONTINUOUS
 10
0.788747
 20
0.051471
  0
VERTEX
  8
FOREGROUND
  6
CONTINUOUS
 10
0.804639
 20
0.050664
  0
VERTEX
  8
FOREGROUND
  6
CONTINUOUS
 10
0.820614
 20
0.050173
  0
VERTEX
  8
FOREGROUND
  6
CONTINUOUS
 10
0.836667
 20
0.050000
  0
SEQEND
  8
0
  0
ENDSEC
  0
EOF
