  0
SECTION
  2
HEADER
  9
$ACADVER
  1
AC1006
  9
$EXTMIN
 10
0.000000
 20
0.000000
  9
$EXTMAX
 10
2.865000
 20
2.066667
  9
$LTSCALE
 40
0.166667
  9
$PDMODE
 70
    35
  9
$PDSIZE
 40
0.133333
  0
ENDSEC
  0
SECTION
  2
TABLES
  0
TABLE
  2
LTYPE
 70
     9
  0
LTYPE
  2
CONTINUOUS
 70
    64
  3
Solid line
 72
    65
 73
     0
 40
0.000000
  0
LTYPE
  2
DASHED
 70
    64
  3
__ __ __ __ __ __ __ __ __ __ __ __ __ __ __
 72
    65
 73
     2
 40
0.001250
 49
0.000833
 49
-0.000417
  0
LTYPE
  2
HIDDEN
 70
    64
  3
 _ _ _ _ _ _ _ _ _ _ _ _ _ _ _ _ _ _ _ _ _ _
 72
    65
 73
     2
 40
0.000625
 49
0.000417
 49
-0.000208
  0
LTYPE
  2
CENTER
 70
    64
  3
____ _ ____ _ ____ _ ____ _ ____ _ ____ _ ____
 72
    65
 73
     4
 40
0.003333
 49
0.002083
 49
-0.000417
 49
0.000417
 49
-0.000417
  0
LTYPE
  2
PHANTOM
 70
    64
  3
_____ _ _ _____ _ _ _____ _ _ _____ _ _ ____
 72
    65
 73
     6
 40
0.004167
 49
0.002083
 49
-0.000417
 49
0.000417
 49
-0.000417
 49
0.000417
 49
-0.000417
  0
LTYPE
  2
DOT
 70
    64
  3
...............................................
 72
    65
 73
     2
 40
0.000417
 49
0.000000
 49
-0.000417
  0
LTYPE
  2
DASHDOT
 70
    64
  3
__ . __ . __ . __ . __ . __ . __ . __ . __ . __
 72
    65
 73
     4
 40
0.001667
 49
0.000833
 49
-0.000417
 49
0.000000
 49
-0.000417
  0
LTYPE
  2
BORDER
 70
    64
  3
__ __ . __ __ . __ __ . __ __ . __ __ . __ __
 72
    65
 73
     6
 40
0.002917
 49
0.000833
 49
-0.000417
 49
0.000833
 49
-0.000417
 49
0.000000
 49
-0.000417
  0
LTYPE
  2
DIVIDE
 70
    64
  3
__ . . __ . . __ . . __ . . __ . . __ . . __
 72
    65
 73
     6
 40
0.002083
 49
0.000833
 49
-0.000417
 49
0.000000
 49
-0.000417
 49
0.000000
 49
-0.000417
  0
LTYPE
  2
DOTDOT
 70
    64
  3
 . .  . .  . .  . .  . .  . . 
 72
    65
 73
     5
 40
0.000917
 49
-0.000417
 49
0.000000
 49
-0.000417
 49
0.000000
 49
-0.000417
  0
ENDTAB
  0
TABLE
  2
STYLE
 70
     2
  0
STYLE
 70
     0
  2
SN0
 40
0.000000
 41
0.001667
 50
0.000000
 71
     0
 42
0.000000
  3
ROMAND
  0
STYLE
 70
    68
  2
SV0
 40
0.000000
 41
0.001667
 50
0.000000
 71
     0
 42
0.000000
  3
ROMAND
  0
ENDTAB
  0
TABLE
  2
LAYER
 70
     2
  0
LAYER
  2
FOREGROUND
 70
    64
 62
     7
  6
CONTINUOUS
  0
LAYER
  2
BACKGROUND
 70
    65
 62
    -7
  6
CONTINUOUS
  0
ENDTAB
  0
ENDSEC
  0
SECTION
  2
ENTITIES
  0
POLYLINE
  8
FOREGROUND
  6
CONTINUOUS
 66
     1
 40
0.010000
 41
0.010000
 70
     1
  0
VERTEX
  8
FOREGROUND
  6
CONTINUOUS
 10
1.831667
 20
0.050000
  0
VERTEX
  8
FOREGROUND
  6
CONTINUOUS
 10
1.848782
 20
0.050159
  0
VERTEX
  8
FOREGROUND
  6
CONTINUOUS
 10
1.865826
 20
0.050608
  0
VERTEX
  8
FOREGROUND
  6
CONTINUOUS
 10
1.882797
 20
0.051345
  0
VERTEX
  8
FOREGROUND
  6
CONTINUOUS
 10
1.899692
 20
0.052366
  0
VERTEX
  8
FOREGROUND
  6
CONTINUOUS
 10
1.916509
 20
0.053671
  0
VERTEX
  8
FOREGROUND
  6
CONTINUOUS
 10
1.933246
 20
0.055255
  0
VERTEX
  8
FOREGROUND
  6
CONTINUOUS
 10
1.949900
 20
0.057118
  0
VERTEX
  8
FOREGROUND
  6
CONTINUOUS
 10
1.966468
 20
0.059256
  0
VERTEX
  8
FOREGROUND
  6
CONTINUOUS
 10
1.982950
 20
0.061668
  0
VERTEX
  8
FOREGROUND
  6
CONTINUOUS
 10
1.999341
 20
0.064350
  0
VERTEX
  8
FOREGROUND
  6
CONTINUOUS
 10
2.015640
 20
0.067301
  0
VERTEX
  8
FOREGROUND
  6
CONTINUOUS
 10
2.031845
 20
0.070519
  0
VERTEX
  8
FOREGROUND
  6
CONTINUOUS
 10
2.047953
 20
0.074000
  0
VERTEX
  8
FOREGROUND
  6
CONTINUOUS
 10
2.063962
 20
0.077743
  0
VERTEX
  8
FOREGROUND
  6
CONTINUOUS
 10
2.079869
 20
0.081745
  0
VERTEX
  8
FOREGROUND
  6
CONTINUOUS
 10
2.095672
 20
0.086003
  0
VERTEX
  8
FOREGROUND
  6
CONTINUOUS
 10
2.111369
 20
0.090517
  0
VERTEX
  8
FOREGROUND
  6
CONTINUOUS
 10
2.126957
 20
0.095282
  0
VERTEX
  8
FOREGROUND
  6
CONTINUOUS
 10
2.142434
 20
0.100297
  0
VERTEX
  8
FOREGROUND
  6
CONTINUOUS
 10
2.157798
 20
0.105560
  0
VERTEX
  8
FOREGROUND
  6
CONTINUOUS
 10
2.173047
 20
0.111067
  0
VERTEX
  8
FOREGROUND
  6
CONTINUOUS
 10
2.188177
 20
0.116818
  0
VERTEX
  8
FOREGROUND
  6
CONTINUOUS
 10
2.203187
 20
0.122808
  0
VERTEX
  8
FOREGROUND
  6
CONTINUOUS
 10
2.218074
 20
0.129037
  0
VERTEX
  8
FOREGROUND
  6
CONTINUOUS
 10
2.232836
 20
0.135501
  0
VERTEX
  8
FOREGROUND
  6
CONTINUOUS
 10
2.247470
 20
0.142199
  0
VERTEX
  8
FOREGROUND
  6
CONTINUOUS
 10
2.261975
 20
0.149128
  0
VERTEX
  8
FOREGROUND
  6
CONTINUOUS
 10
2.276347
 20
0.156285
  0
VERTEX
  8
FOREGROUND
  6
CONTINUOUS
 10
2.290585
 20
0.163669
  0
VERTEX
  8
FOREGROUND
  6
CONTINUOUS
 10
2.304686
 20
0.171276
  0
VERTEX
  8
FOREGROUND
  6
CONTINUOUS
 10
2.318648
 20
0.179105
  0
VERTEX
  8
FOREGROUND
  6
CONTINUOUS
 10
2.332469
 20
0.187153
  0
VERTEX
  8
FOREGROUND
  6
CONTINUOUS
 10
2.346145
 20
0.195418
  0
VERTEX
  8
FOREGROUND
  6
CONTINUOUS
 10
2.359675
 20
0.203897
  0
VERTEX
  8
FOREGROUND
  6
CONTINUOUS
 10
2.373057
 20
0.212589
  0
VERTEX
  8
FOREGROUND
  6
CONTINUOUS
 10
2.386287
 20
0.221490
  0
VERTEX
  8
FOREGROUND
  6
CONTINUOUS
 10
2.399364
 20
0.230599
  0
VERTEX
  8
FOREGROUND
  6
CONTINUOUS
 10
2.412286
 20
0.239913
  0
VERTEX
  8
FOREGROUND
  6
CONTINUOUS
 10
2.425049
 20
0.249430
  0
VERTEX
  8
FOREGROUND
  6
CONTINUOUS
 10
2.437653
 20
0.259147
  0
VERTEX
  8
FOREGROUND
  6
CONTINUOUS
 10
2.450093
 20
0.269062
  0
VERTEX
  8
FOREGROUND
  6
CONTINUOUS
 10
2.462368
 20
0.279173
  0
VERTEX
  8
FOREGROUND
  6
CONTINUOUS
 10
2.474476
 20
0.289477
  0
VERTEX
  8
FOREGROUND
  6
CONTINUOUS
 10
2.486414
 20
0.299972
  0
VERTEX
  8
FOREGROUND
  6
CONTINUOUS
 10
2.498180
 20
0.310655
  0
VERTEX
  8
FOREGROUND
  6
CONTINUOUS
 10
2.509771
 20
0.321525
  0
VERTEX
  8
FOREGROUND
  6
CONTINUOUS
 10
2.521186
 20
0.332579
  0
VERTEX
  8
FOREGROUND
  6
CONTINUOUS
 10
2.532421
 20
0.343814
  0
VERTEX
  8
FOREGROUND
  6
CONTINUOUS
 10
2.543475
 20
0.355229
  0
VERTEX
  8
FOREGROUND
  6
CONTINUOUS
 10
2.554345
 20
0.366820
  0
VERTEX
  8
FOREGROUND
  6
CONTINUOUS
 10
2.565028
 20
0.378586
  0
VERTEX
  8
FOREGROUND
  6
CONTINUOUS
 10
2.575523
 20
0.390524
  0
VERTEX
  8
FOREGROUND
  6
CONTINUOUS
 10
2.585827
 20
0.402632
  0
VERTEX
  8
FOREGROUND
  6
CONTINUOUS
 10
2.595938
 20
0.414907
  0
VERTEX
  8
FOREGROUND
  6
CONTINUOUS
 10
2.605853
 20
0.427347
  0
VERTEX
  8
FOREGROUND
  6
CONTINUOUS
 10
2.615570
 20
0.439951
  0
VERTEX
  8
FOREGROUND
  6
CONTINUOUS
 10
2.625087
 20
0.452714
  0
VERTEX
  8
FOREGROUND
  6
CONTINUOUS
 10
2.634401
 20
0.465636
  0
VERTEX
  8
FOREGROUND
  6
CONTINUOUS
 10
2.643510
 20
0.478713
  0
VERTEX
  8
FOREGROUND
  6
CONTINUOUS
 10
2.652411
 20
0.491943
  0
VERTEX
  8
FOREGROUND
  6
CONTINUOUS
 10
2.661103
 20
0.505325
  0
VERTEX
  8
FOREGROUND
  6
CONTINUOUS
 10
2.669582
 20
0.518855
  0
VERTEX
  8
FOREGROUND
  6
CONTINUOUS
 10
2.677847
 20
0.532531
  0
VERTEX
  8
FOREGROUND
  6
CONTINUOUS
 10
2.685895
 20
0.546352
  0
VERTEX
  8
FOREGROUND
  6
CONTINUOUS
 10
2.693724
 20
0.560314
  0
VERTEX
  8
FOREGROUND
  6
CONTINUOUS
 10
2.701331
 20
0.574415
  0
VERTEX
  8
FOREGROUND
  6
CONTINUOUS
 10
2.708715
 20
0.588653
  0
VERTEX
  8
FOREGROUND
  6
CONTINUOUS
 10
2.715872
 20
0.603025
  0
VERTEX
  8
FOREGROUND
  6
CONTINUOUS
 10
2.722801
 20
0.617530
  0
VERTEX
  8
FOREGROUND
  6
CONTINUOUS
 10
2.729499
 20
0.632164
  0
VERTEX
  8
FOREGROUND
  6
CONTINUOUS
 10
2.735963
 20
0.646926
  0
VERTEX
  8
FOREGROUND
  6
CONTINUOUS
 10
2.742192
 20
0.661813
  0
VERTEX
  8
FOREGROUND
  6
CONTINUOUS
 10
2.748182
 20
0.676823
  0
VERTEX
  8
FOREGROUND
  6
CONTINUOUS
 10
2.753933
 20
0.691953
  0
VERTEX
  8
FOREGROUND
  6
CONTINUOUS
 10
2.759440
 20
0.707202
  0
VERTEX
  8
FOREGROUND
  6
CONTINUOUS
 10
2.764703
 20
0.722566
  0
VERTEX
  8
FOREGROUND
  6
CONTINUOUS
 10
2.769718
 20
0.738043
  0
VERTEX
  8
FOREGROUND
  6
CONTINUOUS
 10
2.774483
 20
0.753631
  0
VERTEX
  8
FOREGROUND
  6
CONTINUOUS
 10
2.778997
 20
0.769328
  0
VERTEX
  8
FOREGROUND
  6
CONTINUOUS
 10
2.783255
 20
0.785131
  0
VERTEX
  8
FOREGROUND
  6
CONTINUOUS
 10
2.787257
 20
0.801038
  0
VERTEX
  8
FOREGROUND
  6
CONTINUOUS
 10
2.791000
 20
0.817047
  0
VERTEX
  8
FOREGROUND
  6
CONTINUOUS
 10
2.794481
 20
0.833155
  0
VERTEX
  8
FOREGROUND
  6
CONTINUOUS
 10
2.797699
 20
0.849360
  0
VERTEX
  8
FOREGROUND
  6
CONTINUOUS
 10
2.800650
 20
0.865659
  0
VERTEX
  8
FOREGROUND
  6
CONTINUOUS
 10
2.803332
 20
0.882050
  0
VERTEX
  8
FOREGROUND
  6
CONTINUOUS
 10
2.805744
 20
0.898532
  0
VERTEX
  8
FOREGROUND
  6
CONTINUOUS
 10
2.807882
 20
0.915100
  0
VERTEX
  8
FOREGROUND
  6
CONTINUOUS
 10
2.809745
 20
0.931754
  0
VERTEX
  8
FOREGROUND
  6
CONTINUOUS
 10
2.811329
 20
0.948491
  0
VERTEX
  8
FOREGROUND
  6
CONTINUOUS
 10
2.812634
 20
0.965308
  0
VERTEX
  8
FOREGROUND
  6
CONTINUOUS
 10
2.813655
 20
0.982203
  0
VERTEX
  8
FOREGROUND
  6
CONTINUOUS
 10
2.814392
 20
0.999174
  0
VERTEX
  8
FOREGROUND
  6
CONTINUOUS
 10
2.814841
 20
1.016218
  0
VERTEX
  8
FOREGROUND
  6
CONTINUOUS
 10
2.815000
 20
1.033333
  0
VERTEX
  8
FOREGROUND
  6
CONTINUOUS
 10
2.815000
 20
1.033333
  0
VERTEX
  8
FOREGROUND
  6
CONTINUOUS
 10
2.814841
 20
1.050451
  0
VERTEX
  8
FOREGROUND
  6
CONTINUOUS
 10
2.814391
 20
1.067497
  0
VERTEX
  8
FOREGROUND
  6
CONTINUOUS
 10
2.813655
 20
1.084470
  0
VERTEX
  8
FOREGROUND
  6
CONTINUOUS
 10
2.812633
 20
1.101367
  0
VERTEX
  8
FOREGROUND
  6
CONTINUOUS
 10
2.811328
 20
1.118187
  0
VERTEX
  8
FOREGROUND
  6
CONTINUOUS
 10
2.809743
 20
1.134925
  0
VERTEX
  8
FOREGROUND
  6
CONTINUOUS
 10
2.807880
 20
1.151581
  0
VERTEX
  8
FOREGROUND
  6
CONTINUOUS
 10
2.805742
 20
1.168152
  0
VERTEX
  8
FOREGROUND
  6
CONTINUOUS
 10
2.803329
 20
1.184635
  0
VERTEX
  8
FOREGROUND
  6
CONTINUOUS
 10
2.800646
 20
1.201029
  0
VERTEX
  8
FOREGROUND
  6
CONTINUOUS
 10
2.797694
 20
1.217330
  0
VERTEX
  8
FOREGROUND
  6
CONTINUOUS
 10
2.794476
 20
1.233537
  0
VERTEX
  8
FOREGROUND
  6
CONTINUOUS
 10
2.790994
 20
1.249646
  0
VERTEX
  8
FOREGROUND
  6
CONTINUOUS
 10
2.787251
 20
1.265657
  0
VERTEX
  8
FOREGROUND
  6
CONTINUOUS
 10
2.783248
 20
1.281566
  0
VERTEX
  8
FOREGROUND
  6
CONTINUOUS
 10
2.778988
 20
1.297371
  0
VERTEX
  8
FOREGROUND
  6
CONTINUOUS
 10
2.774474
 20
1.313069
  0
VERTEX
  8
FOREGROUND
  6
CONTINUOUS
 10
2.769707
 20
1.328659
  0
VERTEX
  8
FOREGROUND
  6
CONTINUOUS
 10
2.764691
 20
1.344138
  0
VERTEX
  8
FOREGROUND
  6
CONTINUOUS
 10
2.759427
 20
1.359504
  0
VERTEX
  8
FOREGROUND
  6
CONTINUOUS
 10
2.753918
 20
1.374753
  0
VERTEX
  8
FOREGROUND
  6
CONTINUOUS
 10
2.748166
 20
1.389885
  0
VERTEX
  8
FOREGROUND
  6
CONTINUOUS
 10
2.742174
 20
1.404896
  0
VERTEX
  8
FOREGROUND
  6
CONTINUOUS
 10
2.735944
 20
1.419785
  0
VERTEX
  8
FOREGROUND
  6
CONTINUOUS
 10
2.729478
 20
1.434548
  0
VERTEX
  8
FOREGROUND
  6
CONTINUOUS
 10
2.722779
 20
1.449184
  0
VERTEX
  8
FOREGROUND
  6
CONTINUOUS
 10
2.715849
 20
1.463690
  0
VERTEX
  8
FOREGROUND
  6
CONTINUOUS
 10
2.708690
 20
1.478064
  0
VERTEX
  8
FOREGROUND
  6
CONTINUOUS
 10
2.701305
 20
1.492303
  0
VERTEX
  8
FOREGROUND
  6
CONTINUOUS
 10
2.693696
 20
1.506405
  0
VERTEX
  8
FOREGROUND
  6
CONTINUOUS
 10
2.685865
 20
1.520368
  0
VERTEX
  8
FOREGROUND
  6
CONTINUOUS
 10
2.677815
 20
1.534190
  0
VERTEX
  8
FOREGROUND
  6
CONTINUOUS
 10
2.669548
 20
1.547867
  0
VERTEX
  8
FOREGROUND
  6
CONTINUOUS
 10
2.661067
 20
1.561398
  0
VERTEX
  8
FOREGROUND
  6
CONTINUOUS
 10
2.652373
 20
1.574781
  0
VERTEX
  8
FOREGROUND
  6
CONTINUOUS
 10
2.643470
 20
1.588012
  0
VERTEX
  8
FOREGROUND
  6
CONTINUOUS
 10
2.634359
 20
1.601090
  0
VERTEX
  8
FOREGROUND
  6
CONTINUOUS
 10
2.625043
 20
1.614012
  0
VERTEX
  8
FOREGROUND
  6
CONTINUOUS
 10
2.615524
 20
1.626777
  0
VERTEX
  8
FOREGROUND
  6
CONTINUOUS
 10
2.605805
 20
1.639380
  0
VERTEX
  8
FOREGROUND
  6
CONTINUOUS
 10
2.595888
 20
1.651821
  0
VERTEX
  8
FOREGROUND
  6
CONTINUOUS
 10
2.585775
 20
1.664097
  0
VERTEX
  8
FOREGROUND
  6
CONTINUOUS
 10
2.575469
 20
1.676205
  0
VERTEX
  8
FOREGROUND
  6
CONTINUOUS
 10
2.564972
 20
1.688144
  0
VERTEX
  8
FOREGROUND
  6
CONTINUOUS
 10
2.554286
 20
1.699910
  0
VERTEX
  8
FOREGROUND
  6
CONTINUOUS
 10
2.543414
 20
1.711502
  0
VERTEX
  8
FOREGROUND
  6
CONTINUOUS
 10
2.532358
 20
1.722917
  0
VERTEX
  8
FOREGROUND
  6
CONTINUOUS
 10
2.521120
 20
1.734152
  0
VERTEX
  8
FOREGROUND
  6
CONTINUOUS
 10
2.509703
 20
1.745206
  0
VERTEX
  8
FOREGROUND
  6
CONTINUOUS
 10
2.498110
 20
1.756076
  0
VERTEX
  8
FOREGROUND
  6
CONTINUOUS
 10
2.486341
 20
1.766760
  0
VERTEX
  8
FOREGROUND
  6
CONTINUOUS
 10
2.474401
 20
1.777255
  0
VERTEX
  8
FOREGROUND
  6
CONTINUOUS
 10
2.462291
 20
1.787559
  0
VERTEX
  8
FOREGROUND
  6
CONTINUOUS
 10
2.450013
 20
1.797670
  0
VERTEX
  8
FOREGROUND
  6
CONTINUOUS
 10
2.437570
 20
1.807584
  0
VERTEX
  8
FOREGROUND
  6
CONTINUOUS
 10
2.424965
 20
1.817301
  0
VERTEX
  8
FOREGROUND
  6
CONTINUOUS
 10
2.412199
 20
1.826817
  0
VERTEX
  8
FOREGROUND
  6
CONTINUOUS
 10
2.399275
 20
1.836131
  0
VERTEX
  8
FOREGROUND
  6
CONTINUOUS
 10
2.386195
 20
1.845239
  0
VERTEX
  8
FOREGROUND
  6
CONTINUOUS
 10
2.372962
 20
1.854140
  0
VERTEX
  8
FOREGROUND
  6
CONTINUOUS
 10
2.359578
 20
1.862831
  0
VERTEX
  8
FOREGROUND
  6
CONTINUOUS
 10
2.346045
 20
1.871310
  0
VERTEX
  8
FOREGROUND
  6
CONTINUOUS
 10
2.332366
 20
1.879574
  0
VERTEX
  8
FOREGROUND
  6
CONTINUOUS
 10
2.318543
 20
1.887622
  0
VERTEX
  8
FOREGROUND
  6
CONTINUOUS
 10
2.304579
 20
1.895450
  0
VERTEX
  8
FOREGROUND
  6
CONTINUOUS
 10
2.290475
 20
1.903056
  0
VERTEX
  8
FOREGROUND
  6
CONTINUOUS
 10
2.276234
 20
1.910439
  0
VERTEX
  8
FOREGROUND
  6
CONTINUOUS
 10
2.261859
 20
1.917595
  0
VERTEX
  8
FOREGROUND
  6
CONTINUOUS
 10
2.247352
 20
1.924523
  0
VERTEX
  8
FOREGROUND
  6
CONTINUOUS
 10
2.232715
 20
1.931219
  0
VERTEX
  8
FOREGROUND
  6
CONTINUOUS
 10
2.217951
 20
1.937682
  0
VERTEX
  8
FOREGROUND
  6
CONTINUOUS
 10
2.203061
 20
1.943910
  0
VERTEX
  8
FOREGROUND
  6
CONTINUOUS
 10
2.188049
 20
1.949899
  0
VERTEX
  8
FOREGROUND
  6
CONTINUOUS
 10
2.172916
 20
1.955648
  0
VERTEX
  8
FOREGROUND
  6
CONTINUOUS
 10
2.157665
 20
1.961154
  0
VERTEX
  8
FOREGROUND
  6
CONTINUOUS
 10
2.142299
 20
1.966415
  0
VERTEX
  8
FOREGROUND
  6
CONTINUOUS
 10
2.126819
 20
1.971428
  0
VERTEX
  8
FOREGROUND
  6
CONTINUOUS
 10
2.111228
 20
1.976192
  0
VERTEX
  8
FOREGROUND
  6
CONTINUOUS
 10
2.095529
 20
1.980704
  0
VERTEX
  8
FOREGROUND
  6
CONTINUOUS
 10
2.079723
 20
1.984960
  0
VERTEX
  8
FOREGROUND
  6
CONTINUOUS
 10
2.063813
 20
1.988960
  0
VERTEX
  8
FOREGROUND
  6
CONTINUOUS
 10
2.047802
 20
1.992701
  0
VERTEX
  8
FOREGROUND
  6
CONTINUOUS
 10
2.031692
 20
1.996180
  0
VERTEX
  8
FOREGROUND
  6
CONTINUOUS
 10
2.015484
 20
1.999395
  0
VERTEX
  8
FOREGROUND
  6
CONTINUOUS
 10
1.999183
 20
2.002344
  0
VERTEX
  8
FOREGROUND
  6
CONTINUOUS
 10
1.982789
 20
2.005024
  0
VERTEX
  8
FOREGROUND
  6
CONTINUOUS
 10
1.966305
 20
2.007433
  0
VERTEX
  8
FOREGROUND
  6
CONTINUOUS
 10
1.949734
 20
2.009569
  0
VERTEX
  8
FOREGROUND
  6
CONTINUOUS
 10
1.933077
 20
2.011429
  0
VERTEX
  8
FOREGROUND
  6
CONTINUOUS
 10
1.916338
 20
2.013011
  0
VERTEX
  8
FOREGROUND
  6
CONTINUOUS
 10
1.899519
 20
2.014312
  0
VERTEX
  8
FOREGROUND
  6
CONTINUOUS
 10
1.882621
 20
2.015331
  0
VERTEX
  8
FOREGROUND
  6
CONTINUOUS
 10
1.865648
 20
2.016064
  0
VERTEX
  8
FOREGROUND
  6
CONTINUOUS
 10
1.848602
 20
2.016510
  0
VERTEX
  8
FOREGROUND
  6
CONTINUOUS
 10
1.831484
 20
2.016667
  0
VERTEX
  8
FOREGROUND
  6
CONTINUOUS
 10
1.033151
 20
2.016667
  0
VERTEX
  8
FOREGROUND
  6
CONTINUOUS
 10
1.016038
 20
2.016504
  0
VERTEX
  8
FOREGROUND
  6
CONTINUOUS
 10
0.998996
 20
2.016052
  0
VERTEX
  8
FOREGROUND
  6
CONTINUOUS
 10
0.982028
 20
2.015313
  0
VERTEX
  8
FOREGROUND
  6
CONTINUOUS
 10
0.965135
 20
2.014288
  0
VERTEX
  8
FOREGROUND
  6
CONTINUOUS
 10
0.948320
 20
2.012981
  0
VERTEX
  8
FOREGROUND
  6
CONTINUOUS
 10
0.931586
 20
2.011394
  0
VERTEX
  8
FOREGROUND
  6
CONTINUOUS
 10
0.914935
 20
2.009529
  0
VERTEX
  8
FOREGROUND
  6
CONTINUOUS
 10
0.898368
 20
2.007388
  0
VERTEX
  8
FOREGROUND
  6
CONTINUOUS
 10
0.881889
 20
2.004974
  0
VERTEX
  8
FOREGROUND
  6
CONTINUOUS
 10
0.865500
 20
2.002289
  0
VERTEX
  8
FOREGROUND
  6
CONTINUOUS
 10
0.849203
 20
1.999335
  0
VERTEX
  8
FOREGROUND
  6
CONTINUOUS
 10
0.833001
 20
1.996116
  0
VERTEX
  8
FOREGROUND
  6
CONTINUOUS
 10
0.816896
 20
1.992633
  0
VERTEX
  8
FOREGROUND
  6
CONTINUOUS
 10
0.800890
 20
1.988888
  0
VERTEX
  8
FOREGROUND
  6
CONTINUOUS
 10
0.784985
 20
1.984884
  0
VERTEX
  8
FOREGROUND
  6
CONTINUOUS
 10
0.769184
 20
1.980623
  0
VERTEX
  8
FOREGROUND
  6
CONTINUOUS
 10
0.753490
 20
1.976108
  0
VERTEX
  8
FOREGROUND
  6
CONTINUOUS
 10
0.737904
 20
1.971341
  0
VERTEX
  8
FOREGROUND
  6
CONTINUOUS
 10
0.722430
 20
1.966324
  0
VERTEX
  8
FOREGROUND
  6
CONTINUOUS
 10
0.707068
 20
1.961060
  0
VERTEX
  8
FOREGROUND
  6
CONTINUOUS
 10
0.691823
 20
1.955551
  0
VERTEX
  8
FOREGROUND
  6
CONTINUOUS
 10
0.676695
 20
1.949799
  0
VERTEX
  8
FOREGROUND
  6
CONTINUOUS
 10
0.661688
 20
1.943807
  0
VERTEX
  8
FOREGROUND
  6
CONTINUOUS
 10
0.646803
 20
1.937577
  0
VERTEX
  8
FOREGROUND
  6
CONTINUOUS
 10
0.632044
 20
1.931111
  0
VERTEX
  8
FOREGROUND
  6
CONTINUOUS
 10
0.617412
 20
1.924412
  0
VERTEX
  8
FOREGROUND
  6
CONTINUOUS
 10
0.602910
 20
1.917483
  0
VERTEX
  8
FOREGROUND
  6
CONTINUOUS
 10
0.588540
 20
1.910324
  0
VERTEX
  8
FOREGROUND
  6
CONTINUOUS
 10
0.574305
 20
1.902940
  0
VERTEX
  8
FOREGROUND
  6
CONTINUOUS
 10
0.560206
 20
1.895332
  0
VERTEX
  8
FOREGROUND
  6
CONTINUOUS
 10
0.546247
 20
1.887502
  0
VERTEX
  8
FOREGROUND
  6
CONTINUOUS
 10
0.532429
 20
1.879453
  0
VERTEX
  8
FOREGROUND
  6
CONTINUOUS
 10
0.518755
 20
1.871187
  0
VERTEX
  8
FOREGROUND
  6
CONTINUOUS
 10
0.505227
 20
1.862707
  0
VERTEX
  8
FOREGROUND
  6
CONTINUOUS
 10
0.491849
 20
1.854015
  0
VERTEX
  8
FOREGROUND
  6
CONTINUOUS
 10
0.478620
 20
1.845113
  0
VERTEX
  8
FOREGROUND
  6
CONTINUOUS
 10
0.465546
 20
1.836004
  0
VERTEX
  8
FOREGROUND
  6
CONTINUOUS
 10
0.452627
 20
1.826690
  0
VERTEX
  8
FOREGROUND
  6
CONTINUOUS
 10
0.439866
 20
1.817173
  0
VERTEX
  8
FOREGROUND
  6
CONTINUOUS
 10
0.427265
 20
1.807455
  0
VERTEX
  8
FOREGROUND
  6
CONTINUOUS
 10
0.414827
 20
1.797540
  0
VERTEX
  8
FOREGROUND
  6
CONTINUOUS
 10
0.402554
 20
1.787429
  0
VERTEX
  8
FOREGROUND
  6
CONTINUOUS
 10
0.390449
 20
1.777125
  0
VERTEX
  8
FOREGROUND
  6
CONTINUOUS
 10
0.378513
 20
1.766630
  0
VERTEX
  8
FOREGROUND
  6
CONTINUOUS
 10
0.366750
 20
1.755947
  0
VERTEX
  8
FOREGROUND
  6
CONTINUOUS
 10
0.355161
 20
1.745077
  0
VERTEX
  8
FOREGROUND
  6
CONTINUOUS
 10
0.343749
 20
1.734023
  0
VERTEX
  8
FOREGROUND
  6
CONTINUOUS
 10
0.332516
 20
1.722788
  0
VERTEX
  8
FOREGROUND
  6
CONTINUOUS
 10
0.321464
 20
1.711374
  0
VERTEX
  8
FOREGROUND
  6
CONTINUOUS
 10
0.310596
 20
1.699783
  0
VERTEX
  8
FOREGROUND
  6
CONTINUOUS
 10
0.299915
 20
1.688017
  0
VERTEX
  8
FOREGROUND
  6
CONTINUOUS
 10
0.289422
 20
1.676080
  0
VERTEX
  8
FOREGROUND
  6
CONTINUOUS
 10
0.279120
 20
1.663973
  0
VERTEX
  8
FOREGROUND
  6
CONTINUOUS
 10
0.269012
 20
1.651698
  0
VERTEX
  8
FOREGROUND
  6
CONTINUOUS
 10
0.259099
 20
1.639258
  0
VERTEX
  8
FOREGROUND
  6
CONTINUOUS
 10
0.249384
 20
1.626656
  0
VERTEX
  8
FOREGROUND
  6
CONTINUOUS
 10
0.239870
 20
1.613893
  0
VERTEX
  8
FOREGROUND
  6
CONTINUOUS
 10
0.230558
 20
1.600972
  0
VERTEX
  8
FOREGROUND
  6
CONTINUOUS
 10
0.221451
 20
1.587896
  0
VERTEX
  8
FOREGROUND
  6
CONTINUOUS
 10
0.212551
 20
1.574666
  0
VERTEX
  8
FOREGROUND
  6
CONTINUOUS
 10
0.203862
 20
1.561285
  0
VERTEX
  8
FOREGROUND
  6
CONTINUOUS
 10
0.195384
 20
1.547756
  0
VERTEX
  8
FOREGROUND
  6
CONTINUOUS
 10
0.187121
 20
1.534081
  0
VERTEX
  8
FOREGROUND
  6
CONTINUOUS
 10
0.179075
 20
1.520262
  0
VERTEX
  8
FOREGROUND
  6
CONTINUOUS
 10
0.171247
 20
1.506301
  0
VERTEX
  8
FOREGROUND
  6
CONTINUOUS
 10
0.163642
 20
1.492201
  0
VERTEX
  8
FOREGROUND
  6
CONTINUOUS
 10
0.156260
 20
1.477964
  0
VERTEX
  8
FOREGROUND
  6
CONTINUOUS
 10
0.149104
 20
1.463593
  0
VERTEX
  8
FOREGROUND
  6
CONTINUOUS
 10
0.142177
 20
1.449089
  0
VERTEX
  8
FOREGROUND
  6
CONTINUOUS
 10
0.135481
 20
1.434456
  0
VERTEX
  8
FOREGROUND
  6
CONTINUOUS
 10
0.129018
 20
1.419696
  0
VERTEX
  8
FOREGROUND
  6
CONTINUOUS
 10
0.122791
 20
1.404810
  0
VERTEX
  8
FOREGROUND
  6
CONTINUOUS
 10
0.116802
 20
1.389802
  0
VERTEX
  8
FOREGROUND
  6
CONTINUOUS
 10
0.111053
 20
1.374673
  0
VERTEX
  8
FOREGROUND
  6
CONTINUOUS
 10
0.105546
 20
1.359426
  0
VERTEX
  8
FOREGROUND
  6
CONTINUOUS
 10
0.100285
 20
1.344064
  0
VERTEX
  8
FOREGROUND
  6
CONTINUOUS
 10
0.095271
 20
1.328589
  0
VERTEX
  8
FOREGROUND
  6
CONTINUOUS
 10
0.090507
 20
1.313002
  0
VERTEX
  8
FOREGROUND
  6
CONTINUOUS
 10
0.085995
 20
1.297307
  0
VERTEX
  8
FOREGROUND
  6
CONTINUOUS
 10
0.081737
 20
1.281505
  0
VERTEX
  8
FOREGROUND
  6
CONTINUOUS
 10
0.077736
 20
1.265600
  0
VERTEX
  8
FOREGROUND
  6
CONTINUOUS
 10
0.073994
 20
1.249593
  0
VERTEX
  8
FOREGROUND
  6
CONTINUOUS
 10
0.070514
 20
1.233487
  0
VERTEX
  8
FOREGROUND
  6
CONTINUOUS
 10
0.067297
 20
1.217284
  0
VERTEX
  8
FOREGROUND
  6
CONTINUOUS
 10
0.064347
 20
1.200987
  0
VERTEX
  8
FOREGROUND
  6
CONTINUOUS
 10
0.061665
 20
1.184597
  0
VERTEX
  8
FOREGROUND
  6
CONTINUOUS
 10
0.059254
 20
1.168118
  0
VERTEX
  8
FOREGROUND
  6
CONTINUOUS
 10
0.057116
 20
1.151551
  0
VERTEX
  8
FOREGROUND
  6
CONTINUOUS
 10
0.055254
 20
1.134899
  0
VERTEX
  8
FOREGROUND
  6
CONTINUOUS
 10
0.053670
 20
1.118165
  0
VERTEX
  8
FOREGROUND
  6
CONTINUOUS
 10
0.052366
 20
1.101350
  0
VERTEX
  8
FOREGROUND
  6
CONTINUOUS
 10
0.051345
 20
1.084457
  0
VERTEX
  8
FOREGROUND
  6
CONTINUOUS
 10
0.050608
 20
1.067488
  0
VERTEX
  8
FOREGROUND
  6
CONTINUOUS
 10
0.050159
 20
1.050446
  0
VERTEX
  8
FOREGROUND
  6
CONTINUOUS
 10
0.050000
 20
1.033333
  0
VERTEX
  8
FOREGROUND
  6
CONTINUOUS
 10
0.050000
 20
1.033333
  0
VERTEX
  8
FOREGROUND
  6
CONTINUOUS
 10
0.050159
 20
1.016218
  0
VERTEX
  8
FOREGROUND
  6
CONTINUOUS
 10
0.050608
 20
0.999174
  0
VERTEX
  8
FOREGROUND
  6
CONTINUOUS
 10
0.051345
 20
0.982203
  0
VERTEX
  8
FOREGROUND
  6
CONTINUOUS
 10
0.052366
 20
0.965308
  0
VERTEX
  8
FOREGROUND
  6
CONTINUOUS
 10
0.053671
 20
0.948491
  0
VERTEX
  8
FOREGROUND
  6
CONTINUOUS
 10
0.055255
 20
0.931754
  0
VERTEX
  8
FOREGROUND
  6
CONTINUOUS
 10
0.057118
 20
0.915100
  0
VERTEX
  8
FOREGROUND
  6
CONTINUOUS
 10
0.059256
 20
0.898532
  0
VERTEX
  8
FOREGROUND
  6
CONTINUOUS
 10
0.061668
 20
0.882050
  0
VERTEX
  8
FOREGROUND
  6
CONTINUOUS
 10
0.064350
 20
0.865659
  0
VERTEX
  8
FOREGROUND
  6
CONTINUOUS
 10
0.067301
 20
0.849360
  0
VERTEX
  8
FOREGROUND
  6
CONTINUOUS
 10
0.070519
 20
0.833155
  0
VERTEX
  8
FOREGROUND
  6
CONTINUOUS
 10
0.074000
 20
0.817047
  0
VERTEX
  8
FOREGROUND
  6
CONTINUOUS
 10
0.077743
 20
0.801038
  0
VERTEX
  8
FOREGROUND
  6
CONTINUOUS
 10
0.081745
 20
0.785131
  0
VERTEX
  8
FOREGROUND
  6
CONTINUOUS
 10
0.086003
 20
0.769328
  0
VERTEX
  8
FOREGROUND
  6
CONTINUOUS
 10
0.090517
 20
0.753631
  0
VERTEX
  8
FOREGROUND
  6
CONTINUOUS
 10
0.095282
 20
0.738043
  0
VERTEX
  8
FOREGROUND
  6
CONTINUOUS
 10
0.100297
 20
0.722566
  0
VERTEX
  8
FOREGROUND
  6
CONTINUOUS
 10
0.105560
 20
0.707202
  0
VERTEX
  8
FOREGROUND
  6
CONTINUOUS
 10
0.111067
 20
0.691953
  0
VERTEX
  8
FOREGROUND
  6
CONTINUOUS
 10
0.116818
 20
0.676823
  0
VERTEX
  8
FOREGROUND
  6
CONTINUOUS
 10
0.122808
 20
0.661813
  0
VERTEX
  8
FOREGROUND
  6
CONTINUOUS
 10
0.129037
 20
0.646926
  0
VERTEX
  8
FOREGROUND
  6
CONTINUOUS
 10
0.135501
 20
0.632164
  0
VERTEX
  8
FOREGROUND
  6
CONTINUOUS
 10
0.142199
 20
0.617530
  0
VERTEX
  8
FOREGROUND
  6
CONTINUOUS
 10
0.149128
 20
0.603025
  0
VERTEX
  8
FOREGROUND
  6
CONTINUOUS
 10
0.156285
 20
0.588653
  0
VERTEX
  8
FOREGROUND
  6
CONTINUOUS
 10
0.163669
 20
0.574415
  0
VERTEX
  8
FOREGROUND
  6
CONTINUOUS
 10
0.171276
 20
0.560314
  0
VERTEX
  8
FOREGROUND
  6
CONTINUOUS
 10
0.179105
 20
0.546352
  0
VERTEX
  8
FOREGROUND
  6
CONTINUOUS
 10
0.187153
 20
0.532531
  0
VERTEX
  8
FOREGROUND
  6
CONTINUOUS
 10
0.195418
 20
0.518855
  0
VERTEX
  8
FOREGROUND
  6
CONTINUOUS
 10
0.203897
 20
0.505325
  0
VERTEX
  8
FOREGROUND
  6
CONTINUOUS
 10
0.212589
 20
0.491943
  0
VERTEX
  8
FOREGROUND
  6
CONTINUOUS
 10
0.221490
 20
0.478713
  0
VERTEX
  8
FOREGROUND
  6
CONTINUOUS
 10
0.230599
 20
0.465636
  0
VERTEX
  8
FOREGROUND
  6
CONTINUOUS
 10
0.239913
 20
0.452714
  0
VERTEX
  8
FOREGROUND
  6
CONTINUOUS
 10
0.249430
 20
0.439951
  0
VERTEX
  8
FOREGROUND
  6
CONTINUOUS
 10
0.259147
 20
0.427347
  0
VERTEX
  8
FOREGROUND
  6
CONTINUOUS
 10
0.269062
 20
0.414907
  0
VERTEX
  8
FOREGROUND
  6
CONTINUOUS
 10
0.279173
 20
0.402632
  0
VERTEX
  8
FOREGROUND
  6
CONTINUOUS
 10
0.289477
 20
0.390524
  0
VERTEX
  8
FOREGROUND
  6
CONTINUOUS
 10
0.299972
 20
0.378586
  0
VERTEX
  8
FOREGROUND
  6
CONTINUOUS
 10
0.310655
 20
0.366820
  0
VERTEX
  8
FOREGROUND
  6
CONTINUOUS
 10
0.321525
 20
0.355229
  0
VERTEX
  8
FOREGROUND
  6
CONTINUOUS
 10
0.332579
 20
0.343814
  0
VERTEX
  8
FOREGROUND
  6
CONTINUOUS
 10
0.343814
 20
0.332579
  0
VERTEX
  8
FOREGROUND
  6
CONTINUOUS
 10
0.355229
 20
0.321525
  0
VERTEX
  8
FOREGROUND
  6
CONTINUOUS
 10
0.366820
 20
0.310655
  0
VERTEX
  8
FOREGROUND
  6
CONTINUOUS
 10
0.378586
 20
0.299972
  0
VERTEX
  8
FOREGROUND
  6
CONTINUOUS
 10
0.390524
 20
0.289477
  0
VERTEX
  8
FOREGROUND
  6
CONTINUOUS
 10
0.402632
 20
0.279173
  0
VERTEX
  8
FOREGROUND
  6
CONTINUOUS
 10
0.414907
 20
0.269062
  0
VERTEX
  8
FOREGROUND
  6
CONTINUOUS
 10
0.427347
 20
0.259147
  0
VERTEX
  8
FOREGROUND
  6
CONTINUOUS
 10
0.439951
 20
0.249430
  0
VERTEX
  8
FOREGROUND
  6
CONTINUOUS
 10
0.452714
 20
0.239913
  0
VERTEX
  8
FOREGROUND
  6
CONTINUOUS
 10
0.465636
 20
0.230599
  0
VERTEX
  8
FOREGROUND
  6
CONTINUOUS
 10
0.478713
 20
0.221490
  0
VERTEX
  8
FOREGROUND
  6
CONTINUOUS
 10
0.491943
 20
0.212589
  0
VERTEX
  8
FOREGROUND
  6
CONTINUOUS
 10
0.505325
 20
0.203897
  0
VERTEX
  8
FOREGROUND
  6
CONTINUOUS
 10
0.518855
 20
0.195418
  0
VERTEX
  8
FOREGROUND
  6
CONTINUOUS
 10
0.532531
 20
0.187153
  0
VERTEX
  8
FOREGROUND
  6
CONTINUOUS
 10
0.546352
 20
0.179105
  0
VERTEX
  8
FOREGROUND
  6
CONTINUOUS
 10
0.560314
 20
0.171276
  0
VERTEX
  8
FOREGROUND
  6
CONTINUOUS
 10
0.574415
 20
0.163669
  0
VERTEX
  8
FOREGROUND
  6
CONTINUOUS
 10
0.588653
 20
0.156285
  0
VERTEX
  8
FOREGROUND
  6
CONTINUOUS
 10
0.603025
 20
0.149128
  0
VERTEX
  8
FOREGROUND
  6
CONTINUOUS
 10
0.617530
 20
0.142199
  0
VERTEX
  8
FOREGROUND
  6
CONTINUOUS
 10
0.632164
 20
0.135501
  0
VERTEX
  8
FOREGROUND
  6
CONTINUOUS
 10
0.646926
 20
0.129037
  0
VERTEX
  8
FOREGROUND
  6
CONTINUOUS
 10
0.661813
 20
0.122808
  0
VERTEX
  8
FOREGROUND
  6
CONTINUOUS
 10
0.676823
 20
0.116818
  0
VERTEX
  8
FOREGROUND
  6
CONTINUOUS
 10
0.691953
 20
0.111067
  0
VERTEX
  8
FOREGROUND
  6
CONTINUOUS
 10
0.707202
 20
0.105560
  0
VERTEX
  8
FOREGROUND
  6
CONTINUOUS
 10
0.722566
 20
0.100297
  0
VERTEX
  8
FOREGROUND
  6
CONTINUOUS
 10
0.738043
 20
0.095282
  0
VERTEX
  8
FOREGROUND
  6
CONTINUOUS
 10
0.753631
 20
0.090517
  0
VERTEX
  8
FOREGROUND
  6
CONTINUOUS
 10
0.769328
 20
0.086003
  0
VERTEX
  8
FOREGROUND
  6
CONTINUOUS
 10
0.785131
 20
0.081745
  0
VERTEX
  8
FOREGROUND
  6
CONTINUOUS
 10
0.801038
 20
0.077743
  0
VERTEX
  8
FOREGROUND
  6
CONTINUOUS
 10
0.817047
 20
0.074000
  0
VERTEX
  8
FOREGROUND
  6
CONTINUOUS
 10
0.833155
 20
0.070519
  0
VERTEX
  8
FOREGROUND
  6
CONTINUOUS
 10
0.849360
 20
0.067301
  0
VERTEX
  8
FOREGROUND
  6
CONTINUOUS
 10
0.865659
 20
0.064350
  0
VERTEX
  8
FOREGROUND
  6
CONTINUOUS
 10
0.882050
 20
0.061668
  0
VERTEX
  8
FOREGROUND
  6
CONTINUOUS
 10
0.898532
 20
0.059256
  0
VERTEX
  8
FOREGROUND
  6
CONTINUOUS
 10
0.915100
 20
0.057118
  0
VERTEX
  8
FOREGROUND
  6
CONTINUOUS
 10
0.931754
 20
0.055255
  0
VERTEX
  8
FOREGROUND
  6
CONTINUOUS
 10
0.948491
 20
0.053671
  0
VERTEX
  8
FOREGROUND
  6
CONTINUOUS
 10
0.965308
 20
0.052366
  0
VERTEX
  8
FOREGROUND
  6
CONTINUOUS
 10
0.982203
 20
0.051345
  0
VERTEX
  8
FOREGROUND
  6
CONTINUOUS
 10
0.999174
 20
0.050608
  0
VERTEX
  8
FOREGROUND
  6
CONTINUOUS
 10
1.016218
 20
0.050159
  0
VERTEX
  8
FOREGROUND
  6
CONTINUOUS
 10
1.033333
 20
0.050000
  0
SEQEND
  8
0
  0
ENDSEC
  0
EOF
