  0
SECTION
  2
HEADER
  9
$ACADVER
  1
AC1006
  9
$EXTMIN
 10
0.000000
 20
0.000000
  9
$EXTMAX
 10
3.258333
 20
1.673333
  9
$LTSCALE
 40
0.166667
  9
$PDMODE
 70
    35
  9
$PDSIZE
 40
0.133333
  0
ENDSEC
  0
SECTION
  2
TABLES
  0
TABLE
  2
LTYPE
 70
     9
  0
LTYPE
  2
CONTINUOUS
 70
    64
  3
Solid line
 72
    65
 73
     0
 40
0.000000
  0
LTYPE
  2
DASHED
 70
    64
  3
__ __ __ __ __ __ __ __ __ __ __ __ __ __ __
 72
    65
 73
     2
 40
0.001250
 49
0.000833
 49
-0.000417
  0
LTYPE
  2
HIDDEN
 70
    64
  3
 _ _ _ _ _ _ _ _ _ _ _ _ _ _ _ _ _ _ _ _ _ _
 72
    65
 73
     2
 40
0.000625
 49
0.000417
 49
-0.000208
  0
LTYPE
  2
CENTER
 70
    64
  3
____ _ ____ _ ____ _ ____ _ ____ _ ____ _ ____
 72
    65
 73
     4
 40
0.003333
 49
0.002083
 49
-0.000417
 49
0.000417
 49
-0.000417
  0
LTYPE
  2
PHANTOM
 70
    64
  3
_____ _ _ _____ _ _ _____ _ _ _____ _ _ ____
 72
    65
 73
     6
 40
0.004167
 49
0.002083
 49
-0.000417
 49
0.000417
 49
-0.000417
 49
0.000417
 49
-0.000417
  0
LTYPE
  2
DOT
 70
    64
  3
...............................................
 72
    65
 73
     2
 40
0.000417
 49
0.000000
 49
-0.000417
  0
LTYPE
  2
DASHDOT
 70
    64
  3
__ . __ . __ . __ . __ . __ . __ . __ . __ . __
 72
    65
 73
     4
 40
0.001667
 49
0.000833
 49
-0.000417
 49
0.000000
 49
-0.000417
  0
LTYPE
  2
BORDER
 70
    64
  3
__ __ . __ __ . __ __ . __ __ . __ __ . __ __
 72
    65
 73
     6
 40
0.002917
 49
0.000833
 49
-0.000417
 49
0.000833
 49
-0.000417
 49
0.000000
 49
-0.000417
  0
LTYPE
  2
DIVIDE
 70
    64
  3
__ . . __ . . __ . . __ . . __ . . __ . . __
 72
    65
 73
     6
 40
0.002083
 49
0.000833
 49
-0.000417
 49
0.000000
 49
-0.000417
 49
0.000000
 49
-0.000417
  0
LTYPE
  2
DOTDOT
 70
    64
  3
 . .  . .  . .  . .  . .  . . 
 72
    65
 73
     5
 40
0.000917
 49
-0.000417
 49
0.000000
 49
-0.000417
 49
0.000000
 49
-0.000417
  0
ENDTAB
  0
TABLE
  2
STYLE
 70
     2
  0
STYLE
 70
     0
  2
SN0
 40
0.000000
 41
0.001667
 50
0.000000
 71
     0
 42
0.000000
  3
ROMAND
  0
STYLE
 70
    68
  2
SV0
 40
0.000000
 41
0.001667
 50
0.000000
 71
     0
 42
0.000000
  3
ROMAND
  0
ENDTAB
  0
TABLE
  2
LAYER
 70
     2
  0
LAYER
  2
FOREGROUND
 70
    64
 62
     7
  6
CONTINUOUS
  0
LAYER
  2
BACKGROUND
 70
    65
 62
    -7
  6
CONTINUOUS
  0
ENDTAB
  0
ENDSEC
  0
SECTION
  2
ENTITIES
  0
POLYLINE
  8
FOREGROUND
  6
CONTINUOUS
 66
     1
 40
0.010000
 41
0.010000
 70
     1
  0
VERTEX
  8
FOREGROUND
  6
CONTINUOUS
 10
2.421667
 20
0.050000
  0
VERTEX
  8
FOREGROUND
  6
CONTINUOUS
 10
2.439474
 20
0.050211
  0
VERTEX
  8
FOREGROUND
  6
CONTINUOUS
 10
2.457184
 20
0.050814
  0
VERTEX
  8
FOREGROUND
  6
CONTINUOUS
 10
2.474794
 20
0.051805
  0
VERTEX
  8
FOREGROUND
  6
CONTINUOUS
 10
2.492297
 20
0.053179
  0
VERTEX
  8
FOREGROUND
  6
CONTINUOUS
 10
2.509691
 20
0.054932
  0
VERTEX
  8
FOREGROUND
  6
CONTINUOUS
 10
2.526971
 20
0.057060
  0
VERTEX
  8
FOREGROUND
  6
CONTINUOUS
 10
2.544134
 20
0.059559
  0
VERTEX
  8
FOREGROUND
  6
CONTINUOUS
 10
2.561174
 20
0.062425
  0
VERTEX
  8
FOREGROUND
  6
CONTINUOUS
 10
2.578088
 20
0.065653
  0
VERTEX
  8
FOREGROUND
  6
CONTINUOUS
 10
2.594872
 20
0.069240
  0
VERTEX
  8
FOREGROUND
  6
CONTINUOUS
 10
2.611521
 20
0.073181
  0
VERTEX
  8
FOREGROUND
  6
CONTINUOUS
 10
2.628032
 20
0.077472
  0
VERTEX
  8
FOREGROUND
  6
CONTINUOUS
 10
2.644400
 20
0.082109
  0
VERTEX
  8
FOREGROUND
  6
CONTINUOUS
 10
2.660621
 20
0.087088
  0
VERTEX
  8
FOREGROUND
  6
CONTINUOUS
 10
2.676690
 20
0.092405
  0
VERTEX
  8
FOREGROUND
  6
CONTINUOUS
 10
2.692605
 20
0.098055
  0
VERTEX
  8
FOREGROUND
  6
CONTINUOUS
 10
2.708360
 20
0.104035
  0
VERTEX
  8
FOREGROUND
  6
CONTINUOUS
 10
2.723952
 20
0.110340
  0
VERTEX
  8
FOREGROUND
  6
CONTINUOUS
 10
2.739376
 20
0.116966
  0
VERTEX
  8
FOREGROUND
  6
CONTINUOUS
 10
2.754629
 20
0.123909
  0
VERTEX
  8
FOREGROUND
  6
CONTINUOUS
 10
2.769705
 20
0.131165
  0
VERTEX
  8
FOREGROUND
  6
CONTINUOUS
 10
2.784601
 20
0.138729
  0
VERTEX
  8
FOREGROUND
  6
CONTINUOUS
 10
2.799313
 20
0.146598
  0
VERTEX
  8
FOREGROUND
  6
CONTINUOUS
 10
2.813837
 20
0.154768
  0
VERTEX
  8
FOREGROUND
  6
CONTINUOUS
 10
2.828168
 20
0.163233
  0
VERTEX
  8
FOREGROUND
  6
CONTINUOUS
 10
2.842302
 20
0.171991
  0
VERTEX
  8
FOREGROUND
  6
CONTINUOUS
 10
2.856236
 20
0.181037
  0
VERTEX
  8
FOREGROUND
  6
CONTINUOUS
 10
2.869964
 20
0.190366
  0
VERTEX
  8
FOREGROUND
  6
CONTINUOUS
 10
2.883484
 20
0.199976
  0
VERTEX
  8
FOREGROUND
  6
CONTINUOUS
 10
2.896790
 20
0.209860
  0
VERTEX
  8
FOREGROUND
  6
CONTINUOUS
 10
2.909878
 20
0.220016
  0
VERTEX
  8
FOREGROUND
  6
CONTINUOUS
 10
2.922746
 20
0.230439
  0
VERTEX
  8
FOREGROUND
  6
CONTINUOUS
 10
2.935387
 20
0.241126
  0
VERTEX
  8
FOREGROUND
  6
CONTINUOUS
 10
2.947798
 20
0.252071
  0
VERTEX
  8
FOREGROUND
  6
CONTINUOUS
 10
2.959976
 20
0.263271
  0
VERTEX
  8
FOREGROUND
  6
CONTINUOUS
 10
2.971915
 20
0.274721
  0
VERTEX
  8
FOREGROUND
  6
CONTINUOUS
 10
2.983612
 20
0.286418
  0
VERTEX
  8
FOREGROUND
  6
CONTINUOUS
 10
2.995063
 20
0.298357
  0
VERTEX
  8
FOREGROUND
  6
CONTINUOUS
 10
3.006263
 20
0.310535
  0
VERTEX
  8
FOREGROUND
  6
CONTINUOUS
 10
3.017208
 20
0.322946
  0
VERTEX
  8
FOREGROUND
  6
CONTINUOUS
 10
3.027894
 20
0.335588
  0
VERTEX
  8
FOREGROUND
  6
CONTINUOUS
 10
3.038317
 20
0.348455
  0
VERTEX
  8
FOREGROUND
  6
CONTINUOUS
 10
3.048473
 20
0.361544
  0
VERTEX
  8
FOREGROUND
  6
CONTINUOUS
 10
3.058358
 20
0.374850
  0
VERTEX
  8
FOREGROUND
  6
CONTINUOUS
 10
3.067967
 20
0.388369
  0
VERTEX
  8
FOREGROUND
  6
CONTINUOUS
 10
3.077296
 20
0.402098
  0
VERTEX
  8
FOREGROUND
  6
CONTINUOUS
 10
3.086342
 20
0.416031
  0
VERTEX
  8
FOREGROUND
  6
CONTINUOUS
 10
3.095100
 20
0.430165
  0
VERTEX
  8
FOREGROUND
  6
CONTINUOUS
 10
3.103566
 20
0.444496
  0
VERTEX
  8
FOREGROUND
  6
CONTINUOUS
 10
3.111735
 20
0.459020
  0
VERTEX
  8
FOREGROUND
  6
CONTINUOUS
 10
3.119604
 20
0.473732
  0
VERTEX
  8
FOREGROUND
  6
CONTINUOUS
 10
3.127169
 20
0.488628
  0
VERTEX
  8
FOREGROUND
  6
CONTINUOUS
 10
3.134425
 20
0.503705
  0
VERTEX
  8
FOREGROUND
  6
CONTINUOUS
 10
3.141368
 20
0.518957
  0
VERTEX
  8
FOREGROUND
  6
CONTINUOUS
 10
3.147994
 20
0.534381
  0
VERTEX
  8
FOREGROUND
  6
CONTINUOUS
 10
3.154299
 20
0.549973
  0
VERTEX
  8
FOREGROUND
  6
CONTINUOUS
 10
3.160278
 20
0.565728
  0
VERTEX
  8
FOREGROUND
  6
CONTINUOUS
 10
3.165929
 20
0.581643
  0
VERTEX
  8
FOREGROUND
  6
CONTINUOUS
 10
3.171245
 20
0.597713
  0
VERTEX
  8
FOREGROUND
  6
CONTINUOUS
 10
3.176224
 20
0.613934
  0
VERTEX
  8
FOREGROUND
  6
CONTINUOUS
 10
3.180862
 20
0.630302
  0
VERTEX
  8
FOREGROUND
  6
CONTINUOUS
 10
3.185153
 20
0.646812
  0
VERTEX
  8
FOREGROUND
  6
CONTINUOUS
 10
3.189094
 20
0.663462
  0
VERTEX
  8
FOREGROUND
  6
CONTINUOUS
 10
3.192681
 20
0.680245
  0
VERTEX
  8
FOREGROUND
  6
CONTINUOUS
 10
3.195909
 20
0.697159
  0
VERTEX
  8
FOREGROUND
  6
CONTINUOUS
 10
3.198775
 20
0.714200
  0
VERTEX
  8
FOREGROUND
  6
CONTINUOUS
 10
3.201273
 20
0.731362
  0
VERTEX
  8
FOREGROUND
  6
CONTINUOUS
 10
3.203402
 20
0.748642
  0
VERTEX
  8
FOREGROUND
  6
CONTINUOUS
 10
3.205155
 20
0.766036
  0
VERTEX
  8
FOREGROUND
  6
CONTINUOUS
 10
3.206528
 20
0.783540
  0
VERTEX
  8
FOREGROUND
  6
CONTINUOUS
 10
3.207519
 20
0.801149
  0
VERTEX
  8
FOREGROUND
  6
CONTINUOUS
 10
3.208122
 20
0.818859
  0
VERTEX
  8
FOREGROUND
  6
CONTINUOUS
 10
3.208333
 20
0.836667
  0
VERTEX
  8
FOREGROUND
  6
CONTINUOUS
 10
3.208333
 20
0.836667
  0
VERTEX
  8
FOREGROUND
  6
CONTINUOUS
 10
3.208122
 20
0.854476
  0
VERTEX
  8
FOREGROUND
  6
CONTINUOUS
 10
3.207519
 20
0.872189
  0
VERTEX
  8
FOREGROUND
  6
CONTINUOUS
 10
3.206528
 20
0.889800
  0
VERTEX
  8
FOREGROUND
  6
CONTINUOUS
 10
3.205154
 20
0.907306
  0
VERTEX
  8
FOREGROUND
  6
CONTINUOUS
 10
3.203400
 20
0.924702
  0
VERTEX
  8
FOREGROUND
  6
CONTINUOUS
 10
3.201272
 20
0.941985
  0
VERTEX
  8
FOREGROUND
  6
CONTINUOUS
 10
3.198772
 20
0.959149
  0
VERTEX
  8
FOREGROUND
  6
CONTINUOUS
 10
3.195906
 20
0.976191
  0
VERTEX
  8
FOREGROUND
  6
CONTINUOUS
 10
3.192677
 20
0.993107
  0
VERTEX
  8
FOREGROUND
  6
CONTINUOUS
 10
3.189089
 20
1.009893
  0
VERTEX
  8
FOREGROUND
  6
CONTINUOUS
 10
3.185147
 20
1.026544
  0
VERTEX
  8
FOREGROUND
  6
CONTINUOUS
 10
3.180855
 20
1.043057
  0
VERTEX
  8
FOREGROUND
  6
CONTINUOUS
 10
3.176217
 20
1.059426
  0
VERTEX
  8
FOREGROUND
  6
CONTINUOUS
 10
3.171236
 20
1.075649
  0
VERTEX
  8
FOREGROUND
  6
CONTINUOUS
 10
3.165919
 20
1.091721
  0
VERTEX
  8
FOREGROUND
  6
CONTINUOUS
 10
3.160267
 20
1.107637
  0
VERTEX
  8
FOREGROUND
  6
CONTINUOUS
 10
3.154286
 20
1.123394
  0
VERTEX
  8
FOREGROUND
  6
CONTINUOUS
 10
3.147979
 20
1.138987
  0
VERTEX
  8
FOREGROUND
  6
CONTINUOUS
 10
3.141352
 20
1.154413
  0
VERTEX
  8
FOREGROUND
  6
CONTINUOUS
 10
3.134407
 20
1.169666
  0
VERTEX
  8
FOREGROUND
  6
CONTINUOUS
 10
3.127150
 20
1.184744
  0
VERTEX
  8
FOREGROUND
  6
CONTINUOUS
 10
3.119583
 20
1.199642
  0
VERTEX
  8
FOREGROUND
  6
CONTINUOUS
 10
3.111712
 20
1.214355
  0
VERTEX
  8
FOREGROUND
  6
CONTINUOUS
 10
3.103541
 20
1.228880
  0
VERTEX
  8
FOREGROUND
  6
CONTINUOUS
 10
3.095074
 20
1.243212
  0
VERTEX
  8
FOREGROUND
  6
CONTINUOUS
 10
3.086314
 20
1.257347
  0
VERTEX
  8
FOREGROUND
  6
CONTINUOUS
 10
3.077266
 20
1.271282
  0
VERTEX
  8
FOREGROUND
  6
CONTINUOUS
 10
3.067935
 20
1.285011
  0
VERTEX
  8
FOREGROUND
  6
CONTINUOUS
 10
3.058323
 20
1.298531
  0
VERTEX
  8
FOREGROUND
  6
CONTINUOUS
 10
3.048437
 20
1.311838
  0
VERTEX
  8
FOREGROUND
  6
CONTINUOUS
 10
3.038278
 20
1.324927
  0
VERTEX
  8
FOREGROUND
  6
CONTINUOUS
 10
3.027853
 20
1.337795
  0
VERTEX
  8
FOREGROUND
  6
CONTINUOUS
 10
3.017164
 20
1.350437
  0
VERTEX
  8
FOREGROUND
  6
CONTINUOUS
 10
3.006217
 20
1.362849
  0
VERTEX
  8
FOREGROUND
  6
CONTINUOUS
 10
2.995015
 20
1.375027
  0
VERTEX
  8
FOREGROUND
  6
CONTINUOUS
 10
2.983562
 20
1.386967
  0
VERTEX
  8
FOREGROUND
  6
CONTINUOUS
 10
2.971862
 20
1.398664
  0
VERTEX
  8
FOREGROUND
  6
CONTINUOUS
 10
2.959921
 20
1.410114
  0
VERTEX
  8
FOREGROUND
  6
CONTINUOUS
 10
2.947741
 20
1.421314
  0
VERTEX
  8
FOREGROUND
  6
CONTINUOUS
 10
2.935327
 20
1.432260
  0
VERTEX
  8
FOREGROUND
  6
CONTINUOUS
 10
2.922683
 20
1.442946
  0
VERTEX
  8
FOREGROUND
  6
CONTINUOUS
 10
2.909813
 20
1.453369
  0
VERTEX
  8
FOREGROUND
  6
CONTINUOUS
 10
2.896722
 20
1.463525
  0
VERTEX
  8
FOREGROUND
  6
CONTINUOUS
 10
2.883413
 20
1.473409
  0
VERTEX
  8
FOREGROUND
  6
CONTINUOUS
 10
2.869891
 20
1.483018
  0
VERTEX
  8
FOREGROUND
  6
CONTINUOUS
 10
2.856160
 20
1.492347
  0
VERTEX
  8
FOREGROUND
  6
CONTINUOUS
 10
2.842224
 20
1.501392
  0
VERTEX
  8
FOREGROUND
  6
CONTINUOUS
 10
2.828087
 20
1.510149
  0
VERTEX
  8
FOREGROUND
  6
CONTINUOUS
 10
2.813753
 20
1.518614
  0
VERTEX
  8
FOREGROUND
  6
CONTINUOUS
 10
2.799227
 20
1.526782
  0
VERTEX
  8
FOREGROUND
  6
CONTINUOUS
 10
2.784512
 20
1.534651
  0
VERTEX
  8
FOREGROUND
  6
CONTINUOUS
 10
2.769613
 20
1.542214
  0
VERTEX
  8
FOREGROUND
  6
CONTINUOUS
 10
2.754534
 20
1.549469
  0
VERTEX
  8
FOREGROUND
  6
CONTINUOUS
 10
2.739279
 20
1.556411
  0
VERTEX
  8
FOREGROUND
  6
CONTINUOUS
 10
2.723853
 20
1.563035
  0
VERTEX
  8
FOREGROUND
  6
CONTINUOUS
 10
2.708258
 20
1.569339
  0
VERTEX
  8
FOREGROUND
  6
CONTINUOUS
 10
2.692500
 20
1.575317
  0
VERTEX
  8
FOREGROUND
  6
CONTINUOUS
 10
2.676583
 20
1.580966
  0
VERTEX
  8
FOREGROUND
  6
CONTINUOUS
 10
2.660510
 20
1.586281
  0
VERTEX
  8
FOREGROUND
  6
CONTINUOUS
 10
2.644287
 20
1.591258
  0
VERTEX
  8
FOREGROUND
  6
CONTINUOUS
 10
2.627916
 20
1.595893
  0
VERTEX
  8
FOREGROUND
  6
CONTINUOUS
 10
2.611403
 20
1.600182
  0
VERTEX
  8
FOREGROUND
  6
CONTINUOUS
 10
2.594751
 20
1.604121
  0
VERTEX
  8
FOREGROUND
  6
CONTINUOUS
 10
2.577965
 20
1.607706
  0
VERTEX
  8
FOREGROUND
  6
CONTINUOUS
 10
2.561048
 20
1.610932
  0
VERTEX
  8
FOREGROUND
  6
CONTINUOUS
 10
2.544005
 20
1.613795
  0
VERTEX
  8
FOREGROUND
  6
CONTINUOUS
 10
2.526840
 20
1.616291
  0
VERTEX
  8
FOREGROUND
  6
CONTINUOUS
 10
2.509557
 20
1.618417
  0
VERTEX
  8
FOREGROUND
  6
CONTINUOUS
 10
2.492161
 20
1.620167
  0
VERTEX
  8
FOREGROUND
  6
CONTINUOUS
 10
2.474655
 20
1.621538
  0
VERTEX
  8
FOREGROUND
  6
CONTINUOUS
 10
2.457043
 20
1.622525
  0
VERTEX
  8
FOREGROUND
  6
CONTINUOUS
 10
2.439331
 20
1.623125
  0
VERTEX
  8
FOREGROUND
  6
CONTINUOUS
 10
2.421521
 20
1.623333
  0
VERTEX
  8
FOREGROUND
  6
CONTINUOUS
 10
0.836521
 20
1.623333
  0
VERTEX
  8
FOREGROUND
  6
CONTINUOUS
 10
0.818716
 20
1.623119
  0
VERTEX
  8
FOREGROUND
  6
CONTINUOUS
 10
0.801008
 20
1.622512
  0
VERTEX
  8
FOREGROUND
  6
CONTINUOUS
 10
0.783401
 20
1.621519
  0
VERTEX
  8
FOREGROUND
  6
CONTINUOUS
 10
0.765900
 20
1.620142
  0
VERTEX
  8
FOREGROUND
  6
CONTINUOUS
 10
0.748509
 20
1.618386
  0
VERTEX
  8
FOREGROUND
  6
CONTINUOUS
 10
0.731231
 20
1.616256
  0
VERTEX
  8
FOREGROUND
  6
CONTINUOUS
 10
0.714071
 20
1.613754
  0
VERTEX
  8
FOREGROUND
  6
CONTINUOUS
 10
0.697033
 20
1.610886
  0
VERTEX
  8
FOREGROUND
  6
CONTINUOUS
 10
0.680122
 20
1.607655
  0
VERTEX
  8
FOREGROUND
  6
CONTINUOUS
 10
0.663341
 20
1.604066
  0
VERTEX
  8
FOREGROUND
  6
CONTINUOUS
 10
0.646694
 20
1.600123
  0
VERTEX
  8
FOREGROUND
  6
CONTINUOUS
 10
0.630186
 20
1.595830
  0
VERTEX
  8
FOREGROUND
  6
CONTINUOUS
 10
0.613821
 20
1.591191
  0
VERTEX
  8
FOREGROUND
  6
CONTINUOUS
 10
0.597602
 20
1.586210
  0
VERTEX
  8
FOREGROUND
  6
CONTINUOUS
 10
0.581535
 20
1.580892
  0
VERTEX
  8
FOREGROUND
  6
CONTINUOUS
 10
0.565623
 20
1.575240
  0
VERTEX
  8
FOREGROUND
  6
CONTINUOUS
 10
0.549871
 20
1.569259
  0
VERTEX
  8
FOREGROUND
  6
CONTINUOUS
 10
0.534281
 20
1.562952
  0
VERTEX
  8
FOREGROUND
  6
CONTINUOUS
 10
0.518860
 20
1.556325
  0
VERTEX
  8
FOREGROUND
  6
CONTINUOUS
 10
0.503610
 20
1.549380
  0
VERTEX
  8
FOREGROUND
  6
CONTINUOUS
 10
0.488537
 20
1.542123
  0
VERTEX
  8
FOREGROUND
  6
CONTINUOUS
 10
0.473643
 20
1.534558
  0
VERTEX
  8
FOREGROUND
  6
CONTINUOUS
 10
0.458934
 20
1.526688
  0
VERTEX
  8
FOREGROUND
  6
CONTINUOUS
 10
0.444413
 20
1.518518
  0
VERTEX
  8
FOREGROUND
  6
CONTINUOUS
 10
0.430085
 20
1.510051
  0
VERTEX
  8
FOREGROUND
  6
CONTINUOUS
 10
0.415953
 20
1.501293
  0
VERTEX
  8
FOREGROUND
  6
CONTINUOUS
 10
0.402022
 20
1.492246
  0
VERTEX
  8
FOREGROUND
  6
CONTINUOUS
 10
0.388296
 20
1.482916
  0
VERTEX
  8
FOREGROUND
  6
CONTINUOUS
 10
0.374779
 20
1.473307
  0
VERTEX
  8
FOREGROUND
  6
CONTINUOUS
 10
0.361476
 20
1.463422
  0
VERTEX
  8
FOREGROUND
  6
CONTINUOUS
 10
0.348390
 20
1.453266
  0
VERTEX
  8
FOREGROUND
  6
CONTINUOUS
 10
0.335525
 20
1.442842
  0
VERTEX
  8
FOREGROUND
  6
CONTINUOUS
 10
0.322886
 20
1.432156
  0
VERTEX
  8
FOREGROUND
  6
CONTINUOUS
 10
0.310477
 20
1.421211
  0
VERTEX
  8
FOREGROUND
  6
CONTINUOUS
 10
0.298302
 20
1.410011
  0
VERTEX
  8
FOREGROUND
  6
CONTINUOUS
 10
0.286365
 20
1.398561
  0
VERTEX
  8
FOREGROUND
  6
CONTINUOUS
 10
0.274671
 20
1.386864
  0
VERTEX
  8
FOREGROUND
  6
CONTINUOUS
 10
0.263223
 20
1.374925
  0
VERTEX
  8
FOREGROUND
  6
CONTINUOUS
 10
0.252025
 20
1.362748
  0
VERTEX
  8
FOREGROUND
  6
CONTINUOUS
 10
0.241082
 20
1.350337
  0
VERTEX
  8
FOREGROUND
  6
CONTINUOUS
 10
0.230398
 20
1.337696
  0
VERTEX
  8
FOREGROUND
  6
CONTINUOUS
 10
0.219977
 20
1.324829
  0
VERTEX
  8
FOREGROUND
  6
CONTINUOUS
 10
0.209824
 20
1.311741
  0
VERTEX
  8
FOREGROUND
  6
CONTINUOUS
 10
0.199941
 20
1.298436
  0
VERTEX
  8
FOREGROUND
  6
CONTINUOUS
 10
0.190334
 20
1.284917
  0
VERTEX
  8
FOREGROUND
  6
CONTINUOUS
 10
0.181007
 20
1.271190
  0
VERTEX
  8
FOREGROUND
  6
CONTINUOUS
 10
0.171963
 20
1.257257
  0
VERTEX
  8
FOREGROUND
  6
CONTINUOUS
 10
0.163207
 20
1.243124
  0
VERTEX
  8
FOREGROUND
  6
CONTINUOUS
 10
0.154743
 20
1.228794
  0
VERTEX
  8
FOREGROUND
  6
CONTINUOUS
 10
0.146576
 20
1.214272
  0
VERTEX
  8
FOREGROUND
  6
CONTINUOUS
 10
0.138708
 20
1.199561
  0
VERTEX
  8
FOREGROUND
  6
CONTINUOUS
 10
0.131145
 20
1.184666
  0
VERTEX
  8
FOREGROUND
  6
CONTINUOUS
 10
0.123891
 20
1.169591
  0
VERTEX
  8
FOREGROUND
  6
CONTINUOUS
 10
0.116950
 20
1.154340
  0
VERTEX
  8
FOREGROUND
  6
CONTINUOUS
 10
0.110325
 20
1.138917
  0
VERTEX
  8
FOREGROUND
  6
CONTINUOUS
 10
0.104022
 20
1.123327
  0
VERTEX
  8
FOREGROUND
  6
CONTINUOUS
 10
0.098043
 20
1.107573
  0
VERTEX
  8
FOREGROUND
  6
CONTINUOUS
 10
0.092394
 20
1.091660
  0
VERTEX
  8
FOREGROUND
  6
CONTINUOUS
 10
0.087079
 20
1.075592
  0
VERTEX
  8
FOREGROUND
  6
CONTINUOUS
 10
0.082101
 20
1.059373
  0
VERTEX
  8
FOREGROUND
  6
CONTINUOUS
 10
0.077465
 20
1.043007
  0
VERTEX
  8
FOREGROUND
  6
CONTINUOUS
 10
0.073175
 20
1.026498
  0
VERTEX
  8
FOREGROUND
  6
CONTINUOUS
 10
0.069235
 20
1.009850
  0
VERTEX
  8
FOREGROUND
  6
CONTINUOUS
 10
0.065649
 20
0.993069
  0
VERTEX
  8
FOREGROUND
  6
CONTINUOUS
 10
0.062421
 20
0.976156
  0
VERTEX
  8
FOREGROUND
  6
CONTINUOUS
 10
0.059556
 20
0.959118
  0
VERTEX
  8
FOREGROUND
  6
CONTINUOUS
 10
0.057058
 20
0.941958
  0
VERTEX
  8
FOREGROUND
  6
CONTINUOUS
 10
0.054931
 20
0.924680
  0
VERTEX
  8
FOREGROUND
  6
CONTINUOUS
 10
0.053178
 20
0.907288
  0
VERTEX
  8
FOREGROUND
  6
CONTINUOUS
 10
0.051805
 20
0.889787
  0
VERTEX
  8
FOREGROUND
  6
CONTINUOUS
 10
0.050814
 20
0.872180
  0
VERTEX
  8
FOREGROUND
  6
CONTINUOUS
 10
0.050211
 20
0.854472
  0
VERTEX
  8
FOREGROUND
  6
CONTINUOUS
 10
0.050000
 20
0.836667
  0
VERTEX
  8
FOREGROUND
  6
CONTINUOUS
 10
0.050000
 20
0.836667
  0
VERTEX
  8
FOREGROUND
  6
CONTINUOUS
 10
0.050211
 20
0.818859
  0
VERTEX
  8
FOREGROUND
  6
CONTINUOUS
 10
0.050814
 20
0.801149
  0
VERTEX
  8
FOREGROUND
  6
CONTINUOUS
 10
0.051805
 20
0.783540
  0
VERTEX
  8
FOREGROUND
  6
CONTINUOUS
 10
0.053179
 20
0.766036
  0
VERTEX
  8
FOREGROUND
  6
CONTINUOUS
 10
0.054932
 20
0.748642
  0
VERTEX
  8
FOREGROUND
  6
CONTINUOUS
 10
0.057060
 20
0.731362
  0
VERTEX
  8
FOREGROUND
  6
CONTINUOUS
 10
0.059559
 20
0.714200
  0
VERTEX
  8
FOREGROUND
  6
CONTINUOUS
 10
0.062425
 20
0.697159
  0
VERTEX
  8
FOREGROUND
  6
CONTINUOUS
 10
0.065653
 20
0.680245
  0
VERTEX
  8
FOREGROUND
  6
CONTINUOUS
 10
0.069240
 20
0.663462
  0
VERTEX
  8
FOREGROUND
  6
CONTINUOUS
 10
0.073181
 20
0.646812
  0
VERTEX
  8
FOREGROUND
  6
CONTINUOUS
 10
0.077472
 20
0.630302
  0
VERTEX
  8
FOREGROUND
  6
CONTINUOUS
 10
0.082109
 20
0.613934
  0
VERTEX
  8
FOREGROUND
  6
CONTINUOUS
 10
0.087088
 20
0.597713
  0
VERTEX
  8
FOREGROUND
  6
CONTINUOUS
 10
0.092405
 20
0.581643
  0
VERTEX
  8
FOREGROUND
  6
CONTINUOUS
 10
0.098055
 20
0.565728
  0
VERTEX
  8
FOREGROUND
  6
CONTINUOUS
 10
0.104035
 20
0.549973
  0
VERTEX
  8
FOREGROUND
  6
CONTINUOUS
 10
0.110340
 20
0.534381
  0
VERTEX
  8
FOREGROUND
  6
CONTINUOUS
 10
0.116966
 20
0.518957
  0
VERTEX
  8
FOREGROUND
  6
CONTINUOUS
 10
0.123909
 20
0.503705
  0
VERTEX
  8
FOREGROUND
  6
CONTINUOUS
 10
0.131165
 20
0.488628
  0
VERTEX
  8
FOREGROUND
  6
CONTINUOUS
 10
0.138729
 20
0.473732
  0
VERTEX
  8
FOREGROUND
  6
CONTINUOUS
 10
0.146598
 20
0.459020
  0
VERTEX
  8
FOREGROUND
  6
CONTINUOUS
 10
0.154768
 20
0.444496
  0
VERTEX
  8
FOREGROUND
  6
CONTINUOUS
 10
0.163233
 20
0.430165
  0
VERTEX
  8
FOREGROUND
  6
CONTINUOUS
 10
0.171991
 20
0.416031
  0
VERTEX
  8
FOREGROUND
  6
CONTINUOUS
 10
0.181037
 20
0.402098
  0
VERTEX
  8
FOREGROUND
  6
CONTINUOUS
 10
0.190366
 20
0.388369
  0
VERTEX
  8
FOREGROUND
  6
CONTINUOUS
 10
0.199976
 20
0.374850
  0
VERTEX
  8
FOREGROUND
  6
CONTINUOUS
 10
0.209860
 20
0.361544
  0
VERTEX
  8
FOREGROUND
  6
CONTINUOUS
 10
0.220016
 20
0.348455
  0
VERTEX
  8
FOREGROUND
  6
CONTINUOUS
 10
0.230439
 20
0.335588
  0
VERTEX
  8
FOREGROUND
  6
CONTINUOUS
 10
0.241126
 20
0.322946
  0
VERTEX
  8
FOREGROUND
  6
CONTINUOUS
 10
0.252071
 20
0.310535
  0
VERTEX
  8
FOREGROUND
  6
CONTINUOUS
 10
0.263271
 20
0.298357
  0
VERTEX
  8
FOREGROUND
  6
CONTINUOUS
 10
0.274721
 20
0.286418
  0
VERTEX
  8
FOREGROUND
  6
CONTINUOUS
 10
0.286418
 20
0.274721
  0
VERTEX
  8
FOREGROUND
  6
CONTINUOUS
 10
0.298357
 20
0.263271
  0
VERTEX
  8
FOREGROUND
  6
CONTINUOUS
 10
0.310535
 20
0.252071
  0
VERTEX
  8
FOREGROUND
  6
CONTINUOUS
 10
0.322946
 20
0.241126
  0
VERTEX
  8
FOREGROUND
  6
CONTINUOUS
 10
0.335588
 20
0.230439
  0
VERTEX
  8
FOREGROUND
  6
CONTINUOUS
 10
0.348455
 20
0.220016
  0
VERTEX
  8
FOREGROUND
  6
CONTINUOUS
 10
0.361544
 20
0.209860
  0
VERTEX
  8
FOREGROUND
  6
CONTINUOUS
 10
0.374850
 20
0.199976
  0
VERTEX
  8
FOREGROUND
  6
CONTINUOUS
 10
0.388369
 20
0.190366
  0
VERTEX
  8
FOREGROUND
  6
CONTINUOUS
 10
0.402098
 20
0.181037
  0
VERTEX
  8
FOREGROUND
  6
CONTINUOUS
 10
0.416031
 20
0.171991
  0
VERTEX
  8
FOREGROUND
  6
CONTINUOUS
 10
0.430165
 20
0.163233
  0
VERTEX
  8
FOREGROUND
  6
CONTINUOUS
 10
0.444496
 20
0.154768
  0
VERTEX
  8
FOREGROUND
  6
CONTINUOUS
 10
0.459020
 20
0.146598
  0
VERTEX
  8
FOREGROUND
  6
CONTINUOUS
 10
0.473732
 20
0.138729
  0
VERTEX
  8
FOREGROUND
  6
CONTINUOUS
 10
0.488628
 20
0.131165
  0
VERTEX
  8
FOREGROUND
  6
CONTINUOUS
 10
0.503705
 20
0.123909
  0
VERTEX
  8
FOREGROUND
  6
CONTINUOUS
 10
0.518957
 20
0.116966
  0
VERTEX
  8
FOREGROUND
  6
CONTINUOUS
 10
0.534381
 20
0.110340
  0
VERTEX
  8
FOREGROUND
  6
CONTINUOUS
 10
0.549973
 20
0.104035
  0
VERTEX
  8
FOREGROUND
  6
CONTINUOUS
 10
0.565728
 20
0.098055
  0
VERTEX
  8
FOREGROUND
  6
CONTINUOUS
 10
0.581643
 20
0.092405
  0
VERTEX
  8
FOREGROUND
  6
CONTINUOUS
 10
0.597713
 20
0.087088
  0
VERTEX
  8
FOREGROUND
  6
CONTINUOUS
 10
0.613934
 20
0.082109
  0
VERTEX
  8
FOREGROUND
  6
CONTINUOUS
 10
0.630302
 20
0.077472
  0
VERTEX
  8
FOREGROUND
  6
CONTINUOUS
 10
0.646812
 20
0.073181
  0
VERTEX
  8
FOREGROUND
  6
CONTINUOUS
 10
0.663462
 20
0.069240
  0
VERTEX
  8
FOREGROUND
  6
CONTINUOUS
 10
0.680245
 20
0.065653
  0
VERTEX
  8
FOREGROUND
  6
CONTINUOUS
 10
0.697159
 20
0.062425
  0
VERTEX
  8
FOREGROUND
  6
CONTINUOUS
 10
0.714200
 20
0.059559
  0
VERTEX
  8
FOREGROUND
  6
CONTINUOUS
 10
0.731362
 20
0.057060
  0
VERTEX
  8
FOREGROUND
  6
CONTINUOUS
 10
0.748642
 20
0.054932
  0
VERTEX
  8
FOREGROUND
  6
CONTINUOUS
 10
0.766036
 20
0.053179
  0
VERTEX
  8
FOREGROUND
  6
CONTINUOUS
 10
0.783540
 20
0.051805
  0
VERTEX
  8
FOREGROUND
  6
CONTINUOUS
 10
0.801149
 20
0.050814
  0
VERTEX
  8
FOREGROUND
  6
CONTINUOUS
 10
0.818859
 20
0.050211
  0
VERTEX
  8
FOREGROUND
  6
CONTINUOUS
 10
0.836667
 20
0.050000
  0
SEQEND
  8
0
  0
ENDSEC
  0
EOF
