  0
SECTION
  2
HEADER
  9
$ACADVER
  1
AC1006
  9
$EXTMIN
 10
0.000000
 20
0.000000
  9
$EXTMAX
 10
3.258333
 20
2.066667
  9
$LTSCALE
 40
0.166667
  9
$PDMODE
 70
    35
  9
$PDSIZE
 40
0.133333
  0
ENDSEC
  0
SECTION
  2
TABLES
  0
TABLE
  2
LTYPE
 70
     9
  0
LTYPE
  2
CONTINUOUS
 70
    64
  3
Solid line
 72
    65
 73
     0
 40
0.000000
  0
LTYPE
  2
DASHED
 70
    64
  3
__ __ __ __ __ __ __ __ __ __ __ __ __ __ __
 72
    65
 73
     2
 40
0.001250
 49
0.000833
 49
-0.000417
  0
LTYPE
  2
HIDDEN
 70
    64
  3
 _ _ _ _ _ _ _ _ _ _ _ _ _ _ _ _ _ _ _ _ _ _
 72
    65
 73
     2
 40
0.000625
 49
0.000417
 49
-0.000208
  0
LTYPE
  2
CENTER
 70
    64
  3
____ _ ____ _ ____ _ ____ _ ____ _ ____ _ ____
 72
    65
 73
     4
 40
0.003333
 49
0.002083
 49
-0.000417
 49
0.000417
 49
-0.000417
  0
LTYPE
  2
PHANTOM
 70
    64
  3
_____ _ _ _____ _ _ _____ _ _ _____ _ _ ____
 72
    65
 73
     6
 40
0.004167
 49
0.002083
 49
-0.000417
 49
0.000417
 49
-0.000417
 49
0.000417
 49
-0.000417
  0
LTYPE
  2
DOT
 70
    64
  3
...............................................
 72
    65
 73
     2
 40
0.000417
 49
0.000000
 49
-0.000417
  0
LTYPE
  2
DASHDOT
 70
    64
  3
__ . __ . __ . __ . __ . __ . __ . __ . __ . __
 72
    65
 73
     4
 40
0.001667
 49
0.000833
 49
-0.000417
 49
0.000000
 49
-0.000417
  0
LTYPE
  2
BORDER
 70
    64
  3
__ __ . __ __ . __ __ . __ __ . __ __ . __ __
 72
    65
 73
     6
 40
0.002917
 49
0.000833
 49
-0.000417
 49
0.000833
 49
-0.000417
 49
0.000000
 49
-0.000417
  0
LTYPE
  2
DIVIDE
 70
    64
  3
__ . . __ . . __ . . __ . . __ . . __ . . __
 72
    65
 73
     6
 40
0.002083
 49
0.000833
 49
-0.000417
 49
0.000000
 49
-0.000417
 49
0.000000
 49
-0.000417
  0
LTYPE
  2
DOTDOT
 70
    64
  3
 . .  . .  . .  . .  . .  . . 
 72
    65
 73
     5
 40
0.000917
 49
-0.000417
 49
0.000000
 49
-0.000417
 49
0.000000
 49
-0.000417
  0
ENDTAB
  0
TABLE
  2
STYLE
 70
     2
  0
STYLE
 70
     0
  2
SN0
 40
0.000000
 41
0.001667
 50
0.000000
 71
     0
 42
0.000000
  3
ROMAND
  0
STYLE
 70
    68
  2
SV0
 40
0.000000
 41
0.001667
 50
0.000000
 71
     0
 42
0.000000
  3
ROMAND
  0
ENDTAB
  0
TABLE
  2
LAYER
 70
     2
  0
LAYER
  2
FOREGROUND
 70
    64
 62
     7
  6
CONTINUOUS
  0
LAYER
  2
BACKGROUND
 70
    65
 62
    -7
  6
CONTINUOUS
  0
ENDTAB
  0
ENDSEC
  0
SECTION
  2
ENTITIES
  0
POLYLINE
  8
FOREGROUND
  6
CONTINUOUS
 66
     1
 40
0.010000
 41
0.010000
 70
     1
  0
VERTEX
  8
FOREGROUND
  6
CONTINUOUS
 10
2.225000
 20
0.050000
  0
VERTEX
  8
FOREGROUND
  6
CONTINUOUS
 10
2.243685
 20
0.050189
  0
VERTEX
  8
FOREGROUND
  6
CONTINUOUS
 10
2.262286
 20
0.050722
  0
VERTEX
  8
FOREGROUND
  6
CONTINUOUS
 10
2.280799
 20
0.051598
  0
VERTEX
  8
FOREGROUND
  6
CONTINUOUS
 10
2.299220
 20
0.052813
  0
VERTEX
  8
FOREGROUND
  6
CONTINUOUS
 10
2.317547
 20
0.054365
  0
VERTEX
  8
FOREGROUND
  6
CONTINUOUS
 10
2.335778
 20
0.056249
  0
VERTEX
  8
FOREGROUND
  6
CONTINUOUS
 10
2.353908
 20
0.058463
  0
VERTEX
  8
FOREGROUND
  6
CONTINUOUS
 10
2.371934
 20
0.061004
  0
VERTEX
  8
FOREGROUND
  6
CONTINUOUS
 10
2.389855
 20
0.063869
  0
VERTEX
  8
FOREGROUND
  6
CONTINUOUS
 10
2.407666
 20
0.067054
  0
VERTEX
  8
FOREGROUND
  6
CONTINUOUS
 10
2.425364
 20
0.070557
  0
VERTEX
  8
FOREGROUND
  6
CONTINUOUS
 10
2.442947
 20
0.074375
  0
VERTEX
  8
FOREGROUND
  6
CONTINUOUS
 10
2.460411
 20
0.078504
  0
VERTEX
  8
FOREGROUND
  6
CONTINUOUS
 10
2.477754
 20
0.082942
  0
VERTEX
  8
FOREGROUND
  6
CONTINUOUS
 10
2.494972
 20
0.087685
  0
VERTEX
  8
FOREGROUND
  6
CONTINUOUS
 10
2.512062
 20
0.092731
  0
VERTEX
  8
FOREGROUND
  6
CONTINUOUS
 10
2.529021
 20
0.098076
  0
VERTEX
  8
FOREGROUND
  6
CONTINUOUS
 10
2.545847
 20
0.103717
  0
VERTEX
  8
FOREGROUND
  6
CONTINUOUS
 10
2.562535
 20
0.109652
  0
VERTEX
  8
FOREGROUND
  6
CONTINUOUS
 10
2.579083
 20
0.115876
  0
VERTEX
  8
FOREGROUND
  6
CONTINUOUS
 10
2.595489
 20
0.122388
  0
VERTEX
  8
FOREGROUND
  6
CONTINUOUS
 10
2.611748
 20
0.129183
  0
VERTEX
  8
FOREGROUND
  6
CONTINUOUS
 10
2.627858
 20
0.136259
  0
VERTEX
  8
FOREGROUND
  6
CONTINUOUS
 10
2.643815
 20
0.143614
  0
VERTEX
  8
FOREGROUND
  6
CONTINUOUS
 10
2.659617
 20
0.151243
  0
VERTEX
  8
FOREGROUND
  6
CONTINUOUS
 10
2.675261
 20
0.159144
  0
VERTEX
  8
FOREGROUND
  6
CONTINUOUS
 10
2.690743
 20
0.167313
  0
VERTEX
  8
FOREGROUND
  6
CONTINUOUS
 10
2.706061
 20
0.175748
  0
VERTEX
  8
FOREGROUND
  6
CONTINUOUS
 10
2.721211
 20
0.184446
  0
VERTEX
  8
FOREGROUND
  6
CONTINUOUS
 10
2.736190
 20
0.193403
  0
VERTEX
  8
FOREGROUND
  6
CONTINUOUS
 10
2.750996
 20
0.202617
  0
VERTEX
  8
FOREGROUND
  6
CONTINUOUS
 10
2.765625
 20
0.212084
  0
VERTEX
  8
FOREGROUND
  6
CONTINUOUS
 10
2.780074
 20
0.221801
  0
VERTEX
  8
FOREGROUND
  6
CONTINUOUS
 10
2.794340
 20
0.231766
  0
VERTEX
  8
FOREGROUND
  6
CONTINUOUS
 10
2.808420
 20
0.241974
  0
VERTEX
  8
FOREGROUND
  6
CONTINUOUS
 10
2.822311
 20
0.252424
  0
VERTEX
  8
FOREGROUND
  6
CONTINUOUS
 10
2.836010
 20
0.263112
  0
VERTEX
  8
FOREGROUND
  6
CONTINUOUS
 10
2.849514
 20
0.274035
  0
VERTEX
  8
FOREGROUND
  6
CONTINUOUS
 10
2.862820
 20
0.285190
  0
VERTEX
  8
FOREGROUND
  6
CONTINUOUS
 10
2.875924
 20
0.296573
  0
VERTEX
  8
FOREGROUND
  6
CONTINUOUS
 10
2.888824
 20
0.308183
  0
VERTEX
  8
FOREGROUND
  6
CONTINUOUS
 10
2.901516
 20
0.320015
  0
VERTEX
  8
FOREGROUND
  6
CONTINUOUS
 10
2.913998
 20
0.332067
  0
VERTEX
  8
FOREGROUND
  6
CONTINUOUS
 10
2.926267
 20
0.344335
  0
VERTEX
  8
FOREGROUND
  6
CONTINUOUS
 10
2.938319
 20
0.356817
  0
VERTEX
  8
FOREGROUND
  6
CONTINUOUS
 10
2.950151
 20
0.369509
  0
VERTEX
  8
FOREGROUND
  6
CONTINUOUS
 10
2.961760
 20
0.382409
  0
VERTEX
  8
FOREGROUND
  6
CONTINUOUS
 10
2.973144
 20
0.395514
  0
VERTEX
  8
FOREGROUND
  6
CONTINUOUS
 10
2.984299
 20
0.408819
  0
VERTEX
  8
FOREGROUND
  6
CONTINUOUS
 10
2.995221
 20
0.422323
  0
VERTEX
  8
FOREGROUND
  6
CONTINUOUS
 10
3.005909
 20
0.436022
  0
VERTEX
  8
FOREGROUND
  6
CONTINUOUS
 10
3.016359
 20
0.449913
  0
VERTEX
  8
FOREGROUND
  6
CONTINUOUS
 10
3.026568
 20
0.463993
  0
VERTEX
  8
FOREGROUND
  6
CONTINUOUS
 10
3.036532
 20
0.478259
  0
VERTEX
  8
FOREGROUND
  6
CONTINUOUS
 10
3.046250
 20
0.492708
  0
VERTEX
  8
FOREGROUND
  6
CONTINUOUS
 10
3.055716
 20
0.507337
  0
VERTEX
  8
FOREGROUND
  6
CONTINUOUS
 10
3.064930
 20
0.522143
  0
VERTEX
  8
FOREGROUND
  6
CONTINUOUS
 10
3.073887
 20
0.537122
  0
VERTEX
  8
FOREGROUND
  6
CONTINUOUS
 10
3.082585
 20
0.552272
  0
VERTEX
  8
FOREGROUND
  6
CONTINUOUS
 10
3.091020
 20
0.567590
  0
VERTEX
  8
FOREGROUND
  6
CONTINUOUS
 10
3.099190
 20
0.583072
  0
VERTEX
  8
FOREGROUND
  6
CONTINUOUS
 10
3.107090
 20
0.598716
  0
VERTEX
  8
FOREGROUND
  6
CONTINUOUS
 10
3.114720
 20
0.614518
  0
VERTEX
  8
FOREGROUND
  6
CONTINUOUS
 10
3.122074
 20
0.630476
  0
VERTEX
  8
FOREGROUND
  6
CONTINUOUS
 10
3.129150
 20
0.646586
  0
VERTEX
  8
FOREGROUND
  6
CONTINUOUS
 10
3.135946
 20
0.662845
  0
VERTEX
  8
FOREGROUND
  6
CONTINUOUS
 10
3.142457
 20
0.679250
  0
VERTEX
  8
FOREGROUND
  6
CONTINUOUS
 10
3.148682
 20
0.695798
  0
VERTEX
  8
FOREGROUND
  6
CONTINUOUS
 10
3.154616
 20
0.712487
  0
VERTEX
  8
FOREGROUND
  6
CONTINUOUS
 10
3.160257
 20
0.729312
  0
VERTEX
  8
FOREGROUND
  6
CONTINUOUS
 10
3.165602
 20
0.746271
  0
VERTEX
  8
FOREGROUND
  6
CONTINUOUS
 10
3.170648
 20
0.763361
  0
VERTEX
  8
FOREGROUND
  6
CONTINUOUS
 10
3.175391
 20
0.780579
  0
VERTEX
  8
FOREGROUND
  6
CONTINUOUS
 10
3.179829
 20
0.797922
  0
VERTEX
  8
FOREGROUND
  6
CONTINUOUS
 10
3.183958
 20
0.815386
  0
VERTEX
  8
FOREGROUND
  6
CONTINUOUS
 10
3.187776
 20
0.832969
  0
VERTEX
  8
FOREGROUND
  6
CONTINUOUS
 10
3.191279
 20
0.850668
  0
VERTEX
  8
FOREGROUND
  6
CONTINUOUS
 10
3.194465
 20
0.868479
  0
VERTEX
  8
FOREGROUND
  6
CONTINUOUS
 10
3.197330
 20
0.886399
  0
VERTEX
  8
FOREGROUND
  6
CONTINUOUS
 10
3.199871
 20
0.904426
  0
VERTEX
  8
FOREGROUND
  6
CONTINUOUS
 10
3.202085
 20
0.922556
  0
VERTEX
  8
FOREGROUND
  6
CONTINUOUS
 10
3.203969
 20
0.940786
  0
VERTEX
  8
FOREGROUND
  6
CONTINUOUS
 10
3.205520
 20
0.959113
  0
VERTEX
  8
FOREGROUND
  6
CONTINUOUS
 10
3.206735
 20
0.977535
  0
VERTEX
  8
FOREGROUND
  6
CONTINUOUS
 10
3.207611
 20
0.996047
  0
VERTEX
  8
FOREGROUND
  6
CONTINUOUS
 10
3.208145
 20
1.014648
  0
VERTEX
  8
FOREGROUND
  6
CONTINUOUS
 10
3.208333
 20
1.033333
  0
VERTEX
  8
FOREGROUND
  6
CONTINUOUS
 10
3.208333
 20
1.033333
  0
VERTEX
  8
FOREGROUND
  6
CONTINUOUS
 10
3.208145
 20
1.052021
  0
VERTEX
  8
FOREGROUND
  6
CONTINUOUS
 10
3.207611
 20
1.070624
  0
VERTEX
  8
FOREGROUND
  6
CONTINUOUS
 10
3.206735
 20
1.089139
  0
VERTEX
  8
FOREGROUND
  6
CONTINUOUS
 10
3.205519
 20
1.107563
  0
VERTEX
  8
FOREGROUND
  6
CONTINUOUS
 10
3.203968
 20
1.125893
  0
VERTEX
  8
FOREGROUND
  6
CONTINUOUS
 10
3.202083
 20
1.144125
  0
VERTEX
  8
FOREGROUND
  6
CONTINUOUS
 10
3.199868
 20
1.162257
  0
VERTEX
  8
FOREGROUND
  6
CONTINUOUS
 10
3.197327
 20
1.180286
  0
VERTEX
  8
FOREGROUND
  6
CONTINUOUS
 10
3.194461
 20
1.198209
  0
VERTEX
  8
FOREGROUND
  6
CONTINUOUS
 10
3.191275
 20
1.216022
  0
VERTEX
  8
FOREGROUND
  6
CONTINUOUS
 10
3.187771
 20
1.233722
  0
VERTEX
  8
FOREGROUND
  6
CONTINUOUS
 10
3.183952
 20
1.251307
  0
VERTEX
  8
FOREGROUND
  6
CONTINUOUS
 10
3.179822
 20
1.268774
  0
VERTEX
  8
FOREGROUND
  6
CONTINUOUS
 10
3.175383
 20
1.286118
  0
VERTEX
  8
FOREGROUND
  6
CONTINUOUS
 10
3.170639
 20
1.303338
  0
VERTEX
  8
FOREGROUND
  6
CONTINUOUS
 10
3.165592
 20
1.320430
  0
VERTEX
  8
FOREGROUND
  6
CONTINUOUS
 10
3.160246
 20
1.337391
  0
VERTEX
  8
FOREGROUND
  6
CONTINUOUS
 10
3.154603
 20
1.354218
  0
VERTEX
  8
FOREGROUND
  6
CONTINUOUS
 10
3.148667
 20
1.370908
  0
VERTEX
  8
FOREGROUND
  6
CONTINUOUS
 10
3.142442
 20
1.387458
  0
VERTEX
  8
FOREGROUND
  6
CONTINUOUS
 10
3.135929
 20
1.403865
  0
VERTEX
  8
FOREGROUND
  6
CONTINUOUS
 10
3.129131
 20
1.420126
  0
VERTEX
  8
FOREGROUND
  6
CONTINUOUS
 10
3.122053
 20
1.436237
  0
VERTEX
  8
FOREGROUND
  6
CONTINUOUS
 10
3.114697
 20
1.452196
  0
VERTEX
  8
FOREGROUND
  6
CONTINUOUS
 10
3.107067
 20
1.467999
  0
VERTEX
  8
FOREGROUND
  6
CONTINUOUS
 10
3.099164
 20
1.483645
  0
VERTEX
  8
FOREGROUND
  6
CONTINUOUS
 10
3.090993
 20
1.499128
  0
VERTEX
  8
FOREGROUND
  6
CONTINUOUS
 10
3.082555
 20
1.514447
  0
VERTEX
  8
FOREGROUND
  6
CONTINUOUS
 10
3.073856
 20
1.529598
  0
VERTEX
  8
FOREGROUND
  6
CONTINUOUS
 10
3.064897
 20
1.544579
  0
VERTEX
  8
FOREGROUND
  6
CONTINUOUS
 10
3.055681
 20
1.559386
  0
VERTEX
  8
FOREGROUND
  6
CONTINUOUS
 10
3.046212
 20
1.574016
  0
VERTEX
  8
FOREGROUND
  6
CONTINUOUS
 10
3.036493
 20
1.588466
  0
VERTEX
  8
FOREGROUND
  6
CONTINUOUS
 10
3.026526
 20
1.602733
  0
VERTEX
  8
FOREGROUND
  6
CONTINUOUS
 10
3.016315
 20
1.616813
  0
VERTEX
  8
FOREGROUND
  6
CONTINUOUS
 10
3.005863
 20
1.630705
  0
VERTEX
  8
FOREGROUND
  6
CONTINUOUS
 10
2.995173
 20
1.644405
  0
VERTEX
  8
FOREGROUND
  6
CONTINUOUS
 10
2.984248
 20
1.657909
  0
VERTEX
  8
FOREGROUND
  6
CONTINUOUS
 10
2.973090
 20
1.671216
  0
VERTEX
  8
FOREGROUND
  6
CONTINUOUS
 10
2.961704
 20
1.684320
  0
VERTEX
  8
FOREGROUND
  6
CONTINUOUS
 10
2.950093
 20
1.697221
  0
VERTEX
  8
FOREGROUND
  6
CONTINUOUS
 10
2.938258
 20
1.709914
  0
VERTEX
  8
FOREGROUND
  6
CONTINUOUS
 10
2.926204
 20
1.722396
  0
VERTEX
  8
FOREGROUND
  6
CONTINUOUS
 10
2.913933
 20
1.734665
  0
VERTEX
  8
FOREGROUND
  6
CONTINUOUS
 10
2.901448
 20
1.746717
  0
VERTEX
  8
FOREGROUND
  6
CONTINUOUS
 10
2.888753
 20
1.758549
  0
VERTEX
  8
FOREGROUND
  6
CONTINUOUS
 10
2.875851
 20
1.770158
  0
VERTEX
  8
FOREGROUND
  6
CONTINUOUS
 10
2.862744
 20
1.781542
  0
VERTEX
  8
FOREGROUND
  6
CONTINUOUS
 10
2.849435
 20
1.792697
  0
VERTEX
  8
FOREGROUND
  6
CONTINUOUS
 10
2.835929
 20
1.803619
  0
VERTEX
  8
FOREGROUND
  6
CONTINUOUS
 10
2.822227
 20
1.814307
  0
VERTEX
  8
FOREGROUND
  6
CONTINUOUS
 10
2.808333
 20
1.824756
  0
VERTEX
  8
FOREGROUND
  6
CONTINUOUS
 10
2.794251
 20
1.834965
  0
VERTEX
  8
FOREGROUND
  6
CONTINUOUS
 10
2.779982
 20
1.844929
  0
VERTEX
  8
FOREGROUND
  6
CONTINUOUS
 10
2.765530
 20
1.854645
  0
VERTEX
  8
FOREGROUND
  6
CONTINUOUS
 10
2.750898
 20
1.864112
  0
VERTEX
  8
FOREGROUND
  6
CONTINUOUS
 10
2.736090
 20
1.873325
  0
VERTEX
  8
FOREGROUND
  6
CONTINUOUS
 10
2.721108
 20
1.882281
  0
VERTEX
  8
FOREGROUND
  6
CONTINUOUS
 10
2.705955
 20
1.890978
  0
VERTEX
  8
FOREGROUND
  6
CONTINUOUS
 10
2.690634
 20
1.899412
  0
VERTEX
  8
FOREGROUND
  6
CONTINUOUS
 10
2.675149
 20
1.907581
  0
VERTEX
  8
FOREGROUND
  6
CONTINUOUS
 10
2.659503
 20
1.915480
  0
VERTEX
  8
FOREGROUND
  6
CONTINUOUS
 10
2.643698
 20
1.923108
  0
VERTEX
  8
FOREGROUND
  6
CONTINUOUS
 10
2.627737
 20
1.930461
  0
VERTEX
  8
FOREGROUND
  6
CONTINUOUS
 10
2.611625
 20
1.937536
  0
VERTEX
  8
FOREGROUND
  6
CONTINUOUS
 10
2.595363
 20
1.944331
  0
VERTEX
  8
FOREGROUND
  6
CONTINUOUS
 10
2.578955
 20
1.950841
  0
VERTEX
  8
FOREGROUND
  6
CONTINUOUS
 10
2.562404
 20
1.957063
  0
VERTEX
  8
FOREGROUND
  6
CONTINUOUS
 10
2.545713
 20
1.962996
  0
VERTEX
  8
FOREGROUND
  6
CONTINUOUS
 10
2.528884
 20
1.968635
  0
VERTEX
  8
FOREGROUND
  6
CONTINUOUS
 10
2.511922
 20
1.973978
  0
VERTEX
  8
FOREGROUND
  6
CONTINUOUS
 10
2.494829
 20
1.979022
  0
VERTEX
  8
FOREGROUND
  6
CONTINUOUS
 10
2.477609
 20
1.983763
  0
VERTEX
  8
FOREGROUND
  6
CONTINUOUS
 10
2.460263
 20
1.988199
  0
VERTEX
  8
FOREGROUND
  6
CONTINUOUS
 10
2.442796
 20
1.992326
  0
VERTEX
  8
FOREGROUND
  6
CONTINUOUS
 10
2.425211
 20
1.996142
  0
VERTEX
  8
FOREGROUND
  6
CONTINUOUS
 10
2.407509
 20
1.999642
  0
VERTEX
  8
FOREGROUND
  6
CONTINUOUS
 10
2.389696
 20
2.002825
  0
VERTEX
  8
FOREGROUND
  6
CONTINUOUS
 10
2.371773
 20
2.005687
  0
VERTEX
  8
FOREGROUND
  6
CONTINUOUS
 10
2.353743
 20
2.008226
  0
VERTEX
  8
FOREGROUND
  6
CONTINUOUS
 10
2.335611
 20
2.010437
  0
VERTEX
  8
FOREGROUND
  6
CONTINUOUS
 10
2.317378
 20
2.012318
  0
VERTEX
  8
FOREGROUND
  6
CONTINUOUS
 10
2.299048
 20
2.013866
  0
VERTEX
  8
FOREGROUND
  6
CONTINUOUS
 10
2.280624
 20
2.015078
  0
VERTEX
  8
FOREGROUND
  6
CONTINUOUS
 10
2.262109
 20
2.015951
  0
VERTEX
  8
FOREGROUND
  6
CONTINUOUS
 10
2.243506
 20
2.016482
  0
VERTEX
  8
FOREGROUND
  6
CONTINUOUS
 10
2.224818
 20
2.016667
  0
VERTEX
  8
FOREGROUND
  6
CONTINUOUS
 10
1.033151
 20
2.016667
  0
VERTEX
  8
FOREGROUND
  6
CONTINUOUS
 10
1.014468
 20
2.016475
  0
VERTEX
  8
FOREGROUND
  6
CONTINUOUS
 10
0.995870
 20
2.015938
  0
VERTEX
  8
FOREGROUND
  6
CONTINUOUS
 10
0.977360
 20
2.015058
  0
VERTEX
  8
FOREGROUND
  6
CONTINUOUS
 10
0.958941
 20
2.013840
  0
VERTEX
  8
FOREGROUND
  6
CONTINUOUS
 10
0.940616
 20
2.012286
  0
VERTEX
  8
FOREGROUND
  6
CONTINUOUS
 10
0.922389
 20
2.010399
  0
VERTEX
  8
FOREGROUND
  6
CONTINUOUS
 10
0.904261
 20
2.008182
  0
VERTEX
  8
FOREGROUND
  6
CONTINUOUS
 10
0.886237
 20
2.005638
  0
VERTEX
  8
FOREGROUND
  6
CONTINUOUS
 10
0.868320
 20
2.002771
  0
VERTEX
  8
FOREGROUND
  6
CONTINUOUS
 10
0.850511
 20
1.999583
  0
VERTEX
  8
FOREGROUND
  6
CONTINUOUS
 10
0.832816
 20
1.996077
  0
VERTEX
  8
FOREGROUND
  6
CONTINUOUS
 10
0.815235
 20
1.992257
  0
VERTEX
  8
FOREGROUND
  6
CONTINUOUS
 10
0.797774
 20
1.988126
  0
VERTEX
  8
FOREGROUND
  6
CONTINUOUS
 10
0.780434
 20
1.983686
  0
VERTEX
  8
FOREGROUND
  6
CONTINUOUS
 10
0.763219
 20
1.978940
  0
VERTEX
  8
FOREGROUND
  6
CONTINUOUS
 10
0.746131
 20
1.973893
  0
VERTEX
  8
FOREGROUND
  6
CONTINUOUS
 10
0.729175
 20
1.968546
  0
VERTEX
  8
FOREGROUND
  6
CONTINUOUS
 10
0.712352
 20
1.962903
  0
VERTEX
  8
FOREGROUND
  6
CONTINUOUS
 10
0.695667
 20
1.956967
  0
VERTEX
  8
FOREGROUND
  6
CONTINUOUS
 10
0.679121
 20
1.950741
  0
VERTEX
  8
FOREGROUND
  6
CONTINUOUS
 10
0.662719
 20
1.944228
  0
VERTEX
  8
FOREGROUND
  6
CONTINUOUS
 10
0.646463
 20
1.937431
  0
VERTEX
  8
FOREGROUND
  6
CONTINUOUS
 10
0.630356
 20
1.930353
  0
VERTEX
  8
FOREGROUND
  6
CONTINUOUS
 10
0.614401
 20
1.922997
  0
VERTEX
  8
FOREGROUND
  6
CONTINUOUS
 10
0.598602
 20
1.915367
  0
VERTEX
  8
FOREGROUND
  6
CONTINUOUS
 10
0.582961
 20
1.907465
  0
VERTEX
  8
FOREGROUND
  6
CONTINUOUS
 10
0.567481
 20
1.899295
  0
VERTEX
  8
FOREGROUND
  6
CONTINUOUS
 10
0.552166
 20
1.890859
  0
VERTEX
  8
FOREGROUND
  6
CONTINUOUS
 10
0.537019
 20
1.882160
  0
VERTEX
  8
FOREGROUND
  6
CONTINUOUS
 10
0.522042
 20
1.873202
  0
VERTEX
  8
FOREGROUND
  6
CONTINUOUS
 10
0.507239
 20
1.863988
  0
VERTEX
  8
FOREGROUND
  6
CONTINUOUS
 10
0.492613
 20
1.854520
  0
VERTEX
  8
FOREGROUND
  6
CONTINUOUS
 10
0.478167
 20
1.844802
  0
VERTEX
  8
FOREGROUND
  6
CONTINUOUS
 10
0.463904
 20
1.834837
  0
VERTEX
  8
FOREGROUND
  6
CONTINUOUS
 10
0.449826
 20
1.824628
  0
VERTEX
  8
FOREGROUND
  6
CONTINUOUS
 10
0.435938
 20
1.814178
  0
VERTEX
  8
FOREGROUND
  6
CONTINUOUS
 10
0.422242
 20
1.803490
  0
VERTEX
  8
FOREGROUND
  6
CONTINUOUS
 10
0.408741
 20
1.792567
  0
VERTEX
  8
FOREGROUND
  6
CONTINUOUS
 10
0.395438
 20
1.781412
  0
VERTEX
  8
FOREGROUND
  6
CONTINUOUS
 10
0.382336
 20
1.770029
  0
VERTEX
  8
FOREGROUND
  6
CONTINUOUS
 10
0.369439
 20
1.758419
  0
VERTEX
  8
FOREGROUND
  6
CONTINUOUS
 10
0.356749
 20
1.746587
  0
VERTEX
  8
FOREGROUND
  6
CONTINUOUS
 10
0.344269
 20
1.734536
  0
VERTEX
  8
FOREGROUND
  6
CONTINUOUS
 10
0.332003
 20
1.722267
  0
VERTEX
  8
FOREGROUND
  6
CONTINUOUS
 10
0.319954
 20
1.709786
  0
VERTEX
  8
FOREGROUND
  6
CONTINUOUS
 10
0.308124
 20
1.697094
  0
VERTEX
  8
FOREGROUND
  6
CONTINUOUS
 10
0.296517
 20
1.684194
  0
VERTEX
  8
FOREGROUND
  6
CONTINUOUS
 10
0.285136
 20
1.671090
  0
VERTEX
  8
FOREGROUND
  6
CONTINUOUS
 10
0.273984
 20
1.657785
  0
VERTEX
  8
FOREGROUND
  6
CONTINUOUS
 10
0.263063
 20
1.644282
  0
VERTEX
  8
FOREGROUND
  6
CONTINUOUS
 10
0.252378
 20
1.630584
  0
VERTEX
  8
FOREGROUND
  6
CONTINUOUS
 10
0.241930
 20
1.616694
  0
VERTEX
  8
FOREGROUND
  6
CONTINUOUS
 10
0.231724
 20
1.602614
  0
VERTEX
  8
FOREGROUND
  6
CONTINUOUS
 10
0.221761
 20
1.588349
  0
VERTEX
  8
FOREGROUND
  6
CONTINUOUS
 10
0.212046
 20
1.573901
  0
VERTEX
  8
FOREGROUND
  6
CONTINUOUS
 10
0.202581
 20
1.559273
  0
VERTEX
  8
FOREGROUND
  6
CONTINUOUS
 10
0.193370
 20
1.544469
  0
VERTEX
  8
FOREGROUND
  6
CONTINUOUS
 10
0.184415
 20
1.529490
  0
VERTEX
  8
FOREGROUND
  6
CONTINUOUS
 10
0.175719
 20
1.514341
  0
VERTEX
  8
FOREGROUND
  6
CONTINUOUS
 10
0.167286
 20
1.499025
  0
VERTEX
  8
FOREGROUND
  6
CONTINUOUS
 10
0.159118
 20
1.483544
  0
VERTEX
  8
FOREGROUND
  6
CONTINUOUS
 10
0.151219
 20
1.467902
  0
VERTEX
  8
FOREGROUND
  6
CONTINUOUS
 10
0.143592
 20
1.452101
  0
VERTEX
  8
FOREGROUND
  6
CONTINUOUS
 10
0.136239
 20
1.436145
  0
VERTEX
  8
FOREGROUND
  6
CONTINUOUS
 10
0.129164
 20
1.420036
  0
VERTEX
  8
FOREGROUND
  6
CONTINUOUS
 10
0.122370
 20
1.403779
  0
VERTEX
  8
FOREGROUND
  6
CONTINUOUS
 10
0.115860
 20
1.387375
  0
VERTEX
  8
FOREGROUND
  6
CONTINUOUS
 10
0.109637
 20
1.370829
  0
VERTEX
  8
FOREGROUND
  6
CONTINUOUS
 10
0.103704
 20
1.354142
  0
VERTEX
  8
FOREGROUND
  6
CONTINUOUS
 10
0.098064
 20
1.337318
  0
VERTEX
  8
FOREGROUND
  6
CONTINUOUS
 10
0.092721
 20
1.320361
  0
VERTEX
  8
FOREGROUND
  6
CONTINUOUS
 10
0.087676
 20
1.303273
  0
VERTEX
  8
FOREGROUND
  6
CONTINUOUS
 10
0.082934
 20
1.286057
  0
VERTEX
  8
FOREGROUND
  6
CONTINUOUS
 10
0.078497
 20
1.268716
  0
VERTEX
  8
FOREGROUND
  6
CONTINUOUS
 10
0.074369
 20
1.251254
  0
VERTEX
  8
FOREGROUND
  6
CONTINUOUS
 10
0.070552
 20
1.233673
  0
VERTEX
  8
FOREGROUND
  6
CONTINUOUS
 10
0.067050
 20
1.215976
  0
VERTEX
  8
FOREGROUND
  6
CONTINUOUS
 10
0.063865
 20
1.198168
  0
VERTEX
  8
FOREGROUND
  6
CONTINUOUS
 10
0.061001
 20
1.180249
  0
VERTEX
  8
FOREGROUND
  6
CONTINUOUS
 10
0.058461
 20
1.162225
  0
VERTEX
  8
FOREGROUND
  6
CONTINUOUS
 10
0.056247
 20
1.144097
  0
VERTEX
  8
FOREGROUND
  6
CONTINUOUS
 10
0.054364
 20
1.125869
  0
VERTEX
  8
FOREGROUND
  6
CONTINUOUS
 10
0.052813
 20
1.107544
  0
VERTEX
  8
FOREGROUND
  6
CONTINUOUS
 10
0.051598
 20
1.089125
  0
VERTEX
  8
FOREGROUND
  6
CONTINUOUS
 10
0.050722
 20
1.070614
  0
VERTEX
  8
FOREGROUND
  6
CONTINUOUS
 10
0.050189
 20
1.052016
  0
VERTEX
  8
FOREGROUND
  6
CONTINUOUS
 10
0.050000
 20
1.033333
  0
VERTEX
  8
FOREGROUND
  6
CONTINUOUS
 10
0.050000
 20
1.033333
  0
VERTEX
  8
FOREGROUND
  6
CONTINUOUS
 10
0.050189
 20
1.014648
  0
VERTEX
  8
FOREGROUND
  6
CONTINUOUS
 10
0.050722
 20
0.996047
  0
VERTEX
  8
FOREGROUND
  6
CONTINUOUS
 10
0.051598
 20
0.977535
  0
VERTEX
  8
FOREGROUND
  6
CONTINUOUS
 10
0.052813
 20
0.959113
  0
VERTEX
  8
FOREGROUND
  6
CONTINUOUS
 10
0.054365
 20
0.940786
  0
VERTEX
  8
FOREGROUND
  6
CONTINUOUS
 10
0.056249
 20
0.922556
  0
VERTEX
  8
FOREGROUND
  6
CONTINUOUS
 10
0.058463
 20
0.904426
  0
VERTEX
  8
FOREGROUND
  6
CONTINUOUS
 10
0.061004
 20
0.886399
  0
VERTEX
  8
FOREGROUND
  6
CONTINUOUS
 10
0.063869
 20
0.868479
  0
VERTEX
  8
FOREGROUND
  6
CONTINUOUS
 10
0.067054
 20
0.850668
  0
VERTEX
  8
FOREGROUND
  6
CONTINUOUS
 10
0.070557
 20
0.832969
  0
VERTEX
  8
FOREGROUND
  6
CONTINUOUS
 10
0.074375
 20
0.815386
  0
VERTEX
  8
FOREGROUND
  6
CONTINUOUS
 10
0.078504
 20
0.797922
  0
VERTEX
  8
FOREGROUND
  6
CONTINUOUS
 10
0.082942
 20
0.780579
  0
VERTEX
  8
FOREGROUND
  6
CONTINUOUS
 10
0.087685
 20
0.763361
  0
VERTEX
  8
FOREGROUND
  6
CONTINUOUS
 10
0.092731
 20
0.746271
  0
VERTEX
  8
FOREGROUND
  6
CONTINUOUS
 10
0.098076
 20
0.729312
  0
VERTEX
  8
FOREGROUND
  6
CONTINUOUS
 10
0.103717
 20
0.712487
  0
VERTEX
  8
FOREGROUND
  6
CONTINUOUS
 10
0.109652
 20
0.695798
  0
VERTEX
  8
FOREGROUND
  6
CONTINUOUS
 10
0.115876
 20
0.679250
  0
VERTEX
  8
FOREGROUND
  6
CONTINUOUS
 10
0.122388
 20
0.662845
  0
VERTEX
  8
FOREGROUND
  6
CONTINUOUS
 10
0.129183
 20
0.646586
  0
VERTEX
  8
FOREGROUND
  6
CONTINUOUS
 10
0.136259
 20
0.630476
  0
VERTEX
  8
FOREGROUND
  6
CONTINUOUS
 10
0.143614
 20
0.614518
  0
VERTEX
  8
FOREGROUND
  6
CONTINUOUS
 10
0.151243
 20
0.598716
  0
VERTEX
  8
FOREGROUND
  6
CONTINUOUS
 10
0.159144
 20
0.583072
  0
VERTEX
  8
FOREGROUND
  6
CONTINUOUS
 10
0.167313
 20
0.567590
  0
VERTEX
  8
FOREGROUND
  6
CONTINUOUS
 10
0.175748
 20
0.552272
  0
VERTEX
  8
FOREGROUND
  6
CONTINUOUS
 10
0.184446
 20
0.537122
  0
VERTEX
  8
FOREGROUND
  6
CONTINUOUS
 10
0.193403
 20
0.522143
  0
VERTEX
  8
FOREGROUND
  6
CONTINUOUS
 10
0.202617
 20
0.507337
  0
VERTEX
  8
FOREGROUND
  6
CONTINUOUS
 10
0.212084
 20
0.492708
  0
VERTEX
  8
FOREGROUND
  6
CONTINUOUS
 10
0.221801
 20
0.478259
  0
VERTEX
  8
FOREGROUND
  6
CONTINUOUS
 10
0.231766
 20
0.463993
  0
VERTEX
  8
FOREGROUND
  6
CONTINUOUS
 10
0.241974
 20
0.449913
  0
VERTEX
  8
FOREGROUND
  6
CONTINUOUS
 10
0.252424
 20
0.436022
  0
VERTEX
  8
FOREGROUND
  6
CONTINUOUS
 10
0.263112
 20
0.422323
  0
VERTEX
  8
FOREGROUND
  6
CONTINUOUS
 10
0.274035
 20
0.408819
  0
VERTEX
  8
FOREGROUND
  6
CONTINUOUS
 10
0.285190
 20
0.395514
  0
VERTEX
  8
FOREGROUND
  6
CONTINUOUS
 10
0.296573
 20
0.382409
  0
VERTEX
  8
FOREGROUND
  6
CONTINUOUS
 10
0.308183
 20
0.369509
  0
VERTEX
  8
FOREGROUND
  6
CONTINUOUS
 10
0.320015
 20
0.356817
  0
VERTEX
  8
FOREGROUND
  6
CONTINUOUS
 10
0.332067
 20
0.344335
  0
VERTEX
  8
FOREGROUND
  6
CONTINUOUS
 10
0.344335
 20
0.332067
  0
VERTEX
  8
FOREGROUND
  6
CONTINUOUS
 10
0.356817
 20
0.320015
  0
VERTEX
  8
FOREGROUND
  6
CONTINUOUS
 10
0.369509
 20
0.308183
  0
VERTEX
  8
FOREGROUND
  6
CONTINUOUS
 10
0.382409
 20
0.296573
  0
VERTEX
  8
FOREGROUND
  6
CONTINUOUS
 10
0.395514
 20
0.285190
  0
VERTEX
  8
FOREGROUND
  6
CONTINUOUS
 10
0.408819
 20
0.274035
  0
VERTEX
  8
FOREGROUND
  6
CONTINUOUS
 10
0.422323
 20
0.263112
  0
VERTEX
  8
FOREGROUND
  6
CONTINUOUS
 10
0.436022
 20
0.252424
  0
VERTEX
  8
FOREGROUND
  6
CONTINUOUS
 10
0.449913
 20
0.241974
  0
VERTEX
  8
FOREGROUND
  6
CONTINUOUS
 10
0.463993
 20
0.231766
  0
VERTEX
  8
FOREGROUND
  6
CONTINUOUS
 10
0.478259
 20
0.221801
  0
VERTEX
  8
FOREGROUND
  6
CONTINUOUS
 10
0.492708
 20
0.212084
  0
VERTEX
  8
FOREGROUND
  6
CONTINUOUS
 10
0.507337
 20
0.202617
  0
VERTEX
  8
FOREGROUND
  6
CONTINUOUS
 10
0.522143
 20
0.193403
  0
VERTEX
  8
FOREGROUND
  6
CONTINUOUS
 10
0.537122
 20
0.184446
  0
VERTEX
  8
FOREGROUND
  6
CONTINUOUS
 10
0.552272
 20
0.175748
  0
VERTEX
  8
FOREGROUND
  6
CONTINUOUS
 10
0.567590
 20
0.167313
  0
VERTEX
  8
FOREGROUND
  6
CONTINUOUS
 10
0.583072
 20
0.159144
  0
VERTEX
  8
FOREGROUND
  6
CONTINUOUS
 10
0.598716
 20
0.151243
  0
VERTEX
  8
FOREGROUND
  6
CONTINUOUS
 10
0.614518
 20
0.143614
  0
VERTEX
  8
FOREGROUND
  6
CONTINUOUS
 10
0.630476
 20
0.136259
  0
VERTEX
  8
FOREGROUND
  6
CONTINUOUS
 10
0.646586
 20
0.129183
  0
VERTEX
  8
FOREGROUND
  6
CONTINUOUS
 10
0.662845
 20
0.122388
  0
VERTEX
  8
FOREGROUND
  6
CONTINUOUS
 10
0.679250
 20
0.115876
  0
VERTEX
  8
FOREGROUND
  6
CONTINUOUS
 10
0.695798
 20
0.109652
  0
VERTEX
  8
FOREGROUND
  6
CONTINUOUS
 10
0.712487
 20
0.103717
  0
VERTEX
  8
FOREGROUND
  6
CONTINUOUS
 10
0.729312
 20
0.098076
  0
VERTEX
  8
FOREGROUND
  6
CONTINUOUS
 10
0.746271
 20
0.092731
  0
VERTEX
  8
FOREGROUND
  6
CONTINUOUS
 10
0.763361
 20
0.087685
  0
VERTEX
  8
FOREGROUND
  6
CONTINUOUS
 10
0.780579
 20
0.082942
  0
VERTEX
  8
FOREGROUND
  6
CONTINUOUS
 10
0.797922
 20
0.078504
  0
VERTEX
  8
FOREGROUND
  6
CONTINUOUS
 10
0.815386
 20
0.074375
  0
VERTEX
  8
FOREGROUND
  6
CONTINUOUS
 10
0.832969
 20
0.070557
  0
VERTEX
  8
FOREGROUND
  6
CONTINUOUS
 10
0.850668
 20
0.067054
  0
VERTEX
  8
FOREGROUND
  6
CONTINUOUS
 10
0.868479
 20
0.063869
  0
VERTEX
  8
FOREGROUND
  6
CONTINUOUS
 10
0.886399
 20
0.061004
  0
VERTEX
  8
FOREGROUND
  6
CONTINUOUS
 10
0.904426
 20
0.058463
  0
VERTEX
  8
FOREGROUND
  6
CONTINUOUS
 10
0.922556
 20
0.056249
  0
VERTEX
  8
FOREGROUND
  6
CONTINUOUS
 10
0.940786
 20
0.054365
  0
VERTEX
  8
FOREGROUND
  6
CONTINUOUS
 10
0.959113
 20
0.052813
  0
VERTEX
  8
FOREGROUND
  6
CONTINUOUS
 10
0.977535
 20
0.051598
  0
VERTEX
  8
FOREGROUND
  6
CONTINUOUS
 10
0.996047
 20
0.050722
  0
VERTEX
  8
FOREGROUND
  6
CONTINUOUS
 10
1.014648
 20
0.050189
  0
VERTEX
  8
FOREGROUND
  6
CONTINUOUS
 10
1.033333
 20
0.050000
  0
SEQEND
  8
0
  0
ENDSEC
  0
EOF
