  0
SECTION
  2
HEADER
  9
$ACADVER
  1
AC1006
  9
$EXTMIN
 10
0.000000
 20
0.000000
  9
$EXTMAX
 10
3.258333
 20
2.460000
  9
$LTSCALE
 40
0.166667
  9
$PDMODE
 70
    35
  9
$PDSIZE
 40
0.133333
  0
ENDSEC
  0
SECTION
  2
TABLES
  0
TABLE
  2
LTYPE
 70
     9
  0
LTYPE
  2
CONTINUOUS
 70
    64
  3
Solid line
 72
    65
 73
     0
 40
0.000000
  0
LTYPE
  2
DASHED
 70
    64
  3
__ __ __ __ __ __ __ __ __ __ __ __ __ __ __
 72
    65
 73
     2
 40
0.001250
 49
0.000833
 49
-0.000417
  0
LTYPE
  2
HIDDEN
 70
    64
  3
 _ _ _ _ _ _ _ _ _ _ _ _ _ _ _ _ _ _ _ _ _ _
 72
    65
 73
     2
 40
0.000625
 49
0.000417
 49
-0.000208
  0
LTYPE
  2
CENTER
 70
    64
  3
____ _ ____ _ ____ _ ____ _ ____ _ ____ _ ____
 72
    65
 73
     4
 40
0.003333
 49
0.002083
 49
-0.000417
 49
0.000417
 49
-0.000417
  0
LTYPE
  2
PHANTOM
 70
    64
  3
_____ _ _ _____ _ _ _____ _ _ _____ _ _ ____
 72
    65
 73
     6
 40
0.004167
 49
0.002083
 49
-0.000417
 49
0.000417
 49
-0.000417
 49
0.000417
 49
-0.000417
  0
LTYPE
  2
DOT
 70
    64
  3
...............................................
 72
    65
 73
     2
 40
0.000417
 49
0.000000
 49
-0.000417
  0
LTYPE
  2
DASHDOT
 70
    64
  3
__ . __ . __ . __ . __ . __ . __ . __ . __ . __
 72
    65
 73
     4
 40
0.001667
 49
0.000833
 49
-0.000417
 49
0.000000
 49
-0.000417
  0
LTYPE
  2
BORDER
 70
    64
  3
__ __ . __ __ . __ __ . __ __ . __ __ . __ __
 72
    65
 73
     6
 40
0.002917
 49
0.000833
 49
-0.000417
 49
0.000833
 49
-0.000417
 49
0.000000
 49
-0.000417
  0
LTYPE
  2
DIVIDE
 70
    64
  3
__ . . __ . . __ . . __ . . __ . . __ . . __
 72
    65
 73
     6
 40
0.002083
 49
0.000833
 49
-0.000417
 49
0.000000
 49
-0.000417
 49
0.000000
 49
-0.000417
  0
LTYPE
  2
DOTDOT
 70
    64
  3
 . .  . .  . .  . .  . .  . . 
 72
    65
 73
     5
 40
0.000917
 49
-0.000417
 49
0.000000
 49
-0.000417
 49
0.000000
 49
-0.000417
  0
ENDTAB
  0
TABLE
  2
STYLE
 70
     2
  0
STYLE
 70
     0
  2
SN0
 40
0.000000
 41
0.001667
 50
0.000000
 71
     0
 42
0.000000
  3
ROMAND
  0
STYLE
 70
    68
  2
SV0
 40
0.000000
 41
0.001667
 50
0.000000
 71
     0
 42
0.000000
  3
ROMAND
  0
ENDTAB
  0
TABLE
  2
LAYER
 70
     2
  0
LAYER
  2
FOREGROUND
 70
    64
 62
     7
  6
CONTINUOUS
  0
LAYER
  2
BACKGROUND
 70
    65
 62
    -7
  6
CONTINUOUS
  0
ENDTAB
  0
ENDSEC
  0
SECTION
  2
ENTITIES
  0
POLYLINE
  8
FOREGROUND
  6
CONTINUOUS
 66
     1
 40
0.010000
 41
0.010000
 70
     1
  0
VERTEX
  8
FOREGROUND
  6
CONTINUOUS
 10
2.028333
 20
0.050000
  0
VERTEX
  8
FOREGROUND
  6
CONTINUOUS
 10
2.048043
 20
0.050177
  0
VERTEX
  8
FOREGROUND
  6
CONTINUOUS
 10
2.067675
 20
0.050674
  0
VERTEX
  8
FOREGROUND
  6
CONTINUOUS
 10
2.087226
 20
0.051488
  0
VERTEX
  8
FOREGROUND
  6
CONTINUOUS
 10
2.106693
 20
0.052619
  0
VERTEX
  8
FOREGROUND
  6
CONTINUOUS
 10
2.126075
 20
0.054061
  0
VERTEX
  8
FOREGROUND
  6
CONTINUOUS
 10
2.145368
 20
0.055815
  0
VERTEX
  8
FOREGROUND
  6
CONTINUOUS
 10
2.164571
 20
0.057876
  0
VERTEX
  8
FOREGROUND
  6
CONTINUOUS
 10
2.183680
 20
0.060242
  0
VERTEX
  8
FOREGROUND
  6
CONTINUOUS
 10
2.202693
 20
0.062911
  0
VERTEX
  8
FOREGROUND
  6
CONTINUOUS
 10
2.221608
 20
0.065881
  0
VERTEX
  8
FOREGROUND
  6
CONTINUOUS
 10
2.240423
 20
0.069148
  0
VERTEX
  8
FOREGROUND
  6
CONTINUOUS
 10
2.259134
 20
0.072711
  0
VERTEX
  8
FOREGROUND
  6
CONTINUOUS
 10
2.277739
 20
0.076566
  0
VERTEX
  8
FOREGROUND
  6
CONTINUOUS
 10
2.296236
 20
0.080712
  0
VERTEX
  8
FOREGROUND
  6
CONTINUOUS
 10
2.314622
 20
0.085146
  0
VERTEX
  8
FOREGROUND
  6
CONTINUOUS
 10
2.332895
 20
0.089865
  0
VERTEX
  8
FOREGROUND
  6
CONTINUOUS
 10
2.351052
 20
0.094867
  0
VERTEX
  8
FOREGROUND
  6
CONTINUOUS
 10
2.369091
 20
0.100150
  0
VERTEX
  8
FOREGROUND
  6
CONTINUOUS
 10
2.387009
 20
0.105710
  0
VERTEX
  8
FOREGROUND
  6
CONTINUOUS
 10
2.404804
 20
0.111546
  0
VERTEX
  8
FOREGROUND
  6
CONTINUOUS
 10
2.422473
 20
0.117654
  0
VERTEX
  8
FOREGROUND
  6
CONTINUOUS
 10
2.440014
 20
0.124033
  0
VERTEX
  8
FOREGROUND
  6
CONTINUOUS
 10
2.457424
 20
0.130680
  0
VERTEX
  8
FOREGROUND
  6
CONTINUOUS
 10
2.474701
 20
0.137592
  0
VERTEX
  8
FOREGROUND
  6
CONTINUOUS
 10
2.491842
 20
0.144768
  0
VERTEX
  8
FOREGROUND
  6
CONTINUOUS
 10
2.508845
 20
0.152203
  0
VERTEX
  8
FOREGROUND
  6
CONTINUOUS
 10
2.525707
 20
0.159897
  0
VERTEX
  8
FOREGROUND
  6
CONTINUOUS
 10
2.542426
 20
0.167846
  0
VERTEX
  8
FOREGROUND
  6
CONTINUOUS
 10
2.559000
 20
0.176048
  0
VERTEX
  8
FOREGROUND
  6
CONTINUOUS
 10
2.575425
 20
0.184500
  0
VERTEX
  8
FOREGROUND
  6
CONTINUOUS
 10
2.591699
 20
0.193201
  0
VERTEX
  8
FOREGROUND
  6
CONTINUOUS
 10
2.607821
 20
0.202146
  0
VERTEX
  8
FOREGROUND
  6
CONTINUOUS
 10
2.623787
 20
0.211335
  0
VERTEX
  8
FOREGROUND
  6
CONTINUOUS
 10
2.639594
 20
0.220765
  0
VERTEX
  8
FOREGROUND
  6
CONTINUOUS
 10
2.655241
 20
0.230432
  0
VERTEX
  8
FOREGROUND
  6
CONTINUOUS
 10
2.670725
 20
0.240335
  0
VERTEX
  8
FOREGROUND
  6
CONTINUOUS
 10
2.686043
 20
0.250470
  0
VERTEX
  8
FOREGROUND
  6
CONTINUOUS
 10
2.701193
 20
0.260837
  0
VERTEX
  8
FOREGROUND
  6
CONTINUOUS
 10
2.716172
 20
0.271431
  0
VERTEX
  8
FOREGROUND
  6
CONTINUOUS
 10
2.730978
 20
0.282251
  0
VERTEX
  8
FOREGROUND
  6
CONTINUOUS
 10
2.745609
 20
0.293293
  0
VERTEX
  8
FOREGROUND
  6
CONTINUOUS
 10
2.760061
 20
0.304557
  0
VERTEX
  8
FOREGROUND
  6
CONTINUOUS
 10
2.774333
 20
0.316038
  0
VERTEX
  8
FOREGROUND
  6
CONTINUOUS
 10
2.788421
 20
0.327735
  0
VERTEX
  8
FOREGROUND
  6
CONTINUOUS
 10
2.802324
 20
0.339645
  0
VERTEX
  8
FOREGROUND
  6
CONTINUOUS
 10
2.816039
 20
0.351765
  0
VERTEX
  8
FOREGROUND
  6
CONTINUOUS
 10
2.829564
 20
0.364094
  0
VERTEX
  8
FOREGROUND
  6
CONTINUOUS
 10
2.842895
 20
0.376628
  0
VERTEX
  8
FOREGROUND
  6
CONTINUOUS
 10
2.856031
 20
0.389365
  0
VERTEX
  8
FOREGROUND
  6
CONTINUOUS
 10
2.868969
 20
0.402302
  0
VERTEX
  8
FOREGROUND
  6
CONTINUOUS
 10
2.881706
 20
0.415438
  0
VERTEX
  8
FOREGROUND
  6
CONTINUOUS
 10
2.894240
 20
0.428769
  0
VERTEX
  8
FOREGROUND
  6
CONTINUOUS
 10
2.906568
 20
0.442294
  0
VERTEX
  8
FOREGROUND
  6
CONTINUOUS
 10
2.918689
 20
0.456009
  0
VERTEX
  8
FOREGROUND
  6
CONTINUOUS
 10
2.930598
 20
0.469912
  0
VERTEX
  8
FOREGROUND
  6
CONTINUOUS
 10
2.942295
 20
0.484001
  0
VERTEX
  8
FOREGROUND
  6
CONTINUOUS
 10
2.953777
 20
0.498272
  0
VERTEX
  8
FOREGROUND
  6
CONTINUOUS
 10
2.965040
 20
0.512725
  0
VERTEX
  8
FOREGROUND
  6
CONTINUOUS
 10
2.976083
 20
0.527355
  0
VERTEX
  8
FOREGROUND
  6
CONTINUOUS
 10
2.986902
 20
0.542162
  0
VERTEX
  8
FOREGROUND
  6
CONTINUOUS
 10
2.997497
 20
0.557141
  0
VERTEX
  8
FOREGROUND
  6
CONTINUOUS
 10
3.007863
 20
0.572291
  0
VERTEX
  8
FOREGROUND
  6
CONTINUOUS
 10
3.017999
 20
0.587609
  0
VERTEX
  8
FOREGROUND
  6
CONTINUOUS
 10
3.027901
 20
0.603092
  0
VERTEX
  8
FOREGROUND
  6
CONTINUOUS
 10
3.037569
 20
0.618739
  0
VERTEX
  8
FOREGROUND
  6
CONTINUOUS
 10
3.046998
 20
0.634547
  0
VERTEX
  8
FOREGROUND
  6
CONTINUOUS
 10
3.056187
 20
0.650513
  0
VERTEX
  8
FOREGROUND
  6
CONTINUOUS
 10
3.065133
 20
0.666634
  0
VERTEX
  8
FOREGROUND
  6
CONTINUOUS
 10
3.073833
 20
0.682908
  0
VERTEX
  8
FOREGROUND
  6
CONTINUOUS
 10
3.082286
 20
0.699334
  0
VERTEX
  8
FOREGROUND
  6
CONTINUOUS
 10
3.090488
 20
0.715907
  0
VERTEX
  8
FOREGROUND
  6
CONTINUOUS
 10
3.098437
 20
0.732626
  0
VERTEX
  8
FOREGROUND
  6
CONTINUOUS
 10
3.106130
 20
0.749488
  0
VERTEX
  8
FOREGROUND
  6
CONTINUOUS
 10
3.113566
 20
0.766491
  0
VERTEX
  8
FOREGROUND
  6
CONTINUOUS
 10
3.120741
 20
0.783633
  0
VERTEX
  8
FOREGROUND
  6
CONTINUOUS
 10
3.127653
 20
0.800910
  0
VERTEX
  8
FOREGROUND
  6
CONTINUOUS
 10
3.134300
 20
0.818320
  0
VERTEX
  8
FOREGROUND
  6
CONTINUOUS
 10
3.140679
 20
0.835861
  0
VERTEX
  8
FOREGROUND
  6
CONTINUOUS
 10
3.146788
 20
0.853530
  0
VERTEX
  8
FOREGROUND
  6
CONTINUOUS
 10
3.152623
 20
0.871324
  0
VERTEX
  8
FOREGROUND
  6
CONTINUOUS
 10
3.158184
 20
0.889243
  0
VERTEX
  8
FOREGROUND
  6
CONTINUOUS
 10
3.163466
 20
0.907281
  0
VERTEX
  8
FOREGROUND
  6
CONTINUOUS
 10
3.168468
 20
0.925439
  0
VERTEX
  8
FOREGROUND
  6
CONTINUOUS
 10
3.173187
 20
0.943711
  0
VERTEX
  8
FOREGROUND
  6
CONTINUOUS
 10
3.177621
 20
0.962098
  0
VERTEX
  8
FOREGROUND
  6
CONTINUOUS
 10
3.181767
 20
0.980594
  0
VERTEX
  8
FOREGROUND
  6
CONTINUOUS
 10
3.185623
 20
0.999200
  0
VERTEX
  8
FOREGROUND
  6
CONTINUOUS
 10
3.189185
 20
1.017911
  0
VERTEX
  8
FOREGROUND
  6
CONTINUOUS
 10
3.192453
 20
1.036725
  0
VERTEX
  8
FOREGROUND
  6
CONTINUOUS
 10
3.195422
 20
1.055640
  0
VERTEX
  8
FOREGROUND
  6
CONTINUOUS
 10
3.198091
 20
1.074653
  0
VERTEX
  8
FOREGROUND
  6
CONTINUOUS
 10
3.200458
 20
1.093763
  0
VERTEX
  8
FOREGROUND
  6
CONTINUOUS
 10
3.202519
 20
1.112965
  0
VERTEX
  8
FOREGROUND
  6
CONTINUOUS
 10
3.204272
 20
1.132258
  0
VERTEX
  8
FOREGROUND
  6
CONTINUOUS
 10
3.205715
 20
1.151640
  0
VERTEX
  8
FOREGROUND
  6
CONTINUOUS
 10
3.206845
 20
1.171108
  0
VERTEX
  8
FOREGROUND
  6
CONTINUOUS
 10
3.207660
 20
1.190658
  0
VERTEX
  8
FOREGROUND
  6
CONTINUOUS
 10
3.208157
 20
1.210290
  0
VERTEX
  8
FOREGROUND
  6
CONTINUOUS
 10
3.208333
 20
1.230000
  0
VERTEX
  8
FOREGROUND
  6
CONTINUOUS
 10
3.208333
 20
1.230000
  0
VERTEX
  8
FOREGROUND
  6
CONTINUOUS
 10
3.208157
 20
1.249713
  0
VERTEX
  8
FOREGROUND
  6
CONTINUOUS
 10
3.207659
 20
1.269347
  0
VERTEX
  8
FOREGROUND
  6
CONTINUOUS
 10
3.206844
 20
1.288900
  0
VERTEX
  8
FOREGROUND
  6
CONTINUOUS
 10
3.205714
 20
1.308370
  0
VERTEX
  8
FOREGROUND
  6
CONTINUOUS
 10
3.204271
 20
1.327754
  0
VERTEX
  8
FOREGROUND
  6
CONTINUOUS
 10
3.202517
 20
1.347050
  0
VERTEX
  8
FOREGROUND
  6
CONTINUOUS
 10
3.200456
 20
1.366255
  0
VERTEX
  8
FOREGROUND
  6
CONTINUOUS
 10
3.198089
 20
1.385366
  0
VERTEX
  8
FOREGROUND
  6
CONTINUOUS
 10
3.195419
 20
1.404382
  0
VERTEX
  8
FOREGROUND
  6
CONTINUOUS
 10
3.192449
 20
1.423299
  0
VERTEX
  8
FOREGROUND
  6
CONTINUOUS
 10
3.189181
 20
1.442116
  0
VERTEX
  8
FOREGROUND
  6
CONTINUOUS
 10
3.185617
 20
1.460829
  0
VERTEX
  8
FOREGROUND
  6
CONTINUOUS
 10
3.181761
 20
1.479436
  0
VERTEX
  8
FOREGROUND
  6
CONTINUOUS
 10
3.177614
 20
1.497935
  0
VERTEX
  8
FOREGROUND
  6
CONTINUOUS
 10
3.173179
 20
1.516324
  0
VERTEX
  8
FOREGROUND
  6
CONTINUOUS
 10
3.168458
 20
1.534598
  0
VERTEX
  8
FOREGROUND
  6
CONTINUOUS
 10
3.163455
 20
1.552758
  0
VERTEX
  8
FOREGROUND
  6
CONTINUOUS
 10
3.158172
 20
1.570798
  0
VERTEX
  8
FOREGROUND
  6
CONTINUOUS
 10
3.152610
 20
1.588718
  0
VERTEX
  8
FOREGROUND
  6
CONTINUOUS
 10
3.146773
 20
1.606515
  0
VERTEX
  8
FOREGROUND
  6
CONTINUOUS
 10
3.140663
 20
1.624186
  0
VERTEX
  8
FOREGROUND
  6
CONTINUOUS
 10
3.134282
 20
1.641729
  0
VERTEX
  8
FOREGROUND
  6
CONTINUOUS
 10
3.127634
 20
1.659141
  0
VERTEX
  8
FOREGROUND
  6
CONTINUOUS
 10
3.120720
 20
1.676419
  0
VERTEX
  8
FOREGROUND
  6
CONTINUOUS
 10
3.113543
 20
1.693562
  0
VERTEX
  8
FOREGROUND
  6
CONTINUOUS
 10
3.106106
 20
1.710567
  0
VERTEX
  8
FOREGROUND
  6
CONTINUOUS
 10
3.098410
 20
1.727430
  0
VERTEX
  8
FOREGROUND
  6
CONTINUOUS
 10
3.090460
 20
1.744151
  0
VERTEX
  8
FOREGROUND
  6
CONTINUOUS
 10
3.082256
 20
1.760726
  0
VERTEX
  8
FOREGROUND
  6
CONTINUOUS
 10
3.073801
 20
1.777153
  0
VERTEX
  8
FOREGROUND
  6
CONTINUOUS
 10
3.065099
 20
1.793428
  0
VERTEX
  8
FOREGROUND
  6
CONTINUOUS
 10
3.056151
 20
1.809551
  0
VERTEX
  8
FOREGROUND
  6
CONTINUOUS
 10
3.046960
 20
1.825518
  0
VERTEX
  8
FOREGROUND
  6
CONTINUOUS
 10
3.037529
 20
1.841327
  0
VERTEX
  8
FOREGROUND
  6
CONTINUOUS
 10
3.027860
 20
1.856975
  0
VERTEX
  8
FOREGROUND
  6
CONTINUOUS
 10
3.017955
 20
1.872459
  0
VERTEX
  8
FOREGROUND
  6
CONTINUOUS
 10
3.007817
 20
1.887779
  0
VERTEX
  8
FOREGROUND
  6
CONTINUOUS
 10
2.997448
 20
1.902929
  0
VERTEX
  8
FOREGROUND
  6
CONTINUOUS
 10
2.986852
 20
1.917910
  0
VERTEX
  8
FOREGROUND
  6
CONTINUOUS
 10
2.976029
 20
1.932717
  0
VERTEX
  8
FOREGROUND
  6
CONTINUOUS
 10
2.964984
 20
1.947348
  0
VERTEX
  8
FOREGROUND
  6
CONTINUOUS
 10
2.953719
 20
1.961801
  0
VERTEX
  8
FOREGROUND
  6
CONTINUOUS
 10
2.942235
 20
1.976074
  0
VERTEX
  8
FOREGROUND
  6
CONTINUOUS
 10
2.930535
 20
1.990163
  0
VERTEX
  8
FOREGROUND
  6
CONTINUOUS
 10
2.918623
 20
2.004067
  0
VERTEX
  8
FOREGROUND
  6
CONTINUOUS
 10
2.906500
 20
2.017782
  0
VERTEX
  8
FOREGROUND
  6
CONTINUOUS
 10
2.894169
 20
2.031307
  0
VERTEX
  8
FOREGROUND
  6
CONTINUOUS
 10
2.881632
 20
2.044639
  0
VERTEX
  8
FOREGROUND
  6
CONTINUOUS
 10
2.868893
 20
2.057775
  0
VERTEX
  8
FOREGROUND
  6
CONTINUOUS
 10
2.855952
 20
2.070713
  0
VERTEX
  8
FOREGROUND
  6
CONTINUOUS
 10
2.842814
 20
2.083450
  0
VERTEX
  8
FOREGROUND
  6
CONTINUOUS
 10
2.829480
 20
2.095984
  0
VERTEX
  8
FOREGROUND
  6
CONTINUOUS
 10
2.815953
 20
2.108313
  0
VERTEX
  8
FOREGROUND
  6
CONTINUOUS
 10
2.802235
 20
2.120433
  0
VERTEX
  8
FOREGROUND
  6
CONTINUOUS
 10
2.788329
 20
2.132343
  0
VERTEX
  8
FOREGROUND
  6
CONTINUOUS
 10
2.774238
 20
2.144040
  0
VERTEX
  8
FOREGROUND
  6
CONTINUOUS
 10
2.759963
 20
2.155521
  0
VERTEX
  8
FOREGROUND
  6
CONTINUOUS
 10
2.745508
 20
2.166784
  0
VERTEX
  8
FOREGROUND
  6
CONTINUOUS
 10
2.730874
 20
2.177826
  0
VERTEX
  8
FOREGROUND
  6
CONTINUOUS
 10
2.716065
 20
2.188646
  0
VERTEX
  8
FOREGROUND
  6
CONTINUOUS
 10
2.701083
 20
2.199239
  0
VERTEX
  8
FOREGROUND
  6
CONTINUOUS
 10
2.685930
 20
2.209605
  0
VERTEX
  8
FOREGROUND
  6
CONTINUOUS
 10
2.670609
 20
2.219740
  0
VERTEX
  8
FOREGROUND
  6
CONTINUOUS
 10
2.655123
 20
2.229642
  0
VERTEX
  8
FOREGROUND
  6
CONTINUOUS
 10
2.639473
 20
2.239309
  0
VERTEX
  8
FOREGROUND
  6
CONTINUOUS
 10
2.623663
 20
2.248737
  0
VERTEX
  8
FOREGROUND
  6
CONTINUOUS
 10
2.607694
 20
2.257925
  0
VERTEX
  8
FOREGROUND
  6
CONTINUOUS
 10
2.591570
 20
2.266870
  0
VERTEX
  8
FOREGROUND
  6
CONTINUOUS
 10
2.575292
 20
2.275569
  0
VERTEX
  8
FOREGROUND
  6
CONTINUOUS
 10
2.558864
 20
2.284021
  0
VERTEX
  8
FOREGROUND
  6
CONTINUOUS
 10
2.542288
 20
2.292222
  0
VERTEX
  8
FOREGROUND
  6
CONTINUOUS
 10
2.525565
 20
2.300169
  0
VERTEX
  8
FOREGROUND
  6
CONTINUOUS
 10
2.508700
 20
2.307862
  0
VERTEX
  8
FOREGROUND
  6
CONTINUOUS
 10
2.491694
 20
2.315296
  0
VERTEX
  8
FOREGROUND
  6
CONTINUOUS
 10
2.474550
 20
2.322469
  0
VERTEX
  8
FOREGROUND
  6
CONTINUOUS
 10
2.457270
 20
2.329380
  0
VERTEX
  8
FOREGROUND
  6
CONTINUOUS
 10
2.439857
 20
2.336025
  0
VERTEX
  8
FOREGROUND
  6
CONTINUOUS
 10
2.422313
 20
2.342403
  0
VERTEX
  8
FOREGROUND
  6
CONTINUOUS
 10
2.404641
 20
2.348509
  0
VERTEX
  8
FOREGROUND
  6
CONTINUOUS
 10
2.386843
 20
2.354343
  0
VERTEX
  8
FOREGROUND
  6
CONTINUOUS
 10
2.368922
 20
2.359901
  0
VERTEX
  8
FOREGROUND
  6
CONTINUOUS
 10
2.350881
 20
2.365182
  0
VERTEX
  8
FOREGROUND
  6
CONTINUOUS
 10
2.332721
 20
2.370182
  0
VERTEX
  8
FOREGROUND
  6
CONTINUOUS
 10
2.314445
 20
2.374898
  0
VERTEX
  8
FOREGROUND
  6
CONTINUOUS
 10
2.296056
 20
2.379330
  0
VERTEX
  8
FOREGROUND
  6
CONTINUOUS
 10
2.277556
 20
2.383473
  0
VERTEX
  8
FOREGROUND
  6
CONTINUOUS
 10
2.258948
 20
2.387326
  0
VERTEX
  8
FOREGROUND
  6
CONTINUOUS
 10
2.240234
 20
2.390887
  0
VERTEX
  8
FOREGROUND
  6
CONTINUOUS
 10
2.221417
 20
2.394151
  0
VERTEX
  8
FOREGROUND
  6
CONTINUOUS
 10
2.202499
 20
2.397118
  0
VERTEX
  8
FOREGROUND
  6
CONTINUOUS
 10
2.183483
 20
2.399784
  0
VERTEX
  8
FOREGROUND
  6
CONTINUOUS
 10
2.164371
 20
2.402148
  0
VERTEX
  8
FOREGROUND
  6
CONTINUOUS
 10
2.145166
 20
2.404206
  0
VERTEX
  8
FOREGROUND
  6
CONTINUOUS
 10
2.125870
 20
2.405956
  0
VERTEX
  8
FOREGROUND
  6
CONTINUOUS
 10
2.106485
 20
2.407395
  0
VERTEX
  8
FOREGROUND
  6
CONTINUOUS
 10
2.087015
 20
2.408522
  0
VERTEX
  8
FOREGROUND
  6
CONTINUOUS
 10
2.067462
 20
2.409333
  0
VERTEX
  8
FOREGROUND
  6
CONTINUOUS
 10
2.047827
 20
2.409827
  0
VERTEX
  8
FOREGROUND
  6
CONTINUOUS
 10
2.028115
 20
2.410000
  0
VERTEX
  8
FOREGROUND
  6
CONTINUOUS
 10
1.229781
 20
2.410000
  0
VERTEX
  8
FOREGROUND
  6
CONTINUOUS
 10
1.210074
 20
2.409820
  0
VERTEX
  8
FOREGROUND
  6
CONTINUOUS
 10
1.190445
 20
2.409319
  0
VERTEX
  8
FOREGROUND
  6
CONTINUOUS
 10
1.170897
 20
2.408501
  0
VERTEX
  8
FOREGROUND
  6
CONTINUOUS
 10
1.151432
 20
2.407368
  0
VERTEX
  8
FOREGROUND
  6
CONTINUOUS
 10
1.132053
 20
2.405921
  0
VERTEX
  8
FOREGROUND
  6
CONTINUOUS
 10
1.112762
 20
2.404165
  0
VERTEX
  8
FOREGROUND
  6
CONTINUOUS
 10
1.093563
 20
2.402101
  0
VERTEX
  8
FOREGROUND
  6
CONTINUOUS
 10
1.074456
 20
2.399732
  0
VERTEX
  8
FOREGROUND
  6
CONTINUOUS
 10
1.055446
 20
2.397060
  0
VERTEX
  8
FOREGROUND
  6
CONTINUOUS
 10
1.036533
 20
2.394087
  0
VERTEX
  8
FOREGROUND
  6
CONTINUOUS
 10
1.017722
 20
2.390817
  0
VERTEX
  8
FOREGROUND
  6
CONTINUOUS
 10
0.999014
 20
2.387252
  0
VERTEX
  8
FOREGROUND
  6
CONTINUOUS
 10
0.980412
 20
2.383394
  0
VERTEX
  8
FOREGROUND
  6
CONTINUOUS
 10
0.961918
 20
2.379246
  0
VERTEX
  8
FOREGROUND
  6
CONTINUOUS
 10
0.943534
 20
2.374809
  0
VERTEX
  8
FOREGROUND
  6
CONTINUOUS
 10
0.925264
 20
2.370088
  0
VERTEX
  8
FOREGROUND
  6
CONTINUOUS
 10
0.907110
 20
2.365084
  0
VERTEX
  8
FOREGROUND
  6
CONTINUOUS
 10
0.889074
 20
2.359799
  0
VERTEX
  8
FOREGROUND
  6
CONTINUOUS
 10
0.871159
 20
2.354237
  0
VERTEX
  8
FOREGROUND
  6
CONTINUOUS
 10
0.853367
 20
2.348400
  0
VERTEX
  8
FOREGROUND
  6
CONTINUOUS
 10
0.835701
 20
2.342289
  0
VERTEX
  8
FOREGROUND
  6
CONTINUOUS
 10
0.818163
 20
2.335908
  0
VERTEX
  8
FOREGROUND
  6
CONTINUOUS
 10
0.800756
 20
2.329260
  0
VERTEX
  8
FOREGROUND
  6
CONTINUOUS
 10
0.783482
 20
2.322346
  0
VERTEX
  8
FOREGROUND
  6
CONTINUOUS
 10
0.766344
 20
2.315169
  0
VERTEX
  8
FOREGROUND
  6
CONTINUOUS
 10
0.749344
 20
2.307732
  0
VERTEX
  8
FOREGROUND
  6
CONTINUOUS
 10
0.732484
 20
2.300037
  0
VERTEX
  8
FOREGROUND
  6
CONTINUOUS
 10
0.715768
 20
2.292087
  0
VERTEX
  8
FOREGROUND
  6
CONTINUOUS
 10
0.699198
 20
2.283884
  0
VERTEX
  8
FOREGROUND
  6
CONTINUOUS
 10
0.682776
 20
2.275430
  0
VERTEX
  8
FOREGROUND
  6
CONTINUOUS
 10
0.666504
 20
2.266729
  0
VERTEX
  8
FOREGROUND
  6
CONTINUOUS
 10
0.650386
 20
2.257782
  0
VERTEX
  8
FOREGROUND
  6
CONTINUOUS
 10
0.634423
 20
2.248592
  0
VERTEX
  8
FOREGROUND
  6
CONTINUOUS
 10
0.618618
 20
2.239162
  0
VERTEX
  8
FOREGROUND
  6
CONTINUOUS
 10
0.602974
 20
2.229494
  0
VERTEX
  8
FOREGROUND
  6
CONTINUOUS
 10
0.587494
 20
2.219591
  0
VERTEX
  8
FOREGROUND
  6
CONTINUOUS
 10
0.572178
 20
2.209454
  0
VERTEX
  8
FOREGROUND
  6
CONTINUOUS
 10
0.557031
 20
2.199087
  0
VERTEX
  8
FOREGROUND
  6
CONTINUOUS
 10
0.542055
 20
2.188493
  0
VERTEX
  8
FOREGROUND
  6
CONTINUOUS
 10
0.527252
 20
2.177673
  0
VERTEX
  8
FOREGROUND
  6
CONTINUOUS
 10
0.512624
 20
2.166629
  0
VERTEX
  8
FOREGROUND
  6
CONTINUOUS
 10
0.498174
 20
2.155366
  0
VERTEX
  8
FOREGROUND
  6
CONTINUOUS
 10
0.483906
 20
2.143884
  0
VERTEX
  8
FOREGROUND
  6
CONTINUOUS
 10
0.469820
 20
2.132187
  0
VERTEX
  8
FOREGROUND
  6
CONTINUOUS
 10
0.455919
 20
2.120277
  0
VERTEX
  8
FOREGROUND
  6
CONTINUOUS
 10
0.442207
 20
2.108157
  0
VERTEX
  8
FOREGROUND
  6
CONTINUOUS
 10
0.428685
 20
2.095829
  0
VERTEX
  8
FOREGROUND
  6
CONTINUOUS
 10
0.415357
 20
2.083295
  0
VERTEX
  8
FOREGROUND
  6
CONTINUOUS
 10
0.402224
 20
2.070558
  0
VERTEX
  8
FOREGROUND
  6
CONTINUOUS
 10
0.389289
 20
2.057620
  0
VERTEX
  8
FOREGROUND
  6
CONTINUOUS
 10
0.376554
 20
2.044485
  0
VERTEX
  8
FOREGROUND
  6
CONTINUOUS
 10
0.364023
 20
2.031154
  0
VERTEX
  8
FOREGROUND
  6
CONTINUOUS
 10
0.351697
 20
2.017630
  0
VERTEX
  8
FOREGROUND
  6
CONTINUOUS
 10
0.339579
 20
2.003916
  0
VERTEX
  8
FOREGROUND
  6
CONTINUOUS
 10
0.327672
 20
1.990013
  0
VERTEX
  8
FOREGROUND
  6
CONTINUOUS
 10
0.315977
 20
1.975925
  0
VERTEX
  8
FOREGROUND
  6
CONTINUOUS
 10
0.304499
 20
1.961654
  0
VERTEX
  8
FOREGROUND
  6
CONTINUOUS
 10
0.293238
 20
1.947202
  0
VERTEX
  8
FOREGROUND
  6
CONTINUOUS
 10
0.282197
 20
1.932573
  0
VERTEX
  8
FOREGROUND
  6
CONTINUOUS
 10
0.271380
 20
1.917767
  0
VERTEX
  8
FOREGROUND
  6
CONTINUOUS
 10
0.260788
 20
1.902789
  0
VERTEX
  8
FOREGROUND
  6
CONTINUOUS
 10
0.250424
 20
1.887640
  0
VERTEX
  8
FOREGROUND
  6
CONTINUOUS
 10
0.240290
 20
1.872323
  0
VERTEX
  8
FOREGROUND
  6
CONTINUOUS
 10
0.230390
 20
1.856840
  0
VERTEX
  8
FOREGROUND
  6
CONTINUOUS
 10
0.220725
 20
1.841195
  0
VERTEX
  8
FOREGROUND
  6
CONTINUOUS
 10
0.211298
 20
1.825388
  0
VERTEX
  8
FOREGROUND
  6
CONTINUOUS
 10
0.202111
 20
1.809424
  0
VERTEX
  8
FOREGROUND
  6
CONTINUOUS
 10
0.193167
 20
1.793304
  0
VERTEX
  8
FOREGROUND
  6
CONTINUOUS
 10
0.184469
 20
1.777031
  0
VERTEX
  8
FOREGROUND
  6
CONTINUOUS
 10
0.176018
 20
1.760607
  0
VERTEX
  8
FOREGROUND
  6
CONTINUOUS
 10
0.167818
 20
1.744035
  0
VERTEX
  8
FOREGROUND
  6
CONTINUOUS
 10
0.159871
 20
1.727317
  0
VERTEX
  8
FOREGROUND
  6
CONTINUOUS
 10
0.152179
 20
1.710457
  0
VERTEX
  8
FOREGROUND
  6
CONTINUOUS
 10
0.144745
 20
1.693455
  0
VERTEX
  8
FOREGROUND
  6
CONTINUOUS
 10
0.137571
 20
1.676316
  0
VERTEX
  8
FOREGROUND
  6
CONTINUOUS
 10
0.130661
 20
1.659040
  0
VERTEX
  8
FOREGROUND
  6
CONTINUOUS
 10
0.124015
 20
1.641632
  0
VERTEX
  8
FOREGROUND
  6
CONTINUOUS
 10
0.117638
 20
1.624093
  0
VERTEX
  8
FOREGROUND
  6
CONTINUOUS
 10
0.111531
 20
1.606426
  0
VERTEX
  8
FOREGROUND
  6
CONTINUOUS
 10
0.105696
 20
1.588633
  0
VERTEX
  8
FOREGROUND
  6
CONTINUOUS
 10
0.100137
 20
1.570716
  0
VERTEX
  8
FOREGROUND
  6
CONTINUOUS
 10
0.094856
 20
1.552680
  0
VERTEX
  8
FOREGROUND
  6
CONTINUOUS
 10
0.089855
 20
1.534524
  0
VERTEX
  8
FOREGROUND
  6
CONTINUOUS
 10
0.085137
 20
1.516254
  0
VERTEX
  8
FOREGROUND
  6
CONTINUOUS
 10
0.080705
 20
1.497870
  0
VERTEX
  8
FOREGROUND
  6
CONTINUOUS
 10
0.076560
 20
1.479375
  0
VERTEX
  8
FOREGROUND
  6
CONTINUOUS
 10
0.072705
 20
1.460772
  0
VERTEX
  8
FOREGROUND
  6
CONTINUOUS
 10
0.069143
 20
1.442063
  0
VERTEX
  8
FOREGROUND
  6
CONTINUOUS
 10
0.065877
 20
1.423251
  0
VERTEX
  8
FOREGROUND
  6
CONTINUOUS
 10
0.062908
 20
1.404338
  0
VERTEX
  8
FOREGROUND
  6
CONTINUOUS
 10
0.060240
 20
1.385327
  0
VERTEX
  8
FOREGROUND
  6
CONTINUOUS
 10
0.057874
 20
1.366220
  0
VERTEX
  8
FOREGROUND
  6
CONTINUOUS
 10
0.055813
 20
1.347020
  0
VERTEX
  8
FOREGROUND
  6
CONTINUOUS
 10
0.054060
 20
1.327729
  0
VERTEX
  8
FOREGROUND
  6
CONTINUOUS
 10
0.052618
 20
1.308350
  0
VERTEX
  8
FOREGROUND
  6
CONTINUOUS
 10
0.051488
 20
1.288885
  0
VERTEX
  8
FOREGROUND
  6
CONTINUOUS
 10
0.050674
 20
1.269337
  0
VERTEX
  8
FOREGROUND
  6
CONTINUOUS
 10
0.050177
 20
1.249707
  0
VERTEX
  8
FOREGROUND
  6
CONTINUOUS
 10
0.050000
 20
1.230000
  0
VERTEX
  8
FOREGROUND
  6
CONTINUOUS
 10
0.050000
 20
1.230000
  0
VERTEX
  8
FOREGROUND
  6
CONTINUOUS
 10
0.050177
 20
1.210290
  0
VERTEX
  8
FOREGROUND
  6
CONTINUOUS
 10
0.050674
 20
1.190658
  0
VERTEX
  8
FOREGROUND
  6
CONTINUOUS
 10
0.051488
 20
1.171108
  0
VERTEX
  8
FOREGROUND
  6
CONTINUOUS
 10
0.052619
 20
1.151640
  0
VERTEX
  8
FOREGROUND
  6
CONTINUOUS
 10
0.054061
 20
1.132258
  0
VERTEX
  8
FOREGROUND
  6
CONTINUOUS
 10
0.055815
 20
1.112965
  0
VERTEX
  8
FOREGROUND
  6
CONTINUOUS
 10
0.057876
 20
1.093763
  0
VERTEX
  8
FOREGROUND
  6
CONTINUOUS
 10
0.060242
 20
1.074653
  0
VERTEX
  8
FOREGROUND
  6
CONTINUOUS
 10
0.062911
 20
1.055640
  0
VERTEX
  8
FOREGROUND
  6
CONTINUOUS
 10
0.065881
 20
1.036725
  0
VERTEX
  8
FOREGROUND
  6
CONTINUOUS
 10
0.069148
 20
1.017911
  0
VERTEX
  8
FOREGROUND
  6
CONTINUOUS
 10
0.072711
 20
0.999200
  0
VERTEX
  8
FOREGROUND
  6
CONTINUOUS
 10
0.076566
 20
0.980594
  0
VERTEX
  8
FOREGROUND
  6
CONTINUOUS
 10
0.080712
 20
0.962098
  0
VERTEX
  8
FOREGROUND
  6
CONTINUOUS
 10
0.085146
 20
0.943711
  0
VERTEX
  8
FOREGROUND
  6
CONTINUOUS
 10
0.089865
 20
0.925439
  0
VERTEX
  8
FOREGROUND
  6
CONTINUOUS
 10
0.094867
 20
0.907281
  0
VERTEX
  8
FOREGROUND
  6
CONTINUOUS
 10
0.100150
 20
0.889243
  0
VERTEX
  8
FOREGROUND
  6
CONTINUOUS
 10
0.105710
 20
0.871324
  0
VERTEX
  8
FOREGROUND
  6
CONTINUOUS
 10
0.111546
 20
0.853530
  0
VERTEX
  8
FOREGROUND
  6
CONTINUOUS
 10
0.117654
 20
0.835861
  0
VERTEX
  8
FOREGROUND
  6
CONTINUOUS
 10
0.124033
 20
0.818320
  0
VERTEX
  8
FOREGROUND
  6
CONTINUOUS
 10
0.130680
 20
0.800910
  0
VERTEX
  8
FOREGROUND
  6
CONTINUOUS
 10
0.137592
 20
0.783633
  0
VERTEX
  8
FOREGROUND
  6
CONTINUOUS
 10
0.144768
 20
0.766491
  0
VERTEX
  8
FOREGROUND
  6
CONTINUOUS
 10
0.152203
 20
0.749488
  0
VERTEX
  8
FOREGROUND
  6
CONTINUOUS
 10
0.159897
 20
0.732626
  0
VERTEX
  8
FOREGROUND
  6
CONTINUOUS
 10
0.167846
 20
0.715907
  0
VERTEX
  8
FOREGROUND
  6
CONTINUOUS
 10
0.176048
 20
0.699334
  0
VERTEX
  8
FOREGROUND
  6
CONTINUOUS
 10
0.184500
 20
0.682908
  0
VERTEX
  8
FOREGROUND
  6
CONTINUOUS
 10
0.193201
 20
0.666634
  0
VERTEX
  8
FOREGROUND
  6
CONTINUOUS
 10
0.202146
 20
0.650513
  0
VERTEX
  8
FOREGROUND
  6
CONTINUOUS
 10
0.211335
 20
0.634547
  0
VERTEX
  8
FOREGROUND
  6
CONTINUOUS
 10
0.220765
 20
0.618739
  0
VERTEX
  8
FOREGROUND
  6
CONTINUOUS
 10
0.230432
 20
0.603092
  0
VERTEX
  8
FOREGROUND
  6
CONTINUOUS
 10
0.240335
 20
0.587609
  0
VERTEX
  8
FOREGROUND
  6
CONTINUOUS
 10
0.250470
 20
0.572291
  0
VERTEX
  8
FOREGROUND
  6
CONTINUOUS
 10
0.260837
 20
0.557141
  0
VERTEX
  8
FOREGROUND
  6
CONTINUOUS
 10
0.271431
 20
0.542162
  0
VERTEX
  8
FOREGROUND
  6
CONTINUOUS
 10
0.282251
 20
0.527355
  0
VERTEX
  8
FOREGROUND
  6
CONTINUOUS
 10
0.293293
 20
0.512725
  0
VERTEX
  8
FOREGROUND
  6
CONTINUOUS
 10
0.304557
 20
0.498272
  0
VERTEX
  8
FOREGROUND
  6
CONTINUOUS
 10
0.316038
 20
0.484001
  0
VERTEX
  8
FOREGROUND
  6
CONTINUOUS
 10
0.327735
 20
0.469912
  0
VERTEX
  8
FOREGROUND
  6
CONTINUOUS
 10
0.339645
 20
0.456009
  0
VERTEX
  8
FOREGROUND
  6
CONTINUOUS
 10
0.351765
 20
0.442294
  0
VERTEX
  8
FOREGROUND
  6
CONTINUOUS
 10
0.364094
 20
0.428769
  0
VERTEX
  8
FOREGROUND
  6
CONTINUOUS
 10
0.376628
 20
0.415438
  0
VERTEX
  8
FOREGROUND
  6
CONTINUOUS
 10
0.389365
 20
0.402302
  0
VERTEX
  8
FOREGROUND
  6
CONTINUOUS
 10
0.402302
 20
0.389365
  0
VERTEX
  8
FOREGROUND
  6
CONTINUOUS
 10
0.415438
 20
0.376628
  0
VERTEX
  8
FOREGROUND
  6
CONTINUOUS
 10
0.428769
 20
0.364094
  0
VERTEX
  8
FOREGROUND
  6
CONTINUOUS
 10
0.442294
 20
0.351765
  0
VERTEX
  8
FOREGROUND
  6
CONTINUOUS
 10
0.456009
 20
0.339645
  0
VERTEX
  8
FOREGROUND
  6
CONTINUOUS
 10
0.469912
 20
0.327735
  0
VERTEX
  8
FOREGROUND
  6
CONTINUOUS
 10
0.484001
 20
0.316038
  0
VERTEX
  8
FOREGROUND
  6
CONTINUOUS
 10
0.498272
 20
0.304557
  0
VERTEX
  8
FOREGROUND
  6
CONTINUOUS
 10
0.512725
 20
0.293293
  0
VERTEX
  8
FOREGROUND
  6
CONTINUOUS
 10
0.527355
 20
0.282251
  0
VERTEX
  8
FOREGROUND
  6
CONTINUOUS
 10
0.542162
 20
0.271431
  0
VERTEX
  8
FOREGROUND
  6
CONTINUOUS
 10
0.557141
 20
0.260837
  0
VERTEX
  8
FOREGROUND
  6
CONTINUOUS
 10
0.572291
 20
0.250470
  0
VERTEX
  8
FOREGROUND
  6
CONTINUOUS
 10
0.587609
 20
0.240335
  0
VERTEX
  8
FOREGROUND
  6
CONTINUOUS
 10
0.603092
 20
0.230432
  0
VERTEX
  8
FOREGROUND
  6
CONTINUOUS
 10
0.618739
 20
0.220765
  0
VERTEX
  8
FOREGROUND
  6
CONTINUOUS
 10
0.634547
 20
0.211335
  0
VERTEX
  8
FOREGROUND
  6
CONTINUOUS
 10
0.650513
 20
0.202146
  0
VERTEX
  8
FOREGROUND
  6
CONTINUOUS
 10
0.666634
 20
0.193201
  0
VERTEX
  8
FOREGROUND
  6
CONTINUOUS
 10
0.682908
 20
0.184500
  0
VERTEX
  8
FOREGROUND
  6
CONTINUOUS
 10
0.699334
 20
0.176048
  0
VERTEX
  8
FOREGROUND
  6
CONTINUOUS
 10
0.715907
 20
0.167846
  0
VERTEX
  8
FOREGROUND
  6
CONTINUOUS
 10
0.732626
 20
0.159897
  0
VERTEX
  8
FOREGROUND
  6
CONTINUOUS
 10
0.749488
 20
0.152203
  0
VERTEX
  8
FOREGROUND
  6
CONTINUOUS
 10
0.766491
 20
0.144768
  0
VERTEX
  8
FOREGROUND
  6
CONTINUOUS
 10
0.783633
 20
0.137592
  0
VERTEX
  8
FOREGROUND
  6
CONTINUOUS
 10
0.800910
 20
0.130680
  0
VERTEX
  8
FOREGROUND
  6
CONTINUOUS
 10
0.818320
 20
0.124033
  0
VERTEX
  8
FOREGROUND
  6
CONTINUOUS
 10
0.835861
 20
0.117654
  0
VERTEX
  8
FOREGROUND
  6
CONTINUOUS
 10
0.853530
 20
0.111546
  0
VERTEX
  8
FOREGROUND
  6
CONTINUOUS
 10
0.871324
 20
0.105710
  0
VERTEX
  8
FOREGROUND
  6
CONTINUOUS
 10
0.889243
 20
0.100150
  0
VERTEX
  8
FOREGROUND
  6
CONTINUOUS
 10
0.907281
 20
0.094867
  0
VERTEX
  8
FOREGROUND
  6
CONTINUOUS
 10
0.925439
 20
0.089865
  0
VERTEX
  8
FOREGROUND
  6
CONTINUOUS
 10
0.943711
 20
0.085146
  0
VERTEX
  8
FOREGROUND
  6
CONTINUOUS
 10
0.962098
 20
0.080712
  0
VERTEX
  8
FOREGROUND
  6
CONTINUOUS
 10
0.980594
 20
0.076566
  0
VERTEX
  8
FOREGROUND
  6
CONTINUOUS
 10
0.999200
 20
0.072711
  0
VERTEX
  8
FOREGROUND
  6
CONTINUOUS
 10
1.017911
 20
0.069148
  0
VERTEX
  8
FOREGROUND
  6
CONTINUOUS
 10
1.036725
 20
0.065881
  0
VERTEX
  8
FOREGROUND
  6
CONTINUOUS
 10
1.055640
 20
0.062911
  0
VERTEX
  8
FOREGROUND
  6
CONTINUOUS
 10
1.074653
 20
0.060242
  0
VERTEX
  8
FOREGROUND
  6
CONTINUOUS
 10
1.093763
 20
0.057876
  0
VERTEX
  8
FOREGROUND
  6
CONTINUOUS
 10
1.112965
 20
0.055815
  0
VERTEX
  8
FOREGROUND
  6
CONTINUOUS
 10
1.132258
 20
0.054061
  0
VERTEX
  8
FOREGROUND
  6
CONTINUOUS
 10
1.151640
 20
0.052619
  0
VERTEX
  8
FOREGROUND
  6
CONTINUOUS
 10
1.171108
 20
0.051488
  0
VERTEX
  8
FOREGROUND
  6
CONTINUOUS
 10
1.190658
 20
0.050674
  0
VERTEX
  8
FOREGROUND
  6
CONTINUOUS
 10
1.210290
 20
0.050177
  0
VERTEX
  8
FOREGROUND
  6
CONTINUOUS
 10
1.230000
 20
0.050000
  0
SEQEND
  8
0
  0
ENDSEC
  0
EOF
