  0
SECTION
  2
HEADER
  9
$ACADVER
  1
AC1006
  9
$EXTMIN
 10
0.000000
 20
0.000000
  9
$EXTMAX
 10
4.038333
 20
2.068333
  9
$LTSCALE
 40
0.166667
  9
$PDMODE
 70
    35
  9
$PDSIZE
 40
0.133333
  0
ENDSEC
  0
SECTION
  2
TABLES
  0
TABLE
  2
LTYPE
 70
     9
  0
LTYPE
  2
CONTINUOUS
 70
    64
  3
Solid line
 72
    65
 73
     0
 40
0.000000
  0
LTYPE
  2
DASHED
 70
    64
  3
__ __ __ __ __ __ __ __ __ __ __ __ __ __ __
 72
    65
 73
     2
 40
0.001250
 49
0.000833
 49
-0.000417
  0
LTYPE
  2
HIDDEN
 70
    64
  3
 _ _ _ _ _ _ _ _ _ _ _ _ _ _ _ _ _ _ _ _ _ _
 72
    65
 73
     2
 40
0.000625
 49
0.000417
 49
-0.000208
  0
LTYPE
  2
CENTER
 70
    64
  3
____ _ ____ _ ____ _ ____ _ ____ _ ____ _ ____
 72
    65
 73
     4
 40
0.003333
 49
0.002083
 49
-0.000417
 49
0.000417
 49
-0.000417
  0
LTYPE
  2
PHANTOM
 70
    64
  3
_____ _ _ _____ _ _ _____ _ _ _____ _ _ ____
 72
    65
 73
     6
 40
0.004167
 49
0.002083
 49
-0.000417
 49
0.000417
 49
-0.000417
 49
0.000417
 49
-0.000417
  0
LTYPE
  2
DOT
 70
    64
  3
...............................................
 72
    65
 73
     2
 40
0.000417
 49
0.000000
 49
-0.000417
  0
LTYPE
  2
DASHDOT
 70
    64
  3
__ . __ . __ . __ . __ . __ . __ . __ . __ . __
 72
    65
 73
     4
 40
0.001667
 49
0.000833
 49
-0.000417
 49
0.000000
 49
-0.000417
  0
LTYPE
  2
BORDER
 70
    64
  3
__ __ . __ __ . __ __ . __ __ . __ __ . __ __
 72
    65
 73
     6
 40
0.002917
 49
0.000833
 49
-0.000417
 49
0.000833
 49
-0.000417
 49
0.000000
 49
-0.000417
  0
LTYPE
  2
DIVIDE
 70
    64
  3
__ . . __ . . __ . . __ . . __ . . __ . . __
 72
    65
 73
     6
 40
0.002083
 49
0.000833
 49
-0.000417
 49
0.000000
 49
-0.000417
 49
0.000000
 49
-0.000417
  0
LTYPE
  2
DOTDOT
 70
    64
  3
 . .  . .  . .  . .  . .  . . 
 72
    65
 73
     5
 40
0.000917
 49
-0.000417
 49
0.000000
 49
-0.000417
 49
0.000000
 49
-0.000417
  0
ENDTAB
  0
TABLE
  2
STYLE
 70
     2
  0
STYLE
 70
     0
  2
SN0
 40
0.000000
 41
0.001667
 50
0.000000
 71
     0
 42
0.000000
  3
ROMAND
  0
STYLE
 70
    68
  2
SV0
 40
0.000000
 41
0.001667
 50
0.000000
 71
     0
 42
0.000000
  3
ROMAND
  0
ENDTAB
  0
TABLE
  2
LAYER
 70
     2
  0
LAYER
  2
FOREGROUND
 70
    64
 62
     7
  6
CONTINUOUS
  0
LAYER
  2
BACKGROUND
 70
    65
 62
    -7
  6
CONTINUOUS
  0
ENDTAB
  0
ENDSEC
  0
SECTION
  2
ENTITIES
  0
POLYLINE
  8
FOREGROUND
  6
CONTINUOUS
 66
     1
 40
0.010000
 41
0.010000
 70
     1
  0
VERTEX
  8
FOREGROUND
  6
CONTINUOUS
 10
3.986664
 20
1.035000
  0
VERTEX
  8
FOREGROUND
  6
CONTINUOUS
 10
3.986536
 20
1.048657
  0
VERTEX
  8
FOREGROUND
  6
CONTINUOUS
 10
3.986123
 20
1.062218
  0
VERTEX
  8
FOREGROUND
  6
CONTINUOUS
 10
3.985428
 20
1.075683
  0
VERTEX
  8
FOREGROUND
  6
CONTINUOUS
 10
3.984452
 20
1.089054
  0
VERTEX
  8
FOREGROUND
  6
CONTINUOUS
 10
3.983198
 20
1.102328
  0
VERTEX
  8
FOREGROUND
  6
CONTINUOUS
 10
3.981667
 20
1.115507
  0
VERTEX
  8
FOREGROUND
  6
CONTINUOUS
 10
3.979862
 20
1.128591
  0
VERTEX
  8
FOREGROUND
  6
CONTINUOUS
 10
3.977784
 20
1.141579
  0
VERTEX
  8
FOREGROUND
  6
CONTINUOUS
 10
3.975435
 20
1.154472
  0
VERTEX
  8
FOREGROUND
  6
CONTINUOUS
 10
3.972818
 20
1.167269
  0
VERTEX
  8
FOREGROUND
  6
CONTINUOUS
 10
3.969934
 20
1.179971
  0
VERTEX
  8
FOREGROUND
  6
CONTINUOUS
 10
3.966786
 20
1.192577
  0
VERTEX
  8
FOREGROUND
  6
CONTINUOUS
 10
3.963374
 20
1.205088
  0
VERTEX
  8
FOREGROUND
  6
CONTINUOUS
 10
3.959703
 20
1.217503
  0
VERTEX
  8
FOREGROUND
  6
CONTINUOUS
 10
3.955773
 20
1.229822
  0
VERTEX
  8
FOREGROUND
  6
CONTINUOUS
 10
3.951586
 20
1.242047
  0
VERTEX
  8
FOREGROUND
  6
CONTINUOUS
 10
3.947144
 20
1.254175
  0
VERTEX
  8
FOREGROUND
  6
CONTINUOUS
 10
3.942450
 20
1.266209
  0
VERTEX
  8
FOREGROUND
  6
CONTINUOUS
 10
3.937506
 20
1.278146
  0
VERTEX
  8
FOREGROUND
  6
CONTINUOUS
 10
3.932312
 20
1.289989
  0
VERTEX
  8
FOREGROUND
  6
CONTINUOUS
 10
3.926872
 20
1.301735
  0
VERTEX
  8
FOREGROUND
  6
CONTINUOUS
 10
3.921188
 20
1.313386
  0
VERTEX
  8
FOREGROUND
  6
CONTINUOUS
 10
3.915260
 20
1.324942
  0
VERTEX
  8
FOREGROUND
  6
CONTINUOUS
 10
3.909092
 20
1.336402
  0
VERTEX
  8
FOREGROUND
  6
CONTINUOUS
 10
3.902686
 20
1.347767
  0
VERTEX
  8
FOREGROUND
  6
CONTINUOUS
 10
3.896042
 20
1.359036
  0
VERTEX
  8
FOREGROUND
  6
CONTINUOUS
 10
3.889165
 20
1.370210
  0
VERTEX
  8
FOREGROUND
  6
CONTINUOUS
 10
3.882054
 20
1.381288
  0
VERTEX
  8
FOREGROUND
  6
CONTINUOUS
 10
3.874713
 20
1.392271
  0
VERTEX
  8
FOREGROUND
  6
CONTINUOUS
 10
3.867143
 20
1.403159
  0
VERTEX
  8
FOREGROUND
  6
CONTINUOUS
 10
3.859346
 20
1.413950
  0
VERTEX
  8
FOREGROUND
  6
CONTINUOUS
 10
3.851325
 20
1.424647
  0
VERTEX
  8
FOREGROUND
  6
CONTINUOUS
 10
3.843081
 20
1.435247
  0
VERTEX
  8
FOREGROUND
  6
CONTINUOUS
 10
3.834616
 20
1.445753
  0
VERTEX
  8
FOREGROUND
  6
CONTINUOUS
 10
3.825932
 20
1.456162
  0
VERTEX
  8
FOREGROUND
  6
CONTINUOUS
 10
3.817032
 20
1.466477
  0
VERTEX
  8
FOREGROUND
  6
CONTINUOUS
 10
3.807917
 20
1.476696
  0
VERTEX
  8
FOREGROUND
  6
CONTINUOUS
 10
3.798590
 20
1.486819
  0
VERTEX
  8
FOREGROUND
  6
CONTINUOUS
 10
3.789051
 20
1.496847
  0
VERTEX
  8
FOREGROUND
  6
CONTINUOUS
 10
3.779304
 20
1.506779
  0
VERTEX
  8
FOREGROUND
  6
CONTINUOUS
 10
3.769350
 20
1.516616
  0
VERTEX
  8
FOREGROUND
  6
CONTINUOUS
 10
3.759192
 20
1.526357
  0
VERTEX
  8
FOREGROUND
  6
CONTINUOUS
 10
3.748830
 20
1.536003
  0
VERTEX
  8
FOREGROUND
  6
CONTINUOUS
 10
3.738268
 20
1.545553
  0
VERTEX
  8
FOREGROUND
  6
CONTINUOUS
 10
3.727507
 20
1.555008
  0
VERTEX
  8
FOREGROUND
  6
CONTINUOUS
 10
3.716550
 20
1.564367
  0
VERTEX
  8
FOREGROUND
  6
CONTINUOUS
 10
3.705397
 20
1.573631
  0
VERTEX
  8
FOREGROUND
  6
CONTINUOUS
 10
3.694052
 20
1.582800
  0
VERTEX
  8
FOREGROUND
  6
CONTINUOUS
 10
3.682516
 20
1.591872
  0
VERTEX
  8
FOREGROUND
  6
CONTINUOUS
 10
3.670791
 20
1.600850
  0
VERTEX
  8
FOREGROUND
  6
CONTINUOUS
 10
3.658880
 20
1.609732
  0
VERTEX
  8
FOREGROUND
  6
CONTINUOUS
 10
3.646784
 20
1.618518
  0
VERTEX
  8
FOREGROUND
  6
CONTINUOUS
 10
3.634504
 20
1.627209
  0
VERTEX
  8
FOREGROUND
  6
CONTINUOUS
 10
3.622044
 20
1.635804
  0
VERTEX
  8
FOREGROUND
  6
CONTINUOUS
 10
3.609406
 20
1.644304
  0
VERTEX
  8
FOREGROUND
  6
CONTINUOUS
 10
3.596590
 20
1.652709
  0
VERTEX
  8
FOREGROUND
  6
CONTINUOUS
 10
3.583600
 20
1.661017
  0
VERTEX
  8
FOREGROUND
  6
CONTINUOUS
 10
3.570437
 20
1.669231
  0
VERTEX
  8
FOREGROUND
  6
CONTINUOUS
 10
3.557102
 20
1.677349
  0
VERTEX
  8
FOREGROUND
  6
CONTINUOUS
 10
3.543600
 20
1.685371
  0
VERTEX
  8
FOREGROUND
  6
CONTINUOUS
 10
3.529930
 20
1.693298
  0
VERTEX
  8
FOREGROUND
  6
CONTINUOUS
 10
3.516095
 20
1.701129
  0
VERTEX
  8
FOREGROUND
  6
CONTINUOUS
 10
3.502098
 20
1.708865
  0
VERTEX
  8
FOREGROUND
  6
CONTINUOUS
 10
3.487940
 20
1.716506
  0
VERTEX
  8
FOREGROUND
  6
CONTINUOUS
 10
3.473622
 20
1.724050
  0
VERTEX
  8
FOREGROUND
  6
CONTINUOUS
 10
3.459148
 20
1.731500
  0
VERTEX
  8
FOREGROUND
  6
CONTINUOUS
 10
3.444519
 20
1.738854
  0
VERTEX
  8
FOREGROUND
  6
CONTINUOUS
 10
3.429738
 20
1.746112
  0
VERTEX
  8
FOREGROUND
  6
CONTINUOUS
 10
3.414805
 20
1.753275
  0
VERTEX
  8
FOREGROUND
  6
CONTINUOUS
 10
3.399724
 20
1.760343
  0
VERTEX
  8
FOREGROUND
  6
CONTINUOUS
 10
3.384495
 20
1.767314
  0
VERTEX
  8
FOREGROUND
  6
CONTINUOUS
 10
3.369122
 20
1.774191
  0
VERTEX
  8
FOREGROUND
  6
CONTINUOUS
 10
3.353606
 20
1.780972
  0
VERTEX
  8
FOREGROUND
  6
CONTINUOUS
 10
3.337948
 20
1.787657
  0
VERTEX
  8
FOREGROUND
  6
CONTINUOUS
 10
3.322152
 20
1.794247
  0
VERTEX
  8
FOREGROUND
  6
CONTINUOUS
 10
3.306219
 20
1.800742
  0
VERTEX
  8
FOREGROUND
  6
CONTINUOUS
 10
3.290151
 20
1.807140
  0
VERTEX
  8
FOREGROUND
  6
CONTINUOUS
 10
3.273951
 20
1.813444
  0
VERTEX
  8
FOREGROUND
  6
CONTINUOUS
 10
3.257619
 20
1.819652
  0
VERTEX
  8
FOREGROUND
  6
CONTINUOUS
 10
3.241158
 20
1.825764
  0
VERTEX
  8
FOREGROUND
  6
CONTINUOUS
 10
3.224571
 20
1.831781
  0
VERTEX
  8
FOREGROUND
  6
CONTINUOUS
 10
3.207858
 20
1.837703
  0
VERTEX
  8
FOREGROUND
  6
CONTINUOUS
 10
3.191022
 20
1.843529
  0
VERTEX
  8
FOREGROUND
  6
CONTINUOUS
 10
3.174066
 20
1.849259
  0
VERTEX
  8
FOREGROUND
  6
CONTINUOUS
 10
3.156991
 20
1.854894
  0
VERTEX
  8
FOREGROUND
  6
CONTINUOUS
 10
3.139798
 20
1.860433
  0
VERTEX
  8
FOREGROUND
  6
CONTINUOUS
 10
3.122491
 20
1.865877
  0
VERTEX
  8
FOREGROUND
  6
CONTINUOUS
 10
3.105070
 20
1.871226
  0
VERTEX
  8
FOREGROUND
  6
CONTINUOUS
 10
3.087539
 20
1.876479
  0
VERTEX
  8
FOREGROUND
  6
CONTINUOUS
 10
3.069899
 20
1.881636
  0
VERTEX
  8
FOREGROUND
  6
CONTINUOUS
 10
3.052151
 20
1.886698
  0
VERTEX
  8
FOREGROUND
  6
CONTINUOUS
 10
3.034299
 20
1.891665
  0
VERTEX
  8
FOREGROUND
  6
CONTINUOUS
 10
3.016344
 20
1.896536
  0
VERTEX
  8
FOREGROUND
  6
CONTINUOUS
 10
2.998287
 20
1.901311
  0
VERTEX
  8
FOREGROUND
  6
CONTINUOUS
 10
2.980132
 20
1.905991
  0
VERTEX
  8
FOREGROUND
  6
CONTINUOUS
 10
2.961879
 20
1.910575
  0
VERTEX
  8
FOREGROUND
  6
CONTINUOUS
 10
2.943532
 20
1.915064
  0
VERTEX
  8
FOREGROUND
  6
CONTINUOUS
 10
2.925092
 20
1.919458
  0
VERTEX
  8
FOREGROUND
  6
CONTINUOUS
 10
2.906560
 20
1.923756
  0
VERTEX
  8
FOREGROUND
  6
CONTINUOUS
 10
2.887940
 20
1.927958
  0
VERTEX
  8
FOREGROUND
  6
CONTINUOUS
 10
2.869232
 20
1.932065
  0
VERTEX
  8
FOREGROUND
  6
CONTINUOUS
 10
2.850439
 20
1.936077
  0
VERTEX
  8
FOREGROUND
  6
CONTINUOUS
 10
2.831564
 20
1.939993
  0
VERTEX
  8
FOREGROUND
  6
CONTINUOUS
 10
2.812607
 20
1.943813
  0
VERTEX
  8
FOREGROUND
  6
CONTINUOUS
 10
2.793571
 20
1.947538
  0
VERTEX
  8
FOREGROUND
  6
CONTINUOUS
 10
2.774458
 20
1.951168
  0
VERTEX
  8
FOREGROUND
  6
CONTINUOUS
 10
2.755270
 20
1.954702
  0
VERTEX
  8
FOREGROUND
  6
CONTINUOUS
 10
2.736009
 20
1.958140
  0
VERTEX
  8
FOREGROUND
  6
CONTINUOUS
 10
2.716677
 20
1.961483
  0
VERTEX
  8
FOREGROUND
  6
CONTINUOUS
 10
2.697276
 20
1.964731
  0
VERTEX
  8
FOREGROUND
  6
CONTINUOUS
 10
2.677808
 20
1.967883
  0
VERTEX
  8
FOREGROUND
  6
CONTINUOUS
 10
2.658274
 20
1.970939
  0
VERTEX
  8
FOREGROUND
  6
CONTINUOUS
 10
2.638678
 20
1.973900
  0
VERTEX
  8
FOREGROUND
  6
CONTINUOUS
 10
2.619020
 20
1.976766
  0
VERTEX
  8
FOREGROUND
  6
CONTINUOUS
 10
2.599304
 20
1.979535
  0
VERTEX
  8
FOREGROUND
  6
CONTINUOUS
 10
2.579530
 20
1.982210
  0
VERTEX
  8
FOREGROUND
  6
CONTINUOUS
 10
2.559701
 20
1.984789
  0
VERTEX
  8
FOREGROUND
  6
CONTINUOUS
 10
2.539819
 20
1.987272
  0
VERTEX
  8
FOREGROUND
  6
CONTINUOUS
 10
2.519886
 20
1.989660
  0
VERTEX
  8
FOREGROUND
  6
CONTINUOUS
 10
2.499903
 20
1.991953
  0
VERTEX
  8
FOREGROUND
  6
CONTINUOUS
 10
2.479874
 20
1.994150
  0
VERTEX
  8
FOREGROUND
  6
CONTINUOUS
 10
2.459799
 20
1.996251
  0
VERTEX
  8
FOREGROUND
  6
CONTINUOUS
 10
2.439681
 20
1.998257
  0
VERTEX
  8
FOREGROUND
  6
CONTINUOUS
 10
2.419522
 20
2.000168
  0
VERTEX
  8
FOREGROUND
  6
CONTINUOUS
 10
2.399324
 20
2.001983
  0
VERTEX
  8
FOREGROUND
  6
CONTINUOUS
 10
2.379089
 20
2.003702
  0
VERTEX
  8
FOREGROUND
  6
CONTINUOUS
 10
2.358818
 20
2.005326
  0
VERTEX
  8
FOREGROUND
  6
CONTINUOUS
 10
2.338515
 20
2.006855
  0
VERTEX
  8
FOREGROUND
  6
CONTINUOUS
 10
2.318180
 20
2.008288
  0
VERTEX
  8
FOREGROUND
  6
CONTINUOUS
 10
2.297816
 20
2.009625
  0
VERTEX
  8
FOREGROUND
  6
CONTINUOUS
 10
2.277425
 20
2.010867
  0
VERTEX
  8
FOREGROUND
  6
CONTINUOUS
 10
2.257008
 20
2.012014
  0
VERTEX
  8
FOREGROUND
  6
CONTINUOUS
 10
2.236568
 20
2.013065
  0
VERTEX
  8
FOREGROUND
  6
CONTINUOUS
 10
2.216108
 20
2.014020
  0
VERTEX
  8
FOREGROUND
  6
CONTINUOUS
 10
2.195628
 20
2.014880
  0
VERTEX
  8
FOREGROUND
  6
CONTINUOUS
 10
2.175130
 20
2.015645
  0
VERTEX
  8
FOREGROUND
  6
CONTINUOUS
 10
2.154618
 20
2.016314
  0
VERTEX
  8
FOREGROUND
  6
CONTINUOUS
 10
2.134092
 20
2.016887
  0
VERTEX
  8
FOREGROUND
  6
CONTINUOUS
 10
2.113555
 20
2.017365
  0
VERTEX
  8
FOREGROUND
  6
CONTINUOUS
 10
2.093009
 20
2.017748
  0
VERTEX
  8
FOREGROUND
  6
CONTINUOUS
 10
2.072455
 20
2.018035
  0
VERTEX
  8
FOREGROUND
  6
CONTINUOUS
 10
2.051897
 20
2.018226
  0
VERTEX
  8
FOREGROUND
  6
CONTINUOUS
 10
2.031335
 20
2.018322
  0
VERTEX
  8
FOREGROUND
  6
CONTINUOUS
 10
2.010771
 20
2.018322
  0
VERTEX
  8
FOREGROUND
  6
CONTINUOUS
 10
1.990209
 20
2.018227
  0
VERTEX
  8
FOREGROUND
  6
CONTINUOUS
 10
1.969649
 20
2.018037
  0
VERTEX
  8
FOREGROUND
  6
CONTINUOUS
 10
1.949094
 20
2.017751
  0
VERTEX
  8
FOREGROUND
  6
CONTINUOUS
 10
1.928546
 20
2.017369
  0
VERTEX
  8
FOREGROUND
  6
CONTINUOUS
 10
1.908006
 20
2.016892
  0
VERTEX
  8
FOREGROUND
  6
CONTINUOUS
 10
1.887477
 20
2.016320
  0
VERTEX
  8
FOREGROUND
  6
CONTINUOUS
 10
1.866961
 20
2.015652
  0
VERTEX
  8
FOREGROUND
  6
CONTINUOUS
 10
1.846459
 20
2.014888
  0
VERTEX
  8
FOREGROUND
  6
CONTINUOUS
 10
1.825974
 20
2.014029
  0
VERTEX
  8
FOREGROUND
  6
CONTINUOUS
 10
1.805508
 20
2.013075
  0
VERTEX
  8
FOREGROUND
  6
CONTINUOUS
 10
1.785063
 20
2.012025
  0
VERTEX
  8
FOREGROUND
  6
CONTINUOUS
 10
1.764640
 20
2.010879
  0
VERTEX
  8
FOREGROUND
  6
CONTINUOUS
 10
1.744242
 20
2.009638
  0
VERTEX
  8
FOREGROUND
  6
CONTINUOUS
 10
1.723871
 20
2.008302
  0
VERTEX
  8
FOREGROUND
  6
CONTINUOUS
 10
1.703528
 20
2.006869
  0
VERTEX
  8
FOREGROUND
  6
CONTINUOUS
 10
1.683216
 20
2.005342
  0
VERTEX
  8
FOREGROUND
  6
CONTINUOUS
 10
1.662936
 20
2.003719
  0
VERTEX
  8
FOREGROUND
  6
CONTINUOUS
 10
1.642691
 20
2.002000
  0
VERTEX
  8
FOREGROUND
  6
CONTINUOUS
 10
1.622483
 20
2.000186
  0
VERTEX
  8
FOREGROUND
  6
CONTINUOUS
 10
1.602314
 20
1.998277
  0
VERTEX
  8
FOREGROUND
  6
CONTINUOUS
 10
1.582185
 20
1.996272
  0
VERTEX
  8
FOREGROUND
  6
CONTINUOUS
 10
1.562098
 20
1.994171
  0
VERTEX
  8
FOREGROUND
  6
CONTINUOUS
 10
1.542057
 20
1.991975
  0
VERTEX
  8
FOREGROUND
  6
CONTINUOUS
 10
1.522062
 20
1.989684
  0
VERTEX
  8
FOREGROUND
  6
CONTINUOUS
 10
1.502115
 20
1.987296
  0
VERTEX
  8
FOREGROUND
  6
CONTINUOUS
 10
1.482219
 20
1.984814
  0
VERTEX
  8
FOREGROUND
  6
CONTINUOUS
 10
1.462376
 20
1.982236
  0
VERTEX
  8
FOREGROUND
  6
CONTINUOUS
 10
1.442588
 20
1.979562
  0
VERTEX
  8
FOREGROUND
  6
CONTINUOUS
 10
1.422856
 20
1.976793
  0
VERTEX
  8
FOREGROUND
  6
CONTINUOUS
 10
1.403182
 20
1.973929
  0
VERTEX
  8
FOREGROUND
  6
CONTINUOUS
 10
1.383569
 20
1.970969
  0
VERTEX
  8
FOREGROUND
  6
CONTINUOUS
 10
1.364019
 20
1.967913
  0
VERTEX
  8
FOREGROUND
  6
CONTINUOUS
 10
1.344533
 20
1.964762
  0
VERTEX
  8
FOREGROUND
  6
CONTINUOUS
 10
1.325114
 20
1.961515
  0
VERTEX
  8
FOREGROUND
  6
CONTINUOUS
 10
1.305764
 20
1.958173
  0
VERTEX
  8
FOREGROUND
  6
CONTINUOUS
 10
1.286484
 20
1.954736
  0
VERTEX
  8
FOREGROUND
  6
CONTINUOUS
 10
1.267276
 20
1.951203
  0
VERTEX
  8
FOREGROUND
  6
CONTINUOUS
 10
1.248143
 20
1.947574
  0
VERTEX
  8
FOREGROUND
  6
CONTINUOUS
 10
1.229087
 20
1.943850
  0
VERTEX
  8
FOREGROUND
  6
CONTINUOUS
 10
1.210109
 20
1.940030
  0
VERTEX
  8
FOREGROUND
  6
CONTINUOUS
 10
1.191212
 20
1.936115
  0
VERTEX
  8
FOREGROUND
  6
CONTINUOUS
 10
1.172397
 20
1.932105
  0
VERTEX
  8
FOREGROUND
  6
CONTINUOUS
 10
1.153667
 20
1.927998
  0
VERTEX
  8
FOREGROUND
  6
CONTINUOUS
 10
1.135023
 20
1.923797
  0
VERTEX
  8
FOREGROUND
  6
CONTINUOUS
 10
1.116467
 20
1.919500
  0
VERTEX
  8
FOREGROUND
  6
CONTINUOUS
 10
1.098003
 20
1.915107
  0
VERTEX
  8
FOREGROUND
  6
CONTINUOUS
 10
1.079631
 20
1.910619
  0
VERTEX
  8
FOREGROUND
  6
CONTINUOUS
 10
1.061353
 20
1.906035
  0
VERTEX
  8
FOREGROUND
  6
CONTINUOUS
 10
1.043172
 20
1.901356
  0
VERTEX
  8
FOREGROUND
  6
CONTINUOUS
 10
1.025089
 20
1.896582
  0
VERTEX
  8
FOREGROUND
  6
CONTINUOUS
 10
1.007106
 20
1.891712
  0
VERTEX
  8
FOREGROUND
  6
CONTINUOUS
 10
0.989227
 20
1.886746
  0
VERTEX
  8
FOREGROUND
  6
CONTINUOUS
 10
0.971451
 20
1.881685
  0
VERTEX
  8
FOREGROUND
  6
CONTINUOUS
 10
0.953782
 20
1.876528
  0
VERTEX
  8
FOREGROUND
  6
CONTINUOUS
 10
0.936222
 20
1.871276
  0
VERTEX
  8
FOREGROUND
  6
CONTINUOUS
 10
0.918772
 20
1.865928
  0
VERTEX
  8
FOREGROUND
  6
CONTINUOUS
 10
0.901435
 20
1.860485
  0
VERTEX
  8
FOREGROUND
  6
CONTINUOUS
 10
0.884211
 20
1.854947
  0
VERTEX
  8
FOREGROUND
  6
CONTINUOUS
 10
0.867105
 20
1.849312
  0
VERTEX
  8
FOREGROUND
  6
CONTINUOUS
 10
0.850117
 20
1.843583
  0
VERTEX
  8
FOREGROUND
  6
CONTINUOUS
 10
0.833249
 20
1.837758
  0
VERTEX
  8
FOREGROUND
  6
CONTINUOUS
 10
0.816504
 20
1.831837
  0
VERTEX
  8
FOREGROUND
  6
CONTINUOUS
 10
0.799883
 20
1.825821
  0
VERTEX
  8
FOREGROUND
  6
CONTINUOUS
 10
0.783388
 20
1.819709
  0
VERTEX
  8
FOREGROUND
  6
CONTINUOUS
 10
0.767022
 20
1.813502
  0
VERTEX
  8
FOREGROUND
  6
CONTINUOUS
 10
0.750786
 20
1.807199
  0
VERTEX
  8
FOREGROUND
  6
CONTINUOUS
 10
0.734683
 20
1.800801
  0
VERTEX
  8
FOREGROUND
  6
CONTINUOUS
 10
0.718714
 20
1.794307
  0
VERTEX
  8
FOREGROUND
  6
CONTINUOUS
 10
0.702882
 20
1.787718
  0
VERTEX
  8
FOREGROUND
  6
CONTINUOUS
 10
0.687188
 20
1.781033
  0
VERTEX
  8
FOREGROUND
  6
CONTINUOUS
 10
0.671634
 20
1.774253
  0
VERTEX
  8
FOREGROUND
  6
CONTINUOUS
 10
0.656222
 20
1.767378
  0
VERTEX
  8
FOREGROUND
  6
CONTINUOUS
 10
0.640955
 20
1.760406
  0
VERTEX
  8
FOREGROUND
  6
CONTINUOUS
 10
0.625835
 20
1.753340
  0
VERTEX
  8
FOREGROUND
  6
CONTINUOUS
 10
0.610863
 20
1.746177
  0
VERTEX
  8
FOREGROUND
  6
CONTINUOUS
 10
0.596041
 20
1.738920
  0
VERTEX
  8
FOREGROUND
  6
CONTINUOUS
 10
0.581371
 20
1.731566
  0
VERTEX
  8
FOREGROUND
  6
CONTINUOUS
 10
0.566856
 20
1.724118
  0
VERTEX
  8
FOREGROUND
  6
CONTINUOUS
 10
0.552497
 20
1.716574
  0
VERTEX
  8
FOREGROUND
  6
CONTINUOUS
 10
0.538296
 20
1.708934
  0
VERTEX
  8
FOREGROUND
  6
CONTINUOUS
 10
0.524256
 20
1.701199
  0
VERTEX
  8
FOREGROUND
  6
CONTINUOUS
 10
0.510378
 20
1.693368
  0
VERTEX
  8
FOREGROUND
  6
CONTINUOUS
 10
0.496665
 20
1.685442
  0
VERTEX
  8
FOREGROUND
  6
CONTINUOUS
 10
0.483117
 20
1.677420
  0
VERTEX
  8
FOREGROUND
  6
CONTINUOUS
 10
0.469739
 20
1.669303
  0
VERTEX
  8
FOREGROUND
  6
CONTINUOUS
 10
0.456530
 20
1.661090
  0
VERTEX
  8
FOREGROUND
  6
CONTINUOUS
 10
0.443494
 20
1.652781
  0
VERTEX
  8
FOREGROUND
  6
CONTINUOUS
 10
0.430631
 20
1.644378
  0
VERTEX
  8
FOREGROUND
  6
CONTINUOUS
 10
0.417946
 20
1.635878
  0
VERTEX
  8
FOREGROUND
  6
CONTINUOUS
 10
0.405438
 20
1.627284
  0
VERTEX
  8
FOREGROUND
  6
CONTINUOUS
 10
0.393111
 20
1.618593
  0
VERTEX
  8
FOREGROUND
  6
CONTINUOUS
 10
0.380966
 20
1.609808
  0
VERTEX
  8
FOREGROUND
  6
CONTINUOUS
 10
0.369005
 20
1.600926
  0
VERTEX
  8
FOREGROUND
  6
CONTINUOUS
 10
0.357231
 20
1.591949
  0
VERTEX
  8
FOREGROUND
  6
CONTINUOUS
 10
0.345645
 20
1.582877
  0
VERTEX
  8
FOREGROUND
  6
CONTINUOUS
 10
0.334249
 20
1.573709
  0
VERTEX
  8
FOREGROUND
  6
CONTINUOUS
 10
0.323045
 20
1.564446
  0
VERTEX
  8
FOREGROUND
  6
CONTINUOUS
 10
0.312036
 20
1.555087
  0
VERTEX
  8
FOREGROUND
  6
CONTINUOUS
 10
0.301223
 20
1.545633
  0
VERTEX
  8
FOREGROUND
  6
CONTINUOUS
 10
0.290608
 20
1.536083
  0
VERTEX
  8
FOREGROUND
  6
CONTINUOUS
 10
0.280193
 20
1.526438
  0
VERTEX
  8
FOREGROUND
  6
CONTINUOUS
 10
0.269981
 20
1.516697
  0
VERTEX
  8
FOREGROUND
  6
CONTINUOUS
 10
0.259972
 20
1.506860
  0
VERTEX
  8
FOREGROUND
  6
CONTINUOUS
 10
0.250170
 20
1.496929
  0
VERTEX
  8
FOREGROUND
  6
CONTINUOUS
 10
0.240576
 20
1.486901
  0
VERTEX
  8
FOREGROUND
  6
CONTINUOUS
 10
0.231193
 20
1.476778
  0
VERTEX
  8
FOREGROUND
  6
CONTINUOUS
 10
0.222021
 20
1.466560
  0
VERTEX
  8
FOREGROUND
  6
CONTINUOUS
 10
0.213064
 20
1.456246
  0
VERTEX
  8
FOREGROUND
  6
CONTINUOUS
 10
0.204323
 20
1.445837
  0
VERTEX
  8
FOREGROUND
  6
CONTINUOUS
 10
0.195800
 20
1.435332
  0
VERTEX
  8
FOREGROUND
  6
CONTINUOUS
 10
0.187498
 20
1.424731
  0
VERTEX
  8
FOREGROUND
  6
CONTINUOUS
 10
0.179417
 20
1.414035
  0
VERTEX
  8
FOREGROUND
  6
CONTINUOUS
 10
0.171561
 20
1.403244
  0
VERTEX
  8
FOREGROUND
  6
CONTINUOUS
 10
0.163930
 20
1.392357
  0
VERTEX
  8
FOREGROUND
  6
CONTINUOUS
 10
0.156528
 20
1.381375
  0
VERTEX
  8
FOREGROUND
  6
CONTINUOUS
 10
0.149357
 20
1.370297
  0
VERTEX
  8
FOREGROUND
  6
CONTINUOUS
 10
0.142417
 20
1.359123
  0
VERTEX
  8
FOREGROUND
  6
CONTINUOUS
 10
0.135711
 20
1.347854
  0
VERTEX
  8
FOREGROUND
  6
CONTINUOUS
 10
0.129242
 20
1.336490
  0
VERTEX
  8
FOREGROUND
  6
CONTINUOUS
 10
0.123010
 20
1.325030
  0
VERTEX
  8
FOREGROUND
  6
CONTINUOUS
 10
0.117019
 20
1.313475
  0
VERTEX
  8
FOREGROUND
  6
CONTINUOUS
 10
0.111270
 20
1.301824
  0
VERTEX
  8
FOREGROUND
  6
CONTINUOUS
 10
0.105765
 20
1.290077
  0
VERTEX
  8
FOREGROUND
  6
CONTINUOUS
 10
0.100506
 20
1.278235
  0
VERTEX
  8
FOREGROUND
  6
CONTINUOUS
 10
0.095496
 20
1.266298
  0
VERTEX
  8
FOREGROUND
  6
CONTINUOUS
 10
0.090735
 20
1.254265
  0
VERTEX
  8
FOREGROUND
  6
CONTINUOUS
 10
0.086226
 20
1.242136
  0
VERTEX
  8
FOREGROUND
  6
CONTINUOUS
 10
0.081972
 20
1.229912
  0
VERTEX
  8
FOREGROUND
  6
CONTINUOUS
 10
0.077974
 20
1.217593
  0
VERTEX
  8
FOREGROUND
  6
CONTINUOUS
 10
0.074233
 20
1.205178
  0
VERTEX
  8
FOREGROUND
  6
CONTINUOUS
 10
0.070753
 20
1.192667
  0
VERTEX
  8
FOREGROUND
  6
CONTINUOUS
 10
0.067535
 20
1.180061
  0
VERTEX
  8
FOREGROUND
  6
CONTINUOUS
 10
0.064581
 20
1.167359
  0
VERTEX
  8
FOREGROUND
  6
CONTINUOUS
 10
0.061893
 20
1.154562
  0
VERTEX
  8
FOREGROUND
  6
CONTINUOUS
 10
0.059473
 20
1.141670
  0
VERTEX
  8
FOREGROUND
  6
CONTINUOUS
 10
0.057323
 20
1.128682
  0
VERTEX
  8
FOREGROUND
  6
CONTINUOUS
 10
0.055445
 20
1.115598
  0
VERTEX
  8
FOREGROUND
  6
CONTINUOUS
 10
0.053841
 20
1.102419
  0
VERTEX
  8
FOREGROUND
  6
CONTINUOUS
 10
0.052513
 20
1.089145
  0
VERTEX
  8
FOREGROUND
  6
CONTINUOUS
 10
0.051464
 20
1.075774
  0
VERTEX
  8
FOREGROUND
  6
CONTINUOUS
 10
0.050694
 20
1.062309
  0
VERTEX
  8
FOREGROUND
  6
CONTINUOUS
 10
0.050206
 20
1.048748
  0
VERTEX
  8
FOREGROUND
  6
CONTINUOUS
 10
0.050003
 20
1.035091
  0
VERTEX
  8
FOREGROUND
  6
CONTINUOUS
 10
0.050003
 20
1.035091
  0
VERTEX
  8
FOREGROUND
  6
CONTINUOUS
 10
0.050128
 20
1.021434
  0
VERTEX
  8
FOREGROUND
  6
CONTINUOUS
 10
0.050538
 20
1.007873
  0
VERTEX
  8
FOREGROUND
  6
CONTINUOUS
 10
0.051231
 20
0.994408
  0
VERTEX
  8
FOREGROUND
  6
CONTINUOUS
 10
0.052204
 20
0.981037
  0
VERTEX
  8
FOREGROUND
  6
CONTINUOUS
 10
0.053456
 20
0.967763
  0
VERTEX
  8
FOREGROUND
  6
CONTINUOUS
 10
0.054985
 20
0.954584
  0
VERTEX
  8
FOREGROUND
  6
CONTINUOUS
 10
0.056788
 20
0.941500
  0
VERTEX
  8
FOREGROUND
  6
CONTINUOUS
 10
0.058864
 20
0.928512
  0
VERTEX
  8
FOREGROUND
  6
CONTINUOUS
 10
0.061210
 20
0.915619
  0
VERTEX
  8
FOREGROUND
  6
CONTINUOUS
 10
0.063825
 20
0.902821
  0
VERTEX
  8
FOREGROUND
  6
CONTINUOUS
 10
0.066706
 20
0.890120
  0
VERTEX
  8
FOREGROUND
  6
CONTINUOUS
 10
0.069852
 20
0.877513
  0
VERTEX
  8
FOREGROUND
  6
CONTINUOUS
 10
0.073261
 20
0.865002
  0
VERTEX
  8
FOREGROUND
  6
CONTINUOUS
 10
0.076930
 20
0.852587
  0
VERTEX
  8
FOREGROUND
  6
CONTINUOUS
 10
0.080858
 20
0.840267
  0
VERTEX
  8
FOREGROUND
  6
CONTINUOUS
 10
0.085043
 20
0.828043
  0
VERTEX
  8
FOREGROUND
  6
CONTINUOUS
 10
0.089482
 20
0.815914
  0
VERTEX
  8
FOREGROUND
  6
CONTINUOUS
 10
0.094174
 20
0.803880
  0
VERTEX
  8
FOREGROUND
  6
CONTINUOUS
 10
0.099116
 20
0.791943
  0
VERTEX
  8
FOREGROUND
  6
CONTINUOUS
 10
0.104307
 20
0.780100
  0
VERTEX
  8
FOREGROUND
  6
CONTINUOUS
 10
0.109745
 20
0.768353
  0
VERTEX
  8
FOREGROUND
  6
CONTINUOUS
 10
0.115428
 20
0.756702
  0
VERTEX
  8
FOREGROUND
  6
CONTINUOUS
 10
0.121353
 20
0.745146
  0
VERTEX
  8
FOREGROUND
  6
CONTINUOUS
 10
0.127519
 20
0.733685
  0
VERTEX
  8
FOREGROUND
  6
CONTINUOUS
 10
0.133923
 20
0.722320
  0
VERTEX
  8
FOREGROUND
  6
CONTINUOUS
 10
0.140564
 20
0.711050
  0
VERTEX
  8
FOREGROUND
  6
CONTINUOUS
 10
0.147440
 20
0.699876
  0
VERTEX
  8
FOREGROUND
  6
CONTINUOUS
 10
0.154549
 20
0.688798
  0
VERTEX
  8
FOREGROUND
  6
CONTINUOUS
 10
0.161888
 20
0.677815
  0
VERTEX
  8
FOREGROUND
  6
CONTINUOUS
 10
0.169456
 20
0.666927
  0
VERTEX
  8
FOREGROUND
  6
CONTINUOUS
 10
0.177251
 20
0.656135
  0
VERTEX
  8
FOREGROUND
  6
CONTINUOUS
 10
0.185270
 20
0.645438
  0
VERTEX
  8
FOREGROUND
  6
CONTINUOUS
 10
0.193512
 20
0.634837
  0
VERTEX
  8
FOREGROUND
  6
CONTINUOUS
 10
0.201975
 20
0.624331
  0
VERTEX
  8
FOREGROUND
  6
CONTINUOUS
 10
0.210656
 20
0.613921
  0
VERTEX
  8
FOREGROUND
  6
CONTINUOUS
 10
0.219555
 20
0.603606
  0
VERTEX
  8
FOREGROUND
  6
CONTINUOUS
 10
0.228668
 20
0.593387
  0
VERTEX
  8
FOREGROUND
  6
CONTINUOUS
 10
0.237994
 20
0.583263
  0
VERTEX
  8
FOREGROUND
  6
CONTINUOUS
 10
0.247530
 20
0.573235
  0
VERTEX
  8
FOREGROUND
  6
CONTINUOUS
 10
0.257275
 20
0.563302
  0
VERTEX
  8
FOREGROUND
  6
CONTINUOUS
 10
0.267227
 20
0.553465
  0
VERTEX
  8
FOREGROUND
  6
CONTINUOUS
 10
0.277384
 20
0.543723
  0
VERTEX
  8
FOREGROUND
  6
CONTINUOUS
 10
0.287744
 20
0.534077
  0
VERTEX
  8
FOREGROUND
  6
CONTINUOUS
 10
0.298304
 20
0.524526
  0
VERTEX
  8
FOREGROUND
  6
CONTINUOUS
 10
0.309063
 20
0.515071
  0
VERTEX
  8
FOREGROUND
  6
CONTINUOUS
 10
0.320019
 20
0.505711
  0
VERTEX
  8
FOREGROUND
  6
CONTINUOUS
 10
0.331170
 20
0.496447
  0
VERTEX
  8
FOREGROUND
  6
CONTINUOUS
 10
0.342513
 20
0.487278
  0
VERTEX
  8
FOREGROUND
  6
CONTINUOUS
 10
0.354047
 20
0.478204
  0
VERTEX
  8
FOREGROUND
  6
CONTINUOUS
 10
0.365771
 20
0.469227
  0
VERTEX
  8
FOREGROUND
  6
CONTINUOUS
 10
0.377680
 20
0.460344
  0
VERTEX
  8
FOREGROUND
  6
CONTINUOUS
 10
0.389775
 20
0.451557
  0
VERTEX
  8
FOREGROUND
  6
CONTINUOUS
 10
0.402053
 20
0.442866
  0
VERTEX
  8
FOREGROUND
  6
CONTINUOUS
 10
0.414511
 20
0.434270
  0
VERTEX
  8
FOREGROUND
  6
CONTINUOUS
 10
0.427148
 20
0.425769
  0
VERTEX
  8
FOREGROUND
  6
CONTINUOUS
 10
0.439962
 20
0.417364
  0
VERTEX
  8
FOREGROUND
  6
CONTINUOUS
 10
0.452951
 20
0.409055
  0
VERTEX
  8
FOREGROUND
  6
CONTINUOUS
 10
0.466113
 20
0.400841
  0
VERTEX
  8
FOREGROUND
  6
CONTINUOUS
 10
0.479445
 20
0.392723
  0
VERTEX
  8
FOREGROUND
  6
CONTINUOUS
 10
0.492947
 20
0.384699
  0
VERTEX
  8
FOREGROUND
  6
CONTINUOUS
 10
0.506615
 20
0.376772
  0
VERTEX
  8
FOREGROUND
  6
CONTINUOUS
 10
0.520448
 20
0.368940
  0
VERTEX
  8
FOREGROUND
  6
CONTINUOUS
 10
0.534444
 20
0.361203
  0
VERTEX
  8
FOREGROUND
  6
CONTINUOUS
 10
0.548601
 20
0.353562
  0
VERTEX
  8
FOREGROUND
  6
CONTINUOUS
 10
0.562917
 20
0.346017
  0
VERTEX
  8
FOREGROUND
  6
CONTINUOUS
 10
0.577389
 20
0.338567
  0
VERTEX
  8
FOREGROUND
  6
CONTINUOUS
 10
0.592017
 20
0.331212
  0
VERTEX
  8
FOREGROUND
  6
CONTINUOUS
 10
0.606797
 20
0.323953
  0
VERTEX
  8
FOREGROUND
  6
CONTINUOUS
 10
0.621729
 20
0.316789
  0
VERTEX
  8
FOREGROUND
  6
CONTINUOUS
 10
0.636809
 20
0.309721
  0
VERTEX
  8
FOREGROUND
  6
CONTINUOUS
 10
0.652036
 20
0.302749
  0
VERTEX
  8
FOREGROUND
  6
CONTINUOUS
 10
0.667408
 20
0.295872
  0
VERTEX
  8
FOREGROUND
  6
CONTINUOUS
 10
0.682923
 20
0.289090
  0
VERTEX
  8
FOREGROUND
  6
CONTINUOUS
 10
0.698579
 20
0.282404
  0
VERTEX
  8
FOREGROUND
  6
CONTINUOUS
 10
0.714374
 20
0.275813
  0
VERTEX
  8
FOREGROUND
  6
CONTINUOUS
 10
0.730305
 20
0.269318
  0
VERTEX
  8
FOREGROUND
  6
CONTINUOUS
 10
0.746372
 20
0.262918
  0
VERTEX
  8
FOREGROUND
  6
CONTINUOUS
 10
0.762572
 20
0.256614
  0
VERTEX
  8
FOREGROUND
  6
CONTINUOUS
 10
0.778902
 20
0.250405
  0
VERTEX
  8
FOREGROUND
  6
CONTINUOUS
 10
0.795362
 20
0.244292
  0
VERTEX
  8
FOREGROUND
  6
CONTINUOUS
 10
0.811948
 20
0.238275
  0
VERTEX
  8
FOREGROUND
  6
CONTINUOUS
 10
0.828660
 20
0.232352
  0
VERTEX
  8
FOREGROUND
  6
CONTINUOUS
 10
0.845494
 20
0.226526
  0
VERTEX
  8
FOREGROUND
  6
CONTINUOUS
 10
0.862450
 20
0.220794
  0
VERTEX
  8
FOREGROUND
  6
CONTINUOUS
 10
0.879524
 20
0.215159
  0
VERTEX
  8
FOREGROUND
  6
CONTINUOUS
 10
0.896716
 20
0.209618
  0
VERTEX
  8
FOREGROUND
  6
CONTINUOUS
 10
0.914022
 20
0.204174
  0
VERTEX
  8
FOREGROUND
  6
CONTINUOUS
 10
0.931441
 20
0.198824
  0
VERTEX
  8
FOREGROUND
  6
CONTINUOUS
 10
0.948972
 20
0.193571
  0
VERTEX
  8
FOREGROUND
  6
CONTINUOUS
 10
0.966611
 20
0.188412
  0
VERTEX
  8
FOREGROUND
  6
CONTINUOUS
 10
0.984358
 20
0.183350
  0
VERTEX
  8
FOREGROUND
  6
CONTINUOUS
 10
1.002209
 20
0.178382
  0
VERTEX
  8
FOREGROUND
  6
CONTINUOUS
 10
1.020163
 20
0.173510
  0
VERTEX
  8
FOREGROUND
  6
CONTINUOUS
 10
1.038219
 20
0.168734
  0
VERTEX
  8
FOREGROUND
  6
CONTINUOUS
 10
1.056373
 20
0.164053
  0
VERTEX
  8
FOREGROUND
  6
CONTINUOUS
 10
1.074625
 20
0.159468
  0
VERTEX
  8
FOREGROUND
  6
CONTINUOUS
 10
1.092972
 20
0.154978
  0
VERTEX
  8
FOREGROUND
  6
CONTINUOUS
 10
1.111411
 20
0.150584
  0
VERTEX
  8
FOREGROUND
  6
CONTINUOUS
 10
1.129942
 20
0.146285
  0
VERTEX
  8
FOREGROUND
  6
CONTINUOUS
 10
1.148562
 20
0.142082
  0
VERTEX
  8
FOREGROUND
  6
CONTINUOUS
 10
1.167268
 20
0.137974
  0
VERTEX
  8
FOREGROUND
  6
CONTINUOUS
 10
1.186060
 20
0.133962
  0
VERTEX
  8
FOREGROUND
  6
CONTINUOUS
 10
1.204935
 20
0.130045
  0
VERTEX
  8
FOREGROUND
  6
CONTINUOUS
 10
1.223891
 20
0.126223
  0
VERTEX
  8
FOREGROUND
  6
CONTINUOUS
 10
1.242926
 20
0.122498
  0
VERTEX
  8
FOREGROUND
  6
CONTINUOUS
 10
1.262038
 20
0.118867
  0
VERTEX
  8
FOREGROUND
  6
CONTINUOUS
 10
1.281226
 20
0.115332
  0
VERTEX
  8
FOREGROUND
  6
CONTINUOUS
 10
1.300486
 20
0.111893
  0
VERTEX
  8
FOREGROUND
  6
CONTINUOUS
 10
1.319818
 20
0.108549
  0
VERTEX
  8
FOREGROUND
  6
CONTINUOUS
 10
1.339218
 20
0.105301
  0
VERTEX
  8
FOREGROUND
  6
CONTINUOUS
 10
1.358686
 20
0.102148
  0
VERTEX
  8
FOREGROUND
  6
CONTINUOUS
 10
1.378219
 20
0.099090
  0
VERTEX
  8
FOREGROUND
  6
CONTINUOUS
 10
1.397815
 20
0.096129
  0
VERTEX
  8
FOREGROUND
  6
CONTINUOUS
 10
1.417472
 20
0.093262
  0
VERTEX
  8
FOREGROUND
  6
CONTINUOUS
 10
1.437188
 20
0.090491
  0
VERTEX
  8
FOREGROUND
  6
CONTINUOUS
 10
1.456961
 20
0.087816
  0
VERTEX
  8
FOREGROUND
  6
CONTINUOUS
 10
1.476790
 20
0.085236
  0
VERTEX
  8
FOREGROUND
  6
CONTINUOUS
 10
1.496671
 20
0.082752
  0
VERTEX
  8
FOREGROUND
  6
CONTINUOUS
 10
1.516604
 20
0.080363
  0
VERTEX
  8
FOREGROUND
  6
CONTINUOUS
 10
1.536586
 20
0.078069
  0
VERTEX
  8
FOREGROUND
  6
CONTINUOUS
 10
1.556615
 20
0.075871
  0
VERTEX
  8
FOREGROUND
  6
CONTINUOUS
 10
1.576689
 20
0.073769
  0
VERTEX
  8
FOREGROUND
  6
CONTINUOUS
 10
1.596807
 20
0.071762
  0
VERTEX
  8
FOREGROUND
  6
CONTINUOUS
 10
1.616965
 20
0.069851
  0
VERTEX
  8
FOREGROUND
  6
CONTINUOUS
 10
1.637163
 20
0.068035
  0
VERTEX
  8
FOREGROUND
  6
CONTINUOUS
 10
1.657398
 20
0.066314
  0
VERTEX
  8
FOREGROUND
  6
CONTINUOUS
 10
1.677668
 20
0.064689
  0
VERTEX
  8
FOREGROUND
  6
CONTINUOUS
 10
1.697972
 20
0.063160
  0
VERTEX
  8
FOREGROUND
  6
CONTINUOUS
 10
1.718306
 20
0.061726
  0
VERTEX
  8
FOREGROUND
  6
CONTINUOUS
 10
1.738670
 20
0.060388
  0
VERTEX
  8
FOREGROUND
  6
CONTINUOUS
 10
1.759061
 20
0.059145
  0
VERTEX
  8
FOREGROUND
  6
CONTINUOUS
 10
1.779477
 20
0.057997
  0
VERTEX
  8
FOREGROUND
  6
CONTINUOUS
 10
1.799917
 20
0.056945
  0
VERTEX
  8
FOREGROUND
  6
CONTINUOUS
 10
1.820378
 20
0.055989
  0
VERTEX
  8
FOREGROUND
  6
CONTINUOUS
 10
1.840857
 20
0.055128
  0
VERTEX
  8
FOREGROUND
  6
CONTINUOUS
 10
1.861355
 20
0.054363
  0
VERTEX
  8
FOREGROUND
  6
CONTINUOUS
 10
1.881867
 20
0.053693
  0
VERTEX
  8
FOREGROUND
  6
CONTINUOUS
 10
1.902393
 20
0.053118
  0
VERTEX
  8
FOREGROUND
  6
CONTINUOUS
 10
1.922930
 20
0.052639
  0
VERTEX
  8
FOREGROUND
  6
CONTINUOUS
 10
1.943476
 20
0.052256
  0
VERTEX
  8
FOREGROUND
  6
CONTINUOUS
 10
1.964029
 20
0.051968
  0
VERTEX
  8
FOREGROUND
  6
CONTINUOUS
 10
1.984588
 20
0.051775
  0
VERTEX
  8
FOREGROUND
  6
CONTINUOUS
 10
2.005150
 20
0.051679
  0
VERTEX
  8
FOREGROUND
  6
CONTINUOUS
 10
2.025713
 20
0.051677
  0
VERTEX
  8
FOREGROUND
  6
CONTINUOUS
 10
2.046276
 20
0.051771
  0
VERTEX
  8
FOREGROUND
  6
CONTINUOUS
 10
2.066835
 20
0.051961
  0
VERTEX
  8
FOREGROUND
  6
CONTINUOUS
 10
2.087390
 20
0.052246
  0
VERTEX
  8
FOREGROUND
  6
CONTINUOUS
 10
2.107939
 20
0.052626
  0
VERTEX
  8
FOREGROUND
  6
CONTINUOUS
 10
2.128479
 20
0.053102
  0
VERTEX
  8
FOREGROUND
  6
CONTINUOUS
 10
2.149008
 20
0.053674
  0
VERTEX
  8
FOREGROUND
  6
CONTINUOUS
 10
2.169524
 20
0.054341
  0
VERTEX
  8
FOREGROUND
  6
CONTINUOUS
 10
2.190026
 20
0.055104
  0
VERTEX
  8
FOREGROUND
  6
CONTINUOUS
 10
2.210511
 20
0.055962
  0
VERTEX
  8
FOREGROUND
  6
CONTINUOUS
 10
2.230977
 20
0.056915
  0
VERTEX
  8
FOREGROUND
  6
CONTINUOUS
 10
2.251423
 20
0.057964
  0
VERTEX
  8
FOREGROUND
  6
CONTINUOUS
 10
2.271846
 20
0.059109
  0
VERTEX
  8
FOREGROUND
  6
CONTINUOUS
 10
2.292244
 20
0.060349
  0
VERTEX
  8
FOREGROUND
  6
CONTINUOUS
 10
2.312616
 20
0.061685
  0
VERTEX
  8
FOREGROUND
  6
CONTINUOUS
 10
2.332959
 20
0.063116
  0
VERTEX
  8
FOREGROUND
  6
CONTINUOUS
 10
2.353271
 20
0.064642
  0
VERTEX
  8
FOREGROUND
  6
CONTINUOUS
 10
2.373551
 20
0.066265
  0
VERTEX
  8
FOREGROUND
  6
CONTINUOUS
 10
2.393796
 20
0.067982
  0
VERTEX
  8
FOREGROUND
  6
CONTINUOUS
 10
2.414004
 20
0.069795
  0
VERTEX
  8
FOREGROUND
  6
CONTINUOUS
 10
2.434174
 20
0.071704
  0
VERTEX
  8
FOREGROUND
  6
CONTINUOUS
 10
2.454304
 20
0.073708
  0
VERTEX
  8
FOREGROUND
  6
CONTINUOUS
 10
2.474390
 20
0.075808
  0
VERTEX
  8
FOREGROUND
  6
CONTINUOUS
 10
2.494432
 20
0.078003
  0
VERTEX
  8
FOREGROUND
  6
CONTINUOUS
 10
2.514428
 20
0.080293
  0
VERTEX
  8
FOREGROUND
  6
CONTINUOUS
 10
2.534375
 20
0.082680
  0
VERTEX
  8
FOREGROUND
  6
CONTINUOUS
 10
2.554271
 20
0.085161
  0
VERTEX
  8
FOREGROUND
  6
CONTINUOUS
 10
2.574115
 20
0.087738
  0
VERTEX
  8
FOREGROUND
  6
CONTINUOUS
 10
2.593904
 20
0.090411
  0
VERTEX
  8
FOREGROUND
  6
CONTINUOUS
 10
2.613636
 20
0.093179
  0
VERTEX
  8
FOREGROUND
  6
CONTINUOUS
 10
2.633310
 20
0.096043
  0
VERTEX
  8
FOREGROUND
  6
CONTINUOUS
 10
2.652924
 20
0.099002
  0
VERTEX
  8
FOREGROUND
  6
CONTINUOUS
 10
2.672475
 20
0.102057
  0
VERTEX
  8
FOREGROUND
  6
CONTINUOUS
 10
2.691961
 20
0.105207
  0
VERTEX
  8
FOREGROUND
  6
CONTINUOUS
 10
2.711381
 20
0.108452
  0
VERTEX
  8
FOREGROUND
  6
CONTINUOUS
 10
2.730732
 20
0.111794
  0
VERTEX
  8
FOREGROUND
  6
CONTINUOUS
 10
2.750012
 20
0.115230
  0
VERTEX
  8
FOREGROUND
  6
CONTINUOUS
 10
2.769221
 20
0.118763
  0
VERTEX
  8
FOREGROUND
  6
CONTINUOUS
 10
2.788354
 20
0.122390
  0
VERTEX
  8
FOREGROUND
  6
CONTINUOUS
 10
2.807411
 20
0.126113
  0
VERTEX
  8
FOREGROUND
  6
CONTINUOUS
 10
2.826390
 20
0.129932
  0
VERTEX
  8
FOREGROUND
  6
CONTINUOUS
 10
2.845288
 20
0.133846
  0
VERTEX
  8
FOREGROUND
  6
CONTINUOUS
 10
2.864103
 20
0.137856
  0
VERTEX
  8
FOREGROUND
  6
CONTINUOUS
 10
2.882834
 20
0.141961
  0
VERTEX
  8
FOREGROUND
  6
CONTINUOUS
 10
2.901479
 20
0.146162
  0
VERTEX
  8
FOREGROUND
  6
CONTINUOUS
 10
2.920035
 20
0.150458
  0
VERTEX
  8
FOREGROUND
  6
CONTINUOUS
 10
2.938501
 20
0.154850
  0
VERTEX
  8
FOREGROUND
  6
CONTINUOUS
 10
2.956874
 20
0.159337
  0
VERTEX
  8
FOREGROUND
  6
CONTINUOUS
 10
2.975152
 20
0.163920
  0
VERTEX
  8
FOREGROUND
  6
CONTINUOUS
 10
2.993334
 20
0.168598
  0
VERTEX
  8
FOREGROUND
  6
CONTINUOUS
 10
3.011418
 20
0.173372
  0
VERTEX
  8
FOREGROUND
  6
CONTINUOUS
 10
3.029401
 20
0.178242
  0
VERTEX
  8
FOREGROUND
  6
CONTINUOUS
 10
3.047282
 20
0.183206
  0
VERTEX
  8
FOREGROUND
  6
CONTINUOUS
 10
3.065058
 20
0.188267
  0
VERTEX
  8
FOREGROUND
  6
CONTINUOUS
 10
3.082728
 20
0.193422
  0
VERTEX
  8
FOREGROUND
  6
CONTINUOUS
 10
3.100289
 20
0.198674
  0
VERTEX
  8
FOREGROUND
  6
CONTINUOUS
 10
3.117740
 20
0.204021
  0
VERTEX
  8
FOREGROUND
  6
CONTINUOUS
 10
3.135079
 20
0.209463
  0
VERTEX
  8
FOREGROUND
  6
CONTINUOUS
 10
3.152303
 20
0.215001
  0
VERTEX
  8
FOREGROUND
  6
CONTINUOUS
 10
3.169411
 20
0.220634
  0
VERTEX
  8
FOREGROUND
  6
CONTINUOUS
 10
3.186400
 20
0.226363
  0
VERTEX
  8
FOREGROUND
  6
CONTINUOUS
 10
3.203269
 20
0.232187
  0
VERTEX
  8
FOREGROUND
  6
CONTINUOUS
 10
3.220015
 20
0.238107
  0
VERTEX
  8
FOREGROUND
  6
CONTINUOUS
 10
3.236637
 20
0.244123
  0
VERTEX
  8
FOREGROUND
  6
CONTINUOUS
 10
3.253133
 20
0.250234
  0
VERTEX
  8
FOREGROUND
  6
CONTINUOUS
 10
3.269500
 20
0.256440
  0
VERTEX
  8
FOREGROUND
  6
CONTINUOUS
 10
3.285737
 20
0.262742
  0
VERTEX
  8
FOREGROUND
  6
CONTINUOUS
 10
3.301841
 20
0.269139
  0
VERTEX
  8
FOREGROUND
  6
CONTINUOUS
 10
3.317812
 20
0.275632
  0
VERTEX
  8
FOREGROUND
  6
CONTINUOUS
 10
3.333645
 20
0.282221
  0
VERTEX
  8
FOREGROUND
  6
CONTINUOUS
 10
3.349341
 20
0.288905
  0
VERTEX
  8
FOREGROUND
  6
CONTINUOUS
 10
3.364896
 20
0.295684
  0
VERTEX
  8
FOREGROUND
  6
CONTINUOUS
 10
3.380308
 20
0.302559
  0
VERTEX
  8
FOREGROUND
  6
CONTINUOUS
 10
3.395576
 20
0.309530
  0
VERTEX
  8
FOREGROUND
  6
CONTINUOUS
 10
3.410698
 20
0.316596
  0
VERTEX
  8
FOREGROUND
  6
CONTINUOUS
 10
3.425672
 20
0.323757
  0
VERTEX
  8
FOREGROUND
  6
CONTINUOUS
 10
3.440495
 20
0.331014
  0
VERTEX
  8
FOREGROUND
  6
CONTINUOUS
 10
3.455166
 20
0.338367
  0
VERTEX
  8
FOREGROUND
  6
CONTINUOUS
 10
3.469683
 20
0.345815
  0
VERTEX
  8
FOREGROUND
  6
CONTINUOUS
 10
3.484043
 20
0.353359
  0
VERTEX
  8
FOREGROUND
  6
CONTINUOUS
 10
3.498245
 20
0.360998
  0
VERTEX
  8
FOREGROUND
  6
CONTINUOUS
 10
3.512287
 20
0.368732
  0
VERTEX
  8
FOREGROUND
  6
CONTINUOUS
 10
3.526166
 20
0.376562
  0
VERTEX
  8
FOREGROUND
  6
CONTINUOUS
 10
3.539881
 20
0.384488
  0
VERTEX
  8
FOREGROUND
  6
CONTINUOUS
 10
3.553430
 20
0.392509
  0
VERTEX
  8
FOREGROUND
  6
CONTINUOUS
 10
3.566810
 20
0.400626
  0
VERTEX
  8
FOREGROUND
  6
CONTINUOUS
 10
3.580020
 20
0.408838
  0
VERTEX
  8
FOREGROUND
  6
CONTINUOUS
 10
3.593058
 20
0.417146
  0
VERTEX
  8
FOREGROUND
  6
CONTINUOUS
 10
3.605922
 20
0.425549
  0
VERTEX
  8
FOREGROUND
  6
CONTINUOUS
 10
3.618609
 20
0.434047
  0
VERTEX
  8
FOREGROUND
  6
CONTINUOUS
 10
3.631118
 20
0.442642
  0
VERTEX
  8
FOREGROUND
  6
CONTINUOUS
 10
3.643447
 20
0.451331
  0
VERTEX
  8
FOREGROUND
  6
CONTINUOUS
 10
3.655594
 20
0.460117
  0
VERTEX
  8
FOREGROUND
  6
CONTINUOUS
 10
3.667556
 20
0.468997
  0
VERTEX
  8
FOREGROUND
  6
CONTINUOUS
 10
3.679332
 20
0.477974
  0
VERTEX
  8
FOREGROUND
  6
CONTINUOUS
 10
3.690920
 20
0.487045
  0
VERTEX
  8
FOREGROUND
  6
CONTINUOUS
 10
3.702318
 20
0.496213
  0
VERTEX
  8
FOREGROUND
  6
CONTINUOUS
 10
3.713523
 20
0.505475
  0
VERTEX
  8
FOREGROUND
  6
CONTINUOUS
 10
3.724534
 20
0.514834
  0
VERTEX
  8
FOREGROUND
  6
CONTINUOUS
 10
3.735349
 20
0.524288
  0
VERTEX
  8
FOREGROUND
  6
CONTINUOUS
 10
3.745966
 20
0.533837
  0
VERTEX
  8
FOREGROUND
  6
CONTINUOUS
 10
3.756382
 20
0.543482
  0
VERTEX
  8
FOREGROUND
  6
CONTINUOUS
 10
3.766596
 20
0.553222
  0
VERTEX
  8
FOREGROUND
  6
CONTINUOUS
 10
3.776607
 20
0.563058
  0
VERTEX
  8
FOREGROUND
  6
CONTINUOUS
 10
3.786410
 20
0.572990
  0
VERTEX
  8
FOREGROUND
  6
CONTINUOUS
 10
3.796006
 20
0.583016
  0
VERTEX
  8
FOREGROUND
  6
CONTINUOUS
 10
3.805392
 20
0.593139
  0
VERTEX
  8
FOREGROUND
  6
CONTINUOUS
 10
3.814565
 20
0.603357
  0
VERTEX
  8
FOREGROUND
  6
CONTINUOUS
 10
3.823524
 20
0.613670
  0
VERTEX
  8
FOREGROUND
  6
CONTINUOUS
 10
3.832267
 20
0.624079
  0
VERTEX
  8
FOREGROUND
  6
CONTINUOUS
 10
3.840792
 20
0.634584
  0
VERTEX
  8
FOREGROUND
  6
CONTINUOUS
 10
3.849097
 20
0.645184
  0
VERTEX
  8
FOREGROUND
  6
CONTINUOUS
 10
3.857179
 20
0.655879
  0
VERTEX
  8
FOREGROUND
  6
CONTINUOUS
 10
3.865037
 20
0.666670
  0
VERTEX
  8
FOREGROUND
  6
CONTINUOUS
 10
3.872670
 20
0.677557
  0
VERTEX
  8
FOREGROUND
  6
CONTINUOUS
 10
3.880074
 20
0.688539
  0
VERTEX
  8
FOREGROUND
  6
CONTINUOUS
 10
3.887248
 20
0.699617
  0
VERTEX
  8
FOREGROUND
  6
CONTINUOUS
 10
3.894190
 20
0.710790
  0
VERTEX
  8
FOREGROUND
  6
CONTINUOUS
 10
3.900897
 20
0.722058
  0
VERTEX
  8
FOREGROUND
  6
CONTINUOUS
 10
3.907369
 20
0.733423
  0
VERTEX
  8
FOREGROUND
  6
CONTINUOUS
 10
3.913602
 20
0.744882
  0
VERTEX
  8
FOREGROUND
  6
CONTINUOUS
 10
3.919596
 20
0.756437
  0
VERTEX
  8
FOREGROUND
  6
CONTINUOUS
 10
3.925347
 20
0.768088
  0
VERTEX
  8
FOREGROUND
  6
CONTINUOUS
 10
3.930854
 20
0.779834
  0
VERTEX
  8
FOREGROUND
  6
CONTINUOUS
 10
3.936115
 20
0.791676
  0
VERTEX
  8
FOREGROUND
  6
CONTINUOUS
 10
3.941128
 20
0.803613
  0
VERTEX
  8
FOREGROUND
  6
CONTINUOUS
 10
3.945891
 20
0.815646
  0
VERTEX
  8
FOREGROUND
  6
CONTINUOUS
 10
3.950402
 20
0.827774
  0
VERTEX
  8
FOREGROUND
  6
CONTINUOUS
 10
3.954658
 20
0.839998
  0
VERTEX
  8
FOREGROUND
  6
CONTINUOUS
 10
3.958659
 20
0.852318
  0
VERTEX
  8
FOREGROUND
  6
CONTINUOUS
 10
3.962402
 20
0.864732
  0
VERTEX
  8
FOREGROUND
  6
CONTINUOUS
 10
3.965884
 20
0.877243
  0
VERTEX
  8
FOREGROUND
  6
CONTINUOUS
 10
3.969105
 20
0.889849
  0
VERTEX
  8
FOREGROUND
  6
CONTINUOUS
 10
3.972061
 20
0.902550
  0
VERTEX
  8
FOREGROUND
  6
CONTINUOUS
 10
3.974751
 20
0.915347
  0
VERTEX
  8
FOREGROUND
  6
CONTINUOUS
 10
3.977174
 20
0.928239
  0
VERTEX
  8
FOREGROUND
  6
CONTINUOUS
 10
3.979326
 20
0.941227
  0
VERTEX
  8
FOREGROUND
  6
CONTINUOUS
 10
3.981206
 20
0.954311
  0
VERTEX
  8
FOREGROUND
  6
CONTINUOUS
 10
3.982813
 20
0.967490
  0
VERTEX
  8
FOREGROUND
  6
CONTINUOUS
 10
3.984143
 20
0.980764
  0
VERTEX
  8
FOREGROUND
  6
CONTINUOUS
 10
3.985195
 20
0.994135
  0
VERTEX
  8
FOREGROUND
  6
CONTINUOUS
 10
3.985967
 20
1.007600
  0
VERTEX
  8
FOREGROUND
  6
CONTINUOUS
 10
3.986458
 20
1.021161
  0
VERTEX
  8
FOREGROUND
  6
CONTINUOUS
 10
3.986664
 20
1.034818
  0
SEQEND
  8
0
  0
ENDSEC
  0
EOF
