  0
SECTION
  2
HEADER
  9
$ACADVER
  1
AC1006
  9
$EXTMIN
 10
0.000000
 20
0.000000
  9
$EXTMAX
 10
4.038333
 20
2.463333
  9
$LTSCALE
 40
0.166667
  9
$PDMODE
 70
    35
  9
$PDSIZE
 40
0.133333
  0
ENDSEC
  0
SECTION
  2
TABLES
  0
TABLE
  2
LTYPE
 70
     9
  0
LTYPE
  2
CONTINUOUS
 70
    64
  3
Solid line
 72
    65
 73
     0
 40
0.000000
  0
LTYPE
  2
DASHED
 70
    64
  3
__ __ __ __ __ __ __ __ __ __ __ __ __ __ __
 72
    65
 73
     2
 40
0.001250
 49
0.000833
 49
-0.000417
  0
LTYPE
  2
HIDDEN
 70
    64
  3
 _ _ _ _ _ _ _ _ _ _ _ _ _ _ _ _ _ _ _ _ _ _
 72
    65
 73
     2
 40
0.000625
 49
0.000417
 49
-0.000208
  0
LTYPE
  2
CENTER
 70
    64
  3
____ _ ____ _ ____ _ ____ _ ____ _ ____ _ ____
 72
    65
 73
     4
 40
0.003333
 49
0.002083
 49
-0.000417
 49
0.000417
 49
-0.000417
  0
LTYPE
  2
PHANTOM
 70
    64
  3
_____ _ _ _____ _ _ _____ _ _ _____ _ _ ____
 72
    65
 73
     6
 40
0.004167
 49
0.002083
 49
-0.000417
 49
0.000417
 49
-0.000417
 49
0.000417
 49
-0.000417
  0
LTYPE
  2
DOT
 70
    64
  3
...............................................
 72
    65
 73
     2
 40
0.000417
 49
0.000000
 49
-0.000417
  0
LTYPE
  2
DASHDOT
 70
    64
  3
__ . __ . __ . __ . __ . __ . __ . __ . __ . __
 72
    65
 73
     4
 40
0.001667
 49
0.000833
 49
-0.000417
 49
0.000000
 49
-0.000417
  0
LTYPE
  2
BORDER
 70
    64
  3
__ __ . __ __ . __ __ . __ __ . __ __ . __ __
 72
    65
 73
     6
 40
0.002917
 49
0.000833
 49
-0.000417
 49
0.000833
 49
-0.000417
 49
0.000000
 49
-0.000417
  0
LTYPE
  2
DIVIDE
 70
    64
  3
__ . . __ . . __ . . __ . . __ . . __ . . __
 72
    65
 73
     6
 40
0.002083
 49
0.000833
 49
-0.000417
 49
0.000000
 49
-0.000417
 49
0.000000
 49
-0.000417
  0
LTYPE
  2
DOTDOT
 70
    64
  3
 . .  . .  . .  . .  . .  . . 
 72
    65
 73
     5
 40
0.000917
 49
-0.000417
 49
0.000000
 49
-0.000417
 49
0.000000
 49
-0.000417
  0
ENDTAB
  0
TABLE
  2
STYLE
 70
     2
  0
STYLE
 70
     0
  2
SN0
 40
0.000000
 41
0.001667
 50
0.000000
 71
     0
 42
0.000000
  3
ROMAND
  0
STYLE
 70
    68
  2
SV0
 40
0.000000
 41
0.001667
 50
0.000000
 71
     0
 42
0.000000
  3
ROMAND
  0
ENDTAB
  0
TABLE
  2
LAYER
 70
     2
  0
LAYER
  2
FOREGROUND
 70
    64
 62
     7
  6
CONTINUOUS
  0
LAYER
  2
BACKGROUND
 70
    65
 62
    -7
  6
CONTINUOUS
  0
ENDTAB
  0
ENDSEC
  0
SECTION
  2
ENTITIES
  0
POLYLINE
  8
FOREGROUND
  6
CONTINUOUS
 66
     1
 40
0.010000
 41
0.010000
 70
     1
  0
VERTEX
  8
FOREGROUND
  6
CONTINUOUS
 10
3.986665
 20
1.231667
  0
VERTEX
  8
FOREGROUND
  6
CONTINUOUS
 10
3.986537
 20
1.247474
  0
VERTEX
  8
FOREGROUND
  6
CONTINUOUS
 10
3.986144
 20
1.263175
  0
VERTEX
  8
FOREGROUND
  6
CONTINUOUS
 10
3.985490
 20
1.278769
  0
VERTEX
  8
FOREGROUND
  6
CONTINUOUS
 10
3.984575
 20
1.294257
  0
VERTEX
  8
FOREGROUND
  6
CONTINUOUS
 10
3.983401
 20
1.309639
  0
VERTEX
  8
FOREGROUND
  6
CONTINUOUS
 10
3.981971
 20
1.324914
  0
VERTEX
  8
FOREGROUND
  6
CONTINUOUS
 10
3.980285
 20
1.340083
  0
VERTEX
  8
FOREGROUND
  6
CONTINUOUS
 10
3.978347
 20
1.355145
  0
VERTEX
  8
FOREGROUND
  6
CONTINUOUS
 10
3.976157
 20
1.370101
  0
VERTEX
  8
FOREGROUND
  6
CONTINUOUS
 10
3.973717
 20
1.384950
  0
VERTEX
  8
FOREGROUND
  6
CONTINUOUS
 10
3.971029
 20
1.399693
  0
VERTEX
  8
FOREGROUND
  6
CONTINUOUS
 10
3.968095
 20
1.414330
  0
VERTEX
  8
FOREGROUND
  6
CONTINUOUS
 10
3.964917
 20
1.428860
  0
VERTEX
  8
FOREGROUND
  6
CONTINUOUS
 10
3.961497
 20
1.443284
  0
VERTEX
  8
FOREGROUND
  6
CONTINUOUS
 10
3.957835
 20
1.457601
  0
VERTEX
  8
FOREGROUND
  6
CONTINUOUS
 10
3.953935
 20
1.471811
  0
VERTEX
  8
FOREGROUND
  6
CONTINUOUS
 10
3.949798
 20
1.485916
  0
VERTEX
  8
FOREGROUND
  6
CONTINUOUS
 10
3.945425
 20
1.499914
  0
VERTEX
  8
FOREGROUND
  6
CONTINUOUS
 10
3.940818
 20
1.513805
  0
VERTEX
  8
FOREGROUND
  6
CONTINUOUS
 10
3.935980
 20
1.527590
  0
VERTEX
  8
FOREGROUND
  6
CONTINUOUS
 10
3.930911
 20
1.541269
  0
VERTEX
  8
FOREGROUND
  6
CONTINUOUS
 10
3.925615
 20
1.554841
  0
VERTEX
  8
FOREGROUND
  6
CONTINUOUS
 10
3.920091
 20
1.568306
  0
VERTEX
  8
FOREGROUND
  6
CONTINUOUS
 10
3.914343
 20
1.581666
  0
VERTEX
  8
FOREGROUND
  6
CONTINUOUS
 10
3.908372
 20
1.594918
  0
VERTEX
  8
FOREGROUND
  6
CONTINUOUS
 10
3.902180
 20
1.608065
  0
VERTEX
  8
FOREGROUND
  6
CONTINUOUS
 10
3.895769
 20
1.621105
  0
VERTEX
  8
FOREGROUND
  6
CONTINUOUS
 10
3.889140
 20
1.634038
  0
VERTEX
  8
FOREGROUND
  6
CONTINUOUS
 10
3.882295
 20
1.646865
  0
VERTEX
  8
FOREGROUND
  6
CONTINUOUS
 10
3.875236
 20
1.659586
  0
VERTEX
  8
FOREGROUND
  6
CONTINUOUS
 10
3.867965
 20
1.672200
  0
VERTEX
  8
FOREGROUND
  6
CONTINUOUS
 10
3.860483
 20
1.684708
  0
VERTEX
  8
FOREGROUND
  6
CONTINUOUS
 10
3.852793
 20
1.697109
  0
VERTEX
  8
FOREGROUND
  6
CONTINUOUS
 10
3.844896
 20
1.709404
  0
VERTEX
  8
FOREGROUND
  6
CONTINUOUS
 10
3.836794
 20
1.721592
  0
VERTEX
  8
FOREGROUND
  6
CONTINUOUS
 10
3.828488
 20
1.733674
  0
VERTEX
  8
FOREGROUND
  6
CONTINUOUS
 10
3.819981
 20
1.745650
  0
VERTEX
  8
FOREGROUND
  6
CONTINUOUS
 10
3.811274
 20
1.757519
  0
VERTEX
  8
FOREGROUND
  6
CONTINUOUS
 10
3.802369
 20
1.769281
  0
VERTEX
  8
FOREGROUND
  6
CONTINUOUS
 10
3.793268
 20
1.780937
  0
VERTEX
  8
FOREGROUND
  6
CONTINUOUS
 10
3.783973
 20
1.792487
  0
VERTEX
  8
FOREGROUND
  6
CONTINUOUS
 10
3.774484
 20
1.803930
  0
VERTEX
  8
FOREGROUND
  6
CONTINUOUS
 10
3.764805
 20
1.815267
  0
VERTEX
  8
FOREGROUND
  6
CONTINUOUS
 10
3.754937
 20
1.826498
  0
VERTEX
  8
FOREGROUND
  6
CONTINUOUS
 10
3.744882
 20
1.837622
  0
VERTEX
  8
FOREGROUND
  6
CONTINUOUS
 10
3.734641
 20
1.848639
  0
VERTEX
  8
FOREGROUND
  6
CONTINUOUS
 10
3.724216
 20
1.859550
  0
VERTEX
  8
FOREGROUND
  6
CONTINUOUS
 10
3.713610
 20
1.870355
  0
VERTEX
  8
FOREGROUND
  6
CONTINUOUS
 10
3.702823
 20
1.881053
  0
VERTEX
  8
FOREGROUND
  6
CONTINUOUS
 10
3.691858
 20
1.891645
  0
VERTEX
  8
FOREGROUND
  6
CONTINUOUS
 10
3.680716
 20
1.902130
  0
VERTEX
  8
FOREGROUND
  6
CONTINUOUS
 10
3.669399
 20
1.912509
  0
VERTEX
  8
FOREGROUND
  6
CONTINUOUS
 10
3.657910
 20
1.922781
  0
VERTEX
  8
FOREGROUND
  6
CONTINUOUS
 10
3.646249
 20
1.932947
  0
VERTEX
  8
FOREGROUND
  6
CONTINUOUS
 10
3.634419
 20
1.943007
  0
VERTEX
  8
FOREGROUND
  6
CONTINUOUS
 10
3.622421
 20
1.952960
  0
VERTEX
  8
FOREGROUND
  6
CONTINUOUS
 10
3.610257
 20
1.962807
  0
VERTEX
  8
FOREGROUND
  6
CONTINUOUS
 10
3.597929
 20
1.972547
  0
VERTEX
  8
FOREGROUND
  6
CONTINUOUS
 10
3.585438
 20
1.982181
  0
VERTEX
  8
FOREGROUND
  6
CONTINUOUS
 10
3.572787
 20
1.991708
  0
VERTEX
  8
FOREGROUND
  6
CONTINUOUS
 10
3.559977
 20
2.001129
  0
VERTEX
  8
FOREGROUND
  6
CONTINUOUS
 10
3.547011
 20
2.010443
  0
VERTEX
  8
FOREGROUND
  6
CONTINUOUS
 10
3.533889
 20
2.019651
  0
VERTEX
  8
FOREGROUND
  6
CONTINUOUS
 10
3.520613
 20
2.028753
  0
VERTEX
  8
FOREGROUND
  6
CONTINUOUS
 10
3.507186
 20
2.037748
  0
VERTEX
  8
FOREGROUND
  6
CONTINUOUS
 10
3.493609
 20
2.046637
  0
VERTEX
  8
FOREGROUND
  6
CONTINUOUS
 10
3.479884
 20
2.055419
  0
VERTEX
  8
FOREGROUND
  6
CONTINUOUS
 10
3.466013
 20
2.064095
  0
VERTEX
  8
FOREGROUND
  6
CONTINUOUS
 10
3.451997
 20
2.072664
  0
VERTEX
  8
FOREGROUND
  6
CONTINUOUS
 10
3.437838
 20
2.081127
  0
VERTEX
  8
FOREGROUND
  6
CONTINUOUS
 10
3.423539
 20
2.089484
  0
VERTEX
  8
FOREGROUND
  6
CONTINUOUS
 10
3.409100
 20
2.097734
  0
VERTEX
  8
FOREGROUND
  6
CONTINUOUS
 10
3.394524
 20
2.105877
  0
VERTEX
  8
FOREGROUND
  6
CONTINUOUS
 10
3.379812
 20
2.113914
  0
VERTEX
  8
FOREGROUND
  6
CONTINUOUS
 10
3.364967
 20
2.121845
  0
VERTEX
  8
FOREGROUND
  6
CONTINUOUS
 10
3.349989
 20
2.129669
  0
VERTEX
  8
FOREGROUND
  6
CONTINUOUS
 10
3.334881
 20
2.137387
  0
VERTEX
  8
FOREGROUND
  6
CONTINUOUS
 10
3.319645
 20
2.144999
  0
VERTEX
  8
FOREGROUND
  6
CONTINUOUS
 10
3.304282
 20
2.152503
  0
VERTEX
  8
FOREGROUND
  6
CONTINUOUS
 10
3.288794
 20
2.159902
  0
VERTEX
  8
FOREGROUND
  6
CONTINUOUS
 10
3.273183
 20
2.167194
  0
VERTEX
  8
FOREGROUND
  6
CONTINUOUS
 10
3.257450
 20
2.174380
  0
VERTEX
  8
FOREGROUND
  6
CONTINUOUS
 10
3.241598
 20
2.181459
  0
VERTEX
  8
FOREGROUND
  6
CONTINUOUS
 10
3.225628
 20
2.188431
  0
VERTEX
  8
FOREGROUND
  6
CONTINUOUS
 10
3.209542
 20
2.195298
  0
VERTEX
  8
FOREGROUND
  6
CONTINUOUS
 10
3.193342
 20
2.202057
  0
VERTEX
  8
FOREGROUND
  6
CONTINUOUS
 10
3.177029
 20
2.208711
  0
VERTEX
  8
FOREGROUND
  6
CONTINUOUS
 10
3.160606
 20
2.215258
  0
VERTEX
  8
FOREGROUND
  6
CONTINUOUS
 10
3.144074
 20
2.221698
  0
VERTEX
  8
FOREGROUND
  6
CONTINUOUS
 10
3.127435
 20
2.228032
  0
VERTEX
  8
FOREGROUND
  6
CONTINUOUS
 10
3.110690
 20
2.234260
  0
VERTEX
  8
FOREGROUND
  6
CONTINUOUS
 10
3.093842
 20
2.240381
  0
VERTEX
  8
FOREGROUND
  6
CONTINUOUS
 10
3.076892
 20
2.246396
  0
VERTEX
  8
FOREGROUND
  6
CONTINUOUS
 10
3.059843
 20
2.252304
  0
VERTEX
  8
FOREGROUND
  6
CONTINUOUS
 10
3.042695
 20
2.258106
  0
VERTEX
  8
FOREGROUND
  6
CONTINUOUS
 10
3.025450
 20
2.263801
  0
VERTEX
  8
FOREGROUND
  6
CONTINUOUS
 10
3.008111
 20
2.269390
  0
VERTEX
  8
FOREGROUND
  6
CONTINUOUS
 10
2.990679
 20
2.274873
  0
VERTEX
  8
FOREGROUND
  6
CONTINUOUS
 10
2.973156
 20
2.280249
  0
VERTEX
  8
FOREGROUND
  6
CONTINUOUS
 10
2.955544
 20
2.285518
  0
VERTEX
  8
FOREGROUND
  6
CONTINUOUS
 10
2.937844
 20
2.290682
  0
VERTEX
  8
FOREGROUND
  6
CONTINUOUS
 10
2.920059
 20
2.295738
  0
VERTEX
  8
FOREGROUND
  6
CONTINUOUS
 10
2.902190
 20
2.300689
  0
VERTEX
  8
FOREGROUND
  6
CONTINUOUS
 10
2.884238
 20
2.305532
  0
VERTEX
  8
FOREGROUND
  6
CONTINUOUS
 10
2.866206
 20
2.310270
  0
VERTEX
  8
FOREGROUND
  6
CONTINUOUS
 10
2.848096
 20
2.314901
  0
VERTEX
  8
FOREGROUND
  6
CONTINUOUS
 10
2.829908
 20
2.319425
  0
VERTEX
  8
FOREGROUND
  6
CONTINUOUS
 10
2.811646
 20
2.323843
  0
VERTEX
  8
FOREGROUND
  6
CONTINUOUS
 10
2.793311
 20
2.328155
  0
VERTEX
  8
FOREGROUND
  6
CONTINUOUS
 10
2.774904
 20
2.332360
  0
VERTEX
  8
FOREGROUND
  6
CONTINUOUS
 10
2.756427
 20
2.336459
  0
VERTEX
  8
FOREGROUND
  6
CONTINUOUS
 10
2.737882
 20
2.340451
  0
VERTEX
  8
FOREGROUND
  6
CONTINUOUS
 10
2.719272
 20
2.344337
  0
VERTEX
  8
FOREGROUND
  6
CONTINUOUS
 10
2.700597
 20
2.348116
  0
VERTEX
  8
FOREGROUND
  6
CONTINUOUS
 10
2.681859
 20
2.351789
  0
VERTEX
  8
FOREGROUND
  6
CONTINUOUS
 10
2.663061
 20
2.355356
  0
VERTEX
  8
FOREGROUND
  6
CONTINUOUS
 10
2.644203
 20
2.358816
  0
VERTEX
  8
FOREGROUND
  6
CONTINUOUS
 10
2.625289
 20
2.362169
  0
VERTEX
  8
FOREGROUND
  6
CONTINUOUS
 10
2.606319
 20
2.365416
  0
VERTEX
  8
FOREGROUND
  6
CONTINUOUS
 10
2.587295
 20
2.368557
  0
VERTEX
  8
FOREGROUND
  6
CONTINUOUS
 10
2.568220
 20
2.371591
  0
VERTEX
  8
FOREGROUND
  6
CONTINUOUS
 10
2.549094
 20
2.374519
  0
VERTEX
  8
FOREGROUND
  6
CONTINUOUS
 10
2.529920
 20
2.377341
  0
VERTEX
  8
FOREGROUND
  6
CONTINUOUS
 10
2.510700
 20
2.380055
  0
VERTEX
  8
FOREGROUND
  6
CONTINUOUS
 10
2.491435
 20
2.382664
  0
VERTEX
  8
FOREGROUND
  6
CONTINUOUS
 10
2.472127
 20
2.385166
  0
VERTEX
  8
FOREGROUND
  6
CONTINUOUS
 10
2.452778
 20
2.387562
  0
VERTEX
  8
FOREGROUND
  6
CONTINUOUS
 10
2.433389
 20
2.389851
  0
VERTEX
  8
FOREGROUND
  6
CONTINUOUS
 10
2.413963
 20
2.392033
  0
VERTEX
  8
FOREGROUND
  6
CONTINUOUS
 10
2.394501
 20
2.394110
  0
VERTEX
  8
FOREGROUND
  6
CONTINUOUS
 10
2.375005
 20
2.396080
  0
VERTEX
  8
FOREGROUND
  6
CONTINUOUS
 10
2.355477
 20
2.397943
  0
VERTEX
  8
FOREGROUND
  6
CONTINUOUS
 10
2.335918
 20
2.399700
  0
VERTEX
  8
FOREGROUND
  6
CONTINUOUS
 10
2.316331
 20
2.401350
  0
VERTEX
  8
FOREGROUND
  6
CONTINUOUS
 10
2.296717
 20
2.402894
  0
VERTEX
  8
FOREGROUND
  6
CONTINUOUS
 10
2.277077
 20
2.404332
  0
VERTEX
  8
FOREGROUND
  6
CONTINUOUS
 10
2.257414
 20
2.405663
  0
VERTEX
  8
FOREGROUND
  6
CONTINUOUS
 10
2.237730
 20
2.406888
  0
VERTEX
  8
FOREGROUND
  6
CONTINUOUS
 10
2.218026
 20
2.408006
  0
VERTEX
  8
FOREGROUND
  6
CONTINUOUS
 10
2.198304
 20
2.409018
  0
VERTEX
  8
FOREGROUND
  6
CONTINUOUS
 10
2.178565
 20
2.409923
  0
VERTEX
  8
FOREGROUND
  6
CONTINUOUS
 10
2.158813
 20
2.410722
  0
VERTEX
  8
FOREGROUND
  6
CONTINUOUS
 10
2.139047
 20
2.411414
  0
VERTEX
  8
FOREGROUND
  6
CONTINUOUS
 10
2.119271
 20
2.412000
  0
VERTEX
  8
FOREGROUND
  6
CONTINUOUS
 10
2.099485
 20
2.412480
  0
VERTEX
  8
FOREGROUND
  6
CONTINUOUS
 10
2.079693
 20
2.412853
  0
VERTEX
  8
FOREGROUND
  6
CONTINUOUS
 10
2.059895
 20
2.413120
  0
VERTEX
  8
FOREGROUND
  6
CONTINUOUS
 10
2.040093
 20
2.413280
  0
VERTEX
  8
FOREGROUND
  6
CONTINUOUS
 10
2.020289
 20
2.413334
  0
VERTEX
  8
FOREGROUND
  6
CONTINUOUS
 10
2.000485
 20
2.413281
  0
VERTEX
  8
FOREGROUND
  6
CONTINUOUS
 10
1.980682
 20
2.413122
  0
VERTEX
  8
FOREGROUND
  6
CONTINUOUS
 10
1.960883
 20
2.412856
  0
VERTEX
  8
FOREGROUND
  6
CONTINUOUS
 10
1.941089
 20
2.412484
  0
VERTEX
  8
FOREGROUND
  6
CONTINUOUS
 10
1.921302
 20
2.412006
  0
VERTEX
  8
FOREGROUND
  6
CONTINUOUS
 10
1.901524
 20
2.411421
  0
VERTEX
  8
FOREGROUND
  6
CONTINUOUS
 10
1.881756
 20
2.410730
  0
VERTEX
  8
FOREGROUND
  6
CONTINUOUS
 10
1.862001
 20
2.409932
  0
VERTEX
  8
FOREGROUND
  6
CONTINUOUS
 10
1.842260
 20
2.409028
  0
VERTEX
  8
FOREGROUND
  6
CONTINUOUS
 10
1.822534
 20
2.408017
  0
VERTEX
  8
FOREGROUND
  6
CONTINUOUS
 10
1.802826
 20
2.406900
  0
VERTEX
  8
FOREGROUND
  6
CONTINUOUS
 10
1.783138
 20
2.405676
  0
VERTEX
  8
FOREGROUND
  6
CONTINUOUS
 10
1.763471
 20
2.404346
  0
VERTEX
  8
FOREGROUND
  6
CONTINUOUS
 10
1.743826
 20
2.402910
  0
VERTEX
  8
FOREGROUND
  6
CONTINUOUS
 10
1.724207
 20
2.401367
  0
VERTEX
  8
FOREGROUND
  6
CONTINUOUS
 10
1.704614
 20
2.399717
  0
VERTEX
  8
FOREGROUND
  6
CONTINUOUS
 10
1.685050
 20
2.397962
  0
VERTEX
  8
FOREGROUND
  6
CONTINUOUS
 10
1.665515
 20
2.396099
  0
VERTEX
  8
FOREGROUND
  6
CONTINUOUS
 10
1.646013
 20
2.394131
  0
VERTEX
  8
FOREGROUND
  6
CONTINUOUS
 10
1.626544
 20
2.392055
  0
VERTEX
  8
FOREGROUND
  6
CONTINUOUS
 10
1.607110
 20
2.389874
  0
VERTEX
  8
FOREGROUND
  6
CONTINUOUS
 10
1.587714
 20
2.387586
  0
VERTEX
  8
FOREGROUND
  6
CONTINUOUS
 10
1.568357
 20
2.385191
  0
VERTEX
  8
FOREGROUND
  6
CONTINUOUS
 10
1.549041
 20
2.382690
  0
VERTEX
  8
FOREGROUND
  6
CONTINUOUS
 10
1.529767
 20
2.380083
  0
VERTEX
  8
FOREGROUND
  6
CONTINUOUS
 10
1.510538
 20
2.377369
  0
VERTEX
  8
FOREGROUND
  6
CONTINUOUS
 10
1.491355
 20
2.374549
  0
VERTEX
  8
FOREGROUND
  6
CONTINUOUS
 10
1.472220
 20
2.371622
  0
VERTEX
  8
FOREGROUND
  6
CONTINUOUS
 10
1.453134
 20
2.368589
  0
VERTEX
  8
FOREGROUND
  6
CONTINUOUS
 10
1.434100
 20
2.365449
  0
VERTEX
  8
FOREGROUND
  6
CONTINUOUS
 10
1.415119
 20
2.362203
  0
VERTEX
  8
FOREGROUND
  6
CONTINUOUS
 10
1.396194
 20
2.358850
  0
VERTEX
  8
FOREGROUND
  6
CONTINUOUS
 10
1.377325
 20
2.355391
  0
VERTEX
  8
FOREGROUND
  6
CONTINUOUS
 10
1.358515
 20
2.351826
  0
VERTEX
  8
FOREGROUND
  6
CONTINUOUS
 10
1.339765
 20
2.348154
  0
VERTEX
  8
FOREGROUND
  6
CONTINUOUS
 10
1.321078
 20
2.344376
  0
VERTEX
  8
FOREGROUND
  6
CONTINUOUS
 10
1.302454
 20
2.340491
  0
VERTEX
  8
FOREGROUND
  6
CONTINUOUS
 10
1.283896
 20
2.336500
  0
VERTEX
  8
FOREGROUND
  6
CONTINUOUS
 10
1.265406
 20
2.332402
  0
VERTEX
  8
FOREGROUND
  6
CONTINUOUS
 10
1.246985
 20
2.328198
  0
VERTEX
  8
FOREGROUND
  6
CONTINUOUS
 10
1.228635
 20
2.323887
  0
VERTEX
  8
FOREGROUND
  6
CONTINUOUS
 10
1.210358
 20
2.319470
  0
VERTEX
  8
FOREGROUND
  6
CONTINUOUS
 10
1.192156
 20
2.314947
  0
VERTEX
  8
FOREGROUND
  6
CONTINUOUS
 10
1.174030
 20
2.310317
  0
VERTEX
  8
FOREGROUND
  6
CONTINUOUS
 10
1.155983
 20
2.305580
  0
VERTEX
  8
FOREGROUND
  6
CONTINUOUS
 10
1.138015
 20
2.300738
  0
VERTEX
  8
FOREGROUND
  6
CONTINUOUS
 10
1.120129
 20
2.295788
  0
VERTEX
  8
FOREGROUND
  6
CONTINUOUS
 10
1.102327
 20
2.290733
  0
VERTEX
  8
FOREGROUND
  6
CONTINUOUS
 10
1.084610
 20
2.285570
  0
VERTEX
  8
FOREGROUND
  6
CONTINUOUS
 10
1.066981
 20
2.280302
  0
VERTEX
  8
FOREGROUND
  6
CONTINUOUS
 10
1.049440
 20
2.274927
  0
VERTEX
  8
FOREGROUND
  6
CONTINUOUS
 10
1.031990
 20
2.269445
  0
VERTEX
  8
FOREGROUND
  6
CONTINUOUS
 10
1.014633
 20
2.263857
  0
VERTEX
  8
FOREGROUND
  6
CONTINUOUS
 10
0.997369
 20
2.258163
  0
VERTEX
  8
FOREGROUND
  6
CONTINUOUS
 10
0.980202
 20
2.252362
  0
VERTEX
  8
FOREGROUND
  6
CONTINUOUS
 10
0.963133
 20
2.246455
  0
VERTEX
  8
FOREGROUND
  6
CONTINUOUS
 10
0.946163
 20
2.240441
  0
VERTEX
  8
FOREGROUND
  6
CONTINUOUS
 10
0.929295
 20
2.234321
  0
VERTEX
  8
FOREGROUND
  6
CONTINUOUS
 10
0.912529
 20
2.228094
  0
VERTEX
  8
FOREGROUND
  6
CONTINUOUS
 10
0.895869
 20
2.221761
  0
VERTEX
  8
FOREGROUND
  6
CONTINUOUS
 10
0.879316
 20
2.215321
  0
VERTEX
  8
FOREGROUND
  6
CONTINUOUS
 10
0.862871
 20
2.208775
  0
VERTEX
  8
FOREGROUND
  6
CONTINUOUS
 10
0.846536
 20
2.202123
  0
VERTEX
  8
FOREGROUND
  6
CONTINUOUS
 10
0.830314
 20
2.195364
  0
VERTEX
  8
FOREGROUND
  6
CONTINUOUS
 10
0.814205
 20
2.188498
  0
VERTEX
  8
FOREGROUND
  6
CONTINUOUS
 10
0.798212
 20
2.181527
  0
VERTEX
  8
FOREGROUND
  6
CONTINUOUS
 10
0.782337
 20
2.174448
  0
VERTEX
  8
FOREGROUND
  6
CONTINUOUS
 10
0.766580
 20
2.167264
  0
VERTEX
  8
FOREGROUND
  6
CONTINUOUS
 10
0.750945
 20
2.159973
  0
VERTEX
  8
FOREGROUND
  6
CONTINUOUS
 10
0.735433
 20
2.152575
  0
VERTEX
  8
FOREGROUND
  6
CONTINUOUS
 10
0.720045
 20
2.145071
  0
VERTEX
  8
FOREGROUND
  6
CONTINUOUS
 10
0.704783
 20
2.137460
  0
VERTEX
  8
FOREGROUND
  6
CONTINUOUS
 10
0.689650
 20
2.129743
  0
VERTEX
  8
FOREGROUND
  6
CONTINUOUS
 10
0.674646
 20
2.121920
  0
VERTEX
  8
FOREGROUND
  6
CONTINUOUS
 10
0.659774
 20
2.113990
  0
VERTEX
  8
FOREGROUND
  6
CONTINUOUS
 10
0.645036
 20
2.105954
  0
VERTEX
  8
FOREGROUND
  6
CONTINUOUS
 10
0.630433
 20
2.097811
  0
VERTEX
  8
FOREGROUND
  6
CONTINUOUS
 10
0.615967
 20
2.089562
  0
VERTEX
  8
FOREGROUND
  6
CONTINUOUS
 10
0.601640
 20
2.081206
  0
VERTEX
  8
FOREGROUND
  6
CONTINUOUS
 10
0.587453
 20
2.072744
  0
VERTEX
  8
FOREGROUND
  6
CONTINUOUS
 10
0.573409
 20
2.064175
  0
VERTEX
  8
FOREGROUND
  6
CONTINUOUS
 10
0.559509
 20
2.055500
  0
VERTEX
  8
FOREGROUND
  6
CONTINUOUS
 10
0.545755
 20
2.046719
  0
VERTEX
  8
FOREGROUND
  6
CONTINUOUS
 10
0.532148
 20
2.037831
  0
VERTEX
  8
FOREGROUND
  6
CONTINUOUS
 10
0.518692
 20
2.028837
  0
VERTEX
  8
FOREGROUND
  6
CONTINUOUS
 10
0.505386
 20
2.019736
  0
VERTEX
  8
FOREGROUND
  6
CONTINUOUS
 10
0.492234
 20
2.010528
  0
VERTEX
  8
FOREGROUND
  6
CONTINUOUS
 10
0.479236
 20
2.001215
  0
VERTEX
  8
FOREGROUND
  6
CONTINUOUS
 10
0.466395
 20
1.991795
  0
VERTEX
  8
FOREGROUND
  6
CONTINUOUS
 10
0.453712
 20
1.982268
  0
VERTEX
  8
FOREGROUND
  6
CONTINUOUS
 10
0.441190
 20
1.972635
  0
VERTEX
  8
FOREGROUND
  6
CONTINUOUS
 10
0.428830
 20
1.962895
  0
VERTEX
  8
FOREGROUND
  6
CONTINUOUS
 10
0.416633
 20
1.953049
  0
VERTEX
  8
FOREGROUND
  6
CONTINUOUS
 10
0.404602
 20
1.943097
  0
VERTEX
  8
FOREGROUND
  6
CONTINUOUS
 10
0.392739
 20
1.933038
  0
VERTEX
  8
FOREGROUND
  6
CONTINUOUS
 10
0.381044
 20
1.922873
  0
VERTEX
  8
FOREGROUND
  6
CONTINUOUS
 10
0.369521
 20
1.912601
  0
VERTEX
  8
FOREGROUND
  6
CONTINUOUS
 10
0.358170
 20
1.902223
  0
VERTEX
  8
FOREGROUND
  6
CONTINUOUS
 10
0.346993
 20
1.891738
  0
VERTEX
  8
FOREGROUND
  6
CONTINUOUS
 10
0.335993
 20
1.881147
  0
VERTEX
  8
FOREGROUND
  6
CONTINUOUS
 10
0.325171
 20
1.870449
  0
VERTEX
  8
FOREGROUND
  6
CONTINUOUS
 10
0.314529
 20
1.859645
  0
VERTEX
  8
FOREGROUND
  6
CONTINUOUS
 10
0.304068
 20
1.848735
  0
VERTEX
  8
FOREGROUND
  6
CONTINUOUS
 10
0.293790
 20
1.837718
  0
VERTEX
  8
FOREGROUND
  6
CONTINUOUS
 10
0.283698
 20
1.826594
  0
VERTEX
  8
FOREGROUND
  6
CONTINUOUS
 10
0.273793
 20
1.815364
  0
VERTEX
  8
FOREGROUND
  6
CONTINUOUS
 10
0.264076
 20
1.804028
  0
VERTEX
  8
FOREGROUND
  6
CONTINUOUS
 10
0.254550
 20
1.792585
  0
VERTEX
  8
FOREGROUND
  6
CONTINUOUS
 10
0.245217
 20
1.781036
  0
VERTEX
  8
FOREGROUND
  6
CONTINUOUS
 10
0.236077
 20
1.769380
  0
VERTEX
  8
FOREGROUND
  6
CONTINUOUS
 10
0.227133
 20
1.757618
  0
VERTEX
  8
FOREGROUND
  6
CONTINUOUS
 10
0.218387
 20
1.745750
  0
VERTEX
  8
FOREGROUND
  6
CONTINUOUS
 10
0.209840
 20
1.733775
  0
VERTEX
  8
FOREGROUND
  6
CONTINUOUS
 10
0.201494
 20
1.721693
  0
VERTEX
  8
FOREGROUND
  6
CONTINUOUS
 10
0.193352
 20
1.709505
  0
VERTEX
  8
FOREGROUND
  6
CONTINUOUS
 10
0.185414
 20
1.697211
  0
VERTEX
  8
FOREGROUND
  6
CONTINUOUS
 10
0.177683
 20
1.684810
  0
VERTEX
  8
FOREGROUND
  6
CONTINUOUS
 10
0.170160
 20
1.672303
  0
VERTEX
  8
FOREGROUND
  6
CONTINUOUS
 10
0.162847
 20
1.659689
  0
VERTEX
  8
FOREGROUND
  6
CONTINUOUS
 10
0.155746
 20
1.646969
  0
VERTEX
  8
FOREGROUND
  6
CONTINUOUS
 10
0.148859
 20
1.634142
  0
VERTEX
  8
FOREGROUND
  6
CONTINUOUS
 10
0.142187
 20
1.621209
  0
VERTEX
  8
FOREGROUND
  6
CONTINUOUS
 10
0.135732
 20
1.608170
  0
VERTEX
  8
FOREGROUND
  6
CONTINUOUS
 10
0.129497
 20
1.595024
  0
VERTEX
  8
FOREGROUND
  6
CONTINUOUS
 10
0.123482
 20
1.581771
  0
VERTEX
  8
FOREGROUND
  6
CONTINUOUS
 10
0.117690
 20
1.568412
  0
VERTEX
  8
FOREGROUND
  6
CONTINUOUS
 10
0.112122
 20
1.554947
  0
VERTEX
  8
FOREGROUND
  6
CONTINUOUS
 10
0.106780
 20
1.541375
  0
VERTEX
  8
FOREGROUND
  6
CONTINUOUS
 10
0.101666
 20
1.527697
  0
VERTEX
  8
FOREGROUND
  6
CONTINUOUS
 10
0.096782
 20
1.513912
  0
VERTEX
  8
FOREGROUND
  6
CONTINUOUS
 10
0.092130
 20
1.500021
  0
VERTEX
  8
FOREGROUND
  6
CONTINUOUS
 10
0.087711
 20
1.486023
  0
VERTEX
  8
FOREGROUND
  6
CONTINUOUS
 10
0.083526
 20
1.471919
  0
VERTEX
  8
FOREGROUND
  6
CONTINUOUS
 10
0.079579
 20
1.457709
  0
VERTEX
  8
FOREGROUND
  6
CONTINUOUS
 10
0.075870
 20
1.443392
  0
VERTEX
  8
FOREGROUND
  6
CONTINUOUS
 10
0.072402
 20
1.428968
  0
VERTEX
  8
FOREGROUND
  6
CONTINUOUS
 10
0.069176
 20
1.414438
  0
VERTEX
  8
FOREGROUND
  6
CONTINUOUS
 10
0.066194
 20
1.399802
  0
VERTEX
  8
FOREGROUND
  6
CONTINUOUS
 10
0.063457
 20
1.385059
  0
VERTEX
  8
FOREGROUND
  6
CONTINUOUS
 10
0.060968
 20
1.370210
  0
VERTEX
  8
FOREGROUND
  6
CONTINUOUS
 10
0.058729
 20
1.355254
  0
VERTEX
  8
FOREGROUND
  6
CONTINUOUS
 10
0.056740
 20
1.340192
  0
VERTEX
  8
FOREGROUND
  6
CONTINUOUS
 10
0.055005
 20
1.325023
  0
VERTEX
  8
FOREGROUND
  6
CONTINUOUS
 10
0.053524
 20
1.309748
  0
VERTEX
  8
FOREGROUND
  6
CONTINUOUS
 10
0.052299
 20
1.294367
  0
VERTEX
  8
FOREGROUND
  6
CONTINUOUS
 10
0.051333
 20
1.278879
  0
VERTEX
  8
FOREGROUND
  6
CONTINUOUS
 10
0.050627
 20
1.263284
  0
VERTEX
  8
FOREGROUND
  6
CONTINUOUS
 10
0.050182
 20
1.247583
  0
VERTEX
  8
FOREGROUND
  6
CONTINUOUS
 10
0.050002
 20
1.231776
  0
VERTEX
  8
FOREGROUND
  6
CONTINUOUS
 10
0.050002
 20
1.231776
  0
VERTEX
  8
FOREGROUND
  6
CONTINUOUS
 10
0.050128
 20
1.215969
  0
VERTEX
  8
FOREGROUND
  6
CONTINUOUS
 10
0.050518
 20
1.200268
  0
VERTEX
  8
FOREGROUND
  6
CONTINUOUS
 10
0.051170
 20
1.184673
  0
VERTEX
  8
FOREGROUND
  6
CONTINUOUS
 10
0.052083
 20
1.169185
  0
VERTEX
  8
FOREGROUND
  6
CONTINUOUS
 10
0.053254
 20
1.153804
  0
VERTEX
  8
FOREGROUND
  6
CONTINUOUS
 10
0.054682
 20
1.138528
  0
VERTEX
  8
FOREGROUND
  6
CONTINUOUS
 10
0.056365
 20
1.123360
  0
VERTEX
  8
FOREGROUND
  6
CONTINUOUS
 10
0.058301
 20
1.108297
  0
VERTEX
  8
FOREGROUND
  6
CONTINUOUS
 10
0.060489
 20
1.093341
  0
VERTEX
  8
FOREGROUND
  6
CONTINUOUS
 10
0.062926
 20
1.078492
  0
VERTEX
  8
FOREGROUND
  6
CONTINUOUS
 10
0.065612
 20
1.063749
  0
VERTEX
  8
FOREGROUND
  6
CONTINUOUS
 10
0.068543
 20
1.049112
  0
VERTEX
  8
FOREGROUND
  6
CONTINUOUS
 10
0.071719
 20
1.034582
  0
VERTEX
  8
FOREGROUND
  6
CONTINUOUS
 10
0.075137
 20
1.020158
  0
VERTEX
  8
FOREGROUND
  6
CONTINUOUS
 10
0.078797
 20
1.005840
  0
VERTEX
  8
FOREGROUND
  6
CONTINUOUS
 10
0.082695
 20
0.991629
  0
VERTEX
  8
FOREGROUND
  6
CONTINUOUS
 10
0.086830
 20
0.977525
  0
VERTEX
  8
FOREGROUND
  6
CONTINUOUS
 10
0.091201
 20
0.963527
  0
VERTEX
  8
FOREGROUND
  6
CONTINUOUS
 10
0.095805
 20
0.949635
  0
VERTEX
  8
FOREGROUND
  6
CONTINUOUS
 10
0.100641
 20
0.935850
  0
VERTEX
  8
FOREGROUND
  6
CONTINUOUS
 10
0.105708
 20
0.922171
  0
VERTEX
  8
FOREGROUND
  6
CONTINUOUS
 10
0.111002
 20
0.908599
  0
VERTEX
  8
FOREGROUND
  6
CONTINUOUS
 10
0.116524
 20
0.895133
  0
VERTEX
  8
FOREGROUND
  6
CONTINUOUS
 10
0.122270
 20
0.881773
  0
VERTEX
  8
FOREGROUND
  6
CONTINUOUS
 10
0.128238
 20
0.868520
  0
VERTEX
  8
FOREGROUND
  6
CONTINUOUS
 10
0.134428
 20
0.855373
  0
VERTEX
  8
FOREGROUND
  6
CONTINUOUS
 10
0.140838
 20
0.842333
  0
VERTEX
  8
FOREGROUND
  6
CONTINUOUS
 10
0.147465
 20
0.829399
  0
VERTEX
  8
FOREGROUND
  6
CONTINUOUS
 10
0.154308
 20
0.816572
  0
VERTEX
  8
FOREGROUND
  6
CONTINUOUS
 10
0.161365
 20
0.803851
  0
VERTEX
  8
FOREGROUND
  6
CONTINUOUS
 10
0.168634
 20
0.791236
  0
VERTEX
  8
FOREGROUND
  6
CONTINUOUS
 10
0.176113
 20
0.778728
  0
VERTEX
  8
FOREGROUND
  6
CONTINUOUS
 10
0.183802
 20
0.766326
  0
VERTEX
  8
FOREGROUND
  6
CONTINUOUS
 10
0.191697
 20
0.754031
  0
VERTEX
  8
FOREGROUND
  6
CONTINUOUS
 10
0.199797
 20
0.741842
  0
VERTEX
  8
FOREGROUND
  6
CONTINUOUS
 10
0.208101
 20
0.729760
  0
VERTEX
  8
FOREGROUND
  6
CONTINUOUS
 10
0.216606
 20
0.717784
  0
VERTEX
  8
FOREGROUND
  6
CONTINUOUS
 10
0.225312
 20
0.705914
  0
VERTEX
  8
FOREGROUND
  6
CONTINUOUS
 10
0.234215
 20
0.694151
  0
VERTEX
  8
FOREGROUND
  6
CONTINUOUS
 10
0.243314
 20
0.682495
  0
VERTEX
  8
FOREGROUND
  6
CONTINUOUS
 10
0.252608
 20
0.670944
  0
VERTEX
  8
FOREGROUND
  6
CONTINUOUS
 10
0.262094
 20
0.659501
  0
VERTEX
  8
FOREGROUND
  6
CONTINUOUS
 10
0.271771
 20
0.648163
  0
VERTEX
  8
FOREGROUND
  6
CONTINUOUS
 10
0.281638
 20
0.636932
  0
VERTEX
  8
FOREGROUND
  6
CONTINUOUS
 10
0.291691
 20
0.625808
  0
VERTEX
  8
FOREGROUND
  6
CONTINUOUS
 10
0.301931
 20
0.614790
  0
VERTEX
  8
FOREGROUND
  6
CONTINUOUS
 10
0.312354
 20
0.603878
  0
VERTEX
  8
FOREGROUND
  6
CONTINUOUS
 10
0.322959
 20
0.593073
  0
VERTEX
  8
FOREGROUND
  6
CONTINUOUS
 10
0.333744
 20
0.582374
  0
VERTEX
  8
FOREGROUND
  6
CONTINUOUS
 10
0.344707
 20
0.571782
  0
VERTEX
  8
FOREGROUND
  6
CONTINUOUS
 10
0.355847
 20
0.561296
  0
VERTEX
  8
FOREGROUND
  6
CONTINUOUS
 10
0.367162
 20
0.550916
  0
VERTEX
  8
FOREGROUND
  6
CONTINUOUS
 10
0.378650
 20
0.540643
  0
VERTEX
  8
FOREGROUND
  6
CONTINUOUS
 10
0.390310
 20
0.530476
  0
VERTEX
  8
FOREGROUND
  6
CONTINUOUS
 10
0.402138
 20
0.520416
  0
VERTEX
  8
FOREGROUND
  6
CONTINUOUS
 10
0.414135
 20
0.510462
  0
VERTEX
  8
FOREGROUND
  6
CONTINUOUS
 10
0.426297
 20
0.500615
  0
VERTEX
  8
FOREGROUND
  6
CONTINUOUS
 10
0.438624
 20
0.490874
  0
VERTEX
  8
FOREGROUND
  6
CONTINUOUS
 10
0.451113
 20
0.481240
  0
VERTEX
  8
FOREGROUND
  6
CONTINUOUS
 10
0.463762
 20
0.471712
  0
VERTEX
  8
FOREGROUND
  6
CONTINUOUS
 10
0.476571
 20
0.462290
  0
VERTEX
  8
FOREGROUND
  6
CONTINUOUS
 10
0.489536
 20
0.452975
  0
VERTEX
  8
FOREGROUND
  6
CONTINUOUS
 10
0.502656
 20
0.443766
  0
VERTEX
  8
FOREGROUND
  6
CONTINUOUS
 10
0.515930
 20
0.434664
  0
VERTEX
  8
FOREGROUND
  6
CONTINUOUS
 10
0.529356
 20
0.425668
  0
VERTEX
  8
FOREGROUND
  6
CONTINUOUS
 10
0.542932
 20
0.416778
  0
VERTEX
  8
FOREGROUND
  6
CONTINUOUS
 10
0.556655
 20
0.407995
  0
VERTEX
  8
FOREGROUND
  6
CONTINUOUS
 10
0.570525
 20
0.399319
  0
VERTEX
  8
FOREGROUND
  6
CONTINUOUS
 10
0.584540
 20
0.390749
  0
VERTEX
  8
FOREGROUND
  6
CONTINUOUS
 10
0.598697
 20
0.382285
  0
VERTEX
  8
FOREGROUND
  6
CONTINUOUS
 10
0.612995
 20
0.373928
  0
VERTEX
  8
FOREGROUND
  6
CONTINUOUS
 10
0.627433
 20
0.365677
  0
VERTEX
  8
FOREGROUND
  6
CONTINUOUS
 10
0.642008
 20
0.357533
  0
VERTEX
  8
FOREGROUND
  6
CONTINUOUS
 10
0.656718
 20
0.349495
  0
VERTEX
  8
FOREGROUND
  6
CONTINUOUS
 10
0.671563
 20
0.341563
  0
VERTEX
  8
FOREGROUND
  6
CONTINUOUS
 10
0.686539
 20
0.333738
  0
VERTEX
  8
FOREGROUND
  6
CONTINUOUS
 10
0.701646
 20
0.326019
  0
VERTEX
  8
FOREGROUND
  6
CONTINUOUS
 10
0.716881
 20
0.318407
  0
VERTEX
  8
FOREGROUND
  6
CONTINUOUS
 10
0.732243
 20
0.310901
  0
VERTEX
  8
FOREGROUND
  6
CONTINUOUS
 10
0.747730
 20
0.303502
  0
VERTEX
  8
FOREGROUND
  6
CONTINUOUS
 10
0.763340
 20
0.296209
  0
VERTEX
  8
FOREGROUND
  6
CONTINUOUS
 10
0.779071
 20
0.289023
  0
VERTEX
  8
FOREGROUND
  6
CONTINUOUS
 10
0.794922
 20
0.281943
  0
VERTEX
  8
FOREGROUND
  6
CONTINUOUS
 10
0.810891
 20
0.274969
  0
VERTEX
  8
FOREGROUND
  6
CONTINUOUS
 10
0.826976
 20
0.268102
  0
VERTEX
  8
FOREGROUND
  6
CONTINUOUS
 10
0.843175
 20
0.261341
  0
VERTEX
  8
FOREGROUND
  6
CONTINUOUS
 10
0.859487
 20
0.254687
  0
VERTEX
  8
FOREGROUND
  6
CONTINUOUS
 10
0.875909
 20
0.248139
  0
VERTEX
  8
FOREGROUND
  6
CONTINUOUS
 10
0.892440
 20
0.241698
  0
VERTEX
  8
FOREGROUND
  6
CONTINUOUS
 10
0.909078
 20
0.235363
  0
VERTEX
  8
FOREGROUND
  6
CONTINUOUS
 10
0.925822
 20
0.229134
  0
VERTEX
  8
FOREGROUND
  6
CONTINUOUS
 10
0.942669
 20
0.223012
  0
VERTEX
  8
FOREGROUND
  6
CONTINUOUS
 10
0.959618
 20
0.216996
  0
VERTEX
  8
FOREGROUND
  6
CONTINUOUS
 10
0.976667
 20
0.211087
  0
VERTEX
  8
FOREGROUND
  6
CONTINUOUS
 10
0.993814
 20
0.205284
  0
VERTEX
  8
FOREGROUND
  6
CONTINUOUS
 10
1.011057
 20
0.199588
  0
VERTEX
  8
FOREGROUND
  6
CONTINUOUS
 10
1.028395
 20
0.193998
  0
VERTEX
  8
FOREGROUND
  6
CONTINUOUS
 10
1.045826
 20
0.188515
  0
VERTEX
  8
FOREGROUND
  6
CONTINUOUS
 10
1.063349
 20
0.183138
  0
VERTEX
  8
FOREGROUND
  6
CONTINUOUS
 10
1.080960
 20
0.177867
  0
VERTEX
  8
FOREGROUND
  6
CONTINUOUS
 10
1.098659
 20
0.172703
  0
VERTEX
  8
FOREGROUND
  6
CONTINUOUS
 10
1.116444
 20
0.167645
  0
VERTEX
  8
FOREGROUND
  6
CONTINUOUS
 10
1.134312
 20
0.162694
  0
VERTEX
  8
FOREGROUND
  6
CONTINUOUS
 10
1.152263
 20
0.157849
  0
VERTEX
  8
FOREGROUND
  6
CONTINUOUS
 10
1.170294
 20
0.153111
  0
VERTEX
  8
FOREGROUND
  6
CONTINUOUS
 10
1.188404
 20
0.148479
  0
VERTEX
  8
FOREGROUND
  6
CONTINUOUS
 10
1.206590
 20
0.143953
  0
VERTEX
  8
FOREGROUND
  6
CONTINUOUS
 10
1.224852
 20
0.139534
  0
VERTEX
  8
FOREGROUND
  6
CONTINUOUS
 10
1.243187
 20
0.135222
  0
VERTEX
  8
FOREGROUND
  6
CONTINUOUS
 10
1.261593
 20
0.131015
  0
VERTEX
  8
FOREGROUND
  6
CONTINUOUS
 10
1.280069
 20
0.126916
  0
VERTEX
  8
FOREGROUND
  6
CONTINUOUS
 10
1.298613
 20
0.122922
  0
VERTEX
  8
FOREGROUND
  6
CONTINUOUS
 10
1.317223
 20
0.119035
  0
VERTEX
  8
FOREGROUND
  6
CONTINUOUS
 10
1.335898
 20
0.115255
  0
VERTEX
  8
FOREGROUND
  6
CONTINUOUS
 10
1.354635
 20
0.111581
  0
VERTEX
  8
FOREGROUND
  6
CONTINUOUS
 10
1.373433
 20
0.108014
  0
VERTEX
  8
FOREGROUND
  6
CONTINUOUS
 10
1.392289
 20
0.104552
  0
VERTEX
  8
FOREGROUND
  6
CONTINUOUS
 10
1.411203
 20
0.101198
  0
VERTEX
  8
FOREGROUND
  6
CONTINUOUS
 10
1.430173
 20
0.097950
  0
VERTEX
  8
FOREGROUND
  6
CONTINUOUS
 10
1.449196
 20
0.094808
  0
VERTEX
  8
FOREGROUND
  6
CONTINUOUS
 10
1.468271
 20
0.091772
  0
VERTEX
  8
FOREGROUND
  6
CONTINUOUS
 10
1.487396
 20
0.088844
  0
VERTEX
  8
FOREGROUND
  6
CONTINUOUS
 10
1.506569
 20
0.086021
  0
VERTEX
  8
FOREGROUND
  6
CONTINUOUS
 10
1.525789
 20
0.083305
  0
VERTEX
  8
FOREGROUND
  6
CONTINUOUS
 10
1.545054
 20
0.080696
  0
VERTEX
  8
FOREGROUND
  6
CONTINUOUS
 10
1.564362
 20
0.078192
  0
VERTEX
  8
FOREGROUND
  6
CONTINUOUS
 10
1.583710
 20
0.075796
  0
VERTEX
  8
FOREGROUND
  6
CONTINUOUS
 10
1.603099
 20
0.073506
  0
VERTEX
  8
FOREGROUND
  6
CONTINUOUS
 10
1.622524
 20
0.071322
  0
VERTEX
  8
FOREGROUND
  6
CONTINUOUS
 10
1.641986
 20
0.069244
  0
VERTEX
  8
FOREGROUND
  6
CONTINUOUS
 10
1.661482
 20
0.067274
  0
VERTEX
  8
FOREGROUND
  6
CONTINUOUS
 10
1.681010
 20
0.065409
  0
VERTEX
  8
FOREGROUND
  6
CONTINUOUS
 10
1.700568
 20
0.063651
  0
VERTEX
  8
FOREGROUND
  6
CONTINUOUS
 10
1.720155
 20
0.062000
  0
VERTEX
  8
FOREGROUND
  6
CONTINUOUS
 10
1.739769
 20
0.060454
  0
VERTEX
  8
FOREGROUND
  6
CONTINUOUS
 10
1.759409
 20
0.059016
  0
VERTEX
  8
FOREGROUND
  6
CONTINUOUS
 10
1.779071
 20
0.057684
  0
VERTEX
  8
FOREGROUND
  6
CONTINUOUS
 10
1.798755
 20
0.056458
  0
VERTEX
  8
FOREGROUND
  6
CONTINUOUS
 10
1.818459
 20
0.055338
  0
VERTEX
  8
FOREGROUND
  6
CONTINUOUS
 10
1.838181
 20
0.054326
  0
VERTEX
  8
FOREGROUND
  6
CONTINUOUS
 10
1.857919
 20
0.053419
  0
VERTEX
  8
FOREGROUND
  6
CONTINUOUS
 10
1.877672
 20
0.052619
  0
VERTEX
  8
FOREGROUND
  6
CONTINUOUS
 10
1.897437
 20
0.051926
  0
VERTEX
  8
FOREGROUND
  6
CONTINUOUS
 10
1.917214
 20
0.051338
  0
VERTEX
  8
FOREGROUND
  6
CONTINUOUS
 10
1.936999
 20
0.050858
  0
VERTEX
  8
FOREGROUND
  6
CONTINUOUS
 10
1.956792
 20
0.050484
  0
VERTEX
  8
FOREGROUND
  6
CONTINUOUS
 10
1.976590
 20
0.050216
  0
VERTEX
  8
FOREGROUND
  6
CONTINUOUS
 10
1.996392
 20
0.050054
  0
VERTEX
  8
FOREGROUND
  6
CONTINUOUS
 10
2.016196
 20
0.050000
  0
VERTEX
  8
FOREGROUND
  6
CONTINUOUS
 10
2.036000
 20
0.050051
  0
VERTEX
  8
FOREGROUND
  6
CONTINUOUS
 10
2.055802
 20
0.050209
  0
VERTEX
  8
FOREGROUND
  6
CONTINUOUS
 10
2.075601
 20
0.050474
  0
VERTEX
  8
FOREGROUND
  6
CONTINUOUS
 10
2.095395
 20
0.050845
  0
VERTEX
  8
FOREGROUND
  6
CONTINUOUS
 10
2.115182
 20
0.051322
  0
VERTEX
  8
FOREGROUND
  6
CONTINUOUS
 10
2.134961
 20
0.051906
  0
VERTEX
  8
FOREGROUND
  6
CONTINUOUS
 10
2.154728
 20
0.052596
  0
VERTEX
  8
FOREGROUND
  6
CONTINUOUS
 10
2.174484
 20
0.053393
  0
VERTEX
  8
FOREGROUND
  6
CONTINUOUS
 10
2.194225
 20
0.054296
  0
VERTEX
  8
FOREGROUND
  6
CONTINUOUS
 10
2.213951
 20
0.055305
  0
VERTEX
  8
FOREGROUND
  6
CONTINUOUS
 10
2.233659
 20
0.056421
  0
VERTEX
  8
FOREGROUND
  6
CONTINUOUS
 10
2.253348
 20
0.057644
  0
VERTEX
  8
FOREGROUND
  6
CONTINUOUS
 10
2.273015
 20
0.058973
  0
VERTEX
  8
FOREGROUND
  6
CONTINUOUS
 10
2.292659
 20
0.060408
  0
VERTEX
  8
FOREGROUND
  6
CONTINUOUS
 10
2.312279
 20
0.061950
  0
VERTEX
  8
FOREGROUND
  6
CONTINUOUS
 10
2.331872
 20
0.063598
  0
VERTEX
  8
FOREGROUND
  6
CONTINUOUS
 10
2.351437
 20
0.065353
  0
VERTEX
  8
FOREGROUND
  6
CONTINUOUS
 10
2.370972
 20
0.067214
  0
VERTEX
  8
FOREGROUND
  6
CONTINUOUS
 10
2.390475
 20
0.069182
  0
VERTEX
  8
FOREGROUND
  6
CONTINUOUS
 10
2.409944
 20
0.071256
  0
VERTEX
  8
FOREGROUND
  6
CONTINUOUS
 10
2.429377
 20
0.073437
  0
VERTEX
  8
FOREGROUND
  6
CONTINUOUS
 10
2.448774
 20
0.075724
  0
VERTEX
  8
FOREGROUND
  6
CONTINUOUS
 10
2.468131
 20
0.078117
  0
VERTEX
  8
FOREGROUND
  6
CONTINUOUS
 10
2.487448
 20
0.080617
  0
VERTEX
  8
FOREGROUND
  6
CONTINUOUS
 10
2.506722
 20
0.083223
  0
VERTEX
  8
FOREGROUND
  6
CONTINUOUS
 10
2.525952
 20
0.085936
  0
VERTEX
  8
FOREGROUND
  6
CONTINUOUS
 10
2.545135
 20
0.088755
  0
VERTEX
  8
FOREGROUND
  6
CONTINUOUS
 10
2.564271
 20
0.091681
  0
VERTEX
  8
FOREGROUND
  6
CONTINUOUS
 10
2.583357
 20
0.094713
  0
VERTEX
  8
FOREGROUND
  6
CONTINUOUS
 10
2.602391
 20
0.097852
  0
VERTEX
  8
FOREGROUND
  6
CONTINUOUS
 10
2.621373
 20
0.101097
  0
VERTEX
  8
FOREGROUND
  6
CONTINUOUS
 10
2.640299
 20
0.104448
  0
VERTEX
  8
FOREGROUND
  6
CONTINUOUS
 10
2.659168
 20
0.107906
  0
VERTEX
  8
FOREGROUND
  6
CONTINUOUS
 10
2.677979
 20
0.111471
  0
VERTEX
  8
FOREGROUND
  6
CONTINUOUS
 10
2.696729
 20
0.115141
  0
VERTEX
  8
FOREGROUND
  6
CONTINUOUS
 10
2.715417
 20
0.118919
  0
VERTEX
  8
FOREGROUND
  6
CONTINUOUS
 10
2.734041
 20
0.122803
  0
VERTEX
  8
FOREGROUND
  6
CONTINUOUS
 10
2.752600
 20
0.126793
  0
VERTEX
  8
FOREGROUND
  6
CONTINUOUS
 10
2.771091
 20
0.130889
  0
VERTEX
  8
FOREGROUND
  6
CONTINUOUS
 10
2.789512
 20
0.135093
  0
VERTEX
  8
FOREGROUND
  6
CONTINUOUS
 10
2.807863
 20
0.139402
  0
VERTEX
  8
FOREGROUND
  6
CONTINUOUS
 10
2.826140
 20
0.143818
  0
VERTEX
  8
FOREGROUND
  6
CONTINUOUS
 10
2.844343
 20
0.148341
  0
VERTEX
  8
FOREGROUND
  6
CONTINUOUS
 10
2.862470
 20
0.152969
  0
VERTEX
  8
FOREGROUND
  6
CONTINUOUS
 10
2.880518
 20
0.157705
  0
VERTEX
  8
FOREGROUND
  6
CONTINUOUS
 10
2.898486
 20
0.162547
  0
VERTEX
  8
FOREGROUND
  6
CONTINUOUS
 10
2.916373
 20
0.167495
  0
VERTEX
  8
FOREGROUND
  6
CONTINUOUS
 10
2.934176
 20
0.172550
  0
VERTEX
  8
FOREGROUND
  6
CONTINUOUS
 10
2.951893
 20
0.177711
  0
VERTEX
  8
FOREGROUND
  6
CONTINUOUS
 10
2.969524
 20
0.182979
  0
VERTEX
  8
FOREGROUND
  6
CONTINUOUS
 10
2.987065
 20
0.188353
  0
VERTEX
  8
FOREGROUND
  6
CONTINUOUS
 10
3.004516
 20
0.193833
  0
VERTEX
  8
FOREGROUND
  6
CONTINUOUS
 10
3.021875
 20
0.199420
  0
VERTEX
  8
FOREGROUND
  6
CONTINUOUS
 10
3.039139
 20
0.205114
  0
VERTEX
  8
FOREGROUND
  6
CONTINUOUS
 10
3.056307
 20
0.210914
  0
VERTEX
  8
FOREGROUND
  6
CONTINUOUS
 10
3.073377
 20
0.216820
  0
VERTEX
  8
FOREGROUND
  6
CONTINUOUS
 10
3.090348
 20
0.222833
  0
VERTEX
  8
FOREGROUND
  6
CONTINUOUS
 10
3.107217
 20
0.228952
  0
VERTEX
  8
FOREGROUND
  6
CONTINUOUS
 10
3.123983
 20
0.235178
  0
VERTEX
  8
FOREGROUND
  6
CONTINUOUS
 10
3.140644
 20
0.241510
  0
VERTEX
  8
FOREGROUND
  6
CONTINUOUS
 10
3.157199
 20
0.247949
  0
VERTEX
  8
FOREGROUND
  6
CONTINUOUS
 10
3.173645
 20
0.254494
  0
VERTEX
  8
FOREGROUND
  6
CONTINUOUS
 10
3.189980
 20
0.261145
  0
VERTEX
  8
FOREGROUND
  6
CONTINUOUS
 10
3.206204
 20
0.267903
  0
VERTEX
  8
FOREGROUND
  6
CONTINUOUS
 10
3.222314
 20
0.274768
  0
VERTEX
  8
FOREGROUND
  6
CONTINUOUS
 10
3.238308
 20
0.281739
  0
VERTEX
  8
FOREGROUND
  6
CONTINUOUS
 10
3.254184
 20
0.288816
  0
VERTEX
  8
FOREGROUND
  6
CONTINUOUS
 10
3.269942
 20
0.296000
  0
VERTEX
  8
FOREGROUND
  6
CONTINUOUS
 10
3.285578
 20
0.303290
  0
VERTEX
  8
FOREGROUND
  6
CONTINUOUS
 10
3.301092
 20
0.310687
  0
VERTEX
  8
FOREGROUND
  6
CONTINUOUS
 10
3.316481
 20
0.318190
  0
VERTEX
  8
FOREGROUND
  6
CONTINUOUS
 10
3.331744
 20
0.325800
  0
VERTEX
  8
FOREGROUND
  6
CONTINUOUS
 10
3.346878
 20
0.333516
  0
VERTEX
  8
FOREGROUND
  6
CONTINUOUS
 10
3.361883
 20
0.341339
  0
VERTEX
  8
FOREGROUND
  6
CONTINUOUS
 10
3.376756
 20
0.349268
  0
VERTEX
  8
FOREGROUND
  6
CONTINUOUS
 10
3.391496
 20
0.357303
  0
VERTEX
  8
FOREGROUND
  6
CONTINUOUS
 10
3.406100
 20
0.365445
  0
VERTEX
  8
FOREGROUND
  6
CONTINUOUS
 10
3.420567
 20
0.373694
  0
VERTEX
  8
FOREGROUND
  6
CONTINUOUS
 10
3.434896
 20
0.382048
  0
VERTEX
  8
FOREGROUND
  6
CONTINUOUS
 10
3.449084
 20
0.390510
  0
VERTEX
  8
FOREGROUND
  6
CONTINUOUS
 10
3.463129
 20
0.399078
  0
VERTEX
  8
FOREGROUND
  6
CONTINUOUS
 10
3.477031
 20
0.407752
  0
VERTEX
  8
FOREGROUND
  6
CONTINUOUS
 10
3.490786
 20
0.416533
  0
VERTEX
  8
FOREGROUND
  6
CONTINUOUS
 10
3.504394
 20
0.425420
  0
VERTEX
  8
FOREGROUND
  6
CONTINUOUS
 10
3.517852
 20
0.434413
  0
VERTEX
  8
FOREGROUND
  6
CONTINUOUS
 10
3.531159
 20
0.443513
  0
VERTEX
  8
FOREGROUND
  6
CONTINUOUS
 10
3.544313
 20
0.452720
  0
VERTEX
  8
FOREGROUND
  6
CONTINUOUS
 10
3.557312
 20
0.462033
  0
VERTEX
  8
FOREGROUND
  6
CONTINUOUS
 10
3.570154
 20
0.471452
  0
VERTEX
  8
FOREGROUND
  6
CONTINUOUS
 10
3.582838
 20
0.480978
  0
VERTEX
  8
FOREGROUND
  6
CONTINUOUS
 10
3.595362
 20
0.490611
  0
VERTEX
  8
FOREGROUND
  6
CONTINUOUS
 10
3.607724
 20
0.500350
  0
VERTEX
  8
FOREGROUND
  6
CONTINUOUS
 10
3.619922
 20
0.510195
  0
VERTEX
  8
FOREGROUND
  6
CONTINUOUS
 10
3.631954
 20
0.520147
  0
VERTEX
  8
FOREGROUND
  6
CONTINUOUS
 10
3.643820
 20
0.530205
  0
VERTEX
  8
FOREGROUND
  6
CONTINUOUS
 10
3.655516
 20
0.540370
  0
VERTEX
  8
FOREGROUND
  6
CONTINUOUS
 10
3.667041
 20
0.550641
  0
VERTEX
  8
FOREGROUND
  6
CONTINUOUS
 10
3.678393
 20
0.561018
  0
VERTEX
  8
FOREGROUND
  6
CONTINUOUS
 10
3.689571
 20
0.571502
  0
VERTEX
  8
FOREGROUND
  6
CONTINUOUS
 10
3.700573
 20
0.582093
  0
VERTEX
  8
FOREGROUND
  6
CONTINUOUS
 10
3.711397
 20
0.592790
  0
VERTEX
  8
FOREGROUND
  6
CONTINUOUS
 10
3.722041
 20
0.603593
  0
VERTEX
  8
FOREGROUND
  6
CONTINUOUS
 10
3.732504
 20
0.614503
  0
VERTEX
  8
FOREGROUND
  6
CONTINUOUS
 10
3.742783
 20
0.625520
  0
VERTEX
  8
FOREGROUND
  6
CONTINUOUS
 10
3.752877
 20
0.636643
  0
VERTEX
  8
FOREGROUND
  6
CONTINUOUS
 10
3.762784
 20
0.647872
  0
VERTEX
  8
FOREGROUND
  6
CONTINUOUS
 10
3.772502
 20
0.659208
  0
VERTEX
  8
FOREGROUND
  6
CONTINUOUS
 10
3.782030
 20
0.670650
  0
VERTEX
  8
FOREGROUND
  6
CONTINUOUS
 10
3.791365
 20
0.682199
  0
VERTEX
  8
FOREGROUND
  6
CONTINUOUS
 10
3.800507
 20
0.693854
  0
VERTEX
  8
FOREGROUND
  6
CONTINUOUS
 10
3.809452
 20
0.705615
  0
VERTEX
  8
FOREGROUND
  6
CONTINUOUS
 10
3.818200
 20
0.717483
  0
VERTEX
  8
FOREGROUND
  6
CONTINUOUS
 10
3.826749
 20
0.729458
  0
VERTEX
  8
FOREGROUND
  6
CONTINUOUS
 10
3.835096
 20
0.741539
  0
VERTEX
  8
FOREGROUND
  6
CONTINUOUS
 10
3.843241
 20
0.753727
  0
VERTEX
  8
FOREGROUND
  6
CONTINUOUS
 10
3.851181
 20
0.766020
  0
VERTEX
  8
FOREGROUND
  6
CONTINUOUS
 10
3.858914
 20
0.778421
  0
VERTEX
  8
FOREGROUND
  6
CONTINUOUS
 10
3.866439
 20
0.790928
  0
VERTEX
  8
FOREGROUND
  6
CONTINUOUS
 10
3.873754
 20
0.803541
  0
VERTEX
  8
FOREGROUND
  6
CONTINUOUS
 10
3.880856
 20
0.816261
  0
VERTEX
  8
FOREGROUND
  6
CONTINUOUS
 10
3.887746
 20
0.829087
  0
VERTEX
  8
FOREGROUND
  6
CONTINUOUS
 10
3.894420
 20
0.842020
  0
VERTEX
  8
FOREGROUND
  6
CONTINUOUS
 10
3.900876
 20
0.855059
  0
VERTEX
  8
FOREGROUND
  6
CONTINUOUS
 10
3.907114
 20
0.868205
  0
VERTEX
  8
FOREGROUND
  6
CONTINUOUS
 10
3.913131
 20
0.881457
  0
VERTEX
  8
FOREGROUND
  6
CONTINUOUS
 10
3.918925
 20
0.894815
  0
VERTEX
  8
FOREGROUND
  6
CONTINUOUS
 10
3.924495
 20
0.908280
  0
VERTEX
  8
FOREGROUND
  6
CONTINUOUS
 10
3.929838
 20
0.921852
  0
VERTEX
  8
FOREGROUND
  6
CONTINUOUS
 10
3.934954
 20
0.935530
  0
VERTEX
  8
FOREGROUND
  6
CONTINUOUS
 10
3.939840
 20
0.949314
  0
VERTEX
  8
FOREGROUND
  6
CONTINUOUS
 10
3.944495
 20
0.963205
  0
VERTEX
  8
FOREGROUND
  6
CONTINUOUS
 10
3.948917
 20
0.977203
  0
VERTEX
  8
FOREGROUND
  6
CONTINUOUS
 10
3.953103
 20
0.991307
  0
VERTEX
  8
FOREGROUND
  6
CONTINUOUS
 10
3.957052
 20
1.005517
  0
VERTEX
  8
FOREGROUND
  6
CONTINUOUS
 10
3.960763
 20
1.019834
  0
VERTEX
  8
FOREGROUND
  6
CONTINUOUS
 10
3.964234
 20
1.034257
  0
VERTEX
  8
FOREGROUND
  6
CONTINUOUS
 10
3.967462
 20
1.048787
  0
VERTEX
  8
FOREGROUND
  6
CONTINUOUS
 10
3.970447
 20
1.063423
  0
VERTEX
  8
FOREGROUND
  6
CONTINUOUS
 10
3.973185
 20
1.078165
  0
VERTEX
  8
FOREGROUND
  6
CONTINUOUS
 10
3.975677
 20
1.093015
  0
VERTEX
  8
FOREGROUND
  6
CONTINUOUS
 10
3.977919
 20
1.107970
  0
VERTEX
  8
FOREGROUND
  6
CONTINUOUS
 10
3.979909
 20
1.123032
  0
VERTEX
  8
FOREGROUND
  6
CONTINUOUS
 10
3.981647
 20
1.138201
  0
VERTEX
  8
FOREGROUND
  6
CONTINUOUS
 10
3.983131
 20
1.153476
  0
VERTEX
  8
FOREGROUND
  6
CONTINUOUS
 10
3.984357
 20
1.168857
  0
VERTEX
  8
FOREGROUND
  6
CONTINUOUS
 10
3.985326
 20
1.184345
  0
VERTEX
  8
FOREGROUND
  6
CONTINUOUS
 10
3.986035
 20
1.199940
  0
VERTEX
  8
FOREGROUND
  6
CONTINUOUS
 10
3.986482
 20
1.215640
  0
VERTEX
  8
FOREGROUND
  6
CONTINUOUS
 10
3.986665
 20
1.231448
  0
SEQEND
  8
0
  0
ENDSEC
  0
EOF
