  0
SECTION
  2
HEADER
  9
$ACADVER
  1
AC1006
  9
$EXTMIN
 10
0.000000
 20
0.000000
  9
$EXTMAX
 10
4.038333
 20
3.250000
  9
$LTSCALE
 40
0.166667
  9
$PDMODE
 70
    35
  9
$PDSIZE
 40
0.133333
  0
ENDSEC
  0
SECTION
  2
TABLES
  0
TABLE
  2
LTYPE
 70
     9
  0
LTYPE
  2
CONTINUOUS
 70
    64
  3
Solid line
 72
    65
 73
     0
 40
0.000000
  0
LTYPE
  2
DASHED
 70
    64
  3
__ __ __ __ __ __ __ __ __ __ __ __ __ __ __
 72
    65
 73
     2
 40
0.001250
 49
0.000833
 49
-0.000417
  0
LTYPE
  2
HIDDEN
 70
    64
  3
 _ _ _ _ _ _ _ _ _ _ _ _ _ _ _ _ _ _ _ _ _ _
 72
    65
 73
     2
 40
0.000625
 49
0.000417
 49
-0.000208
  0
LTYPE
  2
CENTER
 70
    64
  3
____ _ ____ _ ____ _ ____ _ ____ _ ____ _ ____
 72
    65
 73
     4
 40
0.003333
 49
0.002083
 49
-0.000417
 49
0.000417
 49
-0.000417
  0
LTYPE
  2
PHANTOM
 70
    64
  3
_____ _ _ _____ _ _ _____ _ _ _____ _ _ ____
 72
    65
 73
     6
 40
0.004167
 49
0.002083
 49
-0.000417
 49
0.000417
 49
-0.000417
 49
0.000417
 49
-0.000417
  0
LTYPE
  2
DOT
 70
    64
  3
...............................................
 72
    65
 73
     2
 40
0.000417
 49
0.000000
 49
-0.000417
  0
LTYPE
  2
DASHDOT
 70
    64
  3
__ . __ . __ . __ . __ . __ . __ . __ . __ . __
 72
    65
 73
     4
 40
0.001667
 49
0.000833
 49
-0.000417
 49
0.000000
 49
-0.000417
  0
LTYPE
  2
BORDER
 70
    64
  3
__ __ . __ __ . __ __ . __ __ . __ __ . __ __
 72
    65
 73
     6
 40
0.002917
 49
0.000833
 49
-0.000417
 49
0.000833
 49
-0.000417
 49
0.000000
 49
-0.000417
  0
LTYPE
  2
DIVIDE
 70
    64
  3
__ . . __ . . __ . . __ . . __ . . __ . . __
 72
    65
 73
     6
 40
0.002083
 49
0.000833
 49
-0.000417
 49
0.000000
 49
-0.000417
 49
0.000000
 49
-0.000417
  0
LTYPE
  2
DOTDOT
 70
    64
  3
 . .  . .  . .  . .  . .  . . 
 72
    65
 73
     5
 40
0.000917
 49
-0.000417
 49
0.000000
 49
-0.000417
 49
0.000000
 49
-0.000417
  0
ENDTAB
  0
TABLE
  2
STYLE
 70
     2
  0
STYLE
 70
     0
  2
SN0
 40
0.000000
 41
0.001667
 50
0.000000
 71
     0
 42
0.000000
  3
ROMAND
  0
STYLE
 70
    68
  2
SV0
 40
0.000000
 41
0.001667
 50
0.000000
 71
     0
 42
0.000000
  3
ROMAND
  0
ENDTAB
  0
TABLE
  2
LAYER
 70
     2
  0
LAYER
  2
FOREGROUND
 70
    64
 62
     7
  6
CONTINUOUS
  0
LAYER
  2
BACKGROUND
 70
    65
 62
    -7
  6
CONTINUOUS
  0
ENDTAB
  0
ENDSEC
  0
SECTION
  2
ENTITIES
  0
POLYLINE
  8
FOREGROUND
  6
CONTINUOUS
 66
     1
 40
0.010000
 41
0.010000
 70
     1
  0
VERTEX
  8
FOREGROUND
  6
CONTINUOUS
 10
3.986666
 20
1.625000
  0
VERTEX
  8
FOREGROUND
  6
CONTINUOUS
 10
3.986535
 20
1.645127
  0
VERTEX
  8
FOREGROUND
  6
CONTINUOUS
 10
3.986164
 20
1.665124
  0
VERTEX
  8
FOREGROUND
  6
CONTINUOUS
 10
3.985553
 20
1.684992
  0
VERTEX
  8
FOREGROUND
  6
CONTINUOUS
 10
3.984704
 20
1.704730
  0
VERTEX
  8
FOREGROUND
  6
CONTINUOUS
 10
3.983620
 20
1.724339
  0
VERTEX
  8
FOREGROUND
  6
CONTINUOUS
 10
3.982301
 20
1.743819
  0
VERTEX
  8
FOREGROUND
  6
CONTINUOUS
 10
3.980748
 20
1.763169
  0
VERTEX
  8
FOREGROUND
  6
CONTINUOUS
 10
3.978965
 20
1.782389
  0
VERTEX
  8
FOREGROUND
  6
CONTINUOUS
 10
3.976951
 20
1.801481
  0
VERTEX
  8
FOREGROUND
  6
CONTINUOUS
 10
3.974710
 20
1.820443
  0
VERTEX
  8
FOREGROUND
  6
CONTINUOUS
 10
3.972241
 20
1.839275
  0
VERTEX
  8
FOREGROUND
  6
CONTINUOUS
 10
3.969547
 20
1.857978
  0
VERTEX
  8
FOREGROUND
  6
CONTINUOUS
 10
3.966630
 20
1.876552
  0
VERTEX
  8
FOREGROUND
  6
CONTINUOUS
 10
3.963490
 20
1.894996
  0
VERTEX
  8
FOREGROUND
  6
CONTINUOUS
 10
3.960130
 20
1.913310
  0
VERTEX
  8
FOREGROUND
  6
CONTINUOUS
 10
3.956551
 20
1.931496
  0
VERTEX
  8
FOREGROUND
  6
CONTINUOUS
 10
3.952754
 20
1.949552
  0
VERTEX
  8
FOREGROUND
  6
CONTINUOUS
 10
3.948742
 20
1.967478
  0
VERTEX
  8
FOREGROUND
  6
CONTINUOUS
 10
3.944515
 20
1.985275
  0
VERTEX
  8
FOREGROUND
  6
CONTINUOUS
 10
3.940075
 20
2.002943
  0
VERTEX
  8
FOREGROUND
  6
CONTINUOUS
 10
3.935424
 20
2.020481
  0
VERTEX
  8
FOREGROUND
  6
CONTINUOUS
 10
3.930563
 20
2.037890
  0
VERTEX
  8
FOREGROUND
  6
CONTINUOUS
 10
3.925494
 20
2.055169
  0
VERTEX
  8
FOREGROUND
  6
CONTINUOUS
 10
3.920219
 20
2.072319
  0
VERTEX
  8
FOREGROUND
  6
CONTINUOUS
 10
3.914739
 20
2.089339
  0
VERTEX
  8
FOREGROUND
  6
CONTINUOUS
 10
3.909055
 20
2.106231
  0
VERTEX
  8
FOREGROUND
  6
CONTINUOUS
 10
3.903169
 20
2.122992
  0
VERTEX
  8
FOREGROUND
  6
CONTINUOUS
 10
3.897082
 20
2.139624
  0
VERTEX
  8
FOREGROUND
  6
CONTINUOUS
 10
3.890797
 20
2.156127
  0
VERTEX
  8
FOREGROUND
  6
CONTINUOUS
 10
3.884315
 20
2.172501
  0
VERTEX
  8
FOREGROUND
  6
CONTINUOUS
 10
3.877637
 20
2.188745
  0
VERTEX
  8
FOREGROUND
  6
CONTINUOUS
 10
3.870765
 20
2.204859
  0
VERTEX
  8
FOREGROUND
  6
CONTINUOUS
 10
3.863700
 20
2.220844
  0
VERTEX
  8
FOREGROUND
  6
CONTINUOUS
 10
3.856444
 20
2.236700
  0
VERTEX
  8
FOREGROUND
  6
CONTINUOUS
 10
3.848998
 20
2.252426
  0
VERTEX
  8
FOREGROUND
  6
CONTINUOUS
 10
3.841365
 20
2.268023
  0
VERTEX
  8
FOREGROUND
  6
CONTINUOUS
 10
3.833545
 20
2.283490
  0
VERTEX
  8
FOREGROUND
  6
CONTINUOUS
 10
3.825540
 20
2.298828
  0
VERTEX
  8
FOREGROUND
  6
CONTINUOUS
 10
3.817352
 20
2.314037
  0
VERTEX
  8
FOREGROUND
  6
CONTINUOUS
 10
3.808983
 20
2.329116
  0
VERTEX
  8
FOREGROUND
  6
CONTINUOUS
 10
3.800433
 20
2.344066
  0
VERTEX
  8
FOREGROUND
  6
CONTINUOUS
 10
3.791704
 20
2.358886
  0
VERTEX
  8
FOREGROUND
  6
CONTINUOUS
 10
3.782799
 20
2.373577
  0
VERTEX
  8
FOREGROUND
  6
CONTINUOUS
 10
3.773717
 20
2.388138
  0
VERTEX
  8
FOREGROUND
  6
CONTINUOUS
 10
3.764462
 20
2.402570
  0
VERTEX
  8
FOREGROUND
  6
CONTINUOUS
 10
3.755035
 20
2.416873
  0
VERTEX
  8
FOREGROUND
  6
CONTINUOUS
 10
3.745436
 20
2.431046
  0
VERTEX
  8
FOREGROUND
  6
CONTINUOUS
 10
3.735668
 20
2.445090
  0
VERTEX
  8
FOREGROUND
  6
CONTINUOUS
 10
3.725733
 20
2.459004
  0
VERTEX
  8
FOREGROUND
  6
CONTINUOUS
 10
3.715631
 20
2.472789
  0
VERTEX
  8
FOREGROUND
  6
CONTINUOUS
 10
3.705364
 20
2.486444
  0
VERTEX
  8
FOREGROUND
  6
CONTINUOUS
 10
3.694935
 20
2.499970
  0
VERTEX
  8
FOREGROUND
  6
CONTINUOUS
 10
3.684344
 20
2.513367
  0
VERTEX
  8
FOREGROUND
  6
CONTINUOUS
 10
3.673592
 20
2.526634
  0
VERTEX
  8
FOREGROUND
  6
CONTINUOUS
 10
3.662683
 20
2.539772
  0
VERTEX
  8
FOREGROUND
  6
CONTINUOUS
 10
3.651616
 20
2.552780
  0
VERTEX
  8
FOREGROUND
  6
CONTINUOUS
 10
3.640394
 20
2.565659
  0
VERTEX
  8
FOREGROUND
  6
CONTINUOUS
 10
3.629019
 20
2.578408
  0
VERTEX
  8
FOREGROUND
  6
CONTINUOUS
 10
3.617491
 20
2.591028
  0
VERTEX
  8
FOREGROUND
  6
CONTINUOUS
 10
3.605812
 20
2.603519
  0
VERTEX
  8
FOREGROUND
  6
CONTINUOUS
 10
3.593984
 20
2.615880
  0
VERTEX
  8
FOREGROUND
  6
CONTINUOUS
 10
3.582009
 20
2.628112
  0
VERTEX
  8
FOREGROUND
  6
CONTINUOUS
 10
3.569888
 20
2.640214
  0
VERTEX
  8
FOREGROUND
  6
CONTINUOUS
 10
3.557622
 20
2.652187
  0
VERTEX
  8
FOREGROUND
  6
CONTINUOUS
 10
3.545213
 20
2.664031
  0
VERTEX
  8
FOREGROUND
  6
CONTINUOUS
 10
3.532663
 20
2.675745
  0
VERTEX
  8
FOREGROUND
  6
CONTINUOUS
 10
3.519973
 20
2.687329
  0
VERTEX
  8
FOREGROUND
  6
CONTINUOUS
 10
3.507145
 20
2.698784
  0
VERTEX
  8
FOREGROUND
  6
CONTINUOUS
 10
3.494180
 20
2.710110
  0
VERTEX
  8
FOREGROUND
  6
CONTINUOUS
 10
3.481079
 20
2.721307
  0
VERTEX
  8
FOREGROUND
  6
CONTINUOUS
 10
3.467846
 20
2.732374
  0
VERTEX
  8
FOREGROUND
  6
CONTINUOUS
 10
3.454480
 20
2.743311
  0
VERTEX
  8
FOREGROUND
  6
CONTINUOUS
 10
3.440983
 20
2.754119
  0
VERTEX
  8
FOREGROUND
  6
CONTINUOUS
 10
3.427358
 20
2.764798
  0
VERTEX
  8
FOREGROUND
  6
CONTINUOUS
 10
3.413606
 20
2.775347
  0
VERTEX
  8
FOREGROUND
  6
CONTINUOUS
 10
3.399727
 20
2.785767
  0
VERTEX
  8
FOREGROUND
  6
CONTINUOUS
 10
3.385724
 20
2.796057
  0
VERTEX
  8
FOREGROUND
  6
CONTINUOUS
 10
3.371599
 20
2.806218
  0
VERTEX
  8
FOREGROUND
  6
CONTINUOUS
 10
3.357352
 20
2.816249
  0
VERTEX
  8
FOREGROUND
  6
CONTINUOUS
 10
3.342985
 20
2.826152
  0
VERTEX
  8
FOREGROUND
  6
CONTINUOUS
 10
3.328501
 20
2.835924
  0
VERTEX
  8
FOREGROUND
  6
CONTINUOUS
 10
3.313900
 20
2.845567
  0
VERTEX
  8
FOREGROUND
  6
CONTINUOUS
 10
3.299184
 20
2.855081
  0
VERTEX
  8
FOREGROUND
  6
CONTINUOUS
 10
3.284355
 20
2.864466
  0
VERTEX
  8
FOREGROUND
  6
CONTINUOUS
 10
3.269413
 20
2.873720
  0
VERTEX
  8
FOREGROUND
  6
CONTINUOUS
 10
3.254362
 20
2.882846
  0
VERTEX
  8
FOREGROUND
  6
CONTINUOUS
 10
3.239201
 20
2.891842
  0
VERTEX
  8
FOREGROUND
  6
CONTINUOUS
 10
3.223934
 20
2.900709
  0
VERTEX
  8
FOREGROUND
  6
CONTINUOUS
 10
3.208560
 20
2.909446
  0
VERTEX
  8
FOREGROUND
  6
CONTINUOUS
 10
3.193083
 20
2.918054
  0
VERTEX
  8
FOREGROUND
  6
CONTINUOUS
 10
3.177503
 20
2.926532
  0
VERTEX
  8
FOREGROUND
  6
CONTINUOUS
 10
3.161822
 20
2.934881
  0
VERTEX
  8
FOREGROUND
  6
CONTINUOUS
 10
3.146042
 20
2.943100
  0
VERTEX
  8
FOREGROUND
  6
CONTINUOUS
 10
3.130164
 20
2.951191
  0
VERTEX
  8
FOREGROUND
  6
CONTINUOUS
 10
3.114189
 20
2.959151
  0
VERTEX
  8
FOREGROUND
  6
CONTINUOUS
 10
3.098120
 20
2.966982
  0
VERTEX
  8
FOREGROUND
  6
CONTINUOUS
 10
3.081957
 20
2.974684
  0
VERTEX
  8
FOREGROUND
  6
CONTINUOUS
 10
3.065703
 20
2.982257
  0
VERTEX
  8
FOREGROUND
  6
CONTINUOUS
 10
3.049358
 20
2.989700
  0
VERTEX
  8
FOREGROUND
  6
CONTINUOUS
 10
3.032925
 20
2.997013
  0
VERTEX
  8
FOREGROUND
  6
CONTINUOUS
 10
3.016405
 20
3.004197
  0
VERTEX
  8
FOREGROUND
  6
CONTINUOUS
 10
2.999799
 20
3.011252
  0
VERTEX
  8
FOREGROUND
  6
CONTINUOUS
 10
2.983110
 20
3.018177
  0
VERTEX
  8
FOREGROUND
  6
CONTINUOUS
 10
2.966338
 20
3.024973
  0
VERTEX
  8
FOREGROUND
  6
CONTINUOUS
 10
2.949485
 20
3.031639
  0
VERTEX
  8
FOREGROUND
  6
CONTINUOUS
 10
2.932553
 20
3.038176
  0
VERTEX
  8
FOREGROUND
  6
CONTINUOUS
 10
2.915544
 20
3.044584
  0
VERTEX
  8
FOREGROUND
  6
CONTINUOUS
 10
2.898458
 20
3.050862
  0
VERTEX
  8
FOREGROUND
  6
CONTINUOUS
 10
2.881298
 20
3.057010
  0
VERTEX
  8
FOREGROUND
  6
CONTINUOUS
 10
2.864064
 20
3.063030
  0
VERTEX
  8
FOREGROUND
  6
CONTINUOUS
 10
2.846759
 20
3.068919
  0
VERTEX
  8
FOREGROUND
  6
CONTINUOUS
 10
2.829384
 20
3.074680
  0
VERTEX
  8
FOREGROUND
  6
CONTINUOUS
 10
2.811941
 20
3.080311
  0
VERTEX
  8
FOREGROUND
  6
CONTINUOUS
 10
2.794431
 20
3.085812
  0
VERTEX
  8
FOREGROUND
  6
CONTINUOUS
 10
2.776855
 20
3.091184
  0
VERTEX
  8
FOREGROUND
  6
CONTINUOUS
 10
2.759216
 20
3.096427
  0
VERTEX
  8
FOREGROUND
  6
CONTINUOUS
 10
2.741515
 20
3.101540
  0
VERTEX
  8
FOREGROUND
  6
CONTINUOUS
 10
2.723753
 20
3.106524
  0
VERTEX
  8
FOREGROUND
  6
CONTINUOUS
 10
2.705932
 20
3.111378
  0
VERTEX
  8
FOREGROUND
  6
CONTINUOUS
 10
2.688053
 20
3.116103
  0
VERTEX
  8
FOREGROUND
  6
CONTINUOUS
 10
2.670119
 20
3.120699
  0
VERTEX
  8
FOREGROUND
  6
CONTINUOUS
 10
2.652130
 20
3.125165
  0
VERTEX
  8
FOREGROUND
  6
CONTINUOUS
 10
2.634088
 20
3.129501
  0
VERTEX
  8
FOREGROUND
  6
CONTINUOUS
 10
2.615995
 20
3.133709
  0
VERTEX
  8
FOREGROUND
  6
CONTINUOUS
 10
2.597852
 20
3.137786
  0
VERTEX
  8
FOREGROUND
  6
CONTINUOUS
 10
2.579661
 20
3.141735
  0
VERTEX
  8
FOREGROUND
  6
CONTINUOUS
 10
2.561423
 20
3.145554
  0
VERTEX
  8
FOREGROUND
  6
CONTINUOUS
 10
2.543140
 20
3.149243
  0
VERTEX
  8
FOREGROUND
  6
CONTINUOUS
 10
2.524813
 20
3.152803
  0
VERTEX
  8
FOREGROUND
  6
CONTINUOUS
 10
2.506445
 20
3.156234
  0
VERTEX
  8
FOREGROUND
  6
CONTINUOUS
 10
2.488036
 20
3.159535
  0
VERTEX
  8
FOREGROUND
  6
CONTINUOUS
 10
2.469588
 20
3.162707
  0
VERTEX
  8
FOREGROUND
  6
CONTINUOUS
 10
2.451103
 20
3.165749
  0
VERTEX
  8
FOREGROUND
  6
CONTINUOUS
 10
2.432582
 20
3.168662
  0
VERTEX
  8
FOREGROUND
  6
CONTINUOUS
 10
2.414027
 20
3.171445
  0
VERTEX
  8
FOREGROUND
  6
CONTINUOUS
 10
2.395439
 20
3.174099
  0
VERTEX
  8
FOREGROUND
  6
CONTINUOUS
 10
2.376820
 20
3.176624
  0
VERTEX
  8
FOREGROUND
  6
CONTINUOUS
 10
2.358172
 20
3.179019
  0
VERTEX
  8
FOREGROUND
  6
CONTINUOUS
 10
2.339495
 20
3.181285
  0
VERTEX
  8
FOREGROUND
  6
CONTINUOUS
 10
2.320792
 20
3.183421
  0
VERTEX
  8
FOREGROUND
  6
CONTINUOUS
 10
2.302064
 20
3.185428
  0
VERTEX
  8
FOREGROUND
  6
CONTINUOUS
 10
2.283313
 20
3.187306
  0
VERTEX
  8
FOREGROUND
  6
CONTINUOUS
 10
2.264540
 20
3.189054
  0
VERTEX
  8
FOREGROUND
  6
CONTINUOUS
 10
2.245747
 20
3.190672
  0
VERTEX
  8
FOREGROUND
  6
CONTINUOUS
 10
2.226934
 20
3.192161
  0
VERTEX
  8
FOREGROUND
  6
CONTINUOUS
 10
2.208105
 20
3.193521
  0
VERTEX
  8
FOREGROUND
  6
CONTINUOUS
 10
2.189260
 20
3.194751
  0
VERTEX
  8
FOREGROUND
  6
CONTINUOUS
 10
2.170402
 20
3.195852
  0
VERTEX
  8
FOREGROUND
  6
CONTINUOUS
 10
2.151530
 20
3.196824
  0
VERTEX
  8
FOREGROUND
  6
CONTINUOUS
 10
2.132648
 20
3.197666
  0
VERTEX
  8
FOREGROUND
  6
CONTINUOUS
 10
2.113756
 20
3.198378
  0
VERTEX
  8
FOREGROUND
  6
CONTINUOUS
 10
2.094857
 20
3.198962
  0
VERTEX
  8
FOREGROUND
  6
CONTINUOUS
 10
2.075951
 20
3.199415
  0
VERTEX
  8
FOREGROUND
  6
CONTINUOUS
 10
2.057040
 20
3.199740
  0
VERTEX
  8
FOREGROUND
  6
CONTINUOUS
 10
2.038127
 20
3.199934
  0
VERTEX
  8
FOREGROUND
  6
CONTINUOUS
 10
2.019211
 20
3.200000
  0
VERTEX
  8
FOREGROUND
  6
CONTINUOUS
 10
2.000296
 20
3.199936
  0
VERTEX
  8
FOREGROUND
  6
CONTINUOUS
 10
1.981382
 20
3.199742
  0
VERTEX
  8
FOREGROUND
  6
CONTINUOUS
 10
1.962471
 20
3.199419
  0
VERTEX
  8
FOREGROUND
  6
CONTINUOUS
 10
1.943565
 20
3.198967
  0
VERTEX
  8
FOREGROUND
  6
CONTINUOUS
 10
1.924664
 20
3.198385
  0
VERTEX
  8
FOREGROUND
  6
CONTINUOUS
 10
1.905772
 20
3.197674
  0
VERTEX
  8
FOREGROUND
  6
CONTINUOUS
 10
1.886889
 20
3.196834
  0
VERTEX
  8
FOREGROUND
  6
CONTINUOUS
 10
1.868016
 20
3.195864
  0
VERTEX
  8
FOREGROUND
  6
CONTINUOUS
 10
1.849156
 20
3.194764
  0
VERTEX
  8
FOREGROUND
  6
CONTINUOUS
 10
1.830310
 20
3.193535
  0
VERTEX
  8
FOREGROUND
  6
CONTINUOUS
 10
1.811479
 20
3.192177
  0
VERTEX
  8
FOREGROUND
  6
CONTINUOUS
 10
1.792665
 20
3.190689
  0
VERTEX
  8
FOREGROUND
  6
CONTINUOUS
 10
1.773870
 20
3.189072
  0
VERTEX
  8
FOREGROUND
  6
CONTINUOUS
 10
1.755095
 20
3.187325
  0
VERTEX
  8
FOREGROUND
  6
CONTINUOUS
 10
1.736342
 20
3.185449
  0
VERTEX
  8
FOREGROUND
  6
CONTINUOUS
 10
1.717612
 20
3.183444
  0
VERTEX
  8
FOREGROUND
  6
CONTINUOUS
 10
1.698906
 20
3.181309
  0
VERTEX
  8
FOREGROUND
  6
CONTINUOUS
 10
1.680227
 20
3.179044
  0
VERTEX
  8
FOREGROUND
  6
CONTINUOUS
 10
1.661576
 20
3.176651
  0
VERTEX
  8
FOREGROUND
  6
CONTINUOUS
 10
1.642954
 20
3.174127
  0
VERTEX
  8
FOREGROUND
  6
CONTINUOUS
 10
1.624363
 20
3.171475
  0
VERTEX
  8
FOREGROUND
  6
CONTINUOUS
 10
1.605805
 20
3.168693
  0
VERTEX
  8
FOREGROUND
  6
CONTINUOUS
 10
1.587281
 20
3.165781
  0
VERTEX
  8
FOREGROUND
  6
CONTINUOUS
 10
1.568793
 20
3.162740
  0
VERTEX
  8
FOREGROUND
  6
CONTINUOUS
 10
1.550341
 20
3.159570
  0
VERTEX
  8
FOREGROUND
  6
CONTINUOUS
 10
1.531929
 20
3.156270
  0
VERTEX
  8
FOREGROUND
  6
CONTINUOUS
 10
1.513556
 20
3.152841
  0
VERTEX
  8
FOREGROUND
  6
CONTINUOUS
 10
1.495226
 20
3.149282
  0
VERTEX
  8
FOREGROUND
  6
CONTINUOUS
 10
1.476939
 20
3.145594
  0
VERTEX
  8
FOREGROUND
  6
CONTINUOUS
 10
1.458697
 20
3.141776
  0
VERTEX
  8
FOREGROUND
  6
CONTINUOUS
 10
1.440501
 20
3.137829
  0
VERTEX
  8
FOREGROUND
  6
CONTINUOUS
 10
1.422354
 20
3.133753
  0
VERTEX
  8
FOREGROUND
  6
CONTINUOUS
 10
1.404256
 20
3.129547
  0
VERTEX
  8
FOREGROUND
  6
CONTINUOUS
 10
1.386209
 20
3.125212
  0
VERTEX
  8
FOREGROUND
  6
CONTINUOUS
 10
1.368215
 20
3.120747
  0
VERTEX
  8
FOREGROUND
  6
CONTINUOUS
 10
1.350276
 20
3.116153
  0
VERTEX
  8
FOREGROUND
  6
CONTINUOUS
 10
1.332392
 20
3.111429
  0
VERTEX
  8
FOREGROUND
  6
CONTINUOUS
 10
1.314565
 20
3.106576
  0
VERTEX
  8
FOREGROUND
  6
CONTINUOUS
 10
1.296798
 20
3.101594
  0
VERTEX
  8
FOREGROUND
  6
CONTINUOUS
 10
1.279091
 20
3.096482
  0
VERTEX
  8
FOREGROUND
  6
CONTINUOUS
 10
1.261446
 20
3.091240
  0
VERTEX
  8
FOREGROUND
  6
CONTINUOUS
 10
1.243864
 20
3.085870
  0
VERTEX
  8
FOREGROUND
  6
CONTINUOUS
 10
1.226348
 20
3.080369
  0
VERTEX
  8
FOREGROUND
  6
CONTINUOUS
 10
1.208898
 20
3.074740
  0
VERTEX
  8
FOREGROUND
  6
CONTINUOUS
 10
1.191517
 20
3.068981
  0
VERTEX
  8
FOREGROUND
  6
CONTINUOUS
 10
1.174206
 20
3.063092
  0
VERTEX
  8
FOREGROUND
  6
CONTINUOUS
 10
1.156965
 20
3.057074
  0
VERTEX
  8
FOREGROUND
  6
CONTINUOUS
 10
1.139798
 20
3.050927
  0
VERTEX
  8
FOREGROUND
  6
CONTINUOUS
 10
1.122705
 20
3.044650
  0
VERTEX
  8
FOREGROUND
  6
CONTINUOUS
 10
1.105689
 20
3.038244
  0
VERTEX
  8
FOREGROUND
  6
CONTINUOUS
 10
1.088749
 20
3.031708
  0
VERTEX
  8
FOREGROUND
  6
CONTINUOUS
 10
1.071889
 20
3.025043
  0
VERTEX
  8
FOREGROUND
  6
CONTINUOUS
 10
1.055110
 20
3.018248
  0
VERTEX
  8
FOREGROUND
  6
CONTINUOUS
 10
1.038413
 20
3.011324
  0
VERTEX
  8
FOREGROUND
  6
CONTINUOUS
 10
1.021799
 20
3.004271
  0
VERTEX
  8
FOREGROUND
  6
CONTINUOUS
 10
1.005271
 20
2.997088
  0
VERTEX
  8
FOREGROUND
  6
CONTINUOUS
 10
0.988830
 20
2.989776
  0
VERTEX
  8
FOREGROUND
  6
CONTINUOUS
 10
0.972477
 20
2.982334
  0
VERTEX
  8
FOREGROUND
  6
CONTINUOUS
 10
0.956214
 20
2.974763
  0
VERTEX
  8
FOREGROUND
  6
CONTINUOUS
 10
0.940043
 20
2.967062
  0
VERTEX
  8
FOREGROUND
  6
CONTINUOUS
 10
0.923965
 20
2.959232
  0
VERTEX
  8
FOREGROUND
  6
CONTINUOUS
 10
0.907981
 20
2.951273
  0
VERTEX
  8
FOREGROUND
  6
CONTINUOUS
 10
0.892094
 20
2.943184
  0
VERTEX
  8
FOREGROUND
  6
CONTINUOUS
 10
0.876305
 20
2.934966
  0
VERTEX
  8
FOREGROUND
  6
CONTINUOUS
 10
0.860614
 20
2.926618
  0
VERTEX
  8
FOREGROUND
  6
CONTINUOUS
 10
0.845025
 20
2.918141
  0
VERTEX
  8
FOREGROUND
  6
CONTINUOUS
 10
0.829538
 20
2.909534
  0
VERTEX
  8
FOREGROUND
  6
CONTINUOUS
 10
0.814155
 20
2.900798
  0
VERTEX
  8
FOREGROUND
  6
CONTINUOUS
 10
0.798878
 20
2.891932
  0
VERTEX
  8
FOREGROUND
  6
CONTINUOUS
 10
0.783707
 20
2.882938
  0
VERTEX
  8
FOREGROUND
  6
CONTINUOUS
 10
0.768645
 20
2.873813
  0
VERTEX
  8
FOREGROUND
  6
CONTINUOUS
 10
0.753694
 20
2.864559
  0
VERTEX
  8
FOREGROUND
  6
CONTINUOUS
 10
0.738854
 20
2.855176
  0
VERTEX
  8
FOREGROUND
  6
CONTINUOUS
 10
0.724127
 20
2.845663
  0
VERTEX
  8
FOREGROUND
  6
CONTINUOUS
 10
0.709516
 20
2.836021
  0
VERTEX
  8
FOREGROUND
  6
CONTINUOUS
 10
0.695020
 20
2.826250
  0
VERTEX
  8
FOREGROUND
  6
CONTINUOUS
 10
0.680643
 20
2.816349
  0
VERTEX
  8
FOREGROUND
  6
CONTINUOUS
 10
0.666385
 20
2.806318
  0
VERTEX
  8
FOREGROUND
  6
CONTINUOUS
 10
0.652248
 20
2.796158
  0
VERTEX
  8
FOREGROUND
  6
CONTINUOUS
 10
0.638234
 20
2.785869
  0
VERTEX
  8
FOREGROUND
  6
CONTINUOUS
 10
0.624344
 20
2.775450
  0
VERTEX
  8
FOREGROUND
  6
CONTINUOUS
 10
0.610579
 20
2.764902
  0
VERTEX
  8
FOREGROUND
  6
CONTINUOUS
 10
0.596942
 20
2.754224
  0
VERTEX
  8
FOREGROUND
  6
CONTINUOUS
 10
0.583434
 20
2.743417
  0
VERTEX
  8
FOREGROUND
  6
CONTINUOUS
 10
0.570055
 20
2.732481
  0
VERTEX
  8
FOREGROUND
  6
CONTINUOUS
 10
0.556809
 20
2.721415
  0
VERTEX
  8
FOREGROUND
  6
CONTINUOUS
 10
0.543697
 20
2.710220
  0
VERTEX
  8
FOREGROUND
  6
CONTINUOUS
 10
0.530719
 20
2.698895
  0
VERTEX
  8
FOREGROUND
  6
CONTINUOUS
 10
0.517878
 20
2.687441
  0
VERTEX
  8
FOREGROUND
  6
CONTINUOUS
 10
0.505175
 20
2.675857
  0
VERTEX
  8
FOREGROUND
  6
CONTINUOUS
 10
0.492612
 20
2.664144
  0
VERTEX
  8
FOREGROUND
  6
CONTINUOUS
 10
0.480190
 20
2.652301
  0
VERTEX
  8
FOREGROUND
  6
CONTINUOUS
 10
0.467911
 20
2.640329
  0
VERTEX
  8
FOREGROUND
  6
CONTINUOUS
 10
0.455776
 20
2.628228
  0
VERTEX
  8
FOREGROUND
  6
CONTINUOUS
 10
0.443787
 20
2.615997
  0
VERTEX
  8
FOREGROUND
  6
CONTINUOUS
 10
0.431945
 20
2.603637
  0
VERTEX
  8
FOREGROUND
  6
CONTINUOUS
 10
0.420253
 20
2.591147
  0
VERTEX
  8
FOREGROUND
  6
CONTINUOUS
 10
0.408711
 20
2.578528
  0
VERTEX
  8
FOREGROUND
  6
CONTINUOUS
 10
0.397321
 20
2.565779
  0
VERTEX
  8
FOREGROUND
  6
CONTINUOUS
 10
0.386085
 20
2.552901
  0
VERTEX
  8
FOREGROUND
  6
CONTINUOUS
 10
0.375004
 20
2.539894
  0
VERTEX
  8
FOREGROUND
  6
CONTINUOUS
 10
0.364079
 20
2.526757
  0
VERTEX
  8
FOREGROUND
  6
CONTINUOUS
 10
0.353313
 20
2.513490
  0
VERTEX
  8
FOREGROUND
  6
CONTINUOUS
 10
0.342707
 20
2.500094
  0
VERTEX
  8
FOREGROUND
  6
CONTINUOUS
 10
0.332263
 20
2.486569
  0
VERTEX
  8
FOREGROUND
  6
CONTINUOUS
 10
0.321981
 20
2.472915
  0
VERTEX
  8
FOREGROUND
  6
CONTINUOUS
 10
0.311864
 20
2.459130
  0
VERTEX
  8
FOREGROUND
  6
CONTINUOUS
 10
0.301913
 20
2.445217
  0
VERTEX
  8
FOREGROUND
  6
CONTINUOUS
 10
0.292129
 20
2.431174
  0
VERTEX
  8
FOREGROUND
  6
CONTINUOUS
 10
0.282515
 20
2.417001
  0
VERTEX
  8
FOREGROUND
  6
CONTINUOUS
 10
0.273071
 20
2.402700
  0
VERTEX
  8
FOREGROUND
  6
CONTINUOUS
 10
0.263800
 20
2.388268
  0
VERTEX
  8
FOREGROUND
  6
CONTINUOUS
 10
0.254703
 20
2.373707
  0
VERTEX
  8
FOREGROUND
  6
CONTINUOUS
 10
0.245781
 20
2.359017
  0
VERTEX
  8
FOREGROUND
  6
CONTINUOUS
 10
0.237036
 20
2.344198
  0
VERTEX
  8
FOREGROUND
  6
CONTINUOUS
 10
0.228469
 20
2.329249
  0
VERTEX
  8
FOREGROUND
  6
CONTINUOUS
 10
0.220082
 20
2.314170
  0
VERTEX
  8
FOREGROUND
  6
CONTINUOUS
 10
0.211877
 20
2.298962
  0
VERTEX
  8
FOREGROUND
  6
CONTINUOUS
 10
0.203856
 20
2.283625
  0
VERTEX
  8
FOREGROUND
  6
CONTINUOUS
 10
0.196019
 20
2.268158
  0
VERTEX
  8
FOREGROUND
  6
CONTINUOUS
 10
0.188368
 20
2.252562
  0
VERTEX
  8
FOREGROUND
  6
CONTINUOUS
 10
0.180905
 20
2.236836
  0
VERTEX
  8
FOREGROUND
  6
CONTINUOUS
 10
0.173631
 20
2.220981
  0
VERTEX
  8
FOREGROUND
  6
CONTINUOUS
 10
0.166548
 20
2.204996
  0
VERTEX
  8
FOREGROUND
  6
CONTINUOUS
 10
0.159658
 20
2.188882
  0
VERTEX
  8
FOREGROUND
  6
CONTINUOUS
 10
0.152962
 20
2.172639
  0
VERTEX
  8
FOREGROUND
  6
CONTINUOUS
 10
0.146461
 20
2.156266
  0
VERTEX
  8
FOREGROUND
  6
CONTINUOUS
 10
0.140158
 20
2.139764
  0
VERTEX
  8
FOREGROUND
  6
CONTINUOUS
 10
0.134053
 20
2.123132
  0
VERTEX
  8
FOREGROUND
  6
CONTINUOUS
 10
0.128149
 20
2.106371
  0
VERTEX
  8
FOREGROUND
  6
CONTINUOUS
 10
0.122446
 20
2.089480
  0
VERTEX
  8
FOREGROUND
  6
CONTINUOUS
 10
0.116946
 20
2.072460
  0
VERTEX
  8
FOREGROUND
  6
CONTINUOUS
 10
0.111652
 20
2.055310
  0
VERTEX
  8
FOREGROUND
  6
CONTINUOUS
 10
0.106564
 20
2.038031
  0
VERTEX
  8
FOREGROUND
  6
CONTINUOUS
 10
0.101684
 20
2.020623
  0
VERTEX
  8
FOREGROUND
  6
CONTINUOUS
 10
0.097013
 20
2.003085
  0
VERTEX
  8
FOREGROUND
  6
CONTINUOUS
 10
0.092554
 20
1.985418
  0
VERTEX
  8
FOREGROUND
  6
CONTINUOUS
 10
0.088307
 20
1.967621
  0
VERTEX
  8
FOREGROUND
  6
CONTINUOUS
 10
0.084274
 20
1.949695
  0
VERTEX
  8
FOREGROUND
  6
CONTINUOUS
 10
0.080458
 20
1.931639
  0
VERTEX
  8
FOREGROUND
  6
CONTINUOUS
 10
0.076858
 20
1.913454
  0
VERTEX
  8
FOREGROUND
  6
CONTINUOUS
 10
0.073478
 20
1.895140
  0
VERTEX
  8
FOREGROUND
  6
CONTINUOUS
 10
0.070317
 20
1.876696
  0
VERTEX
  8
FOREGROUND
  6
CONTINUOUS
 10
0.067379
 20
1.858123
  0
VERTEX
  8
FOREGROUND
  6
CONTINUOUS
 10
0.064665
 20
1.839420
  0
VERTEX
  8
FOREGROUND
  6
CONTINUOUS
 10
0.062175
 20
1.820588
  0
VERTEX
  8
FOREGROUND
  6
CONTINUOUS
 10
0.059912
 20
1.801626
  0
VERTEX
  8
FOREGROUND
  6
CONTINUOUS
 10
0.057877
 20
1.782535
  0
VERTEX
  8
FOREGROUND
  6
CONTINUOUS
 10
0.056072
 20
1.763314
  0
VERTEX
  8
FOREGROUND
  6
CONTINUOUS
 10
0.054499
 20
1.743964
  0
VERTEX
  8
FOREGROUND
  6
CONTINUOUS
 10
0.053158
 20
1.724485
  0
VERTEX
  8
FOREGROUND
  6
CONTINUOUS
 10
0.052051
 20
1.704876
  0
VERTEX
  8
FOREGROUND
  6
CONTINUOUS
 10
0.051181
 20
1.685138
  0
VERTEX
  8
FOREGROUND
  6
CONTINUOUS
 10
0.050548
 20
1.665270
  0
VERTEX
  8
FOREGROUND
  6
CONTINUOUS
 10
0.050154
 20
1.645273
  0
VERTEX
  8
FOREGROUND
  6
CONTINUOUS
 10
0.050001
 20
1.625146
  0
VERTEX
  8
FOREGROUND
  6
CONTINUOUS
 10
0.050001
 20
1.625146
  0
VERTEX
  8
FOREGROUND
  6
CONTINUOUS
 10
0.050129
 20
1.605019
  0
VERTEX
  8
FOREGROUND
  6
CONTINUOUS
 10
0.050498
 20
1.585022
  0
VERTEX
  8
FOREGROUND
  6
CONTINUOUS
 10
0.051107
 20
1.565154
  0
VERTEX
  8
FOREGROUND
  6
CONTINUOUS
 10
0.051953
 20
1.545416
  0
VERTEX
  8
FOREGROUND
  6
CONTINUOUS
 10
0.053036
 20
1.525807
  0
VERTEX
  8
FOREGROUND
  6
CONTINUOUS
 10
0.054352
 20
1.506327
  0
VERTEX
  8
FOREGROUND
  6
CONTINUOUS
 10
0.055902
 20
1.486977
  0
VERTEX
  8
FOREGROUND
  6
CONTINUOUS
 10
0.057684
 20
1.467756
  0
VERTEX
  8
FOREGROUND
  6
CONTINUOUS
 10
0.059695
 20
1.448665
  0
VERTEX
  8
FOREGROUND
  6
CONTINUOUS
 10
0.061935
 20
1.429702
  0
VERTEX
  8
FOREGROUND
  6
CONTINUOUS
 10
0.064401
 20
1.410870
  0
VERTEX
  8
FOREGROUND
  6
CONTINUOUS
 10
0.067093
 20
1.392167
  0
VERTEX
  8
FOREGROUND
  6
CONTINUOUS
 10
0.070008
 20
1.373593
  0
VERTEX
  8
FOREGROUND
  6
CONTINUOUS
 10
0.073145
 20
1.355148
  0
VERTEX
  8
FOREGROUND
  6
CONTINUOUS
 10
0.076503
 20
1.336834
  0
VERTEX
  8
FOREGROUND
  6
CONTINUOUS
 10
0.080081
 20
1.318648
  0
VERTEX
  8
FOREGROUND
  6
CONTINUOUS
 10
0.083875
 20
1.300592
  0
VERTEX
  8
FOREGROUND
  6
CONTINUOUS
 10
0.087886
 20
1.282665
  0
VERTEX
  8
FOREGROUND
  6
CONTINUOUS
 10
0.092110
 20
1.264868
  0
VERTEX
  8
FOREGROUND
  6
CONTINUOUS
 10
0.096548
 20
1.247200
  0
VERTEX
  8
FOREGROUND
  6
CONTINUOUS
 10
0.101197
 20
1.229661
  0
VERTEX
  8
FOREGROUND
  6
CONTINUOUS
 10
0.106056
 20
1.212252
  0
VERTEX
  8
FOREGROUND
  6
CONTINUOUS
 10
0.111123
 20
1.194972
  0
VERTEX
  8
FOREGROUND
  6
CONTINUOUS
 10
0.116396
 20
1.177822
  0
VERTEX
  8
FOREGROUND
  6
CONTINUOUS
 10
0.121874
 20
1.160801
  0
VERTEX
  8
FOREGROUND
  6
CONTINUOUS
 10
0.127556
 20
1.143910
  0
VERTEX
  8
FOREGROUND
  6
CONTINUOUS
 10
0.133440
 20
1.127148
  0
VERTEX
  8
FOREGROUND
  6
CONTINUOUS
 10
0.139525
 20
1.110515
  0
VERTEX
  8
FOREGROUND
  6
CONTINUOUS
 10
0.145808
 20
1.094012
  0
VERTEX
  8
FOREGROUND
  6
CONTINUOUS
 10
0.152288
 20
1.077638
  0
VERTEX
  8
FOREGROUND
  6
CONTINUOUS
 10
0.158965
 20
1.061393
  0
VERTEX
  8
FOREGROUND
  6
CONTINUOUS
 10
0.165835
 20
1.045278
  0
VERTEX
  8
FOREGROUND
  6
CONTINUOUS
 10
0.172898
 20
1.029293
  0
VERTEX
  8
FOREGROUND
  6
CONTINUOUS
 10
0.180152
 20
1.013436
  0
VERTEX
  8
FOREGROUND
  6
CONTINUOUS
 10
0.187596
 20
0.997710
  0
VERTEX
  8
FOREGROUND
  6
CONTINUOUS
 10
0.195227
 20
0.982112
  0
VERTEX
  8
FOREGROUND
  6
CONTINUOUS
 10
0.203045
 20
0.966644
  0
VERTEX
  8
FOREGROUND
  6
CONTINUOUS
 10
0.211048
 20
0.951306
  0
VERTEX
  8
FOREGROUND
  6
CONTINUOUS
 10
0.219235
 20
0.936097
  0
VERTEX
  8
FOREGROUND
  6
CONTINUOUS
 10
0.227602
 20
0.921017
  0
VERTEX
  8
FOREGROUND
  6
CONTINUOUS
 10
0.236151
 20
0.906067
  0
VERTEX
  8
FOREGROUND
  6
CONTINUOUS
 10
0.244878
 20
0.891246
  0
VERTEX
  8
FOREGROUND
  6
CONTINUOUS
 10
0.253781
 20
0.876554
  0
VERTEX
  8
FOREGROUND
  6
CONTINUOUS
 10
0.262861
 20
0.861992
  0
VERTEX
  8
FOREGROUND
  6
CONTINUOUS
 10
0.272115
 20
0.847559
  0
VERTEX
  8
FOREGROUND
  6
CONTINUOUS
 10
0.281540
 20
0.833256
  0
VERTEX
  8
FOREGROUND
  6
CONTINUOUS
 10
0.291137
 20
0.819082
  0
VERTEX
  8
FOREGROUND
  6
CONTINUOUS
 10
0.300904
 20
0.805038
  0
VERTEX
  8
FOREGROUND
  6
CONTINUOUS
 10
0.310838
 20
0.791123
  0
VERTEX
  8
FOREGROUND
  6
CONTINUOUS
 10
0.320938
 20
0.777337
  0
VERTEX
  8
FOREGROUND
  6
CONTINUOUS
 10
0.331203
 20
0.763681
  0
VERTEX
  8
FOREGROUND
  6
CONTINUOUS
 10
0.341631
 20
0.750154
  0
VERTEX
  8
FOREGROUND
  6
CONTINUOUS
 10
0.352220
 20
0.736757
  0
VERTEX
  8
FOREGROUND
  6
CONTINUOUS
 10
0.362970
 20
0.723489
  0
VERTEX
  8
FOREGROUND
  6
CONTINUOUS
 10
0.373878
 20
0.710350
  0
VERTEX
  8
FOREGROUND
  6
CONTINUOUS
 10
0.384943
 20
0.697341
  0
VERTEX
  8
FOREGROUND
  6
CONTINUOUS
 10
0.396163
 20
0.684461
  0
VERTEX
  8
FOREGROUND
  6
CONTINUOUS
 10
0.407538
 20
0.671711
  0
VERTEX
  8
FOREGROUND
  6
CONTINUOUS
 10
0.419064
 20
0.659090
  0
VERTEX
  8
FOREGROUND
  6
CONTINUOUS
 10
0.430741
 20
0.646599
  0
VERTEX
  8
FOREGROUND
  6
CONTINUOUS
 10
0.442568
 20
0.634237
  0
VERTEX
  8
FOREGROUND
  6
CONTINUOUS
 10
0.454542
 20
0.622004
  0
VERTEX
  8
FOREGROUND
  6
CONTINUOUS
 10
0.466662
 20
0.609901
  0
VERTEX
  8
FOREGROUND
  6
CONTINUOUS
 10
0.478926
 20
0.597927
  0
VERTEX
  8
FOREGROUND
  6
CONTINUOUS
 10
0.491333
 20
0.586083
  0
VERTEX
  8
FOREGROUND
  6
CONTINUOUS
 10
0.503882
 20
0.574368
  0
VERTEX
  8
FOREGROUND
  6
CONTINUOUS
 10
0.516571
 20
0.562782
  0
VERTEX
  8
FOREGROUND
  6
CONTINUOUS
 10
0.529398
 20
0.551326
  0
VERTEX
  8
FOREGROUND
  6
CONTINUOUS
 10
0.542362
 20
0.539999
  0
VERTEX
  8
FOREGROUND
  6
CONTINUOUS
 10
0.555460
 20
0.528802
  0
VERTEX
  8
FOREGROUND
  6
CONTINUOUS
 10
0.568693
 20
0.517734
  0
VERTEX
  8
FOREGROUND
  6
CONTINUOUS
 10
0.582057
 20
0.506795
  0
VERTEX
  8
FOREGROUND
  6
CONTINUOUS
 10
0.595552
 20
0.495986
  0
VERTEX
  8
FOREGROUND
  6
CONTINUOUS
 10
0.609177
 20
0.485307
  0
VERTEX
  8
FOREGROUND
  6
CONTINUOUS
 10
0.622928
 20
0.474757
  0
VERTEX
  8
FOREGROUND
  6
CONTINUOUS
 10
0.636805
 20
0.464336
  0
VERTEX
  8
FOREGROUND
  6
CONTINUOUS
 10
0.650807
 20
0.454044
  0
VERTEX
  8
FOREGROUND
  6
CONTINUOUS
 10
0.664931
 20
0.443882
  0
VERTEX
  8
FOREGROUND
  6
CONTINUOUS
 10
0.679177
 20
0.433850
  0
VERTEX
  8
FOREGROUND
  6
CONTINUOUS
 10
0.693542
 20
0.423947
  0
VERTEX
  8
FOREGROUND
  6
CONTINUOUS
 10
0.708026
 20
0.414173
  0
VERTEX
  8
FOREGROUND
  6
CONTINUOUS
 10
0.722625
 20
0.404529
  0
VERTEX
  8
FOREGROUND
  6
CONTINUOUS
 10
0.737340
 20
0.395014
  0
VERTEX
  8
FOREGROUND
  6
CONTINUOUS
 10
0.752169
 20
0.385628
  0
VERTEX
  8
FOREGROUND
  6
CONTINUOUS
 10
0.767109
 20
0.376372
  0
VERTEX
  8
FOREGROUND
  6
CONTINUOUS
 10
0.782159
 20
0.367246
  0
VERTEX
  8
FOREGROUND
  6
CONTINUOUS
 10
0.797319
 20
0.358248
  0
VERTEX
  8
FOREGROUND
  6
CONTINUOUS
 10
0.812585
 20
0.349381
  0
VERTEX
  8
FOREGROUND
  6
CONTINUOUS
 10
0.827958
 20
0.340642
  0
VERTEX
  8
FOREGROUND
  6
CONTINUOUS
 10
0.843434
 20
0.332033
  0
VERTEX
  8
FOREGROUND
  6
CONTINUOUS
 10
0.859013
 20
0.323554
  0
VERTEX
  8
FOREGROUND
  6
CONTINUOUS
 10
0.874693
 20
0.315204
  0
VERTEX
  8
FOREGROUND
  6
CONTINUOUS
 10
0.890472
 20
0.306983
  0
VERTEX
  8
FOREGROUND
  6
CONTINUOUS
 10
0.906350
 20
0.298892
  0
VERTEX
  8
FOREGROUND
  6
CONTINUOUS
 10
0.922323
 20
0.290930
  0
VERTEX
  8
FOREGROUND
  6
CONTINUOUS
 10
0.938392
 20
0.283098
  0
VERTEX
  8
FOREGROUND
  6
CONTINUOUS
 10
0.954554
 20
0.275395
  0
VERTEX
  8
FOREGROUND
  6
CONTINUOUS
 10
0.970807
 20
0.267821
  0
VERTEX
  8
FOREGROUND
  6
CONTINUOUS
 10
0.987151
 20
0.260377
  0
VERTEX
  8
FOREGROUND
  6
CONTINUOUS
 10
1.003583
 20
0.253062
  0
VERTEX
  8
FOREGROUND
  6
CONTINUOUS
 10
1.020102
 20
0.245877
  0
VERTEX
  8
FOREGROUND
  6
CONTINUOUS
 10
1.036707
 20
0.238821
  0
VERTEX
  8
FOREGROUND
  6
CONTINUOUS
 10
1.053395
 20
0.231894
  0
VERTEX
  8
FOREGROUND
  6
CONTINUOUS
 10
1.070167
 20
0.225097
  0
VERTEX
  8
FOREGROUND
  6
CONTINUOUS
 10
1.087018
 20
0.218430
  0
VERTEX
  8
FOREGROUND
  6
CONTINUOUS
 10
1.103950
 20
0.211892
  0
VERTEX
  8
FOREGROUND
  6
CONTINUOUS
 10
1.120959
 20
0.205483
  0
VERTEX
  8
FOREGROUND
  6
CONTINUOUS
 10
1.138044
 20
0.199204
  0
VERTEX
  8
FOREGROUND
  6
CONTINUOUS
 10
1.155203
 20
0.193054
  0
VERTEX
  8
FOREGROUND
  6
CONTINUOUS
 10
1.172436
 20
0.187033
  0
VERTEX
  8
FOREGROUND
  6
CONTINUOUS
 10
1.189740
 20
0.181142
  0
VERTEX
  8
FOREGROUND
  6
CONTINUOUS
 10
1.207115
 20
0.175380
  0
VERTEX
  8
FOREGROUND
  6
CONTINUOUS
 10
1.224557
 20
0.169748
  0
VERTEX
  8
FOREGROUND
  6
CONTINUOUS
 10
1.242067
 20
0.164245
  0
VERTEX
  8
FOREGROUND
  6
CONTINUOUS
 10
1.259642
 20
0.158872
  0
VERTEX
  8
FOREGROUND
  6
CONTINUOUS
 10
1.277280
 20
0.153628
  0
VERTEX
  8
FOREGROUND
  6
CONTINUOUS
 10
1.294981
 20
0.148513
  0
VERTEX
  8
FOREGROUND
  6
CONTINUOUS
 10
1.312742
 20
0.143528
  0
VERTEX
  8
FOREGROUND
  6
CONTINUOUS
 10
1.330563
 20
0.138673
  0
VERTEX
  8
FOREGROUND
  6
CONTINUOUS
 10
1.348441
 20
0.133946
  0
VERTEX
  8
FOREGROUND
  6
CONTINUOUS
 10
1.366375
 20
0.129350
  0
VERTEX
  8
FOREGROUND
  6
CONTINUOUS
 10
1.384363
 20
0.124882
  0
VERTEX
  8
FOREGROUND
  6
CONTINUOUS
 10
1.402405
 20
0.120544
  0
VERTEX
  8
FOREGROUND
  6
CONTINUOUS
 10
1.420497
 20
0.116336
  0
VERTEX
  8
FOREGROUND
  6
CONTINUOUS
 10
1.438640
 20
0.112257
  0
VERTEX
  8
FOREGROUND
  6
CONTINUOUS
 10
1.456831
 20
0.108307
  0
VERTEX
  8
FOREGROUND
  6
CONTINUOUS
 10
1.475068
 20
0.104487
  0
VERTEX
  8
FOREGROUND
  6
CONTINUOUS
 10
1.493350
 20
0.100796
  0
VERTEX
  8
FOREGROUND
  6
CONTINUOUS
 10
1.511676
 20
0.097234
  0
VERTEX
  8
FOREGROUND
  6
CONTINUOUS
 10
1.530044
 20
0.093802
  0
VERTEX
  8
FOREGROUND
  6
CONTINUOUS
 10
1.548453
 20
0.090500
  0
VERTEX
  8
FOREGROUND
  6
CONTINUOUS
 10
1.566900
 20
0.087327
  0
VERTEX
  8
FOREGROUND
  6
CONTINUOUS
 10
1.585385
 20
0.084283
  0
VERTEX
  8
FOREGROUND
  6
CONTINUOUS
 10
1.603906
 20
0.081369
  0
VERTEX
  8
FOREGROUND
  6
CONTINUOUS
 10
1.622461
 20
0.078584
  0
VERTEX
  8
FOREGROUND
  6
CONTINUOUS
 10
1.641048
 20
0.075928
  0
VERTEX
  8
FOREGROUND
  6
CONTINUOUS
 10
1.659667
 20
0.073402
  0
VERTEX
  8
FOREGROUND
  6
CONTINUOUS
 10
1.678315
 20
0.071006
  0
VERTEX
  8
FOREGROUND
  6
CONTINUOUS
 10
1.696991
 20
0.068739
  0
VERTEX
  8
FOREGROUND
  6
CONTINUOUS
 10
1.715694
 20
0.066601
  0
VERTEX
  8
FOREGROUND
  6
CONTINUOUS
 10
1.734422
 20
0.064593
  0
VERTEX
  8
FOREGROUND
  6
CONTINUOUS
 10
1.753173
 20
0.062714
  0
VERTEX
  8
FOREGROUND
  6
CONTINUOUS
 10
1.771946
 20
0.060964
  0
VERTEX
  8
FOREGROUND
  6
CONTINUOUS
 10
1.790739
 20
0.059345
  0
VERTEX
  8
FOREGROUND
  6
CONTINUOUS
 10
1.809551
 20
0.057854
  0
VERTEX
  8
FOREGROUND
  6
CONTINUOUS
 10
1.828380
 20
0.056493
  0
VERTEX
  8
FOREGROUND
  6
CONTINUOUS
 10
1.847225
 20
0.055261
  0
VERTEX
  8
FOREGROUND
  6
CONTINUOUS
 10
1.866083
 20
0.054159
  0
VERTEX
  8
FOREGROUND
  6
CONTINUOUS
 10
1.884955
 20
0.053186
  0
VERTEX
  8
FOREGROUND
  6
CONTINUOUS
 10
1.903837
 20
0.052343
  0
VERTEX
  8
FOREGROUND
  6
CONTINUOUS
 10
1.922728
 20
0.051629
  0
VERTEX
  8
FOREGROUND
  6
CONTINUOUS
 10
1.941628
 20
0.051044
  0
VERTEX
  8
FOREGROUND
  6
CONTINUOUS
 10
1.960534
 20
0.050589
  0
VERTEX
  8
FOREGROUND
  6
CONTINUOUS
 10
1.979444
 20
0.050263
  0
VERTEX
  8
FOREGROUND
  6
CONTINUOUS
 10
1.998358
 20
0.050067
  0
VERTEX
  8
FOREGROUND
  6
CONTINUOUS
 10
2.017273
 20
0.050000
  0
VERTEX
  8
FOREGROUND
  6
CONTINUOUS
 10
2.036189
 20
0.050063
  0
VERTEX
  8
FOREGROUND
  6
CONTINUOUS
 10
2.055103
 20
0.050255
  0
VERTEX
  8
FOREGROUND
  6
CONTINUOUS
 10
2.074013
 20
0.050576
  0
VERTEX
  8
FOREGROUND
  6
CONTINUOUS
 10
2.092920
 20
0.051027
  0
VERTEX
  8
FOREGROUND
  6
CONTINUOUS
 10
2.111820
 20
0.051608
  0
VERTEX
  8
FOREGROUND
  6
CONTINUOUS
 10
2.130713
 20
0.052317
  0
VERTEX
  8
FOREGROUND
  6
CONTINUOUS
 10
2.149596
 20
0.053157
  0
VERTEX
  8
FOREGROUND
  6
CONTINUOUS
 10
2.168469
 20
0.054125
  0
VERTEX
  8
FOREGROUND
  6
CONTINUOUS
 10
2.187329
 20
0.055223
  0
VERTEX
  8
FOREGROUND
  6
CONTINUOUS
 10
2.206175
 20
0.056451
  0
VERTEX
  8
FOREGROUND
  6
CONTINUOUS
 10
2.225006
 20
0.057808
  0
VERTEX
  8
FOREGROUND
  6
CONTINUOUS
 10
2.243820
 20
0.059294
  0
VERTEX
  8
FOREGROUND
  6
CONTINUOUS
 10
2.262615
 20
0.060910
  0
VERTEX
  8
FOREGROUND
  6
CONTINUOUS
 10
2.281391
 20
0.062655
  0
VERTEX
  8
FOREGROUND
  6
CONTINUOUS
 10
2.300144
 20
0.064530
  0
VERTEX
  8
FOREGROUND
  6
CONTINUOUS
 10
2.318875
 20
0.066534
  0
VERTEX
  8
FOREGROUND
  6
CONTINUOUS
 10
2.337580
 20
0.068668
  0
VERTEX
  8
FOREGROUND
  6
CONTINUOUS
 10
2.356260
 20
0.070930
  0
VERTEX
  8
FOREGROUND
  6
CONTINUOUS
 10
2.374911
 20
0.073323
  0
VERTEX
  8
FOREGROUND
  6
CONTINUOUS
 10
2.393533
 20
0.075845
  0
VERTEX
  8
FOREGROUND
  6
CONTINUOUS
 10
2.412124
 20
0.078496
  0
VERTEX
  8
FOREGROUND
  6
CONTINUOUS
 10
2.430683
 20
0.081277
  0
VERTEX
  8
FOREGROUND
  6
CONTINUOUS
 10
2.449207
 20
0.084187
  0
VERTEX
  8
FOREGROUND
  6
CONTINUOUS
 10
2.467696
 20
0.087227
  0
VERTEX
  8
FOREGROUND
  6
CONTINUOUS
 10
2.486148
 20
0.090396
  0
VERTEX
  8
FOREGROUND
  6
CONTINUOUS
 10
2.504561
 20
0.093694
  0
VERTEX
  8
FOREGROUND
  6
CONTINUOUS
 10
2.522933
 20
0.097122
  0
VERTEX
  8
FOREGROUND
  6
CONTINUOUS
 10
2.541264
 20
0.100679
  0
VERTEX
  8
FOREGROUND
  6
CONTINUOUS
 10
2.559552
 20
0.104366
  0
VERTEX
  8
FOREGROUND
  6
CONTINUOUS
 10
2.577794
 20
0.108182
  0
VERTEX
  8
FOREGROUND
  6
CONTINUOUS
 10
2.595990
 20
0.112128
  0
VERTEX
  8
FOREGROUND
  6
CONTINUOUS
 10
2.614138
 20
0.116203
  0
VERTEX
  8
FOREGROUND
  6
CONTINUOUS
 10
2.632236
 20
0.120407
  0
VERTEX
  8
FOREGROUND
  6
CONTINUOUS
 10
2.650284
 20
0.124741
  0
VERTEX
  8
FOREGROUND
  6
CONTINUOUS
 10
2.668278
 20
0.129205
  0
VERTEX
  8
FOREGROUND
  6
CONTINUOUS
 10
2.686218
 20
0.133798
  0
VERTEX
  8
FOREGROUND
  6
CONTINUOUS
 10
2.704103
 20
0.138520
  0
VERTEX
  8
FOREGROUND
  6
CONTINUOUS
 10
2.721930
 20
0.143372
  0
VERTEX
  8
FOREGROUND
  6
CONTINUOUS
 10
2.739698
 20
0.148353
  0
VERTEX
  8
FOREGROUND
  6
CONTINUOUS
 10
2.757405
 20
0.153463
  0
VERTEX
  8
FOREGROUND
  6
CONTINUOUS
 10
2.775051
 20
0.158703
  0
VERTEX
  8
FOREGROUND
  6
CONTINUOUS
 10
2.792633
 20
0.164073
  0
VERTEX
  8
FOREGROUND
  6
CONTINUOUS
 10
2.810150
 20
0.169572
  0
VERTEX
  8
FOREGROUND
  6
CONTINUOUS
 10
2.827600
 20
0.175200
  0
VERTEX
  8
FOREGROUND
  6
CONTINUOUS
 10
2.844982
 20
0.180958
  0
VERTEX
  8
FOREGROUND
  6
CONTINUOUS
 10
2.862295
 20
0.186845
  0
VERTEX
  8
FOREGROUND
  6
CONTINUOUS
 10
2.879535
 20
0.192862
  0
VERTEX
  8
FOREGROUND
  6
CONTINUOUS
 10
2.896703
 20
0.199008
  0
VERTEX
  8
FOREGROUND
  6
CONTINUOUS
 10
2.913797
 20
0.205283
  0
VERTEX
  8
FOREGROUND
  6
CONTINUOUS
 10
2.930814
 20
0.211688
  0
VERTEX
  8
FOREGROUND
  6
CONTINUOUS
 10
2.947754
 20
0.218223
  0
VERTEX
  8
FOREGROUND
  6
CONTINUOUS
 10
2.964615
 20
0.224887
  0
VERTEX
  8
FOREGROUND
  6
CONTINUOUS
 10
2.981395
 20
0.231680
  0
VERTEX
  8
FOREGROUND
  6
CONTINUOUS
 10
2.998093
 20
0.238603
  0
VERTEX
  8
FOREGROUND
  6
CONTINUOUS
 10
3.014708
 20
0.245655
  0
VERTEX
  8
FOREGROUND
  6
CONTINUOUS
 10
3.031237
 20
0.252837
  0
VERTEX
  8
FOREGROUND
  6
CONTINUOUS
 10
3.047679
 20
0.260148
  0
VERTEX
  8
FOREGROUND
  6
CONTINUOUS
 10
3.064032
 20
0.267588
  0
VERTEX
  8
FOREGROUND
  6
CONTINUOUS
 10
3.080296
 20
0.275158
  0
VERTEX
  8
FOREGROUND
  6
CONTINUOUS
 10
3.096468
 20
0.282858
  0
VERTEX
  8
FOREGROUND
  6
CONTINUOUS
 10
3.112547
 20
0.290686
  0
VERTEX
  8
FOREGROUND
  6
CONTINUOUS
 10
3.128532
 20
0.298645
  0
VERTEX
  8
FOREGROUND
  6
CONTINUOUS
 10
3.144420
 20
0.306732
  0
VERTEX
  8
FOREGROUND
  6
CONTINUOUS
 10
3.160210
 20
0.314950
  0
VERTEX
  8
FOREGROUND
  6
CONTINUOUS
 10
3.175901
 20
0.323296
  0
VERTEX
  8
FOREGROUND
  6
CONTINUOUS
 10
3.191492
 20
0.331772
  0
VERTEX
  8
FOREGROUND
  6
CONTINUOUS
 10
3.206980
 20
0.340378
  0
VERTEX
  8
FOREGROUND
  6
CONTINUOUS
 10
3.222364
 20
0.349113
  0
VERTEX
  8
FOREGROUND
  6
CONTINUOUS
 10
3.237642
 20
0.357977
  0
VERTEX
  8
FOREGROUND
  6
CONTINUOUS
 10
3.252814
 20
0.366971
  0
VERTEX
  8
FOREGROUND
  6
CONTINUOUS
 10
3.267877
 20
0.376094
  0
VERTEX
  8
FOREGROUND
  6
CONTINUOUS
 10
3.282829
 20
0.385347
  0
VERTEX
  8
FOREGROUND
  6
CONTINUOUS
 10
3.297670
 20
0.394729
  0
VERTEX
  8
FOREGROUND
  6
CONTINUOUS
 10
3.312398
 20
0.404241
  0
VERTEX
  8
FOREGROUND
  6
CONTINUOUS
 10
3.327011
 20
0.413882
  0
VERTEX
  8
FOREGROUND
  6
CONTINUOUS
 10
3.341507
 20
0.423652
  0
VERTEX
  8
FOREGROUND
  6
CONTINUOUS
 10
3.355886
 20
0.433552
  0
VERTEX
  8
FOREGROUND
  6
CONTINUOUS
 10
3.370145
 20
0.443582
  0
VERTEX
  8
FOREGROUND
  6
CONTINUOUS
 10
3.384283
 20
0.453740
  0
VERTEX
  8
FOREGROUND
  6
CONTINUOUS
 10
3.398299
 20
0.464029
  0
VERTEX
  8
FOREGROUND
  6
CONTINUOUS
 10
3.412190
 20
0.474446
  0
VERTEX
  8
FOREGROUND
  6
CONTINUOUS
 10
3.425956
 20
0.484993
  0
VERTEX
  8
FOREGROUND
  6
CONTINUOUS
 10
3.439594
 20
0.495670
  0
VERTEX
  8
FOREGROUND
  6
CONTINUOUS
 10
3.453104
 20
0.506476
  0
VERTEX
  8
FOREGROUND
  6
CONTINUOUS
 10
3.466483
 20
0.517412
  0
VERTEX
  8
FOREGROUND
  6
CONTINUOUS
 10
3.479730
 20
0.528477
  0
VERTEX
  8
FOREGROUND
  6
CONTINUOUS
 10
3.492844
 20
0.539671
  0
VERTEX
  8
FOREGROUND
  6
CONTINUOUS
 10
3.505823
 20
0.550995
  0
VERTEX
  8
FOREGROUND
  6
CONTINUOUS
 10
3.518665
 20
0.562448
  0
VERTEX
  8
FOREGROUND
  6
CONTINUOUS
 10
3.531370
 20
0.574031
  0
VERTEX
  8
FOREGROUND
  6
CONTINUOUS
 10
3.543934
 20
0.585743
  0
VERTEX
  8
FOREGROUND
  6
CONTINUOUS
 10
3.556358
 20
0.597585
  0
VERTEX
  8
FOREGROUND
  6
CONTINUOUS
 10
3.568638
 20
0.609556
  0
VERTEX
  8
FOREGROUND
  6
CONTINUOUS
 10
3.580775
 20
0.621656
  0
VERTEX
  8
FOREGROUND
  6
CONTINUOUS
 10
3.592765
 20
0.633886
  0
VERTEX
  8
FOREGROUND
  6
CONTINUOUS
 10
3.604608
 20
0.646246
  0
VERTEX
  8
FOREGROUND
  6
CONTINUOUS
 10
3.616302
 20
0.658735
  0
VERTEX
  8
FOREGROUND
  6
CONTINUOUS
 10
3.627845
 20
0.671353
  0
VERTEX
  8
FOREGROUND
  6
CONTINUOUS
 10
3.639237
 20
0.684101
  0
VERTEX
  8
FOREGROUND
  6
CONTINUOUS
 10
3.650474
 20
0.696978
  0
VERTEX
  8
FOREGROUND
  6
CONTINUOUS
 10
3.661557
 20
0.709985
  0
VERTEX
  8
FOREGROUND
  6
CONTINUOUS
 10
3.672483
 20
0.723121
  0
VERTEX
  8
FOREGROUND
  6
CONTINUOUS
 10
3.683250
 20
0.736386
  0
VERTEX
  8
FOREGROUND
  6
CONTINUOUS
 10
3.693858
 20
0.749781
  0
VERTEX
  8
FOREGROUND
  6
CONTINUOUS
 10
3.704304
 20
0.763306
  0
VERTEX
  8
FOREGROUND
  6
CONTINUOUS
 10
3.714587
 20
0.776960
  0
VERTEX
  8
FOREGROUND
  6
CONTINUOUS
 10
3.724706
 20
0.790743
  0
VERTEX
  8
FOREGROUND
  6
CONTINUOUS
 10
3.734659
 20
0.804656
  0
VERTEX
  8
FOREGROUND
  6
CONTINUOUS
 10
3.744444
 20
0.818698
  0
VERTEX
  8
FOREGROUND
  6
CONTINUOUS
 10
3.754060
 20
0.832870
  0
VERTEX
  8
FOREGROUND
  6
CONTINUOUS
 10
3.763505
 20
0.847171
  0
VERTEX
  8
FOREGROUND
  6
CONTINUOUS
 10
3.772778
 20
0.861602
  0
VERTEX
  8
FOREGROUND
  6
CONTINUOUS
 10
3.781877
 20
0.876162
  0
VERTEX
  8
FOREGROUND
  6
CONTINUOUS
 10
3.790801
 20
0.890851
  0
VERTEX
  8
FOREGROUND
  6
CONTINUOUS
 10
3.799548
 20
0.905670
  0
VERTEX
  8
FOREGROUND
  6
CONTINUOUS
 10
3.808116
 20
0.920619
  0
VERTEX
  8
FOREGROUND
  6
CONTINUOUS
 10
3.816504
 20
0.935697
  0
VERTEX
  8
FOREGROUND
  6
CONTINUOUS
 10
3.824711
 20
0.950904
  0
VERTEX
  8
FOREGROUND
  6
CONTINUOUS
 10
3.832735
 20
0.966241
  0
VERTEX
  8
FOREGROUND
  6
CONTINUOUS
 10
3.840574
 20
0.981707
  0
VERTEX
  8
FOREGROUND
  6
CONTINUOUS
 10
3.848226
 20
0.997303
  0
VERTEX
  8
FOREGROUND
  6
CONTINUOUS
 10
3.855691
 20
1.013028
  0
VERTEX
  8
FOREGROUND
  6
CONTINUOUS
 10
3.862966
 20
1.028882
  0
VERTEX
  8
FOREGROUND
  6
CONTINUOUS
 10
3.870051
 20
1.044866
  0
VERTEX
  8
FOREGROUND
  6
CONTINUOUS
 10
3.876943
 20
1.060980
  0
VERTEX
  8
FOREGROUND
  6
CONTINUOUS
 10
3.883641
 20
1.077223
  0
VERTEX
  8
FOREGROUND
  6
CONTINUOUS
 10
3.890144
 20
1.093595
  0
VERTEX
  8
FOREGROUND
  6
CONTINUOUS
 10
3.896449
 20
1.110097
  0
VERTEX
  8
FOREGROUND
  6
CONTINUOUS
 10
3.902556
 20
1.126728
  0
VERTEX
  8
FOREGROUND
  6
CONTINUOUS
 10
3.908462
 20
1.143489
  0
VERTEX
  8
FOREGROUND
  6
CONTINUOUS
 10
3.914167
 20
1.160379
  0
VERTEX
  8
FOREGROUND
  6
CONTINUOUS
 10
3.919668
 20
1.177399
  0
VERTEX
  8
FOREGROUND
  6
CONTINUOUS
 10
3.924965
 20
1.194548
  0
VERTEX
  8
FOREGROUND
  6
CONTINUOUS
 10
3.930055
 20
1.211827
  0
VERTEX
  8
FOREGROUND
  6
CONTINUOUS
 10
3.934937
 20
1.229235
  0
VERTEX
  8
FOREGROUND
  6
CONTINUOUS
 10
3.939610
 20
1.246772
  0
VERTEX
  8
FOREGROUND
  6
CONTINUOUS
 10
3.944071
 20
1.264439
  0
VERTEX
  8
FOREGROUND
  6
CONTINUOUS
 10
3.948320
 20
1.282236
  0
VERTEX
  8
FOREGROUND
  6
CONTINUOUS
 10
3.952355
 20
1.300162
  0
VERTEX
  8
FOREGROUND
  6
CONTINUOUS
 10
3.956173
 20
1.318217
  0
VERTEX
  8
FOREGROUND
  6
CONTINUOUS
 10
3.959775
 20
1.336402
  0
VERTEX
  8
FOREGROUND
  6
CONTINUOUS
 10
3.963158
 20
1.354716
  0
VERTEX
  8
FOREGROUND
  6
CONTINUOUS
 10
3.966320
 20
1.373160
  0
VERTEX
  8
FOREGROUND
  6
CONTINUOUS
 10
3.969260
 20
1.391733
  0
VERTEX
  8
FOREGROUND
  6
CONTINUOUS
 10
3.971977
 20
1.410435
  0
VERTEX
  8
FOREGROUND
  6
CONTINUOUS
 10
3.974469
 20
1.429267
  0
VERTEX
  8
FOREGROUND
  6
CONTINUOUS
 10
3.976734
 20
1.448229
  0
VERTEX
  8
FOREGROUND
  6
CONTINUOUS
 10
3.978771
 20
1.467320
  0
VERTEX
  8
FOREGROUND
  6
CONTINUOUS
 10
3.980578
 20
1.486540
  0
VERTEX
  8
FOREGROUND
  6
CONTINUOUS
 10
3.982154
 20
1.505890
  0
VERTEX
  8
FOREGROUND
  6
CONTINUOUS
 10
3.983497
 20
1.525370
  0
VERTEX
  8
FOREGROUND
  6
CONTINUOUS
 10
3.984606
 20
1.544978
  0
VERTEX
  8
FOREGROUND
  6
CONTINUOUS
 10
3.985479
 20
1.564717
  0
VERTEX
  8
FOREGROUND
  6
CONTINUOUS
 10
3.986114
 20
1.584584
  0
VERTEX
  8
FOREGROUND
  6
CONTINUOUS
 10
3.986510
 20
1.604582
  0
VERTEX
  8
FOREGROUND
  6
CONTINUOUS
 10
3.986666
 20
1.624708
  0
SEQEND
  8
0
  0
ENDSEC
  0
EOF
