  0
SECTION
  2
HEADER
  9
$ACADVER
  1
AC1006
  9
$EXTMIN
 10
0.000000
 20
0.000000
  9
$EXTMAX
 10
4.825000
 20
2.463333
  9
$LTSCALE
 40
0.166667
  9
$PDMODE
 70
    35
  9
$PDSIZE
 40
0.133333
  0
ENDSEC
  0
SECTION
  2
TABLES
  0
TABLE
  2
LTYPE
 70
     9
  0
LTYPE
  2
CONTINUOUS
 70
    64
  3
Solid line
 72
    65
 73
     0
 40
0.000000
  0
LTYPE
  2
DASHED
 70
    64
  3
__ __ __ __ __ __ __ __ __ __ __ __ __ __ __
 72
    65
 73
     2
 40
0.001250
 49
0.000833
 49
-0.000417
  0
LTYPE
  2
HIDDEN
 70
    64
  3
 _ _ _ _ _ _ _ _ _ _ _ _ _ _ _ _ _ _ _ _ _ _
 72
    65
 73
     2
 40
0.000625
 49
0.000417
 49
-0.000208
  0
LTYPE
  2
CENTER
 70
    64
  3
____ _ ____ _ ____ _ ____ _ ____ _ ____ _ ____
 72
    65
 73
     4
 40
0.003333
 49
0.002083
 49
-0.000417
 49
0.000417
 49
-0.000417
  0
LTYPE
  2
PHANTOM
 70
    64
  3
_____ _ _ _____ _ _ _____ _ _ _____ _ _ ____
 72
    65
 73
     6
 40
0.004167
 49
0.002083
 49
-0.000417
 49
0.000417
 49
-0.000417
 49
0.000417
 49
-0.000417
  0
LTYPE
  2
DOT
 70
    64
  3
...............................................
 72
    65
 73
     2
 40
0.000417
 49
0.000000
 49
-0.000417
  0
LTYPE
  2
DASHDOT
 70
    64
  3
__ . __ . __ . __ . __ . __ . __ . __ . __ . __
 72
    65
 73
     4
 40
0.001667
 49
0.000833
 49
-0.000417
 49
0.000000
 49
-0.000417
  0
LTYPE
  2
BORDER
 70
    64
  3
__ __ . __ __ . __ __ . __ __ . __ __ . __ __
 72
    65
 73
     6
 40
0.002917
 49
0.000833
 49
-0.000417
 49
0.000833
 49
-0.000417
 49
0.000000
 49
-0.000417
  0
LTYPE
  2
DIVIDE
 70
    64
  3
__ . . __ . . __ . . __ . . __ . . __ . . __
 72
    65
 73
     6
 40
0.002083
 49
0.000833
 49
-0.000417
 49
0.000000
 49
-0.000417
 49
0.000000
 49
-0.000417
  0
LTYPE
  2
DOTDOT
 70
    64
  3
 . .  . .  . .  . .  . .  . . 
 72
    65
 73
     5
 40
0.000917
 49
-0.000417
 49
0.000000
 49
-0.000417
 49
0.000000
 49
-0.000417
  0
ENDTAB
  0
TABLE
  2
STYLE
 70
     2
  0
STYLE
 70
     0
  2
SN0
 40
0.000000
 41
0.001667
 50
0.000000
 71
     0
 42
0.000000
  3
ROMAND
  0
STYLE
 70
    68
  2
SV0
 40
0.000000
 41
0.001667
 50
0.000000
 71
     0
 42
0.000000
  3
ROMAND
  0
ENDTAB
  0
TABLE
  2
LAYER
 70
     2
  0
LAYER
  2
FOREGROUND
 70
    64
 62
     7
  6
CONTINUOUS
  0
LAYER
  2
BACKGROUND
 70
    65
 62
    -7
  6
CONTINUOUS
  0
ENDTAB
  0
ENDSEC
  0
SECTION
  2
ENTITIES
  0
POLYLINE
  8
FOREGROUND
  6
CONTINUOUS
 66
     1
 40
0.010000
 41
0.010000
 70
     1
  0
VERTEX
  8
FOREGROUND
  6
CONTINUOUS
 10
4.773331
 20
1.231667
  0
VERTEX
  8
FOREGROUND
  6
CONTINUOUS
 10
4.773179
 20
1.247965
  0
VERTEX
  8
FOREGROUND
  6
CONTINUOUS
 10
4.772691
 20
1.264149
  0
VERTEX
  8
FOREGROUND
  6
CONTINUOUS
 10
4.771868
 20
1.280221
  0
VERTEX
  8
FOREGROUND
  6
CONTINUOUS
 10
4.770713
 20
1.296179
  0
VERTEX
  8
FOREGROUND
  6
CONTINUOUS
 10
4.769229
 20
1.312025
  0
VERTEX
  8
FOREGROUND
  6
CONTINUOUS
 10
4.767417
 20
1.327757
  0
VERTEX
  8
FOREGROUND
  6
CONTINUOUS
 10
4.765280
 20
1.343375
  0
VERTEX
  8
FOREGROUND
  6
CONTINUOUS
 10
4.762821
 20
1.358881
  0
VERTEX
  8
FOREGROUND
  6
CONTINUOUS
 10
4.760041
 20
1.374274
  0
VERTEX
  8
FOREGROUND
  6
CONTINUOUS
 10
4.756944
 20
1.389553
  0
VERTEX
  8
FOREGROUND
  6
CONTINUOUS
 10
4.753530
 20
1.404719
  0
VERTEX
  8
FOREGROUND
  6
CONTINUOUS
 10
4.749804
 20
1.419772
  0
VERTEX
  8
FOREGROUND
  6
CONTINUOUS
 10
4.745766
 20
1.434712
  0
VERTEX
  8
FOREGROUND
  6
CONTINUOUS
 10
4.741420
 20
1.449539
  0
VERTEX
  8
FOREGROUND
  6
CONTINUOUS
 10
4.736768
 20
1.464252
  0
VERTEX
  8
FOREGROUND
  6
CONTINUOUS
 10
4.731812
 20
1.478853
  0
VERTEX
  8
FOREGROUND
  6
CONTINUOUS
 10
4.726554
 20
1.493340
  0
VERTEX
  8
FOREGROUND
  6
CONTINUOUS
 10
4.720997
 20
1.507714
  0
VERTEX
  8
FOREGROUND
  6
CONTINUOUS
 10
4.715144
 20
1.521975
  0
VERTEX
  8
FOREGROUND
  6
CONTINUOUS
 10
4.708995
 20
1.536122
  0
VERTEX
  8
FOREGROUND
  6
CONTINUOUS
 10
4.702555
 20
1.550157
  0
VERTEX
  8
FOREGROUND
  6
CONTINUOUS
 10
4.695825
 20
1.564078
  0
VERTEX
  8
FOREGROUND
  6
CONTINUOUS
 10
4.688807
 20
1.577886
  0
VERTEX
  8
FOREGROUND
  6
CONTINUOUS
 10
4.681504
 20
1.591581
  0
VERTEX
  8
FOREGROUND
  6
CONTINUOUS
 10
4.673918
 20
1.605163
  0
VERTEX
  8
FOREGROUND
  6
CONTINUOUS
 10
4.666052
 20
1.618631
  0
VERTEX
  8
FOREGROUND
  6
CONTINUOUS
 10
4.657908
 20
1.631987
  0
VERTEX
  8
FOREGROUND
  6
CONTINUOUS
 10
4.649488
 20
1.645229
  0
VERTEX
  8
FOREGROUND
  6
CONTINUOUS
 10
4.640794
 20
1.658358
  0
VERTEX
  8
FOREGROUND
  6
CONTINUOUS
 10
4.631830
 20
1.671374
  0
VERTEX
  8
FOREGROUND
  6
CONTINUOUS
 10
4.622597
 20
1.684277
  0
VERTEX
  8
FOREGROUND
  6
CONTINUOUS
 10
4.613097
 20
1.697066
  0
VERTEX
  8
FOREGROUND
  6
CONTINUOUS
 10
4.603333
 20
1.709743
  0
VERTEX
  8
FOREGROUND
  6
CONTINUOUS
 10
4.593308
 20
1.722306
  0
VERTEX
  8
FOREGROUND
  6
CONTINUOUS
 10
4.583023
 20
1.734756
  0
VERTEX
  8
FOREGROUND
  6
CONTINUOUS
 10
4.572482
 20
1.747093
  0
VERTEX
  8
FOREGROUND
  6
CONTINUOUS
 10
4.561685
 20
1.759317
  0
VERTEX
  8
FOREGROUND
  6
CONTINUOUS
 10
4.550637
 20
1.771427
  0
VERTEX
  8
FOREGROUND
  6
CONTINUOUS
 10
4.539338
 20
1.783424
  0
VERTEX
  8
FOREGROUND
  6
CONTINUOUS
 10
4.527792
 20
1.795309
  0
VERTEX
  8
FOREGROUND
  6
CONTINUOUS
 10
4.516000
 20
1.807080
  0
VERTEX
  8
FOREGROUND
  6
CONTINUOUS
 10
4.503966
 20
1.818737
  0
VERTEX
  8
FOREGROUND
  6
CONTINUOUS
 10
4.491691
 20
1.830282
  0
VERTEX
  8
FOREGROUND
  6
CONTINUOUS
 10
4.479177
 20
1.841713
  0
VERTEX
  8
FOREGROUND
  6
CONTINUOUS
 10
4.466428
 20
1.853032
  0
VERTEX
  8
FOREGROUND
  6
CONTINUOUS
 10
4.453445
 20
1.864237
  0
VERTEX
  8
FOREGROUND
  6
CONTINUOUS
 10
4.440231
 20
1.875329
  0
VERTEX
  8
FOREGROUND
  6
CONTINUOUS
 10
4.426788
 20
1.886308
  0
VERTEX
  8
FOREGROUND
  6
CONTINUOUS
 10
4.413119
 20
1.897173
  0
VERTEX
  8
FOREGROUND
  6
CONTINUOUS
 10
4.399225
 20
1.907926
  0
VERTEX
  8
FOREGROUND
  6
CONTINUOUS
 10
4.385110
 20
1.918565
  0
VERTEX
  8
FOREGROUND
  6
CONTINUOUS
 10
4.370775
 20
1.929091
  0
VERTEX
  8
FOREGROUND
  6
CONTINUOUS
 10
4.356222
 20
1.939504
  0
VERTEX
  8
FOREGROUND
  6
CONTINUOUS
 10
4.341456
 20
1.949804
  0
VERTEX
  8
FOREGROUND
  6
CONTINUOUS
 10
4.326476
 20
1.959990
  0
VERTEX
  8
FOREGROUND
  6
CONTINUOUS
 10
4.311287
 20
1.970063
  0
VERTEX
  8
FOREGROUND
  6
CONTINUOUS
 10
4.295889
 20
1.980024
  0
VERTEX
  8
FOREGROUND
  6
CONTINUOUS
 10
4.280287
 20
1.989871
  0
VERTEX
  8
FOREGROUND
  6
CONTINUOUS
 10
4.264481
 20
1.999605
  0
VERTEX
  8
FOREGROUND
  6
CONTINUOUS
 10
4.248474
 20
2.009225
  0
VERTEX
  8
FOREGROUND
  6
CONTINUOUS
 10
4.232269
 20
2.018733
  0
VERTEX
  8
FOREGROUND
  6
CONTINUOUS
 10
4.215868
 20
2.028127
  0
VERTEX
  8
FOREGROUND
  6
CONTINUOUS
 10
4.199273
 20
2.037408
  0
VERTEX
  8
FOREGROUND
  6
CONTINUOUS
 10
4.182487
 20
2.046576
  0
VERTEX
  8
FOREGROUND
  6
CONTINUOUS
 10
4.165512
 20
2.055631
  0
VERTEX
  8
FOREGROUND
  6
CONTINUOUS
 10
4.148350
 20
2.064573
  0
VERTEX
  8
FOREGROUND
  6
CONTINUOUS
 10
4.131004
 20
2.073401
  0
VERTEX
  8
FOREGROUND
  6
CONTINUOUS
 10
4.113476
 20
2.082116
  0
VERTEX
  8
FOREGROUND
  6
CONTINUOUS
 10
4.095768
 20
2.090718
  0
VERTEX
  8
FOREGROUND
  6
CONTINUOUS
 10
4.077883
 20
2.099207
  0
VERTEX
  8
FOREGROUND
  6
CONTINUOUS
 10
4.059823
 20
2.107583
  0
VERTEX
  8
FOREGROUND
  6
CONTINUOUS
 10
4.041590
 20
2.115846
  0
VERTEX
  8
FOREGROUND
  6
CONTINUOUS
 10
4.023187
 20
2.123995
  0
VERTEX
  8
FOREGROUND
  6
CONTINUOUS
 10
4.004617
 20
2.132031
  0
VERTEX
  8
FOREGROUND
  6
CONTINUOUS
 10
3.985880
 20
2.139954
  0
VERTEX
  8
FOREGROUND
  6
CONTINUOUS
 10
3.966980
 20
2.147764
  0
VERTEX
  8
FOREGROUND
  6
CONTINUOUS
 10
3.947920
 20
2.155461
  0
VERTEX
  8
FOREGROUND
  6
CONTINUOUS
 10
3.928701
 20
2.163044
  0
VERTEX
  8
FOREGROUND
  6
CONTINUOUS
 10
3.909325
 20
2.170515
  0
VERTEX
  8
FOREGROUND
  6
CONTINUOUS
 10
3.889796
 20
2.177872
  0
VERTEX
  8
FOREGROUND
  6
CONTINUOUS
 10
3.870115
 20
2.185116
  0
VERTEX
  8
FOREGROUND
  6
CONTINUOUS
 10
3.850286
 20
2.192246
  0
VERTEX
  8
FOREGROUND
  6
CONTINUOUS
 10
3.830309
 20
2.199264
  0
VERTEX
  8
FOREGROUND
  6
CONTINUOUS
 10
3.810188
 20
2.206168
  0
VERTEX
  8
FOREGROUND
  6
CONTINUOUS
 10
3.789924
 20
2.212960
  0
VERTEX
  8
FOREGROUND
  6
CONTINUOUS
 10
3.769521
 20
2.219638
  0
VERTEX
  8
FOREGROUND
  6
CONTINUOUS
 10
3.748981
 20
2.226203
  0
VERTEX
  8
FOREGROUND
  6
CONTINUOUS
 10
3.728305
 20
2.232654
  0
VERTEX
  8
FOREGROUND
  6
CONTINUOUS
 10
3.707497
 20
2.238993
  0
VERTEX
  8
FOREGROUND
  6
CONTINUOUS
 10
3.686558
 20
2.245218
  0
VERTEX
  8
FOREGROUND
  6
CONTINUOUS
 10
3.665491
 20
2.251331
  0
VERTEX
  8
FOREGROUND
  6
CONTINUOUS
 10
3.644298
 20
2.257330
  0
VERTEX
  8
FOREGROUND
  6
CONTINUOUS
 10
3.622982
 20
2.263216
  0
VERTEX
  8
FOREGROUND
  6
CONTINUOUS
 10
3.601545
 20
2.268988
  0
VERTEX
  8
FOREGROUND
  6
CONTINUOUS
 10
3.579989
 20
2.274648
  0
VERTEX
  8
FOREGROUND
  6
CONTINUOUS
 10
3.558317
 20
2.280194
  0
VERTEX
  8
FOREGROUND
  6
CONTINUOUS
 10
3.536531
 20
2.285627
  0
VERTEX
  8
FOREGROUND
  6
CONTINUOUS
 10
3.514633
 20
2.290947
  0
VERTEX
  8
FOREGROUND
  6
CONTINUOUS
 10
3.492626
 20
2.296154
  0
VERTEX
  8
FOREGROUND
  6
CONTINUOUS
 10
3.470512
 20
2.301248
  0
VERTEX
  8
FOREGROUND
  6
CONTINUOUS
 10
3.448293
 20
2.306228
  0
VERTEX
  8
FOREGROUND
  6
CONTINUOUS
 10
3.425972
 20
2.311095
  0
VERTEX
  8
FOREGROUND
  6
CONTINUOUS
 10
3.403551
 20
2.315849
  0
VERTEX
  8
FOREGROUND
  6
CONTINUOUS
 10
3.381033
 20
2.320490
  0
VERTEX
  8
FOREGROUND
  6
CONTINUOUS
 10
3.358419
 20
2.325018
  0
VERTEX
  8
FOREGROUND
  6
CONTINUOUS
 10
3.335712
 20
2.329432
  0
VERTEX
  8
FOREGROUND
  6
CONTINUOUS
 10
3.312915
 20
2.333734
  0
VERTEX
  8
FOREGROUND
  6
CONTINUOUS
 10
3.290029
 20
2.337922
  0
VERTEX
  8
FOREGROUND
  6
CONTINUOUS
 10
3.267058
 20
2.341997
  0
VERTEX
  8
FOREGROUND
  6
CONTINUOUS
 10
3.244003
 20
2.345959
  0
VERTEX
  8
FOREGROUND
  6
CONTINUOUS
 10
3.220867
 20
2.349808
  0
VERTEX
  8
FOREGROUND
  6
CONTINUOUS
 10
3.197652
 20
2.353543
  0
VERTEX
  8
FOREGROUND
  6
CONTINUOUS
 10
3.174361
 20
2.357165
  0
VERTEX
  8
FOREGROUND
  6
CONTINUOUS
 10
3.150995
 20
2.360674
  0
VERTEX
  8
FOREGROUND
  6
CONTINUOUS
 10
3.127558
 20
2.364070
  0
VERTEX
  8
FOREGROUND
  6
CONTINUOUS
 10
3.104051
 20
2.367353
  0
VERTEX
  8
FOREGROUND
  6
CONTINUOUS
 10
3.080477
 20
2.370523
  0
VERTEX
  8
FOREGROUND
  6
CONTINUOUS
 10
3.056838
 20
2.373579
  0
VERTEX
  8
FOREGROUND
  6
CONTINUOUS
 10
3.033137
 20
2.376522
  0
VERTEX
  8
FOREGROUND
  6
CONTINUOUS
 10
3.009376
 20
2.379352
  0
VERTEX
  8
FOREGROUND
  6
CONTINUOUS
 10
2.985557
 20
2.382069
  0
VERTEX
  8
FOREGROUND
  6
CONTINUOUS
 10
2.961682
 20
2.384673
  0
VERTEX
  8
FOREGROUND
  6
CONTINUOUS
 10
2.937755
 20
2.387163
  0
VERTEX
  8
FOREGROUND
  6
CONTINUOUS
 10
2.913776
 20
2.389541
  0
VERTEX
  8
FOREGROUND
  6
CONTINUOUS
 10
2.889750
 20
2.391805
  0
VERTEX
  8
FOREGROUND
  6
CONTINUOUS
 10
2.865677
 20
2.393956
  0
VERTEX
  8
FOREGROUND
  6
CONTINUOUS
 10
2.841561
 20
2.395994
  0
VERTEX
  8
FOREGROUND
  6
CONTINUOUS
 10
2.817403
 20
2.397918
  0
VERTEX
  8
FOREGROUND
  6
CONTINUOUS
 10
2.793207
 20
2.399730
  0
VERTEX
  8
FOREGROUND
  6
CONTINUOUS
 10
2.768973
 20
2.401428
  0
VERTEX
  8
FOREGROUND
  6
CONTINUOUS
 10
2.744706
 20
2.403013
  0
VERTEX
  8
FOREGROUND
  6
CONTINUOUS
 10
2.720406
 20
2.404485
  0
VERTEX
  8
FOREGROUND
  6
CONTINUOUS
 10
2.696077
 20
2.405844
  0
VERTEX
  8
FOREGROUND
  6
CONTINUOUS
 10
2.671721
 20
2.407089
  0
VERTEX
  8
FOREGROUND
  6
CONTINUOUS
 10
2.647339
 20
2.408222
  0
VERTEX
  8
FOREGROUND
  6
CONTINUOUS
 10
2.622935
 20
2.409241
  0
VERTEX
  8
FOREGROUND
  6
CONTINUOUS
 10
2.598511
 20
2.410147
  0
VERTEX
  8
FOREGROUND
  6
CONTINUOUS
 10
2.574069
 20
2.410940
  0
VERTEX
  8
FOREGROUND
  6
CONTINUOUS
 10
2.549612
 20
2.411619
  0
VERTEX
  8
FOREGROUND
  6
CONTINUOUS
 10
2.525141
 20
2.412186
  0
VERTEX
  8
FOREGROUND
  6
CONTINUOUS
 10
2.500659
 20
2.412639
  0
VERTEX
  8
FOREGROUND
  6
CONTINUOUS
 10
2.476169
 20
2.412979
  0
VERTEX
  8
FOREGROUND
  6
CONTINUOUS
 10
2.451673
 20
2.413206
  0
VERTEX
  8
FOREGROUND
  6
CONTINUOUS
 10
2.427172
 20
2.413320
  0
VERTEX
  8
FOREGROUND
  6
CONTINUOUS
 10
2.402671
 20
2.413320
  0
VERTEX
  8
FOREGROUND
  6
CONTINUOUS
 10
2.378170
 20
2.413208
  0
VERTEX
  8
FOREGROUND
  6
CONTINUOUS
 10
2.353672
 20
2.412982
  0
VERTEX
  8
FOREGROUND
  6
CONTINUOUS
 10
2.329180
 20
2.412643
  0
VERTEX
  8
FOREGROUND
  6
CONTINUOUS
 10
2.304696
 20
2.412191
  0
VERTEX
  8
FOREGROUND
  6
CONTINUOUS
 10
2.280222
 20
2.411626
  0
VERTEX
  8
FOREGROUND
  6
CONTINUOUS
 10
2.255761
 20
2.410947
  0
VERTEX
  8
FOREGROUND
  6
CONTINUOUS
 10
2.231314
 20
2.410155
  0
VERTEX
  8
FOREGROUND
  6
CONTINUOUS
 10
2.206885
 20
2.409251
  0
VERTEX
  8
FOREGROUND
  6
CONTINUOUS
 10
2.182476
 20
2.408232
  0
VERTEX
  8
FOREGROUND
  6
CONTINUOUS
 10
2.158088
 20
2.407101
  0
VERTEX
  8
FOREGROUND
  6
CONTINUOUS
 10
2.133725
 20
2.405857
  0
VERTEX
  8
FOREGROUND
  6
CONTINUOUS
 10
2.109388
 20
2.404499
  0
VERTEX
  8
FOREGROUND
  6
CONTINUOUS
 10
2.085081
 20
2.403028
  0
VERTEX
  8
FOREGROUND
  6
CONTINUOUS
 10
2.060804
 20
2.401444
  0
VERTEX
  8
FOREGROUND
  6
CONTINUOUS
 10
2.036562
 20
2.399747
  0
VERTEX
  8
FOREGROUND
  6
CONTINUOUS
 10
2.012355
 20
2.397937
  0
VERTEX
  8
FOREGROUND
  6
CONTINUOUS
 10
1.988187
 20
2.396014
  0
VERTEX
  8
FOREGROUND
  6
CONTINUOUS
 10
1.964059
 20
2.393977
  0
VERTEX
  8
FOREGROUND
  6
CONTINUOUS
 10
1.939975
 20
2.391827
  0
VERTEX
  8
FOREGROUND
  6
CONTINUOUS
 10
1.915936
 20
2.389564
  0
VERTEX
  8
FOREGROUND
  6
CONTINUOUS
 10
1.891944
 20
2.387188
  0
VERTEX
  8
FOREGROUND
  6
CONTINUOUS
 10
1.868003
 20
2.384698
  0
VERTEX
  8
FOREGROUND
  6
CONTINUOUS
 10
1.844114
 20
2.382096
  0
VERTEX
  8
FOREGROUND
  6
CONTINUOUS
 10
1.820280
 20
2.379380
  0
VERTEX
  8
FOREGROUND
  6
CONTINUOUS
 10
1.796504
 20
2.376551
  0
VERTEX
  8
FOREGROUND
  6
CONTINUOUS
 10
1.772786
 20
2.373609
  0
VERTEX
  8
FOREGROUND
  6
CONTINUOUS
 10
1.749131
 20
2.370554
  0
VERTEX
  8
FOREGROUND
  6
CONTINUOUS
 10
1.725539
 20
2.367385
  0
VERTEX
  8
FOREGROUND
  6
CONTINUOUS
 10
1.702014
 20
2.364103
  0
VERTEX
  8
FOREGROUND
  6
CONTINUOUS
 10
1.678558
 20
2.360709
  0
VERTEX
  8
FOREGROUND
  6
CONTINUOUS
 10
1.655173
 20
2.357201
  0
VERTEX
  8
FOREGROUND
  6
CONTINUOUS
 10
1.631862
 20
2.353579
  0
VERTEX
  8
FOREGROUND
  6
CONTINUOUS
 10
1.608626
 20
2.349845
  0
VERTEX
  8
FOREGROUND
  6
CONTINUOUS
 10
1.585469
 20
2.345997
  0
VERTEX
  8
FOREGROUND
  6
CONTINUOUS
 10
1.562392
 20
2.342037
  0
VERTEX
  8
FOREGROUND
  6
CONTINUOUS
 10
1.539398
 20
2.337963
  0
VERTEX
  8
FOREGROUND
  6
CONTINUOUS
 10
1.516490
 20
2.333775
  0
VERTEX
  8
FOREGROUND
  6
CONTINUOUS
 10
1.493669
 20
2.329475
  0
VERTEX
  8
FOREGROUND
  6
CONTINUOUS
 10
1.470938
 20
2.325062
  0
VERTEX
  8
FOREGROUND
  6
CONTINUOUS
 10
1.448299
 20
2.320535
  0
VERTEX
  8
FOREGROUND
  6
CONTINUOUS
 10
1.425755
 20
2.315895
  0
VERTEX
  8
FOREGROUND
  6
CONTINUOUS
 10
1.403308
 20
2.311142
  0
VERTEX
  8
FOREGROUND
  6
CONTINUOUS
 10
1.380960
 20
2.306276
  0
VERTEX
  8
FOREGROUND
  6
CONTINUOUS
 10
1.358714
 20
2.301296
  0
VERTEX
  8
FOREGROUND
  6
CONTINUOUS
 10
1.336572
 20
2.296204
  0
VERTEX
  8
FOREGROUND
  6
CONTINUOUS
 10
1.314536
 20
2.290998
  0
VERTEX
  8
FOREGROUND
  6
CONTINUOUS
 10
1.292609
 20
2.285679
  0
VERTEX
  8
FOREGROUND
  6
CONTINUOUS
 10
1.270793
 20
2.280247
  0
VERTEX
  8
FOREGROUND
  6
CONTINUOUS
 10
1.249090
 20
2.274702
  0
VERTEX
  8
FOREGROUND
  6
CONTINUOUS
 10
1.227503
 20
2.269043
  0
VERTEX
  8
FOREGROUND
  6
CONTINUOUS
 10
1.206034
 20
2.263272
  0
VERTEX
  8
FOREGROUND
  6
CONTINUOUS
 10
1.184686
 20
2.257387
  0
VERTEX
  8
FOREGROUND
  6
CONTINUOUS
 10
1.163460
 20
2.251389
  0
VERTEX
  8
FOREGROUND
  6
CONTINUOUS
 10
1.142359
 20
2.245277
  0
VERTEX
  8
FOREGROUND
  6
CONTINUOUS
 10
1.121386
 20
2.239053
  0
VERTEX
  8
FOREGROUND
  6
CONTINUOUS
 10
1.100543
 20
2.232715
  0
VERTEX
  8
FOREGROUND
  6
CONTINUOUS
 10
1.079832
 20
2.226265
  0
VERTEX
  8
FOREGROUND
  6
CONTINUOUS
 10
1.059255
 20
2.219701
  0
VERTEX
  8
FOREGROUND
  6
CONTINUOUS
 10
1.038815
 20
2.213024
  0
VERTEX
  8
FOREGROUND
  6
CONTINUOUS
 10
1.018514
 20
2.206233
  0
VERTEX
  8
FOREGROUND
  6
CONTINUOUS
 10
0.998355
 20
2.199330
  0
VERTEX
  8
FOREGROUND
  6
CONTINUOUS
 10
0.978340
 20
2.192313
  0
VERTEX
  8
FOREGROUND
  6
CONTINUOUS
 10
0.958471
 20
2.185183
  0
VERTEX
  8
FOREGROUND
  6
CONTINUOUS
 10
0.938750
 20
2.177940
  0
VERTEX
  8
FOREGROUND
  6
CONTINUOUS
 10
0.919180
 20
2.170584
  0
VERTEX
  8
FOREGROUND
  6
CONTINUOUS
 10
0.899764
 20
2.163114
  0
VERTEX
  8
FOREGROUND
  6
CONTINUOUS
 10
0.880503
 20
2.155532
  0
VERTEX
  8
FOREGROUND
  6
CONTINUOUS
 10
0.861400
 20
2.147836
  0
VERTEX
  8
FOREGROUND
  6
CONTINUOUS
 10
0.842457
 20
2.140027
  0
VERTEX
  8
FOREGROUND
  6
CONTINUOUS
 10
0.823677
 20
2.132105
  0
VERTEX
  8
FOREGROUND
  6
CONTINUOUS
 10
0.805062
 20
2.124069
  0
VERTEX
  8
FOREGROUND
  6
CONTINUOUS
 10
0.786614
 20
2.115921
  0
VERTEX
  8
FOREGROUND
  6
CONTINUOUS
 10
0.768336
 20
2.107659
  0
VERTEX
  8
FOREGROUND
  6
CONTINUOUS
 10
0.750230
 20
2.099284
  0
VERTEX
  8
FOREGROUND
  6
CONTINUOUS
 10
0.732298
 20
2.090796
  0
VERTEX
  8
FOREGROUND
  6
CONTINUOUS
 10
0.714543
 20
2.082195
  0
VERTEX
  8
FOREGROUND
  6
CONTINUOUS
 10
0.696967
 20
2.073481
  0
VERTEX
  8
FOREGROUND
  6
CONTINUOUS
 10
0.679572
 20
2.064653
  0
VERTEX
  8
FOREGROUND
  6
CONTINUOUS
 10
0.662361
 20
2.055712
  0
VERTEX
  8
FOREGROUND
  6
CONTINUOUS
 10
0.645336
 20
2.046658
  0
VERTEX
  8
FOREGROUND
  6
CONTINUOUS
 10
0.628499
 20
2.037491
  0
VERTEX
  8
FOREGROUND
  6
CONTINUOUS
 10
0.611853
 20
2.028211
  0
VERTEX
  8
FOREGROUND
  6
CONTINUOUS
 10
0.595400
 20
2.018817
  0
VERTEX
  8
FOREGROUND
  6
CONTINUOUS
 10
0.579143
 20
2.009310
  0
VERTEX
  8
FOREGROUND
  6
CONTINUOUS
 10
0.563083
 20
1.999690
  0
VERTEX
  8
FOREGROUND
  6
CONTINUOUS
 10
0.547224
 20
1.989957
  0
VERTEX
  8
FOREGROUND
  6
CONTINUOUS
 10
0.531567
 20
1.980111
  0
VERTEX
  8
FOREGROUND
  6
CONTINUOUS
 10
0.516115
 20
1.970151
  0
VERTEX
  8
FOREGROUND
  6
CONTINUOUS
 10
0.500870
 20
1.960079
  0
VERTEX
  8
FOREGROUND
  6
CONTINUOUS
 10
0.485834
 20
1.949893
  0
VERTEX
  8
FOREGROUND
  6
CONTINUOUS
 10
0.471011
 20
1.939594
  0
VERTEX
  8
FOREGROUND
  6
CONTINUOUS
 10
0.456401
 20
1.929182
  0
VERTEX
  8
FOREGROUND
  6
CONTINUOUS
 10
0.442008
 20
1.918656
  0
VERTEX
  8
FOREGROUND
  6
CONTINUOUS
 10
0.427834
 20
1.908018
  0
VERTEX
  8
FOREGROUND
  6
CONTINUOUS
 10
0.413881
 20
1.897266
  0
VERTEX
  8
FOREGROUND
  6
CONTINUOUS
 10
0.400152
 20
1.886401
  0
VERTEX
  8
FOREGROUND
  6
CONTINUOUS
 10
0.386648
 20
1.875423
  0
VERTEX
  8
FOREGROUND
  6
CONTINUOUS
 10
0.373373
 20
1.864331
  0
VERTEX
  8
FOREGROUND
  6
CONTINUOUS
 10
0.360329
 20
1.853127
  0
VERTEX
  8
FOREGROUND
  6
CONTINUOUS
 10
0.347517
 20
1.841809
  0
VERTEX
  8
FOREGROUND
  6
CONTINUOUS
 10
0.334941
 20
1.830378
  0
VERTEX
  8
FOREGROUND
  6
CONTINUOUS
 10
0.322602
 20
1.818834
  0
VERTEX
  8
FOREGROUND
  6
CONTINUOUS
 10
0.310503
 20
1.807177
  0
VERTEX
  8
FOREGROUND
  6
CONTINUOUS
 10
0.298647
 20
1.795407
  0
VERTEX
  8
FOREGROUND
  6
CONTINUOUS
 10
0.287035
 20
1.783523
  0
VERTEX
  8
FOREGROUND
  6
CONTINUOUS
 10
0.275670
 20
1.771526
  0
VERTEX
  8
FOREGROUND
  6
CONTINUOUS
 10
0.264555
 20
1.759416
  0
VERTEX
  8
FOREGROUND
  6
CONTINUOUS
 10
0.253691
 20
1.747193
  0
VERTEX
  8
FOREGROUND
  6
CONTINUOUS
 10
0.243082
 20
1.734857
  0
VERTEX
  8
FOREGROUND
  6
CONTINUOUS
 10
0.232728
 20
1.722407
  0
VERTEX
  8
FOREGROUND
  6
CONTINUOUS
 10
0.222634
 20
1.709844
  0
VERTEX
  8
FOREGROUND
  6
CONTINUOUS
 10
0.212800
 20
1.697168
  0
VERTEX
  8
FOREGROUND
  6
CONTINUOUS
 10
0.203230
 20
1.684379
  0
VERTEX
  8
FOREGROUND
  6
CONTINUOUS
 10
0.193926
 20
1.671477
  0
VERTEX
  8
FOREGROUND
  6
CONTINUOUS
 10
0.184890
 20
1.658461
  0
VERTEX
  8
FOREGROUND
  6
CONTINUOUS
 10
0.176124
 20
1.645333
  0
VERTEX
  8
FOREGROUND
  6
CONTINUOUS
 10
0.167631
 20
1.632091
  0
VERTEX
  8
FOREGROUND
  6
CONTINUOUS
 10
0.159413
 20
1.618736
  0
VERTEX
  8
FOREGROUND
  6
CONTINUOUS
 10
0.151473
 20
1.605268
  0
VERTEX
  8
FOREGROUND
  6
CONTINUOUS
 10
0.143813
 20
1.591686
  0
VERTEX
  8
FOREGROUND
  6
CONTINUOUS
 10
0.136434
 20
1.577992
  0
VERTEX
  8
FOREGROUND
  6
CONTINUOUS
 10
0.129340
 20
1.564184
  0
VERTEX
  8
FOREGROUND
  6
CONTINUOUS
 10
0.122533
 20
1.550263
  0
VERTEX
  8
FOREGROUND
  6
CONTINUOUS
 10
0.116016
 20
1.536229
  0
VERTEX
  8
FOREGROUND
  6
CONTINUOUS
 10
0.109789
 20
1.522081
  0
VERTEX
  8
FOREGROUND
  6
CONTINUOUS
 10
0.103857
 20
1.507821
  0
VERTEX
  8
FOREGROUND
  6
CONTINUOUS
 10
0.098221
 20
1.493447
  0
VERTEX
  8
FOREGROUND
  6
CONTINUOUS
 10
0.092883
 20
1.478960
  0
VERTEX
  8
FOREGROUND
  6
CONTINUOUS
 10
0.087847
 20
1.464360
  0
VERTEX
  8
FOREGROUND
  6
CONTINUOUS
 10
0.083114
 20
1.449647
  0
VERTEX
  8
FOREGROUND
  6
CONTINUOUS
 10
0.078686
 20
1.434820
  0
VERTEX
  8
FOREGROUND
  6
CONTINUOUS
 10
0.074566
 20
1.419881
  0
VERTEX
  8
FOREGROUND
  6
CONTINUOUS
 10
0.070757
 20
1.404828
  0
VERTEX
  8
FOREGROUND
  6
CONTINUOUS
 10
0.067260
 20
1.389662
  0
VERTEX
  8
FOREGROUND
  6
CONTINUOUS
 10
0.064078
 20
1.374383
  0
VERTEX
  8
FOREGROUND
  6
CONTINUOUS
 10
0.061214
 20
1.358990
  0
VERTEX
  8
FOREGROUND
  6
CONTINUOUS
 10
0.058669
 20
1.343485
  0
VERTEX
  8
FOREGROUND
  6
CONTINUOUS
 10
0.056446
 20
1.327866
  0
VERTEX
  8
FOREGROUND
  6
CONTINUOUS
 10
0.054548
 20
1.312134
  0
VERTEX
  8
FOREGROUND
  6
CONTINUOUS
 10
0.052976
 20
1.296289
  0
VERTEX
  8
FOREGROUND
  6
CONTINUOUS
 10
0.051733
 20
1.280330
  0
VERTEX
  8
FOREGROUND
  6
CONTINUOUS
 10
0.050822
 20
1.264259
  0
VERTEX
  8
FOREGROUND
  6
CONTINUOUS
 10
0.050245
 20
1.248074
  0
VERTEX
  8
FOREGROUND
  6
CONTINUOUS
 10
0.050003
 20
1.231776
  0
VERTEX
  8
FOREGROUND
  6
CONTINUOUS
 10
0.050003
 20
1.231776
  0
VERTEX
  8
FOREGROUND
  6
CONTINUOUS
 10
0.050152
 20
1.215478
  0
VERTEX
  8
FOREGROUND
  6
CONTINUOUS
 10
0.050637
 20
1.199293
  0
VERTEX
  8
FOREGROUND
  6
CONTINUOUS
 10
0.051457
 20
1.183222
  0
VERTEX
  8
FOREGROUND
  6
CONTINUOUS
 10
0.052609
 20
1.167263
  0
VERTEX
  8
FOREGROUND
  6
CONTINUOUS
 10
0.054090
 20
1.151418
  0
VERTEX
  8
FOREGROUND
  6
CONTINUOUS
 10
0.055899
 20
1.135686
  0
VERTEX
  8
FOREGROUND
  6
CONTINUOUS
 10
0.058033
 20
1.120067
  0
VERTEX
  8
FOREGROUND
  6
CONTINUOUS
 10
0.060489
 20
1.104561
  0
VERTEX
  8
FOREGROUND
  6
CONTINUOUS
 10
0.063266
 20
1.089168
  0
VERTEX
  8
FOREGROUND
  6
CONTINUOUS
 10
0.066361
 20
1.073889
  0
VERTEX
  8
FOREGROUND
  6
CONTINUOUS
 10
0.069771
 20
1.058723
  0
VERTEX
  8
FOREGROUND
  6
CONTINUOUS
 10
0.073495
 20
1.043669
  0
VERTEX
  8
FOREGROUND
  6
CONTINUOUS
 10
0.077530
 20
1.028729
  0
VERTEX
  8
FOREGROUND
  6
CONTINUOUS
 10
0.081873
 20
1.013902
  0
VERTEX
  8
FOREGROUND
  6
CONTINUOUS
 10
0.086523
 20
0.999189
  0
VERTEX
  8
FOREGROUND
  6
CONTINUOUS
 10
0.091476
 20
0.984588
  0
VERTEX
  8
FOREGROUND
  6
CONTINUOUS
 10
0.096731
 20
0.970101
  0
VERTEX
  8
FOREGROUND
  6
CONTINUOUS
 10
0.102285
 20
0.955727
  0
VERTEX
  8
FOREGROUND
  6
CONTINUOUS
 10
0.108136
 20
0.941465
  0
VERTEX
  8
FOREGROUND
  6
CONTINUOUS
 10
0.114282
 20
0.927318
  0
VERTEX
  8
FOREGROUND
  6
CONTINUOUS
 10
0.120720
 20
0.913283
  0
VERTEX
  8
FOREGROUND
  6
CONTINUOUS
 10
0.127448
 20
0.899361
  0
VERTEX
  8
FOREGROUND
  6
CONTINUOUS
 10
0.134463
 20
0.885553
  0
VERTEX
  8
FOREGROUND
  6
CONTINUOUS
 10
0.141763
 20
0.871857
  0
VERTEX
  8
FOREGROUND
  6
CONTINUOUS
 10
0.149346
 20
0.858275
  0
VERTEX
  8
FOREGROUND
  6
CONTINUOUS
 10
0.157210
 20
0.844806
  0
VERTEX
  8
FOREGROUND
  6
CONTINUOUS
 10
0.165352
 20
0.831451
  0
VERTEX
  8
FOREGROUND
  6
CONTINUOUS
 10
0.173769
 20
0.818208
  0
VERTEX
  8
FOREGROUND
  6
CONTINUOUS
 10
0.182460
 20
0.805078
  0
VERTEX
  8
FOREGROUND
  6
CONTINUOUS
 10
0.191422
 20
0.792062
  0
VERTEX
  8
FOREGROUND
  6
CONTINUOUS
 10
0.200653
 20
0.779159
  0
VERTEX
  8
FOREGROUND
  6
CONTINUOUS
 10
0.210150
 20
0.766369
  0
VERTEX
  8
FOREGROUND
  6
CONTINUOUS
 10
0.219912
 20
0.753692
  0
VERTEX
  8
FOREGROUND
  6
CONTINUOUS
 10
0.229935
 20
0.741128
  0
VERTEX
  8
FOREGROUND
  6
CONTINUOUS
 10
0.240217
 20
0.728678
  0
VERTEX
  8
FOREGROUND
  6
CONTINUOUS
 10
0.250756
 20
0.716341
  0
VERTEX
  8
FOREGROUND
  6
CONTINUOUS
 10
0.261551
 20
0.704116
  0
VERTEX
  8
FOREGROUND
  6
CONTINUOUS
 10
0.272597
 20
0.692005
  0
VERTEX
  8
FOREGROUND
  6
CONTINUOUS
 10
0.283893
 20
0.680007
  0
VERTEX
  8
FOREGROUND
  6
CONTINUOUS
 10
0.295437
 20
0.668123
  0
VERTEX
  8
FOREGROUND
  6
CONTINUOUS
 10
0.307227
 20
0.656351
  0
VERTEX
  8
FOREGROUND
  6
CONTINUOUS
 10
0.319259
 20
0.644693
  0
VERTEX
  8
FOREGROUND
  6
CONTINUOUS
 10
0.331532
 20
0.633148
  0
VERTEX
  8
FOREGROUND
  6
CONTINUOUS
 10
0.344043
 20
0.621716
  0
VERTEX
  8
FOREGROUND
  6
CONTINUOUS
 10
0.356791
 20
0.610397
  0
VERTEX
  8
FOREGROUND
  6
CONTINUOUS
 10
0.369771
 20
0.599191
  0
VERTEX
  8
FOREGROUND
  6
CONTINUOUS
 10
0.382983
 20
0.588098
  0
VERTEX
  8
FOREGROUND
  6
CONTINUOUS
 10
0.396424
 20
0.577119
  0
VERTEX
  8
FOREGROUND
  6
CONTINUOUS
 10
0.410092
 20
0.566253
  0
VERTEX
  8
FOREGROUND
  6
CONTINUOUS
 10
0.423983
 20
0.555500
  0
VERTEX
  8
FOREGROUND
  6
CONTINUOUS
 10
0.438097
 20
0.544860
  0
VERTEX
  8
FOREGROUND
  6
CONTINUOUS
 10
0.452430
 20
0.534333
  0
VERTEX
  8
FOREGROUND
  6
CONTINUOUS
 10
0.466980
 20
0.523920
  0
VERTEX
  8
FOREGROUND
  6
CONTINUOUS
 10
0.481745
 20
0.513619
  0
VERTEX
  8
FOREGROUND
  6
CONTINUOUS
 10
0.496723
 20
0.503432
  0
VERTEX
  8
FOREGROUND
  6
CONTINUOUS
 10
0.511910
 20
0.493358
  0
VERTEX
  8
FOREGROUND
  6
CONTINUOUS
 10
0.527306
 20
0.483397
  0
VERTEX
  8
FOREGROUND
  6
CONTINUOUS
 10
0.542907
 20
0.473549
  0
VERTEX
  8
FOREGROUND
  6
CONTINUOUS
 10
0.558711
 20
0.463815
  0
VERTEX
  8
FOREGROUND
  6
CONTINUOUS
 10
0.574715
 20
0.454193
  0
VERTEX
  8
FOREGROUND
  6
CONTINUOUS
 10
0.590919
 20
0.444685
  0
VERTEX
  8
FOREGROUND
  6
CONTINUOUS
 10
0.607318
 20
0.435290
  0
VERTEX
  8
FOREGROUND
  6
CONTINUOUS
 10
0.623911
 20
0.426008
  0
VERTEX
  8
FOREGROUND
  6
CONTINUOUS
 10
0.640695
 20
0.416839
  0
VERTEX
  8
FOREGROUND
  6
CONTINUOUS
 10
0.657669
 20
0.407784
  0
VERTEX
  8
FOREGROUND
  6
CONTINUOUS
 10
0.674829
 20
0.398841
  0
VERTEX
  8
FOREGROUND
  6
CONTINUOUS
 10
0.692174
 20
0.390012
  0
VERTEX
  8
FOREGROUND
  6
CONTINUOUS
 10
0.709700
 20
0.381296
  0
VERTEX
  8
FOREGROUND
  6
CONTINUOUS
 10
0.727406
 20
0.372693
  0
VERTEX
  8
FOREGROUND
  6
CONTINUOUS
 10
0.745290
 20
0.364203
  0
VERTEX
  8
FOREGROUND
  6
CONTINUOUS
 10
0.763348
 20
0.355827
  0
VERTEX
  8
FOREGROUND
  6
CONTINUOUS
 10
0.781579
 20
0.347563
  0
VERTEX
  8
FOREGROUND
  6
CONTINUOUS
 10
0.799981
 20
0.339413
  0
VERTEX
  8
FOREGROUND
  6
CONTINUOUS
 10
0.818550
 20
0.331376
  0
VERTEX
  8
FOREGROUND
  6
CONTINUOUS
 10
0.837285
 20
0.323452
  0
VERTEX
  8
FOREGROUND
  6
CONTINUOUS
 10
0.856183
 20
0.315641
  0
VERTEX
  8
FOREGROUND
  6
CONTINUOUS
 10
0.875243
 20
0.307944
  0
VERTEX
  8
FOREGROUND
  6
CONTINUOUS
 10
0.894460
 20
0.300359
  0
VERTEX
  8
FOREGROUND
  6
CONTINUOUS
 10
0.913834
 20
0.292888
  0
VERTEX
  8
FOREGROUND
  6
CONTINUOUS
 10
0.933362
 20
0.285530
  0
VERTEX
  8
FOREGROUND
  6
CONTINUOUS
 10
0.953041
 20
0.278285
  0
VERTEX
  8
FOREGROUND
  6
CONTINUOUS
 10
0.972870
 20
0.271153
  0
VERTEX
  8
FOREGROUND
  6
CONTINUOUS
 10
0.992845
 20
0.264135
  0
VERTEX
  8
FOREGROUND
  6
CONTINUOUS
 10
1.012965
 20
0.257230
  0
VERTEX
  8
FOREGROUND
  6
CONTINUOUS
 10
1.033227
 20
0.250437
  0
VERTEX
  8
FOREGROUND
  6
CONTINUOUS
 10
1.053629
 20
0.243758
  0
VERTEX
  8
FOREGROUND
  6
CONTINUOUS
 10
1.074169
 20
0.237192
  0
VERTEX
  8
FOREGROUND
  6
CONTINUOUS
 10
1.094843
 20
0.230740
  0
VERTEX
  8
FOREGROUND
  6
CONTINUOUS
 10
1.115650
 20
0.224400
  0
VERTEX
  8
FOREGROUND
  6
CONTINUOUS
 10
1.136588
 20
0.218174
  0
VERTEX
  8
FOREGROUND
  6
CONTINUOUS
 10
1.157654
 20
0.212061
  0
VERTEX
  8
FOREGROUND
  6
CONTINUOUS
 10
1.178845
 20
0.206061
  0
VERTEX
  8
FOREGROUND
  6
CONTINUOUS
 10
1.200160
 20
0.200174
  0
VERTEX
  8
FOREGROUND
  6
CONTINUOUS
 10
1.221596
 20
0.194400
  0
VERTEX
  8
FOREGROUND
  6
CONTINUOUS
 10
1.243151
 20
0.188740
  0
VERTEX
  8
FOREGROUND
  6
CONTINUOUS
 10
1.264822
 20
0.183192
  0
VERTEX
  8
FOREGROUND
  6
CONTINUOUS
 10
1.286607
 20
0.177758
  0
VERTEX
  8
FOREGROUND
  6
CONTINUOUS
 10
1.308504
 20
0.172437
  0
VERTEX
  8
FOREGROUND
  6
CONTINUOUS
 10
1.330510
 20
0.167229
  0
VERTEX
  8
FOREGROUND
  6
CONTINUOUS
 10
1.352623
 20
0.162135
  0
VERTEX
  8
FOREGROUND
  6
CONTINUOUS
 10
1.374841
 20
0.157153
  0
VERTEX
  8
FOREGROUND
  6
CONTINUOUS
 10
1.397161
 20
0.152285
  0
VERTEX
  8
FOREGROUND
  6
CONTINUOUS
 10
1.419581
 20
0.147530
  0
VERTEX
  8
FOREGROUND
  6
CONTINUOUS
 10
1.442099
 20
0.142888
  0
VERTEX
  8
FOREGROUND
  6
CONTINUOUS
 10
1.464712
 20
0.138359
  0
VERTEX
  8
FOREGROUND
  6
CONTINUOUS
 10
1.487418
 20
0.133944
  0
VERTEX
  8
FOREGROUND
  6
CONTINUOUS
 10
1.510214
 20
0.129641
  0
VERTEX
  8
FOREGROUND
  6
CONTINUOUS
 10
1.533099
 20
0.125452
  0
VERTEX
  8
FOREGROUND
  6
CONTINUOUS
 10
1.556070
 20
0.121376
  0
VERTEX
  8
FOREGROUND
  6
CONTINUOUS
 10
1.579124
 20
0.117413
  0
VERTEX
  8
FOREGROUND
  6
CONTINUOUS
 10
1.602259
 20
0.113563
  0
VERTEX
  8
FOREGROUND
  6
CONTINUOUS
 10
1.625474
 20
0.109827
  0
VERTEX
  8
FOREGROUND
  6
CONTINUOUS
 10
1.648764
 20
0.106203
  0
VERTEX
  8
FOREGROUND
  6
CONTINUOUS
 10
1.672129
 20
0.102693
  0
VERTEX
  8
FOREGROUND
  6
CONTINUOUS
 10
1.695566
 20
0.099296
  0
VERTEX
  8
FOREGROUND
  6
CONTINUOUS
 10
1.719072
 20
0.096012
  0
VERTEX
  8
FOREGROUND
  6
CONTINUOUS
 10
1.742646
 20
0.092841
  0
VERTEX
  8
FOREGROUND
  6
CONTINUOUS
 10
1.766284
 20
0.089784
  0
VERTEX
  8
FOREGROUND
  6
CONTINUOUS
 10
1.789985
 20
0.086840
  0
VERTEX
  8
FOREGROUND
  6
CONTINUOUS
 10
1.813745
 20
0.084009
  0
VERTEX
  8
FOREGROUND
  6
CONTINUOUS
 10
1.837564
 20
0.081291
  0
VERTEX
  8
FOREGROUND
  6
CONTINUOUS
 10
1.861438
 20
0.078686
  0
VERTEX
  8
FOREGROUND
  6
CONTINUOUS
 10
1.885365
 20
0.076194
  0
VERTEX
  8
FOREGROUND
  6
CONTINUOUS
 10
1.909343
 20
0.073816
  0
VERTEX
  8
FOREGROUND
  6
CONTINUOUS
 10
1.933369
 20
0.071550
  0
VERTEX
  8
FOREGROUND
  6
CONTINUOUS
 10
1.957441
 20
0.069398
  0
VERTEX
  8
FOREGROUND
  6
CONTINUOUS
 10
1.981557
 20
0.067359
  0
VERTEX
  8
FOREGROUND
  6
CONTINUOUS
 10
2.005714
 20
0.065434
  0
VERTEX
  8
FOREGROUND
  6
CONTINUOUS
 10
2.029910
 20
0.063621
  0
VERTEX
  8
FOREGROUND
  6
CONTINUOUS
 10
2.054143
 20
0.061922
  0
VERTEX
  8
FOREGROUND
  6
CONTINUOUS
 10
2.078411
 20
0.060335
  0
VERTEX
  8
FOREGROUND
  6
CONTINUOUS
 10
2.102710
 20
0.058862
  0
VERTEX
  8
FOREGROUND
  6
CONTINUOUS
 10
2.127039
 20
0.057503
  0
VERTEX
  8
FOREGROUND
  6
CONTINUOUS
 10
2.151395
 20
0.056256
  0
VERTEX
  8
FOREGROUND
  6
CONTINUOUS
 10
2.175776
 20
0.055122
  0
VERTEX
  8
FOREGROUND
  6
CONTINUOUS
 10
2.200180
 20
0.054102
  0
VERTEX
  8
FOREGROUND
  6
CONTINUOUS
 10
2.224604
 20
0.053195
  0
VERTEX
  8
FOREGROUND
  6
CONTINUOUS
 10
2.249046
 20
0.052401
  0
VERTEX
  8
FOREGROUND
  6
CONTINUOUS
 10
2.273503
 20
0.051720
  0
VERTEX
  8
FOREGROUND
  6
CONTINUOUS
 10
2.297974
 20
0.051153
  0
VERTEX
  8
FOREGROUND
  6
CONTINUOUS
 10
2.322456
 20
0.050698
  0
VERTEX
  8
FOREGROUND
  6
CONTINUOUS
 10
2.346946
 20
0.050357
  0
VERTEX
  8
FOREGROUND
  6
CONTINUOUS
 10
2.371442
 20
0.050129
  0
VERTEX
  8
FOREGROUND
  6
CONTINUOUS
 10
2.395942
 20
0.050014
  0
VERTEX
  8
FOREGROUND
  6
CONTINUOUS
 10
2.420444
 20
0.050012
  0
VERTEX
  8
FOREGROUND
  6
CONTINUOUS
 10
2.444945
 20
0.050124
  0
VERTEX
  8
FOREGROUND
  6
CONTINUOUS
 10
2.469442
 20
0.050348
  0
VERTEX
  8
FOREGROUND
  6
CONTINUOUS
 10
2.493934
 20
0.050686
  0
VERTEX
  8
FOREGROUND
  6
CONTINUOUS
 10
2.518419
 20
0.051137
  0
VERTEX
  8
FOREGROUND
  6
CONTINUOUS
 10
2.542893
 20
0.051702
  0
VERTEX
  8
FOREGROUND
  6
CONTINUOUS
 10
2.567354
 20
0.052379
  0
VERTEX
  8
FOREGROUND
  6
CONTINUOUS
 10
2.591801
 20
0.053169
  0
VERTEX
  8
FOREGROUND
  6
CONTINUOUS
 10
2.616230
 20
0.054073
  0
VERTEX
  8
FOREGROUND
  6
CONTINUOUS
 10
2.640640
 20
0.055090
  0
VERTEX
  8
FOREGROUND
  6
CONTINUOUS
 10
2.665028
 20
0.056220
  0
VERTEX
  8
FOREGROUND
  6
CONTINUOUS
 10
2.689391
 20
0.057464
  0
VERTEX
  8
FOREGROUND
  6
CONTINUOUS
 10
2.713728
 20
0.058820
  0
VERTEX
  8
FOREGROUND
  6
CONTINUOUS
 10
2.738036
 20
0.060290
  0
VERTEX
  8
FOREGROUND
  6
CONTINUOUS
 10
2.762312
 20
0.061872
  0
VERTEX
  8
FOREGROUND
  6
CONTINUOUS
 10
2.786555
 20
0.063568
  0
VERTEX
  8
FOREGROUND
  6
CONTINUOUS
 10
2.810762
 20
0.065378
  0
VERTEX
  8
FOREGROUND
  6
CONTINUOUS
 10
2.834931
 20
0.067300
  0
VERTEX
  8
FOREGROUND
  6
CONTINUOUS
 10
2.859059
 20
0.069336
  0
VERTEX
  8
FOREGROUND
  6
CONTINUOUS
 10
2.883144
 20
0.071484
  0
VERTEX
  8
FOREGROUND
  6
CONTINUOUS
 10
2.907183
 20
0.073746
  0
VERTEX
  8
FOREGROUND
  6
CONTINUOUS
 10
2.931175
 20
0.076121
  0
VERTEX
  8
FOREGROUND
  6
CONTINUOUS
 10
2.955116
 20
0.078610
  0
VERTEX
  8
FOREGROUND
  6
CONTINUOUS
 10
2.979006
 20
0.081211
  0
VERTEX
  8
FOREGROUND
  6
CONTINUOUS
 10
3.002840
 20
0.083926
  0
VERTEX
  8
FOREGROUND
  6
CONTINUOUS
 10
3.026618
 20
0.086754
  0
VERTEX
  8
FOREGROUND
  6
CONTINUOUS
 10
3.050336
 20
0.089695
  0
VERTEX
  8
FOREGROUND
  6
CONTINUOUS
 10
3.073992
 20
0.092749
  0
VERTEX
  8
FOREGROUND
  6
CONTINUOUS
 10
3.097584
 20
0.095916
  0
VERTEX
  8
FOREGROUND
  6
CONTINUOUS
 10
3.121109
 20
0.099197
  0
VERTEX
  8
FOREGROUND
  6
CONTINUOUS
 10
3.144566
 20
0.102591
  0
VERTEX
  8
FOREGROUND
  6
CONTINUOUS
 10
3.167952
 20
0.106098
  0
VERTEX
  8
FOREGROUND
  6
CONTINUOUS
 10
3.191264
 20
0.109718
  0
VERTEX
  8
FOREGROUND
  6
CONTINUOUS
 10
3.214500
 20
0.113451
  0
VERTEX
  8
FOREGROUND
  6
CONTINUOUS
 10
3.237658
 20
0.117298
  0
VERTEX
  8
FOREGROUND
  6
CONTINUOUS
 10
3.260735
 20
0.121257
  0
VERTEX
  8
FOREGROUND
  6
CONTINUOUS
 10
3.283730
 20
0.125330
  0
VERTEX
  8
FOREGROUND
  6
CONTINUOUS
 10
3.306639
 20
0.129516
  0
VERTEX
  8
FOREGROUND
  6
CONTINUOUS
 10
3.329461
 20
0.133815
  0
VERTEX
  8
FOREGROUND
  6
CONTINUOUS
 10
3.352193
 20
0.138228
  0
VERTEX
  8
FOREGROUND
  6
CONTINUOUS
 10
3.374833
 20
0.142754
  0
VERTEX
  8
FOREGROUND
  6
CONTINUOUS
 10
3.397378
 20
0.147392
  0
VERTEX
  8
FOREGROUND
  6
CONTINUOUS
 10
3.419826
 20
0.152144
  0
VERTEX
  8
FOREGROUND
  6
CONTINUOUS
 10
3.442174
 20
0.157010
  0
VERTEX
  8
FOREGROUND
  6
CONTINUOUS
 10
3.464421
 20
0.161988
  0
VERTEX
  8
FOREGROUND
  6
CONTINUOUS
 10
3.486564
 20
0.167079
  0
VERTEX
  8
FOREGROUND
  6
CONTINUOUS
 10
3.508601
 20
0.172284
  0
VERTEX
  8
FOREGROUND
  6
CONTINUOUS
 10
3.530529
 20
0.177602
  0
VERTEX
  8
FOREGROUND
  6
CONTINUOUS
 10
3.552346
 20
0.183033
  0
VERTEX
  8
FOREGROUND
  6
CONTINUOUS
 10
3.574050
 20
0.188578
  0
VERTEX
  8
FOREGROUND
  6
CONTINUOUS
 10
3.595638
 20
0.194235
  0
VERTEX
  8
FOREGROUND
  6
CONTINUOUS
 10
3.617108
 20
0.200006
  0
VERTEX
  8
FOREGROUND
  6
CONTINUOUS
 10
3.638458
 20
0.205890
  0
VERTEX
  8
FOREGROUND
  6
CONTINUOUS
 10
3.659684
 20
0.211887
  0
VERTEX
  8
FOREGROUND
  6
CONTINUOUS
 10
3.680786
 20
0.217997
  0
VERTEX
  8
FOREGROUND
  6
CONTINUOUS
 10
3.701760
 20
0.224220
  0
VERTEX
  8
FOREGROUND
  6
CONTINUOUS
 10
3.722605
 20
0.230557
  0
VERTEX
  8
FOREGROUND
  6
CONTINUOUS
 10
3.743317
 20
0.237007
  0
VERTEX
  8
FOREGROUND
  6
CONTINUOUS
 10
3.763895
 20
0.243570
  0
VERTEX
  8
FOREGROUND
  6
CONTINUOUS
 10
3.784336
 20
0.250246
  0
VERTEX
  8
FOREGROUND
  6
CONTINUOUS
 10
3.804638
 20
0.257035
  0
VERTEX
  8
FOREGROUND
  6
CONTINUOUS
 10
3.824799
 20
0.263938
  0
VERTEX
  8
FOREGROUND
  6
CONTINUOUS
 10
3.844816
 20
0.270954
  0
VERTEX
  8
FOREGROUND
  6
CONTINUOUS
 10
3.864686
 20
0.278083
  0
VERTEX
  8
FOREGROUND
  6
CONTINUOUS
 10
3.884408
 20
0.285325
  0
VERTEX
  8
FOREGROUND
  6
CONTINUOUS
 10
3.903979
 20
0.292680
  0
VERTEX
  8
FOREGROUND
  6
CONTINUOUS
 10
3.923397
 20
0.300149
  0
VERTEX
  8
FOREGROUND
  6
CONTINUOUS
 10
3.942659
 20
0.307730
  0
VERTEX
  8
FOREGROUND
  6
CONTINUOUS
 10
3.961764
 20
0.315425
  0
VERTEX
  8
FOREGROUND
  6
CONTINUOUS
 10
3.980708
 20
0.323233
  0
VERTEX
  8
FOREGROUND
  6
CONTINUOUS
 10
3.999489
 20
0.331155
  0
VERTEX
  8
FOREGROUND
  6
CONTINUOUS
 10
4.018106
 20
0.339189
  0
VERTEX
  8
FOREGROUND
  6
CONTINUOUS
 10
4.036555
 20
0.347337
  0
VERTEX
  8
FOREGROUND
  6
CONTINUOUS
 10
4.054835
 20
0.355598
  0
VERTEX
  8
FOREGROUND
  6
CONTINUOUS
 10
4.072943
 20
0.363972
  0
VERTEX
  8
FOREGROUND
  6
CONTINUOUS
 10
4.090876
 20
0.372459
  0
VERTEX
  8
FOREGROUND
  6
CONTINUOUS
 10
4.108633
 20
0.381060
  0
VERTEX
  8
FOREGROUND
  6
CONTINUOUS
 10
4.126211
 20
0.389773
  0
VERTEX
  8
FOREGROUND
  6
CONTINUOUS
 10
4.143607
 20
0.398600
  0
VERTEX
  8
FOREGROUND
  6
CONTINUOUS
 10
4.160820
 20
0.407540
  0
VERTEX
  8
FOREGROUND
  6
CONTINUOUS
 10
4.177846
 20
0.416593
  0
VERTEX
  8
FOREGROUND
  6
CONTINUOUS
 10
4.194685
 20
0.425760
  0
VERTEX
  8
FOREGROUND
  6
CONTINUOUS
 10
4.211332
 20
0.435039
  0
VERTEX
  8
FOREGROUND
  6
CONTINUOUS
 10
4.227787
 20
0.444432
  0
VERTEX
  8
FOREGROUND
  6
CONTINUOUS
 10
4.244046
 20
0.453938
  0
VERTEX
  8
FOREGROUND
  6
CONTINUOUS
 10
4.260107
 20
0.463557
  0
VERTEX
  8
FOREGROUND
  6
CONTINUOUS
 10
4.275969
 20
0.473290
  0
VERTEX
  8
FOREGROUND
  6
CONTINUOUS
 10
4.291627
 20
0.483135
  0
VERTEX
  8
FOREGROUND
  6
CONTINUOUS
 10
4.307082
 20
0.493094
  0
VERTEX
  8
FOREGROUND
  6
CONTINUOUS
 10
4.322328
 20
0.503166
  0
VERTEX
  8
FOREGROUND
  6
CONTINUOUS
 10
4.337366
 20
0.513351
  0
VERTEX
  8
FOREGROUND
  6
CONTINUOUS
 10
4.352191
 20
0.523649
  0
VERTEX
  8
FOREGROUND
  6
CONTINUOUS
 10
4.366803
 20
0.534061
  0
VERTEX
  8
FOREGROUND
  6
CONTINUOUS
 10
4.381198
 20
0.544586
  0
VERTEX
  8
FOREGROUND
  6
CONTINUOUS
 10
4.395374
 20
0.555224
  0
VERTEX
  8
FOREGROUND
  6
CONTINUOUS
 10
4.409329
 20
0.565975
  0
VERTEX
  8
FOREGROUND
  6
CONTINUOUS
 10
4.423060
 20
0.576839
  0
VERTEX
  8
FOREGROUND
  6
CONTINUOUS
 10
4.436565
 20
0.587817
  0
VERTEX
  8
FOREGROUND
  6
CONTINUOUS
 10
4.449843
 20
0.598907
  0
VERTEX
  8
FOREGROUND
  6
CONTINUOUS
 10
4.462889
 20
0.610111
  0
VERTEX
  8
FOREGROUND
  6
CONTINUOUS
 10
4.475703
 20
0.621428
  0
VERTEX
  8
FOREGROUND
  6
CONTINUOUS
 10
4.488281
 20
0.632859
  0
VERTEX
  8
FOREGROUND
  6
CONTINUOUS
 10
4.500622
 20
0.644402
  0
VERTEX
  8
FOREGROUND
  6
CONTINUOUS
 10
4.512723
 20
0.656059
  0
VERTEX
  8
FOREGROUND
  6
CONTINUOUS
 10
4.524582
 20
0.667829
  0
VERTEX
  8
FOREGROUND
  6
CONTINUOUS
 10
4.536196
 20
0.679712
  0
VERTEX
  8
FOREGROUND
  6
CONTINUOUS
 10
4.547563
 20
0.691708
  0
VERTEX
  8
FOREGROUND
  6
CONTINUOUS
 10
4.558680
 20
0.703818
  0
VERTEX
  8
FOREGROUND
  6
CONTINUOUS
 10
4.569546
 20
0.716040
  0
VERTEX
  8
FOREGROUND
  6
CONTINUOUS
 10
4.580158
 20
0.728376
  0
VERTEX
  8
FOREGROUND
  6
CONTINUOUS
 10
4.590514
 20
0.740825
  0
VERTEX
  8
FOREGROUND
  6
CONTINUOUS
 10
4.600611
 20
0.753387
  0
VERTEX
  8
FOREGROUND
  6
CONTINUOUS
 10
4.610446
 20
0.766063
  0
VERTEX
  8
FOREGROUND
  6
CONTINUOUS
 10
4.620019
 20
0.778852
  0
VERTEX
  8
FOREGROUND
  6
CONTINUOUS
 10
4.629326
 20
0.791753
  0
VERTEX
  8
FOREGROUND
  6
CONTINUOUS
 10
4.638364
 20
0.804769
  0
VERTEX
  8
FOREGROUND
  6
CONTINUOUS
 10
4.647132
 20
0.817897
  0
VERTEX
  8
FOREGROUND
  6
CONTINUOUS
 10
4.655628
 20
0.831138
  0
VERTEX
  8
FOREGROUND
  6
CONTINUOUS
 10
4.663848
 20
0.844493
  0
VERTEX
  8
FOREGROUND
  6
CONTINUOUS
 10
4.671791
 20
0.857961
  0
VERTEX
  8
FOREGROUND
  6
CONTINUOUS
 10
4.679454
 20
0.871542
  0
VERTEX
  8
FOREGROUND
  6
CONTINUOUS
 10
4.686835
 20
0.885236
  0
VERTEX
  8
FOREGROUND
  6
CONTINUOUS
 10
4.693931
 20
0.899044
  0
VERTEX
  8
FOREGROUND
  6
CONTINUOUS
 10
4.700741
 20
0.912964
  0
VERTEX
  8
FOREGROUND
  6
CONTINUOUS
 10
4.707261
 20
0.926998
  0
VERTEX
  8
FOREGROUND
  6
CONTINUOUS
 10
4.713490
 20
0.941145
  0
VERTEX
  8
FOREGROUND
  6
CONTINUOUS
 10
4.719425
 20
0.955405
  0
VERTEX
  8
FOREGROUND
  6
CONTINUOUS
 10
4.725064
 20
0.969779
  0
VERTEX
  8
FOREGROUND
  6
CONTINUOUS
 10
4.730404
 20
0.984266
  0
VERTEX
  8
FOREGROUND
  6
CONTINUOUS
 10
4.735443
 20
0.998865
  0
VERTEX
  8
FOREGROUND
  6
CONTINUOUS
 10
4.740179
 20
1.013579
  0
VERTEX
  8
FOREGROUND
  6
CONTINUOUS
 10
4.744610
 20
1.028405
  0
VERTEX
  8
FOREGROUND
  6
CONTINUOUS
 10
4.748732
 20
1.043344
  0
VERTEX
  8
FOREGROUND
  6
CONTINUOUS
 10
4.752544
 20
1.058397
  0
VERTEX
  8
FOREGROUND
  6
CONTINUOUS
 10
4.756044
 20
1.073563
  0
VERTEX
  8
FOREGROUND
  6
CONTINUOUS
 10
4.759229
 20
1.088842
  0
VERTEX
  8
FOREGROUND
  6
CONTINUOUS
 10
4.762096
 20
1.104234
  0
VERTEX
  8
FOREGROUND
  6
CONTINUOUS
 10
4.764644
 20
1.119740
  0
VERTEX
  8
FOREGROUND
  6
CONTINUOUS
 10
4.766869
 20
1.135358
  0
VERTEX
  8
FOREGROUND
  6
CONTINUOUS
 10
4.768771
 20
1.151090
  0
VERTEX
  8
FOREGROUND
  6
CONTINUOUS
 10
4.770345
 20
1.166935
  0
VERTEX
  8
FOREGROUND
  6
CONTINUOUS
 10
4.771591
 20
1.182894
  0
VERTEX
  8
FOREGROUND
  6
CONTINUOUS
 10
4.772505
 20
1.198965
  0
VERTEX
  8
FOREGROUND
  6
CONTINUOUS
 10
4.773085
 20
1.215150
  0
VERTEX
  8
FOREGROUND
  6
CONTINUOUS
 10
4.773330
 20
1.231448
  0
SEQEND
  8
0
  0
ENDSEC
  0
EOF
