  0
SECTION
  2
HEADER
  9
$ACADVER
  1
AC1006
  9
$EXTMIN
 10
0.000000
 20
0.000000
  9
$EXTMAX
 10
4.825000
 20
3.250000
  9
$LTSCALE
 40
0.166667
  9
$PDMODE
 70
    35
  9
$PDSIZE
 40
0.133333
  0
ENDSEC
  0
SECTION
  2
TABLES
  0
TABLE
  2
LTYPE
 70
     9
  0
LTYPE
  2
CONTINUOUS
 70
    64
  3
Solid line
 72
    65
 73
     0
 40
0.000000
  0
LTYPE
  2
DASHED
 70
    64
  3
__ __ __ __ __ __ __ __ __ __ __ __ __ __ __
 72
    65
 73
     2
 40
0.001250
 49
0.000833
 49
-0.000417
  0
LTYPE
  2
HIDDEN
 70
    64
  3
 _ _ _ _ _ _ _ _ _ _ _ _ _ _ _ _ _ _ _ _ _ _
 72
    65
 73
     2
 40
0.000625
 49
0.000417
 49
-0.000208
  0
LTYPE
  2
CENTER
 70
    64
  3
____ _ ____ _ ____ _ ____ _ ____ _ ____ _ ____
 72
    65
 73
     4
 40
0.003333
 49
0.002083
 49
-0.000417
 49
0.000417
 49
-0.000417
  0
LTYPE
  2
PHANTOM
 70
    64
  3
_____ _ _ _____ _ _ _____ _ _ _____ _ _ ____
 72
    65
 73
     6
 40
0.004167
 49
0.002083
 49
-0.000417
 49
0.000417
 49
-0.000417
 49
0.000417
 49
-0.000417
  0
LTYPE
  2
DOT
 70
    64
  3
...............................................
 72
    65
 73
     2
 40
0.000417
 49
0.000000
 49
-0.000417
  0
LTYPE
  2
DASHDOT
 70
    64
  3
__ . __ . __ . __ . __ . __ . __ . __ . __ . __
 72
    65
 73
     4
 40
0.001667
 49
0.000833
 49
-0.000417
 49
0.000000
 49
-0.000417
  0
LTYPE
  2
BORDER
 70
    64
  3
__ __ . __ __ . __ __ . __ __ . __ __ . __ __
 72
    65
 73
     6
 40
0.002917
 49
0.000833
 49
-0.000417
 49
0.000833
 49
-0.000417
 49
0.000000
 49
-0.000417
  0
LTYPE
  2
DIVIDE
 70
    64
  3
__ . . __ . . __ . . __ . . __ . . __ . . __
 72
    65
 73
     6
 40
0.002083
 49
0.000833
 49
-0.000417
 49
0.000000
 49
-0.000417
 49
0.000000
 49
-0.000417
  0
LTYPE
  2
DOTDOT
 70
    64
  3
 . .  . .  . .  . .  . .  . . 
 72
    65
 73
     5
 40
0.000917
 49
-0.000417
 49
0.000000
 49
-0.000417
 49
0.000000
 49
-0.000417
  0
ENDTAB
  0
TABLE
  2
STYLE
 70
     2
  0
STYLE
 70
     0
  2
SN0
 40
0.000000
 41
0.001667
 50
0.000000
 71
     0
 42
0.000000
  3
ROMAND
  0
STYLE
 70
    68
  2
SV0
 40
0.000000
 41
0.001667
 50
0.000000
 71
     0
 42
0.000000
  3
ROMAND
  0
ENDTAB
  0
TABLE
  2
LAYER
 70
     2
  0
LAYER
  2
FOREGROUND
 70
    64
 62
     7
  6
CONTINUOUS
  0
LAYER
  2
BACKGROUND
 70
    65
 62
    -7
  6
CONTINUOUS
  0
ENDTAB
  0
ENDSEC
  0
SECTION
  2
ENTITIES
  0
POLYLINE
  8
FOREGROUND
  6
CONTINUOUS
 66
     1
 40
0.010000
 41
0.010000
 70
     1
  0
VERTEX
  8
FOREGROUND
  6
CONTINUOUS
 10
4.773332
 20
1.625000
  0
VERTEX
  8
FOREGROUND
  6
CONTINUOUS
 10
4.773179
 20
1.645587
  0
VERTEX
  8
FOREGROUND
  6
CONTINUOUS
 10
4.772723
 20
1.666039
  0
VERTEX
  8
FOREGROUND
  6
CONTINUOUS
 10
4.771967
 20
1.686355
  0
VERTEX
  8
FOREGROUND
  6
CONTINUOUS
 10
4.770912
 20
1.706536
  0
VERTEX
  8
FOREGROUND
  6
CONTINUOUS
 10
4.769561
 20
1.726581
  0
VERTEX
  8
FOREGROUND
  6
CONTINUOUS
 10
4.767916
 20
1.746491
  0
VERTEX
  8
FOREGROUND
  6
CONTINUOUS
 10
4.765979
 20
1.766265
  0
VERTEX
  8
FOREGROUND
  6
CONTINUOUS
 10
4.763751
 20
1.785904
  0
VERTEX
  8
FOREGROUND
  6
CONTINUOUS
 10
4.761235
 20
1.805408
  0
VERTEX
  8
FOREGROUND
  6
CONTINUOUS
 10
4.758432
 20
1.824776
  0
VERTEX
  8
FOREGROUND
  6
CONTINUOUS
 10
4.755346
 20
1.844009
  0
VERTEX
  8
FOREGROUND
  6
CONTINUOUS
 10
4.751976
 20
1.863106
  0
VERTEX
  8
FOREGROUND
  6
CONTINUOUS
 10
4.748327
 20
1.882068
  0
VERTEX
  8
FOREGROUND
  6
CONTINUOUS
 10
4.744399
 20
1.900895
  0
VERTEX
  8
FOREGROUND
  6
CONTINUOUS
 10
4.740195
 20
1.919586
  0
VERTEX
  8
FOREGROUND
  6
CONTINUOUS
 10
4.735716
 20
1.938141
  0
VERTEX
  8
FOREGROUND
  6
CONTINUOUS
 10
4.730965
 20
1.956561
  0
VERTEX
  8
FOREGROUND
  6
CONTINUOUS
 10
4.725943
 20
1.974846
  0
VERTEX
  8
FOREGROUND
  6
CONTINUOUS
 10
4.720654
 20
1.992995
  0
VERTEX
  8
FOREGROUND
  6
CONTINUOUS
 10
4.715097
 20
2.011009
  0
VERTEX
  8
FOREGROUND
  6
CONTINUOUS
 10
4.709277
 20
2.028888
  0
VERTEX
  8
FOREGROUND
  6
CONTINUOUS
 10
4.703194
 20
2.046631
  0
VERTEX
  8
FOREGROUND
  6
CONTINUOUS
 10
4.696850
 20
2.064238
  0
VERTEX
  8
FOREGROUND
  6
CONTINUOUS
 10
4.690248
 20
2.081710
  0
VERTEX
  8
FOREGROUND
  6
CONTINUOUS
 10
4.683390
 20
2.099047
  0
VERTEX
  8
FOREGROUND
  6
CONTINUOUS
 10
4.676277
 20
2.116248
  0
VERTEX
  8
FOREGROUND
  6
CONTINUOUS
 10
4.668912
 20
2.133314
  0
VERTEX
  8
FOREGROUND
  6
CONTINUOUS
 10
4.661296
 20
2.150244
  0
VERTEX
  8
FOREGROUND
  6
CONTINUOUS
 10
4.653432
 20
2.167039
  0
VERTEX
  8
FOREGROUND
  6
CONTINUOUS
 10
4.645322
 20
2.183699
  0
VERTEX
  8
FOREGROUND
  6
CONTINUOUS
 10
4.636966
 20
2.200223
  0
VERTEX
  8
FOREGROUND
  6
CONTINUOUS
 10
4.628369
 20
2.216612
  0
VERTEX
  8
FOREGROUND
  6
CONTINUOUS
 10
4.619531
 20
2.232865
  0
VERTEX
  8
FOREGROUND
  6
CONTINUOUS
 10
4.610454
 20
2.248983
  0
VERTEX
  8
FOREGROUND
  6
CONTINUOUS
 10
4.601141
 20
2.264965
  0
VERTEX
  8
FOREGROUND
  6
CONTINUOUS
 10
4.591594
 20
2.280812
  0
VERTEX
  8
FOREGROUND
  6
CONTINUOUS
 10
4.581814
 20
2.296523
  0
VERTEX
  8
FOREGROUND
  6
CONTINUOUS
 10
4.571804
 20
2.312099
  0
VERTEX
  8
FOREGROUND
  6
CONTINUOUS
 10
4.561565
 20
2.327540
  0
VERTEX
  8
FOREGROUND
  6
CONTINUOUS
 10
4.551099
 20
2.342845
  0
VERTEX
  8
FOREGROUND
  6
CONTINUOUS
 10
4.540409
 20
2.358015
  0
VERTEX
  8
FOREGROUND
  6
CONTINUOUS
 10
4.529497
 20
2.373049
  0
VERTEX
  8
FOREGROUND
  6
CONTINUOUS
 10
4.518363
 20
2.387948
  0
VERTEX
  8
FOREGROUND
  6
CONTINUOUS
 10
4.507012
 20
2.402712
  0
VERTEX
  8
FOREGROUND
  6
CONTINUOUS
 10
4.495444
 20
2.417340
  0
VERTEX
  8
FOREGROUND
  6
CONTINUOUS
 10
4.483661
 20
2.431832
  0
VERTEX
  8
FOREGROUND
  6
CONTINUOUS
 10
4.471666
 20
2.446189
  0
VERTEX
  8
FOREGROUND
  6
CONTINUOUS
 10
4.459460
 20
2.460411
  0
VERTEX
  8
FOREGROUND
  6
CONTINUOUS
 10
4.447045
 20
2.474497
  0
VERTEX
  8
FOREGROUND
  6
CONTINUOUS
 10
4.434424
 20
2.488448
  0
VERTEX
  8
FOREGROUND
  6
CONTINUOUS
 10
4.421599
 20
2.502264
  0
VERTEX
  8
FOREGROUND
  6
CONTINUOUS
 10
4.408571
 20
2.515944
  0
VERTEX
  8
FOREGROUND
  6
CONTINUOUS
 10
4.395342
 20
2.529488
  0
VERTEX
  8
FOREGROUND
  6
CONTINUOUS
 10
4.381915
 20
2.542897
  0
VERTEX
  8
FOREGROUND
  6
CONTINUOUS
 10
4.368291
 20
2.556171
  0
VERTEX
  8
FOREGROUND
  6
CONTINUOUS
 10
4.354472
 20
2.569309
  0
VERTEX
  8
FOREGROUND
  6
CONTINUOUS
 10
4.340461
 20
2.582312
  0
VERTEX
  8
FOREGROUND
  6
CONTINUOUS
 10
4.326259
 20
2.595179
  0
VERTEX
  8
FOREGROUND
  6
CONTINUOUS
 10
4.311869
 20
2.607911
  0
VERTEX
  8
FOREGROUND
  6
CONTINUOUS
 10
4.297292
 20
2.620508
  0
VERTEX
  8
FOREGROUND
  6
CONTINUOUS
 10
4.282530
 20
2.632969
  0
VERTEX
  8
FOREGROUND
  6
CONTINUOUS
 10
4.267586
 20
2.645294
  0
VERTEX
  8
FOREGROUND
  6
CONTINUOUS
 10
4.252461
 20
2.657484
  0
VERTEX
  8
FOREGROUND
  6
CONTINUOUS
 10
4.237157
 20
2.669539
  0
VERTEX
  8
FOREGROUND
  6
CONTINUOUS
 10
4.221677
 20
2.681458
  0
VERTEX
  8
FOREGROUND
  6
CONTINUOUS
 10
4.206022
 20
2.693242
  0
VERTEX
  8
FOREGROUND
  6
CONTINUOUS
 10
4.190195
 20
2.704891
  0
VERTEX
  8
FOREGROUND
  6
CONTINUOUS
 10
4.174196
 20
2.716404
  0
VERTEX
  8
FOREGROUND
  6
CONTINUOUS
 10
4.158029
 20
2.727781
  0
VERTEX
  8
FOREGROUND
  6
CONTINUOUS
 10
4.141696
 20
2.739023
  0
VERTEX
  8
FOREGROUND
  6
CONTINUOUS
 10
4.125198
 20
2.750130
  0
VERTEX
  8
FOREGROUND
  6
CONTINUOUS
 10
4.108537
 20
2.761101
  0
VERTEX
  8
FOREGROUND
  6
CONTINUOUS
 10
4.091715
 20
2.771937
  0
VERTEX
  8
FOREGROUND
  6
CONTINUOUS
 10
4.074734
 20
2.782638
  0
VERTEX
  8
FOREGROUND
  6
CONTINUOUS
 10
4.057597
 20
2.793203
  0
VERTEX
  8
FOREGROUND
  6
CONTINUOUS
 10
4.040305
 20
2.803632
  0
VERTEX
  8
FOREGROUND
  6
CONTINUOUS
 10
4.022861
 20
2.813926
  0
VERTEX
  8
FOREGROUND
  6
CONTINUOUS
 10
4.005265
 20
2.824085
  0
VERTEX
  8
FOREGROUND
  6
CONTINUOUS
 10
3.987521
 20
2.834108
  0
VERTEX
  8
FOREGROUND
  6
CONTINUOUS
 10
3.969631
 20
2.843996
  0
VERTEX
  8
FOREGROUND
  6
CONTINUOUS
 10
3.951595
 20
2.853748
  0
VERTEX
  8
FOREGROUND
  6
CONTINUOUS
 10
3.933417
 20
2.863365
  0
VERTEX
  8
FOREGROUND
  6
CONTINUOUS
 10
3.915098
 20
2.872846
  0
VERTEX
  8
FOREGROUND
  6
CONTINUOUS
 10
3.896640
 20
2.882192
  0
VERTEX
  8
FOREGROUND
  6
CONTINUOUS
 10
3.878045
 20
2.891403
  0
VERTEX
  8
FOREGROUND
  6
CONTINUOUS
 10
3.859316
 20
2.900478
  0
VERTEX
  8
FOREGROUND
  6
CONTINUOUS
 10
3.840454
 20
2.909418
  0
VERTEX
  8
FOREGROUND
  6
CONTINUOUS
 10
3.821461
 20
2.918222
  0
VERTEX
  8
FOREGROUND
  6
CONTINUOUS
 10
3.802339
 20
2.926891
  0
VERTEX
  8
FOREGROUND
  6
CONTINUOUS
 10
3.783090
 20
2.935424
  0
VERTEX
  8
FOREGROUND
  6
CONTINUOUS
 10
3.763717
 20
2.943822
  0
VERTEX
  8
FOREGROUND
  6
CONTINUOUS
 10
3.744221
 20
2.952085
  0
VERTEX
  8
FOREGROUND
  6
CONTINUOUS
 10
3.724604
 20
2.960212
  0
VERTEX
  8
FOREGROUND
  6
CONTINUOUS
 10
3.704868
 20
2.968203
  0
VERTEX
  8
FOREGROUND
  6
CONTINUOUS
 10
3.685015
 20
2.976060
  0
VERTEX
  8
FOREGROUND
  6
CONTINUOUS
 10
3.665048
 20
2.983780
  0
VERTEX
  8
FOREGROUND
  6
CONTINUOUS
 10
3.644968
 20
2.991366
  0
VERTEX
  8
FOREGROUND
  6
CONTINUOUS
 10
3.624777
 20
2.998816
  0
VERTEX
  8
FOREGROUND
  6
CONTINUOUS
 10
3.604477
 20
3.006130
  0
VERTEX
  8
FOREGROUND
  6
CONTINUOUS
 10
3.584070
 20
3.013309
  0
VERTEX
  8
FOREGROUND
  6
CONTINUOUS
 10
3.563558
 20
3.020353
  0
VERTEX
  8
FOREGROUND
  6
CONTINUOUS
 10
3.542943
 20
3.027261
  0
VERTEX
  8
FOREGROUND
  6
CONTINUOUS
 10
3.522228
 20
3.034034
  0
VERTEX
  8
FOREGROUND
  6
CONTINUOUS
 10
3.501414
 20
3.040671
  0
VERTEX
  8
FOREGROUND
  6
CONTINUOUS
 10
3.480502
 20
3.047173
  0
VERTEX
  8
FOREGROUND
  6
CONTINUOUS
 10
3.459496
 20
3.053539
  0
VERTEX
  8
FOREGROUND
  6
CONTINUOUS
 10
3.438397
 20
3.059770
  0
VERTEX
  8
FOREGROUND
  6
CONTINUOUS
 10
3.417207
 20
3.065865
  0
VERTEX
  8
FOREGROUND
  6
CONTINUOUS
 10
3.395928
 20
3.071826
  0
VERTEX
  8
FOREGROUND
  6
CONTINUOUS
 10
3.374563
 20
3.077650
  0
VERTEX
  8
FOREGROUND
  6
CONTINUOUS
 10
3.353112
 20
3.083339
  0
VERTEX
  8
FOREGROUND
  6
CONTINUOUS
 10
3.331579
 20
3.088893
  0
VERTEX
  8
FOREGROUND
  6
CONTINUOUS
 10
3.309964
 20
3.094311
  0
VERTEX
  8
FOREGROUND
  6
CONTINUOUS
 10
3.288271
 20
3.099594
  0
VERTEX
  8
FOREGROUND
  6
CONTINUOUS
 10
3.266500
 20
3.104742
  0
VERTEX
  8
FOREGROUND
  6
CONTINUOUS
 10
3.244655
 20
3.109754
  0
VERTEX
  8
FOREGROUND
  6
CONTINUOUS
 10
3.222737
 20
3.114630
  0
VERTEX
  8
FOREGROUND
  6
CONTINUOUS
 10
3.200747
 20
3.119371
  0
VERTEX
  8
FOREGROUND
  6
CONTINUOUS
 10
3.178689
 20
3.123977
  0
VERTEX
  8
FOREGROUND
  6
CONTINUOUS
 10
3.156564
 20
3.128447
  0
VERTEX
  8
FOREGROUND
  6
CONTINUOUS
 10
3.134374
 20
3.132782
  0
VERTEX
  8
FOREGROUND
  6
CONTINUOUS
 10
3.112121
 20
3.136982
  0
VERTEX
  8
FOREGROUND
  6
CONTINUOUS
 10
3.089807
 20
3.141045
  0
VERTEX
  8
FOREGROUND
  6
CONTINUOUS
 10
3.067433
 20
3.144974
  0
VERTEX
  8
FOREGROUND
  6
CONTINUOUS
 10
3.045003
 20
3.148767
  0
VERTEX
  8
FOREGROUND
  6
CONTINUOUS
 10
3.022518
 20
3.152425
  0
VERTEX
  8
FOREGROUND
  6
CONTINUOUS
 10
2.999980
 20
3.155947
  0
VERTEX
  8
FOREGROUND
  6
CONTINUOUS
 10
2.977391
 20
3.159334
  0
VERTEX
  8
FOREGROUND
  6
CONTINUOUS
 10
2.954753
 20
3.162585
  0
VERTEX
  8
FOREGROUND
  6
CONTINUOUS
 10
2.932068
 20
3.165701
  0
VERTEX
  8
FOREGROUND
  6
CONTINUOUS
 10
2.909337
 20
3.168681
  0
VERTEX
  8
FOREGROUND
  6
CONTINUOUS
 10
2.886564
 20
3.171526
  0
VERTEX
  8
FOREGROUND
  6
CONTINUOUS
 10
2.863750
 20
3.174236
  0
VERTEX
  8
FOREGROUND
  6
CONTINUOUS
 10
2.840896
 20
3.176810
  0
VERTEX
  8
FOREGROUND
  6
CONTINUOUS
 10
2.818006
 20
3.179248
  0
VERTEX
  8
FOREGROUND
  6
CONTINUOUS
 10
2.795081
 20
3.181551
  0
VERTEX
  8
FOREGROUND
  6
CONTINUOUS
 10
2.772122
 20
3.183719
  0
VERTEX
  8
FOREGROUND
  6
CONTINUOUS
 10
2.749132
 20
3.185752
  0
VERTEX
  8
FOREGROUND
  6
CONTINUOUS
 10
2.726114
 20
3.187648
  0
VERTEX
  8
FOREGROUND
  6
CONTINUOUS
 10
2.703068
 20
3.189410
  0
VERTEX
  8
FOREGROUND
  6
CONTINUOUS
 10
2.679997
 20
3.191036
  0
VERTEX
  8
FOREGROUND
  6
CONTINUOUS
 10
2.656903
 20
3.192527
  0
VERTEX
  8
FOREGROUND
  6
CONTINUOUS
 10
2.633788
 20
3.193882
  0
VERTEX
  8
FOREGROUND
  6
CONTINUOUS
 10
2.610654
 20
3.195101
  0
VERTEX
  8
FOREGROUND
  6
CONTINUOUS
 10
2.587503
 20
3.196186
  0
VERTEX
  8
FOREGROUND
  6
CONTINUOUS
 10
2.564336
 20
3.197134
  0
VERTEX
  8
FOREGROUND
  6
CONTINUOUS
 10
2.541157
 20
3.197948
  0
VERTEX
  8
FOREGROUND
  6
CONTINUOUS
 10
2.517966
 20
3.198626
  0
VERTEX
  8
FOREGROUND
  6
CONTINUOUS
 10
2.494766
 20
3.199168
  0
VERTEX
  8
FOREGROUND
  6
CONTINUOUS
 10
2.471559
 20
3.199575
  0
VERTEX
  8
FOREGROUND
  6
CONTINUOUS
 10
2.448347
 20
3.199847
  0
VERTEX
  8
FOREGROUND
  6
CONTINUOUS
 10
2.425132
 20
3.199983
  0
VERTEX
  8
FOREGROUND
  6
CONTINUOUS
 10
2.401916
 20
3.199984
  0
VERTEX
  8
FOREGROUND
  6
CONTINUOUS
 10
2.378700
 20
3.199849
  0
VERTEX
  8
FOREGROUND
  6
CONTINUOUS
 10
2.355488
 20
3.199579
  0
VERTEX
  8
FOREGROUND
  6
CONTINUOUS
 10
2.332280
 20
3.199173
  0
VERTEX
  8
FOREGROUND
  6
CONTINUOUS
 10
2.309079
 20
3.198632
  0
VERTEX
  8
FOREGROUND
  6
CONTINUOUS
 10
2.285886
 20
3.197956
  0
VERTEX
  8
FOREGROUND
  6
CONTINUOUS
 10
2.262705
 20
3.197144
  0
VERTEX
  8
FOREGROUND
  6
CONTINUOUS
 10
2.239536
 20
3.196196
  0
VERTEX
  8
FOREGROUND
  6
CONTINUOUS
 10
2.216383
 20
3.195113
  0
VERTEX
  8
FOREGROUND
  6
CONTINUOUS
 10
2.193246
 20
3.193895
  0
VERTEX
  8
FOREGROUND
  6
CONTINUOUS
 10
2.170127
 20
3.192542
  0
VERTEX
  8
FOREGROUND
  6
CONTINUOUS
 10
2.147030
 20
3.191052
  0
VERTEX
  8
FOREGROUND
  6
CONTINUOUS
 10
2.123955
 20
3.189428
  0
VERTEX
  8
FOREGROUND
  6
CONTINUOUS
 10
2.100905
 20
3.187668
  0
VERTEX
  8
FOREGROUND
  6
CONTINUOUS
 10
2.077882
 20
3.185772
  0
VERTEX
  8
FOREGROUND
  6
CONTINUOUS
 10
2.054888
 20
3.183741
  0
VERTEX
  8
FOREGROUND
  6
CONTINUOUS
 10
2.031924
 20
3.181575
  0
VERTEX
  8
FOREGROUND
  6
CONTINUOUS
 10
2.008993
 20
3.179273
  0
VERTEX
  8
FOREGROUND
  6
CONTINUOUS
 10
1.986097
 20
3.176836
  0
VERTEX
  8
FOREGROUND
  6
CONTINUOUS
 10
1.963238
 20
3.174263
  0
VERTEX
  8
FOREGROUND
  6
CONTINUOUS
 10
1.940417
 20
3.171555
  0
VERTEX
  8
FOREGROUND
  6
CONTINUOUS
 10
1.917637
 20
3.168712
  0
VERTEX
  8
FOREGROUND
  6
CONTINUOUS
 10
1.894900
 20
3.165733
  0
VERTEX
  8
FOREGROUND
  6
CONTINUOUS
 10
1.872207
 20
3.162618
  0
VERTEX
  8
FOREGROUND
  6
CONTINUOUS
 10
1.849561
 20
3.159368
  0
VERTEX
  8
FOREGROUND
  6
CONTINUOUS
 10
1.826964
 20
3.155983
  0
VERTEX
  8
FOREGROUND
  6
CONTINUOUS
 10
1.804418
 20
3.152462
  0
VERTEX
  8
FOREGROUND
  6
CONTINUOUS
 10
1.781924
 20
3.148806
  0
VERTEX
  8
FOREGROUND
  6
CONTINUOUS
 10
1.759485
 20
3.145014
  0
VERTEX
  8
FOREGROUND
  6
CONTINUOUS
 10
1.737103
 20
3.141087
  0
VERTEX
  8
FOREGROUND
  6
CONTINUOUS
 10
1.714779
 20
3.137025
  0
VERTEX
  8
FOREGROUND
  6
CONTINUOUS
 10
1.692516
 20
3.132827
  0
VERTEX
  8
FOREGROUND
  6
CONTINUOUS
 10
1.670315
 20
3.128493
  0
VERTEX
  8
FOREGROUND
  6
CONTINUOUS
 10
1.648180
 20
3.124024
  0
VERTEX
  8
FOREGROUND
  6
CONTINUOUS
 10
1.626111
 20
3.119420
  0
VERTEX
  8
FOREGROUND
  6
CONTINUOUS
 10
1.604110
 20
3.114680
  0
VERTEX
  8
FOREGROUND
  6
CONTINUOUS
 10
1.582180
 20
3.109805
  0
VERTEX
  8
FOREGROUND
  6
CONTINUOUS
 10
1.560323
 20
3.104794
  0
VERTEX
  8
FOREGROUND
  6
CONTINUOUS
 10
1.538541
 20
3.099648
  0
VERTEX
  8
FOREGROUND
  6
CONTINUOUS
 10
1.516835
 20
3.094367
  0
VERTEX
  8
FOREGROUND
  6
CONTINUOUS
 10
1.495208
 20
3.088950
  0
VERTEX
  8
FOREGROUND
  6
CONTINUOUS
 10
1.473661
 20
3.083397
  0
VERTEX
  8
FOREGROUND
  6
CONTINUOUS
 10
1.452197
 20
3.077710
  0
VERTEX
  8
FOREGROUND
  6
CONTINUOUS
 10
1.430817
 20
3.071886
  0
VERTEX
  8
FOREGROUND
  6
CONTINUOUS
 10
1.409524
 20
3.065928
  0
VERTEX
  8
FOREGROUND
  6
CONTINUOUS
 10
1.388320
 20
3.059833
  0
VERTEX
  8
FOREGROUND
  6
CONTINUOUS
 10
1.367206
 20
3.053604
  0
VERTEX
  8
FOREGROUND
  6
CONTINUOUS
 10
1.346185
 20
3.047239
  0
VERTEX
  8
FOREGROUND
  6
CONTINUOUS
 10
1.325259
 20
3.040738
  0
VERTEX
  8
FOREGROUND
  6
CONTINUOUS
 10
1.304429
 20
3.034102
  0
VERTEX
  8
FOREGROUND
  6
CONTINUOUS
 10
1.283697
 20
3.027331
  0
VERTEX
  8
FOREGROUND
  6
CONTINUOUS
 10
1.263066
 20
3.020424
  0
VERTEX
  8
FOREGROUND
  6
CONTINUOUS
 10
1.242538
 20
3.013381
  0
VERTEX
  8
FOREGROUND
  6
CONTINUOUS
 10
1.222114
 20
3.006204
  0
VERTEX
  8
FOREGROUND
  6
CONTINUOUS
 10
1.201797
 20
2.998891
  0
VERTEX
  8
FOREGROUND
  6
CONTINUOUS
 10
1.181588
 20
2.991442
  0
VERTEX
  8
FOREGROUND
  6
CONTINUOUS
 10
1.161490
 20
2.983858
  0
VERTEX
  8
FOREGROUND
  6
CONTINUOUS
 10
1.141505
 20
2.976138
  0
VERTEX
  8
FOREGROUND
  6
CONTINUOUS
 10
1.121633
 20
2.968283
  0
VERTEX
  8
FOREGROUND
  6
CONTINUOUS
 10
1.101879
 20
2.960293
  0
VERTEX
  8
FOREGROUND
  6
CONTINUOUS
 10
1.082243
 20
2.952167
  0
VERTEX
  8
FOREGROUND
  6
CONTINUOUS
 10
1.062727
 20
2.943906
  0
VERTEX
  8
FOREGROUND
  6
CONTINUOUS
 10
1.043334
 20
2.935509
  0
VERTEX
  8
FOREGROUND
  6
CONTINUOUS
 10
1.024065
 20
2.926977
  0
VERTEX
  8
FOREGROUND
  6
CONTINUOUS
 10
1.004923
 20
2.918309
  0
VERTEX
  8
FOREGROUND
  6
CONTINUOUS
 10
0.985909
 20
2.909506
  0
VERTEX
  8
FOREGROUND
  6
CONTINUOUS
 10
0.967026
 20
2.900567
  0
VERTEX
  8
FOREGROUND
  6
CONTINUOUS
 10
0.948275
 20
2.891493
  0
VERTEX
  8
FOREGROUND
  6
CONTINUOUS
 10
0.929659
 20
2.882284
  0
VERTEX
  8
FOREGROUND
  6
CONTINUOUS
 10
0.911179
 20
2.872939
  0
VERTEX
  8
FOREGROUND
  6
CONTINUOUS
 10
0.892837
 20
2.863459
  0
VERTEX
  8
FOREGROUND
  6
CONTINUOUS
 10
0.874637
 20
2.853843
  0
VERTEX
  8
FOREGROUND
  6
CONTINUOUS
 10
0.856578
 20
2.844092
  0
VERTEX
  8
FOREGROUND
  6
CONTINUOUS
 10
0.838664
 20
2.834205
  0
VERTEX
  8
FOREGROUND
  6
CONTINUOUS
 10
0.820896
 20
2.824183
  0
VERTEX
  8
FOREGROUND
  6
CONTINUOUS
 10
0.803277
 20
2.814026
  0
VERTEX
  8
FOREGROUND
  6
CONTINUOUS
 10
0.785808
 20
2.803733
  0
VERTEX
  8
FOREGROUND
  6
CONTINUOUS
 10
0.768492
 20
2.793304
  0
VERTEX
  8
FOREGROUND
  6
CONTINUOUS
 10
0.751329
 20
2.782740
  0
VERTEX
  8
FOREGROUND
  6
CONTINUOUS
 10
0.734324
 20
2.772041
  0
VERTEX
  8
FOREGROUND
  6
CONTINUOUS
 10
0.717477
 20
2.761206
  0
VERTEX
  8
FOREGROUND
  6
CONTINUOUS
 10
0.700790
 20
2.750236
  0
VERTEX
  8
FOREGROUND
  6
CONTINUOUS
 10
0.684265
 20
2.739130
  0
VERTEX
  8
FOREGROUND
  6
CONTINUOUS
 10
0.667905
 20
2.727889
  0
VERTEX
  8
FOREGROUND
  6
CONTINUOUS
 10
0.651711
 20
2.716513
  0
VERTEX
  8
FOREGROUND
  6
CONTINUOUS
 10
0.635686
 20
2.705001
  0
VERTEX
  8
FOREGROUND
  6
CONTINUOUS
 10
0.619831
 20
2.693353
  0
VERTEX
  8
FOREGROUND
  6
CONTINUOUS
 10
0.604148
 20
2.681570
  0
VERTEX
  8
FOREGROUND
  6
CONTINUOUS
 10
0.588640
 20
2.669652
  0
VERTEX
  8
FOREGROUND
  6
CONTINUOUS
 10
0.573308
 20
2.657598
  0
VERTEX
  8
FOREGROUND
  6
CONTINUOUS
 10
0.558154
 20
2.645409
  0
VERTEX
  8
FOREGROUND
  6
CONTINUOUS
 10
0.543181
 20
2.633084
  0
VERTEX
  8
FOREGROUND
  6
CONTINUOUS
 10
0.528390
 20
2.620624
  0
VERTEX
  8
FOREGROUND
  6
CONTINUOUS
 10
0.513783
 20
2.608028
  0
VERTEX
  8
FOREGROUND
  6
CONTINUOUS
 10
0.499362
 20
2.595297
  0
VERTEX
  8
FOREGROUND
  6
CONTINUOUS
 10
0.485130
 20
2.582431
  0
VERTEX
  8
FOREGROUND
  6
CONTINUOUS
 10
0.471088
 20
2.569429
  0
VERTEX
  8
FOREGROUND
  6
CONTINUOUS
 10
0.457239
 20
2.556292
  0
VERTEX
  8
FOREGROUND
  6
CONTINUOUS
 10
0.443584
 20
2.543019
  0
VERTEX
  8
FOREGROUND
  6
CONTINUOUS
 10
0.430125
 20
2.529611
  0
VERTEX
  8
FOREGROUND
  6
CONTINUOUS
 10
0.416864
 20
2.516067
  0
VERTEX
  8
FOREGROUND
  6
CONTINUOUS
 10
0.403804
 20
2.502388
  0
VERTEX
  8
FOREGROUND
  6
CONTINUOUS
 10
0.390946
 20
2.488573
  0
VERTEX
  8
FOREGROUND
  6
CONTINUOUS
 10
0.378292
 20
2.474623
  0
VERTEX
  8
FOREGROUND
  6
CONTINUOUS
 10
0.365844
 20
2.460538
  0
VERTEX
  8
FOREGROUND
  6
CONTINUOUS
 10
0.353605
 20
2.446317
  0
VERTEX
  8
FOREGROUND
  6
CONTINUOUS
 10
0.341576
 20
2.431960
  0
VERTEX
  8
FOREGROUND
  6
CONTINUOUS
 10
0.329759
 20
2.417468
  0
VERTEX
  8
FOREGROUND
  6
CONTINUOUS
 10
0.318156
 20
2.402841
  0
VERTEX
  8
FOREGROUND
  6
CONTINUOUS
 10
0.306770
 20
2.388078
  0
VERTEX
  8
FOREGROUND
  6
CONTINUOUS
 10
0.295601
 20
2.373180
  0
VERTEX
  8
FOREGROUND
  6
CONTINUOUS
 10
0.284653
 20
2.358147
  0
VERTEX
  8
FOREGROUND
  6
CONTINUOUS
 10
0.273927
 20
2.342977
  0
VERTEX
  8
FOREGROUND
  6
CONTINUOUS
 10
0.263426
 20
2.327673
  0
VERTEX
  8
FOREGROUND
  6
CONTINUOUS
 10
0.253150
 20
2.312233
  0
VERTEX
  8
FOREGROUND
  6
CONTINUOUS
 10
0.243103
 20
2.296657
  0
VERTEX
  8
FOREGROUND
  6
CONTINUOUS
 10
0.233286
 20
2.280947
  0
VERTEX
  8
FOREGROUND
  6
CONTINUOUS
 10
0.223701
 20
2.265100
  0
VERTEX
  8
FOREGROUND
  6
CONTINUOUS
 10
0.214351
 20
2.249119
  0
VERTEX
  8
FOREGROUND
  6
CONTINUOUS
 10
0.205236
 20
2.233001
  0
VERTEX
  8
FOREGROUND
  6
CONTINUOUS
 10
0.196360
 20
2.216749
  0
VERTEX
  8
FOREGROUND
  6
CONTINUOUS
 10
0.187724
 20
2.200360
  0
VERTEX
  8
FOREGROUND
  6
CONTINUOUS
 10
0.179330
 20
2.183837
  0
VERTEX
  8
FOREGROUND
  6
CONTINUOUS
 10
0.171180
 20
2.167178
  0
VERTEX
  8
FOREGROUND
  6
CONTINUOUS
 10
0.163276
 20
2.150383
  0
VERTEX
  8
FOREGROUND
  6
CONTINUOUS
 10
0.155620
 20
2.133454
  0
VERTEX
  8
FOREGROUND
  6
CONTINUOUS
 10
0.148215
 20
2.116388
  0
VERTEX
  8
FOREGROUND
  6
CONTINUOUS
 10
0.141062
 20
2.099187
  0
VERTEX
  8
FOREGROUND
  6
CONTINUOUS
 10
0.134162
 20
2.081851
  0
VERTEX
  8
FOREGROUND
  6
CONTINUOUS
 10
0.127519
 20
2.064379
  0
VERTEX
  8
FOREGROUND
  6
CONTINUOUS
 10
0.121134
 20
2.046772
  0
VERTEX
  8
FOREGROUND
  6
CONTINUOUS
 10
0.115009
 20
2.029030
  0
VERTEX
  8
FOREGROUND
  6
CONTINUOUS
 10
0.109147
 20
2.011152
  0
VERTEX
  8
FOREGROUND
  6
CONTINUOUS
 10
0.103548
 20
1.993138
  0
VERTEX
  8
FOREGROUND
  6
CONTINUOUS
 10
0.098215
 20
1.974989
  0
VERTEX
  8
FOREGROUND
  6
CONTINUOUS
 10
0.093151
 20
1.956705
  0
VERTEX
  8
FOREGROUND
  6
CONTINUOUS
 10
0.088356
 20
1.938285
  0
VERTEX
  8
FOREGROUND
  6
CONTINUOUS
 10
0.083834
 20
1.919730
  0
VERTEX
  8
FOREGROUND
  6
CONTINUOUS
 10
0.079585
 20
1.901039
  0
VERTEX
  8
FOREGROUND
  6
CONTINUOUS
 10
0.075613
 20
1.882213
  0
VERTEX
  8
FOREGROUND
  6
CONTINUOUS
 10
0.071919
 20
1.863251
  0
VERTEX
  8
FOREGROUND
  6
CONTINUOUS
 10
0.068504
 20
1.844154
  0
VERTEX
  8
FOREGROUND
  6
CONTINUOUS
 10
0.065372
 20
1.824921
  0
VERTEX
  8
FOREGROUND
  6
CONTINUOUS
 10
0.062524
 20
1.805553
  0
VERTEX
  8
FOREGROUND
  6
CONTINUOUS
 10
0.059962
 20
1.786050
  0
VERTEX
  8
FOREGROUND
  6
CONTINUOUS
 10
0.057688
 20
1.766411
  0
VERTEX
  8
FOREGROUND
  6
CONTINUOUS
 10
0.055704
 20
1.746637
  0
VERTEX
  8
FOREGROUND
  6
CONTINUOUS
 10
0.054012
 20
1.726727
  0
VERTEX
  8
FOREGROUND
  6
CONTINUOUS
 10
0.052614
 20
1.706681
  0
VERTEX
  8
FOREGROUND
  6
CONTINUOUS
 10
0.051512
 20
1.686501
  0
VERTEX
  8
FOREGROUND
  6
CONTINUOUS
 10
0.050708
 20
1.666185
  0
VERTEX
  8
FOREGROUND
  6
CONTINUOUS
 10
0.050203
 20
1.645733
  0
VERTEX
  8
FOREGROUND
  6
CONTINUOUS
 10
0.050001
 20
1.625146
  0
VERTEX
  8
FOREGROUND
  6
CONTINUOUS
 10
0.050001
 20
1.625146
  0
VERTEX
  8
FOREGROUND
  6
CONTINUOUS
 10
0.050152
 20
1.604559
  0
VERTEX
  8
FOREGROUND
  6
CONTINUOUS
 10
0.050605
 20
1.584107
  0
VERTEX
  8
FOREGROUND
  6
CONTINUOUS
 10
0.051358
 20
1.563791
  0
VERTEX
  8
FOREGROUND
  6
CONTINUOUS
 10
0.052410
 20
1.543610
  0
VERTEX
  8
FOREGROUND
  6
CONTINUOUS
 10
0.053758
 20
1.523565
  0
VERTEX
  8
FOREGROUND
  6
CONTINUOUS
 10
0.055400
 20
1.503655
  0
VERTEX
  8
FOREGROUND
  6
CONTINUOUS
 10
0.057335
 20
1.483880
  0
VERTEX
  8
FOREGROUND
  6
CONTINUOUS
 10
0.059560
 20
1.464241
  0
VERTEX
  8
FOREGROUND
  6
CONTINUOUS
 10
0.062074
 20
1.444737
  0
VERTEX
  8
FOREGROUND
  6
CONTINUOUS
 10
0.064873
 20
1.425369
  0
VERTEX
  8
FOREGROUND
  6
CONTINUOUS
 10
0.067958
 20
1.406136
  0
VERTEX
  8
FOREGROUND
  6
CONTINUOUS
 10
0.071324
 20
1.387038
  0
VERTEX
  8
FOREGROUND
  6
CONTINUOUS
 10
0.074971
 20
1.368076
  0
VERTEX
  8
FOREGROUND
  6
CONTINUOUS
 10
0.078896
 20
1.349249
  0
VERTEX
  8
FOREGROUND
  6
CONTINUOUS
 10
0.083098
 20
1.330558
  0
VERTEX
  8
FOREGROUND
  6
CONTINUOUS
 10
0.087574
 20
1.312002
  0
VERTEX
  8
FOREGROUND
  6
CONTINUOUS
 10
0.092323
 20
1.293582
  0
VERTEX
  8
FOREGROUND
  6
CONTINUOUS
 10
0.097341
 20
1.275297
  0
VERTEX
  8
FOREGROUND
  6
CONTINUOUS
 10
0.102629
 20
1.257147
  0
VERTEX
  8
FOREGROUND
  6
CONTINUOUS
 10
0.108182
 20
1.239133
  0
VERTEX
  8
FOREGROUND
  6
CONTINUOUS
 10
0.114001
 20
1.221254
  0
VERTEX
  8
FOREGROUND
  6
CONTINUOUS
 10
0.120081
 20
1.203511
  0
VERTEX
  8
FOREGROUND
  6
CONTINUOUS
 10
0.126422
 20
1.185903
  0
VERTEX
  8
FOREGROUND
  6
CONTINUOUS
 10
0.133022
 20
1.168430
  0
VERTEX
  8
FOREGROUND
  6
CONTINUOUS
 10
0.139878
 20
1.151093
  0
VERTEX
  8
FOREGROUND
  6
CONTINUOUS
 10
0.146988
 20
1.133892
  0
VERTEX
  8
FOREGROUND
  6
CONTINUOUS
 10
0.154351
 20
1.116825
  0
VERTEX
  8
FOREGROUND
  6
CONTINUOUS
 10
0.161964
 20
1.099895
  0
VERTEX
  8
FOREGROUND
  6
CONTINUOUS
 10
0.169826
 20
1.083099
  0
VERTEX
  8
FOREGROUND
  6
CONTINUOUS
 10
0.177934
 20
1.066439
  0
VERTEX
  8
FOREGROUND
  6
CONTINUOUS
 10
0.186287
 20
1.049914
  0
VERTEX
  8
FOREGROUND
  6
CONTINUOUS
 10
0.194882
 20
1.033525
  0
VERTEX
  8
FOREGROUND
  6
CONTINUOUS
 10
0.203718
 20
1.017271
  0
VERTEX
  8
FOREGROUND
  6
CONTINUOUS
 10
0.212792
 20
1.001153
  0
VERTEX
  8
FOREGROUND
  6
CONTINUOUS
 10
0.222103
 20
0.985170
  0
VERTEX
  8
FOREGROUND
  6
CONTINUOUS
 10
0.231648
 20
0.969323
  0
VERTEX
  8
FOREGROUND
  6
CONTINUOUS
 10
0.241426
 20
0.953611
  0
VERTEX
  8
FOREGROUND
  6
CONTINUOUS
 10
0.251434
 20
0.938034
  0
VERTEX
  8
FOREGROUND
  6
CONTINUOUS
 10
0.261671
 20
0.922593
  0
VERTEX
  8
FOREGROUND
  6
CONTINUOUS
 10
0.272135
 20
0.907287
  0
VERTEX
  8
FOREGROUND
  6
CONTINUOUS
 10
0.282823
 20
0.892116
  0
VERTEX
  8
FOREGROUND
  6
CONTINUOUS
 10
0.293733
 20
0.877081
  0
VERTEX
  8
FOREGROUND
  6
CONTINUOUS
 10
0.304864
 20
0.862182
  0
VERTEX
  8
FOREGROUND
  6
CONTINUOUS
 10
0.316214
 20
0.847418
  0
VERTEX
  8
FOREGROUND
  6
CONTINUOUS
 10
0.327780
 20
0.832789
  0
VERTEX
  8
FOREGROUND
  6
CONTINUOUS
 10
0.339560
 20
0.818296
  0
VERTEX
  8
FOREGROUND
  6
CONTINUOUS
 10
0.351554
 20
0.803938
  0
VERTEX
  8
FOREGROUND
  6
CONTINUOUS
 10
0.363758
 20
0.789715
  0
VERTEX
  8
FOREGROUND
  6
CONTINUOUS
 10
0.376170
 20
0.775628
  0
VERTEX
  8
FOREGROUND
  6
CONTINUOUS
 10
0.388789
 20
0.761677
  0
VERTEX
  8
FOREGROUND
  6
CONTINUOUS
 10
0.401613
 20
0.747861
  0
VERTEX
  8
FOREGROUND
  6
CONTINUOUS
 10
0.414639
 20
0.734180
  0
VERTEX
  8
FOREGROUND
  6
CONTINUOUS
 10
0.427866
 20
0.720634
  0
VERTEX
  8
FOREGROUND
  6
CONTINUOUS
 10
0.441291
 20
0.707225
  0
VERTEX
  8
FOREGROUND
  6
CONTINUOUS
 10
0.454913
 20
0.693950
  0
VERTEX
  8
FOREGROUND
  6
CONTINUOUS
 10
0.468730
 20
0.680811
  0
VERTEX
  8
FOREGROUND
  6
CONTINUOUS
 10
0.482739
 20
0.667807
  0
VERTEX
  8
FOREGROUND
  6
CONTINUOUS
 10
0.496939
 20
0.654939
  0
VERTEX
  8
FOREGROUND
  6
CONTINUOUS
 10
0.511328
 20
0.642206
  0
VERTEX
  8
FOREGROUND
  6
CONTINUOUS
 10
0.525903
 20
0.629609
  0
VERTEX
  8
FOREGROUND
  6
CONTINUOUS
 10
0.540663
 20
0.617147
  0
VERTEX
  8
FOREGROUND
  6
CONTINUOUS
 10
0.555606
 20
0.604820
  0
VERTEX
  8
FOREGROUND
  6
CONTINUOUS
 10
0.570729
 20
0.592629
  0
VERTEX
  8
FOREGROUND
  6
CONTINUOUS
 10
0.586031
 20
0.580574
  0
VERTEX
  8
FOREGROUND
  6
CONTINUOUS
 10
0.601510
 20
0.568653
  0
VERTEX
  8
FOREGROUND
  6
CONTINUOUS
 10
0.617163
 20
0.556868
  0
VERTEX
  8
FOREGROUND
  6
CONTINUOUS
 10
0.632989
 20
0.545219
  0
VERTEX
  8
FOREGROUND
  6
CONTINUOUS
 10
0.648985
 20
0.533705
  0
VERTEX
  8
FOREGROUND
  6
CONTINUOUS
 10
0.665151
 20
0.522327
  0
VERTEX
  8
FOREGROUND
  6
CONTINUOUS
 10
0.681483
 20
0.511083
  0
VERTEX
  8
FOREGROUND
  6
CONTINUOUS
 10
0.697980
 20
0.499976
  0
VERTEX
  8
FOREGROUND
  6
CONTINUOUS
 10
0.714639
 20
0.489003
  0
VERTEX
  8
FOREGROUND
  6
CONTINUOUS
 10
0.731459
 20
0.478167
  0
VERTEX
  8
FOREGROUND
  6
CONTINUOUS
 10
0.748438
 20
0.467465
  0
VERTEX
  8
FOREGROUND
  6
CONTINUOUS
 10
0.765574
 20
0.456899
  0
VERTEX
  8
FOREGROUND
  6
CONTINUOUS
 10
0.782864
 20
0.446469
  0
VERTEX
  8
FOREGROUND
  6
CONTINUOUS
 10
0.800308
 20
0.436173
  0
VERTEX
  8
FOREGROUND
  6
CONTINUOUS
 10
0.817901
 20
0.426014
  0
VERTEX
  8
FOREGROUND
  6
CONTINUOUS
 10
0.835644
 20
0.415989
  0
VERTEX
  8
FOREGROUND
  6
CONTINUOUS
 10
0.853534
 20
0.406100
  0
VERTEX
  8
FOREGROUND
  6
CONTINUOUS
 10
0.871568
 20
0.396347
  0
VERTEX
  8
FOREGROUND
  6
CONTINUOUS
 10
0.889745
 20
0.386729
  0
VERTEX
  8
FOREGROUND
  6
CONTINUOUS
 10
0.908062
 20
0.377246
  0
VERTEX
  8
FOREGROUND
  6
CONTINUOUS
 10
0.926519
 20
0.367899
  0
VERTEX
  8
FOREGROUND
  6
CONTINUOUS
 10
0.945112
 20
0.358688
  0
VERTEX
  8
FOREGROUND
  6
CONTINUOUS
 10
0.963840
 20
0.349611
  0
VERTEX
  8
FOREGROUND
  6
CONTINUOUS
 10
0.982701
 20
0.340670
  0
VERTEX
  8
FOREGROUND
  6
CONTINUOUS
 10
1.001693
 20
0.331865
  0
VERTEX
  8
FOREGROUND
  6
CONTINUOUS
 10
1.020814
 20
0.323195
  0
VERTEX
  8
FOREGROUND
  6
CONTINUOUS
 10
1.040061
 20
0.314660
  0
VERTEX
  8
FOREGROUND
  6
CONTINUOUS
 10
1.059433
 20
0.306261
  0
VERTEX
  8
FOREGROUND
  6
CONTINUOUS
 10
1.078928
 20
0.297997
  0
VERTEX
  8
FOREGROUND
  6
CONTINUOUS
 10
1.098544
 20
0.289869
  0
VERTEX
  8
FOREGROUND
  6
CONTINUOUS
 10
1.118279
 20
0.281876
  0
VERTEX
  8
FOREGROUND
  6
CONTINUOUS
 10
1.138130
 20
0.274019
  0
VERTEX
  8
FOREGROUND
  6
CONTINUOUS
 10
1.158097
 20
0.266297
  0
VERTEX
  8
FOREGROUND
  6
CONTINUOUS
 10
1.178176
 20
0.258710
  0
VERTEX
  8
FOREGROUND
  6
CONTINUOUS
 10
1.198366
 20
0.251259
  0
VERTEX
  8
FOREGROUND
  6
CONTINUOUS
 10
1.218665
 20
0.243943
  0
VERTEX
  8
FOREGROUND
  6
CONTINUOUS
 10
1.239071
 20
0.236763
  0
VERTEX
  8
FOREGROUND
  6
CONTINUOUS
 10
1.259582
 20
0.229718
  0
VERTEX
  8
FOREGROUND
  6
CONTINUOUS
 10
1.280195
 20
0.222809
  0
VERTEX
  8
FOREGROUND
  6
CONTINUOUS
 10
1.300910
 20
0.216035
  0
VERTEX
  8
FOREGROUND
  6
CONTINUOUS
 10
1.321723
 20
0.209396
  0
VERTEX
  8
FOREGROUND
  6
CONTINUOUS
 10
1.342633
 20
0.202893
  0
VERTEX
  8
FOREGROUND
  6
CONTINUOUS
 10
1.363639
 20
0.196526
  0
VERTEX
  8
FOREGROUND
  6
CONTINUOUS
 10
1.384737
 20
0.190293
  0
VERTEX
  8
FOREGROUND
  6
CONTINUOUS
 10
1.405926
 20
0.184197
  0
VERTEX
  8
FOREGROUND
  6
CONTINUOUS
 10
1.427204
 20
0.178235
  0
VERTEX
  8
FOREGROUND
  6
CONTINUOUS
 10
1.448569
 20
0.172409
  0
VERTEX
  8
FOREGROUND
  6
CONTINUOUS
 10
1.470019
 20
0.166719
  0
VERTEX
  8
FOREGROUND
  6
CONTINUOUS
 10
1.491552
 20
0.161164
  0
VERTEX
  8
FOREGROUND
  6
CONTINUOUS
 10
1.513165
 20
0.155744
  0
VERTEX
  8
FOREGROUND
  6
CONTINUOUS
 10
1.534858
 20
0.150460
  0
VERTEX
  8
FOREGROUND
  6
CONTINUOUS
 10
1.556628
 20
0.145311
  0
VERTEX
  8
FOREGROUND
  6
CONTINUOUS
 10
1.578472
 20
0.140298
  0
VERTEX
  8
FOREGROUND
  6
CONTINUOUS
 10
1.600390
 20
0.135420
  0
VERTEX
  8
FOREGROUND
  6
CONTINUOUS
 10
1.622378
 20
0.130677
  0
VERTEX
  8
FOREGROUND
  6
CONTINUOUS
 10
1.644436
 20
0.126070
  0
VERTEX
  8
FOREGROUND
  6
CONTINUOUS
 10
1.666561
 20
0.121599
  0
VERTEX
  8
FOREGROUND
  6
CONTINUOUS
 10
1.688750
 20
0.117262
  0
VERTEX
  8
FOREGROUND
  6
CONTINUOUS
 10
1.711003
 20
0.113062
  0
VERTEX
  8
FOREGROUND
  6
CONTINUOUS
 10
1.733316
 20
0.108996
  0
VERTEX
  8
FOREGROUND
  6
CONTINUOUS
 10
1.755689
 20
0.105066
  0
VERTEX
  8
FOREGROUND
  6
CONTINUOUS
 10
1.778118
 20
0.101272
  0
VERTEX
  8
FOREGROUND
  6
CONTINUOUS
 10
1.800603
 20
0.097613
  0
VERTEX
  8
FOREGROUND
  6
CONTINUOUS
 10
1.823141
 20
0.094089
  0
VERTEX
  8
FOREGROUND
  6
CONTINUOUS
 10
1.845729
 20
0.090701
  0
VERTEX
  8
FOREGROUND
  6
CONTINUOUS
 10
1.868367
 20
0.087449
  0
VERTEX
  8
FOREGROUND
  6
CONTINUOUS
 10
1.891052
 20
0.084331
  0
VERTEX
  8
FOREGROUND
  6
CONTINUOUS
 10
1.913782
 20
0.081350
  0
VERTEX
  8
FOREGROUND
  6
CONTINUOUS
 10
1.936554
 20
0.078503
  0
VERTEX
  8
FOREGROUND
  6
CONTINUOUS
 10
1.959368
 20
0.075792
  0
VERTEX
  8
FOREGROUND
  6
CONTINUOUS
 10
1.982221
 20
0.073217
  0
VERTEX
  8
FOREGROUND
  6
CONTINUOUS
 10
2.005111
 20
0.070777
  0
VERTEX
  8
FOREGROUND
  6
CONTINUOUS
 10
2.028037
 20
0.068472
  0
VERTEX
  8
FOREGROUND
  6
CONTINUOUS
 10
2.050995
 20
0.066303
  0
VERTEX
  8
FOREGROUND
  6
CONTINUOUS
 10
2.073984
 20
0.064269
  0
VERTEX
  8
FOREGROUND
  6
CONTINUOUS
 10
2.097003
 20
0.062371
  0
VERTEX
  8
FOREGROUND
  6
CONTINUOUS
 10
2.120048
 20
0.060608
  0
VERTEX
  8
FOREGROUND
  6
CONTINUOUS
 10
2.143119
 20
0.058981
  0
VERTEX
  8
FOREGROUND
  6
CONTINUOUS
 10
2.166212
 20
0.057489
  0
VERTEX
  8
FOREGROUND
  6
CONTINUOUS
 10
2.189327
 20
0.056132
  0
VERTEX
  8
FOREGROUND
  6
CONTINUOUS
 10
2.212461
 20
0.054911
  0
VERTEX
  8
FOREGROUND
  6
CONTINUOUS
 10
2.235612
 20
0.053825
  0
VERTEX
  8
FOREGROUND
  6
CONTINUOUS
 10
2.258779
 20
0.052875
  0
VERTEX
  8
FOREGROUND
  6
CONTINUOUS
 10
2.281958
 20
0.052060
  0
VERTEX
  8
FOREGROUND
  6
CONTINUOUS
 10
2.305149
 20
0.051381
  0
VERTEX
  8
FOREGROUND
  6
CONTINUOUS
 10
2.328348
 20
0.050837
  0
VERTEX
  8
FOREGROUND
  6
CONTINUOUS
 10
2.351555
 20
0.050428
  0
VERTEX
  8
FOREGROUND
  6
CONTINUOUS
 10
2.374767
 20
0.050155
  0
VERTEX
  8
FOREGROUND
  6
CONTINUOUS
 10
2.397982
 20
0.050018
  0
VERTEX
  8
FOREGROUND
  6
CONTINUOUS
 10
2.421199
 20
0.050016
  0
VERTEX
  8
FOREGROUND
  6
CONTINUOUS
 10
2.444414
 20
0.050149
  0
VERTEX
  8
FOREGROUND
  6
CONTINUOUS
 10
2.467627
 20
0.050418
  0
VERTEX
  8
FOREGROUND
  6
CONTINUOUS
 10
2.490835
 20
0.050822
  0
VERTEX
  8
FOREGROUND
  6
CONTINUOUS
 10
2.514036
 20
0.051361
  0
VERTEX
  8
FOREGROUND
  6
CONTINUOUS
 10
2.537228
 20
0.052037
  0
VERTEX
  8
FOREGROUND
  6
CONTINUOUS
 10
2.560410
 20
0.052847
  0
VERTEX
  8
FOREGROUND
  6
CONTINUOUS
 10
2.583579
 20
0.053793
  0
VERTEX
  8
FOREGROUND
  6
CONTINUOUS
 10
2.606733
 20
0.054874
  0
VERTEX
  8
FOREGROUND
  6
CONTINUOUS
 10
2.629870
 20
0.056091
  0
VERTEX
  8
FOREGROUND
  6
CONTINUOUS
 10
2.652988
 20
0.057443
  0
VERTEX
  8
FOREGROUND
  6
CONTINUOUS
 10
2.676086
 20
0.058931
  0
VERTEX
  8
FOREGROUND
  6
CONTINUOUS
 10
2.699161
 20
0.060554
  0
VERTEX
  8
FOREGROUND
  6
CONTINUOUS
 10
2.722211
 20
0.062313
  0
VERTEX
  8
FOREGROUND
  6
CONTINUOUS
 10
2.745234
 20
0.064207
  0
VERTEX
  8
FOREGROUND
  6
CONTINUOUS
 10
2.768229
 20
0.066236
  0
VERTEX
  8
FOREGROUND
  6
CONTINUOUS
 10
2.791193
 20
0.068401
  0
VERTEX
  8
FOREGROUND
  6
CONTINUOUS
 10
2.814124
 20
0.070702
  0
VERTEX
  8
FOREGROUND
  6
CONTINUOUS
 10
2.837021
 20
0.073138
  0
VERTEX
  8
FOREGROUND
  6
CONTINUOUS
 10
2.859880
 20
0.075709
  0
VERTEX
  8
FOREGROUND
  6
CONTINUOUS
 10
2.882702
 20
0.078416
  0
VERTEX
  8
FOREGROUND
  6
CONTINUOUS
 10
2.905482
 20
0.081258
  0
VERTEX
  8
FOREGROUND
  6
CONTINUOUS
 10
2.928220
 20
0.084235
  0
VERTEX
  8
FOREGROUND
  6
CONTINUOUS
 10
2.950913
 20
0.087348
  0
VERTEX
  8
FOREGROUND
  6
CONTINUOUS
 10
2.973559
 20
0.090597
  0
VERTEX
  8
FOREGROUND
  6
CONTINUOUS
 10
2.996156
 20
0.093981
  0
VERTEX
  8
FOREGROUND
  6
CONTINUOUS
 10
3.018703
 20
0.097500
  0
VERTEX
  8
FOREGROUND
  6
CONTINUOUS
 10
3.041198
 20
0.101155
  0
VERTEX
  8
FOREGROUND
  6
CONTINUOUS
 10
3.063637
 20
0.104945
  0
VERTEX
  8
FOREGROUND
  6
CONTINUOUS
 10
3.086020
 20
0.108871
  0
VERTEX
  8
FOREGROUND
  6
CONTINUOUS
 10
3.108344
 20
0.112932
  0
VERTEX
  8
FOREGROUND
  6
CONTINUOUS
 10
3.130608
 20
0.117129
  0
VERTEX
  8
FOREGROUND
  6
CONTINUOUS
 10
3.152809
 20
0.121461
  0
VERTEX
  8
FOREGROUND
  6
CONTINUOUS
 10
3.174945
 20
0.125928
  0
VERTEX
  8
FOREGROUND
  6
CONTINUOUS
 10
3.197015
 20
0.130531
  0
VERTEX
  8
FOREGROUND
  6
CONTINUOUS
 10
3.219016
 20
0.135270
  0
VERTEX
  8
FOREGROUND
  6
CONTINUOUS
 10
3.240947
 20
0.140144
  0
VERTEX
  8
FOREGROUND
  6
CONTINUOUS
 10
3.262804
 20
0.145153
  0
VERTEX
  8
FOREGROUND
  6
CONTINUOUS
 10
3.284588
 20
0.150298
  0
VERTEX
  8
FOREGROUND
  6
CONTINUOUS
 10
3.306294
 20
0.155578
  0
VERTEX
  8
FOREGROUND
  6
CONTINUOUS
 10
3.327922
 20
0.160993
  0
VERTEX
  8
FOREGROUND
  6
CONTINUOUS
 10
3.349470
 20
0.166545
  0
VERTEX
  8
FOREGROUND
  6
CONTINUOUS
 10
3.370935
 20
0.172231
  0
VERTEX
  8
FOREGROUND
  6
CONTINUOUS
 10
3.392315
 20
0.178053
  0
VERTEX
  8
FOREGROUND
  6
CONTINUOUS
 10
3.413609
 20
0.184010
  0
VERTEX
  8
FOREGROUND
  6
CONTINUOUS
 10
3.434814
 20
0.190103
  0
VERTEX
  8
FOREGROUND
  6
CONTINUOUS
 10
3.455928
 20
0.196332
  0
VERTEX
  8
FOREGROUND
  6
CONTINUOUS
 10
3.476950
 20
0.202695
  0
VERTEX
  8
FOREGROUND
  6
CONTINUOUS
 10
3.497878
 20
0.209195
  0
VERTEX
  8
FOREGROUND
  6
CONTINUOUS
 10
3.518709
 20
0.215829
  0
VERTEX
  8
FOREGROUND
  6
CONTINUOUS
 10
3.539441
 20
0.222600
  0
VERTEX
  8
FOREGROUND
  6
CONTINUOUS
 10
3.560073
 20
0.229505
  0
VERTEX
  8
FOREGROUND
  6
CONTINUOUS
 10
3.580602
 20
0.236546
  0
VERTEX
  8
FOREGROUND
  6
CONTINUOUS
 10
3.601027
 20
0.243723
  0
VERTEX
  8
FOREGROUND
  6
CONTINUOUS
 10
3.621345
 20
0.251035
  0
VERTEX
  8
FOREGROUND
  6
CONTINUOUS
 10
3.641555
 20
0.258482
  0
VERTEX
  8
FOREGROUND
  6
CONTINUOUS
 10
3.661654
 20
0.266065
  0
VERTEX
  8
FOREGROUND
  6
CONTINUOUS
 10
3.681641
 20
0.273783
  0
VERTEX
  8
FOREGROUND
  6
CONTINUOUS
 10
3.701513
 20
0.281637
  0
VERTEX
  8
FOREGROUND
  6
CONTINUOUS
 10
3.721269
 20
0.289626
  0
VERTEX
  8
FOREGROUND
  6
CONTINUOUS
 10
3.740906
 20
0.297751
  0
VERTEX
  8
FOREGROUND
  6
CONTINUOUS
 10
3.760423
 20
0.306011
  0
VERTEX
  8
FOREGROUND
  6
CONTINUOUS
 10
3.779817
 20
0.314406
  0
VERTEX
  8
FOREGROUND
  6
CONTINUOUS
 10
3.799087
 20
0.322937
  0
VERTEX
  8
FOREGROUND
  6
CONTINUOUS
 10
3.818231
 20
0.331604
  0
VERTEX
  8
FOREGROUND
  6
CONTINUOUS
 10
3.837246
 20
0.340406
  0
VERTEX
  8
FOREGROUND
  6
CONTINUOUS
 10
3.856130
 20
0.349343
  0
VERTEX
  8
FOREGROUND
  6
CONTINUOUS
 10
3.874882
 20
0.358416
  0
VERTEX
  8
FOREGROUND
  6
CONTINUOUS
 10
3.893500
 20
0.367624
  0
VERTEX
  8
FOREGROUND
  6
CONTINUOUS
 10
3.911981
 20
0.376968
  0
VERTEX
  8
FOREGROUND
  6
CONTINUOUS
 10
3.930324
 20
0.386447
  0
VERTEX
  8
FOREGROUND
  6
CONTINUOUS
 10
3.948526
 20
0.396062
  0
VERTEX
  8
FOREGROUND
  6
CONTINUOUS
 10
3.966586
 20
0.405812
  0
VERTEX
  8
FOREGROUND
  6
CONTINUOUS
 10
3.984501
 20
0.415697
  0
VERTEX
  8
FOREGROUND
  6
CONTINUOUS
 10
4.002270
 20
0.425718
  0
VERTEX
  8
FOREGROUND
  6
CONTINUOUS
 10
4.019891
 20
0.435875
  0
VERTEX
  8
FOREGROUND
  6
CONTINUOUS
 10
4.037361
 20
0.446167
  0
VERTEX
  8
FOREGROUND
  6
CONTINUOUS
 10
4.054679
 20
0.456594
  0
VERTEX
  8
FOREGROUND
  6
CONTINUOUS
 10
4.071843
 20
0.467157
  0
VERTEX
  8
FOREGROUND
  6
CONTINUOUS
 10
4.088850
 20
0.477855
  0
VERTEX
  8
FOREGROUND
  6
CONTINUOUS
 10
4.105699
 20
0.488689
  0
VERTEX
  8
FOREGROUND
  6
CONTINUOUS
 10
4.122387
 20
0.499658
  0
VERTEX
  8
FOREGROUND
  6
CONTINUOUS
 10
4.138913
 20
0.510763
  0
VERTEX
  8
FOREGROUND
  6
CONTINUOUS
 10
4.155275
 20
0.522003
  0
VERTEX
  8
FOREGROUND
  6
CONTINUOUS
 10
4.171470
 20
0.533379
  0
VERTEX
  8
FOREGROUND
  6
CONTINUOUS
 10
4.187497
 20
0.544890
  0
VERTEX
  8
FOREGROUND
  6
CONTINUOUS
 10
4.203354
 20
0.556536
  0
VERTEX
  8
FOREGROUND
  6
CONTINUOUS
 10
4.219038
 20
0.568318
  0
VERTEX
  8
FOREGROUND
  6
CONTINUOUS
 10
4.234548
 20
0.580235
  0
VERTEX
  8
FOREGROUND
  6
CONTINUOUS
 10
4.249882
 20
0.592288
  0
VERTEX
  8
FOREGROUND
  6
CONTINUOUS
 10
4.265038
 20
0.604477
  0
VERTEX
  8
FOREGROUND
  6
CONTINUOUS
 10
4.280013
 20
0.616800
  0
VERTEX
  8
FOREGROUND
  6
CONTINUOUS
 10
4.294805
 20
0.629260
  0
VERTEX
  8
FOREGROUND
  6
CONTINUOUS
 10
4.309414
 20
0.641854
  0
VERTEX
  8
FOREGROUND
  6
CONTINUOUS
 10
4.323836
 20
0.654584
  0
VERTEX
  8
FOREGROUND
  6
CONTINUOUS
 10
4.338070
 20
0.667450
  0
VERTEX
  8
FOREGROUND
  6
CONTINUOUS
 10
4.352114
 20
0.680451
  0
VERTEX
  8
FOREGROUND
  6
CONTINUOUS
 10
4.365965
 20
0.693588
  0
VERTEX
  8
FOREGROUND
  6
CONTINUOUS
 10
4.379622
 20
0.706859
  0
VERTEX
  8
FOREGROUND
  6
CONTINUOUS
 10
4.393083
 20
0.720267
  0
VERTEX
  8
FOREGROUND
  6
CONTINUOUS
 10
4.406345
 20
0.733810
  0
VERTEX
  8
FOREGROUND
  6
CONTINUOUS
 10
4.419408
 20
0.747488
  0
VERTEX
  8
FOREGROUND
  6
CONTINUOUS
 10
4.432268
 20
0.761302
  0
VERTEX
  8
FOREGROUND
  6
CONTINUOUS
 10
4.444923
 20
0.775251
  0
VERTEX
  8
FOREGROUND
  6
CONTINUOUS
 10
4.457373
 20
0.789336
  0
VERTEX
  8
FOREGROUND
  6
CONTINUOUS
 10
4.469614
 20
0.803556
  0
VERTEX
  8
FOREGROUND
  6
CONTINUOUS
 10
4.481646
 20
0.817912
  0
VERTEX
  8
FOREGROUND
  6
CONTINUOUS
 10
4.493464
 20
0.832403
  0
VERTEX
  8
FOREGROUND
  6
CONTINUOUS
 10
4.505069
 20
0.847030
  0
VERTEX
  8
FOREGROUND
  6
CONTINUOUS
 10
4.516458
 20
0.861792
  0
VERTEX
  8
FOREGROUND
  6
CONTINUOUS
 10
4.527628
 20
0.876689
  0
VERTEX
  8
FOREGROUND
  6
CONTINUOUS
 10
4.538578
 20
0.891722
  0
VERTEX
  8
FOREGROUND
  6
CONTINUOUS
 10
4.549306
 20
0.906890
  0
VERTEX
  8
FOREGROUND
  6
CONTINUOUS
 10
4.559810
 20
0.922194
  0
VERTEX
  8
FOREGROUND
  6
CONTINUOUS
 10
4.570087
 20
0.937634
  0
VERTEX
  8
FOREGROUND
  6
CONTINUOUS
 10
4.580137
 20
0.953208
  0
VERTEX
  8
FOREGROUND
  6
CONTINUOUS
 10
4.589956
 20
0.968919
  0
VERTEX
  8
FOREGROUND
  6
CONTINUOUS
 10
4.599543
 20
0.984764
  0
VERTEX
  8
FOREGROUND
  6
CONTINUOUS
 10
4.608896
 20
1.000746
  0
VERTEX
  8
FOREGROUND
  6
CONTINUOUS
 10
4.618012
 20
1.016862
  0
VERTEX
  8
FOREGROUND
  6
CONTINUOUS
 10
4.626891
 20
1.033114
  0
VERTEX
  8
FOREGROUND
  6
CONTINUOUS
 10
4.635529
 20
1.049502
  0
VERTEX
  8
FOREGROUND
  6
CONTINUOUS
 10
4.643926
 20
1.066025
  0
VERTEX
  8
FOREGROUND
  6
CONTINUOUS
 10
4.652078
 20
1.082684
  0
VERTEX
  8
FOREGROUND
  6
CONTINUOUS
 10
4.659984
 20
1.099478
  0
VERTEX
  8
FOREGROUND
  6
CONTINUOUS
 10
4.667642
 20
1.116407
  0
VERTEX
  8
FOREGROUND
  6
CONTINUOUS
 10
4.675050
 20
1.133472
  0
VERTEX
  8
FOREGROUND
  6
CONTINUOUS
 10
4.682206
 20
1.150672
  0
VERTEX
  8
FOREGROUND
  6
CONTINUOUS
 10
4.689107
 20
1.168008
  0
VERTEX
  8
FOREGROUND
  6
CONTINUOUS
 10
4.695753
 20
1.185479
  0
VERTEX
  8
FOREGROUND
  6
CONTINUOUS
 10
4.702140
 20
1.203086
  0
VERTEX
  8
FOREGROUND
  6
CONTINUOUS
 10
4.708268
 20
1.220828
  0
VERTEX
  8
FOREGROUND
  6
CONTINUOUS
 10
4.714133
 20
1.238706
  0
VERTEX
  8
FOREGROUND
  6
CONTINUOUS
 10
4.719734
 20
1.256719
  0
VERTEX
  8
FOREGROUND
  6
CONTINUOUS
 10
4.725069
 20
1.274868
  0
VERTEX
  8
FOREGROUND
  6
CONTINUOUS
 10
4.730136
 20
1.293152
  0
VERTEX
  8
FOREGROUND
  6
CONTINUOUS
 10
4.734934
 20
1.311572
  0
VERTEX
  8
FOREGROUND
  6
CONTINUOUS
 10
4.739459
 20
1.330127
  0
VERTEX
  8
FOREGROUND
  6
CONTINUOUS
 10
4.743710
 20
1.348817
  0
VERTEX
  8
FOREGROUND
  6
CONTINUOUS
 10
4.747684
 20
1.367643
  0
VERTEX
  8
FOREGROUND
  6
CONTINUOUS
 10
4.751381
 20
1.386605
  0
VERTEX
  8
FOREGROUND
  6
CONTINUOUS
 10
4.754798
 20
1.405701
  0
VERTEX
  8
FOREGROUND
  6
CONTINUOUS
 10
4.757933
 20
1.424934
  0
VERTEX
  8
FOREGROUND
  6
CONTINUOUS
 10
4.760784
 20
1.444302
  0
VERTEX
  8
FOREGROUND
  6
CONTINUOUS
 10
4.763349
 20
1.463805
  0
VERTEX
  8
FOREGROUND
  6
CONTINUOUS
 10
4.765626
 20
1.483444
  0
VERTEX
  8
FOREGROUND
  6
CONTINUOUS
 10
4.767612
 20
1.503218
  0
VERTEX
  8
FOREGROUND
  6
CONTINUOUS
 10
4.769307
 20
1.523128
  0
VERTEX
  8
FOREGROUND
  6
CONTINUOUS
 10
4.770708
 20
1.543173
  0
VERTEX
  8
FOREGROUND
  6
CONTINUOUS
 10
4.771813
 20
1.563353
  0
VERTEX
  8
FOREGROUND
  6
CONTINUOUS
 10
4.772620
 20
1.583670
  0
VERTEX
  8
FOREGROUND
  6
CONTINUOUS
 10
4.773127
 20
1.604121
  0
VERTEX
  8
FOREGROUND
  6
CONTINUOUS
 10
4.773332
 20
1.624708
  0
SEQEND
  8
0
  0
ENDSEC
  0
EOF
