  0
SECTION
  2
HEADER
  9
$ACADVER
  1
AC1006
  9
$EXTMIN
 10
0.000000
 20
0.000000
  9
$EXTMAX
 10
5.611667
 20
4.035000
  9
$LTSCALE
 40
0.166667
  9
$PDMODE
 70
    35
  9
$PDSIZE
 40
0.133333
  0
ENDSEC
  0
SECTION
  2
TABLES
  0
TABLE
  2
LTYPE
 70
     9
  0
LTYPE
  2
CONTINUOUS
 70
    64
  3
Solid line
 72
    65
 73
     0
 40
0.000000
  0
LTYPE
  2
DASHED
 70
    64
  3
__ __ __ __ __ __ __ __ __ __ __ __ __ __ __
 72
    65
 73
     2
 40
0.001250
 49
0.000833
 49
-0.000417
  0
LTYPE
  2
HIDDEN
 70
    64
  3
 _ _ _ _ _ _ _ _ _ _ _ _ _ _ _ _ _ _ _ _ _ _
 72
    65
 73
     2
 40
0.000625
 49
0.000417
 49
-0.000208
  0
LTYPE
  2
CENTER
 70
    64
  3
____ _ ____ _ ____ _ ____ _ ____ _ ____ _ ____
 72
    65
 73
     4
 40
0.003333
 49
0.002083
 49
-0.000417
 49
0.000417
 49
-0.000417
  0
LTYPE
  2
PHANTOM
 70
    64
  3
_____ _ _ _____ _ _ _____ _ _ _____ _ _ ____
 72
    65
 73
     6
 40
0.004167
 49
0.002083
 49
-0.000417
 49
0.000417
 49
-0.000417
 49
0.000417
 49
-0.000417
  0
LTYPE
  2
DOT
 70
    64
  3
...............................................
 72
    65
 73
     2
 40
0.000417
 49
0.000000
 49
-0.000417
  0
LTYPE
  2
DASHDOT
 70
    64
  3
__ . __ . __ . __ . __ . __ . __ . __ . __ . __
 72
    65
 73
     4
 40
0.001667
 49
0.000833
 49
-0.000417
 49
0.000000
 49
-0.000417
  0
LTYPE
  2
BORDER
 70
    64
  3
__ __ . __ __ . __ __ . __ __ . __ __ . __ __
 72
    65
 73
     6
 40
0.002917
 49
0.000833
 49
-0.000417
 49
0.000833
 49
-0.000417
 49
0.000000
 49
-0.000417
  0
LTYPE
  2
DIVIDE
 70
    64
  3
__ . . __ . . __ . . __ . . __ . . __ . . __
 72
    65
 73
     6
 40
0.002083
 49
0.000833
 49
-0.000417
 49
0.000000
 49
-0.000417
 49
0.000000
 49
-0.000417
  0
LTYPE
  2
DOTDOT
 70
    64
  3
 . .  . .  . .  . .  . .  . . 
 72
    65
 73
     5
 40
0.000917
 49
-0.000417
 49
0.000000
 49
-0.000417
 49
0.000000
 49
-0.000417
  0
ENDTAB
  0
TABLE
  2
STYLE
 70
     2
  0
STYLE
 70
     0
  2
SN0
 40
0.000000
 41
0.001667
 50
0.000000
 71
     0
 42
0.000000
  3
ROMAND
  0
STYLE
 70
    68
  2
SV0
 40
0.000000
 41
0.001667
 50
0.000000
 71
     0
 42
0.000000
  3
ROMAND
  0
ENDTAB
  0
TABLE
  2
LAYER
 70
     2
  0
LAYER
  2
FOREGROUND
 70
    64
 62
     7
  6
CONTINUOUS
  0
LAYER
  2
BACKGROUND
 70
    65
 62
    -7
  6
CONTINUOUS
  0
ENDTAB
  0
ENDSEC
  0
SECTION
  2
ENTITIES
  0
POLYLINE
  8
FOREGROUND
  6
CONTINUOUS
 66
     1
 40
0.010000
 41
0.010000
 70
     1
  0
VERTEX
  8
FOREGROUND
  6
CONTINUOUS
 10
5.559999
 20
2.018333
  0
VERTEX
  8
FOREGROUND
  6
CONTINUOUS
 10
5.559821
 20
2.043627
  0
VERTEX
  8
FOREGROUND
  6
CONTINUOUS
 10
5.559302
 20
2.068756
  0
VERTEX
  8
FOREGROUND
  6
CONTINUOUS
 10
5.558443
 20
2.093722
  0
VERTEX
  8
FOREGROUND
  6
CONTINUOUS
 10
5.557247
 20
2.118524
  0
VERTEX
  8
FOREGROUND
  6
CONTINUOUS
 10
5.555717
 20
2.143163
  0
VERTEX
  8
FOREGROUND
  6
CONTINUOUS
 10
5.553855
 20
2.167638
  0
VERTEX
  8
FOREGROUND
  6
CONTINUOUS
 10
5.551662
 20
2.191949
  0
VERTEX
  8
FOREGROUND
  6
CONTINUOUS
 10
5.549140
 20
2.216096
  0
VERTEX
  8
FOREGROUND
  6
CONTINUOUS
 10
5.546293
 20
2.240080
  0
VERTEX
  8
FOREGROUND
  6
CONTINUOUS
 10
5.543123
 20
2.263900
  0
VERTEX
  8
FOREGROUND
  6
CONTINUOUS
 10
5.539631
 20
2.287556
  0
VERTEX
  8
FOREGROUND
  6
CONTINUOUS
 10
5.535820
 20
2.311049
  0
VERTEX
  8
FOREGROUND
  6
CONTINUOUS
 10
5.531691
 20
2.334378
  0
VERTEX
  8
FOREGROUND
  6
CONTINUOUS
 10
5.527248
 20
2.357543
  0
VERTEX
  8
FOREGROUND
  6
CONTINUOUS
 10
5.522493
 20
2.380545
  0
VERTEX
  8
FOREGROUND
  6
CONTINUOUS
 10
5.517427
 20
2.403382
  0
VERTEX
  8
FOREGROUND
  6
CONTINUOUS
 10
5.512053
 20
2.426057
  0
VERTEX
  8
FOREGROUND
  6
CONTINUOUS
 10
5.506373
 20
2.448567
  0
VERTEX
  8
FOREGROUND
  6
CONTINUOUS
 10
5.500389
 20
2.470914
  0
VERTEX
  8
FOREGROUND
  6
CONTINUOUS
 10
5.494104
 20
2.493097
  0
VERTEX
  8
FOREGROUND
  6
CONTINUOUS
 10
5.487519
 20
2.515116
  0
VERTEX
  8
FOREGROUND
  6
CONTINUOUS
 10
5.480638
 20
2.536972
  0
VERTEX
  8
FOREGROUND
  6
CONTINUOUS
 10
5.473461
 20
2.558664
  0
VERTEX
  8
FOREGROUND
  6
CONTINUOUS
 10
5.465992
 20
2.580192
  0
VERTEX
  8
FOREGROUND
  6
CONTINUOUS
 10
5.458233
 20
2.601556
  0
VERTEX
  8
FOREGROUND
  6
CONTINUOUS
 10
5.450185
 20
2.622757
  0
VERTEX
  8
FOREGROUND
  6
CONTINUOUS
 10
5.441852
 20
2.643794
  0
VERTEX
  8
FOREGROUND
  6
CONTINUOUS
 10
5.433235
 20
2.664668
  0
VERTEX
  8
FOREGROUND
  6
CONTINUOUS
 10
5.424336
 20
2.685377
  0
VERTEX
  8
FOREGROUND
  6
CONTINUOUS
 10
5.415157
 20
2.705923
  0
VERTEX
  8
FOREGROUND
  6
CONTINUOUS
 10
5.405702
 20
2.726306
  0
VERTEX
  8
FOREGROUND
  6
CONTINUOUS
 10
5.395972
 20
2.746524
  0
VERTEX
  8
FOREGROUND
  6
CONTINUOUS
 10
5.385969
 20
2.766579
  0
VERTEX
  8
FOREGROUND
  6
CONTINUOUS
 10
5.375696
 20
2.786470
  0
VERTEX
  8
FOREGROUND
  6
CONTINUOUS
 10
5.365154
 20
2.806198
  0
VERTEX
  8
FOREGROUND
  6
CONTINUOUS
 10
5.354346
 20
2.825762
  0
VERTEX
  8
FOREGROUND
  6
CONTINUOUS
 10
5.343275
 20
2.845162
  0
VERTEX
  8
FOREGROUND
  6
CONTINUOUS
 10
5.331942
 20
2.864398
  0
VERTEX
  8
FOREGROUND
  6
CONTINUOUS
 10
5.320349
 20
2.883471
  0
VERTEX
  8
FOREGROUND
  6
CONTINUOUS
 10
5.308499
 20
2.902380
  0
VERTEX
  8
FOREGROUND
  6
CONTINUOUS
 10
5.296395
 20
2.921125
  0
VERTEX
  8
FOREGROUND
  6
CONTINUOUS
 10
5.284037
 20
2.939707
  0
VERTEX
  8
FOREGROUND
  6
CONTINUOUS
 10
5.271430
 20
2.958125
  0
VERTEX
  8
FOREGROUND
  6
CONTINUOUS
 10
5.258573
 20
2.976379
  0
VERTEX
  8
FOREGROUND
  6
CONTINUOUS
 10
5.245471
 20
2.994469
  0
VERTEX
  8
FOREGROUND
  6
CONTINUOUS
 10
5.232125
 20
3.012396
  0
VERTEX
  8
FOREGROUND
  6
CONTINUOUS
 10
5.218537
 20
3.030159
  0
VERTEX
  8
FOREGROUND
  6
CONTINUOUS
 10
5.204710
 20
3.047758
  0
VERTEX
  8
FOREGROUND
  6
CONTINUOUS
 10
5.190645
 20
3.065194
  0
VERTEX
  8
FOREGROUND
  6
CONTINUOUS
 10
5.176346
 20
3.082466
  0
VERTEX
  8
FOREGROUND
  6
CONTINUOUS
 10
5.161813
 20
3.099574
  0
VERTEX
  8
FOREGROUND
  6
CONTINUOUS
 10
5.147050
 20
3.116519
  0
VERTEX
  8
FOREGROUND
  6
CONTINUOUS
 10
5.132059
 20
3.133300
  0
VERTEX
  8
FOREGROUND
  6
CONTINUOUS
 10
5.116842
 20
3.149917
  0
VERTEX
  8
FOREGROUND
  6
CONTINUOUS
 10
5.101400
 20
3.166370
  0
VERTEX
  8
FOREGROUND
  6
CONTINUOUS
 10
5.085737
 20
3.182660
  0
VERTEX
  8
FOREGROUND
  6
CONTINUOUS
 10
5.069854
 20
3.198786
  0
VERTEX
  8
FOREGROUND
  6
CONTINUOUS
 10
5.053755
 20
3.214748
  0
VERTEX
  8
FOREGROUND
  6
CONTINUOUS
 10
5.037440
 20
3.230547
  0
VERTEX
  8
FOREGROUND
  6
CONTINUOUS
 10
5.020912
 20
3.246182
  0
VERTEX
  8
FOREGROUND
  6
CONTINUOUS
 10
5.004173
 20
3.261653
  0
VERTEX
  8
FOREGROUND
  6
CONTINUOUS
 10
4.987226
 20
3.276961
  0
VERTEX
  8
FOREGROUND
  6
CONTINUOUS
 10
4.970073
 20
3.292105
  0
VERTEX
  8
FOREGROUND
  6
CONTINUOUS
 10
4.952716
 20
3.307085
  0
VERTEX
  8
FOREGROUND
  6
CONTINUOUS
 10
4.935157
 20
3.321901
  0
VERTEX
  8
FOREGROUND
  6
CONTINUOUS
 10
4.917399
 20
3.336554
  0
VERTEX
  8
FOREGROUND
  6
CONTINUOUS
 10
4.899443
 20
3.351043
  0
VERTEX
  8
FOREGROUND
  6
CONTINUOUS
 10
4.881292
 20
3.365368
  0
VERTEX
  8
FOREGROUND
  6
CONTINUOUS
 10
4.862948
 20
3.379530
  0
VERTEX
  8
FOREGROUND
  6
CONTINUOUS
 10
4.844413
 20
3.393527
  0
VERTEX
  8
FOREGROUND
  6
CONTINUOUS
 10
4.825690
 20
3.407362
  0
VERTEX
  8
FOREGROUND
  6
CONTINUOUS
 10
4.806781
 20
3.421032
  0
VERTEX
  8
FOREGROUND
  6
CONTINUOUS
 10
4.787687
 20
3.434539
  0
VERTEX
  8
FOREGROUND
  6
CONTINUOUS
 10
4.768412
 20
3.447882
  0
VERTEX
  8
FOREGROUND
  6
CONTINUOUS
 10
4.748957
 20
3.461061
  0
VERTEX
  8
FOREGROUND
  6
CONTINUOUS
 10
4.729325
 20
3.474077
  0
VERTEX
  8
FOREGROUND
  6
CONTINUOUS
 10
4.709518
 20
3.486929
  0
VERTEX
  8
FOREGROUND
  6
CONTINUOUS
 10
4.689537
 20
3.499617
  0
VERTEX
  8
FOREGROUND
  6
CONTINUOUS
 10
4.669386
 20
3.512142
  0
VERTEX
  8
FOREGROUND
  6
CONTINUOUS
 10
4.649066
 20
3.524503
  0
VERTEX
  8
FOREGROUND
  6
CONTINUOUS
 10
4.628580
 20
3.536700
  0
VERTEX
  8
FOREGROUND
  6
CONTINUOUS
 10
4.607930
 20
3.548733
  0
VERTEX
  8
FOREGROUND
  6
CONTINUOUS
 10
4.587118
 20
3.560603
  0
VERTEX
  8
FOREGROUND
  6
CONTINUOUS
 10
4.566146
 20
3.572309
  0
VERTEX
  8
FOREGROUND
  6
CONTINUOUS
 10
4.545017
 20
3.583851
  0
VERTEX
  8
FOREGROUND
  6
CONTINUOUS
 10
4.523732
 20
3.595230
  0
VERTEX
  8
FOREGROUND
  6
CONTINUOUS
 10
4.502295
 20
3.606445
  0
VERTEX
  8
FOREGROUND
  6
CONTINUOUS
 10
4.480706
 20
3.617496
  0
VERTEX
  8
FOREGROUND
  6
CONTINUOUS
 10
4.458969
 20
3.628383
  0
VERTEX
  8
FOREGROUND
  6
CONTINUOUS
 10
4.437086
 20
3.639107
  0
VERTEX
  8
FOREGROUND
  6
CONTINUOUS
 10
4.415059
 20
3.649667
  0
VERTEX
  8
FOREGROUND
  6
CONTINUOUS
 10
4.392889
 20
3.660064
  0
VERTEX
  8
FOREGROUND
  6
CONTINUOUS
 10
4.370580
 20
3.670296
  0
VERTEX
  8
FOREGROUND
  6
CONTINUOUS
 10
4.348133
 20
3.680365
  0
VERTEX
  8
FOREGROUND
  6
CONTINUOUS
 10
4.325551
 20
3.690270
  0
VERTEX
  8
FOREGROUND
  6
CONTINUOUS
 10
4.302836
 20
3.700012
  0
VERTEX
  8
FOREGROUND
  6
CONTINUOUS
 10
4.279990
 20
3.709590
  0
VERTEX
  8
FOREGROUND
  6
CONTINUOUS
 10
4.257015
 20
3.719004
  0
VERTEX
  8
FOREGROUND
  6
CONTINUOUS
 10
4.233914
 20
3.728254
  0
VERTEX
  8
FOREGROUND
  6
CONTINUOUS
 10
4.210689
 20
3.737341
  0
VERTEX
  8
FOREGROUND
  6
CONTINUOUS
 10
4.187341
 20
3.746264
  0
VERTEX
  8
FOREGROUND
  6
CONTINUOUS
 10
4.163874
 20
3.755023
  0
VERTEX
  8
FOREGROUND
  6
CONTINUOUS
 10
4.140289
 20
3.763619
  0
VERTEX
  8
FOREGROUND
  6
CONTINUOUS
 10
4.116589
 20
3.772051
  0
VERTEX
  8
FOREGROUND
  6
CONTINUOUS
 10
4.092776
 20
3.780319
  0
VERTEX
  8
FOREGROUND
  6
CONTINUOUS
 10
4.068852
 20
3.788424
  0
VERTEX
  8
FOREGROUND
  6
CONTINUOUS
 10
4.044819
 20
3.796364
  0
VERTEX
  8
FOREGROUND
  6
CONTINUOUS
 10
4.020679
 20
3.804141
  0
VERTEX
  8
FOREGROUND
  6
CONTINUOUS
 10
3.996436
 20
3.811755
  0
VERTEX
  8
FOREGROUND
  6
CONTINUOUS
 10
3.972090
 20
3.819204
  0
VERTEX
  8
FOREGROUND
  6
CONTINUOUS
 10
3.947644
 20
3.826490
  0
VERTEX
  8
FOREGROUND
  6
CONTINUOUS
 10
3.923101
 20
3.833613
  0
VERTEX
  8
FOREGROUND
  6
CONTINUOUS
 10
3.898462
 20
3.840571
  0
VERTEX
  8
FOREGROUND
  6
CONTINUOUS
 10
3.873730
 20
3.847366
  0
VERTEX
  8
FOREGROUND
  6
CONTINUOUS
 10
3.848907
 20
3.853997
  0
VERTEX
  8
FOREGROUND
  6
CONTINUOUS
 10
3.823996
 20
3.860464
  0
VERTEX
  8
FOREGROUND
  6
CONTINUOUS
 10
3.798997
 20
3.866768
  0
VERTEX
  8
FOREGROUND
  6
CONTINUOUS
 10
3.773915
 20
3.872908
  0
VERTEX
  8
FOREGROUND
  6
CONTINUOUS
 10
3.748750
 20
3.878884
  0
VERTEX
  8
FOREGROUND
  6
CONTINUOUS
 10
3.723505
 20
3.884697
  0
VERTEX
  8
FOREGROUND
  6
CONTINUOUS
 10
3.698183
 20
3.890346
  0
VERTEX
  8
FOREGROUND
  6
CONTINUOUS
 10
3.672785
 20
3.895831
  0
VERTEX
  8
FOREGROUND
  6
CONTINUOUS
 10
3.647314
 20
3.901152
  0
VERTEX
  8
FOREGROUND
  6
CONTINUOUS
 10
3.621772
 20
3.906310
  0
VERTEX
  8
FOREGROUND
  6
CONTINUOUS
 10
3.596161
 20
3.911304
  0
VERTEX
  8
FOREGROUND
  6
CONTINUOUS
 10
3.570483
 20
3.916134
  0
VERTEX
  8
FOREGROUND
  6
CONTINUOUS
 10
3.544741
 20
3.920801
  0
VERTEX
  8
FOREGROUND
  6
CONTINUOUS
 10
3.518937
 20
3.925304
  0
VERTEX
  8
FOREGROUND
  6
CONTINUOUS
 10
3.493073
 20
3.929643
  0
VERTEX
  8
FOREGROUND
  6
CONTINUOUS
 10
3.467151
 20
3.933819
  0
VERTEX
  8
FOREGROUND
  6
CONTINUOUS
 10
3.441173
 20
3.937830
  0
VERTEX
  8
FOREGROUND
  6
CONTINUOUS
 10
3.415142
 20
3.941678
  0
VERTEX
  8
FOREGROUND
  6
CONTINUOUS
 10
3.389060
 20
3.945363
  0
VERTEX
  8
FOREGROUND
  6
CONTINUOUS
 10
3.362929
 20
3.948883
  0
VERTEX
  8
FOREGROUND
  6
CONTINUOUS
 10
3.336752
 20
3.952240
  0
VERTEX
  8
FOREGROUND
  6
CONTINUOUS
 10
3.310530
 20
3.955434
  0
VERTEX
  8
FOREGROUND
  6
CONTINUOUS
 10
3.284266
 20
3.958463
  0
VERTEX
  8
FOREGROUND
  6
CONTINUOUS
 10
3.257961
 20
3.961329
  0
VERTEX
  8
FOREGROUND
  6
CONTINUOUS
 10
3.231619
 20
3.964031
  0
VERTEX
  8
FOREGROUND
  6
CONTINUOUS
 10
3.205241
 20
3.966569
  0
VERTEX
  8
FOREGROUND
  6
CONTINUOUS
 10
3.178830
 20
3.968944
  0
VERTEX
  8
FOREGROUND
  6
CONTINUOUS
 10
3.152388
 20
3.971155
  0
VERTEX
  8
FOREGROUND
  6
CONTINUOUS
 10
3.125917
 20
3.973202
  0
VERTEX
  8
FOREGROUND
  6
CONTINUOUS
 10
3.099419
 20
3.975086
  0
VERTEX
  8
FOREGROUND
  6
CONTINUOUS
 10
3.072896
 20
3.976806
  0
VERTEX
  8
FOREGROUND
  6
CONTINUOUS
 10
3.046352
 20
3.978362
  0
VERTEX
  8
FOREGROUND
  6
CONTINUOUS
 10
3.019787
 20
3.979754
  0
VERTEX
  8
FOREGROUND
  6
CONTINUOUS
 10
2.993204
 20
3.980983
  0
VERTEX
  8
FOREGROUND
  6
CONTINUOUS
 10
2.966606
 20
3.982048
  0
VERTEX
  8
FOREGROUND
  6
CONTINUOUS
 10
2.939994
 20
3.982949
  0
VERTEX
  8
FOREGROUND
  6
CONTINUOUS
 10
2.913371
 20
3.983687
  0
VERTEX
  8
FOREGROUND
  6
CONTINUOUS
 10
2.886738
 20
3.984261
  0
VERTEX
  8
FOREGROUND
  6
CONTINUOUS
 10
2.860100
 20
3.984671
  0
VERTEX
  8
FOREGROUND
  6
CONTINUOUS
 10
2.833456
 20
3.984917
  0
VERTEX
  8
FOREGROUND
  6
CONTINUOUS
 10
2.806810
 20
3.985000
  0
VERTEX
  8
FOREGROUND
  6
CONTINUOUS
 10
2.780164
 20
3.984919
  0
VERTEX
  8
FOREGROUND
  6
CONTINUOUS
 10
2.753520
 20
3.984674
  0
VERTEX
  8
FOREGROUND
  6
CONTINUOUS
 10
2.726881
 20
3.984266
  0
VERTEX
  8
FOREGROUND
  6
CONTINUOUS
 10
2.700247
 20
3.983694
  0
VERTEX
  8
FOREGROUND
  6
CONTINUOUS
 10
2.673623
 20
3.982958
  0
VERTEX
  8
FOREGROUND
  6
CONTINUOUS
 10
2.647009
 20
3.982059
  0
VERTEX
  8
FOREGROUND
  6
CONTINUOUS
 10
2.620409
 20
3.980995
  0
VERTEX
  8
FOREGROUND
  6
CONTINUOUS
 10
2.593824
 20
3.979768
  0
VERTEX
  8
FOREGROUND
  6
CONTINUOUS
 10
2.567257
 20
3.978378
  0
VERTEX
  8
FOREGROUND
  6
CONTINUOUS
 10
2.540709
 20
3.976823
  0
VERTEX
  8
FOREGROUND
  6
CONTINUOUS
 10
2.514183
 20
3.975105
  0
VERTEX
  8
FOREGROUND
  6
CONTINUOUS
 10
2.487682
 20
3.973223
  0
VERTEX
  8
FOREGROUND
  6
CONTINUOUS
 10
2.461207
 20
3.971178
  0
VERTEX
  8
FOREGROUND
  6
CONTINUOUS
 10
2.434760
 20
3.968969
  0
VERTEX
  8
FOREGROUND
  6
CONTINUOUS
 10
2.408345
 20
3.966596
  0
VERTEX
  8
FOREGROUND
  6
CONTINUOUS
 10
2.381963
 20
3.964059
  0
VERTEX
  8
FOREGROUND
  6
CONTINUOUS
 10
2.355616
 20
3.961359
  0
VERTEX
  8
FOREGROUND
  6
CONTINUOUS
 10
2.329306
 20
3.958495
  0
VERTEX
  8
FOREGROUND
  6
CONTINUOUS
 10
2.303036
 20
3.955467
  0
VERTEX
  8
FOREGROUND
  6
CONTINUOUS
 10
2.276808
 20
3.952275
  0
VERTEX
  8
FOREGROUND
  6
CONTINUOUS
 10
2.250625
 20
3.948920
  0
VERTEX
  8
FOREGROUND
  6
CONTINUOUS
 10
2.224487
 20
3.945401
  0
VERTEX
  8
FOREGROUND
  6
CONTINUOUS
 10
2.198398
 20
3.941719
  0
VERTEX
  8
FOREGROUND
  6
CONTINUOUS
 10
2.172361
 20
3.937872
  0
VERTEX
  8
FOREGROUND
  6
CONTINUOUS
 10
2.146376
 20
3.933862
  0
VERTEX
  8
FOREGROUND
  6
CONTINUOUS
 10
2.120446
 20
3.929689
  0
VERTEX
  8
FOREGROUND
  6
CONTINUOUS
 10
2.094574
 20
3.925351
  0
VERTEX
  8
FOREGROUND
  6
CONTINUOUS
 10
2.068761
 20
3.920850
  0
VERTEX
  8
FOREGROUND
  6
CONTINUOUS
 10
2.043011
 20
3.916185
  0
VERTEX
  8
FOREGROUND
  6
CONTINUOUS
 10
2.017324
 20
3.911356
  0
VERTEX
  8
FOREGROUND
  6
CONTINUOUS
 10
1.991704
 20
3.906364
  0
VERTEX
  8
FOREGROUND
  6
CONTINUOUS
 10
1.966152
 20
3.901208
  0
VERTEX
  8
FOREGROUND
  6
CONTINUOUS
 10
1.940671
 20
3.895888
  0
VERTEX
  8
FOREGROUND
  6
CONTINUOUS
 10
1.915263
 20
3.890405
  0
VERTEX
  8
FOREGROUND
  6
CONTINUOUS
 10
1.889930
 20
3.884758
  0
VERTEX
  8
FOREGROUND
  6
CONTINUOUS
 10
1.864675
 20
3.878947
  0
VERTEX
  8
FOREGROUND
  6
CONTINUOUS
 10
1.839499
 20
3.872972
  0
VERTEX
  8
FOREGROUND
  6
CONTINUOUS
 10
1.814405
 20
3.866834
  0
VERTEX
  8
FOREGROUND
  6
CONTINUOUS
 10
1.789396
 20
3.860532
  0
VERTEX
  8
FOREGROUND
  6
CONTINUOUS
 10
1.764472
 20
3.854066
  0
VERTEX
  8
FOREGROUND
  6
CONTINUOUS
 10
1.739637
 20
3.847436
  0
VERTEX
  8
FOREGROUND
  6
CONTINUOUS
 10
1.714892
 20
3.840643
  0
VERTEX
  8
FOREGROUND
  6
CONTINUOUS
 10
1.690241
 20
3.833686
  0
VERTEX
  8
FOREGROUND
  6
CONTINUOUS
 10
1.665684
 20
3.826566
  0
VERTEX
  8
FOREGROUND
  6
CONTINUOUS
 10
1.641225
 20
3.819281
  0
VERTEX
  8
FOREGROUND
  6
CONTINUOUS
 10
1.616866
 20
3.811833
  0
VERTEX
  8
FOREGROUND
  6
CONTINUOUS
 10
1.592608
 20
3.804222
  0
VERTEX
  8
FOREGROUND
  6
CONTINUOUS
 10
1.568454
 20
3.796446
  0
VERTEX
  8
FOREGROUND
  6
CONTINUOUS
 10
1.544407
 20
3.788507
  0
VERTEX
  8
FOREGROUND
  6
CONTINUOUS
 10
1.520468
 20
3.780404
  0
VERTEX
  8
FOREGROUND
  6
CONTINUOUS
 10
1.496639
 20
3.772138
  0
VERTEX
  8
FOREGROUND
  6
CONTINUOUS
 10
1.472923
 20
3.763707
  0
VERTEX
  8
FOREGROUND
  6
CONTINUOUS
 10
1.449323
 20
3.755113
  0
VERTEX
  8
FOREGROUND
  6
CONTINUOUS
 10
1.425840
 20
3.746355
  0
VERTEX
  8
FOREGROUND
  6
CONTINUOUS
 10
1.402476
 20
3.737434
  0
VERTEX
  8
FOREGROUND
  6
CONTINUOUS
 10
1.379234
 20
3.728349
  0
VERTEX
  8
FOREGROUND
  6
CONTINUOUS
 10
1.356115
 20
3.719100
  0
VERTEX
  8
FOREGROUND
  6
CONTINUOUS
 10
1.333123
 20
3.709687
  0
VERTEX
  8
FOREGROUND
  6
CONTINUOUS
 10
1.310260
 20
3.700111
  0
VERTEX
  8
FOREGROUND
  6
CONTINUOUS
 10
1.287527
 20
3.690371
  0
VERTEX
  8
FOREGROUND
  6
CONTINUOUS
 10
1.264926
 20
3.680467
  0
VERTEX
  8
FOREGROUND
  6
CONTINUOUS
 10
1.242461
 20
3.670400
  0
VERTEX
  8
FOREGROUND
  6
CONTINUOUS
 10
1.220133
 20
3.660168
  0
VERTEX
  8
FOREGROUND
  6
CONTINUOUS
 10
1.197945
 20
3.649774
  0
VERTEX
  8
FOREGROUND
  6
CONTINUOUS
 10
1.175898
 20
3.639215
  0
VERTEX
  8
FOREGROUND
  6
CONTINUOUS
 10
1.153995
 20
3.628493
  0
VERTEX
  8
FOREGROUND
  6
CONTINUOUS
 10
1.132238
 20
3.617607
  0
VERTEX
  8
FOREGROUND
  6
CONTINUOUS
 10
1.110629
 20
3.606557
  0
VERTEX
  8
FOREGROUND
  6
CONTINUOUS
 10
1.089171
 20
3.595343
  0
VERTEX
  8
FOREGROUND
  6
CONTINUOUS
 10
1.067865
 20
3.583966
  0
VERTEX
  8
FOREGROUND
  6
CONTINUOUS
 10
1.046715
 20
3.572425
  0
VERTEX
  8
FOREGROUND
  6
CONTINUOUS
 10
1.025721
 20
3.560721
  0
VERTEX
  8
FOREGROUND
  6
CONTINUOUS
 10
1.004887
 20
3.548852
  0
VERTEX
  8
FOREGROUND
  6
CONTINUOUS
 10
0.984215
 20
3.536820
  0
VERTEX
  8
FOREGROUND
  6
CONTINUOUS
 10
0.963707
 20
3.524624
  0
VERTEX
  8
FOREGROUND
  6
CONTINUOUS
 10
0.943364
 20
3.512265
  0
VERTEX
  8
FOREGROUND
  6
CONTINUOUS
 10
0.923190
 20
3.499742
  0
VERTEX
  8
FOREGROUND
  6
CONTINUOUS
 10
0.903186
 20
3.487055
  0
VERTEX
  8
FOREGROUND
  6
CONTINUOUS
 10
0.883355
 20
3.474204
  0
VERTEX
  8
FOREGROUND
  6
CONTINUOUS
 10
0.863699
 20
3.461190
  0
VERTEX
  8
FOREGROUND
  6
CONTINUOUS
 10
0.844220
 20
3.448012
  0
VERTEX
  8
FOREGROUND
  6
CONTINUOUS
 10
0.824920
 20
3.434670
  0
VERTEX
  8
FOREGROUND
  6
CONTINUOUS
 10
0.805801
 20
3.421164
  0
VERTEX
  8
FOREGROUND
  6
CONTINUOUS
 10
0.786867
 20
3.407495
  0
VERTEX
  8
FOREGROUND
  6
CONTINUOUS
 10
0.768118
 20
3.393662
  0
VERTEX
  8
FOREGROUND
  6
CONTINUOUS
 10
0.749558
 20
3.379666
  0
VERTEX
  8
FOREGROUND
  6
CONTINUOUS
 10
0.731188
 20
3.365505
  0
VERTEX
  8
FOREGROUND
  6
CONTINUOUS
 10
0.713011
 20
3.351181
  0
VERTEX
  8
FOREGROUND
  6
CONTINUOUS
 10
0.695028
 20
3.336693
  0
VERTEX
  8
FOREGROUND
  6
CONTINUOUS
 10
0.677243
 20
3.322042
  0
VERTEX
  8
FOREGROUND
  6
CONTINUOUS
 10
0.659657
 20
3.307227
  0
VERTEX
  8
FOREGROUND
  6
CONTINUOUS
 10
0.642272
 20
3.292248
  0
VERTEX
  8
FOREGROUND
  6
CONTINUOUS
 10
0.625091
 20
3.277105
  0
VERTEX
  8
FOREGROUND
  6
CONTINUOUS
 10
0.608116
 20
3.261799
  0
VERTEX
  8
FOREGROUND
  6
CONTINUOUS
 10
0.591349
 20
3.246328
  0
VERTEX
  8
FOREGROUND
  6
CONTINUOUS
 10
0.574792
 20
3.230695
  0
VERTEX
  8
FOREGROUND
  6
CONTINUOUS
 10
0.558448
 20
3.214897
  0
VERTEX
  8
FOREGROUND
  6
CONTINUOUS
 10
0.542319
 20
3.198936
  0
VERTEX
  8
FOREGROUND
  6
CONTINUOUS
 10
0.526406
 20
3.182811
  0
VERTEX
  8
FOREGROUND
  6
CONTINUOUS
 10
0.510713
 20
3.166522
  0
VERTEX
  8
FOREGROUND
  6
CONTINUOUS
 10
0.495242
 20
3.150070
  0
VERTEX
  8
FOREGROUND
  6
CONTINUOUS
 10
0.479994
 20
3.133454
  0
VERTEX
  8
FOREGROUND
  6
CONTINUOUS
 10
0.464971
 20
3.116674
  0
VERTEX
  8
FOREGROUND
  6
CONTINUOUS
 10
0.450177
 20
3.099730
  0
VERTEX
  8
FOREGROUND
  6
CONTINUOUS
 10
0.435613
 20
3.082623
  0
VERTEX
  8
FOREGROUND
  6
CONTINUOUS
 10
0.421282
 20
3.065352
  0
VERTEX
  8
FOREGROUND
  6
CONTINUOUS
 10
0.407185
 20
3.047917
  0
VERTEX
  8
FOREGROUND
  6
CONTINUOUS
 10
0.393326
 20
3.030319
  0
VERTEX
  8
FOREGROUND
  6
CONTINUOUS
 10
0.379705
 20
3.012556
  0
VERTEX
  8
FOREGROUND
  6
CONTINUOUS
 10
0.366326
 20
2.994631
  0
VERTEX
  8
FOREGROUND
  6
CONTINUOUS
 10
0.353190
 20
2.976541
  0
VERTEX
  8
FOREGROUND
  6
CONTINUOUS
 10
0.340301
 20
2.958288
  0
VERTEX
  8
FOREGROUND
  6
CONTINUOUS
 10
0.327659
 20
2.939871
  0
VERTEX
  8
FOREGROUND
  6
CONTINUOUS
 10
0.315267
 20
2.921290
  0
VERTEX
  8
FOREGROUND
  6
CONTINUOUS
 10
0.303128
 20
2.902545
  0
VERTEX
  8
FOREGROUND
  6
CONTINUOUS
 10
0.291244
 20
2.883637
  0
VERTEX
  8
FOREGROUND
  6
CONTINUOUS
 10
0.279616
 20
2.864565
  0
VERTEX
  8
FOREGROUND
  6
CONTINUOUS
 10
0.268248
 20
2.845330
  0
VERTEX
  8
FOREGROUND
  6
CONTINUOUS
 10
0.257140
 20
2.825930
  0
VERTEX
  8
FOREGROUND
  6
CONTINUOUS
 10
0.246297
 20
2.806367
  0
VERTEX
  8
FOREGROUND
  6
CONTINUOUS
 10
0.235719
 20
2.786640
  0
VERTEX
  8
FOREGROUND
  6
CONTINUOUS
 10
0.225409
 20
2.766750
  0
VERTEX
  8
FOREGROUND
  6
CONTINUOUS
 10
0.215369
 20
2.746696
  0
VERTEX
  8
FOREGROUND
  6
CONTINUOUS
 10
0.205601
 20
2.726478
  0
VERTEX
  8
FOREGROUND
  6
CONTINUOUS
 10
0.196108
 20
2.706096
  0
VERTEX
  8
FOREGROUND
  6
CONTINUOUS
 10
0.186892
 20
2.685551
  0
VERTEX
  8
FOREGROUND
  6
CONTINUOUS
 10
0.177955
 20
2.664841
  0
VERTEX
  8
FOREGROUND
  6
CONTINUOUS
 10
0.169300
 20
2.643969
  0
VERTEX
  8
FOREGROUND
  6
CONTINUOUS
 10
0.160927
 20
2.622932
  0
VERTEX
  8
FOREGROUND
  6
CONTINUOUS
 10
0.152841
 20
2.601732
  0
VERTEX
  8
FOREGROUND
  6
CONTINUOUS
 10
0.145042
 20
2.580368
  0
VERTEX
  8
FOREGROUND
  6
CONTINUOUS
 10
0.137533
 20
2.558840
  0
VERTEX
  8
FOREGROUND
  6
CONTINUOUS
 10
0.130317
 20
2.537149
  0
VERTEX
  8
FOREGROUND
  6
CONTINUOUS
 10
0.123395
 20
2.515293
  0
VERTEX
  8
FOREGROUND
  6
CONTINUOUS
 10
0.116770
 20
2.493275
  0
VERTEX
  8
FOREGROUND
  6
CONTINUOUS
 10
0.110444
 20
2.471092
  0
VERTEX
  8
FOREGROUND
  6
CONTINUOUS
 10
0.104419
 20
2.448746
  0
VERTEX
  8
FOREGROUND
  6
CONTINUOUS
 10
0.098698
 20
2.426236
  0
VERTEX
  8
FOREGROUND
  6
CONTINUOUS
 10
0.093282
 20
2.403562
  0
VERTEX
  8
FOREGROUND
  6
CONTINUOUS
 10
0.088174
 20
2.380724
  0
VERTEX
  8
FOREGROUND
  6
CONTINUOUS
 10
0.083376
 20
2.357723
  0
VERTEX
  8
FOREGROUND
  6
CONTINUOUS
 10
0.078891
 20
2.334558
  0
VERTEX
  8
FOREGROUND
  6
CONTINUOUS
 10
0.074719
 20
2.311230
  0
VERTEX
  8
FOREGROUND
  6
CONTINUOUS
 10
0.070865
 20
2.287737
  0
VERTEX
  8
FOREGROUND
  6
CONTINUOUS
 10
0.067329
 20
2.264081
  0
VERTEX
  8
FOREGROUND
  6
CONTINUOUS
 10
0.064115
 20
2.240261
  0
VERTEX
  8
FOREGROUND
  6
CONTINUOUS
 10
0.061224
 20
2.216278
  0
VERTEX
  8
FOREGROUND
  6
CONTINUOUS
 10
0.058658
 20
2.192131
  0
VERTEX
  8
FOREGROUND
  6
CONTINUOUS
 10
0.056420
 20
2.167820
  0
VERTEX
  8
FOREGROUND
  6
CONTINUOUS
 10
0.054513
 20
2.143345
  0
VERTEX
  8
FOREGROUND
  6
CONTINUOUS
 10
0.052937
 20
2.118706
  0
VERTEX
  8
FOREGROUND
  6
CONTINUOUS
 10
0.051696
 20
2.093904
  0
VERTEX
  8
FOREGROUND
  6
CONTINUOUS
 10
0.050791
 20
2.068938
  0
VERTEX
  8
FOREGROUND
  6
CONTINUOUS
 10
0.050226
 20
2.043809
  0
VERTEX
  8
FOREGROUND
  6
CONTINUOUS
 10
0.050001
 20
2.018516
  0
VERTEX
  8
FOREGROUND
  6
CONTINUOUS
 10
0.050001
 20
2.018516
  0
VERTEX
  8
FOREGROUND
  6
CONTINUOUS
 10
0.050176
 20
1.993222
  0
VERTEX
  8
FOREGROUND
  6
CONTINUOUS
 10
0.050692
 20
1.968093
  0
VERTEX
  8
FOREGROUND
  6
CONTINUOUS
 10
0.051547
 20
1.943127
  0
VERTEX
  8
FOREGROUND
  6
CONTINUOUS
 10
0.052740
 20
1.918324
  0
VERTEX
  8
FOREGROUND
  6
CONTINUOUS
 10
0.054267
 20
1.893686
  0
VERTEX
  8
FOREGROUND
  6
CONTINUOUS
 10
0.056126
 20
1.869211
  0
VERTEX
  8
FOREGROUND
  6
CONTINUOUS
 10
0.058316
 20
1.844899
  0
VERTEX
  8
FOREGROUND
  6
CONTINUOUS
 10
0.060834
 20
1.820752
  0
VERTEX
  8
FOREGROUND
  6
CONTINUOUS
 10
0.063678
 20
1.796768
  0
VERTEX
  8
FOREGROUND
  6
CONTINUOUS
 10
0.066845
 20
1.772948
  0
VERTEX
  8
FOREGROUND
  6
CONTINUOUS
 10
0.070334
 20
1.749291
  0
VERTEX
  8
FOREGROUND
  6
CONTINUOUS
 10
0.074143
 20
1.725798
  0
VERTEX
  8
FOREGROUND
  6
CONTINUOUS
 10
0.078268
 20
1.702469
  0
VERTEX
  8
FOREGROUND
  6
CONTINUOUS
 10
0.082708
 20
1.679304
  0
VERTEX
  8
FOREGROUND
  6
CONTINUOUS
 10
0.087460
 20
1.656302
  0
VERTEX
  8
FOREGROUND
  6
CONTINUOUS
 10
0.092523
 20
1.633464
  0
VERTEX
  8
FOREGROUND
  6
CONTINUOUS
 10
0.097895
 20
1.610789
  0
VERTEX
  8
FOREGROUND
  6
CONTINUOUS
 10
0.103572
 20
1.588278
  0
VERTEX
  8
FOREGROUND
  6
CONTINUOUS
 10
0.109552
 20
1.565931
  0
VERTEX
  8
FOREGROUND
  6
CONTINUOUS
 10
0.115835
 20
1.543748
  0
VERTEX
  8
FOREGROUND
  6
CONTINUOUS
 10
0.122416
 20
1.521728
  0
VERTEX
  8
FOREGROUND
  6
CONTINUOUS
 10
0.129295
 20
1.499872
  0
VERTEX
  8
FOREGROUND
  6
CONTINUOUS
 10
0.136469
 20
1.478180
  0
VERTEX
  8
FOREGROUND
  6
CONTINUOUS
 10
0.143935
 20
1.456651
  0
VERTEX
  8
FOREGROUND
  6
CONTINUOUS
 10
0.151691
 20
1.435286
  0
VERTEX
  8
FOREGROUND
  6
CONTINUOUS
 10
0.159736
 20
1.414084
  0
VERTEX
  8
FOREGROUND
  6
CONTINUOUS
 10
0.168067
 20
1.393047
  0
VERTEX
  8
FOREGROUND
  6
CONTINUOUS
 10
0.176682
 20
1.372173
  0
VERTEX
  8
FOREGROUND
  6
CONTINUOUS
 10
0.185578
 20
1.351463
  0
VERTEX
  8
FOREGROUND
  6
CONTINUOUS
 10
0.194753
 20
1.330916
  0
VERTEX
  8
FOREGROUND
  6
CONTINUOUS
 10
0.204206
 20
1.310533
  0
VERTEX
  8
FOREGROUND
  6
CONTINUOUS
 10
0.213934
 20
1.290314
  0
VERTEX
  8
FOREGROUND
  6
CONTINUOUS
 10
0.223934
 20
1.270258
  0
VERTEX
  8
FOREGROUND
  6
CONTINUOUS
 10
0.234205
 20
1.250366
  0
VERTEX
  8
FOREGROUND
  6
CONTINUOUS
 10
0.244744
 20
1.230638
  0
VERTEX
  8
FOREGROUND
  6
CONTINUOUS
 10
0.255549
 20
1.211074
  0
VERTEX
  8
FOREGROUND
  6
CONTINUOUS
 10
0.266618
 20
1.191673
  0
VERTEX
  8
FOREGROUND
  6
CONTINUOUS
 10
0.277949
 20
1.172436
  0
VERTEX
  8
FOREGROUND
  6
CONTINUOUS
 10
0.289539
 20
1.153362
  0
VERTEX
  8
FOREGROUND
  6
CONTINUOUS
 10
0.301386
 20
1.134452
  0
VERTEX
  8
FOREGROUND
  6
CONTINUOUS
 10
0.313488
 20
1.115706
  0
VERTEX
  8
FOREGROUND
  6
CONTINUOUS
 10
0.325843
 20
1.097124
  0
VERTEX
  8
FOREGROUND
  6
CONTINUOUS
 10
0.338449
 20
1.078705
  0
VERTEX
  8
FOREGROUND
  6
CONTINUOUS
 10
0.351302
 20
1.060450
  0
VERTEX
  8
FOREGROUND
  6
CONTINUOUS
 10
0.364402
 20
1.042359
  0
VERTEX
  8
FOREGROUND
  6
CONTINUOUS
 10
0.377746
 20
1.024431
  0
VERTEX
  8
FOREGROUND
  6
CONTINUOUS
 10
0.391332
 20
1.006667
  0
VERTEX
  8
FOREGROUND
  6
CONTINUOUS
 10
0.405157
 20
0.989067
  0
VERTEX
  8
FOREGROUND
  6
CONTINUOUS
 10
0.419219
 20
0.971630
  0
VERTEX
  8
FOREGROUND
  6
CONTINUOUS
 10
0.433516
 20
0.954357
  0
VERTEX
  8
FOREGROUND
  6
CONTINUOUS
 10
0.448047
 20
0.937248
  0
VERTEX
  8
FOREGROUND
  6
CONTINUOUS
 10
0.462807
 20
0.920303
  0
VERTEX
  8
FOREGROUND
  6
CONTINUOUS
 10
0.477796
 20
0.903521
  0
VERTEX
  8
FOREGROUND
  6
CONTINUOUS
 10
0.493012
 20
0.886903
  0
VERTEX
  8
FOREGROUND
  6
CONTINUOUS
 10
0.508451
 20
0.870448
  0
VERTEX
  8
FOREGROUND
  6
CONTINUOUS
 10
0.524112
 20
0.854157
  0
VERTEX
  8
FOREGROUND
  6
CONTINUOUS
 10
0.539992
 20
0.838030
  0
VERTEX
  8
FOREGROUND
  6
CONTINUOUS
 10
0.556090
 20
0.822067
  0
VERTEX
  8
FOREGROUND
  6
CONTINUOUS
 10
0.572403
 20
0.806267
  0
VERTEX
  8
FOREGROUND
  6
CONTINUOUS
 10
0.588929
 20
0.790631
  0
VERTEX
  8
FOREGROUND
  6
CONTINUOUS
 10
0.605666
 20
0.775159
  0
VERTEX
  8
FOREGROUND
  6
CONTINUOUS
 10
0.622611
 20
0.759850
  0
VERTEX
  8
FOREGROUND
  6
CONTINUOUS
 10
0.639762
 20
0.744705
  0
VERTEX
  8
FOREGROUND
  6
CONTINUOUS
 10
0.657117
 20
0.729724
  0
VERTEX
  8
FOREGROUND
  6
CONTINUOUS
 10
0.674674
 20
0.714906
  0
VERTEX
  8
FOREGROUND
  6
CONTINUOUS
 10
0.692430
 20
0.700253
  0
VERTEX
  8
FOREGROUND
  6
CONTINUOUS
 10
0.710384
 20
0.685762
  0
VERTEX
  8
FOREGROUND
  6
CONTINUOUS
 10
0.728534
 20
0.671436
  0
VERTEX
  8
FOREGROUND
  6
CONTINUOUS
 10
0.746876
 20
0.657273
  0
VERTEX
  8
FOREGROUND
  6
CONTINUOUS
 10
0.765408
 20
0.643274
  0
VERTEX
  8
FOREGROUND
  6
CONTINUOUS
 10
0.784130
 20
0.629439
  0
VERTEX
  8
FOREGROUND
  6
CONTINUOUS
 10
0.803037
 20
0.615767
  0
VERTEX
  8
FOREGROUND
  6
CONTINUOUS
 10
0.822129
 20
0.602259
  0
VERTEX
  8
FOREGROUND
  6
CONTINUOUS
 10
0.841402
 20
0.588914
  0
VERTEX
  8
FOREGROUND
  6
CONTINUOUS
 10
0.860856
 20
0.575734
  0
VERTEX
  8
FOREGROUND
  6
CONTINUOUS
 10
0.880486
 20
0.562717
  0
VERTEX
  8
FOREGROUND
  6
CONTINUOUS
 10
0.900292
 20
0.549864
  0
VERTEX
  8
FOREGROUND
  6
CONTINUOUS
 10
0.920271
 20
0.537174
  0
VERTEX
  8
FOREGROUND
  6
CONTINUOUS
 10
0.940420
 20
0.524648
  0
VERTEX
  8
FOREGROUND
  6
CONTINUOUS
 10
0.960738
 20
0.512286
  0
VERTEX
  8
FOREGROUND
  6
CONTINUOUS
 10
0.981223
 20
0.500087
  0
VERTEX
  8
FOREGROUND
  6
CONTINUOUS
 10
1.001872
 20
0.488053
  0
VERTEX
  8
FOREGROUND
  6
CONTINUOUS
 10
1.022682
 20
0.476182
  0
VERTEX
  8
FOREGROUND
  6
CONTINUOUS
 10
1.043652
 20
0.464474
  0
VERTEX
  8
FOREGROUND
  6
CONTINUOUS
 10
1.064780
 20
0.452931
  0
VERTEX
  8
FOREGROUND
  6
CONTINUOUS
 10
1.086063
 20
0.441550
  0
VERTEX
  8
FOREGROUND
  6
CONTINUOUS
 10
1.107499
 20
0.430334
  0
VERTEX
  8
FOREGROUND
  6
CONTINUOUS
 10
1.129086
 20
0.419282
  0
VERTEX
  8
FOREGROUND
  6
CONTINUOUS
 10
1.150822
 20
0.408393
  0
VERTEX
  8
FOREGROUND
  6
CONTINUOUS
 10
1.172704
 20
0.397667
  0
VERTEX
  8
FOREGROUND
  6
CONTINUOUS
 10
1.194730
 20
0.387106
  0
VERTEX
  8
FOREGROUND
  6
CONTINUOUS
 10
1.216898
 20
0.376708
  0
VERTEX
  8
FOREGROUND
  6
CONTINUOUS
 10
1.239206
 20
0.366474
  0
VERTEX
  8
FOREGROUND
  6
CONTINUOUS
 10
1.261651
 20
0.356403
  0
VERTEX
  8
FOREGROUND
  6
CONTINUOUS
 10
1.284232
 20
0.346497
  0
VERTEX
  8
FOREGROUND
  6
CONTINUOUS
 10
1.306946
 20
0.336754
  0
VERTEX
  8
FOREGROUND
  6
CONTINUOUS
 10
1.329791
 20
0.327174
  0
VERTEX
  8
FOREGROUND
  6
CONTINUOUS
 10
1.352764
 20
0.317759
  0
VERTEX
  8
FOREGROUND
  6
CONTINUOUS
 10
1.375864
 20
0.308507
  0
VERTEX
  8
FOREGROUND
  6
CONTINUOUS
 10
1.399088
 20
0.299418
  0
VERTEX
  8
FOREGROUND
  6
CONTINUOUS
 10
1.422434
 20
0.290494
  0
VERTEX
  8
FOREGROUND
  6
CONTINUOUS
 10
1.445900
 20
0.281733
  0
VERTEX
  8
FOREGROUND
  6
CONTINUOUS
 10
1.469484
 20
0.273136
  0
VERTEX
  8
FOREGROUND
  6
CONTINUOUS
 10
1.493183
 20
0.264702
  0
VERTEX
  8
FOREGROUND
  6
CONTINUOUS
 10
1.516995
 20
0.256433
  0
VERTEX
  8
FOREGROUND
  6
CONTINUOUS
 10
1.540918
 20
0.248327
  0
VERTEX
  8
FOREGROUND
  6
CONTINUOUS
 10
1.564950
 20
0.240384
  0
VERTEX
  8
FOREGROUND
  6
CONTINUOUS
 10
1.589089
 20
0.232606
  0
VERTEX
  8
FOREGROUND
  6
CONTINUOUS
 10
1.613332
 20
0.224991
  0
VERTEX
  8
FOREGROUND
  6
CONTINUOUS
 10
1.637676
 20
0.217539
  0
VERTEX
  8
FOREGROUND
  6
CONTINUOUS
 10
1.662121
 20
0.210252
  0
VERTEX
  8
FOREGROUND
  6
CONTINUOUS
 10
1.686663
 20
0.203128
  0
VERTEX
  8
FOREGROUND
  6
CONTINUOUS
 10
1.711301
 20
0.196168
  0
VERTEX
  8
FOREGROUND
  6
CONTINUOUS
 10
1.736032
 20
0.189371
  0
VERTEX
  8
FOREGROUND
  6
CONTINUOUS
 10
1.760854
 20
0.182739
  0
VERTEX
  8
FOREGROUND
  6
CONTINUOUS
 10
1.785765
 20
0.176270
  0
VERTEX
  8
FOREGROUND
  6
CONTINUOUS
 10
1.810763
 20
0.169964
  0
VERTEX
  8
FOREGROUND
  6
CONTINUOUS
 10
1.835845
 20
0.163823
  0
VERTEX
  8
FOREGROUND
  6
CONTINUOUS
 10
1.861009
 20
0.157845
  0
VERTEX
  8
FOREGROUND
  6
CONTINUOUS
 10
1.886253
 20
0.152030
  0
VERTEX
  8
FOREGROUND
  6
CONTINUOUS
 10
1.911574
 20
0.146380
  0
VERTEX
  8
FOREGROUND
  6
CONTINUOUS
 10
1.936971
 20
0.140893
  0
VERTEX
  8
FOREGROUND
  6
CONTINUOUS
 10
1.962442
 20
0.135570
  0
VERTEX
  8
FOREGROUND
  6
CONTINUOUS
 10
1.987983
 20
0.130411
  0
VERTEX
  8
FOREGROUND
  6
CONTINUOUS
 10
2.013594
 20
0.125415
  0
VERTEX
  8
FOREGROUND
  6
CONTINUOUS
 10
2.039271
 20
0.120583
  0
VERTEX
  8
FOREGROUND
  6
CONTINUOUS
 10
2.065012
 20
0.115914
  0
VERTEX
  8
FOREGROUND
  6
CONTINUOUS
 10
2.090816
 20
0.111410
  0
VERTEX
  8
FOREGROUND
  6
CONTINUOUS
 10
2.116679
 20
0.107069
  0
VERTEX
  8
FOREGROUND
  6
CONTINUOUS
 10
2.142601
 20
0.102892
  0
VERTEX
  8
FOREGROUND
  6
CONTINUOUS
 10
2.168578
 20
0.098878
  0
VERTEX
  8
FOREGROUND
  6
CONTINUOUS
 10
2.194608
 20
0.095028
  0
VERTEX
  8
FOREGROUND
  6
CONTINUOUS
 10
2.220690
 20
0.091342
  0
VERTEX
  8
FOREGROUND
  6
CONTINUOUS
 10
2.246820
 20
0.087820
  0
VERTEX
  8
FOREGROUND
  6
CONTINUOUS
 10
2.272997
 20
0.084461
  0
VERTEX
  8
FOREGROUND
  6
CONTINUOUS
 10
2.299219
 20
0.081266
  0
VERTEX
  8
FOREGROUND
  6
CONTINUOUS
 10
2.325483
 20
0.078235
  0
VERTEX
  8
FOREGROUND
  6
CONTINUOUS
 10
2.351787
 20
0.075368
  0
VERTEX
  8
FOREGROUND
  6
CONTINUOUS
 10
2.378128
 20
0.072664
  0
VERTEX
  8
FOREGROUND
  6
CONTINUOUS
 10
2.404506
 20
0.070124
  0
VERTEX
  8
FOREGROUND
  6
CONTINUOUS
 10
2.430917
 20
0.067747
  0
VERTEX
  8
FOREGROUND
  6
CONTINUOUS
 10
2.457359
 20
0.065534
  0
VERTEX
  8
FOREGROUND
  6
CONTINUOUS
 10
2.483829
 20
0.063485
  0
VERTEX
  8
FOREGROUND
  6
CONTINUOUS
 10
2.510327
 20
0.061600
  0
VERTEX
  8
FOREGROUND
  6
CONTINUOUS
 10
2.536849
 20
0.059879
  0
VERTEX
  8
FOREGROUND
  6
CONTINUOUS
 10
2.563394
 20
0.058321
  0
VERTEX
  8
FOREGROUND
  6
CONTINUOUS
 10
2.589959
 20
0.056927
  0
VERTEX
  8
FOREGROUND
  6
CONTINUOUS
 10
2.616541
 20
0.055696
  0
VERTEX
  8
FOREGROUND
  6
CONTINUOUS
 10
2.643140
 20
0.054629
  0
VERTEX
  8
FOREGROUND
  6
CONTINUOUS
 10
2.669751
 20
0.053726
  0
VERTEX
  8
FOREGROUND
  6
CONTINUOUS
 10
2.696374
 20
0.052987
  0
VERTEX
  8
FOREGROUND
  6
CONTINUOUS
 10
2.723006
 20
0.052411
  0
VERTEX
  8
FOREGROUND
  6
CONTINUOUS
 10
2.749645
 20
0.051999
  0
VERTEX
  8
FOREGROUND
  6
CONTINUOUS
 10
2.776289
 20
0.051751
  0
VERTEX
  8
FOREGROUND
  6
CONTINUOUS
 10
2.802935
 20
0.051667
  0
VERTEX
  8
FOREGROUND
  6
CONTINUOUS
 10
2.829581
 20
0.051746
  0
VERTEX
  8
FOREGROUND
  6
CONTINUOUS
 10
2.856225
 20
0.051989
  0
VERTEX
  8
FOREGROUND
  6
CONTINUOUS
 10
2.882864
 20
0.052395
  0
VERTEX
  8
FOREGROUND
  6
CONTINUOUS
 10
2.909498
 20
0.052966
  0
VERTEX
  8
FOREGROUND
  6
CONTINUOUS
 10
2.936122
 20
0.053700
  0
VERTEX
  8
FOREGROUND
  6
CONTINUOUS
 10
2.962736
 20
0.054598
  0
VERTEX
  8
FOREGROUND
  6
CONTINUOUS
 10
2.989336
 20
0.055659
  0
VERTEX
  8
FOREGROUND
  6
CONTINUOUS
 10
3.015921
 20
0.056884
  0
VERTEX
  8
FOREGROUND
  6
CONTINUOUS
 10
3.042489
 20
0.058273
  0
VERTEX
  8
FOREGROUND
  6
CONTINUOUS
 10
3.069037
 20
0.059826
  0
VERTEX
  8
FOREGROUND
  6
CONTINUOUS
 10
3.095563
 20
0.061542
  0
VERTEX
  8
FOREGROUND
  6
CONTINUOUS
 10
3.122064
 20
0.063422
  0
VERTEX
  8
FOREGROUND
  6
CONTINUOUS
 10
3.148540
 20
0.065466
  0
VERTEX
  8
FOREGROUND
  6
CONTINUOUS
 10
3.174986
 20
0.067673
  0
VERTEX
  8
FOREGROUND
  6
CONTINUOUS
 10
3.201402
 20
0.070045
  0
VERTEX
  8
FOREGROUND
  6
CONTINUOUS
 10
3.227785
 20
0.072579
  0
VERTEX
  8
FOREGROUND
  6
CONTINUOUS
 10
3.254132
 20
0.075278
  0
VERTEX
  8
FOREGROUND
  6
CONTINUOUS
 10
3.280442
 20
0.078140
  0
VERTEX
  8
FOREGROUND
  6
CONTINUOUS
 10
3.306712
 20
0.081166
  0
VERTEX
  8
FOREGROUND
  6
CONTINUOUS
 10
3.332941
 20
0.084356
  0
VERTEX
  8
FOREGROUND
  6
CONTINUOUS
 10
3.359125
 20
0.087710
  0
VERTEX
  8
FOREGROUND
  6
CONTINUOUS
 10
3.385263
 20
0.091227
  0
VERTEX
  8
FOREGROUND
  6
CONTINUOUS
 10
3.411352
 20
0.094908
  0
VERTEX
  8
FOREGROUND
  6
CONTINUOUS
 10
3.437390
 20
0.098752
  0
VERTEX
  8
FOREGROUND
  6
CONTINUOUS
 10
3.463376
 20
0.102761
  0
VERTEX
  8
FOREGROUND
  6
CONTINUOUS
 10
3.489306
 20
0.106933
  0
VERTEX
  8
FOREGROUND
  6
CONTINUOUS
 10
3.515179
 20
0.111269
  0
VERTEX
  8
FOREGROUND
  6
CONTINUOUS
 10
3.540992
 20
0.115768
  0
VERTEX
  8
FOREGROUND
  6
CONTINUOUS
 10
3.566743
 20
0.120431
  0
VERTEX
  8
FOREGROUND
  6
CONTINUOUS
 10
3.592430
 20
0.125258
  0
VERTEX
  8
FOREGROUND
  6
CONTINUOUS
 10
3.618051
 20
0.130249
  0
VERTEX
  8
FOREGROUND
  6
CONTINUOUS
 10
3.643603
 20
0.135403
  0
VERTEX
  8
FOREGROUND
  6
CONTINUOUS
 10
3.669085
 20
0.140721
  0
VERTEX
  8
FOREGROUND
  6
CONTINUOUS
 10
3.694494
 20
0.146203
  0
VERTEX
  8
FOREGROUND
  6
CONTINUOUS
 10
3.719827
 20
0.151849
  0
VERTEX
  8
FOREGROUND
  6
CONTINUOUS
 10
3.745083
 20
0.157658
  0
VERTEX
  8
FOREGROUND
  6
CONTINUOUS
 10
3.770260
 20
0.163631
  0
VERTEX
  8
FOREGROUND
  6
CONTINUOUS
 10
3.795355
 20
0.169767
  0
VERTEX
  8
FOREGROUND
  6
CONTINUOUS
 10
3.820365
 20
0.176068
  0
VERTEX
  8
FOREGROUND
  6
CONTINUOUS
 10
3.845290
 20
0.182532
  0
VERTEX
  8
FOREGROUND
  6
CONTINUOUS
 10
3.870126
 20
0.189160
  0
VERTEX
  8
FOREGROUND
  6
CONTINUOUS
 10
3.894871
 20
0.195951
  0
VERTEX
  8
FOREGROUND
  6
CONTINUOUS
 10
3.919524
 20
0.202906
  0
VERTEX
  8
FOREGROUND
  6
CONTINUOUS
 10
3.944081
 20
0.210025
  0
VERTEX
  8
FOREGROUND
  6
CONTINUOUS
 10
3.968541
 20
0.217308
  0
VERTEX
  8
FOREGROUND
  6
CONTINUOUS
 10
3.992901
 20
0.224755
  0
VERTEX
  8
FOREGROUND
  6
CONTINUOUS
 10
4.017160
 20
0.232365
  0
VERTEX
  8
FOREGROUND
  6
CONTINUOUS
 10
4.041315
 20
0.240139
  0
VERTEX
  8
FOREGROUND
  6
CONTINUOUS
 10
4.065363
 20
0.248076
  0
VERTEX
  8
FOREGROUND
  6
CONTINUOUS
 10
4.089304
 20
0.256177
  0
VERTEX
  8
FOREGROUND
  6
CONTINUOUS
 10
4.113133
 20
0.264443
  0
VERTEX
  8
FOREGROUND
  6
CONTINUOUS
 10
4.136850
 20
0.272871
  0
VERTEX
  8
FOREGROUND
  6
CONTINUOUS
 10
4.160452
 20
0.281464
  0
VERTEX
  8
FOREGROUND
  6
CONTINUOUS
 10
4.183936
 20
0.290220
  0
VERTEX
  8
FOREGROUND
  6
CONTINUOUS
 10
4.207301
 20
0.299140
  0
VERTEX
  8
FOREGROUND
  6
CONTINUOUS
 10
4.230544
 20
0.308224
  0
VERTEX
  8
FOREGROUND
  6
CONTINUOUS
 10
4.253664
 20
0.317471
  0
VERTEX
  8
FOREGROUND
  6
CONTINUOUS
 10
4.276657
 20
0.326882
  0
VERTEX
  8
FOREGROUND
  6
CONTINUOUS
 10
4.299522
 20
0.336457
  0
VERTEX
  8
FOREGROUND
  6
CONTINUOUS
 10
4.322256
 20
0.346195
  0
VERTEX
  8
FOREGROUND
  6
CONTINUOUS
 10
4.344858
 20
0.356098
  0
VERTEX
  8
FOREGROUND
  6
CONTINUOUS
 10
4.367324
 20
0.366164
  0
VERTEX
  8
FOREGROUND
  6
CONTINUOUS
 10
4.389654
 20
0.376393
  0
VERTEX
  8
FOREGROUND
  6
CONTINUOUS
 10
4.411844
 20
0.386787
  0
VERTEX
  8
FOREGROUND
  6
CONTINUOUS
 10
4.433892
 20
0.397344
  0
VERTEX
  8
FOREGROUND
  6
CONTINUOUS
 10
4.455796
 20
0.408065
  0
VERTEX
  8
FOREGROUND
  6
CONTINUOUS
 10
4.477555
 20
0.418949
  0
VERTEX
  8
FOREGROUND
  6
CONTINUOUS
 10
4.499165
 20
0.429998
  0
VERTEX
  8
FOREGROUND
  6
CONTINUOUS
 10
4.520625
 20
0.441210
  0
VERTEX
  8
FOREGROUND
  6
CONTINUOUS
 10
4.541931
 20
0.452586
  0
VERTEX
  8
FOREGROUND
  6
CONTINUOUS
 10
4.563083
 20
0.464125
  0
VERTEX
  8
FOREGROUND
  6
CONTINUOUS
 10
4.584078
 20
0.475828
  0
VERTEX
  8
FOREGROUND
  6
CONTINUOUS
 10
4.604914
 20
0.487695
  0
VERTEX
  8
FOREGROUND
  6
CONTINUOUS
 10
4.625588
 20
0.499726
  0
VERTEX
  8
FOREGROUND
  6
CONTINUOUS
 10
4.646098
 20
0.511920
  0
VERTEX
  8
FOREGROUND
  6
CONTINUOUS
 10
4.666442
 20
0.524278
  0
VERTEX
  8
FOREGROUND
  6
CONTINUOUS
 10
4.686618
 20
0.536800
  0
VERTEX
  8
FOREGROUND
  6
CONTINUOUS
 10
4.706623
 20
0.549486
  0
VERTEX
  8
FOREGROUND
  6
CONTINUOUS
 10
4.726456
 20
0.562335
  0
VERTEX
  8
FOREGROUND
  6
CONTINUOUS
 10
4.746114
 20
0.575348
  0
VERTEX
  8
FOREGROUND
  6
CONTINUOUS
 10
4.765595
 20
0.588525
  0
VERTEX
  8
FOREGROUND
  6
CONTINUOUS
 10
4.784896
 20
0.601866
  0
VERTEX
  8
FOREGROUND
  6
CONTINUOUS
 10
4.804016
 20
0.615370
  0
VERTEX
  8
FOREGROUND
  6
CONTINUOUS
 10
4.822953
 20
0.629038
  0
VERTEX
  8
FOREGROUND
  6
CONTINUOUS
 10
4.841703
 20
0.642870
  0
VERTEX
  8
FOREGROUND
  6
CONTINUOUS
 10
4.860265
 20
0.656865
  0
VERTEX
  8
FOREGROUND
  6
CONTINUOUS
 10
4.878637
 20
0.671024
  0
VERTEX
  8
FOREGROUND
  6
CONTINUOUS
 10
4.896816
 20
0.685347
  0
VERTEX
  8
FOREGROUND
  6
CONTINUOUS
 10
4.914801
 20
0.699834
  0
VERTEX
  8
FOREGROUND
  6
CONTINUOUS
 10
4.932588
 20
0.714484
  0
VERTEX
  8
FOREGROUND
  6
CONTINUOUS
 10
4.950176
 20
0.729298
  0
VERTEX
  8
FOREGROUND
  6
CONTINUOUS
 10
4.967563
 20
0.744276
  0
VERTEX
  8
FOREGROUND
  6
CONTINUOUS
 10
4.984746
 20
0.759417
  0
VERTEX
  8
FOREGROUND
  6
CONTINUOUS
 10
5.001723
 20
0.774723
  0
VERTEX
  8
FOREGROUND
  6
CONTINUOUS
 10
5.018492
 20
0.790192
  0
VERTEX
  8
FOREGROUND
  6
CONTINUOUS
 10
5.035050
 20
0.805824
  0
VERTEX
  8
FOREGROUND
  6
CONTINUOUS
 10
5.051396
 20
0.821621
  0
VERTEX
  8
FOREGROUND
  6
CONTINUOUS
 10
5.067528
 20
0.837581
  0
VERTEX
  8
FOREGROUND
  6
CONTINUOUS
 10
5.083442
 20
0.853705
  0
VERTEX
  8
FOREGROUND
  6
CONTINUOUS
 10
5.099137
 20
0.869993
  0
VERTEX
  8
FOREGROUND
  6
CONTINUOUS
 10
5.114611
 20
0.886444
  0
VERTEX
  8
FOREGROUND
  6
CONTINUOUS
 10
5.129862
 20
0.903059
  0
VERTEX
  8
FOREGROUND
  6
CONTINUOUS
 10
5.144886
 20
0.919838
  0
VERTEX
  8
FOREGROUND
  6
CONTINUOUS
 10
5.159682
 20
0.936781
  0
VERTEX
  8
FOREGROUND
  6
CONTINUOUS
 10
5.174248
 20
0.953887
  0
VERTEX
  8
FOREGROUND
  6
CONTINUOUS
 10
5.188582
 20
0.971157
  0
VERTEX
  8
FOREGROUND
  6
CONTINUOUS
 10
5.202681
 20
0.988591
  0
VERTEX
  8
FOREGROUND
  6
CONTINUOUS
 10
5.216543
 20
1.006188
  0
VERTEX
  8
FOREGROUND
  6
CONTINUOUS
 10
5.230166
 20
1.023950
  0
VERTEX
  8
FOREGROUND
  6
CONTINUOUS
 10
5.243547
 20
1.041875
  0
VERTEX
  8
FOREGROUND
  6
CONTINUOUS
 10
5.256685
 20
1.059963
  0
VERTEX
  8
FOREGROUND
  6
CONTINUOUS
 10
5.269577
 20
1.078216
  0
VERTEX
  8
FOREGROUND
  6
CONTINUOUS
 10
5.282221
 20
1.096632
  0
VERTEX
  8
FOREGROUND
  6
CONTINUOUS
 10
5.294615
 20
1.115212
  0
VERTEX
  8
FOREGROUND
  6
CONTINUOUS
 10
5.306757
 20
1.133956
  0
VERTEX
  8
FOREGROUND
  6
CONTINUOUS
 10
5.318644
 20
1.152863
  0
VERTEX
  8
FOREGROUND
  6
CONTINUOUS
 10
5.330274
 20
1.171934
  0
VERTEX
  8
FOREGROUND
  6
CONTINUOUS
 10
5.341645
 20
1.191169
  0
VERTEX
  8
FOREGROUND
  6
CONTINUOUS
 10
5.352755
 20
1.210568
  0
VERTEX
  8
FOREGROUND
  6
CONTINUOUS
 10
5.363601
 20
1.230130
  0
VERTEX
  8
FOREGROUND
  6
CONTINUOUS
 10
5.374181
 20
1.249856
  0
VERTEX
  8
FOREGROUND
  6
CONTINUOUS
 10
5.384494
 20
1.269746
  0
VERTEX
  8
FOREGROUND
  6
CONTINUOUS
 10
5.394537
 20
1.289800
  0
VERTEX
  8
FOREGROUND
  6
CONTINUOUS
 10
5.404307
 20
1.310017
  0
VERTEX
  8
FOREGROUND
  6
CONTINUOUS
 10
5.413802
 20
1.330398
  0
VERTEX
  8
FOREGROUND
  6
CONTINUOUS
 10
5.423021
 20
1.350943
  0
VERTEX
  8
FOREGROUND
  6
CONTINUOUS
 10
5.431960
 20
1.371651
  0
VERTEX
  8
FOREGROUND
  6
CONTINUOUS
 10
5.440619
 20
1.392524
  0
VERTEX
  8
FOREGROUND
  6
CONTINUOUS
 10
5.448994
 20
1.413560
  0
VERTEX
  8
FOREGROUND
  6
CONTINUOUS
 10
5.457083
 20
1.434759
  0
VERTEX
  8
FOREGROUND
  6
CONTINUOUS
 10
5.464885
 20
1.456123
  0
VERTEX
  8
FOREGROUND
  6
CONTINUOUS
 10
5.472396
 20
1.477650
  0
VERTEX
  8
FOREGROUND
  6
CONTINUOUS
 10
5.479615
 20
1.499341
  0
VERTEX
  8
FOREGROUND
  6
CONTINUOUS
 10
5.486540
 20
1.521196
  0
VERTEX
  8
FOREGROUND
  6
CONTINUOUS
 10
5.493168
 20
1.543214
  0
VERTEX
  8
FOREGROUND
  6
CONTINUOUS
 10
5.499497
 20
1.565396
  0
VERTEX
  8
FOREGROUND
  6
CONTINUOUS
 10
5.505525
 20
1.587742
  0
VERTEX
  8
FOREGROUND
  6
CONTINUOUS
 10
5.511249
 20
1.610252
  0
VERTEX
  8
FOREGROUND
  6
CONTINUOUS
 10
5.516668
 20
1.632925
  0
VERTEX
  8
FOREGROUND
  6
CONTINUOUS
 10
5.521779
 20
1.655763
  0
VERTEX
  8
FOREGROUND
  6
CONTINUOUS
 10
5.526580
 20
1.678763
  0
VERTEX
  8
FOREGROUND
  6
CONTINUOUS
 10
5.531068
 20
1.701928
  0
VERTEX
  8
FOREGROUND
  6
CONTINUOUS
 10
5.535242
 20
1.725256
  0
VERTEX
  8
FOREGROUND
  6
CONTINUOUS
 10
5.539100
 20
1.748749
  0
VERTEX
  8
FOREGROUND
  6
CONTINUOUS
 10
5.542639
 20
1.772404
  0
VERTEX
  8
FOREGROUND
  6
CONTINUOUS
 10
5.545856
 20
1.796224
  0
VERTEX
  8
FOREGROUND
  6
CONTINUOUS
 10
5.548750
 20
1.820207
  0
VERTEX
  8
FOREGROUND
  6
CONTINUOUS
 10
5.551319
 20
1.844354
  0
VERTEX
  8
FOREGROUND
  6
CONTINUOUS
 10
5.553560
 20
1.868665
  0
VERTEX
  8
FOREGROUND
  6
CONTINUOUS
 10
5.555471
 20
1.893140
  0
VERTEX
  8
FOREGROUND
  6
CONTINUOUS
 10
5.557050
 20
1.917778
  0
VERTEX
  8
FOREGROUND
  6
CONTINUOUS
 10
5.558294
 20
1.942580
  0
VERTEX
  8
FOREGROUND
  6
CONTINUOUS
 10
5.559202
 20
1.967546
  0
VERTEX
  8
FOREGROUND
  6
CONTINUOUS
 10
5.559771
 20
1.992676
  0
VERTEX
  8
FOREGROUND
  6
CONTINUOUS
 10
5.559999
 20
2.017969
  0
SEQEND
  8
0
  0
ENDSEC
  0
EOF
