  0
SECTION
  2
HEADER
  9
$ACADVER
  1
AC1006
  9
$EXTMIN
 10
0.000000
 20
0.000000
  9
$EXTMAX
 10
5.613333
 20
3.250000
  9
$LTSCALE
 40
0.166667
  9
$PDMODE
 70
    35
  9
$PDSIZE
 40
0.133333
  0
ENDSEC
  0
SECTION
  2
TABLES
  0
TABLE
  2
LTYPE
 70
     9
  0
LTYPE
  2
CONTINUOUS
 70
    64
  3
Solid line
 72
    65
 73
     0
 40
0.000000
  0
LTYPE
  2
DASHED
 70
    64
  3
__ __ __ __ __ __ __ __ __ __ __ __ __ __ __
 72
    65
 73
     2
 40
0.001250
 49
0.000833
 49
-0.000417
  0
LTYPE
  2
HIDDEN
 70
    64
  3
 _ _ _ _ _ _ _ _ _ _ _ _ _ _ _ _ _ _ _ _ _ _
 72
    65
 73
     2
 40
0.000625
 49
0.000417
 49
-0.000208
  0
LTYPE
  2
CENTER
 70
    64
  3
____ _ ____ _ ____ _ ____ _ ____ _ ____ _ ____
 72
    65
 73
     4
 40
0.003333
 49
0.002083
 49
-0.000417
 49
0.000417
 49
-0.000417
  0
LTYPE
  2
PHANTOM
 70
    64
  3
_____ _ _ _____ _ _ _____ _ _ _____ _ _ ____
 72
    65
 73
     6
 40
0.004167
 49
0.002083
 49
-0.000417
 49
0.000417
 49
-0.000417
 49
0.000417
 49
-0.000417
  0
LTYPE
  2
DOT
 70
    64
  3
...............................................
 72
    65
 73
     2
 40
0.000417
 49
0.000000
 49
-0.000417
  0
LTYPE
  2
DASHDOT
 70
    64
  3
__ . __ . __ . __ . __ . __ . __ . __ . __ . __
 72
    65
 73
     4
 40
0.001667
 49
0.000833
 49
-0.000417
 49
0.000000
 49
-0.000417
  0
LTYPE
  2
BORDER
 70
    64
  3
__ __ . __ __ . __ __ . __ __ . __ __ . __ __
 72
    65
 73
     6
 40
0.002917
 49
0.000833
 49
-0.000417
 49
0.000833
 49
-0.000417
 49
0.000000
 49
-0.000417
  0
LTYPE
  2
DIVIDE
 70
    64
  3
__ . . __ . . __ . . __ . . __ . . __ . . __
 72
    65
 73
     6
 40
0.002083
 49
0.000833
 49
-0.000417
 49
0.000000
 49
-0.000417
 49
0.000000
 49
-0.000417
  0
LTYPE
  2
DOTDOT
 70
    64
  3
 . .  . .  . .  . .  . .  . . 
 72
    65
 73
     5
 40
0.000917
 49
-0.000417
 49
0.000000
 49
-0.000417
 49
0.000000
 49
-0.000417
  0
ENDTAB
  0
TABLE
  2
STYLE
 70
     2
  0
STYLE
 70
     0
  2
SN0
 40
0.000000
 41
0.001667
 50
0.000000
 71
     0
 42
0.000000
  3
ROMAND
  0
STYLE
 70
    68
  2
SV0
 40
0.000000
 41
0.001667
 50
0.000000
 71
     0
 42
0.000000
  3
ROMAND
  0
ENDTAB
  0
TABLE
  2
LAYER
 70
     2
  0
LAYER
  2
FOREGROUND
 70
    64
 62
     7
  6
CONTINUOUS
  0
LAYER
  2
BACKGROUND
 70
    65
 62
    -7
  6
CONTINUOUS
  0
ENDTAB
  0
ENDSEC
  0
SECTION
  2
ENTITIES
  0
POLYLINE
  8
FOREGROUND
  6
CONTINUOUS
 66
     1
 40
0.010000
 41
0.010000
 70
     1
  0
VERTEX
  8
FOREGROUND
  6
CONTINUOUS
 10
5.563331
 20
1.625000
  0
VERTEX
  8
FOREGROUND
  6
CONTINUOUS
 10
5.563155
 20
1.646069
  0
VERTEX
  8
FOREGROUND
  6
CONTINUOUS
 10
5.562609
 20
1.666996
  0
VERTEX
  8
FOREGROUND
  6
CONTINUOUS
 10
5.561696
 20
1.687782
  0
VERTEX
  8
FOREGROUND
  6
CONTINUOUS
 10
5.560418
 20
1.708425
  0
VERTEX
  8
FOREGROUND
  6
CONTINUOUS
 10
5.558778
 20
1.728926
  0
VERTEX
  8
FOREGROUND
  6
CONTINUOUS
 10
5.556778
 20
1.749286
  0
VERTEX
  8
FOREGROUND
  6
CONTINUOUS
 10
5.554421
 20
1.769504
  0
VERTEX
  8
FOREGROUND
  6
CONTINUOUS
 10
5.551710
 20
1.789580
  0
VERTEX
  8
FOREGROUND
  6
CONTINUOUS
 10
5.548646
 20
1.809514
  0
VERTEX
  8
FOREGROUND
  6
CONTINUOUS
 10
5.545233
 20
1.829306
  0
VERTEX
  8
FOREGROUND
  6
CONTINUOUS
 10
5.541472
 20
1.848957
  0
VERTEX
  8
FOREGROUND
  6
CONTINUOUS
 10
5.537367
 20
1.868465
  0
VERTEX
  8
FOREGROUND
  6
CONTINUOUS
 10
5.532919
 20
1.887832
  0
VERTEX
  8
FOREGROUND
  6
CONTINUOUS
 10
5.528132
 20
1.907056
  0
VERTEX
  8
FOREGROUND
  6
CONTINUOUS
 10
5.523008
 20
1.926139
  0
VERTEX
  8
FOREGROUND
  6
CONTINUOUS
 10
5.517549
 20
1.945080
  0
VERTEX
  8
FOREGROUND
  6
CONTINUOUS
 10
5.511757
 20
1.963879
  0
VERTEX
  8
FOREGROUND
  6
CONTINUOUS
 10
5.505636
 20
1.982537
  0
VERTEX
  8
FOREGROUND
  6
CONTINUOUS
 10
5.499188
 20
2.001052
  0
VERTEX
  8
FOREGROUND
  6
CONTINUOUS
 10
5.492415
 20
2.019425
  0
VERTEX
  8
FOREGROUND
  6
CONTINUOUS
 10
5.485320
 20
2.037657
  0
VERTEX
  8
FOREGROUND
  6
CONTINUOUS
 10
5.477905
 20
2.055747
  0
VERTEX
  8
FOREGROUND
  6
CONTINUOUS
 10
5.470173
 20
2.073695
  0
VERTEX
  8
FOREGROUND
  6
CONTINUOUS
 10
5.462126
 20
2.091501
  0
VERTEX
  8
FOREGROUND
  6
CONTINUOUS
 10
5.453767
 20
2.109165
  0
VERTEX
  8
FOREGROUND
  6
CONTINUOUS
 10
5.445098
 20
2.126687
  0
VERTEX
  8
FOREGROUND
  6
CONTINUOUS
 10
5.436122
 20
2.144068
  0
VERTEX
  8
FOREGROUND
  6
CONTINUOUS
 10
5.426841
 20
2.161306
  0
VERTEX
  8
FOREGROUND
  6
CONTINUOUS
 10
5.417257
 20
2.178403
  0
VERTEX
  8
FOREGROUND
  6
CONTINUOUS
 10
5.407374
 20
2.195358
  0
VERTEX
  8
FOREGROUND
  6
CONTINUOUS
 10
5.397194
 20
2.212171
  0
VERTEX
  8
FOREGROUND
  6
CONTINUOUS
 10
5.386719
 20
2.228842
  0
VERTEX
  8
FOREGROUND
  6
CONTINUOUS
 10
5.375952
 20
2.245371
  0
VERTEX
  8
FOREGROUND
  6
CONTINUOUS
 10
5.364895
 20
2.261758
  0
VERTEX
  8
FOREGROUND
  6
CONTINUOUS
 10
5.353550
 20
2.278004
  0
VERTEX
  8
FOREGROUND
  6
CONTINUOUS
 10
5.341921
 20
2.294107
  0
VERTEX
  8
FOREGROUND
  6
CONTINUOUS
 10
5.330010
 20
2.310069
  0
VERTEX
  8
FOREGROUND
  6
CONTINUOUS
 10
5.317818
 20
2.325889
  0
VERTEX
  8
FOREGROUND
  6
CONTINUOUS
 10
5.305350
 20
2.341567
  0
VERTEX
  8
FOREGROUND
  6
CONTINUOUS
 10
5.292606
 20
2.357103
  0
VERTEX
  8
FOREGROUND
  6
CONTINUOUS
 10
5.279590
 20
2.372497
  0
VERTEX
  8
FOREGROUND
  6
CONTINUOUS
 10
5.266305
 20
2.387749
  0
VERTEX
  8
FOREGROUND
  6
CONTINUOUS
 10
5.252752
 20
2.402860
  0
VERTEX
  8
FOREGROUND
  6
CONTINUOUS
 10
5.238934
 20
2.417828
  0
VERTEX
  8
FOREGROUND
  6
CONTINUOUS
 10
5.224854
 20
2.432655
  0
VERTEX
  8
FOREGROUND
  6
CONTINUOUS
 10
5.210514
 20
2.447340
  0
VERTEX
  8
FOREGROUND
  6
CONTINUOUS
 10
5.195917
 20
2.461883
  0
VERTEX
  8
FOREGROUND
  6
CONTINUOUS
 10
5.181065
 20
2.476284
  0
VERTEX
  8
FOREGROUND
  6
CONTINUOUS
 10
5.165961
 20
2.490543
  0
VERTEX
  8
FOREGROUND
  6
CONTINUOUS
 10
5.150606
 20
2.504661
  0
VERTEX
  8
FOREGROUND
  6
CONTINUOUS
 10
5.135005
 20
2.518636
  0
VERTEX
  8
FOREGROUND
  6
CONTINUOUS
 10
5.119158
 20
2.532470
  0
VERTEX
  8
FOREGROUND
  6
CONTINUOUS
 10
5.103069
 20
2.546162
  0
VERTEX
  8
FOREGROUND
  6
CONTINUOUS
 10
5.086741
 20
2.559711
  0
VERTEX
  8
FOREGROUND
  6
CONTINUOUS
 10
5.070174
 20
2.573119
  0
VERTEX
  8
FOREGROUND
  6
CONTINUOUS
 10
5.053373
 20
2.586386
  0
VERTEX
  8
FOREGROUND
  6
CONTINUOUS
 10
5.036340
 20
2.599510
  0
VERTEX
  8
FOREGROUND
  6
CONTINUOUS
 10
5.019077
 20
2.612492
  0
VERTEX
  8
FOREGROUND
  6
CONTINUOUS
 10
5.001586
 20
2.625333
  0
VERTEX
  8
FOREGROUND
  6
CONTINUOUS
 10
4.983871
 20
2.638031
  0
VERTEX
  8
FOREGROUND
  6
CONTINUOUS
 10
4.965933
 20
2.650588
  0
VERTEX
  8
FOREGROUND
  6
CONTINUOUS
 10
4.947775
 20
2.663003
  0
VERTEX
  8
FOREGROUND
  6
CONTINUOUS
 10
4.929399
 20
2.675276
  0
VERTEX
  8
FOREGROUND
  6
CONTINUOUS
 10
4.910809
 20
2.687407
  0
VERTEX
  8
FOREGROUND
  6
CONTINUOUS
 10
4.892007
 20
2.699396
  0
VERTEX
  8
FOREGROUND
  6
CONTINUOUS
 10
4.872994
 20
2.711244
  0
VERTEX
  8
FOREGROUND
  6
CONTINUOUS
 10
4.853774
 20
2.722949
  0
VERTEX
  8
FOREGROUND
  6
CONTINUOUS
 10
4.834349
 20
2.734513
  0
VERTEX
  8
FOREGROUND
  6
CONTINUOUS
 10
4.814722
 20
2.745935
  0
VERTEX
  8
FOREGROUND
  6
CONTINUOUS
 10
4.794895
 20
2.757215
  0
VERTEX
  8
FOREGROUND
  6
CONTINUOUS
 10
4.774870
 20
2.768353
  0
VERTEX
  8
FOREGROUND
  6
CONTINUOUS
 10
4.754651
 20
2.779349
  0
VERTEX
  8
FOREGROUND
  6
CONTINUOUS
 10
4.734238
 20
2.790203
  0
VERTEX
  8
FOREGROUND
  6
CONTINUOUS
 10
4.713636
 20
2.800916
  0
VERTEX
  8
FOREGROUND
  6
CONTINUOUS
 10
4.692847
 20
2.811486
  0
VERTEX
  8
FOREGROUND
  6
CONTINUOUS
 10
4.671872
 20
2.821915
  0
VERTEX
  8
FOREGROUND
  6
CONTINUOUS
 10
4.650716
 20
2.832202
  0
VERTEX
  8
FOREGROUND
  6
CONTINUOUS
 10
4.629379
 20
2.842347
  0
VERTEX
  8
FOREGROUND
  6
CONTINUOUS
 10
4.607864
 20
2.852350
  0
VERTEX
  8
FOREGROUND
  6
CONTINUOUS
 10
4.586175
 20
2.862211
  0
VERTEX
  8
FOREGROUND
  6
CONTINUOUS
 10
4.564313
 20
2.871930
  0
VERTEX
  8
FOREGROUND
  6
CONTINUOUS
 10
4.542281
 20
2.881507
  0
VERTEX
  8
FOREGROUND
  6
CONTINUOUS
 10
4.520082
 20
2.890943
  0
VERTEX
  8
FOREGROUND
  6
CONTINUOUS
 10
4.497718
 20
2.900237
  0
VERTEX
  8
FOREGROUND
  6
CONTINUOUS
 10
4.475191
 20
2.909388
  0
VERTEX
  8
FOREGROUND
  6
CONTINUOUS
 10
4.452504
 20
2.918398
  0
VERTEX
  8
FOREGROUND
  6
CONTINUOUS
 10
4.429660
 20
2.927266
  0
VERTEX
  8
FOREGROUND
  6
CONTINUOUS
 10
4.406660
 20
2.935993
  0
VERTEX
  8
FOREGROUND
  6
CONTINUOUS
 10
4.383509
 20
2.944577
  0
VERTEX
  8
FOREGROUND
  6
CONTINUOUS
 10
4.360207
 20
2.953019
  0
VERTEX
  8
FOREGROUND
  6
CONTINUOUS
 10
4.336757
 20
2.961320
  0
VERTEX
  8
FOREGROUND
  6
CONTINUOUS
 10
4.313163
 20
2.969478
  0
VERTEX
  8
FOREGROUND
  6
CONTINUOUS
 10
4.289426
 20
2.977495
  0
VERTEX
  8
FOREGROUND
  6
CONTINUOUS
 10
4.265549
 20
2.985370
  0
VERTEX
  8
FOREGROUND
  6
CONTINUOUS
 10
4.241534
 20
2.993103
  0
VERTEX
  8
FOREGROUND
  6
CONTINUOUS
 10
4.217385
 20
3.000694
  0
VERTEX
  8
FOREGROUND
  6
CONTINUOUS
 10
4.193103
 20
3.008144
  0
VERTEX
  8
FOREGROUND
  6
CONTINUOUS
 10
4.168690
 20
3.015451
  0
VERTEX
  8
FOREGROUND
  6
CONTINUOUS
 10
4.144151
 20
3.022617
  0
VERTEX
  8
FOREGROUND
  6
CONTINUOUS
 10
4.119486
 20
3.029640
  0
VERTEX
  8
FOREGROUND
  6
CONTINUOUS
 10
4.094698
 20
3.036522
  0
VERTEX
  8
FOREGROUND
  6
CONTINUOUS
 10
4.069791
 20
3.043262
  0
VERTEX
  8
FOREGROUND
  6
CONTINUOUS
 10
4.044766
 20
3.049860
  0
VERTEX
  8
FOREGROUND
  6
CONTINUOUS
 10
4.019626
 20
3.056316
  0
VERTEX
  8
FOREGROUND
  6
CONTINUOUS
 10
3.994373
 20
3.062630
  0
VERTEX
  8
FOREGROUND
  6
CONTINUOUS
 10
3.969010
 20
3.068803
  0
VERTEX
  8
FOREGROUND
  6
CONTINUOUS
 10
3.943540
 20
3.074833
  0
VERTEX
  8
FOREGROUND
  6
CONTINUOUS
 10
3.917965
 20
3.080722
  0
VERTEX
  8
FOREGROUND
  6
CONTINUOUS
 10
3.892287
 20
3.086469
  0
VERTEX
  8
FOREGROUND
  6
CONTINUOUS
 10
3.866508
 20
3.092074
  0
VERTEX
  8
FOREGROUND
  6
CONTINUOUS
 10
3.840633
 20
3.097537
  0
VERTEX
  8
FOREGROUND
  6
CONTINUOUS
 10
3.814662
 20
3.102858
  0
VERTEX
  8
FOREGROUND
  6
CONTINUOUS
 10
3.788598
 20
3.108037
  0
VERTEX
  8
FOREGROUND
  6
CONTINUOUS
 10
3.762445
 20
3.113075
  0
VERTEX
  8
FOREGROUND
  6
CONTINUOUS
 10
3.736203
 20
3.117970
  0
VERTEX
  8
FOREGROUND
  6
CONTINUOUS
 10
3.709877
 20
3.122724
  0
VERTEX
  8
FOREGROUND
  6
CONTINUOUS
 10
3.683468
 20
3.127336
  0
VERTEX
  8
FOREGROUND
  6
CONTINUOUS
 10
3.656979
 20
3.131805
  0
VERTEX
  8
FOREGROUND
  6
CONTINUOUS
 10
3.630412
 20
3.136133
  0
VERTEX
  8
FOREGROUND
  6
CONTINUOUS
 10
3.603770
 20
3.140320
  0
VERTEX
  8
FOREGROUND
  6
CONTINUOUS
 10
3.577055
 20
3.144364
  0
VERTEX
  8
FOREGROUND
  6
CONTINUOUS
 10
3.550271
 20
3.148266
  0
VERTEX
  8
FOREGROUND
  6
CONTINUOUS
 10
3.523418
 20
3.152027
  0
VERTEX
  8
FOREGROUND
  6
CONTINUOUS
 10
3.496501
 20
3.155645
  0
VERTEX
  8
FOREGROUND
  6
CONTINUOUS
 10
3.469520
 20
3.159122
  0
VERTEX
  8
FOREGROUND
  6
CONTINUOUS
 10
3.442480
 20
3.162457
  0
VERTEX
  8
FOREGROUND
  6
CONTINUOUS
 10
3.415382
 20
3.165650
  0
VERTEX
  8
FOREGROUND
  6
CONTINUOUS
 10
3.388229
 20
3.168701
  0
VERTEX
  8
FOREGROUND
  6
CONTINUOUS
 10
3.361023
 20
3.171610
  0
VERTEX
  8
FOREGROUND
  6
CONTINUOUS
 10
3.333766
 20
3.174378
  0
VERTEX
  8
FOREGROUND
  6
CONTINUOUS
 10
3.306463
 20
3.177003
  0
VERTEX
  8
FOREGROUND
  6
CONTINUOUS
 10
3.279114
 20
3.179487
  0
VERTEX
  8
FOREGROUND
  6
CONTINUOUS
 10
3.251722
 20
3.181829
  0
VERTEX
  8
FOREGROUND
  6
CONTINUOUS
 10
3.224290
 20
3.184028
  0
VERTEX
  8
FOREGROUND
  6
CONTINUOUS
 10
3.196820
 20
3.186086
  0
VERTEX
  8
FOREGROUND
  6
CONTINUOUS
 10
3.169315
 20
3.188002
  0
VERTEX
  8
FOREGROUND
  6
CONTINUOUS
 10
3.141778
 20
3.189777
  0
VERTEX
  8
FOREGROUND
  6
CONTINUOUS
 10
3.114210
 20
3.191409
  0
VERTEX
  8
FOREGROUND
  6
CONTINUOUS
 10
3.086615
 20
3.192899
  0
VERTEX
  8
FOREGROUND
  6
CONTINUOUS
 10
3.058994
 20
3.194248
  0
VERTEX
  8
FOREGROUND
  6
CONTINUOUS
 10
3.031350
 20
3.195455
  0
VERTEX
  8
FOREGROUND
  6
CONTINUOUS
 10
3.003687
 20
3.196520
  0
VERTEX
  8
FOREGROUND
  6
CONTINUOUS
 10
2.976005
 20
3.197443
  0
VERTEX
  8
FOREGROUND
  6
CONTINUOUS
 10
2.948308
 20
3.198224
  0
VERTEX
  8
FOREGROUND
  6
CONTINUOUS
 10
2.920599
 20
3.198863
  0
VERTEX
  8
FOREGROUND
  6
CONTINUOUS
 10
2.892879
 20
3.199360
  0
VERTEX
  8
FOREGROUND
  6
CONTINUOUS
 10
2.865152
 20
3.199715
  0
VERTEX
  8
FOREGROUND
  6
CONTINUOUS
 10
2.837419
 20
3.199929
  0
VERTEX
  8
FOREGROUND
  6
CONTINUOUS
 10
2.809683
 20
3.200001
  0
VERTEX
  8
FOREGROUND
  6
CONTINUOUS
 10
2.781948
 20
3.199931
  0
VERTEX
  8
FOREGROUND
  6
CONTINUOUS
 10
2.754214
 20
3.199718
  0
VERTEX
  8
FOREGROUND
  6
CONTINUOUS
 10
2.726485
 20
3.199364
  0
VERTEX
  8
FOREGROUND
  6
CONTINUOUS
 10
2.698764
 20
3.198869
  0
VERTEX
  8
FOREGROUND
  6
CONTINUOUS
 10
2.671052
 20
3.198231
  0
VERTEX
  8
FOREGROUND
  6
CONTINUOUS
 10
2.643352
 20
3.197451
  0
VERTEX
  8
FOREGROUND
  6
CONTINUOUS
 10
2.615667
 20
3.196530
  0
VERTEX
  8
FOREGROUND
  6
CONTINUOUS
 10
2.587999
 20
3.195466
  0
VERTEX
  8
FOREGROUND
  6
CONTINUOUS
 10
2.560351
 20
3.194261
  0
VERTEX
  8
FOREGROUND
  6
CONTINUOUS
 10
2.532725
 20
3.192914
  0
VERTEX
  8
FOREGROUND
  6
CONTINUOUS
 10
2.505124
 20
3.191425
  0
VERTEX
  8
FOREGROUND
  6
CONTINUOUS
 10
2.477550
 20
3.189794
  0
VERTEX
  8
FOREGROUND
  6
CONTINUOUS
 10
2.450006
 20
3.188021
  0
VERTEX
  8
FOREGROUND
  6
CONTINUOUS
 10
2.422493
 20
3.186107
  0
VERTEX
  8
FOREGROUND
  6
CONTINUOUS
 10
2.395016
 20
3.184050
  0
VERTEX
  8
FOREGROUND
  6
CONTINUOUS
 10
2.367575
 20
3.181852
  0
VERTEX
  8
FOREGROUND
  6
CONTINUOUS
 10
2.340175
 20
3.179512
  0
VERTEX
  8
FOREGROUND
  6
CONTINUOUS
 10
2.312816
 20
3.177029
  0
VERTEX
  8
FOREGROUND
  6
CONTINUOUS
 10
2.285502
 20
3.174405
  0
VERTEX
  8
FOREGROUND
  6
CONTINUOUS
 10
2.258236
 20
3.171640
  0
VERTEX
  8
FOREGROUND
  6
CONTINUOUS
 10
2.231018
 20
3.168732
  0
VERTEX
  8
FOREGROUND
  6
CONTINUOUS
 10
2.203854
 20
3.165682
  0
VERTEX
  8
FOREGROUND
  6
CONTINUOUS
 10
2.176743
 20
3.162490
  0
VERTEX
  8
FOREGROUND
  6
CONTINUOUS
 10
2.149690
 20
3.159157
  0
VERTEX
  8
FOREGROUND
  6
CONTINUOUS
 10
2.122696
 20
3.155682
  0
VERTEX
  8
FOREGROUND
  6
CONTINUOUS
 10
2.095765
 20
3.152065
  0
VERTEX
  8
FOREGROUND
  6
CONTINUOUS
 10
2.068898
 20
3.148305
  0
VERTEX
  8
FOREGROUND
  6
CONTINUOUS
 10
2.042099
 20
3.144404
  0
VERTEX
  8
FOREGROUND
  6
CONTINUOUS
 10
2.015368
 20
3.140362
  0
VERTEX
  8
FOREGROUND
  6
CONTINUOUS
 10
1.988710
 20
3.136177
  0
VERTEX
  8
FOREGROUND
  6
CONTINUOUS
 10
1.962127
 20
3.131850
  0
VERTEX
  8
FOREGROUND
  6
CONTINUOUS
 10
1.935621
 20
3.127382
  0
VERTEX
  8
FOREGROUND
  6
CONTINUOUS
 10
1.909194
 20
3.122771
  0
VERTEX
  8
FOREGROUND
  6
CONTINUOUS
 10
1.882849
 20
3.118019
  0
VERTEX
  8
FOREGROUND
  6
CONTINUOUS
 10
1.856589
 20
3.113125
  0
VERTEX
  8
FOREGROUND
  6
CONTINUOUS
 10
1.830417
 20
3.108089
  0
VERTEX
  8
FOREGROUND
  6
CONTINUOUS
 10
1.804333
 20
3.102911
  0
VERTEX
  8
FOREGROUND
  6
CONTINUOUS
 10
1.778342
 20
3.097591
  0
VERTEX
  8
FOREGROUND
  6
CONTINUOUS
 10
1.752445
 20
3.092130
  0
VERTEX
  8
FOREGROUND
  6
CONTINUOUS
 10
1.726646
 20
3.086526
  0
VERTEX
  8
FOREGROUND
  6
CONTINUOUS
 10
1.700946
 20
3.080781
  0
VERTEX
  8
FOREGROUND
  6
CONTINUOUS
 10
1.675347
 20
3.074893
  0
VERTEX
  8
FOREGROUND
  6
CONTINUOUS
 10
1.649854
 20
3.068864
  0
VERTEX
  8
FOREGROUND
  6
CONTINUOUS
 10
1.624468
 20
3.062693
  0
VERTEX
  8
FOREGROUND
  6
CONTINUOUS
 10
1.599191
 20
3.056380
  0
VERTEX
  8
FOREGROUND
  6
CONTINUOUS
 10
1.574026
 20
3.049925
  0
VERTEX
  8
FOREGROUND
  6
CONTINUOUS
 10
1.548976
 20
3.043329
  0
VERTEX
  8
FOREGROUND
  6
CONTINUOUS
 10
1.524042
 20
3.036590
  0
VERTEX
  8
FOREGROUND
  6
CONTINUOUS
 10
1.499229
 20
3.029710
  0
VERTEX
  8
FOREGROUND
  6
CONTINUOUS
 10
1.474537
 20
3.022687
  0
VERTEX
  8
FOREGROUND
  6
CONTINUOUS
 10
1.449970
 20
3.015523
  0
VERTEX
  8
FOREGROUND
  6
CONTINUOUS
 10
1.425529
 20
3.008217
  0
VERTEX
  8
FOREGROUND
  6
CONTINUOUS
 10
1.401219
 20
3.000769
  0
VERTEX
  8
FOREGROUND
  6
CONTINUOUS
 10
1.377040
 20
2.993179
  0
VERTEX
  8
FOREGROUND
  6
CONTINUOUS
 10
1.352996
 20
2.985447
  0
VERTEX
  8
FOREGROUND
  6
CONTINUOUS
 10
1.329089
 20
2.977574
  0
VERTEX
  8
FOREGROUND
  6
CONTINUOUS
 10
1.305321
 20
2.969558
  0
VERTEX
  8
FOREGROUND
  6
CONTINUOUS
 10
1.281695
 20
2.961401
  0
VERTEX
  8
FOREGROUND
  6
CONTINUOUS
 10
1.258214
 20
2.953101
  0
VERTEX
  8
FOREGROUND
  6
CONTINUOUS
 10
1.234880
 20
2.944660
  0
VERTEX
  8
FOREGROUND
  6
CONTINUOUS
 10
1.211695
 20
2.936077
  0
VERTEX
  8
FOREGROUND
  6
CONTINUOUS
 10
1.188663
 20
2.927352
  0
VERTEX
  8
FOREGROUND
  6
CONTINUOUS
 10
1.165784
 20
2.918485
  0
VERTEX
  8
FOREGROUND
  6
CONTINUOUS
 10
1.143063
 20
2.909477
  0
VERTEX
  8
FOREGROUND
  6
CONTINUOUS
 10
1.120501
 20
2.900326
  0
VERTEX
  8
FOREGROUND
  6
CONTINUOUS
 10
1.098101
 20
2.891034
  0
VERTEX
  8
FOREGROUND
  6
CONTINUOUS
 10
1.075866
 20
2.881599
  0
VERTEX
  8
FOREGROUND
  6
CONTINUOUS
 10
1.053797
 20
2.872023
  0
VERTEX
  8
FOREGROUND
  6
CONTINUOUS
 10
1.031898
 20
2.862305
  0
VERTEX
  8
FOREGROUND
  6
CONTINUOUS
 10
1.010171
 20
2.852445
  0
VERTEX
  8
FOREGROUND
  6
CONTINUOUS
 10
0.988618
 20
2.842443
  0
VERTEX
  8
FOREGROUND
  6
CONTINUOUS
 10
0.967243
 20
2.832299
  0
VERTEX
  8
FOREGROUND
  6
CONTINUOUS
 10
0.946046
 20
2.822013
  0
VERTEX
  8
FOREGROUND
  6
CONTINUOUS
 10
0.925032
 20
2.811586
  0
VERTEX
  8
FOREGROUND
  6
CONTINUOUS
 10
0.904202
 20
2.801016
  0
VERTEX
  8
FOREGROUND
  6
CONTINUOUS
 10
0.883559
 20
2.790305
  0
VERTEX
  8
FOREGROUND
  6
CONTINUOUS
 10
0.863105
 20
2.779452
  0
VERTEX
  8
FOREGROUND
  6
CONTINUOUS
 10
0.842843
 20
2.768457
  0
VERTEX
  8
FOREGROUND
  6
CONTINUOUS
 10
0.822776
 20
2.757320
  0
VERTEX
  8
FOREGROUND
  6
CONTINUOUS
 10
0.802906
 20
2.746041
  0
VERTEX
  8
FOREGROUND
  6
CONTINUOUS
 10
0.783235
 20
2.734620
  0
VERTEX
  8
FOREGROUND
  6
CONTINUOUS
 10
0.763765
 20
2.723058
  0
VERTEX
  8
FOREGROUND
  6
CONTINUOUS
 10
0.744501
 20
2.711353
  0
VERTEX
  8
FOREGROUND
  6
CONTINUOUS
 10
0.725443
 20
2.699507
  0
VERTEX
  8
FOREGROUND
  6
CONTINUOUS
 10
0.706594
 20
2.687519
  0
VERTEX
  8
FOREGROUND
  6
CONTINUOUS
 10
0.687958
 20
2.675388
  0
VERTEX
  8
FOREGROUND
  6
CONTINUOUS
 10
0.669535
 20
2.663116
  0
VERTEX
  8
FOREGROUND
  6
CONTINUOUS
 10
0.651330
 20
2.650702
  0
VERTEX
  8
FOREGROUND
  6
CONTINUOUS
 10
0.633344
 20
2.638147
  0
VERTEX
  8
FOREGROUND
  6
CONTINUOUS
 10
0.615580
 20
2.625449
  0
VERTEX
  8
FOREGROUND
  6
CONTINUOUS
 10
0.598040
 20
2.612609
  0
VERTEX
  8
FOREGROUND
  6
CONTINUOUS
 10
0.580727
 20
2.599628
  0
VERTEX
  8
FOREGROUND
  6
CONTINUOUS
 10
0.563643
 20
2.586504
  0
VERTEX
  8
FOREGROUND
  6
CONTINUOUS
 10
0.546791
 20
2.573239
  0
VERTEX
  8
FOREGROUND
  6
CONTINUOUS
 10
0.530174
 20
2.559832
  0
VERTEX
  8
FOREGROUND
  6
CONTINUOUS
 10
0.513793
 20
2.546283
  0
VERTEX
  8
FOREGROUND
  6
CONTINUOUS
 10
0.497652
 20
2.532592
  0
VERTEX
  8
FOREGROUND
  6
CONTINUOUS
 10
0.481752
 20
2.518759
  0
VERTEX
  8
FOREGROUND
  6
CONTINUOUS
 10
0.466097
 20
2.504785
  0
VERTEX
  8
FOREGROUND
  6
CONTINUOUS
 10
0.450689
 20
2.490668
  0
VERTEX
  8
FOREGROUND
  6
CONTINUOUS
 10
0.435530
 20
2.476410
  0
VERTEX
  8
FOREGROUND
  6
CONTINUOUS
 10
0.420622
 20
2.462009
  0
VERTEX
  8
FOREGROUND
  6
CONTINUOUS
 10
0.405970
 20
2.447467
  0
VERTEX
  8
FOREGROUND
  6
CONTINUOUS
 10
0.391573
 20
2.432783
  0
VERTEX
  8
FOREGROUND
  6
CONTINUOUS
 10
0.377437
 20
2.417957
  0
VERTEX
  8
FOREGROUND
  6
CONTINUOUS
 10
0.363561
 20
2.402989
  0
VERTEX
  8
FOREGROUND
  6
CONTINUOUS
 10
0.349951
 20
2.387879
  0
VERTEX
  8
FOREGROUND
  6
CONTINUOUS
 10
0.336607
 20
2.372628
  0
VERTEX
  8
FOREGROUND
  6
CONTINUOUS
 10
0.323532
 20
2.357234
  0
VERTEX
  8
FOREGROUND
  6
CONTINUOUS
 10
0.310729
 20
2.341699
  0
VERTEX
  8
FOREGROUND
  6
CONTINUOUS
 10
0.298200
 20
2.326022
  0
VERTEX
  8
FOREGROUND
  6
CONTINUOUS
 10
0.285948
 20
2.310202
  0
VERTEX
  8
FOREGROUND
  6
CONTINUOUS
 10
0.273976
 20
2.294241
  0
VERTEX
  8
FOREGROUND
  6
CONTINUOUS
 10
0.262285
 20
2.278138
  0
VERTEX
  8
FOREGROUND
  6
CONTINUOUS
 10
0.250878
 20
2.261894
  0
VERTEX
  8
FOREGROUND
  6
CONTINUOUS
 10
0.239758
 20
2.245507
  0
VERTEX
  8
FOREGROUND
  6
CONTINUOUS
 10
0.228928
 20
2.228978
  0
VERTEX
  8
FOREGROUND
  6
CONTINUOUS
 10
0.218389
 20
2.212308
  0
VERTEX
  8
FOREGROUND
  6
CONTINUOUS
 10
0.208144
 20
2.195495
  0
VERTEX
  8
FOREGROUND
  6
CONTINUOUS
 10
0.198196
 20
2.178541
  0
VERTEX
  8
FOREGROUND
  6
CONTINUOUS
 10
0.188547
 20
2.161445
  0
VERTEX
  8
FOREGROUND
  6
CONTINUOUS
 10
0.179200
 20
2.144207
  0
VERTEX
  8
FOREGROUND
  6
CONTINUOUS
 10
0.170158
 20
2.126827
  0
VERTEX
  8
FOREGROUND
  6
CONTINUOUS
 10
0.161422
 20
2.109305
  0
VERTEX
  8
FOREGROUND
  6
CONTINUOUS
 10
0.152995
 20
2.091641
  0
VERTEX
  8
FOREGROUND
  6
CONTINUOUS
 10
0.144880
 20
2.073836
  0
VERTEX
  8
FOREGROUND
  6
CONTINUOUS
 10
0.137079
 20
2.055888
  0
VERTEX
  8
FOREGROUND
  6
CONTINUOUS
 10
0.129594
 20
2.037799
  0
VERTEX
  8
FOREGROUND
  6
CONTINUOUS
 10
0.122429
 20
2.019568
  0
VERTEX
  8
FOREGROUND
  6
CONTINUOUS
 10
0.115586
 20
2.001194
  0
VERTEX
  8
FOREGROUND
  6
CONTINUOUS
 10
0.109067
 20
1.982679
  0
VERTEX
  8
FOREGROUND
  6
CONTINUOUS
 10
0.102874
 20
1.964023
  0
VERTEX
  8
FOREGROUND
  6
CONTINUOUS
 10
0.097011
 20
1.945224
  0
VERTEX
  8
FOREGROUND
  6
CONTINUOUS
 10
0.091479
 20
1.926283
  0
VERTEX
  8
FOREGROUND
  6
CONTINUOUS
 10
0.086282
 20
1.907200
  0
VERTEX
  8
FOREGROUND
  6
CONTINUOUS
 10
0.081421
 20
1.887976
  0
VERTEX
  8
FOREGROUND
  6
CONTINUOUS
 10
0.076899
 20
1.868610
  0
VERTEX
  8
FOREGROUND
  6
CONTINUOUS
 10
0.072719
 20
1.849101
  0
VERTEX
  8
FOREGROUND
  6
CONTINUOUS
 10
0.068884
 20
1.829451
  0
VERTEX
  8
FOREGROUND
  6
CONTINUOUS
 10
0.065394
 20
1.809659
  0
VERTEX
  8
FOREGROUND
  6
CONTINUOUS
 10
0.062254
 20
1.789725
  0
VERTEX
  8
FOREGROUND
  6
CONTINUOUS
 10
0.059466
 20
1.769649
  0
VERTEX
  8
FOREGROUND
  6
CONTINUOUS
 10
0.057032
 20
1.749432
  0
VERTEX
  8
FOREGROUND
  6
CONTINUOUS
 10
0.054954
 20
1.729072
  0
VERTEX
  8
FOREGROUND
  6
CONTINUOUS
 10
0.053235
 20
1.708571
  0
VERTEX
  8
FOREGROUND
  6
CONTINUOUS
 10
0.051879
 20
1.687927
  0
VERTEX
  8
FOREGROUND
  6
CONTINUOUS
 10
0.050886
 20
1.667142
  0
VERTEX
  8
FOREGROUND
  6
CONTINUOUS
 10
0.050260
 20
1.646215
  0
VERTEX
  8
FOREGROUND
  6
CONTINUOUS
 10
0.050003
 20
1.625146
  0
VERTEX
  8
FOREGROUND
  6
CONTINUOUS
 10
0.050003
 20
1.625146
  0
VERTEX
  8
FOREGROUND
  6
CONTINUOUS
 10
0.050175
 20
1.604077
  0
VERTEX
  8
FOREGROUND
  6
CONTINUOUS
 10
0.050718
 20
1.583150
  0
VERTEX
  8
FOREGROUND
  6
CONTINUOUS
 10
0.051628
 20
1.562364
  0
VERTEX
  8
FOREGROUND
  6
CONTINUOUS
 10
0.052902
 20
1.541721
  0
VERTEX
  8
FOREGROUND
  6
CONTINUOUS
 10
0.054539
 20
1.521219
  0
VERTEX
  8
FOREGROUND
  6
CONTINUOUS
 10
0.056535
 20
1.500859
  0
VERTEX
  8
FOREGROUND
  6
CONTINUOUS
 10
0.058889
 20
1.480641
  0
VERTEX
  8
FOREGROUND
  6
CONTINUOUS
 10
0.061597
 20
1.460565
  0
VERTEX
  8
FOREGROUND
  6
CONTINUOUS
 10
0.064658
 20
1.440631
  0
VERTEX
  8
FOREGROUND
  6
CONTINUOUS
 10
0.068068
 20
1.420839
  0
VERTEX
  8
FOREGROUND
  6
CONTINUOUS
 10
0.071825
 20
1.401188
  0
VERTEX
  8
FOREGROUND
  6
CONTINUOUS
 10
0.075927
 20
1.381679
  0
VERTEX
  8
FOREGROUND
  6
CONTINUOUS
 10
0.080372
 20
1.362313
  0
VERTEX
  8
FOREGROUND
  6
CONTINUOUS
 10
0.085156
 20
1.343088
  0
VERTEX
  8
FOREGROUND
  6
CONTINUOUS
 10
0.090277
 20
1.324005
  0
VERTEX
  8
FOREGROUND
  6
CONTINUOUS
 10
0.095733
 20
1.305063
  0
VERTEX
  8
FOREGROUND
  6
CONTINUOUS
 10
0.101521
 20
1.286264
  0
VERTEX
  8
FOREGROUND
  6
CONTINUOUS
 10
0.107639
 20
1.267606
  0
VERTEX
  8
FOREGROUND
  6
CONTINUOUS
 10
0.114084
 20
1.249091
  0
VERTEX
  8
FOREGROUND
  6
CONTINUOUS
 10
0.120854
 20
1.230717
  0
VERTEX
  8
FOREGROUND
  6
CONTINUOUS
 10
0.127947
 20
1.212485
  0
VERTEX
  8
FOREGROUND
  6
CONTINUOUS
 10
0.135359
 20
1.194394
  0
VERTEX
  8
FOREGROUND
  6
CONTINUOUS
 10
0.143088
 20
1.176446
  0
VERTEX
  8
FOREGROUND
  6
CONTINUOUS
 10
0.151132
 20
1.158640
  0
VERTEX
  8
FOREGROUND
  6
CONTINUOUS
 10
0.159488
 20
1.140975
  0
VERTEX
  8
FOREGROUND
  6
CONTINUOUS
 10
0.168154
 20
1.123452
  0
VERTEX
  8
FOREGROUND
  6
CONTINUOUS
 10
0.177128
 20
1.106071
  0
VERTEX
  8
FOREGROUND
  6
CONTINUOUS
 10
0.186406
 20
1.088832
  0
VERTEX
  8
FOREGROUND
  6
CONTINUOUS
 10
0.195986
 20
1.071735
  0
VERTEX
  8
FOREGROUND
  6
CONTINUOUS
 10
0.205867
 20
1.054780
  0
VERTEX
  8
FOREGROUND
  6
CONTINUOUS
 10
0.216044
 20
1.037966
  0
VERTEX
  8
FOREGROUND
  6
CONTINUOUS
 10
0.226517
 20
1.021295
  0
VERTEX
  8
FOREGROUND
  6
CONTINUOUS
 10
0.237281
 20
1.004765
  0
VERTEX
  8
FOREGROUND
  6
CONTINUOUS
 10
0.248336
 20
0.988377
  0
VERTEX
  8
FOREGROUND
  6
CONTINUOUS
 10
0.259677
 20
0.972131
  0
VERTEX
  8
FOREGROUND
  6
CONTINUOUS
 10
0.271304
 20
0.956027
  0
VERTEX
  8
FOREGROUND
  6
CONTINUOUS
 10
0.283213
 20
0.940065
  0
VERTEX
  8
FOREGROUND
  6
CONTINUOUS
 10
0.295402
 20
0.924244
  0
VERTEX
  8
FOREGROUND
  6
CONTINUOUS
 10
0.307868
 20
0.908565
  0
VERTEX
  8
FOREGROUND
  6
CONTINUOUS
 10
0.320609
 20
0.893029
  0
VERTEX
  8
FOREGROUND
  6
CONTINUOUS
 10
0.333622
 20
0.877634
  0
VERTEX
  8
FOREGROUND
  6
CONTINUOUS
 10
0.346905
 20
0.862381
  0
VERTEX
  8
FOREGROUND
  6
CONTINUOUS
 10
0.360455
 20
0.847270
  0
VERTEX
  8
FOREGROUND
  6
CONTINUOUS
 10
0.374271
 20
0.832300
  0
VERTEX
  8
FOREGROUND
  6
CONTINUOUS
 10
0.388348
 20
0.817473
  0
VERTEX
  8
FOREGROUND
  6
CONTINUOUS
 10
0.402686
 20
0.802787
  0
VERTEX
  8
FOREGROUND
  6
CONTINUOUS
 10
0.417281
 20
0.788243
  0
VERTEX
  8
FOREGROUND
  6
CONTINUOUS
 10
0.432131
 20
0.773841
  0
VERTEX
  8
FOREGROUND
  6
CONTINUOUS
 10
0.447233
 20
0.759581
  0
VERTEX
  8
FOREGROUND
  6
CONTINUOUS
 10
0.462585
 20
0.745463
  0
VERTEX
  8
FOREGROUND
  6
CONTINUOUS
 10
0.478184
 20
0.731487
  0
VERTEX
  8
FOREGROUND
  6
CONTINUOUS
 10
0.494028
 20
0.717652
  0
VERTEX
  8
FOREGROUND
  6
CONTINUOUS
 10
0.510115
 20
0.703960
  0
VERTEX
  8
FOREGROUND
  6
CONTINUOUS
 10
0.526441
 20
0.690409
  0
VERTEX
  8
FOREGROUND
  6
CONTINUOUS
 10
0.543005
 20
0.677000
  0
VERTEX
  8
FOREGROUND
  6
CONTINUOUS
 10
0.559804
 20
0.663733
  0
VERTEX
  8
FOREGROUND
  6
CONTINUOUS
 10
0.576835
 20
0.650608
  0
VERTEX
  8
FOREGROUND
  6
CONTINUOUS
 10
0.594097
 20
0.637625
  0
VERTEX
  8
FOREGROUND
  6
CONTINUOUS
 10
0.611585
 20
0.624783
  0
VERTEX
  8
FOREGROUND
  6
CONTINUOUS
 10
0.629299
 20
0.612084
  0
VERTEX
  8
FOREGROUND
  6
CONTINUOUS
 10
0.647235
 20
0.599526
  0
VERTEX
  8
FOREGROUND
  6
CONTINUOUS
 10
0.665390
 20
0.587110
  0
VERTEX
  8
FOREGROUND
  6
CONTINUOUS
 10
0.683764
 20
0.574836
  0
VERTEX
  8
FOREGROUND
  6
CONTINUOUS
 10
0.702352
 20
0.562704
  0
VERTEX
  8
FOREGROUND
  6
CONTINUOUS
 10
0.721153
 20
0.550714
  0
VERTEX
  8
FOREGROUND
  6
CONTINUOUS
 10
0.740163
 20
0.538865
  0
VERTEX
  8
FOREGROUND
  6
CONTINUOUS
 10
0.759381
 20
0.527159
  0
VERTEX
  8
FOREGROUND
  6
CONTINUOUS
 10
0.778804
 20
0.515594
  0
VERTEX
  8
FOREGROUND
  6
CONTINUOUS
 10
0.798430
 20
0.504171
  0
VERTEX
  8
FOREGROUND
  6
CONTINUOUS
 10
0.818255
 20
0.492890
  0
VERTEX
  8
FOREGROUND
  6
CONTINUOUS
 10
0.838278
 20
0.481751
  0
VERTEX
  8
FOREGROUND
  6
CONTINUOUS
 10
0.858496
 20
0.470754
  0
VERTEX
  8
FOREGROUND
  6
CONTINUOUS
 10
0.878906
 20
0.459899
  0
VERTEX
  8
FOREGROUND
  6
CONTINUOUS
 10
0.899506
 20
0.449185
  0
VERTEX
  8
FOREGROUND
  6
CONTINUOUS
 10
0.920294
 20
0.438614
  0
VERTEX
  8
FOREGROUND
  6
CONTINUOUS
 10
0.941267
 20
0.428184
  0
VERTEX
  8
FOREGROUND
  6
CONTINUOUS
 10
0.962422
 20
0.417896
  0
VERTEX
  8
FOREGROUND
  6
CONTINUOUS
 10
0.983757
 20
0.407750
  0
VERTEX
  8
FOREGROUND
  6
CONTINUOUS
 10
1.005270
 20
0.397746
  0
VERTEX
  8
FOREGROUND
  6
CONTINUOUS
 10
1.026958
 20
0.387883
  0
VERTEX
  8
FOREGROUND
  6
CONTINUOUS
 10
1.048818
 20
0.378163
  0
VERTEX
  8
FOREGROUND
  6
CONTINUOUS
 10
1.070848
 20
0.368584
  0
VERTEX
  8
FOREGROUND
  6
CONTINUOUS
 10
1.093046
 20
0.359148
  0
VERTEX
  8
FOREGROUND
  6
CONTINUOUS
 10
1.115409
 20
0.349853
  0
VERTEX
  8
FOREGROUND
  6
CONTINUOUS
 10
1.137934
 20
0.340700
  0
VERTEX
  8
FOREGROUND
  6
CONTINUOUS
 10
1.160620
 20
0.331689
  0
VERTEX
  8
FOREGROUND
  6
CONTINUOUS
 10
1.183463
 20
0.322819
  0
VERTEX
  8
FOREGROUND
  6
CONTINUOUS
 10
1.206461
 20
0.314092
  0
VERTEX
  8
FOREGROUND
  6
CONTINUOUS
 10
1.229611
 20
0.305506
  0
VERTEX
  8
FOREGROUND
  6
CONTINUOUS
 10
1.252911
 20
0.297063
  0
VERTEX
  8
FOREGROUND
  6
CONTINUOUS
 10
1.276360
 20
0.288761
  0
VERTEX
  8
FOREGROUND
  6
CONTINUOUS
 10
1.299953
 20
0.280601
  0
VERTEX
  8
FOREGROUND
  6
CONTINUOUS
 10
1.323688
 20
0.272583
  0
VERTEX
  8
FOREGROUND
  6
CONTINUOUS
 10
1.347564
 20
0.264707
  0
VERTEX
  8
FOREGROUND
  6
CONTINUOUS
 10
1.371577
 20
0.256973
  0
VERTEX
  8
FOREGROUND
  6
CONTINUOUS
 10
1.395726
 20
0.249380
  0
VERTEX
  8
FOREGROUND
  6
CONTINUOUS
 10
1.420007
 20
0.241930
  0
VERTEX
  8
FOREGROUND
  6
CONTINUOUS
 10
1.444418
 20
0.234621
  0
VERTEX
  8
FOREGROUND
  6
CONTINUOUS
 10
1.468956
 20
0.227454
  0
VERTEX
  8
FOREGROUND
  6
CONTINUOUS
 10
1.493620
 20
0.220429
  0
VERTEX
  8
FOREGROUND
  6
CONTINUOUS
 10
1.518406
 20
0.213546
  0
VERTEX
  8
FOREGROUND
  6
CONTINUOUS
 10
1.543312
 20
0.206805
  0
VERTEX
  8
FOREGROUND
  6
CONTINUOUS
 10
1.568336
 20
0.200205
  0
VERTEX
  8
FOREGROUND
  6
CONTINUOUS
 10
1.593475
 20
0.193748
  0
VERTEX
  8
FOREGROUND
  6
CONTINUOUS
 10
1.618727
 20
0.187432
  0
VERTEX
  8
FOREGROUND
  6
CONTINUOUS
 10
1.644089
 20
0.181258
  0
VERTEX
  8
FOREGROUND
  6
CONTINUOUS
 10
1.669558
 20
0.175227
  0
VERTEX
  8
FOREGROUND
  6
CONTINUOUS
 10
1.695133
 20
0.169337
  0
VERTEX
  8
FOREGROUND
  6
CONTINUOUS
 10
1.720810
 20
0.163588
  0
VERTEX
  8
FOREGROUND
  6
CONTINUOUS
 10
1.746587
 20
0.157982
  0
VERTEX
  8
FOREGROUND
  6
CONTINUOUS
 10
1.772462
 20
0.152518
  0
VERTEX
  8
FOREGROUND
  6
CONTINUOUS
 10
1.798432
 20
0.147195
  0
VERTEX
  8
FOREGROUND
  6
CONTINUOUS
 10
1.824495
 20
0.142015
  0
VERTEX
  8
FOREGROUND
  6
CONTINUOUS
 10
1.850648
 20
0.136976
  0
VERTEX
  8
FOREGROUND
  6
CONTINUOUS
 10
1.876888
 20
0.132079
  0
VERTEX
  8
FOREGROUND
  6
CONTINUOUS
 10
1.903214
 20
0.127324
  0
VERTEX
  8
FOREGROUND
  6
CONTINUOUS
 10
1.929622
 20
0.122711
  0
VERTEX
  8
FOREGROUND
  6
CONTINUOUS
 10
1.956110
 20
0.118239
  0
VERTEX
  8
FOREGROUND
  6
CONTINUOUS
 10
1.982676
 20
0.113910
  0
VERTEX
  8
FOREGROUND
  6
CONTINUOUS
 10
2.009318
 20
0.109722
  0
VERTEX
  8
FOREGROUND
  6
CONTINUOUS
 10
2.036032
 20
0.105677
  0
VERTEX
  8
FOREGROUND
  6
CONTINUOUS
 10
2.062816
 20
0.101773
  0
VERTEX
  8
FOREGROUND
  6
CONTINUOUS
 10
2.089668
 20
0.098011
  0
VERTEX
  8
FOREGROUND
  6
CONTINUOUS
 10
2.116585
 20
0.094391
  0
VERTEX
  8
FOREGROUND
  6
CONTINUOUS
 10
2.143564
 20
0.090913
  0
VERTEX
  8
FOREGROUND
  6
CONTINUOUS
 10
2.170604
 20
0.087577
  0
VERTEX
  8
FOREGROUND
  6
CONTINUOUS
 10
2.197702
 20
0.084382
  0
VERTEX
  8
FOREGROUND
  6
CONTINUOUS
 10
2.224854
 20
0.081330
  0
VERTEX
  8
FOREGROUND
  6
CONTINUOUS
 10
2.252060
 20
0.078419
  0
VERTEX
  8
FOREGROUND
  6
CONTINUOUS
 10
2.279316
 20
0.075650
  0
VERTEX
  8
FOREGROUND
  6
CONTINUOUS
 10
2.306619
 20
0.073023
  0
VERTEX
  8
FOREGROUND
  6
CONTINUOUS
 10
2.333968
 20
0.070538
  0
VERTEX
  8
FOREGROUND
  6
CONTINUOUS
 10
2.361359
 20
0.068195
  0
VERTEX
  8
FOREGROUND
  6
CONTINUOUS
 10
2.388791
 20
0.065994
  0
VERTEX
  8
FOREGROUND
  6
CONTINUOUS
 10
2.416260
 20
0.063934
  0
VERTEX
  8
FOREGROUND
  6
CONTINUOUS
 10
2.443764
 20
0.062017
  0
VERTEX
  8
FOREGROUND
  6
CONTINUOUS
 10
2.471302
 20
0.060241
  0
VERTEX
  8
FOREGROUND
  6
CONTINUOUS
 10
2.498869
 20
0.058607
  0
VERTEX
  8
FOREGROUND
  6
CONTINUOUS
 10
2.526465
 20
0.057115
  0
VERTEX
  8
FOREGROUND
  6
CONTINUOUS
 10
2.554085
 20
0.055765
  0
VERTEX
  8
FOREGROUND
  6
CONTINUOUS
 10
2.581728
 20
0.054557
  0
VERTEX
  8
FOREGROUND
  6
CONTINUOUS
 10
2.609392
 20
0.053491
  0
VERTEX
  8
FOREGROUND
  6
CONTINUOUS
 10
2.637073
 20
0.052566
  0
VERTEX
  8
FOREGROUND
  6
CONTINUOUS
 10
2.664770
 20
0.051784
  0
VERTEX
  8
FOREGROUND
  6
CONTINUOUS
 10
2.692479
 20
0.051143
  0
VERTEX
  8
FOREGROUND
  6
CONTINUOUS
 10
2.720199
 20
0.050644
  0
VERTEX
  8
FOREGROUND
  6
CONTINUOUS
 10
2.747926
 20
0.050287
  0
VERTEX
  8
FOREGROUND
  6
CONTINUOUS
 10
2.775659
 20
0.050072
  0
VERTEX
  8
FOREGROUND
  6
CONTINUOUS
 10
2.803394
 20
0.049999
  0
VERTEX
  8
FOREGROUND
  6
CONTINUOUS
 10
2.831130
 20
0.050068
  0
VERTEX
  8
FOREGROUND
  6
CONTINUOUS
 10
2.858864
 20
0.050279
  0
VERTEX
  8
FOREGROUND
  6
CONTINUOUS
 10
2.886593
 20
0.050631
  0
VERTEX
  8
FOREGROUND
  6
CONTINUOUS
 10
2.914314
 20
0.051126
  0
VERTEX
  8
FOREGROUND
  6
CONTINUOUS
 10
2.942026
 20
0.051762
  0
VERTEX
  8
FOREGROUND
  6
CONTINUOUS
 10
2.969726
 20
0.052540
  0
VERTEX
  8
FOREGROUND
  6
CONTINUOUS
 10
2.997411
 20
0.053460
  0
VERTEX
  8
FOREGROUND
  6
CONTINUOUS
 10
3.025079
 20
0.054522
  0
VERTEX
  8
FOREGROUND
  6
CONTINUOUS
 10
3.052728
 20
0.055726
  0
VERTEX
  8
FOREGROUND
  6
CONTINUOUS
 10
3.080354
 20
0.057071
  0
VERTEX
  8
FOREGROUND
  6
CONTINUOUS
 10
3.107955
 20
0.058559
  0
VERTEX
  8
FOREGROUND
  6
CONTINUOUS
 10
3.135530
 20
0.060188
  0
VERTEX
  8
FOREGROUND
  6
CONTINUOUS
 10
3.163074
 20
0.061960
  0
VERTEX
  8
FOREGROUND
  6
CONTINUOUS
 10
3.190587
 20
0.063873
  0
VERTEX
  8
FOREGROUND
  6
CONTINUOUS
 10
3.218065
 20
0.065928
  0
VERTEX
  8
FOREGROUND
  6
CONTINUOUS
 10
3.245505
 20
0.068125
  0
VERTEX
  8
FOREGROUND
  6
CONTINUOUS
 10
3.272906
 20
0.070464
  0
VERTEX
  8
FOREGROUND
  6
CONTINUOUS
 10
3.300265
 20
0.072944
  0
VERTEX
  8
FOREGROUND
  6
CONTINUOUS
 10
3.327580
 20
0.075567
  0
VERTEX
  8
FOREGROUND
  6
CONTINUOUS
 10
3.354847
 20
0.078331
  0
VERTEX
  8
FOREGROUND
  6
CONTINUOUS
 10
3.382064
 20
0.081238
  0
VERTEX
  8
FOREGROUND
  6
CONTINUOUS
 10
3.409230
 20
0.084286
  0
VERTEX
  8
FOREGROUND
  6
CONTINUOUS
 10
3.436341
 20
0.087476
  0
VERTEX
  8
FOREGROUND
  6
CONTINUOUS
 10
3.463394
 20
0.090808
  0
VERTEX
  8
FOREGROUND
  6
CONTINUOUS
 10
3.490389
 20
0.094282
  0
VERTEX
  8
FOREGROUND
  6
CONTINUOUS
 10
3.517321
 20
0.097898
  0
VERTEX
  8
FOREGROUND
  6
CONTINUOUS
 10
3.544188
 20
0.101655
  0
VERTEX
  8
FOREGROUND
  6
CONTINUOUS
 10
3.570988
 20
0.105555
  0
VERTEX
  8
FOREGROUND
  6
CONTINUOUS
 10
3.597719
 20
0.109596
  0
VERTEX
  8
FOREGROUND
  6
CONTINUOUS
 10
3.624378
 20
0.113780
  0
VERTEX
  8
FOREGROUND
  6
CONTINUOUS
 10
3.650962
 20
0.118105
  0
VERTEX
  8
FOREGROUND
  6
CONTINUOUS
 10
3.677469
 20
0.122572
  0
VERTEX
  8
FOREGROUND
  6
CONTINUOUS
 10
3.703896
 20
0.127181
  0
VERTEX
  8
FOREGROUND
  6
CONTINUOUS
 10
3.730242
 20
0.131932
  0
VERTEX
  8
FOREGROUND
  6
CONTINUOUS
 10
3.756502
 20
0.136825
  0
VERTEX
  8
FOREGROUND
  6
CONTINUOUS
 10
3.782676
 20
0.141859
  0
VERTEX
  8
FOREGROUND
  6
CONTINUOUS
 10
3.808760
 20
0.147036
  0
VERTEX
  8
FOREGROUND
  6
CONTINUOUS
 10
3.834752
 20
0.152354
  0
VERTEX
  8
FOREGROUND
  6
CONTINUOUS
 10
3.860650
 20
0.157814
  0
VERTEX
  8
FOREGROUND
  6
CONTINUOUS
 10
3.886451
 20
0.163416
  0
VERTEX
  8
FOREGROUND
  6
CONTINUOUS
 10
3.912152
 20
0.169161
  0
VERTEX
  8
FOREGROUND
  6
CONTINUOUS
 10
3.937751
 20
0.175047
  0
VERTEX
  8
FOREGROUND
  6
CONTINUOUS
 10
3.963245
 20
0.181074
  0
VERTEX
  8
FOREGROUND
  6
CONTINUOUS
 10
3.988632
 20
0.187244
  0
VERTEX
  8
FOREGROUND
  6
CONTINUOUS
 10
4.013910
 20
0.193556
  0
VERTEX
  8
FOREGROUND
  6
CONTINUOUS
 10
4.039076
 20
0.200009
  0
VERTEX
  8
FOREGROUND
  6
CONTINUOUS
 10
4.064128
 20
0.206605
  0
VERTEX
  8
FOREGROUND
  6
CONTINUOUS
 10
4.089062
 20
0.213342
  0
VERTEX
  8
FOREGROUND
  6
CONTINUOUS
 10
4.113877
 20
0.220221
  0
VERTEX
  8
FOREGROUND
  6
CONTINUOUS
 10
4.138570
 20
0.227242
  0
VERTEX
  8
FOREGROUND
  6
CONTINUOUS
 10
4.163138
 20
0.234405
  0
VERTEX
  8
FOREGROUND
  6
CONTINUOUS
 10
4.187579
 20
0.241710
  0
VERTEX
  8
FOREGROUND
  6
CONTINUOUS
 10
4.211891
 20
0.249157
  0
VERTEX
  8
FOREGROUND
  6
CONTINUOUS
 10
4.236071
 20
0.256745
  0
VERTEX
  8
FOREGROUND
  6
CONTINUOUS
 10
4.260117
 20
0.264476
  0
VERTEX
  8
FOREGROUND
  6
CONTINUOUS
 10
4.284025
 20
0.272348
  0
VERTEX
  8
FOREGROUND
  6
CONTINUOUS
 10
4.307794
 20
0.280362
  0
VERTEX
  8
FOREGROUND
  6
CONTINUOUS
 10
4.331421
 20
0.288518
  0
VERTEX
  8
FOREGROUND
  6
CONTINUOUS
 10
4.354904
 20
0.296817
  0
VERTEX
  8
FOREGROUND
  6
CONTINUOUS
 10
4.378239
 20
0.305256
  0
VERTEX
  8
FOREGROUND
  6
CONTINUOUS
 10
4.401425
 20
0.313838
  0
VERTEX
  8
FOREGROUND
  6
CONTINUOUS
 10
4.424459
 20
0.322562
  0
VERTEX
  8
FOREGROUND
  6
CONTINUOUS
 10
4.447339
 20
0.331428
  0
VERTEX
  8
FOREGROUND
  6
CONTINUOUS
 10
4.470062
 20
0.340435
  0
VERTEX
  8
FOREGROUND
  6
CONTINUOUS
 10
4.492625
 20
0.349585
  0
VERTEX
  8
FOREGROUND
  6
CONTINUOUS
 10
4.515027
 20
0.358876
  0
VERTEX
  8
FOREGROUND
  6
CONTINUOUS
 10
4.537264
 20
0.368309
  0
VERTEX
  8
FOREGROUND
  6
CONTINUOUS
 10
4.559334
 20
0.377884
  0
VERTEX
  8
FOREGROUND
  6
CONTINUOUS
 10
4.581234
 20
0.387601
  0
VERTEX
  8
FOREGROUND
  6
CONTINUOUS
 10
4.602963
 20
0.397460
  0
VERTEX
  8
FOREGROUND
  6
CONTINUOUS
 10
4.624517
 20
0.407461
  0
VERTEX
  8
FOREGROUND
  6
CONTINUOUS
 10
4.645895
 20
0.417603
  0
VERTEX
  8
FOREGROUND
  6
CONTINUOUS
 10
4.667093
 20
0.427888
  0
VERTEX
  8
FOREGROUND
  6
CONTINUOUS
 10
4.688109
 20
0.438314
  0
VERTEX
  8
FOREGROUND
  6
CONTINUOUS
 10
4.708941
 20
0.448883
  0
VERTEX
  8
FOREGROUND
  6
CONTINUOUS
 10
4.729585
 20
0.459593
  0
VERTEX
  8
FOREGROUND
  6
CONTINUOUS
 10
4.750041
 20
0.470445
  0
VERTEX
  8
FOREGROUND
  6
CONTINUOUS
 10
4.770304
 20
0.481439
  0
VERTEX
  8
FOREGROUND
  6
CONTINUOUS
 10
4.790373
 20
0.492575
  0
VERTEX
  8
FOREGROUND
  6
CONTINUOUS
 10
4.810246
 20
0.503853
  0
VERTEX
  8
FOREGROUND
  6
CONTINUOUS
 10
4.829919
 20
0.515272
  0
VERTEX
  8
FOREGROUND
  6
CONTINUOUS
 10
4.849390
 20
0.526834
  0
VERTEX
  8
FOREGROUND
  6
CONTINUOUS
 10
4.868656
 20
0.538538
  0
VERTEX
  8
FOREGROUND
  6
CONTINUOUS
 10
4.887716
 20
0.550383
  0
VERTEX
  8
FOREGROUND
  6
CONTINUOUS
 10
4.906567
 20
0.562370
  0
VERTEX
  8
FOREGROUND
  6
CONTINUOUS
 10
4.925205
 20
0.574499
  0
VERTEX
  8
FOREGROUND
  6
CONTINUOUS
 10
4.943630
 20
0.586770
  0
VERTEX
  8
FOREGROUND
  6
CONTINUOUS
 10
4.961837
 20
0.599183
  0
VERTEX
  8
FOREGROUND
  6
CONTINUOUS
 10
4.979825
 20
0.611738
  0
VERTEX
  8
FOREGROUND
  6
CONTINUOUS
 10
4.997591
 20
0.624435
  0
VERTEX
  8
FOREGROUND
  6
CONTINUOUS
 10
5.015133
 20
0.637274
  0
VERTEX
  8
FOREGROUND
  6
CONTINUOUS
 10
5.032448
 20
0.650254
  0
VERTEX
  8
FOREGROUND
  6
CONTINUOUS
 10
5.049534
 20
0.663377
  0
VERTEX
  8
FOREGROUND
  6
CONTINUOUS
 10
5.066388
 20
0.676641
  0
VERTEX
  8
FOREGROUND
  6
CONTINUOUS
 10
5.083008
 20
0.690047
  0
VERTEX
  8
FOREGROUND
  6
CONTINUOUS
 10
5.099391
 20
0.703595
  0
VERTEX
  8
FOREGROUND
  6
CONTINUOUS
 10
5.115534
 20
0.717286
  0
VERTEX
  8
FOREGROUND
  6
CONTINUOUS
 10
5.131436
 20
0.731117
  0
VERTEX
  8
FOREGROUND
  6
CONTINUOUS
 10
5.147093
 20
0.745091
  0
VERTEX
  8
FOREGROUND
  6
CONTINUOUS
 10
5.162504
 20
0.759207
  0
VERTEX
  8
FOREGROUND
  6
CONTINUOUS
 10
5.177665
 20
0.773465
  0
VERTEX
  8
FOREGROUND
  6
CONTINUOUS
 10
5.192575
 20
0.787864
  0
VERTEX
  8
FOREGROUND
  6
CONTINUOUS
 10
5.207230
 20
0.802406
  0
VERTEX
  8
FOREGROUND
  6
CONTINUOUS
 10
5.221629
 20
0.817089
  0
VERTEX
  8
FOREGROUND
  6
CONTINUOUS
 10
5.235768
 20
0.831914
  0
VERTEX
  8
FOREGROUND
  6
CONTINUOUS
 10
5.249645
 20
0.846881
  0
VERTEX
  8
FOREGROUND
  6
CONTINUOUS
 10
5.263259
 20
0.861990
  0
VERTEX
  8
FOREGROUND
  6
CONTINUOUS
 10
5.276605
 20
0.877241
  0
VERTEX
  8
FOREGROUND
  6
CONTINUOUS
 10
5.289682
 20
0.892634
  0
VERTEX
  8
FOREGROUND
  6
CONTINUOUS
 10
5.302488
 20
0.908169
  0
VERTEX
  8
FOREGROUND
  6
CONTINUOUS
 10
5.315019
 20
0.923846
  0
VERTEX
  8
FOREGROUND
  6
CONTINUOUS
 10
5.327274
 20
0.939664
  0
VERTEX
  8
FOREGROUND
  6
CONTINUOUS
 10
5.339249
 20
0.955624
  0
VERTEX
  8
FOREGROUND
  6
CONTINUOUS
 10
5.350942
 20
0.971727
  0
VERTEX
  8
FOREGROUND
  6
CONTINUOUS
 10
5.362352
 20
0.987971
  0
VERTEX
  8
FOREGROUND
  6
CONTINUOUS
 10
5.373474
 20
1.004357
  0
VERTEX
  8
FOREGROUND
  6
CONTINUOUS
 10
5.384307
 20
1.020885
  0
VERTEX
  8
FOREGROUND
  6
CONTINUOUS
 10
5.394849
 20
1.037555
  0
VERTEX
  8
FOREGROUND
  6
CONTINUOUS
 10
5.405096
 20
1.054367
  0
VERTEX
  8
FOREGROUND
  6
CONTINUOUS
 10
5.415047
 20
1.071321
  0
VERTEX
  8
FOREGROUND
  6
CONTINUOUS
 10
5.424699
 20
1.088416
  0
VERTEX
  8
FOREGROUND
  6
CONTINUOUS
 10
5.434048
 20
1.105654
  0
VERTEX
  8
FOREGROUND
  6
CONTINUOUS
 10
5.443094
 20
1.123033
  0
VERTEX
  8
FOREGROUND
  6
CONTINUOUS
 10
5.451833
 20
1.140555
  0
VERTEX
  8
FOREGROUND
  6
CONTINUOUS
 10
5.460263
 20
1.158218
  0
VERTEX
  8
FOREGROUND
  6
CONTINUOUS
 10
5.468381
 20
1.176023
  0
VERTEX
  8
FOREGROUND
  6
CONTINUOUS
 10
5.476185
 20
1.193970
  0
VERTEX
  8
FOREGROUND
  6
CONTINUOUS
 10
5.483672
 20
1.212059
  0
VERTEX
  8
FOREGROUND
  6
CONTINUOUS
 10
5.490840
 20
1.230290
  0
VERTEX
  8
FOREGROUND
  6
CONTINUOUS
 10
5.497686
 20
1.248663
  0
VERTEX
  8
FOREGROUND
  6
CONTINUOUS
 10
5.504208
 20
1.267178
  0
VERTEX
  8
FOREGROUND
  6
CONTINUOUS
 10
5.510404
 20
1.285834
  0
VERTEX
  8
FOREGROUND
  6
CONTINUOUS
 10
5.516270
 20
1.304633
  0
VERTEX
  8
FOREGROUND
  6
CONTINUOUS
 10
5.521805
 20
1.323573
  0
VERTEX
  8
FOREGROUND
  6
CONTINUOUS
 10
5.527005
 20
1.342656
  0
VERTEX
  8
FOREGROUND
  6
CONTINUOUS
 10
5.531869
 20
1.361880
  0
VERTEX
  8
FOREGROUND
  6
CONTINUOUS
 10
5.536394
 20
1.381246
  0
VERTEX
  8
FOREGROUND
  6
CONTINUOUS
 10
5.540577
 20
1.400754
  0
VERTEX
  8
FOREGROUND
  6
CONTINUOUS
 10
5.544416
 20
1.420404
  0
VERTEX
  8
FOREGROUND
  6
CONTINUOUS
 10
5.547909
 20
1.440196
  0
VERTEX
  8
FOREGROUND
  6
CONTINUOUS
 10
5.551052
 20
1.460129
  0
VERTEX
  8
FOREGROUND
  6
CONTINUOUS
 10
5.553844
 20
1.480205
  0
VERTEX
  8
FOREGROUND
  6
CONTINUOUS
 10
5.556281
 20
1.500423
  0
VERTEX
  8
FOREGROUND
  6
CONTINUOUS
 10
5.558362
 20
1.520782
  0
VERTEX
  8
FOREGROUND
  6
CONTINUOUS
 10
5.560084
 20
1.541284
  0
VERTEX
  8
FOREGROUND
  6
CONTINUOUS
 10
5.561444
 20
1.561927
  0
VERTEX
  8
FOREGROUND
  6
CONTINUOUS
 10
5.562440
 20
1.582712
  0
VERTEX
  8
FOREGROUND
  6
CONTINUOUS
 10
5.563070
 20
1.603639
  0
VERTEX
  8
FOREGROUND
  6
CONTINUOUS
 10
5.563331
 20
1.624708
  0
SEQEND
  8
0
  0
ENDSEC
  0
EOF
