  0
SECTION
  2
HEADER
  9
$ACADVER
  1
AC1006
  9
$EXTMIN
 10
0.000000
 20
0.000000
  9
$EXTMAX
 10
7.180000
 20
4.823333
  9
$LTSCALE
 40
0.166667
  9
$PDMODE
 70
    35
  9
$PDSIZE
 40
0.133333
  0
ENDSEC
  0
SECTION
  2
TABLES
  0
TABLE
  2
LTYPE
 70
     9
  0
LTYPE
  2
CONTINUOUS
 70
    64
  3
Solid line
 72
    65
 73
     0
 40
0.000000
  0
LTYPE
  2
DASHED
 70
    64
  3
__ __ __ __ __ __ __ __ __ __ __ __ __ __ __
 72
    65
 73
     2
 40
0.001250
 49
0.000833
 49
-0.000417
  0
LTYPE
  2
HIDDEN
 70
    64
  3
 _ _ _ _ _ _ _ _ _ _ _ _ _ _ _ _ _ _ _ _ _ _
 72
    65
 73
     2
 40
0.000625
 49
0.000417
 49
-0.000208
  0
LTYPE
  2
CENTER
 70
    64
  3
____ _ ____ _ ____ _ ____ _ ____ _ ____ _ ____
 72
    65
 73
     4
 40
0.003333
 49
0.002083
 49
-0.000417
 49
0.000417
 49
-0.000417
  0
LTYPE
  2
PHANTOM
 70
    64
  3
_____ _ _ _____ _ _ _____ _ _ _____ _ _ ____
 72
    65
 73
     6
 40
0.004167
 49
0.002083
 49
-0.000417
 49
0.000417
 49
-0.000417
 49
0.000417
 49
-0.000417
  0
LTYPE
  2
DOT
 70
    64
  3
...............................................
 72
    65
 73
     2
 40
0.000417
 49
0.000000
 49
-0.000417
  0
LTYPE
  2
DASHDOT
 70
    64
  3
__ . __ . __ . __ . __ . __ . __ . __ . __ . __
 72
    65
 73
     4
 40
0.001667
 49
0.000833
 49
-0.000417
 49
0.000000
 49
-0.000417
  0
LTYPE
  2
BORDER
 70
    64
  3
__ __ . __ __ . __ __ . __ __ . __ __ . __ __
 72
    65
 73
     6
 40
0.002917
 49
0.000833
 49
-0.000417
 49
0.000833
 49
-0.000417
 49
0.000000
 49
-0.000417
  0
LTYPE
  2
DIVIDE
 70
    64
  3
__ . . __ . . __ . . __ . . __ . . __ . . __
 72
    65
 73
     6
 40
0.002083
 49
0.000833
 49
-0.000417
 49
0.000000
 49
-0.000417
 49
0.000000
 49
-0.000417
  0
LTYPE
  2
DOTDOT
 70
    64
  3
 . .  . .  . .  . .  . .  . . 
 72
    65
 73
     5
 40
0.000917
 49
-0.000417
 49
0.000000
 49
-0.000417
 49
0.000000
 49
-0.000417
  0
ENDTAB
  0
TABLE
  2
STYLE
 70
     2
  0
STYLE
 70
     0
  2
SN0
 40
0.000000
 41
0.001667
 50
0.000000
 71
     0
 42
0.000000
  3
ROMAND
  0
STYLE
 70
    68
  2
SV0
 40
0.000000
 41
0.001667
 50
0.000000
 71
     0
 42
0.000000
  3
ROMAND
  0
ENDTAB
  0
TABLE
  2
LAYER
 70
     2
  0
LAYER
  2
FOREGROUND
 70
    64
 62
     7
  6
CONTINUOUS
  0
LAYER
  2
BACKGROUND
 70
    65
 62
    -7
  6
CONTINUOUS
  0
ENDTAB
  0
ENDSEC
  0
SECTION
  2
ENTITIES
  0
POLYLINE
  8
FOREGROUND
  6
CONTINUOUS
 66
     1
 40
0.010000
 41
0.010000
 70
     1
  0
VERTEX
  8
FOREGROUND
  6
CONTINUOUS
 10
7.129998
 20
2.411667
  0
VERTEX
  8
FOREGROUND
  6
CONTINUOUS
 10
7.129772
 20
2.442237
  0
VERTEX
  8
FOREGROUND
  6
CONTINUOUS
 10
7.129102
 20
2.472608
  0
VERTEX
  8
FOREGROUND
  6
CONTINUOUS
 10
7.127991
 20
2.502779
  0
VERTEX
  8
FOREGROUND
  6
CONTINUOUS
 10
7.126441
 20
2.532752
  0
VERTEX
  8
FOREGROUND
  6
CONTINUOUS
 10
7.124455
 20
2.562525
  0
VERTEX
  8
FOREGROUND
  6
CONTINUOUS
 10
7.122036
 20
2.592100
  0
VERTEX
  8
FOREGROUND
  6
CONTINUOUS
 10
7.119188
 20
2.621475
  0
VERTEX
  8
FOREGROUND
  6
CONTINUOUS
 10
7.115912
 20
2.650651
  0
VERTEX
  8
FOREGROUND
  6
CONTINUOUS
 10
7.112213
 20
2.679628
  0
VERTEX
  8
FOREGROUND
  6
CONTINUOUS
 10
7.108092
 20
2.708405
  0
VERTEX
  8
FOREGROUND
  6
CONTINUOUS
 10
7.103553
 20
2.736984
  0
VERTEX
  8
FOREGROUND
  6
CONTINUOUS
 10
7.098599
 20
2.765364
  0
VERTEX
  8
FOREGROUND
  6
CONTINUOUS
 10
7.093232
 20
2.793544
  0
VERTEX
  8
FOREGROUND
  6
CONTINUOUS
 10
7.087456
 20
2.821525
  0
VERTEX
  8
FOREGROUND
  6
CONTINUOUS
 10
7.081273
 20
2.849307
  0
VERTEX
  8
FOREGROUND
  6
CONTINUOUS
 10
7.074686
 20
2.876890
  0
VERTEX
  8
FOREGROUND
  6
CONTINUOUS
 10
7.067699
 20
2.904274
  0
VERTEX
  8
FOREGROUND
  6
CONTINUOUS
 10
7.060314
 20
2.931458
  0
VERTEX
  8
FOREGROUND
  6
CONTINUOUS
 10
7.052533
 20
2.958444
  0
VERTEX
  8
FOREGROUND
  6
CONTINUOUS
 10
7.044361
 20
2.985230
  0
VERTEX
  8
FOREGROUND
  6
CONTINUOUS
 10
7.035799
 20
3.011817
  0
VERTEX
  8
FOREGROUND
  6
CONTINUOUS
 10
7.026851
 20
3.038206
  0
VERTEX
  8
FOREGROUND
  6
CONTINUOUS
 10
7.017519
 20
3.064394
  0
VERTEX
  8
FOREGROUND
  6
CONTINUOUS
 10
7.007808
 20
3.090384
  0
VERTEX
  8
FOREGROUND
  6
CONTINUOUS
 10
6.997718
 20
3.116175
  0
VERTEX
  8
FOREGROUND
  6
CONTINUOUS
 10
6.987254
 20
3.141766
  0
VERTEX
  8
FOREGROUND
  6
CONTINUOUS
 10
6.976418
 20
3.167159
  0
VERTEX
  8
FOREGROUND
  6
CONTINUOUS
 10
6.965213
 20
3.192352
  0
VERTEX
  8
FOREGROUND
  6
CONTINUOUS
 10
6.953642
 20
3.217346
  0
VERTEX
  8
FOREGROUND
  6
CONTINUOUS
 10
6.941707
 20
3.242141
  0
VERTEX
  8
FOREGROUND
  6
CONTINUOUS
 10
6.929413
 20
3.266737
  0
VERTEX
  8
FOREGROUND
  6
CONTINUOUS
 10
6.916762
 20
3.291133
  0
VERTEX
  8
FOREGROUND
  6
CONTINUOUS
 10
6.903756
 20
3.315331
  0
VERTEX
  8
FOREGROUND
  6
CONTINUOUS
 10
6.890398
 20
3.339329
  0
VERTEX
  8
FOREGROUND
  6
CONTINUOUS
 10
6.876692
 20
3.363129
  0
VERTEX
  8
FOREGROUND
  6
CONTINUOUS
 10
6.862640
 20
3.386729
  0
VERTEX
  8
FOREGROUND
  6
CONTINUOUS
 10
6.848246
 20
3.410130
  0
VERTEX
  8
FOREGROUND
  6
CONTINUOUS
 10
6.833512
 20
3.433331
  0
VERTEX
  8
FOREGROUND
  6
CONTINUOUS
 10
6.818440
 20
3.456334
  0
VERTEX
  8
FOREGROUND
  6
CONTINUOUS
 10
6.803035
 20
3.479137
  0
VERTEX
  8
FOREGROUND
  6
CONTINUOUS
 10
6.787298
 20
3.501742
  0
VERTEX
  8
FOREGROUND
  6
CONTINUOUS
 10
6.771233
 20
3.524147
  0
VERTEX
  8
FOREGROUND
  6
CONTINUOUS
 10
6.754843
 20
3.546353
  0
VERTEX
  8
FOREGROUND
  6
CONTINUOUS
 10
6.738131
 20
3.568360
  0
VERTEX
  8
FOREGROUND
  6
CONTINUOUS
 10
6.721099
 20
3.590168
  0
VERTEX
  8
FOREGROUND
  6
CONTINUOUS
 10
6.703750
 20
3.611777
  0
VERTEX
  8
FOREGROUND
  6
CONTINUOUS
 10
6.686087
 20
3.633186
  0
VERTEX
  8
FOREGROUND
  6
CONTINUOUS
 10
6.668114
 20
3.654396
  0
VERTEX
  8
FOREGROUND
  6
CONTINUOUS
 10
6.649832
 20
3.675408
  0
VERTEX
  8
FOREGROUND
  6
CONTINUOUS
 10
6.631246
 20
3.696220
  0
VERTEX
  8
FOREGROUND
  6
CONTINUOUS
 10
6.612357
 20
3.716833
  0
VERTEX
  8
FOREGROUND
  6
CONTINUOUS
 10
6.593170
 20
3.737246
  0
VERTEX
  8
FOREGROUND
  6
CONTINUOUS
 10
6.573686
 20
3.757461
  0
VERTEX
  8
FOREGROUND
  6
CONTINUOUS
 10
6.553908
 20
3.777477
  0
VERTEX
  8
FOREGROUND
  6
CONTINUOUS
 10
6.533840
 20
3.797293
  0
VERTEX
  8
FOREGROUND
  6
CONTINUOUS
 10
6.513484
 20
3.816910
  0
VERTEX
  8
FOREGROUND
  6
CONTINUOUS
 10
6.492844
 20
3.836328
  0
VERTEX
  8
FOREGROUND
  6
CONTINUOUS
 10
6.471922
 20
3.855547
  0
VERTEX
  8
FOREGROUND
  6
CONTINUOUS
 10
6.450721
 20
3.874567
  0
VERTEX
  8
FOREGROUND
  6
CONTINUOUS
 10
6.429244
 20
3.893388
  0
VERTEX
  8
FOREGROUND
  6
CONTINUOUS
 10
6.407493
 20
3.912009
  0
VERTEX
  8
FOREGROUND
  6
CONTINUOUS
 10
6.385473
 20
3.930431
  0
VERTEX
  8
FOREGROUND
  6
CONTINUOUS
 10
6.363185
 20
3.948655
  0
VERTEX
  8
FOREGROUND
  6
CONTINUOUS
 10
6.340633
 20
3.966679
  0
VERTEX
  8
FOREGROUND
  6
CONTINUOUS
 10
6.317820
 20
3.984504
  0
VERTEX
  8
FOREGROUND
  6
CONTINUOUS
 10
6.294747
 20
4.002129
  0
VERTEX
  8
FOREGROUND
  6
CONTINUOUS
 10
6.271420
 20
4.019556
  0
VERTEX
  8
FOREGROUND
  6
CONTINUOUS
 10
6.247839
 20
4.036783
  0
VERTEX
  8
FOREGROUND
  6
CONTINUOUS
 10
6.224008
 20
4.053812
  0
VERTEX
  8
FOREGROUND
  6
CONTINUOUS
 10
6.199931
 20
4.070641
  0
VERTEX
  8
FOREGROUND
  6
CONTINUOUS
 10
6.175609
 20
4.087271
  0
VERTEX
  8
FOREGROUND
  6
CONTINUOUS
 10
6.151046
 20
4.103702
  0
VERTEX
  8
FOREGROUND
  6
CONTINUOUS
 10
6.126245
 20
4.119934
  0
VERTEX
  8
FOREGROUND
  6
CONTINUOUS
 10
6.101209
 20
4.135966
  0
VERTEX
  8
FOREGROUND
  6
CONTINUOUS
 10
6.075940
 20
4.151800
  0
VERTEX
  8
FOREGROUND
  6
CONTINUOUS
 10
6.050442
 20
4.167434
  0
VERTEX
  8
FOREGROUND
  6
CONTINUOUS
 10
6.024716
 20
4.182869
  0
VERTEX
  8
FOREGROUND
  6
CONTINUOUS
 10
5.998768
 20
4.198105
  0
VERTEX
  8
FOREGROUND
  6
CONTINUOUS
 10
5.972598
 20
4.213142
  0
VERTEX
  8
FOREGROUND
  6
CONTINUOUS
 10
5.946210
 20
4.227980
  0
VERTEX
  8
FOREGROUND
  6
CONTINUOUS
 10
5.919607
 20
4.242618
  0
VERTEX
  8
FOREGROUND
  6
CONTINUOUS
 10
5.892793
 20
4.257058
  0
VERTEX
  8
FOREGROUND
  6
CONTINUOUS
 10
5.865768
 20
4.271298
  0
VERTEX
  8
FOREGROUND
  6
CONTINUOUS
 10
5.838538
 20
4.285339
  0
VERTEX
  8
FOREGROUND
  6
CONTINUOUS
 10
5.811104
 20
4.299181
  0
VERTEX
  8
FOREGROUND
  6
CONTINUOUS
 10
5.783470
 20
4.312824
  0
VERTEX
  8
FOREGROUND
  6
CONTINUOUS
 10
5.755638
 20
4.326268
  0
VERTEX
  8
FOREGROUND
  6
CONTINUOUS
 10
5.727611
 20
4.339512
  0
VERTEX
  8
FOREGROUND
  6
CONTINUOUS
 10
5.699392
 20
4.352558
  0
VERTEX
  8
FOREGROUND
  6
CONTINUOUS
 10
5.670985
 20
4.365404
  0
VERTEX
  8
FOREGROUND
  6
CONTINUOUS
 10
5.642391
 20
4.378051
  0
VERTEX
  8
FOREGROUND
  6
CONTINUOUS
 10
5.613615
 20
4.390499
  0
VERTEX
  8
FOREGROUND
  6
CONTINUOUS
 10
5.584658
 20
4.402748
  0
VERTEX
  8
FOREGROUND
  6
CONTINUOUS
 10
5.555524
 20
4.414797
  0
VERTEX
  8
FOREGROUND
  6
CONTINUOUS
 10
5.526215
 20
4.426648
  0
VERTEX
  8
FOREGROUND
  6
CONTINUOUS
 10
5.496735
 20
4.438299
  0
VERTEX
  8
FOREGROUND
  6
CONTINUOUS
 10
5.467086
 20
4.449751
  0
VERTEX
  8
FOREGROUND
  6
CONTINUOUS
 10
5.437272
 20
4.461005
  0
VERTEX
  8
FOREGROUND
  6
CONTINUOUS
 10
5.407295
 20
4.472058
  0
VERTEX
  8
FOREGROUND
  6
CONTINUOUS
 10
5.377158
 20
4.482913
  0
VERTEX
  8
FOREGROUND
  6
CONTINUOUS
 10
5.346863
 20
4.493569
  0
VERTEX
  8
FOREGROUND
  6
CONTINUOUS
 10
5.316415
 20
4.504025
  0
VERTEX
  8
FOREGROUND
  6
CONTINUOUS
 10
5.285816
 20
4.514283
  0
VERTEX
  8
FOREGROUND
  6
CONTINUOUS
 10
5.255068
 20
4.524341
  0
VERTEX
  8
FOREGROUND
  6
CONTINUOUS
 10
5.224175
 20
4.534200
  0
VERTEX
  8
FOREGROUND
  6
CONTINUOUS
 10
5.193140
 20
4.543860
  0
VERTEX
  8
FOREGROUND
  6
CONTINUOUS
 10
5.161965
 20
4.553321
  0
VERTEX
  8
FOREGROUND
  6
CONTINUOUS
 10
5.130653
 20
4.562582
  0
VERTEX
  8
FOREGROUND
  6
CONTINUOUS
 10
5.099208
 20
4.571645
  0
VERTEX
  8
FOREGROUND
  6
CONTINUOUS
 10
5.067631
 20
4.580508
  0
VERTEX
  8
FOREGROUND
  6
CONTINUOUS
 10
5.035927
 20
4.589172
  0
VERTEX
  8
FOREGROUND
  6
CONTINUOUS
 10
5.004098
 20
4.597637
  0
VERTEX
  8
FOREGROUND
  6
CONTINUOUS
 10
4.972146
 20
4.605903
  0
VERTEX
  8
FOREGROUND
  6
CONTINUOUS
 10
4.940075
 20
4.613970
  0
VERTEX
  8
FOREGROUND
  6
CONTINUOUS
 10
4.907888
 20
4.621837
  0
VERTEX
  8
FOREGROUND
  6
CONTINUOUS
 10
4.875587
 20
4.629505
  0
VERTEX
  8
FOREGROUND
  6
CONTINUOUS
 10
4.843176
 20
4.636975
  0
VERTEX
  8
FOREGROUND
  6
CONTINUOUS
 10
4.810658
 20
4.644245
  0
VERTEX
  8
FOREGROUND
  6
CONTINUOUS
 10
4.778034
 20
4.651316
  0
VERTEX
  8
FOREGROUND
  6
CONTINUOUS
 10
4.745309
 20
4.658188
  0
VERTEX
  8
FOREGROUND
  6
CONTINUOUS
 10
4.712484
 20
4.664860
  0
VERTEX
  8
FOREGROUND
  6
CONTINUOUS
 10
4.679564
 20
4.671334
  0
VERTEX
  8
FOREGROUND
  6
CONTINUOUS
 10
4.646551
 20
4.677608
  0
VERTEX
  8
FOREGROUND
  6
CONTINUOUS
 10
4.613447
 20
4.683683
  0
VERTEX
  8
FOREGROUND
  6
CONTINUOUS
 10
4.580256
 20
4.689559
  0
VERTEX
  8
FOREGROUND
  6
CONTINUOUS
 10
4.546981
 20
4.695236
  0
VERTEX
  8
FOREGROUND
  6
CONTINUOUS
 10
4.513624
 20
4.700714
  0
VERTEX
  8
FOREGROUND
  6
CONTINUOUS
 10
4.480188
 20
4.705992
  0
VERTEX
  8
FOREGROUND
  6
CONTINUOUS
 10
4.446677
 20
4.711072
  0
VERTEX
  8
FOREGROUND
  6
CONTINUOUS
 10
4.413093
 20
4.715952
  0
VERTEX
  8
FOREGROUND
  6
CONTINUOUS
 10
4.379439
 20
4.720633
  0
VERTEX
  8
FOREGROUND
  6
CONTINUOUS
 10
4.345718
 20
4.725115
  0
VERTEX
  8
FOREGROUND
  6
CONTINUOUS
 10
4.311933
 20
4.729398
  0
VERTEX
  8
FOREGROUND
  6
CONTINUOUS
 10
4.278087
 20
4.733482
  0
VERTEX
  8
FOREGROUND
  6
CONTINUOUS
 10
4.244182
 20
4.737366
  0
VERTEX
  8
FOREGROUND
  6
CONTINUOUS
 10
4.210222
 20
4.741052
  0
VERTEX
  8
FOREGROUND
  6
CONTINUOUS
 10
4.176210
 20
4.744538
  0
VERTEX
  8
FOREGROUND
  6
CONTINUOUS
 10
4.142148
 20
4.747825
  0
VERTEX
  8
FOREGROUND
  6
CONTINUOUS
 10
4.108039
 20
4.750913
  0
VERTEX
  8
FOREGROUND
  6
CONTINUOUS
 10
4.073887
 20
4.753802
  0
VERTEX
  8
FOREGROUND
  6
CONTINUOUS
 10
4.039694
 20
4.756491
  0
VERTEX
  8
FOREGROUND
  6
CONTINUOUS
 10
4.005462
 20
4.758982
  0
VERTEX
  8
FOREGROUND
  6
CONTINUOUS
 10
3.971196
 20
4.761273
  0
VERTEX
  8
FOREGROUND
  6
CONTINUOUS
 10
3.936897
 20
4.763365
  0
VERTEX
  8
FOREGROUND
  6
CONTINUOUS
 10
3.902570
 20
4.765258
  0
VERTEX
  8
FOREGROUND
  6
CONTINUOUS
 10
3.868216
 20
4.766952
  0
VERTEX
  8
FOREGROUND
  6
CONTINUOUS
 10
3.833838
 20
4.768447
  0
VERTEX
  8
FOREGROUND
  6
CONTINUOUS
 10
3.799440
 20
4.769743
  0
VERTEX
  8
FOREGROUND
  6
CONTINUOUS
 10
3.765024
 20
4.770839
  0
VERTEX
  8
FOREGROUND
  6
CONTINUOUS
 10
3.730593
 20
4.771736
  0
VERTEX
  8
FOREGROUND
  6
CONTINUOUS
 10
3.696151
 20
4.772434
  0
VERTEX
  8
FOREGROUND
  6
CONTINUOUS
 10
3.661700
 20
4.772933
  0
VERTEX
  8
FOREGROUND
  6
CONTINUOUS
 10
3.627242
 20
4.773233
  0
VERTEX
  8
FOREGROUND
  6
CONTINUOUS
 10
3.592782
 20
4.773334
  0
VERTEX
  8
FOREGROUND
  6
CONTINUOUS
 10
3.558321
 20
4.773235
  0
VERTEX
  8
FOREGROUND
  6
CONTINUOUS
 10
3.523863
 20
4.772937
  0
VERTEX
  8
FOREGROUND
  6
CONTINUOUS
 10
3.489410
 20
4.772441
  0
VERTEX
  8
FOREGROUND
  6
CONTINUOUS
 10
3.454966
 20
4.771745
  0
VERTEX
  8
FOREGROUND
  6
CONTINUOUS
 10
3.420534
 20
4.770850
  0
VERTEX
  8
FOREGROUND
  6
CONTINUOUS
 10
3.386115
 20
4.769755
  0
VERTEX
  8
FOREGROUND
  6
CONTINUOUS
 10
3.351714
 20
4.768462
  0
VERTEX
  8
FOREGROUND
  6
CONTINUOUS
 10
3.317333
 20
4.766969
  0
VERTEX
  8
FOREGROUND
  6
CONTINUOUS
 10
3.282975
 20
4.765278
  0
VERTEX
  8
FOREGROUND
  6
CONTINUOUS
 10
3.248642
 20
4.763387
  0
VERTEX
  8
FOREGROUND
  6
CONTINUOUS
 10
3.214339
 20
4.761297
  0
VERTEX
  8
FOREGROUND
  6
CONTINUOUS
 10
3.180067
 20
4.759007
  0
VERTEX
  8
FOREGROUND
  6
CONTINUOUS
 10
3.145830
 20
4.756519
  0
VERTEX
  8
FOREGROUND
  6
CONTINUOUS
 10
3.111630
 20
4.753832
  0
VERTEX
  8
FOREGROUND
  6
CONTINUOUS
 10
3.077471
 20
4.750945
  0
VERTEX
  8
FOREGROUND
  6
CONTINUOUS
 10
3.043355
 20
4.747859
  0
VERTEX
  8
FOREGROUND
  6
CONTINUOUS
 10
3.009286
 20
4.744574
  0
VERTEX
  8
FOREGROUND
  6
CONTINUOUS
 10
2.975265
 20
4.741090
  0
VERTEX
  8
FOREGROUND
  6
CONTINUOUS
 10
2.941296
 20
4.737407
  0
VERTEX
  8
FOREGROUND
  6
CONTINUOUS
 10
2.907383
 20
4.733524
  0
VERTEX
  8
FOREGROUND
  6
CONTINUOUS
 10
2.873527
 20
4.729443
  0
VERTEX
  8
FOREGROUND
  6
CONTINUOUS
 10
2.839732
 20
4.725162
  0
VERTEX
  8
FOREGROUND
  6
CONTINUOUS
 10
2.806000
 20
4.720682
  0
VERTEX
  8
FOREGROUND
  6
CONTINUOUS
 10
2.772335
 20
4.716003
  0
VERTEX
  8
FOREGROUND
  6
CONTINUOUS
 10
2.738740
 20
4.711125
  0
VERTEX
  8
FOREGROUND
  6
CONTINUOUS
 10
2.705216
 20
4.706047
  0
VERTEX
  8
FOREGROUND
  6
CONTINUOUS
 10
2.671769
 20
4.700771
  0
VERTEX
  8
FOREGROUND
  6
CONTINUOUS
 10
2.638399
 20
4.695295
  0
VERTEX
  8
FOREGROUND
  6
CONTINUOUS
 10
2.605110
 20
4.689620
  0
VERTEX
  8
FOREGROUND
  6
CONTINUOUS
 10
2.571905
 20
4.683746
  0
VERTEX
  8
FOREGROUND
  6
CONTINUOUS
 10
2.538787
 20
4.677673
  0
VERTEX
  8
FOREGROUND
  6
CONTINUOUS
 10
2.505759
 20
4.671401
  0
VERTEX
  8
FOREGROUND
  6
CONTINUOUS
 10
2.472823
 20
4.664929
  0
VERTEX
  8
FOREGROUND
  6
CONTINUOUS
 10
2.439983
 20
4.658259
  0
VERTEX
  8
FOREGROUND
  6
CONTINUOUS
 10
2.407242
 20
4.651389
  0
VERTEX
  8
FOREGROUND
  6
CONTINUOUS
 10
2.374602
 20
4.644320
  0
VERTEX
  8
FOREGROUND
  6
CONTINUOUS
 10
2.342066
 20
4.637052
  0
VERTEX
  8
FOREGROUND
  6
CONTINUOUS
 10
2.309637
 20
4.629585
  0
VERTEX
  8
FOREGROUND
  6
CONTINUOUS
 10
2.277318
 20
4.621918
  0
VERTEX
  8
FOREGROUND
  6
CONTINUOUS
 10
2.245113
 20
4.614053
  0
VERTEX
  8
FOREGROUND
  6
CONTINUOUS
 10
2.213023
 20
4.605988
  0
VERTEX
  8
FOREGROUND
  6
CONTINUOUS
 10
2.181052
 20
4.597724
  0
VERTEX
  8
FOREGROUND
  6
CONTINUOUS
 10
2.149203
 20
4.589261
  0
VERTEX
  8
FOREGROUND
  6
CONTINUOUS
 10
2.117478
 20
4.580599
  0
VERTEX
  8
FOREGROUND
  6
CONTINUOUS
 10
2.085881
 20
4.571738
  0
VERTEX
  8
FOREGROUND
  6
CONTINUOUS
 10
2.054414
 20
4.562677
  0
VERTEX
  8
FOREGROUND
  6
CONTINUOUS
 10
2.023080
 20
4.553418
  0
VERTEX
  8
FOREGROUND
  6
CONTINUOUS
 10
1.991883
 20
4.543959
  0
VERTEX
  8
FOREGROUND
  6
CONTINUOUS
 10
1.960825
 20
4.534301
  0
VERTEX
  8
FOREGROUND
  6
CONTINUOUS
 10
1.929909
 20
4.524444
  0
VERTEX
  8
FOREGROUND
  6
CONTINUOUS
 10
1.899137
 20
4.514387
  0
VERTEX
  8
FOREGROUND
  6
CONTINUOUS
 10
1.868514
 20
4.504132
  0
VERTEX
  8
FOREGROUND
  6
CONTINUOUS
 10
1.838041
 20
4.493677
  0
VERTEX
  8
FOREGROUND
  6
CONTINUOUS
 10
1.807722
 20
4.483024
  0
VERTEX
  8
FOREGROUND
  6
CONTINUOUS
 10
1.777559
 20
4.472171
  0
VERTEX
  8
FOREGROUND
  6
CONTINUOUS
 10
1.747556
 20
4.461119
  0
VERTEX
  8
FOREGROUND
  6
CONTINUOUS
 10
1.717715
 20
4.449867
  0
VERTEX
  8
FOREGROUND
  6
CONTINUOUS
 10
1.688039
 20
4.438417
  0
VERTEX
  8
FOREGROUND
  6
CONTINUOUS
 10
1.658532
 20
4.426767
  0
VERTEX
  8
FOREGROUND
  6
CONTINUOUS
 10
1.629195
 20
4.414919
  0
VERTEX
  8
FOREGROUND
  6
CONTINUOUS
 10
1.600033
 20
4.402871
  0
VERTEX
  8
FOREGROUND
  6
CONTINUOUS
 10
1.571047
 20
4.390624
  0
VERTEX
  8
FOREGROUND
  6
CONTINUOUS
 10
1.542241
 20
4.378178
  0
VERTEX
  8
FOREGROUND
  6
CONTINUOUS
 10
1.513618
 20
4.365532
  0
VERTEX
  8
FOREGROUND
  6
CONTINUOUS
 10
1.485180
 20
4.352688
  0
VERTEX
  8
FOREGROUND
  6
CONTINUOUS
 10
1.456931
 20
4.339644
  0
VERTEX
  8
FOREGROUND
  6
CONTINUOUS
 10
1.428873
 20
4.326401
  0
VERTEX
  8
FOREGROUND
  6
CONTINUOUS
 10
1.401009
 20
4.312959
  0
VERTEX
  8
FOREGROUND
  6
CONTINUOUS
 10
1.373342
 20
4.299318
  0
VERTEX
  8
FOREGROUND
  6
CONTINUOUS
 10
1.345876
 20
4.285478
  0
VERTEX
  8
FOREGROUND
  6
CONTINUOUS
 10
1.318612
 20
4.271439
  0
VERTEX
  8
FOREGROUND
  6
CONTINUOUS
 10
1.291555
 20
4.257200
  0
VERTEX
  8
FOREGROUND
  6
CONTINUOUS
 10
1.264706
 20
4.242762
  0
VERTEX
  8
FOREGROUND
  6
CONTINUOUS
 10
1.238069
 20
4.228125
  0
VERTEX
  8
FOREGROUND
  6
CONTINUOUS
 10
1.211646
 20
4.213289
  0
VERTEX
  8
FOREGROUND
  6
CONTINUOUS
 10
1.185441
 20
4.198254
  0
VERTEX
  8
FOREGROUND
  6
CONTINUOUS
 10
1.159456
 20
4.183019
  0
VERTEX
  8
FOREGROUND
  6
CONTINUOUS
 10
1.133695
 20
4.167586
  0
VERTEX
  8
FOREGROUND
  6
CONTINUOUS
 10
1.108159
 20
4.151953
  0
VERTEX
  8
FOREGROUND
  6
CONTINUOUS
 10
1.082853
 20
4.136121
  0
VERTEX
  8
FOREGROUND
  6
CONTINUOUS
 10
1.057779
 20
4.120090
  0
VERTEX
  8
FOREGROUND
  6
CONTINUOUS
 10
1.032940
 20
4.103860
  0
VERTEX
  8
FOREGROUND
  6
CONTINUOUS
 10
1.008338
 20
4.087431
  0
VERTEX
  8
FOREGROUND
  6
CONTINUOUS
 10
0.983977
 20
4.070802
  0
VERTEX
  8
FOREGROUND
  6
CONTINUOUS
 10
0.959860
 20
4.053974
  0
VERTEX
  8
FOREGROUND
  6
CONTINUOUS
 10
0.935990
 20
4.036948
  0
VERTEX
  8
FOREGROUND
  6
CONTINUOUS
 10
0.912368
 20
4.019722
  0
VERTEX
  8
FOREGROUND
  6
CONTINUOUS
 10
0.888999
 20
4.002296
  0
VERTEX
  8
FOREGROUND
  6
CONTINUOUS
 10
0.865886
 20
3.984672
  0
VERTEX
  8
FOREGROUND
  6
CONTINUOUS
 10
0.843030
 20
3.966849
  0
VERTEX
  8
FOREGROUND
  6
CONTINUOUS
 10
0.820436
 20
3.948826
  0
VERTEX
  8
FOREGROUND
  6
CONTINUOUS
 10
0.798105
 20
3.930604
  0
VERTEX
  8
FOREGROUND
  6
CONTINUOUS
 10
0.776041
 20
3.912183
  0
VERTEX
  8
FOREGROUND
  6
CONTINUOUS
 10
0.754247
 20
3.893563
  0
VERTEX
  8
FOREGROUND
  6
CONTINUOUS
 10
0.732726
 20
3.874744
  0
VERTEX
  8
FOREGROUND
  6
CONTINUOUS
 10
0.711480
 20
3.855725
  0
VERTEX
  8
FOREGROUND
  6
CONTINUOUS
 10
0.690512
 20
3.836508
  0
VERTEX
  8
FOREGROUND
  6
CONTINUOUS
 10
0.669826
 20
3.817091
  0
VERTEX
  8
FOREGROUND
  6
CONTINUOUS
 10
0.649424
 20
3.797475
  0
VERTEX
  8
FOREGROUND
  6
CONTINUOUS
 10
0.629310
 20
3.777660
  0
VERTEX
  8
FOREGROUND
  6
CONTINUOUS
 10
0.609485
 20
3.757645
  0
VERTEX
  8
FOREGROUND
  6
CONTINUOUS
 10
0.589953
 20
3.737432
  0
VERTEX
  8
FOREGROUND
  6
CONTINUOUS
 10
0.570717
 20
3.717019
  0
VERTEX
  8
FOREGROUND
  6
CONTINUOUS
 10
0.551780
 20
3.696408
  0
VERTEX
  8
FOREGROUND
  6
CONTINUOUS
 10
0.533145
 20
3.675597
  0
VERTEX
  8
FOREGROUND
  6
CONTINUOUS
 10
0.514814
 20
3.654587
  0
VERTEX
  8
FOREGROUND
  6
CONTINUOUS
 10
0.496791
 20
3.633377
  0
VERTEX
  8
FOREGROUND
  6
CONTINUOUS
 10
0.479078
 20
3.611969
  0
VERTEX
  8
FOREGROUND
  6
CONTINUOUS
 10
0.461678
 20
3.590361
  0
VERTEX
  8
FOREGROUND
  6
CONTINUOUS
 10
0.444594
 20
3.568555
  0
VERTEX
  8
FOREGROUND
  6
CONTINUOUS
 10
0.427830
 20
3.546549
  0
VERTEX
  8
FOREGROUND
  6
CONTINUOUS
 10
0.411387
 20
3.524344
  0
VERTEX
  8
FOREGROUND
  6
CONTINUOUS
 10
0.395270
 20
3.501939
  0
VERTEX
  8
FOREGROUND
  6
CONTINUOUS
 10
0.379480
 20
3.479336
  0
VERTEX
  8
FOREGROUND
  6
CONTINUOUS
 10
0.364021
 20
3.456533
  0
VERTEX
  8
FOREGROUND
  6
CONTINUOUS
 10
0.348895
 20
3.433532
  0
VERTEX
  8
FOREGROUND
  6
CONTINUOUS
 10
0.334106
 20
3.410331
  0
VERTEX
  8
FOREGROUND
  6
CONTINUOUS
 10
0.319657
 20
3.386931
  0
VERTEX
  8
FOREGROUND
  6
CONTINUOUS
 10
0.305549
 20
3.363332
  0
VERTEX
  8
FOREGROUND
  6
CONTINUOUS
 10
0.291787
 20
3.339533
  0
VERTEX
  8
FOREGROUND
  6
CONTINUOUS
 10
0.278373
 20
3.315536
  0
VERTEX
  8
FOREGROUND
  6
CONTINUOUS
 10
0.265310
 20
3.291339
  0
VERTEX
  8
FOREGROUND
  6
CONTINUOUS
 10
0.252601
 20
3.266943
  0
VERTEX
  8
FOREGROUND
  6
CONTINUOUS
 10
0.240249
 20
3.242348
  0
VERTEX
  8
FOREGROUND
  6
CONTINUOUS
 10
0.228257
 20
3.217554
  0
VERTEX
  8
FOREGROUND
  6
CONTINUOUS
 10
0.216627
 20
3.192561
  0
VERTEX
  8
FOREGROUND
  6
CONTINUOUS
 10
0.205362
 20
3.167368
  0
VERTEX
  8
FOREGROUND
  6
CONTINUOUS
 10
0.194467
 20
3.141976
  0
VERTEX
  8
FOREGROUND
  6
CONTINUOUS
 10
0.183942
 20
3.116385
  0
VERTEX
  8
FOREGROUND
  6
CONTINUOUS
 10
0.173792
 20
3.090595
  0
VERTEX
  8
FOREGROUND
  6
CONTINUOUS
 10
0.164018
 20
3.064606
  0
VERTEX
  8
FOREGROUND
  6
CONTINUOUS
 10
0.154625
 20
3.038418
  0
VERTEX
  8
FOREGROUND
  6
CONTINUOUS
 10
0.145615
 20
3.012030
  0
VERTEX
  8
FOREGROUND
  6
CONTINUOUS
 10
0.136991
 20
2.985444
  0
VERTEX
  8
FOREGROUND
  6
CONTINUOUS
 10
0.128755
 20
2.958658
  0
VERTEX
  8
FOREGROUND
  6
CONTINUOUS
 10
0.120911
 20
2.931673
  0
VERTEX
  8
FOREGROUND
  6
CONTINUOUS
 10
0.113462
 20
2.904489
  0
VERTEX
  8
FOREGROUND
  6
CONTINUOUS
 10
0.106410
 20
2.877105
  0
VERTEX
  8
FOREGROUND
  6
CONTINUOUS
 10
0.099758
 20
2.849523
  0
VERTEX
  8
FOREGROUND
  6
CONTINUOUS
 10
0.093510
 20
2.821741
  0
VERTEX
  8
FOREGROUND
  6
CONTINUOUS
 10
0.087668
 20
2.793760
  0
VERTEX
  8
FOREGROUND
  6
CONTINUOUS
 10
0.082235
 20
2.765580
  0
VERTEX
  8
FOREGROUND
  6
CONTINUOUS
 10
0.077214
 20
2.737201
  0
VERTEX
  8
FOREGROUND
  6
CONTINUOUS
 10
0.072607
 20
2.708623
  0
VERTEX
  8
FOREGROUND
  6
CONTINUOUS
 10
0.068419
 20
2.679845
  0
VERTEX
  8
FOREGROUND
  6
CONTINUOUS
 10
0.064651
 20
2.650869
  0
VERTEX
  8
FOREGROUND
  6
CONTINUOUS
 10
0.061307
 20
2.621693
  0
VERTEX
  8
FOREGROUND
  6
CONTINUOUS
 10
0.058389
 20
2.592318
  0
VERTEX
  8
FOREGROUND
  6
CONTINUOUS
 10
0.055901
 20
2.562744
  0
VERTEX
  8
FOREGROUND
  6
CONTINUOUS
 10
0.053845
 20
2.532970
  0
VERTEX
  8
FOREGROUND
  6
CONTINUOUS
 10
0.052224
 20
2.502998
  0
VERTEX
  8
FOREGROUND
  6
CONTINUOUS
 10
0.051041
 20
2.472826
  0
VERTEX
  8
FOREGROUND
  6
CONTINUOUS
 10
0.050300
 20
2.442455
  0
VERTEX
  8
FOREGROUND
  6
CONTINUOUS
 10
0.050002
 20
2.411885
  0
VERTEX
  8
FOREGROUND
  6
CONTINUOUS
 10
0.050002
 20
2.411885
  0
VERTEX
  8
FOREGROUND
  6
CONTINUOUS
 10
0.050224
 20
2.381315
  0
VERTEX
  8
FOREGROUND
  6
CONTINUOUS
 10
0.050889
 20
2.350945
  0
VERTEX
  8
FOREGROUND
  6
CONTINUOUS
 10
0.051997
 20
2.320773
  0
VERTEX
  8
FOREGROUND
  6
CONTINUOUS
 10
0.053543
 20
2.290800
  0
VERTEX
  8
FOREGROUND
  6
CONTINUOUS
 10
0.055525
 20
2.261026
  0
VERTEX
  8
FOREGROUND
  6
CONTINUOUS
 10
0.057939
 20
2.231452
  0
VERTEX
  8
FOREGROUND
  6
CONTINUOUS
 10
0.060784
 20
2.202077
  0
VERTEX
  8
FOREGROUND
  6
CONTINUOUS
 10
0.064055
 20
2.172900
  0
VERTEX
  8
FOREGROUND
  6
CONTINUOUS
 10
0.067750
 20
2.143923
  0
VERTEX
  8
FOREGROUND
  6
CONTINUOUS
 10
0.071867
 20
2.115145
  0
VERTEX
  8
FOREGROUND
  6
CONTINUOUS
 10
0.076402
 20
2.086566
  0
VERTEX
  8
FOREGROUND
  6
CONTINUOUS
 10
0.081352
 20
2.058187
  0
VERTEX
  8
FOREGROUND
  6
CONTINUOUS
 10
0.086715
 20
2.030006
  0
VERTEX
  8
FOREGROUND
  6
CONTINUOUS
 10
0.092487
 20
2.002024
  0
VERTEX
  8
FOREGROUND
  6
CONTINUOUS
 10
0.098666
 20
1.974242
  0
VERTEX
  8
FOREGROUND
  6
CONTINUOUS
 10
0.105249
 20
1.946659
  0
VERTEX
  8
FOREGROUND
  6
CONTINUOUS
 10
0.112233
 20
1.919274
  0
VERTEX
  8
FOREGROUND
  6
CONTINUOUS
 10
0.119614
 20
1.892089
  0
VERTEX
  8
FOREGROUND
  6
CONTINUOUS
 10
0.127391
 20
1.865103
  0
VERTEX
  8
FOREGROUND
  6
CONTINUOUS
 10
0.135560
 20
1.838317
  0
VERTEX
  8
FOREGROUND
  6
CONTINUOUS
 10
0.144118
 20
1.811729
  0
VERTEX
  8
FOREGROUND
  6
CONTINUOUS
 10
0.153062
 20
1.785340
  0
VERTEX
  8
FOREGROUND
  6
CONTINUOUS
 10
0.162390
 20
1.759151
  0
VERTEX
  8
FOREGROUND
  6
CONTINUOUS
 10
0.172098
 20
1.733160
  0
VERTEX
  8
FOREGROUND
  6
CONTINUOUS
 10
0.182184
 20
1.707369
  0
VERTEX
  8
FOREGROUND
  6
CONTINUOUS
 10
0.192645
 20
1.681777
  0
VERTEX
  8
FOREGROUND
  6
CONTINUOUS
 10
0.203478
 20
1.656384
  0
VERTEX
  8
FOREGROUND
  6
CONTINUOUS
 10
0.214679
 20
1.631190
  0
VERTEX
  8
FOREGROUND
  6
CONTINUOUS
 10
0.226247
 20
1.606195
  0
VERTEX
  8
FOREGROUND
  6
CONTINUOUS
 10
0.238177
 20
1.581399
  0
VERTEX
  8
FOREGROUND
  6
CONTINUOUS
 10
0.250468
 20
1.556803
  0
VERTEX
  8
FOREGROUND
  6
CONTINUOUS
 10
0.263117
 20
1.532405
  0
VERTEX
  8
FOREGROUND
  6
CONTINUOUS
 10
0.276119
 20
1.508207
  0
VERTEX
  8
FOREGROUND
  6
CONTINUOUS
 10
0.289473
 20
1.484208
  0
VERTEX
  8
FOREGROUND
  6
CONTINUOUS
 10
0.303176
 20
1.460408
  0
VERTEX
  8
FOREGROUND
  6
CONTINUOUS
 10
0.317224
 20
1.436807
  0
VERTEX
  8
FOREGROUND
  6
CONTINUOUS
 10
0.331616
 20
1.413405
  0
VERTEX
  8
FOREGROUND
  6
CONTINUOUS
 10
0.346347
 20
1.390202
  0
VERTEX
  8
FOREGROUND
  6
CONTINUOUS
 10
0.361415
 20
1.367199
  0
VERTEX
  8
FOREGROUND
  6
CONTINUOUS
 10
0.376817
 20
1.344394
  0
VERTEX
  8
FOREGROUND
  6
CONTINUOUS
 10
0.392551
 20
1.321789
  0
VERTEX
  8
FOREGROUND
  6
CONTINUOUS
 10
0.408612
 20
1.299383
  0
VERTEX
  8
FOREGROUND
  6
CONTINUOUS
 10
0.424999
 20
1.277176
  0
VERTEX
  8
FOREGROUND
  6
CONTINUOUS
 10
0.441709
 20
1.255168
  0
VERTEX
  8
FOREGROUND
  6
CONTINUOUS
 10
0.458738
 20
1.233359
  0
VERTEX
  8
FOREGROUND
  6
CONTINUOUS
 10
0.476084
 20
1.211749
  0
VERTEX
  8
FOREGROUND
  6
CONTINUOUS
 10
0.493743
 20
1.190339
  0
VERTEX
  8
FOREGROUND
  6
CONTINUOUS
 10
0.511714
 20
1.169127
  0
VERTEX
  8
FOREGROUND
  6
CONTINUOUS
 10
0.529992
 20
1.148115
  0
VERTEX
  8
FOREGROUND
  6
CONTINUOUS
 10
0.548576
 20
1.127302
  0
VERTEX
  8
FOREGROUND
  6
CONTINUOUS
 10
0.567462
 20
1.106687
  0
VERTEX
  8
FOREGROUND
  6
CONTINUOUS
 10
0.586646
 20
1.086272
  0
VERTEX
  8
FOREGROUND
  6
CONTINUOUS
 10
0.606128
 20
1.066057
  0
VERTEX
  8
FOREGROUND
  6
CONTINUOUS
 10
0.625902
 20
1.046040
  0
VERTEX
  8
FOREGROUND
  6
CONTINUOUS
 10
0.645968
 20
1.026222
  0
VERTEX
  8
FOREGROUND
  6
CONTINUOUS
 10
0.666321
 20
1.006604
  0
VERTEX
  8
FOREGROUND
  6
CONTINUOUS
 10
0.686958
 20
0.987184
  0
VERTEX
  8
FOREGROUND
  6
CONTINUOUS
 10
0.707878
 20
0.967964
  0
VERTEX
  8
FOREGROUND
  6
CONTINUOUS
 10
0.729076
 20
0.948943
  0
VERTEX
  8
FOREGROUND
  6
CONTINUOUS
 10
0.750551
 20
0.930121
  0
VERTEX
  8
FOREGROUND
  6
CONTINUOUS
 10
0.772298
 20
0.911498
  0
VERTEX
  8
FOREGROUND
  6
CONTINUOUS
 10
0.794316
 20
0.893075
  0
VERTEX
  8
FOREGROUND
  6
CONTINUOUS
 10
0.816601
 20
0.874850
  0
VERTEX
  8
FOREGROUND
  6
CONTINUOUS
 10
0.839151
 20
0.856825
  0
VERTEX
  8
FOREGROUND
  6
CONTINUOUS
 10
0.861962
 20
0.838998
  0
VERTEX
  8
FOREGROUND
  6
CONTINUOUS
 10
0.885032
 20
0.821371
  0
VERTEX
  8
FOREGROUND
  6
CONTINUOUS
 10
0.908357
 20
0.803943
  0
VERTEX
  8
FOREGROUND
  6
CONTINUOUS
 10
0.931936
 20
0.786714
  0
VERTEX
  8
FOREGROUND
  6
CONTINUOUS
 10
0.955764
 20
0.769684
  0
VERTEX
  8
FOREGROUND
  6
CONTINUOUS
 10
0.979839
 20
0.752854
  0
VERTEX
  8
FOREGROUND
  6
CONTINUOUS
 10
1.004158
 20
0.736222
  0
VERTEX
  8
FOREGROUND
  6
CONTINUOUS
 10
1.028719
 20
0.719790
  0
VERTEX
  8
FOREGROUND
  6
CONTINUOUS
 10
1.053518
 20
0.703556
  0
VERTEX
  8
FOREGROUND
  6
CONTINUOUS
 10
1.078552
 20
0.687522
  0
VERTEX
  8
FOREGROUND
  6
CONTINUOUS
 10
1.103819
 20
0.671687
  0
VERTEX
  8
FOREGROUND
  6
CONTINUOUS
 10
1.129315
 20
0.656051
  0
VERTEX
  8
FOREGROUND
  6
CONTINUOUS
 10
1.155038
 20
0.640615
  0
VERTEX
  8
FOREGROUND
  6
CONTINUOUS
 10
1.180985
 20
0.625377
  0
VERTEX
  8
FOREGROUND
  6
CONTINUOUS
 10
1.207152
 20
0.610339
  0
VERTEX
  8
FOREGROUND
  6
CONTINUOUS
 10
1.233538
 20
0.595499
  0
VERTEX
  8
FOREGROUND
  6
CONTINUOUS
 10
1.260138
 20
0.580859
  0
VERTEX
  8
FOREGROUND
  6
CONTINUOUS
 10
1.286951
 20
0.566418
  0
VERTEX
  8
FOREGROUND
  6
CONTINUOUS
 10
1.313973
 20
0.552176
  0
VERTEX
  8
FOREGROUND
  6
CONTINUOUS
 10
1.341202
 20
0.538133
  0
VERTEX
  8
FOREGROUND
  6
CONTINUOUS
 10
1.368634
 20
0.524289
  0
VERTEX
  8
FOREGROUND
  6
CONTINUOUS
 10
1.396266
 20
0.510645
  0
VERTEX
  8
FOREGROUND
  6
CONTINUOUS
 10
1.424097
 20
0.497199
  0
VERTEX
  8
FOREGROUND
  6
CONTINUOUS
 10
1.452121
 20
0.483953
  0
VERTEX
  8
FOREGROUND
  6
CONTINUOUS
 10
1.480338
 20
0.470906
  0
VERTEX
  8
FOREGROUND
  6
CONTINUOUS
 10
1.508744
 20
0.458058
  0
VERTEX
  8
FOREGROUND
  6
CONTINUOUS
 10
1.537336
 20
0.445409
  0
VERTEX
  8
FOREGROUND
  6
CONTINUOUS
 10
1.566111
 20
0.432959
  0
VERTEX
  8
FOREGROUND
  6
CONTINUOUS
 10
1.595066
 20
0.420709
  0
VERTEX
  8
FOREGROUND
  6
CONTINUOUS
 10
1.624198
 20
0.408657
  0
VERTEX
  8
FOREGROUND
  6
CONTINUOUS
 10
1.653505
 20
0.396805
  0
VERTEX
  8
FOREGROUND
  6
CONTINUOUS
 10
1.682984
 20
0.385152
  0
VERTEX
  8
FOREGROUND
  6
CONTINUOUS
 10
1.712631
 20
0.373698
  0
VERTEX
  8
FOREGROUND
  6
CONTINUOUS
 10
1.742444
 20
0.362443
  0
VERTEX
  8
FOREGROUND
  6
CONTINUOUS
 10
1.772419
 20
0.351387
  0
VERTEX
  8
FOREGROUND
  6
CONTINUOUS
 10
1.802555
 20
0.340530
  0
VERTEX
  8
FOREGROUND
  6
CONTINUOUS
 10
1.832848
 20
0.329873
  0
VERTEX
  8
FOREGROUND
  6
CONTINUOUS
 10
1.863294
 20
0.319415
  0
VERTEX
  8
FOREGROUND
  6
CONTINUOUS
 10
1.893892
 20
0.309155
  0
VERTEX
  8
FOREGROUND
  6
CONTINUOUS
 10
1.924638
 20
0.299095
  0
VERTEX
  8
FOREGROUND
  6
CONTINUOUS
 10
1.955530
 20
0.289234
  0
VERTEX
  8
FOREGROUND
  6
CONTINUOUS
 10
1.986564
 20
0.279572
  0
VERTEX
  8
FOREGROUND
  6
CONTINUOUS
 10
2.017738
 20
0.270110
  0
VERTEX
  8
FOREGROUND
  6
CONTINUOUS
 10
2.049048
 20
0.260846
  0
VERTEX
  8
FOREGROUND
  6
CONTINUOUS
 10
2.080493
 20
0.251782
  0
VERTEX
  8
FOREGROUND
  6
CONTINUOUS
 10
2.112068
 20
0.242917
  0
VERTEX
  8
FOREGROUND
  6
CONTINUOUS
 10
2.143771
 20
0.234251
  0
VERTEX
  8
FOREGROUND
  6
CONTINUOUS
 10
2.175599
 20
0.225784
  0
VERTEX
  8
FOREGROUND
  6
CONTINUOUS
 10
2.207549
 20
0.217516
  0
VERTEX
  8
FOREGROUND
  6
CONTINUOUS
 10
2.239619
 20
0.209447
  0
VERTEX
  8
FOREGROUND
  6
CONTINUOUS
 10
2.271805
 20
0.201578
  0
VERTEX
  8
FOREGROUND
  6
CONTINUOUS
 10
2.304105
 20
0.193907
  0
VERTEX
  8
FOREGROUND
  6
CONTINUOUS
 10
2.336515
 20
0.186436
  0
VERTEX
  8
FOREGROUND
  6
CONTINUOUS
 10
2.369032
 20
0.179164
  0
VERTEX
  8
FOREGROUND
  6
CONTINUOUS
 10
2.401655
 20
0.172091
  0
VERTEX
  8
FOREGROUND
  6
CONTINUOUS
 10
2.434379
 20
0.165217
  0
VERTEX
  8
FOREGROUND
  6
CONTINUOUS
 10
2.467203
 20
0.158542
  0
VERTEX
  8
FOREGROUND
  6
CONTINUOUS
 10
2.500122
 20
0.152067
  0
VERTEX
  8
FOREGROUND
  6
CONTINUOUS
 10
2.533135
 20
0.145790
  0
VERTEX
  8
FOREGROUND
  6
CONTINUOUS
 10
2.566237
 20
0.139713
  0
VERTEX
  8
FOREGROUND
  6
CONTINUOUS
 10
2.599428
 20
0.133835
  0
VERTEX
  8
FOREGROUND
  6
CONTINUOUS
 10
2.632702
 20
0.128156
  0
VERTEX
  8
FOREGROUND
  6
CONTINUOUS
 10
2.666058
 20
0.122676
  0
VERTEX
  8
FOREGROUND
  6
CONTINUOUS
 10
2.699493
 20
0.117396
  0
VERTEX
  8
FOREGROUND
  6
CONTINUOUS
 10
2.733004
 20
0.112314
  0
VERTEX
  8
FOREGROUND
  6
CONTINUOUS
 10
2.766587
 20
0.107432
  0
VERTEX
  8
FOREGROUND
  6
CONTINUOUS
 10
2.800240
 20
0.102749
  0
VERTEX
  8
FOREGROUND
  6
CONTINUOUS
 10
2.833961
 20
0.098265
  0
VERTEX
  8
FOREGROUND
  6
CONTINUOUS
 10
2.867745
 20
0.093980
  0
VERTEX
  8
FOREGROUND
  6
CONTINUOUS
 10
2.901591
 20
0.089894
  0
VERTEX
  8
FOREGROUND
  6
CONTINUOUS
 10
2.935495
 20
0.086007
  0
VERTEX
  8
FOREGROUND
  6
CONTINUOUS
 10
2.969454
 20
0.082320
  0
VERTEX
  8
FOREGROUND
  6
CONTINUOUS
 10
3.003466
 20
0.078831
  0
VERTEX
  8
FOREGROUND
  6
CONTINUOUS
 10
3.037528
 20
0.075542
  0
VERTEX
  8
FOREGROUND
  6
CONTINUOUS
 10
3.071636
 20
0.072452
  0
VERTEX
  8
FOREGROUND
  6
CONTINUOUS
 10
3.105788
 20
0.069561
  0
VERTEX
  8
FOREGROUND
  6
CONTINUOUS
 10
3.139981
 20
0.066870
  0
VERTEX
  8
FOREGROUND
  6
CONTINUOUS
 10
3.174212
 20
0.064377
  0
VERTEX
  8
FOREGROUND
  6
CONTINUOUS
 10
3.208478
 20
0.062084
  0
VERTEX
  8
FOREGROUND
  6
CONTINUOUS
 10
3.242776
 20
0.059989
  0
VERTEX
  8
FOREGROUND
  6
CONTINUOUS
 10
3.277103
 20
0.058094
  0
VERTEX
  8
FOREGROUND
  6
CONTINUOUS
 10
3.311457
 20
0.056398
  0
VERTEX
  8
FOREGROUND
  6
CONTINUOUS
 10
3.345835
 20
0.054901
  0
VERTEX
  8
FOREGROUND
  6
CONTINUOUS
 10
3.380233
 20
0.053604
  0
VERTEX
  8
FOREGROUND
  6
CONTINUOUS
 10
3.414648
 20
0.052505
  0
VERTEX
  8
FOREGROUND
  6
CONTINUOUS
 10
3.449079
 20
0.051606
  0
VERTEX
  8
FOREGROUND
  6
CONTINUOUS
 10
3.483521
 20
0.050905
  0
VERTEX
  8
FOREGROUND
  6
CONTINUOUS
 10
3.517972
 20
0.050404
  0
VERTEX
  8
FOREGROUND
  6
CONTINUOUS
 10
3.552430
 20
0.050102
  0
VERTEX
  8
FOREGROUND
  6
CONTINUOUS
 10
3.586890
 20
0.050000
  0
VERTEX
  8
FOREGROUND
  6
CONTINUOUS
 10
3.621351
 20
0.050096
  0
VERTEX
  8
FOREGROUND
  6
CONTINUOUS
 10
3.655809
 20
0.050392
  0
VERTEX
  8
FOREGROUND
  6
CONTINUOUS
 10
3.690262
 20
0.050886
  0
VERTEX
  8
FOREGROUND
  6
CONTINUOUS
 10
3.724706
 20
0.051580
  0
VERTEX
  8
FOREGROUND
  6
CONTINUOUS
 10
3.759139
 20
0.052473
  0
VERTEX
  8
FOREGROUND
  6
CONTINUOUS
 10
3.793557
 20
0.053565
  0
VERTEX
  8
FOREGROUND
  6
CONTINUOUS
 10
3.827959
 20
0.054857
  0
VERTEX
  8
FOREGROUND
  6
CONTINUOUS
 10
3.862340
 20
0.056347
  0
VERTEX
  8
FOREGROUND
  6
CONTINUOUS
 10
3.896698
 20
0.058037
  0
VERTEX
  8
FOREGROUND
  6
CONTINUOUS
 10
3.931031
 20
0.059925
  0
VERTEX
  8
FOREGROUND
  6
CONTINUOUS
 10
3.965335
 20
0.062013
  0
VERTEX
  8
FOREGROUND
  6
CONTINUOUS
 10
3.999607
 20
0.064300
  0
VERTEX
  8
FOREGROUND
  6
CONTINUOUS
 10
4.033844
 20
0.066787
  0
VERTEX
  8
FOREGROUND
  6
CONTINUOUS
 10
4.068044
 20
0.069472
  0
VERTEX
  8
FOREGROUND
  6
CONTINUOUS
 10
4.102204
 20
0.072357
  0
VERTEX
  8
FOREGROUND
  6
CONTINUOUS
 10
4.136320
 20
0.075440
  0
VERTEX
  8
FOREGROUND
  6
CONTINUOUS
 10
4.170390
 20
0.078723
  0
VERTEX
  8
FOREGROUND
  6
CONTINUOUS
 10
4.204412
 20
0.082205
  0
VERTEX
  8
FOREGROUND
  6
CONTINUOUS
 10
4.238381
 20
0.085886
  0
VERTEX
  8
FOREGROUND
  6
CONTINUOUS
 10
4.272295
 20
0.089767
  0
VERTEX
  8
FOREGROUND
  6
CONTINUOUS
 10
4.306151
 20
0.093846
  0
VERTEX
  8
FOREGROUND
  6
CONTINUOUS
 10
4.339947
 20
0.098125
  0
VERTEX
  8
FOREGROUND
  6
CONTINUOUS
 10
4.373679
 20
0.102603
  0
VERTEX
  8
FOREGROUND
  6
CONTINUOUS
 10
4.407345
 20
0.107280
  0
VERTEX
  8
FOREGROUND
  6
CONTINUOUS
 10
4.440941
 20
0.112156
  0
VERTEX
  8
FOREGROUND
  6
CONTINUOUS
 10
4.474465
 20
0.117231
  0
VERTEX
  8
FOREGROUND
  6
CONTINUOUS
 10
4.507914
 20
0.122506
  0
VERTEX
  8
FOREGROUND
  6
CONTINUOUS
 10
4.541284
 20
0.127979
  0
VERTEX
  8
FOREGROUND
  6
CONTINUOUS
 10
4.574574
 20
0.133652
  0
VERTEX
  8
FOREGROUND
  6
CONTINUOUS
 10
4.607779
 20
0.139524
  0
VERTEX
  8
FOREGROUND
  6
CONTINUOUS
 10
4.640898
 20
0.145595
  0
VERTEX
  8
FOREGROUND
  6
CONTINUOUS
 10
4.673927
 20
0.151865
  0
VERTEX
  8
FOREGROUND
  6
CONTINUOUS
 10
4.706864
 20
0.158335
  0
VERTEX
  8
FOREGROUND
  6
CONTINUOUS
 10
4.739704
 20
0.165003
  0
VERTEX
  8
FOREGROUND
  6
CONTINUOUS
 10
4.772447
 20
0.171871
  0
VERTEX
  8
FOREGROUND
  6
CONTINUOUS
 10
4.805088
 20
0.178938
  0
VERTEX
  8
FOREGROUND
  6
CONTINUOUS
 10
4.837625
 20
0.186204
  0
VERTEX
  8
FOREGROUND
  6
CONTINUOUS
 10
4.870055
 20
0.193669
  0
VERTEX
  8
FOREGROUND
  6
CONTINUOUS
 10
4.902374
 20
0.201334
  0
VERTEX
  8
FOREGROUND
  6
CONTINUOUS
 10
4.934581
 20
0.209197
  0
VERTEX
  8
FOREGROUND
  6
CONTINUOUS
 10
4.966672
 20
0.217260
  0
VERTEX
  8
FOREGROUND
  6
CONTINUOUS
 10
4.998644
 20
0.225522
  0
VERTEX
  8
FOREGROUND
  6
CONTINUOUS
 10
5.030495
 20
0.233983
  0
VERTEX
  8
FOREGROUND
  6
CONTINUOUS
 10
5.062221
 20
0.242643
  0
VERTEX
  8
FOREGROUND
  6
CONTINUOUS
 10
5.093819
 20
0.251503
  0
VERTEX
  8
FOREGROUND
  6
CONTINUOUS
 10
5.125287
 20
0.260561
  0
VERTEX
  8
FOREGROUND
  6
CONTINUOUS
 10
5.156622
 20
0.269819
  0
VERTEX
  8
FOREGROUND
  6
CONTINUOUS
 10
5.187821
 20
0.279276
  0
VERTEX
  8
FOREGROUND
  6
CONTINUOUS
 10
5.218880
 20
0.288932
  0
VERTEX
  8
FOREGROUND
  6
CONTINUOUS
 10
5.249798
 20
0.298787
  0
VERTEX
  8
FOREGROUND
  6
CONTINUOUS
 10
5.280571
 20
0.308841
  0
VERTEX
  8
FOREGROUND
  6
CONTINUOUS
 10
5.311195
 20
0.319095
  0
VERTEX
  8
FOREGROUND
  6
CONTINUOUS
 10
5.341670
 20
0.329548
  0
VERTEX
  8
FOREGROUND
  6
CONTINUOUS
 10
5.371990
 20
0.340199
  0
VERTEX
  8
FOREGROUND
  6
CONTINUOUS
 10
5.402155
 20
0.351050
  0
VERTEX
  8
FOREGROUND
  6
CONTINUOUS
 10
5.432159
 20
0.362101
  0
VERTEX
  8
FOREGROUND
  6
CONTINUOUS
 10
5.462002
 20
0.373350
  0
VERTEX
  8
FOREGROUND
  6
CONTINUOUS
 10
5.491679
 20
0.384799
  0
VERTEX
  8
FOREGROUND
  6
CONTINUOUS
 10
5.521188
 20
0.396446
  0
VERTEX
  8
FOREGROUND
  6
CONTINUOUS
 10
5.550526
 20
0.408293
  0
VERTEX
  8
FOREGROUND
  6
CONTINUOUS
 10
5.579691
 20
0.420339
  0
VERTEX
  8
FOREGROUND
  6
CONTINUOUS
 10
5.608678
 20
0.432585
  0
VERTEX
  8
FOREGROUND
  6
CONTINUOUS
 10
5.637486
 20
0.445029
  0
VERTEX
  8
FOREGROUND
  6
CONTINUOUS
 10
5.666111
 20
0.457673
  0
VERTEX
  8
FOREGROUND
  6
CONTINUOUS
 10
5.694550
 20
0.470515
  0
VERTEX
  8
FOREGROUND
  6
CONTINUOUS
 10
5.722801
 20
0.483557
  0
VERTEX
  8
FOREGROUND
  6
CONTINUOUS
 10
5.750861
 20
0.496798
  0
VERTEX
  8
FOREGROUND
  6
CONTINUOUS
 10
5.778727
 20
0.510239
  0
VERTEX
  8
FOREGROUND
  6
CONTINUOUS
 10
5.806395
 20
0.523878
  0
VERTEX
  8
FOREGROUND
  6
CONTINUOUS
 10
5.833864
 20
0.537717
  0
VERTEX
  8
FOREGROUND
  6
CONTINUOUS
 10
5.861129
 20
0.551754
  0
VERTEX
  8
FOREGROUND
  6
CONTINUOUS
 10
5.888189
 20
0.565991
  0
VERTEX
  8
FOREGROUND
  6
CONTINUOUS
 10
5.915040
 20
0.580427
  0
VERTEX
  8
FOREGROUND
  6
CONTINUOUS
 10
5.941679
 20
0.595063
  0
VERTEX
  8
FOREGROUND
  6
CONTINUOUS
 10
5.968104
 20
0.609897
  0
VERTEX
  8
FOREGROUND
  6
CONTINUOUS
 10
5.994311
 20
0.624931
  0
VERTEX
  8
FOREGROUND
  6
CONTINUOUS
 10
6.020298
 20
0.640164
  0
VERTEX
  8
FOREGROUND
  6
CONTINUOUS
 10
6.046061
 20
0.655596
  0
VERTEX
  8
FOREGROUND
  6
CONTINUOUS
 10
6.071599
 20
0.671227
  0
VERTEX
  8
FOREGROUND
  6
CONTINUOUS
 10
6.096907
 20
0.687057
  0
VERTEX
  8
FOREGROUND
  6
CONTINUOUS
 10
6.121984
 20
0.703086
  0
VERTEX
  8
FOREGROUND
  6
CONTINUOUS
 10
6.146825
 20
0.719315
  0
VERTEX
  8
FOREGROUND
  6
CONTINUOUS
 10
6.171429
 20
0.735743
  0
VERTEX
  8
FOREGROUND
  6
CONTINUOUS
 10
6.195792
 20
0.752370
  0
VERTEX
  8
FOREGROUND
  6
CONTINUOUS
 10
6.219911
 20
0.769196
  0
VERTEX
  8
FOREGROUND
  6
CONTINUOUS
 10
6.243784
 20
0.786222
  0
VERTEX
  8
FOREGROUND
  6
CONTINUOUS
 10
6.267408
 20
0.803446
  0
VERTEX
  8
FOREGROUND
  6
CONTINUOUS
 10
6.290779
 20
0.820870
  0
VERTEX
  8
FOREGROUND
  6
CONTINUOUS
 10
6.313896
 20
0.838493
  0
VERTEX
  8
FOREGROUND
  6
CONTINUOUS
 10
6.336754
 20
0.856315
  0
VERTEX
  8
FOREGROUND
  6
CONTINUOUS
 10
6.359351
 20
0.874336
  0
VERTEX
  8
FOREGROUND
  6
CONTINUOUS
 10
6.381684
 20
0.892557
  0
VERTEX
  8
FOREGROUND
  6
CONTINUOUS
 10
6.403750
 20
0.910976
  0
VERTEX
  8
FOREGROUND
  6
CONTINUOUS
 10
6.425547
 20
0.929595
  0
VERTEX
  8
FOREGROUND
  6
CONTINUOUS
 10
6.447071
 20
0.948413
  0
VERTEX
  8
FOREGROUND
  6
CONTINUOUS
 10
6.468320
 20
0.967430
  0
VERTEX
  8
FOREGROUND
  6
CONTINUOUS
 10
6.489290
 20
0.986647
  0
VERTEX
  8
FOREGROUND
  6
CONTINUOUS
 10
6.509978
 20
1.006062
  0
VERTEX
  8
FOREGROUND
  6
CONTINUOUS
 10
6.530383
 20
1.025677
  0
VERTEX
  8
FOREGROUND
  6
CONTINUOUS
 10
6.550501
 20
1.045491
  0
VERTEX
  8
FOREGROUND
  6
CONTINUOUS
 10
6.570328
 20
1.065504
  0
VERTEX
  8
FOREGROUND
  6
CONTINUOUS
 10
6.589862
 20
1.085716
  0
VERTEX
  8
FOREGROUND
  6
CONTINUOUS
 10
6.609101
 20
1.106127
  0
VERTEX
  8
FOREGROUND
  6
CONTINUOUS
 10
6.628041
 20
1.126738
  0
VERTEX
  8
FOREGROUND
  6
CONTINUOUS
 10
6.646679
 20
1.147548
  0
VERTEX
  8
FOREGROUND
  6
CONTINUOUS
 10
6.665013
 20
1.168557
  0
VERTEX
  8
FOREGROUND
  6
CONTINUOUS
 10
6.683039
 20
1.189765
  0
VERTEX
  8
FOREGROUND
  6
CONTINUOUS
 10
6.700755
 20
1.211172
  0
VERTEX
  8
FOREGROUND
  6
CONTINUOUS
 10
6.718158
 20
1.232779
  0
VERTEX
  8
FOREGROUND
  6
CONTINUOUS
 10
6.735245
 20
1.254584
  0
VERTEX
  8
FOREGROUND
  6
CONTINUOUS
 10
6.752012
 20
1.276589
  0
VERTEX
  8
FOREGROUND
  6
CONTINUOUS
 10
6.768458
 20
1.298793
  0
VERTEX
  8
FOREGROUND
  6
CONTINUOUS
 10
6.784579
 20
1.321196
  0
VERTEX
  8
FOREGROUND
  6
CONTINUOUS
 10
6.800371
 20
1.343799
  0
VERTEX
  8
FOREGROUND
  6
CONTINUOUS
 10
6.815834
 20
1.366600
  0
VERTEX
  8
FOREGROUND
  6
CONTINUOUS
 10
6.830962
 20
1.389601
  0
VERTEX
  8
FOREGROUND
  6
CONTINUOUS
 10
6.845755
 20
1.412801
  0
VERTEX
  8
FOREGROUND
  6
CONTINUOUS
 10
6.860208
 20
1.436200
  0
VERTEX
  8
FOREGROUND
  6
CONTINUOUS
 10
6.874318
 20
1.459799
  0
VERTEX
  8
FOREGROUND
  6
CONTINUOUS
 10
6.888084
 20
1.483596
  0
VERTEX
  8
FOREGROUND
  6
CONTINUOUS
 10
6.901501
 20
1.507593
  0
VERTEX
  8
FOREGROUND
  6
CONTINUOUS
 10
6.914567
 20
1.531789
  0
VERTEX
  8
FOREGROUND
  6
CONTINUOUS
 10
6.927280
 20
1.556184
  0
VERTEX
  8
FOREGROUND
  6
CONTINUOUS
 10
6.939635
 20
1.580778
  0
VERTEX
  8
FOREGROUND
  6
CONTINUOUS
 10
6.951631
 20
1.605572
  0
VERTEX
  8
FOREGROUND
  6
CONTINUOUS
 10
6.963265
 20
1.630564
  0
VERTEX
  8
FOREGROUND
  6
CONTINUOUS
 10
6.974532
 20
1.655756
  0
VERTEX
  8
FOREGROUND
  6
CONTINUOUS
 10
6.985432
 20
1.681147
  0
VERTEX
  8
FOREGROUND
  6
CONTINUOUS
 10
6.995960
 20
1.706737
  0
VERTEX
  8
FOREGROUND
  6
CONTINUOUS
 10
7.006114
 20
1.732527
  0
VERTEX
  8
FOREGROUND
  6
CONTINUOUS
 10
7.015891
 20
1.758515
  0
VERTEX
  8
FOREGROUND
  6
CONTINUOUS
 10
7.025287
 20
1.784703
  0
VERTEX
  8
FOREGROUND
  6
CONTINUOUS
 10
7.034301
 20
1.811090
  0
VERTEX
  8
FOREGROUND
  6
CONTINUOUS
 10
7.042929
 20
1.837676
  0
VERTEX
  8
FOREGROUND
  6
CONTINUOUS
 10
7.051169
 20
1.864461
  0
VERTEX
  8
FOREGROUND
  6
CONTINUOUS
 10
7.059016
 20
1.891446
  0
VERTEX
  8
FOREGROUND
  6
CONTINUOUS
 10
7.066470
 20
1.918630
  0
VERTEX
  8
FOREGROUND
  6
CONTINUOUS
 10
7.073525
 20
1.946013
  0
VERTEX
  8
FOREGROUND
  6
CONTINUOUS
 10
7.080181
 20
1.973595
  0
VERTEX
  8
FOREGROUND
  6
CONTINUOUS
 10
7.086433
 20
2.001376
  0
VERTEX
  8
FOREGROUND
  6
CONTINUOUS
 10
7.092279
 20
2.029356
  0
VERTEX
  8
FOREGROUND
  6
CONTINUOUS
 10
7.097716
 20
2.057536
  0
VERTEX
  8
FOREGROUND
  6
CONTINUOUS
 10
7.102741
 20
2.085915
  0
VERTEX
  8
FOREGROUND
  6
CONTINUOUS
 10
7.107351
 20
2.114493
  0
VERTEX
  8
FOREGROUND
  6
CONTINUOUS
 10
7.111544
 20
2.143270
  0
VERTEX
  8
FOREGROUND
  6
CONTINUOUS
 10
7.115315
 20
2.172247
  0
VERTEX
  8
FOREGROUND
  6
CONTINUOUS
 10
7.118664
 20
2.201422
  0
VERTEX
  8
FOREGROUND
  6
CONTINUOUS
 10
7.121585
 20
2.230797
  0
VERTEX
  8
FOREGROUND
  6
CONTINUOUS
 10
7.124078
 20
2.260371
  0
VERTEX
  8
FOREGROUND
  6
CONTINUOUS
 10
7.126138
 20
2.290144
  0
VERTEX
  8
FOREGROUND
  6
CONTINUOUS
 10
7.127763
 20
2.320117
  0
VERTEX
  8
FOREGROUND
  6
CONTINUOUS
 10
7.128950
 20
2.350288
  0
VERTEX
  8
FOREGROUND
  6
CONTINUOUS
 10
7.129696
 20
2.380659
  0
VERTEX
  8
FOREGROUND
  6
CONTINUOUS
 10
7.129998
 20
2.411229
  0
SEQEND
  8
0
  0
ENDSEC
  0
EOF
