  0
SECTION
  2
HEADER
  9
$ACADVER
  1
AC1006
  9
$EXTMIN
 10
0.000000
 20
0.000000
  9
$EXTMAX
 10
7.186667
 20
4.035000
  9
$LTSCALE
 40
0.166667
  9
$PDMODE
 70
    35
  9
$PDSIZE
 40
0.133333
  0
ENDSEC
  0
SECTION
  2
TABLES
  0
TABLE
  2
LTYPE
 70
     9
  0
LTYPE
  2
CONTINUOUS
 70
    64
  3
Solid line
 72
    65
 73
     0
 40
0.000000
  0
LTYPE
  2
DASHED
 70
    64
  3
__ __ __ __ __ __ __ __ __ __ __ __ __ __ __
 72
    65
 73
     2
 40
0.001250
 49
0.000833
 49
-0.000417
  0
LTYPE
  2
HIDDEN
 70
    64
  3
 _ _ _ _ _ _ _ _ _ _ _ _ _ _ _ _ _ _ _ _ _ _
 72
    65
 73
     2
 40
0.000625
 49
0.000417
 49
-0.000208
  0
LTYPE
  2
CENTER
 70
    64
  3
____ _ ____ _ ____ _ ____ _ ____ _ ____ _ ____
 72
    65
 73
     4
 40
0.003333
 49
0.002083
 49
-0.000417
 49
0.000417
 49
-0.000417
  0
LTYPE
  2
PHANTOM
 70
    64
  3
_____ _ _ _____ _ _ _____ _ _ _____ _ _ ____
 72
    65
 73
     6
 40
0.004167
 49
0.002083
 49
-0.000417
 49
0.000417
 49
-0.000417
 49
0.000417
 49
-0.000417
  0
LTYPE
  2
DOT
 70
    64
  3
...............................................
 72
    65
 73
     2
 40
0.000417
 49
0.000000
 49
-0.000417
  0
LTYPE
  2
DASHDOT
 70
    64
  3
__ . __ . __ . __ . __ . __ . __ . __ . __ . __
 72
    65
 73
     4
 40
0.001667
 49
0.000833
 49
-0.000417
 49
0.000000
 49
-0.000417
  0
LTYPE
  2
BORDER
 70
    64
  3
__ __ . __ __ . __ __ . __ __ . __ __ . __ __
 72
    65
 73
     6
 40
0.002917
 49
0.000833
 49
-0.000417
 49
0.000833
 49
-0.000417
 49
0.000000
 49
-0.000417
  0
LTYPE
  2
DIVIDE
 70
    64
  3
__ . . __ . . __ . . __ . . __ . . __ . . __
 72
    65
 73
     6
 40
0.002083
 49
0.000833
 49
-0.000417
 49
0.000000
 49
-0.000417
 49
0.000000
 49
-0.000417
  0
LTYPE
  2
DOTDOT
 70
    64
  3
 . .  . .  . .  . .  . .  . . 
 72
    65
 73
     5
 40
0.000917
 49
-0.000417
 49
0.000000
 49
-0.000417
 49
0.000000
 49
-0.000417
  0
ENDTAB
  0
TABLE
  2
STYLE
 70
     2
  0
STYLE
 70
     0
  2
SN0
 40
0.000000
 41
0.001667
 50
0.000000
 71
     0
 42
0.000000
  3
ROMAND
  0
STYLE
 70
    68
  2
SV0
 40
0.000000
 41
0.001667
 50
0.000000
 71
     0
 42
0.000000
  3
ROMAND
  0
ENDTAB
  0
TABLE
  2
LAYER
 70
     2
  0
LAYER
  2
FOREGROUND
 70
    64
 62
     7
  6
CONTINUOUS
  0
LAYER
  2
BACKGROUND
 70
    65
 62
    -7
  6
CONTINUOUS
  0
ENDTAB
  0
ENDSEC
  0
SECTION
  2
ENTITIES
  0
POLYLINE
  8
FOREGROUND
  6
CONTINUOUS
 66
     1
 40
0.010000
 41
0.010000
 70
     1
  0
VERTEX
  8
FOREGROUND
  6
CONTINUOUS
 10
7.136664
 20
2.018333
  0
VERTEX
  8
FOREGROUND
  6
CONTINUOUS
 10
7.136440
 20
2.044642
  0
VERTEX
  8
FOREGROUND
  6
CONTINUOUS
 10
7.135741
 20
2.070773
  0
VERTEX
  8
FOREGROUND
  6
CONTINUOUS
 10
7.134570
 20
2.096727
  0
VERTEX
  8
FOREGROUND
  6
CONTINUOUS
 10
7.132930
 20
2.122504
  0
VERTEX
  8
FOREGROUND
  6
CONTINUOUS
 10
7.130825
 20
2.148104
  0
VERTEX
  8
FOREGROUND
  6
CONTINUOUS
 10
7.128257
 20
2.173527
  0
VERTEX
  8
FOREGROUND
  6
CONTINUOUS
 10
7.125231
 20
2.198772
  0
VERTEX
  8
FOREGROUND
  6
CONTINUOUS
 10
7.121748
 20
2.223841
  0
VERTEX
  8
FOREGROUND
  6
CONTINUOUS
 10
7.117813
 20
2.248732
  0
VERTEX
  8
FOREGROUND
  6
CONTINUOUS
 10
7.113428
 20
2.273446
  0
VERTEX
  8
FOREGROUND
  6
CONTINUOUS
 10
7.108597
 20
2.297983
  0
VERTEX
  8
FOREGROUND
  6
CONTINUOUS
 10
7.103323
 20
2.322343
  0
VERTEX
  8
FOREGROUND
  6
CONTINUOUS
 10
7.097609
 20
2.346525
  0
VERTEX
  8
FOREGROUND
  6
CONTINUOUS
 10
7.091458
 20
2.370531
  0
VERTEX
  8
FOREGROUND
  6
CONTINUOUS
 10
7.084874
 20
2.394359
  0
VERTEX
  8
FOREGROUND
  6
CONTINUOUS
 10
7.077860
 20
2.418010
  0
VERTEX
  8
FOREGROUND
  6
CONTINUOUS
 10
7.070418
 20
2.441484
  0
VERTEX
  8
FOREGROUND
  6
CONTINUOUS
 10
7.062553
 20
2.464781
  0
VERTEX
  8
FOREGROUND
  6
CONTINUOUS
 10
7.054267
 20
2.487901
  0
VERTEX
  8
FOREGROUND
  6
CONTINUOUS
 10
7.045564
 20
2.510844
  0
VERTEX
  8
FOREGROUND
  6
CONTINUOUS
 10
7.036446
 20
2.533609
  0
VERTEX
  8
FOREGROUND
  6
CONTINUOUS
 10
7.026918
 20
2.556197
  0
VERTEX
  8
FOREGROUND
  6
CONTINUOUS
 10
7.016982
 20
2.578608
  0
VERTEX
  8
FOREGROUND
  6
CONTINUOUS
 10
7.006641
 20
2.600842
  0
VERTEX
  8
FOREGROUND
  6
CONTINUOUS
 10
6.995899
 20
2.622899
  0
VERTEX
  8
FOREGROUND
  6
CONTINUOUS
 10
6.984758
 20
2.644779
  0
VERTEX
  8
FOREGROUND
  6
CONTINUOUS
 10
6.973223
 20
2.666481
  0
VERTEX
  8
FOREGROUND
  6
CONTINUOUS
 10
6.961296
 20
2.688007
  0
VERTEX
  8
FOREGROUND
  6
CONTINUOUS
 10
6.948980
 20
2.709355
  0
VERTEX
  8
FOREGROUND
  6
CONTINUOUS
 10
6.936279
 20
2.730526
  0
VERTEX
  8
FOREGROUND
  6
CONTINUOUS
 10
6.923196
 20
2.751520
  0
VERTEX
  8
FOREGROUND
  6
CONTINUOUS
 10
6.909734
 20
2.772337
  0
VERTEX
  8
FOREGROUND
  6
CONTINUOUS
 10
6.895896
 20
2.792976
  0
VERTEX
  8
FOREGROUND
  6
CONTINUOUS
 10
6.881686
 20
2.813439
  0
VERTEX
  8
FOREGROUND
  6
CONTINUOUS
 10
6.867106
 20
2.833724
  0
VERTEX
  8
FOREGROUND
  6
CONTINUOUS
 10
6.852161
 20
2.853832
  0
VERTEX
  8
FOREGROUND
  6
CONTINUOUS
 10
6.836852
 20
2.873763
  0
VERTEX
  8
FOREGROUND
  6
CONTINUOUS
 10
6.821184
 20
2.893517
  0
VERTEX
  8
FOREGROUND
  6
CONTINUOUS
 10
6.805159
 20
2.913094
  0
VERTEX
  8
FOREGROUND
  6
CONTINUOUS
 10
6.788781
 20
2.932494
  0
VERTEX
  8
FOREGROUND
  6
CONTINUOUS
 10
6.772053
 20
2.951716
  0
VERTEX
  8
FOREGROUND
  6
CONTINUOUS
 10
6.754979
 20
2.970761
  0
VERTEX
  8
FOREGROUND
  6
CONTINUOUS
 10
6.737560
 20
2.989629
  0
VERTEX
  8
FOREGROUND
  6
CONTINUOUS
 10
6.719801
 20
3.008320
  0
VERTEX
  8
FOREGROUND
  6
CONTINUOUS
 10
6.701705
 20
3.026834
  0
VERTEX
  8
FOREGROUND
  6
CONTINUOUS
 10
6.683275
 20
3.045171
  0
VERTEX
  8
FOREGROUND
  6
CONTINUOUS
 10
6.664514
 20
3.063330
  0
VERTEX
  8
FOREGROUND
  6
CONTINUOUS
 10
6.645426
 20
3.081313
  0
VERTEX
  8
FOREGROUND
  6
CONTINUOUS
 10
6.626013
 20
3.099118
  0
VERTEX
  8
FOREGROUND
  6
CONTINUOUS
 10
6.606279
 20
3.116746
  0
VERTEX
  8
FOREGROUND
  6
CONTINUOUS
 10
6.586227
 20
3.134197
  0
VERTEX
  8
FOREGROUND
  6
CONTINUOUS
 10
6.565860
 20
3.151470
  0
VERTEX
  8
FOREGROUND
  6
CONTINUOUS
 10
6.545182
 20
3.168567
  0
VERTEX
  8
FOREGROUND
  6
CONTINUOUS
 10
6.524196
 20
3.185486
  0
VERTEX
  8
FOREGROUND
  6
CONTINUOUS
 10
6.502904
 20
3.202229
  0
VERTEX
  8
FOREGROUND
  6
CONTINUOUS
 10
6.481310
 20
3.218794
  0
VERTEX
  8
FOREGROUND
  6
CONTINUOUS
 10
6.459418
 20
3.235182
  0
VERTEX
  8
FOREGROUND
  6
CONTINUOUS
 10
6.437230
 20
3.251393
  0
VERTEX
  8
FOREGROUND
  6
CONTINUOUS
 10
6.414750
 20
3.267426
  0
VERTEX
  8
FOREGROUND
  6
CONTINUOUS
 10
6.391980
 20
3.283283
  0
VERTEX
  8
FOREGROUND
  6
CONTINUOUS
 10
6.368925
 20
3.298962
  0
VERTEX
  8
FOREGROUND
  6
CONTINUOUS
 10
6.345587
 20
3.314464
  0
VERTEX
  8
FOREGROUND
  6
CONTINUOUS
 10
6.321970
 20
3.329789
  0
VERTEX
  8
FOREGROUND
  6
CONTINUOUS
 10
6.298076
 20
3.344937
  0
VERTEX
  8
FOREGROUND
  6
CONTINUOUS
 10
6.273910
 20
3.359908
  0
VERTEX
  8
FOREGROUND
  6
CONTINUOUS
 10
6.249473
 20
3.374701
  0
VERTEX
  8
FOREGROUND
  6
CONTINUOUS
 10
6.224770
 20
3.389318
  0
VERTEX
  8
FOREGROUND
  6
CONTINUOUS
 10
6.199804
 20
3.403757
  0
VERTEX
  8
FOREGROUND
  6
CONTINUOUS
 10
6.174577
 20
3.418019
  0
VERTEX
  8
FOREGROUND
  6
CONTINUOUS
 10
6.149093
 20
3.432104
  0
VERTEX
  8
FOREGROUND
  6
CONTINUOUS
 10
6.123355
 20
3.446012
  0
VERTEX
  8
FOREGROUND
  6
CONTINUOUS
 10
6.097367
 20
3.459743
  0
VERTEX
  8
FOREGROUND
  6
CONTINUOUS
 10
6.071132
 20
3.473296
  0
VERTEX
  8
FOREGROUND
  6
CONTINUOUS
 10
6.044652
 20
3.486673
  0
VERTEX
  8
FOREGROUND
  6
CONTINUOUS
 10
6.017931
 20
3.499872
  0
VERTEX
  8
FOREGROUND
  6
CONTINUOUS
 10
5.990973
 20
3.512894
  0
VERTEX
  8
FOREGROUND
  6
CONTINUOUS
 10
5.963780
 20
3.525739
  0
VERTEX
  8
FOREGROUND
  6
CONTINUOUS
 10
5.936355
 20
3.538406
  0
VERTEX
  8
FOREGROUND
  6
CONTINUOUS
 10
5.908703
 20
3.550897
  0
VERTEX
  8
FOREGROUND
  6
CONTINUOUS
 10
5.880825
 20
3.563210
  0
VERTEX
  8
FOREGROUND
  6
CONTINUOUS
 10
5.852726
 20
3.575347
  0
VERTEX
  8
FOREGROUND
  6
CONTINUOUS
 10
5.824408
 20
3.587306
  0
VERTEX
  8
FOREGROUND
  6
CONTINUOUS
 10
5.795875
 20
3.599088
  0
VERTEX
  8
FOREGROUND
  6
CONTINUOUS
 10
5.767130
 20
3.610692
  0
VERTEX
  8
FOREGROUND
  6
CONTINUOUS
 10
5.738176
 20
3.622120
  0
VERTEX
  8
FOREGROUND
  6
CONTINUOUS
 10
5.709016
 20
3.633371
  0
VERTEX
  8
FOREGROUND
  6
CONTINUOUS
 10
5.679654
 20
3.644444
  0
VERTEX
  8
FOREGROUND
  6
CONTINUOUS
 10
5.650093
 20
3.655340
  0
VERTEX
  8
FOREGROUND
  6
CONTINUOUS
 10
5.620335
 20
3.666059
  0
VERTEX
  8
FOREGROUND
  6
CONTINUOUS
 10
5.590385
 20
3.676601
  0
VERTEX
  8
FOREGROUND
  6
CONTINUOUS
 10
5.560245
 20
3.686966
  0
VERTEX
  8
FOREGROUND
  6
CONTINUOUS
 10
5.529919
 20
3.697153
  0
VERTEX
  8
FOREGROUND
  6
CONTINUOUS
 10
5.499409
 20
3.707164
  0
VERTEX
  8
FOREGROUND
  6
CONTINUOUS
 10
5.468719
 20
3.716997
  0
VERTEX
  8
FOREGROUND
  6
CONTINUOUS
 10
5.437853
 20
3.726653
  0
VERTEX
  8
FOREGROUND
  6
CONTINUOUS
 10
5.406813
 20
3.736132
  0
VERTEX
  8
FOREGROUND
  6
CONTINUOUS
 10
5.375602
 20
3.745434
  0
VERTEX
  8
FOREGROUND
  6
CONTINUOUS
 10
5.344224
 20
3.754558
  0
VERTEX
  8
FOREGROUND
  6
CONTINUOUS
 10
5.312683
 20
3.763506
  0
VERTEX
  8
FOREGROUND
  6
CONTINUOUS
 10
5.280980
 20
3.772276
  0
VERTEX
  8
FOREGROUND
  6
CONTINUOUS
 10
5.249120
 20
3.780869
  0
VERTEX
  8
FOREGROUND
  6
CONTINUOUS
 10
5.217106
 20
3.789285
  0
VERTEX
  8
FOREGROUND
  6
CONTINUOUS
 10
5.184941
 20
3.797524
  0
VERTEX
  8
FOREGROUND
  6
CONTINUOUS
 10
5.152627
 20
3.805585
  0
VERTEX
  8
FOREGROUND
  6
CONTINUOUS
 10
5.120169
 20
3.813470
  0
VERTEX
  8
FOREGROUND
  6
CONTINUOUS
 10
5.087569
 20
3.821177
  0
VERTEX
  8
FOREGROUND
  6
CONTINUOUS
 10
5.054831
 20
3.828707
  0
VERTEX
  8
FOREGROUND
  6
CONTINUOUS
 10
5.021958
 20
3.836061
  0
VERTEX
  8
FOREGROUND
  6
CONTINUOUS
 10
4.988953
 20
3.843236
  0
VERTEX
  8
FOREGROUND
  6
CONTINUOUS
 10
4.955819
 20
3.850235
  0
VERTEX
  8
FOREGROUND
  6
CONTINUOUS
 10
4.922560
 20
3.857057
  0
VERTEX
  8
FOREGROUND
  6
CONTINUOUS
 10
4.889179
 20
3.863701
  0
VERTEX
  8
FOREGROUND
  6
CONTINUOUS
 10
4.855678
 20
3.870168
  0
VERTEX
  8
FOREGROUND
  6
CONTINUOUS
 10
4.822062
 20
3.876458
  0
VERTEX
  8
FOREGROUND
  6
CONTINUOUS
 10
4.788333
 20
3.882571
  0
VERTEX
  8
FOREGROUND
  6
CONTINUOUS
 10
4.754494
 20
3.888507
  0
VERTEX
  8
FOREGROUND
  6
CONTINUOUS
 10
4.720550
 20
3.894266
  0
VERTEX
  8
FOREGROUND
  6
CONTINUOUS
 10
4.686502
 20
3.899847
  0
VERTEX
  8
FOREGROUND
  6
CONTINUOUS
 10
4.652354
 20
3.905251
  0
VERTEX
  8
FOREGROUND
  6
CONTINUOUS
 10
4.618110
 20
3.910479
  0
VERTEX
  8
FOREGROUND
  6
CONTINUOUS
 10
4.583773
 20
3.915529
  0
VERTEX
  8
FOREGROUND
  6
CONTINUOUS
 10
4.549345
 20
3.920401
  0
VERTEX
  8
FOREGROUND
  6
CONTINUOUS
 10
4.514830
 20
3.925097
  0
VERTEX
  8
FOREGROUND
  6
CONTINUOUS
 10
4.480232
 20
3.929616
  0
VERTEX
  8
FOREGROUND
  6
CONTINUOUS
 10
4.445553
 20
3.933957
  0
VERTEX
  8
FOREGROUND
  6
CONTINUOUS
 10
4.410796
 20
3.938121
  0
VERTEX
  8
FOREGROUND
  6
CONTINUOUS
 10
4.375966
 20
3.942108
  0
VERTEX
  8
FOREGROUND
  6
CONTINUOUS
 10
4.341064
 20
3.945918
  0
VERTEX
  8
FOREGROUND
  6
CONTINUOUS
 10
4.306095
 20
3.949551
  0
VERTEX
  8
FOREGROUND
  6
CONTINUOUS
 10
4.271061
 20
3.953006
  0
VERTEX
  8
FOREGROUND
  6
CONTINUOUS
 10
4.235966
 20
3.956285
  0
VERTEX
  8
FOREGROUND
  6
CONTINUOUS
 10
4.200812
 20
3.959386
  0
VERTEX
  8
FOREGROUND
  6
CONTINUOUS
 10
4.165604
 20
3.962310
  0
VERTEX
  8
FOREGROUND
  6
CONTINUOUS
 10
4.130344
 20
3.965057
  0
VERTEX
  8
FOREGROUND
  6
CONTINUOUS
 10
4.095036
 20
3.967626
  0
VERTEX
  8
FOREGROUND
  6
CONTINUOUS
 10
4.059682
 20
3.970019
  0
VERTEX
  8
FOREGROUND
  6
CONTINUOUS
 10
4.024287
 20
3.972234
  0
VERTEX
  8
FOREGROUND
  6
CONTINUOUS
 10
3.988852
 20
3.974273
  0
VERTEX
  8
FOREGROUND
  6
CONTINUOUS
 10
3.953382
 20
3.976134
  0
VERTEX
  8
FOREGROUND
  6
CONTINUOUS
 10
3.917879
 20
3.977818
  0
VERTEX
  8
FOREGROUND
  6
CONTINUOUS
 10
3.882347
 20
3.979325
  0
VERTEX
  8
FOREGROUND
  6
CONTINUOUS
 10
3.846789
 20
3.980654
  0
VERTEX
  8
FOREGROUND
  6
CONTINUOUS
 10
3.811209
 20
3.981807
  0
VERTEX
  8
FOREGROUND
  6
CONTINUOUS
 10
3.775608
 20
3.982782
  0
VERTEX
  8
FOREGROUND
  6
CONTINUOUS
 10
3.739992
 20
3.983580
  0
VERTEX
  8
FOREGROUND
  6
CONTINUOUS
 10
3.704362
 20
3.984201
  0
VERTEX
  8
FOREGROUND
  6
CONTINUOUS
 10
3.668722
 20
3.984645
  0
VERTEX
  8
FOREGROUND
  6
CONTINUOUS
 10
3.633075
 20
3.984912
  0
VERTEX
  8
FOREGROUND
  6
CONTINUOUS
 10
3.597424
 20
3.985001
  0
VERTEX
  8
FOREGROUND
  6
CONTINUOUS
 10
3.561774
 20
3.984913
  0
VERTEX
  8
FOREGROUND
  6
CONTINUOUS
 10
3.526126
 20
3.984649
  0
VERTEX
  8
FOREGROUND
  6
CONTINUOUS
 10
3.490484
 20
3.984207
  0
VERTEX
  8
FOREGROUND
  6
CONTINUOUS
 10
3.454851
 20
3.983587
  0
VERTEX
  8
FOREGROUND
  6
CONTINUOUS
 10
3.419231
 20
3.982791
  0
VERTEX
  8
FOREGROUND
  6
CONTINUOUS
 10
3.383627
 20
3.981818
  0
VERTEX
  8
FOREGROUND
  6
CONTINUOUS
 10
3.348041
 20
3.980667
  0
VERTEX
  8
FOREGROUND
  6
CONTINUOUS
 10
3.312478
 20
3.979339
  0
VERTEX
  8
FOREGROUND
  6
CONTINUOUS
 10
3.276940
 20
3.977834
  0
VERTEX
  8
FOREGROUND
  6
CONTINUOUS
 10
3.241430
 20
3.976152
  0
VERTEX
  8
FOREGROUND
  6
CONTINUOUS
 10
3.205952
 20
3.974293
  0
VERTEX
  8
FOREGROUND
  6
CONTINUOUS
 10
3.170509
 20
3.972256
  0
VERTEX
  8
FOREGROUND
  6
CONTINUOUS
 10
3.135104
 20
3.970043
  0
VERTEX
  8
FOREGROUND
  6
CONTINUOUS
 10
3.099740
 20
3.967652
  0
VERTEX
  8
FOREGROUND
  6
CONTINUOUS
 10
3.064421
 20
3.965084
  0
VERTEX
  8
FOREGROUND
  6
CONTINUOUS
 10
3.029150
 20
3.962339
  0
VERTEX
  8
FOREGROUND
  6
CONTINUOUS
 10
2.993930
 20
3.959417
  0
VERTEX
  8
FOREGROUND
  6
CONTINUOUS
 10
2.958764
 20
3.956317
  0
VERTEX
  8
FOREGROUND
  6
CONTINUOUS
 10
2.923655
 20
3.953041
  0
VERTEX
  8
FOREGROUND
  6
CONTINUOUS
 10
2.888607
 20
3.949587
  0
VERTEX
  8
FOREGROUND
  6
CONTINUOUS
 10
2.853622
 20
3.945956
  0
VERTEX
  8
FOREGROUND
  6
CONTINUOUS
 10
2.818705
 20
3.942148
  0
VERTEX
  8
FOREGROUND
  6
CONTINUOUS
 10
2.783858
 20
3.938163
  0
VERTEX
  8
FOREGROUND
  6
CONTINUOUS
 10
2.749084
 20
3.934000
  0
VERTEX
  8
FOREGROUND
  6
CONTINUOUS
 10
2.714387
 20
3.929661
  0
VERTEX
  8
FOREGROUND
  6
CONTINUOUS
 10
2.679769
 20
3.925144
  0
VERTEX
  8
FOREGROUND
  6
CONTINUOUS
 10
2.645235
 20
3.920450
  0
VERTEX
  8
FOREGROUND
  6
CONTINUOUS
 10
2.610787
 20
3.915579
  0
VERTEX
  8
FOREGROUND
  6
CONTINUOUS
 10
2.576429
 20
3.910531
  0
VERTEX
  8
FOREGROUND
  6
CONTINUOUS
 10
2.542163
 20
3.905306
  0
VERTEX
  8
FOREGROUND
  6
CONTINUOUS
 10
2.507993
 20
3.899903
  0
VERTEX
  8
FOREGROUND
  6
CONTINUOUS
 10
2.473922
 20
3.894323
  0
VERTEX
  8
FOREGROUND
  6
CONTINUOUS
 10
2.439953
 20
3.888567
  0
VERTEX
  8
FOREGROUND
  6
CONTINUOUS
 10
2.406090
 20
3.882633
  0
VERTEX
  8
FOREGROUND
  6
CONTINUOUS
 10
2.372335
 20
3.876521
  0
VERTEX
  8
FOREGROUND
  6
CONTINUOUS
 10
2.338693
 20
3.870233
  0
VERTEX
  8
FOREGROUND
  6
CONTINUOUS
 10
2.305165
 20
3.863768
  0
VERTEX
  8
FOREGROUND
  6
CONTINUOUS
 10
2.271756
 20
3.857125
  0
VERTEX
  8
FOREGROUND
  6
CONTINUOUS
 10
2.238469
 20
3.850305
  0
VERTEX
  8
FOREGROUND
  6
CONTINUOUS
 10
2.205306
 20
3.843308
  0
VERTEX
  8
FOREGROUND
  6
CONTINUOUS
 10
2.172271
 20
3.836134
  0
VERTEX
  8
FOREGROUND
  6
CONTINUOUS
 10
2.139367
 20
3.828782
  0
VERTEX
  8
FOREGROUND
  6
CONTINUOUS
 10
2.106598
 20
3.821254
  0
VERTEX
  8
FOREGROUND
  6
CONTINUOUS
 10
2.073966
 20
3.813548
  0
VERTEX
  8
FOREGROUND
  6
CONTINUOUS
 10
2.041475
 20
3.805665
  0
VERTEX
  8
FOREGROUND
  6
CONTINUOUS
 10
2.009128
 20
3.797605
  0
VERTEX
  8
FOREGROUND
  6
CONTINUOUS
 10
1.976929
 20
3.789368
  0
VERTEX
  8
FOREGROUND
  6
CONTINUOUS
 10
1.944879
 20
3.780954
  0
VERTEX
  8
FOREGROUND
  6
CONTINUOUS
 10
1.912984
 20
3.772362
  0
VERTEX
  8
FOREGROUND
  6
CONTINUOUS
 10
1.881245
 20
3.763594
  0
VERTEX
  8
FOREGROUND
  6
CONTINUOUS
 10
1.849666
 20
3.754648
  0
VERTEX
  8
FOREGROUND
  6
CONTINUOUS
 10
1.818250
 20
3.745525
  0
VERTEX
  8
FOREGROUND
  6
CONTINUOUS
 10
1.787001
 20
3.736225
  0
VERTEX
  8
FOREGROUND
  6
CONTINUOUS
 10
1.755921
 20
3.726748
  0
VERTEX
  8
FOREGROUND
  6
CONTINUOUS
 10
1.725015
 20
3.717093
  0
VERTEX
  8
FOREGROUND
  6
CONTINUOUS
 10
1.694284
 20
3.707261
  0
VERTEX
  8
FOREGROUND
  6
CONTINUOUS
 10
1.663733
 20
3.697253
  0
VERTEX
  8
FOREGROUND
  6
CONTINUOUS
 10
1.633364
 20
3.687067
  0
VERTEX
  8
FOREGROUND
  6
CONTINUOUS
 10
1.603181
 20
3.676703
  0
VERTEX
  8
FOREGROUND
  6
CONTINUOUS
 10
1.573187
 20
3.666163
  0
VERTEX
  8
FOREGROUND
  6
CONTINUOUS
 10
1.543385
 20
3.655446
  0
VERTEX
  8
FOREGROUND
  6
CONTINUOUS
 10
1.513778
 20
3.644551
  0
VERTEX
  8
FOREGROUND
  6
CONTINUOUS
 10
1.484370
 20
3.633479
  0
VERTEX
  8
FOREGROUND
  6
CONTINUOUS
 10
1.455163
 20
3.622230
  0
VERTEX
  8
FOREGROUND
  6
CONTINUOUS
 10
1.426162
 20
3.610804
  0
VERTEX
  8
FOREGROUND
  6
CONTINUOUS
 10
1.397368
 20
3.599201
  0
VERTEX
  8
FOREGROUND
  6
CONTINUOUS
 10
1.368786
 20
3.587420
  0
VERTEX
  8
FOREGROUND
  6
CONTINUOUS
 10
1.340419
 20
3.575463
  0
VERTEX
  8
FOREGROUND
  6
CONTINUOUS
 10
1.312269
 20
3.563328
  0
VERTEX
  8
FOREGROUND
  6
CONTINUOUS
 10
1.284340
 20
3.551016
  0
VERTEX
  8
FOREGROUND
  6
CONTINUOUS
 10
1.256636
 20
3.538527
  0
VERTEX
  8
FOREGROUND
  6
CONTINUOUS
 10
1.229159
 20
3.525860
  0
VERTEX
  8
FOREGROUND
  6
CONTINUOUS
 10
1.201912
 20
3.513017
  0
VERTEX
  8
FOREGROUND
  6
CONTINUOUS
 10
1.174900
 20
3.499996
  0
VERTEX
  8
FOREGROUND
  6
CONTINUOUS
 10
1.148124
 20
3.486798
  0
VERTEX
  8
FOREGROUND
  6
CONTINUOUS
 10
1.121589
 20
3.473423
  0
VERTEX
  8
FOREGROUND
  6
CONTINUOUS
 10
1.095297
 20
3.459871
  0
VERTEX
  8
FOREGROUND
  6
CONTINUOUS
 10
1.069251
 20
3.446142
  0
VERTEX
  8
FOREGROUND
  6
CONTINUOUS
 10
1.043456
 20
3.432236
  0
VERTEX
  8
FOREGROUND
  6
CONTINUOUS
 10
1.017913
 20
3.418152
  0
VERTEX
  8
FOREGROUND
  6
CONTINUOUS
 10
0.992627
 20
3.403891
  0
VERTEX
  8
FOREGROUND
  6
CONTINUOUS
 10
0.967601
 20
3.389453
  0
VERTEX
  8
FOREGROUND
  6
CONTINUOUS
 10
0.942837
 20
3.374838
  0
VERTEX
  8
FOREGROUND
  6
CONTINUOUS
 10
0.918339
 20
3.360046
  0
VERTEX
  8
FOREGROUND
  6
CONTINUOUS
 10
0.894110
 20
3.345076
  0
VERTEX
  8
FOREGROUND
  6
CONTINUOUS
 10
0.870153
 20
3.329929
  0
VERTEX
  8
FOREGROUND
  6
CONTINUOUS
 10
0.846472
 20
3.314606
  0
VERTEX
  8
FOREGROUND
  6
CONTINUOUS
 10
0.823070
 20
3.299105
  0
VERTEX
  8
FOREGROUND
  6
CONTINUOUS
 10
0.799949
 20
3.283426
  0
VERTEX
  8
FOREGROUND
  6
CONTINUOUS
 10
0.777114
 20
3.267571
  0
VERTEX
  8
FOREGROUND
  6
CONTINUOUS
 10
0.754567
 20
3.251539
  0
VERTEX
  8
FOREGROUND
  6
CONTINUOUS
 10
0.732312
 20
3.235329
  0
VERTEX
  8
FOREGROUND
  6
CONTINUOUS
 10
0.710351
 20
3.218942
  0
VERTEX
  8
FOREGROUND
  6
CONTINUOUS
 10
0.688689
 20
3.202378
  0
VERTEX
  8
FOREGROUND
  6
CONTINUOUS
 10
0.667327
 20
3.185637
  0
VERTEX
  8
FOREGROUND
  6
CONTINUOUS
 10
0.646270
 20
3.168719
  0
VERTEX
  8
FOREGROUND
  6
CONTINUOUS
 10
0.625521
 20
3.151623
  0
VERTEX
  8
FOREGROUND
  6
CONTINUOUS
 10
0.605082
 20
3.134350
  0
VERTEX
  8
FOREGROUND
  6
CONTINUOUS
 10
0.584958
 20
3.116901
  0
VERTEX
  8
FOREGROUND
  6
CONTINUOUS
 10
0.565150
 20
3.099274
  0
VERTEX
  8
FOREGROUND
  6
CONTINUOUS
 10
0.545663
 20
3.081469
  0
VERTEX
  8
FOREGROUND
  6
CONTINUOUS
 10
0.526500
 20
3.063488
  0
VERTEX
  8
FOREGROUND
  6
CONTINUOUS
 10
0.507664
 20
3.045329
  0
VERTEX
  8
FOREGROUND
  6
CONTINUOUS
 10
0.489157
 20
3.026994
  0
VERTEX
  8
FOREGROUND
  6
CONTINUOUS
 10
0.470984
 20
3.008481
  0
VERTEX
  8
FOREGROUND
  6
CONTINUOUS
 10
0.453148
 20
2.989791
  0
VERTEX
  8
FOREGROUND
  6
CONTINUOUS
 10
0.435651
 20
2.970924
  0
VERTEX
  8
FOREGROUND
  6
CONTINUOUS
 10
0.418497
 20
2.951879
  0
VERTEX
  8
FOREGROUND
  6
CONTINUOUS
 10
0.401689
 20
2.932658
  0
VERTEX
  8
FOREGROUND
  6
CONTINUOUS
 10
0.385230
 20
2.913259
  0
VERTEX
  8
FOREGROUND
  6
CONTINUOUS
 10
0.369124
 20
2.893683
  0
VERTEX
  8
FOREGROUND
  6
CONTINUOUS
 10
0.353374
 20
2.873930
  0
VERTEX
  8
FOREGROUND
  6
CONTINUOUS
 10
0.337982
 20
2.854000
  0
VERTEX
  8
FOREGROUND
  6
CONTINUOUS
 10
0.322953
 20
2.833892
  0
VERTEX
  8
FOREGROUND
  6
CONTINUOUS
 10
0.308289
 20
2.813608
  0
VERTEX
  8
FOREGROUND
  6
CONTINUOUS
 10
0.293994
 20
2.793146
  0
VERTEX
  8
FOREGROUND
  6
CONTINUOUS
 10
0.280070
 20
2.772507
  0
VERTEX
  8
FOREGROUND
  6
CONTINUOUS
 10
0.266521
 20
2.751691
  0
VERTEX
  8
FOREGROUND
  6
CONTINUOUS
 10
0.253351
 20
2.730698
  0
VERTEX
  8
FOREGROUND
  6
CONTINUOUS
 10
0.240562
 20
2.709527
  0
VERTEX
  8
FOREGROUND
  6
CONTINUOUS
 10
0.228157
 20
2.688180
  0
VERTEX
  8
FOREGROUND
  6
CONTINUOUS
 10
0.216141
 20
2.666655
  0
VERTEX
  8
FOREGROUND
  6
CONTINUOUS
 10
0.204515
 20
2.644953
  0
VERTEX
  8
FOREGROUND
  6
CONTINUOUS
 10
0.193284
 20
2.623074
  0
VERTEX
  8
FOREGROUND
  6
CONTINUOUS
 10
0.182450
 20
2.601018
  0
VERTEX
  8
FOREGROUND
  6
CONTINUOUS
 10
0.172016
 20
2.578784
  0
VERTEX
  8
FOREGROUND
  6
CONTINUOUS
 10
0.161987
 20
2.556374
  0
VERTEX
  8
FOREGROUND
  6
CONTINUOUS
 10
0.152364
 20
2.533786
  0
VERTEX
  8
FOREGROUND
  6
CONTINUOUS
 10
0.143152
 20
2.511021
  0
VERTEX
  8
FOREGROUND
  6
CONTINUOUS
 10
0.134353
 20
2.488079
  0
VERTEX
  8
FOREGROUND
  6
CONTINUOUS
 10
0.125971
 20
2.464960
  0
VERTEX
  8
FOREGROUND
  6
CONTINUOUS
 10
0.118009
 20
2.441663
  0
VERTEX
  8
FOREGROUND
  6
CONTINUOUS
 10
0.110470
 20
2.418189
  0
VERTEX
  8
FOREGROUND
  6
CONTINUOUS
 10
0.103357
 20
2.394539
  0
VERTEX
  8
FOREGROUND
  6
CONTINUOUS
 10
0.096674
 20
2.370711
  0
VERTEX
  8
FOREGROUND
  6
CONTINUOUS
 10
0.090424
 20
2.346705
  0
VERTEX
  8
FOREGROUND
  6
CONTINUOUS
 10
0.084609
 20
2.322523
  0
VERTEX
  8
FOREGROUND
  6
CONTINUOUS
 10
0.079233
 20
2.298164
  0
VERTEX
  8
FOREGROUND
  6
CONTINUOUS
 10
0.074300
 20
2.273627
  0
VERTEX
  8
FOREGROUND
  6
CONTINUOUS
 10
0.069813
 20
2.248913
  0
VERTEX
  8
FOREGROUND
  6
CONTINUOUS
 10
0.065774
 20
2.224022
  0
VERTEX
  8
FOREGROUND
  6
CONTINUOUS
 10
0.062187
 20
2.198954
  0
VERTEX
  8
FOREGROUND
  6
CONTINUOUS
 10
0.059055
 20
2.173708
  0
VERTEX
  8
FOREGROUND
  6
CONTINUOUS
 10
0.056382
 20
2.148286
  0
VERTEX
  8
FOREGROUND
  6
CONTINUOUS
 10
0.054170
 20
2.122686
  0
VERTEX
  8
FOREGROUND
  6
CONTINUOUS
 10
0.052423
 20
2.096909
  0
VERTEX
  8
FOREGROUND
  6
CONTINUOUS
 10
0.051144
 20
2.070955
  0
VERTEX
  8
FOREGROUND
  6
CONTINUOUS
 10
0.050337
 20
2.044824
  0
VERTEX
  8
FOREGROUND
  6
CONTINUOUS
 10
0.050004
 20
2.018516
  0
VERTEX
  8
FOREGROUND
  6
CONTINUOUS
 10
0.050004
 20
2.018516
  0
VERTEX
  8
FOREGROUND
  6
CONTINUOUS
 10
0.050223
 20
1.992207
  0
VERTEX
  8
FOREGROUND
  6
CONTINUOUS
 10
0.050918
 20
1.966076
  0
VERTEX
  8
FOREGROUND
  6
CONTINUOUS
 10
0.052084
 20
1.940122
  0
VERTEX
  8
FOREGROUND
  6
CONTINUOUS
 10
0.053720
 20
1.914345
  0
VERTEX
  8
FOREGROUND
  6
CONTINUOUS
 10
0.055820
 20
1.888745
  0
VERTEX
  8
FOREGROUND
  6
CONTINUOUS
 10
0.058384
 20
1.863322
  0
VERTEX
  8
FOREGROUND
  6
CONTINUOUS
 10
0.061406
 20
1.838076
  0
VERTEX
  8
FOREGROUND
  6
CONTINUOUS
 10
0.064885
 20
1.813008
  0
VERTEX
  8
FOREGROUND
  6
CONTINUOUS
 10
0.068816
 20
1.788116
  0
VERTEX
  8
FOREGROUND
  6
CONTINUOUS
 10
0.073196
 20
1.763402
  0
VERTEX
  8
FOREGROUND
  6
CONTINUOUS
 10
0.078023
 20
1.738865
  0
VERTEX
  8
FOREGROUND
  6
CONTINUOUS
 10
0.083293
 20
1.714505
  0
VERTEX
  8
FOREGROUND
  6
CONTINUOUS
 10
0.089003
 20
1.690322
  0
VERTEX
  8
FOREGROUND
  6
CONTINUOUS
 10
0.095150
 20
1.666316
  0
VERTEX
  8
FOREGROUND
  6
CONTINUOUS
 10
0.101730
 20
1.642487
  0
VERTEX
  8
FOREGROUND
  6
CONTINUOUS
 10
0.108741
 20
1.618836
  0
VERTEX
  8
FOREGROUND
  6
CONTINUOUS
 10
0.116178
 20
1.595361
  0
VERTEX
  8
FOREGROUND
  6
CONTINUOUS
 10
0.124039
 20
1.572064
  0
VERTEX
  8
FOREGROUND
  6
CONTINUOUS
 10
0.132321
 20
1.548944
  0
VERTEX
  8
FOREGROUND
  6
CONTINUOUS
 10
0.141021
 20
1.526001
  0
VERTEX
  8
FOREGROUND
  6
CONTINUOUS
 10
0.150135
 20
1.503235
  0
VERTEX
  8
FOREGROUND
  6
CONTINUOUS
 10
0.159659
 20
1.480646
  0
VERTEX
  8
FOREGROUND
  6
CONTINUOUS
 10
0.169592
 20
1.458234
  0
VERTEX
  8
FOREGROUND
  6
CONTINUOUS
 10
0.179929
 20
1.436000
  0
VERTEX
  8
FOREGROUND
  6
CONTINUOUS
 10
0.190668
 20
1.413942
  0
VERTEX
  8
FOREGROUND
  6
CONTINUOUS
 10
0.201804
 20
1.392062
  0
VERTEX
  8
FOREGROUND
  6
CONTINUOUS
 10
0.213336
 20
1.370359
  0
VERTEX
  8
FOREGROUND
  6
CONTINUOUS
 10
0.225260
 20
1.348833
  0
VERTEX
  8
FOREGROUND
  6
CONTINUOUS
 10
0.237572
 20
1.327484
  0
VERTEX
  8
FOREGROUND
  6
CONTINUOUS
 10
0.250269
 20
1.306312
  0
VERTEX
  8
FOREGROUND
  6
CONTINUOUS
 10
0.263349
 20
1.285318
  0
VERTEX
  8
FOREGROUND
  6
CONTINUOUS
 10
0.276807
 20
1.264500
  0
VERTEX
  8
FOREGROUND
  6
CONTINUOUS
 10
0.290642
 20
1.243860
  0
VERTEX
  8
FOREGROUND
  6
CONTINUOUS
 10
0.304848
 20
1.223397
  0
VERTEX
  8
FOREGROUND
  6
CONTINUOUS
 10
0.319425
 20
1.203111
  0
VERTEX
  8
FOREGROUND
  6
CONTINUOUS
 10
0.334367
 20
1.183002
  0
VERTEX
  8
FOREGROUND
  6
CONTINUOUS
 10
0.349672
 20
1.163070
  0
VERTEX
  8
FOREGROUND
  6
CONTINUOUS
 10
0.365337
 20
1.143315
  0
VERTEX
  8
FOREGROUND
  6
CONTINUOUS
 10
0.381358
 20
1.123738
  0
VERTEX
  8
FOREGROUND
  6
CONTINUOUS
 10
0.397733
 20
1.104337
  0
VERTEX
  8
FOREGROUND
  6
CONTINUOUS
 10
0.414458
 20
1.085114
  0
VERTEX
  8
FOREGROUND
  6
CONTINUOUS
 10
0.431529
 20
1.066068
  0
VERTEX
  8
FOREGROUND
  6
CONTINUOUS
 10
0.448945
 20
1.047199
  0
VERTEX
  8
FOREGROUND
  6
CONTINUOUS
 10
0.466700
 20
1.028507
  0
VERTEX
  8
FOREGROUND
  6
CONTINUOUS
 10
0.484793
 20
1.009992
  0
VERTEX
  8
FOREGROUND
  6
CONTINUOUS
 10
0.503220
 20
0.991655
  0
VERTEX
  8
FOREGROUND
  6
CONTINUOUS
 10
0.521978
 20
0.973494
  0
VERTEX
  8
FOREGROUND
  6
CONTINUOUS
 10
0.541064
 20
0.955511
  0
VERTEX
  8
FOREGROUND
  6
CONTINUOUS
 10
0.560473
 20
0.937705
  0
VERTEX
  8
FOREGROUND
  6
CONTINUOUS
 10
0.580204
 20
0.920076
  0
VERTEX
  8
FOREGROUND
  6
CONTINUOUS
 10
0.600254
 20
0.902624
  0
VERTEX
  8
FOREGROUND
  6
CONTINUOUS
 10
0.620617
 20
0.885349
  0
VERTEX
  8
FOREGROUND
  6
CONTINUOUS
 10
0.641293
 20
0.868251
  0
VERTEX
  8
FOREGROUND
  6
CONTINUOUS
 10
0.662277
 20
0.851331
  0
VERTEX
  8
FOREGROUND
  6
CONTINUOUS
 10
0.683566
 20
0.834588
  0
VERTEX
  8
FOREGROUND
  6
CONTINUOUS
 10
0.705156
 20
0.818021
  0
VERTEX
  8
FOREGROUND
  6
CONTINUOUS
 10
0.727046
 20
0.801632
  0
VERTEX
  8
FOREGROUND
  6
CONTINUOUS
 10
0.749231
 20
0.785420
  0
VERTEX
  8
FOREGROUND
  6
CONTINUOUS
 10
0.771709
 20
0.769385
  0
VERTEX
  8
FOREGROUND
  6
CONTINUOUS
 10
0.794475
 20
0.753528
  0
VERTEX
  8
FOREGROUND
  6
CONTINUOUS
 10
0.817528
 20
0.737847
  0
VERTEX
  8
FOREGROUND
  6
CONTINUOUS
 10
0.840863
 20
0.722344
  0
VERTEX
  8
FOREGROUND
  6
CONTINUOUS
 10
0.864478
 20
0.707018
  0
VERTEX
  8
FOREGROUND
  6
CONTINUOUS
 10
0.888369
 20
0.691868
  0
VERTEX
  8
FOREGROUND
  6
CONTINUOUS
 10
0.912533
 20
0.676896
  0
VERTEX
  8
FOREGROUND
  6
CONTINUOUS
 10
0.936967
 20
0.662102
  0
VERTEX
  8
FOREGROUND
  6
CONTINUOUS
 10
0.961668
 20
0.647484
  0
VERTEX
  8
FOREGROUND
  6
CONTINUOUS
 10
0.986632
 20
0.633043
  0
VERTEX
  8
FOREGROUND
  6
CONTINUOUS
 10
1.011856
 20
0.618780
  0
VERTEX
  8
FOREGROUND
  6
CONTINUOUS
 10
1.037338
 20
0.604694
  0
VERTEX
  8
FOREGROUND
  6
CONTINUOUS
 10
1.063073
 20
0.590785
  0
VERTEX
  8
FOREGROUND
  6
CONTINUOUS
 10
1.089059
 20
0.577053
  0
VERTEX
  8
FOREGROUND
  6
CONTINUOUS
 10
1.115292
 20
0.563498
  0
VERTEX
  8
FOREGROUND
  6
CONTINUOUS
 10
1.141770
 20
0.550120
  0
VERTEX
  8
FOREGROUND
  6
CONTINUOUS
 10
1.168488
 20
0.536919
  0
VERTEX
  8
FOREGROUND
  6
CONTINUOUS
 10
1.195445
 20
0.523896
  0
VERTEX
  8
FOREGROUND
  6
CONTINUOUS
 10
1.222636
 20
0.511050
  0
VERTEX
  8
FOREGROUND
  6
CONTINUOUS
 10
1.250058
 20
0.498381
  0
VERTEX
  8
FOREGROUND
  6
CONTINUOUS
 10
1.277708
 20
0.485889
  0
VERTEX
  8
FOREGROUND
  6
CONTINUOUS
 10
1.305584
 20
0.473574
  0
VERTEX
  8
FOREGROUND
  6
CONTINUOUS
 10
1.333681
 20
0.461436
  0
VERTEX
  8
FOREGROUND
  6
CONTINUOUS
 10
1.361997
 20
0.449476
  0
VERTEX
  8
FOREGROUND
  6
CONTINUOUS
 10
1.390528
 20
0.437692
  0
VERTEX
  8
FOREGROUND
  6
CONTINUOUS
 10
1.419271
 20
0.426086
  0
VERTEX
  8
FOREGROUND
  6
CONTINUOUS
 10
1.448223
 20
0.414657
  0
VERTEX
  8
FOREGROUND
  6
CONTINUOUS
 10
1.477381
 20
0.403405
  0
VERTEX
  8
FOREGROUND
  6
CONTINUOUS
 10
1.506741
 20
0.392330
  0
VERTEX
  8
FOREGROUND
  6
CONTINUOUS
 10
1.536301
 20
0.381432
  0
VERTEX
  8
FOREGROUND
  6
CONTINUOUS
 10
1.566057
 20
0.370712
  0
VERTEX
  8
FOREGROUND
  6
CONTINUOUS
 10
1.596005
 20
0.360168
  0
VERTEX
  8
FOREGROUND
  6
CONTINUOUS
 10
1.626143
 20
0.349802
  0
VERTEX
  8
FOREGROUND
  6
CONTINUOUS
 10
1.656468
 20
0.339613
  0
VERTEX
  8
FOREGROUND
  6
CONTINUOUS
 10
1.686976
 20
0.329601
  0
VERTEX
  8
FOREGROUND
  6
CONTINUOUS
 10
1.717664
 20
0.319766
  0
VERTEX
  8
FOREGROUND
  6
CONTINUOUS
 10
1.748529
 20
0.310109
  0
VERTEX
  8
FOREGROUND
  6
CONTINUOUS
 10
1.779568
 20
0.300628
  0
VERTEX
  8
FOREGROUND
  6
CONTINUOUS
 10
1.810776
 20
0.291325
  0
VERTEX
  8
FOREGROUND
  6
CONTINUOUS
 10
1.842153
 20
0.282198
  0
VERTEX
  8
FOREGROUND
  6
CONTINUOUS
 10
1.873693
 20
0.273249
  0
VERTEX
  8
FOREGROUND
  6
CONTINUOUS
 10
1.905394
 20
0.264477
  0
VERTEX
  8
FOREGROUND
  6
CONTINUOUS
 10
1.937252
 20
0.255883
  0
VERTEX
  8
FOREGROUND
  6
CONTINUOUS
 10
1.969265
 20
0.247465
  0
VERTEX
  8
FOREGROUND
  6
CONTINUOUS
 10
2.001429
 20
0.239225
  0
VERTEX
  8
FOREGROUND
  6
CONTINUOUS
 10
2.033741
 20
0.231161
  0
VERTEX
  8
FOREGROUND
  6
CONTINUOUS
 10
2.066198
 20
0.223275
  0
VERTEX
  8
FOREGROUND
  6
CONTINUOUS
 10
2.098797
 20
0.215566
  0
VERTEX
  8
FOREGROUND
  6
CONTINUOUS
 10
2.131533
 20
0.208034
  0
VERTEX
  8
FOREGROUND
  6
CONTINUOUS
 10
2.164405
 20
0.200679
  0
VERTEX
  8
FOREGROUND
  6
CONTINUOUS
 10
2.197409
 20
0.193502
  0
VERTEX
  8
FOREGROUND
  6
CONTINUOUS
 10
2.230542
 20
0.186501
  0
VERTEX
  8
FOREGROUND
  6
CONTINUOUS
 10
2.263800
 20
0.179678
  0
VERTEX
  8
FOREGROUND
  6
CONTINUOUS
 10
2.297180
 20
0.173032
  0
VERTEX
  8
FOREGROUND
  6
CONTINUOUS
 10
2.330679
 20
0.166563
  0
VERTEX
  8
FOREGROUND
  6
CONTINUOUS
 10
2.364295
 20
0.160271
  0
VERTEX
  8
FOREGROUND
  6
CONTINUOUS
 10
2.398023
 20
0.154157
  0
VERTEX
  8
FOREGROUND
  6
CONTINUOUS
 10
2.431860
 20
0.148219
  0
VERTEX
  8
FOREGROUND
  6
CONTINUOUS
 10
2.465804
 20
0.142459
  0
VERTEX
  8
FOREGROUND
  6
CONTINUOUS
 10
2.499851
 20
0.136876
  0
VERTEX
  8
FOREGROUND
  6
CONTINUOUS
 10
2.533997
 20
0.131470
  0
VERTEX
  8
FOREGROUND
  6
CONTINUOUS
 10
2.568241
 20
0.126241
  0
VERTEX
  8
FOREGROUND
  6
CONTINUOUS
 10
2.602577
 20
0.121189
  0
VERTEX
  8
FOREGROUND
  6
CONTINUOUS
 10
2.637004
 20
0.116314
  0
VERTEX
  8
FOREGROUND
  6
CONTINUOUS
 10
2.671518
 20
0.111617
  0
VERTEX
  8
FOREGROUND
  6
CONTINUOUS
 10
2.706116
 20
0.107097
  0
VERTEX
  8
FOREGROUND
  6
CONTINUOUS
 10
2.740794
 20
0.102753
  0
VERTEX
  8
FOREGROUND
  6
CONTINUOUS
 10
2.775550
 20
0.098587
  0
VERTEX
  8
FOREGROUND
  6
CONTINUOUS
 10
2.810380
 20
0.094599
  0
VERTEX
  8
FOREGROUND
  6
CONTINUOUS
 10
2.845281
 20
0.090787
  0
VERTEX
  8
FOREGROUND
  6
CONTINUOUS
 10
2.880250
 20
0.087153
  0
VERTEX
  8
FOREGROUND
  6
CONTINUOUS
 10
2.915283
 20
0.083695
  0
VERTEX
  8
FOREGROUND
  6
CONTINUOUS
 10
2.950378
 20
0.080415
  0
VERTEX
  8
FOREGROUND
  6
CONTINUOUS
 10
2.985530
 20
0.077312
  0
VERTEX
  8
FOREGROUND
  6
CONTINUOUS
 10
3.020738
 20
0.074386
  0
VERTEX
  8
FOREGROUND
  6
CONTINUOUS
 10
3.055997
 20
0.071637
  0
VERTEX
  8
FOREGROUND
  6
CONTINUOUS
 10
3.091305
 20
0.069066
  0
VERTEX
  8
FOREGROUND
  6
CONTINUOUS
 10
3.126658
 20
0.066671
  0
VERTEX
  8
FOREGROUND
  6
CONTINUOUS
 10
3.162054
 20
0.064454
  0
VERTEX
  8
FOREGROUND
  6
CONTINUOUS
 10
3.197488
 20
0.062414
  0
VERTEX
  8
FOREGROUND
  6
CONTINUOUS
 10
3.232958
 20
0.060551
  0
VERTEX
  8
FOREGROUND
  6
CONTINUOUS
 10
3.268460
 20
0.058865
  0
VERTEX
  8
FOREGROUND
  6
CONTINUOUS
 10
3.303992
 20
0.057357
  0
VERTEX
  8
FOREGROUND
  6
CONTINUOUS
 10
3.339550
 20
0.056025
  0
VERTEX
  8
FOREGROUND
  6
CONTINUOUS
 10
3.375130
 20
0.054871
  0
VERTEX
  8
FOREGROUND
  6
CONTINUOUS
 10
3.410730
 20
0.053894
  0
VERTEX
  8
FOREGROUND
  6
CONTINUOUS
 10
3.446347
 20
0.053094
  0
VERTEX
  8
FOREGROUND
  6
CONTINUOUS
 10
3.481977
 20
0.052471
  0
VERTEX
  8
FOREGROUND
  6
CONTINUOUS
 10
3.517617
 20
0.052025
  0
VERTEX
  8
FOREGROUND
  6
CONTINUOUS
 10
3.553264
 20
0.051757
  0
VERTEX
  8
FOREGROUND
  6
CONTINUOUS
 10
3.588914
 20
0.051666
  0
VERTEX
  8
FOREGROUND
  6
CONTINUOUS
 10
3.624565
 20
0.051751
  0
VERTEX
  8
FOREGROUND
  6
CONTINUOUS
 10
3.660213
 20
0.052014
  0
VERTEX
  8
FOREGROUND
  6
CONTINUOUS
 10
3.695855
 20
0.052455
  0
VERTEX
  8
FOREGROUND
  6
CONTINUOUS
 10
3.731487
 20
0.053072
  0
VERTEX
  8
FOREGROUND
  6
CONTINUOUS
 10
3.767107
 20
0.053866
  0
VERTEX
  8
FOREGROUND
  6
CONTINUOUS
 10
3.802712
 20
0.054838
  0
VERTEX
  8
FOREGROUND
  6
CONTINUOUS
 10
3.838298
 20
0.055987
  0
VERTEX
  8
FOREGROUND
  6
CONTINUOUS
 10
3.873861
 20
0.057313
  0
VERTEX
  8
FOREGROUND
  6
CONTINUOUS
 10
3.909400
 20
0.058816
  0
VERTEX
  8
FOREGROUND
  6
CONTINUOUS
 10
3.944910
 20
0.060496
  0
VERTEX
  8
FOREGROUND
  6
CONTINUOUS
 10
3.980388
 20
0.062354
  0
VERTEX
  8
FOREGROUND
  6
CONTINUOUS
 10
4.015831
 20
0.064388
  0
VERTEX
  8
FOREGROUND
  6
CONTINUOUS
 10
4.051237
 20
0.066600
  0
VERTEX
  8
FOREGROUND
  6
CONTINUOUS
 10
4.086601
 20
0.068989
  0
VERTEX
  8
FOREGROUND
  6
CONTINUOUS
 10
4.121920
 20
0.071555
  0
VERTEX
  8
FOREGROUND
  6
CONTINUOUS
 10
4.157192
 20
0.074298
  0
VERTEX
  8
FOREGROUND
  6
CONTINUOUS
 10
4.192413
 20
0.077219
  0
VERTEX
  8
FOREGROUND
  6
CONTINUOUS
 10
4.227579
 20
0.080316
  0
VERTEX
  8
FOREGROUND
  6
CONTINUOUS
 10
4.262689
 20
0.083591
  0
VERTEX
  8
FOREGROUND
  6
CONTINUOUS
 10
4.297737
 20
0.087043
  0
VERTEX
  8
FOREGROUND
  6
CONTINUOUS
 10
4.332722
 20
0.090672
  0
VERTEX
  8
FOREGROUND
  6
CONTINUOUS
 10
4.367641
 20
0.094479
  0
VERTEX
  8
FOREGROUND
  6
CONTINUOUS
 10
4.402488
 20
0.098462
  0
VERTEX
  8
FOREGROUND
  6
CONTINUOUS
 10
4.437263
 20
0.102623
  0
VERTEX
  8
FOREGROUND
  6
CONTINUOUS
 10
4.471961
 20
0.106960
  0
VERTEX
  8
FOREGROUND
  6
CONTINUOUS
 10
4.506579
 20
0.111475
  0
VERTEX
  8
FOREGROUND
  6
CONTINUOUS
 10
4.541114
 20
0.116167
  0
VERTEX
  8
FOREGROUND
  6
CONTINUOUS
 10
4.575563
 20
0.121037
  0
VERTEX
  8
FOREGROUND
  6
CONTINUOUS
 10
4.609922
 20
0.126083
  0
VERTEX
  8
FOREGROUND
  6
CONTINUOUS
 10
4.644189
 20
0.131307
  0
VERTEX
  8
FOREGROUND
  6
CONTINUOUS
 10
4.678360
 20
0.136708
  0
VERTEX
  8
FOREGROUND
  6
CONTINUOUS
 10
4.712432
 20
0.142285
  0
VERTEX
  8
FOREGROUND
  6
CONTINUOUS
 10
4.746401
 20
0.148041
  0
VERTEX
  8
FOREGROUND
  6
CONTINUOUS
 10
4.780265
 20
0.153973
  0
VERTEX
  8
FOREGROUND
  6
CONTINUOUS
 10
4.814021
 20
0.160082
  0
VERTEX
  8
FOREGROUND
  6
CONTINUOUS
 10
4.847664
 20
0.166369
  0
VERTEX
  8
FOREGROUND
  6
CONTINUOUS
 10
4.881193
 20
0.172833
  0
VERTEX
  8
FOREGROUND
  6
CONTINUOUS
 10
4.914603
 20
0.179474
  0
VERTEX
  8
FOREGROUND
  6
CONTINUOUS
 10
4.947892
 20
0.186292
  0
VERTEX
  8
FOREGROUND
  6
CONTINUOUS
 10
4.981056
 20
0.193287
  0
VERTEX
  8
FOREGROUND
  6
CONTINUOUS
 10
5.014092
 20
0.200460
  0
VERTEX
  8
FOREGROUND
  6
CONTINUOUS
 10
5.046997
 20
0.207809
  0
VERTEX
  8
FOREGROUND
  6
CONTINUOUS
 10
5.079767
 20
0.215336
  0
VERTEX
  8
FOREGROUND
  6
CONTINUOUS
 10
5.112400
 20
0.223040
  0
VERTEX
  8
FOREGROUND
  6
CONTINUOUS
 10
5.144893
 20
0.230921
  0
VERTEX
  8
FOREGROUND
  6
CONTINUOUS
 10
5.177241
 20
0.238980
  0
VERTEX
  8
FOREGROUND
  6
CONTINUOUS
 10
5.209442
 20
0.247215
  0
VERTEX
  8
FOREGROUND
  6
CONTINUOUS
 10
5.241493
 20
0.255628
  0
VERTEX
  8
FOREGROUND
  6
CONTINUOUS
 10
5.273390
 20
0.264218
  0
VERTEX
  8
FOREGROUND
  6
CONTINUOUS
 10
5.305130
 20
0.272985
  0
VERTEX
  8
FOREGROUND
  6
CONTINUOUS
 10
5.336711
 20
0.281929
  0
VERTEX
  8
FOREGROUND
  6
CONTINUOUS
 10
5.368128
 20
0.291050
  0
VERTEX
  8
FOREGROUND
  6
CONTINUOUS
 10
5.399379
 20
0.300349
  0
VERTEX
  8
FOREGROUND
  6
CONTINUOUS
 10
5.430460
 20
0.309824
  0
VERTEX
  8
FOREGROUND
  6
CONTINUOUS
 10
5.461368
 20
0.319477
  0
VERTEX
  8
FOREGROUND
  6
CONTINUOUS
 10
5.492100
 20
0.329307
  0
VERTEX
  8
FOREGROUND
  6
CONTINUOUS
 10
5.522653
 20
0.339315
  0
VERTEX
  8
FOREGROUND
  6
CONTINUOUS
 10
5.553024
 20
0.349499
  0
VERTEX
  8
FOREGROUND
  6
CONTINUOUS
 10
5.583209
 20
0.359861
  0
VERTEX
  8
FOREGROUND
  6
CONTINUOUS
 10
5.613205
 20
0.370399
  0
VERTEX
  8
FOREGROUND
  6
CONTINUOUS
 10
5.643008
 20
0.381115
  0
VERTEX
  8
FOREGROUND
  6
CONTINUOUS
 10
5.672617
 20
0.392009
  0
VERTEX
  8
FOREGROUND
  6
CONTINUOUS
 10
5.702027
 20
0.403079
  0
VERTEX
  8
FOREGROUND
  6
CONTINUOUS
 10
5.731236
 20
0.414326
  0
VERTEX
  8
FOREGROUND
  6
CONTINUOUS
 10
5.760239
 20
0.425751
  0
VERTEX
  8
FOREGROUND
  6
CONTINUOUS
 10
5.789034
 20
0.437353
  0
VERTEX
  8
FOREGROUND
  6
CONTINUOUS
 10
5.817618
 20
0.449132
  0
VERTEX
  8
FOREGROUND
  6
CONTINUOUS
 10
5.845988
 20
0.461088
  0
VERTEX
  8
FOREGROUND
  6
CONTINUOUS
 10
5.874139
 20
0.473221
  0
VERTEX
  8
FOREGROUND
  6
CONTINUOUS
 10
5.902070
 20
0.485532
  0
VERTEX
  8
FOREGROUND
  6
CONTINUOUS
 10
5.929777
 20
0.498020
  0
VERTEX
  8
FOREGROUND
  6
CONTINUOUS
 10
5.957256
 20
0.510685
  0
VERTEX
  8
FOREGROUND
  6
CONTINUOUS
 10
5.984505
 20
0.523527
  0
VERTEX
  8
FOREGROUND
  6
CONTINUOUS
 10
6.011519
 20
0.536546
  0
VERTEX
  8
FOREGROUND
  6
CONTINUOUS
 10
6.038297
 20
0.549742
  0
VERTEX
  8
FOREGROUND
  6
CONTINUOUS
 10
6.064835
 20
0.563116
  0
VERTEX
  8
FOREGROUND
  6
CONTINUOUS
 10
6.091129
 20
0.576667
  0
VERTEX
  8
FOREGROUND
  6
CONTINUOUS
 10
6.117177
 20
0.590395
  0
VERTEX
  8
FOREGROUND
  6
CONTINUOUS
 10
6.142975
 20
0.604300
  0
VERTEX
  8
FOREGROUND
  6
CONTINUOUS
 10
6.168519
 20
0.618382
  0
VERTEX
  8
FOREGROUND
  6
CONTINUOUS
 10
6.193808
 20
0.632642
  0
VERTEX
  8
FOREGROUND
  6
CONTINUOUS
 10
6.218837
 20
0.647078
  0
VERTEX
  8
FOREGROUND
  6
CONTINUOUS
 10
6.243603
 20
0.661692
  0
VERTEX
  8
FOREGROUND
  6
CONTINUOUS
 10
6.268104
 20
0.676483
  0
VERTEX
  8
FOREGROUND
  6
CONTINUOUS
 10
6.292335
 20
0.691452
  0
VERTEX
  8
FOREGROUND
  6
CONTINUOUS
 10
6.316294
 20
0.706597
  0
VERTEX
  8
FOREGROUND
  6
CONTINUOUS
 10
6.339978
 20
0.721920
  0
VERTEX
  8
FOREGROUND
  6
CONTINUOUS
 10
6.363383
 20
0.737419
  0
VERTEX
  8
FOREGROUND
  6
CONTINUOUS
 10
6.386506
 20
0.753096
  0
VERTEX
  8
FOREGROUND
  6
CONTINUOUS
 10
6.409344
 20
0.768951
  0
VERTEX
  8
FOREGROUND
  6
CONTINUOUS
 10
6.431893
 20
0.784982
  0
VERTEX
  8
FOREGROUND
  6
CONTINUOUS
 10
6.454151
 20
0.801190
  0
VERTEX
  8
FOREGROUND
  6
CONTINUOUS
 10
6.476115
 20
0.817576
  0
VERTEX
  8
FOREGROUND
  6
CONTINUOUS
 10
6.497780
 20
0.834139
  0
VERTEX
  8
FOREGROUND
  6
CONTINUOUS
 10
6.519144
 20
0.850879
  0
VERTEX
  8
FOREGROUND
  6
CONTINUOUS
 10
6.540204
 20
0.867796
  0
VERTEX
  8
FOREGROUND
  6
CONTINUOUS
 10
6.560956
 20
0.884891
  0
VERTEX
  8
FOREGROUND
  6
CONTINUOUS
 10
6.581398
 20
0.902162
  0
VERTEX
  8
FOREGROUND
  6
CONTINUOUS
 10
6.601525
 20
0.919611
  0
VERTEX
  8
FOREGROUND
  6
CONTINUOUS
 10
6.621336
 20
0.937237
  0
VERTEX
  8
FOREGROUND
  6
CONTINUOUS
 10
6.640825
 20
0.955040
  0
VERTEX
  8
FOREGROUND
  6
CONTINUOUS
 10
6.659992
 20
0.973021
  0
VERTEX
  8
FOREGROUND
  6
CONTINUOUS
 10
6.678831
 20
0.991178
  0
VERTEX
  8
FOREGROUND
  6
CONTINUOUS
 10
6.697341
 20
1.009513
  0
VERTEX
  8
FOREGROUND
  6
CONTINUOUS
 10
6.715517
 20
1.028025
  0
VERTEX
  8
FOREGROUND
  6
CONTINUOUS
 10
6.733356
 20
1.046714
  0
VERTEX
  8
FOREGROUND
  6
CONTINUOUS
 10
6.750856
 20
1.065581
  0
VERTEX
  8
FOREGROUND
  6
CONTINUOUS
 10
6.768014
 20
1.084624
  0
VERTEX
  8
FOREGROUND
  6
CONTINUOUS
 10
6.784825
 20
1.103845
  0
VERTEX
  8
FOREGROUND
  6
CONTINUOUS
 10
6.801287
 20
1.123243
  0
VERTEX
  8
FOREGROUND
  6
CONTINUOUS
 10
6.817396
 20
1.142818
  0
VERTEX
  8
FOREGROUND
  6
CONTINUOUS
 10
6.833150
 20
1.162570
  0
VERTEX
  8
FOREGROUND
  6
CONTINUOUS
 10
6.848544
 20
1.182499
  0
VERTEX
  8
FOREGROUND
  6
CONTINUOUS
 10
6.863577
 20
1.202606
  0
VERTEX
  8
FOREGROUND
  6
CONTINUOUS
 10
6.878244
 20
1.222890
  0
VERTEX
  8
FOREGROUND
  6
CONTINUOUS
 10
6.892543
 20
1.243351
  0
VERTEX
  8
FOREGROUND
  6
CONTINUOUS
 10
6.906470
 20
1.263989
  0
VERTEX
  8
FOREGROUND
  6
CONTINUOUS
 10
6.920022
 20
1.284804
  0
VERTEX
  8
FOREGROUND
  6
CONTINUOUS
 10
6.933196
 20
1.305797
  0
VERTEX
  8
FOREGROUND
  6
CONTINUOUS
 10
6.945989
 20
1.326967
  0
VERTEX
  8
FOREGROUND
  6
CONTINUOUS
 10
6.958397
 20
1.348314
  0
VERTEX
  8
FOREGROUND
  6
CONTINUOUS
 10
6.970417
 20
1.369838
  0
VERTEX
  8
FOREGROUND
  6
CONTINUOUS
 10
6.982047
 20
1.391539
  0
VERTEX
  8
FOREGROUND
  6
CONTINUOUS
 10
6.993282
 20
1.413418
  0
VERTEX
  8
FOREGROUND
  6
CONTINUOUS
 10
7.004119
 20
1.435473
  0
VERTEX
  8
FOREGROUND
  6
CONTINUOUS
 10
7.014556
 20
1.457706
  0
VERTEX
  8
FOREGROUND
  6
CONTINUOUS
 10
7.024590
 20
1.480116
  0
VERTEX
  8
FOREGROUND
  6
CONTINUOUS
 10
7.034216
 20
1.502704
  0
VERTEX
  8
FOREGROUND
  6
CONTINUOUS
 10
7.043432
 20
1.525468
  0
VERTEX
  8
FOREGROUND
  6
CONTINUOUS
 10
7.052234
 20
1.548410
  0
VERTEX
  8
FOREGROUND
  6
CONTINUOUS
 10
7.060620
 20
1.571529
  0
VERTEX
  8
FOREGROUND
  6
CONTINUOUS
 10
7.068586
 20
1.594825
  0
VERTEX
  8
FOREGROUND
  6
CONTINUOUS
 10
7.076129
 20
1.618298
  0
VERTEX
  8
FOREGROUND
  6
CONTINUOUS
 10
7.083246
 20
1.641949
  0
VERTEX
  8
FOREGROUND
  6
CONTINUOUS
 10
7.089933
 20
1.665776
  0
VERTEX
  8
FOREGROUND
  6
CONTINUOUS
 10
7.096188
 20
1.689781
  0
VERTEX
  8
FOREGROUND
  6
CONTINUOUS
 10
7.102007
 20
1.713963
  0
VERTEX
  8
FOREGROUND
  6
CONTINUOUS
 10
7.107386
 20
1.738322
  0
VERTEX
  8
FOREGROUND
  6
CONTINUOUS
 10
7.112323
 20
1.762859
  0
VERTEX
  8
FOREGROUND
  6
CONTINUOUS
 10
7.116815
 20
1.787572
  0
VERTEX
  8
FOREGROUND
  6
CONTINUOUS
 10
7.120858
 20
1.812463
  0
VERTEX
  8
FOREGROUND
  6
CONTINUOUS
 10
7.124449
 20
1.837531
  0
VERTEX
  8
FOREGROUND
  6
CONTINUOUS
 10
7.127585
 20
1.862776
  0
VERTEX
  8
FOREGROUND
  6
CONTINUOUS
 10
7.130263
 20
1.888199
  0
VERTEX
  8
FOREGROUND
  6
CONTINUOUS
 10
7.132479
 20
1.913798
  0
VERTEX
  8
FOREGROUND
  6
CONTINUOUS
 10
7.134230
 20
1.939575
  0
VERTEX
  8
FOREGROUND
  6
CONTINUOUS
 10
7.135513
 20
1.965529
  0
VERTEX
  8
FOREGROUND
  6
CONTINUOUS
 10
7.136325
 20
1.991660
  0
VERTEX
  8
FOREGROUND
  6
CONTINUOUS
 10
7.136663
 20
2.017969
  0
SEQEND
  8
0
  0
ENDSEC
  0
EOF
