  0
SECTION
  2
HEADER
  9
$ACADVER
  1
AC1006
  9
$EXTMIN
 10
0.000000
 20
0.000000
  9
$EXTMAX
 10
7.973333
 20
4.035000
  9
$LTSCALE
 40
0.166667
  9
$PDMODE
 70
    35
  9
$PDSIZE
 40
0.133333
  0
ENDSEC
  0
SECTION
  2
TABLES
  0
TABLE
  2
LTYPE
 70
     9
  0
LTYPE
  2
CONTINUOUS
 70
    64
  3
Solid line
 72
    65
 73
     0
 40
0.000000
  0
LTYPE
  2
DASHED
 70
    64
  3
__ __ __ __ __ __ __ __ __ __ __ __ __ __ __
 72
    65
 73
     2
 40
0.001250
 49
0.000833
 49
-0.000417
  0
LTYPE
  2
HIDDEN
 70
    64
  3
 _ _ _ _ _ _ _ _ _ _ _ _ _ _ _ _ _ _ _ _ _ _
 72
    65
 73
     2
 40
0.000625
 49
0.000417
 49
-0.000208
  0
LTYPE
  2
CENTER
 70
    64
  3
____ _ ____ _ ____ _ ____ _ ____ _ ____ _ ____
 72
    65
 73
     4
 40
0.003333
 49
0.002083
 49
-0.000417
 49
0.000417
 49
-0.000417
  0
LTYPE
  2
PHANTOM
 70
    64
  3
_____ _ _ _____ _ _ _____ _ _ _____ _ _ ____
 72
    65
 73
     6
 40
0.004167
 49
0.002083
 49
-0.000417
 49
0.000417
 49
-0.000417
 49
0.000417
 49
-0.000417
  0
LTYPE
  2
DOT
 70
    64
  3
...............................................
 72
    65
 73
     2
 40
0.000417
 49
0.000000
 49
-0.000417
  0
LTYPE
  2
DASHDOT
 70
    64
  3
__ . __ . __ . __ . __ . __ . __ . __ . __ . __
 72
    65
 73
     4
 40
0.001667
 49
0.000833
 49
-0.000417
 49
0.000000
 49
-0.000417
  0
LTYPE
  2
BORDER
 70
    64
  3
__ __ . __ __ . __ __ . __ __ . __ __ . __ __
 72
    65
 73
     6
 40
0.002917
 49
0.000833
 49
-0.000417
 49
0.000833
 49
-0.000417
 49
0.000000
 49
-0.000417
  0
LTYPE
  2
DIVIDE
 70
    64
  3
__ . . __ . . __ . . __ . . __ . . __ . . __
 72
    65
 73
     6
 40
0.002083
 49
0.000833
 49
-0.000417
 49
0.000000
 49
-0.000417
 49
0.000000
 49
-0.000417
  0
LTYPE
  2
DOTDOT
 70
    64
  3
 . .  . .  . .  . .  . .  . . 
 72
    65
 73
     5
 40
0.000917
 49
-0.000417
 49
0.000000
 49
-0.000417
 49
0.000000
 49
-0.000417
  0
ENDTAB
  0
TABLE
  2
STYLE
 70
     2
  0
STYLE
 70
     0
  2
SN0
 40
0.000000
 41
0.001667
 50
0.000000
 71
     0
 42
0.000000
  3
ROMAND
  0
STYLE
 70
    68
  2
SV0
 40
0.000000
 41
0.001667
 50
0.000000
 71
     0
 42
0.000000
  3
ROMAND
  0
ENDTAB
  0
TABLE
  2
LAYER
 70
     2
  0
LAYER
  2
FOREGROUND
 70
    64
 62
     7
  6
CONTINUOUS
  0
LAYER
  2
BACKGROUND
 70
    65
 62
    -7
  6
CONTINUOUS
  0
ENDTAB
  0
ENDSEC
  0
SECTION
  2
ENTITIES
  0
POLYLINE
  8
FOREGROUND
  6
CONTINUOUS
 66
     1
 40
0.010000
 41
0.010000
 70
     1
  0
VERTEX
  8
FOREGROUND
  6
CONTINUOUS
 10
7.923329
 20
2.018333
  0
VERTEX
  8
FOREGROUND
  6
CONTINUOUS
 10
7.923082
 20
2.045180
  0
VERTEX
  8
FOREGROUND
  6
CONTINUOUS
 10
7.922285
 20
2.071843
  0
VERTEX
  8
FOREGROUND
  6
CONTINUOUS
 10
7.920942
 20
2.098321
  0
VERTEX
  8
FOREGROUND
  6
CONTINUOUS
 10
7.919056
 20
2.124615
  0
VERTEX
  8
FOREGROUND
  6
CONTINUOUS
 10
7.916633
 20
2.150724
  0
VERTEX
  8
FOREGROUND
  6
CONTINUOUS
 10
7.913674
 20
2.176649
  0
VERTEX
  8
FOREGROUND
  6
CONTINUOUS
 10
7.910185
 20
2.202389
  0
VERTEX
  8
FOREGROUND
  6
CONTINUOUS
 10
7.906169
 20
2.227945
  0
VERTEX
  8
FOREGROUND
  6
CONTINUOUS
 10
7.901629
 20
2.253316
  0
VERTEX
  8
FOREGROUND
  6
CONTINUOUS
 10
7.896570
 20
2.278502
  0
VERTEX
  8
FOREGROUND
  6
CONTINUOUS
 10
7.890995
 20
2.303504
  0
VERTEX
  8
FOREGROUND
  6
CONTINUOUS
 10
7.884908
 20
2.328322
  0
VERTEX
  8
FOREGROUND
  6
CONTINUOUS
 10
7.878313
 20
2.352955
  0
VERTEX
  8
FOREGROUND
  6
CONTINUOUS
 10
7.871213
 20
2.377404
  0
VERTEX
  8
FOREGROUND
  6
CONTINUOUS
 10
7.863613
 20
2.401668
  0
VERTEX
  8
FOREGROUND
  6
CONTINUOUS
 10
7.855517
 20
2.425747
  0
VERTEX
  8
FOREGROUND
  6
CONTINUOUS
 10
7.846927
 20
2.449643
  0
VERTEX
  8
FOREGROUND
  6
CONTINUOUS
 10
7.837848
 20
2.473353
  0
VERTEX
  8
FOREGROUND
  6
CONTINUOUS
 10
7.828283
 20
2.496879
  0
VERTEX
  8
FOREGROUND
  6
CONTINUOUS
 10
7.818237
 20
2.520221
  0
VERTEX
  8
FOREGROUND
  6
CONTINUOUS
 10
7.807713
 20
2.543378
  0
VERTEX
  8
FOREGROUND
  6
CONTINUOUS
 10
7.796715
 20
2.566350
  0
VERTEX
  8
FOREGROUND
  6
CONTINUOUS
 10
7.785247
 20
2.589138
  0
VERTEX
  8
FOREGROUND
  6
CONTINUOUS
 10
7.773312
 20
2.611742
  0
VERTEX
  8
FOREGROUND
  6
CONTINUOUS
 10
7.760915
 20
2.634161
  0
VERTEX
  8
FOREGROUND
  6
CONTINUOUS
 10
7.748058
 20
2.656396
  0
VERTEX
  8
FOREGROUND
  6
CONTINUOUS
 10
7.734747
 20
2.678446
  0
VERTEX
  8
FOREGROUND
  6
CONTINUOUS
 10
7.720984
 20
2.700311
  0
VERTEX
  8
FOREGROUND
  6
CONTINUOUS
 10
7.706774
 20
2.721992
  0
VERTEX
  8
FOREGROUND
  6
CONTINUOUS
 10
7.692120
 20
2.743489
  0
VERTEX
  8
FOREGROUND
  6
CONTINUOUS
 10
7.677026
 20
2.764801
  0
VERTEX
  8
FOREGROUND
  6
CONTINUOUS
 10
7.661495
 20
2.785928
  0
VERTEX
  8
FOREGROUND
  6
CONTINUOUS
 10
7.645533
 20
2.806871
  0
VERTEX
  8
FOREGROUND
  6
CONTINUOUS
 10
7.629141
 20
2.827630
  0
VERTEX
  8
FOREGROUND
  6
CONTINUOUS
 10
7.612325
 20
2.848204
  0
VERTEX
  8
FOREGROUND
  6
CONTINUOUS
 10
7.595088
 20
2.868593
  0
VERTEX
  8
FOREGROUND
  6
CONTINUOUS
 10
7.577434
 20
2.888798
  0
VERTEX
  8
FOREGROUND
  6
CONTINUOUS
 10
7.559366
 20
2.908819
  0
VERTEX
  8
FOREGROUND
  6
CONTINUOUS
 10
7.540889
 20
2.928655
  0
VERTEX
  8
FOREGROUND
  6
CONTINUOUS
 10
7.522005
 20
2.948306
  0
VERTEX
  8
FOREGROUND
  6
CONTINUOUS
 10
7.502720
 20
2.967773
  0
VERTEX
  8
FOREGROUND
  6
CONTINUOUS
 10
7.483036
 20
2.987055
  0
VERTEX
  8
FOREGROUND
  6
CONTINUOUS
 10
7.462958
 20
3.006153
  0
VERTEX
  8
FOREGROUND
  6
CONTINUOUS
 10
7.442489
 20
3.025067
  0
VERTEX
  8
FOREGROUND
  6
CONTINUOUS
 10
7.421633
 20
3.043796
  0
VERTEX
  8
FOREGROUND
  6
CONTINUOUS
 10
7.400394
 20
3.062340
  0
VERTEX
  8
FOREGROUND
  6
CONTINUOUS
 10
7.378776
 20
3.080700
  0
VERTEX
  8
FOREGROUND
  6
CONTINUOUS
 10
7.356782
 20
3.098875
  0
VERTEX
  8
FOREGROUND
  6
CONTINUOUS
 10
7.334416
 20
3.116866
  0
VERTEX
  8
FOREGROUND
  6
CONTINUOUS
 10
7.311683
 20
3.134673
  0
VERTEX
  8
FOREGROUND
  6
CONTINUOUS
 10
7.288585
 20
3.152294
  0
VERTEX
  8
FOREGROUND
  6
CONTINUOUS
 10
7.265126
 20
3.169732
  0
VERTEX
  8
FOREGROUND
  6
CONTINUOUS
 10
7.241312
 20
3.186985
  0
VERTEX
  8
FOREGROUND
  6
CONTINUOUS
 10
7.217144
 20
3.204053
  0
VERTEX
  8
FOREGROUND
  6
CONTINUOUS
 10
7.192627
 20
3.220937
  0
VERTEX
  8
FOREGROUND
  6
CONTINUOUS
 10
7.167765
 20
3.237636
  0
VERTEX
  8
FOREGROUND
  6
CONTINUOUS
 10
7.142562
 20
3.254151
  0
VERTEX
  8
FOREGROUND
  6
CONTINUOUS
 10
7.117020
 20
3.270481
  0
VERTEX
  8
FOREGROUND
  6
CONTINUOUS
 10
7.091145
 20
3.286627
  0
VERTEX
  8
FOREGROUND
  6
CONTINUOUS
 10
7.064940
 20
3.302588
  0
VERTEX
  8
FOREGROUND
  6
CONTINUOUS
 10
7.038409
 20
3.318365
  0
VERTEX
  8
FOREGROUND
  6
CONTINUOUS
 10
7.011555
 20
3.333957
  0
VERTEX
  8
FOREGROUND
  6
CONTINUOUS
 10
6.984382
 20
3.349365
  0
VERTEX
  8
FOREGROUND
  6
CONTINUOUS
 10
6.956894
 20
3.364588
  0
VERTEX
  8
FOREGROUND
  6
CONTINUOUS
 10
6.929095
 20
3.379627
  0
VERTEX
  8
FOREGROUND
  6
CONTINUOUS
 10
6.900989
 20
3.394481
  0
VERTEX
  8
FOREGROUND
  6
CONTINUOUS
 10
6.872579
 20
3.409151
  0
VERTEX
  8
FOREGROUND
  6
CONTINUOUS
 10
6.843870
 20
3.423636
  0
VERTEX
  8
FOREGROUND
  6
CONTINUOUS
 10
6.814864
 20
3.437937
  0
VERTEX
  8
FOREGROUND
  6
CONTINUOUS
 10
6.785566
 20
3.452053
  0
VERTEX
  8
FOREGROUND
  6
CONTINUOUS
 10
6.755980
 20
3.465985
  0
VERTEX
  8
FOREGROUND
  6
CONTINUOUS
 10
6.726109
 20
3.479732
  0
VERTEX
  8
FOREGROUND
  6
CONTINUOUS
 10
6.695957
 20
3.493295
  0
VERTEX
  8
FOREGROUND
  6
CONTINUOUS
 10
6.665528
 20
3.506673
  0
VERTEX
  8
FOREGROUND
  6
CONTINUOUS
 10
6.634826
 20
3.519867
  0
VERTEX
  8
FOREGROUND
  6
CONTINUOUS
 10
6.603855
 20
3.532876
  0
VERTEX
  8
FOREGROUND
  6
CONTINUOUS
 10
6.572617
 20
3.545700
  0
VERTEX
  8
FOREGROUND
  6
CONTINUOUS
 10
6.541118
 20
3.558340
  0
VERTEX
  8
FOREGROUND
  6
CONTINUOUS
 10
6.509361
 20
3.570796
  0
VERTEX
  8
FOREGROUND
  6
CONTINUOUS
 10
6.477349
 20
3.583067
  0
VERTEX
  8
FOREGROUND
  6
CONTINUOUS
 10
6.445087
 20
3.595154
  0
VERTEX
  8
FOREGROUND
  6
CONTINUOUS
 10
6.412578
 20
3.607056
  0
VERTEX
  8
FOREGROUND
  6
CONTINUOUS
 10
6.379826
 20
3.618773
  0
VERTEX
  8
FOREGROUND
  6
CONTINUOUS
 10
6.346835
 20
3.630306
  0
VERTEX
  8
FOREGROUND
  6
CONTINUOUS
 10
6.313608
 20
3.641655
  0
VERTEX
  8
FOREGROUND
  6
CONTINUOUS
 10
6.280150
 20
3.652819
  0
VERTEX
  8
FOREGROUND
  6
CONTINUOUS
 10
6.246464
 20
3.663798
  0
VERTEX
  8
FOREGROUND
  6
CONTINUOUS
 10
6.212554
 20
3.674593
  0
VERTEX
  8
FOREGROUND
  6
CONTINUOUS
 10
6.178424
 20
3.685204
  0
VERTEX
  8
FOREGROUND
  6
CONTINUOUS
 10
6.144077
 20
3.695630
  0
VERTEX
  8
FOREGROUND
  6
CONTINUOUS
 10
6.109518
 20
3.705871
  0
VERTEX
  8
FOREGROUND
  6
CONTINUOUS
 10
6.074750
 20
3.715928
  0
VERTEX
  8
FOREGROUND
  6
CONTINUOUS
 10
6.039777
 20
3.725801
  0
VERTEX
  8
FOREGROUND
  6
CONTINUOUS
 10
6.004602
 20
3.735489
  0
VERTEX
  8
FOREGROUND
  6
CONTINUOUS
 10
5.969230
 20
3.744992
  0
VERTEX
  8
FOREGROUND
  6
CONTINUOUS
 10
5.933664
 20
3.754311
  0
VERTEX
  8
FOREGROUND
  6
CONTINUOUS
 10
5.897909
 20
3.763445
  0
VERTEX
  8
FOREGROUND
  6
CONTINUOUS
 10
5.861967
 20
3.772395
  0
VERTEX
  8
FOREGROUND
  6
CONTINUOUS
 10
5.825842
 20
3.781161
  0
VERTEX
  8
FOREGROUND
  6
CONTINUOUS
 10
5.789540
 20
3.789742
  0
VERTEX
  8
FOREGROUND
  6
CONTINUOUS
 10
5.753062
 20
3.798138
  0
VERTEX
  8
FOREGROUND
  6
CONTINUOUS
 10
5.716414
 20
3.806350
  0
VERTEX
  8
FOREGROUND
  6
CONTINUOUS
 10
5.679598
 20
3.814377
  0
VERTEX
  8
FOREGROUND
  6
CONTINUOUS
 10
5.642619
 20
3.822220
  0
VERTEX
  8
FOREGROUND
  6
CONTINUOUS
 10
5.605480
 20
3.829878
  0
VERTEX
  8
FOREGROUND
  6
CONTINUOUS
 10
5.568185
 20
3.837352
  0
VERTEX
  8
FOREGROUND
  6
CONTINUOUS
 10
5.530739
 20
3.844641
  0
VERTEX
  8
FOREGROUND
  6
CONTINUOUS
 10
5.493144
 20
3.851746
  0
VERTEX
  8
FOREGROUND
  6
CONTINUOUS
 10
5.455404
 20
3.858666
  0
VERTEX
  8
FOREGROUND
  6
CONTINUOUS
 10
5.417524
 20
3.865402
  0
VERTEX
  8
FOREGROUND
  6
CONTINUOUS
 10
5.379507
 20
3.871953
  0
VERTEX
  8
FOREGROUND
  6
CONTINUOUS
 10
5.341357
 20
3.878320
  0
VERTEX
  8
FOREGROUND
  6
CONTINUOUS
 10
5.303078
 20
3.884502
  0
VERTEX
  8
FOREGROUND
  6
CONTINUOUS
 10
5.264673
 20
3.890500
  0
VERTEX
  8
FOREGROUND
  6
CONTINUOUS
 10
5.226146
 20
3.896313
  0
VERTEX
  8
FOREGROUND
  6
CONTINUOUS
 10
5.187501
 20
3.901942
  0
VERTEX
  8
FOREGROUND
  6
CONTINUOUS
 10
5.148743
 20
3.907386
  0
VERTEX
  8
FOREGROUND
  6
CONTINUOUS
 10
5.109873
 20
3.912645
  0
VERTEX
  8
FOREGROUND
  6
CONTINUOUS
 10
5.070898
 20
3.917720
  0
VERTEX
  8
FOREGROUND
  6
CONTINUOUS
 10
5.031819
 20
3.922611
  0
VERTEX
  8
FOREGROUND
  6
CONTINUOUS
 10
4.992642
 20
3.927317
  0
VERTEX
  8
FOREGROUND
  6
CONTINUOUS
 10
4.953369
 20
3.931839
  0
VERTEX
  8
FOREGROUND
  6
CONTINUOUS
 10
4.914005
 20
3.936176
  0
VERTEX
  8
FOREGROUND
  6
CONTINUOUS
 10
4.874553
 20
3.940328
  0
VERTEX
  8
FOREGROUND
  6
CONTINUOUS
 10
4.835017
 20
3.944296
  0
VERTEX
  8
FOREGROUND
  6
CONTINUOUS
 10
4.795401
 20
3.948080
  0
VERTEX
  8
FOREGROUND
  6
CONTINUOUS
 10
4.755709
 20
3.951679
  0
VERTEX
  8
FOREGROUND
  6
CONTINUOUS
 10
4.715945
 20
3.955093
  0
VERTEX
  8
FOREGROUND
  6
CONTINUOUS
 10
4.676111
 20
3.958323
  0
VERTEX
  8
FOREGROUND
  6
CONTINUOUS
 10
4.636213
 20
3.961369
  0
VERTEX
  8
FOREGROUND
  6
CONTINUOUS
 10
4.596254
 20
3.964230
  0
VERTEX
  8
FOREGROUND
  6
CONTINUOUS
 10
4.556237
 20
3.966906
  0
VERTEX
  8
FOREGROUND
  6
CONTINUOUS
 10
4.516167
 20
3.969398
  0
VERTEX
  8
FOREGROUND
  6
CONTINUOUS
 10
4.476047
 20
3.971705
  0
VERTEX
  8
FOREGROUND
  6
CONTINUOUS
 10
4.435881
 20
3.973828
  0
VERTEX
  8
FOREGROUND
  6
CONTINUOUS
 10
4.395673
 20
3.975766
  0
VERTEX
  8
FOREGROUND
  6
CONTINUOUS
 10
4.355427
 20
3.977520
  0
VERTEX
  8
FOREGROUND
  6
CONTINUOUS
 10
4.315146
 20
3.979090
  0
VERTEX
  8
FOREGROUND
  6
CONTINUOUS
 10
4.274834
 20
3.980474
  0
VERTEX
  8
FOREGROUND
  6
CONTINUOUS
 10
4.234495
 20
3.981675
  0
VERTEX
  8
FOREGROUND
  6
CONTINUOUS
 10
4.194133
 20
3.982691
  0
VERTEX
  8
FOREGROUND
  6
CONTINUOUS
 10
4.153751
 20
3.983522
  0
VERTEX
  8
FOREGROUND
  6
CONTINUOUS
 10
4.113354
 20
3.984169
  0
VERTEX
  8
FOREGROUND
  6
CONTINUOUS
 10
4.072945
 20
3.984631
  0
VERTEX
  8
FOREGROUND
  6
CONTINUOUS
 10
4.032527
 20
3.984908
  0
VERTEX
  8
FOREGROUND
  6
CONTINUOUS
 10
3.992106
 20
3.985002
  0
VERTEX
  8
FOREGROUND
  6
CONTINUOUS
 10
3.951684
 20
3.984910
  0
VERTEX
  8
FOREGROUND
  6
CONTINUOUS
 10
3.911265
 20
3.984634
  0
VERTEX
  8
FOREGROUND
  6
CONTINUOUS
 10
3.870853
 20
3.984174
  0
VERTEX
  8
FOREGROUND
  6
CONTINUOUS
 10
3.830452
 20
3.983529
  0
VERTEX
  8
FOREGROUND
  6
CONTINUOUS
 10
3.790066
 20
3.982700
  0
VERTEX
  8
FOREGROUND
  6
CONTINUOUS
 10
3.749698
 20
3.981686
  0
VERTEX
  8
FOREGROUND
  6
CONTINUOUS
 10
3.709353
 20
3.980488
  0
VERTEX
  8
FOREGROUND
  6
CONTINUOUS
 10
3.669033
 20
3.979105
  0
VERTEX
  8
FOREGROUND
  6
CONTINUOUS
 10
3.628744
 20
3.977537
  0
VERTEX
  8
FOREGROUND
  6
CONTINUOUS
 10
3.588487
 20
3.975785
  0
VERTEX
  8
FOREGROUND
  6
CONTINUOUS
 10
3.548269
 20
3.973849
  0
VERTEX
  8
FOREGROUND
  6
CONTINUOUS
 10
3.508091
 20
3.971728
  0
VERTEX
  8
FOREGROUND
  6
CONTINUOUS
 10
3.467958
 20
3.969422
  0
VERTEX
  8
FOREGROUND
  6
CONTINUOUS
 10
3.427874
 20
3.966932
  0
VERTEX
  8
FOREGROUND
  6
CONTINUOUS
 10
3.387843
 20
3.964258
  0
VERTEX
  8
FOREGROUND
  6
CONTINUOUS
 10
3.347868
 20
3.961398
  0
VERTEX
  8
FOREGROUND
  6
CONTINUOUS
 10
3.307953
 20
3.958355
  0
VERTEX
  8
FOREGROUND
  6
CONTINUOUS
 10
3.268102
 20
3.955127
  0
VERTEX
  8
FOREGROUND
  6
CONTINUOUS
 10
3.228318
 20
3.951714
  0
VERTEX
  8
FOREGROUND
  6
CONTINUOUS
 10
3.188606
 20
3.948117
  0
VERTEX
  8
FOREGROUND
  6
CONTINUOUS
 10
3.148970
 20
3.944335
  0
VERTEX
  8
FOREGROUND
  6
CONTINUOUS
 10
3.109412
 20
3.940369
  0
VERTEX
  8
FOREGROUND
  6
CONTINUOUS
 10
3.069937
 20
3.936218
  0
VERTEX
  8
FOREGROUND
  6
CONTINUOUS
 10
3.030549
 20
3.931883
  0
VERTEX
  8
FOREGROUND
  6
CONTINUOUS
 10
2.991251
 20
3.927363
  0
VERTEX
  8
FOREGROUND
  6
CONTINUOUS
 10
2.952048
 20
3.922659
  0
VERTEX
  8
FOREGROUND
  6
CONTINUOUS
 10
2.912942
 20
3.917770
  0
VERTEX
  8
FOREGROUND
  6
CONTINUOUS
 10
2.873938
 20
3.912697
  0
VERTEX
  8
FOREGROUND
  6
CONTINUOUS
 10
2.835040
 20
3.907439
  0
VERTEX
  8
FOREGROUND
  6
CONTINUOUS
 10
2.796251
 20
3.901997
  0
VERTEX
  8
FOREGROUND
  6
CONTINUOUS
 10
2.757575
 20
3.896370
  0
VERTEX
  8
FOREGROUND
  6
CONTINUOUS
 10
2.719016
 20
3.890559
  0
VERTEX
  8
FOREGROUND
  6
CONTINUOUS
 10
2.680578
 20
3.884563
  0
VERTEX
  8
FOREGROUND
  6
CONTINUOUS
 10
2.642265
 20
3.878382
  0
VERTEX
  8
FOREGROUND
  6
CONTINUOUS
 10
2.604080
 20
3.872017
  0
VERTEX
  8
FOREGROUND
  6
CONTINUOUS
 10
2.566026
 20
3.865468
  0
VERTEX
  8
FOREGROUND
  6
CONTINUOUS
 10
2.528109
 20
3.858734
  0
VERTEX
  8
FOREGROUND
  6
CONTINUOUS
 10
2.490331
 20
3.851815
  0
VERTEX
  8
FOREGROUND
  6
CONTINUOUS
 10
2.452697
 20
3.844712
  0
VERTEX
  8
FOREGROUND
  6
CONTINUOUS
 10
2.415210
 20
3.837425
  0
VERTEX
  8
FOREGROUND
  6
CONTINUOUS
 10
2.377874
 20
3.829953
  0
VERTEX
  8
FOREGROUND
  6
CONTINUOUS
 10
2.340693
 20
3.822296
  0
VERTEX
  8
FOREGROUND
  6
CONTINUOUS
 10
2.303670
 20
3.814455
  0
VERTEX
  8
FOREGROUND
  6
CONTINUOUS
 10
2.266810
 20
3.806430
  0
VERTEX
  8
FOREGROUND
  6
CONTINUOUS
 10
2.230116
 20
3.798219
  0
VERTEX
  8
FOREGROUND
  6
CONTINUOUS
 10
2.193592
 20
3.789825
  0
VERTEX
  8
FOREGROUND
  6
CONTINUOUS
 10
2.157242
 20
3.781246
  0
VERTEX
  8
FOREGROUND
  6
CONTINUOUS
 10
2.121069
 20
3.772482
  0
VERTEX
  8
FOREGROUND
  6
CONTINUOUS
 10
2.085078
 20
3.763534
  0
VERTEX
  8
FOREGROUND
  6
CONTINUOUS
 10
2.049272
 20
3.754401
  0
VERTEX
  8
FOREGROUND
  6
CONTINUOUS
 10
2.013654
 20
3.745084
  0
VERTEX
  8
FOREGROUND
  6
CONTINUOUS
 10
1.978230
 20
3.735582
  0
VERTEX
  8
FOREGROUND
  6
CONTINUOUS
 10
1.943002
 20
3.725896
  0
VERTEX
  8
FOREGROUND
  6
CONTINUOUS
 10
1.907974
 20
3.716025
  0
VERTEX
  8
FOREGROUND
  6
CONTINUOUS
 10
1.873150
 20
3.705969
  0
VERTEX
  8
FOREGROUND
  6
CONTINUOUS
 10
1.838534
 20
3.695730
  0
VERTEX
  8
FOREGROUND
  6
CONTINUOUS
 10
1.804130
 20
3.685305
  0
VERTEX
  8
FOREGROUND
  6
CONTINUOUS
 10
1.769941
 20
3.674696
  0
VERTEX
  8
FOREGROUND
  6
CONTINUOUS
 10
1.735971
 20
3.663903
  0
VERTEX
  8
FOREGROUND
  6
CONTINUOUS
 10
1.702224
 20
3.652925
  0
VERTEX
  8
FOREGROUND
  6
CONTINUOUS
 10
1.668705
 20
3.641762
  0
VERTEX
  8
FOREGROUND
  6
CONTINUOUS
 10
1.635415
 20
3.630415
  0
VERTEX
  8
FOREGROUND
  6
CONTINUOUS
 10
1.602360
 20
3.618884
  0
VERTEX
  8
FOREGROUND
  6
CONTINUOUS
 10
1.569544
 20
3.607168
  0
VERTEX
  8
FOREGROUND
  6
CONTINUOUS
 10
1.536969
 20
3.595267
  0
VERTEX
  8
FOREGROUND
  6
CONTINUOUS
 10
1.504640
 20
3.583182
  0
VERTEX
  8
FOREGROUND
  6
CONTINUOUS
 10
1.472560
 20
3.570913
  0
VERTEX
  8
FOREGROUND
  6
CONTINUOUS
 10
1.440734
 20
3.558458
  0
VERTEX
  8
FOREGROUND
  6
CONTINUOUS
 10
1.409165
 20
3.545820
  0
VERTEX
  8
FOREGROUND
  6
CONTINUOUS
 10
1.377857
 20
3.532997
  0
VERTEX
  8
FOREGROUND
  6
CONTINUOUS
 10
1.346813
 20
3.519989
  0
VERTEX
  8
FOREGROUND
  6
CONTINUOUS
 10
1.316038
 20
3.506797
  0
VERTEX
  8
FOREGROUND
  6
CONTINUOUS
 10
1.285535
 20
3.493420
  0
VERTEX
  8
FOREGROUND
  6
CONTINUOUS
 10
1.255308
 20
3.479859
  0
VERTEX
  8
FOREGROUND
  6
CONTINUOUS
 10
1.225361
 20
3.466113
  0
VERTEX
  8
FOREGROUND
  6
CONTINUOUS
 10
1.195698
 20
3.452183
  0
VERTEX
  8
FOREGROUND
  6
CONTINUOUS
 10
1.166322
 20
3.438068
  0
VERTEX
  8
FOREGROUND
  6
CONTINUOUS
 10
1.137237
 20
3.423768
  0
VERTEX
  8
FOREGROUND
  6
CONTINUOUS
 10
1.108448
 20
3.409285
  0
VERTEX
  8
FOREGROUND
  6
CONTINUOUS
 10
1.079957
 20
3.394616
  0
VERTEX
  8
FOREGROUND
  6
CONTINUOUS
 10
1.051768
 20
3.379763
  0
VERTEX
  8
FOREGROUND
  6
CONTINUOUS
 10
1.023886
 20
3.364726
  0
VERTEX
  8
FOREGROUND
  6
CONTINUOUS
 10
0.996314
 20
3.349504
  0
VERTEX
  8
FOREGROUND
  6
CONTINUOUS
 10
0.969056
 20
3.334097
  0
VERTEX
  8
FOREGROUND
  6
CONTINUOUS
 10
0.942116
 20
3.318506
  0
VERTEX
  8
FOREGROUND
  6
CONTINUOUS
 10
0.915497
 20
3.302731
  0
VERTEX
  8
FOREGROUND
  6
CONTINUOUS
 10
0.889204
 20
3.286771
  0
VERTEX
  8
FOREGROUND
  6
CONTINUOUS
 10
0.863239
 20
3.270626
  0
VERTEX
  8
FOREGROUND
  6
CONTINUOUS
 10
0.837608
 20
3.254297
  0
VERTEX
  8
FOREGROUND
  6
CONTINUOUS
 10
0.812313
 20
3.237783
  0
VERTEX
  8
FOREGROUND
  6
CONTINUOUS
 10
0.787359
 20
3.221085
  0
VERTEX
  8
FOREGROUND
  6
CONTINUOUS
 10
0.762749
 20
3.204202
  0
VERTEX
  8
FOREGROUND
  6
CONTINUOUS
 10
0.738486
 20
3.187135
  0
VERTEX
  8
FOREGROUND
  6
CONTINUOUS
 10
0.714576
 20
3.169883
  0
VERTEX
  8
FOREGROUND
  6
CONTINUOUS
 10
0.691021
 20
3.152447
  0
VERTEX
  8
FOREGROUND
  6
CONTINUOUS
 10
0.667826
 20
3.134826
  0
VERTEX
  8
FOREGROUND
  6
CONTINUOUS
 10
0.644994
 20
3.117021
  0
VERTEX
  8
FOREGROUND
  6
CONTINUOUS
 10
0.622529
 20
3.099031
  0
VERTEX
  8
FOREGROUND
  6
CONTINUOUS
 10
0.600434
 20
3.080857
  0
VERTEX
  8
FOREGROUND
  6
CONTINUOUS
 10
0.578714
 20
3.062498
  0
VERTEX
  8
FOREGROUND
  6
CONTINUOUS
 10
0.557373
 20
3.043955
  0
VERTEX
  8
FOREGROUND
  6
CONTINUOUS
 10
0.536413
 20
3.025227
  0
VERTEX
  8
FOREGROUND
  6
CONTINUOUS
 10
0.515840
 20
3.006314
  0
VERTEX
  8
FOREGROUND
  6
CONTINUOUS
 10
0.495656
 20
2.987217
  0
VERTEX
  8
FOREGROUND
  6
CONTINUOUS
 10
0.475866
 20
2.967936
  0
VERTEX
  8
FOREGROUND
  6
CONTINUOUS
 10
0.456473
 20
2.948470
  0
VERTEX
  8
FOREGROUND
  6
CONTINUOUS
 10
0.437481
 20
2.928819
  0
VERTEX
  8
FOREGROUND
  6
CONTINUOUS
 10
0.418893
 20
2.908984
  0
VERTEX
  8
FOREGROUND
  6
CONTINUOUS
 10
0.400715
 20
2.888964
  0
VERTEX
  8
FOREGROUND
  6
CONTINUOUS
 10
0.382949
 20
2.868760
  0
VERTEX
  8
FOREGROUND
  6
CONTINUOUS
 10
0.365599
 20
2.848371
  0
VERTEX
  8
FOREGROUND
  6
CONTINUOUS
 10
0.348669
 20
2.827798
  0
VERTEX
  8
FOREGROUND
  6
CONTINUOUS
 10
0.332163
 20
2.807040
  0
VERTEX
  8
FOREGROUND
  6
CONTINUOUS
 10
0.316084
 20
2.786098
  0
VERTEX
  8
FOREGROUND
  6
CONTINUOUS
 10
0.300437
 20
2.764971
  0
VERTEX
  8
FOREGROUND
  6
CONTINUOUS
 10
0.285225
 20
2.743660
  0
VERTEX
  8
FOREGROUND
  6
CONTINUOUS
 10
0.270452
 20
2.722164
  0
VERTEX
  8
FOREGROUND
  6
CONTINUOUS
 10
0.256122
 20
2.700484
  0
VERTEX
  8
FOREGROUND
  6
CONTINUOUS
 10
0.242238
 20
2.678619
  0
VERTEX
  8
FOREGROUND
  6
CONTINUOUS
 10
0.228805
 20
2.656570
  0
VERTEX
  8
FOREGROUND
  6
CONTINUOUS
 10
0.215825
 20
2.634336
  0
VERTEX
  8
FOREGROUND
  6
CONTINUOUS
 10
0.203304
 20
2.611917
  0
VERTEX
  8
FOREGROUND
  6
CONTINUOUS
 10
0.191244
 20
2.589314
  0
VERTEX
  8
FOREGROUND
  6
CONTINUOUS
 10
0.179650
 20
2.566527
  0
VERTEX
  8
FOREGROUND
  6
CONTINUOUS
 10
0.168525
 20
2.543555
  0
VERTEX
  8
FOREGROUND
  6
CONTINUOUS
 10
0.157873
 20
2.520398
  0
VERTEX
  8
FOREGROUND
  6
CONTINUOUS
 10
0.147698
 20
2.497057
  0
VERTEX
  8
FOREGROUND
  6
CONTINUOUS
 10
0.138003
 20
2.473531
  0
VERTEX
  8
FOREGROUND
  6
CONTINUOUS
 10
0.128793
 20
2.449821
  0
VERTEX
  8
FOREGROUND
  6
CONTINUOUS
 10
0.120071
 20
2.425926
  0
VERTEX
  8
FOREGROUND
  6
CONTINUOUS
 10
0.111841
 20
2.401847
  0
VERTEX
  8
FOREGROUND
  6
CONTINUOUS
 10
0.104107
 20
2.377583
  0
VERTEX
  8
FOREGROUND
  6
CONTINUOUS
 10
0.096872
 20
2.353135
  0
VERTEX
  8
FOREGROUND
  6
CONTINUOUS
 10
0.090141
 20
2.328502
  0
VERTEX
  8
FOREGROUND
  6
CONTINUOUS
 10
0.083916
 20
2.303685
  0
VERTEX
  8
FOREGROUND
  6
CONTINUOUS
 10
0.078203
 20
2.278683
  0
VERTEX
  8
FOREGROUND
  6
CONTINUOUS
 10
0.073005
 20
2.253497
  0
VERTEX
  8
FOREGROUND
  6
CONTINUOUS
 10
0.068325
 20
2.228126
  0
VERTEX
  8
FOREGROUND
  6
CONTINUOUS
 10
0.064167
 20
2.202570
  0
VERTEX
  8
FOREGROUND
  6
CONTINUOUS
 10
0.060535
 20
2.176831
  0
VERTEX
  8
FOREGROUND
  6
CONTINUOUS
 10
0.057433
 20
2.150906
  0
VERTEX
  8
FOREGROUND
  6
CONTINUOUS
 10
0.054865
 20
2.124797
  0
VERTEX
  8
FOREGROUND
  6
CONTINUOUS
 10
0.052835
 20
2.098503
  0
VERTEX
  8
FOREGROUND
  6
CONTINUOUS
 10
0.051345
 20
2.072025
  0
VERTEX
  8
FOREGROUND
  6
CONTINUOUS
 10
0.050401
 20
2.045363
  0
VERTEX
  8
FOREGROUND
  6
CONTINUOUS
 10
0.050005
 20
2.018516
  0
VERTEX
  8
FOREGROUND
  6
CONTINUOUS
 10
0.050005
 20
2.018516
  0
VERTEX
  8
FOREGROUND
  6
CONTINUOUS
 10
0.050247
 20
1.991668
  0
VERTEX
  8
FOREGROUND
  6
CONTINUOUS
 10
0.051039
 20
1.965006
  0
VERTEX
  8
FOREGROUND
  6
CONTINUOUS
 10
0.052377
 20
1.938527
  0
VERTEX
  8
FOREGROUND
  6
CONTINUOUS
 10
0.054258
 20
1.912234
  0
VERTEX
  8
FOREGROUND
  6
CONTINUOUS
 10
0.056677
 20
1.886124
  0
VERTEX
  8
FOREGROUND
  6
CONTINUOUS
 10
0.059630
 20
1.860200
  0
VERTEX
  8
FOREGROUND
  6
CONTINUOUS
 10
0.063115
 20
1.834459
  0
VERTEX
  8
FOREGROUND
  6
CONTINUOUS
 10
0.067126
 20
1.808904
  0
VERTEX
  8
FOREGROUND
  6
CONTINUOUS
 10
0.071661
 20
1.783532
  0
VERTEX
  8
FOREGROUND
  6
CONTINUOUS
 10
0.076716
 20
1.758345
  0
VERTEX
  8
FOREGROUND
  6
CONTINUOUS
 10
0.082286
 20
1.733343
  0
VERTEX
  8
FOREGROUND
  6
CONTINUOUS
 10
0.088368
 20
1.708525
  0
VERTEX
  8
FOREGROUND
  6
CONTINUOUS
 10
0.094959
 20
1.683892
  0
VERTEX
  8
FOREGROUND
  6
CONTINUOUS
 10
0.102054
 20
1.659443
  0
VERTEX
  8
FOREGROUND
  6
CONTINUOUS
 10
0.109649
 20
1.635178
  0
VERTEX
  8
FOREGROUND
  6
CONTINUOUS
 10
0.117742
 20
1.611098
  0
VERTEX
  8
FOREGROUND
  6
CONTINUOUS
 10
0.126327
 20
1.587203
  0
VERTEX
  8
FOREGROUND
  6
CONTINUOUS
 10
0.135402
 20
1.563492
  0
VERTEX
  8
FOREGROUND
  6
CONTINUOUS
 10
0.144962
 20
1.539965
  0
VERTEX
  8
FOREGROUND
  6
CONTINUOUS
 10
0.155003
 20
1.516623
  0
VERTEX
  8
FOREGROUND
  6
CONTINUOUS
 10
0.165523
 20
1.493466
  0
VERTEX
  8
FOREGROUND
  6
CONTINUOUS
 10
0.176517
 20
1.470493
  0
VERTEX
  8
FOREGROUND
  6
CONTINUOUS
 10
0.187981
 20
1.447704
  0
VERTEX
  8
FOREGROUND
  6
CONTINUOUS
 10
0.199911
 20
1.425100
  0
VERTEX
  8
FOREGROUND
  6
CONTINUOUS
 10
0.212305
 20
1.402680
  0
VERTEX
  8
FOREGROUND
  6
CONTINUOUS
 10
0.225157
 20
1.380445
  0
VERTEX
  8
FOREGROUND
  6
CONTINUOUS
 10
0.238464
 20
1.358394
  0
VERTEX
  8
FOREGROUND
  6
CONTINUOUS
 10
0.252223
 20
1.336528
  0
VERTEX
  8
FOREGROUND
  6
CONTINUOUS
 10
0.266430
 20
1.314847
  0
VERTEX
  8
FOREGROUND
  6
CONTINUOUS
 10
0.281080
 20
1.293349
  0
VERTEX
  8
FOREGROUND
  6
CONTINUOUS
 10
0.296170
 20
1.272037
  0
VERTEX
  8
FOREGROUND
  6
CONTINUOUS
 10
0.311696
 20
1.250908
  0
VERTEX
  8
FOREGROUND
  6
CONTINUOUS
 10
0.327655
 20
1.229965
  0
VERTEX
  8
FOREGROUND
  6
CONTINUOUS
 10
0.344042
 20
1.209205
  0
VERTEX
  8
FOREGROUND
  6
CONTINUOUS
 10
0.360855
 20
1.188631
  0
VERTEX
  8
FOREGROUND
  6
CONTINUOUS
 10
0.378088
 20
1.168240
  0
VERTEX
  8
FOREGROUND
  6
CONTINUOUS
 10
0.395739
 20
1.148035
  0
VERTEX
  8
FOREGROUND
  6
CONTINUOUS
 10
0.413803
 20
1.128013
  0
VERTEX
  8
FOREGROUND
  6
CONTINUOUS
 10
0.432276
 20
1.108177
  0
VERTEX
  8
FOREGROUND
  6
CONTINUOUS
 10
0.451156
 20
1.088524
  0
VERTEX
  8
FOREGROUND
  6
CONTINUOUS
 10
0.470438
 20
1.069056
  0
VERTEX
  8
FOREGROUND
  6
CONTINUOUS
 10
0.490118
 20
1.049773
  0
VERTEX
  8
FOREGROUND
  6
CONTINUOUS
 10
0.510193
 20
1.030674
  0
VERTEX
  8
FOREGROUND
  6
CONTINUOUS
 10
0.530658
 20
1.011760
  0
VERTEX
  8
FOREGROUND
  6
CONTINUOUS
 10
0.551510
 20
0.993030
  0
VERTEX
  8
FOREGROUND
  6
CONTINUOUS
 10
0.572746
 20
0.974485
  0
VERTEX
  8
FOREGROUND
  6
CONTINUOUS
 10
0.594361
 20
0.956124
  0
VERTEX
  8
FOREGROUND
  6
CONTINUOUS
 10
0.616351
 20
0.937947
  0
VERTEX
  8
FOREGROUND
  6
CONTINUOUS
 10
0.638714
 20
0.919955
  0
VERTEX
  8
FOREGROUND
  6
CONTINUOUS
 10
0.661444
 20
0.902148
  0
VERTEX
  8
FOREGROUND
  6
CONTINUOUS
 10
0.684539
 20
0.884525
  0
VERTEX
  8
FOREGROUND
  6
CONTINUOUS
 10
0.707994
 20
0.867086
  0
VERTEX
  8
FOREGROUND
  6
CONTINUOUS
 10
0.731805
 20
0.849833
  0
VERTEX
  8
FOREGROUND
  6
CONTINUOUS
 10
0.755970
 20
0.832763
  0
VERTEX
  8
FOREGROUND
  6
CONTINUOUS
 10
0.780484
 20
0.815878
  0
VERTEX
  8
FOREGROUND
  6
CONTINUOUS
 10
0.805343
 20
0.799178
  0
VERTEX
  8
FOREGROUND
  6
CONTINUOUS
 10
0.830543
 20
0.782662
  0
VERTEX
  8
FOREGROUND
  6
CONTINUOUS
 10
0.856081
 20
0.766330
  0
VERTEX
  8
FOREGROUND
  6
CONTINUOUS
 10
0.881953
 20
0.750183
  0
VERTEX
  8
FOREGROUND
  6
CONTINUOUS
 10
0.908155
 20
0.734221
  0
VERTEX
  8
FOREGROUND
  6
CONTINUOUS
 10
0.934684
 20
0.718443
  0
VERTEX
  8
FOREGROUND
  6
CONTINUOUS
 10
0.961535
 20
0.702849
  0
VERTEX
  8
FOREGROUND
  6
CONTINUOUS
 10
0.988705
 20
0.687440
  0
VERTEX
  8
FOREGROUND
  6
CONTINUOUS
 10
1.016190
 20
0.672216
  0
VERTEX
  8
FOREGROUND
  6
CONTINUOUS
 10
1.043986
 20
0.657176
  0
VERTEX
  8
FOREGROUND
  6
CONTINUOUS
 10
1.072089
 20
0.642320
  0
VERTEX
  8
FOREGROUND
  6
CONTINUOUS
 10
1.100497
 20
0.627649
  0
VERTEX
  8
FOREGROUND
  6
CONTINUOUS
 10
1.129203
 20
0.613162
  0
VERTEX
  8
FOREGROUND
  6
CONTINUOUS
 10
1.158206
 20
0.598860
  0
VERTEX
  8
FOREGROUND
  6
CONTINUOUS
 10
1.187502
 20
0.584743
  0
VERTEX
  8
FOREGROUND
  6
CONTINUOUS
 10
1.217085
 20
0.570810
  0
VERTEX
  8
FOREGROUND
  6
CONTINUOUS
 10
1.246954
 20
0.557061
  0
VERTEX
  8
FOREGROUND
  6
CONTINUOUS
 10
1.277103
 20
0.543497
  0
VERTEX
  8
FOREGROUND
  6
CONTINUOUS
 10
1.307529
 20
0.530118
  0
VERTEX
  8
FOREGROUND
  6
CONTINUOUS
 10
1.338229
 20
0.516923
  0
VERTEX
  8
FOREGROUND
  6
CONTINUOUS
 10
1.369198
 20
0.503912
  0
VERTEX
  8
FOREGROUND
  6
CONTINUOUS
 10
1.400433
 20
0.491086
  0
VERTEX
  8
FOREGROUND
  6
CONTINUOUS
 10
1.431930
 20
0.478444
  0
VERTEX
  8
FOREGROUND
  6
CONTINUOUS
 10
1.463685
 20
0.465987
  0
VERTEX
  8
FOREGROUND
  6
CONTINUOUS
 10
1.495694
 20
0.453715
  0
VERTEX
  8
FOREGROUND
  6
CONTINUOUS
 10
1.527954
 20
0.441627
  0
VERTEX
  8
FOREGROUND
  6
CONTINUOUS
 10
1.560461
 20
0.429723
  0
VERTEX
  8
FOREGROUND
  6
CONTINUOUS
 10
1.593211
 20
0.418004
  0
VERTEX
  8
FOREGROUND
  6
CONTINUOUS
 10
1.626200
 20
0.406469
  0
VERTEX
  8
FOREGROUND
  6
CONTINUOUS
 10
1.659424
 20
0.395119
  0
VERTEX
  8
FOREGROUND
  6
CONTINUOUS
 10
1.692880
 20
0.383954
  0
VERTEX
  8
FOREGROUND
  6
CONTINUOUS
 10
1.726564
 20
0.372973
  0
VERTEX
  8
FOREGROUND
  6
CONTINUOUS
 10
1.760472
 20
0.362176
  0
VERTEX
  8
FOREGROUND
  6
CONTINUOUS
 10
1.794600
 20
0.351564
  0
VERTEX
  8
FOREGROUND
  6
CONTINUOUS
 10
1.828945
 20
0.341136
  0
VERTEX
  8
FOREGROUND
  6
CONTINUOUS
 10
1.863502
 20
0.330893
  0
VERTEX
  8
FOREGROUND
  6
CONTINUOUS
 10
1.898269
 20
0.320835
  0
VERTEX
  8
FOREGROUND
  6
CONTINUOUS
 10
1.933240
 20
0.310961
  0
VERTEX
  8
FOREGROUND
  6
CONTINUOUS
 10
1.968413
 20
0.301271
  0
VERTEX
  8
FOREGROUND
  6
CONTINUOUS
 10
2.003783
 20
0.291766
  0
VERTEX
  8
FOREGROUND
  6
CONTINUOUS
 10
2.039347
 20
0.282446
  0
VERTEX
  8
FOREGROUND
  6
CONTINUOUS
 10
2.075101
 20
0.273310
  0
VERTEX
  8
FOREGROUND
  6
CONTINUOUS
 10
2.111042
 20
0.264358
  0
VERTEX
  8
FOREGROUND
  6
CONTINUOUS
 10
2.147164
 20
0.255591
  0
VERTEX
  8
FOREGROUND
  6
CONTINUOUS
 10
2.183465
 20
0.247008
  0
VERTEX
  8
FOREGROUND
  6
CONTINUOUS
 10
2.219941
 20
0.238610
  0
VERTEX
  8
FOREGROUND
  6
CONTINUOUS
 10
2.256588
 20
0.230397
  0
VERTEX
  8
FOREGROUND
  6
CONTINUOUS
 10
2.293403
 20
0.222368
  0
VERTEX
  8
FOREGROUND
  6
CONTINUOUS
 10
2.330380
 20
0.214523
  0
VERTEX
  8
FOREGROUND
  6
CONTINUOUS
 10
2.367518
 20
0.206863
  0
VERTEX
  8
FOREGROUND
  6
CONTINUOUS
 10
2.404811
 20
0.199388
  0
VERTEX
  8
FOREGROUND
  6
CONTINUOUS
 10
2.442256
 20
0.192097
  0
VERTEX
  8
FOREGROUND
  6
CONTINUOUS
 10
2.479850
 20
0.184990
  0
VERTEX
  8
FOREGROUND
  6
CONTINUOUS
 10
2.517588
 20
0.178068
  0
VERTEX
  8
FOREGROUND
  6
CONTINUOUS
 10
2.555467
 20
0.171331
  0
VERTEX
  8
FOREGROUND
  6
CONTINUOUS
 10
2.593483
 20
0.164778
  0
VERTEX
  8
FOREGROUND
  6
CONTINUOUS
 10
2.631632
 20
0.158409
  0
VERTEX
  8
FOREGROUND
  6
CONTINUOUS
 10
2.669910
 20
0.152225
  0
VERTEX
  8
FOREGROUND
  6
CONTINUOUS
 10
2.708314
 20
0.146226
  0
VERTEX
  8
FOREGROUND
  6
CONTINUOUS
 10
2.746839
 20
0.140411
  0
VERTEX
  8
FOREGROUND
  6
CONTINUOUS
 10
2.785483
 20
0.134780
  0
VERTEX
  8
FOREGROUND
  6
CONTINUOUS
 10
2.824241
 20
0.129335
  0
VERTEX
  8
FOREGROUND
  6
CONTINUOUS
 10
2.863109
 20
0.124073
  0
VERTEX
  8
FOREGROUND
  6
CONTINUOUS
 10
2.902084
 20
0.118996
  0
VERTEX
  8
FOREGROUND
  6
CONTINUOUS
 10
2.941161
 20
0.114104
  0
VERTEX
  8
FOREGROUND
  6
CONTINUOUS
 10
2.980338
 20
0.109396
  0
VERTEX
  8
FOREGROUND
  6
CONTINUOUS
 10
3.019610
 20
0.104873
  0
VERTEX
  8
FOREGROUND
  6
CONTINUOUS
 10
3.058973
 20
0.100534
  0
VERTEX
  8
FOREGROUND
  6
CONTINUOUS
 10
3.098424
 20
0.096379
  0
VERTEX
  8
FOREGROUND
  6
CONTINUOUS
 10
3.137959
 20
0.092409
  0
VERTEX
  8
FOREGROUND
  6
CONTINUOUS
 10
3.177574
 20
0.088624
  0
VERTEX
  8
FOREGROUND
  6
CONTINUOUS
 10
3.217266
 20
0.085023
  0
VERTEX
  8
FOREGROUND
  6
CONTINUOUS
 10
3.257030
 20
0.081607
  0
VERTEX
  8
FOREGROUND
  6
CONTINUOUS
 10
3.296862
 20
0.078375
  0
VERTEX
  8
FOREGROUND
  6
CONTINUOUS
 10
3.336760
 20
0.075328
  0
VERTEX
  8
FOREGROUND
  6
CONTINUOUS
 10
3.376719
 20
0.072465
  0
VERTEX
  8
FOREGROUND
  6
CONTINUOUS
 10
3.416735
 20
0.069787
  0
VERTEX
  8
FOREGROUND
  6
CONTINUOUS
 10
3.456804
 20
0.067293
  0
VERTEX
  8
FOREGROUND
  6
CONTINUOUS
 10
3.496924
 20
0.064984
  0
VERTEX
  8
FOREGROUND
  6
CONTINUOUS
 10
3.537089
 20
0.062859
  0
VERTEX
  8
FOREGROUND
  6
CONTINUOUS
 10
3.577297
 20
0.060919
  0
VERTEX
  8
FOREGROUND
  6
CONTINUOUS
 10
3.617543
 20
0.059163
  0
VERTEX
  8
FOREGROUND
  6
CONTINUOUS
 10
3.657824
 20
0.057592
  0
VERTEX
  8
FOREGROUND
  6
CONTINUOUS
 10
3.698136
 20
0.056205
  0
VERTEX
  8
FOREGROUND
  6
CONTINUOUS
 10
3.738474
 20
0.055003
  0
VERTEX
  8
FOREGROUND
  6
CONTINUOUS
 10
3.778836
 20
0.053986
  0
VERTEX
  8
FOREGROUND
  6
CONTINUOUS
 10
3.819218
 20
0.053152
  0
VERTEX
  8
FOREGROUND
  6
CONTINUOUS
 10
3.859615
 20
0.052504
  0
VERTEX
  8
FOREGROUND
  6
CONTINUOUS
 10
3.900024
 20
0.052040
  0
VERTEX
  8
FOREGROUND
  6
CONTINUOUS
 10
3.940441
 20
0.051760
  0
VERTEX
  8
FOREGROUND
  6
CONTINUOUS
 10
3.980863
 20
0.051665
  0
VERTEX
  8
FOREGROUND
  6
CONTINUOUS
 10
4.021285
 20
0.051754
  0
VERTEX
  8
FOREGROUND
  6
CONTINUOUS
 10
4.061704
 20
0.052028
  0
VERTEX
  8
FOREGROUND
  6
CONTINUOUS
 10
4.102115
 20
0.052487
  0
VERTEX
  8
FOREGROUND
  6
CONTINUOUS
 10
4.142516
 20
0.053130
  0
VERTEX
  8
FOREGROUND
  6
CONTINUOUS
 10
4.182903
 20
0.053957
  0
VERTEX
  8
FOREGROUND
  6
CONTINUOUS
 10
4.223271
 20
0.054970
  0
VERTEX
  8
FOREGROUND
  6
CONTINUOUS
 10
4.263616
 20
0.056166
  0
VERTEX
  8
FOREGROUND
  6
CONTINUOUS
 10
4.303936
 20
0.057547
  0
VERTEX
  8
FOREGROUND
  6
CONTINUOUS
 10
4.344226
 20
0.059113
  0
VERTEX
  8
FOREGROUND
  6
CONTINUOUS
 10
4.384483
 20
0.060863
  0
VERTEX
  8
FOREGROUND
  6
CONTINUOUS
 10
4.424702
 20
0.062797
  0
VERTEX
  8
FOREGROUND
  6
CONTINUOUS
 10
4.464880
 20
0.064917
  0
VERTEX
  8
FOREGROUND
  6
CONTINUOUS
 10
4.505013
 20
0.067220
  0
VERTEX
  8
FOREGROUND
  6
CONTINUOUS
 10
4.545098
 20
0.069708
  0
VERTEX
  8
FOREGROUND
  6
CONTINUOUS
 10
4.585129
 20
0.072381
  0
VERTEX
  8
FOREGROUND
  6
CONTINUOUS
 10
4.625105
 20
0.075238
  0
VERTEX
  8
FOREGROUND
  6
CONTINUOUS
 10
4.665021
 20
0.078280
  0
VERTEX
  8
FOREGROUND
  6
CONTINUOUS
 10
4.704872
 20
0.081506
  0
VERTEX
  8
FOREGROUND
  6
CONTINUOUS
 10
4.744656
 20
0.084917
  0
VERTEX
  8
FOREGROUND
  6
CONTINUOUS
 10
4.784369
 20
0.088513
  0
VERTEX
  8
FOREGROUND
  6
CONTINUOUS
 10
4.824006
 20
0.092292
  0
VERTEX
  8
FOREGROUND
  6
CONTINUOUS
 10
4.863565
 20
0.096257
  0
VERTEX
  8
FOREGROUND
  6
CONTINUOUS
 10
4.903040
 20
0.100406
  0
VERTEX
  8
FOREGROUND
  6
CONTINUOUS
 10
4.942429
 20
0.104739
  0
VERTEX
  8
FOREGROUND
  6
CONTINUOUS
 10
4.981728
 20
0.109257
  0
VERTEX
  8
FOREGROUND
  6
CONTINUOUS
 10
5.020932
 20
0.113959
  0
VERTEX
  8
FOREGROUND
  6
CONTINUOUS
 10
5.060039
 20
0.118846
  0
VERTEX
  8
FOREGROUND
  6
CONTINUOUS
 10
5.099044
 20
0.123918
  0
VERTEX
  8
FOREGROUND
  6
CONTINUOUS
 10
5.137943
 20
0.129174
  0
VERTEX
  8
FOREGROUND
  6
CONTINUOUS
 10
5.176733
 20
0.134614
  0
VERTEX
  8
FOREGROUND
  6
CONTINUOUS
 10
5.215410
 20
0.140240
  0
VERTEX
  8
FOREGROUND
  6
CONTINUOUS
 10
5.253969
 20
0.146049
  0
VERTEX
  8
FOREGROUND
  6
CONTINUOUS
 10
5.292409
 20
0.152043
  0
VERTEX
  8
FOREGROUND
  6
CONTINUOUS
 10
5.330723
 20
0.158222
  0
VERTEX
  8
FOREGROUND
  6
CONTINUOUS
 10
5.368910
 20
0.164585
  0
VERTEX
  8
FOREGROUND
  6
CONTINUOUS
 10
5.406964
 20
0.171133
  0
VERTEX
  8
FOREGROUND
  6
CONTINUOUS
 10
5.444883
 20
0.177865
  0
VERTEX
  8
FOREGROUND
  6
CONTINUOUS
 10
5.482662
 20
0.184782
  0
VERTEX
  8
FOREGROUND
  6
CONTINUOUS
 10
5.520297
 20
0.191883
  0
VERTEX
  8
FOREGROUND
  6
CONTINUOUS
 10
5.557786
 20
0.199169
  0
VERTEX
  8
FOREGROUND
  6
CONTINUOUS
 10
5.595123
 20
0.206639
  0
VERTEX
  8
FOREGROUND
  6
CONTINUOUS
 10
5.632306
 20
0.214294
  0
VERTEX
  8
FOREGROUND
  6
CONTINUOUS
 10
5.669330
 20
0.222133
  0
VERTEX
  8
FOREGROUND
  6
CONTINUOUS
 10
5.706191
 20
0.230157
  0
VERTEX
  8
FOREGROUND
  6
CONTINUOUS
 10
5.742887
 20
0.238366
  0
VERTEX
  8
FOREGROUND
  6
CONTINUOUS
 10
5.779412
 20
0.246759
  0
VERTEX
  8
FOREGROUND
  6
CONTINUOUS
 10
5.815764
 20
0.255336
  0
VERTEX
  8
FOREGROUND
  6
CONTINUOUS
 10
5.851938
 20
0.264098
  0
VERTEX
  8
FOREGROUND
  6
CONTINUOUS
 10
5.887932
 20
0.273045
  0
VERTEX
  8
FOREGROUND
  6
CONTINUOUS
 10
5.923739
 20
0.282176
  0
VERTEX
  8
FOREGROUND
  6
CONTINUOUS
 10
5.959358
 20
0.291491
  0
VERTEX
  8
FOREGROUND
  6
CONTINUOUS
 10
5.994785
 20
0.300992
  0
VERTEX
  8
FOREGROUND
  6
CONTINUOUS
 10
6.030015
 20
0.310676
  0
VERTEX
  8
FOREGROUND
  6
CONTINUOUS
 10
6.065045
 20
0.320545
  0
VERTEX
  8
FOREGROUND
  6
CONTINUOUS
 10
6.099870
 20
0.330599
  0
VERTEX
  8
FOREGROUND
  6
CONTINUOUS
 10
6.134488
 20
0.340837
  0
VERTEX
  8
FOREGROUND
  6
CONTINUOUS
 10
6.168894
 20
0.351260
  0
VERTEX
  8
FOREGROUND
  6
CONTINUOUS
 10
6.203085
 20
0.361868
  0
VERTEX
  8
FOREGROUND
  6
CONTINUOUS
 10
6.237057
 20
0.372659
  0
VERTEX
  8
FOREGROUND
  6
CONTINUOUS
 10
6.270806
 20
0.383636
  0
VERTEX
  8
FOREGROUND
  6
CONTINUOUS
 10
6.304327
 20
0.394797
  0
VERTEX
  8
FOREGROUND
  6
CONTINUOUS
 10
6.337619
 20
0.406142
  0
VERTEX
  8
FOREGROUND
  6
CONTINUOUS
 10
6.370676
 20
0.417672
  0
VERTEX
  8
FOREGROUND
  6
CONTINUOUS
 10
6.403495
 20
0.429387
  0
VERTEX
  8
FOREGROUND
  6
CONTINUOUS
 10
6.436072
 20
0.441286
  0
VERTEX
  8
FOREGROUND
  6
CONTINUOUS
 10
6.468403
 20
0.453369
  0
VERTEX
  8
FOREGROUND
  6
CONTINUOUS
 10
6.500485
 20
0.465638
  0
VERTEX
  8
FOREGROUND
  6
CONTINUOUS
 10
6.532313
 20
0.478090
  0
VERTEX
  8
FOREGROUND
  6
CONTINUOUS
 10
6.563885
 20
0.490727
  0
VERTEX
  8
FOREGROUND
  6
CONTINUOUS
 10
6.595196
 20
0.503549
  0
VERTEX
  8
FOREGROUND
  6
CONTINUOUS
 10
6.626241
 20
0.516555
  0
VERTEX
  8
FOREGROUND
  6
CONTINUOUS
 10
6.657019
 20
0.529746
  0
VERTEX
  8
FOREGROUND
  6
CONTINUOUS
 10
6.687524
 20
0.543122
  0
VERTEX
  8
FOREGROUND
  6
CONTINUOUS
 10
6.717754
 20
0.556681
  0
VERTEX
  8
FOREGROUND
  6
CONTINUOUS
 10
6.747703
 20
0.570426
  0
VERTEX
  8
FOREGROUND
  6
CONTINUOUS
 10
6.777369
 20
0.584355
  0
VERTEX
  8
FOREGROUND
  6
CONTINUOUS
 10
6.806748
 20
0.598468
  0
VERTEX
  8
FOREGROUND
  6
CONTINUOUS
 10
6.835835
 20
0.612766
  0
VERTEX
  8
FOREGROUND
  6
CONTINUOUS
 10
6.864627
 20
0.627249
  0
VERTEX
  8
FOREGROUND
  6
CONTINUOUS
 10
6.893121
 20
0.641916
  0
VERTEX
  8
FOREGROUND
  6
CONTINUOUS
 10
6.921312
 20
0.656767
  0
VERTEX
  8
FOREGROUND
  6
CONTINUOUS
 10
6.949197
 20
0.671804
  0
VERTEX
  8
FOREGROUND
  6
CONTINUOUS
 10
6.976772
 20
0.687024
  0
VERTEX
  8
FOREGROUND
  6
CONTINUOUS
 10
7.004033
 20
0.702430
  0
VERTEX
  8
FOREGROUND
  6
CONTINUOUS
 10
7.030976
 20
0.718019
  0
VERTEX
  8
FOREGROUND
  6
CONTINUOUS
 10
7.057597
 20
0.733794
  0
VERTEX
  8
FOREGROUND
  6
CONTINUOUS
 10
7.083894
 20
0.749753
  0
VERTEX
  8
FOREGROUND
  6
CONTINUOUS
 10
7.109861
 20
0.765896
  0
VERTEX
  8
FOREGROUND
  6
CONTINUOUS
 10
7.135496
 20
0.782224
  0
VERTEX
  8
FOREGROUND
  6
CONTINUOUS
 10
7.160794
 20
0.798736
  0
VERTEX
  8
FOREGROUND
  6
CONTINUOUS
 10
7.185751
 20
0.815433
  0
VERTEX
  8
FOREGROUND
  6
CONTINUOUS
 10
7.210364
 20
0.832315
  0
VERTEX
  8
FOREGROUND
  6
CONTINUOUS
 10
7.234630
 20
0.849381
  0
VERTEX
  8
FOREGROUND
  6
CONTINUOUS
 10
7.258543
 20
0.866632
  0
VERTEX
  8
FOREGROUND
  6
CONTINUOUS
 10
7.282101
 20
0.884067
  0
VERTEX
  8
FOREGROUND
  6
CONTINUOUS
 10
7.305300
 20
0.901687
  0
VERTEX
  8
FOREGROUND
  6
CONTINUOUS
 10
7.328135
 20
0.919491
  0
VERTEX
  8
FOREGROUND
  6
CONTINUOUS
 10
7.350604
 20
0.937480
  0
VERTEX
  8
FOREGROUND
  6
CONTINUOUS
 10
7.372702
 20
0.955653
  0
VERTEX
  8
FOREGROUND
  6
CONTINUOUS
 10
7.394425
 20
0.974011
  0
VERTEX
  8
FOREGROUND
  6
CONTINUOUS
 10
7.415770
 20
0.992553
  0
VERTEX
  8
FOREGROUND
  6
CONTINUOUS
 10
7.436733
 20
1.011280
  0
VERTEX
  8
FOREGROUND
  6
CONTINUOUS
 10
7.457310
 20
1.030192
  0
VERTEX
  8
FOREGROUND
  6
CONTINUOUS
 10
7.477497
 20
1.049288
  0
VERTEX
  8
FOREGROUND
  6
CONTINUOUS
 10
7.497291
 20
1.068568
  0
VERTEX
  8
FOREGROUND
  6
CONTINUOUS
 10
7.516688
 20
1.088034
  0
VERTEX
  8
FOREGROUND
  6
CONTINUOUS
 10
7.535683
 20
1.107683
  0
VERTEX
  8
FOREGROUND
  6
CONTINUOUS
 10
7.554274
 20
1.127518
  0
VERTEX
  8
FOREGROUND
  6
CONTINUOUS
 10
7.572457
 20
1.147536
  0
VERTEX
  8
FOREGROUND
  6
CONTINUOUS
 10
7.590226
 20
1.167740
  0
VERTEX
  8
FOREGROUND
  6
CONTINUOUS
 10
7.607580
 20
1.188128
  0
VERTEX
  8
FOREGROUND
  6
CONTINUOUS
 10
7.624514
 20
1.208700
  0
VERTEX
  8
FOREGROUND
  6
CONTINUOUS
 10
7.641024
 20
1.229457
  0
VERTEX
  8
FOREGROUND
  6
CONTINUOUS
 10
7.657106
 20
1.250398
  0
VERTEX
  8
FOREGROUND
  6
CONTINUOUS
 10
7.672757
 20
1.271525
  0
VERTEX
  8
FOREGROUND
  6
CONTINUOUS
 10
7.687973
 20
1.292835
  0
VERTEX
  8
FOREGROUND
  6
CONTINUOUS
 10
7.702750
 20
1.314330
  0
VERTEX
  8
FOREGROUND
  6
CONTINUOUS
 10
7.717084
 20
1.336010
  0
VERTEX
  8
FOREGROUND
  6
CONTINUOUS
 10
7.730972
 20
1.357874
  0
VERTEX
  8
FOREGROUND
  6
CONTINUOUS
 10
7.744410
 20
1.379923
  0
VERTEX
  8
FOREGROUND
  6
CONTINUOUS
 10
7.757393
 20
1.402156
  0
VERTEX
  8
FOREGROUND
  6
CONTINUOUS
 10
7.769919
 20
1.424574
  0
VERTEX
  8
FOREGROUND
  6
CONTINUOUS
 10
7.781983
 20
1.447177
  0
VERTEX
  8
FOREGROUND
  6
CONTINUOUS
 10
7.793581
 20
1.469964
  0
VERTEX
  8
FOREGROUND
  6
CONTINUOUS
 10
7.804711
 20
1.492935
  0
VERTEX
  8
FOREGROUND
  6
CONTINUOUS
 10
7.815367
 20
1.516091
  0
VERTEX
  8
FOREGROUND
  6
CONTINUOUS
 10
7.825547
 20
1.539432
  0
VERTEX
  8
FOREGROUND
  6
CONTINUOUS
 10
7.835245
 20
1.562957
  0
VERTEX
  8
FOREGROUND
  6
CONTINUOUS
 10
7.844460
 20
1.586667
  0
VERTEX
  8
FOREGROUND
  6
CONTINUOUS
 10
7.853186
 20
1.610561
  0
VERTEX
  8
FOREGROUND
  6
CONTINUOUS
 10
7.861421
 20
1.634640
  0
VERTEX
  8
FOREGROUND
  6
CONTINUOUS
 10
7.869160
 20
1.658903
  0
VERTEX
  8
FOREGROUND
  6
CONTINUOUS
 10
7.876399
 20
1.683351
  0
VERTEX
  8
FOREGROUND
  6
CONTINUOUS
 10
7.883135
 20
1.707984
  0
VERTEX
  8
FOREGROUND
  6
CONTINUOUS
 10
7.889363
 20
1.732801
  0
VERTEX
  8
FOREGROUND
  6
CONTINUOUS
 10
7.895081
 20
1.757802
  0
VERTEX
  8
FOREGROUND
  6
CONTINUOUS
 10
7.900285
 20
1.782989
  0
VERTEX
  8
FOREGROUND
  6
CONTINUOUS
 10
7.904969
 20
1.808359
  0
VERTEX
  8
FOREGROUND
  6
CONTINUOUS
 10
7.909132
 20
1.833915
  0
VERTEX
  8
FOREGROUND
  6
CONTINUOUS
 10
7.912768
 20
1.859654
  0
VERTEX
  8
FOREGROUND
  6
CONTINUOUS
 10
7.915875
 20
1.885579
  0
VERTEX
  8
FOREGROUND
  6
CONTINUOUS
 10
7.918448
 20
1.911688
  0
VERTEX
  8
FOREGROUND
  6
CONTINUOUS
 10
7.920483
 20
1.937981
  0
VERTEX
  8
FOREGROUND
  6
CONTINUOUS
 10
7.921978
 20
1.964459
  0
VERTEX
  8
FOREGROUND
  6
CONTINUOUS
 10
7.922927
 20
1.991122
  0
VERTEX
  8
FOREGROUND
  6
CONTINUOUS
 10
7.923328
 20
2.017969
  0
SEQEND
  8
0
  0
ENDSEC
  0
EOF
