  0
SECTION
  2
HEADER
  9
$ACADVER
  1
AC1006
  9
$EXTMIN
 10
0.000000
 20
0.000000
  9
$EXTMAX
 10
7.973333
 20
4.823333
  9
$LTSCALE
 40
0.166667
  9
$PDMODE
 70
    35
  9
$PDSIZE
 40
0.133333
  0
ENDSEC
  0
SECTION
  2
TABLES
  0
TABLE
  2
LTYPE
 70
     9
  0
LTYPE
  2
CONTINUOUS
 70
    64
  3
Solid line
 72
    65
 73
     0
 40
0.000000
  0
LTYPE
  2
DASHED
 70
    64
  3
__ __ __ __ __ __ __ __ __ __ __ __ __ __ __
 72
    65
 73
     2
 40
0.001250
 49
0.000833
 49
-0.000417
  0
LTYPE
  2
HIDDEN
 70
    64
  3
 _ _ _ _ _ _ _ _ _ _ _ _ _ _ _ _ _ _ _ _ _ _
 72
    65
 73
     2
 40
0.000625
 49
0.000417
 49
-0.000208
  0
LTYPE
  2
CENTER
 70
    64
  3
____ _ ____ _ ____ _ ____ _ ____ _ ____ _ ____
 72
    65
 73
     4
 40
0.003333
 49
0.002083
 49
-0.000417
 49
0.000417
 49
-0.000417
  0
LTYPE
  2
PHANTOM
 70
    64
  3
_____ _ _ _____ _ _ _____ _ _ _____ _ _ ____
 72
    65
 73
     6
 40
0.004167
 49
0.002083
 49
-0.000417
 49
0.000417
 49
-0.000417
 49
0.000417
 49
-0.000417
  0
LTYPE
  2
DOT
 70
    64
  3
...............................................
 72
    65
 73
     2
 40
0.000417
 49
0.000000
 49
-0.000417
  0
LTYPE
  2
DASHDOT
 70
    64
  3
__ . __ . __ . __ . __ . __ . __ . __ . __ . __
 72
    65
 73
     4
 40
0.001667
 49
0.000833
 49
-0.000417
 49
0.000000
 49
-0.000417
  0
LTYPE
  2
BORDER
 70
    64
  3
__ __ . __ __ . __ __ . __ __ . __ __ . __ __
 72
    65
 73
     6
 40
0.002917
 49
0.000833
 49
-0.000417
 49
0.000833
 49
-0.000417
 49
0.000000
 49
-0.000417
  0
LTYPE
  2
DIVIDE
 70
    64
  3
__ . . __ . . __ . . __ . . __ . . __ . . __
 72
    65
 73
     6
 40
0.002083
 49
0.000833
 49
-0.000417
 49
0.000000
 49
-0.000417
 49
0.000000
 49
-0.000417
  0
LTYPE
  2
DOTDOT
 70
    64
  3
 . .  . .  . .  . .  . .  . . 
 72
    65
 73
     5
 40
0.000917
 49
-0.000417
 49
0.000000
 49
-0.000417
 49
0.000000
 49
-0.000417
  0
ENDTAB
  0
TABLE
  2
STYLE
 70
     2
  0
STYLE
 70
     0
  2
SN0
 40
0.000000
 41
0.001667
 50
0.000000
 71
     0
 42
0.000000
  3
ROMAND
  0
STYLE
 70
    68
  2
SV0
 40
0.000000
 41
0.001667
 50
0.000000
 71
     0
 42
0.000000
  3
ROMAND
  0
ENDTAB
  0
TABLE
  2
LAYER
 70
     2
  0
LAYER
  2
FOREGROUND
 70
    64
 62
     7
  6
CONTINUOUS
  0
LAYER
  2
BACKGROUND
 70
    65
 62
    -7
  6
CONTINUOUS
  0
ENDTAB
  0
ENDSEC
  0
SECTION
  2
ENTITIES
  0
POLYLINE
  8
FOREGROUND
  6
CONTINUOUS
 66
     1
 40
0.010000
 41
0.010000
 70
     1
  0
VERTEX
  8
FOREGROUND
  6
CONTINUOUS
 10
7.923331
 20
2.411667
  0
VERTEX
  8
FOREGROUND
  6
CONTINUOUS
 10
7.923080
 20
2.442842
  0
VERTEX
  8
FOREGROUND
  6
CONTINUOUS
 10
7.922316
 20
2.473810
  0
VERTEX
  8
FOREGROUND
  6
CONTINUOUS
 10
7.921041
 20
2.504571
  0
VERTEX
  8
FOREGROUND
  6
CONTINUOUS
 10
7.919259
 20
2.535125
  0
VERTEX
  8
FOREGROUND
  6
CONTINUOUS
 10
7.916974
 20
2.565472
  0
VERTEX
  8
FOREGROUND
  6
CONTINUOUS
 10
7.914188
 20
2.595612
  0
VERTEX
  8
FOREGROUND
  6
CONTINUOUS
 10
7.910905
 20
2.625544
  0
VERTEX
  8
FOREGROUND
  6
CONTINUOUS
 10
7.907129
 20
2.655270
  0
VERTEX
  8
FOREGROUND
  6
CONTINUOUS
 10
7.902862
 20
2.684788
  0
VERTEX
  8
FOREGROUND
  6
CONTINUOUS
 10
7.898109
 20
2.714099
  0
VERTEX
  8
FOREGROUND
  6
CONTINUOUS
 10
7.892873
 20
2.743203
  0
VERTEX
  8
FOREGROUND
  6
CONTINUOUS
 10
7.887157
 20
2.772100
  0
VERTEX
  8
FOREGROUND
  6
CONTINUOUS
 10
7.880965
 20
2.800790
  0
VERTEX
  8
FOREGROUND
  6
CONTINUOUS
 10
7.874300
 20
2.829273
  0
VERTEX
  8
FOREGROUND
  6
CONTINUOUS
 10
7.867165
 20
2.857548
  0
VERTEX
  8
FOREGROUND
  6
CONTINUOUS
 10
7.859564
 20
2.885617
  0
VERTEX
  8
FOREGROUND
  6
CONTINUOUS
 10
7.851501
 20
2.913478
  0
VERTEX
  8
FOREGROUND
  6
CONTINUOUS
 10
7.842978
 20
2.941132
  0
VERTEX
  8
FOREGROUND
  6
CONTINUOUS
 10
7.834000
 20
2.968579
  0
VERTEX
  8
FOREGROUND
  6
CONTINUOUS
 10
7.824569
 20
2.995819
  0
VERTEX
  8
FOREGROUND
  6
CONTINUOUS
 10
7.814689
 20
3.022851
  0
VERTEX
  8
FOREGROUND
  6
CONTINUOUS
 10
7.804364
 20
3.049677
  0
VERTEX
  8
FOREGROUND
  6
CONTINUOUS
 10
7.793597
 20
3.076295
  0
VERTEX
  8
FOREGROUND
  6
CONTINUOUS
 10
7.782391
 20
3.102707
  0
VERTEX
  8
FOREGROUND
  6
CONTINUOUS
 10
7.770750
 20
3.128911
  0
VERTEX
  8
FOREGROUND
  6
CONTINUOUS
 10
7.758677
 20
3.154908
  0
VERTEX
  8
FOREGROUND
  6
CONTINUOUS
 10
7.746175
 20
3.180698
  0
VERTEX
  8
FOREGROUND
  6
CONTINUOUS
 10
7.733249
 20
3.206281
  0
VERTEX
  8
FOREGROUND
  6
CONTINUOUS
 10
7.719901
 20
3.231656
  0
VERTEX
  8
FOREGROUND
  6
CONTINUOUS
 10
7.706135
 20
3.256825
  0
VERTEX
  8
FOREGROUND
  6
CONTINUOUS
 10
7.691954
 20
3.281786
  0
VERTEX
  8
FOREGROUND
  6
CONTINUOUS
 10
7.677362
 20
3.306541
  0
VERTEX
  8
FOREGROUND
  6
CONTINUOUS
 10
7.662362
 20
3.331088
  0
VERTEX
  8
FOREGROUND
  6
CONTINUOUS
 10
7.646958
 20
3.355428
  0
VERTEX
  8
FOREGROUND
  6
CONTINUOUS
 10
7.631153
 20
3.379560
  0
VERTEX
  8
FOREGROUND
  6
CONTINUOUS
 10
7.614950
 20
3.403486
  0
VERTEX
  8
FOREGROUND
  6
CONTINUOUS
 10
7.598353
 20
3.427205
  0
VERTEX
  8
FOREGROUND
  6
CONTINUOUS
 10
7.581365
 20
3.450716
  0
VERTEX
  8
FOREGROUND
  6
CONTINUOUS
 10
7.563990
 20
3.474021
  0
VERTEX
  8
FOREGROUND
  6
CONTINUOUS
 10
7.546231
 20
3.497118
  0
VERTEX
  8
FOREGROUND
  6
CONTINUOUS
 10
7.528092
 20
3.520008
  0
VERTEX
  8
FOREGROUND
  6
CONTINUOUS
 10
7.509575
 20
3.542691
  0
VERTEX
  8
FOREGROUND
  6
CONTINUOUS
 10
7.490685
 20
3.565166
  0
VERTEX
  8
FOREGROUND
  6
CONTINUOUS
 10
7.471425
 20
3.587435
  0
VERTEX
  8
FOREGROUND
  6
CONTINUOUS
 10
7.451798
 20
3.609497
  0
VERTEX
  8
FOREGROUND
  6
CONTINUOUS
 10
7.431808
 20
3.631351
  0
VERTEX
  8
FOREGROUND
  6
CONTINUOUS
 10
7.411458
 20
3.652998
  0
VERTEX
  8
FOREGROUND
  6
CONTINUOUS
 10
7.390751
 20
3.674438
  0
VERTEX
  8
FOREGROUND
  6
CONTINUOUS
 10
7.369691
 20
3.695671
  0
VERTEX
  8
FOREGROUND
  6
CONTINUOUS
 10
7.348282
 20
3.716697
  0
VERTEX
  8
FOREGROUND
  6
CONTINUOUS
 10
7.326526
 20
3.737516
  0
VERTEX
  8
FOREGROUND
  6
CONTINUOUS
 10
7.304428
 20
3.758127
  0
VERTEX
  8
FOREGROUND
  6
CONTINUOUS
 10
7.281990
 20
3.778532
  0
VERTEX
  8
FOREGROUND
  6
CONTINUOUS
 10
7.259216
 20
3.798729
  0
VERTEX
  8
FOREGROUND
  6
CONTINUOUS
 10
7.236110
 20
3.818719
  0
VERTEX
  8
FOREGROUND
  6
CONTINUOUS
 10
7.212675
 20
3.838502
  0
VERTEX
  8
FOREGROUND
  6
CONTINUOUS
 10
7.188914
 20
3.858078
  0
VERTEX
  8
FOREGROUND
  6
CONTINUOUS
 10
7.164831
 20
3.877447
  0
VERTEX
  8
FOREGROUND
  6
CONTINUOUS
 10
7.140429
 20
3.896608
  0
VERTEX
  8
FOREGROUND
  6
CONTINUOUS
 10
7.115712
 20
3.915563
  0
VERTEX
  8
FOREGROUND
  6
CONTINUOUS
 10
7.090682
 20
3.934310
  0
VERTEX
  8
FOREGROUND
  6
CONTINUOUS
 10
7.065344
 20
3.952850
  0
VERTEX
  8
FOREGROUND
  6
CONTINUOUS
 10
7.039701
 20
3.971183
  0
VERTEX
  8
FOREGROUND
  6
CONTINUOUS
 10
7.013757
 20
3.989309
  0
VERTEX
  8
FOREGROUND
  6
CONTINUOUS
 10
6.987514
 20
4.007228
  0
VERTEX
  8
FOREGROUND
  6
CONTINUOUS
 10
6.960976
 20
4.024940
  0
VERTEX
  8
FOREGROUND
  6
CONTINUOUS
 10
6.934147
 20
4.042444
  0
VERTEX
  8
FOREGROUND
  6
CONTINUOUS
 10
6.907030
 20
4.059742
  0
VERTEX
  8
FOREGROUND
  6
CONTINUOUS
 10
6.879628
 20
4.076832
  0
VERTEX
  8
FOREGROUND
  6
CONTINUOUS
 10
6.851945
 20
4.093715
  0
VERTEX
  8
FOREGROUND
  6
CONTINUOUS
 10
6.823984
 20
4.110391
  0
VERTEX
  8
FOREGROUND
  6
CONTINUOUS
 10
6.795749
 20
4.126860
  0
VERTEX
  8
FOREGROUND
  6
CONTINUOUS
 10
6.767244
 20
4.143121
  0
VERTEX
  8
FOREGROUND
  6
CONTINUOUS
 10
6.738470
 20
4.159176
  0
VERTEX
  8
FOREGROUND
  6
CONTINUOUS
 10
6.709433
 20
4.175023
  0
VERTEX
  8
FOREGROUND
  6
CONTINUOUS
 10
6.680135
 20
4.190664
  0
VERTEX
  8
FOREGROUND
  6
CONTINUOUS
 10
6.650580
 20
4.206097
  0
VERTEX
  8
FOREGROUND
  6
CONTINUOUS
 10
6.620771
 20
4.221323
  0
VERTEX
  8
FOREGROUND
  6
CONTINUOUS
 10
6.590712
 20
4.236342
  0
VERTEX
  8
FOREGROUND
  6
CONTINUOUS
 10
6.560406
 20
4.251153
  0
VERTEX
  8
FOREGROUND
  6
CONTINUOUS
 10
6.529857
 20
4.265758
  0
VERTEX
  8
FOREGROUND
  6
CONTINUOUS
 10
6.499067
 20
4.280155
  0
VERTEX
  8
FOREGROUND
  6
CONTINUOUS
 10
6.468041
 20
4.294346
  0
VERTEX
  8
FOREGROUND
  6
CONTINUOUS
 10
6.436781
 20
4.308329
  0
VERTEX
  8
FOREGROUND
  6
CONTINUOUS
 10
6.405292
 20
4.322105
  0
VERTEX
  8
FOREGROUND
  6
CONTINUOUS
 10
6.373577
 20
4.335674
  0
VERTEX
  8
FOREGROUND
  6
CONTINUOUS
 10
6.341638
 20
4.349036
  0
VERTEX
  8
FOREGROUND
  6
CONTINUOUS
 10
6.309480
 20
4.362190
  0
VERTEX
  8
FOREGROUND
  6
CONTINUOUS
 10
6.277106
 20
4.375138
  0
VERTEX
  8
FOREGROUND
  6
CONTINUOUS
 10
6.244520
 20
4.387878
  0
VERTEX
  8
FOREGROUND
  6
CONTINUOUS
 10
6.211724
 20
4.400411
  0
VERTEX
  8
FOREGROUND
  6
CONTINUOUS
 10
6.178722
 20
4.412737
  0
VERTEX
  8
FOREGROUND
  6
CONTINUOUS
 10
6.145518
 20
4.424856
  0
VERTEX
  8
FOREGROUND
  6
CONTINUOUS
 10
6.112115
 20
4.436768
  0
VERTEX
  8
FOREGROUND
  6
CONTINUOUS
 10
6.078516
 20
4.448473
  0
VERTEX
  8
FOREGROUND
  6
CONTINUOUS
 10
6.044725
 20
4.459970
  0
VERTEX
  8
FOREGROUND
  6
CONTINUOUS
 10
6.010746
 20
4.471260
  0
VERTEX
  8
FOREGROUND
  6
CONTINUOUS
 10
5.976581
 20
4.482344
  0
VERTEX
  8
FOREGROUND
  6
CONTINUOUS
 10
5.942235
 20
4.493220
  0
VERTEX
  8
FOREGROUND
  6
CONTINUOUS
 10
5.907710
 20
4.503889
  0
VERTEX
  8
FOREGROUND
  6
CONTINUOUS
 10
5.873010
 20
4.514350
  0
VERTEX
  8
FOREGROUND
  6
CONTINUOUS
 10
5.838138
 20
4.524605
  0
VERTEX
  8
FOREGROUND
  6
CONTINUOUS
 10
5.803099
 20
4.534653
  0
VERTEX
  8
FOREGROUND
  6
CONTINUOUS
 10
5.767894
 20
4.544493
  0
VERTEX
  8
FOREGROUND
  6
CONTINUOUS
 10
5.732529
 20
4.554126
  0
VERTEX
  8
FOREGROUND
  6
CONTINUOUS
 10
5.697005
 20
4.563552
  0
VERTEX
  8
FOREGROUND
  6
CONTINUOUS
 10
5.661327
 20
4.572771
  0
VERTEX
  8
FOREGROUND
  6
CONTINUOUS
 10
5.625498
 20
4.581783
  0
VERTEX
  8
FOREGROUND
  6
CONTINUOUS
 10
5.589522
 20
4.590588
  0
VERTEX
  8
FOREGROUND
  6
CONTINUOUS
 10
5.553401
 20
4.599185
  0
VERTEX
  8
FOREGROUND
  6
CONTINUOUS
 10
5.517140
 20
4.607576
  0
VERTEX
  8
FOREGROUND
  6
CONTINUOUS
 10
5.480741
 20
4.615759
  0
VERTEX
  8
FOREGROUND
  6
CONTINUOUS
 10
5.444208
 20
4.623735
  0
VERTEX
  8
FOREGROUND
  6
CONTINUOUS
 10
5.407545
 20
4.631504
  0
VERTEX
  8
FOREGROUND
  6
CONTINUOUS
 10
5.370755
 20
4.639066
  0
VERTEX
  8
FOREGROUND
  6
CONTINUOUS
 10
5.333841
 20
4.646420
  0
VERTEX
  8
FOREGROUND
  6
CONTINUOUS
 10
5.296807
 20
4.653568
  0
VERTEX
  8
FOREGROUND
  6
CONTINUOUS
 10
5.259656
 20
4.660508
  0
VERTEX
  8
FOREGROUND
  6
CONTINUOUS
 10
5.222392
 20
4.667242
  0
VERTEX
  8
FOREGROUND
  6
CONTINUOUS
 10
5.185018
 20
4.673768
  0
VERTEX
  8
FOREGROUND
  6
CONTINUOUS
 10
5.147538
 20
4.680087
  0
VERTEX
  8
FOREGROUND
  6
CONTINUOUS
 10
5.109954
 20
4.686199
  0
VERTEX
  8
FOREGROUND
  6
CONTINUOUS
 10
5.072271
 20
4.692103
  0
VERTEX
  8
FOREGROUND
  6
CONTINUOUS
 10
5.034491
 20
4.697801
  0
VERTEX
  8
FOREGROUND
  6
CONTINUOUS
 10
4.996619
 20
4.703291
  0
VERTEX
  8
FOREGROUND
  6
CONTINUOUS
 10
4.958657
 20
4.708574
  0
VERTEX
  8
FOREGROUND
  6
CONTINUOUS
 10
4.920609
 20
4.713651
  0
VERTEX
  8
FOREGROUND
  6
CONTINUOUS
 10
4.882479
 20
4.718519
  0
VERTEX
  8
FOREGROUND
  6
CONTINUOUS
 10
4.844270
 20
4.723181
  0
VERTEX
  8
FOREGROUND
  6
CONTINUOUS
 10
4.805985
 20
4.727636
  0
VERTEX
  8
FOREGROUND
  6
CONTINUOUS
 10
4.767628
 20
4.731884
  0
VERTEX
  8
FOREGROUND
  6
CONTINUOUS
 10
4.729202
 20
4.735924
  0
VERTEX
  8
FOREGROUND
  6
CONTINUOUS
 10
4.690710
 20
4.739757
  0
VERTEX
  8
FOREGROUND
  6
CONTINUOUS
 10
4.652157
 20
4.743383
  0
VERTEX
  8
FOREGROUND
  6
CONTINUOUS
 10
4.613545
 20
4.746802
  0
VERTEX
  8
FOREGROUND
  6
CONTINUOUS
 10
4.574878
 20
4.750014
  0
VERTEX
  8
FOREGROUND
  6
CONTINUOUS
 10
4.536159
 20
4.753019
  0
VERTEX
  8
FOREGROUND
  6
CONTINUOUS
 10
4.497392
 20
4.755816
  0
VERTEX
  8
FOREGROUND
  6
CONTINUOUS
 10
4.458580
 20
4.758407
  0
VERTEX
  8
FOREGROUND
  6
CONTINUOUS
 10
4.419726
 20
4.760790
  0
VERTEX
  8
FOREGROUND
  6
CONTINUOUS
 10
4.380835
 20
4.762966
  0
VERTEX
  8
FOREGROUND
  6
CONTINUOUS
 10
4.341909
 20
4.764935
  0
VERTEX
  8
FOREGROUND
  6
CONTINUOUS
 10
4.302952
 20
4.766697
  0
VERTEX
  8
FOREGROUND
  6
CONTINUOUS
 10
4.263967
 20
4.768252
  0
VERTEX
  8
FOREGROUND
  6
CONTINUOUS
 10
4.224957
 20
4.769599
  0
VERTEX
  8
FOREGROUND
  6
CONTINUOUS
 10
4.185927
 20
4.770739
  0
VERTEX
  8
FOREGROUND
  6
CONTINUOUS
 10
4.146880
 20
4.771673
  0
VERTEX
  8
FOREGROUND
  6
CONTINUOUS
 10
4.107818
 20
4.772399
  0
VERTEX
  8
FOREGROUND
  6
CONTINUOUS
 10
4.068746
 20
4.772918
  0
VERTEX
  8
FOREGROUND
  6
CONTINUOUS
 10
4.029666
 20
4.773229
  0
VERTEX
  8
FOREGROUND
  6
CONTINUOUS
 10
3.990583
 20
4.773334
  0
VERTEX
  8
FOREGROUND
  6
CONTINUOUS
 10
3.951500
 20
4.773232
  0
VERTEX
  8
FOREGROUND
  6
CONTINUOUS
 10
3.912419
 20
4.772922
  0
VERTEX
  8
FOREGROUND
  6
CONTINUOUS
 10
3.873345
 20
4.772405
  0
VERTEX
  8
FOREGROUND
  6
CONTINUOUS
 10
3.834281
 20
4.771681
  0
VERTEX
  8
FOREGROUND
  6
CONTINUOUS
 10
3.795230
 20
4.770750
  0
VERTEX
  8
FOREGROUND
  6
CONTINUOUS
 10
3.756196
 20
4.769612
  0
VERTEX
  8
FOREGROUND
  6
CONTINUOUS
 10
3.717183
 20
4.768267
  0
VERTEX
  8
FOREGROUND
  6
CONTINUOUS
 10
3.678193
 20
4.766714
  0
VERTEX
  8
FOREGROUND
  6
CONTINUOUS
 10
3.639230
 20
4.764955
  0
VERTEX
  8
FOREGROUND
  6
CONTINUOUS
 10
3.600297
 20
4.762988
  0
VERTEX
  8
FOREGROUND
  6
CONTINUOUS
 10
3.561398
 20
4.760814
  0
VERTEX
  8
FOREGROUND
  6
CONTINUOUS
 10
3.522537
 20
4.758433
  0
VERTEX
  8
FOREGROUND
  6
CONTINUOUS
 10
3.483716
 20
4.755844
  0
VERTEX
  8
FOREGROUND
  6
CONTINUOUS
 10
3.444940
 20
4.753049
  0
VERTEX
  8
FOREGROUND
  6
CONTINUOUS
 10
3.406211
 20
4.750047
  0
VERTEX
  8
FOREGROUND
  6
CONTINUOUS
 10
3.367533
 20
4.746837
  0
VERTEX
  8
FOREGROUND
  6
CONTINUOUS
 10
3.328910
 20
4.743420
  0
VERTEX
  8
FOREGROUND
  6
CONTINUOUS
 10
3.290345
 20
4.739796
  0
VERTEX
  8
FOREGROUND
  6
CONTINUOUS
 10
3.251840
 20
4.735965
  0
VERTEX
  8
FOREGROUND
  6
CONTINUOUS
 10
3.213401
 20
4.731927
  0
VERTEX
  8
FOREGROUND
  6
CONTINUOUS
 10
3.175030
 20
4.727681
  0
VERTEX
  8
FOREGROUND
  6
CONTINUOUS
 10
3.136730
 20
4.723229
  0
VERTEX
  8
FOREGROUND
  6
CONTINUOUS
 10
3.098505
 20
4.718569
  0
VERTEX
  8
FOREGROUND
  6
CONTINUOUS
 10
3.060359
 20
4.713702
  0
VERTEX
  8
FOREGROUND
  6
CONTINUOUS
 10
3.022294
 20
4.708628
  0
VERTEX
  8
FOREGROUND
  6
CONTINUOUS
 10
2.984315
 20
4.703347
  0
VERTEX
  8
FOREGROUND
  6
CONTINUOUS
 10
2.946425
 20
4.697859
  0
VERTEX
  8
FOREGROUND
  6
CONTINUOUS
 10
2.908626
 20
4.692163
  0
VERTEX
  8
FOREGROUND
  6
CONTINUOUS
 10
2.870923
 20
4.686261
  0
VERTEX
  8
FOREGROUND
  6
CONTINUOUS
 10
2.833319
 20
4.680151
  0
VERTEX
  8
FOREGROUND
  6
CONTINUOUS
 10
2.795818
 20
4.673834
  0
VERTEX
  8
FOREGROUND
  6
CONTINUOUS
 10
2.758422
 20
4.667310
  0
VERTEX
  8
FOREGROUND
  6
CONTINUOUS
 10
2.721136
 20
4.660579
  0
VERTEX
  8
FOREGROUND
  6
CONTINUOUS
 10
2.683962
 20
4.653641
  0
VERTEX
  8
FOREGROUND
  6
CONTINUOUS
 10
2.646904
 20
4.646495
  0
VERTEX
  8
FOREGROUND
  6
CONTINUOUS
 10
2.609966
 20
4.639142
  0
VERTEX
  8
FOREGROUND
  6
CONTINUOUS
 10
2.573151
 20
4.631583
  0
VERTEX
  8
FOREGROUND
  6
CONTINUOUS
 10
2.536462
 20
4.623816
  0
VERTEX
  8
FOREGROUND
  6
CONTINUOUS
 10
2.499903
 20
4.615842
  0
VERTEX
  8
FOREGROUND
  6
CONTINUOUS
 10
2.463477
 20
4.607660
  0
VERTEX
  8
FOREGROUND
  6
CONTINUOUS
 10
2.427188
 20
4.599272
  0
VERTEX
  8
FOREGROUND
  6
CONTINUOUS
 10
2.391038
 20
4.590677
  0
VERTEX
  8
FOREGROUND
  6
CONTINUOUS
 10
2.355033
 20
4.581874
  0
VERTEX
  8
FOREGROUND
  6
CONTINUOUS
 10
2.319174
 20
4.572864
  0
VERTEX
  8
FOREGROUND
  6
CONTINUOUS
 10
2.283465
 20
4.563647
  0
VERTEX
  8
FOREGROUND
  6
CONTINUOUS
 10
2.247910
 20
4.554223
  0
VERTEX
  8
FOREGROUND
  6
CONTINUOUS
 10
2.212513
 20
4.544592
  0
VERTEX
  8
FOREGROUND
  6
CONTINUOUS
 10
2.177276
 20
4.534753
  0
VERTEX
  8
FOREGROUND
  6
CONTINUOUS
 10
2.142203
 20
4.524708
  0
VERTEX
  8
FOREGROUND
  6
CONTINUOUS
 10
2.107297
 20
4.514455
  0
VERTEX
  8
FOREGROUND
  6
CONTINUOUS
 10
2.072563
 20
4.503995
  0
VERTEX
  8
FOREGROUND
  6
CONTINUOUS
 10
2.038003
 20
4.493328
  0
VERTEX
  8
FOREGROUND
  6
CONTINUOUS
 10
2.003620
 20
4.482454
  0
VERTEX
  8
FOREGROUND
  6
CONTINUOUS
 10
1.969419
 20
4.471373
  0
VERTEX
  8
FOREGROUND
  6
CONTINUOUS
 10
1.935402
 20
4.460084
  0
VERTEX
  8
FOREGROUND
  6
CONTINUOUS
 10
1.901573
 20
4.448589
  0
VERTEX
  8
FOREGROUND
  6
CONTINUOUS
 10
1.867935
 20
4.436886
  0
VERTEX
  8
FOREGROUND
  6
CONTINUOUS
 10
1.834493
 20
4.424976
  0
VERTEX
  8
FOREGROUND
  6
CONTINUOUS
 10
1.801248
 20
4.412859
  0
VERTEX
  8
FOREGROUND
  6
CONTINUOUS
 10
1.768206
 20
4.400535
  0
VERTEX
  8
FOREGROUND
  6
CONTINUOUS
 10
1.735368
 20
4.388003
  0
VERTEX
  8
FOREGROUND
  6
CONTINUOUS
 10
1.702739
 20
4.375265
  0
VERTEX
  8
FOREGROUND
  6
CONTINUOUS
 10
1.670322
 20
4.362319
  0
VERTEX
  8
FOREGROUND
  6
CONTINUOUS
 10
1.638121
 20
4.349166
  0
VERTEX
  8
FOREGROUND
  6
CONTINUOUS
 10
1.606138
 20
4.335806
  0
VERTEX
  8
FOREGROUND
  6
CONTINUOUS
 10
1.574378
 20
4.322239
  0
VERTEX
  8
FOREGROUND
  6
CONTINUOUS
 10
1.542843
 20
4.308465
  0
VERTEX
  8
FOREGROUND
  6
CONTINUOUS
 10
1.511537
 20
4.294483
  0
VERTEX
  8
FOREGROUND
  6
CONTINUOUS
 10
1.480464
 20
4.280295
  0
VERTEX
  8
FOREGROUND
  6
CONTINUOUS
 10
1.449626
 20
4.265899
  0
VERTEX
  8
FOREGROUND
  6
CONTINUOUS
 10
1.419028
 20
4.251296
  0
VERTEX
  8
FOREGROUND
  6
CONTINUOUS
 10
1.388673
 20
4.236486
  0
VERTEX
  8
FOREGROUND
  6
CONTINUOUS
 10
1.358564
 20
4.221469
  0
VERTEX
  8
FOREGROUND
  6
CONTINUOUS
 10
1.328705
 20
4.206245
  0
VERTEX
  8
FOREGROUND
  6
CONTINUOUS
 10
1.299099
 20
4.190813
  0
VERTEX
  8
FOREGROUND
  6
CONTINUOUS
 10
1.269749
 20
4.175175
  0
VERTEX
  8
FOREGROUND
  6
CONTINUOUS
 10
1.240659
 20
4.159329
  0
VERTEX
  8
FOREGROUND
  6
CONTINUOUS
 10
1.211833
 20
4.143276
  0
VERTEX
  8
FOREGROUND
  6
CONTINUOUS
 10
1.183273
 20
4.127016
  0
VERTEX
  8
FOREGROUND
  6
CONTINUOUS
 10
1.154983
 20
4.110549
  0
VERTEX
  8
FOREGROUND
  6
CONTINUOUS
 10
1.126967
 20
4.093874
  0
VERTEX
  8
FOREGROUND
  6
CONTINUOUS
 10
1.099229
 20
4.076993
  0
VERTEX
  8
FOREGROUND
  6
CONTINUOUS
 10
1.071770
 20
4.059904
  0
VERTEX
  8
FOREGROUND
  6
CONTINUOUS
 10
1.044596
 20
4.042608
  0
VERTEX
  8
FOREGROUND
  6
CONTINUOUS
 10
1.017708
 20
4.025105
  0
VERTEX
  8
FOREGROUND
  6
CONTINUOUS
 10
0.991112
 20
4.007395
  0
VERTEX
  8
FOREGROUND
  6
CONTINUOUS
 10
0.964809
 20
3.989477
  0
VERTEX
  8
FOREGROUND
  6
CONTINUOUS
 10
0.938805
 20
3.971353
  0
VERTEX
  8
FOREGROUND
  6
CONTINUOUS
 10
0.913101
 20
3.953021
  0
VERTEX
  8
FOREGROUND
  6
CONTINUOUS
 10
0.887701
 20
3.934483
  0
VERTEX
  8
FOREGROUND
  6
CONTINUOUS
 10
0.862610
 20
3.915737
  0
VERTEX
  8
FOREGROUND
  6
CONTINUOUS
 10
0.837830
 20
3.896784
  0
VERTEX
  8
FOREGROUND
  6
CONTINUOUS
 10
0.813364
 20
3.877623
  0
VERTEX
  8
FOREGROUND
  6
CONTINUOUS
 10
0.789217
 20
3.858256
  0
VERTEX
  8
FOREGROUND
  6
CONTINUOUS
 10
0.765391
 20
3.838681
  0
VERTEX
  8
FOREGROUND
  6
CONTINUOUS
 10
0.741890
 20
3.818900
  0
VERTEX
  8
FOREGROUND
  6
CONTINUOUS
 10
0.718718
 20
3.798911
  0
VERTEX
  8
FOREGROUND
  6
CONTINUOUS
 10
0.695877
 20
3.778715
  0
VERTEX
  8
FOREGROUND
  6
CONTINUOUS
 10
0.673372
 20
3.758312
  0
VERTEX
  8
FOREGROUND
  6
CONTINUOUS
 10
0.651205
 20
3.737701
  0
VERTEX
  8
FOREGROUND
  6
CONTINUOUS
 10
0.629380
 20
3.716884
  0
VERTEX
  8
FOREGROUND
  6
CONTINUOUS
 10
0.607901
 20
3.695859
  0
VERTEX
  8
FOREGROUND
  6
CONTINUOUS
 10
0.586771
 20
3.674627
  0
VERTEX
  8
FOREGROUND
  6
CONTINUOUS
 10
0.565993
 20
3.653188
  0
VERTEX
  8
FOREGROUND
  6
CONTINUOUS
 10
0.545571
 20
3.631542
  0
VERTEX
  8
FOREGROUND
  6
CONTINUOUS
 10
0.525508
 20
3.609689
  0
VERTEX
  8
FOREGROUND
  6
CONTINUOUS
 10
0.505808
 20
3.587629
  0
VERTEX
  8
FOREGROUND
  6
CONTINUOUS
 10
0.486474
 20
3.565361
  0
VERTEX
  8
FOREGROUND
  6
CONTINUOUS
 10
0.467510
 20
3.542886
  0
VERTEX
  8
FOREGROUND
  6
CONTINUOUS
 10
0.448918
 20
3.520204
  0
VERTEX
  8
FOREGROUND
  6
CONTINUOUS
 10
0.430703
 20
3.497315
  0
VERTEX
  8
FOREGROUND
  6
CONTINUOUS
 10
0.412867
 20
3.474219
  0
VERTEX
  8
FOREGROUND
  6
CONTINUOUS
 10
0.395415
 20
3.450916
  0
VERTEX
  8
FOREGROUND
  6
CONTINUOUS
 10
0.378349
 20
3.427405
  0
VERTEX
  8
FOREGROUND
  6
CONTINUOUS
 10
0.361673
 20
3.403688
  0
VERTEX
  8
FOREGROUND
  6
CONTINUOUS
 10
0.345391
 20
3.379763
  0
VERTEX
  8
FOREGROUND
  6
CONTINUOUS
 10
0.329506
 20
3.355631
  0
VERTEX
  8
FOREGROUND
  6
CONTINUOUS
 10
0.314021
 20
3.331292
  0
VERTEX
  8
FOREGROUND
  6
CONTINUOUS
 10
0.298939
 20
3.306746
  0
VERTEX
  8
FOREGROUND
  6
CONTINUOUS
 10
0.284265
 20
3.281992
  0
VERTEX
  8
FOREGROUND
  6
CONTINUOUS
 10
0.270002
 20
3.257032
  0
VERTEX
  8
FOREGROUND
  6
CONTINUOUS
 10
0.256152
 20
3.231864
  0
VERTEX
  8
FOREGROUND
  6
CONTINUOUS
 10
0.242720
 20
3.206489
  0
VERTEX
  8
FOREGROUND
  6
CONTINUOUS
 10
0.229709
 20
3.180907
  0
VERTEX
  8
FOREGROUND
  6
CONTINUOUS
 10
0.217122
 20
3.155118
  0
VERTEX
  8
FOREGROUND
  6
CONTINUOUS
 10
0.204963
 20
3.129121
  0
VERTEX
  8
FOREGROUND
  6
CONTINUOUS
 10
0.193235
 20
3.102918
  0
VERTEX
  8
FOREGROUND
  6
CONTINUOUS
 10
0.181941
 20
3.076507
  0
VERTEX
  8
FOREGROUND
  6
CONTINUOUS
 10
0.171085
 20
3.049889
  0
VERTEX
  8
FOREGROUND
  6
CONTINUOUS
 10
0.160671
 20
3.023064
  0
VERTEX
  8
FOREGROUND
  6
CONTINUOUS
 10
0.150702
 20
2.996032
  0
VERTEX
  8
FOREGROUND
  6
CONTINUOUS
 10
0.141181
 20
2.968793
  0
VERTEX
  8
FOREGROUND
  6
CONTINUOUS
 10
0.132111
 20
2.941346
  0
VERTEX
  8
FOREGROUND
  6
CONTINUOUS
 10
0.123497
 20
2.913693
  0
VERTEX
  8
FOREGROUND
  6
CONTINUOUS
 10
0.115341
 20
2.885832
  0
VERTEX
  8
FOREGROUND
  6
CONTINUOUS
 10
0.107648
 20
2.857764
  0
VERTEX
  8
FOREGROUND
  6
CONTINUOUS
 10
0.100419
 20
2.829489
  0
VERTEX
  8
FOREGROUND
  6
CONTINUOUS
 10
0.093659
 20
2.801006
  0
VERTEX
  8
FOREGROUND
  6
CONTINUOUS
 10
0.087372
 20
2.772317
  0
VERTEX
  8
FOREGROUND
  6
CONTINUOUS
 10
0.081560
 20
2.743420
  0
VERTEX
  8
FOREGROUND
  6
CONTINUOUS
 10
0.076228
 20
2.714317
  0
VERTEX
  8
FOREGROUND
  6
CONTINUOUS
 10
0.071377
 20
2.685006
  0
VERTEX
  8
FOREGROUND
  6
CONTINUOUS
 10
0.067013
 20
2.655488
  0
VERTEX
  8
FOREGROUND
  6
CONTINUOUS
 10
0.063138
 20
2.625762
  0
VERTEX
  8
FOREGROUND
  6
CONTINUOUS
 10
0.059756
 20
2.595830
  0
VERTEX
  8
FOREGROUND
  6
CONTINUOUS
 10
0.056870
 20
2.565691
  0
VERTEX
  8
FOREGROUND
  6
CONTINUOUS
 10
0.054484
 20
2.535344
  0
VERTEX
  8
FOREGROUND
  6
CONTINUOUS
 10
0.052600
 20
2.504790
  0
VERTEX
  8
FOREGROUND
  6
CONTINUOUS
 10
0.051224
 20
2.474029
  0
VERTEX
  8
FOREGROUND
  6
CONTINUOUS
 10
0.050357
 20
2.443061
  0
VERTEX
  8
FOREGROUND
  6
CONTINUOUS
 10
0.050003
 20
2.411885
  0
VERTEX
  8
FOREGROUND
  6
CONTINUOUS
 10
0.050003
 20
2.411885
  0
VERTEX
  8
FOREGROUND
  6
CONTINUOUS
 10
0.050249
 20
2.380710
  0
VERTEX
  8
FOREGROUND
  6
CONTINUOUS
 10
0.051008
 20
2.349742
  0
VERTEX
  8
FOREGROUND
  6
CONTINUOUS
 10
0.052278
 20
2.318981
  0
VERTEX
  8
FOREGROUND
  6
CONTINUOUS
 10
0.054055
 20
2.288427
  0
VERTEX
  8
FOREGROUND
  6
CONTINUOUS
 10
0.056336
 20
2.258080
  0
VERTEX
  8
FOREGROUND
  6
CONTINUOUS
 10
0.059118
 20
2.227940
  0
VERTEX
  8
FOREGROUND
  6
CONTINUOUS
 10
0.062396
 20
2.198007
  0
VERTEX
  8
FOREGROUND
  6
CONTINUOUS
 10
0.066168
 20
2.168281
  0
VERTEX
  8
FOREGROUND
  6
CONTINUOUS
 10
0.070429
 20
2.138763
  0
VERTEX
  8
FOREGROUND
  6
CONTINUOUS
 10
0.075178
 20
2.109451
  0
VERTEX
  8
FOREGROUND
  6
CONTINUOUS
 10
0.080409
 20
2.080347
  0
VERTEX
  8
FOREGROUND
  6
CONTINUOUS
 10
0.086121
 20
2.051450
  0
VERTEX
  8
FOREGROUND
  6
CONTINUOUS
 10
0.092309
 20
2.022760
  0
VERTEX
  8
FOREGROUND
  6
CONTINUOUS
 10
0.098970
 20
1.994277
  0
VERTEX
  8
FOREGROUND
  6
CONTINUOUS
 10
0.106100
 20
1.966001
  0
VERTEX
  8
FOREGROUND
  6
CONTINUOUS
 10
0.113696
 20
1.937932
  0
VERTEX
  8
FOREGROUND
  6
CONTINUOUS
 10
0.121755
 20
1.910070
  0
VERTEX
  8
FOREGROUND
  6
CONTINUOUS
 10
0.130274
 20
1.882416
  0
VERTEX
  8
FOREGROUND
  6
CONTINUOUS
 10
0.139248
 20
1.854968
  0
VERTEX
  8
FOREGROUND
  6
CONTINUOUS
 10
0.148674
 20
1.827728
  0
VERTEX
  8
FOREGROUND
  6
CONTINUOUS
 10
0.158550
 20
1.800695
  0
VERTEX
  8
FOREGROUND
  6
CONTINUOUS
 10
0.168871
 20
1.773868
  0
VERTEX
  8
FOREGROUND
  6
CONTINUOUS
 10
0.179634
 20
1.747249
  0
VERTEX
  8
FOREGROUND
  6
CONTINUOUS
 10
0.190836
 20
1.720837
  0
VERTEX
  8
FOREGROUND
  6
CONTINUOUS
 10
0.202473
 20
1.694633
  0
VERTEX
  8
FOREGROUND
  6
CONTINUOUS
 10
0.214542
 20
1.668635
  0
VERTEX
  8
FOREGROUND
  6
CONTINUOUS
 10
0.227040
 20
1.642844
  0
VERTEX
  8
FOREGROUND
  6
CONTINUOUS
 10
0.239962
 20
1.617261
  0
VERTEX
  8
FOREGROUND
  6
CONTINUOUS
 10
0.253306
 20
1.591884
  0
VERTEX
  8
FOREGROUND
  6
CONTINUOUS
 10
0.267068
 20
1.566715
  0
VERTEX
  8
FOREGROUND
  6
CONTINUOUS
 10
0.281245
 20
1.541753
  0
VERTEX
  8
FOREGROUND
  6
CONTINUOUS
 10
0.295833
 20
1.516998
  0
VERTEX
  8
FOREGROUND
  6
CONTINUOUS
 10
0.310829
 20
1.492450
  0
VERTEX
  8
FOREGROUND
  6
CONTINUOUS
 10
0.326230
 20
1.468109
  0
VERTEX
  8
FOREGROUND
  6
CONTINUOUS
 10
0.342031
 20
1.443975
  0
VERTEX
  8
FOREGROUND
  6
CONTINUOUS
 10
0.358231
 20
1.420049
  0
VERTEX
  8
FOREGROUND
  6
CONTINUOUS
 10
0.374824
 20
1.396329
  0
VERTEX
  8
FOREGROUND
  6
CONTINUOUS
 10
0.391808
 20
1.372817
  0
VERTEX
  8
FOREGROUND
  6
CONTINUOUS
 10
0.409180
 20
1.349512
  0
VERTEX
  8
FOREGROUND
  6
CONTINUOUS
 10
0.426935
 20
1.326413
  0
VERTEX
  8
FOREGROUND
  6
CONTINUOUS
 10
0.445071
 20
1.303522
  0
VERTEX
  8
FOREGROUND
  6
CONTINUOUS
 10
0.463584
 20
1.280838
  0
VERTEX
  8
FOREGROUND
  6
CONTINUOUS
 10
0.482470
 20
1.258362
  0
VERTEX
  8
FOREGROUND
  6
CONTINUOUS
 10
0.501727
 20
1.236092
  0
VERTEX
  8
FOREGROUND
  6
CONTINUOUS
 10
0.521351
 20
1.214029
  0
VERTEX
  8
FOREGROUND
  6
CONTINUOUS
 10
0.541337
 20
1.192174
  0
VERTEX
  8
FOREGROUND
  6
CONTINUOUS
 10
0.561684
 20
1.170525
  0
VERTEX
  8
FOREGROUND
  6
CONTINUOUS
 10
0.582388
 20
1.149084
  0
VERTEX
  8
FOREGROUND
  6
CONTINUOUS
 10
0.603444
 20
1.127850
  0
VERTEX
  8
FOREGROUND
  6
CONTINUOUS
 10
0.624850
 20
1.106823
  0
VERTEX
  8
FOREGROUND
  6
CONTINUOUS
 10
0.646603
 20
1.086003
  0
VERTEX
  8
FOREGROUND
  6
CONTINUOUS
 10
0.668698
 20
1.065390
  0
VERTEX
  8
FOREGROUND
  6
CONTINUOUS
 10
0.691132
 20
1.044985
  0
VERTEX
  8
FOREGROUND
  6
CONTINUOUS
 10
0.713903
 20
1.024786
  0
VERTEX
  8
FOREGROUND
  6
CONTINUOUS
 10
0.737006
 20
1.004795
  0
VERTEX
  8
FOREGROUND
  6
CONTINUOUS
 10
0.760438
 20
0.985010
  0
VERTEX
  8
FOREGROUND
  6
CONTINUOUS
 10
0.784196
 20
0.965433
  0
VERTEX
  8
FOREGROUND
  6
CONTINUOUS
 10
0.808276
 20
0.946063
  0
VERTEX
  8
FOREGROUND
  6
CONTINUOUS
 10
0.832675
 20
0.926900
  0
VERTEX
  8
FOREGROUND
  6
CONTINUOUS
 10
0.857390
 20
0.907944
  0
VERTEX
  8
FOREGROUND
  6
CONTINUOUS
 10
0.882416
 20
0.889196
  0
VERTEX
  8
FOREGROUND
  6
CONTINUOUS
 10
0.907751
 20
0.870654
  0
VERTEX
  8
FOREGROUND
  6
CONTINUOUS
 10
0.933391
 20
0.852319
  0
VERTEX
  8
FOREGROUND
  6
CONTINUOUS
 10
0.959333
 20
0.834192
  0
VERTEX
  8
FOREGROUND
  6
CONTINUOUS
 10
0.985573
 20
0.816272
  0
VERTEX
  8
FOREGROUND
  6
CONTINUOUS
 10
1.012108
 20
0.798559
  0
VERTEX
  8
FOREGROUND
  6
CONTINUOUS
 10
1.038935
 20
0.781053
  0
VERTEX
  8
FOREGROUND
  6
CONTINUOUS
 10
1.066049
 20
0.763754
  0
VERTEX
  8
FOREGROUND
  6
CONTINUOUS
 10
1.093449
 20
0.746662
  0
VERTEX
  8
FOREGROUND
  6
CONTINUOUS
 10
1.121129
 20
0.729777
  0
VERTEX
  8
FOREGROUND
  6
CONTINUOUS
 10
1.149087
 20
0.713100
  0
VERTEX
  8
FOREGROUND
  6
CONTINUOUS
 10
1.177319
 20
0.696630
  0
VERTEX
  8
FOREGROUND
  6
CONTINUOUS
 10
1.205823
 20
0.680366
  0
VERTEX
  8
FOREGROUND
  6
CONTINUOUS
 10
1.234593
 20
0.664310
  0
VERTEX
  8
FOREGROUND
  6
CONTINUOUS
 10
1.263628
 20
0.648461
  0
VERTEX
  8
FOREGROUND
  6
CONTINUOUS
 10
1.292924
 20
0.632819
  0
VERTEX
  8
FOREGROUND
  6
CONTINUOUS
 10
1.322476
 20
0.617384
  0
VERTEX
  8
FOREGROUND
  6
CONTINUOUS
 10
1.352283
 20
0.602157
  0
VERTEX
  8
FOREGROUND
  6
CONTINUOUS
 10
1.382340
 20
0.587136
  0
VERTEX
  8
FOREGROUND
  6
CONTINUOUS
 10
1.412643
 20
0.572323
  0
VERTEX
  8
FOREGROUND
  6
CONTINUOUS
 10
1.443191
 20
0.557717
  0
VERTEX
  8
FOREGROUND
  6
CONTINUOUS
 10
1.473978
 20
0.543317
  0
VERTEX
  8
FOREGROUND
  6
CONTINUOUS
 10
1.505002
 20
0.529125
  0
VERTEX
  8
FOREGROUND
  6
CONTINUOUS
 10
1.536259
 20
0.515140
  0
VERTEX
  8
FOREGROUND
  6
CONTINUOUS
 10
1.567746
 20
0.501363
  0
VERTEX
  8
FOREGROUND
  6
CONTINUOUS
 10
1.599460
 20
0.487792
  0
VERTEX
  8
FOREGROUND
  6
CONTINUOUS
 10
1.631396
 20
0.474429
  0
VERTEX
  8
FOREGROUND
  6
CONTINUOUS
 10
1.663552
 20
0.461272
  0
VERTEX
  8
FOREGROUND
  6
CONTINUOUS
 10
1.695924
 20
0.448323
  0
VERTEX
  8
FOREGROUND
  6
CONTINUOUS
 10
1.728509
 20
0.435581
  0
VERTEX
  8
FOREGROUND
  6
CONTINUOUS
 10
1.761303
 20
0.423046
  0
VERTEX
  8
FOREGROUND
  6
CONTINUOUS
 10
1.794303
 20
0.410718
  0
VERTEX
  8
FOREGROUND
  6
CONTINUOUS
 10
1.827505
 20
0.398597
  0
VERTEX
  8
FOREGROUND
  6
CONTINUOUS
 10
1.860906
 20
0.386683
  0
VERTEX
  8
FOREGROUND
  6
CONTINUOUS
 10
1.894503
 20
0.374977
  0
VERTEX
  8
FOREGROUND
  6
CONTINUOUS
 10
1.928292
 20
0.363478
  0
VERTEX
  8
FOREGROUND
  6
CONTINUOUS
 10
1.962269
 20
0.352185
  0
VERTEX
  8
FOREGROUND
  6
CONTINUOUS
 10
1.996432
 20
0.341100
  0
VERTEX
  8
FOREGROUND
  6
CONTINUOUS
 10
2.030777
 20
0.330222
  0
VERTEX
  8
FOREGROUND
  6
CONTINUOUS
 10
2.065301
 20
0.319551
  0
VERTEX
  8
FOREGROUND
  6
CONTINUOUS
 10
2.099999
 20
0.309088
  0
VERTEX
  8
FOREGROUND
  6
CONTINUOUS
 10
2.134869
 20
0.298831
  0
VERTEX
  8
FOREGROUND
  6
CONTINUOUS
 10
2.169907
 20
0.288782
  0
VERTEX
  8
FOREGROUND
  6
CONTINUOUS
 10
2.205110
 20
0.278939
  0
VERTEX
  8
FOREGROUND
  6
CONTINUOUS
 10
2.240474
 20
0.269304
  0
VERTEX
  8
FOREGROUND
  6
CONTINUOUS
 10
2.275996
 20
0.259876
  0
VERTEX
  8
FOREGROUND
  6
CONTINUOUS
 10
2.311672
 20
0.250655
  0
VERTEX
  8
FOREGROUND
  6
CONTINUOUS
 10
2.347500
 20
0.241641
  0
VERTEX
  8
FOREGROUND
  6
CONTINUOUS
 10
2.383475
 20
0.232835
  0
VERTEX
  8
FOREGROUND
  6
CONTINUOUS
 10
2.419594
 20
0.224235
  0
VERTEX
  8
FOREGROUND
  6
CONTINUOUS
 10
2.455855
 20
0.215843
  0
VERTEX
  8
FOREGROUND
  6
CONTINUOUS
 10
2.492252
 20
0.207657
  0
VERTEX
  8
FOREGROUND
  6
CONTINUOUS
 10
2.528784
 20
0.199679
  0
VERTEX
  8
FOREGROUND
  6
CONTINUOUS
 10
2.565445
 20
0.191908
  0
VERTEX
  8
FOREGROUND
  6
CONTINUOUS
 10
2.602235
 20
0.184344
  0
VERTEX
  8
FOREGROUND
  6
CONTINUOUS
 10
2.639147
 20
0.176988
  0
VERTEX
  8
FOREGROUND
  6
CONTINUOUS
 10
2.676180
 20
0.169838
  0
VERTEX
  8
FOREGROUND
  6
CONTINUOUS
 10
2.713330
 20
0.162896
  0
VERTEX
  8
FOREGROUND
  6
CONTINUOUS
 10
2.750593
 20
0.156160
  0
VERTEX
  8
FOREGROUND
  6
CONTINUOUS
 10
2.787966
 20
0.149632
  0
VERTEX
  8
FOREGROUND
  6
CONTINUOUS
 10
2.825446
 20
0.143311
  0
VERTEX
  8
FOREGROUND
  6
CONTINUOUS
 10
2.863028
 20
0.137197
  0
VERTEX
  8
FOREGROUND
  6
CONTINUOUS
 10
2.900711
 20
0.131290
  0
VERTEX
  8
FOREGROUND
  6
CONTINUOUS
 10
2.938489
 20
0.125591
  0
VERTEX
  8
FOREGROUND
  6
CONTINUOUS
 10
2.976361
 20
0.120098
  0
VERTEX
  8
FOREGROUND
  6
CONTINUOUS
 10
3.014322
 20
0.114813
  0
VERTEX
  8
FOREGROUND
  6
CONTINUOUS
 10
3.052368
 20
0.109735
  0
VERTEX
  8
FOREGROUND
  6
CONTINUOUS
 10
3.090498
 20
0.104863
  0
VERTEX
  8
FOREGROUND
  6
CONTINUOUS
 10
3.128706
 20
0.100200
  0
VERTEX
  8
FOREGROUND
  6
CONTINUOUS
 10
3.166991
 20
0.095743
  0
VERTEX
  8
FOREGROUND
  6
CONTINUOUS
 10
3.205347
 20
0.091493
  0
VERTEX
  8
FOREGROUND
  6
CONTINUOUS
 10
3.243773
 20
0.087450
  0
VERTEX
  8
FOREGROUND
  6
CONTINUOUS
 10
3.282264
 20
0.083615
  0
VERTEX
  8
FOREGROUND
  6
CONTINUOUS
 10
3.320816
 20
0.079987
  0
VERTEX
  8
FOREGROUND
  6
CONTINUOUS
 10
3.359428
 20
0.076566
  0
VERTEX
  8
FOREGROUND
  6
CONTINUOUS
 10
3.398095
 20
0.073352
  0
VERTEX
  8
FOREGROUND
  6
CONTINUOUS
 10
3.436813
 20
0.070345
  0
VERTEX
  8
FOREGROUND
  6
CONTINUOUS
 10
3.475580
 20
0.067545
  0
VERTEX
  8
FOREGROUND
  6
CONTINUOUS
 10
3.514391
 20
0.064953
  0
VERTEX
  8
FOREGROUND
  6
CONTINUOUS
 10
3.553244
 20
0.062567
  0
VERTEX
  8
FOREGROUND
  6
CONTINUOUS
 10
3.592135
 20
0.060389
  0
VERTEX
  8
FOREGROUND
  6
CONTINUOUS
 10
3.631061
 20
0.058418
  0
VERTEX
  8
FOREGROUND
  6
CONTINUOUS
 10
3.670018
 20
0.056654
  0
VERTEX
  8
FOREGROUND
  6
CONTINUOUS
 10
3.709003
 20
0.055097
  0
VERTEX
  8
FOREGROUND
  6
CONTINUOUS
 10
3.748012
 20
0.053747
  0
VERTEX
  8
FOREGROUND
  6
CONTINUOUS
 10
3.787042
 20
0.052605
  0
VERTEX
  8
FOREGROUND
  6
CONTINUOUS
 10
3.826089
 20
0.051669
  0
VERTEX
  8
FOREGROUND
  6
CONTINUOUS
 10
3.865151
 20
0.050941
  0
VERTEX
  8
FOREGROUND
  6
CONTINUOUS
 10
3.904223
 20
0.050420
  0
VERTEX
  8
FOREGROUND
  6
CONTINUOUS
 10
3.943302
 20
0.050106
  0
VERTEX
  8
FOREGROUND
  6
CONTINUOUS
 10
3.982386
 20
0.049999
  0
VERTEX
  8
FOREGROUND
  6
CONTINUOUS
 10
4.021469
 20
0.050100
  0
VERTEX
  8
FOREGROUND
  6
CONTINUOUS
 10
4.060550
 20
0.050407
  0
VERTEX
  8
FOREGROUND
  6
CONTINUOUS
 10
4.099624
 20
0.050922
  0
VERTEX
  8
FOREGROUND
  6
CONTINUOUS
 10
4.138688
 20
0.051643
  0
VERTEX
  8
FOREGROUND
  6
CONTINUOUS
 10
4.177739
 20
0.052572
  0
VERTEX
  8
FOREGROUND
  6
CONTINUOUS
 10
4.216773
 20
0.053708
  0
VERTEX
  8
FOREGROUND
  6
CONTINUOUS
 10
4.255787
 20
0.055051
  0
VERTEX
  8
FOREGROUND
  6
CONTINUOUS
 10
4.294777
 20
0.056602
  0
VERTEX
  8
FOREGROUND
  6
CONTINUOUS
 10
4.333740
 20
0.058359
  0
VERTEX
  8
FOREGROUND
  6
CONTINUOUS
 10
4.372673
 20
0.060324
  0
VERTEX
  8
FOREGROUND
  6
CONTINUOUS
 10
4.411572
 20
0.062496
  0
VERTEX
  8
FOREGROUND
  6
CONTINUOUS
 10
4.450434
 20
0.064875
  0
VERTEX
  8
FOREGROUND
  6
CONTINUOUS
 10
4.489255
 20
0.067461
  0
VERTEX
  8
FOREGROUND
  6
CONTINUOUS
 10
4.528032
 20
0.070254
  0
VERTEX
  8
FOREGROUND
  6
CONTINUOUS
 10
4.566761
 20
0.073254
  0
VERTEX
  8
FOREGROUND
  6
CONTINUOUS
 10
4.605439
 20
0.076462
  0
VERTEX
  8
FOREGROUND
  6
CONTINUOUS
 10
4.644063
 20
0.079877
  0
VERTEX
  8
FOREGROUND
  6
CONTINUOUS
 10
4.682629
 20
0.083498
  0
VERTEX
  8
FOREGROUND
  6
CONTINUOUS
 10
4.721134
 20
0.087327
  0
VERTEX
  8
FOREGROUND
  6
CONTINUOUS
 10
4.759574
 20
0.091363
  0
VERTEX
  8
FOREGROUND
  6
CONTINUOUS
 10
4.797946
 20
0.095607
  0
VERTEX
  8
FOREGROUND
  6
CONTINUOUS
 10
4.836246
 20
0.100057
  0
VERTEX
  8
FOREGROUND
  6
CONTINUOUS
 10
4.874472
 20
0.104715
  0
VERTEX
  8
FOREGROUND
  6
CONTINUOUS
 10
4.912619
 20
0.109579
  0
VERTEX
  8
FOREGROUND
  6
CONTINUOUS
 10
4.950684
 20
0.114651
  0
VERTEX
  8
FOREGROUND
  6
CONTINUOUS
 10
4.988664
 20
0.119930
  0
VERTEX
  8
FOREGROUND
  6
CONTINUOUS
 10
5.026556
 20
0.125417
  0
VERTEX
  8
FOREGROUND
  6
CONTINUOUS
 10
5.064355
 20
0.131110
  0
VERTEX
  8
FOREGROUND
  6
CONTINUOUS
 10
5.102059
 20
0.137010
  0
VERTEX
  8
FOREGROUND
  6
CONTINUOUS
 10
5.139663
 20
0.143118
  0
VERTEX
  8
FOREGROUND
  6
CONTINUOUS
 10
5.177166
 20
0.149433
  0
VERTEX
  8
FOREGROUND
  6
CONTINUOUS
 10
5.214563
 20
0.155955
  0
VERTEX
  8
FOREGROUND
  6
CONTINUOUS
 10
5.251850
 20
0.162684
  0
VERTEX
  8
FOREGROUND
  6
CONTINUOUS
 10
5.289025
 20
0.169620
  0
VERTEX
  8
FOREGROUND
  6
CONTINUOUS
 10
5.326084
 20
0.176764
  0
VERTEX
  8
FOREGROUND
  6
CONTINUOUS
 10
5.363023
 20
0.184114
  0
VERTEX
  8
FOREGROUND
  6
CONTINUOUS
 10
5.399840
 20
0.191672
  0
VERTEX
  8
FOREGROUND
  6
CONTINUOUS
 10
5.436530
 20
0.199437
  0
VERTEX
  8
FOREGROUND
  6
CONTINUOUS
 10
5.473090
 20
0.207409
  0
VERTEX
  8
FOREGROUND
  6
CONTINUOUS
 10
5.509517
 20
0.215588
  0
VERTEX
  8
FOREGROUND
  6
CONTINUOUS
 10
5.545808
 20
0.223974
  0
VERTEX
  8
FOREGROUND
  6
CONTINUOUS
 10
5.581958
 20
0.232568
  0
VERTEX
  8
FOREGROUND
  6
CONTINUOUS
 10
5.617965
 20
0.241369
  0
VERTEX
  8
FOREGROUND
  6
CONTINUOUS
 10
5.653826
 20
0.250376
  0
VERTEX
  8
FOREGROUND
  6
CONTINUOUS
 10
5.689536
 20
0.259591
  0
VERTEX
  8
FOREGROUND
  6
CONTINUOUS
 10
5.725092
 20
0.269013
  0
VERTEX
  8
FOREGROUND
  6
CONTINUOUS
 10
5.760491
 20
0.278643
  0
VERTEX
  8
FOREGROUND
  6
CONTINUOUS
 10
5.795729
 20
0.288479
  0
VERTEX
  8
FOREGROUND
  6
CONTINUOUS
 10
5.830804
 20
0.298523
  0
VERTEX
  8
FOREGROUND
  6
CONTINUOUS
 10
5.865711
 20
0.308774
  0
VERTEX
  8
FOREGROUND
  6
CONTINUOUS
 10
5.900447
 20
0.319232
  0
VERTEX
  8
FOREGROUND
  6
CONTINUOUS
 10
5.935009
 20
0.329897
  0
VERTEX
  8
FOREGROUND
  6
CONTINUOUS
 10
5.969393
 20
0.340769
  0
VERTEX
  8
FOREGROUND
  6
CONTINUOUS
 10
6.003597
 20
0.351848
  0
VERTEX
  8
FOREGROUND
  6
CONTINUOUS
 10
6.037615
 20
0.363135
  0
VERTEX
  8
FOREGROUND
  6
CONTINUOUS
 10
6.071446
 20
0.374629
  0
VERTEX
  8
FOREGROUND
  6
CONTINUOUS
 10
6.105085
 20
0.386330
  0
VERTEX
  8
FOREGROUND
  6
CONTINUOUS
 10
6.138529
 20
0.398238
  0
VERTEX
  8
FOREGROUND
  6
CONTINUOUS
 10
6.171776
 20
0.410353
  0
VERTEX
  8
FOREGROUND
  6
CONTINUOUS
 10
6.204820
 20
0.422675
  0
VERTEX
  8
FOREGROUND
  6
CONTINUOUS
 10
6.237660
 20
0.435205
  0
VERTEX
  8
FOREGROUND
  6
CONTINUOUS
 10
6.270290
 20
0.447941
  0
VERTEX
  8
FOREGROUND
  6
CONTINUOUS
 10
6.302709
 20
0.460885
  0
VERTEX
  8
FOREGROUND
  6
CONTINUOUS
 10
6.334913
 20
0.474036
  0
VERTEX
  8
FOREGROUND
  6
CONTINUOUS
 10
6.366898
 20
0.487395
  0
VERTEX
  8
FOREGROUND
  6
CONTINUOUS
 10
6.398661
 20
0.500960
  0
VERTEX
  8
FOREGROUND
  6
CONTINUOUS
 10
6.430197
 20
0.514732
  0
VERTEX
  8
FOREGROUND
  6
CONTINUOUS
 10
6.461505
 20
0.528712
  0
VERTEX
  8
FOREGROUND
  6
CONTINUOUS
 10
6.492581
 20
0.542899
  0
VERTEX
  8
FOREGROUND
  6
CONTINUOUS
 10
6.523420
 20
0.557293
  0
VERTEX
  8
FOREGROUND
  6
CONTINUOUS
 10
6.554021
 20
0.571894
  0
VERTEX
  8
FOREGROUND
  6
CONTINUOUS
 10
6.584378
 20
0.586703
  0
VERTEX
  8
FOREGROUND
  6
CONTINUOUS
 10
6.614489
 20
0.601718
  0
VERTEX
  8
FOREGROUND
  6
CONTINUOUS
 10
6.644351
 20
0.616941
  0
VERTEX
  8
FOREGROUND
  6
CONTINUOUS
 10
6.673960
 20
0.632371
  0
VERTEX
  8
FOREGROUND
  6
CONTINUOUS
 10
6.703312
 20
0.648008
  0
VERTEX
  8
FOREGROUND
  6
CONTINUOUS
 10
6.732404
 20
0.663852
  0
VERTEX
  8
FOREGROUND
  6
CONTINUOUS
 10
6.761233
 20
0.679903
  0
VERTEX
  8
FOREGROUND
  6
CONTINUOUS
 10
6.789795
 20
0.696162
  0
VERTEX
  8
FOREGROUND
  6
CONTINUOUS
 10
6.818087
 20
0.712627
  0
VERTEX
  8
FOREGROUND
  6
CONTINUOUS
 10
6.846106
 20
0.729300
  0
VERTEX
  8
FOREGROUND
  6
CONTINUOUS
 10
6.873847
 20
0.746180
  0
VERTEX
  8
FOREGROUND
  6
CONTINUOUS
 10
6.901308
 20
0.763267
  0
VERTEX
  8
FOREGROUND
  6
CONTINUOUS
 10
6.928486
 20
0.780562
  0
VERTEX
  8
FOREGROUND
  6
CONTINUOUS
 10
6.955376
 20
0.798063
  0
VERTEX
  8
FOREGROUND
  6
CONTINUOUS
 10
6.981975
 20
0.815772
  0
VERTEX
  8
FOREGROUND
  6
CONTINUOUS
 10
7.008280
 20
0.833688
  0
VERTEX
  8
FOREGROUND
  6
CONTINUOUS
 10
7.034288
 20
0.851811
  0
VERTEX
  8
FOREGROUND
  6
CONTINUOUS
 10
7.059994
 20
0.870141
  0
VERTEX
  8
FOREGROUND
  6
CONTINUOUS
 10
7.085396
 20
0.888678
  0
VERTEX
  8
FOREGROUND
  6
CONTINUOUS
 10
7.110491
 20
0.907423
  0
VERTEX
  8
FOREGROUND
  6
CONTINUOUS
 10
7.135274
 20
0.926375
  0
VERTEX
  8
FOREGROUND
  6
CONTINUOUS
 10
7.159742
 20
0.945534
  0
VERTEX
  8
FOREGROUND
  6
CONTINUOUS
 10
7.183893
 20
0.964900
  0
VERTEX
  8
FOREGROUND
  6
CONTINUOUS
 10
7.207722
 20
0.984473
  0
VERTEX
  8
FOREGROUND
  6
CONTINUOUS
 10
7.231226
 20
1.004253
  0
VERTEX
  8
FOREGROUND
  6
CONTINUOUS
 10
7.254401
 20
1.024241
  0
VERTEX
  8
FOREGROUND
  6
CONTINUOUS
 10
7.277245
 20
1.044436
  0
VERTEX
  8
FOREGROUND
  6
CONTINUOUS
 10
7.299754
 20
1.064837
  0
VERTEX
  8
FOREGROUND
  6
CONTINUOUS
 10
7.321923
 20
1.085447
  0
VERTEX
  8
FOREGROUND
  6
CONTINUOUS
 10
7.343751
 20
1.106263
  0
VERTEX
  8
FOREGROUND
  6
CONTINUOUS
 10
7.365234
 20
1.127286
  0
VERTEX
  8
FOREGROUND
  6
CONTINUOUS
 10
7.386367
 20
1.148517
  0
VERTEX
  8
FOREGROUND
  6
CONTINUOUS
 10
7.407148
 20
1.169955
  0
VERTEX
  8
FOREGROUND
  6
CONTINUOUS
 10
7.427574
 20
1.191600
  0
VERTEX
  8
FOREGROUND
  6
CONTINUOUS
 10
7.447640
 20
1.213452
  0
VERTEX
  8
FOREGROUND
  6
CONTINUOUS
 10
7.467343
 20
1.235511
  0
VERTEX
  8
FOREGROUND
  6
CONTINUOUS
 10
7.486681
 20
1.257778
  0
VERTEX
  8
FOREGROUND
  6
CONTINUOUS
 10
7.505649
 20
1.280251
  0
VERTEX
  8
FOREGROUND
  6
CONTINUOUS
 10
7.524244
 20
1.302932
  0
VERTEX
  8
FOREGROUND
  6
CONTINUOUS
 10
7.542463
 20
1.325820
  0
VERTEX
  8
FOREGROUND
  6
CONTINUOUS
 10
7.560302
 20
1.348915
  0
VERTEX
  8
FOREGROUND
  6
CONTINUOUS
 10
7.577758
 20
1.372218
  0
VERTEX
  8
FOREGROUND
  6
CONTINUOUS
 10
7.594827
 20
1.395727
  0
VERTEX
  8
FOREGROUND
  6
CONTINUOUS
 10
7.611506
 20
1.419444
  0
VERTEX
  8
FOREGROUND
  6
CONTINUOUS
 10
7.627792
 20
1.443368
  0
VERTEX
  8
FOREGROUND
  6
CONTINUOUS
 10
7.643681
 20
1.467499
  0
VERTEX
  8
FOREGROUND
  6
CONTINUOUS
 10
7.659170
 20
1.491837
  0
VERTEX
  8
FOREGROUND
  6
CONTINUOUS
 10
7.674255
 20
1.516383
  0
VERTEX
  8
FOREGROUND
  6
CONTINUOUS
 10
7.688933
 20
1.541135
  0
VERTEX
  8
FOREGROUND
  6
CONTINUOUS
 10
7.703201
 20
1.566095
  0
VERTEX
  8
FOREGROUND
  6
CONTINUOUS
 10
7.717054
 20
1.591262
  0
VERTEX
  8
FOREGROUND
  6
CONTINUOUS
 10
7.730490
 20
1.616636
  0
VERTEX
  8
FOREGROUND
  6
CONTINUOUS
 10
7.743505
 20
1.642218
  0
VERTEX
  8
FOREGROUND
  6
CONTINUOUS
 10
7.756096
 20
1.668006
  0
VERTEX
  8
FOREGROUND
  6
CONTINUOUS
 10
7.768259
 20
1.694002
  0
VERTEX
  8
FOREGROUND
  6
CONTINUOUS
 10
7.779992
 20
1.720205
  0
VERTEX
  8
FOREGROUND
  6
CONTINUOUS
 10
7.791289
 20
1.746615
  0
VERTEX
  8
FOREGROUND
  6
CONTINUOUS
 10
7.802149
 20
1.773232
  0
VERTEX
  8
FOREGROUND
  6
CONTINUOUS
 10
7.812567
 20
1.800056
  0
VERTEX
  8
FOREGROUND
  6
CONTINUOUS
 10
7.822541
 20
1.827088
  0
VERTEX
  8
FOREGROUND
  6
CONTINUOUS
 10
7.832066
 20
1.854327
  0
VERTEX
  8
FOREGROUND
  6
CONTINUOUS
 10
7.841140
 20
1.881773
  0
VERTEX
  8
FOREGROUND
  6
CONTINUOUS
 10
7.849758
 20
1.909426
  0
VERTEX
  8
FOREGROUND
  6
CONTINUOUS
 10
7.857918
 20
1.937286
  0
VERTEX
  8
FOREGROUND
  6
CONTINUOUS
 10
7.865617
 20
1.965354
  0
VERTEX
  8
FOREGROUND
  6
CONTINUOUS
 10
7.872849
 20
1.993629
  0
VERTEX
  8
FOREGROUND
  6
CONTINUOUS
 10
7.879613
 20
2.022110
  0
VERTEX
  8
FOREGROUND
  6
CONTINUOUS
 10
7.885905
 20
2.050800
  0
VERTEX
  8
FOREGROUND
  6
CONTINUOUS
 10
7.891721
 20
2.079696
  0
VERTEX
  8
FOREGROUND
  6
CONTINUOUS
 10
7.897059
 20
2.108799
  0
VERTEX
  8
FOREGROUND
  6
CONTINUOUS
 10
7.901913
 20
2.138110
  0
VERTEX
  8
FOREGROUND
  6
CONTINUOUS
 10
7.906282
 20
2.167628
  0
VERTEX
  8
FOREGROUND
  6
CONTINUOUS
 10
7.910162
 20
2.197353
  0
VERTEX
  8
FOREGROUND
  6
CONTINUOUS
 10
7.913548
 20
2.227285
  0
VERTEX
  8
FOREGROUND
  6
CONTINUOUS
 10
7.916439
 20
2.257424
  0
VERTEX
  8
FOREGROUND
  6
CONTINUOUS
 10
7.918830
 20
2.287771
  0
VERTEX
  8
FOREGROUND
  6
CONTINUOUS
 10
7.920718
 20
2.318325
  0
VERTEX
  8
FOREGROUND
  6
CONTINUOUS
 10
7.922100
 20
2.349086
  0
VERTEX
  8
FOREGROUND
  6
CONTINUOUS
 10
7.922971
 20
2.380054
  0
VERTEX
  8
FOREGROUND
  6
CONTINUOUS
 10
7.923330
 20
2.411229
  0
SEQEND
  8
0
  0
ENDSEC
  0
EOF
