  0
SECTION
  2
HEADER
  9
$ACADVER
  1
AC1006
  9
$EXTMIN
 10
0.000000
 20
0.000000
  9
$EXTMAX
 10
7.973333
 20
6.005000
  9
$LTSCALE
 40
0.166667
  9
$PDMODE
 70
    35
  9
$PDSIZE
 40
0.133333
  0
ENDSEC
  0
SECTION
  2
TABLES
  0
TABLE
  2
LTYPE
 70
     9
  0
LTYPE
  2
CONTINUOUS
 70
    64
  3
Solid line
 72
    65
 73
     0
 40
0.000000
  0
LTYPE
  2
DASHED
 70
    64
  3
__ __ __ __ __ __ __ __ __ __ __ __ __ __ __
 72
    65
 73
     2
 40
0.001250
 49
0.000833
 49
-0.000417
  0
LTYPE
  2
HIDDEN
 70
    64
  3
 _ _ _ _ _ _ _ _ _ _ _ _ _ _ _ _ _ _ _ _ _ _
 72
    65
 73
     2
 40
0.000625
 49
0.000417
 49
-0.000208
  0
LTYPE
  2
CENTER
 70
    64
  3
____ _ ____ _ ____ _ ____ _ ____ _ ____ _ ____
 72
    65
 73
     4
 40
0.003333
 49
0.002083
 49
-0.000417
 49
0.000417
 49
-0.000417
  0
LTYPE
  2
PHANTOM
 70
    64
  3
_____ _ _ _____ _ _ _____ _ _ _____ _ _ ____
 72
    65
 73
     6
 40
0.004167
 49
0.002083
 49
-0.000417
 49
0.000417
 49
-0.000417
 49
0.000417
 49
-0.000417
  0
LTYPE
  2
DOT
 70
    64
  3
...............................................
 72
    65
 73
     2
 40
0.000417
 49
0.000000
 49
-0.000417
  0
LTYPE
  2
DASHDOT
 70
    64
  3
__ . __ . __ . __ . __ . __ . __ . __ . __ . __
 72
    65
 73
     4
 40
0.001667
 49
0.000833
 49
-0.000417
 49
0.000000
 49
-0.000417
  0
LTYPE
  2
BORDER
 70
    64
  3
__ __ . __ __ . __ __ . __ __ . __ __ . __ __
 72
    65
 73
     6
 40
0.002917
 49
0.000833
 49
-0.000417
 49
0.000833
 49
-0.000417
 49
0.000000
 49
-0.000417
  0
LTYPE
  2
DIVIDE
 70
    64
  3
__ . . __ . . __ . . __ . . __ . . __ . . __
 72
    65
 73
     6
 40
0.002083
 49
0.000833
 49
-0.000417
 49
0.000000
 49
-0.000417
 49
0.000000
 49
-0.000417
  0
LTYPE
  2
DOTDOT
 70
    64
  3
 . .  . .  . .  . .  . .  . . 
 72
    65
 73
     5
 40
0.000917
 49
-0.000417
 49
0.000000
 49
-0.000417
 49
0.000000
 49
-0.000417
  0
ENDTAB
  0
TABLE
  2
STYLE
 70
     2
  0
STYLE
 70
     0
  2
SN0
 40
0.000000
 41
0.001667
 50
0.000000
 71
     0
 42
0.000000
  3
ROMAND
  0
STYLE
 70
    68
  2
SV0
 40
0.000000
 41
0.001667
 50
0.000000
 71
     0
 42
0.000000
  3
ROMAND
  0
ENDTAB
  0
TABLE
  2
LAYER
 70
     2
  0
LAYER
  2
FOREGROUND
 70
    64
 62
     7
  6
CONTINUOUS
  0
LAYER
  2
BACKGROUND
 70
    65
 62
    -7
  6
CONTINUOUS
  0
ENDTAB
  0
ENDSEC
  0
SECTION
  2
ENTITIES
  0
POLYLINE
  8
FOREGROUND
  6
CONTINUOUS
 66
     1
 40
0.010000
 41
0.010000
 70
     1
  0
VERTEX
  8
FOREGROUND
  6
CONTINUOUS
 10
7.923332
 20
3.003333
  0
VERTEX
  8
FOREGROUND
  6
CONTINUOUS
 10
7.923079
 20
3.040813
  0
VERTEX
  8
FOREGROUND
  6
CONTINUOUS
 10
7.922351
 20
3.078053
  0
VERTEX
  8
FOREGROUND
  6
CONTINUOUS
 10
7.921151
 20
3.115053
  0
VERTEX
  8
FOREGROUND
  6
CONTINUOUS
 10
7.919481
 20
3.151814
  0
VERTEX
  8
FOREGROUND
  6
CONTINUOUS
 10
7.917345
 20
3.188336
  0
VERTEX
  8
FOREGROUND
  6
CONTINUOUS
 10
7.914745
 20
3.224618
  0
VERTEX
  8
FOREGROUND
  6
CONTINUOUS
 10
7.911686
 20
3.260660
  0
VERTEX
  8
FOREGROUND
  6
CONTINUOUS
 10
7.908169
 20
3.296463
  0
VERTEX
  8
FOREGROUND
  6
CONTINUOUS
 10
7.904198
 20
3.332027
  0
VERTEX
  8
FOREGROUND
  6
CONTINUOUS
 10
7.899776
 20
3.367351
  0
VERTEX
  8
FOREGROUND
  6
CONTINUOUS
 10
7.894906
 20
3.402436
  0
VERTEX
  8
FOREGROUND
  6
CONTINUOUS
 10
7.889591
 20
3.437281
  0
VERTEX
  8
FOREGROUND
  6
CONTINUOUS
 10
7.883834
 20
3.471887
  0
VERTEX
  8
FOREGROUND
  6
CONTINUOUS
 10
7.877638
 20
3.506253
  0
VERTEX
  8
FOREGROUND
  6
CONTINUOUS
 10
7.871006
 20
3.540380
  0
VERTEX
  8
FOREGROUND
  6
CONTINUOUS
 10
7.863942
 20
3.574267
  0
VERTEX
  8
FOREGROUND
  6
CONTINUOUS
 10
7.856447
 20
3.607915
  0
VERTEX
  8
FOREGROUND
  6
CONTINUOUS
 10
7.848526
 20
3.641323
  0
VERTEX
  8
FOREGROUND
  6
CONTINUOUS
 10
7.840182
 20
3.674492
  0
VERTEX
  8
FOREGROUND
  6
CONTINUOUS
 10
7.831416
 20
3.707422
  0
VERTEX
  8
FOREGROUND
  6
CONTINUOUS
 10
7.822233
 20
3.740112
  0
VERTEX
  8
FOREGROUND
  6
CONTINUOUS
 10
7.812636
 20
3.772562
  0
VERTEX
  8
FOREGROUND
  6
CONTINUOUS
 10
7.802627
 20
3.804773
  0
VERTEX
  8
FOREGROUND
  6
CONTINUOUS
 10
7.792210
 20
3.836745
  0
VERTEX
  8
FOREGROUND
  6
CONTINUOUS
 10
7.781387
 20
3.868477
  0
VERTEX
  8
FOREGROUND
  6
CONTINUOUS
 10
7.770162
 20
3.899970
  0
VERTEX
  8
FOREGROUND
  6
CONTINUOUS
 10
7.758538
 20
3.931223
  0
VERTEX
  8
FOREGROUND
  6
CONTINUOUS
 10
7.746517
 20
3.962236
  0
VERTEX
  8
FOREGROUND
  6
CONTINUOUS
 10
7.734104
 20
3.993011
  0
VERTEX
  8
FOREGROUND
  6
CONTINUOUS
 10
7.721300
 20
4.023545
  0
VERTEX
  8
FOREGROUND
  6
CONTINUOUS
 10
7.708109
 20
4.053841
  0
VERTEX
  8
FOREGROUND
  6
CONTINUOUS
 10
7.694534
 20
4.083896
  0
VERTEX
  8
FOREGROUND
  6
CONTINUOUS
 10
7.680578
 20
4.113713
  0
VERTEX
  8
FOREGROUND
  6
CONTINUOUS
 10
7.666244
 20
4.143290
  0
VERTEX
  8
FOREGROUND
  6
CONTINUOUS
 10
7.651535
 20
4.172627
  0
VERTEX
  8
FOREGROUND
  6
CONTINUOUS
 10
7.636454
 20
4.201725
  0
VERTEX
  8
FOREGROUND
  6
CONTINUOUS
 10
7.621005
 20
4.230583
  0
VERTEX
  8
FOREGROUND
  6
CONTINUOUS
 10
7.605189
 20
4.259202
  0
VERTEX
  8
FOREGROUND
  6
CONTINUOUS
 10
7.589011
 20
4.287582
  0
VERTEX
  8
FOREGROUND
  6
CONTINUOUS
 10
7.572473
 20
4.315722
  0
VERTEX
  8
FOREGROUND
  6
CONTINUOUS
 10
7.555579
 20
4.343623
  0
VERTEX
  8
FOREGROUND
  6
CONTINUOUS
 10
7.538331
 20
4.371284
  0
VERTEX
  8
FOREGROUND
  6
CONTINUOUS
 10
7.520732
 20
4.398705
  0
VERTEX
  8
FOREGROUND
  6
CONTINUOUS
 10
7.502786
 20
4.425887
  0
VERTEX
  8
FOREGROUND
  6
CONTINUOUS
 10
7.484496
 20
4.452830
  0
VERTEX
  8
FOREGROUND
  6
CONTINUOUS
 10
7.465864
 20
4.479533
  0
VERTEX
  8
FOREGROUND
  6
CONTINUOUS
 10
7.446894
 20
4.505997
  0
VERTEX
  8
FOREGROUND
  6
CONTINUOUS
 10
7.427588
 20
4.532221
  0
VERTEX
  8
FOREGROUND
  6
CONTINUOUS
 10
7.407950
 20
4.558206
  0
VERTEX
  8
FOREGROUND
  6
CONTINUOUS
 10
7.387983
 20
4.583951
  0
VERTEX
  8
FOREGROUND
  6
CONTINUOUS
 10
7.367690
 20
4.609457
  0
VERTEX
  8
FOREGROUND
  6
CONTINUOUS
 10
7.347074
 20
4.634724
  0
VERTEX
  8
FOREGROUND
  6
CONTINUOUS
 10
7.326137
 20
4.659750
  0
VERTEX
  8
FOREGROUND
  6
CONTINUOUS
 10
7.304884
 20
4.684538
  0
VERTEX
  8
FOREGROUND
  6
CONTINUOUS
 10
7.283317
 20
4.709086
  0
VERTEX
  8
FOREGROUND
  6
CONTINUOUS
 10
7.261438
 20
4.733394
  0
VERTEX
  8
FOREGROUND
  6
CONTINUOUS
 10
7.239252
 20
4.757463
  0
VERTEX
  8
FOREGROUND
  6
CONTINUOUS
 10
7.216761
 20
4.781293
  0
VERTEX
  8
FOREGROUND
  6
CONTINUOUS
 10
7.193968
 20
4.804883
  0
VERTEX
  8
FOREGROUND
  6
CONTINUOUS
 10
7.170876
 20
4.828233
  0
VERTEX
  8
FOREGROUND
  6
CONTINUOUS
 10
7.147489
 20
4.851344
  0
VERTEX
  8
FOREGROUND
  6
CONTINUOUS
 10
7.123809
 20
4.874216
  0
VERTEX
  8
FOREGROUND
  6
CONTINUOUS
 10
7.099840
 20
4.896848
  0
VERTEX
  8
FOREGROUND
  6
CONTINUOUS
 10
7.075583
 20
4.919241
  0
VERTEX
  8
FOREGROUND
  6
CONTINUOUS
 10
7.051044
 20
4.941394
  0
VERTEX
  8
FOREGROUND
  6
CONTINUOUS
 10
7.026224
 20
4.963308
  0
VERTEX
  8
FOREGROUND
  6
CONTINUOUS
 10
7.001126
 20
4.984982
  0
VERTEX
  8
FOREGROUND
  6
CONTINUOUS
 10
6.975754
 20
5.006417
  0
VERTEX
  8
FOREGROUND
  6
CONTINUOUS
 10
6.950111
 20
5.027612
  0
VERTEX
  8
FOREGROUND
  6
CONTINUOUS
 10
6.924199
 20
5.048568
  0
VERTEX
  8
FOREGROUND
  6
CONTINUOUS
 10
6.898022
 20
5.069284
  0
VERTEX
  8
FOREGROUND
  6
CONTINUOUS
 10
6.871583
 20
5.089761
  0
VERTEX
  8
FOREGROUND
  6
CONTINUOUS
 10
6.844885
 20
5.109998
  0
VERTEX
  8
FOREGROUND
  6
CONTINUOUS
 10
6.817931
 20
5.129996
  0
VERTEX
  8
FOREGROUND
  6
CONTINUOUS
 10
6.790724
 20
5.149755
  0
VERTEX
  8
FOREGROUND
  6
CONTINUOUS
 10
6.763267
 20
5.169274
  0
VERTEX
  8
FOREGROUND
  6
CONTINUOUS
 10
6.735562
 20
5.188553
  0
VERTEX
  8
FOREGROUND
  6
CONTINUOUS
 10
6.707614
 20
5.207593
  0
VERTEX
  8
FOREGROUND
  6
CONTINUOUS
 10
6.679425
 20
5.226394
  0
VERTEX
  8
FOREGROUND
  6
CONTINUOUS
 10
6.650998
 20
5.244955
  0
VERTEX
  8
FOREGROUND
  6
CONTINUOUS
 10
6.622337
 20
5.263276
  0
VERTEX
  8
FOREGROUND
  6
CONTINUOUS
 10
6.593443
 20
5.281359
  0
VERTEX
  8
FOREGROUND
  6
CONTINUOUS
 10
6.564321
 20
5.299201
  0
VERTEX
  8
FOREGROUND
  6
CONTINUOUS
 10
6.534974
 20
5.316804
  0
VERTEX
  8
FOREGROUND
  6
CONTINUOUS
 10
6.505404
 20
5.334168
  0
VERTEX
  8
FOREGROUND
  6
CONTINUOUS
 10
6.475614
 20
5.351292
  0
VERTEX
  8
FOREGROUND
  6
CONTINUOUS
 10
6.445608
 20
5.368177
  0
VERTEX
  8
FOREGROUND
  6
CONTINUOUS
 10
6.415388
 20
5.384822
  0
VERTEX
  8
FOREGROUND
  6
CONTINUOUS
 10
6.384958
 20
5.401228
  0
VERTEX
  8
FOREGROUND
  6
CONTINUOUS
 10
6.354320
 20
5.417394
  0
VERTEX
  8
FOREGROUND
  6
CONTINUOUS
 10
6.323479
 20
5.433321
  0
VERTEX
  8
FOREGROUND
  6
CONTINUOUS
 10
6.292436
 20
5.449008
  0
VERTEX
  8
FOREGROUND
  6
CONTINUOUS
 10
6.261195
 20
5.464456
  0
VERTEX
  8
FOREGROUND
  6
CONTINUOUS
 10
6.229758
 20
5.479665
  0
VERTEX
  8
FOREGROUND
  6
CONTINUOUS
 10
6.198130
 20
5.494633
  0
VERTEX
  8
FOREGROUND
  6
CONTINUOUS
 10
6.166312
 20
5.509363
  0
VERTEX
  8
FOREGROUND
  6
CONTINUOUS
 10
6.134309
 20
5.523853
  0
VERTEX
  8
FOREGROUND
  6
CONTINUOUS
 10
6.102122
 20
5.538103
  0
VERTEX
  8
FOREGROUND
  6
CONTINUOUS
 10
6.069756
 20
5.552114
  0
VERTEX
  8
FOREGROUND
  6
CONTINUOUS
 10
6.037212
 20
5.565886
  0
VERTEX
  8
FOREGROUND
  6
CONTINUOUS
 10
6.004495
 20
5.579418
  0
VERTEX
  8
FOREGROUND
  6
CONTINUOUS
 10
5.971607
 20
5.592710
  0
VERTEX
  8
FOREGROUND
  6
CONTINUOUS
 10
5.938551
 20
5.605763
  0
VERTEX
  8
FOREGROUND
  6
CONTINUOUS
 10
5.905331
 20
5.618577
  0
VERTEX
  8
FOREGROUND
  6
CONTINUOUS
 10
5.871949
 20
5.631151
  0
VERTEX
  8
FOREGROUND
  6
CONTINUOUS
 10
5.838408
 20
5.643486
  0
VERTEX
  8
FOREGROUND
  6
CONTINUOUS
 10
5.804712
 20
5.655581
  0
VERTEX
  8
FOREGROUND
  6
CONTINUOUS
 10
5.770863
 20
5.667437
  0
VERTEX
  8
FOREGROUND
  6
CONTINUOUS
 10
5.736865
 20
5.679053
  0
VERTEX
  8
FOREGROUND
  6
CONTINUOUS
 10
5.702720
 20
5.690429
  0
VERTEX
  8
FOREGROUND
  6
CONTINUOUS
 10
5.668432
 20
5.701567
  0
VERTEX
  8
FOREGROUND
  6
CONTINUOUS
 10
5.634004
 20
5.712464
  0
VERTEX
  8
FOREGROUND
  6
CONTINUOUS
 10
5.599438
 20
5.723123
  0
VERTEX
  8
FOREGROUND
  6
CONTINUOUS
 10
5.564738
 20
5.733541
  0
VERTEX
  8
FOREGROUND
  6
CONTINUOUS
 10
5.529907
 20
5.743721
  0
VERTEX
  8
FOREGROUND
  6
CONTINUOUS
 10
5.494948
 20
5.753661
  0
VERTEX
  8
FOREGROUND
  6
CONTINUOUS
 10
5.459864
 20
5.763361
  0
VERTEX
  8
FOREGROUND
  6
CONTINUOUS
 10
5.424657
 20
5.772822
  0
VERTEX
  8
FOREGROUND
  6
CONTINUOUS
 10
5.389332
 20
5.782043
  0
VERTEX
  8
FOREGROUND
  6
CONTINUOUS
 10
5.353891
 20
5.791025
  0
VERTEX
  8
FOREGROUND
  6
CONTINUOUS
 10
5.318337
 20
5.799768
  0
VERTEX
  8
FOREGROUND
  6
CONTINUOUS
 10
5.282673
 20
5.808271
  0
VERTEX
  8
FOREGROUND
  6
CONTINUOUS
 10
5.246902
 20
5.816534
  0
VERTEX
  8
FOREGROUND
  6
CONTINUOUS
 10
5.211027
 20
5.824558
  0
VERTEX
  8
FOREGROUND
  6
CONTINUOUS
 10
5.175052
 20
5.832342
  0
VERTEX
  8
FOREGROUND
  6
CONTINUOUS
 10
5.138979
 20
5.839887
  0
VERTEX
  8
FOREGROUND
  6
CONTINUOUS
 10
5.102811
 20
5.847193
  0
VERTEX
  8
FOREGROUND
  6
CONTINUOUS
 10
5.066552
 20
5.854259
  0
VERTEX
  8
FOREGROUND
  6
CONTINUOUS
 10
5.030204
 20
5.861086
  0
VERTEX
  8
FOREGROUND
  6
CONTINUOUS
 10
4.993771
 20
5.867673
  0
VERTEX
  8
FOREGROUND
  6
CONTINUOUS
 10
4.957255
 20
5.874020
  0
VERTEX
  8
FOREGROUND
  6
CONTINUOUS
 10
4.920660
 20
5.880129
  0
VERTEX
  8
FOREGROUND
  6
CONTINUOUS
 10
4.883989
 20
5.885997
  0
VERTEX
  8
FOREGROUND
  6
CONTINUOUS
 10
4.847244
 20
5.891626
  0
VERTEX
  8
FOREGROUND
  6
CONTINUOUS
 10
4.810429
 20
5.897016
  0
VERTEX
  8
FOREGROUND
  6
CONTINUOUS
 10
4.773547
 20
5.902166
  0
VERTEX
  8
FOREGROUND
  6
CONTINUOUS
 10
4.736601
 20
5.907077
  0
VERTEX
  8
FOREGROUND
  6
CONTINUOUS
 10
4.699593
 20
5.911748
  0
VERTEX
  8
FOREGROUND
  6
CONTINUOUS
 10
4.662528
 20
5.916180
  0
VERTEX
  8
FOREGROUND
  6
CONTINUOUS
 10
4.625407
 20
5.920372
  0
VERTEX
  8
FOREGROUND
  6
CONTINUOUS
 10
4.588235
 20
5.924325
  0
VERTEX
  8
FOREGROUND
  6
CONTINUOUS
 10
4.551013
 20
5.928038
  0
VERTEX
  8
FOREGROUND
  6
CONTINUOUS
 10
4.513746
 20
5.931512
  0
VERTEX
  8
FOREGROUND
  6
CONTINUOUS
 10
4.476436
 20
5.934746
  0
VERTEX
  8
FOREGROUND
  6
CONTINUOUS
 10
4.439086
 20
5.937741
  0
VERTEX
  8
FOREGROUND
  6
CONTINUOUS
 10
4.401699
 20
5.940497
  0
VERTEX
  8
FOREGROUND
  6
CONTINUOUS
 10
4.364279
 20
5.943013
  0
VERTEX
  8
FOREGROUND
  6
CONTINUOUS
 10
4.326828
 20
5.945289
  0
VERTEX
  8
FOREGROUND
  6
CONTINUOUS
 10
4.289349
 20
5.947326
  0
VERTEX
  8
FOREGROUND
  6
CONTINUOUS
 10
4.251846
 20
5.949123
  0
VERTEX
  8
FOREGROUND
  6
CONTINUOUS
 10
4.214322
 20
5.950681
  0
VERTEX
  8
FOREGROUND
  6
CONTINUOUS
 10
4.176778
 20
5.952000
  0
VERTEX
  8
FOREGROUND
  6
CONTINUOUS
 10
4.139220
 20
5.953079
  0
VERTEX
  8
FOREGROUND
  6
CONTINUOUS
 10
4.101649
 20
5.953918
  0
VERTEX
  8
FOREGROUND
  6
CONTINUOUS
 10
4.064069
 20
5.954518
  0
VERTEX
  8
FOREGROUND
  6
CONTINUOUS
 10
4.026482
 20
5.954879
  0
VERTEX
  8
FOREGROUND
  6
CONTINUOUS
 10
3.988893
 20
5.955000
  0
VERTEX
  8
FOREGROUND
  6
CONTINUOUS
 10
3.951303
 20
5.954881
  0
VERTEX
  8
FOREGROUND
  6
CONTINUOUS
 10
3.913716
 20
5.954524
  0
VERTEX
  8
FOREGROUND
  6
CONTINUOUS
 10
3.876134
 20
5.953926
  0
VERTEX
  8
FOREGROUND
  6
CONTINUOUS
 10
3.838562
 20
5.953089
  0
VERTEX
  8
FOREGROUND
  6
CONTINUOUS
 10
3.801002
 20
5.952013
  0
VERTEX
  8
FOREGROUND
  6
CONTINUOUS
 10
3.763457
 20
5.950697
  0
VERTEX
  8
FOREGROUND
  6
CONTINUOUS
 10
3.725930
 20
5.949142
  0
VERTEX
  8
FOREGROUND
  6
CONTINUOUS
 10
3.688424
 20
5.947347
  0
VERTEX
  8
FOREGROUND
  6
CONTINUOUS
 10
3.650942
 20
5.945312
  0
VERTEX
  8
FOREGROUND
  6
CONTINUOUS
 10
3.613488
 20
5.943039
  0
VERTEX
  8
FOREGROUND
  6
CONTINUOUS
 10
3.576064
 20
5.940525
  0
VERTEX
  8
FOREGROUND
  6
CONTINUOUS
 10
3.538673
 20
5.937773
  0
VERTEX
  8
FOREGROUND
  6
CONTINUOUS
 10
3.501319
 20
5.934780
  0
VERTEX
  8
FOREGROUND
  6
CONTINUOUS
 10
3.464004
 20
5.931549
  0
VERTEX
  8
FOREGROUND
  6
CONTINUOUS
 10
3.426731
 20
5.928077
  0
VERTEX
  8
FOREGROUND
  6
CONTINUOUS
 10
3.389504
 20
5.924367
  0
VERTEX
  8
FOREGROUND
  6
CONTINUOUS
 10
3.352326
 20
5.920416
  0
VERTEX
  8
FOREGROUND
  6
CONTINUOUS
 10
3.315199
 20
5.916227
  0
VERTEX
  8
FOREGROUND
  6
CONTINUOUS
 10
3.278127
 20
5.911798
  0
VERTEX
  8
FOREGROUND
  6
CONTINUOUS
 10
3.241112
 20
5.907129
  0
VERTEX
  8
FOREGROUND
  6
CONTINUOUS
 10
3.204158
 20
5.902221
  0
VERTEX
  8
FOREGROUND
  6
CONTINUOUS
 10
3.167268
 20
5.897073
  0
VERTEX
  8
FOREGROUND
  6
CONTINUOUS
 10
3.130445
 20
5.891686
  0
VERTEX
  8
FOREGROUND
  6
CONTINUOUS
 10
3.093692
 20
5.886059
  0
VERTEX
  8
FOREGROUND
  6
CONTINUOUS
 10
3.057012
 20
5.880193
  0
VERTEX
  8
FOREGROUND
  6
CONTINUOUS
 10
3.020408
 20
5.874088
  0
VERTEX
  8
FOREGROUND
  6
CONTINUOUS
 10
2.983882
 20
5.867743
  0
VERTEX
  8
FOREGROUND
  6
CONTINUOUS
 10
2.947439
 20
5.861158
  0
VERTEX
  8
FOREGROUND
  6
CONTINUOUS
 10
2.911081
 20
5.854334
  0
VERTEX
  8
FOREGROUND
  6
CONTINUOUS
 10
2.874811
 20
5.847270
  0
VERTEX
  8
FOREGROUND
  6
CONTINUOUS
 10
2.838633
 20
5.839967
  0
VERTEX
  8
FOREGROUND
  6
CONTINUOUS
 10
2.802548
 20
5.832425
  0
VERTEX
  8
FOREGROUND
  6
CONTINUOUS
 10
2.766561
 20
5.824643
  0
VERTEX
  8
FOREGROUND
  6
CONTINUOUS
 10
2.730675
 20
5.816621
  0
VERTEX
  8
FOREGROUND
  6
CONTINUOUS
 10
2.694891
 20
5.808360
  0
VERTEX
  8
FOREGROUND
  6
CONTINUOUS
 10
2.659214
 20
5.799860
  0
VERTEX
  8
FOREGROUND
  6
CONTINUOUS
 10
2.623647
 20
5.791120
  0
VERTEX
  8
FOREGROUND
  6
CONTINUOUS
 10
2.588192
 20
5.782141
  0
VERTEX
  8
FOREGROUND
  6
CONTINUOUS
 10
2.552853
 20
5.772922
  0
VERTEX
  8
FOREGROUND
  6
CONTINUOUS
 10
2.517632
 20
5.763463
  0
VERTEX
  8
FOREGROUND
  6
CONTINUOUS
 10
2.482533
 20
5.753765
  0
VERTEX
  8
FOREGROUND
  6
CONTINUOUS
 10
2.447559
 20
5.743828
  0
VERTEX
  8
FOREGROUND
  6
CONTINUOUS
 10
2.412713
 20
5.733651
  0
VERTEX
  8
FOREGROUND
  6
CONTINUOUS
 10
2.377997
 20
5.723235
  0
VERTEX
  8
FOREGROUND
  6
CONTINUOUS
 10
2.343416
 20
5.712579
  0
VERTEX
  8
FOREGROUND
  6
CONTINUOUS
 10
2.308971
 20
5.701683
  0
VERTEX
  8
FOREGROUND
  6
CONTINUOUS
 10
2.274666
 20
5.690548
  0
VERTEX
  8
FOREGROUND
  6
CONTINUOUS
 10
2.240504
 20
5.679174
  0
VERTEX
  8
FOREGROUND
  6
CONTINUOUS
 10
2.206488
 20
5.667560
  0
VERTEX
  8
FOREGROUND
  6
CONTINUOUS
 10
2.172622
 20
5.655707
  0
VERTEX
  8
FOREGROUND
  6
CONTINUOUS
 10
2.138907
 20
5.643614
  0
VERTEX
  8
FOREGROUND
  6
CONTINUOUS
 10
2.105348
 20
5.631282
  0
VERTEX
  8
FOREGROUND
  6
CONTINUOUS
 10
2.071947
 20
5.618710
  0
VERTEX
  8
FOREGROUND
  6
CONTINUOUS
 10
2.038707
 20
5.605899
  0
VERTEX
  8
FOREGROUND
  6
CONTINUOUS
 10
2.005632
 20
5.592848
  0
VERTEX
  8
FOREGROUND
  6
CONTINUOUS
 10
1.972724
 20
5.579558
  0
VERTEX
  8
FOREGROUND
  6
CONTINUOUS
 10
1.939986
 20
5.566028
  0
VERTEX
  8
FOREGROUND
  6
CONTINUOUS
 10
1.907422
 20
5.552259
  0
VERTEX
  8
FOREGROUND
  6
CONTINUOUS
 10
1.875034
 20
5.538250
  0
VERTEX
  8
FOREGROUND
  6
CONTINUOUS
 10
1.842826
 20
5.524002
  0
VERTEX
  8
FOREGROUND
  6
CONTINUOUS
 10
1.810801
 20
5.509514
  0
VERTEX
  8
FOREGROUND
  6
CONTINUOUS
 10
1.778961
 20
5.494787
  0
VERTEX
  8
FOREGROUND
  6
CONTINUOUS
 10
1.747310
 20
5.479820
  0
VERTEX
  8
FOREGROUND
  6
CONTINUOUS
 10
1.715851
 20
5.464614
  0
VERTEX
  8
FOREGROUND
  6
CONTINUOUS
 10
1.684586
 20
5.449168
  0
VERTEX
  8
FOREGROUND
  6
CONTINUOUS
 10
1.653520
 20
5.433483
  0
VERTEX
  8
FOREGROUND
  6
CONTINUOUS
 10
1.622654
 20
5.417559
  0
VERTEX
  8
FOREGROUND
  6
CONTINUOUS
 10
1.591992
 20
5.401394
  0
VERTEX
  8
FOREGROUND
  6
CONTINUOUS
 10
1.561537
 20
5.384991
  0
VERTEX
  8
FOREGROUND
  6
CONTINUOUS
 10
1.531292
 20
5.368348
  0
VERTEX
  8
FOREGROUND
  6
CONTINUOUS
 10
1.501261
 20
5.351465
  0
VERTEX
  8
FOREGROUND
  6
CONTINUOUS
 10
1.471445
 20
5.334343
  0
VERTEX
  8
FOREGROUND
  6
CONTINUOUS
 10
1.441849
 20
5.316981
  0
VERTEX
  8
FOREGROUND
  6
CONTINUOUS
 10
1.412475
 20
5.299380
  0
VERTEX
  8
FOREGROUND
  6
CONTINUOUS
 10
1.383326
 20
5.281539
  0
VERTEX
  8
FOREGROUND
  6
CONTINUOUS
 10
1.354405
 20
5.263459
  0
VERTEX
  8
FOREGROUND
  6
CONTINUOUS
 10
1.325716
 20
5.245140
  0
VERTEX
  8
FOREGROUND
  6
CONTINUOUS
 10
1.297261
 20
5.226581
  0
VERTEX
  8
FOREGROUND
  6
CONTINUOUS
 10
1.269044
 20
5.207782
  0
VERTEX
  8
FOREGROUND
  6
CONTINUOUS
 10
1.241067
 20
5.188744
  0
VERTEX
  8
FOREGROUND
  6
CONTINUOUS
 10
1.213334
 20
5.169467
  0
VERTEX
  8
FOREGROUND
  6
CONTINUOUS
 10
1.185847
 20
5.149949
  0
VERTEX
  8
FOREGROUND
  6
CONTINUOUS
 10
1.158610
 20
5.130193
  0
VERTEX
  8
FOREGROUND
  6
CONTINUOUS
 10
1.131625
 20
5.110197
  0
VERTEX
  8
FOREGROUND
  6
CONTINUOUS
 10
1.104897
 20
5.089961
  0
VERTEX
  8
FOREGROUND
  6
CONTINUOUS
 10
1.078427
 20
5.069486
  0
VERTEX
  8
FOREGROUND
  6
CONTINUOUS
 10
1.052219
 20
5.048772
  0
VERTEX
  8
FOREGROUND
  6
CONTINUOUS
 10
1.026276
 20
5.027818
  0
VERTEX
  8
FOREGROUND
  6
CONTINUOUS
 10
1.000601
 20
5.006624
  0
VERTEX
  8
FOREGROUND
  6
CONTINUOUS
 10
0.975196
 20
4.985191
  0
VERTEX
  8
FOREGROUND
  6
CONTINUOUS
 10
0.950066
 20
4.963519
  0
VERTEX
  8
FOREGROUND
  6
CONTINUOUS
 10
0.925213
 20
4.941607
  0
VERTEX
  8
FOREGROUND
  6
CONTINUOUS
 10
0.900640
 20
4.919455
  0
VERTEX
  8
FOREGROUND
  6
CONTINUOUS
 10
0.876350
 20
4.897064
  0
VERTEX
  8
FOREGROUND
  6
CONTINUOUS
 10
0.852346
 20
4.874434
  0
VERTEX
  8
FOREGROUND
  6
CONTINUOUS
 10
0.828632
 20
4.851564
  0
VERTEX
  8
FOREGROUND
  6
CONTINUOUS
 10
0.805209
 20
4.828454
  0
VERTEX
  8
FOREGROUND
  6
CONTINUOUS
 10
0.782083
 20
4.805105
  0
VERTEX
  8
FOREGROUND
  6
CONTINUOUS
 10
0.759254
 20
4.781517
  0
VERTEX
  8
FOREGROUND
  6
CONTINUOUS
 10
0.736727
 20
4.757689
  0
VERTEX
  8
FOREGROUND
  6
CONTINUOUS
 10
0.714505
 20
4.733622
  0
VERTEX
  8
FOREGROUND
  6
CONTINUOUS
 10
0.692590
 20
4.709315
  0
VERTEX
  8
FOREGROUND
  6
CONTINUOUS
 10
0.670985
 20
4.684768
  0
VERTEX
  8
FOREGROUND
  6
CONTINUOUS
 10
0.649694
 20
4.659982
  0
VERTEX
  8
FOREGROUND
  6
CONTINUOUS
 10
0.628720
 20
4.634957
  0
VERTEX
  8
FOREGROUND
  6
CONTINUOUS
 10
0.608066
 20
4.609692
  0
VERTEX
  8
FOREGROUND
  6
CONTINUOUS
 10
0.587734
 20
4.584188
  0
VERTEX
  8
FOREGROUND
  6
CONTINUOUS
 10
0.567728
 20
4.558444
  0
VERTEX
  8
FOREGROUND
  6
CONTINUOUS
 10
0.548051
 20
4.532460
  0
VERTEX
  8
FOREGROUND
  6
CONTINUOUS
 10
0.528706
 20
4.506237
  0
VERTEX
  8
FOREGROUND
  6
CONTINUOUS
 10
0.509696
 20
4.479775
  0
VERTEX
  8
FOREGROUND
  6
CONTINUOUS
 10
0.491024
 20
4.453073
  0
VERTEX
  8
FOREGROUND
  6
CONTINUOUS
 10
0.472693
 20
4.426132
  0
VERTEX
  8
FOREGROUND
  6
CONTINUOUS
 10
0.454706
 20
4.398951
  0
VERTEX
  8
FOREGROUND
  6
CONTINUOUS
 10
0.437066
 20
4.371530
  0
VERTEX
  8
FOREGROUND
  6
CONTINUOUS
 10
0.419776
 20
4.343870
  0
VERTEX
  8
FOREGROUND
  6
CONTINUOUS
 10
0.402840
 20
4.315971
  0
VERTEX
  8
FOREGROUND
  6
CONTINUOUS
 10
0.386259
 20
4.287832
  0
VERTEX
  8
FOREGROUND
  6
CONTINUOUS
 10
0.370038
 20
4.259454
  0
VERTEX
  8
FOREGROUND
  6
CONTINUOUS
 10
0.354180
 20
4.230836
  0
VERTEX
  8
FOREGROUND
  6
CONTINUOUS
 10
0.338687
 20
4.201979
  0
VERTEX
  8
FOREGROUND
  6
CONTINUOUS
 10
0.323562
 20
4.172882
  0
VERTEX
  8
FOREGROUND
  6
CONTINUOUS
 10
0.308809
 20
4.143545
  0
VERTEX
  8
FOREGROUND
  6
CONTINUOUS
 10
0.294430
 20
4.113969
  0
VERTEX
  8
FOREGROUND
  6
CONTINUOUS
 10
0.280429
 20
4.084154
  0
VERTEX
  8
FOREGROUND
  6
CONTINUOUS
 10
0.266809
 20
4.054099
  0
VERTEX
  8
FOREGROUND
  6
CONTINUOUS
 10
0.253572
 20
4.023805
  0
VERTEX
  8
FOREGROUND
  6
CONTINUOUS
 10
0.240722
 20
3.993271
  0
VERTEX
  8
FOREGROUND
  6
CONTINUOUS
 10
0.228262
 20
3.962498
  0
VERTEX
  8
FOREGROUND
  6
CONTINUOUS
 10
0.216195
 20
3.931485
  0
VERTEX
  8
FOREGROUND
  6
CONTINUOUS
 10
0.204524
 20
3.900232
  0
VERTEX
  8
FOREGROUND
  6
CONTINUOUS
 10
0.193251
 20
3.868741
  0
VERTEX
  8
FOREGROUND
  6
CONTINUOUS
 10
0.182381
 20
3.837009
  0
VERTEX
  8
FOREGROUND
  6
CONTINUOUS
 10
0.171915
 20
3.805038
  0
VERTEX
  8
FOREGROUND
  6
CONTINUOUS
 10
0.161858
 20
3.772828
  0
VERTEX
  8
FOREGROUND
  6
CONTINUOUS
 10
0.152211
 20
3.740378
  0
VERTEX
  8
FOREGROUND
  6
CONTINUOUS
 10
0.142979
 20
3.707689
  0
VERTEX
  8
FOREGROUND
  6
CONTINUOUS
 10
0.134164
 20
3.674760
  0
VERTEX
  8
FOREGROUND
  6
CONTINUOUS
 10
0.125770
 20
3.641592
  0
VERTEX
  8
FOREGROUND
  6
CONTINUOUS
 10
0.117798
 20
3.608184
  0
VERTEX
  8
FOREGROUND
  6
CONTINUOUS
 10
0.110253
 20
3.574536
  0
VERTEX
  8
FOREGROUND
  6
CONTINUOUS
 10
0.103137
 20
3.540650
  0
VERTEX
  8
FOREGROUND
  6
CONTINUOUS
 10
0.096454
 20
3.506523
  0
VERTEX
  8
FOREGROUND
  6
CONTINUOUS
 10
0.090206
 20
3.472157
  0
VERTEX
  8
FOREGROUND
  6
CONTINUOUS
 10
0.084397
 20
3.437552
  0
VERTEX
  8
FOREGROUND
  6
CONTINUOUS
 10
0.079030
 20
3.402707
  0
VERTEX
  8
FOREGROUND
  6
CONTINUOUS
 10
0.074107
 20
3.367623
  0
VERTEX
  8
FOREGROUND
  6
CONTINUOUS
 10
0.069631
 20
3.332299
  0
VERTEX
  8
FOREGROUND
  6
CONTINUOUS
 10
0.065607
 20
3.296736
  0
VERTEX
  8
FOREGROUND
  6
CONTINUOUS
 10
0.062036
 20
3.260933
  0
VERTEX
  8
FOREGROUND
  6
CONTINUOUS
 10
0.058922
 20
3.224890
  0
VERTEX
  8
FOREGROUND
  6
CONTINUOUS
 10
0.056268
 20
3.188609
  0
VERTEX
  8
FOREGROUND
  6
CONTINUOUS
 10
0.054076
 20
3.152087
  0
VERTEX
  8
FOREGROUND
  6
CONTINUOUS
 10
0.052351
 20
3.115326
  0
VERTEX
  8
FOREGROUND
  6
CONTINUOUS
 10
0.051095
 20
3.078326
  0
VERTEX
  8
FOREGROUND
  6
CONTINUOUS
 10
0.050311
 20
3.041086
  0
VERTEX
  8
FOREGROUND
  6
CONTINUOUS
 10
0.050001
 20
3.003607
  0
VERTEX
  8
FOREGROUND
  6
CONTINUOUS
 10
0.050001
 20
3.003607
  0
VERTEX
  8
FOREGROUND
  6
CONTINUOUS
 10
0.050249
 20
2.966127
  0
VERTEX
  8
FOREGROUND
  6
CONTINUOUS
 10
0.050973
 20
2.928887
  0
VERTEX
  8
FOREGROUND
  6
CONTINUOUS
 10
0.052169
 20
2.891887
  0
VERTEX
  8
FOREGROUND
  6
CONTINUOUS
 10
0.053834
 20
2.855126
  0
VERTEX
  8
FOREGROUND
  6
CONTINUOUS
 10
0.055966
 20
2.818604
  0
VERTEX
  8
FOREGROUND
  6
CONTINUOUS
 10
0.058561
 20
2.782322
  0
VERTEX
  8
FOREGROUND
  6
CONTINUOUS
 10
0.061616
 20
2.746279
  0
VERTEX
  8
FOREGROUND
  6
CONTINUOUS
 10
0.065128
 20
2.710476
  0
VERTEX
  8
FOREGROUND
  6
CONTINUOUS
 10
0.069095
 20
2.674912
  0
VERTEX
  8
FOREGROUND
  6
CONTINUOUS
 10
0.073513
 20
2.639588
  0
VERTEX
  8
FOREGROUND
  6
CONTINUOUS
 10
0.078378
 20
2.604502
  0
VERTEX
  8
FOREGROUND
  6
CONTINUOUS
 10
0.083689
 20
2.569657
  0
VERTEX
  8
FOREGROUND
  6
CONTINUOUS
 10
0.089442
 20
2.535051
  0
VERTEX
  8
FOREGROUND
  6
CONTINUOUS
 10
0.095634
 20
2.500684
  0
VERTEX
  8
FOREGROUND
  6
CONTINUOUS
 10
0.102261
 20
2.466557
  0
VERTEX
  8
FOREGROUND
  6
CONTINUOUS
 10
0.109321
 20
2.432669
  0
VERTEX
  8
FOREGROUND
  6
CONTINUOUS
 10
0.116812
 20
2.399021
  0
VERTEX
  8
FOREGROUND
  6
CONTINUOUS
 10
0.124728
 20
2.365612
  0
VERTEX
  8
FOREGROUND
  6
CONTINUOUS
 10
0.133069
 20
2.332442
  0
VERTEX
  8
FOREGROUND
  6
CONTINUOUS
 10
0.141830
 20
2.299512
  0
VERTEX
  8
FOREGROUND
  6
CONTINUOUS
 10
0.151009
 20
2.266821
  0
VERTEX
  8
FOREGROUND
  6
CONTINUOUS
 10
0.160602
 20
2.234370
  0
VERTEX
  8
FOREGROUND
  6
CONTINUOUS
 10
0.170607
 20
2.202158
  0
VERTEX
  8
FOREGROUND
  6
CONTINUOUS
 10
0.181021
 20
2.170186
  0
VERTEX
  8
FOREGROUND
  6
CONTINUOUS
 10
0.191839
 20
2.138453
  0
VERTEX
  8
FOREGROUND
  6
CONTINUOUS
 10
0.203060
 20
2.106960
  0
VERTEX
  8
FOREGROUND
  6
CONTINUOUS
 10
0.214681
 20
2.075706
  0
VERTEX
  8
FOREGROUND
  6
CONTINUOUS
 10
0.226698
 20
2.044691
  0
VERTEX
  8
FOREGROUND
  6
CONTINUOUS
 10
0.239107
 20
2.013916
  0
VERTEX
  8
FOREGROUND
  6
CONTINUOUS
 10
0.251908
 20
1.983381
  0
VERTEX
  8
FOREGROUND
  6
CONTINUOUS
 10
0.265095
 20
1.953084
  0
VERTEX
  8
FOREGROUND
  6
CONTINUOUS
 10
0.278666
 20
1.923028
  0
VERTEX
  8
FOREGROUND
  6
CONTINUOUS
 10
0.292618
 20
1.893210
  0
VERTEX
  8
FOREGROUND
  6
CONTINUOUS
 10
0.306949
 20
1.863633
  0
VERTEX
  8
FOREGROUND
  6
CONTINUOUS
 10
0.321654
 20
1.834294
  0
VERTEX
  8
FOREGROUND
  6
CONTINUOUS
 10
0.336731
 20
1.805195
  0
VERTEX
  8
FOREGROUND
  6
CONTINUOUS
 10
0.352177
 20
1.776336
  0
VERTEX
  8
FOREGROUND
  6
CONTINUOUS
 10
0.367989
 20
1.747716
  0
VERTEX
  8
FOREGROUND
  6
CONTINUOUS
 10
0.384164
 20
1.719335
  0
VERTEX
  8
FOREGROUND
  6
CONTINUOUS
 10
0.400698
 20
1.691194
  0
VERTEX
  8
FOREGROUND
  6
CONTINUOUS
 10
0.417589
 20
1.663292
  0
VERTEX
  8
FOREGROUND
  6
CONTINUOUS
 10
0.434834
 20
1.635630
  0
VERTEX
  8
FOREGROUND
  6
CONTINUOUS
 10
0.452429
 20
1.608207
  0
VERTEX
  8
FOREGROUND
  6
CONTINUOUS
 10
0.470371
 20
1.581023
  0
VERTEX
  8
FOREGROUND
  6
CONTINUOUS
 10
0.488659
 20
1.554080
  0
VERTEX
  8
FOREGROUND
  6
CONTINUOUS
 10
0.507287
 20
1.527375
  0
VERTEX
  8
FOREGROUND
  6
CONTINUOUS
 10
0.526254
 20
1.500910
  0
VERTEX
  8
FOREGROUND
  6
CONTINUOUS
 10
0.545556
 20
1.474684
  0
VERTEX
  8
FOREGROUND
  6
CONTINUOUS
 10
0.565191
 20
1.448698
  0
VERTEX
  8
FOREGROUND
  6
CONTINUOUS
 10
0.585155
 20
1.422952
  0
VERTEX
  8
FOREGROUND
  6
CONTINUOUS
 10
0.605445
 20
1.397444
  0
VERTEX
  8
FOREGROUND
  6
CONTINUOUS
 10
0.626058
 20
1.372177
  0
VERTEX
  8
FOREGROUND
  6
CONTINUOUS
 10
0.646991
 20
1.347148
  0
VERTEX
  8
FOREGROUND
  6
CONTINUOUS
 10
0.668242
 20
1.322359
  0
VERTEX
  8
FOREGROUND
  6
CONTINUOUS
 10
0.689806
 20
1.297810
  0
VERTEX
  8
FOREGROUND
  6
CONTINUOUS
 10
0.711681
 20
1.273500
  0
VERTEX
  8
FOREGROUND
  6
CONTINUOUS
 10
0.733865
 20
1.249429
  0
VERTEX
  8
FOREGROUND
  6
CONTINUOUS
 10
0.756353
 20
1.225598
  0
VERTEX
  8
FOREGROUND
  6
CONTINUOUS
 10
0.779143
 20
1.202007
  0
VERTEX
  8
FOREGROUND
  6
CONTINUOUS
 10
0.802232
 20
1.178654
  0
VERTEX
  8
FOREGROUND
  6
CONTINUOUS
 10
0.825616
 20
1.155542
  0
VERTEX
  8
FOREGROUND
  6
CONTINUOUS
 10
0.849293
 20
1.132669
  0
VERTEX
  8
FOREGROUND
  6
CONTINUOUS
 10
0.873260
 20
1.110035
  0
VERTEX
  8
FOREGROUND
  6
CONTINUOUS
 10
0.897513
 20
1.087640
  0
VERTEX
  8
FOREGROUND
  6
CONTINUOUS
 10
0.922050
 20
1.065485
  0
VERTEX
  8
FOREGROUND
  6
CONTINUOUS
 10
0.946868
 20
1.043570
  0
VERTEX
  8
FOREGROUND
  6
CONTINUOUS
 10
0.971963
 20
1.021894
  0
VERTEX
  8
FOREGROUND
  6
CONTINUOUS
 10
0.997332
 20
1.000457
  0
VERTEX
  8
FOREGROUND
  6
CONTINUOUS
 10
1.022973
 20
0.979260
  0
VERTEX
  8
FOREGROUND
  6
CONTINUOUS
 10
1.048882
 20
0.958303
  0
VERTEX
  8
FOREGROUND
  6
CONTINUOUS
 10
1.075056
 20
0.937585
  0
VERTEX
  8
FOREGROUND
  6
CONTINUOUS
 10
1.101492
 20
0.917106
  0
VERTEX
  8
FOREGROUND
  6
CONTINUOUS
 10
1.128188
 20
0.896867
  0
VERTEX
  8
FOREGROUND
  6
CONTINUOUS
 10
1.155140
 20
0.876867
  0
VERTEX
  8
FOREGROUND
  6
CONTINUOUS
 10
1.182344
 20
0.857107
  0
VERTEX
  8
FOREGROUND
  6
CONTINUOUS
 10
1.209799
 20
0.837586
  0
VERTEX
  8
FOREGROUND
  6
CONTINUOUS
 10
1.237501
 20
0.818304
  0
VERTEX
  8
FOREGROUND
  6
CONTINUOUS
 10
1.265447
 20
0.799262
  0
VERTEX
  8
FOREGROUND
  6
CONTINUOUS
 10
1.293634
 20
0.780460
  0
VERTEX
  8
FOREGROUND
  6
CONTINUOUS
 10
1.322058
 20
0.761897
  0
VERTEX
  8
FOREGROUND
  6
CONTINUOUS
 10
1.350717
 20
0.743573
  0
VERTEX
  8
FOREGROUND
  6
CONTINUOUS
 10
1.379608
 20
0.725489
  0
VERTEX
  8
FOREGROUND
  6
CONTINUOUS
 10
1.408728
 20
0.707644
  0
VERTEX
  8
FOREGROUND
  6
CONTINUOUS
 10
1.438074
 20
0.690039
  0
VERTEX
  8
FOREGROUND
  6
CONTINUOUS
 10
1.467642
 20
0.672674
  0
VERTEX
  8
FOREGROUND
  6
CONTINUOUS
 10
1.497429
 20
0.655547
  0
VERTEX
  8
FOREGROUND
  6
CONTINUOUS
 10
1.527434
 20
0.638661
  0
VERTEX
  8
FOREGROUND
  6
CONTINUOUS
 10
1.557651
 20
0.622013
  0
VERTEX
  8
FOREGROUND
  6
CONTINUOUS
 10
1.588079
 20
0.605605
  0
VERTEX
  8
FOREGROUND
  6
CONTINUOUS
 10
1.618715
 20
0.589437
  0
VERTEX
  8
FOREGROUND
  6
CONTINUOUS
 10
1.649554
 20
0.573508
  0
VERTEX
  8
FOREGROUND
  6
CONTINUOUS
 10
1.680595
 20
0.557818
  0
VERTEX
  8
FOREGROUND
  6
CONTINUOUS
 10
1.711835
 20
0.542368
  0
VERTEX
  8
FOREGROUND
  6
CONTINUOUS
 10
1.743269
 20
0.527158
  0
VERTEX
  8
FOREGROUND
  6
CONTINUOUS
 10
1.774896
 20
0.512187
  0
VERTEX
  8
FOREGROUND
  6
CONTINUOUS
 10
1.806712
 20
0.497455
  0
VERTEX
  8
FOREGROUND
  6
CONTINUOUS
 10
1.838713
 20
0.482963
  0
VERTEX
  8
FOREGROUND
  6
CONTINUOUS
 10
1.870898
 20
0.468710
  0
VERTEX
  8
FOREGROUND
  6
CONTINUOUS
 10
1.903263
 20
0.454697
  0
VERTEX
  8
FOREGROUND
  6
CONTINUOUS
 10
1.935805
 20
0.440923
  0
VERTEX
  8
FOREGROUND
  6
CONTINUOUS
 10
1.968520
 20
0.427389
  0
VERTEX
  8
FOREGROUND
  6
CONTINUOUS
 10
2.001406
 20
0.414094
  0
VERTEX
  8
FOREGROUND
  6
CONTINUOUS
 10
2.034461
 20
0.401039
  0
VERTEX
  8
FOREGROUND
  6
CONTINUOUS
 10
2.067679
 20
0.388223
  0
VERTEX
  8
FOREGROUND
  6
CONTINUOUS
 10
2.101060
 20
0.375646
  0
VERTEX
  8
FOREGROUND
  6
CONTINUOUS
 10
2.134599
 20
0.363309
  0
VERTEX
  8
FOREGROUND
  6
CONTINUOUS
 10
2.168294
 20
0.351212
  0
VERTEX
  8
FOREGROUND
  6
CONTINUOUS
 10
2.202141
 20
0.339354
  0
VERTEX
  8
FOREGROUND
  6
CONTINUOUS
 10
2.236138
 20
0.327735
  0
VERTEX
  8
FOREGROUND
  6
CONTINUOUS
 10
2.270281
 20
0.316356
  0
VERTEX
  8
FOREGROUND
  6
CONTINUOUS
 10
2.304568
 20
0.305217
  0
VERTEX
  8
FOREGROUND
  6
CONTINUOUS
 10
2.338995
 20
0.294317
  0
VERTEX
  8
FOREGROUND
  6
CONTINUOUS
 10
2.373559
 20
0.283656
  0
VERTEX
  8
FOREGROUND
  6
CONTINUOUS
 10
2.408258
 20
0.273235
  0
VERTEX
  8
FOREGROUND
  6
CONTINUOUS
 10
2.443088
 20
0.263053
  0
VERTEX
  8
FOREGROUND
  6
CONTINUOUS
 10
2.478046
 20
0.253111
  0
VERTEX
  8
FOREGROUND
  6
CONTINUOUS
 10
2.513129
 20
0.243408
  0
VERTEX
  8
FOREGROUND
  6
CONTINUOUS
 10
2.548334
 20
0.233945
  0
VERTEX
  8
FOREGROUND
  6
CONTINUOUS
 10
2.583658
 20
0.224721
  0
VERTEX
  8
FOREGROUND
  6
CONTINUOUS
 10
2.619098
 20
0.215736
  0
VERTEX
  8
FOREGROUND
  6
CONTINUOUS
 10
2.654651
 20
0.206991
  0
VERTEX
  8
FOREGROUND
  6
CONTINUOUS
 10
2.690314
 20
0.198486
  0
VERTEX
  8
FOREGROUND
  6
CONTINUOUS
 10
2.726084
 20
0.190220
  0
VERTEX
  8
FOREGROUND
  6
CONTINUOUS
 10
2.761958
 20
0.182194
  0
VERTEX
  8
FOREGROUND
  6
CONTINUOUS
 10
2.797932
 20
0.174407
  0
VERTEX
  8
FOREGROUND
  6
CONTINUOUS
 10
2.834004
 20
0.166859
  0
VERTEX
  8
FOREGROUND
  6
CONTINUOUS
 10
2.870171
 20
0.159551
  0
VERTEX
  8
FOREGROUND
  6
CONTINUOUS
 10
2.906429
 20
0.152482
  0
VERTEX
  8
FOREGROUND
  6
CONTINUOUS
 10
2.942776
 20
0.145653
  0
VERTEX
  8
FOREGROUND
  6
CONTINUOUS
 10
2.979208
 20
0.139064
  0
VERTEX
  8
FOREGROUND
  6
CONTINUOUS
 10
3.015723
 20
0.132714
  0
VERTEX
  8
FOREGROUND
  6
CONTINUOUS
 10
3.052318
 20
0.126603
  0
VERTEX
  8
FOREGROUND
  6
CONTINUOUS
 10
3.088988
 20
0.120732
  0
VERTEX
  8
FOREGROUND
  6
CONTINUOUS
 10
3.125732
 20
0.115100
  0
VERTEX
  8
FOREGROUND
  6
CONTINUOUS
 10
3.162547
 20
0.109708
  0
VERTEX
  8
FOREGROUND
  6
CONTINUOUS
 10
3.199428
 20
0.104555
  0
VERTEX
  8
FOREGROUND
  6
CONTINUOUS
 10
3.236374
 20
0.099642
  0
VERTEX
  8
FOREGROUND
  6
CONTINUOUS
 10
3.273381
 20
0.094968
  0
VERTEX
  8
FOREGROUND
  6
CONTINUOUS
 10
3.310446
 20
0.090534
  0
VERTEX
  8
FOREGROUND
  6
CONTINUOUS
 10
3.347566
 20
0.086339
  0
VERTEX
  8
FOREGROUND
  6
CONTINUOUS
 10
3.384738
 20
0.082383
  0
VERTEX
  8
FOREGROUND
  6
CONTINUOUS
 10
3.421959
 20
0.078667
  0
VERTEX
  8
FOREGROUND
  6
CONTINUOUS
 10
3.459225
 20
0.075191
  0
VERTEX
  8
FOREGROUND
  6
CONTINUOUS
 10
3.496535
 20
0.071954
  0
VERTEX
  8
FOREGROUND
  6
CONTINUOUS
 10
3.533885
 20
0.068957
  0
VERTEX
  8
FOREGROUND
  6
CONTINUOUS
 10
3.571271
 20
0.066199
  0
VERTEX
  8
FOREGROUND
  6
CONTINUOUS
 10
3.608691
 20
0.063680
  0
VERTEX
  8
FOREGROUND
  6
CONTINUOUS
 10
3.646142
 20
0.061401
  0
VERTEX
  8
FOREGROUND
  6
CONTINUOUS
 10
3.683620
 20
0.059362
  0
VERTEX
  8
FOREGROUND
  6
CONTINUOUS
 10
3.721123
 20
0.057562
  0
VERTEX
  8
FOREGROUND
  6
CONTINUOUS
 10
3.758648
 20
0.056001
  0
VERTEX
  8
FOREGROUND
  6
CONTINUOUS
 10
3.796191
 20
0.054680
  0
VERTEX
  8
FOREGROUND
  6
CONTINUOUS
 10
3.833749
 20
0.053598
  0
VERTEX
  8
FOREGROUND
  6
CONTINUOUS
 10
3.871320
 20
0.052756
  0
VERTEX
  8
FOREGROUND
  6
CONTINUOUS
 10
3.908900
 20
0.052154
  0
VERTEX
  8
FOREGROUND
  6
CONTINUOUS
 10
3.946486
 20
0.051790
  0
VERTEX
  8
FOREGROUND
  6
CONTINUOUS
 10
3.984076
 20
0.051667
  0
VERTEX
  8
FOREGROUND
  6
CONTINUOUS
 10
4.021666
 20
0.051783
  0
VERTEX
  8
FOREGROUND
  6
CONTINUOUS
 10
4.059253
 20
0.052138
  0
VERTEX
  8
FOREGROUND
  6
CONTINUOUS
 10
4.096834
 20
0.052733
  0
VERTEX
  8
FOREGROUND
  6
CONTINUOUS
 10
4.134407
 20
0.053567
  0
VERTEX
  8
FOREGROUND
  6
CONTINUOUS
 10
4.171967
 20
0.054641
  0
VERTEX
  8
FOREGROUND
  6
CONTINUOUS
 10
4.209512
 20
0.055954
  0
VERTEX
  8
FOREGROUND
  6
CONTINUOUS
 10
4.247039
 20
0.057507
  0
VERTEX
  8
FOREGROUND
  6
CONTINUOUS
 10
4.284545
 20
0.059299
  0
VERTEX
  8
FOREGROUND
  6
CONTINUOUS
 10
4.322027
 20
0.061331
  0
VERTEX
  8
FOREGROUND
  6
CONTINUOUS
 10
4.359482
 20
0.063602
  0
VERTEX
  8
FOREGROUND
  6
CONTINUOUS
 10
4.396906
 20
0.066113
  0
VERTEX
  8
FOREGROUND
  6
CONTINUOUS
 10
4.434298
 20
0.068863
  0
VERTEX
  8
FOREGROUND
  6
CONTINUOUS
 10
4.471652
 20
0.071852
  0
VERTEX
  8
FOREGROUND
  6
CONTINUOUS
 10
4.508968
 20
0.075082
  0
VERTEX
  8
FOREGROUND
  6
CONTINUOUS
 10
4.546241
 20
0.078550
  0
VERTEX
  8
FOREGROUND
  6
CONTINUOUS
 10
4.583468
 20
0.082258
  0
VERTEX
  8
FOREGROUND
  6
CONTINUOUS
 10
4.620647
 20
0.086206
  0
VERTEX
  8
FOREGROUND
  6
CONTINUOUS
 10
4.657775
 20
0.090393
  0
VERTEX
  8
FOREGROUND
  6
CONTINUOUS
 10
4.694847
 20
0.094820
  0
VERTEX
  8
FOREGROUND
  6
CONTINUOUS
 10
4.731862
 20
0.099486
  0
VERTEX
  8
FOREGROUND
  6
CONTINUOUS
 10
4.768817
 20
0.104391
  0
VERTEX
  8
FOREGROUND
  6
CONTINUOUS
 10
4.805707
 20
0.109537
  0
VERTEX
  8
FOREGROUND
  6
CONTINUOUS
 10
4.842531
 20
0.114921
  0
VERTEX
  8
FOREGROUND
  6
CONTINUOUS
 10
4.879285
 20
0.120545
  0
VERTEX
  8
FOREGROUND
  6
CONTINUOUS
 10
4.915966
 20
0.126409
  0
VERTEX
  8
FOREGROUND
  6
CONTINUOUS
 10
4.952571
 20
0.132512
  0
VERTEX
  8
FOREGROUND
  6
CONTINUOUS
 10
4.989097
 20
0.138854
  0
VERTEX
  8
FOREGROUND
  6
CONTINUOUS
 10
5.025541
 20
0.145436
  0
VERTEX
  8
FOREGROUND
  6
CONTINUOUS
 10
5.061900
 20
0.152258
  0
VERTEX
  8
FOREGROUND
  6
CONTINUOUS
 10
5.098171
 20
0.159319
  0
VERTEX
  8
FOREGROUND
  6
CONTINUOUS
 10
5.134350
 20
0.166619
  0
VERTEX
  8
FOREGROUND
  6
CONTINUOUS
 10
5.170435
 20
0.174159
  0
VERTEX
  8
FOREGROUND
  6
CONTINUOUS
 10
5.206423
 20
0.181939
  0
VERTEX
  8
FOREGROUND
  6
CONTINUOUS
 10
5.242311
 20
0.189958
  0
VERTEX
  8
FOREGROUND
  6
CONTINUOUS
 10
5.278095
 20
0.198216
  0
VERTEX
  8
FOREGROUND
  6
CONTINUOUS
 10
5.313773
 20
0.206714
  0
VERTEX
  8
FOREGROUND
  6
CONTINUOUS
 10
5.349342
 20
0.215452
  0
VERTEX
  8
FOREGROUND
  6
CONTINUOUS
 10
5.384798
 20
0.224429
  0
VERTEX
  8
FOREGROUND
  6
CONTINUOUS
 10
5.420138
 20
0.233645
  0
VERTEX
  8
FOREGROUND
  6
CONTINUOUS
 10
5.455360
 20
0.243101
  0
VERTEX
  8
FOREGROUND
  6
CONTINUOUS
 10
5.490460
 20
0.252797
  0
VERTEX
  8
FOREGROUND
  6
CONTINUOUS
 10
5.525435
 20
0.262732
  0
VERTEX
  8
FOREGROUND
  6
CONTINUOUS
 10
5.560283
 20
0.272906
  0
VERTEX
  8
FOREGROUND
  6
CONTINUOUS
 10
5.595000
 20
0.283320
  0
VERTEX
  8
FOREGROUND
  6
CONTINUOUS
 10
5.629583
 20
0.293974
  0
VERTEX
  8
FOREGROUND
  6
CONTINUOUS
 10
5.664029
 20
0.304867
  0
VERTEX
  8
FOREGROUND
  6
CONTINUOUS
 10
5.698335
 20
0.315999
  0
VERTEX
  8
FOREGROUND
  6
CONTINUOUS
 10
5.732498
 20
0.327371
  0
VERTEX
  8
FOREGROUND
  6
CONTINUOUS
 10
5.766516
 20
0.338983
  0
VERTEX
  8
FOREGROUND
  6
CONTINUOUS
 10
5.800384
 20
0.350834
  0
VERTEX
  8
FOREGROUND
  6
CONTINUOUS
 10
5.834100
 20
0.362924
  0
VERTEX
  8
FOREGROUND
  6
CONTINUOUS
 10
5.867660
 20
0.375254
  0
VERTEX
  8
FOREGROUND
  6
CONTINUOUS
 10
5.901063
 20
0.387823
  0
VERTEX
  8
FOREGROUND
  6
CONTINUOUS
 10
5.934304
 20
0.400632
  0
VERTEX
  8
FOREGROUND
  6
CONTINUOUS
 10
5.967381
 20
0.413681
  0
VERTEX
  8
FOREGROUND
  6
CONTINUOUS
 10
6.000291
 20
0.426969
  0
VERTEX
  8
FOREGROUND
  6
CONTINUOUS
 10
6.033030
 20
0.440496
  0
VERTEX
  8
FOREGROUND
  6
CONTINUOUS
 10
6.065596
 20
0.454263
  0
VERTEX
  8
FOREGROUND
  6
CONTINUOUS
 10
6.097986
 20
0.468270
  0
VERTEX
  8
FOREGROUND
  6
CONTINUOUS
 10
6.130195
 20
0.482516
  0
VERTEX
  8
FOREGROUND
  6
CONTINUOUS
 10
6.162223
 20
0.497001
  0
VERTEX
  8
FOREGROUND
  6
CONTINUOUS
 10
6.194064
 20
0.511726
  0
VERTEX
  8
FOREGROUND
  6
CONTINUOUS
 10
6.225717
 20
0.526691
  0
VERTEX
  8
FOREGROUND
  6
CONTINUOUS
 10
6.257178
 20
0.541895
  0
VERTEX
  8
FOREGROUND
  6
CONTINUOUS
 10
6.288445
 20
0.557338
  0
VERTEX
  8
FOREGROUND
  6
CONTINUOUS
 10
6.319513
 20
0.573021
  0
VERTEX
  8
FOREGROUND
  6
CONTINUOUS
 10
6.350381
 20
0.588944
  0
VERTEX
  8
FOREGROUND
  6
CONTINUOUS
 10
6.381045
 20
0.605106
  0
VERTEX
  8
FOREGROUND
  6
CONTINUOUS
 10
6.411502
 20
0.621507
  0
VERTEX
  8
FOREGROUND
  6
CONTINUOUS
 10
6.441748
 20
0.638148
  0
VERTEX
  8
FOREGROUND
  6
CONTINUOUS
 10
6.471782
 20
0.655029
  0
VERTEX
  8
FOREGROUND
  6
CONTINUOUS
 10
6.501600
 20
0.672149
  0
VERTEX
  8
FOREGROUND
  6
CONTINUOUS
 10
6.531198
 20
0.689509
  0
VERTEX
  8
FOREGROUND
  6
CONTINUOUS
 10
6.560575
 20
0.707108
  0
VERTEX
  8
FOREGROUND
  6
CONTINUOUS
 10
6.589726
 20
0.724946
  0
VERTEX
  8
FOREGROUND
  6
CONTINUOUS
 10
6.618649
 20
0.743024
  0
VERTEX
  8
FOREGROUND
  6
CONTINUOUS
 10
6.647340
 20
0.761342
  0
VERTEX
  8
FOREGROUND
  6
CONTINUOUS
 10
6.675797
 20
0.779899
  0
VERTEX
  8
FOREGROUND
  6
CONTINUOUS
 10
6.704017
 20
0.798696
  0
VERTEX
  8
FOREGROUND
  6
CONTINUOUS
 10
6.731996
 20
0.817732
  0
VERTEX
  8
FOREGROUND
  6
CONTINUOUS
 10
6.759732
 20
0.837007
  0
VERTEX
  8
FOREGROUND
  6
CONTINUOUS
 10
6.787221
 20
0.856523
  0
VERTEX
  8
FOREGROUND
  6
CONTINUOUS
 10
6.814461
 20
0.876277
  0
VERTEX
  8
FOREGROUND
  6
CONTINUOUS
 10
6.841447
 20
0.896271
  0
VERTEX
  8
FOREGROUND
  6
CONTINUOUS
 10
6.868179
 20
0.916505
  0
VERTEX
  8
FOREGROUND
  6
CONTINUOUS
 10
6.894651
 20
0.936978
  0
VERTEX
  8
FOREGROUND
  6
CONTINUOUS
 10
6.920862
 20
0.957691
  0
VERTEX
  8
FOREGROUND
  6
CONTINUOUS
 10
6.946807
 20
0.978643
  0
VERTEX
  8
FOREGROUND
  6
CONTINUOUS
 10
6.972485
 20
0.999835
  0
VERTEX
  8
FOREGROUND
  6
CONTINUOUS
 10
6.997892
 20
1.021266
  0
VERTEX
  8
FOREGROUND
  6
CONTINUOUS
 10
7.023025
 20
1.042937
  0
VERTEX
  8
FOREGROUND
  6
CONTINUOUS
 10
7.047881
 20
1.064847
  0
VERTEX
  8
FOREGROUND
  6
CONTINUOUS
 10
7.072457
 20
1.086997
  0
VERTEX
  8
FOREGROUND
  6
CONTINUOUS
 10
7.096749
 20
1.109386
  0
VERTEX
  8
FOREGROUND
  6
CONTINUOUS
 10
7.120756
 20
1.132015
  0
VERTEX
  8
FOREGROUND
  6
CONTINUOUS
 10
7.144473
 20
1.154883
  0
VERTEX
  8
FOREGROUND
  6
CONTINUOUS
 10
7.167898
 20
1.177991
  0
VERTEX
  8
FOREGROUND
  6
CONTINUOUS
 10
7.191028
 20
1.201339
  0
VERTEX
  8
FOREGROUND
  6
CONTINUOUS
 10
7.213859
 20
1.224925
  0
VERTEX
  8
FOREGROUND
  6
CONTINUOUS
 10
7.236389
 20
1.248752
  0
VERTEX
  8
FOREGROUND
  6
CONTINUOUS
 10
7.258615
 20
1.272818
  0
VERTEX
  8
FOREGROUND
  6
CONTINUOUS
 10
7.280533
 20
1.297123
  0
VERTEX
  8
FOREGROUND
  6
CONTINUOUS
 10
7.302140
 20
1.321668
  0
VERTEX
  8
FOREGROUND
  6
CONTINUOUS
 10
7.323434
 20
1.346452
  0
VERTEX
  8
FOREGROUND
  6
CONTINUOUS
 10
7.344411
 20
1.371476
  0
VERTEX
  8
FOREGROUND
  6
CONTINUOUS
 10
7.365069
 20
1.396740
  0
VERTEX
  8
FOREGROUND
  6
CONTINUOUS
 10
7.385404
 20
1.422243
  0
VERTEX
  8
FOREGROUND
  6
CONTINUOUS
 10
7.405413
 20
1.447985
  0
VERTEX
  8
FOREGROUND
  6
CONTINUOUS
 10
7.425093
 20
1.473968
  0
VERTEX
  8
FOREGROUND
  6
CONTINUOUS
 10
7.444441
 20
1.500189
  0
VERTEX
  8
FOREGROUND
  6
CONTINUOUS
 10
7.463455
 20
1.526650
  0
VERTEX
  8
FOREGROUND
  6
CONTINUOUS
 10
7.482130
 20
1.553351
  0
VERTEX
  8
FOREGROUND
  6
CONTINUOUS
 10
7.500465
 20
1.580291
  0
VERTEX
  8
FOREGROUND
  6
CONTINUOUS
 10
7.518455
 20
1.607471
  0
VERTEX
  8
FOREGROUND
  6
CONTINUOUS
 10
7.536098
 20
1.634890
  0
VERTEX
  8
FOREGROUND
  6
CONTINUOUS
 10
7.553391
 20
1.662548
  0
VERTEX
  8
FOREGROUND
  6
CONTINUOUS
 10
7.570331
 20
1.690447
  0
VERTEX
  8
FOREGROUND
  6
CONTINUOUS
 10
7.586915
 20
1.718584
  0
VERTEX
  8
FOREGROUND
  6
CONTINUOUS
 10
7.603140
 20
1.746962
  0
VERTEX
  8
FOREGROUND
  6
CONTINUOUS
 10
7.619002
 20
1.775578
  0
VERTEX
  8
FOREGROUND
  6
CONTINUOUS
 10
7.634498
 20
1.804435
  0
VERTEX
  8
FOREGROUND
  6
CONTINUOUS
 10
7.649627
 20
1.833531
  0
VERTEX
  8
FOREGROUND
  6
CONTINUOUS
 10
7.664383
 20
1.862866
  0
VERTEX
  8
FOREGROUND
  6
CONTINUOUS
 10
7.678766
 20
1.892441
  0
VERTEX
  8
FOREGROUND
  6
CONTINUOUS
 10
7.692770
 20
1.922255
  0
VERTEX
  8
FOREGROUND
  6
CONTINUOUS
 10
7.706394
 20
1.952309
  0
VERTEX
  8
FOREGROUND
  6
CONTINUOUS
 10
7.719635
 20
1.982602
  0
VERTEX
  8
FOREGROUND
  6
CONTINUOUS
 10
7.732488
 20
2.013135
  0
VERTEX
  8
FOREGROUND
  6
CONTINUOUS
 10
7.744952
 20
2.043908
  0
VERTEX
  8
FOREGROUND
  6
CONTINUOUS
 10
7.757023
 20
2.074920
  0
VERTEX
  8
FOREGROUND
  6
CONTINUOUS
 10
7.768699
 20
2.106172
  0
VERTEX
  8
FOREGROUND
  6
CONTINUOUS
 10
7.779975
 20
2.137663
  0
VERTEX
  8
FOREGROUND
  6
CONTINUOUS
 10
7.790850
 20
2.169393
  0
VERTEX
  8
FOREGROUND
  6
CONTINUOUS
 10
7.801319
 20
2.201363
  0
VERTEX
  8
FOREGROUND
  6
CONTINUOUS
 10
7.811380
 20
2.233573
  0
VERTEX
  8
FOREGROUND
  6
CONTINUOUS
 10
7.821031
 20
2.266022
  0
VERTEX
  8
FOREGROUND
  6
CONTINUOUS
 10
7.830267
 20
2.298711
  0
VERTEX
  8
FOREGROUND
  6
CONTINUOUS
 10
7.839086
 20
2.331639
  0
VERTEX
  8
FOREGROUND
  6
CONTINUOUS
 10
7.847485
 20
2.364807
  0
VERTEX
  8
FOREGROUND
  6
CONTINUOUS
 10
7.855460
 20
2.398214
  0
VERTEX
  8
FOREGROUND
  6
CONTINUOUS
 10
7.863009
 20
2.431861
  0
VERTEX
  8
FOREGROUND
  6
CONTINUOUS
 10
7.870129
 20
2.465747
  0
VERTEX
  8
FOREGROUND
  6
CONTINUOUS
 10
7.876817
 20
2.499873
  0
VERTEX
  8
FOREGROUND
  6
CONTINUOUS
 10
7.883069
 20
2.534239
  0
VERTEX
  8
FOREGROUND
  6
CONTINUOUS
 10
7.888882
 20
2.568844
  0
VERTEX
  8
FOREGROUND
  6
CONTINUOUS
 10
7.894254
 20
2.603688
  0
VERTEX
  8
FOREGROUND
  6
CONTINUOUS
 10
7.899181
 20
2.638772
  0
VERTEX
  8
FOREGROUND
  6
CONTINUOUS
 10
7.903661
 20
2.674096
  0
VERTEX
  8
FOREGROUND
  6
CONTINUOUS
 10
7.907690
 20
2.709659
  0
VERTEX
  8
FOREGROUND
  6
CONTINUOUS
 10
7.911265
 20
2.745461
  0
VERTEX
  8
FOREGROUND
  6
CONTINUOUS
 10
7.914384
 20
2.781503
  0
VERTEX
  8
FOREGROUND
  6
CONTINUOUS
 10
7.917043
 20
2.817785
  0
VERTEX
  8
FOREGROUND
  6
CONTINUOUS
 10
7.919238
 20
2.854306
  0
VERTEX
  8
FOREGROUND
  6
CONTINUOUS
 10
7.920968
 20
2.891067
  0
VERTEX
  8
FOREGROUND
  6
CONTINUOUS
 10
7.922229
 20
2.928067
  0
VERTEX
  8
FOREGROUND
  6
CONTINUOUS
 10
7.923018
 20
2.965307
  0
VERTEX
  8
FOREGROUND
  6
CONTINUOUS
 10
7.923332
 20
3.002786
  0
SEQEND
  8
0
  0
ENDSEC
  0
EOF
