  0
SECTION
  2
HEADER
  9
$ACADVER
  1
AC1006
  9
$EXTMIN
 10
0.000000
 20
0.000000
  9
$EXTMAX
 10
1.280000
 20
0.888333
  9
$LTSCALE
 40
0.166667
  9
$PDMODE
 70
    35
  9
$PDSIZE
 40
0.133333
  0
ENDSEC
  0
SECTION
  2
TABLES
  0
TABLE
  2
LTYPE
 70
     9
  0
LTYPE
  2
CONTINUOUS
 70
    64
  3
Solid line
 72
    65
 73
     0
 40
0.000000
  0
LTYPE
  2
DASHED
 70
    64
  3
__ __ __ __ __ __ __ __ __ __ __ __ __ __ __
 72
    65
 73
     2
 40
0.001250
 49
0.000833
 49
-0.000417
  0
LTYPE
  2
HIDDEN
 70
    64
  3
 _ _ _ _ _ _ _ _ _ _ _ _ _ _ _ _ _ _ _ _ _ _
 72
    65
 73
     2
 40
0.000625
 49
0.000417
 49
-0.000208
  0
LTYPE
  2
CENTER
 70
    64
  3
____ _ ____ _ ____ _ ____ _ ____ _ ____ _ ____
 72
    65
 73
     4
 40
0.003333
 49
0.002083
 49
-0.000417
 49
0.000417
 49
-0.000417
  0
LTYPE
  2
PHANTOM
 70
    64
  3
_____ _ _ _____ _ _ _____ _ _ _____ _ _ ____
 72
    65
 73
     6
 40
0.004167
 49
0.002083
 49
-0.000417
 49
0.000417
 49
-0.000417
 49
0.000417
 49
-0.000417
  0
LTYPE
  2
DOT
 70
    64
  3
...............................................
 72
    65
 73
     2
 40
0.000417
 49
0.000000
 49
-0.000417
  0
LTYPE
  2
DASHDOT
 70
    64
  3
__ . __ . __ . __ . __ . __ . __ . __ . __ . __
 72
    65
 73
     4
 40
0.001667
 49
0.000833
 49
-0.000417
 49
0.000000
 49
-0.000417
  0
LTYPE
  2
BORDER
 70
    64
  3
__ __ . __ __ . __ __ . __ __ . __ __ . __ __
 72
    65
 73
     6
 40
0.002917
 49
0.000833
 49
-0.000417
 49
0.000833
 49
-0.000417
 49
0.000000
 49
-0.000417
  0
LTYPE
  2
DIVIDE
 70
    64
  3
__ . . __ . . __ . . __ . . __ . . __ . . __
 72
    65
 73
     6
 40
0.002083
 49
0.000833
 49
-0.000417
 49
0.000000
 49
-0.000417
 49
0.000000
 49
-0.000417
  0
LTYPE
  2
DOTDOT
 70
    64
  3
 . .  . .  . .  . .  . .  . . 
 72
    65
 73
     5
 40
0.000917
 49
-0.000417
 49
0.000000
 49
-0.000417
 49
0.000000
 49
-0.000417
  0
ENDTAB
  0
TABLE
  2
STYLE
 70
     2
  0
STYLE
 70
     0
  2
SN0
 40
0.000000
 41
0.001667
 50
0.000000
 71
     0
 42
0.000000
  3
ROMAND
  0
STYLE
 70
    68
  2
SV0
 40
0.000000
 41
0.001667
 50
0.000000
 71
     0
 42
0.000000
  3
ROMAND
  0
ENDTAB
  0
TABLE
  2
LAYER
 70
     2
  0
LAYER
  2
FOREGROUND
 70
    64
 62
     7
  6
CONTINUOUS
  0
LAYER
  2
BACKGROUND
 70
    65
 62
    -7
  6
CONTINUOUS
  0
ENDTAB
  0
ENDSEC
  0
SECTION
  2
ENTITIES
  0
POLYLINE
  8
FOREGROUND
  6
CONTINUOUS
 66
     1
 40
0.010000
 41
0.010000
 70
     1
  0
VERTEX
  8
FOREGROUND
  6
CONTINUOUS
 10
1.230000
 20
0.445000
  0
VERTEX
  8
FOREGROUND
  6
CONTINUOUS
 10
1.229956
 20
0.450520
  0
VERTEX
  8
FOREGROUND
  6
CONTINUOUS
 10
1.229824
 20
0.456001
  0
VERTEX
  8
FOREGROUND
  6
CONTINUOUS
 10
1.229607
 20
0.461443
  0
VERTEX
  8
FOREGROUND
  6
CONTINUOUS
 10
1.229303
 20
0.466847
  0
VERTEX
  8
FOREGROUND
  6
CONTINUOUS
 10
1.228914
 20
0.472211
  0
VERTEX
  8
FOREGROUND
  6
CONTINUOUS
 10
1.228441
 20
0.477536
  0
VERTEX
  8
FOREGROUND
  6
CONTINUOUS
 10
1.227884
 20
0.482822
  0
VERTEX
  8
FOREGROUND
  6
CONTINUOUS
 10
1.227243
 20
0.488069
  0
VERTEX
  8
FOREGROUND
  6
CONTINUOUS
 10
1.226520
 20
0.493277
  0
VERTEX
  8
FOREGROUND
  6
CONTINUOUS
 10
1.225714
 20
0.498446
  0
VERTEX
  8
FOREGROUND
  6
CONTINUOUS
 10
1.224827
 20
0.503576
  0
VERTEX
  8
FOREGROUND
  6
CONTINUOUS
 10
1.223859
 20
0.508667
  0
VERTEX
  8
FOREGROUND
  6
CONTINUOUS
 10
1.222811
 20
0.513719
  0
VERTEX
  8
FOREGROUND
  6
CONTINUOUS
 10
1.221683
 20
0.518732
  0
VERTEX
  8
FOREGROUND
  6
CONTINUOUS
 10
1.220476
 20
0.523706
  0
VERTEX
  8
FOREGROUND
  6
CONTINUOUS
 10
1.219191
 20
0.528641
  0
VERTEX
  8
FOREGROUND
  6
CONTINUOUS
 10
1.217828
 20
0.533537
  0
VERTEX
  8
FOREGROUND
  6
CONTINUOUS
 10
1.216387
 20
0.538394
  0
VERTEX
  8
FOREGROUND
  6
CONTINUOUS
 10
1.214870
 20
0.543212
  0
VERTEX
  8
FOREGROUND
  6
CONTINUOUS
 10
1.213278
 20
0.547991
  0
VERTEX
  8
FOREGROUND
  6
CONTINUOUS
 10
1.211609
 20
0.552731
  0
VERTEX
  8
FOREGROUND
  6
CONTINUOUS
 10
1.209867
 20
0.557432
  0
VERTEX
  8
FOREGROUND
  6
CONTINUOUS
 10
1.208050
 20
0.562094
  0
VERTEX
  8
FOREGROUND
  6
CONTINUOUS
 10
1.206159
 20
0.566717
  0
VERTEX
  8
FOREGROUND
  6
CONTINUOUS
 10
1.204196
 20
0.571301
  0
VERTEX
  8
FOREGROUND
  6
CONTINUOUS
 10
1.202160
 20
0.575846
  0
VERTEX
  8
FOREGROUND
  6
CONTINUOUS
 10
1.200053
 20
0.580352
  0
VERTEX
  8
FOREGROUND
  6
CONTINUOUS
 10
1.197875
 20
0.584819
  0
VERTEX
  8
FOREGROUND
  6
CONTINUOUS
 10
1.195626
 20
0.589247
  0
VERTEX
  8
FOREGROUND
  6
CONTINUOUS
 10
1.193308
 20
0.593635
  0
VERTEX
  8
FOREGROUND
  6
CONTINUOUS
 10
1.190920
 20
0.597985
  0
VERTEX
  8
FOREGROUND
  6
CONTINUOUS
 10
1.188464
 20
0.602296
  0
VERTEX
  8
FOREGROUND
  6
CONTINUOUS
 10
1.185940
 20
0.606568
  0
VERTEX
  8
FOREGROUND
  6
CONTINUOUS
 10
1.183349
 20
0.610801
  0
VERTEX
  8
FOREGROUND
  6
CONTINUOUS
 10
1.180691
 20
0.614995
  0
VERTEX
  8
FOREGROUND
  6
CONTINUOUS
 10
1.177966
 20
0.619149
  0
VERTEX
  8
FOREGROUND
  6
CONTINUOUS
 10
1.175177
 20
0.623265
  0
VERTEX
  8
FOREGROUND
  6
CONTINUOUS
 10
1.172322
 20
0.627342
  0
VERTEX
  8
FOREGROUND
  6
CONTINUOUS
 10
1.169404
 20
0.631380
  0
VERTEX
  8
FOREGROUND
  6
CONTINUOUS
 10
1.166421
 20
0.635379
  0
VERTEX
  8
FOREGROUND
  6
CONTINUOUS
 10
1.163376
 20
0.639338
  0
VERTEX
  8
FOREGROUND
  6
CONTINUOUS
 10
1.160268
 20
0.643259
  0
VERTEX
  8
FOREGROUND
  6
CONTINUOUS
 10
1.157099
 20
0.647141
  0
VERTEX
  8
FOREGROUND
  6
CONTINUOUS
 10
1.153868
 20
0.650984
  0
VERTEX
  8
FOREGROUND
  6
CONTINUOUS
 10
1.150577
 20
0.654787
  0
VERTEX
  8
FOREGROUND
  6
CONTINUOUS
 10
1.147226
 20
0.658552
  0
VERTEX
  8
FOREGROUND
  6
CONTINUOUS
 10
1.143816
 20
0.662278
  0
VERTEX
  8
FOREGROUND
  6
CONTINUOUS
 10
1.140347
 20
0.665965
  0
VERTEX
  8
FOREGROUND
  6
CONTINUOUS
 10
1.136820
 20
0.669612
  0
VERTEX
  8
FOREGROUND
  6
CONTINUOUS
 10
1.133236
 20
0.673221
  0
VERTEX
  8
FOREGROUND
  6
CONTINUOUS
 10
1.129594
 20
0.676791
  0
VERTEX
  8
FOREGROUND
  6
CONTINUOUS
 10
1.125897
 20
0.680321
  0
VERTEX
  8
FOREGROUND
  6
CONTINUOUS
 10
1.122144
 20
0.683813
  0
VERTEX
  8
FOREGROUND
  6
CONTINUOUS
 10
1.118336
 20
0.687266
  0
VERTEX
  8
FOREGROUND
  6
CONTINUOUS
 10
1.114473
 20
0.690679
  0
VERTEX
  8
FOREGROUND
  6
CONTINUOUS
 10
1.110557
 20
0.694054
  0
VERTEX
  8
FOREGROUND
  6
CONTINUOUS
 10
1.106588
 20
0.697390
  0
VERTEX
  8
FOREGROUND
  6
CONTINUOUS
 10
1.102566
 20
0.700686
  0
VERTEX
  8
FOREGROUND
  6
CONTINUOUS
 10
1.098493
 20
0.703944
  0
VERTEX
  8
FOREGROUND
  6
CONTINUOUS
 10
1.094368
 20
0.707162
  0
VERTEX
  8
FOREGROUND
  6
CONTINUOUS
 10
1.090192
 20
0.710342
  0
VERTEX
  8
FOREGROUND
  6
CONTINUOUS
 10
1.085967
 20
0.713482
  0
VERTEX
  8
FOREGROUND
  6
CONTINUOUS
 10
1.081692
 20
0.716584
  0
VERTEX
  8
FOREGROUND
  6
CONTINUOUS
 10
1.077368
 20
0.719647
  0
VERTEX
  8
FOREGROUND
  6
CONTINUOUS
 10
1.072996
 20
0.722670
  0
VERTEX
  8
FOREGROUND
  6
CONTINUOUS
 10
1.068576
 20
0.725655
  0
VERTEX
  8
FOREGROUND
  6
CONTINUOUS
 10
1.064110
 20
0.728600
  0
VERTEX
  8
FOREGROUND
  6
CONTINUOUS
 10
1.059597
 20
0.731507
  0
VERTEX
  8
FOREGROUND
  6
CONTINUOUS
 10
1.055038
 20
0.734374
  0
VERTEX
  8
FOREGROUND
  6
CONTINUOUS
 10
1.050435
 20
0.737203
  0
VERTEX
  8
FOREGROUND
  6
CONTINUOUS
 10
1.045787
 20
0.739992
  0
VERTEX
  8
FOREGROUND
  6
CONTINUOUS
 10
1.041095
 20
0.742743
  0
VERTEX
  8
FOREGROUND
  6
CONTINUOUS
 10
1.036359
 20
0.745454
  0
VERTEX
  8
FOREGROUND
  6
CONTINUOUS
 10
1.031582
 20
0.748126
  0
VERTEX
  8
FOREGROUND
  6
CONTINUOUS
 10
1.026762
 20
0.750760
  0
VERTEX
  8
FOREGROUND
  6
CONTINUOUS
 10
1.021901
 20
0.753354
  0
VERTEX
  8
FOREGROUND
  6
CONTINUOUS
 10
1.016998
 20
0.755910
  0
VERTEX
  8
FOREGROUND
  6
CONTINUOUS
 10
1.012056
 20
0.758426
  0
VERTEX
  8
FOREGROUND
  6
CONTINUOUS
 10
1.007075
 20
0.760904
  0
VERTEX
  8
FOREGROUND
  6
CONTINUOUS
 10
1.002054
 20
0.763342
  0
VERTEX
  8
FOREGROUND
  6
CONTINUOUS
 10
0.996995
 20
0.765741
  0
VERTEX
  8
FOREGROUND
  6
CONTINUOUS
 10
0.991898
 20
0.768102
  0
VERTEX
  8
FOREGROUND
  6
CONTINUOUS
 10
0.986765
 20
0.770423
  0
VERTEX
  8
FOREGROUND
  6
CONTINUOUS
 10
0.981594
 20
0.772705
  0
VERTEX
  8
FOREGROUND
  6
CONTINUOUS
 10
0.976388
 20
0.774949
  0
VERTEX
  8
FOREGROUND
  6
CONTINUOUS
 10
0.971147
 20
0.777153
  0
VERTEX
  8
FOREGROUND
  6
CONTINUOUS
 10
0.965871
 20
0.779318
  0
VERTEX
  8
FOREGROUND
  6
CONTINUOUS
 10
0.960561
 20
0.781445
  0
VERTEX
  8
FOREGROUND
  6
CONTINUOUS
 10
0.955218
 20
0.783532
  0
VERTEX
  8
FOREGROUND
  6
CONTINUOUS
 10
0.949842
 20
0.785580
  0
VERTEX
  8
FOREGROUND
  6
CONTINUOUS
 10
0.944434
 20
0.787589
  0
VERTEX
  8
FOREGROUND
  6
CONTINUOUS
 10
0.938994
 20
0.789560
  0
VERTEX
  8
FOREGROUND
  6
CONTINUOUS
 10
0.933524
 20
0.791491
  0
VERTEX
  8
FOREGROUND
  6
CONTINUOUS
 10
0.928023
 20
0.793383
  0
VERTEX
  8
FOREGROUND
  6
CONTINUOUS
 10
0.922493
 20
0.795236
  0
VERTEX
  8
FOREGROUND
  6
CONTINUOUS
 10
0.916933
 20
0.797051
  0
VERTEX
  8
FOREGROUND
  6
CONTINUOUS
 10
0.911345
 20
0.798826
  0
VERTEX
  8
FOREGROUND
  6
CONTINUOUS
 10
0.905729
 20
0.800562
  0
VERTEX
  8
FOREGROUND
  6
CONTINUOUS
 10
0.900086
 20
0.802259
  0
VERTEX
  8
FOREGROUND
  6
CONTINUOUS
 10
0.894417
 20
0.803917
  0
VERTEX
  8
FOREGROUND
  6
CONTINUOUS
 10
0.888721
 20
0.805536
  0
VERTEX
  8
FOREGROUND
  6
CONTINUOUS
 10
0.883000
 20
0.807117
  0
VERTEX
  8
FOREGROUND
  6
CONTINUOUS
 10
0.877255
 20
0.808658
  0
VERTEX
  8
FOREGROUND
  6
CONTINUOUS
 10
0.871485
 20
0.810160
  0
VERTEX
  8
FOREGROUND
  6
CONTINUOUS
 10
0.865692
 20
0.811623
  0
VERTEX
  8
FOREGROUND
  6
CONTINUOUS
 10
0.859876
 20
0.813047
  0
VERTEX
  8
FOREGROUND
  6
CONTINUOUS
 10
0.854037
 20
0.814432
  0
VERTEX
  8
FOREGROUND
  6
CONTINUOUS
 10
0.848177
 20
0.815778
  0
VERTEX
  8
FOREGROUND
  6
CONTINUOUS
 10
0.842296
 20
0.817085
  0
VERTEX
  8
FOREGROUND
  6
CONTINUOUS
 10
0.836395
 20
0.818353
  0
VERTEX
  8
FOREGROUND
  6
CONTINUOUS
 10
0.830474
 20
0.819582
  0
VERTEX
  8
FOREGROUND
  6
CONTINUOUS
 10
0.824533
 20
0.820772
  0
VERTEX
  8
FOREGROUND
  6
CONTINUOUS
 10
0.818574
 20
0.821923
  0
VERTEX
  8
FOREGROUND
  6
CONTINUOUS
 10
0.812597
 20
0.823036
  0
VERTEX
  8
FOREGROUND
  6
CONTINUOUS
 10
0.806603
 20
0.824109
  0
VERTEX
  8
FOREGROUND
  6
CONTINUOUS
 10
0.800592
 20
0.825143
  0
VERTEX
  8
FOREGROUND
  6
CONTINUOUS
 10
0.794565
 20
0.826137
  0
VERTEX
  8
FOREGROUND
  6
CONTINUOUS
 10
0.788523
 20
0.827093
  0
VERTEX
  8
FOREGROUND
  6
CONTINUOUS
 10
0.782465
 20
0.828010
  0
VERTEX
  8
FOREGROUND
  6
CONTINUOUS
 10
0.776394
 20
0.828888
  0
VERTEX
  8
FOREGROUND
  6
CONTINUOUS
 10
0.770308
 20
0.829727
  0
VERTEX
  8
FOREGROUND
  6
CONTINUOUS
 10
0.764210
 20
0.830527
  0
VERTEX
  8
FOREGROUND
  6
CONTINUOUS
 10
0.758100
 20
0.831288
  0
VERTEX
  8
FOREGROUND
  6
CONTINUOUS
 10
0.751977
 20
0.832010
  0
VERTEX
  8
FOREGROUND
  6
CONTINUOUS
 10
0.745844
 20
0.832693
  0
VERTEX
  8
FOREGROUND
  6
CONTINUOUS
 10
0.739699
 20
0.833337
  0
VERTEX
  8
FOREGROUND
  6
CONTINUOUS
 10
0.733545
 20
0.833942
  0
VERTEX
  8
FOREGROUND
  6
CONTINUOUS
 10
0.727382
 20
0.834508
  0
VERTEX
  8
FOREGROUND
  6
CONTINUOUS
 10
0.721210
 20
0.835034
  0
VERTEX
  8
FOREGROUND
  6
CONTINUOUS
 10
0.715030
 20
0.835522
  0
VERTEX
  8
FOREGROUND
  6
CONTINUOUS
 10
0.708843
 20
0.835971
  0
VERTEX
  8
FOREGROUND
  6
CONTINUOUS
 10
0.702648
 20
0.836381
  0
VERTEX
  8
FOREGROUND
  6
CONTINUOUS
 10
0.696448
 20
0.836752
  0
VERTEX
  8
FOREGROUND
  6
CONTINUOUS
 10
0.690241
 20
0.837083
  0
VERTEX
  8
FOREGROUND
  6
CONTINUOUS
 10
0.684030
 20
0.837376
  0
VERTEX
  8
FOREGROUND
  6
CONTINUOUS
 10
0.677815
 20
0.837630
  0
VERTEX
  8
FOREGROUND
  6
CONTINUOUS
 10
0.671595
 20
0.837845
  0
VERTEX
  8
FOREGROUND
  6
CONTINUOUS
 10
0.665373
 20
0.838021
  0
VERTEX
  8
FOREGROUND
  6
CONTINUOUS
 10
0.659148
 20
0.838157
  0
VERTEX
  8
FOREGROUND
  6
CONTINUOUS
 10
0.652921
 20
0.838255
  0
VERTEX
  8
FOREGROUND
  6
CONTINUOUS
 10
0.646693
 20
0.838314
  0
VERTEX
  8
FOREGROUND
  6
CONTINUOUS
 10
0.640464
 20
0.838333
  0
VERTEX
  8
FOREGROUND
  6
CONTINUOUS
 10
0.634236
 20
0.838314
  0
VERTEX
  8
FOREGROUND
  6
CONTINUOUS
 10
0.628007
 20
0.838256
  0
VERTEX
  8
FOREGROUND
  6
CONTINUOUS
 10
0.621780
 20
0.838158
  0
VERTEX
  8
FOREGROUND
  6
CONTINUOUS
 10
0.615555
 20
0.838022
  0
VERTEX
  8
FOREGROUND
  6
CONTINUOUS
 10
0.609332
 20
0.837847
  0
VERTEX
  8
FOREGROUND
  6
CONTINUOUS
 10
0.603112
 20
0.837632
  0
VERTEX
  8
FOREGROUND
  6
CONTINUOUS
 10
0.596896
 20
0.837379
  0
VERTEX
  8
FOREGROUND
  6
CONTINUOUS
 10
0.590684
 20
0.837087
  0
VERTEX
  8
FOREGROUND
  6
CONTINUOUS
 10
0.584478
 20
0.836755
  0
VERTEX
  8
FOREGROUND
  6
CONTINUOUS
 10
0.578276
 20
0.836385
  0
VERTEX
  8
FOREGROUND
  6
CONTINUOUS
 10
0.572081
 20
0.835975
  0
VERTEX
  8
FOREGROUND
  6
CONTINUOUS
 10
0.565892
 20
0.835527
  0
VERTEX
  8
FOREGROUND
  6
CONTINUOUS
 10
0.559711
 20
0.835039
  0
VERTEX
  8
FOREGROUND
  6
CONTINUOUS
 10
0.553538
 20
0.834513
  0
VERTEX
  8
FOREGROUND
  6
CONTINUOUS
 10
0.547373
 20
0.833947
  0
VERTEX
  8
FOREGROUND
  6
CONTINUOUS
 10
0.541218
 20
0.833343
  0
VERTEX
  8
FOREGROUND
  6
CONTINUOUS
 10
0.535072
 20
0.832699
  0
VERTEX
  8
FOREGROUND
  6
CONTINUOUS
 10
0.528937
 20
0.832017
  0
VERTEX
  8
FOREGROUND
  6
CONTINUOUS
 10
0.522813
 20
0.831295
  0
VERTEX
  8
FOREGROUND
  6
CONTINUOUS
 10
0.516700
 20
0.830535
  0
VERTEX
  8
FOREGROUND
  6
CONTINUOUS
 10
0.510600
 20
0.829735
  0
VERTEX
  8
FOREGROUND
  6
CONTINUOUS
 10
0.504513
 20
0.828897
  0
VERTEX
  8
FOREGROUND
  6
CONTINUOUS
 10
0.498439
 20
0.828019
  0
VERTEX
  8
FOREGROUND
  6
CONTINUOUS
 10
0.492380
 20
0.827103
  0
VERTEX
  8
FOREGROUND
  6
CONTINUOUS
 10
0.486335
 20
0.826147
  0
VERTEX
  8
FOREGROUND
  6
CONTINUOUS
 10
0.480305
 20
0.825152
  0
VERTEX
  8
FOREGROUND
  6
CONTINUOUS
 10
0.474292
 20
0.824119
  0
VERTEX
  8
FOREGROUND
  6
CONTINUOUS
 10
0.468295
 20
0.823046
  0
VERTEX
  8
FOREGROUND
  6
CONTINUOUS
 10
0.462316
 20
0.821935
  0
VERTEX
  8
FOREGROUND
  6
CONTINUOUS
 10
0.456354
 20
0.820784
  0
VERTEX
  8
FOREGROUND
  6
CONTINUOUS
 10
0.450411
 20
0.819594
  0
VERTEX
  8
FOREGROUND
  6
CONTINUOUS
 10
0.444487
 20
0.818365
  0
VERTEX
  8
FOREGROUND
  6
CONTINUOUS
 10
0.438582
 20
0.817098
  0
VERTEX
  8
FOREGROUND
  6
CONTINUOUS
 10
0.432698
 20
0.815791
  0
VERTEX
  8
FOREGROUND
  6
CONTINUOUS
 10
0.426835
 20
0.814445
  0
VERTEX
  8
FOREGROUND
  6
CONTINUOUS
 10
0.420993
 20
0.813061
  0
VERTEX
  8
FOREGROUND
  6
CONTINUOUS
 10
0.415174
 20
0.811637
  0
VERTEX
  8
FOREGROUND
  6
CONTINUOUS
 10
0.409377
 20
0.810174
  0
VERTEX
  8
FOREGROUND
  6
CONTINUOUS
 10
0.403604
 20
0.808672
  0
VERTEX
  8
FOREGROUND
  6
CONTINUOUS
 10
0.397855
 20
0.807132
  0
VERTEX
  8
FOREGROUND
  6
CONTINUOUS
 10
0.392130
 20
0.805552
  0
VERTEX
  8
FOREGROUND
  6
CONTINUOUS
 10
0.386431
 20
0.803933
  0
VERTEX
  8
FOREGROUND
  6
CONTINUOUS
 10
0.380757
 20
0.802275
  0
VERTEX
  8
FOREGROUND
  6
CONTINUOUS
 10
0.375110
 20
0.800578
  0
VERTEX
  8
FOREGROUND
  6
CONTINUOUS
 10
0.369490
 20
0.798842
  0
VERTEX
  8
FOREGROUND
  6
CONTINUOUS
 10
0.363898
 20
0.797068
  0
VERTEX
  8
FOREGROUND
  6
CONTINUOUS
 10
0.358334
 20
0.795254
  0
VERTEX
  8
FOREGROUND
  6
CONTINUOUS
 10
0.352800
 20
0.793401
  0
VERTEX
  8
FOREGROUND
  6
CONTINUOUS
 10
0.347294
 20
0.791509
  0
VERTEX
  8
FOREGROUND
  6
CONTINUOUS
 10
0.341819
 20
0.789578
  0
VERTEX
  8
FOREGROUND
  6
CONTINUOUS
 10
0.336375
 20
0.787608
  0
VERTEX
  8
FOREGROUND
  6
CONTINUOUS
 10
0.330962
 20
0.785599
  0
VERTEX
  8
FOREGROUND
  6
CONTINUOUS
 10
0.325581
 20
0.783551
  0
VERTEX
  8
FOREGROUND
  6
CONTINUOUS
 10
0.320233
 20
0.781464
  0
VERTEX
  8
FOREGROUND
  6
CONTINUOUS
 10
0.314918
 20
0.779338
  0
VERTEX
  8
FOREGROUND
  6
CONTINUOUS
 10
0.309637
 20
0.777173
  0
VERTEX
  8
FOREGROUND
  6
CONTINUOUS
 10
0.304391
 20
0.774969
  0
VERTEX
  8
FOREGROUND
  6
CONTINUOUS
 10
0.299180
 20
0.772726
  0
VERTEX
  8
FOREGROUND
  6
CONTINUOUS
 10
0.294004
 20
0.770444
  0
VERTEX
  8
FOREGROUND
  6
CONTINUOUS
 10
0.288865
 20
0.768123
  0
VERTEX
  8
FOREGROUND
  6
CONTINUOUS
 10
0.283762
 20
0.765763
  0
VERTEX
  8
FOREGROUND
  6
CONTINUOUS
 10
0.278698
 20
0.763364
  0
VERTEX
  8
FOREGROUND
  6
CONTINUOUS
 10
0.273671
 20
0.760926
  0
VERTEX
  8
FOREGROUND
  6
CONTINUOUS
 10
0.268684
 20
0.758449
  0
VERTEX
  8
FOREGROUND
  6
CONTINUOUS
 10
0.263736
 20
0.755933
  0
VERTEX
  8
FOREGROUND
  6
CONTINUOUS
 10
0.258828
 20
0.753378
  0
VERTEX
  8
FOREGROUND
  6
CONTINUOUS
 10
0.253960
 20
0.750784
  0
VERTEX
  8
FOREGROUND
  6
CONTINUOUS
 10
0.249134
 20
0.748151
  0
VERTEX
  8
FOREGROUND
  6
CONTINUOUS
 10
0.244350
 20
0.745478
  0
VERTEX
  8
FOREGROUND
  6
CONTINUOUS
 10
0.239608
 20
0.742767
  0
VERTEX
  8
FOREGROUND
  6
CONTINUOUS
 10
0.234910
 20
0.740017
  0
VERTEX
  8
FOREGROUND
  6
CONTINUOUS
 10
0.230255
 20
0.737228
  0
VERTEX
  8
FOREGROUND
  6
CONTINUOUS
 10
0.225645
 20
0.734400
  0
VERTEX
  8
FOREGROUND
  6
CONTINUOUS
 10
0.221080
 20
0.731533
  0
VERTEX
  8
FOREGROUND
  6
CONTINUOUS
 10
0.216560
 20
0.728626
  0
VERTEX
  8
FOREGROUND
  6
CONTINUOUS
 10
0.212086
 20
0.725681
  0
VERTEX
  8
FOREGROUND
  6
CONTINUOUS
 10
0.207660
 20
0.722697
  0
VERTEX
  8
FOREGROUND
  6
CONTINUOUS
 10
0.203281
 20
0.719674
  0
VERTEX
  8
FOREGROUND
  6
CONTINUOUS
 10
0.198950
 20
0.716611
  0
VERTEX
  8
FOREGROUND
  6
CONTINUOUS
 10
0.194667
 20
0.713510
  0
VERTEX
  8
FOREGROUND
  6
CONTINUOUS
 10
0.190434
 20
0.710370
  0
VERTEX
  8
FOREGROUND
  6
CONTINUOUS
 10
0.186251
 20
0.707190
  0
VERTEX
  8
FOREGROUND
  6
CONTINUOUS
 10
0.182119
 20
0.703972
  0
VERTEX
  8
FOREGROUND
  6
CONTINUOUS
 10
0.178038
 20
0.700715
  0
VERTEX
  8
FOREGROUND
  6
CONTINUOUS
 10
0.174008
 20
0.697418
  0
VERTEX
  8
FOREGROUND
  6
CONTINUOUS
 10
0.170031
 20
0.694083
  0
VERTEX
  8
FOREGROUND
  6
CONTINUOUS
 10
0.166107
 20
0.690709
  0
VERTEX
  8
FOREGROUND
  6
CONTINUOUS
 10
0.162236
 20
0.687295
  0
VERTEX
  8
FOREGROUND
  6
CONTINUOUS
 10
0.158420
 20
0.683843
  0
VERTEX
  8
FOREGROUND
  6
CONTINUOUS
 10
0.154659
 20
0.680351
  0
VERTEX
  8
FOREGROUND
  6
CONTINUOUS
 10
0.150953
 20
0.676821
  0
VERTEX
  8
FOREGROUND
  6
CONTINUOUS
 10
0.147303
 20
0.673251
  0
VERTEX
  8
FOREGROUND
  6
CONTINUOUS
 10
0.143710
 20
0.669643
  0
VERTEX
  8
FOREGROUND
  6
CONTINUOUS
 10
0.140175
 20
0.665995
  0
VERTEX
  8
FOREGROUND
  6
CONTINUOUS
 10
0.136697
 20
0.662309
  0
VERTEX
  8
FOREGROUND
  6
CONTINUOUS
 10
0.133278
 20
0.658583
  0
VERTEX
  8
FOREGROUND
  6
CONTINUOUS
 10
0.129918
 20
0.654819
  0
VERTEX
  8
FOREGROUND
  6
CONTINUOUS
 10
0.126618
 20
0.651015
  0
VERTEX
  8
FOREGROUND
  6
CONTINUOUS
 10
0.123378
 20
0.647173
  0
VERTEX
  8
FOREGROUND
  6
CONTINUOUS
 10
0.120200
 20
0.643291
  0
VERTEX
  8
FOREGROUND
  6
CONTINUOUS
 10
0.117083
 20
0.639371
  0
VERTEX
  8
FOREGROUND
  6
CONTINUOUS
 10
0.114028
 20
0.635411
  0
VERTEX
  8
FOREGROUND
  6
CONTINUOUS
 10
0.111037
 20
0.631413
  0
VERTEX
  8
FOREGROUND
  6
CONTINUOUS
 10
0.108108
 20
0.627375
  0
VERTEX
  8
FOREGROUND
  6
CONTINUOUS
 10
0.105244
 20
0.623298
  0
VERTEX
  8
FOREGROUND
  6
CONTINUOUS
 10
0.102445
 20
0.619183
  0
VERTEX
  8
FOREGROUND
  6
CONTINUOUS
 10
0.099711
 20
0.615028
  0
VERTEX
  8
FOREGROUND
  6
CONTINUOUS
 10
0.097043
 20
0.610834
  0
VERTEX
  8
FOREGROUND
  6
CONTINUOUS
 10
0.094442
 20
0.606602
  0
VERTEX
  8
FOREGROUND
  6
CONTINUOUS
 10
0.091907
 20
0.602330
  0
VERTEX
  8
FOREGROUND
  6
CONTINUOUS
 10
0.089441
 20
0.598019
  0
VERTEX
  8
FOREGROUND
  6
CONTINUOUS
 10
0.087043
 20
0.593670
  0
VERTEX
  8
FOREGROUND
  6
CONTINUOUS
 10
0.084715
 20
0.589281
  0
VERTEX
  8
FOREGROUND
  6
CONTINUOUS
 10
0.082455
 20
0.584853
  0
VERTEX
  8
FOREGROUND
  6
CONTINUOUS
 10
0.080267
 20
0.580386
  0
VERTEX
  8
FOREGROUND
  6
CONTINUOUS
 10
0.078149
 20
0.575881
  0
VERTEX
  8
FOREGROUND
  6
CONTINUOUS
 10
0.076102
 20
0.571336
  0
VERTEX
  8
FOREGROUND
  6
CONTINUOUS
 10
0.074128
 20
0.566752
  0
VERTEX
  8
FOREGROUND
  6
CONTINUOUS
 10
0.072227
 20
0.562129
  0
VERTEX
  8
FOREGROUND
  6
CONTINUOUS
 10
0.070399
 20
0.557467
  0
VERTEX
  8
FOREGROUND
  6
CONTINUOUS
 10
0.068645
 20
0.552766
  0
VERTEX
  8
FOREGROUND
  6
CONTINUOUS
 10
0.066966
 20
0.548027
  0
VERTEX
  8
FOREGROUND
  6
CONTINUOUS
 10
0.065361
 20
0.543248
  0
VERTEX
  8
FOREGROUND
  6
CONTINUOUS
 10
0.063833
 20
0.538430
  0
VERTEX
  8
FOREGROUND
  6
CONTINUOUS
 10
0.062381
 20
0.533573
  0
VERTEX
  8
FOREGROUND
  6
CONTINUOUS
 10
0.061007
 20
0.528677
  0
VERTEX
  8
FOREGROUND
  6
CONTINUOUS
 10
0.059710
 20
0.523742
  0
VERTEX
  8
FOREGROUND
  6
CONTINUOUS
 10
0.058491
 20
0.518768
  0
VERTEX
  8
FOREGROUND
  6
CONTINUOUS
 10
0.057351
 20
0.513755
  0
VERTEX
  8
FOREGROUND
  6
CONTINUOUS
 10
0.056291
 20
0.508703
  0
VERTEX
  8
FOREGROUND
  6
CONTINUOUS
 10
0.055311
 20
0.503612
  0
VERTEX
  8
FOREGROUND
  6
CONTINUOUS
 10
0.054412
 20
0.498482
  0
VERTEX
  8
FOREGROUND
  6
CONTINUOUS
 10
0.053594
 20
0.493313
  0
VERTEX
  8
FOREGROUND
  6
CONTINUOUS
 10
0.052859
 20
0.488105
  0
VERTEX
  8
FOREGROUND
  6
CONTINUOUS
 10
0.052206
 20
0.482858
  0
VERTEX
  8
FOREGROUND
  6
CONTINUOUS
 10
0.051636
 20
0.477572
  0
VERTEX
  8
FOREGROUND
  6
CONTINUOUS
 10
0.051150
 20
0.472247
  0
VERTEX
  8
FOREGROUND
  6
CONTINUOUS
 10
0.050749
 20
0.466883
  0
VERTEX
  8
FOREGROUND
  6
CONTINUOUS
 10
0.050432
 20
0.461480
  0
VERTEX
  8
FOREGROUND
  6
CONTINUOUS
 10
0.050202
 20
0.456038
  0
VERTEX
  8
FOREGROUND
  6
CONTINUOUS
 10
0.050058
 20
0.450557
  0
VERTEX
  8
FOREGROUND
  6
CONTINUOUS
 10
0.050000
 20
0.445036
  0
VERTEX
  8
FOREGROUND
  6
CONTINUOUS
 10
0.050000
 20
0.445036
  0
VERTEX
  8
FOREGROUND
  6
CONTINUOUS
 10
0.050044
 20
0.439516
  0
VERTEX
  8
FOREGROUND
  6
CONTINUOUS
 10
0.050174
 20
0.434035
  0
VERTEX
  8
FOREGROUND
  6
CONTINUOUS
 10
0.050391
 20
0.428593
  0
VERTEX
  8
FOREGROUND
  6
CONTINUOUS
 10
0.050694
 20
0.423190
  0
VERTEX
  8
FOREGROUND
  6
CONTINUOUS
 10
0.051082
 20
0.417826
  0
VERTEX
  8
FOREGROUND
  6
CONTINUOUS
 10
0.051555
 20
0.412501
  0
VERTEX
  8
FOREGROUND
  6
CONTINUOUS
 10
0.052111
 20
0.407214
  0
VERTEX
  8
FOREGROUND
  6
CONTINUOUS
 10
0.052751
 20
0.401967
  0
VERTEX
  8
FOREGROUND
  6
CONTINUOUS
 10
0.053474
 20
0.396759
  0
VERTEX
  8
FOREGROUND
  6
CONTINUOUS
 10
0.054279
 20
0.391590
  0
VERTEX
  8
FOREGROUND
  6
CONTINUOUS
 10
0.055165
 20
0.386460
  0
VERTEX
  8
FOREGROUND
  6
CONTINUOUS
 10
0.056132
 20
0.381369
  0
VERTEX
  8
FOREGROUND
  6
CONTINUOUS
 10
0.057180
 20
0.376317
  0
VERTEX
  8
FOREGROUND
  6
CONTINUOUS
 10
0.058307
 20
0.371304
  0
VERTEX
  8
FOREGROUND
  6
CONTINUOUS
 10
0.059513
 20
0.366330
  0
VERTEX
  8
FOREGROUND
  6
CONTINUOUS
 10
0.060798
 20
0.361395
  0
VERTEX
  8
FOREGROUND
  6
CONTINUOUS
 10
0.062160
 20
0.356498
  0
VERTEX
  8
FOREGROUND
  6
CONTINUOUS
 10
0.063600
 20
0.351641
  0
VERTEX
  8
FOREGROUND
  6
CONTINUOUS
 10
0.065116
 20
0.346823
  0
VERTEX
  8
FOREGROUND
  6
CONTINUOUS
 10
0.066708
 20
0.342044
  0
VERTEX
  8
FOREGROUND
  6
CONTINUOUS
 10
0.068376
 20
0.337304
  0
VERTEX
  8
FOREGROUND
  6
CONTINUOUS
 10
0.070118
 20
0.332603
  0
VERTEX
  8
FOREGROUND
  6
CONTINUOUS
 10
0.071934
 20
0.327941
  0
VERTEX
  8
FOREGROUND
  6
CONTINUOUS
 10
0.073824
 20
0.323318
  0
VERTEX
  8
FOREGROUND
  6
CONTINUOUS
 10
0.075787
 20
0.318734
  0
VERTEX
  8
FOREGROUND
  6
CONTINUOUS
 10
0.077822
 20
0.314189
  0
VERTEX
  8
FOREGROUND
  6
CONTINUOUS
 10
0.079928
 20
0.309683
  0
VERTEX
  8
FOREGROUND
  6
CONTINUOUS
 10
0.082106
 20
0.305216
  0
VERTEX
  8
FOREGROUND
  6
CONTINUOUS
 10
0.084354
 20
0.300788
  0
VERTEX
  8
FOREGROUND
  6
CONTINUOUS
 10
0.086672
 20
0.296399
  0
VERTEX
  8
FOREGROUND
  6
CONTINUOUS
 10
0.089059
 20
0.292049
  0
VERTEX
  8
FOREGROUND
  6
CONTINUOUS
 10
0.091514
 20
0.287738
  0
VERTEX
  8
FOREGROUND
  6
CONTINUOUS
 10
0.094038
 20
0.283466
  0
VERTEX
  8
FOREGROUND
  6
CONTINUOUS
 10
0.096628
 20
0.279233
  0
VERTEX
  8
FOREGROUND
  6
CONTINUOUS
 10
0.099286
 20
0.275039
  0
VERTEX
  8
FOREGROUND
  6
CONTINUOUS
 10
0.102009
 20
0.270884
  0
VERTEX
  8
FOREGROUND
  6
CONTINUOUS
 10
0.104799
 20
0.266768
  0
VERTEX
  8
FOREGROUND
  6
CONTINUOUS
 10
0.107652
 20
0.262691
  0
VERTEX
  8
FOREGROUND
  6
CONTINUOUS
 10
0.110571
 20
0.258653
  0
VERTEX
  8
FOREGROUND
  6
CONTINUOUS
 10
0.113552
 20
0.254654
  0
VERTEX
  8
FOREGROUND
  6
CONTINUOUS
 10
0.116597
 20
0.250694
  0
VERTEX
  8
FOREGROUND
  6
CONTINUOUS
 10
0.119704
 20
0.246773
  0
VERTEX
  8
FOREGROUND
  6
CONTINUOUS
 10
0.122873
 20
0.242891
  0
VERTEX
  8
FOREGROUND
  6
CONTINUOUS
 10
0.126103
 20
0.239048
  0
VERTEX
  8
FOREGROUND
  6
CONTINUOUS
 10
0.129394
 20
0.235244
  0
VERTEX
  8
FOREGROUND
  6
CONTINUOUS
 10
0.132744
 20
0.231479
  0
VERTEX
  8
FOREGROUND
  6
CONTINUOUS
 10
0.136154
 20
0.227753
  0
VERTEX
  8
FOREGROUND
  6
CONTINUOUS
 10
0.139622
 20
0.224066
  0
VERTEX
  8
FOREGROUND
  6
CONTINUOUS
 10
0.143149
 20
0.220418
  0
VERTEX
  8
FOREGROUND
  6
CONTINUOUS
 10
0.146733
 20
0.216809
  0
VERTEX
  8
FOREGROUND
  6
CONTINUOUS
 10
0.150373
 20
0.213240
  0
VERTEX
  8
FOREGROUND
  6
CONTINUOUS
 10
0.154070
 20
0.209709
  0
VERTEX
  8
FOREGROUND
  6
CONTINUOUS
 10
0.157823
 20
0.206217
  0
VERTEX
  8
FOREGROUND
  6
CONTINUOUS
 10
0.161631
 20
0.202764
  0
VERTEX
  8
FOREGROUND
  6
CONTINUOUS
 10
0.165493
 20
0.199350
  0
VERTEX
  8
FOREGROUND
  6
CONTINUOUS
 10
0.169408
 20
0.195975
  0
VERTEX
  8
FOREGROUND
  6
CONTINUOUS
 10
0.173377
 20
0.192639
  0
VERTEX
  8
FOREGROUND
  6
CONTINUOUS
 10
0.177398
 20
0.189342
  0
VERTEX
  8
FOREGROUND
  6
CONTINUOUS
 10
0.181471
 20
0.186085
  0
VERTEX
  8
FOREGROUND
  6
CONTINUOUS
 10
0.185596
 20
0.182866
  0
VERTEX
  8
FOREGROUND
  6
CONTINUOUS
 10
0.189771
 20
0.179686
  0
VERTEX
  8
FOREGROUND
  6
CONTINUOUS
 10
0.193996
 20
0.176545
  0
VERTEX
  8
FOREGROUND
  6
CONTINUOUS
 10
0.198271
 20
0.173443
  0
VERTEX
  8
FOREGROUND
  6
CONTINUOUS
 10
0.202594
 20
0.170380
  0
VERTEX
  8
FOREGROUND
  6
CONTINUOUS
 10
0.206966
 20
0.167357
  0
VERTEX
  8
FOREGROUND
  6
CONTINUOUS
 10
0.211385
 20
0.164372
  0
VERTEX
  8
FOREGROUND
  6
CONTINUOUS
 10
0.215851
 20
0.161426
  0
VERTEX
  8
FOREGROUND
  6
CONTINUOUS
 10
0.220363
 20
0.158519
  0
VERTEX
  8
FOREGROUND
  6
CONTINUOUS
 10
0.224921
 20
0.155652
  0
VERTEX
  8
FOREGROUND
  6
CONTINUOUS
 10
0.229525
 20
0.152823
  0
VERTEX
  8
FOREGROUND
  6
CONTINUOUS
 10
0.234172
 20
0.150033
  0
VERTEX
  8
FOREGROUND
  6
CONTINUOUS
 10
0.238864
 20
0.147282
  0
VERTEX
  8
FOREGROUND
  6
CONTINUOUS
 10
0.243599
 20
0.144570
  0
VERTEX
  8
FOREGROUND
  6
CONTINUOUS
 10
0.248376
 20
0.141898
  0
VERTEX
  8
FOREGROUND
  6
CONTINUOUS
 10
0.253196
 20
0.139264
  0
VERTEX
  8
FOREGROUND
  6
CONTINUOUS
 10
0.258057
 20
0.136669
  0
VERTEX
  8
FOREGROUND
  6
CONTINUOUS
 10
0.262958
 20
0.134114
  0
VERTEX
  8
FOREGROUND
  6
CONTINUOUS
 10
0.267900
 20
0.131597
  0
VERTEX
  8
FOREGROUND
  6
CONTINUOUS
 10
0.272882
 20
0.129119
  0
VERTEX
  8
FOREGROUND
  6
CONTINUOUS
 10
0.277902
 20
0.126680
  0
VERTEX
  8
FOREGROUND
  6
CONTINUOUS
 10
0.282961
 20
0.124281
  0
VERTEX
  8
FOREGROUND
  6
CONTINUOUS
 10
0.288057
 20
0.121920
  0
VERTEX
  8
FOREGROUND
  6
CONTINUOUS
 10
0.293190
 20
0.119598
  0
VERTEX
  8
FOREGROUND
  6
CONTINUOUS
 10
0.298360
 20
0.117316
  0
VERTEX
  8
FOREGROUND
  6
CONTINUOUS
 10
0.303566
 20
0.115072
  0
VERTEX
  8
FOREGROUND
  6
CONTINUOUS
 10
0.308807
 20
0.112867
  0
VERTEX
  8
FOREGROUND
  6
CONTINUOUS
 10
0.314082
 20
0.110702
  0
VERTEX
  8
FOREGROUND
  6
CONTINUOUS
 10
0.319392
 20
0.108575
  0
VERTEX
  8
FOREGROUND
  6
CONTINUOUS
 10
0.324735
 20
0.106488
  0
VERTEX
  8
FOREGROUND
  6
CONTINUOUS
 10
0.330110
 20
0.104439
  0
VERTEX
  8
FOREGROUND
  6
CONTINUOUS
 10
0.335518
 20
0.102429
  0
VERTEX
  8
FOREGROUND
  6
CONTINUOUS
 10
0.340958
 20
0.100459
  0
VERTEX
  8
FOREGROUND
  6
CONTINUOUS
 10
0.346428
 20
0.098527
  0
VERTEX
  8
FOREGROUND
  6
CONTINUOUS
 10
0.351928
 20
0.096635
  0
VERTEX
  8
FOREGROUND
  6
CONTINUOUS
 10
0.357459
 20
0.094781
  0
VERTEX
  8
FOREGROUND
  6
CONTINUOUS
 10
0.363018
 20
0.092967
  0
VERTEX
  8
FOREGROUND
  6
CONTINUOUS
 10
0.368606
 20
0.091191
  0
VERTEX
  8
FOREGROUND
  6
CONTINUOUS
 10
0.374221
 20
0.089454
  0
VERTEX
  8
FOREGROUND
  6
CONTINUOUS
 10
0.379864
 20
0.087757
  0
VERTEX
  8
FOREGROUND
  6
CONTINUOUS
 10
0.385533
 20
0.086098
  0
VERTEX
  8
FOREGROUND
  6
CONTINUOUS
 10
0.391229
 20
0.084479
  0
VERTEX
  8
FOREGROUND
  6
CONTINUOUS
 10
0.396949
 20
0.082898
  0
VERTEX
  8
FOREGROUND
  6
CONTINUOUS
 10
0.402695
 20
0.081357
  0
VERTEX
  8
FOREGROUND
  6
CONTINUOUS
 10
0.408464
 20
0.079854
  0
VERTEX
  8
FOREGROUND
  6
CONTINUOUS
 10
0.414257
 20
0.078391
  0
VERTEX
  8
FOREGROUND
  6
CONTINUOUS
 10
0.420073
 20
0.076966
  0
VERTEX
  8
FOREGROUND
  6
CONTINUOUS
 10
0.425911
 20
0.075581
  0
VERTEX
  8
FOREGROUND
  6
CONTINUOUS
 10
0.431771
 20
0.074235
  0
VERTEX
  8
FOREGROUND
  6
CONTINUOUS
 10
0.437652
 20
0.072927
  0
VERTEX
  8
FOREGROUND
  6
CONTINUOUS
 10
0.443553
 20
0.071659
  0
VERTEX
  8
FOREGROUND
  6
CONTINUOUS
 10
0.449474
 20
0.070429
  0
VERTEX
  8
FOREGROUND
  6
CONTINUOUS
 10
0.455414
 20
0.069239
  0
VERTEX
  8
FOREGROUND
  6
CONTINUOUS
 10
0.461373
 20
0.068088
  0
VERTEX
  8
FOREGROUND
  6
CONTINUOUS
 10
0.467350
 20
0.066975
  0
VERTEX
  8
FOREGROUND
  6
CONTINUOUS
 10
0.473344
 20
0.065902
  0
VERTEX
  8
FOREGROUND
  6
CONTINUOUS
 10
0.479355
 20
0.064867
  0
VERTEX
  8
FOREGROUND
  6
CONTINUOUS
 10
0.485382
 20
0.063872
  0
VERTEX
  8
FOREGROUND
  6
CONTINUOUS
 10
0.491424
 20
0.062916
  0
VERTEX
  8
FOREGROUND
  6
CONTINUOUS
 10
0.497482
 20
0.061998
  0
VERTEX
  8
FOREGROUND
  6
CONTINUOUS
 10
0.503553
 20
0.061120
  0
VERTEX
  8
FOREGROUND
  6
CONTINUOUS
 10
0.509638
 20
0.060281
  0
VERTEX
  8
FOREGROUND
  6
CONTINUOUS
 10
0.515736
 20
0.059480
  0
VERTEX
  8
FOREGROUND
  6
CONTINUOUS
 10
0.521847
 20
0.058719
  0
VERTEX
  8
FOREGROUND
  6
CONTINUOUS
 10
0.527969
 20
0.057997
  0
VERTEX
  8
FOREGROUND
  6
CONTINUOUS
 10
0.534103
 20
0.057314
  0
VERTEX
  8
FOREGROUND
  6
CONTINUOUS
 10
0.540247
 20
0.056669
  0
VERTEX
  8
FOREGROUND
  6
CONTINUOUS
 10
0.546401
 20
0.056064
  0
VERTEX
  8
FOREGROUND
  6
CONTINUOUS
 10
0.552564
 20
0.055498
  0
VERTEX
  8
FOREGROUND
  6
CONTINUOUS
 10
0.558736
 20
0.054971
  0
VERTEX
  8
FOREGROUND
  6
CONTINUOUS
 10
0.564916
 20
0.054482
  0
VERTEX
  8
FOREGROUND
  6
CONTINUOUS
 10
0.571103
 20
0.054033
  0
VERTEX
  8
FOREGROUND
  6
CONTINUOUS
 10
0.577297
 20
0.053623
  0
VERTEX
  8
FOREGROUND
  6
CONTINUOUS
 10
0.583498
 20
0.053252
  0
VERTEX
  8
FOREGROUND
  6
CONTINUOUS
 10
0.589704
 20
0.052920
  0
VERTEX
  8
FOREGROUND
  6
CONTINUOUS
 10
0.595915
 20
0.052626
  0
VERTEX
  8
FOREGROUND
  6
CONTINUOUS
 10
0.602131
 20
0.052372
  0
VERTEX
  8
FOREGROUND
  6
CONTINUOUS
 10
0.608350
 20
0.052157
  0
VERTEX
  8
FOREGROUND
  6
CONTINUOUS
 10
0.614572
 20
0.051981
  0
VERTEX
  8
FOREGROUND
  6
CONTINUOUS
 10
0.620797
 20
0.051844
  0
VERTEX
  8
FOREGROUND
  6
CONTINUOUS
 10
0.627024
 20
0.051746
  0
VERTEX
  8
FOREGROUND
  6
CONTINUOUS
 10
0.633252
 20
0.051687
  0
VERTEX
  8
FOREGROUND
  6
CONTINUOUS
 10
0.639481
 20
0.051667
  0
VERTEX
  8
FOREGROUND
  6
CONTINUOUS
 10
0.645710
 20
0.051686
  0
VERTEX
  8
FOREGROUND
  6
CONTINUOUS
 10
0.651938
 20
0.051743
  0
VERTEX
  8
FOREGROUND
  6
CONTINUOUS
 10
0.658165
 20
0.051840
  0
VERTEX
  8
FOREGROUND
  6
CONTINUOUS
 10
0.664390
 20
0.051976
  0
VERTEX
  8
FOREGROUND
  6
CONTINUOUS
 10
0.670613
 20
0.052151
  0
VERTEX
  8
FOREGROUND
  6
CONTINUOUS
 10
0.676833
 20
0.052365
  0
VERTEX
  8
FOREGROUND
  6
CONTINUOUS
 10
0.683049
 20
0.052618
  0
VERTEX
  8
FOREGROUND
  6
CONTINUOUS
 10
0.689261
 20
0.052910
  0
VERTEX
  8
FOREGROUND
  6
CONTINUOUS
 10
0.695468
 20
0.053241
  0
VERTEX
  8
FOREGROUND
  6
CONTINUOUS
 10
0.701670
 20
0.053611
  0
VERTEX
  8
FOREGROUND
  6
CONTINUOUS
 10
0.707865
 20
0.054020
  0
VERTEX
  8
FOREGROUND
  6
CONTINUOUS
 10
0.714054
 20
0.054469
  0
VERTEX
  8
FOREGROUND
  6
CONTINUOUS
 10
0.720235
 20
0.054956
  0
VERTEX
  8
FOREGROUND
  6
CONTINUOUS
 10
0.726408
 20
0.055482
  0
VERTEX
  8
FOREGROUND
  6
CONTINUOUS
 10
0.732573
 20
0.056047
  0
VERTEX
  8
FOREGROUND
  6
CONTINUOUS
 10
0.738728
 20
0.056651
  0
VERTEX
  8
FOREGROUND
  6
CONTINUOUS
 10
0.744874
 20
0.057294
  0
VERTEX
  8
FOREGROUND
  6
CONTINUOUS
 10
0.751009
 20
0.057976
  0
VERTEX
  8
FOREGROUND
  6
CONTINUOUS
 10
0.757134
 20
0.058697
  0
VERTEX
  8
FOREGROUND
  6
CONTINUOUS
 10
0.763246
 20
0.059457
  0
VERTEX
  8
FOREGROUND
  6
CONTINUOUS
 10
0.769346
 20
0.060257
  0
VERTEX
  8
FOREGROUND
  6
CONTINUOUS
 10
0.775434
 20
0.061095
  0
VERTEX
  8
FOREGROUND
  6
CONTINUOUS
 10
0.781508
 20
0.061972
  0
VERTEX
  8
FOREGROUND
  6
CONTINUOUS
 10
0.787567
 20
0.062888
  0
VERTEX
  8
FOREGROUND
  6
CONTINUOUS
 10
0.793612
 20
0.063843
  0
VERTEX
  8
FOREGROUND
  6
CONTINUOUS
 10
0.799642
 20
0.064838
  0
VERTEX
  8
FOREGROUND
  6
CONTINUOUS
 10
0.805655
 20
0.065871
  0
VERTEX
  8
FOREGROUND
  6
CONTINUOUS
 10
0.811652
 20
0.066943
  0
VERTEX
  8
FOREGROUND
  6
CONTINUOUS
 10
0.817632
 20
0.068054
  0
VERTEX
  8
FOREGROUND
  6
CONTINUOUS
 10
0.823594
 20
0.069205
  0
VERTEX
  8
FOREGROUND
  6
CONTINUOUS
 10
0.829537
 20
0.070394
  0
VERTEX
  8
FOREGROUND
  6
CONTINUOUS
 10
0.835461
 20
0.071622
  0
VERTEX
  8
FOREGROUND
  6
CONTINUOUS
 10
0.841366
 20
0.072890
  0
VERTEX
  8
FOREGROUND
  6
CONTINUOUS
 10
0.847250
 20
0.074196
  0
VERTEX
  8
FOREGROUND
  6
CONTINUOUS
 10
0.853114
 20
0.075541
  0
VERTEX
  8
FOREGROUND
  6
CONTINUOUS
 10
0.858956
 20
0.076926
  0
VERTEX
  8
FOREGROUND
  6
CONTINUOUS
 10
0.864775
 20
0.078349
  0
VERTEX
  8
FOREGROUND
  6
CONTINUOUS
 10
0.870572
 20
0.079812
  0
VERTEX
  8
FOREGROUND
  6
CONTINUOUS
 10
0.876346
 20
0.081313
  0
VERTEX
  8
FOREGROUND
  6
CONTINUOUS
 10
0.882095
 20
0.082853
  0
VERTEX
  8
FOREGROUND
  6
CONTINUOUS
 10
0.887820
 20
0.084433
  0
VERTEX
  8
FOREGROUND
  6
CONTINUOUS
 10
0.893519
 20
0.086051
  0
VERTEX
  8
FOREGROUND
  6
CONTINUOUS
 10
0.899193
 20
0.087709
  0
VERTEX
  8
FOREGROUND
  6
CONTINUOUS
 10
0.904840
 20
0.089405
  0
VERTEX
  8
FOREGROUND
  6
CONTINUOUS
 10
0.910460
 20
0.091141
  0
VERTEX
  8
FOREGROUND
  6
CONTINUOUS
 10
0.916053
 20
0.092915
  0
VERTEX
  8
FOREGROUND
  6
CONTINUOUS
 10
0.921617
 20
0.094729
  0
VERTEX
  8
FOREGROUND
  6
CONTINUOUS
 10
0.927152
 20
0.096581
  0
VERTEX
  8
FOREGROUND
  6
CONTINUOUS
 10
0.932658
 20
0.098473
  0
VERTEX
  8
FOREGROUND
  6
CONTINUOUS
 10
0.938133
 20
0.100403
  0
VERTEX
  8
FOREGROUND
  6
CONTINUOUS
 10
0.943577
 20
0.102373
  0
VERTEX
  8
FOREGROUND
  6
CONTINUOUS
 10
0.948991
 20
0.104382
  0
VERTEX
  8
FOREGROUND
  6
CONTINUOUS
 10
0.954372
 20
0.106429
  0
VERTEX
  8
FOREGROUND
  6
CONTINUOUS
 10
0.959720
 20
0.108516
  0
VERTEX
  8
FOREGROUND
  6
CONTINUOUS
 10
0.965035
 20
0.110642
  0
VERTEX
  8
FOREGROUND
  6
CONTINUOUS
 10
0.970317
 20
0.112806
  0
VERTEX
  8
FOREGROUND
  6
CONTINUOUS
 10
0.975563
 20
0.115010
  0
VERTEX
  8
FOREGROUND
  6
CONTINUOUS
 10
0.980775
 20
0.117253
  0
VERTEX
  8
FOREGROUND
  6
CONTINUOUS
 10
0.985951
 20
0.119534
  0
VERTEX
  8
FOREGROUND
  6
CONTINUOUS
 10
0.991090
 20
0.121855
  0
VERTEX
  8
FOREGROUND
  6
CONTINUOUS
 10
0.996193
 20
0.124215
  0
VERTEX
  8
FOREGROUND
  6
CONTINUOUS
 10
1.001258
 20
0.126613
  0
VERTEX
  8
FOREGROUND
  6
CONTINUOUS
 10
1.006285
 20
0.129051
  0
VERTEX
  8
FOREGROUND
  6
CONTINUOUS
 10
1.011273
 20
0.131528
  0
VERTEX
  8
FOREGROUND
  6
CONTINUOUS
 10
1.016221
 20
0.134044
  0
VERTEX
  8
FOREGROUND
  6
CONTINUOUS
 10
1.021129
 20
0.136599
  0
VERTEX
  8
FOREGROUND
  6
CONTINUOUS
 10
1.025997
 20
0.139192
  0
VERTEX
  8
FOREGROUND
  6
CONTINUOUS
 10
1.030824
 20
0.141825
  0
VERTEX
  8
FOREGROUND
  6
CONTINUOUS
 10
1.035608
 20
0.144497
  0
VERTEX
  8
FOREGROUND
  6
CONTINUOUS
 10
1.040350
 20
0.147208
  0
VERTEX
  8
FOREGROUND
  6
CONTINUOUS
 10
1.045049
 20
0.149958
  0
VERTEX
  8
FOREGROUND
  6
CONTINUOUS
 10
1.049704
 20
0.152747
  0
VERTEX
  8
FOREGROUND
  6
CONTINUOUS
 10
1.054315
 20
0.155575
  0
VERTEX
  8
FOREGROUND
  6
CONTINUOUS
 10
1.058881
 20
0.158442
  0
VERTEX
  8
FOREGROUND
  6
CONTINUOUS
 10
1.063401
 20
0.161348
  0
VERTEX
  8
FOREGROUND
  6
CONTINUOUS
 10
1.067874
 20
0.164292
  0
VERTEX
  8
FOREGROUND
  6
CONTINUOUS
 10
1.072301
 20
0.167276
  0
VERTEX
  8
FOREGROUND
  6
CONTINUOUS
 10
1.076681
 20
0.170299
  0
VERTEX
  8
FOREGROUND
  6
CONTINUOUS
 10
1.081012
 20
0.173361
  0
VERTEX
  8
FOREGROUND
  6
CONTINUOUS
 10
1.085295
 20
0.176463
  0
VERTEX
  8
FOREGROUND
  6
CONTINUOUS
 10
1.089529
 20
0.179603
  0
VERTEX
  8
FOREGROUND
  6
CONTINUOUS
 10
1.093712
 20
0.182782
  0
VERTEX
  8
FOREGROUND
  6
CONTINUOUS
 10
1.097845
 20
0.186000
  0
VERTEX
  8
FOREGROUND
  6
CONTINUOUS
 10
1.101927
 20
0.189257
  0
VERTEX
  8
FOREGROUND
  6
CONTINUOUS
 10
1.105957
 20
0.192553
  0
VERTEX
  8
FOREGROUND
  6
CONTINUOUS
 10
1.109934
 20
0.195888
  0
VERTEX
  8
FOREGROUND
  6
CONTINUOUS
 10
1.113859
 20
0.199262
  0
VERTEX
  8
FOREGROUND
  6
CONTINUOUS
 10
1.117730
 20
0.202675
  0
VERTEX
  8
FOREGROUND
  6
CONTINUOUS
 10
1.121547
 20
0.206127
  0
VERTEX
  8
FOREGROUND
  6
CONTINUOUS
 10
1.125308
 20
0.209619
  0
VERTEX
  8
FOREGROUND
  6
CONTINUOUS
 10
1.129015
 20
0.213149
  0
VERTEX
  8
FOREGROUND
  6
CONTINUOUS
 10
1.132665
 20
0.216718
  0
VERTEX
  8
FOREGROUND
  6
CONTINUOUS
 10
1.136258
 20
0.220326
  0
VERTEX
  8
FOREGROUND
  6
CONTINUOUS
 10
1.139795
 20
0.223974
  0
VERTEX
  8
FOREGROUND
  6
CONTINUOUS
 10
1.143273
 20
0.227660
  0
VERTEX
  8
FOREGROUND
  6
CONTINUOUS
 10
1.146692
 20
0.231385
  0
VERTEX
  8
FOREGROUND
  6
CONTINUOUS
 10
1.150053
 20
0.235150
  0
VERTEX
  8
FOREGROUND
  6
CONTINUOUS
 10
1.153353
 20
0.238953
  0
VERTEX
  8
FOREGROUND
  6
CONTINUOUS
 10
1.156593
 20
0.242795
  0
VERTEX
  8
FOREGROUND
  6
CONTINUOUS
 10
1.159773
 20
0.246677
  0
VERTEX
  8
FOREGROUND
  6
CONTINUOUS
 10
1.162890
 20
0.250597
  0
VERTEX
  8
FOREGROUND
  6
CONTINUOUS
 10
1.165945
 20
0.254556
  0
VERTEX
  8
FOREGROUND
  6
CONTINUOUS
 10
1.168938
 20
0.258555
  0
VERTEX
  8
FOREGROUND
  6
CONTINUOUS
 10
1.171866
 20
0.262592
  0
VERTEX
  8
FOREGROUND
  6
CONTINUOUS
 10
1.174731
 20
0.266669
  0
VERTEX
  8
FOREGROUND
  6
CONTINUOUS
 10
1.177531
 20
0.270784
  0
VERTEX
  8
FOREGROUND
  6
CONTINUOUS
 10
1.180265
 20
0.274939
  0
VERTEX
  8
FOREGROUND
  6
CONTINUOUS
 10
1.182934
 20
0.279132
  0
VERTEX
  8
FOREGROUND
  6
CONTINUOUS
 10
1.185536
 20
0.283365
  0
VERTEX
  8
FOREGROUND
  6
CONTINUOUS
 10
1.188071
 20
0.287636
  0
VERTEX
  8
FOREGROUND
  6
CONTINUOUS
 10
1.190538
 20
0.291947
  0
VERTEX
  8
FOREGROUND
  6
CONTINUOUS
 10
1.192936
 20
0.296296
  0
VERTEX
  8
FOREGROUND
  6
CONTINUOUS
 10
1.195265
 20
0.300685
  0
VERTEX
  8
FOREGROUND
  6
CONTINUOUS
 10
1.197525
 20
0.305112
  0
VERTEX
  8
FOREGROUND
  6
CONTINUOUS
 10
1.199714
 20
0.309579
  0
VERTEX
  8
FOREGROUND
  6
CONTINUOUS
 10
1.201833
 20
0.314085
  0
VERTEX
  8
FOREGROUND
  6
CONTINUOUS
 10
1.203880
 20
0.318629
  0
VERTEX
  8
FOREGROUND
  6
CONTINUOUS
 10
1.205855
 20
0.323213
  0
VERTEX
  8
FOREGROUND
  6
CONTINUOUS
 10
1.207757
 20
0.327836
  0
VERTEX
  8
FOREGROUND
  6
CONTINUOUS
 10
1.209585
 20
0.332497
  0
VERTEX
  8
FOREGROUND
  6
CONTINUOUS
 10
1.211340
 20
0.337198
  0
VERTEX
  8
FOREGROUND
  6
CONTINUOUS
 10
1.213020
 20
0.341938
  0
VERTEX
  8
FOREGROUND
  6
CONTINUOUS
 10
1.214625
 20
0.346717
  0
VERTEX
  8
FOREGROUND
  6
CONTINUOUS
 10
1.216154
 20
0.351535
  0
VERTEX
  8
FOREGROUND
  6
CONTINUOUS
 10
1.217606
 20
0.356391
  0
VERTEX
  8
FOREGROUND
  6
CONTINUOUS
 10
1.218982
 20
0.361287
  0
VERTEX
  8
FOREGROUND
  6
CONTINUOUS
 10
1.220279
 20
0.366222
  0
VERTEX
  8
FOREGROUND
  6
CONTINUOUS
 10
1.221499
 20
0.371196
  0
VERTEX
  8
FOREGROUND
  6
CONTINUOUS
 10
1.222639
 20
0.376209
  0
VERTEX
  8
FOREGROUND
  6
CONTINUOUS
 10
1.223700
 20
0.381261
  0
VERTEX
  8
FOREGROUND
  6
CONTINUOUS
 10
1.224680
 20
0.386352
  0
VERTEX
  8
FOREGROUND
  6
CONTINUOUS
 10
1.225580
 20
0.391482
  0
VERTEX
  8
FOREGROUND
  6
CONTINUOUS
 10
1.226399
 20
0.396651
  0
VERTEX
  8
FOREGROUND
  6
CONTINUOUS
 10
1.227135
 20
0.401859
  0
VERTEX
  8
FOREGROUND
  6
CONTINUOUS
 10
1.227789
 20
0.407106
  0
VERTEX
  8
FOREGROUND
  6
CONTINUOUS
 10
1.228360
 20
0.412392
  0
VERTEX
  8
FOREGROUND
  6
CONTINUOUS
 10
1.228846
 20
0.417717
  0
VERTEX
  8
FOREGROUND
  6
CONTINUOUS
 10
1.229248
 20
0.423081
  0
VERTEX
  8
FOREGROUND
  6
CONTINUOUS
 10
1.229565
 20
0.428484
  0
VERTEX
  8
FOREGROUND
  6
CONTINUOUS
 10
1.229797
 20
0.433926
  0
VERTEX
  8
FOREGROUND
  6
CONTINUOUS
 10
1.229942
 20
0.439407
  0
VERTEX
  8
FOREGROUND
  6
CONTINUOUS
 10
1.230000
 20
0.444927
  0
SEQEND
  8
0
  0
ENDSEC
  0
EOF
