  0
SECTION
  2
HEADER
  9
$ACADVER
  1
AC1006
  9
$EXTMIN
 10
0.000000
 20
0.000000
  9
$EXTMAX
 10
1.676667
 20
0.888333
  9
$LTSCALE
 40
0.166667
  9
$PDMODE
 70
    35
  9
$PDSIZE
 40
0.133333
  0
ENDSEC
  0
SECTION
  2
TABLES
  0
TABLE
  2
LTYPE
 70
     9
  0
LTYPE
  2
CONTINUOUS
 70
    64
  3
Solid line
 72
    65
 73
     0
 40
0.000000
  0
LTYPE
  2
DASHED
 70
    64
  3
__ __ __ __ __ __ __ __ __ __ __ __ __ __ __
 72
    65
 73
     2
 40
0.001250
 49
0.000833
 49
-0.000417
  0
LTYPE
  2
HIDDEN
 70
    64
  3
 _ _ _ _ _ _ _ _ _ _ _ _ _ _ _ _ _ _ _ _ _ _
 72
    65
 73
     2
 40
0.000625
 49
0.000417
 49
-0.000208
  0
LTYPE
  2
CENTER
 70
    64
  3
____ _ ____ _ ____ _ ____ _ ____ _ ____ _ ____
 72
    65
 73
     4
 40
0.003333
 49
0.002083
 49
-0.000417
 49
0.000417
 49
-0.000417
  0
LTYPE
  2
PHANTOM
 70
    64
  3
_____ _ _ _____ _ _ _____ _ _ _____ _ _ ____
 72
    65
 73
     6
 40
0.004167
 49
0.002083
 49
-0.000417
 49
0.000417
 49
-0.000417
 49
0.000417
 49
-0.000417
  0
LTYPE
  2
DOT
 70
    64
  3
...............................................
 72
    65
 73
     2
 40
0.000417
 49
0.000000
 49
-0.000417
  0
LTYPE
  2
DASHDOT
 70
    64
  3
__ . __ . __ . __ . __ . __ . __ . __ . __ . __
 72
    65
 73
     4
 40
0.001667
 49
0.000833
 49
-0.000417
 49
0.000000
 49
-0.000417
  0
LTYPE
  2
BORDER
 70
    64
  3
__ __ . __ __ . __ __ . __ __ . __ __ . __ __
 72
    65
 73
     6
 40
0.002917
 49
0.000833
 49
-0.000417
 49
0.000833
 49
-0.000417
 49
0.000000
 49
-0.000417
  0
LTYPE
  2
DIVIDE
 70
    64
  3
__ . . __ . . __ . . __ . . __ . . __ . . __
 72
    65
 73
     6
 40
0.002083
 49
0.000833
 49
-0.000417
 49
0.000000
 49
-0.000417
 49
0.000000
 49
-0.000417
  0
LTYPE
  2
DOTDOT
 70
    64
  3
 . .  . .  . .  . .  . .  . . 
 72
    65
 73
     5
 40
0.000917
 49
-0.000417
 49
0.000000
 49
-0.000417
 49
0.000000
 49
-0.000417
  0
ENDTAB
  0
TABLE
  2
STYLE
 70
     2
  0
STYLE
 70
     0
  2
SN0
 40
0.000000
 41
0.001667
 50
0.000000
 71
     0
 42
0.000000
  3
ROMAND
  0
STYLE
 70
    68
  2
SV0
 40
0.000000
 41
0.001667
 50
0.000000
 71
     0
 42
0.000000
  3
ROMAND
  0
ENDTAB
  0
TABLE
  2
LAYER
 70
     2
  0
LAYER
  2
FOREGROUND
 70
    64
 62
     7
  6
CONTINUOUS
  0
LAYER
  2
BACKGROUND
 70
    65
 62
    -7
  6
CONTINUOUS
  0
ENDTAB
  0
ENDSEC
  0
SECTION
  2
ENTITIES
  0
POLYLINE
  8
FOREGROUND
  6
CONTINUOUS
 66
     1
 40
0.010000
 41
0.010000
 70
     1
  0
VERTEX
  8
FOREGROUND
  6
CONTINUOUS
 10
1.626666
 20
0.445000
  0
VERTEX
  8
FOREGROUND
  6
CONTINUOUS
 10
1.626610
 20
0.450700
  0
VERTEX
  8
FOREGROUND
  6
CONTINUOUS
 10
1.626429
 20
0.456359
  0
VERTEX
  8
FOREGROUND
  6
CONTINUOUS
 10
1.626126
 20
0.461976
  0
VERTEX
  8
FOREGROUND
  6
CONTINUOUS
 10
1.625700
 20
0.467551
  0
VERTEX
  8
FOREGROUND
  6
CONTINUOUS
 10
1.625153
 20
0.473085
  0
VERTEX
  8
FOREGROUND
  6
CONTINUOUS
 10
1.624486
 20
0.478577
  0
VERTEX
  8
FOREGROUND
  6
CONTINUOUS
 10
1.623699
 20
0.484027
  0
VERTEX
  8
FOREGROUND
  6
CONTINUOUS
 10
1.622793
 20
0.489436
  0
VERTEX
  8
FOREGROUND
  6
CONTINUOUS
 10
1.621770
 20
0.494804
  0
VERTEX
  8
FOREGROUND
  6
CONTINUOUS
 10
1.620629
 20
0.500129
  0
VERTEX
  8
FOREGROUND
  6
CONTINUOUS
 10
1.619373
 20
0.505413
  0
VERTEX
  8
FOREGROUND
  6
CONTINUOUS
 10
1.618002
 20
0.510656
  0
VERTEX
  8
FOREGROUND
  6
CONTINUOUS
 10
1.616517
 20
0.515857
  0
VERTEX
  8
FOREGROUND
  6
CONTINUOUS
 10
1.614919
 20
0.521016
  0
VERTEX
  8
FOREGROUND
  6
CONTINUOUS
 10
1.613208
 20
0.526134
  0
VERTEX
  8
FOREGROUND
  6
CONTINUOUS
 10
1.611386
 20
0.531210
  0
VERTEX
  8
FOREGROUND
  6
CONTINUOUS
 10
1.609453
 20
0.536244
  0
VERTEX
  8
FOREGROUND
  6
CONTINUOUS
 10
1.607411
 20
0.541237
  0
VERTEX
  8
FOREGROUND
  6
CONTINUOUS
 10
1.605260
 20
0.546189
  0
VERTEX
  8
FOREGROUND
  6
CONTINUOUS
 10
1.603002
 20
0.551098
  0
VERTEX
  8
FOREGROUND
  6
CONTINUOUS
 10
1.600637
 20
0.555966
  0
VERTEX
  8
FOREGROUND
  6
CONTINUOUS
 10
1.598165
 20
0.560793
  0
VERTEX
  8
FOREGROUND
  6
CONTINUOUS
 10
1.595589
 20
0.565578
  0
VERTEX
  8
FOREGROUND
  6
CONTINUOUS
 10
1.592909
 20
0.570321
  0
VERTEX
  8
FOREGROUND
  6
CONTINUOUS
 10
1.590125
 20
0.575022
  0
VERTEX
  8
FOREGROUND
  6
CONTINUOUS
 10
1.587239
 20
0.579683
  0
VERTEX
  8
FOREGROUND
  6
CONTINUOUS
 10
1.584252
 20
0.584301
  0
VERTEX
  8
FOREGROUND
  6
CONTINUOUS
 10
1.581164
 20
0.588878
  0
VERTEX
  8
FOREGROUND
  6
CONTINUOUS
 10
1.577977
 20
0.593413
  0
VERTEX
  8
FOREGROUND
  6
CONTINUOUS
 10
1.574691
 20
0.597907
  0
VERTEX
  8
FOREGROUND
  6
CONTINUOUS
 10
1.571307
 20
0.602359
  0
VERTEX
  8
FOREGROUND
  6
CONTINUOUS
 10
1.567827
 20
0.606769
  0
VERTEX
  8
FOREGROUND
  6
CONTINUOUS
 10
1.564251
 20
0.611138
  0
VERTEX
  8
FOREGROUND
  6
CONTINUOUS
 10
1.560579
 20
0.615465
  0
VERTEX
  8
FOREGROUND
  6
CONTINUOUS
 10
1.556813
 20
0.619751
  0
VERTEX
  8
FOREGROUND
  6
CONTINUOUS
 10
1.552955
 20
0.623995
  0
VERTEX
  8
FOREGROUND
  6
CONTINUOUS
 10
1.549004
 20
0.628197
  0
VERTEX
  8
FOREGROUND
  6
CONTINUOUS
 10
1.544961
 20
0.632358
  0
VERTEX
  8
FOREGROUND
  6
CONTINUOUS
 10
1.540828
 20
0.636477
  0
VERTEX
  8
FOREGROUND
  6
CONTINUOUS
 10
1.536606
 20
0.640555
  0
VERTEX
  8
FOREGROUND
  6
CONTINUOUS
 10
1.532294
 20
0.644591
  0
VERTEX
  8
FOREGROUND
  6
CONTINUOUS
 10
1.527895
 20
0.648585
  0
VERTEX
  8
FOREGROUND
  6
CONTINUOUS
 10
1.523410
 20
0.652538
  0
VERTEX
  8
FOREGROUND
  6
CONTINUOUS
 10
1.518838
 20
0.656449
  0
VERTEX
  8
FOREGROUND
  6
CONTINUOUS
 10
1.514181
 20
0.660318
  0
VERTEX
  8
FOREGROUND
  6
CONTINUOUS
 10
1.509440
 20
0.664146
  0
VERTEX
  8
FOREGROUND
  6
CONTINUOUS
 10
1.504616
 20
0.667933
  0
VERTEX
  8
FOREGROUND
  6
CONTINUOUS
 10
1.499710
 20
0.671677
  0
VERTEX
  8
FOREGROUND
  6
CONTINUOUS
 10
1.494722
 20
0.675381
  0
VERTEX
  8
FOREGROUND
  6
CONTINUOUS
 10
1.489653
 20
0.679042
  0
VERTEX
  8
FOREGROUND
  6
CONTINUOUS
 10
1.484505
 20
0.682662
  0
VERTEX
  8
FOREGROUND
  6
CONTINUOUS
 10
1.479279
 20
0.686240
  0
VERTEX
  8
FOREGROUND
  6
CONTINUOUS
 10
1.473974
 20
0.689777
  0
VERTEX
  8
FOREGROUND
  6
CONTINUOUS
 10
1.468593
 20
0.693272
  0
VERTEX
  8
FOREGROUND
  6
CONTINUOUS
 10
1.463136
 20
0.696726
  0
VERTEX
  8
FOREGROUND
  6
CONTINUOUS
 10
1.457604
 20
0.700138
  0
VERTEX
  8
FOREGROUND
  6
CONTINUOUS
 10
1.451997
 20
0.703508
  0
VERTEX
  8
FOREGROUND
  6
CONTINUOUS
 10
1.446318
 20
0.706837
  0
VERTEX
  8
FOREGROUND
  6
CONTINUOUS
 10
1.440566
 20
0.710124
  0
VERTEX
  8
FOREGROUND
  6
CONTINUOUS
 10
1.434743
 20
0.713369
  0
VERTEX
  8
FOREGROUND
  6
CONTINUOUS
 10
1.428849
 20
0.716573
  0
VERTEX
  8
FOREGROUND
  6
CONTINUOUS
 10
1.422885
 20
0.719735
  0
VERTEX
  8
FOREGROUND
  6
CONTINUOUS
 10
1.416853
 20
0.722856
  0
VERTEX
  8
FOREGROUND
  6
CONTINUOUS
 10
1.410753
 20
0.725935
  0
VERTEX
  8
FOREGROUND
  6
CONTINUOUS
 10
1.404587
 20
0.728972
  0
VERTEX
  8
FOREGROUND
  6
CONTINUOUS
 10
1.398354
 20
0.731968
  0
VERTEX
  8
FOREGROUND
  6
CONTINUOUS
 10
1.392056
 20
0.734922
  0
VERTEX
  8
FOREGROUND
  6
CONTINUOUS
 10
1.385694
 20
0.737835
  0
VERTEX
  8
FOREGROUND
  6
CONTINUOUS
 10
1.379269
 20
0.740706
  0
VERTEX
  8
FOREGROUND
  6
CONTINUOUS
 10
1.372782
 20
0.743536
  0
VERTEX
  8
FOREGROUND
  6
CONTINUOUS
 10
1.366233
 20
0.746323
  0
VERTEX
  8
FOREGROUND
  6
CONTINUOUS
 10
1.359623
 20
0.749070
  0
VERTEX
  8
FOREGROUND
  6
CONTINUOUS
 10
1.352954
 20
0.751774
  0
VERTEX
  8
FOREGROUND
  6
CONTINUOUS
 10
1.346227
 20
0.754437
  0
VERTEX
  8
FOREGROUND
  6
CONTINUOUS
 10
1.339441
 20
0.757059
  0
VERTEX
  8
FOREGROUND
  6
CONTINUOUS
 10
1.332599
 20
0.759638
  0
VERTEX
  8
FOREGROUND
  6
CONTINUOUS
 10
1.325700
 20
0.762177
  0
VERTEX
  8
FOREGROUND
  6
CONTINUOUS
 10
1.318747
 20
0.764673
  0
VERTEX
  8
FOREGROUND
  6
CONTINUOUS
 10
1.311740
 20
0.767128
  0
VERTEX
  8
FOREGROUND
  6
CONTINUOUS
 10
1.304679
 20
0.769541
  0
VERTEX
  8
FOREGROUND
  6
CONTINUOUS
 10
1.297566
 20
0.771913
  0
VERTEX
  8
FOREGROUND
  6
CONTINUOUS
 10
1.290401
 20
0.774243
  0
VERTEX
  8
FOREGROUND
  6
CONTINUOUS
 10
1.283186
 20
0.776532
  0
VERTEX
  8
FOREGROUND
  6
CONTINUOUS
 10
1.275921
 20
0.778779
  0
VERTEX
  8
FOREGROUND
  6
CONTINUOUS
 10
1.268608
 20
0.780984
  0
VERTEX
  8
FOREGROUND
  6
CONTINUOUS
 10
1.261247
 20
0.783148
  0
VERTEX
  8
FOREGROUND
  6
CONTINUOUS
 10
1.253839
 20
0.785270
  0
VERTEX
  8
FOREGROUND
  6
CONTINUOUS
 10
1.246384
 20
0.787351
  0
VERTEX
  8
FOREGROUND
  6
CONTINUOUS
 10
1.238885
 20
0.789389
  0
VERTEX
  8
FOREGROUND
  6
CONTINUOUS
 10
1.231342
 20
0.791387
  0
VERTEX
  8
FOREGROUND
  6
CONTINUOUS
 10
1.223755
 20
0.793342
  0
VERTEX
  8
FOREGROUND
  6
CONTINUOUS
 10
1.216127
 20
0.795257
  0
VERTEX
  8
FOREGROUND
  6
CONTINUOUS
 10
1.208456
 20
0.797129
  0
VERTEX
  8
FOREGROUND
  6
CONTINUOUS
 10
1.200745
 20
0.798960
  0
VERTEX
  8
FOREGROUND
  6
CONTINUOUS
 10
1.192995
 20
0.800749
  0
VERTEX
  8
FOREGROUND
  6
CONTINUOUS
 10
1.185206
 20
0.802497
  0
VERTEX
  8
FOREGROUND
  6
CONTINUOUS
 10
1.177378
 20
0.804203
  0
VERTEX
  8
FOREGROUND
  6
CONTINUOUS
 10
1.169515
 20
0.805867
  0
VERTEX
  8
FOREGROUND
  6
CONTINUOUS
 10
1.161615
 20
0.807490
  0
VERTEX
  8
FOREGROUND
  6
CONTINUOUS
 10
1.153680
 20
0.809072
  0
VERTEX
  8
FOREGROUND
  6
CONTINUOUS
 10
1.145710
 20
0.810611
  0
VERTEX
  8
FOREGROUND
  6
CONTINUOUS
 10
1.137708
 20
0.812109
  0
VERTEX
  8
FOREGROUND
  6
CONTINUOUS
 10
1.129673
 20
0.813566
  0
VERTEX
  8
FOREGROUND
  6
CONTINUOUS
 10
1.121607
 20
0.814980
  0
VERTEX
  8
FOREGROUND
  6
CONTINUOUS
 10
1.113510
 20
0.816354
  0
VERTEX
  8
FOREGROUND
  6
CONTINUOUS
 10
1.105384
 20
0.817685
  0
VERTEX
  8
FOREGROUND
  6
CONTINUOUS
 10
1.097229
 20
0.818975
  0
VERTEX
  8
FOREGROUND
  6
CONTINUOUS
 10
1.089046
 20
0.820224
  0
VERTEX
  8
FOREGROUND
  6
CONTINUOUS
 10
1.080836
 20
0.821430
  0
VERTEX
  8
FOREGROUND
  6
CONTINUOUS
 10
1.072600
 20
0.822596
  0
VERTEX
  8
FOREGROUND
  6
CONTINUOUS
 10
1.064339
 20
0.823719
  0
VERTEX
  8
FOREGROUND
  6
CONTINUOUS
 10
1.056054
 20
0.824801
  0
VERTEX
  8
FOREGROUND
  6
CONTINUOUS
 10
1.047745
 20
0.825842
  0
VERTEX
  8
FOREGROUND
  6
CONTINUOUS
 10
1.039415
 20
0.826840
  0
VERTEX
  8
FOREGROUND
  6
CONTINUOUS
 10
1.031062
 20
0.827797
  0
VERTEX
  8
FOREGROUND
  6
CONTINUOUS
 10
1.022690
 20
0.828713
  0
VERTEX
  8
FOREGROUND
  6
CONTINUOUS
 10
1.014297
 20
0.829587
  0
VERTEX
  8
FOREGROUND
  6
CONTINUOUS
 10
1.005886
 20
0.830419
  0
VERTEX
  8
FOREGROUND
  6
CONTINUOUS
 10
0.997457
 20
0.831210
  0
VERTEX
  8
FOREGROUND
  6
CONTINUOUS
 10
0.989011
 20
0.831959
  0
VERTEX
  8
FOREGROUND
  6
CONTINUOUS
 10
0.980549
 20
0.832667
  0
VERTEX
  8
FOREGROUND
  6
CONTINUOUS
 10
0.972072
 20
0.833333
  0
VERTEX
  8
FOREGROUND
  6
CONTINUOUS
 10
0.963581
 20
0.833957
  0
VERTEX
  8
FOREGROUND
  6
CONTINUOUS
 10
0.955076
 20
0.834540
  0
VERTEX
  8
FOREGROUND
  6
CONTINUOUS
 10
0.946560
 20
0.835081
  0
VERTEX
  8
FOREGROUND
  6
CONTINUOUS
 10
0.938031
 20
0.835580
  0
VERTEX
  8
FOREGROUND
  6
CONTINUOUS
 10
0.929492
 20
0.836038
  0
VERTEX
  8
FOREGROUND
  6
CONTINUOUS
 10
0.920944
 20
0.836454
  0
VERTEX
  8
FOREGROUND
  6
CONTINUOUS
 10
0.912386
 20
0.836829
  0
VERTEX
  8
FOREGROUND
  6
CONTINUOUS
 10
0.903821
 20
0.837162
  0
VERTEX
  8
FOREGROUND
  6
CONTINUOUS
 10
0.895249
 20
0.837453
  0
VERTEX
  8
FOREGROUND
  6
CONTINUOUS
 10
0.886671
 20
0.837703
  0
VERTEX
  8
FOREGROUND
  6
CONTINUOUS
 10
0.878088
 20
0.837911
  0
VERTEX
  8
FOREGROUND
  6
CONTINUOUS
 10
0.869501
 20
0.838078
  0
VERTEX
  8
FOREGROUND
  6
CONTINUOUS
 10
0.860910
 20
0.838203
  0
VERTEX
  8
FOREGROUND
  6
CONTINUOUS
 10
0.852317
 20
0.838287
  0
VERTEX
  8
FOREGROUND
  6
CONTINUOUS
 10
0.843722
 20
0.838328
  0
VERTEX
  8
FOREGROUND
  6
CONTINUOUS
 10
0.835127
 20
0.838329
  0
VERTEX
  8
FOREGROUND
  6
CONTINUOUS
 10
0.826532
 20
0.838287
  0
VERTEX
  8
FOREGROUND
  6
CONTINUOUS
 10
0.817939
 20
0.838204
  0
VERTEX
  8
FOREGROUND
  6
CONTINUOUS
 10
0.809348
 20
0.838080
  0
VERTEX
  8
FOREGROUND
  6
CONTINUOUS
 10
0.800759
 20
0.837913
  0
VERTEX
  8
FOREGROUND
  6
CONTINUOUS
 10
0.792175
 20
0.837705
  0
VERTEX
  8
FOREGROUND
  6
CONTINUOUS
 10
0.783595
 20
0.837456
  0
VERTEX
  8
FOREGROUND
  6
CONTINUOUS
 10
0.775022
 20
0.837165
  0
VERTEX
  8
FOREGROUND
  6
CONTINUOUS
 10
0.766455
 20
0.836832
  0
VERTEX
  8
FOREGROUND
  6
CONTINUOUS
 10
0.757895
 20
0.836458
  0
VERTEX
  8
FOREGROUND
  6
CONTINUOUS
 10
0.749344
 20
0.836042
  0
VERTEX
  8
FOREGROUND
  6
CONTINUOUS
 10
0.740803
 20
0.835585
  0
VERTEX
  8
FOREGROUND
  6
CONTINUOUS
 10
0.732272
 20
0.835086
  0
VERTEX
  8
FOREGROUND
  6
CONTINUOUS
 10
0.723752
 20
0.834545
  0
VERTEX
  8
FOREGROUND
  6
CONTINUOUS
 10
0.715244
 20
0.833963
  0
VERTEX
  8
FOREGROUND
  6
CONTINUOUS
 10
0.706750
 20
0.833339
  0
VERTEX
  8
FOREGROUND
  6
CONTINUOUS
 10
0.698269
 20
0.832673
  0
VERTEX
  8
FOREGROUND
  6
CONTINUOUS
 10
0.689803
 20
0.831966
  0
VERTEX
  8
FOREGROUND
  6
CONTINUOUS
 10
0.681353
 20
0.831217
  0
VERTEX
  8
FOREGROUND
  6
CONTINUOUS
 10
0.672920
 20
0.830427
  0
VERTEX
  8
FOREGROUND
  6
CONTINUOUS
 10
0.664504
 20
0.829595
  0
VERTEX
  8
FOREGROUND
  6
CONTINUOUS
 10
0.656107
 20
0.828721
  0
VERTEX
  8
FOREGROUND
  6
CONTINUOUS
 10
0.647729
 20
0.827806
  0
VERTEX
  8
FOREGROUND
  6
CONTINUOUS
 10
0.639371
 20
0.826850
  0
VERTEX
  8
FOREGROUND
  6
CONTINUOUS
 10
0.631035
 20
0.825851
  0
VERTEX
  8
FOREGROUND
  6
CONTINUOUS
 10
0.622721
 20
0.824811
  0
VERTEX
  8
FOREGROUND
  6
CONTINUOUS
 10
0.614429
 20
0.823730
  0
VERTEX
  8
FOREGROUND
  6
CONTINUOUS
 10
0.606162
 20
0.822606
  0
VERTEX
  8
FOREGROUND
  6
CONTINUOUS
 10
0.597920
 20
0.821442
  0
VERTEX
  8
FOREGROUND
  6
CONTINUOUS
 10
0.589703
 20
0.820235
  0
VERTEX
  8
FOREGROUND
  6
CONTINUOUS
 10
0.581514
 20
0.818987
  0
VERTEX
  8
FOREGROUND
  6
CONTINUOUS
 10
0.573351
 20
0.817698
  0
VERTEX
  8
FOREGROUND
  6
CONTINUOUS
 10
0.565217
 20
0.816366
  0
VERTEX
  8
FOREGROUND
  6
CONTINUOUS
 10
0.557113
 20
0.814994
  0
VERTEX
  8
FOREGROUND
  6
CONTINUOUS
 10
0.549039
 20
0.813579
  0
VERTEX
  8
FOREGROUND
  6
CONTINUOUS
 10
0.540996
 20
0.812123
  0
VERTEX
  8
FOREGROUND
  6
CONTINUOUS
 10
0.532985
 20
0.810625
  0
VERTEX
  8
FOREGROUND
  6
CONTINUOUS
 10
0.525008
 20
0.809086
  0
VERTEX
  8
FOREGROUND
  6
CONTINUOUS
 10
0.517064
 20
0.807505
  0
VERTEX
  8
FOREGROUND
  6
CONTINUOUS
 10
0.509155
 20
0.805883
  0
VERTEX
  8
FOREGROUND
  6
CONTINUOUS
 10
0.501282
 20
0.804219
  0
VERTEX
  8
FOREGROUND
  6
CONTINUOUS
 10
0.493445
 20
0.802513
  0
VERTEX
  8
FOREGROUND
  6
CONTINUOUS
 10
0.485646
 20
0.800766
  0
VERTEX
  8
FOREGROUND
  6
CONTINUOUS
 10
0.477886
 20
0.798977
  0
VERTEX
  8
FOREGROUND
  6
CONTINUOUS
 10
0.470165
 20
0.797146
  0
VERTEX
  8
FOREGROUND
  6
CONTINUOUS
 10
0.462484
 20
0.795274
  0
VERTEX
  8
FOREGROUND
  6
CONTINUOUS
 10
0.454845
 20
0.793360
  0
VERTEX
  8
FOREGROUND
  6
CONTINUOUS
 10
0.447247
 20
0.791405
  0
VERTEX
  8
FOREGROUND
  6
CONTINUOUS
 10
0.439693
 20
0.789408
  0
VERTEX
  8
FOREGROUND
  6
CONTINUOUS
 10
0.432182
 20
0.787369
  0
VERTEX
  8
FOREGROUND
  6
CONTINUOUS
 10
0.424717
 20
0.785289
  0
VERTEX
  8
FOREGROUND
  6
CONTINUOUS
 10
0.417297
 20
0.783167
  0
VERTEX
  8
FOREGROUND
  6
CONTINUOUS
 10
0.409924
 20
0.781004
  0
VERTEX
  8
FOREGROUND
  6
CONTINUOUS
 10
0.402598
 20
0.778799
  0
VERTEX
  8
FOREGROUND
  6
CONTINUOUS
 10
0.395321
 20
0.776552
  0
VERTEX
  8
FOREGROUND
  6
CONTINUOUS
 10
0.388093
 20
0.774264
  0
VERTEX
  8
FOREGROUND
  6
CONTINUOUS
 10
0.380915
 20
0.771934
  0
VERTEX
  8
FOREGROUND
  6
CONTINUOUS
 10
0.373789
 20
0.769563
  0
VERTEX
  8
FOREGROUND
  6
CONTINUOUS
 10
0.366715
 20
0.767150
  0
VERTEX
  8
FOREGROUND
  6
CONTINUOUS
 10
0.359694
 20
0.764695
  0
VERTEX
  8
FOREGROUND
  6
CONTINUOUS
 10
0.352726
 20
0.762199
  0
VERTEX
  8
FOREGROUND
  6
CONTINUOUS
 10
0.345814
 20
0.759661
  0
VERTEX
  8
FOREGROUND
  6
CONTINUOUS
 10
0.338957
 20
0.757082
  0
VERTEX
  8
FOREGROUND
  6
CONTINUOUS
 10
0.332157
 20
0.754461
  0
VERTEX
  8
FOREGROUND
  6
CONTINUOUS
 10
0.325415
 20
0.751798
  0
VERTEX
  8
FOREGROUND
  6
CONTINUOUS
 10
0.318731
 20
0.749094
  0
VERTEX
  8
FOREGROUND
  6
CONTINUOUS
 10
0.312106
 20
0.746348
  0
VERTEX
  8
FOREGROUND
  6
CONTINUOUS
 10
0.305542
 20
0.743560
  0
VERTEX
  8
FOREGROUND
  6
CONTINUOUS
 10
0.299039
 20
0.740731
  0
VERTEX
  8
FOREGROUND
  6
CONTINUOUS
 10
0.292598
 20
0.737860
  0
VERTEX
  8
FOREGROUND
  6
CONTINUOUS
 10
0.286220
 20
0.734948
  0
VERTEX
  8
FOREGROUND
  6
CONTINUOUS
 10
0.279905
 20
0.731994
  0
VERTEX
  8
FOREGROUND
  6
CONTINUOUS
 10
0.273656
 20
0.728999
  0
VERTEX
  8
FOREGROUND
  6
CONTINUOUS
 10
0.267472
 20
0.725961
  0
VERTEX
  8
FOREGROUND
  6
CONTINUOUS
 10
0.261355
 20
0.722883
  0
VERTEX
  8
FOREGROUND
  6
CONTINUOUS
 10
0.255306
 20
0.719762
  0
VERTEX
  8
FOREGROUND
  6
CONTINUOUS
 10
0.249325
 20
0.716600
  0
VERTEX
  8
FOREGROUND
  6
CONTINUOUS
 10
0.243413
 20
0.713397
  0
VERTEX
  8
FOREGROUND
  6
CONTINUOUS
 10
0.237572
 20
0.710151
  0
VERTEX
  8
FOREGROUND
  6
CONTINUOUS
 10
0.231802
 20
0.706865
  0
VERTEX
  8
FOREGROUND
  6
CONTINUOUS
 10
0.226104
 20
0.703536
  0
VERTEX
  8
FOREGROUND
  6
CONTINUOUS
 10
0.220479
 20
0.700166
  0
VERTEX
  8
FOREGROUND
  6
CONTINUOUS
 10
0.214928
 20
0.696755
  0
VERTEX
  8
FOREGROUND
  6
CONTINUOUS
 10
0.209451
 20
0.693301
  0
VERTEX
  8
FOREGROUND
  6
CONTINUOUS
 10
0.204051
 20
0.689806
  0
VERTEX
  8
FOREGROUND
  6
CONTINUOUS
 10
0.198727
 20
0.686270
  0
VERTEX
  8
FOREGROUND
  6
CONTINUOUS
 10
0.193480
 20
0.682692
  0
VERTEX
  8
FOREGROUND
  6
CONTINUOUS
 10
0.188312
 20
0.679072
  0
VERTEX
  8
FOREGROUND
  6
CONTINUOUS
 10
0.183224
 20
0.675411
  0
VERTEX
  8
FOREGROUND
  6
CONTINUOUS
 10
0.178215
 20
0.671708
  0
VERTEX
  8
FOREGROUND
  6
CONTINUOUS
 10
0.173288
 20
0.667963
  0
VERTEX
  8
FOREGROUND
  6
CONTINUOUS
 10
0.168443
 20
0.664177
  0
VERTEX
  8
FOREGROUND
  6
CONTINUOUS
 10
0.163681
 20
0.660350
  0
VERTEX
  8
FOREGROUND
  6
CONTINUOUS
 10
0.159002
 20
0.656480
  0
VERTEX
  8
FOREGROUND
  6
CONTINUOUS
 10
0.154409
 20
0.652569
  0
VERTEX
  8
FOREGROUND
  6
CONTINUOUS
 10
0.149901
 20
0.648617
  0
VERTEX
  8
FOREGROUND
  6
CONTINUOUS
 10
0.145480
 20
0.644623
  0
VERTEX
  8
FOREGROUND
  6
CONTINUOUS
 10
0.141146
 20
0.640587
  0
VERTEX
  8
FOREGROUND
  6
CONTINUOUS
 10
0.136901
 20
0.636510
  0
VERTEX
  8
FOREGROUND
  6
CONTINUOUS
 10
0.132745
 20
0.632391
  0
VERTEX
  8
FOREGROUND
  6
CONTINUOUS
 10
0.128680
 20
0.628230
  0
VERTEX
  8
FOREGROUND
  6
CONTINUOUS
 10
0.124705
 20
0.624028
  0
VERTEX
  8
FOREGROUND
  6
CONTINUOUS
 10
0.120823
 20
0.619784
  0
VERTEX
  8
FOREGROUND
  6
CONTINUOUS
 10
0.117034
 20
0.615498
  0
VERTEX
  8
FOREGROUND
  6
CONTINUOUS
 10
0.113338
 20
0.611171
  0
VERTEX
  8
FOREGROUND
  6
CONTINUOUS
 10
0.109738
 20
0.606803
  0
VERTEX
  8
FOREGROUND
  6
CONTINUOUS
 10
0.106233
 20
0.602393
  0
VERTEX
  8
FOREGROUND
  6
CONTINUOUS
 10
0.102824
 20
0.597941
  0
VERTEX
  8
FOREGROUND
  6
CONTINUOUS
 10
0.099513
 20
0.593447
  0
VERTEX
  8
FOREGROUND
  6
CONTINUOUS
 10
0.096301
 20
0.588912
  0
VERTEX
  8
FOREGROUND
  6
CONTINUOUS
 10
0.093188
 20
0.584335
  0
VERTEX
  8
FOREGROUND
  6
CONTINUOUS
 10
0.090175
 20
0.579717
  0
VERTEX
  8
FOREGROUND
  6
CONTINUOUS
 10
0.087263
 20
0.575057
  0
VERTEX
  8
FOREGROUND
  6
CONTINUOUS
 10
0.084454
 20
0.570356
  0
VERTEX
  8
FOREGROUND
  6
CONTINUOUS
 10
0.081747
 20
0.565613
  0
VERTEX
  8
FOREGROUND
  6
CONTINUOUS
 10
0.079144
 20
0.560828
  0
VERTEX
  8
FOREGROUND
  6
CONTINUOUS
 10
0.076646
 20
0.556001
  0
VERTEX
  8
FOREGROUND
  6
CONTINUOUS
 10
0.074254
 20
0.551134
  0
VERTEX
  8
FOREGROUND
  6
CONTINUOUS
 10
0.071968
 20
0.546224
  0
VERTEX
  8
FOREGROUND
  6
CONTINUOUS
 10
0.069790
 20
0.541273
  0
VERTEX
  8
FOREGROUND
  6
CONTINUOUS
 10
0.067720
 20
0.536280
  0
VERTEX
  8
FOREGROUND
  6
CONTINUOUS
 10
0.065759
 20
0.531246
  0
VERTEX
  8
FOREGROUND
  6
CONTINUOUS
 10
0.063909
 20
0.526170
  0
VERTEX
  8
FOREGROUND
  6
CONTINUOUS
 10
0.062170
 20
0.521052
  0
VERTEX
  8
FOREGROUND
  6
CONTINUOUS
 10
0.060543
 20
0.515893
  0
VERTEX
  8
FOREGROUND
  6
CONTINUOUS
 10
0.059029
 20
0.510692
  0
VERTEX
  8
FOREGROUND
  6
CONTINUOUS
 10
0.057629
 20
0.505450
  0
VERTEX
  8
FOREGROUND
  6
CONTINUOUS
 10
0.056343
 20
0.500165
  0
VERTEX
  8
FOREGROUND
  6
CONTINUOUS
 10
0.055173
 20
0.494840
  0
VERTEX
  8
FOREGROUND
  6
CONTINUOUS
 10
0.054120
 20
0.489473
  0
VERTEX
  8
FOREGROUND
  6
CONTINUOUS
 10
0.053185
 20
0.484064
  0
VERTEX
  8
FOREGROUND
  6
CONTINUOUS
 10
0.052367
 20
0.478613
  0
VERTEX
  8
FOREGROUND
  6
CONTINUOUS
 10
0.051669
 20
0.473121
  0
VERTEX
  8
FOREGROUND
  6
CONTINUOUS
 10
0.051092
 20
0.467587
  0
VERTEX
  8
FOREGROUND
  6
CONTINUOUS
 10
0.050635
 20
0.462012
  0
VERTEX
  8
FOREGROUND
  6
CONTINUOUS
 10
0.050300
 20
0.456395
  0
VERTEX
  8
FOREGROUND
  6
CONTINUOUS
 10
0.050089
 20
0.450737
  0
VERTEX
  8
FOREGROUND
  6
CONTINUOUS
 10
0.050001
 20
0.445036
  0
VERTEX
  8
FOREGROUND
  6
CONTINUOUS
 10
0.050001
 20
0.445036
  0
VERTEX
  8
FOREGROUND
  6
CONTINUOUS
 10
0.050056
 20
0.439336
  0
VERTEX
  8
FOREGROUND
  6
CONTINUOUS
 10
0.050235
 20
0.433678
  0
VERTEX
  8
FOREGROUND
  6
CONTINUOUS
 10
0.050538
 20
0.428061
  0
VERTEX
  8
FOREGROUND
  6
CONTINUOUS
 10
0.050962
 20
0.422485
  0
VERTEX
  8
FOREGROUND
  6
CONTINUOUS
 10
0.051508
 20
0.416952
  0
VERTEX
  8
FOREGROUND
  6
CONTINUOUS
 10
0.052175
 20
0.411459
  0
VERTEX
  8
FOREGROUND
  6
CONTINUOUS
 10
0.052961
 20
0.406009
  0
VERTEX
  8
FOREGROUND
  6
CONTINUOUS
 10
0.053865
 20
0.400600
  0
VERTEX
  8
FOREGROUND
  6
CONTINUOUS
 10
0.054888
 20
0.395233
  0
VERTEX
  8
FOREGROUND
  6
CONTINUOUS
 10
0.056027
 20
0.389907
  0
VERTEX
  8
FOREGROUND
  6
CONTINUOUS
 10
0.057282
 20
0.384623
  0
VERTEX
  8
FOREGROUND
  6
CONTINUOUS
 10
0.058652
 20
0.379380
  0
VERTEX
  8
FOREGROUND
  6
CONTINUOUS
 10
0.060137
 20
0.374179
  0
VERTEX
  8
FOREGROUND
  6
CONTINUOUS
 10
0.061734
 20
0.369020
  0
VERTEX
  8
FOREGROUND
  6
CONTINUOUS
 10
0.063444
 20
0.363902
  0
VERTEX
  8
FOREGROUND
  6
CONTINUOUS
 10
0.065265
 20
0.358826
  0
VERTEX
  8
FOREGROUND
  6
CONTINUOUS
 10
0.067197
 20
0.353791
  0
VERTEX
  8
FOREGROUND
  6
CONTINUOUS
 10
0.069238
 20
0.348798
  0
VERTEX
  8
FOREGROUND
  6
CONTINUOUS
 10
0.071388
 20
0.343847
  0
VERTEX
  8
FOREGROUND
  6
CONTINUOUS
 10
0.073645
 20
0.338937
  0
VERTEX
  8
FOREGROUND
  6
CONTINUOUS
 10
0.076010
 20
0.334069
  0
VERTEX
  8
FOREGROUND
  6
CONTINUOUS
 10
0.078480
 20
0.329242
  0
VERTEX
  8
FOREGROUND
  6
CONTINUOUS
 10
0.081055
 20
0.324457
  0
VERTEX
  8
FOREGROUND
  6
CONTINUOUS
 10
0.083735
 20
0.319714
  0
VERTEX
  8
FOREGROUND
  6
CONTINUOUS
 10
0.086517
 20
0.315012
  0
VERTEX
  8
FOREGROUND
  6
CONTINUOUS
 10
0.089402
 20
0.310352
  0
VERTEX
  8
FOREGROUND
  6
CONTINUOUS
 10
0.092389
 20
0.305734
  0
VERTEX
  8
FOREGROUND
  6
CONTINUOUS
 10
0.095476
 20
0.301157
  0
VERTEX
  8
FOREGROUND
  6
CONTINUOUS
 10
0.098662
 20
0.296621
  0
VERTEX
  8
FOREGROUND
  6
CONTINUOUS
 10
0.101947
 20
0.292127
  0
VERTEX
  8
FOREGROUND
  6
CONTINUOUS
 10
0.105330
 20
0.287675
  0
VERTEX
  8
FOREGROUND
  6
CONTINUOUS
 10
0.108810
 20
0.283265
  0
VERTEX
  8
FOREGROUND
  6
CONTINUOUS
 10
0.112385
 20
0.278896
  0
VERTEX
  8
FOREGROUND
  6
CONTINUOUS
 10
0.116056
 20
0.274568
  0
VERTEX
  8
FOREGROUND
  6
CONTINUOUS
 10
0.119821
 20
0.270282
  0
VERTEX
  8
FOREGROUND
  6
CONTINUOUS
 10
0.123679
 20
0.266038
  0
VERTEX
  8
FOREGROUND
  6
CONTINUOUS
 10
0.127629
 20
0.261836
  0
VERTEX
  8
FOREGROUND
  6
CONTINUOUS
 10
0.131671
 20
0.257675
  0
VERTEX
  8
FOREGROUND
  6
CONTINUOUS
 10
0.135803
 20
0.253555
  0
VERTEX
  8
FOREGROUND
  6
CONTINUOUS
 10
0.140025
 20
0.249478
  0
VERTEX
  8
FOREGROUND
  6
CONTINUOUS
 10
0.144335
 20
0.245441
  0
VERTEX
  8
FOREGROUND
  6
CONTINUOUS
 10
0.148734
 20
0.241447
  0
VERTEX
  8
FOREGROUND
  6
CONTINUOUS
 10
0.153219
 20
0.237494
  0
VERTEX
  8
FOREGROUND
  6
CONTINUOUS
 10
0.157790
 20
0.233583
  0
VERTEX
  8
FOREGROUND
  6
CONTINUOUS
 10
0.162446
 20
0.229713
  0
VERTEX
  8
FOREGROUND
  6
CONTINUOUS
 10
0.167186
 20
0.225885
  0
VERTEX
  8
FOREGROUND
  6
CONTINUOUS
 10
0.172009
 20
0.222098
  0
VERTEX
  8
FOREGROUND
  6
CONTINUOUS
 10
0.176915
 20
0.218353
  0
VERTEX
  8
FOREGROUND
  6
CONTINUOUS
 10
0.181902
 20
0.214650
  0
VERTEX
  8
FOREGROUND
  6
CONTINUOUS
 10
0.186970
 20
0.210988
  0
VERTEX
  8
FOREGROUND
  6
CONTINUOUS
 10
0.192117
 20
0.207368
  0
VERTEX
  8
FOREGROUND
  6
CONTINUOUS
 10
0.197343
 20
0.203789
  0
VERTEX
  8
FOREGROUND
  6
CONTINUOUS
 10
0.202647
 20
0.200252
  0
VERTEX
  8
FOREGROUND
  6
CONTINUOUS
 10
0.208027
 20
0.196757
  0
VERTEX
  8
FOREGROUND
  6
CONTINUOUS
 10
0.213484
 20
0.193303
  0
VERTEX
  8
FOREGROUND
  6
CONTINUOUS
 10
0.219016
 20
0.189891
  0
VERTEX
  8
FOREGROUND
  6
CONTINUOUS
 10
0.224621
 20
0.186520
  0
VERTEX
  8
FOREGROUND
  6
CONTINUOUS
 10
0.230300
 20
0.183192
  0
VERTEX
  8
FOREGROUND
  6
CONTINUOUS
 10
0.236052
 20
0.179904
  0
VERTEX
  8
FOREGROUND
  6
CONTINUOUS
 10
0.241874
 20
0.176658
  0
VERTEX
  8
FOREGROUND
  6
CONTINUOUS
 10
0.247768
 20
0.173454
  0
VERTEX
  8
FOREGROUND
  6
CONTINUOUS
 10
0.253730
 20
0.170292
  0
VERTEX
  8
FOREGROUND
  6
CONTINUOUS
 10
0.259762
 20
0.167171
  0
VERTEX
  8
FOREGROUND
  6
CONTINUOUS
 10
0.265861
 20
0.164091
  0
VERTEX
  8
FOREGROUND
  6
CONTINUOUS
 10
0.272027
 20
0.161054
  0
VERTEX
  8
FOREGROUND
  6
CONTINUOUS
 10
0.278259
 20
0.158058
  0
VERTEX
  8
FOREGROUND
  6
CONTINUOUS
 10
0.284557
 20
0.155103
  0
VERTEX
  8
FOREGROUND
  6
CONTINUOUS
 10
0.290918
 20
0.152190
  0
VERTEX
  8
FOREGROUND
  6
CONTINUOUS
 10
0.297343
 20
0.149319
  0
VERTEX
  8
FOREGROUND
  6
CONTINUOUS
 10
0.303830
 20
0.146489
  0
VERTEX
  8
FOREGROUND
  6
CONTINUOUS
 10
0.310378
 20
0.143701
  0
VERTEX
  8
FOREGROUND
  6
CONTINUOUS
 10
0.316987
 20
0.140954
  0
VERTEX
  8
FOREGROUND
  6
CONTINUOUS
 10
0.323655
 20
0.138250
  0
VERTEX
  8
FOREGROUND
  6
CONTINUOUS
 10
0.330383
 20
0.135586
  0
VERTEX
  8
FOREGROUND
  6
CONTINUOUS
 10
0.337168
 20
0.132965
  0
VERTEX
  8
FOREGROUND
  6
CONTINUOUS
 10
0.344009
 20
0.130384
  0
VERTEX
  8
FOREGROUND
  6
CONTINUOUS
 10
0.350907
 20
0.127846
  0
VERTEX
  8
FOREGROUND
  6
CONTINUOUS
 10
0.357860
 20
0.125349
  0
VERTEX
  8
FOREGROUND
  6
CONTINUOUS
 10
0.364867
 20
0.122894
  0
VERTEX
  8
FOREGROUND
  6
CONTINUOUS
 10
0.371928
 20
0.120480
  0
VERTEX
  8
FOREGROUND
  6
CONTINUOUS
 10
0.379040
 20
0.118108
  0
VERTEX
  8
FOREGROUND
  6
CONTINUOUS
 10
0.386205
 20
0.115777
  0
VERTEX
  8
FOREGROUND
  6
CONTINUOUS
 10
0.393419
 20
0.113489
  0
VERTEX
  8
FOREGROUND
  6
CONTINUOUS
 10
0.400684
 20
0.111241
  0
VERTEX
  8
FOREGROUND
  6
CONTINUOUS
 10
0.407997
 20
0.109036
  0
VERTEX
  8
FOREGROUND
  6
CONTINUOUS
 10
0.415357
 20
0.106872
  0
VERTEX
  8
FOREGROUND
  6
CONTINUOUS
 10
0.422765
 20
0.104749
  0
VERTEX
  8
FOREGROUND
  6
CONTINUOUS
 10
0.430219
 20
0.102668
  0
VERTEX
  8
FOREGROUND
  6
CONTINUOUS
 10
0.437717
 20
0.100629
  0
VERTEX
  8
FOREGROUND
  6
CONTINUOUS
 10
0.445260
 20
0.098631
  0
VERTEX
  8
FOREGROUND
  6
CONTINUOUS
 10
0.452847
 20
0.096675
  0
VERTEX
  8
FOREGROUND
  6
CONTINUOUS
 10
0.460475
 20
0.094761
  0
VERTEX
  8
FOREGROUND
  6
CONTINUOUS
 10
0.468145
 20
0.092888
  0
VERTEX
  8
FOREGROUND
  6
CONTINUOUS
 10
0.475856
 20
0.091057
  0
VERTEX
  8
FOREGROUND
  6
CONTINUOUS
 10
0.483606
 20
0.089267
  0
VERTEX
  8
FOREGROUND
  6
CONTINUOUS
 10
0.491395
 20
0.087519
  0
VERTEX
  8
FOREGROUND
  6
CONTINUOUS
 10
0.499222
 20
0.085813
  0
VERTEX
  8
FOREGROUND
  6
CONTINUOUS
 10
0.507085
 20
0.084148
  0
VERTEX
  8
FOREGROUND
  6
CONTINUOUS
 10
0.514985
 20
0.082525
  0
VERTEX
  8
FOREGROUND
  6
CONTINUOUS
 10
0.522919
 20
0.080943
  0
VERTEX
  8
FOREGROUND
  6
CONTINUOUS
 10
0.530888
 20
0.079403
  0
VERTEX
  8
FOREGROUND
  6
CONTINUOUS
 10
0.538890
 20
0.077905
  0
VERTEX
  8
FOREGROUND
  6
CONTINUOUS
 10
0.546925
 20
0.076448
  0
VERTEX
  8
FOREGROUND
  6
CONTINUOUS
 10
0.554991
 20
0.075033
  0
VERTEX
  8
FOREGROUND
  6
CONTINUOUS
 10
0.563088
 20
0.073659
  0
VERTEX
  8
FOREGROUND
  6
CONTINUOUS
 10
0.571214
 20
0.072327
  0
VERTEX
  8
FOREGROUND
  6
CONTINUOUS
 10
0.579369
 20
0.071037
  0
VERTEX
  8
FOREGROUND
  6
CONTINUOUS
 10
0.587551
 20
0.069788
  0
VERTEX
  8
FOREGROUND
  6
CONTINUOUS
 10
0.595761
 20
0.068581
  0
VERTEX
  8
FOREGROUND
  6
CONTINUOUS
 10
0.603997
 20
0.067415
  0
VERTEX
  8
FOREGROUND
  6
CONTINUOUS
 10
0.612257
 20
0.066291
  0
VERTEX
  8
FOREGROUND
  6
CONTINUOUS
 10
0.620542
 20
0.065209
  0
VERTEX
  8
FOREGROUND
  6
CONTINUOUS
 10
0.628851
 20
0.064168
  0
VERTEX
  8
FOREGROUND
  6
CONTINUOUS
 10
0.637181
 20
0.063169
  0
VERTEX
  8
FOREGROUND
  6
CONTINUOUS
 10
0.645533
 20
0.062211
  0
VERTEX
  8
FOREGROUND
  6
CONTINUOUS
 10
0.653906
 20
0.061295
  0
VERTEX
  8
FOREGROUND
  6
CONTINUOUS
 10
0.662298
 20
0.060421
  0
VERTEX
  8
FOREGROUND
  6
CONTINUOUS
 10
0.670709
 20
0.059588
  0
VERTEX
  8
FOREGROUND
  6
CONTINUOUS
 10
0.679138
 20
0.058797
  0
VERTEX
  8
FOREGROUND
  6
CONTINUOUS
 10
0.687584
 20
0.058048
  0
VERTEX
  8
FOREGROUND
  6
CONTINUOUS
 10
0.696045
 20
0.057340
  0
VERTEX
  8
FOREGROUND
  6
CONTINUOUS
 10
0.704522
 20
0.056674
  0
VERTEX
  8
FOREGROUND
  6
CONTINUOUS
 10
0.713013
 20
0.056049
  0
VERTEX
  8
FOREGROUND
  6
CONTINUOUS
 10
0.721518
 20
0.055466
  0
VERTEX
  8
FOREGROUND
  6
CONTINUOUS
 10
0.730035
 20
0.054924
  0
VERTEX
  8
FOREGROUND
  6
CONTINUOUS
 10
0.738563
 20
0.054424
  0
VERTEX
  8
FOREGROUND
  6
CONTINUOUS
 10
0.747102
 20
0.053966
  0
VERTEX
  8
FOREGROUND
  6
CONTINUOUS
 10
0.755650
 20
0.053550
  0
VERTEX
  8
FOREGROUND
  6
CONTINUOUS
 10
0.764207
 20
0.053174
  0
VERTEX
  8
FOREGROUND
  6
CONTINUOUS
 10
0.772772
 20
0.052841
  0
VERTEX
  8
FOREGROUND
  6
CONTINUOUS
 10
0.781344
 20
0.052549
  0
VERTEX
  8
FOREGROUND
  6
CONTINUOUS
 10
0.789923
 20
0.052299
  0
VERTEX
  8
FOREGROUND
  6
CONTINUOUS
 10
0.798506
 20
0.052090
  0
VERTEX
  8
FOREGROUND
  6
CONTINUOUS
 10
0.807093
 20
0.051923
  0
VERTEX
  8
FOREGROUND
  6
CONTINUOUS
 10
0.815684
 20
0.051798
  0
VERTEX
  8
FOREGROUND
  6
CONTINUOUS
 10
0.824277
 20
0.051714
  0
VERTEX
  8
FOREGROUND
  6
CONTINUOUS
 10
0.832871
 20
0.051672
  0
VERTEX
  8
FOREGROUND
  6
CONTINUOUS
 10
0.841466
 20
0.051671
  0
VERTEX
  8
FOREGROUND
  6
CONTINUOUS
 10
0.850061
 20
0.051712
  0
VERTEX
  8
FOREGROUND
  6
CONTINUOUS
 10
0.858655
 20
0.051795
  0
VERTEX
  8
FOREGROUND
  6
CONTINUOUS
 10
0.867246
 20
0.051919
  0
VERTEX
  8
FOREGROUND
  6
CONTINUOUS
 10
0.875835
 20
0.052085
  0
VERTEX
  8
FOREGROUND
  6
CONTINUOUS
 10
0.884419
 20
0.052292
  0
VERTEX
  8
FOREGROUND
  6
CONTINUOUS
 10
0.892998
 20
0.052541
  0
VERTEX
  8
FOREGROUND
  6
CONTINUOUS
 10
0.901572
 20
0.052832
  0
VERTEX
  8
FOREGROUND
  6
CONTINUOUS
 10
0.910139
 20
0.053164
  0
VERTEX
  8
FOREGROUND
  6
CONTINUOUS
 10
0.918699
 20
0.053538
  0
VERTEX
  8
FOREGROUND
  6
CONTINUOUS
 10
0.927250
 20
0.053954
  0
VERTEX
  8
FOREGROUND
  6
CONTINUOUS
 10
0.935791
 20
0.054411
  0
VERTEX
  8
FOREGROUND
  6
CONTINUOUS
 10
0.944322
 20
0.054909
  0
VERTEX
  8
FOREGROUND
  6
CONTINUOUS
 10
0.952842
 20
0.055450
  0
VERTEX
  8
FOREGROUND
  6
CONTINUOUS
 10
0.961350
 20
0.056032
  0
VERTEX
  8
FOREGROUND
  6
CONTINUOUS
 10
0.969845
 20
0.056655
  0
VERTEX
  8
FOREGROUND
  6
CONTINUOUS
 10
0.978326
 20
0.057320
  0
VERTEX
  8
FOREGROUND
  6
CONTINUOUS
 10
0.986792
 20
0.058027
  0
VERTEX
  8
FOREGROUND
  6
CONTINUOUS
 10
0.995242
 20
0.058775
  0
VERTEX
  8
FOREGROUND
  6
CONTINUOUS
 10
1.003675
 20
0.059565
  0
VERTEX
  8
FOREGROUND
  6
CONTINUOUS
 10
1.012091
 20
0.060397
  0
VERTEX
  8
FOREGROUND
  6
CONTINUOUS
 10
1.020489
 20
0.061270
  0
VERTEX
  8
FOREGROUND
  6
CONTINUOUS
 10
1.028867
 20
0.062185
  0
VERTEX
  8
FOREGROUND
  6
CONTINUOUS
 10
1.037225
 20
0.063141
  0
VERTEX
  8
FOREGROUND
  6
CONTINUOUS
 10
1.045561
 20
0.064139
  0
VERTEX
  8
FOREGROUND
  6
CONTINUOUS
 10
1.053875
 20
0.065179
  0
VERTEX
  8
FOREGROUND
  6
CONTINUOUS
 10
1.062167
 20
0.066260
  0
VERTEX
  8
FOREGROUND
  6
CONTINUOUS
 10
1.070434
 20
0.067383
  0
VERTEX
  8
FOREGROUND
  6
CONTINUOUS
 10
1.078677
 20
0.068547
  0
VERTEX
  8
FOREGROUND
  6
CONTINUOUS
 10
1.086894
 20
0.069753
  0
VERTEX
  8
FOREGROUND
  6
CONTINUOUS
 10
1.095084
 20
0.071001
  0
VERTEX
  8
FOREGROUND
  6
CONTINUOUS
 10
1.103246
 20
0.072290
  0
VERTEX
  8
FOREGROUND
  6
CONTINUOUS
 10
1.111380
 20
0.073621
  0
VERTEX
  8
FOREGROUND
  6
CONTINUOUS
 10
1.119485
 20
0.074993
  0
VERTEX
  8
FOREGROUND
  6
CONTINUOUS
 10
1.127559
 20
0.076408
  0
VERTEX
  8
FOREGROUND
  6
CONTINUOUS
 10
1.135602
 20
0.077863
  0
VERTEX
  8
FOREGROUND
  6
CONTINUOUS
 10
1.143613
 20
0.079361
  0
VERTEX
  8
FOREGROUND
  6
CONTINUOUS
 10
1.151591
 20
0.080899
  0
VERTEX
  8
FOREGROUND
  6
CONTINUOUS
 10
1.159536
 20
0.082480
  0
VERTEX
  8
FOREGROUND
  6
CONTINUOUS
 10
1.167445
 20
0.084102
  0
VERTEX
  8
FOREGROUND
  6
CONTINUOUS
 10
1.175318
 20
0.085766
  0
VERTEX
  8
FOREGROUND
  6
CONTINUOUS
 10
1.183155
 20
0.087471
  0
VERTEX
  8
FOREGROUND
  6
CONTINUOUS
 10
1.190954
 20
0.089218
  0
VERTEX
  8
FOREGROUND
  6
CONTINUOUS
 10
1.198715
 20
0.091007
  0
VERTEX
  8
FOREGROUND
  6
CONTINUOUS
 10
1.206436
 20
0.092837
  0
VERTEX
  8
FOREGROUND
  6
CONTINUOUS
 10
1.214118
 20
0.094709
  0
VERTEX
  8
FOREGROUND
  6
CONTINUOUS
 10
1.221757
 20
0.096622
  0
VERTEX
  8
FOREGROUND
  6
CONTINUOUS
 10
1.229355
 20
0.098577
  0
VERTEX
  8
FOREGROUND
  6
CONTINUOUS
 10
1.236910
 20
0.100574
  0
VERTEX
  8
FOREGROUND
  6
CONTINUOUS
 10
1.244421
 20
0.102612
  0
VERTEX
  8
FOREGROUND
  6
CONTINUOUS
 10
1.251887
 20
0.104692
  0
VERTEX
  8
FOREGROUND
  6
CONTINUOUS
 10
1.259307
 20
0.106813
  0
VERTEX
  8
FOREGROUND
  6
CONTINUOUS
 10
1.266681
 20
0.108976
  0
VERTEX
  8
FOREGROUND
  6
CONTINUOUS
 10
1.274007
 20
0.111181
  0
VERTEX
  8
FOREGROUND
  6
CONTINUOUS
 10
1.281284
 20
0.113427
  0
VERTEX
  8
FOREGROUND
  6
CONTINUOUS
 10
1.288513
 20
0.115715
  0
VERTEX
  8
FOREGROUND
  6
CONTINUOUS
 10
1.295690
 20
0.118044
  0
VERTEX
  8
FOREGROUND
  6
CONTINUOUS
 10
1.302817
 20
0.120416
  0
VERTEX
  8
FOREGROUND
  6
CONTINUOUS
 10
1.309892
 20
0.122828
  0
VERTEX
  8
FOREGROUND
  6
CONTINUOUS
 10
1.316914
 20
0.125283
  0
VERTEX
  8
FOREGROUND
  6
CONTINUOUS
 10
1.323881
 20
0.127778
  0
VERTEX
  8
FOREGROUND
  6
CONTINUOUS
 10
1.330794
 20
0.130316
  0
VERTEX
  8
FOREGROUND
  6
CONTINUOUS
 10
1.337651
 20
0.132895
  0
VERTEX
  8
FOREGROUND
  6
CONTINUOUS
 10
1.344452
 20
0.135516
  0
VERTEX
  8
FOREGROUND
  6
CONTINUOUS
 10
1.351195
 20
0.138178
  0
VERTEX
  8
FOREGROUND
  6
CONTINUOUS
 10
1.357879
 20
0.140882
  0
VERTEX
  8
FOREGROUND
  6
CONTINUOUS
 10
1.364504
 20
0.143628
  0
VERTEX
  8
FOREGROUND
  6
CONTINUOUS
 10
1.371069
 20
0.146415
  0
VERTEX
  8
FOREGROUND
  6
CONTINUOUS
 10
1.377573
 20
0.149244
  0
VERTEX
  8
FOREGROUND
  6
CONTINUOUS
 10
1.384015
 20
0.152114
  0
VERTEX
  8
FOREGROUND
  6
CONTINUOUS
 10
1.390393
 20
0.155026
  0
VERTEX
  8
FOREGROUND
  6
CONTINUOUS
 10
1.396708
 20
0.157980
  0
VERTEX
  8
FOREGROUND
  6
CONTINUOUS
 10
1.402958
 20
0.160975
  0
VERTEX
  8
FOREGROUND
  6
CONTINUOUS
 10
1.409142
 20
0.164012
  0
VERTEX
  8
FOREGROUND
  6
CONTINUOUS
 10
1.415260
 20
0.167091
  0
VERTEX
  8
FOREGROUND
  6
CONTINUOUS
 10
1.421310
 20
0.170211
  0
VERTEX
  8
FOREGROUND
  6
CONTINUOUS
 10
1.427291
 20
0.173373
  0
VERTEX
  8
FOREGROUND
  6
CONTINUOUS
 10
1.433203
 20
0.176576
  0
VERTEX
  8
FOREGROUND
  6
CONTINUOUS
 10
1.439045
 20
0.179821
  0
VERTEX
  8
FOREGROUND
  6
CONTINUOUS
 10
1.444816
 20
0.183107
  0
VERTEX
  8
FOREGROUND
  6
CONTINUOUS
 10
1.450515
 20
0.186435
  0
VERTEX
  8
FOREGROUND
  6
CONTINUOUS
 10
1.456140
 20
0.189805
  0
VERTEX
  8
FOREGROUND
  6
CONTINUOUS
 10
1.461692
 20
0.193217
  0
VERTEX
  8
FOREGROUND
  6
CONTINUOUS
 10
1.467169
 20
0.196670
  0
VERTEX
  8
FOREGROUND
  6
CONTINUOUS
 10
1.472570
 20
0.200164
  0
VERTEX
  8
FOREGROUND
  6
CONTINUOUS
 10
1.477895
 20
0.203700
  0
VERTEX
  8
FOREGROUND
  6
CONTINUOUS
 10
1.483142
 20
0.207278
  0
VERTEX
  8
FOREGROUND
  6
CONTINUOUS
 10
1.488311
 20
0.210898
  0
VERTEX
  8
FOREGROUND
  6
CONTINUOUS
 10
1.493400
 20
0.214559
  0
VERTEX
  8
FOREGROUND
  6
CONTINUOUS
 10
1.498409
 20
0.218261
  0
VERTEX
  8
FOREGROUND
  6
CONTINUOUS
 10
1.503337
 20
0.222006
  0
VERTEX
  8
FOREGROUND
  6
CONTINUOUS
 10
1.508183
 20
0.225792
  0
VERTEX
  8
FOREGROUND
  6
CONTINUOUS
 10
1.512946
 20
0.229619
  0
VERTEX
  8
FOREGROUND
  6
CONTINUOUS
 10
1.517625
 20
0.233488
  0
VERTEX
  8
FOREGROUND
  6
CONTINUOUS
 10
1.522219
 20
0.237399
  0
VERTEX
  8
FOREGROUND
  6
CONTINUOUS
 10
1.526728
 20
0.241351
  0
VERTEX
  8
FOREGROUND
  6
CONTINUOUS
 10
1.531149
 20
0.245345
  0
VERTEX
  8
FOREGROUND
  6
CONTINUOUS
 10
1.535484
 20
0.249381
  0
VERTEX
  8
FOREGROUND
  6
CONTINUOUS
 10
1.539730
 20
0.253458
  0
VERTEX
  8
FOREGROUND
  6
CONTINUOUS
 10
1.543886
 20
0.257577
  0
VERTEX
  8
FOREGROUND
  6
CONTINUOUS
 10
1.547953
 20
0.261737
  0
VERTEX
  8
FOREGROUND
  6
CONTINUOUS
 10
1.551928
 20
0.265939
  0
VERTEX
  8
FOREGROUND
  6
CONTINUOUS
 10
1.555811
 20
0.270183
  0
VERTEX
  8
FOREGROUND
  6
CONTINUOUS
 10
1.559601
 20
0.274468
  0
VERTEX
  8
FOREGROUND
  6
CONTINUOUS
 10
1.563297
 20
0.278795
  0
VERTEX
  8
FOREGROUND
  6
CONTINUOUS
 10
1.566899
 20
0.283164
  0
VERTEX
  8
FOREGROUND
  6
CONTINUOUS
 10
1.570405
 20
0.287574
  0
VERTEX
  8
FOREGROUND
  6
CONTINUOUS
 10
1.573814
 20
0.292025
  0
VERTEX
  8
FOREGROUND
  6
CONTINUOUS
 10
1.577126
 20
0.296519
  0
VERTEX
  8
FOREGROUND
  6
CONTINUOUS
 10
1.580339
 20
0.301054
  0
VERTEX
  8
FOREGROUND
  6
CONTINUOUS
 10
1.583453
 20
0.305630
  0
VERTEX
  8
FOREGROUND
  6
CONTINUOUS
 10
1.586467
 20
0.310248
  0
VERTEX
  8
FOREGROUND
  6
CONTINUOUS
 10
1.589379
 20
0.314908
  0
VERTEX
  8
FOREGROUND
  6
CONTINUOUS
 10
1.592190
 20
0.319609
  0
VERTEX
  8
FOREGROUND
  6
CONTINUOUS
 10
1.594897
 20
0.324352
  0
VERTEX
  8
FOREGROUND
  6
CONTINUOUS
 10
1.597501
 20
0.329137
  0
VERTEX
  8
FOREGROUND
  6
CONTINUOUS
 10
1.600000
 20
0.333963
  0
VERTEX
  8
FOREGROUND
  6
CONTINUOUS
 10
1.602393
 20
0.338831
  0
VERTEX
  8
FOREGROUND
  6
CONTINUOUS
 10
1.604680
 20
0.343741
  0
VERTEX
  8
FOREGROUND
  6
CONTINUOUS
 10
1.606859
 20
0.348692
  0
VERTEX
  8
FOREGROUND
  6
CONTINUOUS
 10
1.608930
 20
0.353684
  0
VERTEX
  8
FOREGROUND
  6
CONTINUOUS
 10
1.610891
 20
0.358719
  0
VERTEX
  8
FOREGROUND
  6
CONTINUOUS
 10
1.612742
 20
0.363795
  0
VERTEX
  8
FOREGROUND
  6
CONTINUOUS
 10
1.614482
 20
0.368912
  0
VERTEX
  8
FOREGROUND
  6
CONTINUOUS
 10
1.616110
 20
0.374071
  0
VERTEX
  8
FOREGROUND
  6
CONTINUOUS
 10
1.617625
 20
0.379272
  0
VERTEX
  8
FOREGROUND
  6
CONTINUOUS
 10
1.619027
 20
0.384514
  0
VERTEX
  8
FOREGROUND
  6
CONTINUOUS
 10
1.620313
 20
0.389798
  0
VERTEX
  8
FOREGROUND
  6
CONTINUOUS
 10
1.621484
 20
0.395124
  0
VERTEX
  8
FOREGROUND
  6
CONTINUOUS
 10
1.622538
 20
0.400491
  0
VERTEX
  8
FOREGROUND
  6
CONTINUOUS
 10
1.623475
 20
0.405900
  0
VERTEX
  8
FOREGROUND
  6
CONTINUOUS
 10
1.624293
 20
0.411350
  0
VERTEX
  8
FOREGROUND
  6
CONTINUOUS
 10
1.624992
 20
0.416843
  0
VERTEX
  8
FOREGROUND
  6
CONTINUOUS
 10
1.625571
 20
0.422376
  0
VERTEX
  8
FOREGROUND
  6
CONTINUOUS
 10
1.626028
 20
0.427952
  0
VERTEX
  8
FOREGROUND
  6
CONTINUOUS
 10
1.626364
 20
0.433568
  0
VERTEX
  8
FOREGROUND
  6
CONTINUOUS
 10
1.626577
 20
0.439227
  0
VERTEX
  8
FOREGROUND
  6
CONTINUOUS
 10
1.626666
 20
0.444927
  0
SEQEND
  8
0
  0
ENDSEC
  0
EOF
