  0
SECTION
  2
HEADER
  9
$ACADVER
  1
AC1006
  9
$EXTMIN
 10
0.000000
 20
0.000000
  9
$EXTMAX
 10
1.676667
 20
1.281667
  9
$LTSCALE
 40
0.166667
  9
$PDMODE
 70
    35
  9
$PDSIZE
 40
0.133333
  0
ENDSEC
  0
SECTION
  2
TABLES
  0
TABLE
  2
LTYPE
 70
     9
  0
LTYPE
  2
CONTINUOUS
 70
    64
  3
Solid line
 72
    65
 73
     0
 40
0.000000
  0
LTYPE
  2
DASHED
 70
    64
  3
__ __ __ __ __ __ __ __ __ __ __ __ __ __ __
 72
    65
 73
     2
 40
0.001250
 49
0.000833
 49
-0.000417
  0
LTYPE
  2
HIDDEN
 70
    64
  3
 _ _ _ _ _ _ _ _ _ _ _ _ _ _ _ _ _ _ _ _ _ _
 72
    65
 73
     2
 40
0.000625
 49
0.000417
 49
-0.000208
  0
LTYPE
  2
CENTER
 70
    64
  3
____ _ ____ _ ____ _ ____ _ ____ _ ____ _ ____
 72
    65
 73
     4
 40
0.003333
 49
0.002083
 49
-0.000417
 49
0.000417
 49
-0.000417
  0
LTYPE
  2
PHANTOM
 70
    64
  3
_____ _ _ _____ _ _ _____ _ _ _____ _ _ ____
 72
    65
 73
     6
 40
0.004167
 49
0.002083
 49
-0.000417
 49
0.000417
 49
-0.000417
 49
0.000417
 49
-0.000417
  0
LTYPE
  2
DOT
 70
    64
  3
...............................................
 72
    65
 73
     2
 40
0.000417
 49
0.000000
 49
-0.000417
  0
LTYPE
  2
DASHDOT
 70
    64
  3
__ . __ . __ . __ . __ . __ . __ . __ . __ . __
 72
    65
 73
     4
 40
0.001667
 49
0.000833
 49
-0.000417
 49
0.000000
 49
-0.000417
  0
LTYPE
  2
BORDER
 70
    64
  3
__ __ . __ __ . __ __ . __ __ . __ __ . __ __
 72
    65
 73
     6
 40
0.002917
 49
0.000833
 49
-0.000417
 49
0.000833
 49
-0.000417
 49
0.000000
 49
-0.000417
  0
LTYPE
  2
DIVIDE
 70
    64
  3
__ . . __ . . __ . . __ . . __ . . __ . . __
 72
    65
 73
     6
 40
0.002083
 49
0.000833
 49
-0.000417
 49
0.000000
 49
-0.000417
 49
0.000000
 49
-0.000417
  0
LTYPE
  2
DOTDOT
 70
    64
  3
 . .  . .  . .  . .  . .  . . 
 72
    65
 73
     5
 40
0.000917
 49
-0.000417
 49
0.000000
 49
-0.000417
 49
0.000000
 49
-0.000417
  0
ENDTAB
  0
TABLE
  2
STYLE
 70
     2
  0
STYLE
 70
     0
  2
SN0
 40
0.000000
 41
0.001667
 50
0.000000
 71
     0
 42
0.000000
  3
ROMAND
  0
STYLE
 70
    68
  2
SV0
 40
0.000000
 41
0.001667
 50
0.000000
 71
     0
 42
0.000000
  3
ROMAND
  0
ENDTAB
  0
TABLE
  2
LAYER
 70
     2
  0
LAYER
  2
FOREGROUND
 70
    64
 62
     7
  6
CONTINUOUS
  0
LAYER
  2
BACKGROUND
 70
    65
 62
    -7
  6
CONTINUOUS
  0
ENDTAB
  0
ENDSEC
  0
SECTION
  2
ENTITIES
  0
POLYLINE
  8
FOREGROUND
  6
CONTINUOUS
 66
     1
 40
0.010000
 41
0.010000
 70
     1
  0
VERTEX
  8
FOREGROUND
  6
CONTINUOUS
 10
1.626666
 20
0.641667
  0
VERTEX
  8
FOREGROUND
  6
CONTINUOUS
 10
1.626610
 20
0.649586
  0
VERTEX
  8
FOREGROUND
  6
CONTINUOUS
 10
1.626447
 20
0.657451
  0
VERTEX
  8
FOREGROUND
  6
CONTINUOUS
 10
1.626179
 20
0.665263
  0
VERTEX
  8
FOREGROUND
  6
CONTINUOUS
 10
1.625806
 20
0.673022
  0
VERTEX
  8
FOREGROUND
  6
CONTINUOUS
 10
1.625328
 20
0.680727
  0
VERTEX
  8
FOREGROUND
  6
CONTINUOUS
 10
1.624747
 20
0.688378
  0
VERTEX
  8
FOREGROUND
  6
CONTINUOUS
 10
1.624063
 20
0.695976
  0
VERTEX
  8
FOREGROUND
  6
CONTINUOUS
 10
1.623277
 20
0.703521
  0
VERTEX
  8
FOREGROUND
  6
CONTINUOUS
 10
1.622390
 20
0.711012
  0
VERTEX
  8
FOREGROUND
  6
CONTINUOUS
 10
1.621402
 20
0.718449
  0
VERTEX
  8
FOREGROUND
  6
CONTINUOUS
 10
1.620315
 20
0.725833
  0
VERTEX
  8
FOREGROUND
  6
CONTINUOUS
 10
1.619128
 20
0.733164
  0
VERTEX
  8
FOREGROUND
  6
CONTINUOUS
 10
1.617842
 20
0.740441
  0
VERTEX
  8
FOREGROUND
  6
CONTINUOUS
 10
1.616459
 20
0.747664
  0
VERTEX
  8
FOREGROUND
  6
CONTINUOUS
 10
1.614979
 20
0.754834
  0
VERTEX
  8
FOREGROUND
  6
CONTINUOUS
 10
1.613403
 20
0.761950
  0
VERTEX
  8
FOREGROUND
  6
CONTINUOUS
 10
1.611731
 20
0.769013
  0
VERTEX
  8
FOREGROUND
  6
CONTINUOUS
 10
1.609964
 20
0.776023
  0
VERTEX
  8
FOREGROUND
  6
CONTINUOUS
 10
1.608103
 20
0.782979
  0
VERTEX
  8
FOREGROUND
  6
CONTINUOUS
 10
1.606149
 20
0.789881
  0
VERTEX
  8
FOREGROUND
  6
CONTINUOUS
 10
1.604101
 20
0.796730
  0
VERTEX
  8
FOREGROUND
  6
CONTINUOUS
 10
1.601962
 20
0.803526
  0
VERTEX
  8
FOREGROUND
  6
CONTINUOUS
 10
1.599732
 20
0.810268
  0
VERTEX
  8
FOREGROUND
  6
CONTINUOUS
 10
1.597411
 20
0.816956
  0
VERTEX
  8
FOREGROUND
  6
CONTINUOUS
 10
1.595001
 20
0.823591
  0
VERTEX
  8
FOREGROUND
  6
CONTINUOUS
 10
1.592501
 20
0.830172
  0
VERTEX
  8
FOREGROUND
  6
CONTINUOUS
 10
1.589913
 20
0.836700
  0
VERTEX
  8
FOREGROUND
  6
CONTINUOUS
 10
1.587238
 20
0.843175
  0
VERTEX
  8
FOREGROUND
  6
CONTINUOUS
 10
1.584475
 20
0.849596
  0
VERTEX
  8
FOREGROUND
  6
CONTINUOUS
 10
1.581626
 20
0.855963
  0
VERTEX
  8
FOREGROUND
  6
CONTINUOUS
 10
1.578692
 20
0.862277
  0
VERTEX
  8
FOREGROUND
  6
CONTINUOUS
 10
1.575673
 20
0.868537
  0
VERTEX
  8
FOREGROUND
  6
CONTINUOUS
 10
1.572570
 20
0.874744
  0
VERTEX
  8
FOREGROUND
  6
CONTINUOUS
 10
1.569384
 20
0.880898
  0
VERTEX
  8
FOREGROUND
  6
CONTINUOUS
 10
1.566115
 20
0.886997
  0
VERTEX
  8
FOREGROUND
  6
CONTINUOUS
 10
1.562764
 20
0.893044
  0
VERTEX
  8
FOREGROUND
  6
CONTINUOUS
 10
1.559332
 20
0.899037
  0
VERTEX
  8
FOREGROUND
  6
CONTINUOUS
 10
1.555820
 20
0.904976
  0
VERTEX
  8
FOREGROUND
  6
CONTINUOUS
 10
1.552227
 20
0.910862
  0
VERTEX
  8
FOREGROUND
  6
CONTINUOUS
 10
1.548556
 20
0.916694
  0
VERTEX
  8
FOREGROUND
  6
CONTINUOUS
 10
1.544807
 20
0.922473
  0
VERTEX
  8
FOREGROUND
  6
CONTINUOUS
 10
1.540980
 20
0.928199
  0
VERTEX
  8
FOREGROUND
  6
CONTINUOUS
 10
1.537076
 20
0.933870
  0
VERTEX
  8
FOREGROUND
  6
CONTINUOUS
 10
1.533097
 20
0.939489
  0
VERTEX
  8
FOREGROUND
  6
CONTINUOUS
 10
1.529041
 20
0.945054
  0
VERTEX
  8
FOREGROUND
  6
CONTINUOUS
 10
1.524912
 20
0.950565
  0
VERTEX
  8
FOREGROUND
  6
CONTINUOUS
 10
1.520708
 20
0.956023
  0
VERTEX
  8
FOREGROUND
  6
CONTINUOUS
 10
1.516431
 20
0.961427
  0
VERTEX
  8
FOREGROUND
  6
CONTINUOUS
 10
1.512081
 20
0.966778
  0
VERTEX
  8
FOREGROUND
  6
CONTINUOUS
 10
1.507660
 20
0.972075
  0
VERTEX
  8
FOREGROUND
  6
CONTINUOUS
 10
1.503167
 20
0.977319
  0
VERTEX
  8
FOREGROUND
  6
CONTINUOUS
 10
1.498605
 20
0.982509
  0
VERTEX
  8
FOREGROUND
  6
CONTINUOUS
 10
1.493972
 20
0.987646
  0
VERTEX
  8
FOREGROUND
  6
CONTINUOUS
 10
1.489271
 20
0.992730
  0
VERTEX
  8
FOREGROUND
  6
CONTINUOUS
 10
1.484502
 20
0.997759
  0
VERTEX
  8
FOREGROUND
  6
CONTINUOUS
 10
1.479665
 20
1.002736
  0
VERTEX
  8
FOREGROUND
  6
CONTINUOUS
 10
1.474762
 20
1.007658
  0
VERTEX
  8
FOREGROUND
  6
CONTINUOUS
 10
1.469792
 20
1.012528
  0
VERTEX
  8
FOREGROUND
  6
CONTINUOUS
 10
1.464757
 20
1.017344
  0
VERTEX
  8
FOREGROUND
  6
CONTINUOUS
 10
1.459658
 20
1.022106
  0
VERTEX
  8
FOREGROUND
  6
CONTINUOUS
 10
1.454494
 20
1.026815
  0
VERTEX
  8
FOREGROUND
  6
CONTINUOUS
 10
1.449268
 20
1.031470
  0
VERTEX
  8
FOREGROUND
  6
CONTINUOUS
 10
1.443979
 20
1.036072
  0
VERTEX
  8
FOREGROUND
  6
CONTINUOUS
 10
1.438629
 20
1.040620
  0
VERTEX
  8
FOREGROUND
  6
CONTINUOUS
 10
1.433217
 20
1.045115
  0
VERTEX
  8
FOREGROUND
  6
CONTINUOUS
 10
1.427746
 20
1.049556
  0
VERTEX
  8
FOREGROUND
  6
CONTINUOUS
 10
1.422214
 20
1.053944
  0
VERTEX
  8
FOREGROUND
  6
CONTINUOUS
 10
1.416624
 20
1.058278
  0
VERTEX
  8
FOREGROUND
  6
CONTINUOUS
 10
1.410976
 20
1.062559
  0
VERTEX
  8
FOREGROUND
  6
CONTINUOUS
 10
1.405271
 20
1.066786
  0
VERTEX
  8
FOREGROUND
  6
CONTINUOUS
 10
1.399509
 20
1.070960
  0
VERTEX
  8
FOREGROUND
  6
CONTINUOUS
 10
1.393691
 20
1.075080
  0
VERTEX
  8
FOREGROUND
  6
CONTINUOUS
 10
1.387818
 20
1.079147
  0
VERTEX
  8
FOREGROUND
  6
CONTINUOUS
 10
1.381890
 20
1.083160
  0
VERTEX
  8
FOREGROUND
  6
CONTINUOUS
 10
1.375908
 20
1.087119
  0
VERTEX
  8
FOREGROUND
  6
CONTINUOUS
 10
1.369874
 20
1.091026
  0
VERTEX
  8
FOREGROUND
  6
CONTINUOUS
 10
1.363787
 20
1.094878
  0
VERTEX
  8
FOREGROUND
  6
CONTINUOUS
 10
1.357649
 20
1.098678
  0
VERTEX
  8
FOREGROUND
  6
CONTINUOUS
 10
1.351460
 20
1.102423
  0
VERTEX
  8
FOREGROUND
  6
CONTINUOUS
 10
1.345220
 20
1.106115
  0
VERTEX
  8
FOREGROUND
  6
CONTINUOUS
 10
1.338931
 20
1.109754
  0
VERTEX
  8
FOREGROUND
  6
CONTINUOUS
 10
1.332594
 20
1.113339
  0
VERTEX
  8
FOREGROUND
  6
CONTINUOUS
 10
1.326208
 20
1.116871
  0
VERTEX
  8
FOREGROUND
  6
CONTINUOUS
 10
1.319776
 20
1.120349
  0
VERTEX
  8
FOREGROUND
  6
CONTINUOUS
 10
1.313296
 20
1.123774
  0
VERTEX
  8
FOREGROUND
  6
CONTINUOUS
 10
1.306771
 20
1.127145
  0
VERTEX
  8
FOREGROUND
  6
CONTINUOUS
 10
1.300201
 20
1.130463
  0
VERTEX
  8
FOREGROUND
  6
CONTINUOUS
 10
1.293586
 20
1.133727
  0
VERTEX
  8
FOREGROUND
  6
CONTINUOUS
 10
1.286928
 20
1.136937
  0
VERTEX
  8
FOREGROUND
  6
CONTINUOUS
 10
1.280227
 20
1.140095
  0
VERTEX
  8
FOREGROUND
  6
CONTINUOUS
 10
1.273484
 20
1.143198
  0
VERTEX
  8
FOREGROUND
  6
CONTINUOUS
 10
1.266699
 20
1.146248
  0
VERTEX
  8
FOREGROUND
  6
CONTINUOUS
 10
1.259873
 20
1.149245
  0
VERTEX
  8
FOREGROUND
  6
CONTINUOUS
 10
1.253007
 20
1.152188
  0
VERTEX
  8
FOREGROUND
  6
CONTINUOUS
 10
1.246102
 20
1.155078
  0
VERTEX
  8
FOREGROUND
  6
CONTINUOUS
 10
1.239158
 20
1.157914
  0
VERTEX
  8
FOREGROUND
  6
CONTINUOUS
 10
1.232177
 20
1.160696
  0
VERTEX
  8
FOREGROUND
  6
CONTINUOUS
 10
1.225158
 20
1.163425
  0
VERTEX
  8
FOREGROUND
  6
CONTINUOUS
 10
1.218103
 20
1.166101
  0
VERTEX
  8
FOREGROUND
  6
CONTINUOUS
 10
1.211012
 20
1.168723
  0
VERTEX
  8
FOREGROUND
  6
CONTINUOUS
 10
1.203886
 20
1.171292
  0
VERTEX
  8
FOREGROUND
  6
CONTINUOUS
 10
1.196726
 20
1.173807
  0
VERTEX
  8
FOREGROUND
  6
CONTINUOUS
 10
1.189532
 20
1.176268
  0
VERTEX
  8
FOREGROUND
  6
CONTINUOUS
 10
1.182305
 20
1.178676
  0
VERTEX
  8
FOREGROUND
  6
CONTINUOUS
 10
1.175047
 20
1.181031
  0
VERTEX
  8
FOREGROUND
  6
CONTINUOUS
 10
1.167756
 20
1.183332
  0
VERTEX
  8
FOREGROUND
  6
CONTINUOUS
 10
1.160436
 20
1.185579
  0
VERTEX
  8
FOREGROUND
  6
CONTINUOUS
 10
1.153085
 20
1.187773
  0
VERTEX
  8
FOREGROUND
  6
CONTINUOUS
 10
1.145705
 20
1.189914
  0
VERTEX
  8
FOREGROUND
  6
CONTINUOUS
 10
1.138296
 20
1.192001
  0
VERTEX
  8
FOREGROUND
  6
CONTINUOUS
 10
1.130860
 20
1.194035
  0
VERTEX
  8
FOREGROUND
  6
CONTINUOUS
 10
1.123396
 20
1.196015
  0
VERTEX
  8
FOREGROUND
  6
CONTINUOUS
 10
1.115906
 20
1.197941
  0
VERTEX
  8
FOREGROUND
  6
CONTINUOUS
 10
1.108391
 20
1.199814
  0
VERTEX
  8
FOREGROUND
  6
CONTINUOUS
 10
1.100851
 20
1.201634
  0
VERTEX
  8
FOREGROUND
  6
CONTINUOUS
 10
1.093286
 20
1.203400
  0
VERTEX
  8
FOREGROUND
  6
CONTINUOUS
 10
1.085698
 20
1.205112
  0
VERTEX
  8
FOREGROUND
  6
CONTINUOUS
 10
1.078087
 20
1.206771
  0
VERTEX
  8
FOREGROUND
  6
CONTINUOUS
 10
1.070455
 20
1.208376
  0
VERTEX
  8
FOREGROUND
  6
CONTINUOUS
 10
1.062800
 20
1.209928
  0
VERTEX
  8
FOREGROUND
  6
CONTINUOUS
 10
1.055126
 20
1.211427
  0
VERTEX
  8
FOREGROUND
  6
CONTINUOUS
 10
1.047431
 20
1.212872
  0
VERTEX
  8
FOREGROUND
  6
CONTINUOUS
 10
1.039717
 20
1.214263
  0
VERTEX
  8
FOREGROUND
  6
CONTINUOUS
 10
1.031985
 20
1.215601
  0
VERTEX
  8
FOREGROUND
  6
CONTINUOUS
 10
1.024236
 20
1.216886
  0
VERTEX
  8
FOREGROUND
  6
CONTINUOUS
 10
1.016469
 20
1.218117
  0
VERTEX
  8
FOREGROUND
  6
CONTINUOUS
 10
1.008686
 20
1.219294
  0
VERTEX
  8
FOREGROUND
  6
CONTINUOUS
 10
1.000887
 20
1.220418
  0
VERTEX
  8
FOREGROUND
  6
CONTINUOUS
 10
0.993074
 20
1.221488
  0
VERTEX
  8
FOREGROUND
  6
CONTINUOUS
 10
0.985246
 20
1.222505
  0
VERTEX
  8
FOREGROUND
  6
CONTINUOUS
 10
0.977405
 20
1.223469
  0
VERTEX
  8
FOREGROUND
  6
CONTINUOUS
 10
0.969551
 20
1.224378
  0
VERTEX
  8
FOREGROUND
  6
CONTINUOUS
 10
0.961686
 20
1.225235
  0
VERTEX
  8
FOREGROUND
  6
CONTINUOUS
 10
0.953809
 20
1.226038
  0
VERTEX
  8
FOREGROUND
  6
CONTINUOUS
 10
0.945922
 20
1.226787
  0
VERTEX
  8
FOREGROUND
  6
CONTINUOUS
 10
0.938025
 20
1.227483
  0
VERTEX
  8
FOREGROUND
  6
CONTINUOUS
 10
0.930119
 20
1.228125
  0
VERTEX
  8
FOREGROUND
  6
CONTINUOUS
 10
0.922205
 20
1.228714
  0
VERTEX
  8
FOREGROUND
  6
CONTINUOUS
 10
0.914283
 20
1.229250
  0
VERTEX
  8
FOREGROUND
  6
CONTINUOUS
 10
0.906354
 20
1.229731
  0
VERTEX
  8
FOREGROUND
  6
CONTINUOUS
 10
0.898419
 20
1.230160
  0
VERTEX
  8
FOREGROUND
  6
CONTINUOUS
 10
0.890478
 20
1.230535
  0
VERTEX
  8
FOREGROUND
  6
CONTINUOUS
 10
0.882533
 20
1.230856
  0
VERTEX
  8
FOREGROUND
  6
CONTINUOUS
 10
0.874584
 20
1.231124
  0
VERTEX
  8
FOREGROUND
  6
CONTINUOUS
 10
0.866631
 20
1.231338
  0
VERTEX
  8
FOREGROUND
  6
CONTINUOUS
 10
0.858676
 20
1.231499
  0
VERTEX
  8
FOREGROUND
  6
CONTINUOUS
 10
0.850719
 20
1.231606
  0
VERTEX
  8
FOREGROUND
  6
CONTINUOUS
 10
0.842761
 20
1.231660
  0
VERTEX
  8
FOREGROUND
  6
CONTINUOUS
 10
0.834803
 20
1.231660
  0
VERTEX
  8
FOREGROUND
  6
CONTINUOUS
 10
0.826844
 20
1.231607
  0
VERTEX
  8
FOREGROUND
  6
CONTINUOUS
 10
0.818887
 20
1.231500
  0
VERTEX
  8
FOREGROUND
  6
CONTINUOUS
 10
0.810932
 20
1.231340
  0
VERTEX
  8
FOREGROUND
  6
CONTINUOUS
 10
0.802979
 20
1.231126
  0
VERTEX
  8
FOREGROUND
  6
CONTINUOUS
 10
0.795029
 20
1.230859
  0
VERTEX
  8
FOREGROUND
  6
CONTINUOUS
 10
0.787084
 20
1.230538
  0
VERTEX
  8
FOREGROUND
  6
CONTINUOUS
 10
0.779143
 20
1.230164
  0
VERTEX
  8
FOREGROUND
  6
CONTINUOUS
 10
0.771207
 20
1.229736
  0
VERTEX
  8
FOREGROUND
  6
CONTINUOUS
 10
0.763277
 20
1.229255
  0
VERTEX
  8
FOREGROUND
  6
CONTINUOUS
 10
0.755354
 20
1.228720
  0
VERTEX
  8
FOREGROUND
  6
CONTINUOUS
 10
0.747439
 20
1.228132
  0
VERTEX
  8
FOREGROUND
  6
CONTINUOUS
 10
0.739532
 20
1.227490
  0
VERTEX
  8
FOREGROUND
  6
CONTINUOUS
 10
0.731634
 20
1.226795
  0
VERTEX
  8
FOREGROUND
  6
CONTINUOUS
 10
0.723746
 20
1.226046
  0
VERTEX
  8
FOREGROUND
  6
CONTINUOUS
 10
0.715868
 20
1.225243
  0
VERTEX
  8
FOREGROUND
  6
CONTINUOUS
 10
0.708001
 20
1.224388
  0
VERTEX
  8
FOREGROUND
  6
CONTINUOUS
 10
0.700146
 20
1.223478
  0
VERTEX
  8
FOREGROUND
  6
CONTINUOUS
 10
0.692304
 20
1.222515
  0
VERTEX
  8
FOREGROUND
  6
CONTINUOUS
 10
0.684475
 20
1.221499
  0
VERTEX
  8
FOREGROUND
  6
CONTINUOUS
 10
0.676659
 20
1.220429
  0
VERTEX
  8
FOREGROUND
  6
CONTINUOUS
 10
0.668859
 20
1.219306
  0
VERTEX
  8
FOREGROUND
  6
CONTINUOUS
 10
0.661074
 20
1.218129
  0
VERTEX
  8
FOREGROUND
  6
CONTINUOUS
 10
0.653306
 20
1.216899
  0
VERTEX
  8
FOREGROUND
  6
CONTINUOUS
 10
0.645554
 20
1.215615
  0
VERTEX
  8
FOREGROUND
  6
CONTINUOUS
 10
0.637820
 20
1.214277
  0
VERTEX
  8
FOREGROUND
  6
CONTINUOUS
 10
0.630104
 20
1.212886
  0
VERTEX
  8
FOREGROUND
  6
CONTINUOUS
 10
0.622407
 20
1.211442
  0
VERTEX
  8
FOREGROUND
  6
CONTINUOUS
 10
0.614730
 20
1.209944
  0
VERTEX
  8
FOREGROUND
  6
CONTINUOUS
 10
0.607074
 20
1.208393
  0
VERTEX
  8
FOREGROUND
  6
CONTINUOUS
 10
0.599438
 20
1.206788
  0
VERTEX
  8
FOREGROUND
  6
CONTINUOUS
 10
0.591825
 20
1.205129
  0
VERTEX
  8
FOREGROUND
  6
CONTINUOUS
 10
0.584234
 20
1.203417
  0
VERTEX
  8
FOREGROUND
  6
CONTINUOUS
 10
0.576667
 20
1.201652
  0
VERTEX
  8
FOREGROUND
  6
CONTINUOUS
 10
0.569124
 20
1.199833
  0
VERTEX
  8
FOREGROUND
  6
CONTINUOUS
 10
0.561606
 20
1.197960
  0
VERTEX
  8
FOREGROUND
  6
CONTINUOUS
 10
0.554113
 20
1.196034
  0
VERTEX
  8
FOREGROUND
  6
CONTINUOUS
 10
0.546647
 20
1.194055
  0
VERTEX
  8
FOREGROUND
  6
CONTINUOUS
 10
0.539207
 20
1.192022
  0
VERTEX
  8
FOREGROUND
  6
CONTINUOUS
 10
0.531795
 20
1.189935
  0
VERTEX
  8
FOREGROUND
  6
CONTINUOUS
 10
0.524412
 20
1.187795
  0
VERTEX
  8
FOREGROUND
  6
CONTINUOUS
 10
0.517058
 20
1.185602
  0
VERTEX
  8
FOREGROUND
  6
CONTINUOUS
 10
0.509734
 20
1.183355
  0
VERTEX
  8
FOREGROUND
  6
CONTINUOUS
 10
0.502440
 20
1.181054
  0
VERTEX
  8
FOREGROUND
  6
CONTINUOUS
 10
0.495178
 20
1.178700
  0
VERTEX
  8
FOREGROUND
  6
CONTINUOUS
 10
0.487947
 20
1.176293
  0
VERTEX
  8
FOREGROUND
  6
CONTINUOUS
 10
0.480750
 20
1.173832
  0
VERTEX
  8
FOREGROUND
  6
CONTINUOUS
 10
0.473586
 20
1.171317
  0
VERTEX
  8
FOREGROUND
  6
CONTINUOUS
 10
0.466456
 20
1.168749
  0
VERTEX
  8
FOREGROUND
  6
CONTINUOUS
 10
0.459361
 20
1.166127
  0
VERTEX
  8
FOREGROUND
  6
CONTINUOUS
 10
0.452302
 20
1.163452
  0
VERTEX
  8
FOREGROUND
  6
CONTINUOUS
 10
0.445279
 20
1.160724
  0
VERTEX
  8
FOREGROUND
  6
CONTINUOUS
 10
0.438293
 20
1.157941
  0
VERTEX
  8
FOREGROUND
  6
CONTINUOUS
 10
0.431345
 20
1.155106
  0
VERTEX
  8
FOREGROUND
  6
CONTINUOUS
 10
0.424435
 20
1.152217
  0
VERTEX
  8
FOREGROUND
  6
CONTINUOUS
 10
0.417565
 20
1.149274
  0
VERTEX
  8
FOREGROUND
  6
CONTINUOUS
 10
0.410735
 20
1.146278
  0
VERTEX
  8
FOREGROUND
  6
CONTINUOUS
 10
0.403945
 20
1.143228
  0
VERTEX
  8
FOREGROUND
  6
CONTINUOUS
 10
0.397197
 20
1.140125
  0
VERTEX
  8
FOREGROUND
  6
CONTINUOUS
 10
0.390491
 20
1.136968
  0
VERTEX
  8
FOREGROUND
  6
CONTINUOUS
 10
0.383828
 20
1.133758
  0
VERTEX
  8
FOREGROUND
  6
CONTINUOUS
 10
0.377209
 20
1.130495
  0
VERTEX
  8
FOREGROUND
  6
CONTINUOUS
 10
0.370633
 20
1.127177
  0
VERTEX
  8
FOREGROUND
  6
CONTINUOUS
 10
0.364103
 20
1.123807
  0
VERTEX
  8
FOREGROUND
  6
CONTINUOUS
 10
0.357619
 20
1.120382
  0
VERTEX
  8
FOREGROUND
  6
CONTINUOUS
 10
0.351181
 20
1.116905
  0
VERTEX
  8
FOREGROUND
  6
CONTINUOUS
 10
0.344790
 20
1.113374
  0
VERTEX
  8
FOREGROUND
  6
CONTINUOUS
 10
0.338447
 20
1.109789
  0
VERTEX
  8
FOREGROUND
  6
CONTINUOUS
 10
0.332152
 20
1.106151
  0
VERTEX
  8
FOREGROUND
  6
CONTINUOUS
 10
0.325907
 20
1.102459
  0
VERTEX
  8
FOREGROUND
  6
CONTINUOUS
 10
0.319712
 20
1.098714
  0
VERTEX
  8
FOREGROUND
  6
CONTINUOUS
 10
0.313568
 20
1.094915
  0
VERTEX
  8
FOREGROUND
  6
CONTINUOUS
 10
0.307476
 20
1.091063
  0
VERTEX
  8
FOREGROUND
  6
CONTINUOUS
 10
0.301435
 20
1.087157
  0
VERTEX
  8
FOREGROUND
  6
CONTINUOUS
 10
0.295448
 20
1.083197
  0
VERTEX
  8
FOREGROUND
  6
CONTINUOUS
 10
0.289514
 20
1.079185
  0
VERTEX
  8
FOREGROUND
  6
CONTINUOUS
 10
0.283635
 20
1.075118
  0
VERTEX
  8
FOREGROUND
  6
CONTINUOUS
 10
0.277810
 20
1.070998
  0
VERTEX
  8
FOREGROUND
  6
CONTINUOUS
 10
0.272042
 20
1.066825
  0
VERTEX
  8
FOREGROUND
  6
CONTINUOUS
 10
0.266330
 20
1.062598
  0
VERTEX
  8
FOREGROUND
  6
CONTINUOUS
 10
0.260676
 20
1.058318
  0
VERTEX
  8
FOREGROUND
  6
CONTINUOUS
 10
0.255079
 20
1.053984
  0
VERTEX
  8
FOREGROUND
  6
CONTINUOUS
 10
0.249541
 20
1.049597
  0
VERTEX
  8
FOREGROUND
  6
CONTINUOUS
 10
0.244063
 20
1.045156
  0
VERTEX
  8
FOREGROUND
  6
CONTINUOUS
 10
0.238644
 20
1.040661
  0
VERTEX
  8
FOREGROUND
  6
CONTINUOUS
 10
0.233287
 20
1.036114
  0
VERTEX
  8
FOREGROUND
  6
CONTINUOUS
 10
0.227991
 20
1.031512
  0
VERTEX
  8
FOREGROUND
  6
CONTINUOUS
 10
0.222758
 20
1.026857
  0
VERTEX
  8
FOREGROUND
  6
CONTINUOUS
 10
0.217587
 20
1.022149
  0
VERTEX
  8
FOREGROUND
  6
CONTINUOUS
 10
0.212481
 20
1.017387
  0
VERTEX
  8
FOREGROUND
  6
CONTINUOUS
 10
0.207438
 20
1.012571
  0
VERTEX
  8
FOREGROUND
  6
CONTINUOUS
 10
0.202462
 20
1.007703
  0
VERTEX
  8
FOREGROUND
  6
CONTINUOUS
 10
0.197550
 20
1.002780
  0
VERTEX
  8
FOREGROUND
  6
CONTINUOUS
 10
0.192706
 20
0.997804
  0
VERTEX
  8
FOREGROUND
  6
CONTINUOUS
 10
0.187929
 20
0.992775
  0
VERTEX
  8
FOREGROUND
  6
CONTINUOUS
 10
0.183220
 20
0.987692
  0
VERTEX
  8
FOREGROUND
  6
CONTINUOUS
 10
0.178580
 20
0.982555
  0
VERTEX
  8
FOREGROUND
  6
CONTINUOUS
 10
0.174009
 20
0.977365
  0
VERTEX
  8
FOREGROUND
  6
CONTINUOUS
 10
0.169509
 20
0.972122
  0
VERTEX
  8
FOREGROUND
  6
CONTINUOUS
 10
0.165080
 20
0.966825
  0
VERTEX
  8
FOREGROUND
  6
CONTINUOUS
 10
0.160722
 20
0.961474
  0
VERTEX
  8
FOREGROUND
  6
CONTINUOUS
 10
0.156437
 20
0.956070
  0
VERTEX
  8
FOREGROUND
  6
CONTINUOUS
 10
0.152225
 20
0.950613
  0
VERTEX
  8
FOREGROUND
  6
CONTINUOUS
 10
0.148086
 20
0.945101
  0
VERTEX
  8
FOREGROUND
  6
CONTINUOUS
 10
0.144023
 20
0.939537
  0
VERTEX
  8
FOREGROUND
  6
CONTINUOUS
 10
0.140034
 20
0.933919
  0
VERTEX
  8
FOREGROUND
  6
CONTINUOUS
 10
0.136122
 20
0.928247
  0
VERTEX
  8
FOREGROUND
  6
CONTINUOUS
 10
0.132287
 20
0.922522
  0
VERTEX
  8
FOREGROUND
  6
CONTINUOUS
 10
0.128528
 20
0.916744
  0
VERTEX
  8
FOREGROUND
  6
CONTINUOUS
 10
0.124848
 20
0.910911
  0
VERTEX
  8
FOREGROUND
  6
CONTINUOUS
 10
0.121247
 20
0.905026
  0
VERTEX
  8
FOREGROUND
  6
CONTINUOUS
 10
0.117726
 20
0.899087
  0
VERTEX
  8
FOREGROUND
  6
CONTINUOUS
 10
0.114285
 20
0.893094
  0
VERTEX
  8
FOREGROUND
  6
CONTINUOUS
 10
0.110925
 20
0.887048
  0
VERTEX
  8
FOREGROUND
  6
CONTINUOUS
 10
0.107647
 20
0.880948
  0
VERTEX
  8
FOREGROUND
  6
CONTINUOUS
 10
0.104451
 20
0.874795
  0
VERTEX
  8
FOREGROUND
  6
CONTINUOUS
 10
0.101339
 20
0.868588
  0
VERTEX
  8
FOREGROUND
  6
CONTINUOUS
 10
0.098310
 20
0.862328
  0
VERTEX
  8
FOREGROUND
  6
CONTINUOUS
 10
0.095366
 20
0.856014
  0
VERTEX
  8
FOREGROUND
  6
CONTINUOUS
 10
0.092508
 20
0.849647
  0
VERTEX
  8
FOREGROUND
  6
CONTINUOUS
 10
0.089735
 20
0.843227
  0
VERTEX
  8
FOREGROUND
  6
CONTINUOUS
 10
0.087050
 20
0.836752
  0
VERTEX
  8
FOREGROUND
  6
CONTINUOUS
 10
0.084452
 20
0.830225
  0
VERTEX
  8
FOREGROUND
  6
CONTINUOUS
 10
0.081942
 20
0.823643
  0
VERTEX
  8
FOREGROUND
  6
CONTINUOUS
 10
0.079522
 20
0.817009
  0
VERTEX
  8
FOREGROUND
  6
CONTINUOUS
 10
0.077191
 20
0.810320
  0
VERTEX
  8
FOREGROUND
  6
CONTINUOUS
 10
0.074950
 20
0.803579
  0
VERTEX
  8
FOREGROUND
  6
CONTINUOUS
 10
0.072801
 20
0.796783
  0
VERTEX
  8
FOREGROUND
  6
CONTINUOUS
 10
0.070743
 20
0.789934
  0
VERTEX
  8
FOREGROUND
  6
CONTINUOUS
 10
0.068779
 20
0.783032
  0
VERTEX
  8
FOREGROUND
  6
CONTINUOUS
 10
0.066907
 20
0.776076
  0
VERTEX
  8
FOREGROUND
  6
CONTINUOUS
 10
0.065130
 20
0.769067
  0
VERTEX
  8
FOREGROUND
  6
CONTINUOUS
 10
0.063447
 20
0.762004
  0
VERTEX
  8
FOREGROUND
  6
CONTINUOUS
 10
0.061860
 20
0.754888
  0
VERTEX
  8
FOREGROUND
  6
CONTINUOUS
 10
0.060369
 20
0.747718
  0
VERTEX
  8
FOREGROUND
  6
CONTINUOUS
 10
0.058975
 20
0.740495
  0
VERTEX
  8
FOREGROUND
  6
CONTINUOUS
 10
0.057678
 20
0.733218
  0
VERTEX
  8
FOREGROUND
  6
CONTINUOUS
 10
0.056480
 20
0.725887
  0
VERTEX
  8
FOREGROUND
  6
CONTINUOUS
 10
0.055381
 20
0.718503
  0
VERTEX
  8
FOREGROUND
  6
CONTINUOUS
 10
0.054382
 20
0.711066
  0
VERTEX
  8
FOREGROUND
  6
CONTINUOUS
 10
0.053483
 20
0.703575
  0
VERTEX
  8
FOREGROUND
  6
CONTINUOUS
 10
0.052686
 20
0.696031
  0
VERTEX
  8
FOREGROUND
  6
CONTINUOUS
 10
0.051991
 20
0.688433
  0
VERTEX
  8
FOREGROUND
  6
CONTINUOUS
 10
0.051398
 20
0.680781
  0
VERTEX
  8
FOREGROUND
  6
CONTINUOUS
 10
0.050909
 20
0.673076
  0
VERTEX
  8
FOREGROUND
  6
CONTINUOUS
 10
0.050524
 20
0.665318
  0
VERTEX
  8
FOREGROUND
  6
CONTINUOUS
 10
0.050243
 20
0.657506
  0
VERTEX
  8
FOREGROUND
  6
CONTINUOUS
 10
0.050069
 20
0.649640
  0
VERTEX
  8
FOREGROUND
  6
CONTINUOUS
 10
0.050000
 20
0.641721
  0
VERTEX
  8
FOREGROUND
  6
CONTINUOUS
 10
0.050000
 20
0.641721
  0
VERTEX
  8
FOREGROUND
  6
CONTINUOUS
 10
0.050056
 20
0.633802
  0
VERTEX
  8
FOREGROUND
  6
CONTINUOUS
 10
0.050217
 20
0.625937
  0
VERTEX
  8
FOREGROUND
  6
CONTINUOUS
 10
0.050485
 20
0.618125
  0
VERTEX
  8
FOREGROUND
  6
CONTINUOUS
 10
0.050857
 20
0.610366
  0
VERTEX
  8
FOREGROUND
  6
CONTINUOUS
 10
0.051334
 20
0.602661
  0
VERTEX
  8
FOREGROUND
  6
CONTINUOUS
 10
0.051914
 20
0.595010
  0
VERTEX
  8
FOREGROUND
  6
CONTINUOUS
 10
0.052597
 20
0.587412
  0
VERTEX
  8
FOREGROUND
  6
CONTINUOUS
 10
0.053382
 20
0.579867
  0
VERTEX
  8
FOREGROUND
  6
CONTINUOUS
 10
0.054268
 20
0.572376
  0
VERTEX
  8
FOREGROUND
  6
CONTINUOUS
 10
0.055255
 20
0.564939
  0
VERTEX
  8
FOREGROUND
  6
CONTINUOUS
 10
0.056342
 20
0.557554
  0
VERTEX
  8
FOREGROUND
  6
CONTINUOUS
 10
0.057528
 20
0.550224
  0
VERTEX
  8
FOREGROUND
  6
CONTINUOUS
 10
0.058812
 20
0.542947
  0
VERTEX
  8
FOREGROUND
  6
CONTINUOUS
 10
0.060194
 20
0.535723
  0
VERTEX
  8
FOREGROUND
  6
CONTINUOUS
 10
0.061674
 20
0.528553
  0
VERTEX
  8
FOREGROUND
  6
CONTINUOUS
 10
0.063249
 20
0.521437
  0
VERTEX
  8
FOREGROUND
  6
CONTINUOUS
 10
0.064920
 20
0.514374
  0
VERTEX
  8
FOREGROUND
  6
CONTINUOUS
 10
0.066686
 20
0.507364
  0
VERTEX
  8
FOREGROUND
  6
CONTINUOUS
 10
0.068546
 20
0.500408
  0
VERTEX
  8
FOREGROUND
  6
CONTINUOUS
 10
0.070500
 20
0.493505
  0
VERTEX
  8
FOREGROUND
  6
CONTINUOUS
 10
0.072546
 20
0.486656
  0
VERTEX
  8
FOREGROUND
  6
CONTINUOUS
 10
0.074684
 20
0.479861
  0
VERTEX
  8
FOREGROUND
  6
CONTINUOUS
 10
0.076914
 20
0.473119
  0
VERTEX
  8
FOREGROUND
  6
CONTINUOUS
 10
0.079234
 20
0.466430
  0
VERTEX
  8
FOREGROUND
  6
CONTINUOUS
 10
0.081643
 20
0.459795
  0
VERTEX
  8
FOREGROUND
  6
CONTINUOUS
 10
0.084142
 20
0.453213
  0
VERTEX
  8
FOREGROUND
  6
CONTINUOUS
 10
0.086729
 20
0.446685
  0
VERTEX
  8
FOREGROUND
  6
CONTINUOUS
 10
0.089404
 20
0.440211
  0
VERTEX
  8
FOREGROUND
  6
CONTINUOUS
 10
0.092166
 20
0.433790
  0
VERTEX
  8
FOREGROUND
  6
CONTINUOUS
 10
0.095014
 20
0.427422
  0
VERTEX
  8
FOREGROUND
  6
CONTINUOUS
 10
0.097947
 20
0.421108
  0
VERTEX
  8
FOREGROUND
  6
CONTINUOUS
 10
0.100966
 20
0.414847
  0
VERTEX
  8
FOREGROUND
  6
CONTINUOUS
 10
0.104068
 20
0.408640
  0
VERTEX
  8
FOREGROUND
  6
CONTINUOUS
 10
0.107253
 20
0.402486
  0
VERTEX
  8
FOREGROUND
  6
CONTINUOUS
 10
0.110522
 20
0.396386
  0
VERTEX
  8
FOREGROUND
  6
CONTINUOUS
 10
0.113872
 20
0.390340
  0
VERTEX
  8
FOREGROUND
  6
CONTINUOUS
 10
0.117303
 20
0.384347
  0
VERTEX
  8
FOREGROUND
  6
CONTINUOUS
 10
0.120815
 20
0.378407
  0
VERTEX
  8
FOREGROUND
  6
CONTINUOUS
 10
0.124406
 20
0.372521
  0
VERTEX
  8
FOREGROUND
  6
CONTINUOUS
 10
0.128076
 20
0.366688
  0
VERTEX
  8
FOREGROUND
  6
CONTINUOUS
 10
0.131825
 20
0.360909
  0
VERTEX
  8
FOREGROUND
  6
CONTINUOUS
 10
0.135651
 20
0.355183
  0
VERTEX
  8
FOREGROUND
  6
CONTINUOUS
 10
0.139554
 20
0.349511
  0
VERTEX
  8
FOREGROUND
  6
CONTINUOUS
 10
0.143533
 20
0.343893
  0
VERTEX
  8
FOREGROUND
  6
CONTINUOUS
 10
0.147588
 20
0.338328
  0
VERTEX
  8
FOREGROUND
  6
CONTINUOUS
 10
0.151717
 20
0.332816
  0
VERTEX
  8
FOREGROUND
  6
CONTINUOUS
 10
0.155920
 20
0.327358
  0
VERTEX
  8
FOREGROUND
  6
CONTINUOUS
 10
0.160196
 20
0.321953
  0
VERTEX
  8
FOREGROUND
  6
CONTINUOUS
 10
0.164545
 20
0.316602
  0
VERTEX
  8
FOREGROUND
  6
CONTINUOUS
 10
0.168966
 20
0.311304
  0
VERTEX
  8
FOREGROUND
  6
CONTINUOUS
 10
0.173458
 20
0.306060
  0
VERTEX
  8
FOREGROUND
  6
CONTINUOUS
 10
0.178020
 20
0.300870
  0
VERTEX
  8
FOREGROUND
  6
CONTINUOUS
 10
0.182651
 20
0.295733
  0
VERTEX
  8
FOREGROUND
  6
CONTINUOUS
 10
0.187352
 20
0.290649
  0
VERTEX
  8
FOREGROUND
  6
CONTINUOUS
 10
0.192121
 20
0.285619
  0
VERTEX
  8
FOREGROUND
  6
CONTINUOUS
 10
0.196957
 20
0.280642
  0
VERTEX
  8
FOREGROUND
  6
CONTINUOUS
 10
0.201860
 20
0.275719
  0
VERTEX
  8
FOREGROUND
  6
CONTINUOUS
 10
0.206829
 20
0.270849
  0
VERTEX
  8
FOREGROUND
  6
CONTINUOUS
 10
0.211863
 20
0.266033
  0
VERTEX
  8
FOREGROUND
  6
CONTINUOUS
 10
0.216962
 20
0.261271
  0
VERTEX
  8
FOREGROUND
  6
CONTINUOUS
 10
0.222125
 20
0.256561
  0
VERTEX
  8
FOREGROUND
  6
CONTINUOUS
 10
0.227350
 20
0.251906
  0
VERTEX
  8
FOREGROUND
  6
CONTINUOUS
 10
0.232639
 20
0.247304
  0
VERTEX
  8
FOREGROUND
  6
CONTINUOUS
 10
0.237989
 20
0.242755
  0
VERTEX
  8
FOREGROUND
  6
CONTINUOUS
 10
0.243399
 20
0.238260
  0
VERTEX
  8
FOREGROUND
  6
CONTINUOUS
 10
0.248871
 20
0.233818
  0
VERTEX
  8
FOREGROUND
  6
CONTINUOUS
 10
0.254401
 20
0.229430
  0
VERTEX
  8
FOREGROUND
  6
CONTINUOUS
 10
0.259991
 20
0.225096
  0
VERTEX
  8
FOREGROUND
  6
CONTINUOUS
 10
0.265638
 20
0.220814
  0
VERTEX
  8
FOREGROUND
  6
CONTINUOUS
 10
0.271343
 20
0.216587
  0
VERTEX
  8
FOREGROUND
  6
CONTINUOUS
 10
0.277105
 20
0.212413
  0
VERTEX
  8
FOREGROUND
  6
CONTINUOUS
 10
0.282922
 20
0.208292
  0
VERTEX
  8
FOREGROUND
  6
CONTINUOUS
 10
0.288795
 20
0.204225
  0
VERTEX
  8
FOREGROUND
  6
CONTINUOUS
 10
0.294722
 20
0.200211
  0
VERTEX
  8
FOREGROUND
  6
CONTINUOUS
 10
0.300703
 20
0.196251
  0
VERTEX
  8
FOREGROUND
  6
CONTINUOUS
 10
0.306737
 20
0.192345
  0
VERTEX
  8
FOREGROUND
  6
CONTINUOUS
 10
0.312823
 20
0.188491
  0
VERTEX
  8
FOREGROUND
  6
CONTINUOUS
 10
0.318961
 20
0.184692
  0
VERTEX
  8
FOREGROUND
  6
CONTINUOUS
 10
0.325150
 20
0.180946
  0
VERTEX
  8
FOREGROUND
  6
CONTINUOUS
 10
0.331389
 20
0.177253
  0
VERTEX
  8
FOREGROUND
  6
CONTINUOUS
 10
0.337677
 20
0.173614
  0
VERTEX
  8
FOREGROUND
  6
CONTINUOUS
 10
0.344014
 20
0.170028
  0
VERTEX
  8
FOREGROUND
  6
CONTINUOUS
 10
0.350399
 20
0.166496
  0
VERTEX
  8
FOREGROUND
  6
CONTINUOUS
 10
0.356832
 20
0.163018
  0
VERTEX
  8
FOREGROUND
  6
CONTINUOUS
 10
0.363311
 20
0.159592
  0
VERTEX
  8
FOREGROUND
  6
CONTINUOUS
 10
0.369835
 20
0.156221
  0
VERTEX
  8
FOREGROUND
  6
CONTINUOUS
 10
0.376405
 20
0.152903
  0
VERTEX
  8
FOREGROUND
  6
CONTINUOUS
 10
0.383019
 20
0.149638
  0
VERTEX
  8
FOREGROUND
  6
CONTINUOUS
 10
0.389677
 20
0.146427
  0
VERTEX
  8
FOREGROUND
  6
CONTINUOUS
 10
0.396378
 20
0.143269
  0
VERTEX
  8
FOREGROUND
  6
CONTINUOUS
 10
0.403121
 20
0.140165
  0
VERTEX
  8
FOREGROUND
  6
CONTINUOUS
 10
0.409906
 20
0.137115
  0
VERTEX
  8
FOREGROUND
  6
CONTINUOUS
 10
0.416731
 20
0.134118
  0
VERTEX
  8
FOREGROUND
  6
CONTINUOUS
 10
0.423596
 20
0.131174
  0
VERTEX
  8
FOREGROUND
  6
CONTINUOUS
 10
0.430501
 20
0.128284
  0
VERTEX
  8
FOREGROUND
  6
CONTINUOUS
 10
0.437444
 20
0.125447
  0
VERTEX
  8
FOREGROUND
  6
CONTINUOUS
 10
0.444426
 20
0.122664
  0
VERTEX
  8
FOREGROUND
  6
CONTINUOUS
 10
0.451444
 20
0.119935
  0
VERTEX
  8
FOREGROUND
  6
CONTINUOUS
 10
0.458499
 20
0.117259
  0
VERTEX
  8
FOREGROUND
  6
CONTINUOUS
 10
0.465589
 20
0.114636
  0
VERTEX
  8
FOREGROUND
  6
CONTINUOUS
 10
0.472715
 20
0.112067
  0
VERTEX
  8
FOREGROUND
  6
CONTINUOUS
 10
0.479875
 20
0.109551
  0
VERTEX
  8
FOREGROUND
  6
CONTINUOUS
 10
0.487069
 20
0.107089
  0
VERTEX
  8
FOREGROUND
  6
CONTINUOUS
 10
0.494295
 20
0.104681
  0
VERTEX
  8
FOREGROUND
  6
CONTINUOUS
 10
0.501553
 20
0.102326
  0
VERTEX
  8
FOREGROUND
  6
CONTINUOUS
 10
0.508843
 20
0.100024
  0
VERTEX
  8
FOREGROUND
  6
CONTINUOUS
 10
0.516164
 20
0.097776
  0
VERTEX
  8
FOREGROUND
  6
CONTINUOUS
 10
0.523514
 20
0.095582
  0
VERTEX
  8
FOREGROUND
  6
CONTINUOUS
 10
0.530894
 20
0.093441
  0
VERTEX
  8
FOREGROUND
  6
CONTINUOUS
 10
0.538302
 20
0.091353
  0
VERTEX
  8
FOREGROUND
  6
CONTINUOUS
 10
0.545739
 20
0.089319
  0
VERTEX
  8
FOREGROUND
  6
CONTINUOUS
 10
0.553202
 20
0.087339
  0
VERTEX
  8
FOREGROUND
  6
CONTINUOUS
 10
0.560691
 20
0.085411
  0
VERTEX
  8
FOREGROUND
  6
CONTINUOUS
 10
0.568207
 20
0.083538
  0
VERTEX
  8
FOREGROUND
  6
CONTINUOUS
 10
0.575747
 20
0.081718
  0
VERTEX
  8
FOREGROUND
  6
CONTINUOUS
 10
0.583311
 20
0.079951
  0
VERTEX
  8
FOREGROUND
  6
CONTINUOUS
 10
0.590899
 20
0.078238
  0
VERTEX
  8
FOREGROUND
  6
CONTINUOUS
 10
0.598509
 20
0.076579
  0
VERTEX
  8
FOREGROUND
  6
CONTINUOUS
 10
0.606142
 20
0.074973
  0
VERTEX
  8
FOREGROUND
  6
CONTINUOUS
 10
0.613796
 20
0.073420
  0
VERTEX
  8
FOREGROUND
  6
CONTINUOUS
 10
0.621470
 20
0.071921
  0
VERTEX
  8
FOREGROUND
  6
CONTINUOUS
 10
0.629165
 20
0.070476
  0
VERTEX
  8
FOREGROUND
  6
CONTINUOUS
 10
0.636878
 20
0.069084
  0
VERTEX
  8
FOREGROUND
  6
CONTINUOUS
 10
0.644610
 20
0.067746
  0
VERTEX
  8
FOREGROUND
  6
CONTINUOUS
 10
0.652360
 20
0.066461
  0
VERTEX
  8
FOREGROUND
  6
CONTINUOUS
 10
0.660127
 20
0.065229
  0
VERTEX
  8
FOREGROUND
  6
CONTINUOUS
 10
0.667910
 20
0.064051
  0
VERTEX
  8
FOREGROUND
  6
CONTINUOUS
 10
0.675708
 20
0.062927
  0
VERTEX
  8
FOREGROUND
  6
CONTINUOUS
 10
0.683521
 20
0.061856
  0
VERTEX
  8
FOREGROUND
  6
CONTINUOUS
 10
0.691349
 20
0.060838
  0
VERTEX
  8
FOREGROUND
  6
CONTINUOUS
 10
0.699190
 20
0.059874
  0
VERTEX
  8
FOREGROUND
  6
CONTINUOUS
 10
0.707043
 20
0.058964
  0
VERTEX
  8
FOREGROUND
  6
CONTINUOUS
 10
0.714908
 20
0.058107
  0
VERTEX
  8
FOREGROUND
  6
CONTINUOUS
 10
0.722785
 20
0.057304
  0
VERTEX
  8
FOREGROUND
  6
CONTINUOUS
 10
0.730672
 20
0.056554
  0
VERTEX
  8
FOREGROUND
  6
CONTINUOUS
 10
0.738569
 20
0.055857
  0
VERTEX
  8
FOREGROUND
  6
CONTINUOUS
 10
0.746475
 20
0.055214
  0
VERTEX
  8
FOREGROUND
  6
CONTINUOUS
 10
0.754389
 20
0.054625
  0
VERTEX
  8
FOREGROUND
  6
CONTINUOUS
 10
0.762311
 20
0.054089
  0
VERTEX
  8
FOREGROUND
  6
CONTINUOUS
 10
0.770240
 20
0.053607
  0
VERTEX
  8
FOREGROUND
  6
CONTINUOUS
 10
0.778175
 20
0.053178
  0
VERTEX
  8
FOREGROUND
  6
CONTINUOUS
 10
0.786116
 20
0.052802
  0
VERTEX
  8
FOREGROUND
  6
CONTINUOUS
 10
0.794061
 20
0.052481
  0
VERTEX
  8
FOREGROUND
  6
CONTINUOUS
 10
0.802010
 20
0.052212
  0
VERTEX
  8
FOREGROUND
  6
CONTINUOUS
 10
0.809963
 20
0.051997
  0
VERTEX
  8
FOREGROUND
  6
CONTINUOUS
 10
0.817918
 20
0.051836
  0
VERTEX
  8
FOREGROUND
  6
CONTINUOUS
 10
0.825875
 20
0.051728
  0
VERTEX
  8
FOREGROUND
  6
CONTINUOUS
 10
0.833833
 20
0.051674
  0
VERTEX
  8
FOREGROUND
  6
CONTINUOUS
 10
0.841791
 20
0.051673
  0
VERTEX
  8
FOREGROUND
  6
CONTINUOUS
 10
0.849749
 20
0.051726
  0
VERTEX
  8
FOREGROUND
  6
CONTINUOUS
 10
0.857706
 20
0.051832
  0
VERTEX
  8
FOREGROUND
  6
CONTINUOUS
 10
0.865662
 20
0.051992
  0
VERTEX
  8
FOREGROUND
  6
CONTINUOUS
 10
0.873615
 20
0.052205
  0
VERTEX
  8
FOREGROUND
  6
CONTINUOUS
 10
0.881564
 20
0.052471
  0
VERTEX
  8
FOREGROUND
  6
CONTINUOUS
 10
0.889510
 20
0.052792
  0
VERTEX
  8
FOREGROUND
  6
CONTINUOUS
 10
0.897451
 20
0.053165
  0
VERTEX
  8
FOREGROUND
  6
CONTINUOUS
 10
0.905387
 20
0.053593
  0
VERTEX
  8
FOREGROUND
  6
CONTINUOUS
 10
0.913317
 20
0.054073
  0
VERTEX
  8
FOREGROUND
  6
CONTINUOUS
 10
0.921239
 20
0.054608
  0
VERTEX
  8
FOREGROUND
  6
CONTINUOUS
 10
0.929155
 20
0.055195
  0
VERTEX
  8
FOREGROUND
  6
CONTINUOUS
 10
0.937062
 20
0.055837
  0
VERTEX
  8
FOREGROUND
  6
CONTINUOUS
 10
0.944960
 20
0.056531
  0
VERTEX
  8
FOREGROUND
  6
CONTINUOUS
 10
0.952849
 20
0.057280
  0
VERTEX
  8
FOREGROUND
  6
CONTINUOUS
 10
0.960727
 20
0.058081
  0
VERTEX
  8
FOREGROUND
  6
CONTINUOUS
 10
0.968594
 20
0.058937
  0
VERTEX
  8
FOREGROUND
  6
CONTINUOUS
 10
0.976449
 20
0.059846
  0
VERTEX
  8
FOREGROUND
  6
CONTINUOUS
 10
0.984291
 20
0.060808
  0
VERTEX
  8
FOREGROUND
  6
CONTINUOUS
 10
0.992120
 20
0.061824
  0
VERTEX
  8
FOREGROUND
  6
CONTINUOUS
 10
0.999936
 20
0.062893
  0
VERTEX
  8
FOREGROUND
  6
CONTINUOUS
 10
1.007736
 20
0.064016
  0
VERTEX
  8
FOREGROUND
  6
CONTINUOUS
 10
1.015521
 20
0.065192
  0
VERTEX
  8
FOREGROUND
  6
CONTINUOUS
 10
1.023290
 20
0.066422
  0
VERTEX
  8
FOREGROUND
  6
CONTINUOUS
 10
1.031042
 20
0.067705
  0
VERTEX
  8
FOREGROUND
  6
CONTINUOUS
 10
1.038776
 20
0.069042
  0
VERTEX
  8
FOREGROUND
  6
CONTINUOUS
 10
1.046492
 20
0.070433
  0
VERTEX
  8
FOREGROUND
  6
CONTINUOUS
 10
1.054189
 20
0.071876
  0
VERTEX
  8
FOREGROUND
  6
CONTINUOUS
 10
1.061866
 20
0.073374
  0
VERTEX
  8
FOREGROUND
  6
CONTINUOUS
 10
1.069523
 20
0.074925
  0
VERTEX
  8
FOREGROUND
  6
CONTINUOUS
 10
1.077158
 20
0.076529
  0
VERTEX
  8
FOREGROUND
  6
CONTINUOUS
 10
1.084772
 20
0.078187
  0
VERTEX
  8
FOREGROUND
  6
CONTINUOUS
 10
1.092363
 20
0.079899
  0
VERTEX
  8
FOREGROUND
  6
CONTINUOUS
 10
1.099930
 20
0.081663
  0
VERTEX
  8
FOREGROUND
  6
CONTINUOUS
 10
1.107474
 20
0.083482
  0
VERTEX
  8
FOREGROUND
  6
CONTINUOUS
 10
1.114992
 20
0.085354
  0
VERTEX
  8
FOREGROUND
  6
CONTINUOUS
 10
1.122485
 20
0.087279
  0
VERTEX
  8
FOREGROUND
  6
CONTINUOUS
 10
1.129952
 20
0.089258
  0
VERTEX
  8
FOREGROUND
  6
CONTINUOUS
 10
1.137391
 20
0.091291
  0
VERTEX
  8
FOREGROUND
  6
CONTINUOUS
 10
1.144803
 20
0.093377
  0
VERTEX
  8
FOREGROUND
  6
CONTINUOUS
 10
1.152187
 20
0.095516
  0
VERTEX
  8
FOREGROUND
  6
CONTINUOUS
 10
1.159541
 20
0.097709
  0
VERTEX
  8
FOREGROUND
  6
CONTINUOUS
 10
1.166866
 20
0.099956
  0
VERTEX
  8
FOREGROUND
  6
CONTINUOUS
 10
1.174160
 20
0.102256
  0
VERTEX
  8
FOREGROUND
  6
CONTINUOUS
 10
1.181423
 20
0.104609
  0
VERTEX
  8
FOREGROUND
  6
CONTINUOUS
 10
1.188653
 20
0.107016
  0
VERTEX
  8
FOREGROUND
  6
CONTINUOUS
 10
1.195851
 20
0.109477
  0
VERTEX
  8
FOREGROUND
  6
CONTINUOUS
 10
1.203015
 20
0.111991
  0
VERTEX
  8
FOREGROUND
  6
CONTINUOUS
 10
1.210145
 20
0.114559
  0
VERTEX
  8
FOREGROUND
  6
CONTINUOUS
 10
1.217241
 20
0.117180
  0
VERTEX
  8
FOREGROUND
  6
CONTINUOUS
 10
1.224300
 20
0.119854
  0
VERTEX
  8
FOREGROUND
  6
CONTINUOUS
 10
1.231324
 20
0.122582
  0
VERTEX
  8
FOREGROUND
  6
CONTINUOUS
 10
1.238310
 20
0.125364
  0
VERTEX
  8
FOREGROUND
  6
CONTINUOUS
 10
1.245258
 20
0.128199
  0
VERTEX
  8
FOREGROUND
  6
CONTINUOUS
 10
1.252168
 20
0.131088
  0
VERTEX
  8
FOREGROUND
  6
CONTINUOUS
 10
1.259039
 20
0.134030
  0
VERTEX
  8
FOREGROUND
  6
CONTINUOUS
 10
1.265869
 20
0.137026
  0
VERTEX
  8
FOREGROUND
  6
CONTINUOUS
 10
1.272659
 20
0.140075
  0
VERTEX
  8
FOREGROUND
  6
CONTINUOUS
 10
1.279408
 20
0.143178
  0
VERTEX
  8
FOREGROUND
  6
CONTINUOUS
 10
1.286114
 20
0.146334
  0
VERTEX
  8
FOREGROUND
  6
CONTINUOUS
 10
1.292778
 20
0.149544
  0
VERTEX
  8
FOREGROUND
  6
CONTINUOUS
 10
1.299398
 20
0.152807
  0
VERTEX
  8
FOREGROUND
  6
CONTINUOUS
 10
1.305973
 20
0.156123
  0
VERTEX
  8
FOREGROUND
  6
CONTINUOUS
 10
1.312504
 20
0.159494
  0
VERTEX
  8
FOREGROUND
  6
CONTINUOUS
 10
1.318989
 20
0.162917
  0
VERTEX
  8
FOREGROUND
  6
CONTINUOUS
 10
1.325427
 20
0.166395
  0
VERTEX
  8
FOREGROUND
  6
CONTINUOUS
 10
1.331819
 20
0.169926
  0
VERTEX
  8
FOREGROUND
  6
CONTINUOUS
 10
1.338162
 20
0.173510
  0
VERTEX
  8
FOREGROUND
  6
CONTINUOUS
 10
1.344457
 20
0.177148
  0
VERTEX
  8
FOREGROUND
  6
CONTINUOUS
 10
1.350702
 20
0.180839
  0
VERTEX
  8
FOREGROUND
  6
CONTINUOUS
 10
1.356898
 20
0.184584
  0
VERTEX
  8
FOREGROUND
  6
CONTINUOUS
 10
1.363042
 20
0.188382
  0
VERTEX
  8
FOREGROUND
  6
CONTINUOUS
 10
1.369135
 20
0.192234
  0
VERTEX
  8
FOREGROUND
  6
CONTINUOUS
 10
1.375176
 20
0.196139
  0
VERTEX
  8
FOREGROUND
  6
CONTINUOUS
 10
1.381164
 20
0.200098
  0
VERTEX
  8
FOREGROUND
  6
CONTINUOUS
 10
1.387098
 20
0.204111
  0
VERTEX
  8
FOREGROUND
  6
CONTINUOUS
 10
1.392978
 20
0.208177
  0
VERTEX
  8
FOREGROUND
  6
CONTINUOUS
 10
1.398803
 20
0.212296
  0
VERTEX
  8
FOREGROUND
  6
CONTINUOUS
 10
1.404572
 20
0.216469
  0
VERTEX
  8
FOREGROUND
  6
CONTINUOUS
 10
1.410284
 20
0.220695
  0
VERTEX
  8
FOREGROUND
  6
CONTINUOUS
 10
1.415939
 20
0.224975
  0
VERTEX
  8
FOREGROUND
  6
CONTINUOUS
 10
1.421537
 20
0.229309
  0
VERTEX
  8
FOREGROUND
  6
CONTINUOUS
 10
1.427075
 20
0.233696
  0
VERTEX
  8
FOREGROUND
  6
CONTINUOUS
 10
1.432554
 20
0.238136
  0
VERTEX
  8
FOREGROUND
  6
CONTINUOUS
 10
1.437973
 20
0.242630
  0
VERTEX
  8
FOREGROUND
  6
CONTINUOUS
 10
1.443331
 20
0.247178
  0
VERTEX
  8
FOREGROUND
  6
CONTINUOUS
 10
1.448627
 20
0.251779
  0
VERTEX
  8
FOREGROUND
  6
CONTINUOUS
 10
1.453861
 20
0.256433
  0
VERTEX
  8
FOREGROUND
  6
CONTINUOUS
 10
1.459032
 20
0.261141
  0
VERTEX
  8
FOREGROUND
  6
CONTINUOUS
 10
1.464139
 20
0.265903
  0
VERTEX
  8
FOREGROUND
  6
CONTINUOUS
 10
1.469182
 20
0.270718
  0
VERTEX
  8
FOREGROUND
  6
CONTINUOUS
 10
1.474160
 20
0.275587
  0
VERTEX
  8
FOREGROUND
  6
CONTINUOUS
 10
1.479071
 20
0.280509
  0
VERTEX
  8
FOREGROUND
  6
CONTINUOUS
 10
1.483916
 20
0.285484
  0
VERTEX
  8
FOREGROUND
  6
CONTINUOUS
 10
1.488694
 20
0.290514
  0
VERTEX
  8
FOREGROUND
  6
CONTINUOUS
 10
1.493404
 20
0.295596
  0
VERTEX
  8
FOREGROUND
  6
CONTINUOUS
 10
1.498044
 20
0.300732
  0
VERTEX
  8
FOREGROUND
  6
CONTINUOUS
 10
1.502616
 20
0.305922
  0
VERTEX
  8
FOREGROUND
  6
CONTINUOUS
 10
1.507117
 20
0.311165
  0
VERTEX
  8
FOREGROUND
  6
CONTINUOUS
 10
1.511547
 20
0.316462
  0
VERTEX
  8
FOREGROUND
  6
CONTINUOUS
 10
1.515905
 20
0.321812
  0
VERTEX
  8
FOREGROUND
  6
CONTINUOUS
 10
1.520191
 20
0.327216
  0
VERTEX
  8
FOREGROUND
  6
CONTINUOUS
 10
1.524404
 20
0.332673
  0
VERTEX
  8
FOREGROUND
  6
CONTINUOUS
 10
1.528543
 20
0.338184
  0
VERTEX
  8
FOREGROUND
  6
CONTINUOUS
 10
1.532607
 20
0.343748
  0
VERTEX
  8
FOREGROUND
  6
CONTINUOUS
 10
1.536596
 20
0.349366
  0
VERTEX
  8
FOREGROUND
  6
CONTINUOUS
 10
1.540509
 20
0.355037
  0
VERTEX
  8
FOREGROUND
  6
CONTINUOUS
 10
1.544345
 20
0.360762
  0
VERTEX
  8
FOREGROUND
  6
CONTINUOUS
 10
1.548104
 20
0.366541
  0
VERTEX
  8
FOREGROUND
  6
CONTINUOUS
 10
1.551785
 20
0.372372
  0
VERTEX
  8
FOREGROUND
  6
CONTINUOUS
 10
1.555387
 20
0.378258
  0
VERTEX
  8
FOREGROUND
  6
CONTINUOUS
 10
1.558909
 20
0.384197
  0
VERTEX
  8
FOREGROUND
  6
CONTINUOUS
 10
1.562351
 20
0.390189
  0
VERTEX
  8
FOREGROUND
  6
CONTINUOUS
 10
1.565711
 20
0.396235
  0
VERTEX
  8
FOREGROUND
  6
CONTINUOUS
 10
1.568990
 20
0.402334
  0
VERTEX
  8
FOREGROUND
  6
CONTINUOUS
 10
1.572187
 20
0.408487
  0
VERTEX
  8
FOREGROUND
  6
CONTINUOUS
 10
1.575300
 20
0.414694
  0
VERTEX
  8
FOREGROUND
  6
CONTINUOUS
 10
1.578329
 20
0.420954
  0
VERTEX
  8
FOREGROUND
  6
CONTINUOUS
 10
1.581274
 20
0.427267
  0
VERTEX
  8
FOREGROUND
  6
CONTINUOUS
 10
1.584133
 20
0.433634
  0
VERTEX
  8
FOREGROUND
  6
CONTINUOUS
 10
1.586906
 20
0.440055
  0
VERTEX
  8
FOREGROUND
  6
CONTINUOUS
 10
1.589593
 20
0.446529
  0
VERTEX
  8
FOREGROUND
  6
CONTINUOUS
 10
1.592191
 20
0.453056
  0
VERTEX
  8
FOREGROUND
  6
CONTINUOUS
 10
1.594702
 20
0.459638
  0
VERTEX
  8
FOREGROUND
  6
CONTINUOUS
 10
1.597123
 20
0.466272
  0
VERTEX
  8
FOREGROUND
  6
CONTINUOUS
 10
1.599455
 20
0.472960
  0
VERTEX
  8
FOREGROUND
  6
CONTINUOUS
 10
1.601696
 20
0.479702
  0
VERTEX
  8
FOREGROUND
  6
CONTINUOUS
 10
1.603847
 20
0.486497
  0
VERTEX
  8
FOREGROUND
  6
CONTINUOUS
 10
1.605905
 20
0.493346
  0
VERTEX
  8
FOREGROUND
  6
CONTINUOUS
 10
1.607871
 20
0.500248
  0
VERTEX
  8
FOREGROUND
  6
CONTINUOUS
 10
1.609743
 20
0.507204
  0
VERTEX
  8
FOREGROUND
  6
CONTINUOUS
 10
1.611521
 20
0.514213
  0
VERTEX
  8
FOREGROUND
  6
CONTINUOUS
 10
1.613205
 20
0.521275
  0
VERTEX
  8
FOREGROUND
  6
CONTINUOUS
 10
1.614793
 20
0.528392
  0
VERTEX
  8
FOREGROUND
  6
CONTINUOUS
 10
1.616285
 20
0.535561
  0
VERTEX
  8
FOREGROUND
  6
CONTINUOUS
 10
1.617680
 20
0.542785
  0
VERTEX
  8
FOREGROUND
  6
CONTINUOUS
 10
1.618977
 20
0.550062
  0
VERTEX
  8
FOREGROUND
  6
CONTINUOUS
 10
1.620176
 20
0.557392
  0
VERTEX
  8
FOREGROUND
  6
CONTINUOUS
 10
1.621276
 20
0.564776
  0
VERTEX
  8
FOREGROUND
  6
CONTINUOUS
 10
1.622276
 20
0.572213
  0
VERTEX
  8
FOREGROUND
  6
CONTINUOUS
 10
1.623176
 20
0.579704
  0
VERTEX
  8
FOREGROUND
  6
CONTINUOUS
 10
1.623974
 20
0.587248
  0
VERTEX
  8
FOREGROUND
  6
CONTINUOUS
 10
1.624670
 20
0.594846
  0
VERTEX
  8
FOREGROUND
  6
CONTINUOUS
 10
1.625264
 20
0.602498
  0
VERTEX
  8
FOREGROUND
  6
CONTINUOUS
 10
1.625754
 20
0.610202
  0
VERTEX
  8
FOREGROUND
  6
CONTINUOUS
 10
1.626140
 20
0.617961
  0
VERTEX
  8
FOREGROUND
  6
CONTINUOUS
 10
1.626421
 20
0.625773
  0
VERTEX
  8
FOREGROUND
  6
CONTINUOUS
 10
1.626597
 20
0.633638
  0
VERTEX
  8
FOREGROUND
  6
CONTINUOUS
 10
1.626666
 20
0.641557
  0
SEQEND
  8
0
  0
ENDSEC
  0
EOF
