  0
SECTION
  2
HEADER
  9
$ACADVER
  1
AC1006
  9
$EXTMIN
 10
0.000000
 20
0.000000
  9
$EXTMAX
 10
2.070000
 20
1.281667
  9
$LTSCALE
 40
0.166667
  9
$PDMODE
 70
    35
  9
$PDSIZE
 40
0.133333
  0
ENDSEC
  0
SECTION
  2
TABLES
  0
TABLE
  2
LTYPE
 70
     9
  0
LTYPE
  2
CONTINUOUS
 70
    64
  3
Solid line
 72
    65
 73
     0
 40
0.000000
  0
LTYPE
  2
DASHED
 70
    64
  3
__ __ __ __ __ __ __ __ __ __ __ __ __ __ __
 72
    65
 73
     2
 40
0.001250
 49
0.000833
 49
-0.000417
  0
LTYPE
  2
HIDDEN
 70
    64
  3
 _ _ _ _ _ _ _ _ _ _ _ _ _ _ _ _ _ _ _ _ _ _
 72
    65
 73
     2
 40
0.000625
 49
0.000417
 49
-0.000208
  0
LTYPE
  2
CENTER
 70
    64
  3
____ _ ____ _ ____ _ ____ _ ____ _ ____ _ ____
 72
    65
 73
     4
 40
0.003333
 49
0.002083
 49
-0.000417
 49
0.000417
 49
-0.000417
  0
LTYPE
  2
PHANTOM
 70
    64
  3
_____ _ _ _____ _ _ _____ _ _ _____ _ _ ____
 72
    65
 73
     6
 40
0.004167
 49
0.002083
 49
-0.000417
 49
0.000417
 49
-0.000417
 49
0.000417
 49
-0.000417
  0
LTYPE
  2
DOT
 70
    64
  3
...............................................
 72
    65
 73
     2
 40
0.000417
 49
0.000000
 49
-0.000417
  0
LTYPE
  2
DASHDOT
 70
    64
  3
__ . __ . __ . __ . __ . __ . __ . __ . __ . __
 72
    65
 73
     4
 40
0.001667
 49
0.000833
 49
-0.000417
 49
0.000000
 49
-0.000417
  0
LTYPE
  2
BORDER
 70
    64
  3
__ __ . __ __ . __ __ . __ __ . __ __ . __ __
 72
    65
 73
     6
 40
0.002917
 49
0.000833
 49
-0.000417
 49
0.000833
 49
-0.000417
 49
0.000000
 49
-0.000417
  0
LTYPE
  2
DIVIDE
 70
    64
  3
__ . . __ . . __ . . __ . . __ . . __ . . __
 72
    65
 73
     6
 40
0.002083
 49
0.000833
 49
-0.000417
 49
0.000000
 49
-0.000417
 49
0.000000
 49
-0.000417
  0
LTYPE
  2
DOTDOT
 70
    64
  3
 . .  . .  . .  . .  . .  . . 
 72
    65
 73
     5
 40
0.000917
 49
-0.000417
 49
0.000000
 49
-0.000417
 49
0.000000
 49
-0.000417
  0
ENDTAB
  0
TABLE
  2
STYLE
 70
     2
  0
STYLE
 70
     0
  2
SN0
 40
0.000000
 41
0.001667
 50
0.000000
 71
     0
 42
0.000000
  3
ROMAND
  0
STYLE
 70
    68
  2
SV0
 40
0.000000
 41
0.001667
 50
0.000000
 71
     0
 42
0.000000
  3
ROMAND
  0
ENDTAB
  0
TABLE
  2
LAYER
 70
     2
  0
LAYER
  2
FOREGROUND
 70
    64
 62
     7
  6
CONTINUOUS
  0
LAYER
  2
BACKGROUND
 70
    65
 62
    -7
  6
CONTINUOUS
  0
ENDTAB
  0
ENDSEC
  0
SECTION
  2
ENTITIES
  0
POLYLINE
  8
FOREGROUND
  6
CONTINUOUS
 66
     1
 40
0.010000
 41
0.010000
 70
     1
  0
VERTEX
  8
FOREGROUND
  6
CONTINUOUS
 10
2.019999
 20
0.641667
  0
VERTEX
  8
FOREGROUND
  6
CONTINUOUS
 10
2.019931
 20
0.649804
  0
VERTEX
  8
FOREGROUND
  6
CONTINUOUS
 10
2.019722
 20
0.657885
  0
VERTEX
  8
FOREGROUND
  6
CONTINUOUS
 10
2.019374
 20
0.665910
  0
VERTEX
  8
FOREGROUND
  6
CONTINUOUS
 10
2.018887
 20
0.673877
  0
VERTEX
  8
FOREGROUND
  6
CONTINUOUS
 10
2.018263
 20
0.681789
  0
VERTEX
  8
FOREGROUND
  6
CONTINUOUS
 10
2.017502
 20
0.689644
  0
VERTEX
  8
FOREGROUND
  6
CONTINUOUS
 10
2.016606
 20
0.697442
  0
VERTEX
  8
FOREGROUND
  6
CONTINUOUS
 10
2.015576
 20
0.705184
  0
VERTEX
  8
FOREGROUND
  6
CONTINUOUS
 10
2.014411
 20
0.712870
  0
VERTEX
  8
FOREGROUND
  6
CONTINUOUS
 10
2.013115
 20
0.720498
  0
VERTEX
  8
FOREGROUND
  6
CONTINUOUS
 10
2.011686
 20
0.728071
  0
VERTEX
  8
FOREGROUND
  6
CONTINUOUS
 10
2.010127
 20
0.735587
  0
VERTEX
  8
FOREGROUND
  6
CONTINUOUS
 10
2.008439
 20
0.743046
  0
VERTEX
  8
FOREGROUND
  6
CONTINUOUS
 10
2.006621
 20
0.750449
  0
VERTEX
  8
FOREGROUND
  6
CONTINUOUS
 10
2.004676
 20
0.757795
  0
VERTEX
  8
FOREGROUND
  6
CONTINUOUS
 10
2.002604
 20
0.765085
  0
VERTEX
  8
FOREGROUND
  6
CONTINUOUS
 10
2.000407
 20
0.772319
  0
VERTEX
  8
FOREGROUND
  6
CONTINUOUS
 10
1.998085
 20
0.779496
  0
VERTEX
  8
FOREGROUND
  6
CONTINUOUS
 10
1.995639
 20
0.786616
  0
VERTEX
  8
FOREGROUND
  6
CONTINUOUS
 10
1.993070
 20
0.793680
  0
VERTEX
  8
FOREGROUND
  6
CONTINUOUS
 10
1.990379
 20
0.800687
  0
VERTEX
  8
FOREGROUND
  6
CONTINUOUS
 10
1.987568
 20
0.807638
  0
VERTEX
  8
FOREGROUND
  6
CONTINUOUS
 10
1.984637
 20
0.814532
  0
VERTEX
  8
FOREGROUND
  6
CONTINUOUS
 10
1.981586
 20
0.821370
  0
VERTEX
  8
FOREGROUND
  6
CONTINUOUS
 10
1.978418
 20
0.828151
  0
VERTEX
  8
FOREGROUND
  6
CONTINUOUS
 10
1.975133
 20
0.834876
  0
VERTEX
  8
FOREGROUND
  6
CONTINUOUS
 10
1.971732
 20
0.841544
  0
VERTEX
  8
FOREGROUND
  6
CONTINUOUS
 10
1.968216
 20
0.848156
  0
VERTEX
  8
FOREGROUND
  6
CONTINUOUS
 10
1.964586
 20
0.854711
  0
VERTEX
  8
FOREGROUND
  6
CONTINUOUS
 10
1.960843
 20
0.861210
  0
VERTEX
  8
FOREGROUND
  6
CONTINUOUS
 10
1.956988
 20
0.867652
  0
VERTEX
  8
FOREGROUND
  6
CONTINUOUS
 10
1.953022
 20
0.874038
  0
VERTEX
  8
FOREGROUND
  6
CONTINUOUS
 10
1.948946
 20
0.880367
  0
VERTEX
  8
FOREGROUND
  6
CONTINUOUS
 10
1.944760
 20
0.886640
  0
VERTEX
  8
FOREGROUND
  6
CONTINUOUS
 10
1.940467
 20
0.892856
  0
VERTEX
  8
FOREGROUND
  6
CONTINUOUS
 10
1.936066
 20
0.899016
  0
VERTEX
  8
FOREGROUND
  6
CONTINUOUS
 10
1.931559
 20
0.905119
  0
VERTEX
  8
FOREGROUND
  6
CONTINUOUS
 10
1.926947
 20
0.911166
  0
VERTEX
  8
FOREGROUND
  6
CONTINUOUS
 10
1.922231
 20
0.917156
  0
VERTEX
  8
FOREGROUND
  6
CONTINUOUS
 10
1.917412
 20
0.923090
  0
VERTEX
  8
FOREGROUND
  6
CONTINUOUS
 10
1.912490
 20
0.928967
  0
VERTEX
  8
FOREGROUND
  6
CONTINUOUS
 10
1.907467
 20
0.934788
  0
VERTEX
  8
FOREGROUND
  6
CONTINUOUS
 10
1.902344
 20
0.940552
  0
VERTEX
  8
FOREGROUND
  6
CONTINUOUS
 10
1.897121
 20
0.946260
  0
VERTEX
  8
FOREGROUND
  6
CONTINUOUS
 10
1.891800
 20
0.951911
  0
VERTEX
  8
FOREGROUND
  6
CONTINUOUS
 10
1.886381
 20
0.957506
  0
VERTEX
  8
FOREGROUND
  6
CONTINUOUS
 10
1.880867
 20
0.963044
  0
VERTEX
  8
FOREGROUND
  6
CONTINUOUS
 10
1.875256
 20
0.968525
  0
VERTEX
  8
FOREGROUND
  6
CONTINUOUS
 10
1.869552
 20
0.973950
  0
VERTEX
  8
FOREGROUND
  6
CONTINUOUS
 10
1.863754
 20
0.979319
  0
VERTEX
  8
FOREGROUND
  6
CONTINUOUS
 10
1.857863
 20
0.984631
  0
VERTEX
  8
FOREGROUND
  6
CONTINUOUS
 10
1.851881
 20
0.989887
  0
VERTEX
  8
FOREGROUND
  6
CONTINUOUS
 10
1.845808
 20
0.995086
  0
VERTEX
  8
FOREGROUND
  6
CONTINUOUS
 10
1.839646
 20
1.000228
  0
VERTEX
  8
FOREGROUND
  6
CONTINUOUS
 10
1.833395
 20
1.005315
  0
VERTEX
  8
FOREGROUND
  6
CONTINUOUS
 10
1.827057
 20
1.010344
  0
VERTEX
  8
FOREGROUND
  6
CONTINUOUS
 10
1.820632
 20
1.015317
  0
VERTEX
  8
FOREGROUND
  6
CONTINUOUS
 10
1.814121
 20
1.020234
  0
VERTEX
  8
FOREGROUND
  6
CONTINUOUS
 10
1.807526
 20
1.025094
  0
VERTEX
  8
FOREGROUND
  6
CONTINUOUS
 10
1.800846
 20
1.029897
  0
VERTEX
  8
FOREGROUND
  6
CONTINUOUS
 10
1.794085
 20
1.034644
  0
VERTEX
  8
FOREGROUND
  6
CONTINUOUS
 10
1.787241
 20
1.039335
  0
VERTEX
  8
FOREGROUND
  6
CONTINUOUS
 10
1.780317
 20
1.043969
  0
VERTEX
  8
FOREGROUND
  6
CONTINUOUS
 10
1.773313
 20
1.048547
  0
VERTEX
  8
FOREGROUND
  6
CONTINUOUS
 10
1.766230
 20
1.053068
  0
VERTEX
  8
FOREGROUND
  6
CONTINUOUS
 10
1.759069
 20
1.057532
  0
VERTEX
  8
FOREGROUND
  6
CONTINUOUS
 10
1.751832
 20
1.061940
  0
VERTEX
  8
FOREGROUND
  6
CONTINUOUS
 10
1.744519
 20
1.066291
  0
VERTEX
  8
FOREGROUND
  6
CONTINUOUS
 10
1.737130
 20
1.070586
  0
VERTEX
  8
FOREGROUND
  6
CONTINUOUS
 10
1.729668
 20
1.074825
  0
VERTEX
  8
FOREGROUND
  6
CONTINUOUS
 10
1.722133
 20
1.079007
  0
VERTEX
  8
FOREGROUND
  6
CONTINUOUS
 10
1.714526
 20
1.083132
  0
VERTEX
  8
FOREGROUND
  6
CONTINUOUS
 10
1.706848
 20
1.087201
  0
VERTEX
  8
FOREGROUND
  6
CONTINUOUS
 10
1.699100
 20
1.091214
  0
VERTEX
  8
FOREGROUND
  6
CONTINUOUS
 10
1.691283
 20
1.095170
  0
VERTEX
  8
FOREGROUND
  6
CONTINUOUS
 10
1.683398
 20
1.099069
  0
VERTEX
  8
FOREGROUND
  6
CONTINUOUS
 10
1.675445
 20
1.102912
  0
VERTEX
  8
FOREGROUND
  6
CONTINUOUS
 10
1.667427
 20
1.106698
  0
VERTEX
  8
FOREGROUND
  6
CONTINUOUS
 10
1.659344
 20
1.110428
  0
VERTEX
  8
FOREGROUND
  6
CONTINUOUS
 10
1.651196
 20
1.114102
  0
VERTEX
  8
FOREGROUND
  6
CONTINUOUS
 10
1.642985
 20
1.117719
  0
VERTEX
  8
FOREGROUND
  6
CONTINUOUS
 10
1.634713
 20
1.121279
  0
VERTEX
  8
FOREGROUND
  6
CONTINUOUS
 10
1.626379
 20
1.124783
  0
VERTEX
  8
FOREGROUND
  6
CONTINUOUS
 10
1.617984
 20
1.128230
  0
VERTEX
  8
FOREGROUND
  6
CONTINUOUS
 10
1.609531
 20
1.131621
  0
VERTEX
  8
FOREGROUND
  6
CONTINUOUS
 10
1.601019
 20
1.134955
  0
VERTEX
  8
FOREGROUND
  6
CONTINUOUS
 10
1.592450
 20
1.138233
  0
VERTEX
  8
FOREGROUND
  6
CONTINUOUS
 10
1.583824
 20
1.141454
  0
VERTEX
  8
FOREGROUND
  6
CONTINUOUS
 10
1.575144
 20
1.144619
  0
VERTEX
  8
FOREGROUND
  6
CONTINUOUS
 10
1.566408
 20
1.147728
  0
VERTEX
  8
FOREGROUND
  6
CONTINUOUS
 10
1.557620
 20
1.150779
  0
VERTEX
  8
FOREGROUND
  6
CONTINUOUS
 10
1.548779
 20
1.153775
  0
VERTEX
  8
FOREGROUND
  6
CONTINUOUS
 10
1.539887
 20
1.156713
  0
VERTEX
  8
FOREGROUND
  6
CONTINUOUS
 10
1.530944
 20
1.159596
  0
VERTEX
  8
FOREGROUND
  6
CONTINUOUS
 10
1.521952
 20
1.162421
  0
VERTEX
  8
FOREGROUND
  6
CONTINUOUS
 10
1.512911
 20
1.165191
  0
VERTEX
  8
FOREGROUND
  6
CONTINUOUS
 10
1.503823
 20
1.167903
  0
VERTEX
  8
FOREGROUND
  6
CONTINUOUS
 10
1.494688
 20
1.170560
  0
VERTEX
  8
FOREGROUND
  6
CONTINUOUS
 10
1.485508
 20
1.173159
  0
VERTEX
  8
FOREGROUND
  6
CONTINUOUS
 10
1.476283
 20
1.175703
  0
VERTEX
  8
FOREGROUND
  6
CONTINUOUS
 10
1.467014
 20
1.178189
  0
VERTEX
  8
FOREGROUND
  6
CONTINUOUS
 10
1.457703
 20
1.180619
  0
VERTEX
  8
FOREGROUND
  6
CONTINUOUS
 10
1.448350
 20
1.182993
  0
VERTEX
  8
FOREGROUND
  6
CONTINUOUS
 10
1.438957
 20
1.185310
  0
VERTEX
  8
FOREGROUND
  6
CONTINUOUS
 10
1.429524
 20
1.187571
  0
VERTEX
  8
FOREGROUND
  6
CONTINUOUS
 10
1.420052
 20
1.189775
  0
VERTEX
  8
FOREGROUND
  6
CONTINUOUS
 10
1.410542
 20
1.191923
  0
VERTEX
  8
FOREGROUND
  6
CONTINUOUS
 10
1.400996
 20
1.194014
  0
VERTEX
  8
FOREGROUND
  6
CONTINUOUS
 10
1.391413
 20
1.196049
  0
VERTEX
  8
FOREGROUND
  6
CONTINUOUS
 10
1.381797
 20
1.198027
  0
VERTEX
  8
FOREGROUND
  6
CONTINUOUS
 10
1.372146
 20
1.199948
  0
VERTEX
  8
FOREGROUND
  6
CONTINUOUS
 10
1.362462
 20
1.201813
  0
VERTEX
  8
FOREGROUND
  6
CONTINUOUS
 10
1.352747
 20
1.203622
  0
VERTEX
  8
FOREGROUND
  6
CONTINUOUS
 10
1.343000
 20
1.205374
  0
VERTEX
  8
FOREGROUND
  6
CONTINUOUS
 10
1.333224
 20
1.207070
  0
VERTEX
  8
FOREGROUND
  6
CONTINUOUS
 10
1.323419
 20
1.208709
  0
VERTEX
  8
FOREGROUND
  6
CONTINUOUS
 10
1.313585
 20
1.210291
  0
VERTEX
  8
FOREGROUND
  6
CONTINUOUS
 10
1.303725
 20
1.211817
  0
VERTEX
  8
FOREGROUND
  6
CONTINUOUS
 10
1.293839
 20
1.213287
  0
VERTEX
  8
FOREGROUND
  6
CONTINUOUS
 10
1.283928
 20
1.214700
  0
VERTEX
  8
FOREGROUND
  6
CONTINUOUS
 10
1.273993
 20
1.216056
  0
VERTEX
  8
FOREGROUND
  6
CONTINUOUS
 10
1.264034
 20
1.217356
  0
VERTEX
  8
FOREGROUND
  6
CONTINUOUS
 10
1.254054
 20
1.218600
  0
VERTEX
  8
FOREGROUND
  6
CONTINUOUS
 10
1.244052
 20
1.219787
  0
VERTEX
  8
FOREGROUND
  6
CONTINUOUS
 10
1.234030
 20
1.220917
  0
VERTEX
  8
FOREGROUND
  6
CONTINUOUS
 10
1.223990
 20
1.221991
  0
VERTEX
  8
FOREGROUND
  6
CONTINUOUS
 10
1.213931
 20
1.223009
  0
VERTEX
  8
FOREGROUND
  6
CONTINUOUS
 10
1.203854
 20
1.223970
  0
VERTEX
  8
FOREGROUND
  6
CONTINUOUS
 10
1.193762
 20
1.224874
  0
VERTEX
  8
FOREGROUND
  6
CONTINUOUS
 10
1.183654
 20
1.225722
  0
VERTEX
  8
FOREGROUND
  6
CONTINUOUS
 10
1.173532
 20
1.226514
  0
VERTEX
  8
FOREGROUND
  6
CONTINUOUS
 10
1.163397
 20
1.227248
  0
VERTEX
  8
FOREGROUND
  6
CONTINUOUS
 10
1.153249
 20
1.227927
  0
VERTEX
  8
FOREGROUND
  6
CONTINUOUS
 10
1.143090
 20
1.228549
  0
VERTEX
  8
FOREGROUND
  6
CONTINUOUS
 10
1.132921
 20
1.229114
  0
VERTEX
  8
FOREGROUND
  6
CONTINUOUS
 10
1.122742
 20
1.229623
  0
VERTEX
  8
FOREGROUND
  6
CONTINUOUS
 10
1.112555
 20
1.230075
  0
VERTEX
  8
FOREGROUND
  6
CONTINUOUS
 10
1.102361
 20
1.230471
  0
VERTEX
  8
FOREGROUND
  6
CONTINUOUS
 10
1.092160
 20
1.230811
  0
VERTEX
  8
FOREGROUND
  6
CONTINUOUS
 10
1.081953
 20
1.231093
  0
VERTEX
  8
FOREGROUND
  6
CONTINUOUS
 10
1.071743
 20
1.231320
  0
VERTEX
  8
FOREGROUND
  6
CONTINUOUS
 10
1.061528
 20
1.231490
  0
VERTEX
  8
FOREGROUND
  6
CONTINUOUS
 10
1.051311
 20
1.231603
  0
VERTEX
  8
FOREGROUND
  6
CONTINUOUS
 10
1.041093
 20
1.231660
  0
VERTEX
  8
FOREGROUND
  6
CONTINUOUS
 10
1.030873
 20
1.231660
  0
VERTEX
  8
FOREGROUND
  6
CONTINUOUS
 10
1.020655
 20
1.231604
  0
VERTEX
  8
FOREGROUND
  6
CONTINUOUS
 10
1.010437
 20
1.231491
  0
VERTEX
  8
FOREGROUND
  6
CONTINUOUS
 10
1.000222
 20
1.231322
  0
VERTEX
  8
FOREGROUND
  6
CONTINUOUS
 10
0.990011
 20
1.231096
  0
VERTEX
  8
FOREGROUND
  6
CONTINUOUS
 10
0.979803
 20
1.230814
  0
VERTEX
  8
FOREGROUND
  6
CONTINUOUS
 10
0.969601
 20
1.230475
  0
VERTEX
  8
FOREGROUND
  6
CONTINUOUS
 10
0.959405
 20
1.230080
  0
VERTEX
  8
FOREGROUND
  6
CONTINUOUS
 10
0.949217
 20
1.229628
  0
VERTEX
  8
FOREGROUND
  6
CONTINUOUS
 10
0.939036
 20
1.229120
  0
VERTEX
  8
FOREGROUND
  6
CONTINUOUS
 10
0.928865
 20
1.228555
  0
VERTEX
  8
FOREGROUND
  6
CONTINUOUS
 10
0.918704
 20
1.227933
  0
VERTEX
  8
FOREGROUND
  6
CONTINUOUS
 10
0.908554
 20
1.227256
  0
VERTEX
  8
FOREGROUND
  6
CONTINUOUS
 10
0.898417
 20
1.226521
  0
VERTEX
  8
FOREGROUND
  6
CONTINUOUS
 10
0.888292
 20
1.225730
  0
VERTEX
  8
FOREGROUND
  6
CONTINUOUS
 10
0.878182
 20
1.224883
  0
VERTEX
  8
FOREGROUND
  6
CONTINUOUS
 10
0.868086
 20
1.223979
  0
VERTEX
  8
FOREGROUND
  6
CONTINUOUS
 10
0.858007
 20
1.223019
  0
VERTEX
  8
FOREGROUND
  6
CONTINUOUS
 10
0.847944
 20
1.222002
  0
VERTEX
  8
FOREGROUND
  6
CONTINUOUS
 10
0.837900
 20
1.220928
  0
VERTEX
  8
FOREGROUND
  6
CONTINUOUS
 10
0.827874
 20
1.219798
  0
VERTEX
  8
FOREGROUND
  6
CONTINUOUS
 10
0.817869
 20
1.218612
  0
VERTEX
  8
FOREGROUND
  6
CONTINUOUS
 10
0.807884
 20
1.217369
  0
VERTEX
  8
FOREGROUND
  6
CONTINUOUS
 10
0.797922
 20
1.216070
  0
VERTEX
  8
FOREGROUND
  6
CONTINUOUS
 10
0.787982
 20
1.214714
  0
VERTEX
  8
FOREGROUND
  6
CONTINUOUS
 10
0.778066
 20
1.213301
  0
VERTEX
  8
FOREGROUND
  6
CONTINUOUS
 10
0.768175
 20
1.211832
  0
VERTEX
  8
FOREGROUND
  6
CONTINUOUS
 10
0.758309
 20
1.210307
  0
VERTEX
  8
FOREGROUND
  6
CONTINUOUS
 10
0.748471
 20
1.208725
  0
VERTEX
  8
FOREGROUND
  6
CONTINUOUS
 10
0.738660
 20
1.207086
  0
VERTEX
  8
FOREGROUND
  6
CONTINUOUS
 10
0.728878
 20
1.205391
  0
VERTEX
  8
FOREGROUND
  6
CONTINUOUS
 10
0.719126
 20
1.203640
  0
VERTEX
  8
FOREGROUND
  6
CONTINUOUS
 10
0.709404
 20
1.201832
  0
VERTEX
  8
FOREGROUND
  6
CONTINUOUS
 10
0.699715
 20
1.199967
  0
VERTEX
  8
FOREGROUND
  6
CONTINUOUS
 10
0.690057
 20
1.198046
  0
VERTEX
  8
FOREGROUND
  6
CONTINUOUS
 10
0.680434
 20
1.196068
  0
VERTEX
  8
FOREGROUND
  6
CONTINUOUS
 10
0.670845
 20
1.194034
  0
VERTEX
  8
FOREGROUND
  6
CONTINUOUS
 10
0.661292
 20
1.191944
  0
VERTEX
  8
FOREGROUND
  6
CONTINUOUS
 10
0.651775
 20
1.189796
  0
VERTEX
  8
FOREGROUND
  6
CONTINUOUS
 10
0.642296
 20
1.187593
  0
VERTEX
  8
FOREGROUND
  6
CONTINUOUS
 10
0.632855
 20
1.185333
  0
VERTEX
  8
FOREGROUND
  6
CONTINUOUS
 10
0.623454
 20
1.183016
  0
VERTEX
  8
FOREGROUND
  6
CONTINUOUS
 10
0.614093
 20
1.180643
  0
VERTEX
  8
FOREGROUND
  6
CONTINUOUS
 10
0.604774
 20
1.178213
  0
VERTEX
  8
FOREGROUND
  6
CONTINUOUS
 10
0.595497
 20
1.175727
  0
VERTEX
  8
FOREGROUND
  6
CONTINUOUS
 10
0.586264
 20
1.173184
  0
VERTEX
  8
FOREGROUND
  6
CONTINUOUS
 10
0.577075
 20
1.170585
  0
VERTEX
  8
FOREGROUND
  6
CONTINUOUS
 10
0.567931
 20
1.167929
  0
VERTEX
  8
FOREGROUND
  6
CONTINUOUS
 10
0.558834
 20
1.165217
  0
VERTEX
  8
FOREGROUND
  6
CONTINUOUS
 10
0.549784
 20
1.162448
  0
VERTEX
  8
FOREGROUND
  6
CONTINUOUS
 10
0.540782
 20
1.159623
  0
VERTEX
  8
FOREGROUND
  6
CONTINUOUS
 10
0.531830
 20
1.156741
  0
VERTEX
  8
FOREGROUND
  6
CONTINUOUS
 10
0.522927
 20
1.153803
  0
VERTEX
  8
FOREGROUND
  6
CONTINUOUS
 10
0.514077
 20
1.150808
  0
VERTEX
  8
FOREGROUND
  6
CONTINUOUS
 10
0.505278
 20
1.147757
  0
VERTEX
  8
FOREGROUND
  6
CONTINUOUS
 10
0.496532
 20
1.144649
  0
VERTEX
  8
FOREGROUND
  6
CONTINUOUS
 10
0.487841
 20
1.141485
  0
VERTEX
  8
FOREGROUND
  6
CONTINUOUS
 10
0.479205
 20
1.138264
  0
VERTEX
  8
FOREGROUND
  6
CONTINUOUS
 10
0.470625
 20
1.134987
  0
VERTEX
  8
FOREGROUND
  6
CONTINUOUS
 10
0.462102
 20
1.131653
  0
VERTEX
  8
FOREGROUND
  6
CONTINUOUS
 10
0.453637
 20
1.128262
  0
VERTEX
  8
FOREGROUND
  6
CONTINUOUS
 10
0.445231
 20
1.124816
  0
VERTEX
  8
FOREGROUND
  6
CONTINUOUS
 10
0.436886
 20
1.121312
  0
VERTEX
  8
FOREGROUND
  6
CONTINUOUS
 10
0.428601
 20
1.117752
  0
VERTEX
  8
FOREGROUND
  6
CONTINUOUS
 10
0.420378
 20
1.114136
  0
VERTEX
  8
FOREGROUND
  6
CONTINUOUS
 10
0.412218
 20
1.110463
  0
VERTEX
  8
FOREGROUND
  6
CONTINUOUS
 10
0.404123
 20
1.106733
  0
VERTEX
  8
FOREGROUND
  6
CONTINUOUS
 10
0.396092
 20
1.102947
  0
VERTEX
  8
FOREGROUND
  6
CONTINUOUS
 10
0.388127
 20
1.099105
  0
VERTEX
  8
FOREGROUND
  6
CONTINUOUS
 10
0.380229
 20
1.095206
  0
VERTEX
  8
FOREGROUND
  6
CONTINUOUS
 10
0.372398
 20
1.091251
  0
VERTEX
  8
FOREGROUND
  6
CONTINUOUS
 10
0.364637
 20
1.087239
  0
VERTEX
  8
FOREGROUND
  6
CONTINUOUS
 10
0.356945
 20
1.083170
  0
VERTEX
  8
FOREGROUND
  6
CONTINUOUS
 10
0.349324
 20
1.079045
  0
VERTEX
  8
FOREGROUND
  6
CONTINUOUS
 10
0.341775
 20
1.074863
  0
VERTEX
  8
FOREGROUND
  6
CONTINUOUS
 10
0.334299
 20
1.070625
  0
VERTEX
  8
FOREGROUND
  6
CONTINUOUS
 10
0.326896
 20
1.066331
  0
VERTEX
  8
FOREGROUND
  6
CONTINUOUS
 10
0.319569
 20
1.061980
  0
VERTEX
  8
FOREGROUND
  6
CONTINUOUS
 10
0.312316
 20
1.057572
  0
VERTEX
  8
FOREGROUND
  6
CONTINUOUS
 10
0.305141
 20
1.053108
  0
VERTEX
  8
FOREGROUND
  6
CONTINUOUS
 10
0.298043
 20
1.048587
  0
VERTEX
  8
FOREGROUND
  6
CONTINUOUS
 10
0.291024
 20
1.044010
  0
VERTEX
  8
FOREGROUND
  6
CONTINUOUS
 10
0.284084
 20
1.039377
  0
VERTEX
  8
FOREGROUND
  6
CONTINUOUS
 10
0.277225
 20
1.034687
  0
VERTEX
  8
FOREGROUND
  6
CONTINUOUS
 10
0.270447
 20
1.029940
  0
VERTEX
  8
FOREGROUND
  6
CONTINUOUS
 10
0.263752
 20
1.025137
  0
VERTEX
  8
FOREGROUND
  6
CONTINUOUS
 10
0.257141
 20
1.020277
  0
VERTEX
  8
FOREGROUND
  6
CONTINUOUS
 10
0.250614
 20
1.015361
  0
VERTEX
  8
FOREGROUND
  6
CONTINUOUS
 10
0.244172
 20
1.010388
  0
VERTEX
  8
FOREGROUND
  6
CONTINUOUS
 10
0.237817
 20
1.005359
  0
VERTEX
  8
FOREGROUND
  6
CONTINUOUS
 10
0.231549
 20
1.000273
  0
VERTEX
  8
FOREGROUND
  6
CONTINUOUS
 10
0.225370
 20
0.995131
  0
VERTEX
  8
FOREGROUND
  6
CONTINUOUS
 10
0.219280
 20
0.989932
  0
VERTEX
  8
FOREGROUND
  6
CONTINUOUS
 10
0.213280
 20
0.984677
  0
VERTEX
  8
FOREGROUND
  6
CONTINUOUS
 10
0.207372
 20
0.979365
  0
VERTEX
  8
FOREGROUND
  6
CONTINUOUS
 10
0.201556
 20
0.973997
  0
VERTEX
  8
FOREGROUND
  6
CONTINUOUS
 10
0.195833
 20
0.968572
  0
VERTEX
  8
FOREGROUND
  6
CONTINUOUS
 10
0.190204
 20
0.963091
  0
VERTEX
  8
FOREGROUND
  6
CONTINUOUS
 10
0.184671
 20
0.957553
  0
VERTEX
  8
FOREGROUND
  6
CONTINUOUS
 10
0.179234
 20
0.951958
  0
VERTEX
  8
FOREGROUND
  6
CONTINUOUS
 10
0.173894
 20
0.946308
  0
VERTEX
  8
FOREGROUND
  6
CONTINUOUS
 10
0.168652
 20
0.940600
  0
VERTEX
  8
FOREGROUND
  6
CONTINUOUS
 10
0.163510
 20
0.934836
  0
VERTEX
  8
FOREGROUND
  6
CONTINUOUS
 10
0.158467
 20
0.929016
  0
VERTEX
  8
FOREGROUND
  6
CONTINUOUS
 10
0.153526
 20
0.923139
  0
VERTEX
  8
FOREGROUND
  6
CONTINUOUS
 10
0.148687
 20
0.917206
  0
VERTEX
  8
FOREGROUND
  6
CONTINUOUS
 10
0.143951
 20
0.911216
  0
VERTEX
  8
FOREGROUND
  6
CONTINUOUS
 10
0.139319
 20
0.905169
  0
VERTEX
  8
FOREGROUND
  6
CONTINUOUS
 10
0.134791
 20
0.899066
  0
VERTEX
  8
FOREGROUND
  6
CONTINUOUS
 10
0.130370
 20
0.892907
  0
VERTEX
  8
FOREGROUND
  6
CONTINUOUS
 10
0.126056
 20
0.886691
  0
VERTEX
  8
FOREGROUND
  6
CONTINUOUS
 10
0.121850
 20
0.880418
  0
VERTEX
  8
FOREGROUND
  6
CONTINUOUS
 10
0.117753
 20
0.874089
  0
VERTEX
  8
FOREGROUND
  6
CONTINUOUS
 10
0.113765
 20
0.867704
  0
VERTEX
  8
FOREGROUND
  6
CONTINUOUS
 10
0.109889
 20
0.861262
  0
VERTEX
  8
FOREGROUND
  6
CONTINUOUS
 10
0.106124
 20
0.854763
  0
VERTEX
  8
FOREGROUND
  6
CONTINUOUS
 10
0.102472
 20
0.848208
  0
VERTEX
  8
FOREGROUND
  6
CONTINUOUS
 10
0.098934
 20
0.841596
  0
VERTEX
  8
FOREGROUND
  6
CONTINUOUS
 10
0.095511
 20
0.834928
  0
VERTEX
  8
FOREGROUND
  6
CONTINUOUS
 10
0.092203
 20
0.828204
  0
VERTEX
  8
FOREGROUND
  6
CONTINUOUS
 10
0.089013
 20
0.821422
  0
VERTEX
  8
FOREGROUND
  6
CONTINUOUS
 10
0.085940
 20
0.814585
  0
VERTEX
  8
FOREGROUND
  6
CONTINUOUS
 10
0.082985
 20
0.807691
  0
VERTEX
  8
FOREGROUND
  6
CONTINUOUS
 10
0.080151
 20
0.800740
  0
VERTEX
  8
FOREGROUND
  6
CONTINUOUS
 10
0.077437
 20
0.793733
  0
VERTEX
  8
FOREGROUND
  6
CONTINUOUS
 10
0.074844
 20
0.786669
  0
VERTEX
  8
FOREGROUND
  6
CONTINUOUS
 10
0.072375
 20
0.779549
  0
VERTEX
  8
FOREGROUND
  6
CONTINUOUS
 10
0.070029
 20
0.772372
  0
VERTEX
  8
FOREGROUND
  6
CONTINUOUS
 10
0.067807
 20
0.765139
  0
VERTEX
  8
FOREGROUND
  6
CONTINUOUS
 10
0.065711
 20
0.757849
  0
VERTEX
  8
FOREGROUND
  6
CONTINUOUS
 10
0.063741
 20
0.750503
  0
VERTEX
  8
FOREGROUND
  6
CONTINUOUS
 10
0.061899
 20
0.743100
  0
VERTEX
  8
FOREGROUND
  6
CONTINUOUS
 10
0.060186
 20
0.735641
  0
VERTEX
  8
FOREGROUND
  6
CONTINUOUS
 10
0.058602
 20
0.728125
  0
VERTEX
  8
FOREGROUND
  6
CONTINUOUS
 10
0.057148
 20
0.720553
  0
VERTEX
  8
FOREGROUND
  6
CONTINUOUS
 10
0.055826
 20
0.712924
  0
VERTEX
  8
FOREGROUND
  6
CONTINUOUS
 10
0.054636
 20
0.705239
  0
VERTEX
  8
FOREGROUND
  6
CONTINUOUS
 10
0.053580
 20
0.697497
  0
VERTEX
  8
FOREGROUND
  6
CONTINUOUS
 10
0.052658
 20
0.689698
  0
VERTEX
  8
FOREGROUND
  6
CONTINUOUS
 10
0.051871
 20
0.681843
  0
VERTEX
  8
FOREGROUND
  6
CONTINUOUS
 10
0.051220
 20
0.673932
  0
VERTEX
  8
FOREGROUND
  6
CONTINUOUS
 10
0.050707
 20
0.665964
  0
VERTEX
  8
FOREGROUND
  6
CONTINUOUS
 10
0.050332
 20
0.657940
  0
VERTEX
  8
FOREGROUND
  6
CONTINUOUS
 10
0.050096
 20
0.649859
  0
VERTEX
  8
FOREGROUND
  6
CONTINUOUS
 10
0.050001
 20
0.641721
  0
VERTEX
  8
FOREGROUND
  6
CONTINUOUS
 10
0.050001
 20
0.641721
  0
VERTEX
  8
FOREGROUND
  6
CONTINUOUS
 10
0.050068
 20
0.633584
  0
VERTEX
  8
FOREGROUND
  6
CONTINUOUS
 10
0.050275
 20
0.625503
  0
VERTEX
  8
FOREGROUND
  6
CONTINUOUS
 10
0.050622
 20
0.617478
  0
VERTEX
  8
FOREGROUND
  6
CONTINUOUS
 10
0.051108
 20
0.609510
  0
VERTEX
  8
FOREGROUND
  6
CONTINUOUS
 10
0.051731
 20
0.601599
  0
VERTEX
  8
FOREGROUND
  6
CONTINUOUS
 10
0.052490
 20
0.593744
  0
VERTEX
  8
FOREGROUND
  6
CONTINUOUS
 10
0.053385
 20
0.585946
  0
VERTEX
  8
FOREGROUND
  6
CONTINUOUS
 10
0.054415
 20
0.578204
  0
VERTEX
  8
FOREGROUND
  6
CONTINUOUS
 10
0.055578
 20
0.570518
  0
VERTEX
  8
FOREGROUND
  6
CONTINUOUS
 10
0.056873
 20
0.562889
  0
VERTEX
  8
FOREGROUND
  6
CONTINUOUS
 10
0.058301
 20
0.555317
  0
VERTEX
  8
FOREGROUND
  6
CONTINUOUS
 10
0.059858
 20
0.547801
  0
VERTEX
  8
FOREGROUND
  6
CONTINUOUS
 10
0.061546
 20
0.540341
  0
VERTEX
  8
FOREGROUND
  6
CONTINUOUS
 10
0.063362
 20
0.532938
  0
VERTEX
  8
FOREGROUND
  6
CONTINUOUS
 10
0.065306
 20
0.525592
  0
VERTEX
  8
FOREGROUND
  6
CONTINUOUS
 10
0.067377
 20
0.518302
  0
VERTEX
  8
FOREGROUND
  6
CONTINUOUS
 10
0.069573
 20
0.511068
  0
VERTEX
  8
FOREGROUND
  6
CONTINUOUS
 10
0.071894
 20
0.503891
  0
VERTEX
  8
FOREGROUND
  6
CONTINUOUS
 10
0.074339
 20
0.496771
  0
VERTEX
  8
FOREGROUND
  6
CONTINUOUS
 10
0.076907
 20
0.489707
  0
VERTEX
  8
FOREGROUND
  6
CONTINUOUS
 10
0.079596
 20
0.482699
  0
VERTEX
  8
FOREGROUND
  6
CONTINUOUS
 10
0.082407
 20
0.475748
  0
VERTEX
  8
FOREGROUND
  6
CONTINUOUS
 10
0.085337
 20
0.468854
  0
VERTEX
  8
FOREGROUND
  6
CONTINUOUS
 10
0.088386
 20
0.462016
  0
VERTEX
  8
FOREGROUND
  6
CONTINUOUS
 10
0.091553
 20
0.455234
  0
VERTEX
  8
FOREGROUND
  6
CONTINUOUS
 10
0.094837
 20
0.448509
  0
VERTEX
  8
FOREGROUND
  6
CONTINUOUS
 10
0.098237
 20
0.441841
  0
VERTEX
  8
FOREGROUND
  6
CONTINUOUS
 10
0.101752
 20
0.435229
  0
VERTEX
  8
FOREGROUND
  6
CONTINUOUS
 10
0.105381
 20
0.428673
  0
VERTEX
  8
FOREGROUND
  6
CONTINUOUS
 10
0.109123
 20
0.422175
  0
VERTEX
  8
FOREGROUND
  6
CONTINUOUS
 10
0.112977
 20
0.415732
  0
VERTEX
  8
FOREGROUND
  6
CONTINUOUS
 10
0.116942
 20
0.409346
  0
VERTEX
  8
FOREGROUND
  6
CONTINUOUS
 10
0.121018
 20
0.403017
  0
VERTEX
  8
FOREGROUND
  6
CONTINUOUS
 10
0.125202
 20
0.396744
  0
VERTEX
  8
FOREGROUND
  6
CONTINUOUS
 10
0.129494
 20
0.390527
  0
VERTEX
  8
FOREGROUND
  6
CONTINUOUS
 10
0.133894
 20
0.384367
  0
VERTEX
  8
FOREGROUND
  6
CONTINUOUS
 10
0.138400
 20
0.378264
  0
VERTEX
  8
FOREGROUND
  6
CONTINUOUS
 10
0.143011
 20
0.372217
  0
VERTEX
  8
FOREGROUND
  6
CONTINUOUS
 10
0.147726
 20
0.366226
  0
VERTEX
  8
FOREGROUND
  6
CONTINUOUS
 10
0.152545
 20
0.360292
  0
VERTEX
  8
FOREGROUND
  6
CONTINUOUS
 10
0.157466
 20
0.354415
  0
VERTEX
  8
FOREGROUND
  6
CONTINUOUS
 10
0.162488
 20
0.348594
  0
VERTEX
  8
FOREGROUND
  6
CONTINUOUS
 10
0.167610
 20
0.342829
  0
VERTEX
  8
FOREGROUND
  6
CONTINUOUS
 10
0.172832
 20
0.337121
  0
VERTEX
  8
FOREGROUND
  6
CONTINUOUS
 10
0.178152
 20
0.331470
  0
VERTEX
  8
FOREGROUND
  6
CONTINUOUS
 10
0.183570
 20
0.325875
  0
VERTEX
  8
FOREGROUND
  6
CONTINUOUS
 10
0.189084
 20
0.320337
  0
VERTEX
  8
FOREGROUND
  6
CONTINUOUS
 10
0.194693
 20
0.314855
  0
VERTEX
  8
FOREGROUND
  6
CONTINUOUS
 10
0.200397
 20
0.309429
  0
VERTEX
  8
FOREGROUND
  6
CONTINUOUS
 10
0.206194
 20
0.304060
  0
VERTEX
  8
FOREGROUND
  6
CONTINUOUS
 10
0.212084
 20
0.298748
  0
VERTEX
  8
FOREGROUND
  6
CONTINUOUS
 10
0.218065
 20
0.293492
  0
VERTEX
  8
FOREGROUND
  6
CONTINUOUS
 10
0.224137
 20
0.288292
  0
VERTEX
  8
FOREGROUND
  6
CONTINUOUS
 10
0.230299
 20
0.283149
  0
VERTEX
  8
FOREGROUND
  6
CONTINUOUS
 10
0.236549
 20
0.278063
  0
VERTEX
  8
FOREGROUND
  6
CONTINUOUS
 10
0.242886
 20
0.273033
  0
VERTEX
  8
FOREGROUND
  6
CONTINUOUS
 10
0.249311
 20
0.268060
  0
VERTEX
  8
FOREGROUND
  6
CONTINUOUS
 10
0.255821
 20
0.263143
  0
VERTEX
  8
FOREGROUND
  6
CONTINUOUS
 10
0.262415
 20
0.258282
  0
VERTEX
  8
FOREGROUND
  6
CONTINUOUS
 10
0.269094
 20
0.253478
  0
VERTEX
  8
FOREGROUND
  6
CONTINUOUS
 10
0.275855
 20
0.248731
  0
VERTEX
  8
FOREGROUND
  6
CONTINUOUS
 10
0.282697
 20
0.244040
  0
VERTEX
  8
FOREGROUND
  6
CONTINUOUS
 10
0.289621
 20
0.239406
  0
VERTEX
  8
FOREGROUND
  6
CONTINUOUS
 10
0.296624
 20
0.234828
  0
VERTEX
  8
FOREGROUND
  6
CONTINUOUS
 10
0.303706
 20
0.230306
  0
VERTEX
  8
FOREGROUND
  6
CONTINUOUS
 10
0.310866
 20
0.225841
  0
VERTEX
  8
FOREGROUND
  6
CONTINUOUS
 10
0.318103
 20
0.221433
  0
VERTEX
  8
FOREGROUND
  6
CONTINUOUS
 10
0.325416
 20
0.217081
  0
VERTEX
  8
FOREGROUND
  6
CONTINUOUS
 10
0.332803
 20
0.212786
  0
VERTEX
  8
FOREGROUND
  6
CONTINUOUS
 10
0.340265
 20
0.208547
  0
VERTEX
  8
FOREGROUND
  6
CONTINUOUS
 10
0.347799
 20
0.204365
  0
VERTEX
  8
FOREGROUND
  6
CONTINUOUS
 10
0.355406
 20
0.200239
  0
VERTEX
  8
FOREGROUND
  6
CONTINUOUS
 10
0.363083
 20
0.196169
  0
VERTEX
  8
FOREGROUND
  6
CONTINUOUS
 10
0.370831
 20
0.192156
  0
VERTEX
  8
FOREGROUND
  6
CONTINUOUS
 10
0.378647
 20
0.188200
  0
VERTEX
  8
FOREGROUND
  6
CONTINUOUS
 10
0.386532
 20
0.184300
  0
VERTEX
  8
FOREGROUND
  6
CONTINUOUS
 10
0.394483
 20
0.180457
  0
VERTEX
  8
FOREGROUND
  6
CONTINUOUS
 10
0.402501
 20
0.176670
  0
VERTEX
  8
FOREGROUND
  6
CONTINUOUS
 10
0.410584
 20
0.172940
  0
VERTEX
  8
FOREGROUND
  6
CONTINUOUS
 10
0.418731
 20
0.169266
  0
VERTEX
  8
FOREGROUND
  6
CONTINUOUS
 10
0.426941
 20
0.165649
  0
VERTEX
  8
FOREGROUND
  6
CONTINUOUS
 10
0.435213
 20
0.162088
  0
VERTEX
  8
FOREGROUND
  6
CONTINUOUS
 10
0.443547
 20
0.158583
  0
VERTEX
  8
FOREGROUND
  6
CONTINUOUS
 10
0.451941
 20
0.155136
  0
VERTEX
  8
FOREGROUND
  6
CONTINUOUS
 10
0.460394
 20
0.151744
  0
VERTEX
  8
FOREGROUND
  6
CONTINUOUS
 10
0.468905
 20
0.148409
  0
VERTEX
  8
FOREGROUND
  6
CONTINUOUS
 10
0.477473
 20
0.145131
  0
VERTEX
  8
FOREGROUND
  6
CONTINUOUS
 10
0.486098
 20
0.141909
  0
VERTEX
  8
FOREGROUND
  6
CONTINUOUS
 10
0.494779
 20
0.138744
  0
VERTEX
  8
FOREGROUND
  6
CONTINUOUS
 10
0.503513
 20
0.135635
  0
VERTEX
  8
FOREGROUND
  6
CONTINUOUS
 10
0.512301
 20
0.132583
  0
VERTEX
  8
FOREGROUND
  6
CONTINUOUS
 10
0.521142
 20
0.129587
  0
VERTEX
  8
FOREGROUND
  6
CONTINUOUS
 10
0.530034
 20
0.126648
  0
VERTEX
  8
FOREGROUND
  6
CONTINUOUS
 10
0.538976
 20
0.123765
  0
VERTEX
  8
FOREGROUND
  6
CONTINUOUS
 10
0.547968
 20
0.120939
  0
VERTEX
  8
FOREGROUND
  6
CONTINUOUS
 10
0.557008
 20
0.118169
  0
VERTEX
  8
FOREGROUND
  6
CONTINUOUS
 10
0.566096
 20
0.115456
  0
VERTEX
  8
FOREGROUND
  6
CONTINUOUS
 10
0.575230
 20
0.112799
  0
VERTEX
  8
FOREGROUND
  6
CONTINUOUS
 10
0.584410
 20
0.110199
  0
VERTEX
  8
FOREGROUND
  6
CONTINUOUS
 10
0.593635
 20
0.107655
  0
VERTEX
  8
FOREGROUND
  6
CONTINUOUS
 10
0.602903
 20
0.105168
  0
VERTEX
  8
FOREGROUND
  6
CONTINUOUS
 10
0.612214
 20
0.102737
  0
VERTEX
  8
FOREGROUND
  6
CONTINUOUS
 10
0.621566
 20
0.100363
  0
VERTEX
  8
FOREGROUND
  6
CONTINUOUS
 10
0.630959
 20
0.098045
  0
VERTEX
  8
FOREGROUND
  6
CONTINUOUS
 10
0.640392
 20
0.095784
  0
VERTEX
  8
FOREGROUND
  6
CONTINUOUS
 10
0.649864
 20
0.093580
  0
VERTEX
  8
FOREGROUND
  6
CONTINUOUS
 10
0.659373
 20
0.091431
  0
VERTEX
  8
FOREGROUND
  6
CONTINUOUS
 10
0.668919
 20
0.089340
  0
VERTEX
  8
FOREGROUND
  6
CONTINUOUS
 10
0.678501
 20
0.087305
  0
VERTEX
  8
FOREGROUND
  6
CONTINUOUS
 10
0.688117
 20
0.085326
  0
VERTEX
  8
FOREGROUND
  6
CONTINUOUS
 10
0.697768
 20
0.083404
  0
VERTEX
  8
FOREGROUND
  6
CONTINUOUS
 10
0.707451
 20
0.081538
  0
VERTEX
  8
FOREGROUND
  6
CONTINUOUS
 10
0.717167
 20
0.079729
  0
VERTEX
  8
FOREGROUND
  6
CONTINUOUS
 10
0.726913
 20
0.077976
  0
VERTEX
  8
FOREGROUND
  6
CONTINUOUS
 10
0.736689
 20
0.076280
  0
VERTEX
  8
FOREGROUND
  6
CONTINUOUS
 10
0.746494
 20
0.074641
  0
VERTEX
  8
FOREGROUND
  6
CONTINUOUS
 10
0.756327
 20
0.073057
  0
VERTEX
  8
FOREGROUND
  6
CONTINUOUS
 10
0.766187
 20
0.071531
  0
VERTEX
  8
FOREGROUND
  6
CONTINUOUS
 10
0.776073
 20
0.070061
  0
VERTEX
  8
FOREGROUND
  6
CONTINUOUS
 10
0.785984
 20
0.068647
  0
VERTEX
  8
FOREGROUND
  6
CONTINUOUS
 10
0.795919
 20
0.067290
  0
VERTEX
  8
FOREGROUND
  6
CONTINUOUS
 10
0.805877
 20
0.065990
  0
VERTEX
  8
FOREGROUND
  6
CONTINUOUS
 10
0.815857
 20
0.064746
  0
VERTEX
  8
FOREGROUND
  6
CONTINUOUS
 10
0.825858
 20
0.063558
  0
VERTEX
  8
FOREGROUND
  6
CONTINUOUS
 10
0.835880
 20
0.062427
  0
VERTEX
  8
FOREGROUND
  6
CONTINUOUS
 10
0.845921
 20
0.061352
  0
VERTEX
  8
FOREGROUND
  6
CONTINUOUS
 10
0.855980
 20
0.060334
  0
VERTEX
  8
FOREGROUND
  6
CONTINUOUS
 10
0.866056
 20
0.059373
  0
VERTEX
  8
FOREGROUND
  6
CONTINUOUS
 10
0.876148
 20
0.058468
  0
VERTEX
  8
FOREGROUND
  6
CONTINUOUS
 10
0.886255
 20
0.057619
  0
VERTEX
  8
FOREGROUND
  6
CONTINUOUS
 10
0.896377
 20
0.056827
  0
VERTEX
  8
FOREGROUND
  6
CONTINUOUS
 10
0.906513
 20
0.056092
  0
VERTEX
  8
FOREGROUND
  6
CONTINUOUS
 10
0.916660
 20
0.055413
  0
VERTEX
  8
FOREGROUND
  6
CONTINUOUS
 10
0.926819
 20
0.054791
  0
VERTEX
  8
FOREGROUND
  6
CONTINUOUS
 10
0.936988
 20
0.054225
  0
VERTEX
  8
FOREGROUND
  6
CONTINUOUS
 10
0.947167
 20
0.053715
  0
VERTEX
  8
FOREGROUND
  6
CONTINUOUS
 10
0.957354
 20
0.053262
  0
VERTEX
  8
FOREGROUND
  6
CONTINUOUS
 10
0.967548
 20
0.052866
  0
VERTEX
  8
FOREGROUND
  6
CONTINUOUS
 10
0.977749
 20
0.052526
  0
VERTEX
  8
FOREGROUND
  6
CONTINUOUS
 10
0.987955
 20
0.052242
  0
VERTEX
  8
FOREGROUND
  6
CONTINUOUS
 10
0.998166
 20
0.052016
  0
VERTEX
  8
FOREGROUND
  6
CONTINUOUS
 10
1.008381
 20
0.051845
  0
VERTEX
  8
FOREGROUND
  6
CONTINUOUS
 10
1.018598
 20
0.051731
  0
VERTEX
  8
FOREGROUND
  6
CONTINUOUS
 10
1.028816
 20
0.051674
  0
VERTEX
  8
FOREGROUND
  6
CONTINUOUS
 10
1.039035
 20
0.051673
  0
VERTEX
  8
FOREGROUND
  6
CONTINUOUS
 10
1.049254
 20
0.051729
  0
VERTEX
  8
FOREGROUND
  6
CONTINUOUS
 10
1.059471
 20
0.051841
  0
VERTEX
  8
FOREGROUND
  6
CONTINUOUS
 10
1.069686
 20
0.052010
  0
VERTEX
  8
FOREGROUND
  6
CONTINUOUS
 10
1.079898
 20
0.052235
  0
VERTEX
  8
FOREGROUND
  6
CONTINUOUS
 10
1.090106
 20
0.052517
  0
VERTEX
  8
FOREGROUND
  6
CONTINUOUS
 10
1.100308
 20
0.052855
  0
VERTEX
  8
FOREGROUND
  6
CONTINUOUS
 10
1.110504
 20
0.053249
  0
VERTEX
  8
FOREGROUND
  6
CONTINUOUS
 10
1.120692
 20
0.053701
  0
VERTEX
  8
FOREGROUND
  6
CONTINUOUS
 10
1.130873
 20
0.054208
  0
VERTEX
  8
FOREGROUND
  6
CONTINUOUS
 10
1.141044
 20
0.054773
  0
VERTEX
  8
FOREGROUND
  6
CONTINUOUS
 10
1.151205
 20
0.055393
  0
VERTEX
  8
FOREGROUND
  6
CONTINUOUS
 10
1.161355
 20
0.056071
  0
VERTEX
  8
FOREGROUND
  6
CONTINUOUS
 10
1.171493
 20
0.056804
  0
VERTEX
  8
FOREGROUND
  6
CONTINUOUS
 10
1.181618
 20
0.057595
  0
VERTEX
  8
FOREGROUND
  6
CONTINUOUS
 10
1.191728
 20
0.058442
  0
VERTEX
  8
FOREGROUND
  6
CONTINUOUS
 10
1.201824
 20
0.059345
  0
VERTEX
  8
FOREGROUND
  6
CONTINUOUS
 10
1.211903
 20
0.060305
  0
VERTEX
  8
FOREGROUND
  6
CONTINUOUS
 10
1.221966
 20
0.061321
  0
VERTEX
  8
FOREGROUND
  6
CONTINUOUS
 10
1.232011
 20
0.062394
  0
VERTEX
  8
FOREGROUND
  6
CONTINUOUS
 10
1.242036
 20
0.063523
  0
VERTEX
  8
FOREGROUND
  6
CONTINUOUS
 10
1.252042
 20
0.064709
  0
VERTEX
  8
FOREGROUND
  6
CONTINUOUS
 10
1.262027
 20
0.065952
  0
VERTEX
  8
FOREGROUND
  6
CONTINUOUS
 10
1.271990
 20
0.067251
  0
VERTEX
  8
FOREGROUND
  6
CONTINUOUS
 10
1.281930
 20
0.068606
  0
VERTEX
  8
FOREGROUND
  6
CONTINUOUS
 10
1.291846
 20
0.070018
  0
VERTEX
  8
FOREGROUND
  6
CONTINUOUS
 10
1.301737
 20
0.071486
  0
VERTEX
  8
FOREGROUND
  6
CONTINUOUS
 10
1.311603
 20
0.073011
  0
VERTEX
  8
FOREGROUND
  6
CONTINUOUS
 10
1.321441
 20
0.074593
  0
VERTEX
  8
FOREGROUND
  6
CONTINUOUS
 10
1.331252
 20
0.076231
  0
VERTEX
  8
FOREGROUND
  6
CONTINUOUS
 10
1.341035
 20
0.077925
  0
VERTEX
  8
FOREGROUND
  6
CONTINUOUS
 10
1.350787
 20
0.079676
  0
VERTEX
  8
FOREGROUND
  6
CONTINUOUS
 10
1.360509
 20
0.081484
  0
VERTEX
  8
FOREGROUND
  6
CONTINUOUS
 10
1.370199
 20
0.083348
  0
VERTEX
  8
FOREGROUND
  6
CONTINUOUS
 10
1.379856
 20
0.085268
  0
VERTEX
  8
FOREGROUND
  6
CONTINUOUS
 10
1.389480
 20
0.087245
  0
VERTEX
  8
FOREGROUND
  6
CONTINUOUS
 10
1.399070
 20
0.089279
  0
VERTEX
  8
FOREGROUND
  6
CONTINUOUS
 10
1.408623
 20
0.091369
  0
VERTEX
  8
FOREGROUND
  6
CONTINUOUS
 10
1.418140
 20
0.093516
  0
VERTEX
  8
FOREGROUND
  6
CONTINUOUS
 10
1.427620
 20
0.095719
  0
VERTEX
  8
FOREGROUND
  6
CONTINUOUS
 10
1.437061
 20
0.097978
  0
VERTEX
  8
FOREGROUND
  6
CONTINUOUS
 10
1.446463
 20
0.100294
  0
VERTEX
  8
FOREGROUND
  6
CONTINUOUS
 10
1.455824
 20
0.102667
  0
VERTEX
  8
FOREGROUND
  6
CONTINUOUS
 10
1.465143
 20
0.105096
  0
VERTEX
  8
FOREGROUND
  6
CONTINUOUS
 10
1.474420
 20
0.107582
  0
VERTEX
  8
FOREGROUND
  6
CONTINUOUS
 10
1.483654
 20
0.110124
  0
VERTEX
  8
FOREGROUND
  6
CONTINUOUS
 10
1.492844
 20
0.112723
  0
VERTEX
  8
FOREGROUND
  6
CONTINUOUS
 10
1.501988
 20
0.115378
  0
VERTEX
  8
FOREGROUND
  6
CONTINUOUS
 10
1.511085
 20
0.118090
  0
VERTEX
  8
FOREGROUND
  6
CONTINUOUS
 10
1.520136
 20
0.120858
  0
VERTEX
  8
FOREGROUND
  6
CONTINUOUS
 10
1.529138
 20
0.123683
  0
VERTEX
  8
FOREGROUND
  6
CONTINUOUS
 10
1.538091
 20
0.126564
  0
VERTEX
  8
FOREGROUND
  6
CONTINUOUS
 10
1.546993
 20
0.129502
  0
VERTEX
  8
FOREGROUND
  6
CONTINUOUS
 10
1.555845
 20
0.132496
  0
VERTEX
  8
FOREGROUND
  6
CONTINUOUS
 10
1.564644
 20
0.135547
  0
VERTEX
  8
FOREGROUND
  6
CONTINUOUS
 10
1.573390
 20
0.138654
  0
VERTEX
  8
FOREGROUND
  6
CONTINUOUS
 10
1.582081
 20
0.141818
  0
VERTEX
  8
FOREGROUND
  6
CONTINUOUS
 10
1.590718
 20
0.145038
  0
VERTEX
  8
FOREGROUND
  6
CONTINUOUS
 10
1.599299
 20
0.148315
  0
VERTEX
  8
FOREGROUND
  6
CONTINUOUS
 10
1.607822
 20
0.151649
  0
VERTEX
  8
FOREGROUND
  6
CONTINUOUS
 10
1.616288
 20
0.155039
  0
VERTEX
  8
FOREGROUND
  6
CONTINUOUS
 10
1.624694
 20
0.158485
  0
VERTEX
  8
FOREGROUND
  6
CONTINUOUS
 10
1.633040
 20
0.161988
  0
VERTEX
  8
FOREGROUND
  6
CONTINUOUS
 10
1.641325
 20
0.165547
  0
VERTEX
  8
FOREGROUND
  6
CONTINUOUS
 10
1.649549
 20
0.169163
  0
VERTEX
  8
FOREGROUND
  6
CONTINUOUS
 10
1.657709
 20
0.172836
  0
VERTEX
  8
FOREGROUND
  6
CONTINUOUS
 10
1.665805
 20
0.176565
  0
VERTEX
  8
FOREGROUND
  6
CONTINUOUS
 10
1.673837
 20
0.180350
  0
VERTEX
  8
FOREGROUND
  6
CONTINUOUS
 10
1.681803
 20
0.184192
  0
VERTEX
  8
FOREGROUND
  6
CONTINUOUS
 10
1.689701
 20
0.188091
  0
VERTEX
  8
FOREGROUND
  6
CONTINUOUS
 10
1.697532
 20
0.192046
  0
VERTEX
  8
FOREGROUND
  6
CONTINUOUS
 10
1.705294
 20
0.196058
  0
VERTEX
  8
FOREGROUND
  6
CONTINUOUS
 10
1.712986
 20
0.200126
  0
VERTEX
  8
FOREGROUND
  6
CONTINUOUS
 10
1.720608
 20
0.204250
  0
VERTEX
  8
FOREGROUND
  6
CONTINUOUS
 10
1.728158
 20
0.208431
  0
VERTEX
  8
FOREGROUND
  6
CONTINUOUS
 10
1.735635
 20
0.212669
  0
VERTEX
  8
FOREGROUND
  6
CONTINUOUS
 10
1.743038
 20
0.216963
  0
VERTEX
  8
FOREGROUND
  6
CONTINUOUS
 10
1.750366
 20
0.221314
  0
VERTEX
  8
FOREGROUND
  6
CONTINUOUS
 10
1.757619
 20
0.225721
  0
VERTEX
  8
FOREGROUND
  6
CONTINUOUS
 10
1.764795
 20
0.230185
  0
VERTEX
  8
FOREGROUND
  6
CONTINUOUS
 10
1.771894
 20
0.234705
  0
VERTEX
  8
FOREGROUND
  6
CONTINUOUS
 10
1.778914
 20
0.239282
  0
VERTEX
  8
FOREGROUND
  6
CONTINUOUS
 10
1.785854
 20
0.243915
  0
VERTEX
  8
FOREGROUND
  6
CONTINUOUS
 10
1.792714
 20
0.248605
  0
VERTEX
  8
FOREGROUND
  6
CONTINUOUS
 10
1.799493
 20
0.253351
  0
VERTEX
  8
FOREGROUND
  6
CONTINUOUS
 10
1.806188
 20
0.258154
  0
VERTEX
  8
FOREGROUND
  6
CONTINUOUS
 10
1.812801
 20
0.263013
  0
VERTEX
  8
FOREGROUND
  6
CONTINUOUS
 10
1.819329
 20
0.267929
  0
VERTEX
  8
FOREGROUND
  6
CONTINUOUS
 10
1.825771
 20
0.272901
  0
VERTEX
  8
FOREGROUND
  6
CONTINUOUS
 10
1.832127
 20
0.277930
  0
VERTEX
  8
FOREGROUND
  6
CONTINUOUS
 10
1.838395
 20
0.283016
  0
VERTEX
  8
FOREGROUND
  6
CONTINUOUS
 10
1.844576
 20
0.288158
  0
VERTEX
  8
FOREGROUND
  6
CONTINUOUS
 10
1.850666
 20
0.293356
  0
VERTEX
  8
FOREGROUND
  6
CONTINUOUS
 10
1.856667
 20
0.298611
  0
VERTEX
  8
FOREGROUND
  6
CONTINUOUS
 10
1.862576
 20
0.303922
  0
VERTEX
  8
FOREGROUND
  6
CONTINUOUS
 10
1.868393
 20
0.309290
  0
VERTEX
  8
FOREGROUND
  6
CONTINUOUS
 10
1.874117
 20
0.314715
  0
VERTEX
  8
FOREGROUND
  6
CONTINUOUS
 10
1.879746
 20
0.320196
  0
VERTEX
  8
FOREGROUND
  6
CONTINUOUS
 10
1.885280
 20
0.325733
  0
VERTEX
  8
FOREGROUND
  6
CONTINUOUS
 10
1.890718
 20
0.331327
  0
VERTEX
  8
FOREGROUND
  6
CONTINUOUS
 10
1.896059
 20
0.336978
  0
VERTEX
  8
FOREGROUND
  6
CONTINUOUS
 10
1.901301
 20
0.342685
  0
VERTEX
  8
FOREGROUND
  6
CONTINUOUS
 10
1.906445
 20
0.348449
  0
VERTEX
  8
FOREGROUND
  6
CONTINUOUS
 10
1.911488
 20
0.354269
  0
VERTEX
  8
FOREGROUND
  6
CONTINUOUS
 10
1.916430
 20
0.360145
  0
VERTEX
  8
FOREGROUND
  6
CONTINUOUS
 10
1.921270
 20
0.366079
  0
VERTEX
  8
FOREGROUND
  6
CONTINUOUS
 10
1.926008
 20
0.372068
  0
VERTEX
  8
FOREGROUND
  6
CONTINUOUS
 10
1.930641
 20
0.378114
  0
VERTEX
  8
FOREGROUND
  6
CONTINUOUS
 10
1.935169
 20
0.384217
  0
VERTEX
  8
FOREGROUND
  6
CONTINUOUS
 10
1.939591
 20
0.390376
  0
VERTEX
  8
FOREGROUND
  6
CONTINUOUS
 10
1.943906
 20
0.396592
  0
VERTEX
  8
FOREGROUND
  6
CONTINUOUS
 10
1.948113
 20
0.402864
  0
VERTEX
  8
FOREGROUND
  6
CONTINUOUS
 10
1.952211
 20
0.409193
  0
VERTEX
  8
FOREGROUND
  6
CONTINUOUS
 10
1.956200
 20
0.415579
  0
VERTEX
  8
FOREGROUND
  6
CONTINUOUS
 10
1.960077
 20
0.422020
  0
VERTEX
  8
FOREGROUND
  6
CONTINUOUS
 10
1.963843
 20
0.428519
  0
VERTEX
  8
FOREGROUND
  6
CONTINUOUS
 10
1.967496
 20
0.435074
  0
VERTEX
  8
FOREGROUND
  6
CONTINUOUS
 10
1.971035
 20
0.441685
  0
VERTEX
  8
FOREGROUND
  6
CONTINUOUS
 10
1.974459
 20
0.448353
  0
VERTEX
  8
FOREGROUND
  6
CONTINUOUS
 10
1.977768
 20
0.455077
  0
VERTEX
  8
FOREGROUND
  6
CONTINUOUS
 10
1.980959
 20
0.461858
  0
VERTEX
  8
FOREGROUND
  6
CONTINUOUS
 10
1.984034
 20
0.468696
  0
VERTEX
  8
FOREGROUND
  6
CONTINUOUS
 10
1.986989
 20
0.475590
  0
VERTEX
  8
FOREGROUND
  6
CONTINUOUS
 10
1.989825
 20
0.482540
  0
VERTEX
  8
FOREGROUND
  6
CONTINUOUS
 10
1.992540
 20
0.489547
  0
VERTEX
  8
FOREGROUND
  6
CONTINUOUS
 10
1.995133
 20
0.496611
  0
VERTEX
  8
FOREGROUND
  6
CONTINUOUS
 10
1.997604
 20
0.503731
  0
VERTEX
  8
FOREGROUND
  6
CONTINUOUS
 10
1.999951
 20
0.510908
  0
VERTEX
  8
FOREGROUND
  6
CONTINUOUS
 10
2.002174
 20
0.518141
  0
VERTEX
  8
FOREGROUND
  6
CONTINUOUS
 10
2.004271
 20
0.525430
  0
VERTEX
  8
FOREGROUND
  6
CONTINUOUS
 10
2.006242
 20
0.532776
  0
VERTEX
  8
FOREGROUND
  6
CONTINUOUS
 10
2.008085
 20
0.540179
  0
VERTEX
  8
FOREGROUND
  6
CONTINUOUS
 10
2.009799
 20
0.547638
  0
VERTEX
  8
FOREGROUND
  6
CONTINUOUS
 10
2.011385
 20
0.555154
  0
VERTEX
  8
FOREGROUND
  6
CONTINUOUS
 10
2.012840
 20
0.562726
  0
VERTEX
  8
FOREGROUND
  6
CONTINUOUS
 10
2.014163
 20
0.570355
  0
VERTEX
  8
FOREGROUND
  6
CONTINUOUS
 10
2.015354
 20
0.578040
  0
VERTEX
  8
FOREGROUND
  6
CONTINUOUS
 10
2.016412
 20
0.585782
  0
VERTEX
  8
FOREGROUND
  6
CONTINUOUS
 10
2.017335
 20
0.593580
  0
VERTEX
  8
FOREGROUND
  6
CONTINUOUS
 10
2.018123
 20
0.601435
  0
VERTEX
  8
FOREGROUND
  6
CONTINUOUS
 10
2.018775
 20
0.609347
  0
VERTEX
  8
FOREGROUND
  6
CONTINUOUS
 10
2.019289
 20
0.617315
  0
VERTEX
  8
FOREGROUND
  6
CONTINUOUS
 10
2.019665
 20
0.625339
  0
VERTEX
  8
FOREGROUND
  6
CONTINUOUS
 10
2.019902
 20
0.633420
  0
VERTEX
  8
FOREGROUND
  6
CONTINUOUS
 10
2.019999
 20
0.641557
  0
SEQEND
  8
0
  0
ENDSEC
  0
EOF
