  0
SECTION
  2
HEADER
  9
$ACADVER
  1
AC1006
  9
$EXTMIN
 10
0.000000
 20
0.000000
  9
$EXTMAX
 10
2.463333
 20
1.281667
  9
$LTSCALE
 40
0.166667
  9
$PDMODE
 70
    35
  9
$PDSIZE
 40
0.133333
  0
ENDSEC
  0
SECTION
  2
TABLES
  0
TABLE
  2
LTYPE
 70
     9
  0
LTYPE
  2
CONTINUOUS
 70
    64
  3
Solid line
 72
    65
 73
     0
 40
0.000000
  0
LTYPE
  2
DASHED
 70
    64
  3
__ __ __ __ __ __ __ __ __ __ __ __ __ __ __
 72
    65
 73
     2
 40
0.001250
 49
0.000833
 49
-0.000417
  0
LTYPE
  2
HIDDEN
 70
    64
  3
 _ _ _ _ _ _ _ _ _ _ _ _ _ _ _ _ _ _ _ _ _ _
 72
    65
 73
     2
 40
0.000625
 49
0.000417
 49
-0.000208
  0
LTYPE
  2
CENTER
 70
    64
  3
____ _ ____ _ ____ _ ____ _ ____ _ ____ _ ____
 72
    65
 73
     4
 40
0.003333
 49
0.002083
 49
-0.000417
 49
0.000417
 49
-0.000417
  0
LTYPE
  2
PHANTOM
 70
    64
  3
_____ _ _ _____ _ _ _____ _ _ _____ _ _ ____
 72
    65
 73
     6
 40
0.004167
 49
0.002083
 49
-0.000417
 49
0.000417
 49
-0.000417
 49
0.000417
 49
-0.000417
  0
LTYPE
  2
DOT
 70
    64
  3
...............................................
 72
    65
 73
     2
 40
0.000417
 49
0.000000
 49
-0.000417
  0
LTYPE
  2
DASHDOT
 70
    64
  3
__ . __ . __ . __ . __ . __ . __ . __ . __ . __
 72
    65
 73
     4
 40
0.001667
 49
0.000833
 49
-0.000417
 49
0.000000
 49
-0.000417
  0
LTYPE
  2
BORDER
 70
    64
  3
__ __ . __ __ . __ __ . __ __ . __ __ . __ __
 72
    65
 73
     6
 40
0.002917
 49
0.000833
 49
-0.000417
 49
0.000833
 49
-0.000417
 49
0.000000
 49
-0.000417
  0
LTYPE
  2
DIVIDE
 70
    64
  3
__ . . __ . . __ . . __ . . __ . . __ . . __
 72
    65
 73
     6
 40
0.002083
 49
0.000833
 49
-0.000417
 49
0.000000
 49
-0.000417
 49
0.000000
 49
-0.000417
  0
LTYPE
  2
DOTDOT
 70
    64
  3
 . .  . .  . .  . .  . .  . . 
 72
    65
 73
     5
 40
0.000917
 49
-0.000417
 49
0.000000
 49
-0.000417
 49
0.000000
 49
-0.000417
  0
ENDTAB
  0
TABLE
  2
STYLE
 70
     2
  0
STYLE
 70
     0
  2
SN0
 40
0.000000
 41
0.001667
 50
0.000000
 71
     0
 42
0.000000
  3
ROMAND
  0
STYLE
 70
    68
  2
SV0
 40
0.000000
 41
0.001667
 50
0.000000
 71
     0
 42
0.000000
  3
ROMAND
  0
ENDTAB
  0
TABLE
  2
LAYER
 70
     2
  0
LAYER
  2
FOREGROUND
 70
    64
 62
     7
  6
CONTINUOUS
  0
LAYER
  2
BACKGROUND
 70
    65
 62
    -7
  6
CONTINUOUS
  0
ENDTAB
  0
ENDSEC
  0
SECTION
  2
ENTITIES
  0
POLYLINE
  8
FOREGROUND
  6
CONTINUOUS
 66
     1
 40
0.010000
 41
0.010000
 70
     1
  0
VERTEX
  8
FOREGROUND
  6
CONTINUOUS
 10
2.413332
 20
0.641667
  0
VERTEX
  8
FOREGROUND
  6
CONTINUOUS
 10
2.413252
 20
0.650005
  0
VERTEX
  8
FOREGROUND
  6
CONTINUOUS
 10
2.412995
 20
0.658285
  0
VERTEX
  8
FOREGROUND
  6
CONTINUOUS
 10
2.412563
 20
0.666505
  0
VERTEX
  8
FOREGROUND
  6
CONTINUOUS
 10
2.411956
 20
0.674666
  0
VERTEX
  8
FOREGROUND
  6
CONTINUOUS
 10
2.411176
 20
0.682767
  0
VERTEX
  8
FOREGROUND
  6
CONTINUOUS
 10
2.410225
 20
0.690809
  0
VERTEX
  8
FOREGROUND
  6
CONTINUOUS
 10
2.409102
 20
0.698792
  0
VERTEX
  8
FOREGROUND
  6
CONTINUOUS
 10
2.407811
 20
0.706715
  0
VERTEX
  8
FOREGROUND
  6
CONTINUOUS
 10
2.406351
 20
0.714579
  0
VERTEX
  8
FOREGROUND
  6
CONTINUOUS
 10
2.404724
 20
0.722383
  0
VERTEX
  8
FOREGROUND
  6
CONTINUOUS
 10
2.402932
 20
0.730129
  0
VERTEX
  8
FOREGROUND
  6
CONTINUOUS
 10
2.400976
 20
0.737815
  0
VERTEX
  8
FOREGROUND
  6
CONTINUOUS
 10
2.398856
 20
0.745441
  0
VERTEX
  8
FOREGROUND
  6
CONTINUOUS
 10
2.396575
 20
0.753009
  0
VERTEX
  8
FOREGROUND
  6
CONTINUOUS
 10
2.394133
 20
0.760516
  0
VERTEX
  8
FOREGROUND
  6
CONTINUOUS
 10
2.391532
 20
0.767965
  0
VERTEX
  8
FOREGROUND
  6
CONTINUOUS
 10
2.388773
 20
0.775354
  0
VERTEX
  8
FOREGROUND
  6
CONTINUOUS
 10
2.385858
 20
0.782684
  0
VERTEX
  8
FOREGROUND
  6
CONTINUOUS
 10
2.382787
 20
0.789954
  0
VERTEX
  8
FOREGROUND
  6
CONTINUOUS
 10
2.379561
 20
0.797166
  0
VERTEX
  8
FOREGROUND
  6
CONTINUOUS
 10
2.376183
 20
0.804317
  0
VERTEX
  8
FOREGROUND
  6
CONTINUOUS
 10
2.372653
 20
0.811410
  0
VERTEX
  8
FOREGROUND
  6
CONTINUOUS
 10
2.368973
 20
0.818443
  0
VERTEX
  8
FOREGROUND
  6
CONTINUOUS
 10
2.365144
 20
0.825417
  0
VERTEX
  8
FOREGROUND
  6
CONTINUOUS
 10
2.361166
 20
0.832331
  0
VERTEX
  8
FOREGROUND
  6
CONTINUOUS
 10
2.357043
 20
0.839186
  0
VERTEX
  8
FOREGROUND
  6
CONTINUOUS
 10
2.352773
 20
0.845982
  0
VERTEX
  8
FOREGROUND
  6
CONTINUOUS
 10
2.348360
 20
0.852718
  0
VERTEX
  8
FOREGROUND
  6
CONTINUOUS
 10
2.343804
 20
0.859395
  0
VERTEX
  8
FOREGROUND
  6
CONTINUOUS
 10
2.339106
 20
0.866013
  0
VERTEX
  8
FOREGROUND
  6
CONTINUOUS
 10
2.334268
 20
0.872571
  0
VERTEX
  8
FOREGROUND
  6
CONTINUOUS
 10
2.329291
 20
0.879070
  0
VERTEX
  8
FOREGROUND
  6
CONTINUOUS
 10
2.324176
 20
0.885510
  0
VERTEX
  8
FOREGROUND
  6
CONTINUOUS
 10
2.318925
 20
0.891890
  0
VERTEX
  8
FOREGROUND
  6
CONTINUOUS
 10
2.313538
 20
0.898211
  0
VERTEX
  8
FOREGROUND
  6
CONTINUOUS
 10
2.308018
 20
0.904473
  0
VERTEX
  8
FOREGROUND
  6
CONTINUOUS
 10
2.302365
 20
0.910675
  0
VERTEX
  8
FOREGROUND
  6
CONTINUOUS
 10
2.296580
 20
0.916818
  0
VERTEX
  8
FOREGROUND
  6
CONTINUOUS
 10
2.290665
 20
0.922902
  0
VERTEX
  8
FOREGROUND
  6
CONTINUOUS
 10
2.284621
 20
0.928926
  0
VERTEX
  8
FOREGROUND
  6
CONTINUOUS
 10
2.278449
 20
0.934891
  0
VERTEX
  8
FOREGROUND
  6
CONTINUOUS
 10
2.272151
 20
0.940796
  0
VERTEX
  8
FOREGROUND
  6
CONTINUOUS
 10
2.265728
 20
0.946642
  0
VERTEX
  8
FOREGROUND
  6
CONTINUOUS
 10
2.259181
 20
0.952429
  0
VERTEX
  8
FOREGROUND
  6
CONTINUOUS
 10
2.252512
 20
0.958157
  0
VERTEX
  8
FOREGROUND
  6
CONTINUOUS
 10
2.245721
 20
0.963825
  0
VERTEX
  8
FOREGROUND
  6
CONTINUOUS
 10
2.238809
 20
0.969434
  0
VERTEX
  8
FOREGROUND
  6
CONTINUOUS
 10
2.231780
 20
0.974983
  0
VERTEX
  8
FOREGROUND
  6
CONTINUOUS
 10
2.224632
 20
0.980473
  0
VERTEX
  8
FOREGROUND
  6
CONTINUOUS
 10
2.217368
 20
0.985904
  0
VERTEX
  8
FOREGROUND
  6
CONTINUOUS
 10
2.209989
 20
0.991275
  0
VERTEX
  8
FOREGROUND
  6
CONTINUOUS
 10
2.202497
 20
0.996587
  0
VERTEX
  8
FOREGROUND
  6
CONTINUOUS
 10
2.194891
 20
1.001840
  0
VERTEX
  8
FOREGROUND
  6
CONTINUOUS
 10
2.187175
 20
1.007033
  0
VERTEX
  8
FOREGROUND
  6
CONTINUOUS
 10
2.179348
 20
1.012167
  0
VERTEX
  8
FOREGROUND
  6
CONTINUOUS
 10
2.171413
 20
1.017242
  0
VERTEX
  8
FOREGROUND
  6
CONTINUOUS
 10
2.163371
 20
1.022257
  0
VERTEX
  8
FOREGROUND
  6
CONTINUOUS
 10
2.155222
 20
1.027213
  0
VERTEX
  8
FOREGROUND
  6
CONTINUOUS
 10
2.146968
 20
1.032110
  0
VERTEX
  8
FOREGROUND
  6
CONTINUOUS
 10
2.138610
 20
1.036947
  0
VERTEX
  8
FOREGROUND
  6
CONTINUOUS
 10
2.130150
 20
1.041725
  0
VERTEX
  8
FOREGROUND
  6
CONTINUOUS
 10
2.121589
 20
1.046444
  0
VERTEX
  8
FOREGROUND
  6
CONTINUOUS
 10
2.112928
 20
1.051103
  0
VERTEX
  8
FOREGROUND
  6
CONTINUOUS
 10
2.104169
 20
1.055703
  0
VERTEX
  8
FOREGROUND
  6
CONTINUOUS
 10
2.095312
 20
1.060243
  0
VERTEX
  8
FOREGROUND
  6
CONTINUOUS
 10
2.086358
 20
1.064724
  0
VERTEX
  8
FOREGROUND
  6
CONTINUOUS
 10
2.077310
 20
1.069146
  0
VERTEX
  8
FOREGROUND
  6
CONTINUOUS
 10
2.068169
 20
1.073509
  0
VERTEX
  8
FOREGROUND
  6
CONTINUOUS
 10
2.058935
 20
1.077812
  0
VERTEX
  8
FOREGROUND
  6
CONTINUOUS
 10
2.049610
 20
1.082055
  0
VERTEX
  8
FOREGROUND
  6
CONTINUOUS
 10
2.040195
 20
1.086240
  0
VERTEX
  8
FOREGROUND
  6
CONTINUOUS
 10
2.030692
 20
1.090365
  0
VERTEX
  8
FOREGROUND
  6
CONTINUOUS
 10
2.021101
 20
1.094431
  0
VERTEX
  8
FOREGROUND
  6
CONTINUOUS
 10
2.011425
 20
1.098437
  0
VERTEX
  8
FOREGROUND
  6
CONTINUOUS
 10
2.001663
 20
1.102384
  0
VERTEX
  8
FOREGROUND
  6
CONTINUOUS
 10
1.991819
 20
1.106272
  0
VERTEX
  8
FOREGROUND
  6
CONTINUOUS
 10
1.981891
 20
1.110100
  0
VERTEX
  8
FOREGROUND
  6
CONTINUOUS
 10
1.971883
 20
1.113869
  0
VERTEX
  8
FOREGROUND
  6
CONTINUOUS
 10
1.961796
 20
1.117579
  0
VERTEX
  8
FOREGROUND
  6
CONTINUOUS
 10
1.951630
 20
1.121229
  0
VERTEX
  8
FOREGROUND
  6
CONTINUOUS
 10
1.941386
 20
1.124820
  0
VERTEX
  8
FOREGROUND
  6
CONTINUOUS
 10
1.931067
 20
1.128352
  0
VERTEX
  8
FOREGROUND
  6
CONTINUOUS
 10
1.920673
 20
1.131824
  0
VERTEX
  8
FOREGROUND
  6
CONTINUOUS
 10
1.910206
 20
1.135237
  0
VERTEX
  8
FOREGROUND
  6
CONTINUOUS
 10
1.899666
 20
1.138590
  0
VERTEX
  8
FOREGROUND
  6
CONTINUOUS
 10
1.889056
 20
1.141884
  0
VERTEX
  8
FOREGROUND
  6
CONTINUOUS
 10
1.878376
 20
1.145119
  0
VERTEX
  8
FOREGROUND
  6
CONTINUOUS
 10
1.867628
 20
1.148295
  0
VERTEX
  8
FOREGROUND
  6
CONTINUOUS
 10
1.856813
 20
1.151411
  0
VERTEX
  8
FOREGROUND
  6
CONTINUOUS
 10
1.845931
 20
1.154468
  0
VERTEX
  8
FOREGROUND
  6
CONTINUOUS
 10
1.834986
 20
1.157465
  0
VERTEX
  8
FOREGROUND
  6
CONTINUOUS
 10
1.823977
 20
1.160403
  0
VERTEX
  8
FOREGROUND
  6
CONTINUOUS
 10
1.812906
 20
1.163282
  0
VERTEX
  8
FOREGROUND
  6
CONTINUOUS
 10
1.801774
 20
1.166101
  0
VERTEX
  8
FOREGROUND
  6
CONTINUOUS
 10
1.790583
 20
1.168861
  0
VERTEX
  8
FOREGROUND
  6
CONTINUOUS
 10
1.779333
 20
1.171562
  0
VERTEX
  8
FOREGROUND
  6
CONTINUOUS
 10
1.768027
 20
1.174204
  0
VERTEX
  8
FOREGROUND
  6
CONTINUOUS
 10
1.756665
 20
1.176786
  0
VERTEX
  8
FOREGROUND
  6
CONTINUOUS
 10
1.745248
 20
1.179308
  0
VERTEX
  8
FOREGROUND
  6
CONTINUOUS
 10
1.733778
 20
1.181772
  0
VERTEX
  8
FOREGROUND
  6
CONTINUOUS
 10
1.722257
 20
1.184175
  0
VERTEX
  8
FOREGROUND
  6
CONTINUOUS
 10
1.710684
 20
1.186520
  0
VERTEX
  8
FOREGROUND
  6
CONTINUOUS
 10
1.699062
 20
1.188805
  0
VERTEX
  8
FOREGROUND
  6
CONTINUOUS
 10
1.687392
 20
1.191031
  0
VERTEX
  8
FOREGROUND
  6
CONTINUOUS
 10
1.675676
 20
1.193198
  0
VERTEX
  8
FOREGROUND
  6
CONTINUOUS
 10
1.663913
 20
1.195305
  0
VERTEX
  8
FOREGROUND
  6
CONTINUOUS
 10
1.652106
 20
1.197353
  0
VERTEX
  8
FOREGROUND
  6
CONTINUOUS
 10
1.640257
 20
1.199341
  0
VERTEX
  8
FOREGROUND
  6
CONTINUOUS
 10
1.628365
 20
1.201271
  0
VERTEX
  8
FOREGROUND
  6
CONTINUOUS
 10
1.616433
 20
1.203140
  0
VERTEX
  8
FOREGROUND
  6
CONTINUOUS
 10
1.604461
 20
1.204951
  0
VERTEX
  8
FOREGROUND
  6
CONTINUOUS
 10
1.592451
 20
1.206702
  0
VERTEX
  8
FOREGROUND
  6
CONTINUOUS
 10
1.580405
 20
1.208394
  0
VERTEX
  8
FOREGROUND
  6
CONTINUOUS
 10
1.568323
 20
1.210026
  0
VERTEX
  8
FOREGROUND
  6
CONTINUOUS
 10
1.556207
 20
1.211599
  0
VERTEX
  8
FOREGROUND
  6
CONTINUOUS
 10
1.544058
 20
1.213113
  0
VERTEX
  8
FOREGROUND
  6
CONTINUOUS
 10
1.531877
 20
1.214567
  0
VERTEX
  8
FOREGROUND
  6
CONTINUOUS
 10
1.519666
 20
1.215962
  0
VERTEX
  8
FOREGROUND
  6
CONTINUOUS
 10
1.507425
 20
1.217298
  0
VERTEX
  8
FOREGROUND
  6
CONTINUOUS
 10
1.495157
 20
1.218574
  0
VERTEX
  8
FOREGROUND
  6
CONTINUOUS
 10
1.482862
 20
1.219791
  0
VERTEX
  8
FOREGROUND
  6
CONTINUOUS
 10
1.470541
 20
1.220949
  0
VERTEX
  8
FOREGROUND
  6
CONTINUOUS
 10
1.458196
 20
1.222047
  0
VERTEX
  8
FOREGROUND
  6
CONTINUOUS
 10
1.445829
 20
1.223086
  0
VERTEX
  8
FOREGROUND
  6
CONTINUOUS
 10
1.433439
 20
1.224066
  0
VERTEX
  8
FOREGROUND
  6
CONTINUOUS
 10
1.421030
 20
1.224986
  0
VERTEX
  8
FOREGROUND
  6
CONTINUOUS
 10
1.408601
 20
1.225847
  0
VERTEX
  8
FOREGROUND
  6
CONTINUOUS
 10
1.396155
 20
1.226648
  0
VERTEX
  8
FOREGROUND
  6
CONTINUOUS
 10
1.383692
 20
1.227390
  0
VERTEX
  8
FOREGROUND
  6
CONTINUOUS
 10
1.371213
 20
1.228073
  0
VERTEX
  8
FOREGROUND
  6
CONTINUOUS
 10
1.358721
 20
1.228697
  0
VERTEX
  8
FOREGROUND
  6
CONTINUOUS
 10
1.346215
 20
1.229261
  0
VERTEX
  8
FOREGROUND
  6
CONTINUOUS
 10
1.333699
 20
1.229766
  0
VERTEX
  8
FOREGROUND
  6
CONTINUOUS
 10
1.321172
 20
1.230211
  0
VERTEX
  8
FOREGROUND
  6
CONTINUOUS
 10
1.308635
 20
1.230597
  0
VERTEX
  8
FOREGROUND
  6
CONTINUOUS
 10
1.296092
 20
1.230924
  0
VERTEX
  8
FOREGROUND
  6
CONTINUOUS
 10
1.283541
 20
1.231191
  0
VERTEX
  8
FOREGROUND
  6
CONTINUOUS
 10
1.270986
 20
1.231399
  0
VERTEX
  8
FOREGROUND
  6
CONTINUOUS
 10
1.258427
 20
1.231548
  0
VERTEX
  8
FOREGROUND
  6
CONTINUOUS
 10
1.245864
 20
1.231637
  0
VERTEX
  8
FOREGROUND
  6
CONTINUOUS
 10
1.233301
 20
1.231667
  0
VERTEX
  8
FOREGROUND
  6
CONTINUOUS
 10
1.220737
 20
1.231638
  0
VERTEX
  8
FOREGROUND
  6
CONTINUOUS
 10
1.208174
 20
1.231549
  0
VERTEX
  8
FOREGROUND
  6
CONTINUOUS
 10
1.195614
 20
1.231401
  0
VERTEX
  8
FOREGROUND
  6
CONTINUOUS
 10
1.183058
 20
1.231194
  0
VERTEX
  8
FOREGROUND
  6
CONTINUOUS
 10
1.170506
 20
1.230927
  0
VERTEX
  8
FOREGROUND
  6
CONTINUOUS
 10
1.157960
 20
1.230601
  0
VERTEX
  8
FOREGROUND
  6
CONTINUOUS
 10
1.145422
 20
1.230215
  0
VERTEX
  8
FOREGROUND
  6
CONTINUOUS
 10
1.132893
 20
1.229770
  0
VERTEX
  8
FOREGROUND
  6
CONTINUOUS
 10
1.120373
 20
1.229266
  0
VERTEX
  8
FOREGROUND
  6
CONTINUOUS
 10
1.107865
 20
1.228703
  0
VERTEX
  8
FOREGROUND
  6
CONTINUOUS
 10
1.095369
 20
1.228080
  0
VERTEX
  8
FOREGROUND
  6
CONTINUOUS
 10
1.082886
 20
1.227397
  0
VERTEX
  8
FOREGROUND
  6
CONTINUOUS
 10
1.070419
 20
1.226656
  0
VERTEX
  8
FOREGROUND
  6
CONTINUOUS
 10
1.057968
 20
1.225855
  0
VERTEX
  8
FOREGROUND
  6
CONTINUOUS
 10
1.045535
 20
1.224995
  0
VERTEX
  8
FOREGROUND
  6
CONTINUOUS
 10
1.033120
 20
1.224075
  0
VERTEX
  8
FOREGROUND
  6
CONTINUOUS
 10
1.020725
 20
1.223096
  0
VERTEX
  8
FOREGROUND
  6
CONTINUOUS
 10
1.008352
 20
1.222058
  0
VERTEX
  8
FOREGROUND
  6
CONTINUOUS
 10
0.996001
 20
1.220960
  0
VERTEX
  8
FOREGROUND
  6
CONTINUOUS
 10
0.983674
 20
1.219803
  0
VERTEX
  8
FOREGROUND
  6
CONTINUOUS
 10
0.971372
 20
1.218586
  0
VERTEX
  8
FOREGROUND
  6
CONTINUOUS
 10
0.959097
 20
1.217311
  0
VERTEX
  8
FOREGROUND
  6
CONTINUOUS
 10
0.946849
 20
1.215976
  0
VERTEX
  8
FOREGROUND
  6
CONTINUOUS
 10
0.934630
 20
1.214581
  0
VERTEX
  8
FOREGROUND
  6
CONTINUOUS
 10
0.922441
 20
1.213127
  0
VERTEX
  8
FOREGROUND
  6
CONTINUOUS
 10
0.910284
 20
1.211614
  0
VERTEX
  8
FOREGROUND
  6
CONTINUOUS
 10
0.898159
 20
1.210042
  0
VERTEX
  8
FOREGROUND
  6
CONTINUOUS
 10
0.886068
 20
1.208410
  0
VERTEX
  8
FOREGROUND
  6
CONTINUOUS
 10
0.874012
 20
1.206719
  0
VERTEX
  8
FOREGROUND
  6
CONTINUOUS
 10
0.861993
 20
1.204968
  0
VERTEX
  8
FOREGROUND
  6
CONTINUOUS
 10
0.850011
 20
1.203158
  0
VERTEX
  8
FOREGROUND
  6
CONTINUOUS
 10
0.838068
 20
1.201289
  0
VERTEX
  8
FOREGROUND
  6
CONTINUOUS
 10
0.826166
 20
1.199360
  0
VERTEX
  8
FOREGROUND
  6
CONTINUOUS
 10
0.814305
 20
1.197372
  0
VERTEX
  8
FOREGROUND
  6
CONTINUOUS
 10
0.802487
 20
1.195325
  0
VERTEX
  8
FOREGROUND
  6
CONTINUOUS
 10
0.790713
 20
1.193218
  0
VERTEX
  8
FOREGROUND
  6
CONTINUOUS
 10
0.778984
 20
1.191052
  0
VERTEX
  8
FOREGROUND
  6
CONTINUOUS
 10
0.767302
 20
1.188827
  0
VERTEX
  8
FOREGROUND
  6
CONTINUOUS
 10
0.755667
 20
1.186542
  0
VERTEX
  8
FOREGROUND
  6
CONTINUOUS
 10
0.744082
 20
1.184198
  0
VERTEX
  8
FOREGROUND
  6
CONTINUOUS
 10
0.732547
 20
1.181795
  0
VERTEX
  8
FOREGROUND
  6
CONTINUOUS
 10
0.721064
 20
1.179332
  0
VERTEX
  8
FOREGROUND
  6
CONTINUOUS
 10
0.709633
 20
1.176810
  0
VERTEX
  8
FOREGROUND
  6
CONTINUOUS
 10
0.698256
 20
1.174228
  0
VERTEX
  8
FOREGROUND
  6
CONTINUOUS
 10
0.686935
 20
1.171587
  0
VERTEX
  8
FOREGROUND
  6
CONTINUOUS
 10
0.675671
 20
1.168887
  0
VERTEX
  8
FOREGROUND
  6
CONTINUOUS
 10
0.664464
 20
1.166128
  0
VERTEX
  8
FOREGROUND
  6
CONTINUOUS
 10
0.653317
 20
1.163309
  0
VERTEX
  8
FOREGROUND
  6
CONTINUOUS
 10
0.642230
 20
1.160431
  0
VERTEX
  8
FOREGROUND
  6
CONTINUOUS
 10
0.631205
 20
1.157493
  0
VERTEX
  8
FOREGROUND
  6
CONTINUOUS
 10
0.620243
 20
1.154496
  0
VERTEX
  8
FOREGROUND
  6
CONTINUOUS
 10
0.609345
 20
1.151440
  0
VERTEX
  8
FOREGROUND
  6
CONTINUOUS
 10
0.598512
 20
1.148324
  0
VERTEX
  8
FOREGROUND
  6
CONTINUOUS
 10
0.587746
 20
1.145149
  0
VERTEX
  8
FOREGROUND
  6
CONTINUOUS
 10
0.577048
 20
1.141915
  0
VERTEX
  8
FOREGROUND
  6
CONTINUOUS
 10
0.566420
 20
1.138621
  0
VERTEX
  8
FOREGROUND
  6
CONTINUOUS
 10
0.555862
 20
1.135268
  0
VERTEX
  8
FOREGROUND
  6
CONTINUOUS
 10
0.545376
 20
1.131856
  0
VERTEX
  8
FOREGROUND
  6
CONTINUOUS
 10
0.534962
 20
1.128384
  0
VERTEX
  8
FOREGROUND
  6
CONTINUOUS
 10
0.524624
 20
1.124853
  0
VERTEX
  8
FOREGROUND
  6
CONTINUOUS
 10
0.514360
 20
1.121262
  0
VERTEX
  8
FOREGROUND
  6
CONTINUOUS
 10
0.504174
 20
1.117612
  0
VERTEX
  8
FOREGROUND
  6
CONTINUOUS
 10
0.494066
 20
1.113903
  0
VERTEX
  8
FOREGROUND
  6
CONTINUOUS
 10
0.484037
 20
1.110135
  0
VERTEX
  8
FOREGROUND
  6
CONTINUOUS
 10
0.474089
 20
1.106307
  0
VERTEX
  8
FOREGROUND
  6
CONTINUOUS
 10
0.464222
 20
1.102420
  0
VERTEX
  8
FOREGROUND
  6
CONTINUOUS
 10
0.454439
 20
1.098473
  0
VERTEX
  8
FOREGROUND
  6
CONTINUOUS
 10
0.444740
 20
1.094467
  0
VERTEX
  8
FOREGROUND
  6
CONTINUOUS
 10
0.435127
 20
1.090402
  0
VERTEX
  8
FOREGROUND
  6
CONTINUOUS
 10
0.425601
 20
1.086277
  0
VERTEX
  8
FOREGROUND
  6
CONTINUOUS
 10
0.416163
 20
1.082093
  0
VERTEX
  8
FOREGROUND
  6
CONTINUOUS
 10
0.406815
 20
1.077850
  0
VERTEX
  8
FOREGROUND
  6
CONTINUOUS
 10
0.397557
 20
1.073547
  0
VERTEX
  8
FOREGROUND
  6
CONTINUOUS
 10
0.388391
 20
1.069185
  0
VERTEX
  8
FOREGROUND
  6
CONTINUOUS
 10
0.379319
 20
1.064764
  0
VERTEX
  8
FOREGROUND
  6
CONTINUOUS
 10
0.370341
 20
1.060283
  0
VERTEX
  8
FOREGROUND
  6
CONTINUOUS
 10
0.361458
 20
1.055743
  0
VERTEX
  8
FOREGROUND
  6
CONTINUOUS
 10
0.352673
 20
1.051143
  0
VERTEX
  8
FOREGROUND
  6
CONTINUOUS
 10
0.343986
 20
1.046485
  0
VERTEX
  8
FOREGROUND
  6
CONTINUOUS
 10
0.335399
 20
1.041766
  0
VERTEX
  8
FOREGROUND
  6
CONTINUOUS
 10
0.326913
 20
1.036989
  0
VERTEX
  8
FOREGROUND
  6
CONTINUOUS
 10
0.318528
 20
1.032152
  0
VERTEX
  8
FOREGROUND
  6
CONTINUOUS
 10
0.310247
 20
1.027256
  0
VERTEX
  8
FOREGROUND
  6
CONTINUOUS
 10
0.302071
 20
1.022300
  0
VERTEX
  8
FOREGROUND
  6
CONTINUOUS
 10
0.294001
 20
1.017285
  0
VERTEX
  8
FOREGROUND
  6
CONTINUOUS
 10
0.286037
 20
1.012211
  0
VERTEX
  8
FOREGROUND
  6
CONTINUOUS
 10
0.278182
 20
1.007077
  0
VERTEX
  8
FOREGROUND
  6
CONTINUOUS
 10
0.270437
 20
1.001884
  0
VERTEX
  8
FOREGROUND
  6
CONTINUOUS
 10
0.262803
 20
0.996632
  0
VERTEX
  8
FOREGROUND
  6
CONTINUOUS
 10
0.255281
 20
0.991320
  0
VERTEX
  8
FOREGROUND
  6
CONTINUOUS
 10
0.247872
 20
0.985949
  0
VERTEX
  8
FOREGROUND
  6
CONTINUOUS
 10
0.240578
 20
0.980519
  0
VERTEX
  8
FOREGROUND
  6
CONTINUOUS
 10
0.233400
 20
0.975029
  0
VERTEX
  8
FOREGROUND
  6
CONTINUOUS
 10
0.226340
 20
0.969480
  0
VERTEX
  8
FOREGROUND
  6
CONTINUOUS
 10
0.219397
 20
0.963872
  0
VERTEX
  8
FOREGROUND
  6
CONTINUOUS
 10
0.212575
 20
0.958204
  0
VERTEX
  8
FOREGROUND
  6
CONTINUOUS
 10
0.205874
 20
0.952477
  0
VERTEX
  8
FOREGROUND
  6
CONTINUOUS
 10
0.199295
 20
0.946690
  0
VERTEX
  8
FOREGROUND
  6
CONTINUOUS
 10
0.192839
 20
0.940844
  0
VERTEX
  8
FOREGROUND
  6
CONTINUOUS
 10
0.186508
 20
0.934939
  0
VERTEX
  8
FOREGROUND
  6
CONTINUOUS
 10
0.180304
 20
0.928975
  0
VERTEX
  8
FOREGROUND
  6
CONTINUOUS
 10
0.174227
 20
0.922951
  0
VERTEX
  8
FOREGROUND
  6
CONTINUOUS
 10
0.168278
 20
0.916867
  0
VERTEX
  8
FOREGROUND
  6
CONTINUOUS
 10
0.162459
 20
0.910725
  0
VERTEX
  8
FOREGROUND
  6
CONTINUOUS
 10
0.156771
 20
0.904523
  0
VERTEX
  8
FOREGROUND
  6
CONTINUOUS
 10
0.151216
 20
0.898261
  0
VERTEX
  8
FOREGROUND
  6
CONTINUOUS
 10
0.145795
 20
0.891941
  0
VERTEX
  8
FOREGROUND
  6
CONTINUOUS
 10
0.140508
 20
0.885561
  0
VERTEX
  8
FOREGROUND
  6
CONTINUOUS
 10
0.135357
 20
0.879121
  0
VERTEX
  8
FOREGROUND
  6
CONTINUOUS
 10
0.130344
 20
0.872622
  0
VERTEX
  8
FOREGROUND
  6
CONTINUOUS
 10
0.125470
 20
0.866064
  0
VERTEX
  8
FOREGROUND
  6
CONTINUOUS
 10
0.120736
 20
0.859447
  0
VERTEX
  8
FOREGROUND
  6
CONTINUOUS
 10
0.116143
 20
0.852770
  0
VERTEX
  8
FOREGROUND
  6
CONTINUOUS
 10
0.111692
 20
0.846034
  0
VERTEX
  8
FOREGROUND
  6
CONTINUOUS
 10
0.107385
 20
0.839238
  0
VERTEX
  8
FOREGROUND
  6
CONTINUOUS
 10
0.103223
 20
0.832383
  0
VERTEX
  8
FOREGROUND
  6
CONTINUOUS
 10
0.099208
 20
0.825469
  0
VERTEX
  8
FOREGROUND
  6
CONTINUOUS
 10
0.095340
 20
0.818496
  0
VERTEX
  8
FOREGROUND
  6
CONTINUOUS
 10
0.091620
 20
0.811463
  0
VERTEX
  8
FOREGROUND
  6
CONTINUOUS
 10
0.088051
 20
0.804370
  0
VERTEX
  8
FOREGROUND
  6
CONTINUOUS
 10
0.084633
 20
0.797219
  0
VERTEX
  8
FOREGROUND
  6
CONTINUOUS
 10
0.081368
 20
0.790008
  0
VERTEX
  8
FOREGROUND
  6
CONTINUOUS
 10
0.078257
 20
0.782737
  0
VERTEX
  8
FOREGROUND
  6
CONTINUOUS
 10
0.075301
 20
0.775408
  0
VERTEX
  8
FOREGROUND
  6
CONTINUOUS
 10
0.072501
 20
0.768019
  0
VERTEX
  8
FOREGROUND
  6
CONTINUOUS
 10
0.069859
 20
0.760570
  0
VERTEX
  8
FOREGROUND
  6
CONTINUOUS
 10
0.067375
 20
0.753062
  0
VERTEX
  8
FOREGROUND
  6
CONTINUOUS
 10
0.065052
 20
0.745495
  0
VERTEX
  8
FOREGROUND
  6
CONTINUOUS
 10
0.062890
 20
0.737869
  0
VERTEX
  8
FOREGROUND
  6
CONTINUOUS
 10
0.060891
 20
0.730183
  0
VERTEX
  8
FOREGROUND
  6
CONTINUOUS
 10
0.059056
 20
0.722438
  0
VERTEX
  8
FOREGROUND
  6
CONTINUOUS
 10
0.057387
 20
0.714633
  0
VERTEX
  8
FOREGROUND
  6
CONTINUOUS
 10
0.055883
 20
0.706769
  0
VERTEX
  8
FOREGROUND
  6
CONTINUOUS
 10
0.054548
 20
0.698846
  0
VERTEX
  8
FOREGROUND
  6
CONTINUOUS
 10
0.053381
 20
0.690863
  0
VERTEX
  8
FOREGROUND
  6
CONTINUOUS
 10
0.052385
 20
0.682821
  0
VERTEX
  8
FOREGROUND
  6
CONTINUOUS
 10
0.051560
 20
0.674720
  0
VERTEX
  8
FOREGROUND
  6
CONTINUOUS
 10
0.050908
 20
0.666559
  0
VERTEX
  8
FOREGROUND
  6
CONTINUOUS
 10
0.050430
 20
0.658339
  0
VERTEX
  8
FOREGROUND
  6
CONTINUOUS
 10
0.050128
 20
0.650060
  0
VERTEX
  8
FOREGROUND
  6
CONTINUOUS
 10
0.050002
 20
0.641721
  0
VERTEX
  8
FOREGROUND
  6
CONTINUOUS
 10
0.050002
 20
0.641721
  0
VERTEX
  8
FOREGROUND
  6
CONTINUOUS
 10
0.050080
 20
0.633383
  0
VERTEX
  8
FOREGROUND
  6
CONTINUOUS
 10
0.050335
 20
0.625103
  0
VERTEX
  8
FOREGROUND
  6
CONTINUOUS
 10
0.050766
 20
0.616883
  0
VERTEX
  8
FOREGROUND
  6
CONTINUOUS
 10
0.051371
 20
0.608722
  0
VERTEX
  8
FOREGROUND
  6
CONTINUOUS
 10
0.052150
 20
0.600621
  0
VERTEX
  8
FOREGROUND
  6
CONTINUOUS
 10
0.053100
 20
0.592579
  0
VERTEX
  8
FOREGROUND
  6
CONTINUOUS
 10
0.054221
 20
0.584596
  0
VERTEX
  8
FOREGROUND
  6
CONTINUOUS
 10
0.055511
 20
0.576673
  0
VERTEX
  8
FOREGROUND
  6
CONTINUOUS
 10
0.056969
 20
0.568809
  0
VERTEX
  8
FOREGROUND
  6
CONTINUOUS
 10
0.058594
 20
0.561004
  0
VERTEX
  8
FOREGROUND
  6
CONTINUOUS
 10
0.060385
 20
0.553259
  0
VERTEX
  8
FOREGROUND
  6
CONTINUOUS
 10
0.062340
 20
0.545573
  0
VERTEX
  8
FOREGROUND
  6
CONTINUOUS
 10
0.064458
 20
0.537946
  0
VERTEX
  8
FOREGROUND
  6
CONTINUOUS
 10
0.066738
 20
0.530379
  0
VERTEX
  8
FOREGROUND
  6
CONTINUOUS
 10
0.069178
 20
0.522871
  0
VERTEX
  8
FOREGROUND
  6
CONTINUOUS
 10
0.071778
 20
0.515422
  0
VERTEX
  8
FOREGROUND
  6
CONTINUOUS
 10
0.074535
 20
0.508033
  0
VERTEX
  8
FOREGROUND
  6
CONTINUOUS
 10
0.077450
 20
0.500703
  0
VERTEX
  8
FOREGROUND
  6
CONTINUOUS
 10
0.080519
 20
0.493432
  0
VERTEX
  8
FOREGROUND
  6
CONTINUOUS
 10
0.083743
 20
0.486221
  0
VERTEX
  8
FOREGROUND
  6
CONTINUOUS
 10
0.087120
 20
0.479069
  0
VERTEX
  8
FOREGROUND
  6
CONTINUOUS
 10
0.090649
 20
0.471976
  0
VERTEX
  8
FOREGROUND
  6
CONTINUOUS
 10
0.094328
 20
0.464943
  0
VERTEX
  8
FOREGROUND
  6
CONTINUOUS
 10
0.098156
 20
0.457969
  0
VERTEX
  8
FOREGROUND
  6
CONTINUOUS
 10
0.102132
 20
0.451054
  0
VERTEX
  8
FOREGROUND
  6
CONTINUOUS
 10
0.106254
 20
0.444199
  0
VERTEX
  8
FOREGROUND
  6
CONTINUOUS
 10
0.110522
 20
0.437403
  0
VERTEX
  8
FOREGROUND
  6
CONTINUOUS
 10
0.114934
 20
0.430667
  0
VERTEX
  8
FOREGROUND
  6
CONTINUOUS
 10
0.119489
 20
0.423989
  0
VERTEX
  8
FOREGROUND
  6
CONTINUOUS
 10
0.124186
 20
0.417371
  0
VERTEX
  8
FOREGROUND
  6
CONTINUOUS
 10
0.129022
 20
0.410813
  0
VERTEX
  8
FOREGROUND
  6
CONTINUOUS
 10
0.133998
 20
0.404314
  0
VERTEX
  8
FOREGROUND
  6
CONTINUOUS
 10
0.139112
 20
0.397874
  0
VERTEX
  8
FOREGROUND
  6
CONTINUOUS
 10
0.144362
 20
0.391493
  0
VERTEX
  8
FOREGROUND
  6
CONTINUOUS
 10
0.149747
 20
0.385172
  0
VERTEX
  8
FOREGROUND
  6
CONTINUOUS
 10
0.155267
 20
0.378910
  0
VERTEX
  8
FOREGROUND
  6
CONTINUOUS
 10
0.160919
 20
0.372708
  0
VERTEX
  8
FOREGROUND
  6
CONTINUOUS
 10
0.166703
 20
0.366564
  0
VERTEX
  8
FOREGROUND
  6
CONTINUOUS
 10
0.172616
 20
0.360481
  0
VERTEX
  8
FOREGROUND
  6
CONTINUOUS
 10
0.178659
 20
0.354456
  0
VERTEX
  8
FOREGROUND
  6
CONTINUOUS
 10
0.184830
 20
0.348491
  0
VERTEX
  8
FOREGROUND
  6
CONTINUOUS
 10
0.191127
 20
0.342585
  0
VERTEX
  8
FOREGROUND
  6
CONTINUOUS
 10
0.197549
 20
0.336739
  0
VERTEX
  8
FOREGROUND
  6
CONTINUOUS
 10
0.204095
 20
0.330952
  0
VERTEX
  8
FOREGROUND
  6
CONTINUOUS
 10
0.210763
 20
0.325224
  0
VERTEX
  8
FOREGROUND
  6
CONTINUOUS
 10
0.217553
 20
0.319555
  0
VERTEX
  8
FOREGROUND
  6
CONTINUOUS
 10
0.224463
 20
0.313946
  0
VERTEX
  8
FOREGROUND
  6
CONTINUOUS
 10
0.231492
 20
0.308397
  0
VERTEX
  8
FOREGROUND
  6
CONTINUOUS
 10
0.238639
 20
0.302906
  0
VERTEX
  8
FOREGROUND
  6
CONTINUOUS
 10
0.245901
 20
0.297475
  0
VERTEX
  8
FOREGROUND
  6
CONTINUOUS
 10
0.253279
 20
0.292103
  0
VERTEX
  8
FOREGROUND
  6
CONTINUOUS
 10
0.260771
 20
0.286791
  0
VERTEX
  8
FOREGROUND
  6
CONTINUOUS
 10
0.268375
 20
0.281538
  0
VERTEX
  8
FOREGROUND
  6
CONTINUOUS
 10
0.276091
 20
0.276344
  0
VERTEX
  8
FOREGROUND
  6
CONTINUOUS
 10
0.283916
 20
0.271210
  0
VERTEX
  8
FOREGROUND
  6
CONTINUOUS
 10
0.291850
 20
0.266135
  0
VERTEX
  8
FOREGROUND
  6
CONTINUOUS
 10
0.299892
 20
0.261119
  0
VERTEX
  8
FOREGROUND
  6
CONTINUOUS
 10
0.308040
 20
0.256163
  0
VERTEX
  8
FOREGROUND
  6
CONTINUOUS
 10
0.316293
 20
0.251266
  0
VERTEX
  8
FOREGROUND
  6
CONTINUOUS
 10
0.324650
 20
0.246428
  0
VERTEX
  8
FOREGROUND
  6
CONTINUOUS
 10
0.333109
 20
0.241650
  0
VERTEX
  8
FOREGROUND
  6
CONTINUOUS
 10
0.341669
 20
0.236931
  0
VERTEX
  8
FOREGROUND
  6
CONTINUOUS
 10
0.350329
 20
0.232271
  0
VERTEX
  8
FOREGROUND
  6
CONTINUOUS
 10
0.359088
 20
0.227671
  0
VERTEX
  8
FOREGROUND
  6
CONTINUOUS
 10
0.367944
 20
0.223130
  0
VERTEX
  8
FOREGROUND
  6
CONTINUOUS
 10
0.376896
 20
0.218649
  0
VERTEX
  8
FOREGROUND
  6
CONTINUOUS
 10
0.385944
 20
0.214226
  0
VERTEX
  8
FOREGROUND
  6
CONTINUOUS
 10
0.395084
 20
0.209863
  0
VERTEX
  8
FOREGROUND
  6
CONTINUOUS
 10
0.404318
 20
0.205560
  0
VERTEX
  8
FOREGROUND
  6
CONTINUOUS
 10
0.413642
 20
0.201316
  0
VERTEX
  8
FOREGROUND
  6
CONTINUOUS
 10
0.423056
 20
0.197131
  0
VERTEX
  8
FOREGROUND
  6
CONTINUOUS
 10
0.432558
 20
0.193005
  0
VERTEX
  8
FOREGROUND
  6
CONTINUOUS
 10
0.442148
 20
0.188939
  0
VERTEX
  8
FOREGROUND
  6
CONTINUOUS
 10
0.451824
 20
0.184932
  0
VERTEX
  8
FOREGROUND
  6
CONTINUOUS
 10
0.461585
 20
0.180985
  0
VERTEX
  8
FOREGROUND
  6
CONTINUOUS
 10
0.471429
 20
0.177097
  0
VERTEX
  8
FOREGROUND
  6
CONTINUOUS
 10
0.481355
 20
0.173268
  0
VERTEX
  8
FOREGROUND
  6
CONTINUOUS
 10
0.491362
 20
0.169498
  0
VERTEX
  8
FOREGROUND
  6
CONTINUOUS
 10
0.501449
 20
0.165788
  0
VERTEX
  8
FOREGROUND
  6
CONTINUOUS
 10
0.511615
 20
0.162138
  0
VERTEX
  8
FOREGROUND
  6
CONTINUOUS
 10
0.521858
 20
0.158546
  0
VERTEX
  8
FOREGROUND
  6
CONTINUOUS
 10
0.532176
 20
0.155014
  0
VERTEX
  8
FOREGROUND
  6
CONTINUOUS
 10
0.542569
 20
0.151541
  0
VERTEX
  8
FOREGROUND
  6
CONTINUOUS
 10
0.553036
 20
0.148128
  0
VERTEX
  8
FOREGROUND
  6
CONTINUOUS
 10
0.563575
 20
0.144774
  0
VERTEX
  8
FOREGROUND
  6
CONTINUOUS
 10
0.574185
 20
0.141479
  0
VERTEX
  8
FOREGROUND
  6
CONTINUOUS
 10
0.584864
 20
0.138244
  0
VERTEX
  8
FOREGROUND
  6
CONTINUOUS
 10
0.595611
 20
0.135068
  0
VERTEX
  8
FOREGROUND
  6
CONTINUOUS
 10
0.606426
 20
0.131951
  0
VERTEX
  8
FOREGROUND
  6
CONTINUOUS
 10
0.617307
 20
0.128894
  0
VERTEX
  8
FOREGROUND
  6
CONTINUOUS
 10
0.628252
 20
0.125896
  0
VERTEX
  8
FOREGROUND
  6
CONTINUOUS
 10
0.639260
 20
0.122957
  0
VERTEX
  8
FOREGROUND
  6
CONTINUOUS
 10
0.650331
 20
0.120078
  0
VERTEX
  8
FOREGROUND
  6
CONTINUOUS
 10
0.661462
 20
0.117258
  0
VERTEX
  8
FOREGROUND
  6
CONTINUOUS
 10
0.672653
 20
0.114498
  0
VERTEX
  8
FOREGROUND
  6
CONTINUOUS
 10
0.683902
 20
0.111796
  0
VERTEX
  8
FOREGROUND
  6
CONTINUOUS
 10
0.695208
 20
0.109155
  0
VERTEX
  8
FOREGROUND
  6
CONTINUOUS
 10
0.706569
 20
0.106572
  0
VERTEX
  8
FOREGROUND
  6
CONTINUOUS
 10
0.717985
 20
0.104049
  0
VERTEX
  8
FOREGROUND
  6
CONTINUOUS
 10
0.729455
 20
0.101585
  0
VERTEX
  8
FOREGROUND
  6
CONTINUOUS
 10
0.740976
 20
0.099180
  0
VERTEX
  8
FOREGROUND
  6
CONTINUOUS
 10
0.752548
 20
0.096835
  0
VERTEX
  8
FOREGROUND
  6
CONTINUOUS
 10
0.764169
 20
0.094550
  0
VERTEX
  8
FOREGROUND
  6
CONTINUOUS
 10
0.775839
 20
0.092323
  0
VERTEX
  8
FOREGROUND
  6
CONTINUOUS
 10
0.787555
 20
0.090156
  0
VERTEX
  8
FOREGROUND
  6
CONTINUOUS
 10
0.799317
 20
0.088048
  0
VERTEX
  8
FOREGROUND
  6
CONTINUOUS
 10
0.811124
 20
0.086000
  0
VERTEX
  8
FOREGROUND
  6
CONTINUOUS
 10
0.822973
 20
0.084011
  0
VERTEX
  8
FOREGROUND
  6
CONTINUOUS
 10
0.834865
 20
0.082081
  0
VERTEX
  8
FOREGROUND
  6
CONTINUOUS
 10
0.846797
 20
0.080211
  0
VERTEX
  8
FOREGROUND
  6
CONTINUOUS
 10
0.858768
 20
0.078400
  0
VERTEX
  8
FOREGROUND
  6
CONTINUOUS
 10
0.870777
 20
0.076648
  0
VERTEX
  8
FOREGROUND
  6
CONTINUOUS
 10
0.882823
 20
0.074956
  0
VERTEX
  8
FOREGROUND
  6
CONTINUOUS
 10
0.894905
 20
0.073323
  0
VERTEX
  8
FOREGROUND
  6
CONTINUOUS
 10
0.907021
 20
0.071749
  0
VERTEX
  8
FOREGROUND
  6
CONTINUOUS
 10
0.919169
 20
0.070235
  0
VERTEX
  8
FOREGROUND
  6
CONTINUOUS
 10
0.931350
 20
0.068780
  0
VERTEX
  8
FOREGROUND
  6
CONTINUOUS
 10
0.943561
 20
0.067384
  0
VERTEX
  8
FOREGROUND
  6
CONTINUOUS
 10
0.955801
 20
0.066048
  0
VERTEX
  8
FOREGROUND
  6
CONTINUOUS
 10
0.968070
 20
0.064771
  0
VERTEX
  8
FOREGROUND
  6
CONTINUOUS
 10
0.980365
 20
0.063554
  0
VERTEX
  8
FOREGROUND
  6
CONTINUOUS
 10
0.992685
 20
0.062395
  0
VERTEX
  8
FOREGROUND
  6
CONTINUOUS
 10
1.005029
 20
0.061297
  0
VERTEX
  8
FOREGROUND
  6
CONTINUOUS
 10
1.017397
 20
0.060257
  0
VERTEX
  8
FOREGROUND
  6
CONTINUOUS
 10
1.029786
 20
0.059277
  0
VERTEX
  8
FOREGROUND
  6
CONTINUOUS
 10
1.042195
 20
0.058356
  0
VERTEX
  8
FOREGROUND
  6
CONTINUOUS
 10
1.054624
 20
0.057495
  0
VERTEX
  8
FOREGROUND
  6
CONTINUOUS
 10
1.067070
 20
0.056693
  0
VERTEX
  8
FOREGROUND
  6
CONTINUOUS
 10
1.079533
 20
0.055950
  0
VERTEX
  8
FOREGROUND
  6
CONTINUOUS
 10
1.092011
 20
0.055266
  0
VERTEX
  8
FOREGROUND
  6
CONTINUOUS
 10
1.104504
 20
0.054642
  0
VERTEX
  8
FOREGROUND
  6
CONTINUOUS
 10
1.117009
 20
0.054078
  0
VERTEX
  8
FOREGROUND
  6
CONTINUOUS
 10
1.129526
 20
0.053572
  0
VERTEX
  8
FOREGROUND
  6
CONTINUOUS
 10
1.142053
 20
0.053126
  0
VERTEX
  8
FOREGROUND
  6
CONTINUOUS
 10
1.154589
 20
0.052740
  0
VERTEX
  8
FOREGROUND
  6
CONTINUOUS
 10
1.167132
 20
0.052412
  0
VERTEX
  8
FOREGROUND
  6
CONTINUOUS
 10
1.179683
 20
0.052144
  0
VERTEX
  8
FOREGROUND
  6
CONTINUOUS
 10
1.192238
 20
0.051936
  0
VERTEX
  8
FOREGROUND
  6
CONTINUOUS
 10
1.204797
 20
0.051787
  0
VERTEX
  8
FOREGROUND
  6
CONTINUOUS
 10
1.217359
 20
0.051697
  0
VERTEX
  8
FOREGROUND
  6
CONTINUOUS
 10
1.229923
 20
0.051666
  0
VERTEX
  8
FOREGROUND
  6
CONTINUOUS
 10
1.242487
 20
0.051695
  0
VERTEX
  8
FOREGROUND
  6
CONTINUOUS
 10
1.255049
 20
0.051783
  0
VERTEX
  8
FOREGROUND
  6
CONTINUOUS
 10
1.267610
 20
0.051931
  0
VERTEX
  8
FOREGROUND
  6
CONTINUOUS
 10
1.280166
 20
0.052137
  0
VERTEX
  8
FOREGROUND
  6
CONTINUOUS
 10
1.292718
 20
0.052404
  0
VERTEX
  8
FOREGROUND
  6
CONTINUOUS
 10
1.305264
 20
0.052729
  0
VERTEX
  8
FOREGROUND
  6
CONTINUOUS
 10
1.317802
 20
0.053114
  0
VERTEX
  8
FOREGROUND
  6
CONTINUOUS
 10
1.330332
 20
0.053558
  0
VERTEX
  8
FOREGROUND
  6
CONTINUOUS
 10
1.342851
 20
0.054062
  0
VERTEX
  8
FOREGROUND
  6
CONTINUOUS
 10
1.355360
 20
0.054625
  0
VERTEX
  8
FOREGROUND
  6
CONTINUOUS
 10
1.367856
 20
0.055247
  0
VERTEX
  8
FOREGROUND
  6
CONTINUOUS
 10
1.380338
 20
0.055929
  0
VERTEX
  8
FOREGROUND
  6
CONTINUOUS
 10
1.392806
 20
0.056670
  0
VERTEX
  8
FOREGROUND
  6
CONTINUOUS
 10
1.405257
 20
0.057470
  0
VERTEX
  8
FOREGROUND
  6
CONTINUOUS
 10
1.417690
 20
0.058330
  0
VERTEX
  8
FOREGROUND
  6
CONTINUOUS
 10
1.430105
 20
0.059249
  0
VERTEX
  8
FOREGROUND
  6
CONTINUOUS
 10
1.442500
 20
0.060228
  0
VERTEX
  8
FOREGROUND
  6
CONTINUOUS
 10
1.454873
 20
0.061265
  0
VERTEX
  8
FOREGROUND
  6
CONTINUOUS
 10
1.467224
 20
0.062362
  0
VERTEX
  8
FOREGROUND
  6
CONTINUOUS
 10
1.479552
 20
0.063519
  0
VERTEX
  8
FOREGROUND
  6
CONTINUOUS
 10
1.491854
 20
0.064735
  0
VERTEX
  8
FOREGROUND
  6
CONTINUOUS
 10
1.504130
 20
0.066010
  0
VERTEX
  8
FOREGROUND
  6
CONTINUOUS
 10
1.516378
 20
0.067344
  0
VERTEX
  8
FOREGROUND
  6
CONTINUOUS
 10
1.528597
 20
0.068738
  0
VERTEX
  8
FOREGROUND
  6
CONTINUOUS
 10
1.540786
 20
0.070192
  0
VERTEX
  8
FOREGROUND
  6
CONTINUOUS
 10
1.552944
 20
0.071704
  0
VERTEX
  8
FOREGROUND
  6
CONTINUOUS
 10
1.565069
 20
0.073276
  0
VERTEX
  8
FOREGROUND
  6
CONTINUOUS
 10
1.577160
 20
0.074907
  0
VERTEX
  8
FOREGROUND
  6
CONTINUOUS
 10
1.589216
 20
0.076598
  0
VERTEX
  8
FOREGROUND
  6
CONTINUOUS
 10
1.601236
 20
0.078348
  0
VERTEX
  8
FOREGROUND
  6
CONTINUOUS
 10
1.613218
 20
0.080157
  0
VERTEX
  8
FOREGROUND
  6
CONTINUOUS
 10
1.625161
 20
0.082026
  0
VERTEX
  8
FOREGROUND
  6
CONTINUOUS
 10
1.637064
 20
0.083954
  0
VERTEX
  8
FOREGROUND
  6
CONTINUOUS
 10
1.648925
 20
0.085942
  0
VERTEX
  8
FOREGROUND
  6
CONTINUOUS
 10
1.660743
 20
0.087988
  0
VERTEX
  8
FOREGROUND
  6
CONTINUOUS
 10
1.672518
 20
0.090095
  0
VERTEX
  8
FOREGROUND
  6
CONTINUOUS
 10
1.684247
 20
0.092260
  0
VERTEX
  8
FOREGROUND
  6
CONTINUOUS
 10
1.695930
 20
0.094485
  0
VERTEX
  8
FOREGROUND
  6
CONTINUOUS
 10
1.707565
 20
0.096769
  0
VERTEX
  8
FOREGROUND
  6
CONTINUOUS
 10
1.719151
 20
0.099113
  0
VERTEX
  8
FOREGROUND
  6
CONTINUOUS
 10
1.730686
 20
0.101515
  0
VERTEX
  8
FOREGROUND
  6
CONTINUOUS
 10
1.742170
 20
0.103978
  0
VERTEX
  8
FOREGROUND
  6
CONTINUOUS
 10
1.753601
 20
0.106499
  0
VERTEX
  8
FOREGROUND
  6
CONTINUOUS
 10
1.764978
 20
0.109080
  0
VERTEX
  8
FOREGROUND
  6
CONTINUOUS
 10
1.776300
 20
0.111721
  0
VERTEX
  8
FOREGROUND
  6
CONTINUOUS
 10
1.787565
 20
0.114420
  0
VERTEX
  8
FOREGROUND
  6
CONTINUOUS
 10
1.798772
 20
0.117179
  0
VERTEX
  8
FOREGROUND
  6
CONTINUOUS
 10
1.809919
 20
0.119998
  0
VERTEX
  8
FOREGROUND
  6
CONTINUOUS
 10
1.821007
 20
0.122875
  0
VERTEX
  8
FOREGROUND
  6
CONTINUOUS
 10
1.832033
 20
0.125812
  0
VERTEX
  8
FOREGROUND
  6
CONTINUOUS
 10
1.842995
 20
0.128809
  0
VERTEX
  8
FOREGROUND
  6
CONTINUOUS
 10
1.853894
 20
0.131865
  0
VERTEX
  8
FOREGROUND
  6
CONTINUOUS
 10
1.864727
 20
0.134980
  0
VERTEX
  8
FOREGROUND
  6
CONTINUOUS
 10
1.875494
 20
0.138154
  0
VERTEX
  8
FOREGROUND
  6
CONTINUOUS
 10
1.886192
 20
0.141388
  0
VERTEX
  8
FOREGROUND
  6
CONTINUOUS
 10
1.896821
 20
0.144681
  0
VERTEX
  8
FOREGROUND
  6
CONTINUOUS
 10
1.907380
 20
0.148034
  0
VERTEX
  8
FOREGROUND
  6
CONTINUOUS
 10
1.917867
 20
0.151446
  0
VERTEX
  8
FOREGROUND
  6
CONTINUOUS
 10
1.928280
 20
0.154917
  0
VERTEX
  8
FOREGROUND
  6
CONTINUOUS
 10
1.938620
 20
0.158448
  0
VERTEX
  8
FOREGROUND
  6
CONTINUOUS
 10
1.948884
 20
0.162038
  0
VERTEX
  8
FOREGROUND
  6
CONTINUOUS
 10
1.959071
 20
0.165687
  0
VERTEX
  8
FOREGROUND
  6
CONTINUOUS
 10
1.969180
 20
0.169396
  0
VERTEX
  8
FOREGROUND
  6
CONTINUOUS
 10
1.979209
 20
0.173164
  0
VERTEX
  8
FOREGROUND
  6
CONTINUOUS
 10
1.989158
 20
0.176991
  0
VERTEX
  8
FOREGROUND
  6
CONTINUOUS
 10
1.999026
 20
0.180878
  0
VERTEX
  8
FOREGROUND
  6
CONTINUOUS
 10
2.008809
 20
0.184824
  0
VERTEX
  8
FOREGROUND
  6
CONTINUOUS
 10
2.018509
 20
0.188830
  0
VERTEX
  8
FOREGROUND
  6
CONTINUOUS
 10
2.028123
 20
0.192895
  0
VERTEX
  8
FOREGROUND
  6
CONTINUOUS
 10
2.037650
 20
0.197019
  0
VERTEX
  8
FOREGROUND
  6
CONTINUOUS
 10
2.047088
 20
0.201202
  0
VERTEX
  8
FOREGROUND
  6
CONTINUOUS
 10
2.056438
 20
0.205445
  0
VERTEX
  8
FOREGROUND
  6
CONTINUOUS
 10
2.065696
 20
0.209747
  0
VERTEX
  8
FOREGROUND
  6
CONTINUOUS
 10
2.074863
 20
0.214109
  0
VERTEX
  8
FOREGROUND
  6
CONTINUOUS
 10
2.083936
 20
0.218530
  0
VERTEX
  8
FOREGROUND
  6
CONTINUOUS
 10
2.092915
 20
0.223010
  0
VERTEX
  8
FOREGROUND
  6
CONTINUOUS
 10
2.101798
 20
0.227550
  0
VERTEX
  8
FOREGROUND
  6
CONTINUOUS
 10
2.110584
 20
0.232149
  0
VERTEX
  8
FOREGROUND
  6
CONTINUOUS
 10
2.119272
 20
0.236808
  0
VERTEX
  8
FOREGROUND
  6
CONTINUOUS
 10
2.127860
 20
0.241525
  0
VERTEX
  8
FOREGROUND
  6
CONTINUOUS
 10
2.136347
 20
0.246302
  0
VERTEX
  8
FOREGROUND
  6
CONTINUOUS
 10
2.144732
 20
0.251139
  0
VERTEX
  8
FOREGROUND
  6
CONTINUOUS
 10
2.153014
 20
0.256035
  0
VERTEX
  8
FOREGROUND
  6
CONTINUOUS
 10
2.161191
 20
0.260990
  0
VERTEX
  8
FOREGROUND
  6
CONTINUOUS
 10
2.169263
 20
0.266005
  0
VERTEX
  8
FOREGROUND
  6
CONTINUOUS
 10
2.177227
 20
0.271078
  0
VERTEX
  8
FOREGROUND
  6
CONTINUOUS
 10
2.185083
 20
0.276212
  0
VERTEX
  8
FOREGROUND
  6
CONTINUOUS
 10
2.192829
 20
0.281404
  0
VERTEX
  8
FOREGROUND
  6
CONTINUOUS
 10
2.200464
 20
0.286656
  0
VERTEX
  8
FOREGROUND
  6
CONTINUOUS
 10
2.207987
 20
0.291968
  0
VERTEX
  8
FOREGROUND
  6
CONTINUOUS
 10
2.215397
 20
0.297338
  0
VERTEX
  8
FOREGROUND
  6
CONTINUOUS
 10
2.222692
 20
0.302768
  0
VERTEX
  8
FOREGROUND
  6
CONTINUOUS
 10
2.229871
 20
0.308258
  0
VERTEX
  8
FOREGROUND
  6
CONTINUOUS
 10
2.236933
 20
0.313807
  0
VERTEX
  8
FOREGROUND
  6
CONTINUOUS
 10
2.243876
 20
0.319415
  0
VERTEX
  8
FOREGROUND
  6
CONTINUOUS
 10
2.250699
 20
0.325082
  0
VERTEX
  8
FOREGROUND
  6
CONTINUOUS
 10
2.257402
 20
0.330809
  0
VERTEX
  8
FOREGROUND
  6
CONTINUOUS
 10
2.263982
 20
0.336595
  0
VERTEX
  8
FOREGROUND
  6
CONTINUOUS
 10
2.270439
 20
0.342441
  0
VERTEX
  8
FOREGROUND
  6
CONTINUOUS
 10
2.276770
 20
0.348346
  0
VERTEX
  8
FOREGROUND
  6
CONTINUOUS
 10
2.282976
 20
0.354310
  0
VERTEX
  8
FOREGROUND
  6
CONTINUOUS
 10
2.289054
 20
0.360334
  0
VERTEX
  8
FOREGROUND
  6
CONTINUOUS
 10
2.295004
 20
0.366417
  0
VERTEX
  8
FOREGROUND
  6
CONTINUOUS
 10
2.300824
 20
0.372559
  0
VERTEX
  8
FOREGROUND
  6
CONTINUOUS
 10
2.306513
 20
0.378761
  0
VERTEX
  8
FOREGROUND
  6
CONTINUOUS
 10
2.312069
 20
0.385022
  0
VERTEX
  8
FOREGROUND
  6
CONTINUOUS
 10
2.317492
 20
0.391342
  0
VERTEX
  8
FOREGROUND
  6
CONTINUOUS
 10
2.322780
 20
0.397722
  0
VERTEX
  8
FOREGROUND
  6
CONTINUOUS
 10
2.327932
 20
0.404161
  0
VERTEX
  8
FOREGROUND
  6
CONTINUOUS
 10
2.332946
 20
0.410660
  0
VERTEX
  8
FOREGROUND
  6
CONTINUOUS
 10
2.337821
 20
0.417218
  0
VERTEX
  8
FOREGROUND
  6
CONTINUOUS
 10
2.342557
 20
0.423835
  0
VERTEX
  8
FOREGROUND
  6
CONTINUOUS
 10
2.347151
 20
0.430512
  0
VERTEX
  8
FOREGROUND
  6
CONTINUOUS
 10
2.351603
 20
0.437248
  0
VERTEX
  8
FOREGROUND
  6
CONTINUOUS
 10
2.355911
 20
0.444043
  0
VERTEX
  8
FOREGROUND
  6
CONTINUOUS
 10
2.360075
 20
0.450898
  0
VERTEX
  8
FOREGROUND
  6
CONTINUOUS
 10
2.364091
 20
0.457812
  0
VERTEX
  8
FOREGROUND
  6
CONTINUOUS
 10
2.367961
 20
0.464785
  0
VERTEX
  8
FOREGROUND
  6
CONTINUOUS
 10
2.371681
 20
0.471818
  0
VERTEX
  8
FOREGROUND
  6
CONTINUOUS
 10
2.375252
 20
0.478910
  0
VERTEX
  8
FOREGROUND
  6
CONTINUOUS
 10
2.378671
 20
0.486062
  0
VERTEX
  8
FOREGROUND
  6
CONTINUOUS
 10
2.381937
 20
0.493272
  0
VERTEX
  8
FOREGROUND
  6
CONTINUOUS
 10
2.385050
 20
0.500543
  0
VERTEX
  8
FOREGROUND
  6
CONTINUOUS
 10
2.388008
 20
0.507872
  0
VERTEX
  8
FOREGROUND
  6
CONTINUOUS
 10
2.390809
 20
0.515261
  0
VERTEX
  8
FOREGROUND
  6
CONTINUOUS
 10
2.393453
 20
0.522709
  0
VERTEX
  8
FOREGROUND
  6
CONTINUOUS
 10
2.395937
 20
0.530217
  0
VERTEX
  8
FOREGROUND
  6
CONTINUOUS
 10
2.398262
 20
0.537784
  0
VERTEX
  8
FOREGROUND
  6
CONTINUOUS
 10
2.400425
 20
0.545410
  0
VERTEX
  8
FOREGROUND
  6
CONTINUOUS
 10
2.402425
 20
0.553096
  0
VERTEX
  8
FOREGROUND
  6
CONTINUOUS
 10
2.404262
 20
0.560841
  0
VERTEX
  8
FOREGROUND
  6
CONTINUOUS
 10
2.405933
 20
0.568646
  0
VERTEX
  8
FOREGROUND
  6
CONTINUOUS
 10
2.407438
 20
0.576510
  0
VERTEX
  8
FOREGROUND
  6
CONTINUOUS
 10
2.408775
 20
0.584433
  0
VERTEX
  8
FOREGROUND
  6
CONTINUOUS
 10
2.409943
 20
0.592415
  0
VERTEX
  8
FOREGROUND
  6
CONTINUOUS
 10
2.410941
 20
0.600457
  0
VERTEX
  8
FOREGROUND
  6
CONTINUOUS
 10
2.411767
 20
0.608559
  0
VERTEX
  8
FOREGROUND
  6
CONTINUOUS
 10
2.412420
 20
0.616719
  0
VERTEX
  8
FOREGROUND
  6
CONTINUOUS
 10
2.412900
 20
0.624939
  0
VERTEX
  8
FOREGROUND
  6
CONTINUOUS
 10
2.413204
 20
0.633219
  0
VERTEX
  8
FOREGROUND
  6
CONTINUOUS
 10
2.413332
 20
0.641557
  0
SEQEND
  8
0
  0
ENDSEC
  0
EOF
