  0
SECTION
  2
HEADER
  9
$ACADVER
  1
AC1006
  9
$EXTMIN
 10
0.000000
 20
0.000000
  9
$EXTMAX
 10
2.463333
 20
1.675000
  9
$LTSCALE
 40
0.166667
  9
$PDMODE
 70
    35
  9
$PDSIZE
 40
0.133333
  0
ENDSEC
  0
SECTION
  2
TABLES
  0
TABLE
  2
LTYPE
 70
     9
  0
LTYPE
  2
CONTINUOUS
 70
    64
  3
Solid line
 72
    65
 73
     0
 40
0.000000
  0
LTYPE
  2
DASHED
 70
    64
  3
__ __ __ __ __ __ __ __ __ __ __ __ __ __ __
 72
    65
 73
     2
 40
0.001250
 49
0.000833
 49
-0.000417
  0
LTYPE
  2
HIDDEN
 70
    64
  3
 _ _ _ _ _ _ _ _ _ _ _ _ _ _ _ _ _ _ _ _ _ _
 72
    65
 73
     2
 40
0.000625
 49
0.000417
 49
-0.000208
  0
LTYPE
  2
CENTER
 70
    64
  3
____ _ ____ _ ____ _ ____ _ ____ _ ____ _ ____
 72
    65
 73
     4
 40
0.003333
 49
0.002083
 49
-0.000417
 49
0.000417
 49
-0.000417
  0
LTYPE
  2
PHANTOM
 70
    64
  3
_____ _ _ _____ _ _ _____ _ _ _____ _ _ ____
 72
    65
 73
     6
 40
0.004167
 49
0.002083
 49
-0.000417
 49
0.000417
 49
-0.000417
 49
0.000417
 49
-0.000417
  0
LTYPE
  2
DOT
 70
    64
  3
...............................................
 72
    65
 73
     2
 40
0.000417
 49
0.000000
 49
-0.000417
  0
LTYPE
  2
DASHDOT
 70
    64
  3
__ . __ . __ . __ . __ . __ . __ . __ . __ . __
 72
    65
 73
     4
 40
0.001667
 49
0.000833
 49
-0.000417
 49
0.000000
 49
-0.000417
  0
LTYPE
  2
BORDER
 70
    64
  3
__ __ . __ __ . __ __ . __ __ . __ __ . __ __
 72
    65
 73
     6
 40
0.002917
 49
0.000833
 49
-0.000417
 49
0.000833
 49
-0.000417
 49
0.000000
 49
-0.000417
  0
LTYPE
  2
DIVIDE
 70
    64
  3
__ . . __ . . __ . . __ . . __ . . __ . . __
 72
    65
 73
     6
 40
0.002083
 49
0.000833
 49
-0.000417
 49
0.000000
 49
-0.000417
 49
0.000000
 49
-0.000417
  0
LTYPE
  2
DOTDOT
 70
    64
  3
 . .  . .  . .  . .  . .  . . 
 72
    65
 73
     5
 40
0.000917
 49
-0.000417
 49
0.000000
 49
-0.000417
 49
0.000000
 49
-0.000417
  0
ENDTAB
  0
TABLE
  2
STYLE
 70
     2
  0
STYLE
 70
     0
  2
SN0
 40
0.000000
 41
0.001667
 50
0.000000
 71
     0
 42
0.000000
  3
ROMAND
  0
STYLE
 70
    68
  2
SV0
 40
0.000000
 41
0.001667
 50
0.000000
 71
     0
 42
0.000000
  3
ROMAND
  0
ENDTAB
  0
TABLE
  2
LAYER
 70
     2
  0
LAYER
  2
FOREGROUND
 70
    64
 62
     7
  6
CONTINUOUS
  0
LAYER
  2
BACKGROUND
 70
    65
 62
    -7
  6
CONTINUOUS
  0
ENDTAB
  0
ENDSEC
  0
SECTION
  2
ENTITIES
  0
POLYLINE
  8
FOREGROUND
  6
CONTINUOUS
 66
     1
 40
0.010000
 41
0.010000
 70
     1
  0
VERTEX
  8
FOREGROUND
  6
CONTINUOUS
 10
2.413333
 20
0.838333
  0
VERTEX
  8
FOREGROUND
  6
CONTINUOUS
 10
2.413252
 20
0.848857
  0
VERTEX
  8
FOREGROUND
  6
CONTINUOUS
 10
2.413014
 20
0.859309
  0
VERTEX
  8
FOREGROUND
  6
CONTINUOUS
 10
2.412617
 20
0.869691
  0
VERTEX
  8
FOREGROUND
  6
CONTINUOUS
 10
2.412065
 20
0.880002
  0
VERTEX
  8
FOREGROUND
  6
CONTINUOUS
 10
2.411357
 20
0.890242
  0
VERTEX
  8
FOREGROUND
  6
CONTINUOUS
 10
2.410495
 20
0.900411
  0
VERTEX
  8
FOREGROUND
  6
CONTINUOUS
 10
2.409480
 20
0.910509
  0
VERTEX
  8
FOREGROUND
  6
CONTINUOUS
 10
2.408314
 20
0.920536
  0
VERTEX
  8
FOREGROUND
  6
CONTINUOUS
 10
2.406996
 20
0.930493
  0
VERTEX
  8
FOREGROUND
  6
CONTINUOUS
 10
2.405528
 20
0.940378
  0
VERTEX
  8
FOREGROUND
  6
CONTINUOUS
 10
2.403912
 20
0.950193
  0
VERTEX
  8
FOREGROUND
  6
CONTINUOUS
 10
2.402147
 20
0.959937
  0
VERTEX
  8
FOREGROUND
  6
CONTINUOUS
 10
2.400236
 20
0.969610
  0
VERTEX
  8
FOREGROUND
  6
CONTINUOUS
 10
2.398180
 20
0.979212
  0
VERTEX
  8
FOREGROUND
  6
CONTINUOUS
 10
2.395979
 20
0.988744
  0
VERTEX
  8
FOREGROUND
  6
CONTINUOUS
 10
2.393635
 20
0.998204
  0
VERTEX
  8
FOREGROUND
  6
CONTINUOUS
 10
2.391148
 20
1.007594
  0
VERTEX
  8
FOREGROUND
  6
CONTINUOUS
 10
2.388520
 20
1.016912
  0
VERTEX
  8
FOREGROUND
  6
CONTINUOUS
 10
2.385751
 20
1.026160
  0
VERTEX
  8
FOREGROUND
  6
CONTINUOUS
 10
2.382844
 20
1.035337
  0
VERTEX
  8
FOREGROUND
  6
CONTINUOUS
 10
2.379798
 20
1.044443
  0
VERTEX
  8
FOREGROUND
  6
CONTINUOUS
 10
2.376616
 20
1.053479
  0
VERTEX
  8
FOREGROUND
  6
CONTINUOUS
 10
2.373297
 20
1.062443
  0
VERTEX
  8
FOREGROUND
  6
CONTINUOUS
 10
2.369844
 20
1.071337
  0
VERTEX
  8
FOREGROUND
  6
CONTINUOUS
 10
2.366257
 20
1.080160
  0
VERTEX
  8
FOREGROUND
  6
CONTINUOUS
 10
2.362537
 20
1.088911
  0
VERTEX
  8
FOREGROUND
  6
CONTINUOUS
 10
2.358685
 20
1.097592
  0
VERTEX
  8
FOREGROUND
  6
CONTINUOUS
 10
2.354703
 20
1.106203
  0
VERTEX
  8
FOREGROUND
  6
CONTINUOUS
 10
2.350591
 20
1.114742
  0
VERTEX
  8
FOREGROUND
  6
CONTINUOUS
 10
2.346350
 20
1.123210
  0
VERTEX
  8
FOREGROUND
  6
CONTINUOUS
 10
2.341983
 20
1.131608
  0
VERTEX
  8
FOREGROUND
  6
CONTINUOUS
 10
2.337489
 20
1.139935
  0
VERTEX
  8
FOREGROUND
  6
CONTINUOUS
 10
2.332869
 20
1.148190
  0
VERTEX
  8
FOREGROUND
  6
CONTINUOUS
 10
2.328126
 20
1.156375
  0
VERTEX
  8
FOREGROUND
  6
CONTINUOUS
 10
2.323259
 20
1.164490
  0
VERTEX
  8
FOREGROUND
  6
CONTINUOUS
 10
2.318271
 20
1.172533
  0
VERTEX
  8
FOREGROUND
  6
CONTINUOUS
 10
2.313161
 20
1.180505
  0
VERTEX
  8
FOREGROUND
  6
CONTINUOUS
 10
2.307932
 20
1.188407
  0
VERTEX
  8
FOREGROUND
  6
CONTINUOUS
 10
2.302583
 20
1.196237
  0
VERTEX
  8
FOREGROUND
  6
CONTINUOUS
 10
2.297117
 20
1.203997
  0
VERTEX
  8
FOREGROUND
  6
CONTINUOUS
 10
2.291534
 20
1.211686
  0
VERTEX
  8
FOREGROUND
  6
CONTINUOUS
 10
2.285836
 20
1.219304
  0
VERTEX
  8
FOREGROUND
  6
CONTINUOUS
 10
2.280023
 20
1.226852
  0
VERTEX
  8
FOREGROUND
  6
CONTINUOUS
 10
2.274096
 20
1.234328
  0
VERTEX
  8
FOREGROUND
  6
CONTINUOUS
 10
2.268057
 20
1.241733
  0
VERTEX
  8
FOREGROUND
  6
CONTINUOUS
 10
2.261907
 20
1.249068
  0
VERTEX
  8
FOREGROUND
  6
CONTINUOUS
 10
2.255647
 20
1.256332
  0
VERTEX
  8
FOREGROUND
  6
CONTINUOUS
 10
2.249277
 20
1.263525
  0
VERTEX
  8
FOREGROUND
  6
CONTINUOUS
 10
2.242799
 20
1.270647
  0
VERTEX
  8
FOREGROUND
  6
CONTINUOUS
 10
2.236214
 20
1.277698
  0
VERTEX
  8
FOREGROUND
  6
CONTINUOUS
 10
2.229523
 20
1.284678
  0
VERTEX
  8
FOREGROUND
  6
CONTINUOUS
 10
2.222727
 20
1.291588
  0
VERTEX
  8
FOREGROUND
  6
CONTINUOUS
 10
2.215827
 20
1.298427
  0
VERTEX
  8
FOREGROUND
  6
CONTINUOUS
 10
2.208825
 20
1.305194
  0
VERTEX
  8
FOREGROUND
  6
CONTINUOUS
 10
2.201721
 20
1.311891
  0
VERTEX
  8
FOREGROUND
  6
CONTINUOUS
 10
2.194516
 20
1.318517
  0
VERTEX
  8
FOREGROUND
  6
CONTINUOUS
 10
2.187211
 20
1.325072
  0
VERTEX
  8
FOREGROUND
  6
CONTINUOUS
 10
2.179808
 20
1.331557
  0
VERTEX
  8
FOREGROUND
  6
CONTINUOUS
 10
2.172308
 20
1.337970
  0
VERTEX
  8
FOREGROUND
  6
CONTINUOUS
 10
2.164711
 20
1.344313
  0
VERTEX
  8
FOREGROUND
  6
CONTINUOUS
 10
2.157019
 20
1.350585
  0
VERTEX
  8
FOREGROUND
  6
CONTINUOUS
 10
2.149233
 20
1.356785
  0
VERTEX
  8
FOREGROUND
  6
CONTINUOUS
 10
2.141353
 20
1.362916
  0
VERTEX
  8
FOREGROUND
  6
CONTINUOUS
 10
2.133381
 20
1.368975
  0
VERTEX
  8
FOREGROUND
  6
CONTINUOUS
 10
2.125319
 20
1.374963
  0
VERTEX
  8
FOREGROUND
  6
CONTINUOUS
 10
2.117166
 20
1.380880
  0
VERTEX
  8
FOREGROUND
  6
CONTINUOUS
 10
2.108925
 20
1.386727
  0
VERTEX
  8
FOREGROUND
  6
CONTINUOUS
 10
2.100595
 20
1.392503
  0
VERTEX
  8
FOREGROUND
  6
CONTINUOUS
 10
2.092179
 20
1.398207
  0
VERTEX
  8
FOREGROUND
  6
CONTINUOUS
 10
2.083678
 20
1.403841
  0
VERTEX
  8
FOREGROUND
  6
CONTINUOUS
 10
2.075092
 20
1.409405
  0
VERTEX
  8
FOREGROUND
  6
CONTINUOUS
 10
2.066422
 20
1.414897
  0
VERTEX
  8
FOREGROUND
  6
CONTINUOUS
 10
2.057669
 20
1.420318
  0
VERTEX
  8
FOREGROUND
  6
CONTINUOUS
 10
2.048836
 20
1.425669
  0
VERTEX
  8
FOREGROUND
  6
CONTINUOUS
 10
2.039922
 20
1.430948
  0
VERTEX
  8
FOREGROUND
  6
CONTINUOUS
 10
2.030928
 20
1.436157
  0
VERTEX
  8
FOREGROUND
  6
CONTINUOUS
 10
2.021857
 20
1.441295
  0
VERTEX
  8
FOREGROUND
  6
CONTINUOUS
 10
2.012709
 20
1.446362
  0
VERTEX
  8
FOREGROUND
  6
CONTINUOUS
 10
2.003484
 20
1.451359
  0
VERTEX
  8
FOREGROUND
  6
CONTINUOUS
 10
1.994184
 20
1.456284
  0
VERTEX
  8
FOREGROUND
  6
CONTINUOUS
 10
1.984811
 20
1.461138
  0
VERTEX
  8
FOREGROUND
  6
CONTINUOUS
 10
1.975365
 20
1.465922
  0
VERTEX
  8
FOREGROUND
  6
CONTINUOUS
 10
1.965847
 20
1.470635
  0
VERTEX
  8
FOREGROUND
  6
CONTINUOUS
 10
1.956258
 20
1.475277
  0
VERTEX
  8
FOREGROUND
  6
CONTINUOUS
 10
1.946599
 20
1.479848
  0
VERTEX
  8
FOREGROUND
  6
CONTINUOUS
 10
1.936872
 20
1.484348
  0
VERTEX
  8
FOREGROUND
  6
CONTINUOUS
 10
1.927078
 20
1.488777
  0
VERTEX
  8
FOREGROUND
  6
CONTINUOUS
 10
1.917217
 20
1.493136
  0
VERTEX
  8
FOREGROUND
  6
CONTINUOUS
 10
1.907291
 20
1.497423
  0
VERTEX
  8
FOREGROUND
  6
CONTINUOUS
 10
1.897301
 20
1.501640
  0
VERTEX
  8
FOREGROUND
  6
CONTINUOUS
 10
1.887247
 20
1.505786
  0
VERTEX
  8
FOREGROUND
  6
CONTINUOUS
 10
1.877131
 20
1.509861
  0
VERTEX
  8
FOREGROUND
  6
CONTINUOUS
 10
1.866954
 20
1.513865
  0
VERTEX
  8
FOREGROUND
  6
CONTINUOUS
 10
1.856717
 20
1.517798
  0
VERTEX
  8
FOREGROUND
  6
CONTINUOUS
 10
1.846422
 20
1.521661
  0
VERTEX
  8
FOREGROUND
  6
CONTINUOUS
 10
1.836068
 20
1.525452
  0
VERTEX
  8
FOREGROUND
  6
CONTINUOUS
 10
1.825657
 20
1.529173
  0
VERTEX
  8
FOREGROUND
  6
CONTINUOUS
 10
1.815191
 20
1.532823
  0
VERTEX
  8
FOREGROUND
  6
CONTINUOUS
 10
1.804671
 20
1.536402
  0
VERTEX
  8
FOREGROUND
  6
CONTINUOUS
 10
1.794096
 20
1.539910
  0
VERTEX
  8
FOREGROUND
  6
CONTINUOUS
 10
1.783469
 20
1.543347
  0
VERTEX
  8
FOREGROUND
  6
CONTINUOUS
 10
1.772791
 20
1.546714
  0
VERTEX
  8
FOREGROUND
  6
CONTINUOUS
 10
1.762062
 20
1.550009
  0
VERTEX
  8
FOREGROUND
  6
CONTINUOUS
 10
1.751284
 20
1.553234
  0
VERTEX
  8
FOREGROUND
  6
CONTINUOUS
 10
1.740458
 20
1.556388
  0
VERTEX
  8
FOREGROUND
  6
CONTINUOUS
 10
1.729585
 20
1.559471
  0
VERTEX
  8
FOREGROUND
  6
CONTINUOUS
 10
1.718665
 20
1.562483
  0
VERTEX
  8
FOREGROUND
  6
CONTINUOUS
 10
1.707701
 20
1.565424
  0
VERTEX
  8
FOREGROUND
  6
CONTINUOUS
 10
1.696692
 20
1.568294
  0
VERTEX
  8
FOREGROUND
  6
CONTINUOUS
 10
1.685641
 20
1.571094
  0
VERTEX
  8
FOREGROUND
  6
CONTINUOUS
 10
1.674548
 20
1.573822
  0
VERTEX
  8
FOREGROUND
  6
CONTINUOUS
 10
1.663414
 20
1.576480
  0
VERTEX
  8
FOREGROUND
  6
CONTINUOUS
 10
1.652241
 20
1.579067
  0
VERTEX
  8
FOREGROUND
  6
CONTINUOUS
 10
1.641028
 20
1.581583
  0
VERTEX
  8
FOREGROUND
  6
CONTINUOUS
 10
1.629779
 20
1.584028
  0
VERTEX
  8
FOREGROUND
  6
CONTINUOUS
 10
1.618493
 20
1.586403
  0
VERTEX
  8
FOREGROUND
  6
CONTINUOUS
 10
1.607171
 20
1.588706
  0
VERTEX
  8
FOREGROUND
  6
CONTINUOUS
 10
1.595815
 20
1.590939
  0
VERTEX
  8
FOREGROUND
  6
CONTINUOUS
 10
1.584426
 20
1.593100
  0
VERTEX
  8
FOREGROUND
  6
CONTINUOUS
 10
1.573005
 20
1.595191
  0
VERTEX
  8
FOREGROUND
  6
CONTINUOUS
 10
1.561553
 20
1.597211
  0
VERTEX
  8
FOREGROUND
  6
CONTINUOUS
 10
1.550070
 20
1.599160
  0
VERTEX
  8
FOREGROUND
  6
CONTINUOUS
 10
1.538559
 20
1.601039
  0
VERTEX
  8
FOREGROUND
  6
CONTINUOUS
 10
1.527020
 20
1.602846
  0
VERTEX
  8
FOREGROUND
  6
CONTINUOUS
 10
1.515454
 20
1.604582
  0
VERTEX
  8
FOREGROUND
  6
CONTINUOUS
 10
1.503862
 20
1.606248
  0
VERTEX
  8
FOREGROUND
  6
CONTINUOUS
 10
1.492245
 20
1.607843
  0
VERTEX
  8
FOREGROUND
  6
CONTINUOUS
 10
1.480605
 20
1.609367
  0
VERTEX
  8
FOREGROUND
  6
CONTINUOUS
 10
1.468942
 20
1.610820
  0
VERTEX
  8
FOREGROUND
  6
CONTINUOUS
 10
1.457258
 20
1.612202
  0
VERTEX
  8
FOREGROUND
  6
CONTINUOUS
 10
1.445554
 20
1.613514
  0
VERTEX
  8
FOREGROUND
  6
CONTINUOUS
 10
1.433830
 20
1.614754
  0
VERTEX
  8
FOREGROUND
  6
CONTINUOUS
 10
1.422087
 20
1.615924
  0
VERTEX
  8
FOREGROUND
  6
CONTINUOUS
 10
1.410328
 20
1.617022
  0
VERTEX
  8
FOREGROUND
  6
CONTINUOUS
 10
1.398552
 20
1.618050
  0
VERTEX
  8
FOREGROUND
  6
CONTINUOUS
 10
1.386762
 20
1.619007
  0
VERTEX
  8
FOREGROUND
  6
CONTINUOUS
 10
1.374957
 20
1.619893
  0
VERTEX
  8
FOREGROUND
  6
CONTINUOUS
 10
1.363140
 20
1.620709
  0
VERTEX
  8
FOREGROUND
  6
CONTINUOUS
 10
1.351310
 20
1.621453
  0
VERTEX
  8
FOREGROUND
  6
CONTINUOUS
 10
1.339470
 20
1.622127
  0
VERTEX
  8
FOREGROUND
  6
CONTINUOUS
 10
1.327620
 20
1.622730
  0
VERTEX
  8
FOREGROUND
  6
CONTINUOUS
 10
1.315762
 20
1.623261
  0
VERTEX
  8
FOREGROUND
  6
CONTINUOUS
 10
1.303896
 20
1.623722
  0
VERTEX
  8
FOREGROUND
  6
CONTINUOUS
 10
1.292023
 20
1.624112
  0
VERTEX
  8
FOREGROUND
  6
CONTINUOUS
 10
1.280145
 20
1.624432
  0
VERTEX
  8
FOREGROUND
  6
CONTINUOUS
 10
1.268263
 20
1.624680
  0
VERTEX
  8
FOREGROUND
  6
CONTINUOUS
 10
1.256377
 20
1.624858
  0
VERTEX
  8
FOREGROUND
  6
CONTINUOUS
 10
1.244489
 20
1.624964
  0
VERTEX
  8
FOREGROUND
  6
CONTINUOUS
 10
1.232600
 20
1.625000
  0
VERTEX
  8
FOREGROUND
  6
CONTINUOUS
 10
1.220711
 20
1.624965
  0
VERTEX
  8
FOREGROUND
  6
CONTINUOUS
 10
1.208823
 20
1.624859
  0
VERTEX
  8
FOREGROUND
  6
CONTINUOUS
 10
1.196937
 20
1.624682
  0
VERTEX
  8
FOREGROUND
  6
CONTINUOUS
 10
1.185054
 20
1.624435
  0
VERTEX
  8
FOREGROUND
  6
CONTINUOUS
 10
1.173175
 20
1.624116
  0
VERTEX
  8
FOREGROUND
  6
CONTINUOUS
 10
1.161301
 20
1.623727
  0
VERTEX
  8
FOREGROUND
  6
CONTINUOUS
 10
1.149434
 20
1.623266
  0
VERTEX
  8
FOREGROUND
  6
CONTINUOUS
 10
1.137574
 20
1.622735
  0
VERTEX
  8
FOREGROUND
  6
CONTINUOUS
 10
1.125723
 20
1.622133
  0
VERTEX
  8
FOREGROUND
  6
CONTINUOUS
 10
1.113881
 20
1.621461
  0
VERTEX
  8
FOREGROUND
  6
CONTINUOUS
 10
1.102050
 20
1.620717
  0
VERTEX
  8
FOREGROUND
  6
CONTINUOUS
 10
1.090231
 20
1.619902
  0
VERTEX
  8
FOREGROUND
  6
CONTINUOUS
 10
1.078424
 20
1.619017
  0
VERTEX
  8
FOREGROUND
  6
CONTINUOUS
 10
1.066631
 20
1.618061
  0
VERTEX
  8
FOREGROUND
  6
CONTINUOUS
 10
1.054853
 20
1.617033
  0
VERTEX
  8
FOREGROUND
  6
CONTINUOUS
 10
1.043091
 20
1.615935
  0
VERTEX
  8
FOREGROUND
  6
CONTINUOUS
 10
1.031346
 20
1.614766
  0
VERTEX
  8
FOREGROUND
  6
CONTINUOUS
 10
1.019619
 20
1.613527
  0
VERTEX
  8
FOREGROUND
  6
CONTINUOUS
 10
1.007911
 20
1.612216
  0
VERTEX
  8
FOREGROUND
  6
CONTINUOUS
 10
0.996224
 20
1.610835
  0
VERTEX
  8
FOREGROUND
  6
CONTINUOUS
 10
0.984558
 20
1.609382
  0
VERTEX
  8
FOREGROUND
  6
CONTINUOUS
 10
0.972914
 20
1.607859
  0
VERTEX
  8
FOREGROUND
  6
CONTINUOUS
 10
0.961294
 20
1.606265
  0
VERTEX
  8
FOREGROUND
  6
CONTINUOUS
 10
0.949698
 20
1.604600
  0
VERTEX
  8
FOREGROUND
  6
CONTINUOUS
 10
0.938128
 20
1.602864
  0
VERTEX
  8
FOREGROUND
  6
CONTINUOUS
 10
0.926584
 20
1.601057
  0
VERTEX
  8
FOREGROUND
  6
CONTINUOUS
 10
0.915068
 20
1.599180
  0
VERTEX
  8
FOREGROUND
  6
CONTINUOUS
 10
0.903581
 20
1.597231
  0
VERTEX
  8
FOREGROUND
  6
CONTINUOUS
 10
0.892124
 20
1.595212
  0
VERTEX
  8
FOREGROUND
  6
CONTINUOUS
 10
0.880698
 20
1.593122
  0
VERTEX
  8
FOREGROUND
  6
CONTINUOUS
 10
0.869304
 20
1.590961
  0
VERTEX
  8
FOREGROUND
  6
CONTINUOUS
 10
0.857943
 20
1.588729
  0
VERTEX
  8
FOREGROUND
  6
CONTINUOUS
 10
0.846616
 20
1.586426
  0
VERTEX
  8
FOREGROUND
  6
CONTINUOUS
 10
0.835324
 20
1.584053
  0
VERTEX
  8
FOREGROUND
  6
CONTINUOUS
 10
0.824069
 20
1.581608
  0
VERTEX
  8
FOREGROUND
  6
CONTINUOUS
 10
0.812850
 20
1.579093
  0
VERTEX
  8
FOREGROUND
  6
CONTINUOUS
 10
0.801671
 20
1.576507
  0
VERTEX
  8
FOREGROUND
  6
CONTINUOUS
 10
0.790531
 20
1.573850
  0
VERTEX
  8
FOREGROUND
  6
CONTINUOUS
 10
0.779431
 20
1.571122
  0
VERTEX
  8
FOREGROUND
  6
CONTINUOUS
 10
0.768373
 20
1.568323
  0
VERTEX
  8
FOREGROUND
  6
CONTINUOUS
 10
0.757358
 20
1.565453
  0
VERTEX
  8
FOREGROUND
  6
CONTINUOUS
 10
0.746386
 20
1.562513
  0
VERTEX
  8
FOREGROUND
  6
CONTINUOUS
 10
0.735460
 20
1.559501
  0
VERTEX
  8
FOREGROUND
  6
CONTINUOUS
 10
0.724579
 20
1.556419
  0
VERTEX
  8
FOREGROUND
  6
CONTINUOUS
 10
0.713746
 20
1.553266
  0
VERTEX
  8
FOREGROUND
  6
CONTINUOUS
 10
0.702960
 20
1.550042
  0
VERTEX
  8
FOREGROUND
  6
CONTINUOUS
 10
0.692223
 20
1.546747
  0
VERTEX
  8
FOREGROUND
  6
CONTINUOUS
 10
0.681537
 20
1.543381
  0
VERTEX
  8
FOREGROUND
  6
CONTINUOUS
 10
0.670902
 20
1.539945
  0
VERTEX
  8
FOREGROUND
  6
CONTINUOUS
 10
0.660319
 20
1.536437
  0
VERTEX
  8
FOREGROUND
  6
CONTINUOUS
 10
0.649790
 20
1.532859
  0
VERTEX
  8
FOREGROUND
  6
CONTINUOUS
 10
0.639315
 20
1.529210
  0
VERTEX
  8
FOREGROUND
  6
CONTINUOUS
 10
0.628896
 20
1.525490
  0
VERTEX
  8
FOREGROUND
  6
CONTINUOUS
 10
0.618533
 20
1.521699
  0
VERTEX
  8
FOREGROUND
  6
CONTINUOUS
 10
0.608228
 20
1.517837
  0
VERTEX
  8
FOREGROUND
  6
CONTINUOUS
 10
0.597982
 20
1.513904
  0
VERTEX
  8
FOREGROUND
  6
CONTINUOUS
 10
0.587796
 20
1.509901
  0
VERTEX
  8
FOREGROUND
  6
CONTINUOUS
 10
0.577670
 20
1.505826
  0
VERTEX
  8
FOREGROUND
  6
CONTINUOUS
 10
0.567607
 20
1.501681
  0
VERTEX
  8
FOREGROUND
  6
CONTINUOUS
 10
0.557606
 20
1.497465
  0
VERTEX
  8
FOREGROUND
  6
CONTINUOUS
 10
0.547670
 20
1.493178
  0
VERTEX
  8
FOREGROUND
  6
CONTINUOUS
 10
0.537799
 20
1.488820
  0
VERTEX
  8
FOREGROUND
  6
CONTINUOUS
 10
0.527994
 20
1.484391
  0
VERTEX
  8
FOREGROUND
  6
CONTINUOUS
 10
0.518256
 20
1.479892
  0
VERTEX
  8
FOREGROUND
  6
CONTINUOUS
 10
0.508587
 20
1.475321
  0
VERTEX
  8
FOREGROUND
  6
CONTINUOUS
 10
0.498987
 20
1.470680
  0
VERTEX
  8
FOREGROUND
  6
CONTINUOUS
 10
0.489458
 20
1.465968
  0
VERTEX
  8
FOREGROUND
  6
CONTINUOUS
 10
0.480000
 20
1.461185
  0
VERTEX
  8
FOREGROUND
  6
CONTINUOUS
 10
0.470615
 20
1.456331
  0
VERTEX
  8
FOREGROUND
  6
CONTINUOUS
 10
0.461304
 20
1.451406
  0
VERTEX
  8
FOREGROUND
  6
CONTINUOUS
 10
0.452068
 20
1.446410
  0
VERTEX
  8
FOREGROUND
  6
CONTINUOUS
 10
0.442907
 20
1.441344
  0
VERTEX
  8
FOREGROUND
  6
CONTINUOUS
 10
0.433823
 20
1.436207
  0
VERTEX
  8
FOREGROUND
  6
CONTINUOUS
 10
0.424818
 20
1.430998
  0
VERTEX
  8
FOREGROUND
  6
CONTINUOUS
 10
0.415891
 20
1.425719
  0
VERTEX
  8
FOREGROUND
  6
CONTINUOUS
 10
0.407045
 20
1.420369
  0
VERTEX
  8
FOREGROUND
  6
CONTINUOUS
 10
0.398280
 20
1.414948
  0
VERTEX
  8
FOREGROUND
  6
CONTINUOUS
 10
0.389597
 20
1.409457
  0
VERTEX
  8
FOREGROUND
  6
CONTINUOUS
 10
0.380998
 20
1.403894
  0
VERTEX
  8
FOREGROUND
  6
CONTINUOUS
 10
0.372482
 20
1.398261
  0
VERTEX
  8
FOREGROUND
  6
CONTINUOUS
 10
0.364053
 20
1.392556
  0
VERTEX
  8
FOREGROUND
  6
CONTINUOUS
 10
0.355710
 20
1.386781
  0
VERTEX
  8
FOREGROUND
  6
CONTINUOUS
 10
0.347455
 20
1.380935
  0
VERTEX
  8
FOREGROUND
  6
CONTINUOUS
 10
0.339288
 20
1.375018
  0
VERTEX
  8
FOREGROUND
  6
CONTINUOUS
 10
0.331211
 20
1.369030
  0
VERTEX
  8
FOREGROUND
  6
CONTINUOUS
 10
0.323225
 20
1.362972
  0
VERTEX
  8
FOREGROUND
  6
CONTINUOUS
 10
0.315331
 20
1.356842
  0
VERTEX
  8
FOREGROUND
  6
CONTINUOUS
 10
0.307530
 20
1.350642
  0
VERTEX
  8
FOREGROUND
  6
CONTINUOUS
 10
0.299823
 20
1.344370
  0
VERTEX
  8
FOREGROUND
  6
CONTINUOUS
 10
0.292211
 20
1.338028
  0
VERTEX
  8
FOREGROUND
  6
CONTINUOUS
 10
0.284696
 20
1.331615
  0
VERTEX
  8
FOREGROUND
  6
CONTINUOUS
 10
0.277277
 20
1.325131
  0
VERTEX
  8
FOREGROUND
  6
CONTINUOUS
 10
0.269957
 20
1.318577
  0
VERTEX
  8
FOREGROUND
  6
CONTINUOUS
 10
0.262737
 20
1.311951
  0
VERTEX
  8
FOREGROUND
  6
CONTINUOUS
 10
0.255616
 20
1.305255
  0
VERTEX
  8
FOREGROUND
  6
CONTINUOUS
 10
0.248598
 20
1.298487
  0
VERTEX
  8
FOREGROUND
  6
CONTINUOUS
 10
0.241682
 20
1.291649
  0
VERTEX
  8
FOREGROUND
  6
CONTINUOUS
 10
0.234869
 20
1.284740
  0
VERTEX
  8
FOREGROUND
  6
CONTINUOUS
 10
0.228162
 20
1.277760
  0
VERTEX
  8
FOREGROUND
  6
CONTINUOUS
 10
0.221560
 20
1.270709
  0
VERTEX
  8
FOREGROUND
  6
CONTINUOUS
 10
0.215065
 20
1.263588
  0
VERTEX
  8
FOREGROUND
  6
CONTINUOUS
 10
0.208679
 20
1.256395
  0
VERTEX
  8
FOREGROUND
  6
CONTINUOUS
 10
0.202401
 20
1.249132
  0
VERTEX
  8
FOREGROUND
  6
CONTINUOUS
 10
0.196233
 20
1.241797
  0
VERTEX
  8
FOREGROUND
  6
CONTINUOUS
 10
0.190177
 20
1.234392
  0
VERTEX
  8
FOREGROUND
  6
CONTINUOUS
 10
0.184232
 20
1.226916
  0
VERTEX
  8
FOREGROUND
  6
CONTINUOUS
 10
0.178402
 20
1.219369
  0
VERTEX
  8
FOREGROUND
  6
CONTINUOUS
 10
0.172685
 20
1.211752
  0
VERTEX
  8
FOREGROUND
  6
CONTINUOUS
 10
0.167084
 20
1.204063
  0
VERTEX
  8
FOREGROUND
  6
CONTINUOUS
 10
0.161599
 20
1.196303
  0
VERTEX
  8
FOREGROUND
  6
CONTINUOUS
 10
0.156233
 20
1.188473
  0
VERTEX
  8
FOREGROUND
  6
CONTINUOUS
 10
0.150984
 20
1.180572
  0
VERTEX
  8
FOREGROUND
  6
CONTINUOUS
 10
0.145856
 20
1.172600
  0
VERTEX
  8
FOREGROUND
  6
CONTINUOUS
 10
0.140848
 20
1.164557
  0
VERTEX
  8
FOREGROUND
  6
CONTINUOUS
 10
0.135962
 20
1.156443
  0
VERTEX
  8
FOREGROUND
  6
CONTINUOUS
 10
0.131199
 20
1.148258
  0
VERTEX
  8
FOREGROUND
  6
CONTINUOUS
 10
0.126560
 20
1.140003
  0
VERTEX
  8
FOREGROUND
  6
CONTINUOUS
 10
0.122047
 20
1.131676
  0
VERTEX
  8
FOREGROUND
  6
CONTINUOUS
 10
0.117659
 20
1.123279
  0
VERTEX
  8
FOREGROUND
  6
CONTINUOUS
 10
0.113399
 20
1.114811
  0
VERTEX
  8
FOREGROUND
  6
CONTINUOUS
 10
0.109267
 20
1.106272
  0
VERTEX
  8
FOREGROUND
  6
CONTINUOUS
 10
0.105264
 20
1.097662
  0
VERTEX
  8
FOREGROUND
  6
CONTINUOUS
 10
0.101392
 20
1.088981
  0
VERTEX
  8
FOREGROUND
  6
CONTINUOUS
 10
0.097651
 20
1.080230
  0
VERTEX
  8
FOREGROUND
  6
CONTINUOUS
 10
0.094043
 20
1.071407
  0
VERTEX
  8
FOREGROUND
  6
CONTINUOUS
 10
0.090568
 20
1.062514
  0
VERTEX
  8
FOREGROUND
  6
CONTINUOUS
 10
0.087228
 20
1.053549
  0
VERTEX
  8
FOREGROUND
  6
CONTINUOUS
 10
0.084024
 20
1.044514
  0
VERTEX
  8
FOREGROUND
  6
CONTINUOUS
 10
0.080957
 20
1.035408
  0
VERTEX
  8
FOREGROUND
  6
CONTINUOUS
 10
0.078028
 20
1.026231
  0
VERTEX
  8
FOREGROUND
  6
CONTINUOUS
 10
0.075237
 20
1.016984
  0
VERTEX
  8
FOREGROUND
  6
CONTINUOUS
 10
0.072587
 20
1.007665
  0
VERTEX
  8
FOREGROUND
  6
CONTINUOUS
 10
0.070078
 20
0.998276
  0
VERTEX
  8
FOREGROUND
  6
CONTINUOUS
 10
0.067711
 20
0.988815
  0
VERTEX
  8
FOREGROUND
  6
CONTINUOUS
 10
0.065488
 20
0.979284
  0
VERTEX
  8
FOREGROUND
  6
CONTINUOUS
 10
0.063408
 20
0.969682
  0
VERTEX
  8
FOREGROUND
  6
CONTINUOUS
 10
0.061475
 20
0.960009
  0
VERTEX
  8
FOREGROUND
  6
CONTINUOUS
 10
0.059687
 20
0.950265
  0
VERTEX
  8
FOREGROUND
  6
CONTINUOUS
 10
0.058048
 20
0.940451
  0
VERTEX
  8
FOREGROUND
  6
CONTINUOUS
 10
0.056556
 20
0.930565
  0
VERTEX
  8
FOREGROUND
  6
CONTINUOUS
 10
0.055215
 20
0.920609
  0
VERTEX
  8
FOREGROUND
  6
CONTINUOUS
 10
0.054024
 20
0.910581
  0
VERTEX
  8
FOREGROUND
  6
CONTINUOUS
 10
0.052985
 20
0.900483
  0
VERTEX
  8
FOREGROUND
  6
CONTINUOUS
 10
0.052099
 20
0.890314
  0
VERTEX
  8
FOREGROUND
  6
CONTINUOUS
 10
0.051367
 20
0.880074
  0
VERTEX
  8
FOREGROUND
  6
CONTINUOUS
 10
0.050790
 20
0.869764
  0
VERTEX
  8
FOREGROUND
  6
CONTINUOUS
 10
0.050370
 20
0.859382
  0
VERTEX
  8
FOREGROUND
  6
CONTINUOUS
 10
0.050106
 20
0.848930
  0
VERTEX
  8
FOREGROUND
  6
CONTINUOUS
 10
0.050001
 20
0.838406
  0
VERTEX
  8
FOREGROUND
  6
CONTINUOUS
 10
0.050001
 20
0.838406
  0
VERTEX
  8
FOREGROUND
  6
CONTINUOUS
 10
0.050080
 20
0.827883
  0
VERTEX
  8
FOREGROUND
  6
CONTINUOUS
 10
0.050317
 20
0.817430
  0
VERTEX
  8
FOREGROUND
  6
CONTINUOUS
 10
0.050712
 20
0.807049
  0
VERTEX
  8
FOREGROUND
  6
CONTINUOUS
 10
0.051263
 20
0.796738
  0
VERTEX
  8
FOREGROUND
  6
CONTINUOUS
 10
0.051969
 20
0.786498
  0
VERTEX
  8
FOREGROUND
  6
CONTINUOUS
 10
0.052829
 20
0.776329
  0
VERTEX
  8
FOREGROUND
  6
CONTINUOUS
 10
0.053843
 20
0.766230
  0
VERTEX
  8
FOREGROUND
  6
CONTINUOUS
 10
0.055008
 20
0.756203
  0
VERTEX
  8
FOREGROUND
  6
CONTINUOUS
 10
0.056325
 20
0.746246
  0
VERTEX
  8
FOREGROUND
  6
CONTINUOUS
 10
0.057791
 20
0.736361
  0
VERTEX
  8
FOREGROUND
  6
CONTINUOUS
 10
0.059406
 20
0.726546
  0
VERTEX
  8
FOREGROUND
  6
CONTINUOUS
 10
0.061169
 20
0.716802
  0
VERTEX
  8
FOREGROUND
  6
CONTINUOUS
 10
0.063079
 20
0.707129
  0
VERTEX
  8
FOREGROUND
  6
CONTINUOUS
 10
0.065134
 20
0.697526
  0
VERTEX
  8
FOREGROUND
  6
CONTINUOUS
 10
0.067333
 20
0.687995
  0
VERTEX
  8
FOREGROUND
  6
CONTINUOUS
 10
0.069676
 20
0.678534
  0
VERTEX
  8
FOREGROUND
  6
CONTINUOUS
 10
0.072162
 20
0.669145
  0
VERTEX
  8
FOREGROUND
  6
CONTINUOUS
 10
0.074789
 20
0.659826
  0
VERTEX
  8
FOREGROUND
  6
CONTINUOUS
 10
0.077556
 20
0.650578
  0
VERTEX
  8
FOREGROUND
  6
CONTINUOUS
 10
0.080462
 20
0.641400
  0
VERTEX
  8
FOREGROUND
  6
CONTINUOUS
 10
0.083506
 20
0.632294
  0
VERTEX
  8
FOREGROUND
  6
CONTINUOUS
 10
0.086688
 20
0.623258
  0
VERTEX
  8
FOREGROUND
  6
CONTINUOUS
 10
0.090005
 20
0.614294
  0
VERTEX
  8
FOREGROUND
  6
CONTINUOUS
 10
0.093457
 20
0.605400
  0
VERTEX
  8
FOREGROUND
  6
CONTINUOUS
 10
0.097043
 20
0.596577
  0
VERTEX
  8
FOREGROUND
  6
CONTINUOUS
 10
0.100762
 20
0.587825
  0
VERTEX
  8
FOREGROUND
  6
CONTINUOUS
 10
0.104613
 20
0.579144
  0
VERTEX
  8
FOREGROUND
  6
CONTINUOUS
 10
0.108594
 20
0.570533
  0
VERTEX
  8
FOREGROUND
  6
CONTINUOUS
 10
0.112704
 20
0.561994
  0
VERTEX
  8
FOREGROUND
  6
CONTINUOUS
 10
0.116943
 20
0.553525
  0
VERTEX
  8
FOREGROUND
  6
CONTINUOUS
 10
0.121310
 20
0.545127
  0
VERTEX
  8
FOREGROUND
  6
CONTINUOUS
 10
0.125803
 20
0.536800
  0
VERTEX
  8
FOREGROUND
  6
CONTINUOUS
 10
0.130421
 20
0.528544
  0
VERTEX
  8
FOREGROUND
  6
CONTINUOUS
 10
0.135163
 20
0.520359
  0
VERTEX
  8
FOREGROUND
  6
CONTINUOUS
 10
0.140029
 20
0.512244
  0
VERTEX
  8
FOREGROUND
  6
CONTINUOUS
 10
0.145016
 20
0.504201
  0
VERTEX
  8
FOREGROUND
  6
CONTINUOUS
 10
0.150125
 20
0.496228
  0
VERTEX
  8
FOREGROUND
  6
CONTINUOUS
 10
0.155353
 20
0.488326
  0
VERTEX
  8
FOREGROUND
  6
CONTINUOUS
 10
0.160700
 20
0.480495
  0
VERTEX
  8
FOREGROUND
  6
CONTINUOUS
 10
0.166165
 20
0.472735
  0
VERTEX
  8
FOREGROUND
  6
CONTINUOUS
 10
0.171747
 20
0.465046
  0
VERTEX
  8
FOREGROUND
  6
CONTINUOUS
 10
0.177445
 20
0.457427
  0
VERTEX
  8
FOREGROUND
  6
CONTINUOUS
 10
0.183256
 20
0.449880
  0
VERTEX
  8
FOREGROUND
  6
CONTINUOUS
 10
0.189182
 20
0.442403
  0
VERTEX
  8
FOREGROUND
  6
CONTINUOUS
 10
0.195220
 20
0.434997
  0
VERTEX
  8
FOREGROUND
  6
CONTINUOUS
 10
0.201369
 20
0.427662
  0
VERTEX
  8
FOREGROUND
  6
CONTINUOUS
 10
0.207629
 20
0.420398
  0
VERTEX
  8
FOREGROUND
  6
CONTINUOUS
 10
0.213997
 20
0.413205
  0
VERTEX
  8
FOREGROUND
  6
CONTINUOUS
 10
0.220474
 20
0.406082
  0
VERTEX
  8
FOREGROUND
  6
CONTINUOUS
 10
0.227058
 20
0.399030
  0
VERTEX
  8
FOREGROUND
  6
CONTINUOUS
 10
0.233748
 20
0.392050
  0
VERTEX
  8
FOREGROUND
  6
CONTINUOUS
 10
0.240543
 20
0.385140
  0
VERTEX
  8
FOREGROUND
  6
CONTINUOUS
 10
0.247442
 20
0.378301
  0
VERTEX
  8
FOREGROUND
  6
CONTINUOUS
 10
0.254444
 20
0.371533
  0
VERTEX
  8
FOREGROUND
  6
CONTINUOUS
 10
0.261547
 20
0.364835
  0
VERTEX
  8
FOREGROUND
  6
CONTINUOUS
 10
0.268751
 20
0.358209
  0
VERTEX
  8
FOREGROUND
  6
CONTINUOUS
 10
0.276054
 20
0.351653
  0
VERTEX
  8
FOREGROUND
  6
CONTINUOUS
 10
0.283457
 20
0.345168
  0
VERTEX
  8
FOREGROUND
  6
CONTINUOUS
 10
0.290956
 20
0.338754
  0
VERTEX
  8
FOREGROUND
  6
CONTINUOUS
 10
0.298552
 20
0.332411
  0
VERTEX
  8
FOREGROUND
  6
CONTINUOUS
 10
0.306243
 20
0.326139
  0
VERTEX
  8
FOREGROUND
  6
CONTINUOUS
 10
0.314029
 20
0.319938
  0
VERTEX
  8
FOREGROUND
  6
CONTINUOUS
 10
0.321907
 20
0.313807
  0
VERTEX
  8
FOREGROUND
  6
CONTINUOUS
 10
0.329878
 20
0.307748
  0
VERTEX
  8
FOREGROUND
  6
CONTINUOUS
 10
0.337940
 20
0.301759
  0
VERTEX
  8
FOREGROUND
  6
CONTINUOUS
 10
0.346092
 20
0.295841
  0
VERTEX
  8
FOREGROUND
  6
CONTINUOUS
 10
0.354332
 20
0.289994
  0
VERTEX
  8
FOREGROUND
  6
CONTINUOUS
 10
0.362661
 20
0.284218
  0
VERTEX
  8
FOREGROUND
  6
CONTINUOUS
 10
0.371076
 20
0.278512
  0
VERTEX
  8
FOREGROUND
  6
CONTINUOUS
 10
0.379577
 20
0.272878
  0
VERTEX
  8
FOREGROUND
  6
CONTINUOUS
 10
0.388162
 20
0.267314
  0
VERTEX
  8
FOREGROUND
  6
CONTINUOUS
 10
0.396831
 20
0.261821
  0
VERTEX
  8
FOREGROUND
  6
CONTINUOUS
 10
0.405583
 20
0.256399
  0
VERTEX
  8
FOREGROUND
  6
CONTINUOUS
 10
0.414416
 20
0.251048
  0
VERTEX
  8
FOREGROUND
  6
CONTINUOUS
 10
0.423329
 20
0.245768
  0
VERTEX
  8
FOREGROUND
  6
CONTINUOUS
 10
0.432322
 20
0.240559
  0
VERTEX
  8
FOREGROUND
  6
CONTINUOUS
 10
0.441392
 20
0.235420
  0
VERTEX
  8
FOREGROUND
  6
CONTINUOUS
 10
0.450540
 20
0.230352
  0
VERTEX
  8
FOREGROUND
  6
CONTINUOUS
 10
0.459764
 20
0.225356
  0
VERTEX
  8
FOREGROUND
  6
CONTINUOUS
 10
0.469063
 20
0.220430
  0
VERTEX
  8
FOREGROUND
  6
CONTINUOUS
 10
0.478436
 20
0.215575
  0
VERTEX
  8
FOREGROUND
  6
CONTINUOUS
 10
0.487881
 20
0.210790
  0
VERTEX
  8
FOREGROUND
  6
CONTINUOUS
 10
0.497399
 20
0.206077
  0
VERTEX
  8
FOREGROUND
  6
CONTINUOUS
 10
0.506987
 20
0.201435
  0
VERTEX
  8
FOREGROUND
  6
CONTINUOUS
 10
0.516645
 20
0.196863
  0
VERTEX
  8
FOREGROUND
  6
CONTINUOUS
 10
0.526371
 20
0.192362
  0
VERTEX
  8
FOREGROUND
  6
CONTINUOUS
 10
0.536165
 20
0.187932
  0
VERTEX
  8
FOREGROUND
  6
CONTINUOUS
 10
0.546025
 20
0.183573
  0
VERTEX
  8
FOREGROUND
  6
CONTINUOUS
 10
0.555951
 20
0.179285
  0
VERTEX
  8
FOREGROUND
  6
CONTINUOUS
 10
0.565941
 20
0.175068
  0
VERTEX
  8
FOREGROUND
  6
CONTINUOUS
 10
0.575994
 20
0.170921
  0
VERTEX
  8
FOREGROUND
  6
CONTINUOUS
 10
0.586109
 20
0.166845
  0
VERTEX
  8
FOREGROUND
  6
CONTINUOUS
 10
0.596285
 20
0.162841
  0
VERTEX
  8
FOREGROUND
  6
CONTINUOUS
 10
0.606521
 20
0.158907
  0
VERTEX
  8
FOREGROUND
  6
CONTINUOUS
 10
0.616817
 20
0.155044
  0
VERTEX
  8
FOREGROUND
  6
CONTINUOUS
 10
0.627170
 20
0.151251
  0
VERTEX
  8
FOREGROUND
  6
CONTINUOUS
 10
0.637580
 20
0.147530
  0
VERTEX
  8
FOREGROUND
  6
CONTINUOUS
 10
0.648045
 20
0.143880
  0
VERTEX
  8
FOREGROUND
  6
CONTINUOUS
 10
0.658566
 20
0.140300
  0
VERTEX
  8
FOREGROUND
  6
CONTINUOUS
 10
0.669140
 20
0.136791
  0
VERTEX
  8
FOREGROUND
  6
CONTINUOUS
 10
0.679766
 20
0.133353
  0
VERTEX
  8
FOREGROUND
  6
CONTINUOUS
 10
0.690444
 20
0.129986
  0
VERTEX
  8
FOREGROUND
  6
CONTINUOUS
 10
0.701172
 20
0.126690
  0
VERTEX
  8
FOREGROUND
  6
CONTINUOUS
 10
0.711950
 20
0.123465
  0
VERTEX
  8
FOREGROUND
  6
CONTINUOUS
 10
0.722775
 20
0.120310
  0
VERTEX
  8
FOREGROUND
  6
CONTINUOUS
 10
0.733648
 20
0.117227
  0
VERTEX
  8
FOREGROUND
  6
CONTINUOUS
 10
0.744567
 20
0.114214
  0
VERTEX
  8
FOREGROUND
  6
CONTINUOUS
 10
0.755531
 20
0.111272
  0
VERTEX
  8
FOREGROUND
  6
CONTINUOUS
 10
0.766539
 20
0.108401
  0
VERTEX
  8
FOREGROUND
  6
CONTINUOUS
 10
0.777590
 20
0.105601
  0
VERTEX
  8
FOREGROUND
  6
CONTINUOUS
 10
0.788683
 20
0.102872
  0
VERTEX
  8
FOREGROUND
  6
CONTINUOUS
 10
0.799817
 20
0.100213
  0
VERTEX
  8
FOREGROUND
  6
CONTINUOUS
 10
0.810990
 20
0.097626
  0
VERTEX
  8
FOREGROUND
  6
CONTINUOUS
 10
0.822201
 20
0.095109
  0
VERTEX
  8
FOREGROUND
  6
CONTINUOUS
 10
0.833451
 20
0.092663
  0
VERTEX
  8
FOREGROUND
  6
CONTINUOUS
 10
0.844737
 20
0.090288
  0
VERTEX
  8
FOREGROUND
  6
CONTINUOUS
 10
0.856058
 20
0.087984
  0
VERTEX
  8
FOREGROUND
  6
CONTINUOUS
 10
0.867413
 20
0.085751
  0
VERTEX
  8
FOREGROUND
  6
CONTINUOUS
 10
0.878802
 20
0.083588
  0
VERTEX
  8
FOREGROUND
  6
CONTINUOUS
 10
0.890223
 20
0.081497
  0
VERTEX
  8
FOREGROUND
  6
CONTINUOUS
 10
0.901675
 20
0.079476
  0
VERTEX
  8
FOREGROUND
  6
CONTINUOUS
 10
0.913157
 20
0.077526
  0
VERTEX
  8
FOREGROUND
  6
CONTINUOUS
 10
0.924668
 20
0.075647
  0
VERTEX
  8
FOREGROUND
  6
CONTINUOUS
 10
0.936207
 20
0.073839
  0
VERTEX
  8
FOREGROUND
  6
CONTINUOUS
 10
0.947773
 20
0.072102
  0
VERTEX
  8
FOREGROUND
  6
CONTINUOUS
 10
0.959365
 20
0.070435
  0
VERTEX
  8
FOREGROUND
  6
CONTINUOUS
 10
0.970981
 20
0.068840
  0
VERTEX
  8
FOREGROUND
  6
CONTINUOUS
 10
0.982621
 20
0.067315
  0
VERTEX
  8
FOREGROUND
  6
CONTINUOUS
 10
0.994283
 20
0.065861
  0
VERTEX
  8
FOREGROUND
  6
CONTINUOUS
 10
1.005967
 20
0.064478
  0
VERTEX
  8
FOREGROUND
  6
CONTINUOUS
 10
1.017672
 20
0.063166
  0
VERTEX
  8
FOREGROUND
  6
CONTINUOUS
 10
1.029396
 20
0.061925
  0
VERTEX
  8
FOREGROUND
  6
CONTINUOUS
 10
1.041138
 20
0.060755
  0
VERTEX
  8
FOREGROUND
  6
CONTINUOUS
 10
1.052897
 20
0.059655
  0
VERTEX
  8
FOREGROUND
  6
CONTINUOUS
 10
1.064672
 20
0.058627
  0
VERTEX
  8
FOREGROUND
  6
CONTINUOUS
 10
1.076463
 20
0.057669
  0
VERTEX
  8
FOREGROUND
  6
CONTINUOUS
 10
1.088267
 20
0.056782
  0
VERTEX
  8
FOREGROUND
  6
CONTINUOUS
 10
1.100085
 20
0.055966
  0
VERTEX
  8
FOREGROUND
  6
CONTINUOUS
 10
1.111914
 20
0.055221
  0
VERTEX
  8
FOREGROUND
  6
CONTINUOUS
 10
1.123754
 20
0.054546
  0
VERTEX
  8
FOREGROUND
  6
CONTINUOUS
 10
1.135604
 20
0.053943
  0
VERTEX
  8
FOREGROUND
  6
CONTINUOUS
 10
1.147462
 20
0.053410
  0
VERTEX
  8
FOREGROUND
  6
CONTINUOUS
 10
1.159328
 20
0.052949
  0
VERTEX
  8
FOREGROUND
  6
CONTINUOUS
 10
1.171201
 20
0.052558
  0
VERTEX
  8
FOREGROUND
  6
CONTINUOUS
 10
1.183079
 20
0.052238
  0
VERTEX
  8
FOREGROUND
  6
CONTINUOUS
 10
1.194961
 20
0.051989
  0
VERTEX
  8
FOREGROUND
  6
CONTINUOUS
 10
1.206847
 20
0.051810
  0
VERTEX
  8
FOREGROUND
  6
CONTINUOUS
 10
1.218735
 20
0.051703
  0
VERTEX
  8
FOREGROUND
  6
CONTINUOUS
 10
1.230624
 20
0.051667
  0
VERTEX
  8
FOREGROUND
  6
CONTINUOUS
 10
1.242513
 20
0.051701
  0
VERTEX
  8
FOREGROUND
  6
CONTINUOUS
 10
1.254401
 20
0.051806
  0
VERTEX
  8
FOREGROUND
  6
CONTINUOUS
 10
1.266287
 20
0.051982
  0
VERTEX
  8
FOREGROUND
  6
CONTINUOUS
 10
1.278170
 20
0.052229
  0
VERTEX
  8
FOREGROUND
  6
CONTINUOUS
 10
1.290049
 20
0.052547
  0
VERTEX
  8
FOREGROUND
  6
CONTINUOUS
 10
1.301923
 20
0.052936
  0
VERTEX
  8
FOREGROUND
  6
CONTINUOUS
 10
1.313790
 20
0.053395
  0
VERTEX
  8
FOREGROUND
  6
CONTINUOUS
 10
1.325650
 20
0.053925
  0
VERTEX
  8
FOREGROUND
  6
CONTINUOUS
 10
1.337501
 20
0.054527
  0
VERTEX
  8
FOREGROUND
  6
CONTINUOUS
 10
1.349343
 20
0.055199
  0
VERTEX
  8
FOREGROUND
  6
CONTINUOUS
 10
1.361174
 20
0.055942
  0
VERTEX
  8
FOREGROUND
  6
CONTINUOUS
 10
1.372994
 20
0.056756
  0
VERTEX
  8
FOREGROUND
  6
CONTINUOUS
 10
1.384801
 20
0.057640
  0
VERTEX
  8
FOREGROUND
  6
CONTINUOUS
 10
1.396594
 20
0.058596
  0
VERTEX
  8
FOREGROUND
  6
CONTINUOUS
 10
1.408372
 20
0.059622
  0
VERTEX
  8
FOREGROUND
  6
CONTINUOUS
 10
1.420134
 20
0.060720
  0
VERTEX
  8
FOREGROUND
  6
CONTINUOUS
 10
1.431879
 20
0.061888
  0
VERTEX
  8
FOREGROUND
  6
CONTINUOUS
 10
1.443606
 20
0.063127
  0
VERTEX
  8
FOREGROUND
  6
CONTINUOUS
 10
1.455314
 20
0.064437
  0
VERTEX
  8
FOREGROUND
  6
CONTINUOUS
 10
1.467002
 20
0.065818
  0
VERTEX
  8
FOREGROUND
  6
CONTINUOUS
 10
1.478668
 20
0.067269
  0
VERTEX
  8
FOREGROUND
  6
CONTINUOUS
 10
1.490312
 20
0.068792
  0
VERTEX
  8
FOREGROUND
  6
CONTINUOUS
 10
1.501933
 20
0.070385
  0
VERTEX
  8
FOREGROUND
  6
CONTINUOUS
 10
1.513529
 20
0.072049
  0
VERTEX
  8
FOREGROUND
  6
CONTINUOUS
 10
1.525099
 20
0.073784
  0
VERTEX
  8
FOREGROUND
  6
CONTINUOUS
 10
1.536643
 20
0.075590
  0
VERTEX
  8
FOREGROUND
  6
CONTINUOUS
 10
1.548159
 20
0.077467
  0
VERTEX
  8
FOREGROUND
  6
CONTINUOUS
 10
1.559646
 20
0.079415
  0
VERTEX
  8
FOREGROUND
  6
CONTINUOUS
 10
1.571104
 20
0.081434
  0
VERTEX
  8
FOREGROUND
  6
CONTINUOUS
 10
1.582530
 20
0.083523
  0
VERTEX
  8
FOREGROUND
  6
CONTINUOUS
 10
1.593925
 20
0.085683
  0
VERTEX
  8
FOREGROUND
  6
CONTINUOUS
 10
1.605286
 20
0.087914
  0
VERTEX
  8
FOREGROUND
  6
CONTINUOUS
 10
1.616613
 20
0.090217
  0
VERTEX
  8
FOREGROUND
  6
CONTINUOUS
 10
1.627906
 20
0.092589
  0
VERTEX
  8
FOREGROUND
  6
CONTINUOUS
 10
1.639161
 20
0.095033
  0
VERTEX
  8
FOREGROUND
  6
CONTINUOUS
 10
1.650380
 20
0.097548
  0
VERTEX
  8
FOREGROUND
  6
CONTINUOUS
 10
1.661560
 20
0.100133
  0
VERTEX
  8
FOREGROUND
  6
CONTINUOUS
 10
1.672700
 20
0.102790
  0
VERTEX
  8
FOREGROUND
  6
CONTINUOUS
 10
1.683800
 20
0.105517
  0
VERTEX
  8
FOREGROUND
  6
CONTINUOUS
 10
1.694859
 20
0.108315
  0
VERTEX
  8
FOREGROUND
  6
CONTINUOUS
 10
1.705874
 20
0.111184
  0
VERTEX
  8
FOREGROUND
  6
CONTINUOUS
 10
1.716846
 20
0.114124
  0
VERTEX
  8
FOREGROUND
  6
CONTINUOUS
 10
1.727773
 20
0.117135
  0
VERTEX
  8
FOREGROUND
  6
CONTINUOUS
 10
1.738654
 20
0.120216
  0
VERTEX
  8
FOREGROUND
  6
CONTINUOUS
 10
1.749488
 20
0.123369
  0
VERTEX
  8
FOREGROUND
  6
CONTINUOUS
 10
1.760274
 20
0.126592
  0
VERTEX
  8
FOREGROUND
  6
CONTINUOUS
 10
1.771011
 20
0.129886
  0
VERTEX
  8
FOREGROUND
  6
CONTINUOUS
 10
1.781698
 20
0.133251
  0
VERTEX
  8
FOREGROUND
  6
CONTINUOUS
 10
1.792334
 20
0.136687
  0
VERTEX
  8
FOREGROUND
  6
CONTINUOUS
 10
1.802917
 20
0.140194
  0
VERTEX
  8
FOREGROUND
  6
CONTINUOUS
 10
1.813447
 20
0.143772
  0
VERTEX
  8
FOREGROUND
  6
CONTINUOUS
 10
1.823922
 20
0.147420
  0
VERTEX
  8
FOREGROUND
  6
CONTINUOUS
 10
1.834342
 20
0.151140
  0
VERTEX
  8
FOREGROUND
  6
CONTINUOUS
 10
1.844705
 20
0.154930
  0
VERTEX
  8
FOREGROUND
  6
CONTINUOUS
 10
1.855010
 20
0.158791
  0
VERTEX
  8
FOREGROUND
  6
CONTINUOUS
 10
1.865257
 20
0.162723
  0
VERTEX
  8
FOREGROUND
  6
CONTINUOUS
 10
1.875444
 20
0.166726
  0
VERTEX
  8
FOREGROUND
  6
CONTINUOUS
 10
1.885570
 20
0.170800
  0
VERTEX
  8
FOREGROUND
  6
CONTINUOUS
 10
1.895634
 20
0.174945
  0
VERTEX
  8
FOREGROUND
  6
CONTINUOUS
 10
1.905635
 20
0.179160
  0
VERTEX
  8
FOREGROUND
  6
CONTINUOUS
 10
1.915572
 20
0.183446
  0
VERTEX
  8
FOREGROUND
  6
CONTINUOUS
 10
1.925444
 20
0.187804
  0
VERTEX
  8
FOREGROUND
  6
CONTINUOUS
 10
1.935249
 20
0.192232
  0
VERTEX
  8
FOREGROUND
  6
CONTINUOUS
 10
1.944988
 20
0.196731
  0
VERTEX
  8
FOREGROUND
  6
CONTINUOUS
 10
1.954658
 20
0.201301
  0
VERTEX
  8
FOREGROUND
  6
CONTINUOUS
 10
1.964258
 20
0.205941
  0
VERTEX
  8
FOREGROUND
  6
CONTINUOUS
 10
1.973788
 20
0.210653
  0
VERTEX
  8
FOREGROUND
  6
CONTINUOUS
 10
1.983246
 20
0.215435
  0
VERTEX
  8
FOREGROUND
  6
CONTINUOUS
 10
1.992632
 20
0.220289
  0
VERTEX
  8
FOREGROUND
  6
CONTINUOUS
 10
2.001944
 20
0.225213
  0
VERTEX
  8
FOREGROUND
  6
CONTINUOUS
 10
2.011181
 20
0.230208
  0
VERTEX
  8
FOREGROUND
  6
CONTINUOUS
 10
2.020342
 20
0.235274
  0
VERTEX
  8
FOREGROUND
  6
CONTINUOUS
 10
2.029427
 20
0.240411
  0
VERTEX
  8
FOREGROUND
  6
CONTINUOUS
 10
2.038433
 20
0.245619
  0
VERTEX
  8
FOREGROUND
  6
CONTINUOUS
 10
2.047360
 20
0.250897
  0
VERTEX
  8
FOREGROUND
  6
CONTINUOUS
 10
2.056207
 20
0.256247
  0
VERTEX
  8
FOREGROUND
  6
CONTINUOUS
 10
2.064973
 20
0.261667
  0
VERTEX
  8
FOREGROUND
  6
CONTINUOUS
 10
2.073657
 20
0.267158
  0
VERTEX
  8
FOREGROUND
  6
CONTINUOUS
 10
2.082257
 20
0.272720
  0
VERTEX
  8
FOREGROUND
  6
CONTINUOUS
 10
2.090773
 20
0.278353
  0
VERTEX
  8
FOREGROUND
  6
CONTINUOUS
 10
2.099203
 20
0.284057
  0
VERTEX
  8
FOREGROUND
  6
CONTINUOUS
 10
2.107547
 20
0.289832
  0
VERTEX
  8
FOREGROUND
  6
CONTINUOUS
 10
2.115803
 20
0.295677
  0
VERTEX
  8
FOREGROUND
  6
CONTINUOUS
 10
2.123971
 20
0.301594
  0
VERTEX
  8
FOREGROUND
  6
CONTINUOUS
 10
2.132048
 20
0.307581
  0
VERTEX
  8
FOREGROUND
  6
CONTINUOUS
 10
2.140035
 20
0.313639
  0
VERTEX
  8
FOREGROUND
  6
CONTINUOUS
 10
2.147930
 20
0.319768
  0
VERTEX
  8
FOREGROUND
  6
CONTINUOUS
 10
2.155732
 20
0.325968
  0
VERTEX
  8
FOREGROUND
  6
CONTINUOUS
 10
2.163440
 20
0.332239
  0
VERTEX
  8
FOREGROUND
  6
CONTINUOUS
 10
2.171052
 20
0.338580
  0
VERTEX
  8
FOREGROUND
  6
CONTINUOUS
 10
2.178569
 20
0.344993
  0
VERTEX
  8
FOREGROUND
  6
CONTINUOUS
 10
2.185988
 20
0.351476
  0
VERTEX
  8
FOREGROUND
  6
CONTINUOUS
 10
2.193309
 20
0.358031
  0
VERTEX
  8
FOREGROUND
  6
CONTINUOUS
 10
2.200531
 20
0.364656
  0
VERTEX
  8
FOREGROUND
  6
CONTINUOUS
 10
2.207652
 20
0.371352
  0
VERTEX
  8
FOREGROUND
  6
CONTINUOUS
 10
2.214671
 20
0.378119
  0
VERTEX
  8
FOREGROUND
  6
CONTINUOUS
 10
2.221588
 20
0.384957
  0
VERTEX
  8
FOREGROUND
  6
CONTINUOUS
 10
2.228402
 20
0.391865
  0
VERTEX
  8
FOREGROUND
  6
CONTINUOUS
 10
2.235110
 20
0.398845
  0
VERTEX
  8
FOREGROUND
  6
CONTINUOUS
 10
2.241713
 20
0.405895
  0
VERTEX
  8
FOREGROUND
  6
CONTINUOUS
 10
2.248209
 20
0.413016
  0
VERTEX
  8
FOREGROUND
  6
CONTINUOUS
 10
2.254596
 20
0.420209
  0
VERTEX
  8
FOREGROUND
  6
CONTINUOUS
 10
2.260875
 20
0.427472
  0
VERTEX
  8
FOREGROUND
  6
CONTINUOUS
 10
2.267044
 20
0.434805
  0
VERTEX
  8
FOREGROUND
  6
CONTINUOUS
 10
2.273101
 20
0.442210
  0
VERTEX
  8
FOREGROUND
  6
CONTINUOUS
 10
2.279047
 20
0.449686
  0
VERTEX
  8
FOREGROUND
  6
CONTINUOUS
 10
2.284879
 20
0.457232
  0
VERTEX
  8
FOREGROUND
  6
CONTINUOUS
 10
2.290596
 20
0.464850
  0
VERTEX
  8
FOREGROUND
  6
CONTINUOUS
 10
2.296198
 20
0.472538
  0
VERTEX
  8
FOREGROUND
  6
CONTINUOUS
 10
2.301684
 20
0.480297
  0
VERTEX
  8
FOREGROUND
  6
CONTINUOUS
 10
2.307052
 20
0.488127
  0
VERTEX
  8
FOREGROUND
  6
CONTINUOUS
 10
2.312301
 20
0.496028
  0
VERTEX
  8
FOREGROUND
  6
CONTINUOUS
 10
2.317431
 20
0.504000
  0
VERTEX
  8
FOREGROUND
  6
CONTINUOUS
 10
2.322440
 20
0.512043
  0
VERTEX
  8
FOREGROUND
  6
CONTINUOUS
 10
2.327327
 20
0.520156
  0
VERTEX
  8
FOREGROUND
  6
CONTINUOUS
 10
2.332091
 20
0.528340
  0
VERTEX
  8
FOREGROUND
  6
CONTINUOUS
 10
2.336731
 20
0.536596
  0
VERTEX
  8
FOREGROUND
  6
CONTINUOUS
 10
2.341246
 20
0.544922
  0
VERTEX
  8
FOREGROUND
  6
CONTINUOUS
 10
2.345635
 20
0.553319
  0
VERTEX
  8
FOREGROUND
  6
CONTINUOUS
 10
2.349896
 20
0.561787
  0
VERTEX
  8
FOREGROUND
  6
CONTINUOUS
 10
2.354029
 20
0.570326
  0
VERTEX
  8
FOREGROUND
  6
CONTINUOUS
 10
2.358033
 20
0.578935
  0
VERTEX
  8
FOREGROUND
  6
CONTINUOUS
 10
2.361907
 20
0.587616
  0
VERTEX
  8
FOREGROUND
  6
CONTINUOUS
 10
2.365649
 20
0.596367
  0
VERTEX
  8
FOREGROUND
  6
CONTINUOUS
 10
2.369258
 20
0.605189
  0
VERTEX
  8
FOREGROUND
  6
CONTINUOUS
 10
2.372734
 20
0.614083
  0
VERTEX
  8
FOREGROUND
  6
CONTINUOUS
 10
2.376075
 20
0.623047
  0
VERTEX
  8
FOREGROUND
  6
CONTINUOUS
 10
2.379280
 20
0.632082
  0
VERTEX
  8
FOREGROUND
  6
CONTINUOUS
 10
2.382349
 20
0.641187
  0
VERTEX
  8
FOREGROUND
  6
CONTINUOUS
 10
2.385279
 20
0.650364
  0
VERTEX
  8
FOREGROUND
  6
CONTINUOUS
 10
2.388071
 20
0.659612
  0
VERTEX
  8
FOREGROUND
  6
CONTINUOUS
 10
2.390723
 20
0.668930
  0
VERTEX
  8
FOREGROUND
  6
CONTINUOUS
 10
2.393233
 20
0.678319
  0
VERTEX
  8
FOREGROUND
  6
CONTINUOUS
 10
2.395601
 20
0.687779
  0
VERTEX
  8
FOREGROUND
  6
CONTINUOUS
 10
2.397826
 20
0.697311
  0
VERTEX
  8
FOREGROUND
  6
CONTINUOUS
 10
2.399907
 20
0.706912
  0
VERTEX
  8
FOREGROUND
  6
CONTINUOUS
 10
2.401842
 20
0.716585
  0
VERTEX
  8
FOREGROUND
  6
CONTINUOUS
 10
2.403630
 20
0.726329
  0
VERTEX
  8
FOREGROUND
  6
CONTINUOUS
 10
2.405272
 20
0.736144
  0
VERTEX
  8
FOREGROUND
  6
CONTINUOUS
 10
2.406764
 20
0.746029
  0
VERTEX
  8
FOREGROUND
  6
CONTINUOUS
 10
2.408107
 20
0.755985
  0
VERTEX
  8
FOREGROUND
  6
CONTINUOUS
 10
2.409299
 20
0.766013
  0
VERTEX
  8
FOREGROUND
  6
CONTINUOUS
 10
2.410339
 20
0.776111
  0
VERTEX
  8
FOREGROUND
  6
CONTINUOUS
 10
2.411227
 20
0.786280
  0
VERTEX
  8
FOREGROUND
  6
CONTINUOUS
 10
2.411960
 20
0.796519
  0
VERTEX
  8
FOREGROUND
  6
CONTINUOUS
 10
2.412538
 20
0.806830
  0
VERTEX
  8
FOREGROUND
  6
CONTINUOUS
 10
2.412961
 20
0.817212
  0
VERTEX
  8
FOREGROUND
  6
CONTINUOUS
 10
2.413226
 20
0.827664
  0
VERTEX
  8
FOREGROUND
  6
CONTINUOUS
 10
2.413333
 20
0.838188
  0
SEQEND
  8
0
  0
ENDSEC
  0
EOF
