  0
SECTION
  2
HEADER
  9
$ACADVER
  1
AC1006
  9
$EXTMIN
 10
0.000000
 20
0.000000
  9
$EXTMAX
 10
2.856667
 20
1.675000
  9
$LTSCALE
 40
0.166667
  9
$PDMODE
 70
    35
  9
$PDSIZE
 40
0.133333
  0
ENDSEC
  0
SECTION
  2
TABLES
  0
TABLE
  2
LTYPE
 70
     9
  0
LTYPE
  2
CONTINUOUS
 70
    64
  3
Solid line
 72
    65
 73
     0
 40
0.000000
  0
LTYPE
  2
DASHED
 70
    64
  3
__ __ __ __ __ __ __ __ __ __ __ __ __ __ __
 72
    65
 73
     2
 40
0.001250
 49
0.000833
 49
-0.000417
  0
LTYPE
  2
HIDDEN
 70
    64
  3
 _ _ _ _ _ _ _ _ _ _ _ _ _ _ _ _ _ _ _ _ _ _
 72
    65
 73
     2
 40
0.000625
 49
0.000417
 49
-0.000208
  0
LTYPE
  2
CENTER
 70
    64
  3
____ _ ____ _ ____ _ ____ _ ____ _ ____ _ ____
 72
    65
 73
     4
 40
0.003333
 49
0.002083
 49
-0.000417
 49
0.000417
 49
-0.000417
  0
LTYPE
  2
PHANTOM
 70
    64
  3
_____ _ _ _____ _ _ _____ _ _ _____ _ _ ____
 72
    65
 73
     6
 40
0.004167
 49
0.002083
 49
-0.000417
 49
0.000417
 49
-0.000417
 49
0.000417
 49
-0.000417
  0
LTYPE
  2
DOT
 70
    64
  3
...............................................
 72
    65
 73
     2
 40
0.000417
 49
0.000000
 49
-0.000417
  0
LTYPE
  2
DASHDOT
 70
    64
  3
__ . __ . __ . __ . __ . __ . __ . __ . __ . __
 72
    65
 73
     4
 40
0.001667
 49
0.000833
 49
-0.000417
 49
0.000000
 49
-0.000417
  0
LTYPE
  2
BORDER
 70
    64
  3
__ __ . __ __ . __ __ . __ __ . __ __ . __ __
 72
    65
 73
     6
 40
0.002917
 49
0.000833
 49
-0.000417
 49
0.000833
 49
-0.000417
 49
0.000000
 49
-0.000417
  0
LTYPE
  2
DIVIDE
 70
    64
  3
__ . . __ . . __ . . __ . . __ . . __ . . __
 72
    65
 73
     6
 40
0.002083
 49
0.000833
 49
-0.000417
 49
0.000000
 49
-0.000417
 49
0.000000
 49
-0.000417
  0
LTYPE
  2
DOTDOT
 70
    64
  3
 . .  . .  . .  . .  . .  . . 
 72
    65
 73
     5
 40
0.000917
 49
-0.000417
 49
0.000000
 49
-0.000417
 49
0.000000
 49
-0.000417
  0
ENDTAB
  0
TABLE
  2
STYLE
 70
     2
  0
STYLE
 70
     0
  2
SN0
 40
0.000000
 41
0.001667
 50
0.000000
 71
     0
 42
0.000000
  3
ROMAND
  0
STYLE
 70
    68
  2
SV0
 40
0.000000
 41
0.001667
 50
0.000000
 71
     0
 42
0.000000
  3
ROMAND
  0
ENDTAB
  0
TABLE
  2
LAYER
 70
     2
  0
LAYER
  2
FOREGROUND
 70
    64
 62
     7
  6
CONTINUOUS
  0
LAYER
  2
BACKGROUND
 70
    65
 62
    -7
  6
CONTINUOUS
  0
ENDTAB
  0
ENDSEC
  0
SECTION
  2
ENTITIES
  0
POLYLINE
  8
FOREGROUND
  6
CONTINUOUS
 66
     1
 40
0.010000
 41
0.010000
 70
     1
  0
VERTEX
  8
FOREGROUND
  6
CONTINUOUS
 10
2.806666
 20
0.838333
  0
VERTEX
  8
FOREGROUND
  6
CONTINUOUS
 10
2.806573
 20
0.849109
  0
VERTEX
  8
FOREGROUND
  6
CONTINUOUS
 10
2.806287
 20
0.859810
  0
VERTEX
  8
FOREGROUND
  6
CONTINUOUS
 10
2.805808
 20
0.870437
  0
VERTEX
  8
FOREGROUND
  6
CONTINUOUS
 10
2.805138
 20
0.880990
  0
VERTEX
  8
FOREGROUND
  6
CONTINUOUS
 10
2.804278
 20
0.891468
  0
VERTEX
  8
FOREGROUND
  6
CONTINUOUS
 10
2.803230
 20
0.901873
  0
VERTEX
  8
FOREGROUND
  6
CONTINUOUS
 10
2.801995
 20
0.912202
  0
VERTEX
  8
FOREGROUND
  6
CONTINUOUS
 10
2.800574
 20
0.922458
  0
VERTEX
  8
FOREGROUND
  6
CONTINUOUS
 10
2.798969
 20
0.932639
  0
VERTEX
  8
FOREGROUND
  6
CONTINUOUS
 10
2.797180
 20
0.942746
  0
VERTEX
  8
FOREGROUND
  6
CONTINUOUS
 10
2.795210
 20
0.952778
  0
VERTEX
  8
FOREGROUND
  6
CONTINUOUS
 10
2.793060
 20
0.962737
  0
VERTEX
  8
FOREGROUND
  6
CONTINUOUS
 10
2.790730
 20
0.972620
  0
VERTEX
  8
FOREGROUND
  6
CONTINUOUS
 10
2.788223
 20
0.982430
  0
VERTEX
  8
FOREGROUND
  6
CONTINUOUS
 10
2.785539
 20
0.992165
  0
VERTEX
  8
FOREGROUND
  6
CONTINUOUS
 10
2.782680
 20
1.001826
  0
VERTEX
  8
FOREGROUND
  6
CONTINUOUS
 10
2.779648
 20
1.011413
  0
VERTEX
  8
FOREGROUND
  6
CONTINUOUS
 10
2.776443
 20
1.020925
  0
VERTEX
  8
FOREGROUND
  6
CONTINUOUS
 10
2.773067
 20
1.030363
  0
VERTEX
  8
FOREGROUND
  6
CONTINUOUS
 10
2.769522
 20
1.039727
  0
VERTEX
  8
FOREGROUND
  6
CONTINUOUS
 10
2.765808
 20
1.049017
  0
VERTEX
  8
FOREGROUND
  6
CONTINUOUS
 10
2.761927
 20
1.058232
  0
VERTEX
  8
FOREGROUND
  6
CONTINUOUS
 10
2.757881
 20
1.067373
  0
VERTEX
  8
FOREGROUND
  6
CONTINUOUS
 10
2.753670
 20
1.076439
  0
VERTEX
  8
FOREGROUND
  6
CONTINUOUS
 10
2.749296
 20
1.085431
  0
VERTEX
  8
FOREGROUND
  6
CONTINUOUS
 10
2.744761
 20
1.094349
  0
VERTEX
  8
FOREGROUND
  6
CONTINUOUS
 10
2.740065
 20
1.103193
  0
VERTEX
  8
FOREGROUND
  6
CONTINUOUS
 10
2.735211
 20
1.111962
  0
VERTEX
  8
FOREGROUND
  6
CONTINUOUS
 10
2.730198
 20
1.120657
  0
VERTEX
  8
FOREGROUND
  6
CONTINUOUS
 10
2.725030
 20
1.129278
  0
VERTEX
  8
FOREGROUND
  6
CONTINUOUS
 10
2.719706
 20
1.137824
  0
VERTEX
  8
FOREGROUND
  6
CONTINUOUS
 10
2.714230
 20
1.146296
  0
VERTEX
  8
FOREGROUND
  6
CONTINUOUS
 10
2.708600
 20
1.154694
  0
VERTEX
  8
FOREGROUND
  6
CONTINUOUS
 10
2.702820
 20
1.163017
  0
VERTEX
  8
FOREGROUND
  6
CONTINUOUS
 10
2.696890
 20
1.171266
  0
VERTEX
  8
FOREGROUND
  6
CONTINUOUS
 10
2.690812
 20
1.179441
  0
VERTEX
  8
FOREGROUND
  6
CONTINUOUS
 10
2.684588
 20
1.187541
  0
VERTEX
  8
FOREGROUND
  6
CONTINUOUS
 10
2.678217
 20
1.195568
  0
VERTEX
  8
FOREGROUND
  6
CONTINUOUS
 10
2.671703
 20
1.203519
  0
VERTEX
  8
FOREGROUND
  6
CONTINUOUS
 10
2.665045
 20
1.211397
  0
VERTEX
  8
FOREGROUND
  6
CONTINUOUS
 10
2.658246
 20
1.219200
  0
VERTEX
  8
FOREGROUND
  6
CONTINUOUS
 10
2.651307
 20
1.226929
  0
VERTEX
  8
FOREGROUND
  6
CONTINUOUS
 10
2.644229
 20
1.234584
  0
VERTEX
  8
FOREGROUND
  6
CONTINUOUS
 10
2.637013
 20
1.242164
  0
VERTEX
  8
FOREGROUND
  6
CONTINUOUS
 10
2.629662
 20
1.249670
  0
VERTEX
  8
FOREGROUND
  6
CONTINUOUS
 10
2.622175
 20
1.257102
  0
VERTEX
  8
FOREGROUND
  6
CONTINUOUS
 10
2.614555
 20
1.264459
  0
VERTEX
  8
FOREGROUND
  6
CONTINUOUS
 10
2.606803
 20
1.271742
  0
VERTEX
  8
FOREGROUND
  6
CONTINUOUS
 10
2.598920
 20
1.278951
  0
VERTEX
  8
FOREGROUND
  6
CONTINUOUS
 10
2.590907
 20
1.286085
  0
VERTEX
  8
FOREGROUND
  6
CONTINUOUS
 10
2.582767
 20
1.293145
  0
VERTEX
  8
FOREGROUND
  6
CONTINUOUS
 10
2.574500
 20
1.300131
  0
VERTEX
  8
FOREGROUND
  6
CONTINUOUS
 10
2.566107
 20
1.307043
  0
VERTEX
  8
FOREGROUND
  6
CONTINUOUS
 10
2.557590
 20
1.313880
  0
VERTEX
  8
FOREGROUND
  6
CONTINUOUS
 10
2.548950
 20
1.320643
  0
VERTEX
  8
FOREGROUND
  6
CONTINUOUS
 10
2.540189
 20
1.327331
  0
VERTEX
  8
FOREGROUND
  6
CONTINUOUS
 10
2.531308
 20
1.333945
  0
VERTEX
  8
FOREGROUND
  6
CONTINUOUS
 10
2.522308
 20
1.340485
  0
VERTEX
  8
FOREGROUND
  6
CONTINUOUS
 10
2.513191
 20
1.346951
  0
VERTEX
  8
FOREGROUND
  6
CONTINUOUS
 10
2.503957
 20
1.353342
  0
VERTEX
  8
FOREGROUND
  6
CONTINUOUS
 10
2.494609
 20
1.359659
  0
VERTEX
  8
FOREGROUND
  6
CONTINUOUS
 10
2.485147
 20
1.365902
  0
VERTEX
  8
FOREGROUND
  6
CONTINUOUS
 10
2.475574
 20
1.372070
  0
VERTEX
  8
FOREGROUND
  6
CONTINUOUS
 10
2.465890
 20
1.378164
  0
VERTEX
  8
FOREGROUND
  6
CONTINUOUS
 10
2.456096
 20
1.384184
  0
VERTEX
  8
FOREGROUND
  6
CONTINUOUS
 10
2.446194
 20
1.390130
  0
VERTEX
  8
FOREGROUND
  6
CONTINUOUS
 10
2.436186
 20
1.396001
  0
VERTEX
  8
FOREGROUND
  6
CONTINUOUS
 10
2.426072
 20
1.401798
  0
VERTEX
  8
FOREGROUND
  6
CONTINUOUS
 10
2.415855
 20
1.407520
  0
VERTEX
  8
FOREGROUND
  6
CONTINUOUS
 10
2.405534
 20
1.413168
  0
VERTEX
  8
FOREGROUND
  6
CONTINUOUS
 10
2.395112
 20
1.418742
  0
VERTEX
  8
FOREGROUND
  6
CONTINUOUS
 10
2.384591
 20
1.424242
  0
VERTEX
  8
FOREGROUND
  6
CONTINUOUS
 10
2.373970
 20
1.429667
  0
VERTEX
  8
FOREGROUND
  6
CONTINUOUS
 10
2.363253
 20
1.435018
  0
VERTEX
  8
FOREGROUND
  6
CONTINUOUS
 10
2.352439
 20
1.440295
  0
VERTEX
  8
FOREGROUND
  6
CONTINUOUS
 10
2.341531
 20
1.445497
  0
VERTEX
  8
FOREGROUND
  6
CONTINUOUS
 10
2.330530
 20
1.450625
  0
VERTEX
  8
FOREGROUND
  6
CONTINUOUS
 10
2.319436
 20
1.455679
  0
VERTEX
  8
FOREGROUND
  6
CONTINUOUS
 10
2.308252
 20
1.460658
  0
VERTEX
  8
FOREGROUND
  6
CONTINUOUS
 10
2.296979
 20
1.465563
  0
VERTEX
  8
FOREGROUND
  6
CONTINUOUS
 10
2.285618
 20
1.470394
  0
VERTEX
  8
FOREGROUND
  6
CONTINUOUS
 10
2.274170
 20
1.475150
  0
VERTEX
  8
FOREGROUND
  6
CONTINUOUS
 10
2.262637
 20
1.479832
  0
VERTEX
  8
FOREGROUND
  6
CONTINUOUS
 10
2.251020
 20
1.484440
  0
VERTEX
  8
FOREGROUND
  6
CONTINUOUS
 10
2.239320
 20
1.488974
  0
VERTEX
  8
FOREGROUND
  6
CONTINUOUS
 10
2.227540
 20
1.493433
  0
VERTEX
  8
FOREGROUND
  6
CONTINUOUS
 10
2.215679
 20
1.497818
  0
VERTEX
  8
FOREGROUND
  6
CONTINUOUS
 10
2.203740
 20
1.502128
  0
VERTEX
  8
FOREGROUND
  6
CONTINUOUS
 10
2.191723
 20
1.506365
  0
VERTEX
  8
FOREGROUND
  6
CONTINUOUS
 10
2.179631
 20
1.510527
  0
VERTEX
  8
FOREGROUND
  6
CONTINUOUS
 10
2.167464
 20
1.514614
  0
VERTEX
  8
FOREGROUND
  6
CONTINUOUS
 10
2.155225
 20
1.518628
  0
VERTEX
  8
FOREGROUND
  6
CONTINUOUS
 10
2.142913
 20
1.522567
  0
VERTEX
  8
FOREGROUND
  6
CONTINUOUS
 10
2.130530
 20
1.526431
  0
VERTEX
  8
FOREGROUND
  6
CONTINUOUS
 10
2.118079
 20
1.530222
  0
VERTEX
  8
FOREGROUND
  6
CONTINUOUS
 10
2.105560
 20
1.533938
  0
VERTEX
  8
FOREGROUND
  6
CONTINUOUS
 10
2.092974
 20
1.537579
  0
VERTEX
  8
FOREGROUND
  6
CONTINUOUS
 10
2.080323
 20
1.541147
  0
VERTEX
  8
FOREGROUND
  6
CONTINUOUS
 10
2.067609
 20
1.544640
  0
VERTEX
  8
FOREGROUND
  6
CONTINUOUS
 10
2.054831
 20
1.548059
  0
VERTEX
  8
FOREGROUND
  6
CONTINUOUS
 10
2.041993
 20
1.551403
  0
VERTEX
  8
FOREGROUND
  6
CONTINUOUS
 10
2.029095
 20
1.554674
  0
VERTEX
  8
FOREGROUND
  6
CONTINUOUS
 10
2.016139
 20
1.557869
  0
VERTEX
  8
FOREGROUND
  6
CONTINUOUS
 10
2.003125
 20
1.560991
  0
VERTEX
  8
FOREGROUND
  6
CONTINUOUS
 10
1.990056
 20
1.564038
  0
VERTEX
  8
FOREGROUND
  6
CONTINUOUS
 10
1.976932
 20
1.567011
  0
VERTEX
  8
FOREGROUND
  6
CONTINUOUS
 10
1.963755
 20
1.569910
  0
VERTEX
  8
FOREGROUND
  6
CONTINUOUS
 10
1.950527
 20
1.572734
  0
VERTEX
  8
FOREGROUND
  6
CONTINUOUS
 10
1.937248
 20
1.575484
  0
VERTEX
  8
FOREGROUND
  6
CONTINUOUS
 10
1.923920
 20
1.578160
  0
VERTEX
  8
FOREGROUND
  6
CONTINUOUS
 10
1.910544
 20
1.580761
  0
VERTEX
  8
FOREGROUND
  6
CONTINUOUS
 10
1.897122
 20
1.583288
  0
VERTEX
  8
FOREGROUND
  6
CONTINUOUS
 10
1.883655
 20
1.585741
  0
VERTEX
  8
FOREGROUND
  6
CONTINUOUS
 10
1.870144
 20
1.588119
  0
VERTEX
  8
FOREGROUND
  6
CONTINUOUS
 10
1.856591
 20
1.590423
  0
VERTEX
  8
FOREGROUND
  6
CONTINUOUS
 10
1.842996
 20
1.592653
  0
VERTEX
  8
FOREGROUND
  6
CONTINUOUS
 10
1.829363
 20
1.594809
  0
VERTEX
  8
FOREGROUND
  6
CONTINUOUS
 10
1.815690
 20
1.596890
  0
VERTEX
  8
FOREGROUND
  6
CONTINUOUS
 10
1.801981
 20
1.598897
  0
VERTEX
  8
FOREGROUND
  6
CONTINUOUS
 10
1.788236
 20
1.600829
  0
VERTEX
  8
FOREGROUND
  6
CONTINUOUS
 10
1.774457
 20
1.602688
  0
VERTEX
  8
FOREGROUND
  6
CONTINUOUS
 10
1.760645
 20
1.604471
  0
VERTEX
  8
FOREGROUND
  6
CONTINUOUS
 10
1.746801
 20
1.606181
  0
VERTEX
  8
FOREGROUND
  6
CONTINUOUS
 10
1.732927
 20
1.607816
  0
VERTEX
  8
FOREGROUND
  6
CONTINUOUS
 10
1.719024
 20
1.609377
  0
VERTEX
  8
FOREGROUND
  6
CONTINUOUS
 10
1.705093
 20
1.610864
  0
VERTEX
  8
FOREGROUND
  6
CONTINUOUS
 10
1.691136
 20
1.612276
  0
VERTEX
  8
FOREGROUND
  6
CONTINUOUS
 10
1.677154
 20
1.613614
  0
VERTEX
  8
FOREGROUND
  6
CONTINUOUS
 10
1.663149
 20
1.614878
  0
VERTEX
  8
FOREGROUND
  6
CONTINUOUS
 10
1.649121
 20
1.616068
  0
VERTEX
  8
FOREGROUND
  6
CONTINUOUS
 10
1.635072
 20
1.617183
  0
VERTEX
  8
FOREGROUND
  6
CONTINUOUS
 10
1.621004
 20
1.618223
  0
VERTEX
  8
FOREGROUND
  6
CONTINUOUS
 10
1.606918
 20
1.619190
  0
VERTEX
  8
FOREGROUND
  6
CONTINUOUS
 10
1.592814
 20
1.620082
  0
VERTEX
  8
FOREGROUND
  6
CONTINUOUS
 10
1.578695
 20
1.620900
  0
VERTEX
  8
FOREGROUND
  6
CONTINUOUS
 10
1.564562
 20
1.621643
  0
VERTEX
  8
FOREGROUND
  6
CONTINUOUS
 10
1.550416
 20
1.622313
  0
VERTEX
  8
FOREGROUND
  6
CONTINUOUS
 10
1.536259
 20
1.622907
  0
VERTEX
  8
FOREGROUND
  6
CONTINUOUS
 10
1.522091
 20
1.623428
  0
VERTEX
  8
FOREGROUND
  6
CONTINUOUS
 10
1.507914
 20
1.623874
  0
VERTEX
  8
FOREGROUND
  6
CONTINUOUS
 10
1.493730
 20
1.624246
  0
VERTEX
  8
FOREGROUND
  6
CONTINUOUS
 10
1.479540
 20
1.624544
  0
VERTEX
  8
FOREGROUND
  6
CONTINUOUS
 10
1.465345
 20
1.624767
  0
VERTEX
  8
FOREGROUND
  6
CONTINUOUS
 10
1.451146
 20
1.624916
  0
VERTEX
  8
FOREGROUND
  6
CONTINUOUS
 10
1.436946
 20
1.624991
  0
VERTEX
  8
FOREGROUND
  6
CONTINUOUS
 10
1.422744
 20
1.624991
  0
VERTEX
  8
FOREGROUND
  6
CONTINUOUS
 10
1.408543
 20
1.624917
  0
VERTEX
  8
FOREGROUND
  6
CONTINUOUS
 10
1.394344
 20
1.624769
  0
VERTEX
  8
FOREGROUND
  6
CONTINUOUS
 10
1.380148
 20
1.624547
  0
VERTEX
  8
FOREGROUND
  6
CONTINUOUS
 10
1.365956
 20
1.624250
  0
VERTEX
  8
FOREGROUND
  6
CONTINUOUS
 10
1.351771
 20
1.623878
  0
VERTEX
  8
FOREGROUND
  6
CONTINUOUS
 10
1.337592
 20
1.623433
  0
VERTEX
  8
FOREGROUND
  6
CONTINUOUS
 10
1.323423
 20
1.622913
  0
VERTEX
  8
FOREGROUND
  6
CONTINUOUS
 10
1.309263
 20
1.622319
  0
VERTEX
  8
FOREGROUND
  6
CONTINUOUS
 10
1.295114
 20
1.621650
  0
VERTEX
  8
FOREGROUND
  6
CONTINUOUS
 10
1.280978
 20
1.620908
  0
VERTEX
  8
FOREGROUND
  6
CONTINUOUS
 10
1.266856
 20
1.620091
  0
VERTEX
  8
FOREGROUND
  6
CONTINUOUS
 10
1.252749
 20
1.619199
  0
VERTEX
  8
FOREGROUND
  6
CONTINUOUS
 10
1.238659
 20
1.618233
  0
VERTEX
  8
FOREGROUND
  6
CONTINUOUS
 10
1.224587
 20
1.617193
  0
VERTEX
  8
FOREGROUND
  6
CONTINUOUS
 10
1.210534
 20
1.616079
  0
VERTEX
  8
FOREGROUND
  6
CONTINUOUS
 10
1.196502
 20
1.614890
  0
VERTEX
  8
FOREGROUND
  6
CONTINUOUS
 10
1.182491
 20
1.613627
  0
VERTEX
  8
FOREGROUND
  6
CONTINUOUS
 10
1.168504
 20
1.612290
  0
VERTEX
  8
FOREGROUND
  6
CONTINUOUS
 10
1.154542
 20
1.610879
  0
VERTEX
  8
FOREGROUND
  6
CONTINUOUS
 10
1.140606
 20
1.609393
  0
VERTEX
  8
FOREGROUND
  6
CONTINUOUS
 10
1.126697
 20
1.607832
  0
VERTEX
  8
FOREGROUND
  6
CONTINUOUS
 10
1.112816
 20
1.606198
  0
VERTEX
  8
FOREGROUND
  6
CONTINUOUS
 10
1.098966
 20
1.604489
  0
VERTEX
  8
FOREGROUND
  6
CONTINUOUS
 10
1.085147
 20
1.602706
  0
VERTEX
  8
FOREGROUND
  6
CONTINUOUS
 10
1.071360
 20
1.600848
  0
VERTEX
  8
FOREGROUND
  6
CONTINUOUS
 10
1.057608
 20
1.598916
  0
VERTEX
  8
FOREGROUND
  6
CONTINUOUS
 10
1.043891
 20
1.596910
  0
VERTEX
  8
FOREGROUND
  6
CONTINUOUS
 10
1.030211
 20
1.594830
  0
VERTEX
  8
FOREGROUND
  6
CONTINUOUS
 10
1.016569
 20
1.592675
  0
VERTEX
  8
FOREGROUND
  6
CONTINUOUS
 10
1.002966
 20
1.590446
  0
VERTEX
  8
FOREGROUND
  6
CONTINUOUS
 10
0.989404
 20
1.588143
  0
VERTEX
  8
FOREGROUND
  6
CONTINUOUS
 10
0.975884
 20
1.585765
  0
VERTEX
  8
FOREGROUND
  6
CONTINUOUS
 10
0.962407
 20
1.583313
  0
VERTEX
  8
FOREGROUND
  6
CONTINUOUS
 10
0.948976
 20
1.580787
  0
VERTEX
  8
FOREGROUND
  6
CONTINUOUS
 10
0.935590
 20
1.578186
  0
VERTEX
  8
FOREGROUND
  6
CONTINUOUS
 10
0.922252
 20
1.575511
  0
VERTEX
  8
FOREGROUND
  6
CONTINUOUS
 10
0.908962
 20
1.572762
  0
VERTEX
  8
FOREGROUND
  6
CONTINUOUS
 10
0.895723
 20
1.569938
  0
VERTEX
  8
FOREGROUND
  6
CONTINUOUS
 10
0.882535
 20
1.567040
  0
VERTEX
  8
FOREGROUND
  6
CONTINUOUS
 10
0.869399
 20
1.564068
  0
VERTEX
  8
FOREGROUND
  6
CONTINUOUS
 10
0.856318
 20
1.561021
  0
VERTEX
  8
FOREGROUND
  6
CONTINUOUS
 10
0.843293
 20
1.557900
  0
VERTEX
  8
FOREGROUND
  6
CONTINUOUS
 10
0.830324
 20
1.554705
  0
VERTEX
  8
FOREGROUND
  6
CONTINUOUS
 10
0.817414
 20
1.551436
  0
VERTEX
  8
FOREGROUND
  6
CONTINUOUS
 10
0.804562
 20
1.548092
  0
VERTEX
  8
FOREGROUND
  6
CONTINUOUS
 10
0.791772
 20
1.544674
  0
VERTEX
  8
FOREGROUND
  6
CONTINUOUS
 10
0.779044
 20
1.541181
  0
VERTEX
  8
FOREGROUND
  6
CONTINUOUS
 10
0.766380
 20
1.537615
  0
VERTEX
  8
FOREGROUND
  6
CONTINUOUS
 10
0.753780
 20
1.533973
  0
VERTEX
  8
FOREGROUND
  6
CONTINUOUS
 10
0.741246
 20
1.530258
  0
VERTEX
  8
FOREGROUND
  6
CONTINUOUS
 10
0.728780
 20
1.526468
  0
VERTEX
  8
FOREGROUND
  6
CONTINUOUS
 10
0.716383
 20
1.522604
  0
VERTEX
  8
FOREGROUND
  6
CONTINUOUS
 10
0.704056
 20
1.518666
  0
VERTEX
  8
FOREGROUND
  6
CONTINUOUS
 10
0.691801
 20
1.514653
  0
VERTEX
  8
FOREGROUND
  6
CONTINUOUS
 10
0.679619
 20
1.510566
  0
VERTEX
  8
FOREGROUND
  6
CONTINUOUS
 10
0.667510
 20
1.506405
  0
VERTEX
  8
FOREGROUND
  6
CONTINUOUS
 10
0.655478
 20
1.502169
  0
VERTEX
  8
FOREGROUND
  6
CONTINUOUS
 10
0.643522
 20
1.497859
  0
VERTEX
  8
FOREGROUND
  6
CONTINUOUS
 10
0.631644
 20
1.493475
  0
VERTEX
  8
FOREGROUND
  6
CONTINUOUS
 10
0.619847
 20
1.489017
  0
VERTEX
  8
FOREGROUND
  6
CONTINUOUS
 10
0.608130
 20
1.484484
  0
VERTEX
  8
FOREGROUND
  6
CONTINUOUS
 10
0.596495
 20
1.479876
  0
VERTEX
  8
FOREGROUND
  6
CONTINUOUS
 10
0.584944
 20
1.475195
  0
VERTEX
  8
FOREGROUND
  6
CONTINUOUS
 10
0.573478
 20
1.470439
  0
VERTEX
  8
FOREGROUND
  6
CONTINUOUS
 10
0.562098
 20
1.465609
  0
VERTEX
  8
FOREGROUND
  6
CONTINUOUS
 10
0.550806
 20
1.460704
  0
VERTEX
  8
FOREGROUND
  6
CONTINUOUS
 10
0.539603
 20
1.455726
  0
VERTEX
  8
FOREGROUND
  6
CONTINUOUS
 10
0.528490
 20
1.450673
  0
VERTEX
  8
FOREGROUND
  6
CONTINUOUS
 10
0.517469
 20
1.445545
  0
VERTEX
  8
FOREGROUND
  6
CONTINUOUS
 10
0.506541
 20
1.440343
  0
VERTEX
  8
FOREGROUND
  6
CONTINUOUS
 10
0.495707
 20
1.435067
  0
VERTEX
  8
FOREGROUND
  6
CONTINUOUS
 10
0.484969
 20
1.429717
  0
VERTEX
  8
FOREGROUND
  6
CONTINUOUS
 10
0.474327
 20
1.424292
  0
VERTEX
  8
FOREGROUND
  6
CONTINUOUS
 10
0.463785
 20
1.418793
  0
VERTEX
  8
FOREGROUND
  6
CONTINUOUS
 10
0.453341
 20
1.413220
  0
VERTEX
  8
FOREGROUND
  6
CONTINUOUS
 10
0.442999
 20
1.407572
  0
VERTEX
  8
FOREGROUND
  6
CONTINUOUS
 10
0.432760
 20
1.401850
  0
VERTEX
  8
FOREGROUND
  6
CONTINUOUS
 10
0.422624
 20
1.396054
  0
VERTEX
  8
FOREGROUND
  6
CONTINUOUS
 10
0.412593
 20
1.390183
  0
VERTEX
  8
FOREGROUND
  6
CONTINUOUS
 10
0.402668
 20
1.384239
  0
VERTEX
  8
FOREGROUND
  6
CONTINUOUS
 10
0.392852
 20
1.378219
  0
VERTEX
  8
FOREGROUND
  6
CONTINUOUS
 10
0.383144
 20
1.372126
  0
VERTEX
  8
FOREGROUND
  6
CONTINUOUS
 10
0.373547
 20
1.365958
  0
VERTEX
  8
FOREGROUND
  6
CONTINUOUS
 10
0.364061
 20
1.359716
  0
VERTEX
  8
FOREGROUND
  6
CONTINUOUS
 10
0.354689
 20
1.353399
  0
VERTEX
  8
FOREGROUND
  6
CONTINUOUS
 10
0.345431
 20
1.347008
  0
VERTEX
  8
FOREGROUND
  6
CONTINUOUS
 10
0.336288
 20
1.340543
  0
VERTEX
  8
FOREGROUND
  6
CONTINUOUS
 10
0.327263
 20
1.334004
  0
VERTEX
  8
FOREGROUND
  6
CONTINUOUS
 10
0.318357
 20
1.327390
  0
VERTEX
  8
FOREGROUND
  6
CONTINUOUS
 10
0.309570
 20
1.320702
  0
VERTEX
  8
FOREGROUND
  6
CONTINUOUS
 10
0.300904
 20
1.313939
  0
VERTEX
  8
FOREGROUND
  6
CONTINUOUS
 10
0.292361
 20
1.307103
  0
VERTEX
  8
FOREGROUND
  6
CONTINUOUS
 10
0.283942
 20
1.300192
  0
VERTEX
  8
FOREGROUND
  6
CONTINUOUS
 10
0.275648
 20
1.293206
  0
VERTEX
  8
FOREGROUND
  6
CONTINUOUS
 10
0.267480
 20
1.286147
  0
VERTEX
  8
FOREGROUND
  6
CONTINUOUS
 10
0.259440
 20
1.279013
  0
VERTEX
  8
FOREGROUND
  6
CONTINUOUS
 10
0.251529
 20
1.271804
  0
VERTEX
  8
FOREGROUND
  6
CONTINUOUS
 10
0.243749
 20
1.264522
  0
VERTEX
  8
FOREGROUND
  6
CONTINUOUS
 10
0.236101
 20
1.257165
  0
VERTEX
  8
FOREGROUND
  6
CONTINUOUS
 10
0.228586
 20
1.249733
  0
VERTEX
  8
FOREGROUND
  6
CONTINUOUS
 10
0.221205
 20
1.242228
  0
VERTEX
  8
FOREGROUND
  6
CONTINUOUS
 10
0.213961
 20
1.234648
  0
VERTEX
  8
FOREGROUND
  6
CONTINUOUS
 10
0.206853
 20
1.226994
  0
VERTEX
  8
FOREGROUND
  6
CONTINUOUS
 10
0.199884
 20
1.219265
  0
VERTEX
  8
FOREGROUND
  6
CONTINUOUS
 10
0.193055
 20
1.211462
  0
VERTEX
  8
FOREGROUND
  6
CONTINUOUS
 10
0.186367
 20
1.203585
  0
VERTEX
  8
FOREGROUND
  6
CONTINUOUS
 10
0.179822
 20
1.195634
  0
VERTEX
  8
FOREGROUND
  6
CONTINUOUS
 10
0.173421
 20
1.187608
  0
VERTEX
  8
FOREGROUND
  6
CONTINUOUS
 10
0.167165
 20
1.179508
  0
VERTEX
  8
FOREGROUND
  6
CONTINUOUS
 10
0.161056
 20
1.171333
  0
VERTEX
  8
FOREGROUND
  6
CONTINUOUS
 10
0.155094
 20
1.163084
  0
VERTEX
  8
FOREGROUND
  6
CONTINUOUS
 10
0.149282
 20
1.154761
  0
VERTEX
  8
FOREGROUND
  6
CONTINUOUS
 10
0.143621
 20
1.146364
  0
VERTEX
  8
FOREGROUND
  6
CONTINUOUS
 10
0.138111
 20
1.137892
  0
VERTEX
  8
FOREGROUND
  6
CONTINUOUS
 10
0.132755
 20
1.129346
  0
VERTEX
  8
FOREGROUND
  6
CONTINUOUS
 10
0.127553
 20
1.120726
  0
VERTEX
  8
FOREGROUND
  6
CONTINUOUS
 10
0.122508
 20
1.112031
  0
VERTEX
  8
FOREGROUND
  6
CONTINUOUS
 10
0.117619
 20
1.103262
  0
VERTEX
  8
FOREGROUND
  6
CONTINUOUS
 10
0.112890
 20
1.094419
  0
VERTEX
  8
FOREGROUND
  6
CONTINUOUS
 10
0.108320
 20
1.085501
  0
VERTEX
  8
FOREGROUND
  6
CONTINUOUS
 10
0.103912
 20
1.076509
  0
VERTEX
  8
FOREGROUND
  6
CONTINUOUS
 10
0.099666
 20
1.067443
  0
VERTEX
  8
FOREGROUND
  6
CONTINUOUS
 10
0.095585
 20
1.058302
  0
VERTEX
  8
FOREGROUND
  6
CONTINUOUS
 10
0.091668
 20
1.049087
  0
VERTEX
  8
FOREGROUND
  6
CONTINUOUS
 10
0.087919
 20
1.039798
  0
VERTEX
  8
FOREGROUND
  6
CONTINUOUS
 10
0.084338
 20
1.030435
  0
VERTEX
  8
FOREGROUND
  6
CONTINUOUS
 10
0.080926
 20
1.020997
  0
VERTEX
  8
FOREGROUND
  6
CONTINUOUS
 10
0.077684
 20
1.011484
  0
VERTEX
  8
FOREGROUND
  6
CONTINUOUS
 10
0.074615
 20
1.001898
  0
VERTEX
  8
FOREGROUND
  6
CONTINUOUS
 10
0.071719
 20
0.992237
  0
VERTEX
  8
FOREGROUND
  6
CONTINUOUS
 10
0.068998
 20
0.982502
  0
VERTEX
  8
FOREGROUND
  6
CONTINUOUS
 10
0.066453
 20
0.972692
  0
VERTEX
  8
FOREGROUND
  6
CONTINUOUS
 10
0.064085
 20
0.962809
  0
VERTEX
  8
FOREGROUND
  6
CONTINUOUS
 10
0.061896
 20
0.952851
  0
VERTEX
  8
FOREGROUND
  6
CONTINUOUS
 10
0.059888
 20
0.942818
  0
VERTEX
  8
FOREGROUND
  6
CONTINUOUS
 10
0.058060
 20
0.932711
  0
VERTEX
  8
FOREGROUND
  6
CONTINUOUS
 10
0.056416
 20
0.922530
  0
VERTEX
  8
FOREGROUND
  6
CONTINUOUS
 10
0.054956
 20
0.912275
  0
VERTEX
  8
FOREGROUND
  6
CONTINUOUS
 10
0.053681
 20
0.901945
  0
VERTEX
  8
FOREGROUND
  6
CONTINUOUS
 10
0.052593
 20
0.891541
  0
VERTEX
  8
FOREGROUND
  6
CONTINUOUS
 10
0.051693
 20
0.881063
  0
VERTEX
  8
FOREGROUND
  6
CONTINUOUS
 10
0.050982
 20
0.870510
  0
VERTEX
  8
FOREGROUND
  6
CONTINUOUS
 10
0.050463
 20
0.859883
  0
VERTEX
  8
FOREGROUND
  6
CONTINUOUS
 10
0.050135
 20
0.849182
  0
VERTEX
  8
FOREGROUND
  6
CONTINUOUS
 10
0.050001
 20
0.838406
  0
VERTEX
  8
FOREGROUND
  6
CONTINUOUS
 10
0.050001
 20
0.838406
  0
VERTEX
  8
FOREGROUND
  6
CONTINUOUS
 10
0.050092
 20
0.827631
  0
VERTEX
  8
FOREGROUND
  6
CONTINUOUS
 10
0.050377
 20
0.816929
  0
VERTEX
  8
FOREGROUND
  6
CONTINUOUS
 10
0.050854
 20
0.806302
  0
VERTEX
  8
FOREGROUND
  6
CONTINUOUS
 10
0.051522
 20
0.795749
  0
VERTEX
  8
FOREGROUND
  6
CONTINUOUS
 10
0.052380
 20
0.785271
  0
VERTEX
  8
FOREGROUND
  6
CONTINUOUS
 10
0.053426
 20
0.774867
  0
VERTEX
  8
FOREGROUND
  6
CONTINUOUS
 10
0.054660
 20
0.764537
  0
VERTEX
  8
FOREGROUND
  6
CONTINUOUS
 10
0.056079
 20
0.754281
  0
VERTEX
  8
FOREGROUND
  6
CONTINUOUS
 10
0.057683
 20
0.744100
  0
VERTEX
  8
FOREGROUND
  6
CONTINUOUS
 10
0.059470
 20
0.733993
  0
VERTEX
  8
FOREGROUND
  6
CONTINUOUS
 10
0.061438
 20
0.723961
  0
VERTEX
  8
FOREGROUND
  6
CONTINUOUS
 10
0.063587
 20
0.714002
  0
VERTEX
  8
FOREGROUND
  6
CONTINUOUS
 10
0.065915
 20
0.704118
  0
VERTEX
  8
FOREGROUND
  6
CONTINUOUS
 10
0.068421
 20
0.694308
  0
VERTEX
  8
FOREGROUND
  6
CONTINUOUS
 10
0.071103
 20
0.684573
  0
VERTEX
  8
FOREGROUND
  6
CONTINUOUS
 10
0.073960
 20
0.674912
  0
VERTEX
  8
FOREGROUND
  6
CONTINUOUS
 10
0.076991
 20
0.665325
  0
VERTEX
  8
FOREGROUND
  6
CONTINUOUS
 10
0.080194
 20
0.655813
  0
VERTEX
  8
FOREGROUND
  6
CONTINUOUS
 10
0.083568
 20
0.646374
  0
VERTEX
  8
FOREGROUND
  6
CONTINUOUS
 10
0.087112
 20
0.637010
  0
VERTEX
  8
FOREGROUND
  6
CONTINUOUS
 10
0.090825
 20
0.627721
  0
VERTEX
  8
FOREGROUND
  6
CONTINUOUS
 10
0.094704
 20
0.618505
  0
VERTEX
  8
FOREGROUND
  6
CONTINUOUS
 10
0.098749
 20
0.609364
  0
VERTEX
  8
FOREGROUND
  6
CONTINUOUS
 10
0.102958
 20
0.600298
  0
VERTEX
  8
FOREGROUND
  6
CONTINUOUS
 10
0.107331
 20
0.591305
  0
VERTEX
  8
FOREGROUND
  6
CONTINUOUS
 10
0.111864
 20
0.582387
  0
VERTEX
  8
FOREGROUND
  6
CONTINUOUS
 10
0.116559
 20
0.573543
  0
VERTEX
  8
FOREGROUND
  6
CONTINUOUS
 10
0.121412
 20
0.564774
  0
VERTEX
  8
FOREGROUND
  6
CONTINUOUS
 10
0.126423
 20
0.556078
  0
VERTEX
  8
FOREGROUND
  6
CONTINUOUS
 10
0.131590
 20
0.547458
  0
VERTEX
  8
FOREGROUND
  6
CONTINUOUS
 10
0.136912
 20
0.538911
  0
VERTEX
  8
FOREGROUND
  6
CONTINUOUS
 10
0.142387
 20
0.530439
  0
VERTEX
  8
FOREGROUND
  6
CONTINUOUS
 10
0.148015
 20
0.522041
  0
VERTEX
  8
FOREGROUND
  6
CONTINUOUS
 10
0.153794
 20
0.513717
  0
VERTEX
  8
FOREGROUND
  6
CONTINUOUS
 10
0.159722
 20
0.505468
  0
VERTEX
  8
FOREGROUND
  6
CONTINUOUS
 10
0.165799
 20
0.497292
  0
VERTEX
  8
FOREGROUND
  6
CONTINUOUS
 10
0.172023
 20
0.489192
  0
VERTEX
  8
FOREGROUND
  6
CONTINUOUS
 10
0.178392
 20
0.481165
  0
VERTEX
  8
FOREGROUND
  6
CONTINUOUS
 10
0.184905
 20
0.473213
  0
VERTEX
  8
FOREGROUND
  6
CONTINUOUS
 10
0.191561
 20
0.465335
  0
VERTEX
  8
FOREGROUND
  6
CONTINUOUS
 10
0.198359
 20
0.457531
  0
VERTEX
  8
FOREGROUND
  6
CONTINUOUS
 10
0.205297
 20
0.449802
  0
VERTEX
  8
FOREGROUND
  6
CONTINUOUS
 10
0.212374
 20
0.442147
  0
VERTEX
  8
FOREGROUND
  6
CONTINUOUS
 10
0.219588
 20
0.434567
  0
VERTEX
  8
FOREGROUND
  6
CONTINUOUS
 10
0.226938
 20
0.427060
  0
VERTEX
  8
FOREGROUND
  6
CONTINUOUS
 10
0.234424
 20
0.419628
  0
VERTEX
  8
FOREGROUND
  6
CONTINUOUS
 10
0.242043
 20
0.412270
  0
VERTEX
  8
FOREGROUND
  6
CONTINUOUS
 10
0.249794
 20
0.404987
  0
VERTEX
  8
FOREGROUND
  6
CONTINUOUS
 10
0.257675
 20
0.397778
  0
VERTEX
  8
FOREGROUND
  6
CONTINUOUS
 10
0.265687
 20
0.390643
  0
VERTEX
  8
FOREGROUND
  6
CONTINUOUS
 10
0.273826
 20
0.383582
  0
VERTEX
  8
FOREGROUND
  6
CONTINUOUS
 10
0.282092
 20
0.376596
  0
VERTEX
  8
FOREGROUND
  6
CONTINUOUS
 10
0.290484
 20
0.369684
  0
VERTEX
  8
FOREGROUND
  6
CONTINUOUS
 10
0.299000
 20
0.362847
  0
VERTEX
  8
FOREGROUND
  6
CONTINUOUS
 10
0.307638
 20
0.356083
  0
VERTEX
  8
FOREGROUND
  6
CONTINUOUS
 10
0.316398
 20
0.349394
  0
VERTEX
  8
FOREGROUND
  6
CONTINUOUS
 10
0.325279
 20
0.342779
  0
VERTEX
  8
FOREGROUND
  6
CONTINUOUS
 10
0.334277
 20
0.336239
  0
VERTEX
  8
FOREGROUND
  6
CONTINUOUS
 10
0.343394
 20
0.329773
  0
VERTEX
  8
FOREGROUND
  6
CONTINUOUS
 10
0.352626
 20
0.323381
  0
VERTEX
  8
FOREGROUND
  6
CONTINUOUS
 10
0.361973
 20
0.317064
  0
VERTEX
  8
FOREGROUND
  6
CONTINUOUS
 10
0.371434
 20
0.310820
  0
VERTEX
  8
FOREGROUND
  6
CONTINUOUS
 10
0.381006
 20
0.304652
  0
VERTEX
  8
FOREGROUND
  6
CONTINUOUS
 10
0.390690
 20
0.298557
  0
VERTEX
  8
FOREGROUND
  6
CONTINUOUS
 10
0.400482
 20
0.292537
  0
VERTEX
  8
FOREGROUND
  6
CONTINUOUS
 10
0.410383
 20
0.286591
  0
VERTEX
  8
FOREGROUND
  6
CONTINUOUS
 10
0.420390
 20
0.280719
  0
VERTEX
  8
FOREGROUND
  6
CONTINUOUS
 10
0.430503
 20
0.274922
  0
VERTEX
  8
FOREGROUND
  6
CONTINUOUS
 10
0.440720
 20
0.269199
  0
VERTEX
  8
FOREGROUND
  6
CONTINUOUS
 10
0.451039
 20
0.263550
  0
VERTEX
  8
FOREGROUND
  6
CONTINUOUS
 10
0.461460
 20
0.257976
  0
VERTEX
  8
FOREGROUND
  6
CONTINUOUS
 10
0.471981
 20
0.252475
  0
VERTEX
  8
FOREGROUND
  6
CONTINUOUS
 10
0.482600
 20
0.247050
  0
VERTEX
  8
FOREGROUND
  6
CONTINUOUS
 10
0.493317
 20
0.241698
  0
VERTEX
  8
FOREGROUND
  6
CONTINUOUS
 10
0.504130
 20
0.236421
  0
VERTEX
  8
FOREGROUND
  6
CONTINUOUS
 10
0.515037
 20
0.231218
  0
VERTEX
  8
FOREGROUND
  6
CONTINUOUS
 10
0.526038
 20
0.226089
  0
VERTEX
  8
FOREGROUND
  6
CONTINUOUS
 10
0.537130
 20
0.221035
  0
VERTEX
  8
FOREGROUND
  6
CONTINUOUS
 10
0.548314
 20
0.216055
  0
VERTEX
  8
FOREGROUND
  6
CONTINUOUS
 10
0.559586
 20
0.211149
  0
VERTEX
  8
FOREGROUND
  6
CONTINUOUS
 10
0.570947
 20
0.206318
  0
VERTEX
  8
FOREGROUND
  6
CONTINUOUS
 10
0.582394
 20
0.201561
  0
VERTEX
  8
FOREGROUND
  6
CONTINUOUS
 10
0.593926
 20
0.196878
  0
VERTEX
  8
FOREGROUND
  6
CONTINUOUS
 10
0.605542
 20
0.192270
  0
VERTEX
  8
FOREGROUND
  6
CONTINUOUS
 10
0.617241
 20
0.187736
  0
VERTEX
  8
FOREGROUND
  6
CONTINUOUS
 10
0.629021
 20
0.183276
  0
VERTEX
  8
FOREGROUND
  6
CONTINUOUS
 10
0.640881
 20
0.178890
  0
VERTEX
  8
FOREGROUND
  6
CONTINUOUS
 10
0.652819
 20
0.174579
  0
VERTEX
  8
FOREGROUND
  6
CONTINUOUS
 10
0.664835
 20
0.170342
  0
VERTEX
  8
FOREGROUND
  6
CONTINUOUS
 10
0.676926
 20
0.166180
  0
VERTEX
  8
FOREGROUND
  6
CONTINUOUS
 10
0.689093
 20
0.162091
  0
VERTEX
  8
FOREGROUND
  6
CONTINUOUS
 10
0.701332
 20
0.158078
  0
VERTEX
  8
FOREGROUND
  6
CONTINUOUS
 10
0.713643
 20
0.154138
  0
VERTEX
  8
FOREGROUND
  6
CONTINUOUS
 10
0.726025
 20
0.150273
  0
VERTEX
  8
FOREGROUND
  6
CONTINUOUS
 10
0.738475
 20
0.146481
  0
VERTEX
  8
FOREGROUND
  6
CONTINUOUS
 10
0.750994
 20
0.142765
  0
VERTEX
  8
FOREGROUND
  6
CONTINUOUS
 10
0.763579
 20
0.139122
  0
VERTEX
  8
FOREGROUND
  6
CONTINUOUS
 10
0.776229
 20
0.135554
  0
VERTEX
  8
FOREGROUND
  6
CONTINUOUS
 10
0.788944
 20
0.132060
  0
VERTEX
  8
FOREGROUND
  6
CONTINUOUS
 10
0.801720
 20
0.128641
  0
VERTEX
  8
FOREGROUND
  6
CONTINUOUS
 10
0.814558
 20
0.125296
  0
VERTEX
  8
FOREGROUND
  6
CONTINUOUS
 10
0.827455
 20
0.122025
  0
VERTEX
  8
FOREGROUND
  6
CONTINUOUS
 10
0.840411
 20
0.118828
  0
VERTEX
  8
FOREGROUND
  6
CONTINUOUS
 10
0.853424
 20
0.115706
  0
VERTEX
  8
FOREGROUND
  6
CONTINUOUS
 10
0.866493
 20
0.112658
  0
VERTEX
  8
FOREGROUND
  6
CONTINUOUS
 10
0.879616
 20
0.109684
  0
VERTEX
  8
FOREGROUND
  6
CONTINUOUS
 10
0.892793
 20
0.106785
  0
VERTEX
  8
FOREGROUND
  6
CONTINUOUS
 10
0.906021
 20
0.103960
  0
VERTEX
  8
FOREGROUND
  6
CONTINUOUS
 10
0.919299
 20
0.101209
  0
VERTEX
  8
FOREGROUND
  6
CONTINUOUS
 10
0.932627
 20
0.098533
  0
VERTEX
  8
FOREGROUND
  6
CONTINUOUS
 10
0.946002
 20
0.095931
  0
VERTEX
  8
FOREGROUND
  6
CONTINUOUS
 10
0.959424
 20
0.093403
  0
VERTEX
  8
FOREGROUND
  6
CONTINUOUS
 10
0.972891
 20
0.090950
  0
VERTEX
  8
FOREGROUND
  6
CONTINUOUS
 10
0.986401
 20
0.088571
  0
VERTEX
  8
FOREGROUND
  6
CONTINUOUS
 10
0.999954
 20
0.086266
  0
VERTEX
  8
FOREGROUND
  6
CONTINUOUS
 10
1.013548
 20
0.084035
  0
VERTEX
  8
FOREGROUND
  6
CONTINUOUS
 10
1.027181
 20
0.081879
  0
VERTEX
  8
FOREGROUND
  6
CONTINUOUS
 10
1.040853
 20
0.079797
  0
VERTEX
  8
FOREGROUND
  6
CONTINUOUS
 10
1.054562
 20
0.077790
  0
VERTEX
  8
FOREGROUND
  6
CONTINUOUS
 10
1.068307
 20
0.075856
  0
VERTEX
  8
FOREGROUND
  6
CONTINUOUS
 10
1.082086
 20
0.073997
  0
VERTEX
  8
FOREGROUND
  6
CONTINUOUS
 10
1.095897
 20
0.072213
  0
VERTEX
  8
FOREGROUND
  6
CONTINUOUS
 10
1.109741
 20
0.070502
  0
VERTEX
  8
FOREGROUND
  6
CONTINUOUS
 10
1.123615
 20
0.068866
  0
VERTEX
  8
FOREGROUND
  6
CONTINUOUS
 10
1.137518
 20
0.067305
  0
VERTEX
  8
FOREGROUND
  6
CONTINUOUS
 10
1.151448
 20
0.065817
  0
VERTEX
  8
FOREGROUND
  6
CONTINUOUS
 10
1.165405
 20
0.064404
  0
VERTEX
  8
FOREGROUND
  6
CONTINUOUS
 10
1.179387
 20
0.063065
  0
VERTEX
  8
FOREGROUND
  6
CONTINUOUS
 10
1.193392
 20
0.061801
  0
VERTEX
  8
FOREGROUND
  6
CONTINUOUS
 10
1.207419
 20
0.060611
  0
VERTEX
  8
FOREGROUND
  6
CONTINUOUS
 10
1.221468
 20
0.059495
  0
VERTEX
  8
FOREGROUND
  6
CONTINUOUS
 10
1.235536
 20
0.058453
  0
VERTEX
  8
FOREGROUND
  6
CONTINUOUS
 10
1.249622
 20
0.057486
  0
VERTEX
  8
FOREGROUND
  6
CONTINUOUS
 10
1.263725
 20
0.056593
  0
VERTEX
  8
FOREGROUND
  6
CONTINUOUS
 10
1.277844
 20
0.055775
  0
VERTEX
  8
FOREGROUND
  6
CONTINUOUS
 10
1.291977
 20
0.055030
  0
VERTEX
  8
FOREGROUND
  6
CONTINUOUS
 10
1.306123
 20
0.054360
  0
VERTEX
  8
FOREGROUND
  6
CONTINUOUS
 10
1.320281
 20
0.053765
  0
VERTEX
  8
FOREGROUND
  6
CONTINUOUS
 10
1.334448
 20
0.053244
  0
VERTEX
  8
FOREGROUND
  6
CONTINUOUS
 10
1.348625
 20
0.052797
  0
VERTEX
  8
FOREGROUND
  6
CONTINUOUS
 10
1.362809
 20
0.052424
  0
VERTEX
  8
FOREGROUND
  6
CONTINUOUS
 10
1.376999
 20
0.052125
  0
VERTEX
  8
FOREGROUND
  6
CONTINUOUS
 10
1.391194
 20
0.051901
  0
VERTEX
  8
FOREGROUND
  6
CONTINUOUS
 10
1.405393
 20
0.051752
  0
VERTEX
  8
FOREGROUND
  6
CONTINUOUS
 10
1.419593
 20
0.051676
  0
VERTEX
  8
FOREGROUND
  6
CONTINUOUS
 10
1.433795
 20
0.051675
  0
VERTEX
  8
FOREGROUND
  6
CONTINUOUS
 10
1.447996
 20
0.051748
  0
VERTEX
  8
FOREGROUND
  6
CONTINUOUS
 10
1.462195
 20
0.051896
  0
VERTEX
  8
FOREGROUND
  6
CONTINUOUS
 10
1.476391
 20
0.052118
  0
VERTEX
  8
FOREGROUND
  6
CONTINUOUS
 10
1.490583
 20
0.052414
  0
VERTEX
  8
FOREGROUND
  6
CONTINUOUS
 10
1.504768
 20
0.052784
  0
VERTEX
  8
FOREGROUND
  6
CONTINUOUS
 10
1.518947
 20
0.053229
  0
VERTEX
  8
FOREGROUND
  6
CONTINUOUS
 10
1.533117
 20
0.053748
  0
VERTEX
  8
FOREGROUND
  6
CONTINUOUS
 10
1.547276
 20
0.054341
  0
VERTEX
  8
FOREGROUND
  6
CONTINUOUS
 10
1.561425
 20
0.055009
  0
VERTEX
  8
FOREGROUND
  6
CONTINUOUS
 10
1.575561
 20
0.055751
  0
VERTEX
  8
FOREGROUND
  6
CONTINUOUS
 10
1.589683
 20
0.056567
  0
VERTEX
  8
FOREGROUND
  6
CONTINUOUS
 10
1.603790
 20
0.057458
  0
VERTEX
  8
FOREGROUND
  6
CONTINUOUS
 10
1.617881
 20
0.058423
  0
VERTEX
  8
FOREGROUND
  6
CONTINUOUS
 10
1.631953
 20
0.059462
  0
VERTEX
  8
FOREGROUND
  6
CONTINUOUS
 10
1.646006
 20
0.060576
  0
VERTEX
  8
FOREGROUND
  6
CONTINUOUS
 10
1.660039
 20
0.061764
  0
VERTEX
  8
FOREGROUND
  6
CONTINUOUS
 10
1.674049
 20
0.063026
  0
VERTEX
  8
FOREGROUND
  6
CONTINUOUS
 10
1.688037
 20
0.064363
  0
VERTEX
  8
FOREGROUND
  6
CONTINUOUS
 10
1.701999
 20
0.065774
  0
VERTEX
  8
FOREGROUND
  6
CONTINUOUS
 10
1.715936
 20
0.067259
  0
VERTEX
  8
FOREGROUND
  6
CONTINUOUS
 10
1.729845
 20
0.068818
  0
VERTEX
  8
FOREGROUND
  6
CONTINUOUS
 10
1.743726
 20
0.070452
  0
VERTEX
  8
FOREGROUND
  6
CONTINUOUS
 10
1.757576
 20
0.072160
  0
VERTEX
  8
FOREGROUND
  6
CONTINUOUS
 10
1.771396
 20
0.073943
  0
VERTEX
  8
FOREGROUND
  6
CONTINUOUS
 10
1.785182
 20
0.075799
  0
VERTEX
  8
FOREGROUND
  6
CONTINUOUS
 10
1.798935
 20
0.077731
  0
VERTEX
  8
FOREGROUND
  6
CONTINUOUS
 10
1.812652
 20
0.079736
  0
VERTEX
  8
FOREGROUND
  6
CONTINUOUS
 10
1.826333
 20
0.081816
  0
VERTEX
  8
FOREGROUND
  6
CONTINUOUS
 10
1.839975
 20
0.083970
  0
VERTEX
  8
FOREGROUND
  6
CONTINUOUS
 10
1.853579
 20
0.086198
  0
VERTEX
  8
FOREGROUND
  6
CONTINUOUS
 10
1.867141
 20
0.088501
  0
VERTEX
  8
FOREGROUND
  6
CONTINUOUS
 10
1.880661
 20
0.090878
  0
VERTEX
  8
FOREGROUND
  6
CONTINUOUS
 10
1.894138
 20
0.093329
  0
VERTEX
  8
FOREGROUND
  6
CONTINUOUS
 10
1.907571
 20
0.095855
  0
VERTEX
  8
FOREGROUND
  6
CONTINUOUS
 10
1.920957
 20
0.098455
  0
VERTEX
  8
FOREGROUND
  6
CONTINUOUS
 10
1.934295
 20
0.101129
  0
VERTEX
  8
FOREGROUND
  6
CONTINUOUS
 10
1.947585
 20
0.103878
  0
VERTEX
  8
FOREGROUND
  6
CONTINUOUS
 10
1.960825
 20
0.106700
  0
VERTEX
  8
FOREGROUND
  6
CONTINUOUS
 10
1.974014
 20
0.109598
  0
VERTEX
  8
FOREGROUND
  6
CONTINUOUS
 10
1.987149
 20
0.112569
  0
VERTEX
  8
FOREGROUND
  6
CONTINUOUS
 10
2.000231
 20
0.115615
  0
VERTEX
  8
FOREGROUND
  6
CONTINUOUS
 10
2.013257
 20
0.118735
  0
VERTEX
  8
FOREGROUND
  6
CONTINUOUS
 10
2.026226
 20
0.121930
  0
VERTEX
  8
FOREGROUND
  6
CONTINUOUS
 10
2.039137
 20
0.125199
  0
VERTEX
  8
FOREGROUND
  6
CONTINUOUS
 10
2.051989
 20
0.128542
  0
VERTEX
  8
FOREGROUND
  6
CONTINUOUS
 10
2.064780
 20
0.131959
  0
VERTEX
  8
FOREGROUND
  6
CONTINUOUS
 10
2.077508
 20
0.135451
  0
VERTEX
  8
FOREGROUND
  6
CONTINUOUS
 10
2.090174
 20
0.139017
  0
VERTEX
  8
FOREGROUND
  6
CONTINUOUS
 10
2.102774
 20
0.142658
  0
VERTEX
  8
FOREGROUND
  6
CONTINUOUS
 10
2.115308
 20
0.146372
  0
VERTEX
  8
FOREGROUND
  6
CONTINUOUS
 10
2.127775
 20
0.150161
  0
VERTEX
  8
FOREGROUND
  6
CONTINUOUS
 10
2.140172
 20
0.154025
  0
VERTEX
  8
FOREGROUND
  6
CONTINUOUS
 10
2.152500
 20
0.157962
  0
VERTEX
  8
FOREGROUND
  6
CONTINUOUS
 10
2.164756
 20
0.161974
  0
VERTEX
  8
FOREGROUND
  6
CONTINUOUS
 10
2.176939
 20
0.166061
  0
VERTEX
  8
FOREGROUND
  6
CONTINUOUS
 10
2.189048
 20
0.170221
  0
VERTEX
  8
FOREGROUND
  6
CONTINUOUS
 10
2.201081
 20
0.174456
  0
VERTEX
  8
FOREGROUND
  6
CONTINUOUS
 10
2.213038
 20
0.178766
  0
VERTEX
  8
FOREGROUND
  6
CONTINUOUS
 10
2.224916
 20
0.183149
  0
VERTEX
  8
FOREGROUND
  6
CONTINUOUS
 10
2.236714
 20
0.187607
  0
VERTEX
  8
FOREGROUND
  6
CONTINUOUS
 10
2.248432
 20
0.192140
  0
VERTEX
  8
FOREGROUND
  6
CONTINUOUS
 10
2.260067
 20
0.196746
  0
VERTEX
  8
FOREGROUND
  6
CONTINUOUS
 10
2.271619
 20
0.201427
  0
VERTEX
  8
FOREGROUND
  6
CONTINUOUS
 10
2.283086
 20
0.206182
  0
VERTEX
  8
FOREGROUND
  6
CONTINUOUS
 10
2.294467
 20
0.211012
  0
VERTEX
  8
FOREGROUND
  6
CONTINUOUS
 10
2.305760
 20
0.215916
  0
VERTEX
  8
FOREGROUND
  6
CONTINUOUS
 10
2.316964
 20
0.220894
  0
VERTEX
  8
FOREGROUND
  6
CONTINUOUS
 10
2.328077
 20
0.225946
  0
VERTEX
  8
FOREGROUND
  6
CONTINUOUS
 10
2.339099
 20
0.231073
  0
VERTEX
  8
FOREGROUND
  6
CONTINUOUS
 10
2.350028
 20
0.236274
  0
VERTEX
  8
FOREGROUND
  6
CONTINUOUS
 10
2.360863
 20
0.241550
  0
VERTEX
  8
FOREGROUND
  6
CONTINUOUS
 10
2.371602
 20
0.246900
  0
VERTEX
  8
FOREGROUND
  6
CONTINUOUS
 10
2.382244
 20
0.252324
  0
VERTEX
  8
FOREGROUND
  6
CONTINUOUS
 10
2.392788
 20
0.257822
  0
VERTEX
  8
FOREGROUND
  6
CONTINUOUS
 10
2.403232
 20
0.263395
  0
VERTEX
  8
FOREGROUND
  6
CONTINUOUS
 10
2.413575
 20
0.269042
  0
VERTEX
  8
FOREGROUND
  6
CONTINUOUS
 10
2.423815
 20
0.274764
  0
VERTEX
  8
FOREGROUND
  6
CONTINUOUS
 10
2.433952
 20
0.280559
  0
VERTEX
  8
FOREGROUND
  6
CONTINUOUS
 10
2.443984
 20
0.286429
  0
VERTEX
  8
FOREGROUND
  6
CONTINUOUS
 10
2.453910
 20
0.292374
  0
VERTEX
  8
FOREGROUND
  6
CONTINUOUS
 10
2.463727
 20
0.298393
  0
VERTEX
  8
FOREGROUND
  6
CONTINUOUS
 10
2.473436
 20
0.304486
  0
VERTEX
  8
FOREGROUND
  6
CONTINUOUS
 10
2.483034
 20
0.310653
  0
VERTEX
  8
FOREGROUND
  6
CONTINUOUS
 10
2.492521
 20
0.316895
  0
VERTEX
  8
FOREGROUND
  6
CONTINUOUS
 10
2.501894
 20
0.323211
  0
VERTEX
  8
FOREGROUND
  6
CONTINUOUS
 10
2.511153
 20
0.329601
  0
VERTEX
  8
FOREGROUND
  6
CONTINUOUS
 10
2.520297
 20
0.336066
  0
VERTEX
  8
FOREGROUND
  6
CONTINUOUS
 10
2.529323
 20
0.342605
  0
VERTEX
  8
FOREGROUND
  6
CONTINUOUS
 10
2.538230
 20
0.349218
  0
VERTEX
  8
FOREGROUND
  6
CONTINUOUS
 10
2.547018
 20
0.355906
  0
VERTEX
  8
FOREGROUND
  6
CONTINUOUS
 10
2.555685
 20
0.362668
  0
VERTEX
  8
FOREGROUND
  6
CONTINUOUS
 10
2.564229
 20
0.369504
  0
VERTEX
  8
FOREGROUND
  6
CONTINUOUS
 10
2.572650
 20
0.376414
  0
VERTEX
  8
FOREGROUND
  6
CONTINUOUS
 10
2.580945
 20
0.383399
  0
VERTEX
  8
FOREGROUND
  6
CONTINUOUS
 10
2.589114
 20
0.390459
  0
VERTEX
  8
FOREGROUND
  6
CONTINUOUS
 10
2.597155
 20
0.397592
  0
VERTEX
  8
FOREGROUND
  6
CONTINUOUS
 10
2.605067
 20
0.404800
  0
VERTEX
  8
FOREGROUND
  6
CONTINUOUS
 10
2.612848
 20
0.412082
  0
VERTEX
  8
FOREGROUND
  6
CONTINUOUS
 10
2.620498
 20
0.419439
  0
VERTEX
  8
FOREGROUND
  6
CONTINUOUS
 10
2.628014
 20
0.426870
  0
VERTEX
  8
FOREGROUND
  6
CONTINUOUS
 10
2.635396
 20
0.434375
  0
VERTEX
  8
FOREGROUND
  6
CONTINUOUS
 10
2.642642
 20
0.441954
  0
VERTEX
  8
FOREGROUND
  6
CONTINUOUS
 10
2.649750
 20
0.449608
  0
VERTEX
  8
FOREGROUND
  6
CONTINUOUS
 10
2.656721
 20
0.457336
  0
VERTEX
  8
FOREGROUND
  6
CONTINUOUS
 10
2.663551
 20
0.465139
  0
VERTEX
  8
FOREGROUND
  6
CONTINUOUS
 10
2.670240
 20
0.473016
  0
VERTEX
  8
FOREGROUND
  6
CONTINUOUS
 10
2.676786
 20
0.480967
  0
VERTEX
  8
FOREGROUND
  6
CONTINUOUS
 10
2.683189
 20
0.488992
  0
VERTEX
  8
FOREGROUND
  6
CONTINUOUS
 10
2.689446
 20
0.497092
  0
VERTEX
  8
FOREGROUND
  6
CONTINUOUS
 10
2.695557
 20
0.505266
  0
VERTEX
  8
FOREGROUND
  6
CONTINUOUS
 10
2.701520
 20
0.513515
  0
VERTEX
  8
FOREGROUND
  6
CONTINUOUS
 10
2.707333
 20
0.521838
  0
VERTEX
  8
FOREGROUND
  6
CONTINUOUS
 10
2.712996
 20
0.530235
  0
VERTEX
  8
FOREGROUND
  6
CONTINUOUS
 10
2.718507
 20
0.538706
  0
VERTEX
  8
FOREGROUND
  6
CONTINUOUS
 10
2.723864
 20
0.547252
  0
VERTEX
  8
FOREGROUND
  6
CONTINUOUS
 10
2.729067
 20
0.555872
  0
VERTEX
  8
FOREGROUND
  6
CONTINUOUS
 10
2.734114
 20
0.564566
  0
VERTEX
  8
FOREGROUND
  6
CONTINUOUS
 10
2.739004
 20
0.573335
  0
VERTEX
  8
FOREGROUND
  6
CONTINUOUS
 10
2.743735
 20
0.582178
  0
VERTEX
  8
FOREGROUND
  6
CONTINUOUS
 10
2.748306
 20
0.591096
  0
VERTEX
  8
FOREGROUND
  6
CONTINUOUS
 10
2.752716
 20
0.600087
  0
VERTEX
  8
FOREGROUND
  6
CONTINUOUS
 10
2.756963
 20
0.609154
  0
VERTEX
  8
FOREGROUND
  6
CONTINUOUS
 10
2.761046
 20
0.618294
  0
VERTEX
  8
FOREGROUND
  6
CONTINUOUS
 10
2.764964
 20
0.627509
  0
VERTEX
  8
FOREGROUND
  6
CONTINUOUS
 10
2.768715
 20
0.636798
  0
VERTEX
  8
FOREGROUND
  6
CONTINUOUS
 10
2.772298
 20
0.646161
  0
VERTEX
  8
FOREGROUND
  6
CONTINUOUS
 10
2.775711
 20
0.655599
  0
VERTEX
  8
FOREGROUND
  6
CONTINUOUS
 10
2.778954
 20
0.665111
  0
VERTEX
  8
FOREGROUND
  6
CONTINUOUS
 10
2.782025
 20
0.674697
  0
VERTEX
  8
FOREGROUND
  6
CONTINUOUS
 10
2.784923
 20
0.684358
  0
VERTEX
  8
FOREGROUND
  6
CONTINUOUS
 10
2.787645
 20
0.694093
  0
VERTEX
  8
FOREGROUND
  6
CONTINUOUS
 10
2.790192
 20
0.703902
  0
VERTEX
  8
FOREGROUND
  6
CONTINUOUS
 10
2.792561
 20
0.713786
  0
VERTEX
  8
FOREGROUND
  6
CONTINUOUS
 10
2.794751
 20
0.723744
  0
VERTEX
  8
FOREGROUND
  6
CONTINUOUS
 10
2.796762
 20
0.733776
  0
VERTEX
  8
FOREGROUND
  6
CONTINUOUS
 10
2.798591
 20
0.743883
  0
VERTEX
  8
FOREGROUND
  6
CONTINUOUS
 10
2.800237
 20
0.754064
  0
VERTEX
  8
FOREGROUND
  6
CONTINUOUS
 10
2.801699
 20
0.764319
  0
VERTEX
  8
FOREGROUND
  6
CONTINUOUS
 10
2.802975
 20
0.774649
  0
VERTEX
  8
FOREGROUND
  6
CONTINUOUS
 10
2.804065
 20
0.785053
  0
VERTEX
  8
FOREGROUND
  6
CONTINUOUS
 10
2.804967
 20
0.795531
  0
VERTEX
  8
FOREGROUND
  6
CONTINUOUS
 10
2.805679
 20
0.806084
  0
VERTEX
  8
FOREGROUND
  6
CONTINUOUS
 10
2.806200
 20
0.816711
  0
VERTEX
  8
FOREGROUND
  6
CONTINUOUS
 10
2.806530
 20
0.827412
  0
VERTEX
  8
FOREGROUND
  6
CONTINUOUS
 10
2.806665
 20
0.838188
  0
SEQEND
  8
0
  0
ENDSEC
  0
EOF
