  0
SECTION
  2
HEADER
  9
$ACADVER
  1
AC1006
  9
$EXTMIN
 10
0.000000
 20
0.000000
  9
$EXTMAX
 10
2.856667
 20
2.070000
  9
$LTSCALE
 40
0.166667
  9
$PDMODE
 70
    35
  9
$PDSIZE
 40
0.133333
  0
ENDSEC
  0
SECTION
  2
TABLES
  0
TABLE
  2
LTYPE
 70
     9
  0
LTYPE
  2
CONTINUOUS
 70
    64
  3
Solid line
 72
    65
 73
     0
 40
0.000000
  0
LTYPE
  2
DASHED
 70
    64
  3
__ __ __ __ __ __ __ __ __ __ __ __ __ __ __
 72
    65
 73
     2
 40
0.001250
 49
0.000833
 49
-0.000417
  0
LTYPE
  2
HIDDEN
 70
    64
  3
 _ _ _ _ _ _ _ _ _ _ _ _ _ _ _ _ _ _ _ _ _ _
 72
    65
 73
     2
 40
0.000625
 49
0.000417
 49
-0.000208
  0
LTYPE
  2
CENTER
 70
    64
  3
____ _ ____ _ ____ _ ____ _ ____ _ ____ _ ____
 72
    65
 73
     4
 40
0.003333
 49
0.002083
 49
-0.000417
 49
0.000417
 49
-0.000417
  0
LTYPE
  2
PHANTOM
 70
    64
  3
_____ _ _ _____ _ _ _____ _ _ _____ _ _ ____
 72
    65
 73
     6
 40
0.004167
 49
0.002083
 49
-0.000417
 49
0.000417
 49
-0.000417
 49
0.000417
 49
-0.000417
  0
LTYPE
  2
DOT
 70
    64
  3
...............................................
 72
    65
 73
     2
 40
0.000417
 49
0.000000
 49
-0.000417
  0
LTYPE
  2
DASHDOT
 70
    64
  3
__ . __ . __ . __ . __ . __ . __ . __ . __ . __
 72
    65
 73
     4
 40
0.001667
 49
0.000833
 49
-0.000417
 49
0.000000
 49
-0.000417
  0
LTYPE
  2
BORDER
 70
    64
  3
__ __ . __ __ . __ __ . __ __ . __ __ . __ __
 72
    65
 73
     6
 40
0.002917
 49
0.000833
 49
-0.000417
 49
0.000833
 49
-0.000417
 49
0.000000
 49
-0.000417
  0
LTYPE
  2
DIVIDE
 70
    64
  3
__ . . __ . . __ . . __ . . __ . . __ . . __
 72
    65
 73
     6
 40
0.002083
 49
0.000833
 49
-0.000417
 49
0.000000
 49
-0.000417
 49
0.000000
 49
-0.000417
  0
LTYPE
  2
DOTDOT
 70
    64
  3
 . .  . .  . .  . .  . .  . . 
 72
    65
 73
     5
 40
0.000917
 49
-0.000417
 49
0.000000
 49
-0.000417
 49
0.000000
 49
-0.000417
  0
ENDTAB
  0
TABLE
  2
STYLE
 70
     2
  0
STYLE
 70
     0
  2
SN0
 40
0.000000
 41
0.001667
 50
0.000000
 71
     0
 42
0.000000
  3
ROMAND
  0
STYLE
 70
    68
  2
SV0
 40
0.000000
 41
0.001667
 50
0.000000
 71
     0
 42
0.000000
  3
ROMAND
  0
ENDTAB
  0
TABLE
  2
LAYER
 70
     2
  0
LAYER
  2
FOREGROUND
 70
    64
 62
     7
  6
CONTINUOUS
  0
LAYER
  2
BACKGROUND
 70
    65
 62
    -7
  6
CONTINUOUS
  0
ENDTAB
  0
ENDSEC
  0
SECTION
  2
ENTITIES
  0
POLYLINE
  8
FOREGROUND
  6
CONTINUOUS
 66
     1
 40
0.010000
 41
0.010000
 70
     1
  0
VERTEX
  8
FOREGROUND
  6
CONTINUOUS
 10
2.806666
 20
1.035000
  0
VERTEX
  8
FOREGROUND
  6
CONTINUOUS
 10
2.806574
 20
1.047917
  0
VERTEX
  8
FOREGROUND
  6
CONTINUOUS
 10
2.806303
 20
1.060749
  0
VERTEX
  8
FOREGROUND
  6
CONTINUOUS
 10
2.805857
 20
1.073496
  0
VERTEX
  8
FOREGROUND
  6
CONTINUOUS
 10
2.805235
 20
1.086158
  0
VERTEX
  8
FOREGROUND
  6
CONTINUOUS
 10
2.804439
 20
1.098734
  0
VERTEX
  8
FOREGROUND
  6
CONTINUOUS
 10
2.803471
 20
1.111225
  0
VERTEX
  8
FOREGROUND
  6
CONTINUOUS
 10
2.802330
 20
1.123631
  0
VERTEX
  8
FOREGROUND
  6
CONTINUOUS
 10
2.801019
 20
1.135951
  0
VERTEX
  8
FOREGROUND
  6
CONTINUOUS
 10
2.799539
 20
1.148186
  0
VERTEX
  8
FOREGROUND
  6
CONTINUOUS
 10
2.797891
 20
1.160336
  0
VERTEX
  8
FOREGROUND
  6
CONTINUOUS
 10
2.796075
 20
1.172401
  0
VERTEX
  8
FOREGROUND
  6
CONTINUOUS
 10
2.794094
 20
1.184381
  0
VERTEX
  8
FOREGROUND
  6
CONTINUOUS
 10
2.791948
 20
1.196275
  0
VERTEX
  8
FOREGROUND
  6
CONTINUOUS
 10
2.789639
 20
1.208084
  0
VERTEX
  8
FOREGROUND
  6
CONTINUOUS
 10
2.787167
 20
1.219807
  0
VERTEX
  8
FOREGROUND
  6
CONTINUOUS
 10
2.784534
 20
1.231446
  0
VERTEX
  8
FOREGROUND
  6
CONTINUOUS
 10
2.781741
 20
1.242999
  0
VERTEX
  8
FOREGROUND
  6
CONTINUOUS
 10
2.778790
 20
1.254467
  0
VERTEX
  8
FOREGROUND
  6
CONTINUOUS
 10
2.775681
 20
1.265850
  0
VERTEX
  8
FOREGROUND
  6
CONTINUOUS
 10
2.772415
 20
1.277147
  0
VERTEX
  8
FOREGROUND
  6
CONTINUOUS
 10
2.768995
 20
1.288359
  0
VERTEX
  8
FOREGROUND
  6
CONTINUOUS
 10
2.765420
 20
1.299486
  0
VERTEX
  8
FOREGROUND
  6
CONTINUOUS
 10
2.761692
 20
1.310528
  0
VERTEX
  8
FOREGROUND
  6
CONTINUOUS
 10
2.757813
 20
1.321484
  0
VERTEX
  8
FOREGROUND
  6
CONTINUOUS
 10
2.753783
 20
1.332355
  0
VERTEX
  8
FOREGROUND
  6
CONTINUOUS
 10
2.749604
 20
1.343141
  0
VERTEX
  8
FOREGROUND
  6
CONTINUOUS
 10
2.745276
 20
1.353842
  0
VERTEX
  8
FOREGROUND
  6
CONTINUOUS
 10
2.740802
 20
1.364457
  0
VERTEX
  8
FOREGROUND
  6
CONTINUOUS
 10
2.736181
 20
1.374987
  0
VERTEX
  8
FOREGROUND
  6
CONTINUOUS
 10
2.731416
 20
1.385432
  0
VERTEX
  8
FOREGROUND
  6
CONTINUOUS
 10
2.726508
 20
1.395792
  0
VERTEX
  8
FOREGROUND
  6
CONTINUOUS
 10
2.721457
 20
1.406066
  0
VERTEX
  8
FOREGROUND
  6
CONTINUOUS
 10
2.716265
 20
1.416255
  0
VERTEX
  8
FOREGROUND
  6
CONTINUOUS
 10
2.710933
 20
1.426359
  0
VERTEX
  8
FOREGROUND
  6
CONTINUOUS
 10
2.705463
 20
1.436377
  0
VERTEX
  8
FOREGROUND
  6
CONTINUOUS
 10
2.699854
 20
1.446311
  0
VERTEX
  8
FOREGROUND
  6
CONTINUOUS
 10
2.694110
 20
1.456159
  0
VERTEX
  8
FOREGROUND
  6
CONTINUOUS
 10
2.688230
 20
1.465921
  0
VERTEX
  8
FOREGROUND
  6
CONTINUOUS
 10
2.682215
 20
1.475599
  0
VERTEX
  8
FOREGROUND
  6
CONTINUOUS
 10
2.676069
 20
1.485191
  0
VERTEX
  8
FOREGROUND
  6
CONTINUOUS
 10
2.669790
 20
1.494698
  0
VERTEX
  8
FOREGROUND
  6
CONTINUOUS
 10
2.663381
 20
1.504120
  0
VERTEX
  8
FOREGROUND
  6
CONTINUOUS
 10
2.656842
 20
1.513456
  0
VERTEX
  8
FOREGROUND
  6
CONTINUOUS
 10
2.650175
 20
1.522708
  0
VERTEX
  8
FOREGROUND
  6
CONTINUOUS
 10
2.643381
 20
1.531874
  0
VERTEX
  8
FOREGROUND
  6
CONTINUOUS
 10
2.636462
 20
1.540954
  0
VERTEX
  8
FOREGROUND
  6
CONTINUOUS
 10
2.629417
 20
1.549950
  0
VERTEX
  8
FOREGROUND
  6
CONTINUOUS
 10
2.622249
 20
1.558860
  0
VERTEX
  8
FOREGROUND
  6
CONTINUOUS
 10
2.614959
 20
1.567685
  0
VERTEX
  8
FOREGROUND
  6
CONTINUOUS
 10
2.607548
 20
1.576425
  0
VERTEX
  8
FOREGROUND
  6
CONTINUOUS
 10
2.600016
 20
1.585079
  0
VERTEX
  8
FOREGROUND
  6
CONTINUOUS
 10
2.592366
 20
1.593648
  0
VERTEX
  8
FOREGROUND
  6
CONTINUOUS
 10
2.584598
 20
1.602132
  0
VERTEX
  8
FOREGROUND
  6
CONTINUOUS
 10
2.576714
 20
1.610531
  0
VERTEX
  8
FOREGROUND
  6
CONTINUOUS
 10
2.568715
 20
1.618844
  0
VERTEX
  8
FOREGROUND
  6
CONTINUOUS
 10
2.560601
 20
1.627072
  0
VERTEX
  8
FOREGROUND
  6
CONTINUOUS
 10
2.552375
 20
1.635215
  0
VERTEX
  8
FOREGROUND
  6
CONTINUOUS
 10
2.544036
 20
1.643273
  0
VERTEX
  8
FOREGROUND
  6
CONTINUOUS
 10
2.535588
 20
1.651245
  0
VERTEX
  8
FOREGROUND
  6
CONTINUOUS
 10
2.527029
 20
1.659132
  0
VERTEX
  8
FOREGROUND
  6
CONTINUOUS
 10
2.518363
 20
1.666934
  0
VERTEX
  8
FOREGROUND
  6
CONTINUOUS
 10
2.509589
 20
1.674650
  0
VERTEX
  8
FOREGROUND
  6
CONTINUOUS
 10
2.500710
 20
1.682282
  0
VERTEX
  8
FOREGROUND
  6
CONTINUOUS
 10
2.491726
 20
1.689828
  0
VERTEX
  8
FOREGROUND
  6
CONTINUOUS
 10
2.482638
 20
1.697289
  0
VERTEX
  8
FOREGROUND
  6
CONTINUOUS
 10
2.473448
 20
1.704664
  0
VERTEX
  8
FOREGROUND
  6
CONTINUOUS
 10
2.464157
 20
1.711954
  0
VERTEX
  8
FOREGROUND
  6
CONTINUOUS
 10
2.454766
 20
1.719159
  0
VERTEX
  8
FOREGROUND
  6
CONTINUOUS
 10
2.445276
 20
1.726279
  0
VERTEX
  8
FOREGROUND
  6
CONTINUOUS
 10
2.435689
 20
1.733314
  0
VERTEX
  8
FOREGROUND
  6
CONTINUOUS
 10
2.426005
 20
1.740263
  0
VERTEX
  8
FOREGROUND
  6
CONTINUOUS
 10
2.416225
 20
1.747127
  0
VERTEX
  8
FOREGROUND
  6
CONTINUOUS
 10
2.406352
 20
1.753905
  0
VERTEX
  8
FOREGROUND
  6
CONTINUOUS
 10
2.396386
 20
1.760599
  0
VERTEX
  8
FOREGROUND
  6
CONTINUOUS
 10
2.386327
 20
1.767207
  0
VERTEX
  8
FOREGROUND
  6
CONTINUOUS
 10
2.376179
 20
1.773730
  0
VERTEX
  8
FOREGROUND
  6
CONTINUOUS
 10
2.365941
 20
1.780168
  0
VERTEX
  8
FOREGROUND
  6
CONTINUOUS
 10
2.355614
 20
1.786520
  0
VERTEX
  8
FOREGROUND
  6
CONTINUOUS
 10
2.345201
 20
1.792787
  0
VERTEX
  8
FOREGROUND
  6
CONTINUOUS
 10
2.334701
 20
1.798969
  0
VERTEX
  8
FOREGROUND
  6
CONTINUOUS
 10
2.324117
 20
1.805066
  0
VERTEX
  8
FOREGROUND
  6
CONTINUOUS
 10
2.313450
 20
1.811077
  0
VERTEX
  8
FOREGROUND
  6
CONTINUOUS
 10
2.302700
 20
1.817003
  0
VERTEX
  8
FOREGROUND
  6
CONTINUOUS
 10
2.291869
 20
1.822844
  0
VERTEX
  8
FOREGROUND
  6
CONTINUOUS
 10
2.280958
 20
1.828600
  0
VERTEX
  8
FOREGROUND
  6
CONTINUOUS
 10
2.269968
 20
1.834270
  0
VERTEX
  8
FOREGROUND
  6
CONTINUOUS
 10
2.258900
 20
1.839855
  0
VERTEX
  8
FOREGROUND
  6
CONTINUOUS
 10
2.247756
 20
1.845355
  0
VERTEX
  8
FOREGROUND
  6
CONTINUOUS
 10
2.236536
 20
1.850770
  0
VERTEX
  8
FOREGROUND
  6
CONTINUOUS
 10
2.225243
 20
1.856099
  0
VERTEX
  8
FOREGROUND
  6
CONTINUOUS
 10
2.213876
 20
1.861343
  0
VERTEX
  8
FOREGROUND
  6
CONTINUOUS
 10
2.202438
 20
1.866502
  0
VERTEX
  8
FOREGROUND
  6
CONTINUOUS
 10
2.190929
 20
1.871575
  0
VERTEX
  8
FOREGROUND
  6
CONTINUOUS
 10
2.179351
 20
1.876563
  0
VERTEX
  8
FOREGROUND
  6
CONTINUOUS
 10
2.167704
 20
1.881466
  0
VERTEX
  8
FOREGROUND
  6
CONTINUOUS
 10
2.155991
 20
1.886284
  0
VERTEX
  8
FOREGROUND
  6
CONTINUOUS
 10
2.144211
 20
1.891017
  0
VERTEX
  8
FOREGROUND
  6
CONTINUOUS
 10
2.132367
 20
1.895664
  0
VERTEX
  8
FOREGROUND
  6
CONTINUOUS
 10
2.120459
 20
1.900226
  0
VERTEX
  8
FOREGROUND
  6
CONTINUOUS
 10
2.108489
 20
1.904702
  0
VERTEX
  8
FOREGROUND
  6
CONTINUOUS
 10
2.096457
 20
1.909094
  0
VERTEX
  8
FOREGROUND
  6
CONTINUOUS
 10
2.084366
 20
1.913400
  0
VERTEX
  8
FOREGROUND
  6
CONTINUOUS
 10
2.072216
 20
1.917621
  0
VERTEX
  8
FOREGROUND
  6
CONTINUOUS
 10
2.060008
 20
1.921757
  0
VERTEX
  8
FOREGROUND
  6
CONTINUOUS
 10
2.047743
 20
1.925807
  0
VERTEX
  8
FOREGROUND
  6
CONTINUOUS
 10
2.035423
 20
1.929772
  0
VERTEX
  8
FOREGROUND
  6
CONTINUOUS
 10
2.023049
 20
1.933652
  0
VERTEX
  8
FOREGROUND
  6
CONTINUOUS
 10
2.010622
 20
1.937447
  0
VERTEX
  8
FOREGROUND
  6
CONTINUOUS
 10
1.998144
 20
1.941156
  0
VERTEX
  8
FOREGROUND
  6
CONTINUOUS
 10
1.985614
 20
1.944780
  0
VERTEX
  8
FOREGROUND
  6
CONTINUOUS
 10
1.973035
 20
1.948319
  0
VERTEX
  8
FOREGROUND
  6
CONTINUOUS
 10
1.960408
 20
1.951772
  0
VERTEX
  8
FOREGROUND
  6
CONTINUOUS
 10
1.947734
 20
1.955141
  0
VERTEX
  8
FOREGROUND
  6
CONTINUOUS
 10
1.935014
 20
1.958424
  0
VERTEX
  8
FOREGROUND
  6
CONTINUOUS
 10
1.922249
 20
1.961621
  0
VERTEX
  8
FOREGROUND
  6
CONTINUOUS
 10
1.909441
 20
1.964734
  0
VERTEX
  8
FOREGROUND
  6
CONTINUOUS
 10
1.896590
 20
1.967761
  0
VERTEX
  8
FOREGROUND
  6
CONTINUOUS
 10
1.883698
 20
1.970703
  0
VERTEX
  8
FOREGROUND
  6
CONTINUOUS
 10
1.870766
 20
1.973560
  0
VERTEX
  8
FOREGROUND
  6
CONTINUOUS
 10
1.857795
 20
1.976331
  0
VERTEX
  8
FOREGROUND
  6
CONTINUOUS
 10
1.844786
 20
1.979018
  0
VERTEX
  8
FOREGROUND
  6
CONTINUOUS
 10
1.831741
 20
1.981618
  0
VERTEX
  8
FOREGROUND
  6
CONTINUOUS
 10
1.818661
 20
1.984134
  0
VERTEX
  8
FOREGROUND
  6
CONTINUOUS
 10
1.805546
 20
1.986565
  0
VERTEX
  8
FOREGROUND
  6
CONTINUOUS
 10
1.792398
 20
1.988910
  0
VERTEX
  8
FOREGROUND
  6
CONTINUOUS
 10
1.779219
 20
1.991170
  0
VERTEX
  8
FOREGROUND
  6
CONTINUOUS
 10
1.766009
 20
1.993344
  0
VERTEX
  8
FOREGROUND
  6
CONTINUOUS
 10
1.752769
 20
1.995434
  0
VERTEX
  8
FOREGROUND
  6
CONTINUOUS
 10
1.739501
 20
1.997438
  0
VERTEX
  8
FOREGROUND
  6
CONTINUOUS
 10
1.726206
 20
1.999357
  0
VERTEX
  8
FOREGROUND
  6
CONTINUOUS
 10
1.712885
 20
2.001190
  0
VERTEX
  8
FOREGROUND
  6
CONTINUOUS
 10
1.699540
 20
2.002939
  0
VERTEX
  8
FOREGROUND
  6
CONTINUOUS
 10
1.686171
 20
2.004602
  0
VERTEX
  8
FOREGROUND
  6
CONTINUOUS
 10
1.672779
 20
2.006179
  0
VERTEX
  8
FOREGROUND
  6
CONTINUOUS
 10
1.659366
 20
2.007672
  0
VERTEX
  8
FOREGROUND
  6
CONTINUOUS
 10
1.645933
 20
2.009079
  0
VERTEX
  8
FOREGROUND
  6
CONTINUOUS
 10
1.632481
 20
2.010401
  0
VERTEX
  8
FOREGROUND
  6
CONTINUOUS
 10
1.619011
 20
2.011638
  0
VERTEX
  8
FOREGROUND
  6
CONTINUOUS
 10
1.605525
 20
2.012789
  0
VERTEX
  8
FOREGROUND
  6
CONTINUOUS
 10
1.592024
 20
2.013856
  0
VERTEX
  8
FOREGROUND
  6
CONTINUOUS
 10
1.578508
 20
2.014837
  0
VERTEX
  8
FOREGROUND
  6
CONTINUOUS
 10
1.564980
 20
2.015732
  0
VERTEX
  8
FOREGROUND
  6
CONTINUOUS
 10
1.551439
 20
2.016543
  0
VERTEX
  8
FOREGROUND
  6
CONTINUOUS
 10
1.537888
 20
2.017268
  0
VERTEX
  8
FOREGROUND
  6
CONTINUOUS
 10
1.524327
 20
2.017908
  0
VERTEX
  8
FOREGROUND
  6
CONTINUOUS
 10
1.510758
 20
2.018463
  0
VERTEX
  8
FOREGROUND
  6
CONTINUOUS
 10
1.497182
 20
2.018932
  0
VERTEX
  8
FOREGROUND
  6
CONTINUOUS
 10
1.483600
 20
2.019316
  0
VERTEX
  8
FOREGROUND
  6
CONTINUOUS
 10
1.470013
 20
2.019615
  0
VERTEX
  8
FOREGROUND
  6
CONTINUOUS
 10
1.456423
 20
2.019829
  0
VERTEX
  8
FOREGROUND
  6
CONTINUOUS
 10
1.442830
 20
2.019957
  0
VERTEX
  8
FOREGROUND
  6
CONTINUOUS
 10
1.429236
 20
2.020000
  0
VERTEX
  8
FOREGROUND
  6
CONTINUOUS
 10
1.415642
 20
2.019958
  0
VERTEX
  8
FOREGROUND
  6
CONTINUOUS
 10
1.402049
 20
2.019830
  0
VERTEX
  8
FOREGROUND
  6
CONTINUOUS
 10
1.388458
 20
2.019618
  0
VERTEX
  8
FOREGROUND
  6
CONTINUOUS
 10
1.374871
 20
2.019320
  0
VERTEX
  8
FOREGROUND
  6
CONTINUOUS
 10
1.361288
 20
2.018936
  0
VERTEX
  8
FOREGROUND
  6
CONTINUOUS
 10
1.347711
 20
2.018468
  0
VERTEX
  8
FOREGROUND
  6
CONTINUOUS
 10
1.334141
 20
2.017914
  0
VERTEX
  8
FOREGROUND
  6
CONTINUOUS
 10
1.320579
 20
2.017275
  0
VERTEX
  8
FOREGROUND
  6
CONTINUOUS
 10
1.307027
 20
2.016551
  0
VERTEX
  8
FOREGROUND
  6
CONTINUOUS
 10
1.293485
 20
2.015741
  0
VERTEX
  8
FOREGROUND
  6
CONTINUOUS
 10
1.279955
 20
2.014847
  0
VERTEX
  8
FOREGROUND
  6
CONTINUOUS
 10
1.266437
 20
2.013867
  0
VERTEX
  8
FOREGROUND
  6
CONTINUOUS
 10
1.252934
 20
2.012801
  0
VERTEX
  8
FOREGROUND
  6
CONTINUOUS
 10
1.239445
 20
2.011651
  0
VERTEX
  8
FOREGROUND
  6
CONTINUOUS
 10
1.225974
 20
2.010415
  0
VERTEX
  8
FOREGROUND
  6
CONTINUOUS
 10
1.212519
 20
2.009094
  0
VERTEX
  8
FOREGROUND
  6
CONTINUOUS
 10
1.199084
 20
2.007687
  0
VERTEX
  8
FOREGROUND
  6
CONTINUOUS
 10
1.185668
 20
2.006196
  0
VERTEX
  8
FOREGROUND
  6
CONTINUOUS
 10
1.172274
 20
2.004619
  0
VERTEX
  8
FOREGROUND
  6
CONTINUOUS
 10
1.158901
 20
2.002956
  0
VERTEX
  8
FOREGROUND
  6
CONTINUOUS
 10
1.145552
 20
2.001209
  0
VERTEX
  8
FOREGROUND
  6
CONTINUOUS
 10
1.132228
 20
1.999376
  0
VERTEX
  8
FOREGROUND
  6
CONTINUOUS
 10
1.118930
 20
1.997458
  0
VERTEX
  8
FOREGROUND
  6
CONTINUOUS
 10
1.105658
 20
1.995455
  0
VERTEX
  8
FOREGROUND
  6
CONTINUOUS
 10
1.092415
 20
1.993367
  0
VERTEX
  8
FOREGROUND
  6
CONTINUOUS
 10
1.079201
 20
1.991193
  0
VERTEX
  8
FOREGROUND
  6
CONTINUOUS
 10
1.066017
 20
1.988934
  0
VERTEX
  8
FOREGROUND
  6
CONTINUOUS
 10
1.052865
 20
1.986590
  0
VERTEX
  8
FOREGROUND
  6
CONTINUOUS
 10
1.039746
 20
1.984160
  0
VERTEX
  8
FOREGROUND
  6
CONTINUOUS
 10
1.026661
 20
1.981645
  0
VERTEX
  8
FOREGROUND
  6
CONTINUOUS
 10
1.013611
 20
1.979045
  0
VERTEX
  8
FOREGROUND
  6
CONTINUOUS
 10
1.000597
 20
1.976360
  0
VERTEX
  8
FOREGROUND
  6
CONTINUOUS
 10
0.987621
 20
1.973589
  0
VERTEX
  8
FOREGROUND
  6
CONTINUOUS
 10
0.974684
 20
1.970733
  0
VERTEX
  8
FOREGROUND
  6
CONTINUOUS
 10
0.961787
 20
1.967792
  0
VERTEX
  8
FOREGROUND
  6
CONTINUOUS
 10
0.948930
 20
1.964766
  0
VERTEX
  8
FOREGROUND
  6
CONTINUOUS
 10
0.936116
 20
1.961654
  0
VERTEX
  8
FOREGROUND
  6
CONTINUOUS
 10
0.923345
 20
1.958457
  0
VERTEX
  8
FOREGROUND
  6
CONTINUOUS
 10
0.910619
 20
1.955175
  0
VERTEX
  8
FOREGROUND
  6
CONTINUOUS
 10
0.897939
 20
1.951807
  0
VERTEX
  8
FOREGROUND
  6
CONTINUOUS
 10
0.885305
 20
1.948355
  0
VERTEX
  8
FOREGROUND
  6
CONTINUOUS
 10
0.872720
 20
1.944817
  0
VERTEX
  8
FOREGROUND
  6
CONTINUOUS
 10
0.860184
 20
1.941194
  0
VERTEX
  8
FOREGROUND
  6
CONTINUOUS
 10
0.847699
 20
1.937485
  0
VERTEX
  8
FOREGROUND
  6
CONTINUOUS
 10
0.835265
 20
1.933691
  0
VERTEX
  8
FOREGROUND
  6
CONTINUOUS
 10
0.822884
 20
1.929812
  0
VERTEX
  8
FOREGROUND
  6
CONTINUOUS
 10
0.810557
 20
1.925848
  0
VERTEX
  8
FOREGROUND
  6
CONTINUOUS
 10
0.798285
 20
1.921798
  0
VERTEX
  8
FOREGROUND
  6
CONTINUOUS
 10
0.786069
 20
1.917663
  0
VERTEX
  8
FOREGROUND
  6
CONTINUOUS
 10
0.773911
 20
1.913443
  0
VERTEX
  8
FOREGROUND
  6
CONTINUOUS
 10
0.761812
 20
1.909138
  0
VERTEX
  8
FOREGROUND
  6
CONTINUOUS
 10
0.749772
 20
1.904747
  0
VERTEX
  8
FOREGROUND
  6
CONTINUOUS
 10
0.737794
 20
1.900271
  0
VERTEX
  8
FOREGROUND
  6
CONTINUOUS
 10
0.725878
 20
1.895710
  0
VERTEX
  8
FOREGROUND
  6
CONTINUOUS
 10
0.714025
 20
1.891064
  0
VERTEX
  8
FOREGROUND
  6
CONTINUOUS
 10
0.702237
 20
1.886332
  0
VERTEX
  8
FOREGROUND
  6
CONTINUOUS
 10
0.690514
 20
1.881515
  0
VERTEX
  8
FOREGROUND
  6
CONTINUOUS
 10
0.678858
 20
1.876613
  0
VERTEX
  8
FOREGROUND
  6
CONTINUOUS
 10
0.667271
 20
1.871626
  0
VERTEX
  8
FOREGROUND
  6
CONTINUOUS
 10
0.655753
 20
1.866553
  0
VERTEX
  8
FOREGROUND
  6
CONTINUOUS
 10
0.644305
 20
1.861395
  0
VERTEX
  8
FOREGROUND
  6
CONTINUOUS
 10
0.632929
 20
1.856152
  0
VERTEX
  8
FOREGROUND
  6
CONTINUOUS
 10
0.621626
 20
1.850823
  0
VERTEX
  8
FOREGROUND
  6
CONTINUOUS
 10
0.610396
 20
1.845409
  0
VERTEX
  8
FOREGROUND
  6
CONTINUOUS
 10
0.599242
 20
1.839910
  0
VERTEX
  8
FOREGROUND
  6
CONTINUOUS
 10
0.588164
 20
1.834326
  0
VERTEX
  8
FOREGROUND
  6
CONTINUOUS
 10
0.577164
 20
1.828656
  0
VERTEX
  8
FOREGROUND
  6
CONTINUOUS
 10
0.566242
 20
1.822901
  0
VERTEX
  8
FOREGROUND
  6
CONTINUOUS
 10
0.555400
 20
1.817061
  0
VERTEX
  8
FOREGROUND
  6
CONTINUOUS
 10
0.544640
 20
1.811136
  0
VERTEX
  8
FOREGROUND
  6
CONTINUOUS
 10
0.533961
 20
1.805125
  0
VERTEX
  8
FOREGROUND
  6
CONTINUOUS
 10
0.523366
 20
1.799029
  0
VERTEX
  8
FOREGROUND
  6
CONTINUOUS
 10
0.512855
 20
1.792848
  0
VERTEX
  8
FOREGROUND
  6
CONTINUOUS
 10
0.502430
 20
1.786582
  0
VERTEX
  8
FOREGROUND
  6
CONTINUOUS
 10
0.492092
 20
1.780230
  0
VERTEX
  8
FOREGROUND
  6
CONTINUOUS
 10
0.481842
 20
1.773793
  0
VERTEX
  8
FOREGROUND
  6
CONTINUOUS
 10
0.471682
 20
1.767271
  0
VERTEX
  8
FOREGROUND
  6
CONTINUOUS
 10
0.461611
 20
1.760663
  0
VERTEX
  8
FOREGROUND
  6
CONTINUOUS
 10
0.451633
 20
1.753970
  0
VERTEX
  8
FOREGROUND
  6
CONTINUOUS
 10
0.441747
 20
1.747192
  0
VERTEX
  8
FOREGROUND
  6
CONTINUOUS
 10
0.431955
 20
1.740329
  0
VERTEX
  8
FOREGROUND
  6
CONTINUOUS
 10
0.422258
 20
1.733380
  0
VERTEX
  8
FOREGROUND
  6
CONTINUOUS
 10
0.412658
 20
1.726346
  0
VERTEX
  8
FOREGROUND
  6
CONTINUOUS
 10
0.403155
 20
1.719227
  0
VERTEX
  8
FOREGROUND
  6
CONTINUOUS
 10
0.393750
 20
1.712023
  0
VERTEX
  8
FOREGROUND
  6
CONTINUOUS
 10
0.384446
 20
1.704733
  0
VERTEX
  8
FOREGROUND
  6
CONTINUOUS
 10
0.375242
 20
1.697358
  0
VERTEX
  8
FOREGROUND
  6
CONTINUOUS
 10
0.366141
 20
1.689898
  0
VERTEX
  8
FOREGROUND
  6
CONTINUOUS
 10
0.357143
 20
1.682353
  0
VERTEX
  8
FOREGROUND
  6
CONTINUOUS
 10
0.348250
 20
1.674722
  0
VERTEX
  8
FOREGROUND
  6
CONTINUOUS
 10
0.339462
 20
1.667006
  0
VERTEX
  8
FOREGROUND
  6
CONTINUOUS
 10
0.330782
 20
1.659205
  0
VERTEX
  8
FOREGROUND
  6
CONTINUOUS
 10
0.322209
 20
1.651318
  0
VERTEX
  8
FOREGROUND
  6
CONTINUOUS
 10
0.313745
 20
1.643346
  0
VERTEX
  8
FOREGROUND
  6
CONTINUOUS
 10
0.305392
 20
1.635289
  0
VERTEX
  8
FOREGROUND
  6
CONTINUOUS
 10
0.297151
 20
1.627147
  0
VERTEX
  8
FOREGROUND
  6
CONTINUOUS
 10
0.289022
 20
1.618920
  0
VERTEX
  8
FOREGROUND
  6
CONTINUOUS
 10
0.281008
 20
1.610607
  0
VERTEX
  8
FOREGROUND
  6
CONTINUOUS
 10
0.273108
 20
1.602209
  0
VERTEX
  8
FOREGROUND
  6
CONTINUOUS
 10
0.265325
 20
1.593725
  0
VERTEX
  8
FOREGROUND
  6
CONTINUOUS
 10
0.257659
 20
1.585157
  0
VERTEX
  8
FOREGROUND
  6
CONTINUOUS
 10
0.250112
 20
1.576503
  0
VERTEX
  8
FOREGROUND
  6
CONTINUOUS
 10
0.242684
 20
1.567763
  0
VERTEX
  8
FOREGROUND
  6
CONTINUOUS
 10
0.235378
 20
1.558939
  0
VERTEX
  8
FOREGROUND
  6
CONTINUOUS
 10
0.228193
 20
1.550029
  0
VERTEX
  8
FOREGROUND
  6
CONTINUOUS
 10
0.221133
 20
1.541034
  0
VERTEX
  8
FOREGROUND
  6
CONTINUOUS
 10
0.214196
 20
1.531954
  0
VERTEX
  8
FOREGROUND
  6
CONTINUOUS
 10
0.207386
 20
1.522789
  0
VERTEX
  8
FOREGROUND
  6
CONTINUOUS
 10
0.200702
 20
1.513538
  0
VERTEX
  8
FOREGROUND
  6
CONTINUOUS
 10
0.194146
 20
1.504202
  0
VERTEX
  8
FOREGROUND
  6
CONTINUOUS
 10
0.187720
 20
1.494780
  0
VERTEX
  8
FOREGROUND
  6
CONTINUOUS
 10
0.181423
 20
1.485274
  0
VERTEX
  8
FOREGROUND
  6
CONTINUOUS
 10
0.175259
 20
1.475682
  0
VERTEX
  8
FOREGROUND
  6
CONTINUOUS
 10
0.169227
 20
1.466005
  0
VERTEX
  8
FOREGROUND
  6
CONTINUOUS
 10
0.163329
 20
1.456242
  0
VERTEX
  8
FOREGROUND
  6
CONTINUOUS
 10
0.157566
 20
1.446395
  0
VERTEX
  8
FOREGROUND
  6
CONTINUOUS
 10
0.151940
 20
1.436462
  0
VERTEX
  8
FOREGROUND
  6
CONTINUOUS
 10
0.146451
 20
1.426444
  0
VERTEX
  8
FOREGROUND
  6
CONTINUOUS
 10
0.141101
 20
1.416340
  0
VERTEX
  8
FOREGROUND
  6
CONTINUOUS
 10
0.135890
 20
1.406152
  0
VERTEX
  8
FOREGROUND
  6
CONTINUOUS
 10
0.130820
 20
1.395878
  0
VERTEX
  8
FOREGROUND
  6
CONTINUOUS
 10
0.125893
 20
1.385518
  0
VERTEX
  8
FOREGROUND
  6
CONTINUOUS
 10
0.121109
 20
1.375074
  0
VERTEX
  8
FOREGROUND
  6
CONTINUOUS
 10
0.116469
 20
1.364544
  0
VERTEX
  8
FOREGROUND
  6
CONTINUOUS
 10
0.111975
 20
1.353929
  0
VERTEX
  8
FOREGROUND
  6
CONTINUOUS
 10
0.107628
 20
1.343229
  0
VERTEX
  8
FOREGROUND
  6
CONTINUOUS
 10
0.103429
 20
1.332443
  0
VERTEX
  8
FOREGROUND
  6
CONTINUOUS
 10
0.099379
 20
1.321572
  0
VERTEX
  8
FOREGROUND
  6
CONTINUOUS
 10
0.095480
 20
1.310616
  0
VERTEX
  8
FOREGROUND
  6
CONTINUOUS
 10
0.091732
 20
1.299575
  0
VERTEX
  8
FOREGROUND
  6
CONTINUOUS
 10
0.088136
 20
1.288448
  0
VERTEX
  8
FOREGROUND
  6
CONTINUOUS
 10
0.084695
 20
1.277236
  0
VERTEX
  8
FOREGROUND
  6
CONTINUOUS
 10
0.081409
 20
1.265939
  0
VERTEX
  8
FOREGROUND
  6
CONTINUOUS
 10
0.078279
 20
1.254556
  0
VERTEX
  8
FOREGROUND
  6
CONTINUOUS
 10
0.075307
 20
1.243089
  0
VERTEX
  8
FOREGROUND
  6
CONTINUOUS
 10
0.072493
 20
1.231536
  0
VERTEX
  8
FOREGROUND
  6
CONTINUOUS
 10
0.069839
 20
1.219897
  0
VERTEX
  8
FOREGROUND
  6
CONTINUOUS
 10
0.067345
 20
1.208174
  0
VERTEX
  8
FOREGROUND
  6
CONTINUOUS
 10
0.065014
 20
1.196365
  0
VERTEX
  8
FOREGROUND
  6
CONTINUOUS
 10
0.062847
 20
1.184471
  0
VERTEX
  8
FOREGROUND
  6
CONTINUOUS
 10
0.060844
 20
1.172492
  0
VERTEX
  8
FOREGROUND
  6
CONTINUOUS
 10
0.059006
 20
1.160427
  0
VERTEX
  8
FOREGROUND
  6
CONTINUOUS
 10
0.057335
 20
1.148277
  0
VERTEX
  8
FOREGROUND
  6
CONTINUOUS
 10
0.055833
 20
1.136042
  0
VERTEX
  8
FOREGROUND
  6
CONTINUOUS
 10
0.054499
 20
1.123722
  0
VERTEX
  8
FOREGROUND
  6
CONTINUOUS
 10
0.053336
 20
1.111316
  0
VERTEX
  8
FOREGROUND
  6
CONTINUOUS
 10
0.052344
 20
1.098825
  0
VERTEX
  8
FOREGROUND
  6
CONTINUOUS
 10
0.051525
 20
1.086249
  0
VERTEX
  8
FOREGROUND
  6
CONTINUOUS
 10
0.050880
 20
1.073587
  0
VERTEX
  8
FOREGROUND
  6
CONTINUOUS
 10
0.050411
 20
1.060841
  0
VERTEX
  8
FOREGROUND
  6
CONTINUOUS
 10
0.050117
 20
1.048009
  0
VERTEX
  8
FOREGROUND
  6
CONTINUOUS
 10
0.050001
 20
1.035091
  0
VERTEX
  8
FOREGROUND
  6
CONTINUOUS
 10
0.050001
 20
1.035091
  0
VERTEX
  8
FOREGROUND
  6
CONTINUOUS
 10
0.050092
 20
1.022174
  0
VERTEX
  8
FOREGROUND
  6
CONTINUOUS
 10
0.050360
 20
1.009342
  0
VERTEX
  8
FOREGROUND
  6
CONTINUOUS
 10
0.050805
 20
0.996595
  0
VERTEX
  8
FOREGROUND
  6
CONTINUOUS
 10
0.051425
 20
0.983934
  0
VERTEX
  8
FOREGROUND
  6
CONTINUOUS
 10
0.052219
 20
0.971357
  0
VERTEX
  8
FOREGROUND
  6
CONTINUOUS
 10
0.053186
 20
0.958866
  0
VERTEX
  8
FOREGROUND
  6
CONTINUOUS
 10
0.054325
 20
0.946460
  0
VERTEX
  8
FOREGROUND
  6
CONTINUOUS
 10
0.055634
 20
0.934140
  0
VERTEX
  8
FOREGROUND
  6
CONTINUOUS
 10
0.057113
 20
0.921904
  0
VERTEX
  8
FOREGROUND
  6
CONTINUOUS
 10
0.058760
 20
0.909754
  0
VERTEX
  8
FOREGROUND
  6
CONTINUOUS
 10
0.060574
 20
0.897689
  0
VERTEX
  8
FOREGROUND
  6
CONTINUOUS
 10
0.062554
 20
0.885710
  0
VERTEX
  8
FOREGROUND
  6
CONTINUOUS
 10
0.064698
 20
0.873815
  0
VERTEX
  8
FOREGROUND
  6
CONTINUOUS
 10
0.067006
 20
0.862006
  0
VERTEX
  8
FOREGROUND
  6
CONTINUOUS
 10
0.069476
 20
0.850282
  0
VERTEX
  8
FOREGROUND
  6
CONTINUOUS
 10
0.072107
 20
0.838644
  0
VERTEX
  8
FOREGROUND
  6
CONTINUOUS
 10
0.074898
 20
0.827090
  0
VERTEX
  8
FOREGROUND
  6
CONTINUOUS
 10
0.077848
 20
0.815622
  0
VERTEX
  8
FOREGROUND
  6
CONTINUOUS
 10
0.080956
 20
0.804239
  0
VERTEX
  8
FOREGROUND
  6
CONTINUOUS
 10
0.084220
 20
0.792942
  0
VERTEX
  8
FOREGROUND
  6
CONTINUOUS
 10
0.087639
 20
0.781729
  0
VERTEX
  8
FOREGROUND
  6
CONTINUOUS
 10
0.091213
 20
0.770602
  0
VERTEX
  8
FOREGROUND
  6
CONTINUOUS
 10
0.094939
 20
0.759560
  0
VERTEX
  8
FOREGROUND
  6
CONTINUOUS
 10
0.098817
 20
0.748604
  0
VERTEX
  8
FOREGROUND
  6
CONTINUOUS
 10
0.102845
 20
0.737732
  0
VERTEX
  8
FOREGROUND
  6
CONTINUOUS
 10
0.107023
 20
0.726946
  0
VERTEX
  8
FOREGROUND
  6
CONTINUOUS
 10
0.111349
 20
0.716245
  0
VERTEX
  8
FOREGROUND
  6
CONTINUOUS
 10
0.115822
 20
0.705630
  0
VERTEX
  8
FOREGROUND
  6
CONTINUOUS
 10
0.120441
 20
0.695099
  0
VERTEX
  8
FOREGROUND
  6
CONTINUOUS
 10
0.125205
 20
0.684654
  0
VERTEX
  8
FOREGROUND
  6
CONTINUOUS
 10
0.130112
 20
0.674294
  0
VERTEX
  8
FOREGROUND
  6
CONTINUOUS
 10
0.135162
 20
0.664020
  0
VERTEX
  8
FOREGROUND
  6
CONTINUOUS
 10
0.140352
 20
0.653830
  0
VERTEX
  8
FOREGROUND
  6
CONTINUOUS
 10
0.145683
 20
0.643726
  0
VERTEX
  8
FOREGROUND
  6
CONTINUOUS
 10
0.151152
 20
0.633707
  0
VERTEX
  8
FOREGROUND
  6
CONTINUOUS
 10
0.156759
 20
0.623773
  0
VERTEX
  8
FOREGROUND
  6
CONTINUOUS
 10
0.162503
 20
0.613925
  0
VERTEX
  8
FOREGROUND
  6
CONTINUOUS
 10
0.168381
 20
0.604162
  0
VERTEX
  8
FOREGROUND
  6
CONTINUOUS
 10
0.174394
 20
0.594484
  0
VERTEX
  8
FOREGROUND
  6
CONTINUOUS
 10
0.180540
 20
0.584891
  0
VERTEX
  8
FOREGROUND
  6
CONTINUOUS
 10
0.186817
 20
0.575384
  0
VERTEX
  8
FOREGROUND
  6
CONTINUOUS
 10
0.193225
 20
0.565962
  0
VERTEX
  8
FOREGROUND
  6
CONTINUOUS
 10
0.199763
 20
0.556625
  0
VERTEX
  8
FOREGROUND
  6
CONTINUOUS
 10
0.206428
 20
0.547373
  0
VERTEX
  8
FOREGROUND
  6
CONTINUOUS
 10
0.213221
 20
0.538207
  0
VERTEX
  8
FOREGROUND
  6
CONTINUOUS
 10
0.220140
 20
0.529126
  0
VERTEX
  8
FOREGROUND
  6
CONTINUOUS
 10
0.227183
 20
0.520130
  0
VERTEX
  8
FOREGROUND
  6
CONTINUOUS
 10
0.234350
 20
0.511219
  0
VERTEX
  8
FOREGROUND
  6
CONTINUOUS
 10
0.241639
 20
0.502394
  0
VERTEX
  8
FOREGROUND
  6
CONTINUOUS
 10
0.249049
 20
0.493653
  0
VERTEX
  8
FOREGROUND
  6
CONTINUOUS
 10
0.256579
 20
0.484999
  0
VERTEX
  8
FOREGROUND
  6
CONTINUOUS
 10
0.264228
 20
0.476429
  0
VERTEX
  8
FOREGROUND
  6
CONTINUOUS
 10
0.271995
 20
0.467944
  0
VERTEX
  8
FOREGROUND
  6
CONTINUOUS
 10
0.279878
 20
0.459545
  0
VERTEX
  8
FOREGROUND
  6
CONTINUOUS
 10
0.287876
 20
0.451231
  0
VERTEX
  8
FOREGROUND
  6
CONTINUOUS
 10
0.295989
 20
0.443003
  0
VERTEX
  8
FOREGROUND
  6
CONTINUOUS
 10
0.304214
 20
0.434859
  0
VERTEX
  8
FOREGROUND
  6
CONTINUOUS
 10
0.312552
 20
0.426801
  0
VERTEX
  8
FOREGROUND
  6
CONTINUOUS
 10
0.320999
 20
0.418828
  0
VERTEX
  8
FOREGROUND
  6
CONTINUOUS
 10
0.329557
 20
0.410941
  0
VERTEX
  8
FOREGROUND
  6
CONTINUOUS
 10
0.338222
 20
0.403138
  0
VERTEX
  8
FOREGROUND
  6
CONTINUOUS
 10
0.346994
 20
0.395421
  0
VERTEX
  8
FOREGROUND
  6
CONTINUOUS
 10
0.355873
 20
0.387789
  0
VERTEX
  8
FOREGROUND
  6
CONTINUOUS
 10
0.364856
 20
0.380243
  0
VERTEX
  8
FOREGROUND
  6
CONTINUOUS
 10
0.373943
 20
0.372781
  0
VERTEX
  8
FOREGROUND
  6
CONTINUOUS
 10
0.383132
 20
0.365405
  0
VERTEX
  8
FOREGROUND
  6
CONTINUOUS
 10
0.392422
 20
0.358114
  0
VERTEX
  8
FOREGROUND
  6
CONTINUOUS
 10
0.401812
 20
0.350909
  0
VERTEX
  8
FOREGROUND
  6
CONTINUOUS
 10
0.411301
 20
0.343788
  0
VERTEX
  8
FOREGROUND
  6
CONTINUOUS
 10
0.420887
 20
0.336753
  0
VERTEX
  8
FOREGROUND
  6
CONTINUOUS
 10
0.430571
 20
0.329803
  0
VERTEX
  8
FOREGROUND
  6
CONTINUOUS
 10
0.440349
 20
0.322939
  0
VERTEX
  8
FOREGROUND
  6
CONTINUOUS
 10
0.450222
 20
0.316159
  0
VERTEX
  8
FOREGROUND
  6
CONTINUOUS
 10
0.460187
 20
0.309465
  0
VERTEX
  8
FOREGROUND
  6
CONTINUOUS
 10
0.470244
 20
0.302856
  0
VERTEX
  8
FOREGROUND
  6
CONTINUOUS
 10
0.480392
 20
0.296333
  0
VERTEX
  8
FOREGROUND
  6
CONTINUOUS
 10
0.490630
 20
0.289894
  0
VERTEX
  8
FOREGROUND
  6
CONTINUOUS
 10
0.500955
 20
0.283541
  0
VERTEX
  8
FOREGROUND
  6
CONTINUOUS
 10
0.511368
 20
0.277273
  0
VERTEX
  8
FOREGROUND
  6
CONTINUOUS
 10
0.521866
 20
0.271091
  0
VERTEX
  8
FOREGROUND
  6
CONTINUOUS
 10
0.532449
 20
0.264993
  0
VERTEX
  8
FOREGROUND
  6
CONTINUOUS
 10
0.543116
 20
0.258981
  0
VERTEX
  8
FOREGROUND
  6
CONTINUOUS
 10
0.553865
 20
0.253055
  0
VERTEX
  8
FOREGROUND
  6
CONTINUOUS
 10
0.564696
 20
0.247213
  0
VERTEX
  8
FOREGROUND
  6
CONTINUOUS
 10
0.575606
 20
0.241457
  0
VERTEX
  8
FOREGROUND
  6
CONTINUOUS
 10
0.586595
 20
0.235786
  0
VERTEX
  8
FOREGROUND
  6
CONTINUOUS
 10
0.597662
 20
0.230200
  0
VERTEX
  8
FOREGROUND
  6
CONTINUOUS
 10
0.608806
 20
0.224699
  0
VERTEX
  8
FOREGROUND
  6
CONTINUOUS
 10
0.620024
 20
0.219284
  0
VERTEX
  8
FOREGROUND
  6
CONTINUOUS
 10
0.631317
 20
0.213954
  0
VERTEX
  8
FOREGROUND
  6
CONTINUOUS
 10
0.642683
 20
0.208709
  0
VERTEX
  8
FOREGROUND
  6
CONTINUOUS
 10
0.654121
 20
0.203550
  0
VERTEX
  8
FOREGROUND
  6
CONTINUOUS
 10
0.665629
 20
0.198475
  0
VERTEX
  8
FOREGROUND
  6
CONTINUOUS
 10
0.677207
 20
0.193486
  0
VERTEX
  8
FOREGROUND
  6
CONTINUOUS
 10
0.688853
 20
0.188583
  0
VERTEX
  8
FOREGROUND
  6
CONTINUOUS
 10
0.700566
 20
0.183764
  0
VERTEX
  8
FOREGROUND
  6
CONTINUOUS
 10
0.712345
 20
0.179031
  0
VERTEX
  8
FOREGROUND
  6
CONTINUOUS
 10
0.724188
 20
0.174383
  0
VERTEX
  8
FOREGROUND
  6
CONTINUOUS
 10
0.736096
 20
0.169820
  0
VERTEX
  8
FOREGROUND
  6
CONTINUOUS
 10
0.748065
 20
0.165343
  0
VERTEX
  8
FOREGROUND
  6
CONTINUOUS
 10
0.760096
 20
0.160950
  0
VERTEX
  8
FOREGROUND
  6
CONTINUOUS
 10
0.772187
 20
0.156643
  0
VERTEX
  8
FOREGROUND
  6
CONTINUOUS
 10
0.784337
 20
0.152422
  0
VERTEX
  8
FOREGROUND
  6
CONTINUOUS
 10
0.796544
 20
0.148285
  0
VERTEX
  8
FOREGROUND
  6
CONTINUOUS
 10
0.808808
 20
0.144234
  0
VERTEX
  8
FOREGROUND
  6
CONTINUOUS
 10
0.821127
 20
0.140268
  0
VERTEX
  8
FOREGROUND
  6
CONTINUOUS
 10
0.833501
 20
0.136387
  0
VERTEX
  8
FOREGROUND
  6
CONTINUOUS
 10
0.845927
 20
0.132592
  0
VERTEX
  8
FOREGROUND
  6
CONTINUOUS
 10
0.858406
 20
0.128882
  0
VERTEX
  8
FOREGROUND
  6
CONTINUOUS
 10
0.870934
 20
0.125257
  0
VERTEX
  8
FOREGROUND
  6
CONTINUOUS
 10
0.883513
 20
0.121717
  0
VERTEX
  8
FOREGROUND
  6
CONTINUOUS
 10
0.896139
 20
0.118263
  0
VERTEX
  8
FOREGROUND
  6
CONTINUOUS
 10
0.908813
 20
0.114894
  0
VERTEX
  8
FOREGROUND
  6
CONTINUOUS
 10
0.921533
 20
0.111610
  0
VERTEX
  8
FOREGROUND
  6
CONTINUOUS
 10
0.934297
 20
0.108411
  0
VERTEX
  8
FOREGROUND
  6
CONTINUOUS
 10
0.947105
 20
0.105298
  0
VERTEX
  8
FOREGROUND
  6
CONTINUOUS
 10
0.959956
 20
0.102270
  0
VERTEX
  8
FOREGROUND
  6
CONTINUOUS
 10
0.972847
 20
0.099327
  0
VERTEX
  8
FOREGROUND
  6
CONTINUOUS
 10
0.985779
 20
0.096469
  0
VERTEX
  8
FOREGROUND
  6
CONTINUOUS
 10
0.998750
 20
0.093697
  0
VERTEX
  8
FOREGROUND
  6
CONTINUOUS
 10
1.011758
 20
0.091010
  0
VERTEX
  8
FOREGROUND
  6
CONTINUOUS
 10
1.024803
 20
0.088408
  0
VERTEX
  8
FOREGROUND
  6
CONTINUOUS
 10
1.037883
 20
0.085892
  0
VERTEX
  8
FOREGROUND
  6
CONTINUOUS
 10
1.050997
 20
0.083460
  0
VERTEX
  8
FOREGROUND
  6
CONTINUOUS
 10
1.064145
 20
0.081114
  0
VERTEX
  8
FOREGROUND
  6
CONTINUOUS
 10
1.077324
 20
0.078854
  0
VERTEX
  8
FOREGROUND
  6
CONTINUOUS
 10
1.090534
 20
0.076678
  0
VERTEX
  8
FOREGROUND
  6
CONTINUOUS
 10
1.103773
 20
0.074588
  0
VERTEX
  8
FOREGROUND
  6
CONTINUOUS
 10
1.117041
 20
0.072583
  0
VERTEX
  8
FOREGROUND
  6
CONTINUOUS
 10
1.130335
 20
0.070663
  0
VERTEX
  8
FOREGROUND
  6
CONTINUOUS
 10
1.143656
 20
0.068829
  0
VERTEX
  8
FOREGROUND
  6
CONTINUOUS
 10
1.157001
 20
0.067079
  0
VERTEX
  8
FOREGROUND
  6
CONTINUOUS
 10
1.170370
 20
0.065415
  0
VERTEX
  8
FOREGROUND
  6
CONTINUOUS
 10
1.183762
 20
0.063837
  0
VERTEX
  8
FOREGROUND
  6
CONTINUOUS
 10
1.197175
 20
0.062343
  0
VERTEX
  8
FOREGROUND
  6
CONTINUOUS
 10
1.210607
 20
0.060935
  0
VERTEX
  8
FOREGROUND
  6
CONTINUOUS
 10
1.224059
 20
0.059612
  0
VERTEX
  8
FOREGROUND
  6
CONTINUOUS
 10
1.237529
 20
0.058375
  0
VERTEX
  8
FOREGROUND
  6
CONTINUOUS
 10
1.251015
 20
0.057222
  0
VERTEX
  8
FOREGROUND
  6
CONTINUOUS
 10
1.264516
 20
0.056155
  0
VERTEX
  8
FOREGROUND
  6
CONTINUOUS
 10
1.278031
 20
0.055173
  0
VERTEX
  8
FOREGROUND
  6
CONTINUOUS
 10
1.291560
 20
0.054277
  0
VERTEX
  8
FOREGROUND
  6
CONTINUOUS
 10
1.305100
 20
0.053465
  0
VERTEX
  8
FOREGROUND
  6
CONTINUOUS
 10
1.318651
 20
0.052739
  0
VERTEX
  8
FOREGROUND
  6
CONTINUOUS
 10
1.332212
 20
0.052098
  0
VERTEX
  8
FOREGROUND
  6
CONTINUOUS
 10
1.345781
 20
0.051543
  0
VERTEX
  8
FOREGROUND
  6
CONTINUOUS
 10
1.359357
 20
0.051073
  0
VERTEX
  8
FOREGROUND
  6
CONTINUOUS
 10
1.372939
 20
0.050687
  0
VERTEX
  8
FOREGROUND
  6
CONTINUOUS
 10
1.386526
 20
0.050388
  0
VERTEX
  8
FOREGROUND
  6
CONTINUOUS
 10
1.400116
 20
0.050173
  0
VERTEX
  8
FOREGROUND
  6
CONTINUOUS
 10
1.413709
 20
0.050044
  0
VERTEX
  8
FOREGROUND
  6
CONTINUOUS
 10
1.427303
 20
0.050000
  0
VERTEX
  8
FOREGROUND
  6
CONTINUOUS
 10
1.440897
 20
0.050041
  0
VERTEX
  8
FOREGROUND
  6
CONTINUOUS
 10
1.454490
 20
0.050168
  0
VERTEX
  8
FOREGROUND
  6
CONTINUOUS
 10
1.468081
 20
0.050380
  0
VERTEX
  8
FOREGROUND
  6
CONTINUOUS
 10
1.481668
 20
0.050677
  0
VERTEX
  8
FOREGROUND
  6
CONTINUOUS
 10
1.495251
 20
0.051059
  0
VERTEX
  8
FOREGROUND
  6
CONTINUOUS
 10
1.508828
 20
0.051527
  0
VERTEX
  8
FOREGROUND
  6
CONTINUOUS
 10
1.522398
 20
0.052079
  0
VERTEX
  8
FOREGROUND
  6
CONTINUOUS
 10
1.535960
 20
0.052718
  0
VERTEX
  8
FOREGROUND
  6
CONTINUOUS
 10
1.549513
 20
0.053441
  0
VERTEX
  8
FOREGROUND
  6
CONTINUOUS
 10
1.563055
 20
0.054250
  0
VERTEX
  8
FOREGROUND
  6
CONTINUOUS
 10
1.576585
 20
0.055144
  0
VERTEX
  8
FOREGROUND
  6
CONTINUOUS
 10
1.590103
 20
0.056123
  0
VERTEX
  8
FOREGROUND
  6
CONTINUOUS
 10
1.603606
 20
0.057187
  0
VERTEX
  8
FOREGROUND
  6
CONTINUOUS
 10
1.617095
 20
0.058337
  0
VERTEX
  8
FOREGROUND
  6
CONTINUOUS
 10
1.630567
 20
0.059572
  0
VERTEX
  8
FOREGROUND
  6
CONTINUOUS
 10
1.644021
 20
0.060892
  0
VERTEX
  8
FOREGROUND
  6
CONTINUOUS
 10
1.657457
 20
0.062298
  0
VERTEX
  8
FOREGROUND
  6
CONTINUOUS
 10
1.670873
 20
0.063788
  0
VERTEX
  8
FOREGROUND
  6
CONTINUOUS
 10
1.684267
 20
0.065364
  0
VERTEX
  8
FOREGROUND
  6
CONTINUOUS
 10
1.697640
 20
0.067026
  0
VERTEX
  8
FOREGROUND
  6
CONTINUOUS
 10
1.710989
 20
0.068772
  0
VERTEX
  8
FOREGROUND
  6
CONTINUOUS
 10
1.724314
 20
0.070604
  0
VERTEX
  8
FOREGROUND
  6
CONTINUOUS
 10
1.737612
 20
0.072521
  0
VERTEX
  8
FOREGROUND
  6
CONTINUOUS
 10
1.750884
 20
0.074523
  0
VERTEX
  8
FOREGROUND
  6
CONTINUOUS
 10
1.764128
 20
0.076611
  0
VERTEX
  8
FOREGROUND
  6
CONTINUOUS
 10
1.777342
 20
0.078784
  0
VERTEX
  8
FOREGROUND
  6
CONTINUOUS
 10
1.790526
 20
0.081042
  0
VERTEX
  8
FOREGROUND
  6
CONTINUOUS
 10
1.803678
 20
0.083386
  0
VERTEX
  8
FOREGROUND
  6
CONTINUOUS
 10
1.816798
 20
0.085814
  0
VERTEX
  8
FOREGROUND
  6
CONTINUOUS
 10
1.829883
 20
0.088328
  0
VERTEX
  8
FOREGROUND
  6
CONTINUOUS
 10
1.842933
 20
0.090927
  0
VERTEX
  8
FOREGROUND
  6
CONTINUOUS
 10
1.855947
 20
0.093612
  0
VERTEX
  8
FOREGROUND
  6
CONTINUOUS
 10
1.868924
 20
0.096382
  0
VERTEX
  8
FOREGROUND
  6
CONTINUOUS
 10
1.881861
 20
0.099237
  0
VERTEX
  8
FOREGROUND
  6
CONTINUOUS
 10
1.894759
 20
0.102177
  0
VERTEX
  8
FOREGROUND
  6
CONTINUOUS
 10
1.907616
 20
0.105202
  0
VERTEX
  8
FOREGROUND
  6
CONTINUOUS
 10
1.920430
 20
0.108313
  0
VERTEX
  8
FOREGROUND
  6
CONTINUOUS
 10
1.933202
 20
0.111509
  0
VERTEX
  8
FOREGROUND
  6
CONTINUOUS
 10
1.945928
 20
0.114791
  0
VERTEX
  8
FOREGROUND
  6
CONTINUOUS
 10
1.958609
 20
0.118157
  0
VERTEX
  8
FOREGROUND
  6
CONTINUOUS
 10
1.971243
 20
0.121609
  0
VERTEX
  8
FOREGROUND
  6
CONTINUOUS
 10
1.983828
 20
0.125146
  0
VERTEX
  8
FOREGROUND
  6
CONTINUOUS
 10
1.996365
 20
0.128769
  0
VERTEX
  8
FOREGROUND
  6
CONTINUOUS
 10
2.008851
 20
0.132477
  0
VERTEX
  8
FOREGROUND
  6
CONTINUOUS
 10
2.021285
 20
0.136269
  0
VERTEX
  8
FOREGROUND
  6
CONTINUOUS
 10
2.033667
 20
0.140148
  0
VERTEX
  8
FOREGROUND
  6
CONTINUOUS
 10
2.045995
 20
0.144111
  0
VERTEX
  8
FOREGROUND
  6
CONTINUOUS
 10
2.058267
 20
0.148160
  0
VERTEX
  8
FOREGROUND
  6
CONTINUOUS
 10
2.070483
 20
0.152294
  0
VERTEX
  8
FOREGROUND
  6
CONTINUOUS
 10
2.082642
 20
0.156513
  0
VERTEX
  8
FOREGROUND
  6
CONTINUOUS
 10
2.094742
 20
0.160818
  0
VERTEX
  8
FOREGROUND
  6
CONTINUOUS
 10
2.106782
 20
0.165208
  0
VERTEX
  8
FOREGROUND
  6
CONTINUOUS
 10
2.118761
 20
0.169683
  0
VERTEX
  8
FOREGROUND
  6
CONTINUOUS
 10
2.130677
 20
0.174243
  0
VERTEX
  8
FOREGROUND
  6
CONTINUOUS
 10
2.142531
 20
0.178889
  0
VERTEX
  8
FOREGROUND
  6
CONTINUOUS
 10
2.154320
 20
0.183620
  0
VERTEX
  8
FOREGROUND
  6
CONTINUOUS
 10
2.166043
 20
0.188436
  0
VERTEX
  8
FOREGROUND
  6
CONTINUOUS
 10
2.177699
 20
0.193337
  0
VERTEX
  8
FOREGROUND
  6
CONTINUOUS
 10
2.189287
 20
0.198324
  0
VERTEX
  8
FOREGROUND
  6
CONTINUOUS
 10
2.200806
 20
0.203396
  0
VERTEX
  8
FOREGROUND
  6
CONTINUOUS
 10
2.212254
 20
0.208553
  0
VERTEX
  8
FOREGROUND
  6
CONTINUOUS
 10
2.223631
 20
0.213796
  0
VERTEX
  8
FOREGROUND
  6
CONTINUOUS
 10
2.234935
 20
0.219124
  0
VERTEX
  8
FOREGROUND
  6
CONTINUOUS
 10
2.246165
 20
0.224537
  0
VERTEX
  8
FOREGROUND
  6
CONTINUOUS
 10
2.257320
 20
0.230035
  0
VERTEX
  8
FOREGROUND
  6
CONTINUOUS
 10
2.268399
 20
0.235619
  0
VERTEX
  8
FOREGROUND
  6
CONTINUOUS
 10
2.279400
 20
0.241287
  0
VERTEX
  8
FOREGROUND
  6
CONTINUOUS
 10
2.290322
 20
0.247042
  0
VERTEX
  8
FOREGROUND
  6
CONTINUOUS
 10
2.301165
 20
0.252881
  0
VERTEX
  8
FOREGROUND
  6
CONTINUOUS
 10
2.311926
 20
0.258806
  0
VERTEX
  8
FOREGROUND
  6
CONTINUOUS
 10
2.322606
 20
0.264816
  0
VERTEX
  8
FOREGROUND
  6
CONTINUOUS
 10
2.333202
 20
0.270911
  0
VERTEX
  8
FOREGROUND
  6
CONTINUOUS
 10
2.343713
 20
0.277091
  0
VERTEX
  8
FOREGROUND
  6
CONTINUOUS
 10
2.354139
 20
0.283357
  0
VERTEX
  8
FOREGROUND
  6
CONTINUOUS
 10
2.364478
 20
0.289708
  0
VERTEX
  8
FOREGROUND
  6
CONTINUOUS
 10
2.374729
 20
0.296145
  0
VERTEX
  8
FOREGROUND
  6
CONTINUOUS
 10
2.384890
 20
0.302666
  0
VERTEX
  8
FOREGROUND
  6
CONTINUOUS
 10
2.394961
 20
0.309273
  0
VERTEX
  8
FOREGROUND
  6
CONTINUOUS
 10
2.404941
 20
0.315965
  0
VERTEX
  8
FOREGROUND
  6
CONTINUOUS
 10
2.414827
 20
0.322742
  0
VERTEX
  8
FOREGROUND
  6
CONTINUOUS
 10
2.424620
 20
0.329605
  0
VERTEX
  8
FOREGROUND
  6
CONTINUOUS
 10
2.434318
 20
0.336553
  0
VERTEX
  8
FOREGROUND
  6
CONTINUOUS
 10
2.443919
 20
0.343586
  0
VERTEX
  8
FOREGROUND
  6
CONTINUOUS
 10
2.453423
 20
0.350705
  0
VERTEX
  8
FOREGROUND
  6
CONTINUOUS
 10
2.462828
 20
0.357909
  0
VERTEX
  8
FOREGROUND
  6
CONTINUOUS
 10
2.472134
 20
0.365198
  0
VERTEX
  8
FOREGROUND
  6
CONTINUOUS
 10
2.481338
 20
0.372572
  0
VERTEX
  8
FOREGROUND
  6
CONTINUOUS
 10
2.490440
 20
0.380031
  0
VERTEX
  8
FOREGROUND
  6
CONTINUOUS
 10
2.499439
 20
0.387576
  0
VERTEX
  8
FOREGROUND
  6
CONTINUOUS
 10
2.508334
 20
0.395206
  0
VERTEX
  8
FOREGROUND
  6
CONTINUOUS
 10
2.517122
 20
0.402922
  0
VERTEX
  8
FOREGROUND
  6
CONTINUOUS
 10
2.525804
 20
0.410723
  0
VERTEX
  8
FOREGROUND
  6
CONTINUOUS
 10
2.534378
 20
0.418608
  0
VERTEX
  8
FOREGROUND
  6
CONTINUOUS
 10
2.542842
 20
0.426580
  0
VERTEX
  8
FOREGROUND
  6
CONTINUOUS
 10
2.551196
 20
0.434636
  0
VERTEX
  8
FOREGROUND
  6
CONTINUOUS
 10
2.559439
 20
0.442778
  0
VERTEX
  8
FOREGROUND
  6
CONTINUOUS
 10
2.567569
 20
0.451005
  0
VERTEX
  8
FOREGROUND
  6
CONTINUOUS
 10
2.575584
 20
0.459317
  0
VERTEX
  8
FOREGROUND
  6
CONTINUOUS
 10
2.583485
 20
0.467715
  0
VERTEX
  8
FOREGROUND
  6
CONTINUOUS
 10
2.591270
 20
0.476198
  0
VERTEX
  8
FOREGROUND
  6
CONTINUOUS
 10
2.598937
 20
0.484766
  0
VERTEX
  8
FOREGROUND
  6
CONTINUOUS
 10
2.606485
 20
0.493419
  0
VERTEX
  8
FOREGROUND
  6
CONTINUOUS
 10
2.613913
 20
0.502158
  0
VERTEX
  8
FOREGROUND
  6
CONTINUOUS
 10
2.621221
 20
0.510982
  0
VERTEX
  8
FOREGROUND
  6
CONTINUOUS
 10
2.628406
 20
0.519891
  0
VERTEX
  8
FOREGROUND
  6
CONTINUOUS
 10
2.635468
 20
0.528886
  0
VERTEX
  8
FOREGROUND
  6
CONTINUOUS
 10
2.642406
 20
0.537966
  0
VERTEX
  8
FOREGROUND
  6
CONTINUOUS
 10
2.649218
 20
0.547131
  0
VERTEX
  8
FOREGROUND
  6
CONTINUOUS
 10
2.655903
 20
0.556381
  0
VERTEX
  8
FOREGROUND
  6
CONTINUOUS
 10
2.662460
 20
0.565717
  0
VERTEX
  8
FOREGROUND
  6
CONTINUOUS
 10
2.668887
 20
0.575137
  0
VERTEX
  8
FOREGROUND
  6
CONTINUOUS
 10
2.675185
 20
0.584644
  0
VERTEX
  8
FOREGROUND
  6
CONTINUOUS
 10
2.681351
 20
0.594235
  0
VERTEX
  8
FOREGROUND
  6
CONTINUOUS
 10
2.687384
 20
0.603912
  0
VERTEX
  8
FOREGROUND
  6
CONTINUOUS
 10
2.693283
 20
0.613674
  0
VERTEX
  8
FOREGROUND
  6
CONTINUOUS
 10
2.699047
 20
0.623521
  0
VERTEX
  8
FOREGROUND
  6
CONTINUOUS
 10
2.704675
 20
0.633454
  0
VERTEX
  8
FOREGROUND
  6
CONTINUOUS
 10
2.710165
 20
0.643471
  0
VERTEX
  8
FOREGROUND
  6
CONTINUOUS
 10
2.715517
 20
0.653574
  0
VERTEX
  8
FOREGROUND
  6
CONTINUOUS
 10
2.720729
 20
0.663763
  0
VERTEX
  8
FOREGROUND
  6
CONTINUOUS
 10
2.725799
 20
0.674036
  0
VERTEX
  8
FOREGROUND
  6
CONTINUOUS
 10
2.730728
 20
0.684395
  0
VERTEX
  8
FOREGROUND
  6
CONTINUOUS
 10
2.735514
 20
0.694840
  0
VERTEX
  8
FOREGROUND
  6
CONTINUOUS
 10
2.740155
 20
0.705369
  0
VERTEX
  8
FOREGROUND
  6
CONTINUOUS
 10
2.744650
 20
0.715984
  0
VERTEX
  8
FOREGROUND
  6
CONTINUOUS
 10
2.748999
 20
0.726684
  0
VERTEX
  8
FOREGROUND
  6
CONTINUOUS
 10
2.753199
 20
0.737469
  0
VERTEX
  8
FOREGROUND
  6
CONTINUOUS
 10
2.757250
 20
0.748340
  0
VERTEX
  8
FOREGROUND
  6
CONTINUOUS
 10
2.761151
 20
0.759296
  0
VERTEX
  8
FOREGROUND
  6
CONTINUOUS
 10
2.764901
 20
0.770337
  0
VERTEX
  8
FOREGROUND
  6
CONTINUOUS
 10
2.768497
 20
0.781463
  0
VERTEX
  8
FOREGROUND
  6
CONTINUOUS
 10
2.771940
 20
0.792675
  0
VERTEX
  8
FOREGROUND
  6
CONTINUOUS
 10
2.775228
 20
0.803972
  0
VERTEX
  8
FOREGROUND
  6
CONTINUOUS
 10
2.778359
 20
0.815354
  0
VERTEX
  8
FOREGROUND
  6
CONTINUOUS
 10
2.781333
 20
0.826822
  0
VERTEX
  8
FOREGROUND
  6
CONTINUOUS
 10
2.784148
 20
0.838374
  0
VERTEX
  8
FOREGROUND
  6
CONTINUOUS
 10
2.786804
 20
0.850013
  0
VERTEX
  8
FOREGROUND
  6
CONTINUOUS
 10
2.789299
 20
0.861736
  0
VERTEX
  8
FOREGROUND
  6
CONTINUOUS
 10
2.791631
 20
0.873545
  0
VERTEX
  8
FOREGROUND
  6
CONTINUOUS
 10
2.793800
 20
0.885439
  0
VERTEX
  8
FOREGROUND
  6
CONTINUOUS
 10
2.795805
 20
0.897418
  0
VERTEX
  8
FOREGROUND
  6
CONTINUOUS
 10
2.797644
 20
0.909482
  0
VERTEX
  8
FOREGROUND
  6
CONTINUOUS
 10
2.799317
 20
0.921632
  0
VERTEX
  8
FOREGROUND
  6
CONTINUOUS
 10
2.800821
 20
0.933867
  0
VERTEX
  8
FOREGROUND
  6
CONTINUOUS
 10
2.802156
 20
0.946187
  0
VERTEX
  8
FOREGROUND
  6
CONTINUOUS
 10
2.803321
 20
0.958593
  0
VERTEX
  8
FOREGROUND
  6
CONTINUOUS
 10
2.804314
 20
0.971084
  0
VERTEX
  8
FOREGROUND
  6
CONTINUOUS
 10
2.805134
 20
0.983660
  0
VERTEX
  8
FOREGROUND
  6
CONTINUOUS
 10
2.805781
 20
0.996321
  0
VERTEX
  8
FOREGROUND
  6
CONTINUOUS
 10
2.806253
 20
1.009068
  0
VERTEX
  8
FOREGROUND
  6
CONTINUOUS
 10
2.806548
 20
1.021900
  0
VERTEX
  8
FOREGROUND
  6
CONTINUOUS
 10
2.806666
 20
1.034817
  0
SEQEND
  8
0
  0
ENDSEC
  0
EOF
