  0
SECTION
  2
HEADER
  9
$ACADVER
  1
AC1006
  9
$EXTMIN
 10
0.000000
 20
0.000000
  9
$EXTMAX
 10
3.251667
 20
2.070000
  9
$LTSCALE
 40
0.166667
  9
$PDMODE
 70
    35
  9
$PDSIZE
 40
0.133333
  0
ENDSEC
  0
SECTION
  2
TABLES
  0
TABLE
  2
LTYPE
 70
     9
  0
LTYPE
  2
CONTINUOUS
 70
    64
  3
Solid line
 72
    65
 73
     0
 40
0.000000
  0
LTYPE
  2
DASHED
 70
    64
  3
__ __ __ __ __ __ __ __ __ __ __ __ __ __ __
 72
    65
 73
     2
 40
0.001250
 49
0.000833
 49
-0.000417
  0
LTYPE
  2
HIDDEN
 70
    64
  3
 _ _ _ _ _ _ _ _ _ _ _ _ _ _ _ _ _ _ _ _ _ _
 72
    65
 73
     2
 40
0.000625
 49
0.000417
 49
-0.000208
  0
LTYPE
  2
CENTER
 70
    64
  3
____ _ ____ _ ____ _ ____ _ ____ _ ____ _ ____
 72
    65
 73
     4
 40
0.003333
 49
0.002083
 49
-0.000417
 49
0.000417
 49
-0.000417
  0
LTYPE
  2
PHANTOM
 70
    64
  3
_____ _ _ _____ _ _ _____ _ _ _____ _ _ ____
 72
    65
 73
     6
 40
0.004167
 49
0.002083
 49
-0.000417
 49
0.000417
 49
-0.000417
 49
0.000417
 49
-0.000417
  0
LTYPE
  2
DOT
 70
    64
  3
...............................................
 72
    65
 73
     2
 40
0.000417
 49
0.000000
 49
-0.000417
  0
LTYPE
  2
DASHDOT
 70
    64
  3
__ . __ . __ . __ . __ . __ . __ . __ . __ . __
 72
    65
 73
     4
 40
0.001667
 49
0.000833
 49
-0.000417
 49
0.000000
 49
-0.000417
  0
LTYPE
  2
BORDER
 70
    64
  3
__ __ . __ __ . __ __ . __ __ . __ __ . __ __
 72
    65
 73
     6
 40
0.002917
 49
0.000833
 49
-0.000417
 49
0.000833
 49
-0.000417
 49
0.000000
 49
-0.000417
  0
LTYPE
  2
DIVIDE
 70
    64
  3
__ . . __ . . __ . . __ . . __ . . __ . . __
 72
    65
 73
     6
 40
0.002083
 49
0.000833
 49
-0.000417
 49
0.000000
 49
-0.000417
 49
0.000000
 49
-0.000417
  0
LTYPE
  2
DOTDOT
 70
    64
  3
 . .  . .  . .  . .  . .  . . 
 72
    65
 73
     5
 40
0.000917
 49
-0.000417
 49
0.000000
 49
-0.000417
 49
0.000000
 49
-0.000417
  0
ENDTAB
  0
TABLE
  2
STYLE
 70
     2
  0
STYLE
 70
     0
  2
SN0
 40
0.000000
 41
0.001667
 50
0.000000
 71
     0
 42
0.000000
  3
ROMAND
  0
STYLE
 70
    68
  2
SV0
 40
0.000000
 41
0.001667
 50
0.000000
 71
     0
 42
0.000000
  3
ROMAND
  0
ENDTAB
  0
TABLE
  2
LAYER
 70
     2
  0
LAYER
  2
FOREGROUND
 70
    64
 62
     7
  6
CONTINUOUS
  0
LAYER
  2
BACKGROUND
 70
    65
 62
    -7
  6
CONTINUOUS
  0
ENDTAB
  0
ENDSEC
  0
SECTION
  2
ENTITIES
  0
POLYLINE
  8
FOREGROUND
  6
CONTINUOUS
 66
     1
 40
0.010000
 41
0.010000
 70
     1
  0
VERTEX
  8
FOREGROUND
  6
CONTINUOUS
 10
3.199999
 20
1.035000
  0
VERTEX
  8
FOREGROUND
  6
CONTINUOUS
 10
3.199894
 20
1.048177
  0
VERTEX
  8
FOREGROUND
  6
CONTINUOUS
 10
3.199579
 20
1.061264
  0
VERTEX
  8
FOREGROUND
  6
CONTINUOUS
 10
3.199053
 20
1.074263
  0
VERTEX
  8
FOREGROUND
  6
CONTINUOUS
 10
3.198319
 20
1.087174
  0
VERTEX
  8
FOREGROUND
  6
CONTINUOUS
 10
3.197379
 20
1.099995
  0
VERTEX
  8
FOREGROUND
  6
CONTINUOUS
 10
3.196232
 20
1.112728
  0
VERTEX
  8
FOREGROUND
  6
CONTINUOUS
 10
3.194882
 20
1.125372
  0
VERTEX
  8
FOREGROUND
  6
CONTINUOUS
 10
3.193329
 20
1.137928
  0
VERTEX
  8
FOREGROUND
  6
CONTINUOUS
 10
3.191575
 20
1.150394
  0
VERTEX
  8
FOREGROUND
  6
CONTINUOUS
 10
3.189621
 20
1.162772
  0
VERTEX
  8
FOREGROUND
  6
CONTINUOUS
 10
3.187469
 20
1.175062
  0
VERTEX
  8
FOREGROUND
  6
CONTINUOUS
 10
3.185120
 20
1.187262
  0
VERTEX
  8
FOREGROUND
  6
CONTINUOUS
 10
3.182576
 20
1.199374
  0
VERTEX
  8
FOREGROUND
  6
CONTINUOUS
 10
3.179837
 20
1.211397
  0
VERTEX
  8
FOREGROUND
  6
CONTINUOUS
 10
3.176906
 20
1.223331
  0
VERTEX
  8
FOREGROUND
  6
CONTINUOUS
 10
3.173783
 20
1.235177
  0
VERTEX
  8
FOREGROUND
  6
CONTINUOUS
 10
3.170471
 20
1.246934
  0
VERTEX
  8
FOREGROUND
  6
CONTINUOUS
 10
3.166970
 20
1.258602
  0
VERTEX
  8
FOREGROUND
  6
CONTINUOUS
 10
3.163283
 20
1.270182
  0
VERTEX
  8
FOREGROUND
  6
CONTINUOUS
 10
3.159410
 20
1.281672
  0
VERTEX
  8
FOREGROUND
  6
CONTINUOUS
 10
3.155353
 20
1.293074
  0
VERTEX
  8
FOREGROUND
  6
CONTINUOUS
 10
3.151113
 20
1.304388
  0
VERTEX
  8
FOREGROUND
  6
CONTINUOUS
 10
3.146692
 20
1.315612
  0
VERTEX
  8
FOREGROUND
  6
CONTINUOUS
 10
3.142091
 20
1.326748
  0
VERTEX
  8
FOREGROUND
  6
CONTINUOUS
 10
3.137312
 20
1.337795
  0
VERTEX
  8
FOREGROUND
  6
CONTINUOUS
 10
3.132356
 20
1.348754
  0
VERTEX
  8
FOREGROUND
  6
CONTINUOUS
 10
3.127224
 20
1.359623
  0
VERTEX
  8
FOREGROUND
  6
CONTINUOUS
 10
3.121918
 20
1.370404
  0
VERTEX
  8
FOREGROUND
  6
CONTINUOUS
 10
3.116440
 20
1.381096
  0
VERTEX
  8
FOREGROUND
  6
CONTINUOUS
 10
3.110790
 20
1.391700
  0
VERTEX
  8
FOREGROUND
  6
CONTINUOUS
 10
3.104971
 20
1.402215
  0
VERTEX
  8
FOREGROUND
  6
CONTINUOUS
 10
3.098983
 20
1.412641
  0
VERTEX
  8
FOREGROUND
  6
CONTINUOUS
 10
3.092828
 20
1.422978
  0
VERTEX
  8
FOREGROUND
  6
CONTINUOUS
 10
3.086508
 20
1.433226
  0
VERTEX
  8
FOREGROUND
  6
CONTINUOUS
 10
3.080023
 20
1.443386
  0
VERTEX
  8
FOREGROUND
  6
CONTINUOUS
 10
3.073376
 20
1.453457
  0
VERTEX
  8
FOREGROUND
  6
CONTINUOUS
 10
3.066568
 20
1.463440
  0
VERTEX
  8
FOREGROUND
  6
CONTINUOUS
 10
3.059599
 20
1.473334
  0
VERTEX
  8
FOREGROUND
  6
CONTINUOUS
 10
3.052473
 20
1.483138
  0
VERTEX
  8
FOREGROUND
  6
CONTINUOUS
 10
3.045189
 20
1.492855
  0
VERTEX
  8
FOREGROUND
  6
CONTINUOUS
 10
3.037750
 20
1.502482
  0
VERTEX
  8
FOREGROUND
  6
CONTINUOUS
 10
3.030156
 20
1.512021
  0
VERTEX
  8
FOREGROUND
  6
CONTINUOUS
 10
3.022410
 20
1.521471
  0
VERTEX
  8
FOREGROUND
  6
CONTINUOUS
 10
3.014513
 20
1.530832
  0
VERTEX
  8
FOREGROUND
  6
CONTINUOUS
 10
3.006465
 20
1.540105
  0
VERTEX
  8
FOREGROUND
  6
CONTINUOUS
 10
2.998270
 20
1.549289
  0
VERTEX
  8
FOREGROUND
  6
CONTINUOUS
 10
2.989927
 20
1.558384
  0
VERTEX
  8
FOREGROUND
  6
CONTINUOUS
 10
2.981439
 20
1.567390
  0
VERTEX
  8
FOREGROUND
  6
CONTINUOUS
 10
2.972806
 20
1.576308
  0
VERTEX
  8
FOREGROUND
  6
CONTINUOUS
 10
2.964031
 20
1.585137
  0
VERTEX
  8
FOREGROUND
  6
CONTINUOUS
 10
2.955115
 20
1.593877
  0
VERTEX
  8
FOREGROUND
  6
CONTINUOUS
 10
2.946059
 20
1.602529
  0
VERTEX
  8
FOREGROUND
  6
CONTINUOUS
 10
2.936864
 20
1.611091
  0
VERTEX
  8
FOREGROUND
  6
CONTINUOUS
 10
2.927532
 20
1.619565
  0
VERTEX
  8
FOREGROUND
  6
CONTINUOUS
 10
2.918065
 20
1.627951
  0
VERTEX
  8
FOREGROUND
  6
CONTINUOUS
 10
2.908463
 20
1.636247
  0
VERTEX
  8
FOREGROUND
  6
CONTINUOUS
 10
2.898729
 20
1.644455
  0
VERTEX
  8
FOREGROUND
  6
CONTINUOUS
 10
2.888863
 20
1.652574
  0
VERTEX
  8
FOREGROUND
  6
CONTINUOUS
 10
2.878868
 20
1.660605
  0
VERTEX
  8
FOREGROUND
  6
CONTINUOUS
 10
2.868744
 20
1.668546
  0
VERTEX
  8
FOREGROUND
  6
CONTINUOUS
 10
2.858493
 20
1.676399
  0
VERTEX
  8
FOREGROUND
  6
CONTINUOUS
 10
2.848116
 20
1.684164
  0
VERTEX
  8
FOREGROUND
  6
CONTINUOUS
 10
2.837615
 20
1.691839
  0
VERTEX
  8
FOREGROUND
  6
CONTINUOUS
 10
2.826992
 20
1.699426
  0
VERTEX
  8
FOREGROUND
  6
CONTINUOUS
 10
2.816247
 20
1.706924
  0
VERTEX
  8
FOREGROUND
  6
CONTINUOUS
 10
2.805382
 20
1.714333
  0
VERTEX
  8
FOREGROUND
  6
CONTINUOUS
 10
2.794399
 20
1.721654
  0
VERTEX
  8
FOREGROUND
  6
CONTINUOUS
 10
2.783298
 20
1.728886
  0
VERTEX
  8
FOREGROUND
  6
CONTINUOUS
 10
2.772082
 20
1.736029
  0
VERTEX
  8
FOREGROUND
  6
CONTINUOUS
 10
2.760752
 20
1.743083
  0
VERTEX
  8
FOREGROUND
  6
CONTINUOUS
 10
2.749309
 20
1.750049
  0
VERTEX
  8
FOREGROUND
  6
CONTINUOUS
 10
2.737755
 20
1.756926
  0
VERTEX
  8
FOREGROUND
  6
CONTINUOUS
 10
2.726091
 20
1.763714
  0
VERTEX
  8
FOREGROUND
  6
CONTINUOUS
 10
2.714318
 20
1.770414
  0
VERTEX
  8
FOREGROUND
  6
CONTINUOUS
 10
2.702438
 20
1.777025
  0
VERTEX
  8
FOREGROUND
  6
CONTINUOUS
 10
2.690453
 20
1.783547
  0
VERTEX
  8
FOREGROUND
  6
CONTINUOUS
 10
2.678363
 20
1.789980
  0
VERTEX
  8
FOREGROUND
  6
CONTINUOUS
 10
2.666170
 20
1.796325
  0
VERTEX
  8
FOREGROUND
  6
CONTINUOUS
 10
2.653876
 20
1.802580
  0
VERTEX
  8
FOREGROUND
  6
CONTINUOUS
 10
2.641483
 20
1.808748
  0
VERTEX
  8
FOREGROUND
  6
CONTINUOUS
 10
2.628990
 20
1.814826
  0
VERTEX
  8
FOREGROUND
  6
CONTINUOUS
 10
2.616401
 20
1.820816
  0
VERTEX
  8
FOREGROUND
  6
CONTINUOUS
 10
2.603716
 20
1.826717
  0
VERTEX
  8
FOREGROUND
  6
CONTINUOUS
 10
2.590936
 20
1.832529
  0
VERTEX
  8
FOREGROUND
  6
CONTINUOUS
 10
2.578064
 20
1.838252
  0
VERTEX
  8
FOREGROUND
  6
CONTINUOUS
 10
2.565100
 20
1.843887
  0
VERTEX
  8
FOREGROUND
  6
CONTINUOUS
 10
2.552047
 20
1.849433
  0
VERTEX
  8
FOREGROUND
  6
CONTINUOUS
 10
2.538905
 20
1.854890
  0
VERTEX
  8
FOREGROUND
  6
CONTINUOUS
 10
2.525676
 20
1.860259
  0
VERTEX
  8
FOREGROUND
  6
CONTINUOUS
 10
2.512361
 20
1.865539
  0
VERTEX
  8
FOREGROUND
  6
CONTINUOUS
 10
2.498962
 20
1.870730
  0
VERTEX
  8
FOREGROUND
  6
CONTINUOUS
 10
2.485480
 20
1.875832
  0
VERTEX
  8
FOREGROUND
  6
CONTINUOUS
 10
2.471916
 20
1.880846
  0
VERTEX
  8
FOREGROUND
  6
CONTINUOUS
 10
2.458273
 20
1.885771
  0
VERTEX
  8
FOREGROUND
  6
CONTINUOUS
 10
2.444551
 20
1.890607
  0
VERTEX
  8
FOREGROUND
  6
CONTINUOUS
 10
2.430752
 20
1.895355
  0
VERTEX
  8
FOREGROUND
  6
CONTINUOUS
 10
2.416877
 20
1.900014
  0
VERTEX
  8
FOREGROUND
  6
CONTINUOUS
 10
2.402928
 20
1.904584
  0
VERTEX
  8
FOREGROUND
  6
CONTINUOUS
 10
2.388906
 20
1.909065
  0
VERTEX
  8
FOREGROUND
  6
CONTINUOUS
 10
2.374813
 20
1.913457
  0
VERTEX
  8
FOREGROUND
  6
CONTINUOUS
 10
2.360649
 20
1.917761
  0
VERTEX
  8
FOREGROUND
  6
CONTINUOUS
 10
2.346418
 20
1.921976
  0
VERTEX
  8
FOREGROUND
  6
CONTINUOUS
 10
2.332118
 20
1.926103
  0
VERTEX
  8
FOREGROUND
  6
CONTINUOUS
 10
2.317754
 20
1.930140
  0
VERTEX
  8
FOREGROUND
  6
CONTINUOUS
 10
2.303325
 20
1.934089
  0
VERTEX
  8
FOREGROUND
  6
CONTINUOUS
 10
2.288833
 20
1.937950
  0
VERTEX
  8
FOREGROUND
  6
CONTINUOUS
 10
2.274279
 20
1.941721
  0
VERTEX
  8
FOREGROUND
  6
CONTINUOUS
 10
2.259666
 20
1.945404
  0
VERTEX
  8
FOREGROUND
  6
CONTINUOUS
 10
2.244994
 20
1.948998
  0
VERTEX
  8
FOREGROUND
  6
CONTINUOUS
 10
2.230265
 20
1.952503
  0
VERTEX
  8
FOREGROUND
  6
CONTINUOUS
 10
2.215480
 20
1.955920
  0
VERTEX
  8
FOREGROUND
  6
CONTINUOUS
 10
2.200640
 20
1.959247
  0
VERTEX
  8
FOREGROUND
  6
CONTINUOUS
 10
2.185748
 20
1.962487
  0
VERTEX
  8
FOREGROUND
  6
CONTINUOUS
 10
2.170805
 20
1.965637
  0
VERTEX
  8
FOREGROUND
  6
CONTINUOUS
 10
2.155811
 20
1.968699
  0
VERTEX
  8
FOREGROUND
  6
CONTINUOUS
 10
2.140769
 20
1.971672
  0
VERTEX
  8
FOREGROUND
  6
CONTINUOUS
 10
2.125679
 20
1.974556
  0
VERTEX
  8
FOREGROUND
  6
CONTINUOUS
 10
2.110544
 20
1.977351
  0
VERTEX
  8
FOREGROUND
  6
CONTINUOUS
 10
2.095365
 20
1.980058
  0
VERTEX
  8
FOREGROUND
  6
CONTINUOUS
 10
2.080142
 20
1.982676
  0
VERTEX
  8
FOREGROUND
  6
CONTINUOUS
 10
2.064878
 20
1.985205
  0
VERTEX
  8
FOREGROUND
  6
CONTINUOUS
 10
2.049574
 20
1.987646
  0
VERTEX
  8
FOREGROUND
  6
CONTINUOUS
 10
2.034232
 20
1.989997
  0
VERTEX
  8
FOREGROUND
  6
CONTINUOUS
 10
2.018852
 20
1.992261
  0
VERTEX
  8
FOREGROUND
  6
CONTINUOUS
 10
2.003436
 20
1.994435
  0
VERTEX
  8
FOREGROUND
  6
CONTINUOUS
 10
1.987986
 20
1.996521
  0
VERTEX
  8
FOREGROUND
  6
CONTINUOUS
 10
1.972504
 20
1.998517
  0
VERTEX
  8
FOREGROUND
  6
CONTINUOUS
 10
1.956989
 20
2.000426
  0
VERTEX
  8
FOREGROUND
  6
CONTINUOUS
 10
1.941445
 20
2.002245
  0
VERTEX
  8
FOREGROUND
  6
CONTINUOUS
 10
1.925872
 20
2.003976
  0
VERTEX
  8
FOREGROUND
  6
CONTINUOUS
 10
1.910271
 20
2.005618
  0
VERTEX
  8
FOREGROUND
  6
CONTINUOUS
 10
1.894645
 20
2.007171
  0
VERTEX
  8
FOREGROUND
  6
CONTINUOUS
 10
1.878995
 20
2.008635
  0
VERTEX
  8
FOREGROUND
  6
CONTINUOUS
 10
1.863321
 20
2.010011
  0
VERTEX
  8
FOREGROUND
  6
CONTINUOUS
 10
1.847626
 20
2.011298
  0
VERTEX
  8
FOREGROUND
  6
CONTINUOUS
 10
1.831911
 20
2.012497
  0
VERTEX
  8
FOREGROUND
  6
CONTINUOUS
 10
1.816178
 20
2.013606
  0
VERTEX
  8
FOREGROUND
  6
CONTINUOUS
 10
1.800427
 20
2.014627
  0
VERTEX
  8
FOREGROUND
  6
CONTINUOUS
 10
1.784660
 20
2.015559
  0
VERTEX
  8
FOREGROUND
  6
CONTINUOUS
 10
1.768879
 20
2.016403
  0
VERTEX
  8
FOREGROUND
  6
CONTINUOUS
 10
1.753085
 20
2.017157
  0
VERTEX
  8
FOREGROUND
  6
CONTINUOUS
 10
1.737279
 20
2.017823
  0
VERTEX
  8
FOREGROUND
  6
CONTINUOUS
 10
1.721463
 20
2.018400
  0
VERTEX
  8
FOREGROUND
  6
CONTINUOUS
 10
1.705639
 20
2.018889
  0
VERTEX
  8
FOREGROUND
  6
CONTINUOUS
 10
1.689807
 20
2.019289
  0
VERTEX
  8
FOREGROUND
  6
CONTINUOUS
 10
1.673969
 20
2.019600
  0
VERTEX
  8
FOREGROUND
  6
CONTINUOUS
 10
1.658128
 20
2.019822
  0
VERTEX
  8
FOREGROUND
  6
CONTINUOUS
 10
1.642283
 20
2.019955
  0
VERTEX
  8
FOREGROUND
  6
CONTINUOUS
 10
1.626436
 20
2.020000
  0
VERTEX
  8
FOREGROUND
  6
CONTINUOUS
 10
1.610590
 20
2.019956
  0
VERTEX
  8
FOREGROUND
  6
CONTINUOUS
 10
1.594744
 20
2.019824
  0
VERTEX
  8
FOREGROUND
  6
CONTINUOUS
 10
1.578902
 20
2.019602
  0
VERTEX
  8
FOREGROUND
  6
CONTINUOUS
 10
1.563063
 20
2.019292
  0
VERTEX
  8
FOREGROUND
  6
CONTINUOUS
 10
1.547230
 20
2.018893
  0
VERTEX
  8
FOREGROUND
  6
CONTINUOUS
 10
1.531404
 20
2.018406
  0
VERTEX
  8
FOREGROUND
  6
CONTINUOUS
 10
1.515587
 20
2.017830
  0
VERTEX
  8
FOREGROUND
  6
CONTINUOUS
 10
1.499779
 20
2.017165
  0
VERTEX
  8
FOREGROUND
  6
CONTINUOUS
 10
1.483983
 20
2.016411
  0
VERTEX
  8
FOREGROUND
  6
CONTINUOUS
 10
1.468199
 20
2.015568
  0
VERTEX
  8
FOREGROUND
  6
CONTINUOUS
 10
1.452430
 20
2.014637
  0
VERTEX
  8
FOREGROUND
  6
CONTINUOUS
 10
1.436676
 20
2.013617
  0
VERTEX
  8
FOREGROUND
  6
CONTINUOUS
 10
1.420939
 20
2.012508
  0
VERTEX
  8
FOREGROUND
  6
CONTINUOUS
 10
1.405221
 20
2.011311
  0
VERTEX
  8
FOREGROUND
  6
CONTINUOUS
 10
1.389522
 20
2.010025
  0
VERTEX
  8
FOREGROUND
  6
CONTINUOUS
 10
1.373844
 20
2.008650
  0
VERTEX
  8
FOREGROUND
  6
CONTINUOUS
 10
1.358190
 20
2.007186
  0
VERTEX
  8
FOREGROUND
  6
CONTINUOUS
 10
1.342559
 20
2.005634
  0
VERTEX
  8
FOREGROUND
  6
CONTINUOUS
 10
1.326954
 20
2.003993
  0
VERTEX
  8
FOREGROUND
  6
CONTINUOUS
 10
1.311376
 20
2.002263
  0
VERTEX
  8
FOREGROUND
  6
CONTINUOUS
 10
1.295826
 20
2.000445
  0
VERTEX
  8
FOREGROUND
  6
CONTINUOUS
 10
1.280306
 20
1.998537
  0
VERTEX
  8
FOREGROUND
  6
CONTINUOUS
 10
1.264817
 20
1.996541
  0
VERTEX
  8
FOREGROUND
  6
CONTINUOUS
 10
1.249361
 20
1.994457
  0
VERTEX
  8
FOREGROUND
  6
CONTINUOUS
 10
1.233939
 20
1.992283
  0
VERTEX
  8
FOREGROUND
  6
CONTINUOUS
 10
1.218553
 20
1.990021
  0
VERTEX
  8
FOREGROUND
  6
CONTINUOUS
 10
1.203204
 20
1.987670
  0
VERTEX
  8
FOREGROUND
  6
CONTINUOUS
 10
1.187893
 20
1.985231
  0
VERTEX
  8
FOREGROUND
  6
CONTINUOUS
 10
1.172621
 20
1.982702
  0
VERTEX
  8
FOREGROUND
  6
CONTINUOUS
 10
1.157391
 20
1.980085
  0
VERTEX
  8
FOREGROUND
  6
CONTINUOUS
 10
1.142204
 20
1.977379
  0
VERTEX
  8
FOREGROUND
  6
CONTINUOUS
 10
1.127060
 20
1.974585
  0
VERTEX
  8
FOREGROUND
  6
CONTINUOUS
 10
1.111963
 20
1.971701
  0
VERTEX
  8
FOREGROUND
  6
CONTINUOUS
 10
1.096912
 20
1.968729
  0
VERTEX
  8
FOREGROUND
  6
CONTINUOUS
 10
1.081909
 20
1.965669
  0
VERTEX
  8
FOREGROUND
  6
CONTINUOUS
 10
1.066956
 20
1.962519
  0
VERTEX
  8
FOREGROUND
  6
CONTINUOUS
 10
1.052055
 20
1.959281
  0
VERTEX
  8
FOREGROUND
  6
CONTINUOUS
 10
1.037206
 20
1.955954
  0
VERTEX
  8
FOREGROUND
  6
CONTINUOUS
 10
1.022411
 20
1.952538
  0
VERTEX
  8
FOREGROUND
  6
CONTINUOUS
 10
1.007671
 20
1.949034
  0
VERTEX
  8
FOREGROUND
  6
CONTINUOUS
 10
0.992989
 20
1.945440
  0
VERTEX
  8
FOREGROUND
  6
CONTINUOUS
 10
0.978365
 20
1.941759
  0
VERTEX
  8
FOREGROUND
  6
CONTINUOUS
 10
0.963800
 20
1.937988
  0
VERTEX
  8
FOREGROUND
  6
CONTINUOUS
 10
0.949297
 20
1.934129
  0
VERTEX
  8
FOREGROUND
  6
CONTINUOUS
 10
0.934857
 20
1.930181
  0
VERTEX
  8
FOREGROUND
  6
CONTINUOUS
 10
0.920480
 20
1.926144
  0
VERTEX
  8
FOREGROUND
  6
CONTINUOUS
 10
0.906169
 20
1.922018
  0
VERTEX
  8
FOREGROUND
  6
CONTINUOUS
 10
0.891925
 20
1.917804
  0
VERTEX
  8
FOREGROUND
  6
CONTINUOUS
 10
0.877749
 20
1.913501
  0
VERTEX
  8
FOREGROUND
  6
CONTINUOUS
 10
0.863643
 20
1.909109
  0
VERTEX
  8
FOREGROUND
  6
CONTINUOUS
 10
0.849608
 20
1.904629
  0
VERTEX
  8
FOREGROUND
  6
CONTINUOUS
 10
0.835645
 20
1.900059
  0
VERTEX
  8
FOREGROUND
  6
CONTINUOUS
 10
0.821757
 20
1.895401
  0
VERTEX
  8
FOREGROUND
  6
CONTINUOUS
 10
0.807944
 20
1.890655
  0
VERTEX
  8
FOREGROUND
  6
CONTINUOUS
 10
0.794208
 20
1.885819
  0
VERTEX
  8
FOREGROUND
  6
CONTINUOUS
 10
0.780550
 20
1.880895
  0
VERTEX
  8
FOREGROUND
  6
CONTINUOUS
 10
0.766972
 20
1.875882
  0
VERTEX
  8
FOREGROUND
  6
CONTINUOUS
 10
0.753475
 20
1.870781
  0
VERTEX
  8
FOREGROUND
  6
CONTINUOUS
 10
0.740061
 20
1.865590
  0
VERTEX
  8
FOREGROUND
  6
CONTINUOUS
 10
0.726731
 20
1.860311
  0
VERTEX
  8
FOREGROUND
  6
CONTINUOUS
 10
0.713486
 20
1.854943
  0
VERTEX
  8
FOREGROUND
  6
CONTINUOUS
 10
0.700328
 20
1.849487
  0
VERTEX
  8
FOREGROUND
  6
CONTINUOUS
 10
0.687258
 20
1.843941
  0
VERTEX
  8
FOREGROUND
  6
CONTINUOUS
 10
0.674278
 20
1.838307
  0
VERTEX
  8
FOREGROUND
  6
CONTINUOUS
 10
0.661389
 20
1.832585
  0
VERTEX
  8
FOREGROUND
  6
CONTINUOUS
 10
0.648593
 20
1.826773
  0
VERTEX
  8
FOREGROUND
  6
CONTINUOUS
 10
0.635891
 20
1.820873
  0
VERTEX
  8
FOREGROUND
  6
CONTINUOUS
 10
0.623284
 20
1.814884
  0
VERTEX
  8
FOREGROUND
  6
CONTINUOUS
 10
0.610774
 20
1.808806
  0
VERTEX
  8
FOREGROUND
  6
CONTINUOUS
 10
0.598362
 20
1.802640
  0
VERTEX
  8
FOREGROUND
  6
CONTINUOUS
 10
0.586050
 20
1.796385
  0
VERTEX
  8
FOREGROUND
  6
CONTINUOUS
 10
0.573839
 20
1.790041
  0
VERTEX
  8
FOREGROUND
  6
CONTINUOUS
 10
0.561730
 20
1.783608
  0
VERTEX
  8
FOREGROUND
  6
CONTINUOUS
 10
0.549726
 20
1.777087
  0
VERTEX
  8
FOREGROUND
  6
CONTINUOUS
 10
0.537827
 20
1.770477
  0
VERTEX
  8
FOREGROUND
  6
CONTINUOUS
 10
0.526034
 20
1.763778
  0
VERTEX
  8
FOREGROUND
  6
CONTINUOUS
 10
0.514350
 20
1.756990
  0
VERTEX
  8
FOREGROUND
  6
CONTINUOUS
 10
0.502776
 20
1.750114
  0
VERTEX
  8
FOREGROUND
  6
CONTINUOUS
 10
0.491313
 20
1.743149
  0
VERTEX
  8
FOREGROUND
  6
CONTINUOUS
 10
0.479962
 20
1.736095
  0
VERTEX
  8
FOREGROUND
  6
CONTINUOUS
 10
0.468725
 20
1.728953
  0
VERTEX
  8
FOREGROUND
  6
CONTINUOUS
 10
0.457604
 20
1.721722
  0
VERTEX
  8
FOREGROUND
  6
CONTINUOUS
 10
0.446599
 20
1.714402
  0
VERTEX
  8
FOREGROUND
  6
CONTINUOUS
 10
0.435713
 20
1.706993
  0
VERTEX
  8
FOREGROUND
  6
CONTINUOUS
 10
0.424946
 20
1.699496
  0
VERTEX
  8
FOREGROUND
  6
CONTINUOUS
 10
0.414300
 20
1.691909
  0
VERTEX
  8
FOREGROUND
  6
CONTINUOUS
 10
0.403777
 20
1.684235
  0
VERTEX
  8
FOREGROUND
  6
CONTINUOUS
 10
0.393378
 20
1.676471
  0
VERTEX
  8
FOREGROUND
  6
CONTINUOUS
 10
0.383104
 20
1.668619
  0
VERTEX
  8
FOREGROUND
  6
CONTINUOUS
 10
0.372957
 20
1.660677
  0
VERTEX
  8
FOREGROUND
  6
CONTINUOUS
 10
0.362938
 20
1.652648
  0
VERTEX
  8
FOREGROUND
  6
CONTINUOUS
 10
0.353048
 20
1.644529
  0
VERTEX
  8
FOREGROUND
  6
CONTINUOUS
 10
0.343290
 20
1.636322
  0
VERTEX
  8
FOREGROUND
  6
CONTINUOUS
 10
0.333664
 20
1.628026
  0
VERTEX
  8
FOREGROUND
  6
CONTINUOUS
 10
0.324173
 20
1.619641
  0
VERTEX
  8
FOREGROUND
  6
CONTINUOUS
 10
0.314816
 20
1.611167
  0
VERTEX
  8
FOREGROUND
  6
CONTINUOUS
 10
0.305596
 20
1.602605
  0
VERTEX
  8
FOREGROUND
  6
CONTINUOUS
 10
0.296515
 20
1.593954
  0
VERTEX
  8
FOREGROUND
  6
CONTINUOUS
 10
0.287573
 20
1.585214
  0
VERTEX
  8
FOREGROUND
  6
CONTINUOUS
 10
0.278772
 20
1.576386
  0
VERTEX
  8
FOREGROUND
  6
CONTINUOUS
 10
0.270114
 20
1.567469
  0
VERTEX
  8
FOREGROUND
  6
CONTINUOUS
 10
0.261599
 20
1.558463
  0
VERTEX
  8
FOREGROUND
  6
CONTINUOUS
 10
0.253230
 20
1.549368
  0
VERTEX
  8
FOREGROUND
  6
CONTINUOUS
 10
0.245008
 20
1.540185
  0
VERTEX
  8
FOREGROUND
  6
CONTINUOUS
 10
0.236933
 20
1.530913
  0
VERTEX
  8
FOREGROUND
  6
CONTINUOUS
 10
0.229009
 20
1.521552
  0
VERTEX
  8
FOREGROUND
  6
CONTINUOUS
 10
0.221235
 20
1.512102
  0
VERTEX
  8
FOREGROUND
  6
CONTINUOUS
 10
0.213614
 20
1.502564
  0
VERTEX
  8
FOREGROUND
  6
CONTINUOUS
 10
0.206146
 20
1.492937
  0
VERTEX
  8
FOREGROUND
  6
CONTINUOUS
 10
0.198834
 20
1.483221
  0
VERTEX
  8
FOREGROUND
  6
CONTINUOUS
 10
0.191679
 20
1.473417
  0
VERTEX
  8
FOREGROUND
  6
CONTINUOUS
 10
0.184682
 20
1.463523
  0
VERTEX
  8
FOREGROUND
  6
CONTINUOUS
 10
0.177844
 20
1.453541
  0
VERTEX
  8
FOREGROUND
  6
CONTINUOUS
 10
0.171168
 20
1.443471
  0
VERTEX
  8
FOREGROUND
  6
CONTINUOUS
 10
0.164654
 20
1.433311
  0
VERTEX
  8
FOREGROUND
  6
CONTINUOUS
 10
0.158303
 20
1.423063
  0
VERTEX
  8
FOREGROUND
  6
CONTINUOUS
 10
0.152118
 20
1.412726
  0
VERTEX
  8
FOREGROUND
  6
CONTINUOUS
 10
0.146100
 20
1.402300
  0
VERTEX
  8
FOREGROUND
  6
CONTINUOUS
 10
0.140250
 20
1.391786
  0
VERTEX
  8
FOREGROUND
  6
CONTINUOUS
 10
0.134569
 20
1.381183
  0
VERTEX
  8
FOREGROUND
  6
CONTINUOUS
 10
0.129060
 20
1.370491
  0
VERTEX
  8
FOREGROUND
  6
CONTINUOUS
 10
0.123723
 20
1.359710
  0
VERTEX
  8
FOREGROUND
  6
CONTINUOUS
 10
0.118559
 20
1.348841
  0
VERTEX
  8
FOREGROUND
  6
CONTINUOUS
 10
0.113571
 20
1.337883
  0
VERTEX
  8
FOREGROUND
  6
CONTINUOUS
 10
0.108760
 20
1.326836
  0
VERTEX
  8
FOREGROUND
  6
CONTINUOUS
 10
0.104126
 20
1.315700
  0
VERTEX
  8
FOREGROUND
  6
CONTINUOUS
 10
0.099673
 20
1.304476
  0
VERTEX
  8
FOREGROUND
  6
CONTINUOUS
 10
0.095400
 20
1.293163
  0
VERTEX
  8
FOREGROUND
  6
CONTINUOUS
 10
0.091310
 20
1.281761
  0
VERTEX
  8
FOREGROUND
  6
CONTINUOUS
 10
0.087403
 20
1.270271
  0
VERTEX
  8
FOREGROUND
  6
CONTINUOUS
 10
0.083682
 20
1.258692
  0
VERTEX
  8
FOREGROUND
  6
CONTINUOUS
 10
0.080147
 20
1.247024
  0
VERTEX
  8
FOREGROUND
  6
CONTINUOUS
 10
0.076801
 20
1.235267
  0
VERTEX
  8
FOREGROUND
  6
CONTINUOUS
 10
0.073644
 20
1.223421
  0
VERTEX
  8
FOREGROUND
  6
CONTINUOUS
 10
0.070678
 20
1.211487
  0
VERTEX
  8
FOREGROUND
  6
CONTINUOUS
 10
0.067904
 20
1.199464
  0
VERTEX
  8
FOREGROUND
  6
CONTINUOUS
 10
0.065324
 20
1.187353
  0
VERTEX
  8
FOREGROUND
  6
CONTINUOUS
 10
0.062939
 20
1.175152
  0
VERTEX
  8
FOREGROUND
  6
CONTINUOUS
 10
0.060751
 20
1.162863
  0
VERTEX
  8
FOREGROUND
  6
CONTINUOUS
 10
0.058761
 20
1.150485
  0
VERTEX
  8
FOREGROUND
  6
CONTINUOUS
 10
0.056971
 20
1.138019
  0
VERTEX
  8
FOREGROUND
  6
CONTINUOUS
 10
0.055382
 20
1.125463
  0
VERTEX
  8
FOREGROUND
  6
CONTINUOUS
 10
0.053994
 20
1.112819
  0
VERTEX
  8
FOREGROUND
  6
CONTINUOUS
 10
0.052811
 20
1.100086
  0
VERTEX
  8
FOREGROUND
  6
CONTINUOUS
 10
0.051833
 20
1.087265
  0
VERTEX
  8
FOREGROUND
  6
CONTINUOUS
 10
0.051061
 20
1.074355
  0
VERTEX
  8
FOREGROUND
  6
CONTINUOUS
 10
0.050498
 20
1.061356
  0
VERTEX
  8
FOREGROUND
  6
CONTINUOUS
 10
0.050144
 20
1.048268
  0
VERTEX
  8
FOREGROUND
  6
CONTINUOUS
 10
0.050001
 20
1.035091
  0
VERTEX
  8
FOREGROUND
  6
CONTINUOUS
 10
0.050001
 20
1.035091
  0
VERTEX
  8
FOREGROUND
  6
CONTINUOUS
 10
0.050104
 20
1.021915
  0
VERTEX
  8
FOREGROUND
  6
CONTINUOUS
 10
0.050418
 20
1.008827
  0
VERTEX
  8
FOREGROUND
  6
CONTINUOUS
 10
0.050941
 20
0.995828
  0
VERTEX
  8
FOREGROUND
  6
CONTINUOUS
 10
0.051673
 20
0.982917
  0
VERTEX
  8
FOREGROUND
  6
CONTINUOUS
 10
0.052612
 20
0.970096
  0
VERTEX
  8
FOREGROUND
  6
CONTINUOUS
 10
0.053756
 20
0.957363
  0
VERTEX
  8
FOREGROUND
  6
CONTINUOUS
 10
0.055105
 20
0.944719
  0
VERTEX
  8
FOREGROUND
  6
CONTINUOUS
 10
0.056656
 20
0.932163
  0
VERTEX
  8
FOREGROUND
  6
CONTINUOUS
 10
0.058408
 20
0.919696
  0
VERTEX
  8
FOREGROUND
  6
CONTINUOUS
 10
0.060360
 20
0.907318
  0
VERTEX
  8
FOREGROUND
  6
CONTINUOUS
 10
0.062510
 20
0.895029
  0
VERTEX
  8
FOREGROUND
  6
CONTINUOUS
 10
0.064857
 20
0.882828
  0
VERTEX
  8
FOREGROUND
  6
CONTINUOUS
 10
0.067400
 20
0.870716
  0
VERTEX
  8
FOREGROUND
  6
CONTINUOUS
 10
0.070137
 20
0.858693
  0
VERTEX
  8
FOREGROUND
  6
CONTINUOUS
 10
0.073067
 20
0.846758
  0
VERTEX
  8
FOREGROUND
  6
CONTINUOUS
 10
0.076187
 20
0.834913
  0
VERTEX
  8
FOREGROUND
  6
CONTINUOUS
 10
0.079498
 20
0.823156
  0
VERTEX
  8
FOREGROUND
  6
CONTINUOUS
 10
0.082997
 20
0.811487
  0
VERTEX
  8
FOREGROUND
  6
CONTINUOUS
 10
0.086682
 20
0.799907
  0
VERTEX
  8
FOREGROUND
  6
CONTINUOUS
 10
0.090554
 20
0.788416
  0
VERTEX
  8
FOREGROUND
  6
CONTINUOUS
 10
0.094609
 20
0.777014
  0
VERTEX
  8
FOREGROUND
  6
CONTINUOUS
 10
0.098847
 20
0.765701
  0
VERTEX
  8
FOREGROUND
  6
CONTINUOUS
 10
0.103267
 20
0.754476
  0
VERTEX
  8
FOREGROUND
  6
CONTINUOUS
 10
0.107866
 20
0.743340
  0
VERTEX
  8
FOREGROUND
  6
CONTINUOUS
 10
0.112643
 20
0.732292
  0
VERTEX
  8
FOREGROUND
  6
CONTINUOUS
 10
0.117598
 20
0.721334
  0
VERTEX
  8
FOREGROUND
  6
CONTINUOUS
 10
0.122728
 20
0.710464
  0
VERTEX
  8
FOREGROUND
  6
CONTINUOUS
 10
0.128032
 20
0.699683
  0
VERTEX
  8
FOREGROUND
  6
CONTINUOUS
 10
0.133509
 20
0.688990
  0
VERTEX
  8
FOREGROUND
  6
CONTINUOUS
 10
0.139157
 20
0.678386
  0
VERTEX
  8
FOREGROUND
  6
CONTINUOUS
 10
0.144975
 20
0.667871
  0
VERTEX
  8
FOREGROUND
  6
CONTINUOUS
 10
0.150961
 20
0.657445
  0
VERTEX
  8
FOREGROUND
  6
CONTINUOUS
 10
0.157115
 20
0.647107
  0
VERTEX
  8
FOREGROUND
  6
CONTINUOUS
 10
0.163433
 20
0.636858
  0
VERTEX
  8
FOREGROUND
  6
CONTINUOUS
 10
0.169916
 20
0.626698
  0
VERTEX
  8
FOREGROUND
  6
CONTINUOUS
 10
0.176562
 20
0.616626
  0
VERTEX
  8
FOREGROUND
  6
CONTINUOUS
 10
0.183369
 20
0.606644
  0
VERTEX
  8
FOREGROUND
  6
CONTINUOUS
 10
0.190336
 20
0.596750
  0
VERTEX
  8
FOREGROUND
  6
CONTINUOUS
 10
0.197461
 20
0.586944
  0
VERTEX
  8
FOREGROUND
  6
CONTINUOUS
 10
0.204743
 20
0.577228
  0
VERTEX
  8
FOREGROUND
  6
CONTINUOUS
 10
0.212181
 20
0.567600
  0
VERTEX
  8
FOREGROUND
  6
CONTINUOUS
 10
0.219773
 20
0.558060
  0
VERTEX
  8
FOREGROUND
  6
CONTINUOUS
 10
0.227518
 20
0.548610
  0
VERTEX
  8
FOREGROUND
  6
CONTINUOUS
 10
0.235414
 20
0.539248
  0
VERTEX
  8
FOREGROUND
  6
CONTINUOUS
 10
0.243460
 20
0.529975
  0
VERTEX
  8
FOREGROUND
  6
CONTINUOUS
 10
0.251654
 20
0.520791
  0
VERTEX
  8
FOREGROUND
  6
CONTINUOUS
 10
0.259995
 20
0.511695
  0
VERTEX
  8
FOREGROUND
  6
CONTINUOUS
 10
0.268482
 20
0.502688
  0
VERTEX
  8
FOREGROUND
  6
CONTINUOUS
 10
0.277113
 20
0.493770
  0
VERTEX
  8
FOREGROUND
  6
CONTINUOUS
 10
0.285887
 20
0.484941
  0
VERTEX
  8
FOREGROUND
  6
CONTINUOUS
 10
0.294802
 20
0.476200
  0
VERTEX
  8
FOREGROUND
  6
CONTINUOUS
 10
0.303857
 20
0.467548
  0
VERTEX
  8
FOREGROUND
  6
CONTINUOUS
 10
0.313051
 20
0.458985
  0
VERTEX
  8
FOREGROUND
  6
CONTINUOUS
 10
0.322381
 20
0.450510
  0
VERTEX
  8
FOREGROUND
  6
CONTINUOUS
 10
0.331848
 20
0.442124
  0
VERTEX
  8
FOREGROUND
  6
CONTINUOUS
 10
0.341448
 20
0.433827
  0
VERTEX
  8
FOREGROUND
  6
CONTINUOUS
 10
0.351181
 20
0.425619
  0
VERTEX
  8
FOREGROUND
  6
CONTINUOUS
 10
0.361045
 20
0.417499
  0
VERTEX
  8
FOREGROUND
  6
CONTINUOUS
 10
0.371040
 20
0.409468
  0
VERTEX
  8
FOREGROUND
  6
CONTINUOUS
 10
0.381162
 20
0.401526
  0
VERTEX
  8
FOREGROUND
  6
CONTINUOUS
 10
0.391412
 20
0.393672
  0
VERTEX
  8
FOREGROUND
  6
CONTINUOUS
 10
0.401788
 20
0.385907
  0
VERTEX
  8
FOREGROUND
  6
CONTINUOUS
 10
0.412287
 20
0.378231
  0
VERTEX
  8
FOREGROUND
  6
CONTINUOUS
 10
0.422910
 20
0.370644
  0
VERTEX
  8
FOREGROUND
  6
CONTINUOUS
 10
0.433654
 20
0.363145
  0
VERTEX
  8
FOREGROUND
  6
CONTINUOUS
 10
0.444517
 20
0.355735
  0
VERTEX
  8
FOREGROUND
  6
CONTINUOUS
 10
0.455500
 20
0.348414
  0
VERTEX
  8
FOREGROUND
  6
CONTINUOUS
 10
0.466599
 20
0.341181
  0
VERTEX
  8
FOREGROUND
  6
CONTINUOUS
 10
0.477814
 20
0.334037
  0
VERTEX
  8
FOREGROUND
  6
CONTINUOUS
 10
0.489143
 20
0.326982
  0
VERTEX
  8
FOREGROUND
  6
CONTINUOUS
 10
0.500585
 20
0.320016
  0
VERTEX
  8
FOREGROUND
  6
CONTINUOUS
 10
0.512138
 20
0.313138
  0
VERTEX
  8
FOREGROUND
  6
CONTINUOUS
 10
0.523802
 20
0.306349
  0
VERTEX
  8
FOREGROUND
  6
CONTINUOUS
 10
0.535573
 20
0.299649
  0
VERTEX
  8
FOREGROUND
  6
CONTINUOUS
 10
0.547452
 20
0.293038
  0
VERTEX
  8
FOREGROUND
  6
CONTINUOUS
 10
0.559437
 20
0.286515
  0
VERTEX
  8
FOREGROUND
  6
CONTINUOUS
 10
0.571525
 20
0.280081
  0
VERTEX
  8
FOREGROUND
  6
CONTINUOUS
 10
0.583717
 20
0.273736
  0
VERTEX
  8
FOREGROUND
  6
CONTINUOUS
 10
0.596010
 20
0.267479
  0
VERTEX
  8
FOREGROUND
  6
CONTINUOUS
 10
0.608403
 20
0.261311
  0
VERTEX
  8
FOREGROUND
  6
CONTINUOUS
 10
0.620894
 20
0.255232
  0
VERTEX
  8
FOREGROUND
  6
CONTINUOUS
 10
0.633483
 20
0.249242
  0
VERTEX
  8
FOREGROUND
  6
CONTINUOUS
 10
0.646167
 20
0.243340
  0
VERTEX
  8
FOREGROUND
  6
CONTINUOUS
 10
0.658946
 20
0.237527
  0
VERTEX
  8
FOREGROUND
  6
CONTINUOUS
 10
0.671817
 20
0.231803
  0
VERTEX
  8
FOREGROUND
  6
CONTINUOUS
 10
0.684780
 20
0.226167
  0
VERTEX
  8
FOREGROUND
  6
CONTINUOUS
 10
0.697833
 20
0.220621
  0
VERTEX
  8
FOREGROUND
  6
CONTINUOUS
 10
0.710974
 20
0.215162
  0
VERTEX
  8
FOREGROUND
  6
CONTINUOUS
 10
0.724202
 20
0.209793
  0
VERTEX
  8
FOREGROUND
  6
CONTINUOUS
 10
0.737516
 20
0.204512
  0
VERTEX
  8
FOREGROUND
  6
CONTINUOUS
 10
0.750915
 20
0.199321
  0
VERTEX
  8
FOREGROUND
  6
CONTINUOUS
 10
0.764396
 20
0.194217
  0
VERTEX
  8
FOREGROUND
  6
CONTINUOUS
 10
0.777959
 20
0.189203
  0
VERTEX
  8
FOREGROUND
  6
CONTINUOUS
 10
0.791601
 20
0.184277
  0
VERTEX
  8
FOREGROUND
  6
CONTINUOUS
 10
0.805322
 20
0.179440
  0
VERTEX
  8
FOREGROUND
  6
CONTINUOUS
 10
0.819121
 20
0.174692
  0
VERTEX
  8
FOREGROUND
  6
CONTINUOUS
 10
0.832995
 20
0.170032
  0
VERTEX
  8
FOREGROUND
  6
CONTINUOUS
 10
0.846943
 20
0.165461
  0
VERTEX
  8
FOREGROUND
  6
CONTINUOUS
 10
0.860964
 20
0.160979
  0
VERTEX
  8
FOREGROUND
  6
CONTINUOUS
 10
0.875057
 20
0.156586
  0
VERTEX
  8
FOREGROUND
  6
CONTINUOUS
 10
0.889220
 20
0.152281
  0
VERTEX
  8
FOREGROUND
  6
CONTINUOUS
 10
0.903451
 20
0.148065
  0
VERTEX
  8
FOREGROUND
  6
CONTINUOUS
 10
0.917750
 20
0.143938
  0
VERTEX
  8
FOREGROUND
  6
CONTINUOUS
 10
0.932114
 20
0.139900
  0
VERTEX
  8
FOREGROUND
  6
CONTINUOUS
 10
0.946542
 20
0.135950
  0
VERTEX
  8
FOREGROUND
  6
CONTINUOUS
 10
0.961034
 20
0.132089
  0
VERTEX
  8
FOREGROUND
  6
CONTINUOUS
 10
0.975586
 20
0.128317
  0
VERTEX
  8
FOREGROUND
  6
CONTINUOUS
 10
0.990199
 20
0.124633
  0
VERTEX
  8
FOREGROUND
  6
CONTINUOUS
 10
1.004871
 20
0.121038
  0
VERTEX
  8
FOREGROUND
  6
CONTINUOUS
 10
1.019600
 20
0.117532
  0
VERTEX
  8
FOREGROUND
  6
CONTINUOUS
 10
1.034384
 20
0.114114
  0
VERTEX
  8
FOREGROUND
  6
CONTINUOUS
 10
1.049223
 20
0.110786
  0
VERTEX
  8
FOREGROUND
  6
CONTINUOUS
 10
1.064114
 20
0.107546
  0
VERTEX
  8
FOREGROUND
  6
CONTINUOUS
 10
1.079057
 20
0.104395
  0
VERTEX
  8
FOREGROUND
  6
CONTINUOUS
 10
1.094051
 20
0.101332
  0
VERTEX
  8
FOREGROUND
  6
CONTINUOUS
 10
1.109092
 20
0.098358
  0
VERTEX
  8
FOREGROUND
  6
CONTINUOUS
 10
1.124181
 20
0.095473
  0
VERTEX
  8
FOREGROUND
  6
CONTINUOUS
 10
1.139316
 20
0.092677
  0
VERTEX
  8
FOREGROUND
  6
CONTINUOUS
 10
1.154495
 20
0.089969
  0
VERTEX
  8
FOREGROUND
  6
CONTINUOUS
 10
1.169717
 20
0.087350
  0
VERTEX
  8
FOREGROUND
  6
CONTINUOUS
 10
1.184981
 20
0.084820
  0
VERTEX
  8
FOREGROUND
  6
CONTINUOUS
 10
1.200285
 20
0.082379
  0
VERTEX
  8
FOREGROUND
  6
CONTINUOUS
 10
1.215627
 20
0.080026
  0
VERTEX
  8
FOREGROUND
  6
CONTINUOUS
 10
1.231006
 20
0.077762
  0
VERTEX
  8
FOREGROUND
  6
CONTINUOUS
 10
1.246422
 20
0.075587
  0
VERTEX
  8
FOREGROUND
  6
CONTINUOUS
 10
1.261871
 20
0.073500
  0
VERTEX
  8
FOREGROUND
  6
CONTINUOUS
 10
1.277354
 20
0.071503
  0
VERTEX
  8
FOREGROUND
  6
CONTINUOUS
 10
1.292868
 20
0.069594
  0
VERTEX
  8
FOREGROUND
  6
CONTINUOUS
 10
1.308412
 20
0.067773
  0
VERTEX
  8
FOREGROUND
  6
CONTINUOUS
 10
1.323985
 20
0.066042
  0
VERTEX
  8
FOREGROUND
  6
CONTINUOUS
 10
1.339585
 20
0.064399
  0
VERTEX
  8
FOREGROUND
  6
CONTINUOUS
 10
1.355211
 20
0.062845
  0
VERTEX
  8
FOREGROUND
  6
CONTINUOUS
 10
1.370861
 20
0.061379
  0
VERTEX
  8
FOREGROUND
  6
CONTINUOUS
 10
1.386534
 20
0.060003
  0
VERTEX
  8
FOREGROUND
  6
CONTINUOUS
 10
1.402229
 20
0.058715
  0
VERTEX
  8
FOREGROUND
  6
CONTINUOUS
 10
1.417944
 20
0.057515
  0
VERTEX
  8
FOREGROUND
  6
CONTINUOUS
 10
1.433677
 20
0.056405
  0
VERTEX
  8
FOREGROUND
  6
CONTINUOUS
 10
1.449428
 20
0.055383
  0
VERTEX
  8
FOREGROUND
  6
CONTINUOUS
 10
1.465195
 20
0.054450
  0
VERTEX
  8
FOREGROUND
  6
CONTINUOUS
 10
1.480976
 20
0.053606
  0
VERTEX
  8
FOREGROUND
  6
CONTINUOUS
 10
1.496770
 20
0.052850
  0
VERTEX
  8
FOREGROUND
  6
CONTINUOUS
 10
1.512575
 20
0.052183
  0
VERTEX
  8
FOREGROUND
  6
CONTINUOUS
 10
1.528391
 20
0.051605
  0
VERTEX
  8
FOREGROUND
  6
CONTINUOUS
 10
1.544216
 20
0.051116
  0
VERTEX
  8
FOREGROUND
  6
CONTINUOUS
 10
1.560047
 20
0.050715
  0
VERTEX
  8
FOREGROUND
  6
CONTINUOUS
 10
1.575885
 20
0.050403
  0
VERTEX
  8
FOREGROUND
  6
CONTINUOUS
 10
1.591727
 20
0.050180
  0
VERTEX
  8
FOREGROUND
  6
CONTINUOUS
 10
1.607571
 20
0.050045
  0
VERTEX
  8
FOREGROUND
  6
CONTINUOUS
 10
1.623418
 20
0.050000
  0
VERTEX
  8
FOREGROUND
  6
CONTINUOUS
 10
1.639265
 20
0.050043
  0
VERTEX
  8
FOREGROUND
  6
CONTINUOUS
 10
1.655110
 20
0.050174
  0
VERTEX
  8
FOREGROUND
  6
CONTINUOUS
 10
1.670953
 20
0.050395
  0
VERTEX
  8
FOREGROUND
  6
CONTINUOUS
 10
1.686791
 20
0.050704
  0
VERTEX
  8
FOREGROUND
  6
CONTINUOUS
 10
1.702624
 20
0.051102
  0
VERTEX
  8
FOREGROUND
  6
CONTINUOUS
 10
1.718450
 20
0.051589
  0
VERTEX
  8
FOREGROUND
  6
CONTINUOUS
 10
1.734267
 20
0.052164
  0
VERTEX
  8
FOREGROUND
  6
CONTINUOUS
 10
1.750075
 20
0.052828
  0
VERTEX
  8
FOREGROUND
  6
CONTINUOUS
 10
1.765872
 20
0.053581
  0
VERTEX
  8
FOREGROUND
  6
CONTINUOUS
 10
1.781655
 20
0.054423
  0
VERTEX
  8
FOREGROUND
  6
CONTINUOUS
 10
1.797425
 20
0.055353
  0
VERTEX
  8
FOREGROUND
  6
CONTINUOUS
 10
1.813179
 20
0.056372
  0
VERTEX
  8
FOREGROUND
  6
CONTINUOUS
 10
1.828916
 20
0.057480
  0
VERTEX
  8
FOREGROUND
  6
CONTINUOUS
 10
1.844635
 20
0.058676
  0
VERTEX
  8
FOREGROUND
  6
CONTINUOUS
 10
1.860334
 20
0.059961
  0
VERTEX
  8
FOREGROUND
  6
CONTINUOUS
 10
1.876011
 20
0.061335
  0
VERTEX
  8
FOREGROUND
  6
CONTINUOUS
 10
1.891666
 20
0.062798
  0
VERTEX
  8
FOREGROUND
  6
CONTINUOUS
 10
1.907297
 20
0.064349
  0
VERTEX
  8
FOREGROUND
  6
CONTINUOUS
 10
1.922902
 20
0.065990
  0
VERTEX
  8
FOREGROUND
  6
CONTINUOUS
 10
1.938481
 20
0.067719
  0
VERTEX
  8
FOREGROUND
  6
CONTINUOUS
 10
1.954031
 20
0.069536
  0
VERTEX
  8
FOREGROUND
  6
CONTINUOUS
 10
1.969551
 20
0.071442
  0
VERTEX
  8
FOREGROUND
  6
CONTINUOUS
 10
1.985040
 20
0.073438
  0
VERTEX
  8
FOREGROUND
  6
CONTINUOUS
 10
2.000496
 20
0.075521
  0
VERTEX
  8
FOREGROUND
  6
CONTINUOUS
 10
2.015919
 20
0.077694
  0
VERTEX
  8
FOREGROUND
  6
CONTINUOUS
 10
2.031305
 20
0.079955
  0
VERTEX
  8
FOREGROUND
  6
CONTINUOUS
 10
2.046655
 20
0.082305
  0
VERTEX
  8
FOREGROUND
  6
CONTINUOUS
 10
2.061967
 20
0.084744
  0
VERTEX
  8
FOREGROUND
  6
CONTINUOUS
 10
2.077238
 20
0.087272
  0
VERTEX
  8
FOREGROUND
  6
CONTINUOUS
 10
2.092469
 20
0.089888
  0
VERTEX
  8
FOREGROUND
  6
CONTINUOUS
 10
2.107657
 20
0.092593
  0
VERTEX
  8
FOREGROUND
  6
CONTINUOUS
 10
2.122800
 20
0.095386
  0
VERTEX
  8
FOREGROUND
  6
CONTINUOUS
 10
2.137899
 20
0.098269
  0
VERTEX
  8
FOREGROUND
  6
CONTINUOUS
 10
2.152950
 20
0.101240
  0
VERTEX
  8
FOREGROUND
  6
CONTINUOUS
 10
2.167953
 20
0.104300
  0
VERTEX
  8
FOREGROUND
  6
CONTINUOUS
 10
2.182906
 20
0.107449
  0
VERTEX
  8
FOREGROUND
  6
CONTINUOUS
 10
2.197808
 20
0.110686
  0
VERTEX
  8
FOREGROUND
  6
CONTINUOUS
 10
2.212658
 20
0.114012
  0
VERTEX
  8
FOREGROUND
  6
CONTINUOUS
 10
2.227453
 20
0.117427
  0
VERTEX
  8
FOREGROUND
  6
CONTINUOUS
 10
2.242193
 20
0.120931
  0
VERTEX
  8
FOREGROUND
  6
CONTINUOUS
 10
2.256876
 20
0.124523
  0
VERTEX
  8
FOREGROUND
  6
CONTINUOUS
 10
2.271501
 20
0.128204
  0
VERTEX
  8
FOREGROUND
  6
CONTINUOUS
 10
2.286066
 20
0.131974
  0
VERTEX
  8
FOREGROUND
  6
CONTINUOUS
 10
2.300570
 20
0.135832
  0
VERTEX
  8
FOREGROUND
  6
CONTINUOUS
 10
2.315011
 20
0.139779
  0
VERTEX
  8
FOREGROUND
  6
CONTINUOUS
 10
2.329388
 20
0.143815
  0
VERTEX
  8
FOREGROUND
  6
CONTINUOUS
 10
2.343700
 20
0.147940
  0
VERTEX
  8
FOREGROUND
  6
CONTINUOUS
 10
2.357944
 20
0.152154
  0
VERTEX
  8
FOREGROUND
  6
CONTINUOUS
 10
2.372121
 20
0.156456
  0
VERTEX
  8
FOREGROUND
  6
CONTINUOUS
 10
2.386228
 20
0.160847
  0
VERTEX
  8
FOREGROUND
  6
CONTINUOUS
 10
2.400263
 20
0.165326
  0
VERTEX
  8
FOREGROUND
  6
CONTINUOUS
 10
2.414226
 20
0.169895
  0
VERTEX
  8
FOREGROUND
  6
CONTINUOUS
 10
2.428115
 20
0.174552
  0
VERTEX
  8
FOREGROUND
  6
CONTINUOUS
 10
2.441929
 20
0.179298
  0
VERTEX
  8
FOREGROUND
  6
CONTINUOUS
 10
2.455666
 20
0.184133
  0
VERTEX
  8
FOREGROUND
  6
CONTINUOUS
 10
2.469324
 20
0.189056
  0
VERTEX
  8
FOREGROUND
  6
CONTINUOUS
 10
2.482903
 20
0.194068
  0
VERTEX
  8
FOREGROUND
  6
CONTINUOUS
 10
2.496401
 20
0.199169
  0
VERTEX
  8
FOREGROUND
  6
CONTINUOUS
 10
2.509816
 20
0.204358
  0
VERTEX
  8
FOREGROUND
  6
CONTINUOUS
 10
2.523147
 20
0.209637
  0
VERTEX
  8
FOREGROUND
  6
CONTINUOUS
 10
2.536392
 20
0.215004
  0
VERTEX
  8
FOREGROUND
  6
CONTINUOUS
 10
2.549551
 20
0.220460
  0
VERTEX
  8
FOREGROUND
  6
CONTINUOUS
 10
2.562622
 20
0.226004
  0
VERTEX
  8
FOREGROUND
  6
CONTINUOUS
 10
2.575603
 20
0.231637
  0
VERTEX
  8
FOREGROUND
  6
CONTINUOUS
 10
2.588492
 20
0.237359
  0
VERTEX
  8
FOREGROUND
  6
CONTINUOUS
 10
2.601289
 20
0.243170
  0
VERTEX
  8
FOREGROUND
  6
CONTINUOUS
 10
2.613993
 20
0.249070
  0
VERTEX
  8
FOREGROUND
  6
CONTINUOUS
 10
2.626600
 20
0.255058
  0
VERTEX
  8
FOREGROUND
  6
CONTINUOUS
 10
2.639111
 20
0.261135
  0
VERTEX
  8
FOREGROUND
  6
CONTINUOUS
 10
2.651524
 20
0.267301
  0
VERTEX
  8
FOREGROUND
  6
CONTINUOUS
 10
2.663837
 20
0.273555
  0
VERTEX
  8
FOREGROUND
  6
CONTINUOUS
 10
2.676049
 20
0.279898
  0
VERTEX
  8
FOREGROUND
  6
CONTINUOUS
 10
2.688159
 20
0.286330
  0
VERTEX
  8
FOREGROUND
  6
CONTINUOUS
 10
2.700164
 20
0.292851
  0
VERTEX
  8
FOREGROUND
  6
CONTINUOUS
 10
2.712064
 20
0.299460
  0
VERTEX
  8
FOREGROUND
  6
CONTINUOUS
 10
2.723858
 20
0.306158
  0
VERTEX
  8
FOREGROUND
  6
CONTINUOUS
 10
2.735543
 20
0.312945
  0
VERTEX
  8
FOREGROUND
  6
CONTINUOUS
 10
2.747118
 20
0.319821
  0
VERTEX
  8
FOREGROUND
  6
CONTINUOUS
 10
2.758582
 20
0.326785
  0
VERTEX
  8
FOREGROUND
  6
CONTINUOUS
 10
2.769934
 20
0.333838
  0
VERTEX
  8
FOREGROUND
  6
CONTINUOUS
 10
2.781172
 20
0.340980
  0
VERTEX
  8
FOREGROUND
  6
CONTINUOUS
 10
2.792295
 20
0.348211
  0
VERTEX
  8
FOREGROUND
  6
CONTINUOUS
 10
2.803300
 20
0.355530
  0
VERTEX
  8
FOREGROUND
  6
CONTINUOUS
 10
2.814188
 20
0.362938
  0
VERTEX
  8
FOREGROUND
  6
CONTINUOUS
 10
2.824956
 20
0.370435
  0
VERTEX
  8
FOREGROUND
  6
CONTINUOUS
 10
2.835603
 20
0.378020
  0
VERTEX
  8
FOREGROUND
  6
CONTINUOUS
 10
2.846127
 20
0.385695
  0
VERTEX
  8
FOREGROUND
  6
CONTINUOUS
 10
2.856527
 20
0.393458
  0
VERTEX
  8
FOREGROUND
  6
CONTINUOUS
 10
2.866802
 20
0.401309
  0
VERTEX
  8
FOREGROUND
  6
CONTINUOUS
 10
2.876951
 20
0.409250
  0
VERTEX
  8
FOREGROUND
  6
CONTINUOUS
 10
2.886971
 20
0.417279
  0
VERTEX
  8
FOREGROUND
  6
CONTINUOUS
 10
2.896861
 20
0.425397
  0
VERTEX
  8
FOREGROUND
  6
CONTINUOUS
 10
2.906621
 20
0.433604
  0
VERTEX
  8
FOREGROUND
  6
CONTINUOUS
 10
2.916248
 20
0.441899
  0
VERTEX
  8
FOREGROUND
  6
CONTINUOUS
 10
2.925741
 20
0.450284
  0
VERTEX
  8
FOREGROUND
  6
CONTINUOUS
 10
2.935098
 20
0.458757
  0
VERTEX
  8
FOREGROUND
  6
CONTINUOUS
 10
2.944319
 20
0.467318
  0
VERTEX
  8
FOREGROUND
  6
CONTINUOUS
 10
2.953402
 20
0.475969
  0
VERTEX
  8
FOREGROUND
  6
CONTINUOUS
 10
2.962345
 20
0.484708
  0
VERTEX
  8
FOREGROUND
  6
CONTINUOUS
 10
2.971148
 20
0.493536
  0
VERTEX
  8
FOREGROUND
  6
CONTINUOUS
 10
2.979807
 20
0.502453
  0
VERTEX
  8
FOREGROUND
  6
CONTINUOUS
 10
2.988323
 20
0.511458
  0
VERTEX
  8
FOREGROUND
  6
CONTINUOUS
 10
2.996694
 20
0.520552
  0
VERTEX
  8
FOREGROUND
  6
CONTINUOUS
 10
3.004917
 20
0.529735
  0
VERTEX
  8
FOREGROUND
  6
CONTINUOUS
 10
3.012993
 20
0.539007
  0
VERTEX
  8
FOREGROUND
  6
CONTINUOUS
 10
3.020919
 20
0.548367
  0
VERTEX
  8
FOREGROUND
  6
CONTINUOUS
 10
3.028694
 20
0.557816
  0
VERTEX
  8
FOREGROUND
  6
CONTINUOUS
 10
3.036317
 20
0.567354
  0
VERTEX
  8
FOREGROUND
  6
CONTINUOUS
 10
3.043786
 20
0.576981
  0
VERTEX
  8
FOREGROUND
  6
CONTINUOUS
 10
3.051099
 20
0.586696
  0
VERTEX
  8
FOREGROUND
  6
CONTINUOUS
 10
3.058256
 20
0.596500
  0
VERTEX
  8
FOREGROUND
  6
CONTINUOUS
 10
3.065254
 20
0.606393
  0
VERTEX
  8
FOREGROUND
  6
CONTINUOUS
 10
3.072094
 20
0.616375
  0
VERTEX
  8
FOREGROUND
  6
CONTINUOUS
 10
3.078772
 20
0.626445
  0
VERTEX
  8
FOREGROUND
  6
CONTINUOUS
 10
3.085287
 20
0.636604
  0
VERTEX
  8
FOREGROUND
  6
CONTINUOUS
 10
3.091639
 20
0.646852
  0
VERTEX
  8
FOREGROUND
  6
CONTINUOUS
 10
3.097826
 20
0.657189
  0
VERTEX
  8
FOREGROUND
  6
CONTINUOUS
 10
3.103845
 20
0.667614
  0
VERTEX
  8
FOREGROUND
  6
CONTINUOUS
 10
3.109697
 20
0.678128
  0
VERTEX
  8
FOREGROUND
  6
CONTINUOUS
 10
3.115379
 20
0.688731
  0
VERTEX
  8
FOREGROUND
  6
CONTINUOUS
 10
3.120890
 20
0.699422
  0
VERTEX
  8
FOREGROUND
  6
CONTINUOUS
 10
3.126229
 20
0.710203
  0
VERTEX
  8
FOREGROUND
  6
CONTINUOUS
 10
3.131394
 20
0.721072
  0
VERTEX
  8
FOREGROUND
  6
CONTINUOUS
 10
3.136384
 20
0.732030
  0
VERTEX
  8
FOREGROUND
  6
CONTINUOUS
 10
3.141197
 20
0.743076
  0
VERTEX
  8
FOREGROUND
  6
CONTINUOUS
 10
3.145832
 20
0.754211
  0
VERTEX
  8
FOREGROUND
  6
CONTINUOUS
 10
3.150287
 20
0.765435
  0
VERTEX
  8
FOREGROUND
  6
CONTINUOUS
 10
3.154562
 20
0.776748
  0
VERTEX
  8
FOREGROUND
  6
CONTINUOUS
 10
3.158654
 20
0.788150
  0
VERTEX
  8
FOREGROUND
  6
CONTINUOUS
 10
3.162562
 20
0.799640
  0
VERTEX
  8
FOREGROUND
  6
CONTINUOUS
 10
3.166285
 20
0.811219
  0
VERTEX
  8
FOREGROUND
  6
CONTINUOUS
 10
3.169821
 20
0.822887
  0
VERTEX
  8
FOREGROUND
  6
CONTINUOUS
 10
3.173170
 20
0.834643
  0
VERTEX
  8
FOREGROUND
  6
CONTINUOUS
 10
3.176328
 20
0.846489
  0
VERTEX
  8
FOREGROUND
  6
CONTINUOUS
 10
3.179296
 20
0.858423
  0
VERTEX
  8
FOREGROUND
  6
CONTINUOUS
 10
3.182072
 20
0.870445
  0
VERTEX
  8
FOREGROUND
  6
CONTINUOUS
 10
3.184653
 20
0.882557
  0
VERTEX
  8
FOREGROUND
  6
CONTINUOUS
 10
3.187040
 20
0.894757
  0
VERTEX
  8
FOREGROUND
  6
CONTINUOUS
 10
3.189230
 20
0.907046
  0
VERTEX
  8
FOREGROUND
  6
CONTINUOUS
 10
3.191221
 20
0.919424
  0
VERTEX
  8
FOREGROUND
  6
CONTINUOUS
 10
3.193014
 20
0.931891
  0
VERTEX
  8
FOREGROUND
  6
CONTINUOUS
 10
3.194605
 20
0.944446
  0
VERTEX
  8
FOREGROUND
  6
CONTINUOUS
 10
3.195994
 20
0.957090
  0
VERTEX
  8
FOREGROUND
  6
CONTINUOUS
 10
3.197179
 20
0.969823
  0
VERTEX
  8
FOREGROUND
  6
CONTINUOUS
 10
3.198159
 20
0.982644
  0
VERTEX
  8
FOREGROUND
  6
CONTINUOUS
 10
3.198933
 20
0.995554
  0
VERTEX
  8
FOREGROUND
  6
CONTINUOUS
 10
3.199498
 20
1.008553
  0
VERTEX
  8
FOREGROUND
  6
CONTINUOUS
 10
3.199854
 20
1.021641
  0
VERTEX
  8
FOREGROUND
  6
CONTINUOUS
 10
3.199999
 20
1.034817
  0
SEQEND
  8
0
  0
ENDSEC
  0
EOF
