  0
SECTION
  2
HEADER
  9
$ACADVER
  1
AC1006
  9
$EXTMIN
 10
0.000000
 20
0.000000
  9
$EXTMAX
 10
3.251667
 20
2.463333
  9
$LTSCALE
 40
0.166667
  9
$PDMODE
 70
    35
  9
$PDSIZE
 40
0.133333
  0
ENDSEC
  0
SECTION
  2
TABLES
  0
TABLE
  2
LTYPE
 70
     9
  0
LTYPE
  2
CONTINUOUS
 70
    64
  3
Solid line
 72
    65
 73
     0
 40
0.000000
  0
LTYPE
  2
DASHED
 70
    64
  3
__ __ __ __ __ __ __ __ __ __ __ __ __ __ __
 72
    65
 73
     2
 40
0.001250
 49
0.000833
 49
-0.000417
  0
LTYPE
  2
HIDDEN
 70
    64
  3
 _ _ _ _ _ _ _ _ _ _ _ _ _ _ _ _ _ _ _ _ _ _
 72
    65
 73
     2
 40
0.000625
 49
0.000417
 49
-0.000208
  0
LTYPE
  2
CENTER
 70
    64
  3
____ _ ____ _ ____ _ ____ _ ____ _ ____ _ ____
 72
    65
 73
     4
 40
0.003333
 49
0.002083
 49
-0.000417
 49
0.000417
 49
-0.000417
  0
LTYPE
  2
PHANTOM
 70
    64
  3
_____ _ _ _____ _ _ _____ _ _ _____ _ _ ____
 72
    65
 73
     6
 40
0.004167
 49
0.002083
 49
-0.000417
 49
0.000417
 49
-0.000417
 49
0.000417
 49
-0.000417
  0
LTYPE
  2
DOT
 70
    64
  3
...............................................
 72
    65
 73
     2
 40
0.000417
 49
0.000000
 49
-0.000417
  0
LTYPE
  2
DASHDOT
 70
    64
  3
__ . __ . __ . __ . __ . __ . __ . __ . __ . __
 72
    65
 73
     4
 40
0.001667
 49
0.000833
 49
-0.000417
 49
0.000000
 49
-0.000417
  0
LTYPE
  2
BORDER
 70
    64
  3
__ __ . __ __ . __ __ . __ __ . __ __ . __ __
 72
    65
 73
     6
 40
0.002917
 49
0.000833
 49
-0.000417
 49
0.000833
 49
-0.000417
 49
0.000000
 49
-0.000417
  0
LTYPE
  2
DIVIDE
 70
    64
  3
__ . . __ . . __ . . __ . . __ . . __ . . __
 72
    65
 73
     6
 40
0.002083
 49
0.000833
 49
-0.000417
 49
0.000000
 49
-0.000417
 49
0.000000
 49
-0.000417
  0
LTYPE
  2
DOTDOT
 70
    64
  3
 . .  . .  . .  . .  . .  . . 
 72
    65
 73
     5
 40
0.000917
 49
-0.000417
 49
0.000000
 49
-0.000417
 49
0.000000
 49
-0.000417
  0
ENDTAB
  0
TABLE
  2
STYLE
 70
     2
  0
STYLE
 70
     0
  2
SN0
 40
0.000000
 41
0.001667
 50
0.000000
 71
     0
 42
0.000000
  3
ROMAND
  0
STYLE
 70
    68
  2
SV0
 40
0.000000
 41
0.001667
 50
0.000000
 71
     0
 42
0.000000
  3
ROMAND
  0
ENDTAB
  0
TABLE
  2
LAYER
 70
     2
  0
LAYER
  2
FOREGROUND
 70
    64
 62
     7
  6
CONTINUOUS
  0
LAYER
  2
BACKGROUND
 70
    65
 62
    -7
  6
CONTINUOUS
  0
ENDTAB
  0
ENDSEC
  0
SECTION
  2
ENTITIES
  0
POLYLINE
  8
FOREGROUND
  6
CONTINUOUS
 66
     1
 40
0.010000
 41
0.010000
 70
     1
  0
VERTEX
  8
FOREGROUND
  6
CONTINUOUS
 10
3.200000
 20
1.231667
  0
VERTEX
  8
FOREGROUND
  6
CONTINUOUS
 10
3.199894
 20
1.247012
  0
VERTEX
  8
FOREGROUND
  6
CONTINUOUS
 10
3.199589
 20
1.262257
  0
VERTEX
  8
FOREGROUND
  6
CONTINUOUS
 10
3.199087
 20
1.277402
  0
VERTEX
  8
FOREGROUND
  6
CONTINUOUS
 10
3.198388
 20
1.292447
  0
VERTEX
  8
FOREGROUND
  6
CONTINUOUS
 10
3.197495
 20
1.307391
  0
VERTEX
  8
FOREGROUND
  6
CONTINUOUS
 10
3.196407
 20
1.322235
  0
VERTEX
  8
FOREGROUND
  6
CONTINUOUS
 10
3.195127
 20
1.336979
  0
VERTEX
  8
FOREGROUND
  6
CONTINUOUS
 10
3.193656
 20
1.351622
  0
VERTEX
  8
FOREGROUND
  6
CONTINUOUS
 10
3.191996
 20
1.366165
  0
VERTEX
  8
FOREGROUND
  6
CONTINUOUS
 10
3.190146
 20
1.380608
  0
VERTEX
  8
FOREGROUND
  6
CONTINUOUS
 10
3.188110
 20
1.394951
  0
VERTEX
  8
FOREGROUND
  6
CONTINUOUS
 10
3.185887
 20
1.409193
  0
VERTEX
  8
FOREGROUND
  6
CONTINUOUS
 10
3.183480
 20
1.423335
  0
VERTEX
  8
FOREGROUND
  6
CONTINUOUS
 10
3.180890
 20
1.437377
  0
VERTEX
  8
FOREGROUND
  6
CONTINUOUS
 10
3.178117
 20
1.451318
  0
VERTEX
  8
FOREGROUND
  6
CONTINUOUS
 10
3.175164
 20
1.465159
  0
VERTEX
  8
FOREGROUND
  6
CONTINUOUS
 10
3.172031
 20
1.478900
  0
VERTEX
  8
FOREGROUND
  6
CONTINUOUS
 10
3.168721
 20
1.492540
  0
VERTEX
  8
FOREGROUND
  6
CONTINUOUS
 10
3.165233
 20
1.506081
  0
VERTEX
  8
FOREGROUND
  6
CONTINUOUS
 10
3.161570
 20
1.519520
  0
VERTEX
  8
FOREGROUND
  6
CONTINUOUS
 10
3.157733
 20
1.532860
  0
VERTEX
  8
FOREGROUND
  6
CONTINUOUS
 10
3.153723
 20
1.546099
  0
VERTEX
  8
FOREGROUND
  6
CONTINUOUS
 10
3.149541
 20
1.559239
  0
VERTEX
  8
FOREGROUND
  6
CONTINUOUS
 10
3.145190
 20
1.572277
  0
VERTEX
  8
FOREGROUND
  6
CONTINUOUS
 10
3.140669
 20
1.585216
  0
VERTEX
  8
FOREGROUND
  6
CONTINUOUS
 10
3.135980
 20
1.598054
  0
VERTEX
  8
FOREGROUND
  6
CONTINUOUS
 10
3.131125
 20
1.610792
  0
VERTEX
  8
FOREGROUND
  6
CONTINUOUS
 10
3.126105
 20
1.623429
  0
VERTEX
  8
FOREGROUND
  6
CONTINUOUS
 10
3.120922
 20
1.635967
  0
VERTEX
  8
FOREGROUND
  6
CONTINUOUS
 10
3.115576
 20
1.648404
  0
VERTEX
  8
FOREGROUND
  6
CONTINUOUS
 10
3.110068
 20
1.660741
  0
VERTEX
  8
FOREGROUND
  6
CONTINUOUS
 10
3.104401
 20
1.672977
  0
VERTEX
  8
FOREGROUND
  6
CONTINUOUS
 10
3.098575
 20
1.685113
  0
VERTEX
  8
FOREGROUND
  6
CONTINUOUS
 10
3.092593
 20
1.697149
  0
VERTEX
  8
FOREGROUND
  6
CONTINUOUS
 10
3.086454
 20
1.709084
  0
VERTEX
  8
FOREGROUND
  6
CONTINUOUS
 10
3.080160
 20
1.720920
  0
VERTEX
  8
FOREGROUND
  6
CONTINUOUS
 10
3.073714
 20
1.732655
  0
VERTEX
  8
FOREGROUND
  6
CONTINUOUS
 10
3.067115
 20
1.744289
  0
VERTEX
  8
FOREGROUND
  6
CONTINUOUS
 10
3.060365
 20
1.755824
  0
VERTEX
  8
FOREGROUND
  6
CONTINUOUS
 10
3.053466
 20
1.767258
  0
VERTEX
  8
FOREGROUND
  6
CONTINUOUS
 10
3.046419
 20
1.778592
  0
VERTEX
  8
FOREGROUND
  6
CONTINUOUS
 10
3.039226
 20
1.789825
  0
VERTEX
  8
FOREGROUND
  6
CONTINUOUS
 10
3.031886
 20
1.800958
  0
VERTEX
  8
FOREGROUND
  6
CONTINUOUS
 10
3.024403
 20
1.811991
  0
VERTEX
  8
FOREGROUND
  6
CONTINUOUS
 10
3.016777
 20
1.822924
  0
VERTEX
  8
FOREGROUND
  6
CONTINUOUS
 10
3.009009
 20
1.833756
  0
VERTEX
  8
FOREGROUND
  6
CONTINUOUS
 10
3.001100
 20
1.844488
  0
VERTEX
  8
FOREGROUND
  6
CONTINUOUS
 10
2.993053
 20
1.855120
  0
VERTEX
  8
FOREGROUND
  6
CONTINUOUS
 10
2.984868
 20
1.865652
  0
VERTEX
  8
FOREGROUND
  6
CONTINUOUS
 10
2.976547
 20
1.876083
  0
VERTEX
  8
FOREGROUND
  6
CONTINUOUS
 10
2.968091
 20
1.886414
  0
VERTEX
  8
FOREGROUND
  6
CONTINUOUS
 10
2.959501
 20
1.896644
  0
VERTEX
  8
FOREGROUND
  6
CONTINUOUS
 10
2.950778
 20
1.906775
  0
VERTEX
  8
FOREGROUND
  6
CONTINUOUS
 10
2.941925
 20
1.916805
  0
VERTEX
  8
FOREGROUND
  6
CONTINUOUS
 10
2.932941
 20
1.926734
  0
VERTEX
  8
FOREGROUND
  6
CONTINUOUS
 10
2.923829
 20
1.936564
  0
VERTEX
  8
FOREGROUND
  6
CONTINUOUS
 10
2.914590
 20
1.946293
  0
VERTEX
  8
FOREGROUND
  6
CONTINUOUS
 10
2.905225
 20
1.955922
  0
VERTEX
  8
FOREGROUND
  6
CONTINUOUS
 10
2.895735
 20
1.965450
  0
VERTEX
  8
FOREGROUND
  6
CONTINUOUS
 10
2.886122
 20
1.974879
  0
VERTEX
  8
FOREGROUND
  6
CONTINUOUS
 10
2.876387
 20
1.984207
  0
VERTEX
  8
FOREGROUND
  6
CONTINUOUS
 10
2.866531
 20
1.993434
  0
VERTEX
  8
FOREGROUND
  6
CONTINUOUS
 10
2.856556
 20
2.002562
  0
VERTEX
  8
FOREGROUND
  6
CONTINUOUS
 10
2.846462
 20
2.011589
  0
VERTEX
  8
FOREGROUND
  6
CONTINUOUS
 10
2.836252
 20
2.020515
  0
VERTEX
  8
FOREGROUND
  6
CONTINUOUS
 10
2.825926
 20
2.029342
  0
VERTEX
  8
FOREGROUND
  6
CONTINUOUS
 10
2.815486
 20
2.038068
  0
VERTEX
  8
FOREGROUND
  6
CONTINUOUS
 10
2.804934
 20
2.046694
  0
VERTEX
  8
FOREGROUND
  6
CONTINUOUS
 10
2.794269
 20
2.055220
  0
VERTEX
  8
FOREGROUND
  6
CONTINUOUS
 10
2.783495
 20
2.063645
  0
VERTEX
  8
FOREGROUND
  6
CONTINUOUS
 10
2.772611
 20
2.071970
  0
VERTEX
  8
FOREGROUND
  6
CONTINUOUS
 10
2.761620
 20
2.080195
  0
VERTEX
  8
FOREGROUND
  6
CONTINUOUS
 10
2.750522
 20
2.088319
  0
VERTEX
  8
FOREGROUND
  6
CONTINUOUS
 10
2.739320
 20
2.096343
  0
VERTEX
  8
FOREGROUND
  6
CONTINUOUS
 10
2.728013
 20
2.104267
  0
VERTEX
  8
FOREGROUND
  6
CONTINUOUS
 10
2.716604
 20
2.112091
  0
VERTEX
  8
FOREGROUND
  6
CONTINUOUS
 10
2.705094
 20
2.119814
  0
VERTEX
  8
FOREGROUND
  6
CONTINUOUS
 10
2.693484
 20
2.127437
  0
VERTEX
  8
FOREGROUND
  6
CONTINUOUS
 10
2.681776
 20
2.134960
  0
VERTEX
  8
FOREGROUND
  6
CONTINUOUS
 10
2.669970
 20
2.142382
  0
VERTEX
  8
FOREGROUND
  6
CONTINUOUS
 10
2.658068
 20
2.149704
  0
VERTEX
  8
FOREGROUND
  6
CONTINUOUS
 10
2.646072
 20
2.156926
  0
VERTEX
  8
FOREGROUND
  6
CONTINUOUS
 10
2.633983
 20
2.164048
  0
VERTEX
  8
FOREGROUND
  6
CONTINUOUS
 10
2.621801
 20
2.171069
  0
VERTEX
  8
FOREGROUND
  6
CONTINUOUS
 10
2.609529
 20
2.177990
  0
VERTEX
  8
FOREGROUND
  6
CONTINUOUS
 10
2.597167
 20
2.184810
  0
VERTEX
  8
FOREGROUND
  6
CONTINUOUS
 10
2.584717
 20
2.191531
  0
VERTEX
  8
FOREGROUND
  6
CONTINUOUS
 10
2.572180
 20
2.198151
  0
VERTEX
  8
FOREGROUND
  6
CONTINUOUS
 10
2.559558
 20
2.204670
  0
VERTEX
  8
FOREGROUND
  6
CONTINUOUS
 10
2.546852
 20
2.211090
  0
VERTEX
  8
FOREGROUND
  6
CONTINUOUS
 10
2.534063
 20
2.217409
  0
VERTEX
  8
FOREGROUND
  6
CONTINUOUS
 10
2.521192
 20
2.223628
  0
VERTEX
  8
FOREGROUND
  6
CONTINUOUS
 10
2.508241
 20
2.229746
  0
VERTEX
  8
FOREGROUND
  6
CONTINUOUS
 10
2.495211
 20
2.235765
  0
VERTEX
  8
FOREGROUND
  6
CONTINUOUS
 10
2.482103
 20
2.241683
  0
VERTEX
  8
FOREGROUND
  6
CONTINUOUS
 10
2.468919
 20
2.247500
  0
VERTEX
  8
FOREGROUND
  6
CONTINUOUS
 10
2.455660
 20
2.253218
  0
VERTEX
  8
FOREGROUND
  6
CONTINUOUS
 10
2.442327
 20
2.258835
  0
VERTEX
  8
FOREGROUND
  6
CONTINUOUS
 10
2.428921
 20
2.264352
  0
VERTEX
  8
FOREGROUND
  6
CONTINUOUS
 10
2.415445
 20
2.269768
  0
VERTEX
  8
FOREGROUND
  6
CONTINUOUS
 10
2.401898
 20
2.275084
  0
VERTEX
  8
FOREGROUND
  6
CONTINUOUS
 10
2.388283
 20
2.280300
  0
VERTEX
  8
FOREGROUND
  6
CONTINUOUS
 10
2.374601
 20
2.285416
  0
VERTEX
  8
FOREGROUND
  6
CONTINUOUS
 10
2.360853
 20
2.290431
  0
VERTEX
  8
FOREGROUND
  6
CONTINUOUS
 10
2.347040
 20
2.295346
  0
VERTEX
  8
FOREGROUND
  6
CONTINUOUS
 10
2.333164
 20
2.300161
  0
VERTEX
  8
FOREGROUND
  6
CONTINUOUS
 10
2.319226
 20
2.304876
  0
VERTEX
  8
FOREGROUND
  6
CONTINUOUS
 10
2.305227
 20
2.309490
  0
VERTEX
  8
FOREGROUND
  6
CONTINUOUS
 10
2.291169
 20
2.314004
  0
VERTEX
  8
FOREGROUND
  6
CONTINUOUS
 10
2.277052
 20
2.318417
  0
VERTEX
  8
FOREGROUND
  6
CONTINUOUS
 10
2.262879
 20
2.322730
  0
VERTEX
  8
FOREGROUND
  6
CONTINUOUS
 10
2.248650
 20
2.326943
  0
VERTEX
  8
FOREGROUND
  6
CONTINUOUS
 10
2.234367
 20
2.331056
  0
VERTEX
  8
FOREGROUND
  6
CONTINUOUS
 10
2.220032
 20
2.335068
  0
VERTEX
  8
FOREGROUND
  6
CONTINUOUS
 10
2.205644
 20
2.338980
  0
VERTEX
  8
FOREGROUND
  6
CONTINUOUS
 10
2.191207
 20
2.342792
  0
VERTEX
  8
FOREGROUND
  6
CONTINUOUS
 10
2.176720
 20
2.346504
  0
VERTEX
  8
FOREGROUND
  6
CONTINUOUS
 10
2.162186
 20
2.350115
  0
VERTEX
  8
FOREGROUND
  6
CONTINUOUS
 10
2.147605
 20
2.353626
  0
VERTEX
  8
FOREGROUND
  6
CONTINUOUS
 10
2.132979
 20
2.357036
  0
VERTEX
  8
FOREGROUND
  6
CONTINUOUS
 10
2.118309
 20
2.360347
  0
VERTEX
  8
FOREGROUND
  6
CONTINUOUS
 10
2.103597
 20
2.363557
  0
VERTEX
  8
FOREGROUND
  6
CONTINUOUS
 10
2.088844
 20
2.366667
  0
VERTEX
  8
FOREGROUND
  6
CONTINUOUS
 10
2.074051
 20
2.369676
  0
VERTEX
  8
FOREGROUND
  6
CONTINUOUS
 10
2.059220
 20
2.372585
  0
VERTEX
  8
FOREGROUND
  6
CONTINUOUS
 10
2.044351
 20
2.375394
  0
VERTEX
  8
FOREGROUND
  6
CONTINUOUS
 10
2.029446
 20
2.378102
  0
VERTEX
  8
FOREGROUND
  6
CONTINUOUS
 10
2.014507
 20
2.380711
  0
VERTEX
  8
FOREGROUND
  6
CONTINUOUS
 10
1.999534
 20
2.383219
  0
VERTEX
  8
FOREGROUND
  6
CONTINUOUS
 10
1.984529
 20
2.385626
  0
VERTEX
  8
FOREGROUND
  6
CONTINUOUS
 10
1.969494
 20
2.387934
  0
VERTEX
  8
FOREGROUND
  6
CONTINUOUS
 10
1.954429
 20
2.390141
  0
VERTEX
  8
FOREGROUND
  6
CONTINUOUS
 10
1.939336
 20
2.392247
  0
VERTEX
  8
FOREGROUND
  6
CONTINUOUS
 10
1.924216
 20
2.394254
  0
VERTEX
  8
FOREGROUND
  6
CONTINUOUS
 10
1.909071
 20
2.396160
  0
VERTEX
  8
FOREGROUND
  6
CONTINUOUS
 10
1.893901
 20
2.397966
  0
VERTEX
  8
FOREGROUND
  6
CONTINUOUS
 10
1.878709
 20
2.399672
  0
VERTEX
  8
FOREGROUND
  6
CONTINUOUS
 10
1.863495
 20
2.401277
  0
VERTEX
  8
FOREGROUND
  6
CONTINUOUS
 10
1.848260
 20
2.402782
  0
VERTEX
  8
FOREGROUND
  6
CONTINUOUS
 10
1.833007
 20
2.404187
  0
VERTEX
  8
FOREGROUND
  6
CONTINUOUS
 10
1.817736
 20
2.405491
  0
VERTEX
  8
FOREGROUND
  6
CONTINUOUS
 10
1.802449
 20
2.406695
  0
VERTEX
  8
FOREGROUND
  6
CONTINUOUS
 10
1.787146
 20
2.407799
  0
VERTEX
  8
FOREGROUND
  6
CONTINUOUS
 10
1.771830
 20
2.408802
  0
VERTEX
  8
FOREGROUND
  6
CONTINUOUS
 10
1.756501
 20
2.409706
  0
VERTEX
  8
FOREGROUND
  6
CONTINUOUS
 10
1.741162
 20
2.410508
  0
VERTEX
  8
FOREGROUND
  6
CONTINUOUS
 10
1.725812
 20
2.411211
  0
VERTEX
  8
FOREGROUND
  6
CONTINUOUS
 10
1.710454
 20
2.411813
  0
VERTEX
  8
FOREGROUND
  6
CONTINUOUS
 10
1.695088
 20
2.412315
  0
VERTEX
  8
FOREGROUND
  6
CONTINUOUS
 10
1.679717
 20
2.412717
  0
VERTEX
  8
FOREGROUND
  6
CONTINUOUS
 10
1.664341
 20
2.413019
  0
VERTEX
  8
FOREGROUND
  6
CONTINUOUS
 10
1.648961
 20
2.413220
  0
VERTEX
  8
FOREGROUND
  6
CONTINUOUS
 10
1.633580
 20
2.413320
  0
VERTEX
  8
FOREGROUND
  6
CONTINUOUS
 10
1.618198
 20
2.413321
  0
VERTEX
  8
FOREGROUND
  6
CONTINUOUS
 10
1.602816
 20
2.413221
  0
VERTEX
  8
FOREGROUND
  6
CONTINUOUS
 10
1.587436
 20
2.413021
  0
VERTEX
  8
FOREGROUND
  6
CONTINUOUS
 10
1.572060
 20
2.412721
  0
VERTEX
  8
FOREGROUND
  6
CONTINUOUS
 10
1.556688
 20
2.412320
  0
VERTEX
  8
FOREGROUND
  6
CONTINUOUS
 10
1.541321
 20
2.411819
  0
VERTEX
  8
FOREGROUND
  6
CONTINUOUS
 10
1.525962
 20
2.411218
  0
VERTEX
  8
FOREGROUND
  6
CONTINUOUS
 10
1.510612
 20
2.410516
  0
VERTEX
  8
FOREGROUND
  6
CONTINUOUS
 10
1.495271
 20
2.409715
  0
VERTEX
  8
FOREGROUND
  6
CONTINUOUS
 10
1.479940
 20
2.408812
  0
VERTEX
  8
FOREGROUND
  6
CONTINUOUS
 10
1.464623
 20
2.407810
  0
VERTEX
  8
FOREGROUND
  6
CONTINUOUS
 10
1.449319
 20
2.406707
  0
VERTEX
  8
FOREGROUND
  6
CONTINUOUS
 10
1.434029
 20
2.405504
  0
VERTEX
  8
FOREGROUND
  6
CONTINUOUS
 10
1.418757
 20
2.404201
  0
VERTEX
  8
FOREGROUND
  6
CONTINUOUS
 10
1.403501
 20
2.402797
  0
VERTEX
  8
FOREGROUND
  6
CONTINUOUS
 10
1.388265
 20
2.401293
  0
VERTEX
  8
FOREGROUND
  6
CONTINUOUS
 10
1.373048
 20
2.399689
  0
VERTEX
  8
FOREGROUND
  6
CONTINUOUS
 10
1.357853
 20
2.397985
  0
VERTEX
  8
FOREGROUND
  6
CONTINUOUS
 10
1.342681
 20
2.396180
  0
VERTEX
  8
FOREGROUND
  6
CONTINUOUS
 10
1.327533
 20
2.394275
  0
VERTEX
  8
FOREGROUND
  6
CONTINUOUS
 10
1.312410
 20
2.392269
  0
VERTEX
  8
FOREGROUND
  6
CONTINUOUS
 10
1.297314
 20
2.390164
  0
VERTEX
  8
FOREGROUND
  6
CONTINUOUS
 10
1.282245
 20
2.387958
  0
VERTEX
  8
FOREGROUND
  6
CONTINUOUS
 10
1.267206
 20
2.385651
  0
VERTEX
  8
FOREGROUND
  6
CONTINUOUS
 10
1.252198
 20
2.383245
  0
VERTEX
  8
FOREGROUND
  6
CONTINUOUS
 10
1.237222
 20
2.380738
  0
VERTEX
  8
FOREGROUND
  6
CONTINUOUS
 10
1.222278
 20
2.378131
  0
VERTEX
  8
FOREGROUND
  6
CONTINUOUS
 10
1.207369
 20
2.375423
  0
VERTEX
  8
FOREGROUND
  6
CONTINUOUS
 10
1.192496
 20
2.372615
  0
VERTEX
  8
FOREGROUND
  6
CONTINUOUS
 10
1.177660
 20
2.369707
  0
VERTEX
  8
FOREGROUND
  6
CONTINUOUS
 10
1.162863
 20
2.366699
  0
VERTEX
  8
FOREGROUND
  6
CONTINUOUS
 10
1.148105
 20
2.363590
  0
VERTEX
  8
FOREGROUND
  6
CONTINUOUS
 10
1.133388
 20
2.360381
  0
VERTEX
  8
FOREGROUND
  6
CONTINUOUS
 10
1.118714
 20
2.357072
  0
VERTEX
  8
FOREGROUND
  6
CONTINUOUS
 10
1.104083
 20
2.353662
  0
VERTEX
  8
FOREGROUND
  6
CONTINUOUS
 10
1.089497
 20
2.350152
  0
VERTEX
  8
FOREGROUND
  6
CONTINUOUS
 10
1.074957
 20
2.346542
  0
VERTEX
  8
FOREGROUND
  6
CONTINUOUS
 10
1.060465
 20
2.342832
  0
VERTEX
  8
FOREGROUND
  6
CONTINUOUS
 10
1.046021
 20
2.339021
  0
VERTEX
  8
FOREGROUND
  6
CONTINUOUS
 10
1.031628
 20
2.335110
  0
VERTEX
  8
FOREGROUND
  6
CONTINUOUS
 10
1.017286
 20
2.331098
  0
VERTEX
  8
FOREGROUND
  6
CONTINUOUS
 10
1.002997
 20
2.326987
  0
VERTEX
  8
FOREGROUND
  6
CONTINUOUS
 10
0.988762
 20
2.322775
  0
VERTEX
  8
FOREGROUND
  6
CONTINUOUS
 10
0.974582
 20
2.318462
  0
VERTEX
  8
FOREGROUND
  6
CONTINUOUS
 10
0.960459
 20
2.314050
  0
VERTEX
  8
FOREGROUND
  6
CONTINUOUS
 10
0.946394
 20
2.309537
  0
VERTEX
  8
FOREGROUND
  6
CONTINUOUS
 10
0.932389
 20
2.304924
  0
VERTEX
  8
FOREGROUND
  6
CONTINUOUS
 10
0.918443
 20
2.300210
  0
VERTEX
  8
FOREGROUND
  6
CONTINUOUS
 10
0.904560
 20
2.295396
  0
VERTEX
  8
FOREGROUND
  6
CONTINUOUS
 10
0.890740
 20
2.290482
  0
VERTEX
  8
FOREGROUND
  6
CONTINUOUS
 10
0.876984
 20
2.285468
  0
VERTEX
  8
FOREGROUND
  6
CONTINUOUS
 10
0.863294
 20
2.280353
  0
VERTEX
  8
FOREGROUND
  6
CONTINUOUS
 10
0.849671
 20
2.275138
  0
VERTEX
  8
FOREGROUND
  6
CONTINUOUS
 10
0.836117
 20
2.269823
  0
VERTEX
  8
FOREGROUND
  6
CONTINUOUS
 10
0.822632
 20
2.264408
  0
VERTEX
  8
FOREGROUND
  6
CONTINUOUS
 10
0.809218
 20
2.258892
  0
VERTEX
  8
FOREGROUND
  6
CONTINUOUS
 10
0.795877
 20
2.253276
  0
VERTEX
  8
FOREGROUND
  6
CONTINUOUS
 10
0.782609
 20
2.247559
  0
VERTEX
  8
FOREGROUND
  6
CONTINUOUS
 10
0.769416
 20
2.241742
  0
VERTEX
  8
FOREGROUND
  6
CONTINUOUS
 10
0.756300
 20
2.235825
  0
VERTEX
  8
FOREGROUND
  6
CONTINUOUS
 10
0.743261
 20
2.229808
  0
VERTEX
  8
FOREGROUND
  6
CONTINUOUS
 10
0.730300
 20
2.223690
  0
VERTEX
  8
FOREGROUND
  6
CONTINUOUS
 10
0.717420
 20
2.217472
  0
VERTEX
  8
FOREGROUND
  6
CONTINUOUS
 10
0.704621
 20
2.211154
  0
VERTEX
  8
FOREGROUND
  6
CONTINUOUS
 10
0.691905
 20
2.204735
  0
VERTEX
  8
FOREGROUND
  6
CONTINUOUS
 10
0.679273
 20
2.198217
  0
VERTEX
  8
FOREGROUND
  6
CONTINUOUS
 10
0.666727
 20
2.191597
  0
VERTEX
  8
FOREGROUND
  6
CONTINUOUS
 10
0.654267
 20
2.184878
  0
VERTEX
  8
FOREGROUND
  6
CONTINUOUS
 10
0.641895
 20
2.178058
  0
VERTEX
  8
FOREGROUND
  6
CONTINUOUS
 10
0.629612
 20
2.171138
  0
VERTEX
  8
FOREGROUND
  6
CONTINUOUS
 10
0.617420
 20
2.164118
  0
VERTEX
  8
FOREGROUND
  6
CONTINUOUS
 10
0.605320
 20
2.156997
  0
VERTEX
  8
FOREGROUND
  6
CONTINUOUS
 10
0.593313
 20
2.149776
  0
VERTEX
  8
FOREGROUND
  6
CONTINUOUS
 10
0.581400
 20
2.142455
  0
VERTEX
  8
FOREGROUND
  6
CONTINUOUS
 10
0.569583
 20
2.135033
  0
VERTEX
  8
FOREGROUND
  6
CONTINUOUS
 10
0.557863
 20
2.127511
  0
VERTEX
  8
FOREGROUND
  6
CONTINUOUS
 10
0.546242
 20
2.119889
  0
VERTEX
  8
FOREGROUND
  6
CONTINUOUS
 10
0.534720
 20
2.112167
  0
VERTEX
  8
FOREGROUND
  6
CONTINUOUS
 10
0.523300
 20
2.104344
  0
VERTEX
  8
FOREGROUND
  6
CONTINUOUS
 10
0.511981
 20
2.096421
  0
VERTEX
  8
FOREGROUND
  6
CONTINUOUS
 10
0.500766
 20
2.088397
  0
VERTEX
  8
FOREGROUND
  6
CONTINUOUS
 10
0.489656
 20
2.080274
  0
VERTEX
  8
FOREGROUND
  6
CONTINUOUS
 10
0.478653
 20
2.072050
  0
VERTEX
  8
FOREGROUND
  6
CONTINUOUS
 10
0.467757
 20
2.063726
  0
VERTEX
  8
FOREGROUND
  6
CONTINUOUS
 10
0.456969
 20
2.055301
  0
VERTEX
  8
FOREGROUND
  6
CONTINUOUS
 10
0.446292
 20
2.046776
  0
VERTEX
  8
FOREGROUND
  6
CONTINUOUS
 10
0.435727
 20
2.038151
  0
VERTEX
  8
FOREGROUND
  6
CONTINUOUS
 10
0.425274
 20
2.029425
  0
VERTEX
  8
FOREGROUND
  6
CONTINUOUS
 10
0.414935
 20
2.020600
  0
VERTEX
  8
FOREGROUND
  6
CONTINUOUS
 10
0.404711
 20
2.011674
  0
VERTEX
  8
FOREGROUND
  6
CONTINUOUS
 10
0.394604
 20
2.002647
  0
VERTEX
  8
FOREGROUND
  6
CONTINUOUS
 10
0.384615
 20
1.993520
  0
VERTEX
  8
FOREGROUND
  6
CONTINUOUS
 10
0.374745
 20
1.984294
  0
VERTEX
  8
FOREGROUND
  6
CONTINUOUS
 10
0.364996
 20
1.974966
  0
VERTEX
  8
FOREGROUND
  6
CONTINUOUS
 10
0.355369
 20
1.965539
  0
VERTEX
  8
FOREGROUND
  6
CONTINUOUS
 10
0.345865
 20
1.956011
  0
VERTEX
  8
FOREGROUND
  6
CONTINUOUS
 10
0.336485
 20
1.946383
  0
VERTEX
  8
FOREGROUND
  6
CONTINUOUS
 10
0.327231
 20
1.936654
  0
VERTEX
  8
FOREGROUND
  6
CONTINUOUS
 10
0.318104
 20
1.926825
  0
VERTEX
  8
FOREGROUND
  6
CONTINUOUS
 10
0.309106
 20
1.916896
  0
VERTEX
  8
FOREGROUND
  6
CONTINUOUS
 10
0.300237
 20
1.906867
  0
VERTEX
  8
FOREGROUND
  6
CONTINUOUS
 10
0.291499
 20
1.896737
  0
VERTEX
  8
FOREGROUND
  6
CONTINUOUS
 10
0.282894
 20
1.886507
  0
VERTEX
  8
FOREGROUND
  6
CONTINUOUS
 10
0.274422
 20
1.876177
  0
VERTEX
  8
FOREGROUND
  6
CONTINUOUS
 10
0.266085
 20
1.865746
  0
VERTEX
  8
FOREGROUND
  6
CONTINUOUS
 10
0.257885
 20
1.855215
  0
VERTEX
  8
FOREGROUND
  6
CONTINUOUS
 10
0.249821
 20
1.844584
  0
VERTEX
  8
FOREGROUND
  6
CONTINUOUS
 10
0.241897
 20
1.833853
  0
VERTEX
  8
FOREGROUND
  6
CONTINUOUS
 10
0.234113
 20
1.823021
  0
VERTEX
  8
FOREGROUND
  6
CONTINUOUS
 10
0.226470
 20
1.812089
  0
VERTEX
  8
FOREGROUND
  6
CONTINUOUS
 10
0.218970
 20
1.801056
  0
VERTEX
  8
FOREGROUND
  6
CONTINUOUS
 10
0.211614
 20
1.789924
  0
VERTEX
  8
FOREGROUND
  6
CONTINUOUS
 10
0.204403
 20
1.778691
  0
VERTEX
  8
FOREGROUND
  6
CONTINUOUS
 10
0.197339
 20
1.767357
  0
VERTEX
  8
FOREGROUND
  6
CONTINUOUS
 10
0.190423
 20
1.755924
  0
VERTEX
  8
FOREGROUND
  6
CONTINUOUS
 10
0.183656
 20
1.744390
  0
VERTEX
  8
FOREGROUND
  6
CONTINUOUS
 10
0.177040
 20
1.732755
  0
VERTEX
  8
FOREGROUND
  6
CONTINUOUS
 10
0.170576
 20
1.721021
  0
VERTEX
  8
FOREGROUND
  6
CONTINUOUS
 10
0.164264
 20
1.709186
  0
VERTEX
  8
FOREGROUND
  6
CONTINUOUS
 10
0.158108
 20
1.697251
  0
VERTEX
  8
FOREGROUND
  6
CONTINUOUS
 10
0.152107
 20
1.685215
  0
VERTEX
  8
FOREGROUND
  6
CONTINUOUS
 10
0.146263
 20
1.673080
  0
VERTEX
  8
FOREGROUND
  6
CONTINUOUS
 10
0.140577
 20
1.660844
  0
VERTEX
  8
FOREGROUND
  6
CONTINUOUS
 10
0.135051
 20
1.648507
  0
VERTEX
  8
FOREGROUND
  6
CONTINUOUS
 10
0.129687
 20
1.636071
  0
VERTEX
  8
FOREGROUND
  6
CONTINUOUS
 10
0.124484
 20
1.623534
  0
VERTEX
  8
FOREGROUND
  6
CONTINUOUS
 10
0.119445
 20
1.610897
  0
VERTEX
  8
FOREGROUND
  6
CONTINUOUS
 10
0.114571
 20
1.598159
  0
VERTEX
  8
FOREGROUND
  6
CONTINUOUS
 10
0.109863
 20
1.585321
  0
VERTEX
  8
FOREGROUND
  6
CONTINUOUS
 10
0.105323
 20
1.572383
  0
VERTEX
  8
FOREGROUND
  6
CONTINUOUS
 10
0.100951
 20
1.559344
  0
VERTEX
  8
FOREGROUND
  6
CONTINUOUS
 10
0.096750
 20
1.546206
  0
VERTEX
  8
FOREGROUND
  6
CONTINUOUS
 10
0.092720
 20
1.532967
  0
VERTEX
  8
FOREGROUND
  6
CONTINUOUS
 10
0.088863
 20
1.519627
  0
VERTEX
  8
FOREGROUND
  6
CONTINUOUS
 10
0.085180
 20
1.506188
  0
VERTEX
  8
FOREGROUND
  6
CONTINUOUS
 10
0.081672
 20
1.492648
  0
VERTEX
  8
FOREGROUND
  6
CONTINUOUS
 10
0.078341
 20
1.479007
  0
VERTEX
  8
FOREGROUND
  6
CONTINUOUS
 10
0.075187
 20
1.465267
  0
VERTEX
  8
FOREGROUND
  6
CONTINUOUS
 10
0.072213
 20
1.451426
  0
VERTEX
  8
FOREGROUND
  6
CONTINUOUS
 10
0.069420
 20
1.437485
  0
VERTEX
  8
FOREGROUND
  6
CONTINUOUS
 10
0.066808
 20
1.423443
  0
VERTEX
  8
FOREGROUND
  6
CONTINUOUS
 10
0.064380
 20
1.409301
  0
VERTEX
  8
FOREGROUND
  6
CONTINUOUS
 10
0.062136
 20
1.395059
  0
VERTEX
  8
FOREGROUND
  6
CONTINUOUS
 10
0.060078
 20
1.380717
  0
VERTEX
  8
FOREGROUND
  6
CONTINUOUS
 10
0.058207
 20
1.366274
  0
VERTEX
  8
FOREGROUND
  6
CONTINUOUS
 10
0.056524
 20
1.351731
  0
VERTEX
  8
FOREGROUND
  6
CONTINUOUS
 10
0.055031
 20
1.337088
  0
VERTEX
  8
FOREGROUND
  6
CONTINUOUS
 10
0.053729
 20
1.322344
  0
VERTEX
  8
FOREGROUND
  6
CONTINUOUS
 10
0.052619
 20
1.307500
  0
VERTEX
  8
FOREGROUND
  6
CONTINUOUS
 10
0.051703
 20
1.292556
  0
VERTEX
  8
FOREGROUND
  6
CONTINUOUS
 10
0.050982
 20
1.277512
  0
VERTEX
  8
FOREGROUND
  6
CONTINUOUS
 10
0.050457
 20
1.262367
  0
VERTEX
  8
FOREGROUND
  6
CONTINUOUS
 10
0.050129
 20
1.247122
  0
VERTEX
  8
FOREGROUND
  6
CONTINUOUS
 10
0.050001
 20
1.231776
  0
VERTEX
  8
FOREGROUND
  6
CONTINUOUS
 10
0.050001
 20
1.231776
  0
VERTEX
  8
FOREGROUND
  6
CONTINUOUS
 10
0.050104
 20
1.216431
  0
VERTEX
  8
FOREGROUND
  6
CONTINUOUS
 10
0.050407
 20
1.201186
  0
VERTEX
  8
FOREGROUND
  6
CONTINUOUS
 10
0.050907
 20
1.186041
  0
VERTEX
  8
FOREGROUND
  6
CONTINUOUS
 10
0.051604
 20
1.170996
  0
VERTEX
  8
FOREGROUND
  6
CONTINUOUS
 10
0.052496
 20
1.156052
  0
VERTEX
  8
FOREGROUND
  6
CONTINUOUS
 10
0.053582
 20
1.141208
  0
VERTEX
  8
FOREGROUND
  6
CONTINUOUS
 10
0.054860
 20
1.126464
  0
VERTEX
  8
FOREGROUND
  6
CONTINUOUS
 10
0.056329
 20
1.111820
  0
VERTEX
  8
FOREGROUND
  6
CONTINUOUS
 10
0.057988
 20
1.097277
  0
VERTEX
  8
FOREGROUND
  6
CONTINUOUS
 10
0.059835
 20
1.082834
  0
VERTEX
  8
FOREGROUND
  6
CONTINUOUS
 10
0.061870
 20
1.068491
  0
VERTEX
  8
FOREGROUND
  6
CONTINUOUS
 10
0.064091
 20
1.054249
  0
VERTEX
  8
FOREGROUND
  6
CONTINUOUS
 10
0.066496
 20
1.040107
  0
VERTEX
  8
FOREGROUND
  6
CONTINUOUS
 10
0.069085
 20
1.026065
  0
VERTEX
  8
FOREGROUND
  6
CONTINUOUS
 10
0.071856
 20
1.012123
  0
VERTEX
  8
FOREGROUND
  6
CONTINUOUS
 10
0.074807
 20
0.998282
  0
VERTEX
  8
FOREGROUND
  6
CONTINUOUS
 10
0.077938
 20
0.984541
  0
VERTEX
  8
FOREGROUND
  6
CONTINUOUS
 10
0.081247
 20
0.970900
  0
VERTEX
  8
FOREGROUND
  6
CONTINUOUS
 10
0.084733
 20
0.957360
  0
VERTEX
  8
FOREGROUND
  6
CONTINUOUS
 10
0.088394
 20
0.943920
  0
VERTEX
  8
FOREGROUND
  6
CONTINUOUS
 10
0.092230
 20
0.930580
  0
VERTEX
  8
FOREGROUND
  6
CONTINUOUS
 10
0.096238
 20
0.917340
  0
VERTEX
  8
FOREGROUND
  6
CONTINUOUS
 10
0.100418
 20
0.904201
  0
VERTEX
  8
FOREGROUND
  6
CONTINUOUS
 10
0.104769
 20
0.891162
  0
VERTEX
  8
FOREGROUND
  6
CONTINUOUS
 10
0.109288
 20
0.878223
  0
VERTEX
  8
FOREGROUND
  6
CONTINUOUS
 10
0.113975
 20
0.865384
  0
VERTEX
  8
FOREGROUND
  6
CONTINUOUS
 10
0.118828
 20
0.852646
  0
VERTEX
  8
FOREGROUND
  6
CONTINUOUS
 10
0.123846
 20
0.840008
  0
VERTEX
  8
FOREGROUND
  6
CONTINUOUS
 10
0.129029
 20
0.827471
  0
VERTEX
  8
FOREGROUND
  6
CONTINUOUS
 10
0.134373
 20
0.815033
  0
VERTEX
  8
FOREGROUND
  6
CONTINUOUS
 10
0.139879
 20
0.802696
  0
VERTEX
  8
FOREGROUND
  6
CONTINUOUS
 10
0.145544
 20
0.790459
  0
VERTEX
  8
FOREGROUND
  6
CONTINUOUS
 10
0.151369
 20
0.778323
  0
VERTEX
  8
FOREGROUND
  6
CONTINUOUS
 10
0.157350
 20
0.766286
  0
VERTEX
  8
FOREGROUND
  6
CONTINUOUS
 10
0.163487
 20
0.754350
  0
VERTEX
  8
FOREGROUND
  6
CONTINUOUS
 10
0.169779
 20
0.742515
  0
VERTEX
  8
FOREGROUND
  6
CONTINUOUS
 10
0.176225
 20
0.730779
  0
VERTEX
  8
FOREGROUND
  6
CONTINUOUS
 10
0.182822
 20
0.719144
  0
VERTEX
  8
FOREGROUND
  6
CONTINUOUS
 10
0.189570
 20
0.707609
  0
VERTEX
  8
FOREGROUND
  6
CONTINUOUS
 10
0.196468
 20
0.696175
  0
VERTEX
  8
FOREGROUND
  6
CONTINUOUS
 10
0.203513
 20
0.684840
  0
VERTEX
  8
FOREGROUND
  6
CONTINUOUS
 10
0.210706
 20
0.673606
  0
VERTEX
  8
FOREGROUND
  6
CONTINUOUS
 10
0.218043
 20
0.662473
  0
VERTEX
  8
FOREGROUND
  6
CONTINUOUS
 10
0.225526
 20
0.651439
  0
VERTEX
  8
FOREGROUND
  6
CONTINUOUS
 10
0.233151
 20
0.640506
  0
VERTEX
  8
FOREGROUND
  6
CONTINUOUS
 10
0.240917
 20
0.629673
  0
VERTEX
  8
FOREGROUND
  6
CONTINUOUS
 10
0.248824
 20
0.618941
  0
VERTEX
  8
FOREGROUND
  6
CONTINUOUS
 10
0.256870
 20
0.608308
  0
VERTEX
  8
FOREGROUND
  6
CONTINUOUS
 10
0.265053
 20
0.597776
  0
VERTEX
  8
FOREGROUND
  6
CONTINUOUS
 10
0.273373
 20
0.587344
  0
VERTEX
  8
FOREGROUND
  6
CONTINUOUS
 10
0.281828
 20
0.577013
  0
VERTEX
  8
FOREGROUND
  6
CONTINUOUS
 10
0.290417
 20
0.566782
  0
VERTEX
  8
FOREGROUND
  6
CONTINUOUS
 10
0.299138
 20
0.556651
  0
VERTEX
  8
FOREGROUND
  6
CONTINUOUS
 10
0.307991
 20
0.546620
  0
VERTEX
  8
FOREGROUND
  6
CONTINUOUS
 10
0.316973
 20
0.536690
  0
VERTEX
  8
FOREGROUND
  6
CONTINUOUS
 10
0.326084
 20
0.526860
  0
VERTEX
  8
FOREGROUND
  6
CONTINUOUS
 10
0.335322
 20
0.517130
  0
VERTEX
  8
FOREGROUND
  6
CONTINUOUS
 10
0.344686
 20
0.507500
  0
VERTEX
  8
FOREGROUND
  6
CONTINUOUS
 10
0.354174
 20
0.497971
  0
VERTEX
  8
FOREGROUND
  6
CONTINUOUS
 10
0.363786
 20
0.488542
  0
VERTEX
  8
FOREGROUND
  6
CONTINUOUS
 10
0.373520
 20
0.479214
  0
VERTEX
  8
FOREGROUND
  6
CONTINUOUS
 10
0.383375
 20
0.469985
  0
VERTEX
  8
FOREGROUND
  6
CONTINUOUS
 10
0.393349
 20
0.460857
  0
VERTEX
  8
FOREGROUND
  6
CONTINUOUS
 10
0.403442
 20
0.451830
  0
VERTEX
  8
FOREGROUND
  6
CONTINUOUS
 10
0.413651
 20
0.442902
  0
VERTEX
  8
FOREGROUND
  6
CONTINUOUS
 10
0.423975
 20
0.434075
  0
VERTEX
  8
FOREGROUND
  6
CONTINUOUS
 10
0.434414
 20
0.425348
  0
VERTEX
  8
FOREGROUND
  6
CONTINUOUS
 10
0.444966
 20
0.416721
  0
VERTEX
  8
FOREGROUND
  6
CONTINUOUS
 10
0.455629
 20
0.408195
  0
VERTEX
  8
FOREGROUND
  6
CONTINUOUS
 10
0.466403
 20
0.399769
  0
VERTEX
  8
FOREGROUND
  6
CONTINUOUS
 10
0.477285
 20
0.391443
  0
VERTEX
  8
FOREGROUND
  6
CONTINUOUS
 10
0.488275
 20
0.383217
  0
VERTEX
  8
FOREGROUND
  6
CONTINUOUS
 10
0.499372
 20
0.375092
  0
VERTEX
  8
FOREGROUND
  6
CONTINUOUS
 10
0.510574
 20
0.367067
  0
VERTEX
  8
FOREGROUND
  6
CONTINUOUS
 10
0.521879
 20
0.359143
  0
VERTEX
  8
FOREGROUND
  6
CONTINUOUS
 10
0.533287
 20
0.351318
  0
VERTEX
  8
FOREGROUND
  6
CONTINUOUS
 10
0.544796
 20
0.343594
  0
VERTEX
  8
FOREGROUND
  6
CONTINUOUS
 10
0.556405
 20
0.335970
  0
VERTEX
  8
FOREGROUND
  6
CONTINUOUS
 10
0.568113
 20
0.328447
  0
VERTEX
  8
FOREGROUND
  6
CONTINUOUS
 10
0.579918
 20
0.321024
  0
VERTEX
  8
FOREGROUND
  6
CONTINUOUS
 10
0.591818
 20
0.313701
  0
VERTEX
  8
FOREGROUND
  6
CONTINUOUS
 10
0.603814
 20
0.306478
  0
VERTEX
  8
FOREGROUND
  6
CONTINUOUS
 10
0.615902
 20
0.299356
  0
VERTEX
  8
FOREGROUND
  6
CONTINUOUS
 10
0.628083
 20
0.292334
  0
VERTEX
  8
FOREGROUND
  6
CONTINUOUS
 10
0.640355
 20
0.285412
  0
VERTEX
  8
FOREGROUND
  6
CONTINUOUS
 10
0.652715
 20
0.278591
  0
VERTEX
  8
FOREGROUND
  6
CONTINUOUS
 10
0.665164
 20
0.271869
  0
VERTEX
  8
FOREGROUND
  6
CONTINUOUS
 10
0.677700
 20
0.265248
  0
VERTEX
  8
FOREGROUND
  6
CONTINUOUS
 10
0.690322
 20
0.258728
  0
VERTEX
  8
FOREGROUND
  6
CONTINUOUS
 10
0.703027
 20
0.252307
  0
VERTEX
  8
FOREGROUND
  6
CONTINUOUS
 10
0.715816
 20
0.245987
  0
VERTEX
  8
FOREGROUND
  6
CONTINUOUS
 10
0.728686
 20
0.239768
  0
VERTEX
  8
FOREGROUND
  6
CONTINUOUS
 10
0.741636
 20
0.233648
  0
VERTEX
  8
FOREGROUND
  6
CONTINUOUS
 10
0.754665
 20
0.227629
  0
VERTEX
  8
FOREGROUND
  6
CONTINUOUS
 10
0.767772
 20
0.221710
  0
VERTEX
  8
FOREGROUND
  6
CONTINUOUS
 10
0.780956
 20
0.215892
  0
VERTEX
  8
FOREGROUND
  6
CONTINUOUS
 10
0.794214
 20
0.210173
  0
VERTEX
  8
FOREGROUND
  6
CONTINUOUS
 10
0.807547
 20
0.204555
  0
VERTEX
  8
FOREGROUND
  6
CONTINUOUS
 10
0.820951
 20
0.199037
  0
VERTEX
  8
FOREGROUND
  6
CONTINUOUS
 10
0.834427
 20
0.193620
  0
VERTEX
  8
FOREGROUND
  6
CONTINUOUS
 10
0.847973
 20
0.188303
  0
VERTEX
  8
FOREGROUND
  6
CONTINUOUS
 10
0.861587
 20
0.183086
  0
VERTEX
  8
FOREGROUND
  6
CONTINUOUS
 10
0.875269
 20
0.177969
  0
VERTEX
  8
FOREGROUND
  6
CONTINUOUS
 10
0.889017
 20
0.172953
  0
VERTEX
  8
FOREGROUND
  6
CONTINUOUS
 10
0.902829
 20
0.168037
  0
VERTEX
  8
FOREGROUND
  6
CONTINUOUS
 10
0.916704
 20
0.163221
  0
VERTEX
  8
FOREGROUND
  6
CONTINUOUS
 10
0.930642
 20
0.158506
  0
VERTEX
  8
FOREGROUND
  6
CONTINUOUS
 10
0.944640
 20
0.153891
  0
VERTEX
  8
FOREGROUND
  6
CONTINUOUS
 10
0.958698
 20
0.149376
  0
VERTEX
  8
FOREGROUND
  6
CONTINUOUS
 10
0.972814
 20
0.144962
  0
VERTEX
  8
FOREGROUND
  6
CONTINUOUS
 10
0.986986
 20
0.140647
  0
VERTEX
  8
FOREGROUND
  6
CONTINUOUS
 10
1.001214
 20
0.136433
  0
VERTEX
  8
FOREGROUND
  6
CONTINUOUS
 10
1.015497
 20
0.132320
  0
VERTEX
  8
FOREGROUND
  6
CONTINUOUS
 10
1.029832
 20
0.128306
  0
VERTEX
  8
FOREGROUND
  6
CONTINUOUS
 10
1.044219
 20
0.124393
  0
VERTEX
  8
FOREGROUND
  6
CONTINUOUS
 10
1.058656
 20
0.120580
  0
VERTEX
  8
FOREGROUND
  6
CONTINUOUS
 10
1.073142
 20
0.116868
  0
VERTEX
  8
FOREGROUND
  6
CONTINUOUS
 10
1.087676
 20
0.113256
  0
VERTEX
  8
FOREGROUND
  6
CONTINUOUS
 10
1.102257
 20
0.109744
  0
VERTEX
  8
FOREGROUND
  6
CONTINUOUS
 10
1.116882
 20
0.106332
  0
VERTEX
  8
FOREGROUND
  6
CONTINUOUS
 10
1.131551
 20
0.103021
  0
VERTEX
  8
FOREGROUND
  6
CONTINUOUS
 10
1.146263
 20
0.099810
  0
VERTEX
  8
FOREGROUND
  6
CONTINUOUS
 10
1.161016
 20
0.096699
  0
VERTEX
  8
FOREGROUND
  6
CONTINUOUS
 10
1.175808
 20
0.093689
  0
VERTEX
  8
FOREGROUND
  6
CONTINUOUS
 10
1.190639
 20
0.090778
  0
VERTEX
  8
FOREGROUND
  6
CONTINUOUS
 10
1.205508
 20
0.087969
  0
VERTEX
  8
FOREGROUND
  6
CONTINUOUS
 10
1.220412
 20
0.085259
  0
VERTEX
  8
FOREGROUND
  6
CONTINUOUS
 10
1.235351
 20
0.082650
  0
VERTEX
  8
FOREGROUND
  6
CONTINUOUS
 10
1.250324
 20
0.080141
  0
VERTEX
  8
FOREGROUND
  6
CONTINUOUS
 10
1.265328
 20
0.077732
  0
VERTEX
  8
FOREGROUND
  6
CONTINUOUS
 10
1.280363
 20
0.075424
  0
VERTEX
  8
FOREGROUND
  6
CONTINUOUS
 10
1.295428
 20
0.073215
  0
VERTEX
  8
FOREGROUND
  6
CONTINUOUS
 10
1.310521
 20
0.071108
  0
VERTEX
  8
FOREGROUND
  6
CONTINUOUS
 10
1.325640
 20
0.069100
  0
VERTEX
  8
FOREGROUND
  6
CONTINUOUS
 10
1.340785
 20
0.067193
  0
VERTEX
  8
FOREGROUND
  6
CONTINUOUS
 10
1.355955
 20
0.065386
  0
VERTEX
  8
FOREGROUND
  6
CONTINUOUS
 10
1.371147
 20
0.063679
  0
VERTEX
  8
FOREGROUND
  6
CONTINUOUS
 10
1.386361
 20
0.062073
  0
VERTEX
  8
FOREGROUND
  6
CONTINUOUS
 10
1.401595
 20
0.060567
  0
VERTEX
  8
FOREGROUND
  6
CONTINUOUS
 10
1.416848
 20
0.059161
  0
VERTEX
  8
FOREGROUND
  6
CONTINUOUS
 10
1.432119
 20
0.057856
  0
VERTEX
  8
FOREGROUND
  6
CONTINUOUS
 10
1.447406
 20
0.056651
  0
VERTEX
  8
FOREGROUND
  6
CONTINUOUS
 10
1.462708
 20
0.055546
  0
VERTEX
  8
FOREGROUND
  6
CONTINUOUS
 10
1.478025
 20
0.054541
  0
VERTEX
  8
FOREGROUND
  6
CONTINUOUS
 10
1.493353
 20
0.053637
  0
VERTEX
  8
FOREGROUND
  6
CONTINUOUS
 10
1.508693
 20
0.052833
  0
VERTEX
  8
FOREGROUND
  6
CONTINUOUS
 10
1.524042
 20
0.052129
  0
VERTEX
  8
FOREGROUND
  6
CONTINUOUS
 10
1.539401
 20
0.051526
  0
VERTEX
  8
FOREGROUND
  6
CONTINUOUS
 10
1.554766
 20
0.051023
  0
VERTEX
  8
FOREGROUND
  6
CONTINUOUS
 10
1.570137
 20
0.050620
  0
VERTEX
  8
FOREGROUND
  6
CONTINUOUS
 10
1.585513
 20
0.050318
  0
VERTEX
  8
FOREGROUND
  6
CONTINUOUS
 10
1.600893
 20
0.050115
  0
VERTEX
  8
FOREGROUND
  6
CONTINUOUS
 10
1.616274
 20
0.050013
  0
VERTEX
  8
FOREGROUND
  6
CONTINUOUS
 10
1.631656
 20
0.050012
  0
VERTEX
  8
FOREGROUND
  6
CONTINUOUS
 10
1.647038
 20
0.050110
  0
VERTEX
  8
FOREGROUND
  6
CONTINUOUS
 10
1.662418
 20
0.050309
  0
VERTEX
  8
FOREGROUND
  6
CONTINUOUS
 10
1.677794
 20
0.050609
  0
VERTEX
  8
FOREGROUND
  6
CONTINUOUS
 10
1.693166
 20
0.051008
  0
VERTEX
  8
FOREGROUND
  6
CONTINUOUS
 10
1.708533
 20
0.051508
  0
VERTEX
  8
FOREGROUND
  6
CONTINUOUS
 10
1.723892
 20
0.052108
  0
VERTEX
  8
FOREGROUND
  6
CONTINUOUS
 10
1.739243
 20
0.052809
  0
VERTEX
  8
FOREGROUND
  6
CONTINUOUS
 10
1.754584
 20
0.053610
  0
VERTEX
  8
FOREGROUND
  6
CONTINUOUS
 10
1.769914
 20
0.054511
  0
VERTEX
  8
FOREGROUND
  6
CONTINUOUS
 10
1.785232
 20
0.055512
  0
VERTEX
  8
FOREGROUND
  6
CONTINUOUS
 10
1.800536
 20
0.056614
  0
VERTEX
  8
FOREGROUND
  6
CONTINUOUS
 10
1.815826
 20
0.057816
  0
VERTEX
  8
FOREGROUND
  6
CONTINUOUS
 10
1.831099
 20
0.059118
  0
VERTEX
  8
FOREGROUND
  6
CONTINUOUS
 10
1.846354
 20
0.060521
  0
VERTEX
  8
FOREGROUND
  6
CONTINUOUS
 10
1.861591
 20
0.062023
  0
VERTEX
  8
FOREGROUND
  6
CONTINUOUS
 10
1.876808
 20
0.063627
  0
VERTEX
  8
FOREGROUND
  6
CONTINUOUS
 10
1.892003
 20
0.065330
  0
VERTEX
  8
FOREGROUND
  6
CONTINUOUS
 10
1.907175
 20
0.067134
  0
VERTEX
  8
FOREGROUND
  6
CONTINUOUS
 10
1.922324
 20
0.069038
  0
VERTEX
  8
FOREGROUND
  6
CONTINUOUS
 10
1.937447
 20
0.071042
  0
VERTEX
  8
FOREGROUND
  6
CONTINUOUS
 10
1.952543
 20
0.073147
  0
VERTEX
  8
FOREGROUND
  6
CONTINUOUS
 10
1.967612
 20
0.075352
  0
VERTEX
  8
FOREGROUND
  6
CONTINUOUS
 10
1.982651
 20
0.077657
  0
VERTEX
  8
FOREGROUND
  6
CONTINUOUS
 10
1.997660
 20
0.080063
  0
VERTEX
  8
FOREGROUND
  6
CONTINUOUS
 10
2.012637
 20
0.082569
  0
VERTEX
  8
FOREGROUND
  6
CONTINUOUS
 10
2.027580
 20
0.085175
  0
VERTEX
  8
FOREGROUND
  6
CONTINUOUS
 10
2.042489
 20
0.087881
  0
VERTEX
  8
FOREGROUND
  6
CONTINUOUS
 10
2.057363
 20
0.090688
  0
VERTEX
  8
FOREGROUND
  6
CONTINUOUS
 10
2.072199
 20
0.093595
  0
VERTEX
  8
FOREGROUND
  6
CONTINUOUS
 10
2.086997
 20
0.096602
  0
VERTEX
  8
FOREGROUND
  6
CONTINUOUS
 10
2.101755
 20
0.099710
  0
VERTEX
  8
FOREGROUND
  6
CONTINUOUS
 10
2.116472
 20
0.102918
  0
VERTEX
  8
FOREGROUND
  6
CONTINUOUS
 10
2.131147
 20
0.106226
  0
VERTEX
  8
FOREGROUND
  6
CONTINUOUS
 10
2.145779
 20
0.109635
  0
VERTEX
  8
FOREGROUND
  6
CONTINUOUS
 10
2.160365
 20
0.113144
  0
VERTEX
  8
FOREGROUND
  6
CONTINUOUS
 10
2.174905
 20
0.116753
  0
VERTEX
  8
FOREGROUND
  6
CONTINUOUS
 10
2.189398
 20
0.120462
  0
VERTEX
  8
FOREGROUND
  6
CONTINUOUS
 10
2.203842
 20
0.124272
  0
VERTEX
  8
FOREGROUND
  6
CONTINUOUS
 10
2.218236
 20
0.128182
  0
VERTEX
  8
FOREGROUND
  6
CONTINUOUS
 10
2.232578
 20
0.132193
  0
VERTEX
  8
FOREGROUND
  6
CONTINUOUS
 10
2.246868
 20
0.136303
  0
VERTEX
  8
FOREGROUND
  6
CONTINUOUS
 10
2.261103
 20
0.140514
  0
VERTEX
  8
FOREGROUND
  6
CONTINUOUS
 10
2.275283
 20
0.144826
  0
VERTEX
  8
FOREGROUND
  6
CONTINUOUS
 10
2.289407
 20
0.149237
  0
VERTEX
  8
FOREGROUND
  6
CONTINUOUS
 10
2.303473
 20
0.153749
  0
VERTEX
  8
FOREGROUND
  6
CONTINUOUS
 10
2.317479
 20
0.158361
  0
VERTEX
  8
FOREGROUND
  6
CONTINUOUS
 10
2.331425
 20
0.163074
  0
VERTEX
  8
FOREGROUND
  6
CONTINUOUS
 10
2.345309
 20
0.167887
  0
VERTEX
  8
FOREGROUND
  6
CONTINUOUS
 10
2.359129
 20
0.172800
  0
VERTEX
  8
FOREGROUND
  6
CONTINUOUS
 10
2.372886
 20
0.177813
  0
VERTEX
  8
FOREGROUND
  6
CONTINUOUS
 10
2.386576
 20
0.182927
  0
VERTEX
  8
FOREGROUND
  6
CONTINUOUS
 10
2.400200
 20
0.188141
  0
VERTEX
  8
FOREGROUND
  6
CONTINUOUS
 10
2.413755
 20
0.193455
  0
VERTEX
  8
FOREGROUND
  6
CONTINUOUS
 10
2.427240
 20
0.198870
  0
VERTEX
  8
FOREGROUND
  6
CONTINUOUS
 10
2.440655
 20
0.204385
  0
VERTEX
  8
FOREGROUND
  6
CONTINUOUS
 10
2.453997
 20
0.210000
  0
VERTEX
  8
FOREGROUND
  6
CONTINUOUS
 10
2.467265
 20
0.215716
  0
VERTEX
  8
FOREGROUND
  6
CONTINUOUS
 10
2.480459
 20
0.221532
  0
VERTEX
  8
FOREGROUND
  6
CONTINUOUS
 10
2.493576
 20
0.227448
  0
VERTEX
  8
FOREGROUND
  6
CONTINUOUS
 10
2.506616
 20
0.233464
  0
VERTEX
  8
FOREGROUND
  6
CONTINUOUS
 10
2.519577
 20
0.239581
  0
VERTEX
  8
FOREGROUND
  6
CONTINUOUS
 10
2.532458
 20
0.245798
  0
VERTEX
  8
FOREGROUND
  6
CONTINUOUS
 10
2.545258
 20
0.252115
  0
VERTEX
  8
FOREGROUND
  6
CONTINUOUS
 10
2.557974
 20
0.258533
  0
VERTEX
  8
FOREGROUND
  6
CONTINUOUS
 10
2.570607
 20
0.265051
  0
VERTEX
  8
FOREGROUND
  6
CONTINUOUS
 10
2.583155
 20
0.271669
  0
VERTEX
  8
FOREGROUND
  6
CONTINUOUS
 10
2.595615
 20
0.278388
  0
VERTEX
  8
FOREGROUND
  6
CONTINUOUS
 10
2.607988
 20
0.285207
  0
VERTEX
  8
FOREGROUND
  6
CONTINUOUS
 10
2.620272
 20
0.292126
  0
VERTEX
  8
FOREGROUND
  6
CONTINUOUS
 10
2.632465
 20
0.299146
  0
VERTEX
  8
FOREGROUND
  6
CONTINUOUS
 10
2.644566
 20
0.306265
  0
VERTEX
  8
FOREGROUND
  6
CONTINUOUS
 10
2.656574
 20
0.313486
  0
VERTEX
  8
FOREGROUND
  6
CONTINUOUS
 10
2.668488
 20
0.320806
  0
VERTEX
  8
FOREGROUND
  6
CONTINUOUS
 10
2.680305
 20
0.328227
  0
VERTEX
  8
FOREGROUND
  6
CONTINUOUS
 10
2.692026
 20
0.335748
  0
VERTEX
  8
FOREGROUND
  6
CONTINUOUS
 10
2.703648
 20
0.343369
  0
VERTEX
  8
FOREGROUND
  6
CONTINUOUS
 10
2.715171
 20
0.351091
  0
VERTEX
  8
FOREGROUND
  6
CONTINUOUS
 10
2.726593
 20
0.358913
  0
VERTEX
  8
FOREGROUND
  6
CONTINUOUS
 10
2.737912
 20
0.366835
  0
VERTEX
  8
FOREGROUND
  6
CONTINUOUS
 10
2.749128
 20
0.374858
  0
VERTEX
  8
FOREGROUND
  6
CONTINUOUS
 10
2.760239
 20
0.382981
  0
VERTEX
  8
FOREGROUND
  6
CONTINUOUS
 10
2.771243
 20
0.391204
  0
VERTEX
  8
FOREGROUND
  6
CONTINUOUS
 10
2.782140
 20
0.399527
  0
VERTEX
  8
FOREGROUND
  6
CONTINUOUS
 10
2.792929
 20
0.407951
  0
VERTEX
  8
FOREGROUND
  6
CONTINUOUS
 10
2.803607
 20
0.416475
  0
VERTEX
  8
FOREGROUND
  6
CONTINUOUS
 10
2.814174
 20
0.425100
  0
VERTEX
  8
FOREGROUND
  6
CONTINUOUS
 10
2.824628
 20
0.433824
  0
VERTEX
  8
FOREGROUND
  6
CONTINUOUS
 10
2.834968
 20
0.442650
  0
VERTEX
  8
FOREGROUND
  6
CONTINUOUS
 10
2.845193
 20
0.451575
  0
VERTEX
  8
FOREGROUND
  6
CONTINUOUS
 10
2.855301
 20
0.460601
  0
VERTEX
  8
FOREGROUND
  6
CONTINUOUS
 10
2.865291
 20
0.469727
  0
VERTEX
  8
FOREGROUND
  6
CONTINUOUS
 10
2.875162
 20
0.478953
  0
VERTEX
  8
FOREGROUND
  6
CONTINUOUS
 10
2.884912
 20
0.488279
  0
VERTEX
  8
FOREGROUND
  6
CONTINUOUS
 10
2.894540
 20
0.497706
  0
VERTEX
  8
FOREGROUND
  6
CONTINUOUS
 10
2.904046
 20
0.507234
  0
VERTEX
  8
FOREGROUND
  6
CONTINUOUS
 10
2.913427
 20
0.516861
  0
VERTEX
  8
FOREGROUND
  6
CONTINUOUS
 10
2.922682
 20
0.526589
  0
VERTEX
  8
FOREGROUND
  6
CONTINUOUS
 10
2.931810
 20
0.536417
  0
VERTEX
  8
FOREGROUND
  6
CONTINUOUS
 10
2.940809
 20
0.546346
  0
VERTEX
  8
FOREGROUND
  6
CONTINUOUS
 10
2.949679
 20
0.556374
  0
VERTEX
  8
FOREGROUND
  6
CONTINUOUS
 10
2.958418
 20
0.566504
  0
VERTEX
  8
FOREGROUND
  6
CONTINUOUS
 10
2.967025
 20
0.576733
  0
VERTEX
  8
FOREGROUND
  6
CONTINUOUS
 10
2.975498
 20
0.587063
  0
VERTEX
  8
FOREGROUND
  6
CONTINUOUS
 10
2.983836
 20
0.597493
  0
VERTEX
  8
FOREGROUND
  6
CONTINUOUS
 10
2.992038
 20
0.608023
  0
VERTEX
  8
FOREGROUND
  6
CONTINUOUS
 10
3.000103
 20
0.618654
  0
VERTEX
  8
FOREGROUND
  6
CONTINUOUS
 10
3.008028
 20
0.629385
  0
VERTEX
  8
FOREGROUND
  6
CONTINUOUS
 10
3.015814
 20
0.640216
  0
VERTEX
  8
FOREGROUND
  6
CONTINUOUS
 10
3.023458
 20
0.651147
  0
VERTEX
  8
FOREGROUND
  6
CONTINUOUS
 10
3.030960
 20
0.662179
  0
VERTEX
  8
FOREGROUND
  6
CONTINUOUS
 10
3.038317
 20
0.673312
  0
VERTEX
  8
FOREGROUND
  6
CONTINUOUS
 10
3.045529
 20
0.684544
  0
VERTEX
  8
FOREGROUND
  6
CONTINUOUS
 10
3.052595
 20
0.695877
  0
VERTEX
  8
FOREGROUND
  6
CONTINUOUS
 10
3.059512
 20
0.707310
  0
VERTEX
  8
FOREGROUND
  6
CONTINUOUS
 10
3.066280
 20
0.718843
  0
VERTEX
  8
FOREGROUND
  6
CONTINUOUS
 10
3.072898
 20
0.730477
  0
VERTEX
  8
FOREGROUND
  6
CONTINUOUS
 10
3.079364
 20
0.742211
  0
VERTEX
  8
FOREGROUND
  6
CONTINUOUS
 10
3.085677
 20
0.754046
  0
VERTEX
  8
FOREGROUND
  6
CONTINUOUS
 10
3.091835
 20
0.765980
  0
VERTEX
  8
FOREGROUND
  6
CONTINUOUS
 10
3.097837
 20
0.778015
  0
VERTEX
  8
FOREGROUND
  6
CONTINUOUS
 10
3.103683
 20
0.790151
  0
VERTEX
  8
FOREGROUND
  6
CONTINUOUS
 10
3.109370
 20
0.802386
  0
VERTEX
  8
FOREGROUND
  6
CONTINUOUS
 10
3.114897
 20
0.814722
  0
VERTEX
  8
FOREGROUND
  6
CONTINUOUS
 10
3.120263
 20
0.827159
  0
VERTEX
  8
FOREGROUND
  6
CONTINUOUS
 10
3.125468
 20
0.839695
  0
VERTEX
  8
FOREGROUND
  6
CONTINUOUS
 10
3.130508
 20
0.852332
  0
VERTEX
  8
FOREGROUND
  6
CONTINUOUS
 10
3.135384
 20
0.865069
  0
VERTEX
  8
FOREGROUND
  6
CONTINUOUS
 10
3.140093
 20
0.877907
  0
VERTEX
  8
FOREGROUND
  6
CONTINUOUS
 10
3.144635
 20
0.890845
  0
VERTEX
  8
FOREGROUND
  6
CONTINUOUS
 10
3.149008
 20
0.903883
  0
VERTEX
  8
FOREGROUND
  6
CONTINUOUS
 10
3.153211
 20
0.917021
  0
VERTEX
  8
FOREGROUND
  6
CONTINUOUS
 10
3.157243
 20
0.930260
  0
VERTEX
  8
FOREGROUND
  6
CONTINUOUS
 10
3.161101
 20
0.943599
  0
VERTEX
  8
FOREGROUND
  6
CONTINUOUS
 10
3.164786
 20
0.957039
  0
VERTEX
  8
FOREGROUND
  6
CONTINUOUS
 10
3.168296
 20
0.970578
  0
VERTEX
  8
FOREGROUND
  6
CONTINUOUS
 10
3.171629
 20
0.984218
  0
VERTEX
  8
FOREGROUND
  6
CONTINUOUS
 10
3.174784
 20
0.997959
  0
VERTEX
  8
FOREGROUND
  6
CONTINUOUS
 10
3.177759
 20
1.011799
  0
VERTEX
  8
FOREGROUND
  6
CONTINUOUS
 10
3.180555
 20
1.025740
  0
VERTEX
  8
FOREGROUND
  6
CONTINUOUS
 10
3.183168
 20
1.039782
  0
VERTEX
  8
FOREGROUND
  6
CONTINUOUS
 10
3.185598
 20
1.053923
  0
VERTEX
  8
FOREGROUND
  6
CONTINUOUS
 10
3.187844
 20
1.068165
  0
VERTEX
  8
FOREGROUND
  6
CONTINUOUS
 10
3.189904
 20
1.082508
  0
VERTEX
  8
FOREGROUND
  6
CONTINUOUS
 10
3.191777
 20
1.096950
  0
VERTEX
  8
FOREGROUND
  6
CONTINUOUS
 10
3.193461
 20
1.111493
  0
VERTEX
  8
FOREGROUND
  6
CONTINUOUS
 10
3.194956
 20
1.126136
  0
VERTEX
  8
FOREGROUND
  6
CONTINUOUS
 10
3.196260
 20
1.140880
  0
VERTEX
  8
FOREGROUND
  6
CONTINUOUS
 10
3.197371
 20
1.155724
  0
VERTEX
  8
FOREGROUND
  6
CONTINUOUS
 10
3.198289
 20
1.170668
  0
VERTEX
  8
FOREGROUND
  6
CONTINUOUS
 10
3.199012
 20
1.185712
  0
VERTEX
  8
FOREGROUND
  6
CONTINUOUS
 10
3.199539
 20
1.200857
  0
VERTEX
  8
FOREGROUND
  6
CONTINUOUS
 10
3.199869
 20
1.216102
  0
VERTEX
  8
FOREGROUND
  6
CONTINUOUS
 10
3.199999
 20
1.231448
  0
SEQEND
  8
0
  0
ENDSEC
  0
EOF
