  0
SECTION
  2
HEADER
  9
$ACADVER
  1
AC1006
  9
$EXTMIN
 10
0.000000
 20
0.000000
  9
$EXTMAX
 10
0.696667
 20
0.695000
  9
$LTSCALE
 40
0.166667
  9
$PDMODE
 70
    35
  9
$PDSIZE
 40
0.133333
  0
ENDSEC
  0
SECTION
  2
TABLES
  0
TABLE
  2
LTYPE
 70
     9
  0
LTYPE
  2
CONTINUOUS
 70
    64
  3
Solid line
 72
    65
 73
     0
 40
0.000000
  0
LTYPE
  2
DASHED
 70
    64
  3
__ __ __ __ __ __ __ __ __ __ __ __ __ __ __
 72
    65
 73
     2
 40
0.001250
 49
0.000833
 49
-0.000417
  0
LTYPE
  2
HIDDEN
 70
    64
  3
 _ _ _ _ _ _ _ _ _ _ _ _ _ _ _ _ _ _ _ _ _ _
 72
    65
 73
     2
 40
0.000625
 49
0.000417
 49
-0.000208
  0
LTYPE
  2
CENTER
 70
    64
  3
____ _ ____ _ ____ _ ____ _ ____ _ ____ _ ____
 72
    65
 73
     4
 40
0.003333
 49
0.002083
 49
-0.000417
 49
0.000417
 49
-0.000417
  0
LTYPE
  2
PHANTOM
 70
    64
  3
_____ _ _ _____ _ _ _____ _ _ _____ _ _ ____
 72
    65
 73
     6
 40
0.004167
 49
0.002083
 49
-0.000417
 49
0.000417
 49
-0.000417
 49
0.000417
 49
-0.000417
  0
LTYPE
  2
DOT
 70
    64
  3
...............................................
 72
    65
 73
     2
 40
0.000417
 49
0.000000
 49
-0.000417
  0
LTYPE
  2
DASHDOT
 70
    64
  3
__ . __ . __ . __ . __ . __ . __ . __ . __ . __
 72
    65
 73
     4
 40
0.001667
 49
0.000833
 49
-0.000417
 49
0.000000
 49
-0.000417
  0
LTYPE
  2
BORDER
 70
    64
  3
__ __ . __ __ . __ __ . __ __ . __ __ . __ __
 72
    65
 73
     6
 40
0.002917
 49
0.000833
 49
-0.000417
 49
0.000833
 49
-0.000417
 49
0.000000
 49
-0.000417
  0
LTYPE
  2
DIVIDE
 70
    64
  3
__ . . __ . . __ . . __ . . __ . . __ . . __
 72
    65
 73
     6
 40
0.002083
 49
0.000833
 49
-0.000417
 49
0.000000
 49
-0.000417
 49
0.000000
 49
-0.000417
  0
LTYPE
  2
DOTDOT
 70
    64
  3
 . .  . .  . .  . .  . .  . . 
 72
    65
 73
     5
 40
0.000917
 49
-0.000417
 49
0.000000
 49
-0.000417
 49
0.000000
 49
-0.000417
  0
ENDTAB
  0
TABLE
  2
STYLE
 70
     2
  0
STYLE
 70
     0
  2
SN0
 40
0.000000
 41
0.001667
 50
0.000000
 71
     0
 42
0.000000
  3
ROMAND
  0
STYLE
 70
    68
  2
SV0
 40
0.000000
 41
0.001667
 50
0.000000
 71
     0
 42
0.000000
  3
ROMAND
  0
ENDTAB
  0
TABLE
  2
LAYER
 70
     2
  0
LAYER
  2
FOREGROUND
 70
    64
 62
     7
  6
CONTINUOUS
  0
LAYER
  2
BACKGROUND
 70
    65
 62
    -7
  6
CONTINUOUS
  0
ENDTAB
  0
ENDSEC
  0
SECTION
  2
ENTITIES
  0
POLYLINE
  8
FOREGROUND
  6
CONTINUOUS
 66
     1
 40
0.010000
 41
0.010000
 70
     1
  0
VERTEX
  8
FOREGROUND
  6
CONTINUOUS
 10
0.528333
 20
0.050000
  0
VERTEX
  8
FOREGROUND
  6
CONTINUOUS
 10
0.533211
 20
0.050102
  0
VERTEX
  8
FOREGROUND
  6
CONTINUOUS
 10
0.538038
 20
0.050399
  0
VERTEX
  8
FOREGROUND
  6
CONTINUOUS
 10
0.542811
 20
0.050887
  0
VERTEX
  8
FOREGROUND
  6
CONTINUOUS
 10
0.547526
 20
0.051561
  0
VERTEX
  8
FOREGROUND
  6
CONTINUOUS
 10
0.552179
 20
0.052419
  0
VERTEX
  8
FOREGROUND
  6
CONTINUOUS
 10
0.556767
 20
0.053456
  0
VERTEX
  8
FOREGROUND
  6
CONTINUOUS
 10
0.561286
 20
0.054668
  0
VERTEX
  8
FOREGROUND
  6
CONTINUOUS
 10
0.565731
 20
0.056053
  0
VERTEX
  8
FOREGROUND
  6
CONTINUOUS
 10
0.570099
 20
0.057605
  0
VERTEX
  8
FOREGROUND
  6
CONTINUOUS
 10
0.574387
 20
0.059321
  0
VERTEX
  8
FOREGROUND
  6
CONTINUOUS
 10
0.578590
 20
0.061198
  0
VERTEX
  8
FOREGROUND
  6
CONTINUOUS
 10
0.582704
 20
0.063231
  0
VERTEX
  8
FOREGROUND
  6
CONTINUOUS
 10
0.586727
 20
0.065417
  0
VERTEX
  8
FOREGROUND
  6
CONTINUOUS
 10
0.590654
 20
0.067752
  0
VERTEX
  8
FOREGROUND
  6
CONTINUOUS
 10
0.594481
 20
0.070232
  0
VERTEX
  8
FOREGROUND
  6
CONTINUOUS
 10
0.598204
 20
0.072854
  0
VERTEX
  8
FOREGROUND
  6
CONTINUOUS
 10
0.601821
 20
0.075613
  0
VERTEX
  8
FOREGROUND
  6
CONTINUOUS
 10
0.605326
 20
0.078506
  0
VERTEX
  8
FOREGROUND
  6
CONTINUOUS
 10
0.608716
 20
0.081529
  0
VERTEX
  8
FOREGROUND
  6
CONTINUOUS
 10
0.611988
 20
0.084679
  0
VERTEX
  8
FOREGROUND
  6
CONTINUOUS
 10
0.615137
 20
0.087950
  0
VERTEX
  8
FOREGROUND
  6
CONTINUOUS
 10
0.618160
 20
0.091341
  0
VERTEX
  8
FOREGROUND
  6
CONTINUOUS
 10
0.621053
 20
0.094846
  0
VERTEX
  8
FOREGROUND
  6
CONTINUOUS
 10
0.623813
 20
0.098462
  0
VERTEX
  8
FOREGROUND
  6
CONTINUOUS
 10
0.626434
 20
0.102186
  0
VERTEX
  8
FOREGROUND
  6
CONTINUOUS
 10
0.628915
 20
0.106013
  0
VERTEX
  8
FOREGROUND
  6
CONTINUOUS
 10
0.631250
 20
0.109940
  0
VERTEX
  8
FOREGROUND
  6
CONTINUOUS
 10
0.633436
 20
0.113962
  0
VERTEX
  8
FOREGROUND
  6
CONTINUOUS
 10
0.635469
 20
0.118077
  0
VERTEX
  8
FOREGROUND
  6
CONTINUOUS
 10
0.637345
 20
0.122280
  0
VERTEX
  8
FOREGROUND
  6
CONTINUOUS
 10
0.639062
 20
0.126568
  0
VERTEX
  8
FOREGROUND
  6
CONTINUOUS
 10
0.640614
 20
0.130936
  0
VERTEX
  8
FOREGROUND
  6
CONTINUOUS
 10
0.641998
 20
0.135381
  0
VERTEX
  8
FOREGROUND
  6
CONTINUOUS
 10
0.643211
 20
0.139899
  0
VERTEX
  8
FOREGROUND
  6
CONTINUOUS
 10
0.644248
 20
0.144487
  0
VERTEX
  8
FOREGROUND
  6
CONTINUOUS
 10
0.645105
 20
0.149140
  0
VERTEX
  8
FOREGROUND
  6
CONTINUOUS
 10
0.645780
 20
0.153856
  0
VERTEX
  8
FOREGROUND
  6
CONTINUOUS
 10
0.646267
 20
0.158629
  0
VERTEX
  8
FOREGROUND
  6
CONTINUOUS
 10
0.646564
 20
0.163456
  0
VERTEX
  8
FOREGROUND
  6
CONTINUOUS
 10
0.646667
 20
0.168333
  0
VERTEX
  8
FOREGROUND
  6
CONTINUOUS
 10
0.646667
 20
0.526667
  0
VERTEX
  8
FOREGROUND
  6
CONTINUOUS
 10
0.646564
 20
0.531545
  0
VERTEX
  8
FOREGROUND
  6
CONTINUOUS
 10
0.646267
 20
0.536373
  0
VERTEX
  8
FOREGROUND
  6
CONTINUOUS
 10
0.645780
 20
0.541146
  0
VERTEX
  8
FOREGROUND
  6
CONTINUOUS
 10
0.645105
 20
0.545862
  0
VERTEX
  8
FOREGROUND
  6
CONTINUOUS
 10
0.644247
 20
0.550516
  0
VERTEX
  8
FOREGROUND
  6
CONTINUOUS
 10
0.643210
 20
0.555104
  0
VERTEX
  8
FOREGROUND
  6
CONTINUOUS
 10
0.641997
 20
0.559623
  0
VERTEX
  8
FOREGROUND
  6
CONTINUOUS
 10
0.640613
 20
0.564069
  0
VERTEX
  8
FOREGROUND
  6
CONTINUOUS
 10
0.639060
 20
0.568437
  0
VERTEX
  8
FOREGROUND
  6
CONTINUOUS
 10
0.637343
 20
0.572725
  0
VERTEX
  8
FOREGROUND
  6
CONTINUOUS
 10
0.635466
 20
0.576929
  0
VERTEX
  8
FOREGROUND
  6
CONTINUOUS
 10
0.633432
 20
0.581044
  0
VERTEX
  8
FOREGROUND
  6
CONTINUOUS
 10
0.631246
 20
0.585067
  0
VERTEX
  8
FOREGROUND
  6
CONTINUOUS
 10
0.628910
 20
0.588994
  0
VERTEX
  8
FOREGROUND
  6
CONTINUOUS
 10
0.626430
 20
0.592821
  0
VERTEX
  8
FOREGROUND
  6
CONTINUOUS
 10
0.623807
 20
0.596545
  0
VERTEX
  8
FOREGROUND
  6
CONTINUOUS
 10
0.621048
 20
0.600161
  0
VERTEX
  8
FOREGROUND
  6
CONTINUOUS
 10
0.618154
 20
0.603667
  0
VERTEX
  8
FOREGROUND
  6
CONTINUOUS
 10
0.615130
 20
0.607057
  0
VERTEX
  8
FOREGROUND
  6
CONTINUOUS
 10
0.611980
 20
0.610329
  0
VERTEX
  8
FOREGROUND
  6
CONTINUOUS
 10
0.608708
 20
0.613479
  0
VERTEX
  8
FOREGROUND
  6
CONTINUOUS
 10
0.605317
 20
0.616502
  0
VERTEX
  8
FOREGROUND
  6
CONTINUOUS
 10
0.601811
 20
0.619395
  0
VERTEX
  8
FOREGROUND
  6
CONTINUOUS
 10
0.598194
 20
0.622154
  0
VERTEX
  8
FOREGROUND
  6
CONTINUOUS
 10
0.594470
 20
0.624775
  0
VERTEX
  8
FOREGROUND
  6
CONTINUOUS
 10
0.590642
 20
0.627255
  0
VERTEX
  8
FOREGROUND
  6
CONTINUOUS
 10
0.586714
 20
0.629590
  0
VERTEX
  8
FOREGROUND
  6
CONTINUOUS
 10
0.582691
 20
0.631776
  0
VERTEX
  8
FOREGROUND
  6
CONTINUOUS
 10
0.578576
 20
0.633809
  0
VERTEX
  8
FOREGROUND
  6
CONTINUOUS
 10
0.574372
 20
0.635685
  0
VERTEX
  8
FOREGROUND
  6
CONTINUOUS
 10
0.570083
 20
0.637401
  0
VERTEX
  8
FOREGROUND
  6
CONTINUOUS
 10
0.565714
 20
0.638953
  0
VERTEX
  8
FOREGROUND
  6
CONTINUOUS
 10
0.561268
 20
0.640336
  0
VERTEX
  8
FOREGROUND
  6
CONTINUOUS
 10
0.556749
 20
0.641548
  0
VERTEX
  8
FOREGROUND
  6
CONTINUOUS
 10
0.552161
 20
0.642585
  0
VERTEX
  8
FOREGROUND
  6
CONTINUOUS
 10
0.547507
 20
0.643442
  0
VERTEX
  8
FOREGROUND
  6
CONTINUOUS
 10
0.542791
 20
0.644116
  0
VERTEX
  8
FOREGROUND
  6
CONTINUOUS
 10
0.538018
 20
0.644602
  0
VERTEX
  8
FOREGROUND
  6
CONTINUOUS
 10
0.533190
 20
0.644898
  0
VERTEX
  8
FOREGROUND
  6
CONTINUOUS
 10
0.528311
 20
0.645000
  0
VERTEX
  8
FOREGROUND
  6
CONTINUOUS
 10
0.168311
 20
0.645000
  0
VERTEX
  8
FOREGROUND
  6
CONTINUOUS
 10
0.163434
 20
0.644897
  0
VERTEX
  8
FOREGROUND
  6
CONTINUOUS
 10
0.158608
 20
0.644599
  0
VERTEX
  8
FOREGROUND
  6
CONTINUOUS
 10
0.153836
 20
0.644111
  0
VERTEX
  8
FOREGROUND
  6
CONTINUOUS
 10
0.149121
 20
0.643435
  0
VERTEX
  8
FOREGROUND
  6
CONTINUOUS
 10
0.144469
 20
0.642577
  0
VERTEX
  8
FOREGROUND
  6
CONTINUOUS
 10
0.139882
 20
0.641540
  0
VERTEX
  8
FOREGROUND
  6
CONTINUOUS
 10
0.135364
 20
0.640327
  0
VERTEX
  8
FOREGROUND
  6
CONTINUOUS
 10
0.130919
 20
0.638942
  0
VERTEX
  8
FOREGROUND
  6
CONTINUOUS
 10
0.126552
 20
0.637389
  0
VERTEX
  8
FOREGROUND
  6
CONTINUOUS
 10
0.122265
 20
0.635673
  0
VERTEX
  8
FOREGROUND
  6
CONTINUOUS
 10
0.118063
 20
0.633795
  0
VERTEX
  8
FOREGROUND
  6
CONTINUOUS
 10
0.113949
 20
0.631762
  0
VERTEX
  8
FOREGROUND
  6
CONTINUOUS
 10
0.109927
 20
0.629576
  0
VERTEX
  8
FOREGROUND
  6
CONTINUOUS
 10
0.106001
 20
0.627240
  0
VERTEX
  8
FOREGROUND
  6
CONTINUOUS
 10
0.102175
 20
0.624760
  0
VERTEX
  8
FOREGROUND
  6
CONTINUOUS
 10
0.098452
 20
0.622138
  0
VERTEX
  8
FOREGROUND
  6
CONTINUOUS
 10
0.094836
 20
0.619379
  0
VERTEX
  8
FOREGROUND
  6
CONTINUOUS
 10
0.091332
 20
0.616486
  0
VERTEX
  8
FOREGROUND
  6
CONTINUOUS
 10
0.087942
 20
0.613463
  0
VERTEX
  8
FOREGROUND
  6
CONTINUOUS
 10
0.084671
 20
0.610314
  0
VERTEX
  8
FOREGROUND
  6
CONTINUOUS
 10
0.081522
 20
0.607042
  0
VERTEX
  8
FOREGROUND
  6
CONTINUOUS
 10
0.078500
 20
0.603652
  0
VERTEX
  8
FOREGROUND
  6
CONTINUOUS
 10
0.075607
 20
0.600147
  0
VERTEX
  8
FOREGROUND
  6
CONTINUOUS
 10
0.072849
 20
0.596531
  0
VERTEX
  8
FOREGROUND
  6
CONTINUOUS
 10
0.070228
 20
0.592807
  0
VERTEX
  8
FOREGROUND
  6
CONTINUOUS
 10
0.067748
 20
0.588980
  0
VERTEX
  8
FOREGROUND
  6
CONTINUOUS
 10
0.065414
 20
0.585054
  0
VERTEX
  8
FOREGROUND
  6
CONTINUOUS
 10
0.063228
 20
0.581032
  0
VERTEX
  8
FOREGROUND
  6
CONTINUOUS
 10
0.061195
 20
0.576917
  0
VERTEX
  8
FOREGROUND
  6
CONTINUOUS
 10
0.059319
 20
0.572715
  0
VERTEX
  8
FOREGROUND
  6
CONTINUOUS
 10
0.057603
 20
0.568428
  0
VERTEX
  8
FOREGROUND
  6
CONTINUOUS
 10
0.056051
 20
0.564060
  0
VERTEX
  8
FOREGROUND
  6
CONTINUOUS
 10
0.054667
 20
0.559615
  0
VERTEX
  8
FOREGROUND
  6
CONTINUOUS
 10
0.053455
 20
0.555097
  0
VERTEX
  8
FOREGROUND
  6
CONTINUOUS
 10
0.052418
 20
0.550510
  0
VERTEX
  8
FOREGROUND
  6
CONTINUOUS
 10
0.051561
 20
0.545857
  0
VERTEX
  8
FOREGROUND
  6
CONTINUOUS
 10
0.050887
 20
0.541143
  0
VERTEX
  8
FOREGROUND
  6
CONTINUOUS
 10
0.050399
 20
0.536370
  0
VERTEX
  8
FOREGROUND
  6
CONTINUOUS
 10
0.050102
 20
0.531544
  0
VERTEX
  8
FOREGROUND
  6
CONTINUOUS
 10
0.050000
 20
0.526667
  0
VERTEX
  8
FOREGROUND
  6
CONTINUOUS
 10
0.050000
 20
0.168333
  0
VERTEX
  8
FOREGROUND
  6
CONTINUOUS
 10
0.050102
 20
0.163456
  0
VERTEX
  8
FOREGROUND
  6
CONTINUOUS
 10
0.050399
 20
0.158629
  0
VERTEX
  8
FOREGROUND
  6
CONTINUOUS
 10
0.050887
 20
0.153856
  0
VERTEX
  8
FOREGROUND
  6
CONTINUOUS
 10
0.051561
 20
0.149140
  0
VERTEX
  8
FOREGROUND
  6
CONTINUOUS
 10
0.052419
 20
0.144487
  0
VERTEX
  8
FOREGROUND
  6
CONTINUOUS
 10
0.053456
 20
0.139899
  0
VERTEX
  8
FOREGROUND
  6
CONTINUOUS
 10
0.054668
 20
0.135381
  0
VERTEX
  8
FOREGROUND
  6
CONTINUOUS
 10
0.056053
 20
0.130936
  0
VERTEX
  8
FOREGROUND
  6
CONTINUOUS
 10
0.057605
 20
0.126568
  0
VERTEX
  8
FOREGROUND
  6
CONTINUOUS
 10
0.059321
 20
0.122280
  0
VERTEX
  8
FOREGROUND
  6
CONTINUOUS
 10
0.061198
 20
0.118077
  0
VERTEX
  8
FOREGROUND
  6
CONTINUOUS
 10
0.063231
 20
0.113962
  0
VERTEX
  8
FOREGROUND
  6
CONTINUOUS
 10
0.065417
 20
0.109940
  0
VERTEX
  8
FOREGROUND
  6
CONTINUOUS
 10
0.067752
 20
0.106013
  0
VERTEX
  8
FOREGROUND
  6
CONTINUOUS
 10
0.070232
 20
0.102186
  0
VERTEX
  8
FOREGROUND
  6
CONTINUOUS
 10
0.072854
 20
0.098462
  0
VERTEX
  8
FOREGROUND
  6
CONTINUOUS
 10
0.075613
 20
0.094846
  0
VERTEX
  8
FOREGROUND
  6
CONTINUOUS
 10
0.078506
 20
0.091341
  0
VERTEX
  8
FOREGROUND
  6
CONTINUOUS
 10
0.081529
 20
0.087950
  0
VERTEX
  8
FOREGROUND
  6
CONTINUOUS
 10
0.084679
 20
0.084679
  0
VERTEX
  8
FOREGROUND
  6
CONTINUOUS
 10
0.087950
 20
0.081529
  0
VERTEX
  8
FOREGROUND
  6
CONTINUOUS
 10
0.091341
 20
0.078506
  0
VERTEX
  8
FOREGROUND
  6
CONTINUOUS
 10
0.094846
 20
0.075613
  0
VERTEX
  8
FOREGROUND
  6
CONTINUOUS
 10
0.098462
 20
0.072854
  0
VERTEX
  8
FOREGROUND
  6
CONTINUOUS
 10
0.102186
 20
0.070232
  0
VERTEX
  8
FOREGROUND
  6
CONTINUOUS
 10
0.106013
 20
0.067752
  0
VERTEX
  8
FOREGROUND
  6
CONTINUOUS
 10
0.109940
 20
0.065417
  0
VERTEX
  8
FOREGROUND
  6
CONTINUOUS
 10
0.113962
 20
0.063231
  0
VERTEX
  8
FOREGROUND
  6
CONTINUOUS
 10
0.118077
 20
0.061198
  0
VERTEX
  8
FOREGROUND
  6
CONTINUOUS
 10
0.122280
 20
0.059321
  0
VERTEX
  8
FOREGROUND
  6
CONTINUOUS
 10
0.126568
 20
0.057605
  0
VERTEX
  8
FOREGROUND
  6
CONTINUOUS
 10
0.130936
 20
0.056053
  0
VERTEX
  8
FOREGROUND
  6
CONTINUOUS
 10
0.135381
 20
0.054668
  0
VERTEX
  8
FOREGROUND
  6
CONTINUOUS
 10
0.139899
 20
0.053456
  0
VERTEX
  8
FOREGROUND
  6
CONTINUOUS
 10
0.144487
 20
0.052419
  0
VERTEX
  8
FOREGROUND
  6
CONTINUOUS
 10
0.149140
 20
0.051561
  0
VERTEX
  8
FOREGROUND
  6
CONTINUOUS
 10
0.153856
 20
0.050887
  0
VERTEX
  8
FOREGROUND
  6
CONTINUOUS
 10
0.158629
 20
0.050399
  0
VERTEX
  8
FOREGROUND
  6
CONTINUOUS
 10
0.163456
 20
0.050102
  0
VERTEX
  8
FOREGROUND
  6
CONTINUOUS
 10
0.168333
 20
0.050000
  0
SEQEND
  8
0
  0
ENDSEC
  0
EOF
