  0
SECTION
  2
HEADER
  9
$ACADVER
  1
AC1006
  9
$EXTMIN
 10
0.000000
 20
0.000000
  9
$EXTMAX
 10
4.111667
 20
6.125000
  9
$LTSCALE
 40
0.166667
  9
$PDMODE
 70
    35
  9
$PDSIZE
 40
0.133333
  0
ENDSEC
  0
SECTION
  2
TABLES
  0
TABLE
  2
LTYPE
 70
     9
  0
LTYPE
  2
CONTINUOUS
 70
    64
  3
Solid line
 72
    65
 73
     0
 40
0.000000
  0
LTYPE
  2
DASHED
 70
    64
  3
__ __ __ __ __ __ __ __ __ __ __ __ __ __ __
 72
    65
 73
     2
 40
0.001250
 49
0.000833
 49
-0.000417
  0
LTYPE
  2
HIDDEN
 70
    64
  3
 _ _ _ _ _ _ _ _ _ _ _ _ _ _ _ _ _ _ _ _ _ _
 72
    65
 73
     2
 40
0.000625
 49
0.000417
 49
-0.000208
  0
LTYPE
  2
CENTER
 70
    64
  3
____ _ ____ _ ____ _ ____ _ ____ _ ____ _ ____
 72
    65
 73
     4
 40
0.003333
 49
0.002083
 49
-0.000417
 49
0.000417
 49
-0.000417
  0
LTYPE
  2
PHANTOM
 70
    64
  3
_____ _ _ _____ _ _ _____ _ _ _____ _ _ ____
 72
    65
 73
     6
 40
0.004167
 49
0.002083
 49
-0.000417
 49
0.000417
 49
-0.000417
 49
0.000417
 49
-0.000417
  0
LTYPE
  2
DOT
 70
    64
  3
...............................................
 72
    65
 73
     2
 40
0.000417
 49
0.000000
 49
-0.000417
  0
LTYPE
  2
DASHDOT
 70
    64
  3
__ . __ . __ . __ . __ . __ . __ . __ . __ . __
 72
    65
 73
     4
 40
0.001667
 49
0.000833
 49
-0.000417
 49
0.000000
 49
-0.000417
  0
LTYPE
  2
BORDER
 70
    64
  3
__ __ . __ __ . __ __ . __ __ . __ __ . __ __
 72
    65
 73
     6
 40
0.002917
 49
0.000833
 49
-0.000417
 49
0.000833
 49
-0.000417
 49
0.000000
 49
-0.000417
  0
LTYPE
  2
DIVIDE
 70
    64
  3
__ . . __ . . __ . . __ . . __ . . __ . . __
 72
    65
 73
     6
 40
0.002083
 49
0.000833
 49
-0.000417
 49
0.000000
 49
-0.000417
 49
0.000000
 49
-0.000417
  0
LTYPE
  2
DOTDOT
 70
    64
  3
 . .  . .  . .  . .  . .  . . 
 72
    65
 73
     5
 40
0.000917
 49
-0.000417
 49
0.000000
 49
-0.000417
 49
0.000000
 49
-0.000417
  0
ENDTAB
  0
TABLE
  2
STYLE
 70
     2
  0
STYLE
 70
     0
  2
SN0
 40
0.000000
 41
0.001667
 50
0.000000
 71
     0
 42
0.000000
  3
ROMAND
  0
STYLE
 70
    68
  2
SV0
 40
0.000000
 41
0.001667
 50
0.000000
 71
     0
 42
0.000000
  3
ROMAND
  0
ENDTAB
  0
TABLE
  2
LAYER
 70
     2
  0
LAYER
  2
FOREGROUND
 70
    64
 62
     7
  6
CONTINUOUS
  0
LAYER
  2
BACKGROUND
 70
    65
 62
    -7
  6
CONTINUOUS
  0
ENDTAB
  0
ENDSEC
  0
SECTION
  2
ENTITIES
  0
POLYLINE
  8
FOREGROUND
 62
     7
  6
CONTINUOUS
 66
     1
 40
0.000000
 41
0.000000
 70
     1
  0
VERTEX
  8
FOREGROUND
 62
     7
  6
CONTINUOUS
 10
0.828333
 20
5.966667
  0
VERTEX
  8
FOREGROUND
 62
     7
  6
CONTINUOUS
 10
3.165000
 20
5.966667
  0
VERTEX
  8
FOREGROUND
 62
     7
  6
CONTINUOUS
 10
3.205000
 20
5.965000
  0
VERTEX
  8
FOREGROUND
 62
     7
  6
CONTINUOUS
 10
3.245000
 20
5.961667
  0
VERTEX
  8
FOREGROUND
 62
     7
  6
CONTINUOUS
 10
3.283333
 20
5.958333
  0
VERTEX
  8
FOREGROUND
 62
     7
  6
CONTINUOUS
 10
3.321667
 20
5.950000
  0
VERTEX
  8
FOREGROUND
 62
     7
  6
CONTINUOUS
 10
3.360000
 20
5.941667
  0
VERTEX
  8
FOREGROUND
 62
     7
  6
CONTINUOUS
 10
3.396667
 20
5.931667
  0
VERTEX
  8
FOREGROUND
 62
     7
  6
CONTINUOUS
 10
3.433333
 20
5.920000
  0
VERTEX
  8
FOREGROUND
 62
     7
  6
CONTINUOUS
 10
3.468333
 20
5.905000
  0
VERTEX
  8
FOREGROUND
 62
     7
  6
CONTINUOUS
 10
3.536667
 20
5.873333
  0
VERTEX
  8
FOREGROUND
 62
     7
  6
CONTINUOUS
 10
3.600000
 20
5.833333
  0
VERTEX
  8
FOREGROUND
 62
     7
  6
CONTINUOUS
 10
3.660000
 20
5.788333
  0
VERTEX
  8
FOREGROUND
 62
     7
  6
CONTINUOUS
 10
3.715000
 20
5.738333
  0
VERTEX
  8
FOREGROUND
 62
     7
  6
CONTINUOUS
 10
3.765000
 20
5.683333
  0
VERTEX
  8
FOREGROUND
 62
     7
  6
CONTINUOUS
 10
3.810000
 20
5.623333
  0
VERTEX
  8
FOREGROUND
 62
     7
  6
CONTINUOUS
 10
3.850000
 20
5.558333
  0
VERTEX
  8
FOREGROUND
 62
     7
  6
CONTINUOUS
 10
3.881667
 20
5.491667
  0
VERTEX
  8
FOREGROUND
 62
     7
  6
CONTINUOUS
 10
3.896667
 20
5.455000
  0
VERTEX
  8
FOREGROUND
 62
     7
  6
CONTINUOUS
 10
3.908333
 20
5.420000
  0
VERTEX
  8
FOREGROUND
 62
     7
  6
CONTINUOUS
 10
3.918333
 20
5.383333
  0
VERTEX
  8
FOREGROUND
 62
     7
  6
CONTINUOUS
 10
3.928333
 20
5.345000
  0
VERTEX
  8
FOREGROUND
 62
     7
  6
CONTINUOUS
 10
3.935000
 20
5.306667
  0
VERTEX
  8
FOREGROUND
 62
     7
  6
CONTINUOUS
 10
3.940000
 20
5.268333
  0
VERTEX
  8
FOREGROUND
 62
     7
  6
CONTINUOUS
 10
3.941667
 20
5.228333
  0
VERTEX
  8
FOREGROUND
 62
     7
  6
CONTINUOUS
 10
3.943333
 20
5.188333
  0
VERTEX
  8
FOREGROUND
 62
     7
  6
CONTINUOUS
 10
3.943333
 20
0.836667
  0
VERTEX
  8
FOREGROUND
 62
     7
  6
CONTINUOUS
 10
3.941667
 20
0.796667
  0
VERTEX
  8
FOREGROUND
 62
     7
  6
CONTINUOUS
 10
3.940000
 20
0.756667
  0
VERTEX
  8
FOREGROUND
 62
     7
  6
CONTINUOUS
 10
3.935000
 20
0.718333
  0
VERTEX
  8
FOREGROUND
 62
     7
  6
CONTINUOUS
 10
3.928333
 20
0.680000
  0
VERTEX
  8
FOREGROUND
 62
     7
  6
CONTINUOUS
 10
3.918333
 20
0.641667
  0
VERTEX
  8
FOREGROUND
 62
     7
  6
CONTINUOUS
 10
3.908333
 20
0.605000
  0
VERTEX
  8
FOREGROUND
 62
     7
  6
CONTINUOUS
 10
3.896667
 20
0.568333
  0
VERTEX
  8
FOREGROUND
 62
     7
  6
CONTINUOUS
 10
3.881667
 20
0.533333
  0
VERTEX
  8
FOREGROUND
 62
     7
  6
CONTINUOUS
 10
3.850000
 20
0.465000
  0
VERTEX
  8
FOREGROUND
 62
     7
  6
CONTINUOUS
 10
3.810000
 20
0.401667
  0
VERTEX
  8
FOREGROUND
 62
     7
  6
CONTINUOUS
 10
3.765000
 20
0.341667
  0
VERTEX
  8
FOREGROUND
 62
     7
  6
CONTINUOUS
 10
3.715000
 20
0.286667
  0
VERTEX
  8
FOREGROUND
 62
     7
  6
CONTINUOUS
 10
3.660000
 20
0.236667
  0
VERTEX
  8
FOREGROUND
 62
     7
  6
CONTINUOUS
 10
3.600000
 20
0.191667
  0
VERTEX
  8
FOREGROUND
 62
     7
  6
CONTINUOUS
 10
3.536667
 20
0.151667
  0
VERTEX
  8
FOREGROUND
 62
     7
  6
CONTINUOUS
 10
3.468333
 20
0.120000
  0
VERTEX
  8
FOREGROUND
 62
     7
  6
CONTINUOUS
 10
3.433333
 20
0.105000
  0
VERTEX
  8
FOREGROUND
 62
     7
  6
CONTINUOUS
 10
3.396667
 20
0.093333
  0
VERTEX
  8
FOREGROUND
 62
     7
  6
CONTINUOUS
 10
3.360000
 20
0.083333
  0
VERTEX
  8
FOREGROUND
 62
     7
  6
CONTINUOUS
 10
3.321667
 20
0.073333
  0
VERTEX
  8
FOREGROUND
 62
     7
  6
CONTINUOUS
 10
3.283333
 20
0.066667
  0
VERTEX
  8
FOREGROUND
 62
     7
  6
CONTINUOUS
 10
3.245000
 20
0.061667
  0
VERTEX
  8
FOREGROUND
 62
     7
  6
CONTINUOUS
 10
3.205000
 20
0.060000
  0
VERTEX
  8
FOREGROUND
 62
     7
  6
CONTINUOUS
 10
3.165000
 20
0.058333
  0
VERTEX
  8
FOREGROUND
 62
     7
  6
CONTINUOUS
 10
0.828333
 20
0.058333
  0
VERTEX
  8
FOREGROUND
 62
     7
  6
CONTINUOUS
 10
0.788333
 20
0.060000
  0
VERTEX
  8
FOREGROUND
 62
     7
  6
CONTINUOUS
 10
0.748333
 20
0.061667
  0
VERTEX
  8
FOREGROUND
 62
     7
  6
CONTINUOUS
 10
0.710000
 20
0.066667
  0
VERTEX
  8
FOREGROUND
 62
     7
  6
CONTINUOUS
 10
0.671667
 20
0.073333
  0
VERTEX
  8
FOREGROUND
 62
     7
  6
CONTINUOUS
 10
0.633333
 20
0.083333
  0
VERTEX
  8
FOREGROUND
 62
     7
  6
CONTINUOUS
 10
0.596667
 20
0.093333
  0
VERTEX
  8
FOREGROUND
 62
     7
  6
CONTINUOUS
 10
0.561667
 20
0.105000
  0
VERTEX
  8
FOREGROUND
 62
     7
  6
CONTINUOUS
 10
0.525000
 20
0.120000
  0
VERTEX
  8
FOREGROUND
 62
     7
  6
CONTINUOUS
 10
0.458333
 20
0.151667
  0
VERTEX
  8
FOREGROUND
 62
     7
  6
CONTINUOUS
 10
0.393333
 20
0.191667
  0
VERTEX
  8
FOREGROUND
 62
     7
  6
CONTINUOUS
 10
0.333333
 20
0.236667
  0
VERTEX
  8
FOREGROUND
 62
     7
  6
CONTINUOUS
 10
0.278333
 20
0.286667
  0
VERTEX
  8
FOREGROUND
 62
     7
  6
CONTINUOUS
 10
0.228333
 20
0.341667
  0
VERTEX
  8
FOREGROUND
 62
     7
  6
CONTINUOUS
 10
0.183333
 20
0.401667
  0
VERTEX
  8
FOREGROUND
 62
     7
  6
CONTINUOUS
 10
0.143333
 20
0.465000
  0
VERTEX
  8
FOREGROUND
 62
     7
  6
CONTINUOUS
 10
0.111667
 20
0.533333
  0
VERTEX
  8
FOREGROUND
 62
     7
  6
CONTINUOUS
 10
0.096667
 20
0.568333
  0
VERTEX
  8
FOREGROUND
 62
     7
  6
CONTINUOUS
 10
0.085000
 20
0.605000
  0
VERTEX
  8
FOREGROUND
 62
     7
  6
CONTINUOUS
 10
0.075000
 20
0.641667
  0
VERTEX
  8
FOREGROUND
 62
     7
  6
CONTINUOUS
 10
0.066667
 20
0.680000
  0
VERTEX
  8
FOREGROUND
 62
     7
  6
CONTINUOUS
 10
0.058333
 20
0.718333
  0
VERTEX
  8
FOREGROUND
 62
     7
  6
CONTINUOUS
 10
0.055000
 20
0.756667
  0
VERTEX
  8
FOREGROUND
 62
     7
  6
CONTINUOUS
 10
0.051667
 20
0.796667
  0
VERTEX
  8
FOREGROUND
 62
     7
  6
CONTINUOUS
 10
0.050000
 20
0.836667
  0
VERTEX
  8
FOREGROUND
 62
     7
  6
CONTINUOUS
 10
0.050000
 20
5.188333
  0
VERTEX
  8
FOREGROUND
 62
     7
  6
CONTINUOUS
 10
0.051667
 20
5.228333
  0
VERTEX
  8
FOREGROUND
 62
     7
  6
CONTINUOUS
 10
0.055000
 20
5.268333
  0
VERTEX
  8
FOREGROUND
 62
     7
  6
CONTINUOUS
 10
0.058333
 20
5.306667
  0
VERTEX
  8
FOREGROUND
 62
     7
  6
CONTINUOUS
 10
0.066667
 20
5.345000
  0
VERTEX
  8
FOREGROUND
 62
     7
  6
CONTINUOUS
 10
0.075000
 20
5.383333
  0
VERTEX
  8
FOREGROUND
 62
     7
  6
CONTINUOUS
 10
0.085000
 20
5.420000
  0
VERTEX
  8
FOREGROUND
 62
     7
  6
CONTINUOUS
 10
0.096667
 20
5.455000
  0
VERTEX
  8
FOREGROUND
 62
     7
  6
CONTINUOUS
 10
0.111667
 20
5.491667
  0
VERTEX
  8
FOREGROUND
 62
     7
  6
CONTINUOUS
 10
0.143333
 20
5.558333
  0
VERTEX
  8
FOREGROUND
 62
     7
  6
CONTINUOUS
 10
0.183333
 20
5.623333
  0
VERTEX
  8
FOREGROUND
 62
     7
  6
CONTINUOUS
 10
0.228333
 20
5.683333
  0
VERTEX
  8
FOREGROUND
 62
     7
  6
CONTINUOUS
 10
0.278333
 20
5.738333
  0
VERTEX
  8
FOREGROUND
 62
     7
  6
CONTINUOUS
 10
0.333333
 20
5.788333
  0
VERTEX
  8
FOREGROUND
 62
     7
  6
CONTINUOUS
 10
0.393333
 20
5.833333
  0
VERTEX
  8
FOREGROUND
 62
     7
  6
CONTINUOUS
 10
0.458333
 20
5.873333
  0
VERTEX
  8
FOREGROUND
 62
     7
  6
CONTINUOUS
 10
0.525000
 20
5.905000
  0
VERTEX
  8
FOREGROUND
 62
     7
  6
CONTINUOUS
 10
0.561667
 20
5.920000
  0
VERTEX
  8
FOREGROUND
 62
     7
  6
CONTINUOUS
 10
0.596667
 20
5.931667
  0
VERTEX
  8
FOREGROUND
 62
     7
  6
CONTINUOUS
 10
0.633333
 20
5.941667
  0
VERTEX
  8
FOREGROUND
 62
     7
  6
CONTINUOUS
 10
0.671667
 20
5.950000
  0
VERTEX
  8
FOREGROUND
 62
     7
  6
CONTINUOUS
 10
0.710000
 20
5.958333
  0
VERTEX
  8
FOREGROUND
 62
     7
  6
CONTINUOUS
 10
0.748333
 20
5.961667
  0
VERTEX
  8
FOREGROUND
 62
     7
  6
CONTINUOUS
 10
0.788333
 20
5.965000
  0
SEQEND
  8
0
  0
POLYLINE
  8
FOREGROUND
  6
CONTINUOUS
 66
     1
 40
0.010000
 41
0.010000
 70
     1
  0
VERTEX
  8
FOREGROUND
  6
CONTINUOUS
 10
0.828333
 20
5.966667
  0
VERTEX
  8
FOREGROUND
  6
CONTINUOUS
 10
3.165000
 20
5.966667
  0
VERTEX
  8
FOREGROUND
  6
CONTINUOUS
 10
3.205000
 20
5.965000
  0
VERTEX
  8
FOREGROUND
  6
CONTINUOUS
 10
3.245000
 20
5.961667
  0
VERTEX
  8
FOREGROUND
  6
CONTINUOUS
 10
3.283333
 20
5.958333
  0
VERTEX
  8
FOREGROUND
  6
CONTINUOUS
 10
3.321667
 20
5.950000
  0
VERTEX
  8
FOREGROUND
  6
CONTINUOUS
 10
3.360000
 20
5.941667
  0
VERTEX
  8
FOREGROUND
  6
CONTINUOUS
 10
3.396667
 20
5.931667
  0
VERTEX
  8
FOREGROUND
  6
CONTINUOUS
 10
3.433333
 20
5.920000
  0
VERTEX
  8
FOREGROUND
  6
CONTINUOUS
 10
3.468333
 20
5.905000
  0
VERTEX
  8
FOREGROUND
  6
CONTINUOUS
 10
3.536667
 20
5.873333
  0
VERTEX
  8
FOREGROUND
  6
CONTINUOUS
 10
3.600000
 20
5.833333
  0
VERTEX
  8
FOREGROUND
  6
CONTINUOUS
 10
3.660000
 20
5.788333
  0
VERTEX
  8
FOREGROUND
  6
CONTINUOUS
 10
3.715000
 20
5.738333
  0
VERTEX
  8
FOREGROUND
  6
CONTINUOUS
 10
3.765000
 20
5.683333
  0
VERTEX
  8
FOREGROUND
  6
CONTINUOUS
 10
3.810000
 20
5.623333
  0
VERTEX
  8
FOREGROUND
  6
CONTINUOUS
 10
3.850000
 20
5.558333
  0
VERTEX
  8
FOREGROUND
  6
CONTINUOUS
 10
3.881667
 20
5.491667
  0
VERTEX
  8
FOREGROUND
  6
CONTINUOUS
 10
3.896667
 20
5.455000
  0
VERTEX
  8
FOREGROUND
  6
CONTINUOUS
 10
3.908333
 20
5.420000
  0
VERTEX
  8
FOREGROUND
  6
CONTINUOUS
 10
3.918333
 20
5.383333
  0
VERTEX
  8
FOREGROUND
  6
CONTINUOUS
 10
3.928333
 20
5.345000
  0
VERTEX
  8
FOREGROUND
  6
CONTINUOUS
 10
3.935000
 20
5.306667
  0
VERTEX
  8
FOREGROUND
  6
CONTINUOUS
 10
3.940000
 20
5.268333
  0
VERTEX
  8
FOREGROUND
  6
CONTINUOUS
 10
3.941667
 20
5.228333
  0
VERTEX
  8
FOREGROUND
  6
CONTINUOUS
 10
3.943333
 20
5.188333
  0
VERTEX
  8
FOREGROUND
  6
CONTINUOUS
 10
3.943333
 20
0.836667
  0
VERTEX
  8
FOREGROUND
  6
CONTINUOUS
 10
3.941667
 20
0.796667
  0
VERTEX
  8
FOREGROUND
  6
CONTINUOUS
 10
3.940000
 20
0.756667
  0
VERTEX
  8
FOREGROUND
  6
CONTINUOUS
 10
3.935000
 20
0.718333
  0
VERTEX
  8
FOREGROUND
  6
CONTINUOUS
 10
3.928333
 20
0.680000
  0
VERTEX
  8
FOREGROUND
  6
CONTINUOUS
 10
3.918333
 20
0.641667
  0
VERTEX
  8
FOREGROUND
  6
CONTINUOUS
 10
3.908333
 20
0.605000
  0
VERTEX
  8
FOREGROUND
  6
CONTINUOUS
 10
3.896667
 20
0.568333
  0
VERTEX
  8
FOREGROUND
  6
CONTINUOUS
 10
3.881667
 20
0.533333
  0
VERTEX
  8
FOREGROUND
  6
CONTINUOUS
 10
3.850000
 20
0.465000
  0
VERTEX
  8
FOREGROUND
  6
CONTINUOUS
 10
3.810000
 20
0.401667
  0
VERTEX
  8
FOREGROUND
  6
CONTINUOUS
 10
3.765000
 20
0.341667
  0
VERTEX
  8
FOREGROUND
  6
CONTINUOUS
 10
3.715000
 20
0.286667
  0
VERTEX
  8
FOREGROUND
  6
CONTINUOUS
 10
3.660000
 20
0.236667
  0
VERTEX
  8
FOREGROUND
  6
CONTINUOUS
 10
3.600000
 20
0.191667
  0
VERTEX
  8
FOREGROUND
  6
CONTINUOUS
 10
3.536667
 20
0.151667
  0
VERTEX
  8
FOREGROUND
  6
CONTINUOUS
 10
3.468333
 20
0.120000
  0
VERTEX
  8
FOREGROUND
  6
CONTINUOUS
 10
3.433333
 20
0.105000
  0
VERTEX
  8
FOREGROUND
  6
CONTINUOUS
 10
3.396667
 20
0.093333
  0
VERTEX
  8
FOREGROUND
  6
CONTINUOUS
 10
3.360000
 20
0.083333
  0
VERTEX
  8
FOREGROUND
  6
CONTINUOUS
 10
3.321667
 20
0.073333
  0
VERTEX
  8
FOREGROUND
  6
CONTINUOUS
 10
3.283333
 20
0.066667
  0
VERTEX
  8
FOREGROUND
  6
CONTINUOUS
 10
3.245000
 20
0.061667
  0
VERTEX
  8
FOREGROUND
  6
CONTINUOUS
 10
3.205000
 20
0.060000
  0
VERTEX
  8
FOREGROUND
  6
CONTINUOUS
 10
3.165000
 20
0.058333
  0
VERTEX
  8
FOREGROUND
  6
CONTINUOUS
 10
0.828333
 20
0.058333
  0
VERTEX
  8
FOREGROUND
  6
CONTINUOUS
 10
0.788333
 20
0.060000
  0
VERTEX
  8
FOREGROUND
  6
CONTINUOUS
 10
0.748333
 20
0.061667
  0
VERTEX
  8
FOREGROUND
  6
CONTINUOUS
 10
0.710000
 20
0.066667
  0
VERTEX
  8
FOREGROUND
  6
CONTINUOUS
 10
0.671667
 20
0.073333
  0
VERTEX
  8
FOREGROUND
  6
CONTINUOUS
 10
0.633333
 20
0.083333
  0
VERTEX
  8
FOREGROUND
  6
CONTINUOUS
 10
0.596667
 20
0.093333
  0
VERTEX
  8
FOREGROUND
  6
CONTINUOUS
 10
0.561667
 20
0.105000
  0
VERTEX
  8
FOREGROUND
  6
CONTINUOUS
 10
0.525000
 20
0.120000
  0
VERTEX
  8
FOREGROUND
  6
CONTINUOUS
 10
0.458333
 20
0.151667
  0
VERTEX
  8
FOREGROUND
  6
CONTINUOUS
 10
0.393333
 20
0.191667
  0
VERTEX
  8
FOREGROUND
  6
CONTINUOUS
 10
0.333333
 20
0.236667
  0
VERTEX
  8
FOREGROUND
  6
CONTINUOUS
 10
0.278333
 20
0.286667
  0
VERTEX
  8
FOREGROUND
  6
CONTINUOUS
 10
0.228333
 20
0.341667
  0
VERTEX
  8
FOREGROUND
  6
CONTINUOUS
 10
0.183333
 20
0.401667
  0
VERTEX
  8
FOREGROUND
  6
CONTINUOUS
 10
0.143333
 20
0.465000
  0
VERTEX
  8
FOREGROUND
  6
CONTINUOUS
 10
0.111667
 20
0.533333
  0
VERTEX
  8
FOREGROUND
  6
CONTINUOUS
 10
0.096667
 20
0.568333
  0
VERTEX
  8
FOREGROUND
  6
CONTINUOUS
 10
0.085000
 20
0.605000
  0
VERTEX
  8
FOREGROUND
  6
CONTINUOUS
 10
0.075000
 20
0.641667
  0
VERTEX
  8
FOREGROUND
  6
CONTINUOUS
 10
0.066667
 20
0.680000
  0
VERTEX
  8
FOREGROUND
  6
CONTINUOUS
 10
0.058333
 20
0.718333
  0
VERTEX
  8
FOREGROUND
  6
CONTINUOUS
 10
0.055000
 20
0.756667
  0
VERTEX
  8
FOREGROUND
  6
CONTINUOUS
 10
0.051667
 20
0.796667
  0
VERTEX
  8
FOREGROUND
  6
CONTINUOUS
 10
0.050000
 20
0.836667
  0
VERTEX
  8
FOREGROUND
  6
CONTINUOUS
 10
0.050000
 20
5.188333
  0
VERTEX
  8
FOREGROUND
  6
CONTINUOUS
 10
0.051667
 20
5.228333
  0
VERTEX
  8
FOREGROUND
  6
CONTINUOUS
 10
0.055000
 20
5.268333
  0
VERTEX
  8
FOREGROUND
  6
CONTINUOUS
 10
0.058333
 20
5.306667
  0
VERTEX
  8
FOREGROUND
  6
CONTINUOUS
 10
0.066667
 20
5.345000
  0
VERTEX
  8
FOREGROUND
  6
CONTINUOUS
 10
0.075000
 20
5.383333
  0
VERTEX
  8
FOREGROUND
  6
CONTINUOUS
 10
0.085000
 20
5.420000
  0
VERTEX
  8
FOREGROUND
  6
CONTINUOUS
 10
0.096667
 20
5.455000
  0
VERTEX
  8
FOREGROUND
  6
CONTINUOUS
 10
0.111667
 20
5.491667
  0
VERTEX
  8
FOREGROUND
  6
CONTINUOUS
 10
0.143333
 20
5.558333
  0
VERTEX
  8
FOREGROUND
  6
CONTINUOUS
 10
0.183333
 20
5.623333
  0
VERTEX
  8
FOREGROUND
  6
CONTINUOUS
 10
0.228333
 20
5.683333
  0
VERTEX
  8
FOREGROUND
  6
CONTINUOUS
 10
0.278333
 20
5.738333
  0
VERTEX
  8
FOREGROUND
  6
CONTINUOUS
 10
0.333333
 20
5.788333
  0
VERTEX
  8
FOREGROUND
  6
CONTINUOUS
 10
0.393333
 20
5.833333
  0
VERTEX
  8
FOREGROUND
  6
CONTINUOUS
 10
0.458333
 20
5.873333
  0
VERTEX
  8
FOREGROUND
  6
CONTINUOUS
 10
0.525000
 20
5.905000
  0
VERTEX
  8
FOREGROUND
  6
CONTINUOUS
 10
0.561667
 20
5.920000
  0
VERTEX
  8
FOREGROUND
  6
CONTINUOUS
 10
0.596667
 20
5.931667
  0
VERTEX
  8
FOREGROUND
  6
CONTINUOUS
 10
0.633333
 20
5.941667
  0
VERTEX
  8
FOREGROUND
  6
CONTINUOUS
 10
0.671667
 20
5.950000
  0
VERTEX
  8
FOREGROUND
  6
CONTINUOUS
 10
0.710000
 20
5.958333
  0
VERTEX
  8
FOREGROUND
  6
CONTINUOUS
 10
0.748333
 20
5.961667
  0
VERTEX
  8
FOREGROUND
  6
CONTINUOUS
 10
0.788333
 20
5.965000
  0
SEQEND
  8
0
  0
ENDSEC
  0
EOF
