  0
SECTION
  2
HEADER
  9
$ACADVER
  1
AC1006
  9
$EXTMIN
 10
0.000000
 20
0.000000
  9
$EXTMAX
 10
4.310000
 20
11.968333
  9
$LTSCALE
 40
0.166667
  9
$PDMODE
 70
    35
  9
$PDSIZE
 40
0.133333
  0
ENDSEC
  0
SECTION
  2
TABLES
  0
TABLE
  2
LTYPE
 70
     9
  0
LTYPE
  2
CONTINUOUS
 70
    64
  3
Solid line
 72
    65
 73
     0
 40
0.000000
  0
LTYPE
  2
DASHED
 70
    64
  3
__ __ __ __ __ __ __ __ __ __ __ __ __ __ __
 72
    65
 73
     2
 40
0.001250
 49
0.000833
 49
-0.000417
  0
LTYPE
  2
HIDDEN
 70
    64
  3
 _ _ _ _ _ _ _ _ _ _ _ _ _ _ _ _ _ _ _ _ _ _
 72
    65
 73
     2
 40
0.000625
 49
0.000417
 49
-0.000208
  0
LTYPE
  2
CENTER
 70
    64
  3
____ _ ____ _ ____ _ ____ _ ____ _ ____ _ ____
 72
    65
 73
     4
 40
0.003333
 49
0.002083
 49
-0.000417
 49
0.000417
 49
-0.000417
  0
LTYPE
  2
PHANTOM
 70
    64
  3
_____ _ _ _____ _ _ _____ _ _ _____ _ _ ____
 72
    65
 73
     6
 40
0.004167
 49
0.002083
 49
-0.000417
 49
0.000417
 49
-0.000417
 49
0.000417
 49
-0.000417
  0
LTYPE
  2
DOT
 70
    64
  3
...............................................
 72
    65
 73
     2
 40
0.000417
 49
0.000000
 49
-0.000417
  0
LTYPE
  2
DASHDOT
 70
    64
  3
__ . __ . __ . __ . __ . __ . __ . __ . __ . __
 72
    65
 73
     4
 40
0.001667
 49
0.000833
 49
-0.000417
 49
0.000000
 49
-0.000417
  0
LTYPE
  2
BORDER
 70
    64
  3
__ __ . __ __ . __ __ . __ __ . __ __ . __ __
 72
    65
 73
     6
 40
0.002917
 49
0.000833
 49
-0.000417
 49
0.000833
 49
-0.000417
 49
0.000000
 49
-0.000417
  0
LTYPE
  2
DIVIDE
 70
    64
  3
__ . . __ . . __ . . __ . . __ . . __ . . __
 72
    65
 73
     6
 40
0.002083
 49
0.000833
 49
-0.000417
 49
0.000000
 49
-0.000417
 49
0.000000
 49
-0.000417
  0
LTYPE
  2
DOTDOT
 70
    64
  3
 . .  . .  . .  . .  . .  . . 
 72
    65
 73
     5
 40
0.000917
 49
-0.000417
 49
0.000000
 49
-0.000417
 49
0.000000
 49
-0.000417
  0
ENDTAB
  0
TABLE
  2
STYLE
 70
     2
  0
STYLE
 70
     0
  2
SN0
 40
0.000000
 41
0.001667
 50
0.000000
 71
     0
 42
0.000000
  3
ROMAND
  0
STYLE
 70
    68
  2
SV0
 40
0.000000
 41
0.001667
 50
0.000000
 71
     0
 42
0.000000
  3
ROMAND
  0
ENDTAB
  0
TABLE
  2
LAYER
 70
     2
  0
LAYER
  2
FOREGROUND
 70
    64
 62
     7
  6
CONTINUOUS
  0
LAYER
  2
BACKGROUND
 70
    65
 62
    -7
  6
CONTINUOUS
  0
ENDTAB
  0
ENDSEC
  0
SECTION
  2
ENTITIES
  0
POLYLINE
  8
FOREGROUND
  6
CONTINUOUS
 66
     1
 40
0.010000
 41
0.010000
 70
     1
  0
VERTEX
  8
FOREGROUND
  6
CONTINUOUS
 10
0.866667
 20
11.810000
  0
VERTEX
  8
FOREGROUND
  6
CONTINUOUS
 10
3.325000
 20
11.810000
  0
VERTEX
  8
FOREGROUND
  6
CONTINUOUS
 10
3.366667
 20
11.808333
  0
VERTEX
  8
FOREGROUND
  6
CONTINUOUS
 10
3.408333
 20
11.805000
  0
VERTEX
  8
FOREGROUND
  6
CONTINUOUS
 10
3.450000
 20
11.800000
  0
VERTEX
  8
FOREGROUND
  6
CONTINUOUS
 10
3.490000
 20
11.793333
  0
VERTEX
  8
FOREGROUND
  6
CONTINUOUS
 10
3.530000
 20
11.783333
  0
VERTEX
  8
FOREGROUND
  6
CONTINUOUS
 10
3.568333
 20
11.773333
  0
VERTEX
  8
FOREGROUND
  6
CONTINUOUS
 10
3.606667
 20
11.760000
  0
VERTEX
  8
FOREGROUND
  6
CONTINUOUS
 10
3.643333
 20
11.745000
  0
VERTEX
  8
FOREGROUND
  6
CONTINUOUS
 10
3.680000
 20
11.730000
  0
VERTEX
  8
FOREGROUND
  6
CONTINUOUS
 10
3.715000
 20
11.711667
  0
VERTEX
  8
FOREGROUND
  6
CONTINUOUS
 10
3.781667
 20
11.670000
  0
VERTEX
  8
FOREGROUND
  6
CONTINUOUS
 10
3.845000
 20
11.623333
  0
VERTEX
  8
FOREGROUND
  6
CONTINUOUS
 10
3.903333
 20
11.570000
  0
VERTEX
  8
FOREGROUND
  6
CONTINUOUS
 10
3.955000
 20
11.511667
  0
VERTEX
  8
FOREGROUND
  6
CONTINUOUS
 10
4.003333
 20
11.450000
  0
VERTEX
  8
FOREGROUND
  6
CONTINUOUS
 10
4.043333
 20
11.381667
  0
VERTEX
  8
FOREGROUND
  6
CONTINUOUS
 10
4.061667
 20
11.346667
  0
VERTEX
  8
FOREGROUND
  6
CONTINUOUS
 10
4.078333
 20
11.311667
  0
VERTEX
  8
FOREGROUND
  6
CONTINUOUS
 10
4.091667
 20
11.273333
  0
VERTEX
  8
FOREGROUND
  6
CONTINUOUS
 10
4.105000
 20
11.236667
  0
VERTEX
  8
FOREGROUND
  6
CONTINUOUS
 10
4.116667
 20
11.196667
  0
VERTEX
  8
FOREGROUND
  6
CONTINUOUS
 10
4.125000
 20
11.158333
  0
VERTEX
  8
FOREGROUND
  6
CONTINUOUS
 10
4.133333
 20
11.116667
  0
VERTEX
  8
FOREGROUND
  6
CONTINUOUS
 10
4.138333
 20
11.076667
  0
VERTEX
  8
FOREGROUND
  6
CONTINUOUS
 10
4.141667
 20
11.035000
  0
VERTEX
  8
FOREGROUND
  6
CONTINUOUS
 10
4.141667
 20
10.993333
  0
VERTEX
  8
FOREGROUND
  6
CONTINUOUS
 10
4.141667
 20
0.875000
  0
VERTEX
  8
FOREGROUND
  6
CONTINUOUS
 10
4.141667
 20
0.833333
  0
VERTEX
  8
FOREGROUND
  6
CONTINUOUS
 10
4.138333
 20
0.791667
  0
VERTEX
  8
FOREGROUND
  6
CONTINUOUS
 10
4.133333
 20
0.750000
  0
VERTEX
  8
FOREGROUND
  6
CONTINUOUS
 10
4.125000
 20
0.710000
  0
VERTEX
  8
FOREGROUND
  6
CONTINUOUS
 10
4.116667
 20
0.670000
  0
VERTEX
  8
FOREGROUND
  6
CONTINUOUS
 10
4.105000
 20
0.631667
  0
VERTEX
  8
FOREGROUND
  6
CONTINUOUS
 10
4.091667
 20
0.593333
  0
VERTEX
  8
FOREGROUND
  6
CONTINUOUS
 10
4.078333
 20
0.556667
  0
VERTEX
  8
FOREGROUND
  6
CONTINUOUS
 10
4.061667
 20
0.520000
  0
VERTEX
  8
FOREGROUND
  6
CONTINUOUS
 10
4.043333
 20
0.485000
  0
VERTEX
  8
FOREGROUND
  6
CONTINUOUS
 10
4.003333
 20
0.418333
  0
VERTEX
  8
FOREGROUND
  6
CONTINUOUS
 10
3.955000
 20
0.355000
  0
VERTEX
  8
FOREGROUND
  6
CONTINUOUS
 10
3.903333
 20
0.296667
  0
VERTEX
  8
FOREGROUND
  6
CONTINUOUS
 10
3.845000
 20
0.245000
  0
VERTEX
  8
FOREGROUND
  6
CONTINUOUS
 10
3.781667
 20
0.196667
  0
VERTEX
  8
FOREGROUND
  6
CONTINUOUS
 10
3.715000
 20
0.156667
  0
VERTEX
  8
FOREGROUND
  6
CONTINUOUS
 10
3.680000
 20
0.138333
  0
VERTEX
  8
FOREGROUND
  6
CONTINUOUS
 10
3.643333
 20
0.121667
  0
VERTEX
  8
FOREGROUND
  6
CONTINUOUS
 10
3.606667
 20
0.108333
  0
VERTEX
  8
FOREGROUND
  6
CONTINUOUS
 10
3.568333
 20
0.095000
  0
VERTEX
  8
FOREGROUND
  6
CONTINUOUS
 10
3.530000
 20
0.083333
  0
VERTEX
  8
FOREGROUND
  6
CONTINUOUS
 10
3.490000
 20
0.075000
  0
VERTEX
  8
FOREGROUND
  6
CONTINUOUS
 10
3.450000
 20
0.066667
  0
VERTEX
  8
FOREGROUND
  6
CONTINUOUS
 10
3.408333
 20
0.061667
  0
VERTEX
  8
FOREGROUND
  6
CONTINUOUS
 10
3.366667
 20
0.058333
  0
VERTEX
  8
FOREGROUND
  6
CONTINUOUS
 10
3.325000
 20
0.058333
  0
VERTEX
  8
FOREGROUND
  6
CONTINUOUS
 10
0.866667
 20
0.058333
  0
VERTEX
  8
FOREGROUND
  6
CONTINUOUS
 10
0.825000
 20
0.058333
  0
VERTEX
  8
FOREGROUND
  6
CONTINUOUS
 10
0.783333
 20
0.061667
  0
VERTEX
  8
FOREGROUND
  6
CONTINUOUS
 10
0.743333
 20
0.066667
  0
VERTEX
  8
FOREGROUND
  6
CONTINUOUS
 10
0.701667
 20
0.075000
  0
VERTEX
  8
FOREGROUND
  6
CONTINUOUS
 10
0.663333
 20
0.083333
  0
VERTEX
  8
FOREGROUND
  6
CONTINUOUS
 10
0.623333
 20
0.095000
  0
VERTEX
  8
FOREGROUND
  6
CONTINUOUS
 10
0.586667
 20
0.108333
  0
VERTEX
  8
FOREGROUND
  6
CONTINUOUS
 10
0.548333
 20
0.121667
  0
VERTEX
  8
FOREGROUND
  6
CONTINUOUS
 10
0.513333
 20
0.138333
  0
VERTEX
  8
FOREGROUND
  6
CONTINUOUS
 10
0.478333
 20
0.156667
  0
VERTEX
  8
FOREGROUND
  6
CONTINUOUS
 10
0.410000
 20
0.196667
  0
VERTEX
  8
FOREGROUND
  6
CONTINUOUS
 10
0.348333
 20
0.245000
  0
VERTEX
  8
FOREGROUND
  6
CONTINUOUS
 10
0.290000
 20
0.296667
  0
VERTEX
  8
FOREGROUND
  6
CONTINUOUS
 10
0.236667
 20
0.355000
  0
VERTEX
  8
FOREGROUND
  6
CONTINUOUS
 10
0.190000
 20
0.418333
  0
VERTEX
  8
FOREGROUND
  6
CONTINUOUS
 10
0.148333
 20
0.485000
  0
VERTEX
  8
FOREGROUND
  6
CONTINUOUS
 10
0.130000
 20
0.520000
  0
VERTEX
  8
FOREGROUND
  6
CONTINUOUS
 10
0.115000
 20
0.556667
  0
VERTEX
  8
FOREGROUND
  6
CONTINUOUS
 10
0.100000
 20
0.593333
  0
VERTEX
  8
FOREGROUND
  6
CONTINUOUS
 10
0.086667
 20
0.631667
  0
VERTEX
  8
FOREGROUND
  6
CONTINUOUS
 10
0.076667
 20
0.670000
  0
VERTEX
  8
FOREGROUND
  6
CONTINUOUS
 10
0.066667
 20
0.710000
  0
VERTEX
  8
FOREGROUND
  6
CONTINUOUS
 10
0.060000
 20
0.750000
  0
VERTEX
  8
FOREGROUND
  6
CONTINUOUS
 10
0.055000
 20
0.791667
  0
VERTEX
  8
FOREGROUND
  6
CONTINUOUS
 10
0.051667
 20
0.833333
  0
VERTEX
  8
FOREGROUND
  6
CONTINUOUS
 10
0.050000
 20
0.875000
  0
VERTEX
  8
FOREGROUND
  6
CONTINUOUS
 10
0.050000
 20
10.993333
  0
VERTEX
  8
FOREGROUND
  6
CONTINUOUS
 10
0.051667
 20
11.035000
  0
VERTEX
  8
FOREGROUND
  6
CONTINUOUS
 10
0.055000
 20
11.076667
  0
VERTEX
  8
FOREGROUND
  6
CONTINUOUS
 10
0.060000
 20
11.116667
  0
VERTEX
  8
FOREGROUND
  6
CONTINUOUS
 10
0.066667
 20
11.158333
  0
VERTEX
  8
FOREGROUND
  6
CONTINUOUS
 10
0.076667
 20
11.196667
  0
VERTEX
  8
FOREGROUND
  6
CONTINUOUS
 10
0.086667
 20
11.236667
  0
VERTEX
  8
FOREGROUND
  6
CONTINUOUS
 10
0.100000
 20
11.273333
  0
VERTEX
  8
FOREGROUND
  6
CONTINUOUS
 10
0.115000
 20
11.311667
  0
VERTEX
  8
FOREGROUND
  6
CONTINUOUS
 10
0.130000
 20
11.346667
  0
VERTEX
  8
FOREGROUND
  6
CONTINUOUS
 10
0.148333
 20
11.381667
  0
VERTEX
  8
FOREGROUND
  6
CONTINUOUS
 10
0.190000
 20
11.450000
  0
VERTEX
  8
FOREGROUND
  6
CONTINUOUS
 10
0.236667
 20
11.511667
  0
VERTEX
  8
FOREGROUND
  6
CONTINUOUS
 10
0.290000
 20
11.570000
  0
VERTEX
  8
FOREGROUND
  6
CONTINUOUS
 10
0.348333
 20
11.623333
  0
VERTEX
  8
FOREGROUND
  6
CONTINUOUS
 10
0.410000
 20
11.670000
  0
VERTEX
  8
FOREGROUND
  6
CONTINUOUS
 10
0.478333
 20
11.711667
  0
VERTEX
  8
FOREGROUND
  6
CONTINUOUS
 10
0.513333
 20
11.730000
  0
VERTEX
  8
FOREGROUND
  6
CONTINUOUS
 10
0.548333
 20
11.745000
  0
VERTEX
  8
FOREGROUND
  6
CONTINUOUS
 10
0.586667
 20
11.760000
  0
VERTEX
  8
FOREGROUND
  6
CONTINUOUS
 10
0.623333
 20
11.773333
  0
VERTEX
  8
FOREGROUND
  6
CONTINUOUS
 10
0.663333
 20
11.783333
  0
VERTEX
  8
FOREGROUND
  6
CONTINUOUS
 10
0.701667
 20
11.793333
  0
VERTEX
  8
FOREGROUND
  6
CONTINUOUS
 10
0.743333
 20
11.800000
  0
VERTEX
  8
FOREGROUND
  6
CONTINUOUS
 10
0.783333
 20
11.805000
  0
VERTEX
  8
FOREGROUND
  6
CONTINUOUS
 10
0.825000
 20
11.808333
  0
SEQEND
  8
0
  0
ENDSEC
  0
EOF
