  0
SECTION
  2
HEADER
  9
$ACADVER
  1
AC1006
  9
$EXTMIN
 10
0.000000
 20
0.000000
  9
$EXTMAX
 10
4.136667
 20
3.560000
  9
$LTSCALE
 40
0.166667
  9
$PDMODE
 70
    35
  9
$PDSIZE
 40
0.133333
  0
ENDSEC
  0
SECTION
  2
TABLES
  0
TABLE
  2
LTYPE
 70
     9
  0
LTYPE
  2
CONTINUOUS
 70
    64
  3
Solid line
 72
    65
 73
     0
 40
0.000000
  0
LTYPE
  2
DASHED
 70
    64
  3
__ __ __ __ __ __ __ __ __ __ __ __ __ __ __
 72
    65
 73
     2
 40
0.001250
 49
0.000833
 49
-0.000417
  0
LTYPE
  2
HIDDEN
 70
    64
  3
 _ _ _ _ _ _ _ _ _ _ _ _ _ _ _ _ _ _ _ _ _ _
 72
    65
 73
     2
 40
0.000625
 49
0.000417
 49
-0.000208
  0
LTYPE
  2
CENTER
 70
    64
  3
____ _ ____ _ ____ _ ____ _ ____ _ ____ _ ____
 72
    65
 73
     4
 40
0.003333
 49
0.002083
 49
-0.000417
 49
0.000417
 49
-0.000417
  0
LTYPE
  2
PHANTOM
 70
    64
  3
_____ _ _ _____ _ _ _____ _ _ _____ _ _ ____
 72
    65
 73
     6
 40
0.004167
 49
0.002083
 49
-0.000417
 49
0.000417
 49
-0.000417
 49
0.000417
 49
-0.000417
  0
LTYPE
  2
DOT
 70
    64
  3
...............................................
 72
    65
 73
     2
 40
0.000417
 49
0.000000
 49
-0.000417
  0
LTYPE
  2
DASHDOT
 70
    64
  3
__ . __ . __ . __ . __ . __ . __ . __ . __ . __
 72
    65
 73
     4
 40
0.001667
 49
0.000833
 49
-0.000417
 49
0.000000
 49
-0.000417
  0
LTYPE
  2
BORDER
 70
    64
  3
__ __ . __ __ . __ __ . __ __ . __ __ . __ __
 72
    65
 73
     6
 40
0.002917
 49
0.000833
 49
-0.000417
 49
0.000833
 49
-0.000417
 49
0.000000
 49
-0.000417
  0
LTYPE
  2
DIVIDE
 70
    64
  3
__ . . __ . . __ . . __ . . __ . . __ . . __
 72
    65
 73
     6
 40
0.002083
 49
0.000833
 49
-0.000417
 49
0.000000
 49
-0.000417
 49
0.000000
 49
-0.000417
  0
LTYPE
  2
DOTDOT
 70
    64
  3
 . .  . .  . .  . .  . .  . . 
 72
    65
 73
     5
 40
0.000917
 49
-0.000417
 49
0.000000
 49
-0.000417
 49
0.000000
 49
-0.000417
  0
ENDTAB
  0
TABLE
  2
STYLE
 70
     2
  0
STYLE
 70
     0
  2
SN0
 40
0.000000
 41
0.001667
 50
0.000000
 71
     0
 42
0.000000
  3
ROMAND
  0
STYLE
 70
    68
  2
SV0
 40
0.000000
 41
0.001667
 50
0.000000
 71
     0
 42
0.000000
  3
ROMAND
  0
ENDTAB
  0
TABLE
  2
LAYER
 70
     2
  0
LAYER
  2
FOREGROUND
 70
    64
 62
     7
  6
CONTINUOUS
  0
LAYER
  2
BACKGROUND
 70
    65
 62
    -7
  6
CONTINUOUS
  0
ENDTAB
  0
ENDSEC
  0
SECTION
  2
ENTITIES
  0
POLYLINE
  8
FOREGROUND
 62
     7
  6
CONTINUOUS
 66
     1
 40
0.000000
 41
0.000000
 70
     1
  0
VERTEX
  8
FOREGROUND
 62
     7
  6
CONTINUOUS
 10
0.718333
 20
3.401667
  0
VERTEX
  8
FOREGROUND
 62
     7
  6
CONTINUOUS
 10
3.300000
 20
3.401667
  0
VERTEX
  8
FOREGROUND
 62
     7
  6
CONTINUOUS
 10
3.335000
 20
3.400000
  0
VERTEX
  8
FOREGROUND
 62
     7
  6
CONTINUOUS
 10
3.368333
 20
3.398333
  0
VERTEX
  8
FOREGROUND
 62
     7
  6
CONTINUOUS
 10
3.401667
 20
3.393333
  0
VERTEX
  8
FOREGROUND
 62
     7
  6
CONTINUOUS
 10
3.435000
 20
3.388333
  0
VERTEX
  8
FOREGROUND
 62
     7
  6
CONTINUOUS
 10
3.498333
 20
3.371667
  0
VERTEX
  8
FOREGROUND
 62
     7
  6
CONTINUOUS
 10
3.560000
 20
3.348333
  0
VERTEX
  8
FOREGROUND
 62
     7
  6
CONTINUOUS
 10
3.618333
 20
3.320000
  0
VERTEX
  8
FOREGROUND
 62
     7
  6
CONTINUOUS
 10
3.673333
 20
3.286667
  0
VERTEX
  8
FOREGROUND
 62
     7
  6
CONTINUOUS
 10
3.725000
 20
3.248333
  0
VERTEX
  8
FOREGROUND
 62
     7
  6
CONTINUOUS
 10
3.773333
 20
3.205000
  0
VERTEX
  8
FOREGROUND
 62
     7
  6
CONTINUOUS
 10
3.816667
 20
3.158333
  0
VERTEX
  8
FOREGROUND
 62
     7
  6
CONTINUOUS
 10
3.855000
 20
3.106667
  0
VERTEX
  8
FOREGROUND
 62
     7
  6
CONTINUOUS
 10
3.888333
 20
3.051667
  0
VERTEX
  8
FOREGROUND
 62
     7
  6
CONTINUOUS
 10
3.916667
 20
2.993333
  0
VERTEX
  8
FOREGROUND
 62
     7
  6
CONTINUOUS
 10
3.938333
 20
2.931667
  0
VERTEX
  8
FOREGROUND
 62
     7
  6
CONTINUOUS
 10
3.955000
 20
2.868333
  0
VERTEX
  8
FOREGROUND
 62
     7
  6
CONTINUOUS
 10
3.960000
 20
2.835000
  0
VERTEX
  8
FOREGROUND
 62
     7
  6
CONTINUOUS
 10
3.965000
 20
2.801667
  0
VERTEX
  8
FOREGROUND
 62
     7
  6
CONTINUOUS
 10
3.968333
 20
2.768333
  0
VERTEX
  8
FOREGROUND
 62
     7
  6
CONTINUOUS
 10
3.968333
 20
2.733333
  0
VERTEX
  8
FOREGROUND
 62
     7
  6
CONTINUOUS
 10
3.968333
 20
0.726667
  0
VERTEX
  8
FOREGROUND
 62
     7
  6
CONTINUOUS
 10
3.968333
 20
0.691667
  0
VERTEX
  8
FOREGROUND
 62
     7
  6
CONTINUOUS
 10
3.965000
 20
0.658333
  0
VERTEX
  8
FOREGROUND
 62
     7
  6
CONTINUOUS
 10
3.960000
 20
0.625000
  0
VERTEX
  8
FOREGROUND
 62
     7
  6
CONTINUOUS
 10
3.955000
 20
0.591667
  0
VERTEX
  8
FOREGROUND
 62
     7
  6
CONTINUOUS
 10
3.938333
 20
0.528333
  0
VERTEX
  8
FOREGROUND
 62
     7
  6
CONTINUOUS
 10
3.916667
 20
0.466667
  0
VERTEX
  8
FOREGROUND
 62
     7
  6
CONTINUOUS
 10
3.888333
 20
0.408333
  0
VERTEX
  8
FOREGROUND
 62
     7
  6
CONTINUOUS
 10
3.855000
 20
0.353333
  0
VERTEX
  8
FOREGROUND
 62
     7
  6
CONTINUOUS
 10
3.816667
 20
0.301667
  0
VERTEX
  8
FOREGROUND
 62
     7
  6
CONTINUOUS
 10
3.773333
 20
0.253333
  0
VERTEX
  8
FOREGROUND
 62
     7
  6
CONTINUOUS
 10
3.725000
 20
0.210000
  0
VERTEX
  8
FOREGROUND
 62
     7
  6
CONTINUOUS
 10
3.673333
 20
0.171667
  0
VERTEX
  8
FOREGROUND
 62
     7
  6
CONTINUOUS
 10
3.618333
 20
0.138333
  0
VERTEX
  8
FOREGROUND
 62
     7
  6
CONTINUOUS
 10
3.560000
 20
0.110000
  0
VERTEX
  8
FOREGROUND
 62
     7
  6
CONTINUOUS
 10
3.498333
 20
0.088333
  0
VERTEX
  8
FOREGROUND
 62
     7
  6
CONTINUOUS
 10
3.435000
 20
0.071667
  0
VERTEX
  8
FOREGROUND
 62
     7
  6
CONTINUOUS
 10
3.401667
 20
0.066667
  0
VERTEX
  8
FOREGROUND
 62
     7
  6
CONTINUOUS
 10
3.368333
 20
0.061667
  0
VERTEX
  8
FOREGROUND
 62
     7
  6
CONTINUOUS
 10
3.335000
 20
0.058333
  0
VERTEX
  8
FOREGROUND
 62
     7
  6
CONTINUOUS
 10
3.300000
 20
0.058333
  0
VERTEX
  8
FOREGROUND
 62
     7
  6
CONTINUOUS
 10
0.718333
 20
0.058333
  0
VERTEX
  8
FOREGROUND
 62
     7
  6
CONTINUOUS
 10
0.683333
 20
0.058333
  0
VERTEX
  8
FOREGROUND
 62
     7
  6
CONTINUOUS
 10
0.650000
 20
0.061667
  0
VERTEX
  8
FOREGROUND
 62
     7
  6
CONTINUOUS
 10
0.616667
 20
0.066667
  0
VERTEX
  8
FOREGROUND
 62
     7
  6
CONTINUOUS
 10
0.583333
 20
0.071667
  0
VERTEX
  8
FOREGROUND
 62
     7
  6
CONTINUOUS
 10
0.520000
 20
0.088333
  0
VERTEX
  8
FOREGROUND
 62
     7
  6
CONTINUOUS
 10
0.458333
 20
0.110000
  0
VERTEX
  8
FOREGROUND
 62
     7
  6
CONTINUOUS
 10
0.400000
 20
0.138333
  0
VERTEX
  8
FOREGROUND
 62
     7
  6
CONTINUOUS
 10
0.345000
 20
0.171667
  0
VERTEX
  8
FOREGROUND
 62
     7
  6
CONTINUOUS
 10
0.293333
 20
0.210000
  0
VERTEX
  8
FOREGROUND
 62
     7
  6
CONTINUOUS
 10
0.246667
 20
0.253333
  0
VERTEX
  8
FOREGROUND
 62
     7
  6
CONTINUOUS
 10
0.203333
 20
0.301667
  0
VERTEX
  8
FOREGROUND
 62
     7
  6
CONTINUOUS
 10
0.165000
 20
0.353333
  0
VERTEX
  8
FOREGROUND
 62
     7
  6
CONTINUOUS
 10
0.131667
 20
0.408333
  0
VERTEX
  8
FOREGROUND
 62
     7
  6
CONTINUOUS
 10
0.103333
 20
0.466667
  0
VERTEX
  8
FOREGROUND
 62
     7
  6
CONTINUOUS
 10
0.080000
 20
0.528333
  0
VERTEX
  8
FOREGROUND
 62
     7
  6
CONTINUOUS
 10
0.063333
 20
0.591667
  0
VERTEX
  8
FOREGROUND
 62
     7
  6
CONTINUOUS
 10
0.058333
 20
0.625000
  0
VERTEX
  8
FOREGROUND
 62
     7
  6
CONTINUOUS
 10
0.053333
 20
0.658333
  0
VERTEX
  8
FOREGROUND
 62
     7
  6
CONTINUOUS
 10
0.051667
 20
0.691667
  0
VERTEX
  8
FOREGROUND
 62
     7
  6
CONTINUOUS
 10
0.050000
 20
0.726667
  0
VERTEX
  8
FOREGROUND
 62
     7
  6
CONTINUOUS
 10
0.050000
 20
2.733333
  0
VERTEX
  8
FOREGROUND
 62
     7
  6
CONTINUOUS
 10
0.051667
 20
2.768333
  0
VERTEX
  8
FOREGROUND
 62
     7
  6
CONTINUOUS
 10
0.053333
 20
2.801667
  0
VERTEX
  8
FOREGROUND
 62
     7
  6
CONTINUOUS
 10
0.058333
 20
2.835000
  0
VERTEX
  8
FOREGROUND
 62
     7
  6
CONTINUOUS
 10
0.063333
 20
2.868333
  0
VERTEX
  8
FOREGROUND
 62
     7
  6
CONTINUOUS
 10
0.080000
 20
2.931667
  0
VERTEX
  8
FOREGROUND
 62
     7
  6
CONTINUOUS
 10
0.103333
 20
2.993333
  0
VERTEX
  8
FOREGROUND
 62
     7
  6
CONTINUOUS
 10
0.131667
 20
3.051667
  0
VERTEX
  8
FOREGROUND
 62
     7
  6
CONTINUOUS
 10
0.165000
 20
3.106667
  0
VERTEX
  8
FOREGROUND
 62
     7
  6
CONTINUOUS
 10
0.203333
 20
3.158333
  0
VERTEX
  8
FOREGROUND
 62
     7
  6
CONTINUOUS
 10
0.246667
 20
3.205000
  0
VERTEX
  8
FOREGROUND
 62
     7
  6
CONTINUOUS
 10
0.293333
 20
3.248333
  0
VERTEX
  8
FOREGROUND
 62
     7
  6
CONTINUOUS
 10
0.345000
 20
3.286667
  0
VERTEX
  8
FOREGROUND
 62
     7
  6
CONTINUOUS
 10
0.400000
 20
3.320000
  0
VERTEX
  8
FOREGROUND
 62
     7
  6
CONTINUOUS
 10
0.458333
 20
3.348333
  0
VERTEX
  8
FOREGROUND
 62
     7
  6
CONTINUOUS
 10
0.520000
 20
3.371667
  0
VERTEX
  8
FOREGROUND
 62
     7
  6
CONTINUOUS
 10
0.583333
 20
3.388333
  0
VERTEX
  8
FOREGROUND
 62
     7
  6
CONTINUOUS
 10
0.616667
 20
3.393333
  0
VERTEX
  8
FOREGROUND
 62
     7
  6
CONTINUOUS
 10
0.650000
 20
3.398333
  0
VERTEX
  8
FOREGROUND
 62
     7
  6
CONTINUOUS
 10
0.683333
 20
3.400000
  0
SEQEND
  8
0
  0
POLYLINE
  8
FOREGROUND
  6
CONTINUOUS
 66
     1
 40
0.010000
 41
0.010000
 70
     1
  0
VERTEX
  8
FOREGROUND
  6
CONTINUOUS
 10
0.718333
 20
3.401667
  0
VERTEX
  8
FOREGROUND
  6
CONTINUOUS
 10
3.300000
 20
3.401667
  0
VERTEX
  8
FOREGROUND
  6
CONTINUOUS
 10
3.335000
 20
3.400000
  0
VERTEX
  8
FOREGROUND
  6
CONTINUOUS
 10
3.368333
 20
3.398333
  0
VERTEX
  8
FOREGROUND
  6
CONTINUOUS
 10
3.401667
 20
3.393333
  0
VERTEX
  8
FOREGROUND
  6
CONTINUOUS
 10
3.435000
 20
3.388333
  0
VERTEX
  8
FOREGROUND
  6
CONTINUOUS
 10
3.498333
 20
3.371667
  0
VERTEX
  8
FOREGROUND
  6
CONTINUOUS
 10
3.560000
 20
3.348333
  0
VERTEX
  8
FOREGROUND
  6
CONTINUOUS
 10
3.618333
 20
3.320000
  0
VERTEX
  8
FOREGROUND
  6
CONTINUOUS
 10
3.673333
 20
3.286667
  0
VERTEX
  8
FOREGROUND
  6
CONTINUOUS
 10
3.725000
 20
3.248333
  0
VERTEX
  8
FOREGROUND
  6
CONTINUOUS
 10
3.773333
 20
3.205000
  0
VERTEX
  8
FOREGROUND
  6
CONTINUOUS
 10
3.816667
 20
3.158333
  0
VERTEX
  8
FOREGROUND
  6
CONTINUOUS
 10
3.855000
 20
3.106667
  0
VERTEX
  8
FOREGROUND
  6
CONTINUOUS
 10
3.888333
 20
3.051667
  0
VERTEX
  8
FOREGROUND
  6
CONTINUOUS
 10
3.916667
 20
2.993333
  0
VERTEX
  8
FOREGROUND
  6
CONTINUOUS
 10
3.938333
 20
2.931667
  0
VERTEX
  8
FOREGROUND
  6
CONTINUOUS
 10
3.955000
 20
2.868333
  0
VERTEX
  8
FOREGROUND
  6
CONTINUOUS
 10
3.960000
 20
2.835000
  0
VERTEX
  8
FOREGROUND
  6
CONTINUOUS
 10
3.965000
 20
2.801667
  0
VERTEX
  8
FOREGROUND
  6
CONTINUOUS
 10
3.968333
 20
2.768333
  0
VERTEX
  8
FOREGROUND
  6
CONTINUOUS
 10
3.968333
 20
2.733333
  0
VERTEX
  8
FOREGROUND
  6
CONTINUOUS
 10
3.968333
 20
0.726667
  0
VERTEX
  8
FOREGROUND
  6
CONTINUOUS
 10
3.968333
 20
0.691667
  0
VERTEX
  8
FOREGROUND
  6
CONTINUOUS
 10
3.965000
 20
0.658333
  0
VERTEX
  8
FOREGROUND
  6
CONTINUOUS
 10
3.960000
 20
0.625000
  0
VERTEX
  8
FOREGROUND
  6
CONTINUOUS
 10
3.955000
 20
0.591667
  0
VERTEX
  8
FOREGROUND
  6
CONTINUOUS
 10
3.938333
 20
0.528333
  0
VERTEX
  8
FOREGROUND
  6
CONTINUOUS
 10
3.916667
 20
0.466667
  0
VERTEX
  8
FOREGROUND
  6
CONTINUOUS
 10
3.888333
 20
0.408333
  0
VERTEX
  8
FOREGROUND
  6
CONTINUOUS
 10
3.855000
 20
0.353333
  0
VERTEX
  8
FOREGROUND
  6
CONTINUOUS
 10
3.816667
 20
0.301667
  0
VERTEX
  8
FOREGROUND
  6
CONTINUOUS
 10
3.773333
 20
0.253333
  0
VERTEX
  8
FOREGROUND
  6
CONTINUOUS
 10
3.725000
 20
0.210000
  0
VERTEX
  8
FOREGROUND
  6
CONTINUOUS
 10
3.673333
 20
0.171667
  0
VERTEX
  8
FOREGROUND
  6
CONTINUOUS
 10
3.618333
 20
0.138333
  0
VERTEX
  8
FOREGROUND
  6
CONTINUOUS
 10
3.560000
 20
0.110000
  0
VERTEX
  8
FOREGROUND
  6
CONTINUOUS
 10
3.498333
 20
0.088333
  0
VERTEX
  8
FOREGROUND
  6
CONTINUOUS
 10
3.435000
 20
0.071667
  0
VERTEX
  8
FOREGROUND
  6
CONTINUOUS
 10
3.401667
 20
0.066667
  0
VERTEX
  8
FOREGROUND
  6
CONTINUOUS
 10
3.368333
 20
0.061667
  0
VERTEX
  8
FOREGROUND
  6
CONTINUOUS
 10
3.335000
 20
0.058333
  0
VERTEX
  8
FOREGROUND
  6
CONTINUOUS
 10
3.300000
 20
0.058333
  0
VERTEX
  8
FOREGROUND
  6
CONTINUOUS
 10
0.718333
 20
0.058333
  0
VERTEX
  8
FOREGROUND
  6
CONTINUOUS
 10
0.683333
 20
0.058333
  0
VERTEX
  8
FOREGROUND
  6
CONTINUOUS
 10
0.650000
 20
0.061667
  0
VERTEX
  8
FOREGROUND
  6
CONTINUOUS
 10
0.616667
 20
0.066667
  0
VERTEX
  8
FOREGROUND
  6
CONTINUOUS
 10
0.583333
 20
0.071667
  0
VERTEX
  8
FOREGROUND
  6
CONTINUOUS
 10
0.520000
 20
0.088333
  0
VERTEX
  8
FOREGROUND
  6
CONTINUOUS
 10
0.458333
 20
0.110000
  0
VERTEX
  8
FOREGROUND
  6
CONTINUOUS
 10
0.400000
 20
0.138333
  0
VERTEX
  8
FOREGROUND
  6
CONTINUOUS
 10
0.345000
 20
0.171667
  0
VERTEX
  8
FOREGROUND
  6
CONTINUOUS
 10
0.293333
 20
0.210000
  0
VERTEX
  8
FOREGROUND
  6
CONTINUOUS
 10
0.246667
 20
0.253333
  0
VERTEX
  8
FOREGROUND
  6
CONTINUOUS
 10
0.203333
 20
0.301667
  0
VERTEX
  8
FOREGROUND
  6
CONTINUOUS
 10
0.165000
 20
0.353333
  0
VERTEX
  8
FOREGROUND
  6
CONTINUOUS
 10
0.131667
 20
0.408333
  0
VERTEX
  8
FOREGROUND
  6
CONTINUOUS
 10
0.103333
 20
0.466667
  0
VERTEX
  8
FOREGROUND
  6
CONTINUOUS
 10
0.080000
 20
0.528333
  0
VERTEX
  8
FOREGROUND
  6
CONTINUOUS
 10
0.063333
 20
0.591667
  0
VERTEX
  8
FOREGROUND
  6
CONTINUOUS
 10
0.058333
 20
0.625000
  0
VERTEX
  8
FOREGROUND
  6
CONTINUOUS
 10
0.053333
 20
0.658333
  0
VERTEX
  8
FOREGROUND
  6
CONTINUOUS
 10
0.051667
 20
0.691667
  0
VERTEX
  8
FOREGROUND
  6
CONTINUOUS
 10
0.050000
 20
0.726667
  0
VERTEX
  8
FOREGROUND
  6
CONTINUOUS
 10
0.050000
 20
2.733333
  0
VERTEX
  8
FOREGROUND
  6
CONTINUOUS
 10
0.051667
 20
2.768333
  0
VERTEX
  8
FOREGROUND
  6
CONTINUOUS
 10
0.053333
 20
2.801667
  0
VERTEX
  8
FOREGROUND
  6
CONTINUOUS
 10
0.058333
 20
2.835000
  0
VERTEX
  8
FOREGROUND
  6
CONTINUOUS
 10
0.063333
 20
2.868333
  0
VERTEX
  8
FOREGROUND
  6
CONTINUOUS
 10
0.080000
 20
2.931667
  0
VERTEX
  8
FOREGROUND
  6
CONTINUOUS
 10
0.103333
 20
2.993333
  0
VERTEX
  8
FOREGROUND
  6
CONTINUOUS
 10
0.131667
 20
3.051667
  0
VERTEX
  8
FOREGROUND
  6
CONTINUOUS
 10
0.165000
 20
3.106667
  0
VERTEX
  8
FOREGROUND
  6
CONTINUOUS
 10
0.203333
 20
3.158333
  0
VERTEX
  8
FOREGROUND
  6
CONTINUOUS
 10
0.246667
 20
3.205000
  0
VERTEX
  8
FOREGROUND
  6
CONTINUOUS
 10
0.293333
 20
3.248333
  0
VERTEX
  8
FOREGROUND
  6
CONTINUOUS
 10
0.345000
 20
3.286667
  0
VERTEX
  8
FOREGROUND
  6
CONTINUOUS
 10
0.400000
 20
3.320000
  0
VERTEX
  8
FOREGROUND
  6
CONTINUOUS
 10
0.458333
 20
3.348333
  0
VERTEX
  8
FOREGROUND
  6
CONTINUOUS
 10
0.520000
 20
3.371667
  0
VERTEX
  8
FOREGROUND
  6
CONTINUOUS
 10
0.583333
 20
3.388333
  0
VERTEX
  8
FOREGROUND
  6
CONTINUOUS
 10
0.616667
 20
3.393333
  0
VERTEX
  8
FOREGROUND
  6
CONTINUOUS
 10
0.650000
 20
3.398333
  0
VERTEX
  8
FOREGROUND
  6
CONTINUOUS
 10
0.683333
 20
3.400000
  0
SEQEND
  8
0
  0
ENDSEC
  0
EOF
