  0
SECTION
  2
HEADER
  9
$ACADVER
  1
AC1006
  9
$EXTMIN
 10
0.000000
 20
0.000000
  9
$EXTMAX
 10
4.160000
 20
3.386667
  9
$LTSCALE
 40
0.166667
  9
$PDMODE
 70
    35
  9
$PDSIZE
 40
0.133333
  0
ENDSEC
  0
SECTION
  2
TABLES
  0
TABLE
  2
LTYPE
 70
     9
  0
LTYPE
  2
CONTINUOUS
 70
    64
  3
Solid line
 72
    65
 73
     0
 40
0.000000
  0
LTYPE
  2
DASHED
 70
    64
  3
__ __ __ __ __ __ __ __ __ __ __ __ __ __ __
 72
    65
 73
     2
 40
0.001250
 49
0.000833
 49
-0.000417
  0
LTYPE
  2
HIDDEN
 70
    64
  3
 _ _ _ _ _ _ _ _ _ _ _ _ _ _ _ _ _ _ _ _ _ _
 72
    65
 73
     2
 40
0.000625
 49
0.000417
 49
-0.000208
  0
LTYPE
  2
CENTER
 70
    64
  3
____ _ ____ _ ____ _ ____ _ ____ _ ____ _ ____
 72
    65
 73
     4
 40
0.003333
 49
0.002083
 49
-0.000417
 49
0.000417
 49
-0.000417
  0
LTYPE
  2
PHANTOM
 70
    64
  3
_____ _ _ _____ _ _ _____ _ _ _____ _ _ ____
 72
    65
 73
     6
 40
0.004167
 49
0.002083
 49
-0.000417
 49
0.000417
 49
-0.000417
 49
0.000417
 49
-0.000417
  0
LTYPE
  2
DOT
 70
    64
  3
...............................................
 72
    65
 73
     2
 40
0.000417
 49
0.000000
 49
-0.000417
  0
LTYPE
  2
DASHDOT
 70
    64
  3
__ . __ . __ . __ . __ . __ . __ . __ . __ . __
 72
    65
 73
     4
 40
0.001667
 49
0.000833
 49
-0.000417
 49
0.000000
 49
-0.000417
  0
LTYPE
  2
BORDER
 70
    64
  3
__ __ . __ __ . __ __ . __ __ . __ __ . __ __
 72
    65
 73
     6
 40
0.002917
 49
0.000833
 49
-0.000417
 49
0.000833
 49
-0.000417
 49
0.000000
 49
-0.000417
  0
LTYPE
  2
DIVIDE
 70
    64
  3
__ . . __ . . __ . . __ . . __ . . __ . . __
 72
    65
 73
     6
 40
0.002083
 49
0.000833
 49
-0.000417
 49
0.000000
 49
-0.000417
 49
0.000000
 49
-0.000417
  0
LTYPE
  2
DOTDOT
 70
    64
  3
 . .  . .  . .  . .  . .  . . 
 72
    65
 73
     5
 40
0.000917
 49
-0.000417
 49
0.000000
 49
-0.000417
 49
0.000000
 49
-0.000417
  0
ENDTAB
  0
TABLE
  2
STYLE
 70
     2
  0
STYLE
 70
     0
  2
SN0
 40
0.000000
 41
0.001667
 50
0.000000
 71
     0
 42
0.000000
  3
ROMAND
  0
STYLE
 70
    68
  2
SV0
 40
0.000000
 41
0.001667
 50
0.000000
 71
     0
 42
0.000000
  3
ROMAND
  0
ENDTAB
  0
TABLE
  2
LAYER
 70
     2
  0
LAYER
  2
FOREGROUND
 70
    64
 62
     7
  6
CONTINUOUS
  0
LAYER
  2
BACKGROUND
 70
    65
 62
    -7
  6
CONTINUOUS
  0
ENDTAB
  0
ENDSEC
  0
SECTION
  2
ENTITIES
  0
POLYLINE
  8
FOREGROUND
 62
     7
  6
CONTINUOUS
 66
     1
 40
0.000000
 41
0.000000
 70
     1
  0
VERTEX
  8
FOREGROUND
 62
     7
  6
CONTINUOUS
 10
0.683333
 20
3.228333
  0
VERTEX
  8
FOREGROUND
 62
     7
  6
CONTINUOUS
 10
3.358333
 20
3.228333
  0
VERTEX
  8
FOREGROUND
 62
     7
  6
CONTINUOUS
 10
3.423333
 20
3.225000
  0
VERTEX
  8
FOREGROUND
 62
     7
  6
CONTINUOUS
 10
3.486667
 20
3.215000
  0
VERTEX
  8
FOREGROUND
 62
     7
  6
CONTINUOUS
 10
3.546667
 20
3.200000
  0
VERTEX
  8
FOREGROUND
 62
     7
  6
CONTINUOUS
 10
3.605000
 20
3.178333
  0
VERTEX
  8
FOREGROUND
 62
     7
  6
CONTINUOUS
 10
3.660000
 20
3.151667
  0
VERTEX
  8
FOREGROUND
 62
     7
  6
CONTINUOUS
 10
3.713333
 20
3.120000
  0
VERTEX
  8
FOREGROUND
 62
     7
  6
CONTINUOUS
 10
3.761667
 20
3.083333
  0
VERTEX
  8
FOREGROUND
 62
     7
  6
CONTINUOUS
 10
3.806667
 20
3.043333
  0
VERTEX
  8
FOREGROUND
 62
     7
  6
CONTINUOUS
 10
3.846667
 20
2.998333
  0
VERTEX
  8
FOREGROUND
 62
     7
  6
CONTINUOUS
 10
3.883333
 20
2.948333
  0
VERTEX
  8
FOREGROUND
 62
     7
  6
CONTINUOUS
 10
3.915000
 20
2.896667
  0
VERTEX
  8
FOREGROUND
 62
     7
  6
CONTINUOUS
 10
3.941667
 20
2.841667
  0
VERTEX
  8
FOREGROUND
 62
     7
  6
CONTINUOUS
 10
3.963333
 20
2.783333
  0
VERTEX
  8
FOREGROUND
 62
     7
  6
CONTINUOUS
 10
3.978333
 20
2.721667
  0
VERTEX
  8
FOREGROUND
 62
     7
  6
CONTINUOUS
 10
3.988333
 20
2.660000
  0
VERTEX
  8
FOREGROUND
 62
     7
  6
CONTINUOUS
 10
3.991667
 20
2.595000
  0
VERTEX
  8
FOREGROUND
 62
     7
  6
CONTINUOUS
 10
3.991667
 20
0.691667
  0
VERTEX
  8
FOREGROUND
 62
     7
  6
CONTINUOUS
 10
3.988333
 20
0.626667
  0
VERTEX
  8
FOREGROUND
 62
     7
  6
CONTINUOUS
 10
3.978333
 20
0.563333
  0
VERTEX
  8
FOREGROUND
 62
     7
  6
CONTINUOUS
 10
3.963333
 20
0.503333
  0
VERTEX
  8
FOREGROUND
 62
     7
  6
CONTINUOUS
 10
3.941667
 20
0.445000
  0
VERTEX
  8
FOREGROUND
 62
     7
  6
CONTINUOUS
 10
3.915000
 20
0.390000
  0
VERTEX
  8
FOREGROUND
 62
     7
  6
CONTINUOUS
 10
3.883333
 20
0.336667
  0
VERTEX
  8
FOREGROUND
 62
     7
  6
CONTINUOUS
 10
3.846667
 20
0.288333
  0
VERTEX
  8
FOREGROUND
 62
     7
  6
CONTINUOUS
 10
3.806667
 20
0.243333
  0
VERTEX
  8
FOREGROUND
 62
     7
  6
CONTINUOUS
 10
3.761667
 20
0.203333
  0
VERTEX
  8
FOREGROUND
 62
     7
  6
CONTINUOUS
 10
3.713333
 20
0.166667
  0
VERTEX
  8
FOREGROUND
 62
     7
  6
CONTINUOUS
 10
3.660000
 20
0.135000
  0
VERTEX
  8
FOREGROUND
 62
     7
  6
CONTINUOUS
 10
3.605000
 20
0.108333
  0
VERTEX
  8
FOREGROUND
 62
     7
  6
CONTINUOUS
 10
3.546667
 20
0.086667
  0
VERTEX
  8
FOREGROUND
 62
     7
  6
CONTINUOUS
 10
3.486667
 20
0.071667
  0
VERTEX
  8
FOREGROUND
 62
     7
  6
CONTINUOUS
 10
3.423333
 20
0.061667
  0
VERTEX
  8
FOREGROUND
 62
     7
  6
CONTINUOUS
 10
3.358333
 20
0.058333
  0
VERTEX
  8
FOREGROUND
 62
     7
  6
CONTINUOUS
 10
0.683333
 20
0.058333
  0
VERTEX
  8
FOREGROUND
 62
     7
  6
CONTINUOUS
 10
0.618333
 20
0.061667
  0
VERTEX
  8
FOREGROUND
 62
     7
  6
CONTINUOUS
 10
0.556667
 20
0.071667
  0
VERTEX
  8
FOREGROUND
 62
     7
  6
CONTINUOUS
 10
0.495000
 20
0.086667
  0
VERTEX
  8
FOREGROUND
 62
     7
  6
CONTINUOUS
 10
0.436667
 20
0.108333
  0
VERTEX
  8
FOREGROUND
 62
     7
  6
CONTINUOUS
 10
0.381667
 20
0.135000
  0
VERTEX
  8
FOREGROUND
 62
     7
  6
CONTINUOUS
 10
0.330000
 20
0.166667
  0
VERTEX
  8
FOREGROUND
 62
     7
  6
CONTINUOUS
 10
0.280000
 20
0.203333
  0
VERTEX
  8
FOREGROUND
 62
     7
  6
CONTINUOUS
 10
0.235000
 20
0.243333
  0
VERTEX
  8
FOREGROUND
 62
     7
  6
CONTINUOUS
 10
0.195000
 20
0.288333
  0
VERTEX
  8
FOREGROUND
 62
     7
  6
CONTINUOUS
 10
0.158333
 20
0.336667
  0
VERTEX
  8
FOREGROUND
 62
     7
  6
CONTINUOUS
 10
0.126667
 20
0.390000
  0
VERTEX
  8
FOREGROUND
 62
     7
  6
CONTINUOUS
 10
0.100000
 20
0.445000
  0
VERTEX
  8
FOREGROUND
 62
     7
  6
CONTINUOUS
 10
0.078333
 20
0.503333
  0
VERTEX
  8
FOREGROUND
 62
     7
  6
CONTINUOUS
 10
0.063333
 20
0.563333
  0
VERTEX
  8
FOREGROUND
 62
     7
  6
CONTINUOUS
 10
0.053333
 20
0.626667
  0
VERTEX
  8
FOREGROUND
 62
     7
  6
CONTINUOUS
 10
0.050000
 20
0.691667
  0
VERTEX
  8
FOREGROUND
 62
     7
  6
CONTINUOUS
 10
0.050000
 20
2.595000
  0
VERTEX
  8
FOREGROUND
 62
     7
  6
CONTINUOUS
 10
0.053333
 20
2.660000
  0
VERTEX
  8
FOREGROUND
 62
     7
  6
CONTINUOUS
 10
0.063333
 20
2.721667
  0
VERTEX
  8
FOREGROUND
 62
     7
  6
CONTINUOUS
 10
0.078333
 20
2.783333
  0
VERTEX
  8
FOREGROUND
 62
     7
  6
CONTINUOUS
 10
0.100000
 20
2.841667
  0
VERTEX
  8
FOREGROUND
 62
     7
  6
CONTINUOUS
 10
0.126667
 20
2.896667
  0
VERTEX
  8
FOREGROUND
 62
     7
  6
CONTINUOUS
 10
0.158333
 20
2.948333
  0
VERTEX
  8
FOREGROUND
 62
     7
  6
CONTINUOUS
 10
0.195000
 20
2.998333
  0
VERTEX
  8
FOREGROUND
 62
     7
  6
CONTINUOUS
 10
0.235000
 20
3.043333
  0
VERTEX
  8
FOREGROUND
 62
     7
  6
CONTINUOUS
 10
0.280000
 20
3.083333
  0
VERTEX
  8
FOREGROUND
 62
     7
  6
CONTINUOUS
 10
0.330000
 20
3.120000
  0
VERTEX
  8
FOREGROUND
 62
     7
  6
CONTINUOUS
 10
0.381667
 20
3.151667
  0
VERTEX
  8
FOREGROUND
 62
     7
  6
CONTINUOUS
 10
0.436667
 20
3.178333
  0
VERTEX
  8
FOREGROUND
 62
     7
  6
CONTINUOUS
 10
0.495000
 20
3.200000
  0
VERTEX
  8
FOREGROUND
 62
     7
  6
CONTINUOUS
 10
0.556667
 20
3.215000
  0
VERTEX
  8
FOREGROUND
 62
     7
  6
CONTINUOUS
 10
0.618333
 20
3.225000
  0
SEQEND
  8
0
  0
POLYLINE
  8
FOREGROUND
  6
CONTINUOUS
 66
     1
 40
0.010000
 41
0.010000
 70
     1
  0
VERTEX
  8
FOREGROUND
  6
CONTINUOUS
 10
0.683333
 20
3.228333
  0
VERTEX
  8
FOREGROUND
  6
CONTINUOUS
 10
3.358333
 20
3.228333
  0
VERTEX
  8
FOREGROUND
  6
CONTINUOUS
 10
3.423333
 20
3.225000
  0
VERTEX
  8
FOREGROUND
  6
CONTINUOUS
 10
3.486667
 20
3.215000
  0
VERTEX
  8
FOREGROUND
  6
CONTINUOUS
 10
3.546667
 20
3.200000
  0
VERTEX
  8
FOREGROUND
  6
CONTINUOUS
 10
3.605000
 20
3.178333
  0
VERTEX
  8
FOREGROUND
  6
CONTINUOUS
 10
3.660000
 20
3.151667
  0
VERTEX
  8
FOREGROUND
  6
CONTINUOUS
 10
3.713333
 20
3.120000
  0
VERTEX
  8
FOREGROUND
  6
CONTINUOUS
 10
3.761667
 20
3.083333
  0
VERTEX
  8
FOREGROUND
  6
CONTINUOUS
 10
3.806667
 20
3.043333
  0
VERTEX
  8
FOREGROUND
  6
CONTINUOUS
 10
3.846667
 20
2.998333
  0
VERTEX
  8
FOREGROUND
  6
CONTINUOUS
 10
3.883333
 20
2.948333
  0
VERTEX
  8
FOREGROUND
  6
CONTINUOUS
 10
3.915000
 20
2.896667
  0
VERTEX
  8
FOREGROUND
  6
CONTINUOUS
 10
3.941667
 20
2.841667
  0
VERTEX
  8
FOREGROUND
  6
CONTINUOUS
 10
3.963333
 20
2.783333
  0
VERTEX
  8
FOREGROUND
  6
CONTINUOUS
 10
3.978333
 20
2.721667
  0
VERTEX
  8
FOREGROUND
  6
CONTINUOUS
 10
3.988333
 20
2.660000
  0
VERTEX
  8
FOREGROUND
  6
CONTINUOUS
 10
3.991667
 20
2.595000
  0
VERTEX
  8
FOREGROUND
  6
CONTINUOUS
 10
3.991667
 20
0.691667
  0
VERTEX
  8
FOREGROUND
  6
CONTINUOUS
 10
3.988333
 20
0.626667
  0
VERTEX
  8
FOREGROUND
  6
CONTINUOUS
 10
3.978333
 20
0.563333
  0
VERTEX
  8
FOREGROUND
  6
CONTINUOUS
 10
3.963333
 20
0.503333
  0
VERTEX
  8
FOREGROUND
  6
CONTINUOUS
 10
3.941667
 20
0.445000
  0
VERTEX
  8
FOREGROUND
  6
CONTINUOUS
 10
3.915000
 20
0.390000
  0
VERTEX
  8
FOREGROUND
  6
CONTINUOUS
 10
3.883333
 20
0.336667
  0
VERTEX
  8
FOREGROUND
  6
CONTINUOUS
 10
3.846667
 20
0.288333
  0
VERTEX
  8
FOREGROUND
  6
CONTINUOUS
 10
3.806667
 20
0.243333
  0
VERTEX
  8
FOREGROUND
  6
CONTINUOUS
 10
3.761667
 20
0.203333
  0
VERTEX
  8
FOREGROUND
  6
CONTINUOUS
 10
3.713333
 20
0.166667
  0
VERTEX
  8
FOREGROUND
  6
CONTINUOUS
 10
3.660000
 20
0.135000
  0
VERTEX
  8
FOREGROUND
  6
CONTINUOUS
 10
3.605000
 20
0.108333
  0
VERTEX
  8
FOREGROUND
  6
CONTINUOUS
 10
3.546667
 20
0.086667
  0
VERTEX
  8
FOREGROUND
  6
CONTINUOUS
 10
3.486667
 20
0.071667
  0
VERTEX
  8
FOREGROUND
  6
CONTINUOUS
 10
3.423333
 20
0.061667
  0
VERTEX
  8
FOREGROUND
  6
CONTINUOUS
 10
3.358333
 20
0.058333
  0
VERTEX
  8
FOREGROUND
  6
CONTINUOUS
 10
0.683333
 20
0.058333
  0
VERTEX
  8
FOREGROUND
  6
CONTINUOUS
 10
0.618333
 20
0.061667
  0
VERTEX
  8
FOREGROUND
  6
CONTINUOUS
 10
0.556667
 20
0.071667
  0
VERTEX
  8
FOREGROUND
  6
CONTINUOUS
 10
0.495000
 20
0.086667
  0
VERTEX
  8
FOREGROUND
  6
CONTINUOUS
 10
0.436667
 20
0.108333
  0
VERTEX
  8
FOREGROUND
  6
CONTINUOUS
 10
0.381667
 20
0.135000
  0
VERTEX
  8
FOREGROUND
  6
CONTINUOUS
 10
0.330000
 20
0.166667
  0
VERTEX
  8
FOREGROUND
  6
CONTINUOUS
 10
0.280000
 20
0.203333
  0
VERTEX
  8
FOREGROUND
  6
CONTINUOUS
 10
0.235000
 20
0.243333
  0
VERTEX
  8
FOREGROUND
  6
CONTINUOUS
 10
0.195000
 20
0.288333
  0
VERTEX
  8
FOREGROUND
  6
CONTINUOUS
 10
0.158333
 20
0.336667
  0
VERTEX
  8
FOREGROUND
  6
CONTINUOUS
 10
0.126667
 20
0.390000
  0
VERTEX
  8
FOREGROUND
  6
CONTINUOUS
 10
0.100000
 20
0.445000
  0
VERTEX
  8
FOREGROUND
  6
CONTINUOUS
 10
0.078333
 20
0.503333
  0
VERTEX
  8
FOREGROUND
  6
CONTINUOUS
 10
0.063333
 20
0.563333
  0
VERTEX
  8
FOREGROUND
  6
CONTINUOUS
 10
0.053333
 20
0.626667
  0
VERTEX
  8
FOREGROUND
  6
CONTINUOUS
 10
0.050000
 20
0.691667
  0
VERTEX
  8
FOREGROUND
  6
CONTINUOUS
 10
0.050000
 20
2.595000
  0
VERTEX
  8
FOREGROUND
  6
CONTINUOUS
 10
0.053333
 20
2.660000
  0
VERTEX
  8
FOREGROUND
  6
CONTINUOUS
 10
0.063333
 20
2.721667
  0
VERTEX
  8
FOREGROUND
  6
CONTINUOUS
 10
0.078333
 20
2.783333
  0
VERTEX
  8
FOREGROUND
  6
CONTINUOUS
 10
0.100000
 20
2.841667
  0
VERTEX
  8
FOREGROUND
  6
CONTINUOUS
 10
0.126667
 20
2.896667
  0
VERTEX
  8
FOREGROUND
  6
CONTINUOUS
 10
0.158333
 20
2.948333
  0
VERTEX
  8
FOREGROUND
  6
CONTINUOUS
 10
0.195000
 20
2.998333
  0
VERTEX
  8
FOREGROUND
  6
CONTINUOUS
 10
0.235000
 20
3.043333
  0
VERTEX
  8
FOREGROUND
  6
CONTINUOUS
 10
0.280000
 20
3.083333
  0
VERTEX
  8
FOREGROUND
  6
CONTINUOUS
 10
0.330000
 20
3.120000
  0
VERTEX
  8
FOREGROUND
  6
CONTINUOUS
 10
0.381667
 20
3.151667
  0
VERTEX
  8
FOREGROUND
  6
CONTINUOUS
 10
0.436667
 20
3.178333
  0
VERTEX
  8
FOREGROUND
  6
CONTINUOUS
 10
0.495000
 20
3.200000
  0
VERTEX
  8
FOREGROUND
  6
CONTINUOUS
 10
0.556667
 20
3.215000
  0
VERTEX
  8
FOREGROUND
  6
CONTINUOUS
 10
0.618333
 20
3.225000
  0
SEQEND
  8
0
  0
ENDSEC
  0
EOF
