  0
SECTION
  2
HEADER
  9
$ACADVER
  1
AC1006
  9
$EXTMIN
 10
0.000000
 20
0.000000
  9
$EXTMAX
 10
4.136667
 20
3.761667
  9
$LTSCALE
 40
0.166667
  9
$PDMODE
 70
    35
  9
$PDSIZE
 40
0.133333
  0
ENDSEC
  0
SECTION
  2
TABLES
  0
TABLE
  2
LTYPE
 70
     9
  0
LTYPE
  2
CONTINUOUS
 70
    64
  3
Solid line
 72
    65
 73
     0
 40
0.000000
  0
LTYPE
  2
DASHED
 70
    64
  3
__ __ __ __ __ __ __ __ __ __ __ __ __ __ __
 72
    65
 73
     2
 40
0.001250
 49
0.000833
 49
-0.000417
  0
LTYPE
  2
HIDDEN
 70
    64
  3
 _ _ _ _ _ _ _ _ _ _ _ _ _ _ _ _ _ _ _ _ _ _
 72
    65
 73
     2
 40
0.000625
 49
0.000417
 49
-0.000208
  0
LTYPE
  2
CENTER
 70
    64
  3
____ _ ____ _ ____ _ ____ _ ____ _ ____ _ ____
 72
    65
 73
     4
 40
0.003333
 49
0.002083
 49
-0.000417
 49
0.000417
 49
-0.000417
  0
LTYPE
  2
PHANTOM
 70
    64
  3
_____ _ _ _____ _ _ _____ _ _ _____ _ _ ____
 72
    65
 73
     6
 40
0.004167
 49
0.002083
 49
-0.000417
 49
0.000417
 49
-0.000417
 49
0.000417
 49
-0.000417
  0
LTYPE
  2
DOT
 70
    64
  3
...............................................
 72
    65
 73
     2
 40
0.000417
 49
0.000000
 49
-0.000417
  0
LTYPE
  2
DASHDOT
 70
    64
  3
__ . __ . __ . __ . __ . __ . __ . __ . __ . __
 72
    65
 73
     4
 40
0.001667
 49
0.000833
 49
-0.000417
 49
0.000000
 49
-0.000417
  0
LTYPE
  2
BORDER
 70
    64
  3
__ __ . __ __ . __ __ . __ __ . __ __ . __ __
 72
    65
 73
     6
 40
0.002917
 49
0.000833
 49
-0.000417
 49
0.000833
 49
-0.000417
 49
0.000000
 49
-0.000417
  0
LTYPE
  2
DIVIDE
 70
    64
  3
__ . . __ . . __ . . __ . . __ . . __ . . __
 72
    65
 73
     6
 40
0.002083
 49
0.000833
 49
-0.000417
 49
0.000000
 49
-0.000417
 49
0.000000
 49
-0.000417
  0
LTYPE
  2
DOTDOT
 70
    64
  3
 . .  . .  . .  . .  . .  . . 
 72
    65
 73
     5
 40
0.000917
 49
-0.000417
 49
0.000000
 49
-0.000417
 49
0.000000
 49
-0.000417
  0
ENDTAB
  0
TABLE
  2
STYLE
 70
     2
  0
STYLE
 70
     0
  2
SN0
 40
0.000000
 41
0.001667
 50
0.000000
 71
     0
 42
0.000000
  3
ROMAND
  0
STYLE
 70
    68
  2
SV0
 40
0.000000
 41
0.001667
 50
0.000000
 71
     0
 42
0.000000
  3
ROMAND
  0
ENDTAB
  0
TABLE
  2
LAYER
 70
     2
  0
LAYER
  2
FOREGROUND
 70
    64
 62
     7
  6
CONTINUOUS
  0
LAYER
  2
BACKGROUND
 70
    65
 62
    -7
  6
CONTINUOUS
  0
ENDTAB
  0
ENDSEC
  0
SECTION
  2
ENTITIES
  0
POLYLINE
  8
FOREGROUND
 62
     7
  6
CONTINUOUS
 66
     1
 40
0.000000
 41
0.000000
 70
     1
  0
VERTEX
  8
FOREGROUND
 62
     7
  6
CONTINUOUS
 10
0.758333
 20
3.603333
  0
VERTEX
  8
FOREGROUND
 62
     7
  6
CONTINUOUS
 10
3.260000
 20
3.603333
  0
VERTEX
  8
FOREGROUND
 62
     7
  6
CONTINUOUS
 10
3.296667
 20
3.601667
  0
VERTEX
  8
FOREGROUND
 62
     7
  6
CONTINUOUS
 10
3.333333
 20
3.600000
  0
VERTEX
  8
FOREGROUND
 62
     7
  6
CONTINUOUS
 10
3.368333
 20
3.595000
  0
VERTEX
  8
FOREGROUND
 62
     7
  6
CONTINUOUS
 10
3.403333
 20
3.588333
  0
VERTEX
  8
FOREGROUND
 62
     7
  6
CONTINUOUS
 10
3.436667
 20
3.581667
  0
VERTEX
  8
FOREGROUND
 62
     7
  6
CONTINUOUS
 10
3.470000
 20
3.571667
  0
VERTEX
  8
FOREGROUND
 62
     7
  6
CONTINUOUS
 10
3.536667
 20
3.546667
  0
VERTEX
  8
FOREGROUND
 62
     7
  6
CONTINUOUS
 10
3.598333
 20
3.518333
  0
VERTEX
  8
FOREGROUND
 62
     7
  6
CONTINUOUS
 10
3.656667
 20
3.481667
  0
VERTEX
  8
FOREGROUND
 62
     7
  6
CONTINUOUS
 10
3.710000
 20
3.441667
  0
VERTEX
  8
FOREGROUND
 62
     7
  6
CONTINUOUS
 10
3.761667
 20
3.395000
  0
VERTEX
  8
FOREGROUND
 62
     7
  6
CONTINUOUS
 10
3.806667
 20
3.345000
  0
VERTEX
  8
FOREGROUND
 62
     7
  6
CONTINUOUS
 10
3.848333
 20
3.290000
  0
VERTEX
  8
FOREGROUND
 62
     7
  6
CONTINUOUS
 10
3.883333
 20
3.231667
  0
VERTEX
  8
FOREGROUND
 62
     7
  6
CONTINUOUS
 10
3.913333
 20
3.170000
  0
VERTEX
  8
FOREGROUND
 62
     7
  6
CONTINUOUS
 10
3.936667
 20
3.105000
  0
VERTEX
  8
FOREGROUND
 62
     7
  6
CONTINUOUS
 10
3.946667
 20
3.071667
  0
VERTEX
  8
FOREGROUND
 62
     7
  6
CONTINUOUS
 10
3.953333
 20
3.038333
  0
VERTEX
  8
FOREGROUND
 62
     7
  6
CONTINUOUS
 10
3.960000
 20
3.003333
  0
VERTEX
  8
FOREGROUND
 62
     7
  6
CONTINUOUS
 10
3.965000
 20
2.966667
  0
VERTEX
  8
FOREGROUND
 62
     7
  6
CONTINUOUS
 10
3.968333
 20
2.931667
  0
VERTEX
  8
FOREGROUND
 62
     7
  6
CONTINUOUS
 10
3.968333
 20
2.895000
  0
VERTEX
  8
FOREGROUND
 62
     7
  6
CONTINUOUS
 10
3.968333
 20
0.766667
  0
VERTEX
  8
FOREGROUND
 62
     7
  6
CONTINUOUS
 10
3.968333
 20
0.730000
  0
VERTEX
  8
FOREGROUND
 62
     7
  6
CONTINUOUS
 10
3.965000
 20
0.693333
  0
VERTEX
  8
FOREGROUND
 62
     7
  6
CONTINUOUS
 10
3.960000
 20
0.658333
  0
VERTEX
  8
FOREGROUND
 62
     7
  6
CONTINUOUS
 10
3.953333
 20
0.623333
  0
VERTEX
  8
FOREGROUND
 62
     7
  6
CONTINUOUS
 10
3.946667
 20
0.590000
  0
VERTEX
  8
FOREGROUND
 62
     7
  6
CONTINUOUS
 10
3.936667
 20
0.556667
  0
VERTEX
  8
FOREGROUND
 62
     7
  6
CONTINUOUS
 10
3.913333
 20
0.490000
  0
VERTEX
  8
FOREGROUND
 62
     7
  6
CONTINUOUS
 10
3.883333
 20
0.428333
  0
VERTEX
  8
FOREGROUND
 62
     7
  6
CONTINUOUS
 10
3.848333
 20
0.370000
  0
VERTEX
  8
FOREGROUND
 62
     7
  6
CONTINUOUS
 10
3.806667
 20
0.316667
  0
VERTEX
  8
FOREGROUND
 62
     7
  6
CONTINUOUS
 10
3.761667
 20
0.265000
  0
VERTEX
  8
FOREGROUND
 62
     7
  6
CONTINUOUS
 10
3.710000
 20
0.220000
  0
VERTEX
  8
FOREGROUND
 62
     7
  6
CONTINUOUS
 10
3.656667
 20
0.178333
  0
VERTEX
  8
FOREGROUND
 62
     7
  6
CONTINUOUS
 10
3.598333
 20
0.143333
  0
VERTEX
  8
FOREGROUND
 62
     7
  6
CONTINUOUS
 10
3.536667
 20
0.113333
  0
VERTEX
  8
FOREGROUND
 62
     7
  6
CONTINUOUS
 10
3.470000
 20
0.090000
  0
VERTEX
  8
FOREGROUND
 62
     7
  6
CONTINUOUS
 10
3.436667
 20
0.080000
  0
VERTEX
  8
FOREGROUND
 62
     7
  6
CONTINUOUS
 10
3.403333
 20
0.073333
  0
VERTEX
  8
FOREGROUND
 62
     7
  6
CONTINUOUS
 10
3.368333
 20
0.066667
  0
VERTEX
  8
FOREGROUND
 62
     7
  6
CONTINUOUS
 10
3.333333
 20
0.061667
  0
VERTEX
  8
FOREGROUND
 62
     7
  6
CONTINUOUS
 10
3.296667
 20
0.058333
  0
VERTEX
  8
FOREGROUND
 62
     7
  6
CONTINUOUS
 10
3.260000
 20
0.058333
  0
VERTEX
  8
FOREGROUND
 62
     7
  6
CONTINUOUS
 10
0.758333
 20
0.058333
  0
VERTEX
  8
FOREGROUND
 62
     7
  6
CONTINUOUS
 10
0.721667
 20
0.058333
  0
VERTEX
  8
FOREGROUND
 62
     7
  6
CONTINUOUS
 10
0.686667
 20
0.061667
  0
VERTEX
  8
FOREGROUND
 62
     7
  6
CONTINUOUS
 10
0.650000
 20
0.066667
  0
VERTEX
  8
FOREGROUND
 62
     7
  6
CONTINUOUS
 10
0.615000
 20
0.073333
  0
VERTEX
  8
FOREGROUND
 62
     7
  6
CONTINUOUS
 10
0.581667
 20
0.080000
  0
VERTEX
  8
FOREGROUND
 62
     7
  6
CONTINUOUS
 10
0.548333
 20
0.090000
  0
VERTEX
  8
FOREGROUND
 62
     7
  6
CONTINUOUS
 10
0.483333
 20
0.113333
  0
VERTEX
  8
FOREGROUND
 62
     7
  6
CONTINUOUS
 10
0.421667
 20
0.143333
  0
VERTEX
  8
FOREGROUND
 62
     7
  6
CONTINUOUS
 10
0.363333
 20
0.178333
  0
VERTEX
  8
FOREGROUND
 62
     7
  6
CONTINUOUS
 10
0.308333
 20
0.220000
  0
VERTEX
  8
FOREGROUND
 62
     7
  6
CONTINUOUS
 10
0.258333
 20
0.265000
  0
VERTEX
  8
FOREGROUND
 62
     7
  6
CONTINUOUS
 10
0.211667
 20
0.316667
  0
VERTEX
  8
FOREGROUND
 62
     7
  6
CONTINUOUS
 10
0.171667
 20
0.370000
  0
VERTEX
  8
FOREGROUND
 62
     7
  6
CONTINUOUS
 10
0.135000
 20
0.428333
  0
VERTEX
  8
FOREGROUND
 62
     7
  6
CONTINUOUS
 10
0.106667
 20
0.490000
  0
VERTEX
  8
FOREGROUND
 62
     7
  6
CONTINUOUS
 10
0.081667
 20
0.556667
  0
VERTEX
  8
FOREGROUND
 62
     7
  6
CONTINUOUS
 10
0.071667
 20
0.590000
  0
VERTEX
  8
FOREGROUND
 62
     7
  6
CONTINUOUS
 10
0.065000
 20
0.623333
  0
VERTEX
  8
FOREGROUND
 62
     7
  6
CONTINUOUS
 10
0.058333
 20
0.658333
  0
VERTEX
  8
FOREGROUND
 62
     7
  6
CONTINUOUS
 10
0.053333
 20
0.693333
  0
VERTEX
  8
FOREGROUND
 62
     7
  6
CONTINUOUS
 10
0.051667
 20
0.730000
  0
VERTEX
  8
FOREGROUND
 62
     7
  6
CONTINUOUS
 10
0.050000
 20
0.766667
  0
VERTEX
  8
FOREGROUND
 62
     7
  6
CONTINUOUS
 10
0.050000
 20
2.895000
  0
VERTEX
  8
FOREGROUND
 62
     7
  6
CONTINUOUS
 10
0.051667
 20
2.931667
  0
VERTEX
  8
FOREGROUND
 62
     7
  6
CONTINUOUS
 10
0.053333
 20
2.966667
  0
VERTEX
  8
FOREGROUND
 62
     7
  6
CONTINUOUS
 10
0.058333
 20
3.003333
  0
VERTEX
  8
FOREGROUND
 62
     7
  6
CONTINUOUS
 10
0.065000
 20
3.038333
  0
VERTEX
  8
FOREGROUND
 62
     7
  6
CONTINUOUS
 10
0.071667
 20
3.071667
  0
VERTEX
  8
FOREGROUND
 62
     7
  6
CONTINUOUS
 10
0.081667
 20
3.105000
  0
VERTEX
  8
FOREGROUND
 62
     7
  6
CONTINUOUS
 10
0.106667
 20
3.170000
  0
VERTEX
  8
FOREGROUND
 62
     7
  6
CONTINUOUS
 10
0.135000
 20
3.231667
  0
VERTEX
  8
FOREGROUND
 62
     7
  6
CONTINUOUS
 10
0.171667
 20
3.290000
  0
VERTEX
  8
FOREGROUND
 62
     7
  6
CONTINUOUS
 10
0.211667
 20
3.345000
  0
VERTEX
  8
FOREGROUND
 62
     7
  6
CONTINUOUS
 10
0.258333
 20
3.395000
  0
VERTEX
  8
FOREGROUND
 62
     7
  6
CONTINUOUS
 10
0.308333
 20
3.441667
  0
VERTEX
  8
FOREGROUND
 62
     7
  6
CONTINUOUS
 10
0.363333
 20
3.481667
  0
VERTEX
  8
FOREGROUND
 62
     7
  6
CONTINUOUS
 10
0.421667
 20
3.518333
  0
VERTEX
  8
FOREGROUND
 62
     7
  6
CONTINUOUS
 10
0.483333
 20
3.546667
  0
VERTEX
  8
FOREGROUND
 62
     7
  6
CONTINUOUS
 10
0.548333
 20
3.571667
  0
VERTEX
  8
FOREGROUND
 62
     7
  6
CONTINUOUS
 10
0.581667
 20
3.581667
  0
VERTEX
  8
FOREGROUND
 62
     7
  6
CONTINUOUS
 10
0.615000
 20
3.588333
  0
VERTEX
  8
FOREGROUND
 62
     7
  6
CONTINUOUS
 10
0.650000
 20
3.595000
  0
VERTEX
  8
FOREGROUND
 62
     7
  6
CONTINUOUS
 10
0.686667
 20
3.600000
  0
VERTEX
  8
FOREGROUND
 62
     7
  6
CONTINUOUS
 10
0.721667
 20
3.601667
  0
SEQEND
  8
0
  0
POLYLINE
  8
FOREGROUND
  6
CONTINUOUS
 66
     1
 40
0.010000
 41
0.010000
 70
     1
  0
VERTEX
  8
FOREGROUND
  6
CONTINUOUS
 10
0.758333
 20
3.603333
  0
VERTEX
  8
FOREGROUND
  6
CONTINUOUS
 10
3.260000
 20
3.603333
  0
VERTEX
  8
FOREGROUND
  6
CONTINUOUS
 10
3.296667
 20
3.601667
  0
VERTEX
  8
FOREGROUND
  6
CONTINUOUS
 10
3.333333
 20
3.600000
  0
VERTEX
  8
FOREGROUND
  6
CONTINUOUS
 10
3.368333
 20
3.595000
  0
VERTEX
  8
FOREGROUND
  6
CONTINUOUS
 10
3.403333
 20
3.588333
  0
VERTEX
  8
FOREGROUND
  6
CONTINUOUS
 10
3.436667
 20
3.581667
  0
VERTEX
  8
FOREGROUND
  6
CONTINUOUS
 10
3.470000
 20
3.571667
  0
VERTEX
  8
FOREGROUND
  6
CONTINUOUS
 10
3.536667
 20
3.546667
  0
VERTEX
  8
FOREGROUND
  6
CONTINUOUS
 10
3.598333
 20
3.518333
  0
VERTEX
  8
FOREGROUND
  6
CONTINUOUS
 10
3.656667
 20
3.481667
  0
VERTEX
  8
FOREGROUND
  6
CONTINUOUS
 10
3.710000
 20
3.441667
  0
VERTEX
  8
FOREGROUND
  6
CONTINUOUS
 10
3.761667
 20
3.395000
  0
VERTEX
  8
FOREGROUND
  6
CONTINUOUS
 10
3.806667
 20
3.345000
  0
VERTEX
  8
FOREGROUND
  6
CONTINUOUS
 10
3.848333
 20
3.290000
  0
VERTEX
  8
FOREGROUND
  6
CONTINUOUS
 10
3.883333
 20
3.231667
  0
VERTEX
  8
FOREGROUND
  6
CONTINUOUS
 10
3.913333
 20
3.170000
  0
VERTEX
  8
FOREGROUND
  6
CONTINUOUS
 10
3.936667
 20
3.105000
  0
VERTEX
  8
FOREGROUND
  6
CONTINUOUS
 10
3.946667
 20
3.071667
  0
VERTEX
  8
FOREGROUND
  6
CONTINUOUS
 10
3.953333
 20
3.038333
  0
VERTEX
  8
FOREGROUND
  6
CONTINUOUS
 10
3.960000
 20
3.003333
  0
VERTEX
  8
FOREGROUND
  6
CONTINUOUS
 10
3.965000
 20
2.966667
  0
VERTEX
  8
FOREGROUND
  6
CONTINUOUS
 10
3.968333
 20
2.931667
  0
VERTEX
  8
FOREGROUND
  6
CONTINUOUS
 10
3.968333
 20
2.895000
  0
VERTEX
  8
FOREGROUND
  6
CONTINUOUS
 10
3.968333
 20
0.766667
  0
VERTEX
  8
FOREGROUND
  6
CONTINUOUS
 10
3.968333
 20
0.730000
  0
VERTEX
  8
FOREGROUND
  6
CONTINUOUS
 10
3.965000
 20
0.693333
  0
VERTEX
  8
FOREGROUND
  6
CONTINUOUS
 10
3.960000
 20
0.658333
  0
VERTEX
  8
FOREGROUND
  6
CONTINUOUS
 10
3.953333
 20
0.623333
  0
VERTEX
  8
FOREGROUND
  6
CONTINUOUS
 10
3.946667
 20
0.590000
  0
VERTEX
  8
FOREGROUND
  6
CONTINUOUS
 10
3.936667
 20
0.556667
  0
VERTEX
  8
FOREGROUND
  6
CONTINUOUS
 10
3.913333
 20
0.490000
  0
VERTEX
  8
FOREGROUND
  6
CONTINUOUS
 10
3.883333
 20
0.428333
  0
VERTEX
  8
FOREGROUND
  6
CONTINUOUS
 10
3.848333
 20
0.370000
  0
VERTEX
  8
FOREGROUND
  6
CONTINUOUS
 10
3.806667
 20
0.316667
  0
VERTEX
  8
FOREGROUND
  6
CONTINUOUS
 10
3.761667
 20
0.265000
  0
VERTEX
  8
FOREGROUND
  6
CONTINUOUS
 10
3.710000
 20
0.220000
  0
VERTEX
  8
FOREGROUND
  6
CONTINUOUS
 10
3.656667
 20
0.178333
  0
VERTEX
  8
FOREGROUND
  6
CONTINUOUS
 10
3.598333
 20
0.143333
  0
VERTEX
  8
FOREGROUND
  6
CONTINUOUS
 10
3.536667
 20
0.113333
  0
VERTEX
  8
FOREGROUND
  6
CONTINUOUS
 10
3.470000
 20
0.090000
  0
VERTEX
  8
FOREGROUND
  6
CONTINUOUS
 10
3.436667
 20
0.080000
  0
VERTEX
  8
FOREGROUND
  6
CONTINUOUS
 10
3.403333
 20
0.073333
  0
VERTEX
  8
FOREGROUND
  6
CONTINUOUS
 10
3.368333
 20
0.066667
  0
VERTEX
  8
FOREGROUND
  6
CONTINUOUS
 10
3.333333
 20
0.061667
  0
VERTEX
  8
FOREGROUND
  6
CONTINUOUS
 10
3.296667
 20
0.058333
  0
VERTEX
  8
FOREGROUND
  6
CONTINUOUS
 10
3.260000
 20
0.058333
  0
VERTEX
  8
FOREGROUND
  6
CONTINUOUS
 10
0.758333
 20
0.058333
  0
VERTEX
  8
FOREGROUND
  6
CONTINUOUS
 10
0.721667
 20
0.058333
  0
VERTEX
  8
FOREGROUND
  6
CONTINUOUS
 10
0.686667
 20
0.061667
  0
VERTEX
  8
FOREGROUND
  6
CONTINUOUS
 10
0.650000
 20
0.066667
  0
VERTEX
  8
FOREGROUND
  6
CONTINUOUS
 10
0.615000
 20
0.073333
  0
VERTEX
  8
FOREGROUND
  6
CONTINUOUS
 10
0.581667
 20
0.080000
  0
VERTEX
  8
FOREGROUND
  6
CONTINUOUS
 10
0.548333
 20
0.090000
  0
VERTEX
  8
FOREGROUND
  6
CONTINUOUS
 10
0.483333
 20
0.113333
  0
VERTEX
  8
FOREGROUND
  6
CONTINUOUS
 10
0.421667
 20
0.143333
  0
VERTEX
  8
FOREGROUND
  6
CONTINUOUS
 10
0.363333
 20
0.178333
  0
VERTEX
  8
FOREGROUND
  6
CONTINUOUS
 10
0.308333
 20
0.220000
  0
VERTEX
  8
FOREGROUND
  6
CONTINUOUS
 10
0.258333
 20
0.265000
  0
VERTEX
  8
FOREGROUND
  6
CONTINUOUS
 10
0.211667
 20
0.316667
  0
VERTEX
  8
FOREGROUND
  6
CONTINUOUS
 10
0.171667
 20
0.370000
  0
VERTEX
  8
FOREGROUND
  6
CONTINUOUS
 10
0.135000
 20
0.428333
  0
VERTEX
  8
FOREGROUND
  6
CONTINUOUS
 10
0.106667
 20
0.490000
  0
VERTEX
  8
FOREGROUND
  6
CONTINUOUS
 10
0.081667
 20
0.556667
  0
VERTEX
  8
FOREGROUND
  6
CONTINUOUS
 10
0.071667
 20
0.590000
  0
VERTEX
  8
FOREGROUND
  6
CONTINUOUS
 10
0.065000
 20
0.623333
  0
VERTEX
  8
FOREGROUND
  6
CONTINUOUS
 10
0.058333
 20
0.658333
  0
VERTEX
  8
FOREGROUND
  6
CONTINUOUS
 10
0.053333
 20
0.693333
  0
VERTEX
  8
FOREGROUND
  6
CONTINUOUS
 10
0.051667
 20
0.730000
  0
VERTEX
  8
FOREGROUND
  6
CONTINUOUS
 10
0.050000
 20
0.766667
  0
VERTEX
  8
FOREGROUND
  6
CONTINUOUS
 10
0.050000
 20
2.895000
  0
VERTEX
  8
FOREGROUND
  6
CONTINUOUS
 10
0.051667
 20
2.931667
  0
VERTEX
  8
FOREGROUND
  6
CONTINUOUS
 10
0.053333
 20
2.966667
  0
VERTEX
  8
FOREGROUND
  6
CONTINUOUS
 10
0.058333
 20
3.003333
  0
VERTEX
  8
FOREGROUND
  6
CONTINUOUS
 10
0.065000
 20
3.038333
  0
VERTEX
  8
FOREGROUND
  6
CONTINUOUS
 10
0.071667
 20
3.071667
  0
VERTEX
  8
FOREGROUND
  6
CONTINUOUS
 10
0.081667
 20
3.105000
  0
VERTEX
  8
FOREGROUND
  6
CONTINUOUS
 10
0.106667
 20
3.170000
  0
VERTEX
  8
FOREGROUND
  6
CONTINUOUS
 10
0.135000
 20
3.231667
  0
VERTEX
  8
FOREGROUND
  6
CONTINUOUS
 10
0.171667
 20
3.290000
  0
VERTEX
  8
FOREGROUND
  6
CONTINUOUS
 10
0.211667
 20
3.345000
  0
VERTEX
  8
FOREGROUND
  6
CONTINUOUS
 10
0.258333
 20
3.395000
  0
VERTEX
  8
FOREGROUND
  6
CONTINUOUS
 10
0.308333
 20
3.441667
  0
VERTEX
  8
FOREGROUND
  6
CONTINUOUS
 10
0.363333
 20
3.481667
  0
VERTEX
  8
FOREGROUND
  6
CONTINUOUS
 10
0.421667
 20
3.518333
  0
VERTEX
  8
FOREGROUND
  6
CONTINUOUS
 10
0.483333
 20
3.546667
  0
VERTEX
  8
FOREGROUND
  6
CONTINUOUS
 10
0.548333
 20
3.571667
  0
VERTEX
  8
FOREGROUND
  6
CONTINUOUS
 10
0.581667
 20
3.581667
  0
VERTEX
  8
FOREGROUND
  6
CONTINUOUS
 10
0.615000
 20
3.588333
  0
VERTEX
  8
FOREGROUND
  6
CONTINUOUS
 10
0.650000
 20
3.595000
  0
VERTEX
  8
FOREGROUND
  6
CONTINUOUS
 10
0.686667
 20
3.600000
  0
VERTEX
  8
FOREGROUND
  6
CONTINUOUS
 10
0.721667
 20
3.601667
  0
SEQEND
  8
0
  0
ENDSEC
  0
EOF
