  0
SECTION
  2
HEADER
  9
$ACADVER
  1
AC1006
  9
$EXTMIN
 10
0.000000
 20
0.000000
  9
$EXTMAX
 10
4.555000
 20
4.155000
  9
$LTSCALE
 40
0.166667
  9
$PDMODE
 70
    35
  9
$PDSIZE
 40
0.133333
  0
ENDSEC
  0
SECTION
  2
TABLES
  0
TABLE
  2
LTYPE
 70
     9
  0
LTYPE
  2
CONTINUOUS
 70
    64
  3
Solid line
 72
    65
 73
     0
 40
0.000000
  0
LTYPE
  2
DASHED
 70
    64
  3
__ __ __ __ __ __ __ __ __ __ __ __ __ __ __
 72
    65
 73
     2
 40
0.001250
 49
0.000833
 49
-0.000417
  0
LTYPE
  2
HIDDEN
 70
    64
  3
 _ _ _ _ _ _ _ _ _ _ _ _ _ _ _ _ _ _ _ _ _ _
 72
    65
 73
     2
 40
0.000625
 49
0.000417
 49
-0.000208
  0
LTYPE
  2
CENTER
 70
    64
  3
____ _ ____ _ ____ _ ____ _ ____ _ ____ _ ____
 72
    65
 73
     4
 40
0.003333
 49
0.002083
 49
-0.000417
 49
0.000417
 49
-0.000417
  0
LTYPE
  2
PHANTOM
 70
    64
  3
_____ _ _ _____ _ _ _____ _ _ _____ _ _ ____
 72
    65
 73
     6
 40
0.004167
 49
0.002083
 49
-0.000417
 49
0.000417
 49
-0.000417
 49
0.000417
 49
-0.000417
  0
LTYPE
  2
DOT
 70
    64
  3
...............................................
 72
    65
 73
     2
 40
0.000417
 49
0.000000
 49
-0.000417
  0
LTYPE
  2
DASHDOT
 70
    64
  3
__ . __ . __ . __ . __ . __ . __ . __ . __ . __
 72
    65
 73
     4
 40
0.001667
 49
0.000833
 49
-0.000417
 49
0.000000
 49
-0.000417
  0
LTYPE
  2
BORDER
 70
    64
  3
__ __ . __ __ . __ __ . __ __ . __ __ . __ __
 72
    65
 73
     6
 40
0.002917
 49
0.000833
 49
-0.000417
 49
0.000833
 49
-0.000417
 49
0.000000
 49
-0.000417
  0
LTYPE
  2
DIVIDE
 70
    64
  3
__ . . __ . . __ . . __ . . __ . . __ . . __
 72
    65
 73
     6
 40
0.002083
 49
0.000833
 49
-0.000417
 49
0.000000
 49
-0.000417
 49
0.000000
 49
-0.000417
  0
LTYPE
  2
DOTDOT
 70
    64
  3
 . .  . .  . .  . .  . .  . . 
 72
    65
 73
     5
 40
0.000917
 49
-0.000417
 49
0.000000
 49
-0.000417
 49
0.000000
 49
-0.000417
  0
ENDTAB
  0
TABLE
  2
STYLE
 70
     2
  0
STYLE
 70
     0
  2
SN0
 40
0.000000
 41
0.001667
 50
0.000000
 71
     0
 42
0.000000
  3
ROMAND
  0
STYLE
 70
    68
  2
SV0
 40
0.000000
 41
0.001667
 50
0.000000
 71
     0
 42
0.000000
  3
ROMAND
  0
ENDTAB
  0
TABLE
  2
LAYER
 70
     2
  0
LAYER
  2
FOREGROUND
 70
    64
 62
     7
  6
CONTINUOUS
  0
LAYER
  2
BACKGROUND
 70
    65
 62
    -7
  6
CONTINUOUS
  0
ENDTAB
  0
ENDSEC
  0
SECTION
  2
ENTITIES
  0
POLYLINE
  8
FOREGROUND
 62
     7
  6
CONTINUOUS
 66
     1
 40
0.000000
 41
0.000000
 70
     1
  0
VERTEX
  8
FOREGROUND
 62
     7
  6
CONTINUOUS
 10
0.836667
 20
3.996667
  0
VERTEX
  8
FOREGROUND
 62
     7
  6
CONTINUOUS
 10
3.600000
 20
3.996667
  0
VERTEX
  8
FOREGROUND
 62
     7
  6
CONTINUOUS
 10
3.640000
 20
3.995000
  0
VERTEX
  8
FOREGROUND
 62
     7
  6
CONTINUOUS
 10
3.680000
 20
3.991667
  0
VERTEX
  8
FOREGROUND
 62
     7
  6
CONTINUOUS
 10
3.720000
 20
3.986667
  0
VERTEX
  8
FOREGROUND
 62
     7
  6
CONTINUOUS
 10
3.758333
 20
3.980000
  0
VERTEX
  8
FOREGROUND
 62
     7
  6
CONTINUOUS
 10
3.796667
 20
3.971667
  0
VERTEX
  8
FOREGROUND
 62
     7
  6
CONTINUOUS
 10
3.833333
 20
3.961667
  0
VERTEX
  8
FOREGROUND
 62
     7
  6
CONTINUOUS
 10
3.870000
 20
3.948333
  0
VERTEX
  8
FOREGROUND
 62
     7
  6
CONTINUOUS
 10
3.906667
 20
3.935000
  0
VERTEX
  8
FOREGROUND
 62
     7
  6
CONTINUOUS
 10
3.941667
 20
3.918333
  0
VERTEX
  8
FOREGROUND
 62
     7
  6
CONTINUOUS
 10
3.975000
 20
3.901667
  0
VERTEX
  8
FOREGROUND
 62
     7
  6
CONTINUOUS
 10
4.040000
 20
3.861667
  0
VERTEX
  8
FOREGROUND
 62
     7
  6
CONTINUOUS
 10
4.100000
 20
3.816667
  0
VERTEX
  8
FOREGROUND
 62
     7
  6
CONTINUOUS
 10
4.156667
 20
3.766667
  0
VERTEX
  8
FOREGROUND
 62
     7
  6
CONTINUOUS
 10
4.206667
 20
3.710000
  0
VERTEX
  8
FOREGROUND
 62
     7
  6
CONTINUOUS
 10
4.253333
 20
3.650000
  0
VERTEX
  8
FOREGROUND
 62
     7
  6
CONTINUOUS
 10
4.291667
 20
3.585000
  0
VERTEX
  8
FOREGROUND
 62
     7
  6
CONTINUOUS
 10
4.310000
 20
3.551667
  0
VERTEX
  8
FOREGROUND
 62
     7
  6
CONTINUOUS
 10
4.325000
 20
3.516667
  0
VERTEX
  8
FOREGROUND
 62
     7
  6
CONTINUOUS
 10
4.338333
 20
3.480000
  0
VERTEX
  8
FOREGROUND
 62
     7
  6
CONTINUOUS
 10
4.351667
 20
3.443333
  0
VERTEX
  8
FOREGROUND
 62
     7
  6
CONTINUOUS
 10
4.361667
 20
3.406667
  0
VERTEX
  8
FOREGROUND
 62
     7
  6
CONTINUOUS
 10
4.371667
 20
3.368333
  0
VERTEX
  8
FOREGROUND
 62
     7
  6
CONTINUOUS
 10
4.378333
 20
3.330000
  0
VERTEX
  8
FOREGROUND
 62
     7
  6
CONTINUOUS
 10
4.383333
 20
3.290000
  0
VERTEX
  8
FOREGROUND
 62
     7
  6
CONTINUOUS
 10
4.385000
 20
3.250000
  0
VERTEX
  8
FOREGROUND
 62
     7
  6
CONTINUOUS
 10
4.386667
 20
3.210000
  0
VERTEX
  8
FOREGROUND
 62
     7
  6
CONTINUOUS
 10
4.386667
 20
0.845000
  0
VERTEX
  8
FOREGROUND
 62
     7
  6
CONTINUOUS
 10
4.385000
 20
0.805000
  0
VERTEX
  8
FOREGROUND
 62
     7
  6
CONTINUOUS
 10
4.383333
 20
0.765000
  0
VERTEX
  8
FOREGROUND
 62
     7
  6
CONTINUOUS
 10
4.378333
 20
0.725000
  0
VERTEX
  8
FOREGROUND
 62
     7
  6
CONTINUOUS
 10
4.371667
 20
0.686667
  0
VERTEX
  8
FOREGROUND
 62
     7
  6
CONTINUOUS
 10
4.361667
 20
0.648333
  0
VERTEX
  8
FOREGROUND
 62
     7
  6
CONTINUOUS
 10
4.351667
 20
0.611667
  0
VERTEX
  8
FOREGROUND
 62
     7
  6
CONTINUOUS
 10
4.338333
 20
0.575000
  0
VERTEX
  8
FOREGROUND
 62
     7
  6
CONTINUOUS
 10
4.325000
 20
0.538333
  0
VERTEX
  8
FOREGROUND
 62
     7
  6
CONTINUOUS
 10
4.310000
 20
0.503333
  0
VERTEX
  8
FOREGROUND
 62
     7
  6
CONTINUOUS
 10
4.291667
 20
0.470000
  0
VERTEX
  8
FOREGROUND
 62
     7
  6
CONTINUOUS
 10
4.253333
 20
0.405000
  0
VERTEX
  8
FOREGROUND
 62
     7
  6
CONTINUOUS
 10
4.206667
 20
0.345000
  0
VERTEX
  8
FOREGROUND
 62
     7
  6
CONTINUOUS
 10
4.156667
 20
0.288333
  0
VERTEX
  8
FOREGROUND
 62
     7
  6
CONTINUOUS
 10
4.100000
 20
0.238333
  0
VERTEX
  8
FOREGROUND
 62
     7
  6
CONTINUOUS
 10
4.040000
 20
0.191667
  0
VERTEX
  8
FOREGROUND
 62
     7
  6
CONTINUOUS
 10
3.975000
 20
0.153333
  0
VERTEX
  8
FOREGROUND
 62
     7
  6
CONTINUOUS
 10
3.941667
 20
0.135000
  0
VERTEX
  8
FOREGROUND
 62
     7
  6
CONTINUOUS
 10
3.906667
 20
0.120000
  0
VERTEX
  8
FOREGROUND
 62
     7
  6
CONTINUOUS
 10
3.870000
 20
0.106667
  0
VERTEX
  8
FOREGROUND
 62
     7
  6
CONTINUOUS
 10
3.833333
 20
0.093333
  0
VERTEX
  8
FOREGROUND
 62
     7
  6
CONTINUOUS
 10
3.796667
 20
0.083333
  0
VERTEX
  8
FOREGROUND
 62
     7
  6
CONTINUOUS
 10
3.758333
 20
0.073333
  0
VERTEX
  8
FOREGROUND
 62
     7
  6
CONTINUOUS
 10
3.720000
 20
0.066667
  0
VERTEX
  8
FOREGROUND
 62
     7
  6
CONTINUOUS
 10
3.680000
 20
0.061667
  0
VERTEX
  8
FOREGROUND
 62
     7
  6
CONTINUOUS
 10
3.640000
 20
0.060000
  0
VERTEX
  8
FOREGROUND
 62
     7
  6
CONTINUOUS
 10
3.600000
 20
0.058333
  0
VERTEX
  8
FOREGROUND
 62
     7
  6
CONTINUOUS
 10
0.836667
 20
0.058333
  0
VERTEX
  8
FOREGROUND
 62
     7
  6
CONTINUOUS
 10
0.796667
 20
0.060000
  0
VERTEX
  8
FOREGROUND
 62
     7
  6
CONTINUOUS
 10
0.756667
 20
0.061667
  0
VERTEX
  8
FOREGROUND
 62
     7
  6
CONTINUOUS
 10
0.716667
 20
0.066667
  0
VERTEX
  8
FOREGROUND
 62
     7
  6
CONTINUOUS
 10
0.678333
 20
0.073333
  0
VERTEX
  8
FOREGROUND
 62
     7
  6
CONTINUOUS
 10
0.640000
 20
0.083333
  0
VERTEX
  8
FOREGROUND
 62
     7
  6
CONTINUOUS
 10
0.603333
 20
0.093333
  0
VERTEX
  8
FOREGROUND
 62
     7
  6
CONTINUOUS
 10
0.566667
 20
0.106667
  0
VERTEX
  8
FOREGROUND
 62
     7
  6
CONTINUOUS
 10
0.530000
 20
0.120000
  0
VERTEX
  8
FOREGROUND
 62
     7
  6
CONTINUOUS
 10
0.495000
 20
0.135000
  0
VERTEX
  8
FOREGROUND
 62
     7
  6
CONTINUOUS
 10
0.461667
 20
0.153333
  0
VERTEX
  8
FOREGROUND
 62
     7
  6
CONTINUOUS
 10
0.396667
 20
0.191667
  0
VERTEX
  8
FOREGROUND
 62
     7
  6
CONTINUOUS
 10
0.336667
 20
0.238333
  0
VERTEX
  8
FOREGROUND
 62
     7
  6
CONTINUOUS
 10
0.280000
 20
0.288333
  0
VERTEX
  8
FOREGROUND
 62
     7
  6
CONTINUOUS
 10
0.230000
 20
0.345000
  0
VERTEX
  8
FOREGROUND
 62
     7
  6
CONTINUOUS
 10
0.185000
 20
0.405000
  0
VERTEX
  8
FOREGROUND
 62
     7
  6
CONTINUOUS
 10
0.145000
 20
0.470000
  0
VERTEX
  8
FOREGROUND
 62
     7
  6
CONTINUOUS
 10
0.128333
 20
0.503333
  0
VERTEX
  8
FOREGROUND
 62
     7
  6
CONTINUOUS
 10
0.111667
 20
0.538333
  0
VERTEX
  8
FOREGROUND
 62
     7
  6
CONTINUOUS
 10
0.098333
 20
0.575000
  0
VERTEX
  8
FOREGROUND
 62
     7
  6
CONTINUOUS
 10
0.085000
 20
0.611667
  0
VERTEX
  8
FOREGROUND
 62
     7
  6
CONTINUOUS
 10
0.075000
 20
0.648333
  0
VERTEX
  8
FOREGROUND
 62
     7
  6
CONTINUOUS
 10
0.066667
 20
0.686667
  0
VERTEX
  8
FOREGROUND
 62
     7
  6
CONTINUOUS
 10
0.060000
 20
0.725000
  0
VERTEX
  8
FOREGROUND
 62
     7
  6
CONTINUOUS
 10
0.055000
 20
0.765000
  0
VERTEX
  8
FOREGROUND
 62
     7
  6
CONTINUOUS
 10
0.051667
 20
0.805000
  0
VERTEX
  8
FOREGROUND
 62
     7
  6
CONTINUOUS
 10
0.050000
 20
0.845000
  0
VERTEX
  8
FOREGROUND
 62
     7
  6
CONTINUOUS
 10
0.050000
 20
3.210000
  0
VERTEX
  8
FOREGROUND
 62
     7
  6
CONTINUOUS
 10
0.051667
 20
3.250000
  0
VERTEX
  8
FOREGROUND
 62
     7
  6
CONTINUOUS
 10
0.055000
 20
3.290000
  0
VERTEX
  8
FOREGROUND
 62
     7
  6
CONTINUOUS
 10
0.060000
 20
3.330000
  0
VERTEX
  8
FOREGROUND
 62
     7
  6
CONTINUOUS
 10
0.066667
 20
3.368333
  0
VERTEX
  8
FOREGROUND
 62
     7
  6
CONTINUOUS
 10
0.075000
 20
3.406667
  0
VERTEX
  8
FOREGROUND
 62
     7
  6
CONTINUOUS
 10
0.085000
 20
3.443333
  0
VERTEX
  8
FOREGROUND
 62
     7
  6
CONTINUOUS
 10
0.098333
 20
3.480000
  0
VERTEX
  8
FOREGROUND
 62
     7
  6
CONTINUOUS
 10
0.111667
 20
3.516667
  0
VERTEX
  8
FOREGROUND
 62
     7
  6
CONTINUOUS
 10
0.128333
 20
3.551667
  0
VERTEX
  8
FOREGROUND
 62
     7
  6
CONTINUOUS
 10
0.145000
 20
3.585000
  0
VERTEX
  8
FOREGROUND
 62
     7
  6
CONTINUOUS
 10
0.185000
 20
3.650000
  0
VERTEX
  8
FOREGROUND
 62
     7
  6
CONTINUOUS
 10
0.230000
 20
3.710000
  0
VERTEX
  8
FOREGROUND
 62
     7
  6
CONTINUOUS
 10
0.280000
 20
3.766667
  0
VERTEX
  8
FOREGROUND
 62
     7
  6
CONTINUOUS
 10
0.336667
 20
3.816667
  0
VERTEX
  8
FOREGROUND
 62
     7
  6
CONTINUOUS
 10
0.396667
 20
3.861667
  0
VERTEX
  8
FOREGROUND
 62
     7
  6
CONTINUOUS
 10
0.461667
 20
3.901667
  0
VERTEX
  8
FOREGROUND
 62
     7
  6
CONTINUOUS
 10
0.495000
 20
3.918333
  0
VERTEX
  8
FOREGROUND
 62
     7
  6
CONTINUOUS
 10
0.530000
 20
3.935000
  0
VERTEX
  8
FOREGROUND
 62
     7
  6
CONTINUOUS
 10
0.566667
 20
3.948333
  0
VERTEX
  8
FOREGROUND
 62
     7
  6
CONTINUOUS
 10
0.603333
 20
3.961667
  0
VERTEX
  8
FOREGROUND
 62
     7
  6
CONTINUOUS
 10
0.640000
 20
3.971667
  0
VERTEX
  8
FOREGROUND
 62
     7
  6
CONTINUOUS
 10
0.678333
 20
3.980000
  0
VERTEX
  8
FOREGROUND
 62
     7
  6
CONTINUOUS
 10
0.716667
 20
3.986667
  0
VERTEX
  8
FOREGROUND
 62
     7
  6
CONTINUOUS
 10
0.756667
 20
3.991667
  0
VERTEX
  8
FOREGROUND
 62
     7
  6
CONTINUOUS
 10
0.796667
 20
3.995000
  0
SEQEND
  8
0
  0
POLYLINE
  8
FOREGROUND
  6
CONTINUOUS
 66
     1
 40
0.010000
 41
0.010000
 70
     1
  0
VERTEX
  8
FOREGROUND
  6
CONTINUOUS
 10
0.836667
 20
3.996667
  0
VERTEX
  8
FOREGROUND
  6
CONTINUOUS
 10
3.600000
 20
3.996667
  0
VERTEX
  8
FOREGROUND
  6
CONTINUOUS
 10
3.640000
 20
3.995000
  0
VERTEX
  8
FOREGROUND
  6
CONTINUOUS
 10
3.680000
 20
3.991667
  0
VERTEX
  8
FOREGROUND
  6
CONTINUOUS
 10
3.720000
 20
3.986667
  0
VERTEX
  8
FOREGROUND
  6
CONTINUOUS
 10
3.758333
 20
3.980000
  0
VERTEX
  8
FOREGROUND
  6
CONTINUOUS
 10
3.796667
 20
3.971667
  0
VERTEX
  8
FOREGROUND
  6
CONTINUOUS
 10
3.833333
 20
3.961667
  0
VERTEX
  8
FOREGROUND
  6
CONTINUOUS
 10
3.870000
 20
3.948333
  0
VERTEX
  8
FOREGROUND
  6
CONTINUOUS
 10
3.906667
 20
3.935000
  0
VERTEX
  8
FOREGROUND
  6
CONTINUOUS
 10
3.941667
 20
3.918333
  0
VERTEX
  8
FOREGROUND
  6
CONTINUOUS
 10
3.975000
 20
3.901667
  0
VERTEX
  8
FOREGROUND
  6
CONTINUOUS
 10
4.040000
 20
3.861667
  0
VERTEX
  8
FOREGROUND
  6
CONTINUOUS
 10
4.100000
 20
3.816667
  0
VERTEX
  8
FOREGROUND
  6
CONTINUOUS
 10
4.156667
 20
3.766667
  0
VERTEX
  8
FOREGROUND
  6
CONTINUOUS
 10
4.206667
 20
3.710000
  0
VERTEX
  8
FOREGROUND
  6
CONTINUOUS
 10
4.253333
 20
3.650000
  0
VERTEX
  8
FOREGROUND
  6
CONTINUOUS
 10
4.291667
 20
3.585000
  0
VERTEX
  8
FOREGROUND
  6
CONTINUOUS
 10
4.310000
 20
3.551667
  0
VERTEX
  8
FOREGROUND
  6
CONTINUOUS
 10
4.325000
 20
3.516667
  0
VERTEX
  8
FOREGROUND
  6
CONTINUOUS
 10
4.338333
 20
3.480000
  0
VERTEX
  8
FOREGROUND
  6
CONTINUOUS
 10
4.351667
 20
3.443333
  0
VERTEX
  8
FOREGROUND
  6
CONTINUOUS
 10
4.361667
 20
3.406667
  0
VERTEX
  8
FOREGROUND
  6
CONTINUOUS
 10
4.371667
 20
3.368333
  0
VERTEX
  8
FOREGROUND
  6
CONTINUOUS
 10
4.378333
 20
3.330000
  0
VERTEX
  8
FOREGROUND
  6
CONTINUOUS
 10
4.383333
 20
3.290000
  0
VERTEX
  8
FOREGROUND
  6
CONTINUOUS
 10
4.385000
 20
3.250000
  0
VERTEX
  8
FOREGROUND
  6
CONTINUOUS
 10
4.386667
 20
3.210000
  0
VERTEX
  8
FOREGROUND
  6
CONTINUOUS
 10
4.386667
 20
0.845000
  0
VERTEX
  8
FOREGROUND
  6
CONTINUOUS
 10
4.385000
 20
0.805000
  0
VERTEX
  8
FOREGROUND
  6
CONTINUOUS
 10
4.383333
 20
0.765000
  0
VERTEX
  8
FOREGROUND
  6
CONTINUOUS
 10
4.378333
 20
0.725000
  0
VERTEX
  8
FOREGROUND
  6
CONTINUOUS
 10
4.371667
 20
0.686667
  0
VERTEX
  8
FOREGROUND
  6
CONTINUOUS
 10
4.361667
 20
0.648333
  0
VERTEX
  8
FOREGROUND
  6
CONTINUOUS
 10
4.351667
 20
0.611667
  0
VERTEX
  8
FOREGROUND
  6
CONTINUOUS
 10
4.338333
 20
0.575000
  0
VERTEX
  8
FOREGROUND
  6
CONTINUOUS
 10
4.325000
 20
0.538333
  0
VERTEX
  8
FOREGROUND
  6
CONTINUOUS
 10
4.310000
 20
0.503333
  0
VERTEX
  8
FOREGROUND
  6
CONTINUOUS
 10
4.291667
 20
0.470000
  0
VERTEX
  8
FOREGROUND
  6
CONTINUOUS
 10
4.253333
 20
0.405000
  0
VERTEX
  8
FOREGROUND
  6
CONTINUOUS
 10
4.206667
 20
0.345000
  0
VERTEX
  8
FOREGROUND
  6
CONTINUOUS
 10
4.156667
 20
0.288333
  0
VERTEX
  8
FOREGROUND
  6
CONTINUOUS
 10
4.100000
 20
0.238333
  0
VERTEX
  8
FOREGROUND
  6
CONTINUOUS
 10
4.040000
 20
0.191667
  0
VERTEX
  8
FOREGROUND
  6
CONTINUOUS
 10
3.975000
 20
0.153333
  0
VERTEX
  8
FOREGROUND
  6
CONTINUOUS
 10
3.941667
 20
0.135000
  0
VERTEX
  8
FOREGROUND
  6
CONTINUOUS
 10
3.906667
 20
0.120000
  0
VERTEX
  8
FOREGROUND
  6
CONTINUOUS
 10
3.870000
 20
0.106667
  0
VERTEX
  8
FOREGROUND
  6
CONTINUOUS
 10
3.833333
 20
0.093333
  0
VERTEX
  8
FOREGROUND
  6
CONTINUOUS
 10
3.796667
 20
0.083333
  0
VERTEX
  8
FOREGROUND
  6
CONTINUOUS
 10
3.758333
 20
0.073333
  0
VERTEX
  8
FOREGROUND
  6
CONTINUOUS
 10
3.720000
 20
0.066667
  0
VERTEX
  8
FOREGROUND
  6
CONTINUOUS
 10
3.680000
 20
0.061667
  0
VERTEX
  8
FOREGROUND
  6
CONTINUOUS
 10
3.640000
 20
0.060000
  0
VERTEX
  8
FOREGROUND
  6
CONTINUOUS
 10
3.600000
 20
0.058333
  0
VERTEX
  8
FOREGROUND
  6
CONTINUOUS
 10
0.836667
 20
0.058333
  0
VERTEX
  8
FOREGROUND
  6
CONTINUOUS
 10
0.796667
 20
0.060000
  0
VERTEX
  8
FOREGROUND
  6
CONTINUOUS
 10
0.756667
 20
0.061667
  0
VERTEX
  8
FOREGROUND
  6
CONTINUOUS
 10
0.716667
 20
0.066667
  0
VERTEX
  8
FOREGROUND
  6
CONTINUOUS
 10
0.678333
 20
0.073333
  0
VERTEX
  8
FOREGROUND
  6
CONTINUOUS
 10
0.640000
 20
0.083333
  0
VERTEX
  8
FOREGROUND
  6
CONTINUOUS
 10
0.603333
 20
0.093333
  0
VERTEX
  8
FOREGROUND
  6
CONTINUOUS
 10
0.566667
 20
0.106667
  0
VERTEX
  8
FOREGROUND
  6
CONTINUOUS
 10
0.530000
 20
0.120000
  0
VERTEX
  8
FOREGROUND
  6
CONTINUOUS
 10
0.495000
 20
0.135000
  0
VERTEX
  8
FOREGROUND
  6
CONTINUOUS
 10
0.461667
 20
0.153333
  0
VERTEX
  8
FOREGROUND
  6
CONTINUOUS
 10
0.396667
 20
0.191667
  0
VERTEX
  8
FOREGROUND
  6
CONTINUOUS
 10
0.336667
 20
0.238333
  0
VERTEX
  8
FOREGROUND
  6
CONTINUOUS
 10
0.280000
 20
0.288333
  0
VERTEX
  8
FOREGROUND
  6
CONTINUOUS
 10
0.230000
 20
0.345000
  0
VERTEX
  8
FOREGROUND
  6
CONTINUOUS
 10
0.185000
 20
0.405000
  0
VERTEX
  8
FOREGROUND
  6
CONTINUOUS
 10
0.145000
 20
0.470000
  0
VERTEX
  8
FOREGROUND
  6
CONTINUOUS
 10
0.128333
 20
0.503333
  0
VERTEX
  8
FOREGROUND
  6
CONTINUOUS
 10
0.111667
 20
0.538333
  0
VERTEX
  8
FOREGROUND
  6
CONTINUOUS
 10
0.098333
 20
0.575000
  0
VERTEX
  8
FOREGROUND
  6
CONTINUOUS
 10
0.085000
 20
0.611667
  0
VERTEX
  8
FOREGROUND
  6
CONTINUOUS
 10
0.075000
 20
0.648333
  0
VERTEX
  8
FOREGROUND
  6
CONTINUOUS
 10
0.066667
 20
0.686667
  0
VERTEX
  8
FOREGROUND
  6
CONTINUOUS
 10
0.060000
 20
0.725000
  0
VERTEX
  8
FOREGROUND
  6
CONTINUOUS
 10
0.055000
 20
0.765000
  0
VERTEX
  8
FOREGROUND
  6
CONTINUOUS
 10
0.051667
 20
0.805000
  0
VERTEX
  8
FOREGROUND
  6
CONTINUOUS
 10
0.050000
 20
0.845000
  0
VERTEX
  8
FOREGROUND
  6
CONTINUOUS
 10
0.050000
 20
3.210000
  0
VERTEX
  8
FOREGROUND
  6
CONTINUOUS
 10
0.051667
 20
3.250000
  0
VERTEX
  8
FOREGROUND
  6
CONTINUOUS
 10
0.055000
 20
3.290000
  0
VERTEX
  8
FOREGROUND
  6
CONTINUOUS
 10
0.060000
 20
3.330000
  0
VERTEX
  8
FOREGROUND
  6
CONTINUOUS
 10
0.066667
 20
3.368333
  0
VERTEX
  8
FOREGROUND
  6
CONTINUOUS
 10
0.075000
 20
3.406667
  0
VERTEX
  8
FOREGROUND
  6
CONTINUOUS
 10
0.085000
 20
3.443333
  0
VERTEX
  8
FOREGROUND
  6
CONTINUOUS
 10
0.098333
 20
3.480000
  0
VERTEX
  8
FOREGROUND
  6
CONTINUOUS
 10
0.111667
 20
3.516667
  0
VERTEX
  8
FOREGROUND
  6
CONTINUOUS
 10
0.128333
 20
3.551667
  0
VERTEX
  8
FOREGROUND
  6
CONTINUOUS
 10
0.145000
 20
3.585000
  0
VERTEX
  8
FOREGROUND
  6
CONTINUOUS
 10
0.185000
 20
3.650000
  0
VERTEX
  8
FOREGROUND
  6
CONTINUOUS
 10
0.230000
 20
3.710000
  0
VERTEX
  8
FOREGROUND
  6
CONTINUOUS
 10
0.280000
 20
3.766667
  0
VERTEX
  8
FOREGROUND
  6
CONTINUOUS
 10
0.336667
 20
3.816667
  0
VERTEX
  8
FOREGROUND
  6
CONTINUOUS
 10
0.396667
 20
3.861667
  0
VERTEX
  8
FOREGROUND
  6
CONTINUOUS
 10
0.461667
 20
3.901667
  0
VERTEX
  8
FOREGROUND
  6
CONTINUOUS
 10
0.495000
 20
3.918333
  0
VERTEX
  8
FOREGROUND
  6
CONTINUOUS
 10
0.530000
 20
3.935000
  0
VERTEX
  8
FOREGROUND
  6
CONTINUOUS
 10
0.566667
 20
3.948333
  0
VERTEX
  8
FOREGROUND
  6
CONTINUOUS
 10
0.603333
 20
3.961667
  0
VERTEX
  8
FOREGROUND
  6
CONTINUOUS
 10
0.640000
 20
3.971667
  0
VERTEX
  8
FOREGROUND
  6
CONTINUOUS
 10
0.678333
 20
3.980000
  0
VERTEX
  8
FOREGROUND
  6
CONTINUOUS
 10
0.716667
 20
3.986667
  0
VERTEX
  8
FOREGROUND
  6
CONTINUOUS
 10
0.756667
 20
3.991667
  0
VERTEX
  8
FOREGROUND
  6
CONTINUOUS
 10
0.796667
 20
3.995000
  0
SEQEND
  8
0
  0
ENDSEC
  0
EOF
