  0
SECTION
  2
HEADER
  9
$ACADVER
  1
AC1006
  9
$EXTMIN
 10
0.000000
 20
0.000000
  9
$EXTMAX
 10
4.555000
 20
5.336667
  9
$LTSCALE
 40
0.166667
  9
$PDMODE
 70
    35
  9
$PDSIZE
 40
0.133333
  0
ENDSEC
  0
SECTION
  2
TABLES
  0
TABLE
  2
LTYPE
 70
     9
  0
LTYPE
  2
CONTINUOUS
 70
    64
  3
Solid line
 72
    65
 73
     0
 40
0.000000
  0
LTYPE
  2
DASHED
 70
    64
  3
__ __ __ __ __ __ __ __ __ __ __ __ __ __ __
 72
    65
 73
     2
 40
0.001250
 49
0.000833
 49
-0.000417
  0
LTYPE
  2
HIDDEN
 70
    64
  3
 _ _ _ _ _ _ _ _ _ _ _ _ _ _ _ _ _ _ _ _ _ _
 72
    65
 73
     2
 40
0.000625
 49
0.000417
 49
-0.000208
  0
LTYPE
  2
CENTER
 70
    64
  3
____ _ ____ _ ____ _ ____ _ ____ _ ____ _ ____
 72
    65
 73
     4
 40
0.003333
 49
0.002083
 49
-0.000417
 49
0.000417
 49
-0.000417
  0
LTYPE
  2
PHANTOM
 70
    64
  3
_____ _ _ _____ _ _ _____ _ _ _____ _ _ ____
 72
    65
 73
     6
 40
0.004167
 49
0.002083
 49
-0.000417
 49
0.000417
 49
-0.000417
 49
0.000417
 49
-0.000417
  0
LTYPE
  2
DOT
 70
    64
  3
...............................................
 72
    65
 73
     2
 40
0.000417
 49
0.000000
 49
-0.000417
  0
LTYPE
  2
DASHDOT
 70
    64
  3
__ . __ . __ . __ . __ . __ . __ . __ . __ . __
 72
    65
 73
     4
 40
0.001667
 49
0.000833
 49
-0.000417
 49
0.000000
 49
-0.000417
  0
LTYPE
  2
BORDER
 70
    64
  3
__ __ . __ __ . __ __ . __ __ . __ __ . __ __
 72
    65
 73
     6
 40
0.002917
 49
0.000833
 49
-0.000417
 49
0.000833
 49
-0.000417
 49
0.000000
 49
-0.000417
  0
LTYPE
  2
DIVIDE
 70
    64
  3
__ . . __ . . __ . . __ . . __ . . __ . . __
 72
    65
 73
     6
 40
0.002083
 49
0.000833
 49
-0.000417
 49
0.000000
 49
-0.000417
 49
0.000000
 49
-0.000417
  0
LTYPE
  2
DOTDOT
 70
    64
  3
 . .  . .  . .  . .  . .  . . 
 72
    65
 73
     5
 40
0.000917
 49
-0.000417
 49
0.000000
 49
-0.000417
 49
0.000000
 49
-0.000417
  0
ENDTAB
  0
TABLE
  2
STYLE
 70
     2
  0
STYLE
 70
     0
  2
SN0
 40
0.000000
 41
0.001667
 50
0.000000
 71
     0
 42
0.000000
  3
ROMAND
  0
STYLE
 70
    68
  2
SV0
 40
0.000000
 41
0.001667
 50
0.000000
 71
     0
 42
0.000000
  3
ROMAND
  0
ENDTAB
  0
TABLE
  2
LAYER
 70
     2
  0
LAYER
  2
FOREGROUND
 70
    64
 62
     7
  6
CONTINUOUS
  0
LAYER
  2
BACKGROUND
 70
    65
 62
    -7
  6
CONTINUOUS
  0
ENDTAB
  0
ENDSEC
  0
SECTION
  2
ENTITIES
  0
POLYLINE
  8
FOREGROUND
 62
     7
  6
CONTINUOUS
 66
     1
 40
0.000000
 41
0.000000
 70
     1
  0
VERTEX
  8
FOREGROUND
 62
     7
  6
CONTINUOUS
 10
0.916667
 20
5.178333
  0
VERTEX
  8
FOREGROUND
 62
     7
  6
CONTINUOUS
 10
3.520000
 20
5.178333
  0
VERTEX
  8
FOREGROUND
 62
     7
  6
CONTINUOUS
 10
3.565000
 20
5.176667
  0
VERTEX
  8
FOREGROUND
 62
     7
  6
CONTINUOUS
 10
3.608333
 20
5.173333
  0
VERTEX
  8
FOREGROUND
 62
     7
  6
CONTINUOUS
 10
3.651667
 20
5.168333
  0
VERTEX
  8
FOREGROUND
 62
     7
  6
CONTINUOUS
 10
3.695000
 20
5.160000
  0
VERTEX
  8
FOREGROUND
 62
     7
  6
CONTINUOUS
 10
3.736667
 20
5.151667
  0
VERTEX
  8
FOREGROUND
 62
     7
  6
CONTINUOUS
 10
3.778333
 20
5.140000
  0
VERTEX
  8
FOREGROUND
 62
     7
  6
CONTINUOUS
 10
3.818333
 20
5.125000
  0
VERTEX
  8
FOREGROUND
 62
     7
  6
CONTINUOUS
 10
3.858333
 20
5.110000
  0
VERTEX
  8
FOREGROUND
 62
     7
  6
CONTINUOUS
 10
3.896667
 20
5.093333
  0
VERTEX
  8
FOREGROUND
 62
     7
  6
CONTINUOUS
 10
3.933333
 20
5.073333
  0
VERTEX
  8
FOREGROUND
 62
     7
  6
CONTINUOUS
 10
3.970000
 20
5.053333
  0
VERTEX
  8
FOREGROUND
 62
     7
  6
CONTINUOUS
 10
4.005000
 20
5.030000
  0
VERTEX
  8
FOREGROUND
 62
     7
  6
CONTINUOUS
 10
4.071667
 20
4.980000
  0
VERTEX
  8
FOREGROUND
 62
     7
  6
CONTINUOUS
 10
4.133333
 20
4.925000
  0
VERTEX
  8
FOREGROUND
 62
     7
  6
CONTINUOUS
 10
4.188333
 20
4.863333
  0
VERTEX
  8
FOREGROUND
 62
     7
  6
CONTINUOUS
 10
4.238333
 20
4.796667
  0
VERTEX
  8
FOREGROUND
 62
     7
  6
CONTINUOUS
 10
4.261667
 20
4.761667
  0
VERTEX
  8
FOREGROUND
 62
     7
  6
CONTINUOUS
 10
4.281667
 20
4.725000
  0
VERTEX
  8
FOREGROUND
 62
     7
  6
CONTINUOUS
 10
4.301667
 20
4.686667
  0
VERTEX
  8
FOREGROUND
 62
     7
  6
CONTINUOUS
 10
4.318333
 20
4.648333
  0
VERTEX
  8
FOREGROUND
 62
     7
  6
CONTINUOUS
 10
4.335000
 20
4.610000
  0
VERTEX
  8
FOREGROUND
 62
     7
  6
CONTINUOUS
 10
4.348333
 20
4.570000
  0
VERTEX
  8
FOREGROUND
 62
     7
  6
CONTINUOUS
 10
4.360000
 20
4.528333
  0
VERTEX
  8
FOREGROUND
 62
     7
  6
CONTINUOUS
 10
4.370000
 20
4.486667
  0
VERTEX
  8
FOREGROUND
 62
     7
  6
CONTINUOUS
 10
4.376667
 20
4.443333
  0
VERTEX
  8
FOREGROUND
 62
     7
  6
CONTINUOUS
 10
4.381667
 20
4.400000
  0
VERTEX
  8
FOREGROUND
 62
     7
  6
CONTINUOUS
 10
4.385000
 20
4.356667
  0
VERTEX
  8
FOREGROUND
 62
     7
  6
CONTINUOUS
 10
4.386667
 20
4.311667
  0
VERTEX
  8
FOREGROUND
 62
     7
  6
CONTINUOUS
 10
4.386667
 20
0.925000
  0
VERTEX
  8
FOREGROUND
 62
     7
  6
CONTINUOUS
 10
4.385000
 20
0.880000
  0
VERTEX
  8
FOREGROUND
 62
     7
  6
CONTINUOUS
 10
4.381667
 20
0.836667
  0
VERTEX
  8
FOREGROUND
 62
     7
  6
CONTINUOUS
 10
4.376667
 20
0.793333
  0
VERTEX
  8
FOREGROUND
 62
     7
  6
CONTINUOUS
 10
4.370000
 20
0.750000
  0
VERTEX
  8
FOREGROUND
 62
     7
  6
CONTINUOUS
 10
4.360000
 20
0.708333
  0
VERTEX
  8
FOREGROUND
 62
     7
  6
CONTINUOUS
 10
4.348333
 20
0.666667
  0
VERTEX
  8
FOREGROUND
 62
     7
  6
CONTINUOUS
 10
4.335000
 20
0.626667
  0
VERTEX
  8
FOREGROUND
 62
     7
  6
CONTINUOUS
 10
4.318333
 20
0.586667
  0
VERTEX
  8
FOREGROUND
 62
     7
  6
CONTINUOUS
 10
4.301667
 20
0.548333
  0
VERTEX
  8
FOREGROUND
 62
     7
  6
CONTINUOUS
 10
4.281667
 20
0.511667
  0
VERTEX
  8
FOREGROUND
 62
     7
  6
CONTINUOUS
 10
4.261667
 20
0.475000
  0
VERTEX
  8
FOREGROUND
 62
     7
  6
CONTINUOUS
 10
4.238333
 20
0.440000
  0
VERTEX
  8
FOREGROUND
 62
     7
  6
CONTINUOUS
 10
4.188333
 20
0.373333
  0
VERTEX
  8
FOREGROUND
 62
     7
  6
CONTINUOUS
 10
4.133333
 20
0.311667
  0
VERTEX
  8
FOREGROUND
 62
     7
  6
CONTINUOUS
 10
4.071667
 20
0.256667
  0
VERTEX
  8
FOREGROUND
 62
     7
  6
CONTINUOUS
 10
4.005000
 20
0.206667
  0
VERTEX
  8
FOREGROUND
 62
     7
  6
CONTINUOUS
 10
3.970000
 20
0.183333
  0
VERTEX
  8
FOREGROUND
 62
     7
  6
CONTINUOUS
 10
3.933333
 20
0.163333
  0
VERTEX
  8
FOREGROUND
 62
     7
  6
CONTINUOUS
 10
3.896667
 20
0.143333
  0
VERTEX
  8
FOREGROUND
 62
     7
  6
CONTINUOUS
 10
3.858333
 20
0.126667
  0
VERTEX
  8
FOREGROUND
 62
     7
  6
CONTINUOUS
 10
3.818333
 20
0.110000
  0
VERTEX
  8
FOREGROUND
 62
     7
  6
CONTINUOUS
 10
3.778333
 20
0.096667
  0
VERTEX
  8
FOREGROUND
 62
     7
  6
CONTINUOUS
 10
3.736667
 20
0.085000
  0
VERTEX
  8
FOREGROUND
 62
     7
  6
CONTINUOUS
 10
3.695000
 20
0.075000
  0
VERTEX
  8
FOREGROUND
 62
     7
  6
CONTINUOUS
 10
3.651667
 20
0.068333
  0
VERTEX
  8
FOREGROUND
 62
     7
  6
CONTINUOUS
 10
3.608333
 20
0.063333
  0
VERTEX
  8
FOREGROUND
 62
     7
  6
CONTINUOUS
 10
3.565000
 20
0.060000
  0
VERTEX
  8
FOREGROUND
 62
     7
  6
CONTINUOUS
 10
3.520000
 20
0.058333
  0
VERTEX
  8
FOREGROUND
 62
     7
  6
CONTINUOUS
 10
0.916667
 20
0.058333
  0
VERTEX
  8
FOREGROUND
 62
     7
  6
CONTINUOUS
 10
0.871667
 20
0.060000
  0
VERTEX
  8
FOREGROUND
 62
     7
  6
CONTINUOUS
 10
0.828333
 20
0.063333
  0
VERTEX
  8
FOREGROUND
 62
     7
  6
CONTINUOUS
 10
0.785000
 20
0.068333
  0
VERTEX
  8
FOREGROUND
 62
     7
  6
CONTINUOUS
 10
0.741667
 20
0.075000
  0
VERTEX
  8
FOREGROUND
 62
     7
  6
CONTINUOUS
 10
0.700000
 20
0.085000
  0
VERTEX
  8
FOREGROUND
 62
     7
  6
CONTINUOUS
 10
0.658333
 20
0.096667
  0
VERTEX
  8
FOREGROUND
 62
     7
  6
CONTINUOUS
 10
0.618333
 20
0.110000
  0
VERTEX
  8
FOREGROUND
 62
     7
  6
CONTINUOUS
 10
0.580000
 20
0.126667
  0
VERTEX
  8
FOREGROUND
 62
     7
  6
CONTINUOUS
 10
0.541667
 20
0.143333
  0
VERTEX
  8
FOREGROUND
 62
     7
  6
CONTINUOUS
 10
0.503333
 20
0.163333
  0
VERTEX
  8
FOREGROUND
 62
     7
  6
CONTINUOUS
 10
0.466667
 20
0.183333
  0
VERTEX
  8
FOREGROUND
 62
     7
  6
CONTINUOUS
 10
0.431667
 20
0.206667
  0
VERTEX
  8
FOREGROUND
 62
     7
  6
CONTINUOUS
 10
0.365000
 20
0.256667
  0
VERTEX
  8
FOREGROUND
 62
     7
  6
CONTINUOUS
 10
0.303333
 20
0.311667
  0
VERTEX
  8
FOREGROUND
 62
     7
  6
CONTINUOUS
 10
0.248333
 20
0.373333
  0
VERTEX
  8
FOREGROUND
 62
     7
  6
CONTINUOUS
 10
0.198333
 20
0.440000
  0
VERTEX
  8
FOREGROUND
 62
     7
  6
CONTINUOUS
 10
0.175000
 20
0.475000
  0
VERTEX
  8
FOREGROUND
 62
     7
  6
CONTINUOUS
 10
0.155000
 20
0.511667
  0
VERTEX
  8
FOREGROUND
 62
     7
  6
CONTINUOUS
 10
0.135000
 20
0.548333
  0
VERTEX
  8
FOREGROUND
 62
     7
  6
CONTINUOUS
 10
0.118333
 20
0.586667
  0
VERTEX
  8
FOREGROUND
 62
     7
  6
CONTINUOUS
 10
0.103333
 20
0.626667
  0
VERTEX
  8
FOREGROUND
 62
     7
  6
CONTINUOUS
 10
0.088333
 20
0.666667
  0
VERTEX
  8
FOREGROUND
 62
     7
  6
CONTINUOUS
 10
0.076667
 20
0.708333
  0
VERTEX
  8
FOREGROUND
 62
     7
  6
CONTINUOUS
 10
0.068333
 20
0.750000
  0
VERTEX
  8
FOREGROUND
 62
     7
  6
CONTINUOUS
 10
0.060000
 20
0.793333
  0
VERTEX
  8
FOREGROUND
 62
     7
  6
CONTINUOUS
 10
0.055000
 20
0.836667
  0
VERTEX
  8
FOREGROUND
 62
     7
  6
CONTINUOUS
 10
0.051667
 20
0.880000
  0
VERTEX
  8
FOREGROUND
 62
     7
  6
CONTINUOUS
 10
0.050000
 20
0.925000
  0
VERTEX
  8
FOREGROUND
 62
     7
  6
CONTINUOUS
 10
0.050000
 20
4.311667
  0
VERTEX
  8
FOREGROUND
 62
     7
  6
CONTINUOUS
 10
0.051667
 20
4.356667
  0
VERTEX
  8
FOREGROUND
 62
     7
  6
CONTINUOUS
 10
0.055000
 20
4.400000
  0
VERTEX
  8
FOREGROUND
 62
     7
  6
CONTINUOUS
 10
0.060000
 20
4.443333
  0
VERTEX
  8
FOREGROUND
 62
     7
  6
CONTINUOUS
 10
0.068333
 20
4.486667
  0
VERTEX
  8
FOREGROUND
 62
     7
  6
CONTINUOUS
 10
0.076667
 20
4.528333
  0
VERTEX
  8
FOREGROUND
 62
     7
  6
CONTINUOUS
 10
0.088333
 20
4.570000
  0
VERTEX
  8
FOREGROUND
 62
     7
  6
CONTINUOUS
 10
0.103333
 20
4.610000
  0
VERTEX
  8
FOREGROUND
 62
     7
  6
CONTINUOUS
 10
0.118333
 20
4.648333
  0
VERTEX
  8
FOREGROUND
 62
     7
  6
CONTINUOUS
 10
0.135000
 20
4.686667
  0
VERTEX
  8
FOREGROUND
 62
     7
  6
CONTINUOUS
 10
0.155000
 20
4.725000
  0
VERTEX
  8
FOREGROUND
 62
     7
  6
CONTINUOUS
 10
0.175000
 20
4.761667
  0
VERTEX
  8
FOREGROUND
 62
     7
  6
CONTINUOUS
 10
0.198333
 20
4.796667
  0
VERTEX
  8
FOREGROUND
 62
     7
  6
CONTINUOUS
 10
0.248333
 20
4.863333
  0
VERTEX
  8
FOREGROUND
 62
     7
  6
CONTINUOUS
 10
0.303333
 20
4.925000
  0
VERTEX
  8
FOREGROUND
 62
     7
  6
CONTINUOUS
 10
0.365000
 20
4.980000
  0
VERTEX
  8
FOREGROUND
 62
     7
  6
CONTINUOUS
 10
0.431667
 20
5.030000
  0
VERTEX
  8
FOREGROUND
 62
     7
  6
CONTINUOUS
 10
0.466667
 20
5.053333
  0
VERTEX
  8
FOREGROUND
 62
     7
  6
CONTINUOUS
 10
0.503333
 20
5.073333
  0
VERTEX
  8
FOREGROUND
 62
     7
  6
CONTINUOUS
 10
0.541667
 20
5.093333
  0
VERTEX
  8
FOREGROUND
 62
     7
  6
CONTINUOUS
 10
0.580000
 20
5.110000
  0
VERTEX
  8
FOREGROUND
 62
     7
  6
CONTINUOUS
 10
0.618333
 20
5.125000
  0
VERTEX
  8
FOREGROUND
 62
     7
  6
CONTINUOUS
 10
0.658333
 20
5.140000
  0
VERTEX
  8
FOREGROUND
 62
     7
  6
CONTINUOUS
 10
0.700000
 20
5.151667
  0
VERTEX
  8
FOREGROUND
 62
     7
  6
CONTINUOUS
 10
0.741667
 20
5.160000
  0
VERTEX
  8
FOREGROUND
 62
     7
  6
CONTINUOUS
 10
0.785000
 20
5.168333
  0
VERTEX
  8
FOREGROUND
 62
     7
  6
CONTINUOUS
 10
0.828333
 20
5.173333
  0
VERTEX
  8
FOREGROUND
 62
     7
  6
CONTINUOUS
 10
0.871667
 20
5.176667
  0
SEQEND
  8
0
  0
POLYLINE
  8
FOREGROUND
  6
CONTINUOUS
 66
     1
 40
0.010000
 41
0.010000
 70
     1
  0
VERTEX
  8
FOREGROUND
  6
CONTINUOUS
 10
0.916667
 20
5.178333
  0
VERTEX
  8
FOREGROUND
  6
CONTINUOUS
 10
3.520000
 20
5.178333
  0
VERTEX
  8
FOREGROUND
  6
CONTINUOUS
 10
3.565000
 20
5.176667
  0
VERTEX
  8
FOREGROUND
  6
CONTINUOUS
 10
3.608333
 20
5.173333
  0
VERTEX
  8
FOREGROUND
  6
CONTINUOUS
 10
3.651667
 20
5.168333
  0
VERTEX
  8
FOREGROUND
  6
CONTINUOUS
 10
3.695000
 20
5.160000
  0
VERTEX
  8
FOREGROUND
  6
CONTINUOUS
 10
3.736667
 20
5.151667
  0
VERTEX
  8
FOREGROUND
  6
CONTINUOUS
 10
3.778333
 20
5.140000
  0
VERTEX
  8
FOREGROUND
  6
CONTINUOUS
 10
3.818333
 20
5.125000
  0
VERTEX
  8
FOREGROUND
  6
CONTINUOUS
 10
3.858333
 20
5.110000
  0
VERTEX
  8
FOREGROUND
  6
CONTINUOUS
 10
3.896667
 20
5.093333
  0
VERTEX
  8
FOREGROUND
  6
CONTINUOUS
 10
3.933333
 20
5.073333
  0
VERTEX
  8
FOREGROUND
  6
CONTINUOUS
 10
3.970000
 20
5.053333
  0
VERTEX
  8
FOREGROUND
  6
CONTINUOUS
 10
4.005000
 20
5.030000
  0
VERTEX
  8
FOREGROUND
  6
CONTINUOUS
 10
4.071667
 20
4.980000
  0
VERTEX
  8
FOREGROUND
  6
CONTINUOUS
 10
4.133333
 20
4.925000
  0
VERTEX
  8
FOREGROUND
  6
CONTINUOUS
 10
4.188333
 20
4.863333
  0
VERTEX
  8
FOREGROUND
  6
CONTINUOUS
 10
4.238333
 20
4.796667
  0
VERTEX
  8
FOREGROUND
  6
CONTINUOUS
 10
4.261667
 20
4.761667
  0
VERTEX
  8
FOREGROUND
  6
CONTINUOUS
 10
4.281667
 20
4.725000
  0
VERTEX
  8
FOREGROUND
  6
CONTINUOUS
 10
4.301667
 20
4.686667
  0
VERTEX
  8
FOREGROUND
  6
CONTINUOUS
 10
4.318333
 20
4.648333
  0
VERTEX
  8
FOREGROUND
  6
CONTINUOUS
 10
4.335000
 20
4.610000
  0
VERTEX
  8
FOREGROUND
  6
CONTINUOUS
 10
4.348333
 20
4.570000
  0
VERTEX
  8
FOREGROUND
  6
CONTINUOUS
 10
4.360000
 20
4.528333
  0
VERTEX
  8
FOREGROUND
  6
CONTINUOUS
 10
4.370000
 20
4.486667
  0
VERTEX
  8
FOREGROUND
  6
CONTINUOUS
 10
4.376667
 20
4.443333
  0
VERTEX
  8
FOREGROUND
  6
CONTINUOUS
 10
4.381667
 20
4.400000
  0
VERTEX
  8
FOREGROUND
  6
CONTINUOUS
 10
4.385000
 20
4.356667
  0
VERTEX
  8
FOREGROUND
  6
CONTINUOUS
 10
4.386667
 20
4.311667
  0
VERTEX
  8
FOREGROUND
  6
CONTINUOUS
 10
4.386667
 20
0.925000
  0
VERTEX
  8
FOREGROUND
  6
CONTINUOUS
 10
4.385000
 20
0.880000
  0
VERTEX
  8
FOREGROUND
  6
CONTINUOUS
 10
4.381667
 20
0.836667
  0
VERTEX
  8
FOREGROUND
  6
CONTINUOUS
 10
4.376667
 20
0.793333
  0
VERTEX
  8
FOREGROUND
  6
CONTINUOUS
 10
4.370000
 20
0.750000
  0
VERTEX
  8
FOREGROUND
  6
CONTINUOUS
 10
4.360000
 20
0.708333
  0
VERTEX
  8
FOREGROUND
  6
CONTINUOUS
 10
4.348333
 20
0.666667
  0
VERTEX
  8
FOREGROUND
  6
CONTINUOUS
 10
4.335000
 20
0.626667
  0
VERTEX
  8
FOREGROUND
  6
CONTINUOUS
 10
4.318333
 20
0.586667
  0
VERTEX
  8
FOREGROUND
  6
CONTINUOUS
 10
4.301667
 20
0.548333
  0
VERTEX
  8
FOREGROUND
  6
CONTINUOUS
 10
4.281667
 20
0.511667
  0
VERTEX
  8
FOREGROUND
  6
CONTINUOUS
 10
4.261667
 20
0.475000
  0
VERTEX
  8
FOREGROUND
  6
CONTINUOUS
 10
4.238333
 20
0.440000
  0
VERTEX
  8
FOREGROUND
  6
CONTINUOUS
 10
4.188333
 20
0.373333
  0
VERTEX
  8
FOREGROUND
  6
CONTINUOUS
 10
4.133333
 20
0.311667
  0
VERTEX
  8
FOREGROUND
  6
CONTINUOUS
 10
4.071667
 20
0.256667
  0
VERTEX
  8
FOREGROUND
  6
CONTINUOUS
 10
4.005000
 20
0.206667
  0
VERTEX
  8
FOREGROUND
  6
CONTINUOUS
 10
3.970000
 20
0.183333
  0
VERTEX
  8
FOREGROUND
  6
CONTINUOUS
 10
3.933333
 20
0.163333
  0
VERTEX
  8
FOREGROUND
  6
CONTINUOUS
 10
3.896667
 20
0.143333
  0
VERTEX
  8
FOREGROUND
  6
CONTINUOUS
 10
3.858333
 20
0.126667
  0
VERTEX
  8
FOREGROUND
  6
CONTINUOUS
 10
3.818333
 20
0.110000
  0
VERTEX
  8
FOREGROUND
  6
CONTINUOUS
 10
3.778333
 20
0.096667
  0
VERTEX
  8
FOREGROUND
  6
CONTINUOUS
 10
3.736667
 20
0.085000
  0
VERTEX
  8
FOREGROUND
  6
CONTINUOUS
 10
3.695000
 20
0.075000
  0
VERTEX
  8
FOREGROUND
  6
CONTINUOUS
 10
3.651667
 20
0.068333
  0
VERTEX
  8
FOREGROUND
  6
CONTINUOUS
 10
3.608333
 20
0.063333
  0
VERTEX
  8
FOREGROUND
  6
CONTINUOUS
 10
3.565000
 20
0.060000
  0
VERTEX
  8
FOREGROUND
  6
CONTINUOUS
 10
3.520000
 20
0.058333
  0
VERTEX
  8
FOREGROUND
  6
CONTINUOUS
 10
0.916667
 20
0.058333
  0
VERTEX
  8
FOREGROUND
  6
CONTINUOUS
 10
0.871667
 20
0.060000
  0
VERTEX
  8
FOREGROUND
  6
CONTINUOUS
 10
0.828333
 20
0.063333
  0
VERTEX
  8
FOREGROUND
  6
CONTINUOUS
 10
0.785000
 20
0.068333
  0
VERTEX
  8
FOREGROUND
  6
CONTINUOUS
 10
0.741667
 20
0.075000
  0
VERTEX
  8
FOREGROUND
  6
CONTINUOUS
 10
0.700000
 20
0.085000
  0
VERTEX
  8
FOREGROUND
  6
CONTINUOUS
 10
0.658333
 20
0.096667
  0
VERTEX
  8
FOREGROUND
  6
CONTINUOUS
 10
0.618333
 20
0.110000
  0
VERTEX
  8
FOREGROUND
  6
CONTINUOUS
 10
0.580000
 20
0.126667
  0
VERTEX
  8
FOREGROUND
  6
CONTINUOUS
 10
0.541667
 20
0.143333
  0
VERTEX
  8
FOREGROUND
  6
CONTINUOUS
 10
0.503333
 20
0.163333
  0
VERTEX
  8
FOREGROUND
  6
CONTINUOUS
 10
0.466667
 20
0.183333
  0
VERTEX
  8
FOREGROUND
  6
CONTINUOUS
 10
0.431667
 20
0.206667
  0
VERTEX
  8
FOREGROUND
  6
CONTINUOUS
 10
0.365000
 20
0.256667
  0
VERTEX
  8
FOREGROUND
  6
CONTINUOUS
 10
0.303333
 20
0.311667
  0
VERTEX
  8
FOREGROUND
  6
CONTINUOUS
 10
0.248333
 20
0.373333
  0
VERTEX
  8
FOREGROUND
  6
CONTINUOUS
 10
0.198333
 20
0.440000
  0
VERTEX
  8
FOREGROUND
  6
CONTINUOUS
 10
0.175000
 20
0.475000
  0
VERTEX
  8
FOREGROUND
  6
CONTINUOUS
 10
0.155000
 20
0.511667
  0
VERTEX
  8
FOREGROUND
  6
CONTINUOUS
 10
0.135000
 20
0.548333
  0
VERTEX
  8
FOREGROUND
  6
CONTINUOUS
 10
0.118333
 20
0.586667
  0
VERTEX
  8
FOREGROUND
  6
CONTINUOUS
 10
0.103333
 20
0.626667
  0
VERTEX
  8
FOREGROUND
  6
CONTINUOUS
 10
0.088333
 20
0.666667
  0
VERTEX
  8
FOREGROUND
  6
CONTINUOUS
 10
0.076667
 20
0.708333
  0
VERTEX
  8
FOREGROUND
  6
CONTINUOUS
 10
0.068333
 20
0.750000
  0
VERTEX
  8
FOREGROUND
  6
CONTINUOUS
 10
0.060000
 20
0.793333
  0
VERTEX
  8
FOREGROUND
  6
CONTINUOUS
 10
0.055000
 20
0.836667
  0
VERTEX
  8
FOREGROUND
  6
CONTINUOUS
 10
0.051667
 20
0.880000
  0
VERTEX
  8
FOREGROUND
  6
CONTINUOUS
 10
0.050000
 20
0.925000
  0
VERTEX
  8
FOREGROUND
  6
CONTINUOUS
 10
0.050000
 20
4.311667
  0
VERTEX
  8
FOREGROUND
  6
CONTINUOUS
 10
0.051667
 20
4.356667
  0
VERTEX
  8
FOREGROUND
  6
CONTINUOUS
 10
0.055000
 20
4.400000
  0
VERTEX
  8
FOREGROUND
  6
CONTINUOUS
 10
0.060000
 20
4.443333
  0
VERTEX
  8
FOREGROUND
  6
CONTINUOUS
 10
0.068333
 20
4.486667
  0
VERTEX
  8
FOREGROUND
  6
CONTINUOUS
 10
0.076667
 20
4.528333
  0
VERTEX
  8
FOREGROUND
  6
CONTINUOUS
 10
0.088333
 20
4.570000
  0
VERTEX
  8
FOREGROUND
  6
CONTINUOUS
 10
0.103333
 20
4.610000
  0
VERTEX
  8
FOREGROUND
  6
CONTINUOUS
 10
0.118333
 20
4.648333
  0
VERTEX
  8
FOREGROUND
  6
CONTINUOUS
 10
0.135000
 20
4.686667
  0
VERTEX
  8
FOREGROUND
  6
CONTINUOUS
 10
0.155000
 20
4.725000
  0
VERTEX
  8
FOREGROUND
  6
CONTINUOUS
 10
0.175000
 20
4.761667
  0
VERTEX
  8
FOREGROUND
  6
CONTINUOUS
 10
0.198333
 20
4.796667
  0
VERTEX
  8
FOREGROUND
  6
CONTINUOUS
 10
0.248333
 20
4.863333
  0
VERTEX
  8
FOREGROUND
  6
CONTINUOUS
 10
0.303333
 20
4.925000
  0
VERTEX
  8
FOREGROUND
  6
CONTINUOUS
 10
0.365000
 20
4.980000
  0
VERTEX
  8
FOREGROUND
  6
CONTINUOUS
 10
0.431667
 20
5.030000
  0
VERTEX
  8
FOREGROUND
  6
CONTINUOUS
 10
0.466667
 20
5.053333
  0
VERTEX
  8
FOREGROUND
  6
CONTINUOUS
 10
0.503333
 20
5.073333
  0
VERTEX
  8
FOREGROUND
  6
CONTINUOUS
 10
0.541667
 20
5.093333
  0
VERTEX
  8
FOREGROUND
  6
CONTINUOUS
 10
0.580000
 20
5.110000
  0
VERTEX
  8
FOREGROUND
  6
CONTINUOUS
 10
0.618333
 20
5.125000
  0
VERTEX
  8
FOREGROUND
  6
CONTINUOUS
 10
0.658333
 20
5.140000
  0
VERTEX
  8
FOREGROUND
  6
CONTINUOUS
 10
0.700000
 20
5.151667
  0
VERTEX
  8
FOREGROUND
  6
CONTINUOUS
 10
0.741667
 20
5.160000
  0
VERTEX
  8
FOREGROUND
  6
CONTINUOUS
 10
0.785000
 20
5.168333
  0
VERTEX
  8
FOREGROUND
  6
CONTINUOUS
 10
0.828333
 20
5.173333
  0
VERTEX
  8
FOREGROUND
  6
CONTINUOUS
 10
0.871667
 20
5.176667
  0
SEQEND
  8
0
  0
ENDSEC
  0
EOF
