  0
SECTION
  2
HEADER
  9
$ACADVER
  1
AC1006
  9
$EXTMIN
 10
0.000000
 20
0.000000
  9
$EXTMAX
 10
4.438333
 20
4.441667
  9
$LTSCALE
 40
0.166667
  9
$PDMODE
 70
    35
  9
$PDSIZE
 40
0.133333
  0
ENDSEC
  0
SECTION
  2
TABLES
  0
TABLE
  2
LTYPE
 70
     9
  0
LTYPE
  2
CONTINUOUS
 70
    64
  3
Solid line
 72
    65
 73
     0
 40
0.000000
  0
LTYPE
  2
DASHED
 70
    64
  3
__ __ __ __ __ __ __ __ __ __ __ __ __ __ __
 72
    65
 73
     2
 40
0.001250
 49
0.000833
 49
-0.000417
  0
LTYPE
  2
HIDDEN
 70
    64
  3
 _ _ _ _ _ _ _ _ _ _ _ _ _ _ _ _ _ _ _ _ _ _
 72
    65
 73
     2
 40
0.000625
 49
0.000417
 49
-0.000208
  0
LTYPE
  2
CENTER
 70
    64
  3
____ _ ____ _ ____ _ ____ _ ____ _ ____ _ ____
 72
    65
 73
     4
 40
0.003333
 49
0.002083
 49
-0.000417
 49
0.000417
 49
-0.000417
  0
LTYPE
  2
PHANTOM
 70
    64
  3
_____ _ _ _____ _ _ _____ _ _ _____ _ _ ____
 72
    65
 73
     6
 40
0.004167
 49
0.002083
 49
-0.000417
 49
0.000417
 49
-0.000417
 49
0.000417
 49
-0.000417
  0
LTYPE
  2
DOT
 70
    64
  3
...............................................
 72
    65
 73
     2
 40
0.000417
 49
0.000000
 49
-0.000417
  0
LTYPE
  2
DASHDOT
 70
    64
  3
__ . __ . __ . __ . __ . __ . __ . __ . __ . __
 72
    65
 73
     4
 40
0.001667
 49
0.000833
 49
-0.000417
 49
0.000000
 49
-0.000417
  0
LTYPE
  2
BORDER
 70
    64
  3
__ __ . __ __ . __ __ . __ __ . __ __ . __ __
 72
    65
 73
     6
 40
0.002917
 49
0.000833
 49
-0.000417
 49
0.000833
 49
-0.000417
 49
0.000000
 49
-0.000417
  0
LTYPE
  2
DIVIDE
 70
    64
  3
__ . . __ . . __ . . __ . . __ . . __ . . __
 72
    65
 73
     6
 40
0.002083
 49
0.000833
 49
-0.000417
 49
0.000000
 49
-0.000417
 49
0.000000
 49
-0.000417
  0
LTYPE
  2
DOTDOT
 70
    64
  3
 . .  . .  . .  . .  . .  . . 
 72
    65
 73
     5
 40
0.000917
 49
-0.000417
 49
0.000000
 49
-0.000417
 49
0.000000
 49
-0.000417
  0
ENDTAB
  0
TABLE
  2
STYLE
 70
     2
  0
STYLE
 70
     0
  2
SN0
 40
0.000000
 41
0.001667
 50
0.000000
 71
     0
 42
0.000000
  3
ROMAND
  0
STYLE
 70
    68
  2
SV0
 40
0.000000
 41
0.001667
 50
0.000000
 71
     0
 42
0.000000
  3
ROMAND
  0
ENDTAB
  0
TABLE
  2
LAYER
 70
     2
  0
LAYER
  2
FOREGROUND
 70
    64
 62
     7
  6
CONTINUOUS
  0
LAYER
  2
BACKGROUND
 70
    65
 62
    -7
  6
CONTINUOUS
  0
ENDTAB
  0
ENDSEC
  0
SECTION
  2
ENTITIES
  0
POLYLINE
  8
FOREGROUND
  6
CONTINUOUS
 66
     1
 40
0.010000
 41
0.010000
 70
     1
  0
VERTEX
  8
FOREGROUND
  6
CONTINUOUS
 10
3.520000
 20
0.050000
  0
VERTEX
  8
FOREGROUND
  6
CONTINUOUS
 10
3.550484
 20
0.050548
  0
VERTEX
  8
FOREGROUND
  6
CONTINUOUS
 10
3.580703
 20
0.052134
  0
VERTEX
  8
FOREGROUND
  6
CONTINUOUS
 10
3.610640
 20
0.054738
  0
VERTEX
  8
FOREGROUND
  6
CONTINUOUS
 10
3.640278
 20
0.058346
  0
VERTEX
  8
FOREGROUND
  6
CONTINUOUS
 10
3.669600
 20
0.062938
  0
VERTEX
  8
FOREGROUND
  6
CONTINUOUS
 10
3.698588
 20
0.068499
  0
VERTEX
  8
FOREGROUND
  6
CONTINUOUS
 10
3.727226
 20
0.075010
  0
VERTEX
  8
FOREGROUND
  6
CONTINUOUS
 10
3.755496
 20
0.082455
  0
VERTEX
  8
FOREGROUND
  6
CONTINUOUS
 10
3.783381
 20
0.090817
  0
VERTEX
  8
FOREGROUND
  6
CONTINUOUS
 10
3.810864
 20
0.100079
  0
VERTEX
  8
FOREGROUND
  6
CONTINUOUS
 10
3.837928
 20
0.110223
  0
VERTEX
  8
FOREGROUND
  6
CONTINUOUS
 10
3.864556
 20
0.121231
  0
VERTEX
  8
FOREGROUND
  6
CONTINUOUS
 10
3.890730
 20
0.133089
  0
VERTEX
  8
FOREGROUND
  6
CONTINUOUS
 10
3.916433
 20
0.145776
  0
VERTEX
  8
FOREGROUND
  6
CONTINUOUS
 10
3.941649
 20
0.159278
  0
VERTEX
  8
FOREGROUND
  6
CONTINUOUS
 10
3.966359
 20
0.173576
  0
VERTEX
  8
FOREGROUND
  6
CONTINUOUS
 10
3.990548
 20
0.188654
  0
VERTEX
  8
FOREGROUND
  6
CONTINUOUS
 10
4.014197
 20
0.204494
  0
VERTEX
  8
FOREGROUND
  6
CONTINUOUS
 10
4.037290
 20
0.221079
  0
VERTEX
  8
FOREGROUND
  6
CONTINUOUS
 10
4.059809
 20
0.238392
  0
VERTEX
  8
FOREGROUND
  6
CONTINUOUS
 10
4.081737
 20
0.256416
  0
VERTEX
  8
FOREGROUND
  6
CONTINUOUS
 10
4.103058
 20
0.275133
  0
VERTEX
  8
FOREGROUND
  6
CONTINUOUS
 10
4.123753
 20
0.294527
  0
VERTEX
  8
FOREGROUND
  6
CONTINUOUS
 10
4.143806
 20
0.314580
  0
VERTEX
  8
FOREGROUND
  6
CONTINUOUS
 10
4.163200
 20
0.335276
  0
VERTEX
  8
FOREGROUND
  6
CONTINUOUS
 10
4.181918
 20
0.356596
  0
VERTEX
  8
FOREGROUND
  6
CONTINUOUS
 10
4.199942
 20
0.378525
  0
VERTEX
  8
FOREGROUND
  6
CONTINUOUS
 10
4.217255
 20
0.401044
  0
VERTEX
  8
FOREGROUND
  6
CONTINUOUS
 10
4.233840
 20
0.424137
  0
VERTEX
  8
FOREGROUND
  6
CONTINUOUS
 10
4.249679
 20
0.447786
  0
VERTEX
  8
FOREGROUND
  6
CONTINUOUS
 10
4.264757
 20
0.471974
  0
VERTEX
  8
FOREGROUND
  6
CONTINUOUS
 10
4.279055
 20
0.496685
  0
VERTEX
  8
FOREGROUND
  6
CONTINUOUS
 10
4.292557
 20
0.521900
  0
VERTEX
  8
FOREGROUND
  6
CONTINUOUS
 10
4.305245
 20
0.547604
  0
VERTEX
  8
FOREGROUND
  6
CONTINUOUS
 10
4.317102
 20
0.573778
  0
VERTEX
  8
FOREGROUND
  6
CONTINUOUS
 10
4.328111
 20
0.600405
  0
VERTEX
  8
FOREGROUND
  6
CONTINUOUS
 10
4.338255
 20
0.627469
  0
VERTEX
  8
FOREGROUND
  6
CONTINUOUS
 10
4.347516
 20
0.654952
  0
VERTEX
  8
FOREGROUND
  6
CONTINUOUS
 10
4.355878
 20
0.682837
  0
VERTEX
  8
FOREGROUND
  6
CONTINUOUS
 10
4.363323
 20
0.711107
  0
VERTEX
  8
FOREGROUND
  6
CONTINUOUS
 10
4.369835
 20
0.739745
  0
VERTEX
  8
FOREGROUND
  6
CONTINUOUS
 10
4.375395
 20
0.768733
  0
VERTEX
  8
FOREGROUND
  6
CONTINUOUS
 10
4.379988
 20
0.798055
  0
VERTEX
  8
FOREGROUND
  6
CONTINUOUS
 10
4.383595
 20
0.827693
  0
VERTEX
  8
FOREGROUND
  6
CONTINUOUS
 10
4.386200
 20
0.857630
  0
VERTEX
  8
FOREGROUND
  6
CONTINUOUS
 10
4.387785
 20
0.887849
  0
VERTEX
  8
FOREGROUND
  6
CONTINUOUS
 10
4.388333
 20
0.918333
  0
VERTEX
  8
FOREGROUND
  6
CONTINUOUS
 10
4.388333
 20
3.523333
  0
VERTEX
  8
FOREGROUND
  6
CONTINUOUS
 10
4.387785
 20
3.553821
  0
VERTEX
  8
FOREGROUND
  6
CONTINUOUS
 10
4.386199
 20
3.584044
  0
VERTEX
  8
FOREGROUND
  6
CONTINUOUS
 10
4.383594
 20
3.613985
  0
VERTEX
  8
FOREGROUND
  6
CONTINUOUS
 10
4.379986
 20
3.643627
  0
VERTEX
  8
FOREGROUND
  6
CONTINUOUS
 10
4.375392
 20
3.672952
  0
VERTEX
  8
FOREGROUND
  6
CONTINUOUS
 10
4.369830
 20
3.701944
  0
VERTEX
  8
FOREGROUND
  6
CONTINUOUS
 10
4.363317
 20
3.730585
  0
VERTEX
  8
FOREGROUND
  6
CONTINUOUS
 10
4.355870
 20
3.758858
  0
VERTEX
  8
FOREGROUND
  6
CONTINUOUS
 10
4.347506
 20
3.786746
  0
VERTEX
  8
FOREGROUND
  6
CONTINUOUS
 10
4.338243
 20
3.814232
  0
VERTEX
  8
FOREGROUND
  6
CONTINUOUS
 10
4.328096
 20
3.841299
  0
VERTEX
  8
FOREGROUND
  6
CONTINUOUS
 10
4.317085
 20
3.867929
  0
VERTEX
  8
FOREGROUND
  6
CONTINUOUS
 10
4.305225
 20
3.894105
  0
VERTEX
  8
FOREGROUND
  6
CONTINUOUS
 10
4.292534
 20
3.919811
  0
VERTEX
  8
FOREGROUND
  6
CONTINUOUS
 10
4.279030
 20
3.945028
  0
VERTEX
  8
FOREGROUND
  6
CONTINUOUS
 10
4.264728
 20
3.969741
  0
VERTEX
  8
FOREGROUND
  6
CONTINUOUS
 10
4.249647
 20
3.993931
  0
VERTEX
  8
FOREGROUND
  6
CONTINUOUS
 10
4.233804
 20
4.017582
  0
VERTEX
  8
FOREGROUND
  6
CONTINUOUS
 10
4.217215
 20
4.040676
  0
VERTEX
  8
FOREGROUND
  6
CONTINUOUS
 10
4.199899
 20
4.063196
  0
VERTEX
  8
FOREGROUND
  6
CONTINUOUS
 10
4.181871
 20
4.085126
  0
VERTEX
  8
FOREGROUND
  6
CONTINUOUS
 10
4.163150
 20
4.106447
  0
VERTEX
  8
FOREGROUND
  6
CONTINUOUS
 10
4.143752
 20
4.127143
  0
VERTEX
  8
FOREGROUND
  6
CONTINUOUS
 10
4.123694
 20
4.147197
  0
VERTEX
  8
FOREGROUND
  6
CONTINUOUS
 10
4.102994
 20
4.166591
  0
VERTEX
  8
FOREGROUND
  6
CONTINUOUS
 10
4.081670
 20
4.185308
  0
VERTEX
  8
FOREGROUND
  6
CONTINUOUS
 10
4.059737
 20
4.203332
  0
VERTEX
  8
FOREGROUND
  6
CONTINUOUS
 10
4.037213
 20
4.220644
  0
VERTEX
  8
FOREGROUND
  6
CONTINUOUS
 10
4.014116
 20
4.237229
  0
VERTEX
  8
FOREGROUND
  6
CONTINUOUS
 10
3.990462
 20
4.253068
  0
VERTEX
  8
FOREGROUND
  6
CONTINUOUS
 10
3.966269
 20
4.268144
  0
VERTEX
  8
FOREGROUND
  6
CONTINUOUS
 10
3.941554
 20
4.282441
  0
VERTEX
  8
FOREGROUND
  6
CONTINUOUS
 10
3.916334
 20
4.295941
  0
VERTEX
  8
FOREGROUND
  6
CONTINUOUS
 10
3.890626
 20
4.308627
  0
VERTEX
  8
FOREGROUND
  6
CONTINUOUS
 10
3.864448
 20
4.320482
  0
VERTEX
  8
FOREGROUND
  6
CONTINUOUS
 10
3.837816
 20
4.331489
  0
VERTEX
  8
FOREGROUND
  6
CONTINUOUS
 10
3.810747
 20
4.341630
  0
VERTEX
  8
FOREGROUND
  6
CONTINUOUS
 10
3.783259
 20
4.350888
  0
VERTEX
  8
FOREGROUND
  6
CONTINUOUS
 10
3.755370
 20
4.359247
  0
VERTEX
  8
FOREGROUND
  6
CONTINUOUS
 10
3.727095
 20
4.366689
  0
VERTEX
  8
FOREGROUND
  6
CONTINUOUS
 10
3.698453
 20
4.373197
  0
VERTEX
  8
FOREGROUND
  6
CONTINUOUS
 10
3.669460
 20
4.378753
  0
VERTEX
  8
FOREGROUND
  6
CONTINUOUS
 10
3.640134
 20
4.383341
  0
VERTEX
  8
FOREGROUND
  6
CONTINUOUS
 10
3.610492
 20
4.386944
  0
VERTEX
  8
FOREGROUND
  6
CONTINUOUS
 10
3.580550
 20
4.389544
  0
VERTEX
  8
FOREGROUND
  6
CONTINUOUS
 10
3.550327
 20
4.391124
  0
VERTEX
  8
FOREGROUND
  6
CONTINUOUS
 10
3.519839
 20
4.391667
  0
VERTEX
  8
FOREGROUND
  6
CONTINUOUS
 10
0.918172
 20
4.391667
  0
VERTEX
  8
FOREGROUND
  6
CONTINUOUS
 10
0.887693
 20
4.391113
  0
VERTEX
  8
FOREGROUND
  6
CONTINUOUS
 10
0.857478
 20
4.389522
  0
VERTEX
  8
FOREGROUND
  6
CONTINUOUS
 10
0.827545
 20
4.386913
  0
VERTEX
  8
FOREGROUND
  6
CONTINUOUS
 10
0.797911
 20
4.383301
  0
VERTEX
  8
FOREGROUND
  6
CONTINUOUS
 10
0.768593
 20
4.378704
  0
VERTEX
  8
FOREGROUND
  6
CONTINUOUS
 10
0.739609
 20
4.373140
  0
VERTEX
  8
FOREGROUND
  6
CONTINUOUS
 10
0.710976
 20
4.366624
  0
VERTEX
  8
FOREGROUND
  6
CONTINUOUS
 10
0.682711
 20
4.359176
  0
VERTEX
  8
FOREGROUND
  6
CONTINUOUS
 10
0.654830
 20
4.350810
  0
VERTEX
  8
FOREGROUND
  6
CONTINUOUS
 10
0.627352
 20
4.341546
  0
VERTEX
  8
FOREGROUND
  6
CONTINUOUS
 10
0.600292
 20
4.331400
  0
VERTEX
  8
FOREGROUND
  6
CONTINUOUS
 10
0.573669
 20
4.320388
  0
VERTEX
  8
FOREGROUND
  6
CONTINUOUS
 10
0.547500
 20
4.308529
  0
VERTEX
  8
FOREGROUND
  6
CONTINUOUS
 10
0.521801
 20
4.295839
  0
VERTEX
  8
FOREGROUND
  6
CONTINUOUS
 10
0.496590
 20
4.282336
  0
VERTEX
  8
FOREGROUND
  6
CONTINUOUS
 10
0.471884
 20
4.268037
  0
VERTEX
  8
FOREGROUND
  6
CONTINUOUS
 10
0.447701
 20
4.252958
  0
VERTEX
  8
FOREGROUND
  6
CONTINUOUS
 10
0.424056
 20
4.237117
  0
VERTEX
  8
FOREGROUND
  6
CONTINUOUS
 10
0.400968
 20
4.220531
  0
VERTEX
  8
FOREGROUND
  6
CONTINUOUS
 10
0.378453
 20
4.203218
  0
VERTEX
  8
FOREGROUND
  6
CONTINUOUS
 10
0.356529
 20
4.185194
  0
VERTEX
  8
FOREGROUND
  6
CONTINUOUS
 10
0.335213
 20
4.166476
  0
VERTEX
  8
FOREGROUND
  6
CONTINUOUS
 10
0.314521
 20
4.147083
  0
VERTEX
  8
FOREGROUND
  6
CONTINUOUS
 10
0.294472
 20
4.127030
  0
VERTEX
  8
FOREGROUND
  6
CONTINUOUS
 10
0.275082
 20
4.106335
  0
VERTEX
  8
FOREGROUND
  6
CONTINUOUS
 10
0.256369
 20
4.085015
  0
VERTEX
  8
FOREGROUND
  6
CONTINUOUS
 10
0.238349
 20
4.063088
  0
VERTEX
  8
FOREGROUND
  6
CONTINUOUS
 10
0.221039
 20
4.040570
  0
VERTEX
  8
FOREGROUND
  6
CONTINUOUS
 10
0.204458
 20
4.017479
  0
VERTEX
  8
FOREGROUND
  6
CONTINUOUS
 10
0.188622
 20
3.993831
  0
VERTEX
  8
FOREGROUND
  6
CONTINUOUS
 10
0.173547
 20
3.969644
  0
VERTEX
  8
FOREGROUND
  6
CONTINUOUS
 10
0.159252
 20
3.944936
  0
VERTEX
  8
FOREGROUND
  6
CONTINUOUS
 10
0.145754
 20
3.919722
  0
VERTEX
  8
FOREGROUND
  6
CONTINUOUS
 10
0.133069
 20
3.894021
  0
VERTEX
  8
FOREGROUND
  6
CONTINUOUS
 10
0.121215
 20
3.867849
  0
VERTEX
  8
FOREGROUND
  6
CONTINUOUS
 10
0.110208
 20
3.841225
  0
VERTEX
  8
FOREGROUND
  6
CONTINUOUS
 10
0.100067
 20
3.814163
  0
VERTEX
  8
FOREGROUND
  6
CONTINUOUS
 10
0.090807
 20
3.786683
  0
VERTEX
  8
FOREGROUND
  6
CONTINUOUS
 10
0.082447
 20
3.758801
  0
VERTEX
  8
FOREGROUND
  6
CONTINUOUS
 10
0.075004
 20
3.730534
  0
VERTEX
  8
FOREGROUND
  6
CONTINUOUS
 10
0.068494
 20
3.701900
  0
VERTEX
  8
FOREGROUND
  6
CONTINUOUS
 10
0.062935
 20
3.672915
  0
VERTEX
  8
FOREGROUND
  6
CONTINUOUS
 10
0.058343
 20
3.643596
  0
VERTEX
  8
FOREGROUND
  6
CONTINUOUS
 10
0.054737
 20
3.613962
  0
VERTEX
  8
FOREGROUND
  6
CONTINUOUS
 10
0.052133
 20
3.584029
  0
VERTEX
  8
FOREGROUND
  6
CONTINUOUS
 10
0.050548
 20
3.553813
  0
VERTEX
  8
FOREGROUND
  6
CONTINUOUS
 10
0.050000
 20
3.523333
  0
VERTEX
  8
FOREGROUND
  6
CONTINUOUS
 10
0.050000
 20
0.918333
  0
VERTEX
  8
FOREGROUND
  6
CONTINUOUS
 10
0.050548
 20
0.887849
  0
VERTEX
  8
FOREGROUND
  6
CONTINUOUS
 10
0.052134
 20
0.857630
  0
VERTEX
  8
FOREGROUND
  6
CONTINUOUS
 10
0.054738
 20
0.827693
  0
VERTEX
  8
FOREGROUND
  6
CONTINUOUS
 10
0.058346
 20
0.798055
  0
VERTEX
  8
FOREGROUND
  6
CONTINUOUS
 10
0.062938
 20
0.768733
  0
VERTEX
  8
FOREGROUND
  6
CONTINUOUS
 10
0.068499
 20
0.739745
  0
VERTEX
  8
FOREGROUND
  6
CONTINUOUS
 10
0.075010
 20
0.711107
  0
VERTEX
  8
FOREGROUND
  6
CONTINUOUS
 10
0.082455
 20
0.682837
  0
VERTEX
  8
FOREGROUND
  6
CONTINUOUS
 10
0.090817
 20
0.654952
  0
VERTEX
  8
FOREGROUND
  6
CONTINUOUS
 10
0.100079
 20
0.627469
  0
VERTEX
  8
FOREGROUND
  6
CONTINUOUS
 10
0.110223
 20
0.600405
  0
VERTEX
  8
FOREGROUND
  6
CONTINUOUS
 10
0.121231
 20
0.573778
  0
VERTEX
  8
FOREGROUND
  6
CONTINUOUS
 10
0.133089
 20
0.547604
  0
VERTEX
  8
FOREGROUND
  6
CONTINUOUS
 10
0.145776
 20
0.521900
  0
VERTEX
  8
FOREGROUND
  6
CONTINUOUS
 10
0.159278
 20
0.496685
  0
VERTEX
  8
FOREGROUND
  6
CONTINUOUS
 10
0.173576
 20
0.471974
  0
VERTEX
  8
FOREGROUND
  6
CONTINUOUS
 10
0.188654
 20
0.447786
  0
VERTEX
  8
FOREGROUND
  6
CONTINUOUS
 10
0.204494
 20
0.424137
  0
VERTEX
  8
FOREGROUND
  6
CONTINUOUS
 10
0.221079
 20
0.401044
  0
VERTEX
  8
FOREGROUND
  6
CONTINUOUS
 10
0.238392
 20
0.378525
  0
VERTEX
  8
FOREGROUND
  6
CONTINUOUS
 10
0.256416
 20
0.356596
  0
VERTEX
  8
FOREGROUND
  6
CONTINUOUS
 10
0.275133
 20
0.335276
  0
VERTEX
  8
FOREGROUND
  6
CONTINUOUS
 10
0.294527
 20
0.314580
  0
VERTEX
  8
FOREGROUND
  6
CONTINUOUS
 10
0.314580
 20
0.294527
  0
VERTEX
  8
FOREGROUND
  6
CONTINUOUS
 10
0.335276
 20
0.275133
  0
VERTEX
  8
FOREGROUND
  6
CONTINUOUS
 10
0.356596
 20
0.256416
  0
VERTEX
  8
FOREGROUND
  6
CONTINUOUS
 10
0.378525
 20
0.238392
  0
VERTEX
  8
FOREGROUND
  6
CONTINUOUS
 10
0.401044
 20
0.221079
  0
VERTEX
  8
FOREGROUND
  6
CONTINUOUS
 10
0.424137
 20
0.204494
  0
VERTEX
  8
FOREGROUND
  6
CONTINUOUS
 10
0.447786
 20
0.188654
  0
VERTEX
  8
FOREGROUND
  6
CONTINUOUS
 10
0.471974
 20
0.173576
  0
VERTEX
  8
FOREGROUND
  6
CONTINUOUS
 10
0.496685
 20
0.159278
  0
VERTEX
  8
FOREGROUND
  6
CONTINUOUS
 10
0.521900
 20
0.145776
  0
VERTEX
  8
FOREGROUND
  6
CONTINUOUS
 10
0.547604
 20
0.133089
  0
VERTEX
  8
FOREGROUND
  6
CONTINUOUS
 10
0.573778
 20
0.121231
  0
VERTEX
  8
FOREGROUND
  6
CONTINUOUS
 10
0.600405
 20
0.110223
  0
VERTEX
  8
FOREGROUND
  6
CONTINUOUS
 10
0.627469
 20
0.100079
  0
VERTEX
  8
FOREGROUND
  6
CONTINUOUS
 10
0.654952
 20
0.090817
  0
VERTEX
  8
FOREGROUND
  6
CONTINUOUS
 10
0.682837
 20
0.082455
  0
VERTEX
  8
FOREGROUND
  6
CONTINUOUS
 10
0.711107
 20
0.075010
  0
VERTEX
  8
FOREGROUND
  6
CONTINUOUS
 10
0.739745
 20
0.068499
  0
VERTEX
  8
FOREGROUND
  6
CONTINUOUS
 10
0.768733
 20
0.062938
  0
VERTEX
  8
FOREGROUND
  6
CONTINUOUS
 10
0.798055
 20
0.058346
  0
VERTEX
  8
FOREGROUND
  6
CONTINUOUS
 10
0.827693
 20
0.054738
  0
VERTEX
  8
FOREGROUND
  6
CONTINUOUS
 10
0.857630
 20
0.052134
  0
VERTEX
  8
FOREGROUND
  6
CONTINUOUS
 10
0.887849
 20
0.050548
  0
VERTEX
  8
FOREGROUND
  6
CONTINUOUS
 10
0.918333
 20
0.050000
  0
SEQEND
  8
0
  0
ENDSEC
  0
EOF
