  0
SECTION
  2
HEADER
  9
$ACADVER
  1
AC1006
  9
$EXTMIN
 10
0.000000
 20
0.000000
  9
$EXTMAX
 10
4.530000
 20
5.705000
  9
$LTSCALE
 40
0.166667
  9
$PDMODE
 70
    35
  9
$PDSIZE
 40
0.133333
  0
ENDSEC
  0
SECTION
  2
TABLES
  0
TABLE
  2
LTYPE
 70
     9
  0
LTYPE
  2
CONTINUOUS
 70
    64
  3
Solid line
 72
    65
 73
     0
 40
0.000000
  0
LTYPE
  2
DASHED
 70
    64
  3
__ __ __ __ __ __ __ __ __ __ __ __ __ __ __
 72
    65
 73
     2
 40
0.001250
 49
0.000833
 49
-0.000417
  0
LTYPE
  2
HIDDEN
 70
    64
  3
 _ _ _ _ _ _ _ _ _ _ _ _ _ _ _ _ _ _ _ _ _ _
 72
    65
 73
     2
 40
0.000625
 49
0.000417
 49
-0.000208
  0
LTYPE
  2
CENTER
 70
    64
  3
____ _ ____ _ ____ _ ____ _ ____ _ ____ _ ____
 72
    65
 73
     4
 40
0.003333
 49
0.002083
 49
-0.000417
 49
0.000417
 49
-0.000417
  0
LTYPE
  2
PHANTOM
 70
    64
  3
_____ _ _ _____ _ _ _____ _ _ _____ _ _ ____
 72
    65
 73
     6
 40
0.004167
 49
0.002083
 49
-0.000417
 49
0.000417
 49
-0.000417
 49
0.000417
 49
-0.000417
  0
LTYPE
  2
DOT
 70
    64
  3
...............................................
 72
    65
 73
     2
 40
0.000417
 49
0.000000
 49
-0.000417
  0
LTYPE
  2
DASHDOT
 70
    64
  3
__ . __ . __ . __ . __ . __ . __ . __ . __ . __
 72
    65
 73
     4
 40
0.001667
 49
0.000833
 49
-0.000417
 49
0.000000
 49
-0.000417
  0
LTYPE
  2
BORDER
 70
    64
  3
__ __ . __ __ . __ __ . __ __ . __ __ . __ __
 72
    65
 73
     6
 40
0.002917
 49
0.000833
 49
-0.000417
 49
0.000833
 49
-0.000417
 49
0.000000
 49
-0.000417
  0
LTYPE
  2
DIVIDE
 70
    64
  3
__ . . __ . . __ . . __ . . __ . . __ . . __
 72
    65
 73
     6
 40
0.002083
 49
0.000833
 49
-0.000417
 49
0.000000
 49
-0.000417
 49
0.000000
 49
-0.000417
  0
LTYPE
  2
DOTDOT
 70
    64
  3
 . .  . .  . .  . .  . .  . . 
 72
    65
 73
     5
 40
0.000917
 49
-0.000417
 49
0.000000
 49
-0.000417
 49
0.000000
 49
-0.000417
  0
ENDTAB
  0
TABLE
  2
STYLE
 70
     2
  0
STYLE
 70
     0
  2
SN0
 40
0.000000
 41
0.001667
 50
0.000000
 71
     0
 42
0.000000
  3
ROMAND
  0
STYLE
 70
    68
  2
SV0
 40
0.000000
 41
0.001667
 50
0.000000
 71
     0
 42
0.000000
  3
ROMAND
  0
ENDTAB
  0
TABLE
  2
LAYER
 70
     2
  0
LAYER
  2
FOREGROUND
 70
    64
 62
     7
  6
CONTINUOUS
  0
LAYER
  2
BACKGROUND
 70
    65
 62
    -7
  6
CONTINUOUS
  0
ENDTAB
  0
ENDSEC
  0
SECTION
  2
ENTITIES
  0
POLYLINE
  8
FOREGROUND
 62
     7
  6
CONTINUOUS
 66
     1
 40
0.000000
 41
0.000000
 70
     1
  0
VERTEX
  8
FOREGROUND
 62
     7
  6
CONTINUOUS
 10
0.911667
 20
5.546667
  0
VERTEX
  8
FOREGROUND
 62
     7
  6
CONTINUOUS
 10
3.500000
 20
5.546667
  0
VERTEX
  8
FOREGROUND
 62
     7
  6
CONTINUOUS
 10
3.545000
 20
5.545000
  0
VERTEX
  8
FOREGROUND
 62
     7
  6
CONTINUOUS
 10
3.588333
 20
5.541667
  0
VERTEX
  8
FOREGROUND
 62
     7
  6
CONTINUOUS
 10
3.631667
 20
5.536667
  0
VERTEX
  8
FOREGROUND
 62
     7
  6
CONTINUOUS
 10
3.673333
 20
5.528333
  0
VERTEX
  8
FOREGROUND
 62
     7
  6
CONTINUOUS
 10
3.715000
 20
5.520000
  0
VERTEX
  8
FOREGROUND
 62
     7
  6
CONTINUOUS
 10
3.756667
 20
5.508333
  0
VERTEX
  8
FOREGROUND
 62
     7
  6
CONTINUOUS
 10
3.796667
 20
5.495000
  0
VERTEX
  8
FOREGROUND
 62
     7
  6
CONTINUOUS
 10
3.835000
 20
5.478333
  0
VERTEX
  8
FOREGROUND
 62
     7
  6
CONTINUOUS
 10
3.873333
 20
5.461667
  0
VERTEX
  8
FOREGROUND
 62
     7
  6
CONTINUOUS
 10
3.911667
 20
5.443333
  0
VERTEX
  8
FOREGROUND
 62
     7
  6
CONTINUOUS
 10
3.946667
 20
5.421667
  0
VERTEX
  8
FOREGROUND
 62
     7
  6
CONTINUOUS
 10
3.981667
 20
5.400000
  0
VERTEX
  8
FOREGROUND
 62
     7
  6
CONTINUOUS
 10
4.048333
 20
5.350000
  0
VERTEX
  8
FOREGROUND
 62
     7
  6
CONTINUOUS
 10
4.110000
 20
5.293333
  0
VERTEX
  8
FOREGROUND
 62
     7
  6
CONTINUOUS
 10
4.165000
 20
5.233333
  0
VERTEX
  8
FOREGROUND
 62
     7
  6
CONTINUOUS
 10
4.215000
 20
5.166667
  0
VERTEX
  8
FOREGROUND
 62
     7
  6
CONTINUOUS
 10
4.236667
 20
5.131667
  0
VERTEX
  8
FOREGROUND
 62
     7
  6
CONTINUOUS
 10
4.258333
 20
5.095000
  0
VERTEX
  8
FOREGROUND
 62
     7
  6
CONTINUOUS
 10
4.276667
 20
5.058333
  0
VERTEX
  8
FOREGROUND
 62
     7
  6
CONTINUOUS
 10
4.293333
 20
5.020000
  0
VERTEX
  8
FOREGROUND
 62
     7
  6
CONTINUOUS
 10
4.310000
 20
4.981667
  0
VERTEX
  8
FOREGROUND
 62
     7
  6
CONTINUOUS
 10
4.323333
 20
4.941667
  0
VERTEX
  8
FOREGROUND
 62
     7
  6
CONTINUOUS
 10
4.335000
 20
4.900000
  0
VERTEX
  8
FOREGROUND
 62
     7
  6
CONTINUOUS
 10
4.345000
 20
4.858333
  0
VERTEX
  8
FOREGROUND
 62
     7
  6
CONTINUOUS
 10
4.351667
 20
4.816667
  0
VERTEX
  8
FOREGROUND
 62
     7
  6
CONTINUOUS
 10
4.356667
 20
4.773333
  0
VERTEX
  8
FOREGROUND
 62
     7
  6
CONTINUOUS
 10
4.360000
 20
4.730000
  0
VERTEX
  8
FOREGROUND
 62
     7
  6
CONTINUOUS
 10
4.361667
 20
4.685000
  0
VERTEX
  8
FOREGROUND
 62
     7
  6
CONTINUOUS
 10
4.361667
 20
0.920000
  0
VERTEX
  8
FOREGROUND
 62
     7
  6
CONTINUOUS
 10
4.360000
 20
0.875000
  0
VERTEX
  8
FOREGROUND
 62
     7
  6
CONTINUOUS
 10
4.356667
 20
0.831667
  0
VERTEX
  8
FOREGROUND
 62
     7
  6
CONTINUOUS
 10
4.351667
 20
0.788333
  0
VERTEX
  8
FOREGROUND
 62
     7
  6
CONTINUOUS
 10
4.345000
 20
0.746667
  0
VERTEX
  8
FOREGROUND
 62
     7
  6
CONTINUOUS
 10
4.335000
 20
0.705000
  0
VERTEX
  8
FOREGROUND
 62
     7
  6
CONTINUOUS
 10
4.323333
 20
0.663333
  0
VERTEX
  8
FOREGROUND
 62
     7
  6
CONTINUOUS
 10
4.310000
 20
0.623333
  0
VERTEX
  8
FOREGROUND
 62
     7
  6
CONTINUOUS
 10
4.293333
 20
0.585000
  0
VERTEX
  8
FOREGROUND
 62
     7
  6
CONTINUOUS
 10
4.276667
 20
0.546667
  0
VERTEX
  8
FOREGROUND
 62
     7
  6
CONTINUOUS
 10
4.258333
 20
0.508333
  0
VERTEX
  8
FOREGROUND
 62
     7
  6
CONTINUOUS
 10
4.236667
 20
0.473333
  0
VERTEX
  8
FOREGROUND
 62
     7
  6
CONTINUOUS
 10
4.215000
 20
0.438333
  0
VERTEX
  8
FOREGROUND
 62
     7
  6
CONTINUOUS
 10
4.165000
 20
0.371667
  0
VERTEX
  8
FOREGROUND
 62
     7
  6
CONTINUOUS
 10
4.110000
 20
0.310000
  0
VERTEX
  8
FOREGROUND
 62
     7
  6
CONTINUOUS
 10
4.048333
 20
0.255000
  0
VERTEX
  8
FOREGROUND
 62
     7
  6
CONTINUOUS
 10
3.981667
 20
0.205000
  0
VERTEX
  8
FOREGROUND
 62
     7
  6
CONTINUOUS
 10
3.946667
 20
0.183333
  0
VERTEX
  8
FOREGROUND
 62
     7
  6
CONTINUOUS
 10
3.911667
 20
0.161667
  0
VERTEX
  8
FOREGROUND
 62
     7
  6
CONTINUOUS
 10
3.873333
 20
0.143333
  0
VERTEX
  8
FOREGROUND
 62
     7
  6
CONTINUOUS
 10
3.835000
 20
0.126667
  0
VERTEX
  8
FOREGROUND
 62
     7
  6
CONTINUOUS
 10
3.796667
 20
0.110000
  0
VERTEX
  8
FOREGROUND
 62
     7
  6
CONTINUOUS
 10
3.756667
 20
0.096667
  0
VERTEX
  8
FOREGROUND
 62
     7
  6
CONTINUOUS
 10
3.715000
 20
0.085000
  0
VERTEX
  8
FOREGROUND
 62
     7
  6
CONTINUOUS
 10
3.673333
 20
0.075000
  0
VERTEX
  8
FOREGROUND
 62
     7
  6
CONTINUOUS
 10
3.631667
 20
0.068333
  0
VERTEX
  8
FOREGROUND
 62
     7
  6
CONTINUOUS
 10
3.588333
 20
0.063333
  0
VERTEX
  8
FOREGROUND
 62
     7
  6
CONTINUOUS
 10
3.545000
 20
0.060000
  0
VERTEX
  8
FOREGROUND
 62
     7
  6
CONTINUOUS
 10
3.500000
 20
0.058333
  0
VERTEX
  8
FOREGROUND
 62
     7
  6
CONTINUOUS
 10
0.911667
 20
0.058333
  0
VERTEX
  8
FOREGROUND
 62
     7
  6
CONTINUOUS
 10
0.866667
 20
0.060000
  0
VERTEX
  8
FOREGROUND
 62
     7
  6
CONTINUOUS
 10
0.823333
 20
0.063333
  0
VERTEX
  8
FOREGROUND
 62
     7
  6
CONTINUOUS
 10
0.780000
 20
0.068333
  0
VERTEX
  8
FOREGROUND
 62
     7
  6
CONTINUOUS
 10
0.738333
 20
0.075000
  0
VERTEX
  8
FOREGROUND
 62
     7
  6
CONTINUOUS
 10
0.696667
 20
0.085000
  0
VERTEX
  8
FOREGROUND
 62
     7
  6
CONTINUOUS
 10
0.655000
 20
0.096667
  0
VERTEX
  8
FOREGROUND
 62
     7
  6
CONTINUOUS
 10
0.615000
 20
0.110000
  0
VERTEX
  8
FOREGROUND
 62
     7
  6
CONTINUOUS
 10
0.576667
 20
0.126667
  0
VERTEX
  8
FOREGROUND
 62
     7
  6
CONTINUOUS
 10
0.538333
 20
0.143333
  0
VERTEX
  8
FOREGROUND
 62
     7
  6
CONTINUOUS
 10
0.501667
 20
0.161667
  0
VERTEX
  8
FOREGROUND
 62
     7
  6
CONTINUOUS
 10
0.465000
 20
0.183333
  0
VERTEX
  8
FOREGROUND
 62
     7
  6
CONTINUOUS
 10
0.430000
 20
0.205000
  0
VERTEX
  8
FOREGROUND
 62
     7
  6
CONTINUOUS
 10
0.363333
 20
0.255000
  0
VERTEX
  8
FOREGROUND
 62
     7
  6
CONTINUOUS
 10
0.303333
 20
0.310000
  0
VERTEX
  8
FOREGROUND
 62
     7
  6
CONTINUOUS
 10
0.246667
 20
0.371667
  0
VERTEX
  8
FOREGROUND
 62
     7
  6
CONTINUOUS
 10
0.196667
 20
0.438333
  0
VERTEX
  8
FOREGROUND
 62
     7
  6
CONTINUOUS
 10
0.175000
 20
0.473333
  0
VERTEX
  8
FOREGROUND
 62
     7
  6
CONTINUOUS
 10
0.153333
 20
0.508333
  0
VERTEX
  8
FOREGROUND
 62
     7
  6
CONTINUOUS
 10
0.135000
 20
0.546667
  0
VERTEX
  8
FOREGROUND
 62
     7
  6
CONTINUOUS
 10
0.118333
 20
0.585000
  0
VERTEX
  8
FOREGROUND
 62
     7
  6
CONTINUOUS
 10
0.101667
 20
0.623333
  0
VERTEX
  8
FOREGROUND
 62
     7
  6
CONTINUOUS
 10
0.088333
 20
0.663333
  0
VERTEX
  8
FOREGROUND
 62
     7
  6
CONTINUOUS
 10
0.076667
 20
0.705000
  0
VERTEX
  8
FOREGROUND
 62
     7
  6
CONTINUOUS
 10
0.068333
 20
0.746667
  0
VERTEX
  8
FOREGROUND
 62
     7
  6
CONTINUOUS
 10
0.060000
 20
0.788333
  0
VERTEX
  8
FOREGROUND
 62
     7
  6
CONTINUOUS
 10
0.055000
 20
0.831667
  0
VERTEX
  8
FOREGROUND
 62
     7
  6
CONTINUOUS
 10
0.051667
 20
0.875000
  0
VERTEX
  8
FOREGROUND
 62
     7
  6
CONTINUOUS
 10
0.050000
 20
0.920000
  0
VERTEX
  8
FOREGROUND
 62
     7
  6
CONTINUOUS
 10
0.050000
 20
4.685000
  0
VERTEX
  8
FOREGROUND
 62
     7
  6
CONTINUOUS
 10
0.051667
 20
4.730000
  0
VERTEX
  8
FOREGROUND
 62
     7
  6
CONTINUOUS
 10
0.055000
 20
4.773333
  0
VERTEX
  8
FOREGROUND
 62
     7
  6
CONTINUOUS
 10
0.060000
 20
4.816667
  0
VERTEX
  8
FOREGROUND
 62
     7
  6
CONTINUOUS
 10
0.068333
 20
4.858333
  0
VERTEX
  8
FOREGROUND
 62
     7
  6
CONTINUOUS
 10
0.076667
 20
4.900000
  0
VERTEX
  8
FOREGROUND
 62
     7
  6
CONTINUOUS
 10
0.088333
 20
4.941667
  0
VERTEX
  8
FOREGROUND
 62
     7
  6
CONTINUOUS
 10
0.101667
 20
4.981667
  0
VERTEX
  8
FOREGROUND
 62
     7
  6
CONTINUOUS
 10
0.118333
 20
5.020000
  0
VERTEX
  8
FOREGROUND
 62
     7
  6
CONTINUOUS
 10
0.135000
 20
5.058333
  0
VERTEX
  8
FOREGROUND
 62
     7
  6
CONTINUOUS
 10
0.153333
 20
5.095000
  0
VERTEX
  8
FOREGROUND
 62
     7
  6
CONTINUOUS
 10
0.175000
 20
5.131667
  0
VERTEX
  8
FOREGROUND
 62
     7
  6
CONTINUOUS
 10
0.196667
 20
5.166667
  0
VERTEX
  8
FOREGROUND
 62
     7
  6
CONTINUOUS
 10
0.246667
 20
5.233333
  0
VERTEX
  8
FOREGROUND
 62
     7
  6
CONTINUOUS
 10
0.303333
 20
5.293333
  0
VERTEX
  8
FOREGROUND
 62
     7
  6
CONTINUOUS
 10
0.363333
 20
5.350000
  0
VERTEX
  8
FOREGROUND
 62
     7
  6
CONTINUOUS
 10
0.430000
 20
5.400000
  0
VERTEX
  8
FOREGROUND
 62
     7
  6
CONTINUOUS
 10
0.465000
 20
5.421667
  0
VERTEX
  8
FOREGROUND
 62
     7
  6
CONTINUOUS
 10
0.501667
 20
5.443333
  0
VERTEX
  8
FOREGROUND
 62
     7
  6
CONTINUOUS
 10
0.538333
 20
5.461667
  0
VERTEX
  8
FOREGROUND
 62
     7
  6
CONTINUOUS
 10
0.576667
 20
5.478333
  0
VERTEX
  8
FOREGROUND
 62
     7
  6
CONTINUOUS
 10
0.615000
 20
5.495000
  0
VERTEX
  8
FOREGROUND
 62
     7
  6
CONTINUOUS
 10
0.655000
 20
5.508333
  0
VERTEX
  8
FOREGROUND
 62
     7
  6
CONTINUOUS
 10
0.696667
 20
5.520000
  0
VERTEX
  8
FOREGROUND
 62
     7
  6
CONTINUOUS
 10
0.738333
 20
5.528333
  0
VERTEX
  8
FOREGROUND
 62
     7
  6
CONTINUOUS
 10
0.780000
 20
5.536667
  0
VERTEX
  8
FOREGROUND
 62
     7
  6
CONTINUOUS
 10
0.823333
 20
5.541667
  0
VERTEX
  8
FOREGROUND
 62
     7
  6
CONTINUOUS
 10
0.866667
 20
5.545000
  0
SEQEND
  8
0
  0
POLYLINE
  8
FOREGROUND
  6
CONTINUOUS
 66
     1
 40
0.010000
 41
0.010000
 70
     1
  0
VERTEX
  8
FOREGROUND
  6
CONTINUOUS
 10
0.911667
 20
5.546667
  0
VERTEX
  8
FOREGROUND
  6
CONTINUOUS
 10
3.500000
 20
5.546667
  0
VERTEX
  8
FOREGROUND
  6
CONTINUOUS
 10
3.545000
 20
5.545000
  0
VERTEX
  8
FOREGROUND
  6
CONTINUOUS
 10
3.588333
 20
5.541667
  0
VERTEX
  8
FOREGROUND
  6
CONTINUOUS
 10
3.631667
 20
5.536667
  0
VERTEX
  8
FOREGROUND
  6
CONTINUOUS
 10
3.673333
 20
5.528333
  0
VERTEX
  8
FOREGROUND
  6
CONTINUOUS
 10
3.715000
 20
5.520000
  0
VERTEX
  8
FOREGROUND
  6
CONTINUOUS
 10
3.756667
 20
5.508333
  0
VERTEX
  8
FOREGROUND
  6
CONTINUOUS
 10
3.796667
 20
5.495000
  0
VERTEX
  8
FOREGROUND
  6
CONTINUOUS
 10
3.835000
 20
5.478333
  0
VERTEX
  8
FOREGROUND
  6
CONTINUOUS
 10
3.873333
 20
5.461667
  0
VERTEX
  8
FOREGROUND
  6
CONTINUOUS
 10
3.911667
 20
5.443333
  0
VERTEX
  8
FOREGROUND
  6
CONTINUOUS
 10
3.946667
 20
5.421667
  0
VERTEX
  8
FOREGROUND
  6
CONTINUOUS
 10
3.981667
 20
5.400000
  0
VERTEX
  8
FOREGROUND
  6
CONTINUOUS
 10
4.048333
 20
5.350000
  0
VERTEX
  8
FOREGROUND
  6
CONTINUOUS
 10
4.110000
 20
5.293333
  0
VERTEX
  8
FOREGROUND
  6
CONTINUOUS
 10
4.165000
 20
5.233333
  0
VERTEX
  8
FOREGROUND
  6
CONTINUOUS
 10
4.215000
 20
5.166667
  0
VERTEX
  8
FOREGROUND
  6
CONTINUOUS
 10
4.236667
 20
5.131667
  0
VERTEX
  8
FOREGROUND
  6
CONTINUOUS
 10
4.258333
 20
5.095000
  0
VERTEX
  8
FOREGROUND
  6
CONTINUOUS
 10
4.276667
 20
5.058333
  0
VERTEX
  8
FOREGROUND
  6
CONTINUOUS
 10
4.293333
 20
5.020000
  0
VERTEX
  8
FOREGROUND
  6
CONTINUOUS
 10
4.310000
 20
4.981667
  0
VERTEX
  8
FOREGROUND
  6
CONTINUOUS
 10
4.323333
 20
4.941667
  0
VERTEX
  8
FOREGROUND
  6
CONTINUOUS
 10
4.335000
 20
4.900000
  0
VERTEX
  8
FOREGROUND
  6
CONTINUOUS
 10
4.345000
 20
4.858333
  0
VERTEX
  8
FOREGROUND
  6
CONTINUOUS
 10
4.351667
 20
4.816667
  0
VERTEX
  8
FOREGROUND
  6
CONTINUOUS
 10
4.356667
 20
4.773333
  0
VERTEX
  8
FOREGROUND
  6
CONTINUOUS
 10
4.360000
 20
4.730000
  0
VERTEX
  8
FOREGROUND
  6
CONTINUOUS
 10
4.361667
 20
4.685000
  0
VERTEX
  8
FOREGROUND
  6
CONTINUOUS
 10
4.361667
 20
0.920000
  0
VERTEX
  8
FOREGROUND
  6
CONTINUOUS
 10
4.360000
 20
0.875000
  0
VERTEX
  8
FOREGROUND
  6
CONTINUOUS
 10
4.356667
 20
0.831667
  0
VERTEX
  8
FOREGROUND
  6
CONTINUOUS
 10
4.351667
 20
0.788333
  0
VERTEX
  8
FOREGROUND
  6
CONTINUOUS
 10
4.345000
 20
0.746667
  0
VERTEX
  8
FOREGROUND
  6
CONTINUOUS
 10
4.335000
 20
0.705000
  0
VERTEX
  8
FOREGROUND
  6
CONTINUOUS
 10
4.323333
 20
0.663333
  0
VERTEX
  8
FOREGROUND
  6
CONTINUOUS
 10
4.310000
 20
0.623333
  0
VERTEX
  8
FOREGROUND
  6
CONTINUOUS
 10
4.293333
 20
0.585000
  0
VERTEX
  8
FOREGROUND
  6
CONTINUOUS
 10
4.276667
 20
0.546667
  0
VERTEX
  8
FOREGROUND
  6
CONTINUOUS
 10
4.258333
 20
0.508333
  0
VERTEX
  8
FOREGROUND
  6
CONTINUOUS
 10
4.236667
 20
0.473333
  0
VERTEX
  8
FOREGROUND
  6
CONTINUOUS
 10
4.215000
 20
0.438333
  0
VERTEX
  8
FOREGROUND
  6
CONTINUOUS
 10
4.165000
 20
0.371667
  0
VERTEX
  8
FOREGROUND
  6
CONTINUOUS
 10
4.110000
 20
0.310000
  0
VERTEX
  8
FOREGROUND
  6
CONTINUOUS
 10
4.048333
 20
0.255000
  0
VERTEX
  8
FOREGROUND
  6
CONTINUOUS
 10
3.981667
 20
0.205000
  0
VERTEX
  8
FOREGROUND
  6
CONTINUOUS
 10
3.946667
 20
0.183333
  0
VERTEX
  8
FOREGROUND
  6
CONTINUOUS
 10
3.911667
 20
0.161667
  0
VERTEX
  8
FOREGROUND
  6
CONTINUOUS
 10
3.873333
 20
0.143333
  0
VERTEX
  8
FOREGROUND
  6
CONTINUOUS
 10
3.835000
 20
0.126667
  0
VERTEX
  8
FOREGROUND
  6
CONTINUOUS
 10
3.796667
 20
0.110000
  0
VERTEX
  8
FOREGROUND
  6
CONTINUOUS
 10
3.756667
 20
0.096667
  0
VERTEX
  8
FOREGROUND
  6
CONTINUOUS
 10
3.715000
 20
0.085000
  0
VERTEX
  8
FOREGROUND
  6
CONTINUOUS
 10
3.673333
 20
0.075000
  0
VERTEX
  8
FOREGROUND
  6
CONTINUOUS
 10
3.631667
 20
0.068333
  0
VERTEX
  8
FOREGROUND
  6
CONTINUOUS
 10
3.588333
 20
0.063333
  0
VERTEX
  8
FOREGROUND
  6
CONTINUOUS
 10
3.545000
 20
0.060000
  0
VERTEX
  8
FOREGROUND
  6
CONTINUOUS
 10
3.500000
 20
0.058333
  0
VERTEX
  8
FOREGROUND
  6
CONTINUOUS
 10
0.911667
 20
0.058333
  0
VERTEX
  8
FOREGROUND
  6
CONTINUOUS
 10
0.866667
 20
0.060000
  0
VERTEX
  8
FOREGROUND
  6
CONTINUOUS
 10
0.823333
 20
0.063333
  0
VERTEX
  8
FOREGROUND
  6
CONTINUOUS
 10
0.780000
 20
0.068333
  0
VERTEX
  8
FOREGROUND
  6
CONTINUOUS
 10
0.738333
 20
0.075000
  0
VERTEX
  8
FOREGROUND
  6
CONTINUOUS
 10
0.696667
 20
0.085000
  0
VERTEX
  8
FOREGROUND
  6
CONTINUOUS
 10
0.655000
 20
0.096667
  0
VERTEX
  8
FOREGROUND
  6
CONTINUOUS
 10
0.615000
 20
0.110000
  0
VERTEX
  8
FOREGROUND
  6
CONTINUOUS
 10
0.576667
 20
0.126667
  0
VERTEX
  8
FOREGROUND
  6
CONTINUOUS
 10
0.538333
 20
0.143333
  0
VERTEX
  8
FOREGROUND
  6
CONTINUOUS
 10
0.501667
 20
0.161667
  0
VERTEX
  8
FOREGROUND
  6
CONTINUOUS
 10
0.465000
 20
0.183333
  0
VERTEX
  8
FOREGROUND
  6
CONTINUOUS
 10
0.430000
 20
0.205000
  0
VERTEX
  8
FOREGROUND
  6
CONTINUOUS
 10
0.363333
 20
0.255000
  0
VERTEX
  8
FOREGROUND
  6
CONTINUOUS
 10
0.303333
 20
0.310000
  0
VERTEX
  8
FOREGROUND
  6
CONTINUOUS
 10
0.246667
 20
0.371667
  0
VERTEX
  8
FOREGROUND
  6
CONTINUOUS
 10
0.196667
 20
0.438333
  0
VERTEX
  8
FOREGROUND
  6
CONTINUOUS
 10
0.175000
 20
0.473333
  0
VERTEX
  8
FOREGROUND
  6
CONTINUOUS
 10
0.153333
 20
0.508333
  0
VERTEX
  8
FOREGROUND
  6
CONTINUOUS
 10
0.135000
 20
0.546667
  0
VERTEX
  8
FOREGROUND
  6
CONTINUOUS
 10
0.118333
 20
0.585000
  0
VERTEX
  8
FOREGROUND
  6
CONTINUOUS
 10
0.101667
 20
0.623333
  0
VERTEX
  8
FOREGROUND
  6
CONTINUOUS
 10
0.088333
 20
0.663333
  0
VERTEX
  8
FOREGROUND
  6
CONTINUOUS
 10
0.076667
 20
0.705000
  0
VERTEX
  8
FOREGROUND
  6
CONTINUOUS
 10
0.068333
 20
0.746667
  0
VERTEX
  8
FOREGROUND
  6
CONTINUOUS
 10
0.060000
 20
0.788333
  0
VERTEX
  8
FOREGROUND
  6
CONTINUOUS
 10
0.055000
 20
0.831667
  0
VERTEX
  8
FOREGROUND
  6
CONTINUOUS
 10
0.051667
 20
0.875000
  0
VERTEX
  8
FOREGROUND
  6
CONTINUOUS
 10
0.050000
 20
0.920000
  0
VERTEX
  8
FOREGROUND
  6
CONTINUOUS
 10
0.050000
 20
4.685000
  0
VERTEX
  8
FOREGROUND
  6
CONTINUOUS
 10
0.051667
 20
4.730000
  0
VERTEX
  8
FOREGROUND
  6
CONTINUOUS
 10
0.055000
 20
4.773333
  0
VERTEX
  8
FOREGROUND
  6
CONTINUOUS
 10
0.060000
 20
4.816667
  0
VERTEX
  8
FOREGROUND
  6
CONTINUOUS
 10
0.068333
 20
4.858333
  0
VERTEX
  8
FOREGROUND
  6
CONTINUOUS
 10
0.076667
 20
4.900000
  0
VERTEX
  8
FOREGROUND
  6
CONTINUOUS
 10
0.088333
 20
4.941667
  0
VERTEX
  8
FOREGROUND
  6
CONTINUOUS
 10
0.101667
 20
4.981667
  0
VERTEX
  8
FOREGROUND
  6
CONTINUOUS
 10
0.118333
 20
5.020000
  0
VERTEX
  8
FOREGROUND
  6
CONTINUOUS
 10
0.135000
 20
5.058333
  0
VERTEX
  8
FOREGROUND
  6
CONTINUOUS
 10
0.153333
 20
5.095000
  0
VERTEX
  8
FOREGROUND
  6
CONTINUOUS
 10
0.175000
 20
5.131667
  0
VERTEX
  8
FOREGROUND
  6
CONTINUOUS
 10
0.196667
 20
5.166667
  0
VERTEX
  8
FOREGROUND
  6
CONTINUOUS
 10
0.246667
 20
5.233333
  0
VERTEX
  8
FOREGROUND
  6
CONTINUOUS
 10
0.303333
 20
5.293333
  0
VERTEX
  8
FOREGROUND
  6
CONTINUOUS
 10
0.363333
 20
5.350000
  0
VERTEX
  8
FOREGROUND
  6
CONTINUOUS
 10
0.430000
 20
5.400000
  0
VERTEX
  8
FOREGROUND
  6
CONTINUOUS
 10
0.465000
 20
5.421667
  0
VERTEX
  8
FOREGROUND
  6
CONTINUOUS
 10
0.501667
 20
5.443333
  0
VERTEX
  8
FOREGROUND
  6
CONTINUOUS
 10
0.538333
 20
5.461667
  0
VERTEX
  8
FOREGROUND
  6
CONTINUOUS
 10
0.576667
 20
5.478333
  0
VERTEX
  8
FOREGROUND
  6
CONTINUOUS
 10
0.615000
 20
5.495000
  0
VERTEX
  8
FOREGROUND
  6
CONTINUOUS
 10
0.655000
 20
5.508333
  0
VERTEX
  8
FOREGROUND
  6
CONTINUOUS
 10
0.696667
 20
5.520000
  0
VERTEX
  8
FOREGROUND
  6
CONTINUOUS
 10
0.738333
 20
5.528333
  0
VERTEX
  8
FOREGROUND
  6
CONTINUOUS
 10
0.780000
 20
5.536667
  0
VERTEX
  8
FOREGROUND
  6
CONTINUOUS
 10
0.823333
 20
5.541667
  0
VERTEX
  8
FOREGROUND
  6
CONTINUOUS
 10
0.866667
 20
5.545000
  0
SEQEND
  8
0
  0
ENDSEC
  0
EOF
