  0
SECTION
  2
HEADER
  9
$ACADVER
  1
AC1006
  9
$EXTMIN
 10
0.000000
 20
0.000000
  9
$EXTMAX
 10
4.923333
 20
6.100000
  9
$LTSCALE
 40
0.166667
  9
$PDMODE
 70
    35
  9
$PDSIZE
 40
0.133333
  0
ENDSEC
  0
SECTION
  2
TABLES
  0
TABLE
  2
LTYPE
 70
     9
  0
LTYPE
  2
CONTINUOUS
 70
    64
  3
Solid line
 72
    65
 73
     0
 40
0.000000
  0
LTYPE
  2
DASHED
 70
    64
  3
__ __ __ __ __ __ __ __ __ __ __ __ __ __ __
 72
    65
 73
     2
 40
0.001250
 49
0.000833
 49
-0.000417
  0
LTYPE
  2
HIDDEN
 70
    64
  3
 _ _ _ _ _ _ _ _ _ _ _ _ _ _ _ _ _ _ _ _ _ _
 72
    65
 73
     2
 40
0.000625
 49
0.000417
 49
-0.000208
  0
LTYPE
  2
CENTER
 70
    64
  3
____ _ ____ _ ____ _ ____ _ ____ _ ____ _ ____
 72
    65
 73
     4
 40
0.003333
 49
0.002083
 49
-0.000417
 49
0.000417
 49
-0.000417
  0
LTYPE
  2
PHANTOM
 70
    64
  3
_____ _ _ _____ _ _ _____ _ _ _____ _ _ ____
 72
    65
 73
     6
 40
0.004167
 49
0.002083
 49
-0.000417
 49
0.000417
 49
-0.000417
 49
0.000417
 49
-0.000417
  0
LTYPE
  2
DOT
 70
    64
  3
...............................................
 72
    65
 73
     2
 40
0.000417
 49
0.000000
 49
-0.000417
  0
LTYPE
  2
DASHDOT
 70
    64
  3
__ . __ . __ . __ . __ . __ . __ . __ . __ . __
 72
    65
 73
     4
 40
0.001667
 49
0.000833
 49
-0.000417
 49
0.000000
 49
-0.000417
  0
LTYPE
  2
BORDER
 70
    64
  3
__ __ . __ __ . __ __ . __ __ . __ __ . __ __
 72
    65
 73
     6
 40
0.002917
 49
0.000833
 49
-0.000417
 49
0.000833
 49
-0.000417
 49
0.000000
 49
-0.000417
  0
LTYPE
  2
DIVIDE
 70
    64
  3
__ . . __ . . __ . . __ . . __ . . __ . . __
 72
    65
 73
     6
 40
0.002083
 49
0.000833
 49
-0.000417
 49
0.000000
 49
-0.000417
 49
0.000000
 49
-0.000417
  0
LTYPE
  2
DOTDOT
 70
    64
  3
 . .  . .  . .  . .  . .  . . 
 72
    65
 73
     5
 40
0.000917
 49
-0.000417
 49
0.000000
 49
-0.000417
 49
0.000000
 49
-0.000417
  0
ENDTAB
  0
TABLE
  2
STYLE
 70
     2
  0
STYLE
 70
     0
  2
SN0
 40
0.000000
 41
0.001667
 50
0.000000
 71
     0
 42
0.000000
  3
ROMAND
  0
STYLE
 70
    68
  2
SV0
 40
0.000000
 41
0.001667
 50
0.000000
 71
     0
 42
0.000000
  3
ROMAND
  0
ENDTAB
  0
TABLE
  2
LAYER
 70
     2
  0
LAYER
  2
FOREGROUND
 70
    64
 62
     7
  6
CONTINUOUS
  0
LAYER
  2
BACKGROUND
 70
    65
 62
    -7
  6
CONTINUOUS
  0
ENDTAB
  0
ENDSEC
  0
SECTION
  2
ENTITIES
  0
POLYLINE
  8
FOREGROUND
 62
     7
  6
CONTINUOUS
 66
     1
 40
0.000000
 41
0.000000
 70
     1
  0
VERTEX
  8
FOREGROUND
 62
     7
  6
CONTINUOUS
 10
0.990000
 20
5.941667
  0
VERTEX
  8
FOREGROUND
 62
     7
  6
CONTINUOUS
 10
3.815000
 20
5.941667
  0
VERTEX
  8
FOREGROUND
 62
     7
  6
CONTINUOUS
 10
3.863333
 20
5.940000
  0
VERTEX
  8
FOREGROUND
 62
     7
  6
CONTINUOUS
 10
3.911667
 20
5.936667
  0
VERTEX
  8
FOREGROUND
 62
     7
  6
CONTINUOUS
 10
3.958333
 20
5.930000
  0
VERTEX
  8
FOREGROUND
 62
     7
  6
CONTINUOUS
 10
4.005000
 20
5.921667
  0
VERTEX
  8
FOREGROUND
 62
     7
  6
CONTINUOUS
 10
4.050000
 20
5.911667
  0
VERTEX
  8
FOREGROUND
 62
     7
  6
CONTINUOUS
 10
4.095000
 20
5.900000
  0
VERTEX
  8
FOREGROUND
 62
     7
  6
CONTINUOUS
 10
4.138333
 20
5.885000
  0
VERTEX
  8
FOREGROUND
 62
     7
  6
CONTINUOUS
 10
4.181667
 20
5.868333
  0
VERTEX
  8
FOREGROUND
 62
     7
  6
CONTINUOUS
 10
4.223333
 20
5.848333
  0
VERTEX
  8
FOREGROUND
 62
     7
  6
CONTINUOUS
 10
4.263333
 20
5.828333
  0
VERTEX
  8
FOREGROUND
 62
     7
  6
CONTINUOUS
 10
4.303333
 20
5.805000
  0
VERTEX
  8
FOREGROUND
 62
     7
  6
CONTINUOUS
 10
4.340000
 20
5.781667
  0
VERTEX
  8
FOREGROUND
 62
     7
  6
CONTINUOUS
 10
4.378333
 20
5.755000
  0
VERTEX
  8
FOREGROUND
 62
     7
  6
CONTINUOUS
 10
4.413333
 20
5.726667
  0
VERTEX
  8
FOREGROUND
 62
     7
  6
CONTINUOUS
 10
4.480000
 20
5.666667
  0
VERTEX
  8
FOREGROUND
 62
     7
  6
CONTINUOUS
 10
4.540000
 20
5.600000
  0
VERTEX
  8
FOREGROUND
 62
     7
  6
CONTINUOUS
 10
4.568333
 20
5.563333
  0
VERTEX
  8
FOREGROUND
 62
     7
  6
CONTINUOUS
 10
4.595000
 20
5.526667
  0
VERTEX
  8
FOREGROUND
 62
     7
  6
CONTINUOUS
 10
4.618333
 20
5.488333
  0
VERTEX
  8
FOREGROUND
 62
     7
  6
CONTINUOUS
 10
4.641667
 20
5.450000
  0
VERTEX
  8
FOREGROUND
 62
     7
  6
CONTINUOUS
 10
4.661667
 20
5.408333
  0
VERTEX
  8
FOREGROUND
 62
     7
  6
CONTINUOUS
 10
4.681667
 20
5.366667
  0
VERTEX
  8
FOREGROUND
 62
     7
  6
CONTINUOUS
 10
4.698333
 20
5.325000
  0
VERTEX
  8
FOREGROUND
 62
     7
  6
CONTINUOUS
 10
4.713333
 20
5.281667
  0
VERTEX
  8
FOREGROUND
 62
     7
  6
CONTINUOUS
 10
4.725000
 20
5.236667
  0
VERTEX
  8
FOREGROUND
 62
     7
  6
CONTINUOUS
 10
4.736667
 20
5.191667
  0
VERTEX
  8
FOREGROUND
 62
     7
  6
CONTINUOUS
 10
4.745000
 20
5.145000
  0
VERTEX
  8
FOREGROUND
 62
     7
  6
CONTINUOUS
 10
4.750000
 20
5.098333
  0
VERTEX
  8
FOREGROUND
 62
     7
  6
CONTINUOUS
 10
4.753333
 20
5.050000
  0
VERTEX
  8
FOREGROUND
 62
     7
  6
CONTINUOUS
 10
4.755000
 20
5.001667
  0
VERTEX
  8
FOREGROUND
 62
     7
  6
CONTINUOUS
 10
4.755000
 20
0.998333
  0
VERTEX
  8
FOREGROUND
 62
     7
  6
CONTINUOUS
 10
4.753333
 20
0.950000
  0
VERTEX
  8
FOREGROUND
 62
     7
  6
CONTINUOUS
 10
4.750000
 20
0.901667
  0
VERTEX
  8
FOREGROUND
 62
     7
  6
CONTINUOUS
 10
4.745000
 20
0.855000
  0
VERTEX
  8
FOREGROUND
 62
     7
  6
CONTINUOUS
 10
4.736667
 20
0.808333
  0
VERTEX
  8
FOREGROUND
 62
     7
  6
CONTINUOUS
 10
4.725000
 20
0.763333
  0
VERTEX
  8
FOREGROUND
 62
     7
  6
CONTINUOUS
 10
4.713333
 20
0.718333
  0
VERTEX
  8
FOREGROUND
 62
     7
  6
CONTINUOUS
 10
4.698333
 20
0.675000
  0
VERTEX
  8
FOREGROUND
 62
     7
  6
CONTINUOUS
 10
4.681667
 20
0.631667
  0
VERTEX
  8
FOREGROUND
 62
     7
  6
CONTINUOUS
 10
4.661667
 20
0.590000
  0
VERTEX
  8
FOREGROUND
 62
     7
  6
CONTINUOUS
 10
4.641667
 20
0.550000
  0
VERTEX
  8
FOREGROUND
 62
     7
  6
CONTINUOUS
 10
4.618333
 20
0.510000
  0
VERTEX
  8
FOREGROUND
 62
     7
  6
CONTINUOUS
 10
4.595000
 20
0.473333
  0
VERTEX
  8
FOREGROUND
 62
     7
  6
CONTINUOUS
 10
4.568333
 20
0.435000
  0
VERTEX
  8
FOREGROUND
 62
     7
  6
CONTINUOUS
 10
4.540000
 20
0.400000
  0
VERTEX
  8
FOREGROUND
 62
     7
  6
CONTINUOUS
 10
4.480000
 20
0.333333
  0
VERTEX
  8
FOREGROUND
 62
     7
  6
CONTINUOUS
 10
4.413333
 20
0.273333
  0
VERTEX
  8
FOREGROUND
 62
     7
  6
CONTINUOUS
 10
4.378333
 20
0.245000
  0
VERTEX
  8
FOREGROUND
 62
     7
  6
CONTINUOUS
 10
4.340000
 20
0.218333
  0
VERTEX
  8
FOREGROUND
 62
     7
  6
CONTINUOUS
 10
4.303333
 20
0.195000
  0
VERTEX
  8
FOREGROUND
 62
     7
  6
CONTINUOUS
 10
4.263333
 20
0.171667
  0
VERTEX
  8
FOREGROUND
 62
     7
  6
CONTINUOUS
 10
4.223333
 20
0.151667
  0
VERTEX
  8
FOREGROUND
 62
     7
  6
CONTINUOUS
 10
4.181667
 20
0.131667
  0
VERTEX
  8
FOREGROUND
 62
     7
  6
CONTINUOUS
 10
4.138333
 20
0.115000
  0
VERTEX
  8
FOREGROUND
 62
     7
  6
CONTINUOUS
 10
4.095000
 20
0.100000
  0
VERTEX
  8
FOREGROUND
 62
     7
  6
CONTINUOUS
 10
4.050000
 20
0.088333
  0
VERTEX
  8
FOREGROUND
 62
     7
  6
CONTINUOUS
 10
4.005000
 20
0.076667
  0
VERTEX
  8
FOREGROUND
 62
     7
  6
CONTINUOUS
 10
3.958333
 20
0.068333
  0
VERTEX
  8
FOREGROUND
 62
     7
  6
CONTINUOUS
 10
3.911667
 20
0.063333
  0
VERTEX
  8
FOREGROUND
 62
     7
  6
CONTINUOUS
 10
3.863333
 20
0.060000
  0
VERTEX
  8
FOREGROUND
 62
     7
  6
CONTINUOUS
 10
3.815000
 20
0.058333
  0
VERTEX
  8
FOREGROUND
 62
     7
  6
CONTINUOUS
 10
0.990000
 20
0.058333
  0
VERTEX
  8
FOREGROUND
 62
     7
  6
CONTINUOUS
 10
0.941667
 20
0.060000
  0
VERTEX
  8
FOREGROUND
 62
     7
  6
CONTINUOUS
 10
0.893333
 20
0.063333
  0
VERTEX
  8
FOREGROUND
 62
     7
  6
CONTINUOUS
 10
0.846667
 20
0.068333
  0
VERTEX
  8
FOREGROUND
 62
     7
  6
CONTINUOUS
 10
0.800000
 20
0.076667
  0
VERTEX
  8
FOREGROUND
 62
     7
  6
CONTINUOUS
 10
0.755000
 20
0.088333
  0
VERTEX
  8
FOREGROUND
 62
     7
  6
CONTINUOUS
 10
0.710000
 20
0.100000
  0
VERTEX
  8
FOREGROUND
 62
     7
  6
CONTINUOUS
 10
0.666667
 20
0.115000
  0
VERTEX
  8
FOREGROUND
 62
     7
  6
CONTINUOUS
 10
0.625000
 20
0.131667
  0
VERTEX
  8
FOREGROUND
 62
     7
  6
CONTINUOUS
 10
0.583333
 20
0.151667
  0
VERTEX
  8
FOREGROUND
 62
     7
  6
CONTINUOUS
 10
0.541667
 20
0.171667
  0
VERTEX
  8
FOREGROUND
 62
     7
  6
CONTINUOUS
 10
0.503333
 20
0.195000
  0
VERTEX
  8
FOREGROUND
 62
     7
  6
CONTINUOUS
 10
0.465000
 20
0.218333
  0
VERTEX
  8
FOREGROUND
 62
     7
  6
CONTINUOUS
 10
0.428333
 20
0.245000
  0
VERTEX
  8
FOREGROUND
 62
     7
  6
CONTINUOUS
 10
0.391667
 20
0.273333
  0
VERTEX
  8
FOREGROUND
 62
     7
  6
CONTINUOUS
 10
0.325000
 20
0.333333
  0
VERTEX
  8
FOREGROUND
 62
     7
  6
CONTINUOUS
 10
0.265000
 20
0.400000
  0
VERTEX
  8
FOREGROUND
 62
     7
  6
CONTINUOUS
 10
0.236667
 20
0.435000
  0
VERTEX
  8
FOREGROUND
 62
     7
  6
CONTINUOUS
 10
0.210000
 20
0.473333
  0
VERTEX
  8
FOREGROUND
 62
     7
  6
CONTINUOUS
 10
0.186667
 20
0.510000
  0
VERTEX
  8
FOREGROUND
 62
     7
  6
CONTINUOUS
 10
0.163333
 20
0.550000
  0
VERTEX
  8
FOREGROUND
 62
     7
  6
CONTINUOUS
 10
0.143333
 20
0.590000
  0
VERTEX
  8
FOREGROUND
 62
     7
  6
CONTINUOUS
 10
0.123333
 20
0.631667
  0
VERTEX
  8
FOREGROUND
 62
     7
  6
CONTINUOUS
 10
0.106667
 20
0.675000
  0
VERTEX
  8
FOREGROUND
 62
     7
  6
CONTINUOUS
 10
0.091667
 20
0.718333
  0
VERTEX
  8
FOREGROUND
 62
     7
  6
CONTINUOUS
 10
0.080000
 20
0.763333
  0
VERTEX
  8
FOREGROUND
 62
     7
  6
CONTINUOUS
 10
0.070000
 20
0.808333
  0
VERTEX
  8
FOREGROUND
 62
     7
  6
CONTINUOUS
 10
0.061667
 20
0.855000
  0
VERTEX
  8
FOREGROUND
 62
     7
  6
CONTINUOUS
 10
0.055000
 20
0.901667
  0
VERTEX
  8
FOREGROUND
 62
     7
  6
CONTINUOUS
 10
0.051667
 20
0.950000
  0
VERTEX
  8
FOREGROUND
 62
     7
  6
CONTINUOUS
 10
0.050000
 20
0.998333
  0
VERTEX
  8
FOREGROUND
 62
     7
  6
CONTINUOUS
 10
0.050000
 20
5.001667
  0
VERTEX
  8
FOREGROUND
 62
     7
  6
CONTINUOUS
 10
0.051667
 20
5.050000
  0
VERTEX
  8
FOREGROUND
 62
     7
  6
CONTINUOUS
 10
0.055000
 20
5.098333
  0
VERTEX
  8
FOREGROUND
 62
     7
  6
CONTINUOUS
 10
0.061667
 20
5.145000
  0
VERTEX
  8
FOREGROUND
 62
     7
  6
CONTINUOUS
 10
0.070000
 20
5.191667
  0
VERTEX
  8
FOREGROUND
 62
     7
  6
CONTINUOUS
 10
0.080000
 20
5.236667
  0
VERTEX
  8
FOREGROUND
 62
     7
  6
CONTINUOUS
 10
0.091667
 20
5.281667
  0
VERTEX
  8
FOREGROUND
 62
     7
  6
CONTINUOUS
 10
0.106667
 20
5.325000
  0
VERTEX
  8
FOREGROUND
 62
     7
  6
CONTINUOUS
 10
0.123333
 20
5.366667
  0
VERTEX
  8
FOREGROUND
 62
     7
  6
CONTINUOUS
 10
0.143333
 20
5.408333
  0
VERTEX
  8
FOREGROUND
 62
     7
  6
CONTINUOUS
 10
0.163333
 20
5.450000
  0
VERTEX
  8
FOREGROUND
 62
     7
  6
CONTINUOUS
 10
0.186667
 20
5.488333
  0
VERTEX
  8
FOREGROUND
 62
     7
  6
CONTINUOUS
 10
0.210000
 20
5.526667
  0
VERTEX
  8
FOREGROUND
 62
     7
  6
CONTINUOUS
 10
0.236667
 20
5.563333
  0
VERTEX
  8
FOREGROUND
 62
     7
  6
CONTINUOUS
 10
0.265000
 20
5.600000
  0
VERTEX
  8
FOREGROUND
 62
     7
  6
CONTINUOUS
 10
0.325000
 20
5.666667
  0
VERTEX
  8
FOREGROUND
 62
     7
  6
CONTINUOUS
 10
0.391667
 20
5.726667
  0
VERTEX
  8
FOREGROUND
 62
     7
  6
CONTINUOUS
 10
0.428333
 20
5.755000
  0
VERTEX
  8
FOREGROUND
 62
     7
  6
CONTINUOUS
 10
0.465000
 20
5.781667
  0
VERTEX
  8
FOREGROUND
 62
     7
  6
CONTINUOUS
 10
0.503333
 20
5.805000
  0
VERTEX
  8
FOREGROUND
 62
     7
  6
CONTINUOUS
 10
0.541667
 20
5.828333
  0
VERTEX
  8
FOREGROUND
 62
     7
  6
CONTINUOUS
 10
0.583333
 20
5.848333
  0
VERTEX
  8
FOREGROUND
 62
     7
  6
CONTINUOUS
 10
0.625000
 20
5.868333
  0
VERTEX
  8
FOREGROUND
 62
     7
  6
CONTINUOUS
 10
0.666667
 20
5.885000
  0
VERTEX
  8
FOREGROUND
 62
     7
  6
CONTINUOUS
 10
0.710000
 20
5.900000
  0
VERTEX
  8
FOREGROUND
 62
     7
  6
CONTINUOUS
 10
0.755000
 20
5.911667
  0
VERTEX
  8
FOREGROUND
 62
     7
  6
CONTINUOUS
 10
0.800000
 20
5.921667
  0
VERTEX
  8
FOREGROUND
 62
     7
  6
CONTINUOUS
 10
0.846667
 20
5.930000
  0
VERTEX
  8
FOREGROUND
 62
     7
  6
CONTINUOUS
 10
0.893333
 20
5.936667
  0
VERTEX
  8
FOREGROUND
 62
     7
  6
CONTINUOUS
 10
0.941667
 20
5.940000
  0
SEQEND
  8
0
  0
POLYLINE
  8
FOREGROUND
  6
CONTINUOUS
 66
     1
 40
0.010000
 41
0.010000
 70
     1
  0
VERTEX
  8
FOREGROUND
  6
CONTINUOUS
 10
0.990000
 20
5.941667
  0
VERTEX
  8
FOREGROUND
  6
CONTINUOUS
 10
3.815000
 20
5.941667
  0
VERTEX
  8
FOREGROUND
  6
CONTINUOUS
 10
3.863333
 20
5.940000
  0
VERTEX
  8
FOREGROUND
  6
CONTINUOUS
 10
3.911667
 20
5.936667
  0
VERTEX
  8
FOREGROUND
  6
CONTINUOUS
 10
3.958333
 20
5.930000
  0
VERTEX
  8
FOREGROUND
  6
CONTINUOUS
 10
4.005000
 20
5.921667
  0
VERTEX
  8
FOREGROUND
  6
CONTINUOUS
 10
4.050000
 20
5.911667
  0
VERTEX
  8
FOREGROUND
  6
CONTINUOUS
 10
4.095000
 20
5.900000
  0
VERTEX
  8
FOREGROUND
  6
CONTINUOUS
 10
4.138333
 20
5.885000
  0
VERTEX
  8
FOREGROUND
  6
CONTINUOUS
 10
4.181667
 20
5.868333
  0
VERTEX
  8
FOREGROUND
  6
CONTINUOUS
 10
4.223333
 20
5.848333
  0
VERTEX
  8
FOREGROUND
  6
CONTINUOUS
 10
4.263333
 20
5.828333
  0
VERTEX
  8
FOREGROUND
  6
CONTINUOUS
 10
4.303333
 20
5.805000
  0
VERTEX
  8
FOREGROUND
  6
CONTINUOUS
 10
4.340000
 20
5.781667
  0
VERTEX
  8
FOREGROUND
  6
CONTINUOUS
 10
4.378333
 20
5.755000
  0
VERTEX
  8
FOREGROUND
  6
CONTINUOUS
 10
4.413333
 20
5.726667
  0
VERTEX
  8
FOREGROUND
  6
CONTINUOUS
 10
4.480000
 20
5.666667
  0
VERTEX
  8
FOREGROUND
  6
CONTINUOUS
 10
4.540000
 20
5.600000
  0
VERTEX
  8
FOREGROUND
  6
CONTINUOUS
 10
4.568333
 20
5.563333
  0
VERTEX
  8
FOREGROUND
  6
CONTINUOUS
 10
4.595000
 20
5.526667
  0
VERTEX
  8
FOREGROUND
  6
CONTINUOUS
 10
4.618333
 20
5.488333
  0
VERTEX
  8
FOREGROUND
  6
CONTINUOUS
 10
4.641667
 20
5.450000
  0
VERTEX
  8
FOREGROUND
  6
CONTINUOUS
 10
4.661667
 20
5.408333
  0
VERTEX
  8
FOREGROUND
  6
CONTINUOUS
 10
4.681667
 20
5.366667
  0
VERTEX
  8
FOREGROUND
  6
CONTINUOUS
 10
4.698333
 20
5.325000
  0
VERTEX
  8
FOREGROUND
  6
CONTINUOUS
 10
4.713333
 20
5.281667
  0
VERTEX
  8
FOREGROUND
  6
CONTINUOUS
 10
4.725000
 20
5.236667
  0
VERTEX
  8
FOREGROUND
  6
CONTINUOUS
 10
4.736667
 20
5.191667
  0
VERTEX
  8
FOREGROUND
  6
CONTINUOUS
 10
4.745000
 20
5.145000
  0
VERTEX
  8
FOREGROUND
  6
CONTINUOUS
 10
4.750000
 20
5.098333
  0
VERTEX
  8
FOREGROUND
  6
CONTINUOUS
 10
4.753333
 20
5.050000
  0
VERTEX
  8
FOREGROUND
  6
CONTINUOUS
 10
4.755000
 20
5.001667
  0
VERTEX
  8
FOREGROUND
  6
CONTINUOUS
 10
4.755000
 20
0.998333
  0
VERTEX
  8
FOREGROUND
  6
CONTINUOUS
 10
4.753333
 20
0.950000
  0
VERTEX
  8
FOREGROUND
  6
CONTINUOUS
 10
4.750000
 20
0.901667
  0
VERTEX
  8
FOREGROUND
  6
CONTINUOUS
 10
4.745000
 20
0.855000
  0
VERTEX
  8
FOREGROUND
  6
CONTINUOUS
 10
4.736667
 20
0.808333
  0
VERTEX
  8
FOREGROUND
  6
CONTINUOUS
 10
4.725000
 20
0.763333
  0
VERTEX
  8
FOREGROUND
  6
CONTINUOUS
 10
4.713333
 20
0.718333
  0
VERTEX
  8
FOREGROUND
  6
CONTINUOUS
 10
4.698333
 20
0.675000
  0
VERTEX
  8
FOREGROUND
  6
CONTINUOUS
 10
4.681667
 20
0.631667
  0
VERTEX
  8
FOREGROUND
  6
CONTINUOUS
 10
4.661667
 20
0.590000
  0
VERTEX
  8
FOREGROUND
  6
CONTINUOUS
 10
4.641667
 20
0.550000
  0
VERTEX
  8
FOREGROUND
  6
CONTINUOUS
 10
4.618333
 20
0.510000
  0
VERTEX
  8
FOREGROUND
  6
CONTINUOUS
 10
4.595000
 20
0.473333
  0
VERTEX
  8
FOREGROUND
  6
CONTINUOUS
 10
4.568333
 20
0.435000
  0
VERTEX
  8
FOREGROUND
  6
CONTINUOUS
 10
4.540000
 20
0.400000
  0
VERTEX
  8
FOREGROUND
  6
CONTINUOUS
 10
4.480000
 20
0.333333
  0
VERTEX
  8
FOREGROUND
  6
CONTINUOUS
 10
4.413333
 20
0.273333
  0
VERTEX
  8
FOREGROUND
  6
CONTINUOUS
 10
4.378333
 20
0.245000
  0
VERTEX
  8
FOREGROUND
  6
CONTINUOUS
 10
4.340000
 20
0.218333
  0
VERTEX
  8
FOREGROUND
  6
CONTINUOUS
 10
4.303333
 20
0.195000
  0
VERTEX
  8
FOREGROUND
  6
CONTINUOUS
 10
4.263333
 20
0.171667
  0
VERTEX
  8
FOREGROUND
  6
CONTINUOUS
 10
4.223333
 20
0.151667
  0
VERTEX
  8
FOREGROUND
  6
CONTINUOUS
 10
4.181667
 20
0.131667
  0
VERTEX
  8
FOREGROUND
  6
CONTINUOUS
 10
4.138333
 20
0.115000
  0
VERTEX
  8
FOREGROUND
  6
CONTINUOUS
 10
4.095000
 20
0.100000
  0
VERTEX
  8
FOREGROUND
  6
CONTINUOUS
 10
4.050000
 20
0.088333
  0
VERTEX
  8
FOREGROUND
  6
CONTINUOUS
 10
4.005000
 20
0.076667
  0
VERTEX
  8
FOREGROUND
  6
CONTINUOUS
 10
3.958333
 20
0.068333
  0
VERTEX
  8
FOREGROUND
  6
CONTINUOUS
 10
3.911667
 20
0.063333
  0
VERTEX
  8
FOREGROUND
  6
CONTINUOUS
 10
3.863333
 20
0.060000
  0
VERTEX
  8
FOREGROUND
  6
CONTINUOUS
 10
3.815000
 20
0.058333
  0
VERTEX
  8
FOREGROUND
  6
CONTINUOUS
 10
0.990000
 20
0.058333
  0
VERTEX
  8
FOREGROUND
  6
CONTINUOUS
 10
0.941667
 20
0.060000
  0
VERTEX
  8
FOREGROUND
  6
CONTINUOUS
 10
0.893333
 20
0.063333
  0
VERTEX
  8
FOREGROUND
  6
CONTINUOUS
 10
0.846667
 20
0.068333
  0
VERTEX
  8
FOREGROUND
  6
CONTINUOUS
 10
0.800000
 20
0.076667
  0
VERTEX
  8
FOREGROUND
  6
CONTINUOUS
 10
0.755000
 20
0.088333
  0
VERTEX
  8
FOREGROUND
  6
CONTINUOUS
 10
0.710000
 20
0.100000
  0
VERTEX
  8
FOREGROUND
  6
CONTINUOUS
 10
0.666667
 20
0.115000
  0
VERTEX
  8
FOREGROUND
  6
CONTINUOUS
 10
0.625000
 20
0.131667
  0
VERTEX
  8
FOREGROUND
  6
CONTINUOUS
 10
0.583333
 20
0.151667
  0
VERTEX
  8
FOREGROUND
  6
CONTINUOUS
 10
0.541667
 20
0.171667
  0
VERTEX
  8
FOREGROUND
  6
CONTINUOUS
 10
0.503333
 20
0.195000
  0
VERTEX
  8
FOREGROUND
  6
CONTINUOUS
 10
0.465000
 20
0.218333
  0
VERTEX
  8
FOREGROUND
  6
CONTINUOUS
 10
0.428333
 20
0.245000
  0
VERTEX
  8
FOREGROUND
  6
CONTINUOUS
 10
0.391667
 20
0.273333
  0
VERTEX
  8
FOREGROUND
  6
CONTINUOUS
 10
0.325000
 20
0.333333
  0
VERTEX
  8
FOREGROUND
  6
CONTINUOUS
 10
0.265000
 20
0.400000
  0
VERTEX
  8
FOREGROUND
  6
CONTINUOUS
 10
0.236667
 20
0.435000
  0
VERTEX
  8
FOREGROUND
  6
CONTINUOUS
 10
0.210000
 20
0.473333
  0
VERTEX
  8
FOREGROUND
  6
CONTINUOUS
 10
0.186667
 20
0.510000
  0
VERTEX
  8
FOREGROUND
  6
CONTINUOUS
 10
0.163333
 20
0.550000
  0
VERTEX
  8
FOREGROUND
  6
CONTINUOUS
 10
0.143333
 20
0.590000
  0
VERTEX
  8
FOREGROUND
  6
CONTINUOUS
 10
0.123333
 20
0.631667
  0
VERTEX
  8
FOREGROUND
  6
CONTINUOUS
 10
0.106667
 20
0.675000
  0
VERTEX
  8
FOREGROUND
  6
CONTINUOUS
 10
0.091667
 20
0.718333
  0
VERTEX
  8
FOREGROUND
  6
CONTINUOUS
 10
0.080000
 20
0.763333
  0
VERTEX
  8
FOREGROUND
  6
CONTINUOUS
 10
0.070000
 20
0.808333
  0
VERTEX
  8
FOREGROUND
  6
CONTINUOUS
 10
0.061667
 20
0.855000
  0
VERTEX
  8
FOREGROUND
  6
CONTINUOUS
 10
0.055000
 20
0.901667
  0
VERTEX
  8
FOREGROUND
  6
CONTINUOUS
 10
0.051667
 20
0.950000
  0
VERTEX
  8
FOREGROUND
  6
CONTINUOUS
 10
0.050000
 20
0.998333
  0
VERTEX
  8
FOREGROUND
  6
CONTINUOUS
 10
0.050000
 20
5.001667
  0
VERTEX
  8
FOREGROUND
  6
CONTINUOUS
 10
0.051667
 20
5.050000
  0
VERTEX
  8
FOREGROUND
  6
CONTINUOUS
 10
0.055000
 20
5.098333
  0
VERTEX
  8
FOREGROUND
  6
CONTINUOUS
 10
0.061667
 20
5.145000
  0
VERTEX
  8
FOREGROUND
  6
CONTINUOUS
 10
0.070000
 20
5.191667
  0
VERTEX
  8
FOREGROUND
  6
CONTINUOUS
 10
0.080000
 20
5.236667
  0
VERTEX
  8
FOREGROUND
  6
CONTINUOUS
 10
0.091667
 20
5.281667
  0
VERTEX
  8
FOREGROUND
  6
CONTINUOUS
 10
0.106667
 20
5.325000
  0
VERTEX
  8
FOREGROUND
  6
CONTINUOUS
 10
0.123333
 20
5.366667
  0
VERTEX
  8
FOREGROUND
  6
CONTINUOUS
 10
0.143333
 20
5.408333
  0
VERTEX
  8
FOREGROUND
  6
CONTINUOUS
 10
0.163333
 20
5.450000
  0
VERTEX
  8
FOREGROUND
  6
CONTINUOUS
 10
0.186667
 20
5.488333
  0
VERTEX
  8
FOREGROUND
  6
CONTINUOUS
 10
0.210000
 20
5.526667
  0
VERTEX
  8
FOREGROUND
  6
CONTINUOUS
 10
0.236667
 20
5.563333
  0
VERTEX
  8
FOREGROUND
  6
CONTINUOUS
 10
0.265000
 20
5.600000
  0
VERTEX
  8
FOREGROUND
  6
CONTINUOUS
 10
0.325000
 20
5.666667
  0
VERTEX
  8
FOREGROUND
  6
CONTINUOUS
 10
0.391667
 20
5.726667
  0
VERTEX
  8
FOREGROUND
  6
CONTINUOUS
 10
0.428333
 20
5.755000
  0
VERTEX
  8
FOREGROUND
  6
CONTINUOUS
 10
0.465000
 20
5.781667
  0
VERTEX
  8
FOREGROUND
  6
CONTINUOUS
 10
0.503333
 20
5.805000
  0
VERTEX
  8
FOREGROUND
  6
CONTINUOUS
 10
0.541667
 20
5.828333
  0
VERTEX
  8
FOREGROUND
  6
CONTINUOUS
 10
0.583333
 20
5.848333
  0
VERTEX
  8
FOREGROUND
  6
CONTINUOUS
 10
0.625000
 20
5.868333
  0
VERTEX
  8
FOREGROUND
  6
CONTINUOUS
 10
0.666667
 20
5.885000
  0
VERTEX
  8
FOREGROUND
  6
CONTINUOUS
 10
0.710000
 20
5.900000
  0
VERTEX
  8
FOREGROUND
  6
CONTINUOUS
 10
0.755000
 20
5.911667
  0
VERTEX
  8
FOREGROUND
  6
CONTINUOUS
 10
0.800000
 20
5.921667
  0
VERTEX
  8
FOREGROUND
  6
CONTINUOUS
 10
0.846667
 20
5.930000
  0
VERTEX
  8
FOREGROUND
  6
CONTINUOUS
 10
0.893333
 20
5.936667
  0
VERTEX
  8
FOREGROUND
  6
CONTINUOUS
 10
0.941667
 20
5.940000
  0
SEQEND
  8
0
  0
ENDSEC
  0
EOF
