  0
SECTION
  2
HEADER
  9
$ACADVER
  1
AC1006
  9
$EXTMIN
 10
0.000000
 20
0.000000
  9
$EXTMAX
 10
4.831667
 20
4.835000
  9
$LTSCALE
 40
0.166667
  9
$PDMODE
 70
    35
  9
$PDSIZE
 40
0.133333
  0
ENDSEC
  0
SECTION
  2
TABLES
  0
TABLE
  2
LTYPE
 70
     9
  0
LTYPE
  2
CONTINUOUS
 70
    64
  3
Solid line
 72
    65
 73
     0
 40
0.000000
  0
LTYPE
  2
DASHED
 70
    64
  3
__ __ __ __ __ __ __ __ __ __ __ __ __ __ __
 72
    65
 73
     2
 40
0.001250
 49
0.000833
 49
-0.000417
  0
LTYPE
  2
HIDDEN
 70
    64
  3
 _ _ _ _ _ _ _ _ _ _ _ _ _ _ _ _ _ _ _ _ _ _
 72
    65
 73
     2
 40
0.000625
 49
0.000417
 49
-0.000208
  0
LTYPE
  2
CENTER
 70
    64
  3
____ _ ____ _ ____ _ ____ _ ____ _ ____ _ ____
 72
    65
 73
     4
 40
0.003333
 49
0.002083
 49
-0.000417
 49
0.000417
 49
-0.000417
  0
LTYPE
  2
PHANTOM
 70
    64
  3
_____ _ _ _____ _ _ _____ _ _ _____ _ _ ____
 72
    65
 73
     6
 40
0.004167
 49
0.002083
 49
-0.000417
 49
0.000417
 49
-0.000417
 49
0.000417
 49
-0.000417
  0
LTYPE
  2
DOT
 70
    64
  3
...............................................
 72
    65
 73
     2
 40
0.000417
 49
0.000000
 49
-0.000417
  0
LTYPE
  2
DASHDOT
 70
    64
  3
__ . __ . __ . __ . __ . __ . __ . __ . __ . __
 72
    65
 73
     4
 40
0.001667
 49
0.000833
 49
-0.000417
 49
0.000000
 49
-0.000417
  0
LTYPE
  2
BORDER
 70
    64
  3
__ __ . __ __ . __ __ . __ __ . __ __ . __ __
 72
    65
 73
     6
 40
0.002917
 49
0.000833
 49
-0.000417
 49
0.000833
 49
-0.000417
 49
0.000000
 49
-0.000417
  0
LTYPE
  2
DIVIDE
 70
    64
  3
__ . . __ . . __ . . __ . . __ . . __ . . __
 72
    65
 73
     6
 40
0.002083
 49
0.000833
 49
-0.000417
 49
0.000000
 49
-0.000417
 49
0.000000
 49
-0.000417
  0
LTYPE
  2
DOTDOT
 70
    64
  3
 . .  . .  . .  . .  . .  . . 
 72
    65
 73
     5
 40
0.000917
 49
-0.000417
 49
0.000000
 49
-0.000417
 49
0.000000
 49
-0.000417
  0
ENDTAB
  0
TABLE
  2
STYLE
 70
     2
  0
STYLE
 70
     0
  2
SN0
 40
0.000000
 41
0.001667
 50
0.000000
 71
     0
 42
0.000000
  3
ROMAND
  0
STYLE
 70
    68
  2
SV0
 40
0.000000
 41
0.001667
 50
0.000000
 71
     0
 42
0.000000
  3
ROMAND
  0
ENDTAB
  0
TABLE
  2
LAYER
 70
     2
  0
LAYER
  2
FOREGROUND
 70
    64
 62
     7
  6
CONTINUOUS
  0
LAYER
  2
BACKGROUND
 70
    65
 62
    -7
  6
CONTINUOUS
  0
ENDTAB
  0
ENDSEC
  0
SECTION
  2
ENTITIES
  0
POLYLINE
  8
FOREGROUND
  6
CONTINUOUS
 66
     1
 40
0.010000
 41
0.010000
 70
     1
  0
VERTEX
  8
FOREGROUND
  6
CONTINUOUS
 10
3.835000
 20
0.050000
  0
VERTEX
  8
FOREGROUND
  6
CONTINUOUS
 10
3.868234
 20
0.050598
  0
VERTEX
  8
FOREGROUND
  6
CONTINUOUS
 10
3.901179
 20
0.052326
  0
VERTEX
  8
FOREGROUND
  6
CONTINUOUS
 10
3.933817
 20
0.055166
  0
VERTEX
  8
FOREGROUND
  6
CONTINUOUS
 10
3.966129
 20
0.059098
  0
VERTEX
  8
FOREGROUND
  6
CONTINUOUS
 10
3.998096
 20
0.064105
  0
VERTEX
  8
FOREGROUND
  6
CONTINUOUS
 10
4.029699
 20
0.070167
  0
VERTEX
  8
FOREGROUND
  6
CONTINUOUS
 10
4.060920
 20
0.077266
  0
VERTEX
  8
FOREGROUND
  6
CONTINUOUS
 10
4.091741
 20
0.085383
  0
VERTEX
  8
FOREGROUND
  6
CONTINUOUS
 10
4.122141
 20
0.094499
  0
VERTEX
  8
FOREGROUND
  6
CONTINUOUS
 10
4.152104
 20
0.104596
  0
VERTEX
  8
FOREGROUND
  6
CONTINUOUS
 10
4.181609
 20
0.115655
  0
VERTEX
  8
FOREGROUND
  6
CONTINUOUS
 10
4.210639
 20
0.127657
  0
VERTEX
  8
FOREGROUND
  6
CONTINUOUS
 10
4.239174
 20
0.140584
  0
VERTEX
  8
FOREGROUND
  6
CONTINUOUS
 10
4.267196
 20
0.154417
  0
VERTEX
  8
FOREGROUND
  6
CONTINUOUS
 10
4.294686
 20
0.169136
  0
VERTEX
  8
FOREGROUND
  6
CONTINUOUS
 10
4.321626
 20
0.184724
  0
VERTEX
  8
FOREGROUND
  6
CONTINUOUS
 10
4.347996
 20
0.201162
  0
VERTEX
  8
FOREGROUND
  6
CONTINUOUS
 10
4.373779
 20
0.218431
  0
VERTEX
  8
FOREGROUND
  6
CONTINUOUS
 10
4.398955
 20
0.236512
  0
VERTEX
  8
FOREGROUND
  6
CONTINUOUS
 10
4.423505
 20
0.255387
  0
VERTEX
  8
FOREGROUND
  6
CONTINUOUS
 10
4.447412
 20
0.275037
  0
VERTEX
  8
FOREGROUND
  6
CONTINUOUS
 10
4.470656
 20
0.295442
  0
VERTEX
  8
FOREGROUND
  6
CONTINUOUS
 10
4.493218
 20
0.316586
  0
VERTEX
  8
FOREGROUND
  6
CONTINUOUS
 10
4.515081
 20
0.338448
  0
VERTEX
  8
FOREGROUND
  6
CONTINUOUS
 10
4.536224
 20
0.361011
  0
VERTEX
  8
FOREGROUND
  6
CONTINUOUS
 10
4.556630
 20
0.384255
  0
VERTEX
  8
FOREGROUND
  6
CONTINUOUS
 10
4.576280
 20
0.408161
  0
VERTEX
  8
FOREGROUND
  6
CONTINUOUS
 10
4.595155
 20
0.432712
  0
VERTEX
  8
FOREGROUND
  6
CONTINUOUS
 10
4.613236
 20
0.457888
  0
VERTEX
  8
FOREGROUND
  6
CONTINUOUS
 10
4.630505
 20
0.483670
  0
VERTEX
  8
FOREGROUND
  6
CONTINUOUS
 10
4.646942
 20
0.510041
  0
VERTEX
  8
FOREGROUND
  6
CONTINUOUS
 10
4.662531
 20
0.536981
  0
VERTEX
  8
FOREGROUND
  6
CONTINUOUS
 10
4.677250
 20
0.564471
  0
VERTEX
  8
FOREGROUND
  6
CONTINUOUS
 10
4.691083
 20
0.592493
  0
VERTEX
  8
FOREGROUND
  6
CONTINUOUS
 10
4.704009
 20
0.621028
  0
VERTEX
  8
FOREGROUND
  6
CONTINUOUS
 10
4.716011
 20
0.650058
  0
VERTEX
  8
FOREGROUND
  6
CONTINUOUS
 10
4.727070
 20
0.679563
  0
VERTEX
  8
FOREGROUND
  6
CONTINUOUS
 10
4.737167
 20
0.709525
  0
VERTEX
  8
FOREGROUND
  6
CONTINUOUS
 10
4.746284
 20
0.739926
  0
VERTEX
  8
FOREGROUND
  6
CONTINUOUS
 10
4.754400
 20
0.770746
  0
VERTEX
  8
FOREGROUND
  6
CONTINUOUS
 10
4.761499
 20
0.801968
  0
VERTEX
  8
FOREGROUND
  6
CONTINUOUS
 10
4.767562
 20
0.833571
  0
VERTEX
  8
FOREGROUND
  6
CONTINUOUS
 10
4.772568
 20
0.865538
  0
VERTEX
  8
FOREGROUND
  6
CONTINUOUS
 10
4.776501
 20
0.897850
  0
VERTEX
  8
FOREGROUND
  6
CONTINUOUS
 10
4.779341
 20
0.930487
  0
VERTEX
  8
FOREGROUND
  6
CONTINUOUS
 10
4.781069
 20
0.963433
  0
VERTEX
  8
FOREGROUND
  6
CONTINUOUS
 10
4.781667
 20
0.996667
  0
VERTEX
  8
FOREGROUND
  6
CONTINUOUS
 10
4.781667
 20
3.838333
  0
VERTEX
  8
FOREGROUND
  6
CONTINUOUS
 10
4.781069
 20
3.871572
  0
VERTEX
  8
FOREGROUND
  6
CONTINUOUS
 10
4.779340
 20
3.904521
  0
VERTEX
  8
FOREGROUND
  6
CONTINUOUS
 10
4.776500
 20
3.937163
  0
VERTEX
  8
FOREGROUND
  6
CONTINUOUS
 10
4.772566
 20
3.969479
  0
VERTEX
  8
FOREGROUND
  6
CONTINUOUS
 10
4.767558
 20
4.001449
  0
VERTEX
  8
FOREGROUND
  6
CONTINUOUS
 10
4.761494
 20
4.033057
  0
VERTEX
  8
FOREGROUND
  6
CONTINUOUS
 10
4.754394
 20
4.064281
  0
VERTEX
  8
FOREGROUND
  6
CONTINUOUS
 10
4.746275
 20
4.095105
  0
VERTEX
  8
FOREGROUND
  6
CONTINUOUS
 10
4.737156
 20
4.125509
  0
VERTEX
  8
FOREGROUND
  6
CONTINUOUS
 10
4.727057
 20
4.155474
  0
VERTEX
  8
FOREGROUND
  6
CONTINUOUS
 10
4.715996
 20
4.184983
  0
VERTEX
  8
FOREGROUND
  6
CONTINUOUS
 10
4.703991
 20
4.214015
  0
VERTEX
  8
FOREGROUND
  6
CONTINUOUS
 10
4.691061
 20
4.242553
  0
VERTEX
  8
FOREGROUND
  6
CONTINUOUS
 10
4.677226
 20
4.270577
  0
VERTEX
  8
FOREGROUND
  6
CONTINUOUS
 10
4.662503
 20
4.298070
  0
VERTEX
  8
FOREGROUND
  6
CONTINUOUS
 10
4.646911
 20
4.325012
  0
VERTEX
  8
FOREGROUND
  6
CONTINUOUS
 10
4.630470
 20
4.351384
  0
VERTEX
  8
FOREGROUND
  6
CONTINUOUS
 10
4.613197
 20
4.377168
  0
VERTEX
  8
FOREGROUND
  6
CONTINUOUS
 10
4.595112
 20
4.402346
  0
VERTEX
  8
FOREGROUND
  6
CONTINUOUS
 10
4.576233
 20
4.426898
  0
VERTEX
  8
FOREGROUND
  6
CONTINUOUS
 10
4.556579
 20
4.450806
  0
VERTEX
  8
FOREGROUND
  6
CONTINUOUS
 10
4.536169
 20
4.474050
  0
VERTEX
  8
FOREGROUND
  6
CONTINUOUS
 10
4.515021
 20
4.496613
  0
VERTEX
  8
FOREGROUND
  6
CONTINUOUS
 10
4.493154
 20
4.518476
  0
VERTEX
  8
FOREGROUND
  6
CONTINUOUS
 10
4.470587
 20
4.539620
  0
VERTEX
  8
FOREGROUND
  6
CONTINUOUS
 10
4.447339
 20
4.560026
  0
VERTEX
  8
FOREGROUND
  6
CONTINUOUS
 10
4.423427
 20
4.579675
  0
VERTEX
  8
FOREGROUND
  6
CONTINUOUS
 10
4.398872
 20
4.598550
  0
VERTEX
  8
FOREGROUND
  6
CONTINUOUS
 10
4.373691
 20
4.616630
  0
VERTEX
  8
FOREGROUND
  6
CONTINUOUS
 10
4.347903
 20
4.633898
  0
VERTEX
  8
FOREGROUND
  6
CONTINUOUS
 10
4.321528
 20
4.650335
  0
VERTEX
  8
FOREGROUND
  6
CONTINUOUS
 10
4.294583
 20
4.665921
  0
VERTEX
  8
FOREGROUND
  6
CONTINUOUS
 10
4.267088
 20
4.680639
  0
VERTEX
  8
FOREGROUND
  6
CONTINUOUS
 10
4.239061
 20
4.694469
  0
VERTEX
  8
FOREGROUND
  6
CONTINUOUS
 10
4.210521
 20
4.707394
  0
VERTEX
  8
FOREGROUND
  6
CONTINUOUS
 10
4.181486
 20
4.719393
  0
VERTEX
  8
FOREGROUND
  6
CONTINUOUS
 10
4.151976
 20
4.730449
  0
VERTEX
  8
FOREGROUND
  6
CONTINUOUS
 10
4.122008
 20
4.740543
  0
VERTEX
  8
FOREGROUND
  6
CONTINUOUS
 10
4.091603
 20
4.749656
  0
VERTEX
  8
FOREGROUND
  6
CONTINUOUS
 10
4.060778
 20
4.757769
  0
VERTEX
  8
FOREGROUND
  6
CONTINUOUS
 10
4.029552
 20
4.764864
  0
VERTEX
  8
FOREGROUND
  6
CONTINUOUS
 10
3.997943
 20
4.770922
  0
VERTEX
  8
FOREGROUND
  6
CONTINUOUS
 10
3.965972
 20
4.775924
  0
VERTEX
  8
FOREGROUND
  6
CONTINUOUS
 10
3.933655
 20
4.779851
  0
VERTEX
  8
FOREGROUND
  6
CONTINUOUS
 10
3.901013
 20
4.782686
  0
VERTEX
  8
FOREGROUND
  6
CONTINUOUS
 10
3.868063
 20
4.784408
  0
VERTEX
  8
FOREGROUND
  6
CONTINUOUS
 10
3.834825
 20
4.785000
  0
VERTEX
  8
FOREGROUND
  6
CONTINUOUS
 10
0.996491
 20
4.785000
  0
VERTEX
  8
FOREGROUND
  6
CONTINUOUS
 10
0.963262
 20
4.784396
  0
VERTEX
  8
FOREGROUND
  6
CONTINUOUS
 10
0.930321
 20
4.782662
  0
VERTEX
  8
FOREGROUND
  6
CONTINUOUS
 10
0.897688
 20
4.779817
  0
VERTEX
  8
FOREGROUND
  6
CONTINUOUS
 10
0.865381
 20
4.775880
  0
VERTEX
  8
FOREGROUND
  6
CONTINUOUS
 10
0.833419
 20
4.770868
  0
VERTEX
  8
FOREGROUND
  6
CONTINUOUS
 10
0.801820
 20
4.764802
  0
VERTEX
  8
FOREGROUND
  6
CONTINUOUS
 10
0.770604
 20
4.757699
  0
VERTEX
  8
FOREGROUND
  6
CONTINUOUS
 10
0.739788
 20
4.749578
  0
VERTEX
  8
FOREGROUND
  6
CONTINUOUS
 10
0.709393
 20
4.740458
  0
VERTEX
  8
FOREGROUND
  6
CONTINUOUS
 10
0.679435
 20
4.730358
  0
VERTEX
  8
FOREGROUND
  6
CONTINUOUS
 10
0.649935
 20
4.719296
  0
VERTEX
  8
FOREGROUND
  6
CONTINUOUS
 10
0.620910
 20
4.707292
  0
VERTEX
  8
FOREGROUND
  6
CONTINUOUS
 10
0.592380
 20
4.694363
  0
VERTEX
  8
FOREGROUND
  6
CONTINUOUS
 10
0.564363
 20
4.680528
  0
VERTEX
  8
FOREGROUND
  6
CONTINUOUS
 10
0.536878
 20
4.665807
  0
VERTEX
  8
FOREGROUND
  6
CONTINUOUS
 10
0.509943
 20
4.650217
  0
VERTEX
  8
FOREGROUND
  6
CONTINUOUS
 10
0.483578
 20
4.633778
  0
VERTEX
  8
FOREGROUND
  6
CONTINUOUS
 10
0.457800
 20
4.616508
  0
VERTEX
  8
FOREGROUND
  6
CONTINUOUS
 10
0.432629
 20
4.598426
  0
VERTEX
  8
FOREGROUND
  6
CONTINUOUS
 10
0.408083
 20
4.579551
  0
VERTEX
  8
FOREGROUND
  6
CONTINUOUS
 10
0.384181
 20
4.559901
  0
VERTEX
  8
FOREGROUND
  6
CONTINUOUS
 10
0.360942
 20
4.539495
  0
VERTEX
  8
FOREGROUND
  6
CONTINUOUS
 10
0.338384
 20
4.518352
  0
VERTEX
  8
FOREGROUND
  6
CONTINUOUS
 10
0.316526
 20
4.496490
  0
VERTEX
  8
FOREGROUND
  6
CONTINUOUS
 10
0.295387
 20
4.473928
  0
VERTEX
  8
FOREGROUND
  6
CONTINUOUS
 10
0.274985
 20
4.450685
  0
VERTEX
  8
FOREGROUND
  6
CONTINUOUS
 10
0.255340
 20
4.426780
  0
VERTEX
  8
FOREGROUND
  6
CONTINUOUS
 10
0.236469
 20
4.402230
  0
VERTEX
  8
FOREGROUND
  6
CONTINUOUS
 10
0.218392
 20
4.377056
  0
VERTEX
  8
FOREGROUND
  6
CONTINUOUS
 10
0.201127
 20
4.351275
  0
VERTEX
  8
FOREGROUND
  6
CONTINUOUS
 10
0.184693
 20
4.324906
  0
VERTEX
  8
FOREGROUND
  6
CONTINUOUS
 10
0.169108
 20
4.297969
  0
VERTEX
  8
FOREGROUND
  6
CONTINUOUS
 10
0.154392
 20
4.270481
  0
VERTEX
  8
FOREGROUND
  6
CONTINUOUS
 10
0.140563
 20
4.242461
  0
VERTEX
  8
FOREGROUND
  6
CONTINUOUS
 10
0.127639
 20
4.213929
  0
VERTEX
  8
FOREGROUND
  6
CONTINUOUS
 10
0.115640
 20
4.184902
  0
VERTEX
  8
FOREGROUND
  6
CONTINUOUS
 10
0.104583
 20
4.155399
  0
VERTEX
  8
FOREGROUND
  6
CONTINUOUS
 10
0.094489
 20
4.125440
  0
VERTEX
  8
FOREGROUND
  6
CONTINUOUS
 10
0.085375
 20
4.095043
  0
VERTEX
  8
FOREGROUND
  6
CONTINUOUS
 10
0.077260
 20
4.064226
  0
VERTEX
  8
FOREGROUND
  6
CONTINUOUS
 10
0.070162
 20
4.033008
  0
VERTEX
  8
FOREGROUND
  6
CONTINUOUS
 10
0.064102
 20
4.001409
  0
VERTEX
  8
FOREGROUND
  6
CONTINUOUS
 10
0.059096
 20
3.969446
  0
VERTEX
  8
FOREGROUND
  6
CONTINUOUS
 10
0.055165
 20
3.937138
  0
VERTEX
  8
FOREGROUND
  6
CONTINUOUS
 10
0.052326
 20
3.904504
  0
VERTEX
  8
FOREGROUND
  6
CONTINUOUS
 10
0.050598
 20
3.871563
  0
VERTEX
  8
FOREGROUND
  6
CONTINUOUS
 10
0.050000
 20
3.838333
  0
VERTEX
  8
FOREGROUND
  6
CONTINUOUS
 10
0.050000
 20
0.996667
  0
VERTEX
  8
FOREGROUND
  6
CONTINUOUS
 10
0.050598
 20
0.963433
  0
VERTEX
  8
FOREGROUND
  6
CONTINUOUS
 10
0.052326
 20
0.930487
  0
VERTEX
  8
FOREGROUND
  6
CONTINUOUS
 10
0.055166
 20
0.897850
  0
VERTEX
  8
FOREGROUND
  6
CONTINUOUS
 10
0.059098
 20
0.865538
  0
VERTEX
  8
FOREGROUND
  6
CONTINUOUS
 10
0.064105
 20
0.833571
  0
VERTEX
  8
FOREGROUND
  6
CONTINUOUS
 10
0.070167
 20
0.801968
  0
VERTEX
  8
FOREGROUND
  6
CONTINUOUS
 10
0.077266
 20
0.770746
  0
VERTEX
  8
FOREGROUND
  6
CONTINUOUS
 10
0.085383
 20
0.739926
  0
VERTEX
  8
FOREGROUND
  6
CONTINUOUS
 10
0.094499
 20
0.709525
  0
VERTEX
  8
FOREGROUND
  6
CONTINUOUS
 10
0.104596
 20
0.679563
  0
VERTEX
  8
FOREGROUND
  6
CONTINUOUS
 10
0.115655
 20
0.650058
  0
VERTEX
  8
FOREGROUND
  6
CONTINUOUS
 10
0.127657
 20
0.621028
  0
VERTEX
  8
FOREGROUND
  6
CONTINUOUS
 10
0.140584
 20
0.592493
  0
VERTEX
  8
FOREGROUND
  6
CONTINUOUS
 10
0.154417
 20
0.564471
  0
VERTEX
  8
FOREGROUND
  6
CONTINUOUS
 10
0.169136
 20
0.536981
  0
VERTEX
  8
FOREGROUND
  6
CONTINUOUS
 10
0.184724
 20
0.510041
  0
VERTEX
  8
FOREGROUND
  6
CONTINUOUS
 10
0.201162
 20
0.483670
  0
VERTEX
  8
FOREGROUND
  6
CONTINUOUS
 10
0.218431
 20
0.457888
  0
VERTEX
  8
FOREGROUND
  6
CONTINUOUS
 10
0.236512
 20
0.432712
  0
VERTEX
  8
FOREGROUND
  6
CONTINUOUS
 10
0.255387
 20
0.408161
  0
VERTEX
  8
FOREGROUND
  6
CONTINUOUS
 10
0.275037
 20
0.384255
  0
VERTEX
  8
FOREGROUND
  6
CONTINUOUS
 10
0.295442
 20
0.361011
  0
VERTEX
  8
FOREGROUND
  6
CONTINUOUS
 10
0.316586
 20
0.338448
  0
VERTEX
  8
FOREGROUND
  6
CONTINUOUS
 10
0.338448
 20
0.316586
  0
VERTEX
  8
FOREGROUND
  6
CONTINUOUS
 10
0.361011
 20
0.295442
  0
VERTEX
  8
FOREGROUND
  6
CONTINUOUS
 10
0.384255
 20
0.275037
  0
VERTEX
  8
FOREGROUND
  6
CONTINUOUS
 10
0.408161
 20
0.255387
  0
VERTEX
  8
FOREGROUND
  6
CONTINUOUS
 10
0.432712
 20
0.236512
  0
VERTEX
  8
FOREGROUND
  6
CONTINUOUS
 10
0.457888
 20
0.218431
  0
VERTEX
  8
FOREGROUND
  6
CONTINUOUS
 10
0.483670
 20
0.201162
  0
VERTEX
  8
FOREGROUND
  6
CONTINUOUS
 10
0.510041
 20
0.184724
  0
VERTEX
  8
FOREGROUND
  6
CONTINUOUS
 10
0.536981
 20
0.169136
  0
VERTEX
  8
FOREGROUND
  6
CONTINUOUS
 10
0.564471
 20
0.154417
  0
VERTEX
  8
FOREGROUND
  6
CONTINUOUS
 10
0.592493
 20
0.140584
  0
VERTEX
  8
FOREGROUND
  6
CONTINUOUS
 10
0.621028
 20
0.127657
  0
VERTEX
  8
FOREGROUND
  6
CONTINUOUS
 10
0.650058
 20
0.115655
  0
VERTEX
  8
FOREGROUND
  6
CONTINUOUS
 10
0.679563
 20
0.104596
  0
VERTEX
  8
FOREGROUND
  6
CONTINUOUS
 10
0.709525
 20
0.094499
  0
VERTEX
  8
FOREGROUND
  6
CONTINUOUS
 10
0.739926
 20
0.085383
  0
VERTEX
  8
FOREGROUND
  6
CONTINUOUS
 10
0.770746
 20
0.077266
  0
VERTEX
  8
FOREGROUND
  6
CONTINUOUS
 10
0.801968
 20
0.070167
  0
VERTEX
  8
FOREGROUND
  6
CONTINUOUS
 10
0.833571
 20
0.064105
  0
VERTEX
  8
FOREGROUND
  6
CONTINUOUS
 10
0.865538
 20
0.059098
  0
VERTEX
  8
FOREGROUND
  6
CONTINUOUS
 10
0.897850
 20
0.055166
  0
VERTEX
  8
FOREGROUND
  6
CONTINUOUS
 10
0.930487
 20
0.052326
  0
VERTEX
  8
FOREGROUND
  6
CONTINUOUS
 10
0.963433
 20
0.050598
  0
VERTEX
  8
FOREGROUND
  6
CONTINUOUS
 10
0.996667
 20
0.050000
  0
SEQEND
  8
0
  0
ENDSEC
  0
EOF
