  0
SECTION
  2
HEADER
  9
$ACADVER
  1
AC1006
  9
$EXTMIN
 10
0.000000
 20
0.000000
  9
$EXTMAX
 10
4.948333
 20
5.311667
  9
$LTSCALE
 40
0.166667
  9
$PDMODE
 70
    35
  9
$PDSIZE
 40
0.133333
  0
ENDSEC
  0
SECTION
  2
TABLES
  0
TABLE
  2
LTYPE
 70
     9
  0
LTYPE
  2
CONTINUOUS
 70
    64
  3
Solid line
 72
    65
 73
     0
 40
0.000000
  0
LTYPE
  2
DASHED
 70
    64
  3
__ __ __ __ __ __ __ __ __ __ __ __ __ __ __
 72
    65
 73
     2
 40
0.001250
 49
0.000833
 49
-0.000417
  0
LTYPE
  2
HIDDEN
 70
    64
  3
 _ _ _ _ _ _ _ _ _ _ _ _ _ _ _ _ _ _ _ _ _ _
 72
    65
 73
     2
 40
0.000625
 49
0.000417
 49
-0.000208
  0
LTYPE
  2
CENTER
 70
    64
  3
____ _ ____ _ ____ _ ____ _ ____ _ ____ _ ____
 72
    65
 73
     4
 40
0.003333
 49
0.002083
 49
-0.000417
 49
0.000417
 49
-0.000417
  0
LTYPE
  2
PHANTOM
 70
    64
  3
_____ _ _ _____ _ _ _____ _ _ _____ _ _ ____
 72
    65
 73
     6
 40
0.004167
 49
0.002083
 49
-0.000417
 49
0.000417
 49
-0.000417
 49
0.000417
 49
-0.000417
  0
LTYPE
  2
DOT
 70
    64
  3
...............................................
 72
    65
 73
     2
 40
0.000417
 49
0.000000
 49
-0.000417
  0
LTYPE
  2
DASHDOT
 70
    64
  3
__ . __ . __ . __ . __ . __ . __ . __ . __ . __
 72
    65
 73
     4
 40
0.001667
 49
0.000833
 49
-0.000417
 49
0.000000
 49
-0.000417
  0
LTYPE
  2
BORDER
 70
    64
  3
__ __ . __ __ . __ __ . __ __ . __ __ . __ __
 72
    65
 73
     6
 40
0.002917
 49
0.000833
 49
-0.000417
 49
0.000833
 49
-0.000417
 49
0.000000
 49
-0.000417
  0
LTYPE
  2
DIVIDE
 70
    64
  3
__ . . __ . . __ . . __ . . __ . . __ . . __
 72
    65
 73
     6
 40
0.002083
 49
0.000833
 49
-0.000417
 49
0.000000
 49
-0.000417
 49
0.000000
 49
-0.000417
  0
LTYPE
  2
DOTDOT
 70
    64
  3
 . .  . .  . .  . .  . .  . . 
 72
    65
 73
     5
 40
0.000917
 49
-0.000417
 49
0.000000
 49
-0.000417
 49
0.000000
 49
-0.000417
  0
ENDTAB
  0
TABLE
  2
STYLE
 70
     2
  0
STYLE
 70
     0
  2
SN0
 40
0.000000
 41
0.001667
 50
0.000000
 71
     0
 42
0.000000
  3
ROMAND
  0
STYLE
 70
    68
  2
SV0
 40
0.000000
 41
0.001667
 50
0.000000
 71
     0
 42
0.000000
  3
ROMAND
  0
ENDTAB
  0
TABLE
  2
LAYER
 70
     2
  0
LAYER
  2
FOREGROUND
 70
    64
 62
     7
  6
CONTINUOUS
  0
LAYER
  2
BACKGROUND
 70
    65
 62
    -7
  6
CONTINUOUS
  0
ENDTAB
  0
ENDSEC
  0
SECTION
  2
ENTITIES
  0
POLYLINE
  8
FOREGROUND
 62
     7
  6
CONTINUOUS
 66
     1
 40
0.000000
 41
0.000000
 70
     1
  0
VERTEX
  8
FOREGROUND
 62
     7
  6
CONTINUOUS
 10
0.995000
 20
5.153333
  0
VERTEX
  8
FOREGROUND
 62
     7
  6
CONTINUOUS
 10
3.835000
 20
5.153333
  0
VERTEX
  8
FOREGROUND
 62
     7
  6
CONTINUOUS
 10
3.883333
 20
5.151667
  0
VERTEX
  8
FOREGROUND
 62
     7
  6
CONTINUOUS
 10
3.931667
 20
5.148333
  0
VERTEX
  8
FOREGROUND
 62
     7
  6
CONTINUOUS
 10
3.978333
 20
5.141667
  0
VERTEX
  8
FOREGROUND
 62
     7
  6
CONTINUOUS
 10
4.025000
 20
5.133333
  0
VERTEX
  8
FOREGROUND
 62
     7
  6
CONTINUOUS
 10
4.071667
 20
5.123333
  0
VERTEX
  8
FOREGROUND
 62
     7
  6
CONTINUOUS
 10
4.116667
 20
5.110000
  0
VERTEX
  8
FOREGROUND
 62
     7
  6
CONTINUOUS
 10
4.160000
 20
5.095000
  0
VERTEX
  8
FOREGROUND
 62
     7
  6
CONTINUOUS
 10
4.203333
 20
5.078333
  0
VERTEX
  8
FOREGROUND
 62
     7
  6
CONTINUOUS
 10
4.245000
 20
5.060000
  0
VERTEX
  8
FOREGROUND
 62
     7
  6
CONTINUOUS
 10
4.285000
 20
5.038333
  0
VERTEX
  8
FOREGROUND
 62
     7
  6
CONTINUOUS
 10
4.325000
 20
5.016667
  0
VERTEX
  8
FOREGROUND
 62
     7
  6
CONTINUOUS
 10
4.363333
 20
4.991667
  0
VERTEX
  8
FOREGROUND
 62
     7
  6
CONTINUOUS
 10
4.400000
 20
4.965000
  0
VERTEX
  8
FOREGROUND
 62
     7
  6
CONTINUOUS
 10
4.436667
 20
4.936667
  0
VERTEX
  8
FOREGROUND
 62
     7
  6
CONTINUOUS
 10
4.503333
 20
4.876667
  0
VERTEX
  8
FOREGROUND
 62
     7
  6
CONTINUOUS
 10
4.565000
 20
4.810000
  0
VERTEX
  8
FOREGROUND
 62
     7
  6
CONTINUOUS
 10
4.591667
 20
4.773333
  0
VERTEX
  8
FOREGROUND
 62
     7
  6
CONTINUOUS
 10
4.618333
 20
4.736667
  0
VERTEX
  8
FOREGROUND
 62
     7
  6
CONTINUOUS
 10
4.643333
 20
4.698333
  0
VERTEX
  8
FOREGROUND
 62
     7
  6
CONTINUOUS
 10
4.666667
 20
4.658333
  0
VERTEX
  8
FOREGROUND
 62
     7
  6
CONTINUOUS
 10
4.686667
 20
4.618333
  0
VERTEX
  8
FOREGROUND
 62
     7
  6
CONTINUOUS
 10
4.706667
 20
4.576667
  0
VERTEX
  8
FOREGROUND
 62
     7
  6
CONTINUOUS
 10
4.723333
 20
4.533333
  0
VERTEX
  8
FOREGROUND
 62
     7
  6
CONTINUOUS
 10
4.738333
 20
4.490000
  0
VERTEX
  8
FOREGROUND
 62
     7
  6
CONTINUOUS
 10
4.750000
 20
4.445000
  0
VERTEX
  8
FOREGROUND
 62
     7
  6
CONTINUOUS
 10
4.761667
 20
4.398333
  0
VERTEX
  8
FOREGROUND
 62
     7
  6
CONTINUOUS
 10
4.770000
 20
4.351667
  0
VERTEX
  8
FOREGROUND
 62
     7
  6
CONTINUOUS
 10
4.775000
 20
4.305000
  0
VERTEX
  8
FOREGROUND
 62
     7
  6
CONTINUOUS
 10
4.778333
 20
4.256667
  0
VERTEX
  8
FOREGROUND
 62
     7
  6
CONTINUOUS
 10
4.780000
 20
4.208333
  0
VERTEX
  8
FOREGROUND
 62
     7
  6
CONTINUOUS
 10
4.780000
 20
1.003333
  0
VERTEX
  8
FOREGROUND
 62
     7
  6
CONTINUOUS
 10
4.778333
 20
0.955000
  0
VERTEX
  8
FOREGROUND
 62
     7
  6
CONTINUOUS
 10
4.775000
 20
0.906667
  0
VERTEX
  8
FOREGROUND
 62
     7
  6
CONTINUOUS
 10
4.770000
 20
0.860000
  0
VERTEX
  8
FOREGROUND
 62
     7
  6
CONTINUOUS
 10
4.761667
 20
0.813333
  0
VERTEX
  8
FOREGROUND
 62
     7
  6
CONTINUOUS
 10
4.750000
 20
0.766667
  0
VERTEX
  8
FOREGROUND
 62
     7
  6
CONTINUOUS
 10
4.738333
 20
0.721667
  0
VERTEX
  8
FOREGROUND
 62
     7
  6
CONTINUOUS
 10
4.723333
 20
0.678333
  0
VERTEX
  8
FOREGROUND
 62
     7
  6
CONTINUOUS
 10
4.706667
 20
0.635000
  0
VERTEX
  8
FOREGROUND
 62
     7
  6
CONTINUOUS
 10
4.686667
 20
0.593333
  0
VERTEX
  8
FOREGROUND
 62
     7
  6
CONTINUOUS
 10
4.666667
 20
0.553333
  0
VERTEX
  8
FOREGROUND
 62
     7
  6
CONTINUOUS
 10
4.643333
 20
0.513333
  0
VERTEX
  8
FOREGROUND
 62
     7
  6
CONTINUOUS
 10
4.618333
 20
0.475000
  0
VERTEX
  8
FOREGROUND
 62
     7
  6
CONTINUOUS
 10
4.591667
 20
0.438333
  0
VERTEX
  8
FOREGROUND
 62
     7
  6
CONTINUOUS
 10
4.565000
 20
0.401667
  0
VERTEX
  8
FOREGROUND
 62
     7
  6
CONTINUOUS
 10
4.503333
 20
0.335000
  0
VERTEX
  8
FOREGROUND
 62
     7
  6
CONTINUOUS
 10
4.436667
 20
0.273333
  0
VERTEX
  8
FOREGROUND
 62
     7
  6
CONTINUOUS
 10
4.400000
 20
0.246667
  0
VERTEX
  8
FOREGROUND
 62
     7
  6
CONTINUOUS
 10
4.363333
 20
0.220000
  0
VERTEX
  8
FOREGROUND
 62
     7
  6
CONTINUOUS
 10
4.325000
 20
0.195000
  0
VERTEX
  8
FOREGROUND
 62
     7
  6
CONTINUOUS
 10
4.285000
 20
0.171667
  0
VERTEX
  8
FOREGROUND
 62
     7
  6
CONTINUOUS
 10
4.245000
 20
0.151667
  0
VERTEX
  8
FOREGROUND
 62
     7
  6
CONTINUOUS
 10
4.203333
 20
0.131667
  0
VERTEX
  8
FOREGROUND
 62
     7
  6
CONTINUOUS
 10
4.160000
 20
0.115000
  0
VERTEX
  8
FOREGROUND
 62
     7
  6
CONTINUOUS
 10
4.116667
 20
0.100000
  0
VERTEX
  8
FOREGROUND
 62
     7
  6
CONTINUOUS
 10
4.071667
 20
0.088333
  0
VERTEX
  8
FOREGROUND
 62
     7
  6
CONTINUOUS
 10
4.025000
 20
0.076667
  0
VERTEX
  8
FOREGROUND
 62
     7
  6
CONTINUOUS
 10
3.978333
 20
0.068333
  0
VERTEX
  8
FOREGROUND
 62
     7
  6
CONTINUOUS
 10
3.931667
 20
0.063333
  0
VERTEX
  8
FOREGROUND
 62
     7
  6
CONTINUOUS
 10
3.883333
 20
0.060000
  0
VERTEX
  8
FOREGROUND
 62
     7
  6
CONTINUOUS
 10
3.835000
 20
0.058333
  0
VERTEX
  8
FOREGROUND
 62
     7
  6
CONTINUOUS
 10
0.995000
 20
0.058333
  0
VERTEX
  8
FOREGROUND
 62
     7
  6
CONTINUOUS
 10
0.946667
 20
0.060000
  0
VERTEX
  8
FOREGROUND
 62
     7
  6
CONTINUOUS
 10
0.898333
 20
0.063333
  0
VERTEX
  8
FOREGROUND
 62
     7
  6
CONTINUOUS
 10
0.851667
 20
0.068333
  0
VERTEX
  8
FOREGROUND
 62
     7
  6
CONTINUOUS
 10
0.805000
 20
0.076667
  0
VERTEX
  8
FOREGROUND
 62
     7
  6
CONTINUOUS
 10
0.758333
 20
0.088333
  0
VERTEX
  8
FOREGROUND
 62
     7
  6
CONTINUOUS
 10
0.713333
 20
0.100000
  0
VERTEX
  8
FOREGROUND
 62
     7
  6
CONTINUOUS
 10
0.670000
 20
0.115000
  0
VERTEX
  8
FOREGROUND
 62
     7
  6
CONTINUOUS
 10
0.626667
 20
0.131667
  0
VERTEX
  8
FOREGROUND
 62
     7
  6
CONTINUOUS
 10
0.585000
 20
0.151667
  0
VERTEX
  8
FOREGROUND
 62
     7
  6
CONTINUOUS
 10
0.545000
 20
0.171667
  0
VERTEX
  8
FOREGROUND
 62
     7
  6
CONTINUOUS
 10
0.505000
 20
0.195000
  0
VERTEX
  8
FOREGROUND
 62
     7
  6
CONTINUOUS
 10
0.466667
 20
0.220000
  0
VERTEX
  8
FOREGROUND
 62
     7
  6
CONTINUOUS
 10
0.430000
 20
0.246667
  0
VERTEX
  8
FOREGROUND
 62
     7
  6
CONTINUOUS
 10
0.393333
 20
0.273333
  0
VERTEX
  8
FOREGROUND
 62
     7
  6
CONTINUOUS
 10
0.326667
 20
0.335000
  0
VERTEX
  8
FOREGROUND
 62
     7
  6
CONTINUOUS
 10
0.266667
 20
0.401667
  0
VERTEX
  8
FOREGROUND
 62
     7
  6
CONTINUOUS
 10
0.238333
 20
0.438333
  0
VERTEX
  8
FOREGROUND
 62
     7
  6
CONTINUOUS
 10
0.211667
 20
0.475000
  0
VERTEX
  8
FOREGROUND
 62
     7
  6
CONTINUOUS
 10
0.186667
 20
0.513333
  0
VERTEX
  8
FOREGROUND
 62
     7
  6
CONTINUOUS
 10
0.165000
 20
0.553333
  0
VERTEX
  8
FOREGROUND
 62
     7
  6
CONTINUOUS
 10
0.143333
 20
0.593333
  0
VERTEX
  8
FOREGROUND
 62
     7
  6
CONTINUOUS
 10
0.125000
 20
0.635000
  0
VERTEX
  8
FOREGROUND
 62
     7
  6
CONTINUOUS
 10
0.108333
 20
0.678333
  0
VERTEX
  8
FOREGROUND
 62
     7
  6
CONTINUOUS
 10
0.093333
 20
0.721667
  0
VERTEX
  8
FOREGROUND
 62
     7
  6
CONTINUOUS
 10
0.080000
 20
0.766667
  0
VERTEX
  8
FOREGROUND
 62
     7
  6
CONTINUOUS
 10
0.070000
 20
0.813333
  0
VERTEX
  8
FOREGROUND
 62
     7
  6
CONTINUOUS
 10
0.061667
 20
0.860000
  0
VERTEX
  8
FOREGROUND
 62
     7
  6
CONTINUOUS
 10
0.055000
 20
0.906667
  0
VERTEX
  8
FOREGROUND
 62
     7
  6
CONTINUOUS
 10
0.051667
 20
0.955000
  0
VERTEX
  8
FOREGROUND
 62
     7
  6
CONTINUOUS
 10
0.050000
 20
1.003333
  0
VERTEX
  8
FOREGROUND
 62
     7
  6
CONTINUOUS
 10
0.050000
 20
4.208333
  0
VERTEX
  8
FOREGROUND
 62
     7
  6
CONTINUOUS
 10
0.051667
 20
4.256667
  0
VERTEX
  8
FOREGROUND
 62
     7
  6
CONTINUOUS
 10
0.055000
 20
4.305000
  0
VERTEX
  8
FOREGROUND
 62
     7
  6
CONTINUOUS
 10
0.061667
 20
4.351667
  0
VERTEX
  8
FOREGROUND
 62
     7
  6
CONTINUOUS
 10
0.070000
 20
4.398333
  0
VERTEX
  8
FOREGROUND
 62
     7
  6
CONTINUOUS
 10
0.080000
 20
4.445000
  0
VERTEX
  8
FOREGROUND
 62
     7
  6
CONTINUOUS
 10
0.093333
 20
4.490000
  0
VERTEX
  8
FOREGROUND
 62
     7
  6
CONTINUOUS
 10
0.108333
 20
4.533333
  0
VERTEX
  8
FOREGROUND
 62
     7
  6
CONTINUOUS
 10
0.125000
 20
4.576667
  0
VERTEX
  8
FOREGROUND
 62
     7
  6
CONTINUOUS
 10
0.143333
 20
4.618333
  0
VERTEX
  8
FOREGROUND
 62
     7
  6
CONTINUOUS
 10
0.165000
 20
4.658333
  0
VERTEX
  8
FOREGROUND
 62
     7
  6
CONTINUOUS
 10
0.186667
 20
4.698333
  0
VERTEX
  8
FOREGROUND
 62
     7
  6
CONTINUOUS
 10
0.211667
 20
4.736667
  0
VERTEX
  8
FOREGROUND
 62
     7
  6
CONTINUOUS
 10
0.238333
 20
4.773333
  0
VERTEX
  8
FOREGROUND
 62
     7
  6
CONTINUOUS
 10
0.266667
 20
4.810000
  0
VERTEX
  8
FOREGROUND
 62
     7
  6
CONTINUOUS
 10
0.326667
 20
4.876667
  0
VERTEX
  8
FOREGROUND
 62
     7
  6
CONTINUOUS
 10
0.393333
 20
4.936667
  0
VERTEX
  8
FOREGROUND
 62
     7
  6
CONTINUOUS
 10
0.430000
 20
4.965000
  0
VERTEX
  8
FOREGROUND
 62
     7
  6
CONTINUOUS
 10
0.466667
 20
4.991667
  0
VERTEX
  8
FOREGROUND
 62
     7
  6
CONTINUOUS
 10
0.505000
 20
5.016667
  0
VERTEX
  8
FOREGROUND
 62
     7
  6
CONTINUOUS
 10
0.545000
 20
5.038333
  0
VERTEX
  8
FOREGROUND
 62
     7
  6
CONTINUOUS
 10
0.585000
 20
5.060000
  0
VERTEX
  8
FOREGROUND
 62
     7
  6
CONTINUOUS
 10
0.626667
 20
5.078333
  0
VERTEX
  8
FOREGROUND
 62
     7
  6
CONTINUOUS
 10
0.670000
 20
5.095000
  0
VERTEX
  8
FOREGROUND
 62
     7
  6
CONTINUOUS
 10
0.713333
 20
5.110000
  0
VERTEX
  8
FOREGROUND
 62
     7
  6
CONTINUOUS
 10
0.758333
 20
5.123333
  0
VERTEX
  8
FOREGROUND
 62
     7
  6
CONTINUOUS
 10
0.805000
 20
5.133333
  0
VERTEX
  8
FOREGROUND
 62
     7
  6
CONTINUOUS
 10
0.851667
 20
5.141667
  0
VERTEX
  8
FOREGROUND
 62
     7
  6
CONTINUOUS
 10
0.898333
 20
5.148333
  0
VERTEX
  8
FOREGROUND
 62
     7
  6
CONTINUOUS
 10
0.946667
 20
5.151667
  0
SEQEND
  8
0
  0
POLYLINE
  8
FOREGROUND
  6
CONTINUOUS
 66
     1
 40
0.010000
 41
0.010000
 70
     1
  0
VERTEX
  8
FOREGROUND
  6
CONTINUOUS
 10
0.995000
 20
5.153333
  0
VERTEX
  8
FOREGROUND
  6
CONTINUOUS
 10
3.835000
 20
5.153333
  0
VERTEX
  8
FOREGROUND
  6
CONTINUOUS
 10
3.883333
 20
5.151667
  0
VERTEX
  8
FOREGROUND
  6
CONTINUOUS
 10
3.931667
 20
5.148333
  0
VERTEX
  8
FOREGROUND
  6
CONTINUOUS
 10
3.978333
 20
5.141667
  0
VERTEX
  8
FOREGROUND
  6
CONTINUOUS
 10
4.025000
 20
5.133333
  0
VERTEX
  8
FOREGROUND
  6
CONTINUOUS
 10
4.071667
 20
5.123333
  0
VERTEX
  8
FOREGROUND
  6
CONTINUOUS
 10
4.116667
 20
5.110000
  0
VERTEX
  8
FOREGROUND
  6
CONTINUOUS
 10
4.160000
 20
5.095000
  0
VERTEX
  8
FOREGROUND
  6
CONTINUOUS
 10
4.203333
 20
5.078333
  0
VERTEX
  8
FOREGROUND
  6
CONTINUOUS
 10
4.245000
 20
5.060000
  0
VERTEX
  8
FOREGROUND
  6
CONTINUOUS
 10
4.285000
 20
5.038333
  0
VERTEX
  8
FOREGROUND
  6
CONTINUOUS
 10
4.325000
 20
5.016667
  0
VERTEX
  8
FOREGROUND
  6
CONTINUOUS
 10
4.363333
 20
4.991667
  0
VERTEX
  8
FOREGROUND
  6
CONTINUOUS
 10
4.400000
 20
4.965000
  0
VERTEX
  8
FOREGROUND
  6
CONTINUOUS
 10
4.436667
 20
4.936667
  0
VERTEX
  8
FOREGROUND
  6
CONTINUOUS
 10
4.503333
 20
4.876667
  0
VERTEX
  8
FOREGROUND
  6
CONTINUOUS
 10
4.565000
 20
4.810000
  0
VERTEX
  8
FOREGROUND
  6
CONTINUOUS
 10
4.591667
 20
4.773333
  0
VERTEX
  8
FOREGROUND
  6
CONTINUOUS
 10
4.618333
 20
4.736667
  0
VERTEX
  8
FOREGROUND
  6
CONTINUOUS
 10
4.643333
 20
4.698333
  0
VERTEX
  8
FOREGROUND
  6
CONTINUOUS
 10
4.666667
 20
4.658333
  0
VERTEX
  8
FOREGROUND
  6
CONTINUOUS
 10
4.686667
 20
4.618333
  0
VERTEX
  8
FOREGROUND
  6
CONTINUOUS
 10
4.706667
 20
4.576667
  0
VERTEX
  8
FOREGROUND
  6
CONTINUOUS
 10
4.723333
 20
4.533333
  0
VERTEX
  8
FOREGROUND
  6
CONTINUOUS
 10
4.738333
 20
4.490000
  0
VERTEX
  8
FOREGROUND
  6
CONTINUOUS
 10
4.750000
 20
4.445000
  0
VERTEX
  8
FOREGROUND
  6
CONTINUOUS
 10
4.761667
 20
4.398333
  0
VERTEX
  8
FOREGROUND
  6
CONTINUOUS
 10
4.770000
 20
4.351667
  0
VERTEX
  8
FOREGROUND
  6
CONTINUOUS
 10
4.775000
 20
4.305000
  0
VERTEX
  8
FOREGROUND
  6
CONTINUOUS
 10
4.778333
 20
4.256667
  0
VERTEX
  8
FOREGROUND
  6
CONTINUOUS
 10
4.780000
 20
4.208333
  0
VERTEX
  8
FOREGROUND
  6
CONTINUOUS
 10
4.780000
 20
1.003333
  0
VERTEX
  8
FOREGROUND
  6
CONTINUOUS
 10
4.778333
 20
0.955000
  0
VERTEX
  8
FOREGROUND
  6
CONTINUOUS
 10
4.775000
 20
0.906667
  0
VERTEX
  8
FOREGROUND
  6
CONTINUOUS
 10
4.770000
 20
0.860000
  0
VERTEX
  8
FOREGROUND
  6
CONTINUOUS
 10
4.761667
 20
0.813333
  0
VERTEX
  8
FOREGROUND
  6
CONTINUOUS
 10
4.750000
 20
0.766667
  0
VERTEX
  8
FOREGROUND
  6
CONTINUOUS
 10
4.738333
 20
0.721667
  0
VERTEX
  8
FOREGROUND
  6
CONTINUOUS
 10
4.723333
 20
0.678333
  0
VERTEX
  8
FOREGROUND
  6
CONTINUOUS
 10
4.706667
 20
0.635000
  0
VERTEX
  8
FOREGROUND
  6
CONTINUOUS
 10
4.686667
 20
0.593333
  0
VERTEX
  8
FOREGROUND
  6
CONTINUOUS
 10
4.666667
 20
0.553333
  0
VERTEX
  8
FOREGROUND
  6
CONTINUOUS
 10
4.643333
 20
0.513333
  0
VERTEX
  8
FOREGROUND
  6
CONTINUOUS
 10
4.618333
 20
0.475000
  0
VERTEX
  8
FOREGROUND
  6
CONTINUOUS
 10
4.591667
 20
0.438333
  0
VERTEX
  8
FOREGROUND
  6
CONTINUOUS
 10
4.565000
 20
0.401667
  0
VERTEX
  8
FOREGROUND
  6
CONTINUOUS
 10
4.503333
 20
0.335000
  0
VERTEX
  8
FOREGROUND
  6
CONTINUOUS
 10
4.436667
 20
0.273333
  0
VERTEX
  8
FOREGROUND
  6
CONTINUOUS
 10
4.400000
 20
0.246667
  0
VERTEX
  8
FOREGROUND
  6
CONTINUOUS
 10
4.363333
 20
0.220000
  0
VERTEX
  8
FOREGROUND
  6
CONTINUOUS
 10
4.325000
 20
0.195000
  0
VERTEX
  8
FOREGROUND
  6
CONTINUOUS
 10
4.285000
 20
0.171667
  0
VERTEX
  8
FOREGROUND
  6
CONTINUOUS
 10
4.245000
 20
0.151667
  0
VERTEX
  8
FOREGROUND
  6
CONTINUOUS
 10
4.203333
 20
0.131667
  0
VERTEX
  8
FOREGROUND
  6
CONTINUOUS
 10
4.160000
 20
0.115000
  0
VERTEX
  8
FOREGROUND
  6
CONTINUOUS
 10
4.116667
 20
0.100000
  0
VERTEX
  8
FOREGROUND
  6
CONTINUOUS
 10
4.071667
 20
0.088333
  0
VERTEX
  8
FOREGROUND
  6
CONTINUOUS
 10
4.025000
 20
0.076667
  0
VERTEX
  8
FOREGROUND
  6
CONTINUOUS
 10
3.978333
 20
0.068333
  0
VERTEX
  8
FOREGROUND
  6
CONTINUOUS
 10
3.931667
 20
0.063333
  0
VERTEX
  8
FOREGROUND
  6
CONTINUOUS
 10
3.883333
 20
0.060000
  0
VERTEX
  8
FOREGROUND
  6
CONTINUOUS
 10
3.835000
 20
0.058333
  0
VERTEX
  8
FOREGROUND
  6
CONTINUOUS
 10
0.995000
 20
0.058333
  0
VERTEX
  8
FOREGROUND
  6
CONTINUOUS
 10
0.946667
 20
0.060000
  0
VERTEX
  8
FOREGROUND
  6
CONTINUOUS
 10
0.898333
 20
0.063333
  0
VERTEX
  8
FOREGROUND
  6
CONTINUOUS
 10
0.851667
 20
0.068333
  0
VERTEX
  8
FOREGROUND
  6
CONTINUOUS
 10
0.805000
 20
0.076667
  0
VERTEX
  8
FOREGROUND
  6
CONTINUOUS
 10
0.758333
 20
0.088333
  0
VERTEX
  8
FOREGROUND
  6
CONTINUOUS
 10
0.713333
 20
0.100000
  0
VERTEX
  8
FOREGROUND
  6
CONTINUOUS
 10
0.670000
 20
0.115000
  0
VERTEX
  8
FOREGROUND
  6
CONTINUOUS
 10
0.626667
 20
0.131667
  0
VERTEX
  8
FOREGROUND
  6
CONTINUOUS
 10
0.585000
 20
0.151667
  0
VERTEX
  8
FOREGROUND
  6
CONTINUOUS
 10
0.545000
 20
0.171667
  0
VERTEX
  8
FOREGROUND
  6
CONTINUOUS
 10
0.505000
 20
0.195000
  0
VERTEX
  8
FOREGROUND
  6
CONTINUOUS
 10
0.466667
 20
0.220000
  0
VERTEX
  8
FOREGROUND
  6
CONTINUOUS
 10
0.430000
 20
0.246667
  0
VERTEX
  8
FOREGROUND
  6
CONTINUOUS
 10
0.393333
 20
0.273333
  0
VERTEX
  8
FOREGROUND
  6
CONTINUOUS
 10
0.326667
 20
0.335000
  0
VERTEX
  8
FOREGROUND
  6
CONTINUOUS
 10
0.266667
 20
0.401667
  0
VERTEX
  8
FOREGROUND
  6
CONTINUOUS
 10
0.238333
 20
0.438333
  0
VERTEX
  8
FOREGROUND
  6
CONTINUOUS
 10
0.211667
 20
0.475000
  0
VERTEX
  8
FOREGROUND
  6
CONTINUOUS
 10
0.186667
 20
0.513333
  0
VERTEX
  8
FOREGROUND
  6
CONTINUOUS
 10
0.165000
 20
0.553333
  0
VERTEX
  8
FOREGROUND
  6
CONTINUOUS
 10
0.143333
 20
0.593333
  0
VERTEX
  8
FOREGROUND
  6
CONTINUOUS
 10
0.125000
 20
0.635000
  0
VERTEX
  8
FOREGROUND
  6
CONTINUOUS
 10
0.108333
 20
0.678333
  0
VERTEX
  8
FOREGROUND
  6
CONTINUOUS
 10
0.093333
 20
0.721667
  0
VERTEX
  8
FOREGROUND
  6
CONTINUOUS
 10
0.080000
 20
0.766667
  0
VERTEX
  8
FOREGROUND
  6
CONTINUOUS
 10
0.070000
 20
0.813333
  0
VERTEX
  8
FOREGROUND
  6
CONTINUOUS
 10
0.061667
 20
0.860000
  0
VERTEX
  8
FOREGROUND
  6
CONTINUOUS
 10
0.055000
 20
0.906667
  0
VERTEX
  8
FOREGROUND
  6
CONTINUOUS
 10
0.051667
 20
0.955000
  0
VERTEX
  8
FOREGROUND
  6
CONTINUOUS
 10
0.050000
 20
1.003333
  0
VERTEX
  8
FOREGROUND
  6
CONTINUOUS
 10
0.050000
 20
4.208333
  0
VERTEX
  8
FOREGROUND
  6
CONTINUOUS
 10
0.051667
 20
4.256667
  0
VERTEX
  8
FOREGROUND
  6
CONTINUOUS
 10
0.055000
 20
4.305000
  0
VERTEX
  8
FOREGROUND
  6
CONTINUOUS
 10
0.061667
 20
4.351667
  0
VERTEX
  8
FOREGROUND
  6
CONTINUOUS
 10
0.070000
 20
4.398333
  0
VERTEX
  8
FOREGROUND
  6
CONTINUOUS
 10
0.080000
 20
4.445000
  0
VERTEX
  8
FOREGROUND
  6
CONTINUOUS
 10
0.093333
 20
4.490000
  0
VERTEX
  8
FOREGROUND
  6
CONTINUOUS
 10
0.108333
 20
4.533333
  0
VERTEX
  8
FOREGROUND
  6
CONTINUOUS
 10
0.125000
 20
4.576667
  0
VERTEX
  8
FOREGROUND
  6
CONTINUOUS
 10
0.143333
 20
4.618333
  0
VERTEX
  8
FOREGROUND
  6
CONTINUOUS
 10
0.165000
 20
4.658333
  0
VERTEX
  8
FOREGROUND
  6
CONTINUOUS
 10
0.186667
 20
4.698333
  0
VERTEX
  8
FOREGROUND
  6
CONTINUOUS
 10
0.211667
 20
4.736667
  0
VERTEX
  8
FOREGROUND
  6
CONTINUOUS
 10
0.238333
 20
4.773333
  0
VERTEX
  8
FOREGROUND
  6
CONTINUOUS
 10
0.266667
 20
4.810000
  0
VERTEX
  8
FOREGROUND
  6
CONTINUOUS
 10
0.326667
 20
4.876667
  0
VERTEX
  8
FOREGROUND
  6
CONTINUOUS
 10
0.393333
 20
4.936667
  0
VERTEX
  8
FOREGROUND
  6
CONTINUOUS
 10
0.430000
 20
4.965000
  0
VERTEX
  8
FOREGROUND
  6
CONTINUOUS
 10
0.466667
 20
4.991667
  0
VERTEX
  8
FOREGROUND
  6
CONTINUOUS
 10
0.505000
 20
5.016667
  0
VERTEX
  8
FOREGROUND
  6
CONTINUOUS
 10
0.545000
 20
5.038333
  0
VERTEX
  8
FOREGROUND
  6
CONTINUOUS
 10
0.585000
 20
5.060000
  0
VERTEX
  8
FOREGROUND
  6
CONTINUOUS
 10
0.626667
 20
5.078333
  0
VERTEX
  8
FOREGROUND
  6
CONTINUOUS
 10
0.670000
 20
5.095000
  0
VERTEX
  8
FOREGROUND
  6
CONTINUOUS
 10
0.713333
 20
5.110000
  0
VERTEX
  8
FOREGROUND
  6
CONTINUOUS
 10
0.758333
 20
5.123333
  0
VERTEX
  8
FOREGROUND
  6
CONTINUOUS
 10
0.805000
 20
5.133333
  0
VERTEX
  8
FOREGROUND
  6
CONTINUOUS
 10
0.851667
 20
5.141667
  0
VERTEX
  8
FOREGROUND
  6
CONTINUOUS
 10
0.898333
 20
5.148333
  0
VERTEX
  8
FOREGROUND
  6
CONTINUOUS
 10
0.946667
 20
5.151667
  0
SEQEND
  8
0
  0
ENDSEC
  0
EOF
