  0
SECTION
  2
HEADER
  9
$ACADVER
  1
AC1006
  9
$EXTMIN
 10
0.000000
 20
0.000000
  9
$EXTMAX
 10
4.948333
 20
4.106667
  9
$LTSCALE
 40
0.166667
  9
$PDMODE
 70
    35
  9
$PDSIZE
 40
0.133333
  0
ENDSEC
  0
SECTION
  2
TABLES
  0
TABLE
  2
LTYPE
 70
     9
  0
LTYPE
  2
CONTINUOUS
 70
    64
  3
Solid line
 72
    65
 73
     0
 40
0.000000
  0
LTYPE
  2
DASHED
 70
    64
  3
__ __ __ __ __ __ __ __ __ __ __ __ __ __ __
 72
    65
 73
     2
 40
0.001250
 49
0.000833
 49
-0.000417
  0
LTYPE
  2
HIDDEN
 70
    64
  3
 _ _ _ _ _ _ _ _ _ _ _ _ _ _ _ _ _ _ _ _ _ _
 72
    65
 73
     2
 40
0.000625
 49
0.000417
 49
-0.000208
  0
LTYPE
  2
CENTER
 70
    64
  3
____ _ ____ _ ____ _ ____ _ ____ _ ____ _ ____
 72
    65
 73
     4
 40
0.003333
 49
0.002083
 49
-0.000417
 49
0.000417
 49
-0.000417
  0
LTYPE
  2
PHANTOM
 70
    64
  3
_____ _ _ _____ _ _ _____ _ _ _____ _ _ ____
 72
    65
 73
     6
 40
0.004167
 49
0.002083
 49
-0.000417
 49
0.000417
 49
-0.000417
 49
0.000417
 49
-0.000417
  0
LTYPE
  2
DOT
 70
    64
  3
...............................................
 72
    65
 73
     2
 40
0.000417
 49
0.000000
 49
-0.000417
  0
LTYPE
  2
DASHDOT
 70
    64
  3
__ . __ . __ . __ . __ . __ . __ . __ . __ . __
 72
    65
 73
     4
 40
0.001667
 49
0.000833
 49
-0.000417
 49
0.000000
 49
-0.000417
  0
LTYPE
  2
BORDER
 70
    64
  3
__ __ . __ __ . __ __ . __ __ . __ __ . __ __
 72
    65
 73
     6
 40
0.002917
 49
0.000833
 49
-0.000417
 49
0.000833
 49
-0.000417
 49
0.000000
 49
-0.000417
  0
LTYPE
  2
DIVIDE
 70
    64
  3
__ . . __ . . __ . . __ . . __ . . __ . . __
 72
    65
 73
     6
 40
0.002083
 49
0.000833
 49
-0.000417
 49
0.000000
 49
-0.000417
 49
0.000000
 49
-0.000417
  0
LTYPE
  2
DOTDOT
 70
    64
  3
 . .  . .  . .  . .  . .  . . 
 72
    65
 73
     5
 40
0.000917
 49
-0.000417
 49
0.000000
 49
-0.000417
 49
0.000000
 49
-0.000417
  0
ENDTAB
  0
TABLE
  2
STYLE
 70
     2
  0
STYLE
 70
     0
  2
SN0
 40
0.000000
 41
0.001667
 50
0.000000
 71
     0
 42
0.000000
  3
ROMAND
  0
STYLE
 70
    68
  2
SV0
 40
0.000000
 41
0.001667
 50
0.000000
 71
     0
 42
0.000000
  3
ROMAND
  0
ENDTAB
  0
TABLE
  2
LAYER
 70
     2
  0
LAYER
  2
FOREGROUND
 70
    64
 62
     7
  6
CONTINUOUS
  0
LAYER
  2
BACKGROUND
 70
    65
 62
    -7
  6
CONTINUOUS
  0
ENDTAB
  0
ENDSEC
  0
SECTION
  2
ENTITIES
  0
POLYLINE
  8
FOREGROUND
 62
     7
  6
CONTINUOUS
 66
     1
 40
0.000000
 41
0.000000
 70
     1
  0
VERTEX
  8
FOREGROUND
 62
     7
  6
CONTINUOUS
 10
0.826667
 20
3.948333
  0
VERTEX
  8
FOREGROUND
 62
     7
  6
CONTINUOUS
 10
4.003333
 20
3.948333
  0
VERTEX
  8
FOREGROUND
 62
     7
  6
CONTINUOUS
 10
4.043333
 20
3.946667
  0
VERTEX
  8
FOREGROUND
 62
     7
  6
CONTINUOUS
 10
4.083333
 20
3.943333
  0
VERTEX
  8
FOREGROUND
 62
     7
  6
CONTINUOUS
 10
4.121667
 20
3.940000
  0
VERTEX
  8
FOREGROUND
 62
     7
  6
CONTINUOUS
 10
4.160000
 20
3.931667
  0
VERTEX
  8
FOREGROUND
 62
     7
  6
CONTINUOUS
 10
4.198333
 20
3.923333
  0
VERTEX
  8
FOREGROUND
 62
     7
  6
CONTINUOUS
 10
4.235000
 20
3.913333
  0
VERTEX
  8
FOREGROUND
 62
     7
  6
CONTINUOUS
 10
4.270000
 20
3.901667
  0
VERTEX
  8
FOREGROUND
 62
     7
  6
CONTINUOUS
 10
4.305000
 20
3.886667
  0
VERTEX
  8
FOREGROUND
 62
     7
  6
CONTINUOUS
 10
4.373333
 20
3.855000
  0
VERTEX
  8
FOREGROUND
 62
     7
  6
CONTINUOUS
 10
4.438333
 20
3.815000
  0
VERTEX
  8
FOREGROUND
 62
     7
  6
CONTINUOUS
 10
4.498333
 20
3.770000
  0
VERTEX
  8
FOREGROUND
 62
     7
  6
CONTINUOUS
 10
4.553333
 20
3.720000
  0
VERTEX
  8
FOREGROUND
 62
     7
  6
CONTINUOUS
 10
4.603333
 20
3.665000
  0
VERTEX
  8
FOREGROUND
 62
     7
  6
CONTINUOUS
 10
4.648333
 20
3.605000
  0
VERTEX
  8
FOREGROUND
 62
     7
  6
CONTINUOUS
 10
4.686667
 20
3.541667
  0
VERTEX
  8
FOREGROUND
 62
     7
  6
CONTINUOUS
 10
4.718333
 20
3.473333
  0
VERTEX
  8
FOREGROUND
 62
     7
  6
CONTINUOUS
 10
4.733333
 20
3.438333
  0
VERTEX
  8
FOREGROUND
 62
     7
  6
CONTINUOUS
 10
4.745000
 20
3.401667
  0
VERTEX
  8
FOREGROUND
 62
     7
  6
CONTINUOUS
 10
4.755000
 20
3.365000
  0
VERTEX
  8
FOREGROUND
 62
     7
  6
CONTINUOUS
 10
4.765000
 20
3.328333
  0
VERTEX
  8
FOREGROUND
 62
     7
  6
CONTINUOUS
 10
4.771667
 20
3.290000
  0
VERTEX
  8
FOREGROUND
 62
     7
  6
CONTINUOUS
 10
4.776667
 20
3.251667
  0
VERTEX
  8
FOREGROUND
 62
     7
  6
CONTINUOUS
 10
4.778333
 20
3.211667
  0
VERTEX
  8
FOREGROUND
 62
     7
  6
CONTINUOUS
 10
4.780000
 20
3.171667
  0
VERTEX
  8
FOREGROUND
 62
     7
  6
CONTINUOUS
 10
4.780000
 20
0.835000
  0
VERTEX
  8
FOREGROUND
 62
     7
  6
CONTINUOUS
 10
4.778333
 20
0.795000
  0
VERTEX
  8
FOREGROUND
 62
     7
  6
CONTINUOUS
 10
4.776667
 20
0.755000
  0
VERTEX
  8
FOREGROUND
 62
     7
  6
CONTINUOUS
 10
4.771667
 20
0.716667
  0
VERTEX
  8
FOREGROUND
 62
     7
  6
CONTINUOUS
 10
4.765000
 20
0.678333
  0
VERTEX
  8
FOREGROUND
 62
     7
  6
CONTINUOUS
 10
4.755000
 20
0.640000
  0
VERTEX
  8
FOREGROUND
 62
     7
  6
CONTINUOUS
 10
4.745000
 20
0.603333
  0
VERTEX
  8
FOREGROUND
 62
     7
  6
CONTINUOUS
 10
4.733333
 20
0.568333
  0
VERTEX
  8
FOREGROUND
 62
     7
  6
CONTINUOUS
 10
4.718333
 20
0.533333
  0
VERTEX
  8
FOREGROUND
 62
     7
  6
CONTINUOUS
 10
4.686667
 20
0.465000
  0
VERTEX
  8
FOREGROUND
 62
     7
  6
CONTINUOUS
 10
4.648333
 20
0.400000
  0
VERTEX
  8
FOREGROUND
 62
     7
  6
CONTINUOUS
 10
4.603333
 20
0.340000
  0
VERTEX
  8
FOREGROUND
 62
     7
  6
CONTINUOUS
 10
4.553333
 20
0.285000
  0
VERTEX
  8
FOREGROUND
 62
     7
  6
CONTINUOUS
 10
4.498333
 20
0.235000
  0
VERTEX
  8
FOREGROUND
 62
     7
  6
CONTINUOUS
 10
4.438333
 20
0.190000
  0
VERTEX
  8
FOREGROUND
 62
     7
  6
CONTINUOUS
 10
4.373333
 20
0.151667
  0
VERTEX
  8
FOREGROUND
 62
     7
  6
CONTINUOUS
 10
4.305000
 20
0.120000
  0
VERTEX
  8
FOREGROUND
 62
     7
  6
CONTINUOUS
 10
4.270000
 20
0.105000
  0
VERTEX
  8
FOREGROUND
 62
     7
  6
CONTINUOUS
 10
4.235000
 20
0.093333
  0
VERTEX
  8
FOREGROUND
 62
     7
  6
CONTINUOUS
 10
4.198333
 20
0.083333
  0
VERTEX
  8
FOREGROUND
 62
     7
  6
CONTINUOUS
 10
4.160000
 20
0.073333
  0
VERTEX
  8
FOREGROUND
 62
     7
  6
CONTINUOUS
 10
4.121667
 20
0.066667
  0
VERTEX
  8
FOREGROUND
 62
     7
  6
CONTINUOUS
 10
4.083333
 20
0.061667
  0
VERTEX
  8
FOREGROUND
 62
     7
  6
CONTINUOUS
 10
4.043333
 20
0.060000
  0
VERTEX
  8
FOREGROUND
 62
     7
  6
CONTINUOUS
 10
4.003333
 20
0.058333
  0
VERTEX
  8
FOREGROUND
 62
     7
  6
CONTINUOUS
 10
0.826667
 20
0.058333
  0
VERTEX
  8
FOREGROUND
 62
     7
  6
CONTINUOUS
 10
0.786667
 20
0.060000
  0
VERTEX
  8
FOREGROUND
 62
     7
  6
CONTINUOUS
 10
0.746667
 20
0.061667
  0
VERTEX
  8
FOREGROUND
 62
     7
  6
CONTINUOUS
 10
0.708333
 20
0.066667
  0
VERTEX
  8
FOREGROUND
 62
     7
  6
CONTINUOUS
 10
0.670000
 20
0.073333
  0
VERTEX
  8
FOREGROUND
 62
     7
  6
CONTINUOUS
 10
0.633333
 20
0.083333
  0
VERTEX
  8
FOREGROUND
 62
     7
  6
CONTINUOUS
 10
0.596667
 20
0.093333
  0
VERTEX
  8
FOREGROUND
 62
     7
  6
CONTINUOUS
 10
0.560000
 20
0.105000
  0
VERTEX
  8
FOREGROUND
 62
     7
  6
CONTINUOUS
 10
0.525000
 20
0.120000
  0
VERTEX
  8
FOREGROUND
 62
     7
  6
CONTINUOUS
 10
0.456667
 20
0.151667
  0
VERTEX
  8
FOREGROUND
 62
     7
  6
CONTINUOUS
 10
0.393333
 20
0.190000
  0
VERTEX
  8
FOREGROUND
 62
     7
  6
CONTINUOUS
 10
0.333333
 20
0.235000
  0
VERTEX
  8
FOREGROUND
 62
     7
  6
CONTINUOUS
 10
0.278333
 20
0.285000
  0
VERTEX
  8
FOREGROUND
 62
     7
  6
CONTINUOUS
 10
0.228333
 20
0.340000
  0
VERTEX
  8
FOREGROUND
 62
     7
  6
CONTINUOUS
 10
0.183333
 20
0.400000
  0
VERTEX
  8
FOREGROUND
 62
     7
  6
CONTINUOUS
 10
0.143333
 20
0.465000
  0
VERTEX
  8
FOREGROUND
 62
     7
  6
CONTINUOUS
 10
0.111667
 20
0.533333
  0
VERTEX
  8
FOREGROUND
 62
     7
  6
CONTINUOUS
 10
0.096667
 20
0.568333
  0
VERTEX
  8
FOREGROUND
 62
     7
  6
CONTINUOUS
 10
0.085000
 20
0.603333
  0
VERTEX
  8
FOREGROUND
 62
     7
  6
CONTINUOUS
 10
0.075000
 20
0.640000
  0
VERTEX
  8
FOREGROUND
 62
     7
  6
CONTINUOUS
 10
0.066667
 20
0.678333
  0
VERTEX
  8
FOREGROUND
 62
     7
  6
CONTINUOUS
 10
0.058333
 20
0.716667
  0
VERTEX
  8
FOREGROUND
 62
     7
  6
CONTINUOUS
 10
0.055000
 20
0.755000
  0
VERTEX
  8
FOREGROUND
 62
     7
  6
CONTINUOUS
 10
0.051667
 20
0.795000
  0
VERTEX
  8
FOREGROUND
 62
     7
  6
CONTINUOUS
 10
0.050000
 20
0.835000
  0
VERTEX
  8
FOREGROUND
 62
     7
  6
CONTINUOUS
 10
0.050000
 20
3.171667
  0
VERTEX
  8
FOREGROUND
 62
     7
  6
CONTINUOUS
 10
0.051667
 20
3.211667
  0
VERTEX
  8
FOREGROUND
 62
     7
  6
CONTINUOUS
 10
0.055000
 20
3.251667
  0
VERTEX
  8
FOREGROUND
 62
     7
  6
CONTINUOUS
 10
0.058333
 20
3.290000
  0
VERTEX
  8
FOREGROUND
 62
     7
  6
CONTINUOUS
 10
0.066667
 20
3.328333
  0
VERTEX
  8
FOREGROUND
 62
     7
  6
CONTINUOUS
 10
0.075000
 20
3.365000
  0
VERTEX
  8
FOREGROUND
 62
     7
  6
CONTINUOUS
 10
0.085000
 20
3.401667
  0
VERTEX
  8
FOREGROUND
 62
     7
  6
CONTINUOUS
 10
0.096667
 20
3.438333
  0
VERTEX
  8
FOREGROUND
 62
     7
  6
CONTINUOUS
 10
0.111667
 20
3.473333
  0
VERTEX
  8
FOREGROUND
 62
     7
  6
CONTINUOUS
 10
0.143333
 20
3.541667
  0
VERTEX
  8
FOREGROUND
 62
     7
  6
CONTINUOUS
 10
0.183333
 20
3.605000
  0
VERTEX
  8
FOREGROUND
 62
     7
  6
CONTINUOUS
 10
0.228333
 20
3.665000
  0
VERTEX
  8
FOREGROUND
 62
     7
  6
CONTINUOUS
 10
0.278333
 20
3.720000
  0
VERTEX
  8
FOREGROUND
 62
     7
  6
CONTINUOUS
 10
0.333333
 20
3.770000
  0
VERTEX
  8
FOREGROUND
 62
     7
  6
CONTINUOUS
 10
0.393333
 20
3.815000
  0
VERTEX
  8
FOREGROUND
 62
     7
  6
CONTINUOUS
 10
0.456667
 20
3.855000
  0
VERTEX
  8
FOREGROUND
 62
     7
  6
CONTINUOUS
 10
0.525000
 20
3.886667
  0
VERTEX
  8
FOREGROUND
 62
     7
  6
CONTINUOUS
 10
0.560000
 20
3.901667
  0
VERTEX
  8
FOREGROUND
 62
     7
  6
CONTINUOUS
 10
0.596667
 20
3.913333
  0
VERTEX
  8
FOREGROUND
 62
     7
  6
CONTINUOUS
 10
0.633333
 20
3.923333
  0
VERTEX
  8
FOREGROUND
 62
     7
  6
CONTINUOUS
 10
0.670000
 20
3.931667
  0
VERTEX
  8
FOREGROUND
 62
     7
  6
CONTINUOUS
 10
0.708333
 20
3.940000
  0
VERTEX
  8
FOREGROUND
 62
     7
  6
CONTINUOUS
 10
0.746667
 20
3.943333
  0
VERTEX
  8
FOREGROUND
 62
     7
  6
CONTINUOUS
 10
0.786667
 20
3.946667
  0
SEQEND
  8
0
  0
POLYLINE
  8
FOREGROUND
  6
CONTINUOUS
 66
     1
 40
0.010000
 41
0.010000
 70
     1
  0
VERTEX
  8
FOREGROUND
  6
CONTINUOUS
 10
0.826667
 20
3.948333
  0
VERTEX
  8
FOREGROUND
  6
CONTINUOUS
 10
4.003333
 20
3.948333
  0
VERTEX
  8
FOREGROUND
  6
CONTINUOUS
 10
4.043333
 20
3.946667
  0
VERTEX
  8
FOREGROUND
  6
CONTINUOUS
 10
4.083333
 20
3.943333
  0
VERTEX
  8
FOREGROUND
  6
CONTINUOUS
 10
4.121667
 20
3.940000
  0
VERTEX
  8
FOREGROUND
  6
CONTINUOUS
 10
4.160000
 20
3.931667
  0
VERTEX
  8
FOREGROUND
  6
CONTINUOUS
 10
4.198333
 20
3.923333
  0
VERTEX
  8
FOREGROUND
  6
CONTINUOUS
 10
4.235000
 20
3.913333
  0
VERTEX
  8
FOREGROUND
  6
CONTINUOUS
 10
4.270000
 20
3.901667
  0
VERTEX
  8
FOREGROUND
  6
CONTINUOUS
 10
4.305000
 20
3.886667
  0
VERTEX
  8
FOREGROUND
  6
CONTINUOUS
 10
4.373333
 20
3.855000
  0
VERTEX
  8
FOREGROUND
  6
CONTINUOUS
 10
4.438333
 20
3.815000
  0
VERTEX
  8
FOREGROUND
  6
CONTINUOUS
 10
4.498333
 20
3.770000
  0
VERTEX
  8
FOREGROUND
  6
CONTINUOUS
 10
4.553333
 20
3.720000
  0
VERTEX
  8
FOREGROUND
  6
CONTINUOUS
 10
4.603333
 20
3.665000
  0
VERTEX
  8
FOREGROUND
  6
CONTINUOUS
 10
4.648333
 20
3.605000
  0
VERTEX
  8
FOREGROUND
  6
CONTINUOUS
 10
4.686667
 20
3.541667
  0
VERTEX
  8
FOREGROUND
  6
CONTINUOUS
 10
4.718333
 20
3.473333
  0
VERTEX
  8
FOREGROUND
  6
CONTINUOUS
 10
4.733333
 20
3.438333
  0
VERTEX
  8
FOREGROUND
  6
CONTINUOUS
 10
4.745000
 20
3.401667
  0
VERTEX
  8
FOREGROUND
  6
CONTINUOUS
 10
4.755000
 20
3.365000
  0
VERTEX
  8
FOREGROUND
  6
CONTINUOUS
 10
4.765000
 20
3.328333
  0
VERTEX
  8
FOREGROUND
  6
CONTINUOUS
 10
4.771667
 20
3.290000
  0
VERTEX
  8
FOREGROUND
  6
CONTINUOUS
 10
4.776667
 20
3.251667
  0
VERTEX
  8
FOREGROUND
  6
CONTINUOUS
 10
4.778333
 20
3.211667
  0
VERTEX
  8
FOREGROUND
  6
CONTINUOUS
 10
4.780000
 20
3.171667
  0
VERTEX
  8
FOREGROUND
  6
CONTINUOUS
 10
4.780000
 20
0.835000
  0
VERTEX
  8
FOREGROUND
  6
CONTINUOUS
 10
4.778333
 20
0.795000
  0
VERTEX
  8
FOREGROUND
  6
CONTINUOUS
 10
4.776667
 20
0.755000
  0
VERTEX
  8
FOREGROUND
  6
CONTINUOUS
 10
4.771667
 20
0.716667
  0
VERTEX
  8
FOREGROUND
  6
CONTINUOUS
 10
4.765000
 20
0.678333
  0
VERTEX
  8
FOREGROUND
  6
CONTINUOUS
 10
4.755000
 20
0.640000
  0
VERTEX
  8
FOREGROUND
  6
CONTINUOUS
 10
4.745000
 20
0.603333
  0
VERTEX
  8
FOREGROUND
  6
CONTINUOUS
 10
4.733333
 20
0.568333
  0
VERTEX
  8
FOREGROUND
  6
CONTINUOUS
 10
4.718333
 20
0.533333
  0
VERTEX
  8
FOREGROUND
  6
CONTINUOUS
 10
4.686667
 20
0.465000
  0
VERTEX
  8
FOREGROUND
  6
CONTINUOUS
 10
4.648333
 20
0.400000
  0
VERTEX
  8
FOREGROUND
  6
CONTINUOUS
 10
4.603333
 20
0.340000
  0
VERTEX
  8
FOREGROUND
  6
CONTINUOUS
 10
4.553333
 20
0.285000
  0
VERTEX
  8
FOREGROUND
  6
CONTINUOUS
 10
4.498333
 20
0.235000
  0
VERTEX
  8
FOREGROUND
  6
CONTINUOUS
 10
4.438333
 20
0.190000
  0
VERTEX
  8
FOREGROUND
  6
CONTINUOUS
 10
4.373333
 20
0.151667
  0
VERTEX
  8
FOREGROUND
  6
CONTINUOUS
 10
4.305000
 20
0.120000
  0
VERTEX
  8
FOREGROUND
  6
CONTINUOUS
 10
4.270000
 20
0.105000
  0
VERTEX
  8
FOREGROUND
  6
CONTINUOUS
 10
4.235000
 20
0.093333
  0
VERTEX
  8
FOREGROUND
  6
CONTINUOUS
 10
4.198333
 20
0.083333
  0
VERTEX
  8
FOREGROUND
  6
CONTINUOUS
 10
4.160000
 20
0.073333
  0
VERTEX
  8
FOREGROUND
  6
CONTINUOUS
 10
4.121667
 20
0.066667
  0
VERTEX
  8
FOREGROUND
  6
CONTINUOUS
 10
4.083333
 20
0.061667
  0
VERTEX
  8
FOREGROUND
  6
CONTINUOUS
 10
4.043333
 20
0.060000
  0
VERTEX
  8
FOREGROUND
  6
CONTINUOUS
 10
4.003333
 20
0.058333
  0
VERTEX
  8
FOREGROUND
  6
CONTINUOUS
 10
0.826667
 20
0.058333
  0
VERTEX
  8
FOREGROUND
  6
CONTINUOUS
 10
0.786667
 20
0.060000
  0
VERTEX
  8
FOREGROUND
  6
CONTINUOUS
 10
0.746667
 20
0.061667
  0
VERTEX
  8
FOREGROUND
  6
CONTINUOUS
 10
0.708333
 20
0.066667
  0
VERTEX
  8
FOREGROUND
  6
CONTINUOUS
 10
0.670000
 20
0.073333
  0
VERTEX
  8
FOREGROUND
  6
CONTINUOUS
 10
0.633333
 20
0.083333
  0
VERTEX
  8
FOREGROUND
  6
CONTINUOUS
 10
0.596667
 20
0.093333
  0
VERTEX
  8
FOREGROUND
  6
CONTINUOUS
 10
0.560000
 20
0.105000
  0
VERTEX
  8
FOREGROUND
  6
CONTINUOUS
 10
0.525000
 20
0.120000
  0
VERTEX
  8
FOREGROUND
  6
CONTINUOUS
 10
0.456667
 20
0.151667
  0
VERTEX
  8
FOREGROUND
  6
CONTINUOUS
 10
0.393333
 20
0.190000
  0
VERTEX
  8
FOREGROUND
  6
CONTINUOUS
 10
0.333333
 20
0.235000
  0
VERTEX
  8
FOREGROUND
  6
CONTINUOUS
 10
0.278333
 20
0.285000
  0
VERTEX
  8
FOREGROUND
  6
CONTINUOUS
 10
0.228333
 20
0.340000
  0
VERTEX
  8
FOREGROUND
  6
CONTINUOUS
 10
0.183333
 20
0.400000
  0
VERTEX
  8
FOREGROUND
  6
CONTINUOUS
 10
0.143333
 20
0.465000
  0
VERTEX
  8
FOREGROUND
  6
CONTINUOUS
 10
0.111667
 20
0.533333
  0
VERTEX
  8
FOREGROUND
  6
CONTINUOUS
 10
0.096667
 20
0.568333
  0
VERTEX
  8
FOREGROUND
  6
CONTINUOUS
 10
0.085000
 20
0.603333
  0
VERTEX
  8
FOREGROUND
  6
CONTINUOUS
 10
0.075000
 20
0.640000
  0
VERTEX
  8
FOREGROUND
  6
CONTINUOUS
 10
0.066667
 20
0.678333
  0
VERTEX
  8
FOREGROUND
  6
CONTINUOUS
 10
0.058333
 20
0.716667
  0
VERTEX
  8
FOREGROUND
  6
CONTINUOUS
 10
0.055000
 20
0.755000
  0
VERTEX
  8
FOREGROUND
  6
CONTINUOUS
 10
0.051667
 20
0.795000
  0
VERTEX
  8
FOREGROUND
  6
CONTINUOUS
 10
0.050000
 20
0.835000
  0
VERTEX
  8
FOREGROUND
  6
CONTINUOUS
 10
0.050000
 20
3.171667
  0
VERTEX
  8
FOREGROUND
  6
CONTINUOUS
 10
0.051667
 20
3.211667
  0
VERTEX
  8
FOREGROUND
  6
CONTINUOUS
 10
0.055000
 20
3.251667
  0
VERTEX
  8
FOREGROUND
  6
CONTINUOUS
 10
0.058333
 20
3.290000
  0
VERTEX
  8
FOREGROUND
  6
CONTINUOUS
 10
0.066667
 20
3.328333
  0
VERTEX
  8
FOREGROUND
  6
CONTINUOUS
 10
0.075000
 20
3.365000
  0
VERTEX
  8
FOREGROUND
  6
CONTINUOUS
 10
0.085000
 20
3.401667
  0
VERTEX
  8
FOREGROUND
  6
CONTINUOUS
 10
0.096667
 20
3.438333
  0
VERTEX
  8
FOREGROUND
  6
CONTINUOUS
 10
0.111667
 20
3.473333
  0
VERTEX
  8
FOREGROUND
  6
CONTINUOUS
 10
0.143333
 20
3.541667
  0
VERTEX
  8
FOREGROUND
  6
CONTINUOUS
 10
0.183333
 20
3.605000
  0
VERTEX
  8
FOREGROUND
  6
CONTINUOUS
 10
0.228333
 20
3.665000
  0
VERTEX
  8
FOREGROUND
  6
CONTINUOUS
 10
0.278333
 20
3.720000
  0
VERTEX
  8
FOREGROUND
  6
CONTINUOUS
 10
0.333333
 20
3.770000
  0
VERTEX
  8
FOREGROUND
  6
CONTINUOUS
 10
0.393333
 20
3.815000
  0
VERTEX
  8
FOREGROUND
  6
CONTINUOUS
 10
0.456667
 20
3.855000
  0
VERTEX
  8
FOREGROUND
  6
CONTINUOUS
 10
0.525000
 20
3.886667
  0
VERTEX
  8
FOREGROUND
  6
CONTINUOUS
 10
0.560000
 20
3.901667
  0
VERTEX
  8
FOREGROUND
  6
CONTINUOUS
 10
0.596667
 20
3.913333
  0
VERTEX
  8
FOREGROUND
  6
CONTINUOUS
 10
0.633333
 20
3.923333
  0
VERTEX
  8
FOREGROUND
  6
CONTINUOUS
 10
0.670000
 20
3.931667
  0
VERTEX
  8
FOREGROUND
  6
CONTINUOUS
 10
0.708333
 20
3.940000
  0
VERTEX
  8
FOREGROUND
  6
CONTINUOUS
 10
0.746667
 20
3.943333
  0
VERTEX
  8
FOREGROUND
  6
CONTINUOUS
 10
0.786667
 20
3.946667
  0
SEQEND
  8
0
  0
ENDSEC
  0
EOF
