  0
SECTION
  2
HEADER
  9
$ACADVER
  1
AC1006
  9
$EXTMIN
 10
0.000000
 20
0.000000
  9
$EXTMAX
 10
5.220000
 20
5.216667
  9
$LTSCALE
 40
0.166667
  9
$PDMODE
 70
    35
  9
$PDSIZE
 40
0.133333
  0
ENDSEC
  0
SECTION
  2
TABLES
  0
TABLE
  2
LTYPE
 70
     9
  0
LTYPE
  2
CONTINUOUS
 70
    64
  3
Solid line
 72
    65
 73
     0
 40
0.000000
  0
LTYPE
  2
DASHED
 70
    64
  3
__ __ __ __ __ __ __ __ __ __ __ __ __ __ __
 72
    65
 73
     2
 40
0.001250
 49
0.000833
 49
-0.000417
  0
LTYPE
  2
HIDDEN
 70
    64
  3
 _ _ _ _ _ _ _ _ _ _ _ _ _ _ _ _ _ _ _ _ _ _
 72
    65
 73
     2
 40
0.000625
 49
0.000417
 49
-0.000208
  0
LTYPE
  2
CENTER
 70
    64
  3
____ _ ____ _ ____ _ ____ _ ____ _ ____ _ ____
 72
    65
 73
     4
 40
0.003333
 49
0.002083
 49
-0.000417
 49
0.000417
 49
-0.000417
  0
LTYPE
  2
PHANTOM
 70
    64
  3
_____ _ _ _____ _ _ _____ _ _ _____ _ _ ____
 72
    65
 73
     6
 40
0.004167
 49
0.002083
 49
-0.000417
 49
0.000417
 49
-0.000417
 49
0.000417
 49
-0.000417
  0
LTYPE
  2
DOT
 70
    64
  3
...............................................
 72
    65
 73
     2
 40
0.000417
 49
0.000000
 49
-0.000417
  0
LTYPE
  2
DASHDOT
 70
    64
  3
__ . __ . __ . __ . __ . __ . __ . __ . __ . __
 72
    65
 73
     4
 40
0.001667
 49
0.000833
 49
-0.000417
 49
0.000000
 49
-0.000417
  0
LTYPE
  2
BORDER
 70
    64
  3
__ __ . __ __ . __ __ . __ __ . __ __ . __ __
 72
    65
 73
     6
 40
0.002917
 49
0.000833
 49
-0.000417
 49
0.000833
 49
-0.000417
 49
0.000000
 49
-0.000417
  0
LTYPE
  2
DIVIDE
 70
    64
  3
__ . . __ . . __ . . __ . . __ . . __ . . __
 72
    65
 73
     6
 40
0.002083
 49
0.000833
 49
-0.000417
 49
0.000000
 49
-0.000417
 49
0.000000
 49
-0.000417
  0
LTYPE
  2
DOTDOT
 70
    64
  3
 . .  . .  . .  . .  . .  . . 
 72
    65
 73
     5
 40
0.000917
 49
-0.000417
 49
0.000000
 49
-0.000417
 49
0.000000
 49
-0.000417
  0
ENDTAB
  0
TABLE
  2
STYLE
 70
     2
  0
STYLE
 70
     0
  2
SN0
 40
0.000000
 41
0.001667
 50
0.000000
 71
     0
 42
0.000000
  3
ROMAND
  0
STYLE
 70
    68
  2
SV0
 40
0.000000
 41
0.001667
 50
0.000000
 71
     0
 42
0.000000
  3
ROMAND
  0
ENDTAB
  0
TABLE
  2
LAYER
 70
     2
  0
LAYER
  2
FOREGROUND
 70
    64
 62
     7
  6
CONTINUOUS
  0
LAYER
  2
BACKGROUND
 70
    65
 62
    -7
  6
CONTINUOUS
  0
ENDTAB
  0
ENDSEC
  0
SECTION
  2
ENTITIES
  0
POLYLINE
  8
FOREGROUND
  6
CONTINUOUS
 66
     1
 40
0.010000
 41
0.010000
 70
     1
  0
VERTEX
  8
FOREGROUND
  6
CONTINUOUS
 10
4.146667
 20
0.050000
  0
VERTEX
  8
FOREGROUND
  6
CONTINUOUS
 10
4.182592
 20
0.050646
  0
VERTEX
  8
FOREGROUND
  6
CONTINUOUS
 10
4.218205
 20
0.052514
  0
VERTEX
  8
FOREGROUND
  6
CONTINUOUS
 10
4.253487
 20
0.055584
  0
VERTEX
  8
FOREGROUND
  6
CONTINUOUS
 10
4.288415
 20
0.059835
  0
VERTEX
  8
FOREGROUND
  6
CONTINUOUS
 10
4.322971
 20
0.065247
  0
VERTEX
  8
FOREGROUND
  6
CONTINUOUS
 10
4.357134
 20
0.071801
  0
VERTEX
  8
FOREGROUND
  6
CONTINUOUS
 10
4.390883
 20
0.079474
  0
VERTEX
  8
FOREGROUND
  6
CONTINUOUS
 10
4.424200
 20
0.088249
  0
VERTEX
  8
FOREGROUND
  6
CONTINUOUS
 10
4.457062
 20
0.098103
  0
VERTEX
  8
FOREGROUND
  6
CONTINUOUS
 10
4.489451
 20
0.109018
  0
VERTEX
  8
FOREGROUND
  6
CONTINUOUS
 10
4.521346
 20
0.120972
  0
VERTEX
  8
FOREGROUND
  6
CONTINUOUS
 10
4.552727
 20
0.133947
  0
VERTEX
  8
FOREGROUND
  6
CONTINUOUS
 10
4.583573
 20
0.147920
  0
VERTEX
  8
FOREGROUND
  6
CONTINUOUS
 10
4.613864
 20
0.162873
  0
VERTEX
  8
FOREGROUND
  6
CONTINUOUS
 10
4.643581
 20
0.178784
  0
VERTEX
  8
FOREGROUND
  6
CONTINUOUS
 10
4.672702
 20
0.195635
  0
VERTEX
  8
FOREGROUND
  6
CONTINUOUS
 10
4.701208
 20
0.213404
  0
VERTEX
  8
FOREGROUND
  6
CONTINUOUS
 10
4.729079
 20
0.232071
  0
VERTEX
  8
FOREGROUND
  6
CONTINUOUS
 10
4.756294
 20
0.251617
  0
VERTEX
  8
FOREGROUND
  6
CONTINUOUS
 10
4.782833
 20
0.272020
  0
VERTEX
  8
FOREGROUND
  6
CONTINUOUS
 10
4.808675
 20
0.293261
  0
VERTEX
  8
FOREGROUND
  6
CONTINUOUS
 10
4.833802
 20
0.315320
  0
VERTEX
  8
FOREGROUND
  6
CONTINUOUS
 10
4.858191
 20
0.338176
  0
VERTEX
  8
FOREGROUND
  6
CONTINUOUS
 10
4.881824
 20
0.361809
  0
VERTEX
  8
FOREGROUND
  6
CONTINUOUS
 10
4.904680
 20
0.386198
  0
VERTEX
  8
FOREGROUND
  6
CONTINUOUS
 10
4.926739
 20
0.411325
  0
VERTEX
  8
FOREGROUND
  6
CONTINUOUS
 10
4.947980
 20
0.437167
  0
VERTEX
  8
FOREGROUND
  6
CONTINUOUS
 10
4.968383
 20
0.463706
  0
VERTEX
  8
FOREGROUND
  6
CONTINUOUS
 10
4.987929
 20
0.490921
  0
VERTEX
  8
FOREGROUND
  6
CONTINUOUS
 10
5.006596
 20
0.518792
  0
VERTEX
  8
FOREGROUND
  6
CONTINUOUS
 10
5.024365
 20
0.547298
  0
VERTEX
  8
FOREGROUND
  6
CONTINUOUS
 10
5.041216
 20
0.576419
  0
VERTEX
  8
FOREGROUND
  6
CONTINUOUS
 10
5.057127
 20
0.606136
  0
VERTEX
  8
FOREGROUND
  6
CONTINUOUS
 10
5.072080
 20
0.636427
  0
VERTEX
  8
FOREGROUND
  6
CONTINUOUS
 10
5.086053
 20
0.667273
  0
VERTEX
  8
FOREGROUND
  6
CONTINUOUS
 10
5.099028
 20
0.698654
  0
VERTEX
  8
FOREGROUND
  6
CONTINUOUS
 10
5.110982
 20
0.730549
  0
VERTEX
  8
FOREGROUND
  6
CONTINUOUS
 10
5.121897
 20
0.762938
  0
VERTEX
  8
FOREGROUND
  6
CONTINUOUS
 10
5.131751
 20
0.795800
  0
VERTEX
  8
FOREGROUND
  6
CONTINUOUS
 10
5.140526
 20
0.829117
  0
VERTEX
  8
FOREGROUND
  6
CONTINUOUS
 10
5.148199
 20
0.862866
  0
VERTEX
  8
FOREGROUND
  6
CONTINUOUS
 10
5.154753
 20
0.897029
  0
VERTEX
  8
FOREGROUND
  6
CONTINUOUS
 10
5.160165
 20
0.931585
  0
VERTEX
  8
FOREGROUND
  6
CONTINUOUS
 10
5.164416
 20
0.966513
  0
VERTEX
  8
FOREGROUND
  6
CONTINUOUS
 10
5.167486
 20
1.001795
  0
VERTEX
  8
FOREGROUND
  6
CONTINUOUS
 10
5.169354
 20
1.037408
  0
VERTEX
  8
FOREGROUND
  6
CONTINUOUS
 10
5.170000
 20
1.073333
  0
VERTEX
  8
FOREGROUND
  6
CONTINUOUS
 10
5.170000
 20
4.143333
  0
VERTEX
  8
FOREGROUND
  6
CONTINUOUS
 10
5.169353
 20
4.179263
  0
VERTEX
  8
FOREGROUND
  6
CONTINUOUS
 10
5.167485
 20
4.214881
  0
VERTEX
  8
FOREGROUND
  6
CONTINUOUS
 10
5.164414
 20
4.250167
  0
VERTEX
  8
FOREGROUND
  6
CONTINUOUS
 10
5.160162
 20
4.285100
  0
VERTEX
  8
FOREGROUND
  6
CONTINUOUS
 10
5.154749
 20
4.319660
  0
VERTEX
  8
FOREGROUND
  6
CONTINUOUS
 10
5.148194
 20
4.353826
  0
VERTEX
  8
FOREGROUND
  6
CONTINUOUS
 10
5.140518
 20
4.387580
  0
VERTEX
  8
FOREGROUND
  6
CONTINUOUS
 10
5.131742
 20
4.420900
  0
VERTEX
  8
FOREGROUND
  6
CONTINUOUS
 10
5.121885
 20
4.453766
  0
VERTEX
  8
FOREGROUND
  6
CONTINUOUS
 10
5.110968
 20
4.486158
  0
VERTEX
  8
FOREGROUND
  6
CONTINUOUS
 10
5.099011
 20
4.518056
  0
VERTEX
  8
FOREGROUND
  6
CONTINUOUS
 10
5.086033
 20
4.549440
  0
VERTEX
  8
FOREGROUND
  6
CONTINUOUS
 10
5.072057
 20
4.580289
  0
VERTEX
  8
FOREGROUND
  6
CONTINUOUS
 10
5.057101
 20
4.610583
  0
VERTEX
  8
FOREGROUND
  6
CONTINUOUS
 10
5.041185
 20
4.640302
  0
VERTEX
  8
FOREGROUND
  6
CONTINUOUS
 10
5.024331
 20
4.669426
  0
VERTEX
  8
FOREGROUND
  6
CONTINUOUS
 10
5.006558
 20
4.697934
  0
VERTEX
  8
FOREGROUND
  6
CONTINUOUS
 10
4.987887
 20
4.725807
  0
VERTEX
  8
FOREGROUND
  6
CONTINUOUS
 10
4.968337
 20
4.753023
  0
VERTEX
  8
FOREGROUND
  6
CONTINUOUS
 10
4.947929
 20
4.779563
  0
VERTEX
  8
FOREGROUND
  6
CONTINUOUS
 10
4.926683
 20
4.805407
  0
VERTEX
  8
FOREGROUND
  6
CONTINUOUS
 10
4.904620
 20
4.830534
  0
VERTEX
  8
FOREGROUND
  6
CONTINUOUS
 10
4.881760
 20
4.854925
  0
VERTEX
  8
FOREGROUND
  6
CONTINUOUS
 10
4.858122
 20
4.878558
  0
VERTEX
  8
FOREGROUND
  6
CONTINUOUS
 10
4.833727
 20
4.901414
  0
VERTEX
  8
FOREGROUND
  6
CONTINUOUS
 10
4.808596
 20
4.923473
  0
VERTEX
  8
FOREGROUND
  6
CONTINUOUS
 10
4.782748
 20
4.944714
  0
VERTEX
  8
FOREGROUND
  6
CONTINUOUS
 10
4.756204
 20
4.965117
  0
VERTEX
  8
FOREGROUND
  6
CONTINUOUS
 10
4.728984
 20
4.984661
  0
VERTEX
  8
FOREGROUND
  6
CONTINUOUS
 10
4.701108
 20
5.003328
  0
VERTEX
  8
FOREGROUND
  6
CONTINUOUS
 10
4.672597
 20
5.021095
  0
VERTEX
  8
FOREGROUND
  6
CONTINUOUS
 10
4.643470
 20
5.037944
  0
VERTEX
  8
FOREGROUND
  6
CONTINUOUS
 10
4.613748
 20
5.053854
  0
VERTEX
  8
FOREGROUND
  6
CONTINUOUS
 10
4.583451
 20
5.068804
  0
VERTEX
  8
FOREGROUND
  6
CONTINUOUS
 10
4.552599
 20
5.082775
  0
VERTEX
  8
FOREGROUND
  6
CONTINUOUS
 10
4.521213
 20
5.095747
  0
VERTEX
  8
FOREGROUND
  6
CONTINUOUS
 10
4.489313
 20
5.107698
  0
VERTEX
  8
FOREGROUND
  6
CONTINUOUS
 10
4.456919
 20
5.118609
  0
VERTEX
  8
FOREGROUND
  6
CONTINUOUS
 10
4.424051
 20
5.128460
  0
VERTEX
  8
FOREGROUND
  6
CONTINUOUS
 10
4.390729
 20
5.137230
  0
VERTEX
  8
FOREGROUND
  6
CONTINUOUS
 10
4.356974
 20
5.144900
  0
VERTEX
  8
FOREGROUND
  6
CONTINUOUS
 10
4.322806
 20
5.151448
  0
VERTEX
  8
FOREGROUND
  6
CONTINUOUS
 10
4.288245
 20
5.156855
  0
VERTEX
  8
FOREGROUND
  6
CONTINUOUS
 10
4.253312
 20
5.161101
  0
VERTEX
  8
FOREGROUND
  6
CONTINUOUS
 10
4.218026
 20
5.164165
  0
VERTEX
  8
FOREGROUND
  6
CONTINUOUS
 10
4.182407
 20
5.166027
  0
VERTEX
  8
FOREGROUND
  6
CONTINUOUS
 10
4.146477
 20
5.166667
  0
VERTEX
  8
FOREGROUND
  6
CONTINUOUS
 10
1.073144
 20
5.166667
  0
VERTEX
  8
FOREGROUND
  6
CONTINUOUS
 10
1.037223
 20
5.166014
  0
VERTEX
  8
FOREGROUND
  6
CONTINUOUS
 10
1.001615
 20
5.164140
  0
VERTEX
  8
FOREGROUND
  6
CONTINUOUS
 10
0.966339
 20
5.161064
  0
VERTEX
  8
FOREGROUND
  6
CONTINUOUS
 10
0.931415
 20
5.156808
  0
VERTEX
  8
FOREGROUND
  6
CONTINUOUS
 10
0.896864
 20
5.151390
  0
VERTEX
  8
FOREGROUND
  6
CONTINUOUS
 10
0.862707
 20
5.144832
  0
VERTEX
  8
FOREGROUND
  6
CONTINUOUS
 10
0.828962
 20
5.137154
  0
VERTEX
  8
FOREGROUND
  6
CONTINUOUS
 10
0.795651
 20
5.128376
  0
VERTEX
  8
FOREGROUND
  6
CONTINUOUS
 10
0.762794
 20
5.118517
  0
VERTEX
  8
FOREGROUND
  6
CONTINUOUS
 10
0.730411
 20
5.107599
  0
VERTEX
  8
FOREGROUND
  6
CONTINUOUS
 10
0.698521
 20
5.095642
  0
VERTEX
  8
FOREGROUND
  6
CONTINUOUS
 10
0.667146
 20
5.082665
  0
VERTEX
  8
FOREGROUND
  6
CONTINUOUS
 10
0.636305
 20
5.068689
  0
VERTEX
  8
FOREGROUND
  6
CONTINUOUS
 10
0.606019
 20
5.053734
  0
VERTEX
  8
FOREGROUND
  6
CONTINUOUS
 10
0.576308
 20
5.037820
  0
VERTEX
  8
FOREGROUND
  6
CONTINUOUS
 10
0.547192
 20
5.020968
  0
VERTEX
  8
FOREGROUND
  6
CONTINUOUS
 10
0.518691
 20
5.003198
  0
VERTEX
  8
FOREGROUND
  6
CONTINUOUS
 10
0.490826
 20
4.984529
  0
VERTEX
  8
FOREGROUND
  6
CONTINUOUS
 10
0.463616
 20
4.964983
  0
VERTEX
  8
FOREGROUND
  6
CONTINUOUS
 10
0.437083
 20
4.944579
  0
VERTEX
  8
FOREGROUND
  6
CONTINUOUS
 10
0.411245
 20
4.923338
  0
VERTEX
  8
FOREGROUND
  6
CONTINUOUS
 10
0.386124
 20
4.901279
  0
VERTEX
  8
FOREGROUND
  6
CONTINUOUS
 10
0.361739
 20
4.878424
  0
VERTEX
  8
FOREGROUND
  6
CONTINUOUS
 10
0.338111
 20
4.854791
  0
VERTEX
  8
FOREGROUND
  6
CONTINUOUS
 10
0.315260
 20
4.830402
  0
VERTEX
  8
FOREGROUND
  6
CONTINUOUS
 10
0.293206
 20
4.805277
  0
VERTEX
  8
FOREGROUND
  6
CONTINUOUS
 10
0.271970
 20
4.779436
  0
VERTEX
  8
FOREGROUND
  6
CONTINUOUS
 10
0.251571
 20
4.752898
  0
VERTEX
  8
FOREGROUND
  6
CONTINUOUS
 10
0.232029
 20
4.725685
  0
VERTEX
  8
FOREGROUND
  6
CONTINUOUS
 10
0.213366
 20
4.697816
  0
VERTEX
  8
FOREGROUND
  6
CONTINUOUS
 10
0.195601
 20
4.669312
  0
VERTEX
  8
FOREGROUND
  6
CONTINUOUS
 10
0.178754
 20
4.640193
  0
VERTEX
  8
FOREGROUND
  6
CONTINUOUS
 10
0.162846
 20
4.610479
  0
VERTEX
  8
FOREGROUND
  6
CONTINUOUS
 10
0.147897
 20
4.580190
  0
VERTEX
  8
FOREGROUND
  6
CONTINUOUS
 10
0.133927
 20
4.549347
  0
VERTEX
  8
FOREGROUND
  6
CONTINUOUS
 10
0.120955
 20
4.517969
  0
VERTEX
  8
FOREGROUND
  6
CONTINUOUS
 10
0.109004
 20
4.486077
  0
VERTEX
  8
FOREGROUND
  6
CONTINUOUS
 10
0.098092
 20
4.453692
  0
VERTEX
  8
FOREGROUND
  6
CONTINUOUS
 10
0.088239
 20
4.420833
  0
VERTEX
  8
FOREGROUND
  6
CONTINUOUS
 10
0.079467
 20
4.387520
  0
VERTEX
  8
FOREGROUND
  6
CONTINUOUS
 10
0.071795
 20
4.353774
  0
VERTEX
  8
FOREGROUND
  6
CONTINUOUS
 10
0.065244
 20
4.319615
  0
VERTEX
  8
FOREGROUND
  6
CONTINUOUS
 10
0.059833
 20
4.285064
  0
VERTEX
  8
FOREGROUND
  6
CONTINUOUS
 10
0.055583
 20
4.250140
  0
VERTEX
  8
FOREGROUND
  6
CONTINUOUS
 10
0.052514
 20
4.214863
  0
VERTEX
  8
FOREGROUND
  6
CONTINUOUS
 10
0.050646
 20
4.179254
  0
VERTEX
  8
FOREGROUND
  6
CONTINUOUS
 10
0.050000
 20
4.143333
  0
VERTEX
  8
FOREGROUND
  6
CONTINUOUS
 10
0.050000
 20
1.073333
  0
VERTEX
  8
FOREGROUND
  6
CONTINUOUS
 10
0.050646
 20
1.037408
  0
VERTEX
  8
FOREGROUND
  6
CONTINUOUS
 10
0.052514
 20
1.001795
  0
VERTEX
  8
FOREGROUND
  6
CONTINUOUS
 10
0.055584
 20
0.966513
  0
VERTEX
  8
FOREGROUND
  6
CONTINUOUS
 10
0.059835
 20
0.931585
  0
VERTEX
  8
FOREGROUND
  6
CONTINUOUS
 10
0.065247
 20
0.897029
  0
VERTEX
  8
FOREGROUND
  6
CONTINUOUS
 10
0.071801
 20
0.862866
  0
VERTEX
  8
FOREGROUND
  6
CONTINUOUS
 10
0.079474
 20
0.829117
  0
VERTEX
  8
FOREGROUND
  6
CONTINUOUS
 10
0.088249
 20
0.795800
  0
VERTEX
  8
FOREGROUND
  6
CONTINUOUS
 10
0.098103
 20
0.762938
  0
VERTEX
  8
FOREGROUND
  6
CONTINUOUS
 10
0.109018
 20
0.730549
  0
VERTEX
  8
FOREGROUND
  6
CONTINUOUS
 10
0.120972
 20
0.698654
  0
VERTEX
  8
FOREGROUND
  6
CONTINUOUS
 10
0.133947
 20
0.667273
  0
VERTEX
  8
FOREGROUND
  6
CONTINUOUS
 10
0.147920
 20
0.636427
  0
VERTEX
  8
FOREGROUND
  6
CONTINUOUS
 10
0.162873
 20
0.606136
  0
VERTEX
  8
FOREGROUND
  6
CONTINUOUS
 10
0.178784
 20
0.576419
  0
VERTEX
  8
FOREGROUND
  6
CONTINUOUS
 10
0.195635
 20
0.547298
  0
VERTEX
  8
FOREGROUND
  6
CONTINUOUS
 10
0.213404
 20
0.518792
  0
VERTEX
  8
FOREGROUND
  6
CONTINUOUS
 10
0.232071
 20
0.490921
  0
VERTEX
  8
FOREGROUND
  6
CONTINUOUS
 10
0.251617
 20
0.463706
  0
VERTEX
  8
FOREGROUND
  6
CONTINUOUS
 10
0.272020
 20
0.437167
  0
VERTEX
  8
FOREGROUND
  6
CONTINUOUS
 10
0.293261
 20
0.411325
  0
VERTEX
  8
FOREGROUND
  6
CONTINUOUS
 10
0.315320
 20
0.386198
  0
VERTEX
  8
FOREGROUND
  6
CONTINUOUS
 10
0.338176
 20
0.361809
  0
VERTEX
  8
FOREGROUND
  6
CONTINUOUS
 10
0.361809
 20
0.338176
  0
VERTEX
  8
FOREGROUND
  6
CONTINUOUS
 10
0.386198
 20
0.315320
  0
VERTEX
  8
FOREGROUND
  6
CONTINUOUS
 10
0.411325
 20
0.293261
  0
VERTEX
  8
FOREGROUND
  6
CONTINUOUS
 10
0.437167
 20
0.272020
  0
VERTEX
  8
FOREGROUND
  6
CONTINUOUS
 10
0.463706
 20
0.251617
  0
VERTEX
  8
FOREGROUND
  6
CONTINUOUS
 10
0.490921
 20
0.232071
  0
VERTEX
  8
FOREGROUND
  6
CONTINUOUS
 10
0.518792
 20
0.213404
  0
VERTEX
  8
FOREGROUND
  6
CONTINUOUS
 10
0.547298
 20
0.195635
  0
VERTEX
  8
FOREGROUND
  6
CONTINUOUS
 10
0.576419
 20
0.178784
  0
VERTEX
  8
FOREGROUND
  6
CONTINUOUS
 10
0.606136
 20
0.162873
  0
VERTEX
  8
FOREGROUND
  6
CONTINUOUS
 10
0.636427
 20
0.147920
  0
VERTEX
  8
FOREGROUND
  6
CONTINUOUS
 10
0.667273
 20
0.133947
  0
VERTEX
  8
FOREGROUND
  6
CONTINUOUS
 10
0.698654
 20
0.120972
  0
VERTEX
  8
FOREGROUND
  6
CONTINUOUS
 10
0.730549
 20
0.109018
  0
VERTEX
  8
FOREGROUND
  6
CONTINUOUS
 10
0.762938
 20
0.098103
  0
VERTEX
  8
FOREGROUND
  6
CONTINUOUS
 10
0.795800
 20
0.088249
  0
VERTEX
  8
FOREGROUND
  6
CONTINUOUS
 10
0.829117
 20
0.079474
  0
VERTEX
  8
FOREGROUND
  6
CONTINUOUS
 10
0.862866
 20
0.071801
  0
VERTEX
  8
FOREGROUND
  6
CONTINUOUS
 10
0.897029
 20
0.065247
  0
VERTEX
  8
FOREGROUND
  6
CONTINUOUS
 10
0.931585
 20
0.059835
  0
VERTEX
  8
FOREGROUND
  6
CONTINUOUS
 10
0.966513
 20
0.055584
  0
VERTEX
  8
FOREGROUND
  6
CONTINUOUS
 10
1.001795
 20
0.052514
  0
VERTEX
  8
FOREGROUND
  6
CONTINUOUS
 10
1.037408
 20
0.050646
  0
VERTEX
  8
FOREGROUND
  6
CONTINUOUS
 10
1.073333
 20
0.050000
  0
SEQEND
  8
0
  0
ENDSEC
  0
EOF
