  0
SECTION
  2
HEADER
  9
$ACADVER
  1
AC1006
  9
$EXTMIN
 10
0.000000
 20
0.000000
  9
$EXTMAX
 10
5.710000
 20
5.705000
  9
$LTSCALE
 40
0.166667
  9
$PDMODE
 70
    35
  9
$PDSIZE
 40
0.133333
  0
ENDSEC
  0
SECTION
  2
TABLES
  0
TABLE
  2
LTYPE
 70
     9
  0
LTYPE
  2
CONTINUOUS
 70
    64
  3
Solid line
 72
    65
 73
     0
 40
0.000000
  0
LTYPE
  2
DASHED
 70
    64
  3
__ __ __ __ __ __ __ __ __ __ __ __ __ __ __
 72
    65
 73
     2
 40
0.001250
 49
0.000833
 49
-0.000417
  0
LTYPE
  2
HIDDEN
 70
    64
  3
 _ _ _ _ _ _ _ _ _ _ _ _ _ _ _ _ _ _ _ _ _ _
 72
    65
 73
     2
 40
0.000625
 49
0.000417
 49
-0.000208
  0
LTYPE
  2
CENTER
 70
    64
  3
____ _ ____ _ ____ _ ____ _ ____ _ ____ _ ____
 72
    65
 73
     4
 40
0.003333
 49
0.002083
 49
-0.000417
 49
0.000417
 49
-0.000417
  0
LTYPE
  2
PHANTOM
 70
    64
  3
_____ _ _ _____ _ _ _____ _ _ _____ _ _ ____
 72
    65
 73
     6
 40
0.004167
 49
0.002083
 49
-0.000417
 49
0.000417
 49
-0.000417
 49
0.000417
 49
-0.000417
  0
LTYPE
  2
DOT
 70
    64
  3
...............................................
 72
    65
 73
     2
 40
0.000417
 49
0.000000
 49
-0.000417
  0
LTYPE
  2
DASHDOT
 70
    64
  3
__ . __ . __ . __ . __ . __ . __ . __ . __ . __
 72
    65
 73
     4
 40
0.001667
 49
0.000833
 49
-0.000417
 49
0.000000
 49
-0.000417
  0
LTYPE
  2
BORDER
 70
    64
  3
__ __ . __ __ . __ __ . __ __ . __ __ . __ __
 72
    65
 73
     6
 40
0.002917
 49
0.000833
 49
-0.000417
 49
0.000833
 49
-0.000417
 49
0.000000
 49
-0.000417
  0
LTYPE
  2
DIVIDE
 70
    64
  3
__ . . __ . . __ . . __ . . __ . . __ . . __
 72
    65
 73
     6
 40
0.002083
 49
0.000833
 49
-0.000417
 49
0.000000
 49
-0.000417
 49
0.000000
 49
-0.000417
  0
LTYPE
  2
DOTDOT
 70
    64
  3
 . .  . .  . .  . .  . .  . . 
 72
    65
 73
     5
 40
0.000917
 49
-0.000417
 49
0.000000
 49
-0.000417
 49
0.000000
 49
-0.000417
  0
ENDTAB
  0
TABLE
  2
STYLE
 70
     2
  0
STYLE
 70
     0
  2
SN0
 40
0.000000
 41
0.001667
 50
0.000000
 71
     0
 42
0.000000
  3
ROMAND
  0
STYLE
 70
    68
  2
SV0
 40
0.000000
 41
0.001667
 50
0.000000
 71
     0
 42
0.000000
  3
ROMAND
  0
ENDTAB
  0
TABLE
  2
LAYER
 70
     2
  0
LAYER
  2
FOREGROUND
 70
    64
 62
     7
  6
CONTINUOUS
  0
LAYER
  2
BACKGROUND
 70
    65
 62
    -7
  6
CONTINUOUS
  0
ENDTAB
  0
ENDSEC
  0
SECTION
  2
ENTITIES
  0
POLYLINE
  8
FOREGROUND
 62
     7
  6
CONTINUOUS
 66
     1
 40
0.000000
 41
0.000000
 70
     1
  0
VERTEX
  8
FOREGROUND
 62
     7
  6
CONTINUOUS
 10
1.146667
 20
5.546667
  0
VERTEX
  8
FOREGROUND
 62
     7
  6
CONTINUOUS
 10
4.445000
 20
5.546667
  0
VERTEX
  8
FOREGROUND
 62
     7
  6
CONTINUOUS
 10
4.501667
 20
5.545000
  0
VERTEX
  8
FOREGROUND
 62
     7
  6
CONTINUOUS
 10
4.556667
 20
5.541667
  0
VERTEX
  8
FOREGROUND
 62
     7
  6
CONTINUOUS
 10
4.611667
 20
5.533333
  0
VERTEX
  8
FOREGROUND
 62
     7
  6
CONTINUOUS
 10
4.666667
 20
5.525000
  0
VERTEX
  8
FOREGROUND
 62
     7
  6
CONTINUOUS
 10
4.720000
 20
5.511667
  0
VERTEX
  8
FOREGROUND
 62
     7
  6
CONTINUOUS
 10
4.771667
 20
5.496667
  0
VERTEX
  8
FOREGROUND
 62
     7
  6
CONTINUOUS
 10
4.821667
 20
5.480000
  0
VERTEX
  8
FOREGROUND
 62
     7
  6
CONTINUOUS
 10
4.871667
 20
5.460000
  0
VERTEX
  8
FOREGROUND
 62
     7
  6
CONTINUOUS
 10
4.920000
 20
5.438333
  0
VERTEX
  8
FOREGROUND
 62
     7
  6
CONTINUOUS
 10
4.968333
 20
5.413333
  0
VERTEX
  8
FOREGROUND
 62
     7
  6
CONTINUOUS
 10
5.013333
 20
5.388333
  0
VERTEX
  8
FOREGROUND
 62
     7
  6
CONTINUOUS
 10
5.058333
 20
5.360000
  0
VERTEX
  8
FOREGROUND
 62
     7
  6
CONTINUOUS
 10
5.101667
 20
5.328333
  0
VERTEX
  8
FOREGROUND
 62
     7
  6
CONTINUOUS
 10
5.143333
 20
5.296667
  0
VERTEX
  8
FOREGROUND
 62
     7
  6
CONTINUOUS
 10
5.183333
 20
5.261667
  0
VERTEX
  8
FOREGROUND
 62
     7
  6
CONTINUOUS
 10
5.220000
 20
5.225000
  0
VERTEX
  8
FOREGROUND
 62
     7
  6
CONTINUOUS
 10
5.256667
 20
5.186667
  0
VERTEX
  8
FOREGROUND
 62
     7
  6
CONTINUOUS
 10
5.291667
 20
5.146667
  0
VERTEX
  8
FOREGROUND
 62
     7
  6
CONTINUOUS
 10
5.323333
 20
5.106667
  0
VERTEX
  8
FOREGROUND
 62
     7
  6
CONTINUOUS
 10
5.355000
 20
5.063333
  0
VERTEX
  8
FOREGROUND
 62
     7
  6
CONTINUOUS
 10
5.383333
 20
5.018333
  0
VERTEX
  8
FOREGROUND
 62
     7
  6
CONTINUOUS
 10
5.410000
 20
4.973333
  0
VERTEX
  8
FOREGROUND
 62
     7
  6
CONTINUOUS
 10
5.433333
 20
4.925000
  0
VERTEX
  8
FOREGROUND
 62
     7
  6
CONTINUOUS
 10
5.455000
 20
4.876667
  0
VERTEX
  8
FOREGROUND
 62
     7
  6
CONTINUOUS
 10
5.475000
 20
4.826667
  0
VERTEX
  8
FOREGROUND
 62
     7
  6
CONTINUOUS
 10
5.493333
 20
4.776667
  0
VERTEX
  8
FOREGROUND
 62
     7
  6
CONTINUOUS
 10
5.506667
 20
4.723333
  0
VERTEX
  8
FOREGROUND
 62
     7
  6
CONTINUOUS
 10
5.520000
 20
4.671667
  0
VERTEX
  8
FOREGROUND
 62
     7
  6
CONTINUOUS
 10
5.530000
 20
4.616667
  0
VERTEX
  8
FOREGROUND
 62
     7
  6
CONTINUOUS
 10
5.536667
 20
4.561667
  0
VERTEX
  8
FOREGROUND
 62
     7
  6
CONTINUOUS
 10
5.540000
 20
4.506667
  0
VERTEX
  8
FOREGROUND
 62
     7
  6
CONTINUOUS
 10
5.541667
 20
4.450000
  0
VERTEX
  8
FOREGROUND
 62
     7
  6
CONTINUOUS
 10
5.541667
 20
1.155000
  0
VERTEX
  8
FOREGROUND
 62
     7
  6
CONTINUOUS
 10
5.540000
 20
1.098333
  0
VERTEX
  8
FOREGROUND
 62
     7
  6
CONTINUOUS
 10
5.536667
 20
1.043333
  0
VERTEX
  8
FOREGROUND
 62
     7
  6
CONTINUOUS
 10
5.530000
 20
0.988333
  0
VERTEX
  8
FOREGROUND
 62
     7
  6
CONTINUOUS
 10
5.520000
 20
0.933333
  0
VERTEX
  8
FOREGROUND
 62
     7
  6
CONTINUOUS
 10
5.506667
 20
0.880000
  0
VERTEX
  8
FOREGROUND
 62
     7
  6
CONTINUOUS
 10
5.493333
 20
0.828333
  0
VERTEX
  8
FOREGROUND
 62
     7
  6
CONTINUOUS
 10
5.475000
 20
0.778333
  0
VERTEX
  8
FOREGROUND
 62
     7
  6
CONTINUOUS
 10
5.455000
 20
0.728333
  0
VERTEX
  8
FOREGROUND
 62
     7
  6
CONTINUOUS
 10
5.433333
 20
0.680000
  0
VERTEX
  8
FOREGROUND
 62
     7
  6
CONTINUOUS
 10
5.410000
 20
0.631667
  0
VERTEX
  8
FOREGROUND
 62
     7
  6
CONTINUOUS
 10
5.383333
 20
0.586667
  0
VERTEX
  8
FOREGROUND
 62
     7
  6
CONTINUOUS
 10
5.355000
 20
0.541667
  0
VERTEX
  8
FOREGROUND
 62
     7
  6
CONTINUOUS
 10
5.323333
 20
0.498333
  0
VERTEX
  8
FOREGROUND
 62
     7
  6
CONTINUOUS
 10
5.291667
 20
0.456667
  0
VERTEX
  8
FOREGROUND
 62
     7
  6
CONTINUOUS
 10
5.256667
 20
0.416667
  0
VERTEX
  8
FOREGROUND
 62
     7
  6
CONTINUOUS
 10
5.220000
 20
0.380000
  0
VERTEX
  8
FOREGROUND
 62
     7
  6
CONTINUOUS
 10
5.183333
 20
0.343333
  0
VERTEX
  8
FOREGROUND
 62
     7
  6
CONTINUOUS
 10
5.143333
 20
0.308333
  0
VERTEX
  8
FOREGROUND
 62
     7
  6
CONTINUOUS
 10
5.101667
 20
0.276667
  0
VERTEX
  8
FOREGROUND
 62
     7
  6
CONTINUOUS
 10
5.058333
 20
0.245000
  0
VERTEX
  8
FOREGROUND
 62
     7
  6
CONTINUOUS
 10
5.013333
 20
0.216667
  0
VERTEX
  8
FOREGROUND
 62
     7
  6
CONTINUOUS
 10
4.968333
 20
0.190000
  0
VERTEX
  8
FOREGROUND
 62
     7
  6
CONTINUOUS
 10
4.920000
 20
0.166667
  0
VERTEX
  8
FOREGROUND
 62
     7
  6
CONTINUOUS
 10
4.871667
 20
0.145000
  0
VERTEX
  8
FOREGROUND
 62
     7
  6
CONTINUOUS
 10
4.821667
 20
0.125000
  0
VERTEX
  8
FOREGROUND
 62
     7
  6
CONTINUOUS
 10
4.771667
 20
0.106667
  0
VERTEX
  8
FOREGROUND
 62
     7
  6
CONTINUOUS
 10
4.720000
 20
0.093333
  0
VERTEX
  8
FOREGROUND
 62
     7
  6
CONTINUOUS
 10
4.666667
 20
0.080000
  0
VERTEX
  8
FOREGROUND
 62
     7
  6
CONTINUOUS
 10
4.611667
 20
0.070000
  0
VERTEX
  8
FOREGROUND
 62
     7
  6
CONTINUOUS
 10
4.556667
 20
0.063333
  0
VERTEX
  8
FOREGROUND
 62
     7
  6
CONTINUOUS
 10
4.501667
 20
0.060000
  0
VERTEX
  8
FOREGROUND
 62
     7
  6
CONTINUOUS
 10
4.445000
 20
0.058333
  0
VERTEX
  8
FOREGROUND
 62
     7
  6
CONTINUOUS
 10
1.146667
 20
0.058333
  0
VERTEX
  8
FOREGROUND
 62
     7
  6
CONTINUOUS
 10
1.090000
 20
0.060000
  0
VERTEX
  8
FOREGROUND
 62
     7
  6
CONTINUOUS
 10
1.035000
 20
0.063333
  0
VERTEX
  8
FOREGROUND
 62
     7
  6
CONTINUOUS
 10
0.980000
 20
0.070000
  0
VERTEX
  8
FOREGROUND
 62
     7
  6
CONTINUOUS
 10
0.925000
 20
0.080000
  0
VERTEX
  8
FOREGROUND
 62
     7
  6
CONTINUOUS
 10
0.873333
 20
0.093333
  0
VERTEX
  8
FOREGROUND
 62
     7
  6
CONTINUOUS
 10
0.820000
 20
0.106667
  0
VERTEX
  8
FOREGROUND
 62
     7
  6
CONTINUOUS
 10
0.770000
 20
0.125000
  0
VERTEX
  8
FOREGROUND
 62
     7
  6
CONTINUOUS
 10
0.720000
 20
0.145000
  0
VERTEX
  8
FOREGROUND
 62
     7
  6
CONTINUOUS
 10
0.671667
 20
0.166667
  0
VERTEX
  8
FOREGROUND
 62
     7
  6
CONTINUOUS
 10
0.623333
 20
0.190000
  0
VERTEX
  8
FOREGROUND
 62
     7
  6
CONTINUOUS
 10
0.578333
 20
0.216667
  0
VERTEX
  8
FOREGROUND
 62
     7
  6
CONTINUOUS
 10
0.533333
 20
0.245000
  0
VERTEX
  8
FOREGROUND
 62
     7
  6
CONTINUOUS
 10
0.490000
 20
0.276667
  0
VERTEX
  8
FOREGROUND
 62
     7
  6
CONTINUOUS
 10
0.450000
 20
0.308333
  0
VERTEX
  8
FOREGROUND
 62
     7
  6
CONTINUOUS
 10
0.410000
 20
0.343333
  0
VERTEX
  8
FOREGROUND
 62
     7
  6
CONTINUOUS
 10
0.371667
 20
0.380000
  0
VERTEX
  8
FOREGROUND
 62
     7
  6
CONTINUOUS
 10
0.335000
 20
0.416667
  0
VERTEX
  8
FOREGROUND
 62
     7
  6
CONTINUOUS
 10
0.300000
 20
0.456667
  0
VERTEX
  8
FOREGROUND
 62
     7
  6
CONTINUOUS
 10
0.268333
 20
0.498333
  0
VERTEX
  8
FOREGROUND
 62
     7
  6
CONTINUOUS
 10
0.236667
 20
0.541667
  0
VERTEX
  8
FOREGROUND
 62
     7
  6
CONTINUOUS
 10
0.208333
 20
0.586667
  0
VERTEX
  8
FOREGROUND
 62
     7
  6
CONTINUOUS
 10
0.183333
 20
0.631667
  0
VERTEX
  8
FOREGROUND
 62
     7
  6
CONTINUOUS
 10
0.158333
 20
0.680000
  0
VERTEX
  8
FOREGROUND
 62
     7
  6
CONTINUOUS
 10
0.136667
 20
0.728333
  0
VERTEX
  8
FOREGROUND
 62
     7
  6
CONTINUOUS
 10
0.116667
 20
0.778333
  0
VERTEX
  8
FOREGROUND
 62
     7
  6
CONTINUOUS
 10
0.100000
 20
0.828333
  0
VERTEX
  8
FOREGROUND
 62
     7
  6
CONTINUOUS
 10
0.085000
 20
0.880000
  0
VERTEX
  8
FOREGROUND
 62
     7
  6
CONTINUOUS
 10
0.071667
 20
0.933333
  0
VERTEX
  8
FOREGROUND
 62
     7
  6
CONTINUOUS
 10
0.063333
 20
0.988333
  0
VERTEX
  8
FOREGROUND
 62
     7
  6
CONTINUOUS
 10
0.055000
 20
1.043333
  0
VERTEX
  8
FOREGROUND
 62
     7
  6
CONTINUOUS
 10
0.051667
 20
1.098333
  0
VERTEX
  8
FOREGROUND
 62
     7
  6
CONTINUOUS
 10
0.050000
 20
1.155000
  0
VERTEX
  8
FOREGROUND
 62
     7
  6
CONTINUOUS
 10
0.050000
 20
4.450000
  0
VERTEX
  8
FOREGROUND
 62
     7
  6
CONTINUOUS
 10
0.051667
 20
4.506667
  0
VERTEX
  8
FOREGROUND
 62
     7
  6
CONTINUOUS
 10
0.055000
 20
4.561667
  0
VERTEX
  8
FOREGROUND
 62
     7
  6
CONTINUOUS
 10
0.063333
 20
4.616667
  0
VERTEX
  8
FOREGROUND
 62
     7
  6
CONTINUOUS
 10
0.071667
 20
4.671667
  0
VERTEX
  8
FOREGROUND
 62
     7
  6
CONTINUOUS
 10
0.085000
 20
4.723333
  0
VERTEX
  8
FOREGROUND
 62
     7
  6
CONTINUOUS
 10
0.100000
 20
4.776667
  0
VERTEX
  8
FOREGROUND
 62
     7
  6
CONTINUOUS
 10
0.116667
 20
4.826667
  0
VERTEX
  8
FOREGROUND
 62
     7
  6
CONTINUOUS
 10
0.136667
 20
4.876667
  0
VERTEX
  8
FOREGROUND
 62
     7
  6
CONTINUOUS
 10
0.158333
 20
4.925000
  0
VERTEX
  8
FOREGROUND
 62
     7
  6
CONTINUOUS
 10
0.183333
 20
4.973333
  0
VERTEX
  8
FOREGROUND
 62
     7
  6
CONTINUOUS
 10
0.208333
 20
5.018333
  0
VERTEX
  8
FOREGROUND
 62
     7
  6
CONTINUOUS
 10
0.236667
 20
5.063333
  0
VERTEX
  8
FOREGROUND
 62
     7
  6
CONTINUOUS
 10
0.268333
 20
5.106667
  0
VERTEX
  8
FOREGROUND
 62
     7
  6
CONTINUOUS
 10
0.300000
 20
5.146667
  0
VERTEX
  8
FOREGROUND
 62
     7
  6
CONTINUOUS
 10
0.335000
 20
5.186667
  0
VERTEX
  8
FOREGROUND
 62
     7
  6
CONTINUOUS
 10
0.371667
 20
5.225000
  0
VERTEX
  8
FOREGROUND
 62
     7
  6
CONTINUOUS
 10
0.410000
 20
5.261667
  0
VERTEX
  8
FOREGROUND
 62
     7
  6
CONTINUOUS
 10
0.450000
 20
5.296667
  0
VERTEX
  8
FOREGROUND
 62
     7
  6
CONTINUOUS
 10
0.490000
 20
5.328333
  0
VERTEX
  8
FOREGROUND
 62
     7
  6
CONTINUOUS
 10
0.533333
 20
5.360000
  0
VERTEX
  8
FOREGROUND
 62
     7
  6
CONTINUOUS
 10
0.578333
 20
5.388333
  0
VERTEX
  8
FOREGROUND
 62
     7
  6
CONTINUOUS
 10
0.623333
 20
5.413333
  0
VERTEX
  8
FOREGROUND
 62
     7
  6
CONTINUOUS
 10
0.671667
 20
5.438333
  0
VERTEX
  8
FOREGROUND
 62
     7
  6
CONTINUOUS
 10
0.720000
 20
5.460000
  0
VERTEX
  8
FOREGROUND
 62
     7
  6
CONTINUOUS
 10
0.770000
 20
5.480000
  0
VERTEX
  8
FOREGROUND
 62
     7
  6
CONTINUOUS
 10
0.820000
 20
5.496667
  0
VERTEX
  8
FOREGROUND
 62
     7
  6
CONTINUOUS
 10
0.873333
 20
5.511667
  0
VERTEX
  8
FOREGROUND
 62
     7
  6
CONTINUOUS
 10
0.925000
 20
5.525000
  0
VERTEX
  8
FOREGROUND
 62
     7
  6
CONTINUOUS
 10
0.980000
 20
5.533333
  0
VERTEX
  8
FOREGROUND
 62
     7
  6
CONTINUOUS
 10
1.035000
 20
5.541667
  0
VERTEX
  8
FOREGROUND
 62
     7
  6
CONTINUOUS
 10
1.090000
 20
5.545000
  0
SEQEND
  8
0
  0
POLYLINE
  8
FOREGROUND
  6
CONTINUOUS
 66
     1
 40
0.010000
 41
0.010000
 70
     1
  0
VERTEX
  8
FOREGROUND
  6
CONTINUOUS
 10
1.146667
 20
5.546667
  0
VERTEX
  8
FOREGROUND
  6
CONTINUOUS
 10
4.445000
 20
5.546667
  0
VERTEX
  8
FOREGROUND
  6
CONTINUOUS
 10
4.501667
 20
5.545000
  0
VERTEX
  8
FOREGROUND
  6
CONTINUOUS
 10
4.556667
 20
5.541667
  0
VERTEX
  8
FOREGROUND
  6
CONTINUOUS
 10
4.611667
 20
5.533333
  0
VERTEX
  8
FOREGROUND
  6
CONTINUOUS
 10
4.666667
 20
5.525000
  0
VERTEX
  8
FOREGROUND
  6
CONTINUOUS
 10
4.720000
 20
5.511667
  0
VERTEX
  8
FOREGROUND
  6
CONTINUOUS
 10
4.771667
 20
5.496667
  0
VERTEX
  8
FOREGROUND
  6
CONTINUOUS
 10
4.821667
 20
5.480000
  0
VERTEX
  8
FOREGROUND
  6
CONTINUOUS
 10
4.871667
 20
5.460000
  0
VERTEX
  8
FOREGROUND
  6
CONTINUOUS
 10
4.920000
 20
5.438333
  0
VERTEX
  8
FOREGROUND
  6
CONTINUOUS
 10
4.968333
 20
5.413333
  0
VERTEX
  8
FOREGROUND
  6
CONTINUOUS
 10
5.013333
 20
5.388333
  0
VERTEX
  8
FOREGROUND
  6
CONTINUOUS
 10
5.058333
 20
5.360000
  0
VERTEX
  8
FOREGROUND
  6
CONTINUOUS
 10
5.101667
 20
5.328333
  0
VERTEX
  8
FOREGROUND
  6
CONTINUOUS
 10
5.143333
 20
5.296667
  0
VERTEX
  8
FOREGROUND
  6
CONTINUOUS
 10
5.183333
 20
5.261667
  0
VERTEX
  8
FOREGROUND
  6
CONTINUOUS
 10
5.220000
 20
5.225000
  0
VERTEX
  8
FOREGROUND
  6
CONTINUOUS
 10
5.256667
 20
5.186667
  0
VERTEX
  8
FOREGROUND
  6
CONTINUOUS
 10
5.291667
 20
5.146667
  0
VERTEX
  8
FOREGROUND
  6
CONTINUOUS
 10
5.323333
 20
5.106667
  0
VERTEX
  8
FOREGROUND
  6
CONTINUOUS
 10
5.355000
 20
5.063333
  0
VERTEX
  8
FOREGROUND
  6
CONTINUOUS
 10
5.383333
 20
5.018333
  0
VERTEX
  8
FOREGROUND
  6
CONTINUOUS
 10
5.410000
 20
4.973333
  0
VERTEX
  8
FOREGROUND
  6
CONTINUOUS
 10
5.433333
 20
4.925000
  0
VERTEX
  8
FOREGROUND
  6
CONTINUOUS
 10
5.455000
 20
4.876667
  0
VERTEX
  8
FOREGROUND
  6
CONTINUOUS
 10
5.475000
 20
4.826667
  0
VERTEX
  8
FOREGROUND
  6
CONTINUOUS
 10
5.493333
 20
4.776667
  0
VERTEX
  8
FOREGROUND
  6
CONTINUOUS
 10
5.506667
 20
4.723333
  0
VERTEX
  8
FOREGROUND
  6
CONTINUOUS
 10
5.520000
 20
4.671667
  0
VERTEX
  8
FOREGROUND
  6
CONTINUOUS
 10
5.530000
 20
4.616667
  0
VERTEX
  8
FOREGROUND
  6
CONTINUOUS
 10
5.536667
 20
4.561667
  0
VERTEX
  8
FOREGROUND
  6
CONTINUOUS
 10
5.540000
 20
4.506667
  0
VERTEX
  8
FOREGROUND
  6
CONTINUOUS
 10
5.541667
 20
4.450000
  0
VERTEX
  8
FOREGROUND
  6
CONTINUOUS
 10
5.541667
 20
1.155000
  0
VERTEX
  8
FOREGROUND
  6
CONTINUOUS
 10
5.540000
 20
1.098333
  0
VERTEX
  8
FOREGROUND
  6
CONTINUOUS
 10
5.536667
 20
1.043333
  0
VERTEX
  8
FOREGROUND
  6
CONTINUOUS
 10
5.530000
 20
0.988333
  0
VERTEX
  8
FOREGROUND
  6
CONTINUOUS
 10
5.520000
 20
0.933333
  0
VERTEX
  8
FOREGROUND
  6
CONTINUOUS
 10
5.506667
 20
0.880000
  0
VERTEX
  8
FOREGROUND
  6
CONTINUOUS
 10
5.493333
 20
0.828333
  0
VERTEX
  8
FOREGROUND
  6
CONTINUOUS
 10
5.475000
 20
0.778333
  0
VERTEX
  8
FOREGROUND
  6
CONTINUOUS
 10
5.455000
 20
0.728333
  0
VERTEX
  8
FOREGROUND
  6
CONTINUOUS
 10
5.433333
 20
0.680000
  0
VERTEX
  8
FOREGROUND
  6
CONTINUOUS
 10
5.410000
 20
0.631667
  0
VERTEX
  8
FOREGROUND
  6
CONTINUOUS
 10
5.383333
 20
0.586667
  0
VERTEX
  8
FOREGROUND
  6
CONTINUOUS
 10
5.355000
 20
0.541667
  0
VERTEX
  8
FOREGROUND
  6
CONTINUOUS
 10
5.323333
 20
0.498333
  0
VERTEX
  8
FOREGROUND
  6
CONTINUOUS
 10
5.291667
 20
0.456667
  0
VERTEX
  8
FOREGROUND
  6
CONTINUOUS
 10
5.256667
 20
0.416667
  0
VERTEX
  8
FOREGROUND
  6
CONTINUOUS
 10
5.220000
 20
0.380000
  0
VERTEX
  8
FOREGROUND
  6
CONTINUOUS
 10
5.183333
 20
0.343333
  0
VERTEX
  8
FOREGROUND
  6
CONTINUOUS
 10
5.143333
 20
0.308333
  0
VERTEX
  8
FOREGROUND
  6
CONTINUOUS
 10
5.101667
 20
0.276667
  0
VERTEX
  8
FOREGROUND
  6
CONTINUOUS
 10
5.058333
 20
0.245000
  0
VERTEX
  8
FOREGROUND
  6
CONTINUOUS
 10
5.013333
 20
0.216667
  0
VERTEX
  8
FOREGROUND
  6
CONTINUOUS
 10
4.968333
 20
0.190000
  0
VERTEX
  8
FOREGROUND
  6
CONTINUOUS
 10
4.920000
 20
0.166667
  0
VERTEX
  8
FOREGROUND
  6
CONTINUOUS
 10
4.871667
 20
0.145000
  0
VERTEX
  8
FOREGROUND
  6
CONTINUOUS
 10
4.821667
 20
0.125000
  0
VERTEX
  8
FOREGROUND
  6
CONTINUOUS
 10
4.771667
 20
0.106667
  0
VERTEX
  8
FOREGROUND
  6
CONTINUOUS
 10
4.720000
 20
0.093333
  0
VERTEX
  8
FOREGROUND
  6
CONTINUOUS
 10
4.666667
 20
0.080000
  0
VERTEX
  8
FOREGROUND
  6
CONTINUOUS
 10
4.611667
 20
0.070000
  0
VERTEX
  8
FOREGROUND
  6
CONTINUOUS
 10
4.556667
 20
0.063333
  0
VERTEX
  8
FOREGROUND
  6
CONTINUOUS
 10
4.501667
 20
0.060000
  0
VERTEX
  8
FOREGROUND
  6
CONTINUOUS
 10
4.445000
 20
0.058333
  0
VERTEX
  8
FOREGROUND
  6
CONTINUOUS
 10
1.146667
 20
0.058333
  0
VERTEX
  8
FOREGROUND
  6
CONTINUOUS
 10
1.090000
 20
0.060000
  0
VERTEX
  8
FOREGROUND
  6
CONTINUOUS
 10
1.035000
 20
0.063333
  0
VERTEX
  8
FOREGROUND
  6
CONTINUOUS
 10
0.980000
 20
0.070000
  0
VERTEX
  8
FOREGROUND
  6
CONTINUOUS
 10
0.925000
 20
0.080000
  0
VERTEX
  8
FOREGROUND
  6
CONTINUOUS
 10
0.873333
 20
0.093333
  0
VERTEX
  8
FOREGROUND
  6
CONTINUOUS
 10
0.820000
 20
0.106667
  0
VERTEX
  8
FOREGROUND
  6
CONTINUOUS
 10
0.770000
 20
0.125000
  0
VERTEX
  8
FOREGROUND
  6
CONTINUOUS
 10
0.720000
 20
0.145000
  0
VERTEX
  8
FOREGROUND
  6
CONTINUOUS
 10
0.671667
 20
0.166667
  0
VERTEX
  8
FOREGROUND
  6
CONTINUOUS
 10
0.623333
 20
0.190000
  0
VERTEX
  8
FOREGROUND
  6
CONTINUOUS
 10
0.578333
 20
0.216667
  0
VERTEX
  8
FOREGROUND
  6
CONTINUOUS
 10
0.533333
 20
0.245000
  0
VERTEX
  8
FOREGROUND
  6
CONTINUOUS
 10
0.490000
 20
0.276667
  0
VERTEX
  8
FOREGROUND
  6
CONTINUOUS
 10
0.450000
 20
0.308333
  0
VERTEX
  8
FOREGROUND
  6
CONTINUOUS
 10
0.410000
 20
0.343333
  0
VERTEX
  8
FOREGROUND
  6
CONTINUOUS
 10
0.371667
 20
0.380000
  0
VERTEX
  8
FOREGROUND
  6
CONTINUOUS
 10
0.335000
 20
0.416667
  0
VERTEX
  8
FOREGROUND
  6
CONTINUOUS
 10
0.300000
 20
0.456667
  0
VERTEX
  8
FOREGROUND
  6
CONTINUOUS
 10
0.268333
 20
0.498333
  0
VERTEX
  8
FOREGROUND
  6
CONTINUOUS
 10
0.236667
 20
0.541667
  0
VERTEX
  8
FOREGROUND
  6
CONTINUOUS
 10
0.208333
 20
0.586667
  0
VERTEX
  8
FOREGROUND
  6
CONTINUOUS
 10
0.183333
 20
0.631667
  0
VERTEX
  8
FOREGROUND
  6
CONTINUOUS
 10
0.158333
 20
0.680000
  0
VERTEX
  8
FOREGROUND
  6
CONTINUOUS
 10
0.136667
 20
0.728333
  0
VERTEX
  8
FOREGROUND
  6
CONTINUOUS
 10
0.116667
 20
0.778333
  0
VERTEX
  8
FOREGROUND
  6
CONTINUOUS
 10
0.100000
 20
0.828333
  0
VERTEX
  8
FOREGROUND
  6
CONTINUOUS
 10
0.085000
 20
0.880000
  0
VERTEX
  8
FOREGROUND
  6
CONTINUOUS
 10
0.071667
 20
0.933333
  0
VERTEX
  8
FOREGROUND
  6
CONTINUOUS
 10
0.063333
 20
0.988333
  0
VERTEX
  8
FOREGROUND
  6
CONTINUOUS
 10
0.055000
 20
1.043333
  0
VERTEX
  8
FOREGROUND
  6
CONTINUOUS
 10
0.051667
 20
1.098333
  0
VERTEX
  8
FOREGROUND
  6
CONTINUOUS
 10
0.050000
 20
1.155000
  0
VERTEX
  8
FOREGROUND
  6
CONTINUOUS
 10
0.050000
 20
4.450000
  0
VERTEX
  8
FOREGROUND
  6
CONTINUOUS
 10
0.051667
 20
4.506667
  0
VERTEX
  8
FOREGROUND
  6
CONTINUOUS
 10
0.055000
 20
4.561667
  0
VERTEX
  8
FOREGROUND
  6
CONTINUOUS
 10
0.063333
 20
4.616667
  0
VERTEX
  8
FOREGROUND
  6
CONTINUOUS
 10
0.071667
 20
4.671667
  0
VERTEX
  8
FOREGROUND
  6
CONTINUOUS
 10
0.085000
 20
4.723333
  0
VERTEX
  8
FOREGROUND
  6
CONTINUOUS
 10
0.100000
 20
4.776667
  0
VERTEX
  8
FOREGROUND
  6
CONTINUOUS
 10
0.116667
 20
4.826667
  0
VERTEX
  8
FOREGROUND
  6
CONTINUOUS
 10
0.136667
 20
4.876667
  0
VERTEX
  8
FOREGROUND
  6
CONTINUOUS
 10
0.158333
 20
4.925000
  0
VERTEX
  8
FOREGROUND
  6
CONTINUOUS
 10
0.183333
 20
4.973333
  0
VERTEX
  8
FOREGROUND
  6
CONTINUOUS
 10
0.208333
 20
5.018333
  0
VERTEX
  8
FOREGROUND
  6
CONTINUOUS
 10
0.236667
 20
5.063333
  0
VERTEX
  8
FOREGROUND
  6
CONTINUOUS
 10
0.268333
 20
5.106667
  0
VERTEX
  8
FOREGROUND
  6
CONTINUOUS
 10
0.300000
 20
5.146667
  0
VERTEX
  8
FOREGROUND
  6
CONTINUOUS
 10
0.335000
 20
5.186667
  0
VERTEX
  8
FOREGROUND
  6
CONTINUOUS
 10
0.371667
 20
5.225000
  0
VERTEX
  8
FOREGROUND
  6
CONTINUOUS
 10
0.410000
 20
5.261667
  0
VERTEX
  8
FOREGROUND
  6
CONTINUOUS
 10
0.450000
 20
5.296667
  0
VERTEX
  8
FOREGROUND
  6
CONTINUOUS
 10
0.490000
 20
5.328333
  0
VERTEX
  8
FOREGROUND
  6
CONTINUOUS
 10
0.533333
 20
5.360000
  0
VERTEX
  8
FOREGROUND
  6
CONTINUOUS
 10
0.578333
 20
5.388333
  0
VERTEX
  8
FOREGROUND
  6
CONTINUOUS
 10
0.623333
 20
5.413333
  0
VERTEX
  8
FOREGROUND
  6
CONTINUOUS
 10
0.671667
 20
5.438333
  0
VERTEX
  8
FOREGROUND
  6
CONTINUOUS
 10
0.720000
 20
5.460000
  0
VERTEX
  8
FOREGROUND
  6
CONTINUOUS
 10
0.770000
 20
5.480000
  0
VERTEX
  8
FOREGROUND
  6
CONTINUOUS
 10
0.820000
 20
5.496667
  0
VERTEX
  8
FOREGROUND
  6
CONTINUOUS
 10
0.873333
 20
5.511667
  0
VERTEX
  8
FOREGROUND
  6
CONTINUOUS
 10
0.925000
 20
5.525000
  0
VERTEX
  8
FOREGROUND
  6
CONTINUOUS
 10
0.980000
 20
5.533333
  0
VERTEX
  8
FOREGROUND
  6
CONTINUOUS
 10
1.035000
 20
5.541667
  0
VERTEX
  8
FOREGROUND
  6
CONTINUOUS
 10
1.090000
 20
5.545000
  0
SEQEND
  8
0
  0
ENDSEC
  0
EOF
