  0
SECTION
  2
HEADER
  9
$ACADVER
  1
AC1006
  9
$EXTMIN
 10
0.000000
 20
0.000000
  9
$EXTMAX
 10
5.710000
 20
4.550000
  9
$LTSCALE
 40
0.166667
  9
$PDMODE
 70
    35
  9
$PDSIZE
 40
0.133333
  0
ENDSEC
  0
SECTION
  2
TABLES
  0
TABLE
  2
LTYPE
 70
     9
  0
LTYPE
  2
CONTINUOUS
 70
    64
  3
Solid line
 72
    65
 73
     0
 40
0.000000
  0
LTYPE
  2
DASHED
 70
    64
  3
__ __ __ __ __ __ __ __ __ __ __ __ __ __ __
 72
    65
 73
     2
 40
0.001250
 49
0.000833
 49
-0.000417
  0
LTYPE
  2
HIDDEN
 70
    64
  3
 _ _ _ _ _ _ _ _ _ _ _ _ _ _ _ _ _ _ _ _ _ _
 72
    65
 73
     2
 40
0.000625
 49
0.000417
 49
-0.000208
  0
LTYPE
  2
CENTER
 70
    64
  3
____ _ ____ _ ____ _ ____ _ ____ _ ____ _ ____
 72
    65
 73
     4
 40
0.003333
 49
0.002083
 49
-0.000417
 49
0.000417
 49
-0.000417
  0
LTYPE
  2
PHANTOM
 70
    64
  3
_____ _ _ _____ _ _ _____ _ _ _____ _ _ ____
 72
    65
 73
     6
 40
0.004167
 49
0.002083
 49
-0.000417
 49
0.000417
 49
-0.000417
 49
0.000417
 49
-0.000417
  0
LTYPE
  2
DOT
 70
    64
  3
...............................................
 72
    65
 73
     2
 40
0.000417
 49
0.000000
 49
-0.000417
  0
LTYPE
  2
DASHDOT
 70
    64
  3
__ . __ . __ . __ . __ . __ . __ . __ . __ . __
 72
    65
 73
     4
 40
0.001667
 49
0.000833
 49
-0.000417
 49
0.000000
 49
-0.000417
  0
LTYPE
  2
BORDER
 70
    64
  3
__ __ . __ __ . __ __ . __ __ . __ __ . __ __
 72
    65
 73
     6
 40
0.002917
 49
0.000833
 49
-0.000417
 49
0.000833
 49
-0.000417
 49
0.000000
 49
-0.000417
  0
LTYPE
  2
DIVIDE
 70
    64
  3
__ . . __ . . __ . . __ . . __ . . __ . . __
 72
    65
 73
     6
 40
0.002083
 49
0.000833
 49
-0.000417
 49
0.000000
 49
-0.000417
 49
0.000000
 49
-0.000417
  0
LTYPE
  2
DOTDOT
 70
    64
  3
 . .  . .  . .  . .  . .  . . 
 72
    65
 73
     5
 40
0.000917
 49
-0.000417
 49
0.000000
 49
-0.000417
 49
0.000000
 49
-0.000417
  0
ENDTAB
  0
TABLE
  2
STYLE
 70
     2
  0
STYLE
 70
     0
  2
SN0
 40
0.000000
 41
0.001667
 50
0.000000
 71
     0
 42
0.000000
  3
ROMAND
  0
STYLE
 70
    68
  2
SV0
 40
0.000000
 41
0.001667
 50
0.000000
 71
     0
 42
0.000000
  3
ROMAND
  0
ENDTAB
  0
TABLE
  2
LAYER
 70
     2
  0
LAYER
  2
FOREGROUND
 70
    64
 62
     7
  6
CONTINUOUS
  0
LAYER
  2
BACKGROUND
 70
    65
 62
    -7
  6
CONTINUOUS
  0
ENDTAB
  0
ENDSEC
  0
SECTION
  2
ENTITIES
  0
POLYLINE
  8
FOREGROUND
 62
     7
  6
CONTINUOUS
 66
     1
 40
0.000000
 41
0.000000
 70
     1
  0
VERTEX
  8
FOREGROUND
 62
     7
  6
CONTINUOUS
 10
0.915000
 20
4.391667
  0
VERTEX
  8
FOREGROUND
 62
     7
  6
CONTINUOUS
 10
4.676667
 20
4.391667
  0
VERTEX
  8
FOREGROUND
 62
     7
  6
CONTINUOUS
 10
4.721667
 20
4.390000
  0
VERTEX
  8
FOREGROUND
 62
     7
  6
CONTINUOUS
 10
4.765000
 20
4.386667
  0
VERTEX
  8
FOREGROUND
 62
     7
  6
CONTINUOUS
 10
4.808333
 20
4.381667
  0
VERTEX
  8
FOREGROUND
 62
     7
  6
CONTINUOUS
 10
4.851667
 20
4.373333
  0
VERTEX
  8
FOREGROUND
 62
     7
  6
CONTINUOUS
 10
4.893333
 20
4.365000
  0
VERTEX
  8
FOREGROUND
 62
     7
  6
CONTINUOUS
 10
4.933333
 20
4.353333
  0
VERTEX
  8
FOREGROUND
 62
     7
  6
CONTINUOUS
 10
4.975000
 20
4.338333
  0
VERTEX
  8
FOREGROUND
 62
     7
  6
CONTINUOUS
 10
5.013333
 20
4.323333
  0
VERTEX
  8
FOREGROUND
 62
     7
  6
CONTINUOUS
 10
5.051667
 20
4.306667
  0
VERTEX
  8
FOREGROUND
 62
     7
  6
CONTINUOUS
 10
5.090000
 20
4.286667
  0
VERTEX
  8
FOREGROUND
 62
     7
  6
CONTINUOUS
 10
5.125000
 20
4.266667
  0
VERTEX
  8
FOREGROUND
 62
     7
  6
CONTINUOUS
 10
5.160000
 20
4.243333
  0
VERTEX
  8
FOREGROUND
 62
     7
  6
CONTINUOUS
 10
5.226667
 20
4.193333
  0
VERTEX
  8
FOREGROUND
 62
     7
  6
CONTINUOUS
 10
5.288333
 20
4.138333
  0
VERTEX
  8
FOREGROUND
 62
     7
  6
CONTINUOUS
 10
5.345000
 20
4.076667
  0
VERTEX
  8
FOREGROUND
 62
     7
  6
CONTINUOUS
 10
5.393333
 20
4.010000
  0
VERTEX
  8
FOREGROUND
 62
     7
  6
CONTINUOUS
 10
5.416667
 20
3.975000
  0
VERTEX
  8
FOREGROUND
 62
     7
  6
CONTINUOUS
 10
5.436667
 20
3.938333
  0
VERTEX
  8
FOREGROUND
 62
     7
  6
CONTINUOUS
 10
5.456667
 20
3.901667
  0
VERTEX
  8
FOREGROUND
 62
     7
  6
CONTINUOUS
 10
5.473333
 20
3.863333
  0
VERTEX
  8
FOREGROUND
 62
     7
  6
CONTINUOUS
 10
5.490000
 20
3.823333
  0
VERTEX
  8
FOREGROUND
 62
     7
  6
CONTINUOUS
 10
5.503333
 20
3.783333
  0
VERTEX
  8
FOREGROUND
 62
     7
  6
CONTINUOUS
 10
5.515000
 20
3.743333
  0
VERTEX
  8
FOREGROUND
 62
     7
  6
CONTINUOUS
 10
5.525000
 20
3.700000
  0
VERTEX
  8
FOREGROUND
 62
     7
  6
CONTINUOUS
 10
5.531667
 20
3.658333
  0
VERTEX
  8
FOREGROUND
 62
     7
  6
CONTINUOUS
 10
5.536667
 20
3.615000
  0
VERTEX
  8
FOREGROUND
 62
     7
  6
CONTINUOUS
 10
5.540000
 20
3.571667
  0
VERTEX
  8
FOREGROUND
 62
     7
  6
CONTINUOUS
 10
5.541667
 20
3.526667
  0
VERTEX
  8
FOREGROUND
 62
     7
  6
CONTINUOUS
 10
5.541667
 20
0.923333
  0
VERTEX
  8
FOREGROUND
 62
     7
  6
CONTINUOUS
 10
5.540000
 20
0.878333
  0
VERTEX
  8
FOREGROUND
 62
     7
  6
CONTINUOUS
 10
5.536667
 20
0.835000
  0
VERTEX
  8
FOREGROUND
 62
     7
  6
CONTINUOUS
 10
5.531667
 20
0.791667
  0
VERTEX
  8
FOREGROUND
 62
     7
  6
CONTINUOUS
 10
5.525000
 20
0.748333
  0
VERTEX
  8
FOREGROUND
 62
     7
  6
CONTINUOUS
 10
5.515000
 20
0.706667
  0
VERTEX
  8
FOREGROUND
 62
     7
  6
CONTINUOUS
 10
5.503333
 20
0.666667
  0
VERTEX
  8
FOREGROUND
 62
     7
  6
CONTINUOUS
 10
5.490000
 20
0.625000
  0
VERTEX
  8
FOREGROUND
 62
     7
  6
CONTINUOUS
 10
5.473333
 20
0.586667
  0
VERTEX
  8
FOREGROUND
 62
     7
  6
CONTINUOUS
 10
5.456667
 20
0.548333
  0
VERTEX
  8
FOREGROUND
 62
     7
  6
CONTINUOUS
 10
5.436667
 20
0.510000
  0
VERTEX
  8
FOREGROUND
 62
     7
  6
CONTINUOUS
 10
5.416667
 20
0.475000
  0
VERTEX
  8
FOREGROUND
 62
     7
  6
CONTINUOUS
 10
5.393333
 20
0.440000
  0
VERTEX
  8
FOREGROUND
 62
     7
  6
CONTINUOUS
 10
5.345000
 20
0.373333
  0
VERTEX
  8
FOREGROUND
 62
     7
  6
CONTINUOUS
 10
5.288333
 20
0.311667
  0
VERTEX
  8
FOREGROUND
 62
     7
  6
CONTINUOUS
 10
5.226667
 20
0.255000
  0
VERTEX
  8
FOREGROUND
 62
     7
  6
CONTINUOUS
 10
5.160000
 20
0.206667
  0
VERTEX
  8
FOREGROUND
 62
     7
  6
CONTINUOUS
 10
5.125000
 20
0.183333
  0
VERTEX
  8
FOREGROUND
 62
     7
  6
CONTINUOUS
 10
5.090000
 20
0.163333
  0
VERTEX
  8
FOREGROUND
 62
     7
  6
CONTINUOUS
 10
5.051667
 20
0.143333
  0
VERTEX
  8
FOREGROUND
 62
     7
  6
CONTINUOUS
 10
5.013333
 20
0.126667
  0
VERTEX
  8
FOREGROUND
 62
     7
  6
CONTINUOUS
 10
4.975000
 20
0.110000
  0
VERTEX
  8
FOREGROUND
 62
     7
  6
CONTINUOUS
 10
4.933333
 20
0.096667
  0
VERTEX
  8
FOREGROUND
 62
     7
  6
CONTINUOUS
 10
4.893333
 20
0.085000
  0
VERTEX
  8
FOREGROUND
 62
     7
  6
CONTINUOUS
 10
4.851667
 20
0.075000
  0
VERTEX
  8
FOREGROUND
 62
     7
  6
CONTINUOUS
 10
4.808333
 20
0.068333
  0
VERTEX
  8
FOREGROUND
 62
     7
  6
CONTINUOUS
 10
4.765000
 20
0.063333
  0
VERTEX
  8
FOREGROUND
 62
     7
  6
CONTINUOUS
 10
4.721667
 20
0.060000
  0
VERTEX
  8
FOREGROUND
 62
     7
  6
CONTINUOUS
 10
4.676667
 20
0.058333
  0
VERTEX
  8
FOREGROUND
 62
     7
  6
CONTINUOUS
 10
0.915000
 20
0.058333
  0
VERTEX
  8
FOREGROUND
 62
     7
  6
CONTINUOUS
 10
0.870000
 20
0.060000
  0
VERTEX
  8
FOREGROUND
 62
     7
  6
CONTINUOUS
 10
0.826667
 20
0.063333
  0
VERTEX
  8
FOREGROUND
 62
     7
  6
CONTINUOUS
 10
0.783333
 20
0.068333
  0
VERTEX
  8
FOREGROUND
 62
     7
  6
CONTINUOUS
 10
0.741667
 20
0.075000
  0
VERTEX
  8
FOREGROUND
 62
     7
  6
CONTINUOUS
 10
0.698333
 20
0.085000
  0
VERTEX
  8
FOREGROUND
 62
     7
  6
CONTINUOUS
 10
0.658333
 20
0.096667
  0
VERTEX
  8
FOREGROUND
 62
     7
  6
CONTINUOUS
 10
0.618333
 20
0.110000
  0
VERTEX
  8
FOREGROUND
 62
     7
  6
CONTINUOUS
 10
0.578333
 20
0.126667
  0
VERTEX
  8
FOREGROUND
 62
     7
  6
CONTINUOUS
 10
0.540000
 20
0.143333
  0
VERTEX
  8
FOREGROUND
 62
     7
  6
CONTINUOUS
 10
0.503333
 20
0.163333
  0
VERTEX
  8
FOREGROUND
 62
     7
  6
CONTINUOUS
 10
0.466667
 20
0.183333
  0
VERTEX
  8
FOREGROUND
 62
     7
  6
CONTINUOUS
 10
0.431667
 20
0.206667
  0
VERTEX
  8
FOREGROUND
 62
     7
  6
CONTINUOUS
 10
0.365000
 20
0.255000
  0
VERTEX
  8
FOREGROUND
 62
     7
  6
CONTINUOUS
 10
0.303333
 20
0.311667
  0
VERTEX
  8
FOREGROUND
 62
     7
  6
CONTINUOUS
 10
0.248333
 20
0.373333
  0
VERTEX
  8
FOREGROUND
 62
     7
  6
CONTINUOUS
 10
0.198333
 20
0.440000
  0
VERTEX
  8
FOREGROUND
 62
     7
  6
CONTINUOUS
 10
0.175000
 20
0.475000
  0
VERTEX
  8
FOREGROUND
 62
     7
  6
CONTINUOUS
 10
0.155000
 20
0.510000
  0
VERTEX
  8
FOREGROUND
 62
     7
  6
CONTINUOUS
 10
0.135000
 20
0.548333
  0
VERTEX
  8
FOREGROUND
 62
     7
  6
CONTINUOUS
 10
0.118333
 20
0.586667
  0
VERTEX
  8
FOREGROUND
 62
     7
  6
CONTINUOUS
 10
0.103333
 20
0.625000
  0
VERTEX
  8
FOREGROUND
 62
     7
  6
CONTINUOUS
 10
0.088333
 20
0.666667
  0
VERTEX
  8
FOREGROUND
 62
     7
  6
CONTINUOUS
 10
0.076667
 20
0.706667
  0
VERTEX
  8
FOREGROUND
 62
     7
  6
CONTINUOUS
 10
0.068333
 20
0.748333
  0
VERTEX
  8
FOREGROUND
 62
     7
  6
CONTINUOUS
 10
0.060000
 20
0.791667
  0
VERTEX
  8
FOREGROUND
 62
     7
  6
CONTINUOUS
 10
0.055000
 20
0.835000
  0
VERTEX
  8
FOREGROUND
 62
     7
  6
CONTINUOUS
 10
0.051667
 20
0.878333
  0
VERTEX
  8
FOREGROUND
 62
     7
  6
CONTINUOUS
 10
0.050000
 20
0.923333
  0
VERTEX
  8
FOREGROUND
 62
     7
  6
CONTINUOUS
 10
0.050000
 20
3.526667
  0
VERTEX
  8
FOREGROUND
 62
     7
  6
CONTINUOUS
 10
0.051667
 20
3.571667
  0
VERTEX
  8
FOREGROUND
 62
     7
  6
CONTINUOUS
 10
0.055000
 20
3.615000
  0
VERTEX
  8
FOREGROUND
 62
     7
  6
CONTINUOUS
 10
0.060000
 20
3.658333
  0
VERTEX
  8
FOREGROUND
 62
     7
  6
CONTINUOUS
 10
0.068333
 20
3.700000
  0
VERTEX
  8
FOREGROUND
 62
     7
  6
CONTINUOUS
 10
0.076667
 20
3.743333
  0
VERTEX
  8
FOREGROUND
 62
     7
  6
CONTINUOUS
 10
0.088333
 20
3.783333
  0
VERTEX
  8
FOREGROUND
 62
     7
  6
CONTINUOUS
 10
0.103333
 20
3.823333
  0
VERTEX
  8
FOREGROUND
 62
     7
  6
CONTINUOUS
 10
0.118333
 20
3.863333
  0
VERTEX
  8
FOREGROUND
 62
     7
  6
CONTINUOUS
 10
0.135000
 20
3.901667
  0
VERTEX
  8
FOREGROUND
 62
     7
  6
CONTINUOUS
 10
0.155000
 20
3.938333
  0
VERTEX
  8
FOREGROUND
 62
     7
  6
CONTINUOUS
 10
0.175000
 20
3.975000
  0
VERTEX
  8
FOREGROUND
 62
     7
  6
CONTINUOUS
 10
0.198333
 20
4.010000
  0
VERTEX
  8
FOREGROUND
 62
     7
  6
CONTINUOUS
 10
0.248333
 20
4.076667
  0
VERTEX
  8
FOREGROUND
 62
     7
  6
CONTINUOUS
 10
0.303333
 20
4.138333
  0
VERTEX
  8
FOREGROUND
 62
     7
  6
CONTINUOUS
 10
0.365000
 20
4.193333
  0
VERTEX
  8
FOREGROUND
 62
     7
  6
CONTINUOUS
 10
0.431667
 20
4.243333
  0
VERTEX
  8
FOREGROUND
 62
     7
  6
CONTINUOUS
 10
0.466667
 20
4.266667
  0
VERTEX
  8
FOREGROUND
 62
     7
  6
CONTINUOUS
 10
0.503333
 20
4.286667
  0
VERTEX
  8
FOREGROUND
 62
     7
  6
CONTINUOUS
 10
0.540000
 20
4.306667
  0
VERTEX
  8
FOREGROUND
 62
     7
  6
CONTINUOUS
 10
0.578333
 20
4.323333
  0
VERTEX
  8
FOREGROUND
 62
     7
  6
CONTINUOUS
 10
0.618333
 20
4.338333
  0
VERTEX
  8
FOREGROUND
 62
     7
  6
CONTINUOUS
 10
0.658333
 20
4.353333
  0
VERTEX
  8
FOREGROUND
 62
     7
  6
CONTINUOUS
 10
0.698333
 20
4.365000
  0
VERTEX
  8
FOREGROUND
 62
     7
  6
CONTINUOUS
 10
0.741667
 20
4.373333
  0
VERTEX
  8
FOREGROUND
 62
     7
  6
CONTINUOUS
 10
0.783333
 20
4.381667
  0
VERTEX
  8
FOREGROUND
 62
     7
  6
CONTINUOUS
 10
0.826667
 20
4.386667
  0
VERTEX
  8
FOREGROUND
 62
     7
  6
CONTINUOUS
 10
0.870000
 20
4.390000
  0
SEQEND
  8
0
  0
POLYLINE
  8
FOREGROUND
  6
CONTINUOUS
 66
     1
 40
0.010000
 41
0.010000
 70
     1
  0
VERTEX
  8
FOREGROUND
  6
CONTINUOUS
 10
0.915000
 20
4.391667
  0
VERTEX
  8
FOREGROUND
  6
CONTINUOUS
 10
4.676667
 20
4.391667
  0
VERTEX
  8
FOREGROUND
  6
CONTINUOUS
 10
4.721667
 20
4.390000
  0
VERTEX
  8
FOREGROUND
  6
CONTINUOUS
 10
4.765000
 20
4.386667
  0
VERTEX
  8
FOREGROUND
  6
CONTINUOUS
 10
4.808333
 20
4.381667
  0
VERTEX
  8
FOREGROUND
  6
CONTINUOUS
 10
4.851667
 20
4.373333
  0
VERTEX
  8
FOREGROUND
  6
CONTINUOUS
 10
4.893333
 20
4.365000
  0
VERTEX
  8
FOREGROUND
  6
CONTINUOUS
 10
4.933333
 20
4.353333
  0
VERTEX
  8
FOREGROUND
  6
CONTINUOUS
 10
4.975000
 20
4.338333
  0
VERTEX
  8
FOREGROUND
  6
CONTINUOUS
 10
5.013333
 20
4.323333
  0
VERTEX
  8
FOREGROUND
  6
CONTINUOUS
 10
5.051667
 20
4.306667
  0
VERTEX
  8
FOREGROUND
  6
CONTINUOUS
 10
5.090000
 20
4.286667
  0
VERTEX
  8
FOREGROUND
  6
CONTINUOUS
 10
5.125000
 20
4.266667
  0
VERTEX
  8
FOREGROUND
  6
CONTINUOUS
 10
5.160000
 20
4.243333
  0
VERTEX
  8
FOREGROUND
  6
CONTINUOUS
 10
5.226667
 20
4.193333
  0
VERTEX
  8
FOREGROUND
  6
CONTINUOUS
 10
5.288333
 20
4.138333
  0
VERTEX
  8
FOREGROUND
  6
CONTINUOUS
 10
5.345000
 20
4.076667
  0
VERTEX
  8
FOREGROUND
  6
CONTINUOUS
 10
5.393333
 20
4.010000
  0
VERTEX
  8
FOREGROUND
  6
CONTINUOUS
 10
5.416667
 20
3.975000
  0
VERTEX
  8
FOREGROUND
  6
CONTINUOUS
 10
5.436667
 20
3.938333
  0
VERTEX
  8
FOREGROUND
  6
CONTINUOUS
 10
5.456667
 20
3.901667
  0
VERTEX
  8
FOREGROUND
  6
CONTINUOUS
 10
5.473333
 20
3.863333
  0
VERTEX
  8
FOREGROUND
  6
CONTINUOUS
 10
5.490000
 20
3.823333
  0
VERTEX
  8
FOREGROUND
  6
CONTINUOUS
 10
5.503333
 20
3.783333
  0
VERTEX
  8
FOREGROUND
  6
CONTINUOUS
 10
5.515000
 20
3.743333
  0
VERTEX
  8
FOREGROUND
  6
CONTINUOUS
 10
5.525000
 20
3.700000
  0
VERTEX
  8
FOREGROUND
  6
CONTINUOUS
 10
5.531667
 20
3.658333
  0
VERTEX
  8
FOREGROUND
  6
CONTINUOUS
 10
5.536667
 20
3.615000
  0
VERTEX
  8
FOREGROUND
  6
CONTINUOUS
 10
5.540000
 20
3.571667
  0
VERTEX
  8
FOREGROUND
  6
CONTINUOUS
 10
5.541667
 20
3.526667
  0
VERTEX
  8
FOREGROUND
  6
CONTINUOUS
 10
5.541667
 20
0.923333
  0
VERTEX
  8
FOREGROUND
  6
CONTINUOUS
 10
5.540000
 20
0.878333
  0
VERTEX
  8
FOREGROUND
  6
CONTINUOUS
 10
5.536667
 20
0.835000
  0
VERTEX
  8
FOREGROUND
  6
CONTINUOUS
 10
5.531667
 20
0.791667
  0
VERTEX
  8
FOREGROUND
  6
CONTINUOUS
 10
5.525000
 20
0.748333
  0
VERTEX
  8
FOREGROUND
  6
CONTINUOUS
 10
5.515000
 20
0.706667
  0
VERTEX
  8
FOREGROUND
  6
CONTINUOUS
 10
5.503333
 20
0.666667
  0
VERTEX
  8
FOREGROUND
  6
CONTINUOUS
 10
5.490000
 20
0.625000
  0
VERTEX
  8
FOREGROUND
  6
CONTINUOUS
 10
5.473333
 20
0.586667
  0
VERTEX
  8
FOREGROUND
  6
CONTINUOUS
 10
5.456667
 20
0.548333
  0
VERTEX
  8
FOREGROUND
  6
CONTINUOUS
 10
5.436667
 20
0.510000
  0
VERTEX
  8
FOREGROUND
  6
CONTINUOUS
 10
5.416667
 20
0.475000
  0
VERTEX
  8
FOREGROUND
  6
CONTINUOUS
 10
5.393333
 20
0.440000
  0
VERTEX
  8
FOREGROUND
  6
CONTINUOUS
 10
5.345000
 20
0.373333
  0
VERTEX
  8
FOREGROUND
  6
CONTINUOUS
 10
5.288333
 20
0.311667
  0
VERTEX
  8
FOREGROUND
  6
CONTINUOUS
 10
5.226667
 20
0.255000
  0
VERTEX
  8
FOREGROUND
  6
CONTINUOUS
 10
5.160000
 20
0.206667
  0
VERTEX
  8
FOREGROUND
  6
CONTINUOUS
 10
5.125000
 20
0.183333
  0
VERTEX
  8
FOREGROUND
  6
CONTINUOUS
 10
5.090000
 20
0.163333
  0
VERTEX
  8
FOREGROUND
  6
CONTINUOUS
 10
5.051667
 20
0.143333
  0
VERTEX
  8
FOREGROUND
  6
CONTINUOUS
 10
5.013333
 20
0.126667
  0
VERTEX
  8
FOREGROUND
  6
CONTINUOUS
 10
4.975000
 20
0.110000
  0
VERTEX
  8
FOREGROUND
  6
CONTINUOUS
 10
4.933333
 20
0.096667
  0
VERTEX
  8
FOREGROUND
  6
CONTINUOUS
 10
4.893333
 20
0.085000
  0
VERTEX
  8
FOREGROUND
  6
CONTINUOUS
 10
4.851667
 20
0.075000
  0
VERTEX
  8
FOREGROUND
  6
CONTINUOUS
 10
4.808333
 20
0.068333
  0
VERTEX
  8
FOREGROUND
  6
CONTINUOUS
 10
4.765000
 20
0.063333
  0
VERTEX
  8
FOREGROUND
  6
CONTINUOUS
 10
4.721667
 20
0.060000
  0
VERTEX
  8
FOREGROUND
  6
CONTINUOUS
 10
4.676667
 20
0.058333
  0
VERTEX
  8
FOREGROUND
  6
CONTINUOUS
 10
0.915000
 20
0.058333
  0
VERTEX
  8
FOREGROUND
  6
CONTINUOUS
 10
0.870000
 20
0.060000
  0
VERTEX
  8
FOREGROUND
  6
CONTINUOUS
 10
0.826667
 20
0.063333
  0
VERTEX
  8
FOREGROUND
  6
CONTINUOUS
 10
0.783333
 20
0.068333
  0
VERTEX
  8
FOREGROUND
  6
CONTINUOUS
 10
0.741667
 20
0.075000
  0
VERTEX
  8
FOREGROUND
  6
CONTINUOUS
 10
0.698333
 20
0.085000
  0
VERTEX
  8
FOREGROUND
  6
CONTINUOUS
 10
0.658333
 20
0.096667
  0
VERTEX
  8
FOREGROUND
  6
CONTINUOUS
 10
0.618333
 20
0.110000
  0
VERTEX
  8
FOREGROUND
  6
CONTINUOUS
 10
0.578333
 20
0.126667
  0
VERTEX
  8
FOREGROUND
  6
CONTINUOUS
 10
0.540000
 20
0.143333
  0
VERTEX
  8
FOREGROUND
  6
CONTINUOUS
 10
0.503333
 20
0.163333
  0
VERTEX
  8
FOREGROUND
  6
CONTINUOUS
 10
0.466667
 20
0.183333
  0
VERTEX
  8
FOREGROUND
  6
CONTINUOUS
 10
0.431667
 20
0.206667
  0
VERTEX
  8
FOREGROUND
  6
CONTINUOUS
 10
0.365000
 20
0.255000
  0
VERTEX
  8
FOREGROUND
  6
CONTINUOUS
 10
0.303333
 20
0.311667
  0
VERTEX
  8
FOREGROUND
  6
CONTINUOUS
 10
0.248333
 20
0.373333
  0
VERTEX
  8
FOREGROUND
  6
CONTINUOUS
 10
0.198333
 20
0.440000
  0
VERTEX
  8
FOREGROUND
  6
CONTINUOUS
 10
0.175000
 20
0.475000
  0
VERTEX
  8
FOREGROUND
  6
CONTINUOUS
 10
0.155000
 20
0.510000
  0
VERTEX
  8
FOREGROUND
  6
CONTINUOUS
 10
0.135000
 20
0.548333
  0
VERTEX
  8
FOREGROUND
  6
CONTINUOUS
 10
0.118333
 20
0.586667
  0
VERTEX
  8
FOREGROUND
  6
CONTINUOUS
 10
0.103333
 20
0.625000
  0
VERTEX
  8
FOREGROUND
  6
CONTINUOUS
 10
0.088333
 20
0.666667
  0
VERTEX
  8
FOREGROUND
  6
CONTINUOUS
 10
0.076667
 20
0.706667
  0
VERTEX
  8
FOREGROUND
  6
CONTINUOUS
 10
0.068333
 20
0.748333
  0
VERTEX
  8
FOREGROUND
  6
CONTINUOUS
 10
0.060000
 20
0.791667
  0
VERTEX
  8
FOREGROUND
  6
CONTINUOUS
 10
0.055000
 20
0.835000
  0
VERTEX
  8
FOREGROUND
  6
CONTINUOUS
 10
0.051667
 20
0.878333
  0
VERTEX
  8
FOREGROUND
  6
CONTINUOUS
 10
0.050000
 20
0.923333
  0
VERTEX
  8
FOREGROUND
  6
CONTINUOUS
 10
0.050000
 20
3.526667
  0
VERTEX
  8
FOREGROUND
  6
CONTINUOUS
 10
0.051667
 20
3.571667
  0
VERTEX
  8
FOREGROUND
  6
CONTINUOUS
 10
0.055000
 20
3.615000
  0
VERTEX
  8
FOREGROUND
  6
CONTINUOUS
 10
0.060000
 20
3.658333
  0
VERTEX
  8
FOREGROUND
  6
CONTINUOUS
 10
0.068333
 20
3.700000
  0
VERTEX
  8
FOREGROUND
  6
CONTINUOUS
 10
0.076667
 20
3.743333
  0
VERTEX
  8
FOREGROUND
  6
CONTINUOUS
 10
0.088333
 20
3.783333
  0
VERTEX
  8
FOREGROUND
  6
CONTINUOUS
 10
0.103333
 20
3.823333
  0
VERTEX
  8
FOREGROUND
  6
CONTINUOUS
 10
0.118333
 20
3.863333
  0
VERTEX
  8
FOREGROUND
  6
CONTINUOUS
 10
0.135000
 20
3.901667
  0
VERTEX
  8
FOREGROUND
  6
CONTINUOUS
 10
0.155000
 20
3.938333
  0
VERTEX
  8
FOREGROUND
  6
CONTINUOUS
 10
0.175000
 20
3.975000
  0
VERTEX
  8
FOREGROUND
  6
CONTINUOUS
 10
0.198333
 20
4.010000
  0
VERTEX
  8
FOREGROUND
  6
CONTINUOUS
 10
0.248333
 20
4.076667
  0
VERTEX
  8
FOREGROUND
  6
CONTINUOUS
 10
0.303333
 20
4.138333
  0
VERTEX
  8
FOREGROUND
  6
CONTINUOUS
 10
0.365000
 20
4.193333
  0
VERTEX
  8
FOREGROUND
  6
CONTINUOUS
 10
0.431667
 20
4.243333
  0
VERTEX
  8
FOREGROUND
  6
CONTINUOUS
 10
0.466667
 20
4.266667
  0
VERTEX
  8
FOREGROUND
  6
CONTINUOUS
 10
0.503333
 20
4.286667
  0
VERTEX
  8
FOREGROUND
  6
CONTINUOUS
 10
0.540000
 20
4.306667
  0
VERTEX
  8
FOREGROUND
  6
CONTINUOUS
 10
0.578333
 20
4.323333
  0
VERTEX
  8
FOREGROUND
  6
CONTINUOUS
 10
0.618333
 20
4.338333
  0
VERTEX
  8
FOREGROUND
  6
CONTINUOUS
 10
0.658333
 20
4.353333
  0
VERTEX
  8
FOREGROUND
  6
CONTINUOUS
 10
0.698333
 20
4.365000
  0
VERTEX
  8
FOREGROUND
  6
CONTINUOUS
 10
0.741667
 20
4.373333
  0
VERTEX
  8
FOREGROUND
  6
CONTINUOUS
 10
0.783333
 20
4.381667
  0
VERTEX
  8
FOREGROUND
  6
CONTINUOUS
 10
0.826667
 20
4.386667
  0
VERTEX
  8
FOREGROUND
  6
CONTINUOUS
 10
0.870000
 20
4.390000
  0
SEQEND
  8
0
  0
ENDSEC
  0
EOF
