  0
SECTION
  2
HEADER
  9
$ACADVER
  1
AC1006
  9
$EXTMIN
 10
0.000000
 20
0.000000
  9
$EXTMAX
 10
6.128333
 20
6.098333
  9
$LTSCALE
 40
0.166667
  9
$PDMODE
 70
    35
  9
$PDSIZE
 40
0.133333
  0
ENDSEC
  0
SECTION
  2
TABLES
  0
TABLE
  2
LTYPE
 70
     9
  0
LTYPE
  2
CONTINUOUS
 70
    64
  3
Solid line
 72
    65
 73
     0
 40
0.000000
  0
LTYPE
  2
DASHED
 70
    64
  3
__ __ __ __ __ __ __ __ __ __ __ __ __ __ __
 72
    65
 73
     2
 40
0.001250
 49
0.000833
 49
-0.000417
  0
LTYPE
  2
HIDDEN
 70
    64
  3
 _ _ _ _ _ _ _ _ _ _ _ _ _ _ _ _ _ _ _ _ _ _
 72
    65
 73
     2
 40
0.000625
 49
0.000417
 49
-0.000208
  0
LTYPE
  2
CENTER
 70
    64
  3
____ _ ____ _ ____ _ ____ _ ____ _ ____ _ ____
 72
    65
 73
     4
 40
0.003333
 49
0.002083
 49
-0.000417
 49
0.000417
 49
-0.000417
  0
LTYPE
  2
PHANTOM
 70
    64
  3
_____ _ _ _____ _ _ _____ _ _ _____ _ _ ____
 72
    65
 73
     6
 40
0.004167
 49
0.002083
 49
-0.000417
 49
0.000417
 49
-0.000417
 49
0.000417
 49
-0.000417
  0
LTYPE
  2
DOT
 70
    64
  3
...............................................
 72
    65
 73
     2
 40
0.000417
 49
0.000000
 49
-0.000417
  0
LTYPE
  2
DASHDOT
 70
    64
  3
__ . __ . __ . __ . __ . __ . __ . __ . __ . __
 72
    65
 73
     4
 40
0.001667
 49
0.000833
 49
-0.000417
 49
0.000000
 49
-0.000417
  0
LTYPE
  2
BORDER
 70
    64
  3
__ __ . __ __ . __ __ . __ __ . __ __ . __ __
 72
    65
 73
     6
 40
0.002917
 49
0.000833
 49
-0.000417
 49
0.000833
 49
-0.000417
 49
0.000000
 49
-0.000417
  0
LTYPE
  2
DIVIDE
 70
    64
  3
__ . . __ . . __ . . __ . . __ . . __ . . __
 72
    65
 73
     6
 40
0.002083
 49
0.000833
 49
-0.000417
 49
0.000000
 49
-0.000417
 49
0.000000
 49
-0.000417
  0
LTYPE
  2
DOTDOT
 70
    64
  3
 . .  . .  . .  . .  . .  . . 
 72
    65
 73
     5
 40
0.000917
 49
-0.000417
 49
0.000000
 49
-0.000417
 49
0.000000
 49
-0.000417
  0
ENDTAB
  0
TABLE
  2
STYLE
 70
     2
  0
STYLE
 70
     0
  2
SN0
 40
0.000000
 41
0.001667
 50
0.000000
 71
     0
 42
0.000000
  3
ROMAND
  0
STYLE
 70
    68
  2
SV0
 40
0.000000
 41
0.001667
 50
0.000000
 71
     0
 42
0.000000
  3
ROMAND
  0
ENDTAB
  0
TABLE
  2
LAYER
 70
     2
  0
LAYER
  2
FOREGROUND
 70
    64
 62
     7
  6
CONTINUOUS
  0
LAYER
  2
BACKGROUND
 70
    65
 62
    -7
  6
CONTINUOUS
  0
ENDTAB
  0
ENDSEC
  0
SECTION
  2
ENTITIES
  0
POLYLINE
  8
FOREGROUND
 62
     7
  6
CONTINUOUS
 66
     1
 40
0.000000
 41
0.000000
 70
     1
  0
VERTEX
  8
FOREGROUND
 62
     7
  6
CONTINUOUS
 10
1.225000
 20
5.940000
  0
VERTEX
  8
FOREGROUND
 62
     7
  6
CONTINUOUS
 10
4.785000
 20
5.940000
  0
VERTEX
  8
FOREGROUND
 62
     7
  6
CONTINUOUS
 10
4.845000
 20
5.938333
  0
VERTEX
  8
FOREGROUND
 62
     7
  6
CONTINUOUS
 10
4.905000
 20
5.933333
  0
VERTEX
  8
FOREGROUND
 62
     7
  6
CONTINUOUS
 10
4.963333
 20
5.926667
  0
VERTEX
  8
FOREGROUND
 62
     7
  6
CONTINUOUS
 10
5.021667
 20
5.916667
  0
VERTEX
  8
FOREGROUND
 62
     7
  6
CONTINUOUS
 10
5.078333
 20
5.903333
  0
VERTEX
  8
FOREGROUND
 62
     7
  6
CONTINUOUS
 10
5.135000
 20
5.886667
  0
VERTEX
  8
FOREGROUND
 62
     7
  6
CONTINUOUS
 10
5.190000
 20
5.868333
  0
VERTEX
  8
FOREGROUND
 62
     7
  6
CONTINUOUS
 10
5.243333
 20
5.846667
  0
VERTEX
  8
FOREGROUND
 62
     7
  6
CONTINUOUS
 10
5.295000
 20
5.823333
  0
VERTEX
  8
FOREGROUND
 62
     7
  6
CONTINUOUS
 10
5.345000
 20
5.798333
  0
VERTEX
  8
FOREGROUND
 62
     7
  6
CONTINUOUS
 10
5.395000
 20
5.770000
  0
VERTEX
  8
FOREGROUND
 62
     7
  6
CONTINUOUS
 10
5.441667
 20
5.738333
  0
VERTEX
  8
FOREGROUND
 62
     7
  6
CONTINUOUS
 10
5.488333
 20
5.706667
  0
VERTEX
  8
FOREGROUND
 62
     7
  6
CONTINUOUS
 10
5.533333
 20
5.671667
  0
VERTEX
  8
FOREGROUND
 62
     7
  6
CONTINUOUS
 10
5.575000
 20
5.635000
  0
VERTEX
  8
FOREGROUND
 62
     7
  6
CONTINUOUS
 10
5.616667
 20
5.595000
  0
VERTEX
  8
FOREGROUND
 62
     7
  6
CONTINUOUS
 10
5.655000
 20
5.555000
  0
VERTEX
  8
FOREGROUND
 62
     7
  6
CONTINUOUS
 10
5.691667
 20
5.511667
  0
VERTEX
  8
FOREGROUND
 62
     7
  6
CONTINUOUS
 10
5.726667
 20
5.468333
  0
VERTEX
  8
FOREGROUND
 62
     7
  6
CONTINUOUS
 10
5.760000
 20
5.421667
  0
VERTEX
  8
FOREGROUND
 62
     7
  6
CONTINUOUS
 10
5.790000
 20
5.373333
  0
VERTEX
  8
FOREGROUND
 62
     7
  6
CONTINUOUS
 10
5.818333
 20
5.325000
  0
VERTEX
  8
FOREGROUND
 62
     7
  6
CONTINUOUS
 10
5.845000
 20
5.275000
  0
VERTEX
  8
FOREGROUND
 62
     7
  6
CONTINUOUS
 10
5.868333
 20
5.221667
  0
VERTEX
  8
FOREGROUND
 62
     7
  6
CONTINUOUS
 10
5.888333
 20
5.168333
  0
VERTEX
  8
FOREGROUND
 62
     7
  6
CONTINUOUS
 10
5.906667
 20
5.115000
  0
VERTEX
  8
FOREGROUND
 62
     7
  6
CONTINUOUS
 10
5.923333
 20
5.058333
  0
VERTEX
  8
FOREGROUND
 62
     7
  6
CONTINUOUS
 10
5.936667
 20
5.001667
  0
VERTEX
  8
FOREGROUND
 62
     7
  6
CONTINUOUS
 10
5.946667
 20
4.943333
  0
VERTEX
  8
FOREGROUND
 62
     7
  6
CONTINUOUS
 10
5.953333
 20
4.885000
  0
VERTEX
  8
FOREGROUND
 62
     7
  6
CONTINUOUS
 10
5.958333
 20
4.825000
  0
VERTEX
  8
FOREGROUND
 62
     7
  6
CONTINUOUS
 10
5.960000
 20
4.765000
  0
VERTEX
  8
FOREGROUND
 62
     7
  6
CONTINUOUS
 10
5.960000
 20
1.233333
  0
VERTEX
  8
FOREGROUND
 62
     7
  6
CONTINUOUS
 10
5.958333
 20
1.173333
  0
VERTEX
  8
FOREGROUND
 62
     7
  6
CONTINUOUS
 10
5.953333
 20
1.113333
  0
VERTEX
  8
FOREGROUND
 62
     7
  6
CONTINUOUS
 10
5.946667
 20
1.055000
  0
VERTEX
  8
FOREGROUND
 62
     7
  6
CONTINUOUS
 10
5.936667
 20
0.996667
  0
VERTEX
  8
FOREGROUND
 62
     7
  6
CONTINUOUS
 10
5.923333
 20
0.940000
  0
VERTEX
  8
FOREGROUND
 62
     7
  6
CONTINUOUS
 10
5.906667
 20
0.883333
  0
VERTEX
  8
FOREGROUND
 62
     7
  6
CONTINUOUS
 10
5.888333
 20
0.828333
  0
VERTEX
  8
FOREGROUND
 62
     7
  6
CONTINUOUS
 10
5.868333
 20
0.775000
  0
VERTEX
  8
FOREGROUND
 62
     7
  6
CONTINUOUS
 10
5.845000
 20
0.723333
  0
VERTEX
  8
FOREGROUND
 62
     7
  6
CONTINUOUS
 10
5.818333
 20
0.673333
  0
VERTEX
  8
FOREGROUND
 62
     7
  6
CONTINUOUS
 10
5.790000
 20
0.623333
  0
VERTEX
  8
FOREGROUND
 62
     7
  6
CONTINUOUS
 10
5.760000
 20
0.576667
  0
VERTEX
  8
FOREGROUND
 62
     7
  6
CONTINUOUS
 10
5.726667
 20
0.530000
  0
VERTEX
  8
FOREGROUND
 62
     7
  6
CONTINUOUS
 10
5.691667
 20
0.485000
  0
VERTEX
  8
FOREGROUND
 62
     7
  6
CONTINUOUS
 10
5.655000
 20
0.443333
  0
VERTEX
  8
FOREGROUND
 62
     7
  6
CONTINUOUS
 10
5.616667
 20
0.401667
  0
VERTEX
  8
FOREGROUND
 62
     7
  6
CONTINUOUS
 10
5.575000
 20
0.363333
  0
VERTEX
  8
FOREGROUND
 62
     7
  6
CONTINUOUS
 10
5.533333
 20
0.326667
  0
VERTEX
  8
FOREGROUND
 62
     7
  6
CONTINUOUS
 10
5.488333
 20
0.291667
  0
VERTEX
  8
FOREGROUND
 62
     7
  6
CONTINUOUS
 10
5.441667
 20
0.258333
  0
VERTEX
  8
FOREGROUND
 62
     7
  6
CONTINUOUS
 10
5.395000
 20
0.228333
  0
VERTEX
  8
FOREGROUND
 62
     7
  6
CONTINUOUS
 10
5.345000
 20
0.200000
  0
VERTEX
  8
FOREGROUND
 62
     7
  6
CONTINUOUS
 10
5.295000
 20
0.173333
  0
VERTEX
  8
FOREGROUND
 62
     7
  6
CONTINUOUS
 10
5.243333
 20
0.150000
  0
VERTEX
  8
FOREGROUND
 62
     7
  6
CONTINUOUS
 10
5.190000
 20
0.130000
  0
VERTEX
  8
FOREGROUND
 62
     7
  6
CONTINUOUS
 10
5.135000
 20
0.111667
  0
VERTEX
  8
FOREGROUND
 62
     7
  6
CONTINUOUS
 10
5.078333
 20
0.095000
  0
VERTEX
  8
FOREGROUND
 62
     7
  6
CONTINUOUS
 10
5.021667
 20
0.081667
  0
VERTEX
  8
FOREGROUND
 62
     7
  6
CONTINUOUS
 10
4.963333
 20
0.071667
  0
VERTEX
  8
FOREGROUND
 62
     7
  6
CONTINUOUS
 10
4.905000
 20
0.065000
  0
VERTEX
  8
FOREGROUND
 62
     7
  6
CONTINUOUS
 10
4.845000
 20
0.060000
  0
VERTEX
  8
FOREGROUND
 62
     7
  6
CONTINUOUS
 10
4.785000
 20
0.058333
  0
VERTEX
  8
FOREGROUND
 62
     7
  6
CONTINUOUS
 10
1.225000
 20
0.058333
  0
VERTEX
  8
FOREGROUND
 62
     7
  6
CONTINUOUS
 10
1.165000
 20
0.060000
  0
VERTEX
  8
FOREGROUND
 62
     7
  6
CONTINUOUS
 10
1.105000
 20
0.065000
  0
VERTEX
  8
FOREGROUND
 62
     7
  6
CONTINUOUS
 10
1.046667
 20
0.071667
  0
VERTEX
  8
FOREGROUND
 62
     7
  6
CONTINUOUS
 10
0.988333
 20
0.081667
  0
VERTEX
  8
FOREGROUND
 62
     7
  6
CONTINUOUS
 10
0.931667
 20
0.095000
  0
VERTEX
  8
FOREGROUND
 62
     7
  6
CONTINUOUS
 10
0.875000
 20
0.111667
  0
VERTEX
  8
FOREGROUND
 62
     7
  6
CONTINUOUS
 10
0.821667
 20
0.130000
  0
VERTEX
  8
FOREGROUND
 62
     7
  6
CONTINUOUS
 10
0.768333
 20
0.150000
  0
VERTEX
  8
FOREGROUND
 62
     7
  6
CONTINUOUS
 10
0.715000
 20
0.173333
  0
VERTEX
  8
FOREGROUND
 62
     7
  6
CONTINUOUS
 10
0.665000
 20
0.200000
  0
VERTEX
  8
FOREGROUND
 62
     7
  6
CONTINUOUS
 10
0.616667
 20
0.228333
  0
VERTEX
  8
FOREGROUND
 62
     7
  6
CONTINUOUS
 10
0.568333
 20
0.258333
  0
VERTEX
  8
FOREGROUND
 62
     7
  6
CONTINUOUS
 10
0.521667
 20
0.291667
  0
VERTEX
  8
FOREGROUND
 62
     7
  6
CONTINUOUS
 10
0.478333
 20
0.326667
  0
VERTEX
  8
FOREGROUND
 62
     7
  6
CONTINUOUS
 10
0.435000
 20
0.363333
  0
VERTEX
  8
FOREGROUND
 62
     7
  6
CONTINUOUS
 10
0.395000
 20
0.401667
  0
VERTEX
  8
FOREGROUND
 62
     7
  6
CONTINUOUS
 10
0.355000
 20
0.443333
  0
VERTEX
  8
FOREGROUND
 62
     7
  6
CONTINUOUS
 10
0.318333
 20
0.485000
  0
VERTEX
  8
FOREGROUND
 62
     7
  6
CONTINUOUS
 10
0.283333
 20
0.530000
  0
VERTEX
  8
FOREGROUND
 62
     7
  6
CONTINUOUS
 10
0.251667
 20
0.576667
  0
VERTEX
  8
FOREGROUND
 62
     7
  6
CONTINUOUS
 10
0.220000
 20
0.623333
  0
VERTEX
  8
FOREGROUND
 62
     7
  6
CONTINUOUS
 10
0.191667
 20
0.673333
  0
VERTEX
  8
FOREGROUND
 62
     7
  6
CONTINUOUS
 10
0.166667
 20
0.723333
  0
VERTEX
  8
FOREGROUND
 62
     7
  6
CONTINUOUS
 10
0.143333
 20
0.775000
  0
VERTEX
  8
FOREGROUND
 62
     7
  6
CONTINUOUS
 10
0.121667
 20
0.828333
  0
VERTEX
  8
FOREGROUND
 62
     7
  6
CONTINUOUS
 10
0.103333
 20
0.883333
  0
VERTEX
  8
FOREGROUND
 62
     7
  6
CONTINUOUS
 10
0.086667
 20
0.940000
  0
VERTEX
  8
FOREGROUND
 62
     7
  6
CONTINUOUS
 10
0.073333
 20
0.996667
  0
VERTEX
  8
FOREGROUND
 62
     7
  6
CONTINUOUS
 10
0.063333
 20
1.055000
  0
VERTEX
  8
FOREGROUND
 62
     7
  6
CONTINUOUS
 10
0.056667
 20
1.113333
  0
VERTEX
  8
FOREGROUND
 62
     7
  6
CONTINUOUS
 10
0.051667
 20
1.173333
  0
VERTEX
  8
FOREGROUND
 62
     7
  6
CONTINUOUS
 10
0.050000
 20
1.233333
  0
VERTEX
  8
FOREGROUND
 62
     7
  6
CONTINUOUS
 10
0.050000
 20
4.765000
  0
VERTEX
  8
FOREGROUND
 62
     7
  6
CONTINUOUS
 10
0.051667
 20
4.825000
  0
VERTEX
  8
FOREGROUND
 62
     7
  6
CONTINUOUS
 10
0.056667
 20
4.885000
  0
VERTEX
  8
FOREGROUND
 62
     7
  6
CONTINUOUS
 10
0.063333
 20
4.943333
  0
VERTEX
  8
FOREGROUND
 62
     7
  6
CONTINUOUS
 10
0.073333
 20
5.001667
  0
VERTEX
  8
FOREGROUND
 62
     7
  6
CONTINUOUS
 10
0.086667
 20
5.058333
  0
VERTEX
  8
FOREGROUND
 62
     7
  6
CONTINUOUS
 10
0.103333
 20
5.115000
  0
VERTEX
  8
FOREGROUND
 62
     7
  6
CONTINUOUS
 10
0.121667
 20
5.168333
  0
VERTEX
  8
FOREGROUND
 62
     7
  6
CONTINUOUS
 10
0.143333
 20
5.221667
  0
VERTEX
  8
FOREGROUND
 62
     7
  6
CONTINUOUS
 10
0.166667
 20
5.275000
  0
VERTEX
  8
FOREGROUND
 62
     7
  6
CONTINUOUS
 10
0.191667
 20
5.325000
  0
VERTEX
  8
FOREGROUND
 62
     7
  6
CONTINUOUS
 10
0.220000
 20
5.373333
  0
VERTEX
  8
FOREGROUND
 62
     7
  6
CONTINUOUS
 10
0.251667
 20
5.421667
  0
VERTEX
  8
FOREGROUND
 62
     7
  6
CONTINUOUS
 10
0.283333
 20
5.468333
  0
VERTEX
  8
FOREGROUND
 62
     7
  6
CONTINUOUS
 10
0.318333
 20
5.511667
  0
VERTEX
  8
FOREGROUND
 62
     7
  6
CONTINUOUS
 10
0.355000
 20
5.555000
  0
VERTEX
  8
FOREGROUND
 62
     7
  6
CONTINUOUS
 10
0.395000
 20
5.595000
  0
VERTEX
  8
FOREGROUND
 62
     7
  6
CONTINUOUS
 10
0.435000
 20
5.635000
  0
VERTEX
  8
FOREGROUND
 62
     7
  6
CONTINUOUS
 10
0.478333
 20
5.671667
  0
VERTEX
  8
FOREGROUND
 62
     7
  6
CONTINUOUS
 10
0.521667
 20
5.706667
  0
VERTEX
  8
FOREGROUND
 62
     7
  6
CONTINUOUS
 10
0.568333
 20
5.738333
  0
VERTEX
  8
FOREGROUND
 62
     7
  6
CONTINUOUS
 10
0.616667
 20
5.770000
  0
VERTEX
  8
FOREGROUND
 62
     7
  6
CONTINUOUS
 10
0.665000
 20
5.798333
  0
VERTEX
  8
FOREGROUND
 62
     7
  6
CONTINUOUS
 10
0.715000
 20
5.823333
  0
VERTEX
  8
FOREGROUND
 62
     7
  6
CONTINUOUS
 10
0.768333
 20
5.846667
  0
VERTEX
  8
FOREGROUND
 62
     7
  6
CONTINUOUS
 10
0.821667
 20
5.868333
  0
VERTEX
  8
FOREGROUND
 62
     7
  6
CONTINUOUS
 10
0.875000
 20
5.886667
  0
VERTEX
  8
FOREGROUND
 62
     7
  6
CONTINUOUS
 10
0.931667
 20
5.903333
  0
VERTEX
  8
FOREGROUND
 62
     7
  6
CONTINUOUS
 10
0.988333
 20
5.916667
  0
VERTEX
  8
FOREGROUND
 62
     7
  6
CONTINUOUS
 10
1.046667
 20
5.926667
  0
VERTEX
  8
FOREGROUND
 62
     7
  6
CONTINUOUS
 10
1.105000
 20
5.933333
  0
VERTEX
  8
FOREGROUND
 62
     7
  6
CONTINUOUS
 10
1.165000
 20
5.938333
  0
SEQEND
  8
0
  0
POLYLINE
  8
FOREGROUND
  6
CONTINUOUS
 66
     1
 40
0.010000
 41
0.010000
 70
     1
  0
VERTEX
  8
FOREGROUND
  6
CONTINUOUS
 10
1.225000
 20
5.940000
  0
VERTEX
  8
FOREGROUND
  6
CONTINUOUS
 10
4.785000
 20
5.940000
  0
VERTEX
  8
FOREGROUND
  6
CONTINUOUS
 10
4.845000
 20
5.938333
  0
VERTEX
  8
FOREGROUND
  6
CONTINUOUS
 10
4.905000
 20
5.933333
  0
VERTEX
  8
FOREGROUND
  6
CONTINUOUS
 10
4.963333
 20
5.926667
  0
VERTEX
  8
FOREGROUND
  6
CONTINUOUS
 10
5.021667
 20
5.916667
  0
VERTEX
  8
FOREGROUND
  6
CONTINUOUS
 10
5.078333
 20
5.903333
  0
VERTEX
  8
FOREGROUND
  6
CONTINUOUS
 10
5.135000
 20
5.886667
  0
VERTEX
  8
FOREGROUND
  6
CONTINUOUS
 10
5.190000
 20
5.868333
  0
VERTEX
  8
FOREGROUND
  6
CONTINUOUS
 10
5.243333
 20
5.846667
  0
VERTEX
  8
FOREGROUND
  6
CONTINUOUS
 10
5.295000
 20
5.823333
  0
VERTEX
  8
FOREGROUND
  6
CONTINUOUS
 10
5.345000
 20
5.798333
  0
VERTEX
  8
FOREGROUND
  6
CONTINUOUS
 10
5.395000
 20
5.770000
  0
VERTEX
  8
FOREGROUND
  6
CONTINUOUS
 10
5.441667
 20
5.738333
  0
VERTEX
  8
FOREGROUND
  6
CONTINUOUS
 10
5.488333
 20
5.706667
  0
VERTEX
  8
FOREGROUND
  6
CONTINUOUS
 10
5.533333
 20
5.671667
  0
VERTEX
  8
FOREGROUND
  6
CONTINUOUS
 10
5.575000
 20
5.635000
  0
VERTEX
  8
FOREGROUND
  6
CONTINUOUS
 10
5.616667
 20
5.595000
  0
VERTEX
  8
FOREGROUND
  6
CONTINUOUS
 10
5.655000
 20
5.555000
  0
VERTEX
  8
FOREGROUND
  6
CONTINUOUS
 10
5.691667
 20
5.511667
  0
VERTEX
  8
FOREGROUND
  6
CONTINUOUS
 10
5.726667
 20
5.468333
  0
VERTEX
  8
FOREGROUND
  6
CONTINUOUS
 10
5.760000
 20
5.421667
  0
VERTEX
  8
FOREGROUND
  6
CONTINUOUS
 10
5.790000
 20
5.373333
  0
VERTEX
  8
FOREGROUND
  6
CONTINUOUS
 10
5.818333
 20
5.325000
  0
VERTEX
  8
FOREGROUND
  6
CONTINUOUS
 10
5.845000
 20
5.275000
  0
VERTEX
  8
FOREGROUND
  6
CONTINUOUS
 10
5.868333
 20
5.221667
  0
VERTEX
  8
FOREGROUND
  6
CONTINUOUS
 10
5.888333
 20
5.168333
  0
VERTEX
  8
FOREGROUND
  6
CONTINUOUS
 10
5.906667
 20
5.115000
  0
VERTEX
  8
FOREGROUND
  6
CONTINUOUS
 10
5.923333
 20
5.058333
  0
VERTEX
  8
FOREGROUND
  6
CONTINUOUS
 10
5.936667
 20
5.001667
  0
VERTEX
  8
FOREGROUND
  6
CONTINUOUS
 10
5.946667
 20
4.943333
  0
VERTEX
  8
FOREGROUND
  6
CONTINUOUS
 10
5.953333
 20
4.885000
  0
VERTEX
  8
FOREGROUND
  6
CONTINUOUS
 10
5.958333
 20
4.825000
  0
VERTEX
  8
FOREGROUND
  6
CONTINUOUS
 10
5.960000
 20
4.765000
  0
VERTEX
  8
FOREGROUND
  6
CONTINUOUS
 10
5.960000
 20
1.233333
  0
VERTEX
  8
FOREGROUND
  6
CONTINUOUS
 10
5.958333
 20
1.173333
  0
VERTEX
  8
FOREGROUND
  6
CONTINUOUS
 10
5.953333
 20
1.113333
  0
VERTEX
  8
FOREGROUND
  6
CONTINUOUS
 10
5.946667
 20
1.055000
  0
VERTEX
  8
FOREGROUND
  6
CONTINUOUS
 10
5.936667
 20
0.996667
  0
VERTEX
  8
FOREGROUND
  6
CONTINUOUS
 10
5.923333
 20
0.940000
  0
VERTEX
  8
FOREGROUND
  6
CONTINUOUS
 10
5.906667
 20
0.883333
  0
VERTEX
  8
FOREGROUND
  6
CONTINUOUS
 10
5.888333
 20
0.828333
  0
VERTEX
  8
FOREGROUND
  6
CONTINUOUS
 10
5.868333
 20
0.775000
  0
VERTEX
  8
FOREGROUND
  6
CONTINUOUS
 10
5.845000
 20
0.723333
  0
VERTEX
  8
FOREGROUND
  6
CONTINUOUS
 10
5.818333
 20
0.673333
  0
VERTEX
  8
FOREGROUND
  6
CONTINUOUS
 10
5.790000
 20
0.623333
  0
VERTEX
  8
FOREGROUND
  6
CONTINUOUS
 10
5.760000
 20
0.576667
  0
VERTEX
  8
FOREGROUND
  6
CONTINUOUS
 10
5.726667
 20
0.530000
  0
VERTEX
  8
FOREGROUND
  6
CONTINUOUS
 10
5.691667
 20
0.485000
  0
VERTEX
  8
FOREGROUND
  6
CONTINUOUS
 10
5.655000
 20
0.443333
  0
VERTEX
  8
FOREGROUND
  6
CONTINUOUS
 10
5.616667
 20
0.401667
  0
VERTEX
  8
FOREGROUND
  6
CONTINUOUS
 10
5.575000
 20
0.363333
  0
VERTEX
  8
FOREGROUND
  6
CONTINUOUS
 10
5.533333
 20
0.326667
  0
VERTEX
  8
FOREGROUND
  6
CONTINUOUS
 10
5.488333
 20
0.291667
  0
VERTEX
  8
FOREGROUND
  6
CONTINUOUS
 10
5.441667
 20
0.258333
  0
VERTEX
  8
FOREGROUND
  6
CONTINUOUS
 10
5.395000
 20
0.228333
  0
VERTEX
  8
FOREGROUND
  6
CONTINUOUS
 10
5.345000
 20
0.200000
  0
VERTEX
  8
FOREGROUND
  6
CONTINUOUS
 10
5.295000
 20
0.173333
  0
VERTEX
  8
FOREGROUND
  6
CONTINUOUS
 10
5.243333
 20
0.150000
  0
VERTEX
  8
FOREGROUND
  6
CONTINUOUS
 10
5.190000
 20
0.130000
  0
VERTEX
  8
FOREGROUND
  6
CONTINUOUS
 10
5.135000
 20
0.111667
  0
VERTEX
  8
FOREGROUND
  6
CONTINUOUS
 10
5.078333
 20
0.095000
  0
VERTEX
  8
FOREGROUND
  6
CONTINUOUS
 10
5.021667
 20
0.081667
  0
VERTEX
  8
FOREGROUND
  6
CONTINUOUS
 10
4.963333
 20
0.071667
  0
VERTEX
  8
FOREGROUND
  6
CONTINUOUS
 10
4.905000
 20
0.065000
  0
VERTEX
  8
FOREGROUND
  6
CONTINUOUS
 10
4.845000
 20
0.060000
  0
VERTEX
  8
FOREGROUND
  6
CONTINUOUS
 10
4.785000
 20
0.058333
  0
VERTEX
  8
FOREGROUND
  6
CONTINUOUS
 10
1.225000
 20
0.058333
  0
VERTEX
  8
FOREGROUND
  6
CONTINUOUS
 10
1.165000
 20
0.060000
  0
VERTEX
  8
FOREGROUND
  6
CONTINUOUS
 10
1.105000
 20
0.065000
  0
VERTEX
  8
FOREGROUND
  6
CONTINUOUS
 10
1.046667
 20
0.071667
  0
VERTEX
  8
FOREGROUND
  6
CONTINUOUS
 10
0.988333
 20
0.081667
  0
VERTEX
  8
FOREGROUND
  6
CONTINUOUS
 10
0.931667
 20
0.095000
  0
VERTEX
  8
FOREGROUND
  6
CONTINUOUS
 10
0.875000
 20
0.111667
  0
VERTEX
  8
FOREGROUND
  6
CONTINUOUS
 10
0.821667
 20
0.130000
  0
VERTEX
  8
FOREGROUND
  6
CONTINUOUS
 10
0.768333
 20
0.150000
  0
VERTEX
  8
FOREGROUND
  6
CONTINUOUS
 10
0.715000
 20
0.173333
  0
VERTEX
  8
FOREGROUND
  6
CONTINUOUS
 10
0.665000
 20
0.200000
  0
VERTEX
  8
FOREGROUND
  6
CONTINUOUS
 10
0.616667
 20
0.228333
  0
VERTEX
  8
FOREGROUND
  6
CONTINUOUS
 10
0.568333
 20
0.258333
  0
VERTEX
  8
FOREGROUND
  6
CONTINUOUS
 10
0.521667
 20
0.291667
  0
VERTEX
  8
FOREGROUND
  6
CONTINUOUS
 10
0.478333
 20
0.326667
  0
VERTEX
  8
FOREGROUND
  6
CONTINUOUS
 10
0.435000
 20
0.363333
  0
VERTEX
  8
FOREGROUND
  6
CONTINUOUS
 10
0.395000
 20
0.401667
  0
VERTEX
  8
FOREGROUND
  6
CONTINUOUS
 10
0.355000
 20
0.443333
  0
VERTEX
  8
FOREGROUND
  6
CONTINUOUS
 10
0.318333
 20
0.485000
  0
VERTEX
  8
FOREGROUND
  6
CONTINUOUS
 10
0.283333
 20
0.530000
  0
VERTEX
  8
FOREGROUND
  6
CONTINUOUS
 10
0.251667
 20
0.576667
  0
VERTEX
  8
FOREGROUND
  6
CONTINUOUS
 10
0.220000
 20
0.623333
  0
VERTEX
  8
FOREGROUND
  6
CONTINUOUS
 10
0.191667
 20
0.673333
  0
VERTEX
  8
FOREGROUND
  6
CONTINUOUS
 10
0.166667
 20
0.723333
  0
VERTEX
  8
FOREGROUND
  6
CONTINUOUS
 10
0.143333
 20
0.775000
  0
VERTEX
  8
FOREGROUND
  6
CONTINUOUS
 10
0.121667
 20
0.828333
  0
VERTEX
  8
FOREGROUND
  6
CONTINUOUS
 10
0.103333
 20
0.883333
  0
VERTEX
  8
FOREGROUND
  6
CONTINUOUS
 10
0.086667
 20
0.940000
  0
VERTEX
  8
FOREGROUND
  6
CONTINUOUS
 10
0.073333
 20
0.996667
  0
VERTEX
  8
FOREGROUND
  6
CONTINUOUS
 10
0.063333
 20
1.055000
  0
VERTEX
  8
FOREGROUND
  6
CONTINUOUS
 10
0.056667
 20
1.113333
  0
VERTEX
  8
FOREGROUND
  6
CONTINUOUS
 10
0.051667
 20
1.173333
  0
VERTEX
  8
FOREGROUND
  6
CONTINUOUS
 10
0.050000
 20
1.233333
  0
VERTEX
  8
FOREGROUND
  6
CONTINUOUS
 10
0.050000
 20
4.765000
  0
VERTEX
  8
FOREGROUND
  6
CONTINUOUS
 10
0.051667
 20
4.825000
  0
VERTEX
  8
FOREGROUND
  6
CONTINUOUS
 10
0.056667
 20
4.885000
  0
VERTEX
  8
FOREGROUND
  6
CONTINUOUS
 10
0.063333
 20
4.943333
  0
VERTEX
  8
FOREGROUND
  6
CONTINUOUS
 10
0.073333
 20
5.001667
  0
VERTEX
  8
FOREGROUND
  6
CONTINUOUS
 10
0.086667
 20
5.058333
  0
VERTEX
  8
FOREGROUND
  6
CONTINUOUS
 10
0.103333
 20
5.115000
  0
VERTEX
  8
FOREGROUND
  6
CONTINUOUS
 10
0.121667
 20
5.168333
  0
VERTEX
  8
FOREGROUND
  6
CONTINUOUS
 10
0.143333
 20
5.221667
  0
VERTEX
  8
FOREGROUND
  6
CONTINUOUS
 10
0.166667
 20
5.275000
  0
VERTEX
  8
FOREGROUND
  6
CONTINUOUS
 10
0.191667
 20
5.325000
  0
VERTEX
  8
FOREGROUND
  6
CONTINUOUS
 10
0.220000
 20
5.373333
  0
VERTEX
  8
FOREGROUND
  6
CONTINUOUS
 10
0.251667
 20
5.421667
  0
VERTEX
  8
FOREGROUND
  6
CONTINUOUS
 10
0.283333
 20
5.468333
  0
VERTEX
  8
FOREGROUND
  6
CONTINUOUS
 10
0.318333
 20
5.511667
  0
VERTEX
  8
FOREGROUND
  6
CONTINUOUS
 10
0.355000
 20
5.555000
  0
VERTEX
  8
FOREGROUND
  6
CONTINUOUS
 10
0.395000
 20
5.595000
  0
VERTEX
  8
FOREGROUND
  6
CONTINUOUS
 10
0.435000
 20
5.635000
  0
VERTEX
  8
FOREGROUND
  6
CONTINUOUS
 10
0.478333
 20
5.671667
  0
VERTEX
  8
FOREGROUND
  6
CONTINUOUS
 10
0.521667
 20
5.706667
  0
VERTEX
  8
FOREGROUND
  6
CONTINUOUS
 10
0.568333
 20
5.738333
  0
VERTEX
  8
FOREGROUND
  6
CONTINUOUS
 10
0.616667
 20
5.770000
  0
VERTEX
  8
FOREGROUND
  6
CONTINUOUS
 10
0.665000
 20
5.798333
  0
VERTEX
  8
FOREGROUND
  6
CONTINUOUS
 10
0.715000
 20
5.823333
  0
VERTEX
  8
FOREGROUND
  6
CONTINUOUS
 10
0.768333
 20
5.846667
  0
VERTEX
  8
FOREGROUND
  6
CONTINUOUS
 10
0.821667
 20
5.868333
  0
VERTEX
  8
FOREGROUND
  6
CONTINUOUS
 10
0.875000
 20
5.886667
  0
VERTEX
  8
FOREGROUND
  6
CONTINUOUS
 10
0.931667
 20
5.903333
  0
VERTEX
  8
FOREGROUND
  6
CONTINUOUS
 10
0.988333
 20
5.916667
  0
VERTEX
  8
FOREGROUND
  6
CONTINUOUS
 10
1.046667
 20
5.926667
  0
VERTEX
  8
FOREGROUND
  6
CONTINUOUS
 10
1.105000
 20
5.933333
  0
VERTEX
  8
FOREGROUND
  6
CONTINUOUS
 10
1.165000
 20
5.938333
  0
SEQEND
  8
0
  0
ENDSEC
  0
EOF
