  0
SECTION
  2
HEADER
  9
$ACADVER
  1
AC1006
  9
$EXTMIN
 10
0.000000
 20
0.000000
  9
$EXTMAX
 10
6.253333
 20
8.115000
  9
$LTSCALE
 40
0.166667
  9
$PDMODE
 70
    35
  9
$PDSIZE
 40
0.133333
  0
ENDSEC
  0
SECTION
  2
TABLES
  0
TABLE
  2
LTYPE
 70
     9
  0
LTYPE
  2
CONTINUOUS
 70
    64
  3
Solid line
 72
    65
 73
     0
 40
0.000000
  0
LTYPE
  2
DASHED
 70
    64
  3
__ __ __ __ __ __ __ __ __ __ __ __ __ __ __
 72
    65
 73
     2
 40
0.001250
 49
0.000833
 49
-0.000417
  0
LTYPE
  2
HIDDEN
 70
    64
  3
 _ _ _ _ _ _ _ _ _ _ _ _ _ _ _ _ _ _ _ _ _ _
 72
    65
 73
     2
 40
0.000625
 49
0.000417
 49
-0.000208
  0
LTYPE
  2
CENTER
 70
    64
  3
____ _ ____ _ ____ _ ____ _ ____ _ ____ _ ____
 72
    65
 73
     4
 40
0.003333
 49
0.002083
 49
-0.000417
 49
0.000417
 49
-0.000417
  0
LTYPE
  2
PHANTOM
 70
    64
  3
_____ _ _ _____ _ _ _____ _ _ _____ _ _ ____
 72
    65
 73
     6
 40
0.004167
 49
0.002083
 49
-0.000417
 49
0.000417
 49
-0.000417
 49
0.000417
 49
-0.000417
  0
LTYPE
  2
DOT
 70
    64
  3
...............................................
 72
    65
 73
     2
 40
0.000417
 49
0.000000
 49
-0.000417
  0
LTYPE
  2
DASHDOT
 70
    64
  3
__ . __ . __ . __ . __ . __ . __ . __ . __ . __
 72
    65
 73
     4
 40
0.001667
 49
0.000833
 49
-0.000417
 49
0.000000
 49
-0.000417
  0
LTYPE
  2
BORDER
 70
    64
  3
__ __ . __ __ . __ __ . __ __ . __ __ . __ __
 72
    65
 73
     6
 40
0.002917
 49
0.000833
 49
-0.000417
 49
0.000833
 49
-0.000417
 49
0.000000
 49
-0.000417
  0
LTYPE
  2
DIVIDE
 70
    64
  3
__ . . __ . . __ . . __ . . __ . . __ . . __
 72
    65
 73
     6
 40
0.002083
 49
0.000833
 49
-0.000417
 49
0.000000
 49
-0.000417
 49
0.000000
 49
-0.000417
  0
LTYPE
  2
DOTDOT
 70
    64
  3
 . .  . .  . .  . .  . .  . . 
 72
    65
 73
     5
 40
0.000917
 49
-0.000417
 49
0.000000
 49
-0.000417
 49
0.000000
 49
-0.000417
  0
ENDTAB
  0
TABLE
  2
STYLE
 70
     2
  0
STYLE
 70
     0
  2
SN0
 40
0.000000
 41
0.001667
 50
0.000000
 71
     0
 42
0.000000
  3
ROMAND
  0
STYLE
 70
    68
  2
SV0
 40
0.000000
 41
0.001667
 50
0.000000
 71
     0
 42
0.000000
  3
ROMAND
  0
ENDTAB
  0
TABLE
  2
LAYER
 70
     2
  0
LAYER
  2
FOREGROUND
 70
    64
 62
     7
  6
CONTINUOUS
  0
LAYER
  2
BACKGROUND
 70
    65
 62
    -7
  6
CONTINUOUS
  0
ENDTAB
  0
ENDSEC
  0
SECTION
  2
ENTITIES
  0
POLYLINE
  8
FOREGROUND
  6
CONTINUOUS
 66
     1
 40
0.010000
 41
0.010000
 70
     1
  0
VERTEX
  8
FOREGROUND
  6
CONTINUOUS
 10
1.256667
 20
7.960000
  0
VERTEX
  8
FOREGROUND
  6
CONTINUOUS
 10
4.883333
 20
7.960000
  0
VERTEX
  8
FOREGROUND
  6
CONTINUOUS
 10
4.945000
 20
7.958333
  0
VERTEX
  8
FOREGROUND
  6
CONTINUOUS
 10
5.006667
 20
7.953333
  0
VERTEX
  8
FOREGROUND
  6
CONTINUOUS
 10
5.066667
 20
7.945000
  0
VERTEX
  8
FOREGROUND
  6
CONTINUOUS
 10
5.126667
 20
7.935000
  0
VERTEX
  8
FOREGROUND
  6
CONTINUOUS
 10
5.185000
 20
7.921667
  0
VERTEX
  8
FOREGROUND
  6
CONTINUOUS
 10
5.243333
 20
7.905000
  0
VERTEX
  8
FOREGROUND
  6
CONTINUOUS
 10
5.298333
 20
7.886667
  0
VERTEX
  8
FOREGROUND
  6
CONTINUOUS
 10
5.353333
 20
7.865000
  0
VERTEX
  8
FOREGROUND
  6
CONTINUOUS
 10
5.406667
 20
7.840000
  0
VERTEX
  8
FOREGROUND
  6
CONTINUOUS
 10
5.458333
 20
7.813333
  0
VERTEX
  8
FOREGROUND
  6
CONTINUOUS
 10
5.510000
 20
7.785000
  0
VERTEX
  8
FOREGROUND
  6
CONTINUOUS
 10
5.558333
 20
7.753333
  0
VERTEX
  8
FOREGROUND
  6
CONTINUOUS
 10
5.605000
 20
7.720000
  0
VERTEX
  8
FOREGROUND
  6
CONTINUOUS
 10
5.651667
 20
7.683333
  0
VERTEX
  8
FOREGROUND
  6
CONTINUOUS
 10
5.695000
 20
7.646667
  0
VERTEX
  8
FOREGROUND
  6
CONTINUOUS
 10
5.736667
 20
7.606667
  0
VERTEX
  8
FOREGROUND
  6
CONTINUOUS
 10
5.776667
 20
7.565000
  0
VERTEX
  8
FOREGROUND
  6
CONTINUOUS
 10
5.815000
 20
7.520000
  0
VERTEX
  8
FOREGROUND
  6
CONTINUOUS
 10
5.850000
 20
7.475000
  0
VERTEX
  8
FOREGROUND
  6
CONTINUOUS
 10
5.885000
 20
7.428333
  0
VERTEX
  8
FOREGROUND
  6
CONTINUOUS
 10
5.915000
 20
7.378333
  0
VERTEX
  8
FOREGROUND
  6
CONTINUOUS
 10
5.945000
 20
7.328333
  0
VERTEX
  8
FOREGROUND
  6
CONTINUOUS
 10
5.971667
 20
7.276667
  0
VERTEX
  8
FOREGROUND
  6
CONTINUOUS
 10
5.995000
 20
7.223333
  0
VERTEX
  8
FOREGROUND
  6
CONTINUOUS
 10
6.016667
 20
7.168333
  0
VERTEX
  8
FOREGROUND
  6
CONTINUOUS
 10
6.036667
 20
7.111667
  0
VERTEX
  8
FOREGROUND
  6
CONTINUOUS
 10
6.051667
 20
7.055000
  0
VERTEX
  8
FOREGROUND
  6
CONTINUOUS
 10
6.065000
 20
6.996667
  0
VERTEX
  8
FOREGROUND
  6
CONTINUOUS
 10
6.076667
 20
6.936667
  0
VERTEX
  8
FOREGROUND
  6
CONTINUOUS
 10
6.083333
 20
6.876667
  0
VERTEX
  8
FOREGROUND
  6
CONTINUOUS
 10
6.088333
 20
6.815000
  0
VERTEX
  8
FOREGROUND
  6
CONTINUOUS
 10
6.090000
 20
6.753333
  0
VERTEX
  8
FOREGROUND
  6
CONTINUOUS
 10
6.090000
 20
1.265000
  0
VERTEX
  8
FOREGROUND
  6
CONTINUOUS
 10
6.088333
 20
1.203333
  0
VERTEX
  8
FOREGROUND
  6
CONTINUOUS
 10
6.083333
 20
1.141667
  0
VERTEX
  8
FOREGROUND
  6
CONTINUOUS
 10
6.076667
 20
1.081667
  0
VERTEX
  8
FOREGROUND
  6
CONTINUOUS
 10
6.065000
 20
1.021667
  0
VERTEX
  8
FOREGROUND
  6
CONTINUOUS
 10
6.051667
 20
0.963333
  0
VERTEX
  8
FOREGROUND
  6
CONTINUOUS
 10
6.036667
 20
0.905000
  0
VERTEX
  8
FOREGROUND
  6
CONTINUOUS
 10
6.016667
 20
0.850000
  0
VERTEX
  8
FOREGROUND
  6
CONTINUOUS
 10
5.995000
 20
0.795000
  0
VERTEX
  8
FOREGROUND
  6
CONTINUOUS
 10
5.971667
 20
0.741667
  0
VERTEX
  8
FOREGROUND
  6
CONTINUOUS
 10
5.945000
 20
0.690000
  0
VERTEX
  8
FOREGROUND
  6
CONTINUOUS
 10
5.915000
 20
0.638333
  0
VERTEX
  8
FOREGROUND
  6
CONTINUOUS
 10
5.885000
 20
0.590000
  0
VERTEX
  8
FOREGROUND
  6
CONTINUOUS
 10
5.850000
 20
0.543333
  0
VERTEX
  8
FOREGROUND
  6
CONTINUOUS
 10
5.815000
 20
0.496667
  0
VERTEX
  8
FOREGROUND
  6
CONTINUOUS
 10
5.776667
 20
0.453333
  0
VERTEX
  8
FOREGROUND
  6
CONTINUOUS
 10
5.736667
 20
0.411667
  0
VERTEX
  8
FOREGROUND
  6
CONTINUOUS
 10
5.695000
 20
0.371667
  0
VERTEX
  8
FOREGROUND
  6
CONTINUOUS
 10
5.651667
 20
0.333333
  0
VERTEX
  8
FOREGROUND
  6
CONTINUOUS
 10
5.605000
 20
0.298333
  0
VERTEX
  8
FOREGROUND
  6
CONTINUOUS
 10
5.558333
 20
0.263333
  0
VERTEX
  8
FOREGROUND
  6
CONTINUOUS
 10
5.510000
 20
0.233333
  0
VERTEX
  8
FOREGROUND
  6
CONTINUOUS
 10
5.458333
 20
0.203333
  0
VERTEX
  8
FOREGROUND
  6
CONTINUOUS
 10
5.406667
 20
0.176667
  0
VERTEX
  8
FOREGROUND
  6
CONTINUOUS
 10
5.353333
 20
0.153333
  0
VERTEX
  8
FOREGROUND
  6
CONTINUOUS
 10
5.298333
 20
0.131667
  0
VERTEX
  8
FOREGROUND
  6
CONTINUOUS
 10
5.243333
 20
0.111667
  0
VERTEX
  8
FOREGROUND
  6
CONTINUOUS
 10
5.185000
 20
0.096667
  0
VERTEX
  8
FOREGROUND
  6
CONTINUOUS
 10
5.126667
 20
0.083333
  0
VERTEX
  8
FOREGROUND
  6
CONTINUOUS
 10
5.066667
 20
0.071667
  0
VERTEX
  8
FOREGROUND
  6
CONTINUOUS
 10
5.006667
 20
0.065000
  0
VERTEX
  8
FOREGROUND
  6
CONTINUOUS
 10
4.945000
 20
0.060000
  0
VERTEX
  8
FOREGROUND
  6
CONTINUOUS
 10
4.883333
 20
0.058333
  0
VERTEX
  8
FOREGROUND
  6
CONTINUOUS
 10
1.256667
 20
0.058333
  0
VERTEX
  8
FOREGROUND
  6
CONTINUOUS
 10
1.195000
 20
0.060000
  0
VERTEX
  8
FOREGROUND
  6
CONTINUOUS
 10
1.133333
 20
0.065000
  0
VERTEX
  8
FOREGROUND
  6
CONTINUOUS
 10
1.073333
 20
0.071667
  0
VERTEX
  8
FOREGROUND
  6
CONTINUOUS
 10
1.013333
 20
0.083333
  0
VERTEX
  8
FOREGROUND
  6
CONTINUOUS
 10
0.955000
 20
0.096667
  0
VERTEX
  8
FOREGROUND
  6
CONTINUOUS
 10
0.898333
 20
0.111667
  0
VERTEX
  8
FOREGROUND
  6
CONTINUOUS
 10
0.841667
 20
0.131667
  0
VERTEX
  8
FOREGROUND
  6
CONTINUOUS
 10
0.786667
 20
0.153333
  0
VERTEX
  8
FOREGROUND
  6
CONTINUOUS
 10
0.733333
 20
0.176667
  0
VERTEX
  8
FOREGROUND
  6
CONTINUOUS
 10
0.681667
 20
0.203333
  0
VERTEX
  8
FOREGROUND
  6
CONTINUOUS
 10
0.631667
 20
0.233333
  0
VERTEX
  8
FOREGROUND
  6
CONTINUOUS
 10
0.581667
 20
0.263333
  0
VERTEX
  8
FOREGROUND
  6
CONTINUOUS
 10
0.535000
 20
0.298333
  0
VERTEX
  8
FOREGROUND
  6
CONTINUOUS
 10
0.490000
 20
0.333333
  0
VERTEX
  8
FOREGROUND
  6
CONTINUOUS
 10
0.445000
 20
0.371667
  0
VERTEX
  8
FOREGROUND
  6
CONTINUOUS
 10
0.403333
 20
0.411667
  0
VERTEX
  8
FOREGROUND
  6
CONTINUOUS
 10
0.363333
 20
0.453333
  0
VERTEX
  8
FOREGROUND
  6
CONTINUOUS
 10
0.326667
 20
0.496667
  0
VERTEX
  8
FOREGROUND
  6
CONTINUOUS
 10
0.290000
 20
0.543333
  0
VERTEX
  8
FOREGROUND
  6
CONTINUOUS
 10
0.256667
 20
0.590000
  0
VERTEX
  8
FOREGROUND
  6
CONTINUOUS
 10
0.225000
 20
0.638333
  0
VERTEX
  8
FOREGROUND
  6
CONTINUOUS
 10
0.196667
 20
0.690000
  0
VERTEX
  8
FOREGROUND
  6
CONTINUOUS
 10
0.170000
 20
0.741667
  0
VERTEX
  8
FOREGROUND
  6
CONTINUOUS
 10
0.145000
 20
0.795000
  0
VERTEX
  8
FOREGROUND
  6
CONTINUOUS
 10
0.123333
 20
0.850000
  0
VERTEX
  8
FOREGROUND
  6
CONTINUOUS
 10
0.105000
 20
0.905000
  0
VERTEX
  8
FOREGROUND
  6
CONTINUOUS
 10
0.088333
 20
0.963333
  0
VERTEX
  8
FOREGROUND
  6
CONTINUOUS
 10
0.075000
 20
1.021667
  0
VERTEX
  8
FOREGROUND
  6
CONTINUOUS
 10
0.065000
 20
1.081667
  0
VERTEX
  8
FOREGROUND
  6
CONTINUOUS
 10
0.056667
 20
1.141667
  0
VERTEX
  8
FOREGROUND
  6
CONTINUOUS
 10
0.051667
 20
1.203333
  0
VERTEX
  8
FOREGROUND
  6
CONTINUOUS
 10
0.050000
 20
1.265000
  0
VERTEX
  8
FOREGROUND
  6
CONTINUOUS
 10
0.050000
 20
6.753333
  0
VERTEX
  8
FOREGROUND
  6
CONTINUOUS
 10
0.051667
 20
6.815000
  0
VERTEX
  8
FOREGROUND
  6
CONTINUOUS
 10
0.056667
 20
6.876667
  0
VERTEX
  8
FOREGROUND
  6
CONTINUOUS
 10
0.065000
 20
6.936667
  0
VERTEX
  8
FOREGROUND
  6
CONTINUOUS
 10
0.075000
 20
6.996667
  0
VERTEX
  8
FOREGROUND
  6
CONTINUOUS
 10
0.088333
 20
7.055000
  0
VERTEX
  8
FOREGROUND
  6
CONTINUOUS
 10
0.105000
 20
7.111667
  0
VERTEX
  8
FOREGROUND
  6
CONTINUOUS
 10
0.123333
 20
7.168333
  0
VERTEX
  8
FOREGROUND
  6
CONTINUOUS
 10
0.145000
 20
7.223333
  0
VERTEX
  8
FOREGROUND
  6
CONTINUOUS
 10
0.170000
 20
7.276667
  0
VERTEX
  8
FOREGROUND
  6
CONTINUOUS
 10
0.196667
 20
7.328333
  0
VERTEX
  8
FOREGROUND
  6
CONTINUOUS
 10
0.225000
 20
7.378333
  0
VERTEX
  8
FOREGROUND
  6
CONTINUOUS
 10
0.256667
 20
7.428333
  0
VERTEX
  8
FOREGROUND
  6
CONTINUOUS
 10
0.290000
 20
7.475000
  0
VERTEX
  8
FOREGROUND
  6
CONTINUOUS
 10
0.326667
 20
7.520000
  0
VERTEX
  8
FOREGROUND
  6
CONTINUOUS
 10
0.363333
 20
7.565000
  0
VERTEX
  8
FOREGROUND
  6
CONTINUOUS
 10
0.403333
 20
7.606667
  0
VERTEX
  8
FOREGROUND
  6
CONTINUOUS
 10
0.445000
 20
7.646667
  0
VERTEX
  8
FOREGROUND
  6
CONTINUOUS
 10
0.490000
 20
7.683333
  0
VERTEX
  8
FOREGROUND
  6
CONTINUOUS
 10
0.535000
 20
7.720000
  0
VERTEX
  8
FOREGROUND
  6
CONTINUOUS
 10
0.581667
 20
7.753333
  0
VERTEX
  8
FOREGROUND
  6
CONTINUOUS
 10
0.631667
 20
7.785000
  0
VERTEX
  8
FOREGROUND
  6
CONTINUOUS
 10
0.681667
 20
7.813333
  0
VERTEX
  8
FOREGROUND
  6
CONTINUOUS
 10
0.733333
 20
7.840000
  0
VERTEX
  8
FOREGROUND
  6
CONTINUOUS
 10
0.786667
 20
7.865000
  0
VERTEX
  8
FOREGROUND
  6
CONTINUOUS
 10
0.841667
 20
7.886667
  0
VERTEX
  8
FOREGROUND
  6
CONTINUOUS
 10
0.898333
 20
7.905000
  0
VERTEX
  8
FOREGROUND
  6
CONTINUOUS
 10
0.955000
 20
7.921667
  0
VERTEX
  8
FOREGROUND
  6
CONTINUOUS
 10
1.013333
 20
7.935000
  0
VERTEX
  8
FOREGROUND
  6
CONTINUOUS
 10
1.073333
 20
7.945000
  0
VERTEX
  8
FOREGROUND
  6
CONTINUOUS
 10
1.133333
 20
7.953333
  0
VERTEX
  8
FOREGROUND
  6
CONTINUOUS
 10
1.195000
 20
7.958333
  0
SEQEND
  8
0
  0
ENDSEC
  0
EOF
