  0
SECTION
  2
HEADER
  9
$ACADVER
  1
AC1006
  9
$EXTMIN
 10
0.000000
 20
0.000000
  9
$EXTMAX
 10
6.263333
 20
10.060000
  9
$LTSCALE
 40
0.166667
  9
$PDMODE
 70
    35
  9
$PDSIZE
 40
0.133333
  0
ENDSEC
  0
SECTION
  2
TABLES
  0
TABLE
  2
LTYPE
 70
     9
  0
LTYPE
  2
CONTINUOUS
 70
    64
  3
Solid line
 72
    65
 73
     0
 40
0.000000
  0
LTYPE
  2
DASHED
 70
    64
  3
__ __ __ __ __ __ __ __ __ __ __ __ __ __ __
 72
    65
 73
     2
 40
0.001250
 49
0.000833
 49
-0.000417
  0
LTYPE
  2
HIDDEN
 70
    64
  3
 _ _ _ _ _ _ _ _ _ _ _ _ _ _ _ _ _ _ _ _ _ _
 72
    65
 73
     2
 40
0.000625
 49
0.000417
 49
-0.000208
  0
LTYPE
  2
CENTER
 70
    64
  3
____ _ ____ _ ____ _ ____ _ ____ _ ____ _ ____
 72
    65
 73
     4
 40
0.003333
 49
0.002083
 49
-0.000417
 49
0.000417
 49
-0.000417
  0
LTYPE
  2
PHANTOM
 70
    64
  3
_____ _ _ _____ _ _ _____ _ _ _____ _ _ ____
 72
    65
 73
     6
 40
0.004167
 49
0.002083
 49
-0.000417
 49
0.000417
 49
-0.000417
 49
0.000417
 49
-0.000417
  0
LTYPE
  2
DOT
 70
    64
  3
...............................................
 72
    65
 73
     2
 40
0.000417
 49
0.000000
 49
-0.000417
  0
LTYPE
  2
DASHDOT
 70
    64
  3
__ . __ . __ . __ . __ . __ . __ . __ . __ . __
 72
    65
 73
     4
 40
0.001667
 49
0.000833
 49
-0.000417
 49
0.000000
 49
-0.000417
  0
LTYPE
  2
BORDER
 70
    64
  3
__ __ . __ __ . __ __ . __ __ . __ __ . __ __
 72
    65
 73
     6
 40
0.002917
 49
0.000833
 49
-0.000417
 49
0.000833
 49
-0.000417
 49
0.000000
 49
-0.000417
  0
LTYPE
  2
DIVIDE
 70
    64
  3
__ . . __ . . __ . . __ . . __ . . __ . . __
 72
    65
 73
     6
 40
0.002083
 49
0.000833
 49
-0.000417
 49
0.000000
 49
-0.000417
 49
0.000000
 49
-0.000417
  0
LTYPE
  2
DOTDOT
 70
    64
  3
 . .  . .  . .  . .  . .  . . 
 72
    65
 73
     5
 40
0.000917
 49
-0.000417
 49
0.000000
 49
-0.000417
 49
0.000000
 49
-0.000417
  0
ENDTAB
  0
TABLE
  2
STYLE
 70
     2
  0
STYLE
 70
     0
  2
SN0
 40
0.000000
 41
0.001667
 50
0.000000
 71
     0
 42
0.000000
  3
ROMAND
  0
STYLE
 70
    68
  2
SV0
 40
0.000000
 41
0.001667
 50
0.000000
 71
     0
 42
0.000000
  3
ROMAND
  0
ENDTAB
  0
TABLE
  2
LAYER
 70
     2
  0
LAYER
  2
FOREGROUND
 70
    64
 62
     7
  6
CONTINUOUS
  0
LAYER
  2
BACKGROUND
 70
    65
 62
    -7
  6
CONTINUOUS
  0
ENDTAB
  0
ENDSEC
  0
SECTION
  2
ENTITIES
  0
POLYLINE
  8
FOREGROUND
  6
CONTINUOUS
 66
     1
 40
0.010000
 41
0.010000
 70
     1
  0
VERTEX
  8
FOREGROUND
  6
CONTINUOUS
 10
1.258333
 20
9.905000
  0
VERTEX
  8
FOREGROUND
  6
CONTINUOUS
 10
4.891667
 20
9.905000
  0
VERTEX
  8
FOREGROUND
  6
CONTINUOUS
 10
4.953333
 20
9.903333
  0
VERTEX
  8
FOREGROUND
  6
CONTINUOUS
 10
5.015000
 20
9.898333
  0
VERTEX
  8
FOREGROUND
  6
CONTINUOUS
 10
5.076667
 20
9.890000
  0
VERTEX
  8
FOREGROUND
  6
CONTINUOUS
 10
5.135000
 20
9.880000
  0
VERTEX
  8
FOREGROUND
  6
CONTINUOUS
 10
5.193333
 20
9.866667
  0
VERTEX
  8
FOREGROUND
  6
CONTINUOUS
 10
5.251667
 20
9.850000
  0
VERTEX
  8
FOREGROUND
  6
CONTINUOUS
 10
5.306667
 20
9.831667
  0
VERTEX
  8
FOREGROUND
  6
CONTINUOUS
 10
5.361667
 20
9.810000
  0
VERTEX
  8
FOREGROUND
  6
CONTINUOUS
 10
5.416667
 20
9.785000
  0
VERTEX
  8
FOREGROUND
  6
CONTINUOUS
 10
5.468333
 20
9.758333
  0
VERTEX
  8
FOREGROUND
  6
CONTINUOUS
 10
5.518333
 20
9.730000
  0
VERTEX
  8
FOREGROUND
  6
CONTINUOUS
 10
5.568333
 20
9.698333
  0
VERTEX
  8
FOREGROUND
  6
CONTINUOUS
 10
5.615000
 20
9.665000
  0
VERTEX
  8
FOREGROUND
  6
CONTINUOUS
 10
5.660000
 20
9.628333
  0
VERTEX
  8
FOREGROUND
  6
CONTINUOUS
 10
5.705000
 20
9.590000
  0
VERTEX
  8
FOREGROUND
  6
CONTINUOUS
 10
5.746667
 20
9.550000
  0
VERTEX
  8
FOREGROUND
  6
CONTINUOUS
 10
5.786667
 20
9.508333
  0
VERTEX
  8
FOREGROUND
  6
CONTINUOUS
 10
5.825000
 20
9.465000
  0
VERTEX
  8
FOREGROUND
  6
CONTINUOUS
 10
5.860000
 20
9.420000
  0
VERTEX
  8
FOREGROUND
  6
CONTINUOUS
 10
5.893333
 20
9.371667
  0
VERTEX
  8
FOREGROUND
  6
CONTINUOUS
 10
5.925000
 20
9.323333
  0
VERTEX
  8
FOREGROUND
  6
CONTINUOUS
 10
5.955000
 20
9.271667
  0
VERTEX
  8
FOREGROUND
  6
CONTINUOUS
 10
5.981667
 20
9.220000
  0
VERTEX
  8
FOREGROUND
  6
CONTINUOUS
 10
6.005000
 20
9.166667
  0
VERTEX
  8
FOREGROUND
  6
CONTINUOUS
 10
6.026667
 20
9.111667
  0
VERTEX
  8
FOREGROUND
  6
CONTINUOUS
 10
6.046667
 20
9.055000
  0
VERTEX
  8
FOREGROUND
  6
CONTINUOUS
 10
6.061667
 20
8.998333
  0
VERTEX
  8
FOREGROUND
  6
CONTINUOUS
 10
6.075000
 20
8.940000
  0
VERTEX
  8
FOREGROUND
  6
CONTINUOUS
 10
6.086667
 20
8.880000
  0
VERTEX
  8
FOREGROUND
  6
CONTINUOUS
 10
6.093333
 20
8.820000
  0
VERTEX
  8
FOREGROUND
  6
CONTINUOUS
 10
6.098333
 20
8.758333
  0
VERTEX
  8
FOREGROUND
  6
CONTINUOUS
 10
6.100000
 20
8.696667
  0
VERTEX
  8
FOREGROUND
  6
CONTINUOUS
 10
6.100000
 20
1.266667
  0
VERTEX
  8
FOREGROUND
  6
CONTINUOUS
 10
6.098333
 20
1.205000
  0
VERTEX
  8
FOREGROUND
  6
CONTINUOUS
 10
6.093333
 20
1.143333
  0
VERTEX
  8
FOREGROUND
  6
CONTINUOUS
 10
6.086667
 20
1.081667
  0
VERTEX
  8
FOREGROUND
  6
CONTINUOUS
 10
6.075000
 20
1.023333
  0
VERTEX
  8
FOREGROUND
  6
CONTINUOUS
 10
6.061667
 20
0.965000
  0
VERTEX
  8
FOREGROUND
  6
CONTINUOUS
 10
6.046667
 20
0.906667
  0
VERTEX
  8
FOREGROUND
  6
CONTINUOUS
 10
6.026667
 20
0.851667
  0
VERTEX
  8
FOREGROUND
  6
CONTINUOUS
 10
6.005000
 20
0.796667
  0
VERTEX
  8
FOREGROUND
  6
CONTINUOUS
 10
5.981667
 20
0.741667
  0
VERTEX
  8
FOREGROUND
  6
CONTINUOUS
 10
5.955000
 20
0.690000
  0
VERTEX
  8
FOREGROUND
  6
CONTINUOUS
 10
5.925000
 20
0.640000
  0
VERTEX
  8
FOREGROUND
  6
CONTINUOUS
 10
5.893333
 20
0.590000
  0
VERTEX
  8
FOREGROUND
  6
CONTINUOUS
 10
5.860000
 20
0.543333
  0
VERTEX
  8
FOREGROUND
  6
CONTINUOUS
 10
5.825000
 20
0.498333
  0
VERTEX
  8
FOREGROUND
  6
CONTINUOUS
 10
5.786667
 20
0.453333
  0
VERTEX
  8
FOREGROUND
  6
CONTINUOUS
 10
5.746667
 20
0.411667
  0
VERTEX
  8
FOREGROUND
  6
CONTINUOUS
 10
5.705000
 20
0.371667
  0
VERTEX
  8
FOREGROUND
  6
CONTINUOUS
 10
5.660000
 20
0.333333
  0
VERTEX
  8
FOREGROUND
  6
CONTINUOUS
 10
5.615000
 20
0.298333
  0
VERTEX
  8
FOREGROUND
  6
CONTINUOUS
 10
5.568333
 20
0.265000
  0
VERTEX
  8
FOREGROUND
  6
CONTINUOUS
 10
5.518333
 20
0.233333
  0
VERTEX
  8
FOREGROUND
  6
CONTINUOUS
 10
5.468333
 20
0.203333
  0
VERTEX
  8
FOREGROUND
  6
CONTINUOUS
 10
5.416667
 20
0.176667
  0
VERTEX
  8
FOREGROUND
  6
CONTINUOUS
 10
5.361667
 20
0.153333
  0
VERTEX
  8
FOREGROUND
  6
CONTINUOUS
 10
5.306667
 20
0.131667
  0
VERTEX
  8
FOREGROUND
  6
CONTINUOUS
 10
5.251667
 20
0.111667
  0
VERTEX
  8
FOREGROUND
  6
CONTINUOUS
 10
5.193333
 20
0.096667
  0
VERTEX
  8
FOREGROUND
  6
CONTINUOUS
 10
5.135000
 20
0.083333
  0
VERTEX
  8
FOREGROUND
  6
CONTINUOUS
 10
5.076667
 20
0.071667
  0
VERTEX
  8
FOREGROUND
  6
CONTINUOUS
 10
5.015000
 20
0.065000
  0
VERTEX
  8
FOREGROUND
  6
CONTINUOUS
 10
4.953333
 20
0.060000
  0
VERTEX
  8
FOREGROUND
  6
CONTINUOUS
 10
4.891667
 20
0.058333
  0
VERTEX
  8
FOREGROUND
  6
CONTINUOUS
 10
1.258333
 20
0.058333
  0
VERTEX
  8
FOREGROUND
  6
CONTINUOUS
 10
1.196667
 20
0.060000
  0
VERTEX
  8
FOREGROUND
  6
CONTINUOUS
 10
1.135000
 20
0.065000
  0
VERTEX
  8
FOREGROUND
  6
CONTINUOUS
 10
1.075000
 20
0.071667
  0
VERTEX
  8
FOREGROUND
  6
CONTINUOUS
 10
1.015000
 20
0.083333
  0
VERTEX
  8
FOREGROUND
  6
CONTINUOUS
 10
0.956667
 20
0.096667
  0
VERTEX
  8
FOREGROUND
  6
CONTINUOUS
 10
0.900000
 20
0.111667
  0
VERTEX
  8
FOREGROUND
  6
CONTINUOUS
 10
0.843333
 20
0.131667
  0
VERTEX
  8
FOREGROUND
  6
CONTINUOUS
 10
0.788333
 20
0.153333
  0
VERTEX
  8
FOREGROUND
  6
CONTINUOUS
 10
0.735000
 20
0.176667
  0
VERTEX
  8
FOREGROUND
  6
CONTINUOUS
 10
0.683333
 20
0.203333
  0
VERTEX
  8
FOREGROUND
  6
CONTINUOUS
 10
0.631667
 20
0.233333
  0
VERTEX
  8
FOREGROUND
  6
CONTINUOUS
 10
0.583333
 20
0.265000
  0
VERTEX
  8
FOREGROUND
  6
CONTINUOUS
 10
0.535000
 20
0.298333
  0
VERTEX
  8
FOREGROUND
  6
CONTINUOUS
 10
0.490000
 20
0.333333
  0
VERTEX
  8
FOREGROUND
  6
CONTINUOUS
 10
0.446667
 20
0.371667
  0
VERTEX
  8
FOREGROUND
  6
CONTINUOUS
 10
0.405000
 20
0.411667
  0
VERTEX
  8
FOREGROUND
  6
CONTINUOUS
 10
0.365000
 20
0.453333
  0
VERTEX
  8
FOREGROUND
  6
CONTINUOUS
 10
0.326667
 20
0.498333
  0
VERTEX
  8
FOREGROUND
  6
CONTINUOUS
 10
0.290000
 20
0.543333
  0
VERTEX
  8
FOREGROUND
  6
CONTINUOUS
 10
0.256667
 20
0.590000
  0
VERTEX
  8
FOREGROUND
  6
CONTINUOUS
 10
0.225000
 20
0.640000
  0
VERTEX
  8
FOREGROUND
  6
CONTINUOUS
 10
0.196667
 20
0.690000
  0
VERTEX
  8
FOREGROUND
  6
CONTINUOUS
 10
0.170000
 20
0.741667
  0
VERTEX
  8
FOREGROUND
  6
CONTINUOUS
 10
0.145000
 20
0.796667
  0
VERTEX
  8
FOREGROUND
  6
CONTINUOUS
 10
0.123333
 20
0.851667
  0
VERTEX
  8
FOREGROUND
  6
CONTINUOUS
 10
0.105000
 20
0.906667
  0
VERTEX
  8
FOREGROUND
  6
CONTINUOUS
 10
0.088333
 20
0.965000
  0
VERTEX
  8
FOREGROUND
  6
CONTINUOUS
 10
0.075000
 20
1.023333
  0
VERTEX
  8
FOREGROUND
  6
CONTINUOUS
 10
0.065000
 20
1.081667
  0
VERTEX
  8
FOREGROUND
  6
CONTINUOUS
 10
0.056667
 20
1.143333
  0
VERTEX
  8
FOREGROUND
  6
CONTINUOUS
 10
0.051667
 20
1.205000
  0
VERTEX
  8
FOREGROUND
  6
CONTINUOUS
 10
0.050000
 20
1.266667
  0
VERTEX
  8
FOREGROUND
  6
CONTINUOUS
 10
0.050000
 20
8.696667
  0
VERTEX
  8
FOREGROUND
  6
CONTINUOUS
 10
0.051667
 20
8.758333
  0
VERTEX
  8
FOREGROUND
  6
CONTINUOUS
 10
0.056667
 20
8.820000
  0
VERTEX
  8
FOREGROUND
  6
CONTINUOUS
 10
0.065000
 20
8.880000
  0
VERTEX
  8
FOREGROUND
  6
CONTINUOUS
 10
0.075000
 20
8.940000
  0
VERTEX
  8
FOREGROUND
  6
CONTINUOUS
 10
0.088333
 20
8.998333
  0
VERTEX
  8
FOREGROUND
  6
CONTINUOUS
 10
0.105000
 20
9.055000
  0
VERTEX
  8
FOREGROUND
  6
CONTINUOUS
 10
0.123333
 20
9.111667
  0
VERTEX
  8
FOREGROUND
  6
CONTINUOUS
 10
0.145000
 20
9.166667
  0
VERTEX
  8
FOREGROUND
  6
CONTINUOUS
 10
0.170000
 20
9.220000
  0
VERTEX
  8
FOREGROUND
  6
CONTINUOUS
 10
0.196667
 20
9.271667
  0
VERTEX
  8
FOREGROUND
  6
CONTINUOUS
 10
0.225000
 20
9.323333
  0
VERTEX
  8
FOREGROUND
  6
CONTINUOUS
 10
0.256667
 20
9.371667
  0
VERTEX
  8
FOREGROUND
  6
CONTINUOUS
 10
0.290000
 20
9.420000
  0
VERTEX
  8
FOREGROUND
  6
CONTINUOUS
 10
0.326667
 20
9.465000
  0
VERTEX
  8
FOREGROUND
  6
CONTINUOUS
 10
0.365000
 20
9.508333
  0
VERTEX
  8
FOREGROUND
  6
CONTINUOUS
 10
0.405000
 20
9.550000
  0
VERTEX
  8
FOREGROUND
  6
CONTINUOUS
 10
0.446667
 20
9.590000
  0
VERTEX
  8
FOREGROUND
  6
CONTINUOUS
 10
0.490000
 20
9.628333
  0
VERTEX
  8
FOREGROUND
  6
CONTINUOUS
 10
0.535000
 20
9.665000
  0
VERTEX
  8
FOREGROUND
  6
CONTINUOUS
 10
0.583333
 20
9.698333
  0
VERTEX
  8
FOREGROUND
  6
CONTINUOUS
 10
0.631667
 20
9.730000
  0
VERTEX
  8
FOREGROUND
  6
CONTINUOUS
 10
0.683333
 20
9.758333
  0
VERTEX
  8
FOREGROUND
  6
CONTINUOUS
 10
0.735000
 20
9.785000
  0
VERTEX
  8
FOREGROUND
  6
CONTINUOUS
 10
0.788333
 20
9.810000
  0
VERTEX
  8
FOREGROUND
  6
CONTINUOUS
 10
0.843333
 20
9.831667
  0
VERTEX
  8
FOREGROUND
  6
CONTINUOUS
 10
0.900000
 20
9.850000
  0
VERTEX
  8
FOREGROUND
  6
CONTINUOUS
 10
0.956667
 20
9.866667
  0
VERTEX
  8
FOREGROUND
  6
CONTINUOUS
 10
1.015000
 20
9.880000
  0
VERTEX
  8
FOREGROUND
  6
CONTINUOUS
 10
1.075000
 20
9.890000
  0
VERTEX
  8
FOREGROUND
  6
CONTINUOUS
 10
1.135000
 20
9.898333
  0
VERTEX
  8
FOREGROUND
  6
CONTINUOUS
 10
1.196667
 20
9.903333
  0
SEQEND
  8
0
  0
ENDSEC
  0
EOF
