  0
SECTION
  2
HEADER
  9
$ACADVER
  1
AC1006
  9
$EXTMIN
 10
0.000000
 20
0.000000
  9
$EXTMAX
 10
6.233333
 20
12.003333
  9
$LTSCALE
 40
0.166667
  9
$PDMODE
 70
    35
  9
$PDSIZE
 40
0.133333
  0
ENDSEC
  0
SECTION
  2
TABLES
  0
TABLE
  2
LTYPE
 70
     9
  0
LTYPE
  2
CONTINUOUS
 70
    64
  3
Solid line
 72
    65
 73
     0
 40
0.000000
  0
LTYPE
  2
DASHED
 70
    64
  3
__ __ __ __ __ __ __ __ __ __ __ __ __ __ __
 72
    65
 73
     2
 40
0.001250
 49
0.000833
 49
-0.000417
  0
LTYPE
  2
HIDDEN
 70
    64
  3
 _ _ _ _ _ _ _ _ _ _ _ _ _ _ _ _ _ _ _ _ _ _
 72
    65
 73
     2
 40
0.000625
 49
0.000417
 49
-0.000208
  0
LTYPE
  2
CENTER
 70
    64
  3
____ _ ____ _ ____ _ ____ _ ____ _ ____ _ ____
 72
    65
 73
     4
 40
0.003333
 49
0.002083
 49
-0.000417
 49
0.000417
 49
-0.000417
  0
LTYPE
  2
PHANTOM
 70
    64
  3
_____ _ _ _____ _ _ _____ _ _ _____ _ _ ____
 72
    65
 73
     6
 40
0.004167
 49
0.002083
 49
-0.000417
 49
0.000417
 49
-0.000417
 49
0.000417
 49
-0.000417
  0
LTYPE
  2
DOT
 70
    64
  3
...............................................
 72
    65
 73
     2
 40
0.000417
 49
0.000000
 49
-0.000417
  0
LTYPE
  2
DASHDOT
 70
    64
  3
__ . __ . __ . __ . __ . __ . __ . __ . __ . __
 72
    65
 73
     4
 40
0.001667
 49
0.000833
 49
-0.000417
 49
0.000000
 49
-0.000417
  0
LTYPE
  2
BORDER
 70
    64
  3
__ __ . __ __ . __ __ . __ __ . __ __ . __ __
 72
    65
 73
     6
 40
0.002917
 49
0.000833
 49
-0.000417
 49
0.000833
 49
-0.000417
 49
0.000000
 49
-0.000417
  0
LTYPE
  2
DIVIDE
 70
    64
  3
__ . . __ . . __ . . __ . . __ . . __ . . __
 72
    65
 73
     6
 40
0.002083
 49
0.000833
 49
-0.000417
 49
0.000000
 49
-0.000417
 49
0.000000
 49
-0.000417
  0
LTYPE
  2
DOTDOT
 70
    64
  3
 . .  . .  . .  . .  . .  . . 
 72
    65
 73
     5
 40
0.000917
 49
-0.000417
 49
0.000000
 49
-0.000417
 49
0.000000
 49
-0.000417
  0
ENDTAB
  0
TABLE
  2
STYLE
 70
     2
  0
STYLE
 70
     0
  2
SN0
 40
0.000000
 41
0.001667
 50
0.000000
 71
     0
 42
0.000000
  3
ROMAND
  0
STYLE
 70
    68
  2
SV0
 40
0.000000
 41
0.001667
 50
0.000000
 71
     0
 42
0.000000
  3
ROMAND
  0
ENDTAB
  0
TABLE
  2
LAYER
 70
     2
  0
LAYER
  2
FOREGROUND
 70
    64
 62
     7
  6
CONTINUOUS
  0
LAYER
  2
BACKGROUND
 70
    65
 62
    -7
  6
CONTINUOUS
  0
ENDTAB
  0
ENDSEC
  0
SECTION
  2
ENTITIES
  0
POLYLINE
  8
FOREGROUND
  6
CONTINUOUS
 66
     1
 40
0.010000
 41
0.010000
 70
     1
  0
VERTEX
  8
FOREGROUND
  6
CONTINUOUS
 10
1.251667
 20
11.845000
  0
VERTEX
  8
FOREGROUND
  6
CONTINUOUS
 10
4.863333
 20
11.845000
  0
VERTEX
  8
FOREGROUND
  6
CONTINUOUS
 10
4.925000
 20
11.843333
  0
VERTEX
  8
FOREGROUND
  6
CONTINUOUS
 10
4.986667
 20
11.838333
  0
VERTEX
  8
FOREGROUND
  6
CONTINUOUS
 10
5.046667
 20
11.831667
  0
VERTEX
  8
FOREGROUND
  6
CONTINUOUS
 10
5.105000
 20
11.820000
  0
VERTEX
  8
FOREGROUND
  6
CONTINUOUS
 10
5.163333
 20
11.806667
  0
VERTEX
  8
FOREGROUND
  6
CONTINUOUS
 10
5.221667
 20
11.790000
  0
VERTEX
  8
FOREGROUND
  6
CONTINUOUS
 10
5.276667
 20
11.771667
  0
VERTEX
  8
FOREGROUND
  6
CONTINUOUS
 10
5.331667
 20
11.750000
  0
VERTEX
  8
FOREGROUND
  6
CONTINUOUS
 10
5.385000
 20
11.726667
  0
VERTEX
  8
FOREGROUND
  6
CONTINUOUS
 10
5.436667
 20
11.700000
  0
VERTEX
  8
FOREGROUND
  6
CONTINUOUS
 10
5.486667
 20
11.670000
  0
VERTEX
  8
FOREGROUND
  6
CONTINUOUS
 10
5.535000
 20
11.640000
  0
VERTEX
  8
FOREGROUND
  6
CONTINUOUS
 10
5.583333
 20
11.606667
  0
VERTEX
  8
FOREGROUND
  6
CONTINUOUS
 10
5.628333
 20
11.570000
  0
VERTEX
  8
FOREGROUND
  6
CONTINUOUS
 10
5.671667
 20
11.531667
  0
VERTEX
  8
FOREGROUND
  6
CONTINUOUS
 10
5.713333
 20
11.493333
  0
VERTEX
  8
FOREGROUND
  6
CONTINUOUS
 10
5.753333
 20
11.451667
  0
VERTEX
  8
FOREGROUND
  6
CONTINUOUS
 10
5.791667
 20
11.406667
  0
VERTEX
  8
FOREGROUND
  6
CONTINUOUS
 10
5.826667
 20
11.361667
  0
VERTEX
  8
FOREGROUND
  6
CONTINUOUS
 10
5.860000
 20
11.315000
  0
VERTEX
  8
FOREGROUND
  6
CONTINUOUS
 10
5.891667
 20
11.266667
  0
VERTEX
  8
FOREGROUND
  6
CONTINUOUS
 10
5.920000
 20
11.215000
  0
VERTEX
  8
FOREGROUND
  6
CONTINUOUS
 10
5.946667
 20
11.163333
  0
VERTEX
  8
FOREGROUND
  6
CONTINUOUS
 10
5.971667
 20
11.110000
  0
VERTEX
  8
FOREGROUND
  6
CONTINUOUS
 10
5.991667
 20
11.056667
  0
VERTEX
  8
FOREGROUND
  6
CONTINUOUS
 10
6.011667
 20
11.000000
  0
VERTEX
  8
FOREGROUND
  6
CONTINUOUS
 10
6.026667
 20
10.943333
  0
VERTEX
  8
FOREGROUND
  6
CONTINUOUS
 10
6.041667
 20
10.885000
  0
VERTEX
  8
FOREGROUND
  6
CONTINUOUS
 10
6.051667
 20
10.826667
  0
VERTEX
  8
FOREGROUND
  6
CONTINUOUS
 10
6.058333
 20
10.766667
  0
VERTEX
  8
FOREGROUND
  6
CONTINUOUS
 10
6.063333
 20
10.705000
  0
VERTEX
  8
FOREGROUND
  6
CONTINUOUS
 10
6.065000
 20
10.643333
  0
VERTEX
  8
FOREGROUND
  6
CONTINUOUS
 10
6.065000
 20
1.260000
  0
VERTEX
  8
FOREGROUND
  6
CONTINUOUS
 10
6.063333
 20
1.198333
  0
VERTEX
  8
FOREGROUND
  6
CONTINUOUS
 10
6.058333
 20
1.136667
  0
VERTEX
  8
FOREGROUND
  6
CONTINUOUS
 10
6.051667
 20
1.076667
  0
VERTEX
  8
FOREGROUND
  6
CONTINUOUS
 10
6.041667
 20
1.018333
  0
VERTEX
  8
FOREGROUND
  6
CONTINUOUS
 10
6.026667
 20
0.960000
  0
VERTEX
  8
FOREGROUND
  6
CONTINUOUS
 10
6.011667
 20
0.901667
  0
VERTEX
  8
FOREGROUND
  6
CONTINUOUS
 10
5.991667
 20
0.846667
  0
VERTEX
  8
FOREGROUND
  6
CONTINUOUS
 10
5.971667
 20
0.791667
  0
VERTEX
  8
FOREGROUND
  6
CONTINUOUS
 10
5.946667
 20
0.738333
  0
VERTEX
  8
FOREGROUND
  6
CONTINUOUS
 10
5.920000
 20
0.686667
  0
VERTEX
  8
FOREGROUND
  6
CONTINUOUS
 10
5.891667
 20
0.636667
  0
VERTEX
  8
FOREGROUND
  6
CONTINUOUS
 10
5.860000
 20
0.588333
  0
VERTEX
  8
FOREGROUND
  6
CONTINUOUS
 10
5.826667
 20
0.540000
  0
VERTEX
  8
FOREGROUND
  6
CONTINUOUS
 10
5.791667
 20
0.495000
  0
VERTEX
  8
FOREGROUND
  6
CONTINUOUS
 10
5.753333
 20
0.451667
  0
VERTEX
  8
FOREGROUND
  6
CONTINUOUS
 10
5.713333
 20
0.410000
  0
VERTEX
  8
FOREGROUND
  6
CONTINUOUS
 10
5.671667
 20
0.370000
  0
VERTEX
  8
FOREGROUND
  6
CONTINUOUS
 10
5.628333
 20
0.331667
  0
VERTEX
  8
FOREGROUND
  6
CONTINUOUS
 10
5.583333
 20
0.296667
  0
VERTEX
  8
FOREGROUND
  6
CONTINUOUS
 10
5.535000
 20
0.263333
  0
VERTEX
  8
FOREGROUND
  6
CONTINUOUS
 10
5.486667
 20
0.231667
  0
VERTEX
  8
FOREGROUND
  6
CONTINUOUS
 10
5.436667
 20
0.203333
  0
VERTEX
  8
FOREGROUND
  6
CONTINUOUS
 10
5.385000
 20
0.176667
  0
VERTEX
  8
FOREGROUND
  6
CONTINUOUS
 10
5.331667
 20
0.151667
  0
VERTEX
  8
FOREGROUND
  6
CONTINUOUS
 10
5.276667
 20
0.131667
  0
VERTEX
  8
FOREGROUND
  6
CONTINUOUS
 10
5.221667
 20
0.111667
  0
VERTEX
  8
FOREGROUND
  6
CONTINUOUS
 10
5.163333
 20
0.096667
  0
VERTEX
  8
FOREGROUND
  6
CONTINUOUS
 10
5.105000
 20
0.081667
  0
VERTEX
  8
FOREGROUND
  6
CONTINUOUS
 10
5.046667
 20
0.071667
  0
VERTEX
  8
FOREGROUND
  6
CONTINUOUS
 10
4.986667
 20
0.065000
  0
VERTEX
  8
FOREGROUND
  6
CONTINUOUS
 10
4.925000
 20
0.060000
  0
VERTEX
  8
FOREGROUND
  6
CONTINUOUS
 10
4.863333
 20
0.058333
  0
VERTEX
  8
FOREGROUND
  6
CONTINUOUS
 10
1.251667
 20
0.058333
  0
VERTEX
  8
FOREGROUND
  6
CONTINUOUS
 10
1.190000
 20
0.060000
  0
VERTEX
  8
FOREGROUND
  6
CONTINUOUS
 10
1.128333
 20
0.065000
  0
VERTEX
  8
FOREGROUND
  6
CONTINUOUS
 10
1.068333
 20
0.071667
  0
VERTEX
  8
FOREGROUND
  6
CONTINUOUS
 10
1.010000
 20
0.081667
  0
VERTEX
  8
FOREGROUND
  6
CONTINUOUS
 10
0.951667
 20
0.096667
  0
VERTEX
  8
FOREGROUND
  6
CONTINUOUS
 10
0.895000
 20
0.111667
  0
VERTEX
  8
FOREGROUND
  6
CONTINUOUS
 10
0.838333
 20
0.131667
  0
VERTEX
  8
FOREGROUND
  6
CONTINUOUS
 10
0.785000
 20
0.151667
  0
VERTEX
  8
FOREGROUND
  6
CONTINUOUS
 10
0.731667
 20
0.176667
  0
VERTEX
  8
FOREGROUND
  6
CONTINUOUS
 10
0.680000
 20
0.203333
  0
VERTEX
  8
FOREGROUND
  6
CONTINUOUS
 10
0.628333
 20
0.231667
  0
VERTEX
  8
FOREGROUND
  6
CONTINUOUS
 10
0.580000
 20
0.263333
  0
VERTEX
  8
FOREGROUND
  6
CONTINUOUS
 10
0.533333
 20
0.296667
  0
VERTEX
  8
FOREGROUND
  6
CONTINUOUS
 10
0.488333
 20
0.331667
  0
VERTEX
  8
FOREGROUND
  6
CONTINUOUS
 10
0.443333
 20
0.370000
  0
VERTEX
  8
FOREGROUND
  6
CONTINUOUS
 10
0.401667
 20
0.410000
  0
VERTEX
  8
FOREGROUND
  6
CONTINUOUS
 10
0.363333
 20
0.451667
  0
VERTEX
  8
FOREGROUND
  6
CONTINUOUS
 10
0.325000
 20
0.495000
  0
VERTEX
  8
FOREGROUND
  6
CONTINUOUS
 10
0.288333
 20
0.540000
  0
VERTEX
  8
FOREGROUND
  6
CONTINUOUS
 10
0.255000
 20
0.588333
  0
VERTEX
  8
FOREGROUND
  6
CONTINUOUS
 10
0.225000
 20
0.636667
  0
VERTEX
  8
FOREGROUND
  6
CONTINUOUS
 10
0.195000
 20
0.686667
  0
VERTEX
  8
FOREGROUND
  6
CONTINUOUS
 10
0.168333
 20
0.738333
  0
VERTEX
  8
FOREGROUND
  6
CONTINUOUS
 10
0.145000
 20
0.791667
  0
VERTEX
  8
FOREGROUND
  6
CONTINUOUS
 10
0.123333
 20
0.846667
  0
VERTEX
  8
FOREGROUND
  6
CONTINUOUS
 10
0.105000
 20
0.901667
  0
VERTEX
  8
FOREGROUND
  6
CONTINUOUS
 10
0.088333
 20
0.960000
  0
VERTEX
  8
FOREGROUND
  6
CONTINUOUS
 10
0.075000
 20
1.018333
  0
VERTEX
  8
FOREGROUND
  6
CONTINUOUS
 10
0.063333
 20
1.076667
  0
VERTEX
  8
FOREGROUND
  6
CONTINUOUS
 10
0.056667
 20
1.136667
  0
VERTEX
  8
FOREGROUND
  6
CONTINUOUS
 10
0.051667
 20
1.198333
  0
VERTEX
  8
FOREGROUND
  6
CONTINUOUS
 10
0.050000
 20
1.260000
  0
VERTEX
  8
FOREGROUND
  6
CONTINUOUS
 10
0.050000
 20
10.643333
  0
VERTEX
  8
FOREGROUND
  6
CONTINUOUS
 10
0.051667
 20
10.705000
  0
VERTEX
  8
FOREGROUND
  6
CONTINUOUS
 10
0.056667
 20
10.766667
  0
VERTEX
  8
FOREGROUND
  6
CONTINUOUS
 10
0.063333
 20
10.826667
  0
VERTEX
  8
FOREGROUND
  6
CONTINUOUS
 10
0.075000
 20
10.885000
  0
VERTEX
  8
FOREGROUND
  6
CONTINUOUS
 10
0.088333
 20
10.943333
  0
VERTEX
  8
FOREGROUND
  6
CONTINUOUS
 10
0.105000
 20
11.000000
  0
VERTEX
  8
FOREGROUND
  6
CONTINUOUS
 10
0.123333
 20
11.056667
  0
VERTEX
  8
FOREGROUND
  6
CONTINUOUS
 10
0.145000
 20
11.110000
  0
VERTEX
  8
FOREGROUND
  6
CONTINUOUS
 10
0.168333
 20
11.163333
  0
VERTEX
  8
FOREGROUND
  6
CONTINUOUS
 10
0.195000
 20
11.215000
  0
VERTEX
  8
FOREGROUND
  6
CONTINUOUS
 10
0.225000
 20
11.266667
  0
VERTEX
  8
FOREGROUND
  6
CONTINUOUS
 10
0.255000
 20
11.315000
  0
VERTEX
  8
FOREGROUND
  6
CONTINUOUS
 10
0.288333
 20
11.361667
  0
VERTEX
  8
FOREGROUND
  6
CONTINUOUS
 10
0.325000
 20
11.406667
  0
VERTEX
  8
FOREGROUND
  6
CONTINUOUS
 10
0.363333
 20
11.451667
  0
VERTEX
  8
FOREGROUND
  6
CONTINUOUS
 10
0.401667
 20
11.493333
  0
VERTEX
  8
FOREGROUND
  6
CONTINUOUS
 10
0.443333
 20
11.531667
  0
VERTEX
  8
FOREGROUND
  6
CONTINUOUS
 10
0.488333
 20
11.570000
  0
VERTEX
  8
FOREGROUND
  6
CONTINUOUS
 10
0.533333
 20
11.606667
  0
VERTEX
  8
FOREGROUND
  6
CONTINUOUS
 10
0.580000
 20
11.640000
  0
VERTEX
  8
FOREGROUND
  6
CONTINUOUS
 10
0.628333
 20
11.670000
  0
VERTEX
  8
FOREGROUND
  6
CONTINUOUS
 10
0.680000
 20
11.700000
  0
VERTEX
  8
FOREGROUND
  6
CONTINUOUS
 10
0.731667
 20
11.726667
  0
VERTEX
  8
FOREGROUND
  6
CONTINUOUS
 10
0.785000
 20
11.750000
  0
VERTEX
  8
FOREGROUND
  6
CONTINUOUS
 10
0.838333
 20
11.771667
  0
VERTEX
  8
FOREGROUND
  6
CONTINUOUS
 10
0.895000
 20
11.790000
  0
VERTEX
  8
FOREGROUND
  6
CONTINUOUS
 10
0.951667
 20
11.806667
  0
VERTEX
  8
FOREGROUND
  6
CONTINUOUS
 10
1.010000
 20
11.820000
  0
VERTEX
  8
FOREGROUND
  6
CONTINUOUS
 10
1.068333
 20
11.831667
  0
VERTEX
  8
FOREGROUND
  6
CONTINUOUS
 10
1.128333
 20
11.838333
  0
VERTEX
  8
FOREGROUND
  6
CONTINUOUS
 10
1.190000
 20
11.843333
  0
SEQEND
  8
0
  0
ENDSEC
  0
EOF
