  0
SECTION
  2
HEADER
  9
$ACADVER
  1
AC1006
  9
$EXTMIN
 10
0.000000
 20
0.000000
  9
$EXTMAX
 10
6.401667
 20
6.398333
  9
$LTSCALE
 40
0.166667
  9
$PDMODE
 70
    35
  9
$PDSIZE
 40
0.133333
  0
ENDSEC
  0
SECTION
  2
TABLES
  0
TABLE
  2
LTYPE
 70
     9
  0
LTYPE
  2
CONTINUOUS
 70
    64
  3
Solid line
 72
    65
 73
     0
 40
0.000000
  0
LTYPE
  2
DASHED
 70
    64
  3
__ __ __ __ __ __ __ __ __ __ __ __ __ __ __
 72
    65
 73
     2
 40
0.001250
 49
0.000833
 49
-0.000417
  0
LTYPE
  2
HIDDEN
 70
    64
  3
 _ _ _ _ _ _ _ _ _ _ _ _ _ _ _ _ _ _ _ _ _ _
 72
    65
 73
     2
 40
0.000625
 49
0.000417
 49
-0.000208
  0
LTYPE
  2
CENTER
 70
    64
  3
____ _ ____ _ ____ _ ____ _ ____ _ ____ _ ____
 72
    65
 73
     4
 40
0.003333
 49
0.002083
 49
-0.000417
 49
0.000417
 49
-0.000417
  0
LTYPE
  2
PHANTOM
 70
    64
  3
_____ _ _ _____ _ _ _____ _ _ _____ _ _ ____
 72
    65
 73
     6
 40
0.004167
 49
0.002083
 49
-0.000417
 49
0.000417
 49
-0.000417
 49
0.000417
 49
-0.000417
  0
LTYPE
  2
DOT
 70
    64
  3
...............................................
 72
    65
 73
     2
 40
0.000417
 49
0.000000
 49
-0.000417
  0
LTYPE
  2
DASHDOT
 70
    64
  3
__ . __ . __ . __ . __ . __ . __ . __ . __ . __
 72
    65
 73
     4
 40
0.001667
 49
0.000833
 49
-0.000417
 49
0.000000
 49
-0.000417
  0
LTYPE
  2
BORDER
 70
    64
  3
__ __ . __ __ . __ __ . __ __ . __ __ . __ __
 72
    65
 73
     6
 40
0.002917
 49
0.000833
 49
-0.000417
 49
0.000833
 49
-0.000417
 49
0.000000
 49
-0.000417
  0
LTYPE
  2
DIVIDE
 70
    64
  3
__ . . __ . . __ . . __ . . __ . . __ . . __
 72
    65
 73
     6
 40
0.002083
 49
0.000833
 49
-0.000417
 49
0.000000
 49
-0.000417
 49
0.000000
 49
-0.000417
  0
LTYPE
  2
DOTDOT
 70
    64
  3
 . .  . .  . .  . .  . .  . . 
 72
    65
 73
     5
 40
0.000917
 49
-0.000417
 49
0.000000
 49
-0.000417
 49
0.000000
 49
-0.000417
  0
ENDTAB
  0
TABLE
  2
STYLE
 70
     2
  0
STYLE
 70
     0
  2
SN0
 40
0.000000
 41
0.001667
 50
0.000000
 71
     0
 42
0.000000
  3
ROMAND
  0
STYLE
 70
    68
  2
SV0
 40
0.000000
 41
0.001667
 50
0.000000
 71
     0
 42
0.000000
  3
ROMAND
  0
ENDTAB
  0
TABLE
  2
LAYER
 70
     2
  0
LAYER
  2
FOREGROUND
 70
    64
 62
     7
  6
CONTINUOUS
  0
LAYER
  2
BACKGROUND
 70
    65
 62
    -7
  6
CONTINUOUS
  0
ENDTAB
  0
ENDSEC
  0
SECTION
  2
ENTITIES
  0
POLYLINE
  8
FOREGROUND
  6
CONTINUOUS
 66
     1
 40
0.010000
 41
0.010000
 70
     1
  0
VERTEX
  8
FOREGROUND
  6
CONTINUOUS
 10
5.091667
 20
0.050000
  0
VERTEX
  8
FOREGROUND
  6
CONTINUOUS
 10
5.135901
 20
0.050796
  0
VERTEX
  8
FOREGROUND
  6
CONTINUOUS
 10
5.179750
 20
0.053096
  0
VERTEX
  8
FOREGROUND
  6
CONTINUOUS
 10
5.223191
 20
0.056876
  0
VERTEX
  8
FOREGROUND
  6
CONTINUOUS
 10
5.266197
 20
0.062110
  0
VERTEX
  8
FOREGROUND
  6
CONTINUOUS
 10
5.308745
 20
0.068774
  0
VERTEX
  8
FOREGROUND
  6
CONTINUOUS
 10
5.350808
 20
0.076842
  0
VERTEX
  8
FOREGROUND
  6
CONTINUOUS
 10
5.392363
 20
0.086291
  0
VERTEX
  8
FOREGROUND
  6
CONTINUOUS
 10
5.433385
 20
0.097094
  0
VERTEX
  8
FOREGROUND
  6
CONTINUOUS
 10
5.473848
 20
0.109228
  0
VERTEX
  8
FOREGROUND
  6
CONTINUOUS
 10
5.513727
 20
0.122667
  0
VERTEX
  8
FOREGROUND
  6
CONTINUOUS
 10
5.552998
 20
0.137386
  0
VERTEX
  8
FOREGROUND
  6
CONTINUOUS
 10
5.591636
 20
0.153361
  0
VERTEX
  8
FOREGROUND
  6
CONTINUOUS
 10
5.629616
 20
0.170566
  0
VERTEX
  8
FOREGROUND
  6
CONTINUOUS
 10
5.666913
 20
0.188977
  0
VERTEX
  8
FOREGROUND
  6
CONTINUOUS
 10
5.703502
 20
0.208569
  0
VERTEX
  8
FOREGROUND
  6
CONTINUOUS
 10
5.739359
 20
0.229316
  0
VERTEX
  8
FOREGROUND
  6
CONTINUOUS
 10
5.774458
 20
0.251194
  0
VERTEX
  8
FOREGROUND
  6
CONTINUOUS
 10
5.808774
 20
0.274179
  0
VERTEX
  8
FOREGROUND
  6
CONTINUOUS
 10
5.842283
 20
0.298245
  0
VERTEX
  8
FOREGROUND
  6
CONTINUOUS
 10
5.874959
 20
0.323367
  0
VERTEX
  8
FOREGROUND
  6
CONTINUOUS
 10
5.906778
 20
0.349520
  0
VERTEX
  8
FOREGROUND
  6
CONTINUOUS
 10
5.937716
 20
0.376680
  0
VERTEX
  8
FOREGROUND
  6
CONTINUOUS
 10
5.967746
 20
0.404822
  0
VERTEX
  8
FOREGROUND
  6
CONTINUOUS
 10
5.996845
 20
0.433921
  0
VERTEX
  8
FOREGROUND
  6
CONTINUOUS
 10
6.024986
 20
0.463951
  0
VERTEX
  8
FOREGROUND
  6
CONTINUOUS
 10
6.052146
 20
0.494888
  0
VERTEX
  8
FOREGROUND
  6
CONTINUOUS
 10
6.078300
 20
0.526708
  0
VERTEX
  8
FOREGROUND
  6
CONTINUOUS
 10
6.103422
 20
0.559384
  0
VERTEX
  8
FOREGROUND
  6
CONTINUOUS
 10
6.127488
 20
0.592893
  0
VERTEX
  8
FOREGROUND
  6
CONTINUOUS
 10
6.150472
 20
0.627209
  0
VERTEX
  8
FOREGROUND
  6
CONTINUOUS
 10
6.172351
 20
0.662308
  0
VERTEX
  8
FOREGROUND
  6
CONTINUOUS
 10
6.193098
 20
0.698164
  0
VERTEX
  8
FOREGROUND
  6
CONTINUOUS
 10
6.212690
 20
0.734753
  0
VERTEX
  8
FOREGROUND
  6
CONTINUOUS
 10
6.231101
 20
0.772050
  0
VERTEX
  8
FOREGROUND
  6
CONTINUOUS
 10
6.248306
 20
0.810030
  0
VERTEX
  8
FOREGROUND
  6
CONTINUOUS
 10
6.264280
 20
0.848668
  0
VERTEX
  8
FOREGROUND
  6
CONTINUOUS
 10
6.279000
 20
0.887940
  0
VERTEX
  8
FOREGROUND
  6
CONTINUOUS
 10
6.292439
 20
0.927819
  0
VERTEX
  8
FOREGROUND
  6
CONTINUOUS
 10
6.304572
 20
0.968282
  0
VERTEX
  8
FOREGROUND
  6
CONTINUOUS
 10
6.315376
 20
1.009303
  0
VERTEX
  8
FOREGROUND
  6
CONTINUOUS
 10
6.324824
 20
1.050858
  0
VERTEX
  8
FOREGROUND
  6
CONTINUOUS
 10
6.332893
 20
1.092922
  0
VERTEX
  8
FOREGROUND
  6
CONTINUOUS
 10
6.339557
 20
1.135469
  0
VERTEX
  8
FOREGROUND
  6
CONTINUOUS
 10
6.344791
 20
1.178476
  0
VERTEX
  8
FOREGROUND
  6
CONTINUOUS
 10
6.348571
 20
1.221916
  0
VERTEX
  8
FOREGROUND
  6
CONTINUOUS
 10
6.350871
 20
1.265766
  0
VERTEX
  8
FOREGROUND
  6
CONTINUOUS
 10
6.351667
 20
1.310000
  0
VERTEX
  8
FOREGROUND
  6
CONTINUOUS
 10
6.351667
 20
5.088333
  0
VERTEX
  8
FOREGROUND
  6
CONTINUOUS
 10
6.350871
 20
5.132573
  0
VERTEX
  8
FOREGROUND
  6
CONTINUOUS
 10
6.348570
 20
5.176428
  0
VERTEX
  8
FOREGROUND
  6
CONTINUOUS
 10
6.344789
 20
5.219874
  0
VERTEX
  8
FOREGROUND
  6
CONTINUOUS
 10
6.339554
 20
5.262886
  0
VERTEX
  8
FOREGROUND
  6
CONTINUOUS
 10
6.332888
 20
5.305439
  0
VERTEX
  8
FOREGROUND
  6
CONTINUOUS
 10
6.324818
 20
5.347507
  0
VERTEX
  8
FOREGROUND
  6
CONTINUOUS
 10
6.315367
 20
5.389067
  0
VERTEX
  8
FOREGROUND
  6
CONTINUOUS
 10
6.304561
 20
5.430093
  0
VERTEX
  8
FOREGROUND
  6
CONTINUOUS
 10
6.292424
 20
5.470560
  0
VERTEX
  8
FOREGROUND
  6
CONTINUOUS
 10
6.278982
 20
5.510444
  0
VERTEX
  8
FOREGROUND
  6
CONTINUOUS
 10
6.264260
 20
5.549719
  0
VERTEX
  8
FOREGROUND
  6
CONTINUOUS
 10
6.248281
 20
5.588360
  0
VERTEX
  8
FOREGROUND
  6
CONTINUOUS
 10
6.231072
 20
5.626344
  0
VERTEX
  8
FOREGROUND
  6
CONTINUOUS
 10
6.212657
 20
5.663644
  0
VERTEX
  8
FOREGROUND
  6
CONTINUOUS
 10
6.193061
 20
5.700236
  0
VERTEX
  8
FOREGROUND
  6
CONTINUOUS
 10
6.172309
 20
5.736095
  0
VERTEX
  8
FOREGROUND
  6
CONTINUOUS
 10
6.150425
 20
5.771197
  0
VERTEX
  8
FOREGROUND
  6
CONTINUOUS
 10
6.127436
 20
5.805515
  0
VERTEX
  8
FOREGROUND
  6
CONTINUOUS
 10
6.103365
 20
5.839026
  0
VERTEX
  8
FOREGROUND
  6
CONTINUOUS
 10
6.078237
 20
5.871704
  0
VERTEX
  8
FOREGROUND
  6
CONTINUOUS
 10
6.052078
 20
5.903525
  0
VERTEX
  8
FOREGROUND
  6
CONTINUOUS
 10
6.024912
 20
5.934464
  0
VERTEX
  8
FOREGROUND
  6
CONTINUOUS
 10
5.996765
 20
5.964495
  0
VERTEX
  8
FOREGROUND
  6
CONTINUOUS
 10
5.967661
 20
5.993594
  0
VERTEX
  8
FOREGROUND
  6
CONTINUOUS
 10
5.937624
 20
6.021736
  0
VERTEX
  8
FOREGROUND
  6
CONTINUOUS
 10
5.906681
 20
6.048896
  0
VERTEX
  8
FOREGROUND
  6
CONTINUOUS
 10
5.874855
 20
6.075049
  0
VERTEX
  8
FOREGROUND
  6
CONTINUOUS
 10
5.842172
 20
6.100171
  0
VERTEX
  8
FOREGROUND
  6
CONTINUOUS
 10
5.808657
 20
6.124235
  0
VERTEX
  8
FOREGROUND
  6
CONTINUOUS
 10
5.774334
 20
6.147219
  0
VERTEX
  8
FOREGROUND
  6
CONTINUOUS
 10
5.739229
 20
6.169095
  0
VERTEX
  8
FOREGROUND
  6
CONTINUOUS
 10
5.703366
 20
6.189841
  0
VERTEX
  8
FOREGROUND
  6
CONTINUOUS
 10
5.666770
 20
6.209430
  0
VERTEX
  8
FOREGROUND
  6
CONTINUOUS
 10
5.629466
 20
6.227838
  0
VERTEX
  8
FOREGROUND
  6
CONTINUOUS
 10
5.591479
 20
6.245040
  0
VERTEX
  8
FOREGROUND
  6
CONTINUOUS
 10
5.552835
 20
6.261012
  0
VERTEX
  8
FOREGROUND
  6
CONTINUOUS
 10
5.513557
 20
6.275727
  0
VERTEX
  8
FOREGROUND
  6
CONTINUOUS
 10
5.473671
 20
6.289162
  0
VERTEX
  8
FOREGROUND
  6
CONTINUOUS
 10
5.433201
 20
6.301291
  0
VERTEX
  8
FOREGROUND
  6
CONTINUOUS
 10
5.392173
 20
6.312089
  0
VERTEX
  8
FOREGROUND
  6
CONTINUOUS
 10
5.350612
 20
6.321532
  0
VERTEX
  8
FOREGROUND
  6
CONTINUOUS
 10
5.308542
 20
6.329595
  0
VERTEX
  8
FOREGROUND
  6
CONTINUOUS
 10
5.265988
 20
6.336253
  0
VERTEX
  8
FOREGROUND
  6
CONTINUOUS
 10
5.222975
 20
6.341480
  0
VERTEX
  8
FOREGROUND
  6
CONTINUOUS
 10
5.179529
 20
6.345253
  0
VERTEX
  8
FOREGROUND
  6
CONTINUOUS
 10
5.135673
 20
6.347545
  0
VERTEX
  8
FOREGROUND
  6
CONTINUOUS
 10
5.091433
 20
6.348333
  0
VERTEX
  8
FOREGROUND
  6
CONTINUOUS
 10
1.309767
 20
6.348333
  0
VERTEX
  8
FOREGROUND
  6
CONTINUOUS
 10
1.265538
 20
6.347529
  0
VERTEX
  8
FOREGROUND
  6
CONTINUOUS
 10
1.221695
 20
6.345222
  0
VERTEX
  8
FOREGROUND
  6
CONTINUOUS
 10
1.178260
 20
6.341435
  0
VERTEX
  8
FOREGROUND
  6
CONTINUOUS
 10
1.135260
 20
6.336194
  0
VERTEX
  8
FOREGROUND
  6
CONTINUOUS
 10
1.092719
 20
6.329524
  0
VERTEX
  8
FOREGROUND
  6
CONTINUOUS
 10
1.050662
 20
6.321449
  0
VERTEX
  8
FOREGROUND
  6
CONTINUOUS
 10
1.009113
 20
6.311996
  0
VERTEX
  8
FOREGROUND
  6
CONTINUOUS
 10
0.968098
 20
6.301187
  0
VERTEX
  8
FOREGROUND
  6
CONTINUOUS
 10
0.927642
 20
6.289049
  0
VERTEX
  8
FOREGROUND
  6
CONTINUOUS
 10
0.887769
 20
6.275606
  0
VERTEX
  8
FOREGROUND
  6
CONTINUOUS
 10
0.848505
 20
6.260883
  0
VERTEX
  8
FOREGROUND
  6
CONTINUOUS
 10
0.809874
 20
6.244904
  0
VERTEX
  8
FOREGROUND
  6
CONTINUOUS
 10
0.771900
 20
6.227696
  0
VERTEX
  8
FOREGROUND
  6
CONTINUOUS
 10
0.734610
 20
6.209283
  0
VERTEX
  8
FOREGROUND
  6
CONTINUOUS
 10
0.698028
 20
6.189689
  0
VERTEX
  8
FOREGROUND
  6
CONTINUOUS
 10
0.662178
 20
6.168939
  0
VERTEX
  8
FOREGROUND
  6
CONTINUOUS
 10
0.627086
 20
6.147059
  0
VERTEX
  8
FOREGROUND
  6
CONTINUOUS
 10
0.592776
 20
6.124073
  0
VERTEX
  8
FOREGROUND
  6
CONTINUOUS
 10
0.559273
 20
6.100006
  0
VERTEX
  8
FOREGROUND
  6
CONTINUOUS
 10
0.526603
 20
6.074884
  0
VERTEX
  8
FOREGROUND
  6
CONTINUOUS
 10
0.494790
 20
6.048730
  0
VERTEX
  8
FOREGROUND
  6
CONTINUOUS
 10
0.463859
 20
6.021570
  0
VERTEX
  8
FOREGROUND
  6
CONTINUOUS
 10
0.433835
 20
5.993428
  0
VERTEX
  8
FOREGROUND
  6
CONTINUOUS
 10
0.404743
 20
5.964331
  0
VERTEX
  8
FOREGROUND
  6
CONTINUOUS
 10
0.376607
 20
5.934301
  0
VERTEX
  8
FOREGROUND
  6
CONTINUOUS
 10
0.349452
 20
5.903365
  0
VERTEX
  8
FOREGROUND
  6
CONTINUOUS
 10
0.323305
 20
5.871547
  0
VERTEX
  8
FOREGROUND
  6
CONTINUOUS
 10
0.298188
 20
5.838872
  0
VERTEX
  8
FOREGROUND
  6
CONTINUOUS
 10
0.274127
 20
5.805366
  0
VERTEX
  8
FOREGROUND
  6
CONTINUOUS
 10
0.251148
 20
5.771052
  0
VERTEX
  8
FOREGROUND
  6
CONTINUOUS
 10
0.229274
 20
5.735955
  0
VERTEX
  8
FOREGROUND
  6
CONTINUOUS
 10
0.208531
 20
5.700102
  0
VERTEX
  8
FOREGROUND
  6
CONTINUOUS
 10
0.188944
 20
5.663516
  0
VERTEX
  8
FOREGROUND
  6
CONTINUOUS
 10
0.170537
 20
5.626222
  0
VERTEX
  8
FOREGROUND
  6
CONTINUOUS
 10
0.153336
 20
5.588245
  0
VERTEX
  8
FOREGROUND
  6
CONTINUOUS
 10
0.137365
 20
5.549611
  0
VERTEX
  8
FOREGROUND
  6
CONTINUOUS
 10
0.122650
 20
5.510344
  0
VERTEX
  8
FOREGROUND
  6
CONTINUOUS
 10
0.109214
 20
5.470469
  0
VERTEX
  8
FOREGROUND
  6
CONTINUOUS
 10
0.097083
 20
5.430010
  0
VERTEX
  8
FOREGROUND
  6
CONTINUOUS
 10
0.086282
 20
5.388993
  0
VERTEX
  8
FOREGROUND
  6
CONTINUOUS
 10
0.076836
 20
5.347443
  0
VERTEX
  8
FOREGROUND
  6
CONTINUOUS
 10
0.068769
 20
5.305384
  0
VERTEX
  8
FOREGROUND
  6
CONTINUOUS
 10
0.062107
 20
5.262842
  0
VERTEX
  8
FOREGROUND
  6
CONTINUOUS
 10
0.056874
 20
5.219841
  0
VERTEX
  8
FOREGROUND
  6
CONTINUOUS
 10
0.053095
 20
5.176406
  0
VERTEX
  8
FOREGROUND
  6
CONTINUOUS
 10
0.050796
 20
5.132562
  0
VERTEX
  8
FOREGROUND
  6
CONTINUOUS
 10
0.050000
 20
5.088333
  0
VERTEX
  8
FOREGROUND
  6
CONTINUOUS
 10
0.050000
 20
1.310000
  0
VERTEX
  8
FOREGROUND
  6
CONTINUOUS
 10
0.050796
 20
1.265766
  0
VERTEX
  8
FOREGROUND
  6
CONTINUOUS
 10
0.053096
 20
1.221916
  0
VERTEX
  8
FOREGROUND
  6
CONTINUOUS
 10
0.056876
 20
1.178476
  0
VERTEX
  8
FOREGROUND
  6
CONTINUOUS
 10
0.062110
 20
1.135469
  0
VERTEX
  8
FOREGROUND
  6
CONTINUOUS
 10
0.068774
 20
1.092922
  0
VERTEX
  8
FOREGROUND
  6
CONTINUOUS
 10
0.076842
 20
1.050858
  0
VERTEX
  8
FOREGROUND
  6
CONTINUOUS
 10
0.086291
 20
1.009303
  0
VERTEX
  8
FOREGROUND
  6
CONTINUOUS
 10
0.097094
 20
0.968282
  0
VERTEX
  8
FOREGROUND
  6
CONTINUOUS
 10
0.109228
 20
0.927819
  0
VERTEX
  8
FOREGROUND
  6
CONTINUOUS
 10
0.122667
 20
0.887940
  0
VERTEX
  8
FOREGROUND
  6
CONTINUOUS
 10
0.137386
 20
0.848668
  0
VERTEX
  8
FOREGROUND
  6
CONTINUOUS
 10
0.153361
 20
0.810030
  0
VERTEX
  8
FOREGROUND
  6
CONTINUOUS
 10
0.170566
 20
0.772050
  0
VERTEX
  8
FOREGROUND
  6
CONTINUOUS
 10
0.188977
 20
0.734753
  0
VERTEX
  8
FOREGROUND
  6
CONTINUOUS
 10
0.208569
 20
0.698164
  0
VERTEX
  8
FOREGROUND
  6
CONTINUOUS
 10
0.229316
 20
0.662308
  0
VERTEX
  8
FOREGROUND
  6
CONTINUOUS
 10
0.251194
 20
0.627209
  0
VERTEX
  8
FOREGROUND
  6
CONTINUOUS
 10
0.274179
 20
0.592893
  0
VERTEX
  8
FOREGROUND
  6
CONTINUOUS
 10
0.298245
 20
0.559384
  0
VERTEX
  8
FOREGROUND
  6
CONTINUOUS
 10
0.323367
 20
0.526708
  0
VERTEX
  8
FOREGROUND
  6
CONTINUOUS
 10
0.349520
 20
0.494888
  0
VERTEX
  8
FOREGROUND
  6
CONTINUOUS
 10
0.376680
 20
0.463951
  0
VERTEX
  8
FOREGROUND
  6
CONTINUOUS
 10
0.404822
 20
0.433921
  0
VERTEX
  8
FOREGROUND
  6
CONTINUOUS
 10
0.433921
 20
0.404822
  0
VERTEX
  8
FOREGROUND
  6
CONTINUOUS
 10
0.463951
 20
0.376680
  0
VERTEX
  8
FOREGROUND
  6
CONTINUOUS
 10
0.494888
 20
0.349520
  0
VERTEX
  8
FOREGROUND
  6
CONTINUOUS
 10
0.526708
 20
0.323367
  0
VERTEX
  8
FOREGROUND
  6
CONTINUOUS
 10
0.559384
 20
0.298245
  0
VERTEX
  8
FOREGROUND
  6
CONTINUOUS
 10
0.592893
 20
0.274179
  0
VERTEX
  8
FOREGROUND
  6
CONTINUOUS
 10
0.627209
 20
0.251194
  0
VERTEX
  8
FOREGROUND
  6
CONTINUOUS
 10
0.662308
 20
0.229316
  0
VERTEX
  8
FOREGROUND
  6
CONTINUOUS
 10
0.698164
 20
0.208569
  0
VERTEX
  8
FOREGROUND
  6
CONTINUOUS
 10
0.734753
 20
0.188977
  0
VERTEX
  8
FOREGROUND
  6
CONTINUOUS
 10
0.772050
 20
0.170566
  0
VERTEX
  8
FOREGROUND
  6
CONTINUOUS
 10
0.810030
 20
0.153361
  0
VERTEX
  8
FOREGROUND
  6
CONTINUOUS
 10
0.848668
 20
0.137386
  0
VERTEX
  8
FOREGROUND
  6
CONTINUOUS
 10
0.887940
 20
0.122667
  0
VERTEX
  8
FOREGROUND
  6
CONTINUOUS
 10
0.927819
 20
0.109228
  0
VERTEX
  8
FOREGROUND
  6
CONTINUOUS
 10
0.968282
 20
0.097094
  0
VERTEX
  8
FOREGROUND
  6
CONTINUOUS
 10
1.009303
 20
0.086291
  0
VERTEX
  8
FOREGROUND
  6
CONTINUOUS
 10
1.050858
 20
0.076842
  0
VERTEX
  8
FOREGROUND
  6
CONTINUOUS
 10
1.092922
 20
0.068774
  0
VERTEX
  8
FOREGROUND
  6
CONTINUOUS
 10
1.135469
 20
0.062110
  0
VERTEX
  8
FOREGROUND
  6
CONTINUOUS
 10
1.178476
 20
0.056876
  0
VERTEX
  8
FOREGROUND
  6
CONTINUOUS
 10
1.221916
 20
0.053096
  0
VERTEX
  8
FOREGROUND
  6
CONTINUOUS
 10
1.265766
 20
0.050796
  0
VERTEX
  8
FOREGROUND
  6
CONTINUOUS
 10
1.310000
 20
0.050000
  0
SEQEND
  8
0
  0
ENDSEC
  0
EOF
