  0
SECTION
  2
HEADER
  9
$ACADVER
  1
AC1006
  9
$EXTMIN
 10
0.000000
 20
0.000000
  9
$EXTMAX
 10
6.795000
 20
6.791667
  9
$LTSCALE
 40
0.166667
  9
$PDMODE
 70
    35
  9
$PDSIZE
 40
0.133333
  0
ENDSEC
  0
SECTION
  2
TABLES
  0
TABLE
  2
LTYPE
 70
     9
  0
LTYPE
  2
CONTINUOUS
 70
    64
  3
Solid line
 72
    65
 73
     0
 40
0.000000
  0
LTYPE
  2
DASHED
 70
    64
  3
__ __ __ __ __ __ __ __ __ __ __ __ __ __ __
 72
    65
 73
     2
 40
0.001250
 49
0.000833
 49
-0.000417
  0
LTYPE
  2
HIDDEN
 70
    64
  3
 _ _ _ _ _ _ _ _ _ _ _ _ _ _ _ _ _ _ _ _ _ _
 72
    65
 73
     2
 40
0.000625
 49
0.000417
 49
-0.000208
  0
LTYPE
  2
CENTER
 70
    64
  3
____ _ ____ _ ____ _ ____ _ ____ _ ____ _ ____
 72
    65
 73
     4
 40
0.003333
 49
0.002083
 49
-0.000417
 49
0.000417
 49
-0.000417
  0
LTYPE
  2
PHANTOM
 70
    64
  3
_____ _ _ _____ _ _ _____ _ _ _____ _ _ ____
 72
    65
 73
     6
 40
0.004167
 49
0.002083
 49
-0.000417
 49
0.000417
 49
-0.000417
 49
0.000417
 49
-0.000417
  0
LTYPE
  2
DOT
 70
    64
  3
...............................................
 72
    65
 73
     2
 40
0.000417
 49
0.000000
 49
-0.000417
  0
LTYPE
  2
DASHDOT
 70
    64
  3
__ . __ . __ . __ . __ . __ . __ . __ . __ . __
 72
    65
 73
     4
 40
0.001667
 49
0.000833
 49
-0.000417
 49
0.000000
 49
-0.000417
  0
LTYPE
  2
BORDER
 70
    64
  3
__ __ . __ __ . __ __ . __ __ . __ __ . __ __
 72
    65
 73
     6
 40
0.002917
 49
0.000833
 49
-0.000417
 49
0.000833
 49
-0.000417
 49
0.000000
 49
-0.000417
  0
LTYPE
  2
DIVIDE
 70
    64
  3
__ . . __ . . __ . . __ . . __ . . __ . . __
 72
    65
 73
     6
 40
0.002083
 49
0.000833
 49
-0.000417
 49
0.000000
 49
-0.000417
 49
0.000000
 49
-0.000417
  0
LTYPE
  2
DOTDOT
 70
    64
  3
 . .  . .  . .  . .  . .  . . 
 72
    65
 73
     5
 40
0.000917
 49
-0.000417
 49
0.000000
 49
-0.000417
 49
0.000000
 49
-0.000417
  0
ENDTAB
  0
TABLE
  2
STYLE
 70
     2
  0
STYLE
 70
     0
  2
SN0
 40
0.000000
 41
0.001667
 50
0.000000
 71
     0
 42
0.000000
  3
ROMAND
  0
STYLE
 70
    68
  2
SV0
 40
0.000000
 41
0.001667
 50
0.000000
 71
     0
 42
0.000000
  3
ROMAND
  0
ENDTAB
  0
TABLE
  2
LAYER
 70
     2
  0
LAYER
  2
FOREGROUND
 70
    64
 62
     7
  6
CONTINUOUS
  0
LAYER
  2
BACKGROUND
 70
    65
 62
    -7
  6
CONTINUOUS
  0
ENDTAB
  0
ENDSEC
  0
SECTION
  2
ENTITIES
  0
POLYLINE
  8
FOREGROUND
  6
CONTINUOUS
 66
     1
 40
0.010000
 41
0.010000
 70
     1
  0
VERTEX
  8
FOREGROUND
  6
CONTINUOUS
 10
5.406667
 20
0.050000
  0
VERTEX
  8
FOREGROUND
  6
CONTINUOUS
 10
5.453651
 20
0.050845
  0
VERTEX
  8
FOREGROUND
  6
CONTINUOUS
 10
5.500226
 20
0.053289
  0
VERTEX
  8
FOREGROUND
  6
CONTINUOUS
 10
5.546368
 20
0.057303
  0
VERTEX
  8
FOREGROUND
  6
CONTINUOUS
 10
5.592048
 20
0.062863
  0
VERTEX
  8
FOREGROUND
  6
CONTINUOUS
 10
5.637240
 20
0.069941
  0
VERTEX
  8
FOREGROUND
  6
CONTINUOUS
 10
5.681919
 20
0.078511
  0
VERTEX
  8
FOREGROUND
  6
CONTINUOUS
 10
5.726058
 20
0.088547
  0
VERTEX
  8
FOREGROUND
  6
CONTINUOUS
 10
5.769629
 20
0.100022
  0
VERTEX
  8
FOREGROUND
  6
CONTINUOUS
 10
5.812608
 20
0.112910
  0
VERTEX
  8
FOREGROUND
  6
CONTINUOUS
 10
5.854966
 20
0.127185
  0
VERTEX
  8
FOREGROUND
  6
CONTINUOUS
 10
5.896679
 20
0.142819
  0
VERTEX
  8
FOREGROUND
  6
CONTINUOUS
 10
5.937719
 20
0.159787
  0
VERTEX
  8
FOREGROUND
  6
CONTINUOUS
 10
5.978060
 20
0.178062
  0
VERTEX
  8
FOREGROUND
  6
CONTINUOUS
 10
6.017676
 20
0.197617
  0
VERTEX
  8
FOREGROUND
  6
CONTINUOUS
 10
6.056540
 20
0.218427
  0
VERTEX
  8
FOREGROUND
  6
CONTINUOUS
 10
6.094625
 20
0.240464
  0
VERTEX
  8
FOREGROUND
  6
CONTINUOUS
 10
6.131906
 20
0.263703
  0
VERTEX
  8
FOREGROUND
  6
CONTINUOUS
 10
6.168356
 20
0.288116
  0
VERTEX
  8
FOREGROUND
  6
CONTINUOUS
 10
6.203948
 20
0.313678
  0
VERTEX
  8
FOREGROUND
  6
CONTINUOUS
 10
6.238656
 20
0.340362
  0
VERTEX
  8
FOREGROUND
  6
CONTINUOUS
 10
6.272453
 20
0.368141
  0
VERTEX
  8
FOREGROUND
  6
CONTINUOUS
 10
6.305314
 20
0.396990
  0
VERTEX
  8
FOREGROUND
  6
CONTINUOUS
 10
6.337211
 20
0.426881
  0
VERTEX
  8
FOREGROUND
  6
CONTINUOUS
 10
6.368119
 20
0.457789
  0
VERTEX
  8
FOREGROUND
  6
CONTINUOUS
 10
6.398010
 20
0.489686
  0
VERTEX
  8
FOREGROUND
  6
CONTINUOUS
 10
6.426859
 20
0.522547
  0
VERTEX
  8
FOREGROUND
  6
CONTINUOUS
 10
6.454638
 20
0.556344
  0
VERTEX
  8
FOREGROUND
  6
CONTINUOUS
 10
6.481322
 20
0.591052
  0
VERTEX
  8
FOREGROUND
  6
CONTINUOUS
 10
6.506884
 20
0.626644
  0
VERTEX
  8
FOREGROUND
  6
CONTINUOUS
 10
6.531297
 20
0.663094
  0
VERTEX
  8
FOREGROUND
  6
CONTINUOUS
 10
6.554536
 20
0.700375
  0
VERTEX
  8
FOREGROUND
  6
CONTINUOUS
 10
6.576573
 20
0.738460
  0
VERTEX
  8
FOREGROUND
  6
CONTINUOUS
 10
6.597383
 20
0.777324
  0
VERTEX
  8
FOREGROUND
  6
CONTINUOUS
 10
6.616938
 20
0.816940
  0
VERTEX
  8
FOREGROUND
  6
CONTINUOUS
 10
6.635213
 20
0.857281
  0
VERTEX
  8
FOREGROUND
  6
CONTINUOUS
 10
6.652181
 20
0.898321
  0
VERTEX
  8
FOREGROUND
  6
CONTINUOUS
 10
6.667815
 20
0.940034
  0
VERTEX
  8
FOREGROUND
  6
CONTINUOUS
 10
6.682090
 20
0.982392
  0
VERTEX
  8
FOREGROUND
  6
CONTINUOUS
 10
6.694978
 20
1.025371
  0
VERTEX
  8
FOREGROUND
  6
CONTINUOUS
 10
6.706453
 20
1.068942
  0
VERTEX
  8
FOREGROUND
  6
CONTINUOUS
 10
6.716489
 20
1.113081
  0
VERTEX
  8
FOREGROUND
  6
CONTINUOUS
 10
6.725059
 20
1.157760
  0
VERTEX
  8
FOREGROUND
  6
CONTINUOUS
 10
6.732137
 20
1.202952
  0
VERTEX
  8
FOREGROUND
  6
CONTINUOUS
 10
6.737697
 20
1.248632
  0
VERTEX
  8
FOREGROUND
  6
CONTINUOUS
 10
6.741711
 20
1.294774
  0
VERTEX
  8
FOREGROUND
  6
CONTINUOUS
 10
6.744155
 20
1.341349
  0
VERTEX
  8
FOREGROUND
  6
CONTINUOUS
 10
6.745000
 20
1.388333
  0
VERTEX
  8
FOREGROUND
  6
CONTINUOUS
 10
6.745000
 20
5.403333
  0
VERTEX
  8
FOREGROUND
  6
CONTINUOUS
 10
6.744154
 20
5.450323
  0
VERTEX
  8
FOREGROUND
  6
CONTINUOUS
 10
6.741711
 20
5.496905
  0
VERTEX
  8
FOREGROUND
  6
CONTINUOUS
 10
6.737695
 20
5.543052
  0
VERTEX
  8
FOREGROUND
  6
CONTINUOUS
 10
6.732134
 20
5.588738
  0
VERTEX
  8
FOREGROUND
  6
CONTINUOUS
 10
6.725054
 20
5.633936
  0
VERTEX
  8
FOREGROUND
  6
CONTINUOUS
 10
6.716482
 20
5.678620
  0
VERTEX
  8
FOREGROUND
  6
CONTINUOUS
 10
6.706443
 20
5.722763
  0
VERTEX
  8
FOREGROUND
  6
CONTINUOUS
 10
6.694966
 20
5.766340
  0
VERTEX
  8
FOREGROUND
  6
CONTINUOUS
 10
6.682074
 20
5.809323
  0
VERTEX
  8
FOREGROUND
  6
CONTINUOUS
 10
6.667797
 20
5.851686
  0
VERTEX
  8
FOREGROUND
  6
CONTINUOUS
 10
6.652159
 20
5.893403
  0
VERTEX
  8
FOREGROUND
  6
CONTINUOUS
 10
6.635187
 20
5.934447
  0
VERTEX
  8
FOREGROUND
  6
CONTINUOUS
 10
6.616908
 20
5.974792
  0
VERTEX
  8
FOREGROUND
  6
CONTINUOUS
 10
6.597348
 20
6.014411
  0
VERTEX
  8
FOREGROUND
  6
CONTINUOUS
 10
6.576534
 20
6.053278
  0
VERTEX
  8
FOREGROUND
  6
CONTINUOUS
 10
6.554492
 20
6.091366
  0
VERTEX
  8
FOREGROUND
  6
CONTINUOUS
 10
6.531248
 20
6.128650
  0
VERTEX
  8
FOREGROUND
  6
CONTINUOUS
 10
6.506829
 20
6.165102
  0
VERTEX
  8
FOREGROUND
  6
CONTINUOUS
 10
6.481261
 20
6.200696
  0
VERTEX
  8
FOREGROUND
  6
CONTINUOUS
 10
6.454572
 20
6.235406
  0
VERTEX
  8
FOREGROUND
  6
CONTINUOUS
 10
6.426786
 20
6.269205
  0
VERTEX
  8
FOREGROUND
  6
CONTINUOUS
 10
6.397932
 20
6.302067
  0
VERTEX
  8
FOREGROUND
  6
CONTINUOUS
 10
6.368034
 20
6.333965
  0
VERTEX
  8
FOREGROUND
  6
CONTINUOUS
 10
6.337120
 20
6.364873
  0
VERTEX
  8
FOREGROUND
  6
CONTINUOUS
 10
6.305217
 20
6.394765
  0
VERTEX
  8
FOREGROUND
  6
CONTINUOUS
 10
6.272349
 20
6.423613
  0
VERTEX
  8
FOREGROUND
  6
CONTINUOUS
 10
6.238545
 20
6.451393
  0
VERTEX
  8
FOREGROUND
  6
CONTINUOUS
 10
6.203830
 20
6.478076
  0
VERTEX
  8
FOREGROUND
  6
CONTINUOUS
 10
6.168231
 20
6.503637
  0
VERTEX
  8
FOREGROUND
  6
CONTINUOUS
 10
6.131775
 20
6.528049
  0
VERTEX
  8
FOREGROUND
  6
CONTINUOUS
 10
6.094487
 20
6.551286
  0
VERTEX
  8
FOREGROUND
  6
CONTINUOUS
 10
6.056394
 20
6.573321
  0
VERTEX
  8
FOREGROUND
  6
CONTINUOUS
 10
6.017523
 20
6.594128
  0
VERTEX
  8
FOREGROUND
  6
CONTINUOUS
 10
5.977901
 20
6.613681
  0
VERTEX
  8
FOREGROUND
  6
CONTINUOUS
 10
5.937552
 20
6.631952
  0
VERTEX
  8
FOREGROUND
  6
CONTINUOUS
 10
5.896505
 20
6.648916
  0
VERTEX
  8
FOREGROUND
  6
CONTINUOUS
 10
5.854786
 20
6.664546
  0
VERTEX
  8
FOREGROUND
  6
CONTINUOUS
 10
5.812420
 20
6.678816
  0
VERTEX
  8
FOREGROUND
  6
CONTINUOUS
 10
5.769434
 20
6.691699
  0
VERTEX
  8
FOREGROUND
  6
CONTINUOUS
 10
5.725856
 20
6.703169
  0
VERTEX
  8
FOREGROUND
  6
CONTINUOUS
 10
5.681710
 20
6.713200
  0
VERTEX
  8
FOREGROUND
  6
CONTINUOUS
 10
5.637025
 20
6.721764
  0
VERTEX
  8
FOREGROUND
  6
CONTINUOUS
 10
5.591826
 20
6.728835
  0
VERTEX
  8
FOREGROUND
  6
CONTINUOUS
 10
5.546139
 20
6.734388
  0
VERTEX
  8
FOREGROUND
  6
CONTINUOUS
 10
5.499991
 20
6.738395
  0
VERTEX
  8
FOREGROUND
  6
CONTINUOUS
 10
5.453409
 20
6.740830
  0
VERTEX
  8
FOREGROUND
  6
CONTINUOUS
 10
5.406419
 20
6.741667
  0
VERTEX
  8
FOREGROUND
  6
CONTINUOUS
 10
1.388085
 20
6.741667
  0
VERTEX
  8
FOREGROUND
  6
CONTINUOUS
 10
1.341108
 20
6.740813
  0
VERTEX
  8
FOREGROUND
  6
CONTINUOUS
 10
1.294538
 20
6.738362
  0
VERTEX
  8
FOREGROUND
  6
CONTINUOUS
 10
1.248404
 20
6.734339
  0
VERTEX
  8
FOREGROUND
  6
CONTINUOUS
 10
1.202730
 20
6.728773
  0
VERTEX
  8
FOREGROUND
  6
CONTINUOUS
 10
1.157544
 20
6.721688
  0
VERTEX
  8
FOREGROUND
  6
CONTINUOUS
 10
1.112872
 20
6.713111
  0
VERTEX
  8
FOREGROUND
  6
CONTINUOUS
 10
1.068741
 20
6.703070
  0
VERTEX
  8
FOREGROUND
  6
CONTINUOUS
 10
1.025176
 20
6.691589
  0
VERTEX
  8
FOREGROUND
  6
CONTINUOUS
 10
0.982205
 20
6.678696
  0
VERTEX
  8
FOREGROUND
  6
CONTINUOUS
 10
0.939853
 20
6.664417
  0
VERTEX
  8
FOREGROUND
  6
CONTINUOUS
 10
0.898147
 20
6.648779
  0
VERTEX
  8
FOREGROUND
  6
CONTINUOUS
 10
0.857114
 20
6.631808
  0
VERTEX
  8
FOREGROUND
  6
CONTINUOUS
 10
0.816780
 20
6.613530
  0
VERTEX
  8
FOREGROUND
  6
CONTINUOUS
 10
0.777172
 20
6.593971
  0
VERTEX
  8
FOREGROUND
  6
CONTINUOUS
 10
0.738315
 20
6.573159
  0
VERTEX
  8
FOREGROUND
  6
CONTINUOUS
 10
0.700236
 20
6.551120
  0
VERTEX
  8
FOREGROUND
  6
CONTINUOUS
 10
0.662963
 20
6.527879
  0
VERTEX
  8
FOREGROUND
  6
CONTINUOUS
 10
0.626520
 20
6.503464
  0
VERTEX
  8
FOREGROUND
  6
CONTINUOUS
 10
0.590935
 20
6.477901
  0
VERTEX
  8
FOREGROUND
  6
CONTINUOUS
 10
0.556233
 20
6.451217
  0
VERTEX
  8
FOREGROUND
  6
CONTINUOUS
 10
0.522443
 20
6.423437
  0
VERTEX
  8
FOREGROUND
  6
CONTINUOUS
 10
0.489589
 20
6.394588
  0
VERTEX
  8
FOREGROUND
  6
CONTINUOUS
 10
0.457698
 20
6.364698
  0
VERTEX
  8
FOREGROUND
  6
CONTINUOUS
 10
0.426797
 20
6.333791
  0
VERTEX
  8
FOREGROUND
  6
CONTINUOUS
 10
0.396912
 20
6.301894
  0
VERTEX
  8
FOREGROUND
  6
CONTINUOUS
 10
0.368069
 20
6.269035
  0
VERTEX
  8
FOREGROUND
  6
CONTINUOUS
 10
0.340296
 20
6.235239
  0
VERTEX
  8
FOREGROUND
  6
CONTINUOUS
 10
0.313618
 20
6.200533
  0
VERTEX
  8
FOREGROUND
  6
CONTINUOUS
 10
0.288061
 20
6.164943
  0
VERTEX
  8
FOREGROUND
  6
CONTINUOUS
 10
0.263653
 20
6.128496
  0
VERTEX
  8
FOREGROUND
  6
CONTINUOUS
 10
0.240419
 20
6.091218
  0
VERTEX
  8
FOREGROUND
  6
CONTINUOUS
 10
0.218387
 20
6.053135
  0
VERTEX
  8
FOREGROUND
  6
CONTINUOUS
 10
0.197582
 20
6.014274
  0
VERTEX
  8
FOREGROUND
  6
CONTINUOUS
 10
0.178031
 20
5.974662
  0
VERTEX
  8
FOREGROUND
  6
CONTINUOUS
 10
0.159761
 20
5.934325
  0
VERTEX
  8
FOREGROUND
  6
CONTINUOUS
 10
0.142797
 20
5.893288
  0
VERTEX
  8
FOREGROUND
  6
CONTINUOUS
 10
0.127166
 20
5.851580
  0
VERTEX
  8
FOREGROUND
  6
CONTINUOUS
 10
0.112895
 20
5.809226
  0
VERTEX
  8
FOREGROUND
  6
CONTINUOUS
 10
0.100010
 20
5.766252
  0
VERTEX
  8
FOREGROUND
  6
CONTINUOUS
 10
0.088538
 20
5.722685
  0
VERTEX
  8
FOREGROUND
  6
CONTINUOUS
 10
0.078504
 20
5.678552
  0
VERTEX
  8
FOREGROUND
  6
CONTINUOUS
 10
0.069936
 20
5.633878
  0
VERTEX
  8
FOREGROUND
  6
CONTINUOUS
 10
0.062860
 20
5.588691
  0
VERTEX
  8
FOREGROUND
  6
CONTINUOUS
 10
0.057301
 20
5.543016
  0
VERTEX
  8
FOREGROUND
  6
CONTINUOUS
 10
0.053288
 20
5.496881
  0
VERTEX
  8
FOREGROUND
  6
CONTINUOUS
 10
0.050845
 20
5.450311
  0
VERTEX
  8
FOREGROUND
  6
CONTINUOUS
 10
0.050000
 20
5.403333
  0
VERTEX
  8
FOREGROUND
  6
CONTINUOUS
 10
0.050000
 20
1.388333
  0
VERTEX
  8
FOREGROUND
  6
CONTINUOUS
 10
0.050845
 20
1.341349
  0
VERTEX
  8
FOREGROUND
  6
CONTINUOUS
 10
0.053289
 20
1.294774
  0
VERTEX
  8
FOREGROUND
  6
CONTINUOUS
 10
0.057303
 20
1.248632
  0
VERTEX
  8
FOREGROUND
  6
CONTINUOUS
 10
0.062863
 20
1.202952
  0
VERTEX
  8
FOREGROUND
  6
CONTINUOUS
 10
0.069941
 20
1.157760
  0
VERTEX
  8
FOREGROUND
  6
CONTINUOUS
 10
0.078511
 20
1.113081
  0
VERTEX
  8
FOREGROUND
  6
CONTINUOUS
 10
0.088547
 20
1.068942
  0
VERTEX
  8
FOREGROUND
  6
CONTINUOUS
 10
0.100022
 20
1.025371
  0
VERTEX
  8
FOREGROUND
  6
CONTINUOUS
 10
0.112910
 20
0.982392
  0
VERTEX
  8
FOREGROUND
  6
CONTINUOUS
 10
0.127185
 20
0.940034
  0
VERTEX
  8
FOREGROUND
  6
CONTINUOUS
 10
0.142819
 20
0.898321
  0
VERTEX
  8
FOREGROUND
  6
CONTINUOUS
 10
0.159787
 20
0.857281
  0
VERTEX
  8
FOREGROUND
  6
CONTINUOUS
 10
0.178062
 20
0.816940
  0
VERTEX
  8
FOREGROUND
  6
CONTINUOUS
 10
0.197617
 20
0.777324
  0
VERTEX
  8
FOREGROUND
  6
CONTINUOUS
 10
0.218427
 20
0.738460
  0
VERTEX
  8
FOREGROUND
  6
CONTINUOUS
 10
0.240464
 20
0.700375
  0
VERTEX
  8
FOREGROUND
  6
CONTINUOUS
 10
0.263703
 20
0.663094
  0
VERTEX
  8
FOREGROUND
  6
CONTINUOUS
 10
0.288116
 20
0.626644
  0
VERTEX
  8
FOREGROUND
  6
CONTINUOUS
 10
0.313678
 20
0.591052
  0
VERTEX
  8
FOREGROUND
  6
CONTINUOUS
 10
0.340362
 20
0.556344
  0
VERTEX
  8
FOREGROUND
  6
CONTINUOUS
 10
0.368141
 20
0.522547
  0
VERTEX
  8
FOREGROUND
  6
CONTINUOUS
 10
0.396990
 20
0.489686
  0
VERTEX
  8
FOREGROUND
  6
CONTINUOUS
 10
0.426881
 20
0.457789
  0
VERTEX
  8
FOREGROUND
  6
CONTINUOUS
 10
0.457789
 20
0.426881
  0
VERTEX
  8
FOREGROUND
  6
CONTINUOUS
 10
0.489686
 20
0.396990
  0
VERTEX
  8
FOREGROUND
  6
CONTINUOUS
 10
0.522547
 20
0.368141
  0
VERTEX
  8
FOREGROUND
  6
CONTINUOUS
 10
0.556344
 20
0.340362
  0
VERTEX
  8
FOREGROUND
  6
CONTINUOUS
 10
0.591052
 20
0.313678
  0
VERTEX
  8
FOREGROUND
  6
CONTINUOUS
 10
0.626644
 20
0.288116
  0
VERTEX
  8
FOREGROUND
  6
CONTINUOUS
 10
0.663094
 20
0.263703
  0
VERTEX
  8
FOREGROUND
  6
CONTINUOUS
 10
0.700375
 20
0.240464
  0
VERTEX
  8
FOREGROUND
  6
CONTINUOUS
 10
0.738460
 20
0.218427
  0
VERTEX
  8
FOREGROUND
  6
CONTINUOUS
 10
0.777324
 20
0.197617
  0
VERTEX
  8
FOREGROUND
  6
CONTINUOUS
 10
0.816940
 20
0.178062
  0
VERTEX
  8
FOREGROUND
  6
CONTINUOUS
 10
0.857281
 20
0.159787
  0
VERTEX
  8
FOREGROUND
  6
CONTINUOUS
 10
0.898321
 20
0.142819
  0
VERTEX
  8
FOREGROUND
  6
CONTINUOUS
 10
0.940034
 20
0.127185
  0
VERTEX
  8
FOREGROUND
  6
CONTINUOUS
 10
0.982392
 20
0.112910
  0
VERTEX
  8
FOREGROUND
  6
CONTINUOUS
 10
1.025371
 20
0.100022
  0
VERTEX
  8
FOREGROUND
  6
CONTINUOUS
 10
1.068942
 20
0.088547
  0
VERTEX
  8
FOREGROUND
  6
CONTINUOUS
 10
1.113081
 20
0.078511
  0
VERTEX
  8
FOREGROUND
  6
CONTINUOUS
 10
1.157760
 20
0.069941
  0
VERTEX
  8
FOREGROUND
  6
CONTINUOUS
 10
1.202952
 20
0.062863
  0
VERTEX
  8
FOREGROUND
  6
CONTINUOUS
 10
1.248632
 20
0.057303
  0
VERTEX
  8
FOREGROUND
  6
CONTINUOUS
 10
1.294774
 20
0.053289
  0
VERTEX
  8
FOREGROUND
  6
CONTINUOUS
 10
1.341349
 20
0.050845
  0
VERTEX
  8
FOREGROUND
  6
CONTINUOUS
 10
1.388333
 20
0.050000
  0
SEQEND
  8
0
  0
ENDSEC
  0
EOF
