  0
SECTION
  2
HEADER
  9
$ACADVER
  1
AC1006
  9
$EXTMIN
 10
0.000000
 20
0.000000
  9
$EXTMAX
 10
7.186667
 20
7.188333
  9
$LTSCALE
 40
0.166667
  9
$PDMODE
 70
    35
  9
$PDSIZE
 40
0.133333
  0
ENDSEC
  0
SECTION
  2
TABLES
  0
TABLE
  2
LTYPE
 70
     9
  0
LTYPE
  2
CONTINUOUS
 70
    64
  3
Solid line
 72
    65
 73
     0
 40
0.000000
  0
LTYPE
  2
DASHED
 70
    64
  3
__ __ __ __ __ __ __ __ __ __ __ __ __ __ __
 72
    65
 73
     2
 40
0.001250
 49
0.000833
 49
-0.000417
  0
LTYPE
  2
HIDDEN
 70
    64
  3
 _ _ _ _ _ _ _ _ _ _ _ _ _ _ _ _ _ _ _ _ _ _
 72
    65
 73
     2
 40
0.000625
 49
0.000417
 49
-0.000208
  0
LTYPE
  2
CENTER
 70
    64
  3
____ _ ____ _ ____ _ ____ _ ____ _ ____ _ ____
 72
    65
 73
     4
 40
0.003333
 49
0.002083
 49
-0.000417
 49
0.000417
 49
-0.000417
  0
LTYPE
  2
PHANTOM
 70
    64
  3
_____ _ _ _____ _ _ _____ _ _ _____ _ _ ____
 72
    65
 73
     6
 40
0.004167
 49
0.002083
 49
-0.000417
 49
0.000417
 49
-0.000417
 49
0.000417
 49
-0.000417
  0
LTYPE
  2
DOT
 70
    64
  3
...............................................
 72
    65
 73
     2
 40
0.000417
 49
0.000000
 49
-0.000417
  0
LTYPE
  2
DASHDOT
 70
    64
  3
__ . __ . __ . __ . __ . __ . __ . __ . __ . __
 72
    65
 73
     4
 40
0.001667
 49
0.000833
 49
-0.000417
 49
0.000000
 49
-0.000417
  0
LTYPE
  2
BORDER
 70
    64
  3
__ __ . __ __ . __ __ . __ __ . __ __ . __ __
 72
    65
 73
     6
 40
0.002917
 49
0.000833
 49
-0.000417
 49
0.000833
 49
-0.000417
 49
0.000000
 49
-0.000417
  0
LTYPE
  2
DIVIDE
 70
    64
  3
__ . . __ . . __ . . __ . . __ . . __ . . __
 72
    65
 73
     6
 40
0.002083
 49
0.000833
 49
-0.000417
 49
0.000000
 49
-0.000417
 49
0.000000
 49
-0.000417
  0
LTYPE
  2
DOTDOT
 70
    64
  3
 . .  . .  . .  . .  . .  . . 
 72
    65
 73
     5
 40
0.000917
 49
-0.000417
 49
0.000000
 49
-0.000417
 49
0.000000
 49
-0.000417
  0
ENDTAB
  0
TABLE
  2
STYLE
 70
     2
  0
STYLE
 70
     0
  2
SN0
 40
0.000000
 41
0.001667
 50
0.000000
 71
     0
 42
0.000000
  3
ROMAND
  0
STYLE
 70
    68
  2
SV0
 40
0.000000
 41
0.001667
 50
0.000000
 71
     0
 42
0.000000
  3
ROMAND
  0
ENDTAB
  0
TABLE
  2
LAYER
 70
     2
  0
LAYER
  2
FOREGROUND
 70
    64
 62
     7
  6
CONTINUOUS
  0
LAYER
  2
BACKGROUND
 70
    65
 62
    -7
  6
CONTINUOUS
  0
ENDTAB
  0
ENDSEC
  0
SECTION
  2
ENTITIES
  0
POLYLINE
  8
FOREGROUND
  6
CONTINUOUS
 66
     1
 40
0.010000
 41
0.010000
 70
     1
  0
VERTEX
  8
FOREGROUND
  6
CONTINUOUS
 10
5.720000
 20
0.050000
  0
VERTEX
  8
FOREGROUND
  6
CONTINUOUS
 10
5.769734
 20
0.050895
  0
VERTEX
  8
FOREGROUND
  6
CONTINUOUS
 10
5.819036
 20
0.053481
  0
VERTEX
  8
FOREGROUND
  6
CONTINUOUS
 10
5.867878
 20
0.057731
  0
VERTEX
  8
FOREGROUND
  6
CONTINUOUS
 10
5.916231
 20
0.063616
  0
VERTEX
  8
FOREGROUND
  6
CONTINUOUS
 10
5.964069
 20
0.071108
  0
VERTEX
  8
FOREGROUND
  6
CONTINUOUS
 10
6.011363
 20
0.080180
  0
VERTEX
  8
FOREGROUND
  6
CONTINUOUS
 10
6.058085
 20
0.090803
  0
VERTEX
  8
FOREGROUND
  6
CONTINUOUS
 10
6.104207
 20
0.102950
  0
VERTEX
  8
FOREGROUND
  6
CONTINUOUS
 10
6.149701
 20
0.116592
  0
VERTEX
  8
FOREGROUND
  6
CONTINUOUS
 10
6.194539
 20
0.131702
  0
VERTEX
  8
FOREGROUND
  6
CONTINUOUS
 10
6.238693
 20
0.148252
  0
VERTEX
  8
FOREGROUND
  6
CONTINUOUS
 10
6.282135
 20
0.166213
  0
VERTEX
  8
FOREGROUND
  6
CONTINUOUS
 10
6.324837
 20
0.185557
  0
VERTEX
  8
FOREGROUND
  6
CONTINUOUS
 10
6.366772
 20
0.206257
  0
VERTEX
  8
FOREGROUND
  6
CONTINUOUS
 10
6.407910
 20
0.228285
  0
VERTEX
  8
FOREGROUND
  6
CONTINUOUS
 10
6.448225
 20
0.251612
  0
VERTEX
  8
FOREGROUND
  6
CONTINUOUS
 10
6.487688
 20
0.276211
  0
VERTEX
  8
FOREGROUND
  6
CONTINUOUS
 10
6.526271
 20
0.302053
  0
VERTEX
  8
FOREGROUND
  6
CONTINUOUS
 10
6.563946
 20
0.329111
  0
VERTEX
  8
FOREGROUND
  6
CONTINUOUS
 10
6.600686
 20
0.357357
  0
VERTEX
  8
FOREGROUND
  6
CONTINUOUS
 10
6.636462
 20
0.386762
  0
VERTEX
  8
FOREGROUND
  6
CONTINUOUS
 10
6.671246
 20
0.417299
  0
VERTEX
  8
FOREGROUND
  6
CONTINUOUS
 10
6.705010
 20
0.448940
  0
VERTEX
  8
FOREGROUND
  6
CONTINUOUS
 10
6.737726
 20
0.481657
  0
VERTEX
  8
FOREGROUND
  6
CONTINUOUS
 10
6.769367
 20
0.515421
  0
VERTEX
  8
FOREGROUND
  6
CONTINUOUS
 10
6.799904
 20
0.550205
  0
VERTEX
  8
FOREGROUND
  6
CONTINUOUS
 10
6.829310
 20
0.585981
  0
VERTEX
  8
FOREGROUND
  6
CONTINUOUS
 10
6.857555
 20
0.622720
  0
VERTEX
  8
FOREGROUND
  6
CONTINUOUS
 10
6.884614
 20
0.660395
  0
VERTEX
  8
FOREGROUND
  6
CONTINUOUS
 10
6.910456
 20
0.698979
  0
VERTEX
  8
FOREGROUND
  6
CONTINUOUS
 10
6.935055
 20
0.738441
  0
VERTEX
  8
FOREGROUND
  6
CONTINUOUS
 10
6.958382
 20
0.778756
  0
VERTEX
  8
FOREGROUND
  6
CONTINUOUS
 10
6.980410
 20
0.819895
  0
VERTEX
  8
FOREGROUND
  6
CONTINUOUS
 10
7.001110
 20
0.861829
  0
VERTEX
  8
FOREGROUND
  6
CONTINUOUS
 10
7.020454
 20
0.904532
  0
VERTEX
  8
FOREGROUND
  6
CONTINUOUS
 10
7.038415
 20
0.947974
  0
VERTEX
  8
FOREGROUND
  6
CONTINUOUS
 10
7.054964
 20
0.992128
  0
VERTEX
  8
FOREGROUND
  6
CONTINUOUS
 10
7.070074
 20
1.036966
  0
VERTEX
  8
FOREGROUND
  6
CONTINUOUS
 10
7.083717
 20
1.082460
  0
VERTEX
  8
FOREGROUND
  6
CONTINUOUS
 10
7.095863
 20
1.128582
  0
VERTEX
  8
FOREGROUND
  6
CONTINUOUS
 10
7.106487
 20
1.175304
  0
VERTEX
  8
FOREGROUND
  6
CONTINUOUS
 10
7.115559
 20
1.222597
  0
VERTEX
  8
FOREGROUND
  6
CONTINUOUS
 10
7.123051
 20
1.270435
  0
VERTEX
  8
FOREGROUND
  6
CONTINUOUS
 10
7.128936
 20
1.318789
  0
VERTEX
  8
FOREGROUND
  6
CONTINUOUS
 10
7.133186
 20
1.367631
  0
VERTEX
  8
FOREGROUND
  6
CONTINUOUS
 10
7.135772
 20
1.416933
  0
VERTEX
  8
FOREGROUND
  6
CONTINUOUS
 10
7.136667
 20
1.466667
  0
VERTEX
  8
FOREGROUND
  6
CONTINUOUS
 10
7.136667
 20
5.721667
  0
VERTEX
  8
FOREGROUND
  6
CONTINUOUS
 10
7.135772
 20
5.771407
  0
VERTEX
  8
FOREGROUND
  6
CONTINUOUS
 10
7.133185
 20
5.820715
  0
VERTEX
  8
FOREGROUND
  6
CONTINUOUS
 10
7.128934
 20
5.869563
  0
VERTEX
  8
FOREGROUND
  6
CONTINUOUS
 10
7.123048
 20
5.917923
  0
VERTEX
  8
FOREGROUND
  6
CONTINUOUS
 10
7.115553
 20
5.965767
  0
VERTEX
  8
FOREGROUND
  6
CONTINUOUS
 10
7.106479
 20
6.013066
  0
VERTEX
  8
FOREGROUND
  6
CONTINUOUS
 10
7.095853
 20
6.059793
  0
VERTEX
  8
FOREGROUND
  6
CONTINUOUS
 10
7.083704
 20
6.105920
  0
VERTEX
  8
FOREGROUND
  6
CONTINUOUS
 10
7.070058
 20
6.151419
  0
VERTEX
  8
FOREGROUND
  6
CONTINUOUS
 10
7.054945
 20
6.196262
  0
VERTEX
  8
FOREGROUND
  6
CONTINUOUS
 10
7.038391
 20
6.240420
  0
VERTEX
  8
FOREGROUND
  6
CONTINUOUS
 10
7.020426
 20
6.283866
  0
VERTEX
  8
FOREGROUND
  6
CONTINUOUS
 10
7.001077
 20
6.326573
  0
VERTEX
  8
FOREGROUND
  6
CONTINUOUS
 10
6.980373
 20
6.368511
  0
VERTEX
  8
FOREGROUND
  6
CONTINUOUS
 10
6.958340
 20
6.409653
  0
VERTEX
  8
FOREGROUND
  6
CONTINUOUS
 10
6.935008
 20
6.449971
  0
VERTEX
  8
FOREGROUND
  6
CONTINUOUS
 10
6.910403
 20
6.489436
  0
VERTEX
  8
FOREGROUND
  6
CONTINUOUS
 10
6.884555
 20
6.528022
  0
VERTEX
  8
FOREGROUND
  6
CONTINUOUS
 10
6.857491
 20
6.565700
  0
VERTEX
  8
FOREGROUND
  6
CONTINUOUS
 10
6.829240
 20
6.602441
  0
VERTEX
  8
FOREGROUND
  6
CONTINUOUS
 10
6.799828
 20
6.638218
  0
VERTEX
  8
FOREGROUND
  6
CONTINUOUS
 10
6.769284
 20
6.673004
  0
VERTEX
  8
FOREGROUND
  6
CONTINUOUS
 10
6.737637
 20
6.706769
  0
VERTEX
  8
FOREGROUND
  6
CONTINUOUS
 10
6.704914
 20
6.739486
  0
VERTEX
  8
FOREGROUND
  6
CONTINUOUS
 10
6.671143
 20
6.771127
  0
VERTEX
  8
FOREGROUND
  6
CONTINUOUS
 10
6.636352
 20
6.801664
  0
VERTEX
  8
FOREGROUND
  6
CONTINUOUS
 10
6.600569
 20
6.831069
  0
VERTEX
  8
FOREGROUND
  6
CONTINUOUS
 10
6.563822
 20
6.859314
  0
VERTEX
  8
FOREGROUND
  6
CONTINUOUS
 10
6.526140
 20
6.886371
  0
VERTEX
  8
FOREGROUND
  6
CONTINUOUS
 10
6.487549
 20
6.912212
  0
VERTEX
  8
FOREGROUND
  6
CONTINUOUS
 10
6.448079
 20
6.936809
  0
VERTEX
  8
FOREGROUND
  6
CONTINUOUS
 10
6.407757
 20
6.960134
  0
VERTEX
  8
FOREGROUND
  6
CONTINUOUS
 10
6.366611
 20
6.982159
  0
VERTEX
  8
FOREGROUND
  6
CONTINUOUS
 10
6.324669
 20
7.002856
  0
VERTEX
  8
FOREGROUND
  6
CONTINUOUS
 10
6.281959
 20
7.022197
  0
VERTEX
  8
FOREGROUND
  6
CONTINUOUS
 10
6.238509
 20
7.040154
  0
VERTEX
  8
FOREGROUND
  6
CONTINUOUS
 10
6.194348
 20
7.056699
  0
VERTEX
  8
FOREGROUND
  6
CONTINUOUS
 10
6.149502
 20
7.071804
  0
VERTEX
  8
FOREGROUND
  6
CONTINUOUS
 10
6.104001
 20
7.085442
  0
VERTEX
  8
FOREGROUND
  6
CONTINUOUS
 10
6.057871
 20
7.097583
  0
VERTEX
  8
FOREGROUND
  6
CONTINUOUS
 10
6.011142
 20
7.108200
  0
VERTEX
  8
FOREGROUND
  6
CONTINUOUS
 10
5.963841
 20
7.117265
  0
VERTEX
  8
FOREGROUND
  6
CONTINUOUS
 10
5.915996
 20
7.124751
  0
VERTEX
  8
FOREGROUND
  6
CONTINUOUS
 10
5.867635
 20
7.130628
  0
VERTEX
  8
FOREGROUND
  6
CONTINUOUS
 10
5.818787
 20
7.134870
  0
VERTEX
  8
FOREGROUND
  6
CONTINUOUS
 10
5.769478
 20
7.137448
  0
VERTEX
  8
FOREGROUND
  6
CONTINUOUS
 10
5.719737
 20
7.138333
  0
VERTEX
  8
FOREGROUND
  6
CONTINUOUS
 10
1.466404
 20
7.138333
  0
VERTEX
  8
FOREGROUND
  6
CONTINUOUS
 10
1.416677
 20
7.137430
  0
VERTEX
  8
FOREGROUND
  6
CONTINUOUS
 10
1.367382
 20
7.134835
  0
VERTEX
  8
FOREGROUND
  6
CONTINUOUS
 10
1.318547
 20
7.130577
  0
VERTEX
  8
FOREGROUND
  6
CONTINUOUS
 10
1.270200
 20
7.124685
  0
VERTEX
  8
FOREGROUND
  6
CONTINUOUS
 10
1.222369
 20
7.117185
  0
VERTEX
  8
FOREGROUND
  6
CONTINUOUS
 10
1.175083
 20
7.108107
  0
VERTEX
  8
FOREGROUND
  6
CONTINUOUS
 10
1.128368
 20
7.097477
  0
VERTEX
  8
FOREGROUND
  6
CONTINUOUS
 10
1.082254
 20
7.085325
  0
VERTEX
  8
FOREGROUND
  6
CONTINUOUS
 10
1.036767
 20
7.071677
  0
VERTEX
  8
FOREGROUND
  6
CONTINUOUS
 10
0.991936
 20
7.056563
  0
VERTEX
  8
FOREGROUND
  6
CONTINUOUS
 10
0.947790
 20
7.040009
  0
VERTEX
  8
FOREGROUND
  6
CONTINUOUS
 10
0.904355
 20
7.022044
  0
VERTEX
  8
FOREGROUND
  6
CONTINUOUS
 10
0.861660
 20
7.002696
  0
VERTEX
  8
FOREGROUND
  6
CONTINUOUS
 10
0.819733
 20
6.981993
  0
VERTEX
  8
FOREGROUND
  6
CONTINUOUS
 10
0.778602
 20
6.959963
  0
VERTEX
  8
FOREGROUND
  6
CONTINUOUS
 10
0.738295
 20
6.936634
  0
VERTEX
  8
FOREGROUND
  6
CONTINUOUS
 10
0.698840
 20
6.912033
  0
VERTEX
  8
FOREGROUND
  6
CONTINUOUS
 10
0.660264
 20
6.886189
  0
VERTEX
  8
FOREGROUND
  6
CONTINUOUS
 10
0.622596
 20
6.859130
  0
VERTEX
  8
FOREGROUND
  6
CONTINUOUS
 10
0.585864
 20
6.830883
  0
VERTEX
  8
FOREGROUND
  6
CONTINUOUS
 10
0.550095
 20
6.801478
  0
VERTEX
  8
FOREGROUND
  6
CONTINUOUS
 10
0.515318
 20
6.770940
  0
VERTEX
  8
FOREGROUND
  6
CONTINUOUS
 10
0.481561
 20
6.739300
  0
VERTEX
  8
FOREGROUND
  6
CONTINUOUS
 10
0.448851
 20
6.706584
  0
VERTEX
  8
FOREGROUND
  6
CONTINUOUS
 10
0.417217
 20
6.672821
  0
VERTEX
  8
FOREGROUND
  6
CONTINUOUS
 10
0.386686
 20
6.638038
  0
VERTEX
  8
FOREGROUND
  6
CONTINUOUS
 10
0.357287
 20
6.602264
  0
VERTEX
  8
FOREGROUND
  6
CONTINUOUS
 10
0.329047
 20
6.565527
  0
VERTEX
  8
FOREGROUND
  6
CONTINUOUS
 10
0.301995
 20
6.527854
  0
VERTEX
  8
FOREGROUND
  6
CONTINUOUS
 10
0.276158
 20
6.489273
  0
VERTEX
  8
FOREGROUND
  6
CONTINUOUS
 10
0.251565
 20
6.449813
  0
VERTEX
  8
FOREGROUND
  6
CONTINUOUS
 10
0.228243
 20
6.409501
  0
VERTEX
  8
FOREGROUND
  6
CONTINUOUS
 10
0.206220
 20
6.368366
  0
VERTEX
  8
FOREGROUND
  6
CONTINUOUS
 10
0.185525
 20
6.326436
  0
VERTEX
  8
FOREGROUND
  6
CONTINUOUS
 10
0.166185
 20
6.283737
  0
VERTEX
  8
FOREGROUND
  6
CONTINUOUS
 10
0.148228
 20
6.240299
  0
VERTEX
  8
FOREGROUND
  6
CONTINUOUS
 10
0.131683
 20
6.196149
  0
VERTEX
  8
FOREGROUND
  6
CONTINUOUS
 10
0.116576
 20
6.151316
  0
VERTEX
  8
FOREGROUND
  6
CONTINUOUS
 10
0.102937
 20
6.105827
  0
VERTEX
  8
FOREGROUND
  6
CONTINUOUS
 10
0.090793
 20
6.059710
  0
VERTEX
  8
FOREGROUND
  6
CONTINUOUS
 10
0.080173
 20
6.012994
  0
VERTEX
  8
FOREGROUND
  6
CONTINUOUS
 10
0.071103
 20
5.965705
  0
VERTEX
  8
FOREGROUND
  6
CONTINUOUS
 10
0.063612
 20
5.917873
  0
VERTEX
  8
FOREGROUND
  6
CONTINUOUS
 10
0.057729
 20
5.869525
  0
VERTEX
  8
FOREGROUND
  6
CONTINUOUS
 10
0.053480
 20
5.820690
  0
VERTEX
  8
FOREGROUND
  6
CONTINUOUS
 10
0.050895
 20
5.771394
  0
VERTEX
  8
FOREGROUND
  6
CONTINUOUS
 10
0.050000
 20
5.721667
  0
VERTEX
  8
FOREGROUND
  6
CONTINUOUS
 10
0.050000
 20
1.466667
  0
VERTEX
  8
FOREGROUND
  6
CONTINUOUS
 10
0.050895
 20
1.416933
  0
VERTEX
  8
FOREGROUND
  6
CONTINUOUS
 10
0.053481
 20
1.367631
  0
VERTEX
  8
FOREGROUND
  6
CONTINUOUS
 10
0.057731
 20
1.318789
  0
VERTEX
  8
FOREGROUND
  6
CONTINUOUS
 10
0.063616
 20
1.270435
  0
VERTEX
  8
FOREGROUND
  6
CONTINUOUS
 10
0.071108
 20
1.222597
  0
VERTEX
  8
FOREGROUND
  6
CONTINUOUS
 10
0.080180
 20
1.175304
  0
VERTEX
  8
FOREGROUND
  6
CONTINUOUS
 10
0.090803
 20
1.128582
  0
VERTEX
  8
FOREGROUND
  6
CONTINUOUS
 10
0.102950
 20
1.082460
  0
VERTEX
  8
FOREGROUND
  6
CONTINUOUS
 10
0.116592
 20
1.036966
  0
VERTEX
  8
FOREGROUND
  6
CONTINUOUS
 10
0.131702
 20
0.992128
  0
VERTEX
  8
FOREGROUND
  6
CONTINUOUS
 10
0.148252
 20
0.947974
  0
VERTEX
  8
FOREGROUND
  6
CONTINUOUS
 10
0.166213
 20
0.904532
  0
VERTEX
  8
FOREGROUND
  6
CONTINUOUS
 10
0.185557
 20
0.861829
  0
VERTEX
  8
FOREGROUND
  6
CONTINUOUS
 10
0.206257
 20
0.819895
  0
VERTEX
  8
FOREGROUND
  6
CONTINUOUS
 10
0.228285
 20
0.778756
  0
VERTEX
  8
FOREGROUND
  6
CONTINUOUS
 10
0.251612
 20
0.738441
  0
VERTEX
  8
FOREGROUND
  6
CONTINUOUS
 10
0.276211
 20
0.698979
  0
VERTEX
  8
FOREGROUND
  6
CONTINUOUS
 10
0.302053
 20
0.660395
  0
VERTEX
  8
FOREGROUND
  6
CONTINUOUS
 10
0.329111
 20
0.622720
  0
VERTEX
  8
FOREGROUND
  6
CONTINUOUS
 10
0.357357
 20
0.585981
  0
VERTEX
  8
FOREGROUND
  6
CONTINUOUS
 10
0.386762
 20
0.550205
  0
VERTEX
  8
FOREGROUND
  6
CONTINUOUS
 10
0.417299
 20
0.515421
  0
VERTEX
  8
FOREGROUND
  6
CONTINUOUS
 10
0.448940
 20
0.481657
  0
VERTEX
  8
FOREGROUND
  6
CONTINUOUS
 10
0.481657
 20
0.448940
  0
VERTEX
  8
FOREGROUND
  6
CONTINUOUS
 10
0.515421
 20
0.417299
  0
VERTEX
  8
FOREGROUND
  6
CONTINUOUS
 10
0.550205
 20
0.386762
  0
VERTEX
  8
FOREGROUND
  6
CONTINUOUS
 10
0.585981
 20
0.357357
  0
VERTEX
  8
FOREGROUND
  6
CONTINUOUS
 10
0.622720
 20
0.329111
  0
VERTEX
  8
FOREGROUND
  6
CONTINUOUS
 10
0.660395
 20
0.302053
  0
VERTEX
  8
FOREGROUND
  6
CONTINUOUS
 10
0.698979
 20
0.276211
  0
VERTEX
  8
FOREGROUND
  6
CONTINUOUS
 10
0.738441
 20
0.251612
  0
VERTEX
  8
FOREGROUND
  6
CONTINUOUS
 10
0.778756
 20
0.228285
  0
VERTEX
  8
FOREGROUND
  6
CONTINUOUS
 10
0.819895
 20
0.206257
  0
VERTEX
  8
FOREGROUND
  6
CONTINUOUS
 10
0.861829
 20
0.185557
  0
VERTEX
  8
FOREGROUND
  6
CONTINUOUS
 10
0.904532
 20
0.166213
  0
VERTEX
  8
FOREGROUND
  6
CONTINUOUS
 10
0.947974
 20
0.148252
  0
VERTEX
  8
FOREGROUND
  6
CONTINUOUS
 10
0.992128
 20
0.131702
  0
VERTEX
  8
FOREGROUND
  6
CONTINUOUS
 10
1.036966
 20
0.116592
  0
VERTEX
  8
FOREGROUND
  6
CONTINUOUS
 10
1.082460
 20
0.102950
  0
VERTEX
  8
FOREGROUND
  6
CONTINUOUS
 10
1.128582
 20
0.090803
  0
VERTEX
  8
FOREGROUND
  6
CONTINUOUS
 10
1.175304
 20
0.080180
  0
VERTEX
  8
FOREGROUND
  6
CONTINUOUS
 10
1.222597
 20
0.071108
  0
VERTEX
  8
FOREGROUND
  6
CONTINUOUS
 10
1.270435
 20
0.063616
  0
VERTEX
  8
FOREGROUND
  6
CONTINUOUS
 10
1.318789
 20
0.057731
  0
VERTEX
  8
FOREGROUND
  6
CONTINUOUS
 10
1.367631
 20
0.053481
  0
VERTEX
  8
FOREGROUND
  6
CONTINUOUS
 10
1.416933
 20
0.050895
  0
VERTEX
  8
FOREGROUND
  6
CONTINUOUS
 10
1.466667
 20
0.050000
  0
SEQEND
  8
0
  0
ENDSEC
  0
EOF
