  0
SECTION
  2
HEADER
  9
$ACADVER
  1
AC1006
  9
$EXTMIN
 10
0.000000
 20
0.000000
  9
$EXTMAX
 10
7.581667
 20
7.581667
  9
$LTSCALE
 40
0.166667
  9
$PDMODE
 70
    35
  9
$PDSIZE
 40
0.133333
  0
ENDSEC
  0
SECTION
  2
TABLES
  0
TABLE
  2
LTYPE
 70
     9
  0
LTYPE
  2
CONTINUOUS
 70
    64
  3
Solid line
 72
    65
 73
     0
 40
0.000000
  0
LTYPE
  2
DASHED
 70
    64
  3
__ __ __ __ __ __ __ __ __ __ __ __ __ __ __
 72
    65
 73
     2
 40
0.001250
 49
0.000833
 49
-0.000417
  0
LTYPE
  2
HIDDEN
 70
    64
  3
 _ _ _ _ _ _ _ _ _ _ _ _ _ _ _ _ _ _ _ _ _ _
 72
    65
 73
     2
 40
0.000625
 49
0.000417
 49
-0.000208
  0
LTYPE
  2
CENTER
 70
    64
  3
____ _ ____ _ ____ _ ____ _ ____ _ ____ _ ____
 72
    65
 73
     4
 40
0.003333
 49
0.002083
 49
-0.000417
 49
0.000417
 49
-0.000417
  0
LTYPE
  2
PHANTOM
 70
    64
  3
_____ _ _ _____ _ _ _____ _ _ _____ _ _ ____
 72
    65
 73
     6
 40
0.004167
 49
0.002083
 49
-0.000417
 49
0.000417
 49
-0.000417
 49
0.000417
 49
-0.000417
  0
LTYPE
  2
DOT
 70
    64
  3
...............................................
 72
    65
 73
     2
 40
0.000417
 49
0.000000
 49
-0.000417
  0
LTYPE
  2
DASHDOT
 70
    64
  3
__ . __ . __ . __ . __ . __ . __ . __ . __ . __
 72
    65
 73
     4
 40
0.001667
 49
0.000833
 49
-0.000417
 49
0.000000
 49
-0.000417
  0
LTYPE
  2
BORDER
 70
    64
  3
__ __ . __ __ . __ __ . __ __ . __ __ . __ __
 72
    65
 73
     6
 40
0.002917
 49
0.000833
 49
-0.000417
 49
0.000833
 49
-0.000417
 49
0.000000
 49
-0.000417
  0
LTYPE
  2
DIVIDE
 70
    64
  3
__ . . __ . . __ . . __ . . __ . . __ . . __
 72
    65
 73
     6
 40
0.002083
 49
0.000833
 49
-0.000417
 49
0.000000
 49
-0.000417
 49
0.000000
 49
-0.000417
  0
LTYPE
  2
DOTDOT
 70
    64
  3
 . .  . .  . .  . .  . .  . . 
 72
    65
 73
     5
 40
0.000917
 49
-0.000417
 49
0.000000
 49
-0.000417
 49
0.000000
 49
-0.000417
  0
ENDTAB
  0
TABLE
  2
STYLE
 70
     2
  0
STYLE
 70
     0
  2
SN0
 40
0.000000
 41
0.001667
 50
0.000000
 71
     0
 42
0.000000
  3
ROMAND
  0
STYLE
 70
    68
  2
SV0
 40
0.000000
 41
0.001667
 50
0.000000
 71
     0
 42
0.000000
  3
ROMAND
  0
ENDTAB
  0
TABLE
  2
LAYER
 70
     2
  0
LAYER
  2
FOREGROUND
 70
    64
 62
     7
  6
CONTINUOUS
  0
LAYER
  2
BACKGROUND
 70
    65
 62
    -7
  6
CONTINUOUS
  0
ENDTAB
  0
ENDSEC
  0
SECTION
  2
ENTITIES
  0
POLYLINE
  8
FOREGROUND
  6
CONTINUOUS
 66
     1
 40
0.010000
 41
0.010000
 70
     1
  0
VERTEX
  8
FOREGROUND
  6
CONTINUOUS
 10
6.035000
 20
0.050000
  0
VERTEX
  8
FOREGROUND
  6
CONTINUOUS
 10
6.087542
 20
0.050945
  0
VERTEX
  8
FOREGROUND
  6
CONTINUOUS
 10
6.139628
 20
0.053678
  0
VERTEX
  8
FOREGROUND
  6
CONTINUOUS
 10
6.191228
 20
0.058167
  0
VERTEX
  8
FOREGROUND
  6
CONTINUOUS
 10
6.242313
 20
0.064384
  0
VERTEX
  8
FOREGROUND
  6
CONTINUOUS
 10
6.292852
 20
0.072300
  0
VERTEX
  8
FOREGROUND
  6
CONTINUOUS
 10
6.342817
 20
0.081884
  0
VERTEX
  8
FOREGROUND
  6
CONTINUOUS
 10
6.392177
 20
0.093107
  0
VERTEX
  8
FOREGROUND
  6
CONTINUOUS
 10
6.440903
 20
0.105940
  0
VERTEX
  8
FOREGROUND
  6
CONTINUOUS
 10
6.488966
 20
0.120353
  0
VERTEX
  8
FOREGROUND
  6
CONTINUOUS
 10
6.536336
 20
0.136316
  0
VERTEX
  8
FOREGROUND
  6
CONTINUOUS
 10
6.582984
 20
0.153800
  0
VERTEX
  8
FOREGROUND
  6
CONTINUOUS
 10
6.628879
 20
0.172775
  0
VERTEX
  8
FOREGROUND
  6
CONTINUOUS
 10
6.673993
 20
0.193212
  0
VERTEX
  8
FOREGROUND
  6
CONTINUOUS
 10
6.718295
 20
0.215081
  0
VERTEX
  8
FOREGROUND
  6
CONTINUOUS
 10
6.761757
 20
0.238353
  0
VERTEX
  8
FOREGROUND
  6
CONTINUOUS
 10
6.804349
 20
0.262997
  0
VERTEX
  8
FOREGROUND
  6
CONTINUOUS
 10
6.846040
 20
0.288985
  0
VERTEX
  8
FOREGROUND
  6
CONTINUOUS
 10
6.886802
 20
0.316287
  0
VERTEX
  8
FOREGROUND
  6
CONTINUOUS
 10
6.926605
 20
0.344873
  0
VERTEX
  8
FOREGROUND
  6
CONTINUOUS
 10
6.965419
 20
0.374714
  0
VERTEX
  8
FOREGROUND
  6
CONTINUOUS
 10
7.003215
 20
0.405780
  0
VERTEX
  8
FOREGROUND
  6
CONTINUOUS
 10
7.039963
 20
0.438041
  0
VERTEX
  8
FOREGROUND
  6
CONTINUOUS
 10
7.075634
 20
0.471469
  0
VERTEX
  8
FOREGROUND
  6
CONTINUOUS
 10
7.110198
 20
0.506033
  0
VERTEX
  8
FOREGROUND
  6
CONTINUOUS
 10
7.143626
 20
0.541704
  0
VERTEX
  8
FOREGROUND
  6
CONTINUOUS
 10
7.175887
 20
0.578452
  0
VERTEX
  8
FOREGROUND
  6
CONTINUOUS
 10
7.206953
 20
0.616248
  0
VERTEX
  8
FOREGROUND
  6
CONTINUOUS
 10
7.236794
 20
0.655062
  0
VERTEX
  8
FOREGROUND
  6
CONTINUOUS
 10
7.265380
 20
0.694865
  0
VERTEX
  8
FOREGROUND
  6
CONTINUOUS
 10
7.292682
 20
0.735627
  0
VERTEX
  8
FOREGROUND
  6
CONTINUOUS
 10
7.318670
 20
0.777318
  0
VERTEX
  8
FOREGROUND
  6
CONTINUOUS
 10
7.343314
 20
0.819909
  0
VERTEX
  8
FOREGROUND
  6
CONTINUOUS
 10
7.366586
 20
0.863371
  0
VERTEX
  8
FOREGROUND
  6
CONTINUOUS
 10
7.388455
 20
0.907674
  0
VERTEX
  8
FOREGROUND
  6
CONTINUOUS
 10
7.408891
 20
0.952787
  0
VERTEX
  8
FOREGROUND
  6
CONTINUOUS
 10
7.427867
 20
0.998683
  0
VERTEX
  8
FOREGROUND
  6
CONTINUOUS
 10
7.445351
 20
1.045330
  0
VERTEX
  8
FOREGROUND
  6
CONTINUOUS
 10
7.461314
 20
1.092700
  0
VERTEX
  8
FOREGROUND
  6
CONTINUOUS
 10
7.475726
 20
1.140763
  0
VERTEX
  8
FOREGROUND
  6
CONTINUOUS
 10
7.488559
 20
1.189490
  0
VERTEX
  8
FOREGROUND
  6
CONTINUOUS
 10
7.499782
 20
1.238850
  0
VERTEX
  8
FOREGROUND
  6
CONTINUOUS
 10
7.509367
 20
1.288815
  0
VERTEX
  8
FOREGROUND
  6
CONTINUOUS
 10
7.517282
 20
1.339354
  0
VERTEX
  8
FOREGROUND
  6
CONTINUOUS
 10
7.523500
 20
1.390438
  0
VERTEX
  8
FOREGROUND
  6
CONTINUOUS
 10
7.527989
 20
1.442038
  0
VERTEX
  8
FOREGROUND
  6
CONTINUOUS
 10
7.530721
 20
1.494124
  0
VERTEX
  8
FOREGROUND
  6
CONTINUOUS
 10
7.531667
 20
1.546667
  0
VERTEX
  8
FOREGROUND
  6
CONTINUOUS
 10
7.531667
 20
6.035000
  0
VERTEX
  8
FOREGROUND
  6
CONTINUOUS
 10
7.530721
 20
6.087549
  0
VERTEX
  8
FOREGROUND
  6
CONTINUOUS
 10
7.527988
 20
6.139642
  0
VERTEX
  8
FOREGROUND
  6
CONTINUOUS
 10
7.523498
 20
6.191248
  0
VERTEX
  8
FOREGROUND
  6
CONTINUOUS
 10
7.517279
 20
6.242339
  0
VERTEX
  8
FOREGROUND
  6
CONTINUOUS
 10
7.509361
 20
6.292884
  0
VERTEX
  8
FOREGROUND
  6
CONTINUOUS
 10
7.499775
 20
6.342855
  0
VERTEX
  8
FOREGROUND
  6
CONTINUOUS
 10
7.488549
 20
6.392221
  0
VERTEX
  8
FOREGROUND
  6
CONTINUOUS
 10
7.475713
 20
6.440952
  0
VERTEX
  8
FOREGROUND
  6
CONTINUOUS
 10
7.461297
 20
6.489021
  0
VERTEX
  8
FOREGROUND
  6
CONTINUOUS
 10
7.445330
 20
6.536396
  0
VERTEX
  8
FOREGROUND
  6
CONTINUOUS
 10
7.427842
 20
6.583048
  0
VERTEX
  8
FOREGROUND
  6
CONTINUOUS
 10
7.408862
 20
6.628948
  0
VERTEX
  8
FOREGROUND
  6
CONTINUOUS
 10
7.388421
 20
6.674065
  0
VERTEX
  8
FOREGROUND
  6
CONTINUOUS
 10
7.366547
 20
6.718372
  0
VERTEX
  8
FOREGROUND
  6
CONTINUOUS
 10
7.343270
 20
6.761837
  0
VERTEX
  8
FOREGROUND
  6
CONTINUOUS
 10
7.318620
 20
6.804432
  0
VERTEX
  8
FOREGROUND
  6
CONTINUOUS
 10
7.292626
 20
6.846126
  0
VERTEX
  8
FOREGROUND
  6
CONTINUOUS
 10
7.265318
 20
6.886891
  0
VERTEX
  8
FOREGROUND
  6
CONTINUOUS
 10
7.236726
 20
6.926696
  0
VERTEX
  8
FOREGROUND
  6
CONTINUOUS
 10
7.206879
 20
6.965512
  0
VERTEX
  8
FOREGROUND
  6
CONTINUOUS
 10
7.175806
 20
7.003310
  0
VERTEX
  8
FOREGROUND
  6
CONTINUOUS
 10
7.143538
 20
7.040060
  0
VERTEX
  8
FOREGROUND
  6
CONTINUOUS
 10
7.110104
 20
7.075732
  0
VERTEX
  8
FOREGROUND
  6
CONTINUOUS
 10
7.075532
 20
7.110296
  0
VERTEX
  8
FOREGROUND
  6
CONTINUOUS
 10
7.039854
 20
7.143724
  0
VERTEX
  8
FOREGROUND
  6
CONTINUOUS
 10
7.003099
 20
7.175986
  0
VERTEX
  8
FOREGROUND
  6
CONTINUOUS
 10
6.965295
 20
7.207051
  0
VERTEX
  8
FOREGROUND
  6
CONTINUOUS
 10
6.926473
 20
7.236891
  0
VERTEX
  8
FOREGROUND
  6
CONTINUOUS
 10
6.886663
 20
7.265476
  0
VERTEX
  8
FOREGROUND
  6
CONTINUOUS
 10
6.845893
 20
7.292777
  0
VERTEX
  8
FOREGROUND
  6
CONTINUOUS
 10
6.804194
 20
7.318762
  0
VERTEX
  8
FOREGROUND
  6
CONTINUOUS
 10
6.761595
 20
7.343405
  0
VERTEX
  8
FOREGROUND
  6
CONTINUOUS
 10
6.718125
 20
7.366673
  0
VERTEX
  8
FOREGROUND
  6
CONTINUOUS
 10
6.673815
 20
7.388539
  0
VERTEX
  8
FOREGROUND
  6
CONTINUOUS
 10
6.628693
 20
7.408972
  0
VERTEX
  8
FOREGROUND
  6
CONTINUOUS
 10
6.582790
 20
7.427943
  0
VERTEX
  8
FOREGROUND
  6
CONTINUOUS
 10
6.536134
 20
7.445423
  0
VERTEX
  8
FOREGROUND
  6
CONTINUOUS
 10
6.488756
 20
7.461381
  0
VERTEX
  8
FOREGROUND
  6
CONTINUOUS
 10
6.440685
 20
7.475788
  0
VERTEX
  8
FOREGROUND
  6
CONTINUOUS
 10
6.391951
 20
7.488615
  0
VERTEX
  8
FOREGROUND
  6
CONTINUOUS
 10
6.342583
 20
7.499832
  0
VERTEX
  8
FOREGROUND
  6
CONTINUOUS
 10
6.292611
 20
7.509409
  0
VERTEX
  8
FOREGROUND
  6
CONTINUOUS
 10
6.242064
 20
7.517317
  0
VERTEX
  8
FOREGROUND
  6
CONTINUOUS
 10
6.190972
 20
7.523526
  0
VERTEX
  8
FOREGROUND
  6
CONTINUOUS
 10
6.139365
 20
7.528008
  0
VERTEX
  8
FOREGROUND
  6
CONTINUOUS
 10
6.087272
 20
7.530731
  0
VERTEX
  8
FOREGROUND
  6
CONTINUOUS
 10
6.034723
 20
7.531667
  0
VERTEX
  8
FOREGROUND
  6
CONTINUOUS
 10
1.546389
 20
7.531667
  0
VERTEX
  8
FOREGROUND
  6
CONTINUOUS
 10
1.493854
 20
7.530712
  0
VERTEX
  8
FOREGROUND
  6
CONTINUOUS
 10
1.441775
 20
7.527971
  0
VERTEX
  8
FOREGROUND
  6
CONTINUOUS
 10
1.390182
 20
7.523473
  0
VERTEX
  8
FOREGROUND
  6
CONTINUOUS
 10
1.339105
 20
7.517247
  0
VERTEX
  8
FOREGROUND
  6
CONTINUOUS
 10
1.288574
 20
7.509324
  0
VERTEX
  8
FOREGROUND
  6
CONTINUOUS
 10
1.238617
 20
7.499733
  0
VERTEX
  8
FOREGROUND
  6
CONTINUOUS
 10
1.189264
 20
7.488503
  0
VERTEX
  8
FOREGROUND
  6
CONTINUOUS
 10
1.140546
 20
7.475665
  0
VERTEX
  8
FOREGROUND
  6
CONTINUOUS
 10
1.092490
 20
7.461247
  0
VERTEX
  8
FOREGROUND
  6
CONTINUOUS
 10
1.045128
 20
7.445278
  0
VERTEX
  8
FOREGROUND
  6
CONTINUOUS
 10
0.998489
 20
7.427790
  0
VERTEX
  8
FOREGROUND
  6
CONTINUOUS
 10
0.952601
 20
7.408811
  0
VERTEX
  8
FOREGROUND
  6
CONTINUOUS
 10
0.907495
 20
7.388370
  0
VERTEX
  8
FOREGROUND
  6
CONTINUOUS
 10
0.863201
 20
7.366498
  0
VERTEX
  8
FOREGROUND
  6
CONTINUOUS
 10
0.819747
 20
7.343224
  0
VERTEX
  8
FOREGROUND
  6
CONTINUOUS
 10
0.777164
 20
7.318577
  0
VERTEX
  8
FOREGROUND
  6
CONTINUOUS
 10
0.735480
 20
7.292587
  0
VERTEX
  8
FOREGROUND
  6
CONTINUOUS
 10
0.694726
 20
7.265284
  0
VERTEX
  8
FOREGROUND
  6
CONTINUOUS
 10
0.654931
 20
7.236696
  0
VERTEX
  8
FOREGROUND
  6
CONTINUOUS
 10
0.616124
 20
7.206855
  0
VERTEX
  8
FOREGROUND
  6
CONTINUOUS
 10
0.578336
 20
7.175788
  0
VERTEX
  8
FOREGROUND
  6
CONTINUOUS
 10
0.541595
 20
7.143527
  0
VERTEX
  8
FOREGROUND
  6
CONTINUOUS
 10
0.505931
 20
7.110100
  0
VERTEX
  8
FOREGROUND
  6
CONTINUOUS
 10
0.471374
 20
7.075536
  0
VERTEX
  8
FOREGROUND
  6
CONTINUOUS
 10
0.437954
 20
7.039867
  0
VERTEX
  8
FOREGROUND
  6
CONTINUOUS
 10
0.405699
 20
7.003120
  0
VERTEX
  8
FOREGROUND
  6
CONTINUOUS
 10
0.374639
 20
6.965325
  0
VERTEX
  8
FOREGROUND
  6
CONTINUOUS
 10
0.344805
 20
6.926513
  0
VERTEX
  8
FOREGROUND
  6
CONTINUOUS
 10
0.316225
 20
6.886713
  0
VERTEX
  8
FOREGROUND
  6
CONTINUOUS
 10
0.288929
 20
6.845954
  0
VERTEX
  8
FOREGROUND
  6
CONTINUOUS
 10
0.262947
 20
6.804265
  0
VERTEX
  8
FOREGROUND
  6
CONTINUOUS
 10
0.238308
 20
6.761677
  0
VERTEX
  8
FOREGROUND
  6
CONTINUOUS
 10
0.215042
 20
6.718219
  0
VERTEX
  8
FOREGROUND
  6
CONTINUOUS
 10
0.193178
 20
6.673921
  0
VERTEX
  8
FOREGROUND
  6
CONTINUOUS
 10
0.172746
 20
6.628811
  0
VERTEX
  8
FOREGROUND
  6
CONTINUOUS
 10
0.153775
 20
6.582920
  0
VERTEX
  8
FOREGROUND
  6
CONTINUOUS
 10
0.136295
 20
6.536277
  0
VERTEX
  8
FOREGROUND
  6
CONTINUOUS
 10
0.120336
 20
6.488912
  0
VERTEX
  8
FOREGROUND
  6
CONTINUOUS
 10
0.105927
 20
6.440854
  0
VERTEX
  8
FOREGROUND
  6
CONTINUOUS
 10
0.093097
 20
6.392133
  0
VERTEX
  8
FOREGROUND
  6
CONTINUOUS
 10
0.081876
 20
6.342778
  0
VERTEX
  8
FOREGROUND
  6
CONTINUOUS
 10
0.072295
 20
6.292820
  0
VERTEX
  8
FOREGROUND
  6
CONTINUOUS
 10
0.064381
 20
6.242287
  0
VERTEX
  8
FOREGROUND
  6
CONTINUOUS
 10
0.058165
 20
6.191208
  0
VERTEX
  8
FOREGROUND
  6
CONTINUOUS
 10
0.053677
 20
6.139615
  0
VERTEX
  8
FOREGROUND
  6
CONTINUOUS
 10
0.050945
 20
6.087536
  0
VERTEX
  8
FOREGROUND
  6
CONTINUOUS
 10
0.050000
 20
6.035000
  0
VERTEX
  8
FOREGROUND
  6
CONTINUOUS
 10
0.050000
 20
1.546667
  0
VERTEX
  8
FOREGROUND
  6
CONTINUOUS
 10
0.050945
 20
1.494124
  0
VERTEX
  8
FOREGROUND
  6
CONTINUOUS
 10
0.053678
 20
1.442038
  0
VERTEX
  8
FOREGROUND
  6
CONTINUOUS
 10
0.058167
 20
1.390438
  0
VERTEX
  8
FOREGROUND
  6
CONTINUOUS
 10
0.064384
 20
1.339354
  0
VERTEX
  8
FOREGROUND
  6
CONTINUOUS
 10
0.072300
 20
1.288815
  0
VERTEX
  8
FOREGROUND
  6
CONTINUOUS
 10
0.081884
 20
1.238850
  0
VERTEX
  8
FOREGROUND
  6
CONTINUOUS
 10
0.093107
 20
1.189490
  0
VERTEX
  8
FOREGROUND
  6
CONTINUOUS
 10
0.105940
 20
1.140763
  0
VERTEX
  8
FOREGROUND
  6
CONTINUOUS
 10
0.120353
 20
1.092700
  0
VERTEX
  8
FOREGROUND
  6
CONTINUOUS
 10
0.136316
 20
1.045330
  0
VERTEX
  8
FOREGROUND
  6
CONTINUOUS
 10
0.153800
 20
0.998683
  0
VERTEX
  8
FOREGROUND
  6
CONTINUOUS
 10
0.172775
 20
0.952787
  0
VERTEX
  8
FOREGROUND
  6
CONTINUOUS
 10
0.193212
 20
0.907674
  0
VERTEX
  8
FOREGROUND
  6
CONTINUOUS
 10
0.215081
 20
0.863371
  0
VERTEX
  8
FOREGROUND
  6
CONTINUOUS
 10
0.238353
 20
0.819909
  0
VERTEX
  8
FOREGROUND
  6
CONTINUOUS
 10
0.262997
 20
0.777318
  0
VERTEX
  8
FOREGROUND
  6
CONTINUOUS
 10
0.288985
 20
0.735627
  0
VERTEX
  8
FOREGROUND
  6
CONTINUOUS
 10
0.316287
 20
0.694865
  0
VERTEX
  8
FOREGROUND
  6
CONTINUOUS
 10
0.344873
 20
0.655062
  0
VERTEX
  8
FOREGROUND
  6
CONTINUOUS
 10
0.374714
 20
0.616248
  0
VERTEX
  8
FOREGROUND
  6
CONTINUOUS
 10
0.405780
 20
0.578452
  0
VERTEX
  8
FOREGROUND
  6
CONTINUOUS
 10
0.438041
 20
0.541704
  0
VERTEX
  8
FOREGROUND
  6
CONTINUOUS
 10
0.471469
 20
0.506033
  0
VERTEX
  8
FOREGROUND
  6
CONTINUOUS
 10
0.506033
 20
0.471469
  0
VERTEX
  8
FOREGROUND
  6
CONTINUOUS
 10
0.541704
 20
0.438041
  0
VERTEX
  8
FOREGROUND
  6
CONTINUOUS
 10
0.578452
 20
0.405780
  0
VERTEX
  8
FOREGROUND
  6
CONTINUOUS
 10
0.616248
 20
0.374714
  0
VERTEX
  8
FOREGROUND
  6
CONTINUOUS
 10
0.655062
 20
0.344873
  0
VERTEX
  8
FOREGROUND
  6
CONTINUOUS
 10
0.694865
 20
0.316287
  0
VERTEX
  8
FOREGROUND
  6
CONTINUOUS
 10
0.735627
 20
0.288985
  0
VERTEX
  8
FOREGROUND
  6
CONTINUOUS
 10
0.777318
 20
0.262997
  0
VERTEX
  8
FOREGROUND
  6
CONTINUOUS
 10
0.819909
 20
0.238353
  0
VERTEX
  8
FOREGROUND
  6
CONTINUOUS
 10
0.863371
 20
0.215081
  0
VERTEX
  8
FOREGROUND
  6
CONTINUOUS
 10
0.907674
 20
0.193212
  0
VERTEX
  8
FOREGROUND
  6
CONTINUOUS
 10
0.952787
 20
0.172775
  0
VERTEX
  8
FOREGROUND
  6
CONTINUOUS
 10
0.998683
 20
0.153800
  0
VERTEX
  8
FOREGROUND
  6
CONTINUOUS
 10
1.045330
 20
0.136316
  0
VERTEX
  8
FOREGROUND
  6
CONTINUOUS
 10
1.092700
 20
0.120353
  0
VERTEX
  8
FOREGROUND
  6
CONTINUOUS
 10
1.140763
 20
0.105940
  0
VERTEX
  8
FOREGROUND
  6
CONTINUOUS
 10
1.189490
 20
0.093107
  0
VERTEX
  8
FOREGROUND
  6
CONTINUOUS
 10
1.238850
 20
0.081884
  0
VERTEX
  8
FOREGROUND
  6
CONTINUOUS
 10
1.288815
 20
0.072300
  0
VERTEX
  8
FOREGROUND
  6
CONTINUOUS
 10
1.339354
 20
0.064384
  0
VERTEX
  8
FOREGROUND
  6
CONTINUOUS
 10
1.390438
 20
0.058167
  0
VERTEX
  8
FOREGROUND
  6
CONTINUOUS
 10
1.442038
 20
0.053678
  0
VERTEX
  8
FOREGROUND
  6
CONTINUOUS
 10
1.494124
 20
0.050945
  0
VERTEX
  8
FOREGROUND
  6
CONTINUOUS
 10
1.546667
 20
0.050000
  0
SEQEND
  8
0
  0
ENDSEC
  0
EOF
