  0
SECTION
  2
HEADER
  9
$ACADVER
  1
AC1006
  9
$EXTMIN
 10
0.000000
 20
0.000000
  9
$EXTMAX
 10
0.971667
 20
0.971667
  9
$LTSCALE
 40
0.166667
  9
$PDMODE
 70
    35
  9
$PDSIZE
 40
0.133333
  0
ENDSEC
  0
SECTION
  2
TABLES
  0
TABLE
  2
LTYPE
 70
     9
  0
LTYPE
  2
CONTINUOUS
 70
    64
  3
Solid line
 72
    65
 73
     0
 40
0.000000
  0
LTYPE
  2
DASHED
 70
    64
  3
__ __ __ __ __ __ __ __ __ __ __ __ __ __ __
 72
    65
 73
     2
 40
0.001250
 49
0.000833
 49
-0.000417
  0
LTYPE
  2
HIDDEN
 70
    64
  3
 _ _ _ _ _ _ _ _ _ _ _ _ _ _ _ _ _ _ _ _ _ _
 72
    65
 73
     2
 40
0.000625
 49
0.000417
 49
-0.000208
  0
LTYPE
  2
CENTER
 70
    64
  3
____ _ ____ _ ____ _ ____ _ ____ _ ____ _ ____
 72
    65
 73
     4
 40
0.003333
 49
0.002083
 49
-0.000417
 49
0.000417
 49
-0.000417
  0
LTYPE
  2
PHANTOM
 70
    64
  3
_____ _ _ _____ _ _ _____ _ _ _____ _ _ ____
 72
    65
 73
     6
 40
0.004167
 49
0.002083
 49
-0.000417
 49
0.000417
 49
-0.000417
 49
0.000417
 49
-0.000417
  0
LTYPE
  2
DOT
 70
    64
  3
...............................................
 72
    65
 73
     2
 40
0.000417
 49
0.000000
 49
-0.000417
  0
LTYPE
  2
DASHDOT
 70
    64
  3
__ . __ . __ . __ . __ . __ . __ . __ . __ . __
 72
    65
 73
     4
 40
0.001667
 49
0.000833
 49
-0.000417
 49
0.000000
 49
-0.000417
  0
LTYPE
  2
BORDER
 70
    64
  3
__ __ . __ __ . __ __ . __ __ . __ __ . __ __
 72
    65
 73
     6
 40
0.002917
 49
0.000833
 49
-0.000417
 49
0.000833
 49
-0.000417
 49
0.000000
 49
-0.000417
  0
LTYPE
  2
DIVIDE
 70
    64
  3
__ . . __ . . __ . . __ . . __ . . __ . . __
 72
    65
 73
     6
 40
0.002083
 49
0.000833
 49
-0.000417
 49
0.000000
 49
-0.000417
 49
0.000000
 49
-0.000417
  0
LTYPE
  2
DOTDOT
 70
    64
  3
 . .  . .  . .  . .  . .  . . 
 72
    65
 73
     5
 40
0.000917
 49
-0.000417
 49
0.000000
 49
-0.000417
 49
0.000000
 49
-0.000417
  0
ENDTAB
  0
TABLE
  2
STYLE
 70
     2
  0
STYLE
 70
     0
  2
SN0
 40
0.000000
 41
0.001667
 50
0.000000
 71
     0
 42
0.000000
  3
ROMAND
  0
STYLE
 70
    68
  2
SV0
 40
0.000000
 41
0.001667
 50
0.000000
 71
     0
 42
0.000000
  3
ROMAND
  0
ENDTAB
  0
TABLE
  2
LAYER
 70
     2
  0
LAYER
  2
FOREGROUND
 70
    64
 62
     7
  6
CONTINUOUS
  0
LAYER
  2
BACKGROUND
 70
    65
 62
    -7
  6
CONTINUOUS
  0
ENDTAB
  0
ENDSEC
  0
SECTION
  2
ENTITIES
  0
POLYLINE
  8
FOREGROUND
  6
CONTINUOUS
 66
     1
 40
0.010000
 41
0.010000
 70
     1
  0
VERTEX
  8
FOREGROUND
  6
CONTINUOUS
 10
0.746667
 20
0.050000
  0
VERTEX
  8
FOREGROUND
  6
CONTINUOUS
 10
0.753379
 20
0.050131
  0
VERTEX
  8
FOREGROUND
  6
CONTINUOUS
 10
0.760027
 20
0.050512
  0
VERTEX
  8
FOREGROUND
  6
CONTINUOUS
 10
0.766607
 20
0.051138
  0
VERTEX
  8
FOREGROUND
  6
CONTINUOUS
 10
0.773113
 20
0.052003
  0
VERTEX
  8
FOREGROUND
  6
CONTINUOUS
 10
0.779542
 20
0.053105
  0
VERTEX
  8
FOREGROUND
  6
CONTINUOUS
 10
0.785889
 20
0.054437
  0
VERTEX
  8
FOREGROUND
  6
CONTINUOUS
 10
0.792149
 20
0.055996
  0
VERTEX
  8
FOREGROUND
  6
CONTINUOUS
 10
0.798317
 20
0.057778
  0
VERTEX
  8
FOREGROUND
  6
CONTINUOUS
 10
0.804390
 20
0.059777
  0
VERTEX
  8
FOREGROUND
  6
CONTINUOUS
 10
0.810363
 20
0.061989
  0
VERTEX
  8
FOREGROUND
  6
CONTINUOUS
 10
0.816231
 20
0.064409
  0
VERTEX
  8
FOREGROUND
  6
CONTINUOUS
 10
0.821989
 20
0.067034
  0
VERTEX
  8
FOREGROUND
  6
CONTINUOUS
 10
0.827634
 20
0.069858
  0
VERTEX
  8
FOREGROUND
  6
CONTINUOUS
 10
0.833160
 20
0.072878
  0
VERTEX
  8
FOREGROUND
  6
CONTINUOUS
 10
0.838564
 20
0.076088
  0
VERTEX
  8
FOREGROUND
  6
CONTINUOUS
 10
0.843840
 20
0.079484
  0
VERTEX
  8
FOREGROUND
  6
CONTINUOUS
 10
0.848985
 20
0.083061
  0
VERTEX
  8
FOREGROUND
  6
CONTINUOUS
 10
0.853993
 20
0.086816
  0
VERTEX
  8
FOREGROUND
  6
CONTINUOUS
 10
0.858860
 20
0.090743
  0
VERTEX
  8
FOREGROUND
  6
CONTINUOUS
 10
0.863581
 20
0.094838
  0
VERTEX
  8
FOREGROUND
  6
CONTINUOUS
 10
0.868153
 20
0.099096
  0
VERTEX
  8
FOREGROUND
  6
CONTINUOUS
 10
0.872571
 20
0.103513
  0
VERTEX
  8
FOREGROUND
  6
CONTINUOUS
 10
0.876829
 20
0.108085
  0
VERTEX
  8
FOREGROUND
  6
CONTINUOUS
 10
0.880924
 20
0.112807
  0
VERTEX
  8
FOREGROUND
  6
CONTINUOUS
 10
0.884851
 20
0.117674
  0
VERTEX
  8
FOREGROUND
  6
CONTINUOUS
 10
0.888605
 20
0.122682
  0
VERTEX
  8
FOREGROUND
  6
CONTINUOUS
 10
0.892183
 20
0.127826
  0
VERTEX
  8
FOREGROUND
  6
CONTINUOUS
 10
0.895579
 20
0.133103
  0
VERTEX
  8
FOREGROUND
  6
CONTINUOUS
 10
0.898789
 20
0.138506
  0
VERTEX
  8
FOREGROUND
  6
CONTINUOUS
 10
0.901808
 20
0.144033
  0
VERTEX
  8
FOREGROUND
  6
CONTINUOUS
 10
0.904633
 20
0.149678
  0
VERTEX
  8
FOREGROUND
  6
CONTINUOUS
 10
0.907257
 20
0.155436
  0
VERTEX
  8
FOREGROUND
  6
CONTINUOUS
 10
0.909678
 20
0.161304
  0
VERTEX
  8
FOREGROUND
  6
CONTINUOUS
 10
0.911890
 20
0.167276
  0
VERTEX
  8
FOREGROUND
  6
CONTINUOUS
 10
0.913889
 20
0.173349
  0
VERTEX
  8
FOREGROUND
  6
CONTINUOUS
 10
0.915670
 20
0.179518
  0
VERTEX
  8
FOREGROUND
  6
CONTINUOUS
 10
0.917230
 20
0.185778
  0
VERTEX
  8
FOREGROUND
  6
CONTINUOUS
 10
0.918562
 20
0.192124
  0
VERTEX
  8
FOREGROUND
  6
CONTINUOUS
 10
0.919663
 20
0.198553
  0
VERTEX
  8
FOREGROUND
  6
CONTINUOUS
 10
0.920529
 20
0.205060
  0
VERTEX
  8
FOREGROUND
  6
CONTINUOUS
 10
0.921154
 20
0.211639
  0
VERTEX
  8
FOREGROUND
  6
CONTINUOUS
 10
0.921535
 20
0.218288
  0
VERTEX
  8
FOREGROUND
  6
CONTINUOUS
 10
0.921667
 20
0.225000
  0
VERTEX
  8
FOREGROUND
  6
CONTINUOUS
 10
0.921667
 20
0.746667
  0
VERTEX
  8
FOREGROUND
  6
CONTINUOUS
 10
0.921535
 20
0.753380
  0
VERTEX
  8
FOREGROUND
  6
CONTINUOUS
 10
0.921154
 20
0.760029
  0
VERTEX
  8
FOREGROUND
  6
CONTINUOUS
 10
0.920529
 20
0.766610
  0
VERTEX
  8
FOREGROUND
  6
CONTINUOUS
 10
0.919663
 20
0.773117
  0
VERTEX
  8
FOREGROUND
  6
CONTINUOUS
 10
0.918561
 20
0.779546
  0
VERTEX
  8
FOREGROUND
  6
CONTINUOUS
 10
0.917228
 20
0.785894
  0
VERTEX
  8
FOREGROUND
  6
CONTINUOUS
 10
0.915669
 20
0.792154
  0
VERTEX
  8
FOREGROUND
  6
CONTINUOUS
 10
0.913887
 20
0.798323
  0
VERTEX
  8
FOREGROUND
  6
CONTINUOUS
 10
0.911888
 20
0.804397
  0
VERTEX
  8
FOREGROUND
  6
CONTINUOUS
 10
0.909675
 20
0.810370
  0
VERTEX
  8
FOREGROUND
  6
CONTINUOUS
 10
0.907254
 20
0.816239
  0
VERTEX
  8
FOREGROUND
  6
CONTINUOUS
 10
0.904629
 20
0.821998
  0
VERTEX
  8
FOREGROUND
  6
CONTINUOUS
 10
0.901804
 20
0.827643
  0
VERTEX
  8
FOREGROUND
  6
CONTINUOUS
 10
0.898783
 20
0.833170
  0
VERTEX
  8
FOREGROUND
  6
CONTINUOUS
 10
0.895573
 20
0.838574
  0
VERTEX
  8
FOREGROUND
  6
CONTINUOUS
 10
0.892176
 20
0.843850
  0
VERTEX
  8
FOREGROUND
  6
CONTINUOUS
 10
0.888598
 20
0.848995
  0
VERTEX
  8
FOREGROUND
  6
CONTINUOUS
 10
0.884843
 20
0.854003
  0
VERTEX
  8
FOREGROUND
  6
CONTINUOUS
 10
0.880915
 20
0.858871
  0
VERTEX
  8
FOREGROUND
  6
CONTINUOUS
 10
0.876819
 20
0.863593
  0
VERTEX
  8
FOREGROUND
  6
CONTINUOUS
 10
0.872560
 20
0.868165
  0
VERTEX
  8
FOREGROUND
  6
CONTINUOUS
 10
0.868141
 20
0.872582
  0
VERTEX
  8
FOREGROUND
  6
CONTINUOUS
 10
0.863569
 20
0.876841
  0
VERTEX
  8
FOREGROUND
  6
CONTINUOUS
 10
0.858846
 20
0.880935
  0
VERTEX
  8
FOREGROUND
  6
CONTINUOUS
 10
0.853978
 20
0.884862
  0
VERTEX
  8
FOREGROUND
  6
CONTINUOUS
 10
0.848969
 20
0.888617
  0
VERTEX
  8
FOREGROUND
  6
CONTINUOUS
 10
0.843823
 20
0.892194
  0
VERTEX
  8
FOREGROUND
  6
CONTINUOUS
 10
0.838546
 20
0.895590
  0
VERTEX
  8
FOREGROUND
  6
CONTINUOUS
 10
0.833142
 20
0.898800
  0
VERTEX
  8
FOREGROUND
  6
CONTINUOUS
 10
0.827614
 20
0.901819
  0
VERTEX
  8
FOREGROUND
  6
CONTINUOUS
 10
0.821968
 20
0.904643
  0
VERTEX
  8
FOREGROUND
  6
CONTINUOUS
 10
0.816209
 20
0.907267
  0
VERTEX
  8
FOREGROUND
  6
CONTINUOUS
 10
0.810340
 20
0.909687
  0
VERTEX
  8
FOREGROUND
  6
CONTINUOUS
 10
0.804366
 20
0.911898
  0
VERTEX
  8
FOREGROUND
  6
CONTINUOUS
 10
0.798293
 20
0.913897
  0
VERTEX
  8
FOREGROUND
  6
CONTINUOUS
 10
0.792123
 20
0.915677
  0
VERTEX
  8
FOREGROUND
  6
CONTINUOUS
 10
0.785862
 20
0.917236
  0
VERTEX
  8
FOREGROUND
  6
CONTINUOUS
 10
0.779515
 20
0.918567
  0
VERTEX
  8
FOREGROUND
  6
CONTINUOUS
 10
0.773085
 20
0.919668
  0
VERTEX
  8
FOREGROUND
  6
CONTINUOUS
 10
0.766577
 20
0.920532
  0
VERTEX
  8
FOREGROUND
  6
CONTINUOUS
 10
0.759997
 20
0.921157
  0
VERTEX
  8
FOREGROUND
  6
CONTINUOUS
 10
0.753348
 20
0.921536
  0
VERTEX
  8
FOREGROUND
  6
CONTINUOUS
 10
0.746634
 20
0.921667
  0
VERTEX
  8
FOREGROUND
  6
CONTINUOUS
 10
0.224968
 20
0.921667
  0
VERTEX
  8
FOREGROUND
  6
CONTINUOUS
 10
0.218256
 20
0.921534
  0
VERTEX
  8
FOREGROUND
  6
CONTINUOUS
 10
0.211609
 20
0.921152
  0
VERTEX
  8
FOREGROUND
  6
CONTINUOUS
 10
0.205030
 20
0.920526
  0
VERTEX
  8
FOREGROUND
  6
CONTINUOUS
 10
0.198524
 20
0.919659
  0
VERTEX
  8
FOREGROUND
  6
CONTINUOUS
 10
0.192097
 20
0.918557
  0
VERTEX
  8
FOREGROUND
  6
CONTINUOUS
 10
0.185751
 20
0.917223
  0
VERTEX
  8
FOREGROUND
  6
CONTINUOUS
 10
0.179492
 20
0.915663
  0
VERTEX
  8
FOREGROUND
  6
CONTINUOUS
 10
0.173325
 20
0.913881
  0
VERTEX
  8
FOREGROUND
  6
CONTINUOUS
 10
0.167253
 20
0.911882
  0
VERTEX
  8
FOREGROUND
  6
CONTINUOUS
 10
0.161281
 20
0.909669
  0
VERTEX
  8
FOREGROUND
  6
CONTINUOUS
 10
0.155414
 20
0.907248
  0
VERTEX
  8
FOREGROUND
  6
CONTINUOUS
 10
0.149657
 20
0.904623
  0
VERTEX
  8
FOREGROUND
  6
CONTINUOUS
 10
0.144013
 20
0.901798
  0
VERTEX
  8
FOREGROUND
  6
CONTINUOUS
 10
0.138488
 20
0.898778
  0
VERTEX
  8
FOREGROUND
  6
CONTINUOUS
 10
0.133085
 20
0.895568
  0
VERTEX
  8
FOREGROUND
  6
CONTINUOUS
 10
0.127810
 20
0.892172
  0
VERTEX
  8
FOREGROUND
  6
CONTINUOUS
 10
0.122666
 20
0.888594
  0
VERTEX
  8
FOREGROUND
  6
CONTINUOUS
 10
0.117659
 20
0.884839
  0
VERTEX
  8
FOREGROUND
  6
CONTINUOUS
 10
0.112793
 20
0.880912
  0
VERTEX
  8
FOREGROUND
  6
CONTINUOUS
 10
0.108072
 20
0.876817
  0
VERTEX
  8
FOREGROUND
  6
CONTINUOUS
 10
0.103502
 20
0.872559
  0
VERTEX
  8
FOREGROUND
  6
CONTINUOUS
 10
0.099085
 20
0.868142
  0
VERTEX
  8
FOREGROUND
  6
CONTINUOUS
 10
0.094828
 20
0.863570
  0
VERTEX
  8
FOREGROUND
  6
CONTINUOUS
 10
0.090733
 20
0.858849
  0
VERTEX
  8
FOREGROUND
  6
CONTINUOUS
 10
0.086807
 20
0.853982
  0
VERTEX
  8
FOREGROUND
  6
CONTINUOUS
 10
0.083054
 20
0.848974
  0
VERTEX
  8
FOREGROUND
  6
CONTINUOUS
 10
0.079477
 20
0.843830
  0
VERTEX
  8
FOREGROUND
  6
CONTINUOUS
 10
0.076082
 20
0.838554
  0
VERTEX
  8
FOREGROUND
  6
CONTINUOUS
 10
0.072872
 20
0.833151
  0
VERTEX
  8
FOREGROUND
  6
CONTINUOUS
 10
0.069854
 20
0.827625
  0
VERTEX
  8
FOREGROUND
  6
CONTINUOUS
 10
0.067030
 20
0.821981
  0
VERTEX
  8
FOREGROUND
  6
CONTINUOUS
 10
0.064406
 20
0.816223
  0
VERTEX
  8
FOREGROUND
  6
CONTINUOUS
 10
0.061986
 20
0.810355
  0
VERTEX
  8
FOREGROUND
  6
CONTINUOUS
 10
0.059774
 20
0.804383
  0
VERTEX
  8
FOREGROUND
  6
CONTINUOUS
 10
0.057776
 20
0.798311
  0
VERTEX
  8
FOREGROUND
  6
CONTINUOUS
 10
0.055995
 20
0.792143
  0
VERTEX
  8
FOREGROUND
  6
CONTINUOUS
 10
0.054436
 20
0.785884
  0
VERTEX
  8
FOREGROUND
  6
CONTINUOUS
 10
0.053104
 20
0.779538
  0
VERTEX
  8
FOREGROUND
  6
CONTINUOUS
 10
0.052003
 20
0.773110
  0
VERTEX
  8
FOREGROUND
  6
CONTINUOUS
 10
0.051137
 20
0.766604
  0
VERTEX
  8
FOREGROUND
  6
CONTINUOUS
 10
0.050512
 20
0.760026
  0
VERTEX
  8
FOREGROUND
  6
CONTINUOUS
 10
0.050131
 20
0.753378
  0
VERTEX
  8
FOREGROUND
  6
CONTINUOUS
 10
0.050000
 20
0.746667
  0
VERTEX
  8
FOREGROUND
  6
CONTINUOUS
 10
0.050000
 20
0.225000
  0
VERTEX
  8
FOREGROUND
  6
CONTINUOUS
 10
0.050131
 20
0.218288
  0
VERTEX
  8
FOREGROUND
  6
CONTINUOUS
 10
0.050512
 20
0.211639
  0
VERTEX
  8
FOREGROUND
  6
CONTINUOUS
 10
0.051138
 20
0.205060
  0
VERTEX
  8
FOREGROUND
  6
CONTINUOUS
 10
0.052003
 20
0.198553
  0
VERTEX
  8
FOREGROUND
  6
CONTINUOUS
 10
0.053105
 20
0.192124
  0
VERTEX
  8
FOREGROUND
  6
CONTINUOUS
 10
0.054437
 20
0.185778
  0
VERTEX
  8
FOREGROUND
  6
CONTINUOUS
 10
0.055996
 20
0.179518
  0
VERTEX
  8
FOREGROUND
  6
CONTINUOUS
 10
0.057778
 20
0.173349
  0
VERTEX
  8
FOREGROUND
  6
CONTINUOUS
 10
0.059777
 20
0.167276
  0
VERTEX
  8
FOREGROUND
  6
CONTINUOUS
 10
0.061989
 20
0.161304
  0
VERTEX
  8
FOREGROUND
  6
CONTINUOUS
 10
0.064409
 20
0.155436
  0
VERTEX
  8
FOREGROUND
  6
CONTINUOUS
 10
0.067034
 20
0.149678
  0
VERTEX
  8
FOREGROUND
  6
CONTINUOUS
 10
0.069858
 20
0.144033
  0
VERTEX
  8
FOREGROUND
  6
CONTINUOUS
 10
0.072878
 20
0.138506
  0
VERTEX
  8
FOREGROUND
  6
CONTINUOUS
 10
0.076088
 20
0.133103
  0
VERTEX
  8
FOREGROUND
  6
CONTINUOUS
 10
0.079484
 20
0.127826
  0
VERTEX
  8
FOREGROUND
  6
CONTINUOUS
 10
0.083061
 20
0.122682
  0
VERTEX
  8
FOREGROUND
  6
CONTINUOUS
 10
0.086816
 20
0.117674
  0
VERTEX
  8
FOREGROUND
  6
CONTINUOUS
 10
0.090743
 20
0.112807
  0
VERTEX
  8
FOREGROUND
  6
CONTINUOUS
 10
0.094838
 20
0.108085
  0
VERTEX
  8
FOREGROUND
  6
CONTINUOUS
 10
0.099096
 20
0.103513
  0
VERTEX
  8
FOREGROUND
  6
CONTINUOUS
 10
0.103513
 20
0.099096
  0
VERTEX
  8
FOREGROUND
  6
CONTINUOUS
 10
0.108085
 20
0.094838
  0
VERTEX
  8
FOREGROUND
  6
CONTINUOUS
 10
0.112807
 20
0.090743
  0
VERTEX
  8
FOREGROUND
  6
CONTINUOUS
 10
0.117674
 20
0.086816
  0
VERTEX
  8
FOREGROUND
  6
CONTINUOUS
 10
0.122682
 20
0.083061
  0
VERTEX
  8
FOREGROUND
  6
CONTINUOUS
 10
0.127826
 20
0.079484
  0
VERTEX
  8
FOREGROUND
  6
CONTINUOUS
 10
0.133103
 20
0.076088
  0
VERTEX
  8
FOREGROUND
  6
CONTINUOUS
 10
0.138506
 20
0.072878
  0
VERTEX
  8
FOREGROUND
  6
CONTINUOUS
 10
0.144033
 20
0.069858
  0
VERTEX
  8
FOREGROUND
  6
CONTINUOUS
 10
0.149678
 20
0.067034
  0
VERTEX
  8
FOREGROUND
  6
CONTINUOUS
 10
0.155436
 20
0.064409
  0
VERTEX
  8
FOREGROUND
  6
CONTINUOUS
 10
0.161304
 20
0.061989
  0
VERTEX
  8
FOREGROUND
  6
CONTINUOUS
 10
0.167276
 20
0.059777
  0
VERTEX
  8
FOREGROUND
  6
CONTINUOUS
 10
0.173349
 20
0.057778
  0
VERTEX
  8
FOREGROUND
  6
CONTINUOUS
 10
0.179518
 20
0.055996
  0
VERTEX
  8
FOREGROUND
  6
CONTINUOUS
 10
0.185778
 20
0.054437
  0
VERTEX
  8
FOREGROUND
  6
CONTINUOUS
 10
0.192124
 20
0.053105
  0
VERTEX
  8
FOREGROUND
  6
CONTINUOUS
 10
0.198553
 20
0.052003
  0
VERTEX
  8
FOREGROUND
  6
CONTINUOUS
 10
0.205060
 20
0.051138
  0
VERTEX
  8
FOREGROUND
  6
CONTINUOUS
 10
0.211639
 20
0.050512
  0
VERTEX
  8
FOREGROUND
  6
CONTINUOUS
 10
0.218288
 20
0.050131
  0
VERTEX
  8
FOREGROUND
  6
CONTINUOUS
 10
0.225000
 20
0.050000
  0
SEQEND
  8
0
  0
ENDSEC
  0
EOF
