  0
SECTION
  2
HEADER
  9
$ACADVER
  1
AC1006
  9
$EXTMIN
 10
0.000000
 20
0.000000
  9
$EXTMAX
 10
7.975000
 20
7.975000
  9
$LTSCALE
 40
0.166667
  9
$PDMODE
 70
    35
  9
$PDSIZE
 40
0.133333
  0
ENDSEC
  0
SECTION
  2
TABLES
  0
TABLE
  2
LTYPE
 70
     9
  0
LTYPE
  2
CONTINUOUS
 70
    64
  3
Solid line
 72
    65
 73
     0
 40
0.000000
  0
LTYPE
  2
DASHED
 70
    64
  3
__ __ __ __ __ __ __ __ __ __ __ __ __ __ __
 72
    65
 73
     2
 40
0.001250
 49
0.000833
 49
-0.000417
  0
LTYPE
  2
HIDDEN
 70
    64
  3
 _ _ _ _ _ _ _ _ _ _ _ _ _ _ _ _ _ _ _ _ _ _
 72
    65
 73
     2
 40
0.000625
 49
0.000417
 49
-0.000208
  0
LTYPE
  2
CENTER
 70
    64
  3
____ _ ____ _ ____ _ ____ _ ____ _ ____ _ ____
 72
    65
 73
     4
 40
0.003333
 49
0.002083
 49
-0.000417
 49
0.000417
 49
-0.000417
  0
LTYPE
  2
PHANTOM
 70
    64
  3
_____ _ _ _____ _ _ _____ _ _ _____ _ _ ____
 72
    65
 73
     6
 40
0.004167
 49
0.002083
 49
-0.000417
 49
0.000417
 49
-0.000417
 49
0.000417
 49
-0.000417
  0
LTYPE
  2
DOT
 70
    64
  3
...............................................
 72
    65
 73
     2
 40
0.000417
 49
0.000000
 49
-0.000417
  0
LTYPE
  2
DASHDOT
 70
    64
  3
__ . __ . __ . __ . __ . __ . __ . __ . __ . __
 72
    65
 73
     4
 40
0.001667
 49
0.000833
 49
-0.000417
 49
0.000000
 49
-0.000417
  0
LTYPE
  2
BORDER
 70
    64
  3
__ __ . __ __ . __ __ . __ __ . __ __ . __ __
 72
    65
 73
     6
 40
0.002917
 49
0.000833
 49
-0.000417
 49
0.000833
 49
-0.000417
 49
0.000000
 49
-0.000417
  0
LTYPE
  2
DIVIDE
 70
    64
  3
__ . . __ . . __ . . __ . . __ . . __ . . __
 72
    65
 73
     6
 40
0.002083
 49
0.000833
 49
-0.000417
 49
0.000000
 49
-0.000417
 49
0.000000
 49
-0.000417
  0
LTYPE
  2
DOTDOT
 70
    64
  3
 . .  . .  . .  . .  . .  . . 
 72
    65
 73
     5
 40
0.000917
 49
-0.000417
 49
0.000000
 49
-0.000417
 49
0.000000
 49
-0.000417
  0
ENDTAB
  0
TABLE
  2
STYLE
 70
     2
  0
STYLE
 70
     0
  2
SN0
 40
0.000000
 41
0.001667
 50
0.000000
 71
     0
 42
0.000000
  3
ROMAND
  0
STYLE
 70
    68
  2
SV0
 40
0.000000
 41
0.001667
 50
0.000000
 71
     0
 42
0.000000
  3
ROMAND
  0
ENDTAB
  0
TABLE
  2
LAYER
 70
     2
  0
LAYER
  2
FOREGROUND
 70
    64
 62
     7
  6
CONTINUOUS
  0
LAYER
  2
BACKGROUND
 70
    65
 62
    -7
  6
CONTINUOUS
  0
ENDTAB
  0
ENDSEC
  0
SECTION
  2
ENTITIES
  0
POLYLINE
  8
FOREGROUND
  6
CONTINUOUS
 66
     1
 40
0.010000
 41
0.010000
 70
     1
  0
VERTEX
  8
FOREGROUND
  6
CONTINUOUS
 10
6.350000
 20
0.050000
  0
VERTEX
  8
FOREGROUND
  6
CONTINUOUS
 10
6.405292
 20
0.050995
  0
VERTEX
  8
FOREGROUND
  6
CONTINUOUS
 10
6.460105
 20
0.053870
  0
VERTEX
  8
FOREGROUND
  6
CONTINUOUS
 10
6.514405
 20
0.058595
  0
VERTEX
  8
FOREGROUND
  6
CONTINUOUS
 10
6.568163
 20
0.065137
  0
VERTEX
  8
FOREGROUND
  6
CONTINUOUS
 10
6.621348
 20
0.073467
  0
VERTEX
  8
FOREGROUND
  6
CONTINUOUS
 10
6.673927
 20
0.083553
  0
VERTEX
  8
FOREGROUND
  6
CONTINUOUS
 10
6.725871
 20
0.095364
  0
VERTEX
  8
FOREGROUND
  6
CONTINUOUS
 10
6.777148
 20
0.108868
  0
VERTEX
  8
FOREGROUND
  6
CONTINUOUS
 10
6.827726
 20
0.124035
  0
VERTEX
  8
FOREGROUND
  6
CONTINUOUS
 10
6.877576
 20
0.140834
  0
VERTEX
  8
FOREGROUND
  6
CONTINUOUS
 10
6.926665
 20
0.159233
  0
VERTEX
  8
FOREGROUND
  6
CONTINUOUS
 10
6.974962
 20
0.179201
  0
VERTEX
  8
FOREGROUND
  6
CONTINUOUS
 10
7.022437
 20
0.200708
  0
VERTEX
  8
FOREGROUND
  6
CONTINUOUS
 10
7.069058
 20
0.223721
  0
VERTEX
  8
FOREGROUND
  6
CONTINUOUS
 10
7.114795
 20
0.248211
  0
VERTEX
  8
FOREGROUND
  6
CONTINUOUS
 10
7.159615
 20
0.274145
  0
VERTEX
  8
FOREGROUND
  6
CONTINUOUS
 10
7.203489
 20
0.301493
  0
VERTEX
  8
FOREGROUND
  6
CONTINUOUS
 10
7.246384
 20
0.330224
  0
VERTEX
  8
FOREGROUND
  6
CONTINUOUS
 10
7.288270
 20
0.360306
  0
VERTEX
  8
FOREGROUND
  6
CONTINUOUS
 10
7.329116
 20
0.391709
  0
VERTEX
  8
FOREGROUND
  6
CONTINUOUS
 10
7.368890
 20
0.424401
  0
VERTEX
  8
FOREGROUND
  6
CONTINUOUS
 10
7.407561
 20
0.458351
  0
VERTEX
  8
FOREGROUND
  6
CONTINUOUS
 10
7.445099
 20
0.493528
  0
VERTEX
  8
FOREGROUND
  6
CONTINUOUS
 10
7.481472
 20
0.529901
  0
VERTEX
  8
FOREGROUND
  6
CONTINUOUS
 10
7.516649
 20
0.567439
  0
VERTEX
  8
FOREGROUND
  6
CONTINUOUS
 10
7.550599
 20
0.606110
  0
VERTEX
  8
FOREGROUND
  6
CONTINUOUS
 10
7.583291
 20
0.645884
  0
VERTEX
  8
FOREGROUND
  6
CONTINUOUS
 10
7.614694
 20
0.686730
  0
VERTEX
  8
FOREGROUND
  6
CONTINUOUS
 10
7.644776
 20
0.728616
  0
VERTEX
  8
FOREGROUND
  6
CONTINUOUS
 10
7.673507
 20
0.771511
  0
VERTEX
  8
FOREGROUND
  6
CONTINUOUS
 10
7.700855
 20
0.815385
  0
VERTEX
  8
FOREGROUND
  6
CONTINUOUS
 10
7.726789
 20
0.860205
  0
VERTEX
  8
FOREGROUND
  6
CONTINUOUS
 10
7.751279
 20
0.905942
  0
VERTEX
  8
FOREGROUND
  6
CONTINUOUS
 10
7.774292
 20
0.952563
  0
VERTEX
  8
FOREGROUND
  6
CONTINUOUS
 10
7.795799
 20
1.000038
  0
VERTEX
  8
FOREGROUND
  6
CONTINUOUS
 10
7.815767
 20
1.048335
  0
VERTEX
  8
FOREGROUND
  6
CONTINUOUS
 10
7.834166
 20
1.097424
  0
VERTEX
  8
FOREGROUND
  6
CONTINUOUS
 10
7.850965
 20
1.147274
  0
VERTEX
  8
FOREGROUND
  6
CONTINUOUS
 10
7.866132
 20
1.197852
  0
VERTEX
  8
FOREGROUND
  6
CONTINUOUS
 10
7.879636
 20
1.249129
  0
VERTEX
  8
FOREGROUND
  6
CONTINUOUS
 10
7.891447
 20
1.301073
  0
VERTEX
  8
FOREGROUND
  6
CONTINUOUS
 10
7.901533
 20
1.353652
  0
VERTEX
  8
FOREGROUND
  6
CONTINUOUS
 10
7.909863
 20
1.406837
  0
VERTEX
  8
FOREGROUND
  6
CONTINUOUS
 10
7.916405
 20
1.460595
  0
VERTEX
  8
FOREGROUND
  6
CONTINUOUS
 10
7.921130
 20
1.514895
  0
VERTEX
  8
FOREGROUND
  6
CONTINUOUS
 10
7.924005
 20
1.569708
  0
VERTEX
  8
FOREGROUND
  6
CONTINUOUS
 10
7.925000
 20
1.625000
  0
VERTEX
  8
FOREGROUND
  6
CONTINUOUS
 10
7.925000
 20
6.350000
  0
VERTEX
  8
FOREGROUND
  6
CONTINUOUS
 10
7.924005
 20
6.405300
  0
VERTEX
  8
FOREGROUND
  6
CONTINUOUS
 10
7.921129
 20
6.460119
  0
VERTEX
  8
FOREGROUND
  6
CONTINUOUS
 10
7.916403
 20
6.514426
  0
VERTEX
  8
FOREGROUND
  6
CONTINUOUS
 10
7.909859
 20
6.568191
  0
VERTEX
  8
FOREGROUND
  6
CONTINUOUS
 10
7.901527
 20
6.621382
  0
VERTEX
  8
FOREGROUND
  6
CONTINUOUS
 10
7.891439
 20
6.673967
  0
VERTEX
  8
FOREGROUND
  6
CONTINUOUS
 10
7.879625
 20
6.725917
  0
VERTEX
  8
FOREGROUND
  6
CONTINUOUS
 10
7.866118
 20
6.777199
  0
VERTEX
  8
FOREGROUND
  6
CONTINUOUS
 10
7.850947
 20
6.827783
  0
VERTEX
  8
FOREGROUND
  6
CONTINUOUS
 10
7.834144
 20
6.877638
  0
VERTEX
  8
FOREGROUND
  6
CONTINUOUS
 10
7.815741
 20
6.926732
  0
VERTEX
  8
FOREGROUND
  6
CONTINUOUS
 10
7.795768
 20
6.975034
  0
VERTEX
  8
FOREGROUND
  6
CONTINUOUS
 10
7.774257
 20
7.022513
  0
VERTEX
  8
FOREGROUND
  6
CONTINUOUS
 10
7.751238
 20
7.069138
  0
VERTEX
  8
FOREGROUND
  6
CONTINUOUS
 10
7.726743
 20
7.114879
  0
VERTEX
  8
FOREGROUND
  6
CONTINUOUS
 10
7.700803
 20
7.159703
  0
VERTEX
  8
FOREGROUND
  6
CONTINUOUS
 10
7.673449
 20
7.203579
  0
VERTEX
  8
FOREGROUND
  6
CONTINUOUS
 10
7.644711
 20
7.246477
  0
VERTEX
  8
FOREGROUND
  6
CONTINUOUS
 10
7.614623
 20
7.288366
  0
VERTEX
  8
FOREGROUND
  6
CONTINUOUS
 10
7.583213
 20
7.329214
  0
VERTEX
  8
FOREGROUND
  6
CONTINUOUS
 10
7.550515
 20
7.368990
  0
VERTEX
  8
FOREGROUND
  6
CONTINUOUS
 10
7.516557
 20
7.407663
  0
VERTEX
  8
FOREGROUND
  6
CONTINUOUS
 10
7.481373
 20
7.445202
  0
VERTEX
  8
FOREGROUND
  6
CONTINUOUS
 10
7.444992
 20
7.481576
  0
VERTEX
  8
FOREGROUND
  6
CONTINUOUS
 10
7.407447
 20
7.516753
  0
VERTEX
  8
FOREGROUND
  6
CONTINUOUS
 10
7.368767
 20
7.550703
  0
VERTEX
  8
FOREGROUND
  6
CONTINUOUS
 10
7.328985
 20
7.583395
  0
VERTEX
  8
FOREGROUND
  6
CONTINUOUS
 10
7.288132
 20
7.614797
  0
VERTEX
  8
FOREGROUND
  6
CONTINUOUS
 10
7.246238
 20
7.644878
  0
VERTEX
  8
FOREGROUND
  6
CONTINUOUS
 10
7.203334
 20
7.673607
  0
VERTEX
  8
FOREGROUND
  6
CONTINUOUS
 10
7.159452
 20
7.700953
  0
VERTEX
  8
FOREGROUND
  6
CONTINUOUS
 10
7.114624
 20
7.726885
  0
VERTEX
  8
FOREGROUND
  6
CONTINUOUS
 10
7.068879
 20
7.751371
  0
VERTEX
  8
FOREGROUND
  6
CONTINUOUS
 10
7.022249
 20
7.774381
  0
VERTEX
  8
FOREGROUND
  6
CONTINUOUS
 10
6.974766
 20
7.795884
  0
VERTEX
  8
FOREGROUND
  6
CONTINUOUS
 10
6.926460
 20
7.815848
  0
VERTEX
  8
FOREGROUND
  6
CONTINUOUS
 10
6.877363
 20
7.834242
  0
VERTEX
  8
FOREGROUND
  6
CONTINUOUS
 10
6.827505
 20
7.851035
  0
VERTEX
  8
FOREGROUND
  6
CONTINUOUS
 10
6.776918
 20
7.866197
  0
VERTEX
  8
FOREGROUND
  6
CONTINUOUS
 10
6.725634
 20
7.879695
  0
VERTEX
  8
FOREGROUND
  6
CONTINUOUS
 10
6.673682
 20
7.891499
  0
VERTEX
  8
FOREGROUND
  6
CONTINUOUS
 10
6.621094
 20
7.901577
  0
VERTEX
  8
FOREGROUND
  6
CONTINUOUS
 10
6.567902
 20
7.909899
  0
VERTEX
  8
FOREGROUND
  6
CONTINUOUS
 10
6.514136
 20
7.916434
  0
VERTEX
  8
FOREGROUND
  6
CONTINUOUS
 10
6.459828
 20
7.921149
  0
VERTEX
  8
FOREGROUND
  6
CONTINUOUS
 10
6.405008
 20
7.924015
  0
VERTEX
  8
FOREGROUND
  6
CONTINUOUS
 10
6.349708
 20
7.925000
  0
VERTEX
  8
FOREGROUND
  6
CONTINUOUS
 10
1.624708
 20
7.925000
  0
VERTEX
  8
FOREGROUND
  6
CONTINUOUS
 10
1.569423
 20
7.923995
  0
VERTEX
  8
FOREGROUND
  6
CONTINUOUS
 10
1.514619
 20
7.921111
  0
VERTEX
  8
FOREGROUND
  6
CONTINUOUS
 10
1.460326
 20
7.916377
  0
VERTEX
  8
FOREGROUND
  6
CONTINUOUS
 10
1.406575
 20
7.909826
  0
VERTEX
  8
FOREGROUND
  6
CONTINUOUS
 10
1.353399
 20
7.901488
  0
VERTEX
  8
FOREGROUND
  6
CONTINUOUS
 10
1.300827
 20
7.891395
  0
VERTEX
  8
FOREGROUND
  6
CONTINUOUS
 10
1.248892
 20
7.879578
  0
VERTEX
  8
FOREGROUND
  6
CONTINUOUS
 10
1.197623
 20
7.866067
  0
VERTEX
  8
FOREGROUND
  6
CONTINUOUS
 10
1.147053
 20
7.850894
  0
VERTEX
  8
FOREGROUND
  6
CONTINUOUS
 10
1.097212
 20
7.834090
  0
VERTEX
  8
FOREGROUND
  6
CONTINUOUS
 10
1.048131
 20
7.815687
  0
VERTEX
  8
FOREGROUND
  6
CONTINUOUS
 10
0.999842
 20
7.795714
  0
VERTEX
  8
FOREGROUND
  6
CONTINUOUS
 10
0.952375
 20
7.774204
  0
VERTEX
  8
FOREGROUND
  6
CONTINUOUS
 10
0.905762
 20
7.751187
  0
VERTEX
  8
FOREGROUND
  6
CONTINUOUS
 10
0.860034
 20
7.726694
  0
VERTEX
  8
FOREGROUND
  6
CONTINUOUS
 10
0.815222
 20
7.700757
  0
VERTEX
  8
FOREGROUND
  6
CONTINUOUS
 10
0.771357
 20
7.673407
  0
VERTEX
  8
FOREGROUND
  6
CONTINUOUS
 10
0.728470
 20
7.644675
  0
VERTEX
  8
FOREGROUND
  6
CONTINUOUS
 10
0.686592
 20
7.614591
  0
VERTEX
  8
FOREGROUND
  6
CONTINUOUS
 10
0.645754
 20
7.583188
  0
VERTEX
  8
FOREGROUND
  6
CONTINUOUS
 10
0.605988
 20
7.550496
  0
VERTEX
  8
FOREGROUND
  6
CONTINUOUS
 10
0.567324
 20
7.516546
  0
VERTEX
  8
FOREGROUND
  6
CONTINUOUS
 10
0.529794
 20
7.481369
  0
VERTEX
  8
FOREGROUND
  6
CONTINUOUS
 10
0.493428
 20
7.444997
  0
VERTEX
  8
FOREGROUND
  6
CONTINUOUS
 10
0.458258
 20
7.407460
  0
VERTEX
  8
FOREGROUND
  6
CONTINUOUS
 10
0.424316
 20
7.368790
  0
VERTEX
  8
FOREGROUND
  6
CONTINUOUS
 10
0.391631
 20
7.329017
  0
VERTEX
  8
FOREGROUND
  6
CONTINUOUS
 10
0.360235
 20
7.288174
  0
VERTEX
  8
FOREGROUND
  6
CONTINUOUS
 10
0.330159
 20
7.246290
  0
VERTEX
  8
FOREGROUND
  6
CONTINUOUS
 10
0.301435
 20
7.203398
  0
VERTEX
  8
FOREGROUND
  6
CONTINUOUS
 10
0.274093
 20
7.159527
  0
VERTEX
  8
FOREGROUND
  6
CONTINUOUS
 10
0.248164
 20
7.114710
  0
VERTEX
  8
FOREGROUND
  6
CONTINUOUS
 10
0.223680
 20
7.068978
  0
VERTEX
  8
FOREGROUND
  6
CONTINUOUS
 10
0.200672
 20
7.022361
  0
VERTEX
  8
FOREGROUND
  6
CONTINUOUS
 10
0.179170
 20
6.974890
  0
VERTEX
  8
FOREGROUND
  6
CONTINUOUS
 10
0.159207
 20
6.926597
  0
VERTEX
  8
FOREGROUND
  6
CONTINUOUS
 10
0.140812
 20
6.877513
  0
VERTEX
  8
FOREGROUND
  6
CONTINUOUS
 10
0.124017
 20
6.827669
  0
VERTEX
  8
FOREGROUND
  6
CONTINUOUS
 10
0.108854
 20
6.777096
  0
VERTEX
  8
FOREGROUND
  6
CONTINUOUS
 10
0.095353
 20
6.725825
  0
VERTEX
  8
FOREGROUND
  6
CONTINUOUS
 10
0.083545
 20
6.673887
  0
VERTEX
  8
FOREGROUND
  6
CONTINUOUS
 10
0.073461
 20
6.621314
  0
VERTEX
  8
FOREGROUND
  6
CONTINUOUS
 10
0.065134
 20
6.568136
  0
VERTEX
  8
FOREGROUND
  6
CONTINUOUS
 10
0.058592
 20
6.514384
  0
VERTEX
  8
FOREGROUND
  6
CONTINUOUS
 10
0.053869
 20
6.460090
  0
VERTEX
  8
FOREGROUND
  6
CONTINUOUS
 10
0.050995
 20
6.405285
  0
VERTEX
  8
FOREGROUND
  6
CONTINUOUS
 10
0.050000
 20
6.350000
  0
VERTEX
  8
FOREGROUND
  6
CONTINUOUS
 10
0.050000
 20
1.625000
  0
VERTEX
  8
FOREGROUND
  6
CONTINUOUS
 10
0.050995
 20
1.569708
  0
VERTEX
  8
FOREGROUND
  6
CONTINUOUS
 10
0.053870
 20
1.514895
  0
VERTEX
  8
FOREGROUND
  6
CONTINUOUS
 10
0.058595
 20
1.460595
  0
VERTEX
  8
FOREGROUND
  6
CONTINUOUS
 10
0.065137
 20
1.406837
  0
VERTEX
  8
FOREGROUND
  6
CONTINUOUS
 10
0.073467
 20
1.353652
  0
VERTEX
  8
FOREGROUND
  6
CONTINUOUS
 10
0.083553
 20
1.301073
  0
VERTEX
  8
FOREGROUND
  6
CONTINUOUS
 10
0.095364
 20
1.249129
  0
VERTEX
  8
FOREGROUND
  6
CONTINUOUS
 10
0.108868
 20
1.197852
  0
VERTEX
  8
FOREGROUND
  6
CONTINUOUS
 10
0.124035
 20
1.147274
  0
VERTEX
  8
FOREGROUND
  6
CONTINUOUS
 10
0.140834
 20
1.097424
  0
VERTEX
  8
FOREGROUND
  6
CONTINUOUS
 10
0.159233
 20
1.048335
  0
VERTEX
  8
FOREGROUND
  6
CONTINUOUS
 10
0.179201
 20
1.000038
  0
VERTEX
  8
FOREGROUND
  6
CONTINUOUS
 10
0.200708
 20
0.952563
  0
VERTEX
  8
FOREGROUND
  6
CONTINUOUS
 10
0.223721
 20
0.905942
  0
VERTEX
  8
FOREGROUND
  6
CONTINUOUS
 10
0.248211
 20
0.860205
  0
VERTEX
  8
FOREGROUND
  6
CONTINUOUS
 10
0.274145
 20
0.815385
  0
VERTEX
  8
FOREGROUND
  6
CONTINUOUS
 10
0.301493
 20
0.771511
  0
VERTEX
  8
FOREGROUND
  6
CONTINUOUS
 10
0.330224
 20
0.728616
  0
VERTEX
  8
FOREGROUND
  6
CONTINUOUS
 10
0.360306
 20
0.686730
  0
VERTEX
  8
FOREGROUND
  6
CONTINUOUS
 10
0.391709
 20
0.645884
  0
VERTEX
  8
FOREGROUND
  6
CONTINUOUS
 10
0.424401
 20
0.606110
  0
VERTEX
  8
FOREGROUND
  6
CONTINUOUS
 10
0.458351
 20
0.567439
  0
VERTEX
  8
FOREGROUND
  6
CONTINUOUS
 10
0.493528
 20
0.529901
  0
VERTEX
  8
FOREGROUND
  6
CONTINUOUS
 10
0.529901
 20
0.493528
  0
VERTEX
  8
FOREGROUND
  6
CONTINUOUS
 10
0.567439
 20
0.458351
  0
VERTEX
  8
FOREGROUND
  6
CONTINUOUS
 10
0.606110
 20
0.424401
  0
VERTEX
  8
FOREGROUND
  6
CONTINUOUS
 10
0.645884
 20
0.391709
  0
VERTEX
  8
FOREGROUND
  6
CONTINUOUS
 10
0.686730
 20
0.360306
  0
VERTEX
  8
FOREGROUND
  6
CONTINUOUS
 10
0.728616
 20
0.330224
  0
VERTEX
  8
FOREGROUND
  6
CONTINUOUS
 10
0.771511
 20
0.301493
  0
VERTEX
  8
FOREGROUND
  6
CONTINUOUS
 10
0.815385
 20
0.274145
  0
VERTEX
  8
FOREGROUND
  6
CONTINUOUS
 10
0.860205
 20
0.248211
  0
VERTEX
  8
FOREGROUND
  6
CONTINUOUS
 10
0.905942
 20
0.223721
  0
VERTEX
  8
FOREGROUND
  6
CONTINUOUS
 10
0.952563
 20
0.200708
  0
VERTEX
  8
FOREGROUND
  6
CONTINUOUS
 10
1.000038
 20
0.179201
  0
VERTEX
  8
FOREGROUND
  6
CONTINUOUS
 10
1.048335
 20
0.159233
  0
VERTEX
  8
FOREGROUND
  6
CONTINUOUS
 10
1.097424
 20
0.140834
  0
VERTEX
  8
FOREGROUND
  6
CONTINUOUS
 10
1.147274
 20
0.124035
  0
VERTEX
  8
FOREGROUND
  6
CONTINUOUS
 10
1.197852
 20
0.108868
  0
VERTEX
  8
FOREGROUND
  6
CONTINUOUS
 10
1.249129
 20
0.095364
  0
VERTEX
  8
FOREGROUND
  6
CONTINUOUS
 10
1.301073
 20
0.083553
  0
VERTEX
  8
FOREGROUND
  6
CONTINUOUS
 10
1.353652
 20
0.073467
  0
VERTEX
  8
FOREGROUND
  6
CONTINUOUS
 10
1.406837
 20
0.065137
  0
VERTEX
  8
FOREGROUND
  6
CONTINUOUS
 10
1.460595
 20
0.058595
  0
VERTEX
  8
FOREGROUND
  6
CONTINUOUS
 10
1.514895
 20
0.053870
  0
VERTEX
  8
FOREGROUND
  6
CONTINUOUS
 10
1.569708
 20
0.050995
  0
VERTEX
  8
FOREGROUND
  6
CONTINUOUS
 10
1.625000
 20
0.050000
  0
SEQEND
  8
0
  0
ENDSEC
  0
EOF
