  0
SECTION
  2
HEADER
  9
$ACADVER
  1
AC1006
  9
$EXTMIN
 10
0.000000
 20
0.000000
  9
$EXTMAX
 10
8.251667
 20
11.978333
  9
$LTSCALE
 40
0.166667
  9
$PDMODE
 70
    35
  9
$PDSIZE
 40
0.133333
  0
ENDSEC
  0
SECTION
  2
TABLES
  0
TABLE
  2
LTYPE
 70
     9
  0
LTYPE
  2
CONTINUOUS
 70
    64
  3
Solid line
 72
    65
 73
     0
 40
0.000000
  0
LTYPE
  2
DASHED
 70
    64
  3
__ __ __ __ __ __ __ __ __ __ __ __ __ __ __
 72
    65
 73
     2
 40
0.001250
 49
0.000833
 49
-0.000417
  0
LTYPE
  2
HIDDEN
 70
    64
  3
 _ _ _ _ _ _ _ _ _ _ _ _ _ _ _ _ _ _ _ _ _ _
 72
    65
 73
     2
 40
0.000625
 49
0.000417
 49
-0.000208
  0
LTYPE
  2
CENTER
 70
    64
  3
____ _ ____ _ ____ _ ____ _ ____ _ ____ _ ____
 72
    65
 73
     4
 40
0.003333
 49
0.002083
 49
-0.000417
 49
0.000417
 49
-0.000417
  0
LTYPE
  2
PHANTOM
 70
    64
  3
_____ _ _ _____ _ _ _____ _ _ _____ _ _ ____
 72
    65
 73
     6
 40
0.004167
 49
0.002083
 49
-0.000417
 49
0.000417
 49
-0.000417
 49
0.000417
 49
-0.000417
  0
LTYPE
  2
DOT
 70
    64
  3
...............................................
 72
    65
 73
     2
 40
0.000417
 49
0.000000
 49
-0.000417
  0
LTYPE
  2
DASHDOT
 70
    64
  3
__ . __ . __ . __ . __ . __ . __ . __ . __ . __
 72
    65
 73
     4
 40
0.001667
 49
0.000833
 49
-0.000417
 49
0.000000
 49
-0.000417
  0
LTYPE
  2
BORDER
 70
    64
  3
__ __ . __ __ . __ __ . __ __ . __ __ . __ __
 72
    65
 73
     6
 40
0.002917
 49
0.000833
 49
-0.000417
 49
0.000833
 49
-0.000417
 49
0.000000
 49
-0.000417
  0
LTYPE
  2
DIVIDE
 70
    64
  3
__ . . __ . . __ . . __ . . __ . . __ . . __
 72
    65
 73
     6
 40
0.002083
 49
0.000833
 49
-0.000417
 49
0.000000
 49
-0.000417
 49
0.000000
 49
-0.000417
  0
LTYPE
  2
DOTDOT
 70
    64
  3
 . .  . .  . .  . .  . .  . . 
 72
    65
 73
     5
 40
0.000917
 49
-0.000417
 49
0.000000
 49
-0.000417
 49
0.000000
 49
-0.000417
  0
ENDTAB
  0
TABLE
  2
STYLE
 70
     2
  0
STYLE
 70
     0
  2
SN0
 40
0.000000
 41
0.001667
 50
0.000000
 71
     0
 42
0.000000
  3
ROMAND
  0
STYLE
 70
    68
  2
SV0
 40
0.000000
 41
0.001667
 50
0.000000
 71
     0
 42
0.000000
  3
ROMAND
  0
ENDTAB
  0
TABLE
  2
LAYER
 70
     2
  0
LAYER
  2
FOREGROUND
 70
    64
 62
     7
  6
CONTINUOUS
  0
LAYER
  2
BACKGROUND
 70
    65
 62
    -7
  6
CONTINUOUS
  0
ENDTAB
  0
ENDSEC
  0
SECTION
  2
ENTITIES
  0
POLYLINE
  8
FOREGROUND
  6
CONTINUOUS
 66
     1
 40
0.010000
 41
0.010000
 70
     1
  0
VERTEX
  8
FOREGROUND
  6
CONTINUOUS
 10
1.655000
 20
11.820000
  0
VERTEX
  8
FOREGROUND
  6
CONTINUOUS
 10
6.478333
 20
11.820000
  0
VERTEX
  8
FOREGROUND
  6
CONTINUOUS
 10
6.561667
 20
11.818333
  0
VERTEX
  8
FOREGROUND
  6
CONTINUOUS
 10
6.643333
 20
11.811667
  0
VERTEX
  8
FOREGROUND
  6
CONTINUOUS
 10
6.723333
 20
11.801667
  0
VERTEX
  8
FOREGROUND
  6
CONTINUOUS
 10
6.801667
 20
11.786667
  0
VERTEX
  8
FOREGROUND
  6
CONTINUOUS
 10
6.880000
 20
11.770000
  0
VERTEX
  8
FOREGROUND
  6
CONTINUOUS
 10
6.956667
 20
11.748333
  0
VERTEX
  8
FOREGROUND
  6
CONTINUOUS
 10
7.030000
 20
11.721667
  0
VERTEX
  8
FOREGROUND
  6
CONTINUOUS
 10
7.103333
 20
11.693333
  0
VERTEX
  8
FOREGROUND
  6
CONTINUOUS
 10
7.175000
 20
11.661667
  0
VERTEX
  8
FOREGROUND
  6
CONTINUOUS
 10
7.243333
 20
11.626667
  0
VERTEX
  8
FOREGROUND
  6
CONTINUOUS
 10
7.311667
 20
11.586667
  0
VERTEX
  8
FOREGROUND
  6
CONTINUOUS
 10
7.376667
 20
11.545000
  0
VERTEX
  8
FOREGROUND
  6
CONTINUOUS
 10
7.438333
 20
11.500000
  0
VERTEX
  8
FOREGROUND
  6
CONTINUOUS
 10
7.500000
 20
11.453333
  0
VERTEX
  8
FOREGROUND
  6
CONTINUOUS
 10
7.558333
 20
11.403333
  0
VERTEX
  8
FOREGROUND
  6
CONTINUOUS
 10
7.613333
 20
11.350000
  0
VERTEX
  8
FOREGROUND
  6
CONTINUOUS
 10
7.666667
 20
11.293333
  0
VERTEX
  8
FOREGROUND
  6
CONTINUOUS
 10
7.716667
 20
11.235000
  0
VERTEX
  8
FOREGROUND
  6
CONTINUOUS
 10
7.765000
 20
11.175000
  0
VERTEX
  8
FOREGROUND
  6
CONTINUOUS
 10
7.810000
 20
11.111667
  0
VERTEX
  8
FOREGROUND
  6
CONTINUOUS
 10
7.851667
 20
11.046667
  0
VERTEX
  8
FOREGROUND
  6
CONTINUOUS
 10
7.890000
 20
10.980000
  0
VERTEX
  8
FOREGROUND
  6
CONTINUOUS
 10
7.925000
 20
10.910000
  0
VERTEX
  8
FOREGROUND
  6
CONTINUOUS
 10
7.958333
 20
10.840000
  0
VERTEX
  8
FOREGROUND
  6
CONTINUOUS
 10
7.986667
 20
10.766667
  0
VERTEX
  8
FOREGROUND
  6
CONTINUOUS
 10
8.011667
 20
10.691667
  0
VERTEX
  8
FOREGROUND
  6
CONTINUOUS
 10
8.033333
 20
10.615000
  0
VERTEX
  8
FOREGROUND
  6
CONTINUOUS
 10
8.051667
 20
10.538333
  0
VERTEX
  8
FOREGROUND
  6
CONTINUOUS
 10
8.065000
 20
10.458333
  0
VERTEX
  8
FOREGROUND
  6
CONTINUOUS
 10
8.075000
 20
10.378333
  0
VERTEX
  8
FOREGROUND
  6
CONTINUOUS
 10
8.081667
 20
10.296667
  0
VERTEX
  8
FOREGROUND
  6
CONTINUOUS
 10
8.083333
 20
10.215000
  0
VERTEX
  8
FOREGROUND
  6
CONTINUOUS
 10
8.083333
 20
1.663333
  0
VERTEX
  8
FOREGROUND
  6
CONTINUOUS
 10
8.081667
 20
1.580000
  0
VERTEX
  8
FOREGROUND
  6
CONTINUOUS
 10
8.075000
 20
1.498333
  0
VERTEX
  8
FOREGROUND
  6
CONTINUOUS
 10
8.065000
 20
1.418333
  0
VERTEX
  8
FOREGROUND
  6
CONTINUOUS
 10
8.051667
 20
1.340000
  0
VERTEX
  8
FOREGROUND
  6
CONTINUOUS
 10
8.033333
 20
1.261667
  0
VERTEX
  8
FOREGROUND
  6
CONTINUOUS
 10
8.011667
 20
1.185000
  0
VERTEX
  8
FOREGROUND
  6
CONTINUOUS
 10
7.986667
 20
1.111667
  0
VERTEX
  8
FOREGROUND
  6
CONTINUOUS
 10
7.958333
 20
1.038333
  0
VERTEX
  8
FOREGROUND
  6
CONTINUOUS
 10
7.925000
 20
0.966667
  0
VERTEX
  8
FOREGROUND
  6
CONTINUOUS
 10
7.890000
 20
0.898333
  0
VERTEX
  8
FOREGROUND
  6
CONTINUOUS
 10
7.851667
 20
0.830000
  0
VERTEX
  8
FOREGROUND
  6
CONTINUOUS
 10
7.810000
 20
0.765000
  0
VERTEX
  8
FOREGROUND
  6
CONTINUOUS
 10
7.765000
 20
0.703333
  0
VERTEX
  8
FOREGROUND
  6
CONTINUOUS
 10
7.716667
 20
0.641667
  0
VERTEX
  8
FOREGROUND
  6
CONTINUOUS
 10
7.666667
 20
0.583333
  0
VERTEX
  8
FOREGROUND
  6
CONTINUOUS
 10
7.613333
 20
0.528333
  0
VERTEX
  8
FOREGROUND
  6
CONTINUOUS
 10
7.558333
 20
0.475000
  0
VERTEX
  8
FOREGROUND
  6
CONTINUOUS
 10
7.500000
 20
0.425000
  0
VERTEX
  8
FOREGROUND
  6
CONTINUOUS
 10
7.438333
 20
0.376667
  0
VERTEX
  8
FOREGROUND
  6
CONTINUOUS
 10
7.376667
 20
0.331667
  0
VERTEX
  8
FOREGROUND
  6
CONTINUOUS
 10
7.311667
 20
0.290000
  0
VERTEX
  8
FOREGROUND
  6
CONTINUOUS
 10
7.243333
 20
0.251667
  0
VERTEX
  8
FOREGROUND
  6
CONTINUOUS
 10
7.175000
 20
0.216667
  0
VERTEX
  8
FOREGROUND
  6
CONTINUOUS
 10
7.103333
 20
0.183333
  0
VERTEX
  8
FOREGROUND
  6
CONTINUOUS
 10
7.030000
 20
0.155000
  0
VERTEX
  8
FOREGROUND
  6
CONTINUOUS
 10
6.956667
 20
0.130000
  0
VERTEX
  8
FOREGROUND
  6
CONTINUOUS
 10
6.880000
 20
0.108333
  0
VERTEX
  8
FOREGROUND
  6
CONTINUOUS
 10
6.801667
 20
0.090000
  0
VERTEX
  8
FOREGROUND
  6
CONTINUOUS
 10
6.723333
 20
0.076667
  0
VERTEX
  8
FOREGROUND
  6
CONTINUOUS
 10
6.643333
 20
0.066667
  0
VERTEX
  8
FOREGROUND
  6
CONTINUOUS
 10
6.561667
 20
0.060000
  0
VERTEX
  8
FOREGROUND
  6
CONTINUOUS
 10
6.478333
 20
0.058333
  0
VERTEX
  8
FOREGROUND
  6
CONTINUOUS
 10
1.655000
 20
0.058333
  0
VERTEX
  8
FOREGROUND
  6
CONTINUOUS
 10
1.573333
 20
0.060000
  0
VERTEX
  8
FOREGROUND
  6
CONTINUOUS
 10
1.491667
 20
0.066667
  0
VERTEX
  8
FOREGROUND
  6
CONTINUOUS
 10
1.411667
 20
0.076667
  0
VERTEX
  8
FOREGROUND
  6
CONTINUOUS
 10
1.331667
 20
0.090000
  0
VERTEX
  8
FOREGROUND
  6
CONTINUOUS
 10
1.255000
 20
0.108333
  0
VERTEX
  8
FOREGROUND
  6
CONTINUOUS
 10
1.178333
 20
0.130000
  0
VERTEX
  8
FOREGROUND
  6
CONTINUOUS
 10
1.103333
 20
0.155000
  0
VERTEX
  8
FOREGROUND
  6
CONTINUOUS
 10
1.030000
 20
0.183333
  0
VERTEX
  8
FOREGROUND
  6
CONTINUOUS
 10
0.960000
 20
0.216667
  0
VERTEX
  8
FOREGROUND
  6
CONTINUOUS
 10
0.890000
 20
0.251667
  0
VERTEX
  8
FOREGROUND
  6
CONTINUOUS
 10
0.823333
 20
0.290000
  0
VERTEX
  8
FOREGROUND
  6
CONTINUOUS
 10
0.758333
 20
0.331667
  0
VERTEX
  8
FOREGROUND
  6
CONTINUOUS
 10
0.695000
 20
0.376667
  0
VERTEX
  8
FOREGROUND
  6
CONTINUOUS
 10
0.635000
 20
0.425000
  0
VERTEX
  8
FOREGROUND
  6
CONTINUOUS
 10
0.576667
 20
0.475000
  0
VERTEX
  8
FOREGROUND
  6
CONTINUOUS
 10
0.520000
 20
0.528333
  0
VERTEX
  8
FOREGROUND
  6
CONTINUOUS
 10
0.466667
 20
0.583333
  0
VERTEX
  8
FOREGROUND
  6
CONTINUOUS
 10
0.416667
 20
0.641667
  0
VERTEX
  8
FOREGROUND
  6
CONTINUOUS
 10
0.368333
 20
0.703333
  0
VERTEX
  8
FOREGROUND
  6
CONTINUOUS
 10
0.325000
 20
0.765000
  0
VERTEX
  8
FOREGROUND
  6
CONTINUOUS
 10
0.283333
 20
0.830000
  0
VERTEX
  8
FOREGROUND
  6
CONTINUOUS
 10
0.243333
 20
0.898333
  0
VERTEX
  8
FOREGROUND
  6
CONTINUOUS
 10
0.208333
 20
0.966667
  0
VERTEX
  8
FOREGROUND
  6
CONTINUOUS
 10
0.176667
 20
1.038333
  0
VERTEX
  8
FOREGROUND
  6
CONTINUOUS
 10
0.148333
 20
1.111667
  0
VERTEX
  8
FOREGROUND
  6
CONTINUOUS
 10
0.121667
 20
1.185000
  0
VERTEX
  8
FOREGROUND
  6
CONTINUOUS
 10
0.100000
 20
1.261667
  0
VERTEX
  8
FOREGROUND
  6
CONTINUOUS
 10
0.083333
 20
1.340000
  0
VERTEX
  8
FOREGROUND
  6
CONTINUOUS
 10
0.068333
 20
1.418333
  0
VERTEX
  8
FOREGROUND
  6
CONTINUOUS
 10
0.058333
 20
1.498333
  0
VERTEX
  8
FOREGROUND
  6
CONTINUOUS
 10
0.051667
 20
1.580000
  0
VERTEX
  8
FOREGROUND
  6
CONTINUOUS
 10
0.050000
 20
1.663333
  0
VERTEX
  8
FOREGROUND
  6
CONTINUOUS
 10
0.050000
 20
10.215000
  0
VERTEX
  8
FOREGROUND
  6
CONTINUOUS
 10
0.051667
 20
10.296667
  0
VERTEX
  8
FOREGROUND
  6
CONTINUOUS
 10
0.058333
 20
10.378333
  0
VERTEX
  8
FOREGROUND
  6
CONTINUOUS
 10
0.068333
 20
10.458333
  0
VERTEX
  8
FOREGROUND
  6
CONTINUOUS
 10
0.083333
 20
10.538333
  0
VERTEX
  8
FOREGROUND
  6
CONTINUOUS
 10
0.100000
 20
10.615000
  0
VERTEX
  8
FOREGROUND
  6
CONTINUOUS
 10
0.121667
 20
10.691667
  0
VERTEX
  8
FOREGROUND
  6
CONTINUOUS
 10
0.148333
 20
10.766667
  0
VERTEX
  8
FOREGROUND
  6
CONTINUOUS
 10
0.176667
 20
10.840000
  0
VERTEX
  8
FOREGROUND
  6
CONTINUOUS
 10
0.208333
 20
10.910000
  0
VERTEX
  8
FOREGROUND
  6
CONTINUOUS
 10
0.243333
 20
10.980000
  0
VERTEX
  8
FOREGROUND
  6
CONTINUOUS
 10
0.283333
 20
11.046667
  0
VERTEX
  8
FOREGROUND
  6
CONTINUOUS
 10
0.325000
 20
11.111667
  0
VERTEX
  8
FOREGROUND
  6
CONTINUOUS
 10
0.370000
 20
11.175000
  0
VERTEX
  8
FOREGROUND
  6
CONTINUOUS
 10
0.416667
 20
11.235000
  0
VERTEX
  8
FOREGROUND
  6
CONTINUOUS
 10
0.466667
 20
11.293333
  0
VERTEX
  8
FOREGROUND
  6
CONTINUOUS
 10
0.520000
 20
11.350000
  0
VERTEX
  8
FOREGROUND
  6
CONTINUOUS
 10
0.576667
 20
11.403333
  0
VERTEX
  8
FOREGROUND
  6
CONTINUOUS
 10
0.635000
 20
11.453333
  0
VERTEX
  8
FOREGROUND
  6
CONTINUOUS
 10
0.695000
 20
11.501667
  0
VERTEX
  8
FOREGROUND
  6
CONTINUOUS
 10
0.758333
 20
11.545000
  0
VERTEX
  8
FOREGROUND
  6
CONTINUOUS
 10
0.823333
 20
11.586667
  0
VERTEX
  8
FOREGROUND
  6
CONTINUOUS
 10
0.890000
 20
11.626667
  0
VERTEX
  8
FOREGROUND
  6
CONTINUOUS
 10
0.960000
 20
11.661667
  0
VERTEX
  8
FOREGROUND
  6
CONTINUOUS
 10
1.030000
 20
11.693333
  0
VERTEX
  8
FOREGROUND
  6
CONTINUOUS
 10
1.103333
 20
11.721667
  0
VERTEX
  8
FOREGROUND
  6
CONTINUOUS
 10
1.178333
 20
11.748333
  0
VERTEX
  8
FOREGROUND
  6
CONTINUOUS
 10
1.255000
 20
11.770000
  0
VERTEX
  8
FOREGROUND
  6
CONTINUOUS
 10
1.331667
 20
11.786667
  0
VERTEX
  8
FOREGROUND
  6
CONTINUOUS
 10
1.411667
 20
11.801667
  0
VERTEX
  8
FOREGROUND
  6
CONTINUOUS
 10
1.491667
 20
11.811667
  0
VERTEX
  8
FOREGROUND
  6
CONTINUOUS
 10
1.573333
 20
11.818333
  0
SEQEND
  8
0
  0
ENDSEC
  0
EOF
