  0
SECTION
  2
HEADER
  9
$ACADVER
  1
AC1006
  9
$EXTMIN
 10
0.000000
 20
0.000000
  9
$EXTMAX
 10
8.368333
 20
8.368333
  9
$LTSCALE
 40
0.166667
  9
$PDMODE
 70
    35
  9
$PDSIZE
 40
0.133333
  0
ENDSEC
  0
SECTION
  2
TABLES
  0
TABLE
  2
LTYPE
 70
     9
  0
LTYPE
  2
CONTINUOUS
 70
    64
  3
Solid line
 72
    65
 73
     0
 40
0.000000
  0
LTYPE
  2
DASHED
 70
    64
  3
__ __ __ __ __ __ __ __ __ __ __ __ __ __ __
 72
    65
 73
     2
 40
0.001250
 49
0.000833
 49
-0.000417
  0
LTYPE
  2
HIDDEN
 70
    64
  3
 _ _ _ _ _ _ _ _ _ _ _ _ _ _ _ _ _ _ _ _ _ _
 72
    65
 73
     2
 40
0.000625
 49
0.000417
 49
-0.000208
  0
LTYPE
  2
CENTER
 70
    64
  3
____ _ ____ _ ____ _ ____ _ ____ _ ____ _ ____
 72
    65
 73
     4
 40
0.003333
 49
0.002083
 49
-0.000417
 49
0.000417
 49
-0.000417
  0
LTYPE
  2
PHANTOM
 70
    64
  3
_____ _ _ _____ _ _ _____ _ _ _____ _ _ ____
 72
    65
 73
     6
 40
0.004167
 49
0.002083
 49
-0.000417
 49
0.000417
 49
-0.000417
 49
0.000417
 49
-0.000417
  0
LTYPE
  2
DOT
 70
    64
  3
...............................................
 72
    65
 73
     2
 40
0.000417
 49
0.000000
 49
-0.000417
  0
LTYPE
  2
DASHDOT
 70
    64
  3
__ . __ . __ . __ . __ . __ . __ . __ . __ . __
 72
    65
 73
     4
 40
0.001667
 49
0.000833
 49
-0.000417
 49
0.000000
 49
-0.000417
  0
LTYPE
  2
BORDER
 70
    64
  3
__ __ . __ __ . __ __ . __ __ . __ __ . __ __
 72
    65
 73
     6
 40
0.002917
 49
0.000833
 49
-0.000417
 49
0.000833
 49
-0.000417
 49
0.000000
 49
-0.000417
  0
LTYPE
  2
DIVIDE
 70
    64
  3
__ . . __ . . __ . . __ . . __ . . __ . . __
 72
    65
 73
     6
 40
0.002083
 49
0.000833
 49
-0.000417
 49
0.000000
 49
-0.000417
 49
0.000000
 49
-0.000417
  0
LTYPE
  2
DOTDOT
 70
    64
  3
 . .  . .  . .  . .  . .  . . 
 72
    65
 73
     5
 40
0.000917
 49
-0.000417
 49
0.000000
 49
-0.000417
 49
0.000000
 49
-0.000417
  0
ENDTAB
  0
TABLE
  2
STYLE
 70
     2
  0
STYLE
 70
     0
  2
SN0
 40
0.000000
 41
0.001667
 50
0.000000
 71
     0
 42
0.000000
  3
ROMAND
  0
STYLE
 70
    68
  2
SV0
 40
0.000000
 41
0.001667
 50
0.000000
 71
     0
 42
0.000000
  3
ROMAND
  0
ENDTAB
  0
TABLE
  2
LAYER
 70
     2
  0
LAYER
  2
FOREGROUND
 70
    64
 62
     7
  6
CONTINUOUS
  0
LAYER
  2
BACKGROUND
 70
    65
 62
    -7
  6
CONTINUOUS
  0
ENDTAB
  0
ENDSEC
  0
SECTION
  2
ENTITIES
  0
POLYLINE
  8
FOREGROUND
  6
CONTINUOUS
 66
     1
 40
0.010000
 41
0.010000
 70
     1
  0
VERTEX
  8
FOREGROUND
  6
CONTINUOUS
 10
6.665000
 20
0.050000
  0
VERTEX
  8
FOREGROUND
  6
CONTINUOUS
 10
6.723042
 20
0.051044
  0
VERTEX
  8
FOREGROUND
  6
CONTINUOUS
 10
6.780581
 20
0.054063
  0
VERTEX
  8
FOREGROUND
  6
CONTINUOUS
 10
6.837582
 20
0.059022
  0
VERTEX
  8
FOREGROUND
  6
CONTINUOUS
 10
6.894014
 20
0.065890
  0
VERTEX
  8
FOREGROUND
  6
CONTINUOUS
 10
6.949843
 20
0.074634
  0
VERTEX
  8
FOREGROUND
  6
CONTINUOUS
 10
7.005038
 20
0.085222
  0
VERTEX
  8
FOREGROUND
  6
CONTINUOUS
 10
7.059565
 20
0.097620
  0
VERTEX
  8
FOREGROUND
  6
CONTINUOUS
 10
7.113392
 20
0.111796
  0
VERTEX
  8
FOREGROUND
  6
CONTINUOUS
 10
7.166486
 20
0.127717
  0
VERTEX
  8
FOREGROUND
  6
CONTINUOUS
 10
7.218815
 20
0.145351
  0
VERTEX
  8
FOREGROUND
  6
CONTINUOUS
 10
7.270345
 20
0.164666
  0
VERTEX
  8
FOREGROUND
  6
CONTINUOUS
 10
7.321045
 20
0.185627
  0
VERTEX
  8
FOREGROUND
  6
CONTINUOUS
 10
7.370881
 20
0.208203
  0
VERTEX
  8
FOREGROUND
  6
CONTINUOUS
 10
7.419821
 20
0.232361
  0
VERTEX
  8
FOREGROUND
  6
CONTINUOUS
 10
7.467832
 20
0.258069
  0
VERTEX
  8
FOREGROUND
  6
CONTINUOUS
 10
7.514882
 20
0.285293
  0
VERTEX
  8
FOREGROUND
  6
CONTINUOUS
 10
7.560937
 20
0.314001
  0
VERTEX
  8
FOREGROUND
  6
CONTINUOUS
 10
7.605966
 20
0.344161
  0
VERTEX
  8
FOREGROUND
  6
CONTINUOUS
 10
7.649935
 20
0.375739
  0
VERTEX
  8
FOREGROUND
  6
CONTINUOUS
 10
7.692812
 20
0.408704
  0
VERTEX
  8
FOREGROUND
  6
CONTINUOUS
 10
7.734565
 20
0.443022
  0
VERTEX
  8
FOREGROUND
  6
CONTINUOUS
 10
7.775160
 20
0.478660
  0
VERTEX
  8
FOREGROUND
  6
CONTINUOUS
 10
7.814565
 20
0.515587
  0
VERTEX
  8
FOREGROUND
  6
CONTINUOUS
 10
7.852747
 20
0.553769
  0
VERTEX
  8
FOREGROUND
  6
CONTINUOUS
 10
7.889673
 20
0.593174
  0
VERTEX
  8
FOREGROUND
  6
CONTINUOUS
 10
7.925312
 20
0.633769
  0
VERTEX
  8
FOREGROUND
  6
CONTINUOUS
 10
7.959630
 20
0.675521
  0
VERTEX
  8
FOREGROUND
  6
CONTINUOUS
 10
7.992594
 20
0.718398
  0
VERTEX
  8
FOREGROUND
  6
CONTINUOUS
 10
8.024172
 20
0.762367
  0
VERTEX
  8
FOREGROUND
  6
CONTINUOUS
 10
8.054332
 20
0.807396
  0
VERTEX
  8
FOREGROUND
  6
CONTINUOUS
 10
8.083040
 20
0.853452
  0
VERTEX
  8
FOREGROUND
  6
CONTINUOUS
 10
8.110265
 20
0.900501
  0
VERTEX
  8
FOREGROUND
  6
CONTINUOUS
 10
8.135972
 20
0.948512
  0
VERTEX
  8
FOREGROUND
  6
CONTINUOUS
 10
8.160130
 20
0.997452
  0
VERTEX
  8
FOREGROUND
  6
CONTINUOUS
 10
8.182706
 20
1.047289
  0
VERTEX
  8
FOREGROUND
  6
CONTINUOUS
 10
8.203668
 20
1.097988
  0
VERTEX
  8
FOREGROUND
  6
CONTINUOUS
 10
8.222982
 20
1.149519
  0
VERTEX
  8
FOREGROUND
  6
CONTINUOUS
 10
8.240616
 20
1.201847
  0
VERTEX
  8
FOREGROUND
  6
CONTINUOUS
 10
8.256537
 20
1.254941
  0
VERTEX
  8
FOREGROUND
  6
CONTINUOUS
 10
8.270713
 20
1.308768
  0
VERTEX
  8
FOREGROUND
  6
CONTINUOUS
 10
8.283112
 20
1.363295
  0
VERTEX
  8
FOREGROUND
  6
CONTINUOUS
 10
8.293699
 20
1.418490
  0
VERTEX
  8
FOREGROUND
  6
CONTINUOUS
 10
8.302443
 20
1.474320
  0
VERTEX
  8
FOREGROUND
  6
CONTINUOUS
 10
8.309311
 20
1.530751
  0
VERTEX
  8
FOREGROUND
  6
CONTINUOUS
 10
8.314271
 20
1.587753
  0
VERTEX
  8
FOREGROUND
  6
CONTINUOUS
 10
8.317289
 20
1.645291
  0
VERTEX
  8
FOREGROUND
  6
CONTINUOUS
 10
8.318333
 20
1.703333
  0
VERTEX
  8
FOREGROUND
  6
CONTINUOUS
 10
8.318333
 20
6.665000
  0
VERTEX
  8
FOREGROUND
  6
CONTINUOUS
 10
8.317289
 20
6.723050
  0
VERTEX
  8
FOREGROUND
  6
CONTINUOUS
 10
8.314270
 20
6.780596
  0
VERTEX
  8
FOREGROUND
  6
CONTINUOUS
 10
8.309309
 20
6.837604
  0
VERTEX
  8
FOREGROUND
  6
CONTINUOUS
 10
8.302439
 20
6.894043
  0
VERTEX
  8
FOREGROUND
  6
CONTINUOUS
 10
8.293693
 20
6.949879
  0
VERTEX
  8
FOREGROUND
  6
CONTINUOUS
 10
8.283103
 20
7.005080
  0
VERTEX
  8
FOREGROUND
  6
CONTINUOUS
 10
8.270702
 20
7.059613
  0
VERTEX
  8
FOREGROUND
  6
CONTINUOUS
 10
8.256522
 20
7.113446
  0
VERTEX
  8
FOREGROUND
  6
CONTINUOUS
 10
8.240597
 20
7.166546
  0
VERTEX
  8
FOREGROUND
  6
CONTINUOUS
 10
8.222959
 20
7.218880
  0
VERTEX
  8
FOREGROUND
  6
CONTINUOUS
 10
8.203640
 20
7.270416
  0
VERTEX
  8
FOREGROUND
  6
CONTINUOUS
 10
8.182674
 20
7.321120
  0
VERTEX
  8
FOREGROUND
  6
CONTINUOUS
 10
8.160093
 20
7.370961
  0
VERTEX
  8
FOREGROUND
  6
CONTINUOUS
 10
8.135929
 20
7.419905
  0
VERTEX
  8
FOREGROUND
  6
CONTINUOUS
 10
8.110216
 20
7.467920
  0
VERTEX
  8
FOREGROUND
  6
CONTINUOUS
 10
8.082985
 20
7.514974
  0
VERTEX
  8
FOREGROUND
  6
CONTINUOUS
 10
8.054271
 20
7.561032
  0
VERTEX
  8
FOREGROUND
  6
CONTINUOUS
 10
8.024105
 20
7.606064
  0
VERTEX
  8
FOREGROUND
  6
CONTINUOUS
 10
7.992519
 20
7.650036
  0
VERTEX
  8
FOREGROUND
  6
CONTINUOUS
 10
7.959548
 20
7.692916
  0
VERTEX
  8
FOREGROUND
  6
CONTINUOUS
 10
7.925223
 20
7.734670
  0
VERTEX
  8
FOREGROUND
  6
CONTINUOUS
 10
7.889577
 20
7.775266
  0
VERTEX
  8
FOREGROUND
  6
CONTINUOUS
 10
7.852642
 20
7.814672
  0
VERTEX
  8
FOREGROUND
  6
CONTINUOUS
 10
7.814452
 20
7.852855
  0
VERTEX
  8
FOREGROUND
  6
CONTINUOUS
 10
7.775039
 20
7.889782
  0
VERTEX
  8
FOREGROUND
  6
CONTINUOUS
 10
7.734436
 20
7.925421
  0
VERTEX
  8
FOREGROUND
  6
CONTINUOUS
 10
7.692676
 20
7.959738
  0
VERTEX
  8
FOREGROUND
  6
CONTINUOUS
 10
7.649790
 20
7.992702
  0
VERTEX
  8
FOREGROUND
  6
CONTINUOUS
 10
7.605812
 20
8.024279
  0
VERTEX
  8
FOREGROUND
  6
CONTINUOUS
 10
7.560775
 20
8.054437
  0
VERTEX
  8
FOREGROUND
  6
CONTINUOUS
 10
7.514711
 20
8.083143
  0
VERTEX
  8
FOREGROUND
  6
CONTINUOUS
 10
7.467652
 20
8.110365
  0
VERTEX
  8
FOREGROUND
  6
CONTINUOUS
 10
7.419633
 20
8.136069
  0
VERTEX
  8
FOREGROUND
  6
CONTINUOUS
 10
7.370684
 20
8.160224
  0
VERTEX
  8
FOREGROUND
  6
CONTINUOUS
 10
7.320839
 20
8.182796
  0
VERTEX
  8
FOREGROUND
  6
CONTINUOUS
 10
7.270131
 20
8.203753
  0
VERTEX
  8
FOREGROUND
  6
CONTINUOUS
 10
7.218591
 20
8.223062
  0
VERTEX
  8
FOREGROUND
  6
CONTINUOUS
 10
7.166254
 20
8.240690
  0
VERTEX
  8
FOREGROUND
  6
CONTINUOUS
 10
7.113151
 20
8.256605
  0
VERTEX
  8
FOREGROUND
  6
CONTINUOUS
 10
7.059316
 20
8.270775
  0
VERTEX
  8
FOREGROUND
  6
CONTINUOUS
 10
7.004780
 20
8.283166
  0
VERTEX
  8
FOREGROUND
  6
CONTINUOUS
 10
6.949577
 20
8.293746
  0
VERTEX
  8
FOREGROUND
  6
CONTINUOUS
 10
6.893739
 20
8.302482
  0
VERTEX
  8
FOREGROUND
  6
CONTINUOUS
 10
6.837299
 20
8.309341
  0
VERTEX
  8
FOREGROUND
  6
CONTINUOUS
 10
6.780290
 20
8.314291
  0
VERTEX
  8
FOREGROUND
  6
CONTINUOUS
 10
6.722744
 20
8.317300
  0
VERTEX
  8
FOREGROUND
  6
CONTINUOUS
 10
6.664694
 20
8.318333
  0
VERTEX
  8
FOREGROUND
  6
CONTINUOUS
 10
1.703027
 20
8.318333
  0
VERTEX
  8
FOREGROUND
  6
CONTINUOUS
 10
1.644992
 20
8.317279
  0
VERTEX
  8
FOREGROUND
  6
CONTINUOUS
 10
1.587462
 20
8.314250
  0
VERTEX
  8
FOREGROUND
  6
CONTINUOUS
 10
1.530469
 20
8.309282
  0
VERTEX
  8
FOREGROUND
  6
CONTINUOUS
 10
1.474045
 20
8.302405
  0
VERTEX
  8
FOREGROUND
  6
CONTINUOUS
 10
1.418224
 20
8.293652
  0
VERTEX
  8
FOREGROUND
  6
CONTINUOUS
 10
1.363038
 20
8.283057
  0
VERTEX
  8
FOREGROUND
  6
CONTINUOUS
 10
1.308519
 20
8.270652
  0
VERTEX
  8
FOREGROUND
  6
CONTINUOUS
 10
1.254701
 20
8.256469
  0
VERTEX
  8
FOREGROUND
  6
CONTINUOUS
 10
1.201615
 20
8.240542
  0
VERTEX
  8
FOREGROUND
  6
CONTINUOUS
 10
1.149295
 20
8.222902
  0
VERTEX
  8
FOREGROUND
  6
CONTINUOUS
 10
1.097774
 20
8.203583
  0
VERTEX
  8
FOREGROUND
  6
CONTINUOUS
 10
1.047083
 20
8.182617
  0
VERTEX
  8
FOREGROUND
  6
CONTINUOUS
 10
0.997255
 20
8.160037
  0
VERTEX
  8
FOREGROUND
  6
CONTINUOUS
 10
0.948324
 20
8.135875
  0
VERTEX
  8
FOREGROUND
  6
CONTINUOUS
 10
0.900322
 20
8.110165
  0
VERTEX
  8
FOREGROUND
  6
CONTINUOUS
 10
0.853281
 20
8.082938
  0
VERTEX
  8
FOREGROUND
  6
CONTINUOUS
 10
0.807234
 20
8.054227
  0
VERTEX
  8
FOREGROUND
  6
CONTINUOUS
 10
0.762214
 20
8.024066
  0
VERTEX
  8
FOREGROUND
  6
CONTINUOUS
 10
0.718253
 20
7.992486
  0
VERTEX
  8
FOREGROUND
  6
CONTINUOUS
 10
0.675384
 20
7.959521
  0
VERTEX
  8
FOREGROUND
  6
CONTINUOUS
 10
0.633640
 20
7.925203
  0
VERTEX
  8
FOREGROUND
  6
CONTINUOUS
 10
0.593053
 20
7.889564
  0
VERTEX
  8
FOREGROUND
  6
CONTINUOUS
 10
0.553657
 20
7.852638
  0
VERTEX
  8
FOREGROUND
  6
CONTINUOUS
 10
0.515482
 20
7.814457
  0
VERTEX
  8
FOREGROUND
  6
CONTINUOUS
 10
0.478563
 20
7.775053
  0
VERTEX
  8
FOREGROUND
  6
CONTINUOUS
 10
0.442932
 20
7.734460
  0
VERTEX
  8
FOREGROUND
  6
CONTINUOUS
 10
0.408622
 20
7.692709
  0
VERTEX
  8
FOREGROUND
  6
CONTINUOUS
 10
0.375664
 20
7.649834
  0
VERTEX
  8
FOREGROUND
  6
CONTINUOUS
 10
0.344093
 20
7.605868
  0
VERTEX
  8
FOREGROUND
  6
CONTINUOUS
 10
0.313940
 20
7.560842
  0
VERTEX
  8
FOREGROUND
  6
CONTINUOUS
 10
0.285238
 20
7.514790
  0
VERTEX
  8
FOREGROUND
  6
CONTINUOUS
 10
0.258020
 20
7.467744
  0
VERTEX
  8
FOREGROUND
  6
CONTINUOUS
 10
0.232318
 20
7.419737
  0
VERTEX
  8
FOREGROUND
  6
CONTINUOUS
 10
0.208166
 20
7.370801
  0
VERTEX
  8
FOREGROUND
  6
CONTINUOUS
 10
0.185595
 20
7.320969
  0
VERTEX
  8
FOREGROUND
  6
CONTINUOUS
 10
0.164638
 20
7.270275
  0
VERTEX
  8
FOREGROUND
  6
CONTINUOUS
 10
0.145328
 20
7.218749
  0
VERTEX
  8
FOREGROUND
  6
CONTINUOUS
 10
0.127699
 20
7.166426
  0
VERTEX
  8
FOREGROUND
  6
CONTINUOUS
 10
0.111781
 20
7.113338
  0
VERTEX
  8
FOREGROUND
  6
CONTINUOUS
 10
0.097608
 20
7.059517
  0
VERTEX
  8
FOREGROUND
  6
CONTINUOUS
 10
0.085213
 20
7.004996
  0
VERTEX
  8
FOREGROUND
  6
CONTINUOUS
 10
0.074628
 20
6.949808
  0
VERTEX
  8
FOREGROUND
  6
CONTINUOUS
 10
0.065886
 20
6.893985
  0
VERTEX
  8
FOREGROUND
  6
CONTINUOUS
 10
0.059020
 20
6.837560
  0
VERTEX
  8
FOREGROUND
  6
CONTINUOUS
 10
0.054062
 20
6.780566
  0
VERTEX
  8
FOREGROUND
  6
CONTINUOUS
 10
0.051044
 20
6.723035
  0
VERTEX
  8
FOREGROUND
  6
CONTINUOUS
 10
0.050000
 20
6.665000
  0
VERTEX
  8
FOREGROUND
  6
CONTINUOUS
 10
0.050000
 20
1.703333
  0
VERTEX
  8
FOREGROUND
  6
CONTINUOUS
 10
0.051044
 20
1.645291
  0
VERTEX
  8
FOREGROUND
  6
CONTINUOUS
 10
0.054063
 20
1.587753
  0
VERTEX
  8
FOREGROUND
  6
CONTINUOUS
 10
0.059022
 20
1.530751
  0
VERTEX
  8
FOREGROUND
  6
CONTINUOUS
 10
0.065890
 20
1.474320
  0
VERTEX
  8
FOREGROUND
  6
CONTINUOUS
 10
0.074634
 20
1.418490
  0
VERTEX
  8
FOREGROUND
  6
CONTINUOUS
 10
0.085222
 20
1.363295
  0
VERTEX
  8
FOREGROUND
  6
CONTINUOUS
 10
0.097620
 20
1.308768
  0
VERTEX
  8
FOREGROUND
  6
CONTINUOUS
 10
0.111796
 20
1.254941
  0
VERTEX
  8
FOREGROUND
  6
CONTINUOUS
 10
0.127717
 20
1.201847
  0
VERTEX
  8
FOREGROUND
  6
CONTINUOUS
 10
0.145351
 20
1.149519
  0
VERTEX
  8
FOREGROUND
  6
CONTINUOUS
 10
0.164666
 20
1.097988
  0
VERTEX
  8
FOREGROUND
  6
CONTINUOUS
 10
0.185627
 20
1.047289
  0
VERTEX
  8
FOREGROUND
  6
CONTINUOUS
 10
0.208203
 20
0.997452
  0
VERTEX
  8
FOREGROUND
  6
CONTINUOUS
 10
0.232361
 20
0.948512
  0
VERTEX
  8
FOREGROUND
  6
CONTINUOUS
 10
0.258069
 20
0.900501
  0
VERTEX
  8
FOREGROUND
  6
CONTINUOUS
 10
0.285293
 20
0.853452
  0
VERTEX
  8
FOREGROUND
  6
CONTINUOUS
 10
0.314001
 20
0.807396
  0
VERTEX
  8
FOREGROUND
  6
CONTINUOUS
 10
0.344161
 20
0.762367
  0
VERTEX
  8
FOREGROUND
  6
CONTINUOUS
 10
0.375739
 20
0.718398
  0
VERTEX
  8
FOREGROUND
  6
CONTINUOUS
 10
0.408704
 20
0.675521
  0
VERTEX
  8
FOREGROUND
  6
CONTINUOUS
 10
0.443022
 20
0.633769
  0
VERTEX
  8
FOREGROUND
  6
CONTINUOUS
 10
0.478660
 20
0.593174
  0
VERTEX
  8
FOREGROUND
  6
CONTINUOUS
 10
0.515587
 20
0.553769
  0
VERTEX
  8
FOREGROUND
  6
CONTINUOUS
 10
0.553769
 20
0.515587
  0
VERTEX
  8
FOREGROUND
  6
CONTINUOUS
 10
0.593174
 20
0.478660
  0
VERTEX
  8
FOREGROUND
  6
CONTINUOUS
 10
0.633769
 20
0.443022
  0
VERTEX
  8
FOREGROUND
  6
CONTINUOUS
 10
0.675521
 20
0.408704
  0
VERTEX
  8
FOREGROUND
  6
CONTINUOUS
 10
0.718398
 20
0.375739
  0
VERTEX
  8
FOREGROUND
  6
CONTINUOUS
 10
0.762367
 20
0.344161
  0
VERTEX
  8
FOREGROUND
  6
CONTINUOUS
 10
0.807396
 20
0.314001
  0
VERTEX
  8
FOREGROUND
  6
CONTINUOUS
 10
0.853452
 20
0.285293
  0
VERTEX
  8
FOREGROUND
  6
CONTINUOUS
 10
0.900501
 20
0.258069
  0
VERTEX
  8
FOREGROUND
  6
CONTINUOUS
 10
0.948512
 20
0.232361
  0
VERTEX
  8
FOREGROUND
  6
CONTINUOUS
 10
0.997452
 20
0.208203
  0
VERTEX
  8
FOREGROUND
  6
CONTINUOUS
 10
1.047289
 20
0.185627
  0
VERTEX
  8
FOREGROUND
  6
CONTINUOUS
 10
1.097988
 20
0.164666
  0
VERTEX
  8
FOREGROUND
  6
CONTINUOUS
 10
1.149519
 20
0.145351
  0
VERTEX
  8
FOREGROUND
  6
CONTINUOUS
 10
1.201847
 20
0.127717
  0
VERTEX
  8
FOREGROUND
  6
CONTINUOUS
 10
1.254941
 20
0.111796
  0
VERTEX
  8
FOREGROUND
  6
CONTINUOUS
 10
1.308768
 20
0.097620
  0
VERTEX
  8
FOREGROUND
  6
CONTINUOUS
 10
1.363295
 20
0.085222
  0
VERTEX
  8
FOREGROUND
  6
CONTINUOUS
 10
1.418490
 20
0.074634
  0
VERTEX
  8
FOREGROUND
  6
CONTINUOUS
 10
1.474320
 20
0.065890
  0
VERTEX
  8
FOREGROUND
  6
CONTINUOUS
 10
1.530751
 20
0.059022
  0
VERTEX
  8
FOREGROUND
  6
CONTINUOUS
 10
1.587753
 20
0.054063
  0
VERTEX
  8
FOREGROUND
  6
CONTINUOUS
 10
1.645291
 20
0.051044
  0
VERTEX
  8
FOREGROUND
  6
CONTINUOUS
 10
1.703333
 20
0.050000
  0
SEQEND
  8
0
  0
ENDSEC
  0
EOF
