  0
SECTION
  2
HEADER
  9
$ACADVER
  1
AC1006
  9
$EXTMIN
 10
0.000000
 20
0.000000
  9
$EXTMAX
 10
8.761667
 20
8.761667
  9
$LTSCALE
 40
0.166667
  9
$PDMODE
 70
    35
  9
$PDSIZE
 40
0.133333
  0
ENDSEC
  0
SECTION
  2
TABLES
  0
TABLE
  2
LTYPE
 70
     9
  0
LTYPE
  2
CONTINUOUS
 70
    64
  3
Solid line
 72
    65
 73
     0
 40
0.000000
  0
LTYPE
  2
DASHED
 70
    64
  3
__ __ __ __ __ __ __ __ __ __ __ __ __ __ __
 72
    65
 73
     2
 40
0.001250
 49
0.000833
 49
-0.000417
  0
LTYPE
  2
HIDDEN
 70
    64
  3
 _ _ _ _ _ _ _ _ _ _ _ _ _ _ _ _ _ _ _ _ _ _
 72
    65
 73
     2
 40
0.000625
 49
0.000417
 49
-0.000208
  0
LTYPE
  2
CENTER
 70
    64
  3
____ _ ____ _ ____ _ ____ _ ____ _ ____ _ ____
 72
    65
 73
     4
 40
0.003333
 49
0.002083
 49
-0.000417
 49
0.000417
 49
-0.000417
  0
LTYPE
  2
PHANTOM
 70
    64
  3
_____ _ _ _____ _ _ _____ _ _ _____ _ _ ____
 72
    65
 73
     6
 40
0.004167
 49
0.002083
 49
-0.000417
 49
0.000417
 49
-0.000417
 49
0.000417
 49
-0.000417
  0
LTYPE
  2
DOT
 70
    64
  3
...............................................
 72
    65
 73
     2
 40
0.000417
 49
0.000000
 49
-0.000417
  0
LTYPE
  2
DASHDOT
 70
    64
  3
__ . __ . __ . __ . __ . __ . __ . __ . __ . __
 72
    65
 73
     4
 40
0.001667
 49
0.000833
 49
-0.000417
 49
0.000000
 49
-0.000417
  0
LTYPE
  2
BORDER
 70
    64
  3
__ __ . __ __ . __ __ . __ __ . __ __ . __ __
 72
    65
 73
     6
 40
0.002917
 49
0.000833
 49
-0.000417
 49
0.000833
 49
-0.000417
 49
0.000000
 49
-0.000417
  0
LTYPE
  2
DIVIDE
 70
    64
  3
__ . . __ . . __ . . __ . . __ . . __ . . __
 72
    65
 73
     6
 40
0.002083
 49
0.000833
 49
-0.000417
 49
0.000000
 49
-0.000417
 49
0.000000
 49
-0.000417
  0
LTYPE
  2
DOTDOT
 70
    64
  3
 . .  . .  . .  . .  . .  . . 
 72
    65
 73
     5
 40
0.000917
 49
-0.000417
 49
0.000000
 49
-0.000417
 49
0.000000
 49
-0.000417
  0
ENDTAB
  0
TABLE
  2
STYLE
 70
     2
  0
STYLE
 70
     0
  2
SN0
 40
0.000000
 41
0.001667
 50
0.000000
 71
     0
 42
0.000000
  3
ROMAND
  0
STYLE
 70
    68
  2
SV0
 40
0.000000
 41
0.001667
 50
0.000000
 71
     0
 42
0.000000
  3
ROMAND
  0
ENDTAB
  0
TABLE
  2
LAYER
 70
     2
  0
LAYER
  2
FOREGROUND
 70
    64
 62
     7
  6
CONTINUOUS
  0
LAYER
  2
BACKGROUND
 70
    65
 62
    -7
  6
CONTINUOUS
  0
ENDTAB
  0
ENDSEC
  0
SECTION
  2
ENTITIES
  0
POLYLINE
  8
FOREGROUND
  6
CONTINUOUS
 66
     1
 40
0.010000
 41
0.010000
 70
     1
  0
VERTEX
  8
FOREGROUND
  6
CONTINUOUS
 10
6.980000
 20
0.050000
  0
VERTEX
  8
FOREGROUND
  6
CONTINUOUS
 10
7.040792
 20
0.051094
  0
VERTEX
  8
FOREGROUND
  6
CONTINUOUS
 10
7.101057
 20
0.054255
  0
VERTEX
  8
FOREGROUND
  6
CONTINUOUS
 10
7.160759
 20
0.059449
  0
VERTEX
  8
FOREGROUND
  6
CONTINUOUS
 10
7.219864
 20
0.066643
  0
VERTEX
  8
FOREGROUND
  6
CONTINUOUS
 10
7.278339
 20
0.075801
  0
VERTEX
  8
FOREGROUND
  6
CONTINUOUS
 10
7.336149
 20
0.086891
  0
VERTEX
  8
FOREGROUND
  6
CONTINUOUS
 10
7.393259
 20
0.099876
  0
VERTEX
  8
FOREGROUND
  6
CONTINUOUS
 10
7.449636
 20
0.114724
  0
VERTEX
  8
FOREGROUND
  6
CONTINUOUS
 10
7.505246
 20
0.131400
  0
VERTEX
  8
FOREGROUND
  6
CONTINUOUS
 10
7.560054
 20
0.149869
  0
VERTEX
  8
FOREGROUND
  6
CONTINUOUS
 10
7.614026
 20
0.170098
  0
VERTEX
  8
FOREGROUND
  6
CONTINUOUS
 10
7.667128
 20
0.192053
  0
VERTEX
  8
FOREGROUND
  6
CONTINUOUS
 10
7.719325
 20
0.215699
  0
VERTEX
  8
FOREGROUND
  6
CONTINUOUS
 10
7.770584
 20
0.241001
  0
VERTEX
  8
FOREGROUND
  6
CONTINUOUS
 10
7.820869
 20
0.267927
  0
VERTEX
  8
FOREGROUND
  6
CONTINUOUS
 10
7.870148
 20
0.296441
  0
VERTEX
  8
FOREGROUND
  6
CONTINUOUS
 10
7.918386
 20
0.326509
  0
VERTEX
  8
FOREGROUND
  6
CONTINUOUS
 10
7.965548
 20
0.358098
  0
VERTEX
  8
FOREGROUND
  6
CONTINUOUS
 10
8.011600
 20
0.391172
  0
VERTEX
  8
FOREGROUND
  6
CONTINUOUS
 10
8.056509
 20
0.425699
  0
VERTEX
  8
FOREGROUND
  6
CONTINUOUS
 10
8.100240
 20
0.461642
  0
VERTEX
  8
FOREGROUND
  6
CONTINUOUS
 10
8.142758
 20
0.498970
  0
VERTEX
  8
FOREGROUND
  6
CONTINUOUS
 10
8.184030
 20
0.537646
  0
VERTEX
  8
FOREGROUND
  6
CONTINUOUS
 10
8.224021
 20
0.577637
  0
VERTEX
  8
FOREGROUND
  6
CONTINUOUS
 10
8.262697
 20
0.618909
  0
VERTEX
  8
FOREGROUND
  6
CONTINUOUS
 10
8.300024
 20
0.661427
  0
VERTEX
  8
FOREGROUND
  6
CONTINUOUS
 10
8.335968
 20
0.705158
  0
VERTEX
  8
FOREGROUND
  6
CONTINUOUS
 10
8.370494
 20
0.750066
  0
VERTEX
  8
FOREGROUND
  6
CONTINUOUS
 10
8.403569
 20
0.796119
  0
VERTEX
  8
FOREGROUND
  6
CONTINUOUS
 10
8.435157
 20
0.843281
  0
VERTEX
  8
FOREGROUND
  6
CONTINUOUS
 10
8.465226
 20
0.891518
  0
VERTEX
  8
FOREGROUND
  6
CONTINUOUS
 10
8.493740
 20
0.940797
  0
VERTEX
  8
FOREGROUND
  6
CONTINUOUS
 10
8.520665
 20
0.991083
  0
VERTEX
  8
FOREGROUND
  6
CONTINUOUS
 10
8.545968
 20
1.042342
  0
VERTEX
  8
FOREGROUND
  6
CONTINUOUS
 10
8.569614
 20
1.094539
  0
VERTEX
  8
FOREGROUND
  6
CONTINUOUS
 10
8.591568
 20
1.147641
  0
VERTEX
  8
FOREGROUND
  6
CONTINUOUS
 10
8.611798
 20
1.201613
  0
VERTEX
  8
FOREGROUND
  6
CONTINUOUS
 10
8.630267
 20
1.256421
  0
VERTEX
  8
FOREGROUND
  6
CONTINUOUS
 10
8.646943
 20
1.312030
  0
VERTEX
  8
FOREGROUND
  6
CONTINUOUS
 10
8.661791
 20
1.368407
  0
VERTEX
  8
FOREGROUND
  6
CONTINUOUS
 10
8.674776
 20
1.425518
  0
VERTEX
  8
FOREGROUND
  6
CONTINUOUS
 10
8.685865
 20
1.483328
  0
VERTEX
  8
FOREGROUND
  6
CONTINUOUS
 10
8.695024
 20
1.541803
  0
VERTEX
  8
FOREGROUND
  6
CONTINUOUS
 10
8.702217
 20
1.600908
  0
VERTEX
  8
FOREGROUND
  6
CONTINUOUS
 10
8.707412
 20
1.660610
  0
VERTEX
  8
FOREGROUND
  6
CONTINUOUS
 10
8.710573
 20
1.720874
  0
VERTEX
  8
FOREGROUND
  6
CONTINUOUS
 10
8.711667
 20
1.781667
  0
VERTEX
  8
FOREGROUND
  6
CONTINUOUS
 10
8.711667
 20
6.980000
  0
VERTEX
  8
FOREGROUND
  6
CONTINUOUS
 10
8.710573
 20
7.040800
  0
VERTEX
  8
FOREGROUND
  6
CONTINUOUS
 10
8.707411
 20
7.101072
  0
VERTEX
  8
FOREGROUND
  6
CONTINUOUS
 10
8.702215
 20
7.160782
  0
VERTEX
  8
FOREGROUND
  6
CONTINUOUS
 10
8.695020
 20
7.219894
  0
VERTEX
  8
FOREGROUND
  6
CONTINUOUS
 10
8.685859
 20
7.278376
  0
VERTEX
  8
FOREGROUND
  6
CONTINUOUS
 10
8.674767
 20
7.336193
  0
VERTEX
  8
FOREGROUND
  6
CONTINUOUS
 10
8.661778
 20
7.393310
  0
VERTEX
  8
FOREGROUND
  6
CONTINUOUS
 10
8.646927
 20
7.449693
  0
VERTEX
  8
FOREGROUND
  6
CONTINUOUS
 10
8.630247
 20
7.505309
  0
VERTEX
  8
FOREGROUND
  6
CONTINUOUS
 10
8.611774
 20
7.560122
  0
VERTEX
  8
FOREGROUND
  6
CONTINUOUS
 10
8.591540
 20
7.614100
  0
VERTEX
  8
FOREGROUND
  6
CONTINUOUS
 10
8.569580
 20
7.667207
  0
VERTEX
  8
FOREGROUND
  6
CONTINUOUS
 10
8.545929
 20
7.719409
  0
VERTEX
  8
FOREGROUND
  6
CONTINUOUS
 10
8.520620
 20
7.770672
  0
VERTEX
  8
FOREGROUND
  6
CONTINUOUS
 10
8.493689
 20
7.820962
  0
VERTEX
  8
FOREGROUND
  6
CONTINUOUS
 10
8.465168
 20
7.870245
  0
VERTEX
  8
FOREGROUND
  6
CONTINUOUS
 10
8.435093
 20
7.918486
  0
VERTEX
  8
FOREGROUND
  6
CONTINUOUS
 10
8.403498
 20
7.965651
  0
VERTEX
  8
FOREGROUND
  6
CONTINUOUS
 10
8.370416
 20
8.011706
  0
VERTEX
  8
FOREGROUND
  6
CONTINUOUS
 10
8.335882
 20
8.056617
  0
VERTEX
  8
FOREGROUND
  6
CONTINUOUS
 10
8.299931
 20
8.100350
  0
VERTEX
  8
FOREGROUND
  6
CONTINUOUS
 10
8.262596
 20
8.142870
  0
VERTEX
  8
FOREGROUND
  6
CONTINUOUS
 10
8.223912
 20
8.184143
  0
VERTEX
  8
FOREGROUND
  6
CONTINUOUS
 10
8.183912
 20
8.224135
  0
VERTEX
  8
FOREGROUND
  6
CONTINUOUS
 10
8.142632
 20
8.262811
  0
VERTEX
  8
FOREGROUND
  6
CONTINUOUS
 10
8.100105
 20
8.300138
  0
VERTEX
  8
FOREGROUND
  6
CONTINUOUS
 10
8.056366
 20
8.336082
  0
VERTEX
  8
FOREGROUND
  6
CONTINUOUS
 10
8.011448
 20
8.370607
  0
VERTEX
  8
FOREGROUND
  6
CONTINUOUS
 10
7.965387
 20
8.403680
  0
VERTEX
  8
FOREGROUND
  6
CONTINUOUS
 10
7.918216
 20
8.435267
  0
VERTEX
  8
FOREGROUND
  6
CONTINUOUS
 10
7.869969
 20
8.465333
  0
VERTEX
  8
FOREGROUND
  6
CONTINUOUS
 10
7.820681
 20
8.493845
  0
VERTEX
  8
FOREGROUND
  6
CONTINUOUS
 10
7.770386
 20
8.520767
  0
VERTEX
  8
FOREGROUND
  6
CONTINUOUS
 10
7.719118
 20
8.546066
  0
VERTEX
  8
FOREGROUND
  6
CONTINUOUS
 10
7.666912
 20
8.569707
  0
VERTEX
  8
FOREGROUND
  6
CONTINUOUS
 10
7.613801
 20
8.591657
  0
VERTEX
  8
FOREGROUND
  6
CONTINUOUS
 10
7.559820
 20
8.611881
  0
VERTEX
  8
FOREGROUND
  6
CONTINUOUS
 10
7.505003
 20
8.630345
  0
VERTEX
  8
FOREGROUND
  6
CONTINUOUS
 10
7.449384
 20
8.647014
  0
VERTEX
  8
FOREGROUND
  6
CONTINUOUS
 10
7.392998
 20
8.661855
  0
VERTEX
  8
FOREGROUND
  6
CONTINUOUS
 10
7.335879
 20
8.674833
  0
VERTEX
  8
FOREGROUND
  6
CONTINUOUS
 10
7.278060
 20
8.685914
  0
VERTEX
  8
FOREGROUND
  6
CONTINUOUS
 10
7.219577
 20
8.695064
  0
VERTEX
  8
FOREGROUND
  6
CONTINUOUS
 10
7.160463
 20
8.702248
  0
VERTEX
  8
FOREGROUND
  6
CONTINUOUS
 10
7.100752
 20
8.707433
  0
VERTEX
  8
FOREGROUND
  6
CONTINUOUS
 10
7.040480
 20
8.710584
  0
VERTEX
  8
FOREGROUND
  6
CONTINUOUS
 10
6.979679
 20
8.711667
  0
VERTEX
  8
FOREGROUND
  6
CONTINUOUS
 10
1.781346
 20
8.711667
  0
VERTEX
  8
FOREGROUND
  6
CONTINUOUS
 10
1.720561
 20
8.710562
  0
VERTEX
  8
FOREGROUND
  6
CONTINUOUS
 10
1.660305
 20
8.707390
  0
VERTEX
  8
FOREGROUND
  6
CONTINUOUS
 10
1.600612
 20
8.702186
  0
VERTEX
  8
FOREGROUND
  6
CONTINUOUS
 10
1.541515
 20
8.694983
  0
VERTEX
  8
FOREGROUND
  6
CONTINUOUS
 10
1.483049
 20
8.685816
  0
VERTEX
  8
FOREGROUND
  6
CONTINUOUS
 10
1.425248
 20
8.674719
  0
VERTEX
  8
FOREGROUND
  6
CONTINUOUS
 10
1.368146
 20
8.661726
  0
VERTEX
  8
FOREGROUND
  6
CONTINUOUS
 10
1.311778
 20
8.646872
  0
VERTEX
  8
FOREGROUND
  6
CONTINUOUS
 10
1.256178
 20
8.630189
  0
VERTEX
  8
FOREGROUND
  6
CONTINUOUS
 10
1.201379
 20
8.611714
  0
VERTEX
  8
FOREGROUND
  6
CONTINUOUS
 10
1.147416
 20
8.591480
  0
VERTEX
  8
FOREGROUND
  6
CONTINUOUS
 10
1.094324
 20
8.569520
  0
VERTEX
  8
FOREGROUND
  6
CONTINUOUS
 10
1.042135
 20
8.545870
  0
VERTEX
  8
FOREGROUND
  6
CONTINUOUS
 10
0.990886
 20
8.520564
  0
VERTEX
  8
FOREGROUND
  6
CONTINUOUS
 10
0.940609
 20
8.493635
  0
VERTEX
  8
FOREGROUND
  6
CONTINUOUS
 10
0.891340
 20
8.465118
  0
VERTEX
  8
FOREGROUND
  6
CONTINUOUS
 10
0.843111
 20
8.435048
  0
VERTEX
  8
FOREGROUND
  6
CONTINUOUS
 10
0.795958
 20
8.403457
  0
VERTEX
  8
FOREGROUND
  6
CONTINUOUS
 10
0.749914
 20
8.370381
  0
VERTEX
  8
FOREGROUND
  6
CONTINUOUS
 10
0.705014
 20
8.335854
  0
VERTEX
  8
FOREGROUND
  6
CONTINUOUS
 10
0.661292
 20
8.299910
  0
VERTEX
  8
FOREGROUND
  6
CONTINUOUS
 10
0.618783
 20
8.262583
  0
VERTEX
  8
FOREGROUND
  6
CONTINUOUS
 10
0.577519
 20
8.223907
  0
VERTEX
  8
FOREGROUND
  6
CONTINUOUS
 10
0.537536
 20
8.183917
  0
VERTEX
  8
FOREGROUND
  6
CONTINUOUS
 10
0.498868
 20
8.142646
  0
VERTEX
  8
FOREGROUND
  6
CONTINUOUS
 10
0.461549
 20
8.100130
  0
VERTEX
  8
FOREGROUND
  6
CONTINUOUS
 10
0.425613
 20
8.056401
  0
VERTEX
  8
FOREGROUND
  6
CONTINUOUS
 10
0.391094
 20
8.011495
  0
VERTEX
  8
FOREGROUND
  6
CONTINUOUS
 10
0.358027
 20
7.965445
  0
VERTEX
  8
FOREGROUND
  6
CONTINUOUS
 10
0.326445
 20
7.918286
  0
VERTEX
  8
FOREGROUND
  6
CONTINUOUS
 10
0.296383
 20
7.870052
  0
VERTEX
  8
FOREGROUND
  6
CONTINUOUS
 10
0.267876
 20
7.820777
  0
VERTEX
  8
FOREGROUND
  6
CONTINUOUS
 10
0.240956
 20
7.770495
  0
VERTEX
  8
FOREGROUND
  6
CONTINUOUS
 10
0.215659
 20
7.719241
  0
VERTEX
  8
FOREGROUND
  6
CONTINUOUS
 10
0.192019
 20
7.667049
  0
VERTEX
  8
FOREGROUND
  6
CONTINUOUS
 10
0.170069
 20
7.613952
  0
VERTEX
  8
FOREGROUND
  6
CONTINUOUS
 10
0.149845
 20
7.559985
  0
VERTEX
  8
FOREGROUND
  6
CONTINUOUS
 10
0.131380
 20
7.505183
  0
VERTEX
  8
FOREGROUND
  6
CONTINUOUS
 10
0.114708
 20
7.449580
  0
VERTEX
  8
FOREGROUND
  6
CONTINUOUS
 10
0.099864
 20
7.393209
  0
VERTEX
  8
FOREGROUND
  6
CONTINUOUS
 10
0.086881
 20
7.336105
  0
VERTEX
  8
FOREGROUND
  6
CONTINUOUS
 10
0.075795
 20
7.278302
  0
VERTEX
  8
FOREGROUND
  6
CONTINUOUS
 10
0.066639
 20
7.219834
  0
VERTEX
  8
FOREGROUND
  6
CONTINUOUS
 10
0.059447
 20
7.160736
  0
VERTEX
  8
FOREGROUND
  6
CONTINUOUS
 10
0.054254
 20
7.101041
  0
VERTEX
  8
FOREGROUND
  6
CONTINUOUS
 10
0.051093
 20
7.040785
  0
VERTEX
  8
FOREGROUND
  6
CONTINUOUS
 10
0.050000
 20
6.980000
  0
VERTEX
  8
FOREGROUND
  6
CONTINUOUS
 10
0.050000
 20
1.781667
  0
VERTEX
  8
FOREGROUND
  6
CONTINUOUS
 10
0.051094
 20
1.720874
  0
VERTEX
  8
FOREGROUND
  6
CONTINUOUS
 10
0.054255
 20
1.660610
  0
VERTEX
  8
FOREGROUND
  6
CONTINUOUS
 10
0.059449
 20
1.600908
  0
VERTEX
  8
FOREGROUND
  6
CONTINUOUS
 10
0.066643
 20
1.541803
  0
VERTEX
  8
FOREGROUND
  6
CONTINUOUS
 10
0.075801
 20
1.483328
  0
VERTEX
  8
FOREGROUND
  6
CONTINUOUS
 10
0.086891
 20
1.425518
  0
VERTEX
  8
FOREGROUND
  6
CONTINUOUS
 10
0.099876
 20
1.368407
  0
VERTEX
  8
FOREGROUND
  6
CONTINUOUS
 10
0.114724
 20
1.312030
  0
VERTEX
  8
FOREGROUND
  6
CONTINUOUS
 10
0.131400
 20
1.256421
  0
VERTEX
  8
FOREGROUND
  6
CONTINUOUS
 10
0.149869
 20
1.201613
  0
VERTEX
  8
FOREGROUND
  6
CONTINUOUS
 10
0.170098
 20
1.147641
  0
VERTEX
  8
FOREGROUND
  6
CONTINUOUS
 10
0.192053
 20
1.094539
  0
VERTEX
  8
FOREGROUND
  6
CONTINUOUS
 10
0.215699
 20
1.042342
  0
VERTEX
  8
FOREGROUND
  6
CONTINUOUS
 10
0.241001
 20
0.991083
  0
VERTEX
  8
FOREGROUND
  6
CONTINUOUS
 10
0.267927
 20
0.940797
  0
VERTEX
  8
FOREGROUND
  6
CONTINUOUS
 10
0.296441
 20
0.891518
  0
VERTEX
  8
FOREGROUND
  6
CONTINUOUS
 10
0.326509
 20
0.843281
  0
VERTEX
  8
FOREGROUND
  6
CONTINUOUS
 10
0.358098
 20
0.796119
  0
VERTEX
  8
FOREGROUND
  6
CONTINUOUS
 10
0.391172
 20
0.750066
  0
VERTEX
  8
FOREGROUND
  6
CONTINUOUS
 10
0.425699
 20
0.705158
  0
VERTEX
  8
FOREGROUND
  6
CONTINUOUS
 10
0.461642
 20
0.661427
  0
VERTEX
  8
FOREGROUND
  6
CONTINUOUS
 10
0.498970
 20
0.618909
  0
VERTEX
  8
FOREGROUND
  6
CONTINUOUS
 10
0.537646
 20
0.577637
  0
VERTEX
  8
FOREGROUND
  6
CONTINUOUS
 10
0.577637
 20
0.537646
  0
VERTEX
  8
FOREGROUND
  6
CONTINUOUS
 10
0.618909
 20
0.498970
  0
VERTEX
  8
FOREGROUND
  6
CONTINUOUS
 10
0.661427
 20
0.461642
  0
VERTEX
  8
FOREGROUND
  6
CONTINUOUS
 10
0.705158
 20
0.425699
  0
VERTEX
  8
FOREGROUND
  6
CONTINUOUS
 10
0.750066
 20
0.391172
  0
VERTEX
  8
FOREGROUND
  6
CONTINUOUS
 10
0.796119
 20
0.358098
  0
VERTEX
  8
FOREGROUND
  6
CONTINUOUS
 10
0.843281
 20
0.326509
  0
VERTEX
  8
FOREGROUND
  6
CONTINUOUS
 10
0.891518
 20
0.296441
  0
VERTEX
  8
FOREGROUND
  6
CONTINUOUS
 10
0.940797
 20
0.267927
  0
VERTEX
  8
FOREGROUND
  6
CONTINUOUS
 10
0.991083
 20
0.241001
  0
VERTEX
  8
FOREGROUND
  6
CONTINUOUS
 10
1.042342
 20
0.215699
  0
VERTEX
  8
FOREGROUND
  6
CONTINUOUS
 10
1.094539
 20
0.192053
  0
VERTEX
  8
FOREGROUND
  6
CONTINUOUS
 10
1.147641
 20
0.170098
  0
VERTEX
  8
FOREGROUND
  6
CONTINUOUS
 10
1.201613
 20
0.149869
  0
VERTEX
  8
FOREGROUND
  6
CONTINUOUS
 10
1.256421
 20
0.131400
  0
VERTEX
  8
FOREGROUND
  6
CONTINUOUS
 10
1.312030
 20
0.114724
  0
VERTEX
  8
FOREGROUND
  6
CONTINUOUS
 10
1.368407
 20
0.099876
  0
VERTEX
  8
FOREGROUND
  6
CONTINUOUS
 10
1.425518
 20
0.086891
  0
VERTEX
  8
FOREGROUND
  6
CONTINUOUS
 10
1.483328
 20
0.075801
  0
VERTEX
  8
FOREGROUND
  6
CONTINUOUS
 10
1.541803
 20
0.066643
  0
VERTEX
  8
FOREGROUND
  6
CONTINUOUS
 10
1.600908
 20
0.059449
  0
VERTEX
  8
FOREGROUND
  6
CONTINUOUS
 10
1.660610
 20
0.054255
  0
VERTEX
  8
FOREGROUND
  6
CONTINUOUS
 10
1.720874
 20
0.051094
  0
VERTEX
  8
FOREGROUND
  6
CONTINUOUS
 10
1.781667
 20
0.050000
  0
SEQEND
  8
0
  0
ENDSEC
  0
EOF
