  0
SECTION
  2
HEADER
  9
$ACADVER
  1
AC1006
  9
$EXTMIN
 10
0.000000
 20
0.000000
  9
$EXTMAX
 10
9.155000
 20
9.156667
  9
$LTSCALE
 40
0.166667
  9
$PDMODE
 70
    35
  9
$PDSIZE
 40
0.133333
  0
ENDSEC
  0
SECTION
  2
TABLES
  0
TABLE
  2
LTYPE
 70
     9
  0
LTYPE
  2
CONTINUOUS
 70
    64
  3
Solid line
 72
    65
 73
     0
 40
0.000000
  0
LTYPE
  2
DASHED
 70
    64
  3
__ __ __ __ __ __ __ __ __ __ __ __ __ __ __
 72
    65
 73
     2
 40
0.001250
 49
0.000833
 49
-0.000417
  0
LTYPE
  2
HIDDEN
 70
    64
  3
 _ _ _ _ _ _ _ _ _ _ _ _ _ _ _ _ _ _ _ _ _ _
 72
    65
 73
     2
 40
0.000625
 49
0.000417
 49
-0.000208
  0
LTYPE
  2
CENTER
 70
    64
  3
____ _ ____ _ ____ _ ____ _ ____ _ ____ _ ____
 72
    65
 73
     4
 40
0.003333
 49
0.002083
 49
-0.000417
 49
0.000417
 49
-0.000417
  0
LTYPE
  2
PHANTOM
 70
    64
  3
_____ _ _ _____ _ _ _____ _ _ _____ _ _ ____
 72
    65
 73
     6
 40
0.004167
 49
0.002083
 49
-0.000417
 49
0.000417
 49
-0.000417
 49
0.000417
 49
-0.000417
  0
LTYPE
  2
DOT
 70
    64
  3
...............................................
 72
    65
 73
     2
 40
0.000417
 49
0.000000
 49
-0.000417
  0
LTYPE
  2
DASHDOT
 70
    64
  3
__ . __ . __ . __ . __ . __ . __ . __ . __ . __
 72
    65
 73
     4
 40
0.001667
 49
0.000833
 49
-0.000417
 49
0.000000
 49
-0.000417
  0
LTYPE
  2
BORDER
 70
    64
  3
__ __ . __ __ . __ __ . __ __ . __ __ . __ __
 72
    65
 73
     6
 40
0.002917
 49
0.000833
 49
-0.000417
 49
0.000833
 49
-0.000417
 49
0.000000
 49
-0.000417
  0
LTYPE
  2
DIVIDE
 70
    64
  3
__ . . __ . . __ . . __ . . __ . . __ . . __
 72
    65
 73
     6
 40
0.002083
 49
0.000833
 49
-0.000417
 49
0.000000
 49
-0.000417
 49
0.000000
 49
-0.000417
  0
LTYPE
  2
DOTDOT
 70
    64
  3
 . .  . .  . .  . .  . .  . . 
 72
    65
 73
     5
 40
0.000917
 49
-0.000417
 49
0.000000
 49
-0.000417
 49
0.000000
 49
-0.000417
  0
ENDTAB
  0
TABLE
  2
STYLE
 70
     2
  0
STYLE
 70
     0
  2
SN0
 40
0.000000
 41
0.001667
 50
0.000000
 71
     0
 42
0.000000
  3
ROMAND
  0
STYLE
 70
    68
  2
SV0
 40
0.000000
 41
0.001667
 50
0.000000
 71
     0
 42
0.000000
  3
ROMAND
  0
ENDTAB
  0
TABLE
  2
LAYER
 70
     2
  0
LAYER
  2
FOREGROUND
 70
    64
 62
     7
  6
CONTINUOUS
  0
LAYER
  2
BACKGROUND
 70
    65
 62
    -7
  6
CONTINUOUS
  0
ENDTAB
  0
ENDSEC
  0
SECTION
  2
ENTITIES
  0
POLYLINE
  8
FOREGROUND
  6
CONTINUOUS
 66
     1
 40
0.010000
 41
0.010000
 70
     1
  0
VERTEX
  8
FOREGROUND
  6
CONTINUOUS
 10
7.293333
 20
0.050000
  0
VERTEX
  8
FOREGROUND
  6
CONTINUOUS
 10
7.356934
 20
0.051144
  0
VERTEX
  8
FOREGROUND
  6
CONTINUOUS
 10
7.419983
 20
0.054452
  0
VERTEX
  8
FOREGROUND
  6
CONTINUOUS
 10
7.482443
 20
0.059886
  0
VERTEX
  8
FOREGROUND
  6
CONTINUOUS
 10
7.544279
 20
0.067412
  0
VERTEX
  8
FOREGROUND
  6
CONTINUOUS
 10
7.605455
 20
0.076993
  0
VERTEX
  8
FOREGROUND
  6
CONTINUOUS
 10
7.665935
 20
0.088595
  0
VERTEX
  8
FOREGROUND
  6
CONTINUOUS
 10
7.725684
 20
0.102180
  0
VERTEX
  8
FOREGROUND
  6
CONTINUOUS
 10
7.784666
 20
0.117714
  0
VERTEX
  8
FOREGROUND
  6
CONTINUOUS
 10
7.842845
 20
0.135160
  0
VERTEX
  8
FOREGROUND
  6
CONTINUOUS
 10
7.900185
 20
0.154483
  0
VERTEX
  8
FOREGROUND
  6
CONTINUOUS
 10
7.956650
 20
0.175647
  0
VERTEX
  8
FOREGROUND
  6
CONTINUOUS
 10
8.012205
 20
0.198615
  0
VERTEX
  8
FOREGROUND
  6
CONTINUOUS
 10
8.066814
 20
0.223354
  0
VERTEX
  8
FOREGROUND
  6
CONTINUOUS
 10
8.120440
 20
0.249825
  0
VERTEX
  8
FOREGROUND
  6
CONTINUOUS
 10
8.173049
 20
0.277995
  0
VERTEX
  8
FOREGROUND
  6
CONTINUOUS
 10
8.224605
 20
0.307826
  0
VERTEX
  8
FOREGROUND
  6
CONTINUOUS
 10
8.275071
 20
0.339284
  0
VERTEX
  8
FOREGROUND
  6
CONTINUOUS
 10
8.324412
 20
0.372332
  0
VERTEX
  8
FOREGROUND
  6
CONTINUOUS
 10
8.372592
 20
0.406934
  0
VERTEX
  8
FOREGROUND
  6
CONTINUOUS
 10
8.419575
 20
0.443055
  0
VERTEX
  8
FOREGROUND
  6
CONTINUOUS
 10
8.465326
 20
0.480660
  0
VERTEX
  8
FOREGROUND
  6
CONTINUOUS
 10
8.509809
 20
0.519711
  0
VERTEX
  8
FOREGROUND
  6
CONTINUOUS
 10
8.552987
 20
0.560174
  0
VERTEX
  8
FOREGROUND
  6
CONTINUOUS
 10
8.594826
 20
0.602013
  0
VERTEX
  8
FOREGROUND
  6
CONTINUOUS
 10
8.635289
 20
0.645191
  0
VERTEX
  8
FOREGROUND
  6
CONTINUOUS
 10
8.674340
 20
0.689674
  0
VERTEX
  8
FOREGROUND
  6
CONTINUOUS
 10
8.711945
 20
0.735425
  0
VERTEX
  8
FOREGROUND
  6
CONTINUOUS
 10
8.748066
 20
0.782408
  0
VERTEX
  8
FOREGROUND
  6
CONTINUOUS
 10
8.782668
 20
0.830588
  0
VERTEX
  8
FOREGROUND
  6
CONTINUOUS
 10
8.815716
 20
0.879929
  0
VERTEX
  8
FOREGROUND
  6
CONTINUOUS
 10
8.847174
 20
0.930395
  0
VERTEX
  8
FOREGROUND
  6
CONTINUOUS
 10
8.877005
 20
0.981951
  0
VERTEX
  8
FOREGROUND
  6
CONTINUOUS
 10
8.905175
 20
1.034560
  0
VERTEX
  8
FOREGROUND
  6
CONTINUOUS
 10
8.931646
 20
1.088186
  0
VERTEX
  8
FOREGROUND
  6
CONTINUOUS
 10
8.956385
 20
1.142795
  0
VERTEX
  8
FOREGROUND
  6
CONTINUOUS
 10
8.979353
 20
1.198350
  0
VERTEX
  8
FOREGROUND
  6
CONTINUOUS
 10
9.000517
 20
1.254815
  0
VERTEX
  8
FOREGROUND
  6
CONTINUOUS
 10
9.019840
 20
1.312155
  0
VERTEX
  8
FOREGROUND
  6
CONTINUOUS
 10
9.037286
 20
1.370334
  0
VERTEX
  8
FOREGROUND
  6
CONTINUOUS
 10
9.052820
 20
1.429316
  0
VERTEX
  8
FOREGROUND
  6
CONTINUOUS
 10
9.066405
 20
1.489065
  0
VERTEX
  8
FOREGROUND
  6
CONTINUOUS
 10
9.078007
 20
1.549545
  0
VERTEX
  8
FOREGROUND
  6
CONTINUOUS
 10
9.087588
 20
1.610721
  0
VERTEX
  8
FOREGROUND
  6
CONTINUOUS
 10
9.095114
 20
1.672557
  0
VERTEX
  8
FOREGROUND
  6
CONTINUOUS
 10
9.100548
 20
1.735017
  0
VERTEX
  8
FOREGROUND
  6
CONTINUOUS
 10
9.103856
 20
1.798066
  0
VERTEX
  8
FOREGROUND
  6
CONTINUOUS
 10
9.105000
 20
1.861667
  0
VERTEX
  8
FOREGROUND
  6
CONTINUOUS
 10
9.105000
 20
7.295000
  0
VERTEX
  8
FOREGROUND
  6
CONTINUOUS
 10
9.103855
 20
7.358609
  0
VERTEX
  8
FOREGROUND
  6
CONTINUOUS
 10
9.100547
 20
7.421666
  0
VERTEX
  8
FOREGROUND
  6
CONTINUOUS
 10
9.095112
 20
7.484134
  0
VERTEX
  8
FOREGROUND
  6
CONTINUOUS
 10
9.087584
 20
7.545977
  0
VERTEX
  8
FOREGROUND
  6
CONTINUOUS
 10
9.078000
 20
7.607161
  0
VERTEX
  8
FOREGROUND
  6
CONTINUOUS
 10
9.066396
 20
7.667648
  0
VERTEX
  8
FOREGROUND
  6
CONTINUOUS
 10
9.052807
 20
7.727404
  0
VERTEX
  8
FOREGROUND
  6
CONTINUOUS
 10
9.037270
 20
7.786392
  0
VERTEX
  8
FOREGROUND
  6
CONTINUOUS
 10
9.019819
 20
7.844577
  0
VERTEX
  8
FOREGROUND
  6
CONTINUOUS
 10
9.000492
 20
7.901923
  0
VERTEX
  8
FOREGROUND
  6
CONTINUOUS
 10
8.979323
 20
7.958394
  0
VERTEX
  8
FOREGROUND
  6
CONTINUOUS
 10
8.956349
 20
8.013954
  0
VERTEX
  8
FOREGROUND
  6
CONTINUOUS
 10
8.931605
 20
8.068568
  0
VERTEX
  8
FOREGROUND
  6
CONTINUOUS
 10
8.905128
 20
8.122200
  0
VERTEX
  8
FOREGROUND
  6
CONTINUOUS
 10
8.876952
 20
8.174813
  0
VERTEX
  8
FOREGROUND
  6
CONTINUOUS
 10
8.847114
 20
8.226372
  0
VERTEX
  8
FOREGROUND
  6
CONTINUOUS
 10
8.815649
 20
8.276842
  0
VERTEX
  8
FOREGROUND
  6
CONTINUOUS
 10
8.782594
 20
8.326186
  0
VERTEX
  8
FOREGROUND
  6
CONTINUOUS
 10
8.747984
 20
8.374369
  0
VERTEX
  8
FOREGROUND
  6
CONTINUOUS
 10
8.711855
 20
8.421355
  0
VERTEX
  8
FOREGROUND
  6
CONTINUOUS
 10
8.674243
 20
8.467108
  0
VERTEX
  8
FOREGROUND
  6
CONTINUOUS
 10
8.635183
 20
8.511592
  0
VERTEX
  8
FOREGROUND
  6
CONTINUOUS
 10
8.594711
 20
8.554772
  0
VERTEX
  8
FOREGROUND
  6
CONTINUOUS
 10
8.552864
 20
8.596612
  0
VERTEX
  8
FOREGROUND
  6
CONTINUOUS
 10
8.509677
 20
8.637075
  0
VERTEX
  8
FOREGROUND
  6
CONTINUOUS
 10
8.465185
 20
8.676126
  0
VERTEX
  8
FOREGROUND
  6
CONTINUOUS
 10
8.419425
 20
8.713730
  0
VERTEX
  8
FOREGROUND
  6
CONTINUOUS
 10
8.372433
 20
8.749851
  0
VERTEX
  8
FOREGROUND
  6
CONTINUOUS
 10
8.324244
 20
8.784452
  0
VERTEX
  8
FOREGROUND
  6
CONTINUOUS
 10
8.274893
 20
8.817498
  0
VERTEX
  8
FOREGROUND
  6
CONTINUOUS
 10
8.224418
 20
8.848953
  0
VERTEX
  8
FOREGROUND
  6
CONTINUOUS
 10
8.172853
 20
8.878782
  0
VERTEX
  8
FOREGROUND
  6
CONTINUOUS
 10
8.120234
 20
8.906948
  0
VERTEX
  8
FOREGROUND
  6
CONTINUOUS
 10
8.066598
 20
8.933415
  0
VERTEX
  8
FOREGROUND
  6
CONTINUOUS
 10
8.011979
 20
8.958149
  0
VERTEX
  8
FOREGROUND
  6
CONTINUOUS
 10
7.956415
 20
8.981113
  0
VERTEX
  8
FOREGROUND
  6
CONTINUOUS
 10
7.899940
 20
9.002271
  0
VERTEX
  8
FOREGROUND
  6
CONTINUOUS
 10
7.842591
 20
9.021588
  0
VERTEX
  8
FOREGROUND
  6
CONTINUOUS
 10
7.784402
 20
9.039027
  0
VERTEX
  8
FOREGROUND
  6
CONTINUOUS
 10
7.725411
 20
9.054554
  0
VERTEX
  8
FOREGROUND
  6
CONTINUOUS
 10
7.665653
 20
9.068131
  0
VERTEX
  8
FOREGROUND
  6
CONTINUOUS
 10
7.605163
 20
9.079724
  0
VERTEX
  8
FOREGROUND
  6
CONTINUOUS
 10
7.543978
 20
9.089297
  0
VERTEX
  8
FOREGROUND
  6
CONTINUOUS
 10
7.482133
 20
9.096813
  0
VERTEX
  8
FOREGROUND
  6
CONTINUOUS
 10
7.419664
 20
9.102237
  0
VERTEX
  8
FOREGROUND
  6
CONTINUOUS
 10
7.356607
 20
9.105534
  0
VERTEX
  8
FOREGROUND
  6
CONTINUOUS
 10
7.292998
 20
9.106667
  0
VERTEX
  8
FOREGROUND
  6
CONTINUOUS
 10
1.861331
 20
9.106667
  0
VERTEX
  8
FOREGROUND
  6
CONTINUOUS
 10
1.797739
 20
9.105511
  0
VERTEX
  8
FOREGROUND
  6
CONTINUOUS
 10
1.734699
 20
9.102193
  0
VERTEX
  8
FOREGROUND
  6
CONTINUOUS
 10
1.672247
 20
9.096748
  0
VERTEX
  8
FOREGROUND
  6
CONTINUOUS
 10
1.610420
 20
9.089213
  0
VERTEX
  8
FOREGROUND
  6
CONTINUOUS
 10
1.549253
 20
9.079622
  0
VERTEX
  8
FOREGROUND
  6
CONTINUOUS
 10
1.488782
 20
9.068012
  0
VERTEX
  8
FOREGROUND
  6
CONTINUOUS
 10
1.429042
 20
9.054419
  0
VERTEX
  8
FOREGROUND
  6
CONTINUOUS
 10
1.370070
 20
9.038878
  0
VERTEX
  8
FOREGROUND
  6
CONTINUOUS
 10
1.311901
 20
9.021425
  0
VERTEX
  8
FOREGROUND
  6
CONTINUOUS
 10
1.254571
 20
9.002096
  0
VERTEX
  8
FOREGROUND
  6
CONTINUOUS
 10
1.198115
 20
8.980927
  0
VERTEX
  8
FOREGROUND
  6
CONTINUOUS
 10
1.142570
 20
8.957953
  0
VERTEX
  8
FOREGROUND
  6
CONTINUOUS
 10
1.087970
 20
8.933211
  0
VERTEX
  8
FOREGROUND
  6
CONTINUOUS
 10
1.034353
 20
8.906735
  0
VERTEX
  8
FOREGROUND
  6
CONTINUOUS
 10
0.981754
 20
8.878562
  0
VERTEX
  8
FOREGROUND
  6
CONTINUOUS
 10
0.930208
 20
8.848728
  0
VERTEX
  8
FOREGROUND
  6
CONTINUOUS
 10
0.879751
 20
8.817268
  0
VERTEX
  8
FOREGROUND
  6
CONTINUOUS
 10
0.830420
 20
8.784218
  0
VERTEX
  8
FOREGROUND
  6
CONTINUOUS
 10
0.782249
 20
8.749615
  0
VERTEX
  8
FOREGROUND
  6
CONTINUOUS
 10
0.735275
 20
8.713492
  0
VERTEX
  8
FOREGROUND
  6
CONTINUOUS
 10
0.689533
 20
8.675888
  0
VERTEX
  8
FOREGROUND
  6
CONTINUOUS
 10
0.645060
 20
8.636836
  0
VERTEX
  8
FOREGROUND
  6
CONTINUOUS
 10
0.601890
 20
8.596373
  0
VERTEX
  8
FOREGROUND
  6
CONTINUOUS
 10
0.560060
 20
8.554536
  0
VERTEX
  8
FOREGROUND
  6
CONTINUOUS
 10
0.519605
 20
8.511358
  0
VERTEX
  8
FOREGROUND
  6
CONTINUOUS
 10
0.480562
 20
8.466878
  0
VERTEX
  8
FOREGROUND
  6
CONTINUOUS
 10
0.442966
 20
8.421129
  0
VERTEX
  8
FOREGROUND
  6
CONTINUOUS
 10
0.406852
 20
8.374148
  0
VERTEX
  8
FOREGROUND
  6
CONTINUOUS
 10
0.372257
 20
8.325971
  0
VERTEX
  8
FOREGROUND
  6
CONTINUOUS
 10
0.339216
 20
8.276633
  0
VERTEX
  8
FOREGROUND
  6
CONTINUOUS
 10
0.307766
 20
8.226171
  0
VERTEX
  8
FOREGROUND
  6
CONTINUOUS
 10
0.277941
 20
8.174619
  0
VERTEX
  8
FOREGROUND
  6
CONTINUOUS
 10
0.249778
 20
8.122015
  0
VERTEX
  8
FOREGROUND
  6
CONTINUOUS
 10
0.223312
 20
8.068393
  0
VERTEX
  8
FOREGROUND
  6
CONTINUOUS
 10
0.198580
 20
8.013789
  0
VERTEX
  8
FOREGROUND
  6
CONTINUOUS
 10
0.175616
 20
7.958239
  0
VERTEX
  8
FOREGROUND
  6
CONTINUOUS
 10
0.154458
 20
7.901780
  0
VERTEX
  8
FOREGROUND
  6
CONTINUOUS
 10
0.135139
 20
7.844446
  0
VERTEX
  8
FOREGROUND
  6
CONTINUOUS
 10
0.117697
 20
7.786273
  0
VERTEX
  8
FOREGROUND
  6
CONTINUOUS
 10
0.102167
 20
7.727298
  0
VERTEX
  8
FOREGROUND
  6
CONTINUOUS
 10
0.088585
 20
7.667556
  0
VERTEX
  8
FOREGROUND
  6
CONTINUOUS
 10
0.076987
 20
7.607083
  0
VERTEX
  8
FOREGROUND
  6
CONTINUOUS
 10
0.067408
 20
7.545914
  0
VERTEX
  8
FOREGROUND
  6
CONTINUOUS
 10
0.059884
 20
7.484085
  0
VERTEX
  8
FOREGROUND
  6
CONTINUOUS
 10
0.054450
 20
7.421633
  0
VERTEX
  8
FOREGROUND
  6
CONTINUOUS
 10
0.051144
 20
7.358593
  0
VERTEX
  8
FOREGROUND
  6
CONTINUOUS
 10
0.050000
 20
7.295000
  0
VERTEX
  8
FOREGROUND
  6
CONTINUOUS
 10
0.050000
 20
1.861667
  0
VERTEX
  8
FOREGROUND
  6
CONTINUOUS
 10
0.051144
 20
1.798066
  0
VERTEX
  8
FOREGROUND
  6
CONTINUOUS
 10
0.054452
 20
1.735017
  0
VERTEX
  8
FOREGROUND
  6
CONTINUOUS
 10
0.059886
 20
1.672557
  0
VERTEX
  8
FOREGROUND
  6
CONTINUOUS
 10
0.067412
 20
1.610721
  0
VERTEX
  8
FOREGROUND
  6
CONTINUOUS
 10
0.076993
 20
1.549545
  0
VERTEX
  8
FOREGROUND
  6
CONTINUOUS
 10
0.088595
 20
1.489065
  0
VERTEX
  8
FOREGROUND
  6
CONTINUOUS
 10
0.102180
 20
1.429316
  0
VERTEX
  8
FOREGROUND
  6
CONTINUOUS
 10
0.117714
 20
1.370334
  0
VERTEX
  8
FOREGROUND
  6
CONTINUOUS
 10
0.135160
 20
1.312155
  0
VERTEX
  8
FOREGROUND
  6
CONTINUOUS
 10
0.154483
 20
1.254815
  0
VERTEX
  8
FOREGROUND
  6
CONTINUOUS
 10
0.175647
 20
1.198350
  0
VERTEX
  8
FOREGROUND
  6
CONTINUOUS
 10
0.198615
 20
1.142795
  0
VERTEX
  8
FOREGROUND
  6
CONTINUOUS
 10
0.223354
 20
1.088186
  0
VERTEX
  8
FOREGROUND
  6
CONTINUOUS
 10
0.249825
 20
1.034560
  0
VERTEX
  8
FOREGROUND
  6
CONTINUOUS
 10
0.277995
 20
0.981951
  0
VERTEX
  8
FOREGROUND
  6
CONTINUOUS
 10
0.307826
 20
0.930395
  0
VERTEX
  8
FOREGROUND
  6
CONTINUOUS
 10
0.339284
 20
0.879929
  0
VERTEX
  8
FOREGROUND
  6
CONTINUOUS
 10
0.372332
 20
0.830588
  0
VERTEX
  8
FOREGROUND
  6
CONTINUOUS
 10
0.406934
 20
0.782408
  0
VERTEX
  8
FOREGROUND
  6
CONTINUOUS
 10
0.443055
 20
0.735425
  0
VERTEX
  8
FOREGROUND
  6
CONTINUOUS
 10
0.480660
 20
0.689674
  0
VERTEX
  8
FOREGROUND
  6
CONTINUOUS
 10
0.519711
 20
0.645191
  0
VERTEX
  8
FOREGROUND
  6
CONTINUOUS
 10
0.560174
 20
0.602013
  0
VERTEX
  8
FOREGROUND
  6
CONTINUOUS
 10
0.602013
 20
0.560174
  0
VERTEX
  8
FOREGROUND
  6
CONTINUOUS
 10
0.645191
 20
0.519711
  0
VERTEX
  8
FOREGROUND
  6
CONTINUOUS
 10
0.689674
 20
0.480660
  0
VERTEX
  8
FOREGROUND
  6
CONTINUOUS
 10
0.735425
 20
0.443055
  0
VERTEX
  8
FOREGROUND
  6
CONTINUOUS
 10
0.782408
 20
0.406934
  0
VERTEX
  8
FOREGROUND
  6
CONTINUOUS
 10
0.830588
 20
0.372332
  0
VERTEX
  8
FOREGROUND
  6
CONTINUOUS
 10
0.879929
 20
0.339284
  0
VERTEX
  8
FOREGROUND
  6
CONTINUOUS
 10
0.930395
 20
0.307826
  0
VERTEX
  8
FOREGROUND
  6
CONTINUOUS
 10
0.981951
 20
0.277995
  0
VERTEX
  8
FOREGROUND
  6
CONTINUOUS
 10
1.034560
 20
0.249825
  0
VERTEX
  8
FOREGROUND
  6
CONTINUOUS
 10
1.088186
 20
0.223354
  0
VERTEX
  8
FOREGROUND
  6
CONTINUOUS
 10
1.142795
 20
0.198615
  0
VERTEX
  8
FOREGROUND
  6
CONTINUOUS
 10
1.198350
 20
0.175647
  0
VERTEX
  8
FOREGROUND
  6
CONTINUOUS
 10
1.254815
 20
0.154483
  0
VERTEX
  8
FOREGROUND
  6
CONTINUOUS
 10
1.312155
 20
0.135160
  0
VERTEX
  8
FOREGROUND
  6
CONTINUOUS
 10
1.370334
 20
0.117714
  0
VERTEX
  8
FOREGROUND
  6
CONTINUOUS
 10
1.429316
 20
0.102180
  0
VERTEX
  8
FOREGROUND
  6
CONTINUOUS
 10
1.489065
 20
0.088595
  0
VERTEX
  8
FOREGROUND
  6
CONTINUOUS
 10
1.549545
 20
0.076993
  0
VERTEX
  8
FOREGROUND
  6
CONTINUOUS
 10
1.610721
 20
0.067412
  0
VERTEX
  8
FOREGROUND
  6
CONTINUOUS
 10
1.672557
 20
0.059886
  0
VERTEX
  8
FOREGROUND
  6
CONTINUOUS
 10
1.735017
 20
0.054452
  0
VERTEX
  8
FOREGROUND
  6
CONTINUOUS
 10
1.798066
 20
0.051144
  0
VERTEX
  8
FOREGROUND
  6
CONTINUOUS
 10
1.861667
 20
0.050000
  0
SEQEND
  8
0
  0
ENDSEC
  0
EOF
