  0
SECTION
  2
HEADER
  9
$ACADVER
  1
AC1006
  9
$EXTMIN
 10
0.000000
 20
0.000000
  9
$EXTMAX
 10
9.548333
 20
9.550000
  9
$LTSCALE
 40
0.166667
  9
$PDMODE
 70
    35
  9
$PDSIZE
 40
0.133333
  0
ENDSEC
  0
SECTION
  2
TABLES
  0
TABLE
  2
LTYPE
 70
     9
  0
LTYPE
  2
CONTINUOUS
 70
    64
  3
Solid line
 72
    65
 73
     0
 40
0.000000
  0
LTYPE
  2
DASHED
 70
    64
  3
__ __ __ __ __ __ __ __ __ __ __ __ __ __ __
 72
    65
 73
     2
 40
0.001250
 49
0.000833
 49
-0.000417
  0
LTYPE
  2
HIDDEN
 70
    64
  3
 _ _ _ _ _ _ _ _ _ _ _ _ _ _ _ _ _ _ _ _ _ _
 72
    65
 73
     2
 40
0.000625
 49
0.000417
 49
-0.000208
  0
LTYPE
  2
CENTER
 70
    64
  3
____ _ ____ _ ____ _ ____ _ ____ _ ____ _ ____
 72
    65
 73
     4
 40
0.003333
 49
0.002083
 49
-0.000417
 49
0.000417
 49
-0.000417
  0
LTYPE
  2
PHANTOM
 70
    64
  3
_____ _ _ _____ _ _ _____ _ _ _____ _ _ ____
 72
    65
 73
     6
 40
0.004167
 49
0.002083
 49
-0.000417
 49
0.000417
 49
-0.000417
 49
0.000417
 49
-0.000417
  0
LTYPE
  2
DOT
 70
    64
  3
...............................................
 72
    65
 73
     2
 40
0.000417
 49
0.000000
 49
-0.000417
  0
LTYPE
  2
DASHDOT
 70
    64
  3
__ . __ . __ . __ . __ . __ . __ . __ . __ . __
 72
    65
 73
     4
 40
0.001667
 49
0.000833
 49
-0.000417
 49
0.000000
 49
-0.000417
  0
LTYPE
  2
BORDER
 70
    64
  3
__ __ . __ __ . __ __ . __ __ . __ __ . __ __
 72
    65
 73
     6
 40
0.002917
 49
0.000833
 49
-0.000417
 49
0.000833
 49
-0.000417
 49
0.000000
 49
-0.000417
  0
LTYPE
  2
DIVIDE
 70
    64
  3
__ . . __ . . __ . . __ . . __ . . __ . . __
 72
    65
 73
     6
 40
0.002083
 49
0.000833
 49
-0.000417
 49
0.000000
 49
-0.000417
 49
0.000000
 49
-0.000417
  0
LTYPE
  2
DOTDOT
 70
    64
  3
 . .  . .  . .  . .  . .  . . 
 72
    65
 73
     5
 40
0.000917
 49
-0.000417
 49
0.000000
 49
-0.000417
 49
0.000000
 49
-0.000417
  0
ENDTAB
  0
TABLE
  2
STYLE
 70
     2
  0
STYLE
 70
     0
  2
SN0
 40
0.000000
 41
0.001667
 50
0.000000
 71
     0
 42
0.000000
  3
ROMAND
  0
STYLE
 70
    68
  2
SV0
 40
0.000000
 41
0.001667
 50
0.000000
 71
     0
 42
0.000000
  3
ROMAND
  0
ENDTAB
  0
TABLE
  2
LAYER
 70
     2
  0
LAYER
  2
FOREGROUND
 70
    64
 62
     7
  6
CONTINUOUS
  0
LAYER
  2
BACKGROUND
 70
    65
 62
    -7
  6
CONTINUOUS
  0
ENDTAB
  0
ENDSEC
  0
SECTION
  2
ENTITIES
  0
POLYLINE
  8
FOREGROUND
  6
CONTINUOUS
 66
     1
 40
0.010000
 41
0.010000
 70
     1
  0
VERTEX
  8
FOREGROUND
  6
CONTINUOUS
 10
7.608333
 20
0.050000
  0
VERTEX
  8
FOREGROUND
  6
CONTINUOUS
 10
7.674684
 20
0.051194
  0
VERTEX
  8
FOREGROUND
  6
CONTINUOUS
 10
7.740459
 20
0.054644
  0
VERTEX
  8
FOREGROUND
  6
CONTINUOUS
 10
7.805620
 20
0.060313
  0
VERTEX
  8
FOREGROUND
  6
CONTINUOUS
 10
7.870129
 20
0.068165
  0
VERTEX
  8
FOREGROUND
  6
CONTINUOUS
 10
7.933951
 20
0.078161
  0
VERTEX
  8
FOREGROUND
  6
CONTINUOUS
 10
7.997046
 20
0.090264
  0
VERTEX
  8
FOREGROUND
  6
CONTINUOUS
 10
8.059378
 20
0.104436
  0
VERTEX
  8
FOREGROUND
  6
CONTINUOUS
 10
8.120911
 20
0.120642
  0
VERTEX
  8
FOREGROUND
  6
CONTINUOUS
 10
8.181605
 20
0.138842
  0
VERTEX
  8
FOREGROUND
  6
CONTINUOUS
 10
8.241424
 20
0.159001
  0
VERTEX
  8
FOREGROUND
  6
CONTINUOUS
 10
8.300331
 20
0.181079
  0
VERTEX
  8
FOREGROUND
  6
CONTINUOUS
 10
8.358288
 20
0.205041
  0
VERTEX
  8
FOREGROUND
  6
CONTINUOUS
 10
8.415258
 20
0.230849
  0
VERTEX
  8
FOREGROUND
  6
CONTINUOUS
 10
8.471203
 20
0.258465
  0
VERTEX
  8
FOREGROUND
  6
CONTINUOUS
 10
8.526087
 20
0.287853
  0
VERTEX
  8
FOREGROUND
  6
CONTINUOUS
 10
8.579871
 20
0.318974
  0
VERTEX
  8
FOREGROUND
  6
CONTINUOUS
 10
8.632520
 20
0.351792
  0
VERTEX
  8
FOREGROUND
  6
CONTINUOUS
 10
8.683994
 20
0.386269
  0
VERTEX
  8
FOREGROUND
  6
CONTINUOUS
 10
8.734257
 20
0.422367
  0
VERTEX
  8
FOREGROUND
  6
CONTINUOUS
 10
8.783272
 20
0.460050
  0
VERTEX
  8
FOREGROUND
  6
CONTINUOUS
 10
8.831001
 20
0.499281
  0
VERTEX
  8
FOREGROUND
  6
CONTINUOUS
 10
8.877407
 20
0.540021
  0
VERTEX
  8
FOREGROUND
  6
CONTINUOUS
 10
8.922452
 20
0.582233
  0
VERTEX
  8
FOREGROUND
  6
CONTINUOUS
 10
8.966100
 20
0.625881
  0
VERTEX
  8
FOREGROUND
  6
CONTINUOUS
 10
9.008313
 20
0.670926
  0
VERTEX
  8
FOREGROUND
  6
CONTINUOUS
 10
9.049053
 20
0.717332
  0
VERTEX
  8
FOREGROUND
  6
CONTINUOUS
 10
9.088283
 20
0.765061
  0
VERTEX
  8
FOREGROUND
  6
CONTINUOUS
 10
9.125966
 20
0.814076
  0
VERTEX
  8
FOREGROUND
  6
CONTINUOUS
 10
9.162065
 20
0.864339
  0
VERTEX
  8
FOREGROUND
  6
CONTINUOUS
 10
9.196542
 20
0.915814
  0
VERTEX
  8
FOREGROUND
  6
CONTINUOUS
 10
9.229359
 20
0.968462
  0
VERTEX
  8
FOREGROUND
  6
CONTINUOUS
 10
9.260481
 20
1.022246
  0
VERTEX
  8
FOREGROUND
  6
CONTINUOUS
 10
9.289868
 20
1.077130
  0
VERTEX
  8
FOREGROUND
  6
CONTINUOUS
 10
9.317484
 20
1.133076
  0
VERTEX
  8
FOREGROUND
  6
CONTINUOUS
 10
9.343292
 20
1.190046
  0
VERTEX
  8
FOREGROUND
  6
CONTINUOUS
 10
9.367254
 20
1.248003
  0
VERTEX
  8
FOREGROUND
  6
CONTINUOUS
 10
9.389333
 20
1.306909
  0
VERTEX
  8
FOREGROUND
  6
CONTINUOUS
 10
9.409491
 20
1.366729
  0
VERTEX
  8
FOREGROUND
  6
CONTINUOUS
 10
9.427692
 20
1.427423
  0
VERTEX
  8
FOREGROUND
  6
CONTINUOUS
 10
9.443897
 20
1.488955
  0
VERTEX
  8
FOREGROUND
  6
CONTINUOUS
 10
9.458070
 20
1.551287
  0
VERTEX
  8
FOREGROUND
  6
CONTINUOUS
 10
9.470173
 20
1.614383
  0
VERTEX
  8
FOREGROUND
  6
CONTINUOUS
 10
9.480169
 20
1.678204
  0
VERTEX
  8
FOREGROUND
  6
CONTINUOUS
 10
9.488020
 20
1.742714
  0
VERTEX
  8
FOREGROUND
  6
CONTINUOUS
 10
9.493689
 20
1.807875
  0
VERTEX
  8
FOREGROUND
  6
CONTINUOUS
 10
9.497140
 20
1.873649
  0
VERTEX
  8
FOREGROUND
  6
CONTINUOUS
 10
9.498333
 20
1.940000
  0
VERTEX
  8
FOREGROUND
  6
CONTINUOUS
 10
9.498333
 20
7.610000
  0
VERTEX
  8
FOREGROUND
  6
CONTINUOUS
 10
9.497139
 20
7.676360
  0
VERTEX
  8
FOREGROUND
  6
CONTINUOUS
 10
9.493688
 20
7.742142
  0
VERTEX
  8
FOREGROUND
  6
CONTINUOUS
 10
9.488017
 20
7.807311
  0
VERTEX
  8
FOREGROUND
  6
CONTINUOUS
 10
9.480164
 20
7.871829
  0
VERTEX
  8
FOREGROUND
  6
CONTINUOUS
 10
9.470166
 20
7.935658
  0
VERTEX
  8
FOREGROUND
  6
CONTINUOUS
 10
9.458060
 20
7.998761
  0
VERTEX
  8
FOREGROUND
  6
CONTINUOUS
 10
9.443884
 20
8.061100
  0
VERTEX
  8
FOREGROUND
  6
CONTINUOUS
 10
9.427674
 20
8.122639
  0
VERTEX
  8
FOREGROUND
  6
CONTINUOUS
 10
9.409470
 20
8.183340
  0
VERTEX
  8
FOREGROUND
  6
CONTINUOUS
 10
9.389307
 20
8.243165
  0
VERTEX
  8
FOREGROUND
  6
CONTINUOUS
 10
9.367223
 20
8.302078
  0
VERTEX
  8
FOREGROUND
  6
CONTINUOUS
 10
9.343255
 20
8.360041
  0
VERTEX
  8
FOREGROUND
  6
CONTINUOUS
 10
9.317441
 20
8.417016
  0
VERTEX
  8
FOREGROUND
  6
CONTINUOUS
 10
9.289819
 20
8.472966
  0
VERTEX
  8
FOREGROUND
  6
CONTINUOUS
 10
9.260425
 20
8.527854
  0
VERTEX
  8
FOREGROUND
  6
CONTINUOUS
 10
9.229297
 20
8.581643
  0
VERTEX
  8
FOREGROUND
  6
CONTINUOUS
 10
9.196472
 20
8.634295
  0
VERTEX
  8
FOREGROUND
  6
CONTINUOUS
 10
9.161987
 20
8.685773
  0
VERTEX
  8
FOREGROUND
  6
CONTINUOUS
 10
9.125881
 20
8.736039
  0
VERTEX
  8
FOREGROUND
  6
CONTINUOUS
 10
9.088189
 20
8.785057
  0
VERTEX
  8
FOREGROUND
  6
CONTINUOUS
 10
9.048951
 20
8.832788
  0
VERTEX
  8
FOREGROUND
  6
CONTINUOUS
 10
9.008202
 20
8.879196
  0
VERTEX
  8
FOREGROUND
  6
CONTINUOUS
 10
8.965981
 20
8.924242
  0
VERTEX
  8
FOREGROUND
  6
CONTINUOUS
 10
8.922324
 20
8.967891
  0
VERTEX
  8
FOREGROUND
  6
CONTINUOUS
 10
8.877269
 20
9.010104
  0
VERTEX
  8
FOREGROUND
  6
CONTINUOUS
 10
8.830854
 20
9.050844
  0
VERTEX
  8
FOREGROUND
  6
CONTINUOUS
 10
8.783116
 20
9.090074
  0
VERTEX
  8
FOREGROUND
  6
CONTINUOUS
 10
8.734091
 20
9.127756
  0
VERTEX
  8
FOREGROUND
  6
CONTINUOUS
 10
8.683818
 20
9.163853
  0
VERTEX
  8
FOREGROUND
  6
CONTINUOUS
 10
8.632334
 20
9.198328
  0
VERTEX
  8
FOREGROUND
  6
CONTINUOUS
 10
8.579676
 20
9.231143
  0
VERTEX
  8
FOREGROUND
  6
CONTINUOUS
 10
8.525882
 20
9.262261
  0
VERTEX
  8
FOREGROUND
  6
CONTINUOUS
 10
8.470988
 20
9.291645
  0
VERTEX
  8
FOREGROUND
  6
CONTINUOUS
 10
8.415032
 20
9.319258
  0
VERTEX
  8
FOREGROUND
  6
CONTINUOUS
 10
8.358053
 20
9.345061
  0
VERTEX
  8
FOREGROUND
  6
CONTINUOUS
 10
8.300085
 20
9.369018
  0
VERTEX
  8
FOREGROUND
  6
CONTINUOUS
 10
8.241169
 20
9.391091
  0
VERTEX
  8
FOREGROUND
  6
CONTINUOUS
 10
8.181340
 20
9.411243
  0
VERTEX
  8
FOREGROUND
  6
CONTINUOUS
 10
8.120635
 20
9.429436
  0
VERTEX
  8
FOREGROUND
  6
CONTINUOUS
 10
8.059094
 20
9.445634
  0
VERTEX
  8
FOREGROUND
  6
CONTINUOUS
 10
7.996751
 20
9.459799
  0
VERTEX
  8
FOREGROUND
  6
CONTINUOUS
 10
7.933646
 20
9.471893
  0
VERTEX
  8
FOREGROUND
  6
CONTINUOUS
 10
7.869815
 20
9.481879
  0
VERTEX
  8
FOREGROUND
  6
CONTINUOUS
 10
7.805296
 20
9.489720
  0
VERTEX
  8
FOREGROUND
  6
CONTINUOUS
 10
7.740126
 20
9.495379
  0
VERTEX
  8
FOREGROUND
  6
CONTINUOUS
 10
7.674343
 20
9.498818
  0
VERTEX
  8
FOREGROUND
  6
CONTINUOUS
 10
7.607983
 20
9.500000
  0
VERTEX
  8
FOREGROUND
  6
CONTINUOUS
 10
1.939650
 20
9.500000
  0
VERTEX
  8
FOREGROUND
  6
CONTINUOUS
 10
1.873308
 20
9.498794
  0
VERTEX
  8
FOREGROUND
  6
CONTINUOUS
 10
1.807542
 20
9.495333
  0
VERTEX
  8
FOREGROUND
  6
CONTINUOUS
 10
1.742391
 20
9.489652
  0
VERTEX
  8
FOREGROUND
  6
CONTINUOUS
 10
1.677890
 20
9.481791
  0
VERTEX
  8
FOREGROUND
  6
CONTINUOUS
 10
1.614079
 20
9.471786
  0
VERTEX
  8
FOREGROUND
  6
CONTINUOUS
 10
1.550993
 20
9.459674
  0
VERTEX
  8
FOREGROUND
  6
CONTINUOUS
 10
1.488670
 20
9.445493
  0
VERTEX
  8
FOREGROUND
  6
CONTINUOUS
 10
1.427148
 20
9.429280
  0
VERTEX
  8
FOREGROUND
  6
CONTINUOUS
 10
1.366463
 20
9.411073
  0
VERTEX
  8
FOREGROUND
  6
CONTINUOUS
 10
1.306654
 20
9.390908
  0
VERTEX
  8
FOREGROUND
  6
CONTINUOUS
 10
1.247757
 20
9.368824
  0
VERTEX
  8
FOREGROUND
  6
CONTINUOUS
 10
1.189810
 20
9.344857
  0
VERTEX
  8
FOREGROUND
  6
CONTINUOUS
 10
1.132850
 20
9.319044
  0
VERTEX
  8
FOREGROUND
  6
CONTINUOUS
 10
1.076915
 20
9.291424
  0
VERTEX
  8
FOREGROUND
  6
CONTINUOUS
 10
1.022041
 20
9.262033
  0
VERTEX
  8
FOREGROUND
  6
CONTINUOUS
 10
0.968267
 20
9.230909
  0
VERTEX
  8
FOREGROUND
  6
CONTINUOUS
 10
0.915628
 20
9.198089
  0
VERTEX
  8
FOREGROUND
  6
CONTINUOUS
 10
0.864164
 20
9.163610
  0
VERTEX
  8
FOREGROUND
  6
CONTINUOUS
 10
0.813910
 20
9.127510
  0
VERTEX
  8
FOREGROUND
  6
CONTINUOUS
 10
0.764905
 20
9.089825
  0
VERTEX
  8
FOREGROUND
  6
CONTINUOUS
 10
0.717185
 20
9.050595
  0
VERTEX
  8
FOREGROUND
  6
CONTINUOUS
 10
0.670789
 20
9.009855
  0
VERTEX
  8
FOREGROUND
  6
CONTINUOUS
 10
0.625753
 20
8.967643
  0
VERTEX
  8
FOREGROUND
  6
CONTINUOUS
 10
0.582114
 20
8.923996
  0
VERTEX
  8
FOREGROUND
  6
CONTINUOUS
 10
0.539910
 20
8.878952
  0
VERTEX
  8
FOREGROUND
  6
CONTINUOUS
 10
0.499179
 20
8.832548
  0
VERTEX
  8
FOREGROUND
  6
CONTINUOUS
 10
0.459957
 20
8.784821
  0
VERTEX
  8
FOREGROUND
  6
CONTINUOUS
 10
0.422282
 20
8.735809
  0
VERTEX
  8
FOREGROUND
  6
CONTINUOUS
 10
0.386191
 20
8.685548
  0
VERTEX
  8
FOREGROUND
  6
CONTINUOUS
 10
0.351722
 20
8.634077
  0
VERTEX
  8
FOREGROUND
  6
CONTINUOUS
 10
0.318911
 20
8.581433
  0
VERTEX
  8
FOREGROUND
  6
CONTINUOUS
 10
0.287797
 20
8.527653
  0
VERTEX
  8
FOREGROUND
  6
CONTINUOUS
 10
0.258416
 20
8.472773
  0
VERTEX
  8
FOREGROUND
  6
CONTINUOUS
 10
0.230806
 20
8.416833
  0
VERTEX
  8
FOREGROUND
  6
CONTINUOUS
 10
0.205004
 20
8.359868
  0
VERTEX
  8
FOREGROUND
  6
CONTINUOUS
 10
0.181048
 20
8.301917
  0
VERTEX
  8
FOREGROUND
  6
CONTINUOUS
 10
0.158974
 20
8.243016
  0
VERTEX
  8
FOREGROUND
  6
CONTINUOUS
 10
0.138821
 20
8.183203
  0
VERTEX
  8
FOREGROUND
  6
CONTINUOUS
 10
0.120625
 20
8.122515
  0
VERTEX
  8
FOREGROUND
  6
CONTINUOUS
 10
0.104423
 20
8.060990
  0
VERTEX
  8
FOREGROUND
  6
CONTINUOUS
 10
0.090254
 20
7.998665
  0
VERTEX
  8
FOREGROUND
  6
CONTINUOUS
 10
0.078154
 20
7.935576
  0
VERTEX
  8
FOREGROUND
  6
CONTINUOUS
 10
0.068160
 20
7.871763
  0
VERTEX
  8
FOREGROUND
  6
CONTINUOUS
 10
0.060311
 20
7.807261
  0
VERTEX
  8
FOREGROUND
  6
CONTINUOUS
 10
0.054643
 20
7.742108
  0
VERTEX
  8
FOREGROUND
  6
CONTINUOUS
 10
0.051193
 20
7.676342
  0
VERTEX
  8
FOREGROUND
  6
CONTINUOUS
 10
0.050000
 20
7.610000
  0
VERTEX
  8
FOREGROUND
  6
CONTINUOUS
 10
0.050000
 20
1.940000
  0
VERTEX
  8
FOREGROUND
  6
CONTINUOUS
 10
0.051194
 20
1.873649
  0
VERTEX
  8
FOREGROUND
  6
CONTINUOUS
 10
0.054644
 20
1.807875
  0
VERTEX
  8
FOREGROUND
  6
CONTINUOUS
 10
0.060313
 20
1.742714
  0
VERTEX
  8
FOREGROUND
  6
CONTINUOUS
 10
0.068165
 20
1.678204
  0
VERTEX
  8
FOREGROUND
  6
CONTINUOUS
 10
0.078161
 20
1.614383
  0
VERTEX
  8
FOREGROUND
  6
CONTINUOUS
 10
0.090264
 20
1.551287
  0
VERTEX
  8
FOREGROUND
  6
CONTINUOUS
 10
0.104436
 20
1.488955
  0
VERTEX
  8
FOREGROUND
  6
CONTINUOUS
 10
0.120642
 20
1.427423
  0
VERTEX
  8
FOREGROUND
  6
CONTINUOUS
 10
0.138842
 20
1.366729
  0
VERTEX
  8
FOREGROUND
  6
CONTINUOUS
 10
0.159001
 20
1.306909
  0
VERTEX
  8
FOREGROUND
  6
CONTINUOUS
 10
0.181079
 20
1.248003
  0
VERTEX
  8
FOREGROUND
  6
CONTINUOUS
 10
0.205041
 20
1.190046
  0
VERTEX
  8
FOREGROUND
  6
CONTINUOUS
 10
0.230849
 20
1.133076
  0
VERTEX
  8
FOREGROUND
  6
CONTINUOUS
 10
0.258465
 20
1.077130
  0
VERTEX
  8
FOREGROUND
  6
CONTINUOUS
 10
0.287853
 20
1.022246
  0
VERTEX
  8
FOREGROUND
  6
CONTINUOUS
 10
0.318974
 20
0.968462
  0
VERTEX
  8
FOREGROUND
  6
CONTINUOUS
 10
0.351792
 20
0.915814
  0
VERTEX
  8
FOREGROUND
  6
CONTINUOUS
 10
0.386269
 20
0.864339
  0
VERTEX
  8
FOREGROUND
  6
CONTINUOUS
 10
0.422367
 20
0.814076
  0
VERTEX
  8
FOREGROUND
  6
CONTINUOUS
 10
0.460050
 20
0.765061
  0
VERTEX
  8
FOREGROUND
  6
CONTINUOUS
 10
0.499281
 20
0.717332
  0
VERTEX
  8
FOREGROUND
  6
CONTINUOUS
 10
0.540021
 20
0.670926
  0
VERTEX
  8
FOREGROUND
  6
CONTINUOUS
 10
0.582233
 20
0.625881
  0
VERTEX
  8
FOREGROUND
  6
CONTINUOUS
 10
0.625881
 20
0.582233
  0
VERTEX
  8
FOREGROUND
  6
CONTINUOUS
 10
0.670926
 20
0.540021
  0
VERTEX
  8
FOREGROUND
  6
CONTINUOUS
 10
0.717332
 20
0.499281
  0
VERTEX
  8
FOREGROUND
  6
CONTINUOUS
 10
0.765061
 20
0.460050
  0
VERTEX
  8
FOREGROUND
  6
CONTINUOUS
 10
0.814076
 20
0.422367
  0
VERTEX
  8
FOREGROUND
  6
CONTINUOUS
 10
0.864339
 20
0.386269
  0
VERTEX
  8
FOREGROUND
  6
CONTINUOUS
 10
0.915814
 20
0.351792
  0
VERTEX
  8
FOREGROUND
  6
CONTINUOUS
 10
0.968462
 20
0.318974
  0
VERTEX
  8
FOREGROUND
  6
CONTINUOUS
 10
1.022246
 20
0.287853
  0
VERTEX
  8
FOREGROUND
  6
CONTINUOUS
 10
1.077130
 20
0.258465
  0
VERTEX
  8
FOREGROUND
  6
CONTINUOUS
 10
1.133076
 20
0.230849
  0
VERTEX
  8
FOREGROUND
  6
CONTINUOUS
 10
1.190046
 20
0.205041
  0
VERTEX
  8
FOREGROUND
  6
CONTINUOUS
 10
1.248003
 20
0.181079
  0
VERTEX
  8
FOREGROUND
  6
CONTINUOUS
 10
1.306909
 20
0.159001
  0
VERTEX
  8
FOREGROUND
  6
CONTINUOUS
 10
1.366729
 20
0.138842
  0
VERTEX
  8
FOREGROUND
  6
CONTINUOUS
 10
1.427423
 20
0.120642
  0
VERTEX
  8
FOREGROUND
  6
CONTINUOUS
 10
1.488955
 20
0.104436
  0
VERTEX
  8
FOREGROUND
  6
CONTINUOUS
 10
1.551287
 20
0.090264
  0
VERTEX
  8
FOREGROUND
  6
CONTINUOUS
 10
1.614383
 20
0.078161
  0
VERTEX
  8
FOREGROUND
  6
CONTINUOUS
 10
1.678204
 20
0.068165
  0
VERTEX
  8
FOREGROUND
  6
CONTINUOUS
 10
1.742714
 20
0.060313
  0
VERTEX
  8
FOREGROUND
  6
CONTINUOUS
 10
1.807875
 20
0.054644
  0
VERTEX
  8
FOREGROUND
  6
CONTINUOUS
 10
1.873649
 20
0.051194
  0
VERTEX
  8
FOREGROUND
  6
CONTINUOUS
 10
1.940000
 20
0.050000
  0
SEQEND
  8
0
  0
ENDSEC
  0
EOF
