  0
SECTION
  2
HEADER
  9
$ACADVER
  1
AC1006
  9
$EXTMIN
 10
0.000000
 20
0.000000
  9
$EXTMAX
 10
9.941667
 20
9.943333
  9
$LTSCALE
 40
0.166667
  9
$PDMODE
 70
    35
  9
$PDSIZE
 40
0.133333
  0
ENDSEC
  0
SECTION
  2
TABLES
  0
TABLE
  2
LTYPE
 70
     9
  0
LTYPE
  2
CONTINUOUS
 70
    64
  3
Solid line
 72
    65
 73
     0
 40
0.000000
  0
LTYPE
  2
DASHED
 70
    64
  3
__ __ __ __ __ __ __ __ __ __ __ __ __ __ __
 72
    65
 73
     2
 40
0.001250
 49
0.000833
 49
-0.000417
  0
LTYPE
  2
HIDDEN
 70
    64
  3
 _ _ _ _ _ _ _ _ _ _ _ _ _ _ _ _ _ _ _ _ _ _
 72
    65
 73
     2
 40
0.000625
 49
0.000417
 49
-0.000208
  0
LTYPE
  2
CENTER
 70
    64
  3
____ _ ____ _ ____ _ ____ _ ____ _ ____ _ ____
 72
    65
 73
     4
 40
0.003333
 49
0.002083
 49
-0.000417
 49
0.000417
 49
-0.000417
  0
LTYPE
  2
PHANTOM
 70
    64
  3
_____ _ _ _____ _ _ _____ _ _ _____ _ _ ____
 72
    65
 73
     6
 40
0.004167
 49
0.002083
 49
-0.000417
 49
0.000417
 49
-0.000417
 49
0.000417
 49
-0.000417
  0
LTYPE
  2
DOT
 70
    64
  3
...............................................
 72
    65
 73
     2
 40
0.000417
 49
0.000000
 49
-0.000417
  0
LTYPE
  2
DASHDOT
 70
    64
  3
__ . __ . __ . __ . __ . __ . __ . __ . __ . __
 72
    65
 73
     4
 40
0.001667
 49
0.000833
 49
-0.000417
 49
0.000000
 49
-0.000417
  0
LTYPE
  2
BORDER
 70
    64
  3
__ __ . __ __ . __ __ . __ __ . __ __ . __ __
 72
    65
 73
     6
 40
0.002917
 49
0.000833
 49
-0.000417
 49
0.000833
 49
-0.000417
 49
0.000000
 49
-0.000417
  0
LTYPE
  2
DIVIDE
 70
    64
  3
__ . . __ . . __ . . __ . . __ . . __ . . __
 72
    65
 73
     6
 40
0.002083
 49
0.000833
 49
-0.000417
 49
0.000000
 49
-0.000417
 49
0.000000
 49
-0.000417
  0
LTYPE
  2
DOTDOT
 70
    64
  3
 . .  . .  . .  . .  . .  . . 
 72
    65
 73
     5
 40
0.000917
 49
-0.000417
 49
0.000000
 49
-0.000417
 49
0.000000
 49
-0.000417
  0
ENDTAB
  0
TABLE
  2
STYLE
 70
     2
  0
STYLE
 70
     0
  2
SN0
 40
0.000000
 41
0.001667
 50
0.000000
 71
     0
 42
0.000000
  3
ROMAND
  0
STYLE
 70
    68
  2
SV0
 40
0.000000
 41
0.001667
 50
0.000000
 71
     0
 42
0.000000
  3
ROMAND
  0
ENDTAB
  0
TABLE
  2
LAYER
 70
     2
  0
LAYER
  2
FOREGROUND
 70
    64
 62
     7
  6
CONTINUOUS
  0
LAYER
  2
BACKGROUND
 70
    65
 62
    -7
  6
CONTINUOUS
  0
ENDTAB
  0
ENDSEC
  0
SECTION
  2
ENTITIES
  0
POLYLINE
  8
FOREGROUND
  6
CONTINUOUS
 66
     1
 40
0.010000
 41
0.010000
 70
     1
  0
VERTEX
  8
FOREGROUND
  6
CONTINUOUS
 10
7.923333
 20
0.050000
  0
VERTEX
  8
FOREGROUND
  6
CONTINUOUS
 10
7.992434
 20
0.051243
  0
VERTEX
  8
FOREGROUND
  6
CONTINUOUS
 10
8.060935
 20
0.054837
  0
VERTEX
  8
FOREGROUND
  6
CONTINUOUS
 10
8.128796
 20
0.060741
  0
VERTEX
  8
FOREGROUND
  6
CONTINUOUS
 10
8.195980
 20
0.068918
  0
VERTEX
  8
FOREGROUND
  6
CONTINUOUS
 10
8.262446
 20
0.079328
  0
VERTEX
  8
FOREGROUND
  6
CONTINUOUS
 10
8.328157
 20
0.091932
  0
VERTEX
  8
FOREGROUND
  6
CONTINUOUS
 10
8.393073
 20
0.106693
  0
VERTEX
  8
FOREGROUND
  6
CONTINUOUS
 10
8.457155
 20
0.123570
  0
VERTEX
  8
FOREGROUND
  6
CONTINUOUS
 10
8.520365
 20
0.142524
  0
VERTEX
  8
FOREGROUND
  6
CONTINUOUS
 10
8.582663
 20
0.163518
  0
VERTEX
  8
FOREGROUND
  6
CONTINUOUS
 10
8.644011
 20
0.186512
  0
VERTEX
  8
FOREGROUND
  6
CONTINUOUS
 10
8.704371
 20
0.211467
  0
VERTEX
  8
FOREGROUND
  6
CONTINUOUS
 10
8.763702
 20
0.238345
  0
VERTEX
  8
FOREGROUND
  6
CONTINUOUS
 10
8.821966
 20
0.267105
  0
VERTEX
  8
FOREGROUND
  6
CONTINUOUS
 10
8.879124
 20
0.297711
  0
VERTEX
  8
FOREGROUND
  6
CONTINUOUS
 10
8.935138
 20
0.330122
  0
VERTEX
  8
FOREGROUND
  6
CONTINUOUS
 10
8.989968
 20
0.364300
  0
VERTEX
  8
FOREGROUND
  6
CONTINUOUS
 10
9.043576
 20
0.400206
  0
VERTEX
  8
FOREGROUND
  6
CONTINUOUS
 10
9.095922
 20
0.437800
  0
VERTEX
  8
FOREGROUND
  6
CONTINUOUS
 10
9.146969
 20
0.477045
  0
VERTEX
  8
FOREGROUND
  6
CONTINUOUS
 10
9.196676
 20
0.517902
  0
VERTEX
  8
FOREGROUND
  6
CONTINUOUS
 10
9.245005
 20
0.560330
  0
VERTEX
  8
FOREGROUND
  6
CONTINUOUS
 10
9.291918
 20
0.604292
  0
VERTEX
  8
FOREGROUND
  6
CONTINUOUS
 10
9.337374
 20
0.649749
  0
VERTEX
  8
FOREGROUND
  6
CONTINUOUS
 10
9.381336
 20
0.696661
  0
VERTEX
  8
FOREGROUND
  6
CONTINUOUS
 10
9.423765
 20
0.744991
  0
VERTEX
  8
FOREGROUND
  6
CONTINUOUS
 10
9.464621
 20
0.794698
  0
VERTEX
  8
FOREGROUND
  6
CONTINUOUS
 10
9.503866
 20
0.845744
  0
VERTEX
  8
FOREGROUND
  6
CONTINUOUS
 10
9.541461
 20
0.898091
  0
VERTEX
  8
FOREGROUND
  6
CONTINUOUS
 10
9.577367
 20
0.951698
  0
VERTEX
  8
FOREGROUND
  6
CONTINUOUS
 10
9.611545
 20
1.006529
  0
VERTEX
  8
FOREGROUND
  6
CONTINUOUS
 10
9.643956
 20
1.062542
  0
VERTEX
  8
FOREGROUND
  6
CONTINUOUS
 10
9.674561
 20
1.119701
  0
VERTEX
  8
FOREGROUND
  6
CONTINUOUS
 10
9.703322
 20
1.177965
  0
VERTEX
  8
FOREGROUND
  6
CONTINUOUS
 10
9.730200
 20
1.237296
  0
VERTEX
  8
FOREGROUND
  6
CONTINUOUS
 10
9.755155
 20
1.297655
  0
VERTEX
  8
FOREGROUND
  6
CONTINUOUS
 10
9.778148
 20
1.359003
  0
VERTEX
  8
FOREGROUND
  6
CONTINUOUS
 10
9.799142
 20
1.421302
  0
VERTEX
  8
FOREGROUND
  6
CONTINUOUS
 10
9.818097
 20
1.484512
  0
VERTEX
  8
FOREGROUND
  6
CONTINUOUS
 10
9.834974
 20
1.548594
  0
VERTEX
  8
FOREGROUND
  6
CONTINUOUS
 10
9.849734
 20
1.613510
  0
VERTEX
  8
FOREGROUND
  6
CONTINUOUS
 10
9.862339
 20
1.679221
  0
VERTEX
  8
FOREGROUND
  6
CONTINUOUS
 10
9.872749
 20
1.745687
  0
VERTEX
  8
FOREGROUND
  6
CONTINUOUS
 10
9.880926
 20
1.812870
  0
VERTEX
  8
FOREGROUND
  6
CONTINUOUS
 10
9.886830
 20
1.880732
  0
VERTEX
  8
FOREGROUND
  6
CONTINUOUS
 10
9.890423
 20
1.949232
  0
VERTEX
  8
FOREGROUND
  6
CONTINUOUS
 10
9.891667
 20
2.018333
  0
VERTEX
  8
FOREGROUND
  6
CONTINUOUS
 10
9.891667
 20
7.925000
  0
VERTEX
  8
FOREGROUND
  6
CONTINUOUS
 10
9.890423
 20
7.994110
  0
VERTEX
  8
FOREGROUND
  6
CONTINUOUS
 10
9.886829
 20
8.062619
  0
VERTEX
  8
FOREGROUND
  6
CONTINUOUS
 10
9.880923
 20
8.130489
  0
VERTEX
  8
FOREGROUND
  6
CONTINUOUS
 10
9.872744
 20
8.197681
  0
VERTEX
  8
FOREGROUND
  6
CONTINUOUS
 10
9.862332
 20
8.264155
  0
VERTEX
  8
FOREGROUND
  6
CONTINUOUS
 10
9.849724
 20
8.329873
  0
VERTEX
  8
FOREGROUND
  6
CONTINUOUS
 10
9.834960
 20
8.394797
  0
VERTEX
  8
FOREGROUND
  6
CONTINUOUS
 10
9.818079
 20
8.458886
  0
VERTEX
  8
FOREGROUND
  6
CONTINUOUS
 10
9.799120
 20
8.522103
  0
VERTEX
  8
FOREGROUND
  6
CONTINUOUS
 10
9.778121
 20
8.584408
  0
VERTEX
  8
FOREGROUND
  6
CONTINUOUS
 10
9.755122
 20
8.645762
  0
VERTEX
  8
FOREGROUND
  6
CONTINUOUS
 10
9.730161
 20
8.706127
  0
VERTEX
  8
FOREGROUND
  6
CONTINUOUS
 10
9.703277
 20
8.765464
  0
VERTEX
  8
FOREGROUND
  6
CONTINUOUS
 10
9.674510
 20
8.823733
  0
VERTEX
  8
FOREGROUND
  6
CONTINUOUS
 10
9.643898
 20
8.880896
  0
VERTEX
  8
FOREGROUND
  6
CONTINUOUS
 10
9.611479
 20
8.936914
  0
VERTEX
  8
FOREGROUND
  6
CONTINUOUS
 10
9.577294
 20
8.991748
  0
VERTEX
  8
FOREGROUND
  6
CONTINUOUS
 10
9.541380
 20
9.045360
  0
VERTEX
  8
FOREGROUND
  6
CONTINUOUS
 10
9.503777
 20
9.097709
  0
VERTEX
  8
FOREGROUND
  6
CONTINUOUS
 10
9.464524
 20
9.148758
  0
VERTEX
  8
FOREGROUND
  6
CONTINUOUS
 10
9.423659
 20
9.198468
  0
VERTEX
  8
FOREGROUND
  6
CONTINUOUS
 10
9.381221
 20
9.246799
  0
VERTEX
  8
FOREGROUND
  6
CONTINUOUS
 10
9.337250
 20
9.293713
  0
VERTEX
  8
FOREGROUND
  6
CONTINUOUS
 10
9.291784
 20
9.339170
  0
VERTEX
  8
FOREGROUND
  6
CONTINUOUS
 10
9.244862
 20
9.383133
  0
VERTEX
  8
FOREGROUND
  6
CONTINUOUS
 10
9.196523
 20
9.425561
  0
VERTEX
  8
FOREGROUND
  6
CONTINUOUS
 10
9.146806
 20
9.466417
  0
VERTEX
  8
FOREGROUND
  6
CONTINUOUS
 10
9.095750
 20
9.505661
  0
VERTEX
  8
FOREGROUND
  6
CONTINUOUS
 10
9.043393
 20
9.543254
  0
VERTEX
  8
FOREGROUND
  6
CONTINUOUS
 10
8.989775
 20
9.579158
  0
VERTEX
  8
FOREGROUND
  6
CONTINUOUS
 10
8.934935
 20
9.613333
  0
VERTEX
  8
FOREGROUND
  6
CONTINUOUS
 10
8.878910
 20
9.645741
  0
VERTEX
  8
FOREGROUND
  6
CONTINUOUS
 10
8.821742
 20
9.676343
  0
VERTEX
  8
FOREGROUND
  6
CONTINUOUS
 10
8.763467
 20
9.705100
  0
VERTEX
  8
FOREGROUND
  6
CONTINUOUS
 10
8.704126
 20
9.731972
  0
VERTEX
  8
FOREGROUND
  6
CONTINUOUS
 10
8.643756
 20
9.756922
  0
VERTEX
  8
FOREGROUND
  6
CONTINUOUS
 10
8.582397
 20
9.779910
  0
VERTEX
  8
FOREGROUND
  6
CONTINUOUS
 10
8.520089
 20
9.800897
  0
VERTEX
  8
FOREGROUND
  6
CONTINUOUS
 10
8.456868
 20
9.819845
  0
VERTEX
  8
FOREGROUND
  6
CONTINUOUS
 10
8.392776
 20
9.836714
  0
VERTEX
  8
FOREGROUND
  6
CONTINUOUS
 10
8.327850
 20
9.851466
  0
VERTEX
  8
FOREGROUND
  6
CONTINUOUS
 10
8.262129
 20
9.864061
  0
VERTEX
  8
FOREGROUND
  6
CONTINUOUS
 10
8.195653
 20
9.874462
  0
VERTEX
  8
FOREGROUND
  6
CONTINUOUS
 10
8.128460
 20
9.882628
  0
VERTEX
  8
FOREGROUND
  6
CONTINUOUS
 10
8.060589
 20
9.888521
  0
VERTEX
  8
FOREGROUND
  6
CONTINUOUS
 10
7.992079
 20
9.892103
  0
VERTEX
  8
FOREGROUND
  6
CONTINUOUS
 10
7.922969
 20
9.893333
  0
VERTEX
  8
FOREGROUND
  6
CONTINUOUS
 10
2.017969
 20
9.893333
  0
VERTEX
  8
FOREGROUND
  6
CONTINUOUS
 10
1.948877
 20
9.892078
  0
VERTEX
  8
FOREGROUND
  6
CONTINUOUS
 10
1.880386
 20
9.888472
  0
VERTEX
  8
FOREGROUND
  6
CONTINUOUS
 10
1.812534
 20
9.882557
  0
VERTEX
  8
FOREGROUND
  6
CONTINUOUS
 10
1.745360
 20
9.874370
  0
VERTEX
  8
FOREGROUND
  6
CONTINUOUS
 10
1.678904
 20
9.863950
  0
VERTEX
  8
FOREGROUND
  6
CONTINUOUS
 10
1.613203
 20
9.851336
  0
VERTEX
  8
FOREGROUND
  6
CONTINUOUS
 10
1.548297
 20
9.836568
  0
VERTEX
  8
FOREGROUND
  6
CONTINUOUS
 10
1.484225
 20
9.819683
  0
VERTEX
  8
FOREGROUND
  6
CONTINUOUS
 10
1.421026
 20
9.800721
  0
VERTEX
  8
FOREGROUND
  6
CONTINUOUS
 10
1.358738
 20
9.779720
  0
VERTEX
  8
FOREGROUND
  6
CONTINUOUS
 10
1.297400
 20
9.756720
  0
VERTEX
  8
FOREGROUND
  6
CONTINUOUS
 10
1.237051
 20
9.731760
  0
VERTEX
  8
FOREGROUND
  6
CONTINUOUS
 10
1.177730
 20
9.704878
  0
VERTEX
  8
FOREGROUND
  6
CONTINUOUS
 10
1.119477
 20
9.676113
  0
VERTEX
  8
FOREGROUND
  6
CONTINUOUS
 10
1.062329
 20
9.645503
  0
VERTEX
  8
FOREGROUND
  6
CONTINUOUS
 10
1.006325
 20
9.613089
  0
VERTEX
  8
FOREGROUND
  6
CONTINUOUS
 10
0.951505
 20
9.578909
  0
VERTEX
  8
FOREGROUND
  6
CONTINUOUS
 10
0.897908
 20
9.543001
  0
VERTEX
  8
FOREGROUND
  6
CONTINUOUS
 10
0.845571
 20
9.505405
  0
VERTEX
  8
FOREGROUND
  6
CONTINUOUS
 10
0.794535
 20
9.466159
  0
VERTEX
  8
FOREGROUND
  6
CONTINUOUS
 10
0.744838
 20
9.425302
  0
VERTEX
  8
FOREGROUND
  6
CONTINUOUS
 10
0.696518
 20
9.382873
  0
VERTEX
  8
FOREGROUND
  6
CONTINUOUS
 10
0.649615
 20
9.338912
  0
VERTEX
  8
FOREGROUND
  6
CONTINUOUS
 10
0.604168
 20
9.293456
  0
VERTEX
  8
FOREGROUND
  6
CONTINUOUS
 10
0.560215
 20
9.246545
  0
VERTEX
  8
FOREGROUND
  6
CONTINUOUS
 10
0.517795
 20
9.198218
  0
VERTEX
  8
FOREGROUND
  6
CONTINUOUS
 10
0.476948
 20
9.148513
  0
VERTEX
  8
FOREGROUND
  6
CONTINUOUS
 10
0.437711
 20
9.097469
  0
VERTEX
  8
FOREGROUND
  6
CONTINUOUS
 10
0.400125
 20
9.045126
  0
VERTEX
  8
FOREGROUND
  6
CONTINUOUS
 10
0.364227
 20
8.991521
  0
VERTEX
  8
FOREGROUND
  6
CONTINUOUS
 10
0.330057
 20
8.936695
  0
VERTEX
  8
FOREGROUND
  6
CONTINUOUS
 10
0.297653
 20
8.880686
  0
VERTEX
  8
FOREGROUND
  6
CONTINUOUS
 10
0.267054
 20
8.823532
  0
VERTEX
  8
FOREGROUND
  6
CONTINUOUS
 10
0.238300
 20
8.765273
  0
VERTEX
  8
FOREGROUND
  6
CONTINUOUS
 10
0.211429
 20
8.705947
  0
VERTEX
  8
FOREGROUND
  6
CONTINUOUS
 10
0.186479
 20
8.645594
  0
VERTEX
  8
FOREGROUND
  6
CONTINUOUS
 10
0.163491
 20
8.584252
  0
VERTEX
  8
FOREGROUND
  6
CONTINUOUS
 10
0.142502
 20
8.521960
  0
VERTEX
  8
FOREGROUND
  6
CONTINUOUS
 10
0.123552
 20
8.458757
  0
VERTEX
  8
FOREGROUND
  6
CONTINUOUS
 10
0.106679
 20
8.394682
  0
VERTEX
  8
FOREGROUND
  6
CONTINUOUS
 10
0.091922
 20
8.329773
  0
VERTEX
  8
FOREGROUND
  6
CONTINUOUS
 10
0.079321
 20
8.264070
  0
VERTEX
  8
FOREGROUND
  6
CONTINUOUS
 10
0.068913
 20
8.197612
  0
VERTEX
  8
FOREGROUND
  6
CONTINUOUS
 10
0.060738
 20
8.130437
  0
VERTEX
  8
FOREGROUND
  6
CONTINUOUS
 10
0.054835
 20
8.062584
  0
VERTEX
  8
FOREGROUND
  6
CONTINUOUS
 10
0.051243
 20
7.994092
  0
VERTEX
  8
FOREGROUND
  6
CONTINUOUS
 10
0.050000
 20
7.925000
  0
VERTEX
  8
FOREGROUND
  6
CONTINUOUS
 10
0.050000
 20
2.018333
  0
VERTEX
  8
FOREGROUND
  6
CONTINUOUS
 10
0.051243
 20
1.949232
  0
VERTEX
  8
FOREGROUND
  6
CONTINUOUS
 10
0.054837
 20
1.880732
  0
VERTEX
  8
FOREGROUND
  6
CONTINUOUS
 10
0.060741
 20
1.812870
  0
VERTEX
  8
FOREGROUND
  6
CONTINUOUS
 10
0.068918
 20
1.745687
  0
VERTEX
  8
FOREGROUND
  6
CONTINUOUS
 10
0.079328
 20
1.679221
  0
VERTEX
  8
FOREGROUND
  6
CONTINUOUS
 10
0.091932
 20
1.613510
  0
VERTEX
  8
FOREGROUND
  6
CONTINUOUS
 10
0.106693
 20
1.548594
  0
VERTEX
  8
FOREGROUND
  6
CONTINUOUS
 10
0.123570
 20
1.484512
  0
VERTEX
  8
FOREGROUND
  6
CONTINUOUS
 10
0.142524
 20
1.421302
  0
VERTEX
  8
FOREGROUND
  6
CONTINUOUS
 10
0.163518
 20
1.359003
  0
VERTEX
  8
FOREGROUND
  6
CONTINUOUS
 10
0.186512
 20
1.297655
  0
VERTEX
  8
FOREGROUND
  6
CONTINUOUS
 10
0.211467
 20
1.237296
  0
VERTEX
  8
FOREGROUND
  6
CONTINUOUS
 10
0.238345
 20
1.177965
  0
VERTEX
  8
FOREGROUND
  6
CONTINUOUS
 10
0.267105
 20
1.119701
  0
VERTEX
  8
FOREGROUND
  6
CONTINUOUS
 10
0.297711
 20
1.062542
  0
VERTEX
  8
FOREGROUND
  6
CONTINUOUS
 10
0.330122
 20
1.006529
  0
VERTEX
  8
FOREGROUND
  6
CONTINUOUS
 10
0.364300
 20
0.951698
  0
VERTEX
  8
FOREGROUND
  6
CONTINUOUS
 10
0.400206
 20
0.898091
  0
VERTEX
  8
FOREGROUND
  6
CONTINUOUS
 10
0.437800
 20
0.845744
  0
VERTEX
  8
FOREGROUND
  6
CONTINUOUS
 10
0.477045
 20
0.794698
  0
VERTEX
  8
FOREGROUND
  6
CONTINUOUS
 10
0.517902
 20
0.744991
  0
VERTEX
  8
FOREGROUND
  6
CONTINUOUS
 10
0.560330
 20
0.696661
  0
VERTEX
  8
FOREGROUND
  6
CONTINUOUS
 10
0.604292
 20
0.649749
  0
VERTEX
  8
FOREGROUND
  6
CONTINUOUS
 10
0.649749
 20
0.604292
  0
VERTEX
  8
FOREGROUND
  6
CONTINUOUS
 10
0.696661
 20
0.560330
  0
VERTEX
  8
FOREGROUND
  6
CONTINUOUS
 10
0.744991
 20
0.517902
  0
VERTEX
  8
FOREGROUND
  6
CONTINUOUS
 10
0.794698
 20
0.477045
  0
VERTEX
  8
FOREGROUND
  6
CONTINUOUS
 10
0.845744
 20
0.437800
  0
VERTEX
  8
FOREGROUND
  6
CONTINUOUS
 10
0.898091
 20
0.400206
  0
VERTEX
  8
FOREGROUND
  6
CONTINUOUS
 10
0.951698
 20
0.364300
  0
VERTEX
  8
FOREGROUND
  6
CONTINUOUS
 10
1.006529
 20
0.330122
  0
VERTEX
  8
FOREGROUND
  6
CONTINUOUS
 10
1.062542
 20
0.297711
  0
VERTEX
  8
FOREGROUND
  6
CONTINUOUS
 10
1.119701
 20
0.267105
  0
VERTEX
  8
FOREGROUND
  6
CONTINUOUS
 10
1.177965
 20
0.238345
  0
VERTEX
  8
FOREGROUND
  6
CONTINUOUS
 10
1.237296
 20
0.211467
  0
VERTEX
  8
FOREGROUND
  6
CONTINUOUS
 10
1.297655
 20
0.186512
  0
VERTEX
  8
FOREGROUND
  6
CONTINUOUS
 10
1.359003
 20
0.163518
  0
VERTEX
  8
FOREGROUND
  6
CONTINUOUS
 10
1.421302
 20
0.142524
  0
VERTEX
  8
FOREGROUND
  6
CONTINUOUS
 10
1.484512
 20
0.123570
  0
VERTEX
  8
FOREGROUND
  6
CONTINUOUS
 10
1.548594
 20
0.106693
  0
VERTEX
  8
FOREGROUND
  6
CONTINUOUS
 10
1.613510
 20
0.091932
  0
VERTEX
  8
FOREGROUND
  6
CONTINUOUS
 10
1.679221
 20
0.079328
  0
VERTEX
  8
FOREGROUND
  6
CONTINUOUS
 10
1.745687
 20
0.068918
  0
VERTEX
  8
FOREGROUND
  6
CONTINUOUS
 10
1.812870
 20
0.060741
  0
VERTEX
  8
FOREGROUND
  6
CONTINUOUS
 10
1.880732
 20
0.054837
  0
VERTEX
  8
FOREGROUND
  6
CONTINUOUS
 10
1.949232
 20
0.051243
  0
VERTEX
  8
FOREGROUND
  6
CONTINUOUS
 10
2.018333
 20
0.050000
  0
SEQEND
  8
0
  0
ENDSEC
  0
EOF
