  0
SECTION
  2
HEADER
  9
$ACADVER
  1
AC1006
  9
$EXTMIN
 10
0.000000
 20
0.000000
  9
$EXTMAX
 10
10.225000
 20
11.988333
  9
$LTSCALE
 40
0.166667
  9
$PDMODE
 70
    35
  9
$PDSIZE
 40
0.133333
  0
ENDSEC
  0
SECTION
  2
TABLES
  0
TABLE
  2
LTYPE
 70
     9
  0
LTYPE
  2
CONTINUOUS
 70
    64
  3
Solid line
 72
    65
 73
     0
 40
0.000000
  0
LTYPE
  2
DASHED
 70
    64
  3
__ __ __ __ __ __ __ __ __ __ __ __ __ __ __
 72
    65
 73
     2
 40
0.001250
 49
0.000833
 49
-0.000417
  0
LTYPE
  2
HIDDEN
 70
    64
  3
 _ _ _ _ _ _ _ _ _ _ _ _ _ _ _ _ _ _ _ _ _ _
 72
    65
 73
     2
 40
0.000625
 49
0.000417
 49
-0.000208
  0
LTYPE
  2
CENTER
 70
    64
  3
____ _ ____ _ ____ _ ____ _ ____ _ ____ _ ____
 72
    65
 73
     4
 40
0.003333
 49
0.002083
 49
-0.000417
 49
0.000417
 49
-0.000417
  0
LTYPE
  2
PHANTOM
 70
    64
  3
_____ _ _ _____ _ _ _____ _ _ _____ _ _ ____
 72
    65
 73
     6
 40
0.004167
 49
0.002083
 49
-0.000417
 49
0.000417
 49
-0.000417
 49
0.000417
 49
-0.000417
  0
LTYPE
  2
DOT
 70
    64
  3
...............................................
 72
    65
 73
     2
 40
0.000417
 49
0.000000
 49
-0.000417
  0
LTYPE
  2
DASHDOT
 70
    64
  3
__ . __ . __ . __ . __ . __ . __ . __ . __ . __
 72
    65
 73
     4
 40
0.001667
 49
0.000833
 49
-0.000417
 49
0.000000
 49
-0.000417
  0
LTYPE
  2
BORDER
 70
    64
  3
__ __ . __ __ . __ __ . __ __ . __ __ . __ __
 72
    65
 73
     6
 40
0.002917
 49
0.000833
 49
-0.000417
 49
0.000833
 49
-0.000417
 49
0.000000
 49
-0.000417
  0
LTYPE
  2
DIVIDE
 70
    64
  3
__ . . __ . . __ . . __ . . __ . . __ . . __
 72
    65
 73
     6
 40
0.002083
 49
0.000833
 49
-0.000417
 49
0.000000
 49
-0.000417
 49
0.000000
 49
-0.000417
  0
LTYPE
  2
DOTDOT
 70
    64
  3
 . .  . .  . .  . .  . .  . . 
 72
    65
 73
     5
 40
0.000917
 49
-0.000417
 49
0.000000
 49
-0.000417
 49
0.000000
 49
-0.000417
  0
ENDTAB
  0
TABLE
  2
STYLE
 70
     2
  0
STYLE
 70
     0
  2
SN0
 40
0.000000
 41
0.001667
 50
0.000000
 71
     0
 42
0.000000
  3
ROMAND
  0
STYLE
 70
    68
  2
SV0
 40
0.000000
 41
0.001667
 50
0.000000
 71
     0
 42
0.000000
  3
ROMAND
  0
ENDTAB
  0
TABLE
  2
LAYER
 70
     2
  0
LAYER
  2
FOREGROUND
 70
    64
 62
     7
  6
CONTINUOUS
  0
LAYER
  2
BACKGROUND
 70
    65
 62
    -7
  6
CONTINUOUS
  0
ENDTAB
  0
ENDSEC
  0
SECTION
  2
ENTITIES
  0
POLYLINE
  8
FOREGROUND
  6
CONTINUOUS
 66
     1
 40
0.010000
 41
0.010000
 70
     1
  0
VERTEX
  8
FOREGROUND
  6
CONTINUOUS
 10
2.050000
 20
11.830000
  0
VERTEX
  8
FOREGROUND
  6
CONTINUOUS
 10
8.056667
 20
11.830000
  0
VERTEX
  8
FOREGROUND
  6
CONTINUOUS
 10
8.160000
 20
11.826667
  0
VERTEX
  8
FOREGROUND
  6
CONTINUOUS
 10
8.261667
 20
11.820000
  0
VERTEX
  8
FOREGROUND
  6
CONTINUOUS
 10
8.361667
 20
11.806667
  0
VERTEX
  8
FOREGROUND
  6
CONTINUOUS
 10
8.460000
 20
11.788333
  0
VERTEX
  8
FOREGROUND
  6
CONTINUOUS
 10
8.556667
 20
11.766667
  0
VERTEX
  8
FOREGROUND
  6
CONTINUOUS
 10
8.651667
 20
11.740000
  0
VERTEX
  8
FOREGROUND
  6
CONTINUOUS
 10
8.745000
 20
11.708333
  0
VERTEX
  8
FOREGROUND
  6
CONTINUOUS
 10
8.835000
 20
11.673333
  0
VERTEX
  8
FOREGROUND
  6
CONTINUOUS
 10
8.923333
 20
11.633333
  0
VERTEX
  8
FOREGROUND
  6
CONTINUOUS
 10
9.010000
 20
11.588333
  0
VERTEX
  8
FOREGROUND
  6
CONTINUOUS
 10
9.093333
 20
11.540000
  0
VERTEX
  8
FOREGROUND
  6
CONTINUOUS
 10
9.175000
 20
11.488333
  0
VERTEX
  8
FOREGROUND
  6
CONTINUOUS
 10
9.253333
 20
11.431667
  0
VERTEX
  8
FOREGROUND
  6
CONTINUOUS
 10
9.328333
 20
11.373333
  0
VERTEX
  8
FOREGROUND
  6
CONTINUOUS
 10
9.401667
 20
11.310000
  0
VERTEX
  8
FOREGROUND
  6
CONTINUOUS
 10
9.471667
 20
11.243333
  0
VERTEX
  8
FOREGROUND
  6
CONTINUOUS
 10
9.536667
 20
11.175000
  0
VERTEX
  8
FOREGROUND
  6
CONTINUOUS
 10
9.600000
 20
11.101667
  0
VERTEX
  8
FOREGROUND
  6
CONTINUOUS
 10
9.660000
 20
11.026667
  0
VERTEX
  8
FOREGROUND
  6
CONTINUOUS
 10
9.715000
 20
10.948333
  0
VERTEX
  8
FOREGROUND
  6
CONTINUOUS
 10
9.766667
 20
10.866667
  0
VERTEX
  8
FOREGROUND
  6
CONTINUOUS
 10
9.815000
 20
10.783333
  0
VERTEX
  8
FOREGROUND
  6
CONTINUOUS
 10
9.860000
 20
10.696667
  0
VERTEX
  8
FOREGROUND
  6
CONTINUOUS
 10
9.900000
 20
10.608333
  0
VERTEX
  8
FOREGROUND
  6
CONTINUOUS
 10
9.935000
 20
10.516667
  0
VERTEX
  8
FOREGROUND
  6
CONTINUOUS
 10
9.966667
 20
10.425000
  0
VERTEX
  8
FOREGROUND
  6
CONTINUOUS
 10
9.993333
 20
10.330000
  0
VERTEX
  8
FOREGROUND
  6
CONTINUOUS
 10
10.016667
 20
10.233333
  0
VERTEX
  8
FOREGROUND
  6
CONTINUOUS
 10
10.033333
 20
10.135000
  0
VERTEX
  8
FOREGROUND
  6
CONTINUOUS
 10
10.046667
 20
10.035000
  0
VERTEX
  8
FOREGROUND
  6
CONTINUOUS
 10
10.055000
 20
9.933333
  0
VERTEX
  8
FOREGROUND
  6
CONTINUOUS
 10
10.056667
 20
9.830000
  0
VERTEX
  8
FOREGROUND
  6
CONTINUOUS
 10
10.056667
 20
2.058333
  0
VERTEX
  8
FOREGROUND
  6
CONTINUOUS
 10
10.055000
 20
1.955000
  0
VERTEX
  8
FOREGROUND
  6
CONTINUOUS
 10
10.046667
 20
1.853333
  0
VERTEX
  8
FOREGROUND
  6
CONTINUOUS
 10
10.033333
 20
1.753333
  0
VERTEX
  8
FOREGROUND
  6
CONTINUOUS
 10
10.016667
 20
1.655000
  0
VERTEX
  8
FOREGROUND
  6
CONTINUOUS
 10
9.993333
 20
1.558333
  0
VERTEX
  8
FOREGROUND
  6
CONTINUOUS
 10
9.966667
 20
1.463333
  0
VERTEX
  8
FOREGROUND
  6
CONTINUOUS
 10
9.935000
 20
1.370000
  0
VERTEX
  8
FOREGROUND
  6
CONTINUOUS
 10
9.900000
 20
1.280000
  0
VERTEX
  8
FOREGROUND
  6
CONTINUOUS
 10
9.860000
 20
1.191667
  0
VERTEX
  8
FOREGROUND
  6
CONTINUOUS
 10
9.815000
 20
1.105000
  0
VERTEX
  8
FOREGROUND
  6
CONTINUOUS
 10
9.766667
 20
1.021667
  0
VERTEX
  8
FOREGROUND
  6
CONTINUOUS
 10
9.715000
 20
0.940000
  0
VERTEX
  8
FOREGROUND
  6
CONTINUOUS
 10
9.660000
 20
0.861667
  0
VERTEX
  8
FOREGROUND
  6
CONTINUOUS
 10
9.600000
 20
0.786667
  0
VERTEX
  8
FOREGROUND
  6
CONTINUOUS
 10
9.536667
 20
0.713333
  0
VERTEX
  8
FOREGROUND
  6
CONTINUOUS
 10
9.471667
 20
0.643333
  0
VERTEX
  8
FOREGROUND
  6
CONTINUOUS
 10
9.401667
 20
0.578333
  0
VERTEX
  8
FOREGROUND
  6
CONTINUOUS
 10
9.328333
 20
0.515000
  0
VERTEX
  8
FOREGROUND
  6
CONTINUOUS
 10
9.253333
 20
0.455000
  0
VERTEX
  8
FOREGROUND
  6
CONTINUOUS
 10
9.175000
 20
0.400000
  0
VERTEX
  8
FOREGROUND
  6
CONTINUOUS
 10
9.093333
 20
0.348333
  0
VERTEX
  8
FOREGROUND
  6
CONTINUOUS
 10
9.010000
 20
0.300000
  0
VERTEX
  8
FOREGROUND
  6
CONTINUOUS
 10
8.923333
 20
0.255000
  0
VERTEX
  8
FOREGROUND
  6
CONTINUOUS
 10
8.835000
 20
0.215000
  0
VERTEX
  8
FOREGROUND
  6
CONTINUOUS
 10
8.745000
 20
0.180000
  0
VERTEX
  8
FOREGROUND
  6
CONTINUOUS
 10
8.651667
 20
0.148333
  0
VERTEX
  8
FOREGROUND
  6
CONTINUOUS
 10
8.556667
 20
0.121667
  0
VERTEX
  8
FOREGROUND
  6
CONTINUOUS
 10
8.460000
 20
0.098333
  0
VERTEX
  8
FOREGROUND
  6
CONTINUOUS
 10
8.361667
 20
0.081667
  0
VERTEX
  8
FOREGROUND
  6
CONTINUOUS
 10
8.261667
 20
0.068333
  0
VERTEX
  8
FOREGROUND
  6
CONTINUOUS
 10
8.160000
 20
0.060000
  0
VERTEX
  8
FOREGROUND
  6
CONTINUOUS
 10
8.056667
 20
0.058333
  0
VERTEX
  8
FOREGROUND
  6
CONTINUOUS
 10
2.050000
 20
0.058333
  0
VERTEX
  8
FOREGROUND
  6
CONTINUOUS
 10
1.946667
 20
0.060000
  0
VERTEX
  8
FOREGROUND
  6
CONTINUOUS
 10
1.846667
 20
0.068333
  0
VERTEX
  8
FOREGROUND
  6
CONTINUOUS
 10
1.745000
 20
0.081667
  0
VERTEX
  8
FOREGROUND
  6
CONTINUOUS
 10
1.646667
 20
0.098333
  0
VERTEX
  8
FOREGROUND
  6
CONTINUOUS
 10
1.550000
 20
0.121667
  0
VERTEX
  8
FOREGROUND
  6
CONTINUOUS
 10
1.455000
 20
0.148333
  0
VERTEX
  8
FOREGROUND
  6
CONTINUOUS
 10
1.363333
 20
0.180000
  0
VERTEX
  8
FOREGROUND
  6
CONTINUOUS
 10
1.271667
 20
0.215000
  0
VERTEX
  8
FOREGROUND
  6
CONTINUOUS
 10
1.183333
 20
0.255000
  0
VERTEX
  8
FOREGROUND
  6
CONTINUOUS
 10
1.096667
 20
0.300000
  0
VERTEX
  8
FOREGROUND
  6
CONTINUOUS
 10
1.013333
 20
0.348333
  0
VERTEX
  8
FOREGROUND
  6
CONTINUOUS
 10
0.931667
 20
0.400000
  0
VERTEX
  8
FOREGROUND
  6
CONTINUOUS
 10
0.853333
 20
0.455000
  0
VERTEX
  8
FOREGROUND
  6
CONTINUOUS
 10
0.778333
 20
0.515000
  0
VERTEX
  8
FOREGROUND
  6
CONTINUOUS
 10
0.705000
 20
0.578333
  0
VERTEX
  8
FOREGROUND
  6
CONTINUOUS
 10
0.636667
 20
0.643333
  0
VERTEX
  8
FOREGROUND
  6
CONTINUOUS
 10
0.570000
 20
0.713333
  0
VERTEX
  8
FOREGROUND
  6
CONTINUOUS
 10
0.506667
 20
0.786667
  0
VERTEX
  8
FOREGROUND
  6
CONTINUOUS
 10
0.448333
 20
0.861667
  0
VERTEX
  8
FOREGROUND
  6
CONTINUOUS
 10
0.391667
 20
0.940000
  0
VERTEX
  8
FOREGROUND
  6
CONTINUOUS
 10
0.340000
 20
1.021667
  0
VERTEX
  8
FOREGROUND
  6
CONTINUOUS
 10
0.291667
 20
1.105000
  0
VERTEX
  8
FOREGROUND
  6
CONTINUOUS
 10
0.248333
 20
1.191667
  0
VERTEX
  8
FOREGROUND
  6
CONTINUOUS
 10
0.206667
 20
1.280000
  0
VERTEX
  8
FOREGROUND
  6
CONTINUOUS
 10
0.171667
 20
1.370000
  0
VERTEX
  8
FOREGROUND
  6
CONTINUOUS
 10
0.140000
 20
1.463333
  0
VERTEX
  8
FOREGROUND
  6
CONTINUOUS
 10
0.113333
 20
1.558333
  0
VERTEX
  8
FOREGROUND
  6
CONTINUOUS
 10
0.091667
 20
1.655000
  0
VERTEX
  8
FOREGROUND
  6
CONTINUOUS
 10
0.073333
 20
1.753333
  0
VERTEX
  8
FOREGROUND
  6
CONTINUOUS
 10
0.060000
 20
1.853333
  0
VERTEX
  8
FOREGROUND
  6
CONTINUOUS
 10
0.053333
 20
1.955000
  0
VERTEX
  8
FOREGROUND
  6
CONTINUOUS
 10
0.050000
 20
2.058333
  0
VERTEX
  8
FOREGROUND
  6
CONTINUOUS
 10
0.050000
 20
9.830000
  0
VERTEX
  8
FOREGROUND
  6
CONTINUOUS
 10
0.053333
 20
9.933333
  0
VERTEX
  8
FOREGROUND
  6
CONTINUOUS
 10
0.060000
 20
10.033333
  0
VERTEX
  8
FOREGROUND
  6
CONTINUOUS
 10
0.073333
 20
10.135000
  0
VERTEX
  8
FOREGROUND
  6
CONTINUOUS
 10
0.091667
 20
10.233333
  0
VERTEX
  8
FOREGROUND
  6
CONTINUOUS
 10
0.113333
 20
10.330000
  0
VERTEX
  8
FOREGROUND
  6
CONTINUOUS
 10
0.140000
 20
10.425000
  0
VERTEX
  8
FOREGROUND
  6
CONTINUOUS
 10
0.171667
 20
10.516667
  0
VERTEX
  8
FOREGROUND
  6
CONTINUOUS
 10
0.206667
 20
10.608333
  0
VERTEX
  8
FOREGROUND
  6
CONTINUOUS
 10
0.246667
 20
10.696667
  0
VERTEX
  8
FOREGROUND
  6
CONTINUOUS
 10
0.291667
 20
10.783333
  0
VERTEX
  8
FOREGROUND
  6
CONTINUOUS
 10
0.340000
 20
10.866667
  0
VERTEX
  8
FOREGROUND
  6
CONTINUOUS
 10
0.391667
 20
10.948333
  0
VERTEX
  8
FOREGROUND
  6
CONTINUOUS
 10
0.448333
 20
11.026667
  0
VERTEX
  8
FOREGROUND
  6
CONTINUOUS
 10
0.506667
 20
11.101667
  0
VERTEX
  8
FOREGROUND
  6
CONTINUOUS
 10
0.570000
 20
11.175000
  0
VERTEX
  8
FOREGROUND
  6
CONTINUOUS
 10
0.636667
 20
11.243333
  0
VERTEX
  8
FOREGROUND
  6
CONTINUOUS
 10
0.705000
 20
11.310000
  0
VERTEX
  8
FOREGROUND
  6
CONTINUOUS
 10
0.778333
 20
11.373333
  0
VERTEX
  8
FOREGROUND
  6
CONTINUOUS
 10
0.853333
 20
11.431667
  0
VERTEX
  8
FOREGROUND
  6
CONTINUOUS
 10
0.931667
 20
11.488333
  0
VERTEX
  8
FOREGROUND
  6
CONTINUOUS
 10
1.013333
 20
11.540000
  0
VERTEX
  8
FOREGROUND
  6
CONTINUOUS
 10
1.096667
 20
11.588333
  0
VERTEX
  8
FOREGROUND
  6
CONTINUOUS
 10
1.183333
 20
11.631667
  0
VERTEX
  8
FOREGROUND
  6
CONTINUOUS
 10
1.271667
 20
11.673333
  0
VERTEX
  8
FOREGROUND
  6
CONTINUOUS
 10
1.363333
 20
11.708333
  0
VERTEX
  8
FOREGROUND
  6
CONTINUOUS
 10
1.455000
 20
11.740000
  0
VERTEX
  8
FOREGROUND
  6
CONTINUOUS
 10
1.550000
 20
11.766667
  0
VERTEX
  8
FOREGROUND
  6
CONTINUOUS
 10
1.646667
 20
11.788333
  0
VERTEX
  8
FOREGROUND
  6
CONTINUOUS
 10
1.745000
 20
11.806667
  0
VERTEX
  8
FOREGROUND
  6
CONTINUOUS
 10
1.845000
 20
11.820000
  0
VERTEX
  8
FOREGROUND
  6
CONTINUOUS
 10
1.946667
 20
11.826667
  0
SEQEND
  8
0
  0
ENDSEC
  0
EOF
