  0
SECTION
  2
HEADER
  9
$ACADVER
  1
AC1006
  9
$EXTMIN
 10
0.000000
 20
0.000000
  9
$EXTMAX
 10
10.336667
 20
10.338333
  9
$LTSCALE
 40
0.166667
  9
$PDMODE
 70
    35
  9
$PDSIZE
 40
0.133333
  0
ENDSEC
  0
SECTION
  2
TABLES
  0
TABLE
  2
LTYPE
 70
     9
  0
LTYPE
  2
CONTINUOUS
 70
    64
  3
Solid line
 72
    65
 73
     0
 40
0.000000
  0
LTYPE
  2
DASHED
 70
    64
  3
__ __ __ __ __ __ __ __ __ __ __ __ __ __ __
 72
    65
 73
     2
 40
0.001250
 49
0.000833
 49
-0.000417
  0
LTYPE
  2
HIDDEN
 70
    64
  3
 _ _ _ _ _ _ _ _ _ _ _ _ _ _ _ _ _ _ _ _ _ _
 72
    65
 73
     2
 40
0.000625
 49
0.000417
 49
-0.000208
  0
LTYPE
  2
CENTER
 70
    64
  3
____ _ ____ _ ____ _ ____ _ ____ _ ____ _ ____
 72
    65
 73
     4
 40
0.003333
 49
0.002083
 49
-0.000417
 49
0.000417
 49
-0.000417
  0
LTYPE
  2
PHANTOM
 70
    64
  3
_____ _ _ _____ _ _ _____ _ _ _____ _ _ ____
 72
    65
 73
     6
 40
0.004167
 49
0.002083
 49
-0.000417
 49
0.000417
 49
-0.000417
 49
0.000417
 49
-0.000417
  0
LTYPE
  2
DOT
 70
    64
  3
...............................................
 72
    65
 73
     2
 40
0.000417
 49
0.000000
 49
-0.000417
  0
LTYPE
  2
DASHDOT
 70
    64
  3
__ . __ . __ . __ . __ . __ . __ . __ . __ . __
 72
    65
 73
     4
 40
0.001667
 49
0.000833
 49
-0.000417
 49
0.000000
 49
-0.000417
  0
LTYPE
  2
BORDER
 70
    64
  3
__ __ . __ __ . __ __ . __ __ . __ __ . __ __
 72
    65
 73
     6
 40
0.002917
 49
0.000833
 49
-0.000417
 49
0.000833
 49
-0.000417
 49
0.000000
 49
-0.000417
  0
LTYPE
  2
DIVIDE
 70
    64
  3
__ . . __ . . __ . . __ . . __ . . __ . . __
 72
    65
 73
     6
 40
0.002083
 49
0.000833
 49
-0.000417
 49
0.000000
 49
-0.000417
 49
0.000000
 49
-0.000417
  0
LTYPE
  2
DOTDOT
 70
    64
  3
 . .  . .  . .  . .  . .  . . 
 72
    65
 73
     5
 40
0.000917
 49
-0.000417
 49
0.000000
 49
-0.000417
 49
0.000000
 49
-0.000417
  0
ENDTAB
  0
TABLE
  2
STYLE
 70
     2
  0
STYLE
 70
     0
  2
SN0
 40
0.000000
 41
0.001667
 50
0.000000
 71
     0
 42
0.000000
  3
ROMAND
  0
STYLE
 70
    68
  2
SV0
 40
0.000000
 41
0.001667
 50
0.000000
 71
     0
 42
0.000000
  3
ROMAND
  0
ENDTAB
  0
TABLE
  2
LAYER
 70
     2
  0
LAYER
  2
FOREGROUND
 70
    64
 62
     7
  6
CONTINUOUS
  0
LAYER
  2
BACKGROUND
 70
    65
 62
    -7
  6
CONTINUOUS
  0
ENDTAB
  0
ENDSEC
  0
SECTION
  2
ENTITIES
  0
POLYLINE
  8
FOREGROUND
  6
CONTINUOUS
 66
     1
 40
0.010000
 41
0.010000
 70
     1
  0
VERTEX
  8
FOREGROUND
  6
CONTINUOUS
 10
8.240000
 20
0.050000
  0
VERTEX
  8
FOREGROUND
  6
CONTINUOUS
 10
8.311851
 20
0.051293
  0
VERTEX
  8
FOREGROUND
  6
CONTINUOUS
 10
8.383078
 20
0.055029
  0
VERTEX
  8
FOREGROUND
  6
CONTINUOUS
 10
8.453640
 20
0.061168
  0
VERTEX
  8
FOREGROUND
  6
CONTINUOUS
 10
8.523497
 20
0.069671
  0
VERTEX
  8
FOREGROUND
  6
CONTINUOUS
 10
8.592608
 20
0.080495
  0
VERTEX
  8
FOREGROUND
  6
CONTINUOUS
 10
8.660934
 20
0.093601
  0
VERTEX
  8
FOREGROUND
  6
CONTINUOUS
 10
8.728433
 20
0.108949
  0
VERTEX
  8
FOREGROUND
  6
CONTINUOUS
 10
8.795066
 20
0.126497
  0
VERTEX
  8
FOREGROUND
  6
CONTINUOUS
 10
8.860791
 20
0.146207
  0
VERTEX
  8
FOREGROUND
  6
CONTINUOUS
 10
8.925569
 20
0.168036
  0
VERTEX
  8
FOREGROUND
  6
CONTINUOUS
 10
8.989359
 20
0.191945
  0
VERTEX
  8
FOREGROUND
  6
CONTINUOUS
 10
9.052120
 20
0.217893
  0
VERTEX
  8
FOREGROUND
  6
CONTINUOUS
 10
9.113812
 20
0.245840
  0
VERTEX
  8
FOREGROUND
  6
CONTINUOUS
 10
9.174395
 20
0.275746
  0
VERTEX
  8
FOREGROUND
  6
CONTINUOUS
 10
9.233828
 20
0.307569
  0
VERTEX
  8
FOREGROUND
  6
CONTINUOUS
 10
9.292071
 20
0.341270
  0
VERTEX
  8
FOREGROUND
  6
CONTINUOUS
 10
9.349084
 20
0.376808
  0
VERTEX
  8
FOREGROUND
  6
CONTINUOUS
 10
9.404825
 20
0.414143
  0
VERTEX
  8
FOREGROUND
  6
CONTINUOUS
 10
9.459254
 20
0.453234
  0
VERTEX
  8
FOREGROUND
  6
CONTINUOUS
 10
9.512332
 20
0.494040
  0
VERTEX
  8
FOREGROUND
  6
CONTINUOUS
 10
9.564018
 20
0.536523
  0
VERTEX
  8
FOREGROUND
  6
CONTINUOUS
 10
9.614270
 20
0.580640
  0
VERTEX
  8
FOREGROUND
  6
CONTINUOUS
 10
9.663050
 20
0.626351
  0
VERTEX
  8
FOREGROUND
  6
CONTINUOUS
 10
9.710315
 20
0.673617
  0
VERTEX
  8
FOREGROUND
  6
CONTINUOUS
 10
9.756027
 20
0.722396
  0
VERTEX
  8
FOREGROUND
  6
CONTINUOUS
 10
9.800144
 20
0.772649
  0
VERTEX
  8
FOREGROUND
  6
CONTINUOUS
 10
9.842626
 20
0.824334
  0
VERTEX
  8
FOREGROUND
  6
CONTINUOUS
 10
9.883433
 20
0.877412
  0
VERTEX
  8
FOREGROUND
  6
CONTINUOUS
 10
9.922524
 20
0.931842
  0
VERTEX
  8
FOREGROUND
  6
CONTINUOUS
 10
9.959859
 20
0.987583
  0
VERTEX
  8
FOREGROUND
  6
CONTINUOUS
 10
9.995397
 20
1.044595
  0
VERTEX
  8
FOREGROUND
  6
CONTINUOUS
 10
10.029098
 20
1.102838
  0
VERTEX
  8
FOREGROUND
  6
CONTINUOUS
 10
10.060921
 20
1.162271
  0
VERTEX
  8
FOREGROUND
  6
CONTINUOUS
 10
10.090827
 20
1.222854
  0
VERTEX
  8
FOREGROUND
  6
CONTINUOUS
 10
10.118774
 20
1.284547
  0
VERTEX
  8
FOREGROUND
  6
CONTINUOUS
 10
10.144722
 20
1.347308
  0
VERTEX
  8
FOREGROUND
  6
CONTINUOUS
 10
10.168631
 20
1.411098
  0
VERTEX
  8
FOREGROUND
  6
CONTINUOUS
 10
10.190460
 20
1.475875
  0
VERTEX
  8
FOREGROUND
  6
CONTINUOUS
 10
10.210169
 20
1.541601
  0
VERTEX
  8
FOREGROUND
  6
CONTINUOUS
 10
10.227718
 20
1.608233
  0
VERTEX
  8
FOREGROUND
  6
CONTINUOUS
 10
10.243066
 20
1.675733
  0
VERTEX
  8
FOREGROUND
  6
CONTINUOUS
 10
10.256172
 20
1.744058
  0
VERTEX
  8
FOREGROUND
  6
CONTINUOUS
 10
10.266996
 20
1.813170
  0
VERTEX
  8
FOREGROUND
  6
CONTINUOUS
 10
10.275498
 20
1.883027
  0
VERTEX
  8
FOREGROUND
  6
CONTINUOUS
 10
10.281638
 20
1.953589
  0
VERTEX
  8
FOREGROUND
  6
CONTINUOUS
 10
10.285374
 20
2.024816
  0
VERTEX
  8
FOREGROUND
  6
CONTINUOUS
 10
10.286667
 20
2.096667
  0
VERTEX
  8
FOREGROUND
  6
CONTINUOUS
 10
10.286667
 20
8.241667
  0
VERTEX
  8
FOREGROUND
  6
CONTINUOUS
 10
10.285374
 20
8.313527
  0
VERTEX
  8
FOREGROUND
  6
CONTINUOUS
 10
10.281636
 20
8.384763
  0
VERTEX
  8
FOREGROUND
  6
CONTINUOUS
 10
10.275496
 20
8.455334
  0
VERTEX
  8
FOREGROUND
  6
CONTINUOUS
 10
10.266991
 20
8.525199
  0
VERTEX
  8
FOREGROUND
  6
CONTINUOUS
 10
10.256164
 20
8.594319
  0
VERTEX
  8
FOREGROUND
  6
CONTINUOUS
 10
10.243055
 20
8.662653
  0
VERTEX
  8
FOREGROUND
  6
CONTINUOUS
 10
10.227704
 20
8.730160
  0
VERTEX
  8
FOREGROUND
  6
CONTINUOUS
 10
10.210151
 20
8.796800
  0
VERTEX
  8
FOREGROUND
  6
CONTINUOUS
 10
10.190437
 20
8.862532
  0
VERTEX
  8
FOREGROUND
  6
CONTINUOUS
 10
10.168602
 20
8.927317
  0
VERTEX
  8
FOREGROUND
  6
CONTINUOUS
 10
10.144688
 20
8.991113
  0
VERTEX
  8
FOREGROUND
  6
CONTINUOUS
 10
10.118734
 20
9.053880
  0
VERTEX
  8
FOREGROUND
  6
CONTINUOUS
 10
10.090780
 20
9.115578
  0
VERTEX
  8
FOREGROUND
  6
CONTINUOUS
 10
10.060868
 20
9.176166
  0
VERTEX
  8
FOREGROUND
  6
CONTINUOUS
 10
10.029037
 20
9.235604
  0
VERTEX
  8
FOREGROUND
  6
CONTINUOUS
 10
9.995329
 20
9.293852
  0
VERTEX
  8
FOREGROUND
  6
CONTINUOUS
 10
9.959783
 20
9.350868
  0
VERTEX
  8
FOREGROUND
  6
CONTINUOUS
 10
9.922440
 20
9.406613
  0
VERTEX
  8
FOREGROUND
  6
CONTINUOUS
 10
9.883340
 20
9.461046
  0
VERTEX
  8
FOREGROUND
  6
CONTINUOUS
 10
9.842525
 20
9.514127
  0
VERTEX
  8
FOREGROUND
  6
CONTINUOUS
 10
9.800034
 20
9.565814
  0
VERTEX
  8
FOREGROUND
  6
CONTINUOUS
 10
9.755907
 20
9.616069
  0
VERTEX
  8
FOREGROUND
  6
CONTINUOUS
 10
9.710186
 20
9.664850
  0
VERTEX
  8
FOREGROUND
  6
CONTINUOUS
 10
9.662911
 20
9.712116
  0
VERTEX
  8
FOREGROUND
  6
CONTINUOUS
 10
9.614121
 20
9.757829
  0
VERTEX
  8
FOREGROUND
  6
CONTINUOUS
 10
9.563859
 20
9.801946
  0
VERTEX
  8
FOREGROUND
  6
CONTINUOUS
 10
9.512163
 20
9.844427
  0
VERTEX
  8
FOREGROUND
  6
CONTINUOUS
 10
9.459075
 20
9.885233
  0
VERTEX
  8
FOREGROUND
  6
CONTINUOUS
 10
9.404635
 20
9.924322
  0
VERTEX
  8
FOREGROUND
  6
CONTINUOUS
 10
9.348883
 20
9.961655
  0
VERTEX
  8
FOREGROUND
  6
CONTINUOUS
 10
9.291860
 20
9.997190
  0
VERTEX
  8
FOREGROUND
  6
CONTINUOUS
 10
9.233606
 20
10.030888
  0
VERTEX
  8
FOREGROUND
  6
CONTINUOUS
 10
9.174162
 20
10.062708
  0
VERTEX
  8
FOREGROUND
  6
CONTINUOUS
 10
9.113568
 20
10.092609
  0
VERTEX
  8
FOREGROUND
  6
CONTINUOUS
 10
9.051865
 20
10.120551
  0
VERTEX
  8
FOREGROUND
  6
CONTINUOUS
 10
8.989093
 20
10.146493
  0
VERTEX
  8
FOREGROUND
  6
CONTINUOUS
 10
8.925293
 20
10.170396
  0
VERTEX
  8
FOREGROUND
  6
CONTINUOUS
 10
8.860504
 20
10.192219
  0
VERTEX
  8
FOREGROUND
  6
CONTINUOUS
 10
8.794768
 20
10.211920
  0
VERTEX
  8
FOREGROUND
  6
CONTINUOUS
 10
8.728125
 20
10.229461
  0
VERTEX
  8
FOREGROUND
  6
CONTINUOUS
 10
8.660615
 20
10.244800
  0
VERTEX
  8
FOREGROUND
  6
CONTINUOUS
 10
8.592279
 20
10.257896
  0
VERTEX
  8
FOREGROUND
  6
CONTINUOUS
 10
8.523157
 20
10.268710
  0
VERTEX
  8
FOREGROUND
  6
CONTINUOUS
 10
8.453290
 20
10.277202
  0
VERTEX
  8
FOREGROUND
  6
CONTINUOUS
 10
8.382718
 20
10.283330
  0
VERTEX
  8
FOREGROUND
  6
CONTINUOUS
 10
8.311481
 20
10.287054
  0
VERTEX
  8
FOREGROUND
  6
CONTINUOUS
 10
8.239621
 20
10.288333
  0
VERTEX
  8
FOREGROUND
  6
CONTINUOUS
 10
2.096287
 20
10.288333
  0
VERTEX
  8
FOREGROUND
  6
CONTINUOUS
 10
2.024446
 20
10.287028
  0
VERTEX
  8
FOREGROUND
  6
CONTINUOUS
 10
1.953229
 20
10.283279
  0
VERTEX
  8
FOREGROUND
  6
CONTINUOUS
 10
1.882677
 20
10.277128
  0
VERTEX
  8
FOREGROUND
  6
CONTINUOUS
 10
1.812830
 20
10.268615
  0
VERTEX
  8
FOREGROUND
  6
CONTINUOUS
 10
1.743729
 20
10.257781
  0
VERTEX
  8
FOREGROUND
  6
CONTINUOUS
 10
1.675414
 20
10.244665
  0
VERTEX
  8
FOREGROUND
  6
CONTINUOUS
 10
1.607925
 20
10.229308
  0
VERTEX
  8
FOREGROUND
  6
CONTINUOUS
 10
1.541303
 20
10.211752
  0
VERTEX
  8
FOREGROUND
  6
CONTINUOUS
 10
1.475588
 20
10.192035
  0
VERTEX
  8
FOREGROUND
  6
CONTINUOUS
 10
1.410821
 20
10.170199
  0
VERTEX
  8
FOREGROUND
  6
CONTINUOUS
 10
1.347042
 20
10.146284
  0
VERTEX
  8
FOREGROUND
  6
CONTINUOUS
 10
1.284292
 20
10.120330
  0
VERTEX
  8
FOREGROUND
  6
CONTINUOUS
 10
1.222611
 20
10.092378
  0
VERTEX
  8
FOREGROUND
  6
CONTINUOUS
 10
1.162038
 20
10.062468
  0
VERTEX
  8
FOREGROUND
  6
CONTINUOUS
 10
1.102616
 20
10.030641
  0
VERTEX
  8
FOREGROUND
  6
CONTINUOUS
 10
1.044384
 20
9.996936
  0
VERTEX
  8
FOREGROUND
  6
CONTINUOUS
 10
0.987382
 20
9.961396
  0
VERTEX
  8
FOREGROUND
  6
CONTINUOUS
 10
0.931652
 20
9.924059
  0
VERTEX
  8
FOREGROUND
  6
CONTINUOUS
 10
0.877233
 20
9.884966
  0
VERTEX
  8
FOREGROUND
  6
CONTINUOUS
 10
0.824165
 20
9.844158
  0
VERTEX
  8
FOREGROUND
  6
CONTINUOUS
 10
0.772490
 20
9.801676
  0
VERTEX
  8
FOREGROUND
  6
CONTINUOUS
 10
0.722248
 20
9.757559
  0
VERTEX
  8
FOREGROUND
  6
CONTINUOUS
 10
0.673478
 20
9.711848
  0
VERTEX
  8
FOREGROUND
  6
CONTINUOUS
 10
0.626222
 20
9.664583
  0
VERTEX
  8
FOREGROUND
  6
CONTINUOUS
 10
0.580520
 20
9.615805
  0
VERTEX
  8
FOREGROUND
  6
CONTINUOUS
 10
0.536412
 20
9.565554
  0
VERTEX
  8
FOREGROUND
  6
CONTINUOUS
 10
0.493939
 20
9.513871
  0
VERTEX
  8
FOREGROUND
  6
CONTINUOUS
 10
0.453141
 20
9.460796
  0
VERTEX
  8
FOREGROUND
  6
CONTINUOUS
 10
0.414059
 20
9.406370
  0
VERTEX
  8
FOREGROUND
  6
CONTINUOUS
 10
0.376732
 20
9.350632
  0
VERTEX
  8
FOREGROUND
  6
CONTINUOUS
 10
0.341202
 20
9.293624
  0
VERTEX
  8
FOREGROUND
  6
CONTINUOUS
 10
0.307509
 20
9.235386
  0
VERTEX
  8
FOREGROUND
  6
CONTINUOUS
 10
0.275692
 20
9.175957
  0
VERTEX
  8
FOREGROUND
  6
CONTINUOUS
 10
0.245794
 20
9.115380
  0
VERTEX
  8
FOREGROUND
  6
CONTINUOUS
 10
0.217853
 20
9.053693
  0
VERTEX
  8
FOREGROUND
  6
CONTINUOUS
 10
0.191911
 20
8.990938
  0
VERTEX
  8
FOREGROUND
  6
CONTINUOUS
 10
0.168007
 20
8.927155
  0
VERTEX
  8
FOREGROUND
  6
CONTINUOUS
 10
0.146183
 20
8.862384
  0
VERTEX
  8
FOREGROUND
  6
CONTINUOUS
 10
0.126479
 20
8.796665
  0
VERTEX
  8
FOREGROUND
  6
CONTINUOUS
 10
0.108934
 20
8.730040
  0
VERTEX
  8
FOREGROUND
  6
CONTINUOUS
 10
0.093590
 20
8.662549
  0
VERTEX
  8
FOREGROUND
  6
CONTINUOUS
 10
0.080487
 20
8.594231
  0
VERTEX
  8
FOREGROUND
  6
CONTINUOUS
 10
0.069666
 20
8.525128
  0
VERTEX
  8
FOREGROUND
  6
CONTINUOUS
 10
0.061166
 20
8.455279
  0
VERTEX
  8
FOREGROUND
  6
CONTINUOUS
 10
0.055028
 20
8.384726
  0
VERTEX
  8
FOREGROUND
  6
CONTINUOUS
 10
0.051292
 20
8.313508
  0
VERTEX
  8
FOREGROUND
  6
CONTINUOUS
 10
0.050000
 20
8.241667
  0
VERTEX
  8
FOREGROUND
  6
CONTINUOUS
 10
0.050000
 20
2.096667
  0
VERTEX
  8
FOREGROUND
  6
CONTINUOUS
 10
0.051293
 20
2.024816
  0
VERTEX
  8
FOREGROUND
  6
CONTINUOUS
 10
0.055029
 20
1.953589
  0
VERTEX
  8
FOREGROUND
  6
CONTINUOUS
 10
0.061168
 20
1.883027
  0
VERTEX
  8
FOREGROUND
  6
CONTINUOUS
 10
0.069671
 20
1.813170
  0
VERTEX
  8
FOREGROUND
  6
CONTINUOUS
 10
0.080495
 20
1.744058
  0
VERTEX
  8
FOREGROUND
  6
CONTINUOUS
 10
0.093601
 20
1.675733
  0
VERTEX
  8
FOREGROUND
  6
CONTINUOUS
 10
0.108949
 20
1.608233
  0
VERTEX
  8
FOREGROUND
  6
CONTINUOUS
 10
0.126497
 20
1.541601
  0
VERTEX
  8
FOREGROUND
  6
CONTINUOUS
 10
0.146207
 20
1.475875
  0
VERTEX
  8
FOREGROUND
  6
CONTINUOUS
 10
0.168036
 20
1.411098
  0
VERTEX
  8
FOREGROUND
  6
CONTINUOUS
 10
0.191945
 20
1.347308
  0
VERTEX
  8
FOREGROUND
  6
CONTINUOUS
 10
0.217893
 20
1.284547
  0
VERTEX
  8
FOREGROUND
  6
CONTINUOUS
 10
0.245840
 20
1.222854
  0
VERTEX
  8
FOREGROUND
  6
CONTINUOUS
 10
0.275746
 20
1.162271
  0
VERTEX
  8
FOREGROUND
  6
CONTINUOUS
 10
0.307569
 20
1.102838
  0
VERTEX
  8
FOREGROUND
  6
CONTINUOUS
 10
0.341270
 20
1.044595
  0
VERTEX
  8
FOREGROUND
  6
CONTINUOUS
 10
0.376808
 20
0.987583
  0
VERTEX
  8
FOREGROUND
  6
CONTINUOUS
 10
0.414143
 20
0.931842
  0
VERTEX
  8
FOREGROUND
  6
CONTINUOUS
 10
0.453234
 20
0.877412
  0
VERTEX
  8
FOREGROUND
  6
CONTINUOUS
 10
0.494040
 20
0.824334
  0
VERTEX
  8
FOREGROUND
  6
CONTINUOUS
 10
0.536523
 20
0.772649
  0
VERTEX
  8
FOREGROUND
  6
CONTINUOUS
 10
0.580640
 20
0.722396
  0
VERTEX
  8
FOREGROUND
  6
CONTINUOUS
 10
0.626351
 20
0.673617
  0
VERTEX
  8
FOREGROUND
  6
CONTINUOUS
 10
0.673617
 20
0.626351
  0
VERTEX
  8
FOREGROUND
  6
CONTINUOUS
 10
0.722396
 20
0.580640
  0
VERTEX
  8
FOREGROUND
  6
CONTINUOUS
 10
0.772649
 20
0.536523
  0
VERTEX
  8
FOREGROUND
  6
CONTINUOUS
 10
0.824334
 20
0.494040
  0
VERTEX
  8
FOREGROUND
  6
CONTINUOUS
 10
0.877412
 20
0.453234
  0
VERTEX
  8
FOREGROUND
  6
CONTINUOUS
 10
0.931842
 20
0.414143
  0
VERTEX
  8
FOREGROUND
  6
CONTINUOUS
 10
0.987583
 20
0.376808
  0
VERTEX
  8
FOREGROUND
  6
CONTINUOUS
 10
1.044595
 20
0.341270
  0
VERTEX
  8
FOREGROUND
  6
CONTINUOUS
 10
1.102838
 20
0.307569
  0
VERTEX
  8
FOREGROUND
  6
CONTINUOUS
 10
1.162271
 20
0.275746
  0
VERTEX
  8
FOREGROUND
  6
CONTINUOUS
 10
1.222854
 20
0.245840
  0
VERTEX
  8
FOREGROUND
  6
CONTINUOUS
 10
1.284547
 20
0.217893
  0
VERTEX
  8
FOREGROUND
  6
CONTINUOUS
 10
1.347308
 20
0.191945
  0
VERTEX
  8
FOREGROUND
  6
CONTINUOUS
 10
1.411098
 20
0.168036
  0
VERTEX
  8
FOREGROUND
  6
CONTINUOUS
 10
1.475875
 20
0.146207
  0
VERTEX
  8
FOREGROUND
  6
CONTINUOUS
 10
1.541601
 20
0.126497
  0
VERTEX
  8
FOREGROUND
  6
CONTINUOUS
 10
1.608233
 20
0.108949
  0
VERTEX
  8
FOREGROUND
  6
CONTINUOUS
 10
1.675733
 20
0.093601
  0
VERTEX
  8
FOREGROUND
  6
CONTINUOUS
 10
1.744058
 20
0.080495
  0
VERTEX
  8
FOREGROUND
  6
CONTINUOUS
 10
1.813170
 20
0.069671
  0
VERTEX
  8
FOREGROUND
  6
CONTINUOUS
 10
1.883027
 20
0.061168
  0
VERTEX
  8
FOREGROUND
  6
CONTINUOUS
 10
1.953589
 20
0.055029
  0
VERTEX
  8
FOREGROUND
  6
CONTINUOUS
 10
2.024816
 20
0.051293
  0
VERTEX
  8
FOREGROUND
  6
CONTINUOUS
 10
2.096667
 20
0.050000
  0
SEQEND
  8
0
  0
ENDSEC
  0
EOF
