  0
SECTION
  2
HEADER
  9
$ACADVER
  1
AC1006
  9
$EXTMIN
 10
0.000000
 20
0.000000
  9
$EXTMAX
 10
10.730000
 20
10.731667
  9
$LTSCALE
 40
0.166667
  9
$PDMODE
 70
    35
  9
$PDSIZE
 40
0.133333
  0
ENDSEC
  0
SECTION
  2
TABLES
  0
TABLE
  2
LTYPE
 70
     9
  0
LTYPE
  2
CONTINUOUS
 70
    64
  3
Solid line
 72
    65
 73
     0
 40
0.000000
  0
LTYPE
  2
DASHED
 70
    64
  3
__ __ __ __ __ __ __ __ __ __ __ __ __ __ __
 72
    65
 73
     2
 40
0.001250
 49
0.000833
 49
-0.000417
  0
LTYPE
  2
HIDDEN
 70
    64
  3
 _ _ _ _ _ _ _ _ _ _ _ _ _ _ _ _ _ _ _ _ _ _
 72
    65
 73
     2
 40
0.000625
 49
0.000417
 49
-0.000208
  0
LTYPE
  2
CENTER
 70
    64
  3
____ _ ____ _ ____ _ ____ _ ____ _ ____ _ ____
 72
    65
 73
     4
 40
0.003333
 49
0.002083
 49
-0.000417
 49
0.000417
 49
-0.000417
  0
LTYPE
  2
PHANTOM
 70
    64
  3
_____ _ _ _____ _ _ _____ _ _ _____ _ _ ____
 72
    65
 73
     6
 40
0.004167
 49
0.002083
 49
-0.000417
 49
0.000417
 49
-0.000417
 49
0.000417
 49
-0.000417
  0
LTYPE
  2
DOT
 70
    64
  3
...............................................
 72
    65
 73
     2
 40
0.000417
 49
0.000000
 49
-0.000417
  0
LTYPE
  2
DASHDOT
 70
    64
  3
__ . __ . __ . __ . __ . __ . __ . __ . __ . __
 72
    65
 73
     4
 40
0.001667
 49
0.000833
 49
-0.000417
 49
0.000000
 49
-0.000417
  0
LTYPE
  2
BORDER
 70
    64
  3
__ __ . __ __ . __ __ . __ __ . __ __ . __ __
 72
    65
 73
     6
 40
0.002917
 49
0.000833
 49
-0.000417
 49
0.000833
 49
-0.000417
 49
0.000000
 49
-0.000417
  0
LTYPE
  2
DIVIDE
 70
    64
  3
__ . . __ . . __ . . __ . . __ . . __ . . __
 72
    65
 73
     6
 40
0.002083
 49
0.000833
 49
-0.000417
 49
0.000000
 49
-0.000417
 49
0.000000
 49
-0.000417
  0
LTYPE
  2
DOTDOT
 70
    64
  3
 . .  . .  . .  . .  . .  . . 
 72
    65
 73
     5
 40
0.000917
 49
-0.000417
 49
0.000000
 49
-0.000417
 49
0.000000
 49
-0.000417
  0
ENDTAB
  0
TABLE
  2
STYLE
 70
     2
  0
STYLE
 70
     0
  2
SN0
 40
0.000000
 41
0.001667
 50
0.000000
 71
     0
 42
0.000000
  3
ROMAND
  0
STYLE
 70
    68
  2
SV0
 40
0.000000
 41
0.001667
 50
0.000000
 71
     0
 42
0.000000
  3
ROMAND
  0
ENDTAB
  0
TABLE
  2
LAYER
 70
     2
  0
LAYER
  2
FOREGROUND
 70
    64
 62
     7
  6
CONTINUOUS
  0
LAYER
  2
BACKGROUND
 70
    65
 62
    -7
  6
CONTINUOUS
  0
ENDTAB
  0
ENDSEC
  0
SECTION
  2
ENTITIES
  0
POLYLINE
  8
FOREGROUND
  6
CONTINUOUS
 66
     1
 40
0.010000
 41
0.010000
 70
     1
  0
VERTEX
  8
FOREGROUND
  6
CONTINUOUS
 10
8.553333
 20
0.050000
  0
VERTEX
  8
FOREGROUND
  6
CONTINUOUS
 10
8.627993
 20
0.051343
  0
VERTEX
  8
FOREGROUND
  6
CONTINUOUS
 10
8.702004
 20
0.055226
  0
VERTEX
  8
FOREGROUND
  6
CONTINUOUS
 10
8.775324
 20
0.061605
  0
VERTEX
  8
FOREGROUND
  6
CONTINUOUS
 10
8.847911
 20
0.070439
  0
VERTEX
  8
FOREGROUND
  6
CONTINUOUS
 10
8.919724
 20
0.081687
  0
VERTEX
  8
FOREGROUND
  6
CONTINUOUS
 10
8.990721
 20
0.095305
  0
VERTEX
  8
FOREGROUND
  6
CONTINUOUS
 10
9.060859
 20
0.111253
  0
VERTEX
  8
FOREGROUND
  6
CONTINUOUS
 10
9.130096
 20
0.129488
  0
VERTEX
  8
FOREGROUND
  6
CONTINUOUS
 10
9.198390
 20
0.149967
  0
VERTEX
  8
FOREGROUND
  6
CONTINUOUS
 10
9.265700
 20
0.172650
  0
VERTEX
  8
FOREGROUND
  6
CONTINUOUS
 10
9.331983
 20
0.197493
  0
VERTEX
  8
FOREGROUND
  6
CONTINUOUS
 10
9.397197
 20
0.224456
  0
VERTEX
  8
FOREGROUND
  6
CONTINUOUS
 10
9.461301
 20
0.253495
  0
VERTEX
  8
FOREGROUND
  6
CONTINUOUS
 10
9.524252
 20
0.284569
  0
VERTEX
  8
FOREGROUND
  6
CONTINUOUS
 10
9.586008
 20
0.317637
  0
VERTEX
  8
FOREGROUND
  6
CONTINUOUS
 10
9.646528
 20
0.352655
  0
VERTEX
  8
FOREGROUND
  6
CONTINUOUS
 10
9.705769
 20
0.389582
  0
VERTEX
  8
FOREGROUND
  6
CONTINUOUS
 10
9.763689
 20
0.428376
  0
VERTEX
  8
FOREGROUND
  6
CONTINUOUS
 10
9.820246
 20
0.468995
  0
VERTEX
  8
FOREGROUND
  6
CONTINUOUS
 10
9.875398
 20
0.511397
  0
VERTEX
  8
FOREGROUND
  6
CONTINUOUS
 10
9.929104
 20
0.555540
  0
VERTEX
  8
FOREGROUND
  6
CONTINUOUS
 10
9.981321
 20
0.601381
  0
VERTEX
  8
FOREGROUND
  6
CONTINUOUS
 10
10.032007
 20
0.648880
  0
VERTEX
  8
FOREGROUND
  6
CONTINUOUS
 10
10.081120
 20
0.697993
  0
VERTEX
  8
FOREGROUND
  6
CONTINUOUS
 10
10.128619
 20
0.748679
  0
VERTEX
  8
FOREGROUND
  6
CONTINUOUS
 10
10.174460
 20
0.800896
  0
VERTEX
  8
FOREGROUND
  6
CONTINUOUS
 10
10.218603
 20
0.854602
  0
VERTEX
  8
FOREGROUND
  6
CONTINUOUS
 10
10.261005
 20
0.909754
  0
VERTEX
  8
FOREGROUND
  6
CONTINUOUS
 10
10.301624
 20
0.966311
  0
VERTEX
  8
FOREGROUND
  6
CONTINUOUS
 10
10.340418
 20
1.024231
  0
VERTEX
  8
FOREGROUND
  6
CONTINUOUS
 10
10.377345
 20
1.083472
  0
VERTEX
  8
FOREGROUND
  6
CONTINUOUS
 10
10.412363
 20
1.143992
  0
VERTEX
  8
FOREGROUND
  6
CONTINUOUS
 10
10.445431
 20
1.205748
  0
VERTEX
  8
FOREGROUND
  6
CONTINUOUS
 10
10.476505
 20
1.268699
  0
VERTEX
  8
FOREGROUND
  6
CONTINUOUS
 10
10.505544
 20
1.332803
  0
VERTEX
  8
FOREGROUND
  6
CONTINUOUS
 10
10.532507
 20
1.398017
  0
VERTEX
  8
FOREGROUND
  6
CONTINUOUS
 10
10.557350
 20
1.464300
  0
VERTEX
  8
FOREGROUND
  6
CONTINUOUS
 10
10.580033
 20
1.531610
  0
VERTEX
  8
FOREGROUND
  6
CONTINUOUS
 10
10.600512
 20
1.599904
  0
VERTEX
  8
FOREGROUND
  6
CONTINUOUS
 10
10.618747
 20
1.669141
  0
VERTEX
  8
FOREGROUND
  6
CONTINUOUS
 10
10.634695
 20
1.739279
  0
VERTEX
  8
FOREGROUND
  6
CONTINUOUS
 10
10.648313
 20
1.810276
  0
VERTEX
  8
FOREGROUND
  6
CONTINUOUS
 10
10.659561
 20
1.882089
  0
VERTEX
  8
FOREGROUND
  6
CONTINUOUS
 10
10.668395
 20
1.954676
  0
VERTEX
  8
FOREGROUND
  6
CONTINUOUS
 10
10.674774
 20
2.027996
  0
VERTEX
  8
FOREGROUND
  6
CONTINUOUS
 10
10.678657
 20
2.102007
  0
VERTEX
  8
FOREGROUND
  6
CONTINUOUS
 10
10.680000
 20
2.176667
  0
VERTEX
  8
FOREGROUND
  6
CONTINUOUS
 10
10.680000
 20
8.555000
  0
VERTEX
  8
FOREGROUND
  6
CONTINUOUS
 10
10.678656
 20
8.629669
  0
VERTEX
  8
FOREGROUND
  6
CONTINUOUS
 10
10.674773
 20
8.703689
  0
VERTEX
  8
FOREGROUND
  6
CONTINUOUS
 10
10.668392
 20
8.777019
  0
VERTEX
  8
FOREGROUND
  6
CONTINUOUS
 10
10.659556
 20
8.849615
  0
VERTEX
  8
FOREGROUND
  6
CONTINUOUS
 10
10.648305
 20
8.921437
  0
VERTEX
  8
FOREGROUND
  6
CONTINUOUS
 10
10.634684
 20
8.992442
  0
VERTEX
  8
FOREGROUND
  6
CONTINUOUS
 10
10.618732
 20
9.062587
  0
VERTEX
  8
FOREGROUND
  6
CONTINUOUS
 10
10.600493
 20
9.131832
  0
VERTEX
  8
FOREGROUND
  6
CONTINUOUS
 10
10.580009
 20
9.200134
  0
VERTEX
  8
FOREGROUND
  6
CONTINUOUS
 10
10.557321
 20
9.267451
  0
VERTEX
  8
FOREGROUND
  6
CONTINUOUS
 10
10.532472
 20
9.333740
  0
VERTEX
  8
FOREGROUND
  6
CONTINUOUS
 10
10.505503
 20
9.398961
  0
VERTEX
  8
FOREGROUND
  6
CONTINUOUS
 10
10.476457
 20
9.463071
  0
VERTEX
  8
FOREGROUND
  6
CONTINUOUS
 10
10.445375
 20
9.526027
  0
VERTEX
  8
FOREGROUND
  6
CONTINUOUS
 10
10.412300
 20
9.587789
  0
VERTEX
  8
FOREGROUND
  6
CONTINUOUS
 10
10.377274
 20
9.648313
  0
VERTEX
  8
FOREGROUND
  6
CONTINUOUS
 10
10.340339
 20
9.707558
  0
VERTEX
  8
FOREGROUND
  6
CONTINUOUS
 10
10.301536
 20
9.765482
  0
VERTEX
  8
FOREGROUND
  6
CONTINUOUS
 10
10.260909
 20
9.822042
  0
VERTEX
  8
FOREGROUND
  6
CONTINUOUS
 10
10.218498
 20
9.877198
  0
VERTEX
  8
FOREGROUND
  6
CONTINUOUS
 10
10.174346
 20
9.930906
  0
VERTEX
  8
FOREGROUND
  6
CONTINUOUS
 10
10.128494
 20
9.983125
  0
VERTEX
  8
FOREGROUND
  6
CONTINUOUS
 10
10.080986
 20
10.033812
  0
VERTEX
  8
FOREGROUND
  6
CONTINUOUS
 10
10.031863
 20
10.082927
  0
VERTEX
  8
FOREGROUND
  6
CONTINUOUS
 10
9.981166
 20
10.130426
  0
VERTEX
  8
FOREGROUND
  6
CONTINUOUS
 10
9.928939
 20
10.176267
  0
VERTEX
  8
FOREGROUND
  6
CONTINUOUS
 10
9.875223
 20
10.220409
  0
VERTEX
  8
FOREGROUND
  6
CONTINUOUS
 10
9.820059
 20
10.262810
  0
VERTEX
  8
FOREGROUND
  6
CONTINUOUS
 10
9.763491
 20
10.303427
  0
VERTEX
  8
FOREGROUND
  6
CONTINUOUS
 10
9.705560
 20
10.342219
  0
VERTEX
  8
FOREGROUND
  6
CONTINUOUS
 10
9.646308
 20
10.379144
  0
VERTEX
  8
FOREGROUND
  6
CONTINUOUS
 10
9.585777
 20
10.414158
  0
VERTEX
  8
FOREGROUND
  6
CONTINUOUS
 10
9.524010
 20
10.447222
  0
VERTEX
  8
FOREGROUND
  6
CONTINUOUS
 10
9.461048
 20
10.478292
  0
VERTEX
  8
FOREGROUND
  6
CONTINUOUS
 10
9.396933
 20
10.507326
  0
VERTEX
  8
FOREGROUND
  6
CONTINUOUS
 10
9.331707
 20
10.534282
  0
VERTEX
  8
FOREGROUND
  6
CONTINUOUS
 10
9.265413
 20
10.559120
  0
VERTEX
  8
FOREGROUND
  6
CONTINUOUS
 10
9.198092
 20
10.581795
  0
VERTEX
  8
FOREGROUND
  6
CONTINUOUS
 10
9.129786
 20
10.602267
  0
VERTEX
  8
FOREGROUND
  6
CONTINUOUS
 10
9.060538
 20
10.620493
  0
VERTEX
  8
FOREGROUND
  6
CONTINUOUS
 10
8.990389
 20
10.636431
  0
VERTEX
  8
FOREGROUND
  6
CONTINUOUS
 10
8.919382
 20
10.650040
  0
VERTEX
  8
FOREGROUND
  6
CONTINUOUS
 10
8.847558
 20
10.661277
  0
VERTEX
  8
FOREGROUND
  6
CONTINUOUS
 10
8.774960
 20
10.670100
  0
VERTEX
  8
FOREGROUND
  6
CONTINUOUS
 10
8.701630
 20
10.676467
  0
VERTEX
  8
FOREGROUND
  6
CONTINUOUS
 10
8.627609
 20
10.680337
  0
VERTEX
  8
FOREGROUND
  6
CONTINUOUS
 10
8.552939
 20
10.681667
  0
VERTEX
  8
FOREGROUND
  6
CONTINUOUS
 10
2.176273
 20
10.681667
  0
VERTEX
  8
FOREGROUND
  6
CONTINUOUS
 10
2.101623
 20
10.680310
  0
VERTEX
  8
FOREGROUND
  6
CONTINUOUS
 10
2.027622
 20
10.676415
  0
VERTEX
  8
FOREGROUND
  6
CONTINUOUS
 10
1.954313
 20
10.670023
  0
VERTEX
  8
FOREGROUND
  6
CONTINUOUS
 10
1.881735
 20
10.661178
  0
VERTEX
  8
FOREGROUND
  6
CONTINUOUS
 10
1.809933
 20
10.649920
  0
VERTEX
  8
FOREGROUND
  6
CONTINUOUS
 10
1.738948
 20
10.636291
  0
VERTEX
  8
FOREGROUND
  6
CONTINUOUS
 10
1.668821
 20
10.620335
  0
VERTEX
  8
FOREGROUND
  6
CONTINUOUS
 10
1.599595
 20
10.602092
  0
VERTEX
  8
FOREGROUND
  6
CONTINUOUS
 10
1.531311
 20
10.581604
  0
VERTEX
  8
FOREGROUND
  6
CONTINUOUS
 10
1.464013
 20
10.558915
  0
VERTEX
  8
FOREGROUND
  6
CONTINUOUS
 10
1.397741
 20
10.534065
  0
VERTEX
  8
FOREGROUND
  6
CONTINUOUS
 10
1.332538
 20
10.507096
  0
VERTEX
  8
FOREGROUND
  6
CONTINUOUS
 10
1.268445
 20
10.478052
  0
VERTEX
  8
FOREGROUND
  6
CONTINUOUS
 10
1.205506
 20
10.446973
  0
VERTEX
  8
FOREGROUND
  6
CONTINUOUS
 10
1.143761
 20
10.413901
  0
VERTEX
  8
FOREGROUND
  6
CONTINUOUS
 10
1.083252
 20
10.378880
  0
VERTEX
  8
FOREGROUND
  6
CONTINUOUS
 10
1.024023
 20
10.341950
  0
VERTEX
  8
FOREGROUND
  6
CONTINUOUS
 10
0.966114
 20
10.303153
  0
VERTEX
  8
FOREGROUND
  6
CONTINUOUS
 10
0.909567
 20
10.262533
  0
VERTEX
  8
FOREGROUND
  6
CONTINUOUS
 10
0.854426
 20
10.220130
  0
VERTEX
  8
FOREGROUND
  6
CONTINUOUS
 10
0.800731
 20
10.175987
  0
VERTEX
  8
FOREGROUND
  6
CONTINUOUS
 10
0.748524
 20
10.130145
  0
VERTEX
  8
FOREGROUND
  6
CONTINUOUS
 10
0.697849
 20
10.082647
  0
VERTEX
  8
FOREGROUND
  6
CONTINUOUS
 10
0.648745
 20
10.033535
  0
VERTEX
  8
FOREGROUND
  6
CONTINUOUS
 10
0.601257
 20
9.982850
  0
VERTEX
  8
FOREGROUND
  6
CONTINUOUS
 10
0.555425
 20
9.930636
  0
VERTEX
  8
FOREGROUND
  6
CONTINUOUS
 10
0.511292
 20
9.876932
  0
VERTEX
  8
FOREGROUND
  6
CONTINUOUS
 10
0.468899
 20
9.821783
  0
VERTEX
  8
FOREGROUND
  6
CONTINUOUS
 10
0.428289
 20
9.765229
  0
VERTEX
  8
FOREGROUND
  6
CONTINUOUS
 10
0.389503
 20
9.707313
  0
VERTEX
  8
FOREGROUND
  6
CONTINUOUS
 10
0.352584
 20
9.648076
  0
VERTEX
  8
FOREGROUND
  6
CONTINUOUS
 10
0.317574
 20
9.587561
  0
VERTEX
  8
FOREGROUND
  6
CONTINUOUS
 10
0.284514
 20
9.525810
  0
VERTEX
  8
FOREGROUND
  6
CONTINUOUS
 10
0.253447
 20
9.462865
  0
VERTEX
  8
FOREGROUND
  6
CONTINUOUS
 10
0.224414
 20
9.398767
  0
VERTEX
  8
FOREGROUND
  6
CONTINUOUS
 10
0.197458
 20
9.333559
  0
VERTEX
  8
FOREGROUND
  6
CONTINUOUS
 10
0.172620
 20
9.267282
  0
VERTEX
  8
FOREGROUND
  6
CONTINUOUS
 10
0.149943
 20
9.199980
  0
VERTEX
  8
FOREGROUND
  6
CONTINUOUS
 10
0.129468
 20
9.131693
  0
VERTEX
  8
FOREGROUND
  6
CONTINUOUS
 10
0.111238
 20
9.062463
  0
VERTEX
  8
FOREGROUND
  6
CONTINUOUS
 10
0.095294
 20
8.992333
  0
VERTEX
  8
FOREGROUND
  6
CONTINUOUS
 10
0.081679
 20
8.921345
  0
VERTEX
  8
FOREGROUND
  6
CONTINUOUS
 10
0.070434
 20
8.849541
  0
VERTEX
  8
FOREGROUND
  6
CONTINUOUS
 10
0.061602
 20
8.776962
  0
VERTEX
  8
FOREGROUND
  6
CONTINUOUS
 10
0.055224
 20
8.703651
  0
VERTEX
  8
FOREGROUND
  6
CONTINUOUS
 10
0.051343
 20
8.629650
  0
VERTEX
  8
FOREGROUND
  6
CONTINUOUS
 10
0.050000
 20
8.555000
  0
VERTEX
  8
FOREGROUND
  6
CONTINUOUS
 10
0.050000
 20
2.176667
  0
VERTEX
  8
FOREGROUND
  6
CONTINUOUS
 10
0.051343
 20
2.102007
  0
VERTEX
  8
FOREGROUND
  6
CONTINUOUS
 10
0.055226
 20
2.027996
  0
VERTEX
  8
FOREGROUND
  6
CONTINUOUS
 10
0.061605
 20
1.954676
  0
VERTEX
  8
FOREGROUND
  6
CONTINUOUS
 10
0.070439
 20
1.882089
  0
VERTEX
  8
FOREGROUND
  6
CONTINUOUS
 10
0.081687
 20
1.810276
  0
VERTEX
  8
FOREGROUND
  6
CONTINUOUS
 10
0.095305
 20
1.739279
  0
VERTEX
  8
FOREGROUND
  6
CONTINUOUS
 10
0.111253
 20
1.669141
  0
VERTEX
  8
FOREGROUND
  6
CONTINUOUS
 10
0.129488
 20
1.599904
  0
VERTEX
  8
FOREGROUND
  6
CONTINUOUS
 10
0.149967
 20
1.531610
  0
VERTEX
  8
FOREGROUND
  6
CONTINUOUS
 10
0.172650
 20
1.464300
  0
VERTEX
  8
FOREGROUND
  6
CONTINUOUS
 10
0.197493
 20
1.398017
  0
VERTEX
  8
FOREGROUND
  6
CONTINUOUS
 10
0.224456
 20
1.332803
  0
VERTEX
  8
FOREGROUND
  6
CONTINUOUS
 10
0.253495
 20
1.268699
  0
VERTEX
  8
FOREGROUND
  6
CONTINUOUS
 10
0.284569
 20
1.205748
  0
VERTEX
  8
FOREGROUND
  6
CONTINUOUS
 10
0.317637
 20
1.143992
  0
VERTEX
  8
FOREGROUND
  6
CONTINUOUS
 10
0.352655
 20
1.083472
  0
VERTEX
  8
FOREGROUND
  6
CONTINUOUS
 10
0.389582
 20
1.024231
  0
VERTEX
  8
FOREGROUND
  6
CONTINUOUS
 10
0.428376
 20
0.966311
  0
VERTEX
  8
FOREGROUND
  6
CONTINUOUS
 10
0.468995
 20
0.909754
  0
VERTEX
  8
FOREGROUND
  6
CONTINUOUS
 10
0.511397
 20
0.854602
  0
VERTEX
  8
FOREGROUND
  6
CONTINUOUS
 10
0.555540
 20
0.800896
  0
VERTEX
  8
FOREGROUND
  6
CONTINUOUS
 10
0.601381
 20
0.748679
  0
VERTEX
  8
FOREGROUND
  6
CONTINUOUS
 10
0.648880
 20
0.697993
  0
VERTEX
  8
FOREGROUND
  6
CONTINUOUS
 10
0.697993
 20
0.648880
  0
VERTEX
  8
FOREGROUND
  6
CONTINUOUS
 10
0.748679
 20
0.601381
  0
VERTEX
  8
FOREGROUND
  6
CONTINUOUS
 10
0.800896
 20
0.555540
  0
VERTEX
  8
FOREGROUND
  6
CONTINUOUS
 10
0.854602
 20
0.511397
  0
VERTEX
  8
FOREGROUND
  6
CONTINUOUS
 10
0.909754
 20
0.468995
  0
VERTEX
  8
FOREGROUND
  6
CONTINUOUS
 10
0.966311
 20
0.428376
  0
VERTEX
  8
FOREGROUND
  6
CONTINUOUS
 10
1.024231
 20
0.389582
  0
VERTEX
  8
FOREGROUND
  6
CONTINUOUS
 10
1.083472
 20
0.352655
  0
VERTEX
  8
FOREGROUND
  6
CONTINUOUS
 10
1.143992
 20
0.317637
  0
VERTEX
  8
FOREGROUND
  6
CONTINUOUS
 10
1.205748
 20
0.284569
  0
VERTEX
  8
FOREGROUND
  6
CONTINUOUS
 10
1.268699
 20
0.253495
  0
VERTEX
  8
FOREGROUND
  6
CONTINUOUS
 10
1.332803
 20
0.224456
  0
VERTEX
  8
FOREGROUND
  6
CONTINUOUS
 10
1.398017
 20
0.197493
  0
VERTEX
  8
FOREGROUND
  6
CONTINUOUS
 10
1.464300
 20
0.172650
  0
VERTEX
  8
FOREGROUND
  6
CONTINUOUS
 10
1.531610
 20
0.149967
  0
VERTEX
  8
FOREGROUND
  6
CONTINUOUS
 10
1.599904
 20
0.129488
  0
VERTEX
  8
FOREGROUND
  6
CONTINUOUS
 10
1.669141
 20
0.111253
  0
VERTEX
  8
FOREGROUND
  6
CONTINUOUS
 10
1.739279
 20
0.095305
  0
VERTEX
  8
FOREGROUND
  6
CONTINUOUS
 10
1.810276
 20
0.081687
  0
VERTEX
  8
FOREGROUND
  6
CONTINUOUS
 10
1.882089
 20
0.070439
  0
VERTEX
  8
FOREGROUND
  6
CONTINUOUS
 10
1.954676
 20
0.061605
  0
VERTEX
  8
FOREGROUND
  6
CONTINUOUS
 10
2.027996
 20
0.055226
  0
VERTEX
  8
FOREGROUND
  6
CONTINUOUS
 10
2.102007
 20
0.051343
  0
VERTEX
  8
FOREGROUND
  6
CONTINUOUS
 10
2.176667
 20
0.050000
  0
SEQEND
  8
0
  0
ENDSEC
  0
EOF
