  0
SECTION
  2
HEADER
  9
$ACADVER
  1
AC1006
  9
$EXTMIN
 10
0.000000
 20
0.000000
  9
$EXTMAX
 10
11.123333
 20
11.125000
  9
$LTSCALE
 40
0.166667
  9
$PDMODE
 70
    35
  9
$PDSIZE
 40
0.133333
  0
ENDSEC
  0
SECTION
  2
TABLES
  0
TABLE
  2
LTYPE
 70
     9
  0
LTYPE
  2
CONTINUOUS
 70
    64
  3
Solid line
 72
    65
 73
     0
 40
0.000000
  0
LTYPE
  2
DASHED
 70
    64
  3
__ __ __ __ __ __ __ __ __ __ __ __ __ __ __
 72
    65
 73
     2
 40
0.001250
 49
0.000833
 49
-0.000417
  0
LTYPE
  2
HIDDEN
 70
    64
  3
 _ _ _ _ _ _ _ _ _ _ _ _ _ _ _ _ _ _ _ _ _ _
 72
    65
 73
     2
 40
0.000625
 49
0.000417
 49
-0.000208
  0
LTYPE
  2
CENTER
 70
    64
  3
____ _ ____ _ ____ _ ____ _ ____ _ ____ _ ____
 72
    65
 73
     4
 40
0.003333
 49
0.002083
 49
-0.000417
 49
0.000417
 49
-0.000417
  0
LTYPE
  2
PHANTOM
 70
    64
  3
_____ _ _ _____ _ _ _____ _ _ _____ _ _ ____
 72
    65
 73
     6
 40
0.004167
 49
0.002083
 49
-0.000417
 49
0.000417
 49
-0.000417
 49
0.000417
 49
-0.000417
  0
LTYPE
  2
DOT
 70
    64
  3
...............................................
 72
    65
 73
     2
 40
0.000417
 49
0.000000
 49
-0.000417
  0
LTYPE
  2
DASHDOT
 70
    64
  3
__ . __ . __ . __ . __ . __ . __ . __ . __ . __
 72
    65
 73
     4
 40
0.001667
 49
0.000833
 49
-0.000417
 49
0.000000
 49
-0.000417
  0
LTYPE
  2
BORDER
 70
    64
  3
__ __ . __ __ . __ __ . __ __ . __ __ . __ __
 72
    65
 73
     6
 40
0.002917
 49
0.000833
 49
-0.000417
 49
0.000833
 49
-0.000417
 49
0.000000
 49
-0.000417
  0
LTYPE
  2
DIVIDE
 70
    64
  3
__ . . __ . . __ . . __ . . __ . . __ . . __
 72
    65
 73
     6
 40
0.002083
 49
0.000833
 49
-0.000417
 49
0.000000
 49
-0.000417
 49
0.000000
 49
-0.000417
  0
LTYPE
  2
DOTDOT
 70
    64
  3
 . .  . .  . .  . .  . .  . . 
 72
    65
 73
     5
 40
0.000917
 49
-0.000417
 49
0.000000
 49
-0.000417
 49
0.000000
 49
-0.000417
  0
ENDTAB
  0
TABLE
  2
STYLE
 70
     2
  0
STYLE
 70
     0
  2
SN0
 40
0.000000
 41
0.001667
 50
0.000000
 71
     0
 42
0.000000
  3
ROMAND
  0
STYLE
 70
    68
  2
SV0
 40
0.000000
 41
0.001667
 50
0.000000
 71
     0
 42
0.000000
  3
ROMAND
  0
ENDTAB
  0
TABLE
  2
LAYER
 70
     2
  0
LAYER
  2
FOREGROUND
 70
    64
 62
     7
  6
CONTINUOUS
  0
LAYER
  2
BACKGROUND
 70
    65
 62
    -7
  6
CONTINUOUS
  0
ENDTAB
  0
ENDSEC
  0
SECTION
  2
ENTITIES
  0
POLYLINE
  8
FOREGROUND
  6
CONTINUOUS
 66
     1
 40
0.010000
 41
0.010000
 70
     1
  0
VERTEX
  8
FOREGROUND
  6
CONTINUOUS
 10
8.868333
 20
0.050000
  0
VERTEX
  8
FOREGROUND
  6
CONTINUOUS
 10
8.945743
 20
0.051393
  0
VERTEX
  8
FOREGROUND
  6
CONTINUOUS
 10
9.022480
 20
0.055418
  0
VERTEX
  8
FOREGROUND
  6
CONTINUOUS
 10
9.098501
 20
0.062032
  0
VERTEX
  8
FOREGROUND
  6
CONTINUOUS
 10
9.173762
 20
0.071192
  0
VERTEX
  8
FOREGROUND
  6
CONTINUOUS
 10
9.248220
 20
0.082854
  0
VERTEX
  8
FOREGROUND
  6
CONTINUOUS
 10
9.321831
 20
0.096974
  0
VERTEX
  8
FOREGROUND
  6
CONTINUOUS
 10
9.394553
 20
0.113509
  0
VERTEX
  8
FOREGROUND
  6
CONTINUOUS
 10
9.466340
 20
0.132415
  0
VERTEX
  8
FOREGROUND
  6
CONTINUOUS
 10
9.537150
 20
0.153649
  0
VERTEX
  8
FOREGROUND
  6
CONTINUOUS
 10
9.606939
 20
0.177167
  0
VERTEX
  8
FOREGROUND
  6
CONTINUOUS
 10
9.675664
 20
0.202926
  0
VERTEX
  8
FOREGROUND
  6
CONTINUOUS
 10
9.743280
 20
0.230881
  0
VERTEX
  8
FOREGROUND
  6
CONTINUOUS
 10
9.809745
 20
0.260991
  0
VERTEX
  8
FOREGROUND
  6
CONTINUOUS
 10
9.875015
 20
0.293210
  0
VERTEX
  8
FOREGROUND
  6
CONTINUOUS
 10
9.939046
 20
0.327495
  0
VERTEX
  8
FOREGROUND
  6
CONTINUOUS
 10
10.001794
 20
0.363803
  0
VERTEX
  8
FOREGROUND
  6
CONTINUOUS
 10
10.063217
 20
0.402090
  0
VERTEX
  8
FOREGROUND
  6
CONTINUOUS
 10
10.123271
 20
0.442313
  0
VERTEX
  8
FOREGROUND
  6
CONTINUOUS
 10
10.181911
 20
0.484428
  0
VERTEX
  8
FOREGROUND
  6
CONTINUOUS
 10
10.239095
 20
0.528392
  0
VERTEX
  8
FOREGROUND
  6
CONTINUOUS
 10
10.294779
 20
0.574161
  0
VERTEX
  8
FOREGROUND
  6
CONTINUOUS
 10
10.348919
 20
0.621691
  0
VERTEX
  8
FOREGROUND
  6
CONTINUOUS
 10
10.401472
 20
0.670939
  0
VERTEX
  8
FOREGROUND
  6
CONTINUOUS
 10
10.452395
 20
0.721861
  0
VERTEX
  8
FOREGROUND
  6
CONTINUOUS
 10
10.501643
 20
0.774414
  0
VERTEX
  8
FOREGROUND
  6
CONTINUOUS
 10
10.549173
 20
0.828554
  0
VERTEX
  8
FOREGROUND
  6
CONTINUOUS
 10
10.594941
 20
0.884238
  0
VERTEX
  8
FOREGROUND
  6
CONTINUOUS
 10
10.638905
 20
0.941422
  0
VERTEX
  8
FOREGROUND
  6
CONTINUOUS
 10
10.681020
 20
1.000063
  0
VERTEX
  8
FOREGROUND
  6
CONTINUOUS
 10
10.721243
 20
1.060116
  0
VERTEX
  8
FOREGROUND
  6
CONTINUOUS
 10
10.759530
 20
1.121539
  0
VERTEX
  8
FOREGROUND
  6
CONTINUOUS
 10
10.795838
 20
1.184288
  0
VERTEX
  8
FOREGROUND
  6
CONTINUOUS
 10
10.830124
 20
1.248319
  0
VERTEX
  8
FOREGROUND
  6
CONTINUOUS
 10
10.862343
 20
1.313588
  0
VERTEX
  8
FOREGROUND
  6
CONTINUOUS
 10
10.892452
 20
1.380053
  0
VERTEX
  8
FOREGROUND
  6
CONTINUOUS
 10
10.920407
 20
1.447670
  0
VERTEX
  8
FOREGROUND
  6
CONTINUOUS
 10
10.946166
 20
1.516394
  0
VERTEX
  8
FOREGROUND
  6
CONTINUOUS
 10
10.969684
 20
1.586183
  0
VERTEX
  8
FOREGROUND
  6
CONTINUOUS
 10
10.990918
 20
1.656993
  0
VERTEX
  8
FOREGROUND
  6
CONTINUOUS
 10
11.009824
 20
1.728781
  0
VERTEX
  8
FOREGROUND
  6
CONTINUOUS
 10
11.026359
 20
1.801502
  0
VERTEX
  8
FOREGROUND
  6
CONTINUOUS
 10
11.040479
 20
1.875113
  0
VERTEX
  8
FOREGROUND
  6
CONTINUOUS
 10
11.052141
 20
1.949571
  0
VERTEX
  8
FOREGROUND
  6
CONTINUOUS
 10
11.061301
 20
2.024833
  0
VERTEX
  8
FOREGROUND
  6
CONTINUOUS
 10
11.067915
 20
2.100854
  0
VERTEX
  8
FOREGROUND
  6
CONTINUOUS
 10
11.071941
 20
2.177591
  0
VERTEX
  8
FOREGROUND
  6
CONTINUOUS
 10
11.073333
 20
2.255000
  0
VERTEX
  8
FOREGROUND
  6
CONTINUOUS
 10
11.073333
 20
8.870000
  0
VERTEX
  8
FOREGROUND
  6
CONTINUOUS
 10
11.071940
 20
8.947419
  0
VERTEX
  8
FOREGROUND
  6
CONTINUOUS
 10
11.067914
 20
9.024166
  0
VERTEX
  8
FOREGROUND
  6
CONTINUOUS
 10
11.061298
 20
9.100197
  0
VERTEX
  8
FOREGROUND
  6
CONTINUOUS
 10
11.052136
 20
9.175467
  0
VERTEX
  8
FOREGROUND
  6
CONTINUOUS
 10
11.040471
 20
9.249934
  0
VERTEX
  8
FOREGROUND
  6
CONTINUOUS
 10
11.026348
 20
9.323554
  0
VERTEX
  8
FOREGROUND
  6
CONTINUOUS
 10
11.009809
 20
9.396284
  0
VERTEX
  8
FOREGROUND
  6
CONTINUOUS
 10
10.990898
 20
9.468079
  0
VERTEX
  8
FOREGROUND
  6
CONTINUOUS
 10
10.969659
 20
9.538897
  0
VERTEX
  8
FOREGROUND
  6
CONTINUOUS
 10
10.946135
 20
9.608693
  0
VERTEX
  8
FOREGROUND
  6
CONTINUOUS
 10
10.920371
 20
9.677424
  0
VERTEX
  8
FOREGROUND
  6
CONTINUOUS
 10
10.892409
 20
9.745047
  0
VERTEX
  8
FOREGROUND
  6
CONTINUOUS
 10
10.862293
 20
9.811518
  0
VERTEX
  8
FOREGROUND
  6
CONTINUOUS
 10
10.830066
 20
9.876794
  0
VERTEX
  8
FOREGROUND
  6
CONTINUOUS
 10
10.795773
 20
9.940830
  0
VERTEX
  8
FOREGROUND
  6
CONTINUOUS
 10
10.759457
 20
10.003584
  0
VERTEX
  8
FOREGROUND
  6
CONTINUOUS
 10
10.721161
 20
10.065011
  0
VERTEX
  8
FOREGROUND
  6
CONTINUOUS
 10
10.680929
 20
10.125068
  0
VERTEX
  8
FOREGROUND
  6
CONTINUOUS
 10
10.638805
 20
10.183712
  0
VERTEX
  8
FOREGROUND
  6
CONTINUOUS
 10
10.594832
 20
10.240899
  0
VERTEX
  8
FOREGROUND
  6
CONTINUOUS
 10
10.549054
 20
10.296586
  0
VERTEX
  8
FOREGROUND
  6
CONTINUOUS
 10
10.501514
 20
10.350728
  0
VERTEX
  8
FOREGROUND
  6
CONTINUOUS
 10
10.452255
 20
10.403283
  0
VERTEX
  8
FOREGROUND
  6
CONTINUOUS
 10
10.401323
 20
10.454206
  0
VERTEX
  8
FOREGROUND
  6
CONTINUOUS
 10
10.348759
 20
10.503455
  0
VERTEX
  8
FOREGROUND
  6
CONTINUOUS
 10
10.294608
 20
10.550985
  0
VERTEX
  8
FOREGROUND
  6
CONTINUOUS
 10
10.238913
 20
10.596753
  0
VERTEX
  8
FOREGROUND
  6
CONTINUOUS
 10
10.181718
 20
10.640715
  0
VERTEX
  8
FOREGROUND
  6
CONTINUOUS
 10
10.123066
 20
10.682829
  0
VERTEX
  8
FOREGROUND
  6
CONTINUOUS
 10
10.063001
 20
10.723049
  0
VERTEX
  8
FOREGROUND
  6
CONTINUOUS
 10
10.001567
 20
10.761334
  0
VERTEX
  8
FOREGROUND
  6
CONTINUOUS
 10
9.938806
 20
10.797638
  0
VERTEX
  8
FOREGROUND
  6
CONTINUOUS
 10
9.874764
 20
10.831920
  0
VERTEX
  8
FOREGROUND
  6
CONTINUOUS
 10
9.809482
 20
10.864134
  0
VERTEX
  8
FOREGROUND
  6
CONTINUOUS
 10
9.743006
 20
10.894238
  0
VERTEX
  8
FOREGROUND
  6
CONTINUOUS
 10
9.675378
 20
10.922187
  0
VERTEX
  8
FOREGROUND
  6
CONTINUOUS
 10
9.606641
 20
10.947939
  0
VERTEX
  8
FOREGROUND
  6
CONTINUOUS
 10
9.536841
 20
10.971450
  0
VERTEX
  8
FOREGROUND
  6
CONTINUOUS
 10
9.466019
 20
10.992675
  0
VERTEX
  8
FOREGROUND
  6
CONTINUOUS
 10
9.394220
 20
11.011573
  0
VERTEX
  8
FOREGROUND
  6
CONTINUOUS
 10
9.321488
 20
11.028098
  0
VERTEX
  8
FOREGROUND
  6
CONTINUOUS
 10
9.247865
 20
11.042208
  0
VERTEX
  8
FOREGROUND
  6
CONTINUOUS
 10
9.173396
 20
11.053859
  0
VERTEX
  8
FOREGROUND
  6
CONTINUOUS
 10
9.098124
 20
11.063007
  0
VERTEX
  8
FOREGROUND
  6
CONTINUOUS
 10
9.022092
 20
11.069609
  0
VERTEX
  8
FOREGROUND
  6
CONTINUOUS
 10
8.945344
 20
11.073621
  0
VERTEX
  8
FOREGROUND
  6
CONTINUOUS
 10
8.867925
 20
11.075000
  0
VERTEX
  8
FOREGROUND
  6
CONTINUOUS
 10
2.254591
 20
11.075000
  0
VERTEX
  8
FOREGROUND
  6
CONTINUOUS
 10
2.177192
 20
11.073593
  0
VERTEX
  8
FOREGROUND
  6
CONTINUOUS
 10
2.100466
 20
11.069555
  0
VERTEX
  8
FOREGROUND
  6
CONTINUOUS
 10
2.024456
 20
11.062928
  0
VERTEX
  8
FOREGROUND
  6
CONTINUOUS
 10
1.949205
 20
11.053756
  0
VERTEX
  8
FOREGROUND
  6
CONTINUOUS
 10
1.874758
 20
11.042084
  0
VERTEX
  8
FOREGROUND
  6
CONTINUOUS
 10
1.801158
 20
11.027953
  0
VERTEX
  8
FOREGROUND
  6
CONTINUOUS
 10
1.728448
 20
11.011409
  0
VERTEX
  8
FOREGROUND
  6
CONTINUOUS
 10
1.656672
 20
10.992494
  0
VERTEX
  8
FOREGROUND
  6
CONTINUOUS
 10
1.585874
 20
10.971252
  0
VERTEX
  8
FOREGROUND
  6
CONTINUOUS
 10
1.516096
 20
10.947726
  0
VERTEX
  8
FOREGROUND
  6
CONTINUOUS
 10
1.447384
 20
10.921961
  0
VERTEX
  8
FOREGROUND
  6
CONTINUOUS
 10
1.379779
 20
10.893999
  0
VERTEX
  8
FOREGROUND
  6
CONTINUOUS
 10
1.313326
 20
10.863885
  0
VERTEX
  8
FOREGROUND
  6
CONTINUOUS
 10
1.248067
 20
10.831661
  0
VERTEX
  8
FOREGROUND
  6
CONTINUOUS
 10
1.184048
 20
10.797372
  0
VERTEX
  8
FOREGROUND
  6
CONTINUOUS
 10
1.121311
 20
10.761060
  0
VERTEX
  8
FOREGROUND
  6
CONTINUOUS
 10
1.059900
 20
10.722770
  0
VERTEX
  8
FOREGROUND
  6
CONTINUOUS
 10
0.999858
 20
10.682545
  0
VERTEX
  8
FOREGROUND
  6
CONTINUOUS
 10
0.941229
 20
10.640428
  0
VERTEX
  8
FOREGROUND
  6
CONTINUOUS
 10
0.884056
 20
10.596463
  0
VERTEX
  8
FOREGROUND
  6
CONTINUOUS
 10
0.828383
 20
10.550694
  0
VERTEX
  8
FOREGROUND
  6
CONTINUOUS
 10
0.774254
 20
10.503164
  0
VERTEX
  8
FOREGROUND
  6
CONTINUOUS
 10
0.721711
 20
10.453916
  0
VERTEX
  8
FOREGROUND
  6
CONTINUOUS
 10
0.670800
 20
10.402995
  0
VERTEX
  8
FOREGROUND
  6
CONTINUOUS
 10
0.621562
 20
10.350444
  0
VERTEX
  8
FOREGROUND
  6
CONTINUOUS
 10
0.574042
 20
10.296306
  0
VERTEX
  8
FOREGROUND
  6
CONTINUOUS
 10
0.528283
 20
10.240624
  0
VERTEX
  8
FOREGROUND
  6
CONTINUOUS
 10
0.484329
 20
10.183443
  0
VERTEX
  8
FOREGROUND
  6
CONTINUOUS
 10
0.442223
 20
10.124806
  0
VERTEX
  8
FOREGROUND
  6
CONTINUOUS
 10
0.402009
 20
10.064757
  0
VERTEX
  8
FOREGROUND
  6
CONTINUOUS
 10
0.363730
 20
10.003338
  0
VERTEX
  8
FOREGROUND
  6
CONTINUOUS
 10
0.327430
 20
9.940595
  0
VERTEX
  8
FOREGROUND
  6
CONTINUOUS
 10
0.293152
 20
9.876569
  0
VERTEX
  8
FOREGROUND
  6
CONTINUOUS
 10
0.260941
 20
9.811305
  0
VERTEX
  8
FOREGROUND
  6
CONTINUOUS
 10
0.230838
 20
9.744846
  0
VERTEX
  8
FOREGROUND
  6
CONTINUOUS
 10
0.202889
 20
9.677236
  0
VERTEX
  8
FOREGROUND
  6
CONTINUOUS
 10
0.177137
 20
9.608519
  0
VERTEX
  8
FOREGROUND
  6
CONTINUOUS
 10
0.153624
 20
9.538737
  0
VERTEX
  8
FOREGROUND
  6
CONTINUOUS
 10
0.132395
 20
9.467934
  0
VERTEX
  8
FOREGROUND
  6
CONTINUOUS
 10
0.113494
 20
9.396155
  0
VERTEX
  8
FOREGROUND
  6
CONTINUOUS
 10
0.096963
 20
9.323442
  0
VERTEX
  8
FOREGROUND
  6
CONTINUOUS
 10
0.082846
 20
9.249839
  0
VERTEX
  8
FOREGROUND
  6
CONTINUOUS
 10
0.071187
 20
9.175390
  0
VERTEX
  8
FOREGROUND
  6
CONTINUOUS
 10
0.062029
 20
9.100138
  0
VERTEX
  8
FOREGROUND
  6
CONTINUOUS
 10
0.055417
 20
9.024126
  0
VERTEX
  8
FOREGROUND
  6
CONTINUOUS
 10
0.051392
 20
8.947399
  0
VERTEX
  8
FOREGROUND
  6
CONTINUOUS
 10
0.050000
 20
8.870000
  0
VERTEX
  8
FOREGROUND
  6
CONTINUOUS
 10
0.050000
 20
2.255000
  0
VERTEX
  8
FOREGROUND
  6
CONTINUOUS
 10
0.051393
 20
2.177591
  0
VERTEX
  8
FOREGROUND
  6
CONTINUOUS
 10
0.055418
 20
2.100854
  0
VERTEX
  8
FOREGROUND
  6
CONTINUOUS
 10
0.062032
 20
2.024833
  0
VERTEX
  8
FOREGROUND
  6
CONTINUOUS
 10
0.071192
 20
1.949571
  0
VERTEX
  8
FOREGROUND
  6
CONTINUOUS
 10
0.082854
 20
1.875113
  0
VERTEX
  8
FOREGROUND
  6
CONTINUOUS
 10
0.096974
 20
1.801502
  0
VERTEX
  8
FOREGROUND
  6
CONTINUOUS
 10
0.113509
 20
1.728781
  0
VERTEX
  8
FOREGROUND
  6
CONTINUOUS
 10
0.132415
 20
1.656993
  0
VERTEX
  8
FOREGROUND
  6
CONTINUOUS
 10
0.153649
 20
1.586183
  0
VERTEX
  8
FOREGROUND
  6
CONTINUOUS
 10
0.177167
 20
1.516394
  0
VERTEX
  8
FOREGROUND
  6
CONTINUOUS
 10
0.202926
 20
1.447670
  0
VERTEX
  8
FOREGROUND
  6
CONTINUOUS
 10
0.230881
 20
1.380053
  0
VERTEX
  8
FOREGROUND
  6
CONTINUOUS
 10
0.260991
 20
1.313588
  0
VERTEX
  8
FOREGROUND
  6
CONTINUOUS
 10
0.293210
 20
1.248319
  0
VERTEX
  8
FOREGROUND
  6
CONTINUOUS
 10
0.327495
 20
1.184288
  0
VERTEX
  8
FOREGROUND
  6
CONTINUOUS
 10
0.363803
 20
1.121539
  0
VERTEX
  8
FOREGROUND
  6
CONTINUOUS
 10
0.402090
 20
1.060116
  0
VERTEX
  8
FOREGROUND
  6
CONTINUOUS
 10
0.442313
 20
1.000063
  0
VERTEX
  8
FOREGROUND
  6
CONTINUOUS
 10
0.484428
 20
0.941422
  0
VERTEX
  8
FOREGROUND
  6
CONTINUOUS
 10
0.528392
 20
0.884238
  0
VERTEX
  8
FOREGROUND
  6
CONTINUOUS
 10
0.574161
 20
0.828554
  0
VERTEX
  8
FOREGROUND
  6
CONTINUOUS
 10
0.621691
 20
0.774414
  0
VERTEX
  8
FOREGROUND
  6
CONTINUOUS
 10
0.670939
 20
0.721861
  0
VERTEX
  8
FOREGROUND
  6
CONTINUOUS
 10
0.721861
 20
0.670939
  0
VERTEX
  8
FOREGROUND
  6
CONTINUOUS
 10
0.774414
 20
0.621691
  0
VERTEX
  8
FOREGROUND
  6
CONTINUOUS
 10
0.828554
 20
0.574161
  0
VERTEX
  8
FOREGROUND
  6
CONTINUOUS
 10
0.884238
 20
0.528392
  0
VERTEX
  8
FOREGROUND
  6
CONTINUOUS
 10
0.941422
 20
0.484428
  0
VERTEX
  8
FOREGROUND
  6
CONTINUOUS
 10
1.000063
 20
0.442313
  0
VERTEX
  8
FOREGROUND
  6
CONTINUOUS
 10
1.060116
 20
0.402090
  0
VERTEX
  8
FOREGROUND
  6
CONTINUOUS
 10
1.121539
 20
0.363803
  0
VERTEX
  8
FOREGROUND
  6
CONTINUOUS
 10
1.184288
 20
0.327495
  0
VERTEX
  8
FOREGROUND
  6
CONTINUOUS
 10
1.248319
 20
0.293210
  0
VERTEX
  8
FOREGROUND
  6
CONTINUOUS
 10
1.313588
 20
0.260991
  0
VERTEX
  8
FOREGROUND
  6
CONTINUOUS
 10
1.380053
 20
0.230881
  0
VERTEX
  8
FOREGROUND
  6
CONTINUOUS
 10
1.447670
 20
0.202926
  0
VERTEX
  8
FOREGROUND
  6
CONTINUOUS
 10
1.516394
 20
0.177167
  0
VERTEX
  8
FOREGROUND
  6
CONTINUOUS
 10
1.586183
 20
0.153649
  0
VERTEX
  8
FOREGROUND
  6
CONTINUOUS
 10
1.656993
 20
0.132415
  0
VERTEX
  8
FOREGROUND
  6
CONTINUOUS
 10
1.728781
 20
0.113509
  0
VERTEX
  8
FOREGROUND
  6
CONTINUOUS
 10
1.801502
 20
0.096974
  0
VERTEX
  8
FOREGROUND
  6
CONTINUOUS
 10
1.875113
 20
0.082854
  0
VERTEX
  8
FOREGROUND
  6
CONTINUOUS
 10
1.949571
 20
0.071192
  0
VERTEX
  8
FOREGROUND
  6
CONTINUOUS
 10
2.024833
 20
0.062032
  0
VERTEX
  8
FOREGROUND
  6
CONTINUOUS
 10
2.100854
 20
0.055418
  0
VERTEX
  8
FOREGROUND
  6
CONTINUOUS
 10
2.177591
 20
0.051393
  0
VERTEX
  8
FOREGROUND
  6
CONTINUOUS
 10
2.255000
 20
0.050000
  0
SEQEND
  8
0
  0
ENDSEC
  0
EOF
