  0
SECTION
  2
HEADER
  9
$ACADVER
  1
AC1006
  9
$EXTMIN
 10
0.000000
 20
0.000000
  9
$EXTMAX
 10
11.516667
 20
11.520000
  9
$LTSCALE
 40
0.166667
  9
$PDMODE
 70
    35
  9
$PDSIZE
 40
0.133333
  0
ENDSEC
  0
SECTION
  2
TABLES
  0
TABLE
  2
LTYPE
 70
     9
  0
LTYPE
  2
CONTINUOUS
 70
    64
  3
Solid line
 72
    65
 73
     0
 40
0.000000
  0
LTYPE
  2
DASHED
 70
    64
  3
__ __ __ __ __ __ __ __ __ __ __ __ __ __ __
 72
    65
 73
     2
 40
0.001250
 49
0.000833
 49
-0.000417
  0
LTYPE
  2
HIDDEN
 70
    64
  3
 _ _ _ _ _ _ _ _ _ _ _ _ _ _ _ _ _ _ _ _ _ _
 72
    65
 73
     2
 40
0.000625
 49
0.000417
 49
-0.000208
  0
LTYPE
  2
CENTER
 70
    64
  3
____ _ ____ _ ____ _ ____ _ ____ _ ____ _ ____
 72
    65
 73
     4
 40
0.003333
 49
0.002083
 49
-0.000417
 49
0.000417
 49
-0.000417
  0
LTYPE
  2
PHANTOM
 70
    64
  3
_____ _ _ _____ _ _ _____ _ _ _____ _ _ ____
 72
    65
 73
     6
 40
0.004167
 49
0.002083
 49
-0.000417
 49
0.000417
 49
-0.000417
 49
0.000417
 49
-0.000417
  0
LTYPE
  2
DOT
 70
    64
  3
...............................................
 72
    65
 73
     2
 40
0.000417
 49
0.000000
 49
-0.000417
  0
LTYPE
  2
DASHDOT
 70
    64
  3
__ . __ . __ . __ . __ . __ . __ . __ . __ . __
 72
    65
 73
     4
 40
0.001667
 49
0.000833
 49
-0.000417
 49
0.000000
 49
-0.000417
  0
LTYPE
  2
BORDER
 70
    64
  3
__ __ . __ __ . __ __ . __ __ . __ __ . __ __
 72
    65
 73
     6
 40
0.002917
 49
0.000833
 49
-0.000417
 49
0.000833
 49
-0.000417
 49
0.000000
 49
-0.000417
  0
LTYPE
  2
DIVIDE
 70
    64
  3
__ . . __ . . __ . . __ . . __ . . __ . . __
 72
    65
 73
     6
 40
0.002083
 49
0.000833
 49
-0.000417
 49
0.000000
 49
-0.000417
 49
0.000000
 49
-0.000417
  0
LTYPE
  2
DOTDOT
 70
    64
  3
 . .  . .  . .  . .  . .  . . 
 72
    65
 73
     5
 40
0.000917
 49
-0.000417
 49
0.000000
 49
-0.000417
 49
0.000000
 49
-0.000417
  0
ENDTAB
  0
TABLE
  2
STYLE
 70
     2
  0
STYLE
 70
     0
  2
SN0
 40
0.000000
 41
0.001667
 50
0.000000
 71
     0
 42
0.000000
  3
ROMAND
  0
STYLE
 70
    68
  2
SV0
 40
0.000000
 41
0.001667
 50
0.000000
 71
     0
 42
0.000000
  3
ROMAND
  0
ENDTAB
  0
TABLE
  2
LAYER
 70
     2
  0
LAYER
  2
FOREGROUND
 70
    64
 62
     7
  6
CONTINUOUS
  0
LAYER
  2
BACKGROUND
 70
    65
 62
    -7
  6
CONTINUOUS
  0
ENDTAB
  0
ENDSEC
  0
SECTION
  2
ENTITIES
  0
POLYLINE
  8
FOREGROUND
  6
CONTINUOUS
 66
     1
 40
0.010000
 41
0.010000
 70
     1
  0
VERTEX
  8
FOREGROUND
  6
CONTINUOUS
 10
9.183333
 20
0.050000
  0
VERTEX
  8
FOREGROUND
  6
CONTINUOUS
 10
9.263493
 20
0.051442
  0
VERTEX
  8
FOREGROUND
  6
CONTINUOUS
 10
9.342956
 20
0.055611
  0
VERTEX
  8
FOREGROUND
  6
CONTINUOUS
 10
9.421677
 20
0.062460
  0
VERTEX
  8
FOREGROUND
  6
CONTINUOUS
 10
9.499612
 20
0.071945
  0
VERTEX
  8
FOREGROUND
  6
CONTINUOUS
 10
9.576716
 20
0.084021
  0
VERTEX
  8
FOREGROUND
  6
CONTINUOUS
 10
9.652942
 20
0.098643
  0
VERTEX
  8
FOREGROUND
  6
CONTINUOUS
 10
9.728247
 20
0.115765
  0
VERTEX
  8
FOREGROUND
  6
CONTINUOUS
 10
9.802584
 20
0.135343
  0
VERTEX
  8
FOREGROUND
  6
CONTINUOUS
 10
9.875910
 20
0.157331
  0
VERTEX
  8
FOREGROUND
  6
CONTINUOUS
 10
9.948178
 20
0.181685
  0
VERTEX
  8
FOREGROUND
  6
CONTINUOUS
 10
10.019344
 20
0.208359
  0
VERTEX
  8
FOREGROUND
  6
CONTINUOUS
 10
10.089363
 20
0.237307
  0
VERTEX
  8
FOREGROUND
  6
CONTINUOUS
 10
10.158189
 20
0.268486
  0
VERTEX
  8
FOREGROUND
  6
CONTINUOUS
 10
10.225777
 20
0.301850
  0
VERTEX
  8
FOREGROUND
  6
CONTINUOUS
 10
10.292083
 20
0.337353
  0
VERTEX
  8
FOREGROUND
  6
CONTINUOUS
 10
10.357061
 20
0.374951
  0
VERTEX
  8
FOREGROUND
  6
CONTINUOUS
 10
10.420666
 20
0.414598
  0
VERTEX
  8
FOREGROUND
  6
CONTINUOUS
 10
10.482853
 20
0.456250
  0
VERTEX
  8
FOREGROUND
  6
CONTINUOUS
 10
10.543576
 20
0.499862
  0
VERTEX
  8
FOREGROUND
  6
CONTINUOUS
 10
10.602792
 20
0.545387
  0
VERTEX
  8
FOREGROUND
  6
CONTINUOUS
 10
10.660454
 20
0.592782
  0
VERTEX
  8
FOREGROUND
  6
CONTINUOUS
 10
10.716518
 20
0.642000
  0
VERTEX
  8
FOREGROUND
  6
CONTINUOUS
 10
10.770938
 20
0.692998
  0
VERTEX
  8
FOREGROUND
  6
CONTINUOUS
 10
10.823669
 20
0.745729
  0
VERTEX
  8
FOREGROUND
  6
CONTINUOUS
 10
10.874666
 20
0.800149
  0
VERTEX
  8
FOREGROUND
  6
CONTINUOUS
 10
10.923885
 20
0.856213
  0
VERTEX
  8
FOREGROUND
  6
CONTINUOUS
 10
10.971280
 20
0.913875
  0
VERTEX
  8
FOREGROUND
  6
CONTINUOUS
 10
11.016805
 20
0.973090
  0
VERTEX
  8
FOREGROUND
  6
CONTINUOUS
 10
11.060416
 20
1.033814
  0
VERTEX
  8
FOREGROUND
  6
CONTINUOUS
 10
11.102068
 20
1.096001
  0
VERTEX
  8
FOREGROUND
  6
CONTINUOUS
 10
11.141716
 20
1.159606
  0
VERTEX
  8
FOREGROUND
  6
CONTINUOUS
 10
11.179314
 20
1.224584
  0
VERTEX
  8
FOREGROUND
  6
CONTINUOUS
 10
11.214817
 20
1.290889
  0
VERTEX
  8
FOREGROUND
  6
CONTINUOUS
 10
11.248181
 20
1.358478
  0
VERTEX
  8
FOREGROUND
  6
CONTINUOUS
 10
11.279359
 20
1.427304
  0
VERTEX
  8
FOREGROUND
  6
CONTINUOUS
 10
11.308308
 20
1.497322
  0
VERTEX
  8
FOREGROUND
  6
CONTINUOUS
 10
11.334982
 20
1.568488
  0
VERTEX
  8
FOREGROUND
  6
CONTINUOUS
 10
11.359335
 20
1.640757
  0
VERTEX
  8
FOREGROUND
  6
CONTINUOUS
 10
11.381324
 20
1.714082
  0
VERTEX
  8
FOREGROUND
  6
CONTINUOUS
 10
11.400901
 20
1.788420
  0
VERTEX
  8
FOREGROUND
  6
CONTINUOUS
 10
11.418024
 20
1.863725
  0
VERTEX
  8
FOREGROUND
  6
CONTINUOUS
 10
11.432645
 20
1.939951
  0
VERTEX
  8
FOREGROUND
  6
CONTINUOUS
 10
11.444722
 20
2.017054
  0
VERTEX
  8
FOREGROUND
  6
CONTINUOUS
 10
11.454207
 20
2.094989
  0
VERTEX
  8
FOREGROUND
  6
CONTINUOUS
 10
11.461056
 20
2.173711
  0
VERTEX
  8
FOREGROUND
  6
CONTINUOUS
 10
11.465224
 20
2.253174
  0
VERTEX
  8
FOREGROUND
  6
CONTINUOUS
 10
11.466667
 20
2.333333
  0
VERTEX
  8
FOREGROUND
  6
CONTINUOUS
 10
11.466667
 20
9.186667
  0
VERTEX
  8
FOREGROUND
  6
CONTINUOUS
 10
11.465224
 20
9.266836
  0
VERTEX
  8
FOREGROUND
  6
CONTINUOUS
 10
11.461055
 20
9.346310
  0
VERTEX
  8
FOREGROUND
  6
CONTINUOUS
 10
11.454204
 20
9.425041
  0
VERTEX
  8
FOREGROUND
  6
CONTINUOUS
 10
11.444716
 20
9.502986
  0
VERTEX
  8
FOREGROUND
  6
CONTINUOUS
 10
11.432637
 20
9.580098
  0
VERTEX
  8
FOREGROUND
  6
CONTINUOUS
 10
11.418012
 20
9.656334
  0
VERTEX
  8
FOREGROUND
  6
CONTINUOUS
 10
11.400885
 20
9.731647
  0
VERTEX
  8
FOREGROUND
  6
CONTINUOUS
 10
11.381303
 20
9.805993
  0
VERTEX
  8
FOREGROUND
  6
CONTINUOUS
 10
11.359309
 20
9.879326
  0
VERTEX
  8
FOREGROUND
  6
CONTINUOUS
 10
11.334950
 20
9.951602
  0
VERTEX
  8
FOREGROUND
  6
CONTINUOUS
 10
11.308270
 20
10.022775
  0
VERTEX
  8
FOREGROUND
  6
CONTINUOUS
 10
11.279315
 20
10.092800
  0
VERTEX
  8
FOREGROUND
  6
CONTINUOUS
 10
11.248129
 20
10.161633
  0
VERTEX
  8
FOREGROUND
  6
CONTINUOUS
 10
11.214758
 20
10.229227
  0
VERTEX
  8
FOREGROUND
  6
CONTINUOUS
 10
11.179246
 20
10.295538
  0
VERTEX
  8
FOREGROUND
  6
CONTINUOUS
 10
11.141640
 20
10.360521
  0
VERTEX
  8
FOREGROUND
  6
CONTINUOUS
 10
11.101984
 20
10.424131
  0
VERTEX
  8
FOREGROUND
  6
CONTINUOUS
 10
11.060322
 20
10.486322
  0
VERTEX
  8
FOREGROUND
  6
CONTINUOUS
 10
11.016702
 20
10.547049
  0
VERTEX
  8
FOREGROUND
  6
CONTINUOUS
 10
10.971166
 20
10.606268
  0
VERTEX
  8
FOREGROUND
  6
CONTINUOUS
 10
10.923762
 20
10.663932
  0
VERTEX
  8
FOREGROUND
  6
CONTINUOUS
 10
10.874533
 20
10.719998
  0
VERTEX
  8
FOREGROUND
  6
CONTINUOUS
 10
10.823525
 20
10.774420
  0
VERTEX
  8
FOREGROUND
  6
CONTINUOUS
 10
10.770782
 20
10.827152
  0
VERTEX
  8
FOREGROUND
  6
CONTINUOUS
 10
10.716351
 20
10.878150
  0
VERTEX
  8
FOREGROUND
  6
CONTINUOUS
 10
10.660277
 20
10.927369
  0
VERTEX
  8
FOREGROUND
  6
CONTINUOUS
 10
10.602603
 20
10.974763
  0
VERTEX
  8
FOREGROUND
  6
CONTINUOUS
 10
10.543376
 20
11.020287
  0
VERTEX
  8
FOREGROUND
  6
CONTINUOUS
 10
10.482641
 20
11.063897
  0
VERTEX
  8
FOREGROUND
  6
CONTINUOUS
 10
10.420442
 20
11.105546
  0
VERTEX
  8
FOREGROUND
  6
CONTINUOUS
 10
10.356825
 20
11.145191
  0
VERTEX
  8
FOREGROUND
  6
CONTINUOUS
 10
10.291835
 20
11.182785
  0
VERTEX
  8
FOREGROUND
  6
CONTINUOUS
 10
10.225517
 20
11.218284
  0
VERTEX
  8
FOREGROUND
  6
CONTINUOUS
 10
10.157917
 20
11.251643
  0
VERTEX
  8
FOREGROUND
  6
CONTINUOUS
 10
10.089079
 20
11.282816
  0
VERTEX
  8
FOREGROUND
  6
CONTINUOUS
 10
10.019048
 20
11.311758
  0
VERTEX
  8
FOREGROUND
  6
CONTINUOUS
 10
9.947870
 20
11.338425
  0
VERTEX
  8
FOREGROUND
  6
CONTINUOUS
 10
9.875590
 20
11.362771
  0
VERTEX
  8
FOREGROUND
  6
CONTINUOUS
 10
9.802252
 20
11.384751
  0
VERTEX
  8
FOREGROUND
  6
CONTINUOUS
 10
9.727903
 20
11.404320
  0
VERTEX
  8
FOREGROUND
  6
CONTINUOUS
 10
9.652586
 20
11.421432
  0
VERTEX
  8
FOREGROUND
  6
CONTINUOUS
 10
9.576348
 20
11.436043
  0
VERTEX
  8
FOREGROUND
  6
CONTINUOUS
 10
9.499233
 20
11.448108
  0
VERTEX
  8
FOREGROUND
  6
CONTINUOUS
 10
9.421287
 20
11.457581
  0
VERTEX
  8
FOREGROUND
  6
CONTINUOUS
 10
9.342554
 20
11.464418
  0
VERTEX
  8
FOREGROUND
  6
CONTINUOUS
 10
9.263080
 20
11.468572
  0
VERTEX
  8
FOREGROUND
  6
CONTINUOUS
 10
9.182910
 20
11.470000
  0
VERTEX
  8
FOREGROUND
  6
CONTINUOUS
 10
2.332910
 20
11.470000
  0
VERTEX
  8
FOREGROUND
  6
CONTINUOUS
 10
2.252762
 20
11.468543
  0
VERTEX
  8
FOREGROUND
  6
CONTINUOUS
 10
2.173309
 20
11.464361
  0
VERTEX
  8
FOREGROUND
  6
CONTINUOUS
 10
2.094599
 20
11.457499
  0
VERTEX
  8
FOREGROUND
  6
CONTINUOUS
 10
2.016675
 20
11.448002
  0
VERTEX
  8
FOREGROUND
  6
CONTINUOUS
 10
1.939583
 20
11.435914
  0
VERTEX
  8
FOREGROUND
  6
CONTINUOUS
 10
1.863369
 20
11.421282
  0
VERTEX
  8
FOREGROUND
  6
CONTINUOUS
 10
1.788076
 20
11.404150
  0
VERTEX
  8
FOREGROUND
  6
CONTINUOUS
 10
1.713750
 20
11.384563
  0
VERTEX
  8
FOREGROUND
  6
CONTINUOUS
 10
1.640436
 20
11.362566
  0
VERTEX
  8
FOREGROUND
  6
CONTINUOUS
 10
1.568180
 20
11.338205
  0
VERTEX
  8
FOREGROUND
  6
CONTINUOUS
 10
1.497026
 20
11.311524
  0
VERTEX
  8
FOREGROUND
  6
CONTINUOUS
 10
1.427020
 20
11.282569
  0
VERTEX
  8
FOREGROUND
  6
CONTINUOUS
 10
1.358206
 20
11.251385
  0
VERTEX
  8
FOREGROUND
  6
CONTINUOUS
 10
1.290629
 20
11.218017
  0
VERTEX
  8
FOREGROUND
  6
CONTINUOUS
 10
1.224336
 20
11.182509
  0
VERTEX
  8
FOREGROUND
  6
CONTINUOUS
 10
1.159370
 20
11.144907
  0
VERTEX
  8
FOREGROUND
  6
CONTINUOUS
 10
1.095777
 20
11.105257
  0
VERTEX
  8
FOREGROUND
  6
CONTINUOUS
 10
1.033602
 20
11.063603
  0
VERTEX
  8
FOREGROUND
  6
CONTINUOUS
 10
0.972890
 20
11.019990
  0
VERTEX
  8
FOREGROUND
  6
CONTINUOUS
 10
0.913686
 20
10.974463
  0
VERTEX
  8
FOREGROUND
  6
CONTINUOUS
 10
0.856035
 20
10.927068
  0
VERTEX
  8
FOREGROUND
  6
CONTINUOUS
 10
0.799983
 20
10.877849
  0
VERTEX
  8
FOREGROUND
  6
CONTINUOUS
 10
0.745574
 20
10.826852
  0
VERTEX
  8
FOREGROUND
  6
CONTINUOUS
 10
0.692854
 20
10.774122
  0
VERTEX
  8
FOREGROUND
  6
CONTINUOUS
 10
0.641867
 20
10.719704
  0
VERTEX
  8
FOREGROUND
  6
CONTINUOUS
 10
0.592659
 20
10.663642
  0
VERTEX
  8
FOREGROUND
  6
CONTINUOUS
 10
0.545274
 20
10.605983
  0
VERTEX
  8
FOREGROUND
  6
CONTINUOUS
 10
0.499758
 20
10.546770
  0
VERTEX
  8
FOREGROUND
  6
CONTINUOUS
 10
0.456157
 20
10.486050
  0
VERTEX
  8
FOREGROUND
  6
CONTINUOUS
 10
0.414514
 20
10.423868
  0
VERTEX
  8
FOREGROUND
  6
CONTINUOUS
 10
0.374875
 20
10.360267
  0
VERTEX
  8
FOREGROUND
  6
CONTINUOUS
 10
0.337286
 20
10.295295
  0
VERTEX
  8
FOREGROUND
  6
CONTINUOUS
 10
0.301790
 20
10.228994
  0
VERTEX
  8
FOREGROUND
  6
CONTINUOUS
 10
0.268434
 20
10.161412
  0
VERTEX
  8
FOREGROUND
  6
CONTINUOUS
 10
0.237263
 20
10.092592
  0
VERTEX
  8
FOREGROUND
  6
CONTINUOUS
 10
0.208321
 20
10.022580
  0
VERTEX
  8
FOREGROUND
  6
CONTINUOUS
 10
0.181653
 20
9.951421
  0
VERTEX
  8
FOREGROUND
  6
CONTINUOUS
 10
0.157305
 20
9.879160
  0
VERTEX
  8
FOREGROUND
  6
CONTINUOUS
 10
0.135322
 20
9.805843
  0
VERTEX
  8
FOREGROUND
  6
CONTINUOUS
 10
0.115749
 20
9.731513
  0
VERTEX
  8
FOREGROUND
  6
CONTINUOUS
 10
0.098631
 20
9.656217
  0
VERTEX
  8
FOREGROUND
  6
CONTINUOUS
 10
0.084013
 20
9.580000
  0
VERTEX
  8
FOREGROUND
  6
CONTINUOUS
 10
0.071940
 20
9.502906
  0
VERTEX
  8
FOREGROUND
  6
CONTINUOUS
 10
0.062457
 20
9.424980
  0
VERTEX
  8
FOREGROUND
  6
CONTINUOUS
 10
0.055609
 20
9.346269
  0
VERTEX
  8
FOREGROUND
  6
CONTINUOUS
 10
0.051442
 20
9.266816
  0
VERTEX
  8
FOREGROUND
  6
CONTINUOUS
 10
0.050000
 20
9.186667
  0
VERTEX
  8
FOREGROUND
  6
CONTINUOUS
 10
0.050000
 20
2.333333
  0
VERTEX
  8
FOREGROUND
  6
CONTINUOUS
 10
0.051442
 20
2.253174
  0
VERTEX
  8
FOREGROUND
  6
CONTINUOUS
 10
0.055611
 20
2.173711
  0
VERTEX
  8
FOREGROUND
  6
CONTINUOUS
 10
0.062460
 20
2.094989
  0
VERTEX
  8
FOREGROUND
  6
CONTINUOUS
 10
0.071945
 20
2.017054
  0
VERTEX
  8
FOREGROUND
  6
CONTINUOUS
 10
0.084021
 20
1.939951
  0
VERTEX
  8
FOREGROUND
  6
CONTINUOUS
 10
0.098643
 20
1.863725
  0
VERTEX
  8
FOREGROUND
  6
CONTINUOUS
 10
0.115765
 20
1.788420
  0
VERTEX
  8
FOREGROUND
  6
CONTINUOUS
 10
0.135343
 20
1.714082
  0
VERTEX
  8
FOREGROUND
  6
CONTINUOUS
 10
0.157331
 20
1.640757
  0
VERTEX
  8
FOREGROUND
  6
CONTINUOUS
 10
0.181685
 20
1.568488
  0
VERTEX
  8
FOREGROUND
  6
CONTINUOUS
 10
0.208359
 20
1.497322
  0
VERTEX
  8
FOREGROUND
  6
CONTINUOUS
 10
0.237307
 20
1.427304
  0
VERTEX
  8
FOREGROUND
  6
CONTINUOUS
 10
0.268486
 20
1.358478
  0
VERTEX
  8
FOREGROUND
  6
CONTINUOUS
 10
0.301850
 20
1.290889
  0
VERTEX
  8
FOREGROUND
  6
CONTINUOUS
 10
0.337353
 20
1.224584
  0
VERTEX
  8
FOREGROUND
  6
CONTINUOUS
 10
0.374951
 20
1.159606
  0
VERTEX
  8
FOREGROUND
  6
CONTINUOUS
 10
0.414598
 20
1.096001
  0
VERTEX
  8
FOREGROUND
  6
CONTINUOUS
 10
0.456250
 20
1.033814
  0
VERTEX
  8
FOREGROUND
  6
CONTINUOUS
 10
0.499862
 20
0.973090
  0
VERTEX
  8
FOREGROUND
  6
CONTINUOUS
 10
0.545387
 20
0.913875
  0
VERTEX
  8
FOREGROUND
  6
CONTINUOUS
 10
0.592782
 20
0.856213
  0
VERTEX
  8
FOREGROUND
  6
CONTINUOUS
 10
0.642000
 20
0.800149
  0
VERTEX
  8
FOREGROUND
  6
CONTINUOUS
 10
0.692998
 20
0.745729
  0
VERTEX
  8
FOREGROUND
  6
CONTINUOUS
 10
0.745729
 20
0.692998
  0
VERTEX
  8
FOREGROUND
  6
CONTINUOUS
 10
0.800149
 20
0.642000
  0
VERTEX
  8
FOREGROUND
  6
CONTINUOUS
 10
0.856213
 20
0.592782
  0
VERTEX
  8
FOREGROUND
  6
CONTINUOUS
 10
0.913875
 20
0.545387
  0
VERTEX
  8
FOREGROUND
  6
CONTINUOUS
 10
0.973090
 20
0.499862
  0
VERTEX
  8
FOREGROUND
  6
CONTINUOUS
 10
1.033814
 20
0.456250
  0
VERTEX
  8
FOREGROUND
  6
CONTINUOUS
 10
1.096001
 20
0.414598
  0
VERTEX
  8
FOREGROUND
  6
CONTINUOUS
 10
1.159606
 20
0.374951
  0
VERTEX
  8
FOREGROUND
  6
CONTINUOUS
 10
1.224584
 20
0.337353
  0
VERTEX
  8
FOREGROUND
  6
CONTINUOUS
 10
1.290889
 20
0.301850
  0
VERTEX
  8
FOREGROUND
  6
CONTINUOUS
 10
1.358478
 20
0.268486
  0
VERTEX
  8
FOREGROUND
  6
CONTINUOUS
 10
1.427304
 20
0.237307
  0
VERTEX
  8
FOREGROUND
  6
CONTINUOUS
 10
1.497322
 20
0.208359
  0
VERTEX
  8
FOREGROUND
  6
CONTINUOUS
 10
1.568488
 20
0.181685
  0
VERTEX
  8
FOREGROUND
  6
CONTINUOUS
 10
1.640757
 20
0.157331
  0
VERTEX
  8
FOREGROUND
  6
CONTINUOUS
 10
1.714082
 20
0.135343
  0
VERTEX
  8
FOREGROUND
  6
CONTINUOUS
 10
1.788420
 20
0.115765
  0
VERTEX
  8
FOREGROUND
  6
CONTINUOUS
 10
1.863725
 20
0.098643
  0
VERTEX
  8
FOREGROUND
  6
CONTINUOUS
 10
1.939951
 20
0.084021
  0
VERTEX
  8
FOREGROUND
  6
CONTINUOUS
 10
2.017054
 20
0.071945
  0
VERTEX
  8
FOREGROUND
  6
CONTINUOUS
 10
2.094989
 20
0.062460
  0
VERTEX
  8
FOREGROUND
  6
CONTINUOUS
 10
2.173711
 20
0.055611
  0
VERTEX
  8
FOREGROUND
  6
CONTINUOUS
 10
2.253174
 20
0.051442
  0
VERTEX
  8
FOREGROUND
  6
CONTINUOUS
 10
2.333333
 20
0.050000
  0
SEQEND
  8
0
  0
ENDSEC
  0
EOF
