  0
SECTION
  2
HEADER
  9
$ACADVER
  1
AC1006
  9
$EXTMIN
 10
0.000000
 20
0.000000
  9
$EXTMAX
 10
1.123333
 20
4.158333
  9
$LTSCALE
 40
0.166667
  9
$PDMODE
 70
    35
  9
$PDSIZE
 40
0.133333
  0
ENDSEC
  0
SECTION
  2
TABLES
  0
TABLE
  2
LTYPE
 70
     9
  0
LTYPE
  2
CONTINUOUS
 70
    64
  3
Solid line
 72
    65
 73
     0
 40
0.000000
  0
LTYPE
  2
DASHED
 70
    64
  3
__ __ __ __ __ __ __ __ __ __ __ __ __ __ __
 72
    65
 73
     2
 40
0.001250
 49
0.000833
 49
-0.000417
  0
LTYPE
  2
HIDDEN
 70
    64
  3
 _ _ _ _ _ _ _ _ _ _ _ _ _ _ _ _ _ _ _ _ _ _
 72
    65
 73
     2
 40
0.000625
 49
0.000417
 49
-0.000208
  0
LTYPE
  2
CENTER
 70
    64
  3
____ _ ____ _ ____ _ ____ _ ____ _ ____ _ ____
 72
    65
 73
     4
 40
0.003333
 49
0.002083
 49
-0.000417
 49
0.000417
 49
-0.000417
  0
LTYPE
  2
PHANTOM
 70
    64
  3
_____ _ _ _____ _ _ _____ _ _ _____ _ _ ____
 72
    65
 73
     6
 40
0.004167
 49
0.002083
 49
-0.000417
 49
0.000417
 49
-0.000417
 49
0.000417
 49
-0.000417
  0
LTYPE
  2
DOT
 70
    64
  3
...............................................
 72
    65
 73
     2
 40
0.000417
 49
0.000000
 49
-0.000417
  0
LTYPE
  2
DASHDOT
 70
    64
  3
__ . __ . __ . __ . __ . __ . __ . __ . __ . __
 72
    65
 73
     4
 40
0.001667
 49
0.000833
 49
-0.000417
 49
0.000000
 49
-0.000417
  0
LTYPE
  2
BORDER
 70
    64
  3
__ __ . __ __ . __ __ . __ __ . __ __ . __ __
 72
    65
 73
     6
 40
0.002917
 49
0.000833
 49
-0.000417
 49
0.000833
 49
-0.000417
 49
0.000000
 49
-0.000417
  0
LTYPE
  2
DIVIDE
 70
    64
  3
__ . . __ . . __ . . __ . . __ . . __ . . __
 72
    65
 73
     6
 40
0.002083
 49
0.000833
 49
-0.000417
 49
0.000000
 49
-0.000417
 49
0.000000
 49
-0.000417
  0
LTYPE
  2
DOTDOT
 70
    64
  3
 . .  . .  . .  . .  . .  . . 
 72
    65
 73
     5
 40
0.000917
 49
-0.000417
 49
0.000000
 49
-0.000417
 49
0.000000
 49
-0.000417
  0
ENDTAB
  0
TABLE
  2
STYLE
 70
     2
  0
STYLE
 70
     0
  2
SN0
 40
0.000000
 41
0.001667
 50
0.000000
 71
     0
 42
0.000000
  3
ROMAND
  0
STYLE
 70
    68
  2
SV0
 40
0.000000
 41
0.001667
 50
0.000000
 71
     0
 42
0.000000
  3
ROMAND
  0
ENDTAB
  0
TABLE
  2
LAYER
 70
     2
  0
LAYER
  2
FOREGROUND
 70
    64
 62
     7
  6
CONTINUOUS
  0
LAYER
  2
BACKGROUND
 70
    65
 62
    -7
  6
CONTINUOUS
  0
ENDTAB
  0
ENDSEC
  0
SECTION
  2
ENTITIES
  0
POLYLINE
  8
FOREGROUND
  6
CONTINUOUS
 66
     1
 40
0.010000
 41
0.010000
 70
     1
  0
VERTEX
  8
FOREGROUND
  6
CONTINUOUS
 10
0.231667
 20
4.003333
  0
VERTEX
  8
FOREGROUND
  6
CONTINUOUS
 10
0.778333
 20
4.003333
  0
VERTEX
  8
FOREGROUND
  6
CONTINUOUS
 10
0.796667
 20
4.001667
  0
VERTEX
  8
FOREGROUND
  6
CONTINUOUS
 10
0.815000
 20
4.000000
  0
VERTEX
  8
FOREGROUND
  6
CONTINUOUS
 10
0.833333
 20
3.995000
  0
VERTEX
  8
FOREGROUND
  6
CONTINUOUS
 10
0.850000
 20
3.988333
  0
VERTEX
  8
FOREGROUND
  6
CONTINUOUS
 10
0.880000
 20
3.971667
  0
VERTEX
  8
FOREGROUND
  6
CONTINUOUS
 10
0.906667
 20
3.950000
  0
VERTEX
  8
FOREGROUND
  6
CONTINUOUS
 10
0.928333
 20
3.923333
  0
VERTEX
  8
FOREGROUND
  6
CONTINUOUS
 10
0.946667
 20
3.891667
  0
VERTEX
  8
FOREGROUND
  6
CONTINUOUS
 10
0.951667
 20
3.875000
  0
VERTEX
  8
FOREGROUND
  6
CONTINUOUS
 10
0.956667
 20
3.858333
  0
VERTEX
  8
FOREGROUND
  6
CONTINUOUS
 10
0.960000
 20
3.840000
  0
VERTEX
  8
FOREGROUND
  6
CONTINUOUS
 10
0.960000
 20
3.821667
  0
VERTEX
  8
FOREGROUND
  6
CONTINUOUS
 10
0.960000
 20
0.240000
  0
VERTEX
  8
FOREGROUND
  6
CONTINUOUS
 10
0.960000
 20
0.221667
  0
VERTEX
  8
FOREGROUND
  6
CONTINUOUS
 10
0.956667
 20
0.203333
  0
VERTEX
  8
FOREGROUND
  6
CONTINUOUS
 10
0.951667
 20
0.185000
  0
VERTEX
  8
FOREGROUND
  6
CONTINUOUS
 10
0.946667
 20
0.168333
  0
VERTEX
  8
FOREGROUND
  6
CONTINUOUS
 10
0.928333
 20
0.138333
  0
VERTEX
  8
FOREGROUND
  6
CONTINUOUS
 10
0.906667
 20
0.111667
  0
VERTEX
  8
FOREGROUND
  6
CONTINUOUS
 10
0.880000
 20
0.090000
  0
VERTEX
  8
FOREGROUND
  6
CONTINUOUS
 10
0.850000
 20
0.071667
  0
VERTEX
  8
FOREGROUND
  6
CONTINUOUS
 10
0.833333
 20
0.066667
  0
VERTEX
  8
FOREGROUND
  6
CONTINUOUS
 10
0.815000
 20
0.061667
  0
VERTEX
  8
FOREGROUND
  6
CONTINUOUS
 10
0.796667
 20
0.058333
  0
VERTEX
  8
FOREGROUND
  6
CONTINUOUS
 10
0.778333
 20
0.058333
  0
VERTEX
  8
FOREGROUND
  6
CONTINUOUS
 10
0.231667
 20
0.058333
  0
VERTEX
  8
FOREGROUND
  6
CONTINUOUS
 10
0.213333
 20
0.058333
  0
VERTEX
  8
FOREGROUND
  6
CONTINUOUS
 10
0.195000
 20
0.061667
  0
VERTEX
  8
FOREGROUND
  6
CONTINUOUS
 10
0.178333
 20
0.066667
  0
VERTEX
  8
FOREGROUND
  6
CONTINUOUS
 10
0.161667
 20
0.071667
  0
VERTEX
  8
FOREGROUND
  6
CONTINUOUS
 10
0.130000
 20
0.090000
  0
VERTEX
  8
FOREGROUND
  6
CONTINUOUS
 10
0.103333
 20
0.111667
  0
VERTEX
  8
FOREGROUND
  6
CONTINUOUS
 10
0.081667
 20
0.138333
  0
VERTEX
  8
FOREGROUND
  6
CONTINUOUS
 10
0.065000
 20
0.168333
  0
VERTEX
  8
FOREGROUND
  6
CONTINUOUS
 10
0.058333
 20
0.185000
  0
VERTEX
  8
FOREGROUND
  6
CONTINUOUS
 10
0.053333
 20
0.203333
  0
VERTEX
  8
FOREGROUND
  6
CONTINUOUS
 10
0.051667
 20
0.221667
  0
VERTEX
  8
FOREGROUND
  6
CONTINUOUS
 10
0.050000
 20
0.240000
  0
VERTEX
  8
FOREGROUND
  6
CONTINUOUS
 10
0.050000
 20
3.821667
  0
VERTEX
  8
FOREGROUND
  6
CONTINUOUS
 10
0.051667
 20
3.840000
  0
VERTEX
  8
FOREGROUND
  6
CONTINUOUS
 10
0.053333
 20
3.858333
  0
VERTEX
  8
FOREGROUND
  6
CONTINUOUS
 10
0.058333
 20
3.875000
  0
VERTEX
  8
FOREGROUND
  6
CONTINUOUS
 10
0.065000
 20
3.891667
  0
VERTEX
  8
FOREGROUND
  6
CONTINUOUS
 10
0.081667
 20
3.923333
  0
VERTEX
  8
FOREGROUND
  6
CONTINUOUS
 10
0.103333
 20
3.950000
  0
VERTEX
  8
FOREGROUND
  6
CONTINUOUS
 10
0.130000
 20
3.971667
  0
VERTEX
  8
FOREGROUND
  6
CONTINUOUS
 10
0.161667
 20
3.988333
  0
VERTEX
  8
FOREGROUND
  6
CONTINUOUS
 10
0.178333
 20
3.995000
  0
VERTEX
  8
FOREGROUND
  6
CONTINUOUS
 10
0.195000
 20
4.000000
  0
VERTEX
  8
FOREGROUND
  6
CONTINUOUS
 10
0.213333
 20
4.001667
  0
SEQEND
  8
0
  0
ENDSEC
  0
EOF
