  0
SECTION
  2
HEADER
  9
$ACADVER
  1
AC1006
  9
$EXTMIN
 10
0.000000
 20
0.000000
  9
$EXTMAX
 10
1.105000
 20
2.586667
  9
$LTSCALE
 40
0.166667
  9
$PDMODE
 70
    35
  9
$PDSIZE
 40
0.133333
  0
ENDSEC
  0
SECTION
  2
TABLES
  0
TABLE
  2
LTYPE
 70
     9
  0
LTYPE
  2
CONTINUOUS
 70
    64
  3
Solid line
 72
    65
 73
     0
 40
0.000000
  0
LTYPE
  2
DASHED
 70
    64
  3
__ __ __ __ __ __ __ __ __ __ __ __ __ __ __
 72
    65
 73
     2
 40
0.001250
 49
0.000833
 49
-0.000417
  0
LTYPE
  2
HIDDEN
 70
    64
  3
 _ _ _ _ _ _ _ _ _ _ _ _ _ _ _ _ _ _ _ _ _ _
 72
    65
 73
     2
 40
0.000625
 49
0.000417
 49
-0.000208
  0
LTYPE
  2
CENTER
 70
    64
  3
____ _ ____ _ ____ _ ____ _ ____ _ ____ _ ____
 72
    65
 73
     4
 40
0.003333
 49
0.002083
 49
-0.000417
 49
0.000417
 49
-0.000417
  0
LTYPE
  2
PHANTOM
 70
    64
  3
_____ _ _ _____ _ _ _____ _ _ _____ _ _ ____
 72
    65
 73
     6
 40
0.004167
 49
0.002083
 49
-0.000417
 49
0.000417
 49
-0.000417
 49
0.000417
 49
-0.000417
  0
LTYPE
  2
DOT
 70
    64
  3
...............................................
 72
    65
 73
     2
 40
0.000417
 49
0.000000
 49
-0.000417
  0
LTYPE
  2
DASHDOT
 70
    64
  3
__ . __ . __ . __ . __ . __ . __ . __ . __ . __
 72
    65
 73
     4
 40
0.001667
 49
0.000833
 49
-0.000417
 49
0.000000
 49
-0.000417
  0
LTYPE
  2
BORDER
 70
    64
  3
__ __ . __ __ . __ __ . __ __ . __ __ . __ __
 72
    65
 73
     6
 40
0.002917
 49
0.000833
 49
-0.000417
 49
0.000833
 49
-0.000417
 49
0.000000
 49
-0.000417
  0
LTYPE
  2
DIVIDE
 70
    64
  3
__ . . __ . . __ . . __ . . __ . . __ . . __
 72
    65
 73
     6
 40
0.002083
 49
0.000833
 49
-0.000417
 49
0.000000
 49
-0.000417
 49
0.000000
 49
-0.000417
  0
LTYPE
  2
DOTDOT
 70
    64
  3
 . .  . .  . .  . .  . .  . . 
 72
    65
 73
     5
 40
0.000917
 49
-0.000417
 49
0.000000
 49
-0.000417
 49
0.000000
 49
-0.000417
  0
ENDTAB
  0
TABLE
  2
STYLE
 70
     2
  0
STYLE
 70
     0
  2
SN0
 40
0.000000
 41
0.001667
 50
0.000000
 71
     0
 42
0.000000
  3
ROMAND
  0
STYLE
 70
    68
  2
SV0
 40
0.000000
 41
0.001667
 50
0.000000
 71
     0
 42
0.000000
  3
ROMAND
  0
ENDTAB
  0
TABLE
  2
LAYER
 70
     2
  0
LAYER
  2
FOREGROUND
 70
    64
 62
     7
  6
CONTINUOUS
  0
LAYER
  2
BACKGROUND
 70
    65
 62
    -7
  6
CONTINUOUS
  0
ENDTAB
  0
ENDSEC
  0
SECTION
  2
ENTITIES
  0
POLYLINE
  8
FOREGROUND
  6
CONTINUOUS
 66
     1
 40
0.010000
 41
0.010000
 70
     1
  0
VERTEX
  8
FOREGROUND
  6
CONTINUOUS
 10
0.226667
 20
2.431667
  0
VERTEX
  8
FOREGROUND
  6
CONTINUOUS
 10
0.763333
 20
2.431667
  0
VERTEX
  8
FOREGROUND
  6
CONTINUOUS
 10
0.781667
 20
2.430000
  0
VERTEX
  8
FOREGROUND
  6
CONTINUOUS
 10
0.798333
 20
2.428333
  0
VERTEX
  8
FOREGROUND
  6
CONTINUOUS
 10
0.816667
 20
2.423333
  0
VERTEX
  8
FOREGROUND
  6
CONTINUOUS
 10
0.831667
 20
2.418333
  0
VERTEX
  8
FOREGROUND
  6
CONTINUOUS
 10
0.861667
 20
2.401667
  0
VERTEX
  8
FOREGROUND
  6
CONTINUOUS
 10
0.888333
 20
2.380000
  0
VERTEX
  8
FOREGROUND
  6
CONTINUOUS
 10
0.910000
 20
2.353333
  0
VERTEX
  8
FOREGROUND
  6
CONTINUOUS
 10
0.926667
 20
2.323333
  0
VERTEX
  8
FOREGROUND
  6
CONTINUOUS
 10
0.931667
 20
2.306667
  0
VERTEX
  8
FOREGROUND
  6
CONTINUOUS
 10
0.936667
 20
2.290000
  0
VERTEX
  8
FOREGROUND
  6
CONTINUOUS
 10
0.938333
 20
2.273333
  0
VERTEX
  8
FOREGROUND
  6
CONTINUOUS
 10
0.940000
 20
2.255000
  0
VERTEX
  8
FOREGROUND
  6
CONTINUOUS
 10
0.940000
 20
0.235000
  0
VERTEX
  8
FOREGROUND
  6
CONTINUOUS
 10
0.938333
 20
0.216667
  0
VERTEX
  8
FOREGROUND
  6
CONTINUOUS
 10
0.936667
 20
0.200000
  0
VERTEX
  8
FOREGROUND
  6
CONTINUOUS
 10
0.931667
 20
0.181667
  0
VERTEX
  8
FOREGROUND
  6
CONTINUOUS
 10
0.926667
 20
0.166667
  0
VERTEX
  8
FOREGROUND
  6
CONTINUOUS
 10
0.910000
 20
0.136667
  0
VERTEX
  8
FOREGROUND
  6
CONTINUOUS
 10
0.888333
 20
0.110000
  0
VERTEX
  8
FOREGROUND
  6
CONTINUOUS
 10
0.861667
 20
0.088333
  0
VERTEX
  8
FOREGROUND
  6
CONTINUOUS
 10
0.831667
 20
0.071667
  0
VERTEX
  8
FOREGROUND
  6
CONTINUOUS
 10
0.816667
 20
0.066667
  0
VERTEX
  8
FOREGROUND
  6
CONTINUOUS
 10
0.798333
 20
0.061667
  0
VERTEX
  8
FOREGROUND
  6
CONTINUOUS
 10
0.781667
 20
0.060000
  0
VERTEX
  8
FOREGROUND
  6
CONTINUOUS
 10
0.763333
 20
0.058333
  0
VERTEX
  8
FOREGROUND
  6
CONTINUOUS
 10
0.226667
 20
0.058333
  0
VERTEX
  8
FOREGROUND
  6
CONTINUOUS
 10
0.208333
 20
0.060000
  0
VERTEX
  8
FOREGROUND
  6
CONTINUOUS
 10
0.191667
 20
0.061667
  0
VERTEX
  8
FOREGROUND
  6
CONTINUOUS
 10
0.175000
 20
0.066667
  0
VERTEX
  8
FOREGROUND
  6
CONTINUOUS
 10
0.158333
 20
0.071667
  0
VERTEX
  8
FOREGROUND
  6
CONTINUOUS
 10
0.128333
 20
0.088333
  0
VERTEX
  8
FOREGROUND
  6
CONTINUOUS
 10
0.101667
 20
0.110000
  0
VERTEX
  8
FOREGROUND
  6
CONTINUOUS
 10
0.080000
 20
0.136667
  0
VERTEX
  8
FOREGROUND
  6
CONTINUOUS
 10
0.063333
 20
0.166667
  0
VERTEX
  8
FOREGROUND
  6
CONTINUOUS
 10
0.058333
 20
0.181667
  0
VERTEX
  8
FOREGROUND
  6
CONTINUOUS
 10
0.053333
 20
0.200000
  0
VERTEX
  8
FOREGROUND
  6
CONTINUOUS
 10
0.051667
 20
0.216667
  0
VERTEX
  8
FOREGROUND
  6
CONTINUOUS
 10
0.050000
 20
0.235000
  0
VERTEX
  8
FOREGROUND
  6
CONTINUOUS
 10
0.050000
 20
2.255000
  0
VERTEX
  8
FOREGROUND
  6
CONTINUOUS
 10
0.051667
 20
2.273333
  0
VERTEX
  8
FOREGROUND
  6
CONTINUOUS
 10
0.053333
 20
2.290000
  0
VERTEX
  8
FOREGROUND
  6
CONTINUOUS
 10
0.058333
 20
2.306667
  0
VERTEX
  8
FOREGROUND
  6
CONTINUOUS
 10
0.063333
 20
2.323333
  0
VERTEX
  8
FOREGROUND
  6
CONTINUOUS
 10
0.080000
 20
2.353333
  0
VERTEX
  8
FOREGROUND
  6
CONTINUOUS
 10
0.101667
 20
2.380000
  0
VERTEX
  8
FOREGROUND
  6
CONTINUOUS
 10
0.128333
 20
2.401667
  0
VERTEX
  8
FOREGROUND
  6
CONTINUOUS
 10
0.158333
 20
2.418333
  0
VERTEX
  8
FOREGROUND
  6
CONTINUOUS
 10
0.175000
 20
2.423333
  0
VERTEX
  8
FOREGROUND
  6
CONTINUOUS
 10
0.191667
 20
2.428333
  0
VERTEX
  8
FOREGROUND
  6
CONTINUOUS
 10
0.208333
 20
2.430000
  0
SEQEND
  8
0
  0
ENDSEC
  0
EOF
