  0
SECTION
  2
HEADER
  9
$ACADVER
  1
AC1006
  9
$EXTMIN
 10
0.000000
 20
0.000000
  9
$EXTMAX
 10
1.115000
 20
3.366667
  9
$LTSCALE
 40
0.166667
  9
$PDMODE
 70
    35
  9
$PDSIZE
 40
0.133333
  0
ENDSEC
  0
SECTION
  2
TABLES
  0
TABLE
  2
LTYPE
 70
     9
  0
LTYPE
  2
CONTINUOUS
 70
    64
  3
Solid line
 72
    65
 73
     0
 40
0.000000
  0
LTYPE
  2
DASHED
 70
    64
  3
__ __ __ __ __ __ __ __ __ __ __ __ __ __ __
 72
    65
 73
     2
 40
0.001250
 49
0.000833
 49
-0.000417
  0
LTYPE
  2
HIDDEN
 70
    64
  3
 _ _ _ _ _ _ _ _ _ _ _ _ _ _ _ _ _ _ _ _ _ _
 72
    65
 73
     2
 40
0.000625
 49
0.000417
 49
-0.000208
  0
LTYPE
  2
CENTER
 70
    64
  3
____ _ ____ _ ____ _ ____ _ ____ _ ____ _ ____
 72
    65
 73
     4
 40
0.003333
 49
0.002083
 49
-0.000417
 49
0.000417
 49
-0.000417
  0
LTYPE
  2
PHANTOM
 70
    64
  3
_____ _ _ _____ _ _ _____ _ _ _____ _ _ ____
 72
    65
 73
     6
 40
0.004167
 49
0.002083
 49
-0.000417
 49
0.000417
 49
-0.000417
 49
0.000417
 49
-0.000417
  0
LTYPE
  2
DOT
 70
    64
  3
...............................................
 72
    65
 73
     2
 40
0.000417
 49
0.000000
 49
-0.000417
  0
LTYPE
  2
DASHDOT
 70
    64
  3
__ . __ . __ . __ . __ . __ . __ . __ . __ . __
 72
    65
 73
     4
 40
0.001667
 49
0.000833
 49
-0.000417
 49
0.000000
 49
-0.000417
  0
LTYPE
  2
BORDER
 70
    64
  3
__ __ . __ __ . __ __ . __ __ . __ __ . __ __
 72
    65
 73
     6
 40
0.002917
 49
0.000833
 49
-0.000417
 49
0.000833
 49
-0.000417
 49
0.000000
 49
-0.000417
  0
LTYPE
  2
DIVIDE
 70
    64
  3
__ . . __ . . __ . . __ . . __ . . __ . . __
 72
    65
 73
     6
 40
0.002083
 49
0.000833
 49
-0.000417
 49
0.000000
 49
-0.000417
 49
0.000000
 49
-0.000417
  0
LTYPE
  2
DOTDOT
 70
    64
  3
 . .  . .  . .  . .  . .  . . 
 72
    65
 73
     5
 40
0.000917
 49
-0.000417
 49
0.000000
 49
-0.000417
 49
0.000000
 49
-0.000417
  0
ENDTAB
  0
TABLE
  2
STYLE
 70
     2
  0
STYLE
 70
     0
  2
SN0
 40
0.000000
 41
0.001667
 50
0.000000
 71
     0
 42
0.000000
  3
ROMAND
  0
STYLE
 70
    68
  2
SV0
 40
0.000000
 41
0.001667
 50
0.000000
 71
     0
 42
0.000000
  3
ROMAND
  0
ENDTAB
  0
TABLE
  2
LAYER
 70
     2
  0
LAYER
  2
FOREGROUND
 70
    64
 62
     7
  6
CONTINUOUS
  0
LAYER
  2
BACKGROUND
 70
    65
 62
    -7
  6
CONTINUOUS
  0
ENDTAB
  0
ENDSEC
  0
SECTION
  2
ENTITIES
  0
POLYLINE
  8
FOREGROUND
  6
CONTINUOUS
 66
     1
 40
0.010000
 41
0.010000
 70
     1
  0
VERTEX
  8
FOREGROUND
  6
CONTINUOUS
 10
0.228333
 20
3.211667
  0
VERTEX
  8
FOREGROUND
  6
CONTINUOUS
 10
0.771667
 20
3.211667
  0
VERTEX
  8
FOREGROUND
  6
CONTINUOUS
 10
0.790000
 20
3.210000
  0
VERTEX
  8
FOREGROUND
  6
CONTINUOUS
 10
0.808333
 20
3.208333
  0
VERTEX
  8
FOREGROUND
  6
CONTINUOUS
 10
0.825000
 20
3.203333
  0
VERTEX
  8
FOREGROUND
  6
CONTINUOUS
 10
0.841667
 20
3.198333
  0
VERTEX
  8
FOREGROUND
  6
CONTINUOUS
 10
0.871667
 20
3.181667
  0
VERTEX
  8
FOREGROUND
  6
CONTINUOUS
 10
0.898333
 20
3.160000
  0
VERTEX
  8
FOREGROUND
  6
CONTINUOUS
 10
0.920000
 20
3.133333
  0
VERTEX
  8
FOREGROUND
  6
CONTINUOUS
 10
0.936667
 20
3.103333
  0
VERTEX
  8
FOREGROUND
  6
CONTINUOUS
 10
0.941667
 20
3.086667
  0
VERTEX
  8
FOREGROUND
  6
CONTINUOUS
 10
0.946667
 20
3.070000
  0
VERTEX
  8
FOREGROUND
  6
CONTINUOUS
 10
0.948333
 20
3.051667
  0
VERTEX
  8
FOREGROUND
  6
CONTINUOUS
 10
0.950000
 20
3.033333
  0
VERTEX
  8
FOREGROUND
  6
CONTINUOUS
 10
0.950000
 20
0.236667
  0
VERTEX
  8
FOREGROUND
  6
CONTINUOUS
 10
0.948333
 20
0.218333
  0
VERTEX
  8
FOREGROUND
  6
CONTINUOUS
 10
0.946667
 20
0.200000
  0
VERTEX
  8
FOREGROUND
  6
CONTINUOUS
 10
0.941667
 20
0.183333
  0
VERTEX
  8
FOREGROUND
  6
CONTINUOUS
 10
0.936667
 20
0.166667
  0
VERTEX
  8
FOREGROUND
  6
CONTINUOUS
 10
0.920000
 20
0.136667
  0
VERTEX
  8
FOREGROUND
  6
CONTINUOUS
 10
0.898333
 20
0.110000
  0
VERTEX
  8
FOREGROUND
  6
CONTINUOUS
 10
0.871667
 20
0.088333
  0
VERTEX
  8
FOREGROUND
  6
CONTINUOUS
 10
0.841667
 20
0.071667
  0
VERTEX
  8
FOREGROUND
  6
CONTINUOUS
 10
0.825000
 20
0.066667
  0
VERTEX
  8
FOREGROUND
  6
CONTINUOUS
 10
0.808333
 20
0.061667
  0
VERTEX
  8
FOREGROUND
  6
CONTINUOUS
 10
0.790000
 20
0.060000
  0
VERTEX
  8
FOREGROUND
  6
CONTINUOUS
 10
0.771667
 20
0.058333
  0
VERTEX
  8
FOREGROUND
  6
CONTINUOUS
 10
0.228333
 20
0.058333
  0
VERTEX
  8
FOREGROUND
  6
CONTINUOUS
 10
0.210000
 20
0.060000
  0
VERTEX
  8
FOREGROUND
  6
CONTINUOUS
 10
0.191667
 20
0.061667
  0
VERTEX
  8
FOREGROUND
  6
CONTINUOUS
 10
0.175000
 20
0.066667
  0
VERTEX
  8
FOREGROUND
  6
CONTINUOUS
 10
0.158333
 20
0.071667
  0
VERTEX
  8
FOREGROUND
  6
CONTINUOUS
 10
0.128333
 20
0.088333
  0
VERTEX
  8
FOREGROUND
  6
CONTINUOUS
 10
0.101667
 20
0.110000
  0
VERTEX
  8
FOREGROUND
  6
CONTINUOUS
 10
0.080000
 20
0.136667
  0
VERTEX
  8
FOREGROUND
  6
CONTINUOUS
 10
0.063333
 20
0.166667
  0
VERTEX
  8
FOREGROUND
  6
CONTINUOUS
 10
0.058333
 20
0.183333
  0
VERTEX
  8
FOREGROUND
  6
CONTINUOUS
 10
0.053333
 20
0.200000
  0
VERTEX
  8
FOREGROUND
  6
CONTINUOUS
 10
0.051667
 20
0.218333
  0
VERTEX
  8
FOREGROUND
  6
CONTINUOUS
 10
0.050000
 20
0.236667
  0
VERTEX
  8
FOREGROUND
  6
CONTINUOUS
 10
0.050000
 20
3.033333
  0
VERTEX
  8
FOREGROUND
  6
CONTINUOUS
 10
0.051667
 20
3.051667
  0
VERTEX
  8
FOREGROUND
  6
CONTINUOUS
 10
0.053333
 20
3.070000
  0
VERTEX
  8
FOREGROUND
  6
CONTINUOUS
 10
0.058333
 20
3.086667
  0
VERTEX
  8
FOREGROUND
  6
CONTINUOUS
 10
0.063333
 20
3.103333
  0
VERTEX
  8
FOREGROUND
  6
CONTINUOUS
 10
0.080000
 20
3.133333
  0
VERTEX
  8
FOREGROUND
  6
CONTINUOUS
 10
0.101667
 20
3.160000
  0
VERTEX
  8
FOREGROUND
  6
CONTINUOUS
 10
0.128333
 20
3.181667
  0
VERTEX
  8
FOREGROUND
  6
CONTINUOUS
 10
0.158333
 20
3.198333
  0
VERTEX
  8
FOREGROUND
  6
CONTINUOUS
 10
0.175000
 20
3.203333
  0
VERTEX
  8
FOREGROUND
  6
CONTINUOUS
 10
0.191667
 20
3.208333
  0
VERTEX
  8
FOREGROUND
  6
CONTINUOUS
 10
0.210000
 20
3.210000
  0
SEQEND
  8
0
  0
ENDSEC
  0
EOF
