  0
SECTION
  2
HEADER
  9
$ACADVER
  1
AC1006
  9
$EXTMIN
 10
0.000000
 20
0.000000
  9
$EXTMAX
 10
1.598333
 20
1.218333
  9
$LTSCALE
 40
0.166667
  9
$PDMODE
 70
    35
  9
$PDSIZE
 40
0.133333
  0
ENDSEC
  0
SECTION
  2
TABLES
  0
TABLE
  2
LTYPE
 70
     9
  0
LTYPE
  2
CONTINUOUS
 70
    64
  3
Solid line
 72
    65
 73
     0
 40
0.000000
  0
LTYPE
  2
DASHED
 70
    64
  3
__ __ __ __ __ __ __ __ __ __ __ __ __ __ __
 72
    65
 73
     2
 40
0.001250
 49
0.000833
 49
-0.000417
  0
LTYPE
  2
HIDDEN
 70
    64
  3
 _ _ _ _ _ _ _ _ _ _ _ _ _ _ _ _ _ _ _ _ _ _
 72
    65
 73
     2
 40
0.000625
 49
0.000417
 49
-0.000208
  0
LTYPE
  2
CENTER
 70
    64
  3
____ _ ____ _ ____ _ ____ _ ____ _ ____ _ ____
 72
    65
 73
     4
 40
0.003333
 49
0.002083
 49
-0.000417
 49
0.000417
 49
-0.000417
  0
LTYPE
  2
PHANTOM
 70
    64
  3
_____ _ _ _____ _ _ _____ _ _ _____ _ _ ____
 72
    65
 73
     6
 40
0.004167
 49
0.002083
 49
-0.000417
 49
0.000417
 49
-0.000417
 49
0.000417
 49
-0.000417
  0
LTYPE
  2
DOT
 70
    64
  3
...............................................
 72
    65
 73
     2
 40
0.000417
 49
0.000000
 49
-0.000417
  0
LTYPE
  2
DASHDOT
 70
    64
  3
__ . __ . __ . __ . __ . __ . __ . __ . __ . __
 72
    65
 73
     4
 40
0.001667
 49
0.000833
 49
-0.000417
 49
0.000000
 49
-0.000417
  0
LTYPE
  2
BORDER
 70
    64
  3
__ __ . __ __ . __ __ . __ __ . __ __ . __ __
 72
    65
 73
     6
 40
0.002917
 49
0.000833
 49
-0.000417
 49
0.000833
 49
-0.000417
 49
0.000000
 49
-0.000417
  0
LTYPE
  2
DIVIDE
 70
    64
  3
__ . . __ . . __ . . __ . . __ . . __ . . __
 72
    65
 73
     6
 40
0.002083
 49
0.000833
 49
-0.000417
 49
0.000000
 49
-0.000417
 49
0.000000
 49
-0.000417
  0
LTYPE
  2
DOTDOT
 70
    64
  3
 . .  . .  . .  . .  . .  . . 
 72
    65
 73
     5
 40
0.000917
 49
-0.000417
 49
0.000000
 49
-0.000417
 49
0.000000
 49
-0.000417
  0
ENDTAB
  0
TABLE
  2
STYLE
 70
     2
  0
STYLE
 70
     0
  2
SN0
 40
0.000000
 41
0.001667
 50
0.000000
 71
     0
 42
0.000000
  3
ROMAND
  0
STYLE
 70
    68
  2
SV0
 40
0.000000
 41
0.001667
 50
0.000000
 71
     0
 42
0.000000
  3
ROMAND
  0
ENDTAB
  0
TABLE
  2
LAYER
 70
     2
  0
LAYER
  2
FOREGROUND
 70
    64
 62
     7
  6
CONTINUOUS
  0
LAYER
  2
BACKGROUND
 70
    65
 62
    -7
  6
CONTINUOUS
  0
ENDTAB
  0
ENDSEC
  0
SECTION
  2
ENTITIES
  0
POLYLINE
  8
FOREGROUND
 62
     7
  6
CONTINUOUS
 66
     1
 40
0.000000
 41
0.000000
 70
     1
  0
VERTEX
  8
FOREGROUND
 62
     7
  6
CONTINUOUS
 10
0.250000
 20
1.063333
  0
VERTEX
  8
FOREGROUND
 62
     7
  6
CONTINUOUS
 10
1.233333
 20
1.063333
  0
VERTEX
  8
FOREGROUND
 62
     7
  6
CONTINUOUS
 10
1.253333
 20
1.061667
  0
VERTEX
  8
FOREGROUND
 62
     7
  6
CONTINUOUS
 10
1.273333
 20
1.060000
  0
VERTEX
  8
FOREGROUND
 62
     7
  6
CONTINUOUS
 10
1.293333
 20
1.055000
  0
VERTEX
  8
FOREGROUND
 62
     7
  6
CONTINUOUS
 10
1.311667
 20
1.048333
  0
VERTEX
  8
FOREGROUND
 62
     7
  6
CONTINUOUS
 10
1.328333
 20
1.038333
  0
VERTEX
  8
FOREGROUND
 62
     7
  6
CONTINUOUS
 10
1.345000
 20
1.028333
  0
VERTEX
  8
FOREGROUND
 62
     7
  6
CONTINUOUS
 10
1.375000
 20
1.005000
  0
VERTEX
  8
FOREGROUND
 62
     7
  6
CONTINUOUS
 10
1.400000
 20
0.975000
  0
VERTEX
  8
FOREGROUND
 62
     7
  6
CONTINUOUS
 10
1.410000
 20
0.958333
  0
VERTEX
  8
FOREGROUND
 62
     7
  6
CONTINUOUS
 10
1.418333
 20
0.941667
  0
VERTEX
  8
FOREGROUND
 62
     7
  6
CONTINUOUS
 10
1.425000
 20
0.923333
  0
VERTEX
  8
FOREGROUND
 62
     7
  6
CONTINUOUS
 10
1.430000
 20
0.903333
  0
VERTEX
  8
FOREGROUND
 62
     7
  6
CONTINUOUS
 10
1.431667
 20
0.883333
  0
VERTEX
  8
FOREGROUND
 62
     7
  6
CONTINUOUS
 10
1.433333
 20
0.863333
  0
VERTEX
  8
FOREGROUND
 62
     7
  6
CONTINUOUS
 10
1.433333
 20
0.258333
  0
VERTEX
  8
FOREGROUND
 62
     7
  6
CONTINUOUS
 10
1.431667
 20
0.238333
  0
VERTEX
  8
FOREGROUND
 62
     7
  6
CONTINUOUS
 10
1.430000
 20
0.218333
  0
VERTEX
  8
FOREGROUND
 62
     7
  6
CONTINUOUS
 10
1.425000
 20
0.198333
  0
VERTEX
  8
FOREGROUND
 62
     7
  6
CONTINUOUS
 10
1.418333
 20
0.180000
  0
VERTEX
  8
FOREGROUND
 62
     7
  6
CONTINUOUS
 10
1.410000
 20
0.163333
  0
VERTEX
  8
FOREGROUND
 62
     7
  6
CONTINUOUS
 10
1.400000
 20
0.146667
  0
VERTEX
  8
FOREGROUND
 62
     7
  6
CONTINUOUS
 10
1.375000
 20
0.116667
  0
VERTEX
  8
FOREGROUND
 62
     7
  6
CONTINUOUS
 10
1.345000
 20
0.091667
  0
VERTEX
  8
FOREGROUND
 62
     7
  6
CONTINUOUS
 10
1.328333
 20
0.081667
  0
VERTEX
  8
FOREGROUND
 62
     7
  6
CONTINUOUS
 10
1.311667
 20
0.073333
  0
VERTEX
  8
FOREGROUND
 62
     7
  6
CONTINUOUS
 10
1.293333
 20
0.066667
  0
VERTEX
  8
FOREGROUND
 62
     7
  6
CONTINUOUS
 10
1.273333
 20
0.061667
  0
VERTEX
  8
FOREGROUND
 62
     7
  6
CONTINUOUS
 10
1.253333
 20
0.060000
  0
VERTEX
  8
FOREGROUND
 62
     7
  6
CONTINUOUS
 10
1.233333
 20
0.058333
  0
VERTEX
  8
FOREGROUND
 62
     7
  6
CONTINUOUS
 10
0.250000
 20
0.058333
  0
VERTEX
  8
FOREGROUND
 62
     7
  6
CONTINUOUS
 10
0.230000
 20
0.060000
  0
VERTEX
  8
FOREGROUND
 62
     7
  6
CONTINUOUS
 10
0.210000
 20
0.061667
  0
VERTEX
  8
FOREGROUND
 62
     7
  6
CONTINUOUS
 10
0.190000
 20
0.066667
  0
VERTEX
  8
FOREGROUND
 62
     7
  6
CONTINUOUS
 10
0.171667
 20
0.073333
  0
VERTEX
  8
FOREGROUND
 62
     7
  6
CONTINUOUS
 10
0.155000
 20
0.081667
  0
VERTEX
  8
FOREGROUND
 62
     7
  6
CONTINUOUS
 10
0.138333
 20
0.091667
  0
VERTEX
  8
FOREGROUND
 62
     7
  6
CONTINUOUS
 10
0.108333
 20
0.116667
  0
VERTEX
  8
FOREGROUND
 62
     7
  6
CONTINUOUS
 10
0.085000
 20
0.146667
  0
VERTEX
  8
FOREGROUND
 62
     7
  6
CONTINUOUS
 10
0.075000
 20
0.163333
  0
VERTEX
  8
FOREGROUND
 62
     7
  6
CONTINUOUS
 10
0.065000
 20
0.180000
  0
VERTEX
  8
FOREGROUND
 62
     7
  6
CONTINUOUS
 10
0.058333
 20
0.198333
  0
VERTEX
  8
FOREGROUND
 62
     7
  6
CONTINUOUS
 10
0.053333
 20
0.218333
  0
VERTEX
  8
FOREGROUND
 62
     7
  6
CONTINUOUS
 10
0.051667
 20
0.238333
  0
VERTEX
  8
FOREGROUND
 62
     7
  6
CONTINUOUS
 10
0.050000
 20
0.258333
  0
VERTEX
  8
FOREGROUND
 62
     7
  6
CONTINUOUS
 10
0.050000
 20
0.863333
  0
VERTEX
  8
FOREGROUND
 62
     7
  6
CONTINUOUS
 10
0.051667
 20
0.883333
  0
VERTEX
  8
FOREGROUND
 62
     7
  6
CONTINUOUS
 10
0.053333
 20
0.903333
  0
VERTEX
  8
FOREGROUND
 62
     7
  6
CONTINUOUS
 10
0.058333
 20
0.923333
  0
VERTEX
  8
FOREGROUND
 62
     7
  6
CONTINUOUS
 10
0.065000
 20
0.941667
  0
VERTEX
  8
FOREGROUND
 62
     7
  6
CONTINUOUS
 10
0.075000
 20
0.958333
  0
VERTEX
  8
FOREGROUND
 62
     7
  6
CONTINUOUS
 10
0.085000
 20
0.975000
  0
VERTEX
  8
FOREGROUND
 62
     7
  6
CONTINUOUS
 10
0.108333
 20
1.005000
  0
VERTEX
  8
FOREGROUND
 62
     7
  6
CONTINUOUS
 10
0.138333
 20
1.028333
  0
VERTEX
  8
FOREGROUND
 62
     7
  6
CONTINUOUS
 10
0.155000
 20
1.038333
  0
VERTEX
  8
FOREGROUND
 62
     7
  6
CONTINUOUS
 10
0.171667
 20
1.048333
  0
VERTEX
  8
FOREGROUND
 62
     7
  6
CONTINUOUS
 10
0.190000
 20
1.055000
  0
VERTEX
  8
FOREGROUND
 62
     7
  6
CONTINUOUS
 10
0.210000
 20
1.060000
  0
VERTEX
  8
FOREGROUND
 62
     7
  6
CONTINUOUS
 10
0.230000
 20
1.061667
  0
SEQEND
  8
0
  0
POLYLINE
  8
FOREGROUND
  6
CONTINUOUS
 66
     1
 40
0.010000
 41
0.010000
 70
     1
  0
VERTEX
  8
FOREGROUND
  6
CONTINUOUS
 10
0.250000
 20
1.063333
  0
VERTEX
  8
FOREGROUND
  6
CONTINUOUS
 10
1.233333
 20
1.063333
  0
VERTEX
  8
FOREGROUND
  6
CONTINUOUS
 10
1.253333
 20
1.061667
  0
VERTEX
  8
FOREGROUND
  6
CONTINUOUS
 10
1.273333
 20
1.060000
  0
VERTEX
  8
FOREGROUND
  6
CONTINUOUS
 10
1.293333
 20
1.055000
  0
VERTEX
  8
FOREGROUND
  6
CONTINUOUS
 10
1.311667
 20
1.048333
  0
VERTEX
  8
FOREGROUND
  6
CONTINUOUS
 10
1.328333
 20
1.038333
  0
VERTEX
  8
FOREGROUND
  6
CONTINUOUS
 10
1.345000
 20
1.028333
  0
VERTEX
  8
FOREGROUND
  6
CONTINUOUS
 10
1.375000
 20
1.005000
  0
VERTEX
  8
FOREGROUND
  6
CONTINUOUS
 10
1.400000
 20
0.975000
  0
VERTEX
  8
FOREGROUND
  6
CONTINUOUS
 10
1.410000
 20
0.958333
  0
VERTEX
  8
FOREGROUND
  6
CONTINUOUS
 10
1.418333
 20
0.941667
  0
VERTEX
  8
FOREGROUND
  6
CONTINUOUS
 10
1.425000
 20
0.923333
  0
VERTEX
  8
FOREGROUND
  6
CONTINUOUS
 10
1.430000
 20
0.903333
  0
VERTEX
  8
FOREGROUND
  6
CONTINUOUS
 10
1.431667
 20
0.883333
  0
VERTEX
  8
FOREGROUND
  6
CONTINUOUS
 10
1.433333
 20
0.863333
  0
VERTEX
  8
FOREGROUND
  6
CONTINUOUS
 10
1.433333
 20
0.258333
  0
VERTEX
  8
FOREGROUND
  6
CONTINUOUS
 10
1.431667
 20
0.238333
  0
VERTEX
  8
FOREGROUND
  6
CONTINUOUS
 10
1.430000
 20
0.218333
  0
VERTEX
  8
FOREGROUND
  6
CONTINUOUS
 10
1.425000
 20
0.198333
  0
VERTEX
  8
FOREGROUND
  6
CONTINUOUS
 10
1.418333
 20
0.180000
  0
VERTEX
  8
FOREGROUND
  6
CONTINUOUS
 10
1.410000
 20
0.163333
  0
VERTEX
  8
FOREGROUND
  6
CONTINUOUS
 10
1.400000
 20
0.146667
  0
VERTEX
  8
FOREGROUND
  6
CONTINUOUS
 10
1.375000
 20
0.116667
  0
VERTEX
  8
FOREGROUND
  6
CONTINUOUS
 10
1.345000
 20
0.091667
  0
VERTEX
  8
FOREGROUND
  6
CONTINUOUS
 10
1.328333
 20
0.081667
  0
VERTEX
  8
FOREGROUND
  6
CONTINUOUS
 10
1.311667
 20
0.073333
  0
VERTEX
  8
FOREGROUND
  6
CONTINUOUS
 10
1.293333
 20
0.066667
  0
VERTEX
  8
FOREGROUND
  6
CONTINUOUS
 10
1.273333
 20
0.061667
  0
VERTEX
  8
FOREGROUND
  6
CONTINUOUS
 10
1.253333
 20
0.060000
  0
VERTEX
  8
FOREGROUND
  6
CONTINUOUS
 10
1.233333
 20
0.058333
  0
VERTEX
  8
FOREGROUND
  6
CONTINUOUS
 10
0.250000
 20
0.058333
  0
VERTEX
  8
FOREGROUND
  6
CONTINUOUS
 10
0.230000
 20
0.060000
  0
VERTEX
  8
FOREGROUND
  6
CONTINUOUS
 10
0.210000
 20
0.061667
  0
VERTEX
  8
FOREGROUND
  6
CONTINUOUS
 10
0.190000
 20
0.066667
  0
VERTEX
  8
FOREGROUND
  6
CONTINUOUS
 10
0.171667
 20
0.073333
  0
VERTEX
  8
FOREGROUND
  6
CONTINUOUS
 10
0.155000
 20
0.081667
  0
VERTEX
  8
FOREGROUND
  6
CONTINUOUS
 10
0.138333
 20
0.091667
  0
VERTEX
  8
FOREGROUND
  6
CONTINUOUS
 10
0.108333
 20
0.116667
  0
VERTEX
  8
FOREGROUND
  6
CONTINUOUS
 10
0.085000
 20
0.146667
  0
VERTEX
  8
FOREGROUND
  6
CONTINUOUS
 10
0.075000
 20
0.163333
  0
VERTEX
  8
FOREGROUND
  6
CONTINUOUS
 10
0.065000
 20
0.180000
  0
VERTEX
  8
FOREGROUND
  6
CONTINUOUS
 10
0.058333
 20
0.198333
  0
VERTEX
  8
FOREGROUND
  6
CONTINUOUS
 10
0.053333
 20
0.218333
  0
VERTEX
  8
FOREGROUND
  6
CONTINUOUS
 10
0.051667
 20
0.238333
  0
VERTEX
  8
FOREGROUND
  6
CONTINUOUS
 10
0.050000
 20
0.258333
  0
VERTEX
  8
FOREGROUND
  6
CONTINUOUS
 10
0.050000
 20
0.863333
  0
VERTEX
  8
FOREGROUND
  6
CONTINUOUS
 10
0.051667
 20
0.883333
  0
VERTEX
  8
FOREGROUND
  6
CONTINUOUS
 10
0.053333
 20
0.903333
  0
VERTEX
  8
FOREGROUND
  6
CONTINUOUS
 10
0.058333
 20
0.923333
  0
VERTEX
  8
FOREGROUND
  6
CONTINUOUS
 10
0.065000
 20
0.941667
  0
VERTEX
  8
FOREGROUND
  6
CONTINUOUS
 10
0.075000
 20
0.958333
  0
VERTEX
  8
FOREGROUND
  6
CONTINUOUS
 10
0.085000
 20
0.975000
  0
VERTEX
  8
FOREGROUND
  6
CONTINUOUS
 10
0.108333
 20
1.005000
  0
VERTEX
  8
FOREGROUND
  6
CONTINUOUS
 10
0.138333
 20
1.028333
  0
VERTEX
  8
FOREGROUND
  6
CONTINUOUS
 10
0.155000
 20
1.038333
  0
VERTEX
  8
FOREGROUND
  6
CONTINUOUS
 10
0.171667
 20
1.048333
  0
VERTEX
  8
FOREGROUND
  6
CONTINUOUS
 10
0.190000
 20
1.055000
  0
VERTEX
  8
FOREGROUND
  6
CONTINUOUS
 10
0.210000
 20
1.060000
  0
VERTEX
  8
FOREGROUND
  6
CONTINUOUS
 10
0.230000
 20
1.061667
  0
SEQEND
  8
0
  0
ENDSEC
  0
EOF
