  0
SECTION
  2
HEADER
  9
$ACADVER
  1
AC1006
  9
$EXTMIN
 10
0.000000
 20
0.000000
  9
$EXTMAX
 10
12.120000
 20
11.956667
  9
$LTSCALE
 40
0.166667
  9
$PDMODE
 70
    35
  9
$PDSIZE
 40
0.133333
  0
ENDSEC
  0
SECTION
  2
TABLES
  0
TABLE
  2
LTYPE
 70
     9
  0
LTYPE
  2
CONTINUOUS
 70
    64
  3
Solid line
 72
    65
 73
     0
 40
0.000000
  0
LTYPE
  2
DASHED
 70
    64
  3
__ __ __ __ __ __ __ __ __ __ __ __ __ __ __
 72
    65
 73
     2
 40
0.001250
 49
0.000833
 49
-0.000417
  0
LTYPE
  2
HIDDEN
 70
    64
  3
 _ _ _ _ _ _ _ _ _ _ _ _ _ _ _ _ _ _ _ _ _ _
 72
    65
 73
     2
 40
0.000625
 49
0.000417
 49
-0.000208
  0
LTYPE
  2
CENTER
 70
    64
  3
____ _ ____ _ ____ _ ____ _ ____ _ ____ _ ____
 72
    65
 73
     4
 40
0.003333
 49
0.002083
 49
-0.000417
 49
0.000417
 49
-0.000417
  0
LTYPE
  2
PHANTOM
 70
    64
  3
_____ _ _ _____ _ _ _____ _ _ _____ _ _ ____
 72
    65
 73
     6
 40
0.004167
 49
0.002083
 49
-0.000417
 49
0.000417
 49
-0.000417
 49
0.000417
 49
-0.000417
  0
LTYPE
  2
DOT
 70
    64
  3
...............................................
 72
    65
 73
     2
 40
0.000417
 49
0.000000
 49
-0.000417
  0
LTYPE
  2
DASHDOT
 70
    64
  3
__ . __ . __ . __ . __ . __ . __ . __ . __ . __
 72
    65
 73
     4
 40
0.001667
 49
0.000833
 49
-0.000417
 49
0.000000
 49
-0.000417
  0
LTYPE
  2
BORDER
 70
    64
  3
__ __ . __ __ . __ __ . __ __ . __ __ . __ __
 72
    65
 73
     6
 40
0.002917
 49
0.000833
 49
-0.000417
 49
0.000833
 49
-0.000417
 49
0.000000
 49
-0.000417
  0
LTYPE
  2
DIVIDE
 70
    64
  3
__ . . __ . . __ . . __ . . __ . . __ . . __
 72
    65
 73
     6
 40
0.002083
 49
0.000833
 49
-0.000417
 49
0.000000
 49
-0.000417
 49
0.000000
 49
-0.000417
  0
LTYPE
  2
DOTDOT
 70
    64
  3
 . .  . .  . .  . .  . .  . . 
 72
    65
 73
     5
 40
0.000917
 49
-0.000417
 49
0.000000
 49
-0.000417
 49
0.000000
 49
-0.000417
  0
ENDTAB
  0
TABLE
  2
STYLE
 70
     2
  0
STYLE
 70
     0
  2
SN0
 40
0.000000
 41
0.001667
 50
0.000000
 71
     0
 42
0.000000
  3
ROMAND
  0
STYLE
 70
    68
  2
SV0
 40
0.000000
 41
0.001667
 50
0.000000
 71
     0
 42
0.000000
  3
ROMAND
  0
ENDTAB
  0
TABLE
  2
LAYER
 70
     2
  0
LAYER
  2
FOREGROUND
 70
    64
 62
     7
  6
CONTINUOUS
  0
LAYER
  2
BACKGROUND
 70
    65
 62
    -7
  6
CONTINUOUS
  0
ENDTAB
  0
ENDSEC
  0
SECTION
  2
ENTITIES
  0
POLYLINE
  8
FOREGROUND
  6
CONTINUOUS
 66
     1
 40
0.010000
 41
0.010000
 70
     1
  0
VERTEX
  8
FOREGROUND
  6
CONTINUOUS
 10
2.396667
 20
11.798333
  0
VERTEX
  8
FOREGROUND
  6
CONTINUOUS
 10
9.605000
 20
11.798333
  0
VERTEX
  8
FOREGROUND
  6
CONTINUOUS
 10
9.726667
 20
11.795000
  0
VERTEX
  8
FOREGROUND
  6
CONTINUOUS
 10
9.845000
 20
11.786667
  0
VERTEX
  8
FOREGROUND
  6
CONTINUOUS
 10
9.963333
 20
11.771667
  0
VERTEX
  8
FOREGROUND
  6
CONTINUOUS
 10
10.078333
 20
11.750000
  0
VERTEX
  8
FOREGROUND
  6
CONTINUOUS
 10
10.191667
 20
11.725000
  0
VERTEX
  8
FOREGROUND
  6
CONTINUOUS
 10
10.303333
 20
11.693333
  0
VERTEX
  8
FOREGROUND
  6
CONTINUOUS
 10
10.411667
 20
11.655000
  0
VERTEX
  8
FOREGROUND
  6
CONTINUOUS
 10
10.518333
 20
11.613333
  0
VERTEX
  8
FOREGROUND
  6
CONTINUOUS
 10
10.623333
 20
11.566667
  0
VERTEX
  8
FOREGROUND
  6
CONTINUOUS
 10
10.723333
 20
11.515000
  0
VERTEX
  8
FOREGROUND
  6
CONTINUOUS
 10
10.821667
 20
11.458333
  0
VERTEX
  8
FOREGROUND
  6
CONTINUOUS
 10
10.916667
 20
11.396667
  0
VERTEX
  8
FOREGROUND
  6
CONTINUOUS
 10
11.010000
 20
11.331667
  0
VERTEX
  8
FOREGROUND
  6
CONTINUOUS
 10
11.098333
 20
11.261667
  0
VERTEX
  8
FOREGROUND
  6
CONTINUOUS
 10
11.183333
 20
11.188333
  0
VERTEX
  8
FOREGROUND
  6
CONTINUOUS
 10
11.265000
 20
11.110000
  0
VERTEX
  8
FOREGROUND
  6
CONTINUOUS
 10
11.341667
 20
11.030000
  0
VERTEX
  8
FOREGROUND
  6
CONTINUOUS
 10
11.416667
 20
10.943333
  0
VERTEX
  8
FOREGROUND
  6
CONTINUOUS
 10
11.485000
 20
10.855000
  0
VERTEX
  8
FOREGROUND
  6
CONTINUOUS
 10
11.551667
 20
10.763333
  0
VERTEX
  8
FOREGROUND
  6
CONTINUOUS
 10
11.611667
 20
10.668333
  0
VERTEX
  8
FOREGROUND
  6
CONTINUOUS
 10
11.668333
 20
10.570000
  0
VERTEX
  8
FOREGROUND
  6
CONTINUOUS
 10
11.720000
 20
10.468333
  0
VERTEX
  8
FOREGROUND
  6
CONTINUOUS
 10
11.768333
 20
10.365000
  0
VERTEX
  8
FOREGROUND
  6
CONTINUOUS
 10
11.810000
 20
10.258333
  0
VERTEX
  8
FOREGROUND
  6
CONTINUOUS
 10
11.846667
 20
10.148333
  0
VERTEX
  8
FOREGROUND
  6
CONTINUOUS
 10
11.878333
 20
10.038333
  0
VERTEX
  8
FOREGROUND
  6
CONTINUOUS
 10
11.905000
 20
9.925000
  0
VERTEX
  8
FOREGROUND
  6
CONTINUOUS
 10
11.925000
 20
9.808333
  0
VERTEX
  8
FOREGROUND
  6
CONTINUOUS
 10
11.940000
 20
9.691667
  0
VERTEX
  8
FOREGROUND
  6
CONTINUOUS
 10
11.948333
 20
9.571667
  0
VERTEX
  8
FOREGROUND
  6
CONTINUOUS
 10
11.951667
 20
9.451667
  0
VERTEX
  8
FOREGROUND
  6
CONTINUOUS
 10
11.951667
 20
2.405000
  0
VERTEX
  8
FOREGROUND
  6
CONTINUOUS
 10
11.948333
 20
2.283333
  0
VERTEX
  8
FOREGROUND
  6
CONTINUOUS
 10
11.940000
 20
2.165000
  0
VERTEX
  8
FOREGROUND
  6
CONTINUOUS
 10
11.925000
 20
2.046667
  0
VERTEX
  8
FOREGROUND
  6
CONTINUOUS
 10
11.905000
 20
1.931667
  0
VERTEX
  8
FOREGROUND
  6
CONTINUOUS
 10
11.878333
 20
1.818333
  0
VERTEX
  8
FOREGROUND
  6
CONTINUOUS
 10
11.846667
 20
1.706667
  0
VERTEX
  8
FOREGROUND
  6
CONTINUOUS
 10
11.810000
 20
1.598333
  0
VERTEX
  8
FOREGROUND
  6
CONTINUOUS
 10
11.768333
 20
1.491667
  0
VERTEX
  8
FOREGROUND
  6
CONTINUOUS
 10
11.720000
 20
1.386667
  0
VERTEX
  8
FOREGROUND
  6
CONTINUOUS
 10
11.668333
 20
1.286667
  0
VERTEX
  8
FOREGROUND
  6
CONTINUOUS
 10
11.611667
 20
1.188333
  0
VERTEX
  8
FOREGROUND
  6
CONTINUOUS
 10
11.551667
 20
1.093333
  0
VERTEX
  8
FOREGROUND
  6
CONTINUOUS
 10
11.485000
 20
1.000000
  0
VERTEX
  8
FOREGROUND
  6
CONTINUOUS
 10
11.416667
 20
0.911667
  0
VERTEX
  8
FOREGROUND
  6
CONTINUOUS
 10
11.341667
 20
0.826667
  0
VERTEX
  8
FOREGROUND
  6
CONTINUOUS
 10
11.265000
 20
0.745000
  0
VERTEX
  8
FOREGROUND
  6
CONTINUOUS
 10
11.183333
 20
0.668333
  0
VERTEX
  8
FOREGROUND
  6
CONTINUOUS
 10
11.098333
 20
0.593333
  0
VERTEX
  8
FOREGROUND
  6
CONTINUOUS
 10
11.010000
 20
0.525000
  0
VERTEX
  8
FOREGROUND
  6
CONTINUOUS
 10
10.916667
 20
0.458333
  0
VERTEX
  8
FOREGROUND
  6
CONTINUOUS
 10
10.821667
 20
0.398333
  0
VERTEX
  8
FOREGROUND
  6
CONTINUOUS
 10
10.723333
 20
0.341667
  0
VERTEX
  8
FOREGROUND
  6
CONTINUOUS
 10
10.623333
 20
0.290000
  0
VERTEX
  8
FOREGROUND
  6
CONTINUOUS
 10
10.518333
 20
0.241667
  0
VERTEX
  8
FOREGROUND
  6
CONTINUOUS
 10
10.411667
 20
0.200000
  0
VERTEX
  8
FOREGROUND
  6
CONTINUOUS
 10
10.303333
 20
0.163333
  0
VERTEX
  8
FOREGROUND
  6
CONTINUOUS
 10
10.191667
 20
0.131667
  0
VERTEX
  8
FOREGROUND
  6
CONTINUOUS
 10
10.078333
 20
0.105000
  0
VERTEX
  8
FOREGROUND
  6
CONTINUOUS
 10
9.963333
 20
0.085000
  0
VERTEX
  8
FOREGROUND
  6
CONTINUOUS
 10
9.845000
 20
0.070000
  0
VERTEX
  8
FOREGROUND
  6
CONTINUOUS
 10
9.726667
 20
0.061667
  0
VERTEX
  8
FOREGROUND
  6
CONTINUOUS
 10
9.605000
 20
0.058333
  0
VERTEX
  8
FOREGROUND
  6
CONTINUOUS
 10
2.396667
 20
0.058333
  0
VERTEX
  8
FOREGROUND
  6
CONTINUOUS
 10
2.276667
 20
0.061667
  0
VERTEX
  8
FOREGROUND
  6
CONTINUOUS
 10
2.156667
 20
0.070000
  0
VERTEX
  8
FOREGROUND
  6
CONTINUOUS
 10
2.040000
 20
0.085000
  0
VERTEX
  8
FOREGROUND
  6
CONTINUOUS
 10
1.923333
 20
0.105000
  0
VERTEX
  8
FOREGROUND
  6
CONTINUOUS
 10
1.810000
 20
0.131667
  0
VERTEX
  8
FOREGROUND
  6
CONTINUOUS
 10
1.700000
 20
0.163333
  0
VERTEX
  8
FOREGROUND
  6
CONTINUOUS
 10
1.590000
 20
0.200000
  0
VERTEX
  8
FOREGROUND
  6
CONTINUOUS
 10
1.483333
 20
0.241667
  0
VERTEX
  8
FOREGROUND
  6
CONTINUOUS
 10
1.380000
 20
0.290000
  0
VERTEX
  8
FOREGROUND
  6
CONTINUOUS
 10
1.278333
 20
0.341667
  0
VERTEX
  8
FOREGROUND
  6
CONTINUOUS
 10
1.180000
 20
0.398333
  0
VERTEX
  8
FOREGROUND
  6
CONTINUOUS
 10
1.085000
 20
0.458333
  0
VERTEX
  8
FOREGROUND
  6
CONTINUOUS
 10
0.993333
 20
0.525000
  0
VERTEX
  8
FOREGROUND
  6
CONTINUOUS
 10
0.905000
 20
0.593333
  0
VERTEX
  8
FOREGROUND
  6
CONTINUOUS
 10
0.818333
 20
0.668333
  0
VERTEX
  8
FOREGROUND
  6
CONTINUOUS
 10
0.738333
 20
0.745000
  0
VERTEX
  8
FOREGROUND
  6
CONTINUOUS
 10
0.660000
 20
0.826667
  0
VERTEX
  8
FOREGROUND
  6
CONTINUOUS
 10
0.586667
 20
0.911667
  0
VERTEX
  8
FOREGROUND
  6
CONTINUOUS
 10
0.516667
 20
1.000000
  0
VERTEX
  8
FOREGROUND
  6
CONTINUOUS
 10
0.451667
 20
1.093333
  0
VERTEX
  8
FOREGROUND
  6
CONTINUOUS
 10
0.390000
 20
1.188333
  0
VERTEX
  8
FOREGROUND
  6
CONTINUOUS
 10
0.333333
 20
1.286667
  0
VERTEX
  8
FOREGROUND
  6
CONTINUOUS
 10
0.281667
 20
1.386667
  0
VERTEX
  8
FOREGROUND
  6
CONTINUOUS
 10
0.235000
 20
1.491667
  0
VERTEX
  8
FOREGROUND
  6
CONTINUOUS
 10
0.193333
 20
1.598333
  0
VERTEX
  8
FOREGROUND
  6
CONTINUOUS
 10
0.155000
 20
1.706667
  0
VERTEX
  8
FOREGROUND
  6
CONTINUOUS
 10
0.123333
 20
1.818333
  0
VERTEX
  8
FOREGROUND
  6
CONTINUOUS
 10
0.098333
 20
1.931667
  0
VERTEX
  8
FOREGROUND
  6
CONTINUOUS
 10
0.076667
 20
2.046667
  0
VERTEX
  8
FOREGROUND
  6
CONTINUOUS
 10
0.061667
 20
2.165000
  0
VERTEX
  8
FOREGROUND
  6
CONTINUOUS
 10
0.053333
 20
2.283333
  0
VERTEX
  8
FOREGROUND
  6
CONTINUOUS
 10
0.050000
 20
2.405000
  0
VERTEX
  8
FOREGROUND
  6
CONTINUOUS
 10
0.050000
 20
9.451667
  0
VERTEX
  8
FOREGROUND
  6
CONTINUOUS
 10
0.053333
 20
9.571667
  0
VERTEX
  8
FOREGROUND
  6
CONTINUOUS
 10
0.061667
 20
9.691667
  0
VERTEX
  8
FOREGROUND
  6
CONTINUOUS
 10
0.076667
 20
9.808333
  0
VERTEX
  8
FOREGROUND
  6
CONTINUOUS
 10
0.098333
 20
9.925000
  0
VERTEX
  8
FOREGROUND
  6
CONTINUOUS
 10
0.123333
 20
10.038333
  0
VERTEX
  8
FOREGROUND
  6
CONTINUOUS
 10
0.155000
 20
10.148333
  0
VERTEX
  8
FOREGROUND
  6
CONTINUOUS
 10
0.193333
 20
10.258333
  0
VERTEX
  8
FOREGROUND
  6
CONTINUOUS
 10
0.235000
 20
10.365000
  0
VERTEX
  8
FOREGROUND
  6
CONTINUOUS
 10
0.281667
 20
10.468333
  0
VERTEX
  8
FOREGROUND
  6
CONTINUOUS
 10
0.333333
 20
10.570000
  0
VERTEX
  8
FOREGROUND
  6
CONTINUOUS
 10
0.390000
 20
10.668333
  0
VERTEX
  8
FOREGROUND
  6
CONTINUOUS
 10
0.451667
 20
10.763333
  0
VERTEX
  8
FOREGROUND
  6
CONTINUOUS
 10
0.516667
 20
10.855000
  0
VERTEX
  8
FOREGROUND
  6
CONTINUOUS
 10
0.586667
 20
10.943333
  0
VERTEX
  8
FOREGROUND
  6
CONTINUOUS
 10
0.660000
 20
11.030000
  0
VERTEX
  8
FOREGROUND
  6
CONTINUOUS
 10
0.738333
 20
11.110000
  0
VERTEX
  8
FOREGROUND
  6
CONTINUOUS
 10
0.818333
 20
11.188333
  0
VERTEX
  8
FOREGROUND
  6
CONTINUOUS
 10
0.905000
 20
11.261667
  0
VERTEX
  8
FOREGROUND
  6
CONTINUOUS
 10
0.993333
 20
11.331667
  0
VERTEX
  8
FOREGROUND
  6
CONTINUOUS
 10
1.085000
 20
11.396667
  0
VERTEX
  8
FOREGROUND
  6
CONTINUOUS
 10
1.180000
 20
11.458333
  0
VERTEX
  8
FOREGROUND
  6
CONTINUOUS
 10
1.278333
 20
11.515000
  0
VERTEX
  8
FOREGROUND
  6
CONTINUOUS
 10
1.380000
 20
11.566667
  0
VERTEX
  8
FOREGROUND
  6
CONTINUOUS
 10
1.483333
 20
11.613333
  0
VERTEX
  8
FOREGROUND
  6
CONTINUOUS
 10
1.590000
 20
11.655000
  0
VERTEX
  8
FOREGROUND
  6
CONTINUOUS
 10
1.700000
 20
11.693333
  0
VERTEX
  8
FOREGROUND
  6
CONTINUOUS
 10
1.810000
 20
11.725000
  0
VERTEX
  8
FOREGROUND
  6
CONTINUOUS
 10
1.923333
 20
11.750000
  0
VERTEX
  8
FOREGROUND
  6
CONTINUOUS
 10
2.040000
 20
11.771667
  0
VERTEX
  8
FOREGROUND
  6
CONTINUOUS
 10
2.156667
 20
11.786667
  0
VERTEX
  8
FOREGROUND
  6
CONTINUOUS
 10
2.276667
 20
11.795000
  0
SEQEND
  8
0
  0
ENDSEC
  0
EOF
