  0
SECTION
  2
HEADER
  9
$ACADVER
  1
AC1006
  9
$EXTMIN
 10
0.000000
 20
0.000000
  9
$EXTMAX
 10
1.460000
 20
4.151667
  9
$LTSCALE
 40
0.166667
  9
$PDMODE
 70
    35
  9
$PDSIZE
 40
0.133333
  0
ENDSEC
  0
SECTION
  2
TABLES
  0
TABLE
  2
LTYPE
 70
     9
  0
LTYPE
  2
CONTINUOUS
 70
    64
  3
Solid line
 72
    65
 73
     0
 40
0.000000
  0
LTYPE
  2
DASHED
 70
    64
  3
__ __ __ __ __ __ __ __ __ __ __ __ __ __ __
 72
    65
 73
     2
 40
0.001250
 49
0.000833
 49
-0.000417
  0
LTYPE
  2
HIDDEN
 70
    64
  3
 _ _ _ _ _ _ _ _ _ _ _ _ _ _ _ _ _ _ _ _ _ _
 72
    65
 73
     2
 40
0.000625
 49
0.000417
 49
-0.000208
  0
LTYPE
  2
CENTER
 70
    64
  3
____ _ ____ _ ____ _ ____ _ ____ _ ____ _ ____
 72
    65
 73
     4
 40
0.003333
 49
0.002083
 49
-0.000417
 49
0.000417
 49
-0.000417
  0
LTYPE
  2
PHANTOM
 70
    64
  3
_____ _ _ _____ _ _ _____ _ _ _____ _ _ ____
 72
    65
 73
     6
 40
0.004167
 49
0.002083
 49
-0.000417
 49
0.000417
 49
-0.000417
 49
0.000417
 49
-0.000417
  0
LTYPE
  2
DOT
 70
    64
  3
...............................................
 72
    65
 73
     2
 40
0.000417
 49
0.000000
 49
-0.000417
  0
LTYPE
  2
DASHDOT
 70
    64
  3
__ . __ . __ . __ . __ . __ . __ . __ . __ . __
 72
    65
 73
     4
 40
0.001667
 49
0.000833
 49
-0.000417
 49
0.000000
 49
-0.000417
  0
LTYPE
  2
BORDER
 70
    64
  3
__ __ . __ __ . __ __ . __ __ . __ __ . __ __
 72
    65
 73
     6
 40
0.002917
 49
0.000833
 49
-0.000417
 49
0.000833
 49
-0.000417
 49
0.000000
 49
-0.000417
  0
LTYPE
  2
DIVIDE
 70
    64
  3
__ . . __ . . __ . . __ . . __ . . __ . . __
 72
    65
 73
     6
 40
0.002083
 49
0.000833
 49
-0.000417
 49
0.000000
 49
-0.000417
 49
0.000000
 49
-0.000417
  0
LTYPE
  2
DOTDOT
 70
    64
  3
 . .  . .  . .  . .  . .  . . 
 72
    65
 73
     5
 40
0.000917
 49
-0.000417
 49
0.000000
 49
-0.000417
 49
0.000000
 49
-0.000417
  0
ENDTAB
  0
TABLE
  2
STYLE
 70
     2
  0
STYLE
 70
     0
  2
SN0
 40
0.000000
 41
0.001667
 50
0.000000
 71
     0
 42
0.000000
  3
ROMAND
  0
STYLE
 70
    68
  2
SV0
 40
0.000000
 41
0.001667
 50
0.000000
 71
     0
 42
0.000000
  3
ROMAND
  0
ENDTAB
  0
TABLE
  2
LAYER
 70
     2
  0
LAYER
  2
FOREGROUND
 70
    64
 62
     7
  6
CONTINUOUS
  0
LAYER
  2
BACKGROUND
 70
    65
 62
    -7
  6
CONTINUOUS
  0
ENDTAB
  0
ENDSEC
  0
SECTION
  2
ENTITIES
  0
POLYLINE
  8
FOREGROUND
  6
CONTINUOUS
 66
     1
 40
0.010000
 41
0.010000
 70
     1
  0
VERTEX
  8
FOREGROUND
  6
CONTINUOUS
 10
0.298333
 20
3.996667
  0
VERTEX
  8
FOREGROUND
  6
CONTINUOUS
 10
1.048333
 20
3.996667
  0
VERTEX
  8
FOREGROUND
  6
CONTINUOUS
 10
1.073333
 20
3.995000
  0
VERTEX
  8
FOREGROUND
  6
CONTINUOUS
 10
1.098333
 20
3.991667
  0
VERTEX
  8
FOREGROUND
  6
CONTINUOUS
 10
1.121667
 20
3.985000
  0
VERTEX
  8
FOREGROUND
  6
CONTINUOUS
 10
1.145000
 20
3.976667
  0
VERTEX
  8
FOREGROUND
  6
CONTINUOUS
 10
1.166667
 20
3.966667
  0
VERTEX
  8
FOREGROUND
  6
CONTINUOUS
 10
1.186667
 20
3.953333
  0
VERTEX
  8
FOREGROUND
  6
CONTINUOUS
 10
1.206667
 20
3.940000
  0
VERTEX
  8
FOREGROUND
  6
CONTINUOUS
 10
1.223333
 20
3.923333
  0
VERTEX
  8
FOREGROUND
  6
CONTINUOUS
 10
1.240000
 20
3.906667
  0
VERTEX
  8
FOREGROUND
  6
CONTINUOUS
 10
1.255000
 20
3.886667
  0
VERTEX
  8
FOREGROUND
  6
CONTINUOUS
 10
1.266667
 20
3.866667
  0
VERTEX
  8
FOREGROUND
  6
CONTINUOUS
 10
1.276667
 20
3.845000
  0
VERTEX
  8
FOREGROUND
  6
CONTINUOUS
 10
1.285000
 20
3.821667
  0
VERTEX
  8
FOREGROUND
  6
CONTINUOUS
 10
1.291667
 20
3.798333
  0
VERTEX
  8
FOREGROUND
  6
CONTINUOUS
 10
1.295000
 20
3.773333
  0
VERTEX
  8
FOREGROUND
  6
CONTINUOUS
 10
1.296667
 20
3.748333
  0
VERTEX
  8
FOREGROUND
  6
CONTINUOUS
 10
1.296667
 20
0.306667
  0
VERTEX
  8
FOREGROUND
  6
CONTINUOUS
 10
1.295000
 20
0.281667
  0
VERTEX
  8
FOREGROUND
  6
CONTINUOUS
 10
1.291667
 20
0.256667
  0
VERTEX
  8
FOREGROUND
  6
CONTINUOUS
 10
1.285000
 20
0.233333
  0
VERTEX
  8
FOREGROUND
  6
CONTINUOUS
 10
1.276667
 20
0.210000
  0
VERTEX
  8
FOREGROUND
  6
CONTINUOUS
 10
1.266667
 20
0.188333
  0
VERTEX
  8
FOREGROUND
  6
CONTINUOUS
 10
1.255000
 20
0.168333
  0
VERTEX
  8
FOREGROUND
  6
CONTINUOUS
 10
1.240000
 20
0.148333
  0
VERTEX
  8
FOREGROUND
  6
CONTINUOUS
 10
1.223333
 20
0.131667
  0
VERTEX
  8
FOREGROUND
  6
CONTINUOUS
 10
1.206667
 20
0.115000
  0
VERTEX
  8
FOREGROUND
  6
CONTINUOUS
 10
1.186667
 20
0.100000
  0
VERTEX
  8
FOREGROUND
  6
CONTINUOUS
 10
1.166667
 20
0.088333
  0
VERTEX
  8
FOREGROUND
  6
CONTINUOUS
 10
1.145000
 20
0.078333
  0
VERTEX
  8
FOREGROUND
  6
CONTINUOUS
 10
1.121667
 20
0.070000
  0
VERTEX
  8
FOREGROUND
  6
CONTINUOUS
 10
1.098333
 20
0.063333
  0
VERTEX
  8
FOREGROUND
  6
CONTINUOUS
 10
1.073333
 20
0.060000
  0
VERTEX
  8
FOREGROUND
  6
CONTINUOUS
 10
1.048333
 20
0.058333
  0
VERTEX
  8
FOREGROUND
  6
CONTINUOUS
 10
0.298333
 20
0.058333
  0
VERTEX
  8
FOREGROUND
  6
CONTINUOUS
 10
0.273333
 20
0.060000
  0
VERTEX
  8
FOREGROUND
  6
CONTINUOUS
 10
0.248333
 20
0.063333
  0
VERTEX
  8
FOREGROUND
  6
CONTINUOUS
 10
0.225000
 20
0.070000
  0
VERTEX
  8
FOREGROUND
  6
CONTINUOUS
 10
0.201667
 20
0.078333
  0
VERTEX
  8
FOREGROUND
  6
CONTINUOUS
 10
0.180000
 20
0.088333
  0
VERTEX
  8
FOREGROUND
  6
CONTINUOUS
 10
0.160000
 20
0.100000
  0
VERTEX
  8
FOREGROUND
  6
CONTINUOUS
 10
0.140000
 20
0.115000
  0
VERTEX
  8
FOREGROUND
  6
CONTINUOUS
 10
0.123333
 20
0.131667
  0
VERTEX
  8
FOREGROUND
  6
CONTINUOUS
 10
0.106667
 20
0.148333
  0
VERTEX
  8
FOREGROUND
  6
CONTINUOUS
 10
0.093333
 20
0.168333
  0
VERTEX
  8
FOREGROUND
  6
CONTINUOUS
 10
0.080000
 20
0.188333
  0
VERTEX
  8
FOREGROUND
  6
CONTINUOUS
 10
0.070000
 20
0.210000
  0
VERTEX
  8
FOREGROUND
  6
CONTINUOUS
 10
0.061667
 20
0.233333
  0
VERTEX
  8
FOREGROUND
  6
CONTINUOUS
 10
0.055000
 20
0.256667
  0
VERTEX
  8
FOREGROUND
  6
CONTINUOUS
 10
0.051667
 20
0.281667
  0
VERTEX
  8
FOREGROUND
  6
CONTINUOUS
 10
0.050000
 20
0.306667
  0
VERTEX
  8
FOREGROUND
  6
CONTINUOUS
 10
0.050000
 20
3.748333
  0
VERTEX
  8
FOREGROUND
  6
CONTINUOUS
 10
0.051667
 20
3.773333
  0
VERTEX
  8
FOREGROUND
  6
CONTINUOUS
 10
0.055000
 20
3.798333
  0
VERTEX
  8
FOREGROUND
  6
CONTINUOUS
 10
0.061667
 20
3.821667
  0
VERTEX
  8
FOREGROUND
  6
CONTINUOUS
 10
0.070000
 20
3.845000
  0
VERTEX
  8
FOREGROUND
  6
CONTINUOUS
 10
0.080000
 20
3.866667
  0
VERTEX
  8
FOREGROUND
  6
CONTINUOUS
 10
0.093333
 20
3.886667
  0
VERTEX
  8
FOREGROUND
  6
CONTINUOUS
 10
0.106667
 20
3.906667
  0
VERTEX
  8
FOREGROUND
  6
CONTINUOUS
 10
0.123333
 20
3.923333
  0
VERTEX
  8
FOREGROUND
  6
CONTINUOUS
 10
0.140000
 20
3.940000
  0
VERTEX
  8
FOREGROUND
  6
CONTINUOUS
 10
0.160000
 20
3.953333
  0
VERTEX
  8
FOREGROUND
  6
CONTINUOUS
 10
0.180000
 20
3.966667
  0
VERTEX
  8
FOREGROUND
  6
CONTINUOUS
 10
0.201667
 20
3.976667
  0
VERTEX
  8
FOREGROUND
  6
CONTINUOUS
 10
0.225000
 20
3.985000
  0
VERTEX
  8
FOREGROUND
  6
CONTINUOUS
 10
0.248333
 20
3.991667
  0
VERTEX
  8
FOREGROUND
  6
CONTINUOUS
 10
0.273333
 20
3.995000
  0
SEQEND
  8
0
  0
ENDSEC
  0
EOF
