  0
SECTION
  2
HEADER
  9
$ACADVER
  1
AC1006
  9
$EXTMIN
 10
0.000000
 20
0.000000
  9
$EXTMAX
 10
1.440000
 20
6.143333
  9
$LTSCALE
 40
0.166667
  9
$PDMODE
 70
    35
  9
$PDSIZE
 40
0.133333
  0
ENDSEC
  0
SECTION
  2
TABLES
  0
TABLE
  2
LTYPE
 70
     9
  0
LTYPE
  2
CONTINUOUS
 70
    64
  3
Solid line
 72
    65
 73
     0
 40
0.000000
  0
LTYPE
  2
DASHED
 70
    64
  3
__ __ __ __ __ __ __ __ __ __ __ __ __ __ __
 72
    65
 73
     2
 40
0.001250
 49
0.000833
 49
-0.000417
  0
LTYPE
  2
HIDDEN
 70
    64
  3
 _ _ _ _ _ _ _ _ _ _ _ _ _ _ _ _ _ _ _ _ _ _
 72
    65
 73
     2
 40
0.000625
 49
0.000417
 49
-0.000208
  0
LTYPE
  2
CENTER
 70
    64
  3
____ _ ____ _ ____ _ ____ _ ____ _ ____ _ ____
 72
    65
 73
     4
 40
0.003333
 49
0.002083
 49
-0.000417
 49
0.000417
 49
-0.000417
  0
LTYPE
  2
PHANTOM
 70
    64
  3
_____ _ _ _____ _ _ _____ _ _ _____ _ _ ____
 72
    65
 73
     6
 40
0.004167
 49
0.002083
 49
-0.000417
 49
0.000417
 49
-0.000417
 49
0.000417
 49
-0.000417
  0
LTYPE
  2
DOT
 70
    64
  3
...............................................
 72
    65
 73
     2
 40
0.000417
 49
0.000000
 49
-0.000417
  0
LTYPE
  2
DASHDOT
 70
    64
  3
__ . __ . __ . __ . __ . __ . __ . __ . __ . __
 72
    65
 73
     4
 40
0.001667
 49
0.000833
 49
-0.000417
 49
0.000000
 49
-0.000417
  0
LTYPE
  2
BORDER
 70
    64
  3
__ __ . __ __ . __ __ . __ __ . __ __ . __ __
 72
    65
 73
     6
 40
0.002917
 49
0.000833
 49
-0.000417
 49
0.000833
 49
-0.000417
 49
0.000000
 49
-0.000417
  0
LTYPE
  2
DIVIDE
 70
    64
  3
__ . . __ . . __ . . __ . . __ . . __ . . __
 72
    65
 73
     6
 40
0.002083
 49
0.000833
 49
-0.000417
 49
0.000000
 49
-0.000417
 49
0.000000
 49
-0.000417
  0
LTYPE
  2
DOTDOT
 70
    64
  3
 . .  . .  . .  . .  . .  . . 
 72
    65
 73
     5
 40
0.000917
 49
-0.000417
 49
0.000000
 49
-0.000417
 49
0.000000
 49
-0.000417
  0
ENDTAB
  0
TABLE
  2
STYLE
 70
     2
  0
STYLE
 70
     0
  2
SN0
 40
0.000000
 41
0.001667
 50
0.000000
 71
     0
 42
0.000000
  3
ROMAND
  0
STYLE
 70
    68
  2
SV0
 40
0.000000
 41
0.001667
 50
0.000000
 71
     0
 42
0.000000
  3
ROMAND
  0
ENDTAB
  0
TABLE
  2
LAYER
 70
     2
  0
LAYER
  2
FOREGROUND
 70
    64
 62
     7
  6
CONTINUOUS
  0
LAYER
  2
BACKGROUND
 70
    65
 62
    -7
  6
CONTINUOUS
  0
ENDTAB
  0
ENDSEC
  0
SECTION
  2
ENTITIES
  0
POLYLINE
  8
FOREGROUND
  6
CONTINUOUS
 66
     1
 40
0.010000
 41
0.010000
 70
     1
  0
VERTEX
  8
FOREGROUND
  6
CONTINUOUS
 10
0.295000
 20
5.988333
  0
VERTEX
  8
FOREGROUND
  6
CONTINUOUS
 10
1.031667
 20
5.988333
  0
VERTEX
  8
FOREGROUND
  6
CONTINUOUS
 10
1.056667
 20
5.986667
  0
VERTEX
  8
FOREGROUND
  6
CONTINUOUS
 10
1.081667
 20
5.983333
  0
VERTEX
  8
FOREGROUND
  6
CONTINUOUS
 10
1.105000
 20
5.976667
  0
VERTEX
  8
FOREGROUND
  6
CONTINUOUS
 10
1.126667
 20
5.968333
  0
VERTEX
  8
FOREGROUND
  6
CONTINUOUS
 10
1.148333
 20
5.958333
  0
VERTEX
  8
FOREGROUND
  6
CONTINUOUS
 10
1.168333
 20
5.946667
  0
VERTEX
  8
FOREGROUND
  6
CONTINUOUS
 10
1.188333
 20
5.931667
  0
VERTEX
  8
FOREGROUND
  6
CONTINUOUS
 10
1.205000
 20
5.916667
  0
VERTEX
  8
FOREGROUND
  6
CONTINUOUS
 10
1.221667
 20
5.898333
  0
VERTEX
  8
FOREGROUND
  6
CONTINUOUS
 10
1.235000
 20
5.880000
  0
VERTEX
  8
FOREGROUND
  6
CONTINUOUS
 10
1.246667
 20
5.860000
  0
VERTEX
  8
FOREGROUND
  6
CONTINUOUS
 10
1.258333
 20
5.838333
  0
VERTEX
  8
FOREGROUND
  6
CONTINUOUS
 10
1.265000
 20
5.816667
  0
VERTEX
  8
FOREGROUND
  6
CONTINUOUS
 10
1.271667
 20
5.793333
  0
VERTEX
  8
FOREGROUND
  6
CONTINUOUS
 10
1.275000
 20
5.768333
  0
VERTEX
  8
FOREGROUND
  6
CONTINUOUS
 10
1.276667
 20
5.743333
  0
VERTEX
  8
FOREGROUND
  6
CONTINUOUS
 10
1.276667
 20
0.303333
  0
VERTEX
  8
FOREGROUND
  6
CONTINUOUS
 10
1.275000
 20
0.278333
  0
VERTEX
  8
FOREGROUND
  6
CONTINUOUS
 10
1.271667
 20
0.253333
  0
VERTEX
  8
FOREGROUND
  6
CONTINUOUS
 10
1.265000
 20
0.230000
  0
VERTEX
  8
FOREGROUND
  6
CONTINUOUS
 10
1.258333
 20
0.208333
  0
VERTEX
  8
FOREGROUND
  6
CONTINUOUS
 10
1.246667
 20
0.186667
  0
VERTEX
  8
FOREGROUND
  6
CONTINUOUS
 10
1.235000
 20
0.166667
  0
VERTEX
  8
FOREGROUND
  6
CONTINUOUS
 10
1.221667
 20
0.146667
  0
VERTEX
  8
FOREGROUND
  6
CONTINUOUS
 10
1.205000
 20
0.130000
  0
VERTEX
  8
FOREGROUND
  6
CONTINUOUS
 10
1.188333
 20
0.113333
  0
VERTEX
  8
FOREGROUND
  6
CONTINUOUS
 10
1.168333
 20
0.100000
  0
VERTEX
  8
FOREGROUND
  6
CONTINUOUS
 10
1.148333
 20
0.088333
  0
VERTEX
  8
FOREGROUND
  6
CONTINUOUS
 10
1.126667
 20
0.076667
  0
VERTEX
  8
FOREGROUND
  6
CONTINUOUS
 10
1.105000
 20
0.070000
  0
VERTEX
  8
FOREGROUND
  6
CONTINUOUS
 10
1.081667
 20
0.063333
  0
VERTEX
  8
FOREGROUND
  6
CONTINUOUS
 10
1.056667
 20
0.060000
  0
VERTEX
  8
FOREGROUND
  6
CONTINUOUS
 10
1.031667
 20
0.058333
  0
VERTEX
  8
FOREGROUND
  6
CONTINUOUS
 10
0.295000
 20
0.058333
  0
VERTEX
  8
FOREGROUND
  6
CONTINUOUS
 10
0.270000
 20
0.060000
  0
VERTEX
  8
FOREGROUND
  6
CONTINUOUS
 10
0.245000
 20
0.063333
  0
VERTEX
  8
FOREGROUND
  6
CONTINUOUS
 10
0.221667
 20
0.070000
  0
VERTEX
  8
FOREGROUND
  6
CONTINUOUS
 10
0.200000
 20
0.076667
  0
VERTEX
  8
FOREGROUND
  6
CONTINUOUS
 10
0.178333
 20
0.088333
  0
VERTEX
  8
FOREGROUND
  6
CONTINUOUS
 10
0.158333
 20
0.100000
  0
VERTEX
  8
FOREGROUND
  6
CONTINUOUS
 10
0.140000
 20
0.113333
  0
VERTEX
  8
FOREGROUND
  6
CONTINUOUS
 10
0.121667
 20
0.130000
  0
VERTEX
  8
FOREGROUND
  6
CONTINUOUS
 10
0.106667
 20
0.146667
  0
VERTEX
  8
FOREGROUND
  6
CONTINUOUS
 10
0.091667
 20
0.166667
  0
VERTEX
  8
FOREGROUND
  6
CONTINUOUS
 10
0.080000
 20
0.186667
  0
VERTEX
  8
FOREGROUND
  6
CONTINUOUS
 10
0.070000
 20
0.208333
  0
VERTEX
  8
FOREGROUND
  6
CONTINUOUS
 10
0.061667
 20
0.230000
  0
VERTEX
  8
FOREGROUND
  6
CONTINUOUS
 10
0.055000
 20
0.253333
  0
VERTEX
  8
FOREGROUND
  6
CONTINUOUS
 10
0.051667
 20
0.278333
  0
VERTEX
  8
FOREGROUND
  6
CONTINUOUS
 10
0.050000
 20
0.303333
  0
VERTEX
  8
FOREGROUND
  6
CONTINUOUS
 10
0.050000
 20
5.743333
  0
VERTEX
  8
FOREGROUND
  6
CONTINUOUS
 10
0.051667
 20
5.768333
  0
VERTEX
  8
FOREGROUND
  6
CONTINUOUS
 10
0.055000
 20
5.793333
  0
VERTEX
  8
FOREGROUND
  6
CONTINUOUS
 10
0.061667
 20
5.816667
  0
VERTEX
  8
FOREGROUND
  6
CONTINUOUS
 10
0.070000
 20
5.838333
  0
VERTEX
  8
FOREGROUND
  6
CONTINUOUS
 10
0.080000
 20
5.860000
  0
VERTEX
  8
FOREGROUND
  6
CONTINUOUS
 10
0.091667
 20
5.880000
  0
VERTEX
  8
FOREGROUND
  6
CONTINUOUS
 10
0.106667
 20
5.898333
  0
VERTEX
  8
FOREGROUND
  6
CONTINUOUS
 10
0.121667
 20
5.916667
  0
VERTEX
  8
FOREGROUND
  6
CONTINUOUS
 10
0.140000
 20
5.931667
  0
VERTEX
  8
FOREGROUND
  6
CONTINUOUS
 10
0.158333
 20
5.946667
  0
VERTEX
  8
FOREGROUND
  6
CONTINUOUS
 10
0.178333
 20
5.958333
  0
VERTEX
  8
FOREGROUND
  6
CONTINUOUS
 10
0.200000
 20
5.968333
  0
VERTEX
  8
FOREGROUND
  6
CONTINUOUS
 10
0.221667
 20
5.976667
  0
VERTEX
  8
FOREGROUND
  6
CONTINUOUS
 10
0.245000
 20
5.983333
  0
VERTEX
  8
FOREGROUND
  6
CONTINUOUS
 10
0.270000
 20
5.986667
  0
SEQEND
  8
0
  0
ENDSEC
  0
EOF
