  0
SECTION
  2
HEADER
  9
$ACADVER
  1
AC1006
  9
$EXTMIN
 10
0.000000
 20
0.000000
  9
$EXTMAX
 10
1.286667
 20
1.285000
  9
$LTSCALE
 40
0.166667
  9
$PDMODE
 70
    35
  9
$PDSIZE
 40
0.133333
  0
ENDSEC
  0
SECTION
  2
TABLES
  0
TABLE
  2
LTYPE
 70
     9
  0
LTYPE
  2
CONTINUOUS
 70
    64
  3
Solid line
 72
    65
 73
     0
 40
0.000000
  0
LTYPE
  2
DASHED
 70
    64
  3
__ __ __ __ __ __ __ __ __ __ __ __ __ __ __
 72
    65
 73
     2
 40
0.001250
 49
0.000833
 49
-0.000417
  0
LTYPE
  2
HIDDEN
 70
    64
  3
 _ _ _ _ _ _ _ _ _ _ _ _ _ _ _ _ _ _ _ _ _ _
 72
    65
 73
     2
 40
0.000625
 49
0.000417
 49
-0.000208
  0
LTYPE
  2
CENTER
 70
    64
  3
____ _ ____ _ ____ _ ____ _ ____ _ ____ _ ____
 72
    65
 73
     4
 40
0.003333
 49
0.002083
 49
-0.000417
 49
0.000417
 49
-0.000417
  0
LTYPE
  2
PHANTOM
 70
    64
  3
_____ _ _ _____ _ _ _____ _ _ _____ _ _ ____
 72
    65
 73
     6
 40
0.004167
 49
0.002083
 49
-0.000417
 49
0.000417
 49
-0.000417
 49
0.000417
 49
-0.000417
  0
LTYPE
  2
DOT
 70
    64
  3
...............................................
 72
    65
 73
     2
 40
0.000417
 49
0.000000
 49
-0.000417
  0
LTYPE
  2
DASHDOT
 70
    64
  3
__ . __ . __ . __ . __ . __ . __ . __ . __ . __
 72
    65
 73
     4
 40
0.001667
 49
0.000833
 49
-0.000417
 49
0.000000
 49
-0.000417
  0
LTYPE
  2
BORDER
 70
    64
  3
__ __ . __ __ . __ __ . __ __ . __ __ . __ __
 72
    65
 73
     6
 40
0.002917
 49
0.000833
 49
-0.000417
 49
0.000833
 49
-0.000417
 49
0.000000
 49
-0.000417
  0
LTYPE
  2
DIVIDE
 70
    64
  3
__ . . __ . . __ . . __ . . __ . . __ . . __
 72
    65
 73
     6
 40
0.002083
 49
0.000833
 49
-0.000417
 49
0.000000
 49
-0.000417
 49
0.000000
 49
-0.000417
  0
LTYPE
  2
DOTDOT
 70
    64
  3
 . .  . .  . .  . .  . .  . . 
 72
    65
 73
     5
 40
0.000917
 49
-0.000417
 49
0.000000
 49
-0.000417
 49
0.000000
 49
-0.000417
  0
ENDTAB
  0
TABLE
  2
STYLE
 70
     2
  0
STYLE
 70
     0
  2
SN0
 40
0.000000
 41
0.001667
 50
0.000000
 71
     0
 42
0.000000
  3
ROMAND
  0
STYLE
 70
    68
  2
SV0
 40
0.000000
 41
0.001667
 50
0.000000
 71
     0
 42
0.000000
  3
ROMAND
  0
ENDTAB
  0
TABLE
  2
LAYER
 70
     2
  0
LAYER
  2
FOREGROUND
 70
    64
 62
     7
  6
CONTINUOUS
  0
LAYER
  2
BACKGROUND
 70
    65
 62
    -7
  6
CONTINUOUS
  0
ENDTAB
  0
ENDSEC
  0
SECTION
  2
ENTITIES
  0
POLYLINE
  8
FOREGROUND
  6
CONTINUOUS
 66
     1
 40
0.010000
 41
0.010000
 70
     1
  0
VERTEX
  8
FOREGROUND
  6
CONTINUOUS
 10
1.000000
 20
0.050000
  0
VERTEX
  8
FOREGROUND
  6
CONTINUOUS
 10
1.008872
 20
0.050170
  0
VERTEX
  8
FOREGROUND
  6
CONTINUOUS
 10
1.017662
 20
0.050662
  0
VERTEX
  8
FOREGROUND
  6
CONTINUOUS
 10
1.026363
 20
0.051470
  0
VERTEX
  8
FOREGROUND
  6
CONTINUOUS
 10
1.034971
 20
0.052590
  0
VERTEX
  8
FOREGROUND
  6
CONTINUOUS
 10
1.043478
 20
0.054014
  0
VERTEX
  8
FOREGROUND
  6
CONTINUOUS
 10
1.051880
 20
0.055737
  0
VERTEX
  8
FOREGROUND
  6
CONTINUOUS
 10
1.060170
 20
0.057754
  0
VERTEX
  8
FOREGROUND
  6
CONTINUOUS
 10
1.068344
 20
0.060058
  0
VERTEX
  8
FOREGROUND
  6
CONTINUOUS
 10
1.076395
 20
0.062645
  0
VERTEX
  8
FOREGROUND
  6
CONTINUOUS
 10
1.084318
 20
0.065508
  0
VERTEX
  8
FOREGROUND
  6
CONTINUOUS
 10
1.092107
 20
0.068642
  0
VERTEX
  8
FOREGROUND
  6
CONTINUOUS
 10
1.099756
 20
0.072041
  0
VERTEX
  8
FOREGROUND
  6
CONTINUOUS
 10
1.107259
 20
0.075700
  0
VERTEX
  8
FOREGROUND
  6
CONTINUOUS
 10
1.114612
 20
0.079612
  0
VERTEX
  8
FOREGROUND
  6
CONTINUOUS
 10
1.121808
 20
0.083772
  0
VERTEX
  8
FOREGROUND
  6
CONTINUOUS
 10
1.128841
 20
0.088174
  0
VERTEX
  8
FOREGROUND
  6
CONTINUOUS
 10
1.135706
 20
0.092813
  0
VERTEX
  8
FOREGROUND
  6
CONTINUOUS
 10
1.142398
 20
0.097683
  0
VERTEX
  8
FOREGROUND
  6
CONTINUOUS
 10
1.148909
 20
0.102778
  0
VERTEX
  8
FOREGROUND
  6
CONTINUOUS
 10
1.155236
 20
0.108093
  0
VERTEX
  8
FOREGROUND
  6
CONTINUOUS
 10
1.161371
 20
0.113621
  0
VERTEX
  8
FOREGROUND
  6
CONTINUOUS
 10
1.167310
 20
0.119357
  0
VERTEX
  8
FOREGROUND
  6
CONTINUOUS
 10
1.173046
 20
0.125296
  0
VERTEX
  8
FOREGROUND
  6
CONTINUOUS
 10
1.178574
 20
0.131431
  0
VERTEX
  8
FOREGROUND
  6
CONTINUOUS
 10
1.183889
 20
0.137758
  0
VERTEX
  8
FOREGROUND
  6
CONTINUOUS
 10
1.188983
 20
0.144269
  0
VERTEX
  8
FOREGROUND
  6
CONTINUOUS
 10
1.193853
 20
0.150960
  0
VERTEX
  8
FOREGROUND
  6
CONTINUOUS
 10
1.198492
 20
0.157825
  0
VERTEX
  8
FOREGROUND
  6
CONTINUOUS
 10
1.202895
 20
0.164859
  0
VERTEX
  8
FOREGROUND
  6
CONTINUOUS
 10
1.207055
 20
0.172055
  0
VERTEX
  8
FOREGROUND
  6
CONTINUOUS
 10
1.210967
 20
0.179407
  0
VERTEX
  8
FOREGROUND
  6
CONTINUOUS
 10
1.214625
 20
0.186911
  0
VERTEX
  8
FOREGROUND
  6
CONTINUOUS
 10
1.218024
 20
0.194560
  0
VERTEX
  8
FOREGROUND
  6
CONTINUOUS
 10
1.221158
 20
0.202349
  0
VERTEX
  8
FOREGROUND
  6
CONTINUOUS
 10
1.224022
 20
0.210272
  0
VERTEX
  8
FOREGROUND
  6
CONTINUOUS
 10
1.226608
 20
0.218323
  0
VERTEX
  8
FOREGROUND
  6
CONTINUOUS
 10
1.228913
 20
0.226496
  0
VERTEX
  8
FOREGROUND
  6
CONTINUOUS
 10
1.230930
 20
0.234787
  0
VERTEX
  8
FOREGROUND
  6
CONTINUOUS
 10
1.232653
 20
0.243189
  0
VERTEX
  8
FOREGROUND
  6
CONTINUOUS
 10
1.234077
 20
0.251696
  0
VERTEX
  8
FOREGROUND
  6
CONTINUOUS
 10
1.235196
 20
0.260303
  0
VERTEX
  8
FOREGROUND
  6
CONTINUOUS
 10
1.236005
 20
0.269005
  0
VERTEX
  8
FOREGROUND
  6
CONTINUOUS
 10
1.236497
 20
0.277794
  0
VERTEX
  8
FOREGROUND
  6
CONTINUOUS
 10
1.236667
 20
0.286667
  0
VERTEX
  8
FOREGROUND
  6
CONTINUOUS
 10
1.236667
 20
0.998333
  0
VERTEX
  8
FOREGROUND
  6
CONTINUOUS
 10
1.236497
 20
1.007207
  0
VERTEX
  8
FOREGROUND
  6
CONTINUOUS
 10
1.236004
 20
1.015998
  0
VERTEX
  8
FOREGROUND
  6
CONTINUOUS
 10
1.235196
 20
1.024700
  0
VERTEX
  8
FOREGROUND
  6
CONTINUOUS
 10
1.234076
 20
1.033308
  0
VERTEX
  8
FOREGROUND
  6
CONTINUOUS
 10
1.232652
 20
1.041817
  0
VERTEX
  8
FOREGROUND
  6
CONTINUOUS
 10
1.230928
 20
1.050219
  0
VERTEX
  8
FOREGROUND
  6
CONTINUOUS
 10
1.228911
 20
1.058511
  0
VERTEX
  8
FOREGROUND
  6
CONTINUOUS
 10
1.226606
 20
1.066686
  0
VERTEX
  8
FOREGROUND
  6
CONTINUOUS
 10
1.224019
 20
1.074738
  0
VERTEX
  8
FOREGROUND
  6
CONTINUOUS
 10
1.221155
 20
1.082661
  0
VERTEX
  8
FOREGROUND
  6
CONTINUOUS
 10
1.218020
 20
1.090451
  0
VERTEX
  8
FOREGROUND
  6
CONTINUOUS
 10
1.214620
 20
1.098100
  0
VERTEX
  8
FOREGROUND
  6
CONTINUOUS
 10
1.210961
 20
1.105605
  0
VERTEX
  8
FOREGROUND
  6
CONTINUOUS
 10
1.207048
 20
1.112958
  0
VERTEX
  8
FOREGROUND
  6
CONTINUOUS
 10
1.202887
 20
1.120154
  0
VERTEX
  8
FOREGROUND
  6
CONTINUOUS
 10
1.198483
 20
1.127188
  0
VERTEX
  8
FOREGROUND
  6
CONTINUOUS
 10
1.193843
 20
1.134054
  0
VERTEX
  8
FOREGROUND
  6
CONTINUOUS
 10
1.188973
 20
1.140745
  0
VERTEX
  8
FOREGROUND
  6
CONTINUOUS
 10
1.183876
 20
1.147257
  0
VERTEX
  8
FOREGROUND
  6
CONTINUOUS
 10
1.178561
 20
1.153584
  0
VERTEX
  8
FOREGROUND
  6
CONTINUOUS
 10
1.173032
 20
1.159720
  0
VERTEX
  8
FOREGROUND
  6
CONTINUOUS
 10
1.167294
 20
1.165658
  0
VERTEX
  8
FOREGROUND
  6
CONTINUOUS
 10
1.161354
 20
1.171395
  0
VERTEX
  8
FOREGROUND
  6
CONTINUOUS
 10
1.155218
 20
1.176923
  0
VERTEX
  8
FOREGROUND
  6
CONTINUOUS
 10
1.148890
 20
1.182237
  0
VERTEX
  8
FOREGROUND
  6
CONTINUOUS
 10
1.142377
 20
1.187332
  0
VERTEX
  8
FOREGROUND
  6
CONTINUOUS
 10
1.135685
 20
1.192202
  0
VERTEX
  8
FOREGROUND
  6
CONTINUOUS
 10
1.128818
 20
1.196841
  0
VERTEX
  8
FOREGROUND
  6
CONTINUOUS
 10
1.121783
 20
1.201243
  0
VERTEX
  8
FOREGROUND
  6
CONTINUOUS
 10
1.114586
 20
1.205402
  0
VERTEX
  8
FOREGROUND
  6
CONTINUOUS
 10
1.107232
 20
1.209314
  0
VERTEX
  8
FOREGROUND
  6
CONTINUOUS
 10
1.099727
 20
1.212972
  0
VERTEX
  8
FOREGROUND
  6
CONTINUOUS
 10
1.092077
 20
1.216370
  0
VERTEX
  8
FOREGROUND
  6
CONTINUOUS
 10
1.084287
 20
1.219504
  0
VERTEX
  8
FOREGROUND
  6
CONTINUOUS
 10
1.076363
 20
1.222366
  0
VERTEX
  8
FOREGROUND
  6
CONTINUOUS
 10
1.068310
 20
1.224952
  0
VERTEX
  8
FOREGROUND
  6
CONTINUOUS
 10
1.060135
 20
1.227256
  0
VERTEX
  8
FOREGROUND
  6
CONTINUOUS
 10
1.051843
 20
1.229271
  0
VERTEX
  8
FOREGROUND
  6
CONTINUOUS
 10
1.043440
 20
1.230994
  0
VERTEX
  8
FOREGROUND
  6
CONTINUOUS
 10
1.034932
 20
1.232416
  0
VERTEX
  8
FOREGROUND
  6
CONTINUOUS
 10
1.026323
 20
1.233534
  0
VERTEX
  8
FOREGROUND
  6
CONTINUOUS
 10
1.017621
 20
1.234341
  0
VERTEX
  8
FOREGROUND
  6
CONTINUOUS
 10
1.008830
 20
1.234832
  0
VERTEX
  8
FOREGROUND
  6
CONTINUOUS
 10
0.999956
 20
1.235000
  0
VERTEX
  8
FOREGROUND
  6
CONTINUOUS
 10
0.286623
 20
1.235000
  0
VERTEX
  8
FOREGROUND
  6
CONTINUOUS
 10
0.277752
 20
1.234828
  0
VERTEX
  8
FOREGROUND
  6
CONTINUOUS
 10
0.268963
 20
1.234335
  0
VERTEX
  8
FOREGROUND
  6
CONTINUOUS
 10
0.260263
 20
1.233525
  0
VERTEX
  8
FOREGROUND
  6
CONTINUOUS
 10
0.251657
 20
1.232405
  0
VERTEX
  8
FOREGROUND
  6
CONTINUOUS
 10
0.243151
 20
1.230979
  0
VERTEX
  8
FOREGROUND
  6
CONTINUOUS
 10
0.234751
 20
1.229255
  0
VERTEX
  8
FOREGROUND
  6
CONTINUOUS
 10
0.226461
 20
1.227237
  0
VERTEX
  8
FOREGROUND
  6
CONTINUOUS
 10
0.218289
 20
1.224932
  0
VERTEX
  8
FOREGROUND
  6
CONTINUOUS
 10
0.210239
 20
1.222344
  0
VERTEX
  8
FOREGROUND
  6
CONTINUOUS
 10
0.202318
 20
1.219480
  0
VERTEX
  8
FOREGROUND
  6
CONTINUOUS
 10
0.194530
 20
1.216345
  0
VERTEX
  8
FOREGROUND
  6
CONTINUOUS
 10
0.186882
 20
1.212945
  0
VERTEX
  8
FOREGROUND
  6
CONTINUOUS
 10
0.179380
 20
1.209286
  0
VERTEX
  8
FOREGROUND
  6
CONTINUOUS
 10
0.172029
 20
1.205374
  0
VERTEX
  8
FOREGROUND
  6
CONTINUOUS
 10
0.164834
 20
1.201213
  0
VERTEX
  8
FOREGROUND
  6
CONTINUOUS
 10
0.157802
 20
1.196811
  0
VERTEX
  8
FOREGROUND
  6
CONTINUOUS
 10
0.150939
 20
1.192171
  0
VERTEX
  8
FOREGROUND
  6
CONTINUOUS
 10
0.144249
 20
1.187301
  0
VERTEX
  8
FOREGROUND
  6
CONTINUOUS
 10
0.137738
 20
1.182206
  0
VERTEX
  8
FOREGROUND
  6
CONTINUOUS
 10
0.131413
 20
1.176892
  0
VERTEX
  8
FOREGROUND
  6
CONTINUOUS
 10
0.125279
 20
1.171364
  0
VERTEX
  8
FOREGROUND
  6
CONTINUOUS
 10
0.119342
 20
1.165627
  0
VERTEX
  8
FOREGROUND
  6
CONTINUOUS
 10
0.113606
 20
1.159689
  0
VERTEX
  8
FOREGROUND
  6
CONTINUOUS
 10
0.108079
 20
1.153554
  0
VERTEX
  8
FOREGROUND
  6
CONTINUOUS
 10
0.102766
 20
1.147228
  0
VERTEX
  8
FOREGROUND
  6
CONTINUOUS
 10
0.097672
 20
1.140716
  0
VERTEX
  8
FOREGROUND
  6
CONTINUOUS
 10
0.092804
 20
1.134026
  0
VERTEX
  8
FOREGROUND
  6
CONTINUOUS
 10
0.088166
 20
1.127161
  0
VERTEX
  8
FOREGROUND
  6
CONTINUOUS
 10
0.083764
 20
1.120128
  0
VERTEX
  8
FOREGROUND
  6
CONTINUOUS
 10
0.079605
 20
1.112933
  0
VERTEX
  8
FOREGROUND
  6
CONTINUOUS
 10
0.075694
 20
1.105581
  0
VERTEX
  8
FOREGROUND
  6
CONTINUOUS
 10
0.072036
 20
1.098078
  0
VERTEX
  8
FOREGROUND
  6
CONTINUOUS
 10
0.068638
 20
1.090429
  0
VERTEX
  8
FOREGROUND
  6
CONTINUOUS
 10
0.065505
 20
1.082641
  0
VERTEX
  8
FOREGROUND
  6
CONTINUOUS
 10
0.062642
 20
1.074719
  0
VERTEX
  8
FOREGROUND
  6
CONTINUOUS
 10
0.060056
 20
1.066669
  0
VERTEX
  8
FOREGROUND
  6
CONTINUOUS
 10
0.057752
 20
1.058496
  0
VERTEX
  8
FOREGROUND
  6
CONTINUOUS
 10
0.055735
 20
1.050207
  0
VERTEX
  8
FOREGROUND
  6
CONTINUOUS
 10
0.054013
 20
1.041806
  0
VERTEX
  8
FOREGROUND
  6
CONTINUOUS
 10
0.052589
 20
1.033299
  0
VERTEX
  8
FOREGROUND
  6
CONTINUOUS
 10
0.051470
 20
1.024693
  0
VERTEX
  8
FOREGROUND
  6
CONTINUOUS
 10
0.050662
 20
1.015993
  0
VERTEX
  8
FOREGROUND
  6
CONTINUOUS
 10
0.050170
 20
1.007205
  0
VERTEX
  8
FOREGROUND
  6
CONTINUOUS
 10
0.050000
 20
0.998333
  0
VERTEX
  8
FOREGROUND
  6
CONTINUOUS
 10
0.050000
 20
0.286667
  0
VERTEX
  8
FOREGROUND
  6
CONTINUOUS
 10
0.050170
 20
0.277794
  0
VERTEX
  8
FOREGROUND
  6
CONTINUOUS
 10
0.050662
 20
0.269005
  0
VERTEX
  8
FOREGROUND
  6
CONTINUOUS
 10
0.051470
 20
0.260303
  0
VERTEX
  8
FOREGROUND
  6
CONTINUOUS
 10
0.052590
 20
0.251696
  0
VERTEX
  8
FOREGROUND
  6
CONTINUOUS
 10
0.054014
 20
0.243189
  0
VERTEX
  8
FOREGROUND
  6
CONTINUOUS
 10
0.055737
 20
0.234787
  0
VERTEX
  8
FOREGROUND
  6
CONTINUOUS
 10
0.057754
 20
0.226496
  0
VERTEX
  8
FOREGROUND
  6
CONTINUOUS
 10
0.060058
 20
0.218323
  0
VERTEX
  8
FOREGROUND
  6
CONTINUOUS
 10
0.062645
 20
0.210272
  0
VERTEX
  8
FOREGROUND
  6
CONTINUOUS
 10
0.065508
 20
0.202349
  0
VERTEX
  8
FOREGROUND
  6
CONTINUOUS
 10
0.068642
 20
0.194560
  0
VERTEX
  8
FOREGROUND
  6
CONTINUOUS
 10
0.072041
 20
0.186911
  0
VERTEX
  8
FOREGROUND
  6
CONTINUOUS
 10
0.075700
 20
0.179407
  0
VERTEX
  8
FOREGROUND
  6
CONTINUOUS
 10
0.079612
 20
0.172055
  0
VERTEX
  8
FOREGROUND
  6
CONTINUOUS
 10
0.083772
 20
0.164859
  0
VERTEX
  8
FOREGROUND
  6
CONTINUOUS
 10
0.088174
 20
0.157825
  0
VERTEX
  8
FOREGROUND
  6
CONTINUOUS
 10
0.092813
 20
0.150960
  0
VERTEX
  8
FOREGROUND
  6
CONTINUOUS
 10
0.097683
 20
0.144269
  0
VERTEX
  8
FOREGROUND
  6
CONTINUOUS
 10
0.102778
 20
0.137758
  0
VERTEX
  8
FOREGROUND
  6
CONTINUOUS
 10
0.108093
 20
0.131431
  0
VERTEX
  8
FOREGROUND
  6
CONTINUOUS
 10
0.113621
 20
0.125296
  0
VERTEX
  8
FOREGROUND
  6
CONTINUOUS
 10
0.119357
 20
0.119357
  0
VERTEX
  8
FOREGROUND
  6
CONTINUOUS
 10
0.125296
 20
0.113621
  0
VERTEX
  8
FOREGROUND
  6
CONTINUOUS
 10
0.131431
 20
0.108093
  0
VERTEX
  8
FOREGROUND
  6
CONTINUOUS
 10
0.137758
 20
0.102778
  0
VERTEX
  8
FOREGROUND
  6
CONTINUOUS
 10
0.144269
 20
0.097683
  0
VERTEX
  8
FOREGROUND
  6
CONTINUOUS
 10
0.150960
 20
0.092813
  0
VERTEX
  8
FOREGROUND
  6
CONTINUOUS
 10
0.157825
 20
0.088174
  0
VERTEX
  8
FOREGROUND
  6
CONTINUOUS
 10
0.164859
 20
0.083772
  0
VERTEX
  8
FOREGROUND
  6
CONTINUOUS
 10
0.172055
 20
0.079612
  0
VERTEX
  8
FOREGROUND
  6
CONTINUOUS
 10
0.179407
 20
0.075700
  0
VERTEX
  8
FOREGROUND
  6
CONTINUOUS
 10
0.186911
 20
0.072041
  0
VERTEX
  8
FOREGROUND
  6
CONTINUOUS
 10
0.194560
 20
0.068642
  0
VERTEX
  8
FOREGROUND
  6
CONTINUOUS
 10
0.202349
 20
0.065508
  0
VERTEX
  8
FOREGROUND
  6
CONTINUOUS
 10
0.210272
 20
0.062645
  0
VERTEX
  8
FOREGROUND
  6
CONTINUOUS
 10
0.218323
 20
0.060058
  0
VERTEX
  8
FOREGROUND
  6
CONTINUOUS
 10
0.226496
 20
0.057754
  0
VERTEX
  8
FOREGROUND
  6
CONTINUOUS
 10
0.234787
 20
0.055737
  0
VERTEX
  8
FOREGROUND
  6
CONTINUOUS
 10
0.243189
 20
0.054014
  0
VERTEX
  8
FOREGROUND
  6
CONTINUOUS
 10
0.251696
 20
0.052590
  0
VERTEX
  8
FOREGROUND
  6
CONTINUOUS
 10
0.260303
 20
0.051470
  0
VERTEX
  8
FOREGROUND
  6
CONTINUOUS
 10
0.269005
 20
0.050662
  0
VERTEX
  8
FOREGROUND
  6
CONTINUOUS
 10
0.277794
 20
0.050170
  0
VERTEX
  8
FOREGROUND
  6
CONTINUOUS
 10
0.286667
 20
0.050000
  0
SEQEND
  8
0
  0
ENDSEC
  0
EOF
