  0
SECTION
  2
HEADER
  9
$ACADVER
  1
AC1006
  9
$EXTMIN
 10
0.000000
 20
0.000000
  9
$EXTMAX
 10
1.991667
 20
1.415000
  9
$LTSCALE
 40
0.166667
  9
$PDMODE
 70
    35
  9
$PDSIZE
 40
0.133333
  0
ENDSEC
  0
SECTION
  2
TABLES
  0
TABLE
  2
LTYPE
 70
     9
  0
LTYPE
  2
CONTINUOUS
 70
    64
  3
Solid line
 72
    65
 73
     0
 40
0.000000
  0
LTYPE
  2
DASHED
 70
    64
  3
__ __ __ __ __ __ __ __ __ __ __ __ __ __ __
 72
    65
 73
     2
 40
0.001250
 49
0.000833
 49
-0.000417
  0
LTYPE
  2
HIDDEN
 70
    64
  3
 _ _ _ _ _ _ _ _ _ _ _ _ _ _ _ _ _ _ _ _ _ _
 72
    65
 73
     2
 40
0.000625
 49
0.000417
 49
-0.000208
  0
LTYPE
  2
CENTER
 70
    64
  3
____ _ ____ _ ____ _ ____ _ ____ _ ____ _ ____
 72
    65
 73
     4
 40
0.003333
 49
0.002083
 49
-0.000417
 49
0.000417
 49
-0.000417
  0
LTYPE
  2
PHANTOM
 70
    64
  3
_____ _ _ _____ _ _ _____ _ _ _____ _ _ ____
 72
    65
 73
     6
 40
0.004167
 49
0.002083
 49
-0.000417
 49
0.000417
 49
-0.000417
 49
0.000417
 49
-0.000417
  0
LTYPE
  2
DOT
 70
    64
  3
...............................................
 72
    65
 73
     2
 40
0.000417
 49
0.000000
 49
-0.000417
  0
LTYPE
  2
DASHDOT
 70
    64
  3
__ . __ . __ . __ . __ . __ . __ . __ . __ . __
 72
    65
 73
     4
 40
0.001667
 49
0.000833
 49
-0.000417
 49
0.000000
 49
-0.000417
  0
LTYPE
  2
BORDER
 70
    64
  3
__ __ . __ __ . __ __ . __ __ . __ __ . __ __
 72
    65
 73
     6
 40
0.002917
 49
0.000833
 49
-0.000417
 49
0.000833
 49
-0.000417
 49
0.000000
 49
-0.000417
  0
LTYPE
  2
DIVIDE
 70
    64
  3
__ . . __ . . __ . . __ . . __ . . __ . . __
 72
    65
 73
     6
 40
0.002083
 49
0.000833
 49
-0.000417
 49
0.000000
 49
-0.000417
 49
0.000000
 49
-0.000417
  0
LTYPE
  2
DOTDOT
 70
    64
  3
 . .  . .  . .  . .  . .  . . 
 72
    65
 73
     5
 40
0.000917
 49
-0.000417
 49
0.000000
 49
-0.000417
 49
0.000000
 49
-0.000417
  0
ENDTAB
  0
TABLE
  2
STYLE
 70
     2
  0
STYLE
 70
     0
  2
SN0
 40
0.000000
 41
0.001667
 50
0.000000
 71
     0
 42
0.000000
  3
ROMAND
  0
STYLE
 70
    68
  2
SV0
 40
0.000000
 41
0.001667
 50
0.000000
 71
     0
 42
0.000000
  3
ROMAND
  0
ENDTAB
  0
TABLE
  2
LAYER
 70
     2
  0
LAYER
  2
FOREGROUND
 70
    64
 62
     7
  6
CONTINUOUS
  0
LAYER
  2
BACKGROUND
 70
    65
 62
    -7
  6
CONTINUOUS
  0
ENDTAB
  0
ENDSEC
  0
SECTION
  2
ENTITIES
  0
POLYLINE
  8
FOREGROUND
 62
     7
  6
CONTINUOUS
 66
     1
 40
0.000000
 41
0.000000
 70
     1
  0
VERTEX
  8
FOREGROUND
 62
     7
  6
CONTINUOUS
 10
0.290000
 20
1.260000
  0
VERTEX
  8
FOREGROUND
 62
     7
  6
CONTINUOUS
 10
1.586667
 20
1.260000
  0
VERTEX
  8
FOREGROUND
 62
     7
  6
CONTINUOUS
 10
1.611667
 20
1.258333
  0
VERTEX
  8
FOREGROUND
 62
     7
  6
CONTINUOUS
 10
1.635000
 20
1.255000
  0
VERTEX
  8
FOREGROUND
 62
     7
  6
CONTINUOUS
 10
1.658333
 20
1.248333
  0
VERTEX
  8
FOREGROUND
 62
     7
  6
CONTINUOUS
 10
1.680000
 20
1.241667
  0
VERTEX
  8
FOREGROUND
 62
     7
  6
CONTINUOUS
 10
1.701667
 20
1.231667
  0
VERTEX
  8
FOREGROUND
 62
     7
  6
CONTINUOUS
 10
1.721667
 20
1.218333
  0
VERTEX
  8
FOREGROUND
 62
     7
  6
CONTINUOUS
 10
1.740000
 20
1.205000
  0
VERTEX
  8
FOREGROUND
 62
     7
  6
CONTINUOUS
 10
1.756667
 20
1.190000
  0
VERTEX
  8
FOREGROUND
 62
     7
  6
CONTINUOUS
 10
1.771667
 20
1.173333
  0
VERTEX
  8
FOREGROUND
 62
     7
  6
CONTINUOUS
 10
1.785000
 20
1.153333
  0
VERTEX
  8
FOREGROUND
 62
     7
  6
CONTINUOUS
 10
1.798333
 20
1.135000
  0
VERTEX
  8
FOREGROUND
 62
     7
  6
CONTINUOUS
 10
1.808333
 20
1.113333
  0
VERTEX
  8
FOREGROUND
 62
     7
  6
CONTINUOUS
 10
1.816667
 20
1.091667
  0
VERTEX
  8
FOREGROUND
 62
     7
  6
CONTINUOUS
 10
1.821667
 20
1.068333
  0
VERTEX
  8
FOREGROUND
 62
     7
  6
CONTINUOUS
 10
1.825000
 20
1.045000
  0
VERTEX
  8
FOREGROUND
 62
     7
  6
CONTINUOUS
 10
1.826667
 20
1.020000
  0
VERTEX
  8
FOREGROUND
 62
     7
  6
CONTINUOUS
 10
1.826667
 20
0.298333
  0
VERTEX
  8
FOREGROUND
 62
     7
  6
CONTINUOUS
 10
1.825000
 20
0.273333
  0
VERTEX
  8
FOREGROUND
 62
     7
  6
CONTINUOUS
 10
1.821667
 20
0.250000
  0
VERTEX
  8
FOREGROUND
 62
     7
  6
CONTINUOUS
 10
1.816667
 20
0.226667
  0
VERTEX
  8
FOREGROUND
 62
     7
  6
CONTINUOUS
 10
1.808333
 20
0.205000
  0
VERTEX
  8
FOREGROUND
 62
     7
  6
CONTINUOUS
 10
1.798333
 20
0.183333
  0
VERTEX
  8
FOREGROUND
 62
     7
  6
CONTINUOUS
 10
1.785000
 20
0.163333
  0
VERTEX
  8
FOREGROUND
 62
     7
  6
CONTINUOUS
 10
1.771667
 20
0.145000
  0
VERTEX
  8
FOREGROUND
 62
     7
  6
CONTINUOUS
 10
1.756667
 20
0.128333
  0
VERTEX
  8
FOREGROUND
 62
     7
  6
CONTINUOUS
 10
1.740000
 20
0.113333
  0
VERTEX
  8
FOREGROUND
 62
     7
  6
CONTINUOUS
 10
1.721667
 20
0.100000
  0
VERTEX
  8
FOREGROUND
 62
     7
  6
CONTINUOUS
 10
1.701667
 20
0.086667
  0
VERTEX
  8
FOREGROUND
 62
     7
  6
CONTINUOUS
 10
1.680000
 20
0.076667
  0
VERTEX
  8
FOREGROUND
 62
     7
  6
CONTINUOUS
 10
1.658333
 20
0.068333
  0
VERTEX
  8
FOREGROUND
 62
     7
  6
CONTINUOUS
 10
1.635000
 20
0.063333
  0
VERTEX
  8
FOREGROUND
 62
     7
  6
CONTINUOUS
 10
1.611667
 20
0.060000
  0
VERTEX
  8
FOREGROUND
 62
     7
  6
CONTINUOUS
 10
1.586667
 20
0.058333
  0
VERTEX
  8
FOREGROUND
 62
     7
  6
CONTINUOUS
 10
0.290000
 20
0.058333
  0
VERTEX
  8
FOREGROUND
 62
     7
  6
CONTINUOUS
 10
0.265000
 20
0.060000
  0
VERTEX
  8
FOREGROUND
 62
     7
  6
CONTINUOUS
 10
0.241667
 20
0.063333
  0
VERTEX
  8
FOREGROUND
 62
     7
  6
CONTINUOUS
 10
0.218333
 20
0.068333
  0
VERTEX
  8
FOREGROUND
 62
     7
  6
CONTINUOUS
 10
0.196667
 20
0.076667
  0
VERTEX
  8
FOREGROUND
 62
     7
  6
CONTINUOUS
 10
0.175000
 20
0.086667
  0
VERTEX
  8
FOREGROUND
 62
     7
  6
CONTINUOUS
 10
0.156667
 20
0.100000
  0
VERTEX
  8
FOREGROUND
 62
     7
  6
CONTINUOUS
 10
0.136667
 20
0.113333
  0
VERTEX
  8
FOREGROUND
 62
     7
  6
CONTINUOUS
 10
0.120000
 20
0.128333
  0
VERTEX
  8
FOREGROUND
 62
     7
  6
CONTINUOUS
 10
0.105000
 20
0.145000
  0
VERTEX
  8
FOREGROUND
 62
     7
  6
CONTINUOUS
 10
0.091667
 20
0.163333
  0
VERTEX
  8
FOREGROUND
 62
     7
  6
CONTINUOUS
 10
0.078333
 20
0.183333
  0
VERTEX
  8
FOREGROUND
 62
     7
  6
CONTINUOUS
 10
0.068333
 20
0.205000
  0
VERTEX
  8
FOREGROUND
 62
     7
  6
CONTINUOUS
 10
0.061667
 20
0.226667
  0
VERTEX
  8
FOREGROUND
 62
     7
  6
CONTINUOUS
 10
0.055000
 20
0.250000
  0
VERTEX
  8
FOREGROUND
 62
     7
  6
CONTINUOUS
 10
0.051667
 20
0.273333
  0
VERTEX
  8
FOREGROUND
 62
     7
  6
CONTINUOUS
 10
0.050000
 20
0.298333
  0
VERTEX
  8
FOREGROUND
 62
     7
  6
CONTINUOUS
 10
0.050000
 20
1.020000
  0
VERTEX
  8
FOREGROUND
 62
     7
  6
CONTINUOUS
 10
0.051667
 20
1.045000
  0
VERTEX
  8
FOREGROUND
 62
     7
  6
CONTINUOUS
 10
0.055000
 20
1.068333
  0
VERTEX
  8
FOREGROUND
 62
     7
  6
CONTINUOUS
 10
0.061667
 20
1.091667
  0
VERTEX
  8
FOREGROUND
 62
     7
  6
CONTINUOUS
 10
0.068333
 20
1.113333
  0
VERTEX
  8
FOREGROUND
 62
     7
  6
CONTINUOUS
 10
0.078333
 20
1.135000
  0
VERTEX
  8
FOREGROUND
 62
     7
  6
CONTINUOUS
 10
0.091667
 20
1.153333
  0
VERTEX
  8
FOREGROUND
 62
     7
  6
CONTINUOUS
 10
0.105000
 20
1.173333
  0
VERTEX
  8
FOREGROUND
 62
     7
  6
CONTINUOUS
 10
0.120000
 20
1.190000
  0
VERTEX
  8
FOREGROUND
 62
     7
  6
CONTINUOUS
 10
0.136667
 20
1.205000
  0
VERTEX
  8
FOREGROUND
 62
     7
  6
CONTINUOUS
 10
0.156667
 20
1.218333
  0
VERTEX
  8
FOREGROUND
 62
     7
  6
CONTINUOUS
 10
0.175000
 20
1.231667
  0
VERTEX
  8
FOREGROUND
 62
     7
  6
CONTINUOUS
 10
0.196667
 20
1.241667
  0
VERTEX
  8
FOREGROUND
 62
     7
  6
CONTINUOUS
 10
0.218333
 20
1.248333
  0
VERTEX
  8
FOREGROUND
 62
     7
  6
CONTINUOUS
 10
0.241667
 20
1.255000
  0
VERTEX
  8
FOREGROUND
 62
     7
  6
CONTINUOUS
 10
0.265000
 20
1.258333
  0
SEQEND
  8
0
  0
POLYLINE
  8
FOREGROUND
  6
CONTINUOUS
 66
     1
 40
0.010000
 41
0.010000
 70
     1
  0
VERTEX
  8
FOREGROUND
  6
CONTINUOUS
 10
0.290000
 20
1.260000
  0
VERTEX
  8
FOREGROUND
  6
CONTINUOUS
 10
1.586667
 20
1.260000
  0
VERTEX
  8
FOREGROUND
  6
CONTINUOUS
 10
1.611667
 20
1.258333
  0
VERTEX
  8
FOREGROUND
  6
CONTINUOUS
 10
1.635000
 20
1.255000
  0
VERTEX
  8
FOREGROUND
  6
CONTINUOUS
 10
1.658333
 20
1.248333
  0
VERTEX
  8
FOREGROUND
  6
CONTINUOUS
 10
1.680000
 20
1.241667
  0
VERTEX
  8
FOREGROUND
  6
CONTINUOUS
 10
1.701667
 20
1.231667
  0
VERTEX
  8
FOREGROUND
  6
CONTINUOUS
 10
1.721667
 20
1.218333
  0
VERTEX
  8
FOREGROUND
  6
CONTINUOUS
 10
1.740000
 20
1.205000
  0
VERTEX
  8
FOREGROUND
  6
CONTINUOUS
 10
1.756667
 20
1.190000
  0
VERTEX
  8
FOREGROUND
  6
CONTINUOUS
 10
1.771667
 20
1.173333
  0
VERTEX
  8
FOREGROUND
  6
CONTINUOUS
 10
1.785000
 20
1.153333
  0
VERTEX
  8
FOREGROUND
  6
CONTINUOUS
 10
1.798333
 20
1.135000
  0
VERTEX
  8
FOREGROUND
  6
CONTINUOUS
 10
1.808333
 20
1.113333
  0
VERTEX
  8
FOREGROUND
  6
CONTINUOUS
 10
1.816667
 20
1.091667
  0
VERTEX
  8
FOREGROUND
  6
CONTINUOUS
 10
1.821667
 20
1.068333
  0
VERTEX
  8
FOREGROUND
  6
CONTINUOUS
 10
1.825000
 20
1.045000
  0
VERTEX
  8
FOREGROUND
  6
CONTINUOUS
 10
1.826667
 20
1.020000
  0
VERTEX
  8
FOREGROUND
  6
CONTINUOUS
 10
1.826667
 20
0.298333
  0
VERTEX
  8
FOREGROUND
  6
CONTINUOUS
 10
1.825000
 20
0.273333
  0
VERTEX
  8
FOREGROUND
  6
CONTINUOUS
 10
1.821667
 20
0.250000
  0
VERTEX
  8
FOREGROUND
  6
CONTINUOUS
 10
1.816667
 20
0.226667
  0
VERTEX
  8
FOREGROUND
  6
CONTINUOUS
 10
1.808333
 20
0.205000
  0
VERTEX
  8
FOREGROUND
  6
CONTINUOUS
 10
1.798333
 20
0.183333
  0
VERTEX
  8
FOREGROUND
  6
CONTINUOUS
 10
1.785000
 20
0.163333
  0
VERTEX
  8
FOREGROUND
  6
CONTINUOUS
 10
1.771667
 20
0.145000
  0
VERTEX
  8
FOREGROUND
  6
CONTINUOUS
 10
1.756667
 20
0.128333
  0
VERTEX
  8
FOREGROUND
  6
CONTINUOUS
 10
1.740000
 20
0.113333
  0
VERTEX
  8
FOREGROUND
  6
CONTINUOUS
 10
1.721667
 20
0.100000
  0
VERTEX
  8
FOREGROUND
  6
CONTINUOUS
 10
1.701667
 20
0.086667
  0
VERTEX
  8
FOREGROUND
  6
CONTINUOUS
 10
1.680000
 20
0.076667
  0
VERTEX
  8
FOREGROUND
  6
CONTINUOUS
 10
1.658333
 20
0.068333
  0
VERTEX
  8
FOREGROUND
  6
CONTINUOUS
 10
1.635000
 20
0.063333
  0
VERTEX
  8
FOREGROUND
  6
CONTINUOUS
 10
1.611667
 20
0.060000
  0
VERTEX
  8
FOREGROUND
  6
CONTINUOUS
 10
1.586667
 20
0.058333
  0
VERTEX
  8
FOREGROUND
  6
CONTINUOUS
 10
0.290000
 20
0.058333
  0
VERTEX
  8
FOREGROUND
  6
CONTINUOUS
 10
0.265000
 20
0.060000
  0
VERTEX
  8
FOREGROUND
  6
CONTINUOUS
 10
0.241667
 20
0.063333
  0
VERTEX
  8
FOREGROUND
  6
CONTINUOUS
 10
0.218333
 20
0.068333
  0
VERTEX
  8
FOREGROUND
  6
CONTINUOUS
 10
0.196667
 20
0.076667
  0
VERTEX
  8
FOREGROUND
  6
CONTINUOUS
 10
0.175000
 20
0.086667
  0
VERTEX
  8
FOREGROUND
  6
CONTINUOUS
 10
0.156667
 20
0.100000
  0
VERTEX
  8
FOREGROUND
  6
CONTINUOUS
 10
0.136667
 20
0.113333
  0
VERTEX
  8
FOREGROUND
  6
CONTINUOUS
 10
0.120000
 20
0.128333
  0
VERTEX
  8
FOREGROUND
  6
CONTINUOUS
 10
0.105000
 20
0.145000
  0
VERTEX
  8
FOREGROUND
  6
CONTINUOUS
 10
0.091667
 20
0.163333
  0
VERTEX
  8
FOREGROUND
  6
CONTINUOUS
 10
0.078333
 20
0.183333
  0
VERTEX
  8
FOREGROUND
  6
CONTINUOUS
 10
0.068333
 20
0.205000
  0
VERTEX
  8
FOREGROUND
  6
CONTINUOUS
 10
0.061667
 20
0.226667
  0
VERTEX
  8
FOREGROUND
  6
CONTINUOUS
 10
0.055000
 20
0.250000
  0
VERTEX
  8
FOREGROUND
  6
CONTINUOUS
 10
0.051667
 20
0.273333
  0
VERTEX
  8
FOREGROUND
  6
CONTINUOUS
 10
0.050000
 20
0.298333
  0
VERTEX
  8
FOREGROUND
  6
CONTINUOUS
 10
0.050000
 20
1.020000
  0
VERTEX
  8
FOREGROUND
  6
CONTINUOUS
 10
0.051667
 20
1.045000
  0
VERTEX
  8
FOREGROUND
  6
CONTINUOUS
 10
0.055000
 20
1.068333
  0
VERTEX
  8
FOREGROUND
  6
CONTINUOUS
 10
0.061667
 20
1.091667
  0
VERTEX
  8
FOREGROUND
  6
CONTINUOUS
 10
0.068333
 20
1.113333
  0
VERTEX
  8
FOREGROUND
  6
CONTINUOUS
 10
0.078333
 20
1.135000
  0
VERTEX
  8
FOREGROUND
  6
CONTINUOUS
 10
0.091667
 20
1.153333
  0
VERTEX
  8
FOREGROUND
  6
CONTINUOUS
 10
0.105000
 20
1.173333
  0
VERTEX
  8
FOREGROUND
  6
CONTINUOUS
 10
0.120000
 20
1.190000
  0
VERTEX
  8
FOREGROUND
  6
CONTINUOUS
 10
0.136667
 20
1.205000
  0
VERTEX
  8
FOREGROUND
  6
CONTINUOUS
 10
0.156667
 20
1.218333
  0
VERTEX
  8
FOREGROUND
  6
CONTINUOUS
 10
0.175000
 20
1.231667
  0
VERTEX
  8
FOREGROUND
  6
CONTINUOUS
 10
0.196667
 20
1.241667
  0
VERTEX
  8
FOREGROUND
  6
CONTINUOUS
 10
0.218333
 20
1.248333
  0
VERTEX
  8
FOREGROUND
  6
CONTINUOUS
 10
0.241667
 20
1.255000
  0
VERTEX
  8
FOREGROUND
  6
CONTINUOUS
 10
0.265000
 20
1.258333
  0
SEQEND
  8
0
  0
ENDSEC
  0
EOF
