  0
SECTION
  2
HEADER
  9
$ACADVER
  1
AC1006
  9
$EXTMIN
 10
0.000000
 20
0.000000
  9
$EXTMAX
 10
1.680000
 20
1.680000
  9
$LTSCALE
 40
0.166667
  9
$PDMODE
 70
    35
  9
$PDSIZE
 40
0.133333
  0
ENDSEC
  0
SECTION
  2
TABLES
  0
TABLE
  2
LTYPE
 70
     9
  0
LTYPE
  2
CONTINUOUS
 70
    64
  3
Solid line
 72
    65
 73
     0
 40
0.000000
  0
LTYPE
  2
DASHED
 70
    64
  3
__ __ __ __ __ __ __ __ __ __ __ __ __ __ __
 72
    65
 73
     2
 40
0.001250
 49
0.000833
 49
-0.000417
  0
LTYPE
  2
HIDDEN
 70
    64
  3
 _ _ _ _ _ _ _ _ _ _ _ _ _ _ _ _ _ _ _ _ _ _
 72
    65
 73
     2
 40
0.000625
 49
0.000417
 49
-0.000208
  0
LTYPE
  2
CENTER
 70
    64
  3
____ _ ____ _ ____ _ ____ _ ____ _ ____ _ ____
 72
    65
 73
     4
 40
0.003333
 49
0.002083
 49
-0.000417
 49
0.000417
 49
-0.000417
  0
LTYPE
  2
PHANTOM
 70
    64
  3
_____ _ _ _____ _ _ _____ _ _ _____ _ _ ____
 72
    65
 73
     6
 40
0.004167
 49
0.002083
 49
-0.000417
 49
0.000417
 49
-0.000417
 49
0.000417
 49
-0.000417
  0
LTYPE
  2
DOT
 70
    64
  3
...............................................
 72
    65
 73
     2
 40
0.000417
 49
0.000000
 49
-0.000417
  0
LTYPE
  2
DASHDOT
 70
    64
  3
__ . __ . __ . __ . __ . __ . __ . __ . __ . __
 72
    65
 73
     4
 40
0.001667
 49
0.000833
 49
-0.000417
 49
0.000000
 49
-0.000417
  0
LTYPE
  2
BORDER
 70
    64
  3
__ __ . __ __ . __ __ . __ __ . __ __ . __ __
 72
    65
 73
     6
 40
0.002917
 49
0.000833
 49
-0.000417
 49
0.000833
 49
-0.000417
 49
0.000000
 49
-0.000417
  0
LTYPE
  2
DIVIDE
 70
    64
  3
__ . . __ . . __ . . __ . . __ . . __ . . __
 72
    65
 73
     6
 40
0.002083
 49
0.000833
 49
-0.000417
 49
0.000000
 49
-0.000417
 49
0.000000
 49
-0.000417
  0
LTYPE
  2
DOTDOT
 70
    64
  3
 . .  . .  . .  . .  . .  . . 
 72
    65
 73
     5
 40
0.000917
 49
-0.000417
 49
0.000000
 49
-0.000417
 49
0.000000
 49
-0.000417
  0
ENDTAB
  0
TABLE
  2
STYLE
 70
     2
  0
STYLE
 70
     0
  2
SN0
 40
0.000000
 41
0.001667
 50
0.000000
 71
     0
 42
0.000000
  3
ROMAND
  0
STYLE
 70
    68
  2
SV0
 40
0.000000
 41
0.001667
 50
0.000000
 71
     0
 42
0.000000
  3
ROMAND
  0
ENDTAB
  0
TABLE
  2
LAYER
 70
     2
  0
LAYER
  2
FOREGROUND
 70
    64
 62
     7
  6
CONTINUOUS
  0
LAYER
  2
BACKGROUND
 70
    65
 62
    -7
  6
CONTINUOUS
  0
ENDTAB
  0
ENDSEC
  0
SECTION
  2
ENTITIES
  0
POLYLINE
  8
FOREGROUND
  6
CONTINUOUS
 66
     1
 40
0.010000
 41
0.010000
 70
     1
  0
VERTEX
  8
FOREGROUND
  6
CONTINUOUS
 10
1.313333
 20
0.050000
  0
VERTEX
  8
FOREGROUND
  6
CONTINUOUS
 10
1.324942
 20
0.050218
  0
VERTEX
  8
FOREGROUND
  6
CONTINUOUS
 10
1.336445
 20
0.050848
  0
VERTEX
  8
FOREGROUND
  6
CONTINUOUS
 10
1.347836
 20
0.051882
  0
VERTEX
  8
FOREGROUND
  6
CONTINUOUS
 10
1.359106
 20
0.053315
  0
VERTEX
  8
FOREGROUND
  6
CONTINUOUS
 10
1.370250
 20
0.055139
  0
VERTEX
  8
FOREGROUND
  6
CONTINUOUS
 10
1.381259
 20
0.057346
  0
VERTEX
  8
FOREGROUND
  6
CONTINUOUS
 10
1.392127
 20
0.059929
  0
VERTEX
  8
FOREGROUND
  6
CONTINUOUS
 10
1.402847
 20
0.062882
  0
VERTEX
  8
FOREGROUND
  6
CONTINUOUS
 10
1.413411
 20
0.066197
  0
VERTEX
  8
FOREGROUND
  6
CONTINUOUS
 10
1.423813
 20
0.069868
  0
VERTEX
  8
FOREGROUND
  6
CONTINUOUS
 10
1.434044
 20
0.073886
  0
VERTEX
  8
FOREGROUND
  6
CONTINUOUS
 10
1.444099
 20
0.078245
  0
VERTEX
  8
FOREGROUND
  6
CONTINUOUS
 10
1.453969
 20
0.082938
  0
VERTEX
  8
FOREGROUND
  6
CONTINUOUS
 10
1.463649
 20
0.087957
  0
VERTEX
  8
FOREGROUND
  6
CONTINUOUS
 10
1.473130
 20
0.093296
  0
VERTEX
  8
FOREGROUND
  6
CONTINUOUS
 10
1.482406
 20
0.098947
  0
VERTEX
  8
FOREGROUND
  6
CONTINUOUS
 10
1.491469
 20
0.104904
  0
VERTEX
  8
FOREGROUND
  6
CONTINUOUS
 10
1.500312
 20
0.111158
  0
VERTEX
  8
FOREGROUND
  6
CONTINUOUS
 10
1.508929
 20
0.117704
  0
VERTEX
  8
FOREGROUND
  6
CONTINUOUS
 10
1.517312
 20
0.124533
  0
VERTEX
  8
FOREGROUND
  6
CONTINUOUS
 10
1.525453
 20
0.131639
  0
VERTEX
  8
FOREGROUND
  6
CONTINUOUS
 10
1.533347
 20
0.139015
  0
VERTEX
  8
FOREGROUND
  6
CONTINUOUS
 10
1.540985
 20
0.146653
  0
VERTEX
  8
FOREGROUND
  6
CONTINUOUS
 10
1.548361
 20
0.154547
  0
VERTEX
  8
FOREGROUND
  6
CONTINUOUS
 10
1.555467
 20
0.162688
  0
VERTEX
  8
FOREGROUND
  6
CONTINUOUS
 10
1.562296
 20
0.171071
  0
VERTEX
  8
FOREGROUND
  6
CONTINUOUS
 10
1.568842
 20
0.179688
  0
VERTEX
  8
FOREGROUND
  6
CONTINUOUS
 10
1.575096
 20
0.188531
  0
VERTEX
  8
FOREGROUND
  6
CONTINUOUS
 10
1.581053
 20
0.197594
  0
VERTEX
  8
FOREGROUND
  6
CONTINUOUS
 10
1.586704
 20
0.206870
  0
VERTEX
  8
FOREGROUND
  6
CONTINUOUS
 10
1.592043
 20
0.216351
  0
VERTEX
  8
FOREGROUND
  6
CONTINUOUS
 10
1.597062
 20
0.226031
  0
VERTEX
  8
FOREGROUND
  6
CONTINUOUS
 10
1.601755
 20
0.235901
  0
VERTEX
  8
FOREGROUND
  6
CONTINUOUS
 10
1.606114
 20
0.245956
  0
VERTEX
  8
FOREGROUND
  6
CONTINUOUS
 10
1.610132
 20
0.256187
  0
VERTEX
  8
FOREGROUND
  6
CONTINUOUS
 10
1.613803
 20
0.266589
  0
VERTEX
  8
FOREGROUND
  6
CONTINUOUS
 10
1.617118
 20
0.277153
  0
VERTEX
  8
FOREGROUND
  6
CONTINUOUS
 10
1.620071
 20
0.287873
  0
VERTEX
  8
FOREGROUND
  6
CONTINUOUS
 10
1.622654
 20
0.298741
  0
VERTEX
  8
FOREGROUND
  6
CONTINUOUS
 10
1.624861
 20
0.309750
  0
VERTEX
  8
FOREGROUND
  6
CONTINUOUS
 10
1.626685
 20
0.320894
  0
VERTEX
  8
FOREGROUND
  6
CONTINUOUS
 10
1.628118
 20
0.332164
  0
VERTEX
  8
FOREGROUND
  6
CONTINUOUS
 10
1.629152
 20
0.343555
  0
VERTEX
  8
FOREGROUND
  6
CONTINUOUS
 10
1.629782
 20
0.355058
  0
VERTEX
  8
FOREGROUND
  6
CONTINUOUS
 10
1.630000
 20
0.366667
  0
VERTEX
  8
FOREGROUND
  6
CONTINUOUS
 10
1.630000
 20
1.313333
  0
VERTEX
  8
FOREGROUND
  6
CONTINUOUS
 10
1.629782
 20
1.324944
  0
VERTEX
  8
FOREGROUND
  6
CONTINUOUS
 10
1.629152
 20
1.336448
  0
VERTEX
  8
FOREGROUND
  6
CONTINUOUS
 10
1.628117
 20
1.347840
  0
VERTEX
  8
FOREGROUND
  6
CONTINUOUS
 10
1.626684
 20
1.359112
  0
VERTEX
  8
FOREGROUND
  6
CONTINUOUS
 10
1.624860
 20
1.370257
  0
VERTEX
  8
FOREGROUND
  6
CONTINUOUS
 10
1.622653
 20
1.381268
  0
VERTEX
  8
FOREGROUND
  6
CONTINUOUS
 10
1.620068
 20
1.392137
  0
VERTEX
  8
FOREGROUND
  6
CONTINUOUS
 10
1.617115
 20
1.402858
  0
VERTEX
  8
FOREGROUND
  6
CONTINUOUS
 10
1.613799
 20
1.413423
  0
VERTEX
  8
FOREGROUND
  6
CONTINUOUS
 10
1.610128
 20
1.423825
  0
VERTEX
  8
FOREGROUND
  6
CONTINUOUS
 10
1.606108
 20
1.434058
  0
VERTEX
  8
FOREGROUND
  6
CONTINUOUS
 10
1.601748
 20
1.444114
  0
VERTEX
  8
FOREGROUND
  6
CONTINUOUS
 10
1.597054
 20
1.453985
  0
VERTEX
  8
FOREGROUND
  6
CONTINUOUS
 10
1.592034
 20
1.463666
  0
VERTEX
  8
FOREGROUND
  6
CONTINUOUS
 10
1.586694
 20
1.473147
  0
VERTEX
  8
FOREGROUND
  6
CONTINUOUS
 10
1.581041
 20
1.482424
  0
VERTEX
  8
FOREGROUND
  6
CONTINUOUS
 10
1.575083
 20
1.491488
  0
VERTEX
  8
FOREGROUND
  6
CONTINUOUS
 10
1.568827
 20
1.500332
  0
VERTEX
  8
FOREGROUND
  6
CONTINUOUS
 10
1.562281
 20
1.508949
  0
VERTEX
  8
FOREGROUND
  6
CONTINUOUS
 10
1.555450
 20
1.517332
  0
VERTEX
  8
FOREGROUND
  6
CONTINUOUS
 10
1.548342
 20
1.525474
  0
VERTEX
  8
FOREGROUND
  6
CONTINUOUS
 10
1.540965
 20
1.533367
  0
VERTEX
  8
FOREGROUND
  6
CONTINUOUS
 10
1.533325
 20
1.541006
  0
VERTEX
  8
FOREGROUND
  6
CONTINUOUS
 10
1.525430
 20
1.548381
  0
VERTEX
  8
FOREGROUND
  6
CONTINUOUS
 10
1.517287
 20
1.555488
  0
VERTEX
  8
FOREGROUND
  6
CONTINUOUS
 10
1.508903
 20
1.562317
  0
VERTEX
  8
FOREGROUND
  6
CONTINUOUS
 10
1.500284
 20
1.568862
  0
VERTEX
  8
FOREGROUND
  6
CONTINUOUS
 10
1.491439
 20
1.575116
  0
VERTEX
  8
FOREGROUND
  6
CONTINUOUS
 10
1.482374
 20
1.581073
  0
VERTEX
  8
FOREGROUND
  6
CONTINUOUS
 10
1.473097
 20
1.586723
  0
VERTEX
  8
FOREGROUND
  6
CONTINUOUS
 10
1.463614
 20
1.592062
  0
VERTEX
  8
FOREGROUND
  6
CONTINUOUS
 10
1.453933
 20
1.597080
  0
VERTEX
  8
FOREGROUND
  6
CONTINUOUS
 10
1.444060
 20
1.601773
  0
VERTEX
  8
FOREGROUND
  6
CONTINUOUS
 10
1.434004
 20
1.606131
  0
VERTEX
  8
FOREGROUND
  6
CONTINUOUS
 10
1.423770
 20
1.610148
  0
VERTEX
  8
FOREGROUND
  6
CONTINUOUS
 10
1.413367
 20
1.613817
  0
VERTEX
  8
FOREGROUND
  6
CONTINUOUS
 10
1.402802
 20
1.617131
  0
VERTEX
  8
FOREGROUND
  6
CONTINUOUS
 10
1.392080
 20
1.620083
  0
VERTEX
  8
FOREGROUND
  6
CONTINUOUS
 10
1.381210
 20
1.622665
  0
VERTEX
  8
FOREGROUND
  6
CONTINUOUS
 10
1.370199
 20
1.624871
  0
VERTEX
  8
FOREGROUND
  6
CONTINUOUS
 10
1.359054
 20
1.626693
  0
VERTEX
  8
FOREGROUND
  6
CONTINUOUS
 10
1.347782
 20
1.628124
  0
VERTEX
  8
FOREGROUND
  6
CONTINUOUS
 10
1.336390
 20
1.629156
  0
VERTEX
  8
FOREGROUND
  6
CONTINUOUS
 10
1.324885
 20
1.629784
  0
VERTEX
  8
FOREGROUND
  6
CONTINUOUS
 10
1.313275
 20
1.630000
  0
VERTEX
  8
FOREGROUND
  6
CONTINUOUS
 10
0.366608
 20
1.630000
  0
VERTEX
  8
FOREGROUND
  6
CONTINUOUS
 10
0.355001
 20
1.629780
  0
VERTEX
  8
FOREGROUND
  6
CONTINUOUS
 10
0.343499
 20
1.629148
  0
VERTEX
  8
FOREGROUND
  6
CONTINUOUS
 10
0.332110
 20
1.628112
  0
VERTEX
  8
FOREGROUND
  6
CONTINUOUS
 10
0.320841
 20
1.626677
  0
VERTEX
  8
FOREGROUND
  6
CONTINUOUS
 10
0.309699
 20
1.624852
  0
VERTEX
  8
FOREGROUND
  6
CONTINUOUS
 10
0.298692
 20
1.622644
  0
VERTEX
  8
FOREGROUND
  6
CONTINUOUS
 10
0.287825
 20
1.620059
  0
VERTEX
  8
FOREGROUND
  6
CONTINUOUS
 10
0.277107
 20
1.617104
  0
VERTEX
  8
FOREGROUND
  6
CONTINUOUS
 10
0.266545
 20
1.613788
  0
VERTEX
  8
FOREGROUND
  6
CONTINUOUS
 10
0.256145
 20
1.610117
  0
VERTEX
  8
FOREGROUND
  6
CONTINUOUS
 10
0.245916
 20
1.606097
  0
VERTEX
  8
FOREGROUND
  6
CONTINUOUS
 10
0.235863
 20
1.601737
  0
VERTEX
  8
FOREGROUND
  6
CONTINUOUS
 10
0.225994
 20
1.597044
  0
VERTEX
  8
FOREGROUND
  6
CONTINUOUS
 10
0.216316
 20
1.592024
  0
VERTEX
  8
FOREGROUND
  6
CONTINUOUS
 10
0.206837
 20
1.586684
  0
VERTEX
  8
FOREGROUND
  6
CONTINUOUS
 10
0.197563
 20
1.581033
  0
VERTEX
  8
FOREGROUND
  6
CONTINUOUS
 10
0.188501
 20
1.575076
  0
VERTEX
  8
FOREGROUND
  6
CONTINUOUS
 10
0.179659
 20
1.568821
  0
VERTEX
  8
FOREGROUND
  6
CONTINUOUS
 10
0.171045
 20
1.562275
  0
VERTEX
  8
FOREGROUND
  6
CONTINUOUS
 10
0.162663
 20
1.555446
  0
VERTEX
  8
FOREGROUND
  6
CONTINUOUS
 10
0.154523
 20
1.548340
  0
VERTEX
  8
FOREGROUND
  6
CONTINUOUS
 10
0.146632
 20
1.540964
  0
VERTEX
  8
FOREGROUND
  6
CONTINUOUS
 10
0.138995
 20
1.533326
  0
VERTEX
  8
FOREGROUND
  6
CONTINUOUS
 10
0.131621
 20
1.525433
  0
VERTEX
  8
FOREGROUND
  6
CONTINUOUS
 10
0.124516
 20
1.517292
  0
VERTEX
  8
FOREGROUND
  6
CONTINUOUS
 10
0.117689
 20
1.508909
  0
VERTEX
  8
FOREGROUND
  6
CONTINUOUS
 10
0.111144
 20
1.500293
  0
VERTEX
  8
FOREGROUND
  6
CONTINUOUS
 10
0.104891
 20
1.491450
  0
VERTEX
  8
FOREGROUND
  6
CONTINUOUS
 10
0.098936
 20
1.482388
  0
VERTEX
  8
FOREGROUND
  6
CONTINUOUS
 10
0.093286
 20
1.473113
  0
VERTEX
  8
FOREGROUND
  6
CONTINUOUS
 10
0.087948
 20
1.463632
  0
VERTEX
  8
FOREGROUND
  6
CONTINUOUS
 10
0.082930
 20
1.453954
  0
VERTEX
  8
FOREGROUND
  6
CONTINUOUS
 10
0.078238
 20
1.444084
  0
VERTEX
  8
FOREGROUND
  6
CONTINUOUS
 10
0.073880
 20
1.434030
  0
VERTEX
  8
FOREGROUND
  6
CONTINUOUS
 10
0.069863
 20
1.423800
  0
VERTEX
  8
FOREGROUND
  6
CONTINUOUS
 10
0.066193
 20
1.413399
  0
VERTEX
  8
FOREGROUND
  6
CONTINUOUS
 10
0.062879
 20
1.402836
  0
VERTEX
  8
FOREGROUND
  6
CONTINUOUS
 10
0.059927
 20
1.392118
  0
VERTEX
  8
FOREGROUND
  6
CONTINUOUS
 10
0.057344
 20
1.381251
  0
VERTEX
  8
FOREGROUND
  6
CONTINUOUS
 10
0.055137
 20
1.370243
  0
VERTEX
  8
FOREGROUND
  6
CONTINUOUS
 10
0.053314
 20
1.359101
  0
VERTEX
  8
FOREGROUND
  6
CONTINUOUS
 10
0.051882
 20
1.347832
  0
VERTEX
  8
FOREGROUND
  6
CONTINUOUS
 10
0.050847
 20
1.336442
  0
VERTEX
  8
FOREGROUND
  6
CONTINUOUS
 10
0.050218
 20
1.324941
  0
VERTEX
  8
FOREGROUND
  6
CONTINUOUS
 10
0.050000
 20
1.313333
  0
VERTEX
  8
FOREGROUND
  6
CONTINUOUS
 10
0.050000
 20
0.366667
  0
VERTEX
  8
FOREGROUND
  6
CONTINUOUS
 10
0.050218
 20
0.355058
  0
VERTEX
  8
FOREGROUND
  6
CONTINUOUS
 10
0.050848
 20
0.343555
  0
VERTEX
  8
FOREGROUND
  6
CONTINUOUS
 10
0.051882
 20
0.332164
  0
VERTEX
  8
FOREGROUND
  6
CONTINUOUS
 10
0.053315
 20
0.320894
  0
VERTEX
  8
FOREGROUND
  6
CONTINUOUS
 10
0.055139
 20
0.309750
  0
VERTEX
  8
FOREGROUND
  6
CONTINUOUS
 10
0.057346
 20
0.298741
  0
VERTEX
  8
FOREGROUND
  6
CONTINUOUS
 10
0.059929
 20
0.287873
  0
VERTEX
  8
FOREGROUND
  6
CONTINUOUS
 10
0.062882
 20
0.277153
  0
VERTEX
  8
FOREGROUND
  6
CONTINUOUS
 10
0.066197
 20
0.266589
  0
VERTEX
  8
FOREGROUND
  6
CONTINUOUS
 10
0.069868
 20
0.256187
  0
VERTEX
  8
FOREGROUND
  6
CONTINUOUS
 10
0.073886
 20
0.245956
  0
VERTEX
  8
FOREGROUND
  6
CONTINUOUS
 10
0.078245
 20
0.235901
  0
VERTEX
  8
FOREGROUND
  6
CONTINUOUS
 10
0.082938
 20
0.226031
  0
VERTEX
  8
FOREGROUND
  6
CONTINUOUS
 10
0.087957
 20
0.216351
  0
VERTEX
  8
FOREGROUND
  6
CONTINUOUS
 10
0.093296
 20
0.206870
  0
VERTEX
  8
FOREGROUND
  6
CONTINUOUS
 10
0.098947
 20
0.197594
  0
VERTEX
  8
FOREGROUND
  6
CONTINUOUS
 10
0.104904
 20
0.188531
  0
VERTEX
  8
FOREGROUND
  6
CONTINUOUS
 10
0.111158
 20
0.179688
  0
VERTEX
  8
FOREGROUND
  6
CONTINUOUS
 10
0.117704
 20
0.171071
  0
VERTEX
  8
FOREGROUND
  6
CONTINUOUS
 10
0.124533
 20
0.162688
  0
VERTEX
  8
FOREGROUND
  6
CONTINUOUS
 10
0.131639
 20
0.154547
  0
VERTEX
  8
FOREGROUND
  6
CONTINUOUS
 10
0.139015
 20
0.146653
  0
VERTEX
  8
FOREGROUND
  6
CONTINUOUS
 10
0.146653
 20
0.139015
  0
VERTEX
  8
FOREGROUND
  6
CONTINUOUS
 10
0.154547
 20
0.131639
  0
VERTEX
  8
FOREGROUND
  6
CONTINUOUS
 10
0.162688
 20
0.124533
  0
VERTEX
  8
FOREGROUND
  6
CONTINUOUS
 10
0.171071
 20
0.117704
  0
VERTEX
  8
FOREGROUND
  6
CONTINUOUS
 10
0.179688
 20
0.111158
  0
VERTEX
  8
FOREGROUND
  6
CONTINUOUS
 10
0.188531
 20
0.104904
  0
VERTEX
  8
FOREGROUND
  6
CONTINUOUS
 10
0.197594
 20
0.098947
  0
VERTEX
  8
FOREGROUND
  6
CONTINUOUS
 10
0.206870
 20
0.093296
  0
VERTEX
  8
FOREGROUND
  6
CONTINUOUS
 10
0.216351
 20
0.087957
  0
VERTEX
  8
FOREGROUND
  6
CONTINUOUS
 10
0.226031
 20
0.082938
  0
VERTEX
  8
FOREGROUND
  6
CONTINUOUS
 10
0.235901
 20
0.078245
  0
VERTEX
  8
FOREGROUND
  6
CONTINUOUS
 10
0.245956
 20
0.073886
  0
VERTEX
  8
FOREGROUND
  6
CONTINUOUS
 10
0.256187
 20
0.069868
  0
VERTEX
  8
FOREGROUND
  6
CONTINUOUS
 10
0.266589
 20
0.066197
  0
VERTEX
  8
FOREGROUND
  6
CONTINUOUS
 10
0.277153
 20
0.062882
  0
VERTEX
  8
FOREGROUND
  6
CONTINUOUS
 10
0.287873
 20
0.059929
  0
VERTEX
  8
FOREGROUND
  6
CONTINUOUS
 10
0.298741
 20
0.057346
  0
VERTEX
  8
FOREGROUND
  6
CONTINUOUS
 10
0.309750
 20
0.055139
  0
VERTEX
  8
FOREGROUND
  6
CONTINUOUS
 10
0.320894
 20
0.053315
  0
VERTEX
  8
FOREGROUND
  6
CONTINUOUS
 10
0.332164
 20
0.051882
  0
VERTEX
  8
FOREGROUND
  6
CONTINUOUS
 10
0.343555
 20
0.050848
  0
VERTEX
  8
FOREGROUND
  6
CONTINUOUS
 10
0.355058
 20
0.050218
  0
VERTEX
  8
FOREGROUND
  6
CONTINUOUS
 10
0.366667
 20
0.050000
  0
SEQEND
  8
0
  0
ENDSEC
  0
EOF
