  0
SECTION
  2
HEADER
  9
$ACADVER
  1
AC1006
  9
$EXTMIN
 10
0.000000
 20
0.000000
  9
$EXTMAX
 10
1.800000
 20
3.375000
  9
$LTSCALE
 40
0.166667
  9
$PDMODE
 70
    35
  9
$PDSIZE
 40
0.133333
  0
ENDSEC
  0
SECTION
  2
TABLES
  0
TABLE
  2
LTYPE
 70
     9
  0
LTYPE
  2
CONTINUOUS
 70
    64
  3
Solid line
 72
    65
 73
     0
 40
0.000000
  0
LTYPE
  2
DASHED
 70
    64
  3
__ __ __ __ __ __ __ __ __ __ __ __ __ __ __
 72
    65
 73
     2
 40
0.001250
 49
0.000833
 49
-0.000417
  0
LTYPE
  2
HIDDEN
 70
    64
  3
 _ _ _ _ _ _ _ _ _ _ _ _ _ _ _ _ _ _ _ _ _ _
 72
    65
 73
     2
 40
0.000625
 49
0.000417
 49
-0.000208
  0
LTYPE
  2
CENTER
 70
    64
  3
____ _ ____ _ ____ _ ____ _ ____ _ ____ _ ____
 72
    65
 73
     4
 40
0.003333
 49
0.002083
 49
-0.000417
 49
0.000417
 49
-0.000417
  0
LTYPE
  2
PHANTOM
 70
    64
  3
_____ _ _ _____ _ _ _____ _ _ _____ _ _ ____
 72
    65
 73
     6
 40
0.004167
 49
0.002083
 49
-0.000417
 49
0.000417
 49
-0.000417
 49
0.000417
 49
-0.000417
  0
LTYPE
  2
DOT
 70
    64
  3
...............................................
 72
    65
 73
     2
 40
0.000417
 49
0.000000
 49
-0.000417
  0
LTYPE
  2
DASHDOT
 70
    64
  3
__ . __ . __ . __ . __ . __ . __ . __ . __ . __
 72
    65
 73
     4
 40
0.001667
 49
0.000833
 49
-0.000417
 49
0.000000
 49
-0.000417
  0
LTYPE
  2
BORDER
 70
    64
  3
__ __ . __ __ . __ __ . __ __ . __ __ . __ __
 72
    65
 73
     6
 40
0.002917
 49
0.000833
 49
-0.000417
 49
0.000833
 49
-0.000417
 49
0.000000
 49
-0.000417
  0
LTYPE
  2
DIVIDE
 70
    64
  3
__ . . __ . . __ . . __ . . __ . . __ . . __
 72
    65
 73
     6
 40
0.002083
 49
0.000833
 49
-0.000417
 49
0.000000
 49
-0.000417
 49
0.000000
 49
-0.000417
  0
LTYPE
  2
DOTDOT
 70
    64
  3
 . .  . .  . .  . .  . .  . . 
 72
    65
 73
     5
 40
0.000917
 49
-0.000417
 49
0.000000
 49
-0.000417
 49
0.000000
 49
-0.000417
  0
ENDTAB
  0
TABLE
  2
STYLE
 70
     2
  0
STYLE
 70
     0
  2
SN0
 40
0.000000
 41
0.001667
 50
0.000000
 71
     0
 42
0.000000
  3
ROMAND
  0
STYLE
 70
    68
  2
SV0
 40
0.000000
 41
0.001667
 50
0.000000
 71
     0
 42
0.000000
  3
ROMAND
  0
ENDTAB
  0
TABLE
  2
LAYER
 70
     2
  0
LAYER
  2
FOREGROUND
 70
    64
 62
     7
  6
CONTINUOUS
  0
LAYER
  2
BACKGROUND
 70
    65
 62
    -7
  6
CONTINUOUS
  0
ENDTAB
  0
ENDSEC
  0
SECTION
  2
ENTITIES
  0
POLYLINE
  8
FOREGROUND
  6
CONTINUOUS
 66
     1
 40
0.010000
 41
0.010000
 70
     1
  0
VERTEX
  8
FOREGROUND
  6
CONTINUOUS
 10
0.366667
 20
3.220000
  0
VERTEX
  8
FOREGROUND
  6
CONTINUOUS
 10
1.318333
 20
3.220000
  0
VERTEX
  8
FOREGROUND
  6
CONTINUOUS
 10
1.350000
 20
3.218333
  0
VERTEX
  8
FOREGROUND
  6
CONTINUOUS
 10
1.381667
 20
3.213333
  0
VERTEX
  8
FOREGROUND
  6
CONTINUOUS
 10
1.413333
 20
3.205000
  0
VERTEX
  8
FOREGROUND
  6
CONTINUOUS
 10
1.441667
 20
3.195000
  0
VERTEX
  8
FOREGROUND
  6
CONTINUOUS
 10
1.470000
 20
3.181667
  0
VERTEX
  8
FOREGROUND
  6
CONTINUOUS
 10
1.495000
 20
3.166667
  0
VERTEX
  8
FOREGROUND
  6
CONTINUOUS
 10
1.520000
 20
3.148333
  0
VERTEX
  8
FOREGROUND
  6
CONTINUOUS
 10
1.541667
 20
3.126667
  0
VERTEX
  8
FOREGROUND
  6
CONTINUOUS
 10
1.563333
 20
3.105000
  0
VERTEX
  8
FOREGROUND
  6
CONTINUOUS
 10
1.581667
 20
3.080000
  0
VERTEX
  8
FOREGROUND
  6
CONTINUOUS
 10
1.596667
 20
3.055000
  0
VERTEX
  8
FOREGROUND
  6
CONTINUOUS
 10
1.610000
 20
3.026667
  0
VERTEX
  8
FOREGROUND
  6
CONTINUOUS
 10
1.620000
 20
2.996667
  0
VERTEX
  8
FOREGROUND
  6
CONTINUOUS
 10
1.628333
 20
2.966667
  0
VERTEX
  8
FOREGROUND
  6
CONTINUOUS
 10
1.633333
 20
2.935000
  0
VERTEX
  8
FOREGROUND
  6
CONTINUOUS
 10
1.635000
 20
2.903333
  0
VERTEX
  8
FOREGROUND
  6
CONTINUOUS
 10
1.635000
 20
0.375000
  0
VERTEX
  8
FOREGROUND
  6
CONTINUOUS
 10
1.633333
 20
0.343333
  0
VERTEX
  8
FOREGROUND
  6
CONTINUOUS
 10
1.628333
 20
0.311667
  0
VERTEX
  8
FOREGROUND
  6
CONTINUOUS
 10
1.620000
 20
0.280000
  0
VERTEX
  8
FOREGROUND
  6
CONTINUOUS
 10
1.610000
 20
0.251667
  0
VERTEX
  8
FOREGROUND
  6
CONTINUOUS
 10
1.596667
 20
0.223333
  0
VERTEX
  8
FOREGROUND
  6
CONTINUOUS
 10
1.581667
 20
0.198333
  0
VERTEX
  8
FOREGROUND
  6
CONTINUOUS
 10
1.563333
 20
0.173333
  0
VERTEX
  8
FOREGROUND
  6
CONTINUOUS
 10
1.541667
 20
0.151667
  0
VERTEX
  8
FOREGROUND
  6
CONTINUOUS
 10
1.520000
 20
0.130000
  0
VERTEX
  8
FOREGROUND
  6
CONTINUOUS
 10
1.495000
 20
0.111667
  0
VERTEX
  8
FOREGROUND
  6
CONTINUOUS
 10
1.470000
 20
0.096667
  0
VERTEX
  8
FOREGROUND
  6
CONTINUOUS
 10
1.441667
 20
0.083333
  0
VERTEX
  8
FOREGROUND
  6
CONTINUOUS
 10
1.413333
 20
0.073333
  0
VERTEX
  8
FOREGROUND
  6
CONTINUOUS
 10
1.381667
 20
0.065000
  0
VERTEX
  8
FOREGROUND
  6
CONTINUOUS
 10
1.350000
 20
0.060000
  0
VERTEX
  8
FOREGROUND
  6
CONTINUOUS
 10
1.318333
 20
0.058333
  0
VERTEX
  8
FOREGROUND
  6
CONTINUOUS
 10
0.366667
 20
0.058333
  0
VERTEX
  8
FOREGROUND
  6
CONTINUOUS
 10
0.335000
 20
0.060000
  0
VERTEX
  8
FOREGROUND
  6
CONTINUOUS
 10
0.303333
 20
0.065000
  0
VERTEX
  8
FOREGROUND
  6
CONTINUOUS
 10
0.273333
 20
0.073333
  0
VERTEX
  8
FOREGROUND
  6
CONTINUOUS
 10
0.243333
 20
0.083333
  0
VERTEX
  8
FOREGROUND
  6
CONTINUOUS
 10
0.215000
 20
0.096667
  0
VERTEX
  8
FOREGROUND
  6
CONTINUOUS
 10
0.190000
 20
0.111667
  0
VERTEX
  8
FOREGROUND
  6
CONTINUOUS
 10
0.165000
 20
0.130000
  0
VERTEX
  8
FOREGROUND
  6
CONTINUOUS
 10
0.143333
 20
0.151667
  0
VERTEX
  8
FOREGROUND
  6
CONTINUOUS
 10
0.121667
 20
0.173333
  0
VERTEX
  8
FOREGROUND
  6
CONTINUOUS
 10
0.103333
 20
0.198333
  0
VERTEX
  8
FOREGROUND
  6
CONTINUOUS
 10
0.088333
 20
0.223333
  0
VERTEX
  8
FOREGROUND
  6
CONTINUOUS
 10
0.075000
 20
0.251667
  0
VERTEX
  8
FOREGROUND
  6
CONTINUOUS
 10
0.065000
 20
0.280000
  0
VERTEX
  8
FOREGROUND
  6
CONTINUOUS
 10
0.056667
 20
0.311667
  0
VERTEX
  8
FOREGROUND
  6
CONTINUOUS
 10
0.051667
 20
0.343333
  0
VERTEX
  8
FOREGROUND
  6
CONTINUOUS
 10
0.050000
 20
0.375000
  0
VERTEX
  8
FOREGROUND
  6
CONTINUOUS
 10
0.050000
 20
2.903333
  0
VERTEX
  8
FOREGROUND
  6
CONTINUOUS
 10
0.051667
 20
2.935000
  0
VERTEX
  8
FOREGROUND
  6
CONTINUOUS
 10
0.056667
 20
2.966667
  0
VERTEX
  8
FOREGROUND
  6
CONTINUOUS
 10
0.065000
 20
2.996667
  0
VERTEX
  8
FOREGROUND
  6
CONTINUOUS
 10
0.075000
 20
3.026667
  0
VERTEX
  8
FOREGROUND
  6
CONTINUOUS
 10
0.088333
 20
3.055000
  0
VERTEX
  8
FOREGROUND
  6
CONTINUOUS
 10
0.103333
 20
3.080000
  0
VERTEX
  8
FOREGROUND
  6
CONTINUOUS
 10
0.121667
 20
3.105000
  0
VERTEX
  8
FOREGROUND
  6
CONTINUOUS
 10
0.143333
 20
3.126667
  0
VERTEX
  8
FOREGROUND
  6
CONTINUOUS
 10
0.165000
 20
3.148333
  0
VERTEX
  8
FOREGROUND
  6
CONTINUOUS
 10
0.190000
 20
3.166667
  0
VERTEX
  8
FOREGROUND
  6
CONTINUOUS
 10
0.215000
 20
3.181667
  0
VERTEX
  8
FOREGROUND
  6
CONTINUOUS
 10
0.243333
 20
3.195000
  0
VERTEX
  8
FOREGROUND
  6
CONTINUOUS
 10
0.273333
 20
3.205000
  0
VERTEX
  8
FOREGROUND
  6
CONTINUOUS
 10
0.303333
 20
3.213333
  0
VERTEX
  8
FOREGROUND
  6
CONTINUOUS
 10
0.335000
 20
3.218333
  0
SEQEND
  8
0
  0
ENDSEC
  0
EOF
