  0
SECTION
  2
HEADER
  9
$ACADVER
  1
AC1006
  9
$EXTMIN
 10
0.000000
 20
0.000000
  9
$EXTMAX
 10
2.361667
 20
1.785000
  9
$LTSCALE
 40
0.166667
  9
$PDMODE
 70
    35
  9
$PDSIZE
 40
0.133333
  0
ENDSEC
  0
SECTION
  2
TABLES
  0
TABLE
  2
LTYPE
 70
     9
  0
LTYPE
  2
CONTINUOUS
 70
    64
  3
Solid line
 72
    65
 73
     0
 40
0.000000
  0
LTYPE
  2
DASHED
 70
    64
  3
__ __ __ __ __ __ __ __ __ __ __ __ __ __ __
 72
    65
 73
     2
 40
0.001250
 49
0.000833
 49
-0.000417
  0
LTYPE
  2
HIDDEN
 70
    64
  3
 _ _ _ _ _ _ _ _ _ _ _ _ _ _ _ _ _ _ _ _ _ _
 72
    65
 73
     2
 40
0.000625
 49
0.000417
 49
-0.000208
  0
LTYPE
  2
CENTER
 70
    64
  3
____ _ ____ _ ____ _ ____ _ ____ _ ____ _ ____
 72
    65
 73
     4
 40
0.003333
 49
0.002083
 49
-0.000417
 49
0.000417
 49
-0.000417
  0
LTYPE
  2
PHANTOM
 70
    64
  3
_____ _ _ _____ _ _ _____ _ _ _____ _ _ ____
 72
    65
 73
     6
 40
0.004167
 49
0.002083
 49
-0.000417
 49
0.000417
 49
-0.000417
 49
0.000417
 49
-0.000417
  0
LTYPE
  2
DOT
 70
    64
  3
...............................................
 72
    65
 73
     2
 40
0.000417
 49
0.000000
 49
-0.000417
  0
LTYPE
  2
DASHDOT
 70
    64
  3
__ . __ . __ . __ . __ . __ . __ . __ . __ . __
 72
    65
 73
     4
 40
0.001667
 49
0.000833
 49
-0.000417
 49
0.000000
 49
-0.000417
  0
LTYPE
  2
BORDER
 70
    64
  3
__ __ . __ __ . __ __ . __ __ . __ __ . __ __
 72
    65
 73
     6
 40
0.002917
 49
0.000833
 49
-0.000417
 49
0.000833
 49
-0.000417
 49
0.000000
 49
-0.000417
  0
LTYPE
  2
DIVIDE
 70
    64
  3
__ . . __ . . __ . . __ . . __ . . __ . . __
 72
    65
 73
     6
 40
0.002083
 49
0.000833
 49
-0.000417
 49
0.000000
 49
-0.000417
 49
0.000000
 49
-0.000417
  0
LTYPE
  2
DOTDOT
 70
    64
  3
 . .  . .  . .  . .  . .  . . 
 72
    65
 73
     5
 40
0.000917
 49
-0.000417
 49
0.000000
 49
-0.000417
 49
0.000000
 49
-0.000417
  0
ENDTAB
  0
TABLE
  2
STYLE
 70
     2
  0
STYLE
 70
     0
  2
SN0
 40
0.000000
 41
0.001667
 50
0.000000
 71
     0
 42
0.000000
  3
ROMAND
  0
STYLE
 70
    68
  2
SV0
 40
0.000000
 41
0.001667
 50
0.000000
 71
     0
 42
0.000000
  3
ROMAND
  0
ENDTAB
  0
TABLE
  2
LAYER
 70
     2
  0
LAYER
  2
FOREGROUND
 70
    64
 62
     7
  6
CONTINUOUS
  0
LAYER
  2
BACKGROUND
 70
    65
 62
    -7
  6
CONTINUOUS
  0
ENDTAB
  0
ENDSEC
  0
SECTION
  2
ENTITIES
  0
POLYLINE
  8
FOREGROUND
 62
     7
  6
CONTINUOUS
 66
     1
 40
0.000000
 41
0.000000
 70
     1
  0
VERTEX
  8
FOREGROUND
 62
     7
  6
CONTINUOUS
 10
0.363333
 20
1.630000
  0
VERTEX
  8
FOREGROUND
 62
     7
  6
CONTINUOUS
 10
1.883333
 20
1.630000
  0
VERTEX
  8
FOREGROUND
 62
     7
  6
CONTINUOUS
 10
1.915000
 20
1.628333
  0
VERTEX
  8
FOREGROUND
 62
     7
  6
CONTINUOUS
 10
1.946667
 20
1.623333
  0
VERTEX
  8
FOREGROUND
 62
     7
  6
CONTINUOUS
 10
1.976667
 20
1.616667
  0
VERTEX
  8
FOREGROUND
 62
     7
  6
CONTINUOUS
 10
2.005000
 20
1.605000
  0
VERTEX
  8
FOREGROUND
 62
     7
  6
CONTINUOUS
 10
2.033333
 20
1.591667
  0
VERTEX
  8
FOREGROUND
 62
     7
  6
CONTINUOUS
 10
2.058333
 20
1.576667
  0
VERTEX
  8
FOREGROUND
 62
     7
  6
CONTINUOUS
 10
2.083333
 20
1.558333
  0
VERTEX
  8
FOREGROUND
 62
     7
  6
CONTINUOUS
 10
2.105000
 20
1.538333
  0
VERTEX
  8
FOREGROUND
 62
     7
  6
CONTINUOUS
 10
2.125000
 20
1.516667
  0
VERTEX
  8
FOREGROUND
 62
     7
  6
CONTINUOUS
 10
2.143333
 20
1.491667
  0
VERTEX
  8
FOREGROUND
 62
     7
  6
CONTINUOUS
 10
2.158333
 20
1.466667
  0
VERTEX
  8
FOREGROUND
 62
     7
  6
CONTINUOUS
 10
2.171667
 20
1.438333
  0
VERTEX
  8
FOREGROUND
 62
     7
  6
CONTINUOUS
 10
2.183333
 20
1.410000
  0
VERTEX
  8
FOREGROUND
 62
     7
  6
CONTINUOUS
 10
2.190000
 20
1.380000
  0
VERTEX
  8
FOREGROUND
 62
     7
  6
CONTINUOUS
 10
2.195000
 20
1.348333
  0
VERTEX
  8
FOREGROUND
 62
     7
  6
CONTINUOUS
 10
2.196667
 20
1.316667
  0
VERTEX
  8
FOREGROUND
 62
     7
  6
CONTINUOUS
 10
2.196667
 20
0.371667
  0
VERTEX
  8
FOREGROUND
 62
     7
  6
CONTINUOUS
 10
2.195000
 20
0.340000
  0
VERTEX
  8
FOREGROUND
 62
     7
  6
CONTINUOUS
 10
2.190000
 20
0.308333
  0
VERTEX
  8
FOREGROUND
 62
     7
  6
CONTINUOUS
 10
2.183333
 20
0.278333
  0
VERTEX
  8
FOREGROUND
 62
     7
  6
CONTINUOUS
 10
2.171667
 20
0.250000
  0
VERTEX
  8
FOREGROUND
 62
     7
  6
CONTINUOUS
 10
2.158333
 20
0.221667
  0
VERTEX
  8
FOREGROUND
 62
     7
  6
CONTINUOUS
 10
2.143333
 20
0.196667
  0
VERTEX
  8
FOREGROUND
 62
     7
  6
CONTINUOUS
 10
2.125000
 20
0.171667
  0
VERTEX
  8
FOREGROUND
 62
     7
  6
CONTINUOUS
 10
2.105000
 20
0.150000
  0
VERTEX
  8
FOREGROUND
 62
     7
  6
CONTINUOUS
 10
2.083333
 20
0.130000
  0
VERTEX
  8
FOREGROUND
 62
     7
  6
CONTINUOUS
 10
2.058333
 20
0.111667
  0
VERTEX
  8
FOREGROUND
 62
     7
  6
CONTINUOUS
 10
2.033333
 20
0.096667
  0
VERTEX
  8
FOREGROUND
 62
     7
  6
CONTINUOUS
 10
2.005000
 20
0.083333
  0
VERTEX
  8
FOREGROUND
 62
     7
  6
CONTINUOUS
 10
1.976667
 20
0.071667
  0
VERTEX
  8
FOREGROUND
 62
     7
  6
CONTINUOUS
 10
1.946667
 20
0.065000
  0
VERTEX
  8
FOREGROUND
 62
     7
  6
CONTINUOUS
 10
1.915000
 20
0.060000
  0
VERTEX
  8
FOREGROUND
 62
     7
  6
CONTINUOUS
 10
1.883333
 20
0.058333
  0
VERTEX
  8
FOREGROUND
 62
     7
  6
CONTINUOUS
 10
0.363333
 20
0.058333
  0
VERTEX
  8
FOREGROUND
 62
     7
  6
CONTINUOUS
 10
0.331667
 20
0.060000
  0
VERTEX
  8
FOREGROUND
 62
     7
  6
CONTINUOUS
 10
0.300000
 20
0.065000
  0
VERTEX
  8
FOREGROUND
 62
     7
  6
CONTINUOUS
 10
0.270000
 20
0.071667
  0
VERTEX
  8
FOREGROUND
 62
     7
  6
CONTINUOUS
 10
0.241667
 20
0.083333
  0
VERTEX
  8
FOREGROUND
 62
     7
  6
CONTINUOUS
 10
0.213333
 20
0.096667
  0
VERTEX
  8
FOREGROUND
 62
     7
  6
CONTINUOUS
 10
0.188333
 20
0.111667
  0
VERTEX
  8
FOREGROUND
 62
     7
  6
CONTINUOUS
 10
0.163333
 20
0.130000
  0
VERTEX
  8
FOREGROUND
 62
     7
  6
CONTINUOUS
 10
0.141667
 20
0.150000
  0
VERTEX
  8
FOREGROUND
 62
     7
  6
CONTINUOUS
 10
0.121667
 20
0.171667
  0
VERTEX
  8
FOREGROUND
 62
     7
  6
CONTINUOUS
 10
0.103333
 20
0.196667
  0
VERTEX
  8
FOREGROUND
 62
     7
  6
CONTINUOUS
 10
0.088333
 20
0.221667
  0
VERTEX
  8
FOREGROUND
 62
     7
  6
CONTINUOUS
 10
0.075000
 20
0.250000
  0
VERTEX
  8
FOREGROUND
 62
     7
  6
CONTINUOUS
 10
0.063333
 20
0.278333
  0
VERTEX
  8
FOREGROUND
 62
     7
  6
CONTINUOUS
 10
0.056667
 20
0.308333
  0
VERTEX
  8
FOREGROUND
 62
     7
  6
CONTINUOUS
 10
0.051667
 20
0.340000
  0
VERTEX
  8
FOREGROUND
 62
     7
  6
CONTINUOUS
 10
0.050000
 20
0.371667
  0
VERTEX
  8
FOREGROUND
 62
     7
  6
CONTINUOUS
 10
0.050000
 20
1.316667
  0
VERTEX
  8
FOREGROUND
 62
     7
  6
CONTINUOUS
 10
0.051667
 20
1.348333
  0
VERTEX
  8
FOREGROUND
 62
     7
  6
CONTINUOUS
 10
0.056667
 20
1.380000
  0
VERTEX
  8
FOREGROUND
 62
     7
  6
CONTINUOUS
 10
0.063333
 20
1.410000
  0
VERTEX
  8
FOREGROUND
 62
     7
  6
CONTINUOUS
 10
0.075000
 20
1.438333
  0
VERTEX
  8
FOREGROUND
 62
     7
  6
CONTINUOUS
 10
0.088333
 20
1.466667
  0
VERTEX
  8
FOREGROUND
 62
     7
  6
CONTINUOUS
 10
0.103333
 20
1.491667
  0
VERTEX
  8
FOREGROUND
 62
     7
  6
CONTINUOUS
 10
0.121667
 20
1.516667
  0
VERTEX
  8
FOREGROUND
 62
     7
  6
CONTINUOUS
 10
0.141667
 20
1.538333
  0
VERTEX
  8
FOREGROUND
 62
     7
  6
CONTINUOUS
 10
0.163333
 20
1.558333
  0
VERTEX
  8
FOREGROUND
 62
     7
  6
CONTINUOUS
 10
0.188333
 20
1.576667
  0
VERTEX
  8
FOREGROUND
 62
     7
  6
CONTINUOUS
 10
0.213333
 20
1.591667
  0
VERTEX
  8
FOREGROUND
 62
     7
  6
CONTINUOUS
 10
0.241667
 20
1.605000
  0
VERTEX
  8
FOREGROUND
 62
     7
  6
CONTINUOUS
 10
0.270000
 20
1.616667
  0
VERTEX
  8
FOREGROUND
 62
     7
  6
CONTINUOUS
 10
0.300000
 20
1.623333
  0
VERTEX
  8
FOREGROUND
 62
     7
  6
CONTINUOUS
 10
0.331667
 20
1.628333
  0
SEQEND
  8
0
  0
POLYLINE
  8
FOREGROUND
  6
CONTINUOUS
 66
     1
 40
0.010000
 41
0.010000
 70
     1
  0
VERTEX
  8
FOREGROUND
  6
CONTINUOUS
 10
0.363333
 20
1.630000
  0
VERTEX
  8
FOREGROUND
  6
CONTINUOUS
 10
1.883333
 20
1.630000
  0
VERTEX
  8
FOREGROUND
  6
CONTINUOUS
 10
1.915000
 20
1.628333
  0
VERTEX
  8
FOREGROUND
  6
CONTINUOUS
 10
1.946667
 20
1.623333
  0
VERTEX
  8
FOREGROUND
  6
CONTINUOUS
 10
1.976667
 20
1.616667
  0
VERTEX
  8
FOREGROUND
  6
CONTINUOUS
 10
2.005000
 20
1.605000
  0
VERTEX
  8
FOREGROUND
  6
CONTINUOUS
 10
2.033333
 20
1.591667
  0
VERTEX
  8
FOREGROUND
  6
CONTINUOUS
 10
2.058333
 20
1.576667
  0
VERTEX
  8
FOREGROUND
  6
CONTINUOUS
 10
2.083333
 20
1.558333
  0
VERTEX
  8
FOREGROUND
  6
CONTINUOUS
 10
2.105000
 20
1.538333
  0
VERTEX
  8
FOREGROUND
  6
CONTINUOUS
 10
2.125000
 20
1.516667
  0
VERTEX
  8
FOREGROUND
  6
CONTINUOUS
 10
2.143333
 20
1.491667
  0
VERTEX
  8
FOREGROUND
  6
CONTINUOUS
 10
2.158333
 20
1.466667
  0
VERTEX
  8
FOREGROUND
  6
CONTINUOUS
 10
2.171667
 20
1.438333
  0
VERTEX
  8
FOREGROUND
  6
CONTINUOUS
 10
2.183333
 20
1.410000
  0
VERTEX
  8
FOREGROUND
  6
CONTINUOUS
 10
2.190000
 20
1.380000
  0
VERTEX
  8
FOREGROUND
  6
CONTINUOUS
 10
2.195000
 20
1.348333
  0
VERTEX
  8
FOREGROUND
  6
CONTINUOUS
 10
2.196667
 20
1.316667
  0
VERTEX
  8
FOREGROUND
  6
CONTINUOUS
 10
2.196667
 20
0.371667
  0
VERTEX
  8
FOREGROUND
  6
CONTINUOUS
 10
2.195000
 20
0.340000
  0
VERTEX
  8
FOREGROUND
  6
CONTINUOUS
 10
2.190000
 20
0.308333
  0
VERTEX
  8
FOREGROUND
  6
CONTINUOUS
 10
2.183333
 20
0.278333
  0
VERTEX
  8
FOREGROUND
  6
CONTINUOUS
 10
2.171667
 20
0.250000
  0
VERTEX
  8
FOREGROUND
  6
CONTINUOUS
 10
2.158333
 20
0.221667
  0
VERTEX
  8
FOREGROUND
  6
CONTINUOUS
 10
2.143333
 20
0.196667
  0
VERTEX
  8
FOREGROUND
  6
CONTINUOUS
 10
2.125000
 20
0.171667
  0
VERTEX
  8
FOREGROUND
  6
CONTINUOUS
 10
2.105000
 20
0.150000
  0
VERTEX
  8
FOREGROUND
  6
CONTINUOUS
 10
2.083333
 20
0.130000
  0
VERTEX
  8
FOREGROUND
  6
CONTINUOUS
 10
2.058333
 20
0.111667
  0
VERTEX
  8
FOREGROUND
  6
CONTINUOUS
 10
2.033333
 20
0.096667
  0
VERTEX
  8
FOREGROUND
  6
CONTINUOUS
 10
2.005000
 20
0.083333
  0
VERTEX
  8
FOREGROUND
  6
CONTINUOUS
 10
1.976667
 20
0.071667
  0
VERTEX
  8
FOREGROUND
  6
CONTINUOUS
 10
1.946667
 20
0.065000
  0
VERTEX
  8
FOREGROUND
  6
CONTINUOUS
 10
1.915000
 20
0.060000
  0
VERTEX
  8
FOREGROUND
  6
CONTINUOUS
 10
1.883333
 20
0.058333
  0
VERTEX
  8
FOREGROUND
  6
CONTINUOUS
 10
0.363333
 20
0.058333
  0
VERTEX
  8
FOREGROUND
  6
CONTINUOUS
 10
0.331667
 20
0.060000
  0
VERTEX
  8
FOREGROUND
  6
CONTINUOUS
 10
0.300000
 20
0.065000
  0
VERTEX
  8
FOREGROUND
  6
CONTINUOUS
 10
0.270000
 20
0.071667
  0
VERTEX
  8
FOREGROUND
  6
CONTINUOUS
 10
0.241667
 20
0.083333
  0
VERTEX
  8
FOREGROUND
  6
CONTINUOUS
 10
0.213333
 20
0.096667
  0
VERTEX
  8
FOREGROUND
  6
CONTINUOUS
 10
0.188333
 20
0.111667
  0
VERTEX
  8
FOREGROUND
  6
CONTINUOUS
 10
0.163333
 20
0.130000
  0
VERTEX
  8
FOREGROUND
  6
CONTINUOUS
 10
0.141667
 20
0.150000
  0
VERTEX
  8
FOREGROUND
  6
CONTINUOUS
 10
0.121667
 20
0.171667
  0
VERTEX
  8
FOREGROUND
  6
CONTINUOUS
 10
0.103333
 20
0.196667
  0
VERTEX
  8
FOREGROUND
  6
CONTINUOUS
 10
0.088333
 20
0.221667
  0
VERTEX
  8
FOREGROUND
  6
CONTINUOUS
 10
0.075000
 20
0.250000
  0
VERTEX
  8
FOREGROUND
  6
CONTINUOUS
 10
0.063333
 20
0.278333
  0
VERTEX
  8
FOREGROUND
  6
CONTINUOUS
 10
0.056667
 20
0.308333
  0
VERTEX
  8
FOREGROUND
  6
CONTINUOUS
 10
0.051667
 20
0.340000
  0
VERTEX
  8
FOREGROUND
  6
CONTINUOUS
 10
0.050000
 20
0.371667
  0
VERTEX
  8
FOREGROUND
  6
CONTINUOUS
 10
0.050000
 20
1.316667
  0
VERTEX
  8
FOREGROUND
  6
CONTINUOUS
 10
0.051667
 20
1.348333
  0
VERTEX
  8
FOREGROUND
  6
CONTINUOUS
 10
0.056667
 20
1.380000
  0
VERTEX
  8
FOREGROUND
  6
CONTINUOUS
 10
0.063333
 20
1.410000
  0
VERTEX
  8
FOREGROUND
  6
CONTINUOUS
 10
0.075000
 20
1.438333
  0
VERTEX
  8
FOREGROUND
  6
CONTINUOUS
 10
0.088333
 20
1.466667
  0
VERTEX
  8
FOREGROUND
  6
CONTINUOUS
 10
0.103333
 20
1.491667
  0
VERTEX
  8
FOREGROUND
  6
CONTINUOUS
 10
0.121667
 20
1.516667
  0
VERTEX
  8
FOREGROUND
  6
CONTINUOUS
 10
0.141667
 20
1.538333
  0
VERTEX
  8
FOREGROUND
  6
CONTINUOUS
 10
0.163333
 20
1.558333
  0
VERTEX
  8
FOREGROUND
  6
CONTINUOUS
 10
0.188333
 20
1.576667
  0
VERTEX
  8
FOREGROUND
  6
CONTINUOUS
 10
0.213333
 20
1.591667
  0
VERTEX
  8
FOREGROUND
  6
CONTINUOUS
 10
0.241667
 20
1.605000
  0
VERTEX
  8
FOREGROUND
  6
CONTINUOUS
 10
0.270000
 20
1.616667
  0
VERTEX
  8
FOREGROUND
  6
CONTINUOUS
 10
0.300000
 20
1.623333
  0
VERTEX
  8
FOREGROUND
  6
CONTINUOUS
 10
0.331667
 20
1.628333
  0
SEQEND
  8
0
  0
ENDSEC
  0
EOF
