  0
SECTION
  2
HEADER
  9
$ACADVER
  1
AC1006
  9
$EXTMIN
 10
0.000000
 20
0.000000
  9
$EXTMAX
 10
2.305000
 20
6.131667
  9
$LTSCALE
 40
0.166667
  9
$PDMODE
 70
    35
  9
$PDSIZE
 40
0.133333
  0
ENDSEC
  0
SECTION
  2
TABLES
  0
TABLE
  2
LTYPE
 70
     9
  0
LTYPE
  2
CONTINUOUS
 70
    64
  3
Solid line
 72
    65
 73
     0
 40
0.000000
  0
LTYPE
  2
DASHED
 70
    64
  3
__ __ __ __ __ __ __ __ __ __ __ __ __ __ __
 72
    65
 73
     2
 40
0.001250
 49
0.000833
 49
-0.000417
  0
LTYPE
  2
HIDDEN
 70
    64
  3
 _ _ _ _ _ _ _ _ _ _ _ _ _ _ _ _ _ _ _ _ _ _
 72
    65
 73
     2
 40
0.000625
 49
0.000417
 49
-0.000208
  0
LTYPE
  2
CENTER
 70
    64
  3
____ _ ____ _ ____ _ ____ _ ____ _ ____ _ ____
 72
    65
 73
     4
 40
0.003333
 49
0.002083
 49
-0.000417
 49
0.000417
 49
-0.000417
  0
LTYPE
  2
PHANTOM
 70
    64
  3
_____ _ _ _____ _ _ _____ _ _ _____ _ _ ____
 72
    65
 73
     6
 40
0.004167
 49
0.002083
 49
-0.000417
 49
0.000417
 49
-0.000417
 49
0.000417
 49
-0.000417
  0
LTYPE
  2
DOT
 70
    64
  3
...............................................
 72
    65
 73
     2
 40
0.000417
 49
0.000000
 49
-0.000417
  0
LTYPE
  2
DASHDOT
 70
    64
  3
__ . __ . __ . __ . __ . __ . __ . __ . __ . __
 72
    65
 73
     4
 40
0.001667
 49
0.000833
 49
-0.000417
 49
0.000000
 49
-0.000417
  0
LTYPE
  2
BORDER
 70
    64
  3
__ __ . __ __ . __ __ . __ __ . __ __ . __ __
 72
    65
 73
     6
 40
0.002917
 49
0.000833
 49
-0.000417
 49
0.000833
 49
-0.000417
 49
0.000000
 49
-0.000417
  0
LTYPE
  2
DIVIDE
 70
    64
  3
__ . . __ . . __ . . __ . . __ . . __ . . __
 72
    65
 73
     6
 40
0.002083
 49
0.000833
 49
-0.000417
 49
0.000000
 49
-0.000417
 49
0.000000
 49
-0.000417
  0
LTYPE
  2
DOTDOT
 70
    64
  3
 . .  . .  . .  . .  . .  . . 
 72
    65
 73
     5
 40
0.000917
 49
-0.000417
 49
0.000000
 49
-0.000417
 49
0.000000
 49
-0.000417
  0
ENDTAB
  0
TABLE
  2
STYLE
 70
     2
  0
STYLE
 70
     0
  2
SN0
 40
0.000000
 41
0.001667
 50
0.000000
 71
     0
 42
0.000000
  3
ROMAND
  0
STYLE
 70
    68
  2
SV0
 40
0.000000
 41
0.001667
 50
0.000000
 71
     0
 42
0.000000
  3
ROMAND
  0
ENDTAB
  0
TABLE
  2
LAYER
 70
     2
  0
LAYER
  2
FOREGROUND
 70
    64
 62
     7
  6
CONTINUOUS
  0
LAYER
  2
BACKGROUND
 70
    65
 62
    -7
  6
CONTINUOUS
  0
ENDTAB
  0
ENDSEC
  0
SECTION
  2
ENTITIES
  0
POLYLINE
  8
FOREGROUND
  6
CONTINUOUS
 66
     1
 40
0.010000
 41
0.010000
 70
     1
  0
VERTEX
  8
FOREGROUND
  6
CONTINUOUS
 10
0.466667
 20
5.976667
  0
VERTEX
  8
FOREGROUND
  6
CONTINUOUS
 10
1.725000
 20
5.976667
  0
VERTEX
  8
FOREGROUND
  6
CONTINUOUS
 10
1.768333
 20
5.975000
  0
VERTEX
  8
FOREGROUND
  6
CONTINUOUS
 10
1.808333
 20
5.968333
  0
VERTEX
  8
FOREGROUND
  6
CONTINUOUS
 10
1.848333
 20
5.958333
  0
VERTEX
  8
FOREGROUND
  6
CONTINUOUS
 10
1.886667
 20
5.943333
  0
VERTEX
  8
FOREGROUND
  6
CONTINUOUS
 10
1.923333
 20
5.926667
  0
VERTEX
  8
FOREGROUND
  6
CONTINUOUS
 10
1.958333
 20
5.905000
  0
VERTEX
  8
FOREGROUND
  6
CONTINUOUS
 10
1.990000
 20
5.881667
  0
VERTEX
  8
FOREGROUND
  6
CONTINUOUS
 10
2.020000
 20
5.855000
  0
VERTEX
  8
FOREGROUND
  6
CONTINUOUS
 10
2.046667
 20
5.825000
  0
VERTEX
  8
FOREGROUND
  6
CONTINUOUS
 10
2.070000
 20
5.793333
  0
VERTEX
  8
FOREGROUND
  6
CONTINUOUS
 10
2.091667
 20
5.758333
  0
VERTEX
  8
FOREGROUND
  6
CONTINUOUS
 10
2.108333
 20
5.721667
  0
VERTEX
  8
FOREGROUND
  6
CONTINUOUS
 10
2.123333
 20
5.683333
  0
VERTEX
  8
FOREGROUND
  6
CONTINUOUS
 10
2.133333
 20
5.643333
  0
VERTEX
  8
FOREGROUND
  6
CONTINUOUS
 10
2.140000
 20
5.601667
  0
VERTEX
  8
FOREGROUND
  6
CONTINUOUS
 10
2.141667
 20
5.560000
  0
VERTEX
  8
FOREGROUND
  6
CONTINUOUS
 10
2.141667
 20
0.475000
  0
VERTEX
  8
FOREGROUND
  6
CONTINUOUS
 10
2.140000
 20
0.431667
  0
VERTEX
  8
FOREGROUND
  6
CONTINUOUS
 10
2.133333
 20
0.391667
  0
VERTEX
  8
FOREGROUND
  6
CONTINUOUS
 10
2.123333
 20
0.351667
  0
VERTEX
  8
FOREGROUND
  6
CONTINUOUS
 10
2.108333
 20
0.313333
  0
VERTEX
  8
FOREGROUND
  6
CONTINUOUS
 10
2.091667
 20
0.276667
  0
VERTEX
  8
FOREGROUND
  6
CONTINUOUS
 10
2.070000
 20
0.241667
  0
VERTEX
  8
FOREGROUND
  6
CONTINUOUS
 10
2.046667
 20
0.210000
  0
VERTEX
  8
FOREGROUND
  6
CONTINUOUS
 10
2.020000
 20
0.180000
  0
VERTEX
  8
FOREGROUND
  6
CONTINUOUS
 10
1.990000
 20
0.153333
  0
VERTEX
  8
FOREGROUND
  6
CONTINUOUS
 10
1.958333
 20
0.130000
  0
VERTEX
  8
FOREGROUND
  6
CONTINUOUS
 10
1.923333
 20
0.108333
  0
VERTEX
  8
FOREGROUND
  6
CONTINUOUS
 10
1.886667
 20
0.091667
  0
VERTEX
  8
FOREGROUND
  6
CONTINUOUS
 10
1.848333
 20
0.076667
  0
VERTEX
  8
FOREGROUND
  6
CONTINUOUS
 10
1.808333
 20
0.066667
  0
VERTEX
  8
FOREGROUND
  6
CONTINUOUS
 10
1.768333
 20
0.060000
  0
VERTEX
  8
FOREGROUND
  6
CONTINUOUS
 10
1.725000
 20
0.058333
  0
VERTEX
  8
FOREGROUND
  6
CONTINUOUS
 10
0.466667
 20
0.058333
  0
VERTEX
  8
FOREGROUND
  6
CONTINUOUS
 10
0.425000
 20
0.060000
  0
VERTEX
  8
FOREGROUND
  6
CONTINUOUS
 10
0.383333
 20
0.066667
  0
VERTEX
  8
FOREGROUND
  6
CONTINUOUS
 10
0.343333
 20
0.076667
  0
VERTEX
  8
FOREGROUND
  6
CONTINUOUS
 10
0.305000
 20
0.091667
  0
VERTEX
  8
FOREGROUND
  6
CONTINUOUS
 10
0.268333
 20
0.108333
  0
VERTEX
  8
FOREGROUND
  6
CONTINUOUS
 10
0.233333
 20
0.130000
  0
VERTEX
  8
FOREGROUND
  6
CONTINUOUS
 10
0.201667
 20
0.153333
  0
VERTEX
  8
FOREGROUND
  6
CONTINUOUS
 10
0.171667
 20
0.180000
  0
VERTEX
  8
FOREGROUND
  6
CONTINUOUS
 10
0.145000
 20
0.210000
  0
VERTEX
  8
FOREGROUND
  6
CONTINUOUS
 10
0.121667
 20
0.241667
  0
VERTEX
  8
FOREGROUND
  6
CONTINUOUS
 10
0.100000
 20
0.276667
  0
VERTEX
  8
FOREGROUND
  6
CONTINUOUS
 10
0.083333
 20
0.313333
  0
VERTEX
  8
FOREGROUND
  6
CONTINUOUS
 10
0.068333
 20
0.351667
  0
VERTEX
  8
FOREGROUND
  6
CONTINUOUS
 10
0.058333
 20
0.391667
  0
VERTEX
  8
FOREGROUND
  6
CONTINUOUS
 10
0.051667
 20
0.431667
  0
VERTEX
  8
FOREGROUND
  6
CONTINUOUS
 10
0.050000
 20
0.475000
  0
VERTEX
  8
FOREGROUND
  6
CONTINUOUS
 10
0.050000
 20
5.560000
  0
VERTEX
  8
FOREGROUND
  6
CONTINUOUS
 10
0.051667
 20
5.601667
  0
VERTEX
  8
FOREGROUND
  6
CONTINUOUS
 10
0.058333
 20
5.643333
  0
VERTEX
  8
FOREGROUND
  6
CONTINUOUS
 10
0.068333
 20
5.683333
  0
VERTEX
  8
FOREGROUND
  6
CONTINUOUS
 10
0.083333
 20
5.721667
  0
VERTEX
  8
FOREGROUND
  6
CONTINUOUS
 10
0.100000
 20
5.758333
  0
VERTEX
  8
FOREGROUND
  6
CONTINUOUS
 10
0.121667
 20
5.793333
  0
VERTEX
  8
FOREGROUND
  6
CONTINUOUS
 10
0.145000
 20
5.825000
  0
VERTEX
  8
FOREGROUND
  6
CONTINUOUS
 10
0.171667
 20
5.855000
  0
VERTEX
  8
FOREGROUND
  6
CONTINUOUS
 10
0.201667
 20
5.881667
  0
VERTEX
  8
FOREGROUND
  6
CONTINUOUS
 10
0.233333
 20
5.905000
  0
VERTEX
  8
FOREGROUND
  6
CONTINUOUS
 10
0.268333
 20
5.926667
  0
VERTEX
  8
FOREGROUND
  6
CONTINUOUS
 10
0.305000
 20
5.943333
  0
VERTEX
  8
FOREGROUND
  6
CONTINUOUS
 10
0.343333
 20
5.958333
  0
VERTEX
  8
FOREGROUND
  6
CONTINUOUS
 10
0.383333
 20
5.968333
  0
VERTEX
  8
FOREGROUND
  6
CONTINUOUS
 10
0.425000
 20
5.975000
  0
SEQEND
  8
0
  0
ENDSEC
  0
EOF
