  0
SECTION
  2
HEADER
  9
$ACADVER
  1
AC1006
  9
$EXTMIN
 10
0.000000
 20
0.000000
  9
$EXTMAX
 10
2.315000
 20
8.105000
  9
$LTSCALE
 40
0.166667
  9
$PDMODE
 70
    35
  9
$PDSIZE
 40
0.133333
  0
ENDSEC
  0
SECTION
  2
TABLES
  0
TABLE
  2
LTYPE
 70
     9
  0
LTYPE
  2
CONTINUOUS
 70
    64
  3
Solid line
 72
    65
 73
     0
 40
0.000000
  0
LTYPE
  2
DASHED
 70
    64
  3
__ __ __ __ __ __ __ __ __ __ __ __ __ __ __
 72
    65
 73
     2
 40
0.001250
 49
0.000833
 49
-0.000417
  0
LTYPE
  2
HIDDEN
 70
    64
  3
 _ _ _ _ _ _ _ _ _ _ _ _ _ _ _ _ _ _ _ _ _ _
 72
    65
 73
     2
 40
0.000625
 49
0.000417
 49
-0.000208
  0
LTYPE
  2
CENTER
 70
    64
  3
____ _ ____ _ ____ _ ____ _ ____ _ ____ _ ____
 72
    65
 73
     4
 40
0.003333
 49
0.002083
 49
-0.000417
 49
0.000417
 49
-0.000417
  0
LTYPE
  2
PHANTOM
 70
    64
  3
_____ _ _ _____ _ _ _____ _ _ _____ _ _ ____
 72
    65
 73
     6
 40
0.004167
 49
0.002083
 49
-0.000417
 49
0.000417
 49
-0.000417
 49
0.000417
 49
-0.000417
  0
LTYPE
  2
DOT
 70
    64
  3
...............................................
 72
    65
 73
     2
 40
0.000417
 49
0.000000
 49
-0.000417
  0
LTYPE
  2
DASHDOT
 70
    64
  3
__ . __ . __ . __ . __ . __ . __ . __ . __ . __
 72
    65
 73
     4
 40
0.001667
 49
0.000833
 49
-0.000417
 49
0.000000
 49
-0.000417
  0
LTYPE
  2
BORDER
 70
    64
  3
__ __ . __ __ . __ __ . __ __ . __ __ . __ __
 72
    65
 73
     6
 40
0.002917
 49
0.000833
 49
-0.000417
 49
0.000833
 49
-0.000417
 49
0.000000
 49
-0.000417
  0
LTYPE
  2
DIVIDE
 70
    64
  3
__ . . __ . . __ . . __ . . __ . . __ . . __
 72
    65
 73
     6
 40
0.002083
 49
0.000833
 49
-0.000417
 49
0.000000
 49
-0.000417
 49
0.000000
 49
-0.000417
  0
LTYPE
  2
DOTDOT
 70
    64
  3
 . .  . .  . .  . .  . .  . . 
 72
    65
 73
     5
 40
0.000917
 49
-0.000417
 49
0.000000
 49
-0.000417
 49
0.000000
 49
-0.000417
  0
ENDTAB
  0
TABLE
  2
STYLE
 70
     2
  0
STYLE
 70
     0
  2
SN0
 40
0.000000
 41
0.001667
 50
0.000000
 71
     0
 42
0.000000
  3
ROMAND
  0
STYLE
 70
    68
  2
SV0
 40
0.000000
 41
0.001667
 50
0.000000
 71
     0
 42
0.000000
  3
ROMAND
  0
ENDTAB
  0
TABLE
  2
LAYER
 70
     2
  0
LAYER
  2
FOREGROUND
 70
    64
 62
     7
  6
CONTINUOUS
  0
LAYER
  2
BACKGROUND
 70
    65
 62
    -7
  6
CONTINUOUS
  0
ENDTAB
  0
ENDSEC
  0
SECTION
  2
ENTITIES
  0
POLYLINE
  8
FOREGROUND
  6
CONTINUOUS
 66
     1
 40
0.010000
 41
0.010000
 70
     1
  0
VERTEX
  8
FOREGROUND
  6
CONTINUOUS
 10
0.470000
 20
7.950000
  0
VERTEX
  8
FOREGROUND
  6
CONTINUOUS
 10
1.731667
 20
7.950000
  0
VERTEX
  8
FOREGROUND
  6
CONTINUOUS
 10
1.775000
 20
7.948333
  0
VERTEX
  8
FOREGROUND
  6
CONTINUOUS
 10
1.816667
 20
7.941667
  0
VERTEX
  8
FOREGROUND
  6
CONTINUOUS
 10
1.856667
 20
7.930000
  0
VERTEX
  8
FOREGROUND
  6
CONTINUOUS
 10
1.895000
 20
7.916667
  0
VERTEX
  8
FOREGROUND
  6
CONTINUOUS
 10
1.931667
 20
7.898333
  0
VERTEX
  8
FOREGROUND
  6
CONTINUOUS
 10
1.966667
 20
7.878333
  0
VERTEX
  8
FOREGROUND
  6
CONTINUOUS
 10
1.998333
 20
7.853333
  0
VERTEX
  8
FOREGROUND
  6
CONTINUOUS
 10
2.028333
 20
7.826667
  0
VERTEX
  8
FOREGROUND
  6
CONTINUOUS
 10
2.056667
 20
7.796667
  0
VERTEX
  8
FOREGROUND
  6
CONTINUOUS
 10
2.080000
 20
7.765000
  0
VERTEX
  8
FOREGROUND
  6
CONTINUOUS
 10
2.101667
 20
7.730000
  0
VERTEX
  8
FOREGROUND
  6
CONTINUOUS
 10
2.118333
 20
7.693333
  0
VERTEX
  8
FOREGROUND
  6
CONTINUOUS
 10
2.133333
 20
7.655000
  0
VERTEX
  8
FOREGROUND
  6
CONTINUOUS
 10
2.143333
 20
7.615000
  0
VERTEX
  8
FOREGROUND
  6
CONTINUOUS
 10
2.150000
 20
7.573333
  0
VERTEX
  8
FOREGROUND
  6
CONTINUOUS
 10
2.151667
 20
7.530000
  0
VERTEX
  8
FOREGROUND
  6
CONTINUOUS
 10
2.151667
 20
0.478333
  0
VERTEX
  8
FOREGROUND
  6
CONTINUOUS
 10
2.150000
 20
0.435000
  0
VERTEX
  8
FOREGROUND
  6
CONTINUOUS
 10
2.143333
 20
0.393333
  0
VERTEX
  8
FOREGROUND
  6
CONTINUOUS
 10
2.133333
 20
0.353333
  0
VERTEX
  8
FOREGROUND
  6
CONTINUOUS
 10
2.118333
 20
0.315000
  0
VERTEX
  8
FOREGROUND
  6
CONTINUOUS
 10
2.101667
 20
0.278333
  0
VERTEX
  8
FOREGROUND
  6
CONTINUOUS
 10
2.080000
 20
0.243333
  0
VERTEX
  8
FOREGROUND
  6
CONTINUOUS
 10
2.056667
 20
0.211667
  0
VERTEX
  8
FOREGROUND
  6
CONTINUOUS
 10
2.028333
 20
0.181667
  0
VERTEX
  8
FOREGROUND
  6
CONTINUOUS
 10
1.998333
 20
0.153333
  0
VERTEX
  8
FOREGROUND
  6
CONTINUOUS
 10
1.966667
 20
0.130000
  0
VERTEX
  8
FOREGROUND
  6
CONTINUOUS
 10
1.931667
 20
0.108333
  0
VERTEX
  8
FOREGROUND
  6
CONTINUOUS
 10
1.895000
 20
0.091667
  0
VERTEX
  8
FOREGROUND
  6
CONTINUOUS
 10
1.856667
 20
0.076667
  0
VERTEX
  8
FOREGROUND
  6
CONTINUOUS
 10
1.816667
 20
0.066667
  0
VERTEX
  8
FOREGROUND
  6
CONTINUOUS
 10
1.775000
 20
0.060000
  0
VERTEX
  8
FOREGROUND
  6
CONTINUOUS
 10
1.731667
 20
0.058333
  0
VERTEX
  8
FOREGROUND
  6
CONTINUOUS
 10
0.470000
 20
0.058333
  0
VERTEX
  8
FOREGROUND
  6
CONTINUOUS
 10
0.426667
 20
0.060000
  0
VERTEX
  8
FOREGROUND
  6
CONTINUOUS
 10
0.385000
 20
0.066667
  0
VERTEX
  8
FOREGROUND
  6
CONTINUOUS
 10
0.345000
 20
0.076667
  0
VERTEX
  8
FOREGROUND
  6
CONTINUOUS
 10
0.306667
 20
0.091667
  0
VERTEX
  8
FOREGROUND
  6
CONTINUOUS
 10
0.270000
 20
0.108333
  0
VERTEX
  8
FOREGROUND
  6
CONTINUOUS
 10
0.235000
 20
0.130000
  0
VERTEX
  8
FOREGROUND
  6
CONTINUOUS
 10
0.203333
 20
0.153333
  0
VERTEX
  8
FOREGROUND
  6
CONTINUOUS
 10
0.173333
 20
0.181667
  0
VERTEX
  8
FOREGROUND
  6
CONTINUOUS
 10
0.146667
 20
0.211667
  0
VERTEX
  8
FOREGROUND
  6
CONTINUOUS
 10
0.121667
 20
0.243333
  0
VERTEX
  8
FOREGROUND
  6
CONTINUOUS
 10
0.101667
 20
0.278333
  0
VERTEX
  8
FOREGROUND
  6
CONTINUOUS
 10
0.083333
 20
0.315000
  0
VERTEX
  8
FOREGROUND
  6
CONTINUOUS
 10
0.070000
 20
0.353333
  0
VERTEX
  8
FOREGROUND
  6
CONTINUOUS
 10
0.058333
 20
0.393333
  0
VERTEX
  8
FOREGROUND
  6
CONTINUOUS
 10
0.051667
 20
0.435000
  0
VERTEX
  8
FOREGROUND
  6
CONTINUOUS
 10
0.050000
 20
0.478333
  0
VERTEX
  8
FOREGROUND
  6
CONTINUOUS
 10
0.050000
 20
7.530000
  0
VERTEX
  8
FOREGROUND
  6
CONTINUOUS
 10
0.051667
 20
7.573333
  0
VERTEX
  8
FOREGROUND
  6
CONTINUOUS
 10
0.058333
 20
7.615000
  0
VERTEX
  8
FOREGROUND
  6
CONTINUOUS
 10
0.070000
 20
7.655000
  0
VERTEX
  8
FOREGROUND
  6
CONTINUOUS
 10
0.083333
 20
7.693333
  0
VERTEX
  8
FOREGROUND
  6
CONTINUOUS
 10
0.101667
 20
7.730000
  0
VERTEX
  8
FOREGROUND
  6
CONTINUOUS
 10
0.121667
 20
7.765000
  0
VERTEX
  8
FOREGROUND
  6
CONTINUOUS
 10
0.146667
 20
7.796667
  0
VERTEX
  8
FOREGROUND
  6
CONTINUOUS
 10
0.173333
 20
7.826667
  0
VERTEX
  8
FOREGROUND
  6
CONTINUOUS
 10
0.203333
 20
7.853333
  0
VERTEX
  8
FOREGROUND
  6
CONTINUOUS
 10
0.235000
 20
7.878333
  0
VERTEX
  8
FOREGROUND
  6
CONTINUOUS
 10
0.270000
 20
7.898333
  0
VERTEX
  8
FOREGROUND
  6
CONTINUOUS
 10
0.306667
 20
7.916667
  0
VERTEX
  8
FOREGROUND
  6
CONTINUOUS
 10
0.345000
 20
7.930000
  0
VERTEX
  8
FOREGROUND
  6
CONTINUOUS
 10
0.385000
 20
7.941667
  0
VERTEX
  8
FOREGROUND
  6
CONTINUOUS
 10
0.426667
 20
7.948333
  0
SEQEND
  8
0
  0
ENDSEC
  0
EOF
