  0
SECTION
  2
HEADER
  9
$ACADVER
  1
AC1006
  9
$EXTMIN
 10
0.000000
 20
0.000000
  9
$EXTMAX
 10
2.188333
 20
1.588333
  9
$LTSCALE
 40
0.166667
  9
$PDMODE
 70
    35
  9
$PDSIZE
 40
0.133333
  0
ENDSEC
  0
SECTION
  2
TABLES
  0
TABLE
  2
LTYPE
 70
     9
  0
LTYPE
  2
CONTINUOUS
 70
    64
  3
Solid line
 72
    65
 73
     0
 40
0.000000
  0
LTYPE
  2
DASHED
 70
    64
  3
__ __ __ __ __ __ __ __ __ __ __ __ __ __ __
 72
    65
 73
     2
 40
0.001250
 49
0.000833
 49
-0.000417
  0
LTYPE
  2
HIDDEN
 70
    64
  3
 _ _ _ _ _ _ _ _ _ _ _ _ _ _ _ _ _ _ _ _ _ _
 72
    65
 73
     2
 40
0.000625
 49
0.000417
 49
-0.000208
  0
LTYPE
  2
CENTER
 70
    64
  3
____ _ ____ _ ____ _ ____ _ ____ _ ____ _ ____
 72
    65
 73
     4
 40
0.003333
 49
0.002083
 49
-0.000417
 49
0.000417
 49
-0.000417
  0
LTYPE
  2
PHANTOM
 70
    64
  3
_____ _ _ _____ _ _ _____ _ _ _____ _ _ ____
 72
    65
 73
     6
 40
0.004167
 49
0.002083
 49
-0.000417
 49
0.000417
 49
-0.000417
 49
0.000417
 49
-0.000417
  0
LTYPE
  2
DOT
 70
    64
  3
...............................................
 72
    65
 73
     2
 40
0.000417
 49
0.000000
 49
-0.000417
  0
LTYPE
  2
DASHDOT
 70
    64
  3
__ . __ . __ . __ . __ . __ . __ . __ . __ . __
 72
    65
 73
     4
 40
0.001667
 49
0.000833
 49
-0.000417
 49
0.000000
 49
-0.000417
  0
LTYPE
  2
BORDER
 70
    64
  3
__ __ . __ __ . __ __ . __ __ . __ __ . __ __
 72
    65
 73
     6
 40
0.002917
 49
0.000833
 49
-0.000417
 49
0.000833
 49
-0.000417
 49
0.000000
 49
-0.000417
  0
LTYPE
  2
DIVIDE
 70
    64
  3
__ . . __ . . __ . . __ . . __ . . __ . . __
 72
    65
 73
     6
 40
0.002083
 49
0.000833
 49
-0.000417
 49
0.000000
 49
-0.000417
 49
0.000000
 49
-0.000417
  0
LTYPE
  2
DOTDOT
 70
    64
  3
 . .  . .  . .  . .  . .  . . 
 72
    65
 73
     5
 40
0.000917
 49
-0.000417
 49
0.000000
 49
-0.000417
 49
0.000000
 49
-0.000417
  0
ENDTAB
  0
TABLE
  2
STYLE
 70
     2
  0
STYLE
 70
     0
  2
SN0
 40
0.000000
 41
0.001667
 50
0.000000
 71
     0
 42
0.000000
  3
ROMAND
  0
STYLE
 70
    68
  2
SV0
 40
0.000000
 41
0.001667
 50
0.000000
 71
     0
 42
0.000000
  3
ROMAND
  0
ENDTAB
  0
TABLE
  2
LAYER
 70
     2
  0
LAYER
  2
FOREGROUND
 70
    64
 62
     7
  6
CONTINUOUS
  0
LAYER
  2
BACKGROUND
 70
    65
 62
    -7
  6
CONTINUOUS
  0
ENDTAB
  0
ENDSEC
  0
SECTION
  2
ENTITIES
  0
POLYLINE
  8
FOREGROUND
 62
     7
  6
CONTINUOUS
 66
     1
 40
0.000000
 41
0.000000
 70
     1
  0
VERTEX
  8
FOREGROUND
 62
     7
  6
CONTINUOUS
 10
0.323333
 20
1.433333
  0
VERTEX
  8
FOREGROUND
 62
     7
  6
CONTINUOUS
 10
1.750000
 20
1.433333
  0
VERTEX
  8
FOREGROUND
 62
     7
  6
CONTINUOUS
 10
1.778333
 20
1.431667
  0
VERTEX
  8
FOREGROUND
 62
     7
  6
CONTINUOUS
 10
1.805000
 20
1.428333
  0
VERTEX
  8
FOREGROUND
 62
     7
  6
CONTINUOUS
 10
1.831667
 20
1.421667
  0
VERTEX
  8
FOREGROUND
 62
     7
  6
CONTINUOUS
 10
1.856667
 20
1.411667
  0
VERTEX
  8
FOREGROUND
 62
     7
  6
CONTINUOUS
 10
1.880000
 20
1.400000
  0
VERTEX
  8
FOREGROUND
 62
     7
  6
CONTINUOUS
 10
1.903333
 20
1.386667
  0
VERTEX
  8
FOREGROUND
 62
     7
  6
CONTINUOUS
 10
1.923333
 20
1.371667
  0
VERTEX
  8
FOREGROUND
 62
     7
  6
CONTINUOUS
 10
1.943333
 20
1.353333
  0
VERTEX
  8
FOREGROUND
 62
     7
  6
CONTINUOUS
 10
1.961667
 20
1.333333
  0
VERTEX
  8
FOREGROUND
 62
     7
  6
CONTINUOUS
 10
1.976667
 20
1.313333
  0
VERTEX
  8
FOREGROUND
 62
     7
  6
CONTINUOUS
 10
1.990000
 20
1.290000
  0
VERTEX
  8
FOREGROUND
 62
     7
  6
CONTINUOUS
 10
2.001667
 20
1.266667
  0
VERTEX
  8
FOREGROUND
 62
     7
  6
CONTINUOUS
 10
2.011667
 20
1.241667
  0
VERTEX
  8
FOREGROUND
 62
     7
  6
CONTINUOUS
 10
2.018333
 20
1.215000
  0
VERTEX
  8
FOREGROUND
 62
     7
  6
CONTINUOUS
 10
2.021667
 20
1.188333
  0
VERTEX
  8
FOREGROUND
 62
     7
  6
CONTINUOUS
 10
2.023333
 20
1.160000
  0
VERTEX
  8
FOREGROUND
 62
     7
  6
CONTINUOUS
 10
2.023333
 20
0.331667
  0
VERTEX
  8
FOREGROUND
 62
     7
  6
CONTINUOUS
 10
2.021667
 20
0.303333
  0
VERTEX
  8
FOREGROUND
 62
     7
  6
CONTINUOUS
 10
2.018333
 20
0.276667
  0
VERTEX
  8
FOREGROUND
 62
     7
  6
CONTINUOUS
 10
2.011667
 20
0.250000
  0
VERTEX
  8
FOREGROUND
 62
     7
  6
CONTINUOUS
 10
2.001667
 20
0.225000
  0
VERTEX
  8
FOREGROUND
 62
     7
  6
CONTINUOUS
 10
1.990000
 20
0.201667
  0
VERTEX
  8
FOREGROUND
 62
     7
  6
CONTINUOUS
 10
1.976667
 20
0.178333
  0
VERTEX
  8
FOREGROUND
 62
     7
  6
CONTINUOUS
 10
1.961667
 20
0.158333
  0
VERTEX
  8
FOREGROUND
 62
     7
  6
CONTINUOUS
 10
1.943333
 20
0.138333
  0
VERTEX
  8
FOREGROUND
 62
     7
  6
CONTINUOUS
 10
1.923333
 20
0.120000
  0
VERTEX
  8
FOREGROUND
 62
     7
  6
CONTINUOUS
 10
1.903333
 20
0.105000
  0
VERTEX
  8
FOREGROUND
 62
     7
  6
CONTINUOUS
 10
1.880000
 20
0.091667
  0
VERTEX
  8
FOREGROUND
 62
     7
  6
CONTINUOUS
 10
1.856667
 20
0.080000
  0
VERTEX
  8
FOREGROUND
 62
     7
  6
CONTINUOUS
 10
1.831667
 20
0.070000
  0
VERTEX
  8
FOREGROUND
 62
     7
  6
CONTINUOUS
 10
1.805000
 20
0.063333
  0
VERTEX
  8
FOREGROUND
 62
     7
  6
CONTINUOUS
 10
1.778333
 20
0.060000
  0
VERTEX
  8
FOREGROUND
 62
     7
  6
CONTINUOUS
 10
1.750000
 20
0.058333
  0
VERTEX
  8
FOREGROUND
 62
     7
  6
CONTINUOUS
 10
0.323333
 20
0.058333
  0
VERTEX
  8
FOREGROUND
 62
     7
  6
CONTINUOUS
 10
0.295000
 20
0.060000
  0
VERTEX
  8
FOREGROUND
 62
     7
  6
CONTINUOUS
 10
0.268333
 20
0.063333
  0
VERTEX
  8
FOREGROUND
 62
     7
  6
CONTINUOUS
 10
0.241667
 20
0.070000
  0
VERTEX
  8
FOREGROUND
 62
     7
  6
CONTINUOUS
 10
0.216667
 20
0.080000
  0
VERTEX
  8
FOREGROUND
 62
     7
  6
CONTINUOUS
 10
0.193333
 20
0.091667
  0
VERTEX
  8
FOREGROUND
 62
     7
  6
CONTINUOUS
 10
0.170000
 20
0.105000
  0
VERTEX
  8
FOREGROUND
 62
     7
  6
CONTINUOUS
 10
0.150000
 20
0.120000
  0
VERTEX
  8
FOREGROUND
 62
     7
  6
CONTINUOUS
 10
0.130000
 20
0.138333
  0
VERTEX
  8
FOREGROUND
 62
     7
  6
CONTINUOUS
 10
0.111667
 20
0.158333
  0
VERTEX
  8
FOREGROUND
 62
     7
  6
CONTINUOUS
 10
0.096667
 20
0.178333
  0
VERTEX
  8
FOREGROUND
 62
     7
  6
CONTINUOUS
 10
0.083333
 20
0.201667
  0
VERTEX
  8
FOREGROUND
 62
     7
  6
CONTINUOUS
 10
0.071667
 20
0.225000
  0
VERTEX
  8
FOREGROUND
 62
     7
  6
CONTINUOUS
 10
0.061667
 20
0.250000
  0
VERTEX
  8
FOREGROUND
 62
     7
  6
CONTINUOUS
 10
0.055000
 20
0.276667
  0
VERTEX
  8
FOREGROUND
 62
     7
  6
CONTINUOUS
 10
0.051667
 20
0.303333
  0
VERTEX
  8
FOREGROUND
 62
     7
  6
CONTINUOUS
 10
0.050000
 20
0.331667
  0
VERTEX
  8
FOREGROUND
 62
     7
  6
CONTINUOUS
 10
0.050000
 20
1.160000
  0
VERTEX
  8
FOREGROUND
 62
     7
  6
CONTINUOUS
 10
0.051667
 20
1.188333
  0
VERTEX
  8
FOREGROUND
 62
     7
  6
CONTINUOUS
 10
0.055000
 20
1.215000
  0
VERTEX
  8
FOREGROUND
 62
     7
  6
CONTINUOUS
 10
0.061667
 20
1.241667
  0
VERTEX
  8
FOREGROUND
 62
     7
  6
CONTINUOUS
 10
0.071667
 20
1.266667
  0
VERTEX
  8
FOREGROUND
 62
     7
  6
CONTINUOUS
 10
0.083333
 20
1.290000
  0
VERTEX
  8
FOREGROUND
 62
     7
  6
CONTINUOUS
 10
0.096667
 20
1.313333
  0
VERTEX
  8
FOREGROUND
 62
     7
  6
CONTINUOUS
 10
0.111667
 20
1.333333
  0
VERTEX
  8
FOREGROUND
 62
     7
  6
CONTINUOUS
 10
0.130000
 20
1.353333
  0
VERTEX
  8
FOREGROUND
 62
     7
  6
CONTINUOUS
 10
0.150000
 20
1.371667
  0
VERTEX
  8
FOREGROUND
 62
     7
  6
CONTINUOUS
 10
0.170000
 20
1.386667
  0
VERTEX
  8
FOREGROUND
 62
     7
  6
CONTINUOUS
 10
0.193333
 20
1.400000
  0
VERTEX
  8
FOREGROUND
 62
     7
  6
CONTINUOUS
 10
0.216667
 20
1.411667
  0
VERTEX
  8
FOREGROUND
 62
     7
  6
CONTINUOUS
 10
0.241667
 20
1.421667
  0
VERTEX
  8
FOREGROUND
 62
     7
  6
CONTINUOUS
 10
0.268333
 20
1.428333
  0
VERTEX
  8
FOREGROUND
 62
     7
  6
CONTINUOUS
 10
0.295000
 20
1.431667
  0
SEQEND
  8
0
  0
POLYLINE
  8
FOREGROUND
  6
CONTINUOUS
 66
     1
 40
0.010000
 41
0.010000
 70
     1
  0
VERTEX
  8
FOREGROUND
  6
CONTINUOUS
 10
0.323333
 20
1.433333
  0
VERTEX
  8
FOREGROUND
  6
CONTINUOUS
 10
1.750000
 20
1.433333
  0
VERTEX
  8
FOREGROUND
  6
CONTINUOUS
 10
1.778333
 20
1.431667
  0
VERTEX
  8
FOREGROUND
  6
CONTINUOUS
 10
1.805000
 20
1.428333
  0
VERTEX
  8
FOREGROUND
  6
CONTINUOUS
 10
1.831667
 20
1.421667
  0
VERTEX
  8
FOREGROUND
  6
CONTINUOUS
 10
1.856667
 20
1.411667
  0
VERTEX
  8
FOREGROUND
  6
CONTINUOUS
 10
1.880000
 20
1.400000
  0
VERTEX
  8
FOREGROUND
  6
CONTINUOUS
 10
1.903333
 20
1.386667
  0
VERTEX
  8
FOREGROUND
  6
CONTINUOUS
 10
1.923333
 20
1.371667
  0
VERTEX
  8
FOREGROUND
  6
CONTINUOUS
 10
1.943333
 20
1.353333
  0
VERTEX
  8
FOREGROUND
  6
CONTINUOUS
 10
1.961667
 20
1.333333
  0
VERTEX
  8
FOREGROUND
  6
CONTINUOUS
 10
1.976667
 20
1.313333
  0
VERTEX
  8
FOREGROUND
  6
CONTINUOUS
 10
1.990000
 20
1.290000
  0
VERTEX
  8
FOREGROUND
  6
CONTINUOUS
 10
2.001667
 20
1.266667
  0
VERTEX
  8
FOREGROUND
  6
CONTINUOUS
 10
2.011667
 20
1.241667
  0
VERTEX
  8
FOREGROUND
  6
CONTINUOUS
 10
2.018333
 20
1.215000
  0
VERTEX
  8
FOREGROUND
  6
CONTINUOUS
 10
2.021667
 20
1.188333
  0
VERTEX
  8
FOREGROUND
  6
CONTINUOUS
 10
2.023333
 20
1.160000
  0
VERTEX
  8
FOREGROUND
  6
CONTINUOUS
 10
2.023333
 20
0.331667
  0
VERTEX
  8
FOREGROUND
  6
CONTINUOUS
 10
2.021667
 20
0.303333
  0
VERTEX
  8
FOREGROUND
  6
CONTINUOUS
 10
2.018333
 20
0.276667
  0
VERTEX
  8
FOREGROUND
  6
CONTINUOUS
 10
2.011667
 20
0.250000
  0
VERTEX
  8
FOREGROUND
  6
CONTINUOUS
 10
2.001667
 20
0.225000
  0
VERTEX
  8
FOREGROUND
  6
CONTINUOUS
 10
1.990000
 20
0.201667
  0
VERTEX
  8
FOREGROUND
  6
CONTINUOUS
 10
1.976667
 20
0.178333
  0
VERTEX
  8
FOREGROUND
  6
CONTINUOUS
 10
1.961667
 20
0.158333
  0
VERTEX
  8
FOREGROUND
  6
CONTINUOUS
 10
1.943333
 20
0.138333
  0
VERTEX
  8
FOREGROUND
  6
CONTINUOUS
 10
1.923333
 20
0.120000
  0
VERTEX
  8
FOREGROUND
  6
CONTINUOUS
 10
1.903333
 20
0.105000
  0
VERTEX
  8
FOREGROUND
  6
CONTINUOUS
 10
1.880000
 20
0.091667
  0
VERTEX
  8
FOREGROUND
  6
CONTINUOUS
 10
1.856667
 20
0.080000
  0
VERTEX
  8
FOREGROUND
  6
CONTINUOUS
 10
1.831667
 20
0.070000
  0
VERTEX
  8
FOREGROUND
  6
CONTINUOUS
 10
1.805000
 20
0.063333
  0
VERTEX
  8
FOREGROUND
  6
CONTINUOUS
 10
1.778333
 20
0.060000
  0
VERTEX
  8
FOREGROUND
  6
CONTINUOUS
 10
1.750000
 20
0.058333
  0
VERTEX
  8
FOREGROUND
  6
CONTINUOUS
 10
0.323333
 20
0.058333
  0
VERTEX
  8
FOREGROUND
  6
CONTINUOUS
 10
0.295000
 20
0.060000
  0
VERTEX
  8
FOREGROUND
  6
CONTINUOUS
 10
0.268333
 20
0.063333
  0
VERTEX
  8
FOREGROUND
  6
CONTINUOUS
 10
0.241667
 20
0.070000
  0
VERTEX
  8
FOREGROUND
  6
CONTINUOUS
 10
0.216667
 20
0.080000
  0
VERTEX
  8
FOREGROUND
  6
CONTINUOUS
 10
0.193333
 20
0.091667
  0
VERTEX
  8
FOREGROUND
  6
CONTINUOUS
 10
0.170000
 20
0.105000
  0
VERTEX
  8
FOREGROUND
  6
CONTINUOUS
 10
0.150000
 20
0.120000
  0
VERTEX
  8
FOREGROUND
  6
CONTINUOUS
 10
0.130000
 20
0.138333
  0
VERTEX
  8
FOREGROUND
  6
CONTINUOUS
 10
0.111667
 20
0.158333
  0
VERTEX
  8
FOREGROUND
  6
CONTINUOUS
 10
0.096667
 20
0.178333
  0
VERTEX
  8
FOREGROUND
  6
CONTINUOUS
 10
0.083333
 20
0.201667
  0
VERTEX
  8
FOREGROUND
  6
CONTINUOUS
 10
0.071667
 20
0.225000
  0
VERTEX
  8
FOREGROUND
  6
CONTINUOUS
 10
0.061667
 20
0.250000
  0
VERTEX
  8
FOREGROUND
  6
CONTINUOUS
 10
0.055000
 20
0.276667
  0
VERTEX
  8
FOREGROUND
  6
CONTINUOUS
 10
0.051667
 20
0.303333
  0
VERTEX
  8
FOREGROUND
  6
CONTINUOUS
 10
0.050000
 20
0.331667
  0
VERTEX
  8
FOREGROUND
  6
CONTINUOUS
 10
0.050000
 20
1.160000
  0
VERTEX
  8
FOREGROUND
  6
CONTINUOUS
 10
0.051667
 20
1.188333
  0
VERTEX
  8
FOREGROUND
  6
CONTINUOUS
 10
0.055000
 20
1.215000
  0
VERTEX
  8
FOREGROUND
  6
CONTINUOUS
 10
0.061667
 20
1.241667
  0
VERTEX
  8
FOREGROUND
  6
CONTINUOUS
 10
0.071667
 20
1.266667
  0
VERTEX
  8
FOREGROUND
  6
CONTINUOUS
 10
0.083333
 20
1.290000
  0
VERTEX
  8
FOREGROUND
  6
CONTINUOUS
 10
0.096667
 20
1.313333
  0
VERTEX
  8
FOREGROUND
  6
CONTINUOUS
 10
0.111667
 20
1.333333
  0
VERTEX
  8
FOREGROUND
  6
CONTINUOUS
 10
0.130000
 20
1.353333
  0
VERTEX
  8
FOREGROUND
  6
CONTINUOUS
 10
0.150000
 20
1.371667
  0
VERTEX
  8
FOREGROUND
  6
CONTINUOUS
 10
0.170000
 20
1.386667
  0
VERTEX
  8
FOREGROUND
  6
CONTINUOUS
 10
0.193333
 20
1.400000
  0
VERTEX
  8
FOREGROUND
  6
CONTINUOUS
 10
0.216667
 20
1.411667
  0
VERTEX
  8
FOREGROUND
  6
CONTINUOUS
 10
0.241667
 20
1.421667
  0
VERTEX
  8
FOREGROUND
  6
CONTINUOUS
 10
0.268333
 20
1.428333
  0
VERTEX
  8
FOREGROUND
  6
CONTINUOUS
 10
0.295000
 20
1.431667
  0
SEQEND
  8
0
  0
ENDSEC
  0
EOF
