  0
SECTION
  2
HEADER
  9
$ACADVER
  1
AC1006
  9
$EXTMIN
 10
0.000000
 20
0.000000
  9
$EXTMAX
 10
2.188333
 20
1.760000
  9
$LTSCALE
 40
0.166667
  9
$PDMODE
 70
    35
  9
$PDSIZE
 40
0.133333
  0
ENDSEC
  0
SECTION
  2
TABLES
  0
TABLE
  2
LTYPE
 70
     9
  0
LTYPE
  2
CONTINUOUS
 70
    64
  3
Solid line
 72
    65
 73
     0
 40
0.000000
  0
LTYPE
  2
DASHED
 70
    64
  3
__ __ __ __ __ __ __ __ __ __ __ __ __ __ __
 72
    65
 73
     2
 40
0.001250
 49
0.000833
 49
-0.000417
  0
LTYPE
  2
HIDDEN
 70
    64
  3
 _ _ _ _ _ _ _ _ _ _ _ _ _ _ _ _ _ _ _ _ _ _
 72
    65
 73
     2
 40
0.000625
 49
0.000417
 49
-0.000208
  0
LTYPE
  2
CENTER
 70
    64
  3
____ _ ____ _ ____ _ ____ _ ____ _ ____ _ ____
 72
    65
 73
     4
 40
0.003333
 49
0.002083
 49
-0.000417
 49
0.000417
 49
-0.000417
  0
LTYPE
  2
PHANTOM
 70
    64
  3
_____ _ _ _____ _ _ _____ _ _ _____ _ _ ____
 72
    65
 73
     6
 40
0.004167
 49
0.002083
 49
-0.000417
 49
0.000417
 49
-0.000417
 49
0.000417
 49
-0.000417
  0
LTYPE
  2
DOT
 70
    64
  3
...............................................
 72
    65
 73
     2
 40
0.000417
 49
0.000000
 49
-0.000417
  0
LTYPE
  2
DASHDOT
 70
    64
  3
__ . __ . __ . __ . __ . __ . __ . __ . __ . __
 72
    65
 73
     4
 40
0.001667
 49
0.000833
 49
-0.000417
 49
0.000000
 49
-0.000417
  0
LTYPE
  2
BORDER
 70
    64
  3
__ __ . __ __ . __ __ . __ __ . __ __ . __ __
 72
    65
 73
     6
 40
0.002917
 49
0.000833
 49
-0.000417
 49
0.000833
 49
-0.000417
 49
0.000000
 49
-0.000417
  0
LTYPE
  2
DIVIDE
 70
    64
  3
__ . . __ . . __ . . __ . . __ . . __ . . __
 72
    65
 73
     6
 40
0.002083
 49
0.000833
 49
-0.000417
 49
0.000000
 49
-0.000417
 49
0.000000
 49
-0.000417
  0
LTYPE
  2
DOTDOT
 70
    64
  3
 . .  . .  . .  . .  . .  . . 
 72
    65
 73
     5
 40
0.000917
 49
-0.000417
 49
0.000000
 49
-0.000417
 49
0.000000
 49
-0.000417
  0
ENDTAB
  0
TABLE
  2
STYLE
 70
     2
  0
STYLE
 70
     0
  2
SN0
 40
0.000000
 41
0.001667
 50
0.000000
 71
     0
 42
0.000000
  3
ROMAND
  0
STYLE
 70
    68
  2
SV0
 40
0.000000
 41
0.001667
 50
0.000000
 71
     0
 42
0.000000
  3
ROMAND
  0
ENDTAB
  0
TABLE
  2
LAYER
 70
     2
  0
LAYER
  2
FOREGROUND
 70
    64
 62
     7
  6
CONTINUOUS
  0
LAYER
  2
BACKGROUND
 70
    65
 62
    -7
  6
CONTINUOUS
  0
ENDTAB
  0
ENDSEC
  0
SECTION
  2
ENTITIES
  0
POLYLINE
  8
FOREGROUND
 62
     7
  6
CONTINUOUS
 66
     1
 40
0.000000
 41
0.000000
 70
     1
  0
VERTEX
  8
FOREGROUND
 62
     7
  6
CONTINUOUS
 10
0.358333
 20
1.605000
  0
VERTEX
  8
FOREGROUND
 62
     7
  6
CONTINUOUS
 10
1.715000
 20
1.605000
  0
VERTEX
  8
FOREGROUND
 62
     7
  6
CONTINUOUS
 10
1.746667
 20
1.603333
  0
VERTEX
  8
FOREGROUND
 62
     7
  6
CONTINUOUS
 10
1.776667
 20
1.598333
  0
VERTEX
  8
FOREGROUND
 62
     7
  6
CONTINUOUS
 10
1.806667
 20
1.591667
  0
VERTEX
  8
FOREGROUND
 62
     7
  6
CONTINUOUS
 10
1.835000
 20
1.580000
  0
VERTEX
  8
FOREGROUND
 62
     7
  6
CONTINUOUS
 10
1.861667
 20
1.568333
  0
VERTEX
  8
FOREGROUND
 62
     7
  6
CONTINUOUS
 10
1.886667
 20
1.551667
  0
VERTEX
  8
FOREGROUND
 62
     7
  6
CONTINUOUS
 10
1.911667
 20
1.535000
  0
VERTEX
  8
FOREGROUND
 62
     7
  6
CONTINUOUS
 10
1.933333
 20
1.515000
  0
VERTEX
  8
FOREGROUND
 62
     7
  6
CONTINUOUS
 10
1.953333
 20
1.493333
  0
VERTEX
  8
FOREGROUND
 62
     7
  6
CONTINUOUS
 10
1.970000
 20
1.468333
  0
VERTEX
  8
FOREGROUND
 62
     7
  6
CONTINUOUS
 10
1.986667
 20
1.443333
  0
VERTEX
  8
FOREGROUND
 62
     7
  6
CONTINUOUS
 10
1.998333
 20
1.416667
  0
VERTEX
  8
FOREGROUND
 62
     7
  6
CONTINUOUS
 10
2.010000
 20
1.388333
  0
VERTEX
  8
FOREGROUND
 62
     7
  6
CONTINUOUS
 10
2.016667
 20
1.358333
  0
VERTEX
  8
FOREGROUND
 62
     7
  6
CONTINUOUS
 10
2.021667
 20
1.328333
  0
VERTEX
  8
FOREGROUND
 62
     7
  6
CONTINUOUS
 10
2.023333
 20
1.296667
  0
VERTEX
  8
FOREGROUND
 62
     7
  6
CONTINUOUS
 10
2.023333
 20
0.366667
  0
VERTEX
  8
FOREGROUND
 62
     7
  6
CONTINUOUS
 10
2.021667
 20
0.335000
  0
VERTEX
  8
FOREGROUND
 62
     7
  6
CONTINUOUS
 10
2.016667
 20
0.305000
  0
VERTEX
  8
FOREGROUND
 62
     7
  6
CONTINUOUS
 10
2.010000
 20
0.275000
  0
VERTEX
  8
FOREGROUND
 62
     7
  6
CONTINUOUS
 10
1.998333
 20
0.246667
  0
VERTEX
  8
FOREGROUND
 62
     7
  6
CONTINUOUS
 10
1.986667
 20
0.220000
  0
VERTEX
  8
FOREGROUND
 62
     7
  6
CONTINUOUS
 10
1.970000
 20
0.195000
  0
VERTEX
  8
FOREGROUND
 62
     7
  6
CONTINUOUS
 10
1.953333
 20
0.170000
  0
VERTEX
  8
FOREGROUND
 62
     7
  6
CONTINUOUS
 10
1.933333
 20
0.148333
  0
VERTEX
  8
FOREGROUND
 62
     7
  6
CONTINUOUS
 10
1.911667
 20
0.128333
  0
VERTEX
  8
FOREGROUND
 62
     7
  6
CONTINUOUS
 10
1.886667
 20
0.111667
  0
VERTEX
  8
FOREGROUND
 62
     7
  6
CONTINUOUS
 10
1.861667
 20
0.095000
  0
VERTEX
  8
FOREGROUND
 62
     7
  6
CONTINUOUS
 10
1.835000
 20
0.083333
  0
VERTEX
  8
FOREGROUND
 62
     7
  6
CONTINUOUS
 10
1.806667
 20
0.071667
  0
VERTEX
  8
FOREGROUND
 62
     7
  6
CONTINUOUS
 10
1.776667
 20
0.065000
  0
VERTEX
  8
FOREGROUND
 62
     7
  6
CONTINUOUS
 10
1.746667
 20
0.060000
  0
VERTEX
  8
FOREGROUND
 62
     7
  6
CONTINUOUS
 10
1.715000
 20
0.058333
  0
VERTEX
  8
FOREGROUND
 62
     7
  6
CONTINUOUS
 10
0.358333
 20
0.058333
  0
VERTEX
  8
FOREGROUND
 62
     7
  6
CONTINUOUS
 10
0.326667
 20
0.060000
  0
VERTEX
  8
FOREGROUND
 62
     7
  6
CONTINUOUS
 10
0.296667
 20
0.065000
  0
VERTEX
  8
FOREGROUND
 62
     7
  6
CONTINUOUS
 10
0.266667
 20
0.071667
  0
VERTEX
  8
FOREGROUND
 62
     7
  6
CONTINUOUS
 10
0.238333
 20
0.083333
  0
VERTEX
  8
FOREGROUND
 62
     7
  6
CONTINUOUS
 10
0.211667
 20
0.095000
  0
VERTEX
  8
FOREGROUND
 62
     7
  6
CONTINUOUS
 10
0.186667
 20
0.111667
  0
VERTEX
  8
FOREGROUND
 62
     7
  6
CONTINUOUS
 10
0.161667
 20
0.128333
  0
VERTEX
  8
FOREGROUND
 62
     7
  6
CONTINUOUS
 10
0.140000
 20
0.148333
  0
VERTEX
  8
FOREGROUND
 62
     7
  6
CONTINUOUS
 10
0.120000
 20
0.170000
  0
VERTEX
  8
FOREGROUND
 62
     7
  6
CONTINUOUS
 10
0.103333
 20
0.195000
  0
VERTEX
  8
FOREGROUND
 62
     7
  6
CONTINUOUS
 10
0.086667
 20
0.220000
  0
VERTEX
  8
FOREGROUND
 62
     7
  6
CONTINUOUS
 10
0.075000
 20
0.246667
  0
VERTEX
  8
FOREGROUND
 62
     7
  6
CONTINUOUS
 10
0.063333
 20
0.275000
  0
VERTEX
  8
FOREGROUND
 62
     7
  6
CONTINUOUS
 10
0.056667
 20
0.305000
  0
VERTEX
  8
FOREGROUND
 62
     7
  6
CONTINUOUS
 10
0.051667
 20
0.335000
  0
VERTEX
  8
FOREGROUND
 62
     7
  6
CONTINUOUS
 10
0.050000
 20
0.366667
  0
VERTEX
  8
FOREGROUND
 62
     7
  6
CONTINUOUS
 10
0.050000
 20
1.296667
  0
VERTEX
  8
FOREGROUND
 62
     7
  6
CONTINUOUS
 10
0.051667
 20
1.328333
  0
VERTEX
  8
FOREGROUND
 62
     7
  6
CONTINUOUS
 10
0.056667
 20
1.358333
  0
VERTEX
  8
FOREGROUND
 62
     7
  6
CONTINUOUS
 10
0.063333
 20
1.388333
  0
VERTEX
  8
FOREGROUND
 62
     7
  6
CONTINUOUS
 10
0.075000
 20
1.416667
  0
VERTEX
  8
FOREGROUND
 62
     7
  6
CONTINUOUS
 10
0.086667
 20
1.443333
  0
VERTEX
  8
FOREGROUND
 62
     7
  6
CONTINUOUS
 10
0.103333
 20
1.468333
  0
VERTEX
  8
FOREGROUND
 62
     7
  6
CONTINUOUS
 10
0.120000
 20
1.493333
  0
VERTEX
  8
FOREGROUND
 62
     7
  6
CONTINUOUS
 10
0.140000
 20
1.515000
  0
VERTEX
  8
FOREGROUND
 62
     7
  6
CONTINUOUS
 10
0.161667
 20
1.535000
  0
VERTEX
  8
FOREGROUND
 62
     7
  6
CONTINUOUS
 10
0.186667
 20
1.551667
  0
VERTEX
  8
FOREGROUND
 62
     7
  6
CONTINUOUS
 10
0.211667
 20
1.568333
  0
VERTEX
  8
FOREGROUND
 62
     7
  6
CONTINUOUS
 10
0.238333
 20
1.580000
  0
VERTEX
  8
FOREGROUND
 62
     7
  6
CONTINUOUS
 10
0.266667
 20
1.591667
  0
VERTEX
  8
FOREGROUND
 62
     7
  6
CONTINUOUS
 10
0.296667
 20
1.598333
  0
VERTEX
  8
FOREGROUND
 62
     7
  6
CONTINUOUS
 10
0.326667
 20
1.603333
  0
SEQEND
  8
0
  0
POLYLINE
  8
FOREGROUND
  6
CONTINUOUS
 66
     1
 40
0.010000
 41
0.010000
 70
     1
  0
VERTEX
  8
FOREGROUND
  6
CONTINUOUS
 10
0.358333
 20
1.605000
  0
VERTEX
  8
FOREGROUND
  6
CONTINUOUS
 10
1.715000
 20
1.605000
  0
VERTEX
  8
FOREGROUND
  6
CONTINUOUS
 10
1.746667
 20
1.603333
  0
VERTEX
  8
FOREGROUND
  6
CONTINUOUS
 10
1.776667
 20
1.598333
  0
VERTEX
  8
FOREGROUND
  6
CONTINUOUS
 10
1.806667
 20
1.591667
  0
VERTEX
  8
FOREGROUND
  6
CONTINUOUS
 10
1.835000
 20
1.580000
  0
VERTEX
  8
FOREGROUND
  6
CONTINUOUS
 10
1.861667
 20
1.568333
  0
VERTEX
  8
FOREGROUND
  6
CONTINUOUS
 10
1.886667
 20
1.551667
  0
VERTEX
  8
FOREGROUND
  6
CONTINUOUS
 10
1.911667
 20
1.535000
  0
VERTEX
  8
FOREGROUND
  6
CONTINUOUS
 10
1.933333
 20
1.515000
  0
VERTEX
  8
FOREGROUND
  6
CONTINUOUS
 10
1.953333
 20
1.493333
  0
VERTEX
  8
FOREGROUND
  6
CONTINUOUS
 10
1.970000
 20
1.468333
  0
VERTEX
  8
FOREGROUND
  6
CONTINUOUS
 10
1.986667
 20
1.443333
  0
VERTEX
  8
FOREGROUND
  6
CONTINUOUS
 10
1.998333
 20
1.416667
  0
VERTEX
  8
FOREGROUND
  6
CONTINUOUS
 10
2.010000
 20
1.388333
  0
VERTEX
  8
FOREGROUND
  6
CONTINUOUS
 10
2.016667
 20
1.358333
  0
VERTEX
  8
FOREGROUND
  6
CONTINUOUS
 10
2.021667
 20
1.328333
  0
VERTEX
  8
FOREGROUND
  6
CONTINUOUS
 10
2.023333
 20
1.296667
  0
VERTEX
  8
FOREGROUND
  6
CONTINUOUS
 10
2.023333
 20
0.366667
  0
VERTEX
  8
FOREGROUND
  6
CONTINUOUS
 10
2.021667
 20
0.335000
  0
VERTEX
  8
FOREGROUND
  6
CONTINUOUS
 10
2.016667
 20
0.305000
  0
VERTEX
  8
FOREGROUND
  6
CONTINUOUS
 10
2.010000
 20
0.275000
  0
VERTEX
  8
FOREGROUND
  6
CONTINUOUS
 10
1.998333
 20
0.246667
  0
VERTEX
  8
FOREGROUND
  6
CONTINUOUS
 10
1.986667
 20
0.220000
  0
VERTEX
  8
FOREGROUND
  6
CONTINUOUS
 10
1.970000
 20
0.195000
  0
VERTEX
  8
FOREGROUND
  6
CONTINUOUS
 10
1.953333
 20
0.170000
  0
VERTEX
  8
FOREGROUND
  6
CONTINUOUS
 10
1.933333
 20
0.148333
  0
VERTEX
  8
FOREGROUND
  6
CONTINUOUS
 10
1.911667
 20
0.128333
  0
VERTEX
  8
FOREGROUND
  6
CONTINUOUS
 10
1.886667
 20
0.111667
  0
VERTEX
  8
FOREGROUND
  6
CONTINUOUS
 10
1.861667
 20
0.095000
  0
VERTEX
  8
FOREGROUND
  6
CONTINUOUS
 10
1.835000
 20
0.083333
  0
VERTEX
  8
FOREGROUND
  6
CONTINUOUS
 10
1.806667
 20
0.071667
  0
VERTEX
  8
FOREGROUND
  6
CONTINUOUS
 10
1.776667
 20
0.065000
  0
VERTEX
  8
FOREGROUND
  6
CONTINUOUS
 10
1.746667
 20
0.060000
  0
VERTEX
  8
FOREGROUND
  6
CONTINUOUS
 10
1.715000
 20
0.058333
  0
VERTEX
  8
FOREGROUND
  6
CONTINUOUS
 10
0.358333
 20
0.058333
  0
VERTEX
  8
FOREGROUND
  6
CONTINUOUS
 10
0.326667
 20
0.060000
  0
VERTEX
  8
FOREGROUND
  6
CONTINUOUS
 10
0.296667
 20
0.065000
  0
VERTEX
  8
FOREGROUND
  6
CONTINUOUS
 10
0.266667
 20
0.071667
  0
VERTEX
  8
FOREGROUND
  6
CONTINUOUS
 10
0.238333
 20
0.083333
  0
VERTEX
  8
FOREGROUND
  6
CONTINUOUS
 10
0.211667
 20
0.095000
  0
VERTEX
  8
FOREGROUND
  6
CONTINUOUS
 10
0.186667
 20
0.111667
  0
VERTEX
  8
FOREGROUND
  6
CONTINUOUS
 10
0.161667
 20
0.128333
  0
VERTEX
  8
FOREGROUND
  6
CONTINUOUS
 10
0.140000
 20
0.148333
  0
VERTEX
  8
FOREGROUND
  6
CONTINUOUS
 10
0.120000
 20
0.170000
  0
VERTEX
  8
FOREGROUND
  6
CONTINUOUS
 10
0.103333
 20
0.195000
  0
VERTEX
  8
FOREGROUND
  6
CONTINUOUS
 10
0.086667
 20
0.220000
  0
VERTEX
  8
FOREGROUND
  6
CONTINUOUS
 10
0.075000
 20
0.246667
  0
VERTEX
  8
FOREGROUND
  6
CONTINUOUS
 10
0.063333
 20
0.275000
  0
VERTEX
  8
FOREGROUND
  6
CONTINUOUS
 10
0.056667
 20
0.305000
  0
VERTEX
  8
FOREGROUND
  6
CONTINUOUS
 10
0.051667
 20
0.335000
  0
VERTEX
  8
FOREGROUND
  6
CONTINUOUS
 10
0.050000
 20
0.366667
  0
VERTEX
  8
FOREGROUND
  6
CONTINUOUS
 10
0.050000
 20
1.296667
  0
VERTEX
  8
FOREGROUND
  6
CONTINUOUS
 10
0.051667
 20
1.328333
  0
VERTEX
  8
FOREGROUND
  6
CONTINUOUS
 10
0.056667
 20
1.358333
  0
VERTEX
  8
FOREGROUND
  6
CONTINUOUS
 10
0.063333
 20
1.388333
  0
VERTEX
  8
FOREGROUND
  6
CONTINUOUS
 10
0.075000
 20
1.416667
  0
VERTEX
  8
FOREGROUND
  6
CONTINUOUS
 10
0.086667
 20
1.443333
  0
VERTEX
  8
FOREGROUND
  6
CONTINUOUS
 10
0.103333
 20
1.468333
  0
VERTEX
  8
FOREGROUND
  6
CONTINUOUS
 10
0.120000
 20
1.493333
  0
VERTEX
  8
FOREGROUND
  6
CONTINUOUS
 10
0.140000
 20
1.515000
  0
VERTEX
  8
FOREGROUND
  6
CONTINUOUS
 10
0.161667
 20
1.535000
  0
VERTEX
  8
FOREGROUND
  6
CONTINUOUS
 10
0.186667
 20
1.551667
  0
VERTEX
  8
FOREGROUND
  6
CONTINUOUS
 10
0.211667
 20
1.568333
  0
VERTEX
  8
FOREGROUND
  6
CONTINUOUS
 10
0.238333
 20
1.580000
  0
VERTEX
  8
FOREGROUND
  6
CONTINUOUS
 10
0.266667
 20
1.591667
  0
VERTEX
  8
FOREGROUND
  6
CONTINUOUS
 10
0.296667
 20
1.598333
  0
VERTEX
  8
FOREGROUND
  6
CONTINUOUS
 10
0.326667
 20
1.603333
  0
SEQEND
  8
0
  0
ENDSEC
  0
EOF
