  0
SECTION
  2
HEADER
  9
$ACADVER
  1
AC1006
  9
$EXTMIN
 10
0.000000
 20
0.000000
  9
$EXTMAX
 10
2.075000
 20
2.080000
  9
$LTSCALE
 40
0.166667
  9
$PDMODE
 70
    35
  9
$PDSIZE
 40
0.133333
  0
ENDSEC
  0
SECTION
  2
TABLES
  0
TABLE
  2
LTYPE
 70
     9
  0
LTYPE
  2
CONTINUOUS
 70
    64
  3
Solid line
 72
    65
 73
     0
 40
0.000000
  0
LTYPE
  2
DASHED
 70
    64
  3
__ __ __ __ __ __ __ __ __ __ __ __ __ __ __
 72
    65
 73
     2
 40
0.001250
 49
0.000833
 49
-0.000417
  0
LTYPE
  2
HIDDEN
 70
    64
  3
 _ _ _ _ _ _ _ _ _ _ _ _ _ _ _ _ _ _ _ _ _ _
 72
    65
 73
     2
 40
0.000625
 49
0.000417
 49
-0.000208
  0
LTYPE
  2
CENTER
 70
    64
  3
____ _ ____ _ ____ _ ____ _ ____ _ ____ _ ____
 72
    65
 73
     4
 40
0.003333
 49
0.002083
 49
-0.000417
 49
0.000417
 49
-0.000417
  0
LTYPE
  2
PHANTOM
 70
    64
  3
_____ _ _ _____ _ _ _____ _ _ _____ _ _ ____
 72
    65
 73
     6
 40
0.004167
 49
0.002083
 49
-0.000417
 49
0.000417
 49
-0.000417
 49
0.000417
 49
-0.000417
  0
LTYPE
  2
DOT
 70
    64
  3
...............................................
 72
    65
 73
     2
 40
0.000417
 49
0.000000
 49
-0.000417
  0
LTYPE
  2
DASHDOT
 70
    64
  3
__ . __ . __ . __ . __ . __ . __ . __ . __ . __
 72
    65
 73
     4
 40
0.001667
 49
0.000833
 49
-0.000417
 49
0.000000
 49
-0.000417
  0
LTYPE
  2
BORDER
 70
    64
  3
__ __ . __ __ . __ __ . __ __ . __ __ . __ __
 72
    65
 73
     6
 40
0.002917
 49
0.000833
 49
-0.000417
 49
0.000833
 49
-0.000417
 49
0.000000
 49
-0.000417
  0
LTYPE
  2
DIVIDE
 70
    64
  3
__ . . __ . . __ . . __ . . __ . . __ . . __
 72
    65
 73
     6
 40
0.002083
 49
0.000833
 49
-0.000417
 49
0.000000
 49
-0.000417
 49
0.000000
 49
-0.000417
  0
LTYPE
  2
DOTDOT
 70
    64
  3
 . .  . .  . .  . .  . .  . . 
 72
    65
 73
     5
 40
0.000917
 49
-0.000417
 49
0.000000
 49
-0.000417
 49
0.000000
 49
-0.000417
  0
ENDTAB
  0
TABLE
  2
STYLE
 70
     2
  0
STYLE
 70
     0
  2
SN0
 40
0.000000
 41
0.001667
 50
0.000000
 71
     0
 42
0.000000
  3
ROMAND
  0
STYLE
 70
    68
  2
SV0
 40
0.000000
 41
0.001667
 50
0.000000
 71
     0
 42
0.000000
  3
ROMAND
  0
ENDTAB
  0
TABLE
  2
LAYER
 70
     2
  0
LAYER
  2
FOREGROUND
 70
    64
 62
     7
  6
CONTINUOUS
  0
LAYER
  2
BACKGROUND
 70
    65
 62
    -7
  6
CONTINUOUS
  0
ENDTAB
  0
ENDSEC
  0
SECTION
  2
ENTITIES
  0
POLYLINE
  8
FOREGROUND
  6
CONTINUOUS
 66
     1
 40
0.010000
 41
0.010000
 70
     1
  0
VERTEX
  8
FOREGROUND
  6
CONTINUOUS
 10
1.630000
 20
0.050000
  0
VERTEX
  8
FOREGROUND
  6
CONTINUOUS
 10
1.644481
 20
0.050272
  0
VERTEX
  8
FOREGROUND
  6
CONTINUOUS
 10
1.658829
 20
0.051057
  0
VERTEX
  8
FOREGROUND
  6
CONTINUOUS
 10
1.673037
 20
0.052348
  0
VERTEX
  8
FOREGROUND
  6
CONTINUOUS
 10
1.687096
 20
0.054135
  0
VERTEX
  8
FOREGROUND
  6
CONTINUOUS
 10
1.700996
 20
0.056410
  0
VERTEX
  8
FOREGROUND
  6
CONTINUOUS
 10
1.714729
 20
0.059163
  0
VERTEX
  8
FOREGROUND
  6
CONTINUOUS
 10
1.728285
 20
0.062385
  0
VERTEX
  8
FOREGROUND
  6
CONTINUOUS
 10
1.741657
 20
0.066069
  0
VERTEX
  8
FOREGROUND
  6
CONTINUOUS
 10
1.754834
 20
0.070204
  0
VERTEX
  8
FOREGROUND
  6
CONTINUOUS
 10
1.767808
 20
0.074782
  0
VERTEX
  8
FOREGROUND
  6
CONTINUOUS
 10
1.780571
 20
0.079795
  0
VERTEX
  8
FOREGROUND
  6
CONTINUOUS
 10
1.793113
 20
0.085232
  0
VERTEX
  8
FOREGROUND
  6
CONTINUOUS
 10
1.805425
 20
0.091086
  0
VERTEX
  8
FOREGROUND
  6
CONTINUOUS
 10
1.817499
 20
0.097347
  0
VERTEX
  8
FOREGROUND
  6
CONTINUOUS
 10
1.829325
 20
0.104006
  0
VERTEX
  8
FOREGROUND
  6
CONTINUOUS
 10
1.840896
 20
0.111055
  0
VERTEX
  8
FOREGROUND
  6
CONTINUOUS
 10
1.852201
 20
0.118485
  0
VERTEX
  8
FOREGROUND
  6
CONTINUOUS
 10
1.863232
 20
0.126287
  0
VERTEX
  8
FOREGROUND
  6
CONTINUOUS
 10
1.873980
 20
0.134452
  0
VERTEX
  8
FOREGROUND
  6
CONTINUOUS
 10
1.884436
 20
0.142971
  0
VERTEX
  8
FOREGROUND
  6
CONTINUOUS
 10
1.894592
 20
0.151834
  0
VERTEX
  8
FOREGROUND
  6
CONTINUOUS
 10
1.904438
 20
0.161035
  0
VERTEX
  8
FOREGROUND
  6
CONTINUOUS
 10
1.913965
 20
0.170562
  0
VERTEX
  8
FOREGROUND
  6
CONTINUOUS
 10
1.923166
 20
0.180408
  0
VERTEX
  8
FOREGROUND
  6
CONTINUOUS
 10
1.932029
 20
0.190564
  0
VERTEX
  8
FOREGROUND
  6
CONTINUOUS
 10
1.940548
 20
0.201020
  0
VERTEX
  8
FOREGROUND
  6
CONTINUOUS
 10
1.948713
 20
0.211768
  0
VERTEX
  8
FOREGROUND
  6
CONTINUOUS
 10
1.956515
 20
0.222799
  0
VERTEX
  8
FOREGROUND
  6
CONTINUOUS
 10
1.963945
 20
0.234104
  0
VERTEX
  8
FOREGROUND
  6
CONTINUOUS
 10
1.970994
 20
0.245675
  0
VERTEX
  8
FOREGROUND
  6
CONTINUOUS
 10
1.977653
 20
0.257501
  0
VERTEX
  8
FOREGROUND
  6
CONTINUOUS
 10
1.983914
 20
0.269575
  0
VERTEX
  8
FOREGROUND
  6
CONTINUOUS
 10
1.989768
 20
0.281887
  0
VERTEX
  8
FOREGROUND
  6
CONTINUOUS
 10
1.995205
 20
0.294429
  0
VERTEX
  8
FOREGROUND
  6
CONTINUOUS
 10
2.000218
 20
0.307192
  0
VERTEX
  8
FOREGROUND
  6
CONTINUOUS
 10
2.004796
 20
0.320166
  0
VERTEX
  8
FOREGROUND
  6
CONTINUOUS
 10
2.008931
 20
0.333343
  0
VERTEX
  8
FOREGROUND
  6
CONTINUOUS
 10
2.012615
 20
0.346715
  0
VERTEX
  8
FOREGROUND
  6
CONTINUOUS
 10
2.015837
 20
0.360271
  0
VERTEX
  8
FOREGROUND
  6
CONTINUOUS
 10
2.018590
 20
0.374004
  0
VERTEX
  8
FOREGROUND
  6
CONTINUOUS
 10
2.020865
 20
0.387904
  0
VERTEX
  8
FOREGROUND
  6
CONTINUOUS
 10
2.022652
 20
0.401963
  0
VERTEX
  8
FOREGROUND
  6
CONTINUOUS
 10
2.023943
 20
0.416171
  0
VERTEX
  8
FOREGROUND
  6
CONTINUOUS
 10
2.024728
 20
0.430519
  0
VERTEX
  8
FOREGROUND
  6
CONTINUOUS
 10
2.025000
 20
0.445000
  0
VERTEX
  8
FOREGROUND
  6
CONTINUOUS
 10
2.025000
 20
1.635000
  0
VERTEX
  8
FOREGROUND
  6
CONTINUOUS
 10
2.024728
 20
1.649482
  0
VERTEX
  8
FOREGROUND
  6
CONTINUOUS
 10
2.023943
 20
1.663833
  0
VERTEX
  8
FOREGROUND
  6
CONTINUOUS
 10
2.022651
 20
1.678043
  0
VERTEX
  8
FOREGROUND
  6
CONTINUOUS
 10
2.020864
 20
1.692103
  0
VERTEX
  8
FOREGROUND
  6
CONTINUOUS
 10
2.018589
 20
1.706005
  0
VERTEX
  8
FOREGROUND
  6
CONTINUOUS
 10
2.015835
 20
1.719739
  0
VERTEX
  8
FOREGROUND
  6
CONTINUOUS
 10
2.012612
 20
1.733297
  0
VERTEX
  8
FOREGROUND
  6
CONTINUOUS
 10
2.008927
 20
1.746670
  0
VERTEX
  8
FOREGROUND
  6
CONTINUOUS
 10
2.004791
 20
1.759849
  0
VERTEX
  8
FOREGROUND
  6
CONTINUOUS
 10
2.000212
 20
1.772824
  0
VERTEX
  8
FOREGROUND
  6
CONTINUOUS
 10
1.995198
 20
1.785588
  0
VERTEX
  8
FOREGROUND
  6
CONTINUOUS
 10
1.989760
 20
1.798131
  0
VERTEX
  8
FOREGROUND
  6
CONTINUOUS
 10
1.983905
 20
1.810445
  0
VERTEX
  8
FOREGROUND
  6
CONTINUOUS
 10
1.977642
 20
1.822520
  0
VERTEX
  8
FOREGROUND
  6
CONTINUOUS
 10
1.970981
 20
1.834347
  0
VERTEX
  8
FOREGROUND
  6
CONTINUOUS
 10
1.963930
 20
1.845918
  0
VERTEX
  8
FOREGROUND
  6
CONTINUOUS
 10
1.956499
 20
1.857224
  0
VERTEX
  8
FOREGROUND
  6
CONTINUOUS
 10
1.948695
 20
1.868256
  0
VERTEX
  8
FOREGROUND
  6
CONTINUOUS
 10
1.940529
 20
1.879005
  0
VERTEX
  8
FOREGROUND
  6
CONTINUOUS
 10
1.932008
 20
1.889461
  0
VERTEX
  8
FOREGROUND
  6
CONTINUOUS
 10
1.923143
 20
1.899617
  0
VERTEX
  8
FOREGROUND
  6
CONTINUOUS
 10
1.913941
 20
1.909464
  0
VERTEX
  8
FOREGROUND
  6
CONTINUOUS
 10
1.904411
 20
1.918991
  0
VERTEX
  8
FOREGROUND
  6
CONTINUOUS
 10
1.894563
 20
1.928192
  0
VERTEX
  8
FOREGROUND
  6
CONTINUOUS
 10
1.884405
 20
1.937055
  0
VERTEX
  8
FOREGROUND
  6
CONTINUOUS
 10
1.873947
 20
1.945574
  0
VERTEX
  8
FOREGROUND
  6
CONTINUOUS
 10
1.863197
 20
1.953739
  0
VERTEX
  8
FOREGROUND
  6
CONTINUOUS
 10
1.852164
 20
1.961540
  0
VERTEX
  8
FOREGROUND
  6
CONTINUOUS
 10
1.840856
 20
1.968969
  0
VERTEX
  8
FOREGROUND
  6
CONTINUOUS
 10
1.829284
 20
1.976018
  0
VERTEX
  8
FOREGROUND
  6
CONTINUOUS
 10
1.817455
 20
1.982677
  0
VERTEX
  8
FOREGROUND
  6
CONTINUOUS
 10
1.805379
 20
1.988937
  0
VERTEX
  8
FOREGROUND
  6
CONTINUOUS
 10
1.793065
 20
1.994790
  0
VERTEX
  8
FOREGROUND
  6
CONTINUOUS
 10
1.780521
 20
2.000226
  0
VERTEX
  8
FOREGROUND
  6
CONTINUOUS
 10
1.767756
 20
2.005237
  0
VERTEX
  8
FOREGROUND
  6
CONTINUOUS
 10
1.754779
 20
2.009814
  0
VERTEX
  8
FOREGROUND
  6
CONTINUOUS
 10
1.741600
 20
2.013948
  0
VERTEX
  8
FOREGROUND
  6
CONTINUOUS
 10
1.728226
 20
2.017630
  0
VERTEX
  8
FOREGROUND
  6
CONTINUOUS
 10
1.714668
 20
2.020851
  0
VERTEX
  8
FOREGROUND
  6
CONTINUOUS
 10
1.700933
 20
2.023602
  0
VERTEX
  8
FOREGROUND
  6
CONTINUOUS
 10
1.687031
 20
2.025874
  0
VERTEX
  8
FOREGROUND
  6
CONTINUOUS
 10
1.672970
 20
2.027659
  0
VERTEX
  8
FOREGROUND
  6
CONTINUOUS
 10
1.658760
 20
2.028948
  0
VERTEX
  8
FOREGROUND
  6
CONTINUOUS
 10
1.644409
 20
2.029731
  0
VERTEX
  8
FOREGROUND
  6
CONTINUOUS
 10
1.629927
 20
2.030000
  0
VERTEX
  8
FOREGROUND
  6
CONTINUOUS
 10
0.444927
 20
2.030000
  0
VERTEX
  8
FOREGROUND
  6
CONTINUOUS
 10
0.430448
 20
2.029726
  0
VERTEX
  8
FOREGROUND
  6
CONTINUOUS
 10
0.416101
 20
2.028938
  0
VERTEX
  8
FOREGROUND
  6
CONTINUOUS
 10
0.401895
 20
2.027645
  0
VERTEX
  8
FOREGROUND
  6
CONTINUOUS
 10
0.387839
 20
2.025855
  0
VERTEX
  8
FOREGROUND
  6
CONTINUOUS
 10
0.373941
 20
2.023579
  0
VERTEX
  8
FOREGROUND
  6
CONTINUOUS
 10
0.360210
 20
2.020824
  0
VERTEX
  8
FOREGROUND
  6
CONTINUOUS
 10
0.346656
 20
2.017599
  0
VERTEX
  8
FOREGROUND
  6
CONTINUOUS
 10
0.333287
 20
2.013914
  0
VERTEX
  8
FOREGROUND
  6
CONTINUOUS
 10
0.320112
 20
2.009778
  0
VERTEX
  8
FOREGROUND
  6
CONTINUOUS
 10
0.307139
 20
2.005198
  0
VERTEX
  8
FOREGROUND
  6
CONTINUOUS
 10
0.294379
 20
2.000185
  0
VERTEX
  8
FOREGROUND
  6
CONTINUOUS
 10
0.281839
 20
1.994746
  0
VERTEX
  8
FOREGROUND
  6
CONTINUOUS
 10
0.269529
 20
1.988892
  0
VERTEX
  8
FOREGROUND
  6
CONTINUOUS
 10
0.257457
 20
1.982630
  0
VERTEX
  8
FOREGROUND
  6
CONTINUOUS
 10
0.245633
 20
1.975969
  0
VERTEX
  8
FOREGROUND
  6
CONTINUOUS
 10
0.234065
 20
1.968920
  0
VERTEX
  8
FOREGROUND
  6
CONTINUOUS
 10
0.222762
 20
1.961489
  0
VERTEX
  8
FOREGROUND
  6
CONTINUOUS
 10
0.211733
 20
1.953687
  0
VERTEX
  8
FOREGROUND
  6
CONTINUOUS
 10
0.200987
 20
1.945522
  0
VERTEX
  8
FOREGROUND
  6
CONTINUOUS
 10
0.190533
 20
1.937003
  0
VERTEX
  8
FOREGROUND
  6
CONTINUOUS
 10
0.180379
 20
1.928140
  0
VERTEX
  8
FOREGROUND
  6
CONTINUOUS
 10
0.170535
 20
1.918939
  0
VERTEX
  8
FOREGROUND
  6
CONTINUOUS
 10
0.161010
 20
1.909412
  0
VERTEX
  8
FOREGROUND
  6
CONTINUOUS
 10
0.151811
 20
1.899566
  0
VERTEX
  8
FOREGROUND
  6
CONTINUOUS
 10
0.142949
 20
1.889411
  0
VERTEX
  8
FOREGROUND
  6
CONTINUOUS
 10
0.134433
 20
1.878955
  0
VERTEX
  8
FOREGROUND
  6
CONTINUOUS
 10
0.126270
 20
1.868208
  0
VERTEX
  8
FOREGROUND
  6
CONTINUOUS
 10
0.118470
 20
1.857177
  0
VERTEX
  8
FOREGROUND
  6
CONTINUOUS
 10
0.111041
 20
1.845873
  0
VERTEX
  8
FOREGROUND
  6
CONTINUOUS
 10
0.103994
 20
1.834304
  0
VERTEX
  8
FOREGROUND
  6
CONTINUOUS
 10
0.097336
 20
1.822478
  0
VERTEX
  8
FOREGROUND
  6
CONTINUOUS
 10
0.091076
 20
1.810405
  0
VERTEX
  8
FOREGROUND
  6
CONTINUOUS
 10
0.085224
 20
1.798094
  0
VERTEX
  8
FOREGROUND
  6
CONTINUOUS
 10
0.079787
 20
1.785553
  0
VERTEX
  8
FOREGROUND
  6
CONTINUOUS
 10
0.074776
 20
1.772792
  0
VERTEX
  8
FOREGROUND
  6
CONTINUOUS
 10
0.070199
 20
1.759819
  0
VERTEX
  8
FOREGROUND
  6
CONTINUOUS
 10
0.066065
 20
1.746643
  0
VERTEX
  8
FOREGROUND
  6
CONTINUOUS
 10
0.062382
 20
1.733273
  0
VERTEX
  8
FOREGROUND
  6
CONTINUOUS
 10
0.059161
 20
1.719718
  0
VERTEX
  8
FOREGROUND
  6
CONTINUOUS
 10
0.056408
 20
1.705987
  0
VERTEX
  8
FOREGROUND
  6
CONTINUOUS
 10
0.054134
 20
1.692089
  0
VERTEX
  8
FOREGROUND
  6
CONTINUOUS
 10
0.052347
 20
1.678032
  0
VERTEX
  8
FOREGROUND
  6
CONTINUOUS
 10
0.051057
 20
1.663826
  0
VERTEX
  8
FOREGROUND
  6
CONTINUOUS
 10
0.050272
 20
1.649479
  0
VERTEX
  8
FOREGROUND
  6
CONTINUOUS
 10
0.050000
 20
1.635000
  0
VERTEX
  8
FOREGROUND
  6
CONTINUOUS
 10
0.050000
 20
0.445000
  0
VERTEX
  8
FOREGROUND
  6
CONTINUOUS
 10
0.050272
 20
0.430519
  0
VERTEX
  8
FOREGROUND
  6
CONTINUOUS
 10
0.051057
 20
0.416171
  0
VERTEX
  8
FOREGROUND
  6
CONTINUOUS
 10
0.052348
 20
0.401963
  0
VERTEX
  8
FOREGROUND
  6
CONTINUOUS
 10
0.054135
 20
0.387904
  0
VERTEX
  8
FOREGROUND
  6
CONTINUOUS
 10
0.056410
 20
0.374004
  0
VERTEX
  8
FOREGROUND
  6
CONTINUOUS
 10
0.059163
 20
0.360271
  0
VERTEX
  8
FOREGROUND
  6
CONTINUOUS
 10
0.062385
 20
0.346715
  0
VERTEX
  8
FOREGROUND
  6
CONTINUOUS
 10
0.066069
 20
0.333343
  0
VERTEX
  8
FOREGROUND
  6
CONTINUOUS
 10
0.070204
 20
0.320166
  0
VERTEX
  8
FOREGROUND
  6
CONTINUOUS
 10
0.074782
 20
0.307192
  0
VERTEX
  8
FOREGROUND
  6
CONTINUOUS
 10
0.079795
 20
0.294429
  0
VERTEX
  8
FOREGROUND
  6
CONTINUOUS
 10
0.085232
 20
0.281887
  0
VERTEX
  8
FOREGROUND
  6
CONTINUOUS
 10
0.091086
 20
0.269575
  0
VERTEX
  8
FOREGROUND
  6
CONTINUOUS
 10
0.097347
 20
0.257501
  0
VERTEX
  8
FOREGROUND
  6
CONTINUOUS
 10
0.104006
 20
0.245675
  0
VERTEX
  8
FOREGROUND
  6
CONTINUOUS
 10
0.111055
 20
0.234104
  0
VERTEX
  8
FOREGROUND
  6
CONTINUOUS
 10
0.118485
 20
0.222799
  0
VERTEX
  8
FOREGROUND
  6
CONTINUOUS
 10
0.126287
 20
0.211768
  0
VERTEX
  8
FOREGROUND
  6
CONTINUOUS
 10
0.134452
 20
0.201020
  0
VERTEX
  8
FOREGROUND
  6
CONTINUOUS
 10
0.142971
 20
0.190564
  0
VERTEX
  8
FOREGROUND
  6
CONTINUOUS
 10
0.151834
 20
0.180408
  0
VERTEX
  8
FOREGROUND
  6
CONTINUOUS
 10
0.161035
 20
0.170562
  0
VERTEX
  8
FOREGROUND
  6
CONTINUOUS
 10
0.170562
 20
0.161035
  0
VERTEX
  8
FOREGROUND
  6
CONTINUOUS
 10
0.180408
 20
0.151834
  0
VERTEX
  8
FOREGROUND
  6
CONTINUOUS
 10
0.190564
 20
0.142971
  0
VERTEX
  8
FOREGROUND
  6
CONTINUOUS
 10
0.201020
 20
0.134452
  0
VERTEX
  8
FOREGROUND
  6
CONTINUOUS
 10
0.211768
 20
0.126287
  0
VERTEX
  8
FOREGROUND
  6
CONTINUOUS
 10
0.222799
 20
0.118485
  0
VERTEX
  8
FOREGROUND
  6
CONTINUOUS
 10
0.234104
 20
0.111055
  0
VERTEX
  8
FOREGROUND
  6
CONTINUOUS
 10
0.245675
 20
0.104006
  0
VERTEX
  8
FOREGROUND
  6
CONTINUOUS
 10
0.257501
 20
0.097347
  0
VERTEX
  8
FOREGROUND
  6
CONTINUOUS
 10
0.269575
 20
0.091086
  0
VERTEX
  8
FOREGROUND
  6
CONTINUOUS
 10
0.281887
 20
0.085232
  0
VERTEX
  8
FOREGROUND
  6
CONTINUOUS
 10
0.294429
 20
0.079795
  0
VERTEX
  8
FOREGROUND
  6
CONTINUOUS
 10
0.307192
 20
0.074782
  0
VERTEX
  8
FOREGROUND
  6
CONTINUOUS
 10
0.320166
 20
0.070204
  0
VERTEX
  8
FOREGROUND
  6
CONTINUOUS
 10
0.333343
 20
0.066069
  0
VERTEX
  8
FOREGROUND
  6
CONTINUOUS
 10
0.346715
 20
0.062385
  0
VERTEX
  8
FOREGROUND
  6
CONTINUOUS
 10
0.360271
 20
0.059163
  0
VERTEX
  8
FOREGROUND
  6
CONTINUOUS
 10
0.374004
 20
0.056410
  0
VERTEX
  8
FOREGROUND
  6
CONTINUOUS
 10
0.387904
 20
0.054135
  0
VERTEX
  8
FOREGROUND
  6
CONTINUOUS
 10
0.401963
 20
0.052348
  0
VERTEX
  8
FOREGROUND
  6
CONTINUOUS
 10
0.416171
 20
0.051057
  0
VERTEX
  8
FOREGROUND
  6
CONTINUOUS
 10
0.430519
 20
0.050272
  0
VERTEX
  8
FOREGROUND
  6
CONTINUOUS
 10
0.445000
 20
0.050000
  0
SEQEND
  8
0
  0
ENDSEC
  0
EOF
