  0
SECTION
  2
HEADER
  9
$ACADVER
  1
AC1006
  9
$EXTMIN
 10
0.000000
 20
0.000000
  9
$EXTMAX
 10
2.198333
 20
3.385000
  9
$LTSCALE
 40
0.166667
  9
$PDMODE
 70
    35
  9
$PDSIZE
 40
0.133333
  0
ENDSEC
  0
SECTION
  2
TABLES
  0
TABLE
  2
LTYPE
 70
     9
  0
LTYPE
  2
CONTINUOUS
 70
    64
  3
Solid line
 72
    65
 73
     0
 40
0.000000
  0
LTYPE
  2
DASHED
 70
    64
  3
__ __ __ __ __ __ __ __ __ __ __ __ __ __ __
 72
    65
 73
     2
 40
0.001250
 49
0.000833
 49
-0.000417
  0
LTYPE
  2
HIDDEN
 70
    64
  3
 _ _ _ _ _ _ _ _ _ _ _ _ _ _ _ _ _ _ _ _ _ _
 72
    65
 73
     2
 40
0.000625
 49
0.000417
 49
-0.000208
  0
LTYPE
  2
CENTER
 70
    64
  3
____ _ ____ _ ____ _ ____ _ ____ _ ____ _ ____
 72
    65
 73
     4
 40
0.003333
 49
0.002083
 49
-0.000417
 49
0.000417
 49
-0.000417
  0
LTYPE
  2
PHANTOM
 70
    64
  3
_____ _ _ _____ _ _ _____ _ _ _____ _ _ ____
 72
    65
 73
     6
 40
0.004167
 49
0.002083
 49
-0.000417
 49
0.000417
 49
-0.000417
 49
0.000417
 49
-0.000417
  0
LTYPE
  2
DOT
 70
    64
  3
...............................................
 72
    65
 73
     2
 40
0.000417
 49
0.000000
 49
-0.000417
  0
LTYPE
  2
DASHDOT
 70
    64
  3
__ . __ . __ . __ . __ . __ . __ . __ . __ . __
 72
    65
 73
     4
 40
0.001667
 49
0.000833
 49
-0.000417
 49
0.000000
 49
-0.000417
  0
LTYPE
  2
BORDER
 70
    64
  3
__ __ . __ __ . __ __ . __ __ . __ __ . __ __
 72
    65
 73
     6
 40
0.002917
 49
0.000833
 49
-0.000417
 49
0.000833
 49
-0.000417
 49
0.000000
 49
-0.000417
  0
LTYPE
  2
DIVIDE
 70
    64
  3
__ . . __ . . __ . . __ . . __ . . __ . . __
 72
    65
 73
     6
 40
0.002083
 49
0.000833
 49
-0.000417
 49
0.000000
 49
-0.000417
 49
0.000000
 49
-0.000417
  0
LTYPE
  2
DOTDOT
 70
    64
  3
 . .  . .  . .  . .  . .  . . 
 72
    65
 73
     5
 40
0.000917
 49
-0.000417
 49
0.000000
 49
-0.000417
 49
0.000000
 49
-0.000417
  0
ENDTAB
  0
TABLE
  2
STYLE
 70
     2
  0
STYLE
 70
     0
  2
SN0
 40
0.000000
 41
0.001667
 50
0.000000
 71
     0
 42
0.000000
  3
ROMAND
  0
STYLE
 70
    68
  2
SV0
 40
0.000000
 41
0.001667
 50
0.000000
 71
     0
 42
0.000000
  3
ROMAND
  0
ENDTAB
  0
TABLE
  2
LAYER
 70
     2
  0
LAYER
  2
FOREGROUND
 70
    64
 62
     7
  6
CONTINUOUS
  0
LAYER
  2
BACKGROUND
 70
    65
 62
    -7
  6
CONTINUOUS
  0
ENDTAB
  0
ENDSEC
  0
SECTION
  2
ENTITIES
  0
POLYLINE
  8
FOREGROUND
  6
CONTINUOUS
 66
     1
 40
0.010000
 41
0.010000
 70
     1
  0
VERTEX
  8
FOREGROUND
  6
CONTINUOUS
 10
0.445000
 20
3.230000
  0
VERTEX
  8
FOREGROUND
  6
CONTINUOUS
 10
1.638333
 20
3.230000
  0
VERTEX
  8
FOREGROUND
  6
CONTINUOUS
 10
1.678333
 20
3.228333
  0
VERTEX
  8
FOREGROUND
  6
CONTINUOUS
 10
1.718333
 20
3.221667
  0
VERTEX
  8
FOREGROUND
  6
CONTINUOUS
 10
1.756667
 20
3.211667
  0
VERTEX
  8
FOREGROUND
  6
CONTINUOUS
 10
1.791667
 20
3.198333
  0
VERTEX
  8
FOREGROUND
  6
CONTINUOUS
 10
1.826667
 20
3.181667
  0
VERTEX
  8
FOREGROUND
  6
CONTINUOUS
 10
1.860000
 20
3.161667
  0
VERTEX
  8
FOREGROUND
  6
CONTINUOUS
 10
1.890000
 20
3.140000
  0
VERTEX
  8
FOREGROUND
  6
CONTINUOUS
 10
1.918333
 20
3.115000
  0
VERTEX
  8
FOREGROUND
  6
CONTINUOUS
 10
1.943333
 20
3.086667
  0
VERTEX
  8
FOREGROUND
  6
CONTINUOUS
 10
1.966667
 20
3.055000
  0
VERTEX
  8
FOREGROUND
  6
CONTINUOUS
 10
1.985000
 20
3.023333
  0
VERTEX
  8
FOREGROUND
  6
CONTINUOUS
 10
2.001667
 20
2.988333
  0
VERTEX
  8
FOREGROUND
  6
CONTINUOUS
 10
2.015000
 20
2.951667
  0
VERTEX
  8
FOREGROUND
  6
CONTINUOUS
 10
2.025000
 20
2.915000
  0
VERTEX
  8
FOREGROUND
  6
CONTINUOUS
 10
2.031667
 20
2.875000
  0
VERTEX
  8
FOREGROUND
  6
CONTINUOUS
 10
2.033333
 20
2.835000
  0
VERTEX
  8
FOREGROUND
  6
CONTINUOUS
 10
2.033333
 20
0.453333
  0
VERTEX
  8
FOREGROUND
  6
CONTINUOUS
 10
2.031667
 20
0.413333
  0
VERTEX
  8
FOREGROUND
  6
CONTINUOUS
 10
2.025000
 20
0.373333
  0
VERTEX
  8
FOREGROUND
  6
CONTINUOUS
 10
2.015000
 20
0.335000
  0
VERTEX
  8
FOREGROUND
  6
CONTINUOUS
 10
2.001667
 20
0.300000
  0
VERTEX
  8
FOREGROUND
  6
CONTINUOUS
 10
1.985000
 20
0.265000
  0
VERTEX
  8
FOREGROUND
  6
CONTINUOUS
 10
1.966667
 20
0.231667
  0
VERTEX
  8
FOREGROUND
  6
CONTINUOUS
 10
1.943333
 20
0.201667
  0
VERTEX
  8
FOREGROUND
  6
CONTINUOUS
 10
1.918333
 20
0.173333
  0
VERTEX
  8
FOREGROUND
  6
CONTINUOUS
 10
1.890000
 20
0.148333
  0
VERTEX
  8
FOREGROUND
  6
CONTINUOUS
 10
1.860000
 20
0.125000
  0
VERTEX
  8
FOREGROUND
  6
CONTINUOUS
 10
1.826667
 20
0.106667
  0
VERTEX
  8
FOREGROUND
  6
CONTINUOUS
 10
1.791667
 20
0.090000
  0
VERTEX
  8
FOREGROUND
  6
CONTINUOUS
 10
1.756667
 20
0.076667
  0
VERTEX
  8
FOREGROUND
  6
CONTINUOUS
 10
1.718333
 20
0.066667
  0
VERTEX
  8
FOREGROUND
  6
CONTINUOUS
 10
1.678333
 20
0.060000
  0
VERTEX
  8
FOREGROUND
  6
CONTINUOUS
 10
1.638333
 20
0.058333
  0
VERTEX
  8
FOREGROUND
  6
CONTINUOUS
 10
0.445000
 20
0.058333
  0
VERTEX
  8
FOREGROUND
  6
CONTINUOUS
 10
0.405000
 20
0.060000
  0
VERTEX
  8
FOREGROUND
  6
CONTINUOUS
 10
0.365000
 20
0.066667
  0
VERTEX
  8
FOREGROUND
  6
CONTINUOUS
 10
0.328333
 20
0.076667
  0
VERTEX
  8
FOREGROUND
  6
CONTINUOUS
 10
0.291667
 20
0.090000
  0
VERTEX
  8
FOREGROUND
  6
CONTINUOUS
 10
0.256667
 20
0.106667
  0
VERTEX
  8
FOREGROUND
  6
CONTINUOUS
 10
0.225000
 20
0.125000
  0
VERTEX
  8
FOREGROUND
  6
CONTINUOUS
 10
0.193333
 20
0.148333
  0
VERTEX
  8
FOREGROUND
  6
CONTINUOUS
 10
0.165000
 20
0.173333
  0
VERTEX
  8
FOREGROUND
  6
CONTINUOUS
 10
0.140000
 20
0.201667
  0
VERTEX
  8
FOREGROUND
  6
CONTINUOUS
 10
0.118333
 20
0.231667
  0
VERTEX
  8
FOREGROUND
  6
CONTINUOUS
 10
0.098333
 20
0.265000
  0
VERTEX
  8
FOREGROUND
  6
CONTINUOUS
 10
0.081667
 20
0.300000
  0
VERTEX
  8
FOREGROUND
  6
CONTINUOUS
 10
0.068333
 20
0.335000
  0
VERTEX
  8
FOREGROUND
  6
CONTINUOUS
 10
0.058333
 20
0.373333
  0
VERTEX
  8
FOREGROUND
  6
CONTINUOUS
 10
0.051667
 20
0.413333
  0
VERTEX
  8
FOREGROUND
  6
CONTINUOUS
 10
0.050000
 20
0.453333
  0
VERTEX
  8
FOREGROUND
  6
CONTINUOUS
 10
0.050000
 20
2.835000
  0
VERTEX
  8
FOREGROUND
  6
CONTINUOUS
 10
0.051667
 20
2.875000
  0
VERTEX
  8
FOREGROUND
  6
CONTINUOUS
 10
0.058333
 20
2.915000
  0
VERTEX
  8
FOREGROUND
  6
CONTINUOUS
 10
0.068333
 20
2.951667
  0
VERTEX
  8
FOREGROUND
  6
CONTINUOUS
 10
0.081667
 20
2.988333
  0
VERTEX
  8
FOREGROUND
  6
CONTINUOUS
 10
0.098333
 20
3.023333
  0
VERTEX
  8
FOREGROUND
  6
CONTINUOUS
 10
0.118333
 20
3.055000
  0
VERTEX
  8
FOREGROUND
  6
CONTINUOUS
 10
0.140000
 20
3.086667
  0
VERTEX
  8
FOREGROUND
  6
CONTINUOUS
 10
0.165000
 20
3.115000
  0
VERTEX
  8
FOREGROUND
  6
CONTINUOUS
 10
0.193333
 20
3.140000
  0
VERTEX
  8
FOREGROUND
  6
CONTINUOUS
 10
0.225000
 20
3.161667
  0
VERTEX
  8
FOREGROUND
  6
CONTINUOUS
 10
0.256667
 20
3.181667
  0
VERTEX
  8
FOREGROUND
  6
CONTINUOUS
 10
0.291667
 20
3.198333
  0
VERTEX
  8
FOREGROUND
  6
CONTINUOUS
 10
0.328333
 20
3.211667
  0
VERTEX
  8
FOREGROUND
  6
CONTINUOUS
 10
0.365000
 20
3.221667
  0
VERTEX
  8
FOREGROUND
  6
CONTINUOUS
 10
0.405000
 20
3.228333
  0
SEQEND
  8
0
  0
ENDSEC
  0
EOF
