  0
SECTION
  2
HEADER
  9
$ACADVER
  1
AC1006
  9
$EXTMIN
 10
0.000000
 20
0.000000
  9
$EXTMAX
 10
2.780000
 20
2.203333
  9
$LTSCALE
 40
0.166667
  9
$PDMODE
 70
    35
  9
$PDSIZE
 40
0.133333
  0
ENDSEC
  0
SECTION
  2
TABLES
  0
TABLE
  2
LTYPE
 70
     9
  0
LTYPE
  2
CONTINUOUS
 70
    64
  3
Solid line
 72
    65
 73
     0
 40
0.000000
  0
LTYPE
  2
DASHED
 70
    64
  3
__ __ __ __ __ __ __ __ __ __ __ __ __ __ __
 72
    65
 73
     2
 40
0.001250
 49
0.000833
 49
-0.000417
  0
LTYPE
  2
HIDDEN
 70
    64
  3
 _ _ _ _ _ _ _ _ _ _ _ _ _ _ _ _ _ _ _ _ _ _
 72
    65
 73
     2
 40
0.000625
 49
0.000417
 49
-0.000208
  0
LTYPE
  2
CENTER
 70
    64
  3
____ _ ____ _ ____ _ ____ _ ____ _ ____ _ ____
 72
    65
 73
     4
 40
0.003333
 49
0.002083
 49
-0.000417
 49
0.000417
 49
-0.000417
  0
LTYPE
  2
PHANTOM
 70
    64
  3
_____ _ _ _____ _ _ _____ _ _ _____ _ _ ____
 72
    65
 73
     6
 40
0.004167
 49
0.002083
 49
-0.000417
 49
0.000417
 49
-0.000417
 49
0.000417
 49
-0.000417
  0
LTYPE
  2
DOT
 70
    64
  3
...............................................
 72
    65
 73
     2
 40
0.000417
 49
0.000000
 49
-0.000417
  0
LTYPE
  2
DASHDOT
 70
    64
  3
__ . __ . __ . __ . __ . __ . __ . __ . __ . __
 72
    65
 73
     4
 40
0.001667
 49
0.000833
 49
-0.000417
 49
0.000000
 49
-0.000417
  0
LTYPE
  2
BORDER
 70
    64
  3
__ __ . __ __ . __ __ . __ __ . __ __ . __ __
 72
    65
 73
     6
 40
0.002917
 49
0.000833
 49
-0.000417
 49
0.000833
 49
-0.000417
 49
0.000000
 49
-0.000417
  0
LTYPE
  2
DIVIDE
 70
    64
  3
__ . . __ . . __ . . __ . . __ . . __ . . __
 72
    65
 73
     6
 40
0.002083
 49
0.000833
 49
-0.000417
 49
0.000000
 49
-0.000417
 49
0.000000
 49
-0.000417
  0
LTYPE
  2
DOTDOT
 70
    64
  3
 . .  . .  . .  . .  . .  . . 
 72
    65
 73
     5
 40
0.000917
 49
-0.000417
 49
0.000000
 49
-0.000417
 49
0.000000
 49
-0.000417
  0
ENDTAB
  0
TABLE
  2
STYLE
 70
     2
  0
STYLE
 70
     0
  2
SN0
 40
0.000000
 41
0.001667
 50
0.000000
 71
     0
 42
0.000000
  3
ROMAND
  0
STYLE
 70
    68
  2
SV0
 40
0.000000
 41
0.001667
 50
0.000000
 71
     0
 42
0.000000
  3
ROMAND
  0
ENDTAB
  0
TABLE
  2
LAYER
 70
     2
  0
LAYER
  2
FOREGROUND
 70
    64
 62
     7
  6
CONTINUOUS
  0
LAYER
  2
BACKGROUND
 70
    65
 62
    -7
  6
CONTINUOUS
  0
ENDTAB
  0
ENDSEC
  0
SECTION
  2
ENTITIES
  0
POLYLINE
  8
FOREGROUND
 62
     7
  6
CONTINUOUS
 66
     1
 40
0.000000
 41
0.000000
 70
     1
  0
VERTEX
  8
FOREGROUND
 62
     7
  6
CONTINUOUS
 10
0.446667
 20
2.048333
  0
VERTEX
  8
FOREGROUND
 62
     7
  6
CONTINUOUS
 10
2.218333
 20
2.048333
  0
VERTEX
  8
FOREGROUND
 62
     7
  6
CONTINUOUS
 10
2.258333
 20
2.046667
  0
VERTEX
  8
FOREGROUND
 62
     7
  6
CONTINUOUS
 10
2.298333
 20
2.040000
  0
VERTEX
  8
FOREGROUND
 62
     7
  6
CONTINUOUS
 10
2.336667
 20
2.030000
  0
VERTEX
  8
FOREGROUND
 62
     7
  6
CONTINUOUS
 10
2.373333
 20
2.016667
  0
VERTEX
  8
FOREGROUND
 62
     7
  6
CONTINUOUS
 10
2.408333
 20
2.000000
  0
VERTEX
  8
FOREGROUND
 62
     7
  6
CONTINUOUS
 10
2.440000
 20
1.980000
  0
VERTEX
  8
FOREGROUND
 62
     7
  6
CONTINUOUS
 10
2.470000
 20
1.958333
  0
VERTEX
  8
FOREGROUND
 62
     7
  6
CONTINUOUS
 10
2.498333
 20
1.931667
  0
VERTEX
  8
FOREGROUND
 62
     7
  6
CONTINUOUS
 10
2.525000
 20
1.903333
  0
VERTEX
  8
FOREGROUND
 62
     7
  6
CONTINUOUS
 10
2.546667
 20
1.873333
  0
VERTEX
  8
FOREGROUND
 62
     7
  6
CONTINUOUS
 10
2.566667
 20
1.840000
  0
VERTEX
  8
FOREGROUND
 62
     7
  6
CONTINUOUS
 10
2.583333
 20
1.806667
  0
VERTEX
  8
FOREGROUND
 62
     7
  6
CONTINUOUS
 10
2.596667
 20
1.770000
  0
VERTEX
  8
FOREGROUND
 62
     7
  6
CONTINUOUS
 10
2.606667
 20
1.731667
  0
VERTEX
  8
FOREGROUND
 62
     7
  6
CONTINUOUS
 10
2.613333
 20
1.691667
  0
VERTEX
  8
FOREGROUND
 62
     7
  6
CONTINUOUS
 10
2.615000
 20
1.651667
  0
VERTEX
  8
FOREGROUND
 62
     7
  6
CONTINUOUS
 10
2.615000
 20
0.455000
  0
VERTEX
  8
FOREGROUND
 62
     7
  6
CONTINUOUS
 10
2.613333
 20
0.415000
  0
VERTEX
  8
FOREGROUND
 62
     7
  6
CONTINUOUS
 10
2.606667
 20
0.375000
  0
VERTEX
  8
FOREGROUND
 62
     7
  6
CONTINUOUS
 10
2.596667
 20
0.336667
  0
VERTEX
  8
FOREGROUND
 62
     7
  6
CONTINUOUS
 10
2.583333
 20
0.300000
  0
VERTEX
  8
FOREGROUND
 62
     7
  6
CONTINUOUS
 10
2.566667
 20
0.265000
  0
VERTEX
  8
FOREGROUND
 62
     7
  6
CONTINUOUS
 10
2.546667
 20
0.233333
  0
VERTEX
  8
FOREGROUND
 62
     7
  6
CONTINUOUS
 10
2.525000
 20
0.203333
  0
VERTEX
  8
FOREGROUND
 62
     7
  6
CONTINUOUS
 10
2.498333
 20
0.175000
  0
VERTEX
  8
FOREGROUND
 62
     7
  6
CONTINUOUS
 10
2.470000
 20
0.148333
  0
VERTEX
  8
FOREGROUND
 62
     7
  6
CONTINUOUS
 10
2.440000
 20
0.126667
  0
VERTEX
  8
FOREGROUND
 62
     7
  6
CONTINUOUS
 10
2.408333
 20
0.106667
  0
VERTEX
  8
FOREGROUND
 62
     7
  6
CONTINUOUS
 10
2.373333
 20
0.090000
  0
VERTEX
  8
FOREGROUND
 62
     7
  6
CONTINUOUS
 10
2.336667
 20
0.076667
  0
VERTEX
  8
FOREGROUND
 62
     7
  6
CONTINUOUS
 10
2.298333
 20
0.066667
  0
VERTEX
  8
FOREGROUND
 62
     7
  6
CONTINUOUS
 10
2.258333
 20
0.060000
  0
VERTEX
  8
FOREGROUND
 62
     7
  6
CONTINUOUS
 10
2.218333
 20
0.058333
  0
VERTEX
  8
FOREGROUND
 62
     7
  6
CONTINUOUS
 10
0.446667
 20
0.058333
  0
VERTEX
  8
FOREGROUND
 62
     7
  6
CONTINUOUS
 10
0.406667
 20
0.060000
  0
VERTEX
  8
FOREGROUND
 62
     7
  6
CONTINUOUS
 10
0.366667
 20
0.066667
  0
VERTEX
  8
FOREGROUND
 62
     7
  6
CONTINUOUS
 10
0.328333
 20
0.076667
  0
VERTEX
  8
FOREGROUND
 62
     7
  6
CONTINUOUS
 10
0.291667
 20
0.090000
  0
VERTEX
  8
FOREGROUND
 62
     7
  6
CONTINUOUS
 10
0.258333
 20
0.106667
  0
VERTEX
  8
FOREGROUND
 62
     7
  6
CONTINUOUS
 10
0.225000
 20
0.126667
  0
VERTEX
  8
FOREGROUND
 62
     7
  6
CONTINUOUS
 10
0.195000
 20
0.148333
  0
VERTEX
  8
FOREGROUND
 62
     7
  6
CONTINUOUS
 10
0.166667
 20
0.175000
  0
VERTEX
  8
FOREGROUND
 62
     7
  6
CONTINUOUS
 10
0.140000
 20
0.203333
  0
VERTEX
  8
FOREGROUND
 62
     7
  6
CONTINUOUS
 10
0.118333
 20
0.233333
  0
VERTEX
  8
FOREGROUND
 62
     7
  6
CONTINUOUS
 10
0.098333
 20
0.265000
  0
VERTEX
  8
FOREGROUND
 62
     7
  6
CONTINUOUS
 10
0.081667
 20
0.300000
  0
VERTEX
  8
FOREGROUND
 62
     7
  6
CONTINUOUS
 10
0.068333
 20
0.336667
  0
VERTEX
  8
FOREGROUND
 62
     7
  6
CONTINUOUS
 10
0.058333
 20
0.375000
  0
VERTEX
  8
FOREGROUND
 62
     7
  6
CONTINUOUS
 10
0.051667
 20
0.415000
  0
VERTEX
  8
FOREGROUND
 62
     7
  6
CONTINUOUS
 10
0.050000
 20
0.455000
  0
VERTEX
  8
FOREGROUND
 62
     7
  6
CONTINUOUS
 10
0.050000
 20
1.651667
  0
VERTEX
  8
FOREGROUND
 62
     7
  6
CONTINUOUS
 10
0.051667
 20
1.691667
  0
VERTEX
  8
FOREGROUND
 62
     7
  6
CONTINUOUS
 10
0.058333
 20
1.731667
  0
VERTEX
  8
FOREGROUND
 62
     7
  6
CONTINUOUS
 10
0.068333
 20
1.770000
  0
VERTEX
  8
FOREGROUND
 62
     7
  6
CONTINUOUS
 10
0.081667
 20
1.806667
  0
VERTEX
  8
FOREGROUND
 62
     7
  6
CONTINUOUS
 10
0.098333
 20
1.840000
  0
VERTEX
  8
FOREGROUND
 62
     7
  6
CONTINUOUS
 10
0.118333
 20
1.873333
  0
VERTEX
  8
FOREGROUND
 62
     7
  6
CONTINUOUS
 10
0.140000
 20
1.903333
  0
VERTEX
  8
FOREGROUND
 62
     7
  6
CONTINUOUS
 10
0.166667
 20
1.931667
  0
VERTEX
  8
FOREGROUND
 62
     7
  6
CONTINUOUS
 10
0.195000
 20
1.958333
  0
VERTEX
  8
FOREGROUND
 62
     7
  6
CONTINUOUS
 10
0.225000
 20
1.980000
  0
VERTEX
  8
FOREGROUND
 62
     7
  6
CONTINUOUS
 10
0.258333
 20
2.000000
  0
VERTEX
  8
FOREGROUND
 62
     7
  6
CONTINUOUS
 10
0.291667
 20
2.016667
  0
VERTEX
  8
FOREGROUND
 62
     7
  6
CONTINUOUS
 10
0.328333
 20
2.030000
  0
VERTEX
  8
FOREGROUND
 62
     7
  6
CONTINUOUS
 10
0.366667
 20
2.040000
  0
VERTEX
  8
FOREGROUND
 62
     7
  6
CONTINUOUS
 10
0.406667
 20
2.046667
  0
SEQEND
  8
0
  0
POLYLINE
  8
FOREGROUND
  6
CONTINUOUS
 66
     1
 40
0.010000
 41
0.010000
 70
     1
  0
VERTEX
  8
FOREGROUND
  6
CONTINUOUS
 10
0.446667
 20
2.048333
  0
VERTEX
  8
FOREGROUND
  6
CONTINUOUS
 10
2.218333
 20
2.048333
  0
VERTEX
  8
FOREGROUND
  6
CONTINUOUS
 10
2.258333
 20
2.046667
  0
VERTEX
  8
FOREGROUND
  6
CONTINUOUS
 10
2.298333
 20
2.040000
  0
VERTEX
  8
FOREGROUND
  6
CONTINUOUS
 10
2.336667
 20
2.030000
  0
VERTEX
  8
FOREGROUND
  6
CONTINUOUS
 10
2.373333
 20
2.016667
  0
VERTEX
  8
FOREGROUND
  6
CONTINUOUS
 10
2.408333
 20
2.000000
  0
VERTEX
  8
FOREGROUND
  6
CONTINUOUS
 10
2.440000
 20
1.980000
  0
VERTEX
  8
FOREGROUND
  6
CONTINUOUS
 10
2.470000
 20
1.958333
  0
VERTEX
  8
FOREGROUND
  6
CONTINUOUS
 10
2.498333
 20
1.931667
  0
VERTEX
  8
FOREGROUND
  6
CONTINUOUS
 10
2.525000
 20
1.903333
  0
VERTEX
  8
FOREGROUND
  6
CONTINUOUS
 10
2.546667
 20
1.873333
  0
VERTEX
  8
FOREGROUND
  6
CONTINUOUS
 10
2.566667
 20
1.840000
  0
VERTEX
  8
FOREGROUND
  6
CONTINUOUS
 10
2.583333
 20
1.806667
  0
VERTEX
  8
FOREGROUND
  6
CONTINUOUS
 10
2.596667
 20
1.770000
  0
VERTEX
  8
FOREGROUND
  6
CONTINUOUS
 10
2.606667
 20
1.731667
  0
VERTEX
  8
FOREGROUND
  6
CONTINUOUS
 10
2.613333
 20
1.691667
  0
VERTEX
  8
FOREGROUND
  6
CONTINUOUS
 10
2.615000
 20
1.651667
  0
VERTEX
  8
FOREGROUND
  6
CONTINUOUS
 10
2.615000
 20
0.455000
  0
VERTEX
  8
FOREGROUND
  6
CONTINUOUS
 10
2.613333
 20
0.415000
  0
VERTEX
  8
FOREGROUND
  6
CONTINUOUS
 10
2.606667
 20
0.375000
  0
VERTEX
  8
FOREGROUND
  6
CONTINUOUS
 10
2.596667
 20
0.336667
  0
VERTEX
  8
FOREGROUND
  6
CONTINUOUS
 10
2.583333
 20
0.300000
  0
VERTEX
  8
FOREGROUND
  6
CONTINUOUS
 10
2.566667
 20
0.265000
  0
VERTEX
  8
FOREGROUND
  6
CONTINUOUS
 10
2.546667
 20
0.233333
  0
VERTEX
  8
FOREGROUND
  6
CONTINUOUS
 10
2.525000
 20
0.203333
  0
VERTEX
  8
FOREGROUND
  6
CONTINUOUS
 10
2.498333
 20
0.175000
  0
VERTEX
  8
FOREGROUND
  6
CONTINUOUS
 10
2.470000
 20
0.148333
  0
VERTEX
  8
FOREGROUND
  6
CONTINUOUS
 10
2.440000
 20
0.126667
  0
VERTEX
  8
FOREGROUND
  6
CONTINUOUS
 10
2.408333
 20
0.106667
  0
VERTEX
  8
FOREGROUND
  6
CONTINUOUS
 10
2.373333
 20
0.090000
  0
VERTEX
  8
FOREGROUND
  6
CONTINUOUS
 10
2.336667
 20
0.076667
  0
VERTEX
  8
FOREGROUND
  6
CONTINUOUS
 10
2.298333
 20
0.066667
  0
VERTEX
  8
FOREGROUND
  6
CONTINUOUS
 10
2.258333
 20
0.060000
  0
VERTEX
  8
FOREGROUND
  6
CONTINUOUS
 10
2.218333
 20
0.058333
  0
VERTEX
  8
FOREGROUND
  6
CONTINUOUS
 10
0.446667
 20
0.058333
  0
VERTEX
  8
FOREGROUND
  6
CONTINUOUS
 10
0.406667
 20
0.060000
  0
VERTEX
  8
FOREGROUND
  6
CONTINUOUS
 10
0.366667
 20
0.066667
  0
VERTEX
  8
FOREGROUND
  6
CONTINUOUS
 10
0.328333
 20
0.076667
  0
VERTEX
  8
FOREGROUND
  6
CONTINUOUS
 10
0.291667
 20
0.090000
  0
VERTEX
  8
FOREGROUND
  6
CONTINUOUS
 10
0.258333
 20
0.106667
  0
VERTEX
  8
FOREGROUND
  6
CONTINUOUS
 10
0.225000
 20
0.126667
  0
VERTEX
  8
FOREGROUND
  6
CONTINUOUS
 10
0.195000
 20
0.148333
  0
VERTEX
  8
FOREGROUND
  6
CONTINUOUS
 10
0.166667
 20
0.175000
  0
VERTEX
  8
FOREGROUND
  6
CONTINUOUS
 10
0.140000
 20
0.203333
  0
VERTEX
  8
FOREGROUND
  6
CONTINUOUS
 10
0.118333
 20
0.233333
  0
VERTEX
  8
FOREGROUND
  6
CONTINUOUS
 10
0.098333
 20
0.265000
  0
VERTEX
  8
FOREGROUND
  6
CONTINUOUS
 10
0.081667
 20
0.300000
  0
VERTEX
  8
FOREGROUND
  6
CONTINUOUS
 10
0.068333
 20
0.336667
  0
VERTEX
  8
FOREGROUND
  6
CONTINUOUS
 10
0.058333
 20
0.375000
  0
VERTEX
  8
FOREGROUND
  6
CONTINUOUS
 10
0.051667
 20
0.415000
  0
VERTEX
  8
FOREGROUND
  6
CONTINUOUS
 10
0.050000
 20
0.455000
  0
VERTEX
  8
FOREGROUND
  6
CONTINUOUS
 10
0.050000
 20
1.651667
  0
VERTEX
  8
FOREGROUND
  6
CONTINUOUS
 10
0.051667
 20
1.691667
  0
VERTEX
  8
FOREGROUND
  6
CONTINUOUS
 10
0.058333
 20
1.731667
  0
VERTEX
  8
FOREGROUND
  6
CONTINUOUS
 10
0.068333
 20
1.770000
  0
VERTEX
  8
FOREGROUND
  6
CONTINUOUS
 10
0.081667
 20
1.806667
  0
VERTEX
  8
FOREGROUND
  6
CONTINUOUS
 10
0.098333
 20
1.840000
  0
VERTEX
  8
FOREGROUND
  6
CONTINUOUS
 10
0.118333
 20
1.873333
  0
VERTEX
  8
FOREGROUND
  6
CONTINUOUS
 10
0.140000
 20
1.903333
  0
VERTEX
  8
FOREGROUND
  6
CONTINUOUS
 10
0.166667
 20
1.931667
  0
VERTEX
  8
FOREGROUND
  6
CONTINUOUS
 10
0.195000
 20
1.958333
  0
VERTEX
  8
FOREGROUND
  6
CONTINUOUS
 10
0.225000
 20
1.980000
  0
VERTEX
  8
FOREGROUND
  6
CONTINUOUS
 10
0.258333
 20
2.000000
  0
VERTEX
  8
FOREGROUND
  6
CONTINUOUS
 10
0.291667
 20
2.016667
  0
VERTEX
  8
FOREGROUND
  6
CONTINUOUS
 10
0.328333
 20
2.030000
  0
VERTEX
  8
FOREGROUND
  6
CONTINUOUS
 10
0.366667
 20
2.040000
  0
VERTEX
  8
FOREGROUND
  6
CONTINUOUS
 10
0.406667
 20
2.046667
  0
SEQEND
  8
0
  0
ENDSEC
  0
EOF
