  0
SECTION
  2
HEADER
  9
$ACADVER
  1
AC1006
  9
$EXTMIN
 10
0.000000
 20
0.000000
  9
$EXTMAX
 10
2.605000
 20
4.155000
  9
$LTSCALE
 40
0.166667
  9
$PDMODE
 70
    35
  9
$PDSIZE
 40
0.133333
  0
ENDSEC
  0
SECTION
  2
TABLES
  0
TABLE
  2
LTYPE
 70
     9
  0
LTYPE
  2
CONTINUOUS
 70
    64
  3
Solid line
 72
    65
 73
     0
 40
0.000000
  0
LTYPE
  2
DASHED
 70
    64
  3
__ __ __ __ __ __ __ __ __ __ __ __ __ __ __
 72
    65
 73
     2
 40
0.001250
 49
0.000833
 49
-0.000417
  0
LTYPE
  2
HIDDEN
 70
    64
  3
 _ _ _ _ _ _ _ _ _ _ _ _ _ _ _ _ _ _ _ _ _ _
 72
    65
 73
     2
 40
0.000625
 49
0.000417
 49
-0.000208
  0
LTYPE
  2
CENTER
 70
    64
  3
____ _ ____ _ ____ _ ____ _ ____ _ ____ _ ____
 72
    65
 73
     4
 40
0.003333
 49
0.002083
 49
-0.000417
 49
0.000417
 49
-0.000417
  0
LTYPE
  2
PHANTOM
 70
    64
  3
_____ _ _ _____ _ _ _____ _ _ _____ _ _ ____
 72
    65
 73
     6
 40
0.004167
 49
0.002083
 49
-0.000417
 49
0.000417
 49
-0.000417
 49
0.000417
 49
-0.000417
  0
LTYPE
  2
DOT
 70
    64
  3
...............................................
 72
    65
 73
     2
 40
0.000417
 49
0.000000
 49
-0.000417
  0
LTYPE
  2
DASHDOT
 70
    64
  3
__ . __ . __ . __ . __ . __ . __ . __ . __ . __
 72
    65
 73
     4
 40
0.001667
 49
0.000833
 49
-0.000417
 49
0.000000
 49
-0.000417
  0
LTYPE
  2
BORDER
 70
    64
  3
__ __ . __ __ . __ __ . __ __ . __ __ . __ __
 72
    65
 73
     6
 40
0.002917
 49
0.000833
 49
-0.000417
 49
0.000833
 49
-0.000417
 49
0.000000
 49
-0.000417
  0
LTYPE
  2
DIVIDE
 70
    64
  3
__ . . __ . . __ . . __ . . __ . . __ . . __
 72
    65
 73
     6
 40
0.002083
 49
0.000833
 49
-0.000417
 49
0.000000
 49
-0.000417
 49
0.000000
 49
-0.000417
  0
LTYPE
  2
DOTDOT
 70
    64
  3
 . .  . .  . .  . .  . .  . . 
 72
    65
 73
     5
 40
0.000917
 49
-0.000417
 49
0.000000
 49
-0.000417
 49
0.000000
 49
-0.000417
  0
ENDTAB
  0
TABLE
  2
STYLE
 70
     2
  0
STYLE
 70
     0
  2
SN0
 40
0.000000
 41
0.001667
 50
0.000000
 71
     0
 42
0.000000
  3
ROMAND
  0
STYLE
 70
    68
  2
SV0
 40
0.000000
 41
0.001667
 50
0.000000
 71
     0
 42
0.000000
  3
ROMAND
  0
ENDTAB
  0
TABLE
  2
LAYER
 70
     2
  0
LAYER
  2
FOREGROUND
 70
    64
 62
     7
  6
CONTINUOUS
  0
LAYER
  2
BACKGROUND
 70
    65
 62
    -7
  6
CONTINUOUS
  0
ENDTAB
  0
ENDSEC
  0
SECTION
  2
ENTITIES
  0
POLYLINE
  8
FOREGROUND
  6
CONTINUOUS
 66
     1
 40
0.010000
 41
0.010000
 70
     1
  0
VERTEX
  8
FOREGROUND
  6
CONTINUOUS
 10
0.526667
 20
4.000000
  0
VERTEX
  8
FOREGROUND
  6
CONTINUOUS
 10
1.965000
 20
4.000000
  0
VERTEX
  8
FOREGROUND
  6
CONTINUOUS
 10
2.013333
 20
3.996667
  0
VERTEX
  8
FOREGROUND
  6
CONTINUOUS
 10
2.061667
 20
3.990000
  0
VERTEX
  8
FOREGROUND
  6
CONTINUOUS
 10
2.106667
 20
3.978333
  0
VERTEX
  8
FOREGROUND
  6
CONTINUOUS
 10
2.150000
 20
3.961667
  0
VERTEX
  8
FOREGROUND
  6
CONTINUOUS
 10
2.191667
 20
3.941667
  0
VERTEX
  8
FOREGROUND
  6
CONTINUOUS
 10
2.231667
 20
3.918333
  0
VERTEX
  8
FOREGROUND
  6
CONTINUOUS
 10
2.268333
 20
3.891667
  0
VERTEX
  8
FOREGROUND
  6
CONTINUOUS
 10
2.301667
 20
3.860000
  0
VERTEX
  8
FOREGROUND
  6
CONTINUOUS
 10
2.333333
 20
3.826667
  0
VERTEX
  8
FOREGROUND
  6
CONTINUOUS
 10
2.360000
 20
3.790000
  0
VERTEX
  8
FOREGROUND
  6
CONTINUOUS
 10
2.385000
 20
3.750000
  0
VERTEX
  8
FOREGROUND
  6
CONTINUOUS
 10
2.405000
 20
3.708333
  0
VERTEX
  8
FOREGROUND
  6
CONTINUOUS
 10
2.420000
 20
3.665000
  0
VERTEX
  8
FOREGROUND
  6
CONTINUOUS
 10
2.431667
 20
3.620000
  0
VERTEX
  8
FOREGROUND
  6
CONTINUOUS
 10
2.440000
 20
3.571667
  0
VERTEX
  8
FOREGROUND
  6
CONTINUOUS
 10
2.441667
 20
3.523333
  0
VERTEX
  8
FOREGROUND
  6
CONTINUOUS
 10
2.441667
 20
0.535000
  0
VERTEX
  8
FOREGROUND
  6
CONTINUOUS
 10
2.440000
 20
0.486667
  0
VERTEX
  8
FOREGROUND
  6
CONTINUOUS
 10
2.431667
 20
0.438333
  0
VERTEX
  8
FOREGROUND
  6
CONTINUOUS
 10
2.420000
 20
0.393333
  0
VERTEX
  8
FOREGROUND
  6
CONTINUOUS
 10
2.405000
 20
0.350000
  0
VERTEX
  8
FOREGROUND
  6
CONTINUOUS
 10
2.385000
 20
0.308333
  0
VERTEX
  8
FOREGROUND
  6
CONTINUOUS
 10
2.360000
 20
0.268333
  0
VERTEX
  8
FOREGROUND
  6
CONTINUOUS
 10
2.333333
 20
0.231667
  0
VERTEX
  8
FOREGROUND
  6
CONTINUOUS
 10
2.301667
 20
0.198333
  0
VERTEX
  8
FOREGROUND
  6
CONTINUOUS
 10
2.268333
 20
0.166667
  0
VERTEX
  8
FOREGROUND
  6
CONTINUOUS
 10
2.231667
 20
0.140000
  0
VERTEX
  8
FOREGROUND
  6
CONTINUOUS
 10
2.191667
 20
0.115000
  0
VERTEX
  8
FOREGROUND
  6
CONTINUOUS
 10
2.150000
 20
0.095000
  0
VERTEX
  8
FOREGROUND
  6
CONTINUOUS
 10
2.106667
 20
0.080000
  0
VERTEX
  8
FOREGROUND
  6
CONTINUOUS
 10
2.061667
 20
0.068333
  0
VERTEX
  8
FOREGROUND
  6
CONTINUOUS
 10
2.013333
 20
0.060000
  0
VERTEX
  8
FOREGROUND
  6
CONTINUOUS
 10
1.965000
 20
0.058333
  0
VERTEX
  8
FOREGROUND
  6
CONTINUOUS
 10
0.526667
 20
0.058333
  0
VERTEX
  8
FOREGROUND
  6
CONTINUOUS
 10
0.478333
 20
0.060000
  0
VERTEX
  8
FOREGROUND
  6
CONTINUOUS
 10
0.430000
 20
0.068333
  0
VERTEX
  8
FOREGROUND
  6
CONTINUOUS
 10
0.385000
 20
0.080000
  0
VERTEX
  8
FOREGROUND
  6
CONTINUOUS
 10
0.341667
 20
0.095000
  0
VERTEX
  8
FOREGROUND
  6
CONTINUOUS
 10
0.300000
 20
0.115000
  0
VERTEX
  8
FOREGROUND
  6
CONTINUOUS
 10
0.260000
 20
0.140000
  0
VERTEX
  8
FOREGROUND
  6
CONTINUOUS
 10
0.223333
 20
0.166667
  0
VERTEX
  8
FOREGROUND
  6
CONTINUOUS
 10
0.190000
 20
0.198333
  0
VERTEX
  8
FOREGROUND
  6
CONTINUOUS
 10
0.158333
 20
0.231667
  0
VERTEX
  8
FOREGROUND
  6
CONTINUOUS
 10
0.131667
 20
0.268333
  0
VERTEX
  8
FOREGROUND
  6
CONTINUOUS
 10
0.108333
 20
0.308333
  0
VERTEX
  8
FOREGROUND
  6
CONTINUOUS
 10
0.088333
 20
0.350000
  0
VERTEX
  8
FOREGROUND
  6
CONTINUOUS
 10
0.071667
 20
0.393333
  0
VERTEX
  8
FOREGROUND
  6
CONTINUOUS
 10
0.060000
 20
0.438333
  0
VERTEX
  8
FOREGROUND
  6
CONTINUOUS
 10
0.053333
 20
0.486667
  0
VERTEX
  8
FOREGROUND
  6
CONTINUOUS
 10
0.050000
 20
0.535000
  0
VERTEX
  8
FOREGROUND
  6
CONTINUOUS
 10
0.050000
 20
3.523333
  0
VERTEX
  8
FOREGROUND
  6
CONTINUOUS
 10
0.053333
 20
3.571667
  0
VERTEX
  8
FOREGROUND
  6
CONTINUOUS
 10
0.060000
 20
3.620000
  0
VERTEX
  8
FOREGROUND
  6
CONTINUOUS
 10
0.071667
 20
3.665000
  0
VERTEX
  8
FOREGROUND
  6
CONTINUOUS
 10
0.088333
 20
3.708333
  0
VERTEX
  8
FOREGROUND
  6
CONTINUOUS
 10
0.108333
 20
3.750000
  0
VERTEX
  8
FOREGROUND
  6
CONTINUOUS
 10
0.131667
 20
3.790000
  0
VERTEX
  8
FOREGROUND
  6
CONTINUOUS
 10
0.158333
 20
3.826667
  0
VERTEX
  8
FOREGROUND
  6
CONTINUOUS
 10
0.190000
 20
3.860000
  0
VERTEX
  8
FOREGROUND
  6
CONTINUOUS
 10
0.223333
 20
3.891667
  0
VERTEX
  8
FOREGROUND
  6
CONTINUOUS
 10
0.260000
 20
3.918333
  0
VERTEX
  8
FOREGROUND
  6
CONTINUOUS
 10
0.300000
 20
3.941667
  0
VERTEX
  8
FOREGROUND
  6
CONTINUOUS
 10
0.341667
 20
3.961667
  0
VERTEX
  8
FOREGROUND
  6
CONTINUOUS
 10
0.385000
 20
3.978333
  0
VERTEX
  8
FOREGROUND
  6
CONTINUOUS
 10
0.430000
 20
3.990000
  0
VERTEX
  8
FOREGROUND
  6
CONTINUOUS
 10
0.478333
 20
3.996667
  0
SEQEND
  8
0
  0
ENDSEC
  0
EOF
