  0
SECTION
  2
HEADER
  9
$ACADVER
  1
AC1006
  9
$EXTMIN
 10
0.000000
 20
0.000000
  9
$EXTMAX
 10
2.548333
 20
5.703333
  9
$LTSCALE
 40
0.166667
  9
$PDMODE
 70
    35
  9
$PDSIZE
 40
0.133333
  0
ENDSEC
  0
SECTION
  2
TABLES
  0
TABLE
  2
LTYPE
 70
     9
  0
LTYPE
  2
CONTINUOUS
 70
    64
  3
Solid line
 72
    65
 73
     0
 40
0.000000
  0
LTYPE
  2
DASHED
 70
    64
  3
__ __ __ __ __ __ __ __ __ __ __ __ __ __ __
 72
    65
 73
     2
 40
0.001250
 49
0.000833
 49
-0.000417
  0
LTYPE
  2
HIDDEN
 70
    64
  3
 _ _ _ _ _ _ _ _ _ _ _ _ _ _ _ _ _ _ _ _ _ _
 72
    65
 73
     2
 40
0.000625
 49
0.000417
 49
-0.000208
  0
LTYPE
  2
CENTER
 70
    64
  3
____ _ ____ _ ____ _ ____ _ ____ _ ____ _ ____
 72
    65
 73
     4
 40
0.003333
 49
0.002083
 49
-0.000417
 49
0.000417
 49
-0.000417
  0
LTYPE
  2
PHANTOM
 70
    64
  3
_____ _ _ _____ _ _ _____ _ _ _____ _ _ ____
 72
    65
 73
     6
 40
0.004167
 49
0.002083
 49
-0.000417
 49
0.000417
 49
-0.000417
 49
0.000417
 49
-0.000417
  0
LTYPE
  2
DOT
 70
    64
  3
...............................................
 72
    65
 73
     2
 40
0.000417
 49
0.000000
 49
-0.000417
  0
LTYPE
  2
DASHDOT
 70
    64
  3
__ . __ . __ . __ . __ . __ . __ . __ . __ . __
 72
    65
 73
     4
 40
0.001667
 49
0.000833
 49
-0.000417
 49
0.000000
 49
-0.000417
  0
LTYPE
  2
BORDER
 70
    64
  3
__ __ . __ __ . __ __ . __ __ . __ __ . __ __
 72
    65
 73
     6
 40
0.002917
 49
0.000833
 49
-0.000417
 49
0.000833
 49
-0.000417
 49
0.000000
 49
-0.000417
  0
LTYPE
  2
DIVIDE
 70
    64
  3
__ . . __ . . __ . . __ . . __ . . __ . . __
 72
    65
 73
     6
 40
0.002083
 49
0.000833
 49
-0.000417
 49
0.000000
 49
-0.000417
 49
0.000000
 49
-0.000417
  0
LTYPE
  2
DOTDOT
 70
    64
  3
 . .  . .  . .  . .  . .  . . 
 72
    65
 73
     5
 40
0.000917
 49
-0.000417
 49
0.000000
 49
-0.000417
 49
0.000000
 49
-0.000417
  0
ENDTAB
  0
TABLE
  2
STYLE
 70
     2
  0
STYLE
 70
     0
  2
SN0
 40
0.000000
 41
0.001667
 50
0.000000
 71
     0
 42
0.000000
  3
ROMAND
  0
STYLE
 70
    68
  2
SV0
 40
0.000000
 41
0.001667
 50
0.000000
 71
     0
 42
0.000000
  3
ROMAND
  0
ENDTAB
  0
TABLE
  2
LAYER
 70
     2
  0
LAYER
  2
FOREGROUND
 70
    64
 62
     7
  6
CONTINUOUS
  0
LAYER
  2
BACKGROUND
 70
    65
 62
    -7
  6
CONTINUOUS
  0
ENDTAB
  0
ENDSEC
  0
SECTION
  2
ENTITIES
  0
POLYLINE
  8
FOREGROUND
 62
     7
  6
CONTINUOUS
 66
     1
 40
0.000000
 41
0.000000
 70
     1
  0
VERTEX
  8
FOREGROUND
 62
     7
  6
CONTINUOUS
 10
0.516667
 20
5.548333
  0
VERTEX
  8
FOREGROUND
 62
     7
  6
CONTINUOUS
 10
1.918333
 20
5.548333
  0
VERTEX
  8
FOREGROUND
 62
     7
  6
CONTINUOUS
 10
1.966667
 20
5.545000
  0
VERTEX
  8
FOREGROUND
 62
     7
  6
CONTINUOUS
 10
2.013333
 20
5.538333
  0
VERTEX
  8
FOREGROUND
 62
     7
  6
CONTINUOUS
 10
2.056667
 20
5.526667
  0
VERTEX
  8
FOREGROUND
 62
     7
  6
CONTINUOUS
 10
2.100000
 20
5.511667
  0
VERTEX
  8
FOREGROUND
 62
     7
  6
CONTINUOUS
 10
2.141667
 20
5.491667
  0
VERTEX
  8
FOREGROUND
 62
     7
  6
CONTINUOUS
 10
2.180000
 20
5.468333
  0
VERTEX
  8
FOREGROUND
 62
     7
  6
CONTINUOUS
 10
2.215000
 20
5.441667
  0
VERTEX
  8
FOREGROUND
 62
     7
  6
CONTINUOUS
 10
2.248333
 20
5.411667
  0
VERTEX
  8
FOREGROUND
 62
     7
  6
CONTINUOUS
 10
2.278333
 20
5.378333
  0
VERTEX
  8
FOREGROUND
 62
     7
  6
CONTINUOUS
 10
2.305000
 20
5.341667
  0
VERTEX
  8
FOREGROUND
 62
     7
  6
CONTINUOUS
 10
2.328333
 20
5.303333
  0
VERTEX
  8
FOREGROUND
 62
     7
  6
CONTINUOUS
 10
2.348333
 20
5.263333
  0
VERTEX
  8
FOREGROUND
 62
     7
  6
CONTINUOUS
 10
2.365000
 20
5.220000
  0
VERTEX
  8
FOREGROUND
 62
     7
  6
CONTINUOUS
 10
2.375000
 20
5.175000
  0
VERTEX
  8
FOREGROUND
 62
     7
  6
CONTINUOUS
 10
2.383333
 20
5.130000
  0
VERTEX
  8
FOREGROUND
 62
     7
  6
CONTINUOUS
 10
2.385000
 20
5.081667
  0
VERTEX
  8
FOREGROUND
 62
     7
  6
CONTINUOUS
 10
2.385000
 20
0.525000
  0
VERTEX
  8
FOREGROUND
 62
     7
  6
CONTINUOUS
 10
2.383333
 20
0.476667
  0
VERTEX
  8
FOREGROUND
 62
     7
  6
CONTINUOUS
 10
2.375000
 20
0.430000
  0
VERTEX
  8
FOREGROUND
 62
     7
  6
CONTINUOUS
 10
2.365000
 20
0.386667
  0
VERTEX
  8
FOREGROUND
 62
     7
  6
CONTINUOUS
 10
2.348333
 20
0.343333
  0
VERTEX
  8
FOREGROUND
 62
     7
  6
CONTINUOUS
 10
2.328333
 20
0.301667
  0
VERTEX
  8
FOREGROUND
 62
     7
  6
CONTINUOUS
 10
2.305000
 20
0.263333
  0
VERTEX
  8
FOREGROUND
 62
     7
  6
CONTINUOUS
 10
2.278333
 20
0.228333
  0
VERTEX
  8
FOREGROUND
 62
     7
  6
CONTINUOUS
 10
2.248333
 20
0.195000
  0
VERTEX
  8
FOREGROUND
 62
     7
  6
CONTINUOUS
 10
2.215000
 20
0.165000
  0
VERTEX
  8
FOREGROUND
 62
     7
  6
CONTINUOUS
 10
2.180000
 20
0.138333
  0
VERTEX
  8
FOREGROUND
 62
     7
  6
CONTINUOUS
 10
2.141667
 20
0.115000
  0
VERTEX
  8
FOREGROUND
 62
     7
  6
CONTINUOUS
 10
2.100000
 20
0.095000
  0
VERTEX
  8
FOREGROUND
 62
     7
  6
CONTINUOUS
 10
2.056667
 20
0.078333
  0
VERTEX
  8
FOREGROUND
 62
     7
  6
CONTINUOUS
 10
2.013333
 20
0.068333
  0
VERTEX
  8
FOREGROUND
 62
     7
  6
CONTINUOUS
 10
1.966667
 20
0.060000
  0
VERTEX
  8
FOREGROUND
 62
     7
  6
CONTINUOUS
 10
1.918333
 20
0.058333
  0
VERTEX
  8
FOREGROUND
 62
     7
  6
CONTINUOUS
 10
0.516667
 20
0.058333
  0
VERTEX
  8
FOREGROUND
 62
     7
  6
CONTINUOUS
 10
0.468333
 20
0.060000
  0
VERTEX
  8
FOREGROUND
 62
     7
  6
CONTINUOUS
 10
0.423333
 20
0.068333
  0
VERTEX
  8
FOREGROUND
 62
     7
  6
CONTINUOUS
 10
0.378333
 20
0.078333
  0
VERTEX
  8
FOREGROUND
 62
     7
  6
CONTINUOUS
 10
0.335000
 20
0.095000
  0
VERTEX
  8
FOREGROUND
 62
     7
  6
CONTINUOUS
 10
0.295000
 20
0.115000
  0
VERTEX
  8
FOREGROUND
 62
     7
  6
CONTINUOUS
 10
0.256667
 20
0.138333
  0
VERTEX
  8
FOREGROUND
 62
     7
  6
CONTINUOUS
 10
0.220000
 20
0.165000
  0
VERTEX
  8
FOREGROUND
 62
     7
  6
CONTINUOUS
 10
0.186667
 20
0.195000
  0
VERTEX
  8
FOREGROUND
 62
     7
  6
CONTINUOUS
 10
0.156667
 20
0.228333
  0
VERTEX
  8
FOREGROUND
 62
     7
  6
CONTINUOUS
 10
0.130000
 20
0.263333
  0
VERTEX
  8
FOREGROUND
 62
     7
  6
CONTINUOUS
 10
0.106667
 20
0.301667
  0
VERTEX
  8
FOREGROUND
 62
     7
  6
CONTINUOUS
 10
0.086667
 20
0.343333
  0
VERTEX
  8
FOREGROUND
 62
     7
  6
CONTINUOUS
 10
0.071667
 20
0.386667
  0
VERTEX
  8
FOREGROUND
 62
     7
  6
CONTINUOUS
 10
0.060000
 20
0.430000
  0
VERTEX
  8
FOREGROUND
 62
     7
  6
CONTINUOUS
 10
0.053333
 20
0.476667
  0
VERTEX
  8
FOREGROUND
 62
     7
  6
CONTINUOUS
 10
0.050000
 20
0.525000
  0
VERTEX
  8
FOREGROUND
 62
     7
  6
CONTINUOUS
 10
0.050000
 20
5.081667
  0
VERTEX
  8
FOREGROUND
 62
     7
  6
CONTINUOUS
 10
0.053333
 20
5.130000
  0
VERTEX
  8
FOREGROUND
 62
     7
  6
CONTINUOUS
 10
0.060000
 20
5.175000
  0
VERTEX
  8
FOREGROUND
 62
     7
  6
CONTINUOUS
 10
0.071667
 20
5.220000
  0
VERTEX
  8
FOREGROUND
 62
     7
  6
CONTINUOUS
 10
0.086667
 20
5.263333
  0
VERTEX
  8
FOREGROUND
 62
     7
  6
CONTINUOUS
 10
0.106667
 20
5.303333
  0
VERTEX
  8
FOREGROUND
 62
     7
  6
CONTINUOUS
 10
0.130000
 20
5.341667
  0
VERTEX
  8
FOREGROUND
 62
     7
  6
CONTINUOUS
 10
0.156667
 20
5.378333
  0
VERTEX
  8
FOREGROUND
 62
     7
  6
CONTINUOUS
 10
0.186667
 20
5.411667
  0
VERTEX
  8
FOREGROUND
 62
     7
  6
CONTINUOUS
 10
0.220000
 20
5.441667
  0
VERTEX
  8
FOREGROUND
 62
     7
  6
CONTINUOUS
 10
0.256667
 20
5.468333
  0
VERTEX
  8
FOREGROUND
 62
     7
  6
CONTINUOUS
 10
0.295000
 20
5.491667
  0
VERTEX
  8
FOREGROUND
 62
     7
  6
CONTINUOUS
 10
0.335000
 20
5.511667
  0
VERTEX
  8
FOREGROUND
 62
     7
  6
CONTINUOUS
 10
0.378333
 20
5.526667
  0
VERTEX
  8
FOREGROUND
 62
     7
  6
CONTINUOUS
 10
0.423333
 20
5.538333
  0
VERTEX
  8
FOREGROUND
 62
     7
  6
CONTINUOUS
 10
0.468333
 20
5.545000
  0
SEQEND
  8
0
  0
POLYLINE
  8
FOREGROUND
  6
CONTINUOUS
 66
     1
 40
0.010000
 41
0.010000
 70
     1
  0
VERTEX
  8
FOREGROUND
  6
CONTINUOUS
 10
0.516667
 20
5.548333
  0
VERTEX
  8
FOREGROUND
  6
CONTINUOUS
 10
1.918333
 20
5.548333
  0
VERTEX
  8
FOREGROUND
  6
CONTINUOUS
 10
1.966667
 20
5.545000
  0
VERTEX
  8
FOREGROUND
  6
CONTINUOUS
 10
2.013333
 20
5.538333
  0
VERTEX
  8
FOREGROUND
  6
CONTINUOUS
 10
2.056667
 20
5.526667
  0
VERTEX
  8
FOREGROUND
  6
CONTINUOUS
 10
2.100000
 20
5.511667
  0
VERTEX
  8
FOREGROUND
  6
CONTINUOUS
 10
2.141667
 20
5.491667
  0
VERTEX
  8
FOREGROUND
  6
CONTINUOUS
 10
2.180000
 20
5.468333
  0
VERTEX
  8
FOREGROUND
  6
CONTINUOUS
 10
2.215000
 20
5.441667
  0
VERTEX
  8
FOREGROUND
  6
CONTINUOUS
 10
2.248333
 20
5.411667
  0
VERTEX
  8
FOREGROUND
  6
CONTINUOUS
 10
2.278333
 20
5.378333
  0
VERTEX
  8
FOREGROUND
  6
CONTINUOUS
 10
2.305000
 20
5.341667
  0
VERTEX
  8
FOREGROUND
  6
CONTINUOUS
 10
2.328333
 20
5.303333
  0
VERTEX
  8
FOREGROUND
  6
CONTINUOUS
 10
2.348333
 20
5.263333
  0
VERTEX
  8
FOREGROUND
  6
CONTINUOUS
 10
2.365000
 20
5.220000
  0
VERTEX
  8
FOREGROUND
  6
CONTINUOUS
 10
2.375000
 20
5.175000
  0
VERTEX
  8
FOREGROUND
  6
CONTINUOUS
 10
2.383333
 20
5.130000
  0
VERTEX
  8
FOREGROUND
  6
CONTINUOUS
 10
2.385000
 20
5.081667
  0
VERTEX
  8
FOREGROUND
  6
CONTINUOUS
 10
2.385000
 20
0.525000
  0
VERTEX
  8
FOREGROUND
  6
CONTINUOUS
 10
2.383333
 20
0.476667
  0
VERTEX
  8
FOREGROUND
  6
CONTINUOUS
 10
2.375000
 20
0.430000
  0
VERTEX
  8
FOREGROUND
  6
CONTINUOUS
 10
2.365000
 20
0.386667
  0
VERTEX
  8
FOREGROUND
  6
CONTINUOUS
 10
2.348333
 20
0.343333
  0
VERTEX
  8
FOREGROUND
  6
CONTINUOUS
 10
2.328333
 20
0.301667
  0
VERTEX
  8
FOREGROUND
  6
CONTINUOUS
 10
2.305000
 20
0.263333
  0
VERTEX
  8
FOREGROUND
  6
CONTINUOUS
 10
2.278333
 20
0.228333
  0
VERTEX
  8
FOREGROUND
  6
CONTINUOUS
 10
2.248333
 20
0.195000
  0
VERTEX
  8
FOREGROUND
  6
CONTINUOUS
 10
2.215000
 20
0.165000
  0
VERTEX
  8
FOREGROUND
  6
CONTINUOUS
 10
2.180000
 20
0.138333
  0
VERTEX
  8
FOREGROUND
  6
CONTINUOUS
 10
2.141667
 20
0.115000
  0
VERTEX
  8
FOREGROUND
  6
CONTINUOUS
 10
2.100000
 20
0.095000
  0
VERTEX
  8
FOREGROUND
  6
CONTINUOUS
 10
2.056667
 20
0.078333
  0
VERTEX
  8
FOREGROUND
  6
CONTINUOUS
 10
2.013333
 20
0.068333
  0
VERTEX
  8
FOREGROUND
  6
CONTINUOUS
 10
1.966667
 20
0.060000
  0
VERTEX
  8
FOREGROUND
  6
CONTINUOUS
 10
1.918333
 20
0.058333
  0
VERTEX
  8
FOREGROUND
  6
CONTINUOUS
 10
0.516667
 20
0.058333
  0
VERTEX
  8
FOREGROUND
  6
CONTINUOUS
 10
0.468333
 20
0.060000
  0
VERTEX
  8
FOREGROUND
  6
CONTINUOUS
 10
0.423333
 20
0.068333
  0
VERTEX
  8
FOREGROUND
  6
CONTINUOUS
 10
0.378333
 20
0.078333
  0
VERTEX
  8
FOREGROUND
  6
CONTINUOUS
 10
0.335000
 20
0.095000
  0
VERTEX
  8
FOREGROUND
  6
CONTINUOUS
 10
0.295000
 20
0.115000
  0
VERTEX
  8
FOREGROUND
  6
CONTINUOUS
 10
0.256667
 20
0.138333
  0
VERTEX
  8
FOREGROUND
  6
CONTINUOUS
 10
0.220000
 20
0.165000
  0
VERTEX
  8
FOREGROUND
  6
CONTINUOUS
 10
0.186667
 20
0.195000
  0
VERTEX
  8
FOREGROUND
  6
CONTINUOUS
 10
0.156667
 20
0.228333
  0
VERTEX
  8
FOREGROUND
  6
CONTINUOUS
 10
0.130000
 20
0.263333
  0
VERTEX
  8
FOREGROUND
  6
CONTINUOUS
 10
0.106667
 20
0.301667
  0
VERTEX
  8
FOREGROUND
  6
CONTINUOUS
 10
0.086667
 20
0.343333
  0
VERTEX
  8
FOREGROUND
  6
CONTINUOUS
 10
0.071667
 20
0.386667
  0
VERTEX
  8
FOREGROUND
  6
CONTINUOUS
 10
0.060000
 20
0.430000
  0
VERTEX
  8
FOREGROUND
  6
CONTINUOUS
 10
0.053333
 20
0.476667
  0
VERTEX
  8
FOREGROUND
  6
CONTINUOUS
 10
0.050000
 20
0.525000
  0
VERTEX
  8
FOREGROUND
  6
CONTINUOUS
 10
0.050000
 20
5.081667
  0
VERTEX
  8
FOREGROUND
  6
CONTINUOUS
 10
0.053333
 20
5.130000
  0
VERTEX
  8
FOREGROUND
  6
CONTINUOUS
 10
0.060000
 20
5.175000
  0
VERTEX
  8
FOREGROUND
  6
CONTINUOUS
 10
0.071667
 20
5.220000
  0
VERTEX
  8
FOREGROUND
  6
CONTINUOUS
 10
0.086667
 20
5.263333
  0
VERTEX
  8
FOREGROUND
  6
CONTINUOUS
 10
0.106667
 20
5.303333
  0
VERTEX
  8
FOREGROUND
  6
CONTINUOUS
 10
0.130000
 20
5.341667
  0
VERTEX
  8
FOREGROUND
  6
CONTINUOUS
 10
0.156667
 20
5.378333
  0
VERTEX
  8
FOREGROUND
  6
CONTINUOUS
 10
0.186667
 20
5.411667
  0
VERTEX
  8
FOREGROUND
  6
CONTINUOUS
 10
0.220000
 20
5.441667
  0
VERTEX
  8
FOREGROUND
  6
CONTINUOUS
 10
0.256667
 20
5.468333
  0
VERTEX
  8
FOREGROUND
  6
CONTINUOUS
 10
0.295000
 20
5.491667
  0
VERTEX
  8
FOREGROUND
  6
CONTINUOUS
 10
0.335000
 20
5.511667
  0
VERTEX
  8
FOREGROUND
  6
CONTINUOUS
 10
0.378333
 20
5.526667
  0
VERTEX
  8
FOREGROUND
  6
CONTINUOUS
 10
0.423333
 20
5.538333
  0
VERTEX
  8
FOREGROUND
  6
CONTINUOUS
 10
0.468333
 20
5.545000
  0
SEQEND
  8
0
  0
ENDSEC
  0
EOF
