  0
SECTION
  2
HEADER
  9
$ACADVER
  1
AC1006
  9
$EXTMIN
 10
0.000000
 20
0.000000
  9
$EXTMAX
 10
2.580000
 20
7.301667
  9
$LTSCALE
 40
0.166667
  9
$PDMODE
 70
    35
  9
$PDSIZE
 40
0.133333
  0
ENDSEC
  0
SECTION
  2
TABLES
  0
TABLE
  2
LTYPE
 70
     9
  0
LTYPE
  2
CONTINUOUS
 70
    64
  3
Solid line
 72
    65
 73
     0
 40
0.000000
  0
LTYPE
  2
DASHED
 70
    64
  3
__ __ __ __ __ __ __ __ __ __ __ __ __ __ __
 72
    65
 73
     2
 40
0.001250
 49
0.000833
 49
-0.000417
  0
LTYPE
  2
HIDDEN
 70
    64
  3
 _ _ _ _ _ _ _ _ _ _ _ _ _ _ _ _ _ _ _ _ _ _
 72
    65
 73
     2
 40
0.000625
 49
0.000417
 49
-0.000208
  0
LTYPE
  2
CENTER
 70
    64
  3
____ _ ____ _ ____ _ ____ _ ____ _ ____ _ ____
 72
    65
 73
     4
 40
0.003333
 49
0.002083
 49
-0.000417
 49
0.000417
 49
-0.000417
  0
LTYPE
  2
PHANTOM
 70
    64
  3
_____ _ _ _____ _ _ _____ _ _ _____ _ _ ____
 72
    65
 73
     6
 40
0.004167
 49
0.002083
 49
-0.000417
 49
0.000417
 49
-0.000417
 49
0.000417
 49
-0.000417
  0
LTYPE
  2
DOT
 70
    64
  3
...............................................
 72
    65
 73
     2
 40
0.000417
 49
0.000000
 49
-0.000417
  0
LTYPE
  2
DASHDOT
 70
    64
  3
__ . __ . __ . __ . __ . __ . __ . __ . __ . __
 72
    65
 73
     4
 40
0.001667
 49
0.000833
 49
-0.000417
 49
0.000000
 49
-0.000417
  0
LTYPE
  2
BORDER
 70
    64
  3
__ __ . __ __ . __ __ . __ __ . __ __ . __ __
 72
    65
 73
     6
 40
0.002917
 49
0.000833
 49
-0.000417
 49
0.000833
 49
-0.000417
 49
0.000000
 49
-0.000417
  0
LTYPE
  2
DIVIDE
 70
    64
  3
__ . . __ . . __ . . __ . . __ . . __ . . __
 72
    65
 73
     6
 40
0.002083
 49
0.000833
 49
-0.000417
 49
0.000000
 49
-0.000417
 49
0.000000
 49
-0.000417
  0
LTYPE
  2
DOTDOT
 70
    64
  3
 . .  . .  . .  . .  . .  . . 
 72
    65
 73
     5
 40
0.000917
 49
-0.000417
 49
0.000000
 49
-0.000417
 49
0.000000
 49
-0.000417
  0
ENDTAB
  0
TABLE
  2
STYLE
 70
     2
  0
STYLE
 70
     0
  2
SN0
 40
0.000000
 41
0.001667
 50
0.000000
 71
     0
 42
0.000000
  3
ROMAND
  0
STYLE
 70
    68
  2
SV0
 40
0.000000
 41
0.001667
 50
0.000000
 71
     0
 42
0.000000
  3
ROMAND
  0
ENDTAB
  0
TABLE
  2
LAYER
 70
     2
  0
LAYER
  2
FOREGROUND
 70
    64
 62
     7
  6
CONTINUOUS
  0
LAYER
  2
BACKGROUND
 70
    65
 62
    -7
  6
CONTINUOUS
  0
ENDTAB
  0
ENDSEC
  0
SECTION
  2
ENTITIES
  0
POLYLINE
  8
FOREGROUND
 62
     7
  6
CONTINUOUS
 66
     1
 40
0.000000
 41
0.000000
 70
     1
  0
VERTEX
  8
FOREGROUND
 62
     7
  6
CONTINUOUS
 10
0.521667
 20
7.146667
  0
VERTEX
  8
FOREGROUND
 62
     7
  6
CONTINUOUS
 10
1.945000
 20
7.146667
  0
VERTEX
  8
FOREGROUND
 62
     7
  6
CONTINUOUS
 10
1.993333
 20
7.143333
  0
VERTEX
  8
FOREGROUND
 62
     7
  6
CONTINUOUS
 10
2.040000
 20
7.136667
  0
VERTEX
  8
FOREGROUND
 62
     7
  6
CONTINUOUS
 10
2.085000
 20
7.125000
  0
VERTEX
  8
FOREGROUND
 62
     7
  6
CONTINUOUS
 10
2.128333
 20
7.110000
  0
VERTEX
  8
FOREGROUND
 62
     7
  6
CONTINUOUS
 10
2.170000
 20
7.090000
  0
VERTEX
  8
FOREGROUND
 62
     7
  6
CONTINUOUS
 10
2.208333
 20
7.065000
  0
VERTEX
  8
FOREGROUND
 62
     7
  6
CONTINUOUS
 10
2.245000
 20
7.038333
  0
VERTEX
  8
FOREGROUND
 62
     7
  6
CONTINUOUS
 10
2.278333
 20
7.008333
  0
VERTEX
  8
FOREGROUND
 62
     7
  6
CONTINUOUS
 10
2.310000
 20
6.975000
  0
VERTEX
  8
FOREGROUND
 62
     7
  6
CONTINUOUS
 10
2.336667
 20
6.938333
  0
VERTEX
  8
FOREGROUND
 62
     7
  6
CONTINUOUS
 10
2.360000
 20
6.900000
  0
VERTEX
  8
FOREGROUND
 62
     7
  6
CONTINUOUS
 10
2.380000
 20
6.858333
  0
VERTEX
  8
FOREGROUND
 62
     7
  6
CONTINUOUS
 10
2.395000
 20
6.815000
  0
VERTEX
  8
FOREGROUND
 62
     7
  6
CONTINUOUS
 10
2.406667
 20
6.770000
  0
VERTEX
  8
FOREGROUND
 62
     7
  6
CONTINUOUS
 10
2.415000
 20
6.723333
  0
VERTEX
  8
FOREGROUND
 62
     7
  6
CONTINUOUS
 10
2.416667
 20
6.675000
  0
VERTEX
  8
FOREGROUND
 62
     7
  6
CONTINUOUS
 10
2.416667
 20
0.530000
  0
VERTEX
  8
FOREGROUND
 62
     7
  6
CONTINUOUS
 10
2.415000
 20
0.481667
  0
VERTEX
  8
FOREGROUND
 62
     7
  6
CONTINUOUS
 10
2.406667
 20
0.435000
  0
VERTEX
  8
FOREGROUND
 62
     7
  6
CONTINUOUS
 10
2.395000
 20
0.390000
  0
VERTEX
  8
FOREGROUND
 62
     7
  6
CONTINUOUS
 10
2.380000
 20
0.346667
  0
VERTEX
  8
FOREGROUND
 62
     7
  6
CONTINUOUS
 10
2.360000
 20
0.305000
  0
VERTEX
  8
FOREGROUND
 62
     7
  6
CONTINUOUS
 10
2.336667
 20
0.266667
  0
VERTEX
  8
FOREGROUND
 62
     7
  6
CONTINUOUS
 10
2.310000
 20
0.230000
  0
VERTEX
  8
FOREGROUND
 62
     7
  6
CONTINUOUS
 10
2.278333
 20
0.196667
  0
VERTEX
  8
FOREGROUND
 62
     7
  6
CONTINUOUS
 10
2.245000
 20
0.165000
  0
VERTEX
  8
FOREGROUND
 62
     7
  6
CONTINUOUS
 10
2.208333
 20
0.138333
  0
VERTEX
  8
FOREGROUND
 62
     7
  6
CONTINUOUS
 10
2.170000
 20
0.115000
  0
VERTEX
  8
FOREGROUND
 62
     7
  6
CONTINUOUS
 10
2.128333
 20
0.095000
  0
VERTEX
  8
FOREGROUND
 62
     7
  6
CONTINUOUS
 10
2.085000
 20
0.080000
  0
VERTEX
  8
FOREGROUND
 62
     7
  6
CONTINUOUS
 10
2.040000
 20
0.068333
  0
VERTEX
  8
FOREGROUND
 62
     7
  6
CONTINUOUS
 10
1.993333
 20
0.060000
  0
VERTEX
  8
FOREGROUND
 62
     7
  6
CONTINUOUS
 10
1.945000
 20
0.058333
  0
VERTEX
  8
FOREGROUND
 62
     7
  6
CONTINUOUS
 10
0.521667
 20
0.058333
  0
VERTEX
  8
FOREGROUND
 62
     7
  6
CONTINUOUS
 10
0.473333
 20
0.060000
  0
VERTEX
  8
FOREGROUND
 62
     7
  6
CONTINUOUS
 10
0.426667
 20
0.068333
  0
VERTEX
  8
FOREGROUND
 62
     7
  6
CONTINUOUS
 10
0.381667
 20
0.080000
  0
VERTEX
  8
FOREGROUND
 62
     7
  6
CONTINUOUS
 10
0.338333
 20
0.095000
  0
VERTEX
  8
FOREGROUND
 62
     7
  6
CONTINUOUS
 10
0.296667
 20
0.115000
  0
VERTEX
  8
FOREGROUND
 62
     7
  6
CONTINUOUS
 10
0.258333
 20
0.138333
  0
VERTEX
  8
FOREGROUND
 62
     7
  6
CONTINUOUS
 10
0.221667
 20
0.165000
  0
VERTEX
  8
FOREGROUND
 62
     7
  6
CONTINUOUS
 10
0.188333
 20
0.196667
  0
VERTEX
  8
FOREGROUND
 62
     7
  6
CONTINUOUS
 10
0.158333
 20
0.230000
  0
VERTEX
  8
FOREGROUND
 62
     7
  6
CONTINUOUS
 10
0.131667
 20
0.266667
  0
VERTEX
  8
FOREGROUND
 62
     7
  6
CONTINUOUS
 10
0.106667
 20
0.305000
  0
VERTEX
  8
FOREGROUND
 62
     7
  6
CONTINUOUS
 10
0.086667
 20
0.346667
  0
VERTEX
  8
FOREGROUND
 62
     7
  6
CONTINUOUS
 10
0.071667
 20
0.390000
  0
VERTEX
  8
FOREGROUND
 62
     7
  6
CONTINUOUS
 10
0.060000
 20
0.435000
  0
VERTEX
  8
FOREGROUND
 62
     7
  6
CONTINUOUS
 10
0.053333
 20
0.481667
  0
VERTEX
  8
FOREGROUND
 62
     7
  6
CONTINUOUS
 10
0.050000
 20
0.530000
  0
VERTEX
  8
FOREGROUND
 62
     7
  6
CONTINUOUS
 10
0.050000
 20
6.675000
  0
VERTEX
  8
FOREGROUND
 62
     7
  6
CONTINUOUS
 10
0.053333
 20
6.723333
  0
VERTEX
  8
FOREGROUND
 62
     7
  6
CONTINUOUS
 10
0.060000
 20
6.770000
  0
VERTEX
  8
FOREGROUND
 62
     7
  6
CONTINUOUS
 10
0.071667
 20
6.815000
  0
VERTEX
  8
FOREGROUND
 62
     7
  6
CONTINUOUS
 10
0.086667
 20
6.858333
  0
VERTEX
  8
FOREGROUND
 62
     7
  6
CONTINUOUS
 10
0.106667
 20
6.900000
  0
VERTEX
  8
FOREGROUND
 62
     7
  6
CONTINUOUS
 10
0.131667
 20
6.938333
  0
VERTEX
  8
FOREGROUND
 62
     7
  6
CONTINUOUS
 10
0.158333
 20
6.975000
  0
VERTEX
  8
FOREGROUND
 62
     7
  6
CONTINUOUS
 10
0.188333
 20
7.008333
  0
VERTEX
  8
FOREGROUND
 62
     7
  6
CONTINUOUS
 10
0.221667
 20
7.038333
  0
VERTEX
  8
FOREGROUND
 62
     7
  6
CONTINUOUS
 10
0.258333
 20
7.065000
  0
VERTEX
  8
FOREGROUND
 62
     7
  6
CONTINUOUS
 10
0.296667
 20
7.090000
  0
VERTEX
  8
FOREGROUND
 62
     7
  6
CONTINUOUS
 10
0.338333
 20
7.110000
  0
VERTEX
  8
FOREGROUND
 62
     7
  6
CONTINUOUS
 10
0.381667
 20
7.125000
  0
VERTEX
  8
FOREGROUND
 62
     7
  6
CONTINUOUS
 10
0.426667
 20
7.136667
  0
VERTEX
  8
FOREGROUND
 62
     7
  6
CONTINUOUS
 10
0.473333
 20
7.143333
  0
SEQEND
  8
0
  0
POLYLINE
  8
FOREGROUND
  6
CONTINUOUS
 66
     1
 40
0.010000
 41
0.010000
 70
     1
  0
VERTEX
  8
FOREGROUND
  6
CONTINUOUS
 10
0.521667
 20
7.146667
  0
VERTEX
  8
FOREGROUND
  6
CONTINUOUS
 10
1.945000
 20
7.146667
  0
VERTEX
  8
FOREGROUND
  6
CONTINUOUS
 10
1.993333
 20
7.143333
  0
VERTEX
  8
FOREGROUND
  6
CONTINUOUS
 10
2.040000
 20
7.136667
  0
VERTEX
  8
FOREGROUND
  6
CONTINUOUS
 10
2.085000
 20
7.125000
  0
VERTEX
  8
FOREGROUND
  6
CONTINUOUS
 10
2.128333
 20
7.110000
  0
VERTEX
  8
FOREGROUND
  6
CONTINUOUS
 10
2.170000
 20
7.090000
  0
VERTEX
  8
FOREGROUND
  6
CONTINUOUS
 10
2.208333
 20
7.065000
  0
VERTEX
  8
FOREGROUND
  6
CONTINUOUS
 10
2.245000
 20
7.038333
  0
VERTEX
  8
FOREGROUND
  6
CONTINUOUS
 10
2.278333
 20
7.008333
  0
VERTEX
  8
FOREGROUND
  6
CONTINUOUS
 10
2.310000
 20
6.975000
  0
VERTEX
  8
FOREGROUND
  6
CONTINUOUS
 10
2.336667
 20
6.938333
  0
VERTEX
  8
FOREGROUND
  6
CONTINUOUS
 10
2.360000
 20
6.900000
  0
VERTEX
  8
FOREGROUND
  6
CONTINUOUS
 10
2.380000
 20
6.858333
  0
VERTEX
  8
FOREGROUND
  6
CONTINUOUS
 10
2.395000
 20
6.815000
  0
VERTEX
  8
FOREGROUND
  6
CONTINUOUS
 10
2.406667
 20
6.770000
  0
VERTEX
  8
FOREGROUND
  6
CONTINUOUS
 10
2.415000
 20
6.723333
  0
VERTEX
  8
FOREGROUND
  6
CONTINUOUS
 10
2.416667
 20
6.675000
  0
VERTEX
  8
FOREGROUND
  6
CONTINUOUS
 10
2.416667
 20
0.530000
  0
VERTEX
  8
FOREGROUND
  6
CONTINUOUS
 10
2.415000
 20
0.481667
  0
VERTEX
  8
FOREGROUND
  6
CONTINUOUS
 10
2.406667
 20
0.435000
  0
VERTEX
  8
FOREGROUND
  6
CONTINUOUS
 10
2.395000
 20
0.390000
  0
VERTEX
  8
FOREGROUND
  6
CONTINUOUS
 10
2.380000
 20
0.346667
  0
VERTEX
  8
FOREGROUND
  6
CONTINUOUS
 10
2.360000
 20
0.305000
  0
VERTEX
  8
FOREGROUND
  6
CONTINUOUS
 10
2.336667
 20
0.266667
  0
VERTEX
  8
FOREGROUND
  6
CONTINUOUS
 10
2.310000
 20
0.230000
  0
VERTEX
  8
FOREGROUND
  6
CONTINUOUS
 10
2.278333
 20
0.196667
  0
VERTEX
  8
FOREGROUND
  6
CONTINUOUS
 10
2.245000
 20
0.165000
  0
VERTEX
  8
FOREGROUND
  6
CONTINUOUS
 10
2.208333
 20
0.138333
  0
VERTEX
  8
FOREGROUND
  6
CONTINUOUS
 10
2.170000
 20
0.115000
  0
VERTEX
  8
FOREGROUND
  6
CONTINUOUS
 10
2.128333
 20
0.095000
  0
VERTEX
  8
FOREGROUND
  6
CONTINUOUS
 10
2.085000
 20
0.080000
  0
VERTEX
  8
FOREGROUND
  6
CONTINUOUS
 10
2.040000
 20
0.068333
  0
VERTEX
  8
FOREGROUND
  6
CONTINUOUS
 10
1.993333
 20
0.060000
  0
VERTEX
  8
FOREGROUND
  6
CONTINUOUS
 10
1.945000
 20
0.058333
  0
VERTEX
  8
FOREGROUND
  6
CONTINUOUS
 10
0.521667
 20
0.058333
  0
VERTEX
  8
FOREGROUND
  6
CONTINUOUS
 10
0.473333
 20
0.060000
  0
VERTEX
  8
FOREGROUND
  6
CONTINUOUS
 10
0.426667
 20
0.068333
  0
VERTEX
  8
FOREGROUND
  6
CONTINUOUS
 10
0.381667
 20
0.080000
  0
VERTEX
  8
FOREGROUND
  6
CONTINUOUS
 10
0.338333
 20
0.095000
  0
VERTEX
  8
FOREGROUND
  6
CONTINUOUS
 10
0.296667
 20
0.115000
  0
VERTEX
  8
FOREGROUND
  6
CONTINUOUS
 10
0.258333
 20
0.138333
  0
VERTEX
  8
FOREGROUND
  6
CONTINUOUS
 10
0.221667
 20
0.165000
  0
VERTEX
  8
FOREGROUND
  6
CONTINUOUS
 10
0.188333
 20
0.196667
  0
VERTEX
  8
FOREGROUND
  6
CONTINUOUS
 10
0.158333
 20
0.230000
  0
VERTEX
  8
FOREGROUND
  6
CONTINUOUS
 10
0.131667
 20
0.266667
  0
VERTEX
  8
FOREGROUND
  6
CONTINUOUS
 10
0.106667
 20
0.305000
  0
VERTEX
  8
FOREGROUND
  6
CONTINUOUS
 10
0.086667
 20
0.346667
  0
VERTEX
  8
FOREGROUND
  6
CONTINUOUS
 10
0.071667
 20
0.390000
  0
VERTEX
  8
FOREGROUND
  6
CONTINUOUS
 10
0.060000
 20
0.435000
  0
VERTEX
  8
FOREGROUND
  6
CONTINUOUS
 10
0.053333
 20
0.481667
  0
VERTEX
  8
FOREGROUND
  6
CONTINUOUS
 10
0.050000
 20
0.530000
  0
VERTEX
  8
FOREGROUND
  6
CONTINUOUS
 10
0.050000
 20
6.675000
  0
VERTEX
  8
FOREGROUND
  6
CONTINUOUS
 10
0.053333
 20
6.723333
  0
VERTEX
  8
FOREGROUND
  6
CONTINUOUS
 10
0.060000
 20
6.770000
  0
VERTEX
  8
FOREGROUND
  6
CONTINUOUS
 10
0.071667
 20
6.815000
  0
VERTEX
  8
FOREGROUND
  6
CONTINUOUS
 10
0.086667
 20
6.858333
  0
VERTEX
  8
FOREGROUND
  6
CONTINUOUS
 10
0.106667
 20
6.900000
  0
VERTEX
  8
FOREGROUND
  6
CONTINUOUS
 10
0.131667
 20
6.938333
  0
VERTEX
  8
FOREGROUND
  6
CONTINUOUS
 10
0.158333
 20
6.975000
  0
VERTEX
  8
FOREGROUND
  6
CONTINUOUS
 10
0.188333
 20
7.008333
  0
VERTEX
  8
FOREGROUND
  6
CONTINUOUS
 10
0.221667
 20
7.038333
  0
VERTEX
  8
FOREGROUND
  6
CONTINUOUS
 10
0.258333
 20
7.065000
  0
VERTEX
  8
FOREGROUND
  6
CONTINUOUS
 10
0.296667
 20
7.090000
  0
VERTEX
  8
FOREGROUND
  6
CONTINUOUS
 10
0.338333
 20
7.110000
  0
VERTEX
  8
FOREGROUND
  6
CONTINUOUS
 10
0.381667
 20
7.125000
  0
VERTEX
  8
FOREGROUND
  6
CONTINUOUS
 10
0.426667
 20
7.136667
  0
VERTEX
  8
FOREGROUND
  6
CONTINUOUS
 10
0.473333
 20
7.143333
  0
SEQEND
  8
0
  0
ENDSEC
  0
EOF
