  0
SECTION
  2
HEADER
  9
$ACADVER
  1
AC1006
  9
$EXTMIN
 10
0.000000
 20
0.000000
  9
$EXTMAX
 10
2.581667
 20
1.981667
  9
$LTSCALE
 40
0.166667
  9
$PDMODE
 70
    35
  9
$PDSIZE
 40
0.133333
  0
ENDSEC
  0
SECTION
  2
TABLES
  0
TABLE
  2
LTYPE
 70
     9
  0
LTYPE
  2
CONTINUOUS
 70
    64
  3
Solid line
 72
    65
 73
     0
 40
0.000000
  0
LTYPE
  2
DASHED
 70
    64
  3
__ __ __ __ __ __ __ __ __ __ __ __ __ __ __
 72
    65
 73
     2
 40
0.001250
 49
0.000833
 49
-0.000417
  0
LTYPE
  2
HIDDEN
 70
    64
  3
 _ _ _ _ _ _ _ _ _ _ _ _ _ _ _ _ _ _ _ _ _ _
 72
    65
 73
     2
 40
0.000625
 49
0.000417
 49
-0.000208
  0
LTYPE
  2
CENTER
 70
    64
  3
____ _ ____ _ ____ _ ____ _ ____ _ ____ _ ____
 72
    65
 73
     4
 40
0.003333
 49
0.002083
 49
-0.000417
 49
0.000417
 49
-0.000417
  0
LTYPE
  2
PHANTOM
 70
    64
  3
_____ _ _ _____ _ _ _____ _ _ _____ _ _ ____
 72
    65
 73
     6
 40
0.004167
 49
0.002083
 49
-0.000417
 49
0.000417
 49
-0.000417
 49
0.000417
 49
-0.000417
  0
LTYPE
  2
DOT
 70
    64
  3
...............................................
 72
    65
 73
     2
 40
0.000417
 49
0.000000
 49
-0.000417
  0
LTYPE
  2
DASHDOT
 70
    64
  3
__ . __ . __ . __ . __ . __ . __ . __ . __ . __
 72
    65
 73
     4
 40
0.001667
 49
0.000833
 49
-0.000417
 49
0.000000
 49
-0.000417
  0
LTYPE
  2
BORDER
 70
    64
  3
__ __ . __ __ . __ __ . __ __ . __ __ . __ __
 72
    65
 73
     6
 40
0.002917
 49
0.000833
 49
-0.000417
 49
0.000833
 49
-0.000417
 49
0.000000
 49
-0.000417
  0
LTYPE
  2
DIVIDE
 70
    64
  3
__ . . __ . . __ . . __ . . __ . . __ . . __
 72
    65
 73
     6
 40
0.002083
 49
0.000833
 49
-0.000417
 49
0.000000
 49
-0.000417
 49
0.000000
 49
-0.000417
  0
LTYPE
  2
DOTDOT
 70
    64
  3
 . .  . .  . .  . .  . .  . . 
 72
    65
 73
     5
 40
0.000917
 49
-0.000417
 49
0.000000
 49
-0.000417
 49
0.000000
 49
-0.000417
  0
ENDTAB
  0
TABLE
  2
STYLE
 70
     2
  0
STYLE
 70
     0
  2
SN0
 40
0.000000
 41
0.001667
 50
0.000000
 71
     0
 42
0.000000
  3
ROMAND
  0
STYLE
 70
    68
  2
SV0
 40
0.000000
 41
0.001667
 50
0.000000
 71
     0
 42
0.000000
  3
ROMAND
  0
ENDTAB
  0
TABLE
  2
LAYER
 70
     2
  0
LAYER
  2
FOREGROUND
 70
    64
 62
     7
  6
CONTINUOUS
  0
LAYER
  2
BACKGROUND
 70
    65
 62
    -7
  6
CONTINUOUS
  0
ENDTAB
  0
ENDSEC
  0
SECTION
  2
ENTITIES
  0
POLYLINE
  8
FOREGROUND
 62
     7
  6
CONTINUOUS
 66
     1
 40
0.000000
 41
0.000000
 70
     1
  0
VERTEX
  8
FOREGROUND
 62
     7
  6
CONTINUOUS
 10
0.403333
 20
1.826667
  0
VERTEX
  8
FOREGROUND
 62
     7
  6
CONTINUOUS
 10
2.063333
 20
1.826667
  0
VERTEX
  8
FOREGROUND
 62
     7
  6
CONTINUOUS
 10
2.100000
 20
1.825000
  0
VERTEX
  8
FOREGROUND
 62
     7
  6
CONTINUOUS
 10
2.135000
 20
1.820000
  0
VERTEX
  8
FOREGROUND
 62
     7
  6
CONTINUOUS
 10
2.168333
 20
1.810000
  0
VERTEX
  8
FOREGROUND
 62
     7
  6
CONTINUOUS
 10
2.201667
 20
1.798333
  0
VERTEX
  8
FOREGROUND
 62
     7
  6
CONTINUOUS
 10
2.231667
 20
1.783333
  0
VERTEX
  8
FOREGROUND
 62
     7
  6
CONTINUOUS
 10
2.261667
 20
1.766667
  0
VERTEX
  8
FOREGROUND
 62
     7
  6
CONTINUOUS
 10
2.288333
 20
1.746667
  0
VERTEX
  8
FOREGROUND
 62
     7
  6
CONTINUOUS
 10
2.313333
 20
1.723333
  0
VERTEX
  8
FOREGROUND
 62
     7
  6
CONTINUOUS
 10
2.336667
 20
1.698333
  0
VERTEX
  8
FOREGROUND
 62
     7
  6
CONTINUOUS
 10
2.356667
 20
1.670000
  0
VERTEX
  8
FOREGROUND
 62
     7
  6
CONTINUOUS
 10
2.373333
 20
1.641667
  0
VERTEX
  8
FOREGROUND
 62
     7
  6
CONTINUOUS
 10
2.388333
 20
1.610000
  0
VERTEX
  8
FOREGROUND
 62
     7
  6
CONTINUOUS
 10
2.401667
 20
1.578333
  0
VERTEX
  8
FOREGROUND
 62
     7
  6
CONTINUOUS
 10
2.410000
 20
1.545000
  0
VERTEX
  8
FOREGROUND
 62
     7
  6
CONTINUOUS
 10
2.415000
 20
1.510000
  0
VERTEX
  8
FOREGROUND
 62
     7
  6
CONTINUOUS
 10
2.416667
 20
1.473333
  0
VERTEX
  8
FOREGROUND
 62
     7
  6
CONTINUOUS
 10
2.416667
 20
0.411667
  0
VERTEX
  8
FOREGROUND
 62
     7
  6
CONTINUOUS
 10
2.415000
 20
0.375000
  0
VERTEX
  8
FOREGROUND
 62
     7
  6
CONTINUOUS
 10
2.410000
 20
0.340000
  0
VERTEX
  8
FOREGROUND
 62
     7
  6
CONTINUOUS
 10
2.401667
 20
0.306667
  0
VERTEX
  8
FOREGROUND
 62
     7
  6
CONTINUOUS
 10
2.388333
 20
0.273333
  0
VERTEX
  8
FOREGROUND
 62
     7
  6
CONTINUOUS
 10
2.373333
 20
0.243333
  0
VERTEX
  8
FOREGROUND
 62
     7
  6
CONTINUOUS
 10
2.356667
 20
0.213333
  0
VERTEX
  8
FOREGROUND
 62
     7
  6
CONTINUOUS
 10
2.336667
 20
0.186667
  0
VERTEX
  8
FOREGROUND
 62
     7
  6
CONTINUOUS
 10
2.313333
 20
0.161667
  0
VERTEX
  8
FOREGROUND
 62
     7
  6
CONTINUOUS
 10
2.288333
 20
0.138333
  0
VERTEX
  8
FOREGROUND
 62
     7
  6
CONTINUOUS
 10
2.261667
 20
0.118333
  0
VERTEX
  8
FOREGROUND
 62
     7
  6
CONTINUOUS
 10
2.231667
 20
0.101667
  0
VERTEX
  8
FOREGROUND
 62
     7
  6
CONTINUOUS
 10
2.201667
 20
0.086667
  0
VERTEX
  8
FOREGROUND
 62
     7
  6
CONTINUOUS
 10
2.168333
 20
0.073333
  0
VERTEX
  8
FOREGROUND
 62
     7
  6
CONTINUOUS
 10
2.135000
 20
0.065000
  0
VERTEX
  8
FOREGROUND
 62
     7
  6
CONTINUOUS
 10
2.100000
 20
0.060000
  0
VERTEX
  8
FOREGROUND
 62
     7
  6
CONTINUOUS
 10
2.063333
 20
0.058333
  0
VERTEX
  8
FOREGROUND
 62
     7
  6
CONTINUOUS
 10
0.403333
 20
0.058333
  0
VERTEX
  8
FOREGROUND
 62
     7
  6
CONTINUOUS
 10
0.366667
 20
0.060000
  0
VERTEX
  8
FOREGROUND
 62
     7
  6
CONTINUOUS
 10
0.331667
 20
0.065000
  0
VERTEX
  8
FOREGROUND
 62
     7
  6
CONTINUOUS
 10
0.298333
 20
0.073333
  0
VERTEX
  8
FOREGROUND
 62
     7
  6
CONTINUOUS
 10
0.266667
 20
0.086667
  0
VERTEX
  8
FOREGROUND
 62
     7
  6
CONTINUOUS
 10
0.235000
 20
0.101667
  0
VERTEX
  8
FOREGROUND
 62
     7
  6
CONTINUOUS
 10
0.206667
 20
0.118333
  0
VERTEX
  8
FOREGROUND
 62
     7
  6
CONTINUOUS
 10
0.178333
 20
0.138333
  0
VERTEX
  8
FOREGROUND
 62
     7
  6
CONTINUOUS
 10
0.153333
 20
0.161667
  0
VERTEX
  8
FOREGROUND
 62
     7
  6
CONTINUOUS
 10
0.130000
 20
0.186667
  0
VERTEX
  8
FOREGROUND
 62
     7
  6
CONTINUOUS
 10
0.110000
 20
0.213333
  0
VERTEX
  8
FOREGROUND
 62
     7
  6
CONTINUOUS
 10
0.093333
 20
0.243333
  0
VERTEX
  8
FOREGROUND
 62
     7
  6
CONTINUOUS
 10
0.078333
 20
0.273333
  0
VERTEX
  8
FOREGROUND
 62
     7
  6
CONTINUOUS
 10
0.066667
 20
0.306667
  0
VERTEX
  8
FOREGROUND
 62
     7
  6
CONTINUOUS
 10
0.056667
 20
0.340000
  0
VERTEX
  8
FOREGROUND
 62
     7
  6
CONTINUOUS
 10
0.051667
 20
0.375000
  0
VERTEX
  8
FOREGROUND
 62
     7
  6
CONTINUOUS
 10
0.050000
 20
0.411667
  0
VERTEX
  8
FOREGROUND
 62
     7
  6
CONTINUOUS
 10
0.050000
 20
1.473333
  0
VERTEX
  8
FOREGROUND
 62
     7
  6
CONTINUOUS
 10
0.051667
 20
1.510000
  0
VERTEX
  8
FOREGROUND
 62
     7
  6
CONTINUOUS
 10
0.056667
 20
1.545000
  0
VERTEX
  8
FOREGROUND
 62
     7
  6
CONTINUOUS
 10
0.066667
 20
1.578333
  0
VERTEX
  8
FOREGROUND
 62
     7
  6
CONTINUOUS
 10
0.078333
 20
1.610000
  0
VERTEX
  8
FOREGROUND
 62
     7
  6
CONTINUOUS
 10
0.093333
 20
1.641667
  0
VERTEX
  8
FOREGROUND
 62
     7
  6
CONTINUOUS
 10
0.110000
 20
1.670000
  0
VERTEX
  8
FOREGROUND
 62
     7
  6
CONTINUOUS
 10
0.130000
 20
1.698333
  0
VERTEX
  8
FOREGROUND
 62
     7
  6
CONTINUOUS
 10
0.153333
 20
1.723333
  0
VERTEX
  8
FOREGROUND
 62
     7
  6
CONTINUOUS
 10
0.178333
 20
1.746667
  0
VERTEX
  8
FOREGROUND
 62
     7
  6
CONTINUOUS
 10
0.206667
 20
1.766667
  0
VERTEX
  8
FOREGROUND
 62
     7
  6
CONTINUOUS
 10
0.235000
 20
1.783333
  0
VERTEX
  8
FOREGROUND
 62
     7
  6
CONTINUOUS
 10
0.266667
 20
1.798333
  0
VERTEX
  8
FOREGROUND
 62
     7
  6
CONTINUOUS
 10
0.298333
 20
1.810000
  0
VERTEX
  8
FOREGROUND
 62
     7
  6
CONTINUOUS
 10
0.331667
 20
1.820000
  0
VERTEX
  8
FOREGROUND
 62
     7
  6
CONTINUOUS
 10
0.366667
 20
1.825000
  0
SEQEND
  8
0
  0
POLYLINE
  8
FOREGROUND
  6
CONTINUOUS
 66
     1
 40
0.010000
 41
0.010000
 70
     1
  0
VERTEX
  8
FOREGROUND
  6
CONTINUOUS
 10
0.403333
 20
1.826667
  0
VERTEX
  8
FOREGROUND
  6
CONTINUOUS
 10
2.063333
 20
1.826667
  0
VERTEX
  8
FOREGROUND
  6
CONTINUOUS
 10
2.100000
 20
1.825000
  0
VERTEX
  8
FOREGROUND
  6
CONTINUOUS
 10
2.135000
 20
1.820000
  0
VERTEX
  8
FOREGROUND
  6
CONTINUOUS
 10
2.168333
 20
1.810000
  0
VERTEX
  8
FOREGROUND
  6
CONTINUOUS
 10
2.201667
 20
1.798333
  0
VERTEX
  8
FOREGROUND
  6
CONTINUOUS
 10
2.231667
 20
1.783333
  0
VERTEX
  8
FOREGROUND
  6
CONTINUOUS
 10
2.261667
 20
1.766667
  0
VERTEX
  8
FOREGROUND
  6
CONTINUOUS
 10
2.288333
 20
1.746667
  0
VERTEX
  8
FOREGROUND
  6
CONTINUOUS
 10
2.313333
 20
1.723333
  0
VERTEX
  8
FOREGROUND
  6
CONTINUOUS
 10
2.336667
 20
1.698333
  0
VERTEX
  8
FOREGROUND
  6
CONTINUOUS
 10
2.356667
 20
1.670000
  0
VERTEX
  8
FOREGROUND
  6
CONTINUOUS
 10
2.373333
 20
1.641667
  0
VERTEX
  8
FOREGROUND
  6
CONTINUOUS
 10
2.388333
 20
1.610000
  0
VERTEX
  8
FOREGROUND
  6
CONTINUOUS
 10
2.401667
 20
1.578333
  0
VERTEX
  8
FOREGROUND
  6
CONTINUOUS
 10
2.410000
 20
1.545000
  0
VERTEX
  8
FOREGROUND
  6
CONTINUOUS
 10
2.415000
 20
1.510000
  0
VERTEX
  8
FOREGROUND
  6
CONTINUOUS
 10
2.416667
 20
1.473333
  0
VERTEX
  8
FOREGROUND
  6
CONTINUOUS
 10
2.416667
 20
0.411667
  0
VERTEX
  8
FOREGROUND
  6
CONTINUOUS
 10
2.415000
 20
0.375000
  0
VERTEX
  8
FOREGROUND
  6
CONTINUOUS
 10
2.410000
 20
0.340000
  0
VERTEX
  8
FOREGROUND
  6
CONTINUOUS
 10
2.401667
 20
0.306667
  0
VERTEX
  8
FOREGROUND
  6
CONTINUOUS
 10
2.388333
 20
0.273333
  0
VERTEX
  8
FOREGROUND
  6
CONTINUOUS
 10
2.373333
 20
0.243333
  0
VERTEX
  8
FOREGROUND
  6
CONTINUOUS
 10
2.356667
 20
0.213333
  0
VERTEX
  8
FOREGROUND
  6
CONTINUOUS
 10
2.336667
 20
0.186667
  0
VERTEX
  8
FOREGROUND
  6
CONTINUOUS
 10
2.313333
 20
0.161667
  0
VERTEX
  8
FOREGROUND
  6
CONTINUOUS
 10
2.288333
 20
0.138333
  0
VERTEX
  8
FOREGROUND
  6
CONTINUOUS
 10
2.261667
 20
0.118333
  0
VERTEX
  8
FOREGROUND
  6
CONTINUOUS
 10
2.231667
 20
0.101667
  0
VERTEX
  8
FOREGROUND
  6
CONTINUOUS
 10
2.201667
 20
0.086667
  0
VERTEX
  8
FOREGROUND
  6
CONTINUOUS
 10
2.168333
 20
0.073333
  0
VERTEX
  8
FOREGROUND
  6
CONTINUOUS
 10
2.135000
 20
0.065000
  0
VERTEX
  8
FOREGROUND
  6
CONTINUOUS
 10
2.100000
 20
0.060000
  0
VERTEX
  8
FOREGROUND
  6
CONTINUOUS
 10
2.063333
 20
0.058333
  0
VERTEX
  8
FOREGROUND
  6
CONTINUOUS
 10
0.403333
 20
0.058333
  0
VERTEX
  8
FOREGROUND
  6
CONTINUOUS
 10
0.366667
 20
0.060000
  0
VERTEX
  8
FOREGROUND
  6
CONTINUOUS
 10
0.331667
 20
0.065000
  0
VERTEX
  8
FOREGROUND
  6
CONTINUOUS
 10
0.298333
 20
0.073333
  0
VERTEX
  8
FOREGROUND
  6
CONTINUOUS
 10
0.266667
 20
0.086667
  0
VERTEX
  8
FOREGROUND
  6
CONTINUOUS
 10
0.235000
 20
0.101667
  0
VERTEX
  8
FOREGROUND
  6
CONTINUOUS
 10
0.206667
 20
0.118333
  0
VERTEX
  8
FOREGROUND
  6
CONTINUOUS
 10
0.178333
 20
0.138333
  0
VERTEX
  8
FOREGROUND
  6
CONTINUOUS
 10
0.153333
 20
0.161667
  0
VERTEX
  8
FOREGROUND
  6
CONTINUOUS
 10
0.130000
 20
0.186667
  0
VERTEX
  8
FOREGROUND
  6
CONTINUOUS
 10
0.110000
 20
0.213333
  0
VERTEX
  8
FOREGROUND
  6
CONTINUOUS
 10
0.093333
 20
0.243333
  0
VERTEX
  8
FOREGROUND
  6
CONTINUOUS
 10
0.078333
 20
0.273333
  0
VERTEX
  8
FOREGROUND
  6
CONTINUOUS
 10
0.066667
 20
0.306667
  0
VERTEX
  8
FOREGROUND
  6
CONTINUOUS
 10
0.056667
 20
0.340000
  0
VERTEX
  8
FOREGROUND
  6
CONTINUOUS
 10
0.051667
 20
0.375000
  0
VERTEX
  8
FOREGROUND
  6
CONTINUOUS
 10
0.050000
 20
0.411667
  0
VERTEX
  8
FOREGROUND
  6
CONTINUOUS
 10
0.050000
 20
1.473333
  0
VERTEX
  8
FOREGROUND
  6
CONTINUOUS
 10
0.051667
 20
1.510000
  0
VERTEX
  8
FOREGROUND
  6
CONTINUOUS
 10
0.056667
 20
1.545000
  0
VERTEX
  8
FOREGROUND
  6
CONTINUOUS
 10
0.066667
 20
1.578333
  0
VERTEX
  8
FOREGROUND
  6
CONTINUOUS
 10
0.078333
 20
1.610000
  0
VERTEX
  8
FOREGROUND
  6
CONTINUOUS
 10
0.093333
 20
1.641667
  0
VERTEX
  8
FOREGROUND
  6
CONTINUOUS
 10
0.110000
 20
1.670000
  0
VERTEX
  8
FOREGROUND
  6
CONTINUOUS
 10
0.130000
 20
1.698333
  0
VERTEX
  8
FOREGROUND
  6
CONTINUOUS
 10
0.153333
 20
1.723333
  0
VERTEX
  8
FOREGROUND
  6
CONTINUOUS
 10
0.178333
 20
1.746667
  0
VERTEX
  8
FOREGROUND
  6
CONTINUOUS
 10
0.206667
 20
1.766667
  0
VERTEX
  8
FOREGROUND
  6
CONTINUOUS
 10
0.235000
 20
1.783333
  0
VERTEX
  8
FOREGROUND
  6
CONTINUOUS
 10
0.266667
 20
1.798333
  0
VERTEX
  8
FOREGROUND
  6
CONTINUOUS
 10
0.298333
 20
1.810000
  0
VERTEX
  8
FOREGROUND
  6
CONTINUOUS
 10
0.331667
 20
1.820000
  0
VERTEX
  8
FOREGROUND
  6
CONTINUOUS
 10
0.366667
 20
1.825000
  0
SEQEND
  8
0
  0
ENDSEC
  0
EOF
