  0
SECTION
  2
HEADER
  9
$ACADVER
  1
AC1006
  9
$EXTMIN
 10
0.000000
 20
0.000000
  9
$EXTMAX
 10
2.581667
 20
2.178333
  9
$LTSCALE
 40
0.166667
  9
$PDMODE
 70
    35
  9
$PDSIZE
 40
0.133333
  0
ENDSEC
  0
SECTION
  2
TABLES
  0
TABLE
  2
LTYPE
 70
     9
  0
LTYPE
  2
CONTINUOUS
 70
    64
  3
Solid line
 72
    65
 73
     0
 40
0.000000
  0
LTYPE
  2
DASHED
 70
    64
  3
__ __ __ __ __ __ __ __ __ __ __ __ __ __ __
 72
    65
 73
     2
 40
0.001250
 49
0.000833
 49
-0.000417
  0
LTYPE
  2
HIDDEN
 70
    64
  3
 _ _ _ _ _ _ _ _ _ _ _ _ _ _ _ _ _ _ _ _ _ _
 72
    65
 73
     2
 40
0.000625
 49
0.000417
 49
-0.000208
  0
LTYPE
  2
CENTER
 70
    64
  3
____ _ ____ _ ____ _ ____ _ ____ _ ____ _ ____
 72
    65
 73
     4
 40
0.003333
 49
0.002083
 49
-0.000417
 49
0.000417
 49
-0.000417
  0
LTYPE
  2
PHANTOM
 70
    64
  3
_____ _ _ _____ _ _ _____ _ _ _____ _ _ ____
 72
    65
 73
     6
 40
0.004167
 49
0.002083
 49
-0.000417
 49
0.000417
 49
-0.000417
 49
0.000417
 49
-0.000417
  0
LTYPE
  2
DOT
 70
    64
  3
...............................................
 72
    65
 73
     2
 40
0.000417
 49
0.000000
 49
-0.000417
  0
LTYPE
  2
DASHDOT
 70
    64
  3
__ . __ . __ . __ . __ . __ . __ . __ . __ . __
 72
    65
 73
     4
 40
0.001667
 49
0.000833
 49
-0.000417
 49
0.000000
 49
-0.000417
  0
LTYPE
  2
BORDER
 70
    64
  3
__ __ . __ __ . __ __ . __ __ . __ __ . __ __
 72
    65
 73
     6
 40
0.002917
 49
0.000833
 49
-0.000417
 49
0.000833
 49
-0.000417
 49
0.000000
 49
-0.000417
  0
LTYPE
  2
DIVIDE
 70
    64
  3
__ . . __ . . __ . . __ . . __ . . __ . . __
 72
    65
 73
     6
 40
0.002083
 49
0.000833
 49
-0.000417
 49
0.000000
 49
-0.000417
 49
0.000000
 49
-0.000417
  0
LTYPE
  2
DOTDOT
 70
    64
  3
 . .  . .  . .  . .  . .  . . 
 72
    65
 73
     5
 40
0.000917
 49
-0.000417
 49
0.000000
 49
-0.000417
 49
0.000000
 49
-0.000417
  0
ENDTAB
  0
TABLE
  2
STYLE
 70
     2
  0
STYLE
 70
     0
  2
SN0
 40
0.000000
 41
0.001667
 50
0.000000
 71
     0
 42
0.000000
  3
ROMAND
  0
STYLE
 70
    68
  2
SV0
 40
0.000000
 41
0.001667
 50
0.000000
 71
     0
 42
0.000000
  3
ROMAND
  0
ENDTAB
  0
TABLE
  2
LAYER
 70
     2
  0
LAYER
  2
FOREGROUND
 70
    64
 62
     7
  6
CONTINUOUS
  0
LAYER
  2
BACKGROUND
 70
    65
 62
    -7
  6
CONTINUOUS
  0
ENDTAB
  0
ENDSEC
  0
SECTION
  2
ENTITIES
  0
POLYLINE
  8
FOREGROUND
 62
     7
  6
CONTINUOUS
 66
     1
 40
0.000000
 41
0.000000
 70
     1
  0
VERTEX
  8
FOREGROUND
 62
     7
  6
CONTINUOUS
 10
0.441667
 20
2.023333
  0
VERTEX
  8
FOREGROUND
 62
     7
  6
CONTINUOUS
 10
2.025000
 20
2.023333
  0
VERTEX
  8
FOREGROUND
 62
     7
  6
CONTINUOUS
 10
2.065000
 20
2.021667
  0
VERTEX
  8
FOREGROUND
 62
     7
  6
CONTINUOUS
 10
2.103333
 20
2.015000
  0
VERTEX
  8
FOREGROUND
 62
     7
  6
CONTINUOUS
 10
2.141667
 20
2.005000
  0
VERTEX
  8
FOREGROUND
 62
     7
  6
CONTINUOUS
 10
2.178333
 20
1.991667
  0
VERTEX
  8
FOREGROUND
 62
     7
  6
CONTINUOUS
 10
2.211667
 20
1.976667
  0
VERTEX
  8
FOREGROUND
 62
     7
  6
CONTINUOUS
 10
2.243333
 20
1.956667
  0
VERTEX
  8
FOREGROUND
 62
     7
  6
CONTINUOUS
 10
2.275000
 20
1.933333
  0
VERTEX
  8
FOREGROUND
 62
     7
  6
CONTINUOUS
 10
2.301667
 20
1.908333
  0
VERTEX
  8
FOREGROUND
 62
     7
  6
CONTINUOUS
 10
2.326667
 20
1.880000
  0
VERTEX
  8
FOREGROUND
 62
     7
  6
CONTINUOUS
 10
2.350000
 20
1.850000
  0
VERTEX
  8
FOREGROUND
 62
     7
  6
CONTINUOUS
 10
2.370000
 20
1.818333
  0
VERTEX
  8
FOREGROUND
 62
     7
  6
CONTINUOUS
 10
2.386667
 20
1.783333
  0
VERTEX
  8
FOREGROUND
 62
     7
  6
CONTINUOUS
 10
2.398333
 20
1.748333
  0
VERTEX
  8
FOREGROUND
 62
     7
  6
CONTINUOUS
 10
2.408333
 20
1.710000
  0
VERTEX
  8
FOREGROUND
 62
     7
  6
CONTINUOUS
 10
2.415000
 20
1.671667
  0
VERTEX
  8
FOREGROUND
 62
     7
  6
CONTINUOUS
 10
2.416667
 20
1.631667
  0
VERTEX
  8
FOREGROUND
 62
     7
  6
CONTINUOUS
 10
2.416667
 20
0.450000
  0
VERTEX
  8
FOREGROUND
 62
     7
  6
CONTINUOUS
 10
2.415000
 20
0.410000
  0
VERTEX
  8
FOREGROUND
 62
     7
  6
CONTINUOUS
 10
2.408333
 20
0.371667
  0
VERTEX
  8
FOREGROUND
 62
     7
  6
CONTINUOUS
 10
2.398333
 20
0.333333
  0
VERTEX
  8
FOREGROUND
 62
     7
  6
CONTINUOUS
 10
2.386667
 20
0.296667
  0
VERTEX
  8
FOREGROUND
 62
     7
  6
CONTINUOUS
 10
2.370000
 20
0.263333
  0
VERTEX
  8
FOREGROUND
 62
     7
  6
CONTINUOUS
 10
2.350000
 20
0.231667
  0
VERTEX
  8
FOREGROUND
 62
     7
  6
CONTINUOUS
 10
2.326667
 20
0.200000
  0
VERTEX
  8
FOREGROUND
 62
     7
  6
CONTINUOUS
 10
2.301667
 20
0.173333
  0
VERTEX
  8
FOREGROUND
 62
     7
  6
CONTINUOUS
 10
2.275000
 20
0.148333
  0
VERTEX
  8
FOREGROUND
 62
     7
  6
CONTINUOUS
 10
2.243333
 20
0.125000
  0
VERTEX
  8
FOREGROUND
 62
     7
  6
CONTINUOUS
 10
2.211667
 20
0.105000
  0
VERTEX
  8
FOREGROUND
 62
     7
  6
CONTINUOUS
 10
2.178333
 20
0.088333
  0
VERTEX
  8
FOREGROUND
 62
     7
  6
CONTINUOUS
 10
2.141667
 20
0.076667
  0
VERTEX
  8
FOREGROUND
 62
     7
  6
CONTINUOUS
 10
2.103333
 20
0.066667
  0
VERTEX
  8
FOREGROUND
 62
     7
  6
CONTINUOUS
 10
2.065000
 20
0.060000
  0
VERTEX
  8
FOREGROUND
 62
     7
  6
CONTINUOUS
 10
2.025000
 20
0.058333
  0
VERTEX
  8
FOREGROUND
 62
     7
  6
CONTINUOUS
 10
0.441667
 20
0.058333
  0
VERTEX
  8
FOREGROUND
 62
     7
  6
CONTINUOUS
 10
0.401667
 20
0.060000
  0
VERTEX
  8
FOREGROUND
 62
     7
  6
CONTINUOUS
 10
0.363333
 20
0.066667
  0
VERTEX
  8
FOREGROUND
 62
     7
  6
CONTINUOUS
 10
0.325000
 20
0.076667
  0
VERTEX
  8
FOREGROUND
 62
     7
  6
CONTINUOUS
 10
0.290000
 20
0.088333
  0
VERTEX
  8
FOREGROUND
 62
     7
  6
CONTINUOUS
 10
0.255000
 20
0.105000
  0
VERTEX
  8
FOREGROUND
 62
     7
  6
CONTINUOUS
 10
0.223333
 20
0.125000
  0
VERTEX
  8
FOREGROUND
 62
     7
  6
CONTINUOUS
 10
0.193333
 20
0.148333
  0
VERTEX
  8
FOREGROUND
 62
     7
  6
CONTINUOUS
 10
0.165000
 20
0.173333
  0
VERTEX
  8
FOREGROUND
 62
     7
  6
CONTINUOUS
 10
0.140000
 20
0.200000
  0
VERTEX
  8
FOREGROUND
 62
     7
  6
CONTINUOUS
 10
0.116667
 20
0.231667
  0
VERTEX
  8
FOREGROUND
 62
     7
  6
CONTINUOUS
 10
0.096667
 20
0.263333
  0
VERTEX
  8
FOREGROUND
 62
     7
  6
CONTINUOUS
 10
0.081667
 20
0.296667
  0
VERTEX
  8
FOREGROUND
 62
     7
  6
CONTINUOUS
 10
0.068333
 20
0.333333
  0
VERTEX
  8
FOREGROUND
 62
     7
  6
CONTINUOUS
 10
0.058333
 20
0.371667
  0
VERTEX
  8
FOREGROUND
 62
     7
  6
CONTINUOUS
 10
0.051667
 20
0.410000
  0
VERTEX
  8
FOREGROUND
 62
     7
  6
CONTINUOUS
 10
0.050000
 20
0.450000
  0
VERTEX
  8
FOREGROUND
 62
     7
  6
CONTINUOUS
 10
0.050000
 20
1.631667
  0
VERTEX
  8
FOREGROUND
 62
     7
  6
CONTINUOUS
 10
0.051667
 20
1.671667
  0
VERTEX
  8
FOREGROUND
 62
     7
  6
CONTINUOUS
 10
0.058333
 20
1.710000
  0
VERTEX
  8
FOREGROUND
 62
     7
  6
CONTINUOUS
 10
0.068333
 20
1.748333
  0
VERTEX
  8
FOREGROUND
 62
     7
  6
CONTINUOUS
 10
0.081667
 20
1.783333
  0
VERTEX
  8
FOREGROUND
 62
     7
  6
CONTINUOUS
 10
0.096667
 20
1.818333
  0
VERTEX
  8
FOREGROUND
 62
     7
  6
CONTINUOUS
 10
0.116667
 20
1.850000
  0
VERTEX
  8
FOREGROUND
 62
     7
  6
CONTINUOUS
 10
0.140000
 20
1.880000
  0
VERTEX
  8
FOREGROUND
 62
     7
  6
CONTINUOUS
 10
0.165000
 20
1.908333
  0
VERTEX
  8
FOREGROUND
 62
     7
  6
CONTINUOUS
 10
0.193333
 20
1.933333
  0
VERTEX
  8
FOREGROUND
 62
     7
  6
CONTINUOUS
 10
0.223333
 20
1.956667
  0
VERTEX
  8
FOREGROUND
 62
     7
  6
CONTINUOUS
 10
0.255000
 20
1.976667
  0
VERTEX
  8
FOREGROUND
 62
     7
  6
CONTINUOUS
 10
0.290000
 20
1.991667
  0
VERTEX
  8
FOREGROUND
 62
     7
  6
CONTINUOUS
 10
0.325000
 20
2.005000
  0
VERTEX
  8
FOREGROUND
 62
     7
  6
CONTINUOUS
 10
0.363333
 20
2.015000
  0
VERTEX
  8
FOREGROUND
 62
     7
  6
CONTINUOUS
 10
0.401667
 20
2.021667
  0
SEQEND
  8
0
  0
POLYLINE
  8
FOREGROUND
  6
CONTINUOUS
 66
     1
 40
0.010000
 41
0.010000
 70
     1
  0
VERTEX
  8
FOREGROUND
  6
CONTINUOUS
 10
0.441667
 20
2.023333
  0
VERTEX
  8
FOREGROUND
  6
CONTINUOUS
 10
2.025000
 20
2.023333
  0
VERTEX
  8
FOREGROUND
  6
CONTINUOUS
 10
2.065000
 20
2.021667
  0
VERTEX
  8
FOREGROUND
  6
CONTINUOUS
 10
2.103333
 20
2.015000
  0
VERTEX
  8
FOREGROUND
  6
CONTINUOUS
 10
2.141667
 20
2.005000
  0
VERTEX
  8
FOREGROUND
  6
CONTINUOUS
 10
2.178333
 20
1.991667
  0
VERTEX
  8
FOREGROUND
  6
CONTINUOUS
 10
2.211667
 20
1.976667
  0
VERTEX
  8
FOREGROUND
  6
CONTINUOUS
 10
2.243333
 20
1.956667
  0
VERTEX
  8
FOREGROUND
  6
CONTINUOUS
 10
2.275000
 20
1.933333
  0
VERTEX
  8
FOREGROUND
  6
CONTINUOUS
 10
2.301667
 20
1.908333
  0
VERTEX
  8
FOREGROUND
  6
CONTINUOUS
 10
2.326667
 20
1.880000
  0
VERTEX
  8
FOREGROUND
  6
CONTINUOUS
 10
2.350000
 20
1.850000
  0
VERTEX
  8
FOREGROUND
  6
CONTINUOUS
 10
2.370000
 20
1.818333
  0
VERTEX
  8
FOREGROUND
  6
CONTINUOUS
 10
2.386667
 20
1.783333
  0
VERTEX
  8
FOREGROUND
  6
CONTINUOUS
 10
2.398333
 20
1.748333
  0
VERTEX
  8
FOREGROUND
  6
CONTINUOUS
 10
2.408333
 20
1.710000
  0
VERTEX
  8
FOREGROUND
  6
CONTINUOUS
 10
2.415000
 20
1.671667
  0
VERTEX
  8
FOREGROUND
  6
CONTINUOUS
 10
2.416667
 20
1.631667
  0
VERTEX
  8
FOREGROUND
  6
CONTINUOUS
 10
2.416667
 20
0.450000
  0
VERTEX
  8
FOREGROUND
  6
CONTINUOUS
 10
2.415000
 20
0.410000
  0
VERTEX
  8
FOREGROUND
  6
CONTINUOUS
 10
2.408333
 20
0.371667
  0
VERTEX
  8
FOREGROUND
  6
CONTINUOUS
 10
2.398333
 20
0.333333
  0
VERTEX
  8
FOREGROUND
  6
CONTINUOUS
 10
2.386667
 20
0.296667
  0
VERTEX
  8
FOREGROUND
  6
CONTINUOUS
 10
2.370000
 20
0.263333
  0
VERTEX
  8
FOREGROUND
  6
CONTINUOUS
 10
2.350000
 20
0.231667
  0
VERTEX
  8
FOREGROUND
  6
CONTINUOUS
 10
2.326667
 20
0.200000
  0
VERTEX
  8
FOREGROUND
  6
CONTINUOUS
 10
2.301667
 20
0.173333
  0
VERTEX
  8
FOREGROUND
  6
CONTINUOUS
 10
2.275000
 20
0.148333
  0
VERTEX
  8
FOREGROUND
  6
CONTINUOUS
 10
2.243333
 20
0.125000
  0
VERTEX
  8
FOREGROUND
  6
CONTINUOUS
 10
2.211667
 20
0.105000
  0
VERTEX
  8
FOREGROUND
  6
CONTINUOUS
 10
2.178333
 20
0.088333
  0
VERTEX
  8
FOREGROUND
  6
CONTINUOUS
 10
2.141667
 20
0.076667
  0
VERTEX
  8
FOREGROUND
  6
CONTINUOUS
 10
2.103333
 20
0.066667
  0
VERTEX
  8
FOREGROUND
  6
CONTINUOUS
 10
2.065000
 20
0.060000
  0
VERTEX
  8
FOREGROUND
  6
CONTINUOUS
 10
2.025000
 20
0.058333
  0
VERTEX
  8
FOREGROUND
  6
CONTINUOUS
 10
0.441667
 20
0.058333
  0
VERTEX
  8
FOREGROUND
  6
CONTINUOUS
 10
0.401667
 20
0.060000
  0
VERTEX
  8
FOREGROUND
  6
CONTINUOUS
 10
0.363333
 20
0.066667
  0
VERTEX
  8
FOREGROUND
  6
CONTINUOUS
 10
0.325000
 20
0.076667
  0
VERTEX
  8
FOREGROUND
  6
CONTINUOUS
 10
0.290000
 20
0.088333
  0
VERTEX
  8
FOREGROUND
  6
CONTINUOUS
 10
0.255000
 20
0.105000
  0
VERTEX
  8
FOREGROUND
  6
CONTINUOUS
 10
0.223333
 20
0.125000
  0
VERTEX
  8
FOREGROUND
  6
CONTINUOUS
 10
0.193333
 20
0.148333
  0
VERTEX
  8
FOREGROUND
  6
CONTINUOUS
 10
0.165000
 20
0.173333
  0
VERTEX
  8
FOREGROUND
  6
CONTINUOUS
 10
0.140000
 20
0.200000
  0
VERTEX
  8
FOREGROUND
  6
CONTINUOUS
 10
0.116667
 20
0.231667
  0
VERTEX
  8
FOREGROUND
  6
CONTINUOUS
 10
0.096667
 20
0.263333
  0
VERTEX
  8
FOREGROUND
  6
CONTINUOUS
 10
0.081667
 20
0.296667
  0
VERTEX
  8
FOREGROUND
  6
CONTINUOUS
 10
0.068333
 20
0.333333
  0
VERTEX
  8
FOREGROUND
  6
CONTINUOUS
 10
0.058333
 20
0.371667
  0
VERTEX
  8
FOREGROUND
  6
CONTINUOUS
 10
0.051667
 20
0.410000
  0
VERTEX
  8
FOREGROUND
  6
CONTINUOUS
 10
0.050000
 20
0.450000
  0
VERTEX
  8
FOREGROUND
  6
CONTINUOUS
 10
0.050000
 20
1.631667
  0
VERTEX
  8
FOREGROUND
  6
CONTINUOUS
 10
0.051667
 20
1.671667
  0
VERTEX
  8
FOREGROUND
  6
CONTINUOUS
 10
0.058333
 20
1.710000
  0
VERTEX
  8
FOREGROUND
  6
CONTINUOUS
 10
0.068333
 20
1.748333
  0
VERTEX
  8
FOREGROUND
  6
CONTINUOUS
 10
0.081667
 20
1.783333
  0
VERTEX
  8
FOREGROUND
  6
CONTINUOUS
 10
0.096667
 20
1.818333
  0
VERTEX
  8
FOREGROUND
  6
CONTINUOUS
 10
0.116667
 20
1.850000
  0
VERTEX
  8
FOREGROUND
  6
CONTINUOUS
 10
0.140000
 20
1.880000
  0
VERTEX
  8
FOREGROUND
  6
CONTINUOUS
 10
0.165000
 20
1.908333
  0
VERTEX
  8
FOREGROUND
  6
CONTINUOUS
 10
0.193333
 20
1.933333
  0
VERTEX
  8
FOREGROUND
  6
CONTINUOUS
 10
0.223333
 20
1.956667
  0
VERTEX
  8
FOREGROUND
  6
CONTINUOUS
 10
0.255000
 20
1.976667
  0
VERTEX
  8
FOREGROUND
  6
CONTINUOUS
 10
0.290000
 20
1.991667
  0
VERTEX
  8
FOREGROUND
  6
CONTINUOUS
 10
0.325000
 20
2.005000
  0
VERTEX
  8
FOREGROUND
  6
CONTINUOUS
 10
0.363333
 20
2.015000
  0
VERTEX
  8
FOREGROUND
  6
CONTINUOUS
 10
0.401667
 20
2.021667
  0
SEQEND
  8
0
  0
ENDSEC
  0
EOF
