  0
SECTION
  2
HEADER
  9
$ACADVER
  1
AC1006
  9
$EXTMIN
 10
0.000000
 20
0.000000
  9
$EXTMAX
 10
2.470000
 20
2.473333
  9
$LTSCALE
 40
0.166667
  9
$PDMODE
 70
    35
  9
$PDSIZE
 40
0.133333
  0
ENDSEC
  0
SECTION
  2
TABLES
  0
TABLE
  2
LTYPE
 70
     9
  0
LTYPE
  2
CONTINUOUS
 70
    64
  3
Solid line
 72
    65
 73
     0
 40
0.000000
  0
LTYPE
  2
DASHED
 70
    64
  3
__ __ __ __ __ __ __ __ __ __ __ __ __ __ __
 72
    65
 73
     2
 40
0.001250
 49
0.000833
 49
-0.000417
  0
LTYPE
  2
HIDDEN
 70
    64
  3
 _ _ _ _ _ _ _ _ _ _ _ _ _ _ _ _ _ _ _ _ _ _
 72
    65
 73
     2
 40
0.000625
 49
0.000417
 49
-0.000208
  0
LTYPE
  2
CENTER
 70
    64
  3
____ _ ____ _ ____ _ ____ _ ____ _ ____ _ ____
 72
    65
 73
     4
 40
0.003333
 49
0.002083
 49
-0.000417
 49
0.000417
 49
-0.000417
  0
LTYPE
  2
PHANTOM
 70
    64
  3
_____ _ _ _____ _ _ _____ _ _ _____ _ _ ____
 72
    65
 73
     6
 40
0.004167
 49
0.002083
 49
-0.000417
 49
0.000417
 49
-0.000417
 49
0.000417
 49
-0.000417
  0
LTYPE
  2
DOT
 70
    64
  3
...............................................
 72
    65
 73
     2
 40
0.000417
 49
0.000000
 49
-0.000417
  0
LTYPE
  2
DASHDOT
 70
    64
  3
__ . __ . __ . __ . __ . __ . __ . __ . __ . __
 72
    65
 73
     4
 40
0.001667
 49
0.000833
 49
-0.000417
 49
0.000000
 49
-0.000417
  0
LTYPE
  2
BORDER
 70
    64
  3
__ __ . __ __ . __ __ . __ __ . __ __ . __ __
 72
    65
 73
     6
 40
0.002917
 49
0.000833
 49
-0.000417
 49
0.000833
 49
-0.000417
 49
0.000000
 49
-0.000417
  0
LTYPE
  2
DIVIDE
 70
    64
  3
__ . . __ . . __ . . __ . . __ . . __ . . __
 72
    65
 73
     6
 40
0.002083
 49
0.000833
 49
-0.000417
 49
0.000000
 49
-0.000417
 49
0.000000
 49
-0.000417
  0
LTYPE
  2
DOTDOT
 70
    64
  3
 . .  . .  . .  . .  . .  . . 
 72
    65
 73
     5
 40
0.000917
 49
-0.000417
 49
0.000000
 49
-0.000417
 49
0.000000
 49
-0.000417
  0
ENDTAB
  0
TABLE
  2
STYLE
 70
     2
  0
STYLE
 70
     0
  2
SN0
 40
0.000000
 41
0.001667
 50
0.000000
 71
     0
 42
0.000000
  3
ROMAND
  0
STYLE
 70
    68
  2
SV0
 40
0.000000
 41
0.001667
 50
0.000000
 71
     0
 42
0.000000
  3
ROMAND
  0
ENDTAB
  0
TABLE
  2
LAYER
 70
     2
  0
LAYER
  2
FOREGROUND
 70
    64
 62
     7
  6
CONTINUOUS
  0
LAYER
  2
BACKGROUND
 70
    65
 62
    -7
  6
CONTINUOUS
  0
ENDTAB
  0
ENDSEC
  0
SECTION
  2
ENTITIES
  0
POLYLINE
  8
FOREGROUND
  6
CONTINUOUS
 66
     1
 40
0.010000
 41
0.010000
 70
     1
  0
VERTEX
  8
FOREGROUND
  6
CONTINUOUS
 10
1.946667
 20
0.050000
  0
VERTEX
  8
FOREGROUND
  6
CONTINUOUS
 10
1.963643
 20
0.050312
  0
VERTEX
  8
FOREGROUND
  6
CONTINUOUS
 10
1.980469
 20
0.051213
  0
VERTEX
  8
FOREGROUND
  6
CONTINUOUS
 10
1.997134
 20
0.052695
  0
VERTEX
  8
FOREGROUND
  6
CONTINUOUS
 10
2.013628
 20
0.054746
  0
VERTEX
  8
FOREGROUND
  6
CONTINUOUS
 10
2.029941
 20
0.057357
  0
VERTEX
  8
FOREGROUND
  6
CONTINUOUS
 10
2.046063
 20
0.060517
  0
VERTEX
  8
FOREGROUND
  6
CONTINUOUS
 10
2.061985
 20
0.064218
  0
VERTEX
  8
FOREGROUND
  6
CONTINUOUS
 10
2.077696
 20
0.068449
  0
VERTEX
  8
FOREGROUND
  6
CONTINUOUS
 10
2.093186
 20
0.073199
  0
VERTEX
  8
FOREGROUND
  6
CONTINUOUS
 10
2.108445
 20
0.078460
  0
VERTEX
  8
FOREGROUND
  6
CONTINUOUS
 10
2.123464
 20
0.084220
  0
VERTEX
  8
FOREGROUND
  6
CONTINUOUS
 10
2.138232
 20
0.090471
  0
VERTEX
  8
FOREGROUND
  6
CONTINUOUS
 10
2.152740
 20
0.097201
  0
VERTEX
  8
FOREGROUND
  6
CONTINUOUS
 10
2.166976
 20
0.104402
  0
VERTEX
  8
FOREGROUND
  6
CONTINUOUS
 10
2.180933
 20
0.112062
  0
VERTEX
  8
FOREGROUND
  6
CONTINUOUS
 10
2.194598
 20
0.120173
  0
VERTEX
  8
FOREGROUND
  6
CONTINUOUS
 10
2.207964
 20
0.128724
  0
VERTEX
  8
FOREGROUND
  6
CONTINUOUS
 10
2.221018
 20
0.137705
  0
VERTEX
  8
FOREGROUND
  6
CONTINUOUS
 10
2.233753
 20
0.147106
  0
VERTEX
  8
FOREGROUND
  6
CONTINUOUS
 10
2.246157
 20
0.156918
  0
VERTEX
  8
FOREGROUND
  6
CONTINUOUS
 10
2.258220
 20
0.167130
  0
VERTEX
  8
FOREGROUND
  6
CONTINUOUS
 10
2.269933
 20
0.177732
  0
VERTEX
  8
FOREGROUND
  6
CONTINUOUS
 10
2.281286
 20
0.188714
  0
VERTEX
  8
FOREGROUND
  6
CONTINUOUS
 10
2.292268
 20
0.200067
  0
VERTEX
  8
FOREGROUND
  6
CONTINUOUS
 10
2.302870
 20
0.211780
  0
VERTEX
  8
FOREGROUND
  6
CONTINUOUS
 10
2.313082
 20
0.223843
  0
VERTEX
  8
FOREGROUND
  6
CONTINUOUS
 10
2.322894
 20
0.236247
  0
VERTEX
  8
FOREGROUND
  6
CONTINUOUS
 10
2.332295
 20
0.248982
  0
VERTEX
  8
FOREGROUND
  6
CONTINUOUS
 10
2.341276
 20
0.262036
  0
VERTEX
  8
FOREGROUND
  6
CONTINUOUS
 10
2.349827
 20
0.275402
  0
VERTEX
  8
FOREGROUND
  6
CONTINUOUS
 10
2.357938
 20
0.289067
  0
VERTEX
  8
FOREGROUND
  6
CONTINUOUS
 10
2.365598
 20
0.303024
  0
VERTEX
  8
FOREGROUND
  6
CONTINUOUS
 10
2.372799
 20
0.317260
  0
VERTEX
  8
FOREGROUND
  6
CONTINUOUS
 10
2.379529
 20
0.331768
  0
VERTEX
  8
FOREGROUND
  6
CONTINUOUS
 10
2.385780
 20
0.346536
  0
VERTEX
  8
FOREGROUND
  6
CONTINUOUS
 10
2.391540
 20
0.361555
  0
VERTEX
  8
FOREGROUND
  6
CONTINUOUS
 10
2.396801
 20
0.376814
  0
VERTEX
  8
FOREGROUND
  6
CONTINUOUS
 10
2.401551
 20
0.392304
  0
VERTEX
  8
FOREGROUND
  6
CONTINUOUS
 10
2.405782
 20
0.408015
  0
VERTEX
  8
FOREGROUND
  6
CONTINUOUS
 10
2.409483
 20
0.423937
  0
VERTEX
  8
FOREGROUND
  6
CONTINUOUS
 10
2.412643
 20
0.440059
  0
VERTEX
  8
FOREGROUND
  6
CONTINUOUS
 10
2.415254
 20
0.456372
  0
VERTEX
  8
FOREGROUND
  6
CONTINUOUS
 10
2.417305
 20
0.472866
  0
VERTEX
  8
FOREGROUND
  6
CONTINUOUS
 10
2.418787
 20
0.489531
  0
VERTEX
  8
FOREGROUND
  6
CONTINUOUS
 10
2.419688
 20
0.506357
  0
VERTEX
  8
FOREGROUND
  6
CONTINUOUS
 10
2.420000
 20
0.523333
  0
VERTEX
  8
FOREGROUND
  6
CONTINUOUS
 10
2.420000
 20
1.950000
  0
VERTEX
  8
FOREGROUND
  6
CONTINUOUS
 10
2.419688
 20
1.966979
  0
VERTEX
  8
FOREGROUND
  6
CONTINUOUS
 10
2.418786
 20
1.983807
  0
VERTEX
  8
FOREGROUND
  6
CONTINUOUS
 10
2.417305
 20
2.000474
  0
VERTEX
  8
FOREGROUND
  6
CONTINUOUS
 10
2.415253
 20
2.016970
  0
VERTEX
  8
FOREGROUND
  6
CONTINUOUS
 10
2.412642
 20
2.033285
  0
VERTEX
  8
FOREGROUND
  6
CONTINUOUS
 10
2.409480
 20
2.049409
  0
VERTEX
  8
FOREGROUND
  6
CONTINUOUS
 10
2.405778
 20
2.065332
  0
VERTEX
  8
FOREGROUND
  6
CONTINUOUS
 10
2.401547
 20
2.081045
  0
VERTEX
  8
FOREGROUND
  6
CONTINUOUS
 10
2.396795
 20
2.096537
  0
VERTEX
  8
FOREGROUND
  6
CONTINUOUS
 10
2.391534
 20
2.111798
  0
VERTEX
  8
FOREGROUND
  6
CONTINUOUS
 10
2.385772
 20
2.126818
  0
VERTEX
  8
FOREGROUND
  6
CONTINUOUS
 10
2.379520
 20
2.141587
  0
VERTEX
  8
FOREGROUND
  6
CONTINUOUS
 10
2.372788
 20
2.156096
  0
VERTEX
  8
FOREGROUND
  6
CONTINUOUS
 10
2.365586
 20
2.170334
  0
VERTEX
  8
FOREGROUND
  6
CONTINUOUS
 10
2.357923
 20
2.184292
  0
VERTEX
  8
FOREGROUND
  6
CONTINUOUS
 10
2.349811
 20
2.197958
  0
VERTEX
  8
FOREGROUND
  6
CONTINUOUS
 10
2.341258
 20
2.211325
  0
VERTEX
  8
FOREGROUND
  6
CONTINUOUS
 10
2.332275
 20
2.224380
  0
VERTEX
  8
FOREGROUND
  6
CONTINUOUS
 10
2.322871
 20
2.237115
  0
VERTEX
  8
FOREGROUND
  6
CONTINUOUS
 10
2.313058
 20
2.249520
  0
VERTEX
  8
FOREGROUND
  6
CONTINUOUS
 10
2.302844
 20
2.261584
  0
VERTEX
  8
FOREGROUND
  6
CONTINUOUS
 10
2.292239
 20
2.273297
  0
VERTEX
  8
FOREGROUND
  6
CONTINUOUS
 10
2.281255
 20
2.284650
  0
VERTEX
  8
FOREGROUND
  6
CONTINUOUS
 10
2.269900
 20
2.295633
  0
VERTEX
  8
FOREGROUND
  6
CONTINUOUS
 10
2.258184
 20
2.306235
  0
VERTEX
  8
FOREGROUND
  6
CONTINUOUS
 10
2.246118
 20
2.316446
  0
VERTEX
  8
FOREGROUND
  6
CONTINUOUS
 10
2.233712
 20
2.326258
  0
VERTEX
  8
FOREGROUND
  6
CONTINUOUS
 10
2.220975
 20
2.335659
  0
VERTEX
  8
FOREGROUND
  6
CONTINUOUS
 10
2.207918
 20
2.344639
  0
VERTEX
  8
FOREGROUND
  6
CONTINUOUS
 10
2.194550
 20
2.353190
  0
VERTEX
  8
FOREGROUND
  6
CONTINUOUS
 10
2.180882
 20
2.361300
  0
VERTEX
  8
FOREGROUND
  6
CONTINUOUS
 10
2.166923
 20
2.368960
  0
VERTEX
  8
FOREGROUND
  6
CONTINUOUS
 10
2.152684
 20
2.376159
  0
VERTEX
  8
FOREGROUND
  6
CONTINUOUS
 10
2.138174
 20
2.382889
  0
VERTEX
  8
FOREGROUND
  6
CONTINUOUS
 10
2.123403
 20
2.389138
  0
VERTEX
  8
FOREGROUND
  6
CONTINUOUS
 10
2.108382
 20
2.394897
  0
VERTEX
  8
FOREGROUND
  6
CONTINUOUS
 10
2.093120
 20
2.400156
  0
VERTEX
  8
FOREGROUND
  6
CONTINUOUS
 10
2.077627
 20
2.404904
  0
VERTEX
  8
FOREGROUND
  6
CONTINUOUS
 10
2.061914
 20
2.409133
  0
VERTEX
  8
FOREGROUND
  6
CONTINUOUS
 10
2.045990
 20
2.412832
  0
VERTEX
  8
FOREGROUND
  6
CONTINUOUS
 10
2.029865
 20
2.415990
  0
VERTEX
  8
FOREGROUND
  6
CONTINUOUS
 10
2.013550
 20
2.418599
  0
VERTEX
  8
FOREGROUND
  6
CONTINUOUS
 10
1.997053
 20
2.420647
  0
VERTEX
  8
FOREGROUND
  6
CONTINUOUS
 10
1.980386
 20
2.422126
  0
VERTEX
  8
FOREGROUND
  6
CONTINUOUS
 10
1.963558
 20
2.423025
  0
VERTEX
  8
FOREGROUND
  6
CONTINUOUS
 10
1.946579
 20
2.423333
  0
VERTEX
  8
FOREGROUND
  6
CONTINUOUS
 10
0.523246
 20
2.423333
  0
VERTEX
  8
FOREGROUND
  6
CONTINUOUS
 10
0.506271
 20
2.423018
  0
VERTEX
  8
FOREGROUND
  6
CONTINUOUS
 10
0.489448
 20
2.422114
  0
VERTEX
  8
FOREGROUND
  6
CONTINUOUS
 10
0.472785
 20
2.420630
  0
VERTEX
  8
FOREGROUND
  6
CONTINUOUS
 10
0.456294
 20
2.418576
  0
VERTEX
  8
FOREGROUND
  6
CONTINUOUS
 10
0.439983
 20
2.415963
  0
VERTEX
  8
FOREGROUND
  6
CONTINUOUS
 10
0.423863
 20
2.412800
  0
VERTEX
  8
FOREGROUND
  6
CONTINUOUS
 10
0.407944
 20
2.409097
  0
VERTEX
  8
FOREGROUND
  6
CONTINUOUS
 10
0.392236
 20
2.404865
  0
VERTEX
  8
FOREGROUND
  6
CONTINUOUS
 10
0.376748
 20
2.400113
  0
VERTEX
  8
FOREGROUND
  6
CONTINUOUS
 10
0.361491
 20
2.394851
  0
VERTEX
  8
FOREGROUND
  6
CONTINUOUS
 10
0.346475
 20
2.389089
  0
VERTEX
  8
FOREGROUND
  6
CONTINUOUS
 10
0.331710
 20
2.382837
  0
VERTEX
  8
FOREGROUND
  6
CONTINUOUS
 10
0.317205
 20
2.376105
  0
VERTEX
  8
FOREGROUND
  6
CONTINUOUS
 10
0.302970
 20
2.368904
  0
VERTEX
  8
FOREGROUND
  6
CONTINUOUS
 10
0.289017
 20
2.361242
  0
VERTEX
  8
FOREGROUND
  6
CONTINUOUS
 10
0.275353
 20
2.353131
  0
VERTEX
  8
FOREGROUND
  6
CONTINUOUS
 10
0.261991
 20
2.344579
  0
VERTEX
  8
FOREGROUND
  6
CONTINUOUS
 10
0.248939
 20
2.335598
  0
VERTEX
  8
FOREGROUND
  6
CONTINUOUS
 10
0.236207
 20
2.326196
  0
VERTEX
  8
FOREGROUND
  6
CONTINUOUS
 10
0.223805
 20
2.316384
  0
VERTEX
  8
FOREGROUND
  6
CONTINUOUS
 10
0.211744
 20
2.306172
  0
VERTEX
  8
FOREGROUND
  6
CONTINUOUS
 10
0.200034
 20
2.295570
  0
VERTEX
  8
FOREGROUND
  6
CONTINUOUS
 10
0.188683
 20
2.284588
  0
VERTEX
  8
FOREGROUND
  6
CONTINUOUS
 10
0.177703
 20
2.273236
  0
VERTEX
  8
FOREGROUND
  6
CONTINUOUS
 10
0.167103
 20
2.261523
  0
VERTEX
  8
FOREGROUND
  6
CONTINUOUS
 10
0.156894
 20
2.249460
  0
VERTEX
  8
FOREGROUND
  6
CONTINUOUS
 10
0.147084
 20
2.237057
  0
VERTEX
  8
FOREGROUND
  6
CONTINUOUS
 10
0.137685
 20
2.224323
  0
VERTEX
  8
FOREGROUND
  6
CONTINUOUS
 10
0.128706
 20
2.211269
  0
VERTEX
  8
FOREGROUND
  6
CONTINUOUS
 10
0.120157
 20
2.197905
  0
VERTEX
  8
FOREGROUND
  6
CONTINUOUS
 10
0.112048
 20
2.184240
  0
VERTEX
  8
FOREGROUND
  6
CONTINUOUS
 10
0.104389
 20
2.170285
  0
VERTEX
  8
FOREGROUND
  6
CONTINUOUS
 10
0.097190
 20
2.156050
  0
VERTEX
  8
FOREGROUND
  6
CONTINUOUS
 10
0.090461
 20
2.141544
  0
VERTEX
  8
FOREGROUND
  6
CONTINUOUS
 10
0.084212
 20
2.126777
  0
VERTEX
  8
FOREGROUND
  6
CONTINUOUS
 10
0.078453
 20
2.111760
  0
VERTEX
  8
FOREGROUND
  6
CONTINUOUS
 10
0.073194
 20
2.096502
  0
VERTEX
  8
FOREGROUND
  6
CONTINUOUS
 10
0.068444
 20
2.081013
  0
VERTEX
  8
FOREGROUND
  6
CONTINUOUS
 10
0.064215
 20
2.065304
  0
VERTEX
  8
FOREGROUND
  6
CONTINUOUS
 10
0.060515
 20
2.049384
  0
VERTEX
  8
FOREGROUND
  6
CONTINUOUS
 10
0.057355
 20
2.033264
  0
VERTEX
  8
FOREGROUND
  6
CONTINUOUS
 10
0.054745
 20
2.016953
  0
VERTEX
  8
FOREGROUND
  6
CONTINUOUS
 10
0.052694
 20
2.000461
  0
VERTEX
  8
FOREGROUND
  6
CONTINUOUS
 10
0.051213
 20
1.983798
  0
VERTEX
  8
FOREGROUND
  6
CONTINUOUS
 10
0.050312
 20
1.966974
  0
VERTEX
  8
FOREGROUND
  6
CONTINUOUS
 10
0.050000
 20
1.950000
  0
VERTEX
  8
FOREGROUND
  6
CONTINUOUS
 10
0.050000
 20
0.523333
  0
VERTEX
  8
FOREGROUND
  6
CONTINUOUS
 10
0.050312
 20
0.506357
  0
VERTEX
  8
FOREGROUND
  6
CONTINUOUS
 10
0.051213
 20
0.489531
  0
VERTEX
  8
FOREGROUND
  6
CONTINUOUS
 10
0.052695
 20
0.472866
  0
VERTEX
  8
FOREGROUND
  6
CONTINUOUS
 10
0.054746
 20
0.456372
  0
VERTEX
  8
FOREGROUND
  6
CONTINUOUS
 10
0.057357
 20
0.440059
  0
VERTEX
  8
FOREGROUND
  6
CONTINUOUS
 10
0.060517
 20
0.423937
  0
VERTEX
  8
FOREGROUND
  6
CONTINUOUS
 10
0.064218
 20
0.408015
  0
VERTEX
  8
FOREGROUND
  6
CONTINUOUS
 10
0.068449
 20
0.392304
  0
VERTEX
  8
FOREGROUND
  6
CONTINUOUS
 10
0.073199
 20
0.376814
  0
VERTEX
  8
FOREGROUND
  6
CONTINUOUS
 10
0.078460
 20
0.361555
  0
VERTEX
  8
FOREGROUND
  6
CONTINUOUS
 10
0.084220
 20
0.346536
  0
VERTEX
  8
FOREGROUND
  6
CONTINUOUS
 10
0.090471
 20
0.331768
  0
VERTEX
  8
FOREGROUND
  6
CONTINUOUS
 10
0.097201
 20
0.317260
  0
VERTEX
  8
FOREGROUND
  6
CONTINUOUS
 10
0.104402
 20
0.303024
  0
VERTEX
  8
FOREGROUND
  6
CONTINUOUS
 10
0.112062
 20
0.289067
  0
VERTEX
  8
FOREGROUND
  6
CONTINUOUS
 10
0.120173
 20
0.275402
  0
VERTEX
  8
FOREGROUND
  6
CONTINUOUS
 10
0.128724
 20
0.262036
  0
VERTEX
  8
FOREGROUND
  6
CONTINUOUS
 10
0.137705
 20
0.248982
  0
VERTEX
  8
FOREGROUND
  6
CONTINUOUS
 10
0.147106
 20
0.236247
  0
VERTEX
  8
FOREGROUND
  6
CONTINUOUS
 10
0.156918
 20
0.223843
  0
VERTEX
  8
FOREGROUND
  6
CONTINUOUS
 10
0.167130
 20
0.211780
  0
VERTEX
  8
FOREGROUND
  6
CONTINUOUS
 10
0.177732
 20
0.200067
  0
VERTEX
  8
FOREGROUND
  6
CONTINUOUS
 10
0.188714
 20
0.188714
  0
VERTEX
  8
FOREGROUND
  6
CONTINUOUS
 10
0.200067
 20
0.177732
  0
VERTEX
  8
FOREGROUND
  6
CONTINUOUS
 10
0.211780
 20
0.167130
  0
VERTEX
  8
FOREGROUND
  6
CONTINUOUS
 10
0.223843
 20
0.156918
  0
VERTEX
  8
FOREGROUND
  6
CONTINUOUS
 10
0.236247
 20
0.147106
  0
VERTEX
  8
FOREGROUND
  6
CONTINUOUS
 10
0.248982
 20
0.137705
  0
VERTEX
  8
FOREGROUND
  6
CONTINUOUS
 10
0.262036
 20
0.128724
  0
VERTEX
  8
FOREGROUND
  6
CONTINUOUS
 10
0.275402
 20
0.120173
  0
VERTEX
  8
FOREGROUND
  6
CONTINUOUS
 10
0.289067
 20
0.112062
  0
VERTEX
  8
FOREGROUND
  6
CONTINUOUS
 10
0.303024
 20
0.104402
  0
VERTEX
  8
FOREGROUND
  6
CONTINUOUS
 10
0.317260
 20
0.097201
  0
VERTEX
  8
FOREGROUND
  6
CONTINUOUS
 10
0.331768
 20
0.090471
  0
VERTEX
  8
FOREGROUND
  6
CONTINUOUS
 10
0.346536
 20
0.084220
  0
VERTEX
  8
FOREGROUND
  6
CONTINUOUS
 10
0.361555
 20
0.078460
  0
VERTEX
  8
FOREGROUND
  6
CONTINUOUS
 10
0.376814
 20
0.073199
  0
VERTEX
  8
FOREGROUND
  6
CONTINUOUS
 10
0.392304
 20
0.068449
  0
VERTEX
  8
FOREGROUND
  6
CONTINUOUS
 10
0.408015
 20
0.064218
  0
VERTEX
  8
FOREGROUND
  6
CONTINUOUS
 10
0.423937
 20
0.060517
  0
VERTEX
  8
FOREGROUND
  6
CONTINUOUS
 10
0.440059
 20
0.057357
  0
VERTEX
  8
FOREGROUND
  6
CONTINUOUS
 10
0.456372
 20
0.054746
  0
VERTEX
  8
FOREGROUND
  6
CONTINUOUS
 10
0.472866
 20
0.052695
  0
VERTEX
  8
FOREGROUND
  6
CONTINUOUS
 10
0.489531
 20
0.051213
  0
VERTEX
  8
FOREGROUND
  6
CONTINUOUS
 10
0.506357
 20
0.050312
  0
VERTEX
  8
FOREGROUND
  6
CONTINUOUS
 10
0.523333
 20
0.050000
  0
SEQEND
  8
0
  0
ENDSEC
  0
EOF
