  0
SECTION
  2
HEADER
  9
$ACADVER
  1
AC1006
  9
$EXTMIN
 10
0.000000
 20
0.000000
  9
$EXTMAX
 10
3.148333
 20
2.571667
  9
$LTSCALE
 40
0.166667
  9
$PDMODE
 70
    35
  9
$PDSIZE
 40
0.133333
  0
ENDSEC
  0
SECTION
  2
TABLES
  0
TABLE
  2
LTYPE
 70
     9
  0
LTYPE
  2
CONTINUOUS
 70
    64
  3
Solid line
 72
    65
 73
     0
 40
0.000000
  0
LTYPE
  2
DASHED
 70
    64
  3
__ __ __ __ __ __ __ __ __ __ __ __ __ __ __
 72
    65
 73
     2
 40
0.001250
 49
0.000833
 49
-0.000417
  0
LTYPE
  2
HIDDEN
 70
    64
  3
 _ _ _ _ _ _ _ _ _ _ _ _ _ _ _ _ _ _ _ _ _ _
 72
    65
 73
     2
 40
0.000625
 49
0.000417
 49
-0.000208
  0
LTYPE
  2
CENTER
 70
    64
  3
____ _ ____ _ ____ _ ____ _ ____ _ ____ _ ____
 72
    65
 73
     4
 40
0.003333
 49
0.002083
 49
-0.000417
 49
0.000417
 49
-0.000417
  0
LTYPE
  2
PHANTOM
 70
    64
  3
_____ _ _ _____ _ _ _____ _ _ _____ _ _ ____
 72
    65
 73
     6
 40
0.004167
 49
0.002083
 49
-0.000417
 49
0.000417
 49
-0.000417
 49
0.000417
 49
-0.000417
  0
LTYPE
  2
DOT
 70
    64
  3
...............................................
 72
    65
 73
     2
 40
0.000417
 49
0.000000
 49
-0.000417
  0
LTYPE
  2
DASHDOT
 70
    64
  3
__ . __ . __ . __ . __ . __ . __ . __ . __ . __
 72
    65
 73
     4
 40
0.001667
 49
0.000833
 49
-0.000417
 49
0.000000
 49
-0.000417
  0
LTYPE
  2
BORDER
 70
    64
  3
__ __ . __ __ . __ __ . __ __ . __ __ . __ __
 72
    65
 73
     6
 40
0.002917
 49
0.000833
 49
-0.000417
 49
0.000833
 49
-0.000417
 49
0.000000
 49
-0.000417
  0
LTYPE
  2
DIVIDE
 70
    64
  3
__ . . __ . . __ . . __ . . __ . . __ . . __
 72
    65
 73
     6
 40
0.002083
 49
0.000833
 49
-0.000417
 49
0.000000
 49
-0.000417
 49
0.000000
 49
-0.000417
  0
LTYPE
  2
DOTDOT
 70
    64
  3
 . .  . .  . .  . .  . .  . . 
 72
    65
 73
     5
 40
0.000917
 49
-0.000417
 49
0.000000
 49
-0.000417
 49
0.000000
 49
-0.000417
  0
ENDTAB
  0
TABLE
  2
STYLE
 70
     2
  0
STYLE
 70
     0
  2
SN0
 40
0.000000
 41
0.001667
 50
0.000000
 71
     0
 42
0.000000
  3
ROMAND
  0
STYLE
 70
    68
  2
SV0
 40
0.000000
 41
0.001667
 50
0.000000
 71
     0
 42
0.000000
  3
ROMAND
  0
ENDTAB
  0
TABLE
  2
LAYER
 70
     2
  0
LAYER
  2
FOREGROUND
 70
    64
 62
     7
  6
CONTINUOUS
  0
LAYER
  2
BACKGROUND
 70
    65
 62
    -7
  6
CONTINUOUS
  0
ENDTAB
  0
ENDSEC
  0
SECTION
  2
ENTITIES
  0
POLYLINE
  8
FOREGROUND
 62
     7
  6
CONTINUOUS
 66
     1
 40
0.000000
 41
0.000000
 70
     1
  0
VERTEX
  8
FOREGROUND
 62
     7
  6
CONTINUOUS
 10
0.520000
 20
2.416667
  0
VERTEX
  8
FOREGROUND
 62
     7
  6
CONTINUOUS
 10
2.513333
 20
2.416667
  0
VERTEX
  8
FOREGROUND
 62
     7
  6
CONTINUOUS
 10
2.561667
 20
2.415000
  0
VERTEX
  8
FOREGROUND
 62
     7
  6
CONTINUOUS
 10
2.608333
 20
2.406667
  0
VERTEX
  8
FOREGROUND
 62
     7
  6
CONTINUOUS
 10
2.653333
 20
2.395000
  0
VERTEX
  8
FOREGROUND
 62
     7
  6
CONTINUOUS
 10
2.696667
 20
2.380000
  0
VERTEX
  8
FOREGROUND
 62
     7
  6
CONTINUOUS
 10
2.736667
 20
2.360000
  0
VERTEX
  8
FOREGROUND
 62
     7
  6
CONTINUOUS
 10
2.776667
 20
2.336667
  0
VERTEX
  8
FOREGROUND
 62
     7
  6
CONTINUOUS
 10
2.811667
 20
2.310000
  0
VERTEX
  8
FOREGROUND
 62
     7
  6
CONTINUOUS
 10
2.845000
 20
2.278333
  0
VERTEX
  8
FOREGROUND
 62
     7
  6
CONTINUOUS
 10
2.876667
 20
2.245000
  0
VERTEX
  8
FOREGROUND
 62
     7
  6
CONTINUOUS
 10
2.903333
 20
2.210000
  0
VERTEX
  8
FOREGROUND
 62
     7
  6
CONTINUOUS
 10
2.926667
 20
2.170000
  0
VERTEX
  8
FOREGROUND
 62
     7
  6
CONTINUOUS
 10
2.946667
 20
2.130000
  0
VERTEX
  8
FOREGROUND
 62
     7
  6
CONTINUOUS
 10
2.961667
 20
2.086667
  0
VERTEX
  8
FOREGROUND
 62
     7
  6
CONTINUOUS
 10
2.973333
 20
2.041667
  0
VERTEX
  8
FOREGROUND
 62
     7
  6
CONTINUOUS
 10
2.981667
 20
1.995000
  0
VERTEX
  8
FOREGROUND
 62
     7
  6
CONTINUOUS
 10
2.983333
 20
1.946667
  0
VERTEX
  8
FOREGROUND
 62
     7
  6
CONTINUOUS
 10
2.983333
 20
0.528333
  0
VERTEX
  8
FOREGROUND
 62
     7
  6
CONTINUOUS
 10
2.981667
 20
0.480000
  0
VERTEX
  8
FOREGROUND
 62
     7
  6
CONTINUOUS
 10
2.973333
 20
0.433333
  0
VERTEX
  8
FOREGROUND
 62
     7
  6
CONTINUOUS
 10
2.961667
 20
0.388333
  0
VERTEX
  8
FOREGROUND
 62
     7
  6
CONTINUOUS
 10
2.946667
 20
0.345000
  0
VERTEX
  8
FOREGROUND
 62
     7
  6
CONTINUOUS
 10
2.926667
 20
0.305000
  0
VERTEX
  8
FOREGROUND
 62
     7
  6
CONTINUOUS
 10
2.903333
 20
0.265000
  0
VERTEX
  8
FOREGROUND
 62
     7
  6
CONTINUOUS
 10
2.876667
 20
0.230000
  0
VERTEX
  8
FOREGROUND
 62
     7
  6
CONTINUOUS
 10
2.845000
 20
0.196667
  0
VERTEX
  8
FOREGROUND
 62
     7
  6
CONTINUOUS
 10
2.811667
 20
0.165000
  0
VERTEX
  8
FOREGROUND
 62
     7
  6
CONTINUOUS
 10
2.776667
 20
0.138333
  0
VERTEX
  8
FOREGROUND
 62
     7
  6
CONTINUOUS
 10
2.736667
 20
0.115000
  0
VERTEX
  8
FOREGROUND
 62
     7
  6
CONTINUOUS
 10
2.696667
 20
0.095000
  0
VERTEX
  8
FOREGROUND
 62
     7
  6
CONTINUOUS
 10
2.653333
 20
0.080000
  0
VERTEX
  8
FOREGROUND
 62
     7
  6
CONTINUOUS
 10
2.608333
 20
0.068333
  0
VERTEX
  8
FOREGROUND
 62
     7
  6
CONTINUOUS
 10
2.561667
 20
0.060000
  0
VERTEX
  8
FOREGROUND
 62
     7
  6
CONTINUOUS
 10
2.513333
 20
0.058333
  0
VERTEX
  8
FOREGROUND
 62
     7
  6
CONTINUOUS
 10
0.520000
 20
0.058333
  0
VERTEX
  8
FOREGROUND
 62
     7
  6
CONTINUOUS
 10
0.471667
 20
0.060000
  0
VERTEX
  8
FOREGROUND
 62
     7
  6
CONTINUOUS
 10
0.425000
 20
0.068333
  0
VERTEX
  8
FOREGROUND
 62
     7
  6
CONTINUOUS
 10
0.380000
 20
0.080000
  0
VERTEX
  8
FOREGROUND
 62
     7
  6
CONTINUOUS
 10
0.336667
 20
0.095000
  0
VERTEX
  8
FOREGROUND
 62
     7
  6
CONTINUOUS
 10
0.296667
 20
0.115000
  0
VERTEX
  8
FOREGROUND
 62
     7
  6
CONTINUOUS
 10
0.256667
 20
0.138333
  0
VERTEX
  8
FOREGROUND
 62
     7
  6
CONTINUOUS
 10
0.221667
 20
0.165000
  0
VERTEX
  8
FOREGROUND
 62
     7
  6
CONTINUOUS
 10
0.188333
 20
0.196667
  0
VERTEX
  8
FOREGROUND
 62
     7
  6
CONTINUOUS
 10
0.156667
 20
0.230000
  0
VERTEX
  8
FOREGROUND
 62
     7
  6
CONTINUOUS
 10
0.130000
 20
0.265000
  0
VERTEX
  8
FOREGROUND
 62
     7
  6
CONTINUOUS
 10
0.106667
 20
0.305000
  0
VERTEX
  8
FOREGROUND
 62
     7
  6
CONTINUOUS
 10
0.086667
 20
0.345000
  0
VERTEX
  8
FOREGROUND
 62
     7
  6
CONTINUOUS
 10
0.071667
 20
0.388333
  0
VERTEX
  8
FOREGROUND
 62
     7
  6
CONTINUOUS
 10
0.060000
 20
0.433333
  0
VERTEX
  8
FOREGROUND
 62
     7
  6
CONTINUOUS
 10
0.051667
 20
0.480000
  0
VERTEX
  8
FOREGROUND
 62
     7
  6
CONTINUOUS
 10
0.050000
 20
0.528333
  0
VERTEX
  8
FOREGROUND
 62
     7
  6
CONTINUOUS
 10
0.050000
 20
1.946667
  0
VERTEX
  8
FOREGROUND
 62
     7
  6
CONTINUOUS
 10
0.051667
 20
1.995000
  0
VERTEX
  8
FOREGROUND
 62
     7
  6
CONTINUOUS
 10
0.060000
 20
2.041667
  0
VERTEX
  8
FOREGROUND
 62
     7
  6
CONTINUOUS
 10
0.071667
 20
2.086667
  0
VERTEX
  8
FOREGROUND
 62
     7
  6
CONTINUOUS
 10
0.086667
 20
2.130000
  0
VERTEX
  8
FOREGROUND
 62
     7
  6
CONTINUOUS
 10
0.106667
 20
2.170000
  0
VERTEX
  8
FOREGROUND
 62
     7
  6
CONTINUOUS
 10
0.130000
 20
2.210000
  0
VERTEX
  8
FOREGROUND
 62
     7
  6
CONTINUOUS
 10
0.156667
 20
2.245000
  0
VERTEX
  8
FOREGROUND
 62
     7
  6
CONTINUOUS
 10
0.188333
 20
2.278333
  0
VERTEX
  8
FOREGROUND
 62
     7
  6
CONTINUOUS
 10
0.221667
 20
2.310000
  0
VERTEX
  8
FOREGROUND
 62
     7
  6
CONTINUOUS
 10
0.256667
 20
2.336667
  0
VERTEX
  8
FOREGROUND
 62
     7
  6
CONTINUOUS
 10
0.296667
 20
2.360000
  0
VERTEX
  8
FOREGROUND
 62
     7
  6
CONTINUOUS
 10
0.336667
 20
2.380000
  0
VERTEX
  8
FOREGROUND
 62
     7
  6
CONTINUOUS
 10
0.380000
 20
2.395000
  0
VERTEX
  8
FOREGROUND
 62
     7
  6
CONTINUOUS
 10
0.425000
 20
2.406667
  0
VERTEX
  8
FOREGROUND
 62
     7
  6
CONTINUOUS
 10
0.471667
 20
2.415000
  0
SEQEND
  8
0
  0
POLYLINE
  8
FOREGROUND
  6
CONTINUOUS
 66
     1
 40
0.010000
 41
0.010000
 70
     1
  0
VERTEX
  8
FOREGROUND
  6
CONTINUOUS
 10
0.520000
 20
2.416667
  0
VERTEX
  8
FOREGROUND
  6
CONTINUOUS
 10
2.513333
 20
2.416667
  0
VERTEX
  8
FOREGROUND
  6
CONTINUOUS
 10
2.561667
 20
2.415000
  0
VERTEX
  8
FOREGROUND
  6
CONTINUOUS
 10
2.608333
 20
2.406667
  0
VERTEX
  8
FOREGROUND
  6
CONTINUOUS
 10
2.653333
 20
2.395000
  0
VERTEX
  8
FOREGROUND
  6
CONTINUOUS
 10
2.696667
 20
2.380000
  0
VERTEX
  8
FOREGROUND
  6
CONTINUOUS
 10
2.736667
 20
2.360000
  0
VERTEX
  8
FOREGROUND
  6
CONTINUOUS
 10
2.776667
 20
2.336667
  0
VERTEX
  8
FOREGROUND
  6
CONTINUOUS
 10
2.811667
 20
2.310000
  0
VERTEX
  8
FOREGROUND
  6
CONTINUOUS
 10
2.845000
 20
2.278333
  0
VERTEX
  8
FOREGROUND
  6
CONTINUOUS
 10
2.876667
 20
2.245000
  0
VERTEX
  8
FOREGROUND
  6
CONTINUOUS
 10
2.903333
 20
2.210000
  0
VERTEX
  8
FOREGROUND
  6
CONTINUOUS
 10
2.926667
 20
2.170000
  0
VERTEX
  8
FOREGROUND
  6
CONTINUOUS
 10
2.946667
 20
2.130000
  0
VERTEX
  8
FOREGROUND
  6
CONTINUOUS
 10
2.961667
 20
2.086667
  0
VERTEX
  8
FOREGROUND
  6
CONTINUOUS
 10
2.973333
 20
2.041667
  0
VERTEX
  8
FOREGROUND
  6
CONTINUOUS
 10
2.981667
 20
1.995000
  0
VERTEX
  8
FOREGROUND
  6
CONTINUOUS
 10
2.983333
 20
1.946667
  0
VERTEX
  8
FOREGROUND
  6
CONTINUOUS
 10
2.983333
 20
0.528333
  0
VERTEX
  8
FOREGROUND
  6
CONTINUOUS
 10
2.981667
 20
0.480000
  0
VERTEX
  8
FOREGROUND
  6
CONTINUOUS
 10
2.973333
 20
0.433333
  0
VERTEX
  8
FOREGROUND
  6
CONTINUOUS
 10
2.961667
 20
0.388333
  0
VERTEX
  8
FOREGROUND
  6
CONTINUOUS
 10
2.946667
 20
0.345000
  0
VERTEX
  8
FOREGROUND
  6
CONTINUOUS
 10
2.926667
 20
0.305000
  0
VERTEX
  8
FOREGROUND
  6
CONTINUOUS
 10
2.903333
 20
0.265000
  0
VERTEX
  8
FOREGROUND
  6
CONTINUOUS
 10
2.876667
 20
0.230000
  0
VERTEX
  8
FOREGROUND
  6
CONTINUOUS
 10
2.845000
 20
0.196667
  0
VERTEX
  8
FOREGROUND
  6
CONTINUOUS
 10
2.811667
 20
0.165000
  0
VERTEX
  8
FOREGROUND
  6
CONTINUOUS
 10
2.776667
 20
0.138333
  0
VERTEX
  8
FOREGROUND
  6
CONTINUOUS
 10
2.736667
 20
0.115000
  0
VERTEX
  8
FOREGROUND
  6
CONTINUOUS
 10
2.696667
 20
0.095000
  0
VERTEX
  8
FOREGROUND
  6
CONTINUOUS
 10
2.653333
 20
0.080000
  0
VERTEX
  8
FOREGROUND
  6
CONTINUOUS
 10
2.608333
 20
0.068333
  0
VERTEX
  8
FOREGROUND
  6
CONTINUOUS
 10
2.561667
 20
0.060000
  0
VERTEX
  8
FOREGROUND
  6
CONTINUOUS
 10
2.513333
 20
0.058333
  0
VERTEX
  8
FOREGROUND
  6
CONTINUOUS
 10
0.520000
 20
0.058333
  0
VERTEX
  8
FOREGROUND
  6
CONTINUOUS
 10
0.471667
 20
0.060000
  0
VERTEX
  8
FOREGROUND
  6
CONTINUOUS
 10
0.425000
 20
0.068333
  0
VERTEX
  8
FOREGROUND
  6
CONTINUOUS
 10
0.380000
 20
0.080000
  0
VERTEX
  8
FOREGROUND
  6
CONTINUOUS
 10
0.336667
 20
0.095000
  0
VERTEX
  8
FOREGROUND
  6
CONTINUOUS
 10
0.296667
 20
0.115000
  0
VERTEX
  8
FOREGROUND
  6
CONTINUOUS
 10
0.256667
 20
0.138333
  0
VERTEX
  8
FOREGROUND
  6
CONTINUOUS
 10
0.221667
 20
0.165000
  0
VERTEX
  8
FOREGROUND
  6
CONTINUOUS
 10
0.188333
 20
0.196667
  0
VERTEX
  8
FOREGROUND
  6
CONTINUOUS
 10
0.156667
 20
0.230000
  0
VERTEX
  8
FOREGROUND
  6
CONTINUOUS
 10
0.130000
 20
0.265000
  0
VERTEX
  8
FOREGROUND
  6
CONTINUOUS
 10
0.106667
 20
0.305000
  0
VERTEX
  8
FOREGROUND
  6
CONTINUOUS
 10
0.086667
 20
0.345000
  0
VERTEX
  8
FOREGROUND
  6
CONTINUOUS
 10
0.071667
 20
0.388333
  0
VERTEX
  8
FOREGROUND
  6
CONTINUOUS
 10
0.060000
 20
0.433333
  0
VERTEX
  8
FOREGROUND
  6
CONTINUOUS
 10
0.051667
 20
0.480000
  0
VERTEX
  8
FOREGROUND
  6
CONTINUOUS
 10
0.050000
 20
0.528333
  0
VERTEX
  8
FOREGROUND
  6
CONTINUOUS
 10
0.050000
 20
1.946667
  0
VERTEX
  8
FOREGROUND
  6
CONTINUOUS
 10
0.051667
 20
1.995000
  0
VERTEX
  8
FOREGROUND
  6
CONTINUOUS
 10
0.060000
 20
2.041667
  0
VERTEX
  8
FOREGROUND
  6
CONTINUOUS
 10
0.071667
 20
2.086667
  0
VERTEX
  8
FOREGROUND
  6
CONTINUOUS
 10
0.086667
 20
2.130000
  0
VERTEX
  8
FOREGROUND
  6
CONTINUOUS
 10
0.106667
 20
2.170000
  0
VERTEX
  8
FOREGROUND
  6
CONTINUOUS
 10
0.130000
 20
2.210000
  0
VERTEX
  8
FOREGROUND
  6
CONTINUOUS
 10
0.156667
 20
2.245000
  0
VERTEX
  8
FOREGROUND
  6
CONTINUOUS
 10
0.188333
 20
2.278333
  0
VERTEX
  8
FOREGROUND
  6
CONTINUOUS
 10
0.221667
 20
2.310000
  0
VERTEX
  8
FOREGROUND
  6
CONTINUOUS
 10
0.256667
 20
2.336667
  0
VERTEX
  8
FOREGROUND
  6
CONTINUOUS
 10
0.296667
 20
2.360000
  0
VERTEX
  8
FOREGROUND
  6
CONTINUOUS
 10
0.336667
 20
2.380000
  0
VERTEX
  8
FOREGROUND
  6
CONTINUOUS
 10
0.380000
 20
2.395000
  0
VERTEX
  8
FOREGROUND
  6
CONTINUOUS
 10
0.425000
 20
2.406667
  0
VERTEX
  8
FOREGROUND
  6
CONTINUOUS
 10
0.471667
 20
2.415000
  0
SEQEND
  8
0
  0
ENDSEC
  0
EOF
