  0
SECTION
  2
HEADER
  9
$ACADVER
  1
AC1006
  9
$EXTMIN
 10
0.000000
 20
0.000000
  9
$EXTMAX
 10
2.993333
 20
7.316667
  9
$LTSCALE
 40
0.166667
  9
$PDMODE
 70
    35
  9
$PDSIZE
 40
0.133333
  0
ENDSEC
  0
SECTION
  2
TABLES
  0
TABLE
  2
LTYPE
 70
     9
  0
LTYPE
  2
CONTINUOUS
 70
    64
  3
Solid line
 72
    65
 73
     0
 40
0.000000
  0
LTYPE
  2
DASHED
 70
    64
  3
__ __ __ __ __ __ __ __ __ __ __ __ __ __ __
 72
    65
 73
     2
 40
0.001250
 49
0.000833
 49
-0.000417
  0
LTYPE
  2
HIDDEN
 70
    64
  3
 _ _ _ _ _ _ _ _ _ _ _ _ _ _ _ _ _ _ _ _ _ _
 72
    65
 73
     2
 40
0.000625
 49
0.000417
 49
-0.000208
  0
LTYPE
  2
CENTER
 70
    64
  3
____ _ ____ _ ____ _ ____ _ ____ _ ____ _ ____
 72
    65
 73
     4
 40
0.003333
 49
0.002083
 49
-0.000417
 49
0.000417
 49
-0.000417
  0
LTYPE
  2
PHANTOM
 70
    64
  3
_____ _ _ _____ _ _ _____ _ _ _____ _ _ ____
 72
    65
 73
     6
 40
0.004167
 49
0.002083
 49
-0.000417
 49
0.000417
 49
-0.000417
 49
0.000417
 49
-0.000417
  0
LTYPE
  2
DOT
 70
    64
  3
...............................................
 72
    65
 73
     2
 40
0.000417
 49
0.000000
 49
-0.000417
  0
LTYPE
  2
DASHDOT
 70
    64
  3
__ . __ . __ . __ . __ . __ . __ . __ . __ . __
 72
    65
 73
     4
 40
0.001667
 49
0.000833
 49
-0.000417
 49
0.000000
 49
-0.000417
  0
LTYPE
  2
BORDER
 70
    64
  3
__ __ . __ __ . __ __ . __ __ . __ __ . __ __
 72
    65
 73
     6
 40
0.002917
 49
0.000833
 49
-0.000417
 49
0.000833
 49
-0.000417
 49
0.000000
 49
-0.000417
  0
LTYPE
  2
DIVIDE
 70
    64
  3
__ . . __ . . __ . . __ . . __ . . __ . . __
 72
    65
 73
     6
 40
0.002083
 49
0.000833
 49
-0.000417
 49
0.000000
 49
-0.000417
 49
0.000000
 49
-0.000417
  0
LTYPE
  2
DOTDOT
 70
    64
  3
 . .  . .  . .  . .  . .  . . 
 72
    65
 73
     5
 40
0.000917
 49
-0.000417
 49
0.000000
 49
-0.000417
 49
0.000000
 49
-0.000417
  0
ENDTAB
  0
TABLE
  2
STYLE
 70
     2
  0
STYLE
 70
     0
  2
SN0
 40
0.000000
 41
0.001667
 50
0.000000
 71
     0
 42
0.000000
  3
ROMAND
  0
STYLE
 70
    68
  2
SV0
 40
0.000000
 41
0.001667
 50
0.000000
 71
     0
 42
0.000000
  3
ROMAND
  0
ENDTAB
  0
TABLE
  2
LAYER
 70
     2
  0
LAYER
  2
FOREGROUND
 70
    64
 62
     7
  6
CONTINUOUS
  0
LAYER
  2
BACKGROUND
 70
    65
 62
    -7
  6
CONTINUOUS
  0
ENDTAB
  0
ENDSEC
  0
SECTION
  2
ENTITIES
  0
POLYLINE
  8
FOREGROUND
 62
     7
  6
CONTINUOUS
 66
     1
 40
0.000000
 41
0.000000
 70
     1
  0
VERTEX
  8
FOREGROUND
 62
     7
  6
CONTINUOUS
 10
0.605000
 20
7.161667
  0
VERTEX
  8
FOREGROUND
 62
     7
  6
CONTINUOUS
 10
2.275000
 20
7.161667
  0
VERTEX
  8
FOREGROUND
 62
     7
  6
CONTINUOUS
 10
2.331667
 20
7.158333
  0
VERTEX
  8
FOREGROUND
 62
     7
  6
CONTINUOUS
 10
2.386667
 20
7.150000
  0
VERTEX
  8
FOREGROUND
 62
     7
  6
CONTINUOUS
 10
2.440000
 20
7.136667
  0
VERTEX
  8
FOREGROUND
 62
     7
  6
CONTINUOUS
 10
2.491667
 20
7.118333
  0
VERTEX
  8
FOREGROUND
 62
     7
  6
CONTINUOUS
 10
2.540000
 20
7.095000
  0
VERTEX
  8
FOREGROUND
 62
     7
  6
CONTINUOUS
 10
2.585000
 20
7.066667
  0
VERTEX
  8
FOREGROUND
 62
     7
  6
CONTINUOUS
 10
2.628333
 20
7.035000
  0
VERTEX
  8
FOREGROUND
 62
     7
  6
CONTINUOUS
 10
2.668333
 20
6.998333
  0
VERTEX
  8
FOREGROUND
 62
     7
  6
CONTINUOUS
 10
2.703333
 20
6.960000
  0
VERTEX
  8
FOREGROUND
 62
     7
  6
CONTINUOUS
 10
2.735000
 20
6.916667
  0
VERTEX
  8
FOREGROUND
 62
     7
  6
CONTINUOUS
 10
2.763333
 20
6.871667
  0
VERTEX
  8
FOREGROUND
 62
     7
  6
CONTINUOUS
 10
2.786667
 20
6.821667
  0
VERTEX
  8
FOREGROUND
 62
     7
  6
CONTINUOUS
 10
2.805000
 20
6.771667
  0
VERTEX
  8
FOREGROUND
 62
     7
  6
CONTINUOUS
 10
2.818333
 20
6.718333
  0
VERTEX
  8
FOREGROUND
 62
     7
  6
CONTINUOUS
 10
2.826667
 20
6.663333
  0
VERTEX
  8
FOREGROUND
 62
     7
  6
CONTINUOUS
 10
2.830000
 20
6.606667
  0
VERTEX
  8
FOREGROUND
 62
     7
  6
CONTINUOUS
 10
2.830000
 20
0.613333
  0
VERTEX
  8
FOREGROUND
 62
     7
  6
CONTINUOUS
 10
2.826667
 20
0.556667
  0
VERTEX
  8
FOREGROUND
 62
     7
  6
CONTINUOUS
 10
2.818333
 20
0.501667
  0
VERTEX
  8
FOREGROUND
 62
     7
  6
CONTINUOUS
 10
2.805000
 20
0.448333
  0
VERTEX
  8
FOREGROUND
 62
     7
  6
CONTINUOUS
 10
2.786667
 20
0.396667
  0
VERTEX
  8
FOREGROUND
 62
     7
  6
CONTINUOUS
 10
2.763333
 20
0.348333
  0
VERTEX
  8
FOREGROUND
 62
     7
  6
CONTINUOUS
 10
2.735000
 20
0.303333
  0
VERTEX
  8
FOREGROUND
 62
     7
  6
CONTINUOUS
 10
2.703333
 20
0.260000
  0
VERTEX
  8
FOREGROUND
 62
     7
  6
CONTINUOUS
 10
2.668333
 20
0.220000
  0
VERTEX
  8
FOREGROUND
 62
     7
  6
CONTINUOUS
 10
2.628333
 20
0.185000
  0
VERTEX
  8
FOREGROUND
 62
     7
  6
CONTINUOUS
 10
2.585000
 20
0.153333
  0
VERTEX
  8
FOREGROUND
 62
     7
  6
CONTINUOUS
 10
2.540000
 20
0.125000
  0
VERTEX
  8
FOREGROUND
 62
     7
  6
CONTINUOUS
 10
2.491667
 20
0.101667
  0
VERTEX
  8
FOREGROUND
 62
     7
  6
CONTINUOUS
 10
2.440000
 20
0.083333
  0
VERTEX
  8
FOREGROUND
 62
     7
  6
CONTINUOUS
 10
2.386667
 20
0.070000
  0
VERTEX
  8
FOREGROUND
 62
     7
  6
CONTINUOUS
 10
2.331667
 20
0.061667
  0
VERTEX
  8
FOREGROUND
 62
     7
  6
CONTINUOUS
 10
2.275000
 20
0.058333
  0
VERTEX
  8
FOREGROUND
 62
     7
  6
CONTINUOUS
 10
0.605000
 20
0.058333
  0
VERTEX
  8
FOREGROUND
 62
     7
  6
CONTINUOUS
 10
0.548333
 20
0.061667
  0
VERTEX
  8
FOREGROUND
 62
     7
  6
CONTINUOUS
 10
0.493333
 20
0.070000
  0
VERTEX
  8
FOREGROUND
 62
     7
  6
CONTINUOUS
 10
0.440000
 20
0.083333
  0
VERTEX
  8
FOREGROUND
 62
     7
  6
CONTINUOUS
 10
0.390000
 20
0.101667
  0
VERTEX
  8
FOREGROUND
 62
     7
  6
CONTINUOUS
 10
0.340000
 20
0.125000
  0
VERTEX
  8
FOREGROUND
 62
     7
  6
CONTINUOUS
 10
0.295000
 20
0.153333
  0
VERTEX
  8
FOREGROUND
 62
     7
  6
CONTINUOUS
 10
0.251667
 20
0.185000
  0
VERTEX
  8
FOREGROUND
 62
     7
  6
CONTINUOUS
 10
0.213333
 20
0.220000
  0
VERTEX
  8
FOREGROUND
 62
     7
  6
CONTINUOUS
 10
0.176667
 20
0.260000
  0
VERTEX
  8
FOREGROUND
 62
     7
  6
CONTINUOUS
 10
0.145000
 20
0.303333
  0
VERTEX
  8
FOREGROUND
 62
     7
  6
CONTINUOUS
 10
0.116667
 20
0.348333
  0
VERTEX
  8
FOREGROUND
 62
     7
  6
CONTINUOUS
 10
0.093333
 20
0.396667
  0
VERTEX
  8
FOREGROUND
 62
     7
  6
CONTINUOUS
 10
0.075000
 20
0.448333
  0
VERTEX
  8
FOREGROUND
 62
     7
  6
CONTINUOUS
 10
0.061667
 20
0.501667
  0
VERTEX
  8
FOREGROUND
 62
     7
  6
CONTINUOUS
 10
0.053333
 20
0.556667
  0
VERTEX
  8
FOREGROUND
 62
     7
  6
CONTINUOUS
 10
0.050000
 20
0.613333
  0
VERTEX
  8
FOREGROUND
 62
     7
  6
CONTINUOUS
 10
0.050000
 20
6.606667
  0
VERTEX
  8
FOREGROUND
 62
     7
  6
CONTINUOUS
 10
0.053333
 20
6.663333
  0
VERTEX
  8
FOREGROUND
 62
     7
  6
CONTINUOUS
 10
0.061667
 20
6.718333
  0
VERTEX
  8
FOREGROUND
 62
     7
  6
CONTINUOUS
 10
0.075000
 20
6.771667
  0
VERTEX
  8
FOREGROUND
 62
     7
  6
CONTINUOUS
 10
0.093333
 20
6.821667
  0
VERTEX
  8
FOREGROUND
 62
     7
  6
CONTINUOUS
 10
0.116667
 20
6.871667
  0
VERTEX
  8
FOREGROUND
 62
     7
  6
CONTINUOUS
 10
0.145000
 20
6.916667
  0
VERTEX
  8
FOREGROUND
 62
     7
  6
CONTINUOUS
 10
0.176667
 20
6.960000
  0
VERTEX
  8
FOREGROUND
 62
     7
  6
CONTINUOUS
 10
0.213333
 20
6.998333
  0
VERTEX
  8
FOREGROUND
 62
     7
  6
CONTINUOUS
 10
0.251667
 20
7.035000
  0
VERTEX
  8
FOREGROUND
 62
     7
  6
CONTINUOUS
 10
0.295000
 20
7.066667
  0
VERTEX
  8
FOREGROUND
 62
     7
  6
CONTINUOUS
 10
0.340000
 20
7.095000
  0
VERTEX
  8
FOREGROUND
 62
     7
  6
CONTINUOUS
 10
0.390000
 20
7.118333
  0
VERTEX
  8
FOREGROUND
 62
     7
  6
CONTINUOUS
 10
0.440000
 20
7.136667
  0
VERTEX
  8
FOREGROUND
 62
     7
  6
CONTINUOUS
 10
0.493333
 20
7.150000
  0
VERTEX
  8
FOREGROUND
 62
     7
  6
CONTINUOUS
 10
0.548333
 20
7.158333
  0
SEQEND
  8
0
  0
POLYLINE
  8
FOREGROUND
  6
CONTINUOUS
 66
     1
 40
0.010000
 41
0.010000
 70
     1
  0
VERTEX
  8
FOREGROUND
  6
CONTINUOUS
 10
0.605000
 20
7.161667
  0
VERTEX
  8
FOREGROUND
  6
CONTINUOUS
 10
2.275000
 20
7.161667
  0
VERTEX
  8
FOREGROUND
  6
CONTINUOUS
 10
2.331667
 20
7.158333
  0
VERTEX
  8
FOREGROUND
  6
CONTINUOUS
 10
2.386667
 20
7.150000
  0
VERTEX
  8
FOREGROUND
  6
CONTINUOUS
 10
2.440000
 20
7.136667
  0
VERTEX
  8
FOREGROUND
  6
CONTINUOUS
 10
2.491667
 20
7.118333
  0
VERTEX
  8
FOREGROUND
  6
CONTINUOUS
 10
2.540000
 20
7.095000
  0
VERTEX
  8
FOREGROUND
  6
CONTINUOUS
 10
2.585000
 20
7.066667
  0
VERTEX
  8
FOREGROUND
  6
CONTINUOUS
 10
2.628333
 20
7.035000
  0
VERTEX
  8
FOREGROUND
  6
CONTINUOUS
 10
2.668333
 20
6.998333
  0
VERTEX
  8
FOREGROUND
  6
CONTINUOUS
 10
2.703333
 20
6.960000
  0
VERTEX
  8
FOREGROUND
  6
CONTINUOUS
 10
2.735000
 20
6.916667
  0
VERTEX
  8
FOREGROUND
  6
CONTINUOUS
 10
2.763333
 20
6.871667
  0
VERTEX
  8
FOREGROUND
  6
CONTINUOUS
 10
2.786667
 20
6.821667
  0
VERTEX
  8
FOREGROUND
  6
CONTINUOUS
 10
2.805000
 20
6.771667
  0
VERTEX
  8
FOREGROUND
  6
CONTINUOUS
 10
2.818333
 20
6.718333
  0
VERTEX
  8
FOREGROUND
  6
CONTINUOUS
 10
2.826667
 20
6.663333
  0
VERTEX
  8
FOREGROUND
  6
CONTINUOUS
 10
2.830000
 20
6.606667
  0
VERTEX
  8
FOREGROUND
  6
CONTINUOUS
 10
2.830000
 20
0.613333
  0
VERTEX
  8
FOREGROUND
  6
CONTINUOUS
 10
2.826667
 20
0.556667
  0
VERTEX
  8
FOREGROUND
  6
CONTINUOUS
 10
2.818333
 20
0.501667
  0
VERTEX
  8
FOREGROUND
  6
CONTINUOUS
 10
2.805000
 20
0.448333
  0
VERTEX
  8
FOREGROUND
  6
CONTINUOUS
 10
2.786667
 20
0.396667
  0
VERTEX
  8
FOREGROUND
  6
CONTINUOUS
 10
2.763333
 20
0.348333
  0
VERTEX
  8
FOREGROUND
  6
CONTINUOUS
 10
2.735000
 20
0.303333
  0
VERTEX
  8
FOREGROUND
  6
CONTINUOUS
 10
2.703333
 20
0.260000
  0
VERTEX
  8
FOREGROUND
  6
CONTINUOUS
 10
2.668333
 20
0.220000
  0
VERTEX
  8
FOREGROUND
  6
CONTINUOUS
 10
2.628333
 20
0.185000
  0
VERTEX
  8
FOREGROUND
  6
CONTINUOUS
 10
2.585000
 20
0.153333
  0
VERTEX
  8
FOREGROUND
  6
CONTINUOUS
 10
2.540000
 20
0.125000
  0
VERTEX
  8
FOREGROUND
  6
CONTINUOUS
 10
2.491667
 20
0.101667
  0
VERTEX
  8
FOREGROUND
  6
CONTINUOUS
 10
2.440000
 20
0.083333
  0
VERTEX
  8
FOREGROUND
  6
CONTINUOUS
 10
2.386667
 20
0.070000
  0
VERTEX
  8
FOREGROUND
  6
CONTINUOUS
 10
2.331667
 20
0.061667
  0
VERTEX
  8
FOREGROUND
  6
CONTINUOUS
 10
2.275000
 20
0.058333
  0
VERTEX
  8
FOREGROUND
  6
CONTINUOUS
 10
0.605000
 20
0.058333
  0
VERTEX
  8
FOREGROUND
  6
CONTINUOUS
 10
0.548333
 20
0.061667
  0
VERTEX
  8
FOREGROUND
  6
CONTINUOUS
 10
0.493333
 20
0.070000
  0
VERTEX
  8
FOREGROUND
  6
CONTINUOUS
 10
0.440000
 20
0.083333
  0
VERTEX
  8
FOREGROUND
  6
CONTINUOUS
 10
0.390000
 20
0.101667
  0
VERTEX
  8
FOREGROUND
  6
CONTINUOUS
 10
0.340000
 20
0.125000
  0
VERTEX
  8
FOREGROUND
  6
CONTINUOUS
 10
0.295000
 20
0.153333
  0
VERTEX
  8
FOREGROUND
  6
CONTINUOUS
 10
0.251667
 20
0.185000
  0
VERTEX
  8
FOREGROUND
  6
CONTINUOUS
 10
0.213333
 20
0.220000
  0
VERTEX
  8
FOREGROUND
  6
CONTINUOUS
 10
0.176667
 20
0.260000
  0
VERTEX
  8
FOREGROUND
  6
CONTINUOUS
 10
0.145000
 20
0.303333
  0
VERTEX
  8
FOREGROUND
  6
CONTINUOUS
 10
0.116667
 20
0.348333
  0
VERTEX
  8
FOREGROUND
  6
CONTINUOUS
 10
0.093333
 20
0.396667
  0
VERTEX
  8
FOREGROUND
  6
CONTINUOUS
 10
0.075000
 20
0.448333
  0
VERTEX
  8
FOREGROUND
  6
CONTINUOUS
 10
0.061667
 20
0.501667
  0
VERTEX
  8
FOREGROUND
  6
CONTINUOUS
 10
0.053333
 20
0.556667
  0
VERTEX
  8
FOREGROUND
  6
CONTINUOUS
 10
0.050000
 20
0.613333
  0
VERTEX
  8
FOREGROUND
  6
CONTINUOUS
 10
0.050000
 20
6.606667
  0
VERTEX
  8
FOREGROUND
  6
CONTINUOUS
 10
0.053333
 20
6.663333
  0
VERTEX
  8
FOREGROUND
  6
CONTINUOUS
 10
0.061667
 20
6.718333
  0
VERTEX
  8
FOREGROUND
  6
CONTINUOUS
 10
0.075000
 20
6.771667
  0
VERTEX
  8
FOREGROUND
  6
CONTINUOUS
 10
0.093333
 20
6.821667
  0
VERTEX
  8
FOREGROUND
  6
CONTINUOUS
 10
0.116667
 20
6.871667
  0
VERTEX
  8
FOREGROUND
  6
CONTINUOUS
 10
0.145000
 20
6.916667
  0
VERTEX
  8
FOREGROUND
  6
CONTINUOUS
 10
0.176667
 20
6.960000
  0
VERTEX
  8
FOREGROUND
  6
CONTINUOUS
 10
0.213333
 20
6.998333
  0
VERTEX
  8
FOREGROUND
  6
CONTINUOUS
 10
0.251667
 20
7.035000
  0
VERTEX
  8
FOREGROUND
  6
CONTINUOUS
 10
0.295000
 20
7.066667
  0
VERTEX
  8
FOREGROUND
  6
CONTINUOUS
 10
0.340000
 20
7.095000
  0
VERTEX
  8
FOREGROUND
  6
CONTINUOUS
 10
0.390000
 20
7.118333
  0
VERTEX
  8
FOREGROUND
  6
CONTINUOUS
 10
0.440000
 20
7.136667
  0
VERTEX
  8
FOREGROUND
  6
CONTINUOUS
 10
0.493333
 20
7.150000
  0
VERTEX
  8
FOREGROUND
  6
CONTINUOUS
 10
0.548333
 20
7.158333
  0
SEQEND
  8
0
  0
ENDSEC
  0
EOF
