  0
SECTION
  2
HEADER
  9
$ACADVER
  1
AC1006
  9
$EXTMIN
 10
0.000000
 20
0.000000
  9
$EXTMAX
 10
2.983333
 20
8.105000
  9
$LTSCALE
 40
0.166667
  9
$PDMODE
 70
    35
  9
$PDSIZE
 40
0.133333
  0
ENDSEC
  0
SECTION
  2
TABLES
  0
TABLE
  2
LTYPE
 70
     9
  0
LTYPE
  2
CONTINUOUS
 70
    64
  3
Solid line
 72
    65
 73
     0
 40
0.000000
  0
LTYPE
  2
DASHED
 70
    64
  3
__ __ __ __ __ __ __ __ __ __ __ __ __ __ __
 72
    65
 73
     2
 40
0.001250
 49
0.000833
 49
-0.000417
  0
LTYPE
  2
HIDDEN
 70
    64
  3
 _ _ _ _ _ _ _ _ _ _ _ _ _ _ _ _ _ _ _ _ _ _
 72
    65
 73
     2
 40
0.000625
 49
0.000417
 49
-0.000208
  0
LTYPE
  2
CENTER
 70
    64
  3
____ _ ____ _ ____ _ ____ _ ____ _ ____ _ ____
 72
    65
 73
     4
 40
0.003333
 49
0.002083
 49
-0.000417
 49
0.000417
 49
-0.000417
  0
LTYPE
  2
PHANTOM
 70
    64
  3
_____ _ _ _____ _ _ _____ _ _ _____ _ _ ____
 72
    65
 73
     6
 40
0.004167
 49
0.002083
 49
-0.000417
 49
0.000417
 49
-0.000417
 49
0.000417
 49
-0.000417
  0
LTYPE
  2
DOT
 70
    64
  3
...............................................
 72
    65
 73
     2
 40
0.000417
 49
0.000000
 49
-0.000417
  0
LTYPE
  2
DASHDOT
 70
    64
  3
__ . __ . __ . __ . __ . __ . __ . __ . __ . __
 72
    65
 73
     4
 40
0.001667
 49
0.000833
 49
-0.000417
 49
0.000000
 49
-0.000417
  0
LTYPE
  2
BORDER
 70
    64
  3
__ __ . __ __ . __ __ . __ __ . __ __ . __ __
 72
    65
 73
     6
 40
0.002917
 49
0.000833
 49
-0.000417
 49
0.000833
 49
-0.000417
 49
0.000000
 49
-0.000417
  0
LTYPE
  2
DIVIDE
 70
    64
  3
__ . . __ . . __ . . __ . . __ . . __ . . __
 72
    65
 73
     6
 40
0.002083
 49
0.000833
 49
-0.000417
 49
0.000000
 49
-0.000417
 49
0.000000
 49
-0.000417
  0
LTYPE
  2
DOTDOT
 70
    64
  3
 . .  . .  . .  . .  . .  . . 
 72
    65
 73
     5
 40
0.000917
 49
-0.000417
 49
0.000000
 49
-0.000417
 49
0.000000
 49
-0.000417
  0
ENDTAB
  0
TABLE
  2
STYLE
 70
     2
  0
STYLE
 70
     0
  2
SN0
 40
0.000000
 41
0.001667
 50
0.000000
 71
     0
 42
0.000000
  3
ROMAND
  0
STYLE
 70
    68
  2
SV0
 40
0.000000
 41
0.001667
 50
0.000000
 71
     0
 42
0.000000
  3
ROMAND
  0
ENDTAB
  0
TABLE
  2
LAYER
 70
     2
  0
LAYER
  2
FOREGROUND
 70
    64
 62
     7
  6
CONTINUOUS
  0
LAYER
  2
BACKGROUND
 70
    65
 62
    -7
  6
CONTINUOUS
  0
ENDTAB
  0
ENDSEC
  0
SECTION
  2
ENTITIES
  0
POLYLINE
  8
FOREGROUND
 62
     7
  6
CONTINUOUS
 66
     1
 40
0.000000
 41
0.000000
 70
     1
  0
VERTEX
  8
FOREGROUND
 62
     7
  6
CONTINUOUS
 10
0.603333
 20
7.950000
  0
VERTEX
  8
FOREGROUND
 62
     7
  6
CONTINUOUS
 10
2.266667
 20
7.950000
  0
VERTEX
  8
FOREGROUND
 62
     7
  6
CONTINUOUS
 10
2.323333
 20
7.946667
  0
VERTEX
  8
FOREGROUND
 62
     7
  6
CONTINUOUS
 10
2.378333
 20
7.938333
  0
VERTEX
  8
FOREGROUND
 62
     7
  6
CONTINUOUS
 10
2.431667
 20
7.925000
  0
VERTEX
  8
FOREGROUND
 62
     7
  6
CONTINUOUS
 10
2.481667
 20
7.906667
  0
VERTEX
  8
FOREGROUND
 62
     7
  6
CONTINUOUS
 10
2.530000
 20
7.883333
  0
VERTEX
  8
FOREGROUND
 62
     7
  6
CONTINUOUS
 10
2.576667
 20
7.855000
  0
VERTEX
  8
FOREGROUND
 62
     7
  6
CONTINUOUS
 10
2.618333
 20
7.823333
  0
VERTEX
  8
FOREGROUND
 62
     7
  6
CONTINUOUS
 10
2.658333
 20
7.788333
  0
VERTEX
  8
FOREGROUND
 62
     7
  6
CONTINUOUS
 10
2.693333
 20
7.748333
  0
VERTEX
  8
FOREGROUND
 62
     7
  6
CONTINUOUS
 10
2.725000
 20
7.705000
  0
VERTEX
  8
FOREGROUND
 62
     7
  6
CONTINUOUS
 10
2.753333
 20
7.660000
  0
VERTEX
  8
FOREGROUND
 62
     7
  6
CONTINUOUS
 10
2.776667
 20
7.611667
  0
VERTEX
  8
FOREGROUND
 62
     7
  6
CONTINUOUS
 10
2.795000
 20
7.561667
  0
VERTEX
  8
FOREGROUND
 62
     7
  6
CONTINUOUS
 10
2.808333
 20
7.508333
  0
VERTEX
  8
FOREGROUND
 62
     7
  6
CONTINUOUS
 10
2.816667
 20
7.453333
  0
VERTEX
  8
FOREGROUND
 62
     7
  6
CONTINUOUS
 10
2.820000
 20
7.396667
  0
VERTEX
  8
FOREGROUND
 62
     7
  6
CONTINUOUS
 10
2.820000
 20
0.611667
  0
VERTEX
  8
FOREGROUND
 62
     7
  6
CONTINUOUS
 10
2.816667
 20
0.555000
  0
VERTEX
  8
FOREGROUND
 62
     7
  6
CONTINUOUS
 10
2.808333
 20
0.500000
  0
VERTEX
  8
FOREGROUND
 62
     7
  6
CONTINUOUS
 10
2.795000
 20
0.446667
  0
VERTEX
  8
FOREGROUND
 62
     7
  6
CONTINUOUS
 10
2.776667
 20
0.396667
  0
VERTEX
  8
FOREGROUND
 62
     7
  6
CONTINUOUS
 10
2.753333
 20
0.348333
  0
VERTEX
  8
FOREGROUND
 62
     7
  6
CONTINUOUS
 10
2.725000
 20
0.301667
  0
VERTEX
  8
FOREGROUND
 62
     7
  6
CONTINUOUS
 10
2.693333
 20
0.260000
  0
VERTEX
  8
FOREGROUND
 62
     7
  6
CONTINUOUS
 10
2.658333
 20
0.220000
  0
VERTEX
  8
FOREGROUND
 62
     7
  6
CONTINUOUS
 10
2.618333
 20
0.185000
  0
VERTEX
  8
FOREGROUND
 62
     7
  6
CONTINUOUS
 10
2.576667
 20
0.153333
  0
VERTEX
  8
FOREGROUND
 62
     7
  6
CONTINUOUS
 10
2.530000
 20
0.125000
  0
VERTEX
  8
FOREGROUND
 62
     7
  6
CONTINUOUS
 10
2.481667
 20
0.101667
  0
VERTEX
  8
FOREGROUND
 62
     7
  6
CONTINUOUS
 10
2.431667
 20
0.083333
  0
VERTEX
  8
FOREGROUND
 62
     7
  6
CONTINUOUS
 10
2.378333
 20
0.070000
  0
VERTEX
  8
FOREGROUND
 62
     7
  6
CONTINUOUS
 10
2.323333
 20
0.061667
  0
VERTEX
  8
FOREGROUND
 62
     7
  6
CONTINUOUS
 10
2.266667
 20
0.058333
  0
VERTEX
  8
FOREGROUND
 62
     7
  6
CONTINUOUS
 10
0.603333
 20
0.058333
  0
VERTEX
  8
FOREGROUND
 62
     7
  6
CONTINUOUS
 10
0.546667
 20
0.061667
  0
VERTEX
  8
FOREGROUND
 62
     7
  6
CONTINUOUS
 10
0.491667
 20
0.070000
  0
VERTEX
  8
FOREGROUND
 62
     7
  6
CONTINUOUS
 10
0.438333
 20
0.083333
  0
VERTEX
  8
FOREGROUND
 62
     7
  6
CONTINUOUS
 10
0.388333
 20
0.101667
  0
VERTEX
  8
FOREGROUND
 62
     7
  6
CONTINUOUS
 10
0.340000
 20
0.125000
  0
VERTEX
  8
FOREGROUND
 62
     7
  6
CONTINUOUS
 10
0.295000
 20
0.153333
  0
VERTEX
  8
FOREGROUND
 62
     7
  6
CONTINUOUS
 10
0.251667
 20
0.185000
  0
VERTEX
  8
FOREGROUND
 62
     7
  6
CONTINUOUS
 10
0.211667
 20
0.220000
  0
VERTEX
  8
FOREGROUND
 62
     7
  6
CONTINUOUS
 10
0.176667
 20
0.260000
  0
VERTEX
  8
FOREGROUND
 62
     7
  6
CONTINUOUS
 10
0.145000
 20
0.301667
  0
VERTEX
  8
FOREGROUND
 62
     7
  6
CONTINUOUS
 10
0.116667
 20
0.348333
  0
VERTEX
  8
FOREGROUND
 62
     7
  6
CONTINUOUS
 10
0.093333
 20
0.396667
  0
VERTEX
  8
FOREGROUND
 62
     7
  6
CONTINUOUS
 10
0.075000
 20
0.446667
  0
VERTEX
  8
FOREGROUND
 62
     7
  6
CONTINUOUS
 10
0.061667
 20
0.500000
  0
VERTEX
  8
FOREGROUND
 62
     7
  6
CONTINUOUS
 10
0.053333
 20
0.555000
  0
VERTEX
  8
FOREGROUND
 62
     7
  6
CONTINUOUS
 10
0.050000
 20
0.611667
  0
VERTEX
  8
FOREGROUND
 62
     7
  6
CONTINUOUS
 10
0.050000
 20
7.396667
  0
VERTEX
  8
FOREGROUND
 62
     7
  6
CONTINUOUS
 10
0.053333
 20
7.453333
  0
VERTEX
  8
FOREGROUND
 62
     7
  6
CONTINUOUS
 10
0.061667
 20
7.508333
  0
VERTEX
  8
FOREGROUND
 62
     7
  6
CONTINUOUS
 10
0.075000
 20
7.561667
  0
VERTEX
  8
FOREGROUND
 62
     7
  6
CONTINUOUS
 10
0.093333
 20
7.611667
  0
VERTEX
  8
FOREGROUND
 62
     7
  6
CONTINUOUS
 10
0.116667
 20
7.660000
  0
VERTEX
  8
FOREGROUND
 62
     7
  6
CONTINUOUS
 10
0.145000
 20
7.705000
  0
VERTEX
  8
FOREGROUND
 62
     7
  6
CONTINUOUS
 10
0.176667
 20
7.748333
  0
VERTEX
  8
FOREGROUND
 62
     7
  6
CONTINUOUS
 10
0.211667
 20
7.788333
  0
VERTEX
  8
FOREGROUND
 62
     7
  6
CONTINUOUS
 10
0.251667
 20
7.823333
  0
VERTEX
  8
FOREGROUND
 62
     7
  6
CONTINUOUS
 10
0.295000
 20
7.855000
  0
VERTEX
  8
FOREGROUND
 62
     7
  6
CONTINUOUS
 10
0.340000
 20
7.883333
  0
VERTEX
  8
FOREGROUND
 62
     7
  6
CONTINUOUS
 10
0.388333
 20
7.906667
  0
VERTEX
  8
FOREGROUND
 62
     7
  6
CONTINUOUS
 10
0.438333
 20
7.925000
  0
VERTEX
  8
FOREGROUND
 62
     7
  6
CONTINUOUS
 10
0.491667
 20
7.938333
  0
VERTEX
  8
FOREGROUND
 62
     7
  6
CONTINUOUS
 10
0.546667
 20
7.946667
  0
SEQEND
  8
0
  0
POLYLINE
  8
FOREGROUND
  6
CONTINUOUS
 66
     1
 40
0.010000
 41
0.010000
 70
     1
  0
VERTEX
  8
FOREGROUND
  6
CONTINUOUS
 10
0.603333
 20
7.950000
  0
VERTEX
  8
FOREGROUND
  6
CONTINUOUS
 10
2.266667
 20
7.950000
  0
VERTEX
  8
FOREGROUND
  6
CONTINUOUS
 10
2.323333
 20
7.946667
  0
VERTEX
  8
FOREGROUND
  6
CONTINUOUS
 10
2.378333
 20
7.938333
  0
VERTEX
  8
FOREGROUND
  6
CONTINUOUS
 10
2.431667
 20
7.925000
  0
VERTEX
  8
FOREGROUND
  6
CONTINUOUS
 10
2.481667
 20
7.906667
  0
VERTEX
  8
FOREGROUND
  6
CONTINUOUS
 10
2.530000
 20
7.883333
  0
VERTEX
  8
FOREGROUND
  6
CONTINUOUS
 10
2.576667
 20
7.855000
  0
VERTEX
  8
FOREGROUND
  6
CONTINUOUS
 10
2.618333
 20
7.823333
  0
VERTEX
  8
FOREGROUND
  6
CONTINUOUS
 10
2.658333
 20
7.788333
  0
VERTEX
  8
FOREGROUND
  6
CONTINUOUS
 10
2.693333
 20
7.748333
  0
VERTEX
  8
FOREGROUND
  6
CONTINUOUS
 10
2.725000
 20
7.705000
  0
VERTEX
  8
FOREGROUND
  6
CONTINUOUS
 10
2.753333
 20
7.660000
  0
VERTEX
  8
FOREGROUND
  6
CONTINUOUS
 10
2.776667
 20
7.611667
  0
VERTEX
  8
FOREGROUND
  6
CONTINUOUS
 10
2.795000
 20
7.561667
  0
VERTEX
  8
FOREGROUND
  6
CONTINUOUS
 10
2.808333
 20
7.508333
  0
VERTEX
  8
FOREGROUND
  6
CONTINUOUS
 10
2.816667
 20
7.453333
  0
VERTEX
  8
FOREGROUND
  6
CONTINUOUS
 10
2.820000
 20
7.396667
  0
VERTEX
  8
FOREGROUND
  6
CONTINUOUS
 10
2.820000
 20
0.611667
  0
VERTEX
  8
FOREGROUND
  6
CONTINUOUS
 10
2.816667
 20
0.555000
  0
VERTEX
  8
FOREGROUND
  6
CONTINUOUS
 10
2.808333
 20
0.500000
  0
VERTEX
  8
FOREGROUND
  6
CONTINUOUS
 10
2.795000
 20
0.446667
  0
VERTEX
  8
FOREGROUND
  6
CONTINUOUS
 10
2.776667
 20
0.396667
  0
VERTEX
  8
FOREGROUND
  6
CONTINUOUS
 10
2.753333
 20
0.348333
  0
VERTEX
  8
FOREGROUND
  6
CONTINUOUS
 10
2.725000
 20
0.301667
  0
VERTEX
  8
FOREGROUND
  6
CONTINUOUS
 10
2.693333
 20
0.260000
  0
VERTEX
  8
FOREGROUND
  6
CONTINUOUS
 10
2.658333
 20
0.220000
  0
VERTEX
  8
FOREGROUND
  6
CONTINUOUS
 10
2.618333
 20
0.185000
  0
VERTEX
  8
FOREGROUND
  6
CONTINUOUS
 10
2.576667
 20
0.153333
  0
VERTEX
  8
FOREGROUND
  6
CONTINUOUS
 10
2.530000
 20
0.125000
  0
VERTEX
  8
FOREGROUND
  6
CONTINUOUS
 10
2.481667
 20
0.101667
  0
VERTEX
  8
FOREGROUND
  6
CONTINUOUS
 10
2.431667
 20
0.083333
  0
VERTEX
  8
FOREGROUND
  6
CONTINUOUS
 10
2.378333
 20
0.070000
  0
VERTEX
  8
FOREGROUND
  6
CONTINUOUS
 10
2.323333
 20
0.061667
  0
VERTEX
  8
FOREGROUND
  6
CONTINUOUS
 10
2.266667
 20
0.058333
  0
VERTEX
  8
FOREGROUND
  6
CONTINUOUS
 10
0.603333
 20
0.058333
  0
VERTEX
  8
FOREGROUND
  6
CONTINUOUS
 10
0.546667
 20
0.061667
  0
VERTEX
  8
FOREGROUND
  6
CONTINUOUS
 10
0.491667
 20
0.070000
  0
VERTEX
  8
FOREGROUND
  6
CONTINUOUS
 10
0.438333
 20
0.083333
  0
VERTEX
  8
FOREGROUND
  6
CONTINUOUS
 10
0.388333
 20
0.101667
  0
VERTEX
  8
FOREGROUND
  6
CONTINUOUS
 10
0.340000
 20
0.125000
  0
VERTEX
  8
FOREGROUND
  6
CONTINUOUS
 10
0.295000
 20
0.153333
  0
VERTEX
  8
FOREGROUND
  6
CONTINUOUS
 10
0.251667
 20
0.185000
  0
VERTEX
  8
FOREGROUND
  6
CONTINUOUS
 10
0.211667
 20
0.220000
  0
VERTEX
  8
FOREGROUND
  6
CONTINUOUS
 10
0.176667
 20
0.260000
  0
VERTEX
  8
FOREGROUND
  6
CONTINUOUS
 10
0.145000
 20
0.301667
  0
VERTEX
  8
FOREGROUND
  6
CONTINUOUS
 10
0.116667
 20
0.348333
  0
VERTEX
  8
FOREGROUND
  6
CONTINUOUS
 10
0.093333
 20
0.396667
  0
VERTEX
  8
FOREGROUND
  6
CONTINUOUS
 10
0.075000
 20
0.446667
  0
VERTEX
  8
FOREGROUND
  6
CONTINUOUS
 10
0.061667
 20
0.500000
  0
VERTEX
  8
FOREGROUND
  6
CONTINUOUS
 10
0.053333
 20
0.555000
  0
VERTEX
  8
FOREGROUND
  6
CONTINUOUS
 10
0.050000
 20
0.611667
  0
VERTEX
  8
FOREGROUND
  6
CONTINUOUS
 10
0.050000
 20
7.396667
  0
VERTEX
  8
FOREGROUND
  6
CONTINUOUS
 10
0.053333
 20
7.453333
  0
VERTEX
  8
FOREGROUND
  6
CONTINUOUS
 10
0.061667
 20
7.508333
  0
VERTEX
  8
FOREGROUND
  6
CONTINUOUS
 10
0.075000
 20
7.561667
  0
VERTEX
  8
FOREGROUND
  6
CONTINUOUS
 10
0.093333
 20
7.611667
  0
VERTEX
  8
FOREGROUND
  6
CONTINUOUS
 10
0.116667
 20
7.660000
  0
VERTEX
  8
FOREGROUND
  6
CONTINUOUS
 10
0.145000
 20
7.705000
  0
VERTEX
  8
FOREGROUND
  6
CONTINUOUS
 10
0.176667
 20
7.748333
  0
VERTEX
  8
FOREGROUND
  6
CONTINUOUS
 10
0.211667
 20
7.788333
  0
VERTEX
  8
FOREGROUND
  6
CONTINUOUS
 10
0.251667
 20
7.823333
  0
VERTEX
  8
FOREGROUND
  6
CONTINUOUS
 10
0.295000
 20
7.855000
  0
VERTEX
  8
FOREGROUND
  6
CONTINUOUS
 10
0.340000
 20
7.883333
  0
VERTEX
  8
FOREGROUND
  6
CONTINUOUS
 10
0.388333
 20
7.906667
  0
VERTEX
  8
FOREGROUND
  6
CONTINUOUS
 10
0.438333
 20
7.925000
  0
VERTEX
  8
FOREGROUND
  6
CONTINUOUS
 10
0.491667
 20
7.938333
  0
VERTEX
  8
FOREGROUND
  6
CONTINUOUS
 10
0.546667
 20
7.946667
  0
SEQEND
  8
0
  0
ENDSEC
  0
EOF
