  0
SECTION
  2
HEADER
  9
$ACADVER
  1
AC1006
  9
$EXTMIN
 10
0.000000
 20
0.000000
  9
$EXTMAX
 10
2.863333
 20
2.866667
  9
$LTSCALE
 40
0.166667
  9
$PDMODE
 70
    35
  9
$PDSIZE
 40
0.133333
  0
ENDSEC
  0
SECTION
  2
TABLES
  0
TABLE
  2
LTYPE
 70
     9
  0
LTYPE
  2
CONTINUOUS
 70
    64
  3
Solid line
 72
    65
 73
     0
 40
0.000000
  0
LTYPE
  2
DASHED
 70
    64
  3
__ __ __ __ __ __ __ __ __ __ __ __ __ __ __
 72
    65
 73
     2
 40
0.001250
 49
0.000833
 49
-0.000417
  0
LTYPE
  2
HIDDEN
 70
    64
  3
 _ _ _ _ _ _ _ _ _ _ _ _ _ _ _ _ _ _ _ _ _ _
 72
    65
 73
     2
 40
0.000625
 49
0.000417
 49
-0.000208
  0
LTYPE
  2
CENTER
 70
    64
  3
____ _ ____ _ ____ _ ____ _ ____ _ ____ _ ____
 72
    65
 73
     4
 40
0.003333
 49
0.002083
 49
-0.000417
 49
0.000417
 49
-0.000417
  0
LTYPE
  2
PHANTOM
 70
    64
  3
_____ _ _ _____ _ _ _____ _ _ _____ _ _ ____
 72
    65
 73
     6
 40
0.004167
 49
0.002083
 49
-0.000417
 49
0.000417
 49
-0.000417
 49
0.000417
 49
-0.000417
  0
LTYPE
  2
DOT
 70
    64
  3
...............................................
 72
    65
 73
     2
 40
0.000417
 49
0.000000
 49
-0.000417
  0
LTYPE
  2
DASHDOT
 70
    64
  3
__ . __ . __ . __ . __ . __ . __ . __ . __ . __
 72
    65
 73
     4
 40
0.001667
 49
0.000833
 49
-0.000417
 49
0.000000
 49
-0.000417
  0
LTYPE
  2
BORDER
 70
    64
  3
__ __ . __ __ . __ __ . __ __ . __ __ . __ __
 72
    65
 73
     6
 40
0.002917
 49
0.000833
 49
-0.000417
 49
0.000833
 49
-0.000417
 49
0.000000
 49
-0.000417
  0
LTYPE
  2
DIVIDE
 70
    64
  3
__ . . __ . . __ . . __ . . __ . . __ . . __
 72
    65
 73
     6
 40
0.002083
 49
0.000833
 49
-0.000417
 49
0.000000
 49
-0.000417
 49
0.000000
 49
-0.000417
  0
LTYPE
  2
DOTDOT
 70
    64
  3
 . .  . .  . .  . .  . .  . . 
 72
    65
 73
     5
 40
0.000917
 49
-0.000417
 49
0.000000
 49
-0.000417
 49
0.000000
 49
-0.000417
  0
ENDTAB
  0
TABLE
  2
STYLE
 70
     2
  0
STYLE
 70
     0
  2
SN0
 40
0.000000
 41
0.001667
 50
0.000000
 71
     0
 42
0.000000
  3
ROMAND
  0
STYLE
 70
    68
  2
SV0
 40
0.000000
 41
0.001667
 50
0.000000
 71
     0
 42
0.000000
  3
ROMAND
  0
ENDTAB
  0
TABLE
  2
LAYER
 70
     2
  0
LAYER
  2
FOREGROUND
 70
    64
 62
     7
  6
CONTINUOUS
  0
LAYER
  2
BACKGROUND
 70
    65
 62
    -7
  6
CONTINUOUS
  0
ENDTAB
  0
ENDSEC
  0
SECTION
  2
ENTITIES
  0
POLYLINE
  8
FOREGROUND
  6
CONTINUOUS
 66
     1
 40
0.010000
 41
0.010000
 70
     1
  0
VERTEX
  8
FOREGROUND
  6
CONTINUOUS
 10
2.260000
 20
0.050000
  0
VERTEX
  8
FOREGROUND
  6
CONTINUOUS
 10
2.279846
 20
0.050364
  0
VERTEX
  8
FOREGROUND
  6
CONTINUOUS
 10
2.299515
 20
0.051418
  0
VERTEX
  8
FOREGROUND
  6
CONTINUOUS
 10
2.318997
 20
0.053150
  0
VERTEX
  8
FOREGROUND
  6
CONTINUOUS
 10
2.338279
 20
0.055548
  0
VERTEX
  8
FOREGROUND
  6
CONTINUOUS
 10
2.357349
 20
0.058600
  0
VERTEX
  8
FOREGROUND
  6
CONTINUOUS
 10
2.376196
 20
0.062295
  0
VERTEX
  8
FOREGROUND
  6
CONTINUOUS
 10
2.394809
 20
0.066621
  0
VERTEX
  8
FOREGROUND
  6
CONTINUOUS
 10
2.413175
 20
0.071567
  0
VERTEX
  8
FOREGROUND
  6
CONTINUOUS
 10
2.431283
 20
0.077120
  0
VERTEX
  8
FOREGROUND
  6
CONTINUOUS
 10
2.449122
 20
0.083270
  0
VERTEX
  8
FOREGROUND
  6
CONTINUOUS
 10
2.466679
 20
0.090004
  0
VERTEX
  8
FOREGROUND
  6
CONTINUOUS
 10
2.483943
 20
0.097311
  0
VERTEX
  8
FOREGROUND
  6
CONTINUOUS
 10
2.500902
 20
0.105179
  0
VERTEX
  8
FOREGROUND
  6
CONTINUOUS
 10
2.517545
 20
0.113596
  0
VERTEX
  8
FOREGROUND
  6
CONTINUOUS
 10
2.533860
 20
0.122552
  0
VERTEX
  8
FOREGROUND
  6
CONTINUOUS
 10
2.549836
 20
0.132033
  0
VERTEX
  8
FOREGROUND
  6
CONTINUOUS
 10
2.565460
 20
0.142030
  0
VERTEX
  8
FOREGROUND
  6
CONTINUOUS
 10
2.580721
 20
0.152529
  0
VERTEX
  8
FOREGROUND
  6
CONTINUOUS
 10
2.595608
 20
0.163519
  0
VERTEX
  8
FOREGROUND
  6
CONTINUOUS
 10
2.610108
 20
0.174989
  0
VERTEX
  8
FOREGROUND
  6
CONTINUOUS
 10
2.624210
 20
0.186926
  0
VERTEX
  8
FOREGROUND
  6
CONTINUOUS
 10
2.637903
 20
0.199320
  0
VERTEX
  8
FOREGROUND
  6
CONTINUOUS
 10
2.651174
 20
0.212159
  0
VERTEX
  8
FOREGROUND
  6
CONTINUOUS
 10
2.664013
 20
0.225430
  0
VERTEX
  8
FOREGROUND
  6
CONTINUOUS
 10
2.676407
 20
0.239123
  0
VERTEX
  8
FOREGROUND
  6
CONTINUOUS
 10
2.688345
 20
0.253225
  0
VERTEX
  8
FOREGROUND
  6
CONTINUOUS
 10
2.699814
 20
0.267726
  0
VERTEX
  8
FOREGROUND
  6
CONTINUOUS
 10
2.710805
 20
0.282612
  0
VERTEX
  8
FOREGROUND
  6
CONTINUOUS
 10
2.721304
 20
0.297873
  0
VERTEX
  8
FOREGROUND
  6
CONTINUOUS
 10
2.731300
 20
0.313498
  0
VERTEX
  8
FOREGROUND
  6
CONTINUOUS
 10
2.740782
 20
0.329473
  0
VERTEX
  8
FOREGROUND
  6
CONTINUOUS
 10
2.749737
 20
0.345788
  0
VERTEX
  8
FOREGROUND
  6
CONTINUOUS
 10
2.758155
 20
0.362431
  0
VERTEX
  8
FOREGROUND
  6
CONTINUOUS
 10
2.766023
 20
0.379391
  0
VERTEX
  8
FOREGROUND
  6
CONTINUOUS
 10
2.773330
 20
0.396655
  0
VERTEX
  8
FOREGROUND
  6
CONTINUOUS
 10
2.780064
 20
0.414212
  0
VERTEX
  8
FOREGROUND
  6
CONTINUOUS
 10
2.786213
 20
0.432050
  0
VERTEX
  8
FOREGROUND
  6
CONTINUOUS
 10
2.791767
 20
0.450158
  0
VERTEX
  8
FOREGROUND
  6
CONTINUOUS
 10
2.796712
 20
0.468525
  0
VERTEX
  8
FOREGROUND
  6
CONTINUOUS
 10
2.801038
 20
0.487137
  0
VERTEX
  8
FOREGROUND
  6
CONTINUOUS
 10
2.804733
 20
0.505984
  0
VERTEX
  8
FOREGROUND
  6
CONTINUOUS
 10
2.807786
 20
0.525055
  0
VERTEX
  8
FOREGROUND
  6
CONTINUOUS
 10
2.810183
 20
0.544336
  0
VERTEX
  8
FOREGROUND
  6
CONTINUOUS
 10
2.811915
 20
0.563818
  0
VERTEX
  8
FOREGROUND
  6
CONTINUOUS
 10
2.812969
 20
0.583487
  0
VERTEX
  8
FOREGROUND
  6
CONTINUOUS
 10
2.813333
 20
0.603333
  0
VERTEX
  8
FOREGROUND
  6
CONTINUOUS
 10
2.813333
 20
2.263333
  0
VERTEX
  8
FOREGROUND
  6
CONTINUOUS
 10
2.812969
 20
2.283182
  0
VERTEX
  8
FOREGROUND
  6
CONTINUOUS
 10
2.811915
 20
2.302854
  0
VERTEX
  8
FOREGROUND
  6
CONTINUOUS
 10
2.810183
 20
2.322338
  0
VERTEX
  8
FOREGROUND
  6
CONTINUOUS
 10
2.807784
 20
2.341622
  0
VERTEX
  8
FOREGROUND
  6
CONTINUOUS
 10
2.804731
 20
2.360694
  0
VERTEX
  8
FOREGROUND
  6
CONTINUOUS
 10
2.801035
 20
2.379544
  0
VERTEX
  8
FOREGROUND
  6
CONTINUOUS
 10
2.796708
 20
2.398159
  0
VERTEX
  8
FOREGROUND
  6
CONTINUOUS
 10
2.791761
 20
2.416527
  0
VERTEX
  8
FOREGROUND
  6
CONTINUOUS
 10
2.786207
 20
2.434637
  0
VERTEX
  8
FOREGROUND
  6
CONTINUOUS
 10
2.780056
 20
2.452477
  0
VERTEX
  8
FOREGROUND
  6
CONTINUOUS
 10
2.773320
 20
2.470036
  0
VERTEX
  8
FOREGROUND
  6
CONTINUOUS
 10
2.766011
 20
2.487302
  0
VERTEX
  8
FOREGROUND
  6
CONTINUOUS
 10
2.758142
 20
2.504263
  0
VERTEX
  8
FOREGROUND
  6
CONTINUOUS
 10
2.749722
 20
2.520907
  0
VERTEX
  8
FOREGROUND
  6
CONTINUOUS
 10
2.740765
 20
2.537224
  0
VERTEX
  8
FOREGROUND
  6
CONTINUOUS
 10
2.731281
 20
2.553200
  0
VERTEX
  8
FOREGROUND
  6
CONTINUOUS
 10
2.721282
 20
2.568826
  0
VERTEX
  8
FOREGROUND
  6
CONTINUOUS
 10
2.710781
 20
2.584088
  0
VERTEX
  8
FOREGROUND
  6
CONTINUOUS
 10
2.699788
 20
2.598975
  0
VERTEX
  8
FOREGROUND
  6
CONTINUOUS
 10
2.688316
 20
2.613476
  0
VERTEX
  8
FOREGROUND
  6
CONTINUOUS
 10
2.676376
 20
2.627579
  0
VERTEX
  8
FOREGROUND
  6
CONTINUOUS
 10
2.663979
 20
2.641272
  0
VERTEX
  8
FOREGROUND
  6
CONTINUOUS
 10
2.651138
 20
2.654544
  0
VERTEX
  8
FOREGROUND
  6
CONTINUOUS
 10
2.637864
 20
2.667383
  0
VERTEX
  8
FOREGROUND
  6
CONTINUOUS
 10
2.624169
 20
2.679777
  0
VERTEX
  8
FOREGROUND
  6
CONTINUOUS
 10
2.610063
 20
2.691714
  0
VERTEX
  8
FOREGROUND
  6
CONTINUOUS
 10
2.595560
 20
2.703184
  0
VERTEX
  8
FOREGROUND
  6
CONTINUOUS
 10
2.580671
 20
2.714174
  0
VERTEX
  8
FOREGROUND
  6
CONTINUOUS
 10
2.565407
 20
2.724672
  0
VERTEX
  8
FOREGROUND
  6
CONTINUOUS
 10
2.549780
 20
2.734668
  0
VERTEX
  8
FOREGROUND
  6
CONTINUOUS
 10
2.533801
 20
2.744149
  0
VERTEX
  8
FOREGROUND
  6
CONTINUOUS
 10
2.517483
 20
2.753103
  0
VERTEX
  8
FOREGROUND
  6
CONTINUOUS
 10
2.500837
 20
2.761520
  0
VERTEX
  8
FOREGROUND
  6
CONTINUOUS
 10
2.483875
 20
2.769386
  0
VERTEX
  8
FOREGROUND
  6
CONTINUOUS
 10
2.466608
 20
2.776692
  0
VERTEX
  8
FOREGROUND
  6
CONTINUOUS
 10
2.449047
 20
2.783424
  0
VERTEX
  8
FOREGROUND
  6
CONTINUOUS
 10
2.431206
 20
2.789572
  0
VERTEX
  8
FOREGROUND
  6
CONTINUOUS
 10
2.413095
 20
2.795123
  0
VERTEX
  8
FOREGROUND
  6
CONTINUOUS
 10
2.394726
 20
2.800066
  0
VERTEX
  8
FOREGROUND
  6
CONTINUOUS
 10
2.376110
 20
2.804390
  0
VERTEX
  8
FOREGROUND
  6
CONTINUOUS
 10
2.357260
 20
2.808083
  0
VERTEX
  8
FOREGROUND
  6
CONTINUOUS
 10
2.338187
 20
2.811132
  0
VERTEX
  8
FOREGROUND
  6
CONTINUOUS
 10
2.318902
 20
2.813527
  0
VERTEX
  8
FOREGROUND
  6
CONTINUOUS
 10
2.299418
 20
2.815255
  0
VERTEX
  8
FOREGROUND
  6
CONTINUOUS
 10
2.279746
 20
2.816306
  0
VERTEX
  8
FOREGROUND
  6
CONTINUOUS
 10
2.259897
 20
2.816667
  0
VERTEX
  8
FOREGROUND
  6
CONTINUOUS
 10
0.603231
 20
2.816667
  0
VERTEX
  8
FOREGROUND
  6
CONTINUOUS
 10
0.583387
 20
2.816299
  0
VERTEX
  8
FOREGROUND
  6
CONTINUOUS
 10
0.563721
 20
2.815241
  0
VERTEX
  8
FOREGROUND
  6
CONTINUOUS
 10
0.544242
 20
2.813506
  0
VERTEX
  8
FOREGROUND
  6
CONTINUOUS
 10
0.524963
 20
2.811106
  0
VERTEX
  8
FOREGROUND
  6
CONTINUOUS
 10
0.505896
 20
2.808051
  0
VERTEX
  8
FOREGROUND
  6
CONTINUOUS
 10
0.487051
 20
2.804353
  0
VERTEX
  8
FOREGROUND
  6
CONTINUOUS
 10
0.468442
 20
2.800025
  0
VERTEX
  8
FOREGROUND
  6
CONTINUOUS
 10
0.450078
 20
2.795077
  0
VERTEX
  8
FOREGROUND
  6
CONTINUOUS
 10
0.431973
 20
2.789521
  0
VERTEX
  8
FOREGROUND
  6
CONTINUOUS
 10
0.414138
 20
2.783370
  0
VERTEX
  8
FOREGROUND
  6
CONTINUOUS
 10
0.396584
 20
2.776634
  0
VERTEX
  8
FOREGROUND
  6
CONTINUOUS
 10
0.379322
 20
2.769326
  0
VERTEX
  8
FOREGROUND
  6
CONTINUOUS
 10
0.362366
 20
2.761456
  0
VERTEX
  8
FOREGROUND
  6
CONTINUOUS
 10
0.345726
 20
2.753038
  0
VERTEX
  8
FOREGROUND
  6
CONTINUOUS
 10
0.329414
 20
2.744081
  0
VERTEX
  8
FOREGROUND
  6
CONTINUOUS
 10
0.313441
 20
2.734599
  0
VERTEX
  8
FOREGROUND
  6
CONTINUOUS
 10
0.297820
 20
2.724602
  0
VERTEX
  8
FOREGROUND
  6
CONTINUOUS
 10
0.282562
 20
2.714102
  0
VERTEX
  8
FOREGROUND
  6
CONTINUOUS
 10
0.267678
 20
2.703112
  0
VERTEX
  8
FOREGROUND
  6
CONTINUOUS
 10
0.253181
 20
2.691642
  0
VERTEX
  8
FOREGROUND
  6
CONTINUOUS
 10
0.239081
 20
2.679704
  0
VERTEX
  8
FOREGROUND
  6
CONTINUOUS
 10
0.225391
 20
2.667310
  0
VERTEX
  8
FOREGROUND
  6
CONTINUOUS
 10
0.212123
 20
2.654472
  0
VERTEX
  8
FOREGROUND
  6
CONTINUOUS
 10
0.199287
 20
2.641200
  0
VERTEX
  8
FOREGROUND
  6
CONTINUOUS
 10
0.186895
 20
2.627508
  0
VERTEX
  8
FOREGROUND
  6
CONTINUOUS
 10
0.174960
 20
2.613406
  0
VERTEX
  8
FOREGROUND
  6
CONTINUOUS
 10
0.163493
 20
2.598907
  0
VERTEX
  8
FOREGROUND
  6
CONTINUOUS
 10
0.152505
 20
2.584021
  0
VERTEX
  8
FOREGROUND
  6
CONTINUOUS
 10
0.142008
 20
2.568761
  0
VERTEX
  8
FOREGROUND
  6
CONTINUOUS
 10
0.132014
 20
2.553138
  0
VERTEX
  8
FOREGROUND
  6
CONTINUOUS
 10
0.122535
 20
2.537164
  0
VERTEX
  8
FOREGROUND
  6
CONTINUOUS
 10
0.113581
 20
2.520850
  0
VERTEX
  8
FOREGROUND
  6
CONTINUOUS
 10
0.105166
 20
2.504208
  0
VERTEX
  8
FOREGROUND
  6
CONTINUOUS
 10
0.097299
 20
2.487250
  0
VERTEX
  8
FOREGROUND
  6
CONTINUOUS
 10
0.089994
 20
2.469988
  0
VERTEX
  8
FOREGROUND
  6
CONTINUOUS
 10
0.083262
 20
2.452433
  0
VERTEX
  8
FOREGROUND
  6
CONTINUOUS
 10
0.077114
 20
2.434596
  0
VERTEX
  8
FOREGROUND
  6
CONTINUOUS
 10
0.071562
 20
2.416490
  0
VERTEX
  8
FOREGROUND
  6
CONTINUOUS
 10
0.066617
 20
2.398126
  0
VERTEX
  8
FOREGROUND
  6
CONTINUOUS
 10
0.062292
 20
2.379515
  0
VERTEX
  8
FOREGROUND
  6
CONTINUOUS
 10
0.058598
 20
2.360670
  0
VERTEX
  8
FOREGROUND
  6
CONTINUOUS
 10
0.055546
 20
2.341602
  0
VERTEX
  8
FOREGROUND
  6
CONTINUOUS
 10
0.053149
 20
2.322323
  0
VERTEX
  8
FOREGROUND
  6
CONTINUOUS
 10
0.051418
 20
2.302844
  0
VERTEX
  8
FOREGROUND
  6
CONTINUOUS
 10
0.050364
 20
2.283177
  0
VERTEX
  8
FOREGROUND
  6
CONTINUOUS
 10
0.050000
 20
2.263333
  0
VERTEX
  8
FOREGROUND
  6
CONTINUOUS
 10
0.050000
 20
0.603333
  0
VERTEX
  8
FOREGROUND
  6
CONTINUOUS
 10
0.050364
 20
0.583487
  0
VERTEX
  8
FOREGROUND
  6
CONTINUOUS
 10
0.051418
 20
0.563818
  0
VERTEX
  8
FOREGROUND
  6
CONTINUOUS
 10
0.053150
 20
0.544336
  0
VERTEX
  8
FOREGROUND
  6
CONTINUOUS
 10
0.055548
 20
0.525055
  0
VERTEX
  8
FOREGROUND
  6
CONTINUOUS
 10
0.058600
 20
0.505984
  0
VERTEX
  8
FOREGROUND
  6
CONTINUOUS
 10
0.062295
 20
0.487137
  0
VERTEX
  8
FOREGROUND
  6
CONTINUOUS
 10
0.066621
 20
0.468525
  0
VERTEX
  8
FOREGROUND
  6
CONTINUOUS
 10
0.071567
 20
0.450158
  0
VERTEX
  8
FOREGROUND
  6
CONTINUOUS
 10
0.077120
 20
0.432050
  0
VERTEX
  8
FOREGROUND
  6
CONTINUOUS
 10
0.083270
 20
0.414212
  0
VERTEX
  8
FOREGROUND
  6
CONTINUOUS
 10
0.090004
 20
0.396655
  0
VERTEX
  8
FOREGROUND
  6
CONTINUOUS
 10
0.097311
 20
0.379391
  0
VERTEX
  8
FOREGROUND
  6
CONTINUOUS
 10
0.105179
 20
0.362431
  0
VERTEX
  8
FOREGROUND
  6
CONTINUOUS
 10
0.113596
 20
0.345788
  0
VERTEX
  8
FOREGROUND
  6
CONTINUOUS
 10
0.122552
 20
0.329473
  0
VERTEX
  8
FOREGROUND
  6
CONTINUOUS
 10
0.132033
 20
0.313498
  0
VERTEX
  8
FOREGROUND
  6
CONTINUOUS
 10
0.142030
 20
0.297873
  0
VERTEX
  8
FOREGROUND
  6
CONTINUOUS
 10
0.152529
 20
0.282612
  0
VERTEX
  8
FOREGROUND
  6
CONTINUOUS
 10
0.163519
 20
0.267726
  0
VERTEX
  8
FOREGROUND
  6
CONTINUOUS
 10
0.174989
 20
0.253225
  0
VERTEX
  8
FOREGROUND
  6
CONTINUOUS
 10
0.186926
 20
0.239123
  0
VERTEX
  8
FOREGROUND
  6
CONTINUOUS
 10
0.199320
 20
0.225430
  0
VERTEX
  8
FOREGROUND
  6
CONTINUOUS
 10
0.212159
 20
0.212159
  0
VERTEX
  8
FOREGROUND
  6
CONTINUOUS
 10
0.225430
 20
0.199320
  0
VERTEX
  8
FOREGROUND
  6
CONTINUOUS
 10
0.239123
 20
0.186926
  0
VERTEX
  8
FOREGROUND
  6
CONTINUOUS
 10
0.253225
 20
0.174989
  0
VERTEX
  8
FOREGROUND
  6
CONTINUOUS
 10
0.267726
 20
0.163519
  0
VERTEX
  8
FOREGROUND
  6
CONTINUOUS
 10
0.282612
 20
0.152529
  0
VERTEX
  8
FOREGROUND
  6
CONTINUOUS
 10
0.297873
 20
0.142030
  0
VERTEX
  8
FOREGROUND
  6
CONTINUOUS
 10
0.313498
 20
0.132033
  0
VERTEX
  8
FOREGROUND
  6
CONTINUOUS
 10
0.329473
 20
0.122552
  0
VERTEX
  8
FOREGROUND
  6
CONTINUOUS
 10
0.345788
 20
0.113596
  0
VERTEX
  8
FOREGROUND
  6
CONTINUOUS
 10
0.362431
 20
0.105179
  0
VERTEX
  8
FOREGROUND
  6
CONTINUOUS
 10
0.379391
 20
0.097311
  0
VERTEX
  8
FOREGROUND
  6
CONTINUOUS
 10
0.396655
 20
0.090004
  0
VERTEX
  8
FOREGROUND
  6
CONTINUOUS
 10
0.414212
 20
0.083270
  0
VERTEX
  8
FOREGROUND
  6
CONTINUOUS
 10
0.432050
 20
0.077120
  0
VERTEX
  8
FOREGROUND
  6
CONTINUOUS
 10
0.450158
 20
0.071567
  0
VERTEX
  8
FOREGROUND
  6
CONTINUOUS
 10
0.468525
 20
0.066621
  0
VERTEX
  8
FOREGROUND
  6
CONTINUOUS
 10
0.487137
 20
0.062295
  0
VERTEX
  8
FOREGROUND
  6
CONTINUOUS
 10
0.505984
 20
0.058600
  0
VERTEX
  8
FOREGROUND
  6
CONTINUOUS
 10
0.525055
 20
0.055548
  0
VERTEX
  8
FOREGROUND
  6
CONTINUOUS
 10
0.544336
 20
0.053150
  0
VERTEX
  8
FOREGROUND
  6
CONTINUOUS
 10
0.563818
 20
0.051418
  0
VERTEX
  8
FOREGROUND
  6
CONTINUOUS
 10
0.583487
 20
0.050364
  0
VERTEX
  8
FOREGROUND
  6
CONTINUOUS
 10
0.603333
 20
0.050000
  0
SEQEND
  8
0
  0
ENDSEC
  0
EOF
