  0
SECTION
  2
HEADER
  9
$ACADVER
  1
AC1006
  9
$EXTMIN
 10
0.000000
 20
0.000000
  9
$EXTMAX
 10
3.573333
 20
2.775000
  9
$LTSCALE
 40
0.166667
  9
$PDMODE
 70
    35
  9
$PDSIZE
 40
0.133333
  0
ENDSEC
  0
SECTION
  2
TABLES
  0
TABLE
  2
LTYPE
 70
     9
  0
LTYPE
  2
CONTINUOUS
 70
    64
  3
Solid line
 72
    65
 73
     0
 40
0.000000
  0
LTYPE
  2
DASHED
 70
    64
  3
__ __ __ __ __ __ __ __ __ __ __ __ __ __ __
 72
    65
 73
     2
 40
0.001250
 49
0.000833
 49
-0.000417
  0
LTYPE
  2
HIDDEN
 70
    64
  3
 _ _ _ _ _ _ _ _ _ _ _ _ _ _ _ _ _ _ _ _ _ _
 72
    65
 73
     2
 40
0.000625
 49
0.000417
 49
-0.000208
  0
LTYPE
  2
CENTER
 70
    64
  3
____ _ ____ _ ____ _ ____ _ ____ _ ____ _ ____
 72
    65
 73
     4
 40
0.003333
 49
0.002083
 49
-0.000417
 49
0.000417
 49
-0.000417
  0
LTYPE
  2
PHANTOM
 70
    64
  3
_____ _ _ _____ _ _ _____ _ _ _____ _ _ ____
 72
    65
 73
     6
 40
0.004167
 49
0.002083
 49
-0.000417
 49
0.000417
 49
-0.000417
 49
0.000417
 49
-0.000417
  0
LTYPE
  2
DOT
 70
    64
  3
...............................................
 72
    65
 73
     2
 40
0.000417
 49
0.000000
 49
-0.000417
  0
LTYPE
  2
DASHDOT
 70
    64
  3
__ . __ . __ . __ . __ . __ . __ . __ . __ . __
 72
    65
 73
     4
 40
0.001667
 49
0.000833
 49
-0.000417
 49
0.000000
 49
-0.000417
  0
LTYPE
  2
BORDER
 70
    64
  3
__ __ . __ __ . __ __ . __ __ . __ __ . __ __
 72
    65
 73
     6
 40
0.002917
 49
0.000833
 49
-0.000417
 49
0.000833
 49
-0.000417
 49
0.000000
 49
-0.000417
  0
LTYPE
  2
DIVIDE
 70
    64
  3
__ . . __ . . __ . . __ . . __ . . __ . . __
 72
    65
 73
     6
 40
0.002083
 49
0.000833
 49
-0.000417
 49
0.000000
 49
-0.000417
 49
0.000000
 49
-0.000417
  0
LTYPE
  2
DOTDOT
 70
    64
  3
 . .  . .  . .  . .  . .  . . 
 72
    65
 73
     5
 40
0.000917
 49
-0.000417
 49
0.000000
 49
-0.000417
 49
0.000000
 49
-0.000417
  0
ENDTAB
  0
TABLE
  2
STYLE
 70
     2
  0
STYLE
 70
     0
  2
SN0
 40
0.000000
 41
0.001667
 50
0.000000
 71
     0
 42
0.000000
  3
ROMAND
  0
STYLE
 70
    68
  2
SV0
 40
0.000000
 41
0.001667
 50
0.000000
 71
     0
 42
0.000000
  3
ROMAND
  0
ENDTAB
  0
TABLE
  2
LAYER
 70
     2
  0
LAYER
  2
FOREGROUND
 70
    64
 62
     7
  6
CONTINUOUS
  0
LAYER
  2
BACKGROUND
 70
    65
 62
    -7
  6
CONTINUOUS
  0
ENDTAB
  0
ENDSEC
  0
SECTION
  2
ENTITIES
  0
POLYLINE
  8
FOREGROUND
 62
     7
  6
CONTINUOUS
 66
     1
 40
0.000000
 41
0.000000
 70
     1
  0
VERTEX
  8
FOREGROUND
 62
     7
  6
CONTINUOUS
 10
0.560000
 20
2.613333
  0
VERTEX
  8
FOREGROUND
 62
     7
  6
CONTINUOUS
 10
2.891667
 20
2.613333
  0
VERTEX
  8
FOREGROUND
 62
     7
  6
CONTINUOUS
 10
2.943333
 20
2.610000
  0
VERTEX
  8
FOREGROUND
 62
     7
  6
CONTINUOUS
 10
2.995000
 20
2.603333
  0
VERTEX
  8
FOREGROUND
 62
     7
  6
CONTINUOUS
 10
3.043333
 20
2.590000
  0
VERTEX
  8
FOREGROUND
 62
     7
  6
CONTINUOUS
 10
3.090000
 20
2.573333
  0
VERTEX
  8
FOREGROUND
 62
     7
  6
CONTINUOUS
 10
3.135000
 20
2.551667
  0
VERTEX
  8
FOREGROUND
 62
     7
  6
CONTINUOUS
 10
3.176667
 20
2.526667
  0
VERTEX
  8
FOREGROUND
 62
     7
  6
CONTINUOUS
 10
3.216667
 20
2.496667
  0
VERTEX
  8
FOREGROUND
 62
     7
  6
CONTINUOUS
 10
3.251667
 20
2.463333
  0
VERTEX
  8
FOREGROUND
 62
     7
  6
CONTINUOUS
 10
3.285000
 20
2.428333
  0
VERTEX
  8
FOREGROUND
 62
     7
  6
CONTINUOUS
 10
3.315000
 20
2.388333
  0
VERTEX
  8
FOREGROUND
 62
     7
  6
CONTINUOUS
 10
3.340000
 20
2.346667
  0
VERTEX
  8
FOREGROUND
 62
     7
  6
CONTINUOUS
 10
3.361667
 20
2.301667
  0
VERTEX
  8
FOREGROUND
 62
     7
  6
CONTINUOUS
 10
3.378333
 20
2.255000
  0
VERTEX
  8
FOREGROUND
 62
     7
  6
CONTINUOUS
 10
3.391667
 20
2.206667
  0
VERTEX
  8
FOREGROUND
 62
     7
  6
CONTINUOUS
 10
3.398333
 20
2.155000
  0
VERTEX
  8
FOREGROUND
 62
     7
  6
CONTINUOUS
 10
3.401667
 20
2.103333
  0
VERTEX
  8
FOREGROUND
 62
     7
  6
CONTINUOUS
 10
3.401667
 20
0.568333
  0
VERTEX
  8
FOREGROUND
 62
     7
  6
CONTINUOUS
 10
3.398333
 20
0.516667
  0
VERTEX
  8
FOREGROUND
 62
     7
  6
CONTINUOUS
 10
3.391667
 20
0.465000
  0
VERTEX
  8
FOREGROUND
 62
     7
  6
CONTINUOUS
 10
3.378333
 20
0.416667
  0
VERTEX
  8
FOREGROUND
 62
     7
  6
CONTINUOUS
 10
3.361667
 20
0.370000
  0
VERTEX
  8
FOREGROUND
 62
     7
  6
CONTINUOUS
 10
3.340000
 20
0.325000
  0
VERTEX
  8
FOREGROUND
 62
     7
  6
CONTINUOUS
 10
3.315000
 20
0.283333
  0
VERTEX
  8
FOREGROUND
 62
     7
  6
CONTINUOUS
 10
3.285000
 20
0.243333
  0
VERTEX
  8
FOREGROUND
 62
     7
  6
CONTINUOUS
 10
3.251667
 20
0.208333
  0
VERTEX
  8
FOREGROUND
 62
     7
  6
CONTINUOUS
 10
3.216667
 20
0.175000
  0
VERTEX
  8
FOREGROUND
 62
     7
  6
CONTINUOUS
 10
3.176667
 20
0.145000
  0
VERTEX
  8
FOREGROUND
 62
     7
  6
CONTINUOUS
 10
3.135000
 20
0.120000
  0
VERTEX
  8
FOREGROUND
 62
     7
  6
CONTINUOUS
 10
3.090000
 20
0.098333
  0
VERTEX
  8
FOREGROUND
 62
     7
  6
CONTINUOUS
 10
3.043333
 20
0.081667
  0
VERTEX
  8
FOREGROUND
 62
     7
  6
CONTINUOUS
 10
2.995000
 20
0.068333
  0
VERTEX
  8
FOREGROUND
 62
     7
  6
CONTINUOUS
 10
2.943333
 20
0.061667
  0
VERTEX
  8
FOREGROUND
 62
     7
  6
CONTINUOUS
 10
2.891667
 20
0.058333
  0
VERTEX
  8
FOREGROUND
 62
     7
  6
CONTINUOUS
 10
0.560000
 20
0.058333
  0
VERTEX
  8
FOREGROUND
 62
     7
  6
CONTINUOUS
 10
0.508333
 20
0.061667
  0
VERTEX
  8
FOREGROUND
 62
     7
  6
CONTINUOUS
 10
0.456667
 20
0.068333
  0
VERTEX
  8
FOREGROUND
 62
     7
  6
CONTINUOUS
 10
0.408333
 20
0.081667
  0
VERTEX
  8
FOREGROUND
 62
     7
  6
CONTINUOUS
 10
0.361667
 20
0.098333
  0
VERTEX
  8
FOREGROUND
 62
     7
  6
CONTINUOUS
 10
0.316667
 20
0.120000
  0
VERTEX
  8
FOREGROUND
 62
     7
  6
CONTINUOUS
 10
0.275000
 20
0.145000
  0
VERTEX
  8
FOREGROUND
 62
     7
  6
CONTINUOUS
 10
0.235000
 20
0.175000
  0
VERTEX
  8
FOREGROUND
 62
     7
  6
CONTINUOUS
 10
0.200000
 20
0.208333
  0
VERTEX
  8
FOREGROUND
 62
     7
  6
CONTINUOUS
 10
0.166667
 20
0.243333
  0
VERTEX
  8
FOREGROUND
 62
     7
  6
CONTINUOUS
 10
0.136667
 20
0.283333
  0
VERTEX
  8
FOREGROUND
 62
     7
  6
CONTINUOUS
 10
0.111667
 20
0.325000
  0
VERTEX
  8
FOREGROUND
 62
     7
  6
CONTINUOUS
 10
0.090000
 20
0.370000
  0
VERTEX
  8
FOREGROUND
 62
     7
  6
CONTINUOUS
 10
0.073333
 20
0.416667
  0
VERTEX
  8
FOREGROUND
 62
     7
  6
CONTINUOUS
 10
0.060000
 20
0.465000
  0
VERTEX
  8
FOREGROUND
 62
     7
  6
CONTINUOUS
 10
0.053333
 20
0.516667
  0
VERTEX
  8
FOREGROUND
 62
     7
  6
CONTINUOUS
 10
0.050000
 20
0.568333
  0
VERTEX
  8
FOREGROUND
 62
     7
  6
CONTINUOUS
 10
0.050000
 20
2.103333
  0
VERTEX
  8
FOREGROUND
 62
     7
  6
CONTINUOUS
 10
0.053333
 20
2.155000
  0
VERTEX
  8
FOREGROUND
 62
     7
  6
CONTINUOUS
 10
0.060000
 20
2.206667
  0
VERTEX
  8
FOREGROUND
 62
     7
  6
CONTINUOUS
 10
0.073333
 20
2.255000
  0
VERTEX
  8
FOREGROUND
 62
     7
  6
CONTINUOUS
 10
0.090000
 20
2.301667
  0
VERTEX
  8
FOREGROUND
 62
     7
  6
CONTINUOUS
 10
0.111667
 20
2.346667
  0
VERTEX
  8
FOREGROUND
 62
     7
  6
CONTINUOUS
 10
0.136667
 20
2.388333
  0
VERTEX
  8
FOREGROUND
 62
     7
  6
CONTINUOUS
 10
0.166667
 20
2.428333
  0
VERTEX
  8
FOREGROUND
 62
     7
  6
CONTINUOUS
 10
0.200000
 20
2.463333
  0
VERTEX
  8
FOREGROUND
 62
     7
  6
CONTINUOUS
 10
0.235000
 20
2.496667
  0
VERTEX
  8
FOREGROUND
 62
     7
  6
CONTINUOUS
 10
0.275000
 20
2.526667
  0
VERTEX
  8
FOREGROUND
 62
     7
  6
CONTINUOUS
 10
0.316667
 20
2.551667
  0
VERTEX
  8
FOREGROUND
 62
     7
  6
CONTINUOUS
 10
0.361667
 20
2.573333
  0
VERTEX
  8
FOREGROUND
 62
     7
  6
CONTINUOUS
 10
0.408333
 20
2.590000
  0
VERTEX
  8
FOREGROUND
 62
     7
  6
CONTINUOUS
 10
0.456667
 20
2.603333
  0
VERTEX
  8
FOREGROUND
 62
     7
  6
CONTINUOUS
 10
0.508333
 20
2.610000
  0
SEQEND
  8
0
  0
POLYLINE
  8
FOREGROUND
  6
CONTINUOUS
 66
     1
 40
0.010000
 41
0.010000
 70
     1
  0
VERTEX
  8
FOREGROUND
  6
CONTINUOUS
 10
0.560000
 20
2.613333
  0
VERTEX
  8
FOREGROUND
  6
CONTINUOUS
 10
2.891667
 20
2.613333
  0
VERTEX
  8
FOREGROUND
  6
CONTINUOUS
 10
2.943333
 20
2.610000
  0
VERTEX
  8
FOREGROUND
  6
CONTINUOUS
 10
2.995000
 20
2.603333
  0
VERTEX
  8
FOREGROUND
  6
CONTINUOUS
 10
3.043333
 20
2.590000
  0
VERTEX
  8
FOREGROUND
  6
CONTINUOUS
 10
3.090000
 20
2.573333
  0
VERTEX
  8
FOREGROUND
  6
CONTINUOUS
 10
3.135000
 20
2.551667
  0
VERTEX
  8
FOREGROUND
  6
CONTINUOUS
 10
3.176667
 20
2.526667
  0
VERTEX
  8
FOREGROUND
  6
CONTINUOUS
 10
3.216667
 20
2.496667
  0
VERTEX
  8
FOREGROUND
  6
CONTINUOUS
 10
3.251667
 20
2.463333
  0
VERTEX
  8
FOREGROUND
  6
CONTINUOUS
 10
3.285000
 20
2.428333
  0
VERTEX
  8
FOREGROUND
  6
CONTINUOUS
 10
3.315000
 20
2.388333
  0
VERTEX
  8
FOREGROUND
  6
CONTINUOUS
 10
3.340000
 20
2.346667
  0
VERTEX
  8
FOREGROUND
  6
CONTINUOUS
 10
3.361667
 20
2.301667
  0
VERTEX
  8
FOREGROUND
  6
CONTINUOUS
 10
3.378333
 20
2.255000
  0
VERTEX
  8
FOREGROUND
  6
CONTINUOUS
 10
3.391667
 20
2.206667
  0
VERTEX
  8
FOREGROUND
  6
CONTINUOUS
 10
3.400000
 20
2.155000
  0
VERTEX
  8
FOREGROUND
  6
CONTINUOUS
 10
3.401667
 20
2.103333
  0
VERTEX
  8
FOREGROUND
  6
CONTINUOUS
 10
3.401667
 20
0.568333
  0
VERTEX
  8
FOREGROUND
  6
CONTINUOUS
 10
3.400000
 20
0.516667
  0
VERTEX
  8
FOREGROUND
  6
CONTINUOUS
 10
3.391667
 20
0.465000
  0
VERTEX
  8
FOREGROUND
  6
CONTINUOUS
 10
3.378333
 20
0.416667
  0
VERTEX
  8
FOREGROUND
  6
CONTINUOUS
 10
3.361667
 20
0.370000
  0
VERTEX
  8
FOREGROUND
  6
CONTINUOUS
 10
3.340000
 20
0.325000
  0
VERTEX
  8
FOREGROUND
  6
CONTINUOUS
 10
3.315000
 20
0.283333
  0
VERTEX
  8
FOREGROUND
  6
CONTINUOUS
 10
3.285000
 20
0.243333
  0
VERTEX
  8
FOREGROUND
  6
CONTINUOUS
 10
3.251667
 20
0.208333
  0
VERTEX
  8
FOREGROUND
  6
CONTINUOUS
 10
3.216667
 20
0.175000
  0
VERTEX
  8
FOREGROUND
  6
CONTINUOUS
 10
3.176667
 20
0.145000
  0
VERTEX
  8
FOREGROUND
  6
CONTINUOUS
 10
3.135000
 20
0.120000
  0
VERTEX
  8
FOREGROUND
  6
CONTINUOUS
 10
3.090000
 20
0.098333
  0
VERTEX
  8
FOREGROUND
  6
CONTINUOUS
 10
3.043333
 20
0.081667
  0
VERTEX
  8
FOREGROUND
  6
CONTINUOUS
 10
2.995000
 20
0.068333
  0
VERTEX
  8
FOREGROUND
  6
CONTINUOUS
 10
2.943333
 20
0.060000
  0
VERTEX
  8
FOREGROUND
  6
CONTINUOUS
 10
2.891667
 20
0.058333
  0
VERTEX
  8
FOREGROUND
  6
CONTINUOUS
 10
0.560000
 20
0.058333
  0
VERTEX
  8
FOREGROUND
  6
CONTINUOUS
 10
0.508333
 20
0.060000
  0
VERTEX
  8
FOREGROUND
  6
CONTINUOUS
 10
0.456667
 20
0.068333
  0
VERTEX
  8
FOREGROUND
  6
CONTINUOUS
 10
0.408333
 20
0.081667
  0
VERTEX
  8
FOREGROUND
  6
CONTINUOUS
 10
0.361667
 20
0.098333
  0
VERTEX
  8
FOREGROUND
  6
CONTINUOUS
 10
0.316667
 20
0.120000
  0
VERTEX
  8
FOREGROUND
  6
CONTINUOUS
 10
0.275000
 20
0.145000
  0
VERTEX
  8
FOREGROUND
  6
CONTINUOUS
 10
0.235000
 20
0.175000
  0
VERTEX
  8
FOREGROUND
  6
CONTINUOUS
 10
0.200000
 20
0.208333
  0
VERTEX
  8
FOREGROUND
  6
CONTINUOUS
 10
0.166667
 20
0.243333
  0
VERTEX
  8
FOREGROUND
  6
CONTINUOUS
 10
0.136667
 20
0.283333
  0
VERTEX
  8
FOREGROUND
  6
CONTINUOUS
 10
0.111667
 20
0.325000
  0
VERTEX
  8
FOREGROUND
  6
CONTINUOUS
 10
0.090000
 20
0.370000
  0
VERTEX
  8
FOREGROUND
  6
CONTINUOUS
 10
0.073333
 20
0.416667
  0
VERTEX
  8
FOREGROUND
  6
CONTINUOUS
 10
0.060000
 20
0.465000
  0
VERTEX
  8
FOREGROUND
  6
CONTINUOUS
 10
0.053333
 20
0.516667
  0
VERTEX
  8
FOREGROUND
  6
CONTINUOUS
 10
0.050000
 20
0.568333
  0
VERTEX
  8
FOREGROUND
  6
CONTINUOUS
 10
0.050000
 20
2.103333
  0
VERTEX
  8
FOREGROUND
  6
CONTINUOUS
 10
0.053333
 20
2.155000
  0
VERTEX
  8
FOREGROUND
  6
CONTINUOUS
 10
0.060000
 20
2.206667
  0
VERTEX
  8
FOREGROUND
  6
CONTINUOUS
 10
0.073333
 20
2.255000
  0
VERTEX
  8
FOREGROUND
  6
CONTINUOUS
 10
0.090000
 20
2.301667
  0
VERTEX
  8
FOREGROUND
  6
CONTINUOUS
 10
0.111667
 20
2.346667
  0
VERTEX
  8
FOREGROUND
  6
CONTINUOUS
 10
0.136667
 20
2.388333
  0
VERTEX
  8
FOREGROUND
  6
CONTINUOUS
 10
0.166667
 20
2.428333
  0
VERTEX
  8
FOREGROUND
  6
CONTINUOUS
 10
0.200000
 20
2.463333
  0
VERTEX
  8
FOREGROUND
  6
CONTINUOUS
 10
0.235000
 20
2.496667
  0
VERTEX
  8
FOREGROUND
  6
CONTINUOUS
 10
0.275000
 20
2.526667
  0
VERTEX
  8
FOREGROUND
  6
CONTINUOUS
 10
0.316667
 20
2.551667
  0
VERTEX
  8
FOREGROUND
  6
CONTINUOUS
 10
0.361667
 20
2.573333
  0
VERTEX
  8
FOREGROUND
  6
CONTINUOUS
 10
0.408333
 20
2.590000
  0
VERTEX
  8
FOREGROUND
  6
CONTINUOUS
 10
0.456667
 20
2.603333
  0
VERTEX
  8
FOREGROUND
  6
CONTINUOUS
 10
0.508333
 20
2.610000
  0
SEQEND
  8
0
  0
ENDSEC
  0
EOF
