  0
SECTION
  2
HEADER
  9
$ACADVER
  1
AC1006
  9
$EXTMIN
 10
0.000000
 20
0.000000
  9
$EXTMAX
 10
3.360000
 20
5.308333
  9
$LTSCALE
 40
0.166667
  9
$PDMODE
 70
    35
  9
$PDSIZE
 40
0.133333
  0
ENDSEC
  0
SECTION
  2
TABLES
  0
TABLE
  2
LTYPE
 70
     9
  0
LTYPE
  2
CONTINUOUS
 70
    64
  3
Solid line
 72
    65
 73
     0
 40
0.000000
  0
LTYPE
  2
DASHED
 70
    64
  3
__ __ __ __ __ __ __ __ __ __ __ __ __ __ __
 72
    65
 73
     2
 40
0.001250
 49
0.000833
 49
-0.000417
  0
LTYPE
  2
HIDDEN
 70
    64
  3
 _ _ _ _ _ _ _ _ _ _ _ _ _ _ _ _ _ _ _ _ _ _
 72
    65
 73
     2
 40
0.000625
 49
0.000417
 49
-0.000208
  0
LTYPE
  2
CENTER
 70
    64
  3
____ _ ____ _ ____ _ ____ _ ____ _ ____ _ ____
 72
    65
 73
     4
 40
0.003333
 49
0.002083
 49
-0.000417
 49
0.000417
 49
-0.000417
  0
LTYPE
  2
PHANTOM
 70
    64
  3
_____ _ _ _____ _ _ _____ _ _ _____ _ _ ____
 72
    65
 73
     6
 40
0.004167
 49
0.002083
 49
-0.000417
 49
0.000417
 49
-0.000417
 49
0.000417
 49
-0.000417
  0
LTYPE
  2
DOT
 70
    64
  3
...............................................
 72
    65
 73
     2
 40
0.000417
 49
0.000000
 49
-0.000417
  0
LTYPE
  2
DASHDOT
 70
    64
  3
__ . __ . __ . __ . __ . __ . __ . __ . __ . __
 72
    65
 73
     4
 40
0.001667
 49
0.000833
 49
-0.000417
 49
0.000000
 49
-0.000417
  0
LTYPE
  2
BORDER
 70
    64
  3
__ __ . __ __ . __ __ . __ __ . __ __ . __ __
 72
    65
 73
     6
 40
0.002917
 49
0.000833
 49
-0.000417
 49
0.000833
 49
-0.000417
 49
0.000000
 49
-0.000417
  0
LTYPE
  2
DIVIDE
 70
    64
  3
__ . . __ . . __ . . __ . . __ . . __ . . __
 72
    65
 73
     6
 40
0.002083
 49
0.000833
 49
-0.000417
 49
0.000000
 49
-0.000417
 49
0.000000
 49
-0.000417
  0
LTYPE
  2
DOTDOT
 70
    64
  3
 . .  . .  . .  . .  . .  . . 
 72
    65
 73
     5
 40
0.000917
 49
-0.000417
 49
0.000000
 49
-0.000417
 49
0.000000
 49
-0.000417
  0
ENDTAB
  0
TABLE
  2
STYLE
 70
     2
  0
STYLE
 70
     0
  2
SN0
 40
0.000000
 41
0.001667
 50
0.000000
 71
     0
 42
0.000000
  3
ROMAND
  0
STYLE
 70
    68
  2
SV0
 40
0.000000
 41
0.001667
 50
0.000000
 71
     0
 42
0.000000
  3
ROMAND
  0
ENDTAB
  0
TABLE
  2
LAYER
 70
     2
  0
LAYER
  2
FOREGROUND
 70
    64
 62
     7
  6
CONTINUOUS
  0
LAYER
  2
BACKGROUND
 70
    65
 62
    -7
  6
CONTINUOUS
  0
ENDTAB
  0
ENDSEC
  0
SECTION
  2
ENTITIES
  0
POLYLINE
  8
FOREGROUND
 62
     7
  6
CONTINUOUS
 66
     1
 40
0.000000
 41
0.000000
 70
     1
  0
VERTEX
  8
FOREGROUND
 62
     7
  6
CONTINUOUS
 10
0.678333
 20
5.153333
  0
VERTEX
  8
FOREGROUND
 62
     7
  6
CONTINUOUS
 10
2.568333
 20
5.153333
  0
VERTEX
  8
FOREGROUND
 62
     7
  6
CONTINUOUS
 10
2.633333
 20
5.150000
  0
VERTEX
  8
FOREGROUND
 62
     7
  6
CONTINUOUS
 10
2.695000
 20
5.140000
  0
VERTEX
  8
FOREGROUND
 62
     7
  6
CONTINUOUS
 10
2.755000
 20
5.125000
  0
VERTEX
  8
FOREGROUND
 62
     7
  6
CONTINUOUS
 10
2.813333
 20
5.103333
  0
VERTEX
  8
FOREGROUND
 62
     7
  6
CONTINUOUS
 10
2.868333
 20
5.076667
  0
VERTEX
  8
FOREGROUND
 62
     7
  6
CONTINUOUS
 10
2.920000
 20
5.045000
  0
VERTEX
  8
FOREGROUND
 62
     7
  6
CONTINUOUS
 10
2.968333
 20
5.010000
  0
VERTEX
  8
FOREGROUND
 62
     7
  6
CONTINUOUS
 10
3.013333
 20
4.968333
  0
VERTEX
  8
FOREGROUND
 62
     7
  6
CONTINUOUS
 10
3.053333
 20
4.925000
  0
VERTEX
  8
FOREGROUND
 62
     7
  6
CONTINUOUS
 10
3.090000
 20
4.876667
  0
VERTEX
  8
FOREGROUND
 62
     7
  6
CONTINUOUS
 10
3.121667
 20
4.825000
  0
VERTEX
  8
FOREGROUND
 62
     7
  6
CONTINUOUS
 10
3.146667
 20
4.770000
  0
VERTEX
  8
FOREGROUND
 62
     7
  6
CONTINUOUS
 10
3.168333
 20
4.711667
  0
VERTEX
  8
FOREGROUND
 62
     7
  6
CONTINUOUS
 10
3.183333
 20
4.651667
  0
VERTEX
  8
FOREGROUND
 62
     7
  6
CONTINUOUS
 10
3.193333
 20
4.588333
  0
VERTEX
  8
FOREGROUND
 62
     7
  6
CONTINUOUS
 10
3.196667
 20
4.525000
  0
VERTEX
  8
FOREGROUND
 62
     7
  6
CONTINUOUS
 10
3.196667
 20
0.686667
  0
VERTEX
  8
FOREGROUND
 62
     7
  6
CONTINUOUS
 10
3.193333
 20
0.621667
  0
VERTEX
  8
FOREGROUND
 62
     7
  6
CONTINUOUS
 10
3.183333
 20
0.560000
  0
VERTEX
  8
FOREGROUND
 62
     7
  6
CONTINUOUS
 10
3.168333
 20
0.500000
  0
VERTEX
  8
FOREGROUND
 62
     7
  6
CONTINUOUS
 10
3.146667
 20
0.441667
  0
VERTEX
  8
FOREGROUND
 62
     7
  6
CONTINUOUS
 10
3.121667
 20
0.386667
  0
VERTEX
  8
FOREGROUND
 62
     7
  6
CONTINUOUS
 10
3.090000
 20
0.335000
  0
VERTEX
  8
FOREGROUND
 62
     7
  6
CONTINUOUS
 10
3.053333
 20
0.286667
  0
VERTEX
  8
FOREGROUND
 62
     7
  6
CONTINUOUS
 10
3.013333
 20
0.241667
  0
VERTEX
  8
FOREGROUND
 62
     7
  6
CONTINUOUS
 10
2.968333
 20
0.201667
  0
VERTEX
  8
FOREGROUND
 62
     7
  6
CONTINUOUS
 10
2.920000
 20
0.165000
  0
VERTEX
  8
FOREGROUND
 62
     7
  6
CONTINUOUS
 10
2.868333
 20
0.133333
  0
VERTEX
  8
FOREGROUND
 62
     7
  6
CONTINUOUS
 10
2.813333
 20
0.108333
  0
VERTEX
  8
FOREGROUND
 62
     7
  6
CONTINUOUS
 10
2.755000
 20
0.086667
  0
VERTEX
  8
FOREGROUND
 62
     7
  6
CONTINUOUS
 10
2.695000
 20
0.071667
  0
VERTEX
  8
FOREGROUND
 62
     7
  6
CONTINUOUS
 10
2.633333
 20
0.061667
  0
VERTEX
  8
FOREGROUND
 62
     7
  6
CONTINUOUS
 10
2.568333
 20
0.058333
  0
VERTEX
  8
FOREGROUND
 62
     7
  6
CONTINUOUS
 10
0.678333
 20
0.058333
  0
VERTEX
  8
FOREGROUND
 62
     7
  6
CONTINUOUS
 10
0.615000
 20
0.061667
  0
VERTEX
  8
FOREGROUND
 62
     7
  6
CONTINUOUS
 10
0.551667
 20
0.071667
  0
VERTEX
  8
FOREGROUND
 62
     7
  6
CONTINUOUS
 10
0.491667
 20
0.086667
  0
VERTEX
  8
FOREGROUND
 62
     7
  6
CONTINUOUS
 10
0.433333
 20
0.108333
  0
VERTEX
  8
FOREGROUND
 62
     7
  6
CONTINUOUS
 10
0.378333
 20
0.133333
  0
VERTEX
  8
FOREGROUND
 62
     7
  6
CONTINUOUS
 10
0.326667
 20
0.165000
  0
VERTEX
  8
FOREGROUND
 62
     7
  6
CONTINUOUS
 10
0.278333
 20
0.201667
  0
VERTEX
  8
FOREGROUND
 62
     7
  6
CONTINUOUS
 10
0.235000
 20
0.241667
  0
VERTEX
  8
FOREGROUND
 62
     7
  6
CONTINUOUS
 10
0.193333
 20
0.286667
  0
VERTEX
  8
FOREGROUND
 62
     7
  6
CONTINUOUS
 10
0.158333
 20
0.335000
  0
VERTEX
  8
FOREGROUND
 62
     7
  6
CONTINUOUS
 10
0.126667
 20
0.386667
  0
VERTEX
  8
FOREGROUND
 62
     7
  6
CONTINUOUS
 10
0.100000
 20
0.441667
  0
VERTEX
  8
FOREGROUND
 62
     7
  6
CONTINUOUS
 10
0.078333
 20
0.500000
  0
VERTEX
  8
FOREGROUND
 62
     7
  6
CONTINUOUS
 10
0.063333
 20
0.560000
  0
VERTEX
  8
FOREGROUND
 62
     7
  6
CONTINUOUS
 10
0.053333
 20
0.621667
  0
VERTEX
  8
FOREGROUND
 62
     7
  6
CONTINUOUS
 10
0.050000
 20
0.686667
  0
VERTEX
  8
FOREGROUND
 62
     7
  6
CONTINUOUS
 10
0.050000
 20
4.525000
  0
VERTEX
  8
FOREGROUND
 62
     7
  6
CONTINUOUS
 10
0.053333
 20
4.588333
  0
VERTEX
  8
FOREGROUND
 62
     7
  6
CONTINUOUS
 10
0.063333
 20
4.651667
  0
VERTEX
  8
FOREGROUND
 62
     7
  6
CONTINUOUS
 10
0.078333
 20
4.711667
  0
VERTEX
  8
FOREGROUND
 62
     7
  6
CONTINUOUS
 10
0.100000
 20
4.770000
  0
VERTEX
  8
FOREGROUND
 62
     7
  6
CONTINUOUS
 10
0.126667
 20
4.825000
  0
VERTEX
  8
FOREGROUND
 62
     7
  6
CONTINUOUS
 10
0.158333
 20
4.876667
  0
VERTEX
  8
FOREGROUND
 62
     7
  6
CONTINUOUS
 10
0.193333
 20
4.925000
  0
VERTEX
  8
FOREGROUND
 62
     7
  6
CONTINUOUS
 10
0.235000
 20
4.968333
  0
VERTEX
  8
FOREGROUND
 62
     7
  6
CONTINUOUS
 10
0.278333
 20
5.010000
  0
VERTEX
  8
FOREGROUND
 62
     7
  6
CONTINUOUS
 10
0.326667
 20
5.045000
  0
VERTEX
  8
FOREGROUND
 62
     7
  6
CONTINUOUS
 10
0.378333
 20
5.076667
  0
VERTEX
  8
FOREGROUND
 62
     7
  6
CONTINUOUS
 10
0.433333
 20
5.103333
  0
VERTEX
  8
FOREGROUND
 62
     7
  6
CONTINUOUS
 10
0.491667
 20
5.125000
  0
VERTEX
  8
FOREGROUND
 62
     7
  6
CONTINUOUS
 10
0.551667
 20
5.140000
  0
VERTEX
  8
FOREGROUND
 62
     7
  6
CONTINUOUS
 10
0.615000
 20
5.150000
  0
SEQEND
  8
0
  0
POLYLINE
  8
FOREGROUND
  6
CONTINUOUS
 66
     1
 40
0.010000
 41
0.010000
 70
     1
  0
VERTEX
  8
FOREGROUND
  6
CONTINUOUS
 10
0.678333
 20
5.153333
  0
VERTEX
  8
FOREGROUND
  6
CONTINUOUS
 10
2.568333
 20
5.153333
  0
VERTEX
  8
FOREGROUND
  6
CONTINUOUS
 10
2.633333
 20
5.150000
  0
VERTEX
  8
FOREGROUND
  6
CONTINUOUS
 10
2.695000
 20
5.140000
  0
VERTEX
  8
FOREGROUND
  6
CONTINUOUS
 10
2.755000
 20
5.125000
  0
VERTEX
  8
FOREGROUND
  6
CONTINUOUS
 10
2.813333
 20
5.103333
  0
VERTEX
  8
FOREGROUND
  6
CONTINUOUS
 10
2.868333
 20
5.076667
  0
VERTEX
  8
FOREGROUND
  6
CONTINUOUS
 10
2.920000
 20
5.045000
  0
VERTEX
  8
FOREGROUND
  6
CONTINUOUS
 10
2.968333
 20
5.010000
  0
VERTEX
  8
FOREGROUND
  6
CONTINUOUS
 10
3.013333
 20
4.968333
  0
VERTEX
  8
FOREGROUND
  6
CONTINUOUS
 10
3.053333
 20
4.925000
  0
VERTEX
  8
FOREGROUND
  6
CONTINUOUS
 10
3.090000
 20
4.876667
  0
VERTEX
  8
FOREGROUND
  6
CONTINUOUS
 10
3.121667
 20
4.825000
  0
VERTEX
  8
FOREGROUND
  6
CONTINUOUS
 10
3.146667
 20
4.770000
  0
VERTEX
  8
FOREGROUND
  6
CONTINUOUS
 10
3.168333
 20
4.711667
  0
VERTEX
  8
FOREGROUND
  6
CONTINUOUS
 10
3.183333
 20
4.651667
  0
VERTEX
  8
FOREGROUND
  6
CONTINUOUS
 10
3.193333
 20
4.588333
  0
VERTEX
  8
FOREGROUND
  6
CONTINUOUS
 10
3.196667
 20
4.525000
  0
VERTEX
  8
FOREGROUND
  6
CONTINUOUS
 10
3.196667
 20
0.686667
  0
VERTEX
  8
FOREGROUND
  6
CONTINUOUS
 10
3.193333
 20
0.621667
  0
VERTEX
  8
FOREGROUND
  6
CONTINUOUS
 10
3.183333
 20
0.560000
  0
VERTEX
  8
FOREGROUND
  6
CONTINUOUS
 10
3.168333
 20
0.500000
  0
VERTEX
  8
FOREGROUND
  6
CONTINUOUS
 10
3.146667
 20
0.441667
  0
VERTEX
  8
FOREGROUND
  6
CONTINUOUS
 10
3.121667
 20
0.386667
  0
VERTEX
  8
FOREGROUND
  6
CONTINUOUS
 10
3.090000
 20
0.335000
  0
VERTEX
  8
FOREGROUND
  6
CONTINUOUS
 10
3.053333
 20
0.286667
  0
VERTEX
  8
FOREGROUND
  6
CONTINUOUS
 10
3.013333
 20
0.241667
  0
VERTEX
  8
FOREGROUND
  6
CONTINUOUS
 10
2.968333
 20
0.201667
  0
VERTEX
  8
FOREGROUND
  6
CONTINUOUS
 10
2.920000
 20
0.165000
  0
VERTEX
  8
FOREGROUND
  6
CONTINUOUS
 10
2.868333
 20
0.133333
  0
VERTEX
  8
FOREGROUND
  6
CONTINUOUS
 10
2.813333
 20
0.108333
  0
VERTEX
  8
FOREGROUND
  6
CONTINUOUS
 10
2.755000
 20
0.086667
  0
VERTEX
  8
FOREGROUND
  6
CONTINUOUS
 10
2.695000
 20
0.071667
  0
VERTEX
  8
FOREGROUND
  6
CONTINUOUS
 10
2.633333
 20
0.061667
  0
VERTEX
  8
FOREGROUND
  6
CONTINUOUS
 10
2.568333
 20
0.058333
  0
VERTEX
  8
FOREGROUND
  6
CONTINUOUS
 10
0.678333
 20
0.058333
  0
VERTEX
  8
FOREGROUND
  6
CONTINUOUS
 10
0.615000
 20
0.061667
  0
VERTEX
  8
FOREGROUND
  6
CONTINUOUS
 10
0.551667
 20
0.071667
  0
VERTEX
  8
FOREGROUND
  6
CONTINUOUS
 10
0.491667
 20
0.086667
  0
VERTEX
  8
FOREGROUND
  6
CONTINUOUS
 10
0.433333
 20
0.108333
  0
VERTEX
  8
FOREGROUND
  6
CONTINUOUS
 10
0.378333
 20
0.133333
  0
VERTEX
  8
FOREGROUND
  6
CONTINUOUS
 10
0.326667
 20
0.165000
  0
VERTEX
  8
FOREGROUND
  6
CONTINUOUS
 10
0.278333
 20
0.201667
  0
VERTEX
  8
FOREGROUND
  6
CONTINUOUS
 10
0.235000
 20
0.241667
  0
VERTEX
  8
FOREGROUND
  6
CONTINUOUS
 10
0.193333
 20
0.286667
  0
VERTEX
  8
FOREGROUND
  6
CONTINUOUS
 10
0.158333
 20
0.335000
  0
VERTEX
  8
FOREGROUND
  6
CONTINUOUS
 10
0.126667
 20
0.386667
  0
VERTEX
  8
FOREGROUND
  6
CONTINUOUS
 10
0.100000
 20
0.441667
  0
VERTEX
  8
FOREGROUND
  6
CONTINUOUS
 10
0.078333
 20
0.500000
  0
VERTEX
  8
FOREGROUND
  6
CONTINUOUS
 10
0.063333
 20
0.560000
  0
VERTEX
  8
FOREGROUND
  6
CONTINUOUS
 10
0.053333
 20
0.621667
  0
VERTEX
  8
FOREGROUND
  6
CONTINUOUS
 10
0.050000
 20
0.686667
  0
VERTEX
  8
FOREGROUND
  6
CONTINUOUS
 10
0.050000
 20
4.525000
  0
VERTEX
  8
FOREGROUND
  6
CONTINUOUS
 10
0.053333
 20
4.588333
  0
VERTEX
  8
FOREGROUND
  6
CONTINUOUS
 10
0.063333
 20
4.651667
  0
VERTEX
  8
FOREGROUND
  6
CONTINUOUS
 10
0.078333
 20
4.711667
  0
VERTEX
  8
FOREGROUND
  6
CONTINUOUS
 10
0.100000
 20
4.770000
  0
VERTEX
  8
FOREGROUND
  6
CONTINUOUS
 10
0.126667
 20
4.825000
  0
VERTEX
  8
FOREGROUND
  6
CONTINUOUS
 10
0.158333
 20
4.876667
  0
VERTEX
  8
FOREGROUND
  6
CONTINUOUS
 10
0.193333
 20
4.925000
  0
VERTEX
  8
FOREGROUND
  6
CONTINUOUS
 10
0.235000
 20
4.968333
  0
VERTEX
  8
FOREGROUND
  6
CONTINUOUS
 10
0.278333
 20
5.010000
  0
VERTEX
  8
FOREGROUND
  6
CONTINUOUS
 10
0.326667
 20
5.045000
  0
VERTEX
  8
FOREGROUND
  6
CONTINUOUS
 10
0.378333
 20
5.076667
  0
VERTEX
  8
FOREGROUND
  6
CONTINUOUS
 10
0.433333
 20
5.103333
  0
VERTEX
  8
FOREGROUND
  6
CONTINUOUS
 10
0.491667
 20
5.125000
  0
VERTEX
  8
FOREGROUND
  6
CONTINUOUS
 10
0.551667
 20
5.140000
  0
VERTEX
  8
FOREGROUND
  6
CONTINUOUS
 10
0.615000
 20
5.150000
  0
SEQEND
  8
0
  0
ENDSEC
  0
EOF
