  0
SECTION
  2
HEADER
  9
$ACADVER
  1
AC1006
  9
$EXTMIN
 10
0.000000
 20
0.000000
  9
$EXTMAX
 10
3.386667
 20
7.301667
  9
$LTSCALE
 40
0.166667
  9
$PDMODE
 70
    35
  9
$PDSIZE
 40
0.133333
  0
ENDSEC
  0
SECTION
  2
TABLES
  0
TABLE
  2
LTYPE
 70
     9
  0
LTYPE
  2
CONTINUOUS
 70
    64
  3
Solid line
 72
    65
 73
     0
 40
0.000000
  0
LTYPE
  2
DASHED
 70
    64
  3
__ __ __ __ __ __ __ __ __ __ __ __ __ __ __
 72
    65
 73
     2
 40
0.001250
 49
0.000833
 49
-0.000417
  0
LTYPE
  2
HIDDEN
 70
    64
  3
 _ _ _ _ _ _ _ _ _ _ _ _ _ _ _ _ _ _ _ _ _ _
 72
    65
 73
     2
 40
0.000625
 49
0.000417
 49
-0.000208
  0
LTYPE
  2
CENTER
 70
    64
  3
____ _ ____ _ ____ _ ____ _ ____ _ ____ _ ____
 72
    65
 73
     4
 40
0.003333
 49
0.002083
 49
-0.000417
 49
0.000417
 49
-0.000417
  0
LTYPE
  2
PHANTOM
 70
    64
  3
_____ _ _ _____ _ _ _____ _ _ _____ _ _ ____
 72
    65
 73
     6
 40
0.004167
 49
0.002083
 49
-0.000417
 49
0.000417
 49
-0.000417
 49
0.000417
 49
-0.000417
  0
LTYPE
  2
DOT
 70
    64
  3
...............................................
 72
    65
 73
     2
 40
0.000417
 49
0.000000
 49
-0.000417
  0
LTYPE
  2
DASHDOT
 70
    64
  3
__ . __ . __ . __ . __ . __ . __ . __ . __ . __
 72
    65
 73
     4
 40
0.001667
 49
0.000833
 49
-0.000417
 49
0.000000
 49
-0.000417
  0
LTYPE
  2
BORDER
 70
    64
  3
__ __ . __ __ . __ __ . __ __ . __ __ . __ __
 72
    65
 73
     6
 40
0.002917
 49
0.000833
 49
-0.000417
 49
0.000833
 49
-0.000417
 49
0.000000
 49
-0.000417
  0
LTYPE
  2
DIVIDE
 70
    64
  3
__ . . __ . . __ . . __ . . __ . . __ . . __
 72
    65
 73
     6
 40
0.002083
 49
0.000833
 49
-0.000417
 49
0.000000
 49
-0.000417
 49
0.000000
 49
-0.000417
  0
LTYPE
  2
DOTDOT
 70
    64
  3
 . .  . .  . .  . .  . .  . . 
 72
    65
 73
     5
 40
0.000917
 49
-0.000417
 49
0.000000
 49
-0.000417
 49
0.000000
 49
-0.000417
  0
ENDTAB
  0
TABLE
  2
STYLE
 70
     2
  0
STYLE
 70
     0
  2
SN0
 40
0.000000
 41
0.001667
 50
0.000000
 71
     0
 42
0.000000
  3
ROMAND
  0
STYLE
 70
    68
  2
SV0
 40
0.000000
 41
0.001667
 50
0.000000
 71
     0
 42
0.000000
  3
ROMAND
  0
ENDTAB
  0
TABLE
  2
LAYER
 70
     2
  0
LAYER
  2
FOREGROUND
 70
    64
 62
     7
  6
CONTINUOUS
  0
LAYER
  2
BACKGROUND
 70
    65
 62
    -7
  6
CONTINUOUS
  0
ENDTAB
  0
ENDSEC
  0
SECTION
  2
ENTITIES
  0
POLYLINE
  8
FOREGROUND
 62
     7
  6
CONTINUOUS
 66
     1
 40
0.000000
 41
0.000000
 70
     1
  0
VERTEX
  8
FOREGROUND
 62
     7
  6
CONTINUOUS
 10
0.683333
 20
7.146667
  0
VERTEX
  8
FOREGROUND
 62
     7
  6
CONTINUOUS
 10
2.590000
 20
7.146667
  0
VERTEX
  8
FOREGROUND
 62
     7
  6
CONTINUOUS
 10
2.655000
 20
7.143333
  0
VERTEX
  8
FOREGROUND
 62
     7
  6
CONTINUOUS
 10
2.718333
 20
7.133333
  0
VERTEX
  8
FOREGROUND
 62
     7
  6
CONTINUOUS
 10
2.778333
 20
7.118333
  0
VERTEX
  8
FOREGROUND
 62
     7
  6
CONTINUOUS
 10
2.836667
 20
7.096667
  0
VERTEX
  8
FOREGROUND
 62
     7
  6
CONTINUOUS
 10
2.891667
 20
7.070000
  0
VERTEX
  8
FOREGROUND
 62
     7
  6
CONTINUOUS
 10
2.945000
 20
7.038333
  0
VERTEX
  8
FOREGROUND
 62
     7
  6
CONTINUOUS
 10
2.993333
 20
7.001667
  0
VERTEX
  8
FOREGROUND
 62
     7
  6
CONTINUOUS
 10
3.038333
 20
6.960000
  0
VERTEX
  8
FOREGROUND
 62
     7
  6
CONTINUOUS
 10
3.078333
 20
6.916667
  0
VERTEX
  8
FOREGROUND
 62
     7
  6
CONTINUOUS
 10
3.115000
 20
6.866667
  0
VERTEX
  8
FOREGROUND
 62
     7
  6
CONTINUOUS
 10
3.146667
 20
6.815000
  0
VERTEX
  8
FOREGROUND
 62
     7
  6
CONTINUOUS
 10
3.173333
 20
6.760000
  0
VERTEX
  8
FOREGROUND
 62
     7
  6
CONTINUOUS
 10
3.195000
 20
6.701667
  0
VERTEX
  8
FOREGROUND
 62
     7
  6
CONTINUOUS
 10
3.210000
 20
6.640000
  0
VERTEX
  8
FOREGROUND
 62
     7
  6
CONTINUOUS
 10
3.220000
 20
6.578333
  0
VERTEX
  8
FOREGROUND
 62
     7
  6
CONTINUOUS
 10
3.223333
 20
6.513333
  0
VERTEX
  8
FOREGROUND
 62
     7
  6
CONTINUOUS
 10
3.223333
 20
0.691667
  0
VERTEX
  8
FOREGROUND
 62
     7
  6
CONTINUOUS
 10
3.220000
 20
0.626667
  0
VERTEX
  8
FOREGROUND
 62
     7
  6
CONTINUOUS
 10
3.210000
 20
0.563333
  0
VERTEX
  8
FOREGROUND
 62
     7
  6
CONTINUOUS
 10
3.195000
 20
0.503333
  0
VERTEX
  8
FOREGROUND
 62
     7
  6
CONTINUOUS
 10
3.173333
 20
0.445000
  0
VERTEX
  8
FOREGROUND
 62
     7
  6
CONTINUOUS
 10
3.146667
 20
0.390000
  0
VERTEX
  8
FOREGROUND
 62
     7
  6
CONTINUOUS
 10
3.115000
 20
0.336667
  0
VERTEX
  8
FOREGROUND
 62
     7
  6
CONTINUOUS
 10
3.078333
 20
0.288333
  0
VERTEX
  8
FOREGROUND
 62
     7
  6
CONTINUOUS
 10
3.038333
 20
0.243333
  0
VERTEX
  8
FOREGROUND
 62
     7
  6
CONTINUOUS
 10
2.993333
 20
0.203333
  0
VERTEX
  8
FOREGROUND
 62
     7
  6
CONTINUOUS
 10
2.945000
 20
0.166667
  0
VERTEX
  8
FOREGROUND
 62
     7
  6
CONTINUOUS
 10
2.891667
 20
0.135000
  0
VERTEX
  8
FOREGROUND
 62
     7
  6
CONTINUOUS
 10
2.836667
 20
0.108333
  0
VERTEX
  8
FOREGROUND
 62
     7
  6
CONTINUOUS
 10
2.778333
 20
0.086667
  0
VERTEX
  8
FOREGROUND
 62
     7
  6
CONTINUOUS
 10
2.718333
 20
0.071667
  0
VERTEX
  8
FOREGROUND
 62
     7
  6
CONTINUOUS
 10
2.655000
 20
0.061667
  0
VERTEX
  8
FOREGROUND
 62
     7
  6
CONTINUOUS
 10
2.590000
 20
0.058333
  0
VERTEX
  8
FOREGROUND
 62
     7
  6
CONTINUOUS
 10
0.683333
 20
0.058333
  0
VERTEX
  8
FOREGROUND
 62
     7
  6
CONTINUOUS
 10
0.618333
 20
0.061667
  0
VERTEX
  8
FOREGROUND
 62
     7
  6
CONTINUOUS
 10
0.556667
 20
0.071667
  0
VERTEX
  8
FOREGROUND
 62
     7
  6
CONTINUOUS
 10
0.495000
 20
0.086667
  0
VERTEX
  8
FOREGROUND
 62
     7
  6
CONTINUOUS
 10
0.436667
 20
0.108333
  0
VERTEX
  8
FOREGROUND
 62
     7
  6
CONTINUOUS
 10
0.381667
 20
0.135000
  0
VERTEX
  8
FOREGROUND
 62
     7
  6
CONTINUOUS
 10
0.330000
 20
0.166667
  0
VERTEX
  8
FOREGROUND
 62
     7
  6
CONTINUOUS
 10
0.280000
 20
0.203333
  0
VERTEX
  8
FOREGROUND
 62
     7
  6
CONTINUOUS
 10
0.236667
 20
0.243333
  0
VERTEX
  8
FOREGROUND
 62
     7
  6
CONTINUOUS
 10
0.195000
 20
0.288333
  0
VERTEX
  8
FOREGROUND
 62
     7
  6
CONTINUOUS
 10
0.158333
 20
0.336667
  0
VERTEX
  8
FOREGROUND
 62
     7
  6
CONTINUOUS
 10
0.126667
 20
0.390000
  0
VERTEX
  8
FOREGROUND
 62
     7
  6
CONTINUOUS
 10
0.100000
 20
0.445000
  0
VERTEX
  8
FOREGROUND
 62
     7
  6
CONTINUOUS
 10
0.078333
 20
0.503333
  0
VERTEX
  8
FOREGROUND
 62
     7
  6
CONTINUOUS
 10
0.063333
 20
0.563333
  0
VERTEX
  8
FOREGROUND
 62
     7
  6
CONTINUOUS
 10
0.053333
 20
0.626667
  0
VERTEX
  8
FOREGROUND
 62
     7
  6
CONTINUOUS
 10
0.050000
 20
0.691667
  0
VERTEX
  8
FOREGROUND
 62
     7
  6
CONTINUOUS
 10
0.050000
 20
6.513333
  0
VERTEX
  8
FOREGROUND
 62
     7
  6
CONTINUOUS
 10
0.053333
 20
6.578333
  0
VERTEX
  8
FOREGROUND
 62
     7
  6
CONTINUOUS
 10
0.063333
 20
6.640000
  0
VERTEX
  8
FOREGROUND
 62
     7
  6
CONTINUOUS
 10
0.078333
 20
6.701667
  0
VERTEX
  8
FOREGROUND
 62
     7
  6
CONTINUOUS
 10
0.100000
 20
6.760000
  0
VERTEX
  8
FOREGROUND
 62
     7
  6
CONTINUOUS
 10
0.126667
 20
6.815000
  0
VERTEX
  8
FOREGROUND
 62
     7
  6
CONTINUOUS
 10
0.158333
 20
6.866667
  0
VERTEX
  8
FOREGROUND
 62
     7
  6
CONTINUOUS
 10
0.195000
 20
6.916667
  0
VERTEX
  8
FOREGROUND
 62
     7
  6
CONTINUOUS
 10
0.236667
 20
6.960000
  0
VERTEX
  8
FOREGROUND
 62
     7
  6
CONTINUOUS
 10
0.280000
 20
7.001667
  0
VERTEX
  8
FOREGROUND
 62
     7
  6
CONTINUOUS
 10
0.330000
 20
7.038333
  0
VERTEX
  8
FOREGROUND
 62
     7
  6
CONTINUOUS
 10
0.381667
 20
7.070000
  0
VERTEX
  8
FOREGROUND
 62
     7
  6
CONTINUOUS
 10
0.436667
 20
7.096667
  0
VERTEX
  8
FOREGROUND
 62
     7
  6
CONTINUOUS
 10
0.495000
 20
7.118333
  0
VERTEX
  8
FOREGROUND
 62
     7
  6
CONTINUOUS
 10
0.556667
 20
7.133333
  0
VERTEX
  8
FOREGROUND
 62
     7
  6
CONTINUOUS
 10
0.618333
 20
7.143333
  0
SEQEND
  8
0
  0
POLYLINE
  8
FOREGROUND
  6
CONTINUOUS
 66
     1
 40
0.010000
 41
0.010000
 70
     1
  0
VERTEX
  8
FOREGROUND
  6
CONTINUOUS
 10
0.683333
 20
7.146667
  0
VERTEX
  8
FOREGROUND
  6
CONTINUOUS
 10
2.590000
 20
7.146667
  0
VERTEX
  8
FOREGROUND
  6
CONTINUOUS
 10
2.655000
 20
7.143333
  0
VERTEX
  8
FOREGROUND
  6
CONTINUOUS
 10
2.718333
 20
7.133333
  0
VERTEX
  8
FOREGROUND
  6
CONTINUOUS
 10
2.778333
 20
7.118333
  0
VERTEX
  8
FOREGROUND
  6
CONTINUOUS
 10
2.836667
 20
7.096667
  0
VERTEX
  8
FOREGROUND
  6
CONTINUOUS
 10
2.891667
 20
7.070000
  0
VERTEX
  8
FOREGROUND
  6
CONTINUOUS
 10
2.945000
 20
7.038333
  0
VERTEX
  8
FOREGROUND
  6
CONTINUOUS
 10
2.993333
 20
7.001667
  0
VERTEX
  8
FOREGROUND
  6
CONTINUOUS
 10
3.038333
 20
6.960000
  0
VERTEX
  8
FOREGROUND
  6
CONTINUOUS
 10
3.078333
 20
6.916667
  0
VERTEX
  8
FOREGROUND
  6
CONTINUOUS
 10
3.115000
 20
6.866667
  0
VERTEX
  8
FOREGROUND
  6
CONTINUOUS
 10
3.146667
 20
6.815000
  0
VERTEX
  8
FOREGROUND
  6
CONTINUOUS
 10
3.173333
 20
6.760000
  0
VERTEX
  8
FOREGROUND
  6
CONTINUOUS
 10
3.195000
 20
6.701667
  0
VERTEX
  8
FOREGROUND
  6
CONTINUOUS
 10
3.210000
 20
6.640000
  0
VERTEX
  8
FOREGROUND
  6
CONTINUOUS
 10
3.220000
 20
6.578333
  0
VERTEX
  8
FOREGROUND
  6
CONTINUOUS
 10
3.223333
 20
6.513333
  0
VERTEX
  8
FOREGROUND
  6
CONTINUOUS
 10
3.223333
 20
0.691667
  0
VERTEX
  8
FOREGROUND
  6
CONTINUOUS
 10
3.220000
 20
0.626667
  0
VERTEX
  8
FOREGROUND
  6
CONTINUOUS
 10
3.210000
 20
0.563333
  0
VERTEX
  8
FOREGROUND
  6
CONTINUOUS
 10
3.195000
 20
0.503333
  0
VERTEX
  8
FOREGROUND
  6
CONTINUOUS
 10
3.173333
 20
0.445000
  0
VERTEX
  8
FOREGROUND
  6
CONTINUOUS
 10
3.146667
 20
0.390000
  0
VERTEX
  8
FOREGROUND
  6
CONTINUOUS
 10
3.115000
 20
0.336667
  0
VERTEX
  8
FOREGROUND
  6
CONTINUOUS
 10
3.078333
 20
0.288333
  0
VERTEX
  8
FOREGROUND
  6
CONTINUOUS
 10
3.038333
 20
0.243333
  0
VERTEX
  8
FOREGROUND
  6
CONTINUOUS
 10
2.993333
 20
0.203333
  0
VERTEX
  8
FOREGROUND
  6
CONTINUOUS
 10
2.945000
 20
0.166667
  0
VERTEX
  8
FOREGROUND
  6
CONTINUOUS
 10
2.891667
 20
0.135000
  0
VERTEX
  8
FOREGROUND
  6
CONTINUOUS
 10
2.836667
 20
0.108333
  0
VERTEX
  8
FOREGROUND
  6
CONTINUOUS
 10
2.778333
 20
0.086667
  0
VERTEX
  8
FOREGROUND
  6
CONTINUOUS
 10
2.718333
 20
0.071667
  0
VERTEX
  8
FOREGROUND
  6
CONTINUOUS
 10
2.655000
 20
0.061667
  0
VERTEX
  8
FOREGROUND
  6
CONTINUOUS
 10
2.590000
 20
0.058333
  0
VERTEX
  8
FOREGROUND
  6
CONTINUOUS
 10
0.683333
 20
0.058333
  0
VERTEX
  8
FOREGROUND
  6
CONTINUOUS
 10
0.618333
 20
0.061667
  0
VERTEX
  8
FOREGROUND
  6
CONTINUOUS
 10
0.556667
 20
0.071667
  0
VERTEX
  8
FOREGROUND
  6
CONTINUOUS
 10
0.495000
 20
0.086667
  0
VERTEX
  8
FOREGROUND
  6
CONTINUOUS
 10
0.436667
 20
0.108333
  0
VERTEX
  8
FOREGROUND
  6
CONTINUOUS
 10
0.381667
 20
0.135000
  0
VERTEX
  8
FOREGROUND
  6
CONTINUOUS
 10
0.330000
 20
0.166667
  0
VERTEX
  8
FOREGROUND
  6
CONTINUOUS
 10
0.280000
 20
0.203333
  0
VERTEX
  8
FOREGROUND
  6
CONTINUOUS
 10
0.236667
 20
0.243333
  0
VERTEX
  8
FOREGROUND
  6
CONTINUOUS
 10
0.195000
 20
0.288333
  0
VERTEX
  8
FOREGROUND
  6
CONTINUOUS
 10
0.158333
 20
0.336667
  0
VERTEX
  8
FOREGROUND
  6
CONTINUOUS
 10
0.126667
 20
0.390000
  0
VERTEX
  8
FOREGROUND
  6
CONTINUOUS
 10
0.100000
 20
0.445000
  0
VERTEX
  8
FOREGROUND
  6
CONTINUOUS
 10
0.078333
 20
0.503333
  0
VERTEX
  8
FOREGROUND
  6
CONTINUOUS
 10
0.063333
 20
0.563333
  0
VERTEX
  8
FOREGROUND
  6
CONTINUOUS
 10
0.053333
 20
0.626667
  0
VERTEX
  8
FOREGROUND
  6
CONTINUOUS
 10
0.050000
 20
0.691667
  0
VERTEX
  8
FOREGROUND
  6
CONTINUOUS
 10
0.050000
 20
6.513333
  0
VERTEX
  8
FOREGROUND
  6
CONTINUOUS
 10
0.053333
 20
6.578333
  0
VERTEX
  8
FOREGROUND
  6
CONTINUOUS
 10
0.063333
 20
6.640000
  0
VERTEX
  8
FOREGROUND
  6
CONTINUOUS
 10
0.078333
 20
6.701667
  0
VERTEX
  8
FOREGROUND
  6
CONTINUOUS
 10
0.100000
 20
6.760000
  0
VERTEX
  8
FOREGROUND
  6
CONTINUOUS
 10
0.126667
 20
6.815000
  0
VERTEX
  8
FOREGROUND
  6
CONTINUOUS
 10
0.158333
 20
6.866667
  0
VERTEX
  8
FOREGROUND
  6
CONTINUOUS
 10
0.195000
 20
6.916667
  0
VERTEX
  8
FOREGROUND
  6
CONTINUOUS
 10
0.236667
 20
6.960000
  0
VERTEX
  8
FOREGROUND
  6
CONTINUOUS
 10
0.280000
 20
7.001667
  0
VERTEX
  8
FOREGROUND
  6
CONTINUOUS
 10
0.330000
 20
7.038333
  0
VERTEX
  8
FOREGROUND
  6
CONTINUOUS
 10
0.381667
 20
7.070000
  0
VERTEX
  8
FOREGROUND
  6
CONTINUOUS
 10
0.436667
 20
7.096667
  0
VERTEX
  8
FOREGROUND
  6
CONTINUOUS
 10
0.495000
 20
7.118333
  0
VERTEX
  8
FOREGROUND
  6
CONTINUOUS
 10
0.556667
 20
7.133333
  0
VERTEX
  8
FOREGROUND
  6
CONTINUOUS
 10
0.618333
 20
7.143333
  0
SEQEND
  8
0
  0
ENDSEC
  0
EOF
