  0
SECTION
  2
HEADER
  9
$ACADVER
  1
AC1006
  9
$EXTMIN
 10
0.000000
 20
0.000000
  9
$EXTMAX
 10
3.368333
 20
8.095000
  9
$LTSCALE
 40
0.166667
  9
$PDMODE
 70
    35
  9
$PDSIZE
 40
0.133333
  0
ENDSEC
  0
SECTION
  2
TABLES
  0
TABLE
  2
LTYPE
 70
     9
  0
LTYPE
  2
CONTINUOUS
 70
    64
  3
Solid line
 72
    65
 73
     0
 40
0.000000
  0
LTYPE
  2
DASHED
 70
    64
  3
__ __ __ __ __ __ __ __ __ __ __ __ __ __ __
 72
    65
 73
     2
 40
0.001250
 49
0.000833
 49
-0.000417
  0
LTYPE
  2
HIDDEN
 70
    64
  3
 _ _ _ _ _ _ _ _ _ _ _ _ _ _ _ _ _ _ _ _ _ _
 72
    65
 73
     2
 40
0.000625
 49
0.000417
 49
-0.000208
  0
LTYPE
  2
CENTER
 70
    64
  3
____ _ ____ _ ____ _ ____ _ ____ _ ____ _ ____
 72
    65
 73
     4
 40
0.003333
 49
0.002083
 49
-0.000417
 49
0.000417
 49
-0.000417
  0
LTYPE
  2
PHANTOM
 70
    64
  3
_____ _ _ _____ _ _ _____ _ _ _____ _ _ ____
 72
    65
 73
     6
 40
0.004167
 49
0.002083
 49
-0.000417
 49
0.000417
 49
-0.000417
 49
0.000417
 49
-0.000417
  0
LTYPE
  2
DOT
 70
    64
  3
...............................................
 72
    65
 73
     2
 40
0.000417
 49
0.000000
 49
-0.000417
  0
LTYPE
  2
DASHDOT
 70
    64
  3
__ . __ . __ . __ . __ . __ . __ . __ . __ . __
 72
    65
 73
     4
 40
0.001667
 49
0.000833
 49
-0.000417
 49
0.000000
 49
-0.000417
  0
LTYPE
  2
BORDER
 70
    64
  3
__ __ . __ __ . __ __ . __ __ . __ __ . __ __
 72
    65
 73
     6
 40
0.002917
 49
0.000833
 49
-0.000417
 49
0.000833
 49
-0.000417
 49
0.000000
 49
-0.000417
  0
LTYPE
  2
DIVIDE
 70
    64
  3
__ . . __ . . __ . . __ . . __ . . __ . . __
 72
    65
 73
     6
 40
0.002083
 49
0.000833
 49
-0.000417
 49
0.000000
 49
-0.000417
 49
0.000000
 49
-0.000417
  0
LTYPE
  2
DOTDOT
 70
    64
  3
 . .  . .  . .  . .  . .  . . 
 72
    65
 73
     5
 40
0.000917
 49
-0.000417
 49
0.000000
 49
-0.000417
 49
0.000000
 49
-0.000417
  0
ENDTAB
  0
TABLE
  2
STYLE
 70
     2
  0
STYLE
 70
     0
  2
SN0
 40
0.000000
 41
0.001667
 50
0.000000
 71
     0
 42
0.000000
  3
ROMAND
  0
STYLE
 70
    68
  2
SV0
 40
0.000000
 41
0.001667
 50
0.000000
 71
     0
 42
0.000000
  3
ROMAND
  0
ENDTAB
  0
TABLE
  2
LAYER
 70
     2
  0
LAYER
  2
FOREGROUND
 70
    64
 62
     7
  6
CONTINUOUS
  0
LAYER
  2
BACKGROUND
 70
    65
 62
    -7
  6
CONTINUOUS
  0
ENDTAB
  0
ENDSEC
  0
SECTION
  2
ENTITIES
  0
POLYLINE
  8
FOREGROUND
 62
     7
  6
CONTINUOUS
 66
     1
 40
0.000000
 41
0.000000
 70
     1
  0
VERTEX
  8
FOREGROUND
 62
     7
  6
CONTINUOUS
 10
0.680000
 20
7.940000
  0
VERTEX
  8
FOREGROUND
 62
     7
  6
CONTINUOUS
 10
2.575000
 20
7.940000
  0
VERTEX
  8
FOREGROUND
 62
     7
  6
CONTINUOUS
 10
2.640000
 20
7.936667
  0
VERTEX
  8
FOREGROUND
 62
     7
  6
CONTINUOUS
 10
2.701667
 20
7.926667
  0
VERTEX
  8
FOREGROUND
 62
     7
  6
CONTINUOUS
 10
2.763333
 20
7.911667
  0
VERTEX
  8
FOREGROUND
 62
     7
  6
CONTINUOUS
 10
2.820000
 20
7.890000
  0
VERTEX
  8
FOREGROUND
 62
     7
  6
CONTINUOUS
 10
2.875000
 20
7.863333
  0
VERTEX
  8
FOREGROUND
 62
     7
  6
CONTINUOUS
 10
2.928333
 20
7.831667
  0
VERTEX
  8
FOREGROUND
 62
     7
  6
CONTINUOUS
 10
2.976667
 20
7.796667
  0
VERTEX
  8
FOREGROUND
 62
     7
  6
CONTINUOUS
 10
3.021667
 20
7.755000
  0
VERTEX
  8
FOREGROUND
 62
     7
  6
CONTINUOUS
 10
3.061667
 20
7.710000
  0
VERTEX
  8
FOREGROUND
 62
     7
  6
CONTINUOUS
 10
3.098333
 20
7.661667
  0
VERTEX
  8
FOREGROUND
 62
     7
  6
CONTINUOUS
 10
3.130000
 20
7.610000
  0
VERTEX
  8
FOREGROUND
 62
     7
  6
CONTINUOUS
 10
3.155000
 20
7.555000
  0
VERTEX
  8
FOREGROUND
 62
     7
  6
CONTINUOUS
 10
3.176667
 20
7.496667
  0
VERTEX
  8
FOREGROUND
 62
     7
  6
CONTINUOUS
 10
3.191667
 20
7.436667
  0
VERTEX
  8
FOREGROUND
 62
     7
  6
CONTINUOUS
 10
3.201667
 20
7.373333
  0
VERTEX
  8
FOREGROUND
 62
     7
  6
CONTINUOUS
 10
3.205000
 20
7.310000
  0
VERTEX
  8
FOREGROUND
 62
     7
  6
CONTINUOUS
 10
3.205000
 20
0.688333
  0
VERTEX
  8
FOREGROUND
 62
     7
  6
CONTINUOUS
 10
3.201667
 20
0.623333
  0
VERTEX
  8
FOREGROUND
 62
     7
  6
CONTINUOUS
 10
3.191667
 20
0.561667
  0
VERTEX
  8
FOREGROUND
 62
     7
  6
CONTINUOUS
 10
3.176667
 20
0.500000
  0
VERTEX
  8
FOREGROUND
 62
     7
  6
CONTINUOUS
 10
3.155000
 20
0.443333
  0
VERTEX
  8
FOREGROUND
 62
     7
  6
CONTINUOUS
 10
3.130000
 20
0.388333
  0
VERTEX
  8
FOREGROUND
 62
     7
  6
CONTINUOUS
 10
3.098333
 20
0.335000
  0
VERTEX
  8
FOREGROUND
 62
     7
  6
CONTINUOUS
 10
3.061667
 20
0.286667
  0
VERTEX
  8
FOREGROUND
 62
     7
  6
CONTINUOUS
 10
3.021667
 20
0.241667
  0
VERTEX
  8
FOREGROUND
 62
     7
  6
CONTINUOUS
 10
2.976667
 20
0.201667
  0
VERTEX
  8
FOREGROUND
 62
     7
  6
CONTINUOUS
 10
2.928333
 20
0.165000
  0
VERTEX
  8
FOREGROUND
 62
     7
  6
CONTINUOUS
 10
2.875000
 20
0.133333
  0
VERTEX
  8
FOREGROUND
 62
     7
  6
CONTINUOUS
 10
2.820000
 20
0.108333
  0
VERTEX
  8
FOREGROUND
 62
     7
  6
CONTINUOUS
 10
2.763333
 20
0.086667
  0
VERTEX
  8
FOREGROUND
 62
     7
  6
CONTINUOUS
 10
2.701667
 20
0.071667
  0
VERTEX
  8
FOREGROUND
 62
     7
  6
CONTINUOUS
 10
2.640000
 20
0.061667
  0
VERTEX
  8
FOREGROUND
 62
     7
  6
CONTINUOUS
 10
2.575000
 20
0.058333
  0
VERTEX
  8
FOREGROUND
 62
     7
  6
CONTINUOUS
 10
0.680000
 20
0.058333
  0
VERTEX
  8
FOREGROUND
 62
     7
  6
CONTINUOUS
 10
0.616667
 20
0.061667
  0
VERTEX
  8
FOREGROUND
 62
     7
  6
CONTINUOUS
 10
0.553333
 20
0.071667
  0
VERTEX
  8
FOREGROUND
 62
     7
  6
CONTINUOUS
 10
0.493333
 20
0.086667
  0
VERTEX
  8
FOREGROUND
 62
     7
  6
CONTINUOUS
 10
0.435000
 20
0.108333
  0
VERTEX
  8
FOREGROUND
 62
     7
  6
CONTINUOUS
 10
0.380000
 20
0.133333
  0
VERTEX
  8
FOREGROUND
 62
     7
  6
CONTINUOUS
 10
0.328333
 20
0.165000
  0
VERTEX
  8
FOREGROUND
 62
     7
  6
CONTINUOUS
 10
0.280000
 20
0.201667
  0
VERTEX
  8
FOREGROUND
 62
     7
  6
CONTINUOUS
 10
0.235000
 20
0.241667
  0
VERTEX
  8
FOREGROUND
 62
     7
  6
CONTINUOUS
 10
0.193333
 20
0.286667
  0
VERTEX
  8
FOREGROUND
 62
     7
  6
CONTINUOUS
 10
0.158333
 20
0.335000
  0
VERTEX
  8
FOREGROUND
 62
     7
  6
CONTINUOUS
 10
0.126667
 20
0.388333
  0
VERTEX
  8
FOREGROUND
 62
     7
  6
CONTINUOUS
 10
0.100000
 20
0.443333
  0
VERTEX
  8
FOREGROUND
 62
     7
  6
CONTINUOUS
 10
0.078333
 20
0.500000
  0
VERTEX
  8
FOREGROUND
 62
     7
  6
CONTINUOUS
 10
0.063333
 20
0.561667
  0
VERTEX
  8
FOREGROUND
 62
     7
  6
CONTINUOUS
 10
0.053333
 20
0.623333
  0
VERTEX
  8
FOREGROUND
 62
     7
  6
CONTINUOUS
 10
0.050000
 20
0.688333
  0
VERTEX
  8
FOREGROUND
 62
     7
  6
CONTINUOUS
 10
0.050000
 20
7.310000
  0
VERTEX
  8
FOREGROUND
 62
     7
  6
CONTINUOUS
 10
0.053333
 20
7.373333
  0
VERTEX
  8
FOREGROUND
 62
     7
  6
CONTINUOUS
 10
0.063333
 20
7.436667
  0
VERTEX
  8
FOREGROUND
 62
     7
  6
CONTINUOUS
 10
0.078333
 20
7.496667
  0
VERTEX
  8
FOREGROUND
 62
     7
  6
CONTINUOUS
 10
0.100000
 20
7.555000
  0
VERTEX
  8
FOREGROUND
 62
     7
  6
CONTINUOUS
 10
0.126667
 20
7.610000
  0
VERTEX
  8
FOREGROUND
 62
     7
  6
CONTINUOUS
 10
0.158333
 20
7.661667
  0
VERTEX
  8
FOREGROUND
 62
     7
  6
CONTINUOUS
 10
0.193333
 20
7.710000
  0
VERTEX
  8
FOREGROUND
 62
     7
  6
CONTINUOUS
 10
0.235000
 20
7.755000
  0
VERTEX
  8
FOREGROUND
 62
     7
  6
CONTINUOUS
 10
0.280000
 20
7.796667
  0
VERTEX
  8
FOREGROUND
 62
     7
  6
CONTINUOUS
 10
0.328333
 20
7.831667
  0
VERTEX
  8
FOREGROUND
 62
     7
  6
CONTINUOUS
 10
0.380000
 20
7.863333
  0
VERTEX
  8
FOREGROUND
 62
     7
  6
CONTINUOUS
 10
0.435000
 20
7.890000
  0
VERTEX
  8
FOREGROUND
 62
     7
  6
CONTINUOUS
 10
0.493333
 20
7.911667
  0
VERTEX
  8
FOREGROUND
 62
     7
  6
CONTINUOUS
 10
0.553333
 20
7.926667
  0
VERTEX
  8
FOREGROUND
 62
     7
  6
CONTINUOUS
 10
0.616667
 20
7.936667
  0
SEQEND
  8
0
  0
POLYLINE
  8
FOREGROUND
  6
CONTINUOUS
 66
     1
 40
0.010000
 41
0.010000
 70
     1
  0
VERTEX
  8
FOREGROUND
  6
CONTINUOUS
 10
0.680000
 20
7.940000
  0
VERTEX
  8
FOREGROUND
  6
CONTINUOUS
 10
2.575000
 20
7.940000
  0
VERTEX
  8
FOREGROUND
  6
CONTINUOUS
 10
2.640000
 20
7.936667
  0
VERTEX
  8
FOREGROUND
  6
CONTINUOUS
 10
2.701667
 20
7.926667
  0
VERTEX
  8
FOREGROUND
  6
CONTINUOUS
 10
2.763333
 20
7.911667
  0
VERTEX
  8
FOREGROUND
  6
CONTINUOUS
 10
2.820000
 20
7.890000
  0
VERTEX
  8
FOREGROUND
  6
CONTINUOUS
 10
2.875000
 20
7.863333
  0
VERTEX
  8
FOREGROUND
  6
CONTINUOUS
 10
2.928333
 20
7.831667
  0
VERTEX
  8
FOREGROUND
  6
CONTINUOUS
 10
2.976667
 20
7.796667
  0
VERTEX
  8
FOREGROUND
  6
CONTINUOUS
 10
3.021667
 20
7.755000
  0
VERTEX
  8
FOREGROUND
  6
CONTINUOUS
 10
3.061667
 20
7.710000
  0
VERTEX
  8
FOREGROUND
  6
CONTINUOUS
 10
3.098333
 20
7.661667
  0
VERTEX
  8
FOREGROUND
  6
CONTINUOUS
 10
3.130000
 20
7.610000
  0
VERTEX
  8
FOREGROUND
  6
CONTINUOUS
 10
3.155000
 20
7.555000
  0
VERTEX
  8
FOREGROUND
  6
CONTINUOUS
 10
3.176667
 20
7.496667
  0
VERTEX
  8
FOREGROUND
  6
CONTINUOUS
 10
3.191667
 20
7.436667
  0
VERTEX
  8
FOREGROUND
  6
CONTINUOUS
 10
3.201667
 20
7.373333
  0
VERTEX
  8
FOREGROUND
  6
CONTINUOUS
 10
3.205000
 20
7.310000
  0
VERTEX
  8
FOREGROUND
  6
CONTINUOUS
 10
3.205000
 20
0.688333
  0
VERTEX
  8
FOREGROUND
  6
CONTINUOUS
 10
3.201667
 20
0.623333
  0
VERTEX
  8
FOREGROUND
  6
CONTINUOUS
 10
3.191667
 20
0.561667
  0
VERTEX
  8
FOREGROUND
  6
CONTINUOUS
 10
3.176667
 20
0.500000
  0
VERTEX
  8
FOREGROUND
  6
CONTINUOUS
 10
3.155000
 20
0.443333
  0
VERTEX
  8
FOREGROUND
  6
CONTINUOUS
 10
3.130000
 20
0.388333
  0
VERTEX
  8
FOREGROUND
  6
CONTINUOUS
 10
3.098333
 20
0.335000
  0
VERTEX
  8
FOREGROUND
  6
CONTINUOUS
 10
3.061667
 20
0.286667
  0
VERTEX
  8
FOREGROUND
  6
CONTINUOUS
 10
3.021667
 20
0.241667
  0
VERTEX
  8
FOREGROUND
  6
CONTINUOUS
 10
2.976667
 20
0.201667
  0
VERTEX
  8
FOREGROUND
  6
CONTINUOUS
 10
2.928333
 20
0.165000
  0
VERTEX
  8
FOREGROUND
  6
CONTINUOUS
 10
2.875000
 20
0.133333
  0
VERTEX
  8
FOREGROUND
  6
CONTINUOUS
 10
2.820000
 20
0.108333
  0
VERTEX
  8
FOREGROUND
  6
CONTINUOUS
 10
2.763333
 20
0.086667
  0
VERTEX
  8
FOREGROUND
  6
CONTINUOUS
 10
2.701667
 20
0.071667
  0
VERTEX
  8
FOREGROUND
  6
CONTINUOUS
 10
2.640000
 20
0.061667
  0
VERTEX
  8
FOREGROUND
  6
CONTINUOUS
 10
2.575000
 20
0.058333
  0
VERTEX
  8
FOREGROUND
  6
CONTINUOUS
 10
0.680000
 20
0.058333
  0
VERTEX
  8
FOREGROUND
  6
CONTINUOUS
 10
0.616667
 20
0.061667
  0
VERTEX
  8
FOREGROUND
  6
CONTINUOUS
 10
0.553333
 20
0.071667
  0
VERTEX
  8
FOREGROUND
  6
CONTINUOUS
 10
0.493333
 20
0.086667
  0
VERTEX
  8
FOREGROUND
  6
CONTINUOUS
 10
0.435000
 20
0.108333
  0
VERTEX
  8
FOREGROUND
  6
CONTINUOUS
 10
0.380000
 20
0.133333
  0
VERTEX
  8
FOREGROUND
  6
CONTINUOUS
 10
0.328333
 20
0.165000
  0
VERTEX
  8
FOREGROUND
  6
CONTINUOUS
 10
0.280000
 20
0.201667
  0
VERTEX
  8
FOREGROUND
  6
CONTINUOUS
 10
0.235000
 20
0.241667
  0
VERTEX
  8
FOREGROUND
  6
CONTINUOUS
 10
0.193333
 20
0.286667
  0
VERTEX
  8
FOREGROUND
  6
CONTINUOUS
 10
0.158333
 20
0.335000
  0
VERTEX
  8
FOREGROUND
  6
CONTINUOUS
 10
0.126667
 20
0.388333
  0
VERTEX
  8
FOREGROUND
  6
CONTINUOUS
 10
0.100000
 20
0.443333
  0
VERTEX
  8
FOREGROUND
  6
CONTINUOUS
 10
0.078333
 20
0.500000
  0
VERTEX
  8
FOREGROUND
  6
CONTINUOUS
 10
0.063333
 20
0.561667
  0
VERTEX
  8
FOREGROUND
  6
CONTINUOUS
 10
0.053333
 20
0.623333
  0
VERTEX
  8
FOREGROUND
  6
CONTINUOUS
 10
0.050000
 20
0.688333
  0
VERTEX
  8
FOREGROUND
  6
CONTINUOUS
 10
0.050000
 20
7.310000
  0
VERTEX
  8
FOREGROUND
  6
CONTINUOUS
 10
0.053333
 20
7.373333
  0
VERTEX
  8
FOREGROUND
  6
CONTINUOUS
 10
0.063333
 20
7.436667
  0
VERTEX
  8
FOREGROUND
  6
CONTINUOUS
 10
0.078333
 20
7.496667
  0
VERTEX
  8
FOREGROUND
  6
CONTINUOUS
 10
0.100000
 20
7.555000
  0
VERTEX
  8
FOREGROUND
  6
CONTINUOUS
 10
0.126667
 20
7.610000
  0
VERTEX
  8
FOREGROUND
  6
CONTINUOUS
 10
0.158333
 20
7.661667
  0
VERTEX
  8
FOREGROUND
  6
CONTINUOUS
 10
0.193333
 20
7.710000
  0
VERTEX
  8
FOREGROUND
  6
CONTINUOUS
 10
0.235000
 20
7.755000
  0
VERTEX
  8
FOREGROUND
  6
CONTINUOUS
 10
0.280000
 20
7.796667
  0
VERTEX
  8
FOREGROUND
  6
CONTINUOUS
 10
0.328333
 20
7.831667
  0
VERTEX
  8
FOREGROUND
  6
CONTINUOUS
 10
0.380000
 20
7.863333
  0
VERTEX
  8
FOREGROUND
  6
CONTINUOUS
 10
0.435000
 20
7.890000
  0
VERTEX
  8
FOREGROUND
  6
CONTINUOUS
 10
0.493333
 20
7.911667
  0
VERTEX
  8
FOREGROUND
  6
CONTINUOUS
 10
0.553333
 20
7.926667
  0
VERTEX
  8
FOREGROUND
  6
CONTINUOUS
 10
0.616667
 20
7.936667
  0
SEQEND
  8
0
  0
ENDSEC
  0
EOF
