  0
SECTION
  2
HEADER
  9
$ACADVER
  1
AC1006
  9
$EXTMIN
 10
0.000000
 20
0.000000
  9
$EXTMAX
 10
3.256667
 20
3.260000
  9
$LTSCALE
 40
0.166667
  9
$PDMODE
 70
    35
  9
$PDSIZE
 40
0.133333
  0
ENDSEC
  0
SECTION
  2
TABLES
  0
TABLE
  2
LTYPE
 70
     9
  0
LTYPE
  2
CONTINUOUS
 70
    64
  3
Solid line
 72
    65
 73
     0
 40
0.000000
  0
LTYPE
  2
DASHED
 70
    64
  3
__ __ __ __ __ __ __ __ __ __ __ __ __ __ __
 72
    65
 73
     2
 40
0.001250
 49
0.000833
 49
-0.000417
  0
LTYPE
  2
HIDDEN
 70
    64
  3
 _ _ _ _ _ _ _ _ _ _ _ _ _ _ _ _ _ _ _ _ _ _
 72
    65
 73
     2
 40
0.000625
 49
0.000417
 49
-0.000208
  0
LTYPE
  2
CENTER
 70
    64
  3
____ _ ____ _ ____ _ ____ _ ____ _ ____ _ ____
 72
    65
 73
     4
 40
0.003333
 49
0.002083
 49
-0.000417
 49
0.000417
 49
-0.000417
  0
LTYPE
  2
PHANTOM
 70
    64
  3
_____ _ _ _____ _ _ _____ _ _ _____ _ _ ____
 72
    65
 73
     6
 40
0.004167
 49
0.002083
 49
-0.000417
 49
0.000417
 49
-0.000417
 49
0.000417
 49
-0.000417
  0
LTYPE
  2
DOT
 70
    64
  3
...............................................
 72
    65
 73
     2
 40
0.000417
 49
0.000000
 49
-0.000417
  0
LTYPE
  2
DASHDOT
 70
    64
  3
__ . __ . __ . __ . __ . __ . __ . __ . __ . __
 72
    65
 73
     4
 40
0.001667
 49
0.000833
 49
-0.000417
 49
0.000000
 49
-0.000417
  0
LTYPE
  2
BORDER
 70
    64
  3
__ __ . __ __ . __ __ . __ __ . __ __ . __ __
 72
    65
 73
     6
 40
0.002917
 49
0.000833
 49
-0.000417
 49
0.000833
 49
-0.000417
 49
0.000000
 49
-0.000417
  0
LTYPE
  2
DIVIDE
 70
    64
  3
__ . . __ . . __ . . __ . . __ . . __ . . __
 72
    65
 73
     6
 40
0.002083
 49
0.000833
 49
-0.000417
 49
0.000000
 49
-0.000417
 49
0.000000
 49
-0.000417
  0
LTYPE
  2
DOTDOT
 70
    64
  3
 . .  . .  . .  . .  . .  . . 
 72
    65
 73
     5
 40
0.000917
 49
-0.000417
 49
0.000000
 49
-0.000417
 49
0.000000
 49
-0.000417
  0
ENDTAB
  0
TABLE
  2
STYLE
 70
     2
  0
STYLE
 70
     0
  2
SN0
 40
0.000000
 41
0.001667
 50
0.000000
 71
     0
 42
0.000000
  3
ROMAND
  0
STYLE
 70
    68
  2
SV0
 40
0.000000
 41
0.001667
 50
0.000000
 71
     0
 42
0.000000
  3
ROMAND
  0
ENDTAB
  0
TABLE
  2
LAYER
 70
     2
  0
LAYER
  2
FOREGROUND
 70
    64
 62
     7
  6
CONTINUOUS
  0
LAYER
  2
BACKGROUND
 70
    65
 62
    -7
  6
CONTINUOUS
  0
ENDTAB
  0
ENDSEC
  0
SECTION
  2
ENTITIES
  0
POLYLINE
  8
FOREGROUND
  6
CONTINUOUS
 66
     1
 40
0.010000
 41
0.010000
 70
     1
  0
VERTEX
  8
FOREGROUND
  6
CONTINUOUS
 10
2.575000
 20
0.050000
  0
VERTEX
  8
FOREGROUND
  6
CONTINUOUS
 10
2.597655
 20
0.050416
  0
VERTEX
  8
FOREGROUND
  6
CONTINUOUS
 10
2.620110
 20
0.051619
  0
VERTEX
  8
FOREGROUND
  6
CONTINUOUS
 10
2.642349
 20
0.053596
  0
VERTEX
  8
FOREGROUND
  6
CONTINUOUS
 10
2.664360
 20
0.056333
  0
VERTEX
  8
FOREGROUND
  6
CONTINUOUS
 10
2.686130
 20
0.059817
  0
VERTEX
  8
FOREGROUND
  6
CONTINUOUS
 10
2.707646
 20
0.064036
  0
VERTEX
  8
FOREGROUND
  6
CONTINUOUS
 10
2.728893
 20
0.068974
  0
VERTEX
  8
FOREGROUND
  6
CONTINUOUS
 10
2.749859
 20
0.074620
  0
VERTEX
  8
FOREGROUND
  6
CONTINUOUS
 10
2.770531
 20
0.080959
  0
VERTEX
  8
FOREGROUND
  6
CONTINUOUS
 10
2.790895
 20
0.087980
  0
VERTEX
  8
FOREGROUND
  6
CONTINUOUS
 10
2.810937
 20
0.095667
  0
VERTEX
  8
FOREGROUND
  6
CONTINUOUS
 10
2.830645
 20
0.104008
  0
VERTEX
  8
FOREGROUND
  6
CONTINUOUS
 10
2.850006
 20
0.112990
  0
VERTEX
  8
FOREGROUND
  6
CONTINUOUS
 10
2.869005
 20
0.122599
  0
VERTEX
  8
FOREGROUND
  6
CONTINUOUS
 10
2.887630
 20
0.132823
  0
VERTEX
  8
FOREGROUND
  6
CONTINUOUS
 10
2.905867
 20
0.143647
  0
VERTEX
  8
FOREGROUND
  6
CONTINUOUS
 10
2.923703
 20
0.155058
  0
VERTEX
  8
FOREGROUND
  6
CONTINUOUS
 10
2.941124
 20
0.167043
  0
VERTEX
  8
FOREGROUND
  6
CONTINUOUS
 10
2.958118
 20
0.179589
  0
VERTEX
  8
FOREGROUND
  6
CONTINUOUS
 10
2.974671
 20
0.192683
  0
VERTEX
  8
FOREGROUND
  6
CONTINUOUS
 10
2.990770
 20
0.206311
  0
VERTEX
  8
FOREGROUND
  6
CONTINUOUS
 10
3.006401
 20
0.220459
  0
VERTEX
  8
FOREGROUND
  6
CONTINUOUS
 10
3.021552
 20
0.235115
  0
VERTEX
  8
FOREGROUND
  6
CONTINUOUS
 10
3.036208
 20
0.250265
  0
VERTEX
  8
FOREGROUND
  6
CONTINUOUS
 10
3.050356
 20
0.265897
  0
VERTEX
  8
FOREGROUND
  6
CONTINUOUS
 10
3.063984
 20
0.281995
  0
VERTEX
  8
FOREGROUND
  6
CONTINUOUS
 10
3.077077
 20
0.298548
  0
VERTEX
  8
FOREGROUND
  6
CONTINUOUS
 10
3.089623
 20
0.315542
  0
VERTEX
  8
FOREGROUND
  6
CONTINUOUS
 10
3.101609
 20
0.332964
  0
VERTEX
  8
FOREGROUND
  6
CONTINUOUS
 10
3.113020
 20
0.350800
  0
VERTEX
  8
FOREGROUND
  6
CONTINUOUS
 10
3.123844
 20
0.369037
  0
VERTEX
  8
FOREGROUND
  6
CONTINUOUS
 10
3.134067
 20
0.387662
  0
VERTEX
  8
FOREGROUND
  6
CONTINUOUS
 10
3.143676
 20
0.406661
  0
VERTEX
  8
FOREGROUND
  6
CONTINUOUS
 10
3.152658
 20
0.426021
  0
VERTEX
  8
FOREGROUND
  6
CONTINUOUS
 10
3.161000
 20
0.445729
  0
VERTEX
  8
FOREGROUND
  6
CONTINUOUS
 10
3.168687
 20
0.465772
  0
VERTEX
  8
FOREGROUND
  6
CONTINUOUS
 10
3.175707
 20
0.486136
  0
VERTEX
  8
FOREGROUND
  6
CONTINUOUS
 10
3.182047
 20
0.506807
  0
VERTEX
  8
FOREGROUND
  6
CONTINUOUS
 10
3.187693
 20
0.527774
  0
VERTEX
  8
FOREGROUND
  6
CONTINUOUS
 10
3.192631
 20
0.549021
  0
VERTEX
  8
FOREGROUND
  6
CONTINUOUS
 10
3.196849
 20
0.570536
  0
VERTEX
  8
FOREGROUND
  6
CONTINUOUS
 10
3.200333
 20
0.592306
  0
VERTEX
  8
FOREGROUND
  6
CONTINUOUS
 10
3.203071
 20
0.614318
  0
VERTEX
  8
FOREGROUND
  6
CONTINUOUS
 10
3.205048
 20
0.636557
  0
VERTEX
  8
FOREGROUND
  6
CONTINUOUS
 10
3.206251
 20
0.659011
  0
VERTEX
  8
FOREGROUND
  6
CONTINUOUS
 10
3.206667
 20
0.681667
  0
VERTEX
  8
FOREGROUND
  6
CONTINUOUS
 10
3.206667
 20
2.578333
  0
VERTEX
  8
FOREGROUND
  6
CONTINUOUS
 10
3.206250
 20
2.600992
  0
VERTEX
  8
FOREGROUND
  6
CONTINUOUS
 10
3.205047
 20
2.623449
  0
VERTEX
  8
FOREGROUND
  6
CONTINUOUS
 10
3.203070
 20
2.645691
  0
VERTEX
  8
FOREGROUND
  6
CONTINUOUS
 10
3.200332
 20
2.667705
  0
VERTEX
  8
FOREGROUND
  6
CONTINUOUS
 10
3.196847
 20
2.689478
  0
VERTEX
  8
FOREGROUND
  6
CONTINUOUS
 10
3.192628
 20
2.710995
  0
VERTEX
  8
FOREGROUND
  6
CONTINUOUS
 10
3.187688
 20
2.732245
  0
VERTEX
  8
FOREGROUND
  6
CONTINUOUS
 10
3.182041
 20
2.753214
  0
VERTEX
  8
FOREGROUND
  6
CONTINUOUS
 10
3.175700
 20
2.773888
  0
VERTEX
  8
FOREGROUND
  6
CONTINUOUS
 10
3.168678
 20
2.794254
  0
VERTEX
  8
FOREGROUND
  6
CONTINUOUS
 10
3.160989
 20
2.814298
  0
VERTEX
  8
FOREGROUND
  6
CONTINUOUS
 10
3.152646
 20
2.834008
  0
VERTEX
  8
FOREGROUND
  6
CONTINUOUS
 10
3.143662
 20
2.853370
  0
VERTEX
  8
FOREGROUND
  6
CONTINUOUS
 10
3.134050
 20
2.872371
  0
VERTEX
  8
FOREGROUND
  6
CONTINUOUS
 10
3.123825
 20
2.890997
  0
VERTEX
  8
FOREGROUND
  6
CONTINUOUS
 10
3.112998
 20
2.909236
  0
VERTEX
  8
FOREGROUND
  6
CONTINUOUS
 10
3.101585
 20
2.927073
  0
VERTEX
  8
FOREGROUND
  6
CONTINUOUS
 10
3.089597
 20
2.944496
  0
VERTEX
  8
FOREGROUND
  6
CONTINUOUS
 10
3.077048
 20
2.961491
  0
VERTEX
  8
FOREGROUND
  6
CONTINUOUS
 10
3.063951
 20
2.978045
  0
VERTEX
  8
FOREGROUND
  6
CONTINUOUS
 10
3.050321
 20
2.994144
  0
VERTEX
  8
FOREGROUND
  6
CONTINUOUS
 10
3.036169
 20
3.009776
  0
VERTEX
  8
FOREGROUND
  6
CONTINUOUS
 10
3.021510
 20
3.024926
  0
VERTEX
  8
FOREGROUND
  6
CONTINUOUS
 10
3.006357
 20
3.039583
  0
VERTEX
  8
FOREGROUND
  6
CONTINUOUS
 10
2.990723
 20
3.053731
  0
VERTEX
  8
FOREGROUND
  6
CONTINUOUS
 10
2.974621
 20
3.067359
  0
VERTEX
  8
FOREGROUND
  6
CONTINUOUS
 10
2.958064
 20
3.080452
  0
VERTEX
  8
FOREGROUND
  6
CONTINUOUS
 10
2.941067
 20
3.092998
  0
VERTEX
  8
FOREGROUND
  6
CONTINUOUS
 10
2.923642
 20
3.104982
  0
VERTEX
  8
FOREGROUND
  6
CONTINUOUS
 10
2.905803
 20
3.116393
  0
VERTEX
  8
FOREGROUND
  6
CONTINUOUS
 10
2.887562
 20
3.127216
  0
VERTEX
  8
FOREGROUND
  6
CONTINUOUS
 10
2.868934
 20
3.137438
  0
VERTEX
  8
FOREGROUND
  6
CONTINUOUS
 10
2.849931
 20
3.147046
  0
VERTEX
  8
FOREGROUND
  6
CONTINUOUS
 10
2.830568
 20
3.156026
  0
VERTEX
  8
FOREGROUND
  6
CONTINUOUS
 10
2.810856
 20
3.164366
  0
VERTEX
  8
FOREGROUND
  6
CONTINUOUS
 10
2.790810
 20
3.172051
  0
VERTEX
  8
FOREGROUND
  6
CONTINUOUS
 10
2.770443
 20
3.179069
  0
VERTEX
  8
FOREGROUND
  6
CONTINUOUS
 10
2.749768
 20
3.185407
  0
VERTEX
  8
FOREGROUND
  6
CONTINUOUS
 10
2.728798
 20
3.191050
  0
VERTEX
  8
FOREGROUND
  6
CONTINUOUS
 10
2.707548
 20
3.195986
  0
VERTEX
  8
FOREGROUND
  6
CONTINUOUS
 10
2.686029
 20
3.200201
  0
VERTEX
  8
FOREGROUND
  6
CONTINUOUS
 10
2.664256
 20
3.203682
  0
VERTEX
  8
FOREGROUND
  6
CONTINUOUS
 10
2.642241
 20
3.206416
  0
VERTEX
  8
FOREGROUND
  6
CONTINUOUS
 10
2.619999
 20
3.208389
  0
VERTEX
  8
FOREGROUND
  6
CONTINUOUS
 10
2.597541
 20
3.209588
  0
VERTEX
  8
FOREGROUND
  6
CONTINUOUS
 10
2.574883
 20
3.210000
  0
VERTEX
  8
FOREGROUND
  6
CONTINUOUS
 10
0.681550
 20
3.210000
  0
VERTEX
  8
FOREGROUND
  6
CONTINUOUS
 10
0.658897
 20
3.209580
  0
VERTEX
  8
FOREGROUND
  6
CONTINUOUS
 10
0.636446
 20
3.208373
  0
VERTEX
  8
FOREGROUND
  6
CONTINUOUS
 10
0.614210
 20
3.206392
  0
VERTEX
  8
FOREGROUND
  6
CONTINUOUS
 10
0.592202
 20
3.203652
  0
VERTEX
  8
FOREGROUND
  6
CONTINUOUS
 10
0.570435
 20
3.200164
  0
VERTEX
  8
FOREGROUND
  6
CONTINUOUS
 10
0.548923
 20
3.195943
  0
VERTEX
  8
FOREGROUND
  6
CONTINUOUS
 10
0.527679
 20
3.191002
  0
VERTEX
  8
FOREGROUND
  6
CONTINUOUS
 10
0.506716
 20
3.185354
  0
VERTEX
  8
FOREGROUND
  6
CONTINUOUS
 10
0.486048
 20
3.179012
  0
VERTEX
  8
FOREGROUND
  6
CONTINUOUS
 10
0.465687
 20
3.171990
  0
VERTEX
  8
FOREGROUND
  6
CONTINUOUS
 10
0.445648
 20
3.164300
  0
VERTEX
  8
FOREGROUND
  6
CONTINUOUS
 10
0.425943
 20
3.155957
  0
VERTEX
  8
FOREGROUND
  6
CONTINUOUS
 10
0.406587
 20
3.146974
  0
VERTEX
  8
FOREGROUND
  6
CONTINUOUS
 10
0.387591
 20
3.137363
  0
VERTEX
  8
FOREGROUND
  6
CONTINUOUS
 10
0.368969
 20
3.127139
  0
VERTEX
  8
FOREGROUND
  6
CONTINUOUS
 10
0.350736
 20
3.116314
  0
VERTEX
  8
FOREGROUND
  6
CONTINUOUS
 10
0.332903
 20
3.104902
  0
VERTEX
  8
FOREGROUND
  6
CONTINUOUS
 10
0.315485
 20
3.092916
  0
VERTEX
  8
FOREGROUND
  6
CONTINUOUS
 10
0.298494
 20
3.080369
  0
VERTEX
  8
FOREGROUND
  6
CONTINUOUS
 10
0.281944
 20
3.067276
  0
VERTEX
  8
FOREGROUND
  6
CONTINUOUS
 10
0.265849
 20
3.053648
  0
VERTEX
  8
FOREGROUND
  6
CONTINUOUS
 10
0.250221
 20
3.039499
  0
VERTEX
  8
FOREGROUND
  6
CONTINUOUS
 10
0.235074
 20
3.024844
  0
VERTEX
  8
FOREGROUND
  6
CONTINUOUS
 10
0.220421
 20
3.009694
  0
VERTEX
  8
FOREGROUND
  6
CONTINUOUS
 10
0.206275
 20
2.994063
  0
VERTEX
  8
FOREGROUND
  6
CONTINUOUS
 10
0.192650
 20
2.977965
  0
VERTEX
  8
FOREGROUND
  6
CONTINUOUS
 10
0.179560
 20
2.961413
  0
VERTEX
  8
FOREGROUND
  6
CONTINUOUS
 10
0.167016
 20
2.944420
  0
VERTEX
  8
FOREGROUND
  6
CONTINUOUS
 10
0.155033
 20
2.926999
  0
VERTEX
  8
FOREGROUND
  6
CONTINUOUS
 10
0.143625
 20
2.909165
  0
VERTEX
  8
FOREGROUND
  6
CONTINUOUS
 10
0.132803
 20
2.890929
  0
VERTEX
  8
FOREGROUND
  6
CONTINUOUS
 10
0.122582
 20
2.872306
  0
VERTEX
  8
FOREGROUND
  6
CONTINUOUS
 10
0.112975
 20
2.853308
  0
VERTEX
  8
FOREGROUND
  6
CONTINUOUS
 10
0.103995
 20
2.833950
  0
VERTEX
  8
FOREGROUND
  6
CONTINUOUS
 10
0.095656
 20
2.814243
  0
VERTEX
  8
FOREGROUND
  6
CONTINUOUS
 10
0.087970
 20
2.794203
  0
VERTEX
  8
FOREGROUND
  6
CONTINUOUS
 10
0.080952
 20
2.773841
  0
VERTEX
  8
FOREGROUND
  6
CONTINUOUS
 10
0.074614
 20
2.753172
  0
VERTEX
  8
FOREGROUND
  6
CONTINUOUS
 10
0.068970
 20
2.732208
  0
VERTEX
  8
FOREGROUND
  6
CONTINUOUS
 10
0.064032
 20
2.710963
  0
VERTEX
  8
FOREGROUND
  6
CONTINUOUS
 10
0.059815
 20
2.689450
  0
VERTEX
  8
FOREGROUND
  6
CONTINUOUS
 10
0.056332
 20
2.667682
  0
VERTEX
  8
FOREGROUND
  6
CONTINUOUS
 10
0.053595
 20
2.645674
  0
VERTEX
  8
FOREGROUND
  6
CONTINUOUS
 10
0.051619
 20
2.623437
  0
VERTEX
  8
FOREGROUND
  6
CONTINUOUS
 10
0.050416
 20
2.600986
  0
VERTEX
  8
FOREGROUND
  6
CONTINUOUS
 10
0.050000
 20
2.578333
  0
VERTEX
  8
FOREGROUND
  6
CONTINUOUS
 10
0.050000
 20
0.681667
  0
VERTEX
  8
FOREGROUND
  6
CONTINUOUS
 10
0.050416
 20
0.659011
  0
VERTEX
  8
FOREGROUND
  6
CONTINUOUS
 10
0.051619
 20
0.636557
  0
VERTEX
  8
FOREGROUND
  6
CONTINUOUS
 10
0.053596
 20
0.614318
  0
VERTEX
  8
FOREGROUND
  6
CONTINUOUS
 10
0.056333
 20
0.592306
  0
VERTEX
  8
FOREGROUND
  6
CONTINUOUS
 10
0.059817
 20
0.570536
  0
VERTEX
  8
FOREGROUND
  6
CONTINUOUS
 10
0.064036
 20
0.549021
  0
VERTEX
  8
FOREGROUND
  6
CONTINUOUS
 10
0.068974
 20
0.527774
  0
VERTEX
  8
FOREGROUND
  6
CONTINUOUS
 10
0.074620
 20
0.506807
  0
VERTEX
  8
FOREGROUND
  6
CONTINUOUS
 10
0.080959
 20
0.486136
  0
VERTEX
  8
FOREGROUND
  6
CONTINUOUS
 10
0.087980
 20
0.465772
  0
VERTEX
  8
FOREGROUND
  6
CONTINUOUS
 10
0.095667
 20
0.445729
  0
VERTEX
  8
FOREGROUND
  6
CONTINUOUS
 10
0.104008
 20
0.426021
  0
VERTEX
  8
FOREGROUND
  6
CONTINUOUS
 10
0.112990
 20
0.406661
  0
VERTEX
  8
FOREGROUND
  6
CONTINUOUS
 10
0.122599
 20
0.387662
  0
VERTEX
  8
FOREGROUND
  6
CONTINUOUS
 10
0.132823
 20
0.369037
  0
VERTEX
  8
FOREGROUND
  6
CONTINUOUS
 10
0.143647
 20
0.350800
  0
VERTEX
  8
FOREGROUND
  6
CONTINUOUS
 10
0.155058
 20
0.332964
  0
VERTEX
  8
FOREGROUND
  6
CONTINUOUS
 10
0.167043
 20
0.315542
  0
VERTEX
  8
FOREGROUND
  6
CONTINUOUS
 10
0.179589
 20
0.298548
  0
VERTEX
  8
FOREGROUND
  6
CONTINUOUS
 10
0.192683
 20
0.281995
  0
VERTEX
  8
FOREGROUND
  6
CONTINUOUS
 10
0.206311
 20
0.265897
  0
VERTEX
  8
FOREGROUND
  6
CONTINUOUS
 10
0.220459
 20
0.250265
  0
VERTEX
  8
FOREGROUND
  6
CONTINUOUS
 10
0.235115
 20
0.235115
  0
VERTEX
  8
FOREGROUND
  6
CONTINUOUS
 10
0.250265
 20
0.220459
  0
VERTEX
  8
FOREGROUND
  6
CONTINUOUS
 10
0.265897
 20
0.206311
  0
VERTEX
  8
FOREGROUND
  6
CONTINUOUS
 10
0.281995
 20
0.192683
  0
VERTEX
  8
FOREGROUND
  6
CONTINUOUS
 10
0.298548
 20
0.179589
  0
VERTEX
  8
FOREGROUND
  6
CONTINUOUS
 10
0.315542
 20
0.167043
  0
VERTEX
  8
FOREGROUND
  6
CONTINUOUS
 10
0.332964
 20
0.155058
  0
VERTEX
  8
FOREGROUND
  6
CONTINUOUS
 10
0.350800
 20
0.143647
  0
VERTEX
  8
FOREGROUND
  6
CONTINUOUS
 10
0.369037
 20
0.132823
  0
VERTEX
  8
FOREGROUND
  6
CONTINUOUS
 10
0.387662
 20
0.122599
  0
VERTEX
  8
FOREGROUND
  6
CONTINUOUS
 10
0.406661
 20
0.112990
  0
VERTEX
  8
FOREGROUND
  6
CONTINUOUS
 10
0.426021
 20
0.104008
  0
VERTEX
  8
FOREGROUND
  6
CONTINUOUS
 10
0.445729
 20
0.095667
  0
VERTEX
  8
FOREGROUND
  6
CONTINUOUS
 10
0.465772
 20
0.087980
  0
VERTEX
  8
FOREGROUND
  6
CONTINUOUS
 10
0.486136
 20
0.080959
  0
VERTEX
  8
FOREGROUND
  6
CONTINUOUS
 10
0.506807
 20
0.074620
  0
VERTEX
  8
FOREGROUND
  6
CONTINUOUS
 10
0.527774
 20
0.068974
  0
VERTEX
  8
FOREGROUND
  6
CONTINUOUS
 10
0.549021
 20
0.064036
  0
VERTEX
  8
FOREGROUND
  6
CONTINUOUS
 10
0.570536
 20
0.059817
  0
VERTEX
  8
FOREGROUND
  6
CONTINUOUS
 10
0.592306
 20
0.056333
  0
VERTEX
  8
FOREGROUND
  6
CONTINUOUS
 10
0.614318
 20
0.053596
  0
VERTEX
  8
FOREGROUND
  6
CONTINUOUS
 10
0.636557
 20
0.051619
  0
VERTEX
  8
FOREGROUND
  6
CONTINUOUS
 10
0.659011
 20
0.050416
  0
VERTEX
  8
FOREGROUND
  6
CONTINUOUS
 10
0.681667
 20
0.050000
  0
SEQEND
  8
0
  0
ENDSEC
  0
EOF
