  0
SECTION
  2
HEADER
  9
$ACADVER
  1
AC1006
  9
$EXTMIN
 10
0.000000
 20
0.000000
  9
$EXTMAX
 10
3.753333
 20
5.328333
  9
$LTSCALE
 40
0.166667
  9
$PDMODE
 70
    35
  9
$PDSIZE
 40
0.133333
  0
ENDSEC
  0
SECTION
  2
TABLES
  0
TABLE
  2
LTYPE
 70
     9
  0
LTYPE
  2
CONTINUOUS
 70
    64
  3
Solid line
 72
    65
 73
     0
 40
0.000000
  0
LTYPE
  2
DASHED
 70
    64
  3
__ __ __ __ __ __ __ __ __ __ __ __ __ __ __
 72
    65
 73
     2
 40
0.001250
 49
0.000833
 49
-0.000417
  0
LTYPE
  2
HIDDEN
 70
    64
  3
 _ _ _ _ _ _ _ _ _ _ _ _ _ _ _ _ _ _ _ _ _ _
 72
    65
 73
     2
 40
0.000625
 49
0.000417
 49
-0.000208
  0
LTYPE
  2
CENTER
 70
    64
  3
____ _ ____ _ ____ _ ____ _ ____ _ ____ _ ____
 72
    65
 73
     4
 40
0.003333
 49
0.002083
 49
-0.000417
 49
0.000417
 49
-0.000417
  0
LTYPE
  2
PHANTOM
 70
    64
  3
_____ _ _ _____ _ _ _____ _ _ _____ _ _ ____
 72
    65
 73
     6
 40
0.004167
 49
0.002083
 49
-0.000417
 49
0.000417
 49
-0.000417
 49
0.000417
 49
-0.000417
  0
LTYPE
  2
DOT
 70
    64
  3
...............................................
 72
    65
 73
     2
 40
0.000417
 49
0.000000
 49
-0.000417
  0
LTYPE
  2
DASHDOT
 70
    64
  3
__ . __ . __ . __ . __ . __ . __ . __ . __ . __
 72
    65
 73
     4
 40
0.001667
 49
0.000833
 49
-0.000417
 49
0.000000
 49
-0.000417
  0
LTYPE
  2
BORDER
 70
    64
  3
__ __ . __ __ . __ __ . __ __ . __ __ . __ __
 72
    65
 73
     6
 40
0.002917
 49
0.000833
 49
-0.000417
 49
0.000833
 49
-0.000417
 49
0.000000
 49
-0.000417
  0
LTYPE
  2
DIVIDE
 70
    64
  3
__ . . __ . . __ . . __ . . __ . . __ . . __
 72
    65
 73
     6
 40
0.002083
 49
0.000833
 49
-0.000417
 49
0.000000
 49
-0.000417
 49
0.000000
 49
-0.000417
  0
LTYPE
  2
DOTDOT
 70
    64
  3
 . .  . .  . .  . .  . .  . . 
 72
    65
 73
     5
 40
0.000917
 49
-0.000417
 49
0.000000
 49
-0.000417
 49
0.000000
 49
-0.000417
  0
ENDTAB
  0
TABLE
  2
STYLE
 70
     2
  0
STYLE
 70
     0
  2
SN0
 40
0.000000
 41
0.001667
 50
0.000000
 71
     0
 42
0.000000
  3
ROMAND
  0
STYLE
 70
    68
  2
SV0
 40
0.000000
 41
0.001667
 50
0.000000
 71
     0
 42
0.000000
  3
ROMAND
  0
ENDTAB
  0
TABLE
  2
LAYER
 70
     2
  0
LAYER
  2
FOREGROUND
 70
    64
 62
     7
  6
CONTINUOUS
  0
LAYER
  2
BACKGROUND
 70
    65
 62
    -7
  6
CONTINUOUS
  0
ENDTAB
  0
ENDSEC
  0
SECTION
  2
ENTITIES
  0
POLYLINE
  8
FOREGROUND
 62
     7
  6
CONTINUOUS
 66
     1
 40
0.000000
 41
0.000000
 70
     1
  0
VERTEX
  8
FOREGROUND
 62
     7
  6
CONTINUOUS
 10
0.756667
 20
5.173333
  0
VERTEX
  8
FOREGROUND
 62
     7
  6
CONTINUOUS
 10
2.883333
 20
5.173333
  0
VERTEX
  8
FOREGROUND
 62
     7
  6
CONTINUOUS
 10
2.920000
 20
5.171667
  0
VERTEX
  8
FOREGROUND
 62
     7
  6
CONTINUOUS
 10
2.955000
 20
5.170000
  0
VERTEX
  8
FOREGROUND
 62
     7
  6
CONTINUOUS
 10
2.991667
 20
5.165000
  0
VERTEX
  8
FOREGROUND
 62
     7
  6
CONTINUOUS
 10
3.026667
 20
5.158333
  0
VERTEX
  8
FOREGROUND
 62
     7
  6
CONTINUOUS
 10
3.060000
 20
5.151667
  0
VERTEX
  8
FOREGROUND
 62
     7
  6
CONTINUOUS
 10
3.093333
 20
5.141667
  0
VERTEX
  8
FOREGROUND
 62
     7
  6
CONTINUOUS
 10
3.158333
 20
5.118333
  0
VERTEX
  8
FOREGROUND
 62
     7
  6
CONTINUOUS
 10
3.220000
 20
5.088333
  0
VERTEX
  8
FOREGROUND
 62
     7
  6
CONTINUOUS
 10
3.278333
 20
5.051667
  0
VERTEX
  8
FOREGROUND
 62
     7
  6
CONTINUOUS
 10
3.333333
 20
5.011667
  0
VERTEX
  8
FOREGROUND
 62
     7
  6
CONTINUOUS
 10
3.383333
 20
4.966667
  0
VERTEX
  8
FOREGROUND
 62
     7
  6
CONTINUOUS
 10
3.428333
 20
4.916667
  0
VERTEX
  8
FOREGROUND
 62
     7
  6
CONTINUOUS
 10
3.470000
 20
4.861667
  0
VERTEX
  8
FOREGROUND
 62
     7
  6
CONTINUOUS
 10
3.505000
 20
4.803333
  0
VERTEX
  8
FOREGROUND
 62
     7
  6
CONTINUOUS
 10
3.535000
 20
4.741667
  0
VERTEX
  8
FOREGROUND
 62
     7
  6
CONTINUOUS
 10
3.558333
 20
4.676667
  0
VERTEX
  8
FOREGROUND
 62
     7
  6
CONTINUOUS
 10
3.568333
 20
4.643333
  0
VERTEX
  8
FOREGROUND
 62
     7
  6
CONTINUOUS
 10
3.575000
 20
4.608333
  0
VERTEX
  8
FOREGROUND
 62
     7
  6
CONTINUOUS
 10
3.581667
 20
4.573333
  0
VERTEX
  8
FOREGROUND
 62
     7
  6
CONTINUOUS
 10
3.586667
 20
4.538333
  0
VERTEX
  8
FOREGROUND
 62
     7
  6
CONTINUOUS
 10
3.590000
 20
4.503333
  0
VERTEX
  8
FOREGROUND
 62
     7
  6
CONTINUOUS
 10
3.590000
 20
4.466667
  0
VERTEX
  8
FOREGROUND
 62
     7
  6
CONTINUOUS
 10
3.590000
 20
0.765000
  0
VERTEX
  8
FOREGROUND
 62
     7
  6
CONTINUOUS
 10
3.590000
 20
0.728333
  0
VERTEX
  8
FOREGROUND
 62
     7
  6
CONTINUOUS
 10
3.586667
 20
0.693333
  0
VERTEX
  8
FOREGROUND
 62
     7
  6
CONTINUOUS
 10
3.581667
 20
0.656667
  0
VERTEX
  8
FOREGROUND
 62
     7
  6
CONTINUOUS
 10
3.575000
 20
0.621667
  0
VERTEX
  8
FOREGROUND
 62
     7
  6
CONTINUOUS
 10
3.568333
 20
0.588333
  0
VERTEX
  8
FOREGROUND
 62
     7
  6
CONTINUOUS
 10
3.558333
 20
0.555000
  0
VERTEX
  8
FOREGROUND
 62
     7
  6
CONTINUOUS
 10
3.535000
 20
0.490000
  0
VERTEX
  8
FOREGROUND
 62
     7
  6
CONTINUOUS
 10
3.505000
 20
0.428333
  0
VERTEX
  8
FOREGROUND
 62
     7
  6
CONTINUOUS
 10
3.470000
 20
0.370000
  0
VERTEX
  8
FOREGROUND
 62
     7
  6
CONTINUOUS
 10
3.428333
 20
0.315000
  0
VERTEX
  8
FOREGROUND
 62
     7
  6
CONTINUOUS
 10
3.383333
 20
0.265000
  0
VERTEX
  8
FOREGROUND
 62
     7
  6
CONTINUOUS
 10
3.333333
 20
0.220000
  0
VERTEX
  8
FOREGROUND
 62
     7
  6
CONTINUOUS
 10
3.278333
 20
0.178333
  0
VERTEX
  8
FOREGROUND
 62
     7
  6
CONTINUOUS
 10
3.220000
 20
0.143333
  0
VERTEX
  8
FOREGROUND
 62
     7
  6
CONTINUOUS
 10
3.158333
 20
0.113333
  0
VERTEX
  8
FOREGROUND
 62
     7
  6
CONTINUOUS
 10
3.093333
 20
0.090000
  0
VERTEX
  8
FOREGROUND
 62
     7
  6
CONTINUOUS
 10
3.060000
 20
0.080000
  0
VERTEX
  8
FOREGROUND
 62
     7
  6
CONTINUOUS
 10
3.026667
 20
0.073333
  0
VERTEX
  8
FOREGROUND
 62
     7
  6
CONTINUOUS
 10
2.991667
 20
0.066667
  0
VERTEX
  8
FOREGROUND
 62
     7
  6
CONTINUOUS
 10
2.955000
 20
0.061667
  0
VERTEX
  8
FOREGROUND
 62
     7
  6
CONTINUOUS
 10
2.920000
 20
0.058333
  0
VERTEX
  8
FOREGROUND
 62
     7
  6
CONTINUOUS
 10
2.883333
 20
0.058333
  0
VERTEX
  8
FOREGROUND
 62
     7
  6
CONTINUOUS
 10
0.756667
 20
0.058333
  0
VERTEX
  8
FOREGROUND
 62
     7
  6
CONTINUOUS
 10
0.720000
 20
0.058333
  0
VERTEX
  8
FOREGROUND
 62
     7
  6
CONTINUOUS
 10
0.685000
 20
0.061667
  0
VERTEX
  8
FOREGROUND
 62
     7
  6
CONTINUOUS
 10
0.650000
 20
0.066667
  0
VERTEX
  8
FOREGROUND
 62
     7
  6
CONTINUOUS
 10
0.615000
 20
0.073333
  0
VERTEX
  8
FOREGROUND
 62
     7
  6
CONTINUOUS
 10
0.580000
 20
0.080000
  0
VERTEX
  8
FOREGROUND
 62
     7
  6
CONTINUOUS
 10
0.546667
 20
0.090000
  0
VERTEX
  8
FOREGROUND
 62
     7
  6
CONTINUOUS
 10
0.481667
 20
0.113333
  0
VERTEX
  8
FOREGROUND
 62
     7
  6
CONTINUOUS
 10
0.420000
 20
0.143333
  0
VERTEX
  8
FOREGROUND
 62
     7
  6
CONTINUOUS
 10
0.361667
 20
0.178333
  0
VERTEX
  8
FOREGROUND
 62
     7
  6
CONTINUOUS
 10
0.306667
 20
0.220000
  0
VERTEX
  8
FOREGROUND
 62
     7
  6
CONTINUOUS
 10
0.256667
 20
0.265000
  0
VERTEX
  8
FOREGROUND
 62
     7
  6
CONTINUOUS
 10
0.211667
 20
0.315000
  0
VERTEX
  8
FOREGROUND
 62
     7
  6
CONTINUOUS
 10
0.171667
 20
0.370000
  0
VERTEX
  8
FOREGROUND
 62
     7
  6
CONTINUOUS
 10
0.135000
 20
0.428333
  0
VERTEX
  8
FOREGROUND
 62
     7
  6
CONTINUOUS
 10
0.105000
 20
0.490000
  0
VERTEX
  8
FOREGROUND
 62
     7
  6
CONTINUOUS
 10
0.081667
 20
0.555000
  0
VERTEX
  8
FOREGROUND
 62
     7
  6
CONTINUOUS
 10
0.071667
 20
0.588333
  0
VERTEX
  8
FOREGROUND
 62
     7
  6
CONTINUOUS
 10
0.065000
 20
0.621667
  0
VERTEX
  8
FOREGROUND
 62
     7
  6
CONTINUOUS
 10
0.058333
 20
0.656667
  0
VERTEX
  8
FOREGROUND
 62
     7
  6
CONTINUOUS
 10
0.053333
 20
0.693333
  0
VERTEX
  8
FOREGROUND
 62
     7
  6
CONTINUOUS
 10
0.051667
 20
0.728333
  0
VERTEX
  8
FOREGROUND
 62
     7
  6
CONTINUOUS
 10
0.050000
 20
0.765000
  0
VERTEX
  8
FOREGROUND
 62
     7
  6
CONTINUOUS
 10
0.050000
 20
4.466667
  0
VERTEX
  8
FOREGROUND
 62
     7
  6
CONTINUOUS
 10
0.051667
 20
4.503333
  0
VERTEX
  8
FOREGROUND
 62
     7
  6
CONTINUOUS
 10
0.053333
 20
4.538333
  0
VERTEX
  8
FOREGROUND
 62
     7
  6
CONTINUOUS
 10
0.058333
 20
4.573333
  0
VERTEX
  8
FOREGROUND
 62
     7
  6
CONTINUOUS
 10
0.065000
 20
4.608333
  0
VERTEX
  8
FOREGROUND
 62
     7
  6
CONTINUOUS
 10
0.071667
 20
4.643333
  0
VERTEX
  8
FOREGROUND
 62
     7
  6
CONTINUOUS
 10
0.081667
 20
4.676667
  0
VERTEX
  8
FOREGROUND
 62
     7
  6
CONTINUOUS
 10
0.105000
 20
4.741667
  0
VERTEX
  8
FOREGROUND
 62
     7
  6
CONTINUOUS
 10
0.135000
 20
4.803333
  0
VERTEX
  8
FOREGROUND
 62
     7
  6
CONTINUOUS
 10
0.171667
 20
4.861667
  0
VERTEX
  8
FOREGROUND
 62
     7
  6
CONTINUOUS
 10
0.211667
 20
4.916667
  0
VERTEX
  8
FOREGROUND
 62
     7
  6
CONTINUOUS
 10
0.256667
 20
4.966667
  0
VERTEX
  8
FOREGROUND
 62
     7
  6
CONTINUOUS
 10
0.306667
 20
5.011667
  0
VERTEX
  8
FOREGROUND
 62
     7
  6
CONTINUOUS
 10
0.361667
 20
5.051667
  0
VERTEX
  8
FOREGROUND
 62
     7
  6
CONTINUOUS
 10
0.420000
 20
5.088333
  0
VERTEX
  8
FOREGROUND
 62
     7
  6
CONTINUOUS
 10
0.481667
 20
5.118333
  0
VERTEX
  8
FOREGROUND
 62
     7
  6
CONTINUOUS
 10
0.546667
 20
5.141667
  0
VERTEX
  8
FOREGROUND
 62
     7
  6
CONTINUOUS
 10
0.580000
 20
5.151667
  0
VERTEX
  8
FOREGROUND
 62
     7
  6
CONTINUOUS
 10
0.615000
 20
5.158333
  0
VERTEX
  8
FOREGROUND
 62
     7
  6
CONTINUOUS
 10
0.650000
 20
5.165000
  0
VERTEX
  8
FOREGROUND
 62
     7
  6
CONTINUOUS
 10
0.685000
 20
5.170000
  0
VERTEX
  8
FOREGROUND
 62
     7
  6
CONTINUOUS
 10
0.720000
 20
5.171667
  0
SEQEND
  8
0
  0
POLYLINE
  8
FOREGROUND
  6
CONTINUOUS
 66
     1
 40
0.010000
 41
0.010000
 70
     1
  0
VERTEX
  8
FOREGROUND
  6
CONTINUOUS
 10
0.756667
 20
5.173333
  0
VERTEX
  8
FOREGROUND
  6
CONTINUOUS
 10
2.883333
 20
5.173333
  0
VERTEX
  8
FOREGROUND
  6
CONTINUOUS
 10
2.920000
 20
5.171667
  0
VERTEX
  8
FOREGROUND
  6
CONTINUOUS
 10
2.955000
 20
5.170000
  0
VERTEX
  8
FOREGROUND
  6
CONTINUOUS
 10
2.991667
 20
5.165000
  0
VERTEX
  8
FOREGROUND
  6
CONTINUOUS
 10
3.026667
 20
5.158333
  0
VERTEX
  8
FOREGROUND
  6
CONTINUOUS
 10
3.060000
 20
5.151667
  0
VERTEX
  8
FOREGROUND
  6
CONTINUOUS
 10
3.093333
 20
5.141667
  0
VERTEX
  8
FOREGROUND
  6
CONTINUOUS
 10
3.158333
 20
5.118333
  0
VERTEX
  8
FOREGROUND
  6
CONTINUOUS
 10
3.220000
 20
5.088333
  0
VERTEX
  8
FOREGROUND
  6
CONTINUOUS
 10
3.278333
 20
5.051667
  0
VERTEX
  8
FOREGROUND
  6
CONTINUOUS
 10
3.333333
 20
5.011667
  0
VERTEX
  8
FOREGROUND
  6
CONTINUOUS
 10
3.383333
 20
4.966667
  0
VERTEX
  8
FOREGROUND
  6
CONTINUOUS
 10
3.428333
 20
4.916667
  0
VERTEX
  8
FOREGROUND
  6
CONTINUOUS
 10
3.470000
 20
4.861667
  0
VERTEX
  8
FOREGROUND
  6
CONTINUOUS
 10
3.505000
 20
4.803333
  0
VERTEX
  8
FOREGROUND
  6
CONTINUOUS
 10
3.535000
 20
4.741667
  0
VERTEX
  8
FOREGROUND
  6
CONTINUOUS
 10
3.558333
 20
4.676667
  0
VERTEX
  8
FOREGROUND
  6
CONTINUOUS
 10
3.568333
 20
4.643333
  0
VERTEX
  8
FOREGROUND
  6
CONTINUOUS
 10
3.575000
 20
4.608333
  0
VERTEX
  8
FOREGROUND
  6
CONTINUOUS
 10
3.581667
 20
4.573333
  0
VERTEX
  8
FOREGROUND
  6
CONTINUOUS
 10
3.586667
 20
4.538333
  0
VERTEX
  8
FOREGROUND
  6
CONTINUOUS
 10
3.590000
 20
4.503333
  0
VERTEX
  8
FOREGROUND
  6
CONTINUOUS
 10
3.590000
 20
4.466667
  0
VERTEX
  8
FOREGROUND
  6
CONTINUOUS
 10
3.590000
 20
0.765000
  0
VERTEX
  8
FOREGROUND
  6
CONTINUOUS
 10
3.590000
 20
0.728333
  0
VERTEX
  8
FOREGROUND
  6
CONTINUOUS
 10
3.586667
 20
0.693333
  0
VERTEX
  8
FOREGROUND
  6
CONTINUOUS
 10
3.581667
 20
0.656667
  0
VERTEX
  8
FOREGROUND
  6
CONTINUOUS
 10
3.575000
 20
0.621667
  0
VERTEX
  8
FOREGROUND
  6
CONTINUOUS
 10
3.568333
 20
0.588333
  0
VERTEX
  8
FOREGROUND
  6
CONTINUOUS
 10
3.558333
 20
0.555000
  0
VERTEX
  8
FOREGROUND
  6
CONTINUOUS
 10
3.535000
 20
0.490000
  0
VERTEX
  8
FOREGROUND
  6
CONTINUOUS
 10
3.505000
 20
0.428333
  0
VERTEX
  8
FOREGROUND
  6
CONTINUOUS
 10
3.470000
 20
0.370000
  0
VERTEX
  8
FOREGROUND
  6
CONTINUOUS
 10
3.428333
 20
0.315000
  0
VERTEX
  8
FOREGROUND
  6
CONTINUOUS
 10
3.383333
 20
0.265000
  0
VERTEX
  8
FOREGROUND
  6
CONTINUOUS
 10
3.333333
 20
0.220000
  0
VERTEX
  8
FOREGROUND
  6
CONTINUOUS
 10
3.278333
 20
0.178333
  0
VERTEX
  8
FOREGROUND
  6
CONTINUOUS
 10
3.220000
 20
0.143333
  0
VERTEX
  8
FOREGROUND
  6
CONTINUOUS
 10
3.158333
 20
0.113333
  0
VERTEX
  8
FOREGROUND
  6
CONTINUOUS
 10
3.093333
 20
0.090000
  0
VERTEX
  8
FOREGROUND
  6
CONTINUOUS
 10
3.060000
 20
0.080000
  0
VERTEX
  8
FOREGROUND
  6
CONTINUOUS
 10
3.026667
 20
0.073333
  0
VERTEX
  8
FOREGROUND
  6
CONTINUOUS
 10
2.991667
 20
0.066667
  0
VERTEX
  8
FOREGROUND
  6
CONTINUOUS
 10
2.955000
 20
0.061667
  0
VERTEX
  8
FOREGROUND
  6
CONTINUOUS
 10
2.920000
 20
0.058333
  0
VERTEX
  8
FOREGROUND
  6
CONTINUOUS
 10
2.883333
 20
0.058333
  0
VERTEX
  8
FOREGROUND
  6
CONTINUOUS
 10
0.756667
 20
0.058333
  0
VERTEX
  8
FOREGROUND
  6
CONTINUOUS
 10
0.720000
 20
0.058333
  0
VERTEX
  8
FOREGROUND
  6
CONTINUOUS
 10
0.685000
 20
0.061667
  0
VERTEX
  8
FOREGROUND
  6
CONTINUOUS
 10
0.650000
 20
0.066667
  0
VERTEX
  8
FOREGROUND
  6
CONTINUOUS
 10
0.615000
 20
0.073333
  0
VERTEX
  8
FOREGROUND
  6
CONTINUOUS
 10
0.580000
 20
0.080000
  0
VERTEX
  8
FOREGROUND
  6
CONTINUOUS
 10
0.546667
 20
0.090000
  0
VERTEX
  8
FOREGROUND
  6
CONTINUOUS
 10
0.481667
 20
0.113333
  0
VERTEX
  8
FOREGROUND
  6
CONTINUOUS
 10
0.420000
 20
0.143333
  0
VERTEX
  8
FOREGROUND
  6
CONTINUOUS
 10
0.361667
 20
0.178333
  0
VERTEX
  8
FOREGROUND
  6
CONTINUOUS
 10
0.306667
 20
0.220000
  0
VERTEX
  8
FOREGROUND
  6
CONTINUOUS
 10
0.256667
 20
0.265000
  0
VERTEX
  8
FOREGROUND
  6
CONTINUOUS
 10
0.211667
 20
0.315000
  0
VERTEX
  8
FOREGROUND
  6
CONTINUOUS
 10
0.171667
 20
0.370000
  0
VERTEX
  8
FOREGROUND
  6
CONTINUOUS
 10
0.135000
 20
0.428333
  0
VERTEX
  8
FOREGROUND
  6
CONTINUOUS
 10
0.105000
 20
0.490000
  0
VERTEX
  8
FOREGROUND
  6
CONTINUOUS
 10
0.081667
 20
0.555000
  0
VERTEX
  8
FOREGROUND
  6
CONTINUOUS
 10
0.071667
 20
0.588333
  0
VERTEX
  8
FOREGROUND
  6
CONTINUOUS
 10
0.065000
 20
0.621667
  0
VERTEX
  8
FOREGROUND
  6
CONTINUOUS
 10
0.058333
 20
0.656667
  0
VERTEX
  8
FOREGROUND
  6
CONTINUOUS
 10
0.053333
 20
0.693333
  0
VERTEX
  8
FOREGROUND
  6
CONTINUOUS
 10
0.051667
 20
0.728333
  0
VERTEX
  8
FOREGROUND
  6
CONTINUOUS
 10
0.050000
 20
0.765000
  0
VERTEX
  8
FOREGROUND
  6
CONTINUOUS
 10
0.050000
 20
4.466667
  0
VERTEX
  8
FOREGROUND
  6
CONTINUOUS
 10
0.051667
 20
4.503333
  0
VERTEX
  8
FOREGROUND
  6
CONTINUOUS
 10
0.053333
 20
4.538333
  0
VERTEX
  8
FOREGROUND
  6
CONTINUOUS
 10
0.058333
 20
4.573333
  0
VERTEX
  8
FOREGROUND
  6
CONTINUOUS
 10
0.065000
 20
4.608333
  0
VERTEX
  8
FOREGROUND
  6
CONTINUOUS
 10
0.071667
 20
4.643333
  0
VERTEX
  8
FOREGROUND
  6
CONTINUOUS
 10
0.081667
 20
4.676667
  0
VERTEX
  8
FOREGROUND
  6
CONTINUOUS
 10
0.105000
 20
4.741667
  0
VERTEX
  8
FOREGROUND
  6
CONTINUOUS
 10
0.135000
 20
4.803333
  0
VERTEX
  8
FOREGROUND
  6
CONTINUOUS
 10
0.171667
 20
4.861667
  0
VERTEX
  8
FOREGROUND
  6
CONTINUOUS
 10
0.211667
 20
4.916667
  0
VERTEX
  8
FOREGROUND
  6
CONTINUOUS
 10
0.256667
 20
4.966667
  0
VERTEX
  8
FOREGROUND
  6
CONTINUOUS
 10
0.306667
 20
5.011667
  0
VERTEX
  8
FOREGROUND
  6
CONTINUOUS
 10
0.361667
 20
5.051667
  0
VERTEX
  8
FOREGROUND
  6
CONTINUOUS
 10
0.420000
 20
5.088333
  0
VERTEX
  8
FOREGROUND
  6
CONTINUOUS
 10
0.481667
 20
5.118333
  0
VERTEX
  8
FOREGROUND
  6
CONTINUOUS
 10
0.546667
 20
5.141667
  0
VERTEX
  8
FOREGROUND
  6
CONTINUOUS
 10
0.580000
 20
5.151667
  0
VERTEX
  8
FOREGROUND
  6
CONTINUOUS
 10
0.615000
 20
5.158333
  0
VERTEX
  8
FOREGROUND
  6
CONTINUOUS
 10
0.650000
 20
5.165000
  0
VERTEX
  8
FOREGROUND
  6
CONTINUOUS
 10
0.685000
 20
5.170000
  0
VERTEX
  8
FOREGROUND
  6
CONTINUOUS
 10
0.720000
 20
5.171667
  0
SEQEND
  8
0
  0
ENDSEC
  0
EOF
