  0
SECTION
  2
HEADER
  9
$ACADVER
  1
AC1006
  9
$EXTMIN
 10
0.000000
 20
0.000000
  9
$EXTMAX
 10
3.766667
 20
6.125000
  9
$LTSCALE
 40
0.166667
  9
$PDMODE
 70
    35
  9
$PDSIZE
 40
0.133333
  0
ENDSEC
  0
SECTION
  2
TABLES
  0
TABLE
  2
LTYPE
 70
     9
  0
LTYPE
  2
CONTINUOUS
 70
    64
  3
Solid line
 72
    65
 73
     0
 40
0.000000
  0
LTYPE
  2
DASHED
 70
    64
  3
__ __ __ __ __ __ __ __ __ __ __ __ __ __ __
 72
    65
 73
     2
 40
0.001250
 49
0.000833
 49
-0.000417
  0
LTYPE
  2
HIDDEN
 70
    64
  3
 _ _ _ _ _ _ _ _ _ _ _ _ _ _ _ _ _ _ _ _ _ _
 72
    65
 73
     2
 40
0.000625
 49
0.000417
 49
-0.000208
  0
LTYPE
  2
CENTER
 70
    64
  3
____ _ ____ _ ____ _ ____ _ ____ _ ____ _ ____
 72
    65
 73
     4
 40
0.003333
 49
0.002083
 49
-0.000417
 49
0.000417
 49
-0.000417
  0
LTYPE
  2
PHANTOM
 70
    64
  3
_____ _ _ _____ _ _ _____ _ _ _____ _ _ ____
 72
    65
 73
     6
 40
0.004167
 49
0.002083
 49
-0.000417
 49
0.000417
 49
-0.000417
 49
0.000417
 49
-0.000417
  0
LTYPE
  2
DOT
 70
    64
  3
...............................................
 72
    65
 73
     2
 40
0.000417
 49
0.000000
 49
-0.000417
  0
LTYPE
  2
DASHDOT
 70
    64
  3
__ . __ . __ . __ . __ . __ . __ . __ . __ . __
 72
    65
 73
     4
 40
0.001667
 49
0.000833
 49
-0.000417
 49
0.000000
 49
-0.000417
  0
LTYPE
  2
BORDER
 70
    64
  3
__ __ . __ __ . __ __ . __ __ . __ __ . __ __
 72
    65
 73
     6
 40
0.002917
 49
0.000833
 49
-0.000417
 49
0.000833
 49
-0.000417
 49
0.000000
 49
-0.000417
  0
LTYPE
  2
DIVIDE
 70
    64
  3
__ . . __ . . __ . . __ . . __ . . __ . . __
 72
    65
 73
     6
 40
0.002083
 49
0.000833
 49
-0.000417
 49
0.000000
 49
-0.000417
 49
0.000000
 49
-0.000417
  0
LTYPE
  2
DOTDOT
 70
    64
  3
 . .  . .  . .  . .  . .  . . 
 72
    65
 73
     5
 40
0.000917
 49
-0.000417
 49
0.000000
 49
-0.000417
 49
0.000000
 49
-0.000417
  0
ENDTAB
  0
TABLE
  2
STYLE
 70
     2
  0
STYLE
 70
     0
  2
SN0
 40
0.000000
 41
0.001667
 50
0.000000
 71
     0
 42
0.000000
  3
ROMAND
  0
STYLE
 70
    68
  2
SV0
 40
0.000000
 41
0.001667
 50
0.000000
 71
     0
 42
0.000000
  3
ROMAND
  0
ENDTAB
  0
TABLE
  2
LAYER
 70
     2
  0
LAYER
  2
FOREGROUND
 70
    64
 62
     7
  6
CONTINUOUS
  0
LAYER
  2
BACKGROUND
 70
    65
 62
    -7
  6
CONTINUOUS
  0
ENDTAB
  0
ENDSEC
  0
SECTION
  2
ENTITIES
  0
POLYLINE
  8
FOREGROUND
 62
     7
  6
CONTINUOUS
 66
     1
 40
0.000000
 41
0.000000
 70
     1
  0
VERTEX
  8
FOREGROUND
 62
     7
  6
CONTINUOUS
 10
0.758333
 20
5.966667
  0
VERTEX
  8
FOREGROUND
 62
     7
  6
CONTINUOUS
 10
2.890000
 20
5.966667
  0
VERTEX
  8
FOREGROUND
 62
     7
  6
CONTINUOUS
 10
2.926667
 20
5.965000
  0
VERTEX
  8
FOREGROUND
 62
     7
  6
CONTINUOUS
 10
2.963333
 20
5.963333
  0
VERTEX
  8
FOREGROUND
 62
     7
  6
CONTINUOUS
 10
2.998333
 20
5.958333
  0
VERTEX
  8
FOREGROUND
 62
     7
  6
CONTINUOUS
 10
3.033333
 20
5.951667
  0
VERTEX
  8
FOREGROUND
 62
     7
  6
CONTINUOUS
 10
3.066667
 20
5.945000
  0
VERTEX
  8
FOREGROUND
 62
     7
  6
CONTINUOUS
 10
3.100000
 20
5.935000
  0
VERTEX
  8
FOREGROUND
 62
     7
  6
CONTINUOUS
 10
3.166667
 20
5.910000
  0
VERTEX
  8
FOREGROUND
 62
     7
  6
CONTINUOUS
 10
3.228333
 20
5.881667
  0
VERTEX
  8
FOREGROUND
 62
     7
  6
CONTINUOUS
 10
3.286667
 20
5.845000
  0
VERTEX
  8
FOREGROUND
 62
     7
  6
CONTINUOUS
 10
3.340000
 20
5.805000
  0
VERTEX
  8
FOREGROUND
 62
     7
  6
CONTINUOUS
 10
3.391667
 20
5.758333
  0
VERTEX
  8
FOREGROUND
 62
     7
  6
CONTINUOUS
 10
3.436667
 20
5.708333
  0
VERTEX
  8
FOREGROUND
 62
     7
  6
CONTINUOUS
 10
3.478333
 20
5.653333
  0
VERTEX
  8
FOREGROUND
 62
     7
  6
CONTINUOUS
 10
3.513333
 20
5.595000
  0
VERTEX
  8
FOREGROUND
 62
     7
  6
CONTINUOUS
 10
3.543333
 20
5.533333
  0
VERTEX
  8
FOREGROUND
 62
     7
  6
CONTINUOUS
 10
3.566667
 20
5.468333
  0
VERTEX
  8
FOREGROUND
 62
     7
  6
CONTINUOUS
 10
3.576667
 20
5.435000
  0
VERTEX
  8
FOREGROUND
 62
     7
  6
CONTINUOUS
 10
3.583333
 20
5.401667
  0
VERTEX
  8
FOREGROUND
 62
     7
  6
CONTINUOUS
 10
3.590000
 20
5.366667
  0
VERTEX
  8
FOREGROUND
 62
     7
  6
CONTINUOUS
 10
3.595000
 20
5.330000
  0
VERTEX
  8
FOREGROUND
 62
     7
  6
CONTINUOUS
 10
3.598333
 20
5.295000
  0
VERTEX
  8
FOREGROUND
 62
     7
  6
CONTINUOUS
 10
3.598333
 20
5.258333
  0
VERTEX
  8
FOREGROUND
 62
     7
  6
CONTINUOUS
 10
3.598333
 20
0.766667
  0
VERTEX
  8
FOREGROUND
 62
     7
  6
CONTINUOUS
 10
3.598333
 20
0.730000
  0
VERTEX
  8
FOREGROUND
 62
     7
  6
CONTINUOUS
 10
3.595000
 20
0.693333
  0
VERTEX
  8
FOREGROUND
 62
     7
  6
CONTINUOUS
 10
3.590000
 20
0.658333
  0
VERTEX
  8
FOREGROUND
 62
     7
  6
CONTINUOUS
 10
3.583333
 20
0.623333
  0
VERTEX
  8
FOREGROUND
 62
     7
  6
CONTINUOUS
 10
3.576667
 20
0.590000
  0
VERTEX
  8
FOREGROUND
 62
     7
  6
CONTINUOUS
 10
3.566667
 20
0.556667
  0
VERTEX
  8
FOREGROUND
 62
     7
  6
CONTINUOUS
 10
3.543333
 20
0.490000
  0
VERTEX
  8
FOREGROUND
 62
     7
  6
CONTINUOUS
 10
3.513333
 20
0.428333
  0
VERTEX
  8
FOREGROUND
 62
     7
  6
CONTINUOUS
 10
3.478333
 20
0.370000
  0
VERTEX
  8
FOREGROUND
 62
     7
  6
CONTINUOUS
 10
3.436667
 20
0.316667
  0
VERTEX
  8
FOREGROUND
 62
     7
  6
CONTINUOUS
 10
3.391667
 20
0.265000
  0
VERTEX
  8
FOREGROUND
 62
     7
  6
CONTINUOUS
 10
3.340000
 20
0.220000
  0
VERTEX
  8
FOREGROUND
 62
     7
  6
CONTINUOUS
 10
3.286667
 20
0.178333
  0
VERTEX
  8
FOREGROUND
 62
     7
  6
CONTINUOUS
 10
3.228333
 20
0.143333
  0
VERTEX
  8
FOREGROUND
 62
     7
  6
CONTINUOUS
 10
3.166667
 20
0.113333
  0
VERTEX
  8
FOREGROUND
 62
     7
  6
CONTINUOUS
 10
3.100000
 20
0.090000
  0
VERTEX
  8
FOREGROUND
 62
     7
  6
CONTINUOUS
 10
3.066667
 20
0.080000
  0
VERTEX
  8
FOREGROUND
 62
     7
  6
CONTINUOUS
 10
3.033333
 20
0.073333
  0
VERTEX
  8
FOREGROUND
 62
     7
  6
CONTINUOUS
 10
2.998333
 20
0.066667
  0
VERTEX
  8
FOREGROUND
 62
     7
  6
CONTINUOUS
 10
2.963333
 20
0.061667
  0
VERTEX
  8
FOREGROUND
 62
     7
  6
CONTINUOUS
 10
2.926667
 20
0.058333
  0
VERTEX
  8
FOREGROUND
 62
     7
  6
CONTINUOUS
 10
2.890000
 20
0.058333
  0
VERTEX
  8
FOREGROUND
 62
     7
  6
CONTINUOUS
 10
0.758333
 20
0.058333
  0
VERTEX
  8
FOREGROUND
 62
     7
  6
CONTINUOUS
 10
0.721667
 20
0.058333
  0
VERTEX
  8
FOREGROUND
 62
     7
  6
CONTINUOUS
 10
0.686667
 20
0.061667
  0
VERTEX
  8
FOREGROUND
 62
     7
  6
CONTINUOUS
 10
0.650000
 20
0.066667
  0
VERTEX
  8
FOREGROUND
 62
     7
  6
CONTINUOUS
 10
0.615000
 20
0.073333
  0
VERTEX
  8
FOREGROUND
 62
     7
  6
CONTINUOUS
 10
0.581667
 20
0.080000
  0
VERTEX
  8
FOREGROUND
 62
     7
  6
CONTINUOUS
 10
0.548333
 20
0.090000
  0
VERTEX
  8
FOREGROUND
 62
     7
  6
CONTINUOUS
 10
0.483333
 20
0.113333
  0
VERTEX
  8
FOREGROUND
 62
     7
  6
CONTINUOUS
 10
0.421667
 20
0.143333
  0
VERTEX
  8
FOREGROUND
 62
     7
  6
CONTINUOUS
 10
0.363333
 20
0.178333
  0
VERTEX
  8
FOREGROUND
 62
     7
  6
CONTINUOUS
 10
0.308333
 20
0.220000
  0
VERTEX
  8
FOREGROUND
 62
     7
  6
CONTINUOUS
 10
0.258333
 20
0.265000
  0
VERTEX
  8
FOREGROUND
 62
     7
  6
CONTINUOUS
 10
0.211667
 20
0.316667
  0
VERTEX
  8
FOREGROUND
 62
     7
  6
CONTINUOUS
 10
0.171667
 20
0.370000
  0
VERTEX
  8
FOREGROUND
 62
     7
  6
CONTINUOUS
 10
0.135000
 20
0.428333
  0
VERTEX
  8
FOREGROUND
 62
     7
  6
CONTINUOUS
 10
0.106667
 20
0.490000
  0
VERTEX
  8
FOREGROUND
 62
     7
  6
CONTINUOUS
 10
0.081667
 20
0.556667
  0
VERTEX
  8
FOREGROUND
 62
     7
  6
CONTINUOUS
 10
0.071667
 20
0.590000
  0
VERTEX
  8
FOREGROUND
 62
     7
  6
CONTINUOUS
 10
0.065000
 20
0.623333
  0
VERTEX
  8
FOREGROUND
 62
     7
  6
CONTINUOUS
 10
0.058333
 20
0.658333
  0
VERTEX
  8
FOREGROUND
 62
     7
  6
CONTINUOUS
 10
0.053333
 20
0.693333
  0
VERTEX
  8
FOREGROUND
 62
     7
  6
CONTINUOUS
 10
0.051667
 20
0.730000
  0
VERTEX
  8
FOREGROUND
 62
     7
  6
CONTINUOUS
 10
0.050000
 20
0.766667
  0
VERTEX
  8
FOREGROUND
 62
     7
  6
CONTINUOUS
 10
0.050000
 20
5.258333
  0
VERTEX
  8
FOREGROUND
 62
     7
  6
CONTINUOUS
 10
0.051667
 20
5.295000
  0
VERTEX
  8
FOREGROUND
 62
     7
  6
CONTINUOUS
 10
0.053333
 20
5.330000
  0
VERTEX
  8
FOREGROUND
 62
     7
  6
CONTINUOUS
 10
0.058333
 20
5.366667
  0
VERTEX
  8
FOREGROUND
 62
     7
  6
CONTINUOUS
 10
0.065000
 20
5.401667
  0
VERTEX
  8
FOREGROUND
 62
     7
  6
CONTINUOUS
 10
0.071667
 20
5.435000
  0
VERTEX
  8
FOREGROUND
 62
     7
  6
CONTINUOUS
 10
0.081667
 20
5.468333
  0
VERTEX
  8
FOREGROUND
 62
     7
  6
CONTINUOUS
 10
0.106667
 20
5.533333
  0
VERTEX
  8
FOREGROUND
 62
     7
  6
CONTINUOUS
 10
0.135000
 20
5.595000
  0
VERTEX
  8
FOREGROUND
 62
     7
  6
CONTINUOUS
 10
0.171667
 20
5.653333
  0
VERTEX
  8
FOREGROUND
 62
     7
  6
CONTINUOUS
 10
0.211667
 20
5.708333
  0
VERTEX
  8
FOREGROUND
 62
     7
  6
CONTINUOUS
 10
0.258333
 20
5.758333
  0
VERTEX
  8
FOREGROUND
 62
     7
  6
CONTINUOUS
 10
0.308333
 20
5.805000
  0
VERTEX
  8
FOREGROUND
 62
     7
  6
CONTINUOUS
 10
0.363333
 20
5.845000
  0
VERTEX
  8
FOREGROUND
 62
     7
  6
CONTINUOUS
 10
0.421667
 20
5.881667
  0
VERTEX
  8
FOREGROUND
 62
     7
  6
CONTINUOUS
 10
0.483333
 20
5.910000
  0
VERTEX
  8
FOREGROUND
 62
     7
  6
CONTINUOUS
 10
0.548333
 20
5.935000
  0
VERTEX
  8
FOREGROUND
 62
     7
  6
CONTINUOUS
 10
0.581667
 20
5.945000
  0
VERTEX
  8
FOREGROUND
 62
     7
  6
CONTINUOUS
 10
0.615000
 20
5.951667
  0
VERTEX
  8
FOREGROUND
 62
     7
  6
CONTINUOUS
 10
0.650000
 20
5.958333
  0
VERTEX
  8
FOREGROUND
 62
     7
  6
CONTINUOUS
 10
0.686667
 20
5.963333
  0
VERTEX
  8
FOREGROUND
 62
     7
  6
CONTINUOUS
 10
0.721667
 20
5.965000
  0
SEQEND
  8
0
  0
POLYLINE
  8
FOREGROUND
  6
CONTINUOUS
 66
     1
 40
0.010000
 41
0.010000
 70
     1
  0
VERTEX
  8
FOREGROUND
  6
CONTINUOUS
 10
0.758333
 20
5.966667
  0
VERTEX
  8
FOREGROUND
  6
CONTINUOUS
 10
2.890000
 20
5.966667
  0
VERTEX
  8
FOREGROUND
  6
CONTINUOUS
 10
2.926667
 20
5.965000
  0
VERTEX
  8
FOREGROUND
  6
CONTINUOUS
 10
2.963333
 20
5.963333
  0
VERTEX
  8
FOREGROUND
  6
CONTINUOUS
 10
2.998333
 20
5.958333
  0
VERTEX
  8
FOREGROUND
  6
CONTINUOUS
 10
3.033333
 20
5.951667
  0
VERTEX
  8
FOREGROUND
  6
CONTINUOUS
 10
3.066667
 20
5.945000
  0
VERTEX
  8
FOREGROUND
  6
CONTINUOUS
 10
3.100000
 20
5.935000
  0
VERTEX
  8
FOREGROUND
  6
CONTINUOUS
 10
3.166667
 20
5.910000
  0
VERTEX
  8
FOREGROUND
  6
CONTINUOUS
 10
3.228333
 20
5.881667
  0
VERTEX
  8
FOREGROUND
  6
CONTINUOUS
 10
3.286667
 20
5.845000
  0
VERTEX
  8
FOREGROUND
  6
CONTINUOUS
 10
3.340000
 20
5.805000
  0
VERTEX
  8
FOREGROUND
  6
CONTINUOUS
 10
3.391667
 20
5.758333
  0
VERTEX
  8
FOREGROUND
  6
CONTINUOUS
 10
3.436667
 20
5.708333
  0
VERTEX
  8
FOREGROUND
  6
CONTINUOUS
 10
3.478333
 20
5.653333
  0
VERTEX
  8
FOREGROUND
  6
CONTINUOUS
 10
3.513333
 20
5.595000
  0
VERTEX
  8
FOREGROUND
  6
CONTINUOUS
 10
3.543333
 20
5.533333
  0
VERTEX
  8
FOREGROUND
  6
CONTINUOUS
 10
3.566667
 20
5.468333
  0
VERTEX
  8
FOREGROUND
  6
CONTINUOUS
 10
3.576667
 20
5.435000
  0
VERTEX
  8
FOREGROUND
  6
CONTINUOUS
 10
3.583333
 20
5.401667
  0
VERTEX
  8
FOREGROUND
  6
CONTINUOUS
 10
3.590000
 20
5.366667
  0
VERTEX
  8
FOREGROUND
  6
CONTINUOUS
 10
3.595000
 20
5.330000
  0
VERTEX
  8
FOREGROUND
  6
CONTINUOUS
 10
3.598333
 20
5.295000
  0
VERTEX
  8
FOREGROUND
  6
CONTINUOUS
 10
3.598333
 20
5.258333
  0
VERTEX
  8
FOREGROUND
  6
CONTINUOUS
 10
3.598333
 20
0.766667
  0
VERTEX
  8
FOREGROUND
  6
CONTINUOUS
 10
3.598333
 20
0.730000
  0
VERTEX
  8
FOREGROUND
  6
CONTINUOUS
 10
3.595000
 20
0.693333
  0
VERTEX
  8
FOREGROUND
  6
CONTINUOUS
 10
3.590000
 20
0.658333
  0
VERTEX
  8
FOREGROUND
  6
CONTINUOUS
 10
3.583333
 20
0.623333
  0
VERTEX
  8
FOREGROUND
  6
CONTINUOUS
 10
3.576667
 20
0.590000
  0
VERTEX
  8
FOREGROUND
  6
CONTINUOUS
 10
3.566667
 20
0.556667
  0
VERTEX
  8
FOREGROUND
  6
CONTINUOUS
 10
3.543333
 20
0.490000
  0
VERTEX
  8
FOREGROUND
  6
CONTINUOUS
 10
3.513333
 20
0.428333
  0
VERTEX
  8
FOREGROUND
  6
CONTINUOUS
 10
3.478333
 20
0.370000
  0
VERTEX
  8
FOREGROUND
  6
CONTINUOUS
 10
3.436667
 20
0.316667
  0
VERTEX
  8
FOREGROUND
  6
CONTINUOUS
 10
3.391667
 20
0.265000
  0
VERTEX
  8
FOREGROUND
  6
CONTINUOUS
 10
3.340000
 20
0.220000
  0
VERTEX
  8
FOREGROUND
  6
CONTINUOUS
 10
3.286667
 20
0.178333
  0
VERTEX
  8
FOREGROUND
  6
CONTINUOUS
 10
3.228333
 20
0.143333
  0
VERTEX
  8
FOREGROUND
  6
CONTINUOUS
 10
3.166667
 20
0.113333
  0
VERTEX
  8
FOREGROUND
  6
CONTINUOUS
 10
3.100000
 20
0.090000
  0
VERTEX
  8
FOREGROUND
  6
CONTINUOUS
 10
3.066667
 20
0.080000
  0
VERTEX
  8
FOREGROUND
  6
CONTINUOUS
 10
3.033333
 20
0.073333
  0
VERTEX
  8
FOREGROUND
  6
CONTINUOUS
 10
2.998333
 20
0.066667
  0
VERTEX
  8
FOREGROUND
  6
CONTINUOUS
 10
2.963333
 20
0.061667
  0
VERTEX
  8
FOREGROUND
  6
CONTINUOUS
 10
2.926667
 20
0.058333
  0
VERTEX
  8
FOREGROUND
  6
CONTINUOUS
 10
2.890000
 20
0.058333
  0
VERTEX
  8
FOREGROUND
  6
CONTINUOUS
 10
0.758333
 20
0.058333
  0
VERTEX
  8
FOREGROUND
  6
CONTINUOUS
 10
0.721667
 20
0.058333
  0
VERTEX
  8
FOREGROUND
  6
CONTINUOUS
 10
0.686667
 20
0.061667
  0
VERTEX
  8
FOREGROUND
  6
CONTINUOUS
 10
0.650000
 20
0.066667
  0
VERTEX
  8
FOREGROUND
  6
CONTINUOUS
 10
0.615000
 20
0.073333
  0
VERTEX
  8
FOREGROUND
  6
CONTINUOUS
 10
0.581667
 20
0.080000
  0
VERTEX
  8
FOREGROUND
  6
CONTINUOUS
 10
0.548333
 20
0.090000
  0
VERTEX
  8
FOREGROUND
  6
CONTINUOUS
 10
0.483333
 20
0.113333
  0
VERTEX
  8
FOREGROUND
  6
CONTINUOUS
 10
0.421667
 20
0.143333
  0
VERTEX
  8
FOREGROUND
  6
CONTINUOUS
 10
0.363333
 20
0.178333
  0
VERTEX
  8
FOREGROUND
  6
CONTINUOUS
 10
0.308333
 20
0.220000
  0
VERTEX
  8
FOREGROUND
  6
CONTINUOUS
 10
0.258333
 20
0.265000
  0
VERTEX
  8
FOREGROUND
  6
CONTINUOUS
 10
0.211667
 20
0.316667
  0
VERTEX
  8
FOREGROUND
  6
CONTINUOUS
 10
0.171667
 20
0.370000
  0
VERTEX
  8
FOREGROUND
  6
CONTINUOUS
 10
0.135000
 20
0.428333
  0
VERTEX
  8
FOREGROUND
  6
CONTINUOUS
 10
0.106667
 20
0.490000
  0
VERTEX
  8
FOREGROUND
  6
CONTINUOUS
 10
0.081667
 20
0.556667
  0
VERTEX
  8
FOREGROUND
  6
CONTINUOUS
 10
0.071667
 20
0.590000
  0
VERTEX
  8
FOREGROUND
  6
CONTINUOUS
 10
0.065000
 20
0.623333
  0
VERTEX
  8
FOREGROUND
  6
CONTINUOUS
 10
0.058333
 20
0.658333
  0
VERTEX
  8
FOREGROUND
  6
CONTINUOUS
 10
0.053333
 20
0.693333
  0
VERTEX
  8
FOREGROUND
  6
CONTINUOUS
 10
0.051667
 20
0.730000
  0
VERTEX
  8
FOREGROUND
  6
CONTINUOUS
 10
0.050000
 20
0.766667
  0
VERTEX
  8
FOREGROUND
  6
CONTINUOUS
 10
0.050000
 20
5.258333
  0
VERTEX
  8
FOREGROUND
  6
CONTINUOUS
 10
0.051667
 20
5.295000
  0
VERTEX
  8
FOREGROUND
  6
CONTINUOUS
 10
0.053333
 20
5.330000
  0
VERTEX
  8
FOREGROUND
  6
CONTINUOUS
 10
0.058333
 20
5.366667
  0
VERTEX
  8
FOREGROUND
  6
CONTINUOUS
 10
0.065000
 20
5.401667
  0
VERTEX
  8
FOREGROUND
  6
CONTINUOUS
 10
0.071667
 20
5.435000
  0
VERTEX
  8
FOREGROUND
  6
CONTINUOUS
 10
0.081667
 20
5.468333
  0
VERTEX
  8
FOREGROUND
  6
CONTINUOUS
 10
0.106667
 20
5.533333
  0
VERTEX
  8
FOREGROUND
  6
CONTINUOUS
 10
0.135000
 20
5.595000
  0
VERTEX
  8
FOREGROUND
  6
CONTINUOUS
 10
0.171667
 20
5.653333
  0
VERTEX
  8
FOREGROUND
  6
CONTINUOUS
 10
0.211667
 20
5.708333
  0
VERTEX
  8
FOREGROUND
  6
CONTINUOUS
 10
0.258333
 20
5.758333
  0
VERTEX
  8
FOREGROUND
  6
CONTINUOUS
 10
0.308333
 20
5.805000
  0
VERTEX
  8
FOREGROUND
  6
CONTINUOUS
 10
0.363333
 20
5.845000
  0
VERTEX
  8
FOREGROUND
  6
CONTINUOUS
 10
0.421667
 20
5.881667
  0
VERTEX
  8
FOREGROUND
  6
CONTINUOUS
 10
0.483333
 20
5.910000
  0
VERTEX
  8
FOREGROUND
  6
CONTINUOUS
 10
0.548333
 20
5.935000
  0
VERTEX
  8
FOREGROUND
  6
CONTINUOUS
 10
0.581667
 20
5.945000
  0
VERTEX
  8
FOREGROUND
  6
CONTINUOUS
 10
0.615000
 20
5.951667
  0
VERTEX
  8
FOREGROUND
  6
CONTINUOUS
 10
0.650000
 20
5.958333
  0
VERTEX
  8
FOREGROUND
  6
CONTINUOUS
 10
0.686667
 20
5.963333
  0
VERTEX
  8
FOREGROUND
  6
CONTINUOUS
 10
0.721667
 20
5.965000
  0
SEQEND
  8
0
  0
ENDSEC
  0
EOF
