  0
SECTION
  2
HEADER
  9
$ACADVER
  1
AC1006
  9
$EXTMIN
 10
0.000000
 20
0.000000
  9
$EXTMAX
 10
3.745000
 20
2.971667
  9
$LTSCALE
 40
0.166667
  9
$PDMODE
 70
    35
  9
$PDSIZE
 40
0.133333
  0
ENDSEC
  0
SECTION
  2
TABLES
  0
TABLE
  2
LTYPE
 70
     9
  0
LTYPE
  2
CONTINUOUS
 70
    64
  3
Solid line
 72
    65
 73
     0
 40
0.000000
  0
LTYPE
  2
DASHED
 70
    64
  3
__ __ __ __ __ __ __ __ __ __ __ __ __ __ __
 72
    65
 73
     2
 40
0.001250
 49
0.000833
 49
-0.000417
  0
LTYPE
  2
HIDDEN
 70
    64
  3
 _ _ _ _ _ _ _ _ _ _ _ _ _ _ _ _ _ _ _ _ _ _
 72
    65
 73
     2
 40
0.000625
 49
0.000417
 49
-0.000208
  0
LTYPE
  2
CENTER
 70
    64
  3
____ _ ____ _ ____ _ ____ _ ____ _ ____ _ ____
 72
    65
 73
     4
 40
0.003333
 49
0.002083
 49
-0.000417
 49
0.000417
 49
-0.000417
  0
LTYPE
  2
PHANTOM
 70
    64
  3
_____ _ _ _____ _ _ _____ _ _ _____ _ _ ____
 72
    65
 73
     6
 40
0.004167
 49
0.002083
 49
-0.000417
 49
0.000417
 49
-0.000417
 49
0.000417
 49
-0.000417
  0
LTYPE
  2
DOT
 70
    64
  3
...............................................
 72
    65
 73
     2
 40
0.000417
 49
0.000000
 49
-0.000417
  0
LTYPE
  2
DASHDOT
 70
    64
  3
__ . __ . __ . __ . __ . __ . __ . __ . __ . __
 72
    65
 73
     4
 40
0.001667
 49
0.000833
 49
-0.000417
 49
0.000000
 49
-0.000417
  0
LTYPE
  2
BORDER
 70
    64
  3
__ __ . __ __ . __ __ . __ __ . __ __ . __ __
 72
    65
 73
     6
 40
0.002917
 49
0.000833
 49
-0.000417
 49
0.000833
 49
-0.000417
 49
0.000000
 49
-0.000417
  0
LTYPE
  2
DIVIDE
 70
    64
  3
__ . . __ . . __ . . __ . . __ . . __ . . __
 72
    65
 73
     6
 40
0.002083
 49
0.000833
 49
-0.000417
 49
0.000000
 49
-0.000417
 49
0.000000
 49
-0.000417
  0
LTYPE
  2
DOTDOT
 70
    64
  3
 . .  . .  . .  . .  . .  . . 
 72
    65
 73
     5
 40
0.000917
 49
-0.000417
 49
0.000000
 49
-0.000417
 49
0.000000
 49
-0.000417
  0
ENDTAB
  0
TABLE
  2
STYLE
 70
     2
  0
STYLE
 70
     0
  2
SN0
 40
0.000000
 41
0.001667
 50
0.000000
 71
     0
 42
0.000000
  3
ROMAND
  0
STYLE
 70
    68
  2
SV0
 40
0.000000
 41
0.001667
 50
0.000000
 71
     0
 42
0.000000
  3
ROMAND
  0
ENDTAB
  0
TABLE
  2
LAYER
 70
     2
  0
LAYER
  2
FOREGROUND
 70
    64
 62
     7
  6
CONTINUOUS
  0
LAYER
  2
BACKGROUND
 70
    65
 62
    -7
  6
CONTINUOUS
  0
ENDTAB
  0
ENDSEC
  0
SECTION
  2
ENTITIES
  0
POLYLINE
  8
FOREGROUND
 62
     7
  6
CONTINUOUS
 66
     1
 40
0.000000
 41
0.000000
 70
     1
  0
VERTEX
  8
FOREGROUND
 62
     7
  6
CONTINUOUS
 10
0.600000
 20
2.810000
  0
VERTEX
  8
FOREGROUND
 62
     7
  6
CONTINUOUS
 10
3.023333
 20
2.810000
  0
VERTEX
  8
FOREGROUND
 62
     7
  6
CONTINUOUS
 10
3.080000
 20
2.806667
  0
VERTEX
  8
FOREGROUND
 62
     7
  6
CONTINUOUS
 10
3.135000
 20
2.798333
  0
VERTEX
  8
FOREGROUND
 62
     7
  6
CONTINUOUS
 10
3.186667
 20
2.785000
  0
VERTEX
  8
FOREGROUND
 62
     7
  6
CONTINUOUS
 10
3.238333
 20
2.766667
  0
VERTEX
  8
FOREGROUND
 62
     7
  6
CONTINUOUS
 10
3.285000
 20
2.743333
  0
VERTEX
  8
FOREGROUND
 62
     7
  6
CONTINUOUS
 10
3.331667
 20
2.716667
  0
VERTEX
  8
FOREGROUND
 62
     7
  6
CONTINUOUS
 10
3.373333
 20
2.685000
  0
VERTEX
  8
FOREGROUND
 62
     7
  6
CONTINUOUS
 10
3.411667
 20
2.648333
  0
VERTEX
  8
FOREGROUND
 62
     7
  6
CONTINUOUS
 10
3.448333
 20
2.610000
  0
VERTEX
  8
FOREGROUND
 62
     7
  6
CONTINUOUS
 10
3.480000
 20
2.566667
  0
VERTEX
  8
FOREGROUND
 62
     7
  6
CONTINUOUS
 10
3.506667
 20
2.521667
  0
VERTEX
  8
FOREGROUND
 62
     7
  6
CONTINUOUS
 10
3.530000
 20
2.473333
  0
VERTEX
  8
FOREGROUND
 62
     7
  6
CONTINUOUS
 10
3.548333
 20
2.423333
  0
VERTEX
  8
FOREGROUND
 62
     7
  6
CONTINUOUS
 10
3.561667
 20
2.370000
  0
VERTEX
  8
FOREGROUND
 62
     7
  6
CONTINUOUS
 10
3.570000
 20
2.316667
  0
VERTEX
  8
FOREGROUND
 62
     7
  6
CONTINUOUS
 10
3.573333
 20
2.260000
  0
VERTEX
  8
FOREGROUND
 62
     7
  6
CONTINUOUS
 10
3.573333
 20
0.608333
  0
VERTEX
  8
FOREGROUND
 62
     7
  6
CONTINUOUS
 10
3.570000
 20
0.551667
  0
VERTEX
  8
FOREGROUND
 62
     7
  6
CONTINUOUS
 10
3.561667
 20
0.496667
  0
VERTEX
  8
FOREGROUND
 62
     7
  6
CONTINUOUS
 10
3.548333
 20
0.445000
  0
VERTEX
  8
FOREGROUND
 62
     7
  6
CONTINUOUS
 10
3.530000
 20
0.393333
  0
VERTEX
  8
FOREGROUND
 62
     7
  6
CONTINUOUS
 10
3.506667
 20
0.346667
  0
VERTEX
  8
FOREGROUND
 62
     7
  6
CONTINUOUS
 10
3.480000
 20
0.300000
  0
VERTEX
  8
FOREGROUND
 62
     7
  6
CONTINUOUS
 10
3.448333
 20
0.258333
  0
VERTEX
  8
FOREGROUND
 62
     7
  6
CONTINUOUS
 10
3.411667
 20
0.220000
  0
VERTEX
  8
FOREGROUND
 62
     7
  6
CONTINUOUS
 10
3.373333
 20
0.183333
  0
VERTEX
  8
FOREGROUND
 62
     7
  6
CONTINUOUS
 10
3.331667
 20
0.151667
  0
VERTEX
  8
FOREGROUND
 62
     7
  6
CONTINUOUS
 10
3.285000
 20
0.125000
  0
VERTEX
  8
FOREGROUND
 62
     7
  6
CONTINUOUS
 10
3.238333
 20
0.101667
  0
VERTEX
  8
FOREGROUND
 62
     7
  6
CONTINUOUS
 10
3.186667
 20
0.083333
  0
VERTEX
  8
FOREGROUND
 62
     7
  6
CONTINUOUS
 10
3.135000
 20
0.070000
  0
VERTEX
  8
FOREGROUND
 62
     7
  6
CONTINUOUS
 10
3.080000
 20
0.061667
  0
VERTEX
  8
FOREGROUND
 62
     7
  6
CONTINUOUS
 10
3.023333
 20
0.058333
  0
VERTEX
  8
FOREGROUND
 62
     7
  6
CONTINUOUS
 10
0.600000
 20
0.058333
  0
VERTEX
  8
FOREGROUND
 62
     7
  6
CONTINUOUS
 10
0.543333
 20
0.061667
  0
VERTEX
  8
FOREGROUND
 62
     7
  6
CONTINUOUS
 10
0.490000
 20
0.070000
  0
VERTEX
  8
FOREGROUND
 62
     7
  6
CONTINUOUS
 10
0.436667
 20
0.083333
  0
VERTEX
  8
FOREGROUND
 62
     7
  6
CONTINUOUS
 10
0.386667
 20
0.101667
  0
VERTEX
  8
FOREGROUND
 62
     7
  6
CONTINUOUS
 10
0.338333
 20
0.125000
  0
VERTEX
  8
FOREGROUND
 62
     7
  6
CONTINUOUS
 10
0.293333
 20
0.151667
  0
VERTEX
  8
FOREGROUND
 62
     7
  6
CONTINUOUS
 10
0.250000
 20
0.183333
  0
VERTEX
  8
FOREGROUND
 62
     7
  6
CONTINUOUS
 10
0.211667
 20
0.220000
  0
VERTEX
  8
FOREGROUND
 62
     7
  6
CONTINUOUS
 10
0.175000
 20
0.258333
  0
VERTEX
  8
FOREGROUND
 62
     7
  6
CONTINUOUS
 10
0.143333
 20
0.300000
  0
VERTEX
  8
FOREGROUND
 62
     7
  6
CONTINUOUS
 10
0.116667
 20
0.346667
  0
VERTEX
  8
FOREGROUND
 62
     7
  6
CONTINUOUS
 10
0.093333
 20
0.393333
  0
VERTEX
  8
FOREGROUND
 62
     7
  6
CONTINUOUS
 10
0.075000
 20
0.445000
  0
VERTEX
  8
FOREGROUND
 62
     7
  6
CONTINUOUS
 10
0.061667
 20
0.496667
  0
VERTEX
  8
FOREGROUND
 62
     7
  6
CONTINUOUS
 10
0.053333
 20
0.551667
  0
VERTEX
  8
FOREGROUND
 62
     7
  6
CONTINUOUS
 10
0.050000
 20
0.608333
  0
VERTEX
  8
FOREGROUND
 62
     7
  6
CONTINUOUS
 10
0.050000
 20
2.260000
  0
VERTEX
  8
FOREGROUND
 62
     7
  6
CONTINUOUS
 10
0.053333
 20
2.316667
  0
VERTEX
  8
FOREGROUND
 62
     7
  6
CONTINUOUS
 10
0.061667
 20
2.370000
  0
VERTEX
  8
FOREGROUND
 62
     7
  6
CONTINUOUS
 10
0.075000
 20
2.423333
  0
VERTEX
  8
FOREGROUND
 62
     7
  6
CONTINUOUS
 10
0.093333
 20
2.473333
  0
VERTEX
  8
FOREGROUND
 62
     7
  6
CONTINUOUS
 10
0.116667
 20
2.521667
  0
VERTEX
  8
FOREGROUND
 62
     7
  6
CONTINUOUS
 10
0.143333
 20
2.566667
  0
VERTEX
  8
FOREGROUND
 62
     7
  6
CONTINUOUS
 10
0.175000
 20
2.610000
  0
VERTEX
  8
FOREGROUND
 62
     7
  6
CONTINUOUS
 10
0.211667
 20
2.648333
  0
VERTEX
  8
FOREGROUND
 62
     7
  6
CONTINUOUS
 10
0.250000
 20
2.685000
  0
VERTEX
  8
FOREGROUND
 62
     7
  6
CONTINUOUS
 10
0.293333
 20
2.716667
  0
VERTEX
  8
FOREGROUND
 62
     7
  6
CONTINUOUS
 10
0.338333
 20
2.743333
  0
VERTEX
  8
FOREGROUND
 62
     7
  6
CONTINUOUS
 10
0.386667
 20
2.766667
  0
VERTEX
  8
FOREGROUND
 62
     7
  6
CONTINUOUS
 10
0.436667
 20
2.785000
  0
VERTEX
  8
FOREGROUND
 62
     7
  6
CONTINUOUS
 10
0.490000
 20
2.798333
  0
VERTEX
  8
FOREGROUND
 62
     7
  6
CONTINUOUS
 10
0.543333
 20
2.806667
  0
SEQEND
  8
0
  0
POLYLINE
  8
FOREGROUND
  6
CONTINUOUS
 66
     1
 40
0.010000
 41
0.010000
 70
     1
  0
VERTEX
  8
FOREGROUND
  6
CONTINUOUS
 10
0.600000
 20
2.810000
  0
VERTEX
  8
FOREGROUND
  6
CONTINUOUS
 10
3.023333
 20
2.810000
  0
VERTEX
  8
FOREGROUND
  6
CONTINUOUS
 10
3.080000
 20
2.806667
  0
VERTEX
  8
FOREGROUND
  6
CONTINUOUS
 10
3.135000
 20
2.798333
  0
VERTEX
  8
FOREGROUND
  6
CONTINUOUS
 10
3.186667
 20
2.785000
  0
VERTEX
  8
FOREGROUND
  6
CONTINUOUS
 10
3.238333
 20
2.766667
  0
VERTEX
  8
FOREGROUND
  6
CONTINUOUS
 10
3.285000
 20
2.743333
  0
VERTEX
  8
FOREGROUND
  6
CONTINUOUS
 10
3.331667
 20
2.716667
  0
VERTEX
  8
FOREGROUND
  6
CONTINUOUS
 10
3.373333
 20
2.685000
  0
VERTEX
  8
FOREGROUND
  6
CONTINUOUS
 10
3.411667
 20
2.648333
  0
VERTEX
  8
FOREGROUND
  6
CONTINUOUS
 10
3.448333
 20
2.610000
  0
VERTEX
  8
FOREGROUND
  6
CONTINUOUS
 10
3.480000
 20
2.566667
  0
VERTEX
  8
FOREGROUND
  6
CONTINUOUS
 10
3.506667
 20
2.521667
  0
VERTEX
  8
FOREGROUND
  6
CONTINUOUS
 10
3.530000
 20
2.473333
  0
VERTEX
  8
FOREGROUND
  6
CONTINUOUS
 10
3.548333
 20
2.423333
  0
VERTEX
  8
FOREGROUND
  6
CONTINUOUS
 10
3.561667
 20
2.370000
  0
VERTEX
  8
FOREGROUND
  6
CONTINUOUS
 10
3.570000
 20
2.316667
  0
VERTEX
  8
FOREGROUND
  6
CONTINUOUS
 10
3.573333
 20
2.260000
  0
VERTEX
  8
FOREGROUND
  6
CONTINUOUS
 10
3.573333
 20
0.608333
  0
VERTEX
  8
FOREGROUND
  6
CONTINUOUS
 10
3.570000
 20
0.551667
  0
VERTEX
  8
FOREGROUND
  6
CONTINUOUS
 10
3.561667
 20
0.496667
  0
VERTEX
  8
FOREGROUND
  6
CONTINUOUS
 10
3.548333
 20
0.445000
  0
VERTEX
  8
FOREGROUND
  6
CONTINUOUS
 10
3.530000
 20
0.393333
  0
VERTEX
  8
FOREGROUND
  6
CONTINUOUS
 10
3.506667
 20
0.346667
  0
VERTEX
  8
FOREGROUND
  6
CONTINUOUS
 10
3.480000
 20
0.300000
  0
VERTEX
  8
FOREGROUND
  6
CONTINUOUS
 10
3.448333
 20
0.258333
  0
VERTEX
  8
FOREGROUND
  6
CONTINUOUS
 10
3.411667
 20
0.220000
  0
VERTEX
  8
FOREGROUND
  6
CONTINUOUS
 10
3.373333
 20
0.183333
  0
VERTEX
  8
FOREGROUND
  6
CONTINUOUS
 10
3.331667
 20
0.151667
  0
VERTEX
  8
FOREGROUND
  6
CONTINUOUS
 10
3.285000
 20
0.125000
  0
VERTEX
  8
FOREGROUND
  6
CONTINUOUS
 10
3.238333
 20
0.101667
  0
VERTEX
  8
FOREGROUND
  6
CONTINUOUS
 10
3.186667
 20
0.083333
  0
VERTEX
  8
FOREGROUND
  6
CONTINUOUS
 10
3.135000
 20
0.070000
  0
VERTEX
  8
FOREGROUND
  6
CONTINUOUS
 10
3.080000
 20
0.061667
  0
VERTEX
  8
FOREGROUND
  6
CONTINUOUS
 10
3.023333
 20
0.058333
  0
VERTEX
  8
FOREGROUND
  6
CONTINUOUS
 10
0.600000
 20
0.058333
  0
VERTEX
  8
FOREGROUND
  6
CONTINUOUS
 10
0.543333
 20
0.061667
  0
VERTEX
  8
FOREGROUND
  6
CONTINUOUS
 10
0.490000
 20
0.070000
  0
VERTEX
  8
FOREGROUND
  6
CONTINUOUS
 10
0.436667
 20
0.083333
  0
VERTEX
  8
FOREGROUND
  6
CONTINUOUS
 10
0.386667
 20
0.101667
  0
VERTEX
  8
FOREGROUND
  6
CONTINUOUS
 10
0.338333
 20
0.125000
  0
VERTEX
  8
FOREGROUND
  6
CONTINUOUS
 10
0.293333
 20
0.151667
  0
VERTEX
  8
FOREGROUND
  6
CONTINUOUS
 10
0.250000
 20
0.183333
  0
VERTEX
  8
FOREGROUND
  6
CONTINUOUS
 10
0.211667
 20
0.220000
  0
VERTEX
  8
FOREGROUND
  6
CONTINUOUS
 10
0.175000
 20
0.258333
  0
VERTEX
  8
FOREGROUND
  6
CONTINUOUS
 10
0.143333
 20
0.300000
  0
VERTEX
  8
FOREGROUND
  6
CONTINUOUS
 10
0.116667
 20
0.346667
  0
VERTEX
  8
FOREGROUND
  6
CONTINUOUS
 10
0.093333
 20
0.393333
  0
VERTEX
  8
FOREGROUND
  6
CONTINUOUS
 10
0.075000
 20
0.445000
  0
VERTEX
  8
FOREGROUND
  6
CONTINUOUS
 10
0.061667
 20
0.496667
  0
VERTEX
  8
FOREGROUND
  6
CONTINUOUS
 10
0.053333
 20
0.551667
  0
VERTEX
  8
FOREGROUND
  6
CONTINUOUS
 10
0.050000
 20
0.608333
  0
VERTEX
  8
FOREGROUND
  6
CONTINUOUS
 10
0.050000
 20
2.260000
  0
VERTEX
  8
FOREGROUND
  6
CONTINUOUS
 10
0.053333
 20
2.316667
  0
VERTEX
  8
FOREGROUND
  6
CONTINUOUS
 10
0.061667
 20
2.370000
  0
VERTEX
  8
FOREGROUND
  6
CONTINUOUS
 10
0.075000
 20
2.423333
  0
VERTEX
  8
FOREGROUND
  6
CONTINUOUS
 10
0.093333
 20
2.473333
  0
VERTEX
  8
FOREGROUND
  6
CONTINUOUS
 10
0.116667
 20
2.521667
  0
VERTEX
  8
FOREGROUND
  6
CONTINUOUS
 10
0.143333
 20
2.566667
  0
VERTEX
  8
FOREGROUND
  6
CONTINUOUS
 10
0.175000
 20
2.610000
  0
VERTEX
  8
FOREGROUND
  6
CONTINUOUS
 10
0.211667
 20
2.648333
  0
VERTEX
  8
FOREGROUND
  6
CONTINUOUS
 10
0.250000
 20
2.685000
  0
VERTEX
  8
FOREGROUND
  6
CONTINUOUS
 10
0.293333
 20
2.716667
  0
VERTEX
  8
FOREGROUND
  6
CONTINUOUS
 10
0.338333
 20
2.743333
  0
VERTEX
  8
FOREGROUND
  6
CONTINUOUS
 10
0.386667
 20
2.766667
  0
VERTEX
  8
FOREGROUND
  6
CONTINUOUS
 10
0.436667
 20
2.785000
  0
VERTEX
  8
FOREGROUND
  6
CONTINUOUS
 10
0.490000
 20
2.798333
  0
VERTEX
  8
FOREGROUND
  6
CONTINUOUS
 10
0.543333
 20
2.806667
  0
SEQEND
  8
0
  0
ENDSEC
  0
EOF
