  0
SECTION
  2
HEADER
  9
$ACADVER
  1
AC1006
  9
$EXTMIN
 10
0.000000
 20
0.000000
  9
$EXTMAX
 10
3.745000
 20
3.170000
  9
$LTSCALE
 40
0.166667
  9
$PDMODE
 70
    35
  9
$PDSIZE
 40
0.133333
  0
ENDSEC
  0
SECTION
  2
TABLES
  0
TABLE
  2
LTYPE
 70
     9
  0
LTYPE
  2
CONTINUOUS
 70
    64
  3
Solid line
 72
    65
 73
     0
 40
0.000000
  0
LTYPE
  2
DASHED
 70
    64
  3
__ __ __ __ __ __ __ __ __ __ __ __ __ __ __
 72
    65
 73
     2
 40
0.001250
 49
0.000833
 49
-0.000417
  0
LTYPE
  2
HIDDEN
 70
    64
  3
 _ _ _ _ _ _ _ _ _ _ _ _ _ _ _ _ _ _ _ _ _ _
 72
    65
 73
     2
 40
0.000625
 49
0.000417
 49
-0.000208
  0
LTYPE
  2
CENTER
 70
    64
  3
____ _ ____ _ ____ _ ____ _ ____ _ ____ _ ____
 72
    65
 73
     4
 40
0.003333
 49
0.002083
 49
-0.000417
 49
0.000417
 49
-0.000417
  0
LTYPE
  2
PHANTOM
 70
    64
  3
_____ _ _ _____ _ _ _____ _ _ _____ _ _ ____
 72
    65
 73
     6
 40
0.004167
 49
0.002083
 49
-0.000417
 49
0.000417
 49
-0.000417
 49
0.000417
 49
-0.000417
  0
LTYPE
  2
DOT
 70
    64
  3
...............................................
 72
    65
 73
     2
 40
0.000417
 49
0.000000
 49
-0.000417
  0
LTYPE
  2
DASHDOT
 70
    64
  3
__ . __ . __ . __ . __ . __ . __ . __ . __ . __
 72
    65
 73
     4
 40
0.001667
 49
0.000833
 49
-0.000417
 49
0.000000
 49
-0.000417
  0
LTYPE
  2
BORDER
 70
    64
  3
__ __ . __ __ . __ __ . __ __ . __ __ . __ __
 72
    65
 73
     6
 40
0.002917
 49
0.000833
 49
-0.000417
 49
0.000833
 49
-0.000417
 49
0.000000
 49
-0.000417
  0
LTYPE
  2
DIVIDE
 70
    64
  3
__ . . __ . . __ . . __ . . __ . . __ . . __
 72
    65
 73
     6
 40
0.002083
 49
0.000833
 49
-0.000417
 49
0.000000
 49
-0.000417
 49
0.000000
 49
-0.000417
  0
LTYPE
  2
DOTDOT
 70
    64
  3
 . .  . .  . .  . .  . .  . . 
 72
    65
 73
     5
 40
0.000917
 49
-0.000417
 49
0.000000
 49
-0.000417
 49
0.000000
 49
-0.000417
  0
ENDTAB
  0
TABLE
  2
STYLE
 70
     2
  0
STYLE
 70
     0
  2
SN0
 40
0.000000
 41
0.001667
 50
0.000000
 71
     0
 42
0.000000
  3
ROMAND
  0
STYLE
 70
    68
  2
SV0
 40
0.000000
 41
0.001667
 50
0.000000
 71
     0
 42
0.000000
  3
ROMAND
  0
ENDTAB
  0
TABLE
  2
LAYER
 70
     2
  0
LAYER
  2
FOREGROUND
 70
    64
 62
     7
  6
CONTINUOUS
  0
LAYER
  2
BACKGROUND
 70
    65
 62
    -7
  6
CONTINUOUS
  0
ENDTAB
  0
ENDSEC
  0
SECTION
  2
ENTITIES
  0
POLYLINE
  8
FOREGROUND
 62
     7
  6
CONTINUOUS
 66
     1
 40
0.000000
 41
0.000000
 70
     1
  0
VERTEX
  8
FOREGROUND
 62
     7
  6
CONTINUOUS
 10
0.638333
 20
3.008333
  0
VERTEX
  8
FOREGROUND
 62
     7
  6
CONTINUOUS
 10
2.985000
 20
3.008333
  0
VERTEX
  8
FOREGROUND
 62
     7
  6
CONTINUOUS
 10
3.045000
 20
3.005000
  0
VERTEX
  8
FOREGROUND
 62
     7
  6
CONTINUOUS
 10
3.103333
 20
2.996667
  0
VERTEX
  8
FOREGROUND
 62
     7
  6
CONTINUOUS
 10
3.160000
 20
2.981667
  0
VERTEX
  8
FOREGROUND
 62
     7
  6
CONTINUOUS
 10
3.215000
 20
2.961667
  0
VERTEX
  8
FOREGROUND
 62
     7
  6
CONTINUOUS
 10
3.265000
 20
2.936667
  0
VERTEX
  8
FOREGROUND
 62
     7
  6
CONTINUOUS
 10
3.313333
 20
2.908333
  0
VERTEX
  8
FOREGROUND
 62
     7
  6
CONTINUOUS
 10
3.360000
 20
2.873333
  0
VERTEX
  8
FOREGROUND
 62
     7
  6
CONTINUOUS
 10
3.401667
 20
2.835000
  0
VERTEX
  8
FOREGROUND
 62
     7
  6
CONTINUOUS
 10
3.438333
 20
2.793333
  0
VERTEX
  8
FOREGROUND
 62
     7
  6
CONTINUOUS
 10
3.473333
 20
2.748333
  0
VERTEX
  8
FOREGROUND
 62
     7
  6
CONTINUOUS
 10
3.501667
 20
2.700000
  0
VERTEX
  8
FOREGROUND
 62
     7
  6
CONTINUOUS
 10
3.526667
 20
2.648333
  0
VERTEX
  8
FOREGROUND
 62
     7
  6
CONTINUOUS
 10
3.546667
 20
2.595000
  0
VERTEX
  8
FOREGROUND
 62
     7
  6
CONTINUOUS
 10
3.561667
 20
2.538333
  0
VERTEX
  8
FOREGROUND
 62
     7
  6
CONTINUOUS
 10
3.570000
 20
2.480000
  0
VERTEX
  8
FOREGROUND
 62
     7
  6
CONTINUOUS
 10
3.573333
 20
2.420000
  0
VERTEX
  8
FOREGROUND
 62
     7
  6
CONTINUOUS
 10
3.573333
 20
0.646667
  0
VERTEX
  8
FOREGROUND
 62
     7
  6
CONTINUOUS
 10
3.570000
 20
0.586667
  0
VERTEX
  8
FOREGROUND
 62
     7
  6
CONTINUOUS
 10
3.561667
 20
0.528333
  0
VERTEX
  8
FOREGROUND
 62
     7
  6
CONTINUOUS
 10
3.546667
 20
0.471667
  0
VERTEX
  8
FOREGROUND
 62
     7
  6
CONTINUOUS
 10
3.526667
 20
0.416667
  0
VERTEX
  8
FOREGROUND
 62
     7
  6
CONTINUOUS
 10
3.501667
 20
0.366667
  0
VERTEX
  8
FOREGROUND
 62
     7
  6
CONTINUOUS
 10
3.473333
 20
0.318333
  0
VERTEX
  8
FOREGROUND
 62
     7
  6
CONTINUOUS
 10
3.438333
 20
0.271667
  0
VERTEX
  8
FOREGROUND
 62
     7
  6
CONTINUOUS
 10
3.401667
 20
0.230000
  0
VERTEX
  8
FOREGROUND
 62
     7
  6
CONTINUOUS
 10
3.360000
 20
0.193333
  0
VERTEX
  8
FOREGROUND
 62
     7
  6
CONTINUOUS
 10
3.313333
 20
0.158333
  0
VERTEX
  8
FOREGROUND
 62
     7
  6
CONTINUOUS
 10
3.265000
 20
0.130000
  0
VERTEX
  8
FOREGROUND
 62
     7
  6
CONTINUOUS
 10
3.215000
 20
0.105000
  0
VERTEX
  8
FOREGROUND
 62
     7
  6
CONTINUOUS
 10
3.160000
 20
0.085000
  0
VERTEX
  8
FOREGROUND
 62
     7
  6
CONTINUOUS
 10
3.103333
 20
0.070000
  0
VERTEX
  8
FOREGROUND
 62
     7
  6
CONTINUOUS
 10
3.045000
 20
0.061667
  0
VERTEX
  8
FOREGROUND
 62
     7
  6
CONTINUOUS
 10
2.985000
 20
0.058333
  0
VERTEX
  8
FOREGROUND
 62
     7
  6
CONTINUOUS
 10
0.638333
 20
0.058333
  0
VERTEX
  8
FOREGROUND
 62
     7
  6
CONTINUOUS
 10
0.578333
 20
0.061667
  0
VERTEX
  8
FOREGROUND
 62
     7
  6
CONTINUOUS
 10
0.520000
 20
0.070000
  0
VERTEX
  8
FOREGROUND
 62
     7
  6
CONTINUOUS
 10
0.463333
 20
0.085000
  0
VERTEX
  8
FOREGROUND
 62
     7
  6
CONTINUOUS
 10
0.410000
 20
0.105000
  0
VERTEX
  8
FOREGROUND
 62
     7
  6
CONTINUOUS
 10
0.358333
 20
0.130000
  0
VERTEX
  8
FOREGROUND
 62
     7
  6
CONTINUOUS
 10
0.310000
 20
0.158333
  0
VERTEX
  8
FOREGROUND
 62
     7
  6
CONTINUOUS
 10
0.265000
 20
0.193333
  0
VERTEX
  8
FOREGROUND
 62
     7
  6
CONTINUOUS
 10
0.223333
 20
0.230000
  0
VERTEX
  8
FOREGROUND
 62
     7
  6
CONTINUOUS
 10
0.185000
 20
0.271667
  0
VERTEX
  8
FOREGROUND
 62
     7
  6
CONTINUOUS
 10
0.150000
 20
0.318333
  0
VERTEX
  8
FOREGROUND
 62
     7
  6
CONTINUOUS
 10
0.121667
 20
0.366667
  0
VERTEX
  8
FOREGROUND
 62
     7
  6
CONTINUOUS
 10
0.096667
 20
0.416667
  0
VERTEX
  8
FOREGROUND
 62
     7
  6
CONTINUOUS
 10
0.076667
 20
0.471667
  0
VERTEX
  8
FOREGROUND
 62
     7
  6
CONTINUOUS
 10
0.061667
 20
0.528333
  0
VERTEX
  8
FOREGROUND
 62
     7
  6
CONTINUOUS
 10
0.053333
 20
0.586667
  0
VERTEX
  8
FOREGROUND
 62
     7
  6
CONTINUOUS
 10
0.050000
 20
0.646667
  0
VERTEX
  8
FOREGROUND
 62
     7
  6
CONTINUOUS
 10
0.050000
 20
2.420000
  0
VERTEX
  8
FOREGROUND
 62
     7
  6
CONTINUOUS
 10
0.053333
 20
2.480000
  0
VERTEX
  8
FOREGROUND
 62
     7
  6
CONTINUOUS
 10
0.061667
 20
2.538333
  0
VERTEX
  8
FOREGROUND
 62
     7
  6
CONTINUOUS
 10
0.076667
 20
2.595000
  0
VERTEX
  8
FOREGROUND
 62
     7
  6
CONTINUOUS
 10
0.096667
 20
2.648333
  0
VERTEX
  8
FOREGROUND
 62
     7
  6
CONTINUOUS
 10
0.121667
 20
2.700000
  0
VERTEX
  8
FOREGROUND
 62
     7
  6
CONTINUOUS
 10
0.150000
 20
2.748333
  0
VERTEX
  8
FOREGROUND
 62
     7
  6
CONTINUOUS
 10
0.185000
 20
2.793333
  0
VERTEX
  8
FOREGROUND
 62
     7
  6
CONTINUOUS
 10
0.223333
 20
2.835000
  0
VERTEX
  8
FOREGROUND
 62
     7
  6
CONTINUOUS
 10
0.265000
 20
2.873333
  0
VERTEX
  8
FOREGROUND
 62
     7
  6
CONTINUOUS
 10
0.310000
 20
2.908333
  0
VERTEX
  8
FOREGROUND
 62
     7
  6
CONTINUOUS
 10
0.358333
 20
2.936667
  0
VERTEX
  8
FOREGROUND
 62
     7
  6
CONTINUOUS
 10
0.410000
 20
2.961667
  0
VERTEX
  8
FOREGROUND
 62
     7
  6
CONTINUOUS
 10
0.463333
 20
2.981667
  0
VERTEX
  8
FOREGROUND
 62
     7
  6
CONTINUOUS
 10
0.520000
 20
2.996667
  0
VERTEX
  8
FOREGROUND
 62
     7
  6
CONTINUOUS
 10
0.578333
 20
3.005000
  0
SEQEND
  8
0
  0
POLYLINE
  8
FOREGROUND
  6
CONTINUOUS
 66
     1
 40
0.010000
 41
0.010000
 70
     1
  0
VERTEX
  8
FOREGROUND
  6
CONTINUOUS
 10
0.638333
 20
3.008333
  0
VERTEX
  8
FOREGROUND
  6
CONTINUOUS
 10
2.985000
 20
3.008333
  0
VERTEX
  8
FOREGROUND
  6
CONTINUOUS
 10
3.045000
 20
3.005000
  0
VERTEX
  8
FOREGROUND
  6
CONTINUOUS
 10
3.103333
 20
2.996667
  0
VERTEX
  8
FOREGROUND
  6
CONTINUOUS
 10
3.160000
 20
2.981667
  0
VERTEX
  8
FOREGROUND
  6
CONTINUOUS
 10
3.215000
 20
2.961667
  0
VERTEX
  8
FOREGROUND
  6
CONTINUOUS
 10
3.265000
 20
2.936667
  0
VERTEX
  8
FOREGROUND
  6
CONTINUOUS
 10
3.313333
 20
2.908333
  0
VERTEX
  8
FOREGROUND
  6
CONTINUOUS
 10
3.360000
 20
2.873333
  0
VERTEX
  8
FOREGROUND
  6
CONTINUOUS
 10
3.401667
 20
2.835000
  0
VERTEX
  8
FOREGROUND
  6
CONTINUOUS
 10
3.438333
 20
2.793333
  0
VERTEX
  8
FOREGROUND
  6
CONTINUOUS
 10
3.473333
 20
2.748333
  0
VERTEX
  8
FOREGROUND
  6
CONTINUOUS
 10
3.501667
 20
2.700000
  0
VERTEX
  8
FOREGROUND
  6
CONTINUOUS
 10
3.526667
 20
2.648333
  0
VERTEX
  8
FOREGROUND
  6
CONTINUOUS
 10
3.546667
 20
2.595000
  0
VERTEX
  8
FOREGROUND
  6
CONTINUOUS
 10
3.561667
 20
2.538333
  0
VERTEX
  8
FOREGROUND
  6
CONTINUOUS
 10
3.570000
 20
2.480000
  0
VERTEX
  8
FOREGROUND
  6
CONTINUOUS
 10
3.573333
 20
2.420000
  0
VERTEX
  8
FOREGROUND
  6
CONTINUOUS
 10
3.573333
 20
0.646667
  0
VERTEX
  8
FOREGROUND
  6
CONTINUOUS
 10
3.570000
 20
0.586667
  0
VERTEX
  8
FOREGROUND
  6
CONTINUOUS
 10
3.561667
 20
0.528333
  0
VERTEX
  8
FOREGROUND
  6
CONTINUOUS
 10
3.546667
 20
0.471667
  0
VERTEX
  8
FOREGROUND
  6
CONTINUOUS
 10
3.526667
 20
0.416667
  0
VERTEX
  8
FOREGROUND
  6
CONTINUOUS
 10
3.501667
 20
0.366667
  0
VERTEX
  8
FOREGROUND
  6
CONTINUOUS
 10
3.473333
 20
0.318333
  0
VERTEX
  8
FOREGROUND
  6
CONTINUOUS
 10
3.438333
 20
0.271667
  0
VERTEX
  8
FOREGROUND
  6
CONTINUOUS
 10
3.401667
 20
0.230000
  0
VERTEX
  8
FOREGROUND
  6
CONTINUOUS
 10
3.360000
 20
0.193333
  0
VERTEX
  8
FOREGROUND
  6
CONTINUOUS
 10
3.313333
 20
0.158333
  0
VERTEX
  8
FOREGROUND
  6
CONTINUOUS
 10
3.265000
 20
0.130000
  0
VERTEX
  8
FOREGROUND
  6
CONTINUOUS
 10
3.215000
 20
0.105000
  0
VERTEX
  8
FOREGROUND
  6
CONTINUOUS
 10
3.160000
 20
0.085000
  0
VERTEX
  8
FOREGROUND
  6
CONTINUOUS
 10
3.103333
 20
0.070000
  0
VERTEX
  8
FOREGROUND
  6
CONTINUOUS
 10
3.045000
 20
0.061667
  0
VERTEX
  8
FOREGROUND
  6
CONTINUOUS
 10
2.985000
 20
0.058333
  0
VERTEX
  8
FOREGROUND
  6
CONTINUOUS
 10
0.638333
 20
0.058333
  0
VERTEX
  8
FOREGROUND
  6
CONTINUOUS
 10
0.578333
 20
0.061667
  0
VERTEX
  8
FOREGROUND
  6
CONTINUOUS
 10
0.520000
 20
0.070000
  0
VERTEX
  8
FOREGROUND
  6
CONTINUOUS
 10
0.463333
 20
0.085000
  0
VERTEX
  8
FOREGROUND
  6
CONTINUOUS
 10
0.410000
 20
0.105000
  0
VERTEX
  8
FOREGROUND
  6
CONTINUOUS
 10
0.358333
 20
0.130000
  0
VERTEX
  8
FOREGROUND
  6
CONTINUOUS
 10
0.310000
 20
0.158333
  0
VERTEX
  8
FOREGROUND
  6
CONTINUOUS
 10
0.265000
 20
0.193333
  0
VERTEX
  8
FOREGROUND
  6
CONTINUOUS
 10
0.223333
 20
0.230000
  0
VERTEX
  8
FOREGROUND
  6
CONTINUOUS
 10
0.185000
 20
0.271667
  0
VERTEX
  8
FOREGROUND
  6
CONTINUOUS
 10
0.150000
 20
0.318333
  0
VERTEX
  8
FOREGROUND
  6
CONTINUOUS
 10
0.121667
 20
0.366667
  0
VERTEX
  8
FOREGROUND
  6
CONTINUOUS
 10
0.096667
 20
0.416667
  0
VERTEX
  8
FOREGROUND
  6
CONTINUOUS
 10
0.076667
 20
0.471667
  0
VERTEX
  8
FOREGROUND
  6
CONTINUOUS
 10
0.061667
 20
0.528333
  0
VERTEX
  8
FOREGROUND
  6
CONTINUOUS
 10
0.053333
 20
0.586667
  0
VERTEX
  8
FOREGROUND
  6
CONTINUOUS
 10
0.050000
 20
0.646667
  0
VERTEX
  8
FOREGROUND
  6
CONTINUOUS
 10
0.050000
 20
2.420000
  0
VERTEX
  8
FOREGROUND
  6
CONTINUOUS
 10
0.053333
 20
2.480000
  0
VERTEX
  8
FOREGROUND
  6
CONTINUOUS
 10
0.061667
 20
2.538333
  0
VERTEX
  8
FOREGROUND
  6
CONTINUOUS
 10
0.076667
 20
2.595000
  0
VERTEX
  8
FOREGROUND
  6
CONTINUOUS
 10
0.096667
 20
2.648333
  0
VERTEX
  8
FOREGROUND
  6
CONTINUOUS
 10
0.121667
 20
2.700000
  0
VERTEX
  8
FOREGROUND
  6
CONTINUOUS
 10
0.150000
 20
2.748333
  0
VERTEX
  8
FOREGROUND
  6
CONTINUOUS
 10
0.185000
 20
2.793333
  0
VERTEX
  8
FOREGROUND
  6
CONTINUOUS
 10
0.223333
 20
2.835000
  0
VERTEX
  8
FOREGROUND
  6
CONTINUOUS
 10
0.265000
 20
2.873333
  0
VERTEX
  8
FOREGROUND
  6
CONTINUOUS
 10
0.310000
 20
2.908333
  0
VERTEX
  8
FOREGROUND
  6
CONTINUOUS
 10
0.358333
 20
2.936667
  0
VERTEX
  8
FOREGROUND
  6
CONTINUOUS
 10
0.410000
 20
2.961667
  0
VERTEX
  8
FOREGROUND
  6
CONTINUOUS
 10
0.463333
 20
2.981667
  0
VERTEX
  8
FOREGROUND
  6
CONTINUOUS
 10
0.520000
 20
2.996667
  0
VERTEX
  8
FOREGROUND
  6
CONTINUOUS
 10
0.578333
 20
3.005000
  0
SEQEND
  8
0
  0
ENDSEC
  0
EOF
