  0
SECTION
  2
HEADER
  9
$ACADVER
  1
AC1006
  9
$EXTMIN
 10
0.000000
 20
0.000000
  9
$EXTMAX
 10
3.650000
 20
3.655000
  9
$LTSCALE
 40
0.166667
  9
$PDMODE
 70
    35
  9
$PDSIZE
 40
0.133333
  0
ENDSEC
  0
SECTION
  2
TABLES
  0
TABLE
  2
LTYPE
 70
     9
  0
LTYPE
  2
CONTINUOUS
 70
    64
  3
Solid line
 72
    65
 73
     0
 40
0.000000
  0
LTYPE
  2
DASHED
 70
    64
  3
__ __ __ __ __ __ __ __ __ __ __ __ __ __ __
 72
    65
 73
     2
 40
0.001250
 49
0.000833
 49
-0.000417
  0
LTYPE
  2
HIDDEN
 70
    64
  3
 _ _ _ _ _ _ _ _ _ _ _ _ _ _ _ _ _ _ _ _ _ _
 72
    65
 73
     2
 40
0.000625
 49
0.000417
 49
-0.000208
  0
LTYPE
  2
CENTER
 70
    64
  3
____ _ ____ _ ____ _ ____ _ ____ _ ____ _ ____
 72
    65
 73
     4
 40
0.003333
 49
0.002083
 49
-0.000417
 49
0.000417
 49
-0.000417
  0
LTYPE
  2
PHANTOM
 70
    64
  3
_____ _ _ _____ _ _ _____ _ _ _____ _ _ ____
 72
    65
 73
     6
 40
0.004167
 49
0.002083
 49
-0.000417
 49
0.000417
 49
-0.000417
 49
0.000417
 49
-0.000417
  0
LTYPE
  2
DOT
 70
    64
  3
...............................................
 72
    65
 73
     2
 40
0.000417
 49
0.000000
 49
-0.000417
  0
LTYPE
  2
DASHDOT
 70
    64
  3
__ . __ . __ . __ . __ . __ . __ . __ . __ . __
 72
    65
 73
     4
 40
0.001667
 49
0.000833
 49
-0.000417
 49
0.000000
 49
-0.000417
  0
LTYPE
  2
BORDER
 70
    64
  3
__ __ . __ __ . __ __ . __ __ . __ __ . __ __
 72
    65
 73
     6
 40
0.002917
 49
0.000833
 49
-0.000417
 49
0.000833
 49
-0.000417
 49
0.000000
 49
-0.000417
  0
LTYPE
  2
DIVIDE
 70
    64
  3
__ . . __ . . __ . . __ . . __ . . __ . . __
 72
    65
 73
     6
 40
0.002083
 49
0.000833
 49
-0.000417
 49
0.000000
 49
-0.000417
 49
0.000000
 49
-0.000417
  0
LTYPE
  2
DOTDOT
 70
    64
  3
 . .  . .  . .  . .  . .  . . 
 72
    65
 73
     5
 40
0.000917
 49
-0.000417
 49
0.000000
 49
-0.000417
 49
0.000000
 49
-0.000417
  0
ENDTAB
  0
TABLE
  2
STYLE
 70
     2
  0
STYLE
 70
     0
  2
SN0
 40
0.000000
 41
0.001667
 50
0.000000
 71
     0
 42
0.000000
  3
ROMAND
  0
STYLE
 70
    68
  2
SV0
 40
0.000000
 41
0.001667
 50
0.000000
 71
     0
 42
0.000000
  3
ROMAND
  0
ENDTAB
  0
TABLE
  2
LAYER
 70
     2
  0
LAYER
  2
FOREGROUND
 70
    64
 62
     7
  6
CONTINUOUS
  0
LAYER
  2
BACKGROUND
 70
    65
 62
    -7
  6
CONTINUOUS
  0
ENDTAB
  0
ENDSEC
  0
SECTION
  2
ENTITIES
  0
POLYLINE
  8
FOREGROUND
  6
CONTINUOUS
 66
     1
 40
0.010000
 41
0.010000
 70
     1
  0
VERTEX
  8
FOREGROUND
  6
CONTINUOUS
 10
2.890000
 20
0.050000
  0
VERTEX
  8
FOREGROUND
  6
CONTINUOUS
 10
2.915465
 20
0.050468
  0
VERTEX
  8
FOREGROUND
  6
CONTINUOUS
 10
2.940704
 20
0.051820
  0
VERTEX
  8
FOREGROUND
  6
CONTINUOUS
 10
2.965701
 20
0.054042
  0
VERTEX
  8
FOREGROUND
  6
CONTINUOUS
 10
2.990442
 20
0.057119
  0
VERTEX
  8
FOREGROUND
  6
CONTINUOUS
 10
3.014912
 20
0.061035
  0
VERTEX
  8
FOREGROUND
  6
CONTINUOUS
 10
3.039095
 20
0.065776
  0
VERTEX
  8
FOREGROUND
  6
CONTINUOUS
 10
3.062978
 20
0.071327
  0
VERTEX
  8
FOREGROUND
  6
CONTINUOUS
 10
3.086544
 20
0.077673
  0
VERTEX
  8
FOREGROUND
  6
CONTINUOUS
 10
3.109779
 20
0.084799
  0
VERTEX
  8
FOREGROUND
  6
CONTINUOUS
 10
3.132668
 20
0.092689
  0
VERTEX
  8
FOREGROUND
  6
CONTINUOUS
 10
3.155196
 20
0.101330
  0
VERTEX
  8
FOREGROUND
  6
CONTINUOUS
 10
3.177348
 20
0.110706
  0
VERTEX
  8
FOREGROUND
  6
CONTINUOUS
 10
3.199109
 20
0.120802
  0
VERTEX
  8
FOREGROUND
  6
CONTINUOUS
 10
3.220465
 20
0.131603
  0
VERTEX
  8
FOREGROUND
  6
CONTINUOUS
 10
3.241399
 20
0.143094
  0
VERTEX
  8
FOREGROUND
  6
CONTINUOUS
 10
3.261898
 20
0.155260
  0
VERTEX
  8
FOREGROUND
  6
CONTINUOUS
 10
3.281946
 20
0.168086
  0
VERTEX
  8
FOREGROUND
  6
CONTINUOUS
 10
3.301528
 20
0.181558
  0
VERTEX
  8
FOREGROUND
  6
CONTINUOUS
 10
3.320629
 20
0.195660
  0
VERTEX
  8
FOREGROUND
  6
CONTINUOUS
 10
3.339235
 20
0.210377
  0
VERTEX
  8
FOREGROUND
  6
CONTINUOUS
 10
3.357330
 20
0.225695
  0
VERTEX
  8
FOREGROUND
  6
CONTINUOUS
 10
3.374900
 20
0.241598
  0
VERTEX
  8
FOREGROUND
  6
CONTINUOUS
 10
3.391929
 20
0.258071
  0
VERTEX
  8
FOREGROUND
  6
CONTINUOUS
 10
3.408402
 20
0.275100
  0
VERTEX
  8
FOREGROUND
  6
CONTINUOUS
 10
3.424305
 20
0.292670
  0
VERTEX
  8
FOREGROUND
  6
CONTINUOUS
 10
3.439623
 20
0.310765
  0
VERTEX
  8
FOREGROUND
  6
CONTINUOUS
 10
3.454340
 20
0.329371
  0
VERTEX
  8
FOREGROUND
  6
CONTINUOUS
 10
3.468442
 20
0.348472
  0
VERTEX
  8
FOREGROUND
  6
CONTINUOUS
 10
3.481914
 20
0.368054
  0
VERTEX
  8
FOREGROUND
  6
CONTINUOUS
 10
3.494740
 20
0.388102
  0
VERTEX
  8
FOREGROUND
  6
CONTINUOUS
 10
3.506906
 20
0.408601
  0
VERTEX
  8
FOREGROUND
  6
CONTINUOUS
 10
3.518397
 20
0.429535
  0
VERTEX
  8
FOREGROUND
  6
CONTINUOUS
 10
3.529198
 20
0.450891
  0
VERTEX
  8
FOREGROUND
  6
CONTINUOUS
 10
3.539294
 20
0.472652
  0
VERTEX
  8
FOREGROUND
  6
CONTINUOUS
 10
3.548670
 20
0.494804
  0
VERTEX
  8
FOREGROUND
  6
CONTINUOUS
 10
3.557311
 20
0.517332
  0
VERTEX
  8
FOREGROUND
  6
CONTINUOUS
 10
3.565201
 20
0.540221
  0
VERTEX
  8
FOREGROUND
  6
CONTINUOUS
 10
3.572327
 20
0.563456
  0
VERTEX
  8
FOREGROUND
  6
CONTINUOUS
 10
3.578673
 20
0.587022
  0
VERTEX
  8
FOREGROUND
  6
CONTINUOUS
 10
3.584224
 20
0.610905
  0
VERTEX
  8
FOREGROUND
  6
CONTINUOUS
 10
3.588965
 20
0.635088
  0
VERTEX
  8
FOREGROUND
  6
CONTINUOUS
 10
3.592881
 20
0.659558
  0
VERTEX
  8
FOREGROUND
  6
CONTINUOUS
 10
3.595958
 20
0.684299
  0
VERTEX
  8
FOREGROUND
  6
CONTINUOUS
 10
3.598180
 20
0.709296
  0
VERTEX
  8
FOREGROUND
  6
CONTINUOUS
 10
3.599532
 20
0.734535
  0
VERTEX
  8
FOREGROUND
  6
CONTINUOUS
 10
3.600000
 20
0.760000
  0
VERTEX
  8
FOREGROUND
  6
CONTINUOUS
 10
3.600000
 20
2.895000
  0
VERTEX
  8
FOREGROUND
  6
CONTINUOUS
 10
3.599532
 20
2.920468
  0
VERTEX
  8
FOREGROUND
  6
CONTINUOUS
 10
3.598180
 20
2.945710
  0
VERTEX
  8
FOREGROUND
  6
CONTINUOUS
 10
3.595957
 20
2.970711
  0
VERTEX
  8
FOREGROUND
  6
CONTINUOUS
 10
3.592880
 20
2.995455
  0
VERTEX
  8
FOREGROUND
  6
CONTINUOUS
 10
3.588962
 20
3.019927
  0
VERTEX
  8
FOREGROUND
  6
CONTINUOUS
 10
3.584220
 20
3.044114
  0
VERTEX
  8
FOREGROUND
  6
CONTINUOUS
 10
3.578668
 20
3.067999
  0
VERTEX
  8
FOREGROUND
  6
CONTINUOUS
 10
3.572320
 20
3.091567
  0
VERTEX
  8
FOREGROUND
  6
CONTINUOUS
 10
3.565193
 20
3.114805
  0
VERTEX
  8
FOREGROUND
  6
CONTINUOUS
 10
3.557300
 20
3.137697
  0
VERTEX
  8
FOREGROUND
  6
CONTINUOUS
 10
3.548658
 20
3.160227
  0
VERTEX
  8
FOREGROUND
  6
CONTINUOUS
 10
3.539280
 20
3.182381
  0
VERTEX
  8
FOREGROUND
  6
CONTINUOUS
 10
3.529182
 20
3.204144
  0
VERTEX
  8
FOREGROUND
  6
CONTINUOUS
 10
3.518378
 20
3.225501
  0
VERTEX
  8
FOREGROUND
  6
CONTINUOUS
 10
3.506885
 20
3.246438
  0
VERTEX
  8
FOREGROUND
  6
CONTINUOUS
 10
3.494716
 20
3.266938
  0
VERTEX
  8
FOREGROUND
  6
CONTINUOUS
 10
3.481887
 20
3.286987
  0
VERTEX
  8
FOREGROUND
  6
CONTINUOUS
 10
3.468412
 20
3.306570
  0
VERTEX
  8
FOREGROUND
  6
CONTINUOUS
 10
3.454307
 20
3.325673
  0
VERTEX
  8
FOREGROUND
  6
CONTINUOUS
 10
3.439586
 20
3.344280
  0
VERTEX
  8
FOREGROUND
  6
CONTINUOUS
 10
3.424266
 20
3.362376
  0
VERTEX
  8
FOREGROUND
  6
CONTINUOUS
 10
3.408359
 20
3.379946
  0
VERTEX
  8
FOREGROUND
  6
CONTINUOUS
 10
3.391882
 20
3.396975
  0
VERTEX
  8
FOREGROUND
  6
CONTINUOUS
 10
3.374850
 20
3.413449
  0
VERTEX
  8
FOREGROUND
  6
CONTINUOUS
 10
3.357276
 20
3.429352
  0
VERTEX
  8
FOREGROUND
  6
CONTINUOUS
 10
3.339178
 20
3.444670
  0
VERTEX
  8
FOREGROUND
  6
CONTINUOUS
 10
3.320568
 20
3.459387
  0
VERTEX
  8
FOREGROUND
  6
CONTINUOUS
 10
3.301463
 20
3.473488
  0
VERTEX
  8
FOREGROUND
  6
CONTINUOUS
 10
3.281877
 20
3.486959
  0
VERTEX
  8
FOREGROUND
  6
CONTINUOUS
 10
3.261826
 20
3.499785
  0
VERTEX
  8
FOREGROUND
  6
CONTINUOUS
 10
3.241323
 20
3.511950
  0
VERTEX
  8
FOREGROUND
  6
CONTINUOUS
 10
3.220385
 20
3.523440
  0
VERTEX
  8
FOREGROUND
  6
CONTINUOUS
 10
3.199026
 20
3.534239
  0
VERTEX
  8
FOREGROUND
  6
CONTINUOUS
 10
3.177261
 20
3.544333
  0
VERTEX
  8
FOREGROUND
  6
CONTINUOUS
 10
3.155105
 20
3.553707
  0
VERTEX
  8
FOREGROUND
  6
CONTINUOUS
 10
3.132573
 20
3.562345
  0
VERTEX
  8
FOREGROUND
  6
CONTINUOUS
 10
3.109680
 20
3.570234
  0
VERTEX
  8
FOREGROUND
  6
CONTINUOUS
 10
3.086441
 20
3.577357
  0
VERTEX
  8
FOREGROUND
  6
CONTINUOUS
 10
3.062871
 20
3.583700
  0
VERTEX
  8
FOREGROUND
  6
CONTINUOUS
 10
3.038985
 20
3.589248
  0
VERTEX
  8
FOREGROUND
  6
CONTINUOUS
 10
3.014798
 20
3.593985
  0
VERTEX
  8
FOREGROUND
  6
CONTINUOUS
 10
2.990324
 20
3.597898
  0
VERTEX
  8
FOREGROUND
  6
CONTINUOUS
 10
2.965580
 20
3.600971
  0
VERTEX
  8
FOREGROUND
  6
CONTINUOUS
 10
2.940579
 20
3.603189
  0
VERTEX
  8
FOREGROUND
  6
CONTINUOUS
 10
2.915337
 20
3.604537
  0
VERTEX
  8
FOREGROUND
  6
CONTINUOUS
 10
2.889868
 20
3.605000
  0
VERTEX
  8
FOREGROUND
  6
CONTINUOUS
 10
0.759868
 20
3.605000
  0
VERTEX
  8
FOREGROUND
  6
CONTINUOUS
 10
0.734407
 20
3.604528
  0
VERTEX
  8
FOREGROUND
  6
CONTINUOUS
 10
0.709172
 20
3.603171
  0
VERTEX
  8
FOREGROUND
  6
CONTINUOUS
 10
0.684178
 20
3.600945
  0
VERTEX
  8
FOREGROUND
  6
CONTINUOUS
 10
0.659441
 20
3.597865
  0
VERTEX
  8
FOREGROUND
  6
CONTINUOUS
 10
0.634974
 20
3.593945
  0
VERTEX
  8
FOREGROUND
  6
CONTINUOUS
 10
0.610795
 20
3.589200
  0
VERTEX
  8
FOREGROUND
  6
CONTINUOUS
 10
0.586916
 20
3.583646
  0
VERTEX
  8
FOREGROUND
  6
CONTINUOUS
 10
0.563354
 20
3.577297
  0
VERTEX
  8
FOREGROUND
  6
CONTINUOUS
 10
0.540122
 20
3.570169
  0
VERTEX
  8
FOREGROUND
  6
CONTINUOUS
 10
0.517237
 20
3.562276
  0
VERTEX
  8
FOREGROUND
  6
CONTINUOUS
 10
0.494713
 20
3.553633
  0
VERTEX
  8
FOREGROUND
  6
CONTINUOUS
 10
0.472564
 20
3.544255
  0
VERTEX
  8
FOREGROUND
  6
CONTINUOUS
 10
0.450807
 20
3.534158
  0
VERTEX
  8
FOREGROUND
  6
CONTINUOUS
 10
0.429456
 20
3.523355
  0
VERTEX
  8
FOREGROUND
  6
CONTINUOUS
 10
0.408525
 20
3.511863
  0
VERTEX
  8
FOREGROUND
  6
CONTINUOUS
 10
0.388030
 20
3.499696
  0
VERTEX
  8
FOREGROUND
  6
CONTINUOUS
 10
0.367986
 20
3.486869
  0
VERTEX
  8
FOREGROUND
  6
CONTINUOUS
 10
0.348408
 20
3.473396
  0
VERTEX
  8
FOREGROUND
  6
CONTINUOUS
 10
0.329310
 20
3.459294
  0
VERTEX
  8
FOREGROUND
  6
CONTINUOUS
 10
0.310708
 20
3.444576
  0
VERTEX
  8
FOREGROUND
  6
CONTINUOUS
 10
0.292616
 20
3.429258
  0
VERTEX
  8
FOREGROUND
  6
CONTINUOUS
 10
0.275050
 20
3.413355
  0
VERTEX
  8
FOREGROUND
  6
CONTINUOUS
 10
0.258025
 20
3.396882
  0
VERTEX
  8
FOREGROUND
  6
CONTINUOUS
 10
0.241555
 20
3.379854
  0
VERTEX
  8
FOREGROUND
  6
CONTINUOUS
 10
0.225655
 20
3.362285
  0
VERTEX
  8
FOREGROUND
  6
CONTINUOUS
 10
0.210341
 20
3.344190
  0
VERTEX
  8
FOREGROUND
  6
CONTINUOUS
 10
0.195626
 20
3.325585
  0
VERTEX
  8
FOREGROUND
  6
CONTINUOUS
 10
0.181527
 20
3.306485
  0
VERTEX
  8
FOREGROUND
  6
CONTINUOUS
 10
0.168059
 20
3.286904
  0
VERTEX
  8
FOREGROUND
  6
CONTINUOUS
 10
0.155235
 20
3.266858
  0
VERTEX
  8
FOREGROUND
  6
CONTINUOUS
 10
0.143072
 20
3.246361
  0
VERTEX
  8
FOREGROUND
  6
CONTINUOUS
 10
0.131583
 20
3.225428
  0
VERTEX
  8
FOREGROUND
  6
CONTINUOUS
 10
0.120785
 20
3.204074
  0
VERTEX
  8
FOREGROUND
  6
CONTINUOUS
 10
0.110691
 20
3.182315
  0
VERTEX
  8
FOREGROUND
  6
CONTINUOUS
 10
0.101318
 20
3.160165
  0
VERTEX
  8
FOREGROUND
  6
CONTINUOUS
 10
0.092679
 20
3.137639
  0
VERTEX
  8
FOREGROUND
  6
CONTINUOUS
 10
0.084790
 20
3.114753
  0
VERTEX
  8
FOREGROUND
  6
CONTINUOUS
 10
0.077666
 20
3.091520
  0
VERTEX
  8
FOREGROUND
  6
CONTINUOUS
 10
0.071322
 20
3.067956
  0
VERTEX
  8
FOREGROUND
  6
CONTINUOUS
 10
0.065772
 20
3.044077
  0
VERTEX
  8
FOREGROUND
  6
CONTINUOUS
 10
0.061032
 20
3.019896
  0
VERTEX
  8
FOREGROUND
  6
CONTINUOUS
 10
0.057117
 20
2.995429
  0
VERTEX
  8
FOREGROUND
  6
CONTINUOUS
 10
0.054041
 20
2.970691
  0
VERTEX
  8
FOREGROUND
  6
CONTINUOUS
 10
0.051820
 20
2.945697
  0
VERTEX
  8
FOREGROUND
  6
CONTINUOUS
 10
0.050468
 20
2.920462
  0
VERTEX
  8
FOREGROUND
  6
CONTINUOUS
 10
0.050000
 20
2.895000
  0
VERTEX
  8
FOREGROUND
  6
CONTINUOUS
 10
0.050000
 20
0.760000
  0
VERTEX
  8
FOREGROUND
  6
CONTINUOUS
 10
0.050468
 20
0.734535
  0
VERTEX
  8
FOREGROUND
  6
CONTINUOUS
 10
0.051820
 20
0.709296
  0
VERTEX
  8
FOREGROUND
  6
CONTINUOUS
 10
0.054042
 20
0.684299
  0
VERTEX
  8
FOREGROUND
  6
CONTINUOUS
 10
0.057119
 20
0.659558
  0
VERTEX
  8
FOREGROUND
  6
CONTINUOUS
 10
0.061035
 20
0.635088
  0
VERTEX
  8
FOREGROUND
  6
CONTINUOUS
 10
0.065776
 20
0.610905
  0
VERTEX
  8
FOREGROUND
  6
CONTINUOUS
 10
0.071327
 20
0.587022
  0
VERTEX
  8
FOREGROUND
  6
CONTINUOUS
 10
0.077673
 20
0.563456
  0
VERTEX
  8
FOREGROUND
  6
CONTINUOUS
 10
0.084799
 20
0.540221
  0
VERTEX
  8
FOREGROUND
  6
CONTINUOUS
 10
0.092689
 20
0.517332
  0
VERTEX
  8
FOREGROUND
  6
CONTINUOUS
 10
0.101330
 20
0.494804
  0
VERTEX
  8
FOREGROUND
  6
CONTINUOUS
 10
0.110706
 20
0.472652
  0
VERTEX
  8
FOREGROUND
  6
CONTINUOUS
 10
0.120802
 20
0.450891
  0
VERTEX
  8
FOREGROUND
  6
CONTINUOUS
 10
0.131603
 20
0.429535
  0
VERTEX
  8
FOREGROUND
  6
CONTINUOUS
 10
0.143094
 20
0.408601
  0
VERTEX
  8
FOREGROUND
  6
CONTINUOUS
 10
0.155260
 20
0.388102
  0
VERTEX
  8
FOREGROUND
  6
CONTINUOUS
 10
0.168086
 20
0.368054
  0
VERTEX
  8
FOREGROUND
  6
CONTINUOUS
 10
0.181558
 20
0.348472
  0
VERTEX
  8
FOREGROUND
  6
CONTINUOUS
 10
0.195660
 20
0.329371
  0
VERTEX
  8
FOREGROUND
  6
CONTINUOUS
 10
0.210377
 20
0.310765
  0
VERTEX
  8
FOREGROUND
  6
CONTINUOUS
 10
0.225695
 20
0.292670
  0
VERTEX
  8
FOREGROUND
  6
CONTINUOUS
 10
0.241598
 20
0.275100
  0
VERTEX
  8
FOREGROUND
  6
CONTINUOUS
 10
0.258071
 20
0.258071
  0
VERTEX
  8
FOREGROUND
  6
CONTINUOUS
 10
0.275100
 20
0.241598
  0
VERTEX
  8
FOREGROUND
  6
CONTINUOUS
 10
0.292670
 20
0.225695
  0
VERTEX
  8
FOREGROUND
  6
CONTINUOUS
 10
0.310765
 20
0.210377
  0
VERTEX
  8
FOREGROUND
  6
CONTINUOUS
 10
0.329371
 20
0.195660
  0
VERTEX
  8
FOREGROUND
  6
CONTINUOUS
 10
0.348472
 20
0.181558
  0
VERTEX
  8
FOREGROUND
  6
CONTINUOUS
 10
0.368054
 20
0.168086
  0
VERTEX
  8
FOREGROUND
  6
CONTINUOUS
 10
0.388102
 20
0.155260
  0
VERTEX
  8
FOREGROUND
  6
CONTINUOUS
 10
0.408601
 20
0.143094
  0
VERTEX
  8
FOREGROUND
  6
CONTINUOUS
 10
0.429535
 20
0.131603
  0
VERTEX
  8
FOREGROUND
  6
CONTINUOUS
 10
0.450891
 20
0.120802
  0
VERTEX
  8
FOREGROUND
  6
CONTINUOUS
 10
0.472652
 20
0.110706
  0
VERTEX
  8
FOREGROUND
  6
CONTINUOUS
 10
0.494804
 20
0.101330
  0
VERTEX
  8
FOREGROUND
  6
CONTINUOUS
 10
0.517332
 20
0.092689
  0
VERTEX
  8
FOREGROUND
  6
CONTINUOUS
 10
0.540221
 20
0.084799
  0
VERTEX
  8
FOREGROUND
  6
CONTINUOUS
 10
0.563456
 20
0.077673
  0
VERTEX
  8
FOREGROUND
  6
CONTINUOUS
 10
0.587022
 20
0.071327
  0
VERTEX
  8
FOREGROUND
  6
CONTINUOUS
 10
0.610905
 20
0.065776
  0
VERTEX
  8
FOREGROUND
  6
CONTINUOUS
 10
0.635088
 20
0.061035
  0
VERTEX
  8
FOREGROUND
  6
CONTINUOUS
 10
0.659558
 20
0.057119
  0
VERTEX
  8
FOREGROUND
  6
CONTINUOUS
 10
0.684299
 20
0.054042
  0
VERTEX
  8
FOREGROUND
  6
CONTINUOUS
 10
0.709296
 20
0.051820
  0
VERTEX
  8
FOREGROUND
  6
CONTINUOUS
 10
0.734535
 20
0.050468
  0
VERTEX
  8
FOREGROUND
  6
CONTINUOUS
 10
0.760000
 20
0.050000
  0
SEQEND
  8
0
  0
ENDSEC
  0
EOF
