  0
SECTION
  2
HEADER
  9
$ACADVER
  1
AC1006
  9
$EXTMIN
 10
0.000000
 20
0.000000
  9
$EXTMAX
 10
0.698333
 20
0.693333
  9
$LTSCALE
 40
0.166667
  9
$PDMODE
 70
    35
  9
$PDSIZE
 40
0.133333
  0
ENDSEC
  0
SECTION
  2
TABLES
  0
TABLE
  2
LTYPE
 70
     9
  0
LTYPE
  2
CONTINUOUS
 70
    64
  3
Solid line
 72
    65
 73
     0
 40
0.000000
  0
LTYPE
  2
DASHED
 70
    64
  3
__ __ __ __ __ __ __ __ __ __ __ __ __ __ __
 72
    65
 73
     2
 40
0.001250
 49
0.000833
 49
-0.000417
  0
LTYPE
  2
HIDDEN
 70
    64
  3
 _ _ _ _ _ _ _ _ _ _ _ _ _ _ _ _ _ _ _ _ _ _
 72
    65
 73
     2
 40
0.000625
 49
0.000417
 49
-0.000208
  0
LTYPE
  2
CENTER
 70
    64
  3
____ _ ____ _ ____ _ ____ _ ____ _ ____ _ ____
 72
    65
 73
     4
 40
0.003333
 49
0.002083
 49
-0.000417
 49
0.000417
 49
-0.000417
  0
LTYPE
  2
PHANTOM
 70
    64
  3
_____ _ _ _____ _ _ _____ _ _ _____ _ _ ____
 72
    65
 73
     6
 40
0.004167
 49
0.002083
 49
-0.000417
 49
0.000417
 49
-0.000417
 49
0.000417
 49
-0.000417
  0
LTYPE
  2
DOT
 70
    64
  3
...............................................
 72
    65
 73
     2
 40
0.000417
 49
0.000000
 49
-0.000417
  0
LTYPE
  2
DASHDOT
 70
    64
  3
__ . __ . __ . __ . __ . __ . __ . __ . __ . __
 72
    65
 73
     4
 40
0.001667
 49
0.000833
 49
-0.000417
 49
0.000000
 49
-0.000417
  0
LTYPE
  2
BORDER
 70
    64
  3
__ __ . __ __ . __ __ . __ __ . __ __ . __ __
 72
    65
 73
     6
 40
0.002917
 49
0.000833
 49
-0.000417
 49
0.000833
 49
-0.000417
 49
0.000000
 49
-0.000417
  0
LTYPE
  2
DIVIDE
 70
    64
  3
__ . . __ . . __ . . __ . . __ . . __ . . __
 72
    65
 73
     6
 40
0.002083
 49
0.000833
 49
-0.000417
 49
0.000000
 49
-0.000417
 49
0.000000
 49
-0.000417
  0
LTYPE
  2
DOTDOT
 70
    64
  3
 . .  . .  . .  . .  . .  . . 
 72
    65
 73
     5
 40
0.000917
 49
-0.000417
 49
0.000000
 49
-0.000417
 49
0.000000
 49
-0.000417
  0
ENDTAB
  0
TABLE
  2
STYLE
 70
     2
  0
STYLE
 70
     0
  2
SN0
 40
0.000000
 41
0.001667
 50
0.000000
 71
     0
 42
0.000000
  3
ROMAND
  0
STYLE
 70
    68
  2
SV0
 40
0.000000
 41
0.001667
 50
0.000000
 71
     0
 42
0.000000
  3
ROMAND
  0
ENDTAB
  0
TABLE
  2
LAYER
 70
     2
  0
LAYER
  2
FOREGROUND
 70
    64
 62
     7
  6
CONTINUOUS
  0
LAYER
  2
BACKGROUND
 70
    65
 62
    -7
  6
CONTINUOUS
  0
ENDTAB
  0
ENDSEC
  0
SECTION
  2
ENTITIES
  0
POLYLINE
  8
FOREGROUND
  6
CONTINUOUS
 66
     1
 40
0.010000
 41
0.010000
 70
     1
  0
VERTEX
  8
FOREGROUND
  6
CONTINUOUS
 10
0.646667
 20
0.346667
  0
VERTEX
  8
FOREGROUND
  6
CONTINUOUS
 10
0.646641
 20
0.350889
  0
VERTEX
  8
FOREGROUND
  6
CONTINUOUS
 10
0.646569
 20
0.355082
  0
VERTEX
  8
FOREGROUND
  6
CONTINUOUS
 10
0.646453
 20
0.359244
  0
VERTEX
  8
FOREGROUND
  6
CONTINUOUS
 10
0.646292
 20
0.363376
  0
VERTEX
  8
FOREGROUND
  6
CONTINUOUS
 10
0.646087
 20
0.367478
  0
VERTEX
  8
FOREGROUND
  6
CONTINUOUS
 10
0.645838
 20
0.371549
  0
VERTEX
  8
FOREGROUND
  6
CONTINUOUS
 10
0.645545
 20
0.375590
  0
VERTEX
  8
FOREGROUND
  6
CONTINUOUS
 10
0.645209
 20
0.379601
  0
VERTEX
  8
FOREGROUND
  6
CONTINUOUS
 10
0.644830
 20
0.383582
  0
VERTEX
  8
FOREGROUND
  6
CONTINUOUS
 10
0.644408
 20
0.387532
  0
VERTEX
  8
FOREGROUND
  6
CONTINUOUS
 10
0.643944
 20
0.391452
  0
VERTEX
  8
FOREGROUND
  6
CONTINUOUS
 10
0.643438
 20
0.395342
  0
VERTEX
  8
FOREGROUND
  6
CONTINUOUS
 10
0.642890
 20
0.399202
  0
VERTEX
  8
FOREGROUND
  6
CONTINUOUS
 10
0.642301
 20
0.403031
  0
VERTEX
  8
FOREGROUND
  6
CONTINUOUS
 10
0.641671
 20
0.406830
  0
VERTEX
  8
FOREGROUND
  6
CONTINUOUS
 10
0.641000
 20
0.410599
  0
VERTEX
  8
FOREGROUND
  6
CONTINUOUS
 10
0.640289
 20
0.414337
  0
VERTEX
  8
FOREGROUND
  6
CONTINUOUS
 10
0.639538
 20
0.418045
  0
VERTEX
  8
FOREGROUND
  6
CONTINUOUS
 10
0.638747
 20
0.421723
  0
VERTEX
  8
FOREGROUND
  6
CONTINUOUS
 10
0.637916
 20
0.425371
  0
VERTEX
  8
FOREGROUND
  6
CONTINUOUS
 10
0.637047
 20
0.428988
  0
VERTEX
  8
FOREGROUND
  6
CONTINUOUS
 10
0.636138
 20
0.432575
  0
VERTEX
  8
FOREGROUND
  6
CONTINUOUS
 10
0.635192
 20
0.436132
  0
VERTEX
  8
FOREGROUND
  6
CONTINUOUS
 10
0.634207
 20
0.439659
  0
VERTEX
  8
FOREGROUND
  6
CONTINUOUS
 10
0.633185
 20
0.443155
  0
VERTEX
  8
FOREGROUND
  6
CONTINUOUS
 10
0.632125
 20
0.446621
  0
VERTEX
  8
FOREGROUND
  6
CONTINUOUS
 10
0.631028
 20
0.450057
  0
VERTEX
  8
FOREGROUND
  6
CONTINUOUS
 10
0.629894
 20
0.453462
  0
VERTEX
  8
FOREGROUND
  6
CONTINUOUS
 10
0.628723
 20
0.456838
  0
VERTEX
  8
FOREGROUND
  6
CONTINUOUS
 10
0.627517
 20
0.460183
  0
VERTEX
  8
FOREGROUND
  6
CONTINUOUS
 10
0.626274
 20
0.463497
  0
VERTEX
  8
FOREGROUND
  6
CONTINUOUS
 10
0.624997
 20
0.466782
  0
VERTEX
  8
FOREGROUND
  6
CONTINUOUS
 10
0.623684
 20
0.470036
  0
VERTEX
  8
FOREGROUND
  6
CONTINUOUS
 10
0.622336
 20
0.473260
  0
VERTEX
  8
FOREGROUND
  6
CONTINUOUS
 10
0.620954
 20
0.476453
  0
VERTEX
  8
FOREGROUND
  6
CONTINUOUS
 10
0.619537
 20
0.479617
  0
VERTEX
  8
FOREGROUND
  6
CONTINUOUS
 10
0.618087
 20
0.482750
  0
VERTEX
  8
FOREGROUND
  6
CONTINUOUS
 10
0.616603
 20
0.485853
  0
VERTEX
  8
FOREGROUND
  6
CONTINUOUS
 10
0.615085
 20
0.488925
  0
VERTEX
  8
FOREGROUND
  6
CONTINUOUS
 10
0.613535
 20
0.491968
  0
VERTEX
  8
FOREGROUND
  6
CONTINUOUS
 10
0.611953
 20
0.494980
  0
VERTEX
  8
FOREGROUND
  6
CONTINUOUS
 10
0.610338
 20
0.497961
  0
VERTEX
  8
FOREGROUND
  6
CONTINUOUS
 10
0.608691
 20
0.500913
  0
VERTEX
  8
FOREGROUND
  6
CONTINUOUS
 10
0.607013
 20
0.503834
  0
VERTEX
  8
FOREGROUND
  6
CONTINUOUS
 10
0.605303
 20
0.506725
  0
VERTEX
  8
FOREGROUND
  6
CONTINUOUS
 10
0.603563
 20
0.509586
  0
VERTEX
  8
FOREGROUND
  6
CONTINUOUS
 10
0.601792
 20
0.512416
  0
VERTEX
  8
FOREGROUND
  6
CONTINUOUS
 10
0.599990
 20
0.515216
  0
VERTEX
  8
FOREGROUND
  6
CONTINUOUS
 10
0.598159
 20
0.517986
  0
VERTEX
  8
FOREGROUND
  6
CONTINUOUS
 10
0.596298
 20
0.520725
  0
VERTEX
  8
FOREGROUND
  6
CONTINUOUS
 10
0.594407
 20
0.523435
  0
VERTEX
  8
FOREGROUND
  6
CONTINUOUS
 10
0.592488
 20
0.526114
  0
VERTEX
  8
FOREGROUND
  6
CONTINUOUS
 10
0.590540
 20
0.528763
  0
VERTEX
  8
FOREGROUND
  6
CONTINUOUS
 10
0.588564
 20
0.531381
  0
VERTEX
  8
FOREGROUND
  6
CONTINUOUS
 10
0.586560
 20
0.533969
  0
VERTEX
  8
FOREGROUND
  6
CONTINUOUS
 10
0.584528
 20
0.536527
  0
VERTEX
  8
FOREGROUND
  6
CONTINUOUS
 10
0.582468
 20
0.539055
  0
VERTEX
  8
FOREGROUND
  6
CONTINUOUS
 10
0.580382
 20
0.541552
  0
VERTEX
  8
FOREGROUND
  6
CONTINUOUS
 10
0.578269
 20
0.544020
  0
VERTEX
  8
FOREGROUND
  6
CONTINUOUS
 10
0.576129
 20
0.546457
  0
VERTEX
  8
FOREGROUND
  6
CONTINUOUS
 10
0.573964
 20
0.548863
  0
VERTEX
  8
FOREGROUND
  6
CONTINUOUS
 10
0.571773
 20
0.551239
  0
VERTEX
  8
FOREGROUND
  6
CONTINUOUS
 10
0.569556
 20
0.553586
  0
VERTEX
  8
FOREGROUND
  6
CONTINUOUS
 10
0.567314
 20
0.555901
  0
VERTEX
  8
FOREGROUND
  6
CONTINUOUS
 10
0.565048
 20
0.558187
  0
VERTEX
  8
FOREGROUND
  6
CONTINUOUS
 10
0.562757
 20
0.560442
  0
VERTEX
  8
FOREGROUND
  6
CONTINUOUS
 10
0.560442
 20
0.562667
  0
VERTEX
  8
FOREGROUND
  6
CONTINUOUS
 10
0.558103
 20
0.564862
  0
VERTEX
  8
FOREGROUND
  6
CONTINUOUS
 10
0.555741
 20
0.567026
  0
VERTEX
  8
FOREGROUND
  6
CONTINUOUS
 10
0.553356
 20
0.569161
  0
VERTEX
  8
FOREGROUND
  6
CONTINUOUS
 10
0.550948
 20
0.571265
  0
VERTEX
  8
FOREGROUND
  6
CONTINUOUS
 10
0.548517
 20
0.573338
  0
VERTEX
  8
FOREGROUND
  6
CONTINUOUS
 10
0.546064
 20
0.575382
  0
VERTEX
  8
FOREGROUND
  6
CONTINUOUS
 10
0.543590
 20
0.577395
  0
VERTEX
  8
FOREGROUND
  6
CONTINUOUS
 10
0.541094
 20
0.579378
  0
VERTEX
  8
FOREGROUND
  6
CONTINUOUS
 10
0.538577
 20
0.581330
  0
VERTEX
  8
FOREGROUND
  6
CONTINUOUS
 10
0.536039
 20
0.583252
  0
VERTEX
  8
FOREGROUND
  6
CONTINUOUS
 10
0.533480
 20
0.585144
  0
VERTEX
  8
FOREGROUND
  6
CONTINUOUS
 10
0.530901
 20
0.587006
  0
VERTEX
  8
FOREGROUND
  6
CONTINUOUS
 10
0.528303
 20
0.588838
  0
VERTEX
  8
FOREGROUND
  6
CONTINUOUS
 10
0.525685
 20
0.590639
  0
VERTEX
  8
FOREGROUND
  6
CONTINUOUS
 10
0.523047
 20
0.592410
  0
VERTEX
  8
FOREGROUND
  6
CONTINUOUS
 10
0.520391
 20
0.594151
  0
VERTEX
  8
FOREGROUND
  6
CONTINUOUS
 10
0.517716
 20
0.595861
  0
VERTEX
  8
FOREGROUND
  6
CONTINUOUS
 10
0.515023
 20
0.597541
  0
VERTEX
  8
FOREGROUND
  6
CONTINUOUS
 10
0.512312
 20
0.599191
  0
VERTEX
  8
FOREGROUND
  6
CONTINUOUS
 10
0.509584
 20
0.600811
  0
VERTEX
  8
FOREGROUND
  6
CONTINUOUS
 10
0.506838
 20
0.602400
  0
VERTEX
  8
FOREGROUND
  6
CONTINUOUS
 10
0.504075
 20
0.603959
  0
VERTEX
  8
FOREGROUND
  6
CONTINUOUS
 10
0.501296
 20
0.605488
  0
VERTEX
  8
FOREGROUND
  6
CONTINUOUS
 10
0.498500
 20
0.606986
  0
VERTEX
  8
FOREGROUND
  6
CONTINUOUS
 10
0.495689
 20
0.608455
  0
VERTEX
  8
FOREGROUND
  6
CONTINUOUS
 10
0.492862
 20
0.609893
  0
VERTEX
  8
FOREGROUND
  6
CONTINUOUS
 10
0.490019
 20
0.611300
  0
VERTEX
  8
FOREGROUND
  6
CONTINUOUS
 10
0.487162
 20
0.612678
  0
VERTEX
  8
FOREGROUND
  6
CONTINUOUS
 10
0.484289
 20
0.614025
  0
VERTEX
  8
FOREGROUND
  6
CONTINUOUS
 10
0.481403
 20
0.615342
  0
VERTEX
  8
FOREGROUND
  6
CONTINUOUS
 10
0.478502
 20
0.616628
  0
VERTEX
  8
FOREGROUND
  6
CONTINUOUS
 10
0.475588
 20
0.617885
  0
VERTEX
  8
FOREGROUND
  6
CONTINUOUS
 10
0.472661
 20
0.619111
  0
VERTEX
  8
FOREGROUND
  6
CONTINUOUS
 10
0.469720
 20
0.620307
  0
VERTEX
  8
FOREGROUND
  6
CONTINUOUS
 10
0.466767
 20
0.621472
  0
VERTEX
  8
FOREGROUND
  6
CONTINUOUS
 10
0.463801
 20
0.622608
  0
VERTEX
  8
FOREGROUND
  6
CONTINUOUS
 10
0.460824
 20
0.623713
  0
VERTEX
  8
FOREGROUND
  6
CONTINUOUS
 10
0.457834
 20
0.624787
  0
VERTEX
  8
FOREGROUND
  6
CONTINUOUS
 10
0.454834
 20
0.625832
  0
VERTEX
  8
FOREGROUND
  6
CONTINUOUS
 10
0.451822
 20
0.626846
  0
VERTEX
  8
FOREGROUND
  6
CONTINUOUS
 10
0.448799
 20
0.627830
  0
VERTEX
  8
FOREGROUND
  6
CONTINUOUS
 10
0.445766
 20
0.628784
  0
VERTEX
  8
FOREGROUND
  6
CONTINUOUS
 10
0.442723
 20
0.629707
  0
VERTEX
  8
FOREGROUND
  6
CONTINUOUS
 10
0.439670
 20
0.630600
  0
VERTEX
  8
FOREGROUND
  6
CONTINUOUS
 10
0.436608
 20
0.631463
  0
VERTEX
  8
FOREGROUND
  6
CONTINUOUS
 10
0.433536
 20
0.632296
  0
VERTEX
  8
FOREGROUND
  6
CONTINUOUS
 10
0.430456
 20
0.633098
  0
VERTEX
  8
FOREGROUND
  6
CONTINUOUS
 10
0.427367
 20
0.633870
  0
VERTEX
  8
FOREGROUND
  6
CONTINUOUS
 10
0.424271
 20
0.634612
  0
VERTEX
  8
FOREGROUND
  6
CONTINUOUS
 10
0.421166
 20
0.635323
  0
VERTEX
  8
FOREGROUND
  6
CONTINUOUS
 10
0.418054
 20
0.636005
  0
VERTEX
  8
FOREGROUND
  6
CONTINUOUS
 10
0.414934
 20
0.636655
  0
VERTEX
  8
FOREGROUND
  6
CONTINUOUS
 10
0.411808
 20
0.637276
  0
VERTEX
  8
FOREGROUND
  6
CONTINUOUS
 10
0.408676
 20
0.637867
  0
VERTEX
  8
FOREGROUND
  6
CONTINUOUS
 10
0.405537
 20
0.638427
  0
VERTEX
  8
FOREGROUND
  6
CONTINUOUS
 10
0.402392
 20
0.638957
  0
VERTEX
  8
FOREGROUND
  6
CONTINUOUS
 10
0.399242
 20
0.639456
  0
VERTEX
  8
FOREGROUND
  6
CONTINUOUS
 10
0.396086
 20
0.639926
  0
VERTEX
  8
FOREGROUND
  6
CONTINUOUS
 10
0.392926
 20
0.640365
  0
VERTEX
  8
FOREGROUND
  6
CONTINUOUS
 10
0.389761
 20
0.640773
  0
VERTEX
  8
FOREGROUND
  6
CONTINUOUS
 10
0.386592
 20
0.641152
  0
VERTEX
  8
FOREGROUND
  6
CONTINUOUS
 10
0.383419
 20
0.641500
  0
VERTEX
  8
FOREGROUND
  6
CONTINUOUS
 10
0.380242
 20
0.641818
  0
VERTEX
  8
FOREGROUND
  6
CONTINUOUS
 10
0.377062
 20
0.642106
  0
VERTEX
  8
FOREGROUND
  6
CONTINUOUS
 10
0.373879
 20
0.642363
  0
VERTEX
  8
FOREGROUND
  6
CONTINUOUS
 10
0.370694
 20
0.642591
  0
VERTEX
  8
FOREGROUND
  6
CONTINUOUS
 10
0.367506
 20
0.642787
  0
VERTEX
  8
FOREGROUND
  6
CONTINUOUS
 10
0.364316
 20
0.642954
  0
VERTEX
  8
FOREGROUND
  6
CONTINUOUS
 10
0.361125
 20
0.643090
  0
VERTEX
  8
FOREGROUND
  6
CONTINUOUS
 10
0.357933
 20
0.643197
  0
VERTEX
  8
FOREGROUND
  6
CONTINUOUS
 10
0.354739
 20
0.643272
  0
VERTEX
  8
FOREGROUND
  6
CONTINUOUS
 10
0.351545
 20
0.643318
  0
VERTEX
  8
FOREGROUND
  6
CONTINUOUS
 10
0.348350
 20
0.643333
  0
VERTEX
  8
FOREGROUND
  6
CONTINUOUS
 10
0.345156
 20
0.643318
  0
VERTEX
  8
FOREGROUND
  6
CONTINUOUS
 10
0.341961
 20
0.643273
  0
VERTEX
  8
FOREGROUND
  6
CONTINUOUS
 10
0.338768
 20
0.643197
  0
VERTEX
  8
FOREGROUND
  6
CONTINUOUS
 10
0.335575
 20
0.643092
  0
VERTEX
  8
FOREGROUND
  6
CONTINUOUS
 10
0.332384
 20
0.642956
  0
VERTEX
  8
FOREGROUND
  6
CONTINUOUS
 10
0.329194
 20
0.642789
  0
VERTEX
  8
FOREGROUND
  6
CONTINUOUS
 10
0.326006
 20
0.642593
  0
VERTEX
  8
FOREGROUND
  6
CONTINUOUS
 10
0.322821
 20
0.642366
  0
VERTEX
  8
FOREGROUND
  6
CONTINUOUS
 10
0.319638
 20
0.642109
  0
VERTEX
  8
FOREGROUND
  6
CONTINUOUS
 10
0.316458
 20
0.641821
  0
VERTEX
  8
FOREGROUND
  6
CONTINUOUS
 10
0.313281
 20
0.641503
  0
VERTEX
  8
FOREGROUND
  6
CONTINUOUS
 10
0.310108
 20
0.641156
  0
VERTEX
  8
FOREGROUND
  6
CONTINUOUS
 10
0.306939
 20
0.640777
  0
VERTEX
  8
FOREGROUND
  6
CONTINUOUS
 10
0.303774
 20
0.640369
  0
VERTEX
  8
FOREGROUND
  6
CONTINUOUS
 10
0.300614
 20
0.639930
  0
VERTEX
  8
FOREGROUND
  6
CONTINUOUS
 10
0.297458
 20
0.639461
  0
VERTEX
  8
FOREGROUND
  6
CONTINUOUS
 10
0.294308
 20
0.638962
  0
VERTEX
  8
FOREGROUND
  6
CONTINUOUS
 10
0.291163
 20
0.638432
  0
VERTEX
  8
FOREGROUND
  6
CONTINUOUS
 10
0.288024
 20
0.637872
  0
VERTEX
  8
FOREGROUND
  6
CONTINUOUS
 10
0.284891
 20
0.637282
  0
VERTEX
  8
FOREGROUND
  6
CONTINUOUS
 10
0.281765
 20
0.636662
  0
VERTEX
  8
FOREGROUND
  6
CONTINUOUS
 10
0.278646
 20
0.636011
  0
VERTEX
  8
FOREGROUND
  6
CONTINUOUS
 10
0.275533
 20
0.635330
  0
VERTEX
  8
FOREGROUND
  6
CONTINUOUS
 10
0.272429
 20
0.634619
  0
VERTEX
  8
FOREGROUND
  6
CONTINUOUS
 10
0.269332
 20
0.633877
  0
VERTEX
  8
FOREGROUND
  6
CONTINUOUS
 10
0.266243
 20
0.633106
  0
VERTEX
  8
FOREGROUND
  6
CONTINUOUS
 10
0.263163
 20
0.632303
  0
VERTEX
  8
FOREGROUND
  6
CONTINUOUS
 10
0.260091
 20
0.631471
  0
VERTEX
  8
FOREGROUND
  6
CONTINUOUS
 10
0.257029
 20
0.630609
  0
VERTEX
  8
FOREGROUND
  6
CONTINUOUS
 10
0.253976
 20
0.629716
  0
VERTEX
  8
FOREGROUND
  6
CONTINUOUS
 10
0.250932
 20
0.628793
  0
VERTEX
  8
FOREGROUND
  6
CONTINUOUS
 10
0.247899
 20
0.627839
  0
VERTEX
  8
FOREGROUND
  6
CONTINUOUS
 10
0.244877
 20
0.626856
  0
VERTEX
  8
FOREGROUND
  6
CONTINUOUS
 10
0.241865
 20
0.625842
  0
VERTEX
  8
FOREGROUND
  6
CONTINUOUS
 10
0.238864
 20
0.624797
  0
VERTEX
  8
FOREGROUND
  6
CONTINUOUS
 10
0.235874
 20
0.623723
  0
VERTEX
  8
FOREGROUND
  6
CONTINUOUS
 10
0.232896
 20
0.622618
  0
VERTEX
  8
FOREGROUND
  6
CONTINUOUS
 10
0.229931
 20
0.621483
  0
VERTEX
  8
FOREGROUND
  6
CONTINUOUS
 10
0.226977
 20
0.620318
  0
VERTEX
  8
FOREGROUND
  6
CONTINUOUS
 10
0.224037
 20
0.619122
  0
VERTEX
  8
FOREGROUND
  6
CONTINUOUS
 10
0.221109
 20
0.617897
  0
VERTEX
  8
FOREGROUND
  6
CONTINUOUS
 10
0.218195
 20
0.616640
  0
VERTEX
  8
FOREGROUND
  6
CONTINUOUS
 10
0.215294
 20
0.615354
  0
VERTEX
  8
FOREGROUND
  6
CONTINUOUS
 10
0.212408
 20
0.614037
  0
VERTEX
  8
FOREGROUND
  6
CONTINUOUS
 10
0.209535
 20
0.612691
  0
VERTEX
  8
FOREGROUND
  6
CONTINUOUS
 10
0.206678
 20
0.611313
  0
VERTEX
  8
FOREGROUND
  6
CONTINUOUS
 10
0.203835
 20
0.609906
  0
VERTEX
  8
FOREGROUND
  6
CONTINUOUS
 10
0.201008
 20
0.608468
  0
VERTEX
  8
FOREGROUND
  6
CONTINUOUS
 10
0.198196
 20
0.607000
  0
VERTEX
  8
FOREGROUND
  6
CONTINUOUS
 10
0.195400
 20
0.605502
  0
VERTEX
  8
FOREGROUND
  6
CONTINUOUS
 10
0.192621
 20
0.603973
  0
VERTEX
  8
FOREGROUND
  6
CONTINUOUS
 10
0.189858
 20
0.602415
  0
VERTEX
  8
FOREGROUND
  6
CONTINUOUS
 10
0.187112
 20
0.600825
  0
VERTEX
  8
FOREGROUND
  6
CONTINUOUS
 10
0.184383
 20
0.599206
  0
VERTEX
  8
FOREGROUND
  6
CONTINUOUS
 10
0.181672
 20
0.597556
  0
VERTEX
  8
FOREGROUND
  6
CONTINUOUS
 10
0.178979
 20
0.595877
  0
VERTEX
  8
FOREGROUND
  6
CONTINUOUS
 10
0.176304
 20
0.594166
  0
VERTEX
  8
FOREGROUND
  6
CONTINUOUS
 10
0.173647
 20
0.592426
  0
VERTEX
  8
FOREGROUND
  6
CONTINUOUS
 10
0.171010
 20
0.590655
  0
VERTEX
  8
FOREGROUND
  6
CONTINUOUS
 10
0.168391
 20
0.588854
  0
VERTEX
  8
FOREGROUND
  6
CONTINUOUS
 10
0.165792
 20
0.587023
  0
VERTEX
  8
FOREGROUND
  6
CONTINUOUS
 10
0.163214
 20
0.585161
  0
VERTEX
  8
FOREGROUND
  6
CONTINUOUS
 10
0.160655
 20
0.583270
  0
VERTEX
  8
FOREGROUND
  6
CONTINUOUS
 10
0.158117
 20
0.581348
  0
VERTEX
  8
FOREGROUND
  6
CONTINUOUS
 10
0.155599
 20
0.579395
  0
VERTEX
  8
FOREGROUND
  6
CONTINUOUS
 10
0.153103
 20
0.577413
  0
VERTEX
  8
FOREGROUND
  6
CONTINUOUS
 10
0.150628
 20
0.575400
  0
VERTEX
  8
FOREGROUND
  6
CONTINUOUS
 10
0.148175
 20
0.573357
  0
VERTEX
  8
FOREGROUND
  6
CONTINUOUS
 10
0.145744
 20
0.571283
  0
VERTEX
  8
FOREGROUND
  6
CONTINUOUS
 10
0.143336
 20
0.569179
  0
VERTEX
  8
FOREGROUND
  6
CONTINUOUS
 10
0.140950
 20
0.567045
  0
VERTEX
  8
FOREGROUND
  6
CONTINUOUS
 10
0.138588
 20
0.564881
  0
VERTEX
  8
FOREGROUND
  6
CONTINUOUS
 10
0.136249
 20
0.562687
  0
VERTEX
  8
FOREGROUND
  6
CONTINUOUS
 10
0.133934
 20
0.560462
  0
VERTEX
  8
FOREGROUND
  6
CONTINUOUS
 10
0.131643
 20
0.558207
  0
VERTEX
  8
FOREGROUND
  6
CONTINUOUS
 10
0.129376
 20
0.555922
  0
VERTEX
  8
FOREGROUND
  6
CONTINUOUS
 10
0.127134
 20
0.553606
  0
VERTEX
  8
FOREGROUND
  6
CONTINUOUS
 10
0.124917
 20
0.551260
  0
VERTEX
  8
FOREGROUND
  6
CONTINUOUS
 10
0.122726
 20
0.548884
  0
VERTEX
  8
FOREGROUND
  6
CONTINUOUS
 10
0.120560
 20
0.546477
  0
VERTEX
  8
FOREGROUND
  6
CONTINUOUS
 10
0.118420
 20
0.544041
  0
VERTEX
  8
FOREGROUND
  6
CONTINUOUS
 10
0.116307
 20
0.541574
  0
VERTEX
  8
FOREGROUND
  6
CONTINUOUS
 10
0.114220
 20
0.539077
  0
VERTEX
  8
FOREGROUND
  6
CONTINUOUS
 10
0.112161
 20
0.536549
  0
VERTEX
  8
FOREGROUND
  6
CONTINUOUS
 10
0.110128
 20
0.533991
  0
VERTEX
  8
FOREGROUND
  6
CONTINUOUS
 10
0.108124
 20
0.531403
  0
VERTEX
  8
FOREGROUND
  6
CONTINUOUS
 10
0.106147
 20
0.528785
  0
VERTEX
  8
FOREGROUND
  6
CONTINUOUS
 10
0.104199
 20
0.526136
  0
VERTEX
  8
FOREGROUND
  6
CONTINUOUS
 10
0.102279
 20
0.523457
  0
VERTEX
  8
FOREGROUND
  6
CONTINUOUS
 10
0.100389
 20
0.520748
  0
VERTEX
  8
FOREGROUND
  6
CONTINUOUS
 10
0.098527
 20
0.518009
  0
VERTEX
  8
FOREGROUND
  6
CONTINUOUS
 10
0.096696
 20
0.515239
  0
VERTEX
  8
FOREGROUND
  6
CONTINUOUS
 10
0.094894
 20
0.512439
  0
VERTEX
  8
FOREGROUND
  6
CONTINUOUS
 10
0.093122
 20
0.509609
  0
VERTEX
  8
FOREGROUND
  6
CONTINUOUS
 10
0.091382
 20
0.506749
  0
VERTEX
  8
FOREGROUND
  6
CONTINUOUS
 10
0.089672
 20
0.503858
  0
VERTEX
  8
FOREGROUND
  6
CONTINUOUS
 10
0.087993
 20
0.500937
  0
VERTEX
  8
FOREGROUND
  6
CONTINUOUS
 10
0.086346
 20
0.497985
  0
VERTEX
  8
FOREGROUND
  6
CONTINUOUS
 10
0.084731
 20
0.495004
  0
VERTEX
  8
FOREGROUND
  6
CONTINUOUS
 10
0.083148
 20
0.491992
  0
VERTEX
  8
FOREGROUND
  6
CONTINUOUS
 10
0.081597
 20
0.488950
  0
VERTEX
  8
FOREGROUND
  6
CONTINUOUS
 10
0.080080
 20
0.485877
  0
VERTEX
  8
FOREGROUND
  6
CONTINUOUS
 10
0.078595
 20
0.482775
  0
VERTEX
  8
FOREGROUND
  6
CONTINUOUS
 10
0.077145
 20
0.479642
  0
VERTEX
  8
FOREGROUND
  6
CONTINUOUS
 10
0.075728
 20
0.476479
  0
VERTEX
  8
FOREGROUND
  6
CONTINUOUS
 10
0.074345
 20
0.473285
  0
VERTEX
  8
FOREGROUND
  6
CONTINUOUS
 10
0.072997
 20
0.470061
  0
VERTEX
  8
FOREGROUND
  6
CONTINUOUS
 10
0.071684
 20
0.466807
  0
VERTEX
  8
FOREGROUND
  6
CONTINUOUS
 10
0.070405
 20
0.463523
  0
VERTEX
  8
FOREGROUND
  6
CONTINUOUS
 10
0.069163
 20
0.460208
  0
VERTEX
  8
FOREGROUND
  6
CONTINUOUS
 10
0.067956
 20
0.456864
  0
VERTEX
  8
FOREGROUND
  6
CONTINUOUS
 10
0.066785
 20
0.453488
  0
VERTEX
  8
FOREGROUND
  6
CONTINUOUS
 10
0.065651
 20
0.450083
  0
VERTEX
  8
FOREGROUND
  6
CONTINUOUS
 10
0.064553
 20
0.446647
  0
VERTEX
  8
FOREGROUND
  6
CONTINUOUS
 10
0.063493
 20
0.443181
  0
VERTEX
  8
FOREGROUND
  6
CONTINUOUS
 10
0.062470
 20
0.439685
  0
VERTEX
  8
FOREGROUND
  6
CONTINUOUS
 10
0.061485
 20
0.436159
  0
VERTEX
  8
FOREGROUND
  6
CONTINUOUS
 10
0.060538
 20
0.432602
  0
VERTEX
  8
FOREGROUND
  6
CONTINUOUS
 10
0.059629
 20
0.429015
  0
VERTEX
  8
FOREGROUND
  6
CONTINUOUS
 10
0.058759
 20
0.425398
  0
VERTEX
  8
FOREGROUND
  6
CONTINUOUS
 10
0.057929
 20
0.421750
  0
VERTEX
  8
FOREGROUND
  6
CONTINUOUS
 10
0.057137
 20
0.418072
  0
VERTEX
  8
FOREGROUND
  6
CONTINUOUS
 10
0.056385
 20
0.414364
  0
VERTEX
  8
FOREGROUND
  6
CONTINUOUS
 10
0.055674
 20
0.410626
  0
VERTEX
  8
FOREGROUND
  6
CONTINUOUS
 10
0.055003
 20
0.406857
  0
VERTEX
  8
FOREGROUND
  6
CONTINUOUS
 10
0.054372
 20
0.403058
  0
VERTEX
  8
FOREGROUND
  6
CONTINUOUS
 10
0.053782
 20
0.399229
  0
VERTEX
  8
FOREGROUND
  6
CONTINUOUS
 10
0.053234
 20
0.395369
  0
VERTEX
  8
FOREGROUND
  6
CONTINUOUS
 10
0.052728
 20
0.391480
  0
VERTEX
  8
FOREGROUND
  6
CONTINUOUS
 10
0.052263
 20
0.387559
  0
VERTEX
  8
FOREGROUND
  6
CONTINUOUS
 10
0.051841
 20
0.383609
  0
VERTEX
  8
FOREGROUND
  6
CONTINUOUS
 10
0.051462
 20
0.379629
  0
VERTEX
  8
FOREGROUND
  6
CONTINUOUS
 10
0.051125
 20
0.375618
  0
VERTEX
  8
FOREGROUND
  6
CONTINUOUS
 10
0.050832
 20
0.371577
  0
VERTEX
  8
FOREGROUND
  6
CONTINUOUS
 10
0.050582
 20
0.367505
  0
VERTEX
  8
FOREGROUND
  6
CONTINUOUS
 10
0.050377
 20
0.363404
  0
VERTEX
  8
FOREGROUND
  6
CONTINUOUS
 10
0.050215
 20
0.359272
  0
VERTEX
  8
FOREGROUND
  6
CONTINUOUS
 10
0.050098
 20
0.355109
  0
VERTEX
  8
FOREGROUND
  6
CONTINUOUS
 10
0.050027
 20
0.350917
  0
VERTEX
  8
FOREGROUND
  6
CONTINUOUS
 10
0.050000
 20
0.346694
  0
VERTEX
  8
FOREGROUND
  6
CONTINUOUS
 10
0.050000
 20
0.346694
  0
VERTEX
  8
FOREGROUND
  6
CONTINUOUS
 10
0.050026
 20
0.342471
  0
VERTEX
  8
FOREGROUND
  6
CONTINUOUS
 10
0.050097
 20
0.338279
  0
VERTEX
  8
FOREGROUND
  6
CONTINUOUS
 10
0.050213
 20
0.334117
  0
VERTEX
  8
FOREGROUND
  6
CONTINUOUS
 10
0.050373
 20
0.329985
  0
VERTEX
  8
FOREGROUND
  6
CONTINUOUS
 10
0.050578
 20
0.325883
  0
VERTEX
  8
FOREGROUND
  6
CONTINUOUS
 10
0.050827
 20
0.321812
  0
VERTEX
  8
FOREGROUND
  6
CONTINUOUS
 10
0.051119
 20
0.317770
  0
VERTEX
  8
FOREGROUND
  6
CONTINUOUS
 10
0.051455
 20
0.313759
  0
VERTEX
  8
FOREGROUND
  6
CONTINUOUS
 10
0.051833
 20
0.309779
  0
VERTEX
  8
FOREGROUND
  6
CONTINUOUS
 10
0.052255
 20
0.305828
  0
VERTEX
  8
FOREGROUND
  6
CONTINUOUS
 10
0.052719
 20
0.301908
  0
VERTEX
  8
FOREGROUND
  6
CONTINUOUS
 10
0.053224
 20
0.298018
  0
VERTEX
  8
FOREGROUND
  6
CONTINUOUS
 10
0.053772
 20
0.294159
  0
VERTEX
  8
FOREGROUND
  6
CONTINUOUS
 10
0.054360
 20
0.290330
  0
VERTEX
  8
FOREGROUND
  6
CONTINUOUS
 10
0.054990
 20
0.286530
  0
VERTEX
  8
FOREGROUND
  6
CONTINUOUS
 10
0.055661
 20
0.282762
  0
VERTEX
  8
FOREGROUND
  6
CONTINUOUS
 10
0.056372
 20
0.279023
  0
VERTEX
  8
FOREGROUND
  6
CONTINUOUS
 10
0.057122
 20
0.275315
  0
VERTEX
  8
FOREGROUND
  6
CONTINUOUS
 10
0.057913
 20
0.271637
  0
VERTEX
  8
FOREGROUND
  6
CONTINUOUS
 10
0.058743
 20
0.267989
  0
VERTEX
  8
FOREGROUND
  6
CONTINUOUS
 10
0.059612
 20
0.264372
  0
VERTEX
  8
FOREGROUND
  6
CONTINUOUS
 10
0.060520
 20
0.260784
  0
VERTEX
  8
FOREGROUND
  6
CONTINUOUS
 10
0.061466
 20
0.257228
  0
VERTEX
  8
FOREGROUND
  6
CONTINUOUS
 10
0.062451
 20
0.253701
  0
VERTEX
  8
FOREGROUND
  6
CONTINUOUS
 10
0.063473
 20
0.250204
  0
VERTEX
  8
FOREGROUND
  6
CONTINUOUS
 10
0.064533
 20
0.246738
  0
VERTEX
  8
FOREGROUND
  6
CONTINUOUS
 10
0.065630
 20
0.243302
  0
VERTEX
  8
FOREGROUND
  6
CONTINUOUS
 10
0.066763
 20
0.239897
  0
VERTEX
  8
FOREGROUND
  6
CONTINUOUS
 10
0.067933
 20
0.236521
  0
VERTEX
  8
FOREGROUND
  6
CONTINUOUS
 10
0.069139
 20
0.233176
  0
VERTEX
  8
FOREGROUND
  6
CONTINUOUS
 10
0.070381
 20
0.229862
  0
VERTEX
  8
FOREGROUND
  6
CONTINUOUS
 10
0.071659
 20
0.226577
  0
VERTEX
  8
FOREGROUND
  6
CONTINUOUS
 10
0.072971
 20
0.223323
  0
VERTEX
  8
FOREGROUND
  6
CONTINUOUS
 10
0.074319
 20
0.220099
  0
VERTEX
  8
FOREGROUND
  6
CONTINUOUS
 10
0.075701
 20
0.216905
  0
VERTEX
  8
FOREGROUND
  6
CONTINUOUS
 10
0.077117
 20
0.213742
  0
VERTEX
  8
FOREGROUND
  6
CONTINUOUS
 10
0.078567
 20
0.210608
  0
VERTEX
  8
FOREGROUND
  6
CONTINUOUS
 10
0.080051
 20
0.207505
  0
VERTEX
  8
FOREGROUND
  6
CONTINUOUS
 10
0.081568
 20
0.204433
  0
VERTEX
  8
FOREGROUND
  6
CONTINUOUS
 10
0.083118
 20
0.201390
  0
VERTEX
  8
FOREGROUND
  6
CONTINUOUS
 10
0.084700
 20
0.198378
  0
VERTEX
  8
FOREGROUND
  6
CONTINUOUS
 10
0.086315
 20
0.195396
  0
VERTEX
  8
FOREGROUND
  6
CONTINUOUS
 10
0.087961
 20
0.192445
  0
VERTEX
  8
FOREGROUND
  6
CONTINUOUS
 10
0.089639
 20
0.189523
  0
VERTEX
  8
FOREGROUND
  6
CONTINUOUS
 10
0.091348
 20
0.186632
  0
VERTEX
  8
FOREGROUND
  6
CONTINUOUS
 10
0.093089
 20
0.183771
  0
VERTEX
  8
FOREGROUND
  6
CONTINUOUS
 10
0.094860
 20
0.180941
  0
VERTEX
  8
FOREGROUND
  6
CONTINUOUS
 10
0.096661
 20
0.178140
  0
VERTEX
  8
FOREGROUND
  6
CONTINUOUS
 10
0.098492
 20
0.175370
  0
VERTEX
  8
FOREGROUND
  6
CONTINUOUS
 10
0.100353
 20
0.172631
  0
VERTEX
  8
FOREGROUND
  6
CONTINUOUS
 10
0.102243
 20
0.169921
  0
VERTEX
  8
FOREGROUND
  6
CONTINUOUS
 10
0.104162
 20
0.167242
  0
VERTEX
  8
FOREGROUND
  6
CONTINUOUS
 10
0.106110
 20
0.164593
  0
VERTEX
  8
FOREGROUND
  6
CONTINUOUS
 10
0.108086
 20
0.161974
  0
VERTEX
  8
FOREGROUND
  6
CONTINUOUS
 10
0.110090
 20
0.159386
  0
VERTEX
  8
FOREGROUND
  6
CONTINUOUS
 10
0.112121
 20
0.156828
  0
VERTEX
  8
FOREGROUND
  6
CONTINUOUS
 10
0.114181
 20
0.154300
  0
VERTEX
  8
FOREGROUND
  6
CONTINUOUS
 10
0.116267
 20
0.151802
  0
VERTEX
  8
FOREGROUND
  6
CONTINUOUS
 10
0.118379
 20
0.149335
  0
VERTEX
  8
FOREGROUND
  6
CONTINUOUS
 10
0.120519
 20
0.146898
  0
VERTEX
  8
FOREGROUND
  6
CONTINUOUS
 10
0.122684
 20
0.144491
  0
VERTEX
  8
FOREGROUND
  6
CONTINUOUS
 10
0.124875
 20
0.142114
  0
VERTEX
  8
FOREGROUND
  6
CONTINUOUS
 10
0.127091
 20
0.139768
  0
VERTEX
  8
FOREGROUND
  6
CONTINUOUS
 10
0.129333
 20
0.137452
  0
VERTEX
  8
FOREGROUND
  6
CONTINUOUS
 10
0.131599
 20
0.135166
  0
VERTEX
  8
FOREGROUND
  6
CONTINUOUS
 10
0.133890
 20
0.132911
  0
VERTEX
  8
FOREGROUND
  6
CONTINUOUS
 10
0.136205
 20
0.130686
  0
VERTEX
  8
FOREGROUND
  6
CONTINUOUS
 10
0.138543
 20
0.128491
  0
VERTEX
  8
FOREGROUND
  6
CONTINUOUS
 10
0.140905
 20
0.126326
  0
VERTEX
  8
FOREGROUND
  6
CONTINUOUS
 10
0.143290
 20
0.124192
  0
VERTEX
  8
FOREGROUND
  6
CONTINUOUS
 10
0.145698
 20
0.122087
  0
VERTEX
  8
FOREGROUND
  6
CONTINUOUS
 10
0.148128
 20
0.120014
  0
VERTEX
  8
FOREGROUND
  6
CONTINUOUS
 10
0.150581
 20
0.117970
  0
VERTEX
  8
FOREGROUND
  6
CONTINUOUS
 10
0.153055
 20
0.115957
  0
VERTEX
  8
FOREGROUND
  6
CONTINUOUS
 10
0.155551
 20
0.113974
  0
VERTEX
  8
FOREGROUND
  6
CONTINUOUS
 10
0.158068
 20
0.112021
  0
VERTEX
  8
FOREGROUND
  6
CONTINUOUS
 10
0.160606
 20
0.110098
  0
VERTEX
  8
FOREGROUND
  6
CONTINUOUS
 10
0.163164
 20
0.108206
  0
VERTEX
  8
FOREGROUND
  6
CONTINUOUS
 10
0.165743
 20
0.106344
  0
VERTEX
  8
FOREGROUND
  6
CONTINUOUS
 10
0.168341
 20
0.104512
  0
VERTEX
  8
FOREGROUND
  6
CONTINUOUS
 10
0.170959
 20
0.102711
  0
VERTEX
  8
FOREGROUND
  6
CONTINUOUS
 10
0.173596
 20
0.100940
  0
VERTEX
  8
FOREGROUND
  6
CONTINUOUS
 10
0.176253
 20
0.099199
  0
VERTEX
  8
FOREGROUND
  6
CONTINUOUS
 10
0.178927
 20
0.097488
  0
VERTEX
  8
FOREGROUND
  6
CONTINUOUS
 10
0.181620
 20
0.095808
  0
VERTEX
  8
FOREGROUND
  6
CONTINUOUS
 10
0.184331
 20
0.094157
  0
VERTEX
  8
FOREGROUND
  6
CONTINUOUS
 10
0.187059
 20
0.092538
  0
VERTEX
  8
FOREGROUND
  6
CONTINUOUS
 10
0.189805
 20
0.090948
  0
VERTEX
  8
FOREGROUND
  6
CONTINUOUS
 10
0.192567
 20
0.089389
  0
VERTEX
  8
FOREGROUND
  6
CONTINUOUS
 10
0.195347
 20
0.087860
  0
VERTEX
  8
FOREGROUND
  6
CONTINUOUS
 10
0.198142
 20
0.086361
  0
VERTEX
  8
FOREGROUND
  6
CONTINUOUS
 10
0.200954
 20
0.084892
  0
VERTEX
  8
FOREGROUND
  6
CONTINUOUS
 10
0.203781
 20
0.083454
  0
VERTEX
  8
FOREGROUND
  6
CONTINUOUS
 10
0.206623
 20
0.082046
  0
VERTEX
  8
FOREGROUND
  6
CONTINUOUS
 10
0.209480
 20
0.080668
  0
VERTEX
  8
FOREGROUND
  6
CONTINUOUS
 10
0.212352
 20
0.079321
  0
VERTEX
  8
FOREGROUND
  6
CONTINUOUS
 10
0.215239
 20
0.078004
  0
VERTEX
  8
FOREGROUND
  6
CONTINUOUS
 10
0.218139
 20
0.076717
  0
VERTEX
  8
FOREGROUND
  6
CONTINUOUS
 10
0.221053
 20
0.075460
  0
VERTEX
  8
FOREGROUND
  6
CONTINUOUS
 10
0.223980
 20
0.074234
  0
VERTEX
  8
FOREGROUND
  6
CONTINUOUS
 10
0.226921
 20
0.073038
  0
VERTEX
  8
FOREGROUND
  6
CONTINUOUS
 10
0.229874
 20
0.071872
  0
VERTEX
  8
FOREGROUND
  6
CONTINUOUS
 10
0.232839
 20
0.070736
  0
VERTEX
  8
FOREGROUND
  6
CONTINUOUS
 10
0.235817
 20
0.069631
  0
VERTEX
  8
FOREGROUND
  6
CONTINUOUS
 10
0.238806
 20
0.068556
  0
VERTEX
  8
FOREGROUND
  6
CONTINUOUS
 10
0.241807
 20
0.067511
  0
VERTEX
  8
FOREGROUND
  6
CONTINUOUS
 10
0.244819
 20
0.066497
  0
VERTEX
  8
FOREGROUND
  6
CONTINUOUS
 10
0.247841
 20
0.065513
  0
VERTEX
  8
FOREGROUND
  6
CONTINUOUS
 10
0.250874
 20
0.064559
  0
VERTEX
  8
FOREGROUND
  6
CONTINUOUS
 10
0.253917
 20
0.063635
  0
VERTEX
  8
FOREGROUND
  6
CONTINUOUS
 10
0.256970
 20
0.062742
  0
VERTEX
  8
FOREGROUND
  6
CONTINUOUS
 10
0.260032
 20
0.061878
  0
VERTEX
  8
FOREGROUND
  6
CONTINUOUS
 10
0.263104
 20
0.061046
  0
VERTEX
  8
FOREGROUND
  6
CONTINUOUS
 10
0.266184
 20
0.060243
  0
VERTEX
  8
FOREGROUND
  6
CONTINUOUS
 10
0.269272
 20
0.059471
  0
VERTEX
  8
FOREGROUND
  6
CONTINUOUS
 10
0.272369
 20
0.058729
  0
VERTEX
  8
FOREGROUND
  6
CONTINUOUS
 10
0.275474
 20
0.058017
  0
VERTEX
  8
FOREGROUND
  6
CONTINUOUS
 10
0.278586
 20
0.057335
  0
VERTEX
  8
FOREGROUND
  6
CONTINUOUS
 10
0.281705
 20
0.056684
  0
VERTEX
  8
FOREGROUND
  6
CONTINUOUS
 10
0.284831
 20
0.056063
  0
VERTEX
  8
FOREGROUND
  6
CONTINUOUS
 10
0.287964
 20
0.055472
  0
VERTEX
  8
FOREGROUND
  6
CONTINUOUS
 10
0.291103
 20
0.054912
  0
VERTEX
  8
FOREGROUND
  6
CONTINUOUS
 10
0.294247
 20
0.054382
  0
VERTEX
  8
FOREGROUND
  6
CONTINUOUS
 10
0.297398
 20
0.053882
  0
VERTEX
  8
FOREGROUND
  6
CONTINUOUS
 10
0.300553
 20
0.053412
  0
VERTEX
  8
FOREGROUND
  6
CONTINUOUS
 10
0.303713
 20
0.052973
  0
VERTEX
  8
FOREGROUND
  6
CONTINUOUS
 10
0.306878
 20
0.052564
  0
VERTEX
  8
FOREGROUND
  6
CONTINUOUS
 10
0.310047
 20
0.052185
  0
VERTEX
  8
FOREGROUND
  6
CONTINUOUS
 10
0.313220
 20
0.051836
  0
VERTEX
  8
FOREGROUND
  6
CONTINUOUS
 10
0.316397
 20
0.051518
  0
VERTEX
  8
FOREGROUND
  6
CONTINUOUS
 10
0.319577
 20
0.051230
  0
VERTEX
  8
FOREGROUND
  6
CONTINUOUS
 10
0.322760
 20
0.050972
  0
VERTEX
  8
FOREGROUND
  6
CONTINUOUS
 10
0.325945
 20
0.050745
  0
VERTEX
  8
FOREGROUND
  6
CONTINUOUS
 10
0.329133
 20
0.050548
  0
VERTEX
  8
FOREGROUND
  6
CONTINUOUS
 10
0.332323
 20
0.050381
  0
VERTEX
  8
FOREGROUND
  6
CONTINUOUS
 10
0.335514
 20
0.050244
  0
VERTEX
  8
FOREGROUND
  6
CONTINUOUS
 10
0.338706
 20
0.050138
  0
VERTEX
  8
FOREGROUND
  6
CONTINUOUS
 10
0.341900
 20
0.050062
  0
VERTEX
  8
FOREGROUND
  6
CONTINUOUS
 10
0.345094
 20
0.050016
  0
VERTEX
  8
FOREGROUND
  6
CONTINUOUS
 10
0.348289
 20
0.050000
  0
VERTEX
  8
FOREGROUND
  6
CONTINUOUS
 10
0.351483
 20
0.050015
  0
VERTEX
  8
FOREGROUND
  6
CONTINUOUS
 10
0.354678
 20
0.050060
  0
VERTEX
  8
FOREGROUND
  6
CONTINUOUS
 10
0.357871
 20
0.050135
  0
VERTEX
  8
FOREGROUND
  6
CONTINUOUS
 10
0.361064
 20
0.050241
  0
VERTEX
  8
FOREGROUND
  6
CONTINUOUS
 10
0.364255
 20
0.050376
  0
VERTEX
  8
FOREGROUND
  6
CONTINUOUS
 10
0.367445
 20
0.050542
  0
VERTEX
  8
FOREGROUND
  6
CONTINUOUS
 10
0.370633
 20
0.050739
  0
VERTEX
  8
FOREGROUND
  6
CONTINUOUS
 10
0.373818
 20
0.050965
  0
VERTEX
  8
FOREGROUND
  6
CONTINUOUS
 10
0.377001
 20
0.051222
  0
VERTEX
  8
FOREGROUND
  6
CONTINUOUS
 10
0.380181
 20
0.051509
  0
VERTEX
  8
FOREGROUND
  6
CONTINUOUS
 10
0.383358
 20
0.051827
  0
VERTEX
  8
FOREGROUND
  6
CONTINUOUS
 10
0.386531
 20
0.052174
  0
VERTEX
  8
FOREGROUND
  6
CONTINUOUS
 10
0.389700
 20
0.052552
  0
VERTEX
  8
FOREGROUND
  6
CONTINUOUS
 10
0.392865
 20
0.052960
  0
VERTEX
  8
FOREGROUND
  6
CONTINUOUS
 10
0.396026
 20
0.053399
  0
VERTEX
  8
FOREGROUND
  6
CONTINUOUS
 10
0.399181
 20
0.053868
  0
VERTEX
  8
FOREGROUND
  6
CONTINUOUS
 10
0.402332
 20
0.054367
  0
VERTEX
  8
FOREGROUND
  6
CONTINUOUS
 10
0.405477
 20
0.054896
  0
VERTEX
  8
FOREGROUND
  6
CONTINUOUS
 10
0.408616
 20
0.055456
  0
VERTEX
  8
FOREGROUND
  6
CONTINUOUS
 10
0.411748
 20
0.056045
  0
VERTEX
  8
FOREGROUND
  6
CONTINUOUS
 10
0.414875
 20
0.056666
  0
VERTEX
  8
FOREGROUND
  6
CONTINUOUS
 10
0.417994
 20
0.057316
  0
VERTEX
  8
FOREGROUND
  6
CONTINUOUS
 10
0.421106
 20
0.057997
  0
VERTEX
  8
FOREGROUND
  6
CONTINUOUS
 10
0.424211
 20
0.058708
  0
VERTEX
  8
FOREGROUND
  6
CONTINUOUS
 10
0.427308
 20
0.059449
  0
VERTEX
  8
FOREGROUND
  6
CONTINUOUS
 10
0.430397
 20
0.060220
  0
VERTEX
  8
FOREGROUND
  6
CONTINUOUS
 10
0.433477
 20
0.061022
  0
VERTEX
  8
FOREGROUND
  6
CONTINUOUS
 10
0.436549
 20
0.061854
  0
VERTEX
  8
FOREGROUND
  6
CONTINUOUS
 10
0.439612
 20
0.062716
  0
VERTEX
  8
FOREGROUND
  6
CONTINUOUS
 10
0.442665
 20
0.063609
  0
VERTEX
  8
FOREGROUND
  6
CONTINUOUS
 10
0.445708
 20
0.064532
  0
VERTEX
  8
FOREGROUND
  6
CONTINUOUS
 10
0.448741
 20
0.065485
  0
VERTEX
  8
FOREGROUND
  6
CONTINUOUS
 10
0.451764
 20
0.066468
  0
VERTEX
  8
FOREGROUND
  6
CONTINUOUS
 10
0.454776
 20
0.067482
  0
VERTEX
  8
FOREGROUND
  6
CONTINUOUS
 10
0.457777
 20
0.068526
  0
VERTEX
  8
FOREGROUND
  6
CONTINUOUS
 10
0.460767
 20
0.069600
  0
VERTEX
  8
FOREGROUND
  6
CONTINUOUS
 10
0.463745
 20
0.070704
  0
VERTEX
  8
FOREGROUND
  6
CONTINUOUS
 10
0.466710
 20
0.071839
  0
VERTEX
  8
FOREGROUND
  6
CONTINUOUS
 10
0.469664
 20
0.073004
  0
VERTEX
  8
FOREGROUND
  6
CONTINUOUS
 10
0.472605
 20
0.074199
  0
VERTEX
  8
FOREGROUND
  6
CONTINUOUS
 10
0.475532
 20
0.075425
  0
VERTEX
  8
FOREGROUND
  6
CONTINUOUS
 10
0.478447
 20
0.076681
  0
VERTEX
  8
FOREGROUND
  6
CONTINUOUS
 10
0.481348
 20
0.077967
  0
VERTEX
  8
FOREGROUND
  6
CONTINUOUS
 10
0.484234
 20
0.079283
  0
VERTEX
  8
FOREGROUND
  6
CONTINUOUS
 10
0.487107
 20
0.080630
  0
VERTEX
  8
FOREGROUND
  6
CONTINUOUS
 10
0.489964
 20
0.082007
  0
VERTEX
  8
FOREGROUND
  6
CONTINUOUS
 10
0.492807
 20
0.083414
  0
VERTEX
  8
FOREGROUND
  6
CONTINUOUS
 10
0.495635
 20
0.084852
  0
VERTEX
  8
FOREGROUND
  6
CONTINUOUS
 10
0.498447
 20
0.086319
  0
VERTEX
  8
FOREGROUND
  6
CONTINUOUS
 10
0.501243
 20
0.087817
  0
VERTEX
  8
FOREGROUND
  6
CONTINUOUS
 10
0.504022
 20
0.089346
  0
VERTEX
  8
FOREGROUND
  6
CONTINUOUS
 10
0.506785
 20
0.090904
  0
VERTEX
  8
FOREGROUND
  6
CONTINUOUS
 10
0.509531
 20
0.092493
  0
VERTEX
  8
FOREGROUND
  6
CONTINUOUS
 10
0.512260
 20
0.094112
  0
VERTEX
  8
FOREGROUND
  6
CONTINUOUS
 10
0.514971
 20
0.095761
  0
VERTEX
  8
FOREGROUND
  6
CONTINUOUS
 10
0.517665
 20
0.097441
  0
VERTEX
  8
FOREGROUND
  6
CONTINUOUS
 10
0.520340
 20
0.099151
  0
VERTEX
  8
FOREGROUND
  6
CONTINUOUS
 10
0.522997
 20
0.100891
  0
VERTEX
  8
FOREGROUND
  6
CONTINUOUS
 10
0.525634
 20
0.102662
  0
VERTEX
  8
FOREGROUND
  6
CONTINUOUS
 10
0.528253
 20
0.104462
  0
VERTEX
  8
FOREGROUND
  6
CONTINUOUS
 10
0.530852
 20
0.106294
  0
VERTEX
  8
FOREGROUND
  6
CONTINUOUS
 10
0.533431
 20
0.108155
  0
VERTEX
  8
FOREGROUND
  6
CONTINUOUS
 10
0.535990
 20
0.110046
  0
VERTEX
  8
FOREGROUND
  6
CONTINUOUS
 10
0.538528
 20
0.111968
  0
VERTEX
  8
FOREGROUND
  6
CONTINUOUS
 10
0.541046
 20
0.113920
  0
VERTEX
  8
FOREGROUND
  6
CONTINUOUS
 10
0.543542
 20
0.115903
  0
VERTEX
  8
FOREGROUND
  6
CONTINUOUS
 10
0.546017
 20
0.117915
  0
VERTEX
  8
FOREGROUND
  6
CONTINUOUS
 10
0.548470
 20
0.119958
  0
VERTEX
  8
FOREGROUND
  6
CONTINUOUS
 10
0.550901
 20
0.122031
  0
VERTEX
  8
FOREGROUND
  6
CONTINUOUS
 10
0.553310
 20
0.124135
  0
VERTEX
  8
FOREGROUND
  6
CONTINUOUS
 10
0.555696
 20
0.126269
  0
VERTEX
  8
FOREGROUND
  6
CONTINUOUS
 10
0.558058
 20
0.128433
  0
VERTEX
  8
FOREGROUND
  6
CONTINUOUS
 10
0.560397
 20
0.130627
  0
VERTEX
  8
FOREGROUND
  6
CONTINUOUS
 10
0.562713
 20
0.132852
  0
VERTEX
  8
FOREGROUND
  6
CONTINUOUS
 10
0.565004
 20
0.135106
  0
VERTEX
  8
FOREGROUND
  6
CONTINUOUS
 10
0.567271
 20
0.137392
  0
VERTEX
  8
FOREGROUND
  6
CONTINUOUS
 10
0.569513
 20
0.139707
  0
VERTEX
  8
FOREGROUND
  6
CONTINUOUS
 10
0.571730
 20
0.142053
  0
VERTEX
  8
FOREGROUND
  6
CONTINUOUS
 10
0.573922
 20
0.144429
  0
VERTEX
  8
FOREGROUND
  6
CONTINUOUS
 10
0.576088
 20
0.146835
  0
VERTEX
  8
FOREGROUND
  6
CONTINUOUS
 10
0.578228
 20
0.149271
  0
VERTEX
  8
FOREGROUND
  6
CONTINUOUS
 10
0.580342
 20
0.151738
  0
VERTEX
  8
FOREGROUND
  6
CONTINUOUS
 10
0.582429
 20
0.154235
  0
VERTEX
  8
FOREGROUND
  6
CONTINUOUS
 10
0.584488
 20
0.156762
  0
VERTEX
  8
FOREGROUND
  6
CONTINUOUS
 10
0.586521
 20
0.159320
  0
VERTEX
  8
FOREGROUND
  6
CONTINUOUS
 10
0.588526
 20
0.161908
  0
VERTEX
  8
FOREGROUND
  6
CONTINUOUS
 10
0.590503
 20
0.164526
  0
VERTEX
  8
FOREGROUND
  6
CONTINUOUS
 10
0.592451
 20
0.167174
  0
VERTEX
  8
FOREGROUND
  6
CONTINUOUS
 10
0.594371
 20
0.169853
  0
VERTEX
  8
FOREGROUND
  6
CONTINUOUS
 10
0.596262
 20
0.172562
  0
VERTEX
  8
FOREGROUND
  6
CONTINUOUS
 10
0.598123
 20
0.175301
  0
VERTEX
  8
FOREGROUND
  6
CONTINUOUS
 10
0.599955
 20
0.178071
  0
VERTEX
  8
FOREGROUND
  6
CONTINUOUS
 10
0.601757
 20
0.180871
  0
VERTEX
  8
FOREGROUND
  6
CONTINUOUS
 10
0.603529
 20
0.183701
  0
VERTEX
  8
FOREGROUND
  6
CONTINUOUS
 10
0.605270
 20
0.186561
  0
VERTEX
  8
FOREGROUND
  6
CONTINUOUS
 10
0.606980
 20
0.189452
  0
VERTEX
  8
FOREGROUND
  6
CONTINUOUS
 10
0.608659
 20
0.192373
  0
VERTEX
  8
FOREGROUND
  6
CONTINUOUS
 10
0.610307
 20
0.195324
  0
VERTEX
  8
FOREGROUND
  6
CONTINUOUS
 10
0.611922
 20
0.198305
  0
VERTEX
  8
FOREGROUND
  6
CONTINUOUS
 10
0.613505
 20
0.201317
  0
VERTEX
  8
FOREGROUND
  6
CONTINUOUS
 10
0.615056
 20
0.204359
  0
VERTEX
  8
FOREGROUND
  6
CONTINUOUS
 10
0.616574
 20
0.207431
  0
VERTEX
  8
FOREGROUND
  6
CONTINUOUS
 10
0.618058
 20
0.210534
  0
VERTEX
  8
FOREGROUND
  6
CONTINUOUS
 10
0.619510
 20
0.213667
  0
VERTEX
  8
FOREGROUND
  6
CONTINUOUS
 10
0.620927
 20
0.216830
  0
VERTEX
  8
FOREGROUND
  6
CONTINUOUS
 10
0.622310
 20
0.220023
  0
VERTEX
  8
FOREGROUND
  6
CONTINUOUS
 10
0.623658
 20
0.223247
  0
VERTEX
  8
FOREGROUND
  6
CONTINUOUS
 10
0.624972
 20
0.226501
  0
VERTEX
  8
FOREGROUND
  6
CONTINUOUS
 10
0.626250
 20
0.229785
  0
VERTEX
  8
FOREGROUND
  6
CONTINUOUS
 10
0.627493
 20
0.233099
  0
VERTEX
  8
FOREGROUND
  6
CONTINUOUS
 10
0.628701
 20
0.236444
  0
VERTEX
  8
FOREGROUND
  6
CONTINUOUS
 10
0.629872
 20
0.239819
  0
VERTEX
  8
FOREGROUND
  6
CONTINUOUS
 10
0.631006
 20
0.243224
  0
VERTEX
  8
FOREGROUND
  6
CONTINUOUS
 10
0.632104
 20
0.246660
  0
VERTEX
  8
FOREGROUND
  6
CONTINUOUS
 10
0.633165
 20
0.250126
  0
VERTEX
  8
FOREGROUND
  6
CONTINUOUS
 10
0.634188
 20
0.253622
  0
VERTEX
  8
FOREGROUND
  6
CONTINUOUS
 10
0.635173
 20
0.257148
  0
VERTEX
  8
FOREGROUND
  6
CONTINUOUS
 10
0.636121
 20
0.260705
  0
VERTEX
  8
FOREGROUND
  6
CONTINUOUS
 10
0.637030
 20
0.264292
  0
VERTEX
  8
FOREGROUND
  6
CONTINUOUS
 10
0.637900
 20
0.267909
  0
VERTEX
  8
FOREGROUND
  6
CONTINUOUS
 10
0.638731
 20
0.271557
  0
VERTEX
  8
FOREGROUND
  6
CONTINUOUS
 10
0.639523
 20
0.275234
  0
VERTEX
  8
FOREGROUND
  6
CONTINUOUS
 10
0.640275
 20
0.278942
  0
VERTEX
  8
FOREGROUND
  6
CONTINUOUS
 10
0.640987
 20
0.282681
  0
VERTEX
  8
FOREGROUND
  6
CONTINUOUS
 10
0.641658
 20
0.286449
  0
VERTEX
  8
FOREGROUND
  6
CONTINUOUS
 10
0.642289
 20
0.290248
  0
VERTEX
  8
FOREGROUND
  6
CONTINUOUS
 10
0.642879
 20
0.294077
  0
VERTEX
  8
FOREGROUND
  6
CONTINUOUS
 10
0.643428
 20
0.297937
  0
VERTEX
  8
FOREGROUND
  6
CONTINUOUS
 10
0.643935
 20
0.301827
  0
VERTEX
  8
FOREGROUND
  6
CONTINUOUS
 10
0.644400
 20
0.305747
  0
VERTEX
  8
FOREGROUND
  6
CONTINUOUS
 10
0.644822
 20
0.309697
  0
VERTEX
  8
FOREGROUND
  6
CONTINUOUS
 10
0.645202
 20
0.313677
  0
VERTEX
  8
FOREGROUND
  6
CONTINUOUS
 10
0.645539
 20
0.317688
  0
VERTEX
  8
FOREGROUND
  6
CONTINUOUS
 10
0.645833
 20
0.321729
  0
VERTEX
  8
FOREGROUND
  6
CONTINUOUS
 10
0.646083
 20
0.325801
  0
VERTEX
  8
FOREGROUND
  6
CONTINUOUS
 10
0.646289
 20
0.329902
  0
VERTEX
  8
FOREGROUND
  6
CONTINUOUS
 10
0.646450
 20
0.334034
  0
VERTEX
  8
FOREGROUND
  6
CONTINUOUS
 10
0.646567
 20
0.338196
  0
VERTEX
  8
FOREGROUND
  6
CONTINUOUS
 10
0.646640
 20
0.342389
  0
VERTEX
  8
FOREGROUND
  6
CONTINUOUS
 10
0.646667
 20
0.346612
  0
SEQEND
  8
0
  0
ENDSEC
  0
EOF
