  0
SECTION
  2
HEADER
  9
$ACADVER
  1
AC1006
  9
$EXTMIN
 10
0.000000
 20
0.000000
  9
$EXTMAX
 10
4.045000
 20
4.040000
  9
$LTSCALE
 40
0.166667
  9
$PDMODE
 70
    35
  9
$PDSIZE
 40
0.133333
  0
ENDSEC
  0
SECTION
  2
TABLES
  0
TABLE
  2
LTYPE
 70
     9
  0
LTYPE
  2
CONTINUOUS
 70
    64
  3
Solid line
 72
    65
 73
     0
 40
0.000000
  0
LTYPE
  2
DASHED
 70
    64
  3
__ __ __ __ __ __ __ __ __ __ __ __ __ __ __
 72
    65
 73
     2
 40
0.001250
 49
0.000833
 49
-0.000417
  0
LTYPE
  2
HIDDEN
 70
    64
  3
 _ _ _ _ _ _ _ _ _ _ _ _ _ _ _ _ _ _ _ _ _ _
 72
    65
 73
     2
 40
0.000625
 49
0.000417
 49
-0.000208
  0
LTYPE
  2
CENTER
 70
    64
  3
____ _ ____ _ ____ _ ____ _ ____ _ ____ _ ____
 72
    65
 73
     4
 40
0.003333
 49
0.002083
 49
-0.000417
 49
0.000417
 49
-0.000417
  0
LTYPE
  2
PHANTOM
 70
    64
  3
_____ _ _ _____ _ _ _____ _ _ _____ _ _ ____
 72
    65
 73
     6
 40
0.004167
 49
0.002083
 49
-0.000417
 49
0.000417
 49
-0.000417
 49
0.000417
 49
-0.000417
  0
LTYPE
  2
DOT
 70
    64
  3
...............................................
 72
    65
 73
     2
 40
0.000417
 49
0.000000
 49
-0.000417
  0
LTYPE
  2
DASHDOT
 70
    64
  3
__ . __ . __ . __ . __ . __ . __ . __ . __ . __
 72
    65
 73
     4
 40
0.001667
 49
0.000833
 49
-0.000417
 49
0.000000
 49
-0.000417
  0
LTYPE
  2
BORDER
 70
    64
  3
__ __ . __ __ . __ __ . __ __ . __ __ . __ __
 72
    65
 73
     6
 40
0.002917
 49
0.000833
 49
-0.000417
 49
0.000833
 49
-0.000417
 49
0.000000
 49
-0.000417
  0
LTYPE
  2
DIVIDE
 70
    64
  3
__ . . __ . . __ . . __ . . __ . . __ . . __
 72
    65
 73
     6
 40
0.002083
 49
0.000833
 49
-0.000417
 49
0.000000
 49
-0.000417
 49
0.000000
 49
-0.000417
  0
LTYPE
  2
DOTDOT
 70
    64
  3
 . .  . .  . .  . .  . .  . . 
 72
    65
 73
     5
 40
0.000917
 49
-0.000417
 49
0.000000
 49
-0.000417
 49
0.000000
 49
-0.000417
  0
ENDTAB
  0
TABLE
  2
STYLE
 70
     2
  0
STYLE
 70
     0
  2
SN0
 40
0.000000
 41
0.001667
 50
0.000000
 71
     0
 42
0.000000
  3
ROMAND
  0
STYLE
 70
    68
  2
SV0
 40
0.000000
 41
0.001667
 50
0.000000
 71
     0
 42
0.000000
  3
ROMAND
  0
ENDTAB
  0
TABLE
  2
LAYER
 70
     2
  0
LAYER
  2
FOREGROUND
 70
    64
 62
     7
  6
CONTINUOUS
  0
LAYER
  2
BACKGROUND
 70
    65
 62
    -7
  6
CONTINUOUS
  0
ENDTAB
  0
ENDSEC
  0
SECTION
  2
ENTITIES
  0
POLYLINE
  8
FOREGROUND
  6
CONTINUOUS
 66
     1
 40
0.010000
 41
0.010000
 70
     1
  0
VERTEX
  8
FOREGROUND
  6
CONTINUOUS
 10
3.993333
 20
2.020000
  0
VERTEX
  8
FOREGROUND
  6
CONTINUOUS
 10
3.993199
 20
2.044547
  0
VERTEX
  8
FOREGROUND
  6
CONTINUOUS
 10
3.992835
 20
2.068940
  0
VERTEX
  8
FOREGROUND
  6
CONTINUOUS
 10
3.992243
 20
2.093179
  0
VERTEX
  8
FOREGROUND
  6
CONTINUOUS
 10
3.991425
 20
2.117264
  0
VERTEX
  8
FOREGROUND
  6
CONTINUOUS
 10
3.990382
 20
2.141196
  0
VERTEX
  8
FOREGROUND
  6
CONTINUOUS
 10
3.989116
 20
2.164973
  0
VERTEX
  8
FOREGROUND
  6
CONTINUOUS
 10
3.987627
 20
2.188597
  0
VERTEX
  8
FOREGROUND
  6
CONTINUOUS
 10
3.985918
 20
2.212066
  0
VERTEX
  8
FOREGROUND
  6
CONTINUOUS
 10
3.983990
 20
2.235382
  0
VERTEX
  8
FOREGROUND
  6
CONTINUOUS
 10
3.981844
 20
2.258544
  0
VERTEX
  8
FOREGROUND
  6
CONTINUOUS
 10
3.979482
 20
2.281552
  0
VERTEX
  8
FOREGROUND
  6
CONTINUOUS
 10
3.976905
 20
2.304406
  0
VERTEX
  8
FOREGROUND
  6
CONTINUOUS
 10
3.974115
 20
2.327106
  0
VERTEX
  8
FOREGROUND
  6
CONTINUOUS
 10
3.971112
 20
2.349653
  0
VERTEX
  8
FOREGROUND
  6
CONTINUOUS
 10
3.967900
 20
2.372045
  0
VERTEX
  8
FOREGROUND
  6
CONTINUOUS
 10
3.964478
 20
2.394284
  0
VERTEX
  8
FOREGROUND
  6
CONTINUOUS
 10
3.960849
 20
2.416369
  0
VERTEX
  8
FOREGROUND
  6
CONTINUOUS
 10
3.957013
 20
2.438299
  0
VERTEX
  8
FOREGROUND
  6
CONTINUOUS
 10
3.952973
 20
2.460076
  0
VERTEX
  8
FOREGROUND
  6
CONTINUOUS
 10
3.948729
 20
2.481699
  0
VERTEX
  8
FOREGROUND
  6
CONTINUOUS
 10
3.944284
 20
2.503168
  0
VERTEX
  8
FOREGROUND
  6
CONTINUOUS
 10
3.939638
 20
2.524484
  0
VERTEX
  8
FOREGROUND
  6
CONTINUOUS
 10
3.934793
 20
2.545645
  0
VERTEX
  8
FOREGROUND
  6
CONTINUOUS
 10
3.929751
 20
2.566652
  0
VERTEX
  8
FOREGROUND
  6
CONTINUOUS
 10
3.924513
 20
2.587506
  0
VERTEX
  8
FOREGROUND
  6
CONTINUOUS
 10
3.919080
 20
2.608206
  0
VERTEX
  8
FOREGROUND
  6
CONTINUOUS
 10
3.913454
 20
2.628751
  0
VERTEX
  8
FOREGROUND
  6
CONTINUOUS
 10
3.907636
 20
2.649143
  0
VERTEX
  8
FOREGROUND
  6
CONTINUOUS
 10
3.901628
 20
2.669381
  0
VERTEX
  8
FOREGROUND
  6
CONTINUOUS
 10
3.895430
 20
2.689465
  0
VERTEX
  8
FOREGROUND
  6
CONTINUOUS
 10
3.889046
 20
2.709396
  0
VERTEX
  8
FOREGROUND
  6
CONTINUOUS
 10
3.882475
 20
2.729172
  0
VERTEX
  8
FOREGROUND
  6
CONTINUOUS
 10
3.875720
 20
2.748794
  0
VERTEX
  8
FOREGROUND
  6
CONTINUOUS
 10
3.868782
 20
2.768263
  0
VERTEX
  8
FOREGROUND
  6
CONTINUOUS
 10
3.861663
 20
2.787578
  0
VERTEX
  8
FOREGROUND
  6
CONTINUOUS
 10
3.854363
 20
2.806738
  0
VERTEX
  8
FOREGROUND
  6
CONTINUOUS
 10
3.846884
 20
2.825745
  0
VERTEX
  8
FOREGROUND
  6
CONTINUOUS
 10
3.839228
 20
2.844598
  0
VERTEX
  8
FOREGROUND
  6
CONTINUOUS
 10
3.831396
 20
2.863297
  0
VERTEX
  8
FOREGROUND
  6
CONTINUOUS
 10
3.823389
 20
2.881843
  0
VERTEX
  8
FOREGROUND
  6
CONTINUOUS
 10
3.815210
 20
2.900234
  0
VERTEX
  8
FOREGROUND
  6
CONTINUOUS
 10
3.806859
 20
2.918471
  0
VERTEX
  8
FOREGROUND
  6
CONTINUOUS
 10
3.798338
 20
2.936555
  0
VERTEX
  8
FOREGROUND
  6
CONTINUOUS
 10
3.789648
 20
2.954485
  0
VERTEX
  8
FOREGROUND
  6
CONTINUOUS
 10
3.780791
 20
2.972260
  0
VERTEX
  8
FOREGROUND
  6
CONTINUOUS
 10
3.771768
 20
2.989882
  0
VERTEX
  8
FOREGROUND
  6
CONTINUOUS
 10
3.762581
 20
3.007350
  0
VERTEX
  8
FOREGROUND
  6
CONTINUOUS
 10
3.753231
 20
3.024664
  0
VERTEX
  8
FOREGROUND
  6
CONTINUOUS
 10
3.743719
 20
3.041824
  0
VERTEX
  8
FOREGROUND
  6
CONTINUOUS
 10
3.734048
 20
3.058831
  0
VERTEX
  8
FOREGROUND
  6
CONTINUOUS
 10
3.724217
 20
3.075683
  0
VERTEX
  8
FOREGROUND
  6
CONTINUOUS
 10
3.714230
 20
3.092382
  0
VERTEX
  8
FOREGROUND
  6
CONTINUOUS
 10
3.704087
 20
3.108926
  0
VERTEX
  8
FOREGROUND
  6
CONTINUOUS
 10
3.693790
 20
3.125317
  0
VERTEX
  8
FOREGROUND
  6
CONTINUOUS
 10
3.683340
 20
3.141554
  0
VERTEX
  8
FOREGROUND
  6
CONTINUOUS
 10
3.672738
 20
3.157637
  0
VERTEX
  8
FOREGROUND
  6
CONTINUOUS
 10
3.661987
 20
3.173566
  0
VERTEX
  8
FOREGROUND
  6
CONTINUOUS
 10
3.651087
 20
3.189341
  0
VERTEX
  8
FOREGROUND
  6
CONTINUOUS
 10
3.640040
 20
3.204962
  0
VERTEX
  8
FOREGROUND
  6
CONTINUOUS
 10
3.628847
 20
3.220430
  0
VERTEX
  8
FOREGROUND
  6
CONTINUOUS
 10
3.617510
 20
3.235743
  0
VERTEX
  8
FOREGROUND
  6
CONTINUOUS
 10
3.606031
 20
3.250903
  0
VERTEX
  8
FOREGROUND
  6
CONTINUOUS
 10
3.594410
 20
3.265908
  0
VERTEX
  8
FOREGROUND
  6
CONTINUOUS
 10
3.582649
 20
3.280760
  0
VERTEX
  8
FOREGROUND
  6
CONTINUOUS
 10
3.570750
 20
3.295458
  0
VERTEX
  8
FOREGROUND
  6
CONTINUOUS
 10
3.558714
 20
3.310002
  0
VERTEX
  8
FOREGROUND
  6
CONTINUOUS
 10
3.546542
 20
3.324392
  0
VERTEX
  8
FOREGROUND
  6
CONTINUOUS
 10
3.534237
 20
3.338628
  0
VERTEX
  8
FOREGROUND
  6
CONTINUOUS
 10
3.521798
 20
3.352711
  0
VERTEX
  8
FOREGROUND
  6
CONTINUOUS
 10
3.509229
 20
3.366639
  0
VERTEX
  8
FOREGROUND
  6
CONTINUOUS
 10
3.496530
 20
3.380414
  0
VERTEX
  8
FOREGROUND
  6
CONTINUOUS
 10
3.483702
 20
3.394034
  0
VERTEX
  8
FOREGROUND
  6
CONTINUOUS
 10
3.470748
 20
3.407501
  0
VERTEX
  8
FOREGROUND
  6
CONTINUOUS
 10
3.457668
 20
3.420814
  0
VERTEX
  8
FOREGROUND
  6
CONTINUOUS
 10
3.444464
 20
3.433973
  0
VERTEX
  8
FOREGROUND
  6
CONTINUOUS
 10
3.431138
 20
3.446978
  0
VERTEX
  8
FOREGROUND
  6
CONTINUOUS
 10
3.417690
 20
3.459829
  0
VERTEX
  8
FOREGROUND
  6
CONTINUOUS
 10
3.404123
 20
3.472527
  0
VERTEX
  8
FOREGROUND
  6
CONTINUOUS
 10
3.390437
 20
3.485070
  0
VERTEX
  8
FOREGROUND
  6
CONTINUOUS
 10
3.376635
 20
3.497460
  0
VERTEX
  8
FOREGROUND
  6
CONTINUOUS
 10
3.362718
 20
3.509695
  0
VERTEX
  8
FOREGROUND
  6
CONTINUOUS
 10
3.348686
 20
3.521777
  0
VERTEX
  8
FOREGROUND
  6
CONTINUOUS
 10
3.334542
 20
3.533705
  0
VERTEX
  8
FOREGROUND
  6
CONTINUOUS
 10
3.320287
 20
3.545479
  0
VERTEX
  8
FOREGROUND
  6
CONTINUOUS
 10
3.305923
 20
3.557099
  0
VERTEX
  8
FOREGROUND
  6
CONTINUOUS
 10
3.291450
 20
3.568565
  0
VERTEX
  8
FOREGROUND
  6
CONTINUOUS
 10
3.276871
 20
3.579877
  0
VERTEX
  8
FOREGROUND
  6
CONTINUOUS
 10
3.262187
 20
3.591036
  0
VERTEX
  8
FOREGROUND
  6
CONTINUOUS
 10
3.247398
 20
3.602040
  0
VERTEX
  8
FOREGROUND
  6
CONTINUOUS
 10
3.232508
 20
3.612891
  0
VERTEX
  8
FOREGROUND
  6
CONTINUOUS
 10
3.217516
 20
3.623587
  0
VERTEX
  8
FOREGROUND
  6
CONTINUOUS
 10
3.202425
 20
3.634130
  0
VERTEX
  8
FOREGROUND
  6
CONTINUOUS
 10
3.187236
 20
3.644519
  0
VERTEX
  8
FOREGROUND
  6
CONTINUOUS
 10
3.171950
 20
3.654754
  0
VERTEX
  8
FOREGROUND
  6
CONTINUOUS
 10
3.156569
 20
3.664835
  0
VERTEX
  8
FOREGROUND
  6
CONTINUOUS
 10
3.141094
 20
3.674762
  0
VERTEX
  8
FOREGROUND
  6
CONTINUOUS
 10
3.125527
 20
3.684536
  0
VERTEX
  8
FOREGROUND
  6
CONTINUOUS
 10
3.109870
 20
3.694155
  0
VERTEX
  8
FOREGROUND
  6
CONTINUOUS
 10
3.094123
 20
3.703620
  0
VERTEX
  8
FOREGROUND
  6
CONTINUOUS
 10
3.078288
 20
3.712932
  0
VERTEX
  8
FOREGROUND
  6
CONTINUOUS
 10
3.062366
 20
3.722090
  0
VERTEX
  8
FOREGROUND
  6
CONTINUOUS
 10
3.046359
 20
3.731094
  0
VERTEX
  8
FOREGROUND
  6
CONTINUOUS
 10
3.030269
 20
3.739944
  0
VERTEX
  8
FOREGROUND
  6
CONTINUOUS
 10
3.014097
 20
3.748640
  0
VERTEX
  8
FOREGROUND
  6
CONTINUOUS
 10
2.997843
 20
3.757182
  0
VERTEX
  8
FOREGROUND
  6
CONTINUOUS
 10
2.981511
 20
3.765570
  0
VERTEX
  8
FOREGROUND
  6
CONTINUOUS
 10
2.965101
 20
3.773804
  0
VERTEX
  8
FOREGROUND
  6
CONTINUOUS
 10
2.948614
 20
3.781885
  0
VERTEX
  8
FOREGROUND
  6
CONTINUOUS
 10
2.932052
 20
3.789811
  0
VERTEX
  8
FOREGROUND
  6
CONTINUOUS
 10
2.915417
 20
3.797584
  0
VERTEX
  8
FOREGROUND
  6
CONTINUOUS
 10
2.898709
 20
3.805203
  0
VERTEX
  8
FOREGROUND
  6
CONTINUOUS
 10
2.881931
 20
3.812668
  0
VERTEX
  8
FOREGROUND
  6
CONTINUOUS
 10
2.865084
 20
3.819979
  0
VERTEX
  8
FOREGROUND
  6
CONTINUOUS
 10
2.848169
 20
3.827136
  0
VERTEX
  8
FOREGROUND
  6
CONTINUOUS
 10
2.831188
 20
3.834139
  0
VERTEX
  8
FOREGROUND
  6
CONTINUOUS
 10
2.814142
 20
3.840988
  0
VERTEX
  8
FOREGROUND
  6
CONTINUOUS
 10
2.797032
 20
3.847684
  0
VERTEX
  8
FOREGROUND
  6
CONTINUOUS
 10
2.779861
 20
3.854225
  0
VERTEX
  8
FOREGROUND
  6
CONTINUOUS
 10
2.762628
 20
3.860613
  0
VERTEX
  8
FOREGROUND
  6
CONTINUOUS
 10
2.745337
 20
3.866847
  0
VERTEX
  8
FOREGROUND
  6
CONTINUOUS
 10
2.727988
 20
3.872926
  0
VERTEX
  8
FOREGROUND
  6
CONTINUOUS
 10
2.710583
 20
3.878852
  0
VERTEX
  8
FOREGROUND
  6
CONTINUOUS
 10
2.693123
 20
3.884624
  0
VERTEX
  8
FOREGROUND
  6
CONTINUOUS
 10
2.675610
 20
3.890242
  0
VERTEX
  8
FOREGROUND
  6
CONTINUOUS
 10
2.658044
 20
3.895707
  0
VERTEX
  8
FOREGROUND
  6
CONTINUOUS
 10
2.640429
 20
3.901017
  0
VERTEX
  8
FOREGROUND
  6
CONTINUOUS
 10
2.622764
 20
3.906173
  0
VERTEX
  8
FOREGROUND
  6
CONTINUOUS
 10
2.605052
 20
3.911176
  0
VERTEX
  8
FOREGROUND
  6
CONTINUOUS
 10
2.587293
 20
3.916025
  0
VERTEX
  8
FOREGROUND
  6
CONTINUOUS
 10
2.569490
 20
3.920719
  0
VERTEX
  8
FOREGROUND
  6
CONTINUOUS
 10
2.551644
 20
3.925260
  0
VERTEX
  8
FOREGROUND
  6
CONTINUOUS
 10
2.533755
 20
3.929647
  0
VERTEX
  8
FOREGROUND
  6
CONTINUOUS
 10
2.515827
 20
3.933880
  0
VERTEX
  8
FOREGROUND
  6
CONTINUOUS
 10
2.497859
 20
3.937959
  0
VERTEX
  8
FOREGROUND
  6
CONTINUOUS
 10
2.479854
 20
3.941885
  0
VERTEX
  8
FOREGROUND
  6
CONTINUOUS
 10
2.461813
 20
3.945656
  0
VERTEX
  8
FOREGROUND
  6
CONTINUOUS
 10
2.443737
 20
3.949273
  0
VERTEX
  8
FOREGROUND
  6
CONTINUOUS
 10
2.425629
 20
3.952737
  0
VERTEX
  8
FOREGROUND
  6
CONTINUOUS
 10
2.407488
 20
3.956047
  0
VERTEX
  8
FOREGROUND
  6
CONTINUOUS
 10
2.389317
 20
3.959202
  0
VERTEX
  8
FOREGROUND
  6
CONTINUOUS
 10
2.371117
 20
3.962204
  0
VERTEX
  8
FOREGROUND
  6
CONTINUOUS
 10
2.352890
 20
3.965052
  0
VERTEX
  8
FOREGROUND
  6
CONTINUOUS
 10
2.334637
 20
3.967746
  0
VERTEX
  8
FOREGROUND
  6
CONTINUOUS
 10
2.316360
 20
3.970287
  0
VERTEX
  8
FOREGROUND
  6
CONTINUOUS
 10
2.298059
 20
3.972673
  0
VERTEX
  8
FOREGROUND
  6
CONTINUOUS
 10
2.279737
 20
3.974905
  0
VERTEX
  8
FOREGROUND
  6
CONTINUOUS
 10
2.261394
 20
3.976984
  0
VERTEX
  8
FOREGROUND
  6
CONTINUOUS
 10
2.243033
 20
3.978908
  0
VERTEX
  8
FOREGROUND
  6
CONTINUOUS
 10
2.224655
 20
3.980679
  0
VERTEX
  8
FOREGROUND
  6
CONTINUOUS
 10
2.206260
 20
3.982296
  0
VERTEX
  8
FOREGROUND
  6
CONTINUOUS
 10
2.187851
 20
3.983759
  0
VERTEX
  8
FOREGROUND
  6
CONTINUOUS
 10
2.169430
 20
3.985068
  0
VERTEX
  8
FOREGROUND
  6
CONTINUOUS
 10
2.150996
 20
3.986223
  0
VERTEX
  8
FOREGROUND
  6
CONTINUOUS
 10
2.132553
 20
3.987224
  0
VERTEX
  8
FOREGROUND
  6
CONTINUOUS
 10
2.114101
 20
3.988071
  0
VERTEX
  8
FOREGROUND
  6
CONTINUOUS
 10
2.095642
 20
3.988765
  0
VERTEX
  8
FOREGROUND
  6
CONTINUOUS
 10
2.077176
 20
3.989304
  0
VERTEX
  8
FOREGROUND
  6
CONTINUOUS
 10
2.058707
 20
3.989690
  0
VERTEX
  8
FOREGROUND
  6
CONTINUOUS
 10
2.040235
 20
3.989921
  0
VERTEX
  8
FOREGROUND
  6
CONTINUOUS
 10
2.021761
 20
3.989999
  0
VERTEX
  8
FOREGROUND
  6
CONTINUOUS
 10
2.003287
 20
3.989923
  0
VERTEX
  8
FOREGROUND
  6
CONTINUOUS
 10
1.984815
 20
3.989693
  0
VERTEX
  8
FOREGROUND
  6
CONTINUOUS
 10
1.966345
 20
3.989309
  0
VERTEX
  8
FOREGROUND
  6
CONTINUOUS
 10
1.947880
 20
3.988772
  0
VERTEX
  8
FOREGROUND
  6
CONTINUOUS
 10
1.929421
 20
3.988080
  0
VERTEX
  8
FOREGROUND
  6
CONTINUOUS
 10
1.910969
 20
3.987234
  0
VERTEX
  8
FOREGROUND
  6
CONTINUOUS
 10
1.892525
 20
3.986235
  0
VERTEX
  8
FOREGROUND
  6
CONTINUOUS
 10
1.874092
 20
3.985081
  0
VERTEX
  8
FOREGROUND
  6
CONTINUOUS
 10
1.855670
 20
3.983774
  0
VERTEX
  8
FOREGROUND
  6
CONTINUOUS
 10
1.837261
 20
3.982313
  0
VERTEX
  8
FOREGROUND
  6
CONTINUOUS
 10
1.818866
 20
3.980698
  0
VERTEX
  8
FOREGROUND
  6
CONTINUOUS
 10
1.800488
 20
3.978929
  0
VERTEX
  8
FOREGROUND
  6
CONTINUOUS
 10
1.782126
 20
3.977006
  0
VERTEX
  8
FOREGROUND
  6
CONTINUOUS
 10
1.763784
 20
3.974929
  0
VERTEX
  8
FOREGROUND
  6
CONTINUOUS
 10
1.745461
 20
3.972698
  0
VERTEX
  8
FOREGROUND
  6
CONTINUOUS
 10
1.727160
 20
3.970314
  0
VERTEX
  8
FOREGROUND
  6
CONTINUOUS
 10
1.708883
 20
3.967775
  0
VERTEX
  8
FOREGROUND
  6
CONTINUOUS
 10
1.690629
 20
3.965083
  0
VERTEX
  8
FOREGROUND
  6
CONTINUOUS
 10
1.672402
 20
3.962237
  0
VERTEX
  8
FOREGROUND
  6
CONTINUOUS
 10
1.654202
 20
3.959237
  0
VERTEX
  8
FOREGROUND
  6
CONTINUOUS
 10
1.636031
 20
3.956082
  0
VERTEX
  8
FOREGROUND
  6
CONTINUOUS
 10
1.617890
 20
3.952774
  0
VERTEX
  8
FOREGROUND
  6
CONTINUOUS
 10
1.599781
 20
3.949313
  0
VERTEX
  8
FOREGROUND
  6
CONTINUOUS
 10
1.581705
 20
3.945697
  0
VERTEX
  8
FOREGROUND
  6
CONTINUOUS
 10
1.563663
 20
3.941927
  0
VERTEX
  8
FOREGROUND
  6
CONTINUOUS
 10
1.545658
 20
3.938003
  0
VERTEX
  8
FOREGROUND
  6
CONTINUOUS
 10
1.527690
 20
3.933926
  0
VERTEX
  8
FOREGROUND
  6
CONTINUOUS
 10
1.509761
 20
3.929695
  0
VERTEX
  8
FOREGROUND
  6
CONTINUOUS
 10
1.491872
 20
3.925309
  0
VERTEX
  8
FOREGROUND
  6
CONTINUOUS
 10
1.474025
 20
3.920770
  0
VERTEX
  8
FOREGROUND
  6
CONTINUOUS
 10
1.456222
 20
3.916077
  0
VERTEX
  8
FOREGROUND
  6
CONTINUOUS
 10
1.438463
 20
3.911230
  0
VERTEX
  8
FOREGROUND
  6
CONTINUOUS
 10
1.420750
 20
3.906229
  0
VERTEX
  8
FOREGROUND
  6
CONTINUOUS
 10
1.403085
 20
3.901074
  0
VERTEX
  8
FOREGROUND
  6
CONTINUOUS
 10
1.385469
 20
3.895766
  0
VERTEX
  8
FOREGROUND
  6
CONTINUOUS
 10
1.367903
 20
3.890303
  0
VERTEX
  8
FOREGROUND
  6
CONTINUOUS
 10
1.350389
 20
3.884686
  0
VERTEX
  8
FOREGROUND
  6
CONTINUOUS
 10
1.332928
 20
3.878916
  0
VERTEX
  8
FOREGROUND
  6
CONTINUOUS
 10
1.315523
 20
3.872992
  0
VERTEX
  8
FOREGROUND
  6
CONTINUOUS
 10
1.298173
 20
3.866914
  0
VERTEX
  8
FOREGROUND
  6
CONTINUOUS
 10
1.280881
 20
3.860681
  0
VERTEX
  8
FOREGROUND
  6
CONTINUOUS
 10
1.263648
 20
3.854295
  0
VERTEX
  8
FOREGROUND
  6
CONTINUOUS
 10
1.246476
 20
3.847756
  0
VERTEX
  8
FOREGROUND
  6
CONTINUOUS
 10
1.229366
 20
3.841062
  0
VERTEX
  8
FOREGROUND
  6
CONTINUOUS
 10
1.212319
 20
3.834214
  0
VERTEX
  8
FOREGROUND
  6
CONTINUOUS
 10
1.195337
 20
3.827212
  0
VERTEX
  8
FOREGROUND
  6
CONTINUOUS
 10
1.178421
 20
3.820057
  0
VERTEX
  8
FOREGROUND
  6
CONTINUOUS
 10
1.161574
 20
3.812747
  0
VERTEX
  8
FOREGROUND
  6
CONTINUOUS
 10
1.144795
 20
3.805284
  0
VERTEX
  8
FOREGROUND
  6
CONTINUOUS
 10
1.128087
 20
3.797667
  0
VERTEX
  8
FOREGROUND
  6
CONTINUOUS
 10
1.111451
 20
3.789896
  0
VERTEX
  8
FOREGROUND
  6
CONTINUOUS
 10
1.094888
 20
3.781971
  0
VERTEX
  8
FOREGROUND
  6
CONTINUOUS
 10
1.078401
 20
3.773892
  0
VERTEX
  8
FOREGROUND
  6
CONTINUOUS
 10
1.061990
 20
3.765659
  0
VERTEX
  8
FOREGROUND
  6
CONTINUOUS
 10
1.045656
 20
3.757272
  0
VERTEX
  8
FOREGROUND
  6
CONTINUOUS
 10
1.029402
 20
3.748732
  0
VERTEX
  8
FOREGROUND
  6
CONTINUOUS
 10
1.013229
 20
3.740037
  0
VERTEX
  8
FOREGROUND
  6
CONTINUOUS
 10
0.997138
 20
3.731189
  0
VERTEX
  8
FOREGROUND
  6
CONTINUOUS
 10
0.981130
 20
3.722186
  0
VERTEX
  8
FOREGROUND
  6
CONTINUOUS
 10
0.965208
 20
3.713030
  0
VERTEX
  8
FOREGROUND
  6
CONTINUOUS
 10
0.949372
 20
3.703720
  0
VERTEX
  8
FOREGROUND
  6
CONTINUOUS
 10
0.933624
 20
3.694256
  0
VERTEX
  8
FOREGROUND
  6
CONTINUOUS
 10
0.917965
 20
3.684638
  0
VERTEX
  8
FOREGROUND
  6
CONTINUOUS
 10
0.902397
 20
3.674866
  0
VERTEX
  8
FOREGROUND
  6
CONTINUOUS
 10
0.886922
 20
3.664940
  0
VERTEX
  8
FOREGROUND
  6
CONTINUOUS
 10
0.871540
 20
3.654860
  0
VERTEX
  8
FOREGROUND
  6
CONTINUOUS
 10
0.856253
 20
3.644627
  0
VERTEX
  8
FOREGROUND
  6
CONTINUOUS
 10
0.841063
 20
3.634239
  0
VERTEX
  8
FOREGROUND
  6
CONTINUOUS
 10
0.825971
 20
3.623698
  0
VERTEX
  8
FOREGROUND
  6
CONTINUOUS
 10
0.810978
 20
3.613003
  0
VERTEX
  8
FOREGROUND
  6
CONTINUOUS
 10
0.796087
 20
3.602153
  0
VERTEX
  8
FOREGROUND
  6
CONTINUOUS
 10
0.781297
 20
3.591150
  0
VERTEX
  8
FOREGROUND
  6
CONTINUOUS
 10
0.766612
 20
3.579993
  0
VERTEX
  8
FOREGROUND
  6
CONTINUOUS
 10
0.752031
 20
3.568682
  0
VERTEX
  8
FOREGROUND
  6
CONTINUOUS
 10
0.737557
 20
3.557218
  0
VERTEX
  8
FOREGROUND
  6
CONTINUOUS
 10
0.723192
 20
3.545599
  0
VERTEX
  8
FOREGROUND
  6
CONTINUOUS
 10
0.708936
 20
3.533826
  0
VERTEX
  8
FOREGROUND
  6
CONTINUOUS
 10
0.694791
 20
3.521900
  0
VERTEX
  8
FOREGROUND
  6
CONTINUOUS
 10
0.680758
 20
3.509819
  0
VERTEX
  8
FOREGROUND
  6
CONTINUOUS
 10
0.666840
 20
3.497585
  0
VERTEX
  8
FOREGROUND
  6
CONTINUOUS
 10
0.653036
 20
3.485197
  0
VERTEX
  8
FOREGROUND
  6
CONTINUOUS
 10
0.639350
 20
3.472655
  0
VERTEX
  8
FOREGROUND
  6
CONTINUOUS
 10
0.625781
 20
3.459959
  0
VERTEX
  8
FOREGROUND
  6
CONTINUOUS
 10
0.612332
 20
3.447109
  0
VERTEX
  8
FOREGROUND
  6
CONTINUOUS
 10
0.599005
 20
3.434105
  0
VERTEX
  8
FOREGROUND
  6
CONTINUOUS
 10
0.585800
 20
3.420947
  0
VERTEX
  8
FOREGROUND
  6
CONTINUOUS
 10
0.572719
 20
3.407635
  0
VERTEX
  8
FOREGROUND
  6
CONTINUOUS
 10
0.559763
 20
3.394170
  0
VERTEX
  8
FOREGROUND
  6
CONTINUOUS
 10
0.546934
 20
3.380550
  0
VERTEX
  8
FOREGROUND
  6
CONTINUOUS
 10
0.534233
 20
3.366777
  0
VERTEX
  8
FOREGROUND
  6
CONTINUOUS
 10
0.521663
 20
3.352850
  0
VERTEX
  8
FOREGROUND
  6
CONTINUOUS
 10
0.509223
 20
3.338768
  0
VERTEX
  8
FOREGROUND
  6
CONTINUOUS
 10
0.496916
 20
3.324533
  0
VERTEX
  8
FOREGROUND
  6
CONTINUOUS
 10
0.484743
 20
3.310144
  0
VERTEX
  8
FOREGROUND
  6
CONTINUOUS
 10
0.472705
 20
3.295601
  0
VERTEX
  8
FOREGROUND
  6
CONTINUOUS
 10
0.460805
 20
3.280905
  0
VERTEX
  8
FOREGROUND
  6
CONTINUOUS
 10
0.449043
 20
3.266054
  0
VERTEX
  8
FOREGROUND
  6
CONTINUOUS
 10
0.437421
 20
3.251049
  0
VERTEX
  8
FOREGROUND
  6
CONTINUOUS
 10
0.425940
 20
3.235891
  0
VERTEX
  8
FOREGROUND
  6
CONTINUOUS
 10
0.414601
 20
3.220578
  0
VERTEX
  8
FOREGROUND
  6
CONTINUOUS
 10
0.403407
 20
3.205112
  0
VERTEX
  8
FOREGROUND
  6
CONTINUOUS
 10
0.392359
 20
3.189492
  0
VERTEX
  8
FOREGROUND
  6
CONTINUOUS
 10
0.381457
 20
3.173718
  0
VERTEX
  8
FOREGROUND
  6
CONTINUOUS
 10
0.370704
 20
3.157790
  0
VERTEX
  8
FOREGROUND
  6
CONTINUOUS
 10
0.360101
 20
3.141708
  0
VERTEX
  8
FOREGROUND
  6
CONTINUOUS
 10
0.349649
 20
3.125472
  0
VERTEX
  8
FOREGROUND
  6
CONTINUOUS
 10
0.339351
 20
3.109082
  0
VERTEX
  8
FOREGROUND
  6
CONTINUOUS
 10
0.329206
 20
3.092538
  0
VERTEX
  8
FOREGROUND
  6
CONTINUOUS
 10
0.319217
 20
3.075841
  0
VERTEX
  8
FOREGROUND
  6
CONTINUOUS
 10
0.309385
 20
3.058989
  0
VERTEX
  8
FOREGROUND
  6
CONTINUOUS
 10
0.299712
 20
3.041984
  0
VERTEX
  8
FOREGROUND
  6
CONTINUOUS
 10
0.290199
 20
3.024825
  0
VERTEX
  8
FOREGROUND
  6
CONTINUOUS
 10
0.280847
 20
3.007511
  0
VERTEX
  8
FOREGROUND
  6
CONTINUOUS
 10
0.271658
 20
2.990044
  0
VERTEX
  8
FOREGROUND
  6
CONTINUOUS
 10
0.262634
 20
2.972423
  0
VERTEX
  8
FOREGROUND
  6
CONTINUOUS
 10
0.253775
 20
2.954648
  0
VERTEX
  8
FOREGROUND
  6
CONTINUOUS
 10
0.245083
 20
2.936719
  0
VERTEX
  8
FOREGROUND
  6
CONTINUOUS
 10
0.236560
 20
2.918637
  0
VERTEX
  8
FOREGROUND
  6
CONTINUOUS
 10
0.228208
 20
2.900400
  0
VERTEX
  8
FOREGROUND
  6
CONTINUOUS
 10
0.220027
 20
2.882009
  0
VERTEX
  8
FOREGROUND
  6
CONTINUOUS
 10
0.212018
 20
2.863465
  0
VERTEX
  8
FOREGROUND
  6
CONTINUOUS
 10
0.204185
 20
2.844767
  0
VERTEX
  8
FOREGROUND
  6
CONTINUOUS
 10
0.196527
 20
2.825914
  0
VERTEX
  8
FOREGROUND
  6
CONTINUOUS
 10
0.189046
 20
2.806908
  0
VERTEX
  8
FOREGROUND
  6
CONTINUOUS
 10
0.181744
 20
2.787748
  0
VERTEX
  8
FOREGROUND
  6
CONTINUOUS
 10
0.174623
 20
2.768434
  0
VERTEX
  8
FOREGROUND
  6
CONTINUOUS
 10
0.167683
 20
2.748966
  0
VERTEX
  8
FOREGROUND
  6
CONTINUOUS
 10
0.160926
 20
2.729344
  0
VERTEX
  8
FOREGROUND
  6
CONTINUOUS
 10
0.154353
 20
2.709569
  0
VERTEX
  8
FOREGROUND
  6
CONTINUOUS
 10
0.147967
 20
2.689639
  0
VERTEX
  8
FOREGROUND
  6
CONTINUOUS
 10
0.141768
 20
2.669555
  0
VERTEX
  8
FOREGROUND
  6
CONTINUOUS
 10
0.135758
 20
2.649318
  0
VERTEX
  8
FOREGROUND
  6
CONTINUOUS
 10
0.129938
 20
2.628927
  0
VERTEX
  8
FOREGROUND
  6
CONTINUOUS
 10
0.124310
 20
2.608381
  0
VERTEX
  8
FOREGROUND
  6
CONTINUOUS
 10
0.118875
 20
2.587682
  0
VERTEX
  8
FOREGROUND
  6
CONTINUOUS
 10
0.113635
 20
2.566829
  0
VERTEX
  8
FOREGROUND
  6
CONTINUOUS
 10
0.108590
 20
2.545822
  0
VERTEX
  8
FOREGROUND
  6
CONTINUOUS
 10
0.103744
 20
2.524661
  0
VERTEX
  8
FOREGROUND
  6
CONTINUOUS
 10
0.099096
 20
2.503346
  0
VERTEX
  8
FOREGROUND
  6
CONTINUOUS
 10
0.094648
 20
2.481878
  0
VERTEX
  8
FOREGROUND
  6
CONTINUOUS
 10
0.090403
 20
2.460255
  0
VERTEX
  8
FOREGROUND
  6
CONTINUOUS
 10
0.086360
 20
2.438479
  0
VERTEX
  8
FOREGROUND
  6
CONTINUOUS
 10
0.082523
 20
2.416548
  0
VERTEX
  8
FOREGROUND
  6
CONTINUOUS
 10
0.078891
 20
2.394464
  0
VERTEX
  8
FOREGROUND
  6
CONTINUOUS
 10
0.075467
 20
2.372225
  0
VERTEX
  8
FOREGROUND
  6
CONTINUOUS
 10
0.072252
 20
2.349833
  0
VERTEX
  8
FOREGROUND
  6
CONTINUOUS
 10
0.069248
 20
2.327287
  0
VERTEX
  8
FOREGROUND
  6
CONTINUOUS
 10
0.066456
 20
2.304587
  0
VERTEX
  8
FOREGROUND
  6
CONTINUOUS
 10
0.063876
 20
2.281733
  0
VERTEX
  8
FOREGROUND
  6
CONTINUOUS
 10
0.061512
 20
2.258726
  0
VERTEX
  8
FOREGROUND
  6
CONTINUOUS
 10
0.059364
 20
2.235564
  0
VERTEX
  8
FOREGROUND
  6
CONTINUOUS
 10
0.057434
 20
2.212248
  0
VERTEX
  8
FOREGROUND
  6
CONTINUOUS
 10
0.055722
 20
2.188779
  0
VERTEX
  8
FOREGROUND
  6
CONTINUOUS
 10
0.054232
 20
2.165155
  0
VERTEX
  8
FOREGROUND
  6
CONTINUOUS
 10
0.052963
 20
2.141378
  0
VERTEX
  8
FOREGROUND
  6
CONTINUOUS
 10
0.051918
 20
2.117447
  0
VERTEX
  8
FOREGROUND
  6
CONTINUOUS
 10
0.051097
 20
2.093361
  0
VERTEX
  8
FOREGROUND
  6
CONTINUOUS
 10
0.050503
 20
2.069122
  0
VERTEX
  8
FOREGROUND
  6
CONTINUOUS
 10
0.050137
 20
2.044729
  0
VERTEX
  8
FOREGROUND
  6
CONTINUOUS
 10
0.050000
 20
2.020183
  0
VERTEX
  8
FOREGROUND
  6
CONTINUOUS
 10
0.050000
 20
2.020183
  0
VERTEX
  8
FOREGROUND
  6
CONTINUOUS
 10
0.050132
 20
1.995636
  0
VERTEX
  8
FOREGROUND
  6
CONTINUOUS
 10
0.050494
 20
1.971243
  0
VERTEX
  8
FOREGROUND
  6
CONTINUOUS
 10
0.051084
 20
1.947003
  0
VERTEX
  8
FOREGROUND
  6
CONTINUOUS
 10
0.051899
 20
1.922918
  0
VERTEX
  8
FOREGROUND
  6
CONTINUOUS
 10
0.052940
 20
1.898987
  0
VERTEX
  8
FOREGROUND
  6
CONTINUOUS
 10
0.054204
 20
1.875209
  0
VERTEX
  8
FOREGROUND
  6
CONTINUOUS
 10
0.055691
 20
1.851585
  0
VERTEX
  8
FOREGROUND
  6
CONTINUOUS
 10
0.057397
 20
1.828115
  0
VERTEX
  8
FOREGROUND
  6
CONTINUOUS
 10
0.059323
 20
1.804799
  0
VERTEX
  8
FOREGROUND
  6
CONTINUOUS
 10
0.061467
 20
1.781637
  0
VERTEX
  8
FOREGROUND
  6
CONTINUOUS
 10
0.063827
 20
1.758629
  0
VERTEX
  8
FOREGROUND
  6
CONTINUOUS
 10
0.066402
 20
1.735775
  0
VERTEX
  8
FOREGROUND
  6
CONTINUOUS
 10
0.069190
 20
1.713074
  0
VERTEX
  8
FOREGROUND
  6
CONTINUOUS
 10
0.072190
 20
1.690528
  0
VERTEX
  8
FOREGROUND
  6
CONTINUOUS
 10
0.075401
 20
1.668135
  0
VERTEX
  8
FOREGROUND
  6
CONTINUOUS
 10
0.078821
 20
1.645896
  0
VERTEX
  8
FOREGROUND
  6
CONTINUOUS
 10
0.082448
 20
1.623811
  0
VERTEX
  8
FOREGROUND
  6
CONTINUOUS
 10
0.086281
 20
1.601880
  0
VERTEX
  8
FOREGROUND
  6
CONTINUOUS
 10
0.090320
 20
1.580103
  0
VERTEX
  8
FOREGROUND
  6
CONTINUOUS
 10
0.094561
 20
1.558479
  0
VERTEX
  8
FOREGROUND
  6
CONTINUOUS
 10
0.099005
 20
1.537010
  0
VERTEX
  8
FOREGROUND
  6
CONTINUOUS
 10
0.103648
 20
1.515694
  0
VERTEX
  8
FOREGROUND
  6
CONTINUOUS
 10
0.108491
 20
1.494532
  0
VERTEX
  8
FOREGROUND
  6
CONTINUOUS
 10
0.113532
 20
1.473524
  0
VERTEX
  8
FOREGROUND
  6
CONTINUOUS
 10
0.118768
 20
1.452670
  0
VERTEX
  8
FOREGROUND
  6
CONTINUOUS
 10
0.124199
 20
1.431970
  0
VERTEX
  8
FOREGROUND
  6
CONTINUOUS
 10
0.129823
 20
1.411424
  0
VERTEX
  8
FOREGROUND
  6
CONTINUOUS
 10
0.135639
 20
1.391031
  0
VERTEX
  8
FOREGROUND
  6
CONTINUOUS
 10
0.141646
 20
1.370793
  0
VERTEX
  8
FOREGROUND
  6
CONTINUOUS
 10
0.147841
 20
1.350708
  0
VERTEX
  8
FOREGROUND
  6
CONTINUOUS
 10
0.154223
 20
1.330777
  0
VERTEX
  8
FOREGROUND
  6
CONTINUOUS
 10
0.160792
 20
1.311000
  0
VERTEX
  8
FOREGROUND
  6
CONTINUOUS
 10
0.167545
 20
1.291377
  0
VERTEX
  8
FOREGROUND
  6
CONTINUOUS
 10
0.174482
 20
1.271908
  0
VERTEX
  8
FOREGROUND
  6
CONTINUOUS
 10
0.181600
 20
1.252593
  0
VERTEX
  8
FOREGROUND
  6
CONTINUOUS
 10
0.188898
 20
1.233431
  0
VERTEX
  8
FOREGROUND
  6
CONTINUOUS
 10
0.196375
 20
1.214424
  0
VERTEX
  8
FOREGROUND
  6
CONTINUOUS
 10
0.204029
 20
1.195570
  0
VERTEX
  8
FOREGROUND
  6
CONTINUOUS
 10
0.211859
 20
1.176870
  0
VERTEX
  8
FOREGROUND
  6
CONTINUOUS
 10
0.219864
 20
1.158324
  0
VERTEX
  8
FOREGROUND
  6
CONTINUOUS
 10
0.228042
 20
1.139932
  0
VERTEX
  8
FOREGROUND
  6
CONTINUOUS
 10
0.236391
 20
1.121694
  0
VERTEX
  8
FOREGROUND
  6
CONTINUOUS
 10
0.244911
 20
1.103610
  0
VERTEX
  8
FOREGROUND
  6
CONTINUOUS
 10
0.253599
 20
1.085679
  0
VERTEX
  8
FOREGROUND
  6
CONTINUOUS
 10
0.262454
 20
1.067903
  0
VERTEX
  8
FOREGROUND
  6
CONTINUOUS
 10
0.271475
 20
1.050280
  0
VERTEX
  8
FOREGROUND
  6
CONTINUOUS
 10
0.280661
 20
1.032811
  0
VERTEX
  8
FOREGROUND
  6
CONTINUOUS
 10
0.290009
 20
1.015496
  0
VERTEX
  8
FOREGROUND
  6
CONTINUOUS
 10
0.299519
 20
0.998335
  0
VERTEX
  8
FOREGROUND
  6
CONTINUOUS
 10
0.309189
 20
0.981328
  0
VERTEX
  8
FOREGROUND
  6
CONTINUOUS
 10
0.319018
 20
0.964475
  0
VERTEX
  8
FOREGROUND
  6
CONTINUOUS
 10
0.329004
 20
0.947775
  0
VERTEX
  8
FOREGROUND
  6
CONTINUOUS
 10
0.339145
 20
0.931230
  0
VERTEX
  8
FOREGROUND
  6
CONTINUOUS
 10
0.349441
 20
0.914838
  0
VERTEX
  8
FOREGROUND
  6
CONTINUOUS
 10
0.359890
 20
0.898600
  0
VERTEX
  8
FOREGROUND
  6
CONTINUOUS
 10
0.370490
 20
0.882516
  0
VERTEX
  8
FOREGROUND
  6
CONTINUOUS
 10
0.381240
 20
0.866586
  0
VERTEX
  8
FOREGROUND
  6
CONTINUOUS
 10
0.392138
 20
0.850810
  0
VERTEX
  8
FOREGROUND
  6
CONTINUOUS
 10
0.403184
 20
0.835188
  0
VERTEX
  8
FOREGROUND
  6
CONTINUOUS
 10
0.414375
 20
0.819719
  0
VERTEX
  8
FOREGROUND
  6
CONTINUOUS
 10
0.425710
 20
0.804405
  0
VERTEX
  8
FOREGROUND
  6
CONTINUOUS
 10
0.437189
 20
0.789244
  0
VERTEX
  8
FOREGROUND
  6
CONTINUOUS
 10
0.448808
 20
0.774237
  0
VERTEX
  8
FOREGROUND
  6
CONTINUOUS
 10
0.460567
 20
0.759384
  0
VERTEX
  8
FOREGROUND
  6
CONTINUOUS
 10
0.472465
 20
0.744685
  0
VERTEX
  8
FOREGROUND
  6
CONTINUOUS
 10
0.484500
 20
0.730140
  0
VERTEX
  8
FOREGROUND
  6
CONTINUOUS
 10
0.496670
 20
0.715749
  0
VERTEX
  8
FOREGROUND
  6
CONTINUOUS
 10
0.508974
 20
0.701512
  0
VERTEX
  8
FOREGROUND
  6
CONTINUOUS
 10
0.521411
 20
0.687428
  0
VERTEX
  8
FOREGROUND
  6
CONTINUOUS
 10
0.533980
 20
0.673498
  0
VERTEX
  8
FOREGROUND
  6
CONTINUOUS
 10
0.546678
 20
0.659723
  0
VERTEX
  8
FOREGROUND
  6
CONTINUOUS
 10
0.559504
 20
0.646101
  0
VERTEX
  8
FOREGROUND
  6
CONTINUOUS
 10
0.572457
 20
0.632633
  0
VERTEX
  8
FOREGROUND
  6
CONTINUOUS
 10
0.585536
 20
0.619319
  0
VERTEX
  8
FOREGROUND
  6
CONTINUOUS
 10
0.598738
 20
0.606159
  0
VERTEX
  8
FOREGROUND
  6
CONTINUOUS
 10
0.612064
 20
0.593152
  0
VERTEX
  8
FOREGROUND
  6
CONTINUOUS
 10
0.625510
 20
0.580300
  0
VERTEX
  8
FOREGROUND
  6
CONTINUOUS
 10
0.639076
 20
0.567601
  0
VERTEX
  8
FOREGROUND
  6
CONTINUOUS
 10
0.652760
 20
0.555057
  0
VERTEX
  8
FOREGROUND
  6
CONTINUOUS
 10
0.666561
 20
0.542666
  0
VERTEX
  8
FOREGROUND
  6
CONTINUOUS
 10
0.680478
 20
0.530429
  0
VERTEX
  8
FOREGROUND
  6
CONTINUOUS
 10
0.694508
 20
0.518346
  0
VERTEX
  8
FOREGROUND
  6
CONTINUOUS
 10
0.708651
 20
0.506417
  0
VERTEX
  8
FOREGROUND
  6
CONTINUOUS
 10
0.722904
 20
0.494642
  0
VERTEX
  8
FOREGROUND
  6
CONTINUOUS
 10
0.737268
 20
0.483020
  0
VERTEX
  8
FOREGROUND
  6
CONTINUOUS
 10
0.751739
 20
0.471553
  0
VERTEX
  8
FOREGROUND
  6
CONTINUOUS
 10
0.766318
 20
0.460239
  0
VERTEX
  8
FOREGROUND
  6
CONTINUOUS
 10
0.781001
 20
0.449079
  0
VERTEX
  8
FOREGROUND
  6
CONTINUOUS
 10
0.795788
 20
0.438074
  0
VERTEX
  8
FOREGROUND
  6
CONTINUOUS
 10
0.810678
 20
0.427222
  0
VERTEX
  8
FOREGROUND
  6
CONTINUOUS
 10
0.825669
 20
0.416523
  0
VERTEX
  8
FOREGROUND
  6
CONTINUOUS
 10
0.840759
 20
0.405979
  0
VERTEX
  8
FOREGROUND
  6
CONTINUOUS
 10
0.855947
 20
0.395589
  0
VERTEX
  8
FOREGROUND
  6
CONTINUOUS
 10
0.871232
 20
0.385353
  0
VERTEX
  8
FOREGROUND
  6
CONTINUOUS
 10
0.886612
 20
0.375270
  0
VERTEX
  8
FOREGROUND
  6
CONTINUOUS
 10
0.902086
 20
0.365341
  0
VERTEX
  8
FOREGROUND
  6
CONTINUOUS
 10
0.917652
 20
0.355567
  0
VERTEX
  8
FOREGROUND
  6
CONTINUOUS
 10
0.933308
 20
0.345946
  0
VERTEX
  8
FOREGROUND
  6
CONTINUOUS
 10
0.949055
 20
0.336479
  0
VERTEX
  8
FOREGROUND
  6
CONTINUOUS
 10
0.964889
 20
0.327166
  0
VERTEX
  8
FOREGROUND
  6
CONTINUOUS
 10
0.980810
 20
0.318007
  0
VERTEX
  8
FOREGROUND
  6
CONTINUOUS
 10
0.996815
 20
0.309001
  0
VERTEX
  8
FOREGROUND
  6
CONTINUOUS
 10
1.012905
 20
0.300150
  0
VERTEX
  8
FOREGROUND
  6
CONTINUOUS
 10
1.029076
 20
0.291452
  0
VERTEX
  8
FOREGROUND
  6
CONTINUOUS
 10
1.045329
 20
0.282909
  0
VERTEX
  8
FOREGROUND
  6
CONTINUOUS
 10
1.061661
 20
0.274519
  0
VERTEX
  8
FOREGROUND
  6
CONTINUOUS
 10
1.078070
 20
0.266283
  0
VERTEX
  8
FOREGROUND
  6
CONTINUOUS
 10
1.094556
 20
0.258201
  0
VERTEX
  8
FOREGROUND
  6
CONTINUOUS
 10
1.111117
 20
0.250273
  0
VERTEX
  8
FOREGROUND
  6
CONTINUOUS
 10
1.127752
 20
0.242499
  0
VERTEX
  8
FOREGROUND
  6
CONTINUOUS
 10
1.144458
 20
0.234878
  0
VERTEX
  8
FOREGROUND
  6
CONTINUOUS
 10
1.161236
 20
0.227412
  0
VERTEX
  8
FOREGROUND
  6
CONTINUOUS
 10
1.178082
 20
0.220099
  0
VERTEX
  8
FOREGROUND
  6
CONTINUOUS
 10
1.194997
 20
0.212941
  0
VERTEX
  8
FOREGROUND
  6
CONTINUOUS
 10
1.211977
 20
0.205936
  0
VERTEX
  8
FOREGROUND
  6
CONTINUOUS
 10
1.229023
 20
0.199085
  0
VERTEX
  8
FOREGROUND
  6
CONTINUOUS
 10
1.246132
 20
0.192388
  0
VERTEX
  8
FOREGROUND
  6
CONTINUOUS
 10
1.263303
 20
0.185845
  0
VERTEX
  8
FOREGROUND
  6
CONTINUOUS
 10
1.280534
 20
0.179456
  0
VERTEX
  8
FOREGROUND
  6
CONTINUOUS
 10
1.297825
 20
0.173220
  0
VERTEX
  8
FOREGROUND
  6
CONTINUOUS
 10
1.315173
 20
0.167139
  0
VERTEX
  8
FOREGROUND
  6
CONTINUOUS
 10
1.332578
 20
0.161211
  0
VERTEX
  8
FOREGROUND
  6
CONTINUOUS
 10
1.350038
 20
0.155438
  0
VERTEX
  8
FOREGROUND
  6
CONTINUOUS
 10
1.367550
 20
0.149818
  0
VERTEX
  8
FOREGROUND
  6
CONTINUOUS
 10
1.385115
 20
0.144352
  0
VERTEX
  8
FOREGROUND
  6
CONTINUOUS
 10
1.402730
 20
0.139040
  0
VERTEX
  8
FOREGROUND
  6
CONTINUOUS
 10
1.420395
 20
0.133882
  0
VERTEX
  8
FOREGROUND
  6
CONTINUOUS
 10
1.438106
 20
0.128878
  0
VERTEX
  8
FOREGROUND
  6
CONTINUOUS
 10
1.455864
 20
0.124028
  0
VERTEX
  8
FOREGROUND
  6
CONTINUOUS
 10
1.473667
 20
0.119331
  0
VERTEX
  8
FOREGROUND
  6
CONTINUOUS
 10
1.491513
 20
0.114789
  0
VERTEX
  8
FOREGROUND
  6
CONTINUOUS
 10
1.509401
 20
0.110400
  0
VERTEX
  8
FOREGROUND
  6
CONTINUOUS
 10
1.527329
 20
0.106166
  0
VERTEX
  8
FOREGROUND
  6
CONTINUOUS
 10
1.545296
 20
0.102085
  0
VERTEX
  8
FOREGROUND
  6
CONTINUOUS
 10
1.563301
 20
0.098158
  0
VERTEX
  8
FOREGROUND
  6
CONTINUOUS
 10
1.581342
 20
0.094385
  0
VERTEX
  8
FOREGROUND
  6
CONTINUOUS
 10
1.599417
 20
0.090766
  0
VERTEX
  8
FOREGROUND
  6
CONTINUOUS
 10
1.617526
 20
0.087300
  0
VERTEX
  8
FOREGROUND
  6
CONTINUOUS
 10
1.635666
 20
0.083989
  0
VERTEX
  8
FOREGROUND
  6
CONTINUOUS
 10
1.653836
 20
0.080832
  0
VERTEX
  8
FOREGROUND
  6
CONTINUOUS
 10
1.672036
 20
0.077828
  0
VERTEX
  8
FOREGROUND
  6
CONTINUOUS
 10
1.690263
 20
0.074978
  0
VERTEX
  8
FOREGROUND
  6
CONTINUOUS
 10
1.708515
 20
0.072283
  0
VERTEX
  8
FOREGROUND
  6
CONTINUOUS
 10
1.726793
 20
0.069741
  0
VERTEX
  8
FOREGROUND
  6
CONTINUOUS
 10
1.745093
 20
0.067353
  0
VERTEX
  8
FOREGROUND
  6
CONTINUOUS
 10
1.763415
 20
0.065119
  0
VERTEX
  8
FOREGROUND
  6
CONTINUOUS
 10
1.781758
 20
0.063038
  0
VERTEX
  8
FOREGROUND
  6
CONTINUOUS
 10
1.800119
 20
0.061112
  0
VERTEX
  8
FOREGROUND
  6
CONTINUOUS
 10
1.818497
 20
0.059340
  0
VERTEX
  8
FOREGROUND
  6
CONTINUOUS
 10
1.836891
 20
0.057721
  0
VERTEX
  8
FOREGROUND
  6
CONTINUOUS
 10
1.855300
 20
0.056257
  0
VERTEX
  8
FOREGROUND
  6
CONTINUOUS
 10
1.873721
 20
0.054946
  0
VERTEX
  8
FOREGROUND
  6
CONTINUOUS
 10
1.892155
 20
0.053789
  0
VERTEX
  8
FOREGROUND
  6
CONTINUOUS
 10
1.910598
 20
0.052786
  0
VERTEX
  8
FOREGROUND
  6
CONTINUOUS
 10
1.929050
 20
0.051937
  0
VERTEX
  8
FOREGROUND
  6
CONTINUOUS
 10
1.947509
 20
0.051242
  0
VERTEX
  8
FOREGROUND
  6
CONTINUOUS
 10
1.965974
 20
0.050701
  0
VERTEX
  8
FOREGROUND
  6
CONTINUOUS
 10
1.984444
 20
0.050314
  0
VERTEX
  8
FOREGROUND
  6
CONTINUOUS
 10
2.002916
 20
0.050080
  0
VERTEX
  8
FOREGROUND
  6
CONTINUOUS
 10
2.021390
 20
0.050001
  0
VERTEX
  8
FOREGROUND
  6
CONTINUOUS
 10
2.039863
 20
0.050075
  0
VERTEX
  8
FOREGROUND
  6
CONTINUOUS
 10
2.058336
 20
0.050303
  0
VERTEX
  8
FOREGROUND
  6
CONTINUOUS
 10
2.076805
 20
0.050686
  0
VERTEX
  8
FOREGROUND
  6
CONTINUOUS
 10
2.095270
 20
0.051222
  0
VERTEX
  8
FOREGROUND
  6
CONTINUOUS
 10
2.113730
 20
0.051912
  0
VERTEX
  8
FOREGROUND
  6
CONTINUOUS
 10
2.132182
 20
0.052756
  0
VERTEX
  8
FOREGROUND
  6
CONTINUOUS
 10
2.150626
 20
0.053753
  0
VERTEX
  8
FOREGROUND
  6
CONTINUOUS
 10
2.169059
 20
0.054905
  0
VERTEX
  8
FOREGROUND
  6
CONTINUOUS
 10
2.187481
 20
0.056211
  0
VERTEX
  8
FOREGROUND
  6
CONTINUOUS
 10
2.205890
 20
0.057670
  0
VERTEX
  8
FOREGROUND
  6
CONTINUOUS
 10
2.224285
 20
0.059283
  0
VERTEX
  8
FOREGROUND
  6
CONTINUOUS
 10
2.242664
 20
0.061051
  0
VERTEX
  8
FOREGROUND
  6
CONTINUOUS
 10
2.261026
 20
0.062972
  0
VERTEX
  8
FOREGROUND
  6
CONTINUOUS
 10
2.279368
 20
0.065047
  0
VERTEX
  8
FOREGROUND
  6
CONTINUOUS
 10
2.297691
 20
0.067276
  0
VERTEX
  8
FOREGROUND
  6
CONTINUOUS
 10
2.315992
 20
0.069659
  0
VERTEX
  8
FOREGROUND
  6
CONTINUOUS
 10
2.334270
 20
0.072196
  0
VERTEX
  8
FOREGROUND
  6
CONTINUOUS
 10
2.352524
 20
0.074886
  0
VERTEX
  8
FOREGROUND
  6
CONTINUOUS
 10
2.370751
 20
0.077731
  0
VERTEX
  8
FOREGROUND
  6
CONTINUOUS
 10
2.388952
 20
0.080729
  0
VERTEX
  8
FOREGROUND
  6
CONTINUOUS
 10
2.407123
 20
0.083882
  0
VERTEX
  8
FOREGROUND
  6
CONTINUOUS
 10
2.425264
 20
0.087188
  0
VERTEX
  8
FOREGROUND
  6
CONTINUOUS
 10
2.443374
 20
0.090648
  0
VERTEX
  8
FOREGROUND
  6
CONTINUOUS
 10
2.461450
 20
0.094263
  0
VERTEX
  8
FOREGROUND
  6
CONTINUOUS
 10
2.479492
 20
0.098031
  0
VERTEX
  8
FOREGROUND
  6
CONTINUOUS
 10
2.497498
 20
0.101952
  0
VERTEX
  8
FOREGROUND
  6
CONTINUOUS
 10
2.515466
 20
0.106028
  0
VERTEX
  8
FOREGROUND
  6
CONTINUOUS
 10
2.533395
 20
0.110258
  0
VERTEX
  8
FOREGROUND
  6
CONTINUOUS
 10
2.551284
 20
0.114642
  0
VERTEX
  8
FOREGROUND
  6
CONTINUOUS
 10
2.569132
 20
0.119179
  0
VERTEX
  8
FOREGROUND
  6
CONTINUOUS
 10
2.586936
 20
0.123871
  0
VERTEX
  8
FOREGROUND
  6
CONTINUOUS
 10
2.604695
 20
0.128716
  0
VERTEX
  8
FOREGROUND
  6
CONTINUOUS
 10
2.622408
 20
0.133715
  0
VERTEX
  8
FOREGROUND
  6
CONTINUOUS
 10
2.640074
 20
0.138868
  0
VERTEX
  8
FOREGROUND
  6
CONTINUOUS
 10
2.657691
 20
0.144176
  0
VERTEX
  8
FOREGROUND
  6
CONTINUOUS
 10
2.675257
 20
0.149637
  0
VERTEX
  8
FOREGROUND
  6
CONTINUOUS
 10
2.692771
 20
0.155251
  0
VERTEX
  8
FOREGROUND
  6
CONTINUOUS
 10
2.710233
 20
0.161020
  0
VERTEX
  8
FOREGROUND
  6
CONTINUOUS
 10
2.727639
 20
0.166943
  0
VERTEX
  8
FOREGROUND
  6
CONTINUOUS
 10
2.744989
 20
0.173019
  0
VERTEX
  8
FOREGROUND
  6
CONTINUOUS
 10
2.762281
 20
0.179250
  0
VERTEX
  8
FOREGROUND
  6
CONTINUOUS
 10
2.779515
 20
0.185634
  0
VERTEX
  8
FOREGROUND
  6
CONTINUOUS
 10
2.796688
 20
0.192173
  0
VERTEX
  8
FOREGROUND
  6
CONTINUOUS
 10
2.813799
 20
0.198865
  0
VERTEX
  8
FOREGROUND
  6
CONTINUOUS
 10
2.830846
 20
0.205711
  0
VERTEX
  8
FOREGROUND
  6
CONTINUOUS
 10
2.847829
 20
0.212711
  0
VERTEX
  8
FOREGROUND
  6
CONTINUOUS
 10
2.864745
 20
0.219865
  0
VERTEX
  8
FOREGROUND
  6
CONTINUOUS
 10
2.881594
 20
0.227173
  0
VERTEX
  8
FOREGROUND
  6
CONTINUOUS
 10
2.898373
 20
0.234635
  0
VERTEX
  8
FOREGROUND
  6
CONTINUOUS
 10
2.915082
 20
0.242250
  0
VERTEX
  8
FOREGROUND
  6
CONTINUOUS
 10
2.931718
 20
0.250020
  0
VERTEX
  8
FOREGROUND
  6
CONTINUOUS
 10
2.948282
 20
0.257944
  0
VERTEX
  8
FOREGROUND
  6
CONTINUOUS
 10
2.964770
 20
0.266021
  0
VERTEX
  8
FOREGROUND
  6
CONTINUOUS
 10
2.981182
 20
0.274252
  0
VERTEX
  8
FOREGROUND
  6
CONTINUOUS
 10
2.997516
 20
0.282638
  0
VERTEX
  8
FOREGROUND
  6
CONTINUOUS
 10
3.013771
 20
0.291177
  0
VERTEX
  8
FOREGROUND
  6
CONTINUOUS
 10
3.029945
 20
0.299870
  0
VERTEX
  8
FOREGROUND
  6
CONTINUOUS
 10
3.046037
 20
0.308717
  0
VERTEX
  8
FOREGROUND
  6
CONTINUOUS
 10
3.062045
 20
0.317718
  0
VERTEX
  8
FOREGROUND
  6
CONTINUOUS
 10
3.077968
 20
0.326872
  0
VERTEX
  8
FOREGROUND
  6
CONTINUOUS
 10
3.093805
 20
0.336181
  0
VERTEX
  8
FOREGROUND
  6
CONTINUOUS
 10
3.109554
 20
0.345644
  0
VERTEX
  8
FOREGROUND
  6
CONTINUOUS
 10
3.125214
 20
0.355260
  0
VERTEX
  8
FOREGROUND
  6
CONTINUOUS
 10
3.140782
 20
0.365031
  0
VERTEX
  8
FOREGROUND
  6
CONTINUOUS
 10
3.156259
 20
0.374955
  0
VERTEX
  8
FOREGROUND
  6
CONTINUOUS
 10
3.171642
 20
0.385033
  0
VERTEX
  8
FOREGROUND
  6
CONTINUOUS
 10
3.186929
 20
0.395265
  0
VERTEX
  8
FOREGROUND
  6
CONTINUOUS
 10
3.202121
 20
0.405651
  0
VERTEX
  8
FOREGROUND
  6
CONTINUOUS
 10
3.217214
 20
0.416191
  0
VERTEX
  8
FOREGROUND
  6
CONTINUOUS
 10
3.232207
 20
0.426885
  0
VERTEX
  8
FOREGROUND
  6
CONTINUOUS
 10
3.247100
 20
0.437733
  0
VERTEX
  8
FOREGROUND
  6
CONTINUOUS
 10
3.261890
 20
0.448735
  0
VERTEX
  8
FOREGROUND
  6
CONTINUOUS
 10
3.276577
 20
0.459890
  0
VERTEX
  8
FOREGROUND
  6
CONTINUOUS
 10
3.291159
 20
0.471200
  0
VERTEX
  8
FOREGROUND
  6
CONTINUOUS
 10
3.305633
 20
0.482664
  0
VERTEX
  8
FOREGROUND
  6
CONTINUOUS
 10
3.320000
 20
0.494281
  0
VERTEX
  8
FOREGROUND
  6
CONTINUOUS
 10
3.334257
 20
0.506052
  0
VERTEX
  8
FOREGROUND
  6
CONTINUOUS
 10
3.348403
 20
0.517977
  0
VERTEX
  8
FOREGROUND
  6
CONTINUOUS
 10
3.362437
 20
0.530057
  0
VERTEX
  8
FOREGROUND
  6
CONTINUOUS
 10
3.376357
 20
0.542290
  0
VERTEX
  8
FOREGROUND
  6
CONTINUOUS
 10
3.390161
 20
0.554677
  0
VERTEX
  8
FOREGROUND
  6
CONTINUOUS
 10
3.403849
 20
0.567217
  0
VERTEX
  8
FOREGROUND
  6
CONTINUOUS
 10
3.417419
 20
0.579912
  0
VERTEX
  8
FOREGROUND
  6
CONTINUOUS
 10
3.430869
 20
0.592761
  0
VERTEX
  8
FOREGROUND
  6
CONTINUOUS
 10
3.444197
 20
0.605764
  0
VERTEX
  8
FOREGROUND
  6
CONTINUOUS
 10
3.457404
 20
0.618920
  0
VERTEX
  8
FOREGROUND
  6
CONTINUOUS
 10
3.470486
 20
0.632231
  0
VERTEX
  8
FOREGROUND
  6
CONTINUOUS
 10
3.483443
 20
0.645695
  0
VERTEX
  8
FOREGROUND
  6
CONTINUOUS
 10
3.496273
 20
0.659313
  0
VERTEX
  8
FOREGROUND
  6
CONTINUOUS
 10
3.508975
 20
0.673085
  0
VERTEX
  8
FOREGROUND
  6
CONTINUOUS
 10
3.521547
 20
0.687011
  0
VERTEX
  8
FOREGROUND
  6
CONTINUOUS
 10
3.533988
 20
0.701092
  0
VERTEX
  8
FOREGROUND
  6
CONTINUOUS
 10
3.546296
 20
0.715325
  0
VERTEX
  8
FOREGROUND
  6
CONTINUOUS
 10
3.558471
 20
0.729713
  0
VERTEX
  8
FOREGROUND
  6
CONTINUOUS
 10
3.570510
 20
0.744255
  0
VERTEX
  8
FOREGROUND
  6
CONTINUOUS
 10
3.582411
 20
0.758951
  0
VERTEX
  8
FOREGROUND
  6
CONTINUOUS
 10
3.594175
 20
0.773800
  0
VERTEX
  8
FOREGROUND
  6
CONTINUOUS
 10
3.605799
 20
0.788804
  0
VERTEX
  8
FOREGROUND
  6
CONTINUOUS
 10
3.617281
 20
0.803961
  0
VERTEX
  8
FOREGROUND
  6
CONTINUOUS
 10
3.628621
 20
0.819273
  0
VERTEX
  8
FOREGROUND
  6
CONTINUOUS
 10
3.639816
 20
0.834738
  0
VERTEX
  8
FOREGROUND
  6
CONTINUOUS
 10
3.650866
 20
0.850357
  0
VERTEX
  8
FOREGROUND
  6
CONTINUOUS
 10
3.661769
 20
0.866131
  0
VERTEX
  8
FOREGROUND
  6
CONTINUOUS
 10
3.672524
 20
0.882058
  0
VERTEX
  8
FOREGROUND
  6
CONTINUOUS
 10
3.683128
 20
0.898139
  0
VERTEX
  8
FOREGROUND
  6
CONTINUOUS
 10
3.693581
 20
0.914373
  0
VERTEX
  8
FOREGROUND
  6
CONTINUOUS
 10
3.703882
 20
0.930762
  0
VERTEX
  8
FOREGROUND
  6
CONTINUOUS
 10
3.714028
 20
0.947305
  0
VERTEX
  8
FOREGROUND
  6
CONTINUOUS
 10
3.724018
 20
0.964002
  0
VERTEX
  8
FOREGROUND
  6
CONTINUOUS
 10
3.733852
 20
0.980852
  0
VERTEX
  8
FOREGROUND
  6
CONTINUOUS
 10
3.743527
 20
0.997857
  0
VERTEX
  8
FOREGROUND
  6
CONTINUOUS
 10
3.753041
 20
1.015015
  0
VERTEX
  8
FOREGROUND
  6
CONTINUOUS
 10
3.762395
 20
1.032328
  0
VERTEX
  8
FOREGROUND
  6
CONTINUOUS
 10
3.771585
 20
1.049794
  0
VERTEX
  8
FOREGROUND
  6
CONTINUOUS
 10
3.780611
 20
1.067414
  0
VERTEX
  8
FOREGROUND
  6
CONTINUOUS
 10
3.789472
 20
1.085188
  0
VERTEX
  8
FOREGROUND
  6
CONTINUOUS
 10
3.798165
 20
1.103116
  0
VERTEX
  8
FOREGROUND
  6
CONTINUOUS
 10
3.806690
 20
1.121198
  0
VERTEX
  8
FOREGROUND
  6
CONTINUOUS
 10
3.815044
 20
1.139434
  0
VERTEX
  8
FOREGROUND
  6
CONTINUOUS
 10
3.823227
 20
1.157824
  0
VERTEX
  8
FOREGROUND
  6
CONTINUOUS
 10
3.831237
 20
1.176368
  0
VERTEX
  8
FOREGROUND
  6
CONTINUOUS
 10
3.839072
 20
1.195065
  0
VERTEX
  8
FOREGROUND
  6
CONTINUOUS
 10
3.846732
 20
1.213917
  0
VERTEX
  8
FOREGROUND
  6
CONTINUOUS
 10
3.854214
 20
1.232922
  0
VERTEX
  8
FOREGROUND
  6
CONTINUOUS
 10
3.861518
 20
1.252082
  0
VERTEX
  8
FOREGROUND
  6
CONTINUOUS
 10
3.868641
 20
1.271395
  0
VERTEX
  8
FOREGROUND
  6
CONTINUOUS
 10
3.875583
 20
1.290862
  0
VERTEX
  8
FOREGROUND
  6
CONTINUOUS
 10
3.882342
 20
1.310483
  0
VERTEX
  8
FOREGROUND
  6
CONTINUOUS
 10
3.888916
 20
1.330259
  0
VERTEX
  8
FOREGROUND
  6
CONTINUOUS
 10
3.895304
 20
1.350188
  0
VERTEX
  8
FOREGROUND
  6
CONTINUOUS
 10
3.901505
 20
1.370271
  0
VERTEX
  8
FOREGROUND
  6
CONTINUOUS
 10
3.907517
 20
1.390507
  0
VERTEX
  8
FOREGROUND
  6
CONTINUOUS
 10
3.913339
 20
1.410898
  0
VERTEX
  8
FOREGROUND
  6
CONTINUOUS
 10
3.918969
 20
1.431443
  0
VERTEX
  8
FOREGROUND
  6
CONTINUOUS
 10
3.924406
 20
1.452142
  0
VERTEX
  8
FOREGROUND
  6
CONTINUOUS
 10
3.929648
 20
1.472994
  0
VERTEX
  8
FOREGROUND
  6
CONTINUOUS
 10
3.934694
 20
1.494001
  0
VERTEX
  8
FOREGROUND
  6
CONTINUOUS
 10
3.939543
 20
1.515161
  0
VERTEX
  8
FOREGROUND
  6
CONTINUOUS
 10
3.944193
 20
1.536476
  0
VERTEX
  8
FOREGROUND
  6
CONTINUOUS
 10
3.948642
 20
1.557944
  0
VERTEX
  8
FOREGROUND
  6
CONTINUOUS
 10
3.952890
 20
1.579566
  0
VERTEX
  8
FOREGROUND
  6
CONTINUOUS
 10
3.956934
 20
1.601342
  0
VERTEX
  8
FOREGROUND
  6
CONTINUOUS
 10
3.960774
 20
1.623272
  0
VERTEX
  8
FOREGROUND
  6
CONTINUOUS
 10
3.964407
 20
1.645356
  0
VERTEX
  8
FOREGROUND
  6
CONTINUOUS
 10
3.967833
 20
1.667594
  0
VERTEX
  8
FOREGROUND
  6
CONTINUOUS
 10
3.971050
 20
1.689986
  0
VERTEX
  8
FOREGROUND
  6
CONTINUOUS
 10
3.974057
 20
1.712532
  0
VERTEX
  8
FOREGROUND
  6
CONTINUOUS
 10
3.976851
 20
1.735232
  0
VERTEX
  8
FOREGROUND
  6
CONTINUOUS
 10
3.979433
 20
1.758085
  0
VERTEX
  8
FOREGROUND
  6
CONTINUOUS
 10
3.981799
 20
1.781093
  0
VERTEX
  8
FOREGROUND
  6
CONTINUOUS
 10
3.983949
 20
1.804255
  0
VERTEX
  8
FOREGROUND
  6
CONTINUOUS
 10
3.985882
 20
1.827570
  0
VERTEX
  8
FOREGROUND
  6
CONTINUOUS
 10
3.987595
 20
1.851039
  0
VERTEX
  8
FOREGROUND
  6
CONTINUOUS
 10
3.989088
 20
1.874663
  0
VERTEX
  8
FOREGROUND
  6
CONTINUOUS
 10
3.990359
 20
1.898440
  0
VERTEX
  8
FOREGROUND
  6
CONTINUOUS
 10
3.991407
 20
1.922371
  0
VERTEX
  8
FOREGROUND
  6
CONTINUOUS
 10
3.992229
 20
1.946456
  0
VERTEX
  8
FOREGROUND
  6
CONTINUOUS
 10
3.992825
 20
1.970695
  0
VERTEX
  8
FOREGROUND
  6
CONTINUOUS
 10
3.993194
 20
1.995088
  0
VERTEX
  8
FOREGROUND
  6
CONTINUOUS
 10
3.993333
 20
2.019635
  0
SEQEND
  8
0
  0
ENDSEC
  0
EOF
