  0
SECTION
  2
HEADER
  9
$ACADVER
  1
AC1006
  9
$EXTMIN
 10
0.000000
 20
0.000000
  9
$EXTMAX
 10
4.831667
 20
4.828333
  9
$LTSCALE
 40
0.166667
  9
$PDMODE
 70
    35
  9
$PDSIZE
 40
0.133333
  0
ENDSEC
  0
SECTION
  2
TABLES
  0
TABLE
  2
LTYPE
 70
     9
  0
LTYPE
  2
CONTINUOUS
 70
    64
  3
Solid line
 72
    65
 73
     0
 40
0.000000
  0
LTYPE
  2
DASHED
 70
    64
  3
__ __ __ __ __ __ __ __ __ __ __ __ __ __ __
 72
    65
 73
     2
 40
0.001250
 49
0.000833
 49
-0.000417
  0
LTYPE
  2
HIDDEN
 70
    64
  3
 _ _ _ _ _ _ _ _ _ _ _ _ _ _ _ _ _ _ _ _ _ _
 72
    65
 73
     2
 40
0.000625
 49
0.000417
 49
-0.000208
  0
LTYPE
  2
CENTER
 70
    64
  3
____ _ ____ _ ____ _ ____ _ ____ _ ____ _ ____
 72
    65
 73
     4
 40
0.003333
 49
0.002083
 49
-0.000417
 49
0.000417
 49
-0.000417
  0
LTYPE
  2
PHANTOM
 70
    64
  3
_____ _ _ _____ _ _ _____ _ _ _____ _ _ ____
 72
    65
 73
     6
 40
0.004167
 49
0.002083
 49
-0.000417
 49
0.000417
 49
-0.000417
 49
0.000417
 49
-0.000417
  0
LTYPE
  2
DOT
 70
    64
  3
...............................................
 72
    65
 73
     2
 40
0.000417
 49
0.000000
 49
-0.000417
  0
LTYPE
  2
DASHDOT
 70
    64
  3
__ . __ . __ . __ . __ . __ . __ . __ . __ . __
 72
    65
 73
     4
 40
0.001667
 49
0.000833
 49
-0.000417
 49
0.000000
 49
-0.000417
  0
LTYPE
  2
BORDER
 70
    64
  3
__ __ . __ __ . __ __ . __ __ . __ __ . __ __
 72
    65
 73
     6
 40
0.002917
 49
0.000833
 49
-0.000417
 49
0.000833
 49
-0.000417
 49
0.000000
 49
-0.000417
  0
LTYPE
  2
DIVIDE
 70
    64
  3
__ . . __ . . __ . . __ . . __ . . __ . . __
 72
    65
 73
     6
 40
0.002083
 49
0.000833
 49
-0.000417
 49
0.000000
 49
-0.000417
 49
0.000000
 49
-0.000417
  0
LTYPE
  2
DOTDOT
 70
    64
  3
 . .  . .  . .  . .  . .  . . 
 72
    65
 73
     5
 40
0.000917
 49
-0.000417
 49
0.000000
 49
-0.000417
 49
0.000000
 49
-0.000417
  0
ENDTAB
  0
TABLE
  2
STYLE
 70
     2
  0
STYLE
 70
     0
  2
SN0
 40
0.000000
 41
0.001667
 50
0.000000
 71
     0
 42
0.000000
  3
ROMAND
  0
STYLE
 70
    68
  2
SV0
 40
0.000000
 41
0.001667
 50
0.000000
 71
     0
 42
0.000000
  3
ROMAND
  0
ENDTAB
  0
TABLE
  2
LAYER
 70
     2
  0
LAYER
  2
FOREGROUND
 70
    64
 62
     7
  6
CONTINUOUS
  0
LAYER
  2
BACKGROUND
 70
    65
 62
    -7
  6
CONTINUOUS
  0
ENDTAB
  0
ENDSEC
  0
SECTION
  2
ENTITIES
  0
POLYLINE
  8
FOREGROUND
  6
CONTINUOUS
 66
     1
 40
0.010000
 41
0.010000
 70
     1
  0
VERTEX
  8
FOREGROUND
  6
CONTINUOUS
 10
4.780000
 20
2.415000
  0
VERTEX
  8
FOREGROUND
  6
CONTINUOUS
 10
4.779839
 20
2.444357
  0
VERTEX
  8
FOREGROUND
  6
CONTINUOUS
 10
4.779405
 20
2.473530
  0
VERTEX
  8
FOREGROUND
  6
CONTINUOUS
 10
4.778700
 20
2.502519
  0
VERTEX
  8
FOREGROUND
  6
CONTINUOUS
 10
4.777725
 20
2.531325
  0
VERTEX
  8
FOREGROUND
  6
CONTINUOUS
 10
4.776481
 20
2.559948
  0
VERTEX
  8
FOREGROUND
  6
CONTINUOUS
 10
4.774972
 20
2.588387
  0
VERTEX
  8
FOREGROUND
  6
CONTINUOUS
 10
4.773197
 20
2.616643
  0
VERTEX
  8
FOREGROUND
  6
CONTINUOUS
 10
4.771160
 20
2.644715
  0
VERTEX
  8
FOREGROUND
  6
CONTINUOUS
 10
4.768861
 20
2.672604
  0
VERTEX
  8
FOREGROUND
  6
CONTINUOUS
 10
4.766303
 20
2.700309
  0
VERTEX
  8
FOREGROUND
  6
CONTINUOUS
 10
4.763487
 20
2.727831
  0
VERTEX
  8
FOREGROUND
  6
CONTINUOUS
 10
4.760414
 20
2.755170
  0
VERTEX
  8
FOREGROUND
  6
CONTINUOUS
 10
4.757088
 20
2.782325
  0
VERTEX
  8
FOREGROUND
  6
CONTINUOUS
 10
4.753509
 20
2.809296
  0
VERTEX
  8
FOREGROUND
  6
CONTINUOUS
 10
4.749678
 20
2.836084
  0
VERTEX
  8
FOREGROUND
  6
CONTINUOUS
 10
4.745599
 20
2.862689
  0
VERTEX
  8
FOREGROUND
  6
CONTINUOUS
 10
4.741271
 20
2.889110
  0
VERTEX
  8
FOREGROUND
  6
CONTINUOUS
 10
4.736698
 20
2.915347
  0
VERTEX
  8
FOREGROUND
  6
CONTINUOUS
 10
4.731881
 20
2.941401
  0
VERTEX
  8
FOREGROUND
  6
CONTINUOUS
 10
4.726822
 20
2.967272
  0
VERTEX
  8
FOREGROUND
  6
CONTINUOUS
 10
4.721522
 20
2.992959
  0
VERTEX
  8
FOREGROUND
  6
CONTINUOUS
 10
4.715982
 20
3.018463
  0
VERTEX
  8
FOREGROUND
  6
CONTINUOUS
 10
4.710206
 20
3.043783
  0
VERTEX
  8
FOREGROUND
  6
CONTINUOUS
 10
4.704194
 20
3.068920
  0
VERTEX
  8
FOREGROUND
  6
CONTINUOUS
 10
4.697948
 20
3.093873
  0
VERTEX
  8
FOREGROUND
  6
CONTINUOUS
 10
4.691470
 20
3.118643
  0
VERTEX
  8
FOREGROUND
  6
CONTINUOUS
 10
4.684761
 20
3.143230
  0
VERTEX
  8
FOREGROUND
  6
CONTINUOUS
 10
4.677824
 20
3.167633
  0
VERTEX
  8
FOREGROUND
  6
CONTINUOUS
 10
4.670660
 20
3.191852
  0
VERTEX
  8
FOREGROUND
  6
CONTINUOUS
 10
4.663270
 20
3.215888
  0
VERTEX
  8
FOREGROUND
  6
CONTINUOUS
 10
4.655657
 20
3.239741
  0
VERTEX
  8
FOREGROUND
  6
CONTINUOUS
 10
4.647822
 20
3.263410
  0
VERTEX
  8
FOREGROUND
  6
CONTINUOUS
 10
4.639767
 20
3.286895
  0
VERTEX
  8
FOREGROUND
  6
CONTINUOUS
 10
4.631494
 20
3.310197
  0
VERTEX
  8
FOREGROUND
  6
CONTINUOUS
 10
4.623003
 20
3.333316
  0
VERTEX
  8
FOREGROUND
  6
CONTINUOUS
 10
4.614298
 20
3.356251
  0
VERTEX
  8
FOREGROUND
  6
CONTINUOUS
 10
4.605380
 20
3.379003
  0
VERTEX
  8
FOREGROUND
  6
CONTINUOUS
 10
4.596249
 20
3.401571
  0
VERTEX
  8
FOREGROUND
  6
CONTINUOUS
 10
4.586909
 20
3.423956
  0
VERTEX
  8
FOREGROUND
  6
CONTINUOUS
 10
4.577361
 20
3.446157
  0
VERTEX
  8
FOREGROUND
  6
CONTINUOUS
 10
4.567607
 20
3.468175
  0
VERTEX
  8
FOREGROUND
  6
CONTINUOUS
 10
4.557647
 20
3.490009
  0
VERTEX
  8
FOREGROUND
  6
CONTINUOUS
 10
4.547485
 20
3.511660
  0
VERTEX
  8
FOREGROUND
  6
CONTINUOUS
 10
4.537121
 20
3.533128
  0
VERTEX
  8
FOREGROUND
  6
CONTINUOUS
 10
4.526558
 20
3.554412
  0
VERTEX
  8
FOREGROUND
  6
CONTINUOUS
 10
4.515797
 20
3.575512
  0
VERTEX
  8
FOREGROUND
  6
CONTINUOUS
 10
4.504840
 20
3.596429
  0
VERTEX
  8
FOREGROUND
  6
CONTINUOUS
 10
4.493688
 20
3.617163
  0
VERTEX
  8
FOREGROUND
  6
CONTINUOUS
 10
4.482343
 20
3.637713
  0
VERTEX
  8
FOREGROUND
  6
CONTINUOUS
 10
4.470808
 20
3.658080
  0
VERTEX
  8
FOREGROUND
  6
CONTINUOUS
 10
4.459083
 20
3.678263
  0
VERTEX
  8
FOREGROUND
  6
CONTINUOUS
 10
4.447171
 20
3.698262
  0
VERTEX
  8
FOREGROUND
  6
CONTINUOUS
 10
4.435072
 20
3.718079
  0
VERTEX
  8
FOREGROUND
  6
CONTINUOUS
 10
4.422790
 20
3.737711
  0
VERTEX
  8
FOREGROUND
  6
CONTINUOUS
 10
4.410325
 20
3.757161
  0
VERTEX
  8
FOREGROUND
  6
CONTINUOUS
 10
4.397679
 20
3.776426
  0
VERTEX
  8
FOREGROUND
  6
CONTINUOUS
 10
4.384855
 20
3.795509
  0
VERTEX
  8
FOREGROUND
  6
CONTINUOUS
 10
4.371853
 20
3.814408
  0
VERTEX
  8
FOREGROUND
  6
CONTINUOUS
 10
4.358675
 20
3.833123
  0
VERTEX
  8
FOREGROUND
  6
CONTINUOUS
 10
4.345323
 20
3.851655
  0
VERTEX
  8
FOREGROUND
  6
CONTINUOUS
 10
4.331800
 20
3.870003
  0
VERTEX
  8
FOREGROUND
  6
CONTINUOUS
 10
4.318106
 20
3.888168
  0
VERTEX
  8
FOREGROUND
  6
CONTINUOUS
 10
4.304243
 20
3.906150
  0
VERTEX
  8
FOREGROUND
  6
CONTINUOUS
 10
4.290213
 20
3.923948
  0
VERTEX
  8
FOREGROUND
  6
CONTINUOUS
 10
4.276017
 20
3.941563
  0
VERTEX
  8
FOREGROUND
  6
CONTINUOUS
 10
4.261658
 20
3.958994
  0
VERTEX
  8
FOREGROUND
  6
CONTINUOUS
 10
4.247138
 20
3.976241
  0
VERTEX
  8
FOREGROUND
  6
CONTINUOUS
 10
4.232457
 20
3.993305
  0
VERTEX
  8
FOREGROUND
  6
CONTINUOUS
 10
4.217617
 20
4.010186
  0
VERTEX
  8
FOREGROUND
  6
CONTINUOUS
 10
4.202621
 20
4.026883
  0
VERTEX
  8
FOREGROUND
  6
CONTINUOUS
 10
4.187470
 20
4.043397
  0
VERTEX
  8
FOREGROUND
  6
CONTINUOUS
 10
4.172165
 20
4.059727
  0
VERTEX
  8
FOREGROUND
  6
CONTINUOUS
 10
4.156709
 20
4.075874
  0
VERTEX
  8
FOREGROUND
  6
CONTINUOUS
 10
4.141103
 20
4.091837
  0
VERTEX
  8
FOREGROUND
  6
CONTINUOUS
 10
4.125348
 20
4.107617
  0
VERTEX
  8
FOREGROUND
  6
CONTINUOUS
 10
4.109447
 20
4.123214
  0
VERTEX
  8
FOREGROUND
  6
CONTINUOUS
 10
4.093402
 20
4.138627
  0
VERTEX
  8
FOREGROUND
  6
CONTINUOUS
 10
4.077213
 20
4.153856
  0
VERTEX
  8
FOREGROUND
  6
CONTINUOUS
 10
4.060883
 20
4.168902
  0
VERTEX
  8
FOREGROUND
  6
CONTINUOUS
 10
4.044414
 20
4.183765
  0
VERTEX
  8
FOREGROUND
  6
CONTINUOUS
 10
4.027806
 20
4.198444
  0
VERTEX
  8
FOREGROUND
  6
CONTINUOUS
 10
4.011062
 20
4.212939
  0
VERTEX
  8
FOREGROUND
  6
CONTINUOUS
 10
3.994184
 20
4.227251
  0
VERTEX
  8
FOREGROUND
  6
CONTINUOUS
 10
3.977173
 20
4.241380
  0
VERTEX
  8
FOREGROUND
  6
CONTINUOUS
 10
3.960031
 20
4.255325
  0
VERTEX
  8
FOREGROUND
  6
CONTINUOUS
 10
3.942760
 20
4.269087
  0
VERTEX
  8
FOREGROUND
  6
CONTINUOUS
 10
3.925360
 20
4.282665
  0
VERTEX
  8
FOREGROUND
  6
CONTINUOUS
 10
3.907835
 20
4.296060
  0
VERTEX
  8
FOREGROUND
  6
CONTINUOUS
 10
3.890186
 20
4.309271
  0
VERTEX
  8
FOREGROUND
  6
CONTINUOUS
 10
3.872415
 20
4.322299
  0
VERTEX
  8
FOREGROUND
  6
CONTINUOUS
 10
3.854522
 20
4.335143
  0
VERTEX
  8
FOREGROUND
  6
CONTINUOUS
 10
3.836511
 20
4.347804
  0
VERTEX
  8
FOREGROUND
  6
CONTINUOUS
 10
3.818382
 20
4.360281
  0
VERTEX
  8
FOREGROUND
  6
CONTINUOUS
 10
3.800137
 20
4.372575
  0
VERTEX
  8
FOREGROUND
  6
CONTINUOUS
 10
3.781779
 20
4.384685
  0
VERTEX
  8
FOREGROUND
  6
CONTINUOUS
 10
3.763308
 20
4.396612
  0
VERTEX
  8
FOREGROUND
  6
CONTINUOUS
 10
3.744727
 20
4.408356
  0
VERTEX
  8
FOREGROUND
  6
CONTINUOUS
 10
3.726037
 20
4.419916
  0
VERTEX
  8
FOREGROUND
  6
CONTINUOUS
 10
3.707239
 20
4.431292
  0
VERTEX
  8
FOREGROUND
  6
CONTINUOUS
 10
3.688337
 20
4.442485
  0
VERTEX
  8
FOREGROUND
  6
CONTINUOUS
 10
3.669331
 20
4.453495
  0
VERTEX
  8
FOREGROUND
  6
CONTINUOUS
 10
3.650223
 20
4.464321
  0
VERTEX
  8
FOREGROUND
  6
CONTINUOUS
 10
3.631014
 20
4.474964
  0
VERTEX
  8
FOREGROUND
  6
CONTINUOUS
 10
3.611708
 20
4.485423
  0
VERTEX
  8
FOREGROUND
  6
CONTINUOUS
 10
3.592304
 20
4.495699
  0
VERTEX
  8
FOREGROUND
  6
CONTINUOUS
 10
3.572805
 20
4.505791
  0
VERTEX
  8
FOREGROUND
  6
CONTINUOUS
 10
3.553213
 20
4.515699
  0
VERTEX
  8
FOREGROUND
  6
CONTINUOUS
 10
3.533530
 20
4.525425
  0
VERTEX
  8
FOREGROUND
  6
CONTINUOUS
 10
3.513756
 20
4.534967
  0
VERTEX
  8
FOREGROUND
  6
CONTINUOUS
 10
3.493894
 20
4.544325
  0
VERTEX
  8
FOREGROUND
  6
CONTINUOUS
 10
3.473945
 20
4.553500
  0
VERTEX
  8
FOREGROUND
  6
CONTINUOUS
 10
3.453912
 20
4.562491
  0
VERTEX
  8
FOREGROUND
  6
CONTINUOUS
 10
3.433796
 20
4.571299
  0
VERTEX
  8
FOREGROUND
  6
CONTINUOUS
 10
3.413598
 20
4.579923
  0
VERTEX
  8
FOREGROUND
  6
CONTINUOUS
 10
3.393321
 20
4.588364
  0
VERTEX
  8
FOREGROUND
  6
CONTINUOUS
 10
3.372965
 20
4.596622
  0
VERTEX
  8
FOREGROUND
  6
CONTINUOUS
 10
3.352534
 20
4.604696
  0
VERTEX
  8
FOREGROUND
  6
CONTINUOUS
 10
3.332028
 20
4.612586
  0
VERTEX
  8
FOREGROUND
  6
CONTINUOUS
 10
3.311449
 20
4.620293
  0
VERTEX
  8
FOREGROUND
  6
CONTINUOUS
 10
3.290799
 20
4.627817
  0
VERTEX
  8
FOREGROUND
  6
CONTINUOUS
 10
3.270079
 20
4.635157
  0
VERTEX
  8
FOREGROUND
  6
CONTINUOUS
 10
3.249292
 20
4.642314
  0
VERTEX
  8
FOREGROUND
  6
CONTINUOUS
 10
3.228439
 20
4.649287
  0
VERTEX
  8
FOREGROUND
  6
CONTINUOUS
 10
3.207522
 20
4.656076
  0
VERTEX
  8
FOREGROUND
  6
CONTINUOUS
 10
3.186542
 20
4.662683
  0
VERTEX
  8
FOREGROUND
  6
CONTINUOUS
 10
3.165501
 20
4.669105
  0
VERTEX
  8
FOREGROUND
  6
CONTINUOUS
 10
3.144401
 20
4.675344
  0
VERTEX
  8
FOREGROUND
  6
CONTINUOUS
 10
3.123244
 20
4.681400
  0
VERTEX
  8
FOREGROUND
  6
CONTINUOUS
 10
3.102031
 20
4.687273
  0
VERTEX
  8
FOREGROUND
  6
CONTINUOUS
 10
3.080764
 20
4.692961
  0
VERTEX
  8
FOREGROUND
  6
CONTINUOUS
 10
3.059445
 20
4.698467
  0
VERTEX
  8
FOREGROUND
  6
CONTINUOUS
 10
3.038075
 20
4.703789
  0
VERTEX
  8
FOREGROUND
  6
CONTINUOUS
 10
3.016657
 20
4.708927
  0
VERTEX
  8
FOREGROUND
  6
CONTINUOUS
 10
2.995191
 20
4.713882
  0
VERTEX
  8
FOREGROUND
  6
CONTINUOUS
 10
2.973680
 20
4.718653
  0
VERTEX
  8
FOREGROUND
  6
CONTINUOUS
 10
2.952125
 20
4.723241
  0
VERTEX
  8
FOREGROUND
  6
CONTINUOUS
 10
2.930529
 20
4.727646
  0
VERTEX
  8
FOREGROUND
  6
CONTINUOUS
 10
2.908892
 20
4.731867
  0
VERTEX
  8
FOREGROUND
  6
CONTINUOUS
 10
2.887216
 20
4.735904
  0
VERTEX
  8
FOREGROUND
  6
CONTINUOUS
 10
2.865504
 20
4.739758
  0
VERTEX
  8
FOREGROUND
  6
CONTINUOUS
 10
2.843756
 20
4.743429
  0
VERTEX
  8
FOREGROUND
  6
CONTINUOUS
 10
2.821975
 20
4.746916
  0
VERTEX
  8
FOREGROUND
  6
CONTINUOUS
 10
2.800163
 20
4.750220
  0
VERTEX
  8
FOREGROUND
  6
CONTINUOUS
 10
2.778320
 20
4.753340
  0
VERTEX
  8
FOREGROUND
  6
CONTINUOUS
 10
2.756449
 20
4.756276
  0
VERTEX
  8
FOREGROUND
  6
CONTINUOUS
 10
2.734552
 20
4.759030
  0
VERTEX
  8
FOREGROUND
  6
CONTINUOUS
 10
2.712629
 20
4.761599
  0
VERTEX
  8
FOREGROUND
  6
CONTINUOUS
 10
2.690684
 20
4.763985
  0
VERTEX
  8
FOREGROUND
  6
CONTINUOUS
 10
2.668717
 20
4.766188
  0
VERTEX
  8
FOREGROUND
  6
CONTINUOUS
 10
2.646731
 20
4.768208
  0
VERTEX
  8
FOREGROUND
  6
CONTINUOUS
 10
2.624726
 20
4.770043
  0
VERTEX
  8
FOREGROUND
  6
CONTINUOUS
 10
2.602705
 20
4.771696
  0
VERTEX
  8
FOREGROUND
  6
CONTINUOUS
 10
2.580670
 20
4.773165
  0
VERTEX
  8
FOREGROUND
  6
CONTINUOUS
 10
2.558621
 20
4.774450
  0
VERTEX
  8
FOREGROUND
  6
CONTINUOUS
 10
2.536562
 20
4.775552
  0
VERTEX
  8
FOREGROUND
  6
CONTINUOUS
 10
2.514493
 20
4.776470
  0
VERTEX
  8
FOREGROUND
  6
CONTINUOUS
 10
2.492417
 20
4.777205
  0
VERTEX
  8
FOREGROUND
  6
CONTINUOUS
 10
2.470334
 20
4.777757
  0
VERTEX
  8
FOREGROUND
  6
CONTINUOUS
 10
2.448247
 20
4.778125
  0
VERTEX
  8
FOREGROUND
  6
CONTINUOUS
 10
2.426158
 20
4.778309
  0
VERTEX
  8
FOREGROUND
  6
CONTINUOUS
 10
2.404067
 20
4.778310
  0
VERTEX
  8
FOREGROUND
  6
CONTINUOUS
 10
2.381978
 20
4.778128
  0
VERTEX
  8
FOREGROUND
  6
CONTINUOUS
 10
2.359891
 20
4.777762
  0
VERTEX
  8
FOREGROUND
  6
CONTINUOUS
 10
2.337808
 20
4.777212
  0
VERTEX
  8
FOREGROUND
  6
CONTINUOUS
 10
2.315732
 20
4.776479
  0
VERTEX
  8
FOREGROUND
  6
CONTINUOUS
 10
2.293663
 20
4.775563
  0
VERTEX
  8
FOREGROUND
  6
CONTINUOUS
 10
2.271603
 20
4.774463
  0
VERTEX
  8
FOREGROUND
  6
CONTINUOUS
 10
2.249555
 20
4.773180
  0
VERTEX
  8
FOREGROUND
  6
CONTINUOUS
 10
2.227519
 20
4.771713
  0
VERTEX
  8
FOREGROUND
  6
CONTINUOUS
 10
2.205498
 20
4.770063
  0
VERTEX
  8
FOREGROUND
  6
CONTINUOUS
 10
2.183494
 20
4.768229
  0
VERTEX
  8
FOREGROUND
  6
CONTINUOUS
 10
2.161507
 20
4.766212
  0
VERTEX
  8
FOREGROUND
  6
CONTINUOUS
 10
2.139540
 20
4.764011
  0
VERTEX
  8
FOREGROUND
  6
CONTINUOUS
 10
2.117594
 20
4.761627
  0
VERTEX
  8
FOREGROUND
  6
CONTINUOUS
 10
2.095671
 20
4.759059
  0
VERTEX
  8
FOREGROUND
  6
CONTINUOUS
 10
2.073774
 20
4.756308
  0
VERTEX
  8
FOREGROUND
  6
CONTINUOUS
 10
2.051903
 20
4.753373
  0
VERTEX
  8
FOREGROUND
  6
CONTINUOUS
 10
2.030060
 20
4.750255
  0
VERTEX
  8
FOREGROUND
  6
CONTINUOUS
 10
2.008247
 20
4.746954
  0
VERTEX
  8
FOREGROUND
  6
CONTINUOUS
 10
1.986465
 20
4.743469
  0
VERTEX
  8
FOREGROUND
  6
CONTINUOUS
 10
1.964718
 20
4.739800
  0
VERTEX
  8
FOREGROUND
  6
CONTINUOUS
 10
1.943005
 20
4.735948
  0
VERTEX
  8
FOREGROUND
  6
CONTINUOUS
 10
1.921329
 20
4.731912
  0
VERTEX
  8
FOREGROUND
  6
CONTINUOUS
 10
1.899692
 20
4.727693
  0
VERTEX
  8
FOREGROUND
  6
CONTINUOUS
 10
1.878094
 20
4.723291
  0
VERTEX
  8
FOREGROUND
  6
CONTINUOUS
 10
1.856539
 20
4.718705
  0
VERTEX
  8
FOREGROUND
  6
CONTINUOUS
 10
1.835028
 20
4.713936
  0
VERTEX
  8
FOREGROUND
  6
CONTINUOUS
 10
1.813562
 20
4.708983
  0
VERTEX
  8
FOREGROUND
  6
CONTINUOUS
 10
1.792143
 20
4.703846
  0
VERTEX
  8
FOREGROUND
  6
CONTINUOUS
 10
1.770772
 20
4.698526
  0
VERTEX
  8
FOREGROUND
  6
CONTINUOUS
 10
1.749453
 20
4.693023
  0
VERTEX
  8
FOREGROUND
  6
CONTINUOUS
 10
1.728185
 20
4.687336
  0
VERTEX
  8
FOREGROUND
  6
CONTINUOUS
 10
1.706972
 20
4.681466
  0
VERTEX
  8
FOREGROUND
  6
CONTINUOUS
 10
1.685814
 20
4.675412
  0
VERTEX
  8
FOREGROUND
  6
CONTINUOUS
 10
1.664714
 20
4.669175
  0
VERTEX
  8
FOREGROUND
  6
CONTINUOUS
 10
1.643672
 20
4.662754
  0
VERTEX
  8
FOREGROUND
  6
CONTINUOUS
 10
1.622692
 20
4.656150
  0
VERTEX
  8
FOREGROUND
  6
CONTINUOUS
 10
1.601774
 20
4.649362
  0
VERTEX
  8
FOREGROUND
  6
CONTINUOUS
 10
1.580920
 20
4.642391
  0
VERTEX
  8
FOREGROUND
  6
CONTINUOUS
 10
1.560132
 20
4.635236
  0
VERTEX
  8
FOREGROUND
  6
CONTINUOUS
 10
1.539412
 20
4.627898
  0
VERTEX
  8
FOREGROUND
  6
CONTINUOUS
 10
1.518761
 20
4.620376
  0
VERTEX
  8
FOREGROUND
  6
CONTINUOUS
 10
1.498182
 20
4.612671
  0
VERTEX
  8
FOREGROUND
  6
CONTINUOUS
 10
1.477675
 20
4.604783
  0
VERTEX
  8
FOREGROUND
  6
CONTINUOUS
 10
1.457242
 20
4.596710
  0
VERTEX
  8
FOREGROUND
  6
CONTINUOUS
 10
1.436886
 20
4.588455
  0
VERTEX
  8
FOREGROUND
  6
CONTINUOUS
 10
1.416608
 20
4.580016
  0
VERTEX
  8
FOREGROUND
  6
CONTINUOUS
 10
1.396409
 20
4.571393
  0
VERTEX
  8
FOREGROUND
  6
CONTINUOUS
 10
1.376292
 20
4.562587
  0
VERTEX
  8
FOREGROUND
  6
CONTINUOUS
 10
1.356258
 20
4.553598
  0
VERTEX
  8
FOREGROUND
  6
CONTINUOUS
 10
1.336309
 20
4.544425
  0
VERTEX
  8
FOREGROUND
  6
CONTINUOUS
 10
1.316446
 20
4.535068
  0
VERTEX
  8
FOREGROUND
  6
CONTINUOUS
 10
1.296671
 20
4.525528
  0
VERTEX
  8
FOREGROUND
  6
CONTINUOUS
 10
1.276987
 20
4.515805
  0
VERTEX
  8
FOREGROUND
  6
CONTINUOUS
 10
1.257394
 20
4.505898
  0
VERTEX
  8
FOREGROUND
  6
CONTINUOUS
 10
1.237894
 20
4.495808
  0
VERTEX
  8
FOREGROUND
  6
CONTINUOUS
 10
1.218490
 20
4.485534
  0
VERTEX
  8
FOREGROUND
  6
CONTINUOUS
 10
1.199182
 20
4.475076
  0
VERTEX
  8
FOREGROUND
  6
CONTINUOUS
 10
1.179972
 20
4.464435
  0
VERTEX
  8
FOREGROUND
  6
CONTINUOUS
 10
1.160863
 20
4.453611
  0
VERTEX
  8
FOREGROUND
  6
CONTINUOUS
 10
1.141856
 20
4.442603
  0
VERTEX
  8
FOREGROUND
  6
CONTINUOUS
 10
1.122953
 20
4.431412
  0
VERTEX
  8
FOREGROUND
  6
CONTINUOUS
 10
1.104154
 20
4.420037
  0
VERTEX
  8
FOREGROUND
  6
CONTINUOUS
 10
1.085463
 20
4.408479
  0
VERTEX
  8
FOREGROUND
  6
CONTINUOUS
 10
1.066881
 20
4.396737
  0
VERTEX
  8
FOREGROUND
  6
CONTINUOUS
 10
1.048409
 20
4.384812
  0
VERTEX
  8
FOREGROUND
  6
CONTINUOUS
 10
1.030049
 20
4.372703
  0
VERTEX
  8
FOREGROUND
  6
CONTINUOUS
 10
1.011804
 20
4.360411
  0
VERTEX
  8
FOREGROUND
  6
CONTINUOUS
 10
0.993674
 20
4.347935
  0
VERTEX
  8
FOREGROUND
  6
CONTINUOUS
 10
0.975661
 20
4.335276
  0
VERTEX
  8
FOREGROUND
  6
CONTINUOUS
 10
0.957767
 20
4.322434
  0
VERTEX
  8
FOREGROUND
  6
CONTINUOUS
 10
0.939994
 20
4.309407
  0
VERTEX
  8
FOREGROUND
  6
CONTINUOUS
 10
0.922344
 20
4.296198
  0
VERTEX
  8
FOREGROUND
  6
CONTINUOUS
 10
0.904817
 20
4.282805
  0
VERTEX
  8
FOREGROUND
  6
CONTINUOUS
 10
0.887417
 20
4.269228
  0
VERTEX
  8
FOREGROUND
  6
CONTINUOUS
 10
0.870144
 20
4.255468
  0
VERTEX
  8
FOREGROUND
  6
CONTINUOUS
 10
0.853001
 20
4.241524
  0
VERTEX
  8
FOREGROUND
  6
CONTINUOUS
 10
0.835988
 20
4.227397
  0
VERTEX
  8
FOREGROUND
  6
CONTINUOUS
 10
0.819109
 20
4.213087
  0
VERTEX
  8
FOREGROUND
  6
CONTINUOUS
 10
0.802364
 20
4.198593
  0
VERTEX
  8
FOREGROUND
  6
CONTINUOUS
 10
0.785755
 20
4.183915
  0
VERTEX
  8
FOREGROUND
  6
CONTINUOUS
 10
0.769284
 20
4.169054
  0
VERTEX
  8
FOREGROUND
  6
CONTINUOUS
 10
0.752952
 20
4.154010
  0
VERTEX
  8
FOREGROUND
  6
CONTINUOUS
 10
0.736762
 20
4.138782
  0
VERTEX
  8
FOREGROUND
  6
CONTINUOUS
 10
0.720715
 20
4.123371
  0
VERTEX
  8
FOREGROUND
  6
CONTINUOUS
 10
0.704813
 20
4.107776
  0
VERTEX
  8
FOREGROUND
  6
CONTINUOUS
 10
0.689057
 20
4.091997
  0
VERTEX
  8
FOREGROUND
  6
CONTINUOUS
 10
0.673449
 20
4.076035
  0
VERTEX
  8
FOREGROUND
  6
CONTINUOUS
 10
0.657992
 20
4.059890
  0
VERTEX
  8
FOREGROUND
  6
CONTINUOUS
 10
0.642685
 20
4.043561
  0
VERTEX
  8
FOREGROUND
  6
CONTINUOUS
 10
0.627533
 20
4.027049
  0
VERTEX
  8
FOREGROUND
  6
CONTINUOUS
 10
0.612535
 20
4.010353
  0
VERTEX
  8
FOREGROUND
  6
CONTINUOUS
 10
0.597694
 20
3.993474
  0
VERTEX
  8
FOREGROUND
  6
CONTINUOUS
 10
0.583011
 20
3.976411
  0
VERTEX
  8
FOREGROUND
  6
CONTINUOUS
 10
0.568489
 20
3.959165
  0
VERTEX
  8
FOREGROUND
  6
CONTINUOUS
 10
0.554128
 20
3.941735
  0
VERTEX
  8
FOREGROUND
  6
CONTINUOUS
 10
0.539931
 20
3.924122
  0
VERTEX
  8
FOREGROUND
  6
CONTINUOUS
 10
0.525899
 20
3.906325
  0
VERTEX
  8
FOREGROUND
  6
CONTINUOUS
 10
0.512035
 20
3.888345
  0
VERTEX
  8
FOREGROUND
  6
CONTINUOUS
 10
0.498339
 20
3.870181
  0
VERTEX
  8
FOREGROUND
  6
CONTINUOUS
 10
0.484813
 20
3.851834
  0
VERTEX
  8
FOREGROUND
  6
CONTINUOUS
 10
0.471460
 20
3.833303
  0
VERTEX
  8
FOREGROUND
  6
CONTINUOUS
 10
0.458281
 20
3.814589
  0
VERTEX
  8
FOREGROUND
  6
CONTINUOUS
 10
0.445277
 20
3.795691
  0
VERTEX
  8
FOREGROUND
  6
CONTINUOUS
 10
0.432450
 20
3.776610
  0
VERTEX
  8
FOREGROUND
  6
CONTINUOUS
 10
0.419803
 20
3.757345
  0
VERTEX
  8
FOREGROUND
  6
CONTINUOUS
 10
0.407336
 20
3.737897
  0
VERTEX
  8
FOREGROUND
  6
CONTINUOUS
 10
0.395052
 20
3.718266
  0
VERTEX
  8
FOREGROUND
  6
CONTINUOUS
 10
0.382952
 20
3.698451
  0
VERTEX
  8
FOREGROUND
  6
CONTINUOUS
 10
0.371037
 20
3.678452
  0
VERTEX
  8
FOREGROUND
  6
CONTINUOUS
 10
0.359310
 20
3.658270
  0
VERTEX
  8
FOREGROUND
  6
CONTINUOUS
 10
0.347773
 20
3.637904
  0
VERTEX
  8
FOREGROUND
  6
CONTINUOUS
 10
0.336427
 20
3.617355
  0
VERTEX
  8
FOREGROUND
  6
CONTINUOUS
 10
0.325273
 20
3.596623
  0
VERTEX
  8
FOREGROUND
  6
CONTINUOUS
 10
0.314314
 20
3.575707
  0
VERTEX
  8
FOREGROUND
  6
CONTINUOUS
 10
0.303550
 20
3.554607
  0
VERTEX
  8
FOREGROUND
  6
CONTINUOUS
 10
0.292985
 20
3.533324
  0
VERTEX
  8
FOREGROUND
  6
CONTINUOUS
 10
0.282620
 20
3.511858
  0
VERTEX
  8
FOREGROUND
  6
CONTINUOUS
 10
0.272455
 20
3.490208
  0
VERTEX
  8
FOREGROUND
  6
CONTINUOUS
 10
0.262494
 20
3.468374
  0
VERTEX
  8
FOREGROUND
  6
CONTINUOUS
 10
0.252737
 20
3.446357
  0
VERTEX
  8
FOREGROUND
  6
CONTINUOUS
 10
0.243187
 20
3.424157
  0
VERTEX
  8
FOREGROUND
  6
CONTINUOUS
 10
0.233845
 20
3.401773
  0
VERTEX
  8
FOREGROUND
  6
CONTINUOUS
 10
0.224712
 20
3.379206
  0
VERTEX
  8
FOREGROUND
  6
CONTINUOUS
 10
0.215792
 20
3.356455
  0
VERTEX
  8
FOREGROUND
  6
CONTINUOUS
 10
0.207084
 20
3.333520
  0
VERTEX
  8
FOREGROUND
  6
CONTINUOUS
 10
0.198592
 20
3.310403
  0
VERTEX
  8
FOREGROUND
  6
CONTINUOUS
 10
0.190316
 20
3.287101
  0
VERTEX
  8
FOREGROUND
  6
CONTINUOUS
 10
0.182259
 20
3.263616
  0
VERTEX
  8
FOREGROUND
  6
CONTINUOUS
 10
0.174421
 20
3.239948
  0
VERTEX
  8
FOREGROUND
  6
CONTINUOUS
 10
0.166806
 20
3.216096
  0
VERTEX
  8
FOREGROUND
  6
CONTINUOUS
 10
0.159414
 20
3.192061
  0
VERTEX
  8
FOREGROUND
  6
CONTINUOUS
 10
0.152248
 20
3.167842
  0
VERTEX
  8
FOREGROUND
  6
CONTINUOUS
 10
0.145308
 20
3.143440
  0
VERTEX
  8
FOREGROUND
  6
CONTINUOUS
 10
0.138597
 20
3.118854
  0
VERTEX
  8
FOREGROUND
  6
CONTINUOUS
 10
0.132117
 20
3.094085
  0
VERTEX
  8
FOREGROUND
  6
CONTINUOUS
 10
0.125869
 20
3.069132
  0
VERTEX
  8
FOREGROUND
  6
CONTINUOUS
 10
0.119854
 20
3.043996
  0
VERTEX
  8
FOREGROUND
  6
CONTINUOUS
 10
0.114075
 20
3.018676
  0
VERTEX
  8
FOREGROUND
  6
CONTINUOUS
 10
0.108533
 20
2.993173
  0
VERTEX
  8
FOREGROUND
  6
CONTINUOUS
 10
0.103231
 20
2.967486
  0
VERTEX
  8
FOREGROUND
  6
CONTINUOUS
 10
0.098169
 20
2.941616
  0
VERTEX
  8
FOREGROUND
  6
CONTINUOUS
 10
0.093349
 20
2.915562
  0
VERTEX
  8
FOREGROUND
  6
CONTINUOUS
 10
0.088774
 20
2.889325
  0
VERTEX
  8
FOREGROUND
  6
CONTINUOUS
 10
0.084444
 20
2.862904
  0
VERTEX
  8
FOREGROUND
  6
CONTINUOUS
 10
0.080362
 20
2.836300
  0
VERTEX
  8
FOREGROUND
  6
CONTINUOUS
 10
0.076529
 20
2.809513
  0
VERTEX
  8
FOREGROUND
  6
CONTINUOUS
 10
0.072947
 20
2.782541
  0
VERTEX
  8
FOREGROUND
  6
CONTINUOUS
 10
0.069618
 20
2.755387
  0
VERTEX
  8
FOREGROUND
  6
CONTINUOUS
 10
0.066543
 20
2.728049
  0
VERTEX
  8
FOREGROUND
  6
CONTINUOUS
 10
0.063724
 20
2.700527
  0
VERTEX
  8
FOREGROUND
  6
CONTINUOUS
 10
0.061164
 20
2.672822
  0
VERTEX
  8
FOREGROUND
  6
CONTINUOUS
 10
0.058862
 20
2.644933
  0
VERTEX
  8
FOREGROUND
  6
CONTINUOUS
 10
0.056822
 20
2.616861
  0
VERTEX
  8
FOREGROUND
  6
CONTINUOUS
 10
0.055045
 20
2.588606
  0
VERTEX
  8
FOREGROUND
  6
CONTINUOUS
 10
0.053532
 20
2.560167
  0
VERTEX
  8
FOREGROUND
  6
CONTINUOUS
 10
0.052286
 20
2.531544
  0
VERTEX
  8
FOREGROUND
  6
CONTINUOUS
 10
0.051308
 20
2.502738
  0
VERTEX
  8
FOREGROUND
  6
CONTINUOUS
 10
0.050600
 20
2.473749
  0
VERTEX
  8
FOREGROUND
  6
CONTINUOUS
 10
0.050163
 20
2.444575
  0
VERTEX
  8
FOREGROUND
  6
CONTINUOUS
 10
0.050000
 20
2.415219
  0
VERTEX
  8
FOREGROUND
  6
CONTINUOUS
 10
0.050158
 20
2.385862
  0
VERTEX
  8
FOREGROUND
  6
CONTINUOUS
 10
0.050589
 20
2.356689
  0
VERTEX
  8
FOREGROUND
  6
CONTINUOUS
 10
0.051292
 20
2.327700
  0
VERTEX
  8
FOREGROUND
  6
CONTINUOUS
 10
0.052264
 20
2.298893
  0
VERTEX
  8
FOREGROUND
  6
CONTINUOUS
 10
0.053505
 20
2.270271
  0
VERTEX
  8
FOREGROUND
  6
CONTINUOUS
 10
0.055012
 20
2.241831
  0
VERTEX
  8
FOREGROUND
  6
CONTINUOUS
 10
0.056784
 20
2.213575
  0
VERTEX
  8
FOREGROUND
  6
CONTINUOUS
 10
0.058819
 20
2.185503
  0
VERTEX
  8
FOREGROUND
  6
CONTINUOUS
 10
0.061115
 20
2.157614
  0
VERTEX
  8
FOREGROUND
  6
CONTINUOUS
 10
0.063671
 20
2.129908
  0
VERTEX
  8
FOREGROUND
  6
CONTINUOUS
 10
0.066484
 20
2.102386
  0
VERTEX
  8
FOREGROUND
  6
CONTINUOUS
 10
0.069554
 20
2.075048
  0
VERTEX
  8
FOREGROUND
  6
CONTINUOUS
 10
0.072878
 20
2.047892
  0
VERTEX
  8
FOREGROUND
  6
CONTINUOUS
 10
0.076455
 20
2.020920
  0
VERTEX
  8
FOREGROUND
  6
CONTINUOUS
 10
0.080283
 20
1.994132
  0
VERTEX
  8
FOREGROUND
  6
CONTINUOUS
 10
0.084360
 20
1.967527
  0
VERTEX
  8
FOREGROUND
  6
CONTINUOUS
 10
0.088685
 20
1.941106
  0
VERTEX
  8
FOREGROUND
  6
CONTINUOUS
 10
0.093255
 20
1.914868
  0
VERTEX
  8
FOREGROUND
  6
CONTINUOUS
 10
0.098070
 20
1.888813
  0
VERTEX
  8
FOREGROUND
  6
CONTINUOUS
 10
0.103127
 20
1.862942
  0
VERTEX
  8
FOREGROUND
  6
CONTINUOUS
 10
0.108425
 20
1.837254
  0
VERTEX
  8
FOREGROUND
  6
CONTINUOUS
 10
0.113962
 20
1.811750
  0
VERTEX
  8
FOREGROUND
  6
CONTINUOUS
 10
0.119736
 20
1.786429
  0
VERTEX
  8
FOREGROUND
  6
CONTINUOUS
 10
0.125746
 20
1.761292
  0
VERTEX
  8
FOREGROUND
  6
CONTINUOUS
 10
0.131989
 20
1.736338
  0
VERTEX
  8
FOREGROUND
  6
CONTINUOUS
 10
0.138465
 20
1.711568
  0
VERTEX
  8
FOREGROUND
  6
CONTINUOUS
 10
0.145171
 20
1.686981
  0
VERTEX
  8
FOREGROUND
  6
CONTINUOUS
 10
0.152106
 20
1.662577
  0
VERTEX
  8
FOREGROUND
  6
CONTINUOUS
 10
0.159268
 20
1.638357
  0
VERTEX
  8
FOREGROUND
  6
CONTINUOUS
 10
0.166656
 20
1.614320
  0
VERTEX
  8
FOREGROUND
  6
CONTINUOUS
 10
0.174266
 20
1.590467
  0
VERTEX
  8
FOREGROUND
  6
CONTINUOUS
 10
0.182099
 20
1.566797
  0
VERTEX
  8
FOREGROUND
  6
CONTINUOUS
 10
0.190152
 20
1.543311
  0
VERTEX
  8
FOREGROUND
  6
CONTINUOUS
 10
0.198423
 20
1.520008
  0
VERTEX
  8
FOREGROUND
  6
CONTINUOUS
 10
0.206912
 20
1.496888
  0
VERTEX
  8
FOREGROUND
  6
CONTINUOUS
 10
0.215615
 20
1.473952
  0
VERTEX
  8
FOREGROUND
  6
CONTINUOUS
 10
0.224531
 20
1.451200
  0
VERTEX
  8
FOREGROUND
  6
CONTINUOUS
 10
0.233659
 20
1.428631
  0
VERTEX
  8
FOREGROUND
  6
CONTINUOUS
 10
0.242997
 20
1.406245
  0
VERTEX
  8
FOREGROUND
  6
CONTINUOUS
 10
0.252543
 20
1.384043
  0
VERTEX
  8
FOREGROUND
  6
CONTINUOUS
 10
0.262296
 20
1.362024
  0
VERTEX
  8
FOREGROUND
  6
CONTINUOUS
 10
0.272253
 20
1.340189
  0
VERTEX
  8
FOREGROUND
  6
CONTINUOUS
 10
0.282413
 20
1.318537
  0
VERTEX
  8
FOREGROUND
  6
CONTINUOUS
 10
0.292775
 20
1.297069
  0
VERTEX
  8
FOREGROUND
  6
CONTINUOUS
 10
0.303336
 20
1.275784
  0
VERTEX
  8
FOREGROUND
  6
CONTINUOUS
 10
0.314095
 20
1.254682
  0
VERTEX
  8
FOREGROUND
  6
CONTINUOUS
 10
0.325051
 20
1.233764
  0
VERTEX
  8
FOREGROUND
  6
CONTINUOUS
 10
0.336201
 20
1.213030
  0
VERTEX
  8
FOREGROUND
  6
CONTINUOUS
 10
0.347543
 20
1.192478
  0
VERTEX
  8
FOREGROUND
  6
CONTINUOUS
 10
0.359077
 20
1.172111
  0
VERTEX
  8
FOREGROUND
  6
CONTINUOUS
 10
0.370800
 20
1.151927
  0
VERTEX
  8
FOREGROUND
  6
CONTINUOUS
 10
0.382710
 20
1.131926
  0
VERTEX
  8
FOREGROUND
  6
CONTINUOUS
 10
0.394807
 20
1.112108
  0
VERTEX
  8
FOREGROUND
  6
CONTINUOUS
 10
0.407087
 20
1.092475
  0
VERTEX
  8
FOREGROUND
  6
CONTINUOUS
 10
0.419551
 20
1.073024
  0
VERTEX
  8
FOREGROUND
  6
CONTINUOUS
 10
0.432194
 20
1.053757
  0
VERTEX
  8
FOREGROUND
  6
CONTINUOUS
 10
0.445017
 20
1.034674
  0
VERTEX
  8
FOREGROUND
  6
CONTINUOUS
 10
0.458018
 20
1.015774
  0
VERTEX
  8
FOREGROUND
  6
CONTINUOUS
 10
0.471194
 20
0.997057
  0
VERTEX
  8
FOREGROUND
  6
CONTINUOUS
 10
0.484543
 20
0.978524
  0
VERTEX
  8
FOREGROUND
  6
CONTINUOUS
 10
0.498065
 20
0.960174
  0
VERTEX
  8
FOREGROUND
  6
CONTINUOUS
 10
0.511758
 20
0.942008
  0
VERTEX
  8
FOREGROUND
  6
CONTINUOUS
 10
0.525619
 20
0.924025
  0
VERTEX
  8
FOREGROUND
  6
CONTINUOUS
 10
0.539647
 20
0.906226
  0
VERTEX
  8
FOREGROUND
  6
CONTINUOUS
 10
0.553841
 20
0.888610
  0
VERTEX
  8
FOREGROUND
  6
CONTINUOUS
 10
0.568198
 20
0.871177
  0
VERTEX
  8
FOREGROUND
  6
CONTINUOUS
 10
0.582718
 20
0.853928
  0
VERTEX
  8
FOREGROUND
  6
CONTINUOUS
 10
0.597397
 20
0.836863
  0
VERTEX
  8
FOREGROUND
  6
CONTINUOUS
 10
0.612235
 20
0.819981
  0
VERTEX
  8
FOREGROUND
  6
CONTINUOUS
 10
0.627230
 20
0.803282
  0
VERTEX
  8
FOREGROUND
  6
CONTINUOUS
 10
0.642379
 20
0.786767
  0
VERTEX
  8
FOREGROUND
  6
CONTINUOUS
 10
0.657682
 20
0.770435
  0
VERTEX
  8
FOREGROUND
  6
CONTINUOUS
 10
0.673137
 20
0.754287
  0
VERTEX
  8
FOREGROUND
  6
CONTINUOUS
 10
0.688742
 20
0.738322
  0
VERTEX
  8
FOREGROUND
  6
CONTINUOUS
 10
0.704495
 20
0.722541
  0
VERTEX
  8
FOREGROUND
  6
CONTINUOUS
 10
0.720394
 20
0.706943
  0
VERTEX
  8
FOREGROUND
  6
CONTINUOUS
 10
0.736438
 20
0.691529
  0
VERTEX
  8
FOREGROUND
  6
CONTINUOUS
 10
0.752626
 20
0.676298
  0
VERTEX
  8
FOREGROUND
  6
CONTINUOUS
 10
0.768954
 20
0.661250
  0
VERTEX
  8
FOREGROUND
  6
CONTINUOUS
 10
0.785422
 20
0.646386
  0
VERTEX
  8
FOREGROUND
  6
CONTINUOUS
 10
0.802029
 20
0.631706
  0
VERTEX
  8
FOREGROUND
  6
CONTINUOUS
 10
0.818771
 20
0.617209
  0
VERTEX
  8
FOREGROUND
  6
CONTINUOUS
 10
0.835648
 20
0.602895
  0
VERTEX
  8
FOREGROUND
  6
CONTINUOUS
 10
0.852658
 20
0.588765
  0
VERTEX
  8
FOREGROUND
  6
CONTINUOUS
 10
0.869798
 20
0.574818
  0
VERTEX
  8
FOREGROUND
  6
CONTINUOUS
 10
0.887069
 20
0.561055
  0
VERTEX
  8
FOREGROUND
  6
CONTINUOUS
 10
0.904466
 20
0.547475
  0
VERTEX
  8
FOREGROUND
  6
CONTINUOUS
 10
0.921990
 20
0.534079
  0
VERTEX
  8
FOREGROUND
  6
CONTINUOUS
 10
0.939638
 20
0.520866
  0
VERTEX
  8
FOREGROUND
  6
CONTINUOUS
 10
0.957409
 20
0.507836
  0
VERTEX
  8
FOREGROUND
  6
CONTINUOUS
 10
0.975300
 20
0.494990
  0
VERTEX
  8
FOREGROUND
  6
CONTINUOUS
 10
0.993310
 20
0.482328
  0
VERTEX
  8
FOREGROUND
  6
CONTINUOUS
 10
1.011438
 20
0.469849
  0
VERTEX
  8
FOREGROUND
  6
CONTINUOUS
 10
1.029681
 20
0.457553
  0
VERTEX
  8
FOREGROUND
  6
CONTINUOUS
 10
1.048039
 20
0.445441
  0
VERTEX
  8
FOREGROUND
  6
CONTINUOUS
 10
1.066508
 20
0.433512
  0
VERTEX
  8
FOREGROUND
  6
CONTINUOUS
 10
1.085089
 20
0.421767
  0
VERTEX
  8
FOREGROUND
  6
CONTINUOUS
 10
1.103778
 20
0.410206
  0
VERTEX
  8
FOREGROUND
  6
CONTINUOUS
 10
1.122574
 20
0.398827
  0
VERTEX
  8
FOREGROUND
  6
CONTINUOUS
 10
1.141475
 20
0.387633
  0
VERTEX
  8
FOREGROUND
  6
CONTINUOUS
 10
1.160480
 20
0.376621
  0
VERTEX
  8
FOREGROUND
  6
CONTINUOUS
 10
1.179587
 20
0.365793
  0
VERTEX
  8
FOREGROUND
  6
CONTINUOUS
 10
1.198795
 20
0.355149
  0
VERTEX
  8
FOREGROUND
  6
CONTINUOUS
 10
1.218100
 20
0.344688
  0
VERTEX
  8
FOREGROUND
  6
CONTINUOUS
 10
1.237503
 20
0.334410
  0
VERTEX
  8
FOREGROUND
  6
CONTINUOUS
 10
1.257001
 20
0.324316
  0
VERTEX
  8
FOREGROUND
  6
CONTINUOUS
 10
1.276592
 20
0.314406
  0
VERTEX
  8
FOREGROUND
  6
CONTINUOUS
 10
1.296275
 20
0.304679
  0
VERTEX
  8
FOREGROUND
  6
CONTINUOUS
 10
1.316048
 20
0.295135
  0
VERTEX
  8
FOREGROUND
  6
CONTINUOUS
 10
1.335909
 20
0.285775
  0
VERTEX
  8
FOREGROUND
  6
CONTINUOUS
 10
1.355856
 20
0.276598
  0
VERTEX
  8
FOREGROUND
  6
CONTINUOUS
 10
1.375889
 20
0.267605
  0
VERTEX
  8
FOREGROUND
  6
CONTINUOUS
 10
1.396004
 20
0.258795
  0
VERTEX
  8
FOREGROUND
  6
CONTINUOUS
 10
1.416201
 20
0.250169
  0
VERTEX
  8
FOREGROUND
  6
CONTINUOUS
 10
1.436478
 20
0.241726
  0
VERTEX
  8
FOREGROUND
  6
CONTINUOUS
 10
1.456832
 20
0.233467
  0
VERTEX
  8
FOREGROUND
  6
CONTINUOUS
 10
1.477263
 20
0.225391
  0
VERTEX
  8
FOREGROUND
  6
CONTINUOUS
 10
1.497769
 20
0.217499
  0
VERTEX
  8
FOREGROUND
  6
CONTINUOUS
 10
1.518347
 20
0.209790
  0
VERTEX
  8
FOREGROUND
  6
CONTINUOUS
 10
1.538996
 20
0.202264
  0
VERTEX
  8
FOREGROUND
  6
CONTINUOUS
 10
1.559715
 20
0.194922
  0
VERTEX
  8
FOREGROUND
  6
CONTINUOUS
 10
1.580501
 20
0.187764
  0
VERTEX
  8
FOREGROUND
  6
CONTINUOUS
 10
1.601354
 20
0.180789
  0
VERTEX
  8
FOREGROUND
  6
CONTINUOUS
 10
1.622271
 20
0.173997
  0
VERTEX
  8
FOREGROUND
  6
CONTINUOUS
 10
1.643250
 20
0.167389
  0
VERTEX
  8
FOREGROUND
  6
CONTINUOUS
 10
1.664290
 20
0.160964
  0
VERTEX
  8
FOREGROUND
  6
CONTINUOUS
 10
1.685389
 20
0.154723
  0
VERTEX
  8
FOREGROUND
  6
CONTINUOUS
 10
1.706546
 20
0.148665
  0
VERTEX
  8
FOREGROUND
  6
CONTINUOUS
 10
1.727758
 20
0.142791
  0
VERTEX
  8
FOREGROUND
  6
CONTINUOUS
 10
1.749025
 20
0.137100
  0
VERTEX
  8
FOREGROUND
  6
CONTINUOUS
 10
1.770343
 20
0.131593
  0
VERTEX
  8
FOREGROUND
  6
CONTINUOUS
 10
1.791712
 20
0.126269
  0
VERTEX
  8
FOREGROUND
  6
CONTINUOUS
 10
1.813130
 20
0.121129
  0
VERTEX
  8
FOREGROUND
  6
CONTINUOUS
 10
1.834596
 20
0.116172
  0
VERTEX
  8
FOREGROUND
  6
CONTINUOUS
 10
1.856106
 20
0.111398
  0
VERTEX
  8
FOREGROUND
  6
CONTINUOUS
 10
1.877661
 20
0.106809
  0
VERTEX
  8
FOREGROUND
  6
CONTINUOUS
 10
1.899257
 20
0.102402
  0
VERTEX
  8
FOREGROUND
  6
CONTINUOUS
 10
1.920893
 20
0.098179
  0
VERTEX
  8
FOREGROUND
  6
CONTINUOUS
 10
1.942569
 20
0.094140
  0
VERTEX
  8
FOREGROUND
  6
CONTINUOUS
 10
1.964281
 20
0.090283
  0
VERTEX
  8
FOREGROUND
  6
CONTINUOUS
 10
1.986028
 20
0.086611
  0
VERTEX
  8
FOREGROUND
  6
CONTINUOUS
 10
2.007808
 20
0.083122
  0
VERTEX
  8
FOREGROUND
  6
CONTINUOUS
 10
2.029621
 20
0.079816
  0
VERTEX
  8
FOREGROUND
  6
CONTINUOUS
 10
2.051463
 20
0.076694
  0
VERTEX
  8
FOREGROUND
  6
CONTINUOUS
 10
2.073334
 20
0.073755
  0
VERTEX
  8
FOREGROUND
  6
CONTINUOUS
 10
2.095231
 20
0.071000
  0
VERTEX
  8
FOREGROUND
  6
CONTINUOUS
 10
2.117153
 20
0.068428
  0
VERTEX
  8
FOREGROUND
  6
CONTINUOUS
 10
2.139098
 20
0.066040
  0
VERTEX
  8
FOREGROUND
  6
CONTINUOUS
 10
2.161065
 20
0.063835
  0
VERTEX
  8
FOREGROUND
  6
CONTINUOUS
 10
2.183051
 20
0.061814
  0
VERTEX
  8
FOREGROUND
  6
CONTINUOUS
 10
2.205056
 20
0.059976
  0
VERTEX
  8
FOREGROUND
  6
CONTINUOUS
 10
2.227076
 20
0.058322
  0
VERTEX
  8
FOREGROUND
  6
CONTINUOUS
 10
2.249112
 20
0.056851
  0
VERTEX
  8
FOREGROUND
  6
CONTINUOUS
 10
2.271160
 20
0.055563
  0
VERTEX
  8
FOREGROUND
  6
CONTINUOUS
 10
2.293219
 20
0.054460
  0
VERTEX
  8
FOREGROUND
  6
CONTINUOUS
 10
2.315288
 20
0.053539
  0
VERTEX
  8
FOREGROUND
  6
CONTINUOUS
 10
2.337364
 20
0.052802
  0
VERTEX
  8
FOREGROUND
  6
CONTINUOUS
 10
2.359447
 20
0.052249
  0
VERTEX
  8
FOREGROUND
  6
CONTINUOUS
 10
2.381534
 20
0.051879
  0
VERTEX
  8
FOREGROUND
  6
CONTINUOUS
 10
2.403623
 20
0.051692
  0
VERTEX
  8
FOREGROUND
  6
CONTINUOUS
 10
2.425714
 20
0.051689
  0
VERTEX
  8
FOREGROUND
  6
CONTINUOUS
 10
2.447803
 20
0.051869
  0
VERTEX
  8
FOREGROUND
  6
CONTINUOUS
 10
2.469890
 20
0.052233
  0
VERTEX
  8
FOREGROUND
  6
CONTINUOUS
 10
2.491973
 20
0.052781
  0
VERTEX
  8
FOREGROUND
  6
CONTINUOUS
 10
2.514049
 20
0.053511
  0
VERTEX
  8
FOREGROUND
  6
CONTINUOUS
 10
2.536118
 20
0.054426
  0
VERTEX
  8
FOREGROUND
  6
CONTINUOUS
 10
2.558178
 20
0.055524
  0
VERTEX
  8
FOREGROUND
  6
CONTINUOUS
 10
2.580227
 20
0.056805
  0
VERTEX
  8
FOREGROUND
  6
CONTINUOUS
 10
2.602262
 20
0.058270
  0
VERTEX
  8
FOREGROUND
  6
CONTINUOUS
 10
2.624283
 20
0.059918
  0
VERTEX
  8
FOREGROUND
  6
CONTINUOUS
 10
2.646288
 20
0.061750
  0
VERTEX
  8
FOREGROUND
  6
CONTINUOUS
 10
2.668275
 20
0.063765
  0
VERTEX
  8
FOREGROUND
  6
CONTINUOUS
 10
2.690243
 20
0.065963
  0
VERTEX
  8
FOREGROUND
  6
CONTINUOUS
 10
2.712188
 20
0.068346
  0
VERTEX
  8
FOREGROUND
  6
CONTINUOUS
 10
2.734111
 20
0.070911
  0
VERTEX
  8
FOREGROUND
  6
CONTINUOUS
 10
2.756009
 20
0.073660
  0
VERTEX
  8
FOREGROUND
  6
CONTINUOUS
 10
2.777881
 20
0.076593
  0
VERTEX
  8
FOREGROUND
  6
CONTINUOUS
 10
2.799724
 20
0.079709
  0
VERTEX
  8
FOREGROUND
  6
CONTINUOUS
 10
2.821537
 20
0.083009
  0
VERTEX
  8
FOREGROUND
  6
CONTINUOUS
 10
2.843319
 20
0.086492
  0
VERTEX
  8
FOREGROUND
  6
CONTINUOUS
 10
2.865067
 20
0.090158
  0
VERTEX
  8
FOREGROUND
  6
CONTINUOUS
 10
2.886780
 20
0.094008
  0
VERTEX
  8
FOREGROUND
  6
CONTINUOUS
 10
2.908456
 20
0.098042
  0
VERTEX
  8
FOREGROUND
  6
CONTINUOUS
 10
2.930094
 20
0.102259
  0
VERTEX
  8
FOREGROUND
  6
CONTINUOUS
 10
2.951692
 20
0.106659
  0
VERTEX
  8
FOREGROUND
  6
CONTINUOUS
 10
2.973247
 20
0.111243
  0
VERTEX
  8
FOREGROUND
  6
CONTINUOUS
 10
2.994759
 20
0.116011
  0
VERTEX
  8
FOREGROUND
  6
CONTINUOUS
 10
3.016226
 20
0.120962
  0
VERTEX
  8
FOREGROUND
  6
CONTINUOUS
 10
3.037645
 20
0.126096
  0
VERTEX
  8
FOREGROUND
  6
CONTINUOUS
 10
3.059016
 20
0.131414
  0
VERTEX
  8
FOREGROUND
  6
CONTINUOUS
 10
3.080336
 20
0.136915
  0
VERTEX
  8
FOREGROUND
  6
CONTINUOUS
 10
3.101604
 20
0.142600
  0
VERTEX
  8
FOREGROUND
  6
CONTINUOUS
 10
3.122818
 20
0.148469
  0
VERTEX
  8
FOREGROUND
  6
CONTINUOUS
 10
3.143976
 20
0.154520
  0
VERTEX
  8
FOREGROUND
  6
CONTINUOUS
 10
3.165077
 20
0.160756
  0
VERTEX
  8
FOREGROUND
  6
CONTINUOUS
 10
3.186119
 20
0.167175
  0
VERTEX
  8
FOREGROUND
  6
CONTINUOUS
 10
3.207100
 20
0.173777
  0
VERTEX
  8
FOREGROUND
  6
CONTINUOUS
 10
3.228019
 20
0.180563
  0
VERTEX
  8
FOREGROUND
  6
CONTINUOUS
 10
3.248873
 20
0.187532
  0
VERTEX
  8
FOREGROUND
  6
CONTINUOUS
 10
3.269662
 20
0.194685
  0
VERTEX
  8
FOREGROUND
  6
CONTINUOUS
 10
3.290383
 20
0.202021
  0
VERTEX
  8
FOREGROUND
  6
CONTINUOUS
 10
3.311034
 20
0.209541
  0
VERTEX
  8
FOREGROUND
  6
CONTINUOUS
 10
3.331615
 20
0.217244
  0
VERTEX
  8
FOREGROUND
  6
CONTINUOUS
 10
3.352122
 20
0.225131
  0
VERTEX
  8
FOREGROUND
  6
CONTINUOUS
 10
3.372555
 20
0.233201
  0
VERTEX
  8
FOREGROUND
  6
CONTINUOUS
 10
3.392912
 20
0.241455
  0
VERTEX
  8
FOREGROUND
  6
CONTINUOUS
 10
3.413191
 20
0.249892
  0
VERTEX
  8
FOREGROUND
  6
CONTINUOUS
 10
3.433391
 20
0.258512
  0
VERTEX
  8
FOREGROUND
  6
CONTINUOUS
 10
3.453509
 20
0.267317
  0
VERTEX
  8
FOREGROUND
  6
CONTINUOUS
 10
3.473544
 20
0.276304
  0
VERTEX
  8
FOREGROUND
  6
CONTINUOUS
 10
3.493494
 20
0.285475
  0
VERTEX
  8
FOREGROUND
  6
CONTINUOUS
 10
3.513357
 20
0.294830
  0
VERTEX
  8
FOREGROUND
  6
CONTINUOUS
 10
3.533133
 20
0.304368
  0
VERTEX
  8
FOREGROUND
  6
CONTINUOUS
 10
3.552818
 20
0.314090
  0
VERTEX
  8
FOREGROUND
  6
CONTINUOUS
 10
3.572412
 20
0.323995
  0
VERTEX
  8
FOREGROUND
  6
CONTINUOUS
 10
3.591913
 20
0.334083
  0
VERTEX
  8
FOREGROUND
  6
CONTINUOUS
 10
3.611319
 20
0.344356
  0
VERTEX
  8
FOREGROUND
  6
CONTINUOUS
 10
3.630627
 20
0.354811
  0
VERTEX
  8
FOREGROUND
  6
CONTINUOUS
 10
3.649838
 20
0.365450
  0
VERTEX
  8
FOREGROUND
  6
CONTINUOUS
 10
3.668948
 20
0.376273
  0
VERTEX
  8
FOREGROUND
  6
CONTINUOUS
 10
3.687956
 20
0.387279
  0
VERTEX
  8
FOREGROUND
  6
CONTINUOUS
 10
3.706860
 20
0.398468
  0
VERTEX
  8
FOREGROUND
  6
CONTINUOUS
 10
3.725660
 20
0.409841
  0
VERTEX
  8
FOREGROUND
  6
CONTINUOUS
 10
3.744352
 20
0.421398
  0
VERTEX
  8
FOREGROUND
  6
CONTINUOUS
 10
3.762935
 20
0.433138
  0
VERTEX
  8
FOREGROUND
  6
CONTINUOUS
 10
3.781408
 20
0.445062
  0
VERTEX
  8
FOREGROUND
  6
CONTINUOUS
 10
3.799769
 20
0.457169
  0
VERTEX
  8
FOREGROUND
  6
CONTINUOUS
 10
3.818016
 20
0.469459
  0
VERTEX
  8
FOREGROUND
  6
CONTINUOUS
 10
3.836147
 20
0.481933
  0
VERTEX
  8
FOREGROUND
  6
CONTINUOUS
 10
3.854161
 20
0.494591
  0
VERTEX
  8
FOREGROUND
  6
CONTINUOUS
 10
3.872056
 20
0.507432
  0
VERTEX
  8
FOREGROUND
  6
CONTINUOUS
 10
3.889830
 20
0.520456
  0
VERTEX
  8
FOREGROUND
  6
CONTINUOUS
 10
3.907482
 20
0.533664
  0
VERTEX
  8
FOREGROUND
  6
CONTINUOUS
 10
3.925009
 20
0.547056
  0
VERTEX
  8
FOREGROUND
  6
CONTINUOUS
 10
3.942411
 20
0.560630
  0
VERTEX
  8
FOREGROUND
  6
CONTINUOUS
 10
3.959685
 20
0.574389
  0
VERTEX
  8
FOREGROUND
  6
CONTINUOUS
 10
3.976830
 20
0.588331
  0
VERTEX
  8
FOREGROUND
  6
CONTINUOUS
 10
3.993843
 20
0.602456
  0
VERTEX
  8
FOREGROUND
  6
CONTINUOUS
 10
4.010724
 20
0.616765
  0
VERTEX
  8
FOREGROUND
  6
CONTINUOUS
 10
4.027471
 20
0.631258
  0
VERTEX
  8
FOREGROUND
  6
CONTINUOUS
 10
4.044081
 20
0.645934
  0
VERTEX
  8
FOREGROUND
  6
CONTINUOUS
 10
4.060554
 20
0.660793
  0
VERTEX
  8
FOREGROUND
  6
CONTINUOUS
 10
4.076886
 20
0.675836
  0
VERTEX
  8
FOREGROUND
  6
CONTINUOUS
 10
4.093078
 20
0.691063
  0
VERTEX
  8
FOREGROUND
  6
CONTINUOUS
 10
4.109126
 20
0.706473
  0
VERTEX
  8
FOREGROUND
  6
CONTINUOUS
 10
4.125030
 20
0.722066
  0
VERTEX
  8
FOREGROUND
  6
CONTINUOUS
 10
4.140787
 20
0.737843
  0
VERTEX
  8
FOREGROUND
  6
CONTINUOUS
 10
4.156397
 20
0.753803
  0
VERTEX
  8
FOREGROUND
  6
CONTINUOUS
 10
4.171856
 20
0.769947
  0
VERTEX
  8
FOREGROUND
  6
CONTINUOUS
 10
4.187164
 20
0.786275
  0
VERTEX
  8
FOREGROUND
  6
CONTINUOUS
 10
4.202318
 20
0.802786
  0
VERTEX
  8
FOREGROUND
  6
CONTINUOUS
 10
4.217317
 20
0.819480
  0
VERTEX
  8
FOREGROUND
  6
CONTINUOUS
 10
4.232160
 20
0.836358
  0
VERTEX
  8
FOREGROUND
  6
CONTINUOUS
 10
4.246844
 20
0.853420
  0
VERTEX
  8
FOREGROUND
  6
CONTINUOUS
 10
4.261368
 20
0.870664
  0
VERTEX
  8
FOREGROUND
  6
CONTINUOUS
 10
4.275730
 20
0.888093
  0
VERTEX
  8
FOREGROUND
  6
CONTINUOUS
 10
4.289929
 20
0.905705
  0
VERTEX
  8
FOREGROUND
  6
CONTINUOUS
 10
4.303962
 20
0.923500
  0
VERTEX
  8
FOREGROUND
  6
CONTINUOUS
 10
4.317829
 20
0.941479
  0
VERTEX
  8
FOREGROUND
  6
CONTINUOUS
 10
4.331526
 20
0.959642
  0
VERTEX
  8
FOREGROUND
  6
CONTINUOUS
 10
4.345053
 20
0.977988
  0
VERTEX
  8
FOREGROUND
  6
CONTINUOUS
 10
4.358408
 20
0.996517
  0
VERTEX
  8
FOREGROUND
  6
CONTINUOUS
 10
4.371590
 20
1.015230
  0
VERTEX
  8
FOREGROUND
  6
CONTINUOUS
 10
4.384595
 20
1.034126
  0
VERTEX
  8
FOREGROUND
  6
CONTINUOUS
 10
4.397423
 20
1.053206
  0
VERTEX
  8
FOREGROUND
  6
CONTINUOUS
 10
4.410073
 20
1.072470
  0
VERTEX
  8
FOREGROUND
  6
CONTINUOUS
 10
4.422541
 20
1.091917
  0
VERTEX
  8
FOREGROUND
  6
CONTINUOUS
 10
4.434827
 20
1.111547
  0
VERTEX
  8
FOREGROUND
  6
CONTINUOUS
 10
4.446929
 20
1.131361
  0
VERTEX
  8
FOREGROUND
  6
CONTINUOUS
 10
4.458846
 20
1.151359
  0
VERTEX
  8
FOREGROUND
  6
CONTINUOUS
 10
4.470574
 20
1.171540
  0
VERTEX
  8
FOREGROUND
  6
CONTINUOUS
 10
4.482114
 20
1.191904
  0
VERTEX
  8
FOREGROUND
  6
CONTINUOUS
 10
4.493462
 20
1.212452
  0
VERTEX
  8
FOREGROUND
  6
CONTINUOUS
 10
4.504618
 20
1.233184
  0
VERTEX
  8
FOREGROUND
  6
CONTINUOUS
 10
4.515579
 20
1.254099
  0
VERTEX
  8
FOREGROUND
  6
CONTINUOUS
 10
4.526344
 20
1.275197
  0
VERTEX
  8
FOREGROUND
  6
CONTINUOUS
 10
4.536911
 20
1.296479
  0
VERTEX
  8
FOREGROUND
  6
CONTINUOUS
 10
4.547279
 20
1.317945
  0
VERTEX
  8
FOREGROUND
  6
CONTINUOUS
 10
4.557445
 20
1.339594
  0
VERTEX
  8
FOREGROUND
  6
CONTINUOUS
 10
4.567409
 20
1.361426
  0
VERTEX
  8
FOREGROUND
  6
CONTINUOUS
 10
4.577167
 20
1.383442
  0
VERTEX
  8
FOREGROUND
  6
CONTINUOUS
 10
4.586720
 20
1.405642
  0
VERTEX
  8
FOREGROUND
  6
CONTINUOUS
 10
4.596064
 20
1.428025
  0
VERTEX
  8
FOREGROUND
  6
CONTINUOUS
 10
4.605198
 20
1.450592
  0
VERTEX
  8
FOREGROUND
  6
CONTINUOUS
 10
4.614121
 20
1.473342
  0
VERTEX
  8
FOREGROUND
  6
CONTINUOUS
 10
4.622831
 20
1.496275
  0
VERTEX
  8
FOREGROUND
  6
CONTINUOUS
 10
4.631325
 20
1.519392
  0
VERTEX
  8
FOREGROUND
  6
CONTINUOUS
 10
4.639603
 20
1.542693
  0
VERTEX
  8
FOREGROUND
  6
CONTINUOUS
 10
4.647663
 20
1.566177
  0
VERTEX
  8
FOREGROUND
  6
CONTINUOUS
 10
4.655502
 20
1.589845
  0
VERTEX
  8
FOREGROUND
  6
CONTINUOUS
 10
4.663120
 20
1.613696
  0
VERTEX
  8
FOREGROUND
  6
CONTINUOUS
 10
4.670514
 20
1.637730
  0
VERTEX
  8
FOREGROUND
  6
CONTINUOUS
 10
4.677682
 20
1.661948
  0
VERTEX
  8
FOREGROUND
  6
CONTINUOUS
 10
4.684624
 20
1.686350
  0
VERTEX
  8
FOREGROUND
  6
CONTINUOUS
 10
4.691337
 20
1.710935
  0
VERTEX
  8
FOREGROUND
  6
CONTINUOUS
 10
4.697820
 20
1.735704
  0
VERTEX
  8
FOREGROUND
  6
CONTINUOUS
 10
4.704071
 20
1.760656
  0
VERTEX
  8
FOREGROUND
  6
CONTINUOUS
 10
4.710088
 20
1.785792
  0
VERTEX
  8
FOREGROUND
  6
CONTINUOUS
 10
4.715869
 20
1.811111
  0
VERTEX
  8
FOREGROUND
  6
CONTINUOUS
 10
4.721413
 20
1.836614
  0
VERTEX
  8
FOREGROUND
  6
CONTINUOUS
 10
4.726718
 20
1.862300
  0
VERTEX
  8
FOREGROUND
  6
CONTINUOUS
 10
4.731782
 20
1.888170
  0
VERTEX
  8
FOREGROUND
  6
CONTINUOUS
 10
4.736604
 20
1.914223
  0
VERTEX
  8
FOREGROUND
  6
CONTINUOUS
 10
4.741182
 20
1.940460
  0
VERTEX
  8
FOREGROUND
  6
CONTINUOUS
 10
4.745514
 20
1.966880
  0
VERTEX
  8
FOREGROUND
  6
CONTINUOUS
 10
4.749599
 20
1.993484
  0
VERTEX
  8
FOREGROUND
  6
CONTINUOUS
 10
4.753434
 20
2.020271
  0
VERTEX
  8
FOREGROUND
  6
CONTINUOUS
 10
4.757019
 20
2.047242
  0
VERTEX
  8
FOREGROUND
  6
CONTINUOUS
 10
4.760350
 20
2.074396
  0
VERTEX
  8
FOREGROUND
  6
CONTINUOUS
 10
4.763428
 20
2.101734
  0
VERTEX
  8
FOREGROUND
  6
CONTINUOUS
 10
4.766249
 20
2.129255
  0
VERTEX
  8
FOREGROUND
  6
CONTINUOUS
 10
4.768813
 20
2.156960
  0
VERTEX
  8
FOREGROUND
  6
CONTINUOUS
 10
4.771117
 20
2.184848
  0
VERTEX
  8
FOREGROUND
  6
CONTINUOUS
 10
4.773159
 20
2.212920
  0
VERTEX
  8
FOREGROUND
  6
CONTINUOUS
 10
4.774939
 20
2.241176
  0
VERTEX
  8
FOREGROUND
  6
CONTINUOUS
 10
4.776454
 20
2.269615
  0
VERTEX
  8
FOREGROUND
  6
CONTINUOUS
 10
4.777703
 20
2.298237
  0
VERTEX
  8
FOREGROUND
  6
CONTINUOUS
 10
4.778684
 20
2.327043
  0
VERTEX
  8
FOREGROUND
  6
CONTINUOUS
 10
4.779394
 20
2.356033
  0
VERTEX
  8
FOREGROUND
  6
CONTINUOUS
 10
4.779834
 20
2.385206
  0
VERTEX
  8
FOREGROUND
  6
CONTINUOUS
 10
4.780000
 20
2.414562
  0
SEQEND
  8
0
  0
ENDSEC
  0
EOF
