  0
SECTION
  2
HEADER
  9
$ACADVER
  1
AC1006
  9
$EXTMIN
 10
0.000000
 20
0.000000
  9
$EXTMAX
 10
5.933333
 20
5.930000
  9
$LTSCALE
 40
0.166667
  9
$PDMODE
 70
    35
  9
$PDSIZE
 40
0.133333
  0
ENDSEC
  0
SECTION
  2
TABLES
  0
TABLE
  2
LTYPE
 70
     9
  0
LTYPE
  2
CONTINUOUS
 70
    64
  3
Solid line
 72
    65
 73
     0
 40
0.000000
  0
LTYPE
  2
DASHED
 70
    64
  3
__ __ __ __ __ __ __ __ __ __ __ __ __ __ __
 72
    65
 73
     2
 40
0.001250
 49
0.000833
 49
-0.000417
  0
LTYPE
  2
HIDDEN
 70
    64
  3
 _ _ _ _ _ _ _ _ _ _ _ _ _ _ _ _ _ _ _ _ _ _
 72
    65
 73
     2
 40
0.000625
 49
0.000417
 49
-0.000208
  0
LTYPE
  2
CENTER
 70
    64
  3
____ _ ____ _ ____ _ ____ _ ____ _ ____ _ ____
 72
    65
 73
     4
 40
0.003333
 49
0.002083
 49
-0.000417
 49
0.000417
 49
-0.000417
  0
LTYPE
  2
PHANTOM
 70
    64
  3
_____ _ _ _____ _ _ _____ _ _ _____ _ _ ____
 72
    65
 73
     6
 40
0.004167
 49
0.002083
 49
-0.000417
 49
0.000417
 49
-0.000417
 49
0.000417
 49
-0.000417
  0
LTYPE
  2
DOT
 70
    64
  3
...............................................
 72
    65
 73
     2
 40
0.000417
 49
0.000000
 49
-0.000417
  0
LTYPE
  2
DASHDOT
 70
    64
  3
__ . __ . __ . __ . __ . __ . __ . __ . __ . __
 72
    65
 73
     4
 40
0.001667
 49
0.000833
 49
-0.000417
 49
0.000000
 49
-0.000417
  0
LTYPE
  2
BORDER
 70
    64
  3
__ __ . __ __ . __ __ . __ __ . __ __ . __ __
 72
    65
 73
     6
 40
0.002917
 49
0.000833
 49
-0.000417
 49
0.000833
 49
-0.000417
 49
0.000000
 49
-0.000417
  0
LTYPE
  2
DIVIDE
 70
    64
  3
__ . . __ . . __ . . __ . . __ . . __ . . __
 72
    65
 73
     6
 40
0.002083
 49
0.000833
 49
-0.000417
 49
0.000000
 49
-0.000417
 49
0.000000
 49
-0.000417
  0
LTYPE
  2
DOTDOT
 70
    64
  3
 . .  . .  . .  . .  . .  . . 
 72
    65
 73
     5
 40
0.000917
 49
-0.000417
 49
0.000000
 49
-0.000417
 49
0.000000
 49
-0.000417
  0
ENDTAB
  0
TABLE
  2
STYLE
 70
     2
  0
STYLE
 70
     0
  2
SN0
 40
0.000000
 41
0.001667
 50
0.000000
 71
     0
 42
0.000000
  3
ROMAND
  0
STYLE
 70
    68
  2
SV0
 40
0.000000
 41
0.001667
 50
0.000000
 71
     0
 42
0.000000
  3
ROMAND
  0
ENDTAB
  0
TABLE
  2
LAYER
 70
     2
  0
LAYER
  2
FOREGROUND
 70
    64
 62
     7
  6
CONTINUOUS
  0
LAYER
  2
BACKGROUND
 70
    65
 62
    -7
  6
CONTINUOUS
  0
ENDTAB
  0
ENDSEC
  0
SECTION
  2
ENTITIES
  0
POLYLINE
  8
FOREGROUND
  6
CONTINUOUS
 66
     1
 40
0.010000
 41
0.010000
 70
     1
  0
VERTEX
  8
FOREGROUND
  6
CONTINUOUS
 10
5.883333
 20
2.965000
  0
VERTEX
  8
FOREGROUND
  6
CONTINUOUS
 10
5.883137
 20
3.000986
  0
VERTEX
  8
FOREGROUND
  6
CONTINUOUS
 10
5.882609
 20
3.036748
  0
VERTEX
  8
FOREGROUND
  6
CONTINUOUS
 10
5.881749
 20
3.072286
  0
VERTEX
  8
FOREGROUND
  6
CONTINUOUS
 10
5.880561
 20
3.107602
  0
VERTEX
  8
FOREGROUND
  6
CONTINUOUS
 10
5.879046
 20
3.142693
  0
VERTEX
  8
FOREGROUND
  6
CONTINUOUS
 10
5.877207
 20
3.177561
  0
VERTEX
  8
FOREGROUND
  6
CONTINUOUS
 10
5.875045
 20
3.212206
  0
VERTEX
  8
FOREGROUND
  6
CONTINUOUS
 10
5.872563
 20
3.246627
  0
VERTEX
  8
FOREGROUND
  6
CONTINUOUS
 10
5.869762
 20
3.280825
  0
VERTEX
  8
FOREGROUND
  6
CONTINUOUS
 10
5.866646
 20
3.314799
  0
VERTEX
  8
FOREGROUND
  6
CONTINUOUS
 10
5.863215
 20
3.348550
  0
VERTEX
  8
FOREGROUND
  6
CONTINUOUS
 10
5.859471
 20
3.382077
  0
VERTEX
  8
FOREGROUND
  6
CONTINUOUS
 10
5.855418
 20
3.415380
  0
VERTEX
  8
FOREGROUND
  6
CONTINUOUS
 10
5.851057
 20
3.448461
  0
VERTEX
  8
FOREGROUND
  6
CONTINUOUS
 10
5.846390
 20
3.481317
  0
VERTEX
  8
FOREGROUND
  6
CONTINUOUS
 10
5.841419
 20
3.513950
  0
VERTEX
  8
FOREGROUND
  6
CONTINUOUS
 10
5.836147
 20
3.546360
  0
VERTEX
  8
FOREGROUND
  6
CONTINUOUS
 10
5.830575
 20
3.578546
  0
VERTEX
  8
FOREGROUND
  6
CONTINUOUS
 10
5.824705
 20
3.610509
  0
VERTEX
  8
FOREGROUND
  6
CONTINUOUS
 10
5.818539
 20
3.642248
  0
VERTEX
  8
FOREGROUND
  6
CONTINUOUS
 10
5.812081
 20
3.673764
  0
VERTEX
  8
FOREGROUND
  6
CONTINUOUS
 10
5.805330
 20
3.705056
  0
VERTEX
  8
FOREGROUND
  6
CONTINUOUS
 10
5.798291
 20
3.736125
  0
VERTEX
  8
FOREGROUND
  6
CONTINUOUS
 10
5.790964
 20
3.766970
  0
VERTEX
  8
FOREGROUND
  6
CONTINUOUS
 10
5.783352
 20
3.797591
  0
VERTEX
  8
FOREGROUND
  6
CONTINUOUS
 10
5.775457
 20
3.827990
  0
VERTEX
  8
FOREGROUND
  6
CONTINUOUS
 10
5.767281
 20
3.858164
  0
VERTEX
  8
FOREGROUND
  6
CONTINUOUS
 10
5.758827
 20
3.888115
  0
VERTEX
  8
FOREGROUND
  6
CONTINUOUS
 10
5.750095
 20
3.917843
  0
VERTEX
  8
FOREGROUND
  6
CONTINUOUS
 10
5.741088
 20
3.947347
  0
VERTEX
  8
FOREGROUND
  6
CONTINUOUS
 10
5.731809
 20
3.976628
  0
VERTEX
  8
FOREGROUND
  6
CONTINUOUS
 10
5.722259
 20
4.005685
  0
VERTEX
  8
FOREGROUND
  6
CONTINUOUS
 10
5.712441
 20
4.034519
  0
VERTEX
  8
FOREGROUND
  6
CONTINUOUS
 10
5.702356
 20
4.063129
  0
VERTEX
  8
FOREGROUND
  6
CONTINUOUS
 10
5.692007
 20
4.091516
  0
VERTEX
  8
FOREGROUND
  6
CONTINUOUS
 10
5.681395
 20
4.119679
  0
VERTEX
  8
FOREGROUND
  6
CONTINUOUS
 10
5.670523
 20
4.147618
  0
VERTEX
  8
FOREGROUND
  6
CONTINUOUS
 10
5.659393
 20
4.175334
  0
VERTEX
  8
FOREGROUND
  6
CONTINUOUS
 10
5.648007
 20
4.202827
  0
VERTEX
  8
FOREGROUND
  6
CONTINUOUS
 10
5.636366
 20
4.230096
  0
VERTEX
  8
FOREGROUND
  6
CONTINUOUS
 10
5.624474
 20
4.257142
  0
VERTEX
  8
FOREGROUND
  6
CONTINUOUS
 10
5.612332
 20
4.283964
  0
VERTEX
  8
FOREGROUND
  6
CONTINUOUS
 10
5.599942
 20
4.310563
  0
VERTEX
  8
FOREGROUND
  6
CONTINUOUS
 10
5.587306
 20
4.336938
  0
VERTEX
  8
FOREGROUND
  6
CONTINUOUS
 10
5.574427
 20
4.363090
  0
VERTEX
  8
FOREGROUND
  6
CONTINUOUS
 10
5.561306
 20
4.389018
  0
VERTEX
  8
FOREGROUND
  6
CONTINUOUS
 10
5.547945
 20
4.414722
  0
VERTEX
  8
FOREGROUND
  6
CONTINUOUS
 10
5.534347
 20
4.440203
  0
VERTEX
  8
FOREGROUND
  6
CONTINUOUS
 10
5.520514
 20
4.465461
  0
VERTEX
  8
FOREGROUND
  6
CONTINUOUS
 10
5.506447
 20
4.490495
  0
VERTEX
  8
FOREGROUND
  6
CONTINUOUS
 10
5.492149
 20
4.515306
  0
VERTEX
  8
FOREGROUND
  6
CONTINUOUS
 10
5.477622
 20
4.539893
  0
VERTEX
  8
FOREGROUND
  6
CONTINUOUS
 10
5.462868
 20
4.564257
  0
VERTEX
  8
FOREGROUND
  6
CONTINUOUS
 10
5.447889
 20
4.588397
  0
VERTEX
  8
FOREGROUND
  6
CONTINUOUS
 10
5.432687
 20
4.612313
  0
VERTEX
  8
FOREGROUND
  6
CONTINUOUS
 10
5.417264
 20
4.636006
  0
VERTEX
  8
FOREGROUND
  6
CONTINUOUS
 10
5.401622
 20
4.659476
  0
VERTEX
  8
FOREGROUND
  6
CONTINUOUS
 10
5.385764
 20
4.682722
  0
VERTEX
  8
FOREGROUND
  6
CONTINUOUS
 10
5.369690
 20
4.705745
  0
VERTEX
  8
FOREGROUND
  6
CONTINUOUS
 10
5.353405
 20
4.728544
  0
VERTEX
  8
FOREGROUND
  6
CONTINUOUS
 10
5.336909
 20
4.751119
  0
VERTEX
  8
FOREGROUND
  6
CONTINUOUS
 10
5.320204
 20
4.773472
  0
VERTEX
  8
FOREGROUND
  6
CONTINUOUS
 10
5.303293
 20
4.795600
  0
VERTEX
  8
FOREGROUND
  6
CONTINUOUS
 10
5.286178
 20
4.817505
  0
VERTEX
  8
FOREGROUND
  6
CONTINUOUS
 10
5.268860
 20
4.839187
  0
VERTEX
  8
FOREGROUND
  6
CONTINUOUS
 10
5.251343
 20
4.860645
  0
VERTEX
  8
FOREGROUND
  6
CONTINUOUS
 10
5.233627
 20
4.881880
  0
VERTEX
  8
FOREGROUND
  6
CONTINUOUS
 10
5.215715
 20
4.902891
  0
VERTEX
  8
FOREGROUND
  6
CONTINUOUS
 10
5.197610
 20
4.923678
  0
VERTEX
  8
FOREGROUND
  6
CONTINUOUS
 10
5.179312
 20
4.944242
  0
VERTEX
  8
FOREGROUND
  6
CONTINUOUS
 10
5.160825
 20
4.964583
  0
VERTEX
  8
FOREGROUND
  6
CONTINUOUS
 10
5.142151
 20
4.984700
  0
VERTEX
  8
FOREGROUND
  6
CONTINUOUS
 10
5.123290
 20
5.004593
  0
VERTEX
  8
FOREGROUND
  6
CONTINUOUS
 10
5.104246
 20
5.024263
  0
VERTEX
  8
FOREGROUND
  6
CONTINUOUS
 10
5.085021
 20
5.043710
  0
VERTEX
  8
FOREGROUND
  6
CONTINUOUS
 10
5.065616
 20
5.062933
  0
VERTEX
  8
FOREGROUND
  6
CONTINUOUS
 10
5.046034
 20
5.081933
  0
VERTEX
  8
FOREGROUND
  6
CONTINUOUS
 10
5.026276
 20
5.100709
  0
VERTEX
  8
FOREGROUND
  6
CONTINUOUS
 10
5.006346
 20
5.119261
  0
VERTEX
  8
FOREGROUND
  6
CONTINUOUS
 10
4.986244
 20
5.137590
  0
VERTEX
  8
FOREGROUND
  6
CONTINUOUS
 10
4.965974
 20
5.155696
  0
VERTEX
  8
FOREGROUND
  6
CONTINUOUS
 10
4.945536
 20
5.173578
  0
VERTEX
  8
FOREGROUND
  6
CONTINUOUS
 10
4.924933
 20
5.191236
  0
VERTEX
  8
FOREGROUND
  6
CONTINUOUS
 10
4.904168
 20
5.208671
  0
VERTEX
  8
FOREGROUND
  6
CONTINUOUS
 10
4.883242
 20
5.225883
  0
VERTEX
  8
FOREGROUND
  6
CONTINUOUS
 10
4.862158
 20
5.242871
  0
VERTEX
  8
FOREGROUND
  6
CONTINUOUS
 10
4.840916
 20
5.259635
  0
VERTEX
  8
FOREGROUND
  6
CONTINUOUS
 10
4.819521
 20
5.276176
  0
VERTEX
  8
FOREGROUND
  6
CONTINUOUS
 10
4.797972
 20
5.292493
  0
VERTEX
  8
FOREGROUND
  6
CONTINUOUS
 10
4.776274
 20
5.308587
  0
VERTEX
  8
FOREGROUND
  6
CONTINUOUS
 10
4.754427
 20
5.324458
  0
VERTEX
  8
FOREGROUND
  6
CONTINUOUS
 10
4.732434
 20
5.340105
  0
VERTEX
  8
FOREGROUND
  6
CONTINUOUS
 10
4.710297
 20
5.355528
  0
VERTEX
  8
FOREGROUND
  6
CONTINUOUS
 10
4.688018
 20
5.370728
  0
VERTEX
  8
FOREGROUND
  6
CONTINUOUS
 10
4.665598
 20
5.385705
  0
VERTEX
  8
FOREGROUND
  6
CONTINUOUS
 10
4.643041
 20
5.400458
  0
VERTEX
  8
FOREGROUND
  6
CONTINUOUS
 10
4.620348
 20
5.414987
  0
VERTEX
  8
FOREGROUND
  6
CONTINUOUS
 10
4.597521
 20
5.429293
  0
VERTEX
  8
FOREGROUND
  6
CONTINUOUS
 10
4.574563
 20
5.443375
  0
VERTEX
  8
FOREGROUND
  6
CONTINUOUS
 10
4.551475
 20
5.457234
  0
VERTEX
  8
FOREGROUND
  6
CONTINUOUS
 10
4.528259
 20
5.470870
  0
VERTEX
  8
FOREGROUND
  6
CONTINUOUS
 10
4.504918
 20
5.484281
  0
VERTEX
  8
FOREGROUND
  6
CONTINUOUS
 10
4.481454
 20
5.497470
  0
VERTEX
  8
FOREGROUND
  6
CONTINUOUS
 10
4.457868
 20
5.510435
  0
VERTEX
  8
FOREGROUND
  6
CONTINUOUS
 10
4.434163
 20
5.523176
  0
VERTEX
  8
FOREGROUND
  6
CONTINUOUS
 10
4.410341
 20
5.535694
  0
VERTEX
  8
FOREGROUND
  6
CONTINUOUS
 10
4.386403
 20
5.547988
  0
VERTEX
  8
FOREGROUND
  6
CONTINUOUS
 10
4.362353
 20
5.560059
  0
VERTEX
  8
FOREGROUND
  6
CONTINUOUS
 10
4.338192
 20
5.571906
  0
VERTEX
  8
FOREGROUND
  6
CONTINUOUS
 10
4.313921
 20
5.583530
  0
VERTEX
  8
FOREGROUND
  6
CONTINUOUS
 10
4.289544
 20
5.594930
  0
VERTEX
  8
FOREGROUND
  6
CONTINUOUS
 10
4.265063
 20
5.606107
  0
VERTEX
  8
FOREGROUND
  6
CONTINUOUS
 10
4.240478
 20
5.617061
  0
VERTEX
  8
FOREGROUND
  6
CONTINUOUS
 10
4.215793
 20
5.627790
  0
VERTEX
  8
FOREGROUND
  6
CONTINUOUS
 10
4.191010
 20
5.638297
  0
VERTEX
  8
FOREGROUND
  6
CONTINUOUS
 10
4.166130
 20
5.648579
  0
VERTEX
  8
FOREGROUND
  6
CONTINUOUS
 10
4.141155
 20
5.658639
  0
VERTEX
  8
FOREGROUND
  6
CONTINUOUS
 10
4.116089
 20
5.668474
  0
VERTEX
  8
FOREGROUND
  6
CONTINUOUS
 10
4.090932
 20
5.678087
  0
VERTEX
  8
FOREGROUND
  6
CONTINUOUS
 10
4.065687
 20
5.687475
  0
VERTEX
  8
FOREGROUND
  6
CONTINUOUS
 10
4.040356
 20
5.696640
  0
VERTEX
  8
FOREGROUND
  6
CONTINUOUS
 10
4.014941
 20
5.705582
  0
VERTEX
  8
FOREGROUND
  6
CONTINUOUS
 10
3.989444
 20
5.714300
  0
VERTEX
  8
FOREGROUND
  6
CONTINUOUS
 10
3.963867
 20
5.722795
  0
VERTEX
  8
FOREGROUND
  6
CONTINUOUS
 10
3.938213
 20
5.731066
  0
VERTEX
  8
FOREGROUND
  6
CONTINUOUS
 10
3.912482
 20
5.739114
  0
VERTEX
  8
FOREGROUND
  6
CONTINUOUS
 10
3.886678
 20
5.746938
  0
VERTEX
  8
FOREGROUND
  6
CONTINUOUS
 10
3.860803
 20
5.754539
  0
VERTEX
  8
FOREGROUND
  6
CONTINUOUS
 10
3.834858
 20
5.761916
  0
VERTEX
  8
FOREGROUND
  6
CONTINUOUS
 10
3.808845
 20
5.769069
  0
VERTEX
  8
FOREGROUND
  6
CONTINUOUS
 10
3.782768
 20
5.776000
  0
VERTEX
  8
FOREGROUND
  6
CONTINUOUS
 10
3.756627
 20
5.782706
  0
VERTEX
  8
FOREGROUND
  6
CONTINUOUS
 10
3.730425
 20
5.789189
  0
VERTEX
  8
FOREGROUND
  6
CONTINUOUS
 10
3.704163
 20
5.795449
  0
VERTEX
  8
FOREGROUND
  6
CONTINUOUS
 10
3.677845
 20
5.801485
  0
VERTEX
  8
FOREGROUND
  6
CONTINUOUS
 10
3.651472
 20
5.807298
  0
VERTEX
  8
FOREGROUND
  6
CONTINUOUS
 10
3.625046
 20
5.812887
  0
VERTEX
  8
FOREGROUND
  6
CONTINUOUS
 10
3.598569
 20
5.818252
  0
VERTEX
  8
FOREGROUND
  6
CONTINUOUS
 10
3.572043
 20
5.823394
  0
VERTEX
  8
FOREGROUND
  6
CONTINUOUS
 10
3.545471
 20
5.828313
  0
VERTEX
  8
FOREGROUND
  6
CONTINUOUS
 10
3.518854
 20
5.833008
  0
VERTEX
  8
FOREGROUND
  6
CONTINUOUS
 10
3.492194
 20
5.837479
  0
VERTEX
  8
FOREGROUND
  6
CONTINUOUS
 10
3.465494
 20
5.841727
  0
VERTEX
  8
FOREGROUND
  6
CONTINUOUS
 10
3.438756
 20
5.845752
  0
VERTEX
  8
FOREGROUND
  6
CONTINUOUS
 10
3.411981
 20
5.849553
  0
VERTEX
  8
FOREGROUND
  6
CONTINUOUS
 10
3.385172
 20
5.853130
  0
VERTEX
  8
FOREGROUND
  6
CONTINUOUS
 10
3.358331
 20
5.856484
  0
VERTEX
  8
FOREGROUND
  6
CONTINUOUS
 10
3.331460
 20
5.859614
  0
VERTEX
  8
FOREGROUND
  6
CONTINUOUS
 10
3.304561
 20
5.862521
  0
VERTEX
  8
FOREGROUND
  6
CONTINUOUS
 10
3.277636
 20
5.865205
  0
VERTEX
  8
FOREGROUND
  6
CONTINUOUS
 10
3.250687
 20
5.867665
  0
VERTEX
  8
FOREGROUND
  6
CONTINUOUS
 10
3.223716
 20
5.869901
  0
VERTEX
  8
FOREGROUND
  6
CONTINUOUS
 10
3.196726
 20
5.871914
  0
VERTEX
  8
FOREGROUND
  6
CONTINUOUS
 10
3.169718
 20
5.873703
  0
VERTEX
  8
FOREGROUND
  6
CONTINUOUS
 10
3.142694
 20
5.875269
  0
VERTEX
  8
FOREGROUND
  6
CONTINUOUS
 10
3.115657
 20
5.876611
  0
VERTEX
  8
FOREGROUND
  6
CONTINUOUS
 10
3.088609
 20
5.877730
  0
VERTEX
  8
FOREGROUND
  6
CONTINUOUS
 10
3.061551
 20
5.878626
  0
VERTEX
  8
FOREGROUND
  6
CONTINUOUS
 10
3.034486
 20
5.879297
  0
VERTEX
  8
FOREGROUND
  6
CONTINUOUS
 10
3.007415
 20
5.879746
  0
VERTEX
  8
FOREGROUND
  6
CONTINUOUS
 10
2.980342
 20
5.879970
  0
VERTEX
  8
FOREGROUND
  6
CONTINUOUS
 10
2.953268
 20
5.879972
  0
VERTEX
  8
FOREGROUND
  6
CONTINUOUS
 10
2.926194
 20
5.879749
  0
VERTEX
  8
FOREGROUND
  6
CONTINUOUS
 10
2.899124
 20
5.879304
  0
VERTEX
  8
FOREGROUND
  6
CONTINUOUS
 10
2.872059
 20
5.878634
  0
VERTEX
  8
FOREGROUND
  6
CONTINUOUS
 10
2.845001
 20
5.877742
  0
VERTEX
  8
FOREGROUND
  6
CONTINUOUS
 10
2.817952
 20
5.876625
  0
VERTEX
  8
FOREGROUND
  6
CONTINUOUS
 10
2.790915
 20
5.875285
  0
VERTEX
  8
FOREGROUND
  6
CONTINUOUS
 10
2.763891
 20
5.873722
  0
VERTEX
  8
FOREGROUND
  6
CONTINUOUS
 10
2.736883
 20
5.871935
  0
VERTEX
  8
FOREGROUND
  6
CONTINUOUS
 10
2.709892
 20
5.869925
  0
VERTEX
  8
FOREGROUND
  6
CONTINUOUS
 10
2.682921
 20
5.867691
  0
VERTEX
  8
FOREGROUND
  6
CONTINUOUS
 10
2.655972
 20
5.865234
  0
VERTEX
  8
FOREGROUND
  6
CONTINUOUS
 10
2.629047
 20
5.862553
  0
VERTEX
  8
FOREGROUND
  6
CONTINUOUS
 10
2.602148
 20
5.859648
  0
VERTEX
  8
FOREGROUND
  6
CONTINUOUS
 10
2.575276
 20
5.856520
  0
VERTEX
  8
FOREGROUND
  6
CONTINUOUS
 10
2.548435
 20
5.853169
  0
VERTEX
  8
FOREGROUND
  6
CONTINUOUS
 10
2.521626
 20
5.849594
  0
VERTEX
  8
FOREGROUND
  6
CONTINUOUS
 10
2.494851
 20
5.845795
  0
VERTEX
  8
FOREGROUND
  6
CONTINUOUS
 10
2.468112
 20
5.841773
  0
VERTEX
  8
FOREGROUND
  6
CONTINUOUS
 10
2.441411
 20
5.837528
  0
VERTEX
  8
FOREGROUND
  6
CONTINUOUS
 10
2.414752
 20
5.833059
  0
VERTEX
  8
FOREGROUND
  6
CONTINUOUS
 10
2.388134
 20
5.828366
  0
VERTEX
  8
FOREGROUND
  6
CONTINUOUS
 10
2.361561
 20
5.823450
  0
VERTEX
  8
FOREGROUND
  6
CONTINUOUS
 10
2.335035
 20
5.818311
  0
VERTEX
  8
FOREGROUND
  6
CONTINUOUS
 10
2.308558
 20
5.812948
  0
VERTEX
  8
FOREGROUND
  6
CONTINUOUS
 10
2.282131
 20
5.807361
  0
VERTEX
  8
FOREGROUND
  6
CONTINUOUS
 10
2.255757
 20
5.801551
  0
VERTEX
  8
FOREGROUND
  6
CONTINUOUS
 10
2.229438
 20
5.795517
  0
VERTEX
  8
FOREGROUND
  6
CONTINUOUS
 10
2.203176
 20
5.789260
  0
VERTEX
  8
FOREGROUND
  6
CONTINUOUS
 10
2.176974
 20
5.782779
  0
VERTEX
  8
FOREGROUND
  6
CONTINUOUS
 10
2.150832
 20
5.776075
  0
VERTEX
  8
FOREGROUND
  6
CONTINUOUS
 10
2.124754
 20
5.769147
  0
VERTEX
  8
FOREGROUND
  6
CONTINUOUS
 10
2.098740
 20
5.761996
  0
VERTEX
  8
FOREGROUND
  6
CONTINUOUS
 10
2.072795
 20
5.754621
  0
VERTEX
  8
FOREGROUND
  6
CONTINUOUS
 10
2.046919
 20
5.747023
  0
VERTEX
  8
FOREGROUND
  6
CONTINUOUS
 10
2.021114
 20
5.739201
  0
VERTEX
  8
FOREGROUND
  6
CONTINUOUS
 10
1.995383
 20
5.731156
  0
VERTEX
  8
FOREGROUND
  6
CONTINUOUS
 10
1.969727
 20
5.722887
  0
VERTEX
  8
FOREGROUND
  6
CONTINUOUS
 10
1.944150
 20
5.714395
  0
VERTEX
  8
FOREGROUND
  6
CONTINUOUS
 10
1.918652
 20
5.705679
  0
VERTEX
  8
FOREGROUND
  6
CONTINUOUS
 10
1.893236
 20
5.696740
  0
VERTEX
  8
FOREGROUND
  6
CONTINUOUS
 10
1.867904
 20
5.687577
  0
VERTEX
  8
FOREGROUND
  6
CONTINUOUS
 10
1.842658
 20
5.678191
  0
VERTEX
  8
FOREGROUND
  6
CONTINUOUS
 10
1.817501
 20
5.668581
  0
VERTEX
  8
FOREGROUND
  6
CONTINUOUS
 10
1.792433
 20
5.658747
  0
VERTEX
  8
FOREGROUND
  6
CONTINUOUS
 10
1.767458
 20
5.648690
  0
VERTEX
  8
FOREGROUND
  6
CONTINUOUS
 10
1.742577
 20
5.638410
  0
VERTEX
  8
FOREGROUND
  6
CONTINUOUS
 10
1.717792
 20
5.627906
  0
VERTEX
  8
FOREGROUND
  6
CONTINUOUS
 10
1.693106
 20
5.617178
  0
VERTEX
  8
FOREGROUND
  6
CONTINUOUS
 10
1.668521
 20
5.606227
  0
VERTEX
  8
FOREGROUND
  6
CONTINUOUS
 10
1.644038
 20
5.595053
  0
VERTEX
  8
FOREGROUND
  6
CONTINUOUS
 10
1.619660
 20
5.583655
  0
VERTEX
  8
FOREGROUND
  6
CONTINUOUS
 10
1.595389
 20
5.572033
  0
VERTEX
  8
FOREGROUND
  6
CONTINUOUS
 10
1.571226
 20
5.560188
  0
VERTEX
  8
FOREGROUND
  6
CONTINUOUS
 10
1.547175
 20
5.548120
  0
VERTEX
  8
FOREGROUND
  6
CONTINUOUS
 10
1.523236
 20
5.535827
  0
VERTEX
  8
FOREGROUND
  6
CONTINUOUS
 10
1.499413
 20
5.523312
  0
VERTEX
  8
FOREGROUND
  6
CONTINUOUS
 10
1.475707
 20
5.510573
  0
VERTEX
  8
FOREGROUND
  6
CONTINUOUS
 10
1.452119
 20
5.497610
  0
VERTEX
  8
FOREGROUND
  6
CONTINUOUS
 10
1.428654
 20
5.484424
  0
VERTEX
  8
FOREGROUND
  6
CONTINUOUS
 10
1.405311
 20
5.471014
  0
VERTEX
  8
FOREGROUND
  6
CONTINUOUS
 10
1.382094
 20
5.457381
  0
VERTEX
  8
FOREGROUND
  6
CONTINUOUS
 10
1.359005
 20
5.443524
  0
VERTEX
  8
FOREGROUND
  6
CONTINUOUS
 10
1.336045
 20
5.429444
  0
VERTEX
  8
FOREGROUND
  6
CONTINUOUS
 10
1.313217
 20
5.415140
  0
VERTEX
  8
FOREGROUND
  6
CONTINUOUS
 10
1.290523
 20
5.400613
  0
VERTEX
  8
FOREGROUND
  6
CONTINUOUS
 10
1.267964
 20
5.385862
  0
VERTEX
  8
FOREGROUND
  6
CONTINUOUS
 10
1.245544
 20
5.370888
  0
VERTEX
  8
FOREGROUND
  6
CONTINUOUS
 10
1.223263
 20
5.355690
  0
VERTEX
  8
FOREGROUND
  6
CONTINUOUS
 10
1.201124
 20
5.340268
  0
VERTEX
  8
FOREGROUND
  6
CONTINUOUS
 10
1.179130
 20
5.324623
  0
VERTEX
  8
FOREGROUND
  6
CONTINUOUS
 10
1.157282
 20
5.308755
  0
VERTEX
  8
FOREGROUND
  6
CONTINUOUS
 10
1.135582
 20
5.292663
  0
VERTEX
  8
FOREGROUND
  6
CONTINUOUS
 10
1.114032
 20
5.276348
  0
VERTEX
  8
FOREGROUND
  6
CONTINUOUS
 10
1.092634
 20
5.259809
  0
VERTEX
  8
FOREGROUND
  6
CONTINUOUS
 10
1.071392
 20
5.243046
  0
VERTEX
  8
FOREGROUND
  6
CONTINUOUS
 10
1.050305
 20
5.226060
  0
VERTEX
  8
FOREGROUND
  6
CONTINUOUS
 10
1.029378
 20
5.208851
  0
VERTEX
  8
FOREGROUND
  6
CONTINUOUS
 10
1.008611
 20
5.191417
  0
VERTEX
  8
FOREGROUND
  6
CONTINUOUS
 10
0.988007
 20
5.173761
  0
VERTEX
  8
FOREGROUND
  6
CONTINUOUS
 10
0.967567
 20
5.155881
  0
VERTEX
  8
FOREGROUND
  6
CONTINUOUS
 10
0.947295
 20
5.137777
  0
VERTEX
  8
FOREGROUND
  6
CONTINUOUS
 10
0.927192
 20
5.119450
  0
VERTEX
  8
FOREGROUND
  6
CONTINUOUS
 10
0.907259
 20
5.100899
  0
VERTEX
  8
FOREGROUND
  6
CONTINUOUS
 10
0.887500
 20
5.082125
  0
VERTEX
  8
FOREGROUND
  6
CONTINUOUS
 10
0.867916
 20
5.063127
  0
VERTEX
  8
FOREGROUND
  6
CONTINUOUS
 10
0.848510
 20
5.043906
  0
VERTEX
  8
FOREGROUND
  6
CONTINUOUS
 10
0.829282
 20
5.024461
  0
VERTEX
  8
FOREGROUND
  6
CONTINUOUS
 10
0.810236
 20
5.004793
  0
VERTEX
  8
FOREGROUND
  6
CONTINUOUS
 10
0.791374
 20
4.984901
  0
VERTEX
  8
FOREGROUND
  6
CONTINUOUS
 10
0.772697
 20
4.964786
  0
VERTEX
  8
FOREGROUND
  6
CONTINUOUS
 10
0.754208
 20
4.944447
  0
VERTEX
  8
FOREGROUND
  6
CONTINUOUS
 10
0.735909
 20
4.923885
  0
VERTEX
  8
FOREGROUND
  6
CONTINUOUS
 10
0.717802
 20
4.903099
  0
VERTEX
  8
FOREGROUND
  6
CONTINUOUS
 10
0.699888
 20
4.882089
  0
VERTEX
  8
FOREGROUND
  6
CONTINUOUS
 10
0.682170
 20
4.860856
  0
VERTEX
  8
FOREGROUND
  6
CONTINUOUS
 10
0.664651
 20
4.839400
  0
VERTEX
  8
FOREGROUND
  6
CONTINUOUS
 10
0.647331
 20
4.817720
  0
VERTEX
  8
FOREGROUND
  6
CONTINUOUS
 10
0.630214
 20
4.795817
  0
VERTEX
  8
FOREGROUND
  6
CONTINUOUS
 10
0.613301
 20
4.773690
  0
VERTEX
  8
FOREGROUND
  6
CONTINUOUS
 10
0.596594
 20
4.751339
  0
VERTEX
  8
FOREGROUND
  6
CONTINUOUS
 10
0.580096
 20
4.728765
  0
VERTEX
  8
FOREGROUND
  6
CONTINUOUS
 10
0.563808
 20
4.705967
  0
VERTEX
  8
FOREGROUND
  6
CONTINUOUS
 10
0.547732
 20
4.682946
  0
VERTEX
  8
FOREGROUND
  6
CONTINUOUS
 10
0.531872
 20
4.659702
  0
VERTEX
  8
FOREGROUND
  6
CONTINUOUS
 10
0.516228
 20
4.636233
  0
VERTEX
  8
FOREGROUND
  6
CONTINUOUS
 10
0.500803
 20
4.612542
  0
VERTEX
  8
FOREGROUND
  6
CONTINUOUS
 10
0.485598
 20
4.588626
  0
VERTEX
  8
FOREGROUND
  6
CONTINUOUS
 10
0.470617
 20
4.564488
  0
VERTEX
  8
FOREGROUND
  6
CONTINUOUS
 10
0.455860
 20
4.540125
  0
VERTEX
  8
FOREGROUND
  6
CONTINUOUS
 10
0.441331
 20
4.515540
  0
VERTEX
  8
FOREGROUND
  6
CONTINUOUS
 10
0.427031
 20
4.490730
  0
VERTEX
  8
FOREGROUND
  6
CONTINUOUS
 10
0.412961
 20
4.465698
  0
VERTEX
  8
FOREGROUND
  6
CONTINUOUS
 10
0.399126
 20
4.440441
  0
VERTEX
  8
FOREGROUND
  6
CONTINUOUS
 10
0.385525
 20
4.414961
  0
VERTEX
  8
FOREGROUND
  6
CONTINUOUS
 10
0.372162
 20
4.389258
  0
VERTEX
  8
FOREGROUND
  6
CONTINUOUS
 10
0.359039
 20
4.363331
  0
VERTEX
  8
FOREGROUND
  6
CONTINUOUS
 10
0.346157
 20
4.337181
  0
VERTEX
  8
FOREGROUND
  6
CONTINUOUS
 10
0.333519
 20
4.310807
  0
VERTEX
  8
FOREGROUND
  6
CONTINUOUS
 10
0.321126
 20
4.284209
  0
VERTEX
  8
FOREGROUND
  6
CONTINUOUS
 10
0.308982
 20
4.257388
  0
VERTEX
  8
FOREGROUND
  6
CONTINUOUS
 10
0.297087
 20
4.230344
  0
VERTEX
  8
FOREGROUND
  6
CONTINUOUS
 10
0.285444
 20
4.203075
  0
VERTEX
  8
FOREGROUND
  6
CONTINUOUS
 10
0.274055
 20
4.175584
  0
VERTEX
  8
FOREGROUND
  6
CONTINUOUS
 10
0.262922
 20
4.147869
  0
VERTEX
  8
FOREGROUND
  6
CONTINUOUS
 10
0.252048
 20
4.119930
  0
VERTEX
  8
FOREGROUND
  6
CONTINUOUS
 10
0.241433
 20
4.091768
  0
VERTEX
  8
FOREGROUND
  6
CONTINUOUS
 10
0.231081
 20
4.063382
  0
VERTEX
  8
FOREGROUND
  6
CONTINUOUS
 10
0.220994
 20
4.034773
  0
VERTEX
  8
FOREGROUND
  6
CONTINUOUS
 10
0.211173
 20
4.005940
  0
VERTEX
  8
FOREGROUND
  6
CONTINUOUS
 10
0.201620
 20
3.976884
  0
VERTEX
  8
FOREGROUND
  6
CONTINUOUS
 10
0.192338
 20
3.947604
  0
VERTEX
  8
FOREGROUND
  6
CONTINUOUS
 10
0.183329
 20
3.918101
  0
VERTEX
  8
FOREGROUND
  6
CONTINUOUS
 10
0.174594
 20
3.888374
  0
VERTEX
  8
FOREGROUND
  6
CONTINUOUS
 10
0.166136
 20
3.858424
  0
VERTEX
  8
FOREGROUND
  6
CONTINUOUS
 10
0.157958
 20
3.828250
  0
VERTEX
  8
FOREGROUND
  6
CONTINUOUS
 10
0.150060
 20
3.797852
  0
VERTEX
  8
FOREGROUND
  6
CONTINUOUS
 10
0.142445
 20
3.767231
  0
VERTEX
  8
FOREGROUND
  6
CONTINUOUS
 10
0.135115
 20
3.736387
  0
VERTEX
  8
FOREGROUND
  6
CONTINUOUS
 10
0.128073
 20
3.705319
  0
VERTEX
  8
FOREGROUND
  6
CONTINUOUS
 10
0.121320
 20
3.674027
  0
VERTEX
  8
FOREGROUND
  6
CONTINUOUS
 10
0.114858
 20
3.642512
  0
VERTEX
  8
FOREGROUND
  6
CONTINUOUS
 10
0.108690
 20
3.610774
  0
VERTEX
  8
FOREGROUND
  6
CONTINUOUS
 10
0.102817
 20
3.578811
  0
VERTEX
  8
FOREGROUND
  6
CONTINUOUS
 10
0.097242
 20
3.546626
  0
VERTEX
  8
FOREGROUND
  6
CONTINUOUS
 10
0.091966
 20
3.514217
  0
VERTEX
  8
FOREGROUND
  6
CONTINUOUS
 10
0.086992
 20
3.481584
  0
VERTEX
  8
FOREGROUND
  6
CONTINUOUS
 10
0.082322
 20
3.448728
  0
VERTEX
  8
FOREGROUND
  6
CONTINUOUS
 10
0.077958
 20
3.415648
  0
VERTEX
  8
FOREGROUND
  6
CONTINUOUS
 10
0.073901
 20
3.382345
  0
VERTEX
  8
FOREGROUND
  6
CONTINUOUS
 10
0.070155
 20
3.348818
  0
VERTEX
  8
FOREGROUND
  6
CONTINUOUS
 10
0.066721
 20
3.315068
  0
VERTEX
  8
FOREGROUND
  6
CONTINUOUS
 10
0.063601
 20
3.281094
  0
VERTEX
  8
FOREGROUND
  6
CONTINUOUS
 10
0.060797
 20
3.246896
  0
VERTEX
  8
FOREGROUND
  6
CONTINUOUS
 10
0.058312
 20
3.212475
  0
VERTEX
  8
FOREGROUND
  6
CONTINUOUS
 10
0.056146
 20
3.177831
  0
VERTEX
  8
FOREGROUND
  6
CONTINUOUS
 10
0.054304
 20
3.142963
  0
VERTEX
  8
FOREGROUND
  6
CONTINUOUS
 10
0.052786
 20
3.107871
  0
VERTEX
  8
FOREGROUND
  6
CONTINUOUS
 10
0.051594
 20
3.072556
  0
VERTEX
  8
FOREGROUND
  6
CONTINUOUS
 10
0.050731
 20
3.037018
  0
VERTEX
  8
FOREGROUND
  6
CONTINUOUS
 10
0.050199
 20
3.001256
  0
VERTEX
  8
FOREGROUND
  6
CONTINUOUS
 10
0.050000
 20
2.965270
  0
VERTEX
  8
FOREGROUND
  6
CONTINUOUS
 10
0.050000
 20
2.965270
  0
VERTEX
  8
FOREGROUND
  6
CONTINUOUS
 10
0.050193
 20
2.929284
  0
VERTEX
  8
FOREGROUND
  6
CONTINUOUS
 10
0.050718
 20
2.893522
  0
VERTEX
  8
FOREGROUND
  6
CONTINUOUS
 10
0.051574
 20
2.857984
  0
VERTEX
  8
FOREGROUND
  6
CONTINUOUS
 10
0.052759
 20
2.822668
  0
VERTEX
  8
FOREGROUND
  6
CONTINUOUS
 10
0.054270
 20
2.787576
  0
VERTEX
  8
FOREGROUND
  6
CONTINUOUS
 10
0.056107
 20
2.752708
  0
VERTEX
  8
FOREGROUND
  6
CONTINUOUS
 10
0.058265
 20
2.718063
  0
VERTEX
  8
FOREGROUND
  6
CONTINUOUS
 10
0.060744
 20
2.683642
  0
VERTEX
  8
FOREGROUND
  6
CONTINUOUS
 10
0.063542
 20
2.649444
  0
VERTEX
  8
FOREGROUND
  6
CONTINUOUS
 10
0.066655
 20
2.615470
  0
VERTEX
  8
FOREGROUND
  6
CONTINUOUS
 10
0.070083
 20
2.581719
  0
VERTEX
  8
FOREGROUND
  6
CONTINUOUS
 10
0.073823
 20
2.548191
  0
VERTEX
  8
FOREGROUND
  6
CONTINUOUS
 10
0.077873
 20
2.514887
  0
VERTEX
  8
FOREGROUND
  6
CONTINUOUS
 10
0.082231
 20
2.481806
  0
VERTEX
  8
FOREGROUND
  6
CONTINUOUS
 10
0.086895
 20
2.448949
  0
VERTEX
  8
FOREGROUND
  6
CONTINUOUS
 10
0.091863
 20
2.416316
  0
VERTEX
  8
FOREGROUND
  6
CONTINUOUS
 10
0.097133
 20
2.383906
  0
VERTEX
  8
FOREGROUND
  6
CONTINUOUS
 10
0.102702
 20
2.351719
  0
VERTEX
  8
FOREGROUND
  6
CONTINUOUS
 10
0.108569
 20
2.319756
  0
VERTEX
  8
FOREGROUND
  6
CONTINUOUS
 10
0.114731
 20
2.288016
  0
VERTEX
  8
FOREGROUND
  6
CONTINUOUS
 10
0.121187
 20
2.256500
  0
VERTEX
  8
FOREGROUND
  6
CONTINUOUS
 10
0.127934
 20
2.225207
  0
VERTEX
  8
FOREGROUND
  6
CONTINUOUS
 10
0.134971
 20
2.194138
  0
VERTEX
  8
FOREGROUND
  6
CONTINUOUS
 10
0.142295
 20
2.163292
  0
VERTEX
  8
FOREGROUND
  6
CONTINUOUS
 10
0.149904
 20
2.132669
  0
VERTEX
  8
FOREGROUND
  6
CONTINUOUS
 10
0.157796
 20
2.102271
  0
VERTEX
  8
FOREGROUND
  6
CONTINUOUS
 10
0.165969
 20
2.072095
  0
VERTEX
  8
FOREGROUND
  6
CONTINUOUS
 10
0.174421
 20
2.042143
  0
VERTEX
  8
FOREGROUND
  6
CONTINUOUS
 10
0.183150
 20
2.012415
  0
VERTEX
  8
FOREGROUND
  6
CONTINUOUS
 10
0.192154
 20
1.982910
  0
VERTEX
  8
FOREGROUND
  6
CONTINUOUS
 10
0.201430
 20
1.953628
  0
VERTEX
  8
FOREGROUND
  6
CONTINUOUS
 10
0.210978
 20
1.924570
  0
VERTEX
  8
FOREGROUND
  6
CONTINUOUS
 10
0.220793
 20
1.895736
  0
VERTEX
  8
FOREGROUND
  6
CONTINUOUS
 10
0.230876
 20
1.867124
  0
VERTEX
  8
FOREGROUND
  6
CONTINUOUS
 10
0.241222
 20
1.838737
  0
VERTEX
  8
FOREGROUND
  6
CONTINUOUS
 10
0.251831
 20
1.810573
  0
VERTEX
  8
FOREGROUND
  6
CONTINUOUS
 10
0.262701
 20
1.782632
  0
VERTEX
  8
FOREGROUND
  6
CONTINUOUS
 10
0.273828
 20
1.754915
  0
VERTEX
  8
FOREGROUND
  6
CONTINUOUS
 10
0.285212
 20
1.727421
  0
VERTEX
  8
FOREGROUND
  6
CONTINUOUS
 10
0.296850
 20
1.700151
  0
VERTEX
  8
FOREGROUND
  6
CONTINUOUS
 10
0.308739
 20
1.673104
  0
VERTEX
  8
FOREGROUND
  6
CONTINUOUS
 10
0.320879
 20
1.646281
  0
VERTEX
  8
FOREGROUND
  6
CONTINUOUS
 10
0.333267
 20
1.619681
  0
VERTEX
  8
FOREGROUND
  6
CONTINUOUS
 10
0.345900
 20
1.593305
  0
VERTEX
  8
FOREGROUND
  6
CONTINUOUS
 10
0.358777
 20
1.567152
  0
VERTEX
  8
FOREGROUND
  6
CONTINUOUS
 10
0.371895
 20
1.541223
  0
VERTEX
  8
FOREGROUND
  6
CONTINUOUS
 10
0.385254
 20
1.515517
  0
VERTEX
  8
FOREGROUND
  6
CONTINUOUS
 10
0.398849
 20
1.490034
  0
VERTEX
  8
FOREGROUND
  6
CONTINUOUS
 10
0.412680
 20
1.464775
  0
VERTEX
  8
FOREGROUND
  6
CONTINUOUS
 10
0.426745
 20
1.439740
  0
VERTEX
  8
FOREGROUND
  6
CONTINUOUS
 10
0.441040
 20
1.414928
  0
VERTEX
  8
FOREGROUND
  6
CONTINUOUS
 10
0.455565
 20
1.390340
  0
VERTEX
  8
FOREGROUND
  6
CONTINUOUS
 10
0.470317
 20
1.365975
  0
VERTEX
  8
FOREGROUND
  6
CONTINUOUS
 10
0.485294
 20
1.341833
  0
VERTEX
  8
FOREGROUND
  6
CONTINUOUS
 10
0.500494
 20
1.317915
  0
VERTEX
  8
FOREGROUND
  6
CONTINUOUS
 10
0.515915
 20
1.294220
  0
VERTEX
  8
FOREGROUND
  6
CONTINUOUS
 10
0.531554
 20
1.270749
  0
VERTEX
  8
FOREGROUND
  6
CONTINUOUS
 10
0.547411
 20
1.247502
  0
VERTEX
  8
FOREGROUND
  6
CONTINUOUS
 10
0.563482
 20
1.224478
  0
VERTEX
  8
FOREGROUND
  6
CONTINUOUS
 10
0.579765
 20
1.201677
  0
VERTEX
  8
FOREGROUND
  6
CONTINUOUS
 10
0.596259
 20
1.179100
  0
VERTEX
  8
FOREGROUND
  6
CONTINUOUS
 10
0.612962
 20
1.156746
  0
VERTEX
  8
FOREGROUND
  6
CONTINUOUS
 10
0.629871
 20
1.134616
  0
VERTEX
  8
FOREGROUND
  6
CONTINUOUS
 10
0.646984
 20
1.112710
  0
VERTEX
  8
FOREGROUND
  6
CONTINUOUS
 10
0.664299
 20
1.091026
  0
VERTEX
  8
FOREGROUND
  6
CONTINUOUS
 10
0.681815
 20
1.069567
  0
VERTEX
  8
FOREGROUND
  6
CONTINUOUS
 10
0.699529
 20
1.048330
  0
VERTEX
  8
FOREGROUND
  6
CONTINUOUS
 10
0.717438
 20
1.027318
  0
VERTEX
  8
FOREGROUND
  6
CONTINUOUS
 10
0.735542
 20
1.006528
  0
VERTEX
  8
FOREGROUND
  6
CONTINUOUS
 10
0.753837
 20
0.985963
  0
VERTEX
  8
FOREGROUND
  6
CONTINUOUS
 10
0.772323
 20
0.965620
  0
VERTEX
  8
FOREGROUND
  6
CONTINUOUS
 10
0.790996
 20
0.945502
  0
VERTEX
  8
FOREGROUND
  6
CONTINUOUS
 10
0.809854
 20
0.925606
  0
VERTEX
  8
FOREGROUND
  6
CONTINUOUS
 10
0.828896
 20
0.905935
  0
VERTEX
  8
FOREGROUND
  6
CONTINUOUS
 10
0.848120
 20
0.886486
  0
VERTEX
  8
FOREGROUND
  6
CONTINUOUS
 10
0.867523
 20
0.867261
  0
VERTEX
  8
FOREGROUND
  6
CONTINUOUS
 10
0.887103
 20
0.848260
  0
VERTEX
  8
FOREGROUND
  6
CONTINUOUS
 10
0.906859
 20
0.829482
  0
VERTEX
  8
FOREGROUND
  6
CONTINUOUS
 10
0.926788
 20
0.810928
  0
VERTEX
  8
FOREGROUND
  6
CONTINUOUS
 10
0.946888
 20
0.792597
  0
VERTEX
  8
FOREGROUND
  6
CONTINUOUS
 10
0.967157
 20
0.774490
  0
VERTEX
  8
FOREGROUND
  6
CONTINUOUS
 10
0.987593
 20
0.756606
  0
VERTEX
  8
FOREGROUND
  6
CONTINUOUS
 10
1.008193
 20
0.738945
  0
VERTEX
  8
FOREGROUND
  6
CONTINUOUS
 10
1.028957
 20
0.721508
  0
VERTEX
  8
FOREGROUND
  6
CONTINUOUS
 10
1.049882
 20
0.704295
  0
VERTEX
  8
FOREGROUND
  6
CONTINUOUS
 10
1.070965
 20
0.687305
  0
VERTEX
  8
FOREGROUND
  6
CONTINUOUS
 10
1.092204
 20
0.670539
  0
VERTEX
  8
FOREGROUND
  6
CONTINUOUS
 10
1.113599
 20
0.653996
  0
VERTEX
  8
FOREGROUND
  6
CONTINUOUS
 10
1.135145
 20
0.637676
  0
VERTEX
  8
FOREGROUND
  6
CONTINUOUS
 10
1.156842
 20
0.621580
  0
VERTEX
  8
FOREGROUND
  6
CONTINUOUS
 10
1.178688
 20
0.605708
  0
VERTEX
  8
FOREGROUND
  6
CONTINUOUS
 10
1.200679
 20
0.590059
  0
VERTEX
  8
FOREGROUND
  6
CONTINUOUS
 10
1.222815
 20
0.574633
  0
VERTEX
  8
FOREGROUND
  6
CONTINUOUS
 10
1.245093
 20
0.559431
  0
VERTEX
  8
FOREGROUND
  6
CONTINUOUS
 10
1.267511
 20
0.544453
  0
VERTEX
  8
FOREGROUND
  6
CONTINUOUS
 10
1.290066
 20
0.529698
  0
VERTEX
  8
FOREGROUND
  6
CONTINUOUS
 10
1.312758
 20
0.515166
  0
VERTEX
  8
FOREGROUND
  6
CONTINUOUS
 10
1.335583
 20
0.500858
  0
VERTEX
  8
FOREGROUND
  6
CONTINUOUS
 10
1.358541
 20
0.486774
  0
VERTEX
  8
FOREGROUND
  6
CONTINUOUS
 10
1.381627
 20
0.472913
  0
VERTEX
  8
FOREGROUND
  6
CONTINUOUS
 10
1.404842
 20
0.459275
  0
VERTEX
  8
FOREGROUND
  6
CONTINUOUS
 10
1.428182
 20
0.445861
  0
VERTEX
  8
FOREGROUND
  6
CONTINUOUS
 10
1.451645
 20
0.432671
  0
VERTEX
  8
FOREGROUND
  6
CONTINUOUS
 10
1.475229
 20
0.419703
  0
VERTEX
  8
FOREGROUND
  6
CONTINUOUS
 10
1.498933
 20
0.406960
  0
VERTEX
  8
FOREGROUND
  6
CONTINUOUS
 10
1.522754
 20
0.394440
  0
VERTEX
  8
FOREGROUND
  6
CONTINUOUS
 10
1.546691
 20
0.382143
  0
VERTEX
  8
FOREGROUND
  6
CONTINUOUS
 10
1.570740
 20
0.370070
  0
VERTEX
  8
FOREGROUND
  6
CONTINUOUS
 10
1.594900
 20
0.358221
  0
VERTEX
  8
FOREGROUND
  6
CONTINUOUS
 10
1.619169
 20
0.346595
  0
VERTEX
  8
FOREGROUND
  6
CONTINUOUS
 10
1.643545
 20
0.335192
  0
VERTEX
  8
FOREGROUND
  6
CONTINUOUS
 10
1.668026
 20
0.324013
  0
VERTEX
  8
FOREGROUND
  6
CONTINUOUS
 10
1.692609
 20
0.313057
  0
VERTEX
  8
FOREGROUND
  6
CONTINUOUS
 10
1.717293
 20
0.302325
  0
VERTEX
  8
FOREGROUND
  6
CONTINUOUS
 10
1.742076
 20
0.291817
  0
VERTEX
  8
FOREGROUND
  6
CONTINUOUS
 10
1.766955
 20
0.281532
  0
VERTEX
  8
FOREGROUND
  6
CONTINUOUS
 10
1.791928
 20
0.271470
  0
VERTEX
  8
FOREGROUND
  6
CONTINUOUS
 10
1.816994
 20
0.261632
  0
VERTEX
  8
FOREGROUND
  6
CONTINUOUS
 10
1.842150
 20
0.252018
  0
VERTEX
  8
FOREGROUND
  6
CONTINUOUS
 10
1.867394
 20
0.242627
  0
VERTEX
  8
FOREGROUND
  6
CONTINUOUS
 10
1.892724
 20
0.233459
  0
VERTEX
  8
FOREGROUND
  6
CONTINUOUS
 10
1.918138
 20
0.224515
  0
VERTEX
  8
FOREGROUND
  6
CONTINUOUS
 10
1.943634
 20
0.215794
  0
VERTEX
  8
FOREGROUND
  6
CONTINUOUS
 10
1.969211
 20
0.207297
  0
VERTEX
  8
FOREGROUND
  6
CONTINUOUS
 10
1.994864
 20
0.199024
  0
VERTEX
  8
FOREGROUND
  6
CONTINUOUS
 10
2.020594
 20
0.190974
  0
VERTEX
  8
FOREGROUND
  6
CONTINUOUS
 10
2.046397
 20
0.183147
  0
VERTEX
  8
FOREGROUND
  6
CONTINUOUS
 10
2.072272
 20
0.175544
  0
VERTEX
  8
FOREGROUND
  6
CONTINUOUS
 10
2.098216
 20
0.168165
  0
VERTEX
  8
FOREGROUND
  6
CONTINUOUS
 10
2.124228
 20
0.161009
  0
VERTEX
  8
FOREGROUND
  6
CONTINUOUS
 10
2.150305
 20
0.154076
  0
VERTEX
  8
FOREGROUND
  6
CONTINUOUS
 10
2.176445
 20
0.147367
  0
VERTEX
  8
FOREGROUND
  6
CONTINUOUS
 10
2.202647
 20
0.140881
  0
VERTEX
  8
FOREGROUND
  6
CONTINUOUS
 10
2.228908
 20
0.134619
  0
VERTEX
  8
FOREGROUND
  6
CONTINUOUS
 10
2.255225
 20
0.128581
  0
VERTEX
  8
FOREGROUND
  6
CONTINUOUS
 10
2.281598
 20
0.122766
  0
VERTEX
  8
FOREGROUND
  6
CONTINUOUS
 10
2.308024
 20
0.117174
  0
VERTEX
  8
FOREGROUND
  6
CONTINUOUS
 10
2.334500
 20
0.111806
  0
VERTEX
  8
FOREGROUND
  6
CONTINUOUS
 10
2.361025
 20
0.106662
  0
VERTEX
  8
FOREGROUND
  6
CONTINUOUS
 10
2.387597
 20
0.101741
  0
VERTEX
  8
FOREGROUND
  6
CONTINUOUS
 10
2.414214
 20
0.097043
  0
VERTEX
  8
FOREGROUND
  6
CONTINUOUS
 10
2.440873
 20
0.092569
  0
VERTEX
  8
FOREGROUND
  6
CONTINUOUS
 10
2.467573
 20
0.088319
  0
VERTEX
  8
FOREGROUND
  6
CONTINUOUS
 10
2.494311
 20
0.084292
  0
VERTEX
  8
FOREGROUND
  6
CONTINUOUS
 10
2.521085
 20
0.080489
  0
VERTEX
  8
FOREGROUND
  6
CONTINUOUS
 10
2.547893
 20
0.076909
  0
VERTEX
  8
FOREGROUND
  6
CONTINUOUS
 10
2.574734
 20
0.073552
  0
VERTEX
  8
FOREGROUND
  6
CONTINUOUS
 10
2.601605
 20
0.070419
  0
VERTEX
  8
FOREGROUND
  6
CONTINUOUS
 10
2.628504
 20
0.067510
  0
VERTEX
  8
FOREGROUND
  6
CONTINUOUS
 10
2.655429
 20
0.064824
  0
VERTEX
  8
FOREGROUND
  6
CONTINUOUS
 10
2.682377
 20
0.062362
  0
VERTEX
  8
FOREGROUND
  6
CONTINUOUS
 10
2.709348
 20
0.060123
  0
VERTEX
  8
FOREGROUND
  6
CONTINUOUS
 10
2.736338
 20
0.058107
  0
VERTEX
  8
FOREGROUND
  6
CONTINUOUS
 10
2.763346
 20
0.056316
  0
VERTEX
  8
FOREGROUND
  6
CONTINUOUS
 10
2.790369
 20
0.054747
  0
VERTEX
  8
FOREGROUND
  6
CONTINUOUS
 10
2.817406
 20
0.053402
  0
VERTEX
  8
FOREGROUND
  6
CONTINUOUS
 10
2.844455
 20
0.052281
  0
VERTEX
  8
FOREGROUND
  6
CONTINUOUS
 10
2.871512
 20
0.051383
  0
VERTEX
  8
FOREGROUND
  6
CONTINUOUS
 10
2.898577
 20
0.050709
  0
VERTEX
  8
FOREGROUND
  6
CONTINUOUS
 10
2.925648
 20
0.050258
  0
VERTEX
  8
FOREGROUND
  6
CONTINUOUS
 10
2.952721
 20
0.050031
  0
VERTEX
  8
FOREGROUND
  6
CONTINUOUS
 10
2.979796
 20
0.050027
  0
VERTEX
  8
FOREGROUND
  6
CONTINUOUS
 10
3.006869
 20
0.050247
  0
VERTEX
  8
FOREGROUND
  6
CONTINUOUS
 10
3.033939
 20
0.050690
  0
VERTEX
  8
FOREGROUND
  6
CONTINUOUS
 10
3.061005
 20
0.051357
  0
VERTEX
  8
FOREGROUND
  6
CONTINUOUS
 10
3.088063
 20
0.052247
  0
VERTEX
  8
FOREGROUND
  6
CONTINUOUS
 10
3.115111
 20
0.053361
  0
VERTEX
  8
FOREGROUND
  6
CONTINUOUS
 10
3.142149
 20
0.054698
  0
VERTEX
  8
FOREGROUND
  6
CONTINUOUS
 10
3.169173
 20
0.056259
  0
VERTEX
  8
FOREGROUND
  6
CONTINUOUS
 10
3.196181
 20
0.058044
  0
VERTEX
  8
FOREGROUND
  6
CONTINUOUS
 10
3.223172
 20
0.060051
  0
VERTEX
  8
FOREGROUND
  6
CONTINUOUS
 10
3.250143
 20
0.062283
  0
VERTEX
  8
FOREGROUND
  6
CONTINUOUS
 10
3.277092
 20
0.064738
  0
VERTEX
  8
FOREGROUND
  6
CONTINUOUS
 10
3.304018
 20
0.067416
  0
VERTEX
  8
FOREGROUND
  6
CONTINUOUS
 10
3.330917
 20
0.070318
  0
VERTEX
  8
FOREGROUND
  6
CONTINUOUS
 10
3.357789
 20
0.073444
  0
VERTEX
  8
FOREGROUND
  6
CONTINUOUS
 10
3.384631
 20
0.076792
  0
VERTEX
  8
FOREGROUND
  6
CONTINUOUS
 10
3.411440
 20
0.080365
  0
VERTEX
  8
FOREGROUND
  6
CONTINUOUS
 10
3.438216
 20
0.084161
  0
VERTEX
  8
FOREGROUND
  6
CONTINUOUS
 10
3.464955
 20
0.088180
  0
VERTEX
  8
FOREGROUND
  6
CONTINUOUS
 10
3.491656
 20
0.092424
  0
VERTEX
  8
FOREGROUND
  6
CONTINUOUS
 10
3.518316
 20
0.096890
  0
VERTEX
  8
FOREGROUND
  6
CONTINUOUS
 10
3.544934
 20
0.101580
  0
VERTEX
  8
FOREGROUND
  6
CONTINUOUS
 10
3.571507
 20
0.106494
  0
VERTEX
  8
FOREGROUND
  6
CONTINUOUS
 10
3.598034
 20
0.111631
  0
VERTEX
  8
FOREGROUND
  6
CONTINUOUS
 10
3.624512
 20
0.116992
  0
VERTEX
  8
FOREGROUND
  6
CONTINUOUS
 10
3.650939
 20
0.122576
  0
VERTEX
  8
FOREGROUND
  6
CONTINUOUS
 10
3.677313
 20
0.128383
  0
VERTEX
  8
FOREGROUND
  6
CONTINUOUS
 10
3.703633
 20
0.134415
  0
VERTEX
  8
FOREGROUND
  6
CONTINUOUS
 10
3.729895
 20
0.140669
  0
VERTEX
  8
FOREGROUND
  6
CONTINUOUS
 10
3.756099
 20
0.147148
  0
VERTEX
  8
FOREGROUND
  6
CONTINUOUS
 10
3.782241
 20
0.153849
  0
VERTEX
  8
FOREGROUND
  6
CONTINUOUS
 10
3.808320
 20
0.160775
  0
VERTEX
  8
FOREGROUND
  6
CONTINUOUS
 10
3.834334
 20
0.167923
  0
VERTEX
  8
FOREGROUND
  6
CONTINUOUS
 10
3.860280
 20
0.175296
  0
VERTEX
  8
FOREGROUND
  6
CONTINUOUS
 10
3.886157
 20
0.182892
  0
VERTEX
  8
FOREGROUND
  6
CONTINUOUS
 10
3.911962
 20
0.190711
  0
VERTEX
  8
FOREGROUND
  6
CONTINUOUS
 10
3.937694
 20
0.198754
  0
VERTEX
  8
FOREGROUND
  6
CONTINUOUS
 10
3.963350
 20
0.207020
  0
VERTEX
  8
FOREGROUND
  6
CONTINUOUS
 10
3.988929
 20
0.215510
  0
VERTEX
  8
FOREGROUND
  6
CONTINUOUS
 10
4.014427
 20
0.224224
  0
VERTEX
  8
FOREGROUND
  6
CONTINUOUS
 10
4.039844
 20
0.233161
  0
VERTEX
  8
FOREGROUND
  6
CONTINUOUS
 10
4.065177
 20
0.242321
  0
VERTEX
  8
FOREGROUND
  6
CONTINUOUS
 10
4.090423
 20
0.251705
  0
VERTEX
  8
FOREGROUND
  6
CONTINUOUS
 10
4.115582
 20
0.261313
  0
VERTEX
  8
FOREGROUND
  6
CONTINUOUS
 10
4.140651
 20
0.271144
  0
VERTEX
  8
FOREGROUND
  6
CONTINUOUS
 10
4.165627
 20
0.281199
  0
VERTEX
  8
FOREGROUND
  6
CONTINUOUS
 10
4.190509
 20
0.291477
  0
VERTEX
  8
FOREGROUND
  6
CONTINUOUS
 10
4.215294
 20
0.301978
  0
VERTEX
  8
FOREGROUND
  6
CONTINUOUS
 10
4.239981
 20
0.312704
  0
VERTEX
  8
FOREGROUND
  6
CONTINUOUS
 10
4.264568
 20
0.323652
  0
VERTEX
  8
FOREGROUND
  6
CONTINUOUS
 10
4.289051
 20
0.334825
  0
VERTEX
  8
FOREGROUND
  6
CONTINUOUS
 10
4.313431
 20
0.346220
  0
VERTEX
  8
FOREGROUND
  6
CONTINUOUS
 10
4.337703
 20
0.357840
  0
VERTEX
  8
FOREGROUND
  6
CONTINUOUS
 10
4.361867
 20
0.369683
  0
VERTEX
  8
FOREGROUND
  6
CONTINUOUS
 10
4.385919
 20
0.381749
  0
VERTEX
  8
FOREGROUND
  6
CONTINUOUS
 10
4.409859
 20
0.394039
  0
VERTEX
  8
FOREGROUND
  6
CONTINUOUS
 10
4.433683
 20
0.406552
  0
VERTEX
  8
FOREGROUND
  6
CONTINUOUS
 10
4.457391
 20
0.419289
  0
VERTEX
  8
FOREGROUND
  6
CONTINUOUS
 10
4.480979
 20
0.432250
  0
VERTEX
  8
FOREGROUND
  6
CONTINUOUS
 10
4.504446
 20
0.445434
  0
VERTEX
  8
FOREGROUND
  6
CONTINUOUS
 10
4.527790
 20
0.458841
  0
VERTEX
  8
FOREGROUND
  6
CONTINUOUS
 10
4.551008
 20
0.472472
  0
VERTEX
  8
FOREGROUND
  6
CONTINUOUS
 10
4.574098
 20
0.486327
  0
VERTEX
  8
FOREGROUND
  6
CONTINUOUS
 10
4.597060
 20
0.500405
  0
VERTEX
  8
FOREGROUND
  6
CONTINUOUS
 10
4.619889
 20
0.514707
  0
VERTEX
  8
FOREGROUND
  6
CONTINUOUS
 10
4.642585
 20
0.529232
  0
VERTEX
  8
FOREGROUND
  6
CONTINUOUS
 10
4.665145
 20
0.543981
  0
VERTEX
  8
FOREGROUND
  6
CONTINUOUS
 10
4.687567
 20
0.558953
  0
VERTEX
  8
FOREGROUND
  6
CONTINUOUS
 10
4.709849
 20
0.574149
  0
VERTEX
  8
FOREGROUND
  6
CONTINUOUS
 10
4.731989
 20
0.589568
  0
VERTEX
  8
FOREGROUND
  6
CONTINUOUS
 10
4.753985
 20
0.605211
  0
VERTEX
  8
FOREGROUND
  6
CONTINUOUS
 10
4.775834
 20
0.621077
  0
VERTEX
  8
FOREGROUND
  6
CONTINUOUS
 10
4.797536
 20
0.637167
  0
VERTEX
  8
FOREGROUND
  6
CONTINUOUS
 10
4.819087
 20
0.653481
  0
VERTEX
  8
FOREGROUND
  6
CONTINUOUS
 10
4.840486
 20
0.670018
  0
VERTEX
  8
FOREGROUND
  6
CONTINUOUS
 10
4.861730
 20
0.686778
  0
VERTEX
  8
FOREGROUND
  6
CONTINUOUS
 10
4.882818
 20
0.703762
  0
VERTEX
  8
FOREGROUND
  6
CONTINUOUS
 10
4.903748
 20
0.720970
  0
VERTEX
  8
FOREGROUND
  6
CONTINUOUS
 10
4.924516
 20
0.738401
  0
VERTEX
  8
FOREGROUND
  6
CONTINUOUS
 10
4.945122
 20
0.756056
  0
VERTEX
  8
FOREGROUND
  6
CONTINUOUS
 10
4.965563
 20
0.773934
  0
VERTEX
  8
FOREGROUND
  6
CONTINUOUS
 10
4.985837
 20
0.792036
  0
VERTEX
  8
FOREGROUND
  6
CONTINUOUS
 10
5.005942
 20
0.810361
  0
VERTEX
  8
FOREGROUND
  6
CONTINUOUS
 10
5.025876
 20
0.828910
  0
VERTEX
  8
FOREGROUND
  6
CONTINUOUS
 10
5.045637
 20
0.847682
  0
VERTEX
  8
FOREGROUND
  6
CONTINUOUS
 10
5.065223
 20
0.866678
  0
VERTEX
  8
FOREGROUND
  6
CONTINUOUS
 10
5.084631
 20
0.885898
  0
VERTEX
  8
FOREGROUND
  6
CONTINUOUS
 10
5.103860
 20
0.905341
  0
VERTEX
  8
FOREGROUND
  6
CONTINUOUS
 10
5.122908
 20
0.925007
  0
VERTEX
  8
FOREGROUND
  6
CONTINUOUS
 10
5.141772
 20
0.944897
  0
VERTEX
  8
FOREGROUND
  6
CONTINUOUS
 10
5.160450
 20
0.965011
  0
VERTEX
  8
FOREGROUND
  6
CONTINUOUS
 10
5.178941
 20
0.985348
  0
VERTEX
  8
FOREGROUND
  6
CONTINUOUS
 10
5.197243
 20
1.005909
  0
VERTEX
  8
FOREGROUND
  6
CONTINUOUS
 10
5.215352
 20
1.026693
  0
VERTEX
  8
FOREGROUND
  6
CONTINUOUS
 10
5.233268
 20
1.047701
  0
VERTEX
  8
FOREGROUND
  6
CONTINUOUS
 10
5.250987
 20
1.068932
  0
VERTEX
  8
FOREGROUND
  6
CONTINUOUS
 10
5.268509
 20
1.090387
  0
VERTEX
  8
FOREGROUND
  6
CONTINUOUS
 10
5.285830
 20
1.112065
  0
VERTEX
  8
FOREGROUND
  6
CONTINUOUS
 10
5.302950
 20
1.133967
  0
VERTEX
  8
FOREGROUND
  6
CONTINUOUS
 10
5.319865
 20
1.156093
  0
VERTEX
  8
FOREGROUND
  6
CONTINUOUS
 10
5.336574
 20
1.178442
  0
VERTEX
  8
FOREGROUND
  6
CONTINUOUS
 10
5.353074
 20
1.201014
  0
VERTEX
  8
FOREGROUND
  6
CONTINUOUS
 10
5.369364
 20
1.223810
  0
VERTEX
  8
FOREGROUND
  6
CONTINUOUS
 10
5.385442
 20
1.246830
  0
VERTEX
  8
FOREGROUND
  6
CONTINUOUS
 10
5.401304
 20
1.270073
  0
VERTEX
  8
FOREGROUND
  6
CONTINUOUS
 10
5.416951
 20
1.293540
  0
VERTEX
  8
FOREGROUND
  6
CONTINUOUS
 10
5.432378
 20
1.317230
  0
VERTEX
  8
FOREGROUND
  6
CONTINUOUS
 10
5.447585
 20
1.341144
  0
VERTEX
  8
FOREGROUND
  6
CONTINUOUS
 10
5.462568
 20
1.365281
  0
VERTEX
  8
FOREGROUND
  6
CONTINUOUS
 10
5.477327
 20
1.389642
  0
VERTEX
  8
FOREGROUND
  6
CONTINUOUS
 10
5.491859
 20
1.414226
  0
VERTEX
  8
FOREGROUND
  6
CONTINUOUS
 10
5.506161
 20
1.439034
  0
VERTEX
  8
FOREGROUND
  6
CONTINUOUS
 10
5.520233
 20
1.464066
  0
VERTEX
  8
FOREGROUND
  6
CONTINUOUS
 10
5.534071
 20
1.489321
  0
VERTEX
  8
FOREGROUND
  6
CONTINUOUS
 10
5.547674
 20
1.514800
  0
VERTEX
  8
FOREGROUND
  6
CONTINUOUS
 10
5.561039
 20
1.540502
  0
VERTEX
  8
FOREGROUND
  6
CONTINUOUS
 10
5.574165
 20
1.566428
  0
VERTEX
  8
FOREGROUND
  6
CONTINUOUS
 10
5.587049
 20
1.592577
  0
VERTEX
  8
FOREGROUND
  6
CONTINUOUS
 10
5.599690
 20
1.618950
  0
VERTEX
  8
FOREGROUND
  6
CONTINUOUS
 10
5.612085
 20
1.645546
  0
VERTEX
  8
FOREGROUND
  6
CONTINUOUS
 10
5.624232
 20
1.672366
  0
VERTEX
  8
FOREGROUND
  6
CONTINUOUS
 10
5.636129
 20
1.699409
  0
VERTEX
  8
FOREGROUND
  6
CONTINUOUS
 10
5.647775
 20
1.726676
  0
VERTEX
  8
FOREGROUND
  6
CONTINUOUS
 10
5.659166
 20
1.754167
  0
VERTEX
  8
FOREGROUND
  6
CONTINUOUS
 10
5.670301
 20
1.781881
  0
VERTEX
  8
FOREGROUND
  6
CONTINUOUS
 10
5.681179
 20
1.809819
  0
VERTEX
  8
FOREGROUND
  6
CONTINUOUS
 10
5.691795
 20
1.837980
  0
VERTEX
  8
FOREGROUND
  6
CONTINUOUS
 10
5.702150
 20
1.866365
  0
VERTEX
  8
FOREGROUND
  6
CONTINUOUS
 10
5.712240
 20
1.894973
  0
VERTEX
  8
FOREGROUND
  6
CONTINUOUS
 10
5.722064
 20
1.923805
  0
VERTEX
  8
FOREGROUND
  6
CONTINUOUS
 10
5.731620
 20
1.952860
  0
VERTEX
  8
FOREGROUND
  6
CONTINUOUS
 10
5.740904
 20
1.982139
  0
VERTEX
  8
FOREGROUND
  6
CONTINUOUS
 10
5.749916
 20
2.011641
  0
VERTEX
  8
FOREGROUND
  6
CONTINUOUS
 10
5.758654
 20
2.041368
  0
VERTEX
  8
FOREGROUND
  6
CONTINUOUS
 10
5.767114
 20
2.071317
  0
VERTEX
  8
FOREGROUND
  6
CONTINUOUS
 10
5.775296
 20
2.101490
  0
VERTEX
  8
FOREGROUND
  6
CONTINUOUS
 10
5.783196
 20
2.131887
  0
VERTEX
  8
FOREGROUND
  6
CONTINUOUS
 10
5.790814
 20
2.162507
  0
VERTEX
  8
FOREGROUND
  6
CONTINUOUS
 10
5.798146
 20
2.193351
  0
VERTEX
  8
FOREGROUND
  6
CONTINUOUS
 10
5.805192
 20
2.224418
  0
VERTEX
  8
FOREGROUND
  6
CONTINUOUS
 10
5.811948
 20
2.255709
  0
VERTEX
  8
FOREGROUND
  6
CONTINUOUS
 10
5.818412
 20
2.287224
  0
VERTEX
  8
FOREGROUND
  6
CONTINUOUS
 10
5.824584
 20
2.318962
  0
VERTEX
  8
FOREGROUND
  6
CONTINUOUS
 10
5.830459
 20
2.350923
  0
VERTEX
  8
FOREGROUND
  6
CONTINUOUS
 10
5.836038
 20
2.383108
  0
VERTEX
  8
FOREGROUND
  6
CONTINUOUS
 10
5.841316
 20
2.415517
  0
VERTEX
  8
FOREGROUND
  6
CONTINUOUS
 10
5.846293
 20
2.448149
  0
VERTEX
  8
FOREGROUND
  6
CONTINUOUS
 10
5.850967
 20
2.481005
  0
VERTEX
  8
FOREGROUND
  6
CONTINUOUS
 10
5.855334
 20
2.514085
  0
VERTEX
  8
FOREGROUND
  6
CONTINUOUS
 10
5.859393
 20
2.547387
  0
VERTEX
  8
FOREGROUND
  6
CONTINUOUS
 10
5.863143
 20
2.580914
  0
VERTEX
  8
FOREGROUND
  6
CONTINUOUS
 10
5.866580
 20
2.614664
  0
VERTEX
  8
FOREGROUND
  6
CONTINUOUS
 10
5.869703
 20
2.648638
  0
VERTEX
  8
FOREGROUND
  6
CONTINUOUS
 10
5.872510
 20
2.682835
  0
VERTEX
  8
FOREGROUND
  6
CONTINUOUS
 10
5.874999
 20
2.717255
  0
VERTEX
  8
FOREGROUND
  6
CONTINUOUS
 10
5.877167
 20
2.751900
  0
VERTEX
  8
FOREGROUND
  6
CONTINUOUS
 10
5.879013
 20
2.786767
  0
VERTEX
  8
FOREGROUND
  6
CONTINUOUS
 10
5.880534
 20
2.821859
  0
VERTEX
  8
FOREGROUND
  6
CONTINUOUS
 10
5.881729
 20
2.857174
  0
VERTEX
  8
FOREGROUND
  6
CONTINUOUS
 10
5.882595
 20
2.892712
  0
VERTEX
  8
FOREGROUND
  6
CONTINUOUS
 10
5.883131
 20
2.928474
  0
VERTEX
  8
FOREGROUND
  6
CONTINUOUS
 10
5.883333
 20
2.964460
  0
SEQEND
  8
0
  0
ENDSEC
  0
EOF
