  0
SECTION
  2
HEADER
  9
$ACADVER
  1
AC1006
  9
$EXTMIN
 10
0.000000
 20
0.000000
  9
$EXTMAX
 10
6.398333
 20
6.400000
  9
$LTSCALE
 40
0.166667
  9
$PDMODE
 70
    35
  9
$PDSIZE
 40
0.133333
  0
ENDSEC
  0
SECTION
  2
TABLES
  0
TABLE
  2
LTYPE
 70
     9
  0
LTYPE
  2
CONTINUOUS
 70
    64
  3
Solid line
 72
    65
 73
     0
 40
0.000000
  0
LTYPE
  2
DASHED
 70
    64
  3
__ __ __ __ __ __ __ __ __ __ __ __ __ __ __
 72
    65
 73
     2
 40
0.001250
 49
0.000833
 49
-0.000417
  0
LTYPE
  2
HIDDEN
 70
    64
  3
 _ _ _ _ _ _ _ _ _ _ _ _ _ _ _ _ _ _ _ _ _ _
 72
    65
 73
     2
 40
0.000625
 49
0.000417
 49
-0.000208
  0
LTYPE
  2
CENTER
 70
    64
  3
____ _ ____ _ ____ _ ____ _ ____ _ ____ _ ____
 72
    65
 73
     4
 40
0.003333
 49
0.002083
 49
-0.000417
 49
0.000417
 49
-0.000417
  0
LTYPE
  2
PHANTOM
 70
    64
  3
_____ _ _ _____ _ _ _____ _ _ _____ _ _ ____
 72
    65
 73
     6
 40
0.004167
 49
0.002083
 49
-0.000417
 49
0.000417
 49
-0.000417
 49
0.000417
 49
-0.000417
  0
LTYPE
  2
DOT
 70
    64
  3
...............................................
 72
    65
 73
     2
 40
0.000417
 49
0.000000
 49
-0.000417
  0
LTYPE
  2
DASHDOT
 70
    64
  3
__ . __ . __ . __ . __ . __ . __ . __ . __ . __
 72
    65
 73
     4
 40
0.001667
 49
0.000833
 49
-0.000417
 49
0.000000
 49
-0.000417
  0
LTYPE
  2
BORDER
 70
    64
  3
__ __ . __ __ . __ __ . __ __ . __ __ . __ __
 72
    65
 73
     6
 40
0.002917
 49
0.000833
 49
-0.000417
 49
0.000833
 49
-0.000417
 49
0.000000
 49
-0.000417
  0
LTYPE
  2
DIVIDE
 70
    64
  3
__ . . __ . . __ . . __ . . __ . . __ . . __
 72
    65
 73
     6
 40
0.002083
 49
0.000833
 49
-0.000417
 49
0.000000
 49
-0.000417
 49
0.000000
 49
-0.000417
  0
LTYPE
  2
DOTDOT
 70
    64
  3
 . .  . .  . .  . .  . .  . . 
 72
    65
 73
     5
 40
0.000917
 49
-0.000417
 49
0.000000
 49
-0.000417
 49
0.000000
 49
-0.000417
  0
ENDTAB
  0
TABLE
  2
STYLE
 70
     2
  0
STYLE
 70
     0
  2
SN0
 40
0.000000
 41
0.001667
 50
0.000000
 71
     0
 42
0.000000
  3
ROMAND
  0
STYLE
 70
    68
  2
SV0
 40
0.000000
 41
0.001667
 50
0.000000
 71
     0
 42
0.000000
  3
ROMAND
  0
ENDTAB
  0
TABLE
  2
LAYER
 70
     2
  0
LAYER
  2
FOREGROUND
 70
    64
 62
     7
  6
CONTINUOUS
  0
LAYER
  2
BACKGROUND
 70
    65
 62
    -7
  6
CONTINUOUS
  0
ENDTAB
  0
ENDSEC
  0
SECTION
  2
ENTITIES
  0
POLYLINE
  8
FOREGROUND
  6
CONTINUOUS
 66
     1
 40
0.010000
 41
0.010000
 70
     1
  0
VERTEX
  8
FOREGROUND
  6
CONTINUOUS
 10
6.346667
 20
3.200000
  0
VERTEX
  8
FOREGROUND
  6
CONTINUOUS
 10
6.346455
 20
3.238887
  0
VERTEX
  8
FOREGROUND
  6
CONTINUOUS
 10
6.345884
 20
3.277532
  0
VERTEX
  8
FOREGROUND
  6
CONTINUOUS
 10
6.344957
 20
3.315936
  0
VERTEX
  8
FOREGROUND
  6
CONTINUOUS
 10
6.343674
 20
3.354098
  0
VERTEX
  8
FOREGROUND
  6
CONTINUOUS
 10
6.342039
 20
3.392018
  0
VERTEX
  8
FOREGROUND
  6
CONTINUOUS
 10
6.340053
 20
3.429698
  0
VERTEX
  8
FOREGROUND
  6
CONTINUOUS
 10
6.337720
 20
3.467135
  0
VERTEX
  8
FOREGROUND
  6
CONTINUOUS
 10
6.335040
 20
3.504331
  0
VERTEX
  8
FOREGROUND
  6
CONTINUOUS
 10
6.332017
 20
3.541286
  0
VERTEX
  8
FOREGROUND
  6
CONTINUOUS
 10
6.328653
 20
3.577999
  0
VERTEX
  8
FOREGROUND
  6
CONTINUOUS
 10
6.324949
 20
3.614470
  0
VERTEX
  8
FOREGROUND
  6
CONTINUOUS
 10
6.320909
 20
3.650700
  0
VERTEX
  8
FOREGROUND
  6
CONTINUOUS
 10
6.316533
 20
3.686689
  0
VERTEX
  8
FOREGROUND
  6
CONTINUOUS
 10
6.311826
 20
3.722436
  0
VERTEX
  8
FOREGROUND
  6
CONTINUOUS
 10
6.306788
 20
3.757941
  0
VERTEX
  8
FOREGROUND
  6
CONTINUOUS
 10
6.301422
 20
3.793205
  0
VERTEX
  8
FOREGROUND
  6
CONTINUOUS
 10
6.295731
 20
3.828228
  0
VERTEX
  8
FOREGROUND
  6
CONTINUOUS
 10
6.289716
 20
3.863009
  0
VERTEX
  8
FOREGROUND
  6
CONTINUOUS
 10
6.283380
 20
3.897548
  0
VERTEX
  8
FOREGROUND
  6
CONTINUOUS
 10
6.276725
 20
3.931846
  0
VERTEX
  8
FOREGROUND
  6
CONTINUOUS
 10
6.269753
 20
3.965902
  0
VERTEX
  8
FOREGROUND
  6
CONTINUOUS
 10
6.262466
 20
3.999717
  0
VERTEX
  8
FOREGROUND
  6
CONTINUOUS
 10
6.254868
 20
4.033291
  0
VERTEX
  8
FOREGROUND
  6
CONTINUOUS
 10
6.246959
 20
4.066623
  0
VERTEX
  8
FOREGROUND
  6
CONTINUOUS
 10
6.238743
 20
4.099713
  0
VERTEX
  8
FOREGROUND
  6
CONTINUOUS
 10
6.230221
 20
4.132562
  0
VERTEX
  8
FOREGROUND
  6
CONTINUOUS
 10
6.221395
 20
4.165169
  0
VERTEX
  8
FOREGROUND
  6
CONTINUOUS
 10
6.212269
 20
4.197535
  0
VERTEX
  8
FOREGROUND
  6
CONTINUOUS
 10
6.202843
 20
4.229659
  0
VERTEX
  8
FOREGROUND
  6
CONTINUOUS
 10
6.193121
 20
4.261542
  0
VERTEX
  8
FOREGROUND
  6
CONTINUOUS
 10
6.183105
 20
4.293183
  0
VERTEX
  8
FOREGROUND
  6
CONTINUOUS
 10
6.172797
 20
4.324582
  0
VERTEX
  8
FOREGROUND
  6
CONTINUOUS
 10
6.162198
 20
4.355741
  0
VERTEX
  8
FOREGROUND
  6
CONTINUOUS
 10
6.151312
 20
4.386657
  0
VERTEX
  8
FOREGROUND
  6
CONTINUOUS
 10
6.140141
 20
4.417332
  0
VERTEX
  8
FOREGROUND
  6
CONTINUOUS
 10
6.128686
 20
4.447766
  0
VERTEX
  8
FOREGROUND
  6
CONTINUOUS
 10
6.116951
 20
4.477958
  0
VERTEX
  8
FOREGROUND
  6
CONTINUOUS
 10
6.104937
 20
4.507909
  0
VERTEX
  8
FOREGROUND
  6
CONTINUOUS
 10
6.092646
 20
4.537618
  0
VERTEX
  8
FOREGROUND
  6
CONTINUOUS
 10
6.080081
 20
4.567085
  0
VERTEX
  8
FOREGROUND
  6
CONTINUOUS
 10
6.067244
 20
4.596311
  0
VERTEX
  8
FOREGROUND
  6
CONTINUOUS
 10
6.054137
 20
4.625296
  0
VERTEX
  8
FOREGROUND
  6
CONTINUOUS
 10
6.040763
 20
4.654039
  0
VERTEX
  8
FOREGROUND
  6
CONTINUOUS
 10
6.027124
 20
4.682540
  0
VERTEX
  8
FOREGROUND
  6
CONTINUOUS
 10
6.013221
 20
4.710800
  0
VERTEX
  8
FOREGROUND
  6
CONTINUOUS
 10
5.999058
 20
4.738818
  0
VERTEX
  8
FOREGROUND
  6
CONTINUOUS
 10
5.984636
 20
4.766595
  0
VERTEX
  8
FOREGROUND
  6
CONTINUOUS
 10
5.969958
 20
4.794131
  0
VERTEX
  8
FOREGROUND
  6
CONTINUOUS
 10
5.955026
 20
4.821425
  0
VERTEX
  8
FOREGROUND
  6
CONTINUOUS
 10
5.939842
 20
4.848477
  0
VERTEX
  8
FOREGROUND
  6
CONTINUOUS
 10
5.924408
 20
4.875288
  0
VERTEX
  8
FOREGROUND
  6
CONTINUOUS
 10
5.908727
 20
4.901857
  0
VERTEX
  8
FOREGROUND
  6
CONTINUOUS
 10
5.892801
 20
4.928185
  0
VERTEX
  8
FOREGROUND
  6
CONTINUOUS
 10
5.876632
 20
4.954271
  0
VERTEX
  8
FOREGROUND
  6
CONTINUOUS
 10
5.860223
 20
4.980116
  0
VERTEX
  8
FOREGROUND
  6
CONTINUOUS
 10
5.843574
 20
5.005719
  0
VERTEX
  8
FOREGROUND
  6
CONTINUOUS
 10
5.826690
 20
5.031080
  0
VERTEX
  8
FOREGROUND
  6
CONTINUOUS
 10
5.809572
 20
5.056201
  0
VERTEX
  8
FOREGROUND
  6
CONTINUOUS
 10
5.792222
 20
5.081079
  0
VERTEX
  8
FOREGROUND
  6
CONTINUOUS
 10
5.774643
 20
5.105716
  0
VERTEX
  8
FOREGROUND
  6
CONTINUOUS
 10
5.756836
 20
5.130112
  0
VERTEX
  8
FOREGROUND
  6
CONTINUOUS
 10
5.738805
 20
5.154266
  0
VERTEX
  8
FOREGROUND
  6
CONTINUOUS
 10
5.720551
 20
5.178179
  0
VERTEX
  8
FOREGROUND
  6
CONTINUOUS
 10
5.702076
 20
5.201850
  0
VERTEX
  8
FOREGROUND
  6
CONTINUOUS
 10
5.683383
 20
5.225279
  0
VERTEX
  8
FOREGROUND
  6
CONTINUOUS
 10
5.664474
 20
5.248467
  0
VERTEX
  8
FOREGROUND
  6
CONTINUOUS
 10
5.645351
 20
5.271414
  0
VERTEX
  8
FOREGROUND
  6
CONTINUOUS
 10
5.626017
 20
5.294118
  0
VERTEX
  8
FOREGROUND
  6
CONTINUOUS
 10
5.606473
 20
5.316582
  0
VERTEX
  8
FOREGROUND
  6
CONTINUOUS
 10
5.586722
 20
5.338804
  0
VERTEX
  8
FOREGROUND
  6
CONTINUOUS
 10
5.566767
 20
5.360784
  0
VERTEX
  8
FOREGROUND
  6
CONTINUOUS
 10
5.546608
 20
5.382523
  0
VERTEX
  8
FOREGROUND
  6
CONTINUOUS
 10
5.526250
 20
5.404020
  0
VERTEX
  8
FOREGROUND
  6
CONTINUOUS
 10
5.505693
 20
5.425276
  0
VERTEX
  8
FOREGROUND
  6
CONTINUOUS
 10
5.484941
 20
5.446290
  0
VERTEX
  8
FOREGROUND
  6
CONTINUOUS
 10
5.463995
 20
5.467063
  0
VERTEX
  8
FOREGROUND
  6
CONTINUOUS
 10
5.442857
 20
5.487594
  0
VERTEX
  8
FOREGROUND
  6
CONTINUOUS
 10
5.421530
 20
5.507884
  0
VERTEX
  8
FOREGROUND
  6
CONTINUOUS
 10
5.400017
 20
5.527932
  0
VERTEX
  8
FOREGROUND
  6
CONTINUOUS
 10
5.378318
 20
5.547739
  0
VERTEX
  8
FOREGROUND
  6
CONTINUOUS
 10
5.356438
 20
5.567304
  0
VERTEX
  8
FOREGROUND
  6
CONTINUOUS
 10
5.334377
 20
5.586628
  0
VERTEX
  8
FOREGROUND
  6
CONTINUOUS
 10
5.312138
 20
5.605710
  0
VERTEX
  8
FOREGROUND
  6
CONTINUOUS
 10
5.289723
 20
5.624550
  0
VERTEX
  8
FOREGROUND
  6
CONTINUOUS
 10
5.267135
 20
5.643149
  0
VERTEX
  8
FOREGROUND
  6
CONTINUOUS
 10
5.244375
 20
5.661507
  0
VERTEX
  8
FOREGROUND
  6
CONTINUOUS
 10
5.221447
 20
5.679623
  0
VERTEX
  8
FOREGROUND
  6
CONTINUOUS
 10
5.198352
 20
5.697497
  0
VERTEX
  8
FOREGROUND
  6
CONTINUOUS
 10
5.175092
 20
5.715130
  0
VERTEX
  8
FOREGROUND
  6
CONTINUOUS
 10
5.151670
 20
5.732522
  0
VERTEX
  8
FOREGROUND
  6
CONTINUOUS
 10
5.128088
 20
5.749671
  0
VERTEX
  8
FOREGROUND
  6
CONTINUOUS
 10
5.104348
 20
5.766580
  0
VERTEX
  8
FOREGROUND
  6
CONTINUOUS
 10
5.080452
 20
5.783247
  0
VERTEX
  8
FOREGROUND
  6
CONTINUOUS
 10
5.056404
 20
5.799672
  0
VERTEX
  8
FOREGROUND
  6
CONTINUOUS
 10
5.032204
 20
5.815856
  0
VERTEX
  8
FOREGROUND
  6
CONTINUOUS
 10
5.007855
 20
5.831798
  0
VERTEX
  8
FOREGROUND
  6
CONTINUOUS
 10
4.983359
 20
5.847499
  0
VERTEX
  8
FOREGROUND
  6
CONTINUOUS
 10
4.958719
 20
5.862958
  0
VERTEX
  8
FOREGROUND
  6
CONTINUOUS
 10
4.933937
 20
5.878176
  0
VERTEX
  8
FOREGROUND
  6
CONTINUOUS
 10
4.909015
 20
5.893152
  0
VERTEX
  8
FOREGROUND
  6
CONTINUOUS
 10
4.883956
 20
5.907886
  0
VERTEX
  8
FOREGROUND
  6
CONTINUOUS
 10
4.858761
 20
5.922380
  0
VERTEX
  8
FOREGROUND
  6
CONTINUOUS
 10
4.833432
 20
5.936631
  0
VERTEX
  8
FOREGROUND
  6
CONTINUOUS
 10
4.807973
 20
5.950641
  0
VERTEX
  8
FOREGROUND
  6
CONTINUOUS
 10
4.782385
 20
5.964410
  0
VERTEX
  8
FOREGROUND
  6
CONTINUOUS
 10
4.756671
 20
5.977937
  0
VERTEX
  8
FOREGROUND
  6
CONTINUOUS
 10
4.730832
 20
5.991222
  0
VERTEX
  8
FOREGROUND
  6
CONTINUOUS
 10
4.704872
 20
6.004266
  0
VERTEX
  8
FOREGROUND
  6
CONTINUOUS
 10
4.678791
 20
6.017069
  0
VERTEX
  8
FOREGROUND
  6
CONTINUOUS
 10
4.652593
 20
6.029629
  0
VERTEX
  8
FOREGROUND
  6
CONTINUOUS
 10
4.626280
 20
6.041949
  0
VERTEX
  8
FOREGROUND
  6
CONTINUOUS
 10
4.599854
 20
6.054027
  0
VERTEX
  8
FOREGROUND
  6
CONTINUOUS
 10
4.573316
 20
6.065863
  0
VERTEX
  8
FOREGROUND
  6
CONTINUOUS
 10
4.546671
 20
6.077458
  0
VERTEX
  8
FOREGROUND
  6
CONTINUOUS
 10
4.519919
 20
6.088811
  0
VERTEX
  8
FOREGROUND
  6
CONTINUOUS
 10
4.493062
 20
6.099923
  0
VERTEX
  8
FOREGROUND
  6
CONTINUOUS
 10
4.466104
 20
6.110793
  0
VERTEX
  8
FOREGROUND
  6
CONTINUOUS
 10
4.439047
 20
6.121422
  0
VERTEX
  8
FOREGROUND
  6
CONTINUOUS
 10
4.411892
 20
6.131809
  0
VERTEX
  8
FOREGROUND
  6
CONTINUOUS
 10
4.384642
 20
6.141954
  0
VERTEX
  8
FOREGROUND
  6
CONTINUOUS
 10
4.357298
 20
6.151858
  0
VERTEX
  8
FOREGROUND
  6
CONTINUOUS
 10
4.329865
 20
6.161521
  0
VERTEX
  8
FOREGROUND
  6
CONTINUOUS
 10
4.302343
 20
6.170942
  0
VERTEX
  8
FOREGROUND
  6
CONTINUOUS
 10
4.274734
 20
6.180122
  0
VERTEX
  8
FOREGROUND
  6
CONTINUOUS
 10
4.247042
 20
6.189060
  0
VERTEX
  8
FOREGROUND
  6
CONTINUOUS
 10
4.219268
 20
6.197756
  0
VERTEX
  8
FOREGROUND
  6
CONTINUOUS
 10
4.191414
 20
6.206211
  0
VERTEX
  8
FOREGROUND
  6
CONTINUOUS
 10
4.163484
 20
6.214424
  0
VERTEX
  8
FOREGROUND
  6
CONTINUOUS
 10
4.135478
 20
6.222396
  0
VERTEX
  8
FOREGROUND
  6
CONTINUOUS
 10
4.107399
 20
6.230127
  0
VERTEX
  8
FOREGROUND
  6
CONTINUOUS
 10
4.079250
 20
6.237615
  0
VERTEX
  8
FOREGROUND
  6
CONTINUOUS
 10
4.051033
 20
6.244863
  0
VERTEX
  8
FOREGROUND
  6
CONTINUOUS
 10
4.022750
 20
6.251868
  0
VERTEX
  8
FOREGROUND
  6
CONTINUOUS
 10
3.994402
 20
6.258633
  0
VERTEX
  8
FOREGROUND
  6
CONTINUOUS
 10
3.965994
 20
6.265155
  0
VERTEX
  8
FOREGROUND
  6
CONTINUOUS
 10
3.937526
 20
6.271436
  0
VERTEX
  8
FOREGROUND
  6
CONTINUOUS
 10
3.909000
 20
6.277476
  0
VERTEX
  8
FOREGROUND
  6
CONTINUOUS
 10
3.880420
 20
6.283274
  0
VERTEX
  8
FOREGROUND
  6
CONTINUOUS
 10
3.851788
 20
6.288831
  0
VERTEX
  8
FOREGROUND
  6
CONTINUOUS
 10
3.823105
 20
6.294146
  0
VERTEX
  8
FOREGROUND
  6
CONTINUOUS
 10
3.794374
 20
6.299219
  0
VERTEX
  8
FOREGROUND
  6
CONTINUOUS
 10
3.765596
 20
6.304051
  0
VERTEX
  8
FOREGROUND
  6
CONTINUOUS
 10
3.736776
 20
6.308642
  0
VERTEX
  8
FOREGROUND
  6
CONTINUOUS
 10
3.707914
 20
6.312991
  0
VERTEX
  8
FOREGROUND
  6
CONTINUOUS
 10
3.679012
 20
6.317098
  0
VERTEX
  8
FOREGROUND
  6
CONTINUOUS
 10
3.650074
 20
6.320964
  0
VERTEX
  8
FOREGROUND
  6
CONTINUOUS
 10
3.621101
 20
6.324588
  0
VERTEX
  8
FOREGROUND
  6
CONTINUOUS
 10
3.592096
 20
6.327971
  0
VERTEX
  8
FOREGROUND
  6
CONTINUOUS
 10
3.563060
 20
6.331112
  0
VERTEX
  8
FOREGROUND
  6
CONTINUOUS
 10
3.533996
 20
6.334012
  0
VERTEX
  8
FOREGROUND
  6
CONTINUOUS
 10
3.504907
 20
6.336670
  0
VERTEX
  8
FOREGROUND
  6
CONTINUOUS
 10
3.475794
 20
6.339087
  0
VERTEX
  8
FOREGROUND
  6
CONTINUOUS
 10
3.446660
 20
6.341262
  0
VERTEX
  8
FOREGROUND
  6
CONTINUOUS
 10
3.417506
 20
6.343196
  0
VERTEX
  8
FOREGROUND
  6
CONTINUOUS
 10
3.388336
 20
6.344888
  0
VERTEX
  8
FOREGROUND
  6
CONTINUOUS
 10
3.359152
 20
6.346338
  0
VERTEX
  8
FOREGROUND
  6
CONTINUOUS
 10
3.329955
 20
6.347547
  0
VERTEX
  8
FOREGROUND
  6
CONTINUOUS
 10
3.300748
 20
6.348515
  0
VERTEX
  8
FOREGROUND
  6
CONTINUOUS
 10
3.271533
 20
6.349241
  0
VERTEX
  8
FOREGROUND
  6
CONTINUOUS
 10
3.242313
 20
6.349725
  0
VERTEX
  8
FOREGROUND
  6
CONTINUOUS
 10
3.213089
 20
6.349968
  0
VERTEX
  8
FOREGROUND
  6
CONTINUOUS
 10
3.183864
 20
6.349969
  0
VERTEX
  8
FOREGROUND
  6
CONTINUOUS
 10
3.154640
 20
6.349729
  0
VERTEX
  8
FOREGROUND
  6
CONTINUOUS
 10
3.125419
 20
6.349247
  0
VERTEX
  8
FOREGROUND
  6
CONTINUOUS
 10
3.096204
 20
6.348524
  0
VERTEX
  8
FOREGROUND
  6
CONTINUOUS
 10
3.066997
 20
6.347559
  0
VERTEX
  8
FOREGROUND
  6
CONTINUOUS
 10
3.037800
 20
6.346353
  0
VERTEX
  8
FOREGROUND
  6
CONTINUOUS
 10
3.008616
 20
6.344905
  0
VERTEX
  8
FOREGROUND
  6
CONTINUOUS
 10
2.979445
 20
6.343216
  0
VERTEX
  8
FOREGROUND
  6
CONTINUOUS
 10
2.950292
 20
6.341285
  0
VERTEX
  8
FOREGROUND
  6
CONTINUOUS
 10
2.921158
 20
6.339113
  0
VERTEX
  8
FOREGROUND
  6
CONTINUOUS
 10
2.892044
 20
6.336699
  0
VERTEX
  8
FOREGROUND
  6
CONTINUOUS
 10
2.862955
 20
6.334043
  0
VERTEX
  8
FOREGROUND
  6
CONTINUOUS
 10
2.833891
 20
6.331146
  0
VERTEX
  8
FOREGROUND
  6
CONTINUOUS
 10
2.804855
 20
6.328007
  0
VERTEX
  8
FOREGROUND
  6
CONTINUOUS
 10
2.775849
 20
6.324627
  0
VERTEX
  8
FOREGROUND
  6
CONTINUOUS
 10
2.746876
 20
6.321006
  0
VERTEX
  8
FOREGROUND
  6
CONTINUOUS
 10
2.717937
 20
6.317143
  0
VERTEX
  8
FOREGROUND
  6
CONTINUOUS
 10
2.689035
 20
6.313038
  0
VERTEX
  8
FOREGROUND
  6
CONTINUOUS
 10
2.660173
 20
6.308692
  0
VERTEX
  8
FOREGROUND
  6
CONTINUOUS
 10
2.631352
 20
6.304104
  0
VERTEX
  8
FOREGROUND
  6
CONTINUOUS
 10
2.602574
 20
6.299275
  0
VERTEX
  8
FOREGROUND
  6
CONTINUOUS
 10
2.573843
 20
6.294204
  0
VERTEX
  8
FOREGROUND
  6
CONTINUOUS
 10
2.545159
 20
6.288891
  0
VERTEX
  8
FOREGROUND
  6
CONTINUOUS
 10
2.516526
 20
6.283337
  0
VERTEX
  8
FOREGROUND
  6
CONTINUOUS
 10
2.487946
 20
6.277542
  0
VERTEX
  8
FOREGROUND
  6
CONTINUOUS
 10
2.459420
 20
6.271505
  0
VERTEX
  8
FOREGROUND
  6
CONTINUOUS
 10
2.430951
 20
6.265226
  0
VERTEX
  8
FOREGROUND
  6
CONTINUOUS
 10
2.402542
 20
6.258706
  0
VERTEX
  8
FOREGROUND
  6
CONTINUOUS
 10
2.374194
 20
6.251945
  0
VERTEX
  8
FOREGROUND
  6
CONTINUOUS
 10
2.345910
 20
6.244942
  0
VERTEX
  8
FOREGROUND
  6
CONTINUOUS
 10
2.317692
 20
6.237697
  0
VERTEX
  8
FOREGROUND
  6
CONTINUOUS
 10
2.289542
 20
6.230211
  0
VERTEX
  8
FOREGROUND
  6
CONTINUOUS
 10
2.261463
 20
6.222483
  0
VERTEX
  8
FOREGROUND
  6
CONTINUOUS
 10
2.233457
 20
6.214514
  0
VERTEX
  8
FOREGROUND
  6
CONTINUOUS
 10
2.205525
 20
6.206303
  0
VERTEX
  8
FOREGROUND
  6
CONTINUOUS
 10
2.177671
 20
6.197851
  0
VERTEX
  8
FOREGROUND
  6
CONTINUOUS
 10
2.149896
 20
6.189157
  0
VERTEX
  8
FOREGROUND
  6
CONTINUOUS
 10
2.122203
 20
6.180221
  0
VERTEX
  8
FOREGROUND
  6
CONTINUOUS
 10
2.094594
 20
6.171044
  0
VERTEX
  8
FOREGROUND
  6
CONTINUOUS
 10
2.067071
 20
6.161626
  0
VERTEX
  8
FOREGROUND
  6
CONTINUOUS
 10
2.039636
 20
6.151966
  0
VERTEX
  8
FOREGROUND
  6
CONTINUOUS
 10
2.012292
 20
6.142064
  0
VERTEX
  8
FOREGROUND
  6
CONTINUOUS
 10
1.985041
 20
6.131921
  0
VERTEX
  8
FOREGROUND
  6
CONTINUOUS
 10
1.957885
 20
6.121537
  0
VERTEX
  8
FOREGROUND
  6
CONTINUOUS
 10
1.930826
 20
6.110910
  0
VERTEX
  8
FOREGROUND
  6
CONTINUOUS
 10
1.903867
 20
6.100043
  0
VERTEX
  8
FOREGROUND
  6
CONTINUOUS
 10
1.877010
 20
6.088934
  0
VERTEX
  8
FOREGROUND
  6
CONTINUOUS
 10
1.850257
 20
6.077583
  0
VERTEX
  8
FOREGROUND
  6
CONTINUOUS
 10
1.823610
 20
6.065990
  0
VERTEX
  8
FOREGROUND
  6
CONTINUOUS
 10
1.797072
 20
6.054157
  0
VERTEX
  8
FOREGROUND
  6
CONTINUOUS
 10
1.770645
 20
6.042081
  0
VERTEX
  8
FOREGROUND
  6
CONTINUOUS
 10
1.744330
 20
6.029764
  0
VERTEX
  8
FOREGROUND
  6
CONTINUOUS
 10
1.718131
 20
6.017206
  0
VERTEX
  8
FOREGROUND
  6
CONTINUOUS
 10
1.692050
 20
6.004406
  0
VERTEX
  8
FOREGROUND
  6
CONTINUOUS
 10
1.666088
 20
5.991364
  0
VERTEX
  8
FOREGROUND
  6
CONTINUOUS
 10
1.640248
 20
5.978081
  0
VERTEX
  8
FOREGROUND
  6
CONTINUOUS
 10
1.614532
 20
5.964557
  0
VERTEX
  8
FOREGROUND
  6
CONTINUOUS
 10
1.588943
 20
5.950790
  0
VERTEX
  8
FOREGROUND
  6
CONTINUOUS
 10
1.563482
 20
5.936783
  0
VERTEX
  8
FOREGROUND
  6
CONTINUOUS
 10
1.538153
 20
5.922533
  0
VERTEX
  8
FOREGROUND
  6
CONTINUOUS
 10
1.512957
 20
5.908043
  0
VERTEX
  8
FOREGROUND
  6
CONTINUOUS
 10
1.487896
 20
5.893310
  0
VERTEX
  8
FOREGROUND
  6
CONTINUOUS
 10
1.462972
 20
5.878337
  0
VERTEX
  8
FOREGROUND
  6
CONTINUOUS
 10
1.438189
 20
5.863121
  0
VERTEX
  8
FOREGROUND
  6
CONTINUOUS
 10
1.413548
 20
5.847664
  0
VERTEX
  8
FOREGROUND
  6
CONTINUOUS
 10
1.389051
 20
5.831966
  0
VERTEX
  8
FOREGROUND
  6
CONTINUOUS
 10
1.364700
 20
5.816026
  0
VERTEX
  8
FOREGROUND
  6
CONTINUOUS
 10
1.340499
 20
5.799844
  0
VERTEX
  8
FOREGROUND
  6
CONTINUOUS
 10
1.316449
 20
5.783421
  0
VERTEX
  8
FOREGROUND
  6
CONTINUOUS
 10
1.292552
 20
5.766757
  0
VERTEX
  8
FOREGROUND
  6
CONTINUOUS
 10
1.268810
 20
5.749850
  0
VERTEX
  8
FOREGROUND
  6
CONTINUOUS
 10
1.245226
 20
5.732703
  0
VERTEX
  8
FOREGROUND
  6
CONTINUOUS
 10
1.221803
 20
5.715313
  0
VERTEX
  8
FOREGROUND
  6
CONTINUOUS
 10
1.198541
 20
5.697683
  0
VERTEX
  8
FOREGROUND
  6
CONTINUOUS
 10
1.175445
 20
5.679810
  0
VERTEX
  8
FOREGROUND
  6
CONTINUOUS
 10
1.152515
 20
5.661696
  0
VERTEX
  8
FOREGROUND
  6
CONTINUOUS
 10
1.129753
 20
5.643341
  0
VERTEX
  8
FOREGROUND
  6
CONTINUOUS
 10
1.107164
 20
5.624744
  0
VERTEX
  8
FOREGROUND
  6
CONTINUOUS
 10
1.084747
 20
5.605906
  0
VERTEX
  8
FOREGROUND
  6
CONTINUOUS
 10
1.062506
 20
5.586826
  0
VERTEX
  8
FOREGROUND
  6
CONTINUOUS
 10
1.040444
 20
5.567504
  0
VERTEX
  8
FOREGROUND
  6
CONTINUOUS
 10
1.018561
 20
5.547941
  0
VERTEX
  8
FOREGROUND
  6
CONTINUOUS
 10
0.996861
 20
5.528136
  0
VERTEX
  8
FOREGROUND
  6
CONTINUOUS
 10
0.975346
 20
5.508090
  0
VERTEX
  8
FOREGROUND
  6
CONTINUOUS
 10
0.954017
 20
5.487802
  0
VERTEX
  8
FOREGROUND
  6
CONTINUOUS
 10
0.932878
 20
5.467273
  0
VERTEX
  8
FOREGROUND
  6
CONTINUOUS
 10
0.911930
 20
5.446502
  0
VERTEX
  8
FOREGROUND
  6
CONTINUOUS
 10
0.891175
 20
5.425490
  0
VERTEX
  8
FOREGROUND
  6
CONTINUOUS
 10
0.870617
 20
5.404236
  0
VERTEX
  8
FOREGROUND
  6
CONTINUOUS
 10
0.850256
 20
5.382741
  0
VERTEX
  8
FOREGROUND
  6
CONTINUOUS
 10
0.830096
 20
5.361004
  0
VERTEX
  8
FOREGROUND
  6
CONTINUOUS
 10
0.810138
 20
5.339025
  0
VERTEX
  8
FOREGROUND
  6
CONTINUOUS
 10
0.790386
 20
5.316805
  0
VERTEX
  8
FOREGROUND
  6
CONTINUOUS
 10
0.770840
 20
5.294344
  0
VERTEX
  8
FOREGROUND
  6
CONTINUOUS
 10
0.751504
 20
5.271640
  0
VERTEX
  8
FOREGROUND
  6
CONTINUOUS
 10
0.732379
 20
5.248696
  0
VERTEX
  8
FOREGROUND
  6
CONTINUOUS
 10
0.713468
 20
5.225509
  0
VERTEX
  8
FOREGROUND
  6
CONTINUOUS
 10
0.694772
 20
5.202082
  0
VERTEX
  8
FOREGROUND
  6
CONTINUOUS
 10
0.676296
 20
5.178412
  0
VERTEX
  8
FOREGROUND
  6
CONTINUOUS
 10
0.658039
 20
5.154502
  0
VERTEX
  8
FOREGROUND
  6
CONTINUOUS
 10
0.640005
 20
5.130349
  0
VERTEX
  8
FOREGROUND
  6
CONTINUOUS
 10
0.622197
 20
5.105955
  0
VERTEX
  8
FOREGROUND
  6
CONTINUOUS
 10
0.604615
 20
5.081320
  0
VERTEX
  8
FOREGROUND
  6
CONTINUOUS
 10
0.587263
 20
5.056443
  0
VERTEX
  8
FOREGROUND
  6
CONTINUOUS
 10
0.570143
 20
5.031324
  0
VERTEX
  8
FOREGROUND
  6
CONTINUOUS
 10
0.553256
 20
5.005964
  0
VERTEX
  8
FOREGROUND
  6
CONTINUOUS
 10
0.536606
 20
4.980362
  0
VERTEX
  8
FOREGROUND
  6
CONTINUOUS
 10
0.520194
 20
4.954519
  0
VERTEX
  8
FOREGROUND
  6
CONTINUOUS
 10
0.504022
 20
4.928434
  0
VERTEX
  8
FOREGROUND
  6
CONTINUOUS
 10
0.488094
 20
4.902108
  0
VERTEX
  8
FOREGROUND
  6
CONTINUOUS
 10
0.472410
 20
4.875540
  0
VERTEX
  8
FOREGROUND
  6
CONTINUOUS
 10
0.456974
 20
4.848731
  0
VERTEX
  8
FOREGROUND
  6
CONTINUOUS
 10
0.441788
 20
4.821680
  0
VERTEX
  8
FOREGROUND
  6
CONTINUOUS
 10
0.426853
 20
4.794388
  0
VERTEX
  8
FOREGROUND
  6
CONTINUOUS
 10
0.412173
 20
4.766854
  0
VERTEX
  8
FOREGROUND
  6
CONTINUOUS
 10
0.397748
 20
4.739078
  0
VERTEX
  8
FOREGROUND
  6
CONTINUOUS
 10
0.383582
 20
4.711061
  0
VERTEX
  8
FOREGROUND
  6
CONTINUOUS
 10
0.369677
 20
4.682802
  0
VERTEX
  8
FOREGROUND
  6
CONTINUOUS
 10
0.356035
 20
4.654302
  0
VERTEX
  8
FOREGROUND
  6
CONTINUOUS
 10
0.342659
 20
4.625560
  0
VERTEX
  8
FOREGROUND
  6
CONTINUOUS
 10
0.329549
 20
4.596577
  0
VERTEX
  8
FOREGROUND
  6
CONTINUOUS
 10
0.316710
 20
4.567352
  0
VERTEX
  8
FOREGROUND
  6
CONTINUOUS
 10
0.304142
 20
4.537886
  0
VERTEX
  8
FOREGROUND
  6
CONTINUOUS
 10
0.291849
 20
4.508178
  0
VERTEX
  8
FOREGROUND
  6
CONTINUOUS
 10
0.279832
 20
4.478229
  0
VERTEX
  8
FOREGROUND
  6
CONTINUOUS
 10
0.268094
 20
4.448038
  0
VERTEX
  8
FOREGROUND
  6
CONTINUOUS
 10
0.256636
 20
4.417605
  0
VERTEX
  8
FOREGROUND
  6
CONTINUOUS
 10
0.245462
 20
4.386931
  0
VERTEX
  8
FOREGROUND
  6
CONTINUOUS
 10
0.234573
 20
4.356015
  0
VERTEX
  8
FOREGROUND
  6
CONTINUOUS
 10
0.223972
 20
4.324858
  0
VERTEX
  8
FOREGROUND
  6
CONTINUOUS
 10
0.213661
 20
4.293459
  0
VERTEX
  8
FOREGROUND
  6
CONTINUOUS
 10
0.203642
 20
4.261819
  0
VERTEX
  8
FOREGROUND
  6
CONTINUOUS
 10
0.193917
 20
4.229937
  0
VERTEX
  8
FOREGROUND
  6
CONTINUOUS
 10
0.184489
 20
4.197814
  0
VERTEX
  8
FOREGROUND
  6
CONTINUOUS
 10
0.175359
 20
4.165449
  0
VERTEX
  8
FOREGROUND
  6
CONTINUOUS
 10
0.166531
 20
4.132843
  0
VERTEX
  8
FOREGROUND
  6
CONTINUOUS
 10
0.158006
 20
4.099995
  0
VERTEX
  8
FOREGROUND
  6
CONTINUOUS
 10
0.149786
 20
4.066905
  0
VERTEX
  8
FOREGROUND
  6
CONTINUOUS
 10
0.141874
 20
4.033574
  0
VERTEX
  8
FOREGROUND
  6
CONTINUOUS
 10
0.134273
 20
4.000001
  0
VERTEX
  8
FOREGROUND
  6
CONTINUOUS
 10
0.126983
 20
3.966187
  0
VERTEX
  8
FOREGROUND
  6
CONTINUOUS
 10
0.120008
 20
3.932131
  0
VERTEX
  8
FOREGROUND
  6
CONTINUOUS
 10
0.113350
 20
3.897834
  0
VERTEX
  8
FOREGROUND
  6
CONTINUOUS
 10
0.107011
 20
3.863295
  0
VERTEX
  8
FOREGROUND
  6
CONTINUOUS
 10
0.100993
 20
3.828515
  0
VERTEX
  8
FOREGROUND
  6
CONTINUOUS
 10
0.095298
 20
3.793493
  0
VERTEX
  8
FOREGROUND
  6
CONTINUOUS
 10
0.089929
 20
3.758230
  0
VERTEX
  8
FOREGROUND
  6
CONTINUOUS
 10
0.084888
 20
3.722725
  0
VERTEX
  8
FOREGROUND
  6
CONTINUOUS
 10
0.080177
 20
3.686978
  0
VERTEX
  8
FOREGROUND
  6
CONTINUOUS
 10
0.075799
 20
3.650990
  0
VERTEX
  8
FOREGROUND
  6
CONTINUOUS
 10
0.071755
 20
3.614760
  0
VERTEX
  8
FOREGROUND
  6
CONTINUOUS
 10
0.068048
 20
3.578289
  0
VERTEX
  8
FOREGROUND
  6
CONTINUOUS
 10
0.064680
 20
3.541576
  0
VERTEX
  8
FOREGROUND
  6
CONTINUOUS
 10
0.061654
 20
3.504622
  0
VERTEX
  8
FOREGROUND
  6
CONTINUOUS
 10
0.058971
 20
3.467426
  0
VERTEX
  8
FOREGROUND
  6
CONTINUOUS
 10
0.056634
 20
3.429989
  0
VERTEX
  8
FOREGROUND
  6
CONTINUOUS
 10
0.054645
 20
3.392310
  0
VERTEX
  8
FOREGROUND
  6
CONTINUOUS
 10
0.053007
 20
3.354389
  0
VERTEX
  8
FOREGROUND
  6
CONTINUOUS
 10
0.051721
 20
3.316227
  0
VERTEX
  8
FOREGROUND
  6
CONTINUOUS
 10
0.050789
 20
3.277824
  0
VERTEX
  8
FOREGROUND
  6
CONTINUOUS
 10
0.050215
 20
3.239179
  0
VERTEX
  8
FOREGROUND
  6
CONTINUOUS
 10
0.050000
 20
3.200292
  0
VERTEX
  8
FOREGROUND
  6
CONTINUOUS
 10
0.050000
 20
3.200292
  0
VERTEX
  8
FOREGROUND
  6
CONTINUOUS
 10
0.050208
 20
3.161405
  0
VERTEX
  8
FOREGROUND
  6
CONTINUOUS
 10
0.050775
 20
3.122760
  0
VERTEX
  8
FOREGROUND
  6
CONTINUOUS
 10
0.051699
 20
3.084356
  0
VERTEX
  8
FOREGROUND
  6
CONTINUOUS
 10
0.052978
 20
3.046194
  0
VERTEX
  8
FOREGROUND
  6
CONTINUOUS
 10
0.054610
 20
3.008273
  0
VERTEX
  8
FOREGROUND
  6
CONTINUOUS
 10
0.056592
 20
2.970594
  0
VERTEX
  8
FOREGROUND
  6
CONTINUOUS
 10
0.058922
 20
2.933156
  0
VERTEX
  8
FOREGROUND
  6
CONTINUOUS
 10
0.061598
 20
2.895960
  0
VERTEX
  8
FOREGROUND
  6
CONTINUOUS
 10
0.064618
 20
2.859005
  0
VERTEX
  8
FOREGROUND
  6
CONTINUOUS
 10
0.067979
 20
2.822291
  0
VERTEX
  8
FOREGROUND
  6
CONTINUOUS
 10
0.071679
 20
2.785819
  0
VERTEX
  8
FOREGROUND
  6
CONTINUOUS
 10
0.075716
 20
2.749589
  0
VERTEX
  8
FOREGROUND
  6
CONTINUOUS
 10
0.080088
 20
2.713600
  0
VERTEX
  8
FOREGROUND
  6
CONTINUOUS
 10
0.084792
 20
2.677853
  0
VERTEX
  8
FOREGROUND
  6
CONTINUOUS
 10
0.089827
 20
2.642347
  0
VERTEX
  8
FOREGROUND
  6
CONTINUOUS
 10
0.095189
 20
2.607082
  0
VERTEX
  8
FOREGROUND
  6
CONTINUOUS
 10
0.100878
 20
2.572059
  0
VERTEX
  8
FOREGROUND
  6
CONTINUOUS
 10
0.106889
 20
2.537278
  0
VERTEX
  8
FOREGROUND
  6
CONTINUOUS
 10
0.113222
 20
2.502738
  0
VERTEX
  8
FOREGROUND
  6
CONTINUOUS
 10
0.119874
 20
2.468439
  0
VERTEX
  8
FOREGROUND
  6
CONTINUOUS
 10
0.126843
 20
2.434382
  0
VERTEX
  8
FOREGROUND
  6
CONTINUOUS
 10
0.134126
 20
2.400567
  0
VERTEX
  8
FOREGROUND
  6
CONTINUOUS
 10
0.141722
 20
2.366993
  0
VERTEX
  8
FOREGROUND
  6
CONTINUOUS
 10
0.149627
 20
2.333660
  0
VERTEX
  8
FOREGROUND
  6
CONTINUOUS
 10
0.157841
 20
2.300569
  0
VERTEX
  8
FOREGROUND
  6
CONTINUOUS
 10
0.166360
 20
2.267719
  0
VERTEX
  8
FOREGROUND
  6
CONTINUOUS
 10
0.175182
 20
2.235111
  0
VERTEX
  8
FOREGROUND
  6
CONTINUOUS
 10
0.184306
 20
2.202745
  0
VERTEX
  8
FOREGROUND
  6
CONTINUOUS
 10
0.193728
 20
2.170620
  0
VERTEX
  8
FOREGROUND
  6
CONTINUOUS
 10
0.203447
 20
2.138736
  0
VERTEX
  8
FOREGROUND
  6
CONTINUOUS
 10
0.213460
 20
2.107094
  0
VERTEX
  8
FOREGROUND
  6
CONTINUOUS
 10
0.223766
 20
2.075693
  0
VERTEX
  8
FOREGROUND
  6
CONTINUOUS
 10
0.234361
 20
2.044534
  0
VERTEX
  8
FOREGROUND
  6
CONTINUOUS
 10
0.245245
 20
2.013616
  0
VERTEX
  8
FOREGROUND
  6
CONTINUOUS
 10
0.256413
 20
1.982940
  0
VERTEX
  8
FOREGROUND
  6
CONTINUOUS
 10
0.267865
 20
1.952506
  0
VERTEX
  8
FOREGROUND
  6
CONTINUOUS
 10
0.279598
 20
1.922313
  0
VERTEX
  8
FOREGROUND
  6
CONTINUOUS
 10
0.291609
 20
1.892361
  0
VERTEX
  8
FOREGROUND
  6
CONTINUOUS
 10
0.303897
 20
1.862651
  0
VERTEX
  8
FOREGROUND
  6
CONTINUOUS
 10
0.316459
 20
1.833182
  0
VERTEX
  8
FOREGROUND
  6
CONTINUOUS
 10
0.329293
 20
1.803955
  0
VERTEX
  8
FOREGROUND
  6
CONTINUOUS
 10
0.342397
 20
1.774969
  0
VERTEX
  8
FOREGROUND
  6
CONTINUOUS
 10
0.355769
 20
1.746225
  0
VERTEX
  8
FOREGROUND
  6
CONTINUOUS
 10
0.369406
 20
1.717722
  0
VERTEX
  8
FOREGROUND
  6
CONTINUOUS
 10
0.383305
 20
1.689461
  0
VERTEX
  8
FOREGROUND
  6
CONTINUOUS
 10
0.397466
 20
1.661441
  0
VERTEX
  8
FOREGROUND
  6
CONTINUOUS
 10
0.411885
 20
1.633663
  0
VERTEX
  8
FOREGROUND
  6
CONTINUOUS
 10
0.426561
 20
1.606126
  0
VERTEX
  8
FOREGROUND
  6
CONTINUOUS
 10
0.441491
 20
1.578831
  0
VERTEX
  8
FOREGROUND
  6
CONTINUOUS
 10
0.456672
 20
1.551777
  0
VERTEX
  8
FOREGROUND
  6
CONTINUOUS
 10
0.472103
 20
1.524965
  0
VERTEX
  8
FOREGROUND
  6
CONTINUOUS
 10
0.487782
 20
1.498394
  0
VERTEX
  8
FOREGROUND
  6
CONTINUOUS
 10
0.503705
 20
1.472065
  0
VERTEX
  8
FOREGROUND
  6
CONTINUOUS
 10
0.519872
 20
1.445977
  0
VERTEX
  8
FOREGROUND
  6
CONTINUOUS
 10
0.536279
 20
1.420131
  0
VERTEX
  8
FOREGROUND
  6
CONTINUOUS
 10
0.552925
 20
1.394526
  0
VERTEX
  8
FOREGROUND
  6
CONTINUOUS
 10
0.569807
 20
1.369163
  0
VERTEX
  8
FOREGROUND
  6
CONTINUOUS
 10
0.586923
 20
1.344041
  0
VERTEX
  8
FOREGROUND
  6
CONTINUOUS
 10
0.604270
 20
1.319161
  0
VERTEX
  8
FOREGROUND
  6
CONTINUOUS
 10
0.621847
 20
1.294522
  0
VERTEX
  8
FOREGROUND
  6
CONTINUOUS
 10
0.639652
 20
1.270125
  0
VERTEX
  8
FOREGROUND
  6
CONTINUOUS
 10
0.657681
 20
1.245969
  0
VERTEX
  8
FOREGROUND
  6
CONTINUOUS
 10
0.675933
 20
1.222055
  0
VERTEX
  8
FOREGROUND
  6
CONTINUOUS
 10
0.694405
 20
1.198383
  0
VERTEX
  8
FOREGROUND
  6
CONTINUOUS
 10
0.713096
 20
1.174951
  0
VERTEX
  8
FOREGROUND
  6
CONTINUOUS
 10
0.732003
 20
1.151762
  0
VERTEX
  8
FOREGROUND
  6
CONTINUOUS
 10
0.751124
 20
1.128813
  0
VERTEX
  8
FOREGROUND
  6
CONTINUOUS
 10
0.770456
 20
1.106107
  0
VERTEX
  8
FOREGROUND
  6
CONTINUOUS
 10
0.789998
 20
1.083641
  0
VERTEX
  8
FOREGROUND
  6
CONTINUOUS
 10
0.809746
 20
1.061418
  0
VERTEX
  8
FOREGROUND
  6
CONTINUOUS
 10
0.829700
 20
1.039435
  0
VERTEX
  8
FOREGROUND
  6
CONTINUOUS
 10
0.849856
 20
1.017695
  0
VERTEX
  8
FOREGROUND
  6
CONTINUOUS
 10
0.870213
 20
0.996196
  0
VERTEX
  8
FOREGROUND
  6
CONTINUOUS
 10
0.890767
 20
0.974938
  0
VERTEX
  8
FOREGROUND
  6
CONTINUOUS
 10
0.911518
 20
0.953922
  0
VERTEX
  8
FOREGROUND
  6
CONTINUOUS
 10
0.932462
 20
0.933147
  0
VERTEX
  8
FOREGROUND
  6
CONTINUOUS
 10
0.953598
 20
0.912614
  0
VERTEX
  8
FOREGROUND
  6
CONTINUOUS
 10
0.974923
 20
0.892322
  0
VERTEX
  8
FOREGROUND
  6
CONTINUOUS
 10
0.996434
 20
0.872272
  0
VERTEX
  8
FOREGROUND
  6
CONTINUOUS
 10
1.018131
 20
0.852463
  0
VERTEX
  8
FOREGROUND
  6
CONTINUOUS
 10
1.040010
 20
0.832896
  0
VERTEX
  8
FOREGROUND
  6
CONTINUOUS
 10
1.062069
 20
0.813570
  0
VERTEX
  8
FOREGROUND
  6
CONTINUOUS
 10
1.084306
 20
0.794486
  0
VERTEX
  8
FOREGROUND
  6
CONTINUOUS
 10
1.106719
 20
0.775644
  0
VERTEX
  8
FOREGROUND
  6
CONTINUOUS
 10
1.129306
 20
0.757043
  0
VERTEX
  8
FOREGROUND
  6
CONTINUOUS
 10
1.152063
 20
0.738683
  0
VERTEX
  8
FOREGROUND
  6
CONTINUOUS
 10
1.174990
 20
0.720565
  0
VERTEX
  8
FOREGROUND
  6
CONTINUOUS
 10
1.198084
 20
0.702688
  0
VERTEX
  8
FOREGROUND
  6
CONTINUOUS
 10
1.221342
 20
0.685053
  0
VERTEX
  8
FOREGROUND
  6
CONTINUOUS
 10
1.244762
 20
0.667660
  0
VERTEX
  8
FOREGROUND
  6
CONTINUOUS
 10
1.268343
 20
0.650507
  0
VERTEX
  8
FOREGROUND
  6
CONTINUOUS
 10
1.292081
 20
0.633597
  0
VERTEX
  8
FOREGROUND
  6
CONTINUOUS
 10
1.315975
 20
0.616928
  0
VERTEX
  8
FOREGROUND
  6
CONTINUOUS
 10
1.340022
 20
0.600500
  0
VERTEX
  8
FOREGROUND
  6
CONTINUOUS
 10
1.364221
 20
0.584314
  0
VERTEX
  8
FOREGROUND
  6
CONTINUOUS
 10
1.388568
 20
0.568370
  0
VERTEX
  8
FOREGROUND
  6
CONTINUOUS
 10
1.413062
 20
0.552667
  0
VERTEX
  8
FOREGROUND
  6
CONTINUOUS
 10
1.437701
 20
0.537205
  0
VERTEX
  8
FOREGROUND
  6
CONTINUOUS
 10
1.462481
 20
0.521985
  0
VERTEX
  8
FOREGROUND
  6
CONTINUOUS
 10
1.487402
 20
0.507007
  0
VERTEX
  8
FOREGROUND
  6
CONTINUOUS
 10
1.512460
 20
0.492270
  0
VERTEX
  8
FOREGROUND
  6
CONTINUOUS
 10
1.537654
 20
0.477774
  0
VERTEX
  8
FOREGROUND
  6
CONTINUOUS
 10
1.562981
 20
0.463520
  0
VERTEX
  8
FOREGROUND
  6
CONTINUOUS
 10
1.588439
 20
0.449508
  0
VERTEX
  8
FOREGROUND
  6
CONTINUOUS
 10
1.614025
 20
0.435737
  0
VERTEX
  8
FOREGROUND
  6
CONTINUOUS
 10
1.639739
 20
0.422208
  0
VERTEX
  8
FOREGROUND
  6
CONTINUOUS
 10
1.665576
 20
0.408920
  0
VERTEX
  8
FOREGROUND
  6
CONTINUOUS
 10
1.691535
 20
0.395874
  0
VERTEX
  8
FOREGROUND
  6
CONTINUOUS
 10
1.717615
 20
0.383069
  0
VERTEX
  8
FOREGROUND
  6
CONTINUOUS
 10
1.743812
 20
0.370505
  0
VERTEX
  8
FOREGROUND
  6
CONTINUOUS
 10
1.770124
 20
0.358184
  0
VERTEX
  8
FOREGROUND
  6
CONTINUOUS
 10
1.796549
 20
0.346103
  0
VERTEX
  8
FOREGROUND
  6
CONTINUOUS
 10
1.823085
 20
0.334265
  0
VERTEX
  8
FOREGROUND
  6
CONTINUOUS
 10
1.849730
 20
0.322667
  0
VERTEX
  8
FOREGROUND
  6
CONTINUOUS
 10
1.876481
 20
0.311312
  0
VERTEX
  8
FOREGROUND
  6
CONTINUOUS
 10
1.903336
 20
0.300197
  0
VERTEX
  8
FOREGROUND
  6
CONTINUOUS
 10
1.930293
 20
0.289325
  0
VERTEX
  8
FOREGROUND
  6
CONTINUOUS
 10
1.957349
 20
0.278693
  0
VERTEX
  8
FOREGROUND
  6
CONTINUOUS
 10
1.984503
 20
0.268304
  0
VERTEX
  8
FOREGROUND
  6
CONTINUOUS
 10
2.011753
 20
0.258156
  0
VERTEX
  8
FOREGROUND
  6
CONTINUOUS
 10
2.039095
 20
0.248249
  0
VERTEX
  8
FOREGROUND
  6
CONTINUOUS
 10
2.066528
 20
0.238584
  0
VERTEX
  8
FOREGROUND
  6
CONTINUOUS
 10
2.094049
 20
0.229160
  0
VERTEX
  8
FOREGROUND
  6
CONTINUOUS
 10
2.121657
 20
0.219978
  0
VERTEX
  8
FOREGROUND
  6
CONTINUOUS
 10
2.149348
 20
0.211038
  0
VERTEX
  8
FOREGROUND
  6
CONTINUOUS
 10
2.177121
 20
0.202339
  0
VERTEX
  8
FOREGROUND
  6
CONTINUOUS
 10
2.204974
 20
0.193881
  0
VERTEX
  8
FOREGROUND
  6
CONTINUOUS
 10
2.232904
 20
0.185665
  0
VERTEX
  8
FOREGROUND
  6
CONTINUOUS
 10
2.260909
 20
0.177691
  0
VERTEX
  8
FOREGROUND
  6
CONTINUOUS
 10
2.288987
 20
0.169958
  0
VERTEX
  8
FOREGROUND
  6
CONTINUOUS
 10
2.317135
 20
0.162466
  0
VERTEX
  8
FOREGROUND
  6
CONTINUOUS
 10
2.345352
 20
0.155216
  0
VERTEX
  8
FOREGROUND
  6
CONTINUOUS
 10
2.373635
 20
0.148208
  0
VERTEX
  8
FOREGROUND
  6
CONTINUOUS
 10
2.401981
 20
0.141441
  0
VERTEX
  8
FOREGROUND
  6
CONTINUOUS
 10
2.430389
 20
0.134916
  0
VERTEX
  8
FOREGROUND
  6
CONTINUOUS
 10
2.458857
 20
0.128632
  0
VERTEX
  8
FOREGROUND
  6
CONTINUOUS
 10
2.487381
 20
0.122590
  0
VERTEX
  8
FOREGROUND
  6
CONTINUOUS
 10
2.515961
 20
0.116789
  0
VERTEX
  8
FOREGROUND
  6
CONTINUOUS
 10
2.544593
 20
0.111230
  0
VERTEX
  8
FOREGROUND
  6
CONTINUOUS
 10
2.573275
 20
0.105912
  0
VERTEX
  8
FOREGROUND
  6
CONTINUOUS
 10
2.602006
 20
0.100836
  0
VERTEX
  8
FOREGROUND
  6
CONTINUOUS
 10
2.630783
 20
0.096001
  0
VERTEX
  8
FOREGROUND
  6
CONTINUOUS
 10
2.659603
 20
0.091408
  0
VERTEX
  8
FOREGROUND
  6
CONTINUOUS
 10
2.688465
 20
0.087057
  0
VERTEX
  8
FOREGROUND
  6
CONTINUOUS
 10
2.717366
 20
0.082947
  0
VERTEX
  8
FOREGROUND
  6
CONTINUOUS
 10
2.746304
 20
0.079078
  0
VERTEX
  8
FOREGROUND
  6
CONTINUOUS
 10
2.775276
 20
0.075451
  0
VERTEX
  8
FOREGROUND
  6
CONTINUOUS
 10
2.804281
 20
0.072066
  0
VERTEX
  8
FOREGROUND
  6
CONTINUOUS
 10
2.833317
 20
0.068922
  0
VERTEX
  8
FOREGROUND
  6
CONTINUOUS
 10
2.862380
 20
0.066019
  0
VERTEX
  8
FOREGROUND
  6
CONTINUOUS
 10
2.891469
 20
0.063358
  0
VERTEX
  8
FOREGROUND
  6
CONTINUOUS
 10
2.920582
 20
0.060939
  0
VERTEX
  8
FOREGROUND
  6
CONTINUOUS
 10
2.949716
 20
0.058761
  0
VERTEX
  8
FOREGROUND
  6
CONTINUOUS
 10
2.978869
 20
0.056825
  0
VERTEX
  8
FOREGROUND
  6
CONTINUOUS
 10
3.008039
 20
0.055130
  0
VERTEX
  8
FOREGROUND
  6
CONTINUOUS
 10
3.037223
 20
0.053677
  0
VERTEX
  8
FOREGROUND
  6
CONTINUOUS
 10
3.066420
 20
0.052465
  0
VERTEX
  8
FOREGROUND
  6
CONTINUOUS
 10
3.095627
 20
0.051495
  0
VERTEX
  8
FOREGROUND
  6
CONTINUOUS
 10
3.124842
 20
0.050766
  0
VERTEX
  8
FOREGROUND
  6
CONTINUOUS
 10
3.154062
 20
0.050279
  0
VERTEX
  8
FOREGROUND
  6
CONTINUOUS
 10
3.183286
 20
0.050033
  0
VERTEX
  8
FOREGROUND
  6
CONTINUOUS
 10
3.212511
 20
0.050029
  0
VERTEX
  8
FOREGROUND
  6
CONTINUOUS
 10
3.241735
 20
0.050267
  0
VERTEX
  8
FOREGROUND
  6
CONTINUOUS
 10
3.270956
 20
0.050746
  0
VERTEX
  8
FOREGROUND
  6
CONTINUOUS
 10
3.300171
 20
0.051466
  0
VERTEX
  8
FOREGROUND
  6
CONTINUOUS
 10
3.329378
 20
0.052428
  0
VERTEX
  8
FOREGROUND
  6
CONTINUOUS
 10
3.358575
 20
0.053632
  0
VERTEX
  8
FOREGROUND
  6
CONTINUOUS
 10
3.387760
 20
0.055077
  0
VERTEX
  8
FOREGROUND
  6
CONTINUOUS
 10
3.416930
 20
0.056764
  0
VERTEX
  8
FOREGROUND
  6
CONTINUOUS
 10
3.446084
 20
0.058692
  0
VERTEX
  8
FOREGROUND
  6
CONTINUOUS
 10
3.475218
 20
0.060862
  0
VERTEX
  8
FOREGROUND
  6
CONTINUOUS
 10
3.504332
 20
0.063273
  0
VERTEX
  8
FOREGROUND
  6
CONTINUOUS
 10
3.533422
 20
0.065926
  0
VERTEX
  8
FOREGROUND
  6
CONTINUOUS
 10
3.562486
 20
0.068820
  0
VERTEX
  8
FOREGROUND
  6
CONTINUOUS
 10
3.591522
 20
0.071956
  0
VERTEX
  8
FOREGROUND
  6
CONTINUOUS
 10
3.620528
 20
0.075333
  0
VERTEX
  8
FOREGROUND
  6
CONTINUOUS
 10
3.649502
 20
0.078952
  0
VERTEX
  8
FOREGROUND
  6
CONTINUOUS
 10
3.678441
 20
0.082813
  0
VERTEX
  8
FOREGROUND
  6
CONTINUOUS
 10
3.707343
 20
0.086915
  0
VERTEX
  8
FOREGROUND
  6
CONTINUOUS
 10
3.736206
 20
0.091259
  0
VERTEX
  8
FOREGROUND
  6
CONTINUOUS
 10
3.765027
 20
0.095844
  0
VERTEX
  8
FOREGROUND
  6
CONTINUOUS
 10
3.793805
 20
0.100670
  0
VERTEX
  8
FOREGROUND
  6
CONTINUOUS
 10
3.822537
 20
0.105738
  0
VERTEX
  8
FOREGROUND
  6
CONTINUOUS
 10
3.851221
 20
0.111048
  0
VERTEX
  8
FOREGROUND
  6
CONTINUOUS
 10
3.879855
 20
0.116599
  0
VERTEX
  8
FOREGROUND
  6
CONTINUOUS
 10
3.908436
 20
0.122392
  0
VERTEX
  8
FOREGROUND
  6
CONTINUOUS
 10
3.936962
 20
0.128427
  0
VERTEX
  8
FOREGROUND
  6
CONTINUOUS
 10
3.965432
 20
0.134702
  0
VERTEX
  8
FOREGROUND
  6
CONTINUOUS
 10
3.993842
 20
0.141220
  0
VERTEX
  8
FOREGROUND
  6
CONTINUOUS
 10
4.022190
 20
0.147979
  0
VERTEX
  8
FOREGROUND
  6
CONTINUOUS
 10
4.050475
 20
0.154979
  0
VERTEX
  8
FOREGROUND
  6
CONTINUOUS
 10
4.078693
 20
0.162221
  0
VERTEX
  8
FOREGROUND
  6
CONTINUOUS
 10
4.106844
 20
0.169705
  0
VERTEX
  8
FOREGROUND
  6
CONTINUOUS
 10
4.134924
 20
0.177430
  0
VERTEX
  8
FOREGROUND
  6
CONTINUOUS
 10
4.162931
 20
0.185397
  0
VERTEX
  8
FOREGROUND
  6
CONTINUOUS
 10
4.190863
 20
0.193605
  0
VERTEX
  8
FOREGROUND
  6
CONTINUOUS
 10
4.218718
 20
0.202055
  0
VERTEX
  8
FOREGROUND
  6
CONTINUOUS
 10
4.246494
 20
0.210746
  0
VERTEX
  8
FOREGROUND
  6
CONTINUOUS
 10
4.274188
 20
0.219679
  0
VERTEX
  8
FOREGROUND
  6
CONTINUOUS
 10
4.301798
 20
0.228853
  0
VERTEX
  8
FOREGROUND
  6
CONTINUOUS
 10
4.329322
 20
0.238269
  0
VERTEX
  8
FOREGROUND
  6
CONTINUOUS
 10
4.356757
 20
0.247927
  0
VERTEX
  8
FOREGROUND
  6
CONTINUOUS
 10
4.384102
 20
0.257826
  0
VERTEX
  8
FOREGROUND
  6
CONTINUOUS
 10
4.411354
 20
0.267966
  0
VERTEX
  8
FOREGROUND
  6
CONTINUOUS
 10
4.438511
 20
0.278348
  0
VERTEX
  8
FOREGROUND
  6
CONTINUOUS
 10
4.465571
 20
0.288972
  0
VERTEX
  8
FOREGROUND
  6
CONTINUOUS
 10
4.492531
 20
0.299837
  0
VERTEX
  8
FOREGROUND
  6
CONTINUOUS
 10
4.519389
 20
0.310944
  0
VERTEX
  8
FOREGROUND
  6
CONTINUOUS
 10
4.546143
 20
0.322292
  0
VERTEX
  8
FOREGROUND
  6
CONTINUOUS
 10
4.572791
 20
0.333882
  0
VERTEX
  8
FOREGROUND
  6
CONTINUOUS
 10
4.599330
 20
0.345714
  0
VERTEX
  8
FOREGROUND
  6
CONTINUOUS
 10
4.625759
 20
0.357786
  0
VERTEX
  8
FOREGROUND
  6
CONTINUOUS
 10
4.652074
 20
0.370101
  0
VERTEX
  8
FOREGROUND
  6
CONTINUOUS
 10
4.678275
 20
0.382657
  0
VERTEX
  8
FOREGROUND
  6
CONTINUOUS
 10
4.704357
 20
0.395455
  0
VERTEX
  8
FOREGROUND
  6
CONTINUOUS
 10
4.730320
 20
0.408494
  0
VERTEX
  8
FOREGROUND
  6
CONTINUOUS
 10
4.756162
 20
0.421774
  0
VERTEX
  8
FOREGROUND
  6
CONTINUOUS
 10
4.781878
 20
0.435297
  0
VERTEX
  8
FOREGROUND
  6
CONTINUOUS
 10
4.807469
 20
0.449060
  0
VERTEX
  8
FOREGROUND
  6
CONTINUOUS
 10
4.832931
 20
0.463066
  0
VERTEX
  8
FOREGROUND
  6
CONTINUOUS
 10
4.858262
 20
0.477313
  0
VERTEX
  8
FOREGROUND
  6
CONTINUOUS
 10
4.883459
 20
0.491801
  0
VERTEX
  8
FOREGROUND
  6
CONTINUOUS
 10
4.908522
 20
0.506531
  0
VERTEX
  8
FOREGROUND
  6
CONTINUOUS
 10
4.933446
 20
0.521503
  0
VERTEX
  8
FOREGROUND
  6
CONTINUOUS
 10
4.958231
 20
0.536716
  0
VERTEX
  8
FOREGROUND
  6
CONTINUOUS
 10
4.982874
 20
0.552170
  0
VERTEX
  8
FOREGROUND
  6
CONTINUOUS
 10
5.007372
 20
0.567867
  0
VERTEX
  8
FOREGROUND
  6
CONTINUOUS
 10
5.031724
 20
0.583804
  0
VERTEX
  8
FOREGROUND
  6
CONTINUOUS
 10
5.055927
 20
0.599984
  0
VERTEX
  8
FOREGROUND
  6
CONTINUOUS
 10
5.079979
 20
0.616404
  0
VERTEX
  8
FOREGROUND
  6
CONTINUOUS
 10
5.103877
 20
0.633067
  0
VERTEX
  8
FOREGROUND
  6
CONTINUOUS
 10
5.127620
 20
0.649971
  0
VERTEX
  8
FOREGROUND
  6
CONTINUOUS
 10
5.151206
 20
0.667116
  0
VERTEX
  8
FOREGROUND
  6
CONTINUOUS
 10
5.174631
 20
0.684503
  0
VERTEX
  8
FOREGROUND
  6
CONTINUOUS
 10
5.197894
 20
0.702132
  0
VERTEX
  8
FOREGROUND
  6
CONTINUOUS
 10
5.220992
 20
0.720002
  0
VERTEX
  8
FOREGROUND
  6
CONTINUOUS
 10
5.243924
 20
0.738114
  0
VERTEX
  8
FOREGROUND
  6
CONTINUOUS
 10
5.266687
 20
0.756467
  0
VERTEX
  8
FOREGROUND
  6
CONTINUOUS
 10
5.289279
 20
0.775062
  0
VERTEX
  8
FOREGROUND
  6
CONTINUOUS
 10
5.311697
 20
0.793898
  0
VERTEX
  8
FOREGROUND
  6
CONTINUOUS
 10
5.333939
 20
0.812976
  0
VERTEX
  8
FOREGROUND
  6
CONTINUOUS
 10
5.356004
 20
0.832296
  0
VERTEX
  8
FOREGROUND
  6
CONTINUOUS
 10
5.377888
 20
0.851857
  0
VERTEX
  8
FOREGROUND
  6
CONTINUOUS
 10
5.399590
 20
0.871660
  0
VERTEX
  8
FOREGROUND
  6
CONTINUOUS
 10
5.421107
 20
0.891704
  0
VERTEX
  8
FOREGROUND
  6
CONTINUOUS
 10
5.442438
 20
0.911990
  0
VERTEX
  8
FOREGROUND
  6
CONTINUOUS
 10
5.463579
 20
0.932517
  0
VERTEX
  8
FOREGROUND
  6
CONTINUOUS
 10
5.484529
 20
0.953286
  0
VERTEX
  8
FOREGROUND
  6
CONTINUOUS
 10
5.505285
 20
0.974296
  0
VERTEX
  8
FOREGROUND
  6
CONTINUOUS
 10
5.525846
 20
0.995548
  0
VERTEX
  8
FOREGROUND
  6
CONTINUOUS
 10
5.546208
 20
1.017042
  0
VERTEX
  8
FOREGROUND
  6
CONTINUOUS
 10
5.566370
 20
1.038777
  0
VERTEX
  8
FOREGROUND
  6
CONTINUOUS
 10
5.586330
 20
1.060753
  0
VERTEX
  8
FOREGROUND
  6
CONTINUOUS
 10
5.606085
 20
1.082972
  0
VERTEX
  8
FOREGROUND
  6
CONTINUOUS
 10
5.625633
 20
1.105431
  0
VERTEX
  8
FOREGROUND
  6
CONTINUOUS
 10
5.644971
 20
1.128133
  0
VERTEX
  8
FOREGROUND
  6
CONTINUOUS
 10
5.664098
 20
1.151076
  0
VERTEX
  8
FOREGROUND
  6
CONTINUOUS
 10
5.683012
 20
1.174260
  0
VERTEX
  8
FOREGROUND
  6
CONTINUOUS
 10
5.701709
 20
1.197686
  0
VERTEX
  8
FOREGROUND
  6
CONTINUOUS
 10
5.720188
 20
1.221354
  0
VERTEX
  8
FOREGROUND
  6
CONTINUOUS
 10
5.738447
 20
1.245263
  0
VERTEX
  8
FOREGROUND
  6
CONTINUOUS
 10
5.756482
 20
1.269414
  0
VERTEX
  8
FOREGROUND
  6
CONTINUOUS
 10
5.774293
 20
1.293806
  0
VERTEX
  8
FOREGROUND
  6
CONTINUOUS
 10
5.791877
 20
1.318440
  0
VERTEX
  8
FOREGROUND
  6
CONTINUOUS
 10
5.809232
 20
1.343315
  0
VERTEX
  8
FOREGROUND
  6
CONTINUOUS
 10
5.826354
 20
1.368432
  0
VERTEX
  8
FOREGROUND
  6
CONTINUOUS
 10
5.843243
 20
1.393791
  0
VERTEX
  8
FOREGROUND
  6
CONTINUOUS
 10
5.859896
 20
1.419391
  0
VERTEX
  8
FOREGROUND
  6
CONTINUOUS
 10
5.876311
 20
1.445233
  0
VERTEX
  8
FOREGROUND
  6
CONTINUOUS
 10
5.892484
 20
1.471316
  0
VERTEX
  8
FOREGROUND
  6
CONTINUOUS
 10
5.908415
 20
1.497641
  0
VERTEX
  8
FOREGROUND
  6
CONTINUOUS
 10
5.924101
 20
1.524207
  0
VERTEX
  8
FOREGROUND
  6
CONTINUOUS
 10
5.939540
 20
1.551015
  0
VERTEX
  8
FOREGROUND
  6
CONTINUOUS
 10
5.954729
 20
1.578064
  0
VERTEX
  8
FOREGROUND
  6
CONTINUOUS
 10
5.969666
 20
1.605355
  0
VERTEX
  8
FOREGROUND
  6
CONTINUOUS
 10
5.984349
 20
1.632888
  0
VERTEX
  8
FOREGROUND
  6
CONTINUOUS
 10
5.998776
 20
1.660662
  0
VERTEX
  8
FOREGROUND
  6
CONTINUOUS
 10
6.012944
 20
1.688678
  0
VERTEX
  8
FOREGROUND
  6
CONTINUOUS
 10
6.026852
 20
1.716935
  0
VERTEX
  8
FOREGROUND
  6
CONTINUOUS
 10
6.040497
 20
1.745434
  0
VERTEX
  8
FOREGROUND
  6
CONTINUOUS
 10
6.053876
 20
1.774175
  0
VERTEX
  8
FOREGROUND
  6
CONTINUOUS
 10
6.066988
 20
1.803157
  0
VERTEX
  8
FOREGROUND
  6
CONTINUOUS
 10
6.079830
 20
1.832381
  0
VERTEX
  8
FOREGROUND
  6
CONTINUOUS
 10
6.092401
 20
1.861846
  0
VERTEX
  8
FOREGROUND
  6
CONTINUOUS
 10
6.104697
 20
1.891552
  0
VERTEX
  8
FOREGROUND
  6
CONTINUOUS
 10
6.116716
 20
1.921501
  0
VERTEX
  8
FOREGROUND
  6
CONTINUOUS
 10
6.128457
 20
1.951691
  0
VERTEX
  8
FOREGROUND
  6
CONTINUOUS
 10
6.139918
 20
1.982122
  0
VERTEX
  8
FOREGROUND
  6
CONTINUOUS
 10
6.151095
 20
2.012795
  0
VERTEX
  8
FOREGROUND
  6
CONTINUOUS
 10
6.161986
 20
2.043710
  0
VERTEX
  8
FOREGROUND
  6
CONTINUOUS
 10
6.172590
 20
2.074866
  0
VERTEX
  8
FOREGROUND
  6
CONTINUOUS
 10
6.182905
 20
2.106264
  0
VERTEX
  8
FOREGROUND
  6
CONTINUOUS
 10
6.192927
 20
2.137903
  0
VERTEX
  8
FOREGROUND
  6
CONTINUOUS
 10
6.202654
 20
2.169784
  0
VERTEX
  8
FOREGROUND
  6
CONTINUOUS
 10
6.212086
 20
2.201907
  0
VERTEX
  8
FOREGROUND
  6
CONTINUOUS
 10
6.221218
 20
2.234271
  0
VERTEX
  8
FOREGROUND
  6
CONTINUOUS
 10
6.230049
 20
2.266876
  0
VERTEX
  8
FOREGROUND
  6
CONTINUOUS
 10
6.238578
 20
2.299723
  0
VERTEX
  8
FOREGROUND
  6
CONTINUOUS
 10
6.246800
 20
2.332812
  0
VERTEX
  8
FOREGROUND
  6
CONTINUOUS
 10
6.254715
 20
2.366143
  0
VERTEX
  8
FOREGROUND
  6
CONTINUOUS
 10
6.262320
 20
2.399715
  0
VERTEX
  8
FOREGROUND
  6
CONTINUOUS
 10
6.269612
 20
2.433528
  0
VERTEX
  8
FOREGROUND
  6
CONTINUOUS
 10
6.276591
 20
2.467583
  0
VERTEX
  8
FOREGROUND
  6
CONTINUOUS
 10
6.283252
 20
2.501880
  0
VERTEX
  8
FOREGROUND
  6
CONTINUOUS
 10
6.289594
 20
2.536418
  0
VERTEX
  8
FOREGROUND
  6
CONTINUOUS
 10
6.295616
 20
2.571198
  0
VERTEX
  8
FOREGROUND
  6
CONTINUOUS
 10
6.301314
 20
2.606219
  0
VERTEX
  8
FOREGROUND
  6
CONTINUOUS
 10
6.306686
 20
2.641482
  0
VERTEX
  8
FOREGROUND
  6
CONTINUOUS
 10
6.311730
 20
2.676987
  0
VERTEX
  8
FOREGROUND
  6
CONTINUOUS
 10
6.316444
 20
2.712733
  0
VERTEX
  8
FOREGROUND
  6
CONTINUOUS
 10
6.320826
 20
2.748721
  0
VERTEX
  8
FOREGROUND
  6
CONTINUOUS
 10
6.324873
 20
2.784950
  0
VERTEX
  8
FOREGROUND
  6
CONTINUOUS
 10
6.328583
 20
2.821421
  0
VERTEX
  8
FOREGROUND
  6
CONTINUOUS
 10
6.331955
 20
2.858133
  0
VERTEX
  8
FOREGROUND
  6
CONTINUOUS
 10
6.334984
 20
2.895087
  0
VERTEX
  8
FOREGROUND
  6
CONTINUOUS
 10
6.337671
 20
2.932283
  0
VERTEX
  8
FOREGROUND
  6
CONTINUOUS
 10
6.340011
 20
2.969720
  0
VERTEX
  8
FOREGROUND
  6
CONTINUOUS
 10
6.342004
 20
3.007399
  0
VERTEX
  8
FOREGROUND
  6
CONTINUOUS
 10
6.343646
 20
3.045319
  0
VERTEX
  8
FOREGROUND
  6
CONTINUOUS
 10
6.344935
 20
3.083481
  0
VERTEX
  8
FOREGROUND
  6
CONTINUOUS
 10
6.345870
 20
3.121885
  0
VERTEX
  8
FOREGROUND
  6
CONTINUOUS
 10
6.346448
 20
3.160530
  0
VERTEX
  8
FOREGROUND
  6
CONTINUOUS
 10
6.346667
 20
3.199416
  0
SEQEND
  8
0
  0
ENDSEC
  0
EOF
