  0
SECTION
  2
HEADER
  9
$ACADVER
  1
AC1006
  9
$EXTMIN
 10
0.000000
 20
0.000000
  9
$EXTMAX
 10
7.186667
 20
7.186667
  9
$LTSCALE
 40
0.166667
  9
$PDMODE
 70
    35
  9
$PDSIZE
 40
0.133333
  0
ENDSEC
  0
SECTION
  2
TABLES
  0
TABLE
  2
LTYPE
 70
     9
  0
LTYPE
  2
CONTINUOUS
 70
    64
  3
Solid line
 72
    65
 73
     0
 40
0.000000
  0
LTYPE
  2
DASHED
 70
    64
  3
__ __ __ __ __ __ __ __ __ __ __ __ __ __ __
 72
    65
 73
     2
 40
0.001250
 49
0.000833
 49
-0.000417
  0
LTYPE
  2
HIDDEN
 70
    64
  3
 _ _ _ _ _ _ _ _ _ _ _ _ _ _ _ _ _ _ _ _ _ _
 72
    65
 73
     2
 40
0.000625
 49
0.000417
 49
-0.000208
  0
LTYPE
  2
CENTER
 70
    64
  3
____ _ ____ _ ____ _ ____ _ ____ _ ____ _ ____
 72
    65
 73
     4
 40
0.003333
 49
0.002083
 49
-0.000417
 49
0.000417
 49
-0.000417
  0
LTYPE
  2
PHANTOM
 70
    64
  3
_____ _ _ _____ _ _ _____ _ _ _____ _ _ ____
 72
    65
 73
     6
 40
0.004167
 49
0.002083
 49
-0.000417
 49
0.000417
 49
-0.000417
 49
0.000417
 49
-0.000417
  0
LTYPE
  2
DOT
 70
    64
  3
...............................................
 72
    65
 73
     2
 40
0.000417
 49
0.000000
 49
-0.000417
  0
LTYPE
  2
DASHDOT
 70
    64
  3
__ . __ . __ . __ . __ . __ . __ . __ . __ . __
 72
    65
 73
     4
 40
0.001667
 49
0.000833
 49
-0.000417
 49
0.000000
 49
-0.000417
  0
LTYPE
  2
BORDER
 70
    64
  3
__ __ . __ __ . __ __ . __ __ . __ __ . __ __
 72
    65
 73
     6
 40
0.002917
 49
0.000833
 49
-0.000417
 49
0.000833
 49
-0.000417
 49
0.000000
 49
-0.000417
  0
LTYPE
  2
DIVIDE
 70
    64
  3
__ . . __ . . __ . . __ . . __ . . __ . . __
 72
    65
 73
     6
 40
0.002083
 49
0.000833
 49
-0.000417
 49
0.000000
 49
-0.000417
 49
0.000000
 49
-0.000417
  0
LTYPE
  2
DOTDOT
 70
    64
  3
 . .  . .  . .  . .  . .  . . 
 72
    65
 73
     5
 40
0.000917
 49
-0.000417
 49
0.000000
 49
-0.000417
 49
0.000000
 49
-0.000417
  0
ENDTAB
  0
TABLE
  2
STYLE
 70
     2
  0
STYLE
 70
     0
  2
SN0
 40
0.000000
 41
0.001667
 50
0.000000
 71
     0
 42
0.000000
  3
ROMAND
  0
STYLE
 70
    68
  2
SV0
 40
0.000000
 41
0.001667
 50
0.000000
 71
     0
 42
0.000000
  3
ROMAND
  0
ENDTAB
  0
TABLE
  2
LAYER
 70
     2
  0
LAYER
  2
FOREGROUND
 70
    64
 62
     7
  6
CONTINUOUS
  0
LAYER
  2
BACKGROUND
 70
    65
 62
    -7
  6
CONTINUOUS
  0
ENDTAB
  0
ENDSEC
  0
SECTION
  2
ENTITIES
  0
POLYLINE
  8
FOREGROUND
  6
CONTINUOUS
 66
     1
 40
0.010000
 41
0.010000
 70
     1
  0
VERTEX
  8
FOREGROUND
  6
CONTINUOUS
 10
7.136667
 20
3.593333
  0
VERTEX
  8
FOREGROUND
  6
CONTINUOUS
 10
7.136430
 20
3.636941
  0
VERTEX
  8
FOREGROUND
  6
CONTINUOUS
 10
7.135792
 20
3.680279
  0
VERTEX
  8
FOREGROUND
  6
CONTINUOUS
 10
7.134754
 20
3.723347
  0
VERTEX
  8
FOREGROUND
  6
CONTINUOUS
 10
7.133319
 20
3.766145
  0
VERTEX
  8
FOREGROUND
  6
CONTINUOUS
 10
7.131490
 20
3.808672
  0
VERTEX
  8
FOREGROUND
  6
CONTINUOUS
 10
7.129269
 20
3.850930
  0
VERTEX
  8
FOREGROUND
  6
CONTINUOUS
 10
7.126658
 20
3.892918
  0
VERTEX
  8
FOREGROUND
  6
CONTINUOUS
 10
7.123661
 20
3.934636
  0
VERTEX
  8
FOREGROUND
  6
CONTINUOUS
 10
7.120279
 20
3.976084
  0
VERTEX
  8
FOREGROUND
  6
CONTINUOUS
 10
7.116516
 20
4.017262
  0
VERTEX
  8
FOREGROUND
  6
CONTINUOUS
 10
7.112373
 20
4.058169
  0
VERTEX
  8
FOREGROUND
  6
CONTINUOUS
 10
7.107853
 20
4.098807
  0
VERTEX
  8
FOREGROUND
  6
CONTINUOUS
 10
7.102958
 20
4.139175
  0
VERTEX
  8
FOREGROUND
  6
CONTINUOUS
 10
7.097692
 20
4.179273
  0
VERTEX
  8
FOREGROUND
  6
CONTINUOUS
 10
7.092056
 20
4.219101
  0
VERTEX
  8
FOREGROUND
  6
CONTINUOUS
 10
7.086053
 20
4.258658
  0
VERTEX
  8
FOREGROUND
  6
CONTINUOUS
 10
7.079686
 20
4.297946
  0
VERTEX
  8
FOREGROUND
  6
CONTINUOUS
 10
7.072957
 20
4.336964
  0
VERTEX
  8
FOREGROUND
  6
CONTINUOUS
 10
7.065869
 20
4.375712
  0
VERTEX
  8
FOREGROUND
  6
CONTINUOUS
 10
7.058423
 20
4.414190
  0
VERTEX
  8
FOREGROUND
  6
CONTINUOUS
 10
7.050623
 20
4.452398
  0
VERTEX
  8
FOREGROUND
  6
CONTINUOUS
 10
7.042471
 20
4.490335
  0
VERTEX
  8
FOREGROUND
  6
CONTINUOUS
 10
7.033970
 20
4.528003
  0
VERTEX
  8
FOREGROUND
  6
CONTINUOUS
 10
7.025122
 20
4.565401
  0
VERTEX
  8
FOREGROUND
  6
CONTINUOUS
 10
7.015929
 20
4.602529
  0
VERTEX
  8
FOREGROUND
  6
CONTINUOUS
 10
7.006394
 20
4.639387
  0
VERTEX
  8
FOREGROUND
  6
CONTINUOUS
 10
6.996520
 20
4.675974
  0
VERTEX
  8
FOREGROUND
  6
CONTINUOUS
 10
6.986309
 20
4.712292
  0
VERTEX
  8
FOREGROUND
  6
CONTINUOUS
 10
6.975763
 20
4.748340
  0
VERTEX
  8
FOREGROUND
  6
CONTINUOUS
 10
6.964885
 20
4.784118
  0
VERTEX
  8
FOREGROUND
  6
CONTINUOUS
 10
6.953678
 20
4.819626
  0
VERTEX
  8
FOREGROUND
  6
CONTINUOUS
 10
6.942144
 20
4.854863
  0
VERTEX
  8
FOREGROUND
  6
CONTINUOUS
 10
6.930285
 20
4.889831
  0
VERTEX
  8
FOREGROUND
  6
CONTINUOUS
 10
6.918105
 20
4.924529
  0
VERTEX
  8
FOREGROUND
  6
CONTINUOUS
 10
6.905604
 20
4.958957
  0
VERTEX
  8
FOREGROUND
  6
CONTINUOUS
 10
6.892787
 20
4.993115
  0
VERTEX
  8
FOREGROUND
  6
CONTINUOUS
 10
6.879655
 20
5.027002
  0
VERTEX
  8
FOREGROUND
  6
CONTINUOUS
 10
6.866212
 20
5.060620
  0
VERTEX
  8
FOREGROUND
  6
CONTINUOUS
 10
6.852458
 20
5.093968
  0
VERTEX
  8
FOREGROUND
  6
CONTINUOUS
 10
6.838398
 20
5.127046
  0
VERTEX
  8
FOREGROUND
  6
CONTINUOUS
 10
6.824033
 20
5.159854
  0
VERTEX
  8
FOREGROUND
  6
CONTINUOUS
 10
6.809366
 20
5.192391
  0
VERTEX
  8
FOREGROUND
  6
CONTINUOUS
 10
6.794400
 20
5.224659
  0
VERTEX
  8
FOREGROUND
  6
CONTINUOUS
 10
6.779137
 20
5.256657
  0
VERTEX
  8
FOREGROUND
  6
CONTINUOUS
 10
6.763579
 20
5.288385
  0
VERTEX
  8
FOREGROUND
  6
CONTINUOUS
 10
6.747729
 20
5.319842
  0
VERTEX
  8
FOREGROUND
  6
CONTINUOUS
 10
6.731589
 20
5.351030
  0
VERTEX
  8
FOREGROUND
  6
CONTINUOUS
 10
6.715162
 20
5.381948
  0
VERTEX
  8
FOREGROUND
  6
CONTINUOUS
 10
6.698451
 20
5.412596
  0
VERTEX
  8
FOREGROUND
  6
CONTINUOUS
 10
6.681458
 20
5.442973
  0
VERTEX
  8
FOREGROUND
  6
CONTINUOUS
 10
6.664185
 20
5.473081
  0
VERTEX
  8
FOREGROUND
  6
CONTINUOUS
 10
6.646635
 20
5.502919
  0
VERTEX
  8
FOREGROUND
  6
CONTINUOUS
 10
6.628810
 20
5.532487
  0
VERTEX
  8
FOREGROUND
  6
CONTINUOUS
 10
6.610714
 20
5.561784
  0
VERTEX
  8
FOREGROUND
  6
CONTINUOUS
 10
6.592348
 20
5.590812
  0
VERTEX
  8
FOREGROUND
  6
CONTINUOUS
 10
6.573714
 20
5.619570
  0
VERTEX
  8
FOREGROUND
  6
CONTINUOUS
 10
6.554816
 20
5.648057
  0
VERTEX
  8
FOREGROUND
  6
CONTINUOUS
 10
6.535656
 20
5.676275
  0
VERTEX
  8
FOREGROUND
  6
CONTINUOUS
 10
6.516237
 20
5.704223
  0
VERTEX
  8
FOREGROUND
  6
CONTINUOUS
 10
6.496560
 20
5.731901
  0
VERTEX
  8
FOREGROUND
  6
CONTINUOUS
 10
6.476629
 20
5.759308
  0
VERTEX
  8
FOREGROUND
  6
CONTINUOUS
 10
6.456445
 20
5.786446
  0
VERTEX
  8
FOREGROUND
  6
CONTINUOUS
 10
6.436012
 20
5.813314
  0
VERTEX
  8
FOREGROUND
  6
CONTINUOUS
 10
6.415332
 20
5.839911
  0
VERTEX
  8
FOREGROUND
  6
CONTINUOUS
 10
6.394407
 20
5.866239
  0
VERTEX
  8
FOREGROUND
  6
CONTINUOUS
 10
6.373241
 20
5.892297
  0
VERTEX
  8
FOREGROUND
  6
CONTINUOUS
 10
6.351834
 20
5.918084
  0
VERTEX
  8
FOREGROUND
  6
CONTINUOUS
 10
6.330190
 20
5.943602
  0
VERTEX
  8
FOREGROUND
  6
CONTINUOUS
 10
6.308312
 20
5.968850
  0
VERTEX
  8
FOREGROUND
  6
CONTINUOUS
 10
6.286202
 20
5.993827
  0
VERTEX
  8
FOREGROUND
  6
CONTINUOUS
 10
6.263861
 20
6.018535
  0
VERTEX
  8
FOREGROUND
  6
CONTINUOUS
 10
6.241294
 20
6.042972
  0
VERTEX
  8
FOREGROUND
  6
CONTINUOUS
 10
6.218502
 20
6.067140
  0
VERTEX
  8
FOREGROUND
  6
CONTINUOUS
 10
6.195488
 20
6.091038
  0
VERTEX
  8
FOREGROUND
  6
CONTINUOUS
 10
6.172254
 20
6.114665
  0
VERTEX
  8
FOREGROUND
  6
CONTINUOUS
 10
6.148803
 20
6.138023
  0
VERTEX
  8
FOREGROUND
  6
CONTINUOUS
 10
6.125138
 20
6.161110
  0
VERTEX
  8
FOREGROUND
  6
CONTINUOUS
 10
6.101260
 20
6.183928
  0
VERTEX
  8
FOREGROUND
  6
CONTINUOUS
 10
6.077172
 20
6.206476
  0
VERTEX
  8
FOREGROUND
  6
CONTINUOUS
 10
6.052878
 20
6.228753
  0
VERTEX
  8
FOREGROUND
  6
CONTINUOUS
 10
6.028378
 20
6.250761
  0
VERTEX
  8
FOREGROUND
  6
CONTINUOUS
 10
6.003677
 20
6.272498
  0
VERTEX
  8
FOREGROUND
  6
CONTINUOUS
 10
5.978776
 20
6.293966
  0
VERTEX
  8
FOREGROUND
  6
CONTINUOUS
 10
5.953677
 20
6.315163
  0
VERTEX
  8
FOREGROUND
  6
CONTINUOUS
 10
5.928384
 20
6.336091
  0
VERTEX
  8
FOREGROUND
  6
CONTINUOUS
 10
5.902899
 20
6.356748
  0
VERTEX
  8
FOREGROUND
  6
CONTINUOUS
 10
5.877224
 20
6.377136
  0
VERTEX
  8
FOREGROUND
  6
CONTINUOUS
 10
5.851361
 20
6.397253
  0
VERTEX
  8
FOREGROUND
  6
CONTINUOUS
 10
5.825314
 20
6.417101
  0
VERTEX
  8
FOREGROUND
  6
CONTINUOUS
 10
5.799085
 20
6.436678
  0
VERTEX
  8
FOREGROUND
  6
CONTINUOUS
 10
5.772676
 20
6.455986
  0
VERTEX
  8
FOREGROUND
  6
CONTINUOUS
 10
5.746090
 20
6.475023
  0
VERTEX
  8
FOREGROUND
  6
CONTINUOUS
 10
5.719329
 20
6.493791
  0
VERTEX
  8
FOREGROUND
  6
CONTINUOUS
 10
5.692396
 20
6.512288
  0
VERTEX
  8
FOREGROUND
  6
CONTINUOUS
 10
5.665293
 20
6.530515
  0
VERTEX
  8
FOREGROUND
  6
CONTINUOUS
 10
5.638023
 20
6.548473
  0
VERTEX
  8
FOREGROUND
  6
CONTINUOUS
 10
5.610588
 20
6.566160
  0
VERTEX
  8
FOREGROUND
  6
CONTINUOUS
 10
5.582991
 20
6.583578
  0
VERTEX
  8
FOREGROUND
  6
CONTINUOUS
 10
5.555234
 20
6.600725
  0
VERTEX
  8
FOREGROUND
  6
CONTINUOUS
 10
5.527320
 20
6.617602
  0
VERTEX
  8
FOREGROUND
  6
CONTINUOUS
 10
5.499251
 20
6.634210
  0
VERTEX
  8
FOREGROUND
  6
CONTINUOUS
 10
5.471029
 20
6.650547
  0
VERTEX
  8
FOREGROUND
  6
CONTINUOUS
 10
5.442658
 20
6.666615
  0
VERTEX
  8
FOREGROUND
  6
CONTINUOUS
 10
5.414140
 20
6.682412
  0
VERTEX
  8
FOREGROUND
  6
CONTINUOUS
 10
5.385477
 20
6.697939
  0
VERTEX
  8
FOREGROUND
  6
CONTINUOUS
 10
5.356672
 20
6.713196
  0
VERTEX
  8
FOREGROUND
  6
CONTINUOUS
 10
5.327726
 20
6.728184
  0
VERTEX
  8
FOREGROUND
  6
CONTINUOUS
 10
5.298644
 20
6.742901
  0
VERTEX
  8
FOREGROUND
  6
CONTINUOUS
 10
5.269427
 20
6.757348
  0
VERTEX
  8
FOREGROUND
  6
CONTINUOUS
 10
5.240077
 20
6.771526
  0
VERTEX
  8
FOREGROUND
  6
CONTINUOUS
 10
5.210598
 20
6.785433
  0
VERTEX
  8
FOREGROUND
  6
CONTINUOUS
 10
5.180991
 20
6.799070
  0
VERTEX
  8
FOREGROUND
  6
CONTINUOUS
 10
5.151260
 20
6.812437
  0
VERTEX
  8
FOREGROUND
  6
CONTINUOUS
 10
5.121406
 20
6.825535
  0
VERTEX
  8
FOREGROUND
  6
CONTINUOUS
 10
5.091432
 20
6.838362
  0
VERTEX
  8
FOREGROUND
  6
CONTINUOUS
 10
5.061341
 20
6.850919
  0
VERTEX
  8
FOREGROUND
  6
CONTINUOUS
 10
5.031135
 20
6.863206
  0
VERTEX
  8
FOREGROUND
  6
CONTINUOUS
 10
5.000817
 20
6.875223
  0
VERTEX
  8
FOREGROUND
  6
CONTINUOUS
 10
4.970389
 20
6.886971
  0
VERTEX
  8
FOREGROUND
  6
CONTINUOUS
 10
4.939854
 20
6.898448
  0
VERTEX
  8
FOREGROUND
  6
CONTINUOUS
 10
4.909214
 20
6.909655
  0
VERTEX
  8
FOREGROUND
  6
CONTINUOUS
 10
4.878471
 20
6.920592
  0
VERTEX
  8
FOREGROUND
  6
CONTINUOUS
 10
4.847629
 20
6.931259
  0
VERTEX
  8
FOREGROUND
  6
CONTINUOUS
 10
4.816689
 20
6.941656
  0
VERTEX
  8
FOREGROUND
  6
CONTINUOUS
 10
4.785655
 20
6.951783
  0
VERTEX
  8
FOREGROUND
  6
CONTINUOUS
 10
4.754528
 20
6.961640
  0
VERTEX
  8
FOREGROUND
  6
CONTINUOUS
 10
4.723311
 20
6.971227
  0
VERTEX
  8
FOREGROUND
  6
CONTINUOUS
 10
4.692007
 20
6.980544
  0
VERTEX
  8
FOREGROUND
  6
CONTINUOUS
 10
4.660617
 20
6.989592
  0
VERTEX
  8
FOREGROUND
  6
CONTINUOUS
 10
4.629146
 20
6.998369
  0
VERTEX
  8
FOREGROUND
  6
CONTINUOUS
 10
4.597595
 20
7.006876
  0
VERTEX
  8
FOREGROUND
  6
CONTINUOUS
 10
4.565966
 20
7.015113
  0
VERTEX
  8
FOREGROUND
  6
CONTINUOUS
 10
4.534262
 20
7.023080
  0
VERTEX
  8
FOREGROUND
  6
CONTINUOUS
 10
4.502486
 20
7.030776
  0
VERTEX
  8
FOREGROUND
  6
CONTINUOUS
 10
4.470640
 20
7.038203
  0
VERTEX
  8
FOREGROUND
  6
CONTINUOUS
 10
4.438727
 20
7.045360
  0
VERTEX
  8
FOREGROUND
  6
CONTINUOUS
 10
4.406749
 20
7.052247
  0
VERTEX
  8
FOREGROUND
  6
CONTINUOUS
 10
4.374708
 20
7.058864
  0
VERTEX
  8
FOREGROUND
  6
CONTINUOUS
 10
4.342607
 20
7.065211
  0
VERTEX
  8
FOREGROUND
  6
CONTINUOUS
 10
4.310449
 20
7.071288
  0
VERTEX
  8
FOREGROUND
  6
CONTINUOUS
 10
4.278237
 20
7.077095
  0
VERTEX
  8
FOREGROUND
  6
CONTINUOUS
 10
4.245971
 20
7.082632
  0
VERTEX
  8
FOREGROUND
  6
CONTINUOUS
 10
4.213656
 20
7.087899
  0
VERTEX
  8
FOREGROUND
  6
CONTINUOUS
 10
4.181293
 20
7.092895
  0
VERTEX
  8
FOREGROUND
  6
CONTINUOUS
 10
4.148885
 20
7.097622
  0
VERTEX
  8
FOREGROUND
  6
CONTINUOUS
 10
4.116435
 20
7.102079
  0
VERTEX
  8
FOREGROUND
  6
CONTINUOUS
 10
4.083945
 20
7.106266
  0
VERTEX
  8
FOREGROUND
  6
CONTINUOUS
 10
4.051418
 20
7.110182
  0
VERTEX
  8
FOREGROUND
  6
CONTINUOUS
 10
4.018855
 20
7.113829
  0
VERTEX
  8
FOREGROUND
  6
CONTINUOUS
 10
3.986260
 20
7.117206
  0
VERTEX
  8
FOREGROUND
  6
CONTINUOUS
 10
3.953635
 20
7.120313
  0
VERTEX
  8
FOREGROUND
  6
CONTINUOUS
 10
3.920983
 20
7.123149
  0
VERTEX
  8
FOREGROUND
  6
CONTINUOUS
 10
3.888306
 20
7.125716
  0
VERTEX
  8
FOREGROUND
  6
CONTINUOUS
 10
3.855606
 20
7.128013
  0
VERTEX
  8
FOREGROUND
  6
CONTINUOUS
 10
3.822886
 20
7.130039
  0
VERTEX
  8
FOREGROUND
  6
CONTINUOUS
 10
3.790149
 20
7.131796
  0
VERTEX
  8
FOREGROUND
  6
CONTINUOUS
 10
3.757396
 20
7.133283
  0
VERTEX
  8
FOREGROUND
  6
CONTINUOUS
 10
3.724632
 20
7.134499
  0
VERTEX
  8
FOREGROUND
  6
CONTINUOUS
 10
3.691857
 20
7.135446
  0
VERTEX
  8
FOREGROUND
  6
CONTINUOUS
 10
3.659075
 20
7.136122
  0
VERTEX
  8
FOREGROUND
  6
CONTINUOUS
 10
3.626287
 20
7.136529
  0
VERTEX
  8
FOREGROUND
  6
CONTINUOUS
 10
3.593497
 20
7.136665
  0
VERTEX
  8
FOREGROUND
  6
CONTINUOUS
 10
3.560708
 20
7.136532
  0
VERTEX
  8
FOREGROUND
  6
CONTINUOUS
 10
3.527920
 20
7.136128
  0
VERTEX
  8
FOREGROUND
  6
CONTINUOUS
 10
3.495138
 20
7.135455
  0
VERTEX
  8
FOREGROUND
  6
CONTINUOUS
 10
3.462363
 20
7.134511
  0
VERTEX
  8
FOREGROUND
  6
CONTINUOUS
 10
3.429598
 20
7.133298
  0
VERTEX
  8
FOREGROUND
  6
CONTINUOUS
 10
3.396846
 20
7.131814
  0
VERTEX
  8
FOREGROUND
  6
CONTINUOUS
 10
3.364108
 20
7.130061
  0
VERTEX
  8
FOREGROUND
  6
CONTINUOUS
 10
3.331388
 20
7.128037
  0
VERTEX
  8
FOREGROUND
  6
CONTINUOUS
 10
3.298688
 20
7.125743
  0
VERTEX
  8
FOREGROUND
  6
CONTINUOUS
 10
3.266011
 20
7.123180
  0
VERTEX
  8
FOREGROUND
  6
CONTINUOUS
 10
3.233358
 20
7.120346
  0
VERTEX
  8
FOREGROUND
  6
CONTINUOUS
 10
3.200733
 20
7.117242
  0
VERTEX
  8
FOREGROUND
  6
CONTINUOUS
 10
3.168138
 20
7.113869
  0
VERTEX
  8
FOREGROUND
  6
CONTINUOUS
 10
3.135575
 20
7.110225
  0
VERTEX
  8
FOREGROUND
  6
CONTINUOUS
 10
3.103047
 20
7.106311
  0
VERTEX
  8
FOREGROUND
  6
CONTINUOUS
 10
3.070556
 20
7.102127
  0
VERTEX
  8
FOREGROUND
  6
CONTINUOUS
 10
3.038106
 20
7.097674
  0
VERTEX
  8
FOREGROUND
  6
CONTINUOUS
 10
3.005698
 20
7.092950
  0
VERTEX
  8
FOREGROUND
  6
CONTINUOUS
 10
2.973335
 20
7.087956
  0
VERTEX
  8
FOREGROUND
  6
CONTINUOUS
 10
2.941019
 20
7.082692
  0
VERTEX
  8
FOREGROUND
  6
CONTINUOUS
 10
2.908753
 20
7.077158
  0
VERTEX
  8
FOREGROUND
  6
CONTINUOUS
 10
2.876539
 20
7.071354
  0
VERTEX
  8
FOREGROUND
  6
CONTINUOUS
 10
2.844381
 20
7.065281
  0
VERTEX
  8
FOREGROUND
  6
CONTINUOUS
 10
2.812280
 20
7.058937
  0
VERTEX
  8
FOREGROUND
  6
CONTINUOUS
 10
2.780238
 20
7.052323
  0
VERTEX
  8
FOREGROUND
  6
CONTINUOUS
 10
2.748260
 20
7.045439
  0
VERTEX
  8
FOREGROUND
  6
CONTINUOUS
 10
2.716346
 20
7.038285
  0
VERTEX
  8
FOREGROUND
  6
CONTINUOUS
 10
2.684499
 20
7.030861
  0
VERTEX
  8
FOREGROUND
  6
CONTINUOUS
 10
2.652722
 20
7.023167
  0
VERTEX
  8
FOREGROUND
  6
CONTINUOUS
 10
2.621018
 20
7.015203
  0
VERTEX
  8
FOREGROUND
  6
CONTINUOUS
 10
2.589388
 20
7.006969
  0
VERTEX
  8
FOREGROUND
  6
CONTINUOUS
 10
2.557836
 20
6.998464
  0
VERTEX
  8
FOREGROUND
  6
CONTINUOUS
 10
2.526364
 20
6.989690
  0
VERTEX
  8
FOREGROUND
  6
CONTINUOUS
 10
2.494974
 20
6.980646
  0
VERTEX
  8
FOREGROUND
  6
CONTINUOUS
 10
2.463669
 20
6.971332
  0
VERTEX
  8
FOREGROUND
  6
CONTINUOUS
 10
2.432451
 20
6.961748
  0
VERTEX
  8
FOREGROUND
  6
CONTINUOUS
 10
2.401323
 20
6.951894
  0
VERTEX
  8
FOREGROUND
  6
CONTINUOUS
 10
2.370288
 20
6.941770
  0
VERTEX
  8
FOREGROUND
  6
CONTINUOUS
 10
2.339347
 20
6.931375
  0
VERTEX
  8
FOREGROUND
  6
CONTINUOUS
 10
2.308504
 20
6.920711
  0
VERTEX
  8
FOREGROUND
  6
CONTINUOUS
 10
2.277760
 20
6.909777
  0
VERTEX
  8
FOREGROUND
  6
CONTINUOUS
 10
2.247119
 20
6.898572
  0
VERTEX
  8
FOREGROUND
  6
CONTINUOUS
 10
2.216583
 20
6.887098
  0
VERTEX
  8
FOREGROUND
  6
CONTINUOUS
 10
2.186154
 20
6.875354
  0
VERTEX
  8
FOREGROUND
  6
CONTINUOUS
 10
2.155834
 20
6.863339
  0
VERTEX
  8
FOREGROUND
  6
CONTINUOUS
 10
2.125627
 20
6.851055
  0
VERTEX
  8
FOREGROUND
  6
CONTINUOUS
 10
2.095535
 20
6.838501
  0
VERTEX
  8
FOREGROUND
  6
CONTINUOUS
 10
2.065560
 20
6.825676
  0
VERTEX
  8
FOREGROUND
  6
CONTINUOUS
 10
2.035705
 20
6.812582
  0
VERTEX
  8
FOREGROUND
  6
CONTINUOUS
 10
2.005973
 20
6.799217
  0
VERTEX
  8
FOREGROUND
  6
CONTINUOUS
 10
1.976365
 20
6.785583
  0
VERTEX
  8
FOREGROUND
  6
CONTINUOUS
 10
1.946884
 20
6.771678
  0
VERTEX
  8
FOREGROUND
  6
CONTINUOUS
 10
1.917533
 20
6.757504
  0
VERTEX
  8
FOREGROUND
  6
CONTINUOUS
 10
1.888315
 20
6.743059
  0
VERTEX
  8
FOREGROUND
  6
CONTINUOUS
 10
1.859231
 20
6.728344
  0
VERTEX
  8
FOREGROUND
  6
CONTINUOUS
 10
1.830284
 20
6.713360
  0
VERTEX
  8
FOREGROUND
  6
CONTINUOUS
 10
1.801477
 20
6.698105
  0
VERTEX
  8
FOREGROUND
  6
CONTINUOUS
 10
1.772813
 20
6.682581
  0
VERTEX
  8
FOREGROUND
  6
CONTINUOUS
 10
1.744293
 20
6.666786
  0
VERTEX
  8
FOREGROUND
  6
CONTINUOUS
 10
1.715921
 20
6.650721
  0
VERTEX
  8
FOREGROUND
  6
CONTINUOUS
 10
1.687698
 20
6.634386
  0
VERTEX
  8
FOREGROUND
  6
CONTINUOUS
 10
1.659627
 20
6.617782
  0
VERTEX
  8
FOREGROUND
  6
CONTINUOUS
 10
1.631712
 20
6.600907
  0
VERTEX
  8
FOREGROUND
  6
CONTINUOUS
 10
1.603953
 20
6.583762
  0
VERTEX
  8
FOREGROUND
  6
CONTINUOUS
 10
1.576354
 20
6.566347
  0
VERTEX
  8
FOREGROUND
  6
CONTINUOUS
 10
1.548918
 20
6.548662
  0
VERTEX
  8
FOREGROUND
  6
CONTINUOUS
 10
1.521646
 20
6.530707
  0
VERTEX
  8
FOREGROUND
  6
CONTINUOUS
 10
1.494541
 20
6.512482
  0
VERTEX
  8
FOREGROUND
  6
CONTINUOUS
 10
1.467606
 20
6.493988
  0
VERTEX
  8
FOREGROUND
  6
CONTINUOUS
 10
1.440844
 20
6.475223
  0
VERTEX
  8
FOREGROUND
  6
CONTINUOUS
 10
1.414256
 20
6.456188
  0
VERTEX
  8
FOREGROUND
  6
CONTINUOUS
 10
1.387845
 20
6.436883
  0
VERTEX
  8
FOREGROUND
  6
CONTINUOUS
 10
1.361614
 20
6.417308
  0
VERTEX
  8
FOREGROUND
  6
CONTINUOUS
 10
1.335565
 20
6.397462
  0
VERTEX
  8
FOREGROUND
  6
CONTINUOUS
 10
1.309701
 20
6.377347
  0
VERTEX
  8
FOREGROUND
  6
CONTINUOUS
 10
1.284024
 20
6.356962
  0
VERTEX
  8
FOREGROUND
  6
CONTINUOUS
 10
1.258537
 20
6.336307
  0
VERTEX
  8
FOREGROUND
  6
CONTINUOUS
 10
1.233242
 20
6.315382
  0
VERTEX
  8
FOREGROUND
  6
CONTINUOUS
 10
1.208141
 20
6.294187
  0
VERTEX
  8
FOREGROUND
  6
CONTINUOUS
 10
1.183238
 20
6.272721
  0
VERTEX
  8
FOREGROUND
  6
CONTINUOUS
 10
1.158534
 20
6.250986
  0
VERTEX
  8
FOREGROUND
  6
CONTINUOUS
 10
1.134033
 20
6.228981
  0
VERTEX
  8
FOREGROUND
  6
CONTINUOUS
 10
1.109736
 20
6.206706
  0
VERTEX
  8
FOREGROUND
  6
CONTINUOUS
 10
1.085647
 20
6.184160
  0
VERTEX
  8
FOREGROUND
  6
CONTINUOUS
 10
1.061767
 20
6.161345
  0
VERTEX
  8
FOREGROUND
  6
CONTINUOUS
 10
1.038099
 20
6.138260
  0
VERTEX
  8
FOREGROUND
  6
CONTINUOUS
 10
1.014646
 20
6.114904
  0
VERTEX
  8
FOREGROUND
  6
CONTINUOUS
 10
0.991410
 20
6.091279
  0
VERTEX
  8
FOREGROUND
  6
CONTINUOUS
 10
0.968394
 20
6.067383
  0
VERTEX
  8
FOREGROUND
  6
CONTINUOUS
 10
0.945600
 20
6.043218
  0
VERTEX
  8
FOREGROUND
  6
CONTINUOUS
 10
0.923030
 20
6.018782
  0
VERTEX
  8
FOREGROUND
  6
CONTINUOUS
 10
0.900688
 20
5.994077
  0
VERTEX
  8
FOREGROUND
  6
CONTINUOUS
 10
0.878575
 20
5.969101
  0
VERTEX
  8
FOREGROUND
  6
CONTINUOUS
 10
0.856694
 20
5.943855
  0
VERTEX
  8
FOREGROUND
  6
CONTINUOUS
 10
0.835048
 20
5.918340
  0
VERTEX
  8
FOREGROUND
  6
CONTINUOUS
 10
0.813639
 20
5.892554
  0
VERTEX
  8
FOREGROUND
  6
CONTINUOUS
 10
0.792470
 20
5.866498
  0
VERTEX
  8
FOREGROUND
  6
CONTINUOUS
 10
0.771543
 20
5.840173
  0
VERTEX
  8
FOREGROUND
  6
CONTINUOUS
 10
0.750860
 20
5.813577
  0
VERTEX
  8
FOREGROUND
  6
CONTINUOUS
 10
0.730424
 20
5.786711
  0
VERTEX
  8
FOREGROUND
  6
CONTINUOUS
 10
0.710238
 20
5.759575
  0
VERTEX
  8
FOREGROUND
  6
CONTINUOUS
 10
0.690305
 20
5.732170
  0
VERTEX
  8
FOREGROUND
  6
CONTINUOUS
 10
0.670625
 20
5.704494
  0
VERTEX
  8
FOREGROUND
  6
CONTINUOUS
 10
0.651203
 20
5.676548
  0
VERTEX
  8
FOREGROUND
  6
CONTINUOUS
 10
0.632041
 20
5.648332
  0
VERTEX
  8
FOREGROUND
  6
CONTINUOUS
 10
0.613140
 20
5.619846
  0
VERTEX
  8
FOREGROUND
  6
CONTINUOUS
 10
0.594504
 20
5.591090
  0
VERTEX
  8
FOREGROUND
  6
CONTINUOUS
 10
0.576135
 20
5.562064
  0
VERTEX
  8
FOREGROUND
  6
CONTINUOUS
 10
0.558036
 20
5.532768
  0
VERTEX
  8
FOREGROUND
  6
CONTINUOUS
 10
0.540209
 20
5.503202
  0
VERTEX
  8
FOREGROUND
  6
CONTINUOUS
 10
0.522656
 20
5.473366
  0
VERTEX
  8
FOREGROUND
  6
CONTINUOUS
 10
0.505380
 20
5.443260
  0
VERTEX
  8
FOREGROUND
  6
CONTINUOUS
 10
0.488384
 20
5.412883
  0
VERTEX
  8
FOREGROUND
  6
CONTINUOUS
 10
0.471670
 20
5.382237
  0
VERTEX
  8
FOREGROUND
  6
CONTINUOUS
 10
0.455241
 20
5.351321
  0
VERTEX
  8
FOREGROUND
  6
CONTINUOUS
 10
0.439098
 20
5.320135
  0
VERTEX
  8
FOREGROUND
  6
CONTINUOUS
 10
0.423245
 20
5.288678
  0
VERTEX
  8
FOREGROUND
  6
CONTINUOUS
 10
0.407684
 20
5.256952
  0
VERTEX
  8
FOREGROUND
  6
CONTINUOUS
 10
0.392418
 20
5.224956
  0
VERTEX
  8
FOREGROUND
  6
CONTINUOUS
 10
0.377448
 20
5.192689
  0
VERTEX
  8
FOREGROUND
  6
CONTINUOUS
 10
0.362779
 20
5.160153
  0
VERTEX
  8
FOREGROUND
  6
CONTINUOUS
 10
0.348411
 20
5.127346
  0
VERTEX
  8
FOREGROUND
  6
CONTINUOUS
 10
0.334347
 20
5.094270
  0
VERTEX
  8
FOREGROUND
  6
CONTINUOUS
 10
0.320591
 20
5.060923
  0
VERTEX
  8
FOREGROUND
  6
CONTINUOUS
 10
0.307144
 20
5.027307
  0
VERTEX
  8
FOREGROUND
  6
CONTINUOUS
 10
0.294009
 20
4.993420
  0
VERTEX
  8
FOREGROUND
  6
CONTINUOUS
 10
0.281189
 20
4.959264
  0
VERTEX
  8
FOREGROUND
  6
CONTINUOUS
 10
0.268685
 20
4.924837
  0
VERTEX
  8
FOREGROUND
  6
CONTINUOUS
 10
0.256502
 20
4.890140
  0
VERTEX
  8
FOREGROUND
  6
CONTINUOUS
 10
0.244640
 20
4.855174
  0
VERTEX
  8
FOREGROUND
  6
CONTINUOUS
 10
0.233102
 20
4.819937
  0
VERTEX
  8
FOREGROUND
  6
CONTINUOUS
 10
0.221892
 20
4.784430
  0
VERTEX
  8
FOREGROUND
  6
CONTINUOUS
 10
0.211011
 20
4.748653
  0
VERTEX
  8
FOREGROUND
  6
CONTINUOUS
 10
0.200462
 20
4.712607
  0
VERTEX
  8
FOREGROUND
  6
CONTINUOUS
 10
0.190247
 20
4.676290
  0
VERTEX
  8
FOREGROUND
  6
CONTINUOUS
 10
0.180370
 20
4.639703
  0
VERTEX
  8
FOREGROUND
  6
CONTINUOUS
 10
0.170831
 20
4.602846
  0
VERTEX
  8
FOREGROUND
  6
CONTINUOUS
 10
0.161635
 20
4.565719
  0
VERTEX
  8
FOREGROUND
  6
CONTINUOUS
 10
0.152783
 20
4.528322
  0
VERTEX
  8
FOREGROUND
  6
CONTINUOUS
 10
0.144279
 20
4.490655
  0
VERTEX
  8
FOREGROUND
  6
CONTINUOUS
 10
0.136123
 20
4.452718
  0
VERTEX
  8
FOREGROUND
  6
CONTINUOUS
 10
0.128320
 20
4.414511
  0
VERTEX
  8
FOREGROUND
  6
CONTINUOUS
 10
0.120871
 20
4.376034
  0
VERTEX
  8
FOREGROUND
  6
CONTINUOUS
 10
0.113778
 20
4.337287
  0
VERTEX
  8
FOREGROUND
  6
CONTINUOUS
 10
0.107046
 20
4.298269
  0
VERTEX
  8
FOREGROUND
  6
CONTINUOUS
 10
0.100675
 20
4.258982
  0
VERTEX
  8
FOREGROUND
  6
CONTINUOUS
 10
0.094669
 20
4.219425
  0
VERTEX
  8
FOREGROUND
  6
CONTINUOUS
 10
0.089029
 20
4.179598
  0
VERTEX
  8
FOREGROUND
  6
CONTINUOUS
 10
0.083759
 20
4.139500
  0
VERTEX
  8
FOREGROUND
  6
CONTINUOUS
 10
0.078861
 20
4.099133
  0
VERTEX
  8
FOREGROUND
  6
CONTINUOUS
 10
0.074337
 20
4.058495
  0
VERTEX
  8
FOREGROUND
  6
CONTINUOUS
 10
0.070190
 20
4.017588
  0
VERTEX
  8
FOREGROUND
  6
CONTINUOUS
 10
0.066423
 20
3.976410
  0
VERTEX
  8
FOREGROUND
  6
CONTINUOUS
 10
0.063037
 20
3.934963
  0
VERTEX
  8
FOREGROUND
  6
CONTINUOUS
 10
0.060036
 20
3.893245
  0
VERTEX
  8
FOREGROUND
  6
CONTINUOUS
 10
0.057422
 20
3.851258
  0
VERTEX
  8
FOREGROUND
  6
CONTINUOUS
 10
0.055197
 20
3.809000
  0
VERTEX
  8
FOREGROUND
  6
CONTINUOUS
 10
0.053364
 20
3.766473
  0
VERTEX
  8
FOREGROUND
  6
CONTINUOUS
 10
0.051925
 20
3.723675
  0
VERTEX
  8
FOREGROUND
  6
CONTINUOUS
 10
0.050883
 20
3.680607
  0
VERTEX
  8
FOREGROUND
  6
CONTINUOUS
 10
0.050241
 20
3.637269
  0
VERTEX
  8
FOREGROUND
  6
CONTINUOUS
 10
0.050000
 20
3.593662
  0
VERTEX
  8
FOREGROUND
  6
CONTINUOUS
 10
0.050000
 20
3.593662
  0
VERTEX
  8
FOREGROUND
  6
CONTINUOUS
 10
0.050233
 20
3.550054
  0
VERTEX
  8
FOREGROUND
  6
CONTINUOUS
 10
0.050867
 20
3.506716
  0
VERTEX
  8
FOREGROUND
  6
CONTINUOUS
 10
0.051901
 20
3.463648
  0
VERTEX
  8
FOREGROUND
  6
CONTINUOUS
 10
0.053332
 20
3.420850
  0
VERTEX
  8
FOREGROUND
  6
CONTINUOUS
 10
0.055157
 20
3.378322
  0
VERTEX
  8
FOREGROUND
  6
CONTINUOUS
 10
0.057374
 20
3.336064
  0
VERTEX
  8
FOREGROUND
  6
CONTINUOUS
 10
0.059981
 20
3.294076
  0
VERTEX
  8
FOREGROUND
  6
CONTINUOUS
 10
0.062974
 20
3.252358
  0
VERTEX
  8
FOREGROUND
  6
CONTINUOUS
 10
0.066352
 20
3.210910
  0
VERTEX
  8
FOREGROUND
  6
CONTINUOUS
 10
0.070112
 20
3.169732
  0
VERTEX
  8
FOREGROUND
  6
CONTINUOUS
 10
0.074251
 20
3.128823
  0
VERTEX
  8
FOREGROUND
  6
CONTINUOUS
 10
0.078767
 20
3.088185
  0
VERTEX
  8
FOREGROUND
  6
CONTINUOUS
 10
0.083658
 20
3.047817
  0
VERTEX
  8
FOREGROUND
  6
CONTINUOUS
 10
0.088921
 20
3.007719
  0
VERTEX
  8
FOREGROUND
  6
CONTINUOUS
 10
0.094553
 20
2.967890
  0
VERTEX
  8
FOREGROUND
  6
CONTINUOUS
 10
0.100552
 20
2.928332
  0
VERTEX
  8
FOREGROUND
  6
CONTINUOUS
 10
0.106915
 20
2.889043
  0
VERTEX
  8
FOREGROUND
  6
CONTINUOUS
 10
0.113641
 20
2.850025
  0
VERTEX
  8
FOREGROUND
  6
CONTINUOUS
 10
0.120726
 20
2.811276
  0
VERTEX
  8
FOREGROUND
  6
CONTINUOUS
 10
0.128168
 20
2.772798
  0
VERTEX
  8
FOREGROUND
  6
CONTINUOUS
 10
0.135964
 20
2.734589
  0
VERTEX
  8
FOREGROUND
  6
CONTINUOUS
 10
0.144112
 20
2.696651
  0
VERTEX
  8
FOREGROUND
  6
CONTINUOUS
 10
0.152610
 20
2.658982
  0
VERTEX
  8
FOREGROUND
  6
CONTINUOUS
 10
0.161455
 20
2.621584
  0
VERTEX
  8
FOREGROUND
  6
CONTINUOUS
 10
0.170644
 20
2.584455
  0
VERTEX
  8
FOREGROUND
  6
CONTINUOUS
 10
0.180176
 20
2.547596
  0
VERTEX
  8
FOREGROUND
  6
CONTINUOUS
 10
0.190047
 20
2.511008
  0
VERTEX
  8
FOREGROUND
  6
CONTINUOUS
 10
0.200254
 20
2.474689
  0
VERTEX
  8
FOREGROUND
  6
CONTINUOUS
 10
0.210797
 20
2.438640
  0
VERTEX
  8
FOREGROUND
  6
CONTINUOUS
 10
0.221671
 20
2.402861
  0
VERTEX
  8
FOREGROUND
  6
CONTINUOUS
 10
0.232875
 20
2.367352
  0
VERTEX
  8
FOREGROUND
  6
CONTINUOUS
 10
0.244406
 20
2.332113
  0
VERTEX
  8
FOREGROUND
  6
CONTINUOUS
 10
0.256261
 20
2.297145
  0
VERTEX
  8
FOREGROUND
  6
CONTINUOUS
 10
0.268439
 20
2.262446
  0
VERTEX
  8
FOREGROUND
  6
CONTINUOUS
 10
0.280936
 20
2.228017
  0
VERTEX
  8
FOREGROUND
  6
CONTINUOUS
 10
0.293750
 20
2.193858
  0
VERTEX
  8
FOREGROUND
  6
CONTINUOUS
 10
0.306878
 20
2.159969
  0
VERTEX
  8
FOREGROUND
  6
CONTINUOUS
 10
0.320319
 20
2.126350
  0
VERTEX
  8
FOREGROUND
  6
CONTINUOUS
 10
0.334069
 20
2.093001
  0
VERTEX
  8
FOREGROUND
  6
CONTINUOUS
 10
0.348126
 20
2.059922
  0
VERTEX
  8
FOREGROUND
  6
CONTINUOUS
 10
0.362488
 20
2.027112
  0
VERTEX
  8
FOREGROUND
  6
CONTINUOUS
 10
0.377152
 20
1.994573
  0
VERTEX
  8
FOREGROUND
  6
CONTINUOUS
 10
0.392116
 20
1.962304
  0
VERTEX
  8
FOREGROUND
  6
CONTINUOUS
 10
0.407376
 20
1.930305
  0
VERTEX
  8
FOREGROUND
  6
CONTINUOUS
 10
0.422931
 20
1.898576
  0
VERTEX
  8
FOREGROUND
  6
CONTINUOUS
 10
0.438778
 20
1.867117
  0
VERTEX
  8
FOREGROUND
  6
CONTINUOUS
 10
0.454915
 20
1.835927
  0
VERTEX
  8
FOREGROUND
  6
CONTINUOUS
 10
0.471339
 20
1.805008
  0
VERTEX
  8
FOREGROUND
  6
CONTINUOUS
 10
0.488047
 20
1.774359
  0
VERTEX
  8
FOREGROUND
  6
CONTINUOUS
 10
0.505038
 20
1.743979
  0
VERTEX
  8
FOREGROUND
  6
CONTINUOUS
 10
0.522308
 20
1.713870
  0
VERTEX
  8
FOREGROUND
  6
CONTINUOUS
 10
0.539855
 20
1.684031
  0
VERTEX
  8
FOREGROUND
  6
CONTINUOUS
 10
0.557677
 20
1.654461
  0
VERTEX
  8
FOREGROUND
  6
CONTINUOUS
 10
0.575771
 20
1.625162
  0
VERTEX
  8
FOREGROUND
  6
CONTINUOUS
 10
0.594134
 20
1.596132
  0
VERTEX
  8
FOREGROUND
  6
CONTINUOUS
 10
0.612765
 20
1.567373
  0
VERTEX
  8
FOREGROUND
  6
CONTINUOUS
 10
0.631660
 20
1.538884
  0
VERTEX
  8
FOREGROUND
  6
CONTINUOUS
 10
0.650817
 20
1.510664
  0
VERTEX
  8
FOREGROUND
  6
CONTINUOUS
 10
0.670234
 20
1.482715
  0
VERTEX
  8
FOREGROUND
  6
CONTINUOUS
 10
0.689908
 20
1.455035
  0
VERTEX
  8
FOREGROUND
  6
CONTINUOUS
 10
0.709837
 20
1.427626
  0
VERTEX
  8
FOREGROUND
  6
CONTINUOUS
 10
0.730018
 20
1.400486
  0
VERTEX
  8
FOREGROUND
  6
CONTINUOUS
 10
0.750449
 20
1.373616
  0
VERTEX
  8
FOREGROUND
  6
CONTINUOUS
 10
0.771126
 20
1.347017
  0
VERTEX
  8
FOREGROUND
  6
CONTINUOUS
 10
0.792049
 20
1.320687
  0
VERTEX
  8
FOREGROUND
  6
CONTINUOUS
 10
0.813213
 20
1.294628
  0
VERTEX
  8
FOREGROUND
  6
CONTINUOUS
 10
0.834617
 20
1.268838
  0
VERTEX
  8
FOREGROUND
  6
CONTINUOUS
 10
0.856259
 20
1.243318
  0
VERTEX
  8
FOREGROUND
  6
CONTINUOUS
 10
0.878135
 20
1.218069
  0
VERTEX
  8
FOREGROUND
  6
CONTINUOUS
 10
0.900243
 20
1.193089
  0
VERTEX
  8
FOREGROUND
  6
CONTINUOUS
 10
0.922581
 20
1.168379
  0
VERTEX
  8
FOREGROUND
  6
CONTINUOUS
 10
0.945146
 20
1.143940
  0
VERTEX
  8
FOREGROUND
  6
CONTINUOUS
 10
0.967935
 20
1.119770
  0
VERTEX
  8
FOREGROUND
  6
CONTINUOUS
 10
0.990947
 20
1.095870
  0
VERTEX
  8
FOREGROUND
  6
CONTINUOUS
 10
1.014179
 20
1.072240
  0
VERTEX
  8
FOREGROUND
  6
CONTINUOUS
 10
1.037628
 20
1.048881
  0
VERTEX
  8
FOREGROUND
  6
CONTINUOUS
 10
1.061291
 20
1.025791
  0
VERTEX
  8
FOREGROUND
  6
CONTINUOUS
 10
1.085167
 20
1.002971
  0
VERTEX
  8
FOREGROUND
  6
CONTINUOUS
 10
1.109252
 20
0.980421
  0
VERTEX
  8
FOREGROUND
  6
CONTINUOUS
 10
1.133545
 20
0.958141
  0
VERTEX
  8
FOREGROUND
  6
CONTINUOUS
 10
1.158042
 20
0.936132
  0
VERTEX
  8
FOREGROUND
  6
CONTINUOUS
 10
1.182741
 20
0.914392
  0
VERTEX
  8
FOREGROUND
  6
CONTINUOUS
 10
1.207641
 20
0.892922
  0
VERTEX
  8
FOREGROUND
  6
CONTINUOUS
 10
1.232737
 20
0.871722
  0
VERTEX
  8
FOREGROUND
  6
CONTINUOUS
 10
1.258028
 20
0.850792
  0
VERTEX
  8
FOREGROUND
  6
CONTINUOUS
 10
1.283512
 20
0.830132
  0
VERTEX
  8
FOREGROUND
  6
CONTINUOUS
 10
1.309185
 20
0.809743
  0
VERTEX
  8
FOREGROUND
  6
CONTINUOUS
 10
1.335045
 20
0.789623
  0
VERTEX
  8
FOREGROUND
  6
CONTINUOUS
 10
1.361091
 20
0.769773
  0
VERTEX
  8
FOREGROUND
  6
CONTINUOUS
 10
1.387318
 20
0.750193
  0
VERTEX
  8
FOREGROUND
  6
CONTINUOUS
 10
1.413725
 20
0.730883
  0
VERTEX
  8
FOREGROUND
  6
CONTINUOUS
 10
1.440310
 20
0.711843
  0
VERTEX
  8
FOREGROUND
  6
CONTINUOUS
 10
1.467069
 20
0.693073
  0
VERTEX
  8
FOREGROUND
  6
CONTINUOUS
 10
1.494000
 20
0.674573
  0
VERTEX
  8
FOREGROUND
  6
CONTINUOUS
 10
1.521102
 20
0.656343
  0
VERTEX
  8
FOREGROUND
  6
CONTINUOUS
 10
1.548370
 20
0.638383
  0
VERTEX
  8
FOREGROUND
  6
CONTINUOUS
 10
1.575803
 20
0.620693
  0
VERTEX
  8
FOREGROUND
  6
CONTINUOUS
 10
1.603399
 20
0.603273
  0
VERTEX
  8
FOREGROUND
  6
CONTINUOUS
 10
1.631154
 20
0.586123
  0
VERTEX
  8
FOREGROUND
  6
CONTINUOUS
 10
1.659067
 20
0.569243
  0
VERTEX
  8
FOREGROUND
  6
CONTINUOUS
 10
1.687134
 20
0.552633
  0
VERTEX
  8
FOREGROUND
  6
CONTINUOUS
 10
1.715354
 20
0.536293
  0
VERTEX
  8
FOREGROUND
  6
CONTINUOUS
 10
1.743724
 20
0.520224
  0
VERTEX
  8
FOREGROUND
  6
CONTINUOUS
 10
1.772240
 20
0.504424
  0
VERTEX
  8
FOREGROUND
  6
CONTINUOUS
 10
1.800902
 20
0.488894
  0
VERTEX
  8
FOREGROUND
  6
CONTINUOUS
 10
1.829706
 20
0.473634
  0
VERTEX
  8
FOREGROUND
  6
CONTINUOUS
 10
1.858650
 20
0.458644
  0
VERTEX
  8
FOREGROUND
  6
CONTINUOUS
 10
1.887731
 20
0.443924
  0
VERTEX
  8
FOREGROUND
  6
CONTINUOUS
 10
1.916947
 20
0.429474
  0
VERTEX
  8
FOREGROUND
  6
CONTINUOUS
 10
1.946295
 20
0.415294
  0
VERTEX
  8
FOREGROUND
  6
CONTINUOUS
 10
1.975773
 20
0.401384
  0
VERTEX
  8
FOREGROUND
  6
CONTINUOUS
 10
2.005379
 20
0.387744
  0
VERTEX
  8
FOREGROUND
  6
CONTINUOUS
 10
2.035109
 20
0.374374
  0
VERTEX
  8
FOREGROUND
  6
CONTINUOUS
 10
2.064961
 20
0.361274
  0
VERTEX
  8
FOREGROUND
  6
CONTINUOUS
 10
2.094934
 20
0.348444
  0
VERTEX
  8
FOREGROUND
  6
CONTINUOUS
 10
2.125024
 20
0.335884
  0
VERTEX
  8
FOREGROUND
  6
CONTINUOUS
 10
2.155228
 20
0.323594
  0
VERTEX
  8
FOREGROUND
  6
CONTINUOUS
 10
2.185545
 20
0.311574
  0
VERTEX
  8
FOREGROUND
  6
CONTINUOUS
 10
2.215972
 20
0.299824
  0
VERTEX
  8
FOREGROUND
  6
CONTINUOUS
 10
2.246506
 20
0.288344
  0
VERTEX
  8
FOREGROUND
  6
CONTINUOUS
 10
2.277146
 20
0.277134
  0
VERTEX
  8
FOREGROUND
  6
CONTINUOUS
 10
2.307887
 20
0.266194
  0
VERTEX
  8
FOREGROUND
  6
CONTINUOUS
 10
2.338729
 20
0.255524
  0
VERTEX
  8
FOREGROUND
  6
CONTINUOUS
 10
2.369667
 20
0.245124
  0
VERTEX
  8
FOREGROUND
  6
CONTINUOUS
 10
2.400701
 20
0.234994
  0
VERTEX
  8
FOREGROUND
  6
CONTINUOUS
 10
2.431827
 20
0.225134
  0
VERTEX
  8
FOREGROUND
  6
CONTINUOUS
 10
2.463043
 20
0.215544
  0
VERTEX
  8
FOREGROUND
  6
CONTINUOUS
 10
2.494346
 20
0.206224
  0
VERTEX
  8
FOREGROUND
  6
CONTINUOUS
 10
2.525735
 20
0.197174
  0
VERTEX
  8
FOREGROUND
  6
CONTINUOUS
 10
2.557205
 20
0.188394
  0
VERTEX
  8
FOREGROUND
  6
CONTINUOUS
 10
2.588756
 20
0.179884
  0
VERTEX
  8
FOREGROUND
  6
CONTINUOUS
 10
2.620384
 20
0.171644
  0
VERTEX
  8
FOREGROUND
  6
CONTINUOUS
 10
2.652087
 20
0.163674
  0
VERTEX
  8
FOREGROUND
  6
CONTINUOUS
 10
2.683862
 20
0.155974
  0
VERTEX
  8
FOREGROUND
  6
CONTINUOUS
 10
2.715707
 20
0.148545
  0
VERTEX
  8
FOREGROUND
  6
CONTINUOUS
 10
2.747620
 20
0.141385
  0
VERTEX
  8
FOREGROUND
  6
CONTINUOUS
 10
2.779597
 20
0.134495
  0
VERTEX
  8
FOREGROUND
  6
CONTINUOUS
 10
2.811638
 20
0.127875
  0
VERTEX
  8
FOREGROUND
  6
CONTINUOUS
 10
2.843738
 20
0.121525
  0
VERTEX
  8
FOREGROUND
  6
CONTINUOUS
 10
2.875895
 20
0.115445
  0
VERTEX
  8
FOREGROUND
  6
CONTINUOUS
 10
2.908107
 20
0.109635
  0
VERTEX
  8
FOREGROUND
  6
CONTINUOUS
 10
2.940372
 20
0.104095
  0
VERTEX
  8
FOREGROUND
  6
CONTINUOUS
 10
2.972687
 20
0.098826
  0
VERTEX
  8
FOREGROUND
  6
CONTINUOUS
 10
3.005049
 20
0.093826
  0
VERTEX
  8
FOREGROUND
  6
CONTINUOUS
 10
3.037457
 20
0.089096
  0
VERTEX
  8
FOREGROUND
  6
CONTINUOUS
 10
3.069906
 20
0.084636
  0
VERTEX
  8
FOREGROUND
  6
CONTINUOUS
 10
3.102396
 20
0.080446
  0
VERTEX
  8
FOREGROUND
  6
CONTINUOUS
 10
3.134923
 20
0.076527
  0
VERTEX
  8
FOREGROUND
  6
CONTINUOUS
 10
3.167485
 20
0.072877
  0
VERTEX
  8
FOREGROUND
  6
CONTINUOUS
 10
3.200080
 20
0.069497
  0
VERTEX
  8
FOREGROUND
  6
CONTINUOUS
 10
3.232705
 20
0.066387
  0
VERTEX
  8
FOREGROUND
  6
CONTINUOUS
 10
3.265357
 20
0.063548
  0
VERTEX
  8
FOREGROUND
  6
CONTINUOUS
 10
3.298034
 20
0.060978
  0
VERTEX
  8
FOREGROUND
  6
CONTINUOUS
 10
3.330733
 20
0.058678
  0
VERTEX
  8
FOREGROUND
  6
CONTINUOUS
 10
3.363453
 20
0.056649
  0
VERTEX
  8
FOREGROUND
  6
CONTINUOUS
 10
3.396190
 20
0.054889
  0
VERTEX
  8
FOREGROUND
  6
CONTINUOUS
 10
3.428942
 20
0.053399
  0
VERTEX
  8
FOREGROUND
  6
CONTINUOUS
 10
3.461707
 20
0.052180
  0
VERTEX
  8
FOREGROUND
  6
CONTINUOUS
 10
3.494482
 20
0.051230
  0
VERTEX
  8
FOREGROUND
  6
CONTINUOUS
 10
3.527264
 20
0.050550
  0
VERTEX
  8
FOREGROUND
  6
CONTINUOUS
 10
3.560051
 20
0.050141
  0
VERTEX
  8
FOREGROUND
  6
CONTINUOUS
 10
3.592841
 20
0.050001
  0
VERTEX
  8
FOREGROUND
  6
CONTINUOUS
 10
3.625631
 20
0.050132
  0
VERTEX
  8
FOREGROUND
  6
CONTINUOUS
 10
3.658418
 20
0.050532
  0
VERTEX
  8
FOREGROUND
  6
CONTINUOUS
 10
3.691200
 20
0.051203
  0
VERTEX
  8
FOREGROUND
  6
CONTINUOUS
 10
3.723975
 20
0.052143
  0
VERTEX
  8
FOREGROUND
  6
CONTINUOUS
 10
3.756740
 20
0.053354
  0
VERTEX
  8
FOREGROUND
  6
CONTINUOUS
 10
3.789493
 20
0.054834
  0
VERTEX
  8
FOREGROUND
  6
CONTINUOUS
 10
3.822231
 20
0.056585
  0
VERTEX
  8
FOREGROUND
  6
CONTINUOUS
 10
3.854951
 20
0.058605
  0
VERTEX
  8
FOREGROUND
  6
CONTINUOUS
 10
3.887651
 20
0.060896
  0
VERTEX
  8
FOREGROUND
  6
CONTINUOUS
 10
3.920329
 20
0.063457
  0
VERTEX
  8
FOREGROUND
  6
CONTINUOUS
 10
3.952982
 20
0.066287
  0
VERTEX
  8
FOREGROUND
  6
CONTINUOUS
 10
3.985607
 20
0.069388
  0
VERTEX
  8
FOREGROUND
  6
CONTINUOUS
 10
4.018203
 20
0.072759
  0
VERTEX
  8
FOREGROUND
  6
CONTINUOUS
 10
4.050766
 20
0.076399
  0
VERTEX
  8
FOREGROUND
  6
CONTINUOUS
 10
4.083294
 20
0.080310
  0
VERTEX
  8
FOREGROUND
  6
CONTINUOUS
 10
4.115785
 20
0.084491
  0
VERTEX
  8
FOREGROUND
  6
CONTINUOUS
 10
4.148236
 20
0.088942
  0
VERTEX
  8
FOREGROUND
  6
CONTINUOUS
 10
4.180645
 20
0.093662
  0
VERTEX
  8
FOREGROUND
  6
CONTINUOUS
 10
4.213008
 20
0.098653
  0
VERTEX
  8
FOREGROUND
  6
CONTINUOUS
 10
4.245325
 20
0.103914
  0
VERTEX
  8
FOREGROUND
  6
CONTINUOUS
 10
4.277591
 20
0.109445
  0
VERTEX
  8
FOREGROUND
  6
CONTINUOUS
 10
4.309805
 20
0.115246
  0
VERTEX
  8
FOREGROUND
  6
CONTINUOUS
 10
4.341964
 20
0.121317
  0
VERTEX
  8
FOREGROUND
  6
CONTINUOUS
 10
4.374066
 20
0.127658
  0
VERTEX
  8
FOREGROUND
  6
CONTINUOUS
 10
4.406108
 20
0.134269
  0
VERTEX
  8
FOREGROUND
  6
CONTINUOUS
 10
4.438087
 20
0.141150
  0
VERTEX
  8
FOREGROUND
  6
CONTINUOUS
 10
4.470002
 20
0.148301
  0
VERTEX
  8
FOREGROUND
  6
CONTINUOUS
 10
4.501849
 20
0.155722
  0
VERTEX
  8
FOREGROUND
  6
CONTINUOUS
 10
4.533627
 20
0.163413
  0
VERTEX
  8
FOREGROUND
  6
CONTINUOUS
 10
4.565332
 20
0.171374
  0
VERTEX
  8
FOREGROUND
  6
CONTINUOUS
 10
4.596962
 20
0.179605
  0
VERTEX
  8
FOREGROUND
  6
CONTINUOUS
 10
4.628515
 20
0.188106
  0
VERTEX
  8
FOREGROUND
  6
CONTINUOUS
 10
4.659988
 20
0.196877
  0
VERTEX
  8
FOREGROUND
  6
CONTINUOUS
 10
4.691379
 20
0.205919
  0
VERTEX
  8
FOREGROUND
  6
CONTINUOUS
 10
4.722685
 20
0.215230
  0
VERTEX
  8
FOREGROUND
  6
CONTINUOUS
 10
4.753903
 20
0.224811
  0
VERTEX
  8
FOREGROUND
  6
CONTINUOUS
 10
4.785032
 20
0.234662
  0
VERTEX
  8
FOREGROUND
  6
CONTINUOUS
 10
4.816069
 20
0.244784
  0
VERTEX
  8
FOREGROUND
  6
CONTINUOUS
 10
4.847010
 20
0.255175
  0
VERTEX
  8
FOREGROUND
  6
CONTINUOUS
 10
4.877855
 20
0.265837
  0
VERTEX
  8
FOREGROUND
  6
CONTINUOUS
 10
4.908599
 20
0.276768
  0
VERTEX
  8
FOREGROUND
  6
CONTINUOUS
 10
4.939241
 20
0.287969
  0
VERTEX
  8
FOREGROUND
  6
CONTINUOUS
 10
4.969779
 20
0.299441
  0
VERTEX
  8
FOREGROUND
  6
CONTINUOUS
 10
5.000209
 20
0.311183
  0
VERTEX
  8
FOREGROUND
  6
CONTINUOUS
 10
5.030529
 20
0.323194
  0
VERTEX
  8
FOREGROUND
  6
CONTINUOUS
 10
5.060738
 20
0.335476
  0
VERTEX
  8
FOREGROUND
  6
CONTINUOUS
 10
5.090831
 20
0.348027
  0
VERTEX
  8
FOREGROUND
  6
CONTINUOUS
 10
5.120807
 20
0.360849
  0
VERTEX
  8
FOREGROUND
  6
CONTINUOUS
 10
5.150663
 20
0.373941
  0
VERTEX
  8
FOREGROUND
  6
CONTINUOUS
 10
5.180397
 20
0.387302
  0
VERTEX
  8
FOREGROUND
  6
CONTINUOUS
 10
5.210006
 20
0.400934
  0
VERTEX
  8
FOREGROUND
  6
CONTINUOUS
 10
5.239488
 20
0.414836
  0
VERTEX
  8
FOREGROUND
  6
CONTINUOUS
 10
5.268840
 20
0.429008
  0
VERTEX
  8
FOREGROUND
  6
CONTINUOUS
 10
5.298060
 20
0.443450
  0
VERTEX
  8
FOREGROUND
  6
CONTINUOUS
 10
5.327146
 20
0.458162
  0
VERTEX
  8
FOREGROUND
  6
CONTINUOUS
 10
5.356093
 20
0.473143
  0
VERTEX
  8
FOREGROUND
  6
CONTINUOUS
 10
5.384902
 20
0.488395
  0
VERTEX
  8
FOREGROUND
  6
CONTINUOUS
 10
5.413568
 20
0.503917
  0
VERTEX
  8
FOREGROUND
  6
CONTINUOUS
 10
5.442089
 20
0.519710
  0
VERTEX
  8
FOREGROUND
  6
CONTINUOUS
 10
5.470463
 20
0.535772
  0
VERTEX
  8
FOREGROUND
  6
CONTINUOUS
 10
5.498687
 20
0.552104
  0
VERTEX
  8
FOREGROUND
  6
CONTINUOUS
 10
5.526759
 20
0.568706
  0
VERTEX
  8
FOREGROUND
  6
CONTINUOUS
 10
5.554676
 20
0.585578
  0
VERTEX
  8
FOREGROUND
  6
CONTINUOUS
 10
5.582437
 20
0.602720
  0
VERTEX
  8
FOREGROUND
  6
CONTINUOUS
 10
5.610037
 20
0.620133
  0
VERTEX
  8
FOREGROUND
  6
CONTINUOUS
 10
5.637475
 20
0.637815
  0
VERTEX
  8
FOREGROUND
  6
CONTINUOUS
 10
5.664749
 20
0.655767
  0
VERTEX
  8
FOREGROUND
  6
CONTINUOUS
 10
5.691855
 20
0.673990
  0
VERTEX
  8
FOREGROUND
  6
CONTINUOUS
 10
5.718792
 20
0.692482
  0
VERTEX
  8
FOREGROUND
  6
CONTINUOUS
 10
5.745556
 20
0.711245
  0
VERTEX
  8
FOREGROUND
  6
CONTINUOUS
 10
5.772146
 20
0.730277
  0
VERTEX
  8
FOREGROUND
  6
CONTINUOUS
 10
5.798558
 20
0.749580
  0
VERTEX
  8
FOREGROUND
  6
CONTINUOUS
 10
5.824791
 20
0.769152
  0
VERTEX
  8
FOREGROUND
  6
CONTINUOUS
 10
5.850842
 20
0.788995
  0
VERTEX
  8
FOREGROUND
  6
CONTINUOUS
 10
5.876708
 20
0.809108
  0
VERTEX
  8
FOREGROUND
  6
CONTINUOUS
 10
5.902387
 20
0.829490
  0
VERTEX
  8
FOREGROUND
  6
CONTINUOUS
 10
5.927876
 20
0.850143
  0
VERTEX
  8
FOREGROUND
  6
CONTINUOUS
 10
5.953173
 20
0.871066
  0
VERTEX
  8
FOREGROUND
  6
CONTINUOUS
 10
5.978275
 20
0.892259
  0
VERTEX
  8
FOREGROUND
  6
CONTINUOUS
 10
6.003180
 20
0.913722
  0
VERTEX
  8
FOREGROUND
  6
CONTINUOUS
 10
6.027886
 20
0.935455
  0
VERTEX
  8
FOREGROUND
  6
CONTINUOUS
 10
6.052389
 20
0.957458
  0
VERTEX
  8
FOREGROUND
  6
CONTINUOUS
 10
6.076688
 20
0.979731
  0
VERTEX
  8
FOREGROUND
  6
CONTINUOUS
 10
6.100780
 20
1.002274
  0
VERTEX
  8
FOREGROUND
  6
CONTINUOUS
 10
6.124662
 20
1.025087
  0
VERTEX
  8
FOREGROUND
  6
CONTINUOUS
 10
6.148332
 20
1.048170
  0
VERTEX
  8
FOREGROUND
  6
CONTINUOUS
 10
6.171787
 20
1.071524
  0
VERTEX
  8
FOREGROUND
  6
CONTINUOUS
 10
6.195025
 20
1.095147
  0
VERTEX
  8
FOREGROUND
  6
CONTINUOUS
 10
6.218044
 20
1.119040
  0
VERTEX
  8
FOREGROUND
  6
CONTINUOUS
 10
6.240840
 20
1.143204
  0
VERTEX
  8
FOREGROUND
  6
CONTINUOUS
 10
6.263412
 20
1.167637
  0
VERTEX
  8
FOREGROUND
  6
CONTINUOUS
 10
6.285757
 20
1.192341
  0
VERTEX
  8
FOREGROUND
  6
CONTINUOUS
 10
6.307872
 20
1.217314
  0
VERTEX
  8
FOREGROUND
  6
CONTINUOUS
 10
6.329755
 20
1.242558
  0
VERTEX
  8
FOREGROUND
  6
CONTINUOUS
 10
6.351403
 20
1.268071
  0
VERTEX
  8
FOREGROUND
  6
CONTINUOUS
 10
6.372815
 20
1.293855
  0
VERTEX
  8
FOREGROUND
  6
CONTINUOUS
 10
6.393986
 20
1.319909
  0
VERTEX
  8
FOREGROUND
  6
CONTINUOUS
 10
6.414916
 20
1.346232
  0
VERTEX
  8
FOREGROUND
  6
CONTINUOUS
 10
6.435601
 20
1.372826
  0
VERTEX
  8
FOREGROUND
  6
CONTINUOUS
 10
6.456039
 20
1.399690
  0
VERTEX
  8
FOREGROUND
  6
CONTINUOUS
 10
6.476227
 20
1.426824
  0
VERTEX
  8
FOREGROUND
  6
CONTINUOUS
 10
6.496164
 20
1.454228
  0
VERTEX
  8
FOREGROUND
  6
CONTINUOUS
 10
6.515846
 20
1.481902
  0
VERTEX
  8
FOREGROUND
  6
CONTINUOUS
 10
6.535270
 20
1.509846
  0
VERTEX
  8
FOREGROUND
  6
CONTINUOUS
 10
6.554436
 20
1.538060
  0
VERTEX
  8
FOREGROUND
  6
CONTINUOUS
 10
6.573339
 20
1.566545
  0
VERTEX
  8
FOREGROUND
  6
CONTINUOUS
 10
6.591977
 20
1.595299
  0
VERTEX
  8
FOREGROUND
  6
CONTINUOUS
 10
6.610349
 20
1.624323
  0
VERTEX
  8
FOREGROUND
  6
CONTINUOUS
 10
6.628451
 20
1.653618
  0
VERTEX
  8
FOREGROUND
  6
CONTINUOUS
 10
6.646281
 20
1.683182
  0
VERTEX
  8
FOREGROUND
  6
CONTINUOUS
 10
6.663836
 20
1.713017
  0
VERTEX
  8
FOREGROUND
  6
CONTINUOUS
 10
6.681115
 20
1.743121
  0
VERTEX
  8
FOREGROUND
  6
CONTINUOUS
 10
6.698114
 20
1.773496
  0
VERTEX
  8
FOREGROUND
  6
CONTINUOUS
 10
6.714831
 20
1.804140
  0
VERTEX
  8
FOREGROUND
  6
CONTINUOUS
 10
6.731263
 20
1.835055
  0
VERTEX
  8
FOREGROUND
  6
CONTINUOUS
 10
6.747409
 20
1.866240
  0
VERTEX
  8
FOREGROUND
  6
CONTINUOUS
 10
6.763264
 20
1.897695
  0
VERTEX
  8
FOREGROUND
  6
CONTINUOUS
 10
6.778828
 20
1.929419
  0
VERTEX
  8
FOREGROUND
  6
CONTINUOUS
 10
6.794098
 20
1.961414
  0
VERTEX
  8
FOREGROUND
  6
CONTINUOUS
 10
6.809070
 20
1.993679
  0
VERTEX
  8
FOREGROUND
  6
CONTINUOUS
 10
6.823743
 20
2.026214
  0
VERTEX
  8
FOREGROUND
  6
CONTINUOUS
 10
6.838114
 20
2.059020
  0
VERTEX
  8
FOREGROUND
  6
CONTINUOUS
 10
6.852180
 20
2.092095
  0
VERTEX
  8
FOREGROUND
  6
CONTINUOUS
 10
6.865940
 20
2.125440
  0
VERTEX
  8
FOREGROUND
  6
CONTINUOUS
 10
6.879390
 20
2.159055
  0
VERTEX
  8
FOREGROUND
  6
CONTINUOUS
 10
6.892528
 20
2.192941
  0
VERTEX
  8
FOREGROUND
  6
CONTINUOUS
 10
6.905351
 20
2.227096
  0
VERTEX
  8
FOREGROUND
  6
CONTINUOUS
 10
6.917858
 20
2.261521
  0
VERTEX
  8
FOREGROUND
  6
CONTINUOUS
 10
6.930045
 20
2.296217
  0
VERTEX
  8
FOREGROUND
  6
CONTINUOUS
 10
6.941910
 20
2.331183
  0
VERTEX
  8
FOREGROUND
  6
CONTINUOUS
 10
6.953451
 20
2.366418
  0
VERTEX
  8
FOREGROUND
  6
CONTINUOUS
 10
6.964665
 20
2.401924
  0
VERTEX
  8
FOREGROUND
  6
CONTINUOUS
 10
6.975549
 20
2.437700
  0
VERTEX
  8
FOREGROUND
  6
CONTINUOUS
 10
6.986101
 20
2.473746
  0
VERTEX
  8
FOREGROUND
  6
CONTINUOUS
 10
6.996319
 20
2.510062
  0
VERTEX
  8
FOREGROUND
  6
CONTINUOUS
 10
7.006200
 20
2.546648
  0
VERTEX
  8
FOREGROUND
  6
CONTINUOUS
 10
7.015742
 20
2.583504
  0
VERTEX
  8
FOREGROUND
  6
CONTINUOUS
 10
7.024941
 20
2.620630
  0
VERTEX
  8
FOREGROUND
  6
CONTINUOUS
 10
7.033797
 20
2.658026
  0
VERTEX
  8
FOREGROUND
  6
CONTINUOUS
 10
7.042305
 20
2.695692
  0
VERTEX
  8
FOREGROUND
  6
CONTINUOUS
 10
7.050464
 20
2.733628
  0
VERTEX
  8
FOREGROUND
  6
CONTINUOUS
 10
7.058271
 20
2.771835
  0
VERTEX
  8
FOREGROUND
  6
CONTINUOUS
 10
7.065724
 20
2.810311
  0
VERTEX
  8
FOREGROUND
  6
CONTINUOUS
 10
7.072819
 20
2.849058
  0
VERTEX
  8
FOREGROUND
  6
CONTINUOUS
 10
7.079556
 20
2.888074
  0
VERTEX
  8
FOREGROUND
  6
CONTINUOUS
 10
7.085930
 20
2.927361
  0
VERTEX
  8
FOREGROUND
  6
CONTINUOUS
 10
7.091940
 20
2.966918
  0
VERTEX
  8
FOREGROUND
  6
CONTINUOUS
 10
7.097583
 20
3.006744
  0
VERTEX
  8
FOREGROUND
  6
CONTINUOUS
 10
7.102857
 20
3.046841
  0
VERTEX
  8
FOREGROUND
  6
CONTINUOUS
 10
7.107759
 20
3.087208
  0
VERTEX
  8
FOREGROUND
  6
CONTINUOUS
 10
7.112286
 20
3.127845
  0
VERTEX
  8
FOREGROUND
  6
CONTINUOUS
 10
7.116437
 20
3.168752
  0
VERTEX
  8
FOREGROUND
  6
CONTINUOUS
 10
7.120208
 20
3.209929
  0
VERTEX
  8
FOREGROUND
  6
CONTINUOUS
 10
7.123598
 20
3.251377
  0
VERTEX
  8
FOREGROUND
  6
CONTINUOUS
 10
7.126603
 20
3.293094
  0
VERTEX
  8
FOREGROUND
  6
CONTINUOUS
 10
7.129221
 20
3.335081
  0
VERTEX
  8
FOREGROUND
  6
CONTINUOUS
 10
7.131450
 20
3.377339
  0
VERTEX
  8
FOREGROUND
  6
CONTINUOUS
 10
7.133287
 20
3.419866
  0
VERTEX
  8
FOREGROUND
  6
CONTINUOUS
 10
7.134730
 20
3.462664
  0
VERTEX
  8
FOREGROUND
  6
CONTINUOUS
 10
7.135775
 20
3.505731
  0
VERTEX
  8
FOREGROUND
  6
CONTINUOUS
 10
7.136422
 20
3.549069
  0
VERTEX
  8
FOREGROUND
  6
CONTINUOUS
 10
7.136667
 20
3.592677
  0
SEQEND
  8
0
  0
ENDSEC
  0
EOF
