  0
SECTION
  2
HEADER
  9
$ACADVER
  1
AC1006
  9
$EXTMIN
 10
0.000000
 20
0.000000
  9
$EXTMAX
 10
1.091667
 20
1.088333
  9
$LTSCALE
 40
0.166667
  9
$PDMODE
 70
    35
  9
$PDSIZE
 40
0.133333
  0
ENDSEC
  0
SECTION
  2
TABLES
  0
TABLE
  2
LTYPE
 70
     9
  0
LTYPE
  2
CONTINUOUS
 70
    64
  3
Solid line
 72
    65
 73
     0
 40
0.000000
  0
LTYPE
  2
DASHED
 70
    64
  3
__ __ __ __ __ __ __ __ __ __ __ __ __ __ __
 72
    65
 73
     2
 40
0.001250
 49
0.000833
 49
-0.000417
  0
LTYPE
  2
HIDDEN
 70
    64
  3
 _ _ _ _ _ _ _ _ _ _ _ _ _ _ _ _ _ _ _ _ _ _
 72
    65
 73
     2
 40
0.000625
 49
0.000417
 49
-0.000208
  0
LTYPE
  2
CENTER
 70
    64
  3
____ _ ____ _ ____ _ ____ _ ____ _ ____ _ ____
 72
    65
 73
     4
 40
0.003333
 49
0.002083
 49
-0.000417
 49
0.000417
 49
-0.000417
  0
LTYPE
  2
PHANTOM
 70
    64
  3
_____ _ _ _____ _ _ _____ _ _ _____ _ _ ____
 72
    65
 73
     6
 40
0.004167
 49
0.002083
 49
-0.000417
 49
0.000417
 49
-0.000417
 49
0.000417
 49
-0.000417
  0
LTYPE
  2
DOT
 70
    64
  3
...............................................
 72
    65
 73
     2
 40
0.000417
 49
0.000000
 49
-0.000417
  0
LTYPE
  2
DASHDOT
 70
    64
  3
__ . __ . __ . __ . __ . __ . __ . __ . __ . __
 72
    65
 73
     4
 40
0.001667
 49
0.000833
 49
-0.000417
 49
0.000000
 49
-0.000417
  0
LTYPE
  2
BORDER
 70
    64
  3
__ __ . __ __ . __ __ . __ __ . __ __ . __ __
 72
    65
 73
     6
 40
0.002917
 49
0.000833
 49
-0.000417
 49
0.000833
 49
-0.000417
 49
0.000000
 49
-0.000417
  0
LTYPE
  2
DIVIDE
 70
    64
  3
__ . . __ . . __ . . __ . . __ . . __ . . __
 72
    65
 73
     6
 40
0.002083
 49
0.000833
 49
-0.000417
 49
0.000000
 49
-0.000417
 49
0.000000
 49
-0.000417
  0
LTYPE
  2
DOTDOT
 70
    64
  3
 . .  . .  . .  . .  . .  . . 
 72
    65
 73
     5
 40
0.000917
 49
-0.000417
 49
0.000000
 49
-0.000417
 49
0.000000
 49
-0.000417
  0
ENDTAB
  0
TABLE
  2
STYLE
 70
     2
  0
STYLE
 70
     0
  2
SN0
 40
0.000000
 41
0.001667
 50
0.000000
 71
     0
 42
0.000000
  3
ROMAND
  0
STYLE
 70
    68
  2
SV0
 40
0.000000
 41
0.001667
 50
0.000000
 71
     0
 42
0.000000
  3
ROMAND
  0
ENDTAB
  0
TABLE
  2
LAYER
 70
     2
  0
LAYER
  2
FOREGROUND
 70
    64
 62
     7
  6
CONTINUOUS
  0
LAYER
  2
BACKGROUND
 70
    65
 62
    -7
  6
CONTINUOUS
  0
ENDTAB
  0
ENDSEC
  0
SECTION
  2
ENTITIES
  0
POLYLINE
  8
FOREGROUND
  6
CONTINUOUS
 66
     1
 40
0.010000
 41
0.010000
 70
     1
  0
VERTEX
  8
FOREGROUND
  6
CONTINUOUS
 10
1.040000
 20
0.545000
  0
VERTEX
  8
FOREGROUND
  6
CONTINUOUS
 10
1.039961
 20
0.551622
  0
VERTEX
  8
FOREGROUND
  6
CONTINUOUS
 10
1.039856
 20
0.558198
  0
VERTEX
  8
FOREGROUND
  6
CONTINUOUS
 10
1.039684
 20
0.564730
  0
VERTEX
  8
FOREGROUND
  6
CONTINUOUS
 10
1.039446
 20
0.571218
  0
VERTEX
  8
FOREGROUND
  6
CONTINUOUS
 10
1.039143
 20
0.577660
  0
VERTEX
  8
FOREGROUND
  6
CONTINUOUS
 10
1.038775
 20
0.584058
  0
VERTEX
  8
FOREGROUND
  6
CONTINUOUS
 10
1.038342
 20
0.590411
  0
VERTEX
  8
FOREGROUND
  6
CONTINUOUS
 10
1.037845
 20
0.596720
  0
VERTEX
  8
FOREGROUND
  6
CONTINUOUS
 10
1.037285
 20
0.602983
  0
VERTEX
  8
FOREGROUND
  6
CONTINUOUS
 10
1.036661
 20
0.609202
  0
VERTEX
  8
FOREGROUND
  6
CONTINUOUS
 10
1.035975
 20
0.615376
  0
VERTEX
  8
FOREGROUND
  6
CONTINUOUS
 10
1.035227
 20
0.621506
  0
VERTEX
  8
FOREGROUND
  6
CONTINUOUS
 10
1.034416
 20
0.627591
  0
VERTEX
  8
FOREGROUND
  6
CONTINUOUS
 10
1.033545
 20
0.633631
  0
VERTEX
  8
FOREGROUND
  6
CONTINUOUS
 10
1.032612
 20
0.639626
  0
VERTEX
  8
FOREGROUND
  6
CONTINUOUS
 10
1.031619
 20
0.645576
  0
VERTEX
  8
FOREGROUND
  6
CONTINUOUS
 10
1.030567
 20
0.651482
  0
VERTEX
  8
FOREGROUND
  6
CONTINUOUS
 10
1.029454
 20
0.657343
  0
VERTEX
  8
FOREGROUND
  6
CONTINUOUS
 10
1.028283
 20
0.663159
  0
VERTEX
  8
FOREGROUND
  6
CONTINUOUS
 10
1.027052
 20
0.668931
  0
VERTEX
  8
FOREGROUND
  6
CONTINUOUS
 10
1.025764
 20
0.674658
  0
VERTEX
  8
FOREGROUND
  6
CONTINUOUS
 10
1.024418
 20
0.680340
  0
VERTEX
  8
FOREGROUND
  6
CONTINUOUS
 10
1.023015
 20
0.685977
  0
VERTEX
  8
FOREGROUND
  6
CONTINUOUS
 10
1.021555
 20
0.691570
  0
VERTEX
  8
FOREGROUND
  6
CONTINUOUS
 10
1.020038
 20
0.697117
  0
VERTEX
  8
FOREGROUND
  6
CONTINUOUS
 10
1.018466
 20
0.702620
  0
VERTEX
  8
FOREGROUND
  6
CONTINUOUS
 10
1.016838
 20
0.708079
  0
VERTEX
  8
FOREGROUND
  6
CONTINUOUS
 10
1.015155
 20
0.713492
  0
VERTEX
  8
FOREGROUND
  6
CONTINUOUS
 10
1.013418
 20
0.718861
  0
VERTEX
  8
FOREGROUND
  6
CONTINUOUS
 10
1.011626
 20
0.724186
  0
VERTEX
  8
FOREGROUND
  6
CONTINUOUS
 10
1.009781
 20
0.729465
  0
VERTEX
  8
FOREGROUND
  6
CONTINUOUS
 10
1.007883
 20
0.734700
  0
VERTEX
  8
FOREGROUND
  6
CONTINUOUS
 10
1.005931
 20
0.739890
  0
VERTEX
  8
FOREGROUND
  6
CONTINUOUS
 10
1.003928
 20
0.745035
  0
VERTEX
  8
FOREGROUND
  6
CONTINUOUS
 10
1.001873
 20
0.750135
  0
VERTEX
  8
FOREGROUND
  6
CONTINUOUS
 10
0.999766
 20
0.755191
  0
VERTEX
  8
FOREGROUND
  6
CONTINUOUS
 10
0.997609
 20
0.760202
  0
VERTEX
  8
FOREGROUND
  6
CONTINUOUS
 10
0.995401
 20
0.765168
  0
VERTEX
  8
FOREGROUND
  6
CONTINUOUS
 10
0.993143
 20
0.770090
  0
VERTEX
  8
FOREGROUND
  6
CONTINUOUS
 10
0.990835
 20
0.774967
  0
VERTEX
  8
FOREGROUND
  6
CONTINUOUS
 10
0.988478
 20
0.779799
  0
VERTEX
  8
FOREGROUND
  6
CONTINUOUS
 10
0.986073
 20
0.784586
  0
VERTEX
  8
FOREGROUND
  6
CONTINUOUS
 10
0.983619
 20
0.789328
  0
VERTEX
  8
FOREGROUND
  6
CONTINUOUS
 10
0.981118
 20
0.794026
  0
VERTEX
  8
FOREGROUND
  6
CONTINUOUS
 10
0.978569
 20
0.798679
  0
VERTEX
  8
FOREGROUND
  6
CONTINUOUS
 10
0.975974
 20
0.803288
  0
VERTEX
  8
FOREGROUND
  6
CONTINUOUS
 10
0.973332
 20
0.807851
  0
VERTEX
  8
FOREGROUND
  6
CONTINUOUS
 10
0.970644
 20
0.812370
  0
VERTEX
  8
FOREGROUND
  6
CONTINUOUS
 10
0.967910
 20
0.816844
  0
VERTEX
  8
FOREGROUND
  6
CONTINUOUS
 10
0.965132
 20
0.821274
  0
VERTEX
  8
FOREGROUND
  6
CONTINUOUS
 10
0.962309
 20
0.825658
  0
VERTEX
  8
FOREGROUND
  6
CONTINUOUS
 10
0.959441
 20
0.829998
  0
VERTEX
  8
FOREGROUND
  6
CONTINUOUS
 10
0.956531
 20
0.834294
  0
VERTEX
  8
FOREGROUND
  6
CONTINUOUS
 10
0.953576
 20
0.838544
  0
VERTEX
  8
FOREGROUND
  6
CONTINUOUS
 10
0.950580
 20
0.842750
  0
VERTEX
  8
FOREGROUND
  6
CONTINUOUS
 10
0.947540
 20
0.846911
  0
VERTEX
  8
FOREGROUND
  6
CONTINUOUS
 10
0.944459
 20
0.851027
  0
VERTEX
  8
FOREGROUND
  6
CONTINUOUS
 10
0.941337
 20
0.855098
  0
VERTEX
  8
FOREGROUND
  6
CONTINUOUS
 10
0.938173
 20
0.859125
  0
VERTEX
  8
FOREGROUND
  6
CONTINUOUS
 10
0.934969
 20
0.863107
  0
VERTEX
  8
FOREGROUND
  6
CONTINUOUS
 10
0.931725
 20
0.867044
  0
VERTEX
  8
FOREGROUND
  6
CONTINUOUS
 10
0.928441
 20
0.870937
  0
VERTEX
  8
FOREGROUND
  6
CONTINUOUS
 10
0.925118
 20
0.874785
  0
VERTEX
  8
FOREGROUND
  6
CONTINUOUS
 10
0.921757
 20
0.878588
  0
VERTEX
  8
FOREGROUND
  6
CONTINUOUS
 10
0.918357
 20
0.882346
  0
VERTEX
  8
FOREGROUND
  6
CONTINUOUS
 10
0.914919
 20
0.886060
  0
VERTEX
  8
FOREGROUND
  6
CONTINUOUS
 10
0.911444
 20
0.889729
  0
VERTEX
  8
FOREGROUND
  6
CONTINUOUS
 10
0.907933
 20
0.893353
  0
VERTEX
  8
FOREGROUND
  6
CONTINUOUS
 10
0.904384
 20
0.896932
  0
VERTEX
  8
FOREGROUND
  6
CONTINUOUS
 10
0.900800
 20
0.900467
  0
VERTEX
  8
FOREGROUND
  6
CONTINUOUS
 10
0.897180
 20
0.903957
  0
VERTEX
  8
FOREGROUND
  6
CONTINUOUS
 10
0.893525
 20
0.907402
  0
VERTEX
  8
FOREGROUND
  6
CONTINUOUS
 10
0.889836
 20
0.910802
  0
VERTEX
  8
FOREGROUND
  6
CONTINUOUS
 10
0.886112
 20
0.914158
  0
VERTEX
  8
FOREGROUND
  6
CONTINUOUS
 10
0.882354
 20
0.917469
  0
VERTEX
  8
FOREGROUND
  6
CONTINUOUS
 10
0.878563
 20
0.920735
  0
VERTEX
  8
FOREGROUND
  6
CONTINUOUS
 10
0.874740
 20
0.923957
  0
VERTEX
  8
FOREGROUND
  6
CONTINUOUS
 10
0.870884
 20
0.927133
  0
VERTEX
  8
FOREGROUND
  6
CONTINUOUS
 10
0.866996
 20
0.930265
  0
VERTEX
  8
FOREGROUND
  6
CONTINUOUS
 10
0.863077
 20
0.933353
  0
VERTEX
  8
FOREGROUND
  6
CONTINUOUS
 10
0.859126
 20
0.936395
  0
VERTEX
  8
FOREGROUND
  6
CONTINUOUS
 10
0.855145
 20
0.939393
  0
VERTEX
  8
FOREGROUND
  6
CONTINUOUS
 10
0.851134
 20
0.942346
  0
VERTEX
  8
FOREGROUND
  6
CONTINUOUS
 10
0.847094
 20
0.945254
  0
VERTEX
  8
FOREGROUND
  6
CONTINUOUS
 10
0.843024
 20
0.948118
  0
VERTEX
  8
FOREGROUND
  6
CONTINUOUS
 10
0.838925
 20
0.950937
  0
VERTEX
  8
FOREGROUND
  6
CONTINUOUS
 10
0.834798
 20
0.953711
  0
VERTEX
  8
FOREGROUND
  6
CONTINUOUS
 10
0.830643
 20
0.956440
  0
VERTEX
  8
FOREGROUND
  6
CONTINUOUS
 10
0.826461
 20
0.959125
  0
VERTEX
  8
FOREGROUND
  6
CONTINUOUS
 10
0.822252
 20
0.961764
  0
VERTEX
  8
FOREGROUND
  6
CONTINUOUS
 10
0.818017
 20
0.964360
  0
VERTEX
  8
FOREGROUND
  6
CONTINUOUS
 10
0.813755
 20
0.966910
  0
VERTEX
  8
FOREGROUND
  6
CONTINUOUS
 10
0.809468
 20
0.969416
  0
VERTEX
  8
FOREGROUND
  6
CONTINUOUS
 10
0.805155
 20
0.971876
  0
VERTEX
  8
FOREGROUND
  6
CONTINUOUS
 10
0.800818
 20
0.974293
  0
VERTEX
  8
FOREGROUND
  6
CONTINUOUS
 10
0.796457
 20
0.976664
  0
VERTEX
  8
FOREGROUND
  6
CONTINUOUS
 10
0.792072
 20
0.978991
  0
VERTEX
  8
FOREGROUND
  6
CONTINUOUS
 10
0.787664
 20
0.981273
  0
VERTEX
  8
FOREGROUND
  6
CONTINUOUS
 10
0.783233
 20
0.983510
  0
VERTEX
  8
FOREGROUND
  6
CONTINUOUS
 10
0.778779
 20
0.985702
  0
VERTEX
  8
FOREGROUND
  6
CONTINUOUS
 10
0.774304
 20
0.987850
  0
VERTEX
  8
FOREGROUND
  6
CONTINUOUS
 10
0.769807
 20
0.989953
  0
VERTEX
  8
FOREGROUND
  6
CONTINUOUS
 10
0.765288
 20
0.992011
  0
VERTEX
  8
FOREGROUND
  6
CONTINUOUS
 10
0.760750
 20
0.994025
  0
VERTEX
  8
FOREGROUND
  6
CONTINUOUS
 10
0.756191
 20
0.995994
  0
VERTEX
  8
FOREGROUND
  6
CONTINUOUS
 10
0.751612
 20
0.997918
  0
VERTEX
  8
FOREGROUND
  6
CONTINUOUS
 10
0.747015
 20
0.999797
  0
VERTEX
  8
FOREGROUND
  6
CONTINUOUS
 10
0.742398
 20
1.001632
  0
VERTEX
  8
FOREGROUND
  6
CONTINUOUS
 10
0.737763
 20
1.003421
  0
VERTEX
  8
FOREGROUND
  6
CONTINUOUS
 10
0.733110
 20
1.005166
  0
VERTEX
  8
FOREGROUND
  6
CONTINUOUS
 10
0.728440
 20
1.006867
  0
VERTEX
  8
FOREGROUND
  6
CONTINUOUS
 10
0.723753
 20
1.008522
  0
VERTEX
  8
FOREGROUND
  6
CONTINUOUS
 10
0.719049
 20
1.010133
  0
VERTEX
  8
FOREGROUND
  6
CONTINUOUS
 10
0.714329
 20
1.011699
  0
VERTEX
  8
FOREGROUND
  6
CONTINUOUS
 10
0.709594
 20
1.013221
  0
VERTEX
  8
FOREGROUND
  6
CONTINUOUS
 10
0.704843
 20
1.014697
  0
VERTEX
  8
FOREGROUND
  6
CONTINUOUS
 10
0.700078
 20
1.016129
  0
VERTEX
  8
FOREGROUND
  6
CONTINUOUS
 10
0.695298
 20
1.017516
  0
VERTEX
  8
FOREGROUND
  6
CONTINUOUS
 10
0.690505
 20
1.018859
  0
VERTEX
  8
FOREGROUND
  6
CONTINUOUS
 10
0.685698
 20
1.020157
  0
VERTEX
  8
FOREGROUND
  6
CONTINUOUS
 10
0.680879
 20
1.021410
  0
VERTEX
  8
FOREGROUND
  6
CONTINUOUS
 10
0.676047
 20
1.022618
  0
VERTEX
  8
FOREGROUND
  6
CONTINUOUS
 10
0.671202
 20
1.023781
  0
VERTEX
  8
FOREGROUND
  6
CONTINUOUS
 10
0.666347
 20
1.024900
  0
VERTEX
  8
FOREGROUND
  6
CONTINUOUS
 10
0.661480
 20
1.025974
  0
VERTEX
  8
FOREGROUND
  6
CONTINUOUS
 10
0.656603
 20
1.027003
  0
VERTEX
  8
FOREGROUND
  6
CONTINUOUS
 10
0.651715
 20
1.027988
  0
VERTEX
  8
FOREGROUND
  6
CONTINUOUS
 10
0.646818
 20
1.028927
  0
VERTEX
  8
FOREGROUND
  6
CONTINUOUS
 10
0.641911
 20
1.029822
  0
VERTEX
  8
FOREGROUND
  6
CONTINUOUS
 10
0.636996
 20
1.030673
  0
VERTEX
  8
FOREGROUND
  6
CONTINUOUS
 10
0.632072
 20
1.031478
  0
VERTEX
  8
FOREGROUND
  6
CONTINUOUS
 10
0.627140
 20
1.032239
  0
VERTEX
  8
FOREGROUND
  6
CONTINUOUS
 10
0.622201
 20
1.032955
  0
VERTEX
  8
FOREGROUND
  6
CONTINUOUS
 10
0.617255
 20
1.033627
  0
VERTEX
  8
FOREGROUND
  6
CONTINUOUS
 10
0.612302
 20
1.034253
  0
VERTEX
  8
FOREGROUND
  6
CONTINUOUS
 10
0.607343
 20
1.034835
  0
VERTEX
  8
FOREGROUND
  6
CONTINUOUS
 10
0.602379
 20
1.035372
  0
VERTEX
  8
FOREGROUND
  6
CONTINUOUS
 10
0.597409
 20
1.035864
  0
VERTEX
  8
FOREGROUND
  6
CONTINUOUS
 10
0.592434
 20
1.036312
  0
VERTEX
  8
FOREGROUND
  6
CONTINUOUS
 10
0.587456
 20
1.036715
  0
VERTEX
  8
FOREGROUND
  6
CONTINUOUS
 10
0.582473
 20
1.037073
  0
VERTEX
  8
FOREGROUND
  6
CONTINUOUS
 10
0.577487
 20
1.037387
  0
VERTEX
  8
FOREGROUND
  6
CONTINUOUS
 10
0.572498
 20
1.037655
  0
VERTEX
  8
FOREGROUND
  6
CONTINUOUS
 10
0.567506
 20
1.037879
  0
VERTEX
  8
FOREGROUND
  6
CONTINUOUS
 10
0.562513
 20
1.038058
  0
VERTEX
  8
FOREGROUND
  6
CONTINUOUS
 10
0.557518
 20
1.038193
  0
VERTEX
  8
FOREGROUND
  6
CONTINUOUS
 10
0.552521
 20
1.038282
  0
VERTEX
  8
FOREGROUND
  6
CONTINUOUS
 10
0.547524
 20
1.038327
  0
VERTEX
  8
FOREGROUND
  6
CONTINUOUS
 10
0.542527
 20
1.038328
  0
VERTEX
  8
FOREGROUND
  6
CONTINUOUS
 10
0.537530
 20
1.038283
  0
VERTEX
  8
FOREGROUND
  6
CONTINUOUS
 10
0.532534
 20
1.038194
  0
VERTEX
  8
FOREGROUND
  6
CONTINUOUS
 10
0.527539
 20
1.038060
  0
VERTEX
  8
FOREGROUND
  6
CONTINUOUS
 10
0.522545
 20
1.037881
  0
VERTEX
  8
FOREGROUND
  6
CONTINUOUS
 10
0.517554
 20
1.037658
  0
VERTEX
  8
FOREGROUND
  6
CONTINUOUS
 10
0.512565
 20
1.037390
  0
VERTEX
  8
FOREGROUND
  6
CONTINUOUS
 10
0.507579
 20
1.037077
  0
VERTEX
  8
FOREGROUND
  6
CONTINUOUS
 10
0.502596
 20
1.036719
  0
VERTEX
  8
FOREGROUND
  6
CONTINUOUS
 10
0.497617
 20
1.036316
  0
VERTEX
  8
FOREGROUND
  6
CONTINUOUS
 10
0.492643
 20
1.035869
  0
VERTEX
  8
FOREGROUND
  6
CONTINUOUS
 10
0.487673
 20
1.035377
  0
VERTEX
  8
FOREGROUND
  6
CONTINUOUS
 10
0.482708
 20
1.034841
  0
VERTEX
  8
FOREGROUND
  6
CONTINUOUS
 10
0.477749
 20
1.034259
  0
VERTEX
  8
FOREGROUND
  6
CONTINUOUS
 10
0.472796
 20
1.033633
  0
VERTEX
  8
FOREGROUND
  6
CONTINUOUS
 10
0.467850
 20
1.032962
  0
VERTEX
  8
FOREGROUND
  6
CONTINUOUS
 10
0.462911
 20
1.032247
  0
VERTEX
  8
FOREGROUND
  6
CONTINUOUS
 10
0.457979
 20
1.031486
  0
VERTEX
  8
FOREGROUND
  6
CONTINUOUS
 10
0.453055
 20
1.030681
  0
VERTEX
  8
FOREGROUND
  6
CONTINUOUS
 10
0.448140
 20
1.029831
  0
VERTEX
  8
FOREGROUND
  6
CONTINUOUS
 10
0.443233
 20
1.028937
  0
VERTEX
  8
FOREGROUND
  6
CONTINUOUS
 10
0.438336
 20
1.027998
  0
VERTEX
  8
FOREGROUND
  6
CONTINUOUS
 10
0.433448
 20
1.027013
  0
VERTEX
  8
FOREGROUND
  6
CONTINUOUS
 10
0.428570
 20
1.025985
  0
VERTEX
  8
FOREGROUND
  6
CONTINUOUS
 10
0.423704
 20
1.024911
  0
VERTEX
  8
FOREGROUND
  6
CONTINUOUS
 10
0.418848
 20
1.023793
  0
VERTEX
  8
FOREGROUND
  6
CONTINUOUS
 10
0.414004
 20
1.022630
  0
VERTEX
  8
FOREGROUND
  6
CONTINUOUS
 10
0.409171
 20
1.021422
  0
VERTEX
  8
FOREGROUND
  6
CONTINUOUS
 10
0.404352
 20
1.020170
  0
VERTEX
  8
FOREGROUND
  6
CONTINUOUS
 10
0.399545
 20
1.018872
  0
VERTEX
  8
FOREGROUND
  6
CONTINUOUS
 10
0.394751
 20
1.017530
  0
VERTEX
  8
FOREGROUND
  6
CONTINUOUS
 10
0.389971
 20
1.016144
  0
VERTEX
  8
FOREGROUND
  6
CONTINUOUS
 10
0.385206
 20
1.014712
  0
VERTEX
  8
FOREGROUND
  6
CONTINUOUS
 10
0.380455
 20
1.013236
  0
VERTEX
  8
FOREGROUND
  6
CONTINUOUS
 10
0.375720
 20
1.011715
  0
VERTEX
  8
FOREGROUND
  6
CONTINUOUS
 10
0.371000
 20
1.010149
  0
VERTEX
  8
FOREGROUND
  6
CONTINUOUS
 10
0.366296
 20
1.008539
  0
VERTEX
  8
FOREGROUND
  6
CONTINUOUS
 10
0.361608
 20
1.006884
  0
VERTEX
  8
FOREGROUND
  6
CONTINUOUS
 10
0.356938
 20
1.005184
  0
VERTEX
  8
FOREGROUND
  6
CONTINUOUS
 10
0.352285
 20
1.003439
  0
VERTEX
  8
FOREGROUND
  6
CONTINUOUS
 10
0.347650
 20
1.001650
  0
VERTEX
  8
FOREGROUND
  6
CONTINUOUS
 10
0.343033
 20
0.999816
  0
VERTEX
  8
FOREGROUND
  6
CONTINUOUS
 10
0.338435
 20
0.997937
  0
VERTEX
  8
FOREGROUND
  6
CONTINUOUS
 10
0.333856
 20
0.996013
  0
VERTEX
  8
FOREGROUND
  6
CONTINUOUS
 10
0.329297
 20
0.994045
  0
VERTEX
  8
FOREGROUND
  6
CONTINUOUS
 10
0.324758
 20
0.992032
  0
VERTEX
  8
FOREGROUND
  6
CONTINUOUS
 10
0.320240
 20
0.989974
  0
VERTEX
  8
FOREGROUND
  6
CONTINUOUS
 10
0.315743
 20
0.987871
  0
VERTEX
  8
FOREGROUND
  6
CONTINUOUS
 10
0.311267
 20
0.985724
  0
VERTEX
  8
FOREGROUND
  6
CONTINUOUS
 10
0.306813
 20
0.983532
  0
VERTEX
  8
FOREGROUND
  6
CONTINUOUS
 10
0.302382
 20
0.981295
  0
VERTEX
  8
FOREGROUND
  6
CONTINUOUS
 10
0.297973
 20
0.979014
  0
VERTEX
  8
FOREGROUND
  6
CONTINUOUS
 10
0.293588
 20
0.976687
  0
VERTEX
  8
FOREGROUND
  6
CONTINUOUS
 10
0.289227
 20
0.974316
  0
VERTEX
  8
FOREGROUND
  6
CONTINUOUS
 10
0.284889
 20
0.971900
  0
VERTEX
  8
FOREGROUND
  6
CONTINUOUS
 10
0.280577
 20
0.969440
  0
VERTEX
  8
FOREGROUND
  6
CONTINUOUS
 10
0.276289
 20
0.966935
  0
VERTEX
  8
FOREGROUND
  6
CONTINUOUS
 10
0.272027
 20
0.964385
  0
VERTEX
  8
FOREGROUND
  6
CONTINUOUS
 10
0.267792
 20
0.961790
  0
VERTEX
  8
FOREGROUND
  6
CONTINUOUS
 10
0.263582
 20
0.959151
  0
VERTEX
  8
FOREGROUND
  6
CONTINUOUS
 10
0.259400
 20
0.956466
  0
VERTEX
  8
FOREGROUND
  6
CONTINUOUS
 10
0.255245
 20
0.953737
  0
VERTEX
  8
FOREGROUND
  6
CONTINUOUS
 10
0.251117
 20
0.950964
  0
VERTEX
  8
FOREGROUND
  6
CONTINUOUS
 10
0.247019
 20
0.948145
  0
VERTEX
  8
FOREGROUND
  6
CONTINUOUS
 10
0.242948
 20
0.945282
  0
VERTEX
  8
FOREGROUND
  6
CONTINUOUS
 10
0.238907
 20
0.942374
  0
VERTEX
  8
FOREGROUND
  6
CONTINUOUS
 10
0.234896
 20
0.939421
  0
VERTEX
  8
FOREGROUND
  6
CONTINUOUS
 10
0.230915
 20
0.936424
  0
VERTEX
  8
FOREGROUND
  6
CONTINUOUS
 10
0.226964
 20
0.933382
  0
VERTEX
  8
FOREGROUND
  6
CONTINUOUS
 10
0.223044
 20
0.930295
  0
VERTEX
  8
FOREGROUND
  6
CONTINUOUS
 10
0.219156
 20
0.927163
  0
VERTEX
  8
FOREGROUND
  6
CONTINUOUS
 10
0.215300
 20
0.923987
  0
VERTEX
  8
FOREGROUND
  6
CONTINUOUS
 10
0.211476
 20
0.920766
  0
VERTEX
  8
FOREGROUND
  6
CONTINUOUS
 10
0.207685
 20
0.917500
  0
VERTEX
  8
FOREGROUND
  6
CONTINUOUS
 10
0.203927
 20
0.914189
  0
VERTEX
  8
FOREGROUND
  6
CONTINUOUS
 10
0.200203
 20
0.910834
  0
VERTEX
  8
FOREGROUND
  6
CONTINUOUS
 10
0.196513
 20
0.907434
  0
VERTEX
  8
FOREGROUND
  6
CONTINUOUS
 10
0.192858
 20
0.903989
  0
VERTEX
  8
FOREGROUND
  6
CONTINUOUS
 10
0.189237
 20
0.900500
  0
VERTEX
  8
FOREGROUND
  6
CONTINUOUS
 10
0.185653
 20
0.896965
  0
VERTEX
  8
FOREGROUND
  6
CONTINUOUS
 10
0.182104
 20
0.893386
  0
VERTEX
  8
FOREGROUND
  6
CONTINUOUS
 10
0.178592
 20
0.889763
  0
VERTEX
  8
FOREGROUND
  6
CONTINUOUS
 10
0.175116
 20
0.886094
  0
VERTEX
  8
FOREGROUND
  6
CONTINUOUS
 10
0.171678
 20
0.882381
  0
VERTEX
  8
FOREGROUND
  6
CONTINUOUS
 10
0.168278
 20
0.878623
  0
VERTEX
  8
FOREGROUND
  6
CONTINUOUS
 10
0.164916
 20
0.874820
  0
VERTEX
  8
FOREGROUND
  6
CONTINUOUS
 10
0.161593
 20
0.870972
  0
VERTEX
  8
FOREGROUND
  6
CONTINUOUS
 10
0.158309
 20
0.867080
  0
VERTEX
  8
FOREGROUND
  6
CONTINUOUS
 10
0.155064
 20
0.863143
  0
VERTEX
  8
FOREGROUND
  6
CONTINUOUS
 10
0.151860
 20
0.859161
  0
VERTEX
  8
FOREGROUND
  6
CONTINUOUS
 10
0.148696
 20
0.855135
  0
VERTEX
  8
FOREGROUND
  6
CONTINUOUS
 10
0.145573
 20
0.851064
  0
VERTEX
  8
FOREGROUND
  6
CONTINUOUS
 10
0.142491
 20
0.846948
  0
VERTEX
  8
FOREGROUND
  6
CONTINUOUS
 10
0.139452
 20
0.842787
  0
VERTEX
  8
FOREGROUND
  6
CONTINUOUS
 10
0.136454
 20
0.838582
  0
VERTEX
  8
FOREGROUND
  6
CONTINUOUS
 10
0.133500
 20
0.834332
  0
VERTEX
  8
FOREGROUND
  6
CONTINUOUS
 10
0.130588
 20
0.830037
  0
VERTEX
  8
FOREGROUND
  6
CONTINUOUS
 10
0.127721
 20
0.825697
  0
VERTEX
  8
FOREGROUND
  6
CONTINUOUS
 10
0.124897
 20
0.821313
  0
VERTEX
  8
FOREGROUND
  6
CONTINUOUS
 10
0.122118
 20
0.816883
  0
VERTEX
  8
FOREGROUND
  6
CONTINUOUS
 10
0.119384
 20
0.812410
  0
VERTEX
  8
FOREGROUND
  6
CONTINUOUS
 10
0.116696
 20
0.807891
  0
VERTEX
  8
FOREGROUND
  6
CONTINUOUS
 10
0.114054
 20
0.803328
  0
VERTEX
  8
FOREGROUND
  6
CONTINUOUS
 10
0.111458
 20
0.798719
  0
VERTEX
  8
FOREGROUND
  6
CONTINUOUS
 10
0.108908
 20
0.794067
  0
VERTEX
  8
FOREGROUND
  6
CONTINUOUS
 10
0.106406
 20
0.789369
  0
VERTEX
  8
FOREGROUND
  6
CONTINUOUS
 10
0.103952
 20
0.784627
  0
VERTEX
  8
FOREGROUND
  6
CONTINUOUS
 10
0.101546
 20
0.779840
  0
VERTEX
  8
FOREGROUND
  6
CONTINUOUS
 10
0.099189
 20
0.775008
  0
VERTEX
  8
FOREGROUND
  6
CONTINUOUS
 10
0.096881
 20
0.770131
  0
VERTEX
  8
FOREGROUND
  6
CONTINUOUS
 10
0.094622
 20
0.765210
  0
VERTEX
  8
FOREGROUND
  6
CONTINUOUS
 10
0.092414
 20
0.760244
  0
VERTEX
  8
FOREGROUND
  6
CONTINUOUS
 10
0.090256
 20
0.755233
  0
VERTEX
  8
FOREGROUND
  6
CONTINUOUS
 10
0.088149
 20
0.750177
  0
VERTEX
  8
FOREGROUND
  6
CONTINUOUS
 10
0.086093
 20
0.745077
  0
VERTEX
  8
FOREGROUND
  6
CONTINUOUS
 10
0.084089
 20
0.739932
  0
VERTEX
  8
FOREGROUND
  6
CONTINUOUS
 10
0.082137
 20
0.734742
  0
VERTEX
  8
FOREGROUND
  6
CONTINUOUS
 10
0.080238
 20
0.729508
  0
VERTEX
  8
FOREGROUND
  6
CONTINUOUS
 10
0.078393
 20
0.724229
  0
VERTEX
  8
FOREGROUND
  6
CONTINUOUS
 10
0.076601
 20
0.718905
  0
VERTEX
  8
FOREGROUND
  6
CONTINUOUS
 10
0.074863
 20
0.713536
  0
VERTEX
  8
FOREGROUND
  6
CONTINUOUS
 10
0.073179
 20
0.708122
  0
VERTEX
  8
FOREGROUND
  6
CONTINUOUS
 10
0.071551
 20
0.702664
  0
VERTEX
  8
FOREGROUND
  6
CONTINUOUS
 10
0.069978
 20
0.697161
  0
VERTEX
  8
FOREGROUND
  6
CONTINUOUS
 10
0.068461
 20
0.691614
  0
VERTEX
  8
FOREGROUND
  6
CONTINUOUS
 10
0.067000
 20
0.686021
  0
VERTEX
  8
FOREGROUND
  6
CONTINUOUS
 10
0.065596
 20
0.680384
  0
VERTEX
  8
FOREGROUND
  6
CONTINUOUS
 10
0.064249
 20
0.674702
  0
VERTEX
  8
FOREGROUND
  6
CONTINUOUS
 10
0.062961
 20
0.668975
  0
VERTEX
  8
FOREGROUND
  6
CONTINUOUS
 10
0.061730
 20
0.663204
  0
VERTEX
  8
FOREGROUND
  6
CONTINUOUS
 10
0.060558
 20
0.657388
  0
VERTEX
  8
FOREGROUND
  6
CONTINUOUS
 10
0.059445
 20
0.651527
  0
VERTEX
  8
FOREGROUND
  6
CONTINUOUS
 10
0.058391
 20
0.645621
  0
VERTEX
  8
FOREGROUND
  6
CONTINUOUS
 10
0.057398
 20
0.639671
  0
VERTEX
  8
FOREGROUND
  6
CONTINUOUS
 10
0.056464
 20
0.633676
  0
VERTEX
  8
FOREGROUND
  6
CONTINUOUS
 10
0.055592
 20
0.627636
  0
VERTEX
  8
FOREGROUND
  6
CONTINUOUS
 10
0.054781
 20
0.621551
  0
VERTEX
  8
FOREGROUND
  6
CONTINUOUS
 10
0.054032
 20
0.615422
  0
VERTEX
  8
FOREGROUND
  6
CONTINUOUS
 10
0.053345
 20
0.609248
  0
VERTEX
  8
FOREGROUND
  6
CONTINUOUS
 10
0.052721
 20
0.603029
  0
VERTEX
  8
FOREGROUND
  6
CONTINUOUS
 10
0.052160
 20
0.596765
  0
VERTEX
  8
FOREGROUND
  6
CONTINUOUS
 10
0.051663
 20
0.590457
  0
VERTEX
  8
FOREGROUND
  6
CONTINUOUS
 10
0.051230
 20
0.584104
  0
VERTEX
  8
FOREGROUND
  6
CONTINUOUS
 10
0.050861
 20
0.577706
  0
VERTEX
  8
FOREGROUND
  6
CONTINUOUS
 10
0.050557
 20
0.571263
  0
VERTEX
  8
FOREGROUND
  6
CONTINUOUS
 10
0.050318
 20
0.564776
  0
VERTEX
  8
FOREGROUND
  6
CONTINUOUS
 10
0.050146
 20
0.558244
  0
VERTEX
  8
FOREGROUND
  6
CONTINUOUS
 10
0.050040
 20
0.551667
  0
VERTEX
  8
FOREGROUND
  6
CONTINUOUS
 10
0.050000
 20
0.545046
  0
VERTEX
  8
FOREGROUND
  6
CONTINUOUS
 10
0.050000
 20
0.545046
  0
VERTEX
  8
FOREGROUND
  6
CONTINUOUS
 10
0.050038
 20
0.538424
  0
VERTEX
  8
FOREGROUND
  6
CONTINUOUS
 10
0.050143
 20
0.531847
  0
VERTEX
  8
FOREGROUND
  6
CONTINUOUS
 10
0.050314
 20
0.525315
  0
VERTEX
  8
FOREGROUND
  6
CONTINUOUS
 10
0.050552
 20
0.518828
  0
VERTEX
  8
FOREGROUND
  6
CONTINUOUS
 10
0.050854
 20
0.512385
  0
VERTEX
  8
FOREGROUND
  6
CONTINUOUS
 10
0.051222
 20
0.505987
  0
VERTEX
  8
FOREGROUND
  6
CONTINUOUS
 10
0.051654
 20
0.499634
  0
VERTEX
  8
FOREGROUND
  6
CONTINUOUS
 10
0.052150
 20
0.493326
  0
VERTEX
  8
FOREGROUND
  6
CONTINUOUS
 10
0.052710
 20
0.487062
  0
VERTEX
  8
FOREGROUND
  6
CONTINUOUS
 10
0.053333
 20
0.480843
  0
VERTEX
  8
FOREGROUND
  6
CONTINUOUS
 10
0.054018
 20
0.474669
  0
VERTEX
  8
FOREGROUND
  6
CONTINUOUS
 10
0.054766
 20
0.468539
  0
VERTEX
  8
FOREGROUND
  6
CONTINUOUS
 10
0.055576
 20
0.462455
  0
VERTEX
  8
FOREGROUND
  6
CONTINUOUS
 10
0.056447
 20
0.456415
  0
VERTEX
  8
FOREGROUND
  6
CONTINUOUS
 10
0.057379
 20
0.450419
  0
VERTEX
  8
FOREGROUND
  6
CONTINUOUS
 10
0.058371
 20
0.444469
  0
VERTEX
  8
FOREGROUND
  6
CONTINUOUS
 10
0.059424
 20
0.438563
  0
VERTEX
  8
FOREGROUND
  6
CONTINUOUS
 10
0.060535
 20
0.432702
  0
VERTEX
  8
FOREGROUND
  6
CONTINUOUS
 10
0.061706
 20
0.426885
  0
VERTEX
  8
FOREGROUND
  6
CONTINUOUS
 10
0.062936
 20
0.421114
  0
VERTEX
  8
FOREGROUND
  6
CONTINUOUS
 10
0.064224
 20
0.415387
  0
VERTEX
  8
FOREGROUND
  6
CONTINUOUS
 10
0.065569
 20
0.409705
  0
VERTEX
  8
FOREGROUND
  6
CONTINUOUS
 10
0.066972
 20
0.404067
  0
VERTEX
  8
FOREGROUND
  6
CONTINUOUS
 10
0.068432
 20
0.398474
  0
VERTEX
  8
FOREGROUND
  6
CONTINUOUS
 10
0.069948
 20
0.392926
  0
VERTEX
  8
FOREGROUND
  6
CONTINUOUS
 10
0.071520
 20
0.387423
  0
VERTEX
  8
FOREGROUND
  6
CONTINUOUS
 10
0.073147
 20
0.381965
  0
VERTEX
  8
FOREGROUND
  6
CONTINUOUS
 10
0.074829
 20
0.376551
  0
VERTEX
  8
FOREGROUND
  6
CONTINUOUS
 10
0.076566
 20
0.371182
  0
VERTEX
  8
FOREGROUND
  6
CONTINUOUS
 10
0.078357
 20
0.365858
  0
VERTEX
  8
FOREGROUND
  6
CONTINUOUS
 10
0.080202
 20
0.360578
  0
VERTEX
  8
FOREGROUND
  6
CONTINUOUS
 10
0.082100
 20
0.355343
  0
VERTEX
  8
FOREGROUND
  6
CONTINUOUS
 10
0.084050
 20
0.350153
  0
VERTEX
  8
FOREGROUND
  6
CONTINUOUS
 10
0.086053
 20
0.345008
  0
VERTEX
  8
FOREGROUND
  6
CONTINUOUS
 10
0.088108
 20
0.339907
  0
VERTEX
  8
FOREGROUND
  6
CONTINUOUS
 10
0.090214
 20
0.334851
  0
VERTEX
  8
FOREGROUND
  6
CONTINUOUS
 10
0.092371
 20
0.329840
  0
VERTEX
  8
FOREGROUND
  6
CONTINUOUS
 10
0.094579
 20
0.324873
  0
VERTEX
  8
FOREGROUND
  6
CONTINUOUS
 10
0.096836
 20
0.319952
  0
VERTEX
  8
FOREGROUND
  6
CONTINUOUS
 10
0.099144
 20
0.315075
  0
VERTEX
  8
FOREGROUND
  6
CONTINUOUS
 10
0.101500
 20
0.310242
  0
VERTEX
  8
FOREGROUND
  6
CONTINUOUS
 10
0.103905
 20
0.305455
  0
VERTEX
  8
FOREGROUND
  6
CONTINUOUS
 10
0.106358
 20
0.300712
  0
VERTEX
  8
FOREGROUND
  6
CONTINUOUS
 10
0.108859
 20
0.296014
  0
VERTEX
  8
FOREGROUND
  6
CONTINUOUS
 10
0.111407
 20
0.291361
  0
VERTEX
  8
FOREGROUND
  6
CONTINUOUS
 10
0.114002
 20
0.286752
  0
VERTEX
  8
FOREGROUND
  6
CONTINUOUS
 10
0.116644
 20
0.282188
  0
VERTEX
  8
FOREGROUND
  6
CONTINUOUS
 10
0.119332
 20
0.277669
  0
VERTEX
  8
FOREGROUND
  6
CONTINUOUS
 10
0.122065
 20
0.273195
  0
VERTEX
  8
FOREGROUND
  6
CONTINUOUS
 10
0.124843
 20
0.268765
  0
VERTEX
  8
FOREGROUND
  6
CONTINUOUS
 10
0.127665
 20
0.264380
  0
VERTEX
  8
FOREGROUND
  6
CONTINUOUS
 10
0.130532
 20
0.260040
  0
VERTEX
  8
FOREGROUND
  6
CONTINUOUS
 10
0.133443
 20
0.255744
  0
VERTEX
  8
FOREGROUND
  6
CONTINUOUS
 10
0.136396
 20
0.251494
  0
VERTEX
  8
FOREGROUND
  6
CONTINUOUS
 10
0.139393
 20
0.247288
  0
VERTEX
  8
FOREGROUND
  6
CONTINUOUS
 10
0.142432
 20
0.243126
  0
VERTEX
  8
FOREGROUND
  6
CONTINUOUS
 10
0.145512
 20
0.239010
  0
VERTEX
  8
FOREGROUND
  6
CONTINUOUS
 10
0.148634
 20
0.234938
  0
VERTEX
  8
FOREGROUND
  6
CONTINUOUS
 10
0.151798
 20
0.230911
  0
VERTEX
  8
FOREGROUND
  6
CONTINUOUS
 10
0.155001
 20
0.226929
  0
VERTEX
  8
FOREGROUND
  6
CONTINUOUS
 10
0.158245
 20
0.222991
  0
VERTEX
  8
FOREGROUND
  6
CONTINUOUS
 10
0.161528
 20
0.219098
  0
VERTEX
  8
FOREGROUND
  6
CONTINUOUS
 10
0.164851
 20
0.215250
  0
VERTEX
  8
FOREGROUND
  6
CONTINUOUS
 10
0.168212
 20
0.211447
  0
VERTEX
  8
FOREGROUND
  6
CONTINUOUS
 10
0.171612
 20
0.207688
  0
VERTEX
  8
FOREGROUND
  6
CONTINUOUS
 10
0.175049
 20
0.203974
  0
VERTEX
  8
FOREGROUND
  6
CONTINUOUS
 10
0.178524
 20
0.200305
  0
VERTEX
  8
FOREGROUND
  6
CONTINUOUS
 10
0.182035
 20
0.196681
  0
VERTEX
  8
FOREGROUND
  6
CONTINUOUS
 10
0.185583
 20
0.193101
  0
VERTEX
  8
FOREGROUND
  6
CONTINUOUS
 10
0.189167
 20
0.189566
  0
VERTEX
  8
FOREGROUND
  6
CONTINUOUS
 10
0.192787
 20
0.186076
  0
VERTEX
  8
FOREGROUND
  6
CONTINUOUS
 10
0.196441
 20
0.182630
  0
VERTEX
  8
FOREGROUND
  6
CONTINUOUS
 10
0.200130
 20
0.179230
  0
VERTEX
  8
FOREGROUND
  6
CONTINUOUS
 10
0.203854
 20
0.175874
  0
VERTEX
  8
FOREGROUND
  6
CONTINUOUS
 10
0.207611
 20
0.172562
  0
VERTEX
  8
FOREGROUND
  6
CONTINUOUS
 10
0.211402
 20
0.169296
  0
VERTEX
  8
FOREGROUND
  6
CONTINUOUS
 10
0.215225
 20
0.166074
  0
VERTEX
  8
FOREGROUND
  6
CONTINUOUS
 10
0.219081
 20
0.162897
  0
VERTEX
  8
FOREGROUND
  6
CONTINUOUS
 10
0.222968
 20
0.159764
  0
VERTEX
  8
FOREGROUND
  6
CONTINUOUS
 10
0.226887
 20
0.156677
  0
VERTEX
  8
FOREGROUND
  6
CONTINUOUS
 10
0.230837
 20
0.153634
  0
VERTEX
  8
FOREGROUND
  6
CONTINUOUS
 10
0.234818
 20
0.150636
  0
VERTEX
  8
FOREGROUND
  6
CONTINUOUS
 10
0.238829
 20
0.147682
  0
VERTEX
  8
FOREGROUND
  6
CONTINUOUS
 10
0.242869
 20
0.144774
  0
VERTEX
  8
FOREGROUND
  6
CONTINUOUS
 10
0.246939
 20
0.141910
  0
VERTEX
  8
FOREGROUND
  6
CONTINUOUS
 10
0.251037
 20
0.139091
  0
VERTEX
  8
FOREGROUND
  6
CONTINUOUS
 10
0.255164
 20
0.136316
  0
VERTEX
  8
FOREGROUND
  6
CONTINUOUS
 10
0.259318
 20
0.133586
  0
VERTEX
  8
FOREGROUND
  6
CONTINUOUS
 10
0.263500
 20
0.130901
  0
VERTEX
  8
FOREGROUND
  6
CONTINUOUS
 10
0.267709
 20
0.128261
  0
VERTEX
  8
FOREGROUND
  6
CONTINUOUS
 10
0.271944
 20
0.125666
  0
VERTEX
  8
FOREGROUND
  6
CONTINUOUS
 10
0.276206
 20
0.123115
  0
VERTEX
  8
FOREGROUND
  6
CONTINUOUS
 10
0.280493
 20
0.120609
  0
VERTEX
  8
FOREGROUND
  6
CONTINUOUS
 10
0.284805
 20
0.118148
  0
VERTEX
  8
FOREGROUND
  6
CONTINUOUS
 10
0.289142
 20
0.115731
  0
VERTEX
  8
FOREGROUND
  6
CONTINUOUS
 10
0.293503
 20
0.113359
  0
VERTEX
  8
FOREGROUND
  6
CONTINUOUS
 10
0.297887
 20
0.111032
  0
VERTEX
  8
FOREGROUND
  6
CONTINUOUS
 10
0.302295
 20
0.108750
  0
VERTEX
  8
FOREGROUND
  6
CONTINUOUS
 10
0.306726
 20
0.106512
  0
VERTEX
  8
FOREGROUND
  6
CONTINUOUS
 10
0.311180
 20
0.104319
  0
VERTEX
  8
FOREGROUND
  6
CONTINUOUS
 10
0.315655
 20
0.102171
  0
VERTEX
  8
FOREGROUND
  6
CONTINUOUS
 10
0.320152
 20
0.100068
  0
VERTEX
  8
FOREGROUND
  6
CONTINUOUS
 10
0.324670
 20
0.098009
  0
VERTEX
  8
FOREGROUND
  6
CONTINUOUS
 10
0.329208
 20
0.095995
  0
VERTEX
  8
FOREGROUND
  6
CONTINUOUS
 10
0.333767
 20
0.094026
  0
VERTEX
  8
FOREGROUND
  6
CONTINUOUS
 10
0.338346
 20
0.092101
  0
VERTEX
  8
FOREGROUND
  6
CONTINUOUS
 10
0.342943
 20
0.090222
  0
VERTEX
  8
FOREGROUND
  6
CONTINUOUS
 10
0.347560
 20
0.088387
  0
VERTEX
  8
FOREGROUND
  6
CONTINUOUS
 10
0.352194
 20
0.086596
  0
VERTEX
  8
FOREGROUND
  6
CONTINUOUS
 10
0.356847
 20
0.084851
  0
VERTEX
  8
FOREGROUND
  6
CONTINUOUS
 10
0.361517
 20
0.083150
  0
VERTEX
  8
FOREGROUND
  6
CONTINUOUS
 10
0.366204
 20
0.081494
  0
VERTEX
  8
FOREGROUND
  6
CONTINUOUS
 10
0.370908
 20
0.079883
  0
VERTEX
  8
FOREGROUND
  6
CONTINUOUS
 10
0.375627
 20
0.078316
  0
VERTEX
  8
FOREGROUND
  6
CONTINUOUS
 10
0.380363
 20
0.076794
  0
VERTEX
  8
FOREGROUND
  6
CONTINUOUS
 10
0.385113
 20
0.075317
  0
VERTEX
  8
FOREGROUND
  6
CONTINUOUS
 10
0.389878
 20
0.073885
  0
VERTEX
  8
FOREGROUND
  6
CONTINUOUS
 10
0.394658
 20
0.072497
  0
VERTEX
  8
FOREGROUND
  6
CONTINUOUS
 10
0.399451
 20
0.071155
  0
VERTEX
  8
FOREGROUND
  6
CONTINUOUS
 10
0.404258
 20
0.069856
  0
VERTEX
  8
FOREGROUND
  6
CONTINUOUS
 10
0.409077
 20
0.068603
  0
VERTEX
  8
FOREGROUND
  6
CONTINUOUS
 10
0.413909
 20
0.067394
  0
VERTEX
  8
FOREGROUND
  6
CONTINUOUS
 10
0.418753
 20
0.066230
  0
VERTEX
  8
FOREGROUND
  6
CONTINUOUS
 10
0.423609
 20
0.065111
  0
VERTEX
  8
FOREGROUND
  6
CONTINUOUS
 10
0.428475
 20
0.064037
  0
VERTEX
  8
FOREGROUND
  6
CONTINUOUS
 10
0.433353
 20
0.063007
  0
VERTEX
  8
FOREGROUND
  6
CONTINUOUS
 10
0.438240
 20
0.062022
  0
VERTEX
  8
FOREGROUND
  6
CONTINUOUS
 10
0.443137
 20
0.061082
  0
VERTEX
  8
FOREGROUND
  6
CONTINUOUS
 10
0.448044
 20
0.060186
  0
VERTEX
  8
FOREGROUND
  6
CONTINUOUS
 10
0.452959
 20
0.059336
  0
VERTEX
  8
FOREGROUND
  6
CONTINUOUS
 10
0.457883
 20
0.058530
  0
VERTEX
  8
FOREGROUND
  6
CONTINUOUS
 10
0.462814
 20
0.057768
  0
VERTEX
  8
FOREGROUND
  6
CONTINUOUS
 10
0.467754
 20
0.057052
  0
VERTEX
  8
FOREGROUND
  6
CONTINUOUS
 10
0.472700
 20
0.056380
  0
VERTEX
  8
FOREGROUND
  6
CONTINUOUS
 10
0.477652
 20
0.055753
  0
VERTEX
  8
FOREGROUND
  6
CONTINUOUS
 10
0.482611
 20
0.055171
  0
VERTEX
  8
FOREGROUND
  6
CONTINUOUS
 10
0.487576
 20
0.054633
  0
VERTEX
  8
FOREGROUND
  6
CONTINUOUS
 10
0.492545
 20
0.054140
  0
VERTEX
  8
FOREGROUND
  6
CONTINUOUS
 10
0.497520
 20
0.053692
  0
VERTEX
  8
FOREGROUND
  6
CONTINUOUS
 10
0.502499
 20
0.053289
  0
VERTEX
  8
FOREGROUND
  6
CONTINUOUS
 10
0.507481
 20
0.052930
  0
VERTEX
  8
FOREGROUND
  6
CONTINUOUS
 10
0.512467
 20
0.052616
  0
VERTEX
  8
FOREGROUND
  6
CONTINUOUS
 10
0.517456
 20
0.052347
  0
VERTEX
  8
FOREGROUND
  6
CONTINUOUS
 10
0.522448
 20
0.052123
  0
VERTEX
  8
FOREGROUND
  6
CONTINUOUS
 10
0.527441
 20
0.051943
  0
VERTEX
  8
FOREGROUND
  6
CONTINUOUS
 10
0.532436
 20
0.051808
  0
VERTEX
  8
FOREGROUND
  6
CONTINUOUS
 10
0.537433
 20
0.051718
  0
VERTEX
  8
FOREGROUND
  6
CONTINUOUS
 10
0.542430
 20
0.051673
  0
VERTEX
  8
FOREGROUND
  6
CONTINUOUS
 10
0.547427
 20
0.051672
  0
VERTEX
  8
FOREGROUND
  6
CONTINUOUS
 10
0.552424
 20
0.051716
  0
VERTEX
  8
FOREGROUND
  6
CONTINUOUS
 10
0.557420
 20
0.051805
  0
VERTEX
  8
FOREGROUND
  6
CONTINUOUS
 10
0.562415
 20
0.051938
  0
VERTEX
  8
FOREGROUND
  6
CONTINUOUS
 10
0.567409
 20
0.052117
  0
VERTEX
  8
FOREGROUND
  6
CONTINUOUS
 10
0.572400
 20
0.052340
  0
VERTEX
  8
FOREGROUND
  6
CONTINUOUS
 10
0.577389
 20
0.052607
  0
VERTEX
  8
FOREGROUND
  6
CONTINUOUS
 10
0.582376
 20
0.052920
  0
VERTEX
  8
FOREGROUND
  6
CONTINUOUS
 10
0.587358
 20
0.053277
  0
VERTEX
  8
FOREGROUND
  6
CONTINUOUS
 10
0.592337
 20
0.053679
  0
VERTEX
  8
FOREGROUND
  6
CONTINUOUS
 10
0.597312
 20
0.054126
  0
VERTEX
  8
FOREGROUND
  6
CONTINUOUS
 10
0.602282
 20
0.054617
  0
VERTEX
  8
FOREGROUND
  6
CONTINUOUS
 10
0.607246
 20
0.055154
  0
VERTEX
  8
FOREGROUND
  6
CONTINUOUS
 10
0.612205
 20
0.055734
  0
VERTEX
  8
FOREGROUND
  6
CONTINUOUS
 10
0.617158
 20
0.056360
  0
VERTEX
  8
FOREGROUND
  6
CONTINUOUS
 10
0.622105
 20
0.057031
  0
VERTEX
  8
FOREGROUND
  6
CONTINUOUS
 10
0.627044
 20
0.057746
  0
VERTEX
  8
FOREGROUND
  6
CONTINUOUS
 10
0.631976
 20
0.058506
  0
VERTEX
  8
FOREGROUND
  6
CONTINUOUS
 10
0.636900
 20
0.059310
  0
VERTEX
  8
FOREGROUND
  6
CONTINUOUS
 10
0.641815
 20
0.060160
  0
VERTEX
  8
FOREGROUND
  6
CONTINUOUS
 10
0.646722
 20
0.061054
  0
VERTEX
  8
FOREGROUND
  6
CONTINUOUS
 10
0.651619
 20
0.061993
  0
VERTEX
  8
FOREGROUND
  6
CONTINUOUS
 10
0.656507
 20
0.062976
  0
VERTEX
  8
FOREGROUND
  6
CONTINUOUS
 10
0.661385
 20
0.064005
  0
VERTEX
  8
FOREGROUND
  6
CONTINUOUS
 10
0.666252
 20
0.065078
  0
VERTEX
  8
FOREGROUND
  6
CONTINUOUS
 10
0.671108
 20
0.066196
  0
VERTEX
  8
FOREGROUND
  6
CONTINUOUS
 10
0.675952
 20
0.067358
  0
VERTEX
  8
FOREGROUND
  6
CONTINUOUS
 10
0.680784
 20
0.068565
  0
VERTEX
  8
FOREGROUND
  6
CONTINUOUS
 10
0.685604
 20
0.069817
  0
VERTEX
  8
FOREGROUND
  6
CONTINUOUS
 10
0.690411
 20
0.071114
  0
VERTEX
  8
FOREGROUND
  6
CONTINUOUS
 10
0.695205
 20
0.072456
  0
VERTEX
  8
FOREGROUND
  6
CONTINUOUS
 10
0.699985
 20
0.073842
  0
VERTEX
  8
FOREGROUND
  6
CONTINUOUS
 10
0.704750
 20
0.075273
  0
VERTEX
  8
FOREGROUND
  6
CONTINUOUS
 10
0.709501
 20
0.076749
  0
VERTEX
  8
FOREGROUND
  6
CONTINUOUS
 10
0.714237
 20
0.078269
  0
VERTEX
  8
FOREGROUND
  6
CONTINUOUS
 10
0.718957
 20
0.079835
  0
VERTEX
  8
FOREGROUND
  6
CONTINUOUS
 10
0.723661
 20
0.081445
  0
VERTEX
  8
FOREGROUND
  6
CONTINUOUS
 10
0.728349
 20
0.083099
  0
VERTEX
  8
FOREGROUND
  6
CONTINUOUS
 10
0.733019
 20
0.084799
  0
VERTEX
  8
FOREGROUND
  6
CONTINUOUS
 10
0.737672
 20
0.086543
  0
VERTEX
  8
FOREGROUND
  6
CONTINUOUS
 10
0.742308
 20
0.088332
  0
VERTEX
  8
FOREGROUND
  6
CONTINUOUS
 10
0.746925
 20
0.090166
  0
VERTEX
  8
FOREGROUND
  6
CONTINUOUS
 10
0.751523
 20
0.092044
  0
VERTEX
  8
FOREGROUND
  6
CONTINUOUS
 10
0.756102
 20
0.093967
  0
VERTEX
  8
FOREGROUND
  6
CONTINUOUS
 10
0.760661
 20
0.095935
  0
VERTEX
  8
FOREGROUND
  6
CONTINUOUS
 10
0.765200
 20
0.097948
  0
VERTEX
  8
FOREGROUND
  6
CONTINUOUS
 10
0.769719
 20
0.100005
  0
VERTEX
  8
FOREGROUND
  6
CONTINUOUS
 10
0.774216
 20
0.102108
  0
VERTEX
  8
FOREGROUND
  6
CONTINUOUS
 10
0.778692
 20
0.104254
  0
VERTEX
  8
FOREGROUND
  6
CONTINUOUS
 10
0.783146
 20
0.106446
  0
VERTEX
  8
FOREGROUND
  6
CONTINUOUS
 10
0.787578
 20
0.108682
  0
VERTEX
  8
FOREGROUND
  6
CONTINUOUS
 10
0.791986
 20
0.110964
  0
VERTEX
  8
FOREGROUND
  6
CONTINUOUS
 10
0.796372
 20
0.113290
  0
VERTEX
  8
FOREGROUND
  6
CONTINUOUS
 10
0.800733
 20
0.115660
  0
VERTEX
  8
FOREGROUND
  6
CONTINUOUS
 10
0.805071
 20
0.118076
  0
VERTEX
  8
FOREGROUND
  6
CONTINUOUS
 10
0.809384
 20
0.120536
  0
VERTEX
  8
FOREGROUND
  6
CONTINUOUS
 10
0.813671
 20
0.123040
  0
VERTEX
  8
FOREGROUND
  6
CONTINUOUS
 10
0.817934
 20
0.125590
  0
VERTEX
  8
FOREGROUND
  6
CONTINUOUS
 10
0.822170
 20
0.128184
  0
VERTEX
  8
FOREGROUND
  6
CONTINUOUS
 10
0.826379
 20
0.130823
  0
VERTEX
  8
FOREGROUND
  6
CONTINUOUS
 10
0.830562
 20
0.133507
  0
VERTEX
  8
FOREGROUND
  6
CONTINUOUS
 10
0.834717
 20
0.136236
  0
VERTEX
  8
FOREGROUND
  6
CONTINUOUS
 10
0.838845
 20
0.139009
  0
VERTEX
  8
FOREGROUND
  6
CONTINUOUS
 10
0.842944
 20
0.141827
  0
VERTEX
  8
FOREGROUND
  6
CONTINUOUS
 10
0.847014
 20
0.144690
  0
VERTEX
  8
FOREGROUND
  6
CONTINUOUS
 10
0.851056
 20
0.147598
  0
VERTEX
  8
FOREGROUND
  6
CONTINUOUS
 10
0.855067
 20
0.150550
  0
VERTEX
  8
FOREGROUND
  6
CONTINUOUS
 10
0.859049
 20
0.153547
  0
VERTEX
  8
FOREGROUND
  6
CONTINUOUS
 10
0.863000
 20
0.156589
  0
VERTEX
  8
FOREGROUND
  6
CONTINUOUS
 10
0.866920
 20
0.159675
  0
VERTEX
  8
FOREGROUND
  6
CONTINUOUS
 10
0.870808
 20
0.162807
  0
VERTEX
  8
FOREGROUND
  6
CONTINUOUS
 10
0.874665
 20
0.165983
  0
VERTEX
  8
FOREGROUND
  6
CONTINUOUS
 10
0.878489
 20
0.169203
  0
VERTEX
  8
FOREGROUND
  6
CONTINUOUS
 10
0.882281
 20
0.172469
  0
VERTEX
  8
FOREGROUND
  6
CONTINUOUS
 10
0.886039
 20
0.175779
  0
VERTEX
  8
FOREGROUND
  6
CONTINUOUS
 10
0.889763
 20
0.179134
  0
VERTEX
  8
FOREGROUND
  6
CONTINUOUS
 10
0.893453
 20
0.182534
  0
VERTEX
  8
FOREGROUND
  6
CONTINUOUS
 10
0.897109
 20
0.185978
  0
VERTEX
  8
FOREGROUND
  6
CONTINUOUS
 10
0.900730
 20
0.189468
  0
VERTEX
  8
FOREGROUND
  6
CONTINUOUS
 10
0.904315
 20
0.193001
  0
VERTEX
  8
FOREGROUND
  6
CONTINUOUS
 10
0.907864
 20
0.196580
  0
VERTEX
  8
FOREGROUND
  6
CONTINUOUS
 10
0.911376
 20
0.200204
  0
VERTEX
  8
FOREGROUND
  6
CONTINUOUS
 10
0.914852
 20
0.203872
  0
VERTEX
  8
FOREGROUND
  6
CONTINUOUS
 10
0.918290
 20
0.207585
  0
VERTEX
  8
FOREGROUND
  6
CONTINUOUS
 10
0.921691
 20
0.211343
  0
VERTEX
  8
FOREGROUND
  6
CONTINUOUS
 10
0.925053
 20
0.215145
  0
VERTEX
  8
FOREGROUND
  6
CONTINUOUS
 10
0.928377
 20
0.218992
  0
VERTEX
  8
FOREGROUND
  6
CONTINUOUS
 10
0.931661
 20
0.222884
  0
VERTEX
  8
FOREGROUND
  6
CONTINUOUS
 10
0.934906
 20
0.226821
  0
VERTEX
  8
FOREGROUND
  6
CONTINUOUS
 10
0.938111
 20
0.230802
  0
VERTEX
  8
FOREGROUND
  6
CONTINUOUS
 10
0.941275
 20
0.234828
  0
VERTEX
  8
FOREGROUND
  6
CONTINUOUS
 10
0.944399
 20
0.238899
  0
VERTEX
  8
FOREGROUND
  6
CONTINUOUS
 10
0.947481
 20
0.243015
  0
VERTEX
  8
FOREGROUND
  6
CONTINUOUS
 10
0.950521
 20
0.247175
  0
VERTEX
  8
FOREGROUND
  6
CONTINUOUS
 10
0.953518
 20
0.251381
  0
VERTEX
  8
FOREGROUND
  6
CONTINUOUS
 10
0.956473
 20
0.255630
  0
VERTEX
  8
FOREGROUND
  6
CONTINUOUS
 10
0.959385
 20
0.259925
  0
VERTEX
  8
FOREGROUND
  6
CONTINUOUS
 10
0.962253
 20
0.264264
  0
VERTEX
  8
FOREGROUND
  6
CONTINUOUS
 10
0.965077
 20
0.268649
  0
VERTEX
  8
FOREGROUND
  6
CONTINUOUS
 10
0.967856
 20
0.273078
  0
VERTEX
  8
FOREGROUND
  6
CONTINUOUS
 10
0.970591
 20
0.277551
  0
VERTEX
  8
FOREGROUND
  6
CONTINUOUS
 10
0.973279
 20
0.282070
  0
VERTEX
  8
FOREGROUND
  6
CONTINUOUS
 10
0.975922
 20
0.286633
  0
VERTEX
  8
FOREGROUND
  6
CONTINUOUS
 10
0.978519
 20
0.291241
  0
VERTEX
  8
FOREGROUND
  6
CONTINUOUS
 10
0.981068
 20
0.295893
  0
VERTEX
  8
FOREGROUND
  6
CONTINUOUS
 10
0.983571
 20
0.300591
  0
VERTEX
  8
FOREGROUND
  6
CONTINUOUS
 10
0.986025
 20
0.305333
  0
VERTEX
  8
FOREGROUND
  6
CONTINUOUS
 10
0.988432
 20
0.310120
  0
VERTEX
  8
FOREGROUND
  6
CONTINUOUS
 10
0.990789
 20
0.314951
  0
VERTEX
  8
FOREGROUND
  6
CONTINUOUS
 10
0.993098
 20
0.319827
  0
VERTEX
  8
FOREGROUND
  6
CONTINUOUS
 10
0.995357
 20
0.324749
  0
VERTEX
  8
FOREGROUND
  6
CONTINUOUS
 10
0.997566
 20
0.329714
  0
VERTEX
  8
FOREGROUND
  6
CONTINUOUS
 10
0.999725
 20
0.334725
  0
VERTEX
  8
FOREGROUND
  6
CONTINUOUS
 10
1.001832
 20
0.339780
  0
VERTEX
  8
FOREGROUND
  6
CONTINUOUS
 10
1.003888
 20
0.344880
  0
VERTEX
  8
FOREGROUND
  6
CONTINUOUS
 10
1.005893
 20
0.350025
  0
VERTEX
  8
FOREGROUND
  6
CONTINUOUS
 10
1.007845
 20
0.355215
  0
VERTEX
  8
FOREGROUND
  6
CONTINUOUS
 10
1.009744
 20
0.360449
  0
VERTEX
  8
FOREGROUND
  6
CONTINUOUS
 10
1.011591
 20
0.365728
  0
VERTEX
  8
FOREGROUND
  6
CONTINUOUS
 10
1.013383
 20
0.371052
  0
VERTEX
  8
FOREGROUND
  6
CONTINUOUS
 10
1.015122
 20
0.376421
  0
VERTEX
  8
FOREGROUND
  6
CONTINUOUS
 10
1.016806
 20
0.381834
  0
VERTEX
  8
FOREGROUND
  6
CONTINUOUS
 10
1.018435
 20
0.387292
  0
VERTEX
  8
FOREGROUND
  6
CONTINUOUS
 10
1.020008
 20
0.392795
  0
VERTEX
  8
FOREGROUND
  6
CONTINUOUS
 10
1.021526
 20
0.398342
  0
VERTEX
  8
FOREGROUND
  6
CONTINUOUS
 10
1.022987
 20
0.403935
  0
VERTEX
  8
FOREGROUND
  6
CONTINUOUS
 10
1.024391
 20
0.409572
  0
VERTEX
  8
FOREGROUND
  6
CONTINUOUS
 10
1.025738
 20
0.415254
  0
VERTEX
  8
FOREGROUND
  6
CONTINUOUS
 10
1.027028
 20
0.420980
  0
VERTEX
  8
FOREGROUND
  6
CONTINUOUS
 10
1.028259
 20
0.426752
  0
VERTEX
  8
FOREGROUND
  6
CONTINUOUS
 10
1.029432
 20
0.432568
  0
VERTEX
  8
FOREGROUND
  6
CONTINUOUS
 10
1.030545
 20
0.438428
  0
VERTEX
  8
FOREGROUND
  6
CONTINUOUS
 10
1.031600
 20
0.444334
  0
VERTEX
  8
FOREGROUND
  6
CONTINUOUS
 10
1.032594
 20
0.450284
  0
VERTEX
  8
FOREGROUND
  6
CONTINUOUS
 10
1.033527
 20
0.456279
  0
VERTEX
  8
FOREGROUND
  6
CONTINUOUS
 10
1.034400
 20
0.462319
  0
VERTEX
  8
FOREGROUND
  6
CONTINUOUS
 10
1.035212
 20
0.468404
  0
VERTEX
  8
FOREGROUND
  6
CONTINUOUS
 10
1.035961
 20
0.474533
  0
VERTEX
  8
FOREGROUND
  6
CONTINUOUS
 10
1.036649
 20
0.480707
  0
VERTEX
  8
FOREGROUND
  6
CONTINUOUS
 10
1.037273
 20
0.486926
  0
VERTEX
  8
FOREGROUND
  6
CONTINUOUS
 10
1.037835
 20
0.493189
  0
VERTEX
  8
FOREGROUND
  6
CONTINUOUS
 10
1.038333
 20
0.499498
  0
VERTEX
  8
FOREGROUND
  6
CONTINUOUS
 10
1.038767
 20
0.505851
  0
VERTEX
  8
FOREGROUND
  6
CONTINUOUS
 10
1.039136
 20
0.512248
  0
VERTEX
  8
FOREGROUND
  6
CONTINUOUS
 10
1.039441
 20
0.518691
  0
VERTEX
  8
FOREGROUND
  6
CONTINUOUS
 10
1.039680
 20
0.525178
  0
VERTEX
  8
FOREGROUND
  6
CONTINUOUS
 10
1.039853
 20
0.531710
  0
VERTEX
  8
FOREGROUND
  6
CONTINUOUS
 10
1.039960
 20
0.538287
  0
VERTEX
  8
FOREGROUND
  6
CONTINUOUS
 10
1.040000
 20
0.544909
  0
SEQEND
  8
0
  0
ENDSEC
  0
EOF
