  0
SECTION
  2
HEADER
  9
$ACADVER
  1
AC1006
  9
$EXTMIN
 10
0.000000
 20
0.000000
  9
$EXTMAX
 10
7.973333
 20
7.975000
  9
$LTSCALE
 40
0.166667
  9
$PDMODE
 70
    35
  9
$PDSIZE
 40
0.133333
  0
ENDSEC
  0
SECTION
  2
TABLES
  0
TABLE
  2
LTYPE
 70
     9
  0
LTYPE
  2
CONTINUOUS
 70
    64
  3
Solid line
 72
    65
 73
     0
 40
0.000000
  0
LTYPE
  2
DASHED
 70
    64
  3
__ __ __ __ __ __ __ __ __ __ __ __ __ __ __
 72
    65
 73
     2
 40
0.001250
 49
0.000833
 49
-0.000417
  0
LTYPE
  2
HIDDEN
 70
    64
  3
 _ _ _ _ _ _ _ _ _ _ _ _ _ _ _ _ _ _ _ _ _ _
 72
    65
 73
     2
 40
0.000625
 49
0.000417
 49
-0.000208
  0
LTYPE
  2
CENTER
 70
    64
  3
____ _ ____ _ ____ _ ____ _ ____ _ ____ _ ____
 72
    65
 73
     4
 40
0.003333
 49
0.002083
 49
-0.000417
 49
0.000417
 49
-0.000417
  0
LTYPE
  2
PHANTOM
 70
    64
  3
_____ _ _ _____ _ _ _____ _ _ _____ _ _ ____
 72
    65
 73
     6
 40
0.004167
 49
0.002083
 49
-0.000417
 49
0.000417
 49
-0.000417
 49
0.000417
 49
-0.000417
  0
LTYPE
  2
DOT
 70
    64
  3
...............................................
 72
    65
 73
     2
 40
0.000417
 49
0.000000
 49
-0.000417
  0
LTYPE
  2
DASHDOT
 70
    64
  3
__ . __ . __ . __ . __ . __ . __ . __ . __ . __
 72
    65
 73
     4
 40
0.001667
 49
0.000833
 49
-0.000417
 49
0.000000
 49
-0.000417
  0
LTYPE
  2
BORDER
 70
    64
  3
__ __ . __ __ . __ __ . __ __ . __ __ . __ __
 72
    65
 73
     6
 40
0.002917
 49
0.000833
 49
-0.000417
 49
0.000833
 49
-0.000417
 49
0.000000
 49
-0.000417
  0
LTYPE
  2
DIVIDE
 70
    64
  3
__ . . __ . . __ . . __ . . __ . . __ . . __
 72
    65
 73
     6
 40
0.002083
 49
0.000833
 49
-0.000417
 49
0.000000
 49
-0.000417
 49
0.000000
 49
-0.000417
  0
LTYPE
  2
DOTDOT
 70
    64
  3
 . .  . .  . .  . .  . .  . . 
 72
    65
 73
     5
 40
0.000917
 49
-0.000417
 49
0.000000
 49
-0.000417
 49
0.000000
 49
-0.000417
  0
ENDTAB
  0
TABLE
  2
STYLE
 70
     2
  0
STYLE
 70
     0
  2
SN0
 40
0.000000
 41
0.001667
 50
0.000000
 71
     0
 42
0.000000
  3
ROMAND
  0
STYLE
 70
    68
  2
SV0
 40
0.000000
 41
0.001667
 50
0.000000
 71
     0
 42
0.000000
  3
ROMAND
  0
ENDTAB
  0
TABLE
  2
LAYER
 70
     2
  0
LAYER
  2
FOREGROUND
 70
    64
 62
     7
  6
CONTINUOUS
  0
LAYER
  2
BACKGROUND
 70
    65
 62
    -7
  6
CONTINUOUS
  0
ENDTAB
  0
ENDSEC
  0
SECTION
  2
ENTITIES
  0
POLYLINE
  8
FOREGROUND
  6
CONTINUOUS
 66
     1
 40
0.010000
 41
0.010000
 70
     1
  0
VERTEX
  8
FOREGROUND
  6
CONTINUOUS
 10
7.923333
 20
3.988333
  0
VERTEX
  8
FOREGROUND
  6
CONTINUOUS
 10
7.923070
 20
4.036782
  0
VERTEX
  8
FOREGROUND
  6
CONTINUOUS
 10
7.922361
 20
4.084931
  0
VERTEX
  8
FOREGROUND
  6
CONTINUOUS
 10
7.921208
 20
4.132779
  0
VERTEX
  8
FOREGROUND
  6
CONTINUOUS
 10
7.919614
 20
4.180328
  0
VERTEX
  8
FOREGROUND
  6
CONTINUOUS
 10
7.917582
 20
4.227576
  0
VERTEX
  8
FOREGROUND
  6
CONTINUOUS
 10
7.915114
 20
4.274525
  0
VERTEX
  8
FOREGROUND
  6
CONTINUOUS
 10
7.912214
 20
4.321174
  0
VERTEX
  8
FOREGROUND
  6
CONTINUOUS
 10
7.908884
 20
4.367523
  0
VERTEX
  8
FOREGROUND
  6
CONTINUOUS
 10
7.905127
 20
4.413572
  0
VERTEX
  8
FOREGROUND
  6
CONTINUOUS
 10
7.900945
 20
4.459320
  0
VERTEX
  8
FOREGROUND
  6
CONTINUOUS
 10
7.896342
 20
4.504769
  0
VERTEX
  8
FOREGROUND
  6
CONTINUOUS
 10
7.891321
 20
4.549918
  0
VERTEX
  8
FOREGROUND
  6
CONTINUOUS
 10
7.885883
 20
4.594767
  0
VERTEX
  8
FOREGROUND
  6
CONTINUOUS
 10
7.880032
 20
4.639316
  0
VERTEX
  8
FOREGROUND
  6
CONTINUOUS
 10
7.873771
 20
4.683565
  0
VERTEX
  8
FOREGROUND
  6
CONTINUOUS
 10
7.867102
 20
4.727514
  0
VERTEX
  8
FOREGROUND
  6
CONTINUOUS
 10
7.860028
 20
4.771163
  0
VERTEX
  8
FOREGROUND
  6
CONTINUOUS
 10
7.852552
 20
4.814512
  0
VERTEX
  8
FOREGROUND
  6
CONTINUOUS
 10
7.844676
 20
4.857561
  0
VERTEX
  8
FOREGROUND
  6
CONTINUOUS
 10
7.836404
 20
4.900310
  0
VERTEX
  8
FOREGROUND
  6
CONTINUOUS
 10
7.827738
 20
4.942759
  0
VERTEX
  8
FOREGROUND
  6
CONTINUOUS
 10
7.818682
 20
4.984909
  0
VERTEX
  8
FOREGROUND
  6
CONTINUOUS
 10
7.809237
 20
5.026758
  0
VERTEX
  8
FOREGROUND
  6
CONTINUOUS
 10
7.799406
 20
5.068307
  0
VERTEX
  8
FOREGROUND
  6
CONTINUOUS
 10
7.789193
 20
5.109556
  0
VERTEX
  8
FOREGROUND
  6
CONTINUOUS
 10
7.778600
 20
5.150505
  0
VERTEX
  8
FOREGROUND
  6
CONTINUOUS
 10
7.767629
 20
5.191155
  0
VERTEX
  8
FOREGROUND
  6
CONTINUOUS
 10
7.756285
 20
5.231504
  0
VERTEX
  8
FOREGROUND
  6
CONTINUOUS
 10
7.744568
 20
5.271553
  0
VERTEX
  8
FOREGROUND
  6
CONTINUOUS
 10
7.732483
 20
5.311303
  0
VERTEX
  8
FOREGROUND
  6
CONTINUOUS
 10
7.720032
 20
5.350752
  0
VERTEX
  8
FOREGROUND
  6
CONTINUOUS
 10
7.707217
 20
5.389902
  0
VERTEX
  8
FOREGROUND
  6
CONTINUOUS
 10
7.694042
 20
5.428751
  0
VERTEX
  8
FOREGROUND
  6
CONTINUOUS
 10
7.680509
 20
5.467301
  0
VERTEX
  8
FOREGROUND
  6
CONTINUOUS
 10
7.666622
 20
5.505550
  0
VERTEX
  8
FOREGROUND
  6
CONTINUOUS
 10
7.652382
 20
5.543500
  0
VERTEX
  8
FOREGROUND
  6
CONTINUOUS
 10
7.637792
 20
5.581149
  0
VERTEX
  8
FOREGROUND
  6
CONTINUOUS
 10
7.622856
 20
5.618499
  0
VERTEX
  8
FOREGROUND
  6
CONTINUOUS
 10
7.607576
 20
5.655548
  0
VERTEX
  8
FOREGROUND
  6
CONTINUOUS
 10
7.591955
 20
5.692298
  0
VERTEX
  8
FOREGROUND
  6
CONTINUOUS
 10
7.575996
 20
5.728748
  0
VERTEX
  8
FOREGROUND
  6
CONTINUOUS
 10
7.559701
 20
5.764897
  0
VERTEX
  8
FOREGROUND
  6
CONTINUOUS
 10
7.543073
 20
5.800747
  0
VERTEX
  8
FOREGROUND
  6
CONTINUOUS
 10
7.526115
 20
5.836297
  0
VERTEX
  8
FOREGROUND
  6
CONTINUOUS
 10
7.508830
 20
5.871547
  0
VERTEX
  8
FOREGROUND
  6
CONTINUOUS
 10
7.491220
 20
5.906496
  0
VERTEX
  8
FOREGROUND
  6
CONTINUOUS
 10
7.473289
 20
5.941146
  0
VERTEX
  8
FOREGROUND
  6
CONTINUOUS
 10
7.455039
 20
5.975496
  0
VERTEX
  8
FOREGROUND
  6
CONTINUOUS
 10
7.436473
 20
6.009546
  0
VERTEX
  8
FOREGROUND
  6
CONTINUOUS
 10
7.417593
 20
6.043296
  0
VERTEX
  8
FOREGROUND
  6
CONTINUOUS
 10
7.398403
 20
6.076746
  0
VERTEX
  8
FOREGROUND
  6
CONTINUOUS
 10
7.378905
 20
6.109895
  0
VERTEX
  8
FOREGROUND
  6
CONTINUOUS
 10
7.359102
 20
6.142745
  0
VERTEX
  8
FOREGROUND
  6
CONTINUOUS
 10
7.338996
 20
6.175295
  0
VERTEX
  8
FOREGROUND
  6
CONTINUOUS
 10
7.318591
 20
6.207545
  0
VERTEX
  8
FOREGROUND
  6
CONTINUOUS
 10
7.297890
 20
6.239495
  0
VERTEX
  8
FOREGROUND
  6
CONTINUOUS
 10
7.276894
 20
6.271145
  0
VERTEX
  8
FOREGROUND
  6
CONTINUOUS
 10
7.255607
 20
6.302495
  0
VERTEX
  8
FOREGROUND
  6
CONTINUOUS
 10
7.234032
 20
6.333546
  0
VERTEX
  8
FOREGROUND
  6
CONTINUOUS
 10
7.212171
 20
6.364296
  0
VERTEX
  8
FOREGROUND
  6
CONTINUOUS
 10
7.190027
 20
6.394746
  0
VERTEX
  8
FOREGROUND
  6
CONTINUOUS
 10
7.167603
 20
6.424896
  0
VERTEX
  8
FOREGROUND
  6
CONTINUOUS
 10
7.144902
 20
6.454746
  0
VERTEX
  8
FOREGROUND
  6
CONTINUOUS
 10
7.121926
 20
6.484296
  0
VERTEX
  8
FOREGROUND
  6
CONTINUOUS
 10
7.098678
 20
6.513546
  0
VERTEX
  8
FOREGROUND
  6
CONTINUOUS
 10
7.075162
 20
6.542497
  0
VERTEX
  8
FOREGROUND
  6
CONTINUOUS
 10
7.051379
 20
6.571147
  0
VERTEX
  8
FOREGROUND
  6
CONTINUOUS
 10
7.027333
 20
6.599497
  0
VERTEX
  8
FOREGROUND
  6
CONTINUOUS
 10
7.003026
 20
6.627547
  0
VERTEX
  8
FOREGROUND
  6
CONTINUOUS
 10
6.978461
 20
6.655298
  0
VERTEX
  8
FOREGROUND
  6
CONTINUOUS
 10
6.953641
 20
6.682748
  0
VERTEX
  8
FOREGROUND
  6
CONTINUOUS
 10
6.928569
 20
6.709898
  0
VERTEX
  8
FOREGROUND
  6
CONTINUOUS
 10
6.903247
 20
6.736749
  0
VERTEX
  8
FOREGROUND
  6
CONTINUOUS
 10
6.877678
 20
6.763299
  0
VERTEX
  8
FOREGROUND
  6
CONTINUOUS
 10
6.851865
 20
6.789550
  0
VERTEX
  8
FOREGROUND
  6
CONTINUOUS
 10
6.825811
 20
6.815500
  0
VERTEX
  8
FOREGROUND
  6
CONTINUOUS
 10
6.799518
 20
6.841151
  0
VERTEX
  8
FOREGROUND
  6
CONTINUOUS
 10
6.772990
 20
6.866501
  0
VERTEX
  8
FOREGROUND
  6
CONTINUOUS
 10
6.746228
 20
6.891552
  0
VERTEX
  8
FOREGROUND
  6
CONTINUOUS
 10
6.719237
 20
6.916302
  0
VERTEX
  8
FOREGROUND
  6
CONTINUOUS
 10
6.692018
 20
6.940753
  0
VERTEX
  8
FOREGROUND
  6
CONTINUOUS
 10
6.664574
 20
6.964903
  0
VERTEX
  8
FOREGROUND
  6
CONTINUOUS
 10
6.636909
 20
6.988754
  0
VERTEX
  8
FOREGROUND
  6
CONTINUOUS
 10
6.609024
 20
7.012304
  0
VERTEX
  8
FOREGROUND
  6
CONTINUOUS
 10
6.580923
 20
7.035555
  0
VERTEX
  8
FOREGROUND
  6
CONTINUOUS
 10
6.552609
 20
7.058506
  0
VERTEX
  8
FOREGROUND
  6
CONTINUOUS
 10
6.524084
 20
7.081156
  0
VERTEX
  8
FOREGROUND
  6
CONTINUOUS
 10
6.495351
 20
7.103507
  0
VERTEX
  8
FOREGROUND
  6
CONTINUOUS
 10
6.466412
 20
7.125558
  0
VERTEX
  8
FOREGROUND
  6
CONTINUOUS
 10
6.437271
 20
7.147308
  0
VERTEX
  8
FOREGROUND
  6
CONTINUOUS
 10
6.407931
 20
7.168759
  0
VERTEX
  8
FOREGROUND
  6
CONTINUOUS
 10
6.378394
 20
7.189910
  0
VERTEX
  8
FOREGROUND
  6
CONTINUOUS
 10
6.348662
 20
7.210760
  0
VERTEX
  8
FOREGROUND
  6
CONTINUOUS
 10
6.318739
 20
7.231311
  0
VERTEX
  8
FOREGROUND
  6
CONTINUOUS
 10
6.288627
 20
7.251562
  0
VERTEX
  8
FOREGROUND
  6
CONTINUOUS
 10
6.258330
 20
7.271513
  0
VERTEX
  8
FOREGROUND
  6
CONTINUOUS
 10
6.227850
 20
7.291164
  0
VERTEX
  8
FOREGROUND
  6
CONTINUOUS
 10
6.197189
 20
7.310514
  0
VERTEX
  8
FOREGROUND
  6
CONTINUOUS
 10
6.166351
 20
7.329565
  0
VERTEX
  8
FOREGROUND
  6
CONTINUOUS
 10
6.135338
 20
7.348316
  0
VERTEX
  8
FOREGROUND
  6
CONTINUOUS
 10
6.104153
 20
7.366767
  0
VERTEX
  8
FOREGROUND
  6
CONTINUOUS
 10
6.072799
 20
7.384918
  0
VERTEX
  8
FOREGROUND
  6
CONTINUOUS
 10
6.041279
 20
7.402769
  0
VERTEX
  8
FOREGROUND
  6
CONTINUOUS
 10
6.009595
 20
7.420320
  0
VERTEX
  8
FOREGROUND
  6
CONTINUOUS
 10
5.977750
 20
7.437571
  0
VERTEX
  8
FOREGROUND
  6
CONTINUOUS
 10
5.945747
 20
7.454522
  0
VERTEX
  8
FOREGROUND
  6
CONTINUOUS
 10
5.913589
 20
7.471173
  0
VERTEX
  8
FOREGROUND
  6
CONTINUOUS
 10
5.881278
 20
7.487524
  0
VERTEX
  8
FOREGROUND
  6
CONTINUOUS
 10
5.848817
 20
7.503575
  0
VERTEX
  8
FOREGROUND
  6
CONTINUOUS
 10
5.816210
 20
7.519326
  0
VERTEX
  8
FOREGROUND
  6
CONTINUOUS
 10
5.783458
 20
7.534777
  0
VERTEX
  8
FOREGROUND
  6
CONTINUOUS
 10
5.750565
 20
7.549928
  0
VERTEX
  8
FOREGROUND
  6
CONTINUOUS
 10
5.717533
 20
7.564779
  0
VERTEX
  8
FOREGROUND
  6
CONTINUOUS
 10
5.684365
 20
7.579330
  0
VERTEX
  8
FOREGROUND
  6
CONTINUOUS
 10
5.651064
 20
7.593581
  0
VERTEX
  8
FOREGROUND
  6
CONTINUOUS
 10
5.617633
 20
7.607532
  0
VERTEX
  8
FOREGROUND
  6
CONTINUOUS
 10
5.584074
 20
7.621184
  0
VERTEX
  8
FOREGROUND
  6
CONTINUOUS
 10
5.550391
 20
7.634535
  0
VERTEX
  8
FOREGROUND
  6
CONTINUOUS
 10
5.516585
 20
7.647586
  0
VERTEX
  8
FOREGROUND
  6
CONTINUOUS
 10
5.482660
 20
7.660337
  0
VERTEX
  8
FOREGROUND
  6
CONTINUOUS
 10
5.448619
 20
7.672788
  0
VERTEX
  8
FOREGROUND
  6
CONTINUOUS
 10
5.414463
 20
7.684940
  0
VERTEX
  8
FOREGROUND
  6
CONTINUOUS
 10
5.380197
 20
7.696791
  0
VERTEX
  8
FOREGROUND
  6
CONTINUOUS
 10
5.345823
 20
7.708342
  0
VERTEX
  8
FOREGROUND
  6
CONTINUOUS
 10
5.311343
 20
7.719593
  0
VERTEX
  8
FOREGROUND
  6
CONTINUOUS
 10
5.276761
 20
7.730545
  0
VERTEX
  8
FOREGROUND
  6
CONTINUOUS
 10
5.242079
 20
7.741196
  0
VERTEX
  8
FOREGROUND
  6
CONTINUOUS
 10
5.207300
 20
7.751547
  0
VERTEX
  8
FOREGROUND
  6
CONTINUOUS
 10
5.172426
 20
7.761599
  0
VERTEX
  8
FOREGROUND
  6
CONTINUOUS
 10
5.137461
 20
7.771350
  0
VERTEX
  8
FOREGROUND
  6
CONTINUOUS
 10
5.102408
 20
7.780801
  0
VERTEX
  8
FOREGROUND
  6
CONTINUOUS
 10
5.067268
 20
7.789953
  0
VERTEX
  8
FOREGROUND
  6
CONTINUOUS
 10
5.032045
 20
7.798804
  0
VERTEX
  8
FOREGROUND
  6
CONTINUOUS
 10
4.996742
 20
7.807355
  0
VERTEX
  8
FOREGROUND
  6
CONTINUOUS
 10
4.961360
 20
7.815607
  0
VERTEX
  8
FOREGROUND
  6
CONTINUOUS
 10
4.925905
 20
7.823558
  0
VERTEX
  8
FOREGROUND
  6
CONTINUOUS
 10
4.890377
 20
7.831210
  0
VERTEX
  8
FOREGROUND
  6
CONTINUOUS
 10
4.854779
 20
7.838561
  0
VERTEX
  8
FOREGROUND
  6
CONTINUOUS
 10
4.819115
 20
7.845612
  0
VERTEX
  8
FOREGROUND
  6
CONTINUOUS
 10
4.783387
 20
7.852364
  0
VERTEX
  8
FOREGROUND
  6
CONTINUOUS
 10
4.747599
 20
7.858815
  0
VERTEX
  8
FOREGROUND
  6
CONTINUOUS
 10
4.711752
 20
7.864967
  0
VERTEX
  8
FOREGROUND
  6
CONTINUOUS
 10
4.675849
 20
7.870818
  0
VERTEX
  8
FOREGROUND
  6
CONTINUOUS
 10
4.639894
 20
7.876370
  0
VERTEX
  8
FOREGROUND
  6
CONTINUOUS
 10
4.603889
 20
7.881621
  0
VERTEX
  8
FOREGROUND
  6
CONTINUOUS
 10
4.567836
 20
7.886573
  0
VERTEX
  8
FOREGROUND
  6
CONTINUOUS
 10
4.531740
 20
7.891224
  0
VERTEX
  8
FOREGROUND
  6
CONTINUOUS
 10
4.495601
 20
7.895576
  0
VERTEX
  8
FOREGROUND
  6
CONTINUOUS
 10
4.459424
 20
7.899627
  0
VERTEX
  8
FOREGROUND
  6
CONTINUOUS
 10
4.423211
 20
7.903379
  0
VERTEX
  8
FOREGROUND
  6
CONTINUOUS
 10
4.386965
 20
7.906831
  0
VERTEX
  8
FOREGROUND
  6
CONTINUOUS
 10
4.350688
 20
7.909982
  0
VERTEX
  8
FOREGROUND
  6
CONTINUOUS
 10
4.314383
 20
7.912834
  0
VERTEX
  8
FOREGROUND
  6
CONTINUOUS
 10
4.278053
 20
7.915385
  0
VERTEX
  8
FOREGROUND
  6
CONTINUOUS
 10
4.241701
 20
7.917637
  0
VERTEX
  8
FOREGROUND
  6
CONTINUOUS
 10
4.205330
 20
7.919589
  0
VERTEX
  8
FOREGROUND
  6
CONTINUOUS
 10
4.168942
 20
7.921240
  0
VERTEX
  8
FOREGROUND
  6
CONTINUOUS
 10
4.132540
 20
7.922592
  0
VERTEX
  8
FOREGROUND
  6
CONTINUOUS
 10
4.096127
 20
7.923644
  0
VERTEX
  8
FOREGROUND
  6
CONTINUOUS
 10
4.059706
 20
7.924395
  0
VERTEX
  8
FOREGROUND
  6
CONTINUOUS
 10
4.023279
 20
7.924847
  0
VERTEX
  8
FOREGROUND
  6
CONTINUOUS
 10
3.986849
 20
7.924999
  0
VERTEX
  8
FOREGROUND
  6
CONTINUOUS
 10
3.950419
 20
7.924850
  0
VERTEX
  8
FOREGROUND
  6
CONTINUOUS
 10
3.913992
 20
7.924402
  0
VERTEX
  8
FOREGROUND
  6
CONTINUOUS
 10
3.877571
 20
7.923654
  0
VERTEX
  8
FOREGROUND
  6
CONTINUOUS
 10
3.841158
 20
7.922605
  0
VERTEX
  8
FOREGROUND
  6
CONTINUOUS
 10
3.804756
 20
7.921257
  0
VERTEX
  8
FOREGROUND
  6
CONTINUOUS
 10
3.768368
 20
7.919609
  0
VERTEX
  8
FOREGROUND
  6
CONTINUOUS
 10
3.731996
 20
7.917661
  0
VERTEX
  8
FOREGROUND
  6
CONTINUOUS
 10
3.695644
 20
7.915412
  0
VERTEX
  8
FOREGROUND
  6
CONTINUOUS
 10
3.659314
 20
7.912864
  0
VERTEX
  8
FOREGROUND
  6
CONTINUOUS
 10
3.623009
 20
7.910016
  0
VERTEX
  8
FOREGROUND
  6
CONTINUOUS
 10
3.586732
 20
7.906868
  0
VERTEX
  8
FOREGROUND
  6
CONTINUOUS
 10
3.550485
 20
7.903419
  0
VERTEX
  8
FOREGROUND
  6
CONTINUOUS
 10
3.514271
 20
7.899671
  0
VERTEX
  8
FOREGROUND
  6
CONTINUOUS
 10
3.478094
 20
7.895623
  0
VERTEX
  8
FOREGROUND
  6
CONTINUOUS
 10
3.441955
 20
7.891275
  0
VERTEX
  8
FOREGROUND
  6
CONTINUOUS
 10
3.405858
 20
7.886627
  0
VERTEX
  8
FOREGROUND
  6
CONTINUOUS
 10
3.369805
 20
7.881678
  0
VERTEX
  8
FOREGROUND
  6
CONTINUOUS
 10
3.333800
 20
7.876430
  0
VERTEX
  8
FOREGROUND
  6
CONTINUOUS
 10
3.297844
 20
7.870882
  0
VERTEX
  8
FOREGROUND
  6
CONTINUOUS
 10
3.261941
 20
7.865034
  0
VERTEX
  8
FOREGROUND
  6
CONTINUOUS
 10
3.226093
 20
7.858886
  0
VERTEX
  8
FOREGROUND
  6
CONTINUOUS
 10
3.190304
 20
7.852438
  0
VERTEX
  8
FOREGROUND
  6
CONTINUOUS
 10
3.154576
 20
7.845690
  0
VERTEX
  8
FOREGROUND
  6
CONTINUOUS
 10
3.118911
 20
7.838641
  0
VERTEX
  8
FOREGROUND
  6
CONTINUOUS
 10
3.083313
 20
7.831293
  0
VERTEX
  8
FOREGROUND
  6
CONTINUOUS
 10
3.047784
 20
7.823645
  0
VERTEX
  8
FOREGROUND
  6
CONTINUOUS
 10
3.012327
 20
7.815697
  0
VERTEX
  8
FOREGROUND
  6
CONTINUOUS
 10
2.976946
 20
7.807449
  0
VERTEX
  8
FOREGROUND
  6
CONTINUOUS
 10
2.941641
 20
7.798901
  0
VERTEX
  8
FOREGROUND
  6
CONTINUOUS
 10
2.906418
 20
7.790053
  0
VERTEX
  8
FOREGROUND
  6
CONTINUOUS
 10
2.871277
 20
7.780905
  0
VERTEX
  8
FOREGROUND
  6
CONTINUOUS
 10
2.836222
 20
7.771456
  0
VERTEX
  8
FOREGROUND
  6
CONTINUOUS
 10
2.801257
 20
7.761708
  0
VERTEX
  8
FOREGROUND
  6
CONTINUOUS
 10
2.766382
 20
7.751660
  0
VERTEX
  8
FOREGROUND
  6
CONTINUOUS
 10
2.731602
 20
7.741312
  0
VERTEX
  8
FOREGROUND
  6
CONTINUOUS
 10
2.696919
 20
7.730664
  0
VERTEX
  8
FOREGROUND
  6
CONTINUOUS
 10
2.662336
 20
7.719716
  0
VERTEX
  8
FOREGROUND
  6
CONTINUOUS
 10
2.627855
 20
7.708468
  0
VERTEX
  8
FOREGROUND
  6
CONTINUOUS
 10
2.593480
 20
7.696920
  0
VERTEX
  8
FOREGROUND
  6
CONTINUOUS
 10
2.559212
 20
7.685072
  0
VERTEX
  8
FOREGROUND
  6
CONTINUOUS
 10
2.525056
 20
7.672924
  0
VERTEX
  8
FOREGROUND
  6
CONTINUOUS
 10
2.491014
 20
7.660476
  0
VERTEX
  8
FOREGROUND
  6
CONTINUOUS
 10
2.457088
 20
7.647728
  0
VERTEX
  8
FOREGROUND
  6
CONTINUOUS
 10
2.423281
 20
7.634680
  0
VERTEX
  8
FOREGROUND
  6
CONTINUOUS
 10
2.389596
 20
7.621332
  0
VERTEX
  8
FOREGROUND
  6
CONTINUOUS
 10
2.356036
 20
7.607684
  0
VERTEX
  8
FOREGROUND
  6
CONTINUOUS
 10
2.322603
 20
7.593736
  0
VERTEX
  8
FOREGROUND
  6
CONTINUOUS
 10
2.289301
 20
7.579488
  0
VERTEX
  8
FOREGROUND
  6
CONTINUOUS
 10
2.256132
 20
7.564939
  0
VERTEX
  8
FOREGROUND
  6
CONTINUOUS
 10
2.223098
 20
7.550091
  0
VERTEX
  8
FOREGROUND
  6
CONTINUOUS
 10
2.190204
 20
7.534943
  0
VERTEX
  8
FOREGROUND
  6
CONTINUOUS
 10
2.157451
 20
7.519495
  0
VERTEX
  8
FOREGROUND
  6
CONTINUOUS
 10
2.124842
 20
7.503747
  0
VERTEX
  8
FOREGROUND
  6
CONTINUOUS
 10
2.092380
 20
7.487699
  0
VERTEX
  8
FOREGROUND
  6
CONTINUOUS
 10
2.060067
 20
7.471351
  0
VERTEX
  8
FOREGROUND
  6
CONTINUOUS
 10
2.027907
 20
7.454703
  0
VERTEX
  8
FOREGROUND
  6
CONTINUOUS
 10
1.995903
 20
7.437755
  0
VERTEX
  8
FOREGROUND
  6
CONTINUOUS
 10
1.964056
 20
7.420507
  0
VERTEX
  8
FOREGROUND
  6
CONTINUOUS
 10
1.932371
 20
7.402959
  0
VERTEX
  8
FOREGROUND
  6
CONTINUOUS
 10
1.900849
 20
7.385111
  0
VERTEX
  8
FOREGROUND
  6
CONTINUOUS
 10
1.869493
 20
7.366963
  0
VERTEX
  8
FOREGROUND
  6
CONTINUOUS
 10
1.838307
 20
7.348515
  0
VERTEX
  8
FOREGROUND
  6
CONTINUOUS
 10
1.807292
 20
7.329767
  0
VERTEX
  8
FOREGROUND
  6
CONTINUOUS
 10
1.776452
 20
7.310719
  0
VERTEX
  8
FOREGROUND
  6
CONTINUOUS
 10
1.745790
 20
7.291371
  0
VERTEX
  8
FOREGROUND
  6
CONTINUOUS
 10
1.715307
 20
7.271723
  0
VERTEX
  8
FOREGROUND
  6
CONTINUOUS
 10
1.685008
 20
7.251775
  0
VERTEX
  8
FOREGROUND
  6
CONTINUOUS
 10
1.654895
 20
7.231527
  0
VERTEX
  8
FOREGROUND
  6
CONTINUOUS
 10
1.624970
 20
7.210979
  0
VERTEX
  8
FOREGROUND
  6
CONTINUOUS
 10
1.595236
 20
7.190131
  0
VERTEX
  8
FOREGROUND
  6
CONTINUOUS
 10
1.565697
 20
7.168983
  0
VERTEX
  8
FOREGROUND
  6
CONTINUOUS
 10
1.536355
 20
7.147535
  0
VERTEX
  8
FOREGROUND
  6
CONTINUOUS
 10
1.507212
 20
7.125787
  0
VERTEX
  8
FOREGROUND
  6
CONTINUOUS
 10
1.478271
 20
7.103739
  0
VERTEX
  8
FOREGROUND
  6
CONTINUOUS
 10
1.449536
 20
7.081391
  0
VERTEX
  8
FOREGROUND
  6
CONTINUOUS
 10
1.421009
 20
7.058743
  0
VERTEX
  8
FOREGROUND
  6
CONTINUOUS
 10
1.392692
 20
7.035795
  0
VERTEX
  8
FOREGROUND
  6
CONTINUOUS
 10
1.364589
 20
7.012547
  0
VERTEX
  8
FOREGROUND
  6
CONTINUOUS
 10
1.336702
 20
6.988999
  0
VERTEX
  8
FOREGROUND
  6
CONTINUOUS
 10
1.309035
 20
6.965151
  0
VERTEX
  8
FOREGROUND
  6
CONTINUOUS
 10
1.281589
 20
6.941003
  0
VERTEX
  8
FOREGROUND
  6
CONTINUOUS
 10
1.254368
 20
6.916555
  0
VERTEX
  8
FOREGROUND
  6
CONTINUOUS
 10
1.227374
 20
6.891807
  0
VERTEX
  8
FOREGROUND
  6
CONTINUOUS
 10
1.200610
 20
6.866759
  0
VERTEX
  8
FOREGROUND
  6
CONTINUOUS
 10
1.174080
 20
6.841411
  0
VERTEX
  8
FOREGROUND
  6
CONTINUOUS
 10
1.147785
 20
6.815763
  0
VERTEX
  8
FOREGROUND
  6
CONTINUOUS
 10
1.121728
 20
6.789815
  0
VERTEX
  8
FOREGROUND
  6
CONTINUOUS
 10
1.095913
 20
6.763567
  0
VERTEX
  8
FOREGROUND
  6
CONTINUOUS
 10
1.070341
 20
6.737019
  0
VERTEX
  8
FOREGROUND
  6
CONTINUOUS
 10
1.045017
 20
6.710171
  0
VERTEX
  8
FOREGROUND
  6
CONTINUOUS
 10
1.019942
 20
6.683023
  0
VERTEX
  8
FOREGROUND
  6
CONTINUOUS
 10
0.995119
 20
6.655575
  0
VERTEX
  8
FOREGROUND
  6
CONTINUOUS
 10
0.970552
 20
6.627827
  0
VERTEX
  8
FOREGROUND
  6
CONTINUOUS
 10
0.946242
 20
6.599779
  0
VERTEX
  8
FOREGROUND
  6
CONTINUOUS
 10
0.922194
 20
6.571431
  0
VERTEX
  8
FOREGROUND
  6
CONTINUOUS
 10
0.898408
 20
6.542783
  0
VERTEX
  8
FOREGROUND
  6
CONTINUOUS
 10
0.874889
 20
6.513835
  0
VERTEX
  8
FOREGROUND
  6
CONTINUOUS
 10
0.851639
 20
6.484587
  0
VERTEX
  8
FOREGROUND
  6
CONTINUOUS
 10
0.828660
 20
6.455039
  0
VERTEX
  8
FOREGROUND
  6
CONTINUOUS
 10
0.805956
 20
6.425191
  0
VERTEX
  8
FOREGROUND
  6
CONTINUOUS
 10
0.783529
 20
6.395043
  0
VERTEX
  8
FOREGROUND
  6
CONTINUOUS
 10
0.761383
 20
6.364594
  0
VERTEX
  8
FOREGROUND
  6
CONTINUOUS
 10
0.739519
 20
6.333846
  0
VERTEX
  8
FOREGROUND
  6
CONTINUOUS
 10
0.717941
 20
6.302798
  0
VERTEX
  8
FOREGROUND
  6
CONTINUOUS
 10
0.696651
 20
6.271450
  0
VERTEX
  8
FOREGROUND
  6
CONTINUOUS
 10
0.675652
 20
6.239802
  0
VERTEX
  8
FOREGROUND
  6
CONTINUOUS
 10
0.654948
 20
6.207854
  0
VERTEX
  8
FOREGROUND
  6
CONTINUOUS
 10
0.634540
 20
6.175606
  0
VERTEX
  8
FOREGROUND
  6
CONTINUOUS
 10
0.614431
 20
6.143058
  0
VERTEX
  8
FOREGROUND
  6
CONTINUOUS
 10
0.594625
 20
6.110210
  0
VERTEX
  8
FOREGROUND
  6
CONTINUOUS
 10
0.575124
 20
6.077062
  0
VERTEX
  8
FOREGROUND
  6
CONTINUOUS
 10
0.555931
 20
6.043614
  0
VERTEX
  8
FOREGROUND
  6
CONTINUOUS
 10
0.537048
 20
6.009865
  0
VERTEX
  8
FOREGROUND
  6
CONTINUOUS
 10
0.518478
 20
5.975817
  0
VERTEX
  8
FOREGROUND
  6
CONTINUOUS
 10
0.500225
 20
5.941469
  0
VERTEX
  8
FOREGROUND
  6
CONTINUOUS
 10
0.482291
 20
5.906821
  0
VERTEX
  8
FOREGROUND
  6
CONTINUOUS
 10
0.464678
 20
5.871873
  0
VERTEX
  8
FOREGROUND
  6
CONTINUOUS
 10
0.447390
 20
5.836625
  0
VERTEX
  8
FOREGROUND
  6
CONTINUOUS
 10
0.430428
 20
5.801077
  0
VERTEX
  8
FOREGROUND
  6
CONTINUOUS
 10
0.413797
 20
5.765228
  0
VERTEX
  8
FOREGROUND
  6
CONTINUOUS
 10
0.397499
 20
5.729080
  0
VERTEX
  8
FOREGROUND
  6
CONTINUOUS
 10
0.381536
 20
5.692632
  0
VERTEX
  8
FOREGROUND
  6
CONTINUOUS
 10
0.365912
 20
5.655884
  0
VERTEX
  8
FOREGROUND
  6
CONTINUOUS
 10
0.350628
 20
5.618836
  0
VERTEX
  8
FOREGROUND
  6
CONTINUOUS
 10
0.335689
 20
5.581487
  0
VERTEX
  8
FOREGROUND
  6
CONTINUOUS
 10
0.321096
 20
5.543839
  0
VERTEX
  8
FOREGROUND
  6
CONTINUOUS
 10
0.306852
 20
5.505891
  0
VERTEX
  8
FOREGROUND
  6
CONTINUOUS
 10
0.292961
 20
5.467643
  0
VERTEX
  8
FOREGROUND
  6
CONTINUOUS
 10
0.279425
 20
5.429095
  0
VERTEX
  8
FOREGROUND
  6
CONTINUOUS
 10
0.266246
 20
5.390246
  0
VERTEX
  8
FOREGROUND
  6
CONTINUOUS
 10
0.253428
 20
5.351098
  0
VERTEX
  8
FOREGROUND
  6
CONTINUOUS
 10
0.240973
 20
5.311650
  0
VERTEX
  8
FOREGROUND
  6
CONTINUOUS
 10
0.228884
 20
5.271902
  0
VERTEX
  8
FOREGROUND
  6
CONTINUOUS
 10
0.217164
 20
5.231853
  0
VERTEX
  8
FOREGROUND
  6
CONTINUOUS
 10
0.205815
 20
5.191505
  0
VERTEX
  8
FOREGROUND
  6
CONTINUOUS
 10
0.194841
 20
5.150857
  0
VERTEX
  8
FOREGROUND
  6
CONTINUOUS
 10
0.184244
 20
5.109909
  0
VERTEX
  8
FOREGROUND
  6
CONTINUOUS
 10
0.174027
 20
5.068660
  0
VERTEX
  8
FOREGROUND
  6
CONTINUOUS
 10
0.164193
 20
5.027112
  0
VERTEX
  8
FOREGROUND
  6
CONTINUOUS
 10
0.154744
 20
4.985264
  0
VERTEX
  8
FOREGROUND
  6
CONTINUOUS
 10
0.145683
 20
4.943115
  0
VERTEX
  8
FOREGROUND
  6
CONTINUOUS
 10
0.137014
 20
4.900667
  0
VERTEX
  8
FOREGROUND
  6
CONTINUOUS
 10
0.128738
 20
4.857919
  0
VERTEX
  8
FOREGROUND
  6
CONTINUOUS
 10
0.120858
 20
4.814870
  0
VERTEX
  8
FOREGROUND
  6
CONTINUOUS
 10
0.113378
 20
4.771522
  0
VERTEX
  8
FOREGROUND
  6
CONTINUOUS
 10
0.106300
 20
4.727873
  0
VERTEX
  8
FOREGROUND
  6
CONTINUOUS
 10
0.099627
 20
4.683925
  0
VERTEX
  8
FOREGROUND
  6
CONTINUOUS
 10
0.093362
 20
4.639677
  0
VERTEX
  8
FOREGROUND
  6
CONTINUOUS
 10
0.087507
 20
4.595128
  0
VERTEX
  8
FOREGROUND
  6
CONTINUOUS
 10
0.082065
 20
4.550280
  0
VERTEX
  8
FOREGROUND
  6
CONTINUOUS
 10
0.077039
 20
4.505131
  0
VERTEX
  8
FOREGROUND
  6
CONTINUOUS
 10
0.072432
 20
4.459683
  0
VERTEX
  8
FOREGROUND
  6
CONTINUOUS
 10
0.068246
 20
4.413935
  0
VERTEX
  8
FOREGROUND
  6
CONTINUOUS
 10
0.064485
 20
4.367886
  0
VERTEX
  8
FOREGROUND
  6
CONTINUOUS
 10
0.061150
 20
4.321538
  0
VERTEX
  8
FOREGROUND
  6
CONTINUOUS
 10
0.058246
 20
4.274889
  0
VERTEX
  8
FOREGROUND
  6
CONTINUOUS
 10
0.055774
 20
4.227941
  0
VERTEX
  8
FOREGROUND
  6
CONTINUOUS
 10
0.053737
 20
4.180692
  0
VERTEX
  8
FOREGROUND
  6
CONTINUOUS
 10
0.052139
 20
4.133144
  0
VERTEX
  8
FOREGROUND
  6
CONTINUOUS
 10
0.050981
 20
4.085295
  0
VERTEX
  8
FOREGROUND
  6
CONTINUOUS
 10
0.050267
 20
4.037147
  0
VERTEX
  8
FOREGROUND
  6
CONTINUOUS
 10
0.050000
 20
3.988698
  0
VERTEX
  8
FOREGROUND
  6
CONTINUOUS
 10
0.050000
 20
3.988698
  0
VERTEX
  8
FOREGROUND
  6
CONTINUOUS
 10
0.050258
 20
3.940249
  0
VERTEX
  8
FOREGROUND
  6
CONTINUOUS
 10
0.050963
 20
3.892101
  0
VERTEX
  8
FOREGROUND
  6
CONTINUOUS
 10
0.052112
 20
3.844252
  0
VERTEX
  8
FOREGROUND
  6
CONTINUOUS
 10
0.053702
 20
3.796703
  0
VERTEX
  8
FOREGROUND
  6
CONTINUOUS
 10
0.055729
 20
3.749454
  0
VERTEX
  8
FOREGROUND
  6
CONTINUOUS
 10
0.058193
 20
3.702505
  0
VERTEX
  8
FOREGROUND
  6
CONTINUOUS
 10
0.061088
 20
3.655856
  0
VERTEX
  8
FOREGROUND
  6
CONTINUOUS
 10
0.064414
 20
3.609507
  0
VERTEX
  8
FOREGROUND
  6
CONTINUOUS
 10
0.068167
 20
3.563458
  0
VERTEX
  8
FOREGROUND
  6
CONTINUOUS
 10
0.072344
 20
3.517709
  0
VERTEX
  8
FOREGROUND
  6
CONTINUOUS
 10
0.076943
 20
3.472260
  0
VERTEX
  8
FOREGROUND
  6
CONTINUOUS
 10
0.081961
 20
3.427110
  0
VERTEX
  8
FOREGROUND
  6
CONTINUOUS
 10
0.087394
 20
3.382261
  0
VERTEX
  8
FOREGROUND
  6
CONTINUOUS
 10
0.093241
 20
3.337711
  0
VERTEX
  8
FOREGROUND
  6
CONTINUOUS
 10
0.099498
 20
3.293462
  0
VERTEX
  8
FOREGROUND
  6
CONTINUOUS
 10
0.106163
 20
3.249512
  0
VERTEX
  8
FOREGROUND
  6
CONTINUOUS
 10
0.113233
 20
3.205863
  0
VERTEX
  8
FOREGROUND
  6
CONTINUOUS
 10
0.120705
 20
3.162513
  0
VERTEX
  8
FOREGROUND
  6
CONTINUOUS
 10
0.128577
 20
3.119463
  0
VERTEX
  8
FOREGROUND
  6
CONTINUOUS
 10
0.136845
 20
3.076713
  0
VERTEX
  8
FOREGROUND
  6
CONTINUOUS
 10
0.145506
 20
3.034263
  0
VERTEX
  8
FOREGROUND
  6
CONTINUOUS
 10
0.154559
 20
2.992113
  0
VERTEX
  8
FOREGROUND
  6
CONTINUOUS
 10
0.164001
 20
2.950263
  0
VERTEX
  8
FOREGROUND
  6
CONTINUOUS
 10
0.173827
 20
2.908713
  0
VERTEX
  8
FOREGROUND
  6
CONTINUOUS
 10
0.184037
 20
2.867463
  0
VERTEX
  8
FOREGROUND
  6
CONTINUOUS
 10
0.194626
 20
2.826513
  0
VERTEX
  8
FOREGROUND
  6
CONTINUOUS
 10
0.205593
 20
2.785862
  0
VERTEX
  8
FOREGROUND
  6
CONTINUOUS
 10
0.216934
 20
2.745512
  0
VERTEX
  8
FOREGROUND
  6
CONTINUOUS
 10
0.228646
 20
2.705461
  0
VERTEX
  8
FOREGROUND
  6
CONTINUOUS
 10
0.240728
 20
2.665711
  0
VERTEX
  8
FOREGROUND
  6
CONTINUOUS
 10
0.253175
 20
2.626260
  0
VERTEX
  8
FOREGROUND
  6
CONTINUOUS
 10
0.265986
 20
2.587110
  0
VERTEX
  8
FOREGROUND
  6
CONTINUOUS
 10
0.279158
 20
2.548259
  0
VERTEX
  8
FOREGROUND
  6
CONTINUOUS
 10
0.292687
 20
2.509708
  0
VERTEX
  8
FOREGROUND
  6
CONTINUOUS
 10
0.306571
 20
2.471458
  0
VERTEX
  8
FOREGROUND
  6
CONTINUOUS
 10
0.320808
 20
2.433507
  0
VERTEX
  8
FOREGROUND
  6
CONTINUOUS
 10
0.335394
 20
2.395856
  0
VERTEX
  8
FOREGROUND
  6
CONTINUOUS
 10
0.350326
 20
2.358505
  0
VERTEX
  8
FOREGROUND
  6
CONTINUOUS
 10
0.365603
 20
2.321454
  0
VERTEX
  8
FOREGROUND
  6
CONTINUOUS
 10
0.381220
 20
2.284703
  0
VERTEX
  8
FOREGROUND
  6
CONTINUOUS
 10
0.397177
 20
2.248252
  0
VERTEX
  8
FOREGROUND
  6
CONTINUOUS
 10
0.413468
 20
2.212100
  0
VERTEX
  8
FOREGROUND
  6
CONTINUOUS
 10
0.430093
 20
2.176249
  0
VERTEX
  8
FOREGROUND
  6
CONTINUOUS
 10
0.447047
 20
2.140698
  0
VERTEX
  8
FOREGROUND
  6
CONTINUOUS
 10
0.464329
 20
2.105446
  0
VERTEX
  8
FOREGROUND
  6
CONTINUOUS
 10
0.481935
 20
2.070495
  0
VERTEX
  8
FOREGROUND
  6
CONTINUOUS
 10
0.499863
 20
2.035844
  0
VERTEX
  8
FOREGROUND
  6
CONTINUOUS
 10
0.518110
 20
2.001492
  0
VERTEX
  8
FOREGROUND
  6
CONTINUOUS
 10
0.536673
 20
1.967441
  0
VERTEX
  8
FOREGROUND
  6
CONTINUOUS
 10
0.555550
 20
1.933689
  0
VERTEX
  8
FOREGROUND
  6
CONTINUOUS
 10
0.574737
 20
1.900237
  0
VERTEX
  8
FOREGROUND
  6
CONTINUOUS
 10
0.594232
 20
1.867086
  0
VERTEX
  8
FOREGROUND
  6
CONTINUOUS
 10
0.614032
 20
1.834234
  0
VERTEX
  8
FOREGROUND
  6
CONTINUOUS
 10
0.634134
 20
1.801682
  0
VERTEX
  8
FOREGROUND
  6
CONTINUOUS
 10
0.654536
 20
1.769430
  0
VERTEX
  8
FOREGROUND
  6
CONTINUOUS
 10
0.675235
 20
1.737478
  0
VERTEX
  8
FOREGROUND
  6
CONTINUOUS
 10
0.696228
 20
1.705826
  0
VERTEX
  8
FOREGROUND
  6
CONTINUOUS
 10
0.717512
 20
1.674474
  0
VERTEX
  8
FOREGROUND
  6
CONTINUOUS
 10
0.739084
 20
1.643422
  0
VERTEX
  8
FOREGROUND
  6
CONTINUOUS
 10
0.760942
 20
1.612670
  0
VERTEX
  8
FOREGROUND
  6
CONTINUOUS
 10
0.783083
 20
1.582218
  0
VERTEX
  8
FOREGROUND
  6
CONTINUOUS
 10
0.805504
 20
1.552066
  0
VERTEX
  8
FOREGROUND
  6
CONTINUOUS
 10
0.828203
 20
1.522213
  0
VERTEX
  8
FOREGROUND
  6
CONTINUOUS
 10
0.851176
 20
1.492661
  0
VERTEX
  8
FOREGROUND
  6
CONTINUOUS
 10
0.874421
 20
1.463409
  0
VERTEX
  8
FOREGROUND
  6
CONTINUOUS
 10
0.897935
 20
1.434456
  0
VERTEX
  8
FOREGROUND
  6
CONTINUOUS
 10
0.921715
 20
1.405804
  0
VERTEX
  8
FOREGROUND
  6
CONTINUOUS
 10
0.945759
 20
1.377451
  0
VERTEX
  8
FOREGROUND
  6
CONTINUOUS
 10
0.970063
 20
1.349399
  0
VERTEX
  8
FOREGROUND
  6
CONTINUOUS
 10
0.994625
 20
1.321646
  0
VERTEX
  8
FOREGROUND
  6
CONTINUOUS
 10
1.019443
 20
1.294193
  0
VERTEX
  8
FOREGROUND
  6
CONTINUOUS
 10
1.044513
 20
1.267041
  0
VERTEX
  8
FOREGROUND
  6
CONTINUOUS
 10
1.069832
 20
1.240188
  0
VERTEX
  8
FOREGROUND
  6
CONTINUOUS
 10
1.095399
 20
1.213635
  0
VERTEX
  8
FOREGROUND
  6
CONTINUOUS
 10
1.121209
 20
1.187383
  0
VERTEX
  8
FOREGROUND
  6
CONTINUOUS
 10
1.147261
 20
1.161430
  0
VERTEX
  8
FOREGROUND
  6
CONTINUOUS
 10
1.173551
 20
1.135777
  0
VERTEX
  8
FOREGROUND
  6
CONTINUOUS
 10
1.200077
 20
1.110424
  0
VERTEX
  8
FOREGROUND
  6
CONTINUOUS
 10
1.226836
 20
1.085371
  0
VERTEX
  8
FOREGROUND
  6
CONTINUOUS
 10
1.253825
 20
1.060618
  0
VERTEX
  8
FOREGROUND
  6
CONTINUOUS
 10
1.281042
 20
1.036165
  0
VERTEX
  8
FOREGROUND
  6
CONTINUOUS
 10
1.308483
 20
1.012012
  0
VERTEX
  8
FOREGROUND
  6
CONTINUOUS
 10
1.336146
 20
0.988159
  0
VERTEX
  8
FOREGROUND
  6
CONTINUOUS
 10
1.364029
 20
0.964605
  0
VERTEX
  8
FOREGROUND
  6
CONTINUOUS
 10
1.392128
 20
0.941352
  0
VERTEX
  8
FOREGROUND
  6
CONTINUOUS
 10
1.420440
 20
0.918399
  0
VERTEX
  8
FOREGROUND
  6
CONTINUOUS
 10
1.448963
 20
0.895746
  0
VERTEX
  8
FOREGROUND
  6
CONTINUOUS
 10
1.477694
 20
0.873392
  0
VERTEX
  8
FOREGROUND
  6
CONTINUOUS
 10
1.506630
 20
0.851339
  0
VERTEX
  8
FOREGROUND
  6
CONTINUOUS
 10
1.535769
 20
0.829586
  0
VERTEX
  8
FOREGROUND
  6
CONTINUOUS
 10
1.565108
 20
0.808132
  0
VERTEX
  8
FOREGROUND
  6
CONTINUOUS
 10
1.594643
 20
0.786979
  0
VERTEX
  8
FOREGROUND
  6
CONTINUOUS
 10
1.624373
 20
0.766125
  0
VERTEX
  8
FOREGROUND
  6
CONTINUOUS
 10
1.654294
 20
0.745572
  0
VERTEX
  8
FOREGROUND
  6
CONTINUOUS
 10
1.684404
 20
0.725318
  0
VERTEX
  8
FOREGROUND
  6
CONTINUOUS
 10
1.714699
 20
0.705364
  0
VERTEX
  8
FOREGROUND
  6
CONTINUOUS
 10
1.745178
 20
0.685711
  0
VERTEX
  8
FOREGROUND
  6
CONTINUOUS
 10
1.775836
 20
0.666357
  0
VERTEX
  8
FOREGROUND
  6
CONTINUOUS
 10
1.806673
 20
0.647303
  0
VERTEX
  8
FOREGROUND
  6
CONTINUOUS
 10
1.837684
 20
0.628550
  0
VERTEX
  8
FOREGROUND
  6
CONTINUOUS
 10
1.868867
 20
0.610096
  0
VERTEX
  8
FOREGROUND
  6
CONTINUOUS
 10
1.900219
 20
0.591942
  0
VERTEX
  8
FOREGROUND
  6
CONTINUOUS
 10
1.931738
 20
0.574088
  0
VERTEX
  8
FOREGROUND
  6
CONTINUOUS
 10
1.963420
 20
0.556534
  0
VERTEX
  8
FOREGROUND
  6
CONTINUOUS
 10
1.995264
 20
0.539280
  0
VERTEX
  8
FOREGROUND
  6
CONTINUOUS
 10
2.027265
 20
0.522326
  0
VERTEX
  8
FOREGROUND
  6
CONTINUOUS
 10
2.059422
 20
0.505672
  0
VERTEX
  8
FOREGROUND
  6
CONTINUOUS
 10
2.091731
 20
0.489318
  0
VERTEX
  8
FOREGROUND
  6
CONTINUOUS
 10
2.124190
 20
0.473264
  0
VERTEX
  8
FOREGROUND
  6
CONTINUOUS
 10
2.156796
 20
0.457510
  0
VERTEX
  8
FOREGROUND
  6
CONTINUOUS
 10
2.189547
 20
0.442056
  0
VERTEX
  8
FOREGROUND
  6
CONTINUOUS
 10
2.222438
 20
0.426902
  0
VERTEX
  8
FOREGROUND
  6
CONTINUOUS
 10
2.255469
 20
0.412048
  0
VERTEX
  8
FOREGROUND
  6
CONTINUOUS
 10
2.288635
 20
0.397494
  0
VERTEX
  8
FOREGROUND
  6
CONTINUOUS
 10
2.321935
 20
0.383240
  0
VERTEX
  8
FOREGROUND
  6
CONTINUOUS
 10
2.355365
 20
0.369285
  0
VERTEX
  8
FOREGROUND
  6
CONTINUOUS
 10
2.388923
 20
0.355631
  0
VERTEX
  8
FOREGROUND
  6
CONTINUOUS
 10
2.422605
 20
0.342277
  0
VERTEX
  8
FOREGROUND
  6
CONTINUOUS
 10
2.456409
 20
0.329222
  0
VERTEX
  8
FOREGROUND
  6
CONTINUOUS
 10
2.490333
 20
0.316468
  0
VERTEX
  8
FOREGROUND
  6
CONTINUOUS
 10
2.524373
 20
0.304014
  0
VERTEX
  8
FOREGROUND
  6
CONTINUOUS
 10
2.558527
 20
0.291859
  0
VERTEX
  8
FOREGROUND
  6
CONTINUOUS
 10
2.592792
 20
0.280005
  0
VERTEX
  8
FOREGROUND
  6
CONTINUOUS
 10
2.627166
 20
0.268451
  0
VERTEX
  8
FOREGROUND
  6
CONTINUOUS
 10
2.661644
 20
0.257196
  0
VERTEX
  8
FOREGROUND
  6
CONTINUOUS
 10
2.696225
 20
0.246242
  0
VERTEX
  8
FOREGROUND
  6
CONTINUOUS
 10
2.730907
 20
0.235587
  0
VERTEX
  8
FOREGROUND
  6
CONTINUOUS
 10
2.765685
 20
0.225233
  0
VERTEX
  8
FOREGROUND
  6
CONTINUOUS
 10
2.800557
 20
0.215178
  0
VERTEX
  8
FOREGROUND
  6
CONTINUOUS
 10
2.835521
 20
0.205423
  0
VERTEX
  8
FOREGROUND
  6
CONTINUOUS
 10
2.870574
 20
0.195969
  0
VERTEX
  8
FOREGROUND
  6
CONTINUOUS
 10
2.905713
 20
0.186814
  0
VERTEX
  8
FOREGROUND
  6
CONTINUOUS
 10
2.940935
 20
0.177960
  0
VERTEX
  8
FOREGROUND
  6
CONTINUOUS
 10
2.976238
 20
0.169405
  0
VERTEX
  8
FOREGROUND
  6
CONTINUOUS
 10
3.011618
 20
0.161150
  0
VERTEX
  8
FOREGROUND
  6
CONTINUOUS
 10
3.047073
 20
0.153196
  0
VERTEX
  8
FOREGROUND
  6
CONTINUOUS
 10
3.082601
 20
0.145541
  0
VERTEX
  8
FOREGROUND
  6
CONTINUOUS
 10
3.118197
 20
0.138186
  0
VERTEX
  8
FOREGROUND
  6
CONTINUOUS
 10
3.153861
 20
0.131131
  0
VERTEX
  8
FOREGROUND
  6
CONTINUOUS
 10
3.189588
 20
0.124377
  0
VERTEX
  8
FOREGROUND
  6
CONTINUOUS
 10
3.225376
 20
0.117922
  0
VERTEX
  8
FOREGROUND
  6
CONTINUOUS
 10
3.261223
 20
0.111767
  0
VERTEX
  8
FOREGROUND
  6
CONTINUOUS
 10
3.297125
 20
0.105912
  0
VERTEX
  8
FOREGROUND
  6
CONTINUOUS
 10
3.333079
 20
0.100357
  0
VERTEX
  8
FOREGROUND
  6
CONTINUOUS
 10
3.369084
 20
0.095103
  0
VERTEX
  8
FOREGROUND
  6
CONTINUOUS
 10
3.405136
 20
0.090148
  0
VERTEX
  8
FOREGROUND
  6
CONTINUOUS
 10
3.441232
 20
0.085493
  0
VERTEX
  8
FOREGROUND
  6
CONTINUOUS
 10
3.477370
 20
0.081138
  0
VERTEX
  8
FOREGROUND
  6
CONTINUOUS
 10
3.513547
 20
0.077083
  0
VERTEX
  8
FOREGROUND
  6
CONTINUOUS
 10
3.549760
 20
0.073328
  0
VERTEX
  8
FOREGROUND
  6
CONTINUOUS
 10
3.586006
 20
0.069873
  0
VERTEX
  8
FOREGROUND
  6
CONTINUOUS
 10
3.622282
 20
0.066718
  0
VERTEX
  8
FOREGROUND
  6
CONTINUOUS
 10
3.658587
 20
0.063863
  0
VERTEX
  8
FOREGROUND
  6
CONTINUOUS
 10
3.694916
 20
0.061308
  0
VERTEX
  8
FOREGROUND
  6
CONTINUOUS
 10
3.731268
 20
0.059053
  0
VERTEX
  8
FOREGROUND
  6
CONTINUOUS
 10
3.767639
 20
0.057098
  0
VERTEX
  8
FOREGROUND
  6
CONTINUOUS
 10
3.804027
 20
0.055443
  0
VERTEX
  8
FOREGROUND
  6
CONTINUOUS
 10
3.840429
 20
0.054088
  0
VERTEX
  8
FOREGROUND
  6
CONTINUOUS
 10
3.876842
 20
0.053033
  0
VERTEX
  8
FOREGROUND
  6
CONTINUOUS
 10
3.913263
 20
0.052278
  0
VERTEX
  8
FOREGROUND
  6
CONTINUOUS
 10
3.949690
 20
0.051823
  0
VERTEX
  8
FOREGROUND
  6
CONTINUOUS
 10
3.986120
 20
0.051668
  0
VERTEX
  8
FOREGROUND
  6
CONTINUOUS
 10
4.022549
 20
0.051813
  0
VERTEX
  8
FOREGROUND
  6
CONTINUOUS
 10
4.058976
 20
0.052258
  0
VERTEX
  8
FOREGROUND
  6
CONTINUOUS
 10
4.095398
 20
0.053003
  0
VERTEX
  8
FOREGROUND
  6
CONTINUOUS
 10
4.131811
 20
0.054048
  0
VERTEX
  8
FOREGROUND
  6
CONTINUOUS
 10
4.168213
 20
0.055393
  0
VERTEX
  8
FOREGROUND
  6
CONTINUOUS
 10
4.204601
 20
0.057038
  0
VERTEX
  8
FOREGROUND
  6
CONTINUOUS
 10
4.240973
 20
0.058982
  0
VERTEX
  8
FOREGROUND
  6
CONTINUOUS
 10
4.277325
 20
0.061227
  0
VERTEX
  8
FOREGROUND
  6
CONTINUOUS
 10
4.313656
 20
0.063772
  0
VERTEX
  8
FOREGROUND
  6
CONTINUOUS
 10
4.349961
 20
0.066617
  0
VERTEX
  8
FOREGROUND
  6
CONTINUOUS
 10
4.386238
 20
0.069762
  0
VERTEX
  8
FOREGROUND
  6
CONTINUOUS
 10
4.422486
 20
0.073207
  0
VERTEX
  8
FOREGROUND
  6
CONTINUOUS
 10
4.458699
 20
0.076952
  0
VERTEX
  8
FOREGROUND
  6
CONTINUOUS
 10
4.494877
 20
0.080997
  0
VERTEX
  8
FOREGROUND
  6
CONTINUOUS
 10
4.531016
 20
0.085341
  0
VERTEX
  8
FOREGROUND
  6
CONTINUOUS
 10
4.567114
 20
0.089986
  0
VERTEX
  8
FOREGROUND
  6
CONTINUOUS
 10
4.603167
 20
0.094931
  0
VERTEX
  8
FOREGROUND
  6
CONTINUOUS
 10
4.639173
 20
0.100176
  0
VERTEX
  8
FOREGROUND
  6
CONTINUOUS
 10
4.675130
 20
0.105721
  0
VERTEX
  8
FOREGROUND
  6
CONTINUOUS
 10
4.711033
 20
0.111566
  0
VERTEX
  8
FOREGROUND
  6
CONTINUOUS
 10
4.746881
 20
0.117710
  0
VERTEX
  8
FOREGROUND
  6
CONTINUOUS
 10
4.782671
 20
0.124155
  0
VERTEX
  8
FOREGROUND
  6
CONTINUOUS
 10
4.818400
 20
0.130900
  0
VERTEX
  8
FOREGROUND
  6
CONTINUOUS
 10
4.854066
 20
0.137945
  0
VERTEX
  8
FOREGROUND
  6
CONTINUOUS
 10
4.889664
 20
0.145290
  0
VERTEX
  8
FOREGROUND
  6
CONTINUOUS
 10
4.925194
 20
0.152935
  0
VERTEX
  8
FOREGROUND
  6
CONTINUOUS
 10
4.960651
 20
0.160879
  0
VERTEX
  8
FOREGROUND
  6
CONTINUOUS
 10
4.996034
 20
0.169124
  0
VERTEX
  8
FOREGROUND
  6
CONTINUOUS
 10
5.031339
 20
0.177669
  0
VERTEX
  8
FOREGROUND
  6
CONTINUOUS
 10
5.066563
 20
0.186514
  0
VERTEX
  8
FOREGROUND
  6
CONTINUOUS
 10
5.101705
 20
0.195659
  0
VERTEX
  8
FOREGROUND
  6
CONTINUOUS
 10
5.136760
 20
0.205104
  0
VERTEX
  8
FOREGROUND
  6
CONTINUOUS
 10
5.171727
 20
0.214848
  0
VERTEX
  8
FOREGROUND
  6
CONTINUOUS
 10
5.206603
 20
0.224893
  0
VERTEX
  8
FOREGROUND
  6
CONTINUOUS
 10
5.241384
 20
0.235238
  0
VERTEX
  8
FOREGROUND
  6
CONTINUOUS
 10
5.276068
 20
0.245883
  0
VERTEX
  8
FOREGROUND
  6
CONTINUOUS
 10
5.310652
 20
0.256828
  0
VERTEX
  8
FOREGROUND
  6
CONTINUOUS
 10
5.345134
 20
0.268073
  0
VERTEX
  8
FOREGROUND
  6
CONTINUOUS
 10
5.379510
 20
0.279618
  0
VERTEX
  8
FOREGROUND
  6
CONTINUOUS
 10
5.413778
 20
0.291463
  0
VERTEX
  8
FOREGROUND
  6
CONTINUOUS
 10
5.447936
 20
0.303607
  0
VERTEX
  8
FOREGROUND
  6
CONTINUOUS
 10
5.481979
 20
0.316052
  0
VERTEX
  8
FOREGROUND
  6
CONTINUOUS
 10
5.515907
 20
0.328797
  0
VERTEX
  8
FOREGROUND
  6
CONTINUOUS
 10
5.549715
 20
0.341842
  0
VERTEX
  8
FOREGROUND
  6
CONTINUOUS
 10
5.583401
 20
0.355187
  0
VERTEX
  8
FOREGROUND
  6
CONTINUOUS
 10
5.616962
 20
0.368832
  0
VERTEX
  8
FOREGROUND
  6
CONTINUOUS
 10
5.650396
 20
0.382777
  0
VERTEX
  8
FOREGROUND
  6
CONTINUOUS
 10
5.683700
 20
0.397022
  0
VERTEX
  8
FOREGROUND
  6
CONTINUOUS
 10
5.716870
 20
0.411567
  0
VERTEX
  8
FOREGROUND
  6
CONTINUOUS
 10
5.749905
 20
0.426412
  0
VERTEX
  8
FOREGROUND
  6
CONTINUOUS
 10
5.782801
 20
0.441557
  0
VERTEX
  8
FOREGROUND
  6
CONTINUOUS
 10
5.815556
 20
0.457002
  0
VERTEX
  8
FOREGROUND
  6
CONTINUOUS
 10
5.848166
 20
0.472747
  0
VERTEX
  8
FOREGROUND
  6
CONTINUOUS
 10
5.880630
 20
0.488792
  0
VERTEX
  8
FOREGROUND
  6
CONTINUOUS
 10
5.912943
 20
0.505137
  0
VERTEX
  8
FOREGROUND
  6
CONTINUOUS
 10
5.945105
 20
0.521782
  0
VERTEX
  8
FOREGROUND
  6
CONTINUOUS
 10
5.977111
 20
0.538727
  0
VERTEX
  8
FOREGROUND
  6
CONTINUOUS
 10
6.008959
 20
0.555972
  0
VERTEX
  8
FOREGROUND
  6
CONTINUOUS
 10
6.040646
 20
0.573517
  0
VERTEX
  8
FOREGROUND
  6
CONTINUOUS
 10
6.072170
 20
0.591362
  0
VERTEX
  8
FOREGROUND
  6
CONTINUOUS
 10
6.103527
 20
0.609507
  0
VERTEX
  8
FOREGROUND
  6
CONTINUOUS
 10
6.134715
 20
0.627952
  0
VERTEX
  8
FOREGROUND
  6
CONTINUOUS
 10
6.165732
 20
0.646697
  0
VERTEX
  8
FOREGROUND
  6
CONTINUOUS
 10
6.196573
 20
0.665743
  0
VERTEX
  8
FOREGROUND
  6
CONTINUOUS
 10
6.227238
 20
0.685088
  0
VERTEX
  8
FOREGROUND
  6
CONTINUOUS
 10
6.257722
 20
0.704733
  0
VERTEX
  8
FOREGROUND
  6
CONTINUOUS
 10
6.288023
 20
0.724678
  0
VERTEX
  8
FOREGROUND
  6
CONTINUOUS
 10
6.318138
 20
0.744923
  0
VERTEX
  8
FOREGROUND
  6
CONTINUOUS
 10
6.348065
 20
0.765469
  0
VERTEX
  8
FOREGROUND
  6
CONTINUOUS
 10
6.377800
 20
0.786314
  0
VERTEX
  8
FOREGROUND
  6
CONTINUOUS
 10
6.407342
 20
0.807459
  0
VERTEX
  8
FOREGROUND
  6
CONTINUOUS
 10
6.436686
 20
0.828904
  0
VERTEX
  8
FOREGROUND
  6
CONTINUOUS
 10
6.465831
 20
0.850650
  0
VERTEX
  8
FOREGROUND
  6
CONTINUOUS
 10
6.494773
 20
0.872695
  0
VERTEX
  8
FOREGROUND
  6
CONTINUOUS
 10
6.523511
 20
0.895040
  0
VERTEX
  8
FOREGROUND
  6
CONTINUOUS
 10
6.552040
 20
0.917686
  0
VERTEX
  8
FOREGROUND
  6
CONTINUOUS
 10
6.580359
 20
0.940631
  0
VERTEX
  8
FOREGROUND
  6
CONTINUOUS
 10
6.608464
 20
0.963877
  0
VERTEX
  8
FOREGROUND
  6
CONTINUOUS
 10
6.636353
 20
0.987422
  0
VERTEX
  8
FOREGROUND
  6
CONTINUOUS
 10
6.664023
 20
1.011267
  0
VERTEX
  8
FOREGROUND
  6
CONTINUOUS
 10
6.691471
 20
1.035413
  0
VERTEX
  8
FOREGROUND
  6
CONTINUOUS
 10
6.718694
 20
1.059858
  0
VERTEX
  8
FOREGROUND
  6
CONTINUOUS
 10
6.745690
 20
1.084604
  0
VERTEX
  8
FOREGROUND
  6
CONTINUOUS
 10
6.772456
 20
1.109649
  0
VERTEX
  8
FOREGROUND
  6
CONTINUOUS
 10
6.798989
 20
1.134995
  0
VERTEX
  8
FOREGROUND
  6
CONTINUOUS
 10
6.825287
 20
1.160641
  0
VERTEX
  8
FOREGROUND
  6
CONTINUOUS
 10
6.851346
 20
1.186586
  0
VERTEX
  8
FOREGROUND
  6
CONTINUOUS
 10
6.877163
 20
1.212832
  0
VERTEX
  8
FOREGROUND
  6
CONTINUOUS
 10
6.902737
 20
1.239377
  0
VERTEX
  8
FOREGROUND
  6
CONTINUOUS
 10
6.928064
 20
1.266223
  0
VERTEX
  8
FOREGROUND
  6
CONTINUOUS
 10
6.953142
 20
1.293369
  0
VERTEX
  8
FOREGROUND
  6
CONTINUOUS
 10
6.977967
 20
1.320815
  0
VERTEX
  8
FOREGROUND
  6
CONTINUOUS
 10
7.002537
 20
1.348560
  0
VERTEX
  8
FOREGROUND
  6
CONTINUOUS
 10
7.026849
 20
1.376606
  0
VERTEX
  8
FOREGROUND
  6
CONTINUOUS
 10
7.050900
 20
1.404952
  0
VERTEX
  8
FOREGROUND
  6
CONTINUOUS
 10
7.074689
 20
1.433598
  0
VERTEX
  8
FOREGROUND
  6
CONTINUOUS
 10
7.098211
 20
1.462544
  0
VERTEX
  8
FOREGROUND
  6
CONTINUOUS
 10
7.121463
 20
1.491790
  0
VERTEX
  8
FOREGROUND
  6
CONTINUOUS
 10
7.144445
 20
1.521335
  0
VERTEX
  8
FOREGROUND
  6
CONTINUOUS
 10
7.167152
 20
1.551181
  0
VERTEX
  8
FOREGROUND
  6
CONTINUOUS
 10
7.189581
 20
1.581327
  0
VERTEX
  8
FOREGROUND
  6
CONTINUOUS
 10
7.211730
 20
1.611773
  0
VERTEX
  8
FOREGROUND
  6
CONTINUOUS
 10
7.233597
 20
1.642519
  0
VERTEX
  8
FOREGROUND
  6
CONTINUOUS
 10
7.255178
 20
1.673566
  0
VERTEX
  8
FOREGROUND
  6
CONTINUOUS
 10
7.276471
 20
1.704912
  0
VERTEX
  8
FOREGROUND
  6
CONTINUOUS
 10
7.297472
 20
1.736558
  0
VERTEX
  8
FOREGROUND
  6
CONTINUOUS
 10
7.318180
 20
1.768504
  0
VERTEX
  8
FOREGROUND
  6
CONTINUOUS
 10
7.338591
 20
1.800750
  0
VERTEX
  8
FOREGROUND
  6
CONTINUOUS
 10
7.358702
 20
1.833296
  0
VERTEX
  8
FOREGROUND
  6
CONTINUOUS
 10
7.378512
 20
1.866143
  0
VERTEX
  8
FOREGROUND
  6
CONTINUOUS
 10
7.398016
 20
1.899289
  0
VERTEX
  8
FOREGROUND
  6
CONTINUOUS
 10
7.417212
 20
1.932735
  0
VERTEX
  8
FOREGROUND
  6
CONTINUOUS
 10
7.436098
 20
1.966482
  0
VERTEX
  8
FOREGROUND
  6
CONTINUOUS
 10
7.454671
 20
2.000528
  0
VERTEX
  8
FOREGROUND
  6
CONTINUOUS
 10
7.472927
 20
2.034875
  0
VERTEX
  8
FOREGROUND
  6
CONTINUOUS
 10
7.490865
 20
2.069521
  0
VERTEX
  8
FOREGROUND
  6
CONTINUOUS
 10
7.508481
 20
2.104467
  0
VERTEX
  8
FOREGROUND
  6
CONTINUOUS
 10
7.525773
 20
2.139714
  0
VERTEX
  8
FOREGROUND
  6
CONTINUOUS
 10
7.542737
 20
2.175261
  0
VERTEX
  8
FOREGROUND
  6
CONTINUOUS
 10
7.559371
 20
2.211107
  0
VERTEX
  8
FOREGROUND
  6
CONTINUOUS
 10
7.575673
 20
2.247254
  0
VERTEX
  8
FOREGROUND
  6
CONTINUOUS
 10
7.591639
 20
2.283701
  0
VERTEX
  8
FOREGROUND
  6
CONTINUOUS
 10
7.607267
 20
2.320447
  0
VERTEX
  8
FOREGROUND
  6
CONTINUOUS
 10
7.622554
 20
2.357494
  0
VERTEX
  8
FOREGROUND
  6
CONTINUOUS
 10
7.637497
 20
2.394841
  0
VERTEX
  8
FOREGROUND
  6
CONTINUOUS
 10
7.652093
 20
2.432488
  0
VERTEX
  8
FOREGROUND
  6
CONTINUOUS
 10
7.666340
 20
2.470435
  0
VERTEX
  8
FOREGROUND
  6
CONTINUOUS
 10
7.680235
 20
2.508682
  0
VERTEX
  8
FOREGROUND
  6
CONTINUOUS
 10
7.693775
 20
2.547229
  0
VERTEX
  8
FOREGROUND
  6
CONTINUOUS
 10
7.706957
 20
2.586076
  0
VERTEX
  8
FOREGROUND
  6
CONTINUOUS
 10
7.719779
 20
2.625223
  0
VERTEX
  8
FOREGROUND
  6
CONTINUOUS
 10
7.732238
 20
2.664670
  0
VERTEX
  8
FOREGROUND
  6
CONTINUOUS
 10
7.744330
 20
2.704417
  0
VERTEX
  8
FOREGROUND
  6
CONTINUOUS
 10
7.756054
 20
2.744464
  0
VERTEX
  8
FOREGROUND
  6
CONTINUOUS
 10
7.767406
 20
2.784811
  0
VERTEX
  8
FOREGROUND
  6
CONTINUOUS
 10
7.778384
 20
2.825459
  0
VERTEX
  8
FOREGROUND
  6
CONTINUOUS
 10
7.788985
 20
2.866406
  0
VERTEX
  8
FOREGROUND
  6
CONTINUOUS
 10
7.799206
 20
2.907653
  0
VERTEX
  8
FOREGROUND
  6
CONTINUOUS
 10
7.809044
 20
2.949201
  0
VERTEX
  8
FOREGROUND
  6
CONTINUOUS
 10
7.818497
 20
2.991048
  0
VERTEX
  8
FOREGROUND
  6
CONTINUOUS
 10
7.827562
 20
3.033196
  0
VERTEX
  8
FOREGROUND
  6
CONTINUOUS
 10
7.836235
 20
3.075643
  0
VERTEX
  8
FOREGROUND
  6
CONTINUOUS
 10
7.844515
 20
3.118391
  0
VERTEX
  8
FOREGROUND
  6
CONTINUOUS
 10
7.852398
 20
3.161438
  0
VERTEX
  8
FOREGROUND
  6
CONTINUOUS
 10
7.859883
 20
3.204786
  0
VERTEX
  8
FOREGROUND
  6
CONTINUOUS
 10
7.866965
 20
3.248434
  0
VERTEX
  8
FOREGROUND
  6
CONTINUOUS
 10
7.873642
 20
3.292381
  0
VERTEX
  8
FOREGROUND
  6
CONTINUOUS
 10
7.879911
 20
3.336629
  0
VERTEX
  8
FOREGROUND
  6
CONTINUOUS
 10
7.885770
 20
3.381177
  0
VERTEX
  8
FOREGROUND
  6
CONTINUOUS
 10
7.891217
 20
3.426025
  0
VERTEX
  8
FOREGROUND
  6
CONTINUOUS
 10
7.896247
 20
3.471173
  0
VERTEX
  8
FOREGROUND
  6
CONTINUOUS
 10
7.900858
 20
3.516621
  0
VERTEX
  8
FOREGROUND
  6
CONTINUOUS
 10
7.905048
 20
3.562369
  0
VERTEX
  8
FOREGROUND
  6
CONTINUOUS
 10
7.908814
 20
3.608417
  0
VERTEX
  8
FOREGROUND
  6
CONTINUOUS
 10
7.912152
 20
3.654765
  0
VERTEX
  8
FOREGROUND
  6
CONTINUOUS
 10
7.915061
 20
3.701414
  0
VERTEX
  8
FOREGROUND
  6
CONTINUOUS
 10
7.917537
 20
3.748362
  0
VERTEX
  8
FOREGROUND
  6
CONTINUOUS
 10
7.919578
 20
3.795610
  0
VERTEX
  8
FOREGROUND
  6
CONTINUOUS
 10
7.921181
 20
3.843158
  0
VERTEX
  8
FOREGROUND
  6
CONTINUOUS
 10
7.922343
 20
3.891007
  0
VERTEX
  8
FOREGROUND
  6
CONTINUOUS
 10
7.923061
 20
3.939155
  0
VERTEX
  8
FOREGROUND
  6
CONTINUOUS
 10
7.923333
 20
3.987604
  0
SEQEND
  8
0
  0
ENDSEC
  0
EOF
