  0
SECTION
  2
HEADER
  9
$ACADVER
  1
AC1006
  9
$EXTMIN
 10
0.000000
 20
0.000000
  9
$EXTMAX
 10
8.761667
 20
8.761667
  9
$LTSCALE
 40
0.166667
  9
$PDMODE
 70
    35
  9
$PDSIZE
 40
0.133333
  0
ENDSEC
  0
SECTION
  2
TABLES
  0
TABLE
  2
LTYPE
 70
     9
  0
LTYPE
  2
CONTINUOUS
 70
    64
  3
Solid line
 72
    65
 73
     0
 40
0.000000
  0
LTYPE
  2
DASHED
 70
    64
  3
__ __ __ __ __ __ __ __ __ __ __ __ __ __ __
 72
    65
 73
     2
 40
0.001250
 49
0.000833
 49
-0.000417
  0
LTYPE
  2
HIDDEN
 70
    64
  3
 _ _ _ _ _ _ _ _ _ _ _ _ _ _ _ _ _ _ _ _ _ _
 72
    65
 73
     2
 40
0.000625
 49
0.000417
 49
-0.000208
  0
LTYPE
  2
CENTER
 70
    64
  3
____ _ ____ _ ____ _ ____ _ ____ _ ____ _ ____
 72
    65
 73
     4
 40
0.003333
 49
0.002083
 49
-0.000417
 49
0.000417
 49
-0.000417
  0
LTYPE
  2
PHANTOM
 70
    64
  3
_____ _ _ _____ _ _ _____ _ _ _____ _ _ ____
 72
    65
 73
     6
 40
0.004167
 49
0.002083
 49
-0.000417
 49
0.000417
 49
-0.000417
 49
0.000417
 49
-0.000417
  0
LTYPE
  2
DOT
 70
    64
  3
...............................................
 72
    65
 73
     2
 40
0.000417
 49
0.000000
 49
-0.000417
  0
LTYPE
  2
DASHDOT
 70
    64
  3
__ . __ . __ . __ . __ . __ . __ . __ . __ . __
 72
    65
 73
     4
 40
0.001667
 49
0.000833
 49
-0.000417
 49
0.000000
 49
-0.000417
  0
LTYPE
  2
BORDER
 70
    64
  3
__ __ . __ __ . __ __ . __ __ . __ __ . __ __
 72
    65
 73
     6
 40
0.002917
 49
0.000833
 49
-0.000417
 49
0.000833
 49
-0.000417
 49
0.000000
 49
-0.000417
  0
LTYPE
  2
DIVIDE
 70
    64
  3
__ . . __ . . __ . . __ . . __ . . __ . . __
 72
    65
 73
     6
 40
0.002083
 49
0.000833
 49
-0.000417
 49
0.000000
 49
-0.000417
 49
0.000000
 49
-0.000417
  0
LTYPE
  2
DOTDOT
 70
    64
  3
 . .  . .  . .  . .  . .  . . 
 72
    65
 73
     5
 40
0.000917
 49
-0.000417
 49
0.000000
 49
-0.000417
 49
0.000000
 49
-0.000417
  0
ENDTAB
  0
TABLE
  2
STYLE
 70
     2
  0
STYLE
 70
     0
  2
SN0
 40
0.000000
 41
0.001667
 50
0.000000
 71
     0
 42
0.000000
  3
ROMAND
  0
STYLE
 70
    68
  2
SV0
 40
0.000000
 41
0.001667
 50
0.000000
 71
     0
 42
0.000000
  3
ROMAND
  0
ENDTAB
  0
TABLE
  2
LAYER
 70
     2
  0
LAYER
  2
FOREGROUND
 70
    64
 62
     7
  6
CONTINUOUS
  0
LAYER
  2
BACKGROUND
 70
    65
 62
    -7
  6
CONTINUOUS
  0
ENDTAB
  0
ENDSEC
  0
SECTION
  2
ENTITIES
  0
POLYLINE
  8
FOREGROUND
  6
CONTINUOUS
 66
     1
 40
0.010000
 41
0.010000
 70
     1
  0
VERTEX
  8
FOREGROUND
  6
CONTINUOUS
 10
8.710000
 20
4.381667
  0
VERTEX
  8
FOREGROUND
  6
CONTINUOUS
 10
8.709711
 20
4.434956
  0
VERTEX
  8
FOREGROUND
  6
CONTINUOUS
 10
8.708931
 20
4.487915
  0
VERTEX
  8
FOREGROUND
  6
CONTINUOUS
 10
8.707662
 20
4.540545
  0
VERTEX
  8
FOREGROUND
  6
CONTINUOUS
 10
8.705909
 20
4.592844
  0
VERTEX
  8
FOREGROUND
  6
CONTINUOUS
 10
8.703674
 20
4.644814
  0
VERTEX
  8
FOREGROUND
  6
CONTINUOUS
 10
8.700960
 20
4.696453
  0
VERTEX
  8
FOREGROUND
  6
CONTINUOUS
 10
8.697770
 20
4.747763
  0
VERTEX
  8
FOREGROUND
  6
CONTINUOUS
 10
8.694107
 20
4.798743
  0
VERTEX
  8
FOREGROUND
  6
CONTINUOUS
 10
8.689974
 20
4.849393
  0
VERTEX
  8
FOREGROUND
  6
CONTINUOUS
 10
8.685375
 20
4.899713
  0
VERTEX
  8
FOREGROUND
  6
CONTINUOUS
 10
8.680312
 20
4.949702
  0
VERTEX
  8
FOREGROUND
  6
CONTINUOUS
 10
8.674789
 20
4.999362
  0
VERTEX
  8
FOREGROUND
  6
CONTINUOUS
 10
8.668808
 20
5.048692
  0
VERTEX
  8
FOREGROUND
  6
CONTINUOUS
 10
8.662372
 20
5.097692
  0
VERTEX
  8
FOREGROUND
  6
CONTINUOUS
 10
8.655485
 20
5.146363
  0
VERTEX
  8
FOREGROUND
  6
CONTINUOUS
 10
8.648150
 20
5.194703
  0
VERTEX
  8
FOREGROUND
  6
CONTINUOUS
 10
8.640369
 20
5.242713
  0
VERTEX
  8
FOREGROUND
  6
CONTINUOUS
 10
8.632146
 20
5.290393
  0
VERTEX
  8
FOREGROUND
  6
CONTINUOUS
 10
8.623484
 20
5.337744
  0
VERTEX
  8
FOREGROUND
  6
CONTINUOUS
 10
8.614385
 20
5.384764
  0
VERTEX
  8
FOREGROUND
  6
CONTINUOUS
 10
8.604854
 20
5.431454
  0
VERTEX
  8
FOREGROUND
  6
CONTINUOUS
 10
8.594892
 20
5.477815
  0
VERTEX
  8
FOREGROUND
  6
CONTINUOUS
 10
8.584503
 20
5.523846
  0
VERTEX
  8
FOREGROUND
  6
CONTINUOUS
 10
8.573690
 20
5.569546
  0
VERTEX
  8
FOREGROUND
  6
CONTINUOUS
 10
8.562457
 20
5.614917
  0
VERTEX
  8
FOREGROUND
  6
CONTINUOUS
 10
8.550805
 20
5.659958
  0
VERTEX
  8
FOREGROUND
  6
CONTINUOUS
 10
8.538739
 20
5.704668
  0
VERTEX
  8
FOREGROUND
  6
CONTINUOUS
 10
8.526261
 20
5.749049
  0
VERTEX
  8
FOREGROUND
  6
CONTINUOUS
 10
8.513374
 20
5.793100
  0
VERTEX
  8
FOREGROUND
  6
CONTINUOUS
 10
8.500081
 20
5.836821
  0
VERTEX
  8
FOREGROUND
  6
CONTINUOUS
 10
8.486386
 20
5.880212
  0
VERTEX
  8
FOREGROUND
  6
CONTINUOUS
 10
8.472291
 20
5.923273
  0
VERTEX
  8
FOREGROUND
  6
CONTINUOUS
 10
8.457799
 20
5.966004
  0
VERTEX
  8
FOREGROUND
  6
CONTINUOUS
 10
8.442914
 20
6.008405
  0
VERTEX
  8
FOREGROUND
  6
CONTINUOUS
 10
8.427639
 20
6.050477
  0
VERTEX
  8
FOREGROUND
  6
CONTINUOUS
 10
8.411976
 20
6.092218
  0
VERTEX
  8
FOREGROUND
  6
CONTINUOUS
 10
8.395929
 20
6.133629
  0
VERTEX
  8
FOREGROUND
  6
CONTINUOUS
 10
8.379500
 20
6.174711
  0
VERTEX
  8
FOREGROUND
  6
CONTINUOUS
 10
8.362694
 20
6.215462
  0
VERTEX
  8
FOREGROUND
  6
CONTINUOUS
 10
8.345512
 20
6.255884
  0
VERTEX
  8
FOREGROUND
  6
CONTINUOUS
 10
8.327958
 20
6.295975
  0
VERTEX
  8
FOREGROUND
  6
CONTINUOUS
 10
8.310035
 20
6.335737
  0
VERTEX
  8
FOREGROUND
  6
CONTINUOUS
 10
8.291746
 20
6.375168
  0
VERTEX
  8
FOREGROUND
  6
CONTINUOUS
 10
8.273094
 20
6.414270
  0
VERTEX
  8
FOREGROUND
  6
CONTINUOUS
 10
8.254081
 20
6.453042
  0
VERTEX
  8
FOREGROUND
  6
CONTINUOUS
 10
8.234712
 20
6.491484
  0
VERTEX
  8
FOREGROUND
  6
CONTINUOUS
 10
8.214990
 20
6.529595
  0
VERTEX
  8
FOREGROUND
  6
CONTINUOUS
 10
8.194916
 20
6.567377
  0
VERTEX
  8
FOREGROUND
  6
CONTINUOUS
 10
8.174495
 20
6.604829
  0
VERTEX
  8
FOREGROUND
  6
CONTINUOUS
 10
8.153729
 20
6.641951
  0
VERTEX
  8
FOREGROUND
  6
CONTINUOUS
 10
8.132621
 20
6.678743
  0
VERTEX
  8
FOREGROUND
  6
CONTINUOUS
 10
8.111175
 20
6.715205
  0
VERTEX
  8
FOREGROUND
  6
CONTINUOUS
 10
8.089393
 20
6.751338
  0
VERTEX
  8
FOREGROUND
  6
CONTINUOUS
 10
8.067279
 20
6.787140
  0
VERTEX
  8
FOREGROUND
  6
CONTINUOUS
 10
8.044835
 20
6.822612
  0
VERTEX
  8
FOREGROUND
  6
CONTINUOUS
 10
8.022065
 20
6.857754
  0
VERTEX
  8
FOREGROUND
  6
CONTINUOUS
 10
7.998971
 20
6.892567
  0
VERTEX
  8
FOREGROUND
  6
CONTINUOUS
 10
7.975558
 20
6.927049
  0
VERTEX
  8
FOREGROUND
  6
CONTINUOUS
 10
7.951827
 20
6.961201
  0
VERTEX
  8
FOREGROUND
  6
CONTINUOUS
 10
7.927781
 20
6.995024
  0
VERTEX
  8
FOREGROUND
  6
CONTINUOUS
 10
7.903425
 20
7.028517
  0
VERTEX
  8
FOREGROUND
  6
CONTINUOUS
 10
7.878761
 20
7.061679
  0
VERTEX
  8
FOREGROUND
  6
CONTINUOUS
 10
7.853791
 20
7.094512
  0
VERTEX
  8
FOREGROUND
  6
CONTINUOUS
 10
7.828520
 20
7.127014
  0
VERTEX
  8
FOREGROUND
  6
CONTINUOUS
 10
7.802950
 20
7.159187
  0
VERTEX
  8
FOREGROUND
  6
CONTINUOUS
 10
7.777083
 20
7.191030
  0
VERTEX
  8
FOREGROUND
  6
CONTINUOUS
 10
7.750924
 20
7.222543
  0
VERTEX
  8
FOREGROUND
  6
CONTINUOUS
 10
7.724475
 20
7.253726
  0
VERTEX
  8
FOREGROUND
  6
CONTINUOUS
 10
7.697740
 20
7.284579
  0
VERTEX
  8
FOREGROUND
  6
CONTINUOUS
 10
7.670720
 20
7.315102
  0
VERTEX
  8
FOREGROUND
  6
CONTINUOUS
 10
7.643420
 20
7.345295
  0
VERTEX
  8
FOREGROUND
  6
CONTINUOUS
 10
7.615843
 20
7.375158
  0
VERTEX
  8
FOREGROUND
  6
CONTINUOUS
 10
7.587991
 20
7.404691
  0
VERTEX
  8
FOREGROUND
  6
CONTINUOUS
 10
7.559867
 20
7.433894
  0
VERTEX
  8
FOREGROUND
  6
CONTINUOUS
 10
7.531475
 20
7.462767
  0
VERTEX
  8
FOREGROUND
  6
CONTINUOUS
 10
7.502818
 20
7.491311
  0
VERTEX
  8
FOREGROUND
  6
CONTINUOUS
 10
7.473898
 20
7.519524
  0
VERTEX
  8
FOREGROUND
  6
CONTINUOUS
 10
7.444719
 20
7.547407
  0
VERTEX
  8
FOREGROUND
  6
CONTINUOUS
 10
7.415284
 20
7.574961
  0
VERTEX
  8
FOREGROUND
  6
CONTINUOUS
 10
7.385596
 20
7.602184
  0
VERTEX
  8
FOREGROUND
  6
CONTINUOUS
 10
7.355657
 20
7.629078
  0
VERTEX
  8
FOREGROUND
  6
CONTINUOUS
 10
7.325472
 20
7.655641
  0
VERTEX
  8
FOREGROUND
  6
CONTINUOUS
 10
7.295042
 20
7.681875
  0
VERTEX
  8
FOREGROUND
  6
CONTINUOUS
 10
7.264371
 20
7.707779
  0
VERTEX
  8
FOREGROUND
  6
CONTINUOUS
 10
7.233463
 20
7.733352
  0
VERTEX
  8
FOREGROUND
  6
CONTINUOUS
 10
7.202319
 20
7.758596
  0
VERTEX
  8
FOREGROUND
  6
CONTINUOUS
 10
7.170944
 20
7.783510
  0
VERTEX
  8
FOREGROUND
  6
CONTINUOUS
 10
7.139340
 20
7.808094
  0
VERTEX
  8
FOREGROUND
  6
CONTINUOUS
 10
7.107510
 20
7.832348
  0
VERTEX
  8
FOREGROUND
  6
CONTINUOUS
 10
7.075458
 20
7.856272
  0
VERTEX
  8
FOREGROUND
  6
CONTINUOUS
 10
7.043186
 20
7.879866
  0
VERTEX
  8
FOREGROUND
  6
CONTINUOUS
 10
7.010697
 20
7.903130
  0
VERTEX
  8
FOREGROUND
  6
CONTINUOUS
 10
6.977995
 20
7.926064
  0
VERTEX
  8
FOREGROUND
  6
CONTINUOUS
 10
6.945082
 20
7.948668
  0
VERTEX
  8
FOREGROUND
  6
CONTINUOUS
 10
6.911962
 20
7.970942
  0
VERTEX
  8
FOREGROUND
  6
CONTINUOUS
 10
6.878637
 20
7.992886
  0
VERTEX
  8
FOREGROUND
  6
CONTINUOUS
 10
6.845112
 20
8.014500
  0
VERTEX
  8
FOREGROUND
  6
CONTINUOUS
 10
6.811388
 20
8.035785
  0
VERTEX
  8
FOREGROUND
  6
CONTINUOUS
 10
6.777468
 20
8.056739
  0
VERTEX
  8
FOREGROUND
  6
CONTINUOUS
 10
6.743357
 20
8.077363
  0
VERTEX
  8
FOREGROUND
  6
CONTINUOUS
 10
6.709056
 20
8.097658
  0
VERTEX
  8
FOREGROUND
  6
CONTINUOUS
 10
6.674569
 20
8.117622
  0
VERTEX
  8
FOREGROUND
  6
CONTINUOUS
 10
6.639900
 20
8.137257
  0
VERTEX
  8
FOREGROUND
  6
CONTINUOUS
 10
6.605050
 20
8.156561
  0
VERTEX
  8
FOREGROUND
  6
CONTINUOUS
 10
6.570023
 20
8.175536
  0
VERTEX
  8
FOREGROUND
  6
CONTINUOUS
 10
6.534823
 20
8.194181
  0
VERTEX
  8
FOREGROUND
  6
CONTINUOUS
 10
6.499451
 20
8.212495
  0
VERTEX
  8
FOREGROUND
  6
CONTINUOUS
 10
6.463912
 20
8.230480
  0
VERTEX
  8
FOREGROUND
  6
CONTINUOUS
 10
6.428208
 20
8.248135
  0
VERTEX
  8
FOREGROUND
  6
CONTINUOUS
 10
6.392343
 20
8.265460
  0
VERTEX
  8
FOREGROUND
  6
CONTINUOUS
 10
6.356318
 20
8.282454
  0
VERTEX
  8
FOREGROUND
  6
CONTINUOUS
 10
6.320139
 20
8.299119
  0
VERTEX
  8
FOREGROUND
  6
CONTINUOUS
 10
6.283806
 20
8.315454
  0
VERTEX
  8
FOREGROUND
  6
CONTINUOUS
 10
6.247325
 20
8.331459
  0
VERTEX
  8
FOREGROUND
  6
CONTINUOUS
 10
6.210696
 20
8.347134
  0
VERTEX
  8
FOREGROUND
  6
CONTINUOUS
 10
6.173925
 20
8.362479
  0
VERTEX
  8
FOREGROUND
  6
CONTINUOUS
 10
6.137013
 20
8.377494
  0
VERTEX
  8
FOREGROUND
  6
CONTINUOUS
 10
6.099964
 20
8.392180
  0
VERTEX
  8
FOREGROUND
  6
CONTINUOUS
 10
6.062780
 20
8.406535
  0
VERTEX
  8
FOREGROUND
  6
CONTINUOUS
 10
6.025466
 20
8.420560
  0
VERTEX
  8
FOREGROUND
  6
CONTINUOUS
 10
5.988023
 20
8.434255
  0
VERTEX
  8
FOREGROUND
  6
CONTINUOUS
 10
5.950455
 20
8.447621
  0
VERTEX
  8
FOREGROUND
  6
CONTINUOUS
 10
5.912766
 20
8.460656
  0
VERTEX
  8
FOREGROUND
  6
CONTINUOUS
 10
5.874957
 20
8.473361
  0
VERTEX
  8
FOREGROUND
  6
CONTINUOUS
 10
5.837032
 20
8.485737
  0
VERTEX
  8
FOREGROUND
  6
CONTINUOUS
 10
5.798995
 20
8.497782
  0
VERTEX
  8
FOREGROUND
  6
CONTINUOUS
 10
5.760847
 20
8.509498
  0
VERTEX
  8
FOREGROUND
  6
CONTINUOUS
 10
5.722593
 20
8.520883
  0
VERTEX
  8
FOREGROUND
  6
CONTINUOUS
 10
5.684235
 20
8.531939
  0
VERTEX
  8
FOREGROUND
  6
CONTINUOUS
 10
5.645777
 20
8.542665
  0
VERTEX
  8
FOREGROUND
  6
CONTINUOUS
 10
5.607221
 20
8.553060
  0
VERTEX
  8
FOREGROUND
  6
CONTINUOUS
 10
5.568570
 20
8.563126
  0
VERTEX
  8
FOREGROUND
  6
CONTINUOUS
 10
5.529828
 20
8.572862
  0
VERTEX
  8
FOREGROUND
  6
CONTINUOUS
 10
5.490997
 20
8.582267
  0
VERTEX
  8
FOREGROUND
  6
CONTINUOUS
 10
5.452081
 20
8.591343
  0
VERTEX
  8
FOREGROUND
  6
CONTINUOUS
 10
5.413082
 20
8.600089
  0
VERTEX
  8
FOREGROUND
  6
CONTINUOUS
 10
5.374004
 20
8.608505
  0
VERTEX
  8
FOREGROUND
  6
CONTINUOUS
 10
5.334850
 20
8.616591
  0
VERTEX
  8
FOREGROUND
  6
CONTINUOUS
 10
5.295623
 20
8.624347
  0
VERTEX
  8
FOREGROUND
  6
CONTINUOUS
 10
5.256325
 20
8.631773
  0
VERTEX
  8
FOREGROUND
  6
CONTINUOUS
 10
5.216961
 20
8.638869
  0
VERTEX
  8
FOREGROUND
  6
CONTINUOUS
 10
5.177532
 20
8.645635
  0
VERTEX
  8
FOREGROUND
  6
CONTINUOUS
 10
5.138042
 20
8.652071
  0
VERTEX
  8
FOREGROUND
  6
CONTINUOUS
 10
5.098495
 20
8.658178
  0
VERTEX
  8
FOREGROUND
  6
CONTINUOUS
 10
5.058892
 20
8.663954
  0
VERTEX
  8
FOREGROUND
  6
CONTINUOUS
 10
5.019237
 20
8.669400
  0
VERTEX
  8
FOREGROUND
  6
CONTINUOUS
 10
4.979534
 20
8.674516
  0
VERTEX
  8
FOREGROUND
  6
CONTINUOUS
 10
4.939785
 20
8.679303
  0
VERTEX
  8
FOREGROUND
  6
CONTINUOUS
 10
4.899993
 20
8.683759
  0
VERTEX
  8
FOREGROUND
  6
CONTINUOUS
 10
4.860162
 20
8.687885
  0
VERTEX
  8
FOREGROUND
  6
CONTINUOUS
 10
4.820294
 20
8.691682
  0
VERTEX
  8
FOREGROUND
  6
CONTINUOUS
 10
4.780392
 20
8.695148
  0
VERTEX
  8
FOREGROUND
  6
CONTINUOUS
 10
4.740460
 20
8.698285
  0
VERTEX
  8
FOREGROUND
  6
CONTINUOUS
 10
4.700500
 20
8.701091
  0
VERTEX
  8
FOREGROUND
  6
CONTINUOUS
 10
4.660516
 20
8.703568
  0
VERTEX
  8
FOREGROUND
  6
CONTINUOUS
 10
4.620511
 20
8.705715
  0
VERTEX
  8
FOREGROUND
  6
CONTINUOUS
 10
4.580487
 20
8.707531
  0
VERTEX
  8
FOREGROUND
  6
CONTINUOUS
 10
4.540448
 20
8.709018
  0
VERTEX
  8
FOREGROUND
  6
CONTINUOUS
 10
4.500397
 20
8.710175
  0
VERTEX
  8
FOREGROUND
  6
CONTINUOUS
 10
4.460337
 20
8.711001
  0
VERTEX
  8
FOREGROUND
  6
CONTINUOUS
 10
4.420270
 20
8.711498
  0
VERTEX
  8
FOREGROUND
  6
CONTINUOUS
 10
4.380201
 20
8.711665
  0
VERTEX
  8
FOREGROUND
  6
CONTINUOUS
 10
4.340131
 20
8.711502
  0
VERTEX
  8
FOREGROUND
  6
CONTINUOUS
 10
4.300064
 20
8.711009
  0
VERTEX
  8
FOREGROUND
  6
CONTINUOUS
 10
4.260004
 20
8.710186
  0
VERTEX
  8
FOREGROUND
  6
CONTINUOUS
 10
4.219953
 20
8.709033
  0
VERTEX
  8
FOREGROUND
  6
CONTINUOUS
 10
4.179914
 20
8.707550
  0
VERTEX
  8
FOREGROUND
  6
CONTINUOUS
 10
4.139890
 20
8.705737
  0
VERTEX
  8
FOREGROUND
  6
CONTINUOUS
 10
4.099884
 20
8.703594
  0
VERTEX
  8
FOREGROUND
  6
CONTINUOUS
 10
4.059900
 20
8.701121
  0
VERTEX
  8
FOREGROUND
  6
CONTINUOUS
 10
4.019940
 20
8.698318
  0
VERTEX
  8
FOREGROUND
  6
CONTINUOUS
 10
3.980007
 20
8.695185
  0
VERTEX
  8
FOREGROUND
  6
CONTINUOUS
 10
3.940106
 20
8.691723
  0
VERTEX
  8
FOREGROUND
  6
CONTINUOUS
 10
3.900237
 20
8.687930
  0
VERTEX
  8
FOREGROUND
  6
CONTINUOUS
 10
3.860405
 20
8.683807
  0
VERTEX
  8
FOREGROUND
  6
CONTINUOUS
 10
3.820613
 20
8.679355
  0
VERTEX
  8
FOREGROUND
  6
CONTINUOUS
 10
3.780864
 20
8.674572
  0
VERTEX
  8
FOREGROUND
  6
CONTINUOUS
 10
3.741160
 20
8.669459
  0
VERTEX
  8
FOREGROUND
  6
CONTINUOUS
 10
3.701505
 20
8.664017
  0
VERTEX
  8
FOREGROUND
  6
CONTINUOUS
 10
3.661902
 20
8.658244
  0
VERTEX
  8
FOREGROUND
  6
CONTINUOUS
 10
3.622353
 20
8.652142
  0
VERTEX
  8
FOREGROUND
  6
CONTINUOUS
 10
3.582863
 20
8.645709
  0
VERTEX
  8
FOREGROUND
  6
CONTINUOUS
 10
3.543434
 20
8.638947
  0
VERTEX
  8
FOREGROUND
  6
CONTINUOUS
 10
3.504068
 20
8.631854
  0
VERTEX
  8
FOREGROUND
  6
CONTINUOUS
 10
3.464770
 20
8.624432
  0
VERTEX
  8
FOREGROUND
  6
CONTINUOUS
 10
3.425542
 20
8.616679
  0
VERTEX
  8
FOREGROUND
  6
CONTINUOUS
 10
3.386387
 20
8.608597
  0
VERTEX
  8
FOREGROUND
  6
CONTINUOUS
 10
3.347309
 20
8.600185
  0
VERTEX
  8
FOREGROUND
  6
CONTINUOUS
 10
3.308309
 20
8.591443
  0
VERTEX
  8
FOREGROUND
  6
CONTINUOUS
 10
3.269392
 20
8.582370
  0
VERTEX
  8
FOREGROUND
  6
CONTINUOUS
 10
3.230561
 20
8.572968
  0
VERTEX
  8
FOREGROUND
  6
CONTINUOUS
 10
3.191818
 20
8.563236
  0
VERTEX
  8
FOREGROUND
  6
CONTINUOUS
 10
3.153166
 20
8.553174
  0
VERTEX
  8
FOREGROUND
  6
CONTINUOUS
 10
3.114609
 20
8.542782
  0
VERTEX
  8
FOREGROUND
  6
CONTINUOUS
 10
3.076149
 20
8.532060
  0
VERTEX
  8
FOREGROUND
  6
CONTINUOUS
 10
3.037790
 20
8.521008
  0
VERTEX
  8
FOREGROUND
  6
CONTINUOUS
 10
2.999535
 20
8.509626
  0
VERTEX
  8
FOREGROUND
  6
CONTINUOUS
 10
2.961387
 20
8.497914
  0
VERTEX
  8
FOREGROUND
  6
CONTINUOUS
 10
2.923348
 20
8.485872
  0
VERTEX
  8
FOREGROUND
  6
CONTINUOUS
 10
2.885422
 20
8.473500
  0
VERTEX
  8
FOREGROUND
  6
CONTINUOUS
 10
2.847612
 20
8.460798
  0
VERTEX
  8
FOREGROUND
  6
CONTINUOUS
 10
2.809921
 20
8.447766
  0
VERTEX
  8
FOREGROUND
  6
CONTINUOUS
 10
2.772352
 20
8.434404
  0
VERTEX
  8
FOREGROUND
  6
CONTINUOUS
 10
2.734908
 20
8.420712
  0
VERTEX
  8
FOREGROUND
  6
CONTINUOUS
 10
2.697592
 20
8.406691
  0
VERTEX
  8
FOREGROUND
  6
CONTINUOUS
 10
2.660408
 20
8.392339
  0
VERTEX
  8
FOREGROUND
  6
CONTINUOUS
 10
2.623357
 20
8.377657
  0
VERTEX
  8
FOREGROUND
  6
CONTINUOUS
 10
2.586444
 20
8.362645
  0
VERTEX
  8
FOREGROUND
  6
CONTINUOUS
 10
2.549671
 20
8.347304
  0
VERTEX
  8
FOREGROUND
  6
CONTINUOUS
 10
2.513041
 20
8.331632
  0
VERTEX
  8
FOREGROUND
  6
CONTINUOUS
 10
2.476558
 20
8.315631
  0
VERTEX
  8
FOREGROUND
  6
CONTINUOUS
 10
2.440224
 20
8.299299
  0
VERTEX
  8
FOREGROUND
  6
CONTINUOUS
 10
2.404043
 20
8.282637
  0
VERTEX
  8
FOREGROUND
  6
CONTINUOUS
 10
2.368017
 20
8.265646
  0
VERTEX
  8
FOREGROUND
  6
CONTINUOUS
 10
2.332150
 20
8.248324
  0
VERTEX
  8
FOREGROUND
  6
CONTINUOUS
 10
2.296445
 20
8.230673
  0
VERTEX
  8
FOREGROUND
  6
CONTINUOUS
 10
2.260904
 20
8.212692
  0
VERTEX
  8
FOREGROUND
  6
CONTINUOUS
 10
2.225531
 20
8.194380
  0
VERTEX
  8
FOREGROUND
  6
CONTINUOUS
 10
2.190328
 20
8.175739
  0
VERTEX
  8
FOREGROUND
  6
CONTINUOUS
 10
2.155300
 20
8.156767
  0
VERTEX
  8
FOREGROUND
  6
CONTINUOUS
 10
2.120448
 20
8.137466
  0
VERTEX
  8
FOREGROUND
  6
CONTINUOUS
 10
2.085777
 20
8.117835
  0
VERTEX
  8
FOREGROUND
  6
CONTINUOUS
 10
2.051288
 20
8.097874
  0
VERTEX
  8
FOREGROUND
  6
CONTINUOUS
 10
2.016986
 20
8.077582
  0
VERTEX
  8
FOREGROUND
  6
CONTINUOUS
 10
1.982872
 20
8.056961
  0
VERTEX
  8
FOREGROUND
  6
CONTINUOUS
 10
1.948951
 20
8.036010
  0
VERTEX
  8
FOREGROUND
  6
CONTINUOUS
 10
1.915225
 20
8.014729
  0
VERTEX
  8
FOREGROUND
  6
CONTINUOUS
 10
1.881697
 20
7.993118
  0
VERTEX
  8
FOREGROUND
  6
CONTINUOUS
 10
1.848371
 20
7.971176
  0
VERTEX
  8
FOREGROUND
  6
CONTINUOUS
 10
1.815248
 20
7.948905
  0
VERTEX
  8
FOREGROUND
  6
CONTINUOUS
 10
1.782334
 20
7.926304
  0
VERTEX
  8
FOREGROUND
  6
CONTINUOUS
 10
1.749629
 20
7.903373
  0
VERTEX
  8
FOREGROUND
  6
CONTINUOUS
 10
1.717138
 20
7.880112
  0
VERTEX
  8
FOREGROUND
  6
CONTINUOUS
 10
1.684864
 20
7.856521
  0
VERTEX
  8
FOREGROUND
  6
CONTINUOUS
 10
1.652809
 20
7.832600
  0
VERTEX
  8
FOREGROUND
  6
CONTINUOUS
 10
1.620977
 20
7.808349
  0
VERTEX
  8
FOREGROUND
  6
CONTINUOUS
 10
1.589371
 20
7.783768
  0
VERTEX
  8
FOREGROUND
  6
CONTINUOUS
 10
1.557994
 20
7.758858
  0
VERTEX
  8
FOREGROUND
  6
CONTINUOUS
 10
1.526848
 20
7.733617
  0
VERTEX
  8
FOREGROUND
  6
CONTINUOUS
 10
1.495937
 20
7.708046
  0
VERTEX
  8
FOREGROUND
  6
CONTINUOUS
 10
1.465264
 20
7.682145
  0
VERTEX
  8
FOREGROUND
  6
CONTINUOUS
 10
1.434832
 20
7.655914
  0
VERTEX
  8
FOREGROUND
  6
CONTINUOUS
 10
1.404644
 20
7.629354
  0
VERTEX
  8
FOREGROUND
  6
CONTINUOUS
 10
1.374703
 20
7.602463
  0
VERTEX
  8
FOREGROUND
  6
CONTINUOUS
 10
1.345012
 20
7.575242
  0
VERTEX
  8
FOREGROUND
  6
CONTINUOUS
 10
1.315574
 20
7.547691
  0
VERTEX
  8
FOREGROUND
  6
CONTINUOUS
 10
1.286392
 20
7.519811
  0
VERTEX
  8
FOREGROUND
  6
CONTINUOUS
 10
1.257470
 20
7.491600
  0
VERTEX
  8
FOREGROUND
  6
CONTINUOUS
 10
1.228810
 20
7.463059
  0
VERTEX
  8
FOREGROUND
  6
CONTINUOUS
 10
1.200415
 20
7.434189
  0
VERTEX
  8
FOREGROUND
  6
CONTINUOUS
 10
1.172289
 20
7.404988
  0
VERTEX
  8
FOREGROUND
  6
CONTINUOUS
 10
1.144434
 20
7.375458
  0
VERTEX
  8
FOREGROUND
  6
CONTINUOUS
 10
1.116854
 20
7.345597
  0
VERTEX
  8
FOREGROUND
  6
CONTINUOUS
 10
1.089551
 20
7.315407
  0
VERTEX
  8
FOREGROUND
  6
CONTINUOUS
 10
1.062529
 20
7.284886
  0
VERTEX
  8
FOREGROUND
  6
CONTINUOUS
 10
1.035791
 20
7.254036
  0
VERTEX
  8
FOREGROUND
  6
CONTINUOUS
 10
1.009339
 20
7.222855
  0
VERTEX
  8
FOREGROUND
  6
CONTINUOUS
 10
0.983177
 20
7.191345
  0
VERTEX
  8
FOREGROUND
  6
CONTINUOUS
 10
0.957308
 20
7.159504
  0
VERTEX
  8
FOREGROUND
  6
CONTINUOUS
 10
0.931735
 20
7.127334
  0
VERTEX
  8
FOREGROUND
  6
CONTINUOUS
 10
0.906460
 20
7.094834
  0
VERTEX
  8
FOREGROUND
  6
CONTINUOUS
 10
0.881488
 20
7.062003
  0
VERTEX
  8
FOREGROUND
  6
CONTINUOUS
 10
0.856820
 20
7.028843
  0
VERTEX
  8
FOREGROUND
  6
CONTINUOUS
 10
0.832461
 20
6.995353
  0
VERTEX
  8
FOREGROUND
  6
CONTINUOUS
 10
0.808412
 20
6.961532
  0
VERTEX
  8
FOREGROUND
  6
CONTINUOUS
 10
0.784678
 20
6.927382
  0
VERTEX
  8
FOREGROUND
  6
CONTINUOUS
 10
0.761261
 20
6.892902
  0
VERTEX
  8
FOREGROUND
  6
CONTINUOUS
 10
0.738165
 20
6.858092
  0
VERTEX
  8
FOREGROUND
  6
CONTINUOUS
 10
0.715391
 20
6.822952
  0
VERTEX
  8
FOREGROUND
  6
CONTINUOUS
 10
0.692944
 20
6.787481
  0
VERTEX
  8
FOREGROUND
  6
CONTINUOUS
 10
0.670827
 20
6.751681
  0
VERTEX
  8
FOREGROUND
  6
CONTINUOUS
 10
0.649041
 20
6.715551
  0
VERTEX
  8
FOREGROUND
  6
CONTINUOUS
 10
0.627592
 20
6.679091
  0
VERTEX
  8
FOREGROUND
  6
CONTINUOUS
 10
0.606481
 20
6.642301
  0
VERTEX
  8
FOREGROUND
  6
CONTINUOUS
 10
0.585711
 20
6.605181
  0
VERTEX
  8
FOREGROUND
  6
CONTINUOUS
 10
0.565286
 20
6.567731
  0
VERTEX
  8
FOREGROUND
  6
CONTINUOUS
 10
0.545209
 20
6.529951
  0
VERTEX
  8
FOREGROUND
  6
CONTINUOUS
 10
0.525483
 20
6.491841
  0
VERTEX
  8
FOREGROUND
  6
CONTINUOUS
 10
0.506111
 20
6.453401
  0
VERTEX
  8
FOREGROUND
  6
CONTINUOUS
 10
0.487095
 20
6.414631
  0
VERTEX
  8
FOREGROUND
  6
CONTINUOUS
 10
0.468439
 20
6.375531
  0
VERTEX
  8
FOREGROUND
  6
CONTINUOUS
 10
0.450146
 20
6.336101
  0
VERTEX
  8
FOREGROUND
  6
CONTINUOUS
 10
0.432220
 20
6.296341
  0
VERTEX
  8
FOREGROUND
  6
CONTINUOUS
 10
0.414662
 20
6.256251
  0
VERTEX
  8
FOREGROUND
  6
CONTINUOUS
 10
0.397476
 20
6.215831
  0
VERTEX
  8
FOREGROUND
  6
CONTINUOUS
 10
0.380666
 20
6.175081
  0
VERTEX
  8
FOREGROUND
  6
CONTINUOUS
 10
0.364233
 20
6.134001
  0
VERTEX
  8
FOREGROUND
  6
CONTINUOUS
 10
0.348183
 20
6.092591
  0
VERTEX
  8
FOREGROUND
  6
CONTINUOUS
 10
0.332516
 20
6.050852
  0
VERTEX
  8
FOREGROUND
  6
CONTINUOUS
 10
0.317237
 20
6.008782
  0
VERTEX
  8
FOREGROUND
  6
CONTINUOUS
 10
0.302348
 20
5.966382
  0
VERTEX
  8
FOREGROUND
  6
CONTINUOUS
 10
0.287852
 20
5.923652
  0
VERTEX
  8
FOREGROUND
  6
CONTINUOUS
 10
0.273753
 20
5.880593
  0
VERTEX
  8
FOREGROUND
  6
CONTINUOUS
 10
0.260054
 20
5.837203
  0
VERTEX
  8
FOREGROUND
  6
CONTINUOUS
 10
0.246757
 20
5.793483
  0
VERTEX
  8
FOREGROUND
  6
CONTINUOUS
 10
0.233866
 20
5.749433
  0
VERTEX
  8
FOREGROUND
  6
CONTINUOUS
 10
0.221384
 20
5.705054
  0
VERTEX
  8
FOREGROUND
  6
CONTINUOUS
 10
0.209313
 20
5.660344
  0
VERTEX
  8
FOREGROUND
  6
CONTINUOUS
 10
0.197657
 20
5.615304
  0
VERTEX
  8
FOREGROUND
  6
CONTINUOUS
 10
0.186420
 20
5.569935
  0
VERTEX
  8
FOREGROUND
  6
CONTINUOUS
 10
0.175603
 20
5.524235
  0
VERTEX
  8
FOREGROUND
  6
CONTINUOUS
 10
0.165210
 20
5.478206
  0
VERTEX
  8
FOREGROUND
  6
CONTINUOUS
 10
0.155244
 20
5.431846
  0
VERTEX
  8
FOREGROUND
  6
CONTINUOUS
 10
0.145708
 20
5.385156
  0
VERTEX
  8
FOREGROUND
  6
CONTINUOUS
 10
0.136605
 20
5.338137
  0
VERTEX
  8
FOREGROUND
  6
CONTINUOUS
 10
0.127938
 20
5.290787
  0
VERTEX
  8
FOREGROUND
  6
CONTINUOUS
 10
0.119711
 20
5.243108
  0
VERTEX
  8
FOREGROUND
  6
CONTINUOUS
 10
0.111926
 20
5.195098
  0
VERTEX
  8
FOREGROUND
  6
CONTINUOUS
 10
0.104586
 20
5.146759
  0
VERTEX
  8
FOREGROUND
  6
CONTINUOUS
 10
0.097694
 20
5.098089
  0
VERTEX
  8
FOREGROUND
  6
CONTINUOUS
 10
0.091254
 20
5.049090
  0
VERTEX
  8
FOREGROUND
  6
CONTINUOUS
 10
0.085268
 20
4.999760
  0
VERTEX
  8
FOREGROUND
  6
CONTINUOUS
 10
0.079740
 20
4.950101
  0
VERTEX
  8
FOREGROUND
  6
CONTINUOUS
 10
0.074673
 20
4.900111
  0
VERTEX
  8
FOREGROUND
  6
CONTINUOUS
 10
0.070069
 20
4.849792
  0
VERTEX
  8
FOREGROUND
  6
CONTINUOUS
 10
0.065932
 20
4.799143
  0
VERTEX
  8
FOREGROUND
  6
CONTINUOUS
 10
0.062264
 20
4.748163
  0
VERTEX
  8
FOREGROUND
  6
CONTINUOUS
 10
0.059070
 20
4.696854
  0
VERTEX
  8
FOREGROUND
  6
CONTINUOUS
 10
0.056351
 20
4.645214
  0
VERTEX
  8
FOREGROUND
  6
CONTINUOUS
 10
0.054111
 20
4.593245
  0
VERTEX
  8
FOREGROUND
  6
CONTINUOUS
 10
0.052352
 20
4.540946
  0
VERTEX
  8
FOREGROUND
  6
CONTINUOUS
 10
0.051079
 20
4.488316
  0
VERTEX
  8
FOREGROUND
  6
CONTINUOUS
 10
0.050294
 20
4.435357
  0
VERTEX
  8
FOREGROUND
  6
CONTINUOUS
 10
0.050000
 20
4.382068
  0
VERTEX
  8
FOREGROUND
  6
CONTINUOUS
 10
0.050000
 20
4.382068
  0
VERTEX
  8
FOREGROUND
  6
CONTINUOUS
 10
0.050284
 20
4.328779
  0
VERTEX
  8
FOREGROUND
  6
CONTINUOUS
 10
0.051060
 20
4.275819
  0
VERTEX
  8
FOREGROUND
  6
CONTINUOUS
 10
0.052323
 20
4.223189
  0
VERTEX
  8
FOREGROUND
  6
CONTINUOUS
 10
0.054071
 20
4.170890
  0
VERTEX
  8
FOREGROUND
  6
CONTINUOUS
 10
0.056302
 20
4.118920
  0
VERTEX
  8
FOREGROUND
  6
CONTINUOUS
 10
0.059011
 20
4.067280
  0
VERTEX
  8
FOREGROUND
  6
CONTINUOUS
 10
0.062196
 20
4.015970
  0
VERTEX
  8
FOREGROUND
  6
CONTINUOUS
 10
0.065854
 20
3.964990
  0
VERTEX
  8
FOREGROUND
  6
CONTINUOUS
 10
0.069982
 20
3.914340
  0
VERTEX
  8
FOREGROUND
  6
CONTINUOUS
 10
0.074577
 20
3.864020
  0
VERTEX
  8
FOREGROUND
  6
CONTINUOUS
 10
0.079635
 20
3.814029
  0
VERTEX
  8
FOREGROUND
  6
CONTINUOUS
 10
0.085154
 20
3.764369
  0
VERTEX
  8
FOREGROUND
  6
CONTINUOUS
 10
0.091130
 20
3.715038
  0
VERTEX
  8
FOREGROUND
  6
CONTINUOUS
 10
0.097561
 20
3.666038
  0
VERTEX
  8
FOREGROUND
  6
CONTINUOUS
 10
0.104444
 20
3.617367
  0
VERTEX
  8
FOREGROUND
  6
CONTINUOUS
 10
0.111775
 20
3.569026
  0
VERTEX
  8
FOREGROUND
  6
CONTINUOUS
 10
0.119551
 20
3.521015
  0
VERTEX
  8
FOREGROUND
  6
CONTINUOUS
 10
0.127770
 20
3.473334
  0
VERTEX
  8
FOREGROUND
  6
CONTINUOUS
 10
0.136428
 20
3.425983
  0
VERTEX
  8
FOREGROUND
  6
CONTINUOUS
 10
0.145522
 20
3.378962
  0
VERTEX
  8
FOREGROUND
  6
CONTINUOUS
 10
0.155049
 20
3.332270
  0
VERTEX
  8
FOREGROUND
  6
CONTINUOUS
 10
0.165006
 20
3.285909
  0
VERTEX
  8
FOREGROUND
  6
CONTINUOUS
 10
0.175391
 20
3.239877
  0
VERTEX
  8
FOREGROUND
  6
CONTINUOUS
 10
0.186199
 20
3.194176
  0
VERTEX
  8
FOREGROUND
  6
CONTINUOUS
 10
0.197429
 20
3.148804
  0
VERTEX
  8
FOREGROUND
  6
CONTINUOUS
 10
0.209076
 20
3.103762
  0
VERTEX
  8
FOREGROUND
  6
CONTINUOUS
 10
0.221139
 20
3.059050
  0
VERTEX
  8
FOREGROUND
  6
CONTINUOUS
 10
0.233613
 20
3.014668
  0
VERTEX
  8
FOREGROUND
  6
CONTINUOUS
 10
0.246496
 20
2.970616
  0
VERTEX
  8
FOREGROUND
  6
CONTINUOUS
 10
0.259784
 20
2.926894
  0
VERTEX
  8
FOREGROUND
  6
CONTINUOUS
 10
0.273476
 20
2.883502
  0
VERTEX
  8
FOREGROUND
  6
CONTINUOUS
 10
0.287567
 20
2.840439
  0
VERTEX
  8
FOREGROUND
  6
CONTINUOUS
 10
0.302054
 20
2.797707
  0
VERTEX
  8
FOREGROUND
  6
CONTINUOUS
 10
0.316935
 20
2.755304
  0
VERTEX
  8
FOREGROUND
  6
CONTINUOUS
 10
0.332207
 20
2.713232
  0
VERTEX
  8
FOREGROUND
  6
CONTINUOUS
 10
0.347866
 20
2.671489
  0
VERTEX
  8
FOREGROUND
  6
CONTINUOUS
 10
0.363909
 20
2.630076
  0
VERTEX
  8
FOREGROUND
  6
CONTINUOUS
 10
0.380333
 20
2.588993
  0
VERTEX
  8
FOREGROUND
  6
CONTINUOUS
 10
0.397136
 20
2.548240
  0
VERTEX
  8
FOREGROUND
  6
CONTINUOUS
 10
0.414314
 20
2.507817
  0
VERTEX
  8
FOREGROUND
  6
CONTINUOUS
 10
0.431865
 20
2.467724
  0
VERTEX
  8
FOREGROUND
  6
CONTINUOUS
 10
0.449784
 20
2.427961
  0
VERTEX
  8
FOREGROUND
  6
CONTINUOUS
 10
0.468070
 20
2.388528
  0
VERTEX
  8
FOREGROUND
  6
CONTINUOUS
 10
0.486718
 20
2.349424
  0
VERTEX
  8
FOREGROUND
  6
CONTINUOUS
 10
0.505727
 20
2.310651
  0
VERTEX
  8
FOREGROUND
  6
CONTINUOUS
 10
0.525092
 20
2.272207
  0
VERTEX
  8
FOREGROUND
  6
CONTINUOUS
 10
0.544811
 20
2.234093
  0
VERTEX
  8
FOREGROUND
  6
CONTINUOUS
 10
0.564881
 20
2.196310
  0
VERTEX
  8
FOREGROUND
  6
CONTINUOUS
 10
0.585299
 20
2.158856
  0
VERTEX
  8
FOREGROUND
  6
CONTINUOUS
 10
0.606062
 20
2.121732
  0
VERTEX
  8
FOREGROUND
  6
CONTINUOUS
 10
0.627166
 20
2.084938
  0
VERTEX
  8
FOREGROUND
  6
CONTINUOUS
 10
0.648609
 20
2.048474
  0
VERTEX
  8
FOREGROUND
  6
CONTINUOUS
 10
0.670388
 20
2.012340
  0
VERTEX
  8
FOREGROUND
  6
CONTINUOUS
 10
0.692498
 20
1.976535
  0
VERTEX
  8
FOREGROUND
  6
CONTINUOUS
 10
0.714939
 20
1.941061
  0
VERTEX
  8
FOREGROUND
  6
CONTINUOUS
 10
0.737706
 20
1.905917
  0
VERTEX
  8
FOREGROUND
  6
CONTINUOUS
 10
0.760796
 20
1.871102
  0
VERTEX
  8
FOREGROUND
  6
CONTINUOUS
 10
0.784207
 20
1.836617
  0
VERTEX
  8
FOREGROUND
  6
CONTINUOUS
 10
0.807934
 20
1.802463
  0
VERTEX
  8
FOREGROUND
  6
CONTINUOUS
 10
0.831976
 20
1.768638
  0
VERTEX
  8
FOREGROUND
  6
CONTINUOUS
 10
0.856330
 20
1.735143
  0
VERTEX
  8
FOREGROUND
  6
CONTINUOUS
 10
0.880991
 20
1.701978
  0
VERTEX
  8
FOREGROUND
  6
CONTINUOUS
 10
0.905957
 20
1.669143
  0
VERTEX
  8
FOREGROUND
  6
CONTINUOUS
 10
0.931226
 20
1.636638
  0
VERTEX
  8
FOREGROUND
  6
CONTINUOUS
 10
0.956793
 20
1.604463
  0
VERTEX
  8
FOREGROUND
  6
CONTINUOUS
 10
0.982656
 20
1.572618
  0
VERTEX
  8
FOREGROUND
  6
CONTINUOUS
 10
1.008813
 20
1.541103
  0
VERTEX
  8
FOREGROUND
  6
CONTINUOUS
 10
1.035259
 20
1.509917
  0
VERTEX
  8
FOREGROUND
  6
CONTINUOUS
 10
1.061991
 20
1.479062
  0
VERTEX
  8
FOREGROUND
  6
CONTINUOUS
 10
1.089008
 20
1.448537
  0
VERTEX
  8
FOREGROUND
  6
CONTINUOUS
 10
1.116305
 20
1.418341
  0
VERTEX
  8
FOREGROUND
  6
CONTINUOUS
 10
1.143880
 20
1.388475
  0
VERTEX
  8
FOREGROUND
  6
CONTINUOUS
 10
1.171729
 20
1.358940
  0
VERTEX
  8
FOREGROUND
  6
CONTINUOUS
 10
1.199850
 20
1.329734
  0
VERTEX
  8
FOREGROUND
  6
CONTINUOUS
 10
1.228239
 20
1.300858
  0
VERTEX
  8
FOREGROUND
  6
CONTINUOUS
 10
1.256894
 20
1.272312
  0
VERTEX
  8
FOREGROUND
  6
CONTINUOUS
 10
1.285811
 20
1.244096
  0
VERTEX
  8
FOREGROUND
  6
CONTINUOUS
 10
1.314987
 20
1.216210
  0
VERTEX
  8
FOREGROUND
  6
CONTINUOUS
 10
1.344420
 20
1.188654
  0
VERTEX
  8
FOREGROUND
  6
CONTINUOUS
 10
1.374106
 20
1.161428
  0
VERTEX
  8
FOREGROUND
  6
CONTINUOUS
 10
1.404042
 20
1.134531
  0
VERTEX
  8
FOREGROUND
  6
CONTINUOUS
 10
1.434225
 20
1.107965
  0
VERTEX
  8
FOREGROUND
  6
CONTINUOUS
 10
1.464652
 20
1.081728
  0
VERTEX
  8
FOREGROUND
  6
CONTINUOUS
 10
1.495320
 20
1.055822
  0
VERTEX
  8
FOREGROUND
  6
CONTINUOUS
 10
1.526227
 20
1.030245
  0
VERTEX
  8
FOREGROUND
  6
CONTINUOUS
 10
1.557368
 20
1.004999
  0
VERTEX
  8
FOREGROUND
  6
CONTINUOUS
 10
1.588741
 20
0.980082
  0
VERTEX
  8
FOREGROUND
  6
CONTINUOUS
 10
1.620342
 20
0.955495
  0
VERTEX
  8
FOREGROUND
  6
CONTINUOUS
 10
1.652170
 20
0.931238
  0
VERTEX
  8
FOREGROUND
  6
CONTINUOUS
 10
1.684220
 20
0.907312
  0
VERTEX
  8
FOREGROUND
  6
CONTINUOUS
 10
1.716490
 20
0.883715
  0
VERTEX
  8
FOREGROUND
  6
CONTINUOUS
 10
1.748977
 20
0.860448
  0
VERTEX
  8
FOREGROUND
  6
CONTINUOUS
 10
1.781677
 20
0.837510
  0
VERTEX
  8
FOREGROUND
  6
CONTINUOUS
 10
1.814587
 20
0.814903
  0
VERTEX
  8
FOREGROUND
  6
CONTINUOUS
 10
1.847705
 20
0.792626
  0
VERTEX
  8
FOREGROUND
  6
CONTINUOUS
 10
1.881028
 20
0.770679
  0
VERTEX
  8
FOREGROUND
  6
CONTINUOUS
 10
1.914552
 20
0.749061
  0
VERTEX
  8
FOREGROUND
  6
CONTINUOUS
 10
1.948274
 20
0.727774
  0
VERTEX
  8
FOREGROUND
  6
CONTINUOUS
 10
1.982191
 20
0.706817
  0
VERTEX
  8
FOREGROUND
  6
CONTINUOUS
 10
2.016301
 20
0.686189
  0
VERTEX
  8
FOREGROUND
  6
CONTINUOUS
 10
2.050600
 20
0.665891
  0
VERTEX
  8
FOREGROUND
  6
CONTINUOUS
 10
2.085085
 20
0.645924
  0
VERTEX
  8
FOREGROUND
  6
CONTINUOUS
 10
2.119753
 20
0.626286
  0
VERTEX
  8
FOREGROUND
  6
CONTINUOUS
 10
2.154600
 20
0.606978
  0
VERTEX
  8
FOREGROUND
  6
CONTINUOUS
 10
2.189625
 20
0.588000
  0
VERTEX
  8
FOREGROUND
  6
CONTINUOUS
 10
2.224824
 20
0.569352
  0
VERTEX
  8
FOREGROUND
  6
CONTINUOUS
 10
2.260194
 20
0.551035
  0
VERTEX
  8
FOREGROUND
  6
CONTINUOUS
 10
2.295731
 20
0.533046
  0
VERTEX
  8
FOREGROUND
  6
CONTINUOUS
 10
2.331434
 20
0.515388
  0
VERTEX
  8
FOREGROUND
  6
CONTINUOUS
 10
2.367298
 20
0.498060
  0
VERTEX
  8
FOREGROUND
  6
CONTINUOUS
 10
2.403320
 20
0.481062
  0
VERTEX
  8
FOREGROUND
  6
CONTINUOUS
 10
2.439498
 20
0.464394
  0
VERTEX
  8
FOREGROUND
  6
CONTINUOUS
 10
2.475829
 20
0.448056
  0
VERTEX
  8
FOREGROUND
  6
CONTINUOUS
 10
2.512309
 20
0.432047
  0
VERTEX
  8
FOREGROUND
  6
CONTINUOUS
 10
2.548936
 20
0.416369
  0
VERTEX
  8
FOREGROUND
  6
CONTINUOUS
 10
2.585706
 20
0.401020
  0
VERTEX
  8
FOREGROUND
  6
CONTINUOUS
 10
2.622617
 20
0.386002
  0
VERTEX
  8
FOREGROUND
  6
CONTINUOUS
 10
2.659665
 20
0.371313
  0
VERTEX
  8
FOREGROUND
  6
CONTINUOUS
 10
2.696847
 20
0.356955
  0
VERTEX
  8
FOREGROUND
  6
CONTINUOUS
 10
2.734160
 20
0.342926
  0
VERTEX
  8
FOREGROUND
  6
CONTINUOUS
 10
2.771601
 20
0.329227
  0
VERTEX
  8
FOREGROUND
  6
CONTINUOUS
 10
2.809168
 20
0.315858
  0
VERTEX
  8
FOREGROUND
  6
CONTINUOUS
 10
2.846856
 20
0.302819
  0
VERTEX
  8
FOREGROUND
  6
CONTINUOUS
 10
2.884664
 20
0.290111
  0
VERTEX
  8
FOREGROUND
  6
CONTINUOUS
 10
2.922587
 20
0.277732
  0
VERTEX
  8
FOREGROUND
  6
CONTINUOUS
 10
2.960624
 20
0.265683
  0
VERTEX
  8
FOREGROUND
  6
CONTINUOUS
 10
2.998770
 20
0.253964
  0
VERTEX
  8
FOREGROUND
  6
CONTINUOUS
 10
3.037023
 20
0.242574
  0
VERTEX
  8
FOREGROUND
  6
CONTINUOUS
 10
3.075380
 20
0.231515
  0
VERTEX
  8
FOREGROUND
  6
CONTINUOUS
 10
3.113838
 20
0.220786
  0
VERTEX
  8
FOREGROUND
  6
CONTINUOUS
 10
3.152393
 20
0.210387
  0
VERTEX
  8
FOREGROUND
  6
CONTINUOUS
 10
3.191043
 20
0.200318
  0
VERTEX
  8
FOREGROUND
  6
CONTINUOUS
 10
3.229784
 20
0.190578
  0
VERTEX
  8
FOREGROUND
  6
CONTINUOUS
 10
3.268614
 20
0.181169
  0
VERTEX
  8
FOREGROUND
  6
CONTINUOUS
 10
3.307529
 20
0.172089
  0
VERTEX
  8
FOREGROUND
  6
CONTINUOUS
 10
3.346527
 20
0.163340
  0
VERTEX
  8
FOREGROUND
  6
CONTINUOUS
 10
3.385604
 20
0.154920
  0
VERTEX
  8
FOREGROUND
  6
CONTINUOUS
 10
3.424757
 20
0.146831
  0
VERTEX
  8
FOREGROUND
  6
CONTINUOUS
 10
3.463984
 20
0.139071
  0
VERTEX
  8
FOREGROUND
  6
CONTINUOUS
 10
3.503281
 20
0.131641
  0
VERTEX
  8
FOREGROUND
  6
CONTINUOUS
 10
3.542645
 20
0.124542
  0
VERTEX
  8
FOREGROUND
  6
CONTINUOUS
 10
3.582073
 20
0.117772
  0
VERTEX
  8
FOREGROUND
  6
CONTINUOUS
 10
3.621562
 20
0.111332
  0
VERTEX
  8
FOREGROUND
  6
CONTINUOUS
 10
3.661109
 20
0.105222
  0
VERTEX
  8
FOREGROUND
  6
CONTINUOUS
 10
3.700711
 20
0.099442
  0
VERTEX
  8
FOREGROUND
  6
CONTINUOUS
 10
3.740365
 20
0.093993
  0
VERTEX
  8
FOREGROUND
  6
CONTINUOUS
 10
3.780068
 20
0.088873
  0
VERTEX
  8
FOREGROUND
  6
CONTINUOUS
 10
3.819817
 20
0.084083
  0
VERTEX
  8
FOREGROUND
  6
CONTINUOUS
 10
3.859608
 20
0.079623
  0
VERTEX
  8
FOREGROUND
  6
CONTINUOUS
 10
3.899439
 20
0.075492
  0
VERTEX
  8
FOREGROUND
  6
CONTINUOUS
 10
3.939307
 20
0.071692
  0
VERTEX
  8
FOREGROUND
  6
CONTINUOUS
 10
3.979208
 20
0.068222
  0
VERTEX
  8
FOREGROUND
  6
CONTINUOUS
 10
4.019140
 20
0.065082
  0
VERTEX
  8
FOREGROUND
  6
CONTINUOUS
 10
4.059099
 20
0.062272
  0
VERTEX
  8
FOREGROUND
  6
CONTINUOUS
 10
4.099083
 20
0.059791
  0
VERTEX
  8
FOREGROUND
  6
CONTINUOUS
 10
4.139088
 20
0.057641
  0
VERTEX
  8
FOREGROUND
  6
CONTINUOUS
 10
4.179112
 20
0.055821
  0
VERTEX
  8
FOREGROUND
  6
CONTINUOUS
 10
4.219151
 20
0.054330
  0
VERTEX
  8
FOREGROUND
  6
CONTINUOUS
 10
4.259202
 20
0.053170
  0
VERTEX
  8
FOREGROUND
  6
CONTINUOUS
 10
4.299262
 20
0.052339
  0
VERTEX
  8
FOREGROUND
  6
CONTINUOUS
 10
4.339329
 20
0.051839
  0
VERTEX
  8
FOREGROUND
  6
CONTINUOUS
 10
4.379398
 20
0.051668
  0
VERTEX
  8
FOREGROUND
  6
CONTINUOUS
 10
4.419468
 20
0.051828
  0
VERTEX
  8
FOREGROUND
  6
CONTINUOUS
 10
4.459534
 20
0.052317
  0
VERTEX
  8
FOREGROUND
  6
CONTINUOUS
 10
4.499595
 20
0.053136
  0
VERTEX
  8
FOREGROUND
  6
CONTINUOUS
 10
4.539646
 20
0.054286
  0
VERTEX
  8
FOREGROUND
  6
CONTINUOUS
 10
4.579686
 20
0.055765
  0
VERTEX
  8
FOREGROUND
  6
CONTINUOUS
 10
4.619710
 20
0.057574
  0
VERTEX
  8
FOREGROUND
  6
CONTINUOUS
 10
4.659715
 20
0.059713
  0
VERTEX
  8
FOREGROUND
  6
CONTINUOUS
 10
4.699700
 20
0.062183
  0
VERTEX
  8
FOREGROUND
  6
CONTINUOUS
 10
4.739660
 20
0.064982
  0
VERTEX
  8
FOREGROUND
  6
CONTINUOUS
 10
4.779593
 20
0.068111
  0
VERTEX
  8
FOREGROUND
  6
CONTINUOUS
 10
4.819495
 20
0.071570
  0
VERTEX
  8
FOREGROUND
  6
CONTINUOUS
 10
4.859364
 20
0.075359
  0
VERTEX
  8
FOREGROUND
  6
CONTINUOUS
 10
4.899196
 20
0.079478
  0
VERTEX
  8
FOREGROUND
  6
CONTINUOUS
 10
4.938989
 20
0.083927
  0
VERTEX
  8
FOREGROUND
  6
CONTINUOUS
 10
4.978739
 20
0.088706
  0
VERTEX
  8
FOREGROUND
  6
CONTINUOUS
 10
5.018443
 20
0.093815
  0
VERTEX
  8
FOREGROUND
  6
CONTINUOUS
 10
5.058098
 20
0.099254
  0
VERTEX
  8
FOREGROUND
  6
CONTINUOUS
 10
5.097702
 20
0.105023
  0
VERTEX
  8
FOREGROUND
  6
CONTINUOUS
 10
5.137251
 20
0.111122
  0
VERTEX
  8
FOREGROUND
  6
CONTINUOUS
 10
5.176742
 20
0.117550
  0
VERTEX
  8
FOREGROUND
  6
CONTINUOUS
 10
5.216172
 20
0.124309
  0
VERTEX
  8
FOREGROUND
  6
CONTINUOUS
 10
5.255538
 20
0.131398
  0
VERTEX
  8
FOREGROUND
  6
CONTINUOUS
 10
5.294837
 20
0.138817
  0
VERTEX
  8
FOREGROUND
  6
CONTINUOUS
 10
5.334065
 20
0.146565
  0
VERTEX
  8
FOREGROUND
  6
CONTINUOUS
 10
5.373221
 20
0.154644
  0
VERTEX
  8
FOREGROUND
  6
CONTINUOUS
 10
5.412300
 20
0.163053
  0
VERTEX
  8
FOREGROUND
  6
CONTINUOUS
 10
5.451301
 20
0.171791
  0
VERTEX
  8
FOREGROUND
  6
CONTINUOUS
 10
5.490218
 20
0.180860
  0
VERTEX
  8
FOREGROUND
  6
CONTINUOUS
 10
5.529051
 20
0.190259
  0
VERTEX
  8
FOREGROUND
  6
CONTINUOUS
 10
5.567795
 20
0.199987
  0
VERTEX
  8
FOREGROUND
  6
CONTINUOUS
 10
5.606448
 20
0.210046
  0
VERTEX
  8
FOREGROUND
  6
CONTINUOUS
 10
5.645006
 20
0.220434
  0
VERTEX
  8
FOREGROUND
  6
CONTINUOUS
 10
5.683466
 20
0.231153
  0
VERTEX
  8
FOREGROUND
  6
CONTINUOUS
 10
5.721826
 20
0.242201
  0
VERTEX
  8
FOREGROUND
  6
CONTINUOUS
 10
5.760082
 20
0.253580
  0
VERTEX
  8
FOREGROUND
  6
CONTINUOUS
 10
5.798232
 20
0.265288
  0
VERTEX
  8
FOREGROUND
  6
CONTINUOUS
 10
5.836272
 20
0.277327
  0
VERTEX
  8
FOREGROUND
  6
CONTINUOUS
 10
5.874199
 20
0.289695
  0
VERTEX
  8
FOREGROUND
  6
CONTINUOUS
 10
5.912010
 20
0.302393
  0
VERTEX
  8
FOREGROUND
  6
CONTINUOUS
 10
5.949702
 20
0.315422
  0
VERTEX
  8
FOREGROUND
  6
CONTINUOUS
 10
5.987272
 20
0.328780
  0
VERTEX
  8
FOREGROUND
  6
CONTINUOUS
 10
6.024717
 20
0.342469
  0
VERTEX
  8
FOREGROUND
  6
CONTINUOUS
 10
6.062035
 20
0.356487
  0
VERTEX
  8
FOREGROUND
  6
CONTINUOUS
 10
6.099221
 20
0.370835
  0
VERTEX
  8
FOREGROUND
  6
CONTINUOUS
 10
6.136273
 20
0.385513
  0
VERTEX
  8
FOREGROUND
  6
CONTINUOUS
 10
6.173187
 20
0.400522
  0
VERTEX
  8
FOREGROUND
  6
CONTINUOUS
 10
6.209962
 20
0.415860
  0
VERTEX
  8
FOREGROUND
  6
CONTINUOUS
 10
6.246593
 20
0.431528
  0
VERTEX
  8
FOREGROUND
  6
CONTINUOUS
 10
6.283077
 20
0.447526
  0
VERTEX
  8
FOREGROUND
  6
CONTINUOUS
 10
6.319413
 20
0.463855
  0
VERTEX
  8
FOREGROUND
  6
CONTINUOUS
 10
6.355596
 20
0.480513
  0
VERTEX
  8
FOREGROUND
  6
CONTINUOUS
 10
6.391623
 20
0.497501
  0
VERTEX
  8
FOREGROUND
  6
CONTINUOUS
 10
6.427492
 20
0.514819
  0
VERTEX
  8
FOREGROUND
  6
CONTINUOUS
 10
6.463199
 20
0.532467
  0
VERTEX
  8
FOREGROUND
  6
CONTINUOUS
 10
6.498741
 20
0.550445
  0
VERTEX
  8
FOREGROUND
  6
CONTINUOUS
 10
6.534116
 20
0.568754
  0
VERTEX
  8
FOREGROUND
  6
CONTINUOUS
 10
6.569320
 20
0.587392
  0
VERTEX
  8
FOREGROUND
  6
CONTINUOUS
 10
6.604350
 20
0.606360
  0
VERTEX
  8
FOREGROUND
  6
CONTINUOUS
 10
6.639204
 20
0.625658
  0
VERTEX
  8
FOREGROUND
  6
CONTINUOUS
 10
6.673877
 20
0.645286
  0
VERTEX
  8
FOREGROUND
  6
CONTINUOUS
 10
6.708367
 20
0.665244
  0
VERTEX
  8
FOREGROUND
  6
CONTINUOUS
 10
6.742672
 20
0.685532
  0
VERTEX
  8
FOREGROUND
  6
CONTINUOUS
 10
6.776787
 20
0.706150
  0
VERTEX
  8
FOREGROUND
  6
CONTINUOUS
 10
6.810710
 20
0.727098
  0
VERTEX
  8
FOREGROUND
  6
CONTINUOUS
 10
6.844438
 20
0.748376
  0
VERTEX
  8
FOREGROUND
  6
CONTINUOUS
 10
6.877968
 20
0.769984
  0
VERTEX
  8
FOREGROUND
  6
CONTINUOUS
 10
6.911297
 20
0.791922
  0
VERTEX
  8
FOREGROUND
  6
CONTINUOUS
 10
6.944421
 20
0.814190
  0
VERTEX
  8
FOREGROUND
  6
CONTINUOUS
 10
6.977338
 20
0.836788
  0
VERTEX
  8
FOREGROUND
  6
CONTINUOUS
 10
7.010044
 20
0.859716
  0
VERTEX
  8
FOREGROUND
  6
CONTINUOUS
 10
7.042537
 20
0.882974
  0
VERTEX
  8
FOREGROUND
  6
CONTINUOUS
 10
7.074814
 20
0.906562
  0
VERTEX
  8
FOREGROUND
  6
CONTINUOUS
 10
7.106871
 20
0.930480
  0
VERTEX
  8
FOREGROUND
  6
CONTINUOUS
 10
7.138705
 20
0.954728
  0
VERTEX
  8
FOREGROUND
  6
CONTINUOUS
 10
7.170314
 20
0.979306
  0
VERTEX
  8
FOREGROUND
  6
CONTINUOUS
 10
7.201694
 20
1.004214
  0
VERTEX
  8
FOREGROUND
  6
CONTINUOUS
 10
7.232842
 20
1.029452
  0
VERTEX
  8
FOREGROUND
  6
CONTINUOUS
 10
7.263755
 20
1.055020
  0
VERTEX
  8
FOREGROUND
  6
CONTINUOUS
 10
7.294430
 20
1.080918
  0
VERTEX
  8
FOREGROUND
  6
CONTINUOUS
 10
7.324865
 20
1.107146
  0
VERTEX
  8
FOREGROUND
  6
CONTINUOUS
 10
7.355055
 20
1.133704
  0
VERTEX
  8
FOREGROUND
  6
CONTINUOUS
 10
7.384999
 20
1.160592
  0
VERTEX
  8
FOREGROUND
  6
CONTINUOUS
 10
7.414692
 20
1.187810
  0
VERTEX
  8
FOREGROUND
  6
CONTINUOUS
 10
7.444133
 20
1.215358
  0
VERTEX
  8
FOREGROUND
  6
CONTINUOUS
 10
7.473317
 20
1.243236
  0
VERTEX
  8
FOREGROUND
  6
CONTINUOUS
 10
7.502242
 20
1.271444
  0
VERTEX
  8
FOREGROUND
  6
CONTINUOUS
 10
7.530904
 20
1.299982
  0
VERTEX
  8
FOREGROUND
  6
CONTINUOUS
 10
7.559302
 20
1.328850
  0
VERTEX
  8
FOREGROUND
  6
CONTINUOUS
 10
7.587431
 20
1.358048
  0
VERTEX
  8
FOREGROUND
  6
CONTINUOUS
 10
7.615288
 20
1.387576
  0
VERTEX
  8
FOREGROUND
  6
CONTINUOUS
 10
7.642871
 20
1.417434
  0
VERTEX
  8
FOREGROUND
  6
CONTINUOUS
 10
7.670177
 20
1.447622
  0
VERTEX
  8
FOREGROUND
  6
CONTINUOUS
 10
7.697202
 20
1.478140
  0
VERTEX
  8
FOREGROUND
  6
CONTINUOUS
 10
7.723943
 20
1.508988
  0
VERTEX
  8
FOREGROUND
  6
CONTINUOUS
 10
7.750398
 20
1.540166
  0
VERTEX
  8
FOREGROUND
  6
CONTINUOUS
 10
7.776563
 20
1.571674
  0
VERTEX
  8
FOREGROUND
  6
CONTINUOUS
 10
7.802435
 20
1.603512
  0
VERTEX
  8
FOREGROUND
  6
CONTINUOUS
 10
7.828011
 20
1.635680
  0
VERTEX
  8
FOREGROUND
  6
CONTINUOUS
 10
7.853289
 20
1.668178
  0
VERTEX
  8
FOREGROUND
  6
CONTINUOUS
 10
7.878264
 20
1.701006
  0
VERTEX
  8
FOREGROUND
  6
CONTINUOUS
 10
7.902935
 20
1.734164
  0
VERTEX
  8
FOREGROUND
  6
CONTINUOUS
 10
7.927297
 20
1.767652
  0
VERTEX
  8
FOREGROUND
  6
CONTINUOUS
 10
7.951349
 20
1.801470
  0
VERTEX
  8
FOREGROUND
  6
CONTINUOUS
 10
7.975086
 20
1.835618
  0
VERTEX
  8
FOREGROUND
  6
CONTINUOUS
 10
7.998506
 20
1.870096
  0
VERTEX
  8
FOREGROUND
  6
CONTINUOUS
 10
8.021606
 20
1.904904
  0
VERTEX
  8
FOREGROUND
  6
CONTINUOUS
 10
8.044383
 20
1.940042
  0
VERTEX
  8
FOREGROUND
  6
CONTINUOUS
 10
8.066833
 20
1.975510
  0
VERTEX
  8
FOREGROUND
  6
CONTINUOUS
 10
8.088954
 20
2.011308
  0
VERTEX
  8
FOREGROUND
  6
CONTINUOUS
 10
8.110742
 20
2.047437
  0
VERTEX
  8
FOREGROUND
  6
CONTINUOUS
 10
8.132195
 20
2.083895
  0
VERTEX
  8
FOREGROUND
  6
CONTINUOUS
 10
8.153310
 20
2.120683
  0
VERTEX
  8
FOREGROUND
  6
CONTINUOUS
 10
8.174083
 20
2.157801
  0
VERTEX
  8
FOREGROUND
  6
CONTINUOUS
 10
8.194511
 20
2.195249
  0
VERTEX
  8
FOREGROUND
  6
CONTINUOUS
 10
8.214592
 20
2.233027
  0
VERTEX
  8
FOREGROUND
  6
CONTINUOUS
 10
8.234321
 20
2.271136
  0
VERTEX
  8
FOREGROUND
  6
CONTINUOUS
 10
8.253698
 20
2.309574
  0
VERTEX
  8
FOREGROUND
  6
CONTINUOUS
 10
8.272717
 20
2.348342
  0
VERTEX
  8
FOREGROUND
  6
CONTINUOUS
 10
8.291376
 20
2.387440
  0
VERTEX
  8
FOREGROUND
  6
CONTINUOUS
 10
8.309673
 20
2.426868
  0
VERTEX
  8
FOREGROUND
  6
CONTINUOUS
 10
8.327603
 20
2.466627
  0
VERTEX
  8
FOREGROUND
  6
CONTINUOUS
 10
8.345165
 20
2.506715
  0
VERTEX
  8
FOREGROUND
  6
CONTINUOUS
 10
8.362354
 20
2.547133
  0
VERTEX
  8
FOREGROUND
  6
CONTINUOUS
 10
8.379168
 20
2.587882
  0
VERTEX
  8
FOREGROUND
  6
CONTINUOUS
 10
8.395604
 20
2.628960
  0
VERTEX
  8
FOREGROUND
  6
CONTINUOUS
 10
8.411659
 20
2.670368
  0
VERTEX
  8
FOREGROUND
  6
CONTINUOUS
 10
8.427329
 20
2.712107
  0
VERTEX
  8
FOREGROUND
  6
CONTINUOUS
 10
8.442613
 20
2.754175
  0
VERTEX
  8
FOREGROUND
  6
CONTINUOUS
 10
8.457505
 20
2.796573
  0
VERTEX
  8
FOREGROUND
  6
CONTINUOUS
 10
8.472005
 20
2.839302
  0
VERTEX
  8
FOREGROUND
  6
CONTINUOUS
 10
8.486108
 20
2.882360
  0
VERTEX
  8
FOREGROUND
  6
CONTINUOUS
 10
8.499811
 20
2.925749
  0
VERTEX
  8
FOREGROUND
  6
CONTINUOUS
 10
8.513112
 20
2.969467
  0
VERTEX
  8
FOREGROUND
  6
CONTINUOUS
 10
8.526007
 20
3.013516
  0
VERTEX
  8
FOREGROUND
  6
CONTINUOUS
 10
8.538494
 20
3.057894
  0
VERTEX
  8
FOREGROUND
  6
CONTINUOUS
 10
8.550568
 20
3.102603
  0
VERTEX
  8
FOREGROUND
  6
CONTINUOUS
 10
8.562228
 20
3.147641
  0
VERTEX
  8
FOREGROUND
  6
CONTINUOUS
 10
8.573470
 20
3.193010
  0
VERTEX
  8
FOREGROUND
  6
CONTINUOUS
 10
8.584292
 20
3.238709
  0
VERTEX
  8
FOREGROUND
  6
CONTINUOUS
 10
8.594689
 20
3.284737
  0
VERTEX
  8
FOREGROUND
  6
CONTINUOUS
 10
8.604659
 20
3.331096
  0
VERTEX
  8
FOREGROUND
  6
CONTINUOUS
 10
8.614199
 20
3.377785
  0
VERTEX
  8
FOREGROUND
  6
CONTINUOUS
 10
8.623307
 20
3.424803
  0
VERTEX
  8
FOREGROUND
  6
CONTINUOUS
 10
8.631978
 20
3.472152
  0
VERTEX
  8
FOREGROUND
  6
CONTINUOUS
 10
8.640209
 20
3.519831
  0
VERTEX
  8
FOREGROUND
  6
CONTINUOUS
 10
8.647999
 20
3.567840
  0
VERTEX
  8
FOREGROUND
  6
CONTINUOUS
 10
8.655343
 20
3.616178
  0
VERTEX
  8
FOREGROUND
  6
CONTINUOUS
 10
8.662239
 20
3.664847
  0
VERTEX
  8
FOREGROUND
  6
CONTINUOUS
 10
8.668684
 20
3.713846
  0
VERTEX
  8
FOREGROUND
  6
CONTINUOUS
 10
8.674674
 20
3.763175
  0
VERTEX
  8
FOREGROUND
  6
CONTINUOUS
 10
8.680207
 20
3.812834
  0
VERTEX
  8
FOREGROUND
  6
CONTINUOUS
 10
8.685279
 20
3.862823
  0
VERTEX
  8
FOREGROUND
  6
CONTINUOUS
 10
8.689888
 20
3.913142
  0
VERTEX
  8
FOREGROUND
  6
CONTINUOUS
 10
8.694030
 20
3.963791
  0
VERTEX
  8
FOREGROUND
  6
CONTINUOUS
 10
8.697702
 20
4.014770
  0
VERTEX
  8
FOREGROUND
  6
CONTINUOUS
 10
8.700901
 20
4.066079
  0
VERTEX
  8
FOREGROUND
  6
CONTINUOUS
 10
8.703625
 20
4.117718
  0
VERTEX
  8
FOREGROUND
  6
CONTINUOUS
 10
8.705870
 20
4.169687
  0
VERTEX
  8
FOREGROUND
  6
CONTINUOUS
 10
8.707633
 20
4.221987
  0
VERTEX
  8
FOREGROUND
  6
CONTINUOUS
 10
8.708911
 20
4.274616
  0
VERTEX
  8
FOREGROUND
  6
CONTINUOUS
 10
8.709701
 20
4.327575
  0
VERTEX
  8
FOREGROUND
  6
CONTINUOUS
 10
8.710000
 20
4.380864
  0
SEQEND
  8
0
  0
ENDSEC
  0
EOF
