  0
SECTION
  2
HEADER
  9
$ACADVER
  1
AC1006
  9
$EXTMIN
 10
0.000000
 20
0.000000
  9
$EXTMAX
 10
9.550000
 20
9.548333
  9
$LTSCALE
 40
0.166667
  9
$PDMODE
 70
    35
  9
$PDSIZE
 40
0.133333
  0
ENDSEC
  0
SECTION
  2
TABLES
  0
TABLE
  2
LTYPE
 70
     9
  0
LTYPE
  2
CONTINUOUS
 70
    64
  3
Solid line
 72
    65
 73
     0
 40
0.000000
  0
LTYPE
  2
DASHED
 70
    64
  3
__ __ __ __ __ __ __ __ __ __ __ __ __ __ __
 72
    65
 73
     2
 40
0.001250
 49
0.000833
 49
-0.000417
  0
LTYPE
  2
HIDDEN
 70
    64
  3
 _ _ _ _ _ _ _ _ _ _ _ _ _ _ _ _ _ _ _ _ _ _
 72
    65
 73
     2
 40
0.000625
 49
0.000417
 49
-0.000208
  0
LTYPE
  2
CENTER
 70
    64
  3
____ _ ____ _ ____ _ ____ _ ____ _ ____ _ ____
 72
    65
 73
     4
 40
0.003333
 49
0.002083
 49
-0.000417
 49
0.000417
 49
-0.000417
  0
LTYPE
  2
PHANTOM
 70
    64
  3
_____ _ _ _____ _ _ _____ _ _ _____ _ _ ____
 72
    65
 73
     6
 40
0.004167
 49
0.002083
 49
-0.000417
 49
0.000417
 49
-0.000417
 49
0.000417
 49
-0.000417
  0
LTYPE
  2
DOT
 70
    64
  3
...............................................
 72
    65
 73
     2
 40
0.000417
 49
0.000000
 49
-0.000417
  0
LTYPE
  2
DASHDOT
 70
    64
  3
__ . __ . __ . __ . __ . __ . __ . __ . __ . __
 72
    65
 73
     4
 40
0.001667
 49
0.000833
 49
-0.000417
 49
0.000000
 49
-0.000417
  0
LTYPE
  2
BORDER
 70
    64
  3
__ __ . __ __ . __ __ . __ __ . __ __ . __ __
 72
    65
 73
     6
 40
0.002917
 49
0.000833
 49
-0.000417
 49
0.000833
 49
-0.000417
 49
0.000000
 49
-0.000417
  0
LTYPE
  2
DIVIDE
 70
    64
  3
__ . . __ . . __ . . __ . . __ . . __ . . __
 72
    65
 73
     6
 40
0.002083
 49
0.000833
 49
-0.000417
 49
0.000000
 49
-0.000417
 49
0.000000
 49
-0.000417
  0
LTYPE
  2
DOTDOT
 70
    64
  3
 . .  . .  . .  . .  . .  . . 
 72
    65
 73
     5
 40
0.000917
 49
-0.000417
 49
0.000000
 49
-0.000417
 49
0.000000
 49
-0.000417
  0
ENDTAB
  0
TABLE
  2
STYLE
 70
     2
  0
STYLE
 70
     0
  2
SN0
 40
0.000000
 41
0.001667
 50
0.000000
 71
     0
 42
0.000000
  3
ROMAND
  0
STYLE
 70
    68
  2
SV0
 40
0.000000
 41
0.001667
 50
0.000000
 71
     0
 42
0.000000
  3
ROMAND
  0
ENDTAB
  0
TABLE
  2
LAYER
 70
     2
  0
LAYER
  2
FOREGROUND
 70
    64
 62
     7
  6
CONTINUOUS
  0
LAYER
  2
BACKGROUND
 70
    65
 62
    -7
  6
CONTINUOUS
  0
ENDTAB
  0
ENDSEC
  0
SECTION
  2
ENTITIES
  0
POLYLINE
  8
FOREGROUND
  6
CONTINUOUS
 66
     1
 40
0.010000
 41
0.010000
 70
     1
  0
VERTEX
  8
FOREGROUND
  6
CONTINUOUS
 10
9.500000
 20
4.775000
  0
VERTEX
  8
FOREGROUND
  6
CONTINUOUS
 10
9.499686
 20
4.832952
  0
VERTEX
  8
FOREGROUND
  6
CONTINUOUS
 10
9.498840
 20
4.890546
  0
VERTEX
  8
FOREGROUND
  6
CONTINUOUS
 10
9.497464
 20
4.947782
  0
VERTEX
  8
FOREGROUND
  6
CONTINUOUS
 10
9.495563
 20
5.004661
  0
VERTEX
  8
FOREGROUND
  6
CONTINUOUS
 10
9.493138
 20
5.061182
  0
VERTEX
  8
FOREGROUND
  6
CONTINUOUS
 10
9.490195
 20
5.117345
  0
VERTEX
  8
FOREGROUND
  6
CONTINUOUS
 10
9.486735
 20
5.173151
  0
VERTEX
  8
FOREGROUND
  6
CONTINUOUS
 10
9.482762
 20
5.228598
  0
VERTEX
  8
FOREGROUND
  6
CONTINUOUS
 10
9.478280
 20
5.283689
  0
VERTEX
  8
FOREGROUND
  6
CONTINUOUS
 10
9.473291
 20
5.338421
  0
VERTEX
  8
FOREGROUND
  6
CONTINUOUS
 10
9.467800
 20
5.392796
  0
VERTEX
  8
FOREGROUND
  6
CONTINUOUS
 10
9.461809
 20
5.446813
  0
VERTEX
  8
FOREGROUND
  6
CONTINUOUS
 10
9.455321
 20
5.500472
  0
VERTEX
  8
FOREGROUND
  6
CONTINUOUS
 10
9.448341
 20
5.553774
  0
VERTEX
  8
FOREGROUND
  6
CONTINUOUS
 10
9.440870
 20
5.606718
  0
VERTEX
  8
FOREGROUND
  6
CONTINUOUS
 10
9.432914
 20
5.659304
  0
VERTEX
  8
FOREGROUND
  6
CONTINUOUS
 10
9.424474
 20
5.711532
  0
VERTEX
  8
FOREGROUND
  6
CONTINUOUS
 10
9.415554
 20
5.763403
  0
VERTEX
  8
FOREGROUND
  6
CONTINUOUS
 10
9.406158
 20
5.814916
  0
VERTEX
  8
FOREGROUND
  6
CONTINUOUS
 10
9.396288
 20
5.866072
  0
VERTEX
  8
FOREGROUND
  6
CONTINUOUS
 10
9.385949
 20
5.916870
  0
VERTEX
  8
FOREGROUND
  6
CONTINUOUS
 10
9.375143
 20
5.967310
  0
VERTEX
  8
FOREGROUND
  6
CONTINUOUS
 10
9.363873
 20
6.017392
  0
VERTEX
  8
FOREGROUND
  6
CONTINUOUS
 10
9.352144
 20
6.067116
  0
VERTEX
  8
FOREGROUND
  6
CONTINUOUS
 10
9.339957
 20
6.116483
  0
VERTEX
  8
FOREGROUND
  6
CONTINUOUS
 10
9.327318
 20
6.165492
  0
VERTEX
  8
FOREGROUND
  6
CONTINUOUS
 10
9.314228
 20
6.214144
  0
VERTEX
  8
FOREGROUND
  6
CONTINUOUS
 10
9.300691
 20
6.262438
  0
VERTEX
  8
FOREGROUND
  6
CONTINUOUS
 10
9.286710
 20
6.310374
  0
VERTEX
  8
FOREGROUND
  6
CONTINUOUS
 10
9.272290
 20
6.357952
  0
VERTEX
  8
FOREGROUND
  6
CONTINUOUS
 10
9.257432
 20
6.405173
  0
VERTEX
  8
FOREGROUND
  6
CONTINUOUS
 10
9.242141
 20
6.452036
  0
VERTEX
  8
FOREGROUND
  6
CONTINUOUS
 10
9.226419
 20
6.498541
  0
VERTEX
  8
FOREGROUND
  6
CONTINUOUS
 10
9.210270
 20
6.544688
  0
VERTEX
  8
FOREGROUND
  6
CONTINUOUS
 10
9.193697
 20
6.590478
  0
VERTEX
  8
FOREGROUND
  6
CONTINUOUS
 10
9.176704
 20
6.635910
  0
VERTEX
  8
FOREGROUND
  6
CONTINUOUS
 10
9.159294
 20
6.680985
  0
VERTEX
  8
FOREGROUND
  6
CONTINUOUS
 10
9.141470
 20
6.725701
  0
VERTEX
  8
FOREGROUND
  6
CONTINUOUS
 10
9.123235
 20
6.770060
  0
VERTEX
  8
FOREGROUND
  6
CONTINUOUS
 10
9.104593
 20
6.814062
  0
VERTEX
  8
FOREGROUND
  6
CONTINUOUS
 10
9.085547
 20
6.857705
  0
VERTEX
  8
FOREGROUND
  6
CONTINUOUS
 10
9.066100
 20
6.900991
  0
VERTEX
  8
FOREGROUND
  6
CONTINUOUS
 10
9.046255
 20
6.943919
  0
VERTEX
  8
FOREGROUND
  6
CONTINUOUS
 10
9.026017
 20
6.986490
  0
VERTEX
  8
FOREGROUND
  6
CONTINUOUS
 10
9.005388
 20
7.028702
  0
VERTEX
  8
FOREGROUND
  6
CONTINUOUS
 10
8.984371
 20
7.070557
  0
VERTEX
  8
FOREGROUND
  6
CONTINUOUS
 10
8.962970
 20
7.112055
  0
VERTEX
  8
FOREGROUND
  6
CONTINUOUS
 10
8.941189
 20
7.153194
  0
VERTEX
  8
FOREGROUND
  6
CONTINUOUS
 10
8.919029
 20
7.193976
  0
VERTEX
  8
FOREGROUND
  6
CONTINUOUS
 10
8.896495
 20
7.234400
  0
VERTEX
  8
FOREGROUND
  6
CONTINUOUS
 10
8.873591
 20
7.274467
  0
VERTEX
  8
FOREGROUND
  6
CONTINUOUS
 10
8.850318
 20
7.314176
  0
VERTEX
  8
FOREGROUND
  6
CONTINUOUS
 10
8.826681
 20
7.353527
  0
VERTEX
  8
FOREGROUND
  6
CONTINUOUS
 10
8.802683
 20
7.392520
  0
VERTEX
  8
FOREGROUND
  6
CONTINUOUS
 10
8.778327
 20
7.431156
  0
VERTEX
  8
FOREGROUND
  6
CONTINUOUS
 10
8.753617
 20
7.469434
  0
VERTEX
  8
FOREGROUND
  6
CONTINUOUS
 10
8.728555
 20
7.507354
  0
VERTEX
  8
FOREGROUND
  6
CONTINUOUS
 10
8.703146
 20
7.544916
  0
VERTEX
  8
FOREGROUND
  6
CONTINUOUS
 10
8.677391
 20
7.582121
  0
VERTEX
  8
FOREGROUND
  6
CONTINUOUS
 10
8.651296
 20
7.618968
  0
VERTEX
  8
FOREGROUND
  6
CONTINUOUS
 10
8.624862
 20
7.655457
  0
VERTEX
  8
FOREGROUND
  6
CONTINUOUS
 10
8.598094
 20
7.691589
  0
VERTEX
  8
FOREGROUND
  6
CONTINUOUS
 10
8.570994
 20
7.727363
  0
VERTEX
  8
FOREGROUND
  6
CONTINUOUS
 10
8.543566
 20
7.762779
  0
VERTEX
  8
FOREGROUND
  6
CONTINUOUS
 10
8.515813
 20
7.797838
  0
VERTEX
  8
FOREGROUND
  6
CONTINUOUS
 10
8.487739
 20
7.832539
  0
VERTEX
  8
FOREGROUND
  6
CONTINUOUS
 10
8.459346
 20
7.866882
  0
VERTEX
  8
FOREGROUND
  6
CONTINUOUS
 10
8.430638
 20
7.900867
  0
VERTEX
  8
FOREGROUND
  6
CONTINUOUS
 10
8.401619
 20
7.934495
  0
VERTEX
  8
FOREGROUND
  6
CONTINUOUS
 10
8.372292
 20
7.967765
  0
VERTEX
  8
FOREGROUND
  6
CONTINUOUS
 10
8.342659
 20
8.000677
  0
VERTEX
  8
FOREGROUND
  6
CONTINUOUS
 10
8.312724
 20
8.033232
  0
VERTEX
  8
FOREGROUND
  6
CONTINUOUS
 10
8.282491
 20
8.065428
  0
VERTEX
  8
FOREGROUND
  6
CONTINUOUS
 10
8.251963
 20
8.097267
  0
VERTEX
  8
FOREGROUND
  6
CONTINUOUS
 10
8.221143
 20
8.128749
  0
VERTEX
  8
FOREGROUND
  6
CONTINUOUS
 10
8.190035
 20
8.159873
  0
VERTEX
  8
FOREGROUND
  6
CONTINUOUS
 10
8.158641
 20
8.190638
  0
VERTEX
  8
FOREGROUND
  6
CONTINUOUS
 10
8.126965
 20
8.221047
  0
VERTEX
  8
FOREGROUND
  6
CONTINUOUS
 10
8.095010
 20
8.251097
  0
VERTEX
  8
FOREGROUND
  6
CONTINUOUS
 10
8.062781
 20
8.280790
  0
VERTEX
  8
FOREGROUND
  6
CONTINUOUS
 10
8.030279
 20
8.310125
  0
VERTEX
  8
FOREGROUND
  6
CONTINUOUS
 10
7.997508
 20
8.339103
  0
VERTEX
  8
FOREGROUND
  6
CONTINUOUS
 10
7.964471
 20
8.367722
  0
VERTEX
  8
FOREGROUND
  6
CONTINUOUS
 10
7.931173
 20
8.395984
  0
VERTEX
  8
FOREGROUND
  6
CONTINUOUS
 10
7.897616
 20
8.423888
  0
VERTEX
  8
FOREGROUND
  6
CONTINUOUS
 10
7.863803
 20
8.451435
  0
VERTEX
  8
FOREGROUND
  6
CONTINUOUS
 10
7.829737
 20
8.478624
  0
VERTEX
  8
FOREGROUND
  6
CONTINUOUS
 10
7.795423
 20
8.505455
  0
VERTEX
  8
FOREGROUND
  6
CONTINUOUS
 10
7.760863
 20
8.531928
  0
VERTEX
  8
FOREGROUND
  6
CONTINUOUS
 10
7.726061
 20
8.558044
  0
VERTEX
  8
FOREGROUND
  6
CONTINUOUS
 10
7.691019
 20
8.583802
  0
VERTEX
  8
FOREGROUND
  6
CONTINUOUS
 10
7.655742
 20
8.609202
  0
VERTEX
  8
FOREGROUND
  6
CONTINUOUS
 10
7.620232
 20
8.634245
  0
VERTEX
  8
FOREGROUND
  6
CONTINUOUS
 10
7.584493
 20
8.658930
  0
VERTEX
  8
FOREGROUND
  6
CONTINUOUS
 10
7.548528
 20
8.683257
  0
VERTEX
  8
FOREGROUND
  6
CONTINUOUS
 10
7.512340
 20
8.707226
  0
VERTEX
  8
FOREGROUND
  6
CONTINUOUS
 10
7.475933
 20
8.730838
  0
VERTEX
  8
FOREGROUND
  6
CONTINUOUS
 10
7.439310
 20
8.754092
  0
VERTEX
  8
FOREGROUND
  6
CONTINUOUS
 10
7.402475
 20
8.776988
  0
VERTEX
  8
FOREGROUND
  6
CONTINUOUS
 10
7.365430
 20
8.799526
  0
VERTEX
  8
FOREGROUND
  6
CONTINUOUS
 10
7.328178
 20
8.821707
  0
VERTEX
  8
FOREGROUND
  6
CONTINUOUS
 10
7.290724
 20
8.843530
  0
VERTEX
  8
FOREGROUND
  6
CONTINUOUS
 10
7.253071
 20
8.864996
  0
VERTEX
  8
FOREGROUND
  6
CONTINUOUS
 10
7.215221
 20
8.886103
  0
VERTEX
  8
FOREGROUND
  6
CONTINUOUS
 10
7.177178
 20
8.906853
  0
VERTEX
  8
FOREGROUND
  6
CONTINUOUS
 10
7.138946
 20
8.927245
  0
VERTEX
  8
FOREGROUND
  6
CONTINUOUS
 10
7.100527
 20
8.947280
  0
VERTEX
  8
FOREGROUND
  6
CONTINUOUS
 10
7.061925
 20
8.966957
  0
VERTEX
  8
FOREGROUND
  6
CONTINUOUS
 10
7.023143
 20
8.986276
  0
VERTEX
  8
FOREGROUND
  6
CONTINUOUS
 10
6.984185
 20
9.005237
  0
VERTEX
  8
FOREGROUND
  6
CONTINUOUS
 10
6.945054
 20
9.023841
  0
VERTEX
  8
FOREGROUND
  6
CONTINUOUS
 10
6.905753
 20
9.042086
  0
VERTEX
  8
FOREGROUND
  6
CONTINUOUS
 10
6.866285
 20
9.059975
  0
VERTEX
  8
FOREGROUND
  6
CONTINUOUS
 10
6.826655
 20
9.077505
  0
VERTEX
  8
FOREGROUND
  6
CONTINUOUS
 10
6.786864
 20
9.094678
  0
VERTEX
  8
FOREGROUND
  6
CONTINUOUS
 10
6.746916
 20
9.111493
  0
VERTEX
  8
FOREGROUND
  6
CONTINUOUS
 10
6.706815
 20
9.127950
  0
VERTEX
  8
FOREGROUND
  6
CONTINUOUS
 10
6.666565
 20
9.144050
  0
VERTEX
  8
FOREGROUND
  6
CONTINUOUS
 10
6.626167
 20
9.159792
  0
VERTEX
  8
FOREGROUND
  6
CONTINUOUS
 10
6.585626
 20
9.175176
  0
VERTEX
  8
FOREGROUND
  6
CONTINUOUS
 10
6.544944
 20
9.190202
  0
VERTEX
  8
FOREGROUND
  6
CONTINUOUS
 10
6.504126
 20
9.204871
  0
VERTEX
  8
FOREGROUND
  6
CONTINUOUS
 10
6.463174
 20
9.219182
  0
VERTEX
  8
FOREGROUND
  6
CONTINUOUS
 10
6.422092
 20
9.233135
  0
VERTEX
  8
FOREGROUND
  6
CONTINUOUS
 10
6.380883
 20
9.246731
  0
VERTEX
  8
FOREGROUND
  6
CONTINUOUS
 10
6.339550
 20
9.259968
  0
VERTEX
  8
FOREGROUND
  6
CONTINUOUS
 10
6.298097
 20
9.272848
  0
VERTEX
  8
FOREGROUND
  6
CONTINUOUS
 10
6.256527
 20
9.285371
  0
VERTEX
  8
FOREGROUND
  6
CONTINUOUS
 10
6.214843
 20
9.297535
  0
VERTEX
  8
FOREGROUND
  6
CONTINUOUS
 10
6.173049
 20
9.309342
  0
VERTEX
  8
FOREGROUND
  6
CONTINUOUS
 10
6.131147
 20
9.320792
  0
VERTEX
  8
FOREGROUND
  6
CONTINUOUS
 10
6.089141
 20
9.331883
  0
VERTEX
  8
FOREGROUND
  6
CONTINUOUS
 10
6.047035
 20
9.342617
  0
VERTEX
  8
FOREGROUND
  6
CONTINUOUS
 10
6.004832
 20
9.352993
  0
VERTEX
  8
FOREGROUND
  6
CONTINUOUS
 10
5.962534
 20
9.363011
  0
VERTEX
  8
FOREGROUND
  6
CONTINUOUS
 10
5.920146
 20
9.372672
  0
VERTEX
  8
FOREGROUND
  6
CONTINUOUS
 10
5.877670
 20
9.381975
  0
VERTEX
  8
FOREGROUND
  6
CONTINUOUS
 10
5.835110
 20
9.390920
  0
VERTEX
  8
FOREGROUND
  6
CONTINUOUS
 10
5.792470
 20
9.399507
  0
VERTEX
  8
FOREGROUND
  6
CONTINUOUS
 10
5.749752
 20
9.407737
  0
VERTEX
  8
FOREGROUND
  6
CONTINUOUS
 10
5.706959
 20
9.415609
  0
VERTEX
  8
FOREGROUND
  6
CONTINUOUS
 10
5.664096
 20
9.423123
  0
VERTEX
  8
FOREGROUND
  6
CONTINUOUS
 10
5.621165
 20
9.430280
  0
VERTEX
  8
FOREGROUND
  6
CONTINUOUS
 10
5.578170
 20
9.437078
  0
VERTEX
  8
FOREGROUND
  6
CONTINUOUS
 10
5.535114
 20
9.443520
  0
VERTEX
  8
FOREGROUND
  6
CONTINUOUS
 10
5.492000
 20
9.449603
  0
VERTEX
  8
FOREGROUND
  6
CONTINUOUS
 10
5.448832
 20
9.455329
  0
VERTEX
  8
FOREGROUND
  6
CONTINUOUS
 10
5.405612
 20
9.460696
  0
VERTEX
  8
FOREGROUND
  6
CONTINUOUS
 10
5.362345
 20
9.465707
  0
VERTEX
  8
FOREGROUND
  6
CONTINUOUS
 10
5.319033
 20
9.470359
  0
VERTEX
  8
FOREGROUND
  6
CONTINUOUS
 10
5.275680
 20
9.474654
  0
VERTEX
  8
FOREGROUND
  6
CONTINUOUS
 10
5.232289
 20
9.478591
  0
VERTEX
  8
FOREGROUND
  6
CONTINUOUS
 10
5.188863
 20
9.482170
  0
VERTEX
  8
FOREGROUND
  6
CONTINUOUS
 10
5.145406
 20
9.485392
  0
VERTEX
  8
FOREGROUND
  6
CONTINUOUS
 10
5.101921
 20
9.488255
  0
VERTEX
  8
FOREGROUND
  6
CONTINUOUS
 10
5.058411
 20
9.490762
  0
VERTEX
  8
FOREGROUND
  6
CONTINUOUS
 10
5.014880
 20
9.492910
  0
VERTEX
  8
FOREGROUND
  6
CONTINUOUS
 10
4.971331
 20
9.494701
  0
VERTEX
  8
FOREGROUND
  6
CONTINUOUS
 10
4.927766
 20
9.496134
  0
VERTEX
  8
FOREGROUND
  6
CONTINUOUS
 10
4.884190
 20
9.497209
  0
VERTEX
  8
FOREGROUND
  6
CONTINUOUS
 10
4.840606
 20
9.497926
  0
VERTEX
  8
FOREGROUND
  6
CONTINUOUS
 10
4.797017
 20
9.498286
  0
VERTEX
  8
FOREGROUND
  6
CONTINUOUS
 10
4.753426
 20
9.498288
  0
VERTEX
  8
FOREGROUND
  6
CONTINUOUS
 10
4.709837
 20
9.497932
  0
VERTEX
  8
FOREGROUND
  6
CONTINUOUS
 10
4.666253
 20
9.497219
  0
VERTEX
  8
FOREGROUND
  6
CONTINUOUS
 10
4.622677
 20
9.496148
  0
VERTEX
  8
FOREGROUND
  6
CONTINUOUS
 10
4.579113
 20
9.494719
  0
VERTEX
  8
FOREGROUND
  6
CONTINUOUS
 10
4.535563
 20
9.492932
  0
VERTEX
  8
FOREGROUND
  6
CONTINUOUS
 10
4.492032
 20
9.490788
  0
VERTEX
  8
FOREGROUND
  6
CONTINUOUS
 10
4.448522
 20
9.488286
  0
VERTEX
  8
FOREGROUND
  6
CONTINUOUS
 10
4.405036
 20
9.485426
  0
VERTEX
  8
FOREGROUND
  6
CONTINUOUS
 10
4.361579
 20
9.482208
  0
VERTEX
  8
FOREGROUND
  6
CONTINUOUS
 10
4.318153
 20
9.478633
  0
VERTEX
  8
FOREGROUND
  6
CONTINUOUS
 10
4.274762
 20
9.474700
  0
VERTEX
  8
FOREGROUND
  6
CONTINUOUS
 10
4.231408
 20
9.470409
  0
VERTEX
  8
FOREGROUND
  6
CONTINUOUS
 10
4.188096
 20
9.465761
  0
VERTEX
  8
FOREGROUND
  6
CONTINUOUS
 10
4.144828
 20
9.460755
  0
VERTEX
  8
FOREGROUND
  6
CONTINUOUS
 10
4.101608
 20
9.455391
  0
VERTEX
  8
FOREGROUND
  6
CONTINUOUS
 10
4.058439
 20
9.449669
  0
VERTEX
  8
FOREGROUND
  6
CONTINUOUS
 10
4.015325
 20
9.443590
  0
VERTEX
  8
FOREGROUND
  6
CONTINUOUS
 10
3.972268
 20
9.437153
  0
VERTEX
  8
FOREGROUND
  6
CONTINUOUS
 10
3.929272
 20
9.430358
  0
VERTEX
  8
FOREGROUND
  6
CONTINUOUS
 10
3.886340
 20
9.423205
  0
VERTEX
  8
FOREGROUND
  6
CONTINUOUS
 10
3.843477
 20
9.415695
  0
VERTEX
  8
FOREGROUND
  6
CONTINUOUS
 10
3.800683
 20
9.407827
  0
VERTEX
  8
FOREGROUND
  6
CONTINUOUS
 10
3.757965
 20
9.399601
  0
VERTEX
  8
FOREGROUND
  6
CONTINUOUS
 10
3.715323
 20
9.391018
  0
VERTEX
  8
FOREGROUND
  6
CONTINUOUS
 10
3.672763
 20
9.382077
  0
VERTEX
  8
FOREGROUND
  6
CONTINUOUS
 10
3.630286
 20
9.372778
  0
VERTEX
  8
FOREGROUND
  6
CONTINUOUS
 10
3.587897
 20
9.363121
  0
VERTEX
  8
FOREGROUND
  6
CONTINUOUS
 10
3.545599
 20
9.353107
  0
VERTEX
  8
FOREGROUND
  6
CONTINUOUS
 10
3.503394
 20
9.342735
  0
VERTEX
  8
FOREGROUND
  6
CONTINUOUS
 10
3.461287
 20
9.332005
  0
VERTEX
  8
FOREGROUND
  6
CONTINUOUS
 10
3.419280
 20
9.320917
  0
VERTEX
  8
FOREGROUND
  6
CONTINUOUS
 10
3.377377
 20
9.309472
  0
VERTEX
  8
FOREGROUND
  6
CONTINUOUS
 10
3.335582
 20
9.297669
  0
VERTEX
  8
FOREGROUND
  6
CONTINUOUS
 10
3.293897
 20
9.285508
  0
VERTEX
  8
FOREGROUND
  6
CONTINUOUS
 10
3.252325
 20
9.272990
  0
VERTEX
  8
FOREGROUND
  6
CONTINUOUS
 10
3.210871
 20
9.260113
  0
VERTEX
  8
FOREGROUND
  6
CONTINUOUS
 10
3.169537
 20
9.246879
  0
VERTEX
  8
FOREGROUND
  6
CONTINUOUS
 10
3.128327
 20
9.233288
  0
VERTEX
  8
FOREGROUND
  6
CONTINUOUS
 10
3.087243
 20
9.219338
  0
VERTEX
  8
FOREGROUND
  6
CONTINUOUS
 10
3.046290
 20
9.205031
  0
VERTEX
  8
FOREGROUND
  6
CONTINUOUS
 10
3.005470
 20
9.190366
  0
VERTEX
  8
FOREGROUND
  6
CONTINUOUS
 10
2.964788
 20
9.175343
  0
VERTEX
  8
FOREGROUND
  6
CONTINUOUS
 10
2.924245
 20
9.159963
  0
VERTEX
  8
FOREGROUND
  6
CONTINUOUS
 10
2.883846
 20
9.144225
  0
VERTEX
  8
FOREGROUND
  6
CONTINUOUS
 10
2.843593
 20
9.128129
  0
VERTEX
  8
FOREGROUND
  6
CONTINUOUS
 10
2.803491
 20
9.111675
  0
VERTEX
  8
FOREGROUND
  6
CONTINUOUS
 10
2.763542
 20
9.094864
  0
VERTEX
  8
FOREGROUND
  6
CONTINUOUS
 10
2.723750
 20
9.077695
  0
VERTEX
  8
FOREGROUND
  6
CONTINUOUS
 10
2.684117
 20
9.060168
  0
VERTEX
  8
FOREGROUND
  6
CONTINUOUS
 10
2.644648
 20
9.042284
  0
VERTEX
  8
FOREGROUND
  6
CONTINUOUS
 10
2.605345
 20
9.024042
  0
VERTEX
  8
FOREGROUND
  6
CONTINUOUS
 10
2.566212
 20
9.005442
  0
VERTEX
  8
FOREGROUND
  6
CONTINUOUS
 10
2.527252
 20
8.986484
  0
VERTEX
  8
FOREGROUND
  6
CONTINUOUS
 10
2.488469
 20
8.967168
  0
VERTEX
  8
FOREGROUND
  6
CONTINUOUS
 10
2.449865
 20
8.947495
  0
VERTEX
  8
FOREGROUND
  6
CONTINUOUS
 10
2.411445
 20
8.927464
  0
VERTEX
  8
FOREGROUND
  6
CONTINUOUS
 10
2.373210
 20
8.907076
  0
VERTEX
  8
FOREGROUND
  6
CONTINUOUS
 10
2.335165
 20
8.886329
  0
VERTEX
  8
FOREGROUND
  6
CONTINUOUS
 10
2.297314
 20
8.865225
  0
VERTEX
  8
FOREGROUND
  6
CONTINUOUS
 10
2.259658
 20
8.843763
  0
VERTEX
  8
FOREGROUND
  6
CONTINUOUS
 10
2.222202
 20
8.821944
  0
VERTEX
  8
FOREGROUND
  6
CONTINUOUS
 10
2.184949
 20
8.799766
  0
VERTEX
  8
FOREGROUND
  6
CONTINUOUS
 10
2.147901
 20
8.777231
  0
VERTEX
  8
FOREGROUND
  6
CONTINUOUS
 10
2.111063
 20
8.754338
  0
VERTEX
  8
FOREGROUND
  6
CONTINUOUS
 10
2.074438
 20
8.731088
  0
VERTEX
  8
FOREGROUND
  6
CONTINUOUS
 10
2.038029
 20
8.707480
  0
VERTEX
  8
FOREGROUND
  6
CONTINUOUS
 10
2.001839
 20
8.683514
  0
VERTEX
  8
FOREGROUND
  6
CONTINUOUS
 10
1.965872
 20
8.659190
  0
VERTEX
  8
FOREGROUND
  6
CONTINUOUS
 10
1.930131
 20
8.634508
  0
VERTEX
  8
FOREGROUND
  6
CONTINUOUS
 10
1.894618
 20
8.609469
  0
VERTEX
  8
FOREGROUND
  6
CONTINUOUS
 10
1.859339
 20
8.584072
  0
VERTEX
  8
FOREGROUND
  6
CONTINUOUS
 10
1.824295
 20
8.558317
  0
VERTEX
  8
FOREGROUND
  6
CONTINUOUS
 10
1.789490
 20
8.532205
  0
VERTEX
  8
FOREGROUND
  6
CONTINUOUS
 10
1.754927
 20
8.505735
  0
VERTEX
  8
FOREGROUND
  6
CONTINUOUS
 10
1.720611
 20
8.478907
  0
VERTEX
  8
FOREGROUND
  6
CONTINUOUS
 10
1.686543
 20
8.451721
  0
VERTEX
  8
FOREGROUND
  6
CONTINUOUS
 10
1.652727
 20
8.424178
  0
VERTEX
  8
FOREGROUND
  6
CONTINUOUS
 10
1.619167
 20
8.396277
  0
VERTEX
  8
FOREGROUND
  6
CONTINUOUS
 10
1.585866
 20
8.368018
  0
VERTEX
  8
FOREGROUND
  6
CONTINUOUS
 10
1.552827
 20
8.339401
  0
VERTEX
  8
FOREGROUND
  6
CONTINUOUS
 10
1.520054
 20
8.310427
  0
VERTEX
  8
FOREGROUND
  6
CONTINUOUS
 10
1.487549
 20
8.281095
  0
VERTEX
  8
FOREGROUND
  6
CONTINUOUS
 10
1.455316
 20
8.251405
  0
VERTEX
  8
FOREGROUND
  6
CONTINUOUS
 10
1.423359
 20
8.221357
  0
VERTEX
  8
FOREGROUND
  6
CONTINUOUS
 10
1.391680
 20
8.190952
  0
VERTEX
  8
FOREGROUND
  6
CONTINUOUS
 10
1.360283
 20
8.160189
  0
VERTEX
  8
FOREGROUND
  6
CONTINUOUS
 10
1.329172
 20
8.129068
  0
VERTEX
  8
FOREGROUND
  6
CONTINUOUS
 10
1.298349
 20
8.097589
  0
VERTEX
  8
FOREGROUND
  6
CONTINUOUS
 10
1.267818
 20
8.065753
  0
VERTEX
  8
FOREGROUND
  6
CONTINUOUS
 10
1.237582
 20
8.033559
  0
VERTEX
  8
FOREGROUND
  6
CONTINUOUS
 10
1.207644
 20
8.001007
  0
VERTEX
  8
FOREGROUND
  6
CONTINUOUS
 10
1.178008
 20
7.968098
  0
VERTEX
  8
FOREGROUND
  6
CONTINUOUS
 10
1.148678
 20
7.934831
  0
VERTEX
  8
FOREGROUND
  6
CONTINUOUS
 10
1.119655
 20
7.901206
  0
VERTEX
  8
FOREGROUND
  6
CONTINUOUS
 10
1.090944
 20
7.867223
  0
VERTEX
  8
FOREGROUND
  6
CONTINUOUS
 10
1.062548
 20
7.832882
  0
VERTEX
  8
FOREGROUND
  6
CONTINUOUS
 10
1.034471
 20
7.798184
  0
VERTEX
  8
FOREGROUND
  6
CONTINUOUS
 10
1.006715
 20
7.763128
  0
VERTEX
  8
FOREGROUND
  6
CONTINUOUS
 10
0.979283
 20
7.727715
  0
VERTEX
  8
FOREGROUND
  6
CONTINUOUS
 10
0.952180
 20
7.691943
  0
VERTEX
  8
FOREGROUND
  6
CONTINUOUS
 10
0.925408
 20
7.655814
  0
VERTEX
  8
FOREGROUND
  6
CONTINUOUS
 10
0.898971
 20
7.619327
  0
VERTEX
  8
FOREGROUND
  6
CONTINUOUS
 10
0.872872
 20
7.582482
  0
VERTEX
  8
FOREGROUND
  6
CONTINUOUS
 10
0.847115
 20
7.545280
  0
VERTEX
  8
FOREGROUND
  6
CONTINUOUS
 10
0.821701
 20
7.507720
  0
VERTEX
  8
FOREGROUND
  6
CONTINUOUS
 10
0.796636
 20
7.469802
  0
VERTEX
  8
FOREGROUND
  6
CONTINUOUS
 10
0.771922
 20
7.431526
  0
VERTEX
  8
FOREGROUND
  6
CONTINUOUS
 10
0.747563
 20
7.392893
  0
VERTEX
  8
FOREGROUND
  6
CONTINUOUS
 10
0.723561
 20
7.353902
  0
VERTEX
  8
FOREGROUND
  6
CONTINUOUS
 10
0.699920
 20
7.314553
  0
VERTEX
  8
FOREGROUND
  6
CONTINUOUS
 10
0.676644
 20
7.274846
  0
VERTEX
  8
FOREGROUND
  6
CONTINUOUS
 10
0.653736
 20
7.234782
  0
VERTEX
  8
FOREGROUND
  6
CONTINUOUS
 10
0.631198
 20
7.194360
  0
VERTEX
  8
FOREGROUND
  6
CONTINUOUS
 10
0.609035
 20
7.153580
  0
VERTEX
  8
FOREGROUND
  6
CONTINUOUS
 10
0.587249
 20
7.112443
  0
VERTEX
  8
FOREGROUND
  6
CONTINUOUS
 10
0.565844
 20
7.070947
  0
VERTEX
  8
FOREGROUND
  6
CONTINUOUS
 10
0.544824
 20
7.029094
  0
VERTEX
  8
FOREGROUND
  6
CONTINUOUS
 10
0.524191
 20
6.986883
  0
VERTEX
  8
FOREGROUND
  6
CONTINUOUS
 10
0.503948
 20
6.944315
  0
VERTEX
  8
FOREGROUND
  6
CONTINUOUS
 10
0.484100
 20
6.901388
  0
VERTEX
  8
FOREGROUND
  6
CONTINUOUS
 10
0.464649
 20
6.858104
  0
VERTEX
  8
FOREGROUND
  6
CONTINUOUS
 10
0.445599
 20
6.814463
  0
VERTEX
  8
FOREGROUND
  6
CONTINUOUS
 10
0.426953
 20
6.770463
  0
VERTEX
  8
FOREGROUND
  6
CONTINUOUS
 10
0.408714
 20
6.726106
  0
VERTEX
  8
FOREGROUND
  6
CONTINUOUS
 10
0.390885
 20
6.681391
  0
VERTEX
  8
FOREGROUND
  6
CONTINUOUS
 10
0.373471
 20
6.636318
  0
VERTEX
  8
FOREGROUND
  6
CONTINUOUS
 10
0.356473
 20
6.590887
  0
VERTEX
  8
FOREGROUND
  6
CONTINUOUS
 10
0.339896
 20
6.545099
  0
VERTEX
  8
FOREGROUND
  6
CONTINUOUS
 10
0.323743
 20
6.498953
  0
VERTEX
  8
FOREGROUND
  6
CONTINUOUS
 10
0.308017
 20
6.452449
  0
VERTEX
  8
FOREGROUND
  6
CONTINUOUS
 10
0.292721
 20
6.405588
  0
VERTEX
  8
FOREGROUND
  6
CONTINUOUS
 10
0.277859
 20
6.358369
  0
VERTEX
  8
FOREGROUND
  6
CONTINUOUS
 10
0.263434
 20
6.310792
  0
VERTEX
  8
FOREGROUND
  6
CONTINUOUS
 10
0.249449
 20
6.262857
  0
VERTEX
  8
FOREGROUND
  6
CONTINUOUS
 10
0.235908
 20
6.214564
  0
VERTEX
  8
FOREGROUND
  6
CONTINUOUS
 10
0.222813
 20
6.165914
  0
VERTEX
  8
FOREGROUND
  6
CONTINUOUS
 10
0.210169
 20
6.116906
  0
VERTEX
  8
FOREGROUND
  6
CONTINUOUS
 10
0.197978
 20
6.067540
  0
VERTEX
  8
FOREGROUND
  6
CONTINUOUS
 10
0.186243
 20
6.017817
  0
VERTEX
  8
FOREGROUND
  6
CONTINUOUS
 10
0.174969
 20
5.967736
  0
VERTEX
  8
FOREGROUND
  6
CONTINUOUS
 10
0.164158
 20
5.917297
  0
VERTEX
  8
FOREGROUND
  6
CONTINUOUS
 10
0.153814
 20
5.866500
  0
VERTEX
  8
FOREGROUND
  6
CONTINUOUS
 10
0.143940
 20
5.815345
  0
VERTEX
  8
FOREGROUND
  6
CONTINUOUS
 10
0.134539
 20
5.763833
  0
VERTEX
  8
FOREGROUND
  6
CONTINUOUS
 10
0.125614
 20
5.711963
  0
VERTEX
  8
FOREGROUND
  6
CONTINUOUS
 10
0.117169
 20
5.659735
  0
VERTEX
  8
FOREGROUND
  6
CONTINUOUS
 10
0.109208
 20
5.607150
  0
VERTEX
  8
FOREGROUND
  6
CONTINUOUS
 10
0.101733
 20
5.554207
  0
VERTEX
  8
FOREGROUND
  6
CONTINUOUS
 10
0.094747
 20
5.500906
  0
VERTEX
  8
FOREGROUND
  6
CONTINUOUS
 10
0.088255
 20
5.447247
  0
VERTEX
  8
FOREGROUND
  6
CONTINUOUS
 10
0.082258
 20
5.393230
  0
VERTEX
  8
FOREGROUND
  6
CONTINUOUS
 10
0.076762
 20
5.338856
  0
VERTEX
  8
FOREGROUND
  6
CONTINUOUS
 10
0.071768
 20
5.284124
  0
VERTEX
  8
FOREGROUND
  6
CONTINUOUS
 10
0.067281
 20
5.229035
  0
VERTEX
  8
FOREGROUND
  6
CONTINUOUS
 10
0.063303
 20
5.173587
  0
VERTEX
  8
FOREGROUND
  6
CONTINUOUS
 10
0.059838
 20
5.117782
  0
VERTEX
  8
FOREGROUND
  6
CONTINUOUS
 10
0.056889
 20
5.061619
  0
VERTEX
  8
FOREGROUND
  6
CONTINUOUS
 10
0.054459
 20
5.005098
  0
VERTEX
  8
FOREGROUND
  6
CONTINUOUS
 10
0.052552
 20
4.948220
  0
VERTEX
  8
FOREGROUND
  6
CONTINUOUS
 10
0.051171
 20
4.890983
  0
VERTEX
  8
FOREGROUND
  6
CONTINUOUS
 10
0.050319
 20
4.833389
  0
VERTEX
  8
FOREGROUND
  6
CONTINUOUS
 10
0.050000
 20
4.775438
  0
VERTEX
  8
FOREGROUND
  6
CONTINUOUS
 10
0.050000
 20
4.775438
  0
VERTEX
  8
FOREGROUND
  6
CONTINUOUS
 10
0.050308
 20
4.717486
  0
VERTEX
  8
FOREGROUND
  6
CONTINUOUS
 10
0.051149
 20
4.659892
  0
VERTEX
  8
FOREGROUND
  6
CONTINUOUS
 10
0.052520
 20
4.602655
  0
VERTEX
  8
FOREGROUND
  6
CONTINUOUS
 10
0.054416
 20
4.545776
  0
VERTEX
  8
FOREGROUND
  6
CONTINUOUS
 10
0.056835
 20
4.489255
  0
VERTEX
  8
FOREGROUND
  6
CONTINUOUS
 10
0.059774
 20
4.433092
  0
VERTEX
  8
FOREGROUND
  6
CONTINUOUS
 10
0.063228
 20
4.377286
  0
VERTEX
  8
FOREGROUND
  6
CONTINUOUS
 10
0.067196
 20
4.321838
  0
VERTEX
  8
FOREGROUND
  6
CONTINUOUS
 10
0.071673
 20
4.266747
  0
VERTEX
  8
FOREGROUND
  6
CONTINUOUS
 10
0.076657
 20
4.212014
  0
VERTEX
  8
FOREGROUND
  6
CONTINUOUS
 10
0.082143
 20
4.157639
  0
VERTEX
  8
FOREGROUND
  6
CONTINUOUS
 10
0.088129
 20
4.103621
  0
VERTEX
  8
FOREGROUND
  6
CONTINUOUS
 10
0.094612
 20
4.049961
  0
VERTEX
  8
FOREGROUND
  6
CONTINUOUS
 10
0.101587
 20
3.996659
  0
VERTEX
  8
FOREGROUND
  6
CONTINUOUS
 10
0.109053
 20
3.943714
  0
VERTEX
  8
FOREGROUND
  6
CONTINUOUS
 10
0.117004
 20
3.891127
  0
VERTEX
  8
FOREGROUND
  6
CONTINUOUS
 10
0.125439
 20
3.838898
  0
VERTEX
  8
FOREGROUND
  6
CONTINUOUS
 10
0.134354
 20
3.787027
  0
VERTEX
  8
FOREGROUND
  6
CONTINUOUS
 10
0.143746
 20
3.735513
  0
VERTEX
  8
FOREGROUND
  6
CONTINUOUS
 10
0.153611
 20
3.684356
  0
VERTEX
  8
FOREGROUND
  6
CONTINUOUS
 10
0.163945
 20
3.633558
  0
VERTEX
  8
FOREGROUND
  6
CONTINUOUS
 10
0.174747
 20
3.583117
  0
VERTEX
  8
FOREGROUND
  6
CONTINUOUS
 10
0.186012
 20
3.533033
  0
VERTEX
  8
FOREGROUND
  6
CONTINUOUS
 10
0.197737
 20
3.483308
  0
VERTEX
  8
FOREGROUND
  6
CONTINUOUS
 10
0.209918
 20
3.433940
  0
VERTEX
  8
FOREGROUND
  6
CONTINUOUS
 10
0.222554
 20
3.384929
  0
VERTEX
  8
FOREGROUND
  6
CONTINUOUS
 10
0.235639
 20
3.336277
  0
VERTEX
  8
FOREGROUND
  6
CONTINUOUS
 10
0.249171
 20
3.287982
  0
VERTEX
  8
FOREGROUND
  6
CONTINUOUS
 10
0.263147
 20
3.240044
  0
VERTEX
  8
FOREGROUND
  6
CONTINUOUS
 10
0.277564
 20
3.192465
  0
VERTEX
  8
FOREGROUND
  6
CONTINUOUS
 10
0.292417
 20
3.145243
  0
VERTEX
  8
FOREGROUND
  6
CONTINUOUS
 10
0.307704
 20
3.098378
  0
VERTEX
  8
FOREGROUND
  6
CONTINUOUS
 10
0.323422
 20
3.051871
  0
VERTEX
  8
FOREGROUND
  6
CONTINUOUS
 10
0.339566
 20
3.005722
  0
VERTEX
  8
FOREGROUND
  6
CONTINUOUS
 10
0.356134
 20
2.959931
  0
VERTEX
  8
FOREGROUND
  6
CONTINUOUS
 10
0.373123
 20
2.914497
  0
VERTEX
  8
FOREGROUND
  6
CONTINUOUS
 10
0.390530
 20
2.869421
  0
VERTEX
  8
FOREGROUND
  6
CONTINUOUS
 10
0.408350
 20
2.824703
  0
VERTEX
  8
FOREGROUND
  6
CONTINUOUS
 10
0.426580
 20
2.780342
  0
VERTEX
  8
FOREGROUND
  6
CONTINUOUS
 10
0.445218
 20
2.736339
  0
VERTEX
  8
FOREGROUND
  6
CONTINUOUS
 10
0.464260
 20
2.692694
  0
VERTEX
  8
FOREGROUND
  6
CONTINUOUS
 10
0.483703
 20
2.649406
  0
VERTEX
  8
FOREGROUND
  6
CONTINUOUS
 10
0.503543
 20
2.606476
  0
VERTEX
  8
FOREGROUND
  6
CONTINUOUS
 10
0.523778
 20
2.563904
  0
VERTEX
  8
FOREGROUND
  6
CONTINUOUS
 10
0.544403
 20
2.521690
  0
VERTEX
  8
FOREGROUND
  6
CONTINUOUS
 10
0.565416
 20
2.479833
  0
VERTEX
  8
FOREGROUND
  6
CONTINUOUS
 10
0.586813
 20
2.438333
  0
VERTEX
  8
FOREGROUND
  6
CONTINUOUS
 10
0.608591
 20
2.397192
  0
VERTEX
  8
FOREGROUND
  6
CONTINUOUS
 10
0.630747
 20
2.356408
  0
VERTEX
  8
FOREGROUND
  6
CONTINUOUS
 10
0.653277
 20
2.315981
  0
VERTEX
  8
FOREGROUND
  6
CONTINUOUS
 10
0.676178
 20
2.275913
  0
VERTEX
  8
FOREGROUND
  6
CONTINUOUS
 10
0.699446
 20
2.236202
  0
VERTEX
  8
FOREGROUND
  6
CONTINUOUS
 10
0.723080
 20
2.196849
  0
VERTEX
  8
FOREGROUND
  6
CONTINUOUS
 10
0.747074
 20
2.157853
  0
VERTEX
  8
FOREGROUND
  6
CONTINUOUS
 10
0.771426
 20
2.119215
  0
VERTEX
  8
FOREGROUND
  6
CONTINUOUS
 10
0.796133
 20
2.080935
  0
VERTEX
  8
FOREGROUND
  6
CONTINUOUS
 10
0.821192
 20
2.043012
  0
VERTEX
  8
FOREGROUND
  6
CONTINUOUS
 10
0.846598
 20
2.005448
  0
VERTEX
  8
FOREGROUND
  6
CONTINUOUS
 10
0.872348
 20
1.968240
  0
VERTEX
  8
FOREGROUND
  6
CONTINUOUS
 10
0.898441
 20
1.931391
  0
VERTEX
  8
FOREGROUND
  6
CONTINUOUS
 10
0.924871
 20
1.894899
  0
VERTEX
  8
FOREGROUND
  6
CONTINUOUS
 10
0.951636
 20
1.858765
  0
VERTEX
  8
FOREGROUND
  6
CONTINUOUS
 10
0.978732
 20
1.822989
  0
VERTEX
  8
FOREGROUND
  6
CONTINUOUS
 10
1.006157
 20
1.787570
  0
VERTEX
  8
FOREGROUND
  6
CONTINUOUS
 10
1.033907
 20
1.752509
  0
VERTEX
  8
FOREGROUND
  6
CONTINUOUS
 10
1.061978
 20
1.717805
  0
VERTEX
  8
FOREGROUND
  6
CONTINUOUS
 10
1.090367
 20
1.683460
  0
VERTEX
  8
FOREGROUND
  6
CONTINUOUS
 10
1.119072
 20
1.649472
  0
VERTEX
  8
FOREGROUND
  6
CONTINUOUS
 10
1.148088
 20
1.615841
  0
VERTEX
  8
FOREGROUND
  6
CONTINUOUS
 10
1.177413
 20
1.582568
  0
VERTEX
  8
FOREGROUND
  6
CONTINUOUS
 10
1.207042
 20
1.549653
  0
VERTEX
  8
FOREGROUND
  6
CONTINUOUS
 10
1.236974
 20
1.517096
  0
VERTEX
  8
FOREGROUND
  6
CONTINUOUS
 10
1.267204
 20
1.484897
  0
VERTEX
  8
FOREGROUND
  6
CONTINUOUS
 10
1.297729
 20
1.453055
  0
VERTEX
  8
FOREGROUND
  6
CONTINUOUS
 10
1.328546
 20
1.421570
  0
VERTEX
  8
FOREGROUND
  6
CONTINUOUS
 10
1.359652
 20
1.390444
  0
VERTEX
  8
FOREGROUND
  6
CONTINUOUS
 10
1.391043
 20
1.359675
  0
VERTEX
  8
FOREGROUND
  6
CONTINUOUS
 10
1.422716
 20
1.329264
  0
VERTEX
  8
FOREGROUND
  6
CONTINUOUS
 10
1.454667
 20
1.299210
  0
VERTEX
  8
FOREGROUND
  6
CONTINUOUS
 10
1.486895
 20
1.269514
  0
VERTEX
  8
FOREGROUND
  6
CONTINUOUS
 10
1.519394
 20
1.240176
  0
VERTEX
  8
FOREGROUND
  6
CONTINUOUS
 10
1.552162
 20
1.211196
  0
VERTEX
  8
FOREGROUND
  6
CONTINUOUS
 10
1.585196
 20
1.182573
  0
VERTEX
  8
FOREGROUND
  6
CONTINUOUS
 10
1.618491
 20
1.154308
  0
VERTEX
  8
FOREGROUND
  6
CONTINUOUS
 10
1.652046
 20
1.126401
  0
VERTEX
  8
FOREGROUND
  6
CONTINUOUS
 10
1.685857
 20
1.098851
  0
VERTEX
  8
FOREGROUND
  6
CONTINUOUS
 10
1.719919
 20
1.071659
  0
VERTEX
  8
FOREGROUND
  6
CONTINUOUS
 10
1.754231
 20
1.044825
  0
VERTEX
  8
FOREGROUND
  6
CONTINUOUS
 10
1.788789
 20
1.018348
  0
VERTEX
  8
FOREGROUND
  6
CONTINUOUS
 10
1.823589
 20
0.992229
  0
VERTEX
  8
FOREGROUND
  6
CONTINUOUS
 10
1.858628
 20
0.966468
  0
VERTEX
  8
FOREGROUND
  6
CONTINUOUS
 10
1.893903
 20
0.941065
  0
VERTEX
  8
FOREGROUND
  6
CONTINUOUS
 10
1.929410
 20
0.916019
  0
VERTEX
  8
FOREGROUND
  6
CONTINUOUS
 10
1.965147
 20
0.891331
  0
VERTEX
  8
FOREGROUND
  6
CONTINUOUS
 10
2.001110
 20
0.867000
  0
VERTEX
  8
FOREGROUND
  6
CONTINUOUS
 10
2.037295
 20
0.843028
  0
VERTEX
  8
FOREGROUND
  6
CONTINUOUS
 10
2.073700
 20
0.819412
  0
VERTEX
  8
FOREGROUND
  6
CONTINUOUS
 10
2.110321
 20
0.796155
  0
VERTEX
  8
FOREGROUND
  6
CONTINUOUS
 10
2.147154
 20
0.773256
  0
VERTEX
  8
FOREGROUND
  6
CONTINUOUS
 10
2.184197
 20
0.750714
  0
VERTEX
  8
FOREGROUND
  6
CONTINUOUS
 10
2.221447
 20
0.728529
  0
VERTEX
  8
FOREGROUND
  6
CONTINUOUS
 10
2.258899
 20
0.706703
  0
VERTEX
  8
FOREGROUND
  6
CONTINUOUS
 10
2.296550
 20
0.685234
  0
VERTEX
  8
FOREGROUND
  6
CONTINUOUS
 10
2.334398
 20
0.664123
  0
VERTEX
  8
FOREGROUND
  6
CONTINUOUS
 10
2.372439
 20
0.643369
  0
VERTEX
  8
FOREGROUND
  6
CONTINUOUS
 10
2.410670
 20
0.622974
  0
VERTEX
  8
FOREGROUND
  6
CONTINUOUS
 10
2.449087
 20
0.602936
  0
VERTEX
  8
FOREGROUND
  6
CONTINUOUS
 10
2.487687
 20
0.583255
  0
VERTEX
  8
FOREGROUND
  6
CONTINUOUS
 10
2.526466
 20
0.563933
  0
VERTEX
  8
FOREGROUND
  6
CONTINUOUS
 10
2.565423
 20
0.544968
  0
VERTEX
  8
FOREGROUND
  6
CONTINUOUS
 10
2.604552
 20
0.526360
  0
VERTEX
  8
FOREGROUND
  6
CONTINUOUS
 10
2.643851
 20
0.508111
  0
VERTEX
  8
FOREGROUND
  6
CONTINUOUS
 10
2.683317
 20
0.490219
  0
VERTEX
  8
FOREGROUND
  6
CONTINUOUS
 10
2.722947
 20
0.472685
  0
VERTEX
  8
FOREGROUND
  6
CONTINUOUS
 10
2.762736
 20
0.455509
  0
VERTEX
  8
FOREGROUND
  6
CONTINUOUS
 10
2.802682
 20
0.438690
  0
VERTEX
  8
FOREGROUND
  6
CONTINUOUS
 10
2.842781
 20
0.422229
  0
VERTEX
  8
FOREGROUND
  6
CONTINUOUS
 10
2.883030
 20
0.406125
  0
VERTEX
  8
FOREGROUND
  6
CONTINUOUS
 10
2.923427
 20
0.390380
  0
VERTEX
  8
FOREGROUND
  6
CONTINUOUS
 10
2.963966
 20
0.374992
  0
VERTEX
  8
FOREGROUND
  6
CONTINUOUS
 10
3.004646
 20
0.359962
  0
VERTEX
  8
FOREGROUND
  6
CONTINUOUS
 10
3.045463
 20
0.345289
  0
VERTEX
  8
FOREGROUND
  6
CONTINUOUS
 10
3.086414
 20
0.330975
  0
VERTEX
  8
FOREGROUND
  6
CONTINUOUS
 10
3.127495
 20
0.317018
  0
VERTEX
  8
FOREGROUND
  6
CONTINUOUS
 10
3.168702
 20
0.303418
  0
VERTEX
  8
FOREGROUND
  6
CONTINUOUS
 10
3.210034
 20
0.290177
  0
VERTEX
  8
FOREGROUND
  6
CONTINUOUS
 10
3.251486
 20
0.277293
  0
VERTEX
  8
FOREGROUND
  6
CONTINUOUS
 10
3.293055
 20
0.264766
  0
VERTEX
  8
FOREGROUND
  6
CONTINUOUS
 10
3.334738
 20
0.252598
  0
VERTEX
  8
FOREGROUND
  6
CONTINUOUS
 10
3.376531
 20
0.240787
  0
VERTEX
  8
FOREGROUND
  6
CONTINUOUS
 10
3.418432
 20
0.229334
  0
VERTEX
  8
FOREGROUND
  6
CONTINUOUS
 10
3.460436
 20
0.218239
  0
VERTEX
  8
FOREGROUND
  6
CONTINUOUS
 10
3.502542
 20
0.207501
  0
VERTEX
  8
FOREGROUND
  6
CONTINUOUS
 10
3.544744
 20
0.197121
  0
VERTEX
  8
FOREGROUND
  6
CONTINUOUS
 10
3.587041
 20
0.187099
  0
VERTEX
  8
FOREGROUND
  6
CONTINUOUS
 10
3.629428
 20
0.177434
  0
VERTEX
  8
FOREGROUND
  6
CONTINUOUS
 10
3.671903
 20
0.168128
  0
VERTEX
  8
FOREGROUND
  6
CONTINUOUS
 10
3.714462
 20
0.159178
  0
VERTEX
  8
FOREGROUND
  6
CONTINUOUS
 10
3.757102
 20
0.150587
  0
VERTEX
  8
FOREGROUND
  6
CONTINUOUS
 10
3.799819
 20
0.142353
  0
VERTEX
  8
FOREGROUND
  6
CONTINUOUS
 10
3.842610
 20
0.134477
  0
VERTEX
  8
FOREGROUND
  6
CONTINUOUS
 10
3.885473
 20
0.126959
  0
VERTEX
  8
FOREGROUND
  6
CONTINUOUS
 10
3.928403
 20
0.119799
  0
VERTEX
  8
FOREGROUND
  6
CONTINUOUS
 10
3.971398
 20
0.112996
  0
VERTEX
  8
FOREGROUND
  6
CONTINUOUS
 10
4.014453
 20
0.106551
  0
VERTEX
  8
FOREGROUND
  6
CONTINUOUS
 10
4.057567
 20
0.100464
  0
VERTEX
  8
FOREGROUND
  6
CONTINUOUS
 10
4.100734
 20
0.094734
  0
VERTEX
  8
FOREGROUND
  6
CONTINUOUS
 10
4.143953
 20
0.089362
  0
VERTEX
  8
FOREGROUND
  6
CONTINUOUS
 10
4.187220
 20
0.084348
  0
VERTEX
  8
FOREGROUND
  6
CONTINUOUS
 10
4.230532
 20
0.079691
  0
VERTEX
  8
FOREGROUND
  6
CONTINUOUS
 10
4.273884
 20
0.075393
  0
VERTEX
  8
FOREGROUND
  6
CONTINUOUS
 10
4.317275
 20
0.071452
  0
VERTEX
  8
FOREGROUND
  6
CONTINUOUS
 10
4.360700
 20
0.067868
  0
VERTEX
  8
FOREGROUND
  6
CONTINUOUS
 10
4.404157
 20
0.064643
  0
VERTEX
  8
FOREGROUND
  6
CONTINUOUS
 10
4.447642
 20
0.061775
  0
VERTEX
  8
FOREGROUND
  6
CONTINUOUS
 10
4.491152
 20
0.059265
  0
VERTEX
  8
FOREGROUND
  6
CONTINUOUS
 10
4.534683
 20
0.057112
  0
VERTEX
  8
FOREGROUND
  6
CONTINUOUS
 10
4.578232
 20
0.055318
  0
VERTEX
  8
FOREGROUND
  6
CONTINUOUS
 10
4.621796
 20
0.053881
  0
VERTEX
  8
FOREGROUND
  6
CONTINUOUS
 10
4.665372
 20
0.052801
  0
VERTEX
  8
FOREGROUND
  6
CONTINUOUS
 10
4.708956
 20
0.052080
  0
VERTEX
  8
FOREGROUND
  6
CONTINUOUS
 10
4.752545
 20
0.051716
  0
VERTEX
  8
FOREGROUND
  6
CONTINUOUS
 10
4.796136
 20
0.051710
  0
VERTEX
  8
FOREGROUND
  6
CONTINUOUS
 10
4.839725
 20
0.052062
  0
VERTEX
  8
FOREGROUND
  6
CONTINUOUS
 10
4.883309
 20
0.052771
  0
VERTEX
  8
FOREGROUND
  6
CONTINUOUS
 10
4.926885
 20
0.053838
  0
VERTEX
  8
FOREGROUND
  6
CONTINUOUS
 10
4.970450
 20
0.055263
  0
VERTEX
  8
FOREGROUND
  6
CONTINUOUS
 10
5.014000
 20
0.057046
  0
VERTEX
  8
FOREGROUND
  6
CONTINUOUS
 10
5.057531
 20
0.059186
  0
VERTEX
  8
FOREGROUND
  6
CONTINUOUS
 10
5.101042
 20
0.061684
  0
VERTEX
  8
FOREGROUND
  6
CONTINUOUS
 10
5.144527
 20
0.064540
  0
VERTEX
  8
FOREGROUND
  6
CONTINUOUS
 10
5.187985
 20
0.067753
  0
VERTEX
  8
FOREGROUND
  6
CONTINUOUS
 10
5.231411
 20
0.071325
  0
VERTEX
  8
FOREGROUND
  6
CONTINUOUS
 10
5.274803
 20
0.075254
  0
VERTEX
  8
FOREGROUND
  6
CONTINUOUS
 10
5.318157
 20
0.079540
  0
VERTEX
  8
FOREGROUND
  6
CONTINUOUS
 10
5.361470
 20
0.084185
  0
VERTEX
  8
FOREGROUND
  6
CONTINUOUS
 10
5.404738
 20
0.089187
  0
VERTEX
  8
FOREGROUND
  6
CONTINUOUS
 10
5.447958
 20
0.094547
  0
VERTEX
  8
FOREGROUND
  6
CONTINUOUS
 10
5.491128
 20
0.100264
  0
VERTEX
  8
FOREGROUND
  6
CONTINUOUS
 10
5.534243
 20
0.106340
  0
VERTEX
  8
FOREGROUND
  6
CONTINUOUS
 10
5.577300
 20
0.112773
  0
VERTEX
  8
FOREGROUND
  6
CONTINUOUS
 10
5.620297
 20
0.119564
  0
VERTEX
  8
FOREGROUND
  6
CONTINUOUS
 10
5.663229
 20
0.126712
  0
VERTEX
  8
FOREGROUND
  6
CONTINUOUS
 10
5.706093
 20
0.134219
  0
VERTEX
  8
FOREGROUND
  6
CONTINUOUS
 10
5.748887
 20
0.142083
  0
VERTEX
  8
FOREGROUND
  6
CONTINUOUS
 10
5.791607
 20
0.150304
  0
VERTEX
  8
FOREGROUND
  6
CONTINUOUS
 10
5.834249
 20
0.158884
  0
VERTEX
  8
FOREGROUND
  6
CONTINUOUS
 10
5.876810
 20
0.167821
  0
VERTEX
  8
FOREGROUND
  6
CONTINUOUS
 10
5.919288
 20
0.177116
  0
VERTEX
  8
FOREGROUND
  6
CONTINUOUS
 10
5.961678
 20
0.186769
  0
VERTEX
  8
FOREGROUND
  6
CONTINUOUS
 10
6.003977
 20
0.196779
  0
VERTEX
  8
FOREGROUND
  6
CONTINUOUS
 10
6.046183
 20
0.207148
  0
VERTEX
  8
FOREGROUND
  6
CONTINUOUS
 10
6.088291
 20
0.217874
  0
VERTEX
  8
FOREGROUND
  6
CONTINUOUS
 10
6.130298
 20
0.228957
  0
VERTEX
  8
FOREGROUND
  6
CONTINUOUS
 10
6.172202
 20
0.240399
  0
VERTEX
  8
FOREGROUND
  6
CONTINUOUS
 10
6.213999
 20
0.252198
  0
VERTEX
  8
FOREGROUND
  6
CONTINUOUS
 10
6.255685
 20
0.264355
  0
VERTEX
  8
FOREGROUND
  6
CONTINUOUS
 10
6.297258
 20
0.276869
  0
VERTEX
  8
FOREGROUND
  6
CONTINUOUS
 10
6.338713
 20
0.289742
  0
VERTEX
  8
FOREGROUND
  6
CONTINUOUS
 10
6.380049
 20
0.302972
  0
VERTEX
  8
FOREGROUND
  6
CONTINUOUS
 10
6.421260
 20
0.316560
  0
VERTEX
  8
FOREGROUND
  6
CONTINUOUS
 10
6.462345
 20
0.330506
  0
VERTEX
  8
FOREGROUND
  6
CONTINUOUS
 10
6.503299
 20
0.344809
  0
VERTEX
  8
FOREGROUND
  6
CONTINUOUS
 10
6.544120
 20
0.359470
  0
VERTEX
  8
FOREGROUND
  6
CONTINUOUS
 10
6.584804
 20
0.374489
  0
VERTEX
  8
FOREGROUND
  6
CONTINUOUS
 10
6.625349
 20
0.389866
  0
VERTEX
  8
FOREGROUND
  6
CONTINUOUS
 10
6.665749
 20
0.405600
  0
VERTEX
  8
FOREGROUND
  6
CONTINUOUS
 10
6.706003
 20
0.421692
  0
VERTEX
  8
FOREGROUND
  6
CONTINUOUS
 10
6.746107
 20
0.438142
  0
VERTEX
  8
FOREGROUND
  6
CONTINUOUS
 10
6.786058
 20
0.454950
  0
VERTEX
  8
FOREGROUND
  6
CONTINUOUS
 10
6.825852
 20
0.472115
  0
VERTEX
  8
FOREGROUND
  6
CONTINUOUS
 10
6.865486
 20
0.489638
  0
VERTEX
  8
FOREGROUND
  6
CONTINUOUS
 10
6.904957
 20
0.507519
  0
VERTEX
  8
FOREGROUND
  6
CONTINUOUS
 10
6.944261
 20
0.525757
  0
VERTEX
  8
FOREGROUND
  6
CONTINUOUS
 10
6.983396
 20
0.544354
  0
VERTEX
  8
FOREGROUND
  6
CONTINUOUS
 10
7.022357
 20
0.563308
  0
VERTEX
  8
FOREGROUND
  6
CONTINUOUS
 10
7.061143
 20
0.582620
  0
VERTEX
  8
FOREGROUND
  6
CONTINUOUS
 10
7.099748
 20
0.602289
  0
VERTEX
  8
FOREGROUND
  6
CONTINUOUS
 10
7.138171
 20
0.622317
  0
VERTEX
  8
FOREGROUND
  6
CONTINUOUS
 10
7.176407
 20
0.642702
  0
VERTEX
  8
FOREGROUND
  6
CONTINUOUS
 10
7.214453
 20
0.663445
  0
VERTEX
  8
FOREGROUND
  6
CONTINUOUS
 10
7.252307
 20
0.684545
  0
VERTEX
  8
FOREGROUND
  6
CONTINUOUS
 10
7.289965
 20
0.706004
  0
VERTEX
  8
FOREGROUND
  6
CONTINUOUS
 10
7.327423
 20
0.727820
  0
VERTEX
  8
FOREGROUND
  6
CONTINUOUS
 10
7.364678
 20
0.749994
  0
VERTEX
  8
FOREGROUND
  6
CONTINUOUS
 10
7.401728
 20
0.772525
  0
VERTEX
  8
FOREGROUND
  6
CONTINUOUS
 10
7.438568
 20
0.795415
  0
VERTEX
  8
FOREGROUND
  6
CONTINUOUS
 10
7.475195
 20
0.818662
  0
VERTEX
  8
FOREGROUND
  6
CONTINUOUS
 10
7.511606
 20
0.842267
  0
VERTEX
  8
FOREGROUND
  6
CONTINUOUS
 10
7.547798
 20
0.866230
  0
VERTEX
  8
FOREGROUND
  6
CONTINUOUS
 10
7.583768
 20
0.890550
  0
VERTEX
  8
FOREGROUND
  6
CONTINUOUS
 10
7.619512
 20
0.915228
  0
VERTEX
  8
FOREGROUND
  6
CONTINUOUS
 10
7.655026
 20
0.940264
  0
VERTEX
  8
FOREGROUND
  6
CONTINUOUS
 10
7.690308
 20
0.965658
  0
VERTEX
  8
FOREGROUND
  6
CONTINUOUS
 10
7.725354
 20
0.991409
  0
VERTEX
  8
FOREGROUND
  6
CONTINUOUS
 10
7.760162
 20
1.017519
  0
VERTEX
  8
FOREGROUND
  6
CONTINUOUS
 10
7.794727
 20
1.043986
  0
VERTEX
  8
FOREGROUND
  6
CONTINUOUS
 10
7.829046
 20
1.070810
  0
VERTEX
  8
FOREGROUND
  6
CONTINUOUS
 10
7.863116
 20
1.097993
  0
VERTEX
  8
FOREGROUND
  6
CONTINUOUS
 10
7.896935
 20
1.125533
  0
VERTEX
  8
FOREGROUND
  6
CONTINUOUS
 10
7.930497
 20
1.153431
  0
VERTEX
  8
FOREGROUND
  6
CONTINUOUS
 10
7.963801
 20
1.181687
  0
VERTEX
  8
FOREGROUND
  6
CONTINUOUS
 10
7.996842
 20
1.210301
  0
VERTEX
  8
FOREGROUND
  6
CONTINUOUS
 10
8.029619
 20
1.239272
  0
VERTEX
  8
FOREGROUND
  6
CONTINUOUS
 10
8.062126
 20
1.268601
  0
VERTEX
  8
FOREGROUND
  6
CONTINUOUS
 10
8.094362
 20
1.298288
  0
VERTEX
  8
FOREGROUND
  6
CONTINUOUS
 10
8.126322
 20
1.328332
  0
VERTEX
  8
FOREGROUND
  6
CONTINUOUS
 10
8.158003
 20
1.358735
  0
VERTEX
  8
FOREGROUND
  6
CONTINUOUS
 10
8.189403
 20
1.389495
  0
VERTEX
  8
FOREGROUND
  6
CONTINUOUS
 10
8.220517
 20
1.420613
  0
VERTEX
  8
FOREGROUND
  6
CONTINUOUS
 10
8.251343
 20
1.452089
  0
VERTEX
  8
FOREGROUND
  6
CONTINUOUS
 10
8.281877
 20
1.483922
  0
VERTEX
  8
FOREGROUND
  6
CONTINUOUS
 10
8.312116
 20
1.516113
  0
VERTEX
  8
FOREGROUND
  6
CONTINUOUS
 10
8.342057
 20
1.548662
  0
VERTEX
  8
FOREGROUND
  6
CONTINUOUS
 10
8.371696
 20
1.581569
  0
VERTEX
  8
FOREGROUND
  6
CONTINUOUS
 10
8.401029
 20
1.614833
  0
VERTEX
  8
FOREGROUND
  6
CONTINUOUS
 10
8.430055
 20
1.648456
  0
VERTEX
  8
FOREGROUND
  6
CONTINUOUS
 10
8.458769
 20
1.682436
  0
VERTEX
  8
FOREGROUND
  6
CONTINUOUS
 10
8.487168
 20
1.716774
  0
VERTEX
  8
FOREGROUND
  6
CONTINUOUS
 10
8.515249
 20
1.751469
  0
VERTEX
  8
FOREGROUND
  6
CONTINUOUS
 10
8.543008
 20
1.786523
  0
VERTEX
  8
FOREGROUND
  6
CONTINUOUS
 10
8.570443
 20
1.821934
  0
VERTEX
  8
FOREGROUND
  6
CONTINUOUS
 10
8.597549
 20
1.857703
  0
VERTEX
  8
FOREGROUND
  6
CONTINUOUS
 10
8.624325
 20
1.893829
  0
VERTEX
  8
FOREGROUND
  6
CONTINUOUS
 10
8.650765
 20
1.930314
  0
VERTEX
  8
FOREGROUND
  6
CONTINUOUS
 10
8.676867
 20
1.967156
  0
VERTEX
  8
FOREGROUND
  6
CONTINUOUS
 10
8.702629
 20
2.004356
  0
VERTEX
  8
FOREGROUND
  6
CONTINUOUS
 10
8.728045
 20
2.041914
  0
VERTEX
  8
FOREGROUND
  6
CONTINUOUS
 10
8.753114
 20
2.079830
  0
VERTEX
  8
FOREGROUND
  6
CONTINUOUS
 10
8.777832
 20
2.118103
  0
VERTEX
  8
FOREGROUND
  6
CONTINUOUS
 10
8.802195
 20
2.156734
  0
VERTEX
  8
FOREGROUND
  6
CONTINUOUS
 10
8.826200
 20
2.195723
  0
VERTEX
  8
FOREGROUND
  6
CONTINUOUS
 10
8.849844
 20
2.235070
  0
VERTEX
  8
FOREGROUND
  6
CONTINUOUS
 10
8.873124
 20
2.274774
  0
VERTEX
  8
FOREGROUND
  6
CONTINUOUS
 10
8.896036
 20
2.314836
  0
VERTEX
  8
FOREGROUND
  6
CONTINUOUS
 10
8.918578
 20
2.355256
  0
VERTEX
  8
FOREGROUND
  6
CONTINUOUS
 10
8.940745
 20
2.396034
  0
VERTEX
  8
FOREGROUND
  6
CONTINUOUS
 10
8.962534
 20
2.437170
  0
VERTEX
  8
FOREGROUND
  6
CONTINUOUS
 10
8.983943
 20
2.478663
  0
VERTEX
  8
FOREGROUND
  6
CONTINUOUS
 10
9.004967
 20
2.520514
  0
VERTEX
  8
FOREGROUND
  6
CONTINUOUS
 10
9.025604
 20
2.562723
  0
VERTEX
  8
FOREGROUND
  6
CONTINUOUS
 10
9.045851
 20
2.605290
  0
VERTEX
  8
FOREGROUND
  6
CONTINUOUS
 10
9.065703
 20
2.648214
  0
VERTEX
  8
FOREGROUND
  6
CONTINUOUS
 10
9.085158
 20
2.691496
  0
VERTEX
  8
FOREGROUND
  6
CONTINUOUS
 10
9.104212
 20
2.735136
  0
VERTEX
  8
FOREGROUND
  6
CONTINUOUS
 10
9.122862
 20
2.779134
  0
VERTEX
  8
FOREGROUND
  6
CONTINUOUS
 10
9.141105
 20
2.823490
  0
VERTEX
  8
FOREGROUND
  6
CONTINUOUS
 10
9.158938
 20
2.868203
  0
VERTEX
  8
FOREGROUND
  6
CONTINUOUS
 10
9.176357
 20
2.913274
  0
VERTEX
  8
FOREGROUND
  6
CONTINUOUS
 10
9.193358
 20
2.958703
  0
VERTEX
  8
FOREGROUND
  6
CONTINUOUS
 10
9.209940
 20
3.004490
  0
VERTEX
  8
FOREGROUND
  6
CONTINUOUS
 10
9.226097
 20
3.050635
  0
VERTEX
  8
FOREGROUND
  6
CONTINUOUS
 10
9.241827
 20
3.097137
  0
VERTEX
  8
FOREGROUND
  6
CONTINUOUS
 10
9.257128
 20
3.143997
  0
VERTEX
  8
FOREGROUND
  6
CONTINUOUS
 10
9.271994
 20
3.191215
  0
VERTEX
  8
FOREGROUND
  6
CONTINUOUS
 10
9.286424
 20
3.238791
  0
VERTEX
  8
FOREGROUND
  6
CONTINUOUS
 10
9.300413
 20
3.286724
  0
VERTEX
  8
FOREGROUND
  6
CONTINUOUS
 10
9.313959
 20
3.335015
  0
VERTEX
  8
FOREGROUND
  6
CONTINUOUS
 10
9.327058
 20
3.383664
  0
VERTEX
  8
FOREGROUND
  6
CONTINUOUS
 10
9.339707
 20
3.432671
  0
VERTEX
  8
FOREGROUND
  6
CONTINUOUS
 10
9.351902
 20
3.482036
  0
VERTEX
  8
FOREGROUND
  6
CONTINUOUS
 10
9.363641
 20
3.531758
  0
VERTEX
  8
FOREGROUND
  6
CONTINUOUS
 10
9.374920
 20
3.581838
  0
VERTEX
  8
FOREGROUND
  6
CONTINUOUS
 10
9.385736
 20
3.632276
  0
VERTEX
  8
FOREGROUND
  6
CONTINUOUS
 10
9.396085
 20
3.683072
  0
VERTEX
  8
FOREGROUND
  6
CONTINUOUS
 10
9.405964
 20
3.734226
  0
VERTEX
  8
FOREGROUND
  6
CONTINUOUS
 10
9.415370
 20
3.785737
  0
VERTEX
  8
FOREGROUND
  6
CONTINUOUS
 10
9.424299
 20
3.837606
  0
VERTEX
  8
FOREGROUND
  6
CONTINUOUS
 10
9.432749
 20
3.889833
  0
VERTEX
  8
FOREGROUND
  6
CONTINUOUS
 10
9.440715
 20
3.942418
  0
VERTEX
  8
FOREGROUND
  6
CONTINUOUS
 10
9.448195
 20
3.995360
  0
VERTEX
  8
FOREGROUND
  6
CONTINUOUS
 10
9.455186
 20
4.048661
  0
VERTEX
  8
FOREGROUND
  6
CONTINUOUS
 10
9.461683
 20
4.102319
  0
VERTEX
  8
FOREGROUND
  6
CONTINUOUS
 10
9.467684
 20
4.156335
  0
VERTEX
  8
FOREGROUND
  6
CONTINUOUS
 10
9.473186
 20
4.210709
  0
VERTEX
  8
FOREGROUND
  6
CONTINUOUS
 10
9.478185
 20
4.265440
  0
VERTEX
  8
FOREGROUND
  6
CONTINUOUS
 10
9.482677
 20
4.320529
  0
VERTEX
  8
FOREGROUND
  6
CONTINUOUS
 10
9.486660
 20
4.375977
  0
VERTEX
  8
FOREGROUND
  6
CONTINUOUS
 10
9.490131
 20
4.431781
  0
VERTEX
  8
FOREGROUND
  6
CONTINUOUS
 10
9.493085
 20
4.487944
  0
VERTEX
  8
FOREGROUND
  6
CONTINUOUS
 10
9.495520
 20
4.544465
  0
VERTEX
  8
FOREGROUND
  6
CONTINUOUS
 10
9.497432
 20
4.601343
  0
VERTEX
  8
FOREGROUND
  6
CONTINUOUS
 10
9.498818
 20
4.658579
  0
VERTEX
  8
FOREGROUND
  6
CONTINUOUS
 10
9.499675
 20
4.716173
  0
VERTEX
  8
FOREGROUND
  6
CONTINUOUS
 10
9.500000
 20
4.774125
  0
SEQEND
  8
0
  0
ENDSEC
  0
EOF
