  0
SECTION
  2
HEADER
  9
$ACADVER
  1
AC1006
  9
$EXTMIN
 10
0.000000
 20
0.000000
  9
$EXTMAX
 10
9.943333
 20
9.943333
  9
$LTSCALE
 40
0.166667
  9
$PDMODE
 70
    35
  9
$PDSIZE
 40
0.133333
  0
ENDSEC
  0
SECTION
  2
TABLES
  0
TABLE
  2
LTYPE
 70
     9
  0
LTYPE
  2
CONTINUOUS
 70
    64
  3
Solid line
 72
    65
 73
     0
 40
0.000000
  0
LTYPE
  2
DASHED
 70
    64
  3
__ __ __ __ __ __ __ __ __ __ __ __ __ __ __
 72
    65
 73
     2
 40
0.001250
 49
0.000833
 49
-0.000417
  0
LTYPE
  2
HIDDEN
 70
    64
  3
 _ _ _ _ _ _ _ _ _ _ _ _ _ _ _ _ _ _ _ _ _ _
 72
    65
 73
     2
 40
0.000625
 49
0.000417
 49
-0.000208
  0
LTYPE
  2
CENTER
 70
    64
  3
____ _ ____ _ ____ _ ____ _ ____ _ ____ _ ____
 72
    65
 73
     4
 40
0.003333
 49
0.002083
 49
-0.000417
 49
0.000417
 49
-0.000417
  0
LTYPE
  2
PHANTOM
 70
    64
  3
_____ _ _ _____ _ _ _____ _ _ _____ _ _ ____
 72
    65
 73
     6
 40
0.004167
 49
0.002083
 49
-0.000417
 49
0.000417
 49
-0.000417
 49
0.000417
 49
-0.000417
  0
LTYPE
  2
DOT
 70
    64
  3
...............................................
 72
    65
 73
     2
 40
0.000417
 49
0.000000
 49
-0.000417
  0
LTYPE
  2
DASHDOT
 70
    64
  3
__ . __ . __ . __ . __ . __ . __ . __ . __ . __
 72
    65
 73
     4
 40
0.001667
 49
0.000833
 49
-0.000417
 49
0.000000
 49
-0.000417
  0
LTYPE
  2
BORDER
 70
    64
  3
__ __ . __ __ . __ __ . __ __ . __ __ . __ __
 72
    65
 73
     6
 40
0.002917
 49
0.000833
 49
-0.000417
 49
0.000833
 49
-0.000417
 49
0.000000
 49
-0.000417
  0
LTYPE
  2
DIVIDE
 70
    64
  3
__ . . __ . . __ . . __ . . __ . . __ . . __
 72
    65
 73
     6
 40
0.002083
 49
0.000833
 49
-0.000417
 49
0.000000
 49
-0.000417
 49
0.000000
 49
-0.000417
  0
LTYPE
  2
DOTDOT
 70
    64
  3
 . .  . .  . .  . .  . .  . . 
 72
    65
 73
     5
 40
0.000917
 49
-0.000417
 49
0.000000
 49
-0.000417
 49
0.000000
 49
-0.000417
  0
ENDTAB
  0
TABLE
  2
STYLE
 70
     2
  0
STYLE
 70
     0
  2
SN0
 40
0.000000
 41
0.001667
 50
0.000000
 71
     0
 42
0.000000
  3
ROMAND
  0
STYLE
 70
    68
  2
SV0
 40
0.000000
 41
0.001667
 50
0.000000
 71
     0
 42
0.000000
  3
ROMAND
  0
ENDTAB
  0
TABLE
  2
LAYER
 70
     2
  0
LAYER
  2
FOREGROUND
 70
    64
 62
     7
  6
CONTINUOUS
  0
LAYER
  2
BACKGROUND
 70
    65
 62
    -7
  6
CONTINUOUS
  0
ENDTAB
  0
ENDSEC
  0
SECTION
  2
ENTITIES
  0
POLYLINE
  8
FOREGROUND
  6
CONTINUOUS
 66
     1
 40
0.010000
 41
0.010000
 70
     1
  0
VERTEX
  8
FOREGROUND
  6
CONTINUOUS
 10
9.893333
 20
4.971667
  0
VERTEX
  8
FOREGROUND
  6
CONTINUOUS
 10
9.893007
 20
5.032052
  0
VERTEX
  8
FOREGROUND
  6
CONTINUOUS
 10
9.892125
 20
5.092064
  0
VERTEX
  8
FOREGROUND
  6
CONTINUOUS
 10
9.890692
 20
5.151704
  0
VERTEX
  8
FOREGROUND
  6
CONTINUOUS
 10
9.888711
 20
5.210971
  0
VERTEX
  8
FOREGROUND
  6
CONTINUOUS
 10
9.886186
 20
5.269865
  0
VERTEX
  8
FOREGROUND
  6
CONTINUOUS
 10
9.883120
 20
5.328387
  0
VERTEX
  8
FOREGROUND
  6
CONTINUOUS
 10
9.879516
 20
5.386536
  0
VERTEX
  8
FOREGROUND
  6
CONTINUOUS
 10
9.875377
 20
5.444312
  0
VERTEX
  8
FOREGROUND
  6
CONTINUOUS
 10
9.870709
 20
5.501715
  0
VERTEX
  8
FOREGROUND
  6
CONTINUOUS
 10
9.865512
 20
5.558746
  0
VERTEX
  8
FOREGROUND
  6
CONTINUOUS
 10
9.859792
 20
5.615404
  0
VERTEX
  8
FOREGROUND
  6
CONTINUOUS
 10
9.853552
 20
5.671689
  0
VERTEX
  8
FOREGROUND
  6
CONTINUOUS
 10
9.846794
 20
5.727602
  0
VERTEX
  8
FOREGROUND
  6
CONTINUOUS
 10
9.839523
 20
5.783141
  0
VERTEX
  8
FOREGROUND
  6
CONTINUOUS
 10
9.831742
 20
5.838308
  0
VERTEX
  8
FOREGROUND
  6
CONTINUOUS
 10
9.823454
 20
5.893103
  0
VERTEX
  8
FOREGROUND
  6
CONTINUOUS
 10
9.814663
 20
5.947524
  0
VERTEX
  8
FOREGROUND
  6
CONTINUOUS
 10
9.805372
 20
6.001573
  0
VERTEX
  8
FOREGROUND
  6
CONTINUOUS
 10
9.795585
 20
6.055249
  0
VERTEX
  8
FOREGROUND
  6
CONTINUOUS
 10
9.785304
 20
6.108553
  0
VERTEX
  8
FOREGROUND
  6
CONTINUOUS
 10
9.774534
 20
6.161483
  0
VERTEX
  8
FOREGROUND
  6
CONTINUOUS
 10
9.763278
 20
6.214041
  0
VERTEX
  8
FOREGROUND
  6
CONTINUOUS
 10
9.751540
 20
6.266227
  0
VERTEX
  8
FOREGROUND
  6
CONTINUOUS
 10
9.739322
 20
6.318039
  0
VERTEX
  8
FOREGROUND
  6
CONTINUOUS
 10
9.726628
 20
6.369479
  0
VERTEX
  8
FOREGROUND
  6
CONTINUOUS
 10
9.713462
 20
6.420546
  0
VERTEX
  8
FOREGROUND
  6
CONTINUOUS
 10
9.699828
 20
6.471240
  0
VERTEX
  8
FOREGROUND
  6
CONTINUOUS
 10
9.685727
 20
6.521562
  0
VERTEX
  8
FOREGROUND
  6
CONTINUOUS
 10
9.671165
 20
6.571511
  0
VERTEX
  8
FOREGROUND
  6
CONTINUOUS
 10
9.656144
 20
6.621087
  0
VERTEX
  8
FOREGROUND
  6
CONTINUOUS
 10
9.640668
 20
6.670290
  0
VERTEX
  8
FOREGROUND
  6
CONTINUOUS
 10
9.624740
 20
6.719121
  0
VERTEX
  8
FOREGROUND
  6
CONTINUOUS
 10
9.608364
 20
6.767579
  0
VERTEX
  8
FOREGROUND
  6
CONTINUOUS
 10
9.591543
 20
6.815664
  0
VERTEX
  8
FOREGROUND
  6
CONTINUOUS
 10
9.574280
 20
6.863377
  0
VERTEX
  8
FOREGROUND
  6
CONTINUOUS
 10
9.556580
 20
6.910717
  0
VERTEX
  8
FOREGROUND
  6
CONTINUOUS
 10
9.538445
 20
6.957684
  0
VERTEX
  8
FOREGROUND
  6
CONTINUOUS
 10
9.519879
 20
7.004278
  0
VERTEX
  8
FOREGROUND
  6
CONTINUOUS
 10
9.500885
 20
7.050500
  0
VERTEX
  8
FOREGROUND
  6
CONTINUOUS
 10
9.481467
 20
7.096349
  0
VERTEX
  8
FOREGROUND
  6
CONTINUOUS
 10
9.461628
 20
7.141825
  0
VERTEX
  8
FOREGROUND
  6
CONTINUOUS
 10
9.441372
 20
7.186928
  0
VERTEX
  8
FOREGROUND
  6
CONTINUOUS
 10
9.420701
 20
7.231659
  0
VERTEX
  8
FOREGROUND
  6
CONTINUOUS
 10
9.399621
 20
7.276017
  0
VERTEX
  8
FOREGROUND
  6
CONTINUOUS
 10
9.378133
 20
7.320002
  0
VERTEX
  8
FOREGROUND
  6
CONTINUOUS
 10
9.356241
 20
7.363615
  0
VERTEX
  8
FOREGROUND
  6
CONTINUOUS
 10
9.333950
 20
7.406855
  0
VERTEX
  8
FOREGROUND
  6
CONTINUOUS
 10
9.311261
 20
7.449722
  0
VERTEX
  8
FOREGROUND
  6
CONTINUOUS
 10
9.288179
 20
7.492216
  0
VERTEX
  8
FOREGROUND
  6
CONTINUOUS
 10
9.264708
 20
7.534338
  0
VERTEX
  8
FOREGROUND
  6
CONTINUOUS
 10
9.240850
 20
7.576086
  0
VERTEX
  8
FOREGROUND
  6
CONTINUOUS
 10
9.216608
 20
7.617463
  0
VERTEX
  8
FOREGROUND
  6
CONTINUOUS
 10
9.191988
 20
7.658466
  0
VERTEX
  8
FOREGROUND
  6
CONTINUOUS
 10
9.166991
 20
7.699097
  0
VERTEX
  8
FOREGROUND
  6
CONTINUOUS
 10
9.141621
 20
7.739355
  0
VERTEX
  8
FOREGROUND
  6
CONTINUOUS
 10
9.115882
 20
7.779240
  0
VERTEX
  8
FOREGROUND
  6
CONTINUOUS
 10
9.089777
 20
7.818752
  0
VERTEX
  8
FOREGROUND
  6
CONTINUOUS
 10
9.063310
 20
7.857892
  0
VERTEX
  8
FOREGROUND
  6
CONTINUOUS
 10
9.036484
 20
7.896659
  0
VERTEX
  8
FOREGROUND
  6
CONTINUOUS
 10
9.009302
 20
7.935053
  0
VERTEX
  8
FOREGROUND
  6
CONTINUOUS
 10
8.981768
 20
7.973075
  0
VERTEX
  8
FOREGROUND
  6
CONTINUOUS
 10
8.953886
 20
8.010724
  0
VERTEX
  8
FOREGROUND
  6
CONTINUOUS
 10
8.925658
 20
8.048000
  0
VERTEX
  8
FOREGROUND
  6
CONTINUOUS
 10
8.897088
 20
8.084903
  0
VERTEX
  8
FOREGROUND
  6
CONTINUOUS
 10
8.868180
 20
8.121434
  0
VERTEX
  8
FOREGROUND
  6
CONTINUOUS
 10
8.838937
 20
8.157592
  0
VERTEX
  8
FOREGROUND
  6
CONTINUOUS
 10
8.809363
 20
8.193377
  0
VERTEX
  8
FOREGROUND
  6
CONTINUOUS
 10
8.779460
 20
8.228789
  0
VERTEX
  8
FOREGROUND
  6
CONTINUOUS
 10
8.749233
 20
8.263829
  0
VERTEX
  8
FOREGROUND
  6
CONTINUOUS
 10
8.718685
 20
8.298496
  0
VERTEX
  8
FOREGROUND
  6
CONTINUOUS
 10
8.687819
 20
8.332790
  0
VERTEX
  8
FOREGROUND
  6
CONTINUOUS
 10
8.656638
 20
8.366712
  0
VERTEX
  8
FOREGROUND
  6
CONTINUOUS
 10
8.625147
 20
8.400260
  0
VERTEX
  8
FOREGROUND
  6
CONTINUOUS
 10
8.593348
 20
8.433437
  0
VERTEX
  8
FOREGROUND
  6
CONTINUOUS
 10
8.561245
 20
8.466240
  0
VERTEX
  8
FOREGROUND
  6
CONTINUOUS
 10
8.528842
 20
8.498670
  0
VERTEX
  8
FOREGROUND
  6
CONTINUOUS
 10
8.496141
 20
8.530728
  0
VERTEX
  8
FOREGROUND
  6
CONTINUOUS
 10
8.463147
 20
8.562413
  0
VERTEX
  8
FOREGROUND
  6
CONTINUOUS
 10
8.429862
 20
8.593726
  0
VERTEX
  8
FOREGROUND
  6
CONTINUOUS
 10
8.396291
 20
8.624665
  0
VERTEX
  8
FOREGROUND
  6
CONTINUOUS
 10
8.362436
 20
8.655232
  0
VERTEX
  8
FOREGROUND
  6
CONTINUOUS
 10
8.328301
 20
8.685426
  0
VERTEX
  8
FOREGROUND
  6
CONTINUOUS
 10
8.293890
 20
8.715248
  0
VERTEX
  8
FOREGROUND
  6
CONTINUOUS
 10
8.259205
 20
8.744696
  0
VERTEX
  8
FOREGROUND
  6
CONTINUOUS
 10
8.224251
 20
8.773772
  0
VERTEX
  8
FOREGROUND
  6
CONTINUOUS
 10
8.189031
 20
8.802476
  0
VERTEX
  8
FOREGROUND
  6
CONTINUOUS
 10
8.153548
 20
8.830806
  0
VERTEX
  8
FOREGROUND
  6
CONTINUOUS
 10
8.117805
 20
8.858764
  0
VERTEX
  8
FOREGROUND
  6
CONTINUOUS
 10
8.081806
 20
8.886349
  0
VERTEX
  8
FOREGROUND
  6
CONTINUOUS
 10
8.045556
 20
8.913561
  0
VERTEX
  8
FOREGROUND
  6
CONTINUOUS
 10
8.009055
 20
8.940401
  0
VERTEX
  8
FOREGROUND
  6
CONTINUOUS
 10
7.972310
 20
8.966867
  0
VERTEX
  8
FOREGROUND
  6
CONTINUOUS
 10
7.935322
 20
8.992962
  0
VERTEX
  8
FOREGROUND
  6
CONTINUOUS
 10
7.898095
 20
9.018683
  0
VERTEX
  8
FOREGROUND
  6
CONTINUOUS
 10
7.860633
 20
9.044031
  0
VERTEX
  8
FOREGROUND
  6
CONTINUOUS
 10
7.822939
 20
9.069007
  0
VERTEX
  8
FOREGROUND
  6
CONTINUOUS
 10
7.785017
 20
9.093610
  0
VERTEX
  8
FOREGROUND
  6
CONTINUOUS
 10
7.746870
 20
9.117841
  0
VERTEX
  8
FOREGROUND
  6
CONTINUOUS
 10
7.708501
 20
9.141698
  0
VERTEX
  8
FOREGROUND
  6
CONTINUOUS
 10
7.669914
 20
9.165183
  0
VERTEX
  8
FOREGROUND
  6
CONTINUOUS
 10
7.631112
 20
9.188296
  0
VERTEX
  8
FOREGROUND
  6
CONTINUOUS
 10
7.592099
 20
9.211035
  0
VERTEX
  8
FOREGROUND
  6
CONTINUOUS
 10
7.552878
 20
9.233402
  0
VERTEX
  8
FOREGROUND
  6
CONTINUOUS
 10
7.513453
 20
9.255396
  0
VERTEX
  8
FOREGROUND
  6
CONTINUOUS
 10
7.473827
 20
9.277017
  0
VERTEX
  8
FOREGROUND
  6
CONTINUOUS
 10
7.434003
 20
9.298265
  0
VERTEX
  8
FOREGROUND
  6
CONTINUOUS
 10
7.393985
 20
9.319141
  0
VERTEX
  8
FOREGROUND
  6
CONTINUOUS
 10
7.353777
 20
9.339644
  0
VERTEX
  8
FOREGROUND
  6
CONTINUOUS
 10
7.313381
 20
9.359774
  0
VERTEX
  8
FOREGROUND
  6
CONTINUOUS
 10
7.272801
 20
9.379532
  0
VERTEX
  8
FOREGROUND
  6
CONTINUOUS
 10
7.232041
 20
9.398917
  0
VERTEX
  8
FOREGROUND
  6
CONTINUOUS
 10
7.191104
 20
9.417929
  0
VERTEX
  8
FOREGROUND
  6
CONTINUOUS
 10
7.149994
 20
9.436568
  0
VERTEX
  8
FOREGROUND
  6
CONTINUOUS
 10
7.108714
 20
9.454834
  0
VERTEX
  8
FOREGROUND
  6
CONTINUOUS
 10
7.067267
 20
9.472728
  0
VERTEX
  8
FOREGROUND
  6
CONTINUOUS
 10
7.025656
 20
9.490249
  0
VERTEX
  8
FOREGROUND
  6
CONTINUOUS
 10
6.983886
 20
9.507398
  0
VERTEX
  8
FOREGROUND
  6
CONTINUOUS
 10
6.941960
 20
9.524173
  0
VERTEX
  8
FOREGROUND
  6
CONTINUOUS
 10
6.899881
 20
9.540576
  0
VERTEX
  8
FOREGROUND
  6
CONTINUOUS
 10
6.857652
 20
9.556606
  0
VERTEX
  8
FOREGROUND
  6
CONTINUOUS
 10
6.815278
 20
9.572264
  0
VERTEX
  8
FOREGROUND
  6
CONTINUOUS
 10
6.772761
 20
9.587548
  0
VERTEX
  8
FOREGROUND
  6
CONTINUOUS
 10
6.730104
 20
9.602460
  0
VERTEX
  8
FOREGROUND
  6
CONTINUOUS
 10
6.687312
 20
9.616999
  0
VERTEX
  8
FOREGROUND
  6
CONTINUOUS
 10
6.644388
 20
9.631166
  0
VERTEX
  8
FOREGROUND
  6
CONTINUOUS
 10
6.601335
 20
9.644959
  0
VERTEX
  8
FOREGROUND
  6
CONTINUOUS
 10
6.558156
 20
9.658380
  0
VERTEX
  8
FOREGROUND
  6
CONTINUOUS
 10
6.514856
 20
9.671429
  0
VERTEX
  8
FOREGROUND
  6
CONTINUOUS
 10
6.471437
 20
9.684104
  0
VERTEX
  8
FOREGROUND
  6
CONTINUOUS
 10
6.427903
 20
9.696407
  0
VERTEX
  8
FOREGROUND
  6
CONTINUOUS
 10
6.384257
 20
9.708337
  0
VERTEX
  8
FOREGROUND
  6
CONTINUOUS
 10
6.340503
 20
9.719894
  0
VERTEX
  8
FOREGROUND
  6
CONTINUOUS
 10
6.296644
 20
9.731078
  0
VERTEX
  8
FOREGROUND
  6
CONTINUOUS
 10
6.252684
 20
9.741890
  0
VERTEX
  8
FOREGROUND
  6
CONTINUOUS
 10
6.208626
 20
9.752329
  0
VERTEX
  8
FOREGROUND
  6
CONTINUOUS
 10
6.164473
 20
9.762395
  0
VERTEX
  8
FOREGROUND
  6
CONTINUOUS
 10
6.120230
 20
9.772089
  0
VERTEX
  8
FOREGROUND
  6
CONTINUOUS
 10
6.075899
 20
9.781409
  0
VERTEX
  8
FOREGROUND
  6
CONTINUOUS
 10
6.031483
 20
9.790357
  0
VERTEX
  8
FOREGROUND
  6
CONTINUOUS
 10
5.986987
 20
9.798933
  0
VERTEX
  8
FOREGROUND
  6
CONTINUOUS
 10
5.942414
 20
9.807135
  0
VERTEX
  8
FOREGROUND
  6
CONTINUOUS
 10
5.897766
 20
9.814965
  0
VERTEX
  8
FOREGROUND
  6
CONTINUOUS
 10
5.853049
 20
9.822422
  0
VERTEX
  8
FOREGROUND
  6
CONTINUOUS
 10
5.808264
 20
9.829506
  0
VERTEX
  8
FOREGROUND
  6
CONTINUOUS
 10
5.763416
 20
9.836218
  0
VERTEX
  8
FOREGROUND
  6
CONTINUOUS
 10
5.718507
 20
9.842557
  0
VERTEX
  8
FOREGROUND
  6
CONTINUOUS
 10
5.673542
 20
9.848523
  0
VERTEX
  8
FOREGROUND
  6
CONTINUOUS
 10
5.628524
 20
9.854116
  0
VERTEX
  8
FOREGROUND
  6
CONTINUOUS
 10
5.583455
 20
9.859337
  0
VERTEX
  8
FOREGROUND
  6
CONTINUOUS
 10
5.538341
 20
9.864184
  0
VERTEX
  8
FOREGROUND
  6
CONTINUOUS
 10
5.493183
 20
9.868659
  0
VERTEX
  8
FOREGROUND
  6
CONTINUOUS
 10
5.447986
 20
9.872762
  0
VERTEX
  8
FOREGROUND
  6
CONTINUOUS
 10
5.402753
 20
9.876491
  0
VERTEX
  8
FOREGROUND
  6
CONTINUOUS
 10
5.357487
 20
9.879848
  0
VERTEX
  8
FOREGROUND
  6
CONTINUOUS
 10
5.312192
 20
9.882832
  0
VERTEX
  8
FOREGROUND
  6
CONTINUOUS
 10
5.266871
 20
9.885444
  0
VERTEX
  8
FOREGROUND
  6
CONTINUOUS
 10
5.221528
 20
9.887682
  0
VERTEX
  8
FOREGROUND
  6
CONTINUOUS
 10
5.176166
 20
9.889548
  0
VERTEX
  8
FOREGROUND
  6
CONTINUOUS
 10
5.130788
 20
9.891041
  0
VERTEX
  8
FOREGROUND
  6
CONTINUOUS
 10
5.085399
 20
9.892161
  0
VERTEX
  8
FOREGROUND
  6
CONTINUOUS
 10
5.040001
 20
9.892909
  0
VERTEX
  8
FOREGROUND
  6
CONTINUOUS
 10
4.994597
 20
9.893284
  0
VERTEX
  8
FOREGROUND
  6
CONTINUOUS
 10
4.949192
 20
9.893286
  0
VERTEX
  8
FOREGROUND
  6
CONTINUOUS
 10
4.903789
 20
9.892915
  0
VERTEX
  8
FOREGROUND
  6
CONTINUOUS
 10
4.858390
 20
9.892172
  0
VERTEX
  8
FOREGROUND
  6
CONTINUOUS
 10
4.813001
 20
9.891056
  0
VERTEX
  8
FOREGROUND
  6
CONTINUOUS
 10
4.767623
 20
9.889567
  0
VERTEX
  8
FOREGROUND
  6
CONTINUOUS
 10
4.722261
 20
9.887705
  0
VERTEX
  8
FOREGROUND
  6
CONTINUOUS
 10
4.676917
 20
9.885471
  0
VERTEX
  8
FOREGROUND
  6
CONTINUOUS
 10
4.631596
 20
9.882864
  0
VERTEX
  8
FOREGROUND
  6
CONTINUOUS
 10
4.586301
 20
9.879884
  0
VERTEX
  8
FOREGROUND
  6
CONTINUOUS
 10
4.541035
 20
9.876531
  0
VERTEX
  8
FOREGROUND
  6
CONTINUOUS
 10
4.495801
 20
9.872806
  0
VERTEX
  8
FOREGROUND
  6
CONTINUOUS
 10
4.450604
 20
9.868708
  0
VERTEX
  8
FOREGROUND
  6
CONTINUOUS
 10
4.405446
 20
9.864237
  0
VERTEX
  8
FOREGROUND
  6
CONTINUOUS
 10
4.360331
 20
9.859393
  0
VERTEX
  8
FOREGROUND
  6
CONTINUOUS
 10
4.315262
 20
9.854177
  0
VERTEX
  8
FOREGROUND
  6
CONTINUOUS
 10
4.270243
 20
9.848588
  0
VERTEX
  8
FOREGROUND
  6
CONTINUOUS
 10
4.225278
 20
9.842626
  0
VERTEX
  8
FOREGROUND
  6
CONTINUOUS
 10
4.180369
 20
9.836291
  0
VERTEX
  8
FOREGROUND
  6
CONTINUOUS
 10
4.135520
 20
9.829584
  0
VERTEX
  8
FOREGROUND
  6
CONTINUOUS
 10
4.090734
 20
9.822504
  0
VERTEX
  8
FOREGROUND
  6
CONTINUOUS
 10
4.046016
 20
9.815051
  0
VERTEX
  8
FOREGROUND
  6
CONTINUOUS
 10
4.001368
 20
9.807225
  0
VERTEX
  8
FOREGROUND
  6
CONTINUOUS
 10
3.956794
 20
9.799027
  0
VERTEX
  8
FOREGROUND
  6
CONTINUOUS
 10
3.912297
 20
9.790456
  0
VERTEX
  8
FOREGROUND
  6
CONTINUOUS
 10
3.867880
 20
9.781512
  0
VERTEX
  8
FOREGROUND
  6
CONTINUOUS
 10
3.823548
 20
9.772195
  0
VERTEX
  8
FOREGROUND
  6
CONTINUOUS
 10
3.779304
 20
9.762506
  0
VERTEX
  8
FOREGROUND
  6
CONTINUOUS
 10
3.735150
 20
9.752444
  0
VERTEX
  8
FOREGROUND
  6
CONTINUOUS
 10
3.691091
 20
9.742009
  0
VERTEX
  8
FOREGROUND
  6
CONTINUOUS
 10
3.647130
 20
9.731201
  0
VERTEX
  8
FOREGROUND
  6
CONTINUOUS
 10
3.603270
 20
9.720021
  0
VERTEX
  8
FOREGROUND
  6
CONTINUOUS
 10
3.559515
 20
9.708467
  0
VERTEX
  8
FOREGROUND
  6
CONTINUOUS
 10
3.515868
 20
9.696542
  0
VERTEX
  8
FOREGROUND
  6
CONTINUOUS
 10
3.472333
 20
9.684243
  0
VERTEX
  8
FOREGROUND
  6
CONTINUOUS
 10
3.428913
 20
9.671571
  0
VERTEX
  8
FOREGROUND
  6
CONTINUOUS
 10
3.385611
 20
9.658527
  0
VERTEX
  8
FOREGROUND
  6
CONTINUOUS
 10
3.342432
 20
9.645110
  0
VERTEX
  8
FOREGROUND
  6
CONTINUOUS
 10
3.299377
 20
9.631321
  0
VERTEX
  8
FOREGROUND
  6
CONTINUOUS
 10
3.256452
 20
9.617158
  0
VERTEX
  8
FOREGROUND
  6
CONTINUOUS
 10
3.213658
 20
9.602623
  0
VERTEX
  8
FOREGROUND
  6
CONTINUOUS
 10
3.171000
 20
9.587715
  0
VERTEX
  8
FOREGROUND
  6
CONTINUOUS
 10
3.128482
 20
9.572434
  0
VERTEX
  8
FOREGROUND
  6
CONTINUOUS
 10
3.086106
 20
9.556781
  0
VERTEX
  8
FOREGROUND
  6
CONTINUOUS
 10
3.043876
 20
9.540755
  0
VERTEX
  8
FOREGROUND
  6
CONTINUOUS
 10
3.001795
 20
9.524356
  0
VERTEX
  8
FOREGROUND
  6
CONTINUOUS
 10
2.959867
 20
9.507584
  0
VERTEX
  8
FOREGROUND
  6
CONTINUOUS
 10
2.918096
 20
9.490440
  0
VERTEX
  8
FOREGROUND
  6
CONTINUOUS
 10
2.876484
 20
9.472922
  0
VERTEX
  8
FOREGROUND
  6
CONTINUOUS
 10
2.835035
 20
9.455032
  0
VERTEX
  8
FOREGROUND
  6
CONTINUOUS
 10
2.793753
 20
9.436770
  0
VERTEX
  8
FOREGROUND
  6
CONTINUOUS
 10
2.752641
 20
9.418134
  0
VERTEX
  8
FOREGROUND
  6
CONTINUOUS
 10
2.711702
 20
9.399126
  0
VERTEX
  8
FOREGROUND
  6
CONTINUOUS
 10
2.670941
 20
9.379745
  0
VERTEX
  8
FOREGROUND
  6
CONTINUOUS
 10
2.630359
 20
9.359991
  0
VERTEX
  8
FOREGROUND
  6
CONTINUOUS
 10
2.589961
 20
9.339865
  0
VERTEX
  8
FOREGROUND
  6
CONTINUOUS
 10
2.549751
 20
9.319365
  0
VERTEX
  8
FOREGROUND
  6
CONTINUOUS
 10
2.509731
 20
9.298493
  0
VERTEX
  8
FOREGROUND
  6
CONTINUOUS
 10
2.469905
 20
9.277249
  0
VERTEX
  8
FOREGROUND
  6
CONTINUOUS
 10
2.430277
 20
9.255631
  0
VERTEX
  8
FOREGROUND
  6
CONTINUOUS
 10
2.390850
 20
9.233641
  0
VERTEX
  8
FOREGROUND
  6
CONTINUOUS
 10
2.351627
 20
9.211278
  0
VERTEX
  8
FOREGROUND
  6
CONTINUOUS
 10
2.312612
 20
9.188542
  0
VERTEX
  8
FOREGROUND
  6
CONTINUOUS
 10
2.273808
 20
9.165433
  0
VERTEX
  8
FOREGROUND
  6
CONTINUOUS
 10
2.235219
 20
9.141952
  0
VERTEX
  8
FOREGROUND
  6
CONTINUOUS
 10
2.196848
 20
9.118098
  0
VERTEX
  8
FOREGROUND
  6
CONTINUOUS
 10
2.158698
 20
9.093871
  0
VERTEX
  8
FOREGROUND
  6
CONTINUOUS
 10
2.120774
 20
9.069272
  0
VERTEX
  8
FOREGROUND
  6
CONTINUOUS
 10
2.083077
 20
9.044299
  0
VERTEX
  8
FOREGROUND
  6
CONTINUOUS
 10
2.045613
 20
9.018954
  0
VERTEX
  8
FOREGROUND
  6
CONTINUOUS
 10
2.008384
 20
8.993236
  0
VERTEX
  8
FOREGROUND
  6
CONTINUOUS
 10
1.971394
 20
8.967146
  0
VERTEX
  8
FOREGROUND
  6
CONTINUOUS
 10
1.934646
 20
8.940682
  0
VERTEX
  8
FOREGROUND
  6
CONTINUOUS
 10
1.898143
 20
8.913846
  0
VERTEX
  8
FOREGROUND
  6
CONTINUOUS
 10
1.861890
 20
8.886637
  0
VERTEX
  8
FOREGROUND
  6
CONTINUOUS
 10
1.825889
 20
8.859055
  0
VERTEX
  8
FOREGROUND
  6
CONTINUOUS
 10
1.790143
 20
8.831101
  0
VERTEX
  8
FOREGROUND
  6
CONTINUOUS
 10
1.754658
 20
8.802774
  0
VERTEX
  8
FOREGROUND
  6
CONTINUOUS
 10
1.719435
 20
8.774074
  0
VERTEX
  8
FOREGROUND
  6
CONTINUOUS
 10
1.684478
 20
8.745001
  0
VERTEX
  8
FOREGROUND
  6
CONTINUOUS
 10
1.649790
 20
8.715556
  0
VERTEX
  8
FOREGROUND
  6
CONTINUOUS
 10
1.615376
 20
8.685737
  0
VERTEX
  8
FOREGROUND
  6
CONTINUOUS
 10
1.581239
 20
8.655546
  0
VERTEX
  8
FOREGROUND
  6
CONTINUOUS
 10
1.547381
 20
8.624983
  0
VERTEX
  8
FOREGROUND
  6
CONTINUOUS
 10
1.513807
 20
8.594046
  0
VERTEX
  8
FOREGROUND
  6
CONTINUOUS
 10
1.480519
 20
8.562737
  0
VERTEX
  8
FOREGROUND
  6
CONTINUOUS
 10
1.447522
 20
8.531055
  0
VERTEX
  8
FOREGROUND
  6
CONTINUOUS
 10
1.414818
 20
8.499000
  0
VERTEX
  8
FOREGROUND
  6
CONTINUOUS
 10
1.382412
 20
8.466572
  0
VERTEX
  8
FOREGROUND
  6
CONTINUOUS
 10
1.350306
 20
8.433772
  0
VERTEX
  8
FOREGROUND
  6
CONTINUOUS
 10
1.318504
 20
8.400599
  0
VERTEX
  8
FOREGROUND
  6
CONTINUOUS
 10
1.287010
 20
8.367053
  0
VERTEX
  8
FOREGROUND
  6
CONTINUOUS
 10
1.255826
 20
8.333134
  0
VERTEX
  8
FOREGROUND
  6
CONTINUOUS
 10
1.224957
 20
8.298843
  0
VERTEX
  8
FOREGROUND
  6
CONTINUOUS
 10
1.194405
 20
8.264179
  0
VERTEX
  8
FOREGROUND
  6
CONTINUOUS
 10
1.164175
 20
8.229142
  0
VERTEX
  8
FOREGROUND
  6
CONTINUOUS
 10
1.134269
 20
8.193732
  0
VERTEX
  8
FOREGROUND
  6
CONTINUOUS
 10
1.104691
 20
8.157950
  0
VERTEX
  8
FOREGROUND
  6
CONTINUOUS
 10
1.075445
 20
8.121795
  0
VERTEX
  8
FOREGROUND
  6
CONTINUOUS
 10
1.046534
 20
8.085267
  0
VERTEX
  8
FOREGROUND
  6
CONTINUOUS
 10
1.017961
 20
8.048366
  0
VERTEX
  8
FOREGROUND
  6
CONTINUOUS
 10
0.989729
 20
8.011093
  0
VERTEX
  8
FOREGROUND
  6
CONTINUOUS
 10
0.961843
 20
7.973446
  0
VERTEX
  8
FOREGROUND
  6
CONTINUOUS
 10
0.934306
 20
7.935427
  0
VERTEX
  8
FOREGROUND
  6
CONTINUOUS
 10
0.907121
 20
7.897036
  0
VERTEX
  8
FOREGROUND
  6
CONTINUOUS
 10
0.880291
 20
7.858271
  0
VERTEX
  8
FOREGROUND
  6
CONTINUOUS
 10
0.853820
 20
7.819134
  0
VERTEX
  8
FOREGROUND
  6
CONTINUOUS
 10
0.827711
 20
7.779624
  0
VERTEX
  8
FOREGROUND
  6
CONTINUOUS
 10
0.801969
 20
7.739741
  0
VERTEX
  8
FOREGROUND
  6
CONTINUOUS
 10
0.776595
 20
7.699485
  0
VERTEX
  8
FOREGROUND
  6
CONTINUOUS
 10
0.751595
 20
7.658857
  0
VERTEX
  8
FOREGROUND
  6
CONTINUOUS
 10
0.726970
 20
7.617856
  0
VERTEX
  8
FOREGROUND
  6
CONTINUOUS
 10
0.702725
 20
7.576482
  0
VERTEX
  8
FOREGROUND
  6
CONTINUOUS
 10
0.678863
 20
7.534735
  0
VERTEX
  8
FOREGROUND
  6
CONTINUOUS
 10
0.655387
 20
7.492616
  0
VERTEX
  8
FOREGROUND
  6
CONTINUOUS
 10
0.632302
 20
7.450124
  0
VERTEX
  8
FOREGROUND
  6
CONTINUOUS
 10
0.609609
 20
7.407259
  0
VERTEX
  8
FOREGROUND
  6
CONTINUOUS
 10
0.587314
 20
7.364021
  0
VERTEX
  8
FOREGROUND
  6
CONTINUOUS
 10
0.565418
 20
7.320410
  0
VERTEX
  8
FOREGROUND
  6
CONTINUOUS
 10
0.543926
 20
7.276427
  0
VERTEX
  8
FOREGROUND
  6
CONTINUOUS
 10
0.522841
 20
7.232071
  0
VERTEX
  8
FOREGROUND
  6
CONTINUOUS
 10
0.502167
 20
7.187342
  0
VERTEX
  8
FOREGROUND
  6
CONTINUOUS
 10
0.481907
 20
7.142241
  0
VERTEX
  8
FOREGROUND
  6
CONTINUOUS
 10
0.462063
 20
7.096767
  0
VERTEX
  8
FOREGROUND
  6
CONTINUOUS
 10
0.442641
 20
7.050919
  0
VERTEX
  8
FOREGROUND
  6
CONTINUOUS
 10
0.423643
 20
7.004700
  0
VERTEX
  8
FOREGROUND
  6
CONTINUOUS
 10
0.405073
 20
6.958107
  0
VERTEX
  8
FOREGROUND
  6
CONTINUOUS
 10
0.386933
 20
6.911142
  0
VERTEX
  8
FOREGROUND
  6
CONTINUOUS
 10
0.369228
 20
6.863803
  0
VERTEX
  8
FOREGROUND
  6
CONTINUOUS
 10
0.351961
 20
6.816092
  0
VERTEX
  8
FOREGROUND
  6
CONTINUOUS
 10
0.335136
 20
6.768009
  0
VERTEX
  8
FOREGROUND
  6
CONTINUOUS
 10
0.318755
 20
6.719552
  0
VERTEX
  8
FOREGROUND
  6
CONTINUOUS
 10
0.302823
 20
6.670723
  0
VERTEX
  8
FOREGROUND
  6
CONTINUOUS
 10
0.287342
 20
6.621521
  0
VERTEX
  8
FOREGROUND
  6
CONTINUOUS
 10
0.272317
 20
6.571946
  0
VERTEX
  8
FOREGROUND
  6
CONTINUOUS
 10
0.257750
 20
6.521999
  0
VERTEX
  8
FOREGROUND
  6
CONTINUOUS
 10
0.243645
 20
6.471678
  0
VERTEX
  8
FOREGROUND
  6
CONTINUOUS
 10
0.230005
 20
6.420985
  0
VERTEX
  8
FOREGROUND
  6
CONTINUOUS
 10
0.216834
 20
6.369920
  0
VERTEX
  8
FOREGROUND
  6
CONTINUOUS
 10
0.204136
 20
6.318481
  0
VERTEX
  8
FOREGROUND
  6
CONTINUOUS
 10
0.191913
 20
6.266670
  0
VERTEX
  8
FOREGROUND
  6
CONTINUOUS
 10
0.180170
 20
6.214485
  0
VERTEX
  8
FOREGROUND
  6
CONTINUOUS
 10
0.168909
 20
6.161928
  0
VERTEX
  8
FOREGROUND
  6
CONTINUOUS
 10
0.158134
 20
6.108999
  0
VERTEX
  8
FOREGROUND
  6
CONTINUOUS
 10
0.147849
 20
6.055696
  0
VERTEX
  8
FOREGROUND
  6
CONTINUOUS
 10
0.138057
 20
6.002021
  0
VERTEX
  8
FOREGROUND
  6
CONTINUOUS
 10
0.128761
 20
5.947973
  0
VERTEX
  8
FOREGROUND
  6
CONTINUOUS
 10
0.119965
 20
5.893552
  0
VERTEX
  8
FOREGROUND
  6
CONTINUOUS
 10
0.111672
 20
5.838759
  0
VERTEX
  8
FOREGROUND
  6
CONTINUOUS
 10
0.103885
 20
5.783592
  0
VERTEX
  8
FOREGROUND
  6
CONTINUOUS
 10
0.096609
 20
5.728053
  0
VERTEX
  8
FOREGROUND
  6
CONTINUOUS
 10
0.089846
 20
5.672141
  0
VERTEX
  8
FOREGROUND
  6
CONTINUOUS
 10
0.083601
 20
5.615857
  0
VERTEX
  8
FOREGROUND
  6
CONTINUOUS
 10
0.077875
 20
5.559199
  0
VERTEX
  8
FOREGROUND
  6
CONTINUOUS
 10
0.072674
 20
5.502169
  0
VERTEX
  8
FOREGROUND
  6
CONTINUOUS
 10
0.068000
 20
5.444766
  0
VERTEX
  8
FOREGROUND
  6
CONTINUOUS
 10
0.063856
 20
5.386990
  0
VERTEX
  8
FOREGROUND
  6
CONTINUOUS
 10
0.060247
 20
5.328842
  0
VERTEX
  8
FOREGROUND
  6
CONTINUOUS
 10
0.057175
 20
5.270321
  0
VERTEX
  8
FOREGROUND
  6
CONTINUOUS
 10
0.054644
 20
5.211427
  0
VERTEX
  8
FOREGROUND
  6
CONTINUOUS
 10
0.052658
 20
5.152160
  0
VERTEX
  8
FOREGROUND
  6
CONTINUOUS
 10
0.051220
 20
5.092520
  0
VERTEX
  8
FOREGROUND
  6
CONTINUOUS
 10
0.050332
 20
5.032508
  0
VERTEX
  8
FOREGROUND
  6
CONTINUOUS
 10
0.050000
 20
4.972123
  0
VERTEX
  8
FOREGROUND
  6
CONTINUOUS
 10
0.050000
 20
4.972123
  0
VERTEX
  8
FOREGROUND
  6
CONTINUOUS
 10
0.050321
 20
4.911737
  0
VERTEX
  8
FOREGROUND
  6
CONTINUOUS
 10
0.051197
 20
4.851725
  0
VERTEX
  8
FOREGROUND
  6
CONTINUOUS
 10
0.052625
 20
4.792085
  0
VERTEX
  8
FOREGROUND
  6
CONTINUOUS
 10
0.054600
 20
4.732818
  0
VERTEX
  8
FOREGROUND
  6
CONTINUOUS
 10
0.057120
 20
4.673923
  0
VERTEX
  8
FOREGROUND
  6
CONTINUOUS
 10
0.060181
 20
4.615402
  0
VERTEX
  8
FOREGROUND
  6
CONTINUOUS
 10
0.063779
 20
4.557252
  0
VERTEX
  8
FOREGROUND
  6
CONTINUOUS
 10
0.067912
 20
4.499476
  0
VERTEX
  8
FOREGROUND
  6
CONTINUOUS
 10
0.072576
 20
4.442072
  0
VERTEX
  8
FOREGROUND
  6
CONTINUOUS
 10
0.077767
 20
4.385041
  0
VERTEX
  8
FOREGROUND
  6
CONTINUOUS
 10
0.083481
 20
4.328382
  0
VERTEX
  8
FOREGROUND
  6
CONTINUOUS
 10
0.089717
 20
4.272097
  0
VERTEX
  8
FOREGROUND
  6
CONTINUOUS
 10
0.096469
 20
4.216184
  0
VERTEX
  8
FOREGROUND
  6
CONTINUOUS
 10
0.103735
 20
4.160643
  0
VERTEX
  8
FOREGROUND
  6
CONTINUOUS
 10
0.111511
 20
4.105475
  0
VERTEX
  8
FOREGROUND
  6
CONTINUOUS
 10
0.119794
 20
4.050680
  0
VERTEX
  8
FOREGROUND
  6
CONTINUOUS
 10
0.128580
 20
3.996258
  0
VERTEX
  8
FOREGROUND
  6
CONTINUOUS
 10
0.137866
 20
3.942208
  0
VERTEX
  8
FOREGROUND
  6
CONTINUOUS
 10
0.147648
 20
3.888531
  0
VERTEX
  8
FOREGROUND
  6
CONTINUOUS
 10
0.157924
 20
3.835227
  0
VERTEX
  8
FOREGROUND
  6
CONTINUOUS
 10
0.168689
 20
3.782295
  0
VERTEX
  8
FOREGROUND
  6
CONTINUOUS
 10
0.179940
 20
3.729736
  0
VERTEX
  8
FOREGROUND
  6
CONTINUOUS
 10
0.191674
 20
3.677550
  0
VERTEX
  8
FOREGROUND
  6
CONTINUOUS
 10
0.203887
 20
3.625736
  0
VERTEX
  8
FOREGROUND
  6
CONTINUOUS
 10
0.216575
 20
3.574295
  0
VERTEX
  8
FOREGROUND
  6
CONTINUOUS
 10
0.229737
 20
3.523227
  0
VERTEX
  8
FOREGROUND
  6
CONTINUOUS
 10
0.243367
 20
3.472531
  0
VERTEX
  8
FOREGROUND
  6
CONTINUOUS
 10
0.257462
 20
3.422208
  0
VERTEX
  8
FOREGROUND
  6
CONTINUOUS
 10
0.272020
 20
3.372258
  0
VERTEX
  8
FOREGROUND
  6
CONTINUOUS
 10
0.287037
 20
3.322680
  0
VERTEX
  8
FOREGROUND
  6
CONTINUOUS
 10
0.302508
 20
3.273475
  0
VERTEX
  8
FOREGROUND
  6
CONTINUOUS
 10
0.318431
 20
3.224643
  0
VERTEX
  8
FOREGROUND
  6
CONTINUOUS
 10
0.334803
 20
3.176184
  0
VERTEX
  8
FOREGROUND
  6
CONTINUOUS
 10
0.351620
 20
3.128097
  0
VERTEX
  8
FOREGROUND
  6
CONTINUOUS
 10
0.368878
 20
3.080383
  0
VERTEX
  8
FOREGROUND
  6
CONTINUOUS
 10
0.386574
 20
3.033041
  0
VERTEX
  8
FOREGROUND
  6
CONTINUOUS
 10
0.404704
 20
2.986073
  0
VERTEX
  8
FOREGROUND
  6
CONTINUOUS
 10
0.423266
 20
2.939477
  0
VERTEX
  8
FOREGROUND
  6
CONTINUOUS
 10
0.442256
 20
2.893253
  0
VERTEX
  8
FOREGROUND
  6
CONTINUOUS
 10
0.461670
 20
2.847402
  0
VERTEX
  8
FOREGROUND
  6
CONTINUOUS
 10
0.481504
 20
2.801924
  0
VERTEX
  8
FOREGROUND
  6
CONTINUOUS
 10
0.501756
 20
2.756819
  0
VERTEX
  8
FOREGROUND
  6
CONTINUOUS
 10
0.522423
 20
2.712087
  0
VERTEX
  8
FOREGROUND
  6
CONTINUOUS
 10
0.543499
 20
2.667727
  0
VERTEX
  8
FOREGROUND
  6
CONTINUOUS
 10
0.564983
 20
2.623739
  0
VERTEX
  8
FOREGROUND
  6
CONTINUOUS
 10
0.586870
 20
2.580125
  0
VERTEX
  8
FOREGROUND
  6
CONTINUOUS
 10
0.609158
 20
2.536883
  0
VERTEX
  8
FOREGROUND
  6
CONTINUOUS
 10
0.631842
 20
2.494014
  0
VERTEX
  8
FOREGROUND
  6
CONTINUOUS
 10
0.654920
 20
2.451517
  0
VERTEX
  8
FOREGROUND
  6
CONTINUOUS
 10
0.678388
 20
2.409394
  0
VERTEX
  8
FOREGROUND
  6
CONTINUOUS
 10
0.702242
 20
2.367643
  0
VERTEX
  8
FOREGROUND
  6
CONTINUOUS
 10
0.726480
 20
2.326264
  0
VERTEX
  8
FOREGROUND
  6
CONTINUOUS
 10
0.751097
 20
2.285258
  0
VERTEX
  8
FOREGROUND
  6
CONTINUOUS
 10
0.776090
 20
2.244625
  0
VERTEX
  8
FOREGROUND
  6
CONTINUOUS
 10
0.801456
 20
2.204365
  0
VERTEX
  8
FOREGROUND
  6
CONTINUOUS
 10
0.827191
 20
2.164478
  0
VERTEX
  8
FOREGROUND
  6
CONTINUOUS
 10
0.853292
 20
2.124963
  0
VERTEX
  8
FOREGROUND
  6
CONTINUOUS
 10
0.879756
 20
2.085820
  0
VERTEX
  8
FOREGROUND
  6
CONTINUOUS
 10
0.906579
 20
2.047051
  0
VERTEX
  8
FOREGROUND
  6
CONTINUOUS
 10
0.933757
 20
2.008654
  0
VERTEX
  8
FOREGROUND
  6
CONTINUOUS
 10
0.961287
 20
1.970630
  0
VERTEX
  8
FOREGROUND
  6
CONTINUOUS
 10
0.989166
 20
1.932979
  0
VERTEX
  8
FOREGROUND
  6
CONTINUOUS
 10
1.017391
 20
1.895700
  0
VERTEX
  8
FOREGROUND
  6
CONTINUOUS
 10
1.045957
 20
1.858794
  0
VERTEX
  8
FOREGROUND
  6
CONTINUOUS
 10
1.074861
 20
1.822261
  0
VERTEX
  8
FOREGROUND
  6
CONTINUOUS
 10
1.104101
 20
1.786100
  0
VERTEX
  8
FOREGROUND
  6
CONTINUOUS
 10
1.133672
 20
1.750312
  0
VERTEX
  8
FOREGROUND
  6
CONTINUOUS
 10
1.163571
 20
1.714897
  0
VERTEX
  8
FOREGROUND
  6
CONTINUOUS
 10
1.193795
 20
1.679854
  0
VERTEX
  8
FOREGROUND
  6
CONTINUOUS
 10
1.224340
 20
1.645185
  0
VERTEX
  8
FOREGROUND
  6
CONTINUOUS
 10
1.255203
 20
1.610887
  0
VERTEX
  8
FOREGROUND
  6
CONTINUOUS
 10
1.286381
 20
1.576963
  0
VERTEX
  8
FOREGROUND
  6
CONTINUOUS
 10
1.317869
 20
1.543411
  0
VERTEX
  8
FOREGROUND
  6
CONTINUOUS
 10
1.349665
 20
1.510232
  0
VERTEX
  8
FOREGROUND
  6
CONTINUOUS
 10
1.381764
 20
1.477426
  0
VERTEX
  8
FOREGROUND
  6
CONTINUOUS
 10
1.414165
 20
1.444993
  0
VERTEX
  8
FOREGROUND
  6
CONTINUOUS
 10
1.446862
 20
1.412932
  0
VERTEX
  8
FOREGROUND
  6
CONTINUOUS
 10
1.479854
 20
1.381244
  0
VERTEX
  8
FOREGROUND
  6
CONTINUOUS
 10
1.513136
 20
1.349928
  0
VERTEX
  8
FOREGROUND
  6
CONTINUOUS
 10
1.546704
 20
1.318985
  0
VERTEX
  8
FOREGROUND
  6
CONTINUOUS
 10
1.580556
 20
1.288415
  0
VERTEX
  8
FOREGROUND
  6
CONTINUOUS
 10
1.614688
 20
1.258218
  0
VERTEX
  8
FOREGROUND
  6
CONTINUOUS
 10
1.649097
 20
1.228393
  0
VERTEX
  8
FOREGROUND
  6
CONTINUOUS
 10
1.683778
 20
1.198941
  0
VERTEX
  8
FOREGROUND
  6
CONTINUOUS
 10
1.718730
 20
1.169862
  0
VERTEX
  8
FOREGROUND
  6
CONTINUOUS
 10
1.753948
 20
1.141156
  0
VERTEX
  8
FOREGROUND
  6
CONTINUOUS
 10
1.789428
 20
1.112822
  0
VERTEX
  8
FOREGROUND
  6
CONTINUOUS
 10
1.825168
 20
1.084861
  0
VERTEX
  8
FOREGROUND
  6
CONTINUOUS
 10
1.861164
 20
1.057273
  0
VERTEX
  8
FOREGROUND
  6
CONTINUOUS
 10
1.897413
 20
1.030057
  0
VERTEX
  8
FOREGROUND
  6
CONTINUOUS
 10
1.933910
 20
1.003214
  0
VERTEX
  8
FOREGROUND
  6
CONTINUOUS
 10
1.970653
 20
0.976744
  0
VERTEX
  8
FOREGROUND
  6
CONTINUOUS
 10
2.007639
 20
0.950646
  0
VERTEX
  8
FOREGROUND
  6
CONTINUOUS
 10
2.044863
 20
0.924922
  0
VERTEX
  8
FOREGROUND
  6
CONTINUOUS
 10
2.082323
 20
0.899570
  0
VERTEX
  8
FOREGROUND
  6
CONTINUOUS
 10
2.120014
 20
0.874590
  0
VERTEX
  8
FOREGROUND
  6
CONTINUOUS
 10
2.157934
 20
0.849984
  0
VERTEX
  8
FOREGROUND
  6
CONTINUOUS
 10
2.196079
 20
0.825750
  0
VERTEX
  8
FOREGROUND
  6
CONTINUOUS
 10
2.234446
 20
0.801888
  0
VERTEX
  8
FOREGROUND
  6
CONTINUOUS
 10
2.273031
 20
0.778400
  0
VERTEX
  8
FOREGROUND
  6
CONTINUOUS
 10
2.311830
 20
0.755284
  0
VERTEX
  8
FOREGROUND
  6
CONTINUOUS
 10
2.350841
 20
0.732541
  0
VERTEX
  8
FOREGROUND
  6
CONTINUOUS
 10
2.390060
 20
0.710171
  0
VERTEX
  8
FOREGROUND
  6
CONTINUOUS
 10
2.429483
 20
0.688173
  0
VERTEX
  8
FOREGROUND
  6
CONTINUOUS
 10
2.469108
 20
0.666548
  0
VERTEX
  8
FOREGROUND
  6
CONTINUOUS
 10
2.508929
 20
0.645296
  0
VERTEX
  8
FOREGROUND
  6
CONTINUOUS
 10
2.548945
 20
0.624417
  0
VERTEX
  8
FOREGROUND
  6
CONTINUOUS
 10
2.589152
 20
0.603910
  0
VERTEX
  8
FOREGROUND
  6
CONTINUOUS
 10
2.629546
 20
0.583776
  0
VERTEX
  8
FOREGROUND
  6
CONTINUOUS
 10
2.670124
 20
0.564015
  0
VERTEX
  8
FOREGROUND
  6
CONTINUOUS
 10
2.710882
 20
0.544626
  0
VERTEX
  8
FOREGROUND
  6
CONTINUOUS
 10
2.751817
 20
0.525610
  0
VERTEX
  8
FOREGROUND
  6
CONTINUOUS
 10
2.792926
 20
0.506967
  0
VERTEX
  8
FOREGROUND
  6
CONTINUOUS
 10
2.834204
 20
0.488697
  0
VERTEX
  8
FOREGROUND
  6
CONTINUOUS
 10
2.875650
 20
0.470799
  0
VERTEX
  8
FOREGROUND
  6
CONTINUOUS
 10
2.917258
 20
0.453274
  0
VERTEX
  8
FOREGROUND
  6
CONTINUOUS
 10
2.959027
 20
0.436122
  0
VERTEX
  8
FOREGROUND
  6
CONTINUOUS
 10
3.000951
 20
0.419343
  0
VERTEX
  8
FOREGROUND
  6
CONTINUOUS
 10
3.043029
 20
0.402936
  0
VERTEX
  8
FOREGROUND
  6
CONTINUOUS
 10
3.085256
 20
0.386902
  0
VERTEX
  8
FOREGROUND
  6
CONTINUOUS
 10
3.127629
 20
0.371241
  0
VERTEX
  8
FOREGROUND
  6
CONTINUOUS
 10
3.170145
 20
0.355952
  0
VERTEX
  8
FOREGROUND
  6
CONTINUOUS
 10
3.212800
 20
0.341036
  0
VERTEX
  8
FOREGROUND
  6
CONTINUOUS
 10
3.255591
 20
0.326493
  0
VERTEX
  8
FOREGROUND
  6
CONTINUOUS
 10
3.298514
 20
0.312323
  0
VERTEX
  8
FOREGROUND
  6
CONTINUOUS
 10
3.341566
 20
0.298525
  0
VERTEX
  8
FOREGROUND
  6
CONTINUOUS
 10
3.384743
 20
0.285100
  0
VERTEX
  8
FOREGROUND
  6
CONTINUOUS
 10
3.428042
 20
0.272048
  0
VERTEX
  8
FOREGROUND
  6
CONTINUOUS
 10
3.471460
 20
0.259368
  0
VERTEX
  8
FOREGROUND
  6
CONTINUOUS
 10
3.514993
 20
0.247062
  0
VERTEX
  8
FOREGROUND
  6
CONTINUOUS
 10
3.558638
 20
0.235128
  0
VERTEX
  8
FOREGROUND
  6
CONTINUOUS
 10
3.602391
 20
0.223566
  0
VERTEX
  8
FOREGROUND
  6
CONTINUOUS
 10
3.646248
 20
0.212378
  0
VERTEX
  8
FOREGROUND
  6
CONTINUOUS
 10
3.690207
 20
0.201562
  0
VERTEX
  8
FOREGROUND
  6
CONTINUOUS
 10
3.734265
 20
0.191119
  0
VERTEX
  8
FOREGROUND
  6
CONTINUOUS
 10
3.778416
 20
0.181049
  0
VERTEX
  8
FOREGROUND
  6
CONTINUOUS
 10
3.822659
 20
0.171351
  0
VERTEX
  8
FOREGROUND
  6
CONTINUOUS
 10
3.866989
 20
0.162026
  0
VERTEX
  8
FOREGROUND
  6
CONTINUOUS
 10
3.911404
 20
0.153074
  0
VERTEX
  8
FOREGROUND
  6
CONTINUOUS
 10
3.955899
 20
0.144495
  0
VERTEX
  8
FOREGROUND
  6
CONTINUOUS
 10
4.000472
 20
0.136288
  0
VERTEX
  8
FOREGROUND
  6
CONTINUOUS
 10
4.045118
 20
0.128454
  0
VERTEX
  8
FOREGROUND
  6
CONTINUOUS
 10
4.089835
 20
0.120993
  0
VERTEX
  8
FOREGROUND
  6
CONTINUOUS
 10
4.134619
 20
0.113905
  0
VERTEX
  8
FOREGROUND
  6
CONTINUOUS
 10
4.179467
 20
0.107189
  0
VERTEX
  8
FOREGROUND
  6
CONTINUOUS
 10
4.224375
 20
0.100846
  0
VERTEX
  8
FOREGROUND
  6
CONTINUOUS
 10
4.269340
 20
0.094876
  0
VERTEX
  8
FOREGROUND
  6
CONTINUOUS
 10
4.314357
 20
0.089278
  0
VERTEX
  8
FOREGROUND
  6
CONTINUOUS
 10
4.359425
 20
0.084053
  0
VERTEX
  8
FOREGROUND
  6
CONTINUOUS
 10
4.404539
 20
0.079201
  0
VERTEX
  8
FOREGROUND
  6
CONTINUOUS
 10
4.449696
 20
0.074722
  0
VERTEX
  8
FOREGROUND
  6
CONTINUOUS
 10
4.494893
 20
0.070616
  0
VERTEX
  8
FOREGROUND
  6
CONTINUOUS
 10
4.540126
 20
0.066882
  0
VERTEX
  8
FOREGROUND
  6
CONTINUOUS
 10
4.585392
 20
0.063521
  0
VERTEX
  8
FOREGROUND
  6
CONTINUOUS
 10
4.630686
 20
0.060533
  0
VERTEX
  8
FOREGROUND
  6
CONTINUOUS
 10
4.676007
 20
0.057917
  0
VERTEX
  8
FOREGROUND
  6
CONTINUOUS
 10
4.721350
 20
0.055674
  0
VERTEX
  8
FOREGROUND
  6
CONTINUOUS
 10
4.766712
 20
0.053804
  0
VERTEX
  8
FOREGROUND
  6
CONTINUOUS
 10
4.812089
 20
0.052307
  0
VERTEX
  8
FOREGROUND
  6
CONTINUOUS
 10
4.857479
 20
0.051182
  0
VERTEX
  8
FOREGROUND
  6
CONTINUOUS
 10
4.902877
 20
0.050431
  0
VERTEX
  8
FOREGROUND
  6
CONTINUOUS
 10
4.948280
 20
0.050052
  0
VERTEX
  8
FOREGROUND
  6
CONTINUOUS
 10
4.993685
 20
0.050045
  0
VERTEX
  8
FOREGROUND
  6
CONTINUOUS
 10
5.039089
 20
0.050412
  0
VERTEX
  8
FOREGROUND
  6
CONTINUOUS
 10
5.084487
 20
0.051151
  0
VERTEX
  8
FOREGROUND
  6
CONTINUOUS
 10
5.129877
 20
0.052263
  0
VERTEX
  8
FOREGROUND
  6
CONTINUOUS
 10
5.175255
 20
0.053747
  0
VERTEX
  8
FOREGROUND
  6
CONTINUOUS
 10
5.220617
 20
0.055605
  0
VERTEX
  8
FOREGROUND
  6
CONTINUOUS
 10
5.265961
 20
0.057835
  0
VERTEX
  8
FOREGROUND
  6
CONTINUOUS
 10
5.311282
 20
0.060438
  0
VERTEX
  8
FOREGROUND
  6
CONTINUOUS
 10
5.356578
 20
0.063414
  0
VERTEX
  8
FOREGROUND
  6
CONTINUOUS
 10
5.401844
 20
0.066762
  0
VERTEX
  8
FOREGROUND
  6
CONTINUOUS
 10
5.447078
 20
0.070483
  0
VERTEX
  8
FOREGROUND
  6
CONTINUOUS
 10
5.492276
 20
0.074577
  0
VERTEX
  8
FOREGROUND
  6
CONTINUOUS
 10
5.537434
 20
0.079044
  0
VERTEX
  8
FOREGROUND
  6
CONTINUOUS
 10
5.582550
 20
0.083883
  0
VERTEX
  8
FOREGROUND
  6
CONTINUOUS
 10
5.627619
 20
0.089096
  0
VERTEX
  8
FOREGROUND
  6
CONTINUOUS
 10
5.672638
 20
0.094681
  0
VERTEX
  8
FOREGROUND
  6
CONTINUOUS
 10
5.717604
 20
0.100638
  0
VERTEX
  8
FOREGROUND
  6
CONTINUOUS
 10
5.762514
 20
0.106969
  0
VERTEX
  8
FOREGROUND
  6
CONTINUOUS
 10
5.807364
 20
0.113672
  0
VERTEX
  8
FOREGROUND
  6
CONTINUOUS
 10
5.852150
 20
0.120748
  0
VERTEX
  8
FOREGROUND
  6
CONTINUOUS
 10
5.896869
 20
0.128197
  0
VERTEX
  8
FOREGROUND
  6
CONTINUOUS
 10
5.941518
 20
0.136018
  0
VERTEX
  8
FOREGROUND
  6
CONTINUOUS
 10
5.986093
 20
0.144213
  0
VERTEX
  8
FOREGROUND
  6
CONTINUOUS
 10
6.030590
 20
0.152780
  0
VERTEX
  8
FOREGROUND
  6
CONTINUOUS
 10
6.075007
 20
0.161719
  0
VERTEX
  8
FOREGROUND
  6
CONTINUOUS
 10
6.119340
 20
0.171032
  0
VERTEX
  8
FOREGROUND
  6
CONTINUOUS
 10
6.163586
 20
0.180717
  0
VERTEX
  8
FOREGROUND
  6
CONTINUOUS
 10
6.207740
 20
0.190775
  0
VERTEX
  8
FOREGROUND
  6
CONTINUOUS
 10
6.251800
 20
0.201206
  0
VERTEX
  8
FOREGROUND
  6
CONTINUOUS
 10
6.295762
 20
0.212010
  0
VERTEX
  8
FOREGROUND
  6
CONTINUOUS
 10
6.339623
 20
0.223186
  0
VERTEX
  8
FOREGROUND
  6
CONTINUOUS
 10
6.383379
 20
0.234735
  0
VERTEX
  8
FOREGROUND
  6
CONTINUOUS
 10
6.427027
 20
0.246657
  0
VERTEX
  8
FOREGROUND
  6
CONTINUOUS
 10
6.470563
 20
0.258952
  0
VERTEX
  8
FOREGROUND
  6
CONTINUOUS
 10
6.513985
 20
0.271619
  0
VERTEX
  8
FOREGROUND
  6
CONTINUOUS
 10
6.557288
 20
0.284659
  0
VERTEX
  8
FOREGROUND
  6
CONTINUOUS
 10
6.600469
 20
0.298072
  0
VERTEX
  8
FOREGROUND
  6
CONTINUOUS
 10
6.643524
 20
0.311858
  0
VERTEX
  8
FOREGROUND
  6
CONTINUOUS
 10
6.686451
 20
0.326016
  0
VERTEX
  8
FOREGROUND
  6
CONTINUOUS
 10
6.729246
 20
0.340547
  0
VERTEX
  8
FOREGROUND
  6
CONTINUOUS
 10
6.771905
 20
0.355451
  0
VERTEX
  8
FOREGROUND
  6
CONTINUOUS
 10
6.814425
 20
0.370728
  0
VERTEX
  8
FOREGROUND
  6
CONTINUOUS
 10
6.856803
 20
0.386378
  0
VERTEX
  8
FOREGROUND
  6
CONTINUOUS
 10
6.899034
 20
0.402400
  0
VERTEX
  8
FOREGROUND
  6
CONTINUOUS
 10
6.941117
 20
0.418795
  0
VERTEX
  8
FOREGROUND
  6
CONTINUOUS
 10
6.983046
 20
0.435563
  0
VERTEX
  8
FOREGROUND
  6
CONTINUOUS
 10
7.024819
 20
0.452703
  0
VERTEX
  8
FOREGROUND
  6
CONTINUOUS
 10
7.066432
 20
0.470217
  0
VERTEX
  8
FOREGROUND
  6
CONTINUOUS
 10
7.107883
 20
0.488103
  0
VERTEX
  8
FOREGROUND
  6
CONTINUOUS
 10
7.149167
 20
0.506362
  0
VERTEX
  8
FOREGROUND
  6
CONTINUOUS
 10
7.190280
 20
0.524994
  0
VERTEX
  8
FOREGROUND
  6
CONTINUOUS
 10
7.231221
 20
0.543998
  0
VERTEX
  8
FOREGROUND
  6
CONTINUOUS
 10
7.271984
 20
0.563375
  0
VERTEX
  8
FOREGROUND
  6
CONTINUOUS
 10
7.312568
 20
0.583125
  0
VERTEX
  8
FOREGROUND
  6
CONTINUOUS
 10
7.352967
 20
0.603248
  0
VERTEX
  8
FOREGROUND
  6
CONTINUOUS
 10
7.393179
 20
0.623743
  0
VERTEX
  8
FOREGROUND
  6
CONTINUOUS
 10
7.433201
 20
0.644612
  0
VERTEX
  8
FOREGROUND
  6
CONTINUOUS
 10
7.473029
 20
0.665853
  0
VERTEX
  8
FOREGROUND
  6
CONTINUOUS
 10
7.512659
 20
0.687467
  0
VERTEX
  8
FOREGROUND
  6
CONTINUOUS
 10
7.552089
 20
0.709453
  0
VERTEX
  8
FOREGROUND
  6
CONTINUOUS
 10
7.591314
 20
0.731813
  0
VERTEX
  8
FOREGROUND
  6
CONTINUOUS
 10
7.630331
 20
0.754545
  0
VERTEX
  8
FOREGROUND
  6
CONTINUOUS
 10
7.669137
 20
0.777650
  0
VERTEX
  8
FOREGROUND
  6
CONTINUOUS
 10
7.707728
 20
0.801128
  0
VERTEX
  8
FOREGROUND
  6
CONTINUOUS
 10
7.746102
 20
0.824978
  0
VERTEX
  8
FOREGROUND
  6
CONTINUOUS
 10
7.784253
 20
0.849202
  0
VERTEX
  8
FOREGROUND
  6
CONTINUOUS
 10
7.822180
 20
0.873798
  0
VERTEX
  8
FOREGROUND
  6
CONTINUOUS
 10
7.859879
 20
0.898767
  0
VERTEX
  8
FOREGROUND
  6
CONTINUOUS
 10
7.897345
 20
0.924108
  0
VERTEX
  8
FOREGROUND
  6
CONTINUOUS
 10
7.934577
 20
0.949823
  0
VERTEX
  8
FOREGROUND
  6
CONTINUOUS
 10
7.971569
 20
0.975910
  0
VERTEX
  8
FOREGROUND
  6
CONTINUOUS
 10
8.008320
 20
1.002370
  0
VERTEX
  8
FOREGROUND
  6
CONTINUOUS
 10
8.044825
 20
1.029203
  0
VERTEX
  8
FOREGROUND
  6
CONTINUOUS
 10
8.081081
 20
1.056408
  0
VERTEX
  8
FOREGROUND
  6
CONTINUOUS
 10
8.117085
 20
1.083987
  0
VERTEX
  8
FOREGROUND
  6
CONTINUOUS
 10
8.152832
 20
1.111938
  0
VERTEX
  8
FOREGROUND
  6
CONTINUOUS
 10
8.188321
 20
1.140262
  0
VERTEX
  8
FOREGROUND
  6
CONTINUOUS
 10
8.223547
 20
1.168958
  0
VERTEX
  8
FOREGROUND
  6
CONTINUOUS
 10
8.258506
 20
1.198028
  0
VERTEX
  8
FOREGROUND
  6
CONTINUOUS
 10
8.293196
 20
1.227470
  0
VERTEX
  8
FOREGROUND
  6
CONTINUOUS
 10
8.327613
 20
1.257285
  0
VERTEX
  8
FOREGROUND
  6
CONTINUOUS
 10
8.361753
 20
1.287473
  0
VERTEX
  8
FOREGROUND
  6
CONTINUOUS
 10
8.395614
 20
1.318033
  0
VERTEX
  8
FOREGROUND
  6
CONTINUOUS
 10
8.429191
 20
1.348967
  0
VERTEX
  8
FOREGROUND
  6
CONTINUOUS
 10
8.462481
 20
1.380273
  0
VERTEX
  8
FOREGROUND
  6
CONTINUOUS
 10
8.495482
 20
1.411952
  0
VERTEX
  8
FOREGROUND
  6
CONTINUOUS
 10
8.528188
 20
1.444004
  0
VERTEX
  8
FOREGROUND
  6
CONTINUOUS
 10
8.560597
 20
1.476428
  0
VERTEX
  8
FOREGROUND
  6
CONTINUOUS
 10
8.592706
 20
1.509226
  0
VERTEX
  8
FOREGROUND
  6
CONTINUOUS
 10
8.624511
 20
1.542396
  0
VERTEX
  8
FOREGROUND
  6
CONTINUOUS
 10
8.656009
 20
1.575939
  0
VERTEX
  8
FOREGROUND
  6
CONTINUOUS
 10
8.687196
 20
1.609855
  0
VERTEX
  8
FOREGROUND
  6
CONTINUOUS
 10
8.718068
 20
1.644143
  0
VERTEX
  8
FOREGROUND
  6
CONTINUOUS
 10
8.748623
 20
1.678804
  0
VERTEX
  8
FOREGROUND
  6
CONTINUOUS
 10
8.778857
 20
1.713838
  0
VERTEX
  8
FOREGROUND
  6
CONTINUOUS
 10
8.808766
 20
1.749245
  0
VERTEX
  8
FOREGROUND
  6
CONTINUOUS
 10
8.838347
 20
1.785025
  0
VERTEX
  8
FOREGROUND
  6
CONTINUOUS
 10
8.867596
 20
1.821178
  0
VERTEX
  8
FOREGROUND
  6
CONTINUOUS
 10
8.896511
 20
1.857703
  0
VERTEX
  8
FOREGROUND
  6
CONTINUOUS
 10
8.925088
 20
1.894601
  0
VERTEX
  8
FOREGROUND
  6
CONTINUOUS
 10
8.953322
 20
1.931872
  0
VERTEX
  8
FOREGROUND
  6
CONTINUOUS
 10
8.981212
 20
1.969515
  0
VERTEX
  8
FOREGROUND
  6
CONTINUOUS
 10
9.008753
 20
2.007532
  0
VERTEX
  8
FOREGROUND
  6
CONTINUOUS
 10
9.035942
 20
2.045921
  0
VERTEX
  8
FOREGROUND
  6
CONTINUOUS
 10
9.062775
 20
2.084683
  0
VERTEX
  8
FOREGROUND
  6
CONTINUOUS
 10
9.089250
 20
2.123818
  0
VERTEX
  8
FOREGROUND
  6
CONTINUOUS
 10
9.115362
 20
2.163326
  0
VERTEX
  8
FOREGROUND
  6
CONTINUOUS
 10
9.141108
 20
2.203206
  0
VERTEX
  8
FOREGROUND
  6
CONTINUOUS
 10
9.166485
 20
2.243459
  0
VERTEX
  8
FOREGROUND
  6
CONTINUOUS
 10
9.191490
 20
2.284085
  0
VERTEX
  8
FOREGROUND
  6
CONTINUOUS
 10
9.216118
 20
2.325084
  0
VERTEX
  8
FOREGROUND
  6
CONTINUOUS
 10
9.240367
 20
2.366456
  0
VERTEX
  8
FOREGROUND
  6
CONTINUOUS
 10
9.264233
 20
2.408200
  0
VERTEX
  8
FOREGROUND
  6
CONTINUOUS
 10
9.287712
 20
2.450318
  0
VERTEX
  8
FOREGROUND
  6
CONTINUOUS
 10
9.310802
 20
2.492808
  0
VERTEX
  8
FOREGROUND
  6
CONTINUOUS
 10
9.333498
 20
2.535670
  0
VERTEX
  8
FOREGROUND
  6
CONTINUOUS
 10
9.355798
 20
2.578906
  0
VERTEX
  8
FOREGROUND
  6
CONTINUOUS
 10
9.377698
 20
2.622515
  0
VERTEX
  8
FOREGROUND
  6
CONTINUOUS
 10
9.399194
 20
2.666496
  0
VERTEX
  8
FOREGROUND
  6
CONTINUOUS
 10
9.420283
 20
2.710850
  0
VERTEX
  8
FOREGROUND
  6
CONTINUOUS
 10
9.440961
 20
2.755577
  0
VERTEX
  8
FOREGROUND
  6
CONTINUOUS
 10
9.461226
 20
2.800676
  0
VERTEX
  8
FOREGROUND
  6
CONTINUOUS
 10
9.481073
 20
2.846149
  0
VERTEX
  8
FOREGROUND
  6
CONTINUOUS
 10
9.500500
 20
2.891994
  0
VERTEX
  8
FOREGROUND
  6
CONTINUOUS
 10
9.519502
 20
2.938212
  0
VERTEX
  8
FOREGROUND
  6
CONTINUOUS
 10
9.538077
 20
2.984803
  0
VERTEX
  8
FOREGROUND
  6
CONTINUOUS
 10
9.556220
 20
3.031767
  0
VERTEX
  8
FOREGROUND
  6
CONTINUOUS
 10
9.573930
 20
3.079104
  0
VERTEX
  8
FOREGROUND
  6
CONTINUOUS
 10
9.591201
 20
3.126813
  0
VERTEX
  8
FOREGROUND
  6
CONTINUOUS
 10
9.608031
 20
3.174895
  0
VERTEX
  8
FOREGROUND
  6
CONTINUOUS
 10
9.624416
 20
3.223350
  0
VERTEX
  8
FOREGROUND
  6
CONTINUOUS
 10
9.640353
 20
3.272178
  0
VERTEX
  8
FOREGROUND
  6
CONTINUOUS
 10
9.655838
 20
3.321378
  0
VERTEX
  8
FOREGROUND
  6
CONTINUOUS
 10
9.670868
 20
3.370952
  0
VERTEX
  8
FOREGROUND
  6
CONTINUOUS
 10
9.685440
 20
3.420898
  0
VERTEX
  8
FOREGROUND
  6
CONTINUOUS
 10
9.699550
 20
3.471217
  0
VERTEX
  8
FOREGROUND
  6
CONTINUOUS
 10
9.713194
 20
3.521909
  0
VERTEX
  8
FOREGROUND
  6
CONTINUOUS
 10
9.726369
 20
3.572973
  0
VERTEX
  8
FOREGROUND
  6
CONTINUOUS
 10
9.739072
 20
3.624411
  0
VERTEX
  8
FOREGROUND
  6
CONTINUOUS
 10
9.751300
 20
3.676221
  0
VERTEX
  8
FOREGROUND
  6
CONTINUOUS
 10
9.763048
 20
3.728404
  0
VERTEX
  8
FOREGROUND
  6
CONTINUOUS
 10
9.774314
 20
3.780960
  0
VERTEX
  8
FOREGROUND
  6
CONTINUOUS
 10
9.785093
 20
3.833889
  0
VERTEX
  8
FOREGROUND
  6
CONTINUOUS
 10
9.795384
 20
3.887190
  0
VERTEX
  8
FOREGROUND
  6
CONTINUOUS
 10
9.805181
 20
3.940864
  0
VERTEX
  8
FOREGROUND
  6
CONTINUOUS
 10
9.814482
 20
3.994912
  0
VERTEX
  8
FOREGROUND
  6
CONTINUOUS
 10
9.823283
 20
4.049332
  0
VERTEX
  8
FOREGROUND
  6
CONTINUOUS
 10
9.831581
 20
4.104124
  0
VERTEX
  8
FOREGROUND
  6
CONTINUOUS
 10
9.839373
 20
4.159290
  0
VERTEX
  8
FOREGROUND
  6
CONTINUOUS
 10
9.846654
 20
4.214828
  0
VERTEX
  8
FOREGROUND
  6
CONTINUOUS
 10
9.853422
 20
4.270740
  0
VERTEX
  8
FOREGROUND
  6
CONTINUOUS
 10
9.859673
 20
4.327024
  0
VERTEX
  8
FOREGROUND
  6
CONTINUOUS
 10
9.865403
 20
4.383681
  0
VERTEX
  8
FOREGROUND
  6
CONTINUOUS
 10
9.870610
 20
4.440710
  0
VERTEX
  8
FOREGROUND
  6
CONTINUOUS
 10
9.875290
 20
4.498113
  0
VERTEX
  8
FOREGROUND
  6
CONTINUOUS
 10
9.879439
 20
4.555888
  0
VERTEX
  8
FOREGROUND
  6
CONTINUOUS
 10
9.883053
 20
4.614036
  0
VERTEX
  8
FOREGROUND
  6
CONTINUOUS
 10
9.886131
 20
4.672557
  0
VERTEX
  8
FOREGROUND
  6
CONTINUOUS
 10
9.888667
 20
4.731451
  0
VERTEX
  8
FOREGROUND
  6
CONTINUOUS
 10
9.890659
 20
4.790718
  0
VERTEX
  8
FOREGROUND
  6
CONTINUOUS
 10
9.892103
 20
4.850357
  0
VERTEX
  8
FOREGROUND
  6
CONTINUOUS
 10
9.892995
 20
4.910370
  0
VERTEX
  8
FOREGROUND
  6
CONTINUOUS
 10
9.893333
 20
4.970755
  0
SEQEND
  8
0
  0
ENDSEC
  0
EOF
