  0
SECTION
  2
HEADER
  9
$ACADVER
  1
AC1006
  9
$EXTMIN
 10
0.000000
 20
0.000000
  9
$EXTMAX
 10
10.336667
 20
10.336667
  9
$LTSCALE
 40
0.166667
  9
$PDMODE
 70
    35
  9
$PDSIZE
 40
0.133333
  0
ENDSEC
  0
SECTION
  2
TABLES
  0
TABLE
  2
LTYPE
 70
     9
  0
LTYPE
  2
CONTINUOUS
 70
    64
  3
Solid line
 72
    65
 73
     0
 40
0.000000
  0
LTYPE
  2
DASHED
 70
    64
  3
__ __ __ __ __ __ __ __ __ __ __ __ __ __ __
 72
    65
 73
     2
 40
0.001250
 49
0.000833
 49
-0.000417
  0
LTYPE
  2
HIDDEN
 70
    64
  3
 _ _ _ _ _ _ _ _ _ _ _ _ _ _ _ _ _ _ _ _ _ _
 72
    65
 73
     2
 40
0.000625
 49
0.000417
 49
-0.000208
  0
LTYPE
  2
CENTER
 70
    64
  3
____ _ ____ _ ____ _ ____ _ ____ _ ____ _ ____
 72
    65
 73
     4
 40
0.003333
 49
0.002083
 49
-0.000417
 49
0.000417
 49
-0.000417
  0
LTYPE
  2
PHANTOM
 70
    64
  3
_____ _ _ _____ _ _ _____ _ _ _____ _ _ ____
 72
    65
 73
     6
 40
0.004167
 49
0.002083
 49
-0.000417
 49
0.000417
 49
-0.000417
 49
0.000417
 49
-0.000417
  0
LTYPE
  2
DOT
 70
    64
  3
...............................................
 72
    65
 73
     2
 40
0.000417
 49
0.000000
 49
-0.000417
  0
LTYPE
  2
DASHDOT
 70
    64
  3
__ . __ . __ . __ . __ . __ . __ . __ . __ . __
 72
    65
 73
     4
 40
0.001667
 49
0.000833
 49
-0.000417
 49
0.000000
 49
-0.000417
  0
LTYPE
  2
BORDER
 70
    64
  3
__ __ . __ __ . __ __ . __ __ . __ __ . __ __
 72
    65
 73
     6
 40
0.002917
 49
0.000833
 49
-0.000417
 49
0.000833
 49
-0.000417
 49
0.000000
 49
-0.000417
  0
LTYPE
  2
DIVIDE
 70
    64
  3
__ . . __ . . __ . . __ . . __ . . __ . . __
 72
    65
 73
     6
 40
0.002083
 49
0.000833
 49
-0.000417
 49
0.000000
 49
-0.000417
 49
0.000000
 49
-0.000417
  0
LTYPE
  2
DOTDOT
 70
    64
  3
 . .  . .  . .  . .  . .  . . 
 72
    65
 73
     5
 40
0.000917
 49
-0.000417
 49
0.000000
 49
-0.000417
 49
0.000000
 49
-0.000417
  0
ENDTAB
  0
TABLE
  2
STYLE
 70
     2
  0
STYLE
 70
     0
  2
SN0
 40
0.000000
 41
0.001667
 50
0.000000
 71
     0
 42
0.000000
  3
ROMAND
  0
STYLE
 70
    68
  2
SV0
 40
0.000000
 41
0.001667
 50
0.000000
 71
     0
 42
0.000000
  3
ROMAND
  0
ENDTAB
  0
TABLE
  2
LAYER
 70
     2
  0
LAYER
  2
FOREGROUND
 70
    64
 62
     7
  6
CONTINUOUS
  0
LAYER
  2
BACKGROUND
 70
    65
 62
    -7
  6
CONTINUOUS
  0
ENDTAB
  0
ENDSEC
  0
SECTION
  2
ENTITIES
  0
POLYLINE
  8
FOREGROUND
  6
CONTINUOUS
 66
     1
 40
0.010000
 41
0.010000
 70
     1
  0
VERTEX
  8
FOREGROUND
  6
CONTINUOUS
 10
10.286667
 20
5.168333
  0
VERTEX
  8
FOREGROUND
  6
CONTINUOUS
 10
10.286327
 20
5.231131
  0
VERTEX
  8
FOREGROUND
  6
CONTINUOUS
 10
10.285410
 20
5.293542
  0
VERTEX
  8
FOREGROUND
  6
CONTINUOUS
 10
10.283920
 20
5.355565
  0
VERTEX
  8
FOREGROUND
  6
CONTINUOUS
 10
10.281860
 20
5.417200
  0
VERTEX
  8
FOREGROUND
  6
CONTINUOUS
 10
10.279234
 20
5.478448
  0
VERTEX
  8
FOREGROUND
  6
CONTINUOUS
 10
10.276045
 20
5.539308
  0
VERTEX
  8
FOREGROUND
  6
CONTINUOUS
 10
10.272297
 20
5.599780
  0
VERTEX
  8
FOREGROUND
  6
CONTINUOUS
 10
10.267993
 20
5.659865
  0
VERTEX
  8
FOREGROUND
  6
CONTINUOUS
 10
10.263138
 20
5.719562
  0
VERTEX
  8
FOREGROUND
  6
CONTINUOUS
 10
10.257734
 20
5.778872
  0
VERTEX
  8
FOREGROUND
  6
CONTINUOUS
 10
10.251785
 20
5.837794
  0
VERTEX
  8
FOREGROUND
  6
CONTINUOUS
 10
10.245295
 20
5.896328
  0
VERTEX
  8
FOREGROUND
  6
CONTINUOUS
 10
10.238268
 20
5.954475
  0
VERTEX
  8
FOREGROUND
  6
CONTINUOUS
 10
10.230706
 20
6.012234
  0
VERTEX
  8
FOREGROUND
  6
CONTINUOUS
 10
10.222614
 20
6.069605
  0
VERTEX
  8
FOREGROUND
  6
CONTINUOUS
 10
10.213995
 20
6.126589
  0
VERTEX
  8
FOREGROUND
  6
CONTINUOUS
 10
10.204853
 20
6.183186
  0
VERTEX
  8
FOREGROUND
  6
CONTINUOUS
 10
10.195190
 20
6.239394
  0
VERTEX
  8
FOREGROUND
  6
CONTINUOUS
 10
10.185012
 20
6.295215
  0
VERTEX
  8
FOREGROUND
  6
CONTINUOUS
 10
10.174321
 20
6.350649
  0
VERTEX
  8
FOREGROUND
  6
CONTINUOUS
 10
10.163121
 20
6.405694
  0
VERTEX
  8
FOREGROUND
  6
CONTINUOUS
 10
10.151415
 20
6.460353
  0
VERTEX
  8
FOREGROUND
  6
CONTINUOUS
 10
10.139207
 20
6.514623
  0
VERTEX
  8
FOREGROUND
  6
CONTINUOUS
 10
10.126501
 20
6.568506
  0
VERTEX
  8
FOREGROUND
  6
CONTINUOUS
 10
10.113300
 20
6.622001
  0
VERTEX
  8
FOREGROUND
  6
CONTINUOUS
 10
10.099608
 20
6.675109
  0
VERTEX
  8
FOREGROUND
  6
CONTINUOUS
 10
10.085429
 20
6.727829
  0
VERTEX
  8
FOREGROUND
  6
CONTINUOUS
 10
10.070765
 20
6.780161
  0
VERTEX
  8
FOREGROUND
  6
CONTINUOUS
 10
10.055621
 20
6.832106
  0
VERTEX
  8
FOREGROUND
  6
CONTINUOUS
 10
10.039999
 20
6.883664
  0
VERTEX
  8
FOREGROUND
  6
CONTINUOUS
 10
10.023905
 20
6.934833
  0
VERTEX
  8
FOREGROUND
  6
CONTINUOUS
 10
10.007340
 20
6.985615
  0
VERTEX
  8
FOREGROUND
  6
CONTINUOUS
 10
9.990310
 20
7.036009
  0
VERTEX
  8
FOREGROUND
  6
CONTINUOUS
 10
9.972817
 20
7.086016
  0
VERTEX
  8
FOREGROUND
  6
CONTINUOUS
 10
9.954865
 20
7.135635
  0
VERTEX
  8
FOREGROUND
  6
CONTINUOUS
 10
9.936457
 20
7.184867
  0
VERTEX
  8
FOREGROUND
  6
CONTINUOUS
 10
9.917597
 20
7.233710
  0
VERTEX
  8
FOREGROUND
  6
CONTINUOUS
 10
9.898289
 20
7.282167
  0
VERTEX
  8
FOREGROUND
  6
CONTINUOUS
 10
9.878536
 20
7.330235
  0
VERTEX
  8
FOREGROUND
  6
CONTINUOUS
 10
9.858342
 20
7.377916
  0
VERTEX
  8
FOREGROUND
  6
CONTINUOUS
 10
9.837711
 20
7.425210
  0
VERTEX
  8
FOREGROUND
  6
CONTINUOUS
 10
9.816645
 20
7.472115
  0
VERTEX
  8
FOREGROUND
  6
CONTINUOUS
 10
9.795149
 20
7.518634
  0
VERTEX
  8
FOREGROUND
  6
CONTINUOUS
 10
9.773226
 20
7.564764
  0
VERTEX
  8
FOREGROUND
  6
CONTINUOUS
 10
9.750879
 20
7.610507
  0
VERTEX
  8
FOREGROUND
  6
CONTINUOUS
 10
9.728113
 20
7.655862
  0
VERTEX
  8
FOREGROUND
  6
CONTINUOUS
 10
9.704930
 20
7.700830
  0
VERTEX
  8
FOREGROUND
  6
CONTINUOUS
 10
9.681335
 20
7.745410
  0
VERTEX
  8
FOREGROUND
  6
CONTINUOUS
 10
9.657331
 20
7.789602
  0
VERTEX
  8
FOREGROUND
  6
CONTINUOUS
 10
9.632922
 20
7.833407
  0
VERTEX
  8
FOREGROUND
  6
CONTINUOUS
 10
9.608110
 20
7.876824
  0
VERTEX
  8
FOREGROUND
  6
CONTINUOUS
 10
9.582900
 20
7.919853
  0
VERTEX
  8
FOREGROUND
  6
CONTINUOUS
 10
9.557296
 20
7.962495
  0
VERTEX
  8
FOREGROUND
  6
CONTINUOUS
 10
9.531300
 20
8.004750
  0
VERTEX
  8
FOREGROUND
  6
CONTINUOUS
 10
9.504916
 20
8.046616
  0
VERTEX
  8
FOREGROUND
  6
CONTINUOUS
 10
9.478149
 20
8.088095
  0
VERTEX
  8
FOREGROUND
  6
CONTINUOUS
 10
9.451001
 20
8.129187
  0
VERTEX
  8
FOREGROUND
  6
CONTINUOUS
 10
9.423476
 20
8.169890
  0
VERTEX
  8
FOREGROUND
  6
CONTINUOUS
 10
9.395578
 20
8.210207
  0
VERTEX
  8
FOREGROUND
  6
CONTINUOUS
 10
9.367310
 20
8.250135
  0
VERTEX
  8
FOREGROUND
  6
CONTINUOUS
 10
9.338676
 20
8.289676
  0
VERTEX
  8
FOREGROUND
  6
CONTINUOUS
 10
9.309679
 20
8.328829
  0
VERTEX
  8
FOREGROUND
  6
CONTINUOUS
 10
9.280323
 20
8.367595
  0
VERTEX
  8
FOREGROUND
  6
CONTINUOUS
 10
9.250612
 20
8.405973
  0
VERTEX
  8
FOREGROUND
  6
CONTINUOUS
 10
9.220549
 20
8.443963
  0
VERTEX
  8
FOREGROUND
  6
CONTINUOUS
 10
9.190137
 20
8.481566
  0
VERTEX
  8
FOREGROUND
  6
CONTINUOUS
 10
9.159381
 20
8.518781
  0
VERTEX
  8
FOREGROUND
  6
CONTINUOUS
 10
9.128284
 20
8.555609
  0
VERTEX
  8
FOREGROUND
  6
CONTINUOUS
 10
9.096849
 20
8.592048
  0
VERTEX
  8
FOREGROUND
  6
CONTINUOUS
 10
9.065080
 20
8.628101
  0
VERTEX
  8
FOREGROUND
  6
CONTINUOUS
 10
9.032980
 20
8.663765
  0
VERTEX
  8
FOREGROUND
  6
CONTINUOUS
 10
9.000554
 20
8.699042
  0
VERTEX
  8
FOREGROUND
  6
CONTINUOUS
 10
8.967804
 20
8.733932
  0
VERTEX
  8
FOREGROUND
  6
CONTINUOUS
 10
8.934735
 20
8.768433
  0
VERTEX
  8
FOREGROUND
  6
CONTINUOUS
 10
8.901349
 20
8.802547
  0
VERTEX
  8
FOREGROUND
  6
CONTINUOUS
 10
8.867651
 20
8.836274
  0
VERTEX
  8
FOREGROUND
  6
CONTINUOUS
 10
8.833644
 20
8.869613
  0
VERTEX
  8
FOREGROUND
  6
CONTINUOUS
 10
8.799331
 20
8.902564
  0
VERTEX
  8
FOREGROUND
  6
CONTINUOUS
 10
8.764716
 20
8.935128
  0
VERTEX
  8
FOREGROUND
  6
CONTINUOUS
 10
8.729803
 20
8.967303
  0
VERTEX
  8
FOREGROUND
  6
CONTINUOUS
 10
8.694596
 20
8.999092
  0
VERTEX
  8
FOREGROUND
  6
CONTINUOUS
 10
8.659097
 20
9.030492
  0
VERTEX
  8
FOREGROUND
  6
CONTINUOUS
 10
8.623310
 20
9.061506
  0
VERTEX
  8
FOREGROUND
  6
CONTINUOUS
 10
8.587240
 20
9.092131
  0
VERTEX
  8
FOREGROUND
  6
CONTINUOUS
 10
8.550889
 20
9.122369
  0
VERTEX
  8
FOREGROUND
  6
CONTINUOUS
 10
8.514261
 20
9.152219
  0
VERTEX
  8
FOREGROUND
  6
CONTINUOUS
 10
8.477360
 20
9.181682
  0
VERTEX
  8
FOREGROUND
  6
CONTINUOUS
 10
8.440189
 20
9.210756
  0
VERTEX
  8
FOREGROUND
  6
CONTINUOUS
 10
8.402752
 20
9.239444
  0
VERTEX
  8
FOREGROUND
  6
CONTINUOUS
 10
8.365053
 20
9.267743
  0
VERTEX
  8
FOREGROUND
  6
CONTINUOUS
 10
8.327094
 20
9.295655
  0
VERTEX
  8
FOREGROUND
  6
CONTINUOUS
 10
8.288880
 20
9.323180
  0
VERTEX
  8
FOREGROUND
  6
CONTINUOUS
 10
8.250414
 20
9.350317
  0
VERTEX
  8
FOREGROUND
  6
CONTINUOUS
 10
8.211700
 20
9.377066
  0
VERTEX
  8
FOREGROUND
  6
CONTINUOUS
 10
8.172741
 20
9.403427
  0
VERTEX
  8
FOREGROUND
  6
CONTINUOUS
 10
8.133541
 20
9.429401
  0
VERTEX
  8
FOREGROUND
  6
CONTINUOUS
 10
8.094104
 20
9.454987
  0
VERTEX
  8
FOREGROUND
  6
CONTINUOUS
 10
8.054432
 20
9.480186
  0
VERTEX
  8
FOREGROUND
  6
CONTINUOUS
 10
8.014530
 20
9.504997
  0
VERTEX
  8
FOREGROUND
  6
CONTINUOUS
 10
7.974401
 20
9.529420
  0
VERTEX
  8
FOREGROUND
  6
CONTINUOUS
 10
7.934049
 20
9.553456
  0
VERTEX
  8
FOREGROUND
  6
CONTINUOUS
 10
7.893477
 20
9.577104
  0
VERTEX
  8
FOREGROUND
  6
CONTINUOUS
 10
7.852689
 20
9.600365
  0
VERTEX
  8
FOREGROUND
  6
CONTINUOUS
 10
7.811688
 20
9.623237
  0
VERTEX
  8
FOREGROUND
  6
CONTINUOUS
 10
7.770478
 20
9.645723
  0
VERTEX
  8
FOREGROUND
  6
CONTINUOUS
 10
7.729063
 20
9.667820
  0
VERTEX
  8
FOREGROUND
  6
CONTINUOUS
 10
7.687446
 20
9.689530
  0
VERTEX
  8
FOREGROUND
  6
CONTINUOUS
 10
7.645631
 20
9.710852
  0
VERTEX
  8
FOREGROUND
  6
CONTINUOUS
 10
7.603621
 20
9.731787
  0
VERTEX
  8
FOREGROUND
  6
CONTINUOUS
 10
7.561420
 20
9.752334
  0
VERTEX
  8
FOREGROUND
  6
CONTINUOUS
 10
7.519031
 20
9.772493
  0
VERTEX
  8
FOREGROUND
  6
CONTINUOUS
 10
7.476458
 20
9.792265
  0
VERTEX
  8
FOREGROUND
  6
CONTINUOUS
 10
7.433705
 20
9.811649
  0
VERTEX
  8
FOREGROUND
  6
CONTINUOUS
 10
7.390775
 20
9.830646
  0
VERTEX
  8
FOREGROUND
  6
CONTINUOUS
 10
7.347672
 20
9.849255
  0
VERTEX
  8
FOREGROUND
  6
CONTINUOUS
 10
7.304399
 20
9.867476
  0
VERTEX
  8
FOREGROUND
  6
CONTINUOUS
 10
7.260960
 20
9.885309
  0
VERTEX
  8
FOREGROUND
  6
CONTINUOUS
 10
7.217358
 20
9.902755
  0
VERTEX
  8
FOREGROUND
  6
CONTINUOUS
 10
7.173598
 20
9.919814
  0
VERTEX
  8
FOREGROUND
  6
CONTINUOUS
 10
7.129682
 20
9.936484
  0
VERTEX
  8
FOREGROUND
  6
CONTINUOUS
 10
7.085614
 20
9.952767
  0
VERTEX
  8
FOREGROUND
  6
CONTINUOUS
 10
7.041398
 20
9.968663
  0
VERTEX
  8
FOREGROUND
  6
CONTINUOUS
 10
6.997037
 20
9.984170
  0
VERTEX
  8
FOREGROUND
  6
CONTINUOUS
 10
6.952535
 20
9.999291
  0
VERTEX
  8
FOREGROUND
  6
CONTINUOUS
 10
6.907895
 20
10.014023
  0
VERTEX
  8
FOREGROUND
  6
CONTINUOUS
 10
6.863122
 20
10.028368
  0
VERTEX
  8
FOREGROUND
  6
CONTINUOUS
 10
6.818218
 20
10.042325
  0
VERTEX
  8
FOREGROUND
  6
CONTINUOUS
 10
6.773187
 20
10.055895
  0
VERTEX
  8
FOREGROUND
  6
CONTINUOUS
 10
6.728033
 20
10.069077
  0
VERTEX
  8
FOREGROUND
  6
CONTINUOUS
 10
6.682760
 20
10.081871
  0
VERTEX
  8
FOREGROUND
  6
CONTINUOUS
 10
6.637370
 20
10.094278
  0
VERTEX
  8
FOREGROUND
  6
CONTINUOUS
 10
6.591867
 20
10.106297
  0
VERTEX
  8
FOREGROUND
  6
CONTINUOUS
 10
6.546256
 20
10.117928
  0
VERTEX
  8
FOREGROUND
  6
CONTINUOUS
 10
6.500539
 20
10.129172
  0
VERTEX
  8
FOREGROUND
  6
CONTINUOUS
 10
6.454721
 20
10.140028
  0
VERTEX
  8
FOREGROUND
  6
CONTINUOUS
 10
6.408804
 20
10.150496
  0
VERTEX
  8
FOREGROUND
  6
CONTINUOUS
 10
6.362792
 20
10.160577
  0
VERTEX
  8
FOREGROUND
  6
CONTINUOUS
 10
6.316690
 20
10.170270
  0
VERTEX
  8
FOREGROUND
  6
CONTINUOUS
 10
6.270499
 20
10.179576
  0
VERTEX
  8
FOREGROUND
  6
CONTINUOUS
 10
6.224225
 20
10.188494
  0
VERTEX
  8
FOREGROUND
  6
CONTINUOUS
 10
6.177871
 20
10.197024
  0
VERTEX
  8
FOREGROUND
  6
CONTINUOUS
 10
6.131439
 20
10.205167
  0
VERTEX
  8
FOREGROUND
  6
CONTINUOUS
 10
6.084935
 20
10.212922
  0
VERTEX
  8
FOREGROUND
  6
CONTINUOUS
 10
6.038360
 20
10.220289
  0
VERTEX
  8
FOREGROUND
  6
CONTINUOUS
 10
5.991720
 20
10.227269
  0
VERTEX
  8
FOREGROUND
  6
CONTINUOUS
 10
5.945017
 20
10.233861
  0
VERTEX
  8
FOREGROUND
  6
CONTINUOUS
 10
5.898255
 20
10.240065
  0
VERTEX
  8
FOREGROUND
  6
CONTINUOUS
 10
5.851438
 20
10.245882
  0
VERTEX
  8
FOREGROUND
  6
CONTINUOUS
 10
5.804569
 20
10.251311
  0
VERTEX
  8
FOREGROUND
  6
CONTINUOUS
 10
5.757651
 20
10.256353
  0
VERTEX
  8
FOREGROUND
  6
CONTINUOUS
 10
5.710689
 20
10.261007
  0
VERTEX
  8
FOREGROUND
  6
CONTINUOUS
 10
5.663686
 20
10.265273
  0
VERTEX
  8
FOREGROUND
  6
CONTINUOUS
 10
5.616645
 20
10.269152
  0
VERTEX
  8
FOREGROUND
  6
CONTINUOUS
 10
5.569571
 20
10.272643
  0
VERTEX
  8
FOREGROUND
  6
CONTINUOUS
 10
5.522466
 20
10.275746
  0
VERTEX
  8
FOREGROUND
  6
CONTINUOUS
 10
5.475334
 20
10.278462
  0
VERTEX
  8
FOREGROUND
  6
CONTINUOUS
 10
5.428179
 20
10.280790
  0
VERTEX
  8
FOREGROUND
  6
CONTINUOUS
 10
5.381004
 20
10.282730
  0
VERTEX
  8
FOREGROUND
  6
CONTINUOUS
 10
5.333813
 20
10.284283
  0
VERTEX
  8
FOREGROUND
  6
CONTINUOUS
 10
5.286610
 20
10.285448
  0
VERTEX
  8
FOREGROUND
  6
CONTINUOUS
 10
5.239398
 20
10.286225
  0
VERTEX
  8
FOREGROUND
  6
CONTINUOUS
 10
5.192180
 20
10.286615
  0
VERTEX
  8
FOREGROUND
  6
CONTINUOUS
 10
5.144961
 20
10.286617
  0
VERTEX
  8
FOREGROUND
  6
CONTINUOUS
 10
5.097743
 20
10.286232
  0
VERTEX
  8
FOREGROUND
  6
CONTINUOUS
 10
5.050531
 20
10.285459
  0
VERTEX
  8
FOREGROUND
  6
CONTINUOUS
 10
5.003327
 20
10.284298
  0
VERTEX
  8
FOREGROUND
  6
CONTINUOUS
 10
4.956136
 20
10.282750
  0
VERTEX
  8
FOREGROUND
  6
CONTINUOUS
 10
4.908961
 20
10.280814
  0
VERTEX
  8
FOREGROUND
  6
CONTINUOUS
 10
4.861806
 20
10.278490
  0
VERTEX
  8
FOREGROUND
  6
CONTINUOUS
 10
4.814674
 20
10.275779
  0
VERTEX
  8
FOREGROUND
  6
CONTINUOUS
 10
4.767569
 20
10.272680
  0
VERTEX
  8
FOREGROUND
  6
CONTINUOUS
 10
4.720494
 20
10.269193
  0
VERTEX
  8
FOREGROUND
  6
CONTINUOUS
 10
4.673453
 20
10.265319
  0
VERTEX
  8
FOREGROUND
  6
CONTINUOUS
 10
4.626449
 20
10.261057
  0
VERTEX
  8
FOREGROUND
  6
CONTINUOUS
 10
4.579487
 20
10.256408
  0
VERTEX
  8
FOREGROUND
  6
CONTINUOUS
 10
4.532569
 20
10.251370
  0
VERTEX
  8
FOREGROUND
  6
CONTINUOUS
 10
4.485699
 20
10.245946
  0
VERTEX
  8
FOREGROUND
  6
CONTINUOUS
 10
4.438881
 20
10.240133
  0
VERTEX
  8
FOREGROUND
  6
CONTINUOUS
 10
4.392119
 20
10.233933
  0
VERTEX
  8
FOREGROUND
  6
CONTINUOUS
 10
4.345415
 20
10.227345
  0
VERTEX
  8
FOREGROUND
  6
CONTINUOUS
 10
4.298774
 20
10.220370
  0
VERTEX
  8
FOREGROUND
  6
CONTINUOUS
 10
4.252199
 20
10.213007
  0
VERTEX
  8
FOREGROUND
  6
CONTINUOUS
 10
4.205694
 20
10.205256
  0
VERTEX
  8
FOREGROUND
  6
CONTINUOUS
 10
4.159262
 20
10.197118
  0
VERTEX
  8
FOREGROUND
  6
CONTINUOUS
 10
4.112907
 20
10.188592
  0
VERTEX
  8
FOREGROUND
  6
CONTINUOUS
 10
4.066632
 20
10.179678
  0
VERTEX
  8
FOREGROUND
  6
CONTINUOUS
 10
4.020440
 20
10.170377
  0
VERTEX
  8
FOREGROUND
  6
CONTINUOUS
 10
3.974337
 20
10.160688
  0
VERTEX
  8
FOREGROUND
  6
CONTINUOUS
 10
3.928324
 20
10.150611
  0
VERTEX
  8
FOREGROUND
  6
CONTINUOUS
 10
3.882407
 20
10.140147
  0
VERTEX
  8
FOREGROUND
  6
CONTINUOUS
 10
3.836587
 20
10.129295
  0
VERTEX
  8
FOREGROUND
  6
CONTINUOUS
 10
3.790869
 20
10.118056
  0
VERTEX
  8
FOREGROUND
  6
CONTINUOUS
 10
3.745257
 20
10.106428
  0
VERTEX
  8
FOREGROUND
  6
CONTINUOUS
 10
3.699753
 20
10.094414
  0
VERTEX
  8
FOREGROUND
  6
CONTINUOUS
 10
3.654362
 20
10.082011
  0
VERTEX
  8
FOREGROUND
  6
CONTINUOUS
 10
3.609087
 20
10.069221
  0
VERTEX
  8
FOREGROUND
  6
CONTINUOUS
 10
3.563932
 20
10.056043
  0
VERTEX
  8
FOREGROUND
  6
CONTINUOUS
 10
3.518900
 20
10.042478
  0
VERTEX
  8
FOREGROUND
  6
CONTINUOUS
 10
3.473995
 20
10.028525
  0
VERTEX
  8
FOREGROUND
  6
CONTINUOUS
 10
3.429220
 20
10.014184
  0
VERTEX
  8
FOREGROUND
  6
CONTINUOUS
 10
3.384579
 20
9.999456
  0
VERTEX
  8
FOREGROUND
  6
CONTINUOUS
 10
3.340076
 20
9.984340
  0
VERTEX
  8
FOREGROUND
  6
CONTINUOUS
 10
3.295714
 20
9.968836
  0
VERTEX
  8
FOREGROUND
  6
CONTINUOUS
 10
3.251496
 20
9.952945
  0
VERTEX
  8
FOREGROUND
  6
CONTINUOUS
 10
3.207427
 20
9.936666
  0
VERTEX
  8
FOREGROUND
  6
CONTINUOUS
 10
3.163509
 20
9.919999
  0
VERTEX
  8
FOREGROUND
  6
CONTINUOUS
 10
3.119747
 20
9.902945
  0
VERTEX
  8
FOREGROUND
  6
CONTINUOUS
 10
3.076144
 20
9.885503
  0
VERTEX
  8
FOREGROUND
  6
CONTINUOUS
 10
3.032703
 20
9.867674
  0
VERTEX
  8
FOREGROUND
  6
CONTINUOUS
 10
2.989428
 20
9.849456
  0
VERTEX
  8
FOREGROUND
  6
CONTINUOUS
 10
2.946323
 20
9.830852
  0
VERTEX
  8
FOREGROUND
  6
CONTINUOUS
 10
2.903392
 20
9.811859
  0
VERTEX
  8
FOREGROUND
  6
CONTINUOUS
 10
2.860637
 20
9.792479
  0
VERTEX
  8
FOREGROUND
  6
CONTINUOUS
 10
2.818062
 20
9.772711
  0
VERTEX
  8
FOREGROUND
  6
CONTINUOUS
 10
2.775672
 20
9.752556
  0
VERTEX
  8
FOREGROUND
  6
CONTINUOUS
 10
2.733469
 20
9.732013
  0
VERTEX
  8
FOREGROUND
  6
CONTINUOUS
 10
2.691457
 20
9.711082
  0
VERTEX
  8
FOREGROUND
  6
CONTINUOUS
 10
2.649640
 20
9.689763
  0
VERTEX
  8
FOREGROUND
  6
CONTINUOUS
 10
2.608021
 20
9.668057
  0
VERTEX
  8
FOREGROUND
  6
CONTINUOUS
 10
2.566603
 20
9.645964
  0
VERTEX
  8
FOREGROUND
  6
CONTINUOUS
 10
2.525392
 20
9.623482
  0
VERTEX
  8
FOREGROUND
  6
CONTINUOUS
 10
2.484389
 20
9.600613
  0
VERTEX
  8
FOREGROUND
  6
CONTINUOUS
 10
2.443599
 20
9.577357
  0
VERTEX
  8
FOREGROUND
  6
CONTINUOUS
 10
2.403024
 20
9.553712
  0
VERTEX
  8
FOREGROUND
  6
CONTINUOUS
 10
2.362670
 20
9.529680
  0
VERTEX
  8
FOREGROUND
  6
CONTINUOUS
 10
2.322539
 20
9.505261
  0
VERTEX
  8
FOREGROUND
  6
CONTINUOUS
 10
2.282634
 20
9.480453
  0
VERTEX
  8
FOREGROUND
  6
CONTINUOUS
 10
2.242960
 20
9.455258
  0
VERTEX
  8
FOREGROUND
  6
CONTINUOUS
 10
2.203520
 20
9.429676
  0
VERTEX
  8
FOREGROUND
  6
CONTINUOUS
 10
2.164318
 20
9.403706
  0
VERTEX
  8
FOREGROUND
  6
CONTINUOUS
 10
2.125356
 20
9.377348
  0
VERTEX
  8
FOREGROUND
  6
CONTINUOUS
 10
2.086640
 20
9.350602
  0
VERTEX
  8
FOREGROUND
  6
CONTINUOUS
 10
2.048171
 20
9.323469
  0
VERTEX
  8
FOREGROUND
  6
CONTINUOUS
 10
2.009955
 20
9.295948
  0
VERTEX
  8
FOREGROUND
  6
CONTINUOUS
 10
1.971994
 20
9.268040
  0
VERTEX
  8
FOREGROUND
  6
CONTINUOUS
 10
1.934292
 20
9.239743
  0
VERTEX
  8
FOREGROUND
  6
CONTINUOUS
 10
1.896852
 20
9.211060
  0
VERTEX
  8
FOREGROUND
  6
CONTINUOUS
 10
1.859678
 20
9.181988
  0
VERTEX
  8
FOREGROUND
  6
CONTINUOUS
 10
1.822775
 20
9.152529
  0
VERTEX
  8
FOREGROUND
  6
CONTINUOUS
 10
1.786144
 20
9.122682
  0
VERTEX
  8
FOREGROUND
  6
CONTINUOUS
 10
1.749790
 20
9.092448
  0
VERTEX
  8
FOREGROUND
  6
CONTINUOUS
 10
1.713717
 20
9.061826
  0
VERTEX
  8
FOREGROUND
  6
CONTINUOUS
 10
1.677928
 20
9.030816
  0
VERTEX
  8
FOREGROUND
  6
CONTINUOUS
 10
1.642426
 20
8.999418
  0
VERTEX
  8
FOREGROUND
  6
CONTINUOUS
 10
1.607215
 20
8.967633
  0
VERTEX
  8
FOREGROUND
  6
CONTINUOUS
 10
1.572300
 20
8.935461
  0
VERTEX
  8
FOREGROUND
  6
CONTINUOUS
 10
1.537682
 20
8.902900
  0
VERTEX
  8
FOREGROUND
  6
CONTINUOUS
 10
1.503366
 20
8.869952
  0
VERTEX
  8
FOREGROUND
  6
CONTINUOUS
 10
1.469356
 20
8.836617
  0
VERTEX
  8
FOREGROUND
  6
CONTINUOUS
 10
1.435654
 20
8.802893
  0
VERTEX
  8
FOREGROUND
  6
CONTINUOUS
 10
1.402266
 20
8.768782
  0
VERTEX
  8
FOREGROUND
  6
CONTINUOUS
 10
1.369193
 20
8.734284
  0
VERTEX
  8
FOREGROUND
  6
CONTINUOUS
 10
1.336440
 20
8.699397
  0
VERTEX
  8
FOREGROUND
  6
CONTINUOUS
 10
1.304010
 20
8.664123
  0
VERTEX
  8
FOREGROUND
  6
CONTINUOUS
 10
1.271907
 20
8.628462
  0
VERTEX
  8
FOREGROUND
  6
CONTINUOUS
 10
1.240135
 20
8.592412
  0
VERTEX
  8
FOREGROUND
  6
CONTINUOUS
 10
1.208697
 20
8.555975
  0
VERTEX
  8
FOREGROUND
  6
CONTINUOUS
 10
1.177596
 20
8.519151
  0
VERTEX
  8
FOREGROUND
  6
CONTINUOUS
 10
1.146836
 20
8.481939
  0
VERTEX
  8
FOREGROUND
  6
CONTINUOUS
 10
1.116421
 20
8.444339
  0
VERTEX
  8
FOREGROUND
  6
CONTINUOUS
 10
1.086355
 20
8.406351
  0
VERTEX
  8
FOREGROUND
  6
CONTINUOUS
 10
1.056640
 20
8.367976
  0
VERTEX
  8
FOREGROUND
  6
CONTINUOUS
 10
1.027280
 20
8.329213
  0
VERTEX
  8
FOREGROUND
  6
CONTINUOUS
 10
0.998280
 20
8.290062
  0
VERTEX
  8
FOREGROUND
  6
CONTINUOUS
 10
0.969642
 20
8.250524
  0
VERTEX
  8
FOREGROUND
  6
CONTINUOUS
 10
0.941371
 20
8.210598
  0
VERTEX
  8
FOREGROUND
  6
CONTINUOUS
 10
0.913469
 20
8.170285
  0
VERTEX
  8
FOREGROUND
  6
CONTINUOUS
 10
0.885940
 20
8.129583
  0
VERTEX
  8
FOREGROUND
  6
CONTINUOUS
 10
0.858788
 20
8.088495
  0
VERTEX
  8
FOREGROUND
  6
CONTINUOUS
 10
0.832017
 20
8.047018
  0
VERTEX
  8
FOREGROUND
  6
CONTINUOUS
 10
0.805630
 20
8.005154
  0
VERTEX
  8
FOREGROUND
  6
CONTINUOUS
 10
0.779630
 20
7.962902
  0
VERTEX
  8
FOREGROUND
  6
CONTINUOUS
 10
0.754021
 20
7.920263
  0
VERTEX
  8
FOREGROUND
  6
CONTINUOUS
 10
0.728807
 20
7.877235
  0
VERTEX
  8
FOREGROUND
  6
CONTINUOUS
 10
0.703992
 20
7.833821
  0
VERTEX
  8
FOREGROUND
  6
CONTINUOUS
 10
0.679578
 20
7.790018
  0
VERTEX
  8
FOREGROUND
  6
CONTINUOUS
 10
0.655570
 20
7.745828
  0
VERTEX
  8
FOREGROUND
  6
CONTINUOUS
 10
0.631971
 20
7.701250
  0
VERTEX
  8
FOREGROUND
  6
CONTINUOUS
 10
0.608784
 20
7.656285
  0
VERTEX
  8
FOREGROUND
  6
CONTINUOUS
 10
0.586014
 20
7.610931
  0
VERTEX
  8
FOREGROUND
  6
CONTINUOUS
 10
0.563663
 20
7.565191
  0
VERTEX
  8
FOREGROUND
  6
CONTINUOUS
 10
0.541736
 20
7.519062
  0
VERTEX
  8
FOREGROUND
  6
CONTINUOUS
 10
0.520235
 20
7.472546
  0
VERTEX
  8
FOREGROUND
  6
CONTINUOUS
 10
0.499165
 20
7.425642
  0
VERTEX
  8
FOREGROUND
  6
CONTINUOUS
 10
0.478529
 20
7.378351
  0
VERTEX
  8
FOREGROUND
  6
CONTINUOUS
 10
0.458331
 20
7.330672
  0
VERTEX
  8
FOREGROUND
  6
CONTINUOUS
 10
0.438573
 20
7.282605
  0
VERTEX
  8
FOREGROUND
  6
CONTINUOUS
 10
0.419261
 20
7.234151
  0
VERTEX
  8
FOREGROUND
  6
CONTINUOUS
 10
0.400397
 20
7.185308
  0
VERTEX
  8
FOREGROUND
  6
CONTINUOUS
 10
0.381984
 20
7.136079
  0
VERTEX
  8
FOREGROUND
  6
CONTINUOUS
 10
0.364028
 20
7.086461
  0
VERTEX
  8
FOREGROUND
  6
CONTINUOUS
 10
0.346530
 20
7.036456
  0
VERTEX
  8
FOREGROUND
  6
CONTINUOUS
 10
0.329495
 20
6.986063
  0
VERTEX
  8
FOREGROUND
  6
CONTINUOUS
 10
0.312926
 20
6.935283
  0
VERTEX
  8
FOREGROUND
  6
CONTINUOUS
 10
0.296826
 20
6.884115
  0
VERTEX
  8
FOREGROUND
  6
CONTINUOUS
 10
0.281200
 20
6.832559
  0
VERTEX
  8
FOREGROUND
  6
CONTINUOUS
 10
0.266051
 20
6.780616
  0
VERTEX
  8
FOREGROUND
  6
CONTINUOUS
 10
0.251383
 20
6.728285
  0
VERTEX
  8
FOREGROUND
  6
CONTINUOUS
 10
0.237198
 20
6.675566
  0
VERTEX
  8
FOREGROUND
  6
CONTINUOUS
 10
0.223501
 20
6.622459
  0
VERTEX
  8
FOREGROUND
  6
CONTINUOUS
 10
0.210295
 20
6.568965
  0
VERTEX
  8
FOREGROUND
  6
CONTINUOUS
 10
0.197584
 20
6.515084
  0
VERTEX
  8
FOREGROUND
  6
CONTINUOUS
 10
0.185372
 20
6.460814
  0
VERTEX
  8
FOREGROUND
  6
CONTINUOUS
 10
0.173661
 20
6.406157
  0
VERTEX
  8
FOREGROUND
  6
CONTINUOUS
 10
0.162455
 20
6.351112
  0
VERTEX
  8
FOREGROUND
  6
CONTINUOUS
 10
0.151759
 20
6.295680
  0
VERTEX
  8
FOREGROUND
  6
CONTINUOUS
 10
0.141576
 20
6.239860
  0
VERTEX
  8
FOREGROUND
  6
CONTINUOUS
 10
0.131908
 20
6.183652
  0
VERTEX
  8
FOREGROUND
  6
CONTINUOUS
 10
0.122760
 20
6.127057
  0
VERTEX
  8
FOREGROUND
  6
CONTINUOUS
 10
0.114136
 20
6.070074
  0
VERTEX
  8
FOREGROUND
  6
CONTINUOUS
 10
0.106039
 20
6.012703
  0
VERTEX
  8
FOREGROUND
  6
CONTINUOUS
 10
0.098472
 20
5.954945
  0
VERTEX
  8
FOREGROUND
  6
CONTINUOUS
 10
0.091439
 20
5.896799
  0
VERTEX
  8
FOREGROUND
  6
CONTINUOUS
 10
0.084943
 20
5.838265
  0
VERTEX
  8
FOREGROUND
  6
CONTINUOUS
 10
0.078989
 20
5.779343
  0
VERTEX
  8
FOREGROUND
  6
CONTINUOUS
 10
0.073580
 20
5.720034
  0
VERTEX
  8
FOREGROUND
  6
CONTINUOUS
 10
0.068719
 20
5.660338
  0
VERTEX
  8
FOREGROUND
  6
CONTINUOUS
 10
0.064410
 20
5.600253
  0
VERTEX
  8
FOREGROUND
  6
CONTINUOUS
 10
0.060656
 20
5.539781
  0
VERTEX
  8
FOREGROUND
  6
CONTINUOUS
 10
0.057462
 20
5.478921
  0
VERTEX
  8
FOREGROUND
  6
CONTINUOUS
 10
0.054830
 20
5.417674
  0
VERTEX
  8
FOREGROUND
  6
CONTINUOUS
 10
0.052764
 20
5.356039
  0
VERTEX
  8
FOREGROUND
  6
CONTINUOUS
 10
0.051268
 20
5.294016
  0
VERTEX
  8
FOREGROUND
  6
CONTINUOUS
 10
0.050346
 20
5.231606
  0
VERTEX
  8
FOREGROUND
  6
CONTINUOUS
 10
0.050000
 20
5.168808
  0
VERTEX
  8
FOREGROUND
  6
CONTINUOUS
 10
0.050000
 20
5.168808
  0
VERTEX
  8
FOREGROUND
  6
CONTINUOUS
 10
0.050334
 20
5.106009
  0
VERTEX
  8
FOREGROUND
  6
CONTINUOUS
 10
0.051245
 20
5.043599
  0
VERTEX
  8
FOREGROUND
  6
CONTINUOUS
 10
0.052729
 20
4.981576
  0
VERTEX
  8
FOREGROUND
  6
CONTINUOUS
 10
0.054784
 20
4.919940
  0
VERTEX
  8
FOREGROUND
  6
CONTINUOUS
 10
0.057404
 20
4.858692
  0
VERTEX
  8
FOREGROUND
  6
CONTINUOUS
 10
0.060588
 20
4.797832
  0
VERTEX
  8
FOREGROUND
  6
CONTINUOUS
 10
0.064330
 20
4.737359
  0
VERTEX
  8
FOREGROUND
  6
CONTINUOUS
 10
0.068628
 20
4.677274
  0
VERTEX
  8
FOREGROUND
  6
CONTINUOUS
 10
0.073478
 20
4.617576
  0
VERTEX
  8
FOREGROUND
  6
CONTINUOUS
 10
0.078876
 20
4.558266
  0
VERTEX
  8
FOREGROUND
  6
CONTINUOUS
 10
0.084819
 20
4.499344
  0
VERTEX
  8
FOREGROUND
  6
CONTINUOUS
 10
0.091304
 20
4.440809
  0
VERTEX
  8
FOREGROUND
  6
CONTINUOUS
 10
0.098326
 20
4.382662
  0
VERTEX
  8
FOREGROUND
  6
CONTINUOUS
 10
0.105882
 20
4.324902
  0
VERTEX
  8
FOREGROUND
  6
CONTINUOUS
 10
0.113969
 20
4.267529
  0
VERTEX
  8
FOREGROUND
  6
CONTINUOUS
 10
0.122583
 20
4.210545
  0
VERTEX
  8
FOREGROUND
  6
CONTINUOUS
 10
0.131720
 20
4.153948
  0
VERTEX
  8
FOREGROUND
  6
CONTINUOUS
 10
0.141377
 20
4.097738
  0
VERTEX
  8
FOREGROUND
  6
CONTINUOUS
 10
0.151550
 20
4.041916
  0
VERTEX
  8
FOREGROUND
  6
CONTINUOUS
 10
0.162236
 20
3.986482
  0
VERTEX
  8
FOREGROUND
  6
CONTINUOUS
 10
0.173431
 20
3.931435
  0
VERTEX
  8
FOREGROUND
  6
CONTINUOUS
 10
0.185132
 20
3.876776
  0
VERTEX
  8
FOREGROUND
  6
CONTINUOUS
 10
0.197335
 20
3.822504
  0
VERTEX
  8
FOREGROUND
  6
CONTINUOUS
 10
0.210036
 20
3.768620
  0
VERTEX
  8
FOREGROUND
  6
CONTINUOUS
 10
0.223232
 20
3.715124
  0
VERTEX
  8
FOREGROUND
  6
CONTINUOUS
 10
0.236919
 20
3.662015
  0
VERTEX
  8
FOREGROUND
  6
CONTINUOUS
 10
0.251094
 20
3.609293
  0
VERTEX
  8
FOREGROUND
  6
CONTINUOUS
 10
0.265753
 20
3.556959
  0
VERTEX
  8
FOREGROUND
  6
CONTINUOUS
 10
0.280892
 20
3.505013
  0
VERTEX
  8
FOREGROUND
  6
CONTINUOUS
 10
0.296508
 20
3.453455
  0
VERTEX
  8
FOREGROUND
  6
CONTINUOUS
 10
0.312598
 20
3.402283
  0
VERTEX
  8
FOREGROUND
  6
CONTINUOUS
 10
0.329158
 20
3.351500
  0
VERTEX
  8
FOREGROUND
  6
CONTINUOUS
 10
0.346184
 20
3.301104
  0
VERTEX
  8
FOREGROUND
  6
CONTINUOUS
 10
0.363672
 20
3.251096
  0
VERTEX
  8
FOREGROUND
  6
CONTINUOUS
 10
0.381620
 20
3.201475
  0
VERTEX
  8
FOREGROUND
  6
CONTINUOUS
 10
0.400023
 20
3.152242
  0
VERTEX
  8
FOREGROUND
  6
CONTINUOUS
 10
0.418878
 20
3.103396
  0
VERTEX
  8
FOREGROUND
  6
CONTINUOUS
 10
0.438182
 20
3.054938
  0
VERTEX
  8
FOREGROUND
  6
CONTINUOUS
 10
0.457930
 20
3.006868
  0
VERTEX
  8
FOREGROUND
  6
CONTINUOUS
 10
0.478120
 20
2.959185
  0
VERTEX
  8
FOREGROUND
  6
CONTINUOUS
 10
0.498747
 20
2.911890
  0
VERTEX
  8
FOREGROUND
  6
CONTINUOUS
 10
0.519808
 20
2.864982
  0
VERTEX
  8
FOREGROUND
  6
CONTINUOUS
 10
0.541300
 20
2.818462
  0
VERTEX
  8
FOREGROUND
  6
CONTINUOUS
 10
0.563219
 20
2.772329
  0
VERTEX
  8
FOREGROUND
  6
CONTINUOUS
 10
0.585561
 20
2.726584
  0
VERTEX
  8
FOREGROUND
  6
CONTINUOUS
 10
0.608323
 20
2.681227
  0
VERTEX
  8
FOREGROUND
  6
CONTINUOUS
 10
0.631502
 20
2.636257
  0
VERTEX
  8
FOREGROUND
  6
CONTINUOUS
 10
0.655093
 20
2.591675
  0
VERTEX
  8
FOREGROUND
  6
CONTINUOUS
 10
0.679093
 20
2.547480
  0
VERTEX
  8
FOREGROUND
  6
CONTINUOUS
 10
0.703498
 20
2.503673
  0
VERTEX
  8
FOREGROUND
  6
CONTINUOUS
 10
0.728306
 20
2.460254
  0
VERTEX
  8
FOREGROUND
  6
CONTINUOUS
 10
0.753511
 20
2.417222
  0
VERTEX
  8
FOREGROUND
  6
CONTINUOUS
 10
0.779112
 20
2.374578
  0
VERTEX
  8
FOREGROUND
  6
CONTINUOUS
 10
0.805104
 20
2.332321
  0
VERTEX
  8
FOREGROUND
  6
CONTINUOUS
 10
0.831484
 20
2.290452
  0
VERTEX
  8
FOREGROUND
  6
CONTINUOUS
 10
0.858247
 20
2.248971
  0
VERTEX
  8
FOREGROUND
  6
CONTINUOUS
 10
0.885391
 20
2.207877
  0
VERTEX
  8
FOREGROUND
  6
CONTINUOUS
 10
0.912912
 20
2.167171
  0
VERTEX
  8
FOREGROUND
  6
CONTINUOUS
 10
0.940807
 20
2.126852
  0
VERTEX
  8
FOREGROUND
  6
CONTINUOUS
 10
0.969071
 20
2.086921
  0
VERTEX
  8
FOREGROUND
  6
CONTINUOUS
 10
0.997702
 20
2.047377
  0
VERTEX
  8
FOREGROUND
  6
CONTINUOUS
 10
1.026695
 20
2.008221
  0
VERTEX
  8
FOREGROUND
  6
CONTINUOUS
 10
1.056047
 20
1.969453
  0
VERTEX
  8
FOREGROUND
  6
CONTINUOUS
 10
1.085755
 20
1.931072
  0
VERTEX
  8
FOREGROUND
  6
CONTINUOUS
 10
1.115814
 20
1.893079
  0
VERTEX
  8
FOREGROUND
  6
CONTINUOUS
 10
1.146222
 20
1.855473
  0
VERTEX
  8
FOREGROUND
  6
CONTINUOUS
 10
1.176975
 20
1.818255
  0
VERTEX
  8
FOREGROUND
  6
CONTINUOUS
 10
1.208069
 20
1.781425
  0
VERTEX
  8
FOREGROUND
  6
CONTINUOUS
 10
1.239501
 20
1.744982
  0
VERTEX
  8
FOREGROUND
  6
CONTINUOUS
 10
1.271266
 20
1.708927
  0
VERTEX
  8
FOREGROUND
  6
CONTINUOUS
 10
1.303363
 20
1.673260
  0
VERTEX
  8
FOREGROUND
  6
CONTINUOUS
 10
1.335786
 20
1.637980
  0
VERTEX
  8
FOREGROUND
  6
CONTINUOUS
 10
1.368532
 20
1.603087
  0
VERTEX
  8
FOREGROUND
  6
CONTINUOUS
 10
1.401598
 20
1.568582
  0
VERTEX
  8
FOREGROUND
  6
CONTINUOUS
 10
1.434981
 20
1.534465
  0
VERTEX
  8
FOREGROUND
  6
CONTINUOUS
 10
1.468676
 20
1.500736
  0
VERTEX
  8
FOREGROUND
  6
CONTINUOUS
 10
1.502680
 20
1.467394
  0
VERTEX
  8
FOREGROUND
  6
CONTINUOUS
 10
1.536990
 20
1.434439
  0
VERTEX
  8
FOREGROUND
  6
CONTINUOUS
 10
1.571602
 20
1.401872
  0
VERTEX
  8
FOREGROUND
  6
CONTINUOUS
 10
1.606511
 20
1.369693
  0
VERTEX
  8
FOREGROUND
  6
CONTINUOUS
 10
1.641716
 20
1.337902
  0
VERTEX
  8
FOREGROUND
  6
CONTINUOUS
 10
1.677212
 20
1.306498
  0
VERTEX
  8
FOREGROUND
  6
CONTINUOUS
 10
1.712996
 20
1.275481
  0
VERTEX
  8
FOREGROUND
  6
CONTINUOUS
 10
1.749063
 20
1.244852
  0
VERTEX
  8
FOREGROUND
  6
CONTINUOUS
 10
1.785411
 20
1.214611
  0
VERTEX
  8
FOREGROUND
  6
CONTINUOUS
 10
1.822036
 20
1.184758
  0
VERTEX
  8
FOREGROUND
  6
CONTINUOUS
 10
1.858935
 20
1.155292
  0
VERTEX
  8
FOREGROUND
  6
CONTINUOUS
 10
1.896103
 20
1.126213
  0
VERTEX
  8
FOREGROUND
  6
CONTINUOUS
 10
1.933537
 20
1.097523
  0
VERTEX
  8
FOREGROUND
  6
CONTINUOUS
 10
1.971234
 20
1.069219
  0
VERTEX
  8
FOREGROUND
  6
CONTINUOUS
 10
2.009190
 20
1.041304
  0
VERTEX
  8
FOREGROUND
  6
CONTINUOUS
 10
2.047401
 20
1.013776
  0
VERTEX
  8
FOREGROUND
  6
CONTINUOUS
 10
2.085865
 20
0.986636
  0
VERTEX
  8
FOREGROUND
  6
CONTINUOUS
 10
2.124577
 20
0.959883
  0
VERTEX
  8
FOREGROUND
  6
CONTINUOUS
 10
2.163533
 20
0.933518
  0
VERTEX
  8
FOREGROUND
  6
CONTINUOUS
 10
2.202731
 20
0.907540
  0
VERTEX
  8
FOREGROUND
  6
CONTINUOUS
 10
2.242166
 20
0.881950
  0
VERTEX
  8
FOREGROUND
  6
CONTINUOUS
 10
2.281835
 20
0.856748
  0
VERTEX
  8
FOREGROUND
  6
CONTINUOUS
 10
2.321735
 20
0.831933
  0
VERTEX
  8
FOREGROUND
  6
CONTINUOUS
 10
2.361862
 20
0.807506
  0
VERTEX
  8
FOREGROUND
  6
CONTINUOUS
 10
2.402212
 20
0.783467
  0
VERTEX
  8
FOREGROUND
  6
CONTINUOUS
 10
2.442782
 20
0.759815
  0
VERTEX
  8
FOREGROUND
  6
CONTINUOUS
 10
2.483568
 20
0.736551
  0
VERTEX
  8
FOREGROUND
  6
CONTINUOUS
 10
2.524566
 20
0.713674
  0
VERTEX
  8
FOREGROUND
  6
CONTINUOUS
 10
2.565774
 20
0.691185
  0
VERTEX
  8
FOREGROUND
  6
CONTINUOUS
 10
2.607187
 20
0.669084
  0
VERTEX
  8
FOREGROUND
  6
CONTINUOUS
 10
2.648802
 20
0.647370
  0
VERTEX
  8
FOREGROUND
  6
CONTINUOUS
 10
2.690615
 20
0.626044
  0
VERTEX
  8
FOREGROUND
  6
CONTINUOUS
 10
2.732623
 20
0.605105
  0
VERTEX
  8
FOREGROUND
  6
CONTINUOUS
 10
2.774822
 20
0.584554
  0
VERTEX
  8
FOREGROUND
  6
CONTINUOUS
 10
2.817209
 20
0.564391
  0
VERTEX
  8
FOREGROUND
  6
CONTINUOUS
 10
2.859780
 20
0.544615
  0
VERTEX
  8
FOREGROUND
  6
CONTINUOUS
 10
2.902531
 20
0.525227
  0
VERTEX
  8
FOREGROUND
  6
CONTINUOUS
 10
2.945459
 20
0.506227
  0
VERTEX
  8
FOREGROUND
  6
CONTINUOUS
 10
2.988561
 20
0.487614
  0
VERTEX
  8
FOREGROUND
  6
CONTINUOUS
 10
3.031832
 20
0.469389
  0
VERTEX
  8
FOREGROUND
  6
CONTINUOUS
 10
3.075270
 20
0.451551
  0
VERTEX
  8
FOREGROUND
  6
CONTINUOUS
 10
3.118870
 20
0.434101
  0
VERTEX
  8
FOREGROUND
  6
CONTINUOUS
 10
3.162629
 20
0.417039
  0
VERTEX
  8
FOREGROUND
  6
CONTINUOUS
 10
3.206543
 20
0.400364
  0
VERTEX
  8
FOREGROUND
  6
CONTINUOUS
 10
3.250609
 20
0.384077
  0
VERTEX
  8
FOREGROUND
  6
CONTINUOUS
 10
3.294824
 20
0.368178
  0
VERTEX
  8
FOREGROUND
  6
CONTINUOUS
 10
3.339183
 20
0.352666
  0
VERTEX
  8
FOREGROUND
  6
CONTINUOUS
 10
3.383684
 20
0.337541
  0
VERTEX
  8
FOREGROUND
  6
CONTINUOUS
 10
3.428322
 20
0.322805
  0
VERTEX
  8
FOREGROUND
  6
CONTINUOUS
 10
3.473094
 20
0.308456
  0
VERTEX
  8
FOREGROUND
  6
CONTINUOUS
 10
3.517997
 20
0.294494
  0
VERTEX
  8
FOREGROUND
  6
CONTINUOUS
 10
3.563027
 20
0.280921
  0
VERTEX
  8
FOREGROUND
  6
CONTINUOUS
 10
3.608179
 20
0.267735
  0
VERTEX
  8
FOREGROUND
  6
CONTINUOUS
 10
3.653452
 20
0.254936
  0
VERTEX
  8
FOREGROUND
  6
CONTINUOUS
 10
3.698841
 20
0.242525
  0
VERTEX
  8
FOREGROUND
  6
CONTINUOUS
 10
3.744342
 20
0.230502
  0
VERTEX
  8
FOREGROUND
  6
CONTINUOUS
 10
3.789952
 20
0.218866
  0
VERTEX
  8
FOREGROUND
  6
CONTINUOUS
 10
3.835668
 20
0.207618
  0
VERTEX
  8
FOREGROUND
  6
CONTINUOUS
 10
3.881485
 20
0.196758
  0
VERTEX
  8
FOREGROUND
  6
CONTINUOUS
 10
3.927401
 20
0.186285
  0
VERTEX
  8
FOREGROUND
  6
CONTINUOUS
 10
3.973412
 20
0.176200
  0
VERTEX
  8
FOREGROUND
  6
CONTINUOUS
 10
4.019514
 20
0.166503
  0
VERTEX
  8
FOREGROUND
  6
CONTINUOUS
 10
4.065703
 20
0.157193
  0
VERTEX
  8
FOREGROUND
  6
CONTINUOUS
 10
4.111976
 20
0.148271
  0
VERTEX
  8
FOREGROUND
  6
CONTINUOUS
 10
4.158330
 20
0.139736
  0
VERTEX
  8
FOREGROUND
  6
CONTINUOUS
 10
4.204761
 20
0.131589
  0
VERTEX
  8
FOREGROUND
  6
CONTINUOUS
 10
4.251265
 20
0.123830
  0
VERTEX
  8
FOREGROUND
  6
CONTINUOUS
 10
4.297838
 20
0.116458
  0
VERTEX
  8
FOREGROUND
  6
CONTINUOUS
 10
4.344478
 20
0.109474
  0
VERTEX
  8
FOREGROUND
  6
CONTINUOUS
 10
4.391180
 20
0.102878
  0
VERTEX
  8
FOREGROUND
  6
CONTINUOUS
 10
4.437942
 20
0.096669
  0
VERTEX
  8
FOREGROUND
  6
CONTINUOUS
 10
4.484758
 20
0.090848
  0
VERTEX
  8
FOREGROUND
  6
CONTINUOUS
 10
4.531627
 20
0.085414
  0
VERTEX
  8
FOREGROUND
  6
CONTINUOUS
 10
4.578544
 20
0.080368
  0
VERTEX
  8
FOREGROUND
  6
CONTINUOUS
 10
4.625506
 20
0.075710
  0
VERTEX
  8
FOREGROUND
  6
CONTINUOUS
 10
4.672508
 20
0.071439
  0
VERTEX
  8
FOREGROUND
  6
CONTINUOUS
 10
4.719549
 20
0.067557
  0
VERTEX
  8
FOREGROUND
  6
CONTINUOUS
 10
4.766623
 20
0.064061
  0
VERTEX
  8
FOREGROUND
  6
CONTINUOUS
 10
4.813728
 20
0.060953
  0
VERTEX
  8
FOREGROUND
  6
CONTINUOUS
 10
4.860859
 20
0.058233
  0
VERTEX
  8
FOREGROUND
  6
CONTINUOUS
 10
4.908014
 20
0.055901
  0
VERTEX
  8
FOREGROUND
  6
CONTINUOUS
 10
4.955189
 20
0.053956
  0
VERTEX
  8
FOREGROUND
  6
CONTINUOUS
 10
5.002379
 20
0.052399
  0
VERTEX
  8
FOREGROUND
  6
CONTINUOUS
 10
5.049582
 20
0.051230
  0
VERTEX
  8
FOREGROUND
  6
CONTINUOUS
 10
5.096795
 20
0.050448
  0
VERTEX
  8
FOREGROUND
  6
CONTINUOUS
 10
5.144012
 20
0.050054
  0
VERTEX
  8
FOREGROUND
  6
CONTINUOUS
 10
5.191232
 20
0.050047
  0
VERTEX
  8
FOREGROUND
  6
CONTINUOUS
 10
5.238449
 20
0.050428
  0
VERTEX
  8
FOREGROUND
  6
CONTINUOUS
 10
5.285662
 20
0.051197
  0
VERTEX
  8
FOREGROUND
  6
CONTINUOUS
 10
5.332865
 20
0.052353
  0
VERTEX
  8
FOREGROUND
  6
CONTINUOUS
 10
5.380057
 20
0.053897
  0
VERTEX
  8
FOREGROUND
  6
CONTINUOUS
 10
5.427232
 20
0.055829
  0
VERTEX
  8
FOREGROUND
  6
CONTINUOUS
 10
5.474387
 20
0.058148
  0
VERTEX
  8
FOREGROUND
  6
CONTINUOUS
 10
5.521519
 20
0.060855
  0
VERTEX
  8
FOREGROUND
  6
CONTINUOUS
 10
5.568625
 20
0.063950
  0
VERTEX
  8
FOREGROUND
  6
CONTINUOUS
 10
5.615700
 20
0.067432
  0
VERTEX
  8
FOREGROUND
  6
CONTINUOUS
 10
5.662742
 20
0.071302
  0
VERTEX
  8
FOREGROUND
  6
CONTINUOUS
 10
5.709746
 20
0.075559
  0
VERTEX
  8
FOREGROUND
  6
CONTINUOUS
 10
5.756708
 20
0.080205
  0
VERTEX
  8
FOREGROUND
  6
CONTINUOUS
 10
5.803627
 20
0.085237
  0
VERTEX
  8
FOREGROUND
  6
CONTINUOUS
 10
5.850497
 20
0.090658
  0
VERTEX
  8
FOREGROUND
  6
CONTINUOUS
 10
5.897315
 20
0.096466
  0
VERTEX
  8
FOREGROUND
  6
CONTINUOUS
 10
5.944078
 20
0.102662
  0
VERTEX
  8
FOREGROUND
  6
CONTINUOUS
 10
5.990783
 20
0.109245
  0
VERTEX
  8
FOREGROUND
  6
CONTINUOUS
 10
6.037424
 20
0.116216
  0
VERTEX
  8
FOREGROUND
  6
CONTINUOUS
 10
6.084000
 20
0.123575
  0
VERTEX
  8
FOREGROUND
  6
CONTINUOUS
 10
6.130506
 20
0.131321
  0
VERTEX
  8
FOREGROUND
  6
CONTINUOUS
 10
6.176939
 20
0.139455
  0
VERTEX
  8
FOREGROUND
  6
CONTINUOUS
 10
6.223295
 20
0.147977
  0
VERTEX
  8
FOREGROUND
  6
CONTINUOUS
 10
6.269571
 20
0.156887
  0
VERTEX
  8
FOREGROUND
  6
CONTINUOUS
 10
6.315763
 20
0.166184
  0
VERTEX
  8
FOREGROUND
  6
CONTINUOUS
 10
6.361867
 20
0.175868
  0
VERTEX
  8
FOREGROUND
  6
CONTINUOUS
 10
6.407881
 20
0.185941
  0
VERTEX
  8
FOREGROUND
  6
CONTINUOUS
 10
6.453799
 20
0.196400
  0
VERTEX
  8
FOREGROUND
  6
CONTINUOUS
 10
6.499620
 20
0.207248
  0
VERTEX
  8
FOREGROUND
  6
CONTINUOUS
 10
6.545339
 20
0.218483
  0
VERTEX
  8
FOREGROUND
  6
CONTINUOUS
 10
6.590952
 20
0.230106
  0
VERTEX
  8
FOREGROUND
  6
CONTINUOUS
 10
6.636457
 20
0.242117
  0
VERTEX
  8
FOREGROUND
  6
CONTINUOUS
 10
6.681849
 20
0.254515
  0
VERTEX
  8
FOREGROUND
  6
CONTINUOUS
 10
6.727125
 20
0.267301
  0
VERTEX
  8
FOREGROUND
  6
CONTINUOUS
 10
6.772282
 20
0.280475
  0
VERTEX
  8
FOREGROUND
  6
CONTINUOUS
 10
6.817315
 20
0.294036
  0
VERTEX
  8
FOREGROUND
  6
CONTINUOUS
 10
6.862221
 20
0.307985
  0
VERTEX
  8
FOREGROUND
  6
CONTINUOUS
 10
6.906998
 20
0.322321
  0
VERTEX
  8
FOREGROUND
  6
CONTINUOUS
 10
6.951640
 20
0.337046
  0
VERTEX
  8
FOREGROUND
  6
CONTINUOUS
 10
6.996145
 20
0.352157
  0
VERTEX
  8
FOREGROUND
  6
CONTINUOUS
 10
7.040508
 20
0.367657
  0
VERTEX
  8
FOREGROUND
  6
CONTINUOUS
 10
7.084727
 20
0.383544
  0
VERTEX
  8
FOREGROUND
  6
CONTINUOUS
 10
7.128798
 20
0.399819
  0
VERTEX
  8
FOREGROUND
  6
CONTINUOUS
 10
7.172717
 20
0.416482
  0
VERTEX
  8
FOREGROUND
  6
CONTINUOUS
 10
7.216481
 20
0.433532
  0
VERTEX
  8
FOREGROUND
  6
CONTINUOUS
 10
7.260086
 20
0.450970
  0
VERTEX
  8
FOREGROUND
  6
CONTINUOUS
 10
7.303528
 20
0.468795
  0
VERTEX
  8
FOREGROUND
  6
CONTINUOUS
 10
7.346805
 20
0.487008
  0
VERTEX
  8
FOREGROUND
  6
CONTINUOUS
 10
7.389911
 20
0.505609
  0
VERTEX
  8
FOREGROUND
  6
CONTINUOUS
 10
7.432845
 20
0.524598
  0
VERTEX
  8
FOREGROUND
  6
CONTINUOUS
 10
7.475602
 20
0.543974
  0
VERTEX
  8
FOREGROUND
  6
CONTINUOUS
 10
7.518178
 20
0.563738
  0
VERTEX
  8
FOREGROUND
  6
CONTINUOUS
 10
7.560570
 20
0.583889
  0
VERTEX
  8
FOREGROUND
  6
CONTINUOUS
 10
7.602775
 20
0.604429
  0
VERTEX
  8
FOREGROUND
  6
CONTINUOUS
 10
7.644789
 20
0.625355
  0
VERTEX
  8
FOREGROUND
  6
CONTINUOUS
 10
7.686608
 20
0.646670
  0
VERTEX
  8
FOREGROUND
  6
CONTINUOUS
 10
7.728229
 20
0.668372
  0
VERTEX
  8
FOREGROUND
  6
CONTINUOUS
 10
7.769648
 20
0.690462
  0
VERTEX
  8
FOREGROUND
  6
CONTINUOUS
 10
7.810862
 20
0.712940
  0
VERTEX
  8
FOREGROUND
  6
CONTINUOUS
 10
7.851867
 20
0.735805
  0
VERTEX
  8
FOREGROUND
  6
CONTINUOUS
 10
7.892660
 20
0.759058
  0
VERTEX
  8
FOREGROUND
  6
CONTINUOUS
 10
7.933236
 20
0.782698
  0
VERTEX
  8
FOREGROUND
  6
CONTINUOUS
 10
7.973593
 20
0.806726
  0
VERTEX
  8
FOREGROUND
  6
CONTINUOUS
 10
8.013726
 20
0.831142
  0
VERTEX
  8
FOREGROUND
  6
CONTINUOUS
 10
8.053633
 20
0.855946
  0
VERTEX
  8
FOREGROUND
  6
CONTINUOUS
 10
8.093309
 20
0.881137
  0
VERTEX
  8
FOREGROUND
  6
CONTINUOUS
 10
8.132752
 20
0.906716
  0
VERTEX
  8
FOREGROUND
  6
CONTINUOUS
 10
8.171956
 20
0.932683
  0
VERTEX
  8
FOREGROUND
  6
CONTINUOUS
 10
8.210920
 20
0.959037
  0
VERTEX
  8
FOREGROUND
  6
CONTINUOUS
 10
8.249639
 20
0.985779
  0
VERTEX
  8
FOREGROUND
  6
CONTINUOUS
 10
8.288110
 20
1.012909
  0
VERTEX
  8
FOREGROUND
  6
CONTINUOUS
 10
8.326329
 20
1.040426
  0
VERTEX
  8
FOREGROUND
  6
CONTINUOUS
 10
8.364293
 20
1.068331
  0
VERTEX
  8
FOREGROUND
  6
CONTINUOUS
 10
8.401998
 20
1.096624
  0
VERTEX
  8
FOREGROUND
  6
CONTINUOUS
 10
8.439440
 20
1.125304
  0
VERTEX
  8
FOREGROUND
  6
CONTINUOUS
 10
8.476616
 20
1.154372
  0
VERTEX
  8
FOREGROUND
  6
CONTINUOUS
 10
8.513523
 20
1.183828
  0
VERTEX
  8
FOREGROUND
  6
CONTINUOUS
 10
8.550156
 20
1.213671
  0
VERTEX
  8
FOREGROUND
  6
CONTINUOUS
 10
8.586513
 20
1.243902
  0
VERTEX
  8
FOREGROUND
  6
CONTINUOUS
 10
8.622589
 20
1.274521
  0
VERTEX
  8
FOREGROUND
  6
CONTINUOUS
 10
8.658381
 20
1.305527
  0
VERTEX
  8
FOREGROUND
  6
CONTINUOUS
 10
8.693886
 20
1.336921
  0
VERTEX
  8
FOREGROUND
  6
CONTINUOUS
 10
8.729099
 20
1.368703
  0
VERTEX
  8
FOREGROUND
  6
CONTINUOUS
 10
8.764018
 20
1.400873
  0
VERTEX
  8
FOREGROUND
  6
CONTINUOUS
 10
8.798639
 20
1.433430
  0
VERTEX
  8
FOREGROUND
  6
CONTINUOUS
 10
8.832958
 20
1.466375
  0
VERTEX
  8
FOREGROUND
  6
CONTINUOUS
 10
8.866971
 20
1.499707
  0
VERTEX
  8
FOREGROUND
  6
CONTINUOUS
 10
8.900676
 20
1.533428
  0
VERTEX
  8
FOREGROUND
  6
CONTINUOUS
 10
8.934067
 20
1.567535
  0
VERTEX
  8
FOREGROUND
  6
CONTINUOUS
 10
8.967143
 20
1.602031
  0
VERTEX
  8
FOREGROUND
  6
CONTINUOUS
 10
8.999900
 20
1.636914
  0
VERTEX
  8
FOREGROUND
  6
CONTINUOUS
 10
9.032332
 20
1.672185
  0
VERTEX
  8
FOREGROUND
  6
CONTINUOUS
 10
9.064439
 20
1.707844
  0
VERTEX
  8
FOREGROUND
  6
CONTINUOUS
 10
9.096214
 20
1.743890
  0
VERTEX
  8
FOREGROUND
  6
CONTINUOUS
 10
9.127656
 20
1.780324
  0
VERTEX
  8
FOREGROUND
  6
CONTINUOUS
 10
9.158760
 20
1.817146
  0
VERTEX
  8
FOREGROUND
  6
CONTINUOUS
 10
9.189523
 20
1.854356
  0
VERTEX
  8
FOREGROUND
  6
CONTINUOUS
 10
9.219942
 20
1.891953
  0
VERTEX
  8
FOREGROUND
  6
CONTINUOUS
 10
9.250012
 20
1.929937
  0
VERTEX
  8
FOREGROUND
  6
CONTINUOUS
 10
9.279730
 20
1.968310
  0
VERTEX
  8
FOREGROUND
  6
CONTINUOUS
 10
9.309093
 20
2.007070
  0
VERTEX
  8
FOREGROUND
  6
CONTINUOUS
 10
9.338097
 20
2.046218
  0
VERTEX
  8
FOREGROUND
  6
CONTINUOUS
 10
9.366739
 20
2.085754
  0
VERTEX
  8
FOREGROUND
  6
CONTINUOUS
 10
9.395014
 20
2.125677
  0
VERTEX
  8
FOREGROUND
  6
CONTINUOUS
 10
9.422920
 20
2.165988
  0
VERTEX
  8
FOREGROUND
  6
CONTINUOUS
 10
9.450452
 20
2.206686
  0
VERTEX
  8
FOREGROUND
  6
CONTINUOUS
 10
9.477608
 20
2.247773
  0
VERTEX
  8
FOREGROUND
  6
CONTINUOUS
 10
9.504383
 20
2.289247
  0
VERTEX
  8
FOREGROUND
  6
CONTINUOUS
 10
9.530774
 20
2.331109
  0
VERTEX
  8
FOREGROUND
  6
CONTINUOUS
 10
9.556778
 20
2.373358
  0
VERTEX
  8
FOREGROUND
  6
CONTINUOUS
 10
9.582390
 20
2.415995
  0
VERTEX
  8
FOREGROUND
  6
CONTINUOUS
 10
9.607608
 20
2.459020
  0
VERTEX
  8
FOREGROUND
  6
CONTINUOUS
 10
9.632428
 20
2.502433
  0
VERTEX
  8
FOREGROUND
  6
CONTINUOUS
 10
9.656845
 20
2.546233
  0
VERTEX
  8
FOREGROUND
  6
CONTINUOUS
 10
9.680858
 20
2.590421
  0
VERTEX
  8
FOREGROUND
  6
CONTINUOUS
 10
9.704461
 20
2.634996
  0
VERTEX
  8
FOREGROUND
  6
CONTINUOUS
 10
9.727652
 20
2.679960
  0
VERTEX
  8
FOREGROUND
  6
CONTINUOUS
 10
9.750426
 20
2.725311
  0
VERTEX
  8
FOREGROUND
  6
CONTINUOUS
 10
9.772781
 20
2.771049
  0
VERTEX
  8
FOREGROUND
  6
CONTINUOUS
 10
9.794713
 20
2.817176
  0
VERTEX
  8
FOREGROUND
  6
CONTINUOUS
 10
9.816218
 20
2.863690
  0
VERTEX
  8
FOREGROUND
  6
CONTINUOUS
 10
9.837292
 20
2.910592
  0
VERTEX
  8
FOREGROUND
  6
CONTINUOUS
 10
9.857933
 20
2.957881
  0
VERTEX
  8
FOREGROUND
  6
CONTINUOUS
 10
9.878136
 20
3.005559
  0
VERTEX
  8
FOREGROUND
  6
CONTINUOUS
 10
9.897897
 20
3.053623
  0
VERTEX
  8
FOREGROUND
  6
CONTINUOUS
 10
9.917214
 20
3.102076
  0
VERTEX
  8
FOREGROUND
  6
CONTINUOUS
 10
9.936083
 20
3.150916
  0
VERTEX
  8
FOREGROUND
  6
CONTINUOUS
 10
9.954500
 20
3.200145
  0
VERTEX
  8
FOREGROUND
  6
CONTINUOUS
 10
9.972461
 20
3.249760
  0
VERTEX
  8
FOREGROUND
  6
CONTINUOUS
 10
9.989964
 20
3.299764
  0
VERTEX
  8
FOREGROUND
  6
CONTINUOUS
 10
10.007004
 20
3.350155
  0
VERTEX
  8
FOREGROUND
  6
CONTINUOUS
 10
10.023577
 20
3.400934
  0
VERTEX
  8
FOREGROUND
  6
CONTINUOUS
 10
10.039681
 20
3.452100
  0
VERTEX
  8
FOREGROUND
  6
CONTINUOUS
 10
10.055312
 20
3.503655
  0
VERTEX
  8
FOREGROUND
  6
CONTINUOUS
 10
10.070466
 20
3.555597
  0
VERTEX
  8
FOREGROUND
  6
CONTINUOUS
 10
10.085140
 20
3.607926
  0
VERTEX
  8
FOREGROUND
  6
CONTINUOUS
 10
10.099329
 20
3.660644
  0
VERTEX
  8
FOREGROUND
  6
CONTINUOUS
 10
10.113031
 20
3.713749
  0
VERTEX
  8
FOREGROUND
  6
CONTINUOUS
 10
10.126242
 20
3.767242
  0
VERTEX
  8
FOREGROUND
  6
CONTINUOUS
 10
10.138958
 20
3.821122
  0
VERTEX
  8
FOREGROUND
  6
CONTINUOUS
 10
10.151175
 20
3.875391
  0
VERTEX
  8
FOREGROUND
  6
CONTINUOUS
 10
10.162891
 20
3.930047
  0
VERTEX
  8
FOREGROUND
  6
CONTINUOUS
 10
10.174102
 20
3.985090
  0
VERTEX
  8
FOREGROUND
  6
CONTINUOUS
 10
10.184803
 20
4.040522
  0
VERTEX
  8
FOREGROUND
  6
CONTINUOUS
 10
10.194992
 20
4.096341
  0
VERTEX
  8
FOREGROUND
  6
CONTINUOUS
 10
10.204664
 20
4.152548
  0
VERTEX
  8
FOREGROUND
  6
CONTINUOUS
 10
10.213817
 20
4.209142
  0
VERTEX
  8
FOREGROUND
  6
CONTINUOUS
 10
10.222447
 20
4.266125
  0
VERTEX
  8
FOREGROUND
  6
CONTINUOUS
 10
10.230550
 20
4.323495
  0
VERTEX
  8
FOREGROUND
  6
CONTINUOUS
 10
10.238122
 20
4.381252
  0
VERTEX
  8
FOREGROUND
  6
CONTINUOUS
 10
10.245160
 20
4.439398
  0
VERTEX
  8
FOREGROUND
  6
CONTINUOUS
 10
10.251661
 20
4.497931
  0
VERTEX
  8
FOREGROUND
  6
CONTINUOUS
 10
10.257621
 20
4.556852
  0
VERTEX
  8
FOREGROUND
  6
CONTINUOUS
 10
10.263036
 20
4.616160
  0
VERTEX
  8
FOREGROUND
  6
CONTINUOUS
 10
10.267902
 20
4.675857
  0
VERTEX
  8
FOREGROUND
  6
CONTINUOUS
 10
10.272217
 20
4.735941
  0
VERTEX
  8
FOREGROUND
  6
CONTINUOUS
 10
10.275976
 20
4.796412
  0
VERTEX
  8
FOREGROUND
  6
CONTINUOUS
 10
10.279176
 20
4.857272
  0
VERTEX
  8
FOREGROUND
  6
CONTINUOUS
 10
10.281814
 20
4.918519
  0
VERTEX
  8
FOREGROUND
  6
CONTINUOUS
 10
10.283885
 20
4.980154
  0
VERTEX
  8
FOREGROUND
  6
CONTINUOUS
 10
10.285387
 20
5.042176
  0
VERTEX
  8
FOREGROUND
  6
CONTINUOUS
 10
10.286315
 20
5.104587
  0
VERTEX
  8
FOREGROUND
  6
CONTINUOUS
 10
10.286667
 20
5.167385
  0
SEQEND
  8
0
  0
ENDSEC
  0
EOF
