  0
SECTION
  2
HEADER
  9
$ACADVER
  1
AC1006
  9
$EXTMIN
 10
0.000000
 20
0.000000
  9
$EXTMAX
 10
11.125000
 20
11.116667
  9
$LTSCALE
 40
0.166667
  9
$PDMODE
 70
    35
  9
$PDSIZE
 40
0.133333
  0
ENDSEC
  0
SECTION
  2
TABLES
  0
TABLE
  2
LTYPE
 70
     9
  0
LTYPE
  2
CONTINUOUS
 70
    64
  3
Solid line
 72
    65
 73
     0
 40
0.000000
  0
LTYPE
  2
DASHED
 70
    64
  3
__ __ __ __ __ __ __ __ __ __ __ __ __ __ __
 72
    65
 73
     2
 40
0.001250
 49
0.000833
 49
-0.000417
  0
LTYPE
  2
HIDDEN
 70
    64
  3
 _ _ _ _ _ _ _ _ _ _ _ _ _ _ _ _ _ _ _ _ _ _
 72
    65
 73
     2
 40
0.000625
 49
0.000417
 49
-0.000208
  0
LTYPE
  2
CENTER
 70
    64
  3
____ _ ____ _ ____ _ ____ _ ____ _ ____ _ ____
 72
    65
 73
     4
 40
0.003333
 49
0.002083
 49
-0.000417
 49
0.000417
 49
-0.000417
  0
LTYPE
  2
PHANTOM
 70
    64
  3
_____ _ _ _____ _ _ _____ _ _ _____ _ _ ____
 72
    65
 73
     6
 40
0.004167
 49
0.002083
 49
-0.000417
 49
0.000417
 49
-0.000417
 49
0.000417
 49
-0.000417
  0
LTYPE
  2
DOT
 70
    64
  3
...............................................
 72
    65
 73
     2
 40
0.000417
 49
0.000000
 49
-0.000417
  0
LTYPE
  2
DASHDOT
 70
    64
  3
__ . __ . __ . __ . __ . __ . __ . __ . __ . __
 72
    65
 73
     4
 40
0.001667
 49
0.000833
 49
-0.000417
 49
0.000000
 49
-0.000417
  0
LTYPE
  2
BORDER
 70
    64
  3
__ __ . __ __ . __ __ . __ __ . __ __ . __ __
 72
    65
 73
     6
 40
0.002917
 49
0.000833
 49
-0.000417
 49
0.000833
 49
-0.000417
 49
0.000000
 49
-0.000417
  0
LTYPE
  2
DIVIDE
 70
    64
  3
__ . . __ . . __ . . __ . . __ . . __ . . __
 72
    65
 73
     6
 40
0.002083
 49
0.000833
 49
-0.000417
 49
0.000000
 49
-0.000417
 49
0.000000
 49
-0.000417
  0
LTYPE
  2
DOTDOT
 70
    64
  3
 . .  . .  . .  . .  . .  . . 
 72
    65
 73
     5
 40
0.000917
 49
-0.000417
 49
0.000000
 49
-0.000417
 49
0.000000
 49
-0.000417
  0
ENDTAB
  0
TABLE
  2
STYLE
 70
     2
  0
STYLE
 70
     0
  2
SN0
 40
0.000000
 41
0.001667
 50
0.000000
 71
     0
 42
0.000000
  3
ROMAND
  0
STYLE
 70
    68
  2
SV0
 40
0.000000
 41
0.001667
 50
0.000000
 71
     0
 42
0.000000
  3
ROMAND
  0
ENDTAB
  0
TABLE
  2
LAYER
 70
     2
  0
LAYER
  2
FOREGROUND
 70
    64
 62
     7
  6
CONTINUOUS
  0
LAYER
  2
BACKGROUND
 70
    65
 62
    -7
  6
CONTINUOUS
  0
ENDTAB
  0
ENDSEC
  0
SECTION
  2
ENTITIES
  0
POLYLINE
  8
FOREGROUND
  6
CONTINUOUS
 66
     1
 40
0.010000
 41
0.010000
 70
     1
  0
VERTEX
  8
FOREGROUND
  6
CONTINUOUS
 10
11.073333
 20
5.558333
  0
VERTEX
  8
FOREGROUND
  6
CONTINUOUS
 10
11.072967
 20
5.625916
  0
VERTEX
  8
FOREGROUND
  6
CONTINUOUS
 10
11.071980
 20
5.693082
  0
VERTEX
  8
FOREGROUND
  6
CONTINUOUS
 10
11.070376
 20
5.759831
  0
VERTEX
  8
FOREGROUND
  6
CONTINUOUS
 10
11.068157
 20
5.826163
  0
VERTEX
  8
FOREGROUND
  6
CONTINUOUS
 10
11.065329
 20
5.892077
  0
VERTEX
  8
FOREGROUND
  6
CONTINUOUS
 10
11.061896
 20
5.957575
  0
VERTEX
  8
FOREGROUND
  6
CONTINUOUS
 10
11.057860
 20
6.022655
  0
VERTEX
  8
FOREGROUND
  6
CONTINUOUS
 10
11.053226
 20
6.087318
  0
VERTEX
  8
FOREGROUND
  6
CONTINUOUS
 10
11.047997
 20
6.151564
  0
VERTEX
  8
FOREGROUND
  6
CONTINUOUS
 10
11.042178
 20
6.215393
  0
VERTEX
  8
FOREGROUND
  6
CONTINUOUS
 10
11.035772
 20
6.278804
  0
VERTEX
  8
FOREGROUND
  6
CONTINUOUS
 10
11.028784
 20
6.341799
  0
VERTEX
  8
FOREGROUND
  6
CONTINUOUS
 10
11.021216
 20
6.404376
  0
VERTEX
  8
FOREGROUND
  6
CONTINUOUS
 10
11.013074
 20
6.466536
  0
VERTEX
  8
FOREGROUND
  6
CONTINUOUS
 10
11.004360
 20
6.528279
  0
VERTEX
  8
FOREGROUND
  6
CONTINUOUS
 10
10.995078
 20
6.589605
  0
VERTEX
  8
FOREGROUND
  6
CONTINUOUS
 10
10.985233
 20
6.650514
  0
VERTEX
  8
FOREGROUND
  6
CONTINUOUS
 10
10.974829
 20
6.711006
  0
VERTEX
  8
FOREGROUND
  6
CONTINUOUS
 10
10.963868
 20
6.771080
  0
VERTEX
  8
FOREGROUND
  6
CONTINUOUS
 10
10.952355
 20
6.830737
  0
VERTEX
  8
FOREGROUND
  6
CONTINUOUS
 10
10.940294
 20
6.889977
  0
VERTEX
  8
FOREGROUND
  6
CONTINUOUS
 10
10.927689
 20
6.948800
  0
VERTEX
  8
FOREGROUND
  6
CONTINUOUS
 10
10.914543
 20
7.007206
  0
VERTEX
  8
FOREGROUND
  6
CONTINUOUS
 10
10.900861
 20
7.065195
  0
VERTEX
  8
FOREGROUND
  6
CONTINUOUS
 10
10.886646
 20
7.122766
  0
VERTEX
  8
FOREGROUND
  6
CONTINUOUS
 10
10.871902
 20
7.179920
  0
VERTEX
  8
FOREGROUND
  6
CONTINUOUS
 10
10.856632
 20
7.236657
  0
VERTEX
  8
FOREGROUND
  6
CONTINUOUS
 10
10.840842
 20
7.292977
  0
VERTEX
  8
FOREGROUND
  6
CONTINUOUS
 10
10.824534
 20
7.348880
  0
VERTEX
  8
FOREGROUND
  6
CONTINUOUS
 10
10.807712
 20
7.404366
  0
VERTEX
  8
FOREGROUND
  6
CONTINUOUS
 10
10.790381
 20
7.459434
  0
VERTEX
  8
FOREGROUND
  6
CONTINUOUS
 10
10.772544
 20
7.514086
  0
VERTEX
  8
FOREGROUND
  6
CONTINUOUS
 10
10.754204
 20
7.568320
  0
VERTEX
  8
FOREGROUND
  6
CONTINUOUS
 10
10.735367
 20
7.622137
  0
VERTEX
  8
FOREGROUND
  6
CONTINUOUS
 10
10.716035
 20
7.675537
  0
VERTEX
  8
FOREGROUND
  6
CONTINUOUS
 10
10.696213
 20
7.728520
  0
VERTEX
  8
FOREGROUND
  6
CONTINUOUS
 10
10.675904
 20
7.781085
  0
VERTEX
  8
FOREGROUND
  6
CONTINUOUS
 10
10.655112
 20
7.833234
  0
VERTEX
  8
FOREGROUND
  6
CONTINUOUS
 10
10.633841
 20
7.884965
  0
VERTEX
  8
FOREGROUND
  6
CONTINUOUS
 10
10.612096
 20
7.936279
  0
VERTEX
  8
FOREGROUND
  6
CONTINUOUS
 10
10.589879
 20
7.987176
  0
VERTEX
  8
FOREGROUND
  6
CONTINUOUS
 10
10.567194
 20
8.037656
  0
VERTEX
  8
FOREGROUND
  6
CONTINUOUS
 10
10.544046
 20
8.087719
  0
VERTEX
  8
FOREGROUND
  6
CONTINUOUS
 10
10.520438
 20
8.137364
  0
VERTEX
  8
FOREGROUND
  6
CONTINUOUS
 10
10.496374
 20
8.186592
  0
VERTEX
  8
FOREGROUND
  6
CONTINUOUS
 10
10.471859
 20
8.235404
  0
VERTEX
  8
FOREGROUND
  6
CONTINUOUS
 10
10.446895
 20
8.283798
  0
VERTEX
  8
FOREGROUND
  6
CONTINUOUS
 10
10.421487
 20
8.331774
  0
VERTEX
  8
FOREGROUND
  6
CONTINUOUS
 10
10.395638
 20
8.379334
  0
VERTEX
  8
FOREGROUND
  6
CONTINUOUS
 10
10.369352
 20
8.426477
  0
VERTEX
  8
FOREGROUND
  6
CONTINUOUS
 10
10.342634
 20
8.473202
  0
VERTEX
  8
FOREGROUND
  6
CONTINUOUS
 10
10.315487
 20
8.519510
  0
VERTEX
  8
FOREGROUND
  6
CONTINUOUS
 10
10.287915
 20
8.565401
  0
VERTEX
  8
FOREGROUND
  6
CONTINUOUS
 10
10.259921
 20
8.610875
  0
VERTEX
  8
FOREGROUND
  6
CONTINUOUS
 10
10.231511
 20
8.655932
  0
VERTEX
  8
FOREGROUND
  6
CONTINUOUS
 10
10.202686
 20
8.700571
  0
VERTEX
  8
FOREGROUND
  6
CONTINUOUS
 10
10.173452
 20
8.744794
  0
VERTEX
  8
FOREGROUND
  6
CONTINUOUS
 10
10.143812
 20
8.788599
  0
VERTEX
  8
FOREGROUND
  6
CONTINUOUS
 10
10.113770
 20
8.831987
  0
VERTEX
  8
FOREGROUND
  6
CONTINUOUS
 10
10.083330
 20
8.874958
  0
VERTEX
  8
FOREGROUND
  6
CONTINUOUS
 10
10.052495
 20
8.917512
  0
VERTEX
  8
FOREGROUND
  6
CONTINUOUS
 10
10.021270
 20
8.959648
  0
VERTEX
  8
FOREGROUND
  6
CONTINUOUS
 10
9.989658
 20
9.001368
  0
VERTEX
  8
FOREGROUND
  6
CONTINUOUS
 10
9.957664
 20
9.042670
  0
VERTEX
  8
FOREGROUND
  6
CONTINUOUS
 10
9.925290
 20
9.083555
  0
VERTEX
  8
FOREGROUND
  6
CONTINUOUS
 10
9.892542
 20
9.124023
  0
VERTEX
  8
FOREGROUND
  6
CONTINUOUS
 10
9.859422
 20
9.164074
  0
VERTEX
  8
FOREGROUND
  6
CONTINUOUS
 10
9.825935
 20
9.203708
  0
VERTEX
  8
FOREGROUND
  6
CONTINUOUS
 10
9.792084
 20
9.242924
  0
VERTEX
  8
FOREGROUND
  6
CONTINUOUS
 10
9.757874
 20
9.281723
  0
VERTEX
  8
FOREGROUND
  6
CONTINUOUS
 10
9.723308
 20
9.320106
  0
VERTEX
  8
FOREGROUND
  6
CONTINUOUS
 10
9.688390
 20
9.358070
  0
VERTEX
  8
FOREGROUND
  6
CONTINUOUS
 10
9.653123
 20
9.395618
  0
VERTEX
  8
FOREGROUND
  6
CONTINUOUS
 10
9.617512
 20
9.432749
  0
VERTEX
  8
FOREGROUND
  6
CONTINUOUS
 10
9.581561
 20
9.469462
  0
VERTEX
  8
FOREGROUND
  6
CONTINUOUS
 10
9.545273
 20
9.505759
  0
VERTEX
  8
FOREGROUND
  6
CONTINUOUS
 10
9.508653
 20
9.541638
  0
VERTEX
  8
FOREGROUND
  6
CONTINUOUS
 10
9.471703
 20
9.577100
  0
VERTEX
  8
FOREGROUND
  6
CONTINUOUS
 10
9.434428
 20
9.612145
  0
VERTEX
  8
FOREGROUND
  6
CONTINUOUS
 10
9.396833
 20
9.646772
  0
VERTEX
  8
FOREGROUND
  6
CONTINUOUS
 10
9.358919
 20
9.680983
  0
VERTEX
  8
FOREGROUND
  6
CONTINUOUS
 10
9.320693
 20
9.714776
  0
VERTEX
  8
FOREGROUND
  6
CONTINUOUS
 10
9.282156
 20
9.748152
  0
VERTEX
  8
FOREGROUND
  6
CONTINUOUS
 10
9.243314
 20
9.781111
  0
VERTEX
  8
FOREGROUND
  6
CONTINUOUS
 10
9.204169
 20
9.813653
  0
VERTEX
  8
FOREGROUND
  6
CONTINUOUS
 10
9.164727
 20
9.845778
  0
VERTEX
  8
FOREGROUND
  6
CONTINUOUS
 10
9.124990
 20
9.877485
  0
VERTEX
  8
FOREGROUND
  6
CONTINUOUS
 10
9.084963
 20
9.908776
  0
VERTEX
  8
FOREGROUND
  6
CONTINUOUS
 10
9.044649
 20
9.939649
  0
VERTEX
  8
FOREGROUND
  6
CONTINUOUS
 10
9.004052
 20
9.970105
  0
VERTEX
  8
FOREGROUND
  6
CONTINUOUS
 10
8.963177
 20
10.000144
  0
VERTEX
  8
FOREGROUND
  6
CONTINUOUS
 10
8.922026
 20
10.029765
  0
VERTEX
  8
FOREGROUND
  6
CONTINUOUS
 10
8.880604
 20
10.058970
  0
VERTEX
  8
FOREGROUND
  6
CONTINUOUS
 10
8.838915
 20
10.087757
  0
VERTEX
  8
FOREGROUND
  6
CONTINUOUS
 10
8.796962
 20
10.116127
  0
VERTEX
  8
FOREGROUND
  6
CONTINUOUS
 10
8.754750
 20
10.144080
  0
VERTEX
  8
FOREGROUND
  6
CONTINUOUS
 10
8.712281
 20
10.171616
  0
VERTEX
  8
FOREGROUND
  6
CONTINUOUS
 10
8.669561
 20
10.198735
  0
VERTEX
  8
FOREGROUND
  6
CONTINUOUS
 10
8.626592
 20
10.225436
  0
VERTEX
  8
FOREGROUND
  6
CONTINUOUS
 10
8.583380
 20
10.251721
  0
VERTEX
  8
FOREGROUND
  6
CONTINUOUS
 10
8.539927
 20
10.277588
  0
VERTEX
  8
FOREGROUND
  6
CONTINUOUS
 10
8.496237
 20
10.303038
  0
VERTEX
  8
FOREGROUND
  6
CONTINUOUS
 10
8.452314
 20
10.328071
  0
VERTEX
  8
FOREGROUND
  6
CONTINUOUS
 10
8.408163
 20
10.352686
  0
VERTEX
  8
FOREGROUND
  6
CONTINUOUS
 10
8.363786
 20
10.376885
  0
VERTEX
  8
FOREGROUND
  6
CONTINUOUS
 10
8.319188
 20
10.400666
  0
VERTEX
  8
FOREGROUND
  6
CONTINUOUS
 10
8.274373
 20
10.424030
  0
VERTEX
  8
FOREGROUND
  6
CONTINUOUS
 10
8.229345
 20
10.446977
  0
VERTEX
  8
FOREGROUND
  6
CONTINUOUS
 10
8.184106
 20
10.469507
  0
VERTEX
  8
FOREGROUND
  6
CONTINUOUS
 10
8.138662
 20
10.491620
  0
VERTEX
  8
FOREGROUND
  6
CONTINUOUS
 10
8.093016
 20
10.513315
  0
VERTEX
  8
FOREGROUND
  6
CONTINUOUS
 10
8.047172
 20
10.534593
  0
VERTEX
  8
FOREGROUND
  6
CONTINUOUS
 10
8.001133
 20
10.555454
  0
VERTEX
  8
FOREGROUND
  6
CONTINUOUS
 10
7.954904
 20
10.575898
  0
VERTEX
  8
FOREGROUND
  6
CONTINUOUS
 10
7.908489
 20
10.595925
  0
VERTEX
  8
FOREGROUND
  6
CONTINUOUS
 10
7.861890
 20
10.615535
  0
VERTEX
  8
FOREGROUND
  6
CONTINUOUS
 10
7.815113
 20
10.634727
  0
VERTEX
  8
FOREGROUND
  6
CONTINUOUS
 10
7.768161
 20
10.653502
  0
VERTEX
  8
FOREGROUND
  6
CONTINUOUS
 10
7.721037
 20
10.671861
  0
VERTEX
  8
FOREGROUND
  6
CONTINUOUS
 10
7.673746
 20
10.689801
  0
VERTEX
  8
FOREGROUND
  6
CONTINUOUS
 10
7.626292
 20
10.707325
  0
VERTEX
  8
FOREGROUND
  6
CONTINUOUS
 10
7.578678
 20
10.724432
  0
VERTEX
  8
FOREGROUND
  6
CONTINUOUS
 10
7.530908
 20
10.741121
  0
VERTEX
  8
FOREGROUND
  6
CONTINUOUS
 10
7.482986
 20
10.757393
  0
VERTEX
  8
FOREGROUND
  6
CONTINUOUS
 10
7.434916
 20
10.773248
  0
VERTEX
  8
FOREGROUND
  6
CONTINUOUS
 10
7.386702
 20
10.788686
  0
VERTEX
  8
FOREGROUND
  6
CONTINUOUS
 10
7.338347
 20
10.803707
  0
VERTEX
  8
FOREGROUND
  6
CONTINUOUS
 10
7.289856
 20
10.818311
  0
VERTEX
  8
FOREGROUND
  6
CONTINUOUS
 10
7.241232
 20
10.832497
  0
VERTEX
  8
FOREGROUND
  6
CONTINUOUS
 10
7.192479
 20
10.846266
  0
VERTEX
  8
FOREGROUND
  6
CONTINUOUS
 10
7.143601
 20
10.859618
  0
VERTEX
  8
FOREGROUND
  6
CONTINUOUS
 10
7.094602
 20
10.872553
  0
VERTEX
  8
FOREGROUND
  6
CONTINUOUS
 10
7.045486
 20
10.885071
  0
VERTEX
  8
FOREGROUND
  6
CONTINUOUS
 10
6.996256
 20
10.897171
  0
VERTEX
  8
FOREGROUND
  6
CONTINUOUS
 10
6.946916
 20
10.908855
  0
VERTEX
  8
FOREGROUND
  6
CONTINUOUS
 10
6.897470
 20
10.920121
  0
VERTEX
  8
FOREGROUND
  6
CONTINUOUS
 10
6.847923
 20
10.930970
  0
VERTEX
  8
FOREGROUND
  6
CONTINUOUS
 10
6.798278
 20
10.941401
  0
VERTEX
  8
FOREGROUND
  6
CONTINUOUS
 10
6.748538
 20
10.951416
  0
VERTEX
  8
FOREGROUND
  6
CONTINUOUS
 10
6.698708
 20
10.961013
  0
VERTEX
  8
FOREGROUND
  6
CONTINUOUS
 10
6.648791
 20
10.970194
  0
VERTEX
  8
FOREGROUND
  6
CONTINUOUS
 10
6.598791
 20
10.978957
  0
VERTEX
  8
FOREGROUND
  6
CONTINUOUS
 10
6.548713
 20
10.987303
  0
VERTEX
  8
FOREGROUND
  6
CONTINUOUS
 10
6.498559
 20
10.995231
  0
VERTEX
  8
FOREGROUND
  6
CONTINUOUS
 10
6.448335
 20
11.002743
  0
VERTEX
  8
FOREGROUND
  6
CONTINUOUS
 10
6.398043
 20
11.009837
  0
VERTEX
  8
FOREGROUND
  6
CONTINUOUS
 10
6.347687
 20
11.016515
  0
VERTEX
  8
FOREGROUND
  6
CONTINUOUS
 10
6.297272
 20
11.022775
  0
VERTEX
  8
FOREGROUND
  6
CONTINUOUS
 10
6.246801
 20
11.028618
  0
VERTEX
  8
FOREGROUND
  6
CONTINUOUS
 10
6.196278
 20
11.034043
  0
VERTEX
  8
FOREGROUND
  6
CONTINUOUS
 10
6.145707
 20
11.039052
  0
VERTEX
  8
FOREGROUND
  6
CONTINUOUS
 10
6.095092
 20
11.043643
  0
VERTEX
  8
FOREGROUND
  6
CONTINUOUS
 10
6.044437
 20
11.047817
  0
VERTEX
  8
FOREGROUND
  6
CONTINUOUS
 10
5.993744
 20
11.051574
  0
VERTEX
  8
FOREGROUND
  6
CONTINUOUS
 10
5.943019
 20
11.054914
  0
VERTEX
  8
FOREGROUND
  6
CONTINUOUS
 10
5.892266
 20
11.057836
  0
VERTEX
  8
FOREGROUND
  6
CONTINUOUS
 10
5.841487
 20
11.060342
  0
VERTEX
  8
FOREGROUND
  6
CONTINUOUS
 10
5.790687
 20
11.062430
  0
VERTEX
  8
FOREGROUND
  6
CONTINUOUS
 10
5.739870
 20
11.064101
  0
VERTEX
  8
FOREGROUND
  6
CONTINUOUS
 10
5.689039
 20
11.065355
  0
VERTEX
  8
FOREGROUND
  6
CONTINUOUS
 10
5.638198
 20
11.066192
  0
VERTEX
  8
FOREGROUND
  6
CONTINUOUS
 10
5.587352
 20
11.066611
  0
VERTEX
  8
FOREGROUND
  6
CONTINUOUS
 10
5.536504
 20
11.066614
  0
VERTEX
  8
FOREGROUND
  6
CONTINUOUS
 10
5.485658
 20
11.066199
  0
VERTEX
  8
FOREGROUND
  6
CONTINUOUS
 10
5.434817
 20
11.065367
  0
VERTEX
  8
FOREGROUND
  6
CONTINUOUS
 10
5.383986
 20
11.064118
  0
VERTEX
  8
FOREGROUND
  6
CONTINUOUS
 10
5.333169
 20
11.062451
  0
VERTEX
  8
FOREGROUND
  6
CONTINUOUS
 10
5.282368
 20
11.060368
  0
VERTEX
  8
FOREGROUND
  6
CONTINUOUS
 10
5.231589
 20
11.057867
  0
VERTEX
  8
FOREGROUND
  6
CONTINUOUS
 10
5.180835
 20
11.054949
  0
VERTEX
  8
FOREGROUND
  6
CONTINUOUS
 10
5.130110
 20
11.051614
  0
VERTEX
  8
FOREGROUND
  6
CONTINUOUS
 10
5.079417
 20
11.047862
  0
VERTEX
  8
FOREGROUND
  6
CONTINUOUS
 10
5.028761
 20
11.043692
  0
VERTEX
  8
FOREGROUND
  6
CONTINUOUS
 10
4.978146
 20
11.039106
  0
VERTEX
  8
FOREGROUND
  6
CONTINUOUS
 10
4.927574
 20
11.034102
  0
VERTEX
  8
FOREGROUND
  6
CONTINUOUS
 10
4.877051
 20
11.028681
  0
VERTEX
  8
FOREGROUND
  6
CONTINUOUS
 10
4.826580
 20
11.022843
  0
VERTEX
  8
FOREGROUND
  6
CONTINUOUS
 10
4.776164
 20
11.016587
  0
VERTEX
  8
FOREGROUND
  6
CONTINUOUS
 10
4.725808
 20
11.009915
  0
VERTEX
  8
FOREGROUND
  6
CONTINUOUS
 10
4.675515
 20
11.002825
  0
VERTEX
  8
FOREGROUND
  6
CONTINUOUS
 10
4.625290
 20
10.995318
  0
VERTEX
  8
FOREGROUND
  6
CONTINUOUS
 10
4.575136
 20
10.987394
  0
VERTEX
  8
FOREGROUND
  6
CONTINUOUS
 10
4.525056
 20
10.979053
  0
VERTEX
  8
FOREGROUND
  6
CONTINUOUS
 10
4.475056
 20
10.970294
  0
VERTEX
  8
FOREGROUND
  6
CONTINUOUS
 10
4.425138
 20
10.961119
  0
VERTEX
  8
FOREGROUND
  6
CONTINUOUS
 10
4.375307
 20
10.951526
  0
VERTEX
  8
FOREGROUND
  6
CONTINUOUS
 10
4.325566
 20
10.941516
  0
VERTEX
  8
FOREGROUND
  6
CONTINUOUS
 10
4.275920
 20
10.931089
  0
VERTEX
  8
FOREGROUND
  6
CONTINUOUS
 10
4.226371
 20
10.920244
  0
VERTEX
  8
FOREGROUND
  6
CONTINUOUS
 10
4.176925
 20
10.908983
  0
VERTEX
  8
FOREGROUND
  6
CONTINUOUS
 10
4.127584
 20
10.897304
  0
VERTEX
  8
FOREGROUND
  6
CONTINUOUS
 10
4.078353
 20
10.885208
  0
VERTEX
  8
FOREGROUND
  6
CONTINUOUS
 10
4.029235
 20
10.872695
  0
VERTEX
  8
FOREGROUND
  6
CONTINUOUS
 10
3.980235
 20
10.859765
  0
VERTEX
  8
FOREGROUND
  6
CONTINUOUS
 10
3.931356
 20
10.846417
  0
VERTEX
  8
FOREGROUND
  6
CONTINUOUS
 10
3.882602
 20
10.832652
  0
VERTEX
  8
FOREGROUND
  6
CONTINUOUS
 10
3.833976
 20
10.818471
  0
VERTEX
  8
FOREGROUND
  6
CONTINUOUS
 10
3.785484
 20
10.803872
  0
VERTEX
  8
FOREGROUND
  6
CONTINUOUS
 10
3.737128
 20
10.788855
  0
VERTEX
  8
FOREGROUND
  6
CONTINUOUS
 10
3.688912
 20
10.773422
  0
VERTEX
  8
FOREGROUND
  6
CONTINUOUS
 10
3.640840
 20
10.757571
  0
VERTEX
  8
FOREGROUND
  6
CONTINUOUS
 10
3.592917
 20
10.741304
  0
VERTEX
  8
FOREGROUND
  6
CONTINUOUS
 10
3.545146
 20
10.724619
  0
VERTEX
  8
FOREGROUND
  6
CONTINUOUS
 10
3.497530
 20
10.707516
  0
VERTEX
  8
FOREGROUND
  6
CONTINUOUS
 10
3.450074
 20
10.689997
  0
VERTEX
  8
FOREGROUND
  6
CONTINUOUS
 10
3.402781
 20
10.672061
  0
VERTEX
  8
FOREGROUND
  6
CONTINUOUS
 10
3.355656
 20
10.653707
  0
VERTEX
  8
FOREGROUND
  6
CONTINUOUS
 10
3.308702
 20
10.634936
  0
VERTEX
  8
FOREGROUND
  6
CONTINUOUS
 10
3.261923
 20
10.615748
  0
VERTEX
  8
FOREGROUND
  6
CONTINUOUS
 10
3.215323
 20
10.596142
  0
VERTEX
  8
FOREGROUND
  6
CONTINUOUS
 10
3.168905
 20
10.576120
  0
VERTEX
  8
FOREGROUND
  6
CONTINUOUS
 10
3.122674
 20
10.555680
  0
VERTEX
  8
FOREGROUND
  6
CONTINUOUS
 10
3.076634
 20
10.534823
  0
VERTEX
  8
FOREGROUND
  6
CONTINUOUS
 10
3.030787
 20
10.513549
  0
VERTEX
  8
FOREGROUND
  6
CONTINUOUS
 10
2.985139
 20
10.491858
  0
VERTEX
  8
FOREGROUND
  6
CONTINUOUS
 10
2.939693
 20
10.469750
  0
VERTEX
  8
FOREGROUND
  6
CONTINUOUS
 10
2.894452
 20
10.447224
  0
VERTEX
  8
FOREGROUND
  6
CONTINUOUS
 10
2.849422
 20
10.424281
  0
VERTEX
  8
FOREGROUND
  6
CONTINUOUS
 10
2.804604
 20
10.400921
  0
VERTEX
  8
FOREGROUND
  6
CONTINUOUS
 10
2.760004
 20
10.377144
  0
VERTEX
  8
FOREGROUND
  6
CONTINUOUS
 10
2.715625
 20
10.352950
  0
VERTEX
  8
FOREGROUND
  6
CONTINUOUS
 10
2.671472
 20
10.328338
  0
VERTEX
  8
FOREGROUND
  6
CONTINUOUS
 10
2.627547
 20
10.303310
  0
VERTEX
  8
FOREGROUND
  6
CONTINUOUS
 10
2.583855
 20
10.277864
  0
VERTEX
  8
FOREGROUND
  6
CONTINUOUS
 10
2.540399
 20
10.252000
  0
VERTEX
  8
FOREGROUND
  6
CONTINUOUS
 10
2.497184
 20
10.225720
  0
VERTEX
  8
FOREGROUND
  6
CONTINUOUS
 10
2.454213
 20
10.199023
  0
VERTEX
  8
FOREGROUND
  6
CONTINUOUS
 10
2.411490
 20
10.171908
  0
VERTEX
  8
FOREGROUND
  6
CONTINUOUS
 10
2.369019
 20
10.144376
  0
VERTEX
  8
FOREGROUND
  6
CONTINUOUS
 10
2.326804
 20
10.116427
  0
VERTEX
  8
FOREGROUND
  6
CONTINUOUS
 10
2.284848
 20
10.088061
  0
VERTEX
  8
FOREGROUND
  6
CONTINUOUS
 10
2.243156
 20
10.059277
  0
VERTEX
  8
FOREGROUND
  6
CONTINUOUS
 10
2.201732
 20
10.030076
  0
VERTEX
  8
FOREGROUND
  6
CONTINUOUS
 10
2.160578
 20
10.000459
  0
VERTEX
  8
FOREGROUND
  6
CONTINUOUS
 10
2.119700
 20
9.970424
  0
VERTEX
  8
FOREGROUND
  6
CONTINUOUS
 10
2.079100
 20
9.939971
  0
VERTEX
  8
FOREGROUND
  6
CONTINUOUS
 10
2.038783
 20
9.909102
  0
VERTEX
  8
FOREGROUND
  6
CONTINUOUS
 10
1.998753
 20
9.877815
  0
VERTEX
  8
FOREGROUND
  6
CONTINUOUS
 10
1.959013
 20
9.846111
  0
VERTEX
  8
FOREGROUND
  6
CONTINUOUS
 10
1.919568
 20
9.813990
  0
VERTEX
  8
FOREGROUND
  6
CONTINUOUS
 10
1.880420
 20
9.781452
  0
VERTEX
  8
FOREGROUND
  6
CONTINUOUS
 10
1.841575
 20
9.748497
  0
VERTEX
  8
FOREGROUND
  6
CONTINUOUS
 10
1.803035
 20
9.715124
  0
VERTEX
  8
FOREGROUND
  6
CONTINUOUS
 10
1.764805
 20
9.681334
  0
VERTEX
  8
FOREGROUND
  6
CONTINUOUS
 10
1.726889
 20
9.647127
  0
VERTEX
  8
FOREGROUND
  6
CONTINUOUS
 10
1.689289
 20
9.612503
  0
VERTEX
  8
FOREGROUND
  6
CONTINUOUS
 10
1.652011
 20
9.577462
  0
VERTEX
  8
FOREGROUND
  6
CONTINUOUS
 10
1.615059
 20
9.542003
  0
VERTEX
  8
FOREGROUND
  6
CONTINUOUS
 10
1.578435
 20
9.506128
  0
VERTEX
  8
FOREGROUND
  6
CONTINUOUS
 10
1.542143
 20
9.469835
  0
VERTEX
  8
FOREGROUND
  6
CONTINUOUS
 10
1.506189
 20
9.433124
  0
VERTEX
  8
FOREGROUND
  6
CONTINUOUS
 10
1.470574
 20
9.395997
  0
VERTEX
  8
FOREGROUND
  6
CONTINUOUS
 10
1.435304
 20
9.358453
  0
VERTEX
  8
FOREGROUND
  6
CONTINUOUS
 10
1.400382
 20
9.320491
  0
VERTEX
  8
FOREGROUND
  6
CONTINUOUS
 10
1.365813
 20
9.282112
  0
VERTEX
  8
FOREGROUND
  6
CONTINUOUS
 10
1.331598
 20
9.243316
  0
VERTEX
  8
FOREGROUND
  6
CONTINUOUS
 10
1.297744
 20
9.204102
  0
VERTEX
  8
FOREGROUND
  6
CONTINUOUS
 10
1.264253
 20
9.164472
  0
VERTEX
  8
FOREGROUND
  6
CONTINUOUS
 10
1.231130
 20
9.124424
  0
VERTEX
  8
FOREGROUND
  6
CONTINUOUS
 10
1.198377
 20
9.083959
  0
VERTEX
  8
FOREGROUND
  6
CONTINUOUS
 10
1.166000
 20
9.043077
  0
VERTEX
  8
FOREGROUND
  6
CONTINUOUS
 10
1.134002
 20
9.001778
  0
VERTEX
  8
FOREGROUND
  6
CONTINUOUS
 10
1.102386
 20
8.960061
  0
VERTEX
  8
FOREGROUND
  6
CONTINUOUS
 10
1.071157
 20
8.917928
  0
VERTEX
  8
FOREGROUND
  6
CONTINUOUS
 10
1.040318
 20
8.875377
  0
VERTEX
  8
FOREGROUND
  6
CONTINUOUS
 10
1.009874
 20
8.832409
  0
VERTEX
  8
FOREGROUND
  6
CONTINUOUS
 10
0.979828
 20
8.789023
  0
VERTEX
  8
FOREGROUND
  6
CONTINUOUS
 10
0.950184
 20
8.745221
  0
VERTEX
  8
FOREGROUND
  6
CONTINUOUS
 10
0.920945
 20
8.701001
  0
VERTEX
  8
FOREGROUND
  6
CONTINUOUS
 10
0.892117
 20
8.656364
  0
VERTEX
  8
FOREGROUND
  6
CONTINUOUS
 10
0.863701
 20
8.611310
  0
VERTEX
  8
FOREGROUND
  6
CONTINUOUS
 10
0.835704
 20
8.565839
  0
VERTEX
  8
FOREGROUND
  6
CONTINUOUS
 10
0.808127
 20
8.519950
  0
VERTEX
  8
FOREGROUND
  6
CONTINUOUS
 10
0.780976
 20
8.473645
  0
VERTEX
  8
FOREGROUND
  6
CONTINUOUS
 10
0.754253
 20
8.426922
  0
VERTEX
  8
FOREGROUND
  6
CONTINUOUS
 10
0.727963
 20
8.379782
  0
VERTEX
  8
FOREGROUND
  6
CONTINUOUS
 10
0.702110
 20
8.332224
  0
VERTEX
  8
FOREGROUND
  6
CONTINUOUS
 10
0.676697
 20
8.284250
  0
VERTEX
  8
FOREGROUND
  6
CONTINUOUS
 10
0.651729
 20
8.235858
  0
VERTEX
  8
FOREGROUND
  6
CONTINUOUS
 10
0.627208
 20
8.187049
  0
VERTEX
  8
FOREGROUND
  6
CONTINUOUS
 10
0.603140
 20
8.137823
  0
VERTEX
  8
FOREGROUND
  6
CONTINUOUS
 10
0.579527
 20
8.088180
  0
VERTEX
  8
FOREGROUND
  6
CONTINUOUS
 10
0.556375
 20
8.038119
  0
VERTEX
  8
FOREGROUND
  6
CONTINUOUS
 10
0.533685
 20
7.987642
  0
VERTEX
  8
FOREGROUND
  6
CONTINUOUS
 10
0.511463
 20
7.936747
  0
VERTEX
  8
FOREGROUND
  6
CONTINUOUS
 10
0.489713
 20
7.885435
  0
VERTEX
  8
FOREGROUND
  6
CONTINUOUS
 10
0.468437
 20
7.833705
  0
VERTEX
  8
FOREGROUND
  6
CONTINUOUS
 10
0.447640
 20
7.781559
  0
VERTEX
  8
FOREGROUND
  6
CONTINUOUS
 10
0.427326
 20
7.728995
  0
VERTEX
  8
FOREGROUND
  6
CONTINUOUS
 10
0.407499
 20
7.676014
  0
VERTEX
  8
FOREGROUND
  6
CONTINUOUS
 10
0.388162
 20
7.622616
  0
VERTEX
  8
FOREGROUND
  6
CONTINUOUS
 10
0.369320
 20
7.568801
  0
VERTEX
  8
FOREGROUND
  6
CONTINUOUS
 10
0.350975
 20
7.514568
  0
VERTEX
  8
FOREGROUND
  6
CONTINUOUS
 10
0.333133
 20
7.459919
  0
VERTEX
  8
FOREGROUND
  6
CONTINUOUS
 10
0.315796
 20
7.404852
  0
VERTEX
  8
FOREGROUND
  6
CONTINUOUS
 10
0.298969
 20
7.349368
  0
VERTEX
  8
FOREGROUND
  6
CONTINUOUS
 10
0.282656
 20
7.293466
  0
VERTEX
  8
FOREGROUND
  6
CONTINUOUS
 10
0.266860
 20
7.237148
  0
VERTEX
  8
FOREGROUND
  6
CONTINUOUS
 10
0.251586
 20
7.180412
  0
VERTEX
  8
FOREGROUND
  6
CONTINUOUS
 10
0.236836
 20
7.123259
  0
VERTEX
  8
FOREGROUND
  6
CONTINUOUS
 10
0.222615
 20
7.065689
  0
VERTEX
  8
FOREGROUND
  6
CONTINUOUS
 10
0.208927
 20
7.007702
  0
VERTEX
  8
FOREGROUND
  6
CONTINUOUS
 10
0.195776
 20
6.949297
  0
VERTEX
  8
FOREGROUND
  6
CONTINUOUS
 10
0.183165
 20
6.890475
  0
VERTEX
  8
FOREGROUND
  6
CONTINUOUS
 10
0.171099
 20
6.831236
  0
VERTEX
  8
FOREGROUND
  6
CONTINUOUS
 10
0.159580
 20
6.771580
  0
VERTEX
  8
FOREGROUND
  6
CONTINUOUS
 10
0.148614
 20
6.711507
  0
VERTEX
  8
FOREGROUND
  6
CONTINUOUS
 10
0.138204
 20
6.651016
  0
VERTEX
  8
FOREGROUND
  6
CONTINUOUS
 10
0.128353
 20
6.590108
  0
VERTEX
  8
FOREGROUND
  6
CONTINUOUS
 10
0.119066
 20
6.528783
  0
VERTEX
  8
FOREGROUND
  6
CONTINUOUS
 10
0.110346
 20
6.467041
  0
VERTEX
  8
FOREGROUND
  6
CONTINUOUS
 10
0.102197
 20
6.404882
  0
VERTEX
  8
FOREGROUND
  6
CONTINUOUS
 10
0.094624
 20
6.342305
  0
VERTEX
  8
FOREGROUND
  6
CONTINUOUS
 10
0.087629
 20
6.279311
  0
VERTEX
  8
FOREGROUND
  6
CONTINUOUS
 10
0.081218
 20
6.215900
  0
VERTEX
  8
FOREGROUND
  6
CONTINUOUS
 10
0.075393
 20
6.152072
  0
VERTEX
  8
FOREGROUND
  6
CONTINUOUS
 10
0.070158
 20
6.087827
  0
VERTEX
  8
FOREGROUND
  6
CONTINUOUS
 10
0.065518
 20
6.023164
  0
VERTEX
  8
FOREGROUND
  6
CONTINUOUS
 10
0.061476
 20
5.958084
  0
VERTEX
  8
FOREGROUND
  6
CONTINUOUS
 10
0.058036
 20
5.892587
  0
VERTEX
  8
FOREGROUND
  6
CONTINUOUS
 10
0.055201
 20
5.826673
  0
VERTEX
  8
FOREGROUND
  6
CONTINUOUS
 10
0.052977
 20
5.760341
  0
VERTEX
  8
FOREGROUND
  6
CONTINUOUS
 10
0.051366
 20
5.693593
  0
VERTEX
  8
FOREGROUND
  6
CONTINUOUS
 10
0.050372
 20
5.626427
  0
VERTEX
  8
FOREGROUND
  6
CONTINUOUS
 10
0.050000
 20
5.558844
  0
VERTEX
  8
FOREGROUND
  6
CONTINUOUS
 10
0.050000
 20
5.558844
  0
VERTEX
  8
FOREGROUND
  6
CONTINUOUS
 10
0.050360
 20
5.491261
  0
VERTEX
  8
FOREGROUND
  6
CONTINUOUS
 10
0.051341
 20
5.424094
  0
VERTEX
  8
FOREGROUND
  6
CONTINUOUS
 10
0.052939
 20
5.357345
  0
VERTEX
  8
FOREGROUND
  6
CONTINUOUS
 10
0.055151
 20
5.291014
  0
VERTEX
  8
FOREGROUND
  6
CONTINUOUS
 10
0.057973
 20
5.225099
  0
VERTEX
  8
FOREGROUND
  6
CONTINUOUS
 10
0.061401
 20
5.159601
  0
VERTEX
  8
FOREGROUND
  6
CONTINUOUS
 10
0.065431
 20
5.094521
  0
VERTEX
  8
FOREGROUND
  6
CONTINUOUS
 10
0.070059
 20
5.029857
  0
VERTEX
  8
FOREGROUND
  6
CONTINUOUS
 10
0.075281
 20
4.965611
  0
VERTEX
  8
FOREGROUND
  6
CONTINUOUS
 10
0.081095
 20
4.901781
  0
VERTEX
  8
FOREGROUND
  6
CONTINUOUS
 10
0.087494
 20
4.838369
  0
VERTEX
  8
FOREGROUND
  6
CONTINUOUS
 10
0.094477
 20
4.775374
  0
VERTEX
  8
FOREGROUND
  6
CONTINUOUS
 10
0.102039
 20
4.712796
  0
VERTEX
  8
FOREGROUND
  6
CONTINUOUS
 10
0.110176
 20
4.650635
  0
VERTEX
  8
FOREGROUND
  6
CONTINUOUS
 10
0.118884
 20
4.588891
  0
VERTEX
  8
FOREGROUND
  6
CONTINUOUS
 10
0.128160
 20
4.527565
  0
VERTEX
  8
FOREGROUND
  6
CONTINUOUS
 10
0.137999
 20
4.466655
  0
VERTEX
  8
FOREGROUND
  6
CONTINUOUS
 10
0.148398
 20
4.406162
  0
VERTEX
  8
FOREGROUND
  6
CONTINUOUS
 10
0.159353
 20
4.346087
  0
VERTEX
  8
FOREGROUND
  6
CONTINUOUS
 10
0.170860
 20
4.286429
  0
VERTEX
  8
FOREGROUND
  6
CONTINUOUS
 10
0.182916
 20
4.227188
  0
VERTEX
  8
FOREGROUND
  6
CONTINUOUS
 10
0.195515
 20
4.168363
  0
VERTEX
  8
FOREGROUND
  6
CONTINUOUS
 10
0.208656
 20
4.109956
  0
VERTEX
  8
FOREGROUND
  6
CONTINUOUS
 10
0.222333
 20
4.051967
  0
VERTEX
  8
FOREGROUND
  6
CONTINUOUS
 10
0.236542
 20
3.994394
  0
VERTEX
  8
FOREGROUND
  6
CONTINUOUS
 10
0.251281
 20
3.937238
  0
VERTEX
  8
FOREGROUND
  6
CONTINUOUS
 10
0.266545
 20
3.880500
  0
VERTEX
  8
FOREGROUND
  6
CONTINUOUS
 10
0.282331
 20
3.824178
  0
VERTEX
  8
FOREGROUND
  6
CONTINUOUS
 10
0.298634
 20
3.768274
  0
VERTEX
  8
FOREGROUND
  6
CONTINUOUS
 10
0.315450
 20
3.712786
  0
VERTEX
  8
FOREGROUND
  6
CONTINUOUS
 10
0.332776
 20
3.657716
  0
VERTEX
  8
FOREGROUND
  6
CONTINUOUS
 10
0.350608
 20
3.603063
  0
VERTEX
  8
FOREGROUND
  6
CONTINUOUS
 10
0.368943
 20
3.548827
  0
VERTEX
  8
FOREGROUND
  6
CONTINUOUS
 10
0.387775
 20
3.495009
  0
VERTEX
  8
FOREGROUND
  6
CONTINUOUS
 10
0.407102
 20
3.441607
  0
VERTEX
  8
FOREGROUND
  6
CONTINUOUS
 10
0.426919
 20
3.388622
  0
VERTEX
  8
FOREGROUND
  6
CONTINUOUS
 10
0.447223
 20
3.336055
  0
VERTEX
  8
FOREGROUND
  6
CONTINUOUS
 10
0.468010
 20
3.283905
  0
VERTEX
  8
FOREGROUND
  6
CONTINUOUS
 10
0.489276
 20
3.232171
  0
VERTEX
  8
FOREGROUND
  6
CONTINUOUS
 10
0.511017
 20
3.180855
  0
VERTEX
  8
FOREGROUND
  6
CONTINUOUS
 10
0.533230
 20
3.129956
  0
VERTEX
  8
FOREGROUND
  6
CONTINUOUS
 10
0.555910
 20
3.079474
  0
VERTEX
  8
FOREGROUND
  6
CONTINUOUS
 10
0.579053
 20
3.029409
  0
VERTEX
  8
FOREGROUND
  6
CONTINUOUS
 10
0.602656
 20
2.979762
  0
VERTEX
  8
FOREGROUND
  6
CONTINUOUS
 10
0.626715
 20
2.930531
  0
VERTEX
  8
FOREGROUND
  6
CONTINUOUS
 10
0.651226
 20
2.881718
  0
VERTEX
  8
FOREGROUND
  6
CONTINUOUS
 10
0.676186
 20
2.833321
  0
VERTEX
  8
FOREGROUND
  6
CONTINUOUS
 10
0.701590
 20
2.785342
  0
VERTEX
  8
FOREGROUND
  6
CONTINUOUS
 10
0.727434
 20
2.737780
  0
VERTEX
  8
FOREGROUND
  6
CONTINUOUS
 10
0.753715
 20
2.690635
  0
VERTEX
  8
FOREGROUND
  6
CONTINUOUS
 10
0.780429
 20
2.643907
  0
VERTEX
  8
FOREGROUND
  6
CONTINUOUS
 10
0.807572
 20
2.597597
  0
VERTEX
  8
FOREGROUND
  6
CONTINUOUS
 10
0.835140
 20
2.551703
  0
VERTEX
  8
FOREGROUND
  6
CONTINUOUS
 10
0.863129
 20
2.506227
  0
VERTEX
  8
FOREGROUND
  6
CONTINUOUS
 10
0.891536
 20
2.461167
  0
VERTEX
  8
FOREGROUND
  6
CONTINUOUS
 10
0.920356
 20
2.416525
  0
VERTEX
  8
FOREGROUND
  6
CONTINUOUS
 10
0.949586
 20
2.372300
  0
VERTEX
  8
FOREGROUND
  6
CONTINUOUS
 10
0.979222
 20
2.328492
  0
VERTEX
  8
FOREGROUND
  6
CONTINUOUS
 10
1.009260
 20
2.285101
  0
VERTEX
  8
FOREGROUND
  6
CONTINUOUS
 10
1.039696
 20
2.242127
  0
VERTEX
  8
FOREGROUND
  6
CONTINUOUS
 10
1.070527
 20
2.199571
  0
VERTEX
  8
FOREGROUND
  6
CONTINUOUS
 10
1.101748
 20
2.157431
  0
VERTEX
  8
FOREGROUND
  6
CONTINUOUS
 10
1.133356
 20
2.115709
  0
VERTEX
  8
FOREGROUND
  6
CONTINUOUS
 10
1.165346
 20
2.074404
  0
VERTEX
  8
FOREGROUND
  6
CONTINUOUS
 10
1.197716
 20
2.033515
  0
VERTEX
  8
FOREGROUND
  6
CONTINUOUS
 10
1.230461
 20
1.993044
  0
VERTEX
  8
FOREGROUND
  6
CONTINUOUS
 10
1.263577
 20
1.952991
  0
VERTEX
  8
FOREGROUND
  6
CONTINUOUS
 10
1.297060
 20
1.913354
  0
VERTEX
  8
FOREGROUND
  6
CONTINUOUS
 10
1.330907
 20
1.874134
  0
VERTEX
  8
FOREGROUND
  6
CONTINUOUS
 10
1.365114
 20
1.835332
  0
VERTEX
  8
FOREGROUND
  6
CONTINUOUS
 10
1.399677
 20
1.796947
  0
VERTEX
  8
FOREGROUND
  6
CONTINUOUS
 10
1.434592
 20
1.758978
  0
VERTEX
  8
FOREGROUND
  6
CONTINUOUS
 10
1.469855
 20
1.721427
  0
VERTEX
  8
FOREGROUND
  6
CONTINUOUS
 10
1.505462
 20
1.684293
  0
VERTEX
  8
FOREGROUND
  6
CONTINUOUS
 10
1.541410
 20
1.647576
  0
VERTEX
  8
FOREGROUND
  6
CONTINUOUS
 10
1.577694
 20
1.611277
  0
VERTEX
  8
FOREGROUND
  6
CONTINUOUS
 10
1.614311
 20
1.575394
  0
VERTEX
  8
FOREGROUND
  6
CONTINUOUS
 10
1.651258
 20
1.539929
  0
VERTEX
  8
FOREGROUND
  6
CONTINUOUS
 10
1.688529
 20
1.504881
  0
VERTEX
  8
FOREGROUND
  6
CONTINUOUS
 10
1.726122
 20
1.470249
  0
VERTEX
  8
FOREGROUND
  6
CONTINUOUS
 10
1.764032
 20
1.436035
  0
VERTEX
  8
FOREGROUND
  6
CONTINUOUS
 10
1.802255
 20
1.402239
  0
VERTEX
  8
FOREGROUND
  6
CONTINUOUS
 10
1.840789
 20
1.368859
  0
VERTEX
  8
FOREGROUND
  6
CONTINUOUS
 10
1.879628
 20
1.335896
  0
VERTEX
  8
FOREGROUND
  6
CONTINUOUS
 10
1.918770
 20
1.303351
  0
VERTEX
  8
FOREGROUND
  6
CONTINUOUS
 10
1.958209
 20
1.271222
  0
VERTEX
  8
FOREGROUND
  6
CONTINUOUS
 10
1.997943
 20
1.239511
  0
VERTEX
  8
FOREGROUND
  6
CONTINUOUS
 10
2.037967
 20
1.208217
  0
VERTEX
  8
FOREGROUND
  6
CONTINUOUS
 10
2.078278
 20
1.177340
  0
VERTEX
  8
FOREGROUND
  6
CONTINUOUS
 10
2.118872
 20
1.146881
  0
VERTEX
  8
FOREGROUND
  6
CONTINUOUS
 10
2.159745
 20
1.116838
  0
VERTEX
  8
FOREGROUND
  6
CONTINUOUS
 10
2.200893
 20
1.087212
  0
VERTEX
  8
FOREGROUND
  6
CONTINUOUS
 10
2.242312
 20
1.058004
  0
VERTEX
  8
FOREGROUND
  6
CONTINUOUS
 10
2.283999
 20
1.029213
  0
VERTEX
  8
FOREGROUND
  6
CONTINUOUS
 10
2.325949
 20
1.000839
  0
VERTEX
  8
FOREGROUND
  6
CONTINUOUS
 10
2.368159
 20
0.972882
  0
VERTEX
  8
FOREGROUND
  6
CONTINUOUS
 10
2.410624
 20
0.945342
  0
VERTEX
  8
FOREGROUND
  6
CONTINUOUS
 10
2.453342
 20
0.918220
  0
VERTEX
  8
FOREGROUND
  6
CONTINUOUS
 10
2.496308
 20
0.891514
  0
VERTEX
  8
FOREGROUND
  6
CONTINUOUS
 10
2.539519
 20
0.865226
  0
VERTEX
  8
FOREGROUND
  6
CONTINUOUS
 10
2.582969
 20
0.839355
  0
VERTEX
  8
FOREGROUND
  6
CONTINUOUS
 10
2.626657
 20
0.813901
  0
VERTEX
  8
FOREGROUND
  6
CONTINUOUS
 10
2.670577
 20
0.788864
  0
VERTEX
  8
FOREGROUND
  6
CONTINUOUS
 10
2.714726
 20
0.764244
  0
VERTEX
  8
FOREGROUND
  6
CONTINUOUS
 10
2.759100
 20
0.740041
  0
VERTEX
  8
FOREGROUND
  6
CONTINUOUS
 10
2.803696
 20
0.716256
  0
VERTEX
  8
FOREGROUND
  6
CONTINUOUS
 10
2.848509
 20
0.692888
  0
VERTEX
  8
FOREGROUND
  6
CONTINUOUS
 10
2.893536
 20
0.669937
  0
VERTEX
  8
FOREGROUND
  6
CONTINUOUS
 10
2.938772
 20
0.647403
  0
VERTEX
  8
FOREGROUND
  6
CONTINUOUS
 10
2.984214
 20
0.625286
  0
VERTEX
  8
FOREGROUND
  6
CONTINUOUS
 10
3.029858
 20
0.603586
  0
VERTEX
  8
FOREGROUND
  6
CONTINUOUS
 10
3.075700
 20
0.582304
  0
VERTEX
  8
FOREGROUND
  6
CONTINUOUS
 10
3.121737
 20
0.561438
  0
VERTEX
  8
FOREGROUND
  6
CONTINUOUS
 10
3.167964
 20
0.540990
  0
VERTEX
  8
FOREGROUND
  6
CONTINUOUS
 10
3.214378
 20
0.520959
  0
VERTEX
  8
FOREGROUND
  6
CONTINUOUS
 10
3.260974
 20
0.501345
  0
VERTEX
  8
FOREGROUND
  6
CONTINUOUS
 10
3.307750
 20
0.482148
  0
VERTEX
  8
FOREGROUND
  6
CONTINUOUS
 10
3.354700
 20
0.463369
  0
VERTEX
  8
FOREGROUND
  6
CONTINUOUS
 10
3.401822
 20
0.445006
  0
VERTEX
  8
FOREGROUND
  6
CONTINUOUS
 10
3.449111
 20
0.427061
  0
VERTEX
  8
FOREGROUND
  6
CONTINUOUS
 10
3.496564
 20
0.409533
  0
VERTEX
  8
FOREGROUND
  6
CONTINUOUS
 10
3.544177
 20
0.392422
  0
VERTEX
  8
FOREGROUND
  6
CONTINUOUS
 10
3.591945
 20
0.375728
  0
VERTEX
  8
FOREGROUND
  6
CONTINUOUS
 10
3.639865
 20
0.359451
  0
VERTEX
  8
FOREGROUND
  6
CONTINUOUS
 10
3.687934
 20
0.343592
  0
VERTEX
  8
FOREGROUND
  6
CONTINUOUS
 10
3.736146
 20
0.328149
  0
VERTEX
  8
FOREGROUND
  6
CONTINUOUS
 10
3.784500
 20
0.313124
  0
VERTEX
  8
FOREGROUND
  6
CONTINUOUS
 10
3.832990
 20
0.298516
  0
VERTEX
  8
FOREGROUND
  6
CONTINUOUS
 10
3.881612
 20
0.284325
  0
VERTEX
  8
FOREGROUND
  6
CONTINUOUS
 10
3.930364
 20
0.270552
  0
VERTEX
  8
FOREGROUND
  6
CONTINUOUS
 10
3.979241
 20
0.257195
  0
VERTEX
  8
FOREGROUND
  6
CONTINUOUS
 10
4.028239
 20
0.244256
  0
VERTEX
  8
FOREGROUND
  6
CONTINUOUS
 10
4.077354
 20
0.231733
  0
VERTEX
  8
FOREGROUND
  6
CONTINUOUS
 10
4.126583
 20
0.219628
  0
VERTEX
  8
FOREGROUND
  6
CONTINUOUS
 10
4.175921
 20
0.207940
  0
VERTEX
  8
FOREGROUND
  6
CONTINUOUS
 10
4.225366
 20
0.196670
  0
VERTEX
  8
FOREGROUND
  6
CONTINUOUS
 10
4.274912
 20
0.185816
  0
VERTEX
  8
FOREGROUND
  6
CONTINUOUS
 10
4.324557
 20
0.175380
  0
VERTEX
  8
FOREGROUND
  6
CONTINUOUS
 10
4.374296
 20
0.165361
  0
VERTEX
  8
FOREGROUND
  6
CONTINUOUS
 10
4.424125
 20
0.155759
  0
VERTEX
  8
FOREGROUND
  6
CONTINUOUS
 10
4.474041
 20
0.146574
  0
VERTEX
  8
FOREGROUND
  6
CONTINUOUS
 10
4.524040
 20
0.137806
  0
VERTEX
  8
FOREGROUND
  6
CONTINUOUS
 10
4.574117
 20
0.129455
  0
VERTEX
  8
FOREGROUND
  6
CONTINUOUS
 10
4.624270
 20
0.121522
  0
VERTEX
  8
FOREGROUND
  6
CONTINUOUS
 10
4.674494
 20
0.114006
  0
VERTEX
  8
FOREGROUND
  6
CONTINUOUS
 10
4.724785
 20
0.106907
  0
VERTEX
  8
FOREGROUND
  6
CONTINUOUS
 10
4.775140
 20
0.100225
  0
VERTEX
  8
FOREGROUND
  6
CONTINUOUS
 10
4.825555
 20
0.093960
  0
VERTEX
  8
FOREGROUND
  6
CONTINUOUS
 10
4.876025
 20
0.088113
  0
VERTEX
  8
FOREGROUND
  6
CONTINUOUS
 10
4.926547
 20
0.082682
  0
VERTEX
  8
FOREGROUND
  6
CONTINUOUS
 10
4.977118
 20
0.077669
  0
VERTEX
  8
FOREGROUND
  6
CONTINUOUS
 10
5.027733
 20
0.073073
  0
VERTEX
  8
FOREGROUND
  6
CONTINUOUS
 10
5.078388
 20
0.068894
  0
VERTEX
  8
FOREGROUND
  6
CONTINUOUS
 10
5.129080
 20
0.065133
  0
VERTEX
  8
FOREGROUND
  6
CONTINUOUS
 10
5.179804
 20
0.061788
  0
VERTEX
  8
FOREGROUND
  6
CONTINUOUS
 10
5.230558
 20
0.058861
  0
VERTEX
  8
FOREGROUND
  6
CONTINUOUS
 10
5.281336
 20
0.056351
  0
VERTEX
  8
FOREGROUND
  6
CONTINUOUS
 10
5.332136
 20
0.054258
  0
VERTEX
  8
FOREGROUND
  6
CONTINUOUS
 10
5.382953
 20
0.052582
  0
VERTEX
  8
FOREGROUND
  6
CONTINUOUS
 10
5.433784
 20
0.051323
  0
VERTEX
  8
FOREGROUND
  6
CONTINUOUS
 10
5.484624
 20
0.050482
  0
VERTEX
  8
FOREGROUND
  6
CONTINUOUS
 10
5.535471
 20
0.050058
  0
VERTEX
  8
FOREGROUND
  6
CONTINUOUS
 10
5.586319
 20
0.050051
  0
VERTEX
  8
FOREGROUND
  6
CONTINUOUS
 10
5.637165
 20
0.050461
  0
VERTEX
  8
FOREGROUND
  6
CONTINUOUS
 10
5.688006
 20
0.051288
  0
VERTEX
  8
FOREGROUND
  6
CONTINUOUS
 10
5.738837
 20
0.052533
  0
VERTEX
  8
FOREGROUND
  6
CONTINUOUS
 10
5.789654
 20
0.054194
  0
VERTEX
  8
FOREGROUND
  6
CONTINUOUS
 10
5.840455
 20
0.056273
  0
VERTEX
  8
FOREGROUND
  6
CONTINUOUS
 10
5.891234
 20
0.058769
  0
VERTEX
  8
FOREGROUND
  6
CONTINUOUS
 10
5.941988
 20
0.061682
  0
VERTEX
  8
FOREGROUND
  6
CONTINUOUS
 10
5.992714
 20
0.065013
  0
VERTEX
  8
FOREGROUND
  6
CONTINUOUS
 10
6.043407
 20
0.068760
  0
VERTEX
  8
FOREGROUND
  6
CONTINUOUS
 10
6.094063
 20
0.072925
  0
VERTEX
  8
FOREGROUND
  6
CONTINUOUS
 10
6.144679
 20
0.077507
  0
VERTEX
  8
FOREGROUND
  6
CONTINUOUS
 10
6.195251
 20
0.082506
  0
VERTEX
  8
FOREGROUND
  6
CONTINUOUS
 10
6.245775
 20
0.087922
  0
VERTEX
  8
FOREGROUND
  6
CONTINUOUS
 10
6.296247
 20
0.093756
  0
VERTEX
  8
FOREGROUND
  6
CONTINUOUS
 10
6.346663
 20
0.100007
  0
VERTEX
  8
FOREGROUND
  6
CONTINUOUS
 10
6.397020
 20
0.106674
  0
VERTEX
  8
FOREGROUND
  6
CONTINUOUS
 10
6.447314
 20
0.113760
  0
VERTEX
  8
FOREGROUND
  6
CONTINUOUS
 10
6.497540
 20
0.121262
  0
VERTEX
  8
FOREGROUND
  6
CONTINUOUS
 10
6.547694
 20
0.129181
  0
VERTEX
  8
FOREGROUND
  6
CONTINUOUS
 10
6.597774
 20
0.137518
  0
VERTEX
  8
FOREGROUND
  6
CONTINUOUS
 10
6.647776
 20
0.146272
  0
VERTEX
  8
FOREGROUND
  6
CONTINUOUS
 10
6.697694
 20
0.155443
  0
VERTEX
  8
FOREGROUND
  6
CONTINUOUS
 10
6.747526
 20
0.165031
  0
VERTEX
  8
FOREGROUND
  6
CONTINUOUS
 10
6.797268
 20
0.175036
  0
VERTEX
  8
FOREGROUND
  6
CONTINUOUS
 10
6.846915
 20
0.185459
  0
VERTEX
  8
FOREGROUND
  6
CONTINUOUS
 10
6.896465
 20
0.196299
  0
VERTEX
  8
FOREGROUND
  6
CONTINUOUS
 10
6.945912
 20
0.207556
  0
VERTEX
  8
FOREGROUND
  6
CONTINUOUS
 10
6.995254
 20
0.219230
  0
VERTEX
  8
FOREGROUND
  6
CONTINUOUS
 10
7.044486
 20
0.231321
  0
VERTEX
  8
FOREGROUND
  6
CONTINUOUS
 10
7.093605
 20
0.243830
  0
VERTEX
  8
FOREGROUND
  6
CONTINUOUS
 10
7.142607
 20
0.256756
  0
VERTEX
  8
FOREGROUND
  6
CONTINUOUS
 10
7.191487
 20
0.270099
  0
VERTEX
  8
FOREGROUND
  6
CONTINUOUS
 10
7.240243
 20
0.283859
  0
VERTEX
  8
FOREGROUND
  6
CONTINUOUS
 10
7.288869
 20
0.298036
  0
VERTEX
  8
FOREGROUND
  6
CONTINUOUS
 10
7.337363
 20
0.312631
  0
VERTEX
  8
FOREGROUND
  6
CONTINUOUS
 10
7.385721
 20
0.327642
  0
VERTEX
  8
FOREGROUND
  6
CONTINUOUS
 10
7.433938
 20
0.343071
  0
VERTEX
  8
FOREGROUND
  6
CONTINUOUS
 10
7.482011
 20
0.358917
  0
VERTEX
  8
FOREGROUND
  6
CONTINUOUS
 10
7.529936
 20
0.375181
  0
VERTEX
  8
FOREGROUND
  6
CONTINUOUS
 10
7.577709
 20
0.391861
  0
VERTEX
  8
FOREGROUND
  6
CONTINUOUS
 10
7.625326
 20
0.408959
  0
VERTEX
  8
FOREGROUND
  6
CONTINUOUS
 10
7.672784
 20
0.426474
  0
VERTEX
  8
FOREGROUND
  6
CONTINUOUS
 10
7.720078
 20
0.444406
  0
VERTEX
  8
FOREGROUND
  6
CONTINUOUS
 10
7.767205
 20
0.462756
  0
VERTEX
  8
FOREGROUND
  6
CONTINUOUS
 10
7.814161
 20
0.481522
  0
VERTEX
  8
FOREGROUND
  6
CONTINUOUS
 10
7.860942
 20
0.500706
  0
VERTEX
  8
FOREGROUND
  6
CONTINUOUS
 10
7.907544
 20
0.520307
  0
VERTEX
  8
FOREGROUND
  6
CONTINUOUS
 10
7.953963
 20
0.540325
  0
VERTEX
  8
FOREGROUND
  6
CONTINUOUS
 10
8.000196
 20
0.560761
  0
VERTEX
  8
FOREGROUND
  6
CONTINUOUS
 10
8.046238
 20
0.581613
  0
VERTEX
  8
FOREGROUND
  6
CONTINUOUS
 10
8.092087
 20
0.602883
  0
VERTEX
  8
FOREGROUND
  6
CONTINUOUS
 10
8.137737
 20
0.624570
  0
VERTEX
  8
FOREGROUND
  6
CONTINUOUS
 10
8.183185
 20
0.646674
  0
VERTEX
  8
FOREGROUND
  6
CONTINUOUS
 10
8.228428
 20
0.669196
  0
VERTEX
  8
FOREGROUND
  6
CONTINUOUS
 10
8.273461
 20
0.692134
  0
VERTEX
  8
FOREGROUND
  6
CONTINUOUS
 10
8.318280
 20
0.715490
  0
VERTEX
  8
FOREGROUND
  6
CONTINUOUS
 10
8.362882
 20
0.739263
  0
VERTEX
  8
FOREGROUND
  6
CONTINUOUS
 10
8.407263
 20
0.763453
  0
VERTEX
  8
FOREGROUND
  6
CONTINUOUS
 10
8.451419
 20
0.788061
  0
VERTEX
  8
FOREGROUND
  6
CONTINUOUS
 10
8.495347
 20
0.813085
  0
VERTEX
  8
FOREGROUND
  6
CONTINUOUS
 10
8.539041
 20
0.838527
  0
VERTEX
  8
FOREGROUND
  6
CONTINUOUS
 10
8.582499
 20
0.864386
  0
VERTEX
  8
FOREGROUND
  6
CONTINUOUS
 10
8.625717
 20
0.890663
  0
VERTEX
  8
FOREGROUND
  6
CONTINUOUS
 10
8.668690
 20
0.917356
  0
VERTEX
  8
FOREGROUND
  6
CONTINUOUS
 10
8.711416
 20
0.944467
  0
VERTEX
  8
FOREGROUND
  6
CONTINUOUS
 10
8.753889
 20
0.971995
  0
VERTEX
  8
FOREGROUND
  6
CONTINUOUS
 10
8.796107
 20
0.999940
  0
VERTEX
  8
FOREGROUND
  6
CONTINUOUS
 10
8.838065
 20
1.028303
  0
VERTEX
  8
FOREGROUND
  6
CONTINUOUS
 10
8.879760
 20
1.057082
  0
VERTEX
  8
FOREGROUND
  6
CONTINUOUS
 10
8.921187
 20
1.086279
  0
VERTEX
  8
FOREGROUND
  6
CONTINUOUS
 10
8.962343
 20
1.115893
  0
VERTEX
  8
FOREGROUND
  6
CONTINUOUS
 10
9.003225
 20
1.145924
  0
VERTEX
  8
FOREGROUND
  6
CONTINUOUS
 10
9.043827
 20
1.176373
  0
VERTEX
  8
FOREGROUND
  6
CONTINUOUS
 10
9.084147
 20
1.207239
  0
VERTEX
  8
FOREGROUND
  6
CONTINUOUS
 10
9.124180
 20
1.238521
  0
VERTEX
  8
FOREGROUND
  6
CONTINUOUS
 10
9.163923
 20
1.270222
  0
VERTEX
  8
FOREGROUND
  6
CONTINUOUS
 10
9.203371
 20
1.302339
  0
VERTEX
  8
FOREGROUND
  6
CONTINUOUS
 10
9.242522
 20
1.334874
  0
VERTEX
  8
FOREGROUND
  6
CONTINUOUS
 10
9.281370
 20
1.367825
  0
VERTEX
  8
FOREGROUND
  6
CONTINUOUS
 10
9.319913
 20
1.401194
  0
VERTEX
  8
FOREGROUND
  6
CONTINUOUS
 10
9.358146
 20
1.434981
  0
VERTEX
  8
FOREGROUND
  6
CONTINUOUS
 10
9.396066
 20
1.469184
  0
VERTEX
  8
FOREGROUND
  6
CONTINUOUS
 10
9.433668
 20
1.503805
  0
VERTEX
  8
FOREGROUND
  6
CONTINUOUS
 10
9.470949
 20
1.538843
  0
VERTEX
  8
FOREGROUND
  6
CONTINUOUS
 10
9.507905
 20
1.574298
  0
VERTEX
  8
FOREGROUND
  6
CONTINUOUS
 10
9.544533
 20
1.610170
  0
VERTEX
  8
FOREGROUND
  6
CONTINUOUS
 10
9.580827
 20
1.646460
  0
VERTEX
  8
FOREGROUND
  6
CONTINUOUS
 10
9.616786
 20
1.683167
  0
VERTEX
  8
FOREGROUND
  6
CONTINUOUS
 10
9.652403
 20
1.720291
  0
VERTEX
  8
FOREGROUND
  6
CONTINUOUS
 10
9.687677
 20
1.757832
  0
VERTEX
  8
FOREGROUND
  6
CONTINUOUS
 10
9.722602
 20
1.795790
  0
VERTEX
  8
FOREGROUND
  6
CONTINUOUS
 10
9.757176
 20
1.834166
  0
VERTEX
  8
FOREGROUND
  6
CONTINUOUS
 10
9.791393
 20
1.872959
  0
VERTEX
  8
FOREGROUND
  6
CONTINUOUS
 10
9.825251
 20
1.912169
  0
VERTEX
  8
FOREGROUND
  6
CONTINUOUS
 10
9.858746
 20
1.951797
  0
VERTEX
  8
FOREGROUND
  6
CONTINUOUS
 10
9.891873
 20
1.991841
  0
VERTEX
  8
FOREGROUND
  6
CONTINUOUS
 10
9.924629
 20
2.032303
  0
VERTEX
  8
FOREGROUND
  6
CONTINUOUS
 10
9.957010
 20
2.073182
  0
VERTEX
  8
FOREGROUND
  6
CONTINUOUS
 10
9.989012
 20
2.114479
  0
VERTEX
  8
FOREGROUND
  6
CONTINUOUS
 10
10.020632
 20
2.156192
  0
VERTEX
  8
FOREGROUND
  6
CONTINUOUS
 10
10.051865
 20
2.198323
  0
VERTEX
  8
FOREGROUND
  6
CONTINUOUS
 10
10.082707
 20
2.240871
  0
VERTEX
  8
FOREGROUND
  6
CONTINUOUS
 10
10.113156
 20
2.283837
  0
VERTEX
  8
FOREGROUND
  6
CONTINUOUS
 10
10.143206
 20
2.327219
  0
VERTEX
  8
FOREGROUND
  6
CONTINUOUS
 10
10.172854
 20
2.371019
  0
VERTEX
  8
FOREGROUND
  6
CONTINUOUS
 10
10.202097
 20
2.415236
  0
VERTEX
  8
FOREGROUND
  6
CONTINUOUS
 10
10.230929
 20
2.459870
  0
VERTEX
  8
FOREGROUND
  6
CONTINUOUS
 10
10.259349
 20
2.504922
  0
VERTEX
  8
FOREGROUND
  6
CONTINUOUS
 10
10.287351
 20
2.550390
  0
VERTEX
  8
FOREGROUND
  6
CONTINUOUS
 10
10.314932
 20
2.596276
  0
VERTEX
  8
FOREGROUND
  6
CONTINUOUS
 10
10.342087
 20
2.642579
  0
VERTEX
  8
FOREGROUND
  6
CONTINUOUS
 10
10.368814
 20
2.689300
  0
VERTEX
  8
FOREGROUND
  6
CONTINUOUS
 10
10.395109
 20
2.736437
  0
VERTEX
  8
FOREGROUND
  6
CONTINUOUS
 10
10.420966
 20
2.783992
  0
VERTEX
  8
FOREGROUND
  6
CONTINUOUS
 10
10.446383
 20
2.831964
  0
VERTEX
  8
FOREGROUND
  6
CONTINUOUS
 10
10.471356
 20
2.880354
  0
VERTEX
  8
FOREGROUND
  6
CONTINUOUS
 10
10.495881
 20
2.929160
  0
VERTEX
  8
FOREGROUND
  6
CONTINUOUS
 10
10.519954
 20
2.978384
  0
VERTEX
  8
FOREGROUND
  6
CONTINUOUS
 10
10.543571
 20
3.028025
  0
VERTEX
  8
FOREGROUND
  6
CONTINUOUS
 10
10.566729
 20
3.078084
  0
VERTEX
  8
FOREGROUND
  6
CONTINUOUS
 10
10.589423
 20
3.128559
  0
VERTEX
  8
FOREGROUND
  6
CONTINUOUS
 10
10.611649
 20
3.179452
  0
VERTEX
  8
FOREGROUND
  6
CONTINUOUS
 10
10.633405
 20
3.230762
  0
VERTEX
  8
FOREGROUND
  6
CONTINUOUS
 10
10.654685
 20
3.282490
  0
VERTEX
  8
FOREGROUND
  6
CONTINUOUS
 10
10.675487
 20
3.334634
  0
VERTEX
  8
FOREGROUND
  6
CONTINUOUS
 10
10.695806
 20
3.387196
  0
VERTEX
  8
FOREGROUND
  6
CONTINUOUS
 10
10.715638
 20
3.440175
  0
VERTEX
  8
FOREGROUND
  6
CONTINUOUS
 10
10.734980
 20
3.493571
  0
VERTEX
  8
FOREGROUND
  6
CONTINUOUS
 10
10.753827
 20
3.547385
  0
VERTEX
  8
FOREGROUND
  6
CONTINUOUS
 10
10.772177
 20
3.601616
  0
VERTEX
  8
FOREGROUND
  6
CONTINUOUS
 10
10.790024
 20
3.656264
  0
VERTEX
  8
FOREGROUND
  6
CONTINUOUS
 10
10.807366
 20
3.711329
  0
VERTEX
  8
FOREGROUND
  6
CONTINUOUS
 10
10.824198
 20
3.766812
  0
VERTEX
  8
FOREGROUND
  6
CONTINUOUS
 10
10.840516
 20
3.822712
  0
VERTEX
  8
FOREGROUND
  6
CONTINUOUS
 10
10.856317
 20
3.879029
  0
VERTEX
  8
FOREGROUND
  6
CONTINUOUS
 10
10.871597
 20
3.935763
  0
VERTEX
  8
FOREGROUND
  6
CONTINUOUS
 10
10.886352
 20
3.992915
  0
VERTEX
  8
FOREGROUND
  6
CONTINUOUS
 10
10.900578
 20
4.050483
  0
VERTEX
  8
FOREGROUND
  6
CONTINUOUS
 10
10.914272
 20
4.108469
  0
VERTEX
  8
FOREGROUND
  6
CONTINUOUS
 10
10.927428
 20
4.166873
  0
VERTEX
  8
FOREGROUND
  6
CONTINUOUS
 10
10.940045
 20
4.225693
  0
VERTEX
  8
FOREGROUND
  6
CONTINUOUS
 10
10.952116
 20
4.284931
  0
VERTEX
  8
FOREGROUND
  6
CONTINUOUS
 10
10.963640
 20
4.344586
  0
VERTEX
  8
FOREGROUND
  6
CONTINUOUS
 10
10.974612
 20
4.404659
  0
VERTEX
  8
FOREGROUND
  6
CONTINUOUS
 10
10.985028
 20
4.465148
  0
VERTEX
  8
FOREGROUND
  6
CONTINUOUS
 10
10.994885
 20
4.526055
  0
VERTEX
  8
FOREGROUND
  6
CONTINUOUS
 10
11.004178
 20
4.587379
  0
VERTEX
  8
FOREGROUND
  6
CONTINUOUS
 10
11.012903
 20
4.649121
  0
VERTEX
  8
FOREGROUND
  6
CONTINUOUS
 10
11.021057
 20
4.711279
  0
VERTEX
  8
FOREGROUND
  6
CONTINUOUS
 10
11.028637
 20
4.773855
  0
VERTEX
  8
FOREGROUND
  6
CONTINUOUS
 10
11.035637
 20
4.836848
  0
VERTEX
  8
FOREGROUND
  6
CONTINUOUS
 10
11.042055
 20
4.900259
  0
VERTEX
  8
FOREGROUND
  6
CONTINUOUS
 10
11.047886
 20
4.964087
  0
VERTEX
  8
FOREGROUND
  6
CONTINUOUS
 10
11.053126
 20
5.028331
  0
VERTEX
  8
FOREGROUND
  6
CONTINUOUS
 10
11.057772
 20
5.092994
  0
VERTEX
  8
FOREGROUND
  6
CONTINUOUS
 10
11.061821
 20
5.158073
  0
VERTEX
  8
FOREGROUND
  6
CONTINUOUS
 10
11.065267
 20
5.223570
  0
VERTEX
  8
FOREGROUND
  6
CONTINUOUS
 10
11.068107
 20
5.289484
  0
VERTEX
  8
FOREGROUND
  6
CONTINUOUS
 10
11.070338
 20
5.355815
  0
VERTEX
  8
FOREGROUND
  6
CONTINUOUS
 10
11.071955
 20
5.422564
  0
VERTEX
  8
FOREGROUND
  6
CONTINUOUS
 10
11.072955
 20
5.489730
  0
VERTEX
  8
FOREGROUND
  6
CONTINUOUS
 10
11.073333
 20
5.557313
  0
SEQEND
  8
0
  0
ENDSEC
  0
EOF
