  0
SECTION
  2
HEADER
  9
$ACADVER
  1
AC1006
  9
$EXTMIN
 10
0.000000
 20
0.000000
  9
$EXTMAX
 10
11.833333
 20
11.831667
  9
$LTSCALE
 40
0.166667
  9
$PDMODE
 70
    35
  9
$PDSIZE
 40
0.133333
  0
ENDSEC
  0
SECTION
  2
TABLES
  0
TABLE
  2
LTYPE
 70
     9
  0
LTYPE
  2
CONTINUOUS
 70
    64
  3
Solid line
 72
    65
 73
     0
 40
0.000000
  0
LTYPE
  2
DASHED
 70
    64
  3
__ __ __ __ __ __ __ __ __ __ __ __ __ __ __
 72
    65
 73
     2
 40
0.001250
 49
0.000833
 49
-0.000417
  0
LTYPE
  2
HIDDEN
 70
    64
  3
 _ _ _ _ _ _ _ _ _ _ _ _ _ _ _ _ _ _ _ _ _ _
 72
    65
 73
     2
 40
0.000625
 49
0.000417
 49
-0.000208
  0
LTYPE
  2
CENTER
 70
    64
  3
____ _ ____ _ ____ _ ____ _ ____ _ ____ _ ____
 72
    65
 73
     4
 40
0.003333
 49
0.002083
 49
-0.000417
 49
0.000417
 49
-0.000417
  0
LTYPE
  2
PHANTOM
 70
    64
  3
_____ _ _ _____ _ _ _____ _ _ _____ _ _ ____
 72
    65
 73
     6
 40
0.004167
 49
0.002083
 49
-0.000417
 49
0.000417
 49
-0.000417
 49
0.000417
 49
-0.000417
  0
LTYPE
  2
DOT
 70
    64
  3
...............................................
 72
    65
 73
     2
 40
0.000417
 49
0.000000
 49
-0.000417
  0
LTYPE
  2
DASHDOT
 70
    64
  3
__ . __ . __ . __ . __ . __ . __ . __ . __ . __
 72
    65
 73
     4
 40
0.001667
 49
0.000833
 49
-0.000417
 49
0.000000
 49
-0.000417
  0
LTYPE
  2
BORDER
 70
    64
  3
__ __ . __ __ . __ __ . __ __ . __ __ . __ __
 72
    65
 73
     6
 40
0.002917
 49
0.000833
 49
-0.000417
 49
0.000833
 49
-0.000417
 49
0.000000
 49
-0.000417
  0
LTYPE
  2
DIVIDE
 70
    64
  3
__ . . __ . . __ . . __ . . __ . . __ . . __
 72
    65
 73
     6
 40
0.002083
 49
0.000833
 49
-0.000417
 49
0.000000
 49
-0.000417
 49
0.000000
 49
-0.000417
  0
LTYPE
  2
DOTDOT
 70
    64
  3
 . .  . .  . .  . .  . .  . . 
 72
    65
 73
     5
 40
0.000917
 49
-0.000417
 49
0.000000
 49
-0.000417
 49
0.000000
 49
-0.000417
  0
ENDTAB
  0
TABLE
  2
STYLE
 70
     2
  0
STYLE
 70
     0
  2
SN0
 40
0.000000
 41
0.001667
 50
0.000000
 71
     0
 42
0.000000
  3
ROMAND
  0
STYLE
 70
    68
  2
SV0
 40
0.000000
 41
0.001667
 50
0.000000
 71
     0
 42
0.000000
  3
ROMAND
  0
ENDTAB
  0
TABLE
  2
LAYER
 70
     2
  0
LAYER
  2
FOREGROUND
 70
    64
 62
     7
  6
CONTINUOUS
  0
LAYER
  2
BACKGROUND
 70
    65
 62
    -7
  6
CONTINUOUS
  0
ENDTAB
  0
ENDSEC
  0
SECTION
  2
ENTITIES
  0
POLYLINE
  8
FOREGROUND
  6
CONTINUOUS
 66
     1
 40
0.010000
 41
0.010000
 70
     1
  0
VERTEX
  8
FOREGROUND
  6
CONTINUOUS
 10
11.783333
 20
5.916667
  0
VERTEX
  8
FOREGROUND
  6
CONTINUOUS
 10
11.782944
 20
5.988626
  0
VERTEX
  8
FOREGROUND
  6
CONTINUOUS
 10
11.781893
 20
6.060141
  0
VERTEX
  8
FOREGROUND
  6
CONTINUOUS
 10
11.780185
 20
6.131212
  0
VERTEX
  8
FOREGROUND
  6
CONTINUOUS
 10
11.777824
 20
6.201838
  0
VERTEX
  8
FOREGROUND
  6
CONTINUOUS
 10
11.774814
 20
6.272021
  0
VERTEX
  8
FOREGROUND
  6
CONTINUOUS
 10
11.771159
 20
6.341759
  0
VERTEX
  8
FOREGROUND
  6
CONTINUOUS
 10
11.766863
 20
6.411053
  0
VERTEX
  8
FOREGROUND
  6
CONTINUOUS
 10
11.761930
 20
6.479903
  0
VERTEX
  8
FOREGROUND
  6
CONTINUOUS
 10
11.756365
 20
6.548309
  0
VERTEX
  8
FOREGROUND
  6
CONTINUOUS
 10
11.750171
 20
6.616271
  0
VERTEX
  8
FOREGROUND
  6
CONTINUOUS
 10
11.743353
 20
6.683789
  0
VERTEX
  8
FOREGROUND
  6
CONTINUOUS
 10
11.735914
 20
6.750862
  0
VERTEX
  8
FOREGROUND
  6
CONTINUOUS
 10
11.727859
 20
6.817491
  0
VERTEX
  8
FOREGROUND
  6
CONTINUOUS
 10
11.719192
 20
6.883676
  0
VERTEX
  8
FOREGROUND
  6
CONTINUOUS
 10
11.709916
 20
6.949417
  0
VERTEX
  8
FOREGROUND
  6
CONTINUOUS
 10
11.700037
 20
7.014714
  0
VERTEX
  8
FOREGROUND
  6
CONTINUOUS
 10
11.689558
 20
7.079566
  0
VERTEX
  8
FOREGROUND
  6
CONTINUOUS
 10
11.678483
 20
7.143975
  0
VERTEX
  8
FOREGROUND
  6
CONTINUOUS
 10
11.666817
 20
7.207939
  0
VERTEX
  8
FOREGROUND
  6
CONTINUOUS
 10
11.654562
 20
7.271459
  0
VERTEX
  8
FOREGROUND
  6
CONTINUOUS
 10
11.641725
 20
7.334535
  0
VERTEX
  8
FOREGROUND
  6
CONTINUOUS
 10
11.628308
 20
7.397167
  0
VERTEX
  8
FOREGROUND
  6
CONTINUOUS
 10
11.614315
 20
7.459354
  0
VERTEX
  8
FOREGROUND
  6
CONTINUOUS
 10
11.599751
 20
7.521098
  0
VERTEX
  8
FOREGROUND
  6
CONTINUOUS
 10
11.584621
 20
7.582397
  0
VERTEX
  8
FOREGROUND
  6
CONTINUOUS
 10
11.568927
 20
7.643252
  0
VERTEX
  8
FOREGROUND
  6
CONTINUOUS
 10
11.552674
 20
7.703663
  0
VERTEX
  8
FOREGROUND
  6
CONTINUOUS
 10
11.535866
 20
7.763630
  0
VERTEX
  8
FOREGROUND
  6
CONTINUOUS
 10
11.518508
 20
7.823152
  0
VERTEX
  8
FOREGROUND
  6
CONTINUOUS
 10
11.500603
 20
7.882231
  0
VERTEX
  8
FOREGROUND
  6
CONTINUOUS
 10
11.482155
 20
7.940865
  0
VERTEX
  8
FOREGROUND
  6
CONTINUOUS
 10
11.463169
 20
7.999055
  0
VERTEX
  8
FOREGROUND
  6
CONTINUOUS
 10
11.443648
 20
8.056801
  0
VERTEX
  8
FOREGROUND
  6
CONTINUOUS
 10
11.423598
 20
8.114103
  0
VERTEX
  8
FOREGROUND
  6
CONTINUOUS
 10
11.403021
 20
8.170960
  0
VERTEX
  8
FOREGROUND
  6
CONTINUOUS
 10
11.381922
 20
8.227374
  0
VERTEX
  8
FOREGROUND
  6
CONTINUOUS
 10
11.360305
 20
8.283343
  0
VERTEX
  8
FOREGROUND
  6
CONTINUOUS
 10
11.338174
 20
8.338868
  0
VERTEX
  8
FOREGROUND
  6
CONTINUOUS
 10
11.315533
 20
8.393949
  0
VERTEX
  8
FOREGROUND
  6
CONTINUOUS
 10
11.292386
 20
8.448585
  0
VERTEX
  8
FOREGROUND
  6
CONTINUOUS
 10
11.268738
 20
8.502778
  0
VERTEX
  8
FOREGROUND
  6
CONTINUOUS
 10
11.244593
 20
8.556526
  0
VERTEX
  8
FOREGROUND
  6
CONTINUOUS
 10
11.219954
 20
8.609831
  0
VERTEX
  8
FOREGROUND
  6
CONTINUOUS
 10
11.194825
 20
8.662691
  0
VERTEX
  8
FOREGROUND
  6
CONTINUOUS
 10
11.169212
 20
8.715106
  0
VERTEX
  8
FOREGROUND
  6
CONTINUOUS
 10
11.143117
 20
8.767078
  0
VERTEX
  8
FOREGROUND
  6
CONTINUOUS
 10
11.116545
 20
8.818606
  0
VERTEX
  8
FOREGROUND
  6
CONTINUOUS
 10
11.089500
 20
8.869689
  0
VERTEX
  8
FOREGROUND
  6
CONTINUOUS
 10
11.061987
 20
8.920328
  0
VERTEX
  8
FOREGROUND
  6
CONTINUOUS
 10
11.034008
 20
8.970523
  0
VERTEX
  8
FOREGROUND
  6
CONTINUOUS
 10
11.005569
 20
9.020274
  0
VERTEX
  8
FOREGROUND
  6
CONTINUOUS
 10
10.976673
 20
9.069581
  0
VERTEX
  8
FOREGROUND
  6
CONTINUOUS
 10
10.947325
 20
9.118443
  0
VERTEX
  8
FOREGROUND
  6
CONTINUOUS
 10
10.917529
 20
9.166862
  0
VERTEX
  8
FOREGROUND
  6
CONTINUOUS
 10
10.887288
 20
9.214836
  0
VERTEX
  8
FOREGROUND
  6
CONTINUOUS
 10
10.856607
 20
9.262366
  0
VERTEX
  8
FOREGROUND
  6
CONTINUOUS
 10
10.825490
 20
9.309452
  0
VERTEX
  8
FOREGROUND
  6
CONTINUOUS
 10
10.793941
 20
9.356093
  0
VERTEX
  8
FOREGROUND
  6
CONTINUOUS
 10
10.761964
 20
9.402291
  0
VERTEX
  8
FOREGROUND
  6
CONTINUOUS
 10
10.729563
 20
9.448044
  0
VERTEX
  8
FOREGROUND
  6
CONTINUOUS
 10
10.696742
 20
9.493353
  0
VERTEX
  8
FOREGROUND
  6
CONTINUOUS
 10
10.663506
 20
9.538218
  0
VERTEX
  8
FOREGROUND
  6
CONTINUOUS
 10
10.629858
 20
9.582639
  0
VERTEX
  8
FOREGROUND
  6
CONTINUOUS
 10
10.595803
 20
9.626616
  0
VERTEX
  8
FOREGROUND
  6
CONTINUOUS
 10
10.561344
 20
9.670148
  0
VERTEX
  8
FOREGROUND
  6
CONTINUOUS
 10
10.526486
 20
9.713236
  0
VERTEX
  8
FOREGROUND
  6
CONTINUOUS
 10
10.491233
 20
9.755880
  0
VERTEX
  8
FOREGROUND
  6
CONTINUOUS
 10
10.455589
 20
9.798080
  0
VERTEX
  8
FOREGROUND
  6
CONTINUOUS
 10
10.419558
 20
9.839836
  0
VERTEX
  8
FOREGROUND
  6
CONTINUOUS
 10
10.383145
 20
9.881148
  0
VERTEX
  8
FOREGROUND
  6
CONTINUOUS
 10
10.346352
 20
9.922015
  0
VERTEX
  8
FOREGROUND
  6
CONTINUOUS
 10
10.309185
 20
9.962438
  0
VERTEX
  8
FOREGROUND
  6
CONTINUOUS
 10
10.271647
 20
10.002417
  0
VERTEX
  8
FOREGROUND
  6
CONTINUOUS
 10
10.233742
 20
10.041952
  0
VERTEX
  8
FOREGROUND
  6
CONTINUOUS
 10
10.195475
 20
10.081043
  0
VERTEX
  8
FOREGROUND
  6
CONTINUOUS
 10
10.156850
 20
10.119689
  0
VERTEX
  8
FOREGROUND
  6
CONTINUOUS
 10
10.117871
 20
10.157892
  0
VERTEX
  8
FOREGROUND
  6
CONTINUOUS
 10
10.078542
 20
10.195650
  0
VERTEX
  8
FOREGROUND
  6
CONTINUOUS
 10
10.038866
 20
10.232964
  0
VERTEX
  8
FOREGROUND
  6
CONTINUOUS
 10
9.998849
 20
10.269834
  0
VERTEX
  8
FOREGROUND
  6
CONTINUOUS
 10
9.958493
 20
10.306259
  0
VERTEX
  8
FOREGROUND
  6
CONTINUOUS
 10
9.917804
 20
10.342241
  0
VERTEX
  8
FOREGROUND
  6
CONTINUOUS
 10
9.876786
 20
10.377778
  0
VERTEX
  8
FOREGROUND
  6
CONTINUOUS
 10
9.835442
 20
10.412871
  0
VERTEX
  8
FOREGROUND
  6
CONTINUOUS
 10
9.793776
 20
10.447520
  0
VERTEX
  8
FOREGROUND
  6
CONTINUOUS
 10
9.751793
 20
10.481725
  0
VERTEX
  8
FOREGROUND
  6
CONTINUOUS
 10
9.709497
 20
10.515485
  0
VERTEX
  8
FOREGROUND
  6
CONTINUOUS
 10
9.666891
 20
10.548802
  0
VERTEX
  8
FOREGROUND
  6
CONTINUOUS
 10
9.623981
 20
10.581674
  0
VERTEX
  8
FOREGROUND
  6
CONTINUOUS
 10
9.580770
 20
10.614102
  0
VERTEX
  8
FOREGROUND
  6
CONTINUOUS
 10
9.537261
 20
10.646086
  0
VERTEX
  8
FOREGROUND
  6
CONTINUOUS
 10
9.493460
 20
10.677626
  0
VERTEX
  8
FOREGROUND
  6
CONTINUOUS
 10
9.449370
 20
10.708721
  0
VERTEX
  8
FOREGROUND
  6
CONTINUOUS
 10
9.404996
 20
10.739372
  0
VERTEX
  8
FOREGROUND
  6
CONTINUOUS
 10
9.360341
 20
10.769580
  0
VERTEX
  8
FOREGROUND
  6
CONTINUOUS
 10
9.315409
 20
10.799343
  0
VERTEX
  8
FOREGROUND
  6
CONTINUOUS
 10
9.270206
 20
10.828661
  0
VERTEX
  8
FOREGROUND
  6
CONTINUOUS
 10
9.224734
 20
10.857536
  0
VERTEX
  8
FOREGROUND
  6
CONTINUOUS
 10
9.178998
 20
10.885966
  0
VERTEX
  8
FOREGROUND
  6
CONTINUOUS
 10
9.133002
 20
10.913953
  0
VERTEX
  8
FOREGROUND
  6
CONTINUOUS
 10
9.086750
 20
10.941495
  0
VERTEX
  8
FOREGROUND
  6
CONTINUOUS
 10
9.040246
 20
10.968593
  0
VERTEX
  8
FOREGROUND
  6
CONTINUOUS
 10
8.993494
 20
10.995246
  0
VERTEX
  8
FOREGROUND
  6
CONTINUOUS
 10
8.946499
 20
11.021456
  0
VERTEX
  8
FOREGROUND
  6
CONTINUOUS
 10
8.899264
 20
11.047221
  0
VERTEX
  8
FOREGROUND
  6
CONTINUOUS
 10
8.851794
 20
11.072542
  0
VERTEX
  8
FOREGROUND
  6
CONTINUOUS
 10
8.804093
 20
11.097419
  0
VERTEX
  8
FOREGROUND
  6
CONTINUOUS
 10
8.756164
 20
11.121852
  0
VERTEX
  8
FOREGROUND
  6
CONTINUOUS
 10
8.708012
 20
11.145841
  0
VERTEX
  8
FOREGROUND
  6
CONTINUOUS
 10
8.659640
 20
11.169385
  0
VERTEX
  8
FOREGROUND
  6
CONTINUOUS
 10
8.611054
 20
11.192485
  0
VERTEX
  8
FOREGROUND
  6
CONTINUOUS
 10
8.562257
 20
11.215141
  0
VERTEX
  8
FOREGROUND
  6
CONTINUOUS
 10
8.513253
 20
11.237353
  0
VERTEX
  8
FOREGROUND
  6
CONTINUOUS
 10
8.464047
 20
11.259121
  0
VERTEX
  8
FOREGROUND
  6
CONTINUOUS
 10
8.414642
 20
11.280444
  0
VERTEX
  8
FOREGROUND
  6
CONTINUOUS
 10
8.365042
 20
11.301324
  0
VERTEX
  8
FOREGROUND
  6
CONTINUOUS
 10
8.315252
 20
11.321759
  0
VERTEX
  8
FOREGROUND
  6
CONTINUOUS
 10
8.265275
 20
11.341750
  0
VERTEX
  8
FOREGROUND
  6
CONTINUOUS
 10
8.215117
 20
11.361297
  0
VERTEX
  8
FOREGROUND
  6
CONTINUOUS
 10
8.164780
 20
11.380399
  0
VERTEX
  8
FOREGROUND
  6
CONTINUOUS
 10
8.114269
 20
11.399058
  0
VERTEX
  8
FOREGROUND
  6
CONTINUOUS
 10
8.063588
 20
11.417272
  0
VERTEX
  8
FOREGROUND
  6
CONTINUOUS
 10
8.012741
 20
11.435042
  0
VERTEX
  8
FOREGROUND
  6
CONTINUOUS
 10
7.961733
 20
11.452368
  0
VERTEX
  8
FOREGROUND
  6
CONTINUOUS
 10
7.910567
 20
11.469250
  0
VERTEX
  8
FOREGROUND
  6
CONTINUOUS
 10
7.859247
 20
11.485687
  0
VERTEX
  8
FOREGROUND
  6
CONTINUOUS
 10
7.807778
 20
11.501680
  0
VERTEX
  8
FOREGROUND
  6
CONTINUOUS
 10
7.756163
 20
11.517229
  0
VERTEX
  8
FOREGROUND
  6
CONTINUOUS
 10
7.704408
 20
11.532334
  0
VERTEX
  8
FOREGROUND
  6
CONTINUOUS
 10
7.652515
 20
11.546995
  0
VERTEX
  8
FOREGROUND
  6
CONTINUOUS
 10
7.600489
 20
11.561212
  0
VERTEX
  8
FOREGROUND
  6
CONTINUOUS
 10
7.548333
 20
11.574984
  0
VERTEX
  8
FOREGROUND
  6
CONTINUOUS
 10
7.496053
 20
11.588312
  0
VERTEX
  8
FOREGROUND
  6
CONTINUOUS
 10
7.443653
 20
11.601196
  0
VERTEX
  8
FOREGROUND
  6
CONTINUOUS
 10
7.391135
 20
11.613636
  0
VERTEX
  8
FOREGROUND
  6
CONTINUOUS
 10
7.338505
 20
11.625632
  0
VERTEX
  8
FOREGROUND
  6
CONTINUOUS
 10
7.285766
 20
11.637183
  0
VERTEX
  8
FOREGROUND
  6
CONTINUOUS
 10
7.232923
 20
11.648290
  0
VERTEX
  8
FOREGROUND
  6
CONTINUOUS
 10
7.179979
 20
11.658953
  0
VERTEX
  8
FOREGROUND
  6
CONTINUOUS
 10
7.126940
 20
11.669172
  0
VERTEX
  8
FOREGROUND
  6
CONTINUOUS
 10
7.073808
 20
11.678947
  0
VERTEX
  8
FOREGROUND
  6
CONTINUOUS
 10
7.020588
 20
11.688278
  0
VERTEX
  8
FOREGROUND
  6
CONTINUOUS
 10
6.967284
 20
11.697164
  0
VERTEX
  8
FOREGROUND
  6
CONTINUOUS
 10
6.913900
 20
11.705606
  0
VERTEX
  8
FOREGROUND
  6
CONTINUOUS
 10
6.860441
 20
11.713604
  0
VERTEX
  8
FOREGROUND
  6
CONTINUOUS
 10
6.806909
 20
11.721158
  0
VERTEX
  8
FOREGROUND
  6
CONTINUOUS
 10
6.753311
 20
11.728267
  0
VERTEX
  8
FOREGROUND
  6
CONTINUOUS
 10
6.699648
 20
11.734933
  0
VERTEX
  8
FOREGROUND
  6
CONTINUOUS
 10
6.645927
 20
11.741154
  0
VERTEX
  8
FOREGROUND
  6
CONTINUOUS
 10
6.592150
 20
11.746931
  0
VERTEX
  8
FOREGROUND
  6
CONTINUOUS
 10
6.538322
 20
11.752264
  0
VERTEX
  8
FOREGROUND
  6
CONTINUOUS
 10
6.484446
 20
11.757152
  0
VERTEX
  8
FOREGROUND
  6
CONTINUOUS
 10
6.430528
 20
11.761597
  0
VERTEX
  8
FOREGROUND
  6
CONTINUOUS
 10
6.376571
 20
11.765597
  0
VERTEX
  8
FOREGROUND
  6
CONTINUOUS
 10
6.322579
 20
11.769153
  0
VERTEX
  8
FOREGROUND
  6
CONTINUOUS
 10
6.268556
 20
11.772265
  0
VERTEX
  8
FOREGROUND
  6
CONTINUOUS
 10
6.214506
 20
11.774932
  0
VERTEX
  8
FOREGROUND
  6
CONTINUOUS
 10
6.160434
 20
11.777156
  0
VERTEX
  8
FOREGROUND
  6
CONTINUOUS
 10
6.106344
 20
11.778935
  0
VERTEX
  8
FOREGROUND
  6
CONTINUOUS
 10
6.052239
 20
11.780270
  0
VERTEX
  8
FOREGROUND
  6
CONTINUOUS
 10
5.998124
 20
11.781161
  0
VERTEX
  8
FOREGROUND
  6
CONTINUOUS
 10
5.944003
 20
11.781608
  0
VERTEX
  8
FOREGROUND
  6
CONTINUOUS
 10
5.889880
 20
11.781610
  0
VERTEX
  8
FOREGROUND
  6
CONTINUOUS
 10
5.835759
 20
11.781169
  0
VERTEX
  8
FOREGROUND
  6
CONTINUOUS
 10
5.781643
 20
11.780283
  0
VERTEX
  8
FOREGROUND
  6
CONTINUOUS
 10
5.727539
 20
11.778953
  0
VERTEX
  8
FOREGROUND
  6
CONTINUOUS
 10
5.673448
 20
11.777178
  0
VERTEX
  8
FOREGROUND
  6
CONTINUOUS
 10
5.619376
 20
11.774960
  0
VERTEX
  8
FOREGROUND
  6
CONTINUOUS
 10
5.565326
 20
11.772297
  0
VERTEX
  8
FOREGROUND
  6
CONTINUOUS
 10
5.511303
 20
11.769190
  0
VERTEX
  8
FOREGROUND
  6
CONTINUOUS
 10
5.457311
 20
11.765639
  0
VERTEX
  8
FOREGROUND
  6
CONTINUOUS
 10
5.403353
 20
11.761644
  0
VERTEX
  8
FOREGROUND
  6
CONTINUOUS
 10
5.349434
 20
11.757205
  0
VERTEX
  8
FOREGROUND
  6
CONTINUOUS
 10
5.295559
 20
11.752321
  0
VERTEX
  8
FOREGROUND
  6
CONTINUOUS
 10
5.241730
 20
11.746993
  0
VERTEX
  8
FOREGROUND
  6
CONTINUOUS
 10
5.187952
 20
11.741221
  0
VERTEX
  8
FOREGROUND
  6
CONTINUOUS
 10
5.134230
 20
11.735005
  0
VERTEX
  8
FOREGROUND
  6
CONTINUOUS
 10
5.080567
 20
11.728345
  0
VERTEX
  8
FOREGROUND
  6
CONTINUOUS
 10
5.026968
 20
11.721240
  0
VERTEX
  8
FOREGROUND
  6
CONTINUOUS
 10
4.973436
 20
11.713691
  0
VERTEX
  8
FOREGROUND
  6
CONTINUOUS
 10
4.919975
 20
11.705698
  0
VERTEX
  8
FOREGROUND
  6
CONTINUOUS
 10
4.866591
 20
11.697261
  0
VERTEX
  8
FOREGROUND
  6
CONTINUOUS
 10
4.813286
 20
11.688380
  0
VERTEX
  8
FOREGROUND
  6
CONTINUOUS
 10
4.760065
 20
11.679054
  0
VERTEX
  8
FOREGROUND
  6
CONTINUOUS
 10
4.706933
 20
11.669284
  0
VERTEX
  8
FOREGROUND
  6
CONTINUOUS
 10
4.653892
 20
11.659070
  0
VERTEX
  8
FOREGROUND
  6
CONTINUOUS
 10
4.600947
 20
11.648412
  0
VERTEX
  8
FOREGROUND
  6
CONTINUOUS
 10
4.548103
 20
11.637310
  0
VERTEX
  8
FOREGROUND
  6
CONTINUOUS
 10
4.495363
 20
11.625763
  0
VERTEX
  8
FOREGROUND
  6
CONTINUOUS
 10
4.442732
 20
11.613773
  0
VERTEX
  8
FOREGROUND
  6
CONTINUOUS
 10
4.390213
 20
11.601338
  0
VERTEX
  8
FOREGROUND
  6
CONTINUOUS
 10
4.337811
 20
11.588459
  0
VERTEX
  8
FOREGROUND
  6
CONTINUOUS
 10
4.285530
 20
11.575135
  0
VERTEX
  8
FOREGROUND
  6
CONTINUOUS
 10
4.233374
 20
11.561368
  0
VERTEX
  8
FOREGROUND
  6
CONTINUOUS
 10
4.181346
 20
11.547156
  0
VERTEX
  8
FOREGROUND
  6
CONTINUOUS
 10
4.129452
 20
11.532500
  0
VERTEX
  8
FOREGROUND
  6
CONTINUOUS
 10
4.077695
 20
11.517400
  0
VERTEX
  8
FOREGROUND
  6
CONTINUOUS
 10
4.026079
 20
11.501855
  0
VERTEX
  8
FOREGROUND
  6
CONTINUOUS
 10
3.974608
 20
11.485867
  0
VERTEX
  8
FOREGROUND
  6
CONTINUOUS
 10
3.923287
 20
11.469434
  0
VERTEX
  8
FOREGROUND
  6
CONTINUOUS
 10
3.872119
 20
11.452557
  0
VERTEX
  8
FOREGROUND
  6
CONTINUOUS
 10
3.821109
 20
11.435236
  0
VERTEX
  8
FOREGROUND
  6
CONTINUOUS
 10
3.770261
 20
11.417471
  0
VERTEX
  8
FOREGROUND
  6
CONTINUOUS
 10
3.719578
 20
11.399261
  0
VERTEX
  8
FOREGROUND
  6
CONTINUOUS
 10
3.669065
 20
11.380608
  0
VERTEX
  8
FOREGROUND
  6
CONTINUOUS
 10
3.618727
 20
11.361510
  0
VERTEX
  8
FOREGROUND
  6
CONTINUOUS
 10
3.568566
 20
11.341967
  0
VERTEX
  8
FOREGROUND
  6
CONTINUOUS
 10
3.518588
 20
11.321981
  0
VERTEX
  8
FOREGROUND
  6
CONTINUOUS
 10
3.468796
 20
11.301551
  0
VERTEX
  8
FOREGROUND
  6
CONTINUOUS
 10
3.419194
 20
11.280676
  0
VERTEX
  8
FOREGROUND
  6
CONTINUOUS
 10
3.369787
 20
11.259357
  0
VERTEX
  8
FOREGROUND
  6
CONTINUOUS
 10
3.320579
 20
11.237594
  0
VERTEX
  8
FOREGROUND
  6
CONTINUOUS
 10
3.271573
 20
11.215386
  0
VERTEX
  8
FOREGROUND
  6
CONTINUOUS
 10
3.222773
 20
11.192735
  0
VERTEX
  8
FOREGROUND
  6
CONTINUOUS
 10
3.174185
 20
11.169639
  0
VERTEX
  8
FOREGROUND
  6
CONTINUOUS
 10
3.125812
 20
11.146099
  0
VERTEX
  8
FOREGROUND
  6
CONTINUOUS
 10
3.077657
 20
11.122115
  0
VERTEX
  8
FOREGROUND
  6
CONTINUOUS
 10
3.029726
 20
11.097687
  0
VERTEX
  8
FOREGROUND
  6
CONTINUOUS
 10
2.982022
 20
11.072814
  0
VERTEX
  8
FOREGROUND
  6
CONTINUOUS
 10
2.934550
 20
11.047497
  0
VERTEX
  8
FOREGROUND
  6
CONTINUOUS
 10
2.887312
 20
11.021736
  0
VERTEX
  8
FOREGROUND
  6
CONTINUOUS
 10
2.840315
 20
10.995531
  0
VERTEX
  8
FOREGROUND
  6
CONTINUOUS
 10
2.793561
 20
10.968882
  0
VERTEX
  8
FOREGROUND
  6
CONTINUOUS
 10
2.747054
 20
10.941788
  0
VERTEX
  8
FOREGROUND
  6
CONTINUOUS
 10
2.700800
 20
10.914250
  0
VERTEX
  8
FOREGROUND
  6
CONTINUOUS
 10
2.654801
 20
10.886269
  0
VERTEX
  8
FOREGROUND
  6
CONTINUOUS
 10
2.609062
 20
10.857842
  0
VERTEX
  8
FOREGROUND
  6
CONTINUOUS
 10
2.563588
 20
10.828972
  0
VERTEX
  8
FOREGROUND
  6
CONTINUOUS
 10
2.518381
 20
10.799657
  0
VERTEX
  8
FOREGROUND
  6
CONTINUOUS
 10
2.473447
 20
10.769899
  0
VERTEX
  8
FOREGROUND
  6
CONTINUOUS
 10
2.428789
 20
10.739696
  0
VERTEX
  8
FOREGROUND
  6
CONTINUOUS
 10
2.384412
 20
10.709048
  0
VERTEX
  8
FOREGROUND
  6
CONTINUOUS
 10
2.340319
 20
10.677957
  0
VERTEX
  8
FOREGROUND
  6
CONTINUOUS
 10
2.296515
 20
10.646421
  0
VERTEX
  8
FOREGROUND
  6
CONTINUOUS
 10
2.253004
 20
10.614441
  0
VERTEX
  8
FOREGROUND
  6
CONTINUOUS
 10
2.209789
 20
10.582017
  0
VERTEX
  8
FOREGROUND
  6
CONTINUOUS
 10
2.166876
 20
10.549149
  0
VERTEX
  8
FOREGROUND
  6
CONTINUOUS
 10
2.124267
 20
10.515837
  0
VERTEX
  8
FOREGROUND
  6
CONTINUOUS
 10
2.081968
 20
10.482080
  0
VERTEX
  8
FOREGROUND
  6
CONTINUOUS
 10
2.039982
 20
10.447879
  0
VERTEX
  8
FOREGROUND
  6
CONTINUOUS
 10
1.998313
 20
10.413234
  0
VERTEX
  8
FOREGROUND
  6
CONTINUOUS
 10
1.956965
 20
10.378145
  0
VERTEX
  8
FOREGROUND
  6
CONTINUOUS
 10
1.915944
 20
10.342611
  0
VERTEX
  8
FOREGROUND
  6
CONTINUOUS
 10
1.875251
 20
10.306634
  0
VERTEX
  8
FOREGROUND
  6
CONTINUOUS
 10
1.834893
 20
10.270212
  0
VERTEX
  8
FOREGROUND
  6
CONTINUOUS
 10
1.794872
 20
10.233346
  0
VERTEX
  8
FOREGROUND
  6
CONTINUOUS
 10
1.755193
 20
10.196035
  0
VERTEX
  8
FOREGROUND
  6
CONTINUOUS
 10
1.715860
 20
10.158281
  0
VERTEX
  8
FOREGROUND
  6
CONTINUOUS
 10
1.676877
 20
10.120082
  0
VERTEX
  8
FOREGROUND
  6
CONTINUOUS
 10
1.638248
 20
10.081439
  0
VERTEX
  8
FOREGROUND
  6
CONTINUOUS
 10
1.599978
 20
10.042352
  0
VERTEX
  8
FOREGROUND
  6
CONTINUOUS
 10
1.562069
 20
10.002821
  0
VERTEX
  8
FOREGROUND
  6
CONTINUOUS
 10
1.524528
 20
9.962845
  0
VERTEX
  8
FOREGROUND
  6
CONTINUOUS
 10
1.487357
 20
9.922425
  0
VERTEX
  8
FOREGROUND
  6
CONTINUOUS
 10
1.450560
 20
9.881561
  0
VERTEX
  8
FOREGROUND
  6
CONTINUOUS
 10
1.414142
 20
9.840253
  0
VERTEX
  8
FOREGROUND
  6
CONTINUOUS
 10
1.378108
 20
9.798501
  0
VERTEX
  8
FOREGROUND
  6
CONTINUOUS
 10
1.342460
 20
9.756304
  0
VERTEX
  8
FOREGROUND
  6
CONTINUOUS
 10
1.307203
 20
9.713663
  0
VERTEX
  8
FOREGROUND
  6
CONTINUOUS
 10
1.272341
 20
9.670578
  0
VERTEX
  8
FOREGROUND
  6
CONTINUOUS
 10
1.237878
 20
9.627049
  0
VERTEX
  8
FOREGROUND
  6
CONTINUOUS
 10
1.203819
 20
9.583076
  0
VERTEX
  8
FOREGROUND
  6
CONTINUOUS
 10
1.170167
 20
9.538658
  0
VERTEX
  8
FOREGROUND
  6
CONTINUOUS
 10
1.136926
 20
9.493796
  0
VERTEX
  8
FOREGROUND
  6
CONTINUOUS
 10
1.104102
 20
9.448490
  0
VERTEX
  8
FOREGROUND
  6
CONTINUOUS
 10
1.071696
 20
9.402740
  0
VERTEX
  8
FOREGROUND
  6
CONTINUOUS
 10
1.039715
 20
9.356545
  0
VERTEX
  8
FOREGROUND
  6
CONTINUOUS
 10
1.008162
 20
9.309906
  0
VERTEX
  8
FOREGROUND
  6
CONTINUOUS
 10
0.977040
 20
9.262823
  0
VERTEX
  8
FOREGROUND
  6
CONTINUOUS
 10
0.946354
 20
9.215296
  0
VERTEX
  8
FOREGROUND
  6
CONTINUOUS
 10
0.916109
 20
9.167325
  0
VERTEX
  8
FOREGROUND
  6
CONTINUOUS
 10
0.886308
 20
9.118909
  0
VERTEX
  8
FOREGROUND
  6
CONTINUOUS
 10
0.856955
 20
9.070050
  0
VERTEX
  8
FOREGROUND
  6
CONTINUOUS
 10
0.828055
 20
9.020746
  0
VERTEX
  8
FOREGROUND
  6
CONTINUOUS
 10
0.799611
 20
8.970997
  0
VERTEX
  8
FOREGROUND
  6
CONTINUOUS
 10
0.771628
 20
8.920805
  0
VERTEX
  8
FOREGROUND
  6
CONTINUOUS
 10
0.744110
 20
8.870168
  0
VERTEX
  8
FOREGROUND
  6
CONTINUOUS
 10
0.717060
 20
8.819087
  0
VERTEX
  8
FOREGROUND
  6
CONTINUOUS
 10
0.690484
 20
8.767562
  0
VERTEX
  8
FOREGROUND
  6
CONTINUOUS
 10
0.664384
 20
8.715593
  0
VERTEX
  8
FOREGROUND
  6
CONTINUOUS
 10
0.638765
 20
8.663180
  0
VERTEX
  8
FOREGROUND
  6
CONTINUOUS
 10
0.613632
 20
8.610322
  0
VERTEX
  8
FOREGROUND
  6
CONTINUOUS
 10
0.588988
 20
8.557020
  0
VERTEX
  8
FOREGROUND
  6
CONTINUOUS
 10
0.564837
 20
8.503274
  0
VERTEX
  8
FOREGROUND
  6
CONTINUOUS
 10
0.541184
 20
8.449083
  0
VERTEX
  8
FOREGROUND
  6
CONTINUOUS
 10
0.518033
 20
8.394449
  0
VERTEX
  8
FOREGROUND
  6
CONTINUOUS
 10
0.495387
 20
8.339370
  0
VERTEX
  8
FOREGROUND
  6
CONTINUOUS
 10
0.473251
 20
8.283847
  0
VERTEX
  8
FOREGROUND
  6
CONTINUOUS
 10
0.451628
 20
8.227880
  0
VERTEX
  8
FOREGROUND
  6
CONTINUOUS
 10
0.430524
 20
8.171468
  0
VERTEX
  8
FOREGROUND
  6
CONTINUOUS
 10
0.409942
 20
8.114613
  0
VERTEX
  8
FOREGROUND
  6
CONTINUOUS
 10
0.389885
 20
8.057313
  0
VERTEX
  8
FOREGROUND
  6
CONTINUOUS
 10
0.370360
 20
7.999569
  0
VERTEX
  8
FOREGROUND
  6
CONTINUOUS
 10
0.351368
 20
7.941380
  0
VERTEX
  8
FOREGROUND
  6
CONTINUOUS
 10
0.332915
 20
7.882748
  0
VERTEX
  8
FOREGROUND
  6
CONTINUOUS
 10
0.315004
 20
7.823671
  0
VERTEX
  8
FOREGROUND
  6
CONTINUOUS
 10
0.297640
 20
7.764150
  0
VERTEX
  8
FOREGROUND
  6
CONTINUOUS
 10
0.280827
 20
7.704185
  0
VERTEX
  8
FOREGROUND
  6
CONTINUOUS
 10
0.264568
 20
7.643776
  0
VERTEX
  8
FOREGROUND
  6
CONTINUOUS
 10
0.248869
 20
7.582922
  0
VERTEX
  8
FOREGROUND
  6
CONTINUOUS
 10
0.233732
 20
7.521624
  0
VERTEX
  8
FOREGROUND
  6
CONTINUOUS
 10
0.219163
 20
7.459882
  0
VERTEX
  8
FOREGROUND
  6
CONTINUOUS
 10
0.205165
 20
7.397696
  0
VERTEX
  8
FOREGROUND
  6
CONTINUOUS
 10
0.191742
 20
7.335065
  0
VERTEX
  8
FOREGROUND
  6
CONTINUOUS
 10
0.178898
 20
7.271991
  0
VERTEX
  8
FOREGROUND
  6
CONTINUOUS
 10
0.166638
 20
7.208472
  0
VERTEX
  8
FOREGROUND
  6
CONTINUOUS
 10
0.154965
 20
7.144508
  0
VERTEX
  8
FOREGROUND
  6
CONTINUOUS
 10
0.143884
 20
7.080101
  0
VERTEX
  8
FOREGROUND
  6
CONTINUOUS
 10
0.133399
 20
7.015250
  0
VERTEX
  8
FOREGROUND
  6
CONTINUOUS
 10
0.123514
 20
6.949954
  0
VERTEX
  8
FOREGROUND
  6
CONTINUOUS
 10
0.114232
 20
6.884214
  0
VERTEX
  8
FOREGROUND
  6
CONTINUOUS
 10
0.105559
 20
6.818029
  0
VERTEX
  8
FOREGROUND
  6
CONTINUOUS
 10
0.097498
 20
6.751401
  0
VERTEX
  8
FOREGROUND
  6
CONTINUOUS
 10
0.090053
 20
6.684328
  0
VERTEX
  8
FOREGROUND
  6
CONTINUOUS
 10
0.083228
 20
6.616811
  0
VERTEX
  8
FOREGROUND
  6
CONTINUOUS
 10
0.077028
 20
6.548850
  0
VERTEX
  8
FOREGROUND
  6
CONTINUOUS
 10
0.071456
 20
6.480445
  0
VERTEX
  8
FOREGROUND
  6
CONTINUOUS
 10
0.066517
 20
6.411595
  0
VERTEX
  8
FOREGROUND
  6
CONTINUOUS
 10
0.062215
 20
6.342302
  0
VERTEX
  8
FOREGROUND
  6
CONTINUOUS
 10
0.058553
 20
6.272564
  0
VERTEX
  8
FOREGROUND
  6
CONTINUOUS
 10
0.055536
 20
6.202381
  0
VERTEX
  8
FOREGROUND
  6
CONTINUOUS
 10
0.053168
 20
6.131755
  0
VERTEX
  8
FOREGROUND
  6
CONTINUOUS
 10
0.051454
 20
6.060684
  0
VERTEX
  8
FOREGROUND
  6
CONTINUOUS
 10
0.050396
 20
5.989169
  0
VERTEX
  8
FOREGROUND
  6
CONTINUOUS
 10
0.050000
 20
5.917210
  0
VERTEX
  8
FOREGROUND
  6
CONTINUOUS
 10
0.050000
 20
5.917210
  0
VERTEX
  8
FOREGROUND
  6
CONTINUOUS
 10
0.050383
 20
5.845251
  0
VERTEX
  8
FOREGROUND
  6
CONTINUOUS
 10
0.051427
 20
5.773736
  0
VERTEX
  8
FOREGROUND
  6
CONTINUOUS
 10
0.053128
 20
5.702665
  0
VERTEX
  8
FOREGROUND
  6
CONTINUOUS
 10
0.055483
 20
5.632038
  0
VERTEX
  8
FOREGROUND
  6
CONTINUOUS
 10
0.058487
 20
5.561855
  0
VERTEX
  8
FOREGROUND
  6
CONTINUOUS
 10
0.062135
 20
5.492116
  0
VERTEX
  8
FOREGROUND
  6
CONTINUOUS
 10
0.066425
 20
5.422822
  0
VERTEX
  8
FOREGROUND
  6
CONTINUOUS
 10
0.071351
 20
5.353971
  0
VERTEX
  8
FOREGROUND
  6
CONTINUOUS
 10
0.076910
 20
5.285565
  0
VERTEX
  8
FOREGROUND
  6
CONTINUOUS
 10
0.083098
 20
5.217603
  0
VERTEX
  8
FOREGROUND
  6
CONTINUOUS
 10
0.089910
 20
5.150084
  0
VERTEX
  8
FOREGROUND
  6
CONTINUOUS
 10
0.097342
 20
5.083010
  0
VERTEX
  8
FOREGROUND
  6
CONTINUOUS
 10
0.105391
 20
5.016380
  0
VERTEX
  8
FOREGROUND
  6
CONTINUOUS
 10
0.114052
 20
4.950195
  0
VERTEX
  8
FOREGROUND
  6
CONTINUOUS
 10
0.123321
 20
4.884453
  0
VERTEX
  8
FOREGROUND
  6
CONTINUOUS
 10
0.133194
 20
4.819155
  0
VERTEX
  8
FOREGROUND
  6
CONTINUOUS
 10
0.143667
 20
4.754302
  0
VERTEX
  8
FOREGROUND
  6
CONTINUOUS
 10
0.154736
 20
4.689892
  0
VERTEX
  8
FOREGROUND
  6
CONTINUOUS
 10
0.166397
 20
4.625927
  0
VERTEX
  8
FOREGROUND
  6
CONTINUOUS
 10
0.178645
 20
4.562406
  0
VERTEX
  8
FOREGROUND
  6
CONTINUOUS
 10
0.191477
 20
4.499329
  0
VERTEX
  8
FOREGROUND
  6
CONTINUOUS
 10
0.204889
 20
4.436696
  0
VERTEX
  8
FOREGROUND
  6
CONTINUOUS
 10
0.218875
 20
4.374507
  0
VERTEX
  8
FOREGROUND
  6
CONTINUOUS
 10
0.233433
 20
4.312762
  0
VERTEX
  8
FOREGROUND
  6
CONTINUOUS
 10
0.248558
 20
4.251461
  0
VERTEX
  8
FOREGROUND
  6
CONTINUOUS
 10
0.264247
 20
4.190605
  0
VERTEX
  8
FOREGROUND
  6
CONTINUOUS
 10
0.280494
 20
4.130192
  0
VERTEX
  8
FOREGROUND
  6
CONTINUOUS
 10
0.297296
 20
4.070224
  0
VERTEX
  8
FOREGROUND
  6
CONTINUOUS
 10
0.314649
 20
4.010700
  0
VERTEX
  8
FOREGROUND
  6
CONTINUOUS
 10
0.332548
 20
3.951620
  0
VERTEX
  8
FOREGROUND
  6
CONTINUOUS
 10
0.350991
 20
3.892984
  0
VERTEX
  8
FOREGROUND
  6
CONTINUOUS
 10
0.369971
 20
3.834792
  0
VERTEX
  8
FOREGROUND
  6
CONTINUOUS
 10
0.389487
 20
3.777044
  0
VERTEX
  8
FOREGROUND
  6
CONTINUOUS
 10
0.409532
 20
3.719741
  0
VERTEX
  8
FOREGROUND
  6
CONTINUOUS
 10
0.430104
 20
3.662881
  0
VERTEX
  8
FOREGROUND
  6
CONTINUOUS
 10
0.451198
 20
3.606466
  0
VERTEX
  8
FOREGROUND
  6
CONTINUOUS
 10
0.472809
 20
3.550495
  0
VERTEX
  8
FOREGROUND
  6
CONTINUOUS
 10
0.494935
 20
3.494968
  0
VERTEX
  8
FOREGROUND
  6
CONTINUOUS
 10
0.517571
 20
3.439885
  0
VERTEX
  8
FOREGROUND
  6
CONTINUOUS
 10
0.540712
 20
3.385246
  0
VERTEX
  8
FOREGROUND
  6
CONTINUOUS
 10
0.564355
 20
3.331051
  0
VERTEX
  8
FOREGROUND
  6
CONTINUOUS
 10
0.588496
 20
3.277301
  0
VERTEX
  8
FOREGROUND
  6
CONTINUOUS
 10
0.613130
 20
3.223994
  0
VERTEX
  8
FOREGROUND
  6
CONTINUOUS
 10
0.638254
 20
3.171132
  0
VERTEX
  8
FOREGROUND
  6
CONTINUOUS
 10
0.663862
 20
3.118713
  0
VERTEX
  8
FOREGROUND
  6
CONTINUOUS
 10
0.689952
 20
3.066739
  0
VERTEX
  8
FOREGROUND
  6
CONTINUOUS
 10
0.716519
 20
3.015209
  0
VERTEX
  8
FOREGROUND
  6
CONTINUOUS
 10
0.743559
 20
2.964123
  0
VERTEX
  8
FOREGROUND
  6
CONTINUOUS
 10
0.771068
 20
2.913482
  0
VERTEX
  8
FOREGROUND
  6
CONTINUOUS
 10
0.799042
 20
2.863284
  0
VERTEX
  8
FOREGROUND
  6
CONTINUOUS
 10
0.827477
 20
2.813531
  0
VERTEX
  8
FOREGROUND
  6
CONTINUOUS
 10
0.856368
 20
2.764221
  0
VERTEX
  8
FOREGROUND
  6
CONTINUOUS
 10
0.885711
 20
2.715356
  0
VERTEX
  8
FOREGROUND
  6
CONTINUOUS
 10
0.915503
 20
2.666935
  0
VERTEX
  8
FOREGROUND
  6
CONTINUOUS
 10
0.945740
 20
2.618958
  0
VERTEX
  8
FOREGROUND
  6
CONTINUOUS
 10
0.976416
 20
2.571425
  0
VERTEX
  8
FOREGROUND
  6
CONTINUOUS
 10
1.007529
 20
2.524336
  0
VERTEX
  8
FOREGROUND
  6
CONTINUOUS
 10
1.039074
 20
2.477692
  0
VERTEX
  8
FOREGROUND
  6
CONTINUOUS
 10
1.071047
 20
2.431491
  0
VERTEX
  8
FOREGROUND
  6
CONTINUOUS
 10
1.103443
 20
2.385735
  0
VERTEX
  8
FOREGROUND
  6
CONTINUOUS
 10
1.136260
 20
2.340423
  0
VERTEX
  8
FOREGROUND
  6
CONTINUOUS
 10
1.169492
 20
2.295555
  0
VERTEX
  8
FOREGROUND
  6
CONTINUOUS
 10
1.203136
 20
2.251131
  0
VERTEX
  8
FOREGROUND
  6
CONTINUOUS
 10
1.237187
 20
2.207151
  0
VERTEX
  8
FOREGROUND
  6
CONTINUOUS
 10
1.271641
 20
2.163616
  0
VERTEX
  8
FOREGROUND
  6
CONTINUOUS
 10
1.306495
 20
2.120524
  0
VERTEX
  8
FOREGROUND
  6
CONTINUOUS
 10
1.341744
 20
2.077877
  0
VERTEX
  8
FOREGROUND
  6
CONTINUOUS
 10
1.377384
 20
2.035673
  0
VERTEX
  8
FOREGROUND
  6
CONTINUOUS
 10
1.413411
 20
1.993914
  0
VERTEX
  8
FOREGROUND
  6
CONTINUOUS
 10
1.449821
 20
1.952599
  0
VERTEX
  8
FOREGROUND
  6
CONTINUOUS
 10
1.486610
 20
1.911729
  0
VERTEX
  8
FOREGROUND
  6
CONTINUOUS
 10
1.523774
 20
1.871302
  0
VERTEX
  8
FOREGROUND
  6
CONTINUOUS
 10
1.561308
 20
1.831319
  0
VERTEX
  8
FOREGROUND
  6
CONTINUOUS
 10
1.599209
 20
1.791781
  0
VERTEX
  8
FOREGROUND
  6
CONTINUOUS
 10
1.637472
 20
1.752687
  0
VERTEX
  8
FOREGROUND
  6
CONTINUOUS
 10
1.676094
 20
1.714037
  0
VERTEX
  8
FOREGROUND
  6
CONTINUOUS
 10
1.715069
 20
1.675831
  0
VERTEX
  8
FOREGROUND
  6
CONTINUOUS
 10
1.754395
 20
1.638069
  0
VERTEX
  8
FOREGROUND
  6
CONTINUOUS
 10
1.794067
 20
1.600751
  0
VERTEX
  8
FOREGROUND
  6
CONTINUOUS
 10
1.834081
 20
1.563878
  0
VERTEX
  8
FOREGROUND
  6
CONTINUOUS
 10
1.874433
 20
1.527448
  0
VERTEX
  8
FOREGROUND
  6
CONTINUOUS
 10
1.915119
 20
1.491463
  0
VERTEX
  8
FOREGROUND
  6
CONTINUOUS
 10
1.956134
 20
1.455922
  0
VERTEX
  8
FOREGROUND
  6
CONTINUOUS
 10
1.997475
 20
1.420825
  0
VERTEX
  8
FOREGROUND
  6
CONTINUOUS
 10
2.039137
 20
1.386172
  0
VERTEX
  8
FOREGROUND
  6
CONTINUOUS
 10
2.081117
 20
1.351964
  0
VERTEX
  8
FOREGROUND
  6
CONTINUOUS
 10
2.123410
 20
1.318199
  0
VERTEX
  8
FOREGROUND
  6
CONTINUOUS
 10
2.166013
 20
1.284879
  0
VERTEX
  8
FOREGROUND
  6
CONTINUOUS
 10
2.208920
 20
1.252003
  0
VERTEX
  8
FOREGROUND
  6
CONTINUOUS
 10
2.252128
 20
1.219571
  0
VERTEX
  8
FOREGROUND
  6
CONTINUOUS
 10
2.295634
 20
1.187583
  0
VERTEX
  8
FOREGROUND
  6
CONTINUOUS
 10
2.339432
 20
1.156039
  0
VERTEX
  8
FOREGROUND
  6
CONTINUOUS
 10
2.383519
 20
1.124939
  0
VERTEX
  8
FOREGROUND
  6
CONTINUOUS
 10
2.427891
 20
1.094284
  0
VERTEX
  8
FOREGROUND
  6
CONTINUOUS
 10
2.472543
 20
1.064073
  0
VERTEX
  8
FOREGROUND
  6
CONTINUOUS
 10
2.517471
 20
1.034306
  0
VERTEX
  8
FOREGROUND
  6
CONTINUOUS
 10
2.562672
 20
1.004983
  0
VERTEX
  8
FOREGROUND
  6
CONTINUOUS
 10
2.608141
 20
0.976104
  0
VERTEX
  8
FOREGROUND
  6
CONTINUOUS
 10
2.653875
 20
0.947669
  0
VERTEX
  8
FOREGROUND
  6
CONTINUOUS
 10
2.699868
 20
0.919679
  0
VERTEX
  8
FOREGROUND
  6
CONTINUOUS
 10
2.746118
 20
0.892132
  0
VERTEX
  8
FOREGROUND
  6
CONTINUOUS
 10
2.792619
 20
0.865030
  0
VERTEX
  8
FOREGROUND
  6
CONTINUOUS
 10
2.839368
 20
0.838372
  0
VERTEX
  8
FOREGROUND
  6
CONTINUOUS
 10
2.886361
 20
0.812158
  0
VERTEX
  8
FOREGROUND
  6
CONTINUOUS
 10
2.933593
 20
0.786389
  0
VERTEX
  8
FOREGROUND
  6
CONTINUOUS
 10
2.981061
 20
0.761063
  0
VERTEX
  8
FOREGROUND
  6
CONTINUOUS
 10
3.028761
 20
0.736182
  0
VERTEX
  8
FOREGROUND
  6
CONTINUOUS
 10
3.076687
 20
0.711744
  0
VERTEX
  8
FOREGROUND
  6
CONTINUOUS
 10
3.124837
 20
0.687751
  0
VERTEX
  8
FOREGROUND
  6
CONTINUOUS
 10
3.173206
 20
0.664202
  0
VERTEX
  8
FOREGROUND
  6
CONTINUOUS
 10
3.221790
 20
0.641098
  0
VERTEX
  8
FOREGROUND
  6
CONTINUOUS
 10
3.270585
 20
0.618437
  0
VERTEX
  8
FOREGROUND
  6
CONTINUOUS
 10
3.319587
 20
0.596221
  0
VERTEX
  8
FOREGROUND
  6
CONTINUOUS
 10
3.368791
 20
0.574448
  0
VERTEX
  8
FOREGROUND
  6
CONTINUOUS
 10
3.418195
 20
0.553120
  0
VERTEX
  8
FOREGROUND
  6
CONTINUOUS
 10
3.467792
 20
0.532236
  0
VERTEX
  8
FOREGROUND
  6
CONTINUOUS
 10
3.517581
 20
0.511797
  0
VERTEX
  8
FOREGROUND
  6
CONTINUOUS
 10
3.567555
 20
0.491801
  0
VERTEX
  8
FOREGROUND
  6
CONTINUOUS
 10
3.617712
 20
0.472250
  0
VERTEX
  8
FOREGROUND
  6
CONTINUOUS
 10
3.668047
 20
0.453142
  0
VERTEX
  8
FOREGROUND
  6
CONTINUOUS
 10
3.718556
 20
0.434479
  0
VERTEX
  8
FOREGROUND
  6
CONTINUOUS
 10
3.769235
 20
0.416260
  0
VERTEX
  8
FOREGROUND
  6
CONTINUOUS
 10
3.820081
 20
0.398485
  0
VERTEX
  8
FOREGROUND
  6
CONTINUOUS
 10
3.871087
 20
0.381155
  0
VERTEX
  8
FOREGROUND
  6
CONTINUOUS
 10
3.922252
 20
0.364268
  0
VERTEX
  8
FOREGROUND
  6
CONTINUOUS
 10
3.973570
 20
0.347826
  0
VERTEX
  8
FOREGROUND
  6
CONTINUOUS
 10
4.025038
 20
0.331828
  0
VERTEX
  8
FOREGROUND
  6
CONTINUOUS
 10
4.076651
 20
0.316274
  0
VERTEX
  8
FOREGROUND
  6
CONTINUOUS
 10
4.128405
 20
0.301165
  0
VERTEX
  8
FOREGROUND
  6
CONTINUOUS
 10
4.180297
 20
0.286499
  0
VERTEX
  8
FOREGROUND
  6
CONTINUOUS
 10
4.232322
 20
0.272278
  0
VERTEX
  8
FOREGROUND
  6
CONTINUOUS
 10
4.284476
 20
0.258500
  0
VERTEX
  8
FOREGROUND
  6
CONTINUOUS
 10
4.336754
 20
0.245167
  0
VERTEX
  8
FOREGROUND
  6
CONTINUOUS
 10
4.389154
 20
0.232279
  0
VERTEX
  8
FOREGROUND
  6
CONTINUOUS
 10
4.441670
 20
0.219834
  0
VERTEX
  8
FOREGROUND
  6
CONTINUOUS
 10
4.494299
 20
0.207833
  0
VERTEX
  8
FOREGROUND
  6
CONTINUOUS
 10
4.547037
 20
0.196277
  0
VERTEX
  8
FOREGROUND
  6
CONTINUOUS
 10
4.599879
 20
0.185165
  0
VERTEX
  8
FOREGROUND
  6
CONTINUOUS
 10
4.652822
 20
0.174497
  0
VERTEX
  8
FOREGROUND
  6
CONTINUOUS
 10
4.705860
 20
0.164273
  0
VERTEX
  8
FOREGROUND
  6
CONTINUOUS
 10
4.758991
 20
0.154493
  0
VERTEX
  8
FOREGROUND
  6
CONTINUOUS
 10
4.812211
 20
0.145158
  0
VERTEX
  8
FOREGROUND
  6
CONTINUOUS
 10
4.865514
 20
0.136267
  0
VERTEX
  8
FOREGROUND
  6
CONTINUOUS
 10
4.918897
 20
0.127820
  0
VERTEX
  8
FOREGROUND
  6
CONTINUOUS
 10
4.972355
 20
0.119817
  0
VERTEX
  8
FOREGROUND
  6
CONTINUOUS
 10
5.025886
 20
0.112258
  0
VERTEX
  8
FOREGROUND
  6
CONTINUOUS
 10
5.079484
 20
0.105144
  0
VERTEX
  8
FOREGROUND
  6
CONTINUOUS
 10
5.133146
 20
0.098473
  0
VERTEX
  8
FOREGROUND
  6
CONTINUOUS
 10
5.186867
 20
0.092247
  0
VERTEX
  8
FOREGROUND
  6
CONTINUOUS
 10
5.240643
 20
0.086465
  0
VERTEX
  8
FOREGROUND
  6
CONTINUOUS
 10
5.294471
 20
0.081127
  0
VERTEX
  8
FOREGROUND
  6
CONTINUOUS
 10
5.348346
 20
0.076234
  0
VERTEX
  8
FOREGROUND
  6
CONTINUOUS
 10
5.402264
 20
0.071784
  0
VERTEX
  8
FOREGROUND
  6
CONTINUOUS
 10
5.456221
 20
0.067779
  0
VERTEX
  8
FOREGROUND
  6
CONTINUOUS
 10
5.510212
 20
0.064218
  0
VERTEX
  8
FOREGROUND
  6
CONTINUOUS
 10
5.564235
 20
0.061101
  0
VERTEX
  8
FOREGROUND
  6
CONTINUOUS
 10
5.618284
 20
0.058429
  0
VERTEX
  8
FOREGROUND
  6
CONTINUOUS
 10
5.672356
 20
0.056200
  0
VERTEX
  8
FOREGROUND
  6
CONTINUOUS
 10
5.726446
 20
0.054416
  0
VERTEX
  8
FOREGROUND
  6
CONTINUOUS
 10
5.780551
 20
0.053076
  0
VERTEX
  8
FOREGROUND
  6
CONTINUOUS
 10
5.834666
 20
0.052180
  0
VERTEX
  8
FOREGROUND
  6
CONTINUOUS
 10
5.888787
 20
0.051728
  0
VERTEX
  8
FOREGROUND
  6
CONTINUOUS
 10
5.942910
 20
0.051721
  0
VERTEX
  8
FOREGROUND
  6
CONTINUOUS
 10
5.997031
 20
0.052157
  0
VERTEX
  8
FOREGROUND
  6
CONTINUOUS
 10
6.051146
 20
0.053038
  0
VERTEX
  8
FOREGROUND
  6
CONTINUOUS
 10
6.105251
 20
0.054363
  0
VERTEX
  8
FOREGROUND
  6
CONTINUOUS
 10
6.159342
 20
0.056132
  0
VERTEX
  8
FOREGROUND
  6
CONTINUOUS
 10
6.213415
 20
0.058346
  0
VERTEX
  8
FOREGROUND
  6
CONTINUOUS
 10
6.267465
 20
0.061004
  0
VERTEX
  8
FOREGROUND
  6
CONTINUOUS
 10
6.321488
 20
0.064105
  0
VERTEX
  8
FOREGROUND
  6
CONTINUOUS
 10
6.375481
 20
0.067651
  0
VERTEX
  8
FOREGROUND
  6
CONTINUOUS
 10
6.429439
 20
0.071642
  0
VERTEX
  8
FOREGROUND
  6
CONTINUOUS
 10
6.483358
 20
0.076076
  0
VERTEX
  8
FOREGROUND
  6
CONTINUOUS
 10
6.537234
 20
0.080955
  0
VERTEX
  8
FOREGROUND
  6
CONTINUOUS
 10
6.591063
 20
0.086278
  0
VERTEX
  8
FOREGROUND
  6
CONTINUOUS
 10
6.644841
 20
0.092045
  0
VERTEX
  8
FOREGROUND
  6
CONTINUOUS
 10
6.698564
 20
0.098256
  0
VERTEX
  8
FOREGROUND
  6
CONTINUOUS
 10
6.752228
 20
0.104911
  0
VERTEX
  8
FOREGROUND
  6
CONTINUOUS
 10
6.805828
 20
0.112011
  0
VERTEX
  8
FOREGROUND
  6
CONTINUOUS
 10
6.859360
 20
0.119555
  0
VERTEX
  8
FOREGROUND
  6
CONTINUOUS
 10
6.912821
 20
0.127543
  0
VERTEX
  8
FOREGROUND
  6
CONTINUOUS
 10
6.966207
 20
0.135975
  0
VERTEX
  8
FOREGROUND
  6
CONTINUOUS
 10
7.019512
 20
0.144851
  0
VERTEX
  8
FOREGROUND
  6
CONTINUOUS
 10
7.072734
 20
0.154172
  0
VERTEX
  8
FOREGROUND
  6
CONTINUOUS
 10
7.125868
 20
0.163937
  0
VERTEX
  8
FOREGROUND
  6
CONTINUOUS
 10
7.178909
 20
0.174146
  0
VERTEX
  8
FOREGROUND
  6
CONTINUOUS
 10
7.231855
 20
0.184799
  0
VERTEX
  8
FOREGROUND
  6
CONTINUOUS
 10
7.284700
 20
0.195897
  0
VERTEX
  8
FOREGROUND
  6
CONTINUOUS
 10
7.337441
 20
0.207438
  0
VERTEX
  8
FOREGROUND
  6
CONTINUOUS
 10
7.390073
 20
0.219424
  0
VERTEX
  8
FOREGROUND
  6
CONTINUOUS
 10
7.442593
 20
0.231854
  0
VERTEX
  8
FOREGROUND
  6
CONTINUOUS
 10
7.494996
 20
0.244729
  0
VERTEX
  8
FOREGROUND
  6
CONTINUOUS
 10
7.547279
 20
0.258047
  0
VERTEX
  8
FOREGROUND
  6
CONTINUOUS
 10
7.599437
 20
0.271810
  0
VERTEX
  8
FOREGROUND
  6
CONTINUOUS
 10
7.651465
 20
0.286017
  0
VERTEX
  8
FOREGROUND
  6
CONTINUOUS
 10
7.703361
 20
0.300668
  0
VERTEX
  8
FOREGROUND
  6
CONTINUOUS
 10
7.755120
 20
0.315763
  0
VERTEX
  8
FOREGROUND
  6
CONTINUOUS
 10
7.806737
 20
0.331303
  0
VERTEX
  8
FOREGROUND
  6
CONTINUOUS
 10
7.858209
 20
0.347287
  0
VERTEX
  8
FOREGROUND
  6
CONTINUOUS
 10
7.909532
 20
0.363714
  0
VERTEX
  8
FOREGROUND
  6
CONTINUOUS
 10
7.960701
 20
0.380587
  0
VERTEX
  8
FOREGROUND
  6
CONTINUOUS
 10
8.011713
 20
0.397903
  0
VERTEX
  8
FOREGROUND
  6
CONTINUOUS
 10
8.062563
 20
0.415664
  0
VERTEX
  8
FOREGROUND
  6
CONTINUOUS
 10
8.113247
 20
0.433869
  0
VERTEX
  8
FOREGROUND
  6
CONTINUOUS
 10
8.163761
 20
0.452518
  0
VERTEX
  8
FOREGROUND
  6
CONTINUOUS
 10
8.214102
 20
0.471611
  0
VERTEX
  8
FOREGROUND
  6
CONTINUOUS
 10
8.264264
 20
0.491148
  0
VERTEX
  8
FOREGROUND
  6
CONTINUOUS
 10
8.314244
 20
0.511130
  0
VERTEX
  8
FOREGROUND
  6
CONTINUOUS
 10
8.364038
 20
0.531556
  0
VERTEX
  8
FOREGROUND
  6
CONTINUOUS
 10
8.413642
 20
0.552426
  0
VERTEX
  8
FOREGROUND
  6
CONTINUOUS
 10
8.463051
 20
0.573741
  0
VERTEX
  8
FOREGROUND
  6
CONTINUOUS
 10
8.512262
 20
0.595499
  0
VERTEX
  8
FOREGROUND
  6
CONTINUOUS
 10
8.561270
 20
0.617702
  0
VERTEX
  8
FOREGROUND
  6
CONTINUOUS
 10
8.610071
 20
0.640349
  0
VERTEX
  8
FOREGROUND
  6
CONTINUOUS
 10
8.658661
 20
0.663440
  0
VERTEX
  8
FOREGROUND
  6
CONTINUOUS
 10
8.707037
 20
0.686976
  0
VERTEX
  8
FOREGROUND
  6
CONTINUOUS
 10
8.755194
 20
0.710955
  0
VERTEX
  8
FOREGROUND
  6
CONTINUOUS
 10
8.803127
 20
0.735379
  0
VERTEX
  8
FOREGROUND
  6
CONTINUOUS
 10
8.850833
 20
0.760247
  0
VERTEX
  8
FOREGROUND
  6
CONTINUOUS
 10
8.898308
 20
0.785560
  0
VERTEX
  8
FOREGROUND
  6
CONTINUOUS
 10
8.945548
 20
0.811316
  0
VERTEX
  8
FOREGROUND
  6
CONTINUOUS
 10
8.992548
 20
0.837517
  0
VERTEX
  8
FOREGROUND
  6
CONTINUOUS
 10
9.039304
 20
0.864162
  0
VERTEX
  8
FOREGROUND
  6
CONTINUOUS
 10
9.085813
 20
0.891251
  0
VERTEX
  8
FOREGROUND
  6
CONTINUOUS
 10
9.132070
 20
0.918785
  0
VERTEX
  8
FOREGROUND
  6
CONTINUOUS
 10
9.178072
 20
0.946763
  0
VERTEX
  8
FOREGROUND
  6
CONTINUOUS
 10
9.223813
 20
0.975185
  0
VERTEX
  8
FOREGROUND
  6
CONTINUOUS
 10
9.269290
 20
1.004051
  0
VERTEX
  8
FOREGROUND
  6
CONTINUOUS
 10
9.314499
 20
1.033361
  0
VERTEX
  8
FOREGROUND
  6
CONTINUOUS
 10
9.359436
 20
1.063116
  0
VERTEX
  8
FOREGROUND
  6
CONTINUOUS
 10
9.404097
 20
1.093315
  0
VERTEX
  8
FOREGROUND
  6
CONTINUOUS
 10
9.448477
 20
1.123958
  0
VERTEX
  8
FOREGROUND
  6
CONTINUOUS
 10
9.492573
 20
1.155045
  0
VERTEX
  8
FOREGROUND
  6
CONTINUOUS
 10
9.536380
 20
1.186577
  0
VERTEX
  8
FOREGROUND
  6
CONTINUOUS
 10
9.579894
 20
1.218553
  0
VERTEX
  8
FOREGROUND
  6
CONTINUOUS
 10
9.623111
 20
1.250973
  0
VERTEX
  8
FOREGROUND
  6
CONTINUOUS
 10
9.666028
 20
1.283837
  0
VERTEX
  8
FOREGROUND
  6
CONTINUOUS
 10
9.708640
 20
1.317145
  0
VERTEX
  8
FOREGROUND
  6
CONTINUOUS
 10
9.750942
 20
1.350898
  0
VERTEX
  8
FOREGROUND
  6
CONTINUOUS
 10
9.792932
 20
1.385095
  0
VERTEX
  8
FOREGROUND
  6
CONTINUOUS
 10
9.834604
 20
1.419736
  0
VERTEX
  8
FOREGROUND
  6
CONTINUOUS
 10
9.875954
 20
1.454822
  0
VERTEX
  8
FOREGROUND
  6
CONTINUOUS
 10
9.916980
 20
1.490351
  0
VERTEX
  8
FOREGROUND
  6
CONTINUOUS
 10
9.957675
 20
1.526325
  0
VERTEX
  8
FOREGROUND
  6
CONTINUOUS
 10
9.998037
 20
1.562743
  0
VERTEX
  8
FOREGROUND
  6
CONTINUOUS
 10
10.038062
 20
1.599606
  0
VERTEX
  8
FOREGROUND
  6
CONTINUOUS
 10
10.077744
 20
1.636913
  0
VERTEX
  8
FOREGROUND
  6
CONTINUOUS
 10
10.117080
 20
1.674663
  0
VERTEX
  8
FOREGROUND
  6
CONTINUOUS
 10
10.156067
 20
1.712859
  0
VERTEX
  8
FOREGROUND
  6
CONTINUOUS
 10
10.194699
 20
1.751498
  0
VERTEX
  8
FOREGROUND
  6
CONTINUOUS
 10
10.232973
 20
1.790581
  0
VERTEX
  8
FOREGROUND
  6
CONTINUOUS
 10
10.270885
 20
1.830109
  0
VERTEX
  8
FOREGROUND
  6
CONTINUOUS
 10
10.308431
 20
1.870081
  0
VERTEX
  8
FOREGROUND
  6
CONTINUOUS
 10
10.345605
 20
1.910498
  0
VERTEX
  8
FOREGROUND
  6
CONTINUOUS
 10
10.382406
 20
1.951358
  0
VERTEX
  8
FOREGROUND
  6
CONTINUOUS
 10
10.418827
 20
1.992663
  0
VERTEX
  8
FOREGROUND
  6
CONTINUOUS
 10
10.454866
 20
2.034412
  0
VERTEX
  8
FOREGROUND
  6
CONTINUOUS
 10
10.490518
 20
2.076606
  0
VERTEX
  8
FOREGROUND
  6
CONTINUOUS
 10
10.525779
 20
2.119243
  0
VERTEX
  8
FOREGROUND
  6
CONTINUOUS
 10
10.560645
 20
2.162325
  0
VERTEX
  8
FOREGROUND
  6
CONTINUOUS
 10
10.595111
 20
2.205851
  0
VERTEX
  8
FOREGROUND
  6
CONTINUOUS
 10
10.629175
 20
2.249821
  0
VERTEX
  8
FOREGROUND
  6
CONTINUOUS
 10
10.662831
 20
2.294236
  0
VERTEX
  8
FOREGROUND
  6
CONTINUOUS
 10
10.696075
 20
2.339095
  0
VERTEX
  8
FOREGROUND
  6
CONTINUOUS
 10
10.728904
 20
2.384398
  0
VERTEX
  8
FOREGROUND
  6
CONTINUOUS
 10
10.761314
 20
2.430145
  0
VERTEX
  8
FOREGROUND
  6
CONTINUOUS
 10
10.793299
 20
2.476337
  0
VERTEX
  8
FOREGROUND
  6
CONTINUOUS
 10
10.824857
 20
2.522972
  0
VERTEX
  8
FOREGROUND
  6
CONTINUOUS
 10
10.855983
 20
2.570052
  0
VERTEX
  8
FOREGROUND
  6
CONTINUOUS
 10
10.886673
 20
2.617577
  0
VERTEX
  8
FOREGROUND
  6
CONTINUOUS
 10
10.916923
 20
2.665545
  0
VERTEX
  8
FOREGROUND
  6
CONTINUOUS
 10
10.946728
 20
2.713958
  0
VERTEX
  8
FOREGROUND
  6
CONTINUOUS
 10
10.976086
 20
2.762815
  0
VERTEX
  8
FOREGROUND
  6
CONTINUOUS
 10
11.004991
 20
2.812116
  0
VERTEX
  8
FOREGROUND
  6
CONTINUOUS
 10
11.033439
 20
2.861862
  0
VERTEX
  8
FOREGROUND
  6
CONTINUOUS
 10
11.061427
 20
2.912052
  0
VERTEX
  8
FOREGROUND
  6
CONTINUOUS
 10
11.088950
 20
2.962686
  0
VERTEX
  8
FOREGROUND
  6
CONTINUOUS
 10
11.116004
 20
3.013764
  0
VERTEX
  8
FOREGROUND
  6
CONTINUOUS
 10
11.142585
 20
3.065287
  0
VERTEX
  8
FOREGROUND
  6
CONTINUOUS
 10
11.168690
 20
3.117254
  0
VERTEX
  8
FOREGROUND
  6
CONTINUOUS
 10
11.194313
 20
3.169665
  0
VERTEX
  8
FOREGROUND
  6
CONTINUOUS
 10
11.219452
 20
3.222520
  0
VERTEX
  8
FOREGROUND
  6
CONTINUOUS
 10
11.244101
 20
3.275820
  0
VERTEX
  8
FOREGROUND
  6
CONTINUOUS
 10
11.268256
 20
3.329564
  0
VERTEX
  8
FOREGROUND
  6
CONTINUOUS
 10
11.291914
 20
3.383752
  0
VERTEX
  8
FOREGROUND
  6
CONTINUOUS
 10
11.315071
 20
3.438385
  0
VERTEX
  8
FOREGROUND
  6
CONTINUOUS
 10
11.337722
 20
3.493461
  0
VERTEX
  8
FOREGROUND
  6
CONTINUOUS
 10
11.359863
 20
3.548982
  0
VERTEX
  8
FOREGROUND
  6
CONTINUOUS
 10
11.381491
 20
3.604947
  0
VERTEX
  8
FOREGROUND
  6
CONTINUOUS
 10
11.402600
 20
3.661357
  0
VERTEX
  8
FOREGROUND
  6
CONTINUOUS
 10
11.423188
 20
3.718211
  0
VERTEX
  8
FOREGROUND
  6
CONTINUOUS
 10
11.443249
 20
3.775509
  0
VERTEX
  8
FOREGROUND
  6
CONTINUOUS
 10
11.462781
 20
3.833251
  0
VERTEX
  8
FOREGROUND
  6
CONTINUOUS
 10
11.481778
 20
3.891437
  0
VERTEX
  8
FOREGROUND
  6
CONTINUOUS
 10
11.500236
 20
3.950068
  0
VERTEX
  8
FOREGROUND
  6
CONTINUOUS
 10
11.518152
 20
4.009143
  0
VERTEX
  8
FOREGROUND
  6
CONTINUOUS
 10
11.535522
 20
4.068663
  0
VERTEX
  8
FOREGROUND
  6
CONTINUOUS
 10
11.552341
 20
4.128626
  0
VERTEX
  8
FOREGROUND
  6
CONTINUOUS
 10
11.568605
 20
4.189034
  0
VERTEX
  8
FOREGROUND
  6
CONTINUOUS
 10
11.584310
 20
4.249886
  0
VERTEX
  8
FOREGROUND
  6
CONTINUOUS
 10
11.599452
 20
4.311183
  0
VERTEX
  8
FOREGROUND
  6
CONTINUOUS
 10
11.614027
 20
4.372924
  0
VERTEX
  8
FOREGROUND
  6
CONTINUOUS
 10
11.628032
 20
4.435109
  0
VERTEX
  8
FOREGROUND
  6
CONTINUOUS
 10
11.641460
 20
4.497738
  0
VERTEX
  8
FOREGROUND
  6
CONTINUOUS
 10
11.654310
 20
4.560811
  0
VERTEX
  8
FOREGROUND
  6
CONTINUOUS
 10
11.666576
 20
4.624329
  0
VERTEX
  8
FOREGROUND
  6
CONTINUOUS
 10
11.678254
 20
4.688291
  0
VERTEX
  8
FOREGROUND
  6
CONTINUOUS
 10
11.689341
 20
4.752697
  0
VERTEX
  8
FOREGROUND
  6
CONTINUOUS
 10
11.699833
 20
4.817548
  0
VERTEX
  8
FOREGROUND
  6
CONTINUOUS
 10
11.709724
 20
4.882843
  0
VERTEX
  8
FOREGROUND
  6
CONTINUOUS
 10
11.719011
 20
4.948582
  0
VERTEX
  8
FOREGROUND
  6
CONTINUOUS
 10
11.727691
 20
5.014766
  0
VERTEX
  8
FOREGROUND
  6
CONTINUOUS
 10
11.735758
 20
5.081393
  0
VERTEX
  8
FOREGROUND
  6
CONTINUOUS
 10
11.743209
 20
5.148465
  0
VERTEX
  8
FOREGROUND
  6
CONTINUOUS
 10
11.750040
 20
5.215982
  0
VERTEX
  8
FOREGROUND
  6
CONTINUOUS
 10
11.756247
 20
5.283942
  0
VERTEX
  8
FOREGROUND
  6
CONTINUOUS
 10
11.761825
 20
5.352347
  0
VERTEX
  8
FOREGROUND
  6
CONTINUOUS
 10
11.766770
 20
5.421196
  0
VERTEX
  8
FOREGROUND
  6
CONTINUOUS
 10
11.771079
 20
5.490490
  0
VERTEX
  8
FOREGROUND
  6
CONTINUOUS
 10
11.774747
 20
5.560227
  0
VERTEX
  8
FOREGROUND
  6
CONTINUOUS
 10
11.777771
 20
5.630409
  0
VERTEX
  8
FOREGROUND
  6
CONTINUOUS
 10
11.780145
 20
5.701035
  0
VERTEX
  8
FOREGROUND
  6
CONTINUOUS
 10
11.781866
 20
5.772106
  0
VERTEX
  8
FOREGROUND
  6
CONTINUOUS
 10
11.782930
 20
5.843621
  0
VERTEX
  8
FOREGROUND
  6
CONTINUOUS
 10
11.783333
 20
5.915580
  0
SEQEND
  8
0
  0
ENDSEC
  0
EOF
