  0
SECTION
  2
HEADER
  9
$ACADVER
  1
AC1006
  9
$EXTMIN
 10
0.000000
 20
0.000000
  9
$EXTMAX
 10
1.681667
 20
1.678333
  9
$LTSCALE
 40
0.166667
  9
$PDMODE
 70
    35
  9
$PDSIZE
 40
0.133333
  0
ENDSEC
  0
SECTION
  2
TABLES
  0
TABLE
  2
LTYPE
 70
     9
  0
LTYPE
  2
CONTINUOUS
 70
    64
  3
Solid line
 72
    65
 73
     0
 40
0.000000
  0
LTYPE
  2
DASHED
 70
    64
  3
__ __ __ __ __ __ __ __ __ __ __ __ __ __ __
 72
    65
 73
     2
 40
0.001250
 49
0.000833
 49
-0.000417
  0
LTYPE
  2
HIDDEN
 70
    64
  3
 _ _ _ _ _ _ _ _ _ _ _ _ _ _ _ _ _ _ _ _ _ _
 72
    65
 73
     2
 40
0.000625
 49
0.000417
 49
-0.000208
  0
LTYPE
  2
CENTER
 70
    64
  3
____ _ ____ _ ____ _ ____ _ ____ _ ____ _ ____
 72
    65
 73
     4
 40
0.003333
 49
0.002083
 49
-0.000417
 49
0.000417
 49
-0.000417
  0
LTYPE
  2
PHANTOM
 70
    64
  3
_____ _ _ _____ _ _ _____ _ _ _____ _ _ ____
 72
    65
 73
     6
 40
0.004167
 49
0.002083
 49
-0.000417
 49
0.000417
 49
-0.000417
 49
0.000417
 49
-0.000417
  0
LTYPE
  2
DOT
 70
    64
  3
...............................................
 72
    65
 73
     2
 40
0.000417
 49
0.000000
 49
-0.000417
  0
LTYPE
  2
DASHDOT
 70
    64
  3
__ . __ . __ . __ . __ . __ . __ . __ . __ . __
 72
    65
 73
     4
 40
0.001667
 49
0.000833
 49
-0.000417
 49
0.000000
 49
-0.000417
  0
LTYPE
  2
BORDER
 70
    64
  3
__ __ . __ __ . __ __ . __ __ . __ __ . __ __
 72
    65
 73
     6
 40
0.002917
 49
0.000833
 49
-0.000417
 49
0.000833
 49
-0.000417
 49
0.000000
 49
-0.000417
  0
LTYPE
  2
DIVIDE
 70
    64
  3
__ . . __ . . __ . . __ . . __ . . __ . . __
 72
    65
 73
     6
 40
0.002083
 49
0.000833
 49
-0.000417
 49
0.000000
 49
-0.000417
 49
0.000000
 49
-0.000417
  0
LTYPE
  2
DOTDOT
 70
    64
  3
 . .  . .  . .  . .  . .  . . 
 72
    65
 73
     5
 40
0.000917
 49
-0.000417
 49
0.000000
 49
-0.000417
 49
0.000000
 49
-0.000417
  0
ENDTAB
  0
TABLE
  2
STYLE
 70
     2
  0
STYLE
 70
     0
  2
SN0
 40
0.000000
 41
0.001667
 50
0.000000
 71
     0
 42
0.000000
  3
ROMAND
  0
STYLE
 70
    68
  2
SV0
 40
0.000000
 41
0.001667
 50
0.000000
 71
     0
 42
0.000000
  3
ROMAND
  0
ENDTAB
  0
TABLE
  2
LAYER
 70
     2
  0
LAYER
  2
FOREGROUND
 70
    64
 62
     7
  6
CONTINUOUS
  0
LAYER
  2
BACKGROUND
 70
    65
 62
    -7
  6
CONTINUOUS
  0
ENDTAB
  0
ENDSEC
  0
SECTION
  2
ENTITIES
  0
POLYLINE
  8
FOREGROUND
  6
CONTINUOUS
 66
     1
 40
0.010000
 41
0.010000
 70
     1
  0
VERTEX
  8
FOREGROUND
  6
CONTINUOUS
 10
1.630000
 20
0.840000
  0
VERTEX
  8
FOREGROUND
  6
CONTINUOUS
 10
1.629942
 20
0.850204
  0
VERTEX
  8
FOREGROUND
  6
CONTINUOUS
 10
1.629785
 20
0.860342
  0
VERTEX
  8
FOREGROUND
  6
CONTINUOUS
 10
1.629530
 20
0.870414
  0
VERTEX
  8
FOREGROUND
  6
CONTINUOUS
 10
1.629176
 20
0.880419
  0
VERTEX
  8
FOREGROUND
  6
CONTINUOUS
 10
1.628726
 20
0.890357
  0
VERTEX
  8
FOREGROUND
  6
CONTINUOUS
 10
1.628179
 20
0.900229
  0
VERTEX
  8
FOREGROUND
  6
CONTINUOUS
 10
1.627536
 20
0.910035
  0
VERTEX
  8
FOREGROUND
  6
CONTINUOUS
 10
1.626798
 20
0.919774
  0
VERTEX
  8
FOREGROUND
  6
CONTINUOUS
 10
1.625965
 20
0.929446
  0
VERTEX
  8
FOREGROUND
  6
CONTINUOUS
 10
1.625038
 20
0.939053
  0
VERTEX
  8
FOREGROUND
  6
CONTINUOUS
 10
1.624018
 20
0.948592
  0
VERTEX
  8
FOREGROUND
  6
CONTINUOUS
 10
1.622906
 20
0.958065
  0
VERTEX
  8
FOREGROUND
  6
CONTINUOUS
 10
1.621701
 20
0.967472
  0
VERTEX
  8
FOREGROUND
  6
CONTINUOUS
 10
1.620405
 20
0.976812
  0
VERTEX
  8
FOREGROUND
  6
CONTINUOUS
 10
1.619019
 20
0.986086
  0
VERTEX
  8
FOREGROUND
  6
CONTINUOUS
 10
1.617542
 20
0.995293
  0
VERTEX
  8
FOREGROUND
  6
CONTINUOUS
 10
1.615976
 20
1.004434
  0
VERTEX
  8
FOREGROUND
  6
CONTINUOUS
 10
1.614321
 20
1.013508
  0
VERTEX
  8
FOREGROUND
  6
CONTINUOUS
 10
1.612578
 20
1.022516
  0
VERTEX
  8
FOREGROUND
  6
CONTINUOUS
 10
1.610748
 20
1.031458
  0
VERTEX
  8
FOREGROUND
  6
CONTINUOUS
 10
1.608830
 20
1.040333
  0
VERTEX
  8
FOREGROUND
  6
CONTINUOUS
 10
1.606827
 20
1.049141
  0
VERTEX
  8
FOREGROUND
  6
CONTINUOUS
 10
1.604738
 20
1.057883
  0
VERTEX
  8
FOREGROUND
  6
CONTINUOUS
 10
1.602564
 20
1.066558
  0
VERTEX
  8
FOREGROUND
  6
CONTINUOUS
 10
1.600306
 20
1.075167
  0
VERTEX
  8
FOREGROUND
  6
CONTINUOUS
 10
1.597965
 20
1.083710
  0
VERTEX
  8
FOREGROUND
  6
CONTINUOUS
 10
1.595540
 20
1.092186
  0
VERTEX
  8
FOREGROUND
  6
CONTINUOUS
 10
1.593034
 20
1.100596
  0
VERTEX
  8
FOREGROUND
  6
CONTINUOUS
 10
1.590445
 20
1.108939
  0
VERTEX
  8
FOREGROUND
  6
CONTINUOUS
 10
1.587776
 20
1.117215
  0
VERTEX
  8
FOREGROUND
  6
CONTINUOUS
 10
1.585026
 20
1.125426
  0
VERTEX
  8
FOREGROUND
  6
CONTINUOUS
 10
1.582197
 20
1.133569
  0
VERTEX
  8
FOREGROUND
  6
CONTINUOUS
 10
1.579288
 20
1.141646
  0
VERTEX
  8
FOREGROUND
  6
CONTINUOUS
 10
1.576302
 20
1.149657
  0
VERTEX
  8
FOREGROUND
  6
CONTINUOUS
 10
1.573237
 20
1.157601
  0
VERTEX
  8
FOREGROUND
  6
CONTINUOUS
 10
1.570095
 20
1.165479
  0
VERTEX
  8
FOREGROUND
  6
CONTINUOUS
 10
1.566877
 20
1.173291
  0
VERTEX
  8
FOREGROUND
  6
CONTINUOUS
 10
1.563583
 20
1.181035
  0
VERTEX
  8
FOREGROUND
  6
CONTINUOUS
 10
1.560214
 20
1.188714
  0
VERTEX
  8
FOREGROUND
  6
CONTINUOUS
 10
1.556771
 20
1.196326
  0
VERTEX
  8
FOREGROUND
  6
CONTINUOUS
 10
1.553253
 20
1.203871
  0
VERTEX
  8
FOREGROUND
  6
CONTINUOUS
 10
1.549663
 20
1.211350
  0
VERTEX
  8
FOREGROUND
  6
CONTINUOUS
 10
1.546000
 20
1.218762
  0
VERTEX
  8
FOREGROUND
  6
CONTINUOUS
 10
1.542265
 20
1.226108
  0
VERTEX
  8
FOREGROUND
  6
CONTINUOUS
 10
1.538458
 20
1.233388
  0
VERTEX
  8
FOREGROUND
  6
CONTINUOUS
 10
1.534581
 20
1.240601
  0
VERTEX
  8
FOREGROUND
  6
CONTINUOUS
 10
1.530634
 20
1.247748
  0
VERTEX
  8
FOREGROUND
  6
CONTINUOUS
 10
1.526618
 20
1.254828
  0
VERTEX
  8
FOREGROUND
  6
CONTINUOUS
 10
1.522533
 20
1.261841
  0
VERTEX
  8
FOREGROUND
  6
CONTINUOUS
 10
1.518380
 20
1.268788
  0
VERTEX
  8
FOREGROUND
  6
CONTINUOUS
 10
1.514160
 20
1.275669
  0
VERTEX
  8
FOREGROUND
  6
CONTINUOUS
 10
1.509873
 20
1.282483
  0
VERTEX
  8
FOREGROUND
  6
CONTINUOUS
 10
1.505520
 20
1.289231
  0
VERTEX
  8
FOREGROUND
  6
CONTINUOUS
 10
1.501101
 20
1.295912
  0
VERTEX
  8
FOREGROUND
  6
CONTINUOUS
 10
1.496618
 20
1.302527
  0
VERTEX
  8
FOREGROUND
  6
CONTINUOUS
 10
1.492071
 20
1.309075
  0
VERTEX
  8
FOREGROUND
  6
CONTINUOUS
 10
1.487460
 20
1.315557
  0
VERTEX
  8
FOREGROUND
  6
CONTINUOUS
 10
1.482786
 20
1.321973
  0
VERTEX
  8
FOREGROUND
  6
CONTINUOUS
 10
1.478050
 20
1.328321
  0
VERTEX
  8
FOREGROUND
  6
CONTINUOUS
 10
1.473252
 20
1.334604
  0
VERTEX
  8
FOREGROUND
  6
CONTINUOUS
 10
1.468394
 20
1.340820
  0
VERTEX
  8
FOREGROUND
  6
CONTINUOUS
 10
1.463475
 20
1.346969
  0
VERTEX
  8
FOREGROUND
  6
CONTINUOUS
 10
1.458497
 20
1.353052
  0
VERTEX
  8
FOREGROUND
  6
CONTINUOUS
 10
1.453459
 20
1.359069
  0
VERTEX
  8
FOREGROUND
  6
CONTINUOUS
 10
1.448364
 20
1.365019
  0
VERTEX
  8
FOREGROUND
  6
CONTINUOUS
 10
1.443211
 20
1.370902
  0
VERTEX
  8
FOREGROUND
  6
CONTINUOUS
 10
1.438000
 20
1.376719
  0
VERTEX
  8
FOREGROUND
  6
CONTINUOUS
 10
1.432734
 20
1.382470
  0
VERTEX
  8
FOREGROUND
  6
CONTINUOUS
 10
1.427412
 20
1.388154
  0
VERTEX
  8
FOREGROUND
  6
CONTINUOUS
 10
1.422034
 20
1.393772
  0
VERTEX
  8
FOREGROUND
  6
CONTINUOUS
 10
1.416602
 20
1.399323
  0
VERTEX
  8
FOREGROUND
  6
CONTINUOUS
 10
1.411117
 20
1.404808
  0
VERTEX
  8
FOREGROUND
  6
CONTINUOUS
 10
1.405578
 20
1.410226
  0
VERTEX
  8
FOREGROUND
  6
CONTINUOUS
 10
1.399987
 20
1.415577
  0
VERTEX
  8
FOREGROUND
  6
CONTINUOUS
 10
1.394344
 20
1.420863
  0
VERTEX
  8
FOREGROUND
  6
CONTINUOUS
 10
1.388650
 20
1.426082
  0
VERTEX
  8
FOREGROUND
  6
CONTINUOUS
 10
1.382905
 20
1.431234
  0
VERTEX
  8
FOREGROUND
  6
CONTINUOUS
 10
1.377110
 20
1.436320
  0
VERTEX
  8
FOREGROUND
  6
CONTINUOUS
 10
1.371267
 20
1.441339
  0
VERTEX
  8
FOREGROUND
  6
CONTINUOUS
 10
1.365374
 20
1.446292
  0
VERTEX
  8
FOREGROUND
  6
CONTINUOUS
 10
1.359434
 20
1.451178
  0
VERTEX
  8
FOREGROUND
  6
CONTINUOUS
 10
1.353446
 20
1.455998
  0
VERTEX
  8
FOREGROUND
  6
CONTINUOUS
 10
1.347412
 20
1.460752
  0
VERTEX
  8
FOREGROUND
  6
CONTINUOUS
 10
1.341332
 20
1.465439
  0
VERTEX
  8
FOREGROUND
  6
CONTINUOUS
 10
1.335206
 20
1.470059
  0
VERTEX
  8
FOREGROUND
  6
CONTINUOUS
 10
1.329036
 20
1.474613
  0
VERTEX
  8
FOREGROUND
  6
CONTINUOUS
 10
1.322821
 20
1.479101
  0
VERTEX
  8
FOREGROUND
  6
CONTINUOUS
 10
1.316563
 20
1.483522
  0
VERTEX
  8
FOREGROUND
  6
CONTINUOUS
 10
1.310263
 20
1.487876
  0
VERTEX
  8
FOREGROUND
  6
CONTINUOUS
 10
1.303920
 20
1.492165
  0
VERTEX
  8
FOREGROUND
  6
CONTINUOUS
 10
1.297536
 20
1.496386
  0
VERTEX
  8
FOREGROUND
  6
CONTINUOUS
 10
1.291111
 20
1.500541
  0
VERTEX
  8
FOREGROUND
  6
CONTINUOUS
 10
1.284646
 20
1.504630
  0
VERTEX
  8
FOREGROUND
  6
CONTINUOUS
 10
1.278141
 20
1.508652
  0
VERTEX
  8
FOREGROUND
  6
CONTINUOUS
 10
1.271597
 20
1.512608
  0
VERTEX
  8
FOREGROUND
  6
CONTINUOUS
 10
1.265016
 20
1.516497
  0
VERTEX
  8
FOREGROUND
  6
CONTINUOUS
 10
1.258396
 20
1.520320
  0
VERTEX
  8
FOREGROUND
  6
CONTINUOUS
 10
1.251740
 20
1.524076
  0
VERTEX
  8
FOREGROUND
  6
CONTINUOUS
 10
1.245048
 20
1.527766
  0
VERTEX
  8
FOREGROUND
  6
CONTINUOUS
 10
1.238319
 20
1.531390
  0
VERTEX
  8
FOREGROUND
  6
CONTINUOUS
 10
1.231556
 20
1.534947
  0
VERTEX
  8
FOREGROUND
  6
CONTINUOUS
 10
1.224759
 20
1.538437
  0
VERTEX
  8
FOREGROUND
  6
CONTINUOUS
 10
1.217928
 20
1.541861
  0
VERTEX
  8
FOREGROUND
  6
CONTINUOUS
 10
1.211063
 20
1.545218
  0
VERTEX
  8
FOREGROUND
  6
CONTINUOUS
 10
1.204167
 20
1.548509
  0
VERTEX
  8
FOREGROUND
  6
CONTINUOUS
 10
1.197238
 20
1.551734
  0
VERTEX
  8
FOREGROUND
  6
CONTINUOUS
 10
1.190279
 20
1.554892
  0
VERTEX
  8
FOREGROUND
  6
CONTINUOUS
 10
1.183289
 20
1.557983
  0
VERTEX
  8
FOREGROUND
  6
CONTINUOUS
 10
1.176269
 20
1.561009
  0
VERTEX
  8
FOREGROUND
  6
CONTINUOUS
 10
1.169220
 20
1.563967
  0
VERTEX
  8
FOREGROUND
  6
CONTINUOUS
 10
1.162143
 20
1.566859
  0
VERTEX
  8
FOREGROUND
  6
CONTINUOUS
 10
1.155038
 20
1.569685
  0
VERTEX
  8
FOREGROUND
  6
CONTINUOUS
 10
1.147905
 20
1.572444
  0
VERTEX
  8
FOREGROUND
  6
CONTINUOUS
 10
1.140746
 20
1.575137
  0
VERTEX
  8
FOREGROUND
  6
CONTINUOUS
 10
1.133561
 20
1.577763
  0
VERTEX
  8
FOREGROUND
  6
CONTINUOUS
 10
1.126351
 20
1.580323
  0
VERTEX
  8
FOREGROUND
  6
CONTINUOUS
 10
1.119116
 20
1.582816
  0
VERTEX
  8
FOREGROUND
  6
CONTINUOUS
 10
1.111857
 20
1.585243
  0
VERTEX
  8
FOREGROUND
  6
CONTINUOUS
 10
1.104575
 20
1.587603
  0
VERTEX
  8
FOREGROUND
  6
CONTINUOUS
 10
1.097270
 20
1.589897
  0
VERTEX
  8
FOREGROUND
  6
CONTINUOUS
 10
1.089944
 20
1.592124
  0
VERTEX
  8
FOREGROUND
  6
CONTINUOUS
 10
1.082595
 20
1.594285
  0
VERTEX
  8
FOREGROUND
  6
CONTINUOUS
 10
1.075226
 20
1.596379
  0
VERTEX
  8
FOREGROUND
  6
CONTINUOUS
 10
1.067837
 20
1.598407
  0
VERTEX
  8
FOREGROUND
  6
CONTINUOUS
 10
1.060429
 20
1.600369
  0
VERTEX
  8
FOREGROUND
  6
CONTINUOUS
 10
1.053002
 20
1.602264
  0
VERTEX
  8
FOREGROUND
  6
CONTINUOUS
 10
1.045556
 20
1.604092
  0
VERTEX
  8
FOREGROUND
  6
CONTINUOUS
 10
1.038093
 20
1.605854
  0
VERTEX
  8
FOREGROUND
  6
CONTINUOUS
 10
1.030614
 20
1.607550
  0
VERTEX
  8
FOREGROUND
  6
CONTINUOUS
 10
1.023118
 20
1.609179
  0
VERTEX
  8
FOREGROUND
  6
CONTINUOUS
 10
1.015606
 20
1.610741
  0
VERTEX
  8
FOREGROUND
  6
CONTINUOUS
 10
1.008080
 20
1.612238
  0
VERTEX
  8
FOREGROUND
  6
CONTINUOUS
 10
1.000539
 20
1.613667
  0
VERTEX
  8
FOREGROUND
  6
CONTINUOUS
 10
0.992985
 20
1.615030
  0
VERTEX
  8
FOREGROUND
  6
CONTINUOUS
 10
0.985418
 20
1.616327
  0
VERTEX
  8
FOREGROUND
  6
CONTINUOUS
 10
0.977838
 20
1.617557
  0
VERTEX
  8
FOREGROUND
  6
CONTINUOUS
 10
0.970247
 20
1.618721
  0
VERTEX
  8
FOREGROUND
  6
CONTINUOUS
 10
0.962645
 20
1.619818
  0
VERTEX
  8
FOREGROUND
  6
CONTINUOUS
 10
0.955032
 20
1.620849
  0
VERTEX
  8
FOREGROUND
  6
CONTINUOUS
 10
0.947410
 20
1.621813
  0
VERTEX
  8
FOREGROUND
  6
CONTINUOUS
 10
0.939778
 20
1.622711
  0
VERTEX
  8
FOREGROUND
  6
CONTINUOUS
 10
0.932139
 20
1.623542
  0
VERTEX
  8
FOREGROUND
  6
CONTINUOUS
 10
0.924491
 20
1.624307
  0
VERTEX
  8
FOREGROUND
  6
CONTINUOUS
 10
0.916836
 20
1.625006
  0
VERTEX
  8
FOREGROUND
  6
CONTINUOUS
 10
0.909175
 20
1.625637
  0
VERTEX
  8
FOREGROUND
  6
CONTINUOUS
 10
0.901508
 20
1.626203
  0
VERTEX
  8
FOREGROUND
  6
CONTINUOUS
 10
0.893836
 20
1.626702
  0
VERTEX
  8
FOREGROUND
  6
CONTINUOUS
 10
0.886159
 20
1.627134
  0
VERTEX
  8
FOREGROUND
  6
CONTINUOUS
 10
0.878478
 20
1.627500
  0
VERTEX
  8
FOREGROUND
  6
CONTINUOUS
 10
0.870795
 20
1.627800
  0
VERTEX
  8
FOREGROUND
  6
CONTINUOUS
 10
0.863108
 20
1.628033
  0
VERTEX
  8
FOREGROUND
  6
CONTINUOUS
 10
0.855420
 20
1.628199
  0
VERTEX
  8
FOREGROUND
  6
CONTINUOUS
 10
0.847730
 20
1.628299
  0
VERTEX
  8
FOREGROUND
  6
CONTINUOUS
 10
0.840040
 20
1.628333
  0
VERTEX
  8
FOREGROUND
  6
CONTINUOUS
 10
0.832349
 20
1.628300
  0
VERTEX
  8
FOREGROUND
  6
CONTINUOUS
 10
0.824659
 20
1.628201
  0
VERTEX
  8
FOREGROUND
  6
CONTINUOUS
 10
0.816971
 20
1.628035
  0
VERTEX
  8
FOREGROUND
  6
CONTINUOUS
 10
0.809285
 20
1.627803
  0
VERTEX
  8
FOREGROUND
  6
CONTINUOUS
 10
0.801601
 20
1.627504
  0
VERTEX
  8
FOREGROUND
  6
CONTINUOUS
 10
0.793920
 20
1.627139
  0
VERTEX
  8
FOREGROUND
  6
CONTINUOUS
 10
0.786243
 20
1.626707
  0
VERTEX
  8
FOREGROUND
  6
CONTINUOUS
 10
0.778571
 20
1.626209
  0
VERTEX
  8
FOREGROUND
  6
CONTINUOUS
 10
0.770904
 20
1.625644
  0
VERTEX
  8
FOREGROUND
  6
CONTINUOUS
 10
0.763243
 20
1.625013
  0
VERTEX
  8
FOREGROUND
  6
CONTINUOUS
 10
0.755588
 20
1.624315
  0
VERTEX
  8
FOREGROUND
  6
CONTINUOUS
 10
0.747940
 20
1.623551
  0
VERTEX
  8
FOREGROUND
  6
CONTINUOUS
 10
0.740300
 20
1.622720
  0
VERTEX
  8
FOREGROUND
  6
CONTINUOUS
 10
0.732669
 20
1.621823
  0
VERTEX
  8
FOREGROUND
  6
CONTINUOUS
 10
0.725046
 20
1.620860
  0
VERTEX
  8
FOREGROUND
  6
CONTINUOUS
 10
0.717434
 20
1.619830
  0
VERTEX
  8
FOREGROUND
  6
CONTINUOUS
 10
0.709831
 20
1.618733
  0
VERTEX
  8
FOREGROUND
  6
CONTINUOUS
 10
0.702240
 20
1.617570
  0
VERTEX
  8
FOREGROUND
  6
CONTINUOUS
 10
0.694660
 20
1.616340
  0
VERTEX
  8
FOREGROUND
  6
CONTINUOUS
 10
0.687093
 20
1.615045
  0
VERTEX
  8
FOREGROUND
  6
CONTINUOUS
 10
0.679539
 20
1.613682
  0
VERTEX
  8
FOREGROUND
  6
CONTINUOUS
 10
0.671998
 20
1.612253
  0
VERTEX
  8
FOREGROUND
  6
CONTINUOUS
 10
0.664471
 20
1.610758
  0
VERTEX
  8
FOREGROUND
  6
CONTINUOUS
 10
0.656960
 20
1.609196
  0
VERTEX
  8
FOREGROUND
  6
CONTINUOUS
 10
0.649463
 20
1.607567
  0
VERTEX
  8
FOREGROUND
  6
CONTINUOUS
 10
0.641984
 20
1.605873
  0
VERTEX
  8
FOREGROUND
  6
CONTINUOUS
 10
0.634520
 20
1.604111
  0
VERTEX
  8
FOREGROUND
  6
CONTINUOUS
 10
0.627075
 20
1.602284
  0
VERTEX
  8
FOREGROUND
  6
CONTINUOUS
 10
0.619647
 20
1.600389
  0
VERTEX
  8
FOREGROUND
  6
CONTINUOUS
 10
0.612239
 20
1.598428
  0
VERTEX
  8
FOREGROUND
  6
CONTINUOUS
 10
0.604850
 20
1.596401
  0
VERTEX
  8
FOREGROUND
  6
CONTINUOUS
 10
0.597480
 20
1.594308
  0
VERTEX
  8
FOREGROUND
  6
CONTINUOUS
 10
0.590132
 20
1.592147
  0
VERTEX
  8
FOREGROUND
  6
CONTINUOUS
 10
0.582805
 20
1.589921
  0
VERTEX
  8
FOREGROUND
  6
CONTINUOUS
 10
0.575500
 20
1.587627
  0
VERTEX
  8
FOREGROUND
  6
CONTINUOUS
 10
0.568217
 20
1.585268
  0
VERTEX
  8
FOREGROUND
  6
CONTINUOUS
 10
0.560958
 20
1.582842
  0
VERTEX
  8
FOREGROUND
  6
CONTINUOUS
 10
0.553723
 20
1.580349
  0
VERTEX
  8
FOREGROUND
  6
CONTINUOUS
 10
0.546513
 20
1.577790
  0
VERTEX
  8
FOREGROUND
  6
CONTINUOUS
 10
0.539328
 20
1.575165
  0
VERTEX
  8
FOREGROUND
  6
CONTINUOUS
 10
0.532168
 20
1.572472
  0
VERTEX
  8
FOREGROUND
  6
CONTINUOUS
 10
0.525036
 20
1.569714
  0
VERTEX
  8
FOREGROUND
  6
CONTINUOUS
 10
0.517930
 20
1.566889
  0
VERTEX
  8
FOREGROUND
  6
CONTINUOUS
 10
0.510852
 20
1.563998
  0
VERTEX
  8
FOREGROUND
  6
CONTINUOUS
 10
0.503803
 20
1.561040
  0
VERTEX
  8
FOREGROUND
  6
CONTINUOUS
 10
0.496783
 20
1.558015
  0
VERTEX
  8
FOREGROUND
  6
CONTINUOUS
 10
0.489793
 20
1.554924
  0
VERTEX
  8
FOREGROUND
  6
CONTINUOUS
 10
0.482833
 20
1.551767
  0
VERTEX
  8
FOREGROUND
  6
CONTINUOUS
 10
0.475904
 20
1.548543
  0
VERTEX
  8
FOREGROUND
  6
CONTINUOUS
 10
0.469007
 20
1.545253
  0
VERTEX
  8
FOREGROUND
  6
CONTINUOUS
 10
0.462143
 20
1.541896
  0
VERTEX
  8
FOREGROUND
  6
CONTINUOUS
 10
0.455311
 20
1.538473
  0
VERTEX
  8
FOREGROUND
  6
CONTINUOUS
 10
0.448514
 20
1.534983
  0
VERTEX
  8
FOREGROUND
  6
CONTINUOUS
 10
0.441750
 20
1.531426
  0
VERTEX
  8
FOREGROUND
  6
CONTINUOUS
 10
0.435021
 20
1.527804
  0
VERTEX
  8
FOREGROUND
  6
CONTINUOUS
 10
0.428329
 20
1.524115
  0
VERTEX
  8
FOREGROUND
  6
CONTINUOUS
 10
0.421672
 20
1.520359
  0
VERTEX
  8
FOREGROUND
  6
CONTINUOUS
 10
0.415052
 20
1.516537
  0
VERTEX
  8
FOREGROUND
  6
CONTINUOUS
 10
0.408470
 20
1.512648
  0
VERTEX
  8
FOREGROUND
  6
CONTINUOUS
 10
0.401926
 20
1.508693
  0
VERTEX
  8
FOREGROUND
  6
CONTINUOUS
 10
0.395421
 20
1.504671
  0
VERTEX
  8
FOREGROUND
  6
CONTINUOUS
 10
0.388955
 20
1.500583
  0
VERTEX
  8
FOREGROUND
  6
CONTINUOUS
 10
0.382530
 20
1.496429
  0
VERTEX
  8
FOREGROUND
  6
CONTINUOUS
 10
0.376145
 20
1.492207
  0
VERTEX
  8
FOREGROUND
  6
CONTINUOUS
 10
0.369802
 20
1.487920
  0
VERTEX
  8
FOREGROUND
  6
CONTINUOUS
 10
0.363501
 20
1.483566
  0
VERTEX
  8
FOREGROUND
  6
CONTINUOUS
 10
0.357243
 20
1.479145
  0
VERTEX
  8
FOREGROUND
  6
CONTINUOUS
 10
0.351028
 20
1.474658
  0
VERTEX
  8
FOREGROUND
  6
CONTINUOUS
 10
0.344857
 20
1.470105
  0
VERTEX
  8
FOREGROUND
  6
CONTINUOUS
 10
0.338731
 20
1.465485
  0
VERTEX
  8
FOREGROUND
  6
CONTINUOUS
 10
0.332650
 20
1.460799
  0
VERTEX
  8
FOREGROUND
  6
CONTINUOUS
 10
0.326616
 20
1.456046
  0
VERTEX
  8
FOREGROUND
  6
CONTINUOUS
 10
0.320628
 20
1.451226
  0
VERTEX
  8
FOREGROUND
  6
CONTINUOUS
 10
0.314687
 20
1.446340
  0
VERTEX
  8
FOREGROUND
  6
CONTINUOUS
 10
0.308794
 20
1.441388
  0
VERTEX
  8
FOREGROUND
  6
CONTINUOUS
 10
0.302949
 20
1.436369
  0
VERTEX
  8
FOREGROUND
  6
CONTINUOUS
 10
0.297154
 20
1.431284
  0
VERTEX
  8
FOREGROUND
  6
CONTINUOUS
 10
0.291409
 20
1.426132
  0
VERTEX
  8
FOREGROUND
  6
CONTINUOUS
 10
0.285714
 20
1.420914
  0
VERTEX
  8
FOREGROUND
  6
CONTINUOUS
 10
0.280071
 20
1.415629
  0
VERTEX
  8
FOREGROUND
  6
CONTINUOUS
 10
0.274479
 20
1.410278
  0
VERTEX
  8
FOREGROUND
  6
CONTINUOUS
 10
0.268940
 20
1.404860
  0
VERTEX
  8
FOREGROUND
  6
CONTINUOUS
 10
0.263454
 20
1.399376
  0
VERTEX
  8
FOREGROUND
  6
CONTINUOUS
 10
0.258021
 20
1.393825
  0
VERTEX
  8
FOREGROUND
  6
CONTINUOUS
 10
0.252643
 20
1.388208
  0
VERTEX
  8
FOREGROUND
  6
CONTINUOUS
 10
0.247321
 20
1.382525
  0
VERTEX
  8
FOREGROUND
  6
CONTINUOUS
 10
0.242053
 20
1.376775
  0
VERTEX
  8
FOREGROUND
  6
CONTINUOUS
 10
0.236843
 20
1.370958
  0
VERTEX
  8
FOREGROUND
  6
CONTINUOUS
 10
0.231689
 20
1.365075
  0
VERTEX
  8
FOREGROUND
  6
CONTINUOUS
 10
0.226593
 20
1.359125
  0
VERTEX
  8
FOREGROUND
  6
CONTINUOUS
 10
0.221555
 20
1.353109
  0
VERTEX
  8
FOREGROUND
  6
CONTINUOUS
 10
0.216576
 20
1.347027
  0
VERTEX
  8
FOREGROUND
  6
CONTINUOUS
 10
0.211657
 20
1.340878
  0
VERTEX
  8
FOREGROUND
  6
CONTINUOUS
 10
0.206797
 20
1.334662
  0
VERTEX
  8
FOREGROUND
  6
CONTINUOUS
 10
0.201999
 20
1.328380
  0
VERTEX
  8
FOREGROUND
  6
CONTINUOUS
 10
0.197263
 20
1.322032
  0
VERTEX
  8
FOREGROUND
  6
CONTINUOUS
 10
0.192588
 20
1.315617
  0
VERTEX
  8
FOREGROUND
  6
CONTINUOUS
 10
0.187977
 20
1.309136
  0
VERTEX
  8
FOREGROUND
  6
CONTINUOUS
 10
0.183428
 20
1.302588
  0
VERTEX
  8
FOREGROUND
  6
CONTINUOUS
 10
0.178944
 20
1.295973
  0
VERTEX
  8
FOREGROUND
  6
CONTINUOUS
 10
0.174525
 20
1.289293
  0
VERTEX
  8
FOREGROUND
  6
CONTINUOUS
 10
0.170171
 20
1.282545
  0
VERTEX
  8
FOREGROUND
  6
CONTINUOUS
 10
0.165884
 20
1.275731
  0
VERTEX
  8
FOREGROUND
  6
CONTINUOUS
 10
0.161663
 20
1.268851
  0
VERTEX
  8
FOREGROUND
  6
CONTINUOUS
 10
0.157509
 20
1.261904
  0
VERTEX
  8
FOREGROUND
  6
CONTINUOUS
 10
0.153423
 20
1.254891
  0
VERTEX
  8
FOREGROUND
  6
CONTINUOUS
 10
0.149407
 20
1.247811
  0
VERTEX
  8
FOREGROUND
  6
CONTINUOUS
 10
0.145459
 20
1.240665
  0
VERTEX
  8
FOREGROUND
  6
CONTINUOUS
 10
0.141581
 20
1.233453
  0
VERTEX
  8
FOREGROUND
  6
CONTINUOUS
 10
0.137774
 20
1.226173
  0
VERTEX
  8
FOREGROUND
  6
CONTINUOUS
 10
0.134038
 20
1.218828
  0
VERTEX
  8
FOREGROUND
  6
CONTINUOUS
 10
0.130374
 20
1.211416
  0
VERTEX
  8
FOREGROUND
  6
CONTINUOUS
 10
0.126783
 20
1.203937
  0
VERTEX
  8
FOREGROUND
  6
CONTINUOUS
 10
0.123265
 20
1.196392
  0
VERTEX
  8
FOREGROUND
  6
CONTINUOUS
 10
0.119821
 20
1.188780
  0
VERTEX
  8
FOREGROUND
  6
CONTINUOUS
 10
0.116451
 20
1.181102
  0
VERTEX
  8
FOREGROUND
  6
CONTINUOUS
 10
0.113156
 20
1.173358
  0
VERTEX
  8
FOREGROUND
  6
CONTINUOUS
 10
0.109937
 20
1.165547
  0
VERTEX
  8
FOREGROUND
  6
CONTINUOUS
 10
0.106795
 20
1.157669
  0
VERTEX
  8
FOREGROUND
  6
CONTINUOUS
 10
0.103729
 20
1.149725
  0
VERTEX
  8
FOREGROUND
  6
CONTINUOUS
 10
0.100742
 20
1.141715
  0
VERTEX
  8
FOREGROUND
  6
CONTINUOUS
 10
0.097833
 20
1.133638
  0
VERTEX
  8
FOREGROUND
  6
CONTINUOUS
 10
0.095002
 20
1.125494
  0
VERTEX
  8
FOREGROUND
  6
CONTINUOUS
 10
0.092252
 20
1.117284
  0
VERTEX
  8
FOREGROUND
  6
CONTINUOUS
 10
0.089582
 20
1.109008
  0
VERTEX
  8
FOREGROUND
  6
CONTINUOUS
 10
0.086993
 20
1.100665
  0
VERTEX
  8
FOREGROUND
  6
CONTINUOUS
 10
0.084485
 20
1.092256
  0
VERTEX
  8
FOREGROUND
  6
CONTINUOUS
 10
0.082060
 20
1.083780
  0
VERTEX
  8
FOREGROUND
  6
CONTINUOUS
 10
0.079717
 20
1.075238
  0
VERTEX
  8
FOREGROUND
  6
CONTINUOUS
 10
0.077458
 20
1.066629
  0
VERTEX
  8
FOREGROUND
  6
CONTINUOUS
 10
0.075284
 20
1.057954
  0
VERTEX
  8
FOREGROUND
  6
CONTINUOUS
 10
0.073194
 20
1.049212
  0
VERTEX
  8
FOREGROUND
  6
CONTINUOUS
 10
0.071190
 20
1.040404
  0
VERTEX
  8
FOREGROUND
  6
CONTINUOUS
 10
0.069272
 20
1.031529
  0
VERTEX
  8
FOREGROUND
  6
CONTINUOUS
 10
0.067440
 20
1.022588
  0
VERTEX
  8
FOREGROUND
  6
CONTINUOUS
 10
0.065696
 20
1.013580
  0
VERTEX
  8
FOREGROUND
  6
CONTINUOUS
 10
0.064041
 20
1.004506
  0
VERTEX
  8
FOREGROUND
  6
CONTINUOUS
 10
0.062474
 20
0.995365
  0
VERTEX
  8
FOREGROUND
  6
CONTINUOUS
 10
0.060996
 20
0.986158
  0
VERTEX
  8
FOREGROUND
  6
CONTINUOUS
 10
0.059609
 20
0.976884
  0
VERTEX
  8
FOREGROUND
  6
CONTINUOUS
 10
0.058312
 20
0.967544
  0
VERTEX
  8
FOREGROUND
  6
CONTINUOUS
 10
0.057106
 20
0.958138
  0
VERTEX
  8
FOREGROUND
  6
CONTINUOUS
 10
0.055993
 20
0.948665
  0
VERTEX
  8
FOREGROUND
  6
CONTINUOUS
 10
0.054972
 20
0.939125
  0
VERTEX
  8
FOREGROUND
  6
CONTINUOUS
 10
0.054044
 20
0.929519
  0
VERTEX
  8
FOREGROUND
  6
CONTINUOUS
 10
0.053210
 20
0.919847
  0
VERTEX
  8
FOREGROUND
  6
CONTINUOUS
 10
0.052471
 20
0.910108
  0
VERTEX
  8
FOREGROUND
  6
CONTINUOUS
 10
0.051827
 20
0.900302
  0
VERTEX
  8
FOREGROUND
  6
CONTINUOUS
 10
0.051279
 20
0.890430
  0
VERTEX
  8
FOREGROUND
  6
CONTINUOUS
 10
0.050828
 20
0.880492
  0
VERTEX
  8
FOREGROUND
  6
CONTINUOUS
 10
0.050473
 20
0.870487
  0
VERTEX
  8
FOREGROUND
  6
CONTINUOUS
 10
0.050217
 20
0.860415
  0
VERTEX
  8
FOREGROUND
  6
CONTINUOUS
 10
0.050059
 20
0.850277
  0
VERTEX
  8
FOREGROUND
  6
CONTINUOUS
 10
0.050000
 20
0.840073
  0
VERTEX
  8
FOREGROUND
  6
CONTINUOUS
 10
0.050000
 20
0.840073
  0
VERTEX
  8
FOREGROUND
  6
CONTINUOUS
 10
0.050057
 20
0.829869
  0
VERTEX
  8
FOREGROUND
  6
CONTINUOUS
 10
0.050213
 20
0.819731
  0
VERTEX
  8
FOREGROUND
  6
CONTINUOUS
 10
0.050468
 20
0.809659
  0
VERTEX
  8
FOREGROUND
  6
CONTINUOUS
 10
0.050820
 20
0.799654
  0
VERTEX
  8
FOREGROUND
  6
CONTINUOUS
 10
0.051270
 20
0.789716
  0
VERTEX
  8
FOREGROUND
  6
CONTINUOUS
 10
0.051816
 20
0.779844
  0
VERTEX
  8
FOREGROUND
  6
CONTINUOUS
 10
0.052458
 20
0.770038
  0
VERTEX
  8
FOREGROUND
  6
CONTINUOUS
 10
0.053195
 20
0.760299
  0
VERTEX
  8
FOREGROUND
  6
CONTINUOUS
 10
0.054027
 20
0.750626
  0
VERTEX
  8
FOREGROUND
  6
CONTINUOUS
 10
0.054953
 20
0.741020
  0
VERTEX
  8
FOREGROUND
  6
CONTINUOUS
 10
0.055972
 20
0.731480
  0
VERTEX
  8
FOREGROUND
  6
CONTINUOUS
 10
0.057083
 20
0.722007
  0
VERTEX
  8
FOREGROUND
  6
CONTINUOUS
 10
0.058287
 20
0.712600
  0
VERTEX
  8
FOREGROUND
  6
CONTINUOUS
 10
0.059582
 20
0.703260
  0
VERTEX
  8
FOREGROUND
  6
CONTINUOUS
 10
0.060968
 20
0.693986
  0
VERTEX
  8
FOREGROUND
  6
CONTINUOUS
 10
0.062444
 20
0.684779
  0
VERTEX
  8
FOREGROUND
  6
CONTINUOUS
 10
0.064009
 20
0.675638
  0
VERTEX
  8
FOREGROUND
  6
CONTINUOUS
 10
0.065663
 20
0.666563
  0
VERTEX
  8
FOREGROUND
  6
CONTINUOUS
 10
0.067405
 20
0.657555
  0
VERTEX
  8
FOREGROUND
  6
CONTINUOUS
 10
0.069235
 20
0.648614
  0
VERTEX
  8
FOREGROUND
  6
CONTINUOUS
 10
0.071151
 20
0.639739
  0
VERTEX
  8
FOREGROUND
  6
CONTINUOUS
 10
0.073154
 20
0.630930
  0
VERTEX
  8
FOREGROUND
  6
CONTINUOUS
 10
0.075242
 20
0.622188
  0
VERTEX
  8
FOREGROUND
  6
CONTINUOUS
 10
0.077415
 20
0.613512
  0
VERTEX
  8
FOREGROUND
  6
CONTINUOUS
 10
0.079672
 20
0.604903
  0
VERTEX
  8
FOREGROUND
  6
CONTINUOUS
 10
0.082013
 20
0.596360
  0
VERTEX
  8
FOREGROUND
  6
CONTINUOUS
 10
0.084436
 20
0.587884
  0
VERTEX
  8
FOREGROUND
  6
CONTINUOUS
 10
0.086942
 20
0.579474
  0
VERTEX
  8
FOREGROUND
  6
CONTINUOUS
 10
0.089530
 20
0.571131
  0
VERTEX
  8
FOREGROUND
  6
CONTINUOUS
 10
0.092198
 20
0.562854
  0
VERTEX
  8
FOREGROUND
  6
CONTINUOUS
 10
0.094947
 20
0.554643
  0
VERTEX
  8
FOREGROUND
  6
CONTINUOUS
 10
0.097776
 20
0.546499
  0
VERTEX
  8
FOREGROUND
  6
CONTINUOUS
 10
0.100684
 20
0.538422
  0
VERTEX
  8
FOREGROUND
  6
CONTINUOUS
 10
0.103670
 20
0.530411
  0
VERTEX
  8
FOREGROUND
  6
CONTINUOUS
 10
0.106733
 20
0.522466
  0
VERTEX
  8
FOREGROUND
  6
CONTINUOUS
 10
0.109874
 20
0.514588
  0
VERTEX
  8
FOREGROUND
  6
CONTINUOUS
 10
0.113092
 20
0.506777
  0
VERTEX
  8
FOREGROUND
  6
CONTINUOUS
 10
0.116385
 20
0.499032
  0
VERTEX
  8
FOREGROUND
  6
CONTINUOUS
 10
0.119753
 20
0.491353
  0
VERTEX
  8
FOREGROUND
  6
CONTINUOUS
 10
0.123196
 20
0.483741
  0
VERTEX
  8
FOREGROUND
  6
CONTINUOUS
 10
0.126713
 20
0.476195
  0
VERTEX
  8
FOREGROUND
  6
CONTINUOUS
 10
0.130303
 20
0.468716
  0
VERTEX
  8
FOREGROUND
  6
CONTINUOUS
 10
0.133965
 20
0.461303
  0
VERTEX
  8
FOREGROUND
  6
CONTINUOUS
 10
0.137700
 20
0.453956
  0
VERTEX
  8
FOREGROUND
  6
CONTINUOUS
 10
0.141505
 20
0.446677
  0
VERTEX
  8
FOREGROUND
  6
CONTINUOUS
 10
0.145381
 20
0.439463
  0
VERTEX
  8
FOREGROUND
  6
CONTINUOUS
 10
0.149328
 20
0.432316
  0
VERTEX
  8
FOREGROUND
  6
CONTINUOUS
 10
0.153343
 20
0.425236
  0
VERTEX
  8
FOREGROUND
  6
CONTINUOUS
 10
0.157428
 20
0.418222
  0
VERTEX
  8
FOREGROUND
  6
CONTINUOUS
 10
0.161580
 20
0.411274
  0
VERTEX
  8
FOREGROUND
  6
CONTINUOUS
 10
0.165800
 20
0.404393
  0
VERTEX
  8
FOREGROUND
  6
CONTINUOUS
 10
0.170086
 20
0.397579
  0
VERTEX
  8
FOREGROUND
  6
CONTINUOUS
 10
0.174438
 20
0.390830
  0
VERTEX
  8
FOREGROUND
  6
CONTINUOUS
 10
0.178856
 20
0.384149
  0
VERTEX
  8
FOREGROUND
  6
CONTINUOUS
 10
0.183339
 20
0.377534
  0
VERTEX
  8
FOREGROUND
  6
CONTINUOUS
 10
0.187886
 20
0.370985
  0
VERTEX
  8
FOREGROUND
  6
CONTINUOUS
 10
0.192496
 20
0.364503
  0
VERTEX
  8
FOREGROUND
  6
CONTINUOUS
 10
0.197170
 20
0.358087
  0
VERTEX
  8
FOREGROUND
  6
CONTINUOUS
 10
0.201905
 20
0.351738
  0
VERTEX
  8
FOREGROUND
  6
CONTINUOUS
 10
0.206702
 20
0.345455
  0
VERTEX
  8
FOREGROUND
  6
CONTINUOUS
 10
0.211560
 20
0.339238
  0
VERTEX
  8
FOREGROUND
  6
CONTINUOUS
 10
0.216478
 20
0.333088
  0
VERTEX
  8
FOREGROUND
  6
CONTINUOUS
 10
0.221456
 20
0.327005
  0
VERTEX
  8
FOREGROUND
  6
CONTINUOUS
 10
0.226492
 20
0.320988
  0
VERTEX
  8
FOREGROUND
  6
CONTINUOUS
 10
0.231587
 20
0.315038
  0
VERTEX
  8
FOREGROUND
  6
CONTINUOUS
 10
0.236740
 20
0.309154
  0
VERTEX
  8
FOREGROUND
  6
CONTINUOUS
 10
0.241950
 20
0.303336
  0
VERTEX
  8
FOREGROUND
  6
CONTINUOUS
 10
0.247216
 20
0.297585
  0
VERTEX
  8
FOREGROUND
  6
CONTINUOUS
 10
0.252538
 20
0.291900
  0
VERTEX
  8
FOREGROUND
  6
CONTINUOUS
 10
0.257914
 20
0.286282
  0
VERTEX
  8
FOREGROUND
  6
CONTINUOUS
 10
0.263346
 20
0.280731
  0
VERTEX
  8
FOREGROUND
  6
CONTINUOUS
 10
0.268831
 20
0.275245
  0
VERTEX
  8
FOREGROUND
  6
CONTINUOUS
 10
0.274369
 20
0.269827
  0
VERTEX
  8
FOREGROUND
  6
CONTINUOUS
 10
0.279960
 20
0.264474
  0
VERTEX
  8
FOREGROUND
  6
CONTINUOUS
 10
0.285602
 20
0.259189
  0
VERTEX
  8
FOREGROUND
  6
CONTINUOUS
 10
0.291296
 20
0.253969
  0
VERTEX
  8
FOREGROUND
  6
CONTINUOUS
 10
0.297040
 20
0.248816
  0
VERTEX
  8
FOREGROUND
  6
CONTINUOUS
 10
0.302834
 20
0.243730
  0
VERTEX
  8
FOREGROUND
  6
CONTINUOUS
 10
0.308678
 20
0.238710
  0
VERTEX
  8
FOREGROUND
  6
CONTINUOUS
 10
0.314570
 20
0.233757
  0
VERTEX
  8
FOREGROUND
  6
CONTINUOUS
 10
0.320509
 20
0.228870
  0
VERTEX
  8
FOREGROUND
  6
CONTINUOUS
 10
0.326497
 20
0.224049
  0
VERTEX
  8
FOREGROUND
  6
CONTINUOUS
 10
0.332531
 20
0.219295
  0
VERTEX
  8
FOREGROUND
  6
CONTINUOUS
 10
0.338610
 20
0.214608
  0
VERTEX
  8
FOREGROUND
  6
CONTINUOUS
 10
0.344736
 20
0.209987
  0
VERTEX
  8
FOREGROUND
  6
CONTINUOUS
 10
0.350906
 20
0.205432
  0
VERTEX
  8
FOREGROUND
  6
CONTINUOUS
 10
0.357120
 20
0.200944
  0
VERTEX
  8
FOREGROUND
  6
CONTINUOUS
 10
0.363377
 20
0.196522
  0
VERTEX
  8
FOREGROUND
  6
CONTINUOUS
 10
0.369677
 20
0.192167
  0
VERTEX
  8
FOREGROUND
  6
CONTINUOUS
 10
0.376019
 20
0.187878
  0
VERTEX
  8
FOREGROUND
  6
CONTINUOUS
 10
0.382403
 20
0.183656
  0
VERTEX
  8
FOREGROUND
  6
CONTINUOUS
 10
0.388828
 20
0.179500
  0
VERTEX
  8
FOREGROUND
  6
CONTINUOUS
 10
0.395293
 20
0.175411
  0
VERTEX
  8
FOREGROUND
  6
CONTINUOUS
 10
0.401797
 20
0.171388
  0
VERTEX
  8
FOREGROUND
  6
CONTINUOUS
 10
0.408340
 20
0.167432
  0
VERTEX
  8
FOREGROUND
  6
CONTINUOUS
 10
0.414921
 20
0.163542
  0
VERTEX
  8
FOREGROUND
  6
CONTINUOUS
 10
0.421540
 20
0.159719
  0
VERTEX
  8
FOREGROUND
  6
CONTINUOUS
 10
0.428196
 20
0.155962
  0
VERTEX
  8
FOREGROUND
  6
CONTINUOUS
 10
0.434889
 20
0.152271
  0
VERTEX
  8
FOREGROUND
  6
CONTINUOUS
 10
0.441616
 20
0.148647
  0
VERTEX
  8
FOREGROUND
  6
CONTINUOUS
 10
0.448379
 20
0.145090
  0
VERTEX
  8
FOREGROUND
  6
CONTINUOUS
 10
0.455176
 20
0.141599
  0
VERTEX
  8
FOREGROUND
  6
CONTINUOUS
 10
0.462007
 20
0.138174
  0
VERTEX
  8
FOREGROUND
  6
CONTINUOUS
 10
0.468871
 20
0.134816
  0
VERTEX
  8
FOREGROUND
  6
CONTINUOUS
 10
0.475768
 20
0.131524
  0
VERTEX
  8
FOREGROUND
  6
CONTINUOUS
 10
0.482696
 20
0.128299
  0
VERTEX
  8
FOREGROUND
  6
CONTINUOUS
 10
0.489655
 20
0.125141
  0
VERTEX
  8
FOREGROUND
  6
CONTINUOUS
 10
0.496644
 20
0.122048
  0
VERTEX
  8
FOREGROUND
  6
CONTINUOUS
 10
0.503664
 20
0.119023
  0
VERTEX
  8
FOREGROUND
  6
CONTINUOUS
 10
0.510713
 20
0.116063
  0
VERTEX
  8
FOREGROUND
  6
CONTINUOUS
 10
0.517790
 20
0.113171
  0
VERTEX
  8
FOREGROUND
  6
CONTINUOUS
 10
0.524895
 20
0.110344
  0
VERTEX
  8
FOREGROUND
  6
CONTINUOUS
 10
0.532027
 20
0.107584
  0
VERTEX
  8
FOREGROUND
  6
CONTINUOUS
 10
0.539186
 20
0.104891
  0
VERTEX
  8
FOREGROUND
  6
CONTINUOUS
 10
0.546370
 20
0.102264
  0
VERTEX
  8
FOREGROUND
  6
CONTINUOUS
 10
0.553580
 20
0.099704
  0
VERTEX
  8
FOREGROUND
  6
CONTINUOUS
 10
0.560815
 20
0.097210
  0
VERTEX
  8
FOREGROUND
  6
CONTINUOUS
 10
0.568073
 20
0.094782
  0
VERTEX
  8
FOREGROUND
  6
CONTINUOUS
 10
0.575355
 20
0.092421
  0
VERTEX
  8
FOREGROUND
  6
CONTINUOUS
 10
0.582660
 20
0.090127
  0
VERTEX
  8
FOREGROUND
  6
CONTINUOUS
 10
0.589987
 20
0.087899
  0
VERTEX
  8
FOREGROUND
  6
CONTINUOUS
 10
0.597335
 20
0.085737
  0
VERTEX
  8
FOREGROUND
  6
CONTINUOUS
 10
0.604703
 20
0.083642
  0
VERTEX
  8
FOREGROUND
  6
CONTINUOUS
 10
0.612092
 20
0.081614
  0
VERTEX
  8
FOREGROUND
  6
CONTINUOUS
 10
0.619501
 20
0.079652
  0
VERTEX
  8
FOREGROUND
  6
CONTINUOUS
 10
0.626928
 20
0.077756
  0
VERTEX
  8
FOREGROUND
  6
CONTINUOUS
 10
0.634373
 20
0.075927
  0
VERTEX
  8
FOREGROUND
  6
CONTINUOUS
 10
0.641836
 20
0.074164
  0
VERTEX
  8
FOREGROUND
  6
CONTINUOUS
 10
0.649315
 20
0.072468
  0
VERTEX
  8
FOREGROUND
  6
CONTINUOUS
 10
0.656811
 20
0.070838
  0
VERTEX
  8
FOREGROUND
  6
CONTINUOUS
 10
0.664322
 20
0.069275
  0
VERTEX
  8
FOREGROUND
  6
CONTINUOUS
 10
0.671849
 20
0.067778
  0
VERTEX
  8
FOREGROUND
  6
CONTINUOUS
 10
0.679389
 20
0.066348
  0
VERTEX
  8
FOREGROUND
  6
CONTINUOUS
 10
0.686943
 20
0.064984
  0
VERTEX
  8
FOREGROUND
  6
CONTINUOUS
 10
0.694510
 20
0.063686
  0
VERTEX
  8
FOREGROUND
  6
CONTINUOUS
 10
0.702090
 20
0.062456
  0
VERTEX
  8
FOREGROUND
  6
CONTINUOUS
 10
0.709681
 20
0.061291
  0
VERTEX
  8
FOREGROUND
  6
CONTINUOUS
 10
0.717283
 20
0.060193
  0
VERTEX
  8
FOREGROUND
  6
CONTINUOUS
 10
0.724895
 20
0.059162
  0
VERTEX
  8
FOREGROUND
  6
CONTINUOUS
 10
0.732518
 20
0.058197
  0
VERTEX
  8
FOREGROUND
  6
CONTINUOUS
 10
0.740149
 20
0.057298
  0
VERTEX
  8
FOREGROUND
  6
CONTINUOUS
 10
0.747789
 20
0.056466
  0
VERTEX
  8
FOREGROUND
  6
CONTINUOUS
 10
0.755436
 20
0.055701
  0
VERTEX
  8
FOREGROUND
  6
CONTINUOUS
 10
0.763091
 20
0.055002
  0
VERTEX
  8
FOREGROUND
  6
CONTINUOUS
 10
0.770752
 20
0.054369
  0
VERTEX
  8
FOREGROUND
  6
CONTINUOUS
 10
0.778419
 20
0.053803
  0
VERTEX
  8
FOREGROUND
  6
CONTINUOUS
 10
0.786091
 20
0.053303
  0
VERTEX
  8
FOREGROUND
  6
CONTINUOUS
 10
0.793768
 20
0.052870
  0
VERTEX
  8
FOREGROUND
  6
CONTINUOUS
 10
0.801448
 20
0.052503
  0
VERTEX
  8
FOREGROUND
  6
CONTINUOUS
 10
0.809132
 20
0.052203
  0
VERTEX
  8
FOREGROUND
  6
CONTINUOUS
 10
0.816819
 20
0.051969
  0
VERTEX
  8
FOREGROUND
  6
CONTINUOUS
 10
0.824507
 20
0.051802
  0
VERTEX
  8
FOREGROUND
  6
CONTINUOUS
 10
0.832197
 20
0.051701
  0
VERTEX
  8
FOREGROUND
  6
CONTINUOUS
 10
0.839887
 20
0.051667
  0
VERTEX
  8
FOREGROUND
  6
CONTINUOUS
 10
0.847578
 20
0.051699
  0
VERTEX
  8
FOREGROUND
  6
CONTINUOUS
 10
0.855267
 20
0.051798
  0
VERTEX
  8
FOREGROUND
  6
CONTINUOUS
 10
0.862956
 20
0.051963
  0
VERTEX
  8
FOREGROUND
  6
CONTINUOUS
 10
0.870642
 20
0.052195
  0
VERTEX
  8
FOREGROUND
  6
CONTINUOUS
 10
0.878326
 20
0.052493
  0
VERTEX
  8
FOREGROUND
  6
CONTINUOUS
 10
0.886007
 20
0.052857
  0
VERTEX
  8
FOREGROUND
  6
CONTINUOUS
 10
0.893684
 20
0.053288
  0
VERTEX
  8
FOREGROUND
  6
CONTINUOUS
 10
0.901356
 20
0.053786
  0
VERTEX
  8
FOREGROUND
  6
CONTINUOUS
 10
0.909023
 20
0.054350
  0
VERTEX
  8
FOREGROUND
  6
CONTINUOUS
 10
0.916685
 20
0.054980
  0
VERTEX
  8
FOREGROUND
  6
CONTINUOUS
 10
0.924339
 20
0.055677
  0
VERTEX
  8
FOREGROUND
  6
CONTINUOUS
 10
0.931987
 20
0.056441
  0
VERTEX
  8
FOREGROUND
  6
CONTINUOUS
 10
0.939627
 20
0.057271
  0
VERTEX
  8
FOREGROUND
  6
CONTINUOUS
 10
0.947259
 20
0.058167
  0
VERTEX
  8
FOREGROUND
  6
CONTINUOUS
 10
0.954881
 20
0.059130
  0
VERTEX
  8
FOREGROUND
  6
CONTINUOUS
 10
0.962494
 20
0.060159
  0
VERTEX
  8
FOREGROUND
  6
CONTINUOUS
 10
0.970096
 20
0.061255
  0
VERTEX
  8
FOREGROUND
  6
CONTINUOUS
 10
0.977688
 20
0.062417
  0
VERTEX
  8
FOREGROUND
  6
CONTINUOUS
 10
0.985268
 20
0.063646
  0
VERTEX
  8
FOREGROUND
  6
CONTINUOUS
 10
0.992835
 20
0.064941
  0
VERTEX
  8
FOREGROUND
  6
CONTINUOUS
 10
1.000390
 20
0.066303
  0
VERTEX
  8
FOREGROUND
  6
CONTINUOUS
 10
1.007930
 20
0.067731
  0
VERTEX
  8
FOREGROUND
  6
CONTINUOUS
 10
1.015457
 20
0.069226
  0
VERTEX
  8
FOREGROUND
  6
CONTINUOUS
 10
1.022969
 20
0.070787
  0
VERTEX
  8
FOREGROUND
  6
CONTINUOUS
 10
1.030465
 20
0.072415
  0
VERTEX
  8
FOREGROUND
  6
CONTINUOUS
 10
1.037945
 20
0.074109
  0
VERTEX
  8
FOREGROUND
  6
CONTINUOUS
 10
1.045409
 20
0.075870
  0
VERTEX
  8
FOREGROUND
  6
CONTINUOUS
 10
1.052854
 20
0.077697
  0
VERTEX
  8
FOREGROUND
  6
CONTINUOUS
 10
1.060282
 20
0.079590
  0
VERTEX
  8
FOREGROUND
  6
CONTINUOUS
 10
1.067691
 20
0.081550
  0
VERTEX
  8
FOREGROUND
  6
CONTINUOUS
 10
1.075080
 20
0.083577
  0
VERTEX
  8
FOREGROUND
  6
CONTINUOUS
 10
1.082450
 20
0.085670
  0
VERTEX
  8
FOREGROUND
  6
CONTINUOUS
 10
1.089798
 20
0.087830
  0
VERTEX
  8
FOREGROUND
  6
CONTINUOUS
 10
1.097125
 20
0.090056
  0
VERTEX
  8
FOREGROUND
  6
CONTINUOUS
 10
1.104431
 20
0.092348
  0
VERTEX
  8
FOREGROUND
  6
CONTINUOUS
 10
1.111713
 20
0.094707
  0
VERTEX
  8
FOREGROUND
  6
CONTINUOUS
 10
1.118973
 20
0.097132
  0
VERTEX
  8
FOREGROUND
  6
CONTINUOUS
 10
1.126208
 20
0.099624
  0
VERTEX
  8
FOREGROUND
  6
CONTINUOUS
 10
1.133419
 20
0.102183
  0
VERTEX
  8
FOREGROUND
  6
CONTINUOUS
 10
1.140604
 20
0.104808
  0
VERTEX
  8
FOREGROUND
  6
CONTINUOUS
 10
1.147764
 20
0.107499
  0
VERTEX
  8
FOREGROUND
  6
CONTINUOUS
 10
1.154897
 20
0.110257
  0
VERTEX
  8
FOREGROUND
  6
CONTINUOUS
 10
1.162002
 20
0.113081
  0
VERTEX
  8
FOREGROUND
  6
CONTINUOUS
 10
1.169080
 20
0.115972
  0
VERTEX
  8
FOREGROUND
  6
CONTINUOUS
 10
1.176130
 20
0.118929
  0
VERTEX
  8
FOREGROUND
  6
CONTINUOUS
 10
1.183150
 20
0.121953
  0
VERTEX
  8
FOREGROUND
  6
CONTINUOUS
 10
1.190141
 20
0.125043
  0
VERTEX
  8
FOREGROUND
  6
CONTINUOUS
 10
1.197101
 20
0.128200
  0
VERTEX
  8
FOREGROUND
  6
CONTINUOUS
 10
1.204030
 20
0.131423
  0
VERTEX
  8
FOREGROUND
  6
CONTINUOUS
 10
1.210927
 20
0.134713
  0
VERTEX
  8
FOREGROUND
  6
CONTINUOUS
 10
1.217792
 20
0.138069
  0
VERTEX
  8
FOREGROUND
  6
CONTINUOUS
 10
1.224624
 20
0.141492
  0
VERTEX
  8
FOREGROUND
  6
CONTINUOUS
 10
1.231422
 20
0.144981
  0
VERTEX
  8
FOREGROUND
  6
CONTINUOUS
 10
1.238186
 20
0.148537
  0
VERTEX
  8
FOREGROUND
  6
CONTINUOUS
 10
1.244915
 20
0.152159
  0
VERTEX
  8
FOREGROUND
  6
CONTINUOUS
 10
1.251608
 20
0.155847
  0
VERTEX
  8
FOREGROUND
  6
CONTINUOUS
 10
1.258265
 20
0.159602
  0
VERTEX
  8
FOREGROUND
  6
CONTINUOUS
 10
1.264885
 20
0.163424
  0
VERTEX
  8
FOREGROUND
  6
CONTINUOUS
 10
1.271468
 20
0.167312
  0
VERTEX
  8
FOREGROUND
  6
CONTINUOUS
 10
1.278012
 20
0.171267
  0
VERTEX
  8
FOREGROUND
  6
CONTINUOUS
 10
1.284517
 20
0.175288
  0
VERTEX
  8
FOREGROUND
  6
CONTINUOUS
 10
1.290983
 20
0.179375
  0
VERTEX
  8
FOREGROUND
  6
CONTINUOUS
 10
1.297409
 20
0.183529
  0
VERTEX
  8
FOREGROUND
  6
CONTINUOUS
 10
1.303794
 20
0.187750
  0
VERTEX
  8
FOREGROUND
  6
CONTINUOUS
 10
1.310137
 20
0.192037
  0
VERTEX
  8
FOREGROUND
  6
CONTINUOUS
 10
1.316439
 20
0.196390
  0
VERTEX
  8
FOREGROUND
  6
CONTINUOUS
 10
1.322698
 20
0.200810
  0
VERTEX
  8
FOREGROUND
  6
CONTINUOUS
 10
1.328913
 20
0.205296
  0
VERTEX
  8
FOREGROUND
  6
CONTINUOUS
 10
1.335084
 20
0.209849
  0
VERTEX
  8
FOREGROUND
  6
CONTINUOUS
 10
1.341211
 20
0.214469
  0
VERTEX
  8
FOREGROUND
  6
CONTINUOUS
 10
1.347292
 20
0.219154
  0
VERTEX
  8
FOREGROUND
  6
CONTINUOUS
 10
1.353327
 20
0.223907
  0
VERTEX
  8
FOREGROUND
  6
CONTINUOUS
 10
1.359316
 20
0.228726
  0
VERTEX
  8
FOREGROUND
  6
CONTINUOUS
 10
1.365257
 20
0.233611
  0
VERTEX
  8
FOREGROUND
  6
CONTINUOUS
 10
1.371150
 20
0.238563
  0
VERTEX
  8
FOREGROUND
  6
CONTINUOUS
 10
1.376995
 20
0.243581
  0
VERTEX
  8
FOREGROUND
  6
CONTINUOUS
 10
1.382791
 20
0.248666
  0
VERTEX
  8
FOREGROUND
  6
CONTINUOUS
 10
1.388537
 20
0.253817
  0
VERTEX
  8
FOREGROUND
  6
CONTINUOUS
 10
1.394232
 20
0.259035
  0
VERTEX
  8
FOREGROUND
  6
CONTINUOUS
 10
1.399876
 20
0.264319
  0
VERTEX
  8
FOREGROUND
  6
CONTINUOUS
 10
1.405468
 20
0.269670
  0
VERTEX
  8
FOREGROUND
  6
CONTINUOUS
 10
1.411008
 20
0.275087
  0
VERTEX
  8
FOREGROUND
  6
CONTINUOUS
 10
1.416494
 20
0.280571
  0
VERTEX
  8
FOREGROUND
  6
CONTINUOUS
 10
1.421927
 20
0.286121
  0
VERTEX
  8
FOREGROUND
  6
CONTINUOUS
 10
1.427306
 20
0.291737
  0
VERTEX
  8
FOREGROUND
  6
CONTINUOUS
 10
1.432629
 20
0.297421
  0
VERTEX
  8
FOREGROUND
  6
CONTINUOUS
 10
1.437897
 20
0.303170
  0
VERTEX
  8
FOREGROUND
  6
CONTINUOUS
 10
1.443108
 20
0.308986
  0
VERTEX
  8
FOREGROUND
  6
CONTINUOUS
 10
1.448262
 20
0.314869
  0
VERTEX
  8
FOREGROUND
  6
CONTINUOUS
 10
1.453359
 20
0.320818
  0
VERTEX
  8
FOREGROUND
  6
CONTINUOUS
 10
1.458398
 20
0.326833
  0
VERTEX
  8
FOREGROUND
  6
CONTINUOUS
 10
1.463377
 20
0.332916
  0
VERTEX
  8
FOREGROUND
  6
CONTINUOUS
 10
1.468297
 20
0.339064
  0
VERTEX
  8
FOREGROUND
  6
CONTINUOUS
 10
1.473157
 20
0.345279
  0
VERTEX
  8
FOREGROUND
  6
CONTINUOUS
 10
1.477955
 20
0.351561
  0
VERTEX
  8
FOREGROUND
  6
CONTINUOUS
 10
1.482693
 20
0.357909
  0
VERTEX
  8
FOREGROUND
  6
CONTINUOUS
 10
1.487368
 20
0.364323
  0
VERTEX
  8
FOREGROUND
  6
CONTINUOUS
 10
1.491980
 20
0.370804
  0
VERTEX
  8
FOREGROUND
  6
CONTINUOUS
 10
1.496529
 20
0.377351
  0
VERTEX
  8
FOREGROUND
  6
CONTINUOUS
 10
1.501013
 20
0.383965
  0
VERTEX
  8
FOREGROUND
  6
CONTINUOUS
 10
1.505433
 20
0.390646
  0
VERTEX
  8
FOREGROUND
  6
CONTINUOUS
 10
1.509787
 20
0.397393
  0
VERTEX
  8
FOREGROUND
  6
CONTINUOUS
 10
1.514076
 20
0.404206
  0
VERTEX
  8
FOREGROUND
  6
CONTINUOUS
 10
1.518297
 20
0.411086
  0
VERTEX
  8
FOREGROUND
  6
CONTINUOUS
 10
1.522452
 20
0.418032
  0
VERTEX
  8
FOREGROUND
  6
CONTINUOUS
 10
1.526538
 20
0.425045
  0
VERTEX
  8
FOREGROUND
  6
CONTINUOUS
 10
1.530556
 20
0.432125
  0
VERTEX
  8
FOREGROUND
  6
CONTINUOUS
 10
1.534504
 20
0.439271
  0
VERTEX
  8
FOREGROUND
  6
CONTINUOUS
 10
1.538382
 20
0.446483
  0
VERTEX
  8
FOREGROUND
  6
CONTINUOUS
 10
1.542190
 20
0.453762
  0
VERTEX
  8
FOREGROUND
  6
CONTINUOUS
 10
1.545926
 20
0.461107
  0
VERTEX
  8
FOREGROUND
  6
CONTINUOUS
 10
1.549591
 20
0.468519
  0
VERTEX
  8
FOREGROUND
  6
CONTINUOUS
 10
1.553183
 20
0.475997
  0
VERTEX
  8
FOREGROUND
  6
CONTINUOUS
 10
1.556702
 20
0.483542
  0
VERTEX
  8
FOREGROUND
  6
CONTINUOUS
 10
1.560147
 20
0.491153
  0
VERTEX
  8
FOREGROUND
  6
CONTINUOUS
 10
1.563518
 20
0.498831
  0
VERTEX
  8
FOREGROUND
  6
CONTINUOUS
 10
1.566813
 20
0.506575
  0
VERTEX
  8
FOREGROUND
  6
CONTINUOUS
 10
1.570032
 20
0.514386
  0
VERTEX
  8
FOREGROUND
  6
CONTINUOUS
 10
1.573176
 20
0.522263
  0
VERTEX
  8
FOREGROUND
  6
CONTINUOUS
 10
1.576242
 20
0.530207
  0
VERTEX
  8
FOREGROUND
  6
CONTINUOUS
 10
1.579230
 20
0.538217
  0
VERTEX
  8
FOREGROUND
  6
CONTINUOUS
 10
1.582140
 20
0.546294
  0
VERTEX
  8
FOREGROUND
  6
CONTINUOUS
 10
1.584971
 20
0.554437
  0
VERTEX
  8
FOREGROUND
  6
CONTINUOUS
 10
1.587722
 20
0.562646
  0
VERTEX
  8
FOREGROUND
  6
CONTINUOUS
 10
1.590393
 20
0.570923
  0
VERTEX
  8
FOREGROUND
  6
CONTINUOUS
 10
1.592983
 20
0.579265
  0
VERTEX
  8
FOREGROUND
  6
CONTINUOUS
 10
1.595492
 20
0.587674
  0
VERTEX
  8
FOREGROUND
  6
CONTINUOUS
 10
1.597918
 20
0.596150
  0
VERTEX
  8
FOREGROUND
  6
CONTINUOUS
 10
1.600261
 20
0.604692
  0
VERTEX
  8
FOREGROUND
  6
CONTINUOUS
 10
1.602521
 20
0.613301
  0
VERTEX
  8
FOREGROUND
  6
CONTINUOUS
 10
1.604696
 20
0.621976
  0
VERTEX
  8
FOREGROUND
  6
CONTINUOUS
 10
1.606787
 20
0.630717
  0
VERTEX
  8
FOREGROUND
  6
CONTINUOUS
 10
1.608792
 20
0.639525
  0
VERTEX
  8
FOREGROUND
  6
CONTINUOUS
 10
1.610711
 20
0.648400
  0
VERTEX
  8
FOREGROUND
  6
CONTINUOUS
 10
1.612543
 20
0.657341
  0
VERTEX
  8
FOREGROUND
  6
CONTINUOUS
 10
1.614287
 20
0.666348
  0
VERTEX
  8
FOREGROUND
  6
CONTINUOUS
 10
1.615944
 20
0.675422
  0
VERTEX
  8
FOREGROUND
  6
CONTINUOUS
 10
1.617512
 20
0.684563
  0
VERTEX
  8
FOREGROUND
  6
CONTINUOUS
 10
1.618990
 20
0.693770
  0
VERTEX
  8
FOREGROUND
  6
CONTINUOUS
 10
1.620379
 20
0.703043
  0
VERTEX
  8
FOREGROUND
  6
CONTINUOUS
 10
1.621677
 20
0.712383
  0
VERTEX
  8
FOREGROUND
  6
CONTINUOUS
 10
1.622883
 20
0.721790
  0
VERTEX
  8
FOREGROUND
  6
CONTINUOUS
 10
1.623997
 20
0.731263
  0
VERTEX
  8
FOREGROUND
  6
CONTINUOUS
 10
1.625019
 20
0.740802
  0
VERTEX
  8
FOREGROUND
  6
CONTINUOUS
 10
1.625948
 20
0.750408
  0
VERTEX
  8
FOREGROUND
  6
CONTINUOUS
 10
1.626782
 20
0.760081
  0
VERTEX
  8
FOREGROUND
  6
CONTINUOUS
 10
1.627522
 20
0.769820
  0
VERTEX
  8
FOREGROUND
  6
CONTINUOUS
 10
1.628167
 20
0.779625
  0
VERTEX
  8
FOREGROUND
  6
CONTINUOUS
 10
1.628716
 20
0.789497
  0
VERTEX
  8
FOREGROUND
  6
CONTINUOUS
 10
1.629168
 20
0.799435
  0
VERTEX
  8
FOREGROUND
  6
CONTINUOUS
 10
1.629524
 20
0.809440
  0
VERTEX
  8
FOREGROUND
  6
CONTINUOUS
 10
1.629781
 20
0.819512
  0
VERTEX
  8
FOREGROUND
  6
CONTINUOUS
 10
1.629940
 20
0.829650
  0
VERTEX
  8
FOREGROUND
  6
CONTINUOUS
 10
1.630000
 20
0.839854
  0
SEQEND
  8
0
  0
ENDSEC
  0
EOF
