  0
SECTION
  2
HEADER
  9
$ACADVER
  1
AC1006
  9
$EXTMIN
 10
0.000000
 20
0.000000
  9
$EXTMAX
 10
2.075000
 20
2.071667
  9
$LTSCALE
 40
0.166667
  9
$PDMODE
 70
    35
  9
$PDSIZE
 40
0.133333
  0
ENDSEC
  0
SECTION
  2
TABLES
  0
TABLE
  2
LTYPE
 70
     9
  0
LTYPE
  2
CONTINUOUS
 70
    64
  3
Solid line
 72
    65
 73
     0
 40
0.000000
  0
LTYPE
  2
DASHED
 70
    64
  3
__ __ __ __ __ __ __ __ __ __ __ __ __ __ __
 72
    65
 73
     2
 40
0.001250
 49
0.000833
 49
-0.000417
  0
LTYPE
  2
HIDDEN
 70
    64
  3
 _ _ _ _ _ _ _ _ _ _ _ _ _ _ _ _ _ _ _ _ _ _
 72
    65
 73
     2
 40
0.000625
 49
0.000417
 49
-0.000208
  0
LTYPE
  2
CENTER
 70
    64
  3
____ _ ____ _ ____ _ ____ _ ____ _ ____ _ ____
 72
    65
 73
     4
 40
0.003333
 49
0.002083
 49
-0.000417
 49
0.000417
 49
-0.000417
  0
LTYPE
  2
PHANTOM
 70
    64
  3
_____ _ _ _____ _ _ _____ _ _ _____ _ _ ____
 72
    65
 73
     6
 40
0.004167
 49
0.002083
 49
-0.000417
 49
0.000417
 49
-0.000417
 49
0.000417
 49
-0.000417
  0
LTYPE
  2
DOT
 70
    64
  3
...............................................
 72
    65
 73
     2
 40
0.000417
 49
0.000000
 49
-0.000417
  0
LTYPE
  2
DASHDOT
 70
    64
  3
__ . __ . __ . __ . __ . __ . __ . __ . __ . __
 72
    65
 73
     4
 40
0.001667
 49
0.000833
 49
-0.000417
 49
0.000000
 49
-0.000417
  0
LTYPE
  2
BORDER
 70
    64
  3
__ __ . __ __ . __ __ . __ __ . __ __ . __ __
 72
    65
 73
     6
 40
0.002917
 49
0.000833
 49
-0.000417
 49
0.000833
 49
-0.000417
 49
0.000000
 49
-0.000417
  0
LTYPE
  2
DIVIDE
 70
    64
  3
__ . . __ . . __ . . __ . . __ . . __ . . __
 72
    65
 73
     6
 40
0.002083
 49
0.000833
 49
-0.000417
 49
0.000000
 49
-0.000417
 49
0.000000
 49
-0.000417
  0
LTYPE
  2
DOTDOT
 70
    64
  3
 . .  . .  . .  . .  . .  . . 
 72
    65
 73
     5
 40
0.000917
 49
-0.000417
 49
0.000000
 49
-0.000417
 49
0.000000
 49
-0.000417
  0
ENDTAB
  0
TABLE
  2
STYLE
 70
     2
  0
STYLE
 70
     0
  2
SN0
 40
0.000000
 41
0.001667
 50
0.000000
 71
     0
 42
0.000000
  3
ROMAND
  0
STYLE
 70
    68
  2
SV0
 40
0.000000
 41
0.001667
 50
0.000000
 71
     0
 42
0.000000
  3
ROMAND
  0
ENDTAB
  0
TABLE
  2
LAYER
 70
     2
  0
LAYER
  2
FOREGROUND
 70
    64
 62
     7
  6
CONTINUOUS
  0
LAYER
  2
BACKGROUND
 70
    65
 62
    -7
  6
CONTINUOUS
  0
ENDTAB
  0
ENDSEC
  0
SECTION
  2
ENTITIES
  0
POLYLINE
  8
FOREGROUND
  6
CONTINUOUS
 66
     1
 40
0.010000
 41
0.010000
 70
     1
  0
VERTEX
  8
FOREGROUND
  6
CONTINUOUS
 10
2.023333
 20
1.036667
  0
VERTEX
  8
FOREGROUND
  6
CONTINUOUS
 10
2.023263
 20
1.049254
  0
VERTEX
  8
FOREGROUND
  6
CONTINUOUS
 10
2.023071
 20
1.061760
  0
VERTEX
  8
FOREGROUND
  6
CONTINUOUS
 10
2.022760
 20
1.074185
  0
VERTEX
  8
FOREGROUND
  6
CONTINUOUS
 10
2.022330
 20
1.086530
  0
VERTEX
  8
FOREGROUND
  6
CONTINUOUS
 10
2.021782
 20
1.098793
  0
VERTEX
  8
FOREGROUND
  6
CONTINUOUS
 10
2.021115
 20
1.110975
  0
VERTEX
  8
FOREGROUND
  6
CONTINUOUS
 10
2.020333
 20
1.123077
  0
VERTEX
  8
FOREGROUND
  6
CONTINUOUS
 10
2.019434
 20
1.135097
  0
VERTEX
  8
FOREGROUND
  6
CONTINUOUS
 10
2.018420
 20
1.147037
  0
VERTEX
  8
FOREGROUND
  6
CONTINUOUS
 10
2.017291
 20
1.158896
  0
VERTEX
  8
FOREGROUND
  6
CONTINUOUS
 10
2.016049
 20
1.170674
  0
VERTEX
  8
FOREGROUND
  6
CONTINUOUS
 10
2.014694
 20
1.182370
  0
VERTEX
  8
FOREGROUND
  6
CONTINUOUS
 10
2.013227
 20
1.193986
  0
VERTEX
  8
FOREGROUND
  6
CONTINUOUS
 10
2.011649
 20
1.205521
  0
VERTEX
  8
FOREGROUND
  6
CONTINUOUS
 10
2.009960
 20
1.216975
  0
VERTEX
  8
FOREGROUND
  6
CONTINUOUS
 10
2.008161
 20
1.228348
  0
VERTEX
  8
FOREGROUND
  6
CONTINUOUS
 10
2.006254
 20
1.239640
  0
VERTEX
  8
FOREGROUND
  6
CONTINUOUS
 10
2.004238
 20
1.250851
  0
VERTEX
  8
FOREGROUND
  6
CONTINUOUS
 10
2.002114
 20
1.261982
  0
VERTEX
  8
FOREGROUND
  6
CONTINUOUS
 10
1.999885
 20
1.273031
  0
VERTEX
  8
FOREGROUND
  6
CONTINUOUS
 10
1.997549
 20
1.283999
  0
VERTEX
  8
FOREGROUND
  6
CONTINUOUS
 10
1.995108
 20
1.294887
  0
VERTEX
  8
FOREGROUND
  6
CONTINUOUS
 10
1.992563
 20
1.305693
  0
VERTEX
  8
FOREGROUND
  6
CONTINUOUS
 10
1.989914
 20
1.316418
  0
VERTEX
  8
FOREGROUND
  6
CONTINUOUS
 10
1.987163
 20
1.327063
  0
VERTEX
  8
FOREGROUND
  6
CONTINUOUS
 10
1.984309
 20
1.337627
  0
VERTEX
  8
FOREGROUND
  6
CONTINUOUS
 10
1.981355
 20
1.348109
  0
VERTEX
  8
FOREGROUND
  6
CONTINUOUS
 10
1.978300
 20
1.358511
  0
VERTEX
  8
FOREGROUND
  6
CONTINUOUS
 10
1.975145
 20
1.368832
  0
VERTEX
  8
FOREGROUND
  6
CONTINUOUS
 10
1.971892
 20
1.379072
  0
VERTEX
  8
FOREGROUND
  6
CONTINUOUS
 10
1.968540
 20
1.389231
  0
VERTEX
  8
FOREGROUND
  6
CONTINUOUS
 10
1.965091
 20
1.399309
  0
VERTEX
  8
FOREGROUND
  6
CONTINUOUS
 10
1.961546
 20
1.409306
  0
VERTEX
  8
FOREGROUND
  6
CONTINUOUS
 10
1.957905
 20
1.419222
  0
VERTEX
  8
FOREGROUND
  6
CONTINUOUS
 10
1.954169
 20
1.429057
  0
VERTEX
  8
FOREGROUND
  6
CONTINUOUS
 10
1.950338
 20
1.438811
  0
VERTEX
  8
FOREGROUND
  6
CONTINUOUS
 10
1.946415
 20
1.448484
  0
VERTEX
  8
FOREGROUND
  6
CONTINUOUS
 10
1.942398
 20
1.458077
  0
VERTEX
  8
FOREGROUND
  6
CONTINUOUS
 10
1.938290
 20
1.467588
  0
VERTEX
  8
FOREGROUND
  6
CONTINUOUS
 10
1.934091
 20
1.477018
  0
VERTEX
  8
FOREGROUND
  6
CONTINUOUS
 10
1.929801
 20
1.486368
  0
VERTEX
  8
FOREGROUND
  6
CONTINUOUS
 10
1.925422
 20
1.495636
  0
VERTEX
  8
FOREGROUND
  6
CONTINUOUS
 10
1.920955
 20
1.504824
  0
VERTEX
  8
FOREGROUND
  6
CONTINUOUS
 10
1.916399
 20
1.513931
  0
VERTEX
  8
FOREGROUND
  6
CONTINUOUS
 10
1.911756
 20
1.522956
  0
VERTEX
  8
FOREGROUND
  6
CONTINUOUS
 10
1.907027
 20
1.531901
  0
VERTEX
  8
FOREGROUND
  6
CONTINUOUS
 10
1.902212
 20
1.540765
  0
VERTEX
  8
FOREGROUND
  6
CONTINUOUS
 10
1.897312
 20
1.549548
  0
VERTEX
  8
FOREGROUND
  6
CONTINUOUS
 10
1.892328
 20
1.558250
  0
VERTEX
  8
FOREGROUND
  6
CONTINUOUS
 10
1.887261
 20
1.566871
  0
VERTEX
  8
FOREGROUND
  6
CONTINUOUS
 10
1.882111
 20
1.575411
  0
VERTEX
  8
FOREGROUND
  6
CONTINUOUS
 10
1.876880
 20
1.583870
  0
VERTEX
  8
FOREGROUND
  6
CONTINUOUS
 10
1.871567
 20
1.592248
  0
VERTEX
  8
FOREGROUND
  6
CONTINUOUS
 10
1.866175
 20
1.600546
  0
VERTEX
  8
FOREGROUND
  6
CONTINUOUS
 10
1.860703
 20
1.608762
  0
VERTEX
  8
FOREGROUND
  6
CONTINUOUS
 10
1.855152
 20
1.616897
  0
VERTEX
  8
FOREGROUND
  6
CONTINUOUS
 10
1.849524
 20
1.624952
  0
VERTEX
  8
FOREGROUND
  6
CONTINUOUS
 10
1.843818
 20
1.632925
  0
VERTEX
  8
FOREGROUND
  6
CONTINUOUS
 10
1.838037
 20
1.640818
  0
VERTEX
  8
FOREGROUND
  6
CONTINUOUS
 10
1.832179
 20
1.648629
  0
VERTEX
  8
FOREGROUND
  6
CONTINUOUS
 10
1.826247
 20
1.656360
  0
VERTEX
  8
FOREGROUND
  6
CONTINUOUS
 10
1.820241
 20
1.664010
  0
VERTEX
  8
FOREGROUND
  6
CONTINUOUS
 10
1.814162
 20
1.671578
  0
VERTEX
  8
FOREGROUND
  6
CONTINUOUS
 10
1.808011
 20
1.679066
  0
VERTEX
  8
FOREGROUND
  6
CONTINUOUS
 10
1.801788
 20
1.686473
  0
VERTEX
  8
FOREGROUND
  6
CONTINUOUS
 10
1.795494
 20
1.693799
  0
VERTEX
  8
FOREGROUND
  6
CONTINUOUS
 10
1.789130
 20
1.701044
  0
VERTEX
  8
FOREGROUND
  6
CONTINUOUS
 10
1.782697
 20
1.708208
  0
VERTEX
  8
FOREGROUND
  6
CONTINUOUS
 10
1.776195
 20
1.715291
  0
VERTEX
  8
FOREGROUND
  6
CONTINUOUS
 10
1.769625
 20
1.722293
  0
VERTEX
  8
FOREGROUND
  6
CONTINUOUS
 10
1.762989
 20
1.729214
  0
VERTEX
  8
FOREGROUND
  6
CONTINUOUS
 10
1.756286
 20
1.736055
  0
VERTEX
  8
FOREGROUND
  6
CONTINUOUS
 10
1.749518
 20
1.742814
  0
VERTEX
  8
FOREGROUND
  6
CONTINUOUS
 10
1.742686
 20
1.749492
  0
VERTEX
  8
FOREGROUND
  6
CONTINUOUS
 10
1.735789
 20
1.756090
  0
VERTEX
  8
FOREGROUND
  6
CONTINUOUS
 10
1.728830
 20
1.762606
  0
VERTEX
  8
FOREGROUND
  6
CONTINUOUS
 10
1.721808
 20
1.769042
  0
VERTEX
  8
FOREGROUND
  6
CONTINUOUS
 10
1.714725
 20
1.775396
  0
VERTEX
  8
FOREGROUND
  6
CONTINUOUS
 10
1.707581
 20
1.781670
  0
VERTEX
  8
FOREGROUND
  6
CONTINUOUS
 10
1.700377
 20
1.787863
  0
VERTEX
  8
FOREGROUND
  6
CONTINUOUS
 10
1.693114
 20
1.793975
  0
VERTEX
  8
FOREGROUND
  6
CONTINUOUS
 10
1.685792
 20
1.800005
  0
VERTEX
  8
FOREGROUND
  6
CONTINUOUS
 10
1.678413
 20
1.805955
  0
VERTEX
  8
FOREGROUND
  6
CONTINUOUS
 10
1.670977
 20
1.811824
  0
VERTEX
  8
FOREGROUND
  6
CONTINUOUS
 10
1.663485
 20
1.817612
  0
VERTEX
  8
FOREGROUND
  6
CONTINUOUS
 10
1.655938
 20
1.823319
  0
VERTEX
  8
FOREGROUND
  6
CONTINUOUS
 10
1.648337
 20
1.828945
  0
VERTEX
  8
FOREGROUND
  6
CONTINUOUS
 10
1.640681
 20
1.834491
  0
VERTEX
  8
FOREGROUND
  6
CONTINUOUS
 10
1.632973
 20
1.839955
  0
VERTEX
  8
FOREGROUND
  6
CONTINUOUS
 10
1.625212
 20
1.845338
  0
VERTEX
  8
FOREGROUND
  6
CONTINUOUS
 10
1.617401
 20
1.850641
  0
VERTEX
  8
FOREGROUND
  6
CONTINUOUS
 10
1.609538
 20
1.855862
  0
VERTEX
  8
FOREGROUND
  6
CONTINUOUS
 10
1.601626
 20
1.861002
  0
VERTEX
  8
FOREGROUND
  6
CONTINUOUS
 10
1.593665
 20
1.866062
  0
VERTEX
  8
FOREGROUND
  6
CONTINUOUS
 10
1.585655
 20
1.871040
  0
VERTEX
  8
FOREGROUND
  6
CONTINUOUS
 10
1.577598
 20
1.875938
  0
VERTEX
  8
FOREGROUND
  6
CONTINUOUS
 10
1.569494
 20
1.880755
  0
VERTEX
  8
FOREGROUND
  6
CONTINUOUS
 10
1.561344
 20
1.885490
  0
VERTEX
  8
FOREGROUND
  6
CONTINUOUS
 10
1.553150
 20
1.890145
  0
VERTEX
  8
FOREGROUND
  6
CONTINUOUS
 10
1.544910
 20
1.894719
  0
VERTEX
  8
FOREGROUND
  6
CONTINUOUS
 10
1.536628
 20
1.899212
  0
VERTEX
  8
FOREGROUND
  6
CONTINUOUS
 10
1.528302
 20
1.903624
  0
VERTEX
  8
FOREGROUND
  6
CONTINUOUS
 10
1.519934
 20
1.907955
  0
VERTEX
  8
FOREGROUND
  6
CONTINUOUS
 10
1.511525
 20
1.912205
  0
VERTEX
  8
FOREGROUND
  6
CONTINUOUS
 10
1.503076
 20
1.916374
  0
VERTEX
  8
FOREGROUND
  6
CONTINUOUS
 10
1.494587
 20
1.920462
  0
VERTEX
  8
FOREGROUND
  6
CONTINUOUS
 10
1.486059
 20
1.924470
  0
VERTEX
  8
FOREGROUND
  6
CONTINUOUS
 10
1.477493
 20
1.928396
  0
VERTEX
  8
FOREGROUND
  6
CONTINUOUS
 10
1.468889
 20
1.932241
  0
VERTEX
  8
FOREGROUND
  6
CONTINUOUS
 10
1.460249
 20
1.936006
  0
VERTEX
  8
FOREGROUND
  6
CONTINUOUS
 10
1.451573
 20
1.939689
  0
VERTEX
  8
FOREGROUND
  6
CONTINUOUS
 10
1.442862
 20
1.943292
  0
VERTEX
  8
FOREGROUND
  6
CONTINUOUS
 10
1.434117
 20
1.946813
  0
VERTEX
  8
FOREGROUND
  6
CONTINUOUS
 10
1.425338
 20
1.950254
  0
VERTEX
  8
FOREGROUND
  6
CONTINUOUS
 10
1.416527
 20
1.953613
  0
VERTEX
  8
FOREGROUND
  6
CONTINUOUS
 10
1.407684
 20
1.956892
  0
VERTEX
  8
FOREGROUND
  6
CONTINUOUS
 10
1.398809
 20
1.960090
  0
VERTEX
  8
FOREGROUND
  6
CONTINUOUS
 10
1.389904
 20
1.963207
  0
VERTEX
  8
FOREGROUND
  6
CONTINUOUS
 10
1.380970
 20
1.966243
  0
VERTEX
  8
FOREGROUND
  6
CONTINUOUS
 10
1.372007
 20
1.969198
  0
VERTEX
  8
FOREGROUND
  6
CONTINUOUS
 10
1.363016
 20
1.972072
  0
VERTEX
  8
FOREGROUND
  6
CONTINUOUS
 10
1.353997
 20
1.974865
  0
VERTEX
  8
FOREGROUND
  6
CONTINUOUS
 10
1.344952
 20
1.977577
  0
VERTEX
  8
FOREGROUND
  6
CONTINUOUS
 10
1.335882
 20
1.980208
  0
VERTEX
  8
FOREGROUND
  6
CONTINUOUS
 10
1.326786
 20
1.982758
  0
VERTEX
  8
FOREGROUND
  6
CONTINUOUS
 10
1.317666
 20
1.985228
  0
VERTEX
  8
FOREGROUND
  6
CONTINUOUS
 10
1.308523
 20
1.987616
  0
VERTEX
  8
FOREGROUND
  6
CONTINUOUS
 10
1.299358
 20
1.989923
  0
VERTEX
  8
FOREGROUND
  6
CONTINUOUS
 10
1.290170
 20
1.992150
  0
VERTEX
  8
FOREGROUND
  6
CONTINUOUS
 10
1.280962
 20
1.994295
  0
VERTEX
  8
FOREGROUND
  6
CONTINUOUS
 10
1.271733
 20
1.996360
  0
VERTEX
  8
FOREGROUND
  6
CONTINUOUS
 10
1.262485
 20
1.998343
  0
VERTEX
  8
FOREGROUND
  6
CONTINUOUS
 10
1.253218
 20
2.000246
  0
VERTEX
  8
FOREGROUND
  6
CONTINUOUS
 10
1.243934
 20
2.002068
  0
VERTEX
  8
FOREGROUND
  6
CONTINUOUS
 10
1.234632
 20
2.003809
  0
VERTEX
  8
FOREGROUND
  6
CONTINUOUS
 10
1.225314
 20
2.005468
  0
VERTEX
  8
FOREGROUND
  6
CONTINUOUS
 10
1.215980
 20
2.007047
  0
VERTEX
  8
FOREGROUND
  6
CONTINUOUS
 10
1.206631
 20
2.008545
  0
VERTEX
  8
FOREGROUND
  6
CONTINUOUS
 10
1.197269
 20
2.009962
  0
VERTEX
  8
FOREGROUND
  6
CONTINUOUS
 10
1.187893
 20
2.011298
  0
VERTEX
  8
FOREGROUND
  6
CONTINUOUS
 10
1.178505
 20
2.012553
  0
VERTEX
  8
FOREGROUND
  6
CONTINUOUS
 10
1.169105
 20
2.013727
  0
VERTEX
  8
FOREGROUND
  6
CONTINUOUS
 10
1.159694
 20
2.014821
  0
VERTEX
  8
FOREGROUND
  6
CONTINUOUS
 10
1.150273
 20
2.015833
  0
VERTEX
  8
FOREGROUND
  6
CONTINUOUS
 10
1.140843
 20
2.016764
  0
VERTEX
  8
FOREGROUND
  6
CONTINUOUS
 10
1.131404
 20
2.017615
  0
VERTEX
  8
FOREGROUND
  6
CONTINUOUS
 10
1.121957
 20
2.018384
  0
VERTEX
  8
FOREGROUND
  6
CONTINUOUS
 10
1.112504
 20
2.019073
  0
VERTEX
  8
FOREGROUND
  6
CONTINUOUS
 10
1.103044
 20
2.019680
  0
VERTEX
  8
FOREGROUND
  6
CONTINUOUS
 10
1.093578
 20
2.020207
  0
VERTEX
  8
FOREGROUND
  6
CONTINUOUS
 10
1.084108
 20
2.020652
  0
VERTEX
  8
FOREGROUND
  6
CONTINUOUS
 10
1.074634
 20
2.021017
  0
VERTEX
  8
FOREGROUND
  6
CONTINUOUS
 10
1.065157
 20
2.021301
  0
VERTEX
  8
FOREGROUND
  6
CONTINUOUS
 10
1.055678
 20
2.021504
  0
VERTEX
  8
FOREGROUND
  6
CONTINUOUS
 10
1.046197
 20
2.021625
  0
VERTEX
  8
FOREGROUND
  6
CONTINUOUS
 10
1.036715
 20
2.021666
  0
VERTEX
  8
FOREGROUND
  6
CONTINUOUS
 10
1.027234
 20
2.021626
  0
VERTEX
  8
FOREGROUND
  6
CONTINUOUS
 10
1.017753
 20
2.021505
  0
VERTEX
  8
FOREGROUND
  6
CONTINUOUS
 10
1.008273
 20
2.021303
  0
VERTEX
  8
FOREGROUND
  6
CONTINUOUS
 10
0.998796
 20
2.021021
  0
VERTEX
  8
FOREGROUND
  6
CONTINUOUS
 10
0.989322
 20
2.020657
  0
VERTEX
  8
FOREGROUND
  6
CONTINUOUS
 10
0.979852
 20
2.020212
  0
VERTEX
  8
FOREGROUND
  6
CONTINUOUS
 10
0.970387
 20
2.019686
  0
VERTEX
  8
FOREGROUND
  6
CONTINUOUS
 10
0.960927
 20
2.019080
  0
VERTEX
  8
FOREGROUND
  6
CONTINUOUS
 10
0.951473
 20
2.018392
  0
VERTEX
  8
FOREGROUND
  6
CONTINUOUS
 10
0.942026
 20
2.017623
  0
VERTEX
  8
FOREGROUND
  6
CONTINUOUS
 10
0.932587
 20
2.016774
  0
VERTEX
  8
FOREGROUND
  6
CONTINUOUS
 10
0.923157
 20
2.015843
  0
VERTEX
  8
FOREGROUND
  6
CONTINUOUS
 10
0.913736
 20
2.014832
  0
VERTEX
  8
FOREGROUND
  6
CONTINUOUS
 10
0.904325
 20
2.013740
  0
VERTEX
  8
FOREGROUND
  6
CONTINUOUS
 10
0.894925
 20
2.012566
  0
VERTEX
  8
FOREGROUND
  6
CONTINUOUS
 10
0.885537
 20
2.011312
  0
VERTEX
  8
FOREGROUND
  6
CONTINUOUS
 10
0.876161
 20
2.009977
  0
VERTEX
  8
FOREGROUND
  6
CONTINUOUS
 10
0.866798
 20
2.008561
  0
VERTEX
  8
FOREGROUND
  6
CONTINUOUS
 10
0.857449
 20
2.007064
  0
VERTEX
  8
FOREGROUND
  6
CONTINUOUS
 10
0.848115
 20
2.005486
  0
VERTEX
  8
FOREGROUND
  6
CONTINUOUS
 10
0.838797
 20
2.003827
  0
VERTEX
  8
FOREGROUND
  6
CONTINUOUS
 10
0.829495
 20
2.002087
  0
VERTEX
  8
FOREGROUND
  6
CONTINUOUS
 10
0.820210
 20
2.000266
  0
VERTEX
  8
FOREGROUND
  6
CONTINUOUS
 10
0.810943
 20
1.998364
  0
VERTEX
  8
FOREGROUND
  6
CONTINUOUS
 10
0.801695
 20
1.996381
  0
VERTEX
  8
FOREGROUND
  6
CONTINUOUS
 10
0.792466
 20
1.994318
  0
VERTEX
  8
FOREGROUND
  6
CONTINUOUS
 10
0.783257
 20
1.992173
  0
VERTEX
  8
FOREGROUND
  6
CONTINUOUS
 10
0.774070
 20
1.989948
  0
VERTEX
  8
FOREGROUND
  6
CONTINUOUS
 10
0.764904
 20
1.987641
  0
VERTEX
  8
FOREGROUND
  6
CONTINUOUS
 10
0.755761
 20
1.985253
  0
VERTEX
  8
FOREGROUND
  6
CONTINUOUS
 10
0.746641
 20
1.982785
  0
VERTEX
  8
FOREGROUND
  6
CONTINUOUS
 10
0.737545
 20
1.980236
  0
VERTEX
  8
FOREGROUND
  6
CONTINUOUS
 10
0.728474
 20
1.977605
  0
VERTEX
  8
FOREGROUND
  6
CONTINUOUS
 10
0.719429
 20
1.974894
  0
VERTEX
  8
FOREGROUND
  6
CONTINUOUS
 10
0.710410
 20
1.972102
  0
VERTEX
  8
FOREGROUND
  6
CONTINUOUS
 10
0.701419
 20
1.969229
  0
VERTEX
  8
FOREGROUND
  6
CONTINUOUS
 10
0.692455
 20
1.966275
  0
VERTEX
  8
FOREGROUND
  6
CONTINUOUS
 10
0.683521
 20
1.963239
  0
VERTEX
  8
FOREGROUND
  6
CONTINUOUS
 10
0.674615
 20
1.960123
  0
VERTEX
  8
FOREGROUND
  6
CONTINUOUS
 10
0.665741
 20
1.956926
  0
VERTEX
  8
FOREGROUND
  6
CONTINUOUS
 10
0.656897
 20
1.953649
  0
VERTEX
  8
FOREGROUND
  6
CONTINUOUS
 10
0.648085
 20
1.950290
  0
VERTEX
  8
FOREGROUND
  6
CONTINUOUS
 10
0.639306
 20
1.946850
  0
VERTEX
  8
FOREGROUND
  6
CONTINUOUS
 10
0.630561
 20
1.943329
  0
VERTEX
  8
FOREGROUND
  6
CONTINUOUS
 10
0.621850
 20
1.939727
  0
VERTEX
  8
FOREGROUND
  6
CONTINUOUS
 10
0.613173
 20
1.936045
  0
VERTEX
  8
FOREGROUND
  6
CONTINUOUS
 10
0.604533
 20
1.932281
  0
VERTEX
  8
FOREGROUND
  6
CONTINUOUS
 10
0.595929
 20
1.928437
  0
VERTEX
  8
FOREGROUND
  6
CONTINUOUS
 10
0.587362
 20
1.924511
  0
VERTEX
  8
FOREGROUND
  6
CONTINUOUS
 10
0.578834
 20
1.920505
  0
VERTEX
  8
FOREGROUND
  6
CONTINUOUS
 10
0.570344
 20
1.916417
  0
VERTEX
  8
FOREGROUND
  6
CONTINUOUS
 10
0.561895
 20
1.912249
  0
VERTEX
  8
FOREGROUND
  6
CONTINUOUS
 10
0.553485
 20
1.908000
  0
VERTEX
  8
FOREGROUND
  6
CONTINUOUS
 10
0.545117
 20
1.903669
  0
VERTEX
  8
FOREGROUND
  6
CONTINUOUS
 10
0.536791
 20
1.899258
  0
VERTEX
  8
FOREGROUND
  6
CONTINUOUS
 10
0.528508
 20
1.894766
  0
VERTEX
  8
FOREGROUND
  6
CONTINUOUS
 10
0.520268
 20
1.890193
  0
VERTEX
  8
FOREGROUND
  6
CONTINUOUS
 10
0.512073
 20
1.885539
  0
VERTEX
  8
FOREGROUND
  6
CONTINUOUS
 10
0.503923
 20
1.880804
  0
VERTEX
  8
FOREGROUND
  6
CONTINUOUS
 10
0.495818
 20
1.875988
  0
VERTEX
  8
FOREGROUND
  6
CONTINUOUS
 10
0.487761
 20
1.871091
  0
VERTEX
  8
FOREGROUND
  6
CONTINUOUS
 10
0.479751
 20
1.866113
  0
VERTEX
  8
FOREGROUND
  6
CONTINUOUS
 10
0.471789
 20
1.861055
  0
VERTEX
  8
FOREGROUND
  6
CONTINUOUS
 10
0.463876
 20
1.855915
  0
VERTEX
  8
FOREGROUND
  6
CONTINUOUS
 10
0.456013
 20
1.850694
  0
VERTEX
  8
FOREGROUND
  6
CONTINUOUS
 10
0.448201
 20
1.845393
  0
VERTEX
  8
FOREGROUND
  6
CONTINUOUS
 10
0.440440
 20
1.840010
  0
VERTEX
  8
FOREGROUND
  6
CONTINUOUS
 10
0.432731
 20
1.834547
  0
VERTEX
  8
FOREGROUND
  6
CONTINUOUS
 10
0.425075
 20
1.829002
  0
VERTEX
  8
FOREGROUND
  6
CONTINUOUS
 10
0.417473
 20
1.823377
  0
VERTEX
  8
FOREGROUND
  6
CONTINUOUS
 10
0.409925
 20
1.817670
  0
VERTEX
  8
FOREGROUND
  6
CONTINUOUS
 10
0.402433
 20
1.811883
  0
VERTEX
  8
FOREGROUND
  6
CONTINUOUS
 10
0.394996
 20
1.806015
  0
VERTEX
  8
FOREGROUND
  6
CONTINUOUS
 10
0.387616
 20
1.800065
  0
VERTEX
  8
FOREGROUND
  6
CONTINUOUS
 10
0.380294
 20
1.794035
  0
VERTEX
  8
FOREGROUND
  6
CONTINUOUS
 10
0.373031
 20
1.787924
  0
VERTEX
  8
FOREGROUND
  6
CONTINUOUS
 10
0.365826
 20
1.781732
  0
VERTEX
  8
FOREGROUND
  6
CONTINUOUS
 10
0.358682
 20
1.775459
  0
VERTEX
  8
FOREGROUND
  6
CONTINUOUS
 10
0.351598
 20
1.769105
  0
VERTEX
  8
FOREGROUND
  6
CONTINUOUS
 10
0.344575
 20
1.762670
  0
VERTEX
  8
FOREGROUND
  6
CONTINUOUS
 10
0.337615
 20
1.756154
  0
VERTEX
  8
FOREGROUND
  6
CONTINUOUS
 10
0.330718
 20
1.749558
  0
VERTEX
  8
FOREGROUND
  6
CONTINUOUS
 10
0.323885
 20
1.742880
  0
VERTEX
  8
FOREGROUND
  6
CONTINUOUS
 10
0.317116
 20
1.736121
  0
VERTEX
  8
FOREGROUND
  6
CONTINUOUS
 10
0.310413
 20
1.729282
  0
VERTEX
  8
FOREGROUND
  6
CONTINUOUS
 10
0.303776
 20
1.722361
  0
VERTEX
  8
FOREGROUND
  6
CONTINUOUS
 10
0.297206
 20
1.715359
  0
VERTEX
  8
FOREGROUND
  6
CONTINUOUS
 10
0.290703
 20
1.708277
  0
VERTEX
  8
FOREGROUND
  6
CONTINUOUS
 10
0.284269
 20
1.701113
  0
VERTEX
  8
FOREGROUND
  6
CONTINUOUS
 10
0.277904
 20
1.693869
  0
VERTEX
  8
FOREGROUND
  6
CONTINUOUS
 10
0.271610
 20
1.686544
  0
VERTEX
  8
FOREGROUND
  6
CONTINUOUS
 10
0.265386
 20
1.679137
  0
VERTEX
  8
FOREGROUND
  6
CONTINUOUS
 10
0.259234
 20
1.671650
  0
VERTEX
  8
FOREGROUND
  6
CONTINUOUS
 10
0.253154
 20
1.664082
  0
VERTEX
  8
FOREGROUND
  6
CONTINUOUS
 10
0.247147
 20
1.656433
  0
VERTEX
  8
FOREGROUND
  6
CONTINUOUS
 10
0.241214
 20
1.648703
  0
VERTEX
  8
FOREGROUND
  6
CONTINUOUS
 10
0.235356
 20
1.640892
  0
VERTEX
  8
FOREGROUND
  6
CONTINUOUS
 10
0.229574
 20
1.633000
  0
VERTEX
  8
FOREGROUND
  6
CONTINUOUS
 10
0.223868
 20
1.625027
  0
VERTEX
  8
FOREGROUND
  6
CONTINUOUS
 10
0.218238
 20
1.616973
  0
VERTEX
  8
FOREGROUND
  6
CONTINUOUS
 10
0.212687
 20
1.608838
  0
VERTEX
  8
FOREGROUND
  6
CONTINUOUS
 10
0.207214
 20
1.600622
  0
VERTEX
  8
FOREGROUND
  6
CONTINUOUS
 10
0.201821
 20
1.592326
  0
VERTEX
  8
FOREGROUND
  6
CONTINUOUS
 10
0.196508
 20
1.583948
  0
VERTEX
  8
FOREGROUND
  6
CONTINUOUS
 10
0.191276
 20
1.575489
  0
VERTEX
  8
FOREGROUND
  6
CONTINUOUS
 10
0.186125
 20
1.566950
  0
VERTEX
  8
FOREGROUND
  6
CONTINUOUS
 10
0.181057
 20
1.558329
  0
VERTEX
  8
FOREGROUND
  6
CONTINUOUS
 10
0.176072
 20
1.549628
  0
VERTEX
  8
FOREGROUND
  6
CONTINUOUS
 10
0.171172
 20
1.540845
  0
VERTEX
  8
FOREGROUND
  6
CONTINUOUS
 10
0.166356
 20
1.531982
  0
VERTEX
  8
FOREGROUND
  6
CONTINUOUS
 10
0.161626
 20
1.523037
  0
VERTEX
  8
FOREGROUND
  6
CONTINUOUS
 10
0.156982
 20
1.514012
  0
VERTEX
  8
FOREGROUND
  6
CONTINUOUS
 10
0.152425
 20
1.504906
  0
VERTEX
  8
FOREGROUND
  6
CONTINUOUS
 10
0.147956
 20
1.495719
  0
VERTEX
  8
FOREGROUND
  6
CONTINUOUS
 10
0.143576
 20
1.486451
  0
VERTEX
  8
FOREGROUND
  6
CONTINUOUS
 10
0.139286
 20
1.477101
  0
VERTEX
  8
FOREGROUND
  6
CONTINUOUS
 10
0.135086
 20
1.467671
  0
VERTEX
  8
FOREGROUND
  6
CONTINUOUS
 10
0.130977
 20
1.458160
  0
VERTEX
  8
FOREGROUND
  6
CONTINUOUS
 10
0.126959
 20
1.448568
  0
VERTEX
  8
FOREGROUND
  6
CONTINUOUS
 10
0.123035
 20
1.438896
  0
VERTEX
  8
FOREGROUND
  6
CONTINUOUS
 10
0.119203
 20
1.429142
  0
VERTEX
  8
FOREGROUND
  6
CONTINUOUS
 10
0.115466
 20
1.419307
  0
VERTEX
  8
FOREGROUND
  6
CONTINUOUS
 10
0.111824
 20
1.409391
  0
VERTEX
  8
FOREGROUND
  6
CONTINUOUS
 10
0.108278
 20
1.399394
  0
VERTEX
  8
FOREGROUND
  6
CONTINUOUS
 10
0.104828
 20
1.389317
  0
VERTEX
  8
FOREGROUND
  6
CONTINUOUS
 10
0.101476
 20
1.379158
  0
VERTEX
  8
FOREGROUND
  6
CONTINUOUS
 10
0.098221
 20
1.368919
  0
VERTEX
  8
FOREGROUND
  6
CONTINUOUS
 10
0.095065
 20
1.358598
  0
VERTEX
  8
FOREGROUND
  6
CONTINUOUS
 10
0.092009
 20
1.348197
  0
VERTEX
  8
FOREGROUND
  6
CONTINUOUS
 10
0.089054
 20
1.337714
  0
VERTEX
  8
FOREGROUND
  6
CONTINUOUS
 10
0.086199
 20
1.327151
  0
VERTEX
  8
FOREGROUND
  6
CONTINUOUS
 10
0.083447
 20
1.316507
  0
VERTEX
  8
FOREGROUND
  6
CONTINUOUS
 10
0.080797
 20
1.305781
  0
VERTEX
  8
FOREGROUND
  6
CONTINUOUS
 10
0.078251
 20
1.294975
  0
VERTEX
  8
FOREGROUND
  6
CONTINUOUS
 10
0.075809
 20
1.284088
  0
VERTEX
  8
FOREGROUND
  6
CONTINUOUS
 10
0.073472
 20
1.273120
  0
VERTEX
  8
FOREGROUND
  6
CONTINUOUS
 10
0.071241
 20
1.262071
  0
VERTEX
  8
FOREGROUND
  6
CONTINUOUS
 10
0.069117
 20
1.250941
  0
VERTEX
  8
FOREGROUND
  6
CONTINUOUS
 10
0.067100
 20
1.239730
  0
VERTEX
  8
FOREGROUND
  6
CONTINUOUS
 10
0.065191
 20
1.228438
  0
VERTEX
  8
FOREGROUND
  6
CONTINUOUS
 10
0.063391
 20
1.217065
  0
VERTEX
  8
FOREGROUND
  6
CONTINUOUS
 10
0.061701
 20
1.205611
  0
VERTEX
  8
FOREGROUND
  6
CONTINUOUS
 10
0.060122
 20
1.194077
  0
VERTEX
  8
FOREGROUND
  6
CONTINUOUS
 10
0.058654
 20
1.182461
  0
VERTEX
  8
FOREGROUND
  6
CONTINUOUS
 10
0.057297
 20
1.170764
  0
VERTEX
  8
FOREGROUND
  6
CONTINUOUS
 10
0.056054
 20
1.158986
  0
VERTEX
  8
FOREGROUND
  6
CONTINUOUS
 10
0.054925
 20
1.147128
  0
VERTEX
  8
FOREGROUND
  6
CONTINUOUS
 10
0.053909
 20
1.135188
  0
VERTEX
  8
FOREGROUND
  6
CONTINUOUS
 10
0.053009
 20
1.123168
  0
VERTEX
  8
FOREGROUND
  6
CONTINUOUS
 10
0.052225
 20
1.111066
  0
VERTEX
  8
FOREGROUND
  6
CONTINUOUS
 10
0.051558
 20
1.098884
  0
VERTEX
  8
FOREGROUND
  6
CONTINUOUS
 10
0.051008
 20
1.086621
  0
VERTEX
  8
FOREGROUND
  6
CONTINUOUS
 10
0.050577
 20
1.074276
  0
VERTEX
  8
FOREGROUND
  6
CONTINUOUS
 10
0.050264
 20
1.061851
  0
VERTEX
  8
FOREGROUND
  6
CONTINUOUS
 10
0.050072
 20
1.049345
  0
VERTEX
  8
FOREGROUND
  6
CONTINUOUS
 10
0.050000
 20
1.036758
  0
VERTEX
  8
FOREGROUND
  6
CONTINUOUS
 10
0.050000
 20
1.036758
  0
VERTEX
  8
FOREGROUND
  6
CONTINUOUS
 10
0.050069
 20
1.024171
  0
VERTEX
  8
FOREGROUND
  6
CONTINUOUS
 10
0.050260
 20
1.011665
  0
VERTEX
  8
FOREGROUND
  6
CONTINUOUS
 10
0.050570
 20
0.999239
  0
VERTEX
  8
FOREGROUND
  6
CONTINUOUS
 10
0.050999
 20
0.986895
  0
VERTEX
  8
FOREGROUND
  6
CONTINUOUS
 10
0.051546
 20
0.974631
  0
VERTEX
  8
FOREGROUND
  6
CONTINUOUS
 10
0.052211
 20
0.962449
  0
VERTEX
  8
FOREGROUND
  6
CONTINUOUS
 10
0.052993
 20
0.950347
  0
VERTEX
  8
FOREGROUND
  6
CONTINUOUS
 10
0.053890
 20
0.938327
  0
VERTEX
  8
FOREGROUND
  6
CONTINUOUS
 10
0.054903
 20
0.926387
  0
VERTEX
  8
FOREGROUND
  6
CONTINUOUS
 10
0.056031
 20
0.914528
  0
VERTEX
  8
FOREGROUND
  6
CONTINUOUS
 10
0.057272
 20
0.902750
  0
VERTEX
  8
FOREGROUND
  6
CONTINUOUS
 10
0.058626
 20
0.891053
  0
VERTEX
  8
FOREGROUND
  6
CONTINUOUS
 10
0.060092
 20
0.879437
  0
VERTEX
  8
FOREGROUND
  6
CONTINUOUS
 10
0.061669
 20
0.867902
  0
VERTEX
  8
FOREGROUND
  6
CONTINUOUS
 10
0.063357
 20
0.856448
  0
VERTEX
  8
FOREGROUND
  6
CONTINUOUS
 10
0.065154
 20
0.845075
  0
VERTEX
  8
FOREGROUND
  6
CONTINUOUS
 10
0.067061
 20
0.833783
  0
VERTEX
  8
FOREGROUND
  6
CONTINUOUS
 10
0.069076
 20
0.822571
  0
VERTEX
  8
FOREGROUND
  6
CONTINUOUS
 10
0.071198
 20
0.811441
  0
VERTEX
  8
FOREGROUND
  6
CONTINUOUS
 10
0.073427
 20
0.800392
  0
VERTEX
  8
FOREGROUND
  6
CONTINUOUS
 10
0.075762
 20
0.789423
  0
VERTEX
  8
FOREGROUND
  6
CONTINUOUS
 10
0.078201
 20
0.778535
  0
VERTEX
  8
FOREGROUND
  6
CONTINUOUS
 10
0.080746
 20
0.767729
  0
VERTEX
  8
FOREGROUND
  6
CONTINUOUS
 10
0.083393
 20
0.757003
  0
VERTEX
  8
FOREGROUND
  6
CONTINUOUS
 10
0.086144
 20
0.746358
  0
VERTEX
  8
FOREGROUND
  6
CONTINUOUS
 10
0.088996
 20
0.735794
  0
VERTEX
  8
FOREGROUND
  6
CONTINUOUS
 10
0.091950
 20
0.725311
  0
VERTEX
  8
FOREGROUND
  6
CONTINUOUS
 10
0.095004
 20
0.714909
  0
VERTEX
  8
FOREGROUND
  6
CONTINUOUS
 10
0.098157
 20
0.704588
  0
VERTEX
  8
FOREGROUND
  6
CONTINUOUS
 10
0.101410
 20
0.694348
  0
VERTEX
  8
FOREGROUND
  6
CONTINUOUS
 10
0.104761
 20
0.684189
  0
VERTEX
  8
FOREGROUND
  6
CONTINUOUS
 10
0.108208
 20
0.674111
  0
VERTEX
  8
FOREGROUND
  6
CONTINUOUS
 10
0.111753
 20
0.664113
  0
VERTEX
  8
FOREGROUND
  6
CONTINUOUS
 10
0.115393
 20
0.654197
  0
VERTEX
  8
FOREGROUND
  6
CONTINUOUS
 10
0.119128
 20
0.644361
  0
VERTEX
  8
FOREGROUND
  6
CONTINUOUS
 10
0.122958
 20
0.634607
  0
VERTEX
  8
FOREGROUND
  6
CONTINUOUS
 10
0.126880
 20
0.624933
  0
VERTEX
  8
FOREGROUND
  6
CONTINUOUS
 10
0.130896
 20
0.615341
  0
VERTEX
  8
FOREGROUND
  6
CONTINUOUS
 10
0.135003
 20
0.605829
  0
VERTEX
  8
FOREGROUND
  6
CONTINUOUS
 10
0.139202
 20
0.596398
  0
VERTEX
  8
FOREGROUND
  6
CONTINUOUS
 10
0.143490
 20
0.587048
  0
VERTEX
  8
FOREGROUND
  6
CONTINUOUS
 10
0.147868
 20
0.577779
  0
VERTEX
  8
FOREGROUND
  6
CONTINUOUS
 10
0.152335
 20
0.568591
  0
VERTEX
  8
FOREGROUND
  6
CONTINUOUS
 10
0.156890
 20
0.559484
  0
VERTEX
  8
FOREGROUND
  6
CONTINUOUS
 10
0.161532
 20
0.550458
  0
VERTEX
  8
FOREGROUND
  6
CONTINUOUS
 10
0.166261
 20
0.541513
  0
VERTEX
  8
FOREGROUND
  6
CONTINUOUS
 10
0.171075
 20
0.532648
  0
VERTEX
  8
FOREGROUND
  6
CONTINUOUS
 10
0.175974
 20
0.523865
  0
VERTEX
  8
FOREGROUND
  6
CONTINUOUS
 10
0.180957
 20
0.515163
  0
VERTEX
  8
FOREGROUND
  6
CONTINUOUS
 10
0.186023
 20
0.506541
  0
VERTEX
  8
FOREGROUND
  6
CONTINUOUS
 10
0.191172
 20
0.498001
  0
VERTEX
  8
FOREGROUND
  6
CONTINUOUS
 10
0.196403
 20
0.489541
  0
VERTEX
  8
FOREGROUND
  6
CONTINUOUS
 10
0.201715
 20
0.481162
  0
VERTEX
  8
FOREGROUND
  6
CONTINUOUS
 10
0.207106
 20
0.472865
  0
VERTEX
  8
FOREGROUND
  6
CONTINUOUS
 10
0.212577
 20
0.464648
  0
VERTEX
  8
FOREGROUND
  6
CONTINUOUS
 10
0.218127
 20
0.456512
  0
VERTEX
  8
FOREGROUND
  6
CONTINUOUS
 10
0.223755
 20
0.448457
  0
VERTEX
  8
FOREGROUND
  6
CONTINUOUS
 10
0.229460
 20
0.440483
  0
VERTEX
  8
FOREGROUND
  6
CONTINUOUS
 10
0.235241
 20
0.432590
  0
VERTEX
  8
FOREGROUND
  6
CONTINUOUS
 10
0.241097
 20
0.424778
  0
VERTEX
  8
FOREGROUND
  6
CONTINUOUS
 10
0.247028
 20
0.417047
  0
VERTEX
  8
FOREGROUND
  6
CONTINUOUS
 10
0.253034
 20
0.409396
  0
VERTEX
  8
FOREGROUND
  6
CONTINUOUS
 10
0.259112
 20
0.401827
  0
VERTEX
  8
FOREGROUND
  6
CONTINUOUS
 10
0.265263
 20
0.394339
  0
VERTEX
  8
FOREGROUND
  6
CONTINUOUS
 10
0.271485
 20
0.386931
  0
VERTEX
  8
FOREGROUND
  6
CONTINUOUS
 10
0.277779
 20
0.379605
  0
VERTEX
  8
FOREGROUND
  6
CONTINUOUS
 10
0.284142
 20
0.372359
  0
VERTEX
  8
FOREGROUND
  6
CONTINUOUS
 10
0.290574
 20
0.365194
  0
VERTEX
  8
FOREGROUND
  6
CONTINUOUS
 10
0.297076
 20
0.358111
  0
VERTEX
  8
FOREGROUND
  6
CONTINUOUS
 10
0.303644
 20
0.351108
  0
VERTEX
  8
FOREGROUND
  6
CONTINUOUS
 10
0.310280
 20
0.344186
  0
VERTEX
  8
FOREGROUND
  6
CONTINUOUS
 10
0.316982
 20
0.337345
  0
VERTEX
  8
FOREGROUND
  6
CONTINUOUS
 10
0.323750
 20
0.330585
  0
VERTEX
  8
FOREGROUND
  6
CONTINUOUS
 10
0.330582
 20
0.323906
  0
VERTEX
  8
FOREGROUND
  6
CONTINUOUS
 10
0.337477
 20
0.317308
  0
VERTEX
  8
FOREGROUND
  6
CONTINUOUS
 10
0.344436
 20
0.310791
  0
VERTEX
  8
FOREGROUND
  6
CONTINUOUS
 10
0.351457
 20
0.304355
  0
VERTEX
  8
FOREGROUND
  6
CONTINUOUS
 10
0.358540
 20
0.298000
  0
VERTEX
  8
FOREGROUND
  6
CONTINUOUS
 10
0.365683
 20
0.291725
  0
VERTEX
  8
FOREGROUND
  6
CONTINUOUS
 10
0.372887
 20
0.285532
  0
VERTEX
  8
FOREGROUND
  6
CONTINUOUS
 10
0.380149
 20
0.279419
  0
VERTEX
  8
FOREGROUND
  6
CONTINUOUS
 10
0.387470
 20
0.273388
  0
VERTEX
  8
FOREGROUND
  6
CONTINUOUS
 10
0.394849
 20
0.267437
  0
VERTEX
  8
FOREGROUND
  6
CONTINUOUS
 10
0.402284
 20
0.261568
  0
VERTEX
  8
FOREGROUND
  6
CONTINUOUS
 10
0.409775
 20
0.255779
  0
VERTEX
  8
FOREGROUND
  6
CONTINUOUS
 10
0.417322
 20
0.250071
  0
VERTEX
  8
FOREGROUND
  6
CONTINUOUS
 10
0.424923
 20
0.244444
  0
VERTEX
  8
FOREGROUND
  6
CONTINUOUS
 10
0.432578
 20
0.238899
  0
VERTEX
  8
FOREGROUND
  6
CONTINUOUS
 10
0.440286
 20
0.233434
  0
VERTEX
  8
FOREGROUND
  6
CONTINUOUS
 10
0.448046
 20
0.228050
  0
VERTEX
  8
FOREGROUND
  6
CONTINUOUS
 10
0.455857
 20
0.222747
  0
VERTEX
  8
FOREGROUND
  6
CONTINUOUS
 10
0.463719
 20
0.217524
  0
VERTEX
  8
FOREGROUND
  6
CONTINUOUS
 10
0.471631
 20
0.212383
  0
VERTEX
  8
FOREGROUND
  6
CONTINUOUS
 10
0.479592
 20
0.207323
  0
VERTEX
  8
FOREGROUND
  6
CONTINUOUS
 10
0.487601
 20
0.202344
  0
VERTEX
  8
FOREGROUND
  6
CONTINUOUS
 10
0.495658
 20
0.197445
  0
VERTEX
  8
FOREGROUND
  6
CONTINUOUS
 10
0.503761
 20
0.192628
  0
VERTEX
  8
FOREGROUND
  6
CONTINUOUS
 10
0.511910
 20
0.187891
  0
VERTEX
  8
FOREGROUND
  6
CONTINUOUS
 10
0.520105
 20
0.183236
  0
VERTEX
  8
FOREGROUND
  6
CONTINUOUS
 10
0.528343
 20
0.178661
  0
VERTEX
  8
FOREGROUND
  6
CONTINUOUS
 10
0.536626
 20
0.174168
  0
VERTEX
  8
FOREGROUND
  6
CONTINUOUS
 10
0.544951
 20
0.169755
  0
VERTEX
  8
FOREGROUND
  6
CONTINUOUS
 10
0.553318
 20
0.165423
  0
VERTEX
  8
FOREGROUND
  6
CONTINUOUS
 10
0.561727
 20
0.161172
  0
VERTEX
  8
FOREGROUND
  6
CONTINUOUS
 10
0.570176
 20
0.157002
  0
VERTEX
  8
FOREGROUND
  6
CONTINUOUS
 10
0.578664
 20
0.152913
  0
VERTEX
  8
FOREGROUND
  6
CONTINUOUS
 10
0.587192
 20
0.148905
  0
VERTEX
  8
FOREGROUND
  6
CONTINUOUS
 10
0.595758
 20
0.144978
  0
VERTEX
  8
FOREGROUND
  6
CONTINUOUS
 10
0.604361
 20
0.141132
  0
VERTEX
  8
FOREGROUND
  6
CONTINUOUS
 10
0.613001
 20
0.137367
  0
VERTEX
  8
FOREGROUND
  6
CONTINUOUS
 10
0.621676
 20
0.133683
  0
VERTEX
  8
FOREGROUND
  6
CONTINUOUS
 10
0.630387
 20
0.130079
  0
VERTEX
  8
FOREGROUND
  6
CONTINUOUS
 10
0.639132
 20
0.126557
  0
VERTEX
  8
FOREGROUND
  6
CONTINUOUS
 10
0.647910
 20
0.123116
  0
VERTEX
  8
FOREGROUND
  6
CONTINUOUS
 10
0.656721
 20
0.119755
  0
VERTEX
  8
FOREGROUND
  6
CONTINUOUS
 10
0.665564
 20
0.116475
  0
VERTEX
  8
FOREGROUND
  6
CONTINUOUS
 10
0.674439
 20
0.113277
  0
VERTEX
  8
FOREGROUND
  6
CONTINUOUS
 10
0.683343
 20
0.110159
  0
VERTEX
  8
FOREGROUND
  6
CONTINUOUS
 10
0.692277
 20
0.107122
  0
VERTEX
  8
FOREGROUND
  6
CONTINUOUS
 10
0.701240
 20
0.104167
  0
VERTEX
  8
FOREGROUND
  6
CONTINUOUS
 10
0.710231
 20
0.101292
  0
VERTEX
  8
FOREGROUND
  6
CONTINUOUS
 10
0.719249
 20
0.098498
  0
VERTEX
  8
FOREGROUND
  6
CONTINUOUS
 10
0.728294
 20
0.095785
  0
VERTEX
  8
FOREGROUND
  6
CONTINUOUS
 10
0.737364
 20
0.093153
  0
VERTEX
  8
FOREGROUND
  6
CONTINUOUS
 10
0.746459
 20
0.090602
  0
VERTEX
  8
FOREGROUND
  6
CONTINUOUS
 10
0.755579
 20
0.088132
  0
VERTEX
  8
FOREGROUND
  6
CONTINUOUS
 10
0.764722
 20
0.085743
  0
VERTEX
  8
FOREGROUND
  6
CONTINUOUS
 10
0.773887
 20
0.083434
  0
VERTEX
  8
FOREGROUND
  6
CONTINUOUS
 10
0.783074
 20
0.081207
  0
VERTEX
  8
FOREGROUND
  6
CONTINUOUS
 10
0.792282
 20
0.079061
  0
VERTEX
  8
FOREGROUND
  6
CONTINUOUS
 10
0.801511
 20
0.076995
  0
VERTEX
  8
FOREGROUND
  6
CONTINUOUS
 10
0.810759
 20
0.075011
  0
VERTEX
  8
FOREGROUND
  6
CONTINUOUS
 10
0.820025
 20
0.073107
  0
VERTEX
  8
FOREGROUND
  6
CONTINUOUS
 10
0.829310
 20
0.071285
  0
VERTEX
  8
FOREGROUND
  6
CONTINUOUS
 10
0.838612
 20
0.069543
  0
VERTEX
  8
FOREGROUND
  6
CONTINUOUS
 10
0.847930
 20
0.067882
  0
VERTEX
  8
FOREGROUND
  6
CONTINUOUS
 10
0.857263
 20
0.066303
  0
VERTEX
  8
FOREGROUND
  6
CONTINUOUS
 10
0.866612
 20
0.064804
  0
VERTEX
  8
FOREGROUND
  6
CONTINUOUS
 10
0.875974
 20
0.063386
  0
VERTEX
  8
FOREGROUND
  6
CONTINUOUS
 10
0.885350
 20
0.062049
  0
VERTEX
  8
FOREGROUND
  6
CONTINUOUS
 10
0.894738
 20
0.060793
  0
VERTEX
  8
FOREGROUND
  6
CONTINUOUS
 10
0.904138
 20
0.059618
  0
VERTEX
  8
FOREGROUND
  6
CONTINUOUS
 10
0.913549
 20
0.058524
  0
VERTEX
  8
FOREGROUND
  6
CONTINUOUS
 10
0.922969
 20
0.057511
  0
VERTEX
  8
FOREGROUND
  6
CONTINUOUS
 10
0.932400
 20
0.056579
  0
VERTEX
  8
FOREGROUND
  6
CONTINUOUS
 10
0.941838
 20
0.055727
  0
VERTEX
  8
FOREGROUND
  6
CONTINUOUS
 10
0.951285
 20
0.054957
  0
VERTEX
  8
FOREGROUND
  6
CONTINUOUS
 10
0.960739
 20
0.054268
  0
VERTEX
  8
FOREGROUND
  6
CONTINUOUS
 10
0.970198
 20
0.053659
  0
VERTEX
  8
FOREGROUND
  6
CONTINUOUS
 10
0.979664
 20
0.053132
  0
VERTEX
  8
FOREGROUND
  6
CONTINUOUS
 10
0.989134
 20
0.052685
  0
VERTEX
  8
FOREGROUND
  6
CONTINUOUS
 10
0.998608
 20
0.052320
  0
VERTEX
  8
FOREGROUND
  6
CONTINUOUS
 10
1.008085
 20
0.052035
  0
VERTEX
  8
FOREGROUND
  6
CONTINUOUS
 10
1.017564
 20
0.051832
  0
VERTEX
  8
FOREGROUND
  6
CONTINUOUS
 10
1.027045
 20
0.051709
  0
VERTEX
  8
FOREGROUND
  6
CONTINUOUS
 10
1.036527
 20
0.051667
  0
VERTEX
  8
FOREGROUND
  6
CONTINUOUS
 10
1.046008
 20
0.051706
  0
VERTEX
  8
FOREGROUND
  6
CONTINUOUS
 10
1.055489
 20
0.051826
  0
VERTEX
  8
FOREGROUND
  6
CONTINUOUS
 10
1.064969
 20
0.052027
  0
VERTEX
  8
FOREGROUND
  6
CONTINUOUS
 10
1.074446
 20
0.052309
  0
VERTEX
  8
FOREGROUND
  6
CONTINUOUS
 10
1.083920
 20
0.052672
  0
VERTEX
  8
FOREGROUND
  6
CONTINUOUS
 10
1.093390
 20
0.053116
  0
VERTEX
  8
FOREGROUND
  6
CONTINUOUS
 10
1.102855
 20
0.053641
  0
VERTEX
  8
FOREGROUND
  6
CONTINUOUS
 10
1.112315
 20
0.054247
  0
VERTEX
  8
FOREGROUND
  6
CONTINUOUS
 10
1.121769
 20
0.054934
  0
VERTEX
  8
FOREGROUND
  6
CONTINUOUS
 10
1.131216
 20
0.055701
  0
VERTEX
  8
FOREGROUND
  6
CONTINUOUS
 10
1.140655
 20
0.056550
  0
VERTEX
  8
FOREGROUND
  6
CONTINUOUS
 10
1.150085
 20
0.057479
  0
VERTEX
  8
FOREGROUND
  6
CONTINUOUS
 10
1.159507
 20
0.058490
  0
VERTEX
  8
FOREGROUND
  6
CONTINUOUS
 10
1.168918
 20
0.059581
  0
VERTEX
  8
FOREGROUND
  6
CONTINUOUS
 10
1.178318
 20
0.060754
  0
VERTEX
  8
FOREGROUND
  6
CONTINUOUS
 10
1.187706
 20
0.062007
  0
VERTEX
  8
FOREGROUND
  6
CONTINUOUS
 10
1.197082
 20
0.063341
  0
VERTEX
  8
FOREGROUND
  6
CONTINUOUS
 10
1.206445
 20
0.064757
  0
VERTEX
  8
FOREGROUND
  6
CONTINUOUS
 10
1.215794
 20
0.066253
  0
VERTEX
  8
FOREGROUND
  6
CONTINUOUS
 10
1.225128
 20
0.067830
  0
VERTEX
  8
FOREGROUND
  6
CONTINUOUS
 10
1.234447
 20
0.069488
  0
VERTEX
  8
FOREGROUND
  6
CONTINUOUS
 10
1.243749
 20
0.071227
  0
VERTEX
  8
FOREGROUND
  6
CONTINUOUS
 10
1.253034
 20
0.073047
  0
VERTEX
  8
FOREGROUND
  6
CONTINUOUS
 10
1.262301
 20
0.074948
  0
VERTEX
  8
FOREGROUND
  6
CONTINUOUS
 10
1.271549
 20
0.076930
  0
VERTEX
  8
FOREGROUND
  6
CONTINUOUS
 10
1.280778
 20
0.078993
  0
VERTEX
  8
FOREGROUND
  6
CONTINUOUS
 10
1.289987
 20
0.081137
  0
VERTEX
  8
FOREGROUND
  6
CONTINUOUS
 10
1.299175
 20
0.083362
  0
VERTEX
  8
FOREGROUND
  6
CONTINUOUS
 10
1.308341
 20
0.085667
  0
VERTEX
  8
FOREGROUND
  6
CONTINUOUS
 10
1.317485
 20
0.088054
  0
VERTEX
  8
FOREGROUND
  6
CONTINUOUS
 10
1.326605
 20
0.090521
  0
VERTEX
  8
FOREGROUND
  6
CONTINUOUS
 10
1.335701
 20
0.093070
  0
VERTEX
  8
FOREGROUND
  6
CONTINUOUS
 10
1.344772
 20
0.095699
  0
VERTEX
  8
FOREGROUND
  6
CONTINUOUS
 10
1.353817
 20
0.098410
  0
VERTEX
  8
FOREGROUND
  6
CONTINUOUS
 10
1.362836
 20
0.101201
  0
VERTEX
  8
FOREGROUND
  6
CONTINUOUS
 10
1.371828
 20
0.104074
  0
VERTEX
  8
FOREGROUND
  6
CONTINUOUS
 10
1.380792
 20
0.107027
  0
VERTEX
  8
FOREGROUND
  6
CONTINUOUS
 10
1.389727
 20
0.110061
  0
VERTEX
  8
FOREGROUND
  6
CONTINUOUS
 10
1.398632
 20
0.113176
  0
VERTEX
  8
FOREGROUND
  6
CONTINUOUS
 10
1.407507
 20
0.116373
  0
VERTEX
  8
FOREGROUND
  6
CONTINUOUS
 10
1.416351
 20
0.119650
  0
VERTEX
  8
FOREGROUND
  6
CONTINUOUS
 10
1.425163
 20
0.123008
  0
VERTEX
  8
FOREGROUND
  6
CONTINUOUS
 10
1.433942
 20
0.126447
  0
VERTEX
  8
FOREGROUND
  6
CONTINUOUS
 10
1.442688
 20
0.129967
  0
VERTEX
  8
FOREGROUND
  6
CONTINUOUS
 10
1.451400
 20
0.133568
  0
VERTEX
  8
FOREGROUND
  6
CONTINUOUS
 10
1.460077
 20
0.137249
  0
VERTEX
  8
FOREGROUND
  6
CONTINUOUS
 10
1.468717
 20
0.141012
  0
VERTEX
  8
FOREGROUND
  6
CONTINUOUS
 10
1.477322
 20
0.144856
  0
VERTEX
  8
FOREGROUND
  6
CONTINUOUS
 10
1.485889
 20
0.148781
  0
VERTEX
  8
FOREGROUND
  6
CONTINUOUS
 10
1.494417
 20
0.152786
  0
VERTEX
  8
FOREGROUND
  6
CONTINUOUS
 10
1.502907
 20
0.156873
  0
VERTEX
  8
FOREGROUND
  6
CONTINUOUS
 10
1.511358
 20
0.161040
  0
VERTEX
  8
FOREGROUND
  6
CONTINUOUS
 10
1.519767
 20
0.165289
  0
VERTEX
  8
FOREGROUND
  6
CONTINUOUS
 10
1.528136
 20
0.169618
  0
VERTEX
  8
FOREGROUND
  6
CONTINUOUS
 10
1.536462
 20
0.174029
  0
VERTEX
  8
FOREGROUND
  6
CONTINUOUS
 10
1.544746
 20
0.178520
  0
VERTEX
  8
FOREGROUND
  6
CONTINUOUS
 10
1.552986
 20
0.183093
  0
VERTEX
  8
FOREGROUND
  6
CONTINUOUS
 10
1.561182
 20
0.187746
  0
VERTEX
  8
FOREGROUND
  6
CONTINUOUS
 10
1.569332
 20
0.192480
  0
VERTEX
  8
FOREGROUND
  6
CONTINUOUS
 10
1.577437
 20
0.197295
  0
VERTEX
  8
FOREGROUND
  6
CONTINUOUS
 10
1.585495
 20
0.202191
  0
VERTEX
  8
FOREGROUND
  6
CONTINUOUS
 10
1.593506
 20
0.207168
  0
VERTEX
  8
FOREGROUND
  6
CONTINUOUS
 10
1.601468
 20
0.212226
  0
VERTEX
  8
FOREGROUND
  6
CONTINUOUS
 10
1.609381
 20
0.217365
  0
VERTEX
  8
FOREGROUND
  6
CONTINUOUS
 10
1.617245
 20
0.222585
  0
VERTEX
  8
FOREGROUND
  6
CONTINUOUS
 10
1.625057
 20
0.227886
  0
VERTEX
  8
FOREGROUND
  6
CONTINUOUS
 10
1.632819
 20
0.233268
  0
VERTEX
  8
FOREGROUND
  6
CONTINUOUS
 10
1.640528
 20
0.238731
  0
VERTEX
  8
FOREGROUND
  6
CONTINUOUS
 10
1.648185
 20
0.244275
  0
VERTEX
  8
FOREGROUND
  6
CONTINUOUS
 10
1.655788
 20
0.249899
  0
VERTEX
  8
FOREGROUND
  6
CONTINUOUS
 10
1.663336
 20
0.255605
  0
VERTEX
  8
FOREGROUND
  6
CONTINUOUS
 10
1.670829
 20
0.261392
  0
VERTEX
  8
FOREGROUND
  6
CONTINUOUS
 10
1.678266
 20
0.267259
  0
VERTEX
  8
FOREGROUND
  6
CONTINUOUS
 10
1.685646
 20
0.273208
  0
VERTEX
  8
FOREGROUND
  6
CONTINUOUS
 10
1.692969
 20
0.279237
  0
VERTEX
  8
FOREGROUND
  6
CONTINUOUS
 10
1.700233
 20
0.285348
  0
VERTEX
  8
FOREGROUND
  6
CONTINUOUS
 10
1.707438
 20
0.291539
  0
VERTEX
  8
FOREGROUND
  6
CONTINUOUS
 10
1.714583
 20
0.297811
  0
VERTEX
  8
FOREGROUND
  6
CONTINUOUS
 10
1.721668
 20
0.304165
  0
VERTEX
  8
FOREGROUND
  6
CONTINUOUS
 10
1.728691
 20
0.310599
  0
VERTEX
  8
FOREGROUND
  6
CONTINUOUS
 10
1.735651
 20
0.317114
  0
VERTEX
  8
FOREGROUND
  6
CONTINUOUS
 10
1.742549
 20
0.323710
  0
VERTEX
  8
FOREGROUND
  6
CONTINUOUS
 10
1.749383
 20
0.330387
  0
VERTEX
  8
FOREGROUND
  6
CONTINUOUS
 10
1.756152
 20
0.337146
  0
VERTEX
  8
FOREGROUND
  6
CONTINUOUS
 10
1.762856
 20
0.343985
  0
VERTEX
  8
FOREGROUND
  6
CONTINUOUS
 10
1.769494
 20
0.350905
  0
VERTEX
  8
FOREGROUND
  6
CONTINUOUS
 10
1.776065
 20
0.357906
  0
VERTEX
  8
FOREGROUND
  6
CONTINUOUS
 10
1.782568
 20
0.364987
  0
VERTEX
  8
FOREGROUND
  6
CONTINUOUS
 10
1.789003
 20
0.372150
  0
VERTEX
  8
FOREGROUND
  6
CONTINUOUS
 10
1.795368
 20
0.379394
  0
VERTEX
  8
FOREGROUND
  6
CONTINUOUS
 10
1.801663
 20
0.386719
  0
VERTEX
  8
FOREGROUND
  6
CONTINUOUS
 10
1.807888
 20
0.394125
  0
VERTEX
  8
FOREGROUND
  6
CONTINUOUS
 10
1.814041
 20
0.401611
  0
VERTEX
  8
FOREGROUND
  6
CONTINUOUS
 10
1.820121
 20
0.409179
  0
VERTEX
  8
FOREGROUND
  6
CONTINUOUS
 10
1.826129
 20
0.416827
  0
VERTEX
  8
FOREGROUND
  6
CONTINUOUS
 10
1.832062
 20
0.424557
  0
VERTEX
  8
FOREGROUND
  6
CONTINUOUS
 10
1.837921
 20
0.432367
  0
VERTEX
  8
FOREGROUND
  6
CONTINUOUS
 10
1.843704
 20
0.440259
  0
VERTEX
  8
FOREGROUND
  6
CONTINUOUS
 10
1.849411
 20
0.448231
  0
VERTEX
  8
FOREGROUND
  6
CONTINUOUS
 10
1.855041
 20
0.456285
  0
VERTEX
  8
FOREGROUND
  6
CONTINUOUS
 10
1.860593
 20
0.464419
  0
VERTEX
  8
FOREGROUND
  6
CONTINUOUS
 10
1.866067
 20
0.472634
  0
VERTEX
  8
FOREGROUND
  6
CONTINUOUS
 10
1.871461
 20
0.480931
  0
VERTEX
  8
FOREGROUND
  6
CONTINUOUS
 10
1.876775
 20
0.489308
  0
VERTEX
  8
FOREGROUND
  6
CONTINUOUS
 10
1.882008
 20
0.497766
  0
VERTEX
  8
FOREGROUND
  6
CONTINUOUS
 10
1.887159
 20
0.506305
  0
VERTEX
  8
FOREGROUND
  6
CONTINUOUS
 10
1.892228
 20
0.514925
  0
VERTEX
  8
FOREGROUND
  6
CONTINUOUS
 10
1.897213
 20
0.523626
  0
VERTEX
  8
FOREGROUND
  6
CONTINUOUS
 10
1.902115
 20
0.532408
  0
VERTEX
  8
FOREGROUND
  6
CONTINUOUS
 10
1.906932
 20
0.541271
  0
VERTEX
  8
FOREGROUND
  6
CONTINUOUS
 10
1.911663
 20
0.550215
  0
VERTEX
  8
FOREGROUND
  6
CONTINUOUS
 10
1.916307
 20
0.559240
  0
VERTEX
  8
FOREGROUND
  6
CONTINUOUS
 10
1.920865
 20
0.568346
  0
VERTEX
  8
FOREGROUND
  6
CONTINUOUS
 10
1.925334
 20
0.577532
  0
VERTEX
  8
FOREGROUND
  6
CONTINUOUS
 10
1.929715
 20
0.586800
  0
VERTEX
  8
FOREGROUND
  6
CONTINUOUS
 10
1.934007
 20
0.596149
  0
VERTEX
  8
FOREGROUND
  6
CONTINUOUS
 10
1.938208
 20
0.605579
  0
VERTEX
  8
FOREGROUND
  6
CONTINUOUS
 10
1.942318
 20
0.615089
  0
VERTEX
  8
FOREGROUND
  6
CONTINUOUS
 10
1.946336
 20
0.624681
  0
VERTEX
  8
FOREGROUND
  6
CONTINUOUS
 10
1.950261
 20
0.634353
  0
VERTEX
  8
FOREGROUND
  6
CONTINUOUS
 10
1.954093
 20
0.644107
  0
VERTEX
  8
FOREGROUND
  6
CONTINUOUS
 10
1.957831
 20
0.653941
  0
VERTEX
  8
FOREGROUND
  6
CONTINUOUS
 10
1.961474
 20
0.663857
  0
VERTEX
  8
FOREGROUND
  6
CONTINUOUS
 10
1.965022
 20
0.673853
  0
VERTEX
  8
FOREGROUND
  6
CONTINUOUS
 10
1.968473
 20
0.683930
  0
VERTEX
  8
FOREGROUND
  6
CONTINUOUS
 10
1.971826
 20
0.694089
  0
VERTEX
  8
FOREGROUND
  6
CONTINUOUS
 10
1.975081
 20
0.704328
  0
VERTEX
  8
FOREGROUND
  6
CONTINUOUS
 10
1.978238
 20
0.714648
  0
VERTEX
  8
FOREGROUND
  6
CONTINUOUS
 10
1.981295
 20
0.725049
  0
VERTEX
  8
FOREGROUND
  6
CONTINUOUS
 10
1.984252
 20
0.735531
  0
VERTEX
  8
FOREGROUND
  6
CONTINUOUS
 10
1.987107
 20
0.746094
  0
VERTEX
  8
FOREGROUND
  6
CONTINUOUS
 10
1.989861
 20
0.756739
  0
VERTEX
  8
FOREGROUND
  6
CONTINUOUS
 10
1.992511
 20
0.767464
  0
VERTEX
  8
FOREGROUND
  6
CONTINUOUS
 10
1.995058
 20
0.778270
  0
VERTEX
  8
FOREGROUND
  6
CONTINUOUS
 10
1.997501
 20
0.789156
  0
VERTEX
  8
FOREGROUND
  6
CONTINUOUS
 10
1.999839
 20
0.800124
  0
VERTEX
  8
FOREGROUND
  6
CONTINUOUS
 10
2.002071
 20
0.811173
  0
VERTEX
  8
FOREGROUND
  6
CONTINUOUS
 10
2.004197
 20
0.822303
  0
VERTEX
  8
FOREGROUND
  6
CONTINUOUS
 10
2.006215
 20
0.833514
  0
VERTEX
  8
FOREGROUND
  6
CONTINUOUS
 10
2.008124
 20
0.844806
  0
VERTEX
  8
FOREGROUND
  6
CONTINUOUS
 10
2.009925
 20
0.856178
  0
VERTEX
  8
FOREGROUND
  6
CONTINUOUS
 10
2.011616
 20
0.867632
  0
VERTEX
  8
FOREGROUND
  6
CONTINUOUS
 10
2.013197
 20
0.879166
  0
VERTEX
  8
FOREGROUND
  6
CONTINUOUS
 10
2.014666
 20
0.890782
  0
VERTEX
  8
FOREGROUND
  6
CONTINUOUS
 10
2.016023
 20
0.902479
  0
VERTEX
  8
FOREGROUND
  6
CONTINUOUS
 10
2.017268
 20
0.914256
  0
VERTEX
  8
FOREGROUND
  6
CONTINUOUS
 10
2.018399
 20
0.926115
  0
VERTEX
  8
FOREGROUND
  6
CONTINUOUS
 10
2.019415
 20
0.938054
  0
VERTEX
  8
FOREGROUND
  6
CONTINUOUS
 10
2.020316
 20
0.950074
  0
VERTEX
  8
FOREGROUND
  6
CONTINUOUS
 10
2.021101
 20
0.962176
  0
VERTEX
  8
FOREGROUND
  6
CONTINUOUS
 10
2.021770
 20
0.974358
  0
VERTEX
  8
FOREGROUND
  6
CONTINUOUS
 10
2.022320
 20
0.986621
  0
VERTEX
  8
FOREGROUND
  6
CONTINUOUS
 10
2.022753
 20
0.998966
  0
VERTEX
  8
FOREGROUND
  6
CONTINUOUS
 10
2.023067
 20
1.011391
  0
VERTEX
  8
FOREGROUND
  6
CONTINUOUS
 10
2.023260
 20
1.023897
  0
VERTEX
  8
FOREGROUND
  6
CONTINUOUS
 10
2.023333
 20
1.036484
  0
SEQEND
  8
0
  0
ENDSEC
  0
EOF
