  0
SECTION
  2
HEADER
  9
$ACADVER
  1
AC1006
  9
$EXTMIN
 10
0.000000
 20
0.000000
  9
$EXTMAX
 10
2.470000
 20
2.465000
  9
$LTSCALE
 40
0.166667
  9
$PDMODE
 70
    35
  9
$PDSIZE
 40
0.133333
  0
ENDSEC
  0
SECTION
  2
TABLES
  0
TABLE
  2
LTYPE
 70
     9
  0
LTYPE
  2
CONTINUOUS
 70
    64
  3
Solid line
 72
    65
 73
     0
 40
0.000000
  0
LTYPE
  2
DASHED
 70
    64
  3
__ __ __ __ __ __ __ __ __ __ __ __ __ __ __
 72
    65
 73
     2
 40
0.001250
 49
0.000833
 49
-0.000417
  0
LTYPE
  2
HIDDEN
 70
    64
  3
 _ _ _ _ _ _ _ _ _ _ _ _ _ _ _ _ _ _ _ _ _ _
 72
    65
 73
     2
 40
0.000625
 49
0.000417
 49
-0.000208
  0
LTYPE
  2
CENTER
 70
    64
  3
____ _ ____ _ ____ _ ____ _ ____ _ ____ _ ____
 72
    65
 73
     4
 40
0.003333
 49
0.002083
 49
-0.000417
 49
0.000417
 49
-0.000417
  0
LTYPE
  2
PHANTOM
 70
    64
  3
_____ _ _ _____ _ _ _____ _ _ _____ _ _ ____
 72
    65
 73
     6
 40
0.004167
 49
0.002083
 49
-0.000417
 49
0.000417
 49
-0.000417
 49
0.000417
 49
-0.000417
  0
LTYPE
  2
DOT
 70
    64
  3
...............................................
 72
    65
 73
     2
 40
0.000417
 49
0.000000
 49
-0.000417
  0
LTYPE
  2
DASHDOT
 70
    64
  3
__ . __ . __ . __ . __ . __ . __ . __ . __ . __
 72
    65
 73
     4
 40
0.001667
 49
0.000833
 49
-0.000417
 49
0.000000
 49
-0.000417
  0
LTYPE
  2
BORDER
 70
    64
  3
__ __ . __ __ . __ __ . __ __ . __ __ . __ __
 72
    65
 73
     6
 40
0.002917
 49
0.000833
 49
-0.000417
 49
0.000833
 49
-0.000417
 49
0.000000
 49
-0.000417
  0
LTYPE
  2
DIVIDE
 70
    64
  3
__ . . __ . . __ . . __ . . __ . . __ . . __
 72
    65
 73
     6
 40
0.002083
 49
0.000833
 49
-0.000417
 49
0.000000
 49
-0.000417
 49
0.000000
 49
-0.000417
  0
LTYPE
  2
DOTDOT
 70
    64
  3
 . .  . .  . .  . .  . .  . . 
 72
    65
 73
     5
 40
0.000917
 49
-0.000417
 49
0.000000
 49
-0.000417
 49
0.000000
 49
-0.000417
  0
ENDTAB
  0
TABLE
  2
STYLE
 70
     2
  0
STYLE
 70
     0
  2
SN0
 40
0.000000
 41
0.001667
 50
0.000000
 71
     0
 42
0.000000
  3
ROMAND
  0
STYLE
 70
    68
  2
SV0
 40
0.000000
 41
0.001667
 50
0.000000
 71
     0
 42
0.000000
  3
ROMAND
  0
ENDTAB
  0
TABLE
  2
LAYER
 70
     2
  0
LAYER
  2
FOREGROUND
 70
    64
 62
     7
  6
CONTINUOUS
  0
LAYER
  2
BACKGROUND
 70
    65
 62
    -7
  6
CONTINUOUS
  0
ENDTAB
  0
ENDSEC
  0
SECTION
  2
ENTITIES
  0
POLYLINE
  8
FOREGROUND
  6
CONTINUOUS
 66
     1
 40
0.010000
 41
0.010000
 70
     1
  0
VERTEX
  8
FOREGROUND
  6
CONTINUOUS
 10
2.420000
 20
1.233333
  0
VERTEX
  8
FOREGROUND
  6
CONTINUOUS
 10
2.419917
 20
1.248290
  0
VERTEX
  8
FOREGROUND
  6
CONTINUOUS
 10
2.419691
 20
1.263152
  0
VERTEX
  8
FOREGROUND
  6
CONTINUOUS
 10
2.419325
 20
1.277918
  0
VERTEX
  8
FOREGROUND
  6
CONTINUOUS
 10
2.418817
 20
1.292590
  0
VERTEX
  8
FOREGROUND
  6
CONTINUOUS
 10
2.418171
 20
1.307166
  0
VERTEX
  8
FOREGROUND
  6
CONTINUOUS
 10
2.417386
 20
1.321646
  0
VERTEX
  8
FOREGROUND
  6
CONTINUOUS
 10
2.416463
 20
1.336032
  0
VERTEX
  8
FOREGROUND
  6
CONTINUOUS
 10
2.415404
 20
1.350322
  0
VERTEX
  8
FOREGROUND
  6
CONTINUOUS
 10
2.414209
 20
1.364517
  0
VERTEX
  8
FOREGROUND
  6
CONTINUOUS
 10
2.412879
 20
1.378616
  0
VERTEX
  8
FOREGROUND
  6
CONTINUOUS
 10
2.411415
 20
1.392621
  0
VERTEX
  8
FOREGROUND
  6
CONTINUOUS
 10
2.409817
 20
1.406530
  0
VERTEX
  8
FOREGROUND
  6
CONTINUOUS
 10
2.408088
 20
1.420343
  0
VERTEX
  8
FOREGROUND
  6
CONTINUOUS
 10
2.406227
 20
1.434062
  0
VERTEX
  8
FOREGROUND
  6
CONTINUOUS
 10
2.404237
 20
1.447685
  0
VERTEX
  8
FOREGROUND
  6
CONTINUOUS
 10
2.402116
 20
1.461213
  0
VERTEX
  8
FOREGROUND
  6
CONTINUOUS
 10
2.399867
 20
1.474646
  0
VERTEX
  8
FOREGROUND
  6
CONTINUOUS
 10
2.397491
 20
1.487984
  0
VERTEX
  8
FOREGROUND
  6
CONTINUOUS
 10
2.394987
 20
1.501226
  0
VERTEX
  8
FOREGROUND
  6
CONTINUOUS
 10
2.392358
 20
1.514373
  0
VERTEX
  8
FOREGROUND
  6
CONTINUOUS
 10
2.389604
 20
1.527425
  0
VERTEX
  8
FOREGROUND
  6
CONTINUOUS
 10
2.386726
 20
1.540381
  0
VERTEX
  8
FOREGROUND
  6
CONTINUOUS
 10
2.383725
 20
1.553242
  0
VERTEX
  8
FOREGROUND
  6
CONTINUOUS
 10
2.380602
 20
1.566008
  0
VERTEX
  8
FOREGROUND
  6
CONTINUOUS
 10
2.377357
 20
1.578679
  0
VERTEX
  8
FOREGROUND
  6
CONTINUOUS
 10
2.373992
 20
1.591254
  0
VERTEX
  8
FOREGROUND
  6
CONTINUOUS
 10
2.370508
 20
1.603735
  0
VERTEX
  8
FOREGROUND
  6
CONTINUOUS
 10
2.366905
 20
1.616120
  0
VERTEX
  8
FOREGROUND
  6
CONTINUOUS
 10
2.363184
 20
1.628409
  0
VERTEX
  8
FOREGROUND
  6
CONTINUOUS
 10
2.359347
 20
1.640604
  0
VERTEX
  8
FOREGROUND
  6
CONTINUOUS
 10
2.355394
 20
1.652703
  0
VERTEX
  8
FOREGROUND
  6
CONTINUOUS
 10
2.351326
 20
1.664707
  0
VERTEX
  8
FOREGROUND
  6
CONTINUOUS
 10
2.347144
 20
1.676615
  0
VERTEX
  8
FOREGROUND
  6
CONTINUOUS
 10
2.342849
 20
1.688429
  0
VERTEX
  8
FOREGROUND
  6
CONTINUOUS
 10
2.338442
 20
1.700147
  0
VERTEX
  8
FOREGROUND
  6
CONTINUOUS
 10
2.333923
 20
1.711769
  0
VERTEX
  8
FOREGROUND
  6
CONTINUOUS
 10
2.329294
 20
1.723297
  0
VERTEX
  8
FOREGROUND
  6
CONTINUOUS
 10
2.324555
 20
1.734729
  0
VERTEX
  8
FOREGROUND
  6
CONTINUOUS
 10
2.319708
 20
1.746066
  0
VERTEX
  8
FOREGROUND
  6
CONTINUOUS
 10
2.314754
 20
1.757308
  0
VERTEX
  8
FOREGROUND
  6
CONTINUOUS
 10
2.309692
 20
1.768455
  0
VERTEX
  8
FOREGROUND
  6
CONTINUOUS
 10
2.304525
 20
1.779506
  0
VERTEX
  8
FOREGROUND
  6
CONTINUOUS
 10
2.299253
 20
1.790462
  0
VERTEX
  8
FOREGROUND
  6
CONTINUOUS
 10
2.293877
 20
1.801322
  0
VERTEX
  8
FOREGROUND
  6
CONTINUOUS
 10
2.288398
 20
1.812088
  0
VERTEX
  8
FOREGROUND
  6
CONTINUOUS
 10
2.282816
 20
1.822758
  0
VERTEX
  8
FOREGROUND
  6
CONTINUOUS
 10
2.277133
 20
1.833333
  0
VERTEX
  8
FOREGROUND
  6
CONTINUOUS
 10
2.271350
 20
1.843813
  0
VERTEX
  8
FOREGROUND
  6
CONTINUOUS
 10
2.265468
 20
1.854197
  0
VERTEX
  8
FOREGROUND
  6
CONTINUOUS
 10
2.259487
 20
1.864486
  0
VERTEX
  8
FOREGROUND
  6
CONTINUOUS
 10
2.253408
 20
1.874680
  0
VERTEX
  8
FOREGROUND
  6
CONTINUOUS
 10
2.247232
 20
1.884779
  0
VERTEX
  8
FOREGROUND
  6
CONTINUOUS
 10
2.240961
 20
1.894782
  0
VERTEX
  8
FOREGROUND
  6
CONTINUOUS
 10
2.234594
 20
1.904690
  0
VERTEX
  8
FOREGROUND
  6
CONTINUOUS
 10
2.228134
 20
1.914503
  0
VERTEX
  8
FOREGROUND
  6
CONTINUOUS
 10
2.221581
 20
1.924221
  0
VERTEX
  8
FOREGROUND
  6
CONTINUOUS
 10
2.214935
 20
1.933843
  0
VERTEX
  8
FOREGROUND
  6
CONTINUOUS
 10
2.208198
 20
1.943370
  0
VERTEX
  8
FOREGROUND
  6
CONTINUOUS
 10
2.201371
 20
1.952802
  0
VERTEX
  8
FOREGROUND
  6
CONTINUOUS
 10
2.194454
 20
1.962138
  0
VERTEX
  8
FOREGROUND
  6
CONTINUOUS
 10
2.187448
 20
1.971379
  0
VERTEX
  8
FOREGROUND
  6
CONTINUOUS
 10
2.180355
 20
1.980525
  0
VERTEX
  8
FOREGROUND
  6
CONTINUOUS
 10
2.173176
 20
1.989576
  0
VERTEX
  8
FOREGROUND
  6
CONTINUOUS
 10
2.165910
 20
1.998532
  0
VERTEX
  8
FOREGROUND
  6
CONTINUOUS
 10
2.158559
 20
2.007392
  0
VERTEX
  8
FOREGROUND
  6
CONTINUOUS
 10
2.151125
 20
2.016157
  0
VERTEX
  8
FOREGROUND
  6
CONTINUOUS
 10
2.143607
 20
2.024826
  0
VERTEX
  8
FOREGROUND
  6
CONTINUOUS
 10
2.136007
 20
2.033401
  0
VERTEX
  8
FOREGROUND
  6
CONTINUOUS
 10
2.128326
 20
2.041880
  0
VERTEX
  8
FOREGROUND
  6
CONTINUOUS
 10
2.120564
 20
2.050264
  0
VERTEX
  8
FOREGROUND
  6
CONTINUOUS
 10
2.112723
 20
2.058552
  0
VERTEX
  8
FOREGROUND
  6
CONTINUOUS
 10
2.104803
 20
2.066746
  0
VERTEX
  8
FOREGROUND
  6
CONTINUOUS
 10
2.096806
 20
2.074844
  0
VERTEX
  8
FOREGROUND
  6
CONTINUOUS
 10
2.088731
 20
2.082847
  0
VERTEX
  8
FOREGROUND
  6
CONTINUOUS
 10
2.080581
 20
2.090754
  0
VERTEX
  8
FOREGROUND
  6
CONTINUOUS
 10
2.072356
 20
2.098566
  0
VERTEX
  8
FOREGROUND
  6
CONTINUOUS
 10
2.064057
 20
2.106284
  0
VERTEX
  8
FOREGROUND
  6
CONTINUOUS
 10
2.055685
 20
2.113905
  0
VERTEX
  8
FOREGROUND
  6
CONTINUOUS
 10
2.047241
 20
2.121432
  0
VERTEX
  8
FOREGROUND
  6
CONTINUOUS
 10
2.038725
 20
2.128863
  0
VERTEX
  8
FOREGROUND
  6
CONTINUOUS
 10
2.030139
 20
2.136199
  0
VERTEX
  8
FOREGROUND
  6
CONTINUOUS
 10
2.021484
 20
2.143440
  0
VERTEX
  8
FOREGROUND
  6
CONTINUOUS
 10
2.012759
 20
2.150585
  0
VERTEX
  8
FOREGROUND
  6
CONTINUOUS
 10
2.003968
 20
2.157635
  0
VERTEX
  8
FOREGROUND
  6
CONTINUOUS
 10
1.995109
 20
2.164590
  0
VERTEX
  8
FOREGROUND
  6
CONTINUOUS
 10
1.986184
 20
2.171450
  0
VERTEX
  8
FOREGROUND
  6
CONTINUOUS
 10
1.977195
 20
2.178214
  0
VERTEX
  8
FOREGROUND
  6
CONTINUOUS
 10
1.968142
 20
2.184883
  0
VERTEX
  8
FOREGROUND
  6
CONTINUOUS
 10
1.959025
 20
2.191457
  0
VERTEX
  8
FOREGROUND
  6
CONTINUOUS
 10
1.949846
 20
2.197936
  0
VERTEX
  8
FOREGROUND
  6
CONTINUOUS
 10
1.940606
 20
2.204319
  0
VERTEX
  8
FOREGROUND
  6
CONTINUOUS
 10
1.931305
 20
2.210607
  0
VERTEX
  8
FOREGROUND
  6
CONTINUOUS
 10
1.921945
 20
2.216800
  0
VERTEX
  8
FOREGROUND
  6
CONTINUOUS
 10
1.912527
 20
2.222898
  0
VERTEX
  8
FOREGROUND
  6
CONTINUOUS
 10
1.903050
 20
2.228900
  0
VERTEX
  8
FOREGROUND
  6
CONTINUOUS
 10
1.893517
 20
2.234807
  0
VERTEX
  8
FOREGROUND
  6
CONTINUOUS
 10
1.883928
 20
2.240619
  0
VERTEX
  8
FOREGROUND
  6
CONTINUOUS
 10
1.874284
 20
2.246335
  0
VERTEX
  8
FOREGROUND
  6
CONTINUOUS
 10
1.864586
 20
2.251956
  0
VERTEX
  8
FOREGROUND
  6
CONTINUOUS
 10
1.854835
 20
2.257482
  0
VERTEX
  8
FOREGROUND
  6
CONTINUOUS
 10
1.845032
 20
2.262913
  0
VERTEX
  8
FOREGROUND
  6
CONTINUOUS
 10
1.835177
 20
2.268248
  0
VERTEX
  8
FOREGROUND
  6
CONTINUOUS
 10
1.825272
 20
2.273489
  0
VERTEX
  8
FOREGROUND
  6
CONTINUOUS
 10
1.815317
 20
2.278633
  0
VERTEX
  8
FOREGROUND
  6
CONTINUOUS
 10
1.805314
 20
2.283683
  0
VERTEX
  8
FOREGROUND
  6
CONTINUOUS
 10
1.795263
 20
2.288637
  0
VERTEX
  8
FOREGROUND
  6
CONTINUOUS
 10
1.785165
 20
2.293497
  0
VERTEX
  8
FOREGROUND
  6
CONTINUOUS
 10
1.775021
 20
2.298260
  0
VERTEX
  8
FOREGROUND
  6
CONTINUOUS
 10
1.764833
 20
2.302929
  0
VERTEX
  8
FOREGROUND
  6
CONTINUOUS
 10
1.754600
 20
2.307502
  0
VERTEX
  8
FOREGROUND
  6
CONTINUOUS
 10
1.744324
 20
2.311980
  0
VERTEX
  8
FOREGROUND
  6
CONTINUOUS
 10
1.734006
 20
2.316363
  0
VERTEX
  8
FOREGROUND
  6
CONTINUOUS
 10
1.723647
 20
2.320651
  0
VERTEX
  8
FOREGROUND
  6
CONTINUOUS
 10
1.713247
 20
2.324843
  0
VERTEX
  8
FOREGROUND
  6
CONTINUOUS
 10
1.702808
 20
2.328940
  0
VERTEX
  8
FOREGROUND
  6
CONTINUOUS
 10
1.692330
 20
2.332941
  0
VERTEX
  8
FOREGROUND
  6
CONTINUOUS
 10
1.681814
 20
2.336848
  0
VERTEX
  8
FOREGROUND
  6
CONTINUOUS
 10
1.671262
 20
2.340659
  0
VERTEX
  8
FOREGROUND
  6
CONTINUOUS
 10
1.660673
 20
2.344375
  0
VERTEX
  8
FOREGROUND
  6
CONTINUOUS
 10
1.650050
 20
2.347996
  0
VERTEX
  8
FOREGROUND
  6
CONTINUOUS
 10
1.639393
 20
2.351521
  0
VERTEX
  8
FOREGROUND
  6
CONTINUOUS
 10
1.628702
 20
2.354951
  0
VERTEX
  8
FOREGROUND
  6
CONTINUOUS
 10
1.617979
 20
2.358286
  0
VERTEX
  8
FOREGROUND
  6
CONTINUOUS
 10
1.607225
 20
2.361526
  0
VERTEX
  8
FOREGROUND
  6
CONTINUOUS
 10
1.596441
 20
2.364670
  0
VERTEX
  8
FOREGROUND
  6
CONTINUOUS
 10
1.585627
 20
2.367719
  0
VERTEX
  8
FOREGROUND
  6
CONTINUOUS
 10
1.574784
 20
2.370673
  0
VERTEX
  8
FOREGROUND
  6
CONTINUOUS
 10
1.563914
 20
2.373531
  0
VERTEX
  8
FOREGROUND
  6
CONTINUOUS
 10
1.553016
 20
2.376294
  0
VERTEX
  8
FOREGROUND
  6
CONTINUOUS
 10
1.542093
 20
2.378962
  0
VERTEX
  8
FOREGROUND
  6
CONTINUOUS
 10
1.531145
 20
2.381535
  0
VERTEX
  8
FOREGROUND
  6
CONTINUOUS
 10
1.520173
 20
2.384013
  0
VERTEX
  8
FOREGROUND
  6
CONTINUOUS
 10
1.509178
 20
2.386395
  0
VERTEX
  8
FOREGROUND
  6
CONTINUOUS
 10
1.498160
 20
2.388682
  0
VERTEX
  8
FOREGROUND
  6
CONTINUOUS
 10
1.487121
 20
2.390873
  0
VERTEX
  8
FOREGROUND
  6
CONTINUOUS
 10
1.476062
 20
2.392970
  0
VERTEX
  8
FOREGROUND
  6
CONTINUOUS
 10
1.464983
 20
2.394971
  0
VERTEX
  8
FOREGROUND
  6
CONTINUOUS
 10
1.453885
 20
2.396877
  0
VERTEX
  8
FOREGROUND
  6
CONTINUOUS
 10
1.442770
 20
2.398687
  0
VERTEX
  8
FOREGROUND
  6
CONTINUOUS
 10
1.431638
 20
2.400403
  0
VERTEX
  8
FOREGROUND
  6
CONTINUOUS
 10
1.420490
 20
2.402023
  0
VERTEX
  8
FOREGROUND
  6
CONTINUOUS
 10
1.409327
 20
2.403548
  0
VERTEX
  8
FOREGROUND
  6
CONTINUOUS
 10
1.398150
 20
2.404977
  0
VERTEX
  8
FOREGROUND
  6
CONTINUOUS
 10
1.386959
 20
2.406311
  0
VERTEX
  8
FOREGROUND
  6
CONTINUOUS
 10
1.375757
 20
2.407550
  0
VERTEX
  8
FOREGROUND
  6
CONTINUOUS
 10
1.364543
 20
2.408694
  0
VERTEX
  8
FOREGROUND
  6
CONTINUOUS
 10
1.353319
 20
2.409743
  0
VERTEX
  8
FOREGROUND
  6
CONTINUOUS
 10
1.342085
 20
2.410696
  0
VERTEX
  8
FOREGROUND
  6
CONTINUOUS
 10
1.330842
 20
2.411554
  0
VERTEX
  8
FOREGROUND
  6
CONTINUOUS
 10
1.319592
 20
2.412316
  0
VERTEX
  8
FOREGROUND
  6
CONTINUOUS
 10
1.308335
 20
2.412984
  0
VERTEX
  8
FOREGROUND
  6
CONTINUOUS
 10
1.297072
 20
2.413556
  0
VERTEX
  8
FOREGROUND
  6
CONTINUOUS
 10
1.285804
 20
2.414033
  0
VERTEX
  8
FOREGROUND
  6
CONTINUOUS
 10
1.274532
 20
2.414414
  0
VERTEX
  8
FOREGROUND
  6
CONTINUOUS
 10
1.263257
 20
2.414701
  0
VERTEX
  8
FOREGROUND
  6
CONTINUOUS
 10
1.251979
 20
2.414892
  0
VERTEX
  8
FOREGROUND
  6
CONTINUOUS
 10
1.240700
 20
2.414987
  0
VERTEX
  8
FOREGROUND
  6
CONTINUOUS
 10
1.229421
 20
2.414988
  0
VERTEX
  8
FOREGROUND
  6
CONTINUOUS
 10
1.218142
 20
2.414893
  0
VERTEX
  8
FOREGROUND
  6
CONTINUOUS
 10
1.206865
 20
2.414703
  0
VERTEX
  8
FOREGROUND
  6
CONTINUOUS
 10
1.195589
 20
2.414418
  0
VERTEX
  8
FOREGROUND
  6
CONTINUOUS
 10
1.184317
 20
2.414037
  0
VERTEX
  8
FOREGROUND
  6
CONTINUOUS
 10
1.173049
 20
2.413562
  0
VERTEX
  8
FOREGROUND
  6
CONTINUOUS
 10
1.161786
 20
2.412990
  0
VERTEX
  8
FOREGROUND
  6
CONTINUOUS
 10
1.150529
 20
2.412324
  0
VERTEX
  8
FOREGROUND
  6
CONTINUOUS
 10
1.139279
 20
2.411562
  0
VERTEX
  8
FOREGROUND
  6
CONTINUOUS
 10
1.128036
 20
2.410706
  0
VERTEX
  8
FOREGROUND
  6
CONTINUOUS
 10
1.116802
 20
2.409753
  0
VERTEX
  8
FOREGROUND
  6
CONTINUOUS
 10
1.105578
 20
2.408706
  0
VERTEX
  8
FOREGROUND
  6
CONTINUOUS
 10
1.094364
 20
2.407563
  0
VERTEX
  8
FOREGROUND
  6
CONTINUOUS
 10
1.083161
 20
2.406325
  0
VERTEX
  8
FOREGROUND
  6
CONTINUOUS
 10
1.071971
 20
2.404992
  0
VERTEX
  8
FOREGROUND
  6
CONTINUOUS
 10
1.060794
 20
2.403564
  0
VERTEX
  8
FOREGROUND
  6
CONTINUOUS
 10
1.049631
 20
2.402040
  0
VERTEX
  8
FOREGROUND
  6
CONTINUOUS
 10
1.038482
 20
2.400421
  0
VERTEX
  8
FOREGROUND
  6
CONTINUOUS
 10
1.027350
 20
2.398707
  0
VERTEX
  8
FOREGROUND
  6
CONTINUOUS
 10
1.016235
 20
2.396897
  0
VERTEX
  8
FOREGROUND
  6
CONTINUOUS
 10
1.005137
 20
2.394992
  0
VERTEX
  8
FOREGROUND
  6
CONTINUOUS
 10
0.994058
 20
2.392992
  0
VERTEX
  8
FOREGROUND
  6
CONTINUOUS
 10
0.982998
 20
2.390897
  0
VERTEX
  8
FOREGROUND
  6
CONTINUOUS
 10
0.971959
 20
2.388706
  0
VERTEX
  8
FOREGROUND
  6
CONTINUOUS
 10
0.960941
 20
2.386420
  0
VERTEX
  8
FOREGROUND
  6
CONTINUOUS
 10
0.949946
 20
2.384039
  0
VERTEX
  8
FOREGROUND
  6
CONTINUOUS
 10
0.938973
 20
2.381563
  0
VERTEX
  8
FOREGROUND
  6
CONTINUOUS
 10
0.928025
 20
2.378991
  0
VERTEX
  8
FOREGROUND
  6
CONTINUOUS
 10
0.917101
 20
2.376324
  0
VERTEX
  8
FOREGROUND
  6
CONTINUOUS
 10
0.906204
 20
2.373562
  0
VERTEX
  8
FOREGROUND
  6
CONTINUOUS
 10
0.895333
 20
2.370704
  0
VERTEX
  8
FOREGROUND
  6
CONTINUOUS
 10
0.884490
 20
2.367751
  0
VERTEX
  8
FOREGROUND
  6
CONTINUOUS
 10
0.873676
 20
2.364703
  0
VERTEX
  8
FOREGROUND
  6
CONTINUOUS
 10
0.862891
 20
2.361560
  0
VERTEX
  8
FOREGROUND
  6
CONTINUOUS
 10
0.852136
 20
2.358321
  0
VERTEX
  8
FOREGROUND
  6
CONTINUOUS
 10
0.841413
 20
2.354987
  0
VERTEX
  8
FOREGROUND
  6
CONTINUOUS
 10
0.830722
 20
2.351558
  0
VERTEX
  8
FOREGROUND
  6
CONTINUOUS
 10
0.820065
 20
2.348034
  0
VERTEX
  8
FOREGROUND
  6
CONTINUOUS
 10
0.809441
 20
2.344414
  0
VERTEX
  8
FOREGROUND
  6
CONTINUOUS
 10
0.798852
 20
2.340699
  0
VERTEX
  8
FOREGROUND
  6
CONTINUOUS
 10
0.788299
 20
2.336889
  0
VERTEX
  8
FOREGROUND
  6
CONTINUOUS
 10
0.777783
 20
2.332984
  0
VERTEX
  8
FOREGROUND
  6
CONTINUOUS
 10
0.767305
 20
2.328983
  0
VERTEX
  8
FOREGROUND
  6
CONTINUOUS
 10
0.756865
 20
2.324887
  0
VERTEX
  8
FOREGROUND
  6
CONTINUOUS
 10
0.746465
 20
2.320696
  0
VERTEX
  8
FOREGROUND
  6
CONTINUOUS
 10
0.736105
 20
2.316409
  0
VERTEX
  8
FOREGROUND
  6
CONTINUOUS
 10
0.725787
 20
2.312027
  0
VERTEX
  8
FOREGROUND
  6
CONTINUOUS
 10
0.715510
 20
2.307550
  0
VERTEX
  8
FOREGROUND
  6
CONTINUOUS
 10
0.705277
 20
2.302978
  0
VERTEX
  8
FOREGROUND
  6
CONTINUOUS
 10
0.695088
 20
2.298310
  0
VERTEX
  8
FOREGROUND
  6
CONTINUOUS
 10
0.684944
 20
2.293547
  0
VERTEX
  8
FOREGROUND
  6
CONTINUOUS
 10
0.674846
 20
2.288689
  0
VERTEX
  8
FOREGROUND
  6
CONTINUOUS
 10
0.664794
 20
2.283736
  0
VERTEX
  8
FOREGROUND
  6
CONTINUOUS
 10
0.654791
 20
2.278687
  0
VERTEX
  8
FOREGROUND
  6
CONTINUOUS
 10
0.644835
 20
2.273543
  0
VERTEX
  8
FOREGROUND
  6
CONTINUOUS
 10
0.634930
 20
2.268304
  0
VERTEX
  8
FOREGROUND
  6
CONTINUOUS
 10
0.625074
 20
2.262969
  0
VERTEX
  8
FOREGROUND
  6
CONTINUOUS
 10
0.615270
 20
2.257540
  0
VERTEX
  8
FOREGROUND
  6
CONTINUOUS
 10
0.605519
 20
2.252015
  0
VERTEX
  8
FOREGROUND
  6
CONTINUOUS
 10
0.595820
 20
2.246394
  0
VERTEX
  8
FOREGROUND
  6
CONTINUOUS
 10
0.586176
 20
2.240679
  0
VERTEX
  8
FOREGROUND
  6
CONTINUOUS
 10
0.576586
 20
2.234868
  0
VERTEX
  8
FOREGROUND
  6
CONTINUOUS
 10
0.567052
 20
2.228962
  0
VERTEX
  8
FOREGROUND
  6
CONTINUOUS
 10
0.557575
 20
2.222960
  0
VERTEX
  8
FOREGROUND
  6
CONTINUOUS
 10
0.548156
 20
2.216864
  0
VERTEX
  8
FOREGROUND
  6
CONTINUOUS
 10
0.538795
 20
2.210672
  0
VERTEX
  8
FOREGROUND
  6
CONTINUOUS
 10
0.529494
 20
2.204384
  0
VERTEX
  8
FOREGROUND
  6
CONTINUOUS
 10
0.520253
 20
2.198002
  0
VERTEX
  8
FOREGROUND
  6
CONTINUOUS
 10
0.511074
 20
2.191524
  0
VERTEX
  8
FOREGROUND
  6
CONTINUOUS
 10
0.501956
 20
2.184951
  0
VERTEX
  8
FOREGROUND
  6
CONTINUOUS
 10
0.492902
 20
2.178283
  0
VERTEX
  8
FOREGROUND
  6
CONTINUOUS
 10
0.483912
 20
2.171519
  0
VERTEX
  8
FOREGROUND
  6
CONTINUOUS
 10
0.474987
 20
2.164660
  0
VERTEX
  8
FOREGROUND
  6
CONTINUOUS
 10
0.466128
 20
2.157706
  0
VERTEX
  8
FOREGROUND
  6
CONTINUOUS
 10
0.457335
 20
2.150657
  0
VERTEX
  8
FOREGROUND
  6
CONTINUOUS
 10
0.448610
 20
2.143512
  0
VERTEX
  8
FOREGROUND
  6
CONTINUOUS
 10
0.439954
 20
2.136272
  0
VERTEX
  8
FOREGROUND
  6
CONTINUOUS
 10
0.431367
 20
2.128937
  0
VERTEX
  8
FOREGROUND
  6
CONTINUOUS
 10
0.422851
 20
2.121507
  0
VERTEX
  8
FOREGROUND
  6
CONTINUOUS
 10
0.414405
 20
2.113981
  0
VERTEX
  8
FOREGROUND
  6
CONTINUOUS
 10
0.406033
 20
2.106360
  0
VERTEX
  8
FOREGROUND
  6
CONTINUOUS
 10
0.397733
 20
2.098644
  0
VERTEX
  8
FOREGROUND
  6
CONTINUOUS
 10
0.389507
 20
2.090832
  0
VERTEX
  8
FOREGROUND
  6
CONTINUOUS
 10
0.381356
 20
2.082926
  0
VERTEX
  8
FOREGROUND
  6
CONTINUOUS
 10
0.373281
 20
2.074923
  0
VERTEX
  8
FOREGROUND
  6
CONTINUOUS
 10
0.365283
 20
2.066826
  0
VERTEX
  8
FOREGROUND
  6
CONTINUOUS
 10
0.357362
 20
2.058633
  0
VERTEX
  8
FOREGROUND
  6
CONTINUOUS
 10
0.349520
 20
2.050346
  0
VERTEX
  8
FOREGROUND
  6
CONTINUOUS
 10
0.341758
 20
2.041962
  0
VERTEX
  8
FOREGROUND
  6
CONTINUOUS
 10
0.334076
 20
2.033484
  0
VERTEX
  8
FOREGROUND
  6
CONTINUOUS
 10
0.326475
 20
2.024910
  0
VERTEX
  8
FOREGROUND
  6
CONTINUOUS
 10
0.318956
 20
2.016241
  0
VERTEX
  8
FOREGROUND
  6
CONTINUOUS
 10
0.311520
 20
2.007477
  0
VERTEX
  8
FOREGROUND
  6
CONTINUOUS
 10
0.304169
 20
1.998618
  0
VERTEX
  8
FOREGROUND
  6
CONTINUOUS
 10
0.296902
 20
1.989663
  0
VERTEX
  8
FOREGROUND
  6
CONTINUOUS
 10
0.289722
 20
1.980613
  0
VERTEX
  8
FOREGROUND
  6
CONTINUOUS
 10
0.282628
 20
1.971467
  0
VERTEX
  8
FOREGROUND
  6
CONTINUOUS
 10
0.275621
 20
1.962227
  0
VERTEX
  8
FOREGROUND
  6
CONTINUOUS
 10
0.268703
 20
1.952891
  0
VERTEX
  8
FOREGROUND
  6
CONTINUOUS
 10
0.261875
 20
1.943460
  0
VERTEX
  8
FOREGROUND
  6
CONTINUOUS
 10
0.255137
 20
1.933933
  0
VERTEX
  8
FOREGROUND
  6
CONTINUOUS
 10
0.248490
 20
1.924312
  0
VERTEX
  8
FOREGROUND
  6
CONTINUOUS
 10
0.241936
 20
1.914595
  0
VERTEX
  8
FOREGROUND
  6
CONTINUOUS
 10
0.235475
 20
1.904783
  0
VERTEX
  8
FOREGROUND
  6
CONTINUOUS
 10
0.229107
 20
1.894875
  0
VERTEX
  8
FOREGROUND
  6
CONTINUOUS
 10
0.222835
 20
1.884872
  0
VERTEX
  8
FOREGROUND
  6
CONTINUOUS
 10
0.216658
 20
1.874774
  0
VERTEX
  8
FOREGROUND
  6
CONTINUOUS
 10
0.210578
 20
1.864581
  0
VERTEX
  8
FOREGROUND
  6
CONTINUOUS
 10
0.204596
 20
1.854292
  0
VERTEX
  8
FOREGROUND
  6
CONTINUOUS
 10
0.198713
 20
1.843908
  0
VERTEX
  8
FOREGROUND
  6
CONTINUOUS
 10
0.192928
 20
1.833429
  0
VERTEX
  8
FOREGROUND
  6
CONTINUOUS
 10
0.187244
 20
1.822855
  0
VERTEX
  8
FOREGROUND
  6
CONTINUOUS
 10
0.181662
 20
1.812185
  0
VERTEX
  8
FOREGROUND
  6
CONTINUOUS
 10
0.176182
 20
1.801420
  0
VERTEX
  8
FOREGROUND
  6
CONTINUOUS
 10
0.170804
 20
1.790560
  0
VERTEX
  8
FOREGROUND
  6
CONTINUOUS
 10
0.165531
 20
1.779605
  0
VERTEX
  8
FOREGROUND
  6
CONTINUOUS
 10
0.160363
 20
1.768554
  0
VERTEX
  8
FOREGROUND
  6
CONTINUOUS
 10
0.155300
 20
1.757408
  0
VERTEX
  8
FOREGROUND
  6
CONTINUOUS
 10
0.150344
 20
1.746166
  0
VERTEX
  8
FOREGROUND
  6
CONTINUOUS
 10
0.145496
 20
1.734830
  0
VERTEX
  8
FOREGROUND
  6
CONTINUOUS
 10
0.140757
 20
1.723398
  0
VERTEX
  8
FOREGROUND
  6
CONTINUOUS
 10
0.136126
 20
1.711871
  0
VERTEX
  8
FOREGROUND
  6
CONTINUOUS
 10
0.131607
 20
1.700249
  0
VERTEX
  8
FOREGROUND
  6
CONTINUOUS
 10
0.127198
 20
1.688531
  0
VERTEX
  8
FOREGROUND
  6
CONTINUOUS
 10
0.122902
 20
1.676718
  0
VERTEX
  8
FOREGROUND
  6
CONTINUOUS
 10
0.118718
 20
1.664810
  0
VERTEX
  8
FOREGROUND
  6
CONTINUOUS
 10
0.114649
 20
1.652806
  0
VERTEX
  8
FOREGROUND
  6
CONTINUOUS
 10
0.110695
 20
1.640707
  0
VERTEX
  8
FOREGROUND
  6
CONTINUOUS
 10
0.106856
 20
1.628513
  0
VERTEX
  8
FOREGROUND
  6
CONTINUOUS
 10
0.103134
 20
1.616224
  0
VERTEX
  8
FOREGROUND
  6
CONTINUOUS
 10
0.099530
 20
1.603840
  0
VERTEX
  8
FOREGROUND
  6
CONTINUOUS
 10
0.096045
 20
1.591360
  0
VERTEX
  8
FOREGROUND
  6
CONTINUOUS
 10
0.092678
 20
1.578785
  0
VERTEX
  8
FOREGROUND
  6
CONTINUOUS
 10
0.089432
 20
1.566114
  0
VERTEX
  8
FOREGROUND
  6
CONTINUOUS
 10
0.086308
 20
1.553349
  0
VERTEX
  8
FOREGROUND
  6
CONTINUOUS
 10
0.083305
 20
1.540488
  0
VERTEX
  8
FOREGROUND
  6
CONTINUOUS
 10
0.080426
 20
1.527531
  0
VERTEX
  8
FOREGROUND
  6
CONTINUOUS
 10
0.077671
 20
1.514480
  0
VERTEX
  8
FOREGROUND
  6
CONTINUOUS
 10
0.075040
 20
1.501333
  0
VERTEX
  8
FOREGROUND
  6
CONTINUOUS
 10
0.072536
 20
1.488091
  0
VERTEX
  8
FOREGROUND
  6
CONTINUOUS
 10
0.070158
 20
1.474754
  0
VERTEX
  8
FOREGROUND
  6
CONTINUOUS
 10
0.067907
 20
1.461321
  0
VERTEX
  8
FOREGROUND
  6
CONTINUOUS
 10
0.065786
 20
1.447793
  0
VERTEX
  8
FOREGROUND
  6
CONTINUOUS
 10
0.063793
 20
1.434170
  0
VERTEX
  8
FOREGROUND
  6
CONTINUOUS
 10
0.061931
 20
1.420452
  0
VERTEX
  8
FOREGROUND
  6
CONTINUOUS
 10
0.060200
 20
1.406638
  0
VERTEX
  8
FOREGROUND
  6
CONTINUOUS
 10
0.058602
 20
1.392729
  0
VERTEX
  8
FOREGROUND
  6
CONTINUOUS
 10
0.057136
 20
1.378725
  0
VERTEX
  8
FOREGROUND
  6
CONTINUOUS
 10
0.055805
 20
1.364626
  0
VERTEX
  8
FOREGROUND
  6
CONTINUOUS
 10
0.054608
 20
1.350431
  0
VERTEX
  8
FOREGROUND
  6
CONTINUOUS
 10
0.053547
 20
1.336141
  0
VERTEX
  8
FOREGROUND
  6
CONTINUOUS
 10
0.052623
 20
1.321755
  0
VERTEX
  8
FOREGROUND
  6
CONTINUOUS
 10
0.051837
 20
1.307275
  0
VERTEX
  8
FOREGROUND
  6
CONTINUOUS
 10
0.051189
 20
1.292699
  0
VERTEX
  8
FOREGROUND
  6
CONTINUOUS
 10
0.050680
 20
1.278028
  0
VERTEX
  8
FOREGROUND
  6
CONTINUOUS
 10
0.050312
 20
1.263261
  0
VERTEX
  8
FOREGROUND
  6
CONTINUOUS
 10
0.050085
 20
1.248400
  0
VERTEX
  8
FOREGROUND
  6
CONTINUOUS
 10
0.050000
 20
1.233443
  0
VERTEX
  8
FOREGROUND
  6
CONTINUOUS
 10
0.050000
 20
1.233443
  0
VERTEX
  8
FOREGROUND
  6
CONTINUOUS
 10
0.050082
 20
1.218486
  0
VERTEX
  8
FOREGROUND
  6
CONTINUOUS
 10
0.050306
 20
1.203624
  0
VERTEX
  8
FOREGROUND
  6
CONTINUOUS
 10
0.050671
 20
1.188858
  0
VERTEX
  8
FOREGROUND
  6
CONTINUOUS
 10
0.051177
 20
1.174186
  0
VERTEX
  8
FOREGROUND
  6
CONTINUOUS
 10
0.051822
 20
1.159610
  0
VERTEX
  8
FOREGROUND
  6
CONTINUOUS
 10
0.052606
 20
1.145130
  0
VERTEX
  8
FOREGROUND
  6
CONTINUOUS
 10
0.053527
 20
1.130744
  0
VERTEX
  8
FOREGROUND
  6
CONTINUOUS
 10
0.054585
 20
1.116454
  0
VERTEX
  8
FOREGROUND
  6
CONTINUOUS
 10
0.055779
 20
1.102259
  0
VERTEX
  8
FOREGROUND
  6
CONTINUOUS
 10
0.057108
 20
1.088159
  0
VERTEX
  8
FOREGROUND
  6
CONTINUOUS
 10
0.058571
 20
1.074155
  0
VERTEX
  8
FOREGROUND
  6
CONTINUOUS
 10
0.060167
 20
1.060246
  0
VERTEX
  8
FOREGROUND
  6
CONTINUOUS
 10
0.061895
 20
1.046432
  0
VERTEX
  8
FOREGROUND
  6
CONTINUOUS
 10
0.063754
 20
1.032713
  0
VERTEX
  8
FOREGROUND
  6
CONTINUOUS
 10
0.065744
 20
1.019089
  0
VERTEX
  8
FOREGROUND
  6
CONTINUOUS
 10
0.067863
 20
1.005561
  0
VERTEX
  8
FOREGROUND
  6
CONTINUOUS
 10
0.070110
 20
0.992128
  0
VERTEX
  8
FOREGROUND
  6
CONTINUOUS
 10
0.072486
 20
0.978790
  0
VERTEX
  8
FOREGROUND
  6
CONTINUOUS
 10
0.074988
 20
0.965548
  0
VERTEX
  8
FOREGROUND
  6
CONTINUOUS
 10
0.077616
 20
0.952401
  0
VERTEX
  8
FOREGROUND
  6
CONTINUOUS
 10
0.080368
 20
0.939349
  0
VERTEX
  8
FOREGROUND
  6
CONTINUOUS
 10
0.083245
 20
0.926392
  0
VERTEX
  8
FOREGROUND
  6
CONTINUOUS
 10
0.086245
 20
0.913530
  0
VERTEX
  8
FOREGROUND
  6
CONTINUOUS
 10
0.089367
 20
0.900764
  0
VERTEX
  8
FOREGROUND
  6
CONTINUOUS
 10
0.092611
 20
0.888093
  0
VERTEX
  8
FOREGROUND
  6
CONTINUOUS
 10
0.095974
 20
0.875517
  0
VERTEX
  8
FOREGROUND
  6
CONTINUOUS
 10
0.099458
 20
0.863037
  0
VERTEX
  8
FOREGROUND
  6
CONTINUOUS
 10
0.103059
 20
0.850652
  0
VERTEX
  8
FOREGROUND
  6
CONTINUOUS
 10
0.106779
 20
0.838362
  0
VERTEX
  8
FOREGROUND
  6
CONTINUOUS
 10
0.110615
 20
0.826167
  0
VERTEX
  8
FOREGROUND
  6
CONTINUOUS
 10
0.114567
 20
0.814067
  0
VERTEX
  8
FOREGROUND
  6
CONTINUOUS
 10
0.118634
 20
0.802063
  0
VERTEX
  8
FOREGROUND
  6
CONTINUOUS
 10
0.122815
 20
0.790154
  0
VERTEX
  8
FOREGROUND
  6
CONTINUOUS
 10
0.127109
 20
0.778341
  0
VERTEX
  8
FOREGROUND
  6
CONTINUOUS
 10
0.131515
 20
0.766622
  0
VERTEX
  8
FOREGROUND
  6
CONTINUOUS
 10
0.136033
 20
0.754999
  0
VERTEX
  8
FOREGROUND
  6
CONTINUOUS
 10
0.140661
 20
0.743471
  0
VERTEX
  8
FOREGROUND
  6
CONTINUOUS
 10
0.145398
 20
0.732038
  0
VERTEX
  8
FOREGROUND
  6
CONTINUOUS
 10
0.150244
 20
0.720701
  0
VERTEX
  8
FOREGROUND
  6
CONTINUOUS
 10
0.155197
 20
0.709458
  0
VERTEX
  8
FOREGROUND
  6
CONTINUOUS
 10
0.160258
 20
0.698311
  0
VERTEX
  8
FOREGROUND
  6
CONTINUOUS
 10
0.165424
 20
0.687260
  0
VERTEX
  8
FOREGROUND
  6
CONTINUOUS
 10
0.170695
 20
0.676303
  0
VERTEX
  8
FOREGROUND
  6
CONTINUOUS
 10
0.176070
 20
0.665442
  0
VERTEX
  8
FOREGROUND
  6
CONTINUOUS
 10
0.181549
 20
0.654676
  0
VERTEX
  8
FOREGROUND
  6
CONTINUOUS
 10
0.187129
 20
0.644005
  0
VERTEX
  8
FOREGROUND
  6
CONTINUOUS
 10
0.192811
 20
0.633430
  0
VERTEX
  8
FOREGROUND
  6
CONTINUOUS
 10
0.198593
 20
0.622950
  0
VERTEX
  8
FOREGROUND
  6
CONTINUOUS
 10
0.204475
 20
0.612565
  0
VERTEX
  8
FOREGROUND
  6
CONTINUOUS
 10
0.210455
 20
0.602275
  0
VERTEX
  8
FOREGROUND
  6
CONTINUOUS
 10
0.216533
 20
0.592081
  0
VERTEX
  8
FOREGROUND
  6
CONTINUOUS
 10
0.222707
 20
0.581981
  0
VERTEX
  8
FOREGROUND
  6
CONTINUOUS
 10
0.228978
 20
0.571978
  0
VERTEX
  8
FOREGROUND
  6
CONTINUOUS
 10
0.235343
 20
0.562069
  0
VERTEX
  8
FOREGROUND
  6
CONTINUOUS
 10
0.241803
 20
0.552255
  0
VERTEX
  8
FOREGROUND
  6
CONTINUOUS
 10
0.248355
 20
0.542537
  0
VERTEX
  8
FOREGROUND
  6
CONTINUOUS
 10
0.255000
 20
0.532914
  0
VERTEX
  8
FOREGROUND
  6
CONTINUOUS
 10
0.261736
 20
0.523387
  0
VERTEX
  8
FOREGROUND
  6
CONTINUOUS
 10
0.268563
 20
0.513954
  0
VERTEX
  8
FOREGROUND
  6
CONTINUOUS
 10
0.275478
 20
0.504617
  0
VERTEX
  8
FOREGROUND
  6
CONTINUOUS
 10
0.282483
 20
0.495375
  0
VERTEX
  8
FOREGROUND
  6
CONTINUOUS
 10
0.289575
 20
0.486229
  0
VERTEX
  8
FOREGROUND
  6
CONTINUOUS
 10
0.296754
 20
0.477177
  0
VERTEX
  8
FOREGROUND
  6
CONTINUOUS
 10
0.304019
 20
0.468221
  0
VERTEX
  8
FOREGROUND
  6
CONTINUOUS
 10
0.311369
 20
0.459360
  0
VERTEX
  8
FOREGROUND
  6
CONTINUOUS
 10
0.318803
 20
0.450595
  0
VERTEX
  8
FOREGROUND
  6
CONTINUOUS
 10
0.326320
 20
0.441924
  0
VERTEX
  8
FOREGROUND
  6
CONTINUOUS
 10
0.333919
 20
0.433349
  0
VERTEX
  8
FOREGROUND
  6
CONTINUOUS
 10
0.341599
 20
0.424869
  0
VERTEX
  8
FOREGROUND
  6
CONTINUOUS
 10
0.349360
 20
0.416485
  0
VERTEX
  8
FOREGROUND
  6
CONTINUOUS
 10
0.357201
 20
0.408195
  0
VERTEX
  8
FOREGROUND
  6
CONTINUOUS
 10
0.365120
 20
0.400001
  0
VERTEX
  8
FOREGROUND
  6
CONTINUOUS
 10
0.373116
 20
0.391902
  0
VERTEX
  8
FOREGROUND
  6
CONTINUOUS
 10
0.381190
 20
0.383899
  0
VERTEX
  8
FOREGROUND
  6
CONTINUOUS
 10
0.389339
 20
0.375991
  0
VERTEX
  8
FOREGROUND
  6
CONTINUOUS
 10
0.397563
 20
0.368178
  0
VERTEX
  8
FOREGROUND
  6
CONTINUOUS
 10
0.405862
 20
0.360460
  0
VERTEX
  8
FOREGROUND
  6
CONTINUOUS
 10
0.414233
 20
0.352837
  0
VERTEX
  8
FOREGROUND
  6
CONTINUOUS
 10
0.422677
 20
0.345310
  0
VERTEX
  8
FOREGROUND
  6
CONTINUOUS
 10
0.431192
 20
0.337878
  0
VERTEX
  8
FOREGROUND
  6
CONTINUOUS
 10
0.439777
 20
0.330541
  0
VERTEX
  8
FOREGROUND
  6
CONTINUOUS
 10
0.448432
 20
0.323300
  0
VERTEX
  8
FOREGROUND
  6
CONTINUOUS
 10
0.457155
 20
0.316153
  0
VERTEX
  8
FOREGROUND
  6
CONTINUOUS
 10
0.465947
 20
0.309102
  0
VERTEX
  8
FOREGROUND
  6
CONTINUOUS
 10
0.474805
 20
0.302147
  0
VERTEX
  8
FOREGROUND
  6
CONTINUOUS
 10
0.483728
 20
0.295286
  0
VERTEX
  8
FOREGROUND
  6
CONTINUOUS
 10
0.492717
 20
0.288521
  0
VERTEX
  8
FOREGROUND
  6
CONTINUOUS
 10
0.501770
 20
0.281851
  0
VERTEX
  8
FOREGROUND
  6
CONTINUOUS
 10
0.510886
 20
0.275276
  0
VERTEX
  8
FOREGROUND
  6
CONTINUOUS
 10
0.520064
 20
0.268797
  0
VERTEX
  8
FOREGROUND
  6
CONTINUOUS
 10
0.529304
 20
0.262413
  0
VERTEX
  8
FOREGROUND
  6
CONTINUOUS
 10
0.538604
 20
0.256124
  0
VERTEX
  8
FOREGROUND
  6
CONTINUOUS
 10
0.547963
 20
0.249930
  0
VERTEX
  8
FOREGROUND
  6
CONTINUOUS
 10
0.557381
 20
0.243832
  0
VERTEX
  8
FOREGROUND
  6
CONTINUOUS
 10
0.566857
 20
0.237829
  0
VERTEX
  8
FOREGROUND
  6
CONTINUOUS
 10
0.576390
 20
0.231921
  0
VERTEX
  8
FOREGROUND
  6
CONTINUOUS
 10
0.585978
 20
0.226108
  0
VERTEX
  8
FOREGROUND
  6
CONTINUOUS
 10
0.595622
 20
0.220391
  0
VERTEX
  8
FOREGROUND
  6
CONTINUOUS
 10
0.605319
 20
0.214768
  0
VERTEX
  8
FOREGROUND
  6
CONTINUOUS
 10
0.615070
 20
0.209242
  0
VERTEX
  8
FOREGROUND
  6
CONTINUOUS
 10
0.624873
 20
0.203810
  0
VERTEX
  8
FOREGROUND
  6
CONTINUOUS
 10
0.634727
 20
0.198474
  0
VERTEX
  8
FOREGROUND
  6
CONTINUOUS
 10
0.644632
 20
0.193233
  0
VERTEX
  8
FOREGROUND
  6
CONTINUOUS
 10
0.654586
 20
0.188087
  0
VERTEX
  8
FOREGROUND
  6
CONTINUOUS
 10
0.664589
 20
0.183036
  0
VERTEX
  8
FOREGROUND
  6
CONTINUOUS
 10
0.674639
 20
0.178081
  0
VERTEX
  8
FOREGROUND
  6
CONTINUOUS
 10
0.684736
 20
0.173221
  0
VERTEX
  8
FOREGROUND
  6
CONTINUOUS
 10
0.694880
 20
0.168456
  0
VERTEX
  8
FOREGROUND
  6
CONTINUOUS
 10
0.705068
 20
0.163787
  0
VERTEX
  8
FOREGROUND
  6
CONTINUOUS
 10
0.715300
 20
0.159212
  0
VERTEX
  8
FOREGROUND
  6
CONTINUOUS
 10
0.725575
 20
0.154733
  0
VERTEX
  8
FOREGROUND
  6
CONTINUOUS
 10
0.735893
 20
0.150350
  0
VERTEX
  8
FOREGROUND
  6
CONTINUOUS
 10
0.746252
 20
0.146061
  0
VERTEX
  8
FOREGROUND
  6
CONTINUOUS
 10
0.756651
 20
0.141868
  0
VERTEX
  8
FOREGROUND
  6
CONTINUOUS
 10
0.767090
 20
0.137770
  0
VERTEX
  8
FOREGROUND
  6
CONTINUOUS
 10
0.777568
 20
0.133767
  0
VERTEX
  8
FOREGROUND
  6
CONTINUOUS
 10
0.788083
 20
0.129860
  0
VERTEX
  8
FOREGROUND
  6
CONTINUOUS
 10
0.798635
 20
0.126048
  0
VERTEX
  8
FOREGROUND
  6
CONTINUOUS
 10
0.809223
 20
0.122331
  0
VERTEX
  8
FOREGROUND
  6
CONTINUOUS
 10
0.819846
 20
0.118709
  0
VERTEX
  8
FOREGROUND
  6
CONTINUOUS
 10
0.830503
 20
0.115183
  0
VERTEX
  8
FOREGROUND
  6
CONTINUOUS
 10
0.841194
 20
0.111752
  0
VERTEX
  8
FOREGROUND
  6
CONTINUOUS
 10
0.851916
 20
0.108416
  0
VERTEX
  8
FOREGROUND
  6
CONTINUOUS
 10
0.862670
 20
0.105176
  0
VERTEX
  8
FOREGROUND
  6
CONTINUOUS
 10
0.873454
 20
0.102030
  0
VERTEX
  8
FOREGROUND
  6
CONTINUOUS
 10
0.884268
 20
0.098980
  0
VERTEX
  8
FOREGROUND
  6
CONTINUOUS
 10
0.895110
 20
0.096025
  0
VERTEX
  8
FOREGROUND
  6
CONTINUOUS
 10
0.905981
 20
0.093166
  0
VERTEX
  8
FOREGROUND
  6
CONTINUOUS
 10
0.916877
 20
0.090402
  0
VERTEX
  8
FOREGROUND
  6
CONTINUOUS
 10
0.927800
 20
0.087733
  0
VERTEX
  8
FOREGROUND
  6
CONTINUOUS
 10
0.938748
 20
0.085159
  0
VERTEX
  8
FOREGROUND
  6
CONTINUOUS
 10
0.949720
 20
0.082680
  0
VERTEX
  8
FOREGROUND
  6
CONTINUOUS
 10
0.960715
 20
0.080297
  0
VERTEX
  8
FOREGROUND
  6
CONTINUOUS
 10
0.971733
 20
0.078009
  0
VERTEX
  8
FOREGROUND
  6
CONTINUOUS
 10
0.982771
 20
0.075817
  0
VERTEX
  8
FOREGROUND
  6
CONTINUOUS
 10
0.993831
 20
0.073719
  0
VERTEX
  8
FOREGROUND
  6
CONTINUOUS
 10
1.004909
 20
0.071717
  0
VERTEX
  8
FOREGROUND
  6
CONTINUOUS
 10
1.016007
 20
0.069810
  0
VERTEX
  8
FOREGROUND
  6
CONTINUOUS
 10
1.027122
 20
0.067998
  0
VERTEX
  8
FOREGROUND
  6
CONTINUOUS
 10
1.038254
 20
0.066282
  0
VERTEX
  8
FOREGROUND
  6
CONTINUOUS
 10
1.049402
 20
0.064661
  0
VERTEX
  8
FOREGROUND
  6
CONTINUOUS
 10
1.060565
 20
0.063135
  0
VERTEX
  8
FOREGROUND
  6
CONTINUOUS
 10
1.071741
 20
0.061705
  0
VERTEX
  8
FOREGROUND
  6
CONTINUOUS
 10
1.082932
 20
0.060369
  0
VERTEX
  8
FOREGROUND
  6
CONTINUOUS
 10
1.094134
 20
0.059129
  0
VERTEX
  8
FOREGROUND
  6
CONTINUOUS
 10
1.105348
 20
0.057985
  0
VERTEX
  8
FOREGROUND
  6
CONTINUOUS
 10
1.116572
 20
0.056935
  0
VERTEX
  8
FOREGROUND
  6
CONTINUOUS
 10
1.127806
 20
0.055981
  0
VERTEX
  8
FOREGROUND
  6
CONTINUOUS
 10
1.139048
 20
0.055122
  0
VERTEX
  8
FOREGROUND
  6
CONTINUOUS
 10
1.150298
 20
0.054358
  0
VERTEX
  8
FOREGROUND
  6
CONTINUOUS
 10
1.161555
 20
0.053690
  0
VERTEX
  8
FOREGROUND
  6
CONTINUOUS
 10
1.172818
 20
0.053117
  0
VERTEX
  8
FOREGROUND
  6
CONTINUOUS
 10
1.184086
 20
0.052639
  0
VERTEX
  8
FOREGROUND
  6
CONTINUOUS
 10
1.195358
 20
0.052256
  0
VERTEX
  8
FOREGROUND
  6
CONTINUOUS
 10
1.206633
 20
0.051969
  0
VERTEX
  8
FOREGROUND
  6
CONTINUOUS
 10
1.217911
 20
0.051777
  0
VERTEX
  8
FOREGROUND
  6
CONTINUOUS
 10
1.229190
 20
0.051680
  0
VERTEX
  8
FOREGROUND
  6
CONTINUOUS
 10
1.240469
 20
0.051678
  0
VERTEX
  8
FOREGROUND
  6
CONTINUOUS
 10
1.251748
 20
0.051772
  0
VERTEX
  8
FOREGROUND
  6
CONTINUOUS
 10
1.263025
 20
0.051961
  0
VERTEX
  8
FOREGROUND
  6
CONTINUOUS
 10
1.274301
 20
0.052245
  0
VERTEX
  8
FOREGROUND
  6
CONTINUOUS
 10
1.285573
 20
0.052625
  0
VERTEX
  8
FOREGROUND
  6
CONTINUOUS
 10
1.296841
 20
0.053099
  0
VERTEX
  8
FOREGROUND
  6
CONTINUOUS
 10
1.308104
 20
0.053669
  0
VERTEX
  8
FOREGROUND
  6
CONTINUOUS
 10
1.319361
 20
0.054335
  0
VERTEX
  8
FOREGROUND
  6
CONTINUOUS
 10
1.330612
 20
0.055095
  0
VERTEX
  8
FOREGROUND
  6
CONTINUOUS
 10
1.341854
 20
0.055951
  0
VERTEX
  8
FOREGROUND
  6
CONTINUOUS
 10
1.353088
 20
0.056902
  0
VERTEX
  8
FOREGROUND
  6
CONTINUOUS
 10
1.364313
 20
0.057949
  0
VERTEX
  8
FOREGROUND
  6
CONTINUOUS
 10
1.375527
 20
0.059090
  0
VERTEX
  8
FOREGROUND
  6
CONTINUOUS
 10
1.386730
 20
0.060327
  0
VERTEX
  8
FOREGROUND
  6
CONTINUOUS
 10
1.397920
 20
0.061659
  0
VERTEX
  8
FOREGROUND
  6
CONTINUOUS
 10
1.409098
 20
0.063087
  0
VERTEX
  8
FOREGROUND
  6
CONTINUOUS
 10
1.420261
 20
0.064610
  0
VERTEX
  8
FOREGROUND
  6
CONTINUOUS
 10
1.431409
 20
0.066228
  0
VERTEX
  8
FOREGROUND
  6
CONTINUOUS
 10
1.442542
 20
0.067941
  0
VERTEX
  8
FOREGROUND
  6
CONTINUOUS
 10
1.453657
 20
0.069749
  0
VERTEX
  8
FOREGROUND
  6
CONTINUOUS
 10
1.464755
 20
0.071653
  0
VERTEX
  8
FOREGROUND
  6
CONTINUOUS
 10
1.475834
 20
0.073652
  0
VERTEX
  8
FOREGROUND
  6
CONTINUOUS
 10
1.486894
 20
0.075747
  0
VERTEX
  8
FOREGROUND
  6
CONTINUOUS
 10
1.497934
 20
0.077936
  0
VERTEX
  8
FOREGROUND
  6
CONTINUOUS
 10
1.508952
 20
0.080221
  0
VERTEX
  8
FOREGROUND
  6
CONTINUOUS
 10
1.519948
 20
0.082601
  0
VERTEX
  8
FOREGROUND
  6
CONTINUOUS
 10
1.530920
 20
0.085077
  0
VERTEX
  8
FOREGROUND
  6
CONTINUOUS
 10
1.541869
 20
0.087647
  0
VERTEX
  8
FOREGROUND
  6
CONTINUOUS
 10
1.552792
 20
0.090313
  0
VERTEX
  8
FOREGROUND
  6
CONTINUOUS
 10
1.563690
 20
0.093075
  0
VERTEX
  8
FOREGROUND
  6
CONTINUOUS
 10
1.574561
 20
0.095931
  0
VERTEX
  8
FOREGROUND
  6
CONTINUOUS
 10
1.585404
 20
0.098883
  0
VERTEX
  8
FOREGROUND
  6
CONTINUOUS
 10
1.596219
 20
0.101930
  0
VERTEX
  8
FOREGROUND
  6
CONTINUOUS
 10
1.607004
 20
0.105072
  0
VERTEX
  8
FOREGROUND
  6
CONTINUOUS
 10
1.617759
 20
0.108310
  0
VERTEX
  8
FOREGROUND
  6
CONTINUOUS
 10
1.628483
 20
0.111643
  0
VERTEX
  8
FOREGROUND
  6
CONTINUOUS
 10
1.639174
 20
0.115071
  0
VERTEX
  8
FOREGROUND
  6
CONTINUOUS
 10
1.649832
 20
0.118594
  0
VERTEX
  8
FOREGROUND
  6
CONTINUOUS
 10
1.660456
 20
0.122213
  0
VERTEX
  8
FOREGROUND
  6
CONTINUOUS
 10
1.671045
 20
0.125927
  0
VERTEX
  8
FOREGROUND
  6
CONTINUOUS
 10
1.681598
 20
0.129736
  0
VERTEX
  8
FOREGROUND
  6
CONTINUOUS
 10
1.692114
 20
0.133641
  0
VERTEX
  8
FOREGROUND
  6
CONTINUOUS
 10
1.702593
 20
0.137640
  0
VERTEX
  8
FOREGROUND
  6
CONTINUOUS
 10
1.713033
 20
0.141736
  0
VERTEX
  8
FOREGROUND
  6
CONTINUOUS
 10
1.723434
 20
0.145926
  0
VERTEX
  8
FOREGROUND
  6
CONTINUOUS
 10
1.733794
 20
0.150211
  0
VERTEX
  8
FOREGROUND
  6
CONTINUOUS
 10
1.744113
 20
0.154592
  0
VERTEX
  8
FOREGROUND
  6
CONTINUOUS
 10
1.754390
 20
0.159068
  0
VERTEX
  8
FOREGROUND
  6
CONTINUOUS
 10
1.764623
 20
0.163640
  0
VERTEX
  8
FOREGROUND
  6
CONTINUOUS
 10
1.774813
 20
0.168307
  0
VERTEX
  8
FOREGROUND
  6
CONTINUOUS
 10
1.784957
 20
0.173068
  0
VERTEX
  8
FOREGROUND
  6
CONTINUOUS
 10
1.795056
 20
0.177926
  0
VERTEX
  8
FOREGROUND
  6
CONTINUOUS
 10
1.805108
 20
0.182878
  0
VERTEX
  8
FOREGROUND
  6
CONTINUOUS
 10
1.815112
 20
0.187926
  0
VERTEX
  8
FOREGROUND
  6
CONTINUOUS
 10
1.825068
 20
0.193069
  0
VERTEX
  8
FOREGROUND
  6
CONTINUOUS
 10
1.834974
 20
0.198307
  0
VERTEX
  8
FOREGROUND
  6
CONTINUOUS
 10
1.844830
 20
0.203641
  0
VERTEX
  8
FOREGROUND
  6
CONTINUOUS
 10
1.854634
 20
0.209070
  0
VERTEX
  8
FOREGROUND
  6
CONTINUOUS
 10
1.864387
 20
0.214594
  0
VERTEX
  8
FOREGROUND
  6
CONTINUOUS
 10
1.874086
 20
0.220213
  0
VERTEX
  8
FOREGROUND
  6
CONTINUOUS
 10
1.883731
 20
0.225928
  0
VERTEX
  8
FOREGROUND
  6
CONTINUOUS
 10
1.893321
 20
0.231738
  0
VERTEX
  8
FOREGROUND
  6
CONTINUOUS
 10
1.902855
 20
0.237643
  0
VERTEX
  8
FOREGROUND
  6
CONTINUOUS
 10
1.912333
 20
0.243644
  0
VERTEX
  8
FOREGROUND
  6
CONTINUOUS
 10
1.921753
 20
0.249740
  0
VERTEX
  8
FOREGROUND
  6
CONTINUOUS
 10
1.931114
 20
0.255931
  0
VERTEX
  8
FOREGROUND
  6
CONTINUOUS
 10
1.940416
 20
0.262217
  0
VERTEX
  8
FOREGROUND
  6
CONTINUOUS
 10
1.949657
 20
0.268599
  0
VERTEX
  8
FOREGROUND
  6
CONTINUOUS
 10
1.958837
 20
0.275076
  0
VERTEX
  8
FOREGROUND
  6
CONTINUOUS
 10
1.967955
 20
0.281648
  0
VERTEX
  8
FOREGROUND
  6
CONTINUOUS
 10
1.977010
 20
0.288315
  0
VERTEX
  8
FOREGROUND
  6
CONTINUOUS
 10
1.986001
 20
0.295078
  0
VERTEX
  8
FOREGROUND
  6
CONTINUOUS
 10
1.994927
 20
0.301936
  0
VERTEX
  8
FOREGROUND
  6
CONTINUOUS
 10
2.003786
 20
0.308889
  0
VERTEX
  8
FOREGROUND
  6
CONTINUOUS
 10
2.012580
 20
0.315938
  0
VERTEX
  8
FOREGROUND
  6
CONTINUOUS
 10
2.021305
 20
0.323082
  0
VERTEX
  8
FOREGROUND
  6
CONTINUOUS
 10
2.029962
 20
0.330321
  0
VERTEX
  8
FOREGROUND
  6
CONTINUOUS
 10
2.038550
 20
0.337655
  0
VERTEX
  8
FOREGROUND
  6
CONTINUOUS
 10
2.047067
 20
0.345085
  0
VERTEX
  8
FOREGROUND
  6
CONTINUOUS
 10
2.055513
 20
0.352610
  0
VERTEX
  8
FOREGROUND
  6
CONTINUOUS
 10
2.063886
 20
0.360230
  0
VERTEX
  8
FOREGROUND
  6
CONTINUOUS
 10
2.072187
 20
0.367945
  0
VERTEX
  8
FOREGROUND
  6
CONTINUOUS
 10
2.080413
 20
0.375756
  0
VERTEX
  8
FOREGROUND
  6
CONTINUOUS
 10
2.088565
 20
0.383662
  0
VERTEX
  8
FOREGROUND
  6
CONTINUOUS
 10
2.096641
 20
0.391664
  0
VERTEX
  8
FOREGROUND
  6
CONTINUOUS
 10
2.104640
 20
0.399760
  0
VERTEX
  8
FOREGROUND
  6
CONTINUOUS
 10
2.112561
 20
0.407952
  0
VERTEX
  8
FOREGROUND
  6
CONTINUOUS
 10
2.120404
 20
0.416239
  0
VERTEX
  8
FOREGROUND
  6
CONTINUOUS
 10
2.128167
 20
0.424622
  0
VERTEX
  8
FOREGROUND
  6
CONTINUOUS
 10
2.135850
 20
0.433099
  0
VERTEX
  8
FOREGROUND
  6
CONTINUOUS
 10
2.143452
 20
0.441672
  0
VERTEX
  8
FOREGROUND
  6
CONTINUOUS
 10
2.150971
 20
0.450341
  0
VERTEX
  8
FOREGROUND
  6
CONTINUOUS
 10
2.158408
 20
0.459104
  0
VERTEX
  8
FOREGROUND
  6
CONTINUOUS
 10
2.165760
 20
0.467963
  0
VERTEX
  8
FOREGROUND
  6
CONTINUOUS
 10
2.173027
 20
0.476917
  0
VERTEX
  8
FOREGROUND
  6
CONTINUOUS
 10
2.180209
 20
0.485967
  0
VERTEX
  8
FOREGROUND
  6
CONTINUOUS
 10
2.187304
 20
0.495111
  0
VERTEX
  8
FOREGROUND
  6
CONTINUOUS
 10
2.194311
 20
0.504351
  0
VERTEX
  8
FOREGROUND
  6
CONTINUOUS
 10
2.201230
 20
0.513686
  0
VERTEX
  8
FOREGROUND
  6
CONTINUOUS
 10
2.208059
 20
0.523117
  0
VERTEX
  8
FOREGROUND
  6
CONTINUOUS
 10
2.214798
 20
0.532643
  0
VERTEX
  8
FOREGROUND
  6
CONTINUOUS
 10
2.221445
 20
0.542264
  0
VERTEX
  8
FOREGROUND
  6
CONTINUOUS
 10
2.228001
 20
0.551980
  0
VERTEX
  8
FOREGROUND
  6
CONTINUOUS
 10
2.234463
 20
0.561792
  0
VERTEX
  8
FOREGROUND
  6
CONTINUOUS
 10
2.240831
 20
0.571699
  0
VERTEX
  8
FOREGROUND
  6
CONTINUOUS
 10
2.247105
 20
0.581701
  0
VERTEX
  8
FOREGROUND
  6
CONTINUOUS
 10
2.253282
 20
0.591798
  0
VERTEX
  8
FOREGROUND
  6
CONTINUOUS
 10
2.259363
 20
0.601991
  0
VERTEX
  8
FOREGROUND
  6
CONTINUOUS
 10
2.265346
 20
0.612279
  0
VERTEX
  8
FOREGROUND
  6
CONTINUOUS
 10
2.271231
 20
0.622662
  0
VERTEX
  8
FOREGROUND
  6
CONTINUOUS
 10
2.277016
 20
0.633141
  0
VERTEX
  8
FOREGROUND
  6
CONTINUOUS
 10
2.282701
 20
0.643715
  0
VERTEX
  8
FOREGROUND
  6
CONTINUOUS
 10
2.288284
 20
0.654384
  0
VERTEX
  8
FOREGROUND
  6
CONTINUOUS
 10
2.293766
 20
0.665149
  0
VERTEX
  8
FOREGROUND
  6
CONTINUOUS
 10
2.299144
 20
0.676008
  0
VERTEX
  8
FOREGROUND
  6
CONTINUOUS
 10
2.304418
 20
0.686963
  0
VERTEX
  8
FOREGROUND
  6
CONTINUOUS
 10
2.309588
 20
0.698014
  0
VERTEX
  8
FOREGROUND
  6
CONTINUOUS
 10
2.314651
 20
0.709159
  0
VERTEX
  8
FOREGROUND
  6
CONTINUOUS
 10
2.319608
 20
0.720400
  0
VERTEX
  8
FOREGROUND
  6
CONTINUOUS
 10
2.324457
 20
0.731736
  0
VERTEX
  8
FOREGROUND
  6
CONTINUOUS
 10
2.329198
 20
0.743168
  0
VERTEX
  8
FOREGROUND
  6
CONTINUOUS
 10
2.333829
 20
0.754694
  0
VERTEX
  8
FOREGROUND
  6
CONTINUOUS
 10
2.338350
 20
0.766316
  0
VERTEX
  8
FOREGROUND
  6
CONTINUOUS
 10
2.342760
 20
0.778033
  0
VERTEX
  8
FOREGROUND
  6
CONTINUOUS
 10
2.347057
 20
0.789846
  0
VERTEX
  8
FOREGROUND
  6
CONTINUOUS
 10
2.351241
 20
0.801754
  0
VERTEX
  8
FOREGROUND
  6
CONTINUOUS
 10
2.355312
 20
0.813757
  0
VERTEX
  8
FOREGROUND
  6
CONTINUOUS
 10
2.359267
 20
0.825855
  0
VERTEX
  8
FOREGROUND
  6
CONTINUOUS
 10
2.363107
 20
0.838049
  0
VERTEX
  8
FOREGROUND
  6
CONTINUOUS
 10
2.366830
 20
0.850338
  0
VERTEX
  8
FOREGROUND
  6
CONTINUOUS
 10
2.370435
 20
0.862722
  0
VERTEX
  8
FOREGROUND
  6
CONTINUOUS
 10
2.373922
 20
0.875202
  0
VERTEX
  8
FOREGROUND
  6
CONTINUOUS
 10
2.377290
 20
0.887777
  0
VERTEX
  8
FOREGROUND
  6
CONTINUOUS
 10
2.380537
 20
0.900447
  0
VERTEX
  8
FOREGROUND
  6
CONTINUOUS
 10
2.383662
 20
0.913212
  0
VERTEX
  8
FOREGROUND
  6
CONTINUOUS
 10
2.386666
 20
0.926073
  0
VERTEX
  8
FOREGROUND
  6
CONTINUOUS
 10
2.389547
 20
0.939029
  0
VERTEX
  8
FOREGROUND
  6
CONTINUOUS
 10
2.392303
 20
0.952080
  0
VERTEX
  8
FOREGROUND
  6
CONTINUOUS
 10
2.394935
 20
0.965226
  0
VERTEX
  8
FOREGROUND
  6
CONTINUOUS
 10
2.397441
 20
0.978468
  0
VERTEX
  8
FOREGROUND
  6
CONTINUOUS
 10
2.399820
 20
0.991805
  0
VERTEX
  8
FOREGROUND
  6
CONTINUOUS
 10
2.402071
 20
1.005238
  0
VERTEX
  8
FOREGROUND
  6
CONTINUOUS
 10
2.404195
 20
1.018765
  0
VERTEX
  8
FOREGROUND
  6
CONTINUOUS
 10
2.406188
 20
1.032388
  0
VERTEX
  8
FOREGROUND
  6
CONTINUOUS
 10
2.408051
 20
1.046106
  0
VERTEX
  8
FOREGROUND
  6
CONTINUOUS
 10
2.409783
 20
1.059920
  0
VERTEX
  8
FOREGROUND
  6
CONTINUOUS
 10
2.411383
 20
1.073829
  0
VERTEX
  8
FOREGROUND
  6
CONTINUOUS
 10
2.412850
 20
1.087833
  0
VERTEX
  8
FOREGROUND
  6
CONTINUOUS
 10
2.414183
 20
1.101932
  0
VERTEX
  8
FOREGROUND
  6
CONTINUOUS
 10
2.415381
 20
1.116127
  0
VERTEX
  8
FOREGROUND
  6
CONTINUOUS
 10
2.416443
 20
1.130417
  0
VERTEX
  8
FOREGROUND
  6
CONTINUOUS
 10
2.417369
 20
1.144802
  0
VERTEX
  8
FOREGROUND
  6
CONTINUOUS
 10
2.418156
 20
1.159283
  0
VERTEX
  8
FOREGROUND
  6
CONTINUOUS
 10
2.418806
 20
1.173858
  0
VERTEX
  8
FOREGROUND
  6
CONTINUOUS
 10
2.419316
 20
1.188529
  0
VERTEX
  8
FOREGROUND
  6
CONTINUOUS
 10
2.419685
 20
1.203296
  0
VERTEX
  8
FOREGROUND
  6
CONTINUOUS
 10
2.419914
 20
1.218157
  0
VERTEX
  8
FOREGROUND
  6
CONTINUOUS
 10
2.420000
 20
1.233114
  0
SEQEND
  8
0
  0
ENDSEC
  0
EOF
