  0
SECTION
  2
HEADER
  9
$ACADVER
  1
AC1006
  9
$EXTMIN
 10
0.000000
 20
0.000000
  9
$EXTMAX
 10
2.863333
 20
2.860000
  9
$LTSCALE
 40
0.166667
  9
$PDMODE
 70
    35
  9
$PDSIZE
 40
0.133333
  0
ENDSEC
  0
SECTION
  2
TABLES
  0
TABLE
  2
LTYPE
 70
     9
  0
LTYPE
  2
CONTINUOUS
 70
    64
  3
Solid line
 72
    65
 73
     0
 40
0.000000
  0
LTYPE
  2
DASHED
 70
    64
  3
__ __ __ __ __ __ __ __ __ __ __ __ __ __ __
 72
    65
 73
     2
 40
0.001250
 49
0.000833
 49
-0.000417
  0
LTYPE
  2
HIDDEN
 70
    64
  3
 _ _ _ _ _ _ _ _ _ _ _ _ _ _ _ _ _ _ _ _ _ _
 72
    65
 73
     2
 40
0.000625
 49
0.000417
 49
-0.000208
  0
LTYPE
  2
CENTER
 70
    64
  3
____ _ ____ _ ____ _ ____ _ ____ _ ____ _ ____
 72
    65
 73
     4
 40
0.003333
 49
0.002083
 49
-0.000417
 49
0.000417
 49
-0.000417
  0
LTYPE
  2
PHANTOM
 70
    64
  3
_____ _ _ _____ _ _ _____ _ _ _____ _ _ ____
 72
    65
 73
     6
 40
0.004167
 49
0.002083
 49
-0.000417
 49
0.000417
 49
-0.000417
 49
0.000417
 49
-0.000417
  0
LTYPE
  2
DOT
 70
    64
  3
...............................................
 72
    65
 73
     2
 40
0.000417
 49
0.000000
 49
-0.000417
  0
LTYPE
  2
DASHDOT
 70
    64
  3
__ . __ . __ . __ . __ . __ . __ . __ . __ . __
 72
    65
 73
     4
 40
0.001667
 49
0.000833
 49
-0.000417
 49
0.000000
 49
-0.000417
  0
LTYPE
  2
BORDER
 70
    64
  3
__ __ . __ __ . __ __ . __ __ . __ __ . __ __
 72
    65
 73
     6
 40
0.002917
 49
0.000833
 49
-0.000417
 49
0.000833
 49
-0.000417
 49
0.000000
 49
-0.000417
  0
LTYPE
  2
DIVIDE
 70
    64
  3
__ . . __ . . __ . . __ . . __ . . __ . . __
 72
    65
 73
     6
 40
0.002083
 49
0.000833
 49
-0.000417
 49
0.000000
 49
-0.000417
 49
0.000000
 49
-0.000417
  0
LTYPE
  2
DOTDOT
 70
    64
  3
 . .  . .  . .  . .  . .  . . 
 72
    65
 73
     5
 40
0.000917
 49
-0.000417
 49
0.000000
 49
-0.000417
 49
0.000000
 49
-0.000417
  0
ENDTAB
  0
TABLE
  2
STYLE
 70
     2
  0
STYLE
 70
     0
  2
SN0
 40
0.000000
 41
0.001667
 50
0.000000
 71
     0
 42
0.000000
  3
ROMAND
  0
STYLE
 70
    68
  2
SV0
 40
0.000000
 41
0.001667
 50
0.000000
 71
     0
 42
0.000000
  3
ROMAND
  0
ENDTAB
  0
TABLE
  2
LAYER
 70
     2
  0
LAYER
  2
FOREGROUND
 70
    64
 62
     7
  6
CONTINUOUS
  0
LAYER
  2
BACKGROUND
 70
    65
 62
    -7
  6
CONTINUOUS
  0
ENDTAB
  0
ENDSEC
  0
SECTION
  2
ENTITIES
  0
POLYLINE
  8
FOREGROUND
  6
CONTINUOUS
 66
     1
 40
0.010000
 41
0.010000
 70
     1
  0
VERTEX
  8
FOREGROUND
  6
CONTINUOUS
 10
2.813333
 20
1.430000
  0
VERTEX
  8
FOREGROUND
  6
CONTINUOUS
 10
2.813237
 20
1.447358
  0
VERTEX
  8
FOREGROUND
  6
CONTINUOUS
 10
2.812978
 20
1.464605
  0
VERTEX
  8
FOREGROUND
  6
CONTINUOUS
 10
2.812555
 20
1.481743
  0
VERTEX
  8
FOREGROUND
  6
CONTINUOUS
 10
2.811971
 20
1.498771
  0
VERTEX
  8
FOREGROUND
  6
CONTINUOUS
 10
2.811227
 20
1.515689
  0
VERTEX
  8
FOREGROUND
  6
CONTINUOUS
 10
2.810323
 20
1.532497
  0
VERTEX
  8
FOREGROUND
  6
CONTINUOUS
 10
2.809260
 20
1.549196
  0
VERTEX
  8
FOREGROUND
  6
CONTINUOUS
 10
2.808040
 20
1.565784
  0
VERTEX
  8
FOREGROUND
  6
CONTINUOUS
 10
2.806664
 20
1.582263
  0
VERTEX
  8
FOREGROUND
  6
CONTINUOUS
 10
2.805132
 20
1.598632
  0
VERTEX
  8
FOREGROUND
  6
CONTINUOUS
 10
2.803446
 20
1.614891
  0
VERTEX
  8
FOREGROUND
  6
CONTINUOUS
 10
2.801607
 20
1.631040
  0
VERTEX
  8
FOREGROUND
  6
CONTINUOUS
 10
2.799615
 20
1.647079
  0
VERTEX
  8
FOREGROUND
  6
CONTINUOUS
 10
2.797472
 20
1.663009
  0
VERTEX
  8
FOREGROUND
  6
CONTINUOUS
 10
2.795179
 20
1.678828
  0
VERTEX
  8
FOREGROUND
  6
CONTINUOUS
 10
2.792737
 20
1.694538
  0
VERTEX
  8
FOREGROUND
  6
CONTINUOUS
 10
2.790147
 20
1.710138
  0
VERTEX
  8
FOREGROUND
  6
CONTINUOUS
 10
2.787410
 20
1.725628
  0
VERTEX
  8
FOREGROUND
  6
CONTINUOUS
 10
2.784526
 20
1.741008
  0
VERTEX
  8
FOREGROUND
  6
CONTINUOUS
 10
2.781498
 20
1.756279
  0
VERTEX
  8
FOREGROUND
  6
CONTINUOUS
 10
2.778326
 20
1.771439
  0
VERTEX
  8
FOREGROUND
  6
CONTINUOUS
 10
2.775011
 20
1.786490
  0
VERTEX
  8
FOREGROUND
  6
CONTINUOUS
 10
2.771554
 20
1.801431
  0
VERTEX
  8
FOREGROUND
  6
CONTINUOUS
 10
2.767956
 20
1.816262
  0
VERTEX
  8
FOREGROUND
  6
CONTINUOUS
 10
2.764218
 20
1.830983
  0
VERTEX
  8
FOREGROUND
  6
CONTINUOUS
 10
2.760342
 20
1.845594
  0
VERTEX
  8
FOREGROUND
  6
CONTINUOUS
 10
2.756328
 20
1.860095
  0
VERTEX
  8
FOREGROUND
  6
CONTINUOUS
 10
2.752177
 20
1.874487
  0
VERTEX
  8
FOREGROUND
  6
CONTINUOUS
 10
2.747891
 20
1.888769
  0
VERTEX
  8
FOREGROUND
  6
CONTINUOUS
 10
2.743470
 20
1.902940
  0
VERTEX
  8
FOREGROUND
  6
CONTINUOUS
 10
2.738916
 20
1.917002
  0
VERTEX
  8
FOREGROUND
  6
CONTINUOUS
 10
2.734229
 20
1.930955
  0
VERTEX
  8
FOREGROUND
  6
CONTINUOUS
 10
2.729411
 20
1.944797
  0
VERTEX
  8
FOREGROUND
  6
CONTINUOUS
 10
2.724462
 20
1.958529
  0
VERTEX
  8
FOREGROUND
  6
CONTINUOUS
 10
2.719383
 20
1.972152
  0
VERTEX
  8
FOREGROUND
  6
CONTINUOUS
 10
2.714177
 20
1.985665
  0
VERTEX
  8
FOREGROUND
  6
CONTINUOUS
 10
2.708843
 20
1.999067
  0
VERTEX
  8
FOREGROUND
  6
CONTINUOUS
 10
2.703383
 20
2.012360
  0
VERTEX
  8
FOREGROUND
  6
CONTINUOUS
 10
2.697798
 20
2.025544
  0
VERTEX
  8
FOREGROUND
  6
CONTINUOUS
 10
2.692088
 20
2.038617
  0
VERTEX
  8
FOREGROUND
  6
CONTINUOUS
 10
2.686255
 20
2.051580
  0
VERTEX
  8
FOREGROUND
  6
CONTINUOUS
 10
2.680301
 20
2.064434
  0
VERTEX
  8
FOREGROUND
  6
CONTINUOUS
 10
2.674225
 20
2.077178
  0
VERTEX
  8
FOREGROUND
  6
CONTINUOUS
 10
2.668029
 20
2.089812
  0
VERTEX
  8
FOREGROUND
  6
CONTINUOUS
 10
2.661714
 20
2.102336
  0
VERTEX
  8
FOREGROUND
  6
CONTINUOUS
 10
2.655281
 20
2.114750
  0
VERTEX
  8
FOREGROUND
  6
CONTINUOUS
 10
2.648731
 20
2.127054
  0
VERTEX
  8
FOREGROUND
  6
CONTINUOUS
 10
2.642066
 20
2.139249
  0
VERTEX
  8
FOREGROUND
  6
CONTINUOUS
 10
2.635285
 20
2.151334
  0
VERTEX
  8
FOREGROUND
  6
CONTINUOUS
 10
2.628391
 20
2.163308
  0
VERTEX
  8
FOREGROUND
  6
CONTINUOUS
 10
2.621384
 20
2.175173
  0
VERTEX
  8
FOREGROUND
  6
CONTINUOUS
 10
2.614265
 20
2.186928
  0
VERTEX
  8
FOREGROUND
  6
CONTINUOUS
 10
2.607035
 20
2.198574
  0
VERTEX
  8
FOREGROUND
  6
CONTINUOUS
 10
2.599696
 20
2.210109
  0
VERTEX
  8
FOREGROUND
  6
CONTINUOUS
 10
2.592249
 20
2.221535
  0
VERTEX
  8
FOREGROUND
  6
CONTINUOUS
 10
2.584693
 20
2.232850
  0
VERTEX
  8
FOREGROUND
  6
CONTINUOUS
 10
2.577032
 20
2.244056
  0
VERTEX
  8
FOREGROUND
  6
CONTINUOUS
 10
2.569264
 20
2.255152
  0
VERTEX
  8
FOREGROUND
  6
CONTINUOUS
 10
2.561393
 20
2.266138
  0
VERTEX
  8
FOREGROUND
  6
CONTINUOUS
 10
2.553417
 20
2.277014
  0
VERTEX
  8
FOREGROUND
  6
CONTINUOUS
 10
2.545340
 20
2.287781
  0
VERTEX
  8
FOREGROUND
  6
CONTINUOUS
 10
2.537161
 20
2.298437
  0
VERTEX
  8
FOREGROUND
  6
CONTINUOUS
 10
2.528882
 20
2.308984
  0
VERTEX
  8
FOREGROUND
  6
CONTINUOUS
 10
2.520504
 20
2.319421
  0
VERTEX
  8
FOREGROUND
  6
CONTINUOUS
 10
2.512027
 20
2.329748
  0
VERTEX
  8
FOREGROUND
  6
CONTINUOUS
 10
2.503453
 20
2.339965
  0
VERTEX
  8
FOREGROUND
  6
CONTINUOUS
 10
2.494783
 20
2.350072
  0
VERTEX
  8
FOREGROUND
  6
CONTINUOUS
 10
2.486018
 20
2.360070
  0
VERTEX
  8
FOREGROUND
  6
CONTINUOUS
 10
2.477159
 20
2.369958
  0
VERTEX
  8
FOREGROUND
  6
CONTINUOUS
 10
2.468207
 20
2.379735
  0
VERTEX
  8
FOREGROUND
  6
CONTINUOUS
 10
2.459163
 20
2.389403
  0
VERTEX
  8
FOREGROUND
  6
CONTINUOUS
 10
2.450028
 20
2.398961
  0
VERTEX
  8
FOREGROUND
  6
CONTINUOUS
 10
2.440803
 20
2.408409
  0
VERTEX
  8
FOREGROUND
  6
CONTINUOUS
 10
2.431490
 20
2.417748
  0
VERTEX
  8
FOREGROUND
  6
CONTINUOUS
 10
2.422088
 20
2.426976
  0
VERTEX
  8
FOREGROUND
  6
CONTINUOUS
 10
2.412600
 20
2.436095
  0
VERTEX
  8
FOREGROUND
  6
CONTINUOUS
 10
2.403026
 20
2.445104
  0
VERTEX
  8
FOREGROUND
  6
CONTINUOUS
 10
2.393367
 20
2.454003
  0
VERTEX
  8
FOREGROUND
  6
CONTINUOUS
 10
2.383625
 20
2.462792
  0
VERTEX
  8
FOREGROUND
  6
CONTINUOUS
 10
2.373800
 20
2.471471
  0
VERTEX
  8
FOREGROUND
  6
CONTINUOUS
 10
2.363893
 20
2.480040
  0
VERTEX
  8
FOREGROUND
  6
CONTINUOUS
 10
2.353906
 20
2.488500
  0
VERTEX
  8
FOREGROUND
  6
CONTINUOUS
 10
2.343839
 20
2.496849
  0
VERTEX
  8
FOREGROUND
  6
CONTINUOUS
 10
2.333694
 20
2.505089
  0
VERTEX
  8
FOREGROUND
  6
CONTINUOUS
 10
2.323472
 20
2.513219
  0
VERTEX
  8
FOREGROUND
  6
CONTINUOUS
 10
2.313173
 20
2.521239
  0
VERTEX
  8
FOREGROUND
  6
CONTINUOUS
 10
2.302798
 20
2.529149
  0
VERTEX
  8
FOREGROUND
  6
CONTINUOUS
 10
2.292350
 20
2.536950
  0
VERTEX
  8
FOREGROUND
  6
CONTINUOUS
 10
2.281828
 20
2.544640
  0
VERTEX
  8
FOREGROUND
  6
CONTINUOUS
 10
2.271234
 20
2.552221
  0
VERTEX
  8
FOREGROUND
  6
CONTINUOUS
 10
2.260568
 20
2.559692
  0
VERTEX
  8
FOREGROUND
  6
CONTINUOUS
 10
2.249833
 20
2.567053
  0
VERTEX
  8
FOREGROUND
  6
CONTINUOUS
 10
2.239028
 20
2.574304
  0
VERTEX
  8
FOREGROUND
  6
CONTINUOUS
 10
2.228156
 20
2.581445
  0
VERTEX
  8
FOREGROUND
  6
CONTINUOUS
 10
2.217216
 20
2.588476
  0
VERTEX
  8
FOREGROUND
  6
CONTINUOUS
 10
2.206210
 20
2.595398
  0
VERTEX
  8
FOREGROUND
  6
CONTINUOUS
 10
2.195140
 20
2.602210
  0
VERTEX
  8
FOREGROUND
  6
CONTINUOUS
 10
2.184005
 20
2.608911
  0
VERTEX
  8
FOREGROUND
  6
CONTINUOUS
 10
2.172808
 20
2.615503
  0
VERTEX
  8
FOREGROUND
  6
CONTINUOUS
 10
2.161549
 20
2.621986
  0
VERTEX
  8
FOREGROUND
  6
CONTINUOUS
 10
2.150228
 20
2.628358
  0
VERTEX
  8
FOREGROUND
  6
CONTINUOUS
 10
2.138849
 20
2.634620
  0
VERTEX
  8
FOREGROUND
  6
CONTINUOUS
 10
2.127410
 20
2.640773
  0
VERTEX
  8
FOREGROUND
  6
CONTINUOUS
 10
2.115914
 20
2.646816
  0
VERTEX
  8
FOREGROUND
  6
CONTINUOUS
 10
2.104361
 20
2.652748
  0
VERTEX
  8
FOREGROUND
  6
CONTINUOUS
 10
2.092753
 20
2.658571
  0
VERTEX
  8
FOREGROUND
  6
CONTINUOUS
 10
2.081090
 20
2.664284
  0
VERTEX
  8
FOREGROUND
  6
CONTINUOUS
 10
2.069373
 20
2.669888
  0
VERTEX
  8
FOREGROUND
  6
CONTINUOUS
 10
2.057604
 20
2.675381
  0
VERTEX
  8
FOREGROUND
  6
CONTINUOUS
 10
2.045783
 20
2.680765
  0
VERTEX
  8
FOREGROUND
  6
CONTINUOUS
 10
2.033913
 20
2.686038
  0
VERTEX
  8
FOREGROUND
  6
CONTINUOUS
 10
2.021992
 20
2.691202
  0
VERTEX
  8
FOREGROUND
  6
CONTINUOUS
 10
2.010024
 20
2.696256
  0
VERTEX
  8
FOREGROUND
  6
CONTINUOUS
 10
1.998008
 20
2.701201
  0
VERTEX
  8
FOREGROUND
  6
CONTINUOUS
 10
1.985946
 20
2.706035
  0
VERTEX
  8
FOREGROUND
  6
CONTINUOUS
 10
1.973838
 20
2.710759
  0
VERTEX
  8
FOREGROUND
  6
CONTINUOUS
 10
1.961687
 20
2.715374
  0
VERTEX
  8
FOREGROUND
  6
CONTINUOUS
 10
1.949492
 20
2.719879
  0
VERTEX
  8
FOREGROUND
  6
CONTINUOUS
 10
1.937255
 20
2.724273
  0
VERTEX
  8
FOREGROUND
  6
CONTINUOUS
 10
1.924978
 20
2.728558
  0
VERTEX
  8
FOREGROUND
  6
CONTINUOUS
 10
1.912660
 20
2.732734
  0
VERTEX
  8
FOREGROUND
  6
CONTINUOUS
 10
1.900303
 20
2.736799
  0
VERTEX
  8
FOREGROUND
  6
CONTINUOUS
 10
1.887908
 20
2.740754
  0
VERTEX
  8
FOREGROUND
  6
CONTINUOUS
 10
1.875477
 20
2.744600
  0
VERTEX
  8
FOREGROUND
  6
CONTINUOUS
 10
1.863009
 20
2.748336
  0
VERTEX
  8
FOREGROUND
  6
CONTINUOUS
 10
1.850507
 20
2.751962
  0
VERTEX
  8
FOREGROUND
  6
CONTINUOUS
 10
1.837971
 20
2.755478
  0
VERTEX
  8
FOREGROUND
  6
CONTINUOUS
 10
1.825402
 20
2.758884
  0
VERTEX
  8
FOREGROUND
  6
CONTINUOUS
 10
1.812802
 20
2.762180
  0
VERTEX
  8
FOREGROUND
  6
CONTINUOUS
 10
1.800170
 20
2.765367
  0
VERTEX
  8
FOREGROUND
  6
CONTINUOUS
 10
1.787510
 20
2.768443
  0
VERTEX
  8
FOREGROUND
  6
CONTINUOUS
 10
1.774820
 20
2.771410
  0
VERTEX
  8
FOREGROUND
  6
CONTINUOUS
 10
1.762103
 20
2.774267
  0
VERTEX
  8
FOREGROUND
  6
CONTINUOUS
 10
1.749360
 20
2.777014
  0
VERTEX
  8
FOREGROUND
  6
CONTINUOUS
 10
1.736591
 20
2.779651
  0
VERTEX
  8
FOREGROUND
  6
CONTINUOUS
 10
1.723798
 20
2.782178
  0
VERTEX
  8
FOREGROUND
  6
CONTINUOUS
 10
1.710981
 20
2.784596
  0
VERTEX
  8
FOREGROUND
  6
CONTINUOUS
 10
1.698142
 20
2.786903
  0
VERTEX
  8
FOREGROUND
  6
CONTINUOUS
 10
1.685281
 20
2.789101
  0
VERTEX
  8
FOREGROUND
  6
CONTINUOUS
 10
1.672401
 20
2.791189
  0
VERTEX
  8
FOREGROUND
  6
CONTINUOUS
 10
1.659501
 20
2.793167
  0
VERTEX
  8
FOREGROUND
  6
CONTINUOUS
 10
1.646583
 20
2.795035
  0
VERTEX
  8
FOREGROUND
  6
CONTINUOUS
 10
1.633648
 20
2.796794
  0
VERTEX
  8
FOREGROUND
  6
CONTINUOUS
 10
1.620696
 20
2.798442
  0
VERTEX
  8
FOREGROUND
  6
CONTINUOUS
 10
1.607730
 20
2.799981
  0
VERTEX
  8
FOREGROUND
  6
CONTINUOUS
 10
1.594749
 20
2.801409
  0
VERTEX
  8
FOREGROUND
  6
CONTINUOUS
 10
1.581756
 20
2.802728
  0
VERTEX
  8
FOREGROUND
  6
CONTINUOUS
 10
1.568751
 20
2.803937
  0
VERTEX
  8
FOREGROUND
  6
CONTINUOUS
 10
1.555734
 20
2.805036
  0
VERTEX
  8
FOREGROUND
  6
CONTINUOUS
 10
1.542708
 20
2.806026
  0
VERTEX
  8
FOREGROUND
  6
CONTINUOUS
 10
1.529673
 20
2.806905
  0
VERTEX
  8
FOREGROUND
  6
CONTINUOUS
 10
1.516630
 20
2.807675
  0
VERTEX
  8
FOREGROUND
  6
CONTINUOUS
 10
1.503581
 20
2.808335
  0
VERTEX
  8
FOREGROUND
  6
CONTINUOUS
 10
1.490525
 20
2.808884
  0
VERTEX
  8
FOREGROUND
  6
CONTINUOUS
 10
1.477465
 20
2.809325
  0
VERTEX
  8
FOREGROUND
  6
CONTINUOUS
 10
1.464402
 20
2.809655
  0
VERTEX
  8
FOREGROUND
  6
CONTINUOUS
 10
1.451336
 20
2.809875
  0
VERTEX
  8
FOREGROUND
  6
CONTINUOUS
 10
1.438268
 20
2.809985
  0
VERTEX
  8
FOREGROUND
  6
CONTINUOUS
 10
1.425199
 20
2.809986
  0
VERTEX
  8
FOREGROUND
  6
CONTINUOUS
 10
1.412132
 20
2.809877
  0
VERTEX
  8
FOREGROUND
  6
CONTINUOUS
 10
1.399065
 20
2.809658
  0
VERTEX
  8
FOREGROUND
  6
CONTINUOUS
 10
1.386002
 20
2.809329
  0
VERTEX
  8
FOREGROUND
  6
CONTINUOUS
 10
1.372942
 20
2.808890
  0
VERTEX
  8
FOREGROUND
  6
CONTINUOUS
 10
1.359886
 20
2.808341
  0
VERTEX
  8
FOREGROUND
  6
CONTINUOUS
 10
1.346837
 20
2.807683
  0
VERTEX
  8
FOREGROUND
  6
CONTINUOUS
 10
1.333794
 20
2.806914
  0
VERTEX
  8
FOREGROUND
  6
CONTINUOUS
 10
1.320759
 20
2.806036
  0
VERTEX
  8
FOREGROUND
  6
CONTINUOUS
 10
1.307732
 20
2.805048
  0
VERTEX
  8
FOREGROUND
  6
CONTINUOUS
 10
1.294716
 20
2.803950
  0
VERTEX
  8
FOREGROUND
  6
CONTINUOUS
 10
1.281711
 20
2.802742
  0
VERTEX
  8
FOREGROUND
  6
CONTINUOUS
 10
1.268717
 20
2.801424
  0
VERTEX
  8
FOREGROUND
  6
CONTINUOUS
 10
1.255736
 20
2.799997
  0
VERTEX
  8
FOREGROUND
  6
CONTINUOUS
 10
1.242770
 20
2.798459
  0
VERTEX
  8
FOREGROUND
  6
CONTINUOUS
 10
1.229818
 20
2.796812
  0
VERTEX
  8
FOREGROUND
  6
CONTINUOUS
 10
1.216883
 20
2.795055
  0
VERTEX
  8
FOREGROUND
  6
CONTINUOUS
 10
1.203965
 20
2.793188
  0
VERTEX
  8
FOREGROUND
  6
CONTINUOUS
 10
1.191065
 20
2.791211
  0
VERTEX
  8
FOREGROUND
  6
CONTINUOUS
 10
1.178184
 20
2.789125
  0
VERTEX
  8
FOREGROUND
  6
CONTINUOUS
 10
1.165323
 20
2.786928
  0
VERTEX
  8
FOREGROUND
  6
CONTINUOUS
 10
1.152484
 20
2.784622
  0
VERTEX
  8
FOREGROUND
  6
CONTINUOUS
 10
1.139667
 20
2.782205
  0
VERTEX
  8
FOREGROUND
  6
CONTINUOUS
 10
1.126873
 20
2.779679
  0
VERTEX
  8
FOREGROUND
  6
CONTINUOUS
 10
1.114104
 20
2.777043
  0
VERTEX
  8
FOREGROUND
  6
CONTINUOUS
 10
1.101361
 20
2.774297
  0
VERTEX
  8
FOREGROUND
  6
CONTINUOUS
 10
1.088643
 20
2.771442
  0
VERTEX
  8
FOREGROUND
  6
CONTINUOUS
 10
1.075954
 20
2.768476
  0
VERTEX
  8
FOREGROUND
  6
CONTINUOUS
 10
1.063293
 20
2.765401
  0
VERTEX
  8
FOREGROUND
  6
CONTINUOUS
 10
1.050661
 20
2.762215
  0
VERTEX
  8
FOREGROUND
  6
CONTINUOUS
 10
1.038060
 20
2.758920
  0
VERTEX
  8
FOREGROUND
  6
CONTINUOUS
 10
1.025491
 20
2.755515
  0
VERTEX
  8
FOREGROUND
  6
CONTINUOUS
 10
1.012955
 20
2.752000
  0
VERTEX
  8
FOREGROUND
  6
CONTINUOUS
 10
1.000452
 20
2.748376
  0
VERTEX
  8
FOREGROUND
  6
CONTINUOUS
 10
0.987984
 20
2.744641
  0
VERTEX
  8
FOREGROUND
  6
CONTINUOUS
 10
0.975552
 20
2.740797
  0
VERTEX
  8
FOREGROUND
  6
CONTINUOUS
 10
0.963157
 20
2.736842
  0
VERTEX
  8
FOREGROUND
  6
CONTINUOUS
 10
0.950800
 20
2.732778
  0
VERTEX
  8
FOREGROUND
  6
CONTINUOUS
 10
0.938482
 20
2.728604
  0
VERTEX
  8
FOREGROUND
  6
CONTINUOUS
 10
0.926204
 20
2.724320
  0
VERTEX
  8
FOREGROUND
  6
CONTINUOUS
 10
0.913966
 20
2.719926
  0
VERTEX
  8
FOREGROUND
  6
CONTINUOUS
 10
0.901771
 20
2.715423
  0
VERTEX
  8
FOREGROUND
  6
CONTINUOUS
 10
0.889619
 20
2.710809
  0
VERTEX
  8
FOREGROUND
  6
CONTINUOUS
 10
0.877511
 20
2.706086
  0
VERTEX
  8
FOREGROUND
  6
CONTINUOUS
 10
0.865449
 20
2.701253
  0
VERTEX
  8
FOREGROUND
  6
CONTINUOUS
 10
0.853433
 20
2.696310
  0
VERTEX
  8
FOREGROUND
  6
CONTINUOUS
 10
0.841463
 20
2.691257
  0
VERTEX
  8
FOREGROUND
  6
CONTINUOUS
 10
0.829543
 20
2.686094
  0
VERTEX
  8
FOREGROUND
  6
CONTINUOUS
 10
0.817671
 20
2.680822
  0
VERTEX
  8
FOREGROUND
  6
CONTINUOUS
 10
0.805850
 20
2.675439
  0
VERTEX
  8
FOREGROUND
  6
CONTINUOUS
 10
0.794081
 20
2.669947
  0
VERTEX
  8
FOREGROUND
  6
CONTINUOUS
 10
0.782364
 20
2.664345
  0
VERTEX
  8
FOREGROUND
  6
CONTINUOUS
 10
0.770700
 20
2.658633
  0
VERTEX
  8
FOREGROUND
  6
CONTINUOUS
 10
0.759091
 20
2.652811
  0
VERTEX
  8
FOREGROUND
  6
CONTINUOUS
 10
0.747538
 20
2.646879
  0
VERTEX
  8
FOREGROUND
  6
CONTINUOUS
 10
0.736041
 20
2.640837
  0
VERTEX
  8
FOREGROUND
  6
CONTINUOUS
 10
0.724602
 20
2.634686
  0
VERTEX
  8
FOREGROUND
  6
CONTINUOUS
 10
0.713221
 20
2.628424
  0
VERTEX
  8
FOREGROUND
  6
CONTINUOUS
 10
0.701901
 20
2.622053
  0
VERTEX
  8
FOREGROUND
  6
CONTINUOUS
 10
0.690641
 20
2.615572
  0
VERTEX
  8
FOREGROUND
  6
CONTINUOUS
 10
0.679443
 20
2.608981
  0
VERTEX
  8
FOREGROUND
  6
CONTINUOUS
 10
0.668307
 20
2.602280
  0
VERTEX
  8
FOREGROUND
  6
CONTINUOUS
 10
0.657236
 20
2.595470
  0
VERTEX
  8
FOREGROUND
  6
CONTINUOUS
 10
0.646230
 20
2.588549
  0
VERTEX
  8
FOREGROUND
  6
CONTINUOUS
 10
0.635289
 20
2.581519
  0
VERTEX
  8
FOREGROUND
  6
CONTINUOUS
 10
0.624416
 20
2.574378
  0
VERTEX
  8
FOREGROUND
  6
CONTINUOUS
 10
0.613611
 20
2.567128
  0
VERTEX
  8
FOREGROUND
  6
CONTINUOUS
 10
0.602875
 20
2.559768
  0
VERTEX
  8
FOREGROUND
  6
CONTINUOUS
 10
0.592209
 20
2.552299
  0
VERTEX
  8
FOREGROUND
  6
CONTINUOUS
 10
0.581614
 20
2.544719
  0
VERTEX
  8
FOREGROUND
  6
CONTINUOUS
 10
0.571091
 20
2.537029
  0
VERTEX
  8
FOREGROUND
  6
CONTINUOUS
 10
0.560642
 20
2.529230
  0
VERTEX
  8
FOREGROUND
  6
CONTINUOUS
 10
0.550267
 20
2.521321
  0
VERTEX
  8
FOREGROUND
  6
CONTINUOUS
 10
0.539967
 20
2.513302
  0
VERTEX
  8
FOREGROUND
  6
CONTINUOUS
 10
0.529744
 20
2.505173
  0
VERTEX
  8
FOREGROUND
  6
CONTINUOUS
 10
0.519598
 20
2.496934
  0
VERTEX
  8
FOREGROUND
  6
CONTINUOUS
 10
0.509530
 20
2.488585
  0
VERTEX
  8
FOREGROUND
  6
CONTINUOUS
 10
0.499542
 20
2.480126
  0
VERTEX
  8
FOREGROUND
  6
CONTINUOUS
 10
0.489635
 20
2.471558
  0
VERTEX
  8
FOREGROUND
  6
CONTINUOUS
 10
0.479809
 20
2.462880
  0
VERTEX
  8
FOREGROUND
  6
CONTINUOUS
 10
0.470066
 20
2.454092
  0
VERTEX
  8
FOREGROUND
  6
CONTINUOUS
 10
0.460406
 20
2.445193
  0
VERTEX
  8
FOREGROUND
  6
CONTINUOUS
 10
0.450831
 20
2.436186
  0
VERTEX
  8
FOREGROUND
  6
CONTINUOUS
 10
0.441342
 20
2.427068
  0
VERTEX
  8
FOREGROUND
  6
CONTINUOUS
 10
0.431939
 20
2.417840
  0
VERTEX
  8
FOREGROUND
  6
CONTINUOUS
 10
0.422625
 20
2.408503
  0
VERTEX
  8
FOREGROUND
  6
CONTINUOUS
 10
0.413399
 20
2.399055
  0
VERTEX
  8
FOREGROUND
  6
CONTINUOUS
 10
0.404263
 20
2.389498
  0
VERTEX
  8
FOREGROUND
  6
CONTINUOUS
 10
0.395218
 20
2.379831
  0
VERTEX
  8
FOREGROUND
  6
CONTINUOUS
 10
0.386265
 20
2.370054
  0
VERTEX
  8
FOREGROUND
  6
CONTINUOUS
 10
0.377405
 20
2.360168
  0
VERTEX
  8
FOREGROUND
  6
CONTINUOUS
 10
0.368639
 20
2.350171
  0
VERTEX
  8
FOREGROUND
  6
CONTINUOUS
 10
0.359968
 20
2.340064
  0
VERTEX
  8
FOREGROUND
  6
CONTINUOUS
 10
0.351394
 20
2.329848
  0
VERTEX
  8
FOREGROUND
  6
CONTINUOUS
 10
0.342916
 20
2.319522
  0
VERTEX
  8
FOREGROUND
  6
CONTINUOUS
 10
0.334537
 20
2.309086
  0
VERTEX
  8
FOREGROUND
  6
CONTINUOUS
 10
0.326257
 20
2.298540
  0
VERTEX
  8
FOREGROUND
  6
CONTINUOUS
 10
0.318077
 20
2.287884
  0
VERTEX
  8
FOREGROUND
  6
CONTINUOUS
 10
0.309998
 20
2.277118
  0
VERTEX
  8
FOREGROUND
  6
CONTINUOUS
 10
0.302022
 20
2.266243
  0
VERTEX
  8
FOREGROUND
  6
CONTINUOUS
 10
0.294149
 20
2.255257
  0
VERTEX
  8
FOREGROUND
  6
CONTINUOUS
 10
0.286381
 20
2.244162
  0
VERTEX
  8
FOREGROUND
  6
CONTINUOUS
 10
0.278718
 20
2.232957
  0
VERTEX
  8
FOREGROUND
  6
CONTINUOUS
 10
0.271162
 20
2.221642
  0
VERTEX
  8
FOREGROUND
  6
CONTINUOUS
 10
0.263713
 20
2.210217
  0
VERTEX
  8
FOREGROUND
  6
CONTINUOUS
 10
0.256373
 20
2.198682
  0
VERTEX
  8
FOREGROUND
  6
CONTINUOUS
 10
0.249142
 20
2.187038
  0
VERTEX
  8
FOREGROUND
  6
CONTINUOUS
 10
0.242022
 20
2.175283
  0
VERTEX
  8
FOREGROUND
  6
CONTINUOUS
 10
0.235014
 20
2.163419
  0
VERTEX
  8
FOREGROUND
  6
CONTINUOUS
 10
0.228118
 20
2.151445
  0
VERTEX
  8
FOREGROUND
  6
CONTINUOUS
 10
0.221337
 20
2.139361
  0
VERTEX
  8
FOREGROUND
  6
CONTINUOUS
 10
0.214670
 20
2.127167
  0
VERTEX
  8
FOREGROUND
  6
CONTINUOUS
 10
0.208119
 20
2.114863
  0
VERTEX
  8
FOREGROUND
  6
CONTINUOUS
 10
0.201685
 20
2.102450
  0
VERTEX
  8
FOREGROUND
  6
CONTINUOUS
 10
0.195369
 20
2.089926
  0
VERTEX
  8
FOREGROUND
  6
CONTINUOUS
 10
0.189171
 20
2.077293
  0
VERTEX
  8
FOREGROUND
  6
CONTINUOUS
 10
0.183094
 20
2.064550
  0
VERTEX
  8
FOREGROUND
  6
CONTINUOUS
 10
0.177138
 20
2.051697
  0
VERTEX
  8
FOREGROUND
  6
CONTINUOUS
 10
0.171304
 20
2.038734
  0
VERTEX
  8
FOREGROUND
  6
CONTINUOUS
 10
0.165594
 20
2.025661
  0
VERTEX
  8
FOREGROUND
  6
CONTINUOUS
 10
0.160007
 20
2.012478
  0
VERTEX
  8
FOREGROUND
  6
CONTINUOUS
 10
0.154545
 20
1.999186
  0
VERTEX
  8
FOREGROUND
  6
CONTINUOUS
 10
0.149210
 20
1.985783
  0
VERTEX
  8
FOREGROUND
  6
CONTINUOUS
 10
0.144002
 20
1.972271
  0
VERTEX
  8
FOREGROUND
  6
CONTINUOUS
 10
0.138923
 20
1.958649
  0
VERTEX
  8
FOREGROUND
  6
CONTINUOUS
 10
0.133973
 20
1.944917
  0
VERTEX
  8
FOREGROUND
  6
CONTINUOUS
 10
0.129153
 20
1.931075
  0
VERTEX
  8
FOREGROUND
  6
CONTINUOUS
 10
0.124465
 20
1.917123
  0
VERTEX
  8
FOREGROUND
  6
CONTINUOUS
 10
0.119909
 20
1.903062
  0
VERTEX
  8
FOREGROUND
  6
CONTINUOUS
 10
0.115487
 20
1.888890
  0
VERTEX
  8
FOREGROUND
  6
CONTINUOUS
 10
0.111199
 20
1.874609
  0
VERTEX
  8
FOREGROUND
  6
CONTINUOUS
 10
0.107047
 20
1.860218
  0
VERTEX
  8
FOREGROUND
  6
CONTINUOUS
 10
0.103032
 20
1.845717
  0
VERTEX
  8
FOREGROUND
  6
CONTINUOUS
 10
0.099154
 20
1.831106
  0
VERTEX
  8
FOREGROUND
  6
CONTINUOUS
 10
0.095415
 20
1.816385
  0
VERTEX
  8
FOREGROUND
  6
CONTINUOUS
 10
0.091816
 20
1.801555
  0
VERTEX
  8
FOREGROUND
  6
CONTINUOUS
 10
0.088357
 20
1.786614
  0
VERTEX
  8
FOREGROUND
  6
CONTINUOUS
 10
0.085041
 20
1.771564
  0
VERTEX
  8
FOREGROUND
  6
CONTINUOUS
 10
0.081867
 20
1.756404
  0
VERTEX
  8
FOREGROUND
  6
CONTINUOUS
 10
0.078837
 20
1.741134
  0
VERTEX
  8
FOREGROUND
  6
CONTINUOUS
 10
0.075953
 20
1.725754
  0
VERTEX
  8
FOREGROUND
  6
CONTINUOUS
 10
0.073214
 20
1.710264
  0
VERTEX
  8
FOREGROUND
  6
CONTINUOUS
 10
0.070622
 20
1.694664
  0
VERTEX
  8
FOREGROUND
  6
CONTINUOUS
 10
0.068178
 20
1.678955
  0
VERTEX
  8
FOREGROUND
  6
CONTINUOUS
 10
0.065884
 20
1.663135
  0
VERTEX
  8
FOREGROUND
  6
CONTINUOUS
 10
0.063739
 20
1.647206
  0
VERTEX
  8
FOREGROUND
  6
CONTINUOUS
 10
0.061746
 20
1.631167
  0
VERTEX
  8
FOREGROUND
  6
CONTINUOUS
 10
0.059905
 20
1.615018
  0
VERTEX
  8
FOREGROUND
  6
CONTINUOUS
 10
0.058218
 20
1.598759
  0
VERTEX
  8
FOREGROUND
  6
CONTINUOUS
 10
0.056684
 20
1.582390
  0
VERTEX
  8
FOREGROUND
  6
CONTINUOUS
 10
0.055306
 20
1.565912
  0
VERTEX
  8
FOREGROUND
  6
CONTINUOUS
 10
0.054085
 20
1.549323
  0
VERTEX
  8
FOREGROUND
  6
CONTINUOUS
 10
0.053021
 20
1.532625
  0
VERTEX
  8
FOREGROUND
  6
CONTINUOUS
 10
0.052115
 20
1.515817
  0
VERTEX
  8
FOREGROUND
  6
CONTINUOUS
 10
0.051369
 20
1.498899
  0
VERTEX
  8
FOREGROUND
  6
CONTINUOUS
 10
0.050783
 20
1.481871
  0
VERTEX
  8
FOREGROUND
  6
CONTINUOUS
 10
0.050359
 20
1.464733
  0
VERTEX
  8
FOREGROUND
  6
CONTINUOUS
 10
0.050098
 20
1.447485
  0
VERTEX
  8
FOREGROUND
  6
CONTINUOUS
 10
0.050000
 20
1.430128
  0
VERTEX
  8
FOREGROUND
  6
CONTINUOUS
 10
0.050000
 20
1.430128
  0
VERTEX
  8
FOREGROUND
  6
CONTINUOUS
 10
0.050094
 20
1.412770
  0
VERTEX
  8
FOREGROUND
  6
CONTINUOUS
 10
0.050353
 20
1.395523
  0
VERTEX
  8
FOREGROUND
  6
CONTINUOUS
 10
0.050773
 20
1.378385
  0
VERTEX
  8
FOREGROUND
  6
CONTINUOUS
 10
0.051356
 20
1.361357
  0
VERTEX
  8
FOREGROUND
  6
CONTINUOUS
 10
0.052099
 20
1.344439
  0
VERTEX
  8
FOREGROUND
  6
CONTINUOUS
 10
0.053001
 20
1.327630
  0
VERTEX
  8
FOREGROUND
  6
CONTINUOUS
 10
0.054062
 20
1.310932
  0
VERTEX
  8
FOREGROUND
  6
CONTINUOUS
 10
0.055281
 20
1.294343
  0
VERTEX
  8
FOREGROUND
  6
CONTINUOUS
 10
0.056655
 20
1.277864
  0
VERTEX
  8
FOREGROUND
  6
CONTINUOUS
 10
0.058186
 20
1.261495
  0
VERTEX
  8
FOREGROUND
  6
CONTINUOUS
 10
0.059870
 20
1.245236
  0
VERTEX
  8
FOREGROUND
  6
CONTINUOUS
 10
0.061708
 20
1.229087
  0
VERTEX
  8
FOREGROUND
  6
CONTINUOUS
 10
0.063698
 20
1.213047
  0
VERTEX
  8
FOREGROUND
  6
CONTINUOUS
 10
0.065840
 20
1.197118
  0
VERTEX
  8
FOREGROUND
  6
CONTINUOUS
 10
0.068131
 20
1.181298
  0
VERTEX
  8
FOREGROUND
  6
CONTINUOUS
 10
0.070572
 20
1.165588
  0
VERTEX
  8
FOREGROUND
  6
CONTINUOUS
 10
0.073161
 20
1.149988
  0
VERTEX
  8
FOREGROUND
  6
CONTINUOUS
 10
0.075896
 20
1.134497
  0
VERTEX
  8
FOREGROUND
  6
CONTINUOUS
 10
0.078778
 20
1.119117
  0
VERTEX
  8
FOREGROUND
  6
CONTINUOUS
 10
0.081805
 20
1.103846
  0
VERTEX
  8
FOREGROUND
  6
CONTINUOUS
 10
0.084976
 20
1.088685
  0
VERTEX
  8
FOREGROUND
  6
CONTINUOUS
 10
0.088290
 20
1.073634
  0
VERTEX
  8
FOREGROUND
  6
CONTINUOUS
 10
0.091745
 20
1.058693
  0
VERTEX
  8
FOREGROUND
  6
CONTINUOUS
 10
0.095342
 20
1.043862
  0
VERTEX
  8
FOREGROUND
  6
CONTINUOUS
 10
0.099078
 20
1.029141
  0
VERTEX
  8
FOREGROUND
  6
CONTINUOUS
 10
0.102953
 20
1.014529
  0
VERTEX
  8
FOREGROUND
  6
CONTINUOUS
 10
0.106965
 20
1.000027
  0
VERTEX
  8
FOREGROUND
  6
CONTINUOUS
 10
0.111115
 20
0.985635
  0
VERTEX
  8
FOREGROUND
  6
CONTINUOUS
 10
0.115400
 20
0.971353
  0
VERTEX
  8
FOREGROUND
  6
CONTINUOUS
 10
0.119819
 20
0.957181
  0
VERTEX
  8
FOREGROUND
  6
CONTINUOUS
 10
0.124372
 20
0.943119
  0
VERTEX
  8
FOREGROUND
  6
CONTINUOUS
 10
0.129058
 20
0.929166
  0
VERTEX
  8
FOREGROUND
  6
CONTINUOUS
 10
0.133875
 20
0.915323
  0
VERTEX
  8
FOREGROUND
  6
CONTINUOUS
 10
0.138823
 20
0.901590
  0
VERTEX
  8
FOREGROUND
  6
CONTINUOUS
 10
0.143900
 20
0.887967
  0
VERTEX
  8
FOREGROUND
  6
CONTINUOUS
 10
0.149105
 20
0.874454
  0
VERTEX
  8
FOREGROUND
  6
CONTINUOUS
 10
0.154437
 20
0.861051
  0
VERTEX
  8
FOREGROUND
  6
CONTINUOUS
 10
0.159896
 20
0.847757
  0
VERTEX
  8
FOREGROUND
  6
CONTINUOUS
 10
0.165480
 20
0.834574
  0
VERTEX
  8
FOREGROUND
  6
CONTINUOUS
 10
0.171189
 20
0.821500
  0
VERTEX
  8
FOREGROUND
  6
CONTINUOUS
 10
0.177020
 20
0.808536
  0
VERTEX
  8
FOREGROUND
  6
CONTINUOUS
 10
0.182974
 20
0.795682
  0
VERTEX
  8
FOREGROUND
  6
CONTINUOUS
 10
0.189049
 20
0.782937
  0
VERTEX
  8
FOREGROUND
  6
CONTINUOUS
 10
0.195243
 20
0.770303
  0
VERTEX
  8
FOREGROUND
  6
CONTINUOUS
 10
0.201557
 20
0.757778
  0
VERTEX
  8
FOREGROUND
  6
CONTINUOUS
 10
0.207989
 20
0.745363
  0
VERTEX
  8
FOREGROUND
  6
CONTINUOUS
 10
0.214537
 20
0.733058
  0
VERTEX
  8
FOREGROUND
  6
CONTINUOUS
 10
0.221202
 20
0.720863
  0
VERTEX
  8
FOREGROUND
  6
CONTINUOUS
 10
0.227981
 20
0.708778
  0
VERTEX
  8
FOREGROUND
  6
CONTINUOUS
 10
0.234875
 20
0.696802
  0
VERTEX
  8
FOREGROUND
  6
CONTINUOUS
 10
0.241881
 20
0.684937
  0
VERTEX
  8
FOREGROUND
  6
CONTINUOUS
 10
0.248998
 20
0.673181
  0
VERTEX
  8
FOREGROUND
  6
CONTINUOUS
 10
0.256227
 20
0.661535
  0
VERTEX
  8
FOREGROUND
  6
CONTINUOUS
 10
0.263565
 20
0.649999
  0
VERTEX
  8
FOREGROUND
  6
CONTINUOUS
 10
0.271011
 20
0.638573
  0
VERTEX
  8
FOREGROUND
  6
CONTINUOUS
 10
0.278566
 20
0.627256
  0
VERTEX
  8
FOREGROUND
  6
CONTINUOUS
 10
0.286226
 20
0.616050
  0
VERTEX
  8
FOREGROUND
  6
CONTINUOUS
 10
0.293993
 20
0.604953
  0
VERTEX
  8
FOREGROUND
  6
CONTINUOUS
 10
0.301863
 20
0.593966
  0
VERTEX
  8
FOREGROUND
  6
CONTINUOUS
 10
0.309837
 20
0.583089
  0
VERTEX
  8
FOREGROUND
  6
CONTINUOUS
 10
0.317914
 20
0.572322
  0
VERTEX
  8
FOREGROUND
  6
CONTINUOUS
 10
0.326092
 20
0.561665
  0
VERTEX
  8
FOREGROUND
  6
CONTINUOUS
 10
0.334370
 20
0.551117
  0
VERTEX
  8
FOREGROUND
  6
CONTINUOUS
 10
0.342747
 20
0.540680
  0
VERTEX
  8
FOREGROUND
  6
CONTINUOUS
 10
0.351223
 20
0.530352
  0
VERTEX
  8
FOREGROUND
  6
CONTINUOUS
 10
0.359796
 20
0.520134
  0
VERTEX
  8
FOREGROUND
  6
CONTINUOUS
 10
0.368465
 20
0.510026
  0
VERTEX
  8
FOREGROUND
  6
CONTINUOUS
 10
0.377229
 20
0.500028
  0
VERTEX
  8
FOREGROUND
  6
CONTINUOUS
 10
0.386087
 20
0.490139
  0
VERTEX
  8
FOREGROUND
  6
CONTINUOUS
 10
0.395038
 20
0.480361
  0
VERTEX
  8
FOREGROUND
  6
CONTINUOUS
 10
0.404081
 20
0.470692
  0
VERTEX
  8
FOREGROUND
  6
CONTINUOUS
 10
0.413215
 20
0.461133
  0
VERTEX
  8
FOREGROUND
  6
CONTINUOUS
 10
0.422439
 20
0.451684
  0
VERTEX
  8
FOREGROUND
  6
CONTINUOUS
 10
0.431752
 20
0.442345
  0
VERTEX
  8
FOREGROUND
  6
CONTINUOUS
 10
0.441153
 20
0.433115
  0
VERTEX
  8
FOREGROUND
  6
CONTINUOUS
 10
0.450640
 20
0.423996
  0
VERTEX
  8
FOREGROUND
  6
CONTINUOUS
 10
0.460213
 20
0.414986
  0
VERTEX
  8
FOREGROUND
  6
CONTINUOUS
 10
0.469871
 20
0.406086
  0
VERTEX
  8
FOREGROUND
  6
CONTINUOUS
 10
0.479613
 20
0.397297
  0
VERTEX
  8
FOREGROUND
  6
CONTINUOUS
 10
0.489437
 20
0.388616
  0
VERTEX
  8
FOREGROUND
  6
CONTINUOUS
 10
0.499343
 20
0.380046
  0
VERTEX
  8
FOREGROUND
  6
CONTINUOUS
 10
0.509329
 20
0.371586
  0
VERTEX
  8
FOREGROUND
  6
CONTINUOUS
 10
0.519395
 20
0.363235
  0
VERTEX
  8
FOREGROUND
  6
CONTINUOUS
 10
0.529540
 20
0.354994
  0
VERTEX
  8
FOREGROUND
  6
CONTINUOUS
 10
0.539761
 20
0.346864
  0
VERTEX
  8
FOREGROUND
  6
CONTINUOUS
 10
0.550060
 20
0.338842
  0
VERTEX
  8
FOREGROUND
  6
CONTINUOUS
 10
0.560433
 20
0.330931
  0
VERTEX
  8
FOREGROUND
  6
CONTINUOUS
 10
0.570881
 20
0.323130
  0
VERTEX
  8
FOREGROUND
  6
CONTINUOUS
 10
0.581402
 20
0.315438
  0
VERTEX
  8
FOREGROUND
  6
CONTINUOUS
 10
0.591996
 20
0.307857
  0
VERTEX
  8
FOREGROUND
  6
CONTINUOUS
 10
0.602660
 20
0.300385
  0
VERTEX
  8
FOREGROUND
  6
CONTINUOUS
 10
0.613395
 20
0.293023
  0
VERTEX
  8
FOREGROUND
  6
CONTINUOUS
 10
0.624199
 20
0.285771
  0
VERTEX
  8
FOREGROUND
  6
CONTINUOUS
 10
0.635071
 20
0.278629
  0
VERTEX
  8
FOREGROUND
  6
CONTINUOUS
 10
0.646010
 20
0.271596
  0
VERTEX
  8
FOREGROUND
  6
CONTINUOUS
 10
0.657015
 20
0.264674
  0
VERTEX
  8
FOREGROUND
  6
CONTINUOUS
 10
0.668085
 20
0.257861
  0
VERTEX
  8
FOREGROUND
  6
CONTINUOUS
 10
0.679219
 20
0.251158
  0
VERTEX
  8
FOREGROUND
  6
CONTINUOUS
 10
0.690416
 20
0.244565
  0
VERTEX
  8
FOREGROUND
  6
CONTINUOUS
 10
0.701674
 20
0.238082
  0
VERTEX
  8
FOREGROUND
  6
CONTINUOUS
 10
0.712994
 20
0.231709
  0
VERTEX
  8
FOREGROUND
  6
CONTINUOUS
 10
0.724373
 20
0.225445
  0
VERTEX
  8
FOREGROUND
  6
CONTINUOUS
 10
0.735811
 20
0.219292
  0
VERTEX
  8
FOREGROUND
  6
CONTINUOUS
 10
0.747307
 20
0.213248
  0
VERTEX
  8
FOREGROUND
  6
CONTINUOUS
 10
0.758859
 20
0.207314
  0
VERTEX
  8
FOREGROUND
  6
CONTINUOUS
 10
0.770467
 20
0.201490
  0
VERTEX
  8
FOREGROUND
  6
CONTINUOUS
 10
0.782129
 20
0.195776
  0
VERTEX
  8
FOREGROUND
  6
CONTINUOUS
 10
0.793845
 20
0.190171
  0
VERTEX
  8
FOREGROUND
  6
CONTINUOUS
 10
0.805614
 20
0.184677
  0
VERTEX
  8
FOREGROUND
  6
CONTINUOUS
 10
0.817434
 20
0.179292
  0
VERTEX
  8
FOREGROUND
  6
CONTINUOUS
 10
0.829304
 20
0.174017
  0
VERTEX
  8
FOREGROUND
  6
CONTINUOUS
 10
0.841224
 20
0.168852
  0
VERTEX
  8
FOREGROUND
  6
CONTINUOUS
 10
0.853192
 20
0.163797
  0
VERTEX
  8
FOREGROUND
  6
CONTINUOUS
 10
0.865208
 20
0.158852
  0
VERTEX
  8
FOREGROUND
  6
CONTINUOUS
 10
0.877269
 20
0.154016
  0
VERTEX
  8
FOREGROUND
  6
CONTINUOUS
 10
0.889376
 20
0.149291
  0
VERTEX
  8
FOREGROUND
  6
CONTINUOUS
 10
0.901527
 20
0.144675
  0
VERTEX
  8
FOREGROUND
  6
CONTINUOUS
 10
0.913721
 20
0.140169
  0
VERTEX
  8
FOREGROUND
  6
CONTINUOUS
 10
0.925958
 20
0.135773
  0
VERTEX
  8
FOREGROUND
  6
CONTINUOUS
 10
0.938235
 20
0.131487
  0
VERTEX
  8
FOREGROUND
  6
CONTINUOUS
 10
0.950553
 20
0.127311
  0
VERTEX
  8
FOREGROUND
  6
CONTINUOUS
 10
0.962909
 20
0.123244
  0
VERTEX
  8
FOREGROUND
  6
CONTINUOUS
 10
0.975303
 20
0.119288
  0
VERTEX
  8
FOREGROUND
  6
CONTINUOUS
 10
0.987735
 20
0.115441
  0
VERTEX
  8
FOREGROUND
  6
CONTINUOUS
 10
1.000202
 20
0.111704
  0
VERTEX
  8
FOREGROUND
  6
CONTINUOUS
 10
1.012704
 20
0.108077
  0
VERTEX
  8
FOREGROUND
  6
CONTINUOUS
 10
1.025239
 20
0.104560
  0
VERTEX
  8
FOREGROUND
  6
CONTINUOUS
 10
1.037808
 20
0.101153
  0
VERTEX
  8
FOREGROUND
  6
CONTINUOUS
 10
1.050408
 20
0.097855
  0
VERTEX
  8
FOREGROUND
  6
CONTINUOUS
 10
1.063039
 20
0.094668
  0
VERTEX
  8
FOREGROUND
  6
CONTINUOUS
 10
1.075700
 20
0.091590
  0
VERTEX
  8
FOREGROUND
  6
CONTINUOUS
 10
1.088389
 20
0.088622
  0
VERTEX
  8
FOREGROUND
  6
CONTINUOUS
 10
1.101105
 20
0.085764
  0
VERTEX
  8
FOREGROUND
  6
CONTINUOUS
 10
1.113849
 20
0.083016
  0
VERTEX
  8
FOREGROUND
  6
CONTINUOUS
 10
1.126617
 20
0.080377
  0
VERTEX
  8
FOREGROUND
  6
CONTINUOUS
 10
1.139410
 20
0.077849
  0
VERTEX
  8
FOREGROUND
  6
CONTINUOUS
 10
1.152227
 20
0.075430
  0
VERTEX
  8
FOREGROUND
  6
CONTINUOUS
 10
1.165066
 20
0.073121
  0
VERTEX
  8
FOREGROUND
  6
CONTINUOUS
 10
1.177926
 20
0.070922
  0
VERTEX
  8
FOREGROUND
  6
CONTINUOUS
 10
1.190806
 20
0.068833
  0
VERTEX
  8
FOREGROUND
  6
CONTINUOUS
 10
1.203706
 20
0.066854
  0
VERTEX
  8
FOREGROUND
  6
CONTINUOUS
 10
1.216624
 20
0.064985
  0
VERTEX
  8
FOREGROUND
  6
CONTINUOUS
 10
1.229559
 20
0.063225
  0
VERTEX
  8
FOREGROUND
  6
CONTINUOUS
 10
1.242510
 20
0.061576
  0
VERTEX
  8
FOREGROUND
  6
CONTINUOUS
 10
1.255476
 20
0.060036
  0
VERTEX
  8
FOREGROUND
  6
CONTINUOUS
 10
1.268457
 20
0.058606
  0
VERTEX
  8
FOREGROUND
  6
CONTINUOUS
 10
1.281450
 20
0.057286
  0
VERTEX
  8
FOREGROUND
  6
CONTINUOUS
 10
1.294455
 20
0.056075
  0
VERTEX
  8
FOREGROUND
  6
CONTINUOUS
 10
1.307471
 20
0.054975
  0
VERTEX
  8
FOREGROUND
  6
CONTINUOUS
 10
1.320498
 20
0.053985
  0
VERTEX
  8
FOREGROUND
  6
CONTINUOUS
 10
1.333532
 20
0.053104
  0
VERTEX
  8
FOREGROUND
  6
CONTINUOUS
 10
1.346575
 20
0.052333
  0
VERTEX
  8
FOREGROUND
  6
CONTINUOUS
 10
1.359625
 20
0.051672
  0
VERTEX
  8
FOREGROUND
  6
CONTINUOUS
 10
1.372680
 20
0.051121
  0
VERTEX
  8
FOREGROUND
  6
CONTINUOUS
 10
1.385740
 20
0.050680
  0
VERTEX
  8
FOREGROUND
  6
CONTINUOUS
 10
1.398804
 20
0.050348
  0
VERTEX
  8
FOREGROUND
  6
CONTINUOUS
 10
1.411870
 20
0.050127
  0
VERTEX
  8
FOREGROUND
  6
CONTINUOUS
 10
1.424938
 20
0.050015
  0
VERTEX
  8
FOREGROUND
  6
CONTINUOUS
 10
1.438006
 20
0.050013
  0
VERTEX
  8
FOREGROUND
  6
CONTINUOUS
 10
1.451074
 20
0.050121
  0
VERTEX
  8
FOREGROUND
  6
CONTINUOUS
 10
1.464140
 20
0.050339
  0
VERTEX
  8
FOREGROUND
  6
CONTINUOUS
 10
1.477204
 20
0.050667
  0
VERTEX
  8
FOREGROUND
  6
CONTINUOUS
 10
1.490264
 20
0.051105
  0
VERTEX
  8
FOREGROUND
  6
CONTINUOUS
 10
1.503319
 20
0.051652
  0
VERTEX
  8
FOREGROUND
  6
CONTINUOUS
 10
1.516369
 20
0.052309
  0
VERTEX
  8
FOREGROUND
  6
CONTINUOUS
 10
1.529412
 20
0.053077
  0
VERTEX
  8
FOREGROUND
  6
CONTINUOUS
 10
1.542447
 20
0.053954
  0
VERTEX
  8
FOREGROUND
  6
CONTINUOUS
 10
1.555473
 20
0.054941
  0
VERTEX
  8
FOREGROUND
  6
CONTINUOUS
 10
1.568490
 20
0.056037
  0
VERTEX
  8
FOREGROUND
  6
CONTINUOUS
 10
1.581495
 20
0.057244
  0
VERTEX
  8
FOREGROUND
  6
CONTINUOUS
 10
1.594489
 20
0.058560
  0
VERTEX
  8
FOREGROUND
  6
CONTINUOUS
 10
1.607470
 20
0.059987
  0
VERTEX
  8
FOREGROUND
  6
CONTINUOUS
 10
1.620437
 20
0.061523
  0
VERTEX
  8
FOREGROUND
  6
CONTINUOUS
 10
1.633388
 20
0.063169
  0
VERTEX
  8
FOREGROUND
  6
CONTINUOUS
 10
1.646324
 20
0.064925
  0
VERTEX
  8
FOREGROUND
  6
CONTINUOUS
 10
1.659242
 20
0.066791
  0
VERTEX
  8
FOREGROUND
  6
CONTINUOUS
 10
1.672142
 20
0.068766
  0
VERTEX
  8
FOREGROUND
  6
CONTINUOUS
 10
1.685023
 20
0.070852
  0
VERTEX
  8
FOREGROUND
  6
CONTINUOUS
 10
1.697884
 20
0.073047
  0
VERTEX
  8
FOREGROUND
  6
CONTINUOUS
 10
1.710724
 20
0.075353
  0
VERTEX
  8
FOREGROUND
  6
CONTINUOUS
 10
1.723541
 20
0.077768
  0
VERTEX
  8
FOREGROUND
  6
CONTINUOUS
 10
1.736335
 20
0.080293
  0
VERTEX
  8
FOREGROUND
  6
CONTINUOUS
 10
1.749104
 20
0.082927
  0
VERTEX
  8
FOREGROUND
  6
CONTINUOUS
 10
1.761848
 20
0.085672
  0
VERTEX
  8
FOREGROUND
  6
CONTINUOUS
 10
1.774566
 20
0.088527
  0
VERTEX
  8
FOREGROUND
  6
CONTINUOUS
 10
1.787256
 20
0.091491
  0
VERTEX
  8
FOREGROUND
  6
CONTINUOUS
 10
1.799917
 20
0.094565
  0
VERTEX
  8
FOREGROUND
  6
CONTINUOUS
 10
1.812549
 20
0.097749
  0
VERTEX
  8
FOREGROUND
  6
CONTINUOUS
 10
1.825150
 20
0.101043
  0
VERTEX
  8
FOREGROUND
  6
CONTINUOUS
 10
1.837719
 20
0.104447
  0
VERTEX
  8
FOREGROUND
  6
CONTINUOUS
 10
1.850256
 20
0.107961
  0
VERTEX
  8
FOREGROUND
  6
CONTINUOUS
 10
1.862759
 20
0.111585
  0
VERTEX
  8
FOREGROUND
  6
CONTINUOUS
 10
1.875227
 20
0.115318
  0
VERTEX
  8
FOREGROUND
  6
CONTINUOUS
 10
1.887660
 20
0.119161
  0
VERTEX
  8
FOREGROUND
  6
CONTINUOUS
 10
1.900055
 20
0.123114
  0
VERTEX
  8
FOREGROUND
  6
CONTINUOUS
 10
1.912413
 20
0.127177
  0
VERTEX
  8
FOREGROUND
  6
CONTINUOUS
 10
1.924731
 20
0.131350
  0
VERTEX
  8
FOREGROUND
  6
CONTINUOUS
 10
1.937010
 20
0.135633
  0
VERTEX
  8
FOREGROUND
  6
CONTINUOUS
 10
1.949247
 20
0.140026
  0
VERTEX
  8
FOREGROUND
  6
CONTINUOUS
 10
1.961443
 20
0.144528
  0
VERTEX
  8
FOREGROUND
  6
CONTINUOUS
 10
1.973595
 20
0.149140
  0
VERTEX
  8
FOREGROUND
  6
CONTINUOUS
 10
1.985703
 20
0.153863
  0
VERTEX
  8
FOREGROUND
  6
CONTINUOUS
 10
1.997767
 20
0.158695
  0
VERTEX
  8
FOREGROUND
  6
CONTINUOUS
 10
2.009783
 20
0.163637
  0
VERTEX
  8
FOREGROUND
  6
CONTINUOUS
 10
2.021753
 20
0.168688
  0
VERTEX
  8
FOREGROUND
  6
CONTINUOUS
 10
2.033674
 20
0.173850
  0
VERTEX
  8
FOREGROUND
  6
CONTINUOUS
 10
2.045546
 20
0.179122
  0
VERTEX
  8
FOREGROUND
  6
CONTINUOUS
 10
2.057368
 20
0.184503
  0
VERTEX
  8
FOREGROUND
  6
CONTINUOUS
 10
2.069138
 20
0.189994
  0
VERTEX
  8
FOREGROUND
  6
CONTINUOUS
 10
2.080855
 20
0.195595
  0
VERTEX
  8
FOREGROUND
  6
CONTINUOUS
 10
2.092519
 20
0.201306
  0
VERTEX
  8
FOREGROUND
  6
CONTINUOUS
 10
2.104129
 20
0.207127
  0
VERTEX
  8
FOREGROUND
  6
CONTINUOUS
 10
2.115683
 20
0.213058
  0
VERTEX
  8
FOREGROUND
  6
CONTINUOUS
 10
2.127180
 20
0.219098
  0
VERTEX
  8
FOREGROUND
  6
CONTINUOUS
 10
2.138620
 20
0.225249
  0
VERTEX
  8
FOREGROUND
  6
CONTINUOUS
 10
2.150001
 20
0.231509
  0
VERTEX
  8
FOREGROUND
  6
CONTINUOUS
 10
2.161322
 20
0.237879
  0
VERTEX
  8
FOREGROUND
  6
CONTINUOUS
 10
2.172583
 20
0.244359
  0
VERTEX
  8
FOREGROUND
  6
CONTINUOUS
 10
2.183781
 20
0.250949
  0
VERTEX
  8
FOREGROUND
  6
CONTINUOUS
 10
2.194917
 20
0.257649
  0
VERTEX
  8
FOREGROUND
  6
CONTINUOUS
 10
2.205989
 20
0.264459
  0
VERTEX
  8
FOREGROUND
  6
CONTINUOUS
 10
2.216996
 20
0.271378
  0
VERTEX
  8
FOREGROUND
  6
CONTINUOUS
 10
2.227937
 20
0.278408
  0
VERTEX
  8
FOREGROUND
  6
CONTINUOUS
 10
2.238811
 20
0.285547
  0
VERTEX
  8
FOREGROUND
  6
CONTINUOUS
 10
2.249617
 20
0.292796
  0
VERTEX
  8
FOREGROUND
  6
CONTINUOUS
 10
2.260354
 20
0.300155
  0
VERTEX
  8
FOREGROUND
  6
CONTINUOUS
 10
2.271021
 20
0.307624
  0
VERTEX
  8
FOREGROUND
  6
CONTINUOUS
 10
2.281616
 20
0.315202
  0
VERTEX
  8
FOREGROUND
  6
CONTINUOUS
 10
2.292139
 20
0.322891
  0
VERTEX
  8
FOREGROUND
  6
CONTINUOUS
 10
2.302590
 20
0.330689
  0
VERTEX
  8
FOREGROUND
  6
CONTINUOUS
 10
2.312965
 20
0.338598
  0
VERTEX
  8
FOREGROUND
  6
CONTINUOUS
 10
2.323266
 20
0.346616
  0
VERTEX
  8
FOREGROUND
  6
CONTINUOUS
 10
2.333490
 20
0.354744
  0
VERTEX
  8
FOREGROUND
  6
CONTINUOUS
 10
2.343637
 20
0.362982
  0
VERTEX
  8
FOREGROUND
  6
CONTINUOUS
 10
2.353705
 20
0.371330
  0
VERTEX
  8
FOREGROUND
  6
CONTINUOUS
 10
2.363694
 20
0.379787
  0
VERTEX
  8
FOREGROUND
  6
CONTINUOUS
 10
2.373602
 20
0.388355
  0
VERTEX
  8
FOREGROUND
  6
CONTINUOUS
 10
2.383429
 20
0.397032
  0
VERTEX
  8
FOREGROUND
  6
CONTINUOUS
 10
2.393173
 20
0.405820
  0
VERTEX
  8
FOREGROUND
  6
CONTINUOUS
 10
2.402833
 20
0.414717
  0
VERTEX
  8
FOREGROUND
  6
CONTINUOUS
 10
2.412409
 20
0.423724
  0
VERTEX
  8
FOREGROUND
  6
CONTINUOUS
 10
2.421899
 20
0.432840
  0
VERTEX
  8
FOREGROUND
  6
CONTINUOUS
 10
2.431302
 20
0.442067
  0
VERTEX
  8
FOREGROUND
  6
CONTINUOUS
 10
2.440618
 20
0.451404
  0
VERTEX
  8
FOREGROUND
  6
CONTINUOUS
 10
2.449844
 20
0.460850
  0
VERTEX
  8
FOREGROUND
  6
CONTINUOUS
 10
2.458981
 20
0.470407
  0
VERTEX
  8
FOREGROUND
  6
CONTINUOUS
 10
2.468027
 20
0.480073
  0
VERTEX
  8
FOREGROUND
  6
CONTINUOUS
 10
2.476981
 20
0.489849
  0
VERTEX
  8
FOREGROUND
  6
CONTINUOUS
 10
2.485842
 20
0.499735
  0
VERTEX
  8
FOREGROUND
  6
CONTINUOUS
 10
2.494609
 20
0.509731
  0
VERTEX
  8
FOREGROUND
  6
CONTINUOUS
 10
2.503281
 20
0.519836
  0
VERTEX
  8
FOREGROUND
  6
CONTINUOUS
 10
2.511856
 20
0.530052
  0
VERTEX
  8
FOREGROUND
  6
CONTINUOUS
 10
2.520335
 20
0.540377
  0
VERTEX
  8
FOREGROUND
  6
CONTINUOUS
 10
2.528715
 20
0.550813
  0
VERTEX
  8
FOREGROUND
  6
CONTINUOUS
 10
2.536996
 20
0.561358
  0
VERTEX
  8
FOREGROUND
  6
CONTINUOUS
 10
2.545177
 20
0.572013
  0
VERTEX
  8
FOREGROUND
  6
CONTINUOUS
 10
2.553257
 20
0.582778
  0
VERTEX
  8
FOREGROUND
  6
CONTINUOUS
 10
2.561234
 20
0.593653
  0
VERTEX
  8
FOREGROUND
  6
CONTINUOUS
 10
2.569108
 20
0.604637
  0
VERTEX
  8
FOREGROUND
  6
CONTINUOUS
 10
2.576877
 20
0.615732
  0
VERTEX
  8
FOREGROUND
  6
CONTINUOUS
 10
2.584541
 20
0.626936
  0
VERTEX
  8
FOREGROUND
  6
CONTINUOUS
 10
2.592098
 20
0.638251
  0
VERTEX
  8
FOREGROUND
  6
CONTINUOUS
 10
2.599548
 20
0.649675
  0
VERTEX
  8
FOREGROUND
  6
CONTINUOUS
 10
2.606890
 20
0.661209
  0
VERTEX
  8
FOREGROUND
  6
CONTINUOUS
 10
2.614121
 20
0.672853
  0
VERTEX
  8
FOREGROUND
  6
CONTINUOUS
 10
2.621242
 20
0.684607
  0
VERTEX
  8
FOREGROUND
  6
CONTINUOUS
 10
2.628252
 20
0.696470
  0
VERTEX
  8
FOREGROUND
  6
CONTINUOUS
 10
2.635148
 20
0.708444
  0
VERTEX
  8
FOREGROUND
  6
CONTINUOUS
 10
2.641931
 20
0.720527
  0
VERTEX
  8
FOREGROUND
  6
CONTINUOUS
 10
2.648599
 20
0.732720
  0
VERTEX
  8
FOREGROUND
  6
CONTINUOUS
 10
2.655151
 20
0.745024
  0
VERTEX
  8
FOREGROUND
  6
CONTINUOUS
 10
2.661586
 20
0.757437
  0
VERTEX
  8
FOREGROUND
  6
CONTINUOUS
 10
2.667903
 20
0.769959
  0
VERTEX
  8
FOREGROUND
  6
CONTINUOUS
 10
2.674102
 20
0.782592
  0
VERTEX
  8
FOREGROUND
  6
CONTINUOUS
 10
2.680180
 20
0.795335
  0
VERTEX
  8
FOREGROUND
  6
CONTINUOUS
 10
2.686137
 20
0.808187
  0
VERTEX
  8
FOREGROUND
  6
CONTINUOUS
 10
2.691973
 20
0.821150
  0
VERTEX
  8
FOREGROUND
  6
CONTINUOUS
 10
2.697685
 20
0.834222
  0
VERTEX
  8
FOREGROUND
  6
CONTINUOUS
 10
2.703272
 20
0.847404
  0
VERTEX
  8
FOREGROUND
  6
CONTINUOUS
 10
2.708735
 20
0.860696
  0
VERTEX
  8
FOREGROUND
  6
CONTINUOUS
 10
2.714071
 20
0.874098
  0
VERTEX
  8
FOREGROUND
  6
CONTINUOUS
 10
2.719281
 20
0.887610
  0
VERTEX
  8
FOREGROUND
  6
CONTINUOUS
 10
2.724361
 20
0.901232
  0
VERTEX
  8
FOREGROUND
  6
CONTINUOUS
 10
2.729313
 20
0.914963
  0
VERTEX
  8
FOREGROUND
  6
CONTINUOUS
 10
2.734134
 20
0.928804
  0
VERTEX
  8
FOREGROUND
  6
CONTINUOUS
 10
2.738823
 20
0.942756
  0
VERTEX
  8
FOREGROUND
  6
CONTINUOUS
 10
2.743380
 20
0.956817
  0
VERTEX
  8
FOREGROUND
  6
CONTINUOUS
 10
2.747804
 20
0.970988
  0
VERTEX
  8
FOREGROUND
  6
CONTINUOUS
 10
2.752093
 20
0.985269
  0
VERTEX
  8
FOREGROUND
  6
CONTINUOUS
 10
2.756246
 20
0.999660
  0
VERTEX
  8
FOREGROUND
  6
CONTINUOUS
 10
2.760263
 20
1.014160
  0
VERTEX
  8
FOREGROUND
  6
CONTINUOUS
 10
2.764142
 20
1.028771
  0
VERTEX
  8
FOREGROUND
  6
CONTINUOUS
 10
2.767883
 20
1.043491
  0
VERTEX
  8
FOREGROUND
  6
CONTINUOUS
 10
2.771483
 20
1.058321
  0
VERTEX
  8
FOREGROUND
  6
CONTINUOUS
 10
2.774943
 20
1.073262
  0
VERTEX
  8
FOREGROUND
  6
CONTINUOUS
 10
2.778261
 20
1.088312
  0
VERTEX
  8
FOREGROUND
  6
CONTINUOUS
 10
2.781436
 20
1.103472
  0
VERTEX
  8
FOREGROUND
  6
CONTINUOUS
 10
2.784467
 20
1.118741
  0
VERTEX
  8
FOREGROUND
  6
CONTINUOUS
 10
2.787353
 20
1.134121
  0
VERTEX
  8
FOREGROUND
  6
CONTINUOUS
 10
2.790094
 20
1.149611
  0
VERTEX
  8
FOREGROUND
  6
CONTINUOUS
 10
2.792687
 20
1.165210
  0
VERTEX
  8
FOREGROUND
  6
CONTINUOUS
 10
2.795132
 20
1.180919
  0
VERTEX
  8
FOREGROUND
  6
CONTINUOUS
 10
2.797428
 20
1.196738
  0
VERTEX
  8
FOREGROUND
  6
CONTINUOUS
 10
2.799574
 20
1.212667
  0
VERTEX
  8
FOREGROUND
  6
CONTINUOUS
 10
2.801568
 20
1.228706
  0
VERTEX
  8
FOREGROUND
  6
CONTINUOUS
 10
2.803411
 20
1.244855
  0
VERTEX
  8
FOREGROUND
  6
CONTINUOUS
 10
2.805100
 20
1.261114
  0
VERTEX
  8
FOREGROUND
  6
CONTINUOUS
 10
2.806635
 20
1.277483
  0
VERTEX
  8
FOREGROUND
  6
CONTINUOUS
 10
2.808014
 20
1.293961
  0
VERTEX
  8
FOREGROUND
  6
CONTINUOUS
 10
2.809238
 20
1.310549
  0
VERTEX
  8
FOREGROUND
  6
CONTINUOUS
 10
2.810303
 20
1.327248
  0
VERTEX
  8
FOREGROUND
  6
CONTINUOUS
 10
2.811210
 20
1.344056
  0
VERTEX
  8
FOREGROUND
  6
CONTINUOUS
 10
2.811958
 20
1.360974
  0
VERTEX
  8
FOREGROUND
  6
CONTINUOUS
 10
2.812545
 20
1.378001
  0
VERTEX
  8
FOREGROUND
  6
CONTINUOUS
 10
2.812971
 20
1.395139
  0
VERTEX
  8
FOREGROUND
  6
CONTINUOUS
 10
2.813234
 20
1.412387
  0
VERTEX
  8
FOREGROUND
  6
CONTINUOUS
 10
2.813333
 20
1.429744
  0
SEQEND
  8
0
  0
ENDSEC
  0
EOF
