  0
SECTION
  2
HEADER
  9
$ACADVER
  1
AC1006
  9
$EXTMIN
 10
0.000000
 20
0.000000
  9
$EXTMAX
 10
3.256667
 20
3.253333
  9
$LTSCALE
 40
0.166667
  9
$PDMODE
 70
    35
  9
$PDSIZE
 40
0.133333
  0
ENDSEC
  0
SECTION
  2
TABLES
  0
TABLE
  2
LTYPE
 70
     9
  0
LTYPE
  2
CONTINUOUS
 70
    64
  3
Solid line
 72
    65
 73
     0
 40
0.000000
  0
LTYPE
  2
DASHED
 70
    64
  3
__ __ __ __ __ __ __ __ __ __ __ __ __ __ __
 72
    65
 73
     2
 40
0.001250
 49
0.000833
 49
-0.000417
  0
LTYPE
  2
HIDDEN
 70
    64
  3
 _ _ _ _ _ _ _ _ _ _ _ _ _ _ _ _ _ _ _ _ _ _
 72
    65
 73
     2
 40
0.000625
 49
0.000417
 49
-0.000208
  0
LTYPE
  2
CENTER
 70
    64
  3
____ _ ____ _ ____ _ ____ _ ____ _ ____ _ ____
 72
    65
 73
     4
 40
0.003333
 49
0.002083
 49
-0.000417
 49
0.000417
 49
-0.000417
  0
LTYPE
  2
PHANTOM
 70
    64
  3
_____ _ _ _____ _ _ _____ _ _ _____ _ _ ____
 72
    65
 73
     6
 40
0.004167
 49
0.002083
 49
-0.000417
 49
0.000417
 49
-0.000417
 49
0.000417
 49
-0.000417
  0
LTYPE
  2
DOT
 70
    64
  3
...............................................
 72
    65
 73
     2
 40
0.000417
 49
0.000000
 49
-0.000417
  0
LTYPE
  2
DASHDOT
 70
    64
  3
__ . __ . __ . __ . __ . __ . __ . __ . __ . __
 72
    65
 73
     4
 40
0.001667
 49
0.000833
 49
-0.000417
 49
0.000000
 49
-0.000417
  0
LTYPE
  2
BORDER
 70
    64
  3
__ __ . __ __ . __ __ . __ __ . __ __ . __ __
 72
    65
 73
     6
 40
0.002917
 49
0.000833
 49
-0.000417
 49
0.000833
 49
-0.000417
 49
0.000000
 49
-0.000417
  0
LTYPE
  2
DIVIDE
 70
    64
  3
__ . . __ . . __ . . __ . . __ . . __ . . __
 72
    65
 73
     6
 40
0.002083
 49
0.000833
 49
-0.000417
 49
0.000000
 49
-0.000417
 49
0.000000
 49
-0.000417
  0
LTYPE
  2
DOTDOT
 70
    64
  3
 . .  . .  . .  . .  . .  . . 
 72
    65
 73
     5
 40
0.000917
 49
-0.000417
 49
0.000000
 49
-0.000417
 49
0.000000
 49
-0.000417
  0
ENDTAB
  0
TABLE
  2
STYLE
 70
     2
  0
STYLE
 70
     0
  2
SN0
 40
0.000000
 41
0.001667
 50
0.000000
 71
     0
 42
0.000000
  3
ROMAND
  0
STYLE
 70
    68
  2
SV0
 40
0.000000
 41
0.001667
 50
0.000000
 71
     0
 42
0.000000
  3
ROMAND
  0
ENDTAB
  0
TABLE
  2
LAYER
 70
     2
  0
LAYER
  2
FOREGROUND
 70
    64
 62
     7
  6
CONTINUOUS
  0
LAYER
  2
BACKGROUND
 70
    65
 62
    -7
  6
CONTINUOUS
  0
ENDTAB
  0
ENDSEC
  0
SECTION
  2
ENTITIES
  0
POLYLINE
  8
FOREGROUND
  6
CONTINUOUS
 66
     1
 40
0.010000
 41
0.010000
 70
     1
  0
VERTEX
  8
FOREGROUND
  6
CONTINUOUS
 10
3.206667
 20
1.626667
  0
VERTEX
  8
FOREGROUND
  6
CONTINUOUS
 10
3.206558
 20
1.646436
  0
VERTEX
  8
FOREGROUND
  6
CONTINUOUS
 10
3.206263
 20
1.666080
  0
VERTEX
  8
FOREGROUND
  6
CONTINUOUS
 10
3.205783
 20
1.685600
  0
VERTEX
  8
FOREGROUND
  6
CONTINUOUS
 10
3.205120
 20
1.704994
  0
VERTEX
  8
FOREGROUND
  6
CONTINUOUS
 10
3.204275
 20
1.724265
  0
VERTEX
  8
FOREGROUND
  6
CONTINUOUS
 10
3.203249
 20
1.743410
  0
VERTEX
  8
FOREGROUND
  6
CONTINUOUS
 10
3.202042
 20
1.762431
  0
VERTEX
  8
FOREGROUND
  6
CONTINUOUS
 10
3.200657
 20
1.781327
  0
VERTEX
  8
FOREGROUND
  6
CONTINUOUS
 10
3.199095
 20
1.800098
  0
VERTEX
  8
FOREGROUND
  6
CONTINUOUS
 10
3.197356
 20
1.818744
  0
VERTEX
  8
FOREGROUND
  6
CONTINUOUS
 10
3.195441
 20
1.837266
  0
VERTEX
  8
FOREGROUND
  6
CONTINUOUS
 10
3.193353
 20
1.855663
  0
VERTEX
  8
FOREGROUND
  6
CONTINUOUS
 10
3.191092
 20
1.873936
  0
VERTEX
  8
FOREGROUND
  6
CONTINUOUS
 10
3.188659
 20
1.892083
  0
VERTEX
  8
FOREGROUND
  6
CONTINUOUS
 10
3.186056
 20
1.910106
  0
VERTEX
  8
FOREGROUND
  6
CONTINUOUS
 10
3.183283
 20
1.928005
  0
VERTEX
  8
FOREGROUND
  6
CONTINUOUS
 10
3.180342
 20
1.945778
  0
VERTEX
  8
FOREGROUND
  6
CONTINUOUS
 10
3.177234
 20
1.963427
  0
VERTEX
  8
FOREGROUND
  6
CONTINUOUS
 10
3.173961
 20
1.980951
  0
VERTEX
  8
FOREGROUND
  6
CONTINUOUS
 10
3.170522
 20
1.998350
  0
VERTEX
  8
FOREGROUND
  6
CONTINUOUS
 10
3.166920
 20
2.015625
  0
VERTEX
  8
FOREGROUND
  6
CONTINUOUS
 10
3.163156
 20
2.032775
  0
VERTEX
  8
FOREGROUND
  6
CONTINUOUS
 10
3.159231
 20
2.049800
  0
VERTEX
  8
FOREGROUND
  6
CONTINUOUS
 10
3.155146
 20
2.066701
  0
VERTEX
  8
FOREGROUND
  6
CONTINUOUS
 10
3.150902
 20
2.083477
  0
VERTEX
  8
FOREGROUND
  6
CONTINUOUS
 10
3.146500
 20
2.100128
  0
VERTEX
  8
FOREGROUND
  6
CONTINUOUS
 10
3.141942
 20
2.116654
  0
VERTEX
  8
FOREGROUND
  6
CONTINUOUS
 10
3.137229
 20
2.133056
  0
VERTEX
  8
FOREGROUND
  6
CONTINUOUS
 10
3.132362
 20
2.149332
  0
VERTEX
  8
FOREGROUND
  6
CONTINUOUS
 10
3.127342
 20
2.165485
  0
VERTEX
  8
FOREGROUND
  6
CONTINUOUS
 10
3.122170
 20
2.181512
  0
VERTEX
  8
FOREGROUND
  6
CONTINUOUS
 10
3.116848
 20
2.197415
  0
VERTEX
  8
FOREGROUND
  6
CONTINUOUS
 10
3.111376
 20
2.213193
  0
VERTEX
  8
FOREGROUND
  6
CONTINUOUS
 10
3.105756
 20
2.228846
  0
VERTEX
  8
FOREGROUND
  6
CONTINUOUS
 10
3.099990
 20
2.244375
  0
VERTEX
  8
FOREGROUND
  6
CONTINUOUS
 10
3.094077
 20
2.259779
  0
VERTEX
  8
FOREGROUND
  6
CONTINUOUS
 10
3.088019
 20
2.275058
  0
VERTEX
  8
FOREGROUND
  6
CONTINUOUS
 10
3.081819
 20
2.290212
  0
VERTEX
  8
FOREGROUND
  6
CONTINUOUS
 10
3.075476
 20
2.305242
  0
VERTEX
  8
FOREGROUND
  6
CONTINUOUS
 10
3.068991
 20
2.320147
  0
VERTEX
  8
FOREGROUND
  6
CONTINUOUS
 10
3.062367
 20
2.334927
  0
VERTEX
  8
FOREGROUND
  6
CONTINUOUS
 10
3.055604
 20
2.349583
  0
VERTEX
  8
FOREGROUND
  6
CONTINUOUS
 10
3.048704
 20
2.364114
  0
VERTEX
  8
FOREGROUND
  6
CONTINUOUS
 10
3.041667
 20
2.378520
  0
VERTEX
  8
FOREGROUND
  6
CONTINUOUS
 10
3.034494
 20
2.392801
  0
VERTEX
  8
FOREGROUND
  6
CONTINUOUS
 10
3.027188
 20
2.406958
  0
VERTEX
  8
FOREGROUND
  6
CONTINUOUS
 10
3.019749
 20
2.420990
  0
VERTEX
  8
FOREGROUND
  6
CONTINUOUS
 10
3.012178
 20
2.434897
  0
VERTEX
  8
FOREGROUND
  6
CONTINUOUS
 10
3.004477
 20
2.448680
  0
VERTEX
  8
FOREGROUND
  6
CONTINUOUS
 10
2.996646
 20
2.462337
  0
VERTEX
  8
FOREGROUND
  6
CONTINUOUS
 10
2.988687
 20
2.475871
  0
VERTEX
  8
FOREGROUND
  6
CONTINUOUS
 10
2.980601
 20
2.489279
  0
VERTEX
  8
FOREGROUND
  6
CONTINUOUS
 10
2.972389
 20
2.502563
  0
VERTEX
  8
FOREGROUND
  6
CONTINUOUS
 10
2.964053
 20
2.515721
  0
VERTEX
  8
FOREGROUND
  6
CONTINUOUS
 10
2.955593
 20
2.528756
  0
VERTEX
  8
FOREGROUND
  6
CONTINUOUS
 10
2.947011
 20
2.541665
  0
VERTEX
  8
FOREGROUND
  6
CONTINUOUS
 10
2.938307
 20
2.554450
  0
VERTEX
  8
FOREGROUND
  6
CONTINUOUS
 10
2.929484
 20
2.567110
  0
VERTEX
  8
FOREGROUND
  6
CONTINUOUS
 10
2.920542
 20
2.579645
  0
VERTEX
  8
FOREGROUND
  6
CONTINUOUS
 10
2.911482
 20
2.592056
  0
VERTEX
  8
FOREGROUND
  6
CONTINUOUS
 10
2.902306
 20
2.604342
  0
VERTEX
  8
FOREGROUND
  6
CONTINUOUS
 10
2.893014
 20
2.616503
  0
VERTEX
  8
FOREGROUND
  6
CONTINUOUS
 10
2.883609
 20
2.628539
  0
VERTEX
  8
FOREGROUND
  6
CONTINUOUS
 10
2.874091
 20
2.640451
  0
VERTEX
  8
FOREGROUND
  6
CONTINUOUS
 10
2.864460
 20
2.652238
  0
VERTEX
  8
FOREGROUND
  6
CONTINUOUS
 10
2.854720
 20
2.663900
  0
VERTEX
  8
FOREGROUND
  6
CONTINUOUS
 10
2.844870
 20
2.675438
  0
VERTEX
  8
FOREGROUND
  6
CONTINUOUS
 10
2.834912
 20
2.686851
  0
VERTEX
  8
FOREGROUND
  6
CONTINUOUS
 10
2.824846
 20
2.698139
  0
VERTEX
  8
FOREGROUND
  6
CONTINUOUS
 10
2.814675
 20
2.709302
  0
VERTEX
  8
FOREGROUND
  6
CONTINUOUS
 10
2.804399
 20
2.720341
  0
VERTEX
  8
FOREGROUND
  6
CONTINUOUS
 10
2.794020
 20
2.731255
  0
VERTEX
  8
FOREGROUND
  6
CONTINUOUS
 10
2.783539
 20
2.742044
  0
VERTEX
  8
FOREGROUND
  6
CONTINUOUS
 10
2.772956
 20
2.752709
  0
VERTEX
  8
FOREGROUND
  6
CONTINUOUS
 10
2.762273
 20
2.763249
  0
VERTEX
  8
FOREGROUND
  6
CONTINUOUS
 10
2.751492
 20
2.773664
  0
VERTEX
  8
FOREGROUND
  6
CONTINUOUS
 10
2.740613
 20
2.783954
  0
VERTEX
  8
FOREGROUND
  6
CONTINUOUS
 10
2.729637
 20
2.794120
  0
VERTEX
  8
FOREGROUND
  6
CONTINUOUS
 10
2.718567
 20
2.804161
  0
VERTEX
  8
FOREGROUND
  6
CONTINUOUS
 10
2.707402
 20
2.814077
  0
VERTEX
  8
FOREGROUND
  6
CONTINUOUS
 10
2.696144
 20
2.823868
  0
VERTEX
  8
FOREGROUND
  6
CONTINUOUS
 10
2.684795
 20
2.833535
  0
VERTEX
  8
FOREGROUND
  6
CONTINUOUS
 10
2.673354
 20
2.843077
  0
VERTEX
  8
FOREGROUND
  6
CONTINUOUS
 10
2.661825
 20
2.852494
  0
VERTEX
  8
FOREGROUND
  6
CONTINUOUS
 10
2.650207
 20
2.861787
  0
VERTEX
  8
FOREGROUND
  6
CONTINUOUS
 10
2.638503
 20
2.870955
  0
VERTEX
  8
FOREGROUND
  6
CONTINUOUS
 10
2.626712
 20
2.879998
  0
VERTEX
  8
FOREGROUND
  6
CONTINUOUS
 10
2.614837
 20
2.888916
  0
VERTEX
  8
FOREGROUND
  6
CONTINUOUS
 10
2.602878
 20
2.897710
  0
VERTEX
  8
FOREGROUND
  6
CONTINUOUS
 10
2.590838
 20
2.906379
  0
VERTEX
  8
FOREGROUND
  6
CONTINUOUS
 10
2.578715
 20
2.914923
  0
VERTEX
  8
FOREGROUND
  6
CONTINUOUS
 10
2.566513
 20
2.923343
  0
VERTEX
  8
FOREGROUND
  6
CONTINUOUS
 10
2.554232
 20
2.931638
  0
VERTEX
  8
FOREGROUND
  6
CONTINUOUS
 10
2.541874
 20
2.939808
  0
VERTEX
  8
FOREGROUND
  6
CONTINUOUS
 10
2.529439
 20
2.947853
  0
VERTEX
  8
FOREGROUND
  6
CONTINUOUS
 10
2.516929
 20
2.955774
  0
VERTEX
  8
FOREGROUND
  6
CONTINUOUS
 10
2.504344
 20
2.963570
  0
VERTEX
  8
FOREGROUND
  6
CONTINUOUS
 10
2.491687
 20
2.971241
  0
VERTEX
  8
FOREGROUND
  6
CONTINUOUS
 10
2.478958
 20
2.978787
  0
VERTEX
  8
FOREGROUND
  6
CONTINUOUS
 10
2.466158
 20
2.986209
  0
VERTEX
  8
FOREGROUND
  6
CONTINUOUS
 10
2.453290
 20
2.993506
  0
VERTEX
  8
FOREGROUND
  6
CONTINUOUS
 10
2.440352
 20
3.000679
  0
VERTEX
  8
FOREGROUND
  6
CONTINUOUS
 10
2.427348
 20
3.007726
  0
VERTEX
  8
FOREGROUND
  6
CONTINUOUS
 10
2.414278
 20
3.014649
  0
VERTEX
  8
FOREGROUND
  6
CONTINUOUS
 10
2.401143
 20
3.021447
  0
VERTEX
  8
FOREGROUND
  6
CONTINUOUS
 10
2.387945
 20
3.028121
  0
VERTEX
  8
FOREGROUND
  6
CONTINUOUS
 10
2.374685
 20
3.034669
  0
VERTEX
  8
FOREGROUND
  6
CONTINUOUS
 10
2.361363
 20
3.041093
  0
VERTEX
  8
FOREGROUND
  6
CONTINUOUS
 10
2.347981
 20
3.047393
  0
VERTEX
  8
FOREGROUND
  6
CONTINUOUS
 10
2.334541
 20
3.053567
  0
VERTEX
  8
FOREGROUND
  6
CONTINUOUS
 10
2.321043
 20
3.059617
  0
VERTEX
  8
FOREGROUND
  6
CONTINUOUS
 10
2.307488
 20
3.065542
  0
VERTEX
  8
FOREGROUND
  6
CONTINUOUS
 10
2.293878
 20
3.071342
  0
VERTEX
  8
FOREGROUND
  6
CONTINUOUS
 10
2.280214
 20
3.077018
  0
VERTEX
  8
FOREGROUND
  6
CONTINUOUS
 10
2.266497
 20
3.082569
  0
VERTEX
  8
FOREGROUND
  6
CONTINUOUS
 10
2.252729
 20
3.087995
  0
VERTEX
  8
FOREGROUND
  6
CONTINUOUS
 10
2.238909
 20
3.093297
  0
VERTEX
  8
FOREGROUND
  6
CONTINUOUS
 10
2.225041
 20
3.098473
  0
VERTEX
  8
FOREGROUND
  6
CONTINUOUS
 10
2.211124
 20
3.103525
  0
VERTEX
  8
FOREGROUND
  6
CONTINUOUS
 10
2.197160
 20
3.108453
  0
VERTEX
  8
FOREGROUND
  6
CONTINUOUS
 10
2.183150
 20
3.113255
  0
VERTEX
  8
FOREGROUND
  6
CONTINUOUS
 10
2.169096
 20
3.117933
  0
VERTEX
  8
FOREGROUND
  6
CONTINUOUS
 10
2.154998
 20
3.122486
  0
VERTEX
  8
FOREGROUND
  6
CONTINUOUS
 10
2.140857
 20
3.126915
  0
VERTEX
  8
FOREGROUND
  6
CONTINUOUS
 10
2.126676
 20
3.131218
  0
VERTEX
  8
FOREGROUND
  6
CONTINUOUS
 10
2.112455
 20
3.135397
  0
VERTEX
  8
FOREGROUND
  6
CONTINUOUS
 10
2.098194
 20
3.139452
  0
VERTEX
  8
FOREGROUND
  6
CONTINUOUS
 10
2.083896
 20
3.143381
  0
VERTEX
  8
FOREGROUND
  6
CONTINUOUS
 10
2.069562
 20
3.147186
  0
VERTEX
  8
FOREGROUND
  6
CONTINUOUS
 10
2.055192
 20
3.150866
  0
VERTEX
  8
FOREGROUND
  6
CONTINUOUS
 10
2.040789
 20
3.154421
  0
VERTEX
  8
FOREGROUND
  6
CONTINUOUS
 10
2.026352
 20
3.157852
  0
VERTEX
  8
FOREGROUND
  6
CONTINUOUS
 10
2.011883
 20
3.161158
  0
VERTEX
  8
FOREGROUND
  6
CONTINUOUS
 10
1.997384
 20
3.164339
  0
VERTEX
  8
FOREGROUND
  6
CONTINUOUS
 10
1.982856
 20
3.167395
  0
VERTEX
  8
FOREGROUND
  6
CONTINUOUS
 10
1.968299
 20
3.170327
  0
VERTEX
  8
FOREGROUND
  6
CONTINUOUS
 10
1.953716
 20
3.173134
  0
VERTEX
  8
FOREGROUND
  6
CONTINUOUS
 10
1.939106
 20
3.175816
  0
VERTEX
  8
FOREGROUND
  6
CONTINUOUS
 10
1.924472
 20
3.178374
  0
VERTEX
  8
FOREGROUND
  6
CONTINUOUS
 10
1.909814
 20
3.180807
  0
VERTEX
  8
FOREGROUND
  6
CONTINUOUS
 10
1.895134
 20
3.183115
  0
VERTEX
  8
FOREGROUND
  6
CONTINUOUS
 10
1.880432
 20
3.185298
  0
VERTEX
  8
FOREGROUND
  6
CONTINUOUS
 10
1.865711
 20
3.187357
  0
VERTEX
  8
FOREGROUND
  6
CONTINUOUS
 10
1.850971
 20
3.189291
  0
VERTEX
  8
FOREGROUND
  6
CONTINUOUS
 10
1.836213
 20
3.191100
  0
VERTEX
  8
FOREGROUND
  6
CONTINUOUS
 10
1.821439
 20
3.192785
  0
VERTEX
  8
FOREGROUND
  6
CONTINUOUS
 10
1.806649
 20
3.194344
  0
VERTEX
  8
FOREGROUND
  6
CONTINUOUS
 10
1.791845
 20
3.195779
  0
VERTEX
  8
FOREGROUND
  6
CONTINUOUS
 10
1.777029
 20
3.197090
  0
VERTEX
  8
FOREGROUND
  6
CONTINUOUS
 10
1.762200
 20
3.198275
  0
VERTEX
  8
FOREGROUND
  6
CONTINUOUS
 10
1.747361
 20
3.199336
  0
VERTEX
  8
FOREGROUND
  6
CONTINUOUS
 10
1.732513
 20
3.200272
  0
VERTEX
  8
FOREGROUND
  6
CONTINUOUS
 10
1.717656
 20
3.201084
  0
VERTEX
  8
FOREGROUND
  6
CONTINUOUS
 10
1.702793
 20
3.201770
  0
VERTEX
  8
FOREGROUND
  6
CONTINUOUS
 10
1.687923
 20
3.202332
  0
VERTEX
  8
FOREGROUND
  6
CONTINUOUS
 10
1.673049
 20
3.202769
  0
VERTEX
  8
FOREGROUND
  6
CONTINUOUS
 10
1.658171
 20
3.203082
  0
VERTEX
  8
FOREGROUND
  6
CONTINUOUS
 10
1.643291
 20
3.203270
  0
VERTEX
  8
FOREGROUND
  6
CONTINUOUS
 10
1.628409
 20
3.203333
  0
VERTEX
  8
FOREGROUND
  6
CONTINUOUS
 10
1.613528
 20
3.203271
  0
VERTEX
  8
FOREGROUND
  6
CONTINUOUS
 10
1.598648
 20
3.203085
  0
VERTEX
  8
FOREGROUND
  6
CONTINUOUS
 10
1.583770
 20
3.202774
  0
VERTEX
  8
FOREGROUND
  6
CONTINUOUS
 10
1.568896
 20
3.202338
  0
VERTEX
  8
FOREGROUND
  6
CONTINUOUS
 10
1.554026
 20
3.201777
  0
VERTEX
  8
FOREGROUND
  6
CONTINUOUS
 10
1.539162
 20
3.201092
  0
VERTEX
  8
FOREGROUND
  6
CONTINUOUS
 10
1.524305
 20
3.200282
  0
VERTEX
  8
FOREGROUND
  6
CONTINUOUS
 10
1.509457
 20
3.199347
  0
VERTEX
  8
FOREGROUND
  6
CONTINUOUS
 10
1.494618
 20
3.198288
  0
VERTEX
  8
FOREGROUND
  6
CONTINUOUS
 10
1.479789
 20
3.197103
  0
VERTEX
  8
FOREGROUND
  6
CONTINUOUS
 10
1.464973
 20
3.195794
  0
VERTEX
  8
FOREGROUND
  6
CONTINUOUS
 10
1.450169
 20
3.194361
  0
VERTEX
  8
FOREGROUND
  6
CONTINUOUS
 10
1.435379
 20
3.192802
  0
VERTEX
  8
FOREGROUND
  6
CONTINUOUS
 10
1.420605
 20
3.191119
  0
VERTEX
  8
FOREGROUND
  6
CONTINUOUS
 10
1.405847
 20
3.189311
  0
VERTEX
  8
FOREGROUND
  6
CONTINUOUS
 10
1.391106
 20
3.187379
  0
VERTEX
  8
FOREGROUND
  6
CONTINUOUS
 10
1.376385
 20
3.185322
  0
VERTEX
  8
FOREGROUND
  6
CONTINUOUS
 10
1.361683
 20
3.183140
  0
VERTEX
  8
FOREGROUND
  6
CONTINUOUS
 10
1.347003
 20
3.180833
  0
VERTEX
  8
FOREGROUND
  6
CONTINUOUS
 10
1.332345
 20
3.178401
  0
VERTEX
  8
FOREGROUND
  6
CONTINUOUS
 10
1.317710
 20
3.175845
  0
VERTEX
  8
FOREGROUND
  6
CONTINUOUS
 10
1.303100
 20
3.173164
  0
VERTEX
  8
FOREGROUND
  6
CONTINUOUS
 10
1.288516
 20
3.170359
  0
VERTEX
  8
FOREGROUND
  6
CONTINUOUS
 10
1.273959
 20
3.167428
  0
VERTEX
  8
FOREGROUND
  6
CONTINUOUS
 10
1.259431
 20
3.164373
  0
VERTEX
  8
FOREGROUND
  6
CONTINUOUS
 10
1.244931
 20
3.161193
  0
VERTEX
  8
FOREGROUND
  6
CONTINUOUS
 10
1.230463
 20
3.157889
  0
VERTEX
  8
FOREGROUND
  6
CONTINUOUS
 10
1.216026
 20
3.154459
  0
VERTEX
  8
FOREGROUND
  6
CONTINUOUS
 10
1.201621
 20
3.150905
  0
VERTEX
  8
FOREGROUND
  6
CONTINUOUS
 10
1.187251
 20
3.147227
  0
VERTEX
  8
FOREGROUND
  6
CONTINUOUS
 10
1.172917
 20
3.143423
  0
VERTEX
  8
FOREGROUND
  6
CONTINUOUS
 10
1.158618
 20
3.139495
  0
VERTEX
  8
FOREGROUND
  6
CONTINUOUS
 10
1.144358
 20
3.135442
  0
VERTEX
  8
FOREGROUND
  6
CONTINUOUS
 10
1.130136
 20
3.131264
  0
VERTEX
  8
FOREGROUND
  6
CONTINUOUS
 10
1.115954
 20
3.126962
  0
VERTEX
  8
FOREGROUND
  6
CONTINUOUS
 10
1.101813
 20
3.122535
  0
VERTEX
  8
FOREGROUND
  6
CONTINUOUS
 10
1.087715
 20
3.117983
  0
VERTEX
  8
FOREGROUND
  6
CONTINUOUS
 10
1.073660
 20
3.113307
  0
VERTEX
  8
FOREGROUND
  6
CONTINUOUS
 10
1.059650
 20
3.108505
  0
VERTEX
  8
FOREGROUND
  6
CONTINUOUS
 10
1.045685
 20
3.103579
  0
VERTEX
  8
FOREGROUND
  6
CONTINUOUS
 10
1.031768
 20
3.098529
  0
VERTEX
  8
FOREGROUND
  6
CONTINUOUS
 10
1.017899
 20
3.093353
  0
VERTEX
  8
FOREGROUND
  6
CONTINUOUS
 10
1.004079
 20
3.088053
  0
VERTEX
  8
FOREGROUND
  6
CONTINUOUS
 10
0.990310
 20
3.082628
  0
VERTEX
  8
FOREGROUND
  6
CONTINUOUS
 10
0.976593
 20
3.077078
  0
VERTEX
  8
FOREGROUND
  6
CONTINUOUS
 10
0.962928
 20
3.071404
  0
VERTEX
  8
FOREGROUND
  6
CONTINUOUS
 10
0.949318
 20
3.065605
  0
VERTEX
  8
FOREGROUND
  6
CONTINUOUS
 10
0.935762
 20
3.059681
  0
VERTEX
  8
FOREGROUND
  6
CONTINUOUS
 10
0.922264
 20
3.053632
  0
VERTEX
  8
FOREGROUND
  6
CONTINUOUS
 10
0.908823
 20
3.047459
  0
VERTEX
  8
FOREGROUND
  6
CONTINUOUS
 10
0.895440
 20
3.041161
  0
VERTEX
  8
FOREGROUND
  6
CONTINUOUS
 10
0.882118
 20
3.034738
  0
VERTEX
  8
FOREGROUND
  6
CONTINUOUS
 10
0.868857
 20
3.028191
  0
VERTEX
  8
FOREGROUND
  6
CONTINUOUS
 10
0.855658
 20
3.021519
  0
VERTEX
  8
FOREGROUND
  6
CONTINUOUS
 10
0.842522
 20
3.014722
  0
VERTEX
  8
FOREGROUND
  6
CONTINUOUS
 10
0.829452
 20
3.007800
  0
VERTEX
  8
FOREGROUND
  6
CONTINUOUS
 10
0.816447
 20
3.000754
  0
VERTEX
  8
FOREGROUND
  6
CONTINUOUS
 10
0.803509
 20
2.993583
  0
VERTEX
  8
FOREGROUND
  6
CONTINUOUS
 10
0.790639
 20
2.986287
  0
VERTEX
  8
FOREGROUND
  6
CONTINUOUS
 10
0.777839
 20
2.978866
  0
VERTEX
  8
FOREGROUND
  6
CONTINUOUS
 10
0.765109
 20
2.971321
  0
VERTEX
  8
FOREGROUND
  6
CONTINUOUS
 10
0.752451
 20
2.963651
  0
VERTEX
  8
FOREGROUND
  6
CONTINUOUS
 10
0.739866
 20
2.955856
  0
VERTEX
  8
FOREGROUND
  6
CONTINUOUS
 10
0.727355
 20
2.947937
  0
VERTEX
  8
FOREGROUND
  6
CONTINUOUS
 10
0.714920
 20
2.939892
  0
VERTEX
  8
FOREGROUND
  6
CONTINUOUS
 10
0.702560
 20
2.931723
  0
VERTEX
  8
FOREGROUND
  6
CONTINUOUS
 10
0.690279
 20
2.923430
  0
VERTEX
  8
FOREGROUND
  6
CONTINUOUS
 10
0.678076
 20
2.915011
  0
VERTEX
  8
FOREGROUND
  6
CONTINUOUS
 10
0.665953
 20
2.906468
  0
VERTEX
  8
FOREGROUND
  6
CONTINUOUS
 10
0.653911
 20
2.897800
  0
VERTEX
  8
FOREGROUND
  6
CONTINUOUS
 10
0.641951
 20
2.889008
  0
VERTEX
  8
FOREGROUND
  6
CONTINUOUS
 10
0.630075
 20
2.880090
  0
VERTEX
  8
FOREGROUND
  6
CONTINUOUS
 10
0.618284
 20
2.871048
  0
VERTEX
  8
FOREGROUND
  6
CONTINUOUS
 10
0.606578
 20
2.861882
  0
VERTEX
  8
FOREGROUND
  6
CONTINUOUS
 10
0.594960
 20
2.852590
  0
VERTEX
  8
FOREGROUND
  6
CONTINUOUS
 10
0.583430
 20
2.843174
  0
VERTEX
  8
FOREGROUND
  6
CONTINUOUS
 10
0.571989
 20
2.833633
  0
VERTEX
  8
FOREGROUND
  6
CONTINUOUS
 10
0.560638
 20
2.823967
  0
VERTEX
  8
FOREGROUND
  6
CONTINUOUS
 10
0.549380
 20
2.814177
  0
VERTEX
  8
FOREGROUND
  6
CONTINUOUS
 10
0.538214
 20
2.804262
  0
VERTEX
  8
FOREGROUND
  6
CONTINUOUS
 10
0.527142
 20
2.794222
  0
VERTEX
  8
FOREGROUND
  6
CONTINUOUS
 10
0.516166
 20
2.784057
  0
VERTEX
  8
FOREGROUND
  6
CONTINUOUS
 10
0.505286
 20
2.773768
  0
VERTEX
  8
FOREGROUND
  6
CONTINUOUS
 10
0.494503
 20
2.763354
  0
VERTEX
  8
FOREGROUND
  6
CONTINUOUS
 10
0.483819
 20
2.752815
  0
VERTEX
  8
FOREGROUND
  6
CONTINUOUS
 10
0.473236
 20
2.742151
  0
VERTEX
  8
FOREGROUND
  6
CONTINUOUS
 10
0.462753
 20
2.731363
  0
VERTEX
  8
FOREGROUND
  6
CONTINUOUS
 10
0.452373
 20
2.720450
  0
VERTEX
  8
FOREGROUND
  6
CONTINUOUS
 10
0.442096
 20
2.709412
  0
VERTEX
  8
FOREGROUND
  6
CONTINUOUS
 10
0.431924
 20
2.698250
  0
VERTEX
  8
FOREGROUND
  6
CONTINUOUS
 10
0.421857
 20
2.686963
  0
VERTEX
  8
FOREGROUND
  6
CONTINUOUS
 10
0.411898
 20
2.675551
  0
VERTEX
  8
FOREGROUND
  6
CONTINUOUS
 10
0.402047
 20
2.664014
  0
VERTEX
  8
FOREGROUND
  6
CONTINUOUS
 10
0.392305
 20
2.652353
  0
VERTEX
  8
FOREGROUND
  6
CONTINUOUS
 10
0.382674
 20
2.640566
  0
VERTEX
  8
FOREGROUND
  6
CONTINUOUS
 10
0.373154
 20
2.628656
  0
VERTEX
  8
FOREGROUND
  6
CONTINUOUS
 10
0.363748
 20
2.616620
  0
VERTEX
  8
FOREGROUND
  6
CONTINUOUS
 10
0.354455
 20
2.604460
  0
VERTEX
  8
FOREGROUND
  6
CONTINUOUS
 10
0.345278
 20
2.592175
  0
VERTEX
  8
FOREGROUND
  6
CONTINUOUS
 10
0.336217
 20
2.579765
  0
VERTEX
  8
FOREGROUND
  6
CONTINUOUS
 10
0.327274
 20
2.567230
  0
VERTEX
  8
FOREGROUND
  6
CONTINUOUS
 10
0.318449
 20
2.554571
  0
VERTEX
  8
FOREGROUND
  6
CONTINUOUS
 10
0.309744
 20
2.541787
  0
VERTEX
  8
FOREGROUND
  6
CONTINUOUS
 10
0.301161
 20
2.528879
  0
VERTEX
  8
FOREGROUND
  6
CONTINUOUS
 10
0.292700
 20
2.515845
  0
VERTEX
  8
FOREGROUND
  6
CONTINUOUS
 10
0.284362
 20
2.502687
  0
VERTEX
  8
FOREGROUND
  6
CONTINUOUS
 10
0.276149
 20
2.489404
  0
VERTEX
  8
FOREGROUND
  6
CONTINUOUS
 10
0.268062
 20
2.475996
  0
VERTEX
  8
FOREGROUND
  6
CONTINUOUS
 10
0.260101
 20
2.462464
  0
VERTEX
  8
FOREGROUND
  6
CONTINUOUS
 10
0.252269
 20
2.448807
  0
VERTEX
  8
FOREGROUND
  6
CONTINUOUS
 10
0.244567
 20
2.435025
  0
VERTEX
  8
FOREGROUND
  6
CONTINUOUS
 10
0.236994
 20
2.421119
  0
VERTEX
  8
FOREGROUND
  6
CONTINUOUS
 10
0.229554
 20
2.407087
  0
VERTEX
  8
FOREGROUND
  6
CONTINUOUS
 10
0.222246
 20
2.392931
  0
VERTEX
  8
FOREGROUND
  6
CONTINUOUS
 10
0.215073
 20
2.378651
  0
VERTEX
  8
FOREGROUND
  6
CONTINUOUS
 10
0.208034
 20
2.364245
  0
VERTEX
  8
FOREGROUND
  6
CONTINUOUS
 10
0.201132
 20
2.349715
  0
VERTEX
  8
FOREGROUND
  6
CONTINUOUS
 10
0.194368
 20
2.335060
  0
VERTEX
  8
FOREGROUND
  6
CONTINUOUS
 10
0.187742
 20
2.320280
  0
VERTEX
  8
FOREGROUND
  6
CONTINUOUS
 10
0.181257
 20
2.305376
  0
VERTEX
  8
FOREGROUND
  6
CONTINUOUS
 10
0.174912
 20
2.290347
  0
VERTEX
  8
FOREGROUND
  6
CONTINUOUS
 10
0.168710
 20
2.275193
  0
VERTEX
  8
FOREGROUND
  6
CONTINUOUS
 10
0.162651
 20
2.259914
  0
VERTEX
  8
FOREGROUND
  6
CONTINUOUS
 10
0.156737
 20
2.244511
  0
VERTEX
  8
FOREGROUND
  6
CONTINUOUS
 10
0.150968
 20
2.228983
  0
VERTEX
  8
FOREGROUND
  6
CONTINUOUS
 10
0.145347
 20
2.213330
  0
VERTEX
  8
FOREGROUND
  6
CONTINUOUS
 10
0.139874
 20
2.197553
  0
VERTEX
  8
FOREGROUND
  6
CONTINUOUS
 10
0.134550
 20
2.181650
  0
VERTEX
  8
FOREGROUND
  6
CONTINUOUS
 10
0.129377
 20
2.165623
  0
VERTEX
  8
FOREGROUND
  6
CONTINUOUS
 10
0.124355
 20
2.149472
  0
VERTEX
  8
FOREGROUND
  6
CONTINUOUS
 10
0.119486
 20
2.133195
  0
VERTEX
  8
FOREGROUND
  6
CONTINUOUS
 10
0.114771
 20
2.116794
  0
VERTEX
  8
FOREGROUND
  6
CONTINUOUS
 10
0.110212
 20
2.100268
  0
VERTEX
  8
FOREGROUND
  6
CONTINUOUS
 10
0.105809
 20
2.083617
  0
VERTEX
  8
FOREGROUND
  6
CONTINUOUS
 10
0.101563
 20
2.066842
  0
VERTEX
  8
FOREGROUND
  6
CONTINUOUS
 10
0.097477
 20
2.049942
  0
VERTEX
  8
FOREGROUND
  6
CONTINUOUS
 10
0.093550
 20
2.032917
  0
VERTEX
  8
FOREGROUND
  6
CONTINUOUS
 10
0.089784
 20
2.015767
  0
VERTEX
  8
FOREGROUND
  6
CONTINUOUS
 10
0.086180
 20
1.998493
  0
VERTEX
  8
FOREGROUND
  6
CONTINUOUS
 10
0.082740
 20
1.981094
  0
VERTEX
  8
FOREGROUND
  6
CONTINUOUS
 10
0.079465
 20
1.963570
  0
VERTEX
  8
FOREGROUND
  6
CONTINUOUS
 10
0.076355
 20
1.945922
  0
VERTEX
  8
FOREGROUND
  6
CONTINUOUS
 10
0.073413
 20
1.928149
  0
VERTEX
  8
FOREGROUND
  6
CONTINUOUS
 10
0.070638
 20
1.910251
  0
VERTEX
  8
FOREGROUND
  6
CONTINUOUS
 10
0.068033
 20
1.892228
  0
VERTEX
  8
FOREGROUND
  6
CONTINUOUS
 10
0.065599
 20
1.874080
  0
VERTEX
  8
FOREGROUND
  6
CONTINUOUS
 10
0.063336
 20
1.855808
  0
VERTEX
  8
FOREGROUND
  6
CONTINUOUS
 10
0.061246
 20
1.837411
  0
VERTEX
  8
FOREGROUND
  6
CONTINUOUS
 10
0.059330
 20
1.818890
  0
VERTEX
  8
FOREGROUND
  6
CONTINUOUS
 10
0.057589
 20
1.800243
  0
VERTEX
  8
FOREGROUND
  6
CONTINUOUS
 10
0.056024
 20
1.781472
  0
VERTEX
  8
FOREGROUND
  6
CONTINUOUS
 10
0.054637
 20
1.762576
  0
VERTEX
  8
FOREGROUND
  6
CONTINUOUS
 10
0.053429
 20
1.743556
  0
VERTEX
  8
FOREGROUND
  6
CONTINUOUS
 10
0.052401
 20
1.724410
  0
VERTEX
  8
FOREGROUND
  6
CONTINUOUS
 10
0.051554
 20
1.705140
  0
VERTEX
  8
FOREGROUND
  6
CONTINUOUS
 10
0.050889
 20
1.685746
  0
VERTEX
  8
FOREGROUND
  6
CONTINUOUS
 10
0.050408
 20
1.666226
  0
VERTEX
  8
FOREGROUND
  6
CONTINUOUS
 10
0.050111
 20
1.646582
  0
VERTEX
  8
FOREGROUND
  6
CONTINUOUS
 10
0.050000
 20
1.626813
  0
VERTEX
  8
FOREGROUND
  6
CONTINUOUS
 10
0.050000
 20
1.626813
  0
VERTEX
  8
FOREGROUND
  6
CONTINUOUS
 10
0.050107
 20
1.607044
  0
VERTEX
  8
FOREGROUND
  6
CONTINUOUS
 10
0.050400
 20
1.587399
  0
VERTEX
  8
FOREGROUND
  6
CONTINUOUS
 10
0.050878
 20
1.567880
  0
VERTEX
  8
FOREGROUND
  6
CONTINUOUS
 10
0.051539
 20
1.548485
  0
VERTEX
  8
FOREGROUND
  6
CONTINUOUS
 10
0.052383
 20
1.529215
  0
VERTEX
  8
FOREGROUND
  6
CONTINUOUS
 10
0.053407
 20
1.510069
  0
VERTEX
  8
FOREGROUND
  6
CONTINUOUS
 10
0.054612
 20
1.491048
  0
VERTEX
  8
FOREGROUND
  6
CONTINUOUS
 10
0.055995
 20
1.472152
  0
VERTEX
  8
FOREGROUND
  6
CONTINUOUS
 10
0.057556
 20
1.453381
  0
VERTEX
  8
FOREGROUND
  6
CONTINUOUS
 10
0.059293
 20
1.434734
  0
VERTEX
  8
FOREGROUND
  6
CONTINUOUS
 10
0.061206
 20
1.416212
  0
VERTEX
  8
FOREGROUND
  6
CONTINUOUS
 10
0.063292
 20
1.397815
  0
VERTEX
  8
FOREGROUND
  6
CONTINUOUS
 10
0.065552
 20
1.379542
  0
VERTEX
  8
FOREGROUND
  6
CONTINUOUS
 10
0.067983
 20
1.361394
  0
VERTEX
  8
FOREGROUND
  6
CONTINUOUS
 10
0.070585
 20
1.343371
  0
VERTEX
  8
FOREGROUND
  6
CONTINUOUS
 10
0.073356
 20
1.325473
  0
VERTEX
  8
FOREGROUND
  6
CONTINUOUS
 10
0.076295
 20
1.307699
  0
VERTEX
  8
FOREGROUND
  6
CONTINUOUS
 10
0.079401
 20
1.290050
  0
VERTEX
  8
FOREGROUND
  6
CONTINUOUS
 10
0.082673
 20
1.272525
  0
VERTEX
  8
FOREGROUND
  6
CONTINUOUS
 10
0.086110
 20
1.255126
  0
VERTEX
  8
FOREGROUND
  6
CONTINUOUS
 10
0.089710
 20
1.237851
  0
VERTEX
  8
FOREGROUND
  6
CONTINUOUS
 10
0.093473
 20
1.220700
  0
VERTEX
  8
FOREGROUND
  6
CONTINUOUS
 10
0.097396
 20
1.203675
  0
VERTEX
  8
FOREGROUND
  6
CONTINUOUS
 10
0.101480
 20
1.186774
  0
VERTEX
  8
FOREGROUND
  6
CONTINUOUS
 10
0.105722
 20
1.169998
  0
VERTEX
  8
FOREGROUND
  6
CONTINUOUS
 10
0.110122
 20
1.153346
  0
VERTEX
  8
FOREGROUND
  6
CONTINUOUS
 10
0.114679
 20
1.136820
  0
VERTEX
  8
FOREGROUND
  6
CONTINUOUS
 10
0.119390
 20
1.120417
  0
VERTEX
  8
FOREGROUND
  6
CONTINUOUS
 10
0.124256
 20
1.104140
  0
VERTEX
  8
FOREGROUND
  6
CONTINUOUS
 10
0.129275
 20
1.087987
  0
VERTEX
  8
FOREGROUND
  6
CONTINUOUS
 10
0.134445
 20
1.071959
  0
VERTEX
  8
FOREGROUND
  6
CONTINUOUS
 10
0.139766
 20
1.056056
  0
VERTEX
  8
FOREGROUND
  6
CONTINUOUS
 10
0.145236
 20
1.040278
  0
VERTEX
  8
FOREGROUND
  6
CONTINUOUS
 10
0.150854
 20
1.024624
  0
VERTEX
  8
FOREGROUND
  6
CONTINUOUS
 10
0.156620
 20
1.009095
  0
VERTEX
  8
FOREGROUND
  6
CONTINUOUS
 10
0.162531
 20
0.993690
  0
VERTEX
  8
FOREGROUND
  6
CONTINUOUS
 10
0.168587
 20
0.978411
  0
VERTEX
  8
FOREGROUND
  6
CONTINUOUS
 10
0.174786
 20
0.963256
  0
VERTEX
  8
FOREGROUND
  6
CONTINUOUS
 10
0.181128
 20
0.948225
  0
VERTEX
  8
FOREGROUND
  6
CONTINUOUS
 10
0.187611
 20
0.933320
  0
VERTEX
  8
FOREGROUND
  6
CONTINUOUS
 10
0.194234
 20
0.918539
  0
VERTEX
  8
FOREGROUND
  6
CONTINUOUS
 10
0.200995
 20
0.903883
  0
VERTEX
  8
FOREGROUND
  6
CONTINUOUS
 10
0.207895
 20
0.889351
  0
VERTEX
  8
FOREGROUND
  6
CONTINUOUS
 10
0.214930
 20
0.874944
  0
VERTEX
  8
FOREGROUND
  6
CONTINUOUS
 10
0.222101
 20
0.860662
  0
VERTEX
  8
FOREGROUND
  6
CONTINUOUS
 10
0.229406
 20
0.846505
  0
VERTEX
  8
FOREGROUND
  6
CONTINUOUS
 10
0.236844
 20
0.832472
  0
VERTEX
  8
FOREGROUND
  6
CONTINUOUS
 10
0.244414
 20
0.818564
  0
VERTEX
  8
FOREGROUND
  6
CONTINUOUS
 10
0.252114
 20
0.804781
  0
VERTEX
  8
FOREGROUND
  6
CONTINUOUS
 10
0.259943
 20
0.791123
  0
VERTEX
  8
FOREGROUND
  6
CONTINUOUS
 10
0.267901
 20
0.777589
  0
VERTEX
  8
FOREGROUND
  6
CONTINUOUS
 10
0.275986
 20
0.764180
  0
VERTEX
  8
FOREGROUND
  6
CONTINUOUS
 10
0.284196
 20
0.750895
  0
VERTEX
  8
FOREGROUND
  6
CONTINUOUS
 10
0.292531
 20
0.737735
  0
VERTEX
  8
FOREGROUND
  6
CONTINUOUS
 10
0.300990
 20
0.724700
  0
VERTEX
  8
FOREGROUND
  6
CONTINUOUS
 10
0.309571
 20
0.711790
  0
VERTEX
  8
FOREGROUND
  6
CONTINUOUS
 10
0.318273
 20
0.699005
  0
VERTEX
  8
FOREGROUND
  6
CONTINUOUS
 10
0.327096
 20
0.686344
  0
VERTEX
  8
FOREGROUND
  6
CONTINUOUS
 10
0.336037
 20
0.673808
  0
VERTEX
  8
FOREGROUND
  6
CONTINUOUS
 10
0.345095
 20
0.661396
  0
VERTEX
  8
FOREGROUND
  6
CONTINUOUS
 10
0.354270
 20
0.649109
  0
VERTEX
  8
FOREGROUND
  6
CONTINUOUS
 10
0.363560
 20
0.636947
  0
VERTEX
  8
FOREGROUND
  6
CONTINUOUS
 10
0.372965
 20
0.624910
  0
VERTEX
  8
FOREGROUND
  6
CONTINUOUS
 10
0.382482
 20
0.612997
  0
VERTEX
  8
FOREGROUND
  6
CONTINUOUS
 10
0.392111
 20
0.601210
  0
VERTEX
  8
FOREGROUND
  6
CONTINUOUS
 10
0.401851
 20
0.589546
  0
VERTEX
  8
FOREGROUND
  6
CONTINUOUS
 10
0.411700
 20
0.578008
  0
VERTEX
  8
FOREGROUND
  6
CONTINUOUS
 10
0.421657
 20
0.566594
  0
VERTEX
  8
FOREGROUND
  6
CONTINUOUS
 10
0.431721
 20
0.555305
  0
VERTEX
  8
FOREGROUND
  6
CONTINUOUS
 10
0.441891
 20
0.544141
  0
VERTEX
  8
FOREGROUND
  6
CONTINUOUS
 10
0.452166
 20
0.533101
  0
VERTEX
  8
FOREGROUND
  6
CONTINUOUS
 10
0.462544
 20
0.522186
  0
VERTEX
  8
FOREGROUND
  6
CONTINUOUS
 10
0.473025
 20
0.511396
  0
VERTEX
  8
FOREGROUND
  6
CONTINUOUS
 10
0.483606
 20
0.500730
  0
VERTEX
  8
FOREGROUND
  6
CONTINUOUS
 10
0.494288
 20
0.490190
  0
VERTEX
  8
FOREGROUND
  6
CONTINUOUS
 10
0.505068
 20
0.479774
  0
VERTEX
  8
FOREGROUND
  6
CONTINUOUS
 10
0.515947
 20
0.469482
  0
VERTEX
  8
FOREGROUND
  6
CONTINUOUS
 10
0.526921
 20
0.459316
  0
VERTEX
  8
FOREGROUND
  6
CONTINUOUS
 10
0.537991
 20
0.449274
  0
VERTEX
  8
FOREGROUND
  6
CONTINUOUS
 10
0.549155
 20
0.439356
  0
VERTEX
  8
FOREGROUND
  6
CONTINUOUS
 10
0.560412
 20
0.429564
  0
VERTEX
  8
FOREGROUND
  6
CONTINUOUS
 10
0.571760
 20
0.419896
  0
VERTEX
  8
FOREGROUND
  6
CONTINUOUS
 10
0.583199
 20
0.410353
  0
VERTEX
  8
FOREGROUND
  6
CONTINUOUS
 10
0.594728
 20
0.400935
  0
VERTEX
  8
FOREGROUND
  6
CONTINUOUS
 10
0.606345
 20
0.391641
  0
VERTEX
  8
FOREGROUND
  6
CONTINUOUS
 10
0.618048
 20
0.382472
  0
VERTEX
  8
FOREGROUND
  6
CONTINUOUS
 10
0.629838
 20
0.373428
  0
VERTEX
  8
FOREGROUND
  6
CONTINUOUS
 10
0.641712
 20
0.364508
  0
VERTEX
  8
FOREGROUND
  6
CONTINUOUS
 10
0.653670
 20
0.355713
  0
VERTEX
  8
FOREGROUND
  6
CONTINUOUS
 10
0.665710
 20
0.347043
  0
VERTEX
  8
FOREGROUND
  6
CONTINUOUS
 10
0.677832
 20
0.338498
  0
VERTEX
  8
FOREGROUND
  6
CONTINUOUS
 10
0.690033
 20
0.330077
  0
VERTEX
  8
FOREGROUND
  6
CONTINUOUS
 10
0.702313
 20
0.321781
  0
VERTEX
  8
FOREGROUND
  6
CONTINUOUS
 10
0.714671
 20
0.313610
  0
VERTEX
  8
FOREGROUND
  6
CONTINUOUS
 10
0.727105
 20
0.305564
  0
VERTEX
  8
FOREGROUND
  6
CONTINUOUS
 10
0.739615
 20
0.297642
  0
VERTEX
  8
FOREGROUND
  6
CONTINUOUS
 10
0.752198
 20
0.289845
  0
VERTEX
  8
FOREGROUND
  6
CONTINUOUS
 10
0.764855
 20
0.282172
  0
VERTEX
  8
FOREGROUND
  6
CONTINUOUS
 10
0.777583
 20
0.274625
  0
VERTEX
  8
FOREGROUND
  6
CONTINUOUS
 10
0.790382
 20
0.267202
  0
VERTEX
  8
FOREGROUND
  6
CONTINUOUS
 10
0.803250
 20
0.259903
  0
VERTEX
  8
FOREGROUND
  6
CONTINUOUS
 10
0.816187
 20
0.252730
  0
VERTEX
  8
FOREGROUND
  6
CONTINUOUS
 10
0.829190
 20
0.245681
  0
VERTEX
  8
FOREGROUND
  6
CONTINUOUS
 10
0.842260
 20
0.238757
  0
VERTEX
  8
FOREGROUND
  6
CONTINUOUS
 10
0.855394
 20
0.231958
  0
VERTEX
  8
FOREGROUND
  6
CONTINUOUS
 10
0.868592
 20
0.225283
  0
VERTEX
  8
FOREGROUND
  6
CONTINUOUS
 10
0.881851
 20
0.218733
  0
VERTEX
  8
FOREGROUND
  6
CONTINUOUS
 10
0.895173
 20
0.212308
  0
VERTEX
  8
FOREGROUND
  6
CONTINUOUS
 10
0.908554
 20
0.206007
  0
VERTEX
  8
FOREGROUND
  6
CONTINUOUS
 10
0.921994
 20
0.199832
  0
VERTEX
  8
FOREGROUND
  6
CONTINUOUS
 10
0.935491
 20
0.193781
  0
VERTEX
  8
FOREGROUND
  6
CONTINUOUS
 10
0.949045
 20
0.187854
  0
VERTEX
  8
FOREGROUND
  6
CONTINUOUS
 10
0.962655
 20
0.182053
  0
VERTEX
  8
FOREGROUND
  6
CONTINUOUS
 10
0.976318
 20
0.176376
  0
VERTEX
  8
FOREGROUND
  6
CONTINUOUS
 10
0.990034
 20
0.170823
  0
VERTEX
  8
FOREGROUND
  6
CONTINUOUS
 10
1.003803
 20
0.165396
  0
VERTEX
  8
FOREGROUND
  6
CONTINUOUS
 10
1.017621
 20
0.160093
  0
VERTEX
  8
FOREGROUND
  6
CONTINUOUS
 10
1.031489
 20
0.154915
  0
VERTEX
  8
FOREGROUND
  6
CONTINUOUS
 10
1.045406
 20
0.149862
  0
VERTEX
  8
FOREGROUND
  6
CONTINUOUS
 10
1.059369
 20
0.144933
  0
VERTEX
  8
FOREGROUND
  6
CONTINUOUS
 10
1.073379
 20
0.140129
  0
VERTEX
  8
FOREGROUND
  6
CONTINUOUS
 10
1.087433
 20
0.135450
  0
VERTEX
  8
FOREGROUND
  6
CONTINUOUS
 10
1.101530
 20
0.130896
  0
VERTEX
  8
FOREGROUND
  6
CONTINUOUS
 10
1.115670
 20
0.126466
  0
VERTEX
  8
FOREGROUND
  6
CONTINUOUS
 10
1.129851
 20
0.122161
  0
VERTEX
  8
FOREGROUND
  6
CONTINUOUS
 10
1.144072
 20
0.117981
  0
VERTEX
  8
FOREGROUND
  6
CONTINUOUS
 10
1.158332
 20
0.113925
  0
VERTEX
  8
FOREGROUND
  6
CONTINUOUS
 10
1.172630
 20
0.109994
  0
VERTEX
  8
FOREGROUND
  6
CONTINUOUS
 10
1.186964
 20
0.106188
  0
VERTEX
  8
FOREGROUND
  6
CONTINUOUS
 10
1.201333
 20
0.102507
  0
VERTEX
  8
FOREGROUND
  6
CONTINUOUS
 10
1.215736
 20
0.098950
  0
VERTEX
  8
FOREGROUND
  6
CONTINUOUS
 10
1.230173
 20
0.095518
  0
VERTEX
  8
FOREGROUND
  6
CONTINUOUS
 10
1.244641
 20
0.092211
  0
VERTEX
  8
FOREGROUND
  6
CONTINUOUS
 10
1.259140
 20
0.089029
  0
VERTEX
  8
FOREGROUND
  6
CONTINUOUS
 10
1.273668
 20
0.085971
  0
VERTEX
  8
FOREGROUND
  6
CONTINUOUS
 10
1.288224
 20
0.083038
  0
VERTEX
  8
FOREGROUND
  6
CONTINUOUS
 10
1.302808
 20
0.080229
  0
VERTEX
  8
FOREGROUND
  6
CONTINUOUS
 10
1.317417
 20
0.077546
  0
VERTEX
  8
FOREGROUND
  6
CONTINUOUS
 10
1.332051
 20
0.074987
  0
VERTEX
  8
FOREGROUND
  6
CONTINUOUS
 10
1.346709
 20
0.072553
  0
VERTEX
  8
FOREGROUND
  6
CONTINUOUS
 10
1.361389
 20
0.070243
  0
VERTEX
  8
FOREGROUND
  6
CONTINUOUS
 10
1.376090
 20
0.068058
  0
VERTEX
  8
FOREGROUND
  6
CONTINUOUS
 10
1.390811
 20
0.065998
  0
VERTEX
  8
FOREGROUND
  6
CONTINUOUS
 10
1.405551
 20
0.064063
  0
VERTEX
  8
FOREGROUND
  6
CONTINUOUS
 10
1.420309
 20
0.062253
  0
VERTEX
  8
FOREGROUND
  6
CONTINUOUS
 10
1.435083
 20
0.060567
  0
VERTEX
  8
FOREGROUND
  6
CONTINUOUS
 10
1.449872
 20
0.059006
  0
VERTEX
  8
FOREGROUND
  6
CONTINUOUS
 10
1.464676
 20
0.057569
  0
VERTEX
  8
FOREGROUND
  6
CONTINUOUS
 10
1.479492
 20
0.056257
  0
VERTEX
  8
FOREGROUND
  6
CONTINUOUS
 10
1.494320
 20
0.055071
  0
VERTEX
  8
FOREGROUND
  6
CONTINUOUS
 10
1.509159
 20
0.054008
  0
VERTEX
  8
FOREGROUND
  6
CONTINUOUS
 10
1.524008
 20
0.053071
  0
VERTEX
  8
FOREGROUND
  6
CONTINUOUS
 10
1.538864
 20
0.052258
  0
VERTEX
  8
FOREGROUND
  6
CONTINUOUS
 10
1.553728
 20
0.051570
  0
VERTEX
  8
FOREGROUND
  6
CONTINUOUS
 10
1.568597
 20
0.051007
  0
VERTEX
  8
FOREGROUND
  6
CONTINUOUS
 10
1.583472
 20
0.050568
  0
VERTEX
  8
FOREGROUND
  6
CONTINUOUS
 10
1.598349
 20
0.050254
  0
VERTEX
  8
FOREGROUND
  6
CONTINUOUS
 10
1.613230
 20
0.050065
  0
VERTEX
  8
FOREGROUND
  6
CONTINUOUS
 10
1.628111
 20
0.050001
  0
VERTEX
  8
FOREGROUND
  6
CONTINUOUS
 10
1.642992
 20
0.050061
  0
VERTEX
  8
FOREGROUND
  6
CONTINUOUS
 10
1.657873
 20
0.050246
  0
VERTEX
  8
FOREGROUND
  6
CONTINUOUS
 10
1.672751
 20
0.050556
  0
VERTEX
  8
FOREGROUND
  6
CONTINUOUS
 10
1.687625
 20
0.050990
  0
VERTEX
  8
FOREGROUND
  6
CONTINUOUS
 10
1.702495
 20
0.051549
  0
VERTEX
  8
FOREGROUND
  6
CONTINUOUS
 10
1.717358
 20
0.052233
  0
VERTEX
  8
FOREGROUND
  6
CONTINUOUS
 10
1.732215
 20
0.053042
  0
VERTEX
  8
FOREGROUND
  6
CONTINUOUS
 10
1.747064
 20
0.053975
  0
VERTEX
  8
FOREGROUND
  6
CONTINUOUS
 10
1.761903
 20
0.055033
  0
VERTEX
  8
FOREGROUND
  6
CONTINUOUS
 10
1.776732
 20
0.056216
  0
VERTEX
  8
FOREGROUND
  6
CONTINUOUS
 10
1.791549
 20
0.057524
  0
VERTEX
  8
FOREGROUND
  6
CONTINUOUS
 10
1.806352
 20
0.058956
  0
VERTEX
  8
FOREGROUND
  6
CONTINUOUS
 10
1.821142
 20
0.060513
  0
VERTEX
  8
FOREGROUND
  6
CONTINUOUS
 10
1.835917
 20
0.062195
  0
VERTEX
  8
FOREGROUND
  6
CONTINUOUS
 10
1.850675
 20
0.064001
  0
VERTEX
  8
FOREGROUND
  6
CONTINUOUS
 10
1.865416
 20
0.065932
  0
VERTEX
  8
FOREGROUND
  6
CONTINUOUS
 10
1.880137
 20
0.067988
  0
VERTEX
  8
FOREGROUND
  6
CONTINUOUS
 10
1.894839
 20
0.070169
  0
VERTEX
  8
FOREGROUND
  6
CONTINUOUS
 10
1.909520
 20
0.072474
  0
VERTEX
  8
FOREGROUND
  6
CONTINUOUS
 10
1.924178
 20
0.074905
  0
VERTEX
  8
FOREGROUND
  6
CONTINUOUS
 10
1.938813
 20
0.077459
  0
VERTEX
  8
FOREGROUND
  6
CONTINUOUS
 10
1.953423
 20
0.080139
  0
VERTEX
  8
FOREGROUND
  6
CONTINUOUS
 10
1.968007
 20
0.082943
  0
VERTEX
  8
FOREGROUND
  6
CONTINUOUS
 10
1.982564
 20
0.085872
  0
VERTEX
  8
FOREGROUND
  6
CONTINUOUS
 10
1.997093
 20
0.088926
  0
VERTEX
  8
FOREGROUND
  6
CONTINUOUS
 10
2.011593
 20
0.092105
  0
VERTEX
  8
FOREGROUND
  6
CONTINUOUS
 10
2.026062
 20
0.095408
  0
VERTEX
  8
FOREGROUND
  6
CONTINUOUS
 10
2.040499
 20
0.098836
  0
VERTEX
  8
FOREGROUND
  6
CONTINUOUS
 10
2.054904
 20
0.102388
  0
VERTEX
  8
FOREGROUND
  6
CONTINUOUS
 10
2.069274
 20
0.106066
  0
VERTEX
  8
FOREGROUND
  6
CONTINUOUS
 10
2.083609
 20
0.109868
  0
VERTEX
  8
FOREGROUND
  6
CONTINUOUS
 10
2.097908
 20
0.113795
  0
VERTEX
  8
FOREGROUND
  6
CONTINUOUS
 10
2.112169
 20
0.117846
  0
VERTEX
  8
FOREGROUND
  6
CONTINUOUS
 10
2.126391
 20
0.122023
  0
VERTEX
  8
FOREGROUND
  6
CONTINUOUS
 10
2.140574
 20
0.126324
  0
VERTEX
  8
FOREGROUND
  6
CONTINUOUS
 10
2.154715
 20
0.130750
  0
VERTEX
  8
FOREGROUND
  6
CONTINUOUS
 10
2.168814
 20
0.135300
  0
VERTEX
  8
FOREGROUND
  6
CONTINUOUS
 10
2.182869
 20
0.139975
  0
VERTEX
  8
FOREGROUND
  6
CONTINUOUS
 10
2.196879
 20
0.144775
  0
VERTEX
  8
FOREGROUND
  6
CONTINUOUS
 10
2.210844
 20
0.149700
  0
VERTEX
  8
FOREGROUND
  6
CONTINUOUS
 10
2.224762
 20
0.154750
  0
VERTEX
  8
FOREGROUND
  6
CONTINUOUS
 10
2.238632
 20
0.159924
  0
VERTEX
  8
FOREGROUND
  6
CONTINUOUS
 10
2.252452
 20
0.165223
  0
VERTEX
  8
FOREGROUND
  6
CONTINUOUS
 10
2.266222
 20
0.170646
  0
VERTEX
  8
FOREGROUND
  6
CONTINUOUS
 10
2.279940
 20
0.176195
  0
VERTEX
  8
FOREGROUND
  6
CONTINUOUS
 10
2.293605
 20
0.181868
  0
VERTEX
  8
FOREGROUND
  6
CONTINUOUS
 10
2.307216
 20
0.187666
  0
VERTEX
  8
FOREGROUND
  6
CONTINUOUS
 10
2.320771
 20
0.193588
  0
VERTEX
  8
FOREGROUND
  6
CONTINUOUS
 10
2.334271
 20
0.199636
  0
VERTEX
  8
FOREGROUND
  6
CONTINUOUS
 10
2.347712
 20
0.205808
  0
VERTEX
  8
FOREGROUND
  6
CONTINUOUS
 10
2.361095
 20
0.212104
  0
VERTEX
  8
FOREGROUND
  6
CONTINUOUS
 10
2.374418
 20
0.218526
  0
VERTEX
  8
FOREGROUND
  6
CONTINUOUS
 10
2.387680
 20
0.225072
  0
VERTEX
  8
FOREGROUND
  6
CONTINUOUS
 10
2.400879
 20
0.231743
  0
VERTEX
  8
FOREGROUND
  6
CONTINUOUS
 10
2.414015
 20
0.238539
  0
VERTEX
  8
FOREGROUND
  6
CONTINUOUS
 10
2.427087
 20
0.245459
  0
VERTEX
  8
FOREGROUND
  6
CONTINUOUS
 10
2.440092
 20
0.252504
  0
VERTEX
  8
FOREGROUND
  6
CONTINUOUS
 10
2.453031
 20
0.259674
  0
VERTEX
  8
FOREGROUND
  6
CONTINUOUS
 10
2.465901
 20
0.266969
  0
VERTEX
  8
FOREGROUND
  6
CONTINUOUS
 10
2.478702
 20
0.274388
  0
VERTEX
  8
FOREGROUND
  6
CONTINUOUS
 10
2.491433
 20
0.281933
  0
VERTEX
  8
FOREGROUND
  6
CONTINUOUS
 10
2.504091
 20
0.289601
  0
VERTEX
  8
FOREGROUND
  6
CONTINUOUS
 10
2.516677
 20
0.297395
  0
VERTEX
  8
FOREGROUND
  6
CONTINUOUS
 10
2.529189
 20
0.305313
  0
VERTEX
  8
FOREGROUND
  6
CONTINUOUS
 10
2.541625
 20
0.313356
  0
VERTEX
  8
FOREGROUND
  6
CONTINUOUS
 10
2.553985
 20
0.321524
  0
VERTEX
  8
FOREGROUND
  6
CONTINUOUS
 10
2.566268
 20
0.329817
  0
VERTEX
  8
FOREGROUND
  6
CONTINUOUS
 10
2.578472
 20
0.338234
  0
VERTEX
  8
FOREGROUND
  6
CONTINUOUS
 10
2.590595
 20
0.346776
  0
VERTEX
  8
FOREGROUND
  6
CONTINUOUS
 10
2.602638
 20
0.355443
  0
VERTEX
  8
FOREGROUND
  6
CONTINUOUS
 10
2.614598
 20
0.364234
  0
VERTEX
  8
FOREGROUND
  6
CONTINUOUS
 10
2.626475
 20
0.373151
  0
VERTEX
  8
FOREGROUND
  6
CONTINUOUS
 10
2.638267
 20
0.382192
  0
VERTEX
  8
FOREGROUND
  6
CONTINUOUS
 10
2.649974
 20
0.391357
  0
VERTEX
  8
FOREGROUND
  6
CONTINUOUS
 10
2.661593
 20
0.400648
  0
VERTEX
  8
FOREGROUND
  6
CONTINUOUS
 10
2.673124
 20
0.410063
  0
VERTEX
  8
FOREGROUND
  6
CONTINUOUS
 10
2.684566
 20
0.419603
  0
VERTEX
  8
FOREGROUND
  6
CONTINUOUS
 10
2.695917
 20
0.429267
  0
VERTEX
  8
FOREGROUND
  6
CONTINUOUS
 10
2.707177
 20
0.439057
  0
VERTEX
  8
FOREGROUND
  6
CONTINUOUS
 10
2.718344
 20
0.448971
  0
VERTEX
  8
FOREGROUND
  6
CONTINUOUS
 10
2.729416
 20
0.459010
  0
VERTEX
  8
FOREGROUND
  6
CONTINUOUS
 10
2.740394
 20
0.469173
  0
VERTEX
  8
FOREGROUND
  6
CONTINUOUS
 10
2.751275
 20
0.479462
  0
VERTEX
  8
FOREGROUND
  6
CONTINUOUS
 10
2.762058
 20
0.489875
  0
VERTEX
  8
FOREGROUND
  6
CONTINUOUS
 10
2.772743
 20
0.500413
  0
VERTEX
  8
FOREGROUND
  6
CONTINUOUS
 10
2.783328
 20
0.511075
  0
VERTEX
  8
FOREGROUND
  6
CONTINUOUS
 10
2.793811
 20
0.521863
  0
VERTEX
  8
FOREGROUND
  6
CONTINUOUS
 10
2.804192
 20
0.532775
  0
VERTEX
  8
FOREGROUND
  6
CONTINUOUS
 10
2.814470
 20
0.543811
  0
VERTEX
  8
FOREGROUND
  6
CONTINUOUS
 10
2.824643
 20
0.554973
  0
VERTEX
  8
FOREGROUND
  6
CONTINUOUS
 10
2.834711
 20
0.566259
  0
VERTEX
  8
FOREGROUND
  6
CONTINUOUS
 10
2.844671
 20
0.577670
  0
VERTEX
  8
FOREGROUND
  6
CONTINUOUS
 10
2.854523
 20
0.589206
  0
VERTEX
  8
FOREGROUND
  6
CONTINUOUS
 10
2.864266
 20
0.600866
  0
VERTEX
  8
FOREGROUND
  6
CONTINUOUS
 10
2.873899
 20
0.612652
  0
VERTEX
  8
FOREGROUND
  6
CONTINUOUS
 10
2.883419
 20
0.624562
  0
VERTEX
  8
FOREGROUND
  6
CONTINUOUS
 10
2.892827
 20
0.636596
  0
VERTEX
  8
FOREGROUND
  6
CONTINUOUS
 10
2.902121
 20
0.648756
  0
VERTEX
  8
FOREGROUND
  6
CONTINUOUS
 10
2.911299
 20
0.661040
  0
VERTEX
  8
FOREGROUND
  6
CONTINUOUS
 10
2.920361
 20
0.673449
  0
VERTEX
  8
FOREGROUND
  6
CONTINUOUS
 10
2.929306
 20
0.685982
  0
VERTEX
  8
FOREGROUND
  6
CONTINUOUS
 10
2.938132
 20
0.698641
  0
VERTEX
  8
FOREGROUND
  6
CONTINUOUS
 10
2.946837
 20
0.711424
  0
VERTEX
  8
FOREGROUND
  6
CONTINUOUS
 10
2.955422
 20
0.724332
  0
VERTEX
  8
FOREGROUND
  6
CONTINUOUS
 10
2.963884
 20
0.737365
  0
VERTEX
  8
FOREGROUND
  6
CONTINUOUS
 10
2.972223
 20
0.750522
  0
VERTEX
  8
FOREGROUND
  6
CONTINUOUS
 10
2.980438
 20
0.763804
  0
VERTEX
  8
FOREGROUND
  6
CONTINUOUS
 10
2.988526
 20
0.777211
  0
VERTEX
  8
FOREGROUND
  6
CONTINUOUS
 10
2.996488
 20
0.790743
  0
VERTEX
  8
FOREGROUND
  6
CONTINUOUS
 10
3.004321
 20
0.804399
  0
VERTEX
  8
FOREGROUND
  6
CONTINUOUS
 10
3.012025
 20
0.818180
  0
VERTEX
  8
FOREGROUND
  6
CONTINUOUS
 10
3.019599
 20
0.832086
  0
VERTEX
  8
FOREGROUND
  6
CONTINUOUS
 10
3.027040
 20
0.846117
  0
VERTEX
  8
FOREGROUND
  6
CONTINUOUS
 10
3.034349
 20
0.860272
  0
VERTEX
  8
FOREGROUND
  6
CONTINUOUS
 10
3.041524
 20
0.874552
  0
VERTEX
  8
FOREGROUND
  6
CONTINUOUS
 10
3.048564
 20
0.888957
  0
VERTEX
  8
FOREGROUND
  6
CONTINUOUS
 10
3.055467
 20
0.903486
  0
VERTEX
  8
FOREGROUND
  6
CONTINUOUS
 10
3.062233
 20
0.918141
  0
VERTEX
  8
FOREGROUND
  6
CONTINUOUS
 10
3.068860
 20
0.932920
  0
VERTEX
  8
FOREGROUND
  6
CONTINUOUS
 10
3.075347
 20
0.947823
  0
VERTEX
  8
FOREGROUND
  6
CONTINUOUS
 10
3.081693
 20
0.962852
  0
VERTEX
  8
FOREGROUND
  6
CONTINUOUS
 10
3.087897
 20
0.978005
  0
VERTEX
  8
FOREGROUND
  6
CONTINUOUS
 10
3.093957
 20
0.993283
  0
VERTEX
  8
FOREGROUND
  6
CONTINUOUS
 10
3.099873
 20
1.008686
  0
VERTEX
  8
FOREGROUND
  6
CONTINUOUS
 10
3.105642
 20
1.024214
  0
VERTEX
  8
FOREGROUND
  6
CONTINUOUS
 10
3.111265
 20
1.039866
  0
VERTEX
  8
FOREGROUND
  6
CONTINUOUS
 10
3.116740
 20
1.055643
  0
VERTEX
  8
FOREGROUND
  6
CONTINUOUS
 10
3.122065
 20
1.071545
  0
VERTEX
  8
FOREGROUND
  6
CONTINUOUS
 10
3.127240
 20
1.087571
  0
VERTEX
  8
FOREGROUND
  6
CONTINUOUS
 10
3.132263
 20
1.103722
  0
VERTEX
  8
FOREGROUND
  6
CONTINUOUS
 10
3.137133
 20
1.119998
  0
VERTEX
  8
FOREGROUND
  6
CONTINUOUS
 10
3.141850
 20
1.136399
  0
VERTEX
  8
FOREGROUND
  6
CONTINUOUS
 10
3.146411
 20
1.152925
  0
VERTEX
  8
FOREGROUND
  6
CONTINUOUS
 10
3.150815
 20
1.169575
  0
VERTEX
  8
FOREGROUND
  6
CONTINUOUS
 10
3.155063
 20
1.186350
  0
VERTEX
  8
FOREGROUND
  6
CONTINUOUS
 10
3.159151
 20
1.203250
  0
VERTEX
  8
FOREGROUND
  6
CONTINUOUS
 10
3.163079
 20
1.220274
  0
VERTEX
  8
FOREGROUND
  6
CONTINUOUS
 10
3.166847
 20
1.237423
  0
VERTEX
  8
FOREGROUND
  6
CONTINUOUS
 10
3.170452
 20
1.254697
  0
VERTEX
  8
FOREGROUND
  6
CONTINUOUS
 10
3.173893
 20
1.272096
  0
VERTEX
  8
FOREGROUND
  6
CONTINUOUS
 10
3.177170
 20
1.289620
  0
VERTEX
  8
FOREGROUND
  6
CONTINUOUS
 10
3.180282
 20
1.307268
  0
VERTEX
  8
FOREGROUND
  6
CONTINUOUS
 10
3.183226
 20
1.325041
  0
VERTEX
  8
FOREGROUND
  6
CONTINUOUS
 10
3.186002
 20
1.342939
  0
VERTEX
  8
FOREGROUND
  6
CONTINUOUS
 10
3.188609
 20
1.360961
  0
VERTEX
  8
FOREGROUND
  6
CONTINUOUS
 10
3.191045
 20
1.379108
  0
VERTEX
  8
FOREGROUND
  6
CONTINUOUS
 10
3.193310
 20
1.397380
  0
VERTEX
  8
FOREGROUND
  6
CONTINUOUS
 10
3.195402
 20
1.415777
  0
VERTEX
  8
FOREGROUND
  6
CONTINUOUS
 10
3.197319
 20
1.434298
  0
VERTEX
  8
FOREGROUND
  6
CONTINUOUS
 10
3.199062
 20
1.452945
  0
VERTEX
  8
FOREGROUND
  6
CONTINUOUS
 10
3.200628
 20
1.471716
  0
VERTEX
  8
FOREGROUND
  6
CONTINUOUS
 10
3.202017
 20
1.490611
  0
VERTEX
  8
FOREGROUND
  6
CONTINUOUS
 10
3.203227
 20
1.509632
  0
VERTEX
  8
FOREGROUND
  6
CONTINUOUS
 10
3.204256
 20
1.528777
  0
VERTEX
  8
FOREGROUND
  6
CONTINUOUS
 10
3.205105
 20
1.548047
  0
VERTEX
  8
FOREGROUND
  6
CONTINUOUS
 10
3.205772
 20
1.567442
  0
VERTEX
  8
FOREGROUND
  6
CONTINUOUS
 10
3.206255
 20
1.586961
  0
VERTEX
  8
FOREGROUND
  6
CONTINUOUS
 10
3.206554
 20
1.606606
  0
VERTEX
  8
FOREGROUND
  6
CONTINUOUS
 10
3.206667
 20
1.626374
  0
SEQEND
  8
0
  0
ENDSEC
  0
EOF
